<?xml version="1.0" encoding="utf-8"?>
<!-- Generator: Adobe Illustrator 25.1.0, SVG Export Plug-In . SVG Version: 6.00 Build 0)  -->
<svg version="1.1" id="Layer_1" xmlns="http://www.w3.org/2000/svg" xmlns:xlink="http://www.w3.org/1999/xlink" x="0px" y="0px"
	 viewBox="0 0 334.5 241.8" style="enable-background:new 0 0 334.5 241.8;" xml:space="preserve">
<style type="text/css">
	.st0{fill:#FFFFFF;}
	.st1{fill:#808080;}
	.st2{fill:#FF9F1A;}
	.st3{fill:#F4F1EF;}
	.st4{fill:#BFBFBF;}
	.st5{fill:#00CDDC;}
	.st6{fill:#32DCD2;}
	.st7{fill:#00A878;}
	.st8{fill:none;stroke:#FFFFFF;stroke-width:2.5385;stroke-linecap:round;stroke-miterlimit:10;}
	.st9{fill:#E14504;}
	.st10{fill:#DCE3E5;}
	.st11{fill:#E97443;}
</style>
<g>
	<g>
		<path class="st0" d="M334.5,173.3c0-159.5-8.7-170.1-63.5-170.1c-26.9,0-137.7-3.7-172.9-3C63.6,0.8,16.7-5,10.7,19.5
			c-6,24.2-9.1,55.5-9.1,98.9c0,68.3-11,109.7,24.5,118.3c36,8.8,171.2,3.7,214.7,2.6C285.6,238.2,334.5,242.9,334.5,173.3z"/>
		<path class="st1" d="M27.2,87.6v-6.8H26v-1.1h1.2v-1.4c0-0.8,0.2-1.3,0.6-1.7c0.4-0.4,0.9-0.5,1.7-0.5h0.8v1.1h-0.6
			c-0.4,0-0.7,0.1-0.9,0.2c-0.2,0.2-0.3,0.4-0.3,0.8v1.3h2v1.1h-2v6.8L27.2,87.6L27.2,87.6z"/>
		<path class="st1" d="M35.4,87.8c-0.8,0-1.4-0.2-2-0.5s-1.1-0.8-1.4-1.4s-0.5-1.4-0.5-2.2s0.2-1.6,0.5-2.2c0.4-0.6,0.8-1.1,1.4-1.5
			c0.6-0.3,1.3-0.5,2-0.5c0.8,0,1.4,0.2,2,0.5s1.1,0.8,1.4,1.5c0.3,0.6,0.5,1.4,0.5,2.2s-0.2,1.6-0.5,2.2S38,87,37.4,87.3
			C36.8,87.7,36.2,87.8,35.4,87.8z M35.4,86.7c0.5,0,0.9-0.1,1.3-0.3c0.4-0.2,0.7-0.6,1-1c0.2-0.5,0.4-1,0.4-1.7S38,82.5,37.7,82
			c-0.2-0.4-0.6-0.8-1-1s-0.8-0.3-1.3-0.3s-0.9,0.1-1.3,0.3c-0.4,0.2-0.7,0.6-1,1s-0.4,1-0.4,1.7s0.1,1.2,0.4,1.7
			c0.2,0.4,0.6,0.8,1,1C34.5,86.6,35,86.7,35.4,86.7z"/>
		<path class="st1" d="M41.3,87.6v-7.9h1.2l0.1,1.5c0.2-0.5,0.6-0.9,1.1-1.2c0.5-0.3,1.1-0.5,1.9-0.5v1.4h-0.4
			c-0.5,0-0.9,0.1-1.3,0.2c-0.4,0.2-0.7,0.4-0.9,0.8s-0.3,0.9-0.3,1.6v4L41.3,87.6L41.3,87.6z"/>
		<path class="st1" d="M52.2,91.2l2-4.3h-0.5l-3.2-7.2H52l2.6,6.2l2.8-6.2h1.4l-5.2,11.5H52.2z"/>
		<path class="st1" d="M63.1,87.8c-0.8,0-1.4-0.2-2-0.5s-1.1-0.8-1.4-1.4s-0.5-1.4-0.5-2.2s0.2-1.6,0.5-2.2s0.8-1.1,1.4-1.5
			c0.6-0.3,1.3-0.5,2-0.5s1.4,0.2,2,0.5s1.1,0.8,1.4,1.5c0.3,0.6,0.5,1.4,0.5,2.2s-0.2,1.6-0.5,2.2c-0.4,0.6-0.8,1.1-1.4,1.4
			C64.5,87.7,63.8,87.8,63.1,87.8z M63.1,86.7c0.5,0,0.9-0.1,1.3-0.3s0.7-0.6,1-1c0.2-0.5,0.4-1,0.4-1.7s-0.2-1.3-0.5-1.7
			c-0.2-0.4-0.6-0.8-0.9-1c-0.4-0.2-0.8-0.3-1.3-0.3s-0.9,0.1-1.3,0.3c-0.4,0.2-0.7,0.6-1,1s-0.4,1-0.4,1.7s0.1,1.2,0.4,1.7
			c0.2,0.4,0.6,0.8,0.9,1S62.6,86.7,63.1,86.7z"/>
		<path class="st1" d="M71.8,87.8c-0.9,0-1.7-0.3-2.2-0.9c-0.6-0.6-0.8-1.5-0.8-2.6v-4.6h1.3v4.5c0,1.6,0.7,2.5,2,2.5
			c0.7,0,1.3-0.2,1.7-0.7c0.5-0.5,0.7-1.2,0.7-2.1v-4.1h1.3v7.9h-1.2l-0.1-1.4c-0.2,0.5-0.6,0.9-1.1,1.2
			C73,87.7,72.4,87.8,71.8,87.8z"/>
		<path class="st1" d="M78.1,87.6v-7.9h1.2l0.1,1.5c0.2-0.5,0.6-0.9,1.1-1.2c0.5-0.3,1.1-0.5,1.9-0.5v1.4H82c-0.5,0-0.9,0.1-1.3,0.2
			c-0.4,0.2-0.7,0.4-0.9,0.8c-0.2,0.4-0.3,0.9-0.3,1.6v4L78.1,87.6L78.1,87.6z"/>
		<path class="st1" d="M92.4,87.8c-0.7,0-1.2-0.1-1.7-0.4s-0.9-0.6-1.2-1.1l-0.2,1.3h-1.2V76.1h1.3V81c0.3-0.4,0.6-0.7,1.1-1
			s1.1-0.5,1.8-0.5c0.8,0,1.5,0.2,2.1,0.5c0.6,0.4,1,0.9,1.4,1.5c0.3,0.6,0.5,1.3,0.5,2.1c0,0.8-0.2,1.5-0.5,2.1s-0.8,1.1-1.4,1.5
			C93.9,87.6,93.2,87.8,92.4,87.8z M92.2,86.7c0.5,0,1-0.1,1.4-0.4c0.4-0.2,0.7-0.6,1-1.1c0.2-0.4,0.3-1,0.3-1.6s-0.1-1.1-0.3-1.6
			c-0.2-0.4-0.6-0.8-1-1.1c-0.4-0.2-0.9-0.4-1.4-0.4s-1,0.1-1.4,0.4c-0.4,0.2-0.7,0.6-1,1.1c-0.2,0.4-0.3,1-0.3,1.6s0.1,1.1,0.3,1.6
			c0.2,0.4,0.6,0.8,1,1.1C91.2,86.5,91.7,86.7,92.2,86.7z"/>
		<path class="st1" d="M101.8,87.8c-0.8,0-1.4-0.2-2-0.5s-1.1-0.8-1.4-1.4s-0.5-1.4-0.5-2.2s0.2-1.6,0.5-2.2s0.8-1.1,1.4-1.5
			c0.6-0.3,1.3-0.5,2-0.5c0.8,0,1.4,0.2,2,0.5s1.1,0.8,1.4,1.5c0.3,0.6,0.5,1.4,0.5,2.2s-0.2,1.6-0.5,2.2s-0.8,1.1-1.4,1.4
			C103.2,87.7,102.5,87.8,101.8,87.8z M101.8,86.7c0.5,0,0.9-0.1,1.3-0.3c0.4-0.2,0.7-0.6,1-1c0.2-0.5,0.4-1,0.4-1.7
			s-0.1-1.2-0.4-1.7s-0.6-0.8-0.9-1c-0.4-0.2-0.8-0.3-1.3-0.3s-0.9,0.1-1.3,0.3c-0.4,0.2-0.7,0.6-1,1s-0.4,1-0.4,1.7
			s0.1,1.2,0.4,1.7c0.2,0.4,0.6,0.8,0.9,1S101.3,86.7,101.8,86.7z"/>
		<path class="st1" d="M111.3,87.8c-0.8,0-1.5-0.2-2.1-0.5s-1.1-0.9-1.4-1.5s-0.5-1.3-0.5-2.1c0-0.8,0.2-1.5,0.5-2.1
			s0.8-1.1,1.4-1.5s1.3-0.5,2.1-0.5c0.7,0,1.2,0.1,1.7,0.4s0.9,0.6,1.2,1.1v-4.9h1.3v11.5h-1.2l-0.1-1.3c-0.3,0.4-0.6,0.7-1.1,1
			C112.6,87.7,112,87.8,111.3,87.8z M111.4,86.7c0.5,0,1-0.1,1.4-0.4c0.4-0.2,0.7-0.6,1-1.1c0.2-0.4,0.3-1,0.3-1.6s-0.1-1.1-0.3-1.6
			c-0.2-0.4-0.6-0.8-1-1.1c-0.4-0.2-0.9-0.4-1.4-0.4s-1,0.1-1.4,0.4s-0.7,0.6-1,1.1c-0.2,0.4-0.3,1-0.3,1.6s0.1,1.1,0.3,1.6
			c0.2,0.4,0.5,0.8,1,1.1C110.4,86.5,110.9,86.7,111.4,86.7z"/>
		<path class="st1" d="M118.6,91.2l2-4.3h-0.5l-3.1-7.2h1.5l2.6,6.2l2.8-6.2h1.4l-5.2,11.5H118.6z"/>
		<path class="st1" d="M134,87.6c-0.7,0-1.3-0.2-1.7-0.5c-0.4-0.4-0.6-1-0.6-1.9v-4.4h-1.4v-1.1h1.4l0.2-1.9h1.2v1.9h2.3v1.1h-2.3
			v4.4c0,0.5,0.1,0.8,0.3,1s0.6,0.3,1.1,0.3h0.8v1.2L134,87.6L134,87.6z"/>
		<path class="st1" d="M140.4,87.8c-0.8,0-1.4-0.2-2-0.5s-1.1-0.8-1.4-1.4c-0.4-0.6-0.5-1.4-0.5-2.2s0.2-1.6,0.5-2.2
			c0.4-0.6,0.8-1.1,1.4-1.5c0.6-0.3,1.3-0.5,2-0.5s1.4,0.2,2,0.5s1.1,0.8,1.4,1.5c0.4,0.6,0.5,1.4,0.5,2.2s-0.2,1.6-0.5,2.2
			c-0.4,0.6-0.8,1.1-1.4,1.4C141.8,87.7,141.2,87.8,140.4,87.8z M140.4,86.7c0.5,0,0.9-0.1,1.3-0.3c0.4-0.2,0.7-0.6,1-1
			c0.2-0.5,0.4-1,0.4-1.7s-0.1-1.2-0.4-1.7c-0.2-0.4-0.6-0.8-1-1s-0.8-0.3-1.3-0.3s-0.9,0.1-1.3,0.3c-0.4,0.2-0.7,0.6-1,1
			s-0.4,1-0.4,1.7s0.1,1.2,0.4,1.7c0.2,0.4,0.6,0.8,1,1C139.6,86.6,140,86.7,140.4,86.7z"/>
		<path class="st1" d="M154.8,87.8c-0.7,0-1.2-0.1-1.7-0.4s-0.9-0.6-1.2-1.1l-0.1,1.3h-1.2V76.1h1.3V81c0.3-0.4,0.6-0.7,1.1-1
			s1.1-0.5,1.8-0.5c0.8,0,1.5,0.2,2.1,0.5c0.6,0.4,1,0.9,1.4,1.5c0.3,0.6,0.5,1.3,0.5,2.1c0,0.8-0.2,1.5-0.5,2.1s-0.8,1.1-1.4,1.5
			C156.2,87.6,155.5,87.8,154.8,87.8z M154.6,86.7c0.5,0,1-0.1,1.4-0.4c0.4-0.2,0.7-0.6,1-1.1s0.3-1,0.3-1.6s-0.1-1.1-0.3-1.6
			s-0.6-0.8-1-1.1c-0.4-0.2-0.9-0.4-1.4-0.4s-1,0.1-1.4,0.4s-0.7,0.6-1,1.1s-0.3,1-0.3,1.6s0.1,1.1,0.3,1.6s0.6,0.8,1,1.1
			C153.6,86.5,154.1,86.7,154.6,86.7z"/>
		<path class="st1" d="M160.6,87.6v-7.9h1.2l0.1,1.5c0.2-0.5,0.6-0.9,1.1-1.2c0.5-0.3,1.1-0.5,1.9-0.5v1.4h-0.4
			c-0.5,0-0.9,0.1-1.3,0.2c-0.4,0.2-0.7,0.4-0.9,0.8s-0.4,0.9-0.4,1.6v4L160.6,87.6L160.6,87.6z"/>
		<path class="st1" d="M169.6,87.8c-0.8,0-1.4-0.2-2-0.5c-0.6-0.4-1.1-0.8-1.4-1.4c-0.3-0.6-0.5-1.4-0.5-2.2c0-0.8,0.2-1.6,0.5-2.2
			s0.8-1.1,1.4-1.5c0.6-0.4,1.3-0.5,2.1-0.5s1.4,0.2,2,0.5s1,0.8,1.3,1.4s0.4,1.2,0.4,1.8c0,0.1,0,0.2,0,0.3c0,0.1,0,0.2,0,0.4h-6.3
			c0,0.6,0.2,1.1,0.4,1.5s0.6,0.7,0.9,0.9c0.4,0.2,0.8,0.3,1.2,0.3c0.6,0,1-0.1,1.4-0.4s0.7-0.6,0.8-1h1.3c-0.2,0.7-0.6,1.4-1.2,1.8
			C171.3,87.6,170.6,87.8,169.6,87.8z M169.6,80.6c-0.6,0-1.2,0.2-1.7,0.6s-0.8,1-0.9,1.7h5c0-0.7-0.3-1.3-0.7-1.7
			C170.9,80.8,170.3,80.6,169.6,80.6z"/>
		<path class="st1" d="M177.8,87.8c-0.7,0-1.2-0.1-1.7-0.3c-0.4-0.2-0.8-0.5-1-0.9s-0.3-0.8-0.3-1.2c0-0.8,0.3-1.4,0.9-1.9
			c0.6-0.4,1.5-0.7,2.5-0.7h2.1v-0.1c0-0.7-0.2-1.2-0.5-1.6s-0.9-0.5-1.5-0.5c-0.5,0-1,0.1-1.3,0.4c-0.4,0.3-0.6,0.6-0.7,1.1h-1.4
			c0.1-0.6,0.2-1.1,0.6-1.5c0.3-0.4,0.8-0.7,1.3-0.9c0.5-0.2,1-0.3,1.6-0.3c1.1,0,1.9,0.3,2.5,0.9s0.8,1.4,0.8,2.4v4.9h-1.2
			l-0.1-1.4c-0.2,0.5-0.6,0.8-1,1.1C179.1,87.7,178.5,87.8,177.8,87.8z M178,86.7c0.5,0,0.9-0.1,1.3-0.4c0.4-0.3,0.6-0.6,0.8-1
			s0.3-0.9,0.3-1.3l0,0h-2c-0.8,0-1.3,0.1-1.7,0.4c-0.3,0.3-0.5,0.6-0.5,1s0.1,0.8,0.5,1C177,86.6,177.5,86.7,178,86.7z"/>
		<path class="st1" d="M183.8,87.6V76.1h1.3V83l3.2-3.3h1.7l-3.5,3.6l4,4.4h-1.7l-3.6-4.1v4.1L183.8,87.6L183.8,87.6z"/>
		<path class="st1" d="M30.4,109.8c-0.8,0-1.5-0.2-2.1-0.5s-1-0.9-1.4-1.5c-0.3-0.6-0.5-1.3-0.5-2.1c0-0.8,0.2-1.5,0.5-2.1
			s0.8-1.1,1.4-1.5s1.3-0.5,2.1-0.5c0.7,0,1.2,0.1,1.7,0.4s0.9,0.6,1.2,1.1v-4.9h1.3v11.5h-1.2l-0.1-1.3c-0.3,0.4-0.6,0.7-1.1,1
			C31.7,109.7,31.1,109.8,30.4,109.8z M30.5,108.7c0.5,0,1-0.1,1.4-0.4s0.7-0.6,1-1.1s0.3-1,0.3-1.6s-0.1-1.1-0.3-1.6
			c-0.2-0.4-0.5-0.8-1-1.1s-0.9-0.4-1.4-0.4s-1,0.1-1.4,0.4s-0.7,0.6-1,1.1s-0.3,1-0.3,1.6s0.1,1.1,0.3,1.6s0.5,0.8,1,1.1
			C29.5,108.5,30,108.7,30.5,108.7z"/>
		<path class="st1" d="M40.5,109.8c-0.8,0-1.4-0.2-2-0.5s-1.1-0.8-1.4-1.4c-0.4-0.6-0.5-1.4-0.5-2.2s0.2-1.6,0.5-2.2
			c0.4-0.6,0.8-1.1,1.4-1.5c0.6-0.3,1.3-0.5,2-0.5s1.4,0.2,2,0.5s1.1,0.8,1.4,1.5c0.3,0.6,0.5,1.4,0.5,2.2s-0.2,1.6-0.5,2.2
			s-0.8,1.1-1.4,1.4S41.2,109.8,40.5,109.8z M40.5,108.7c0.5,0,0.9-0.1,1.3-0.3s0.7-0.6,1-1c0.2-0.5,0.4-1,0.4-1.7s-0.1-1.2-0.4-1.7
			c-0.2-0.4-0.6-0.8-1-1s-0.8-0.3-1.3-0.3s-0.9,0.1-1.3,0.3c-0.4,0.2-0.7,0.6-1,1s-0.4,1-0.4,1.7s0.1,1.2,0.4,1.7
			c0.2,0.4,0.6,0.8,1,1S40,108.7,40.5,108.7z"/>
		<path class="st1" d="M47.6,109.6l-2.3-7.9h1.3l1.7,6.2l1.9-6.2h1.5l1.9,6.2l1.7-6.2h1.4l-2.3,7.9H53l-2-6.5l-2,6.5H47.6z"/>
		<path class="st1" d="M58.1,109.6v-7.9h1.2l0.1,1.4c0.3-0.5,0.6-0.9,1.1-1.2c0.5-0.3,1-0.4,1.6-0.4c0.9,0,1.7,0.3,2.2,0.9
			c0.6,0.6,0.8,1.4,0.8,2.6v4.6h-1.3v-4.5c0-1.7-0.7-2.5-2-2.5c-0.7,0-1.2,0.2-1.7,0.7c-0.4,0.5-0.7,1.2-0.7,2.1v4.1L58.1,109.6
			L58.1,109.6z"/>
		<path class="st1" d="M71.5,109.6V98.1h1.3v4.9c0.3-0.5,0.7-0.9,1.1-1.1c0.5-0.3,1-0.4,1.6-0.4c0.9,0,1.7,0.3,2.2,0.9
			c0.6,0.6,0.8,1.4,0.8,2.6v4.6h-1.2v-4.5c0-1.7-0.7-2.5-2-2.5c-0.7,0-1.3,0.2-1.7,0.7s-0.7,1.2-0.7,2.1v4.1L71.5,109.6L71.5,109.6z
			"/>
		<path class="st1" d="M83.3,109.8c-0.7,0-1.2-0.1-1.7-0.3c-0.4-0.2-0.8-0.5-1-0.9s-0.3-0.8-0.3-1.2c0-0.8,0.3-1.4,0.9-1.9
			c0.6-0.4,1.5-0.7,2.5-0.7h2.1v-0.1c0-0.7-0.2-1.2-0.5-1.6s-0.8-0.5-1.5-0.5c-0.5,0-1,0.1-1.3,0.4c-0.4,0.3-0.6,0.6-0.7,1.1h-1.4
			c0.1-0.6,0.2-1.1,0.6-1.5c0.3-0.4,0.8-0.7,1.3-0.9c0.5-0.2,1-0.3,1.6-0.3c1.1,0,1.9,0.3,2.5,0.9s0.8,1.4,0.8,2.4v4.9H86l-0.1-1.4
			c-0.2,0.5-0.5,0.8-1,1.1C84.6,109.7,84,109.8,83.3,109.8z M83.5,108.7c0.5,0,1-0.1,1.3-0.4c0.4-0.3,0.7-0.6,0.8-1
			c0.2-0.4,0.3-0.9,0.3-1.3l0,0h-2c-0.8,0-1.3,0.1-1.7,0.4s-0.5,0.6-0.5,1s0.2,0.8,0.5,1C82.5,108.6,82.9,108.7,83.5,108.7z"/>
		<path class="st1" d="M89.3,109.6V98.1h1.3v11.5H89.3z"/>
		<path class="st1" d="M93.3,109.6v-6.8h-1.2v-1.1h1.2v-1.4c0-0.8,0.2-1.3,0.6-1.7c0.4-0.4,0.9-0.5,1.7-0.5h0.8v1.1h-0.6
			c-0.4,0-0.7,0.1-0.9,0.2s-0.3,0.4-0.3,0.8v1.3h2v1.1h-2v6.8L93.3,109.6L93.3,109.6z"/>
		<path class="st1" d="M105.5,109.6c-0.7,0-1.3-0.2-1.7-0.5c-0.4-0.4-0.6-1-0.6-1.9v-4.4h-1.4v-1.1h1.4l0.2-1.9h1.2v1.9h2.3v1.1
			h-2.3v4.4c0,0.5,0.1,0.8,0.3,1c0.2,0.2,0.6,0.3,1.1,0.3h0.8v1.2L105.5,109.6L105.5,109.6z"/>
		<path class="st1" d="M108.6,109.6V98.1h1.3v4.9c0.3-0.5,0.6-0.9,1.1-1.1c0.5-0.3,1-0.4,1.6-0.4c0.9,0,1.7,0.3,2.2,0.9
			c0.6,0.6,0.8,1.4,0.8,2.6v4.6h-1.3v-4.5c0-1.7-0.7-2.5-2-2.5c-0.7,0-1.3,0.2-1.7,0.7s-0.7,1.2-0.7,2.1v4.1L108.6,109.6
			L108.6,109.6z"/>
		<path class="st1" d="M121.3,109.8c-0.8,0-1.4-0.2-2-0.5c-0.6-0.4-1.1-0.8-1.4-1.4s-0.5-1.4-0.5-2.2c0-0.8,0.2-1.6,0.5-2.2
			s0.8-1.1,1.4-1.5s1.3-0.5,2.1-0.5c0.8,0,1.4,0.2,2,0.5s1,0.8,1.3,1.4s0.4,1.2,0.4,1.8c0,0.1,0,0.2,0,0.3c0,0.1,0,0.2,0,0.4h-6.3
			c0,0.6,0.2,1.1,0.4,1.5s0.6,0.7,0.9,0.9c0.4,0.2,0.8,0.3,1.2,0.3c0.6,0,1-0.1,1.4-0.4s0.7-0.6,0.8-1h1.3c-0.2,0.7-0.6,1.4-1.2,1.8
			C123,109.6,122.2,109.8,121.3,109.8z M121.3,102.6c-0.6,0-1.2,0.2-1.7,0.6s-0.8,1-0.9,1.7h5c0-0.7-0.3-1.3-0.7-1.7
			C122.5,102.8,122,102.6,121.3,102.6z"/>
		<path class="st1" d="M134.7,109.8c-0.8,0-1.4-0.2-2-0.5c-0.6-0.4-1.1-0.8-1.4-1.5c-0.3-0.6-0.5-1.3-0.5-2.2s0.2-1.6,0.5-2.2
			c0.4-0.6,0.8-1.1,1.4-1.5c0.6-0.4,1.3-0.5,2-0.5c0.9,0,1.7,0.2,2.4,0.7s1.1,1.1,1.2,2h-1.4c-0.1-0.5-0.4-0.9-0.8-1.1
			c-0.4-0.3-0.9-0.4-1.5-0.4c-0.4,0-0.9,0.1-1.3,0.3c-0.4,0.2-0.7,0.6-1,1c-0.2,0.5-0.4,1-0.4,1.7s0.1,1.2,0.4,1.7s0.6,0.8,1,1
			s0.8,0.3,1.3,0.3c0.6,0,1-0.1,1.5-0.4s0.7-0.7,0.8-1.2h1.4c-0.2,0.8-0.6,1.5-1.2,2C136.5,109.6,135.7,109.8,134.7,109.8z"/>
		<path class="st1" d="M142.8,109.8c-0.7,0-1.2-0.1-1.6-0.3c-0.4-0.2-0.8-0.5-1-0.9s-0.3-0.8-0.3-1.2c0-0.8,0.3-1.4,0.9-1.9
			c0.6-0.4,1.5-0.7,2.5-0.7h2.1v-0.1c0-0.7-0.2-1.2-0.5-1.6s-0.8-0.5-1.5-0.5c-0.5,0-1,0.1-1.4,0.4s-0.6,0.6-0.7,1.1h-1.4
			c0.1-0.6,0.2-1.1,0.6-1.5c0.3-0.4,0.8-0.7,1.3-0.9c0.5-0.2,1-0.3,1.6-0.3c1.1,0,1.9,0.3,2.5,0.9s0.8,1.4,0.8,2.4v4.9h-1.2
			l-0.1-1.4c-0.2,0.5-0.6,0.8-1,1.1C144.1,109.6,143.6,109.8,142.8,109.8z M143,108.7c0.5,0,0.9-0.1,1.3-0.4c0.4-0.3,0.6-0.6,0.8-1
			s0.3-0.9,0.3-1.3l0,0h-2c-0.8,0-1.3,0.1-1.7,0.4c-0.3,0.3-0.5,0.6-0.5,1s0.2,0.8,0.5,1C142.1,108.6,142.5,108.7,143,108.7z"/>
		<path class="st1" d="M149.3,109.6v-6.8h-1.2v-1.1h1.2v-1.4c0-0.8,0.2-1.3,0.6-1.7c0.4-0.4,0.9-0.5,1.7-0.5h0.8v1.1h-0.6
			c-0.4,0-0.7,0.1-0.9,0.2c-0.2,0.2-0.3,0.4-0.3,0.8v1.3h1.9v1.1h-1.9v6.8L149.3,109.6L149.3,109.6z"/>
		<path class="st1" d="M154.6,109.6v-6.8h-1.2v-1.1h1.2v-1.4c0-0.8,0.2-1.3,0.6-1.7c0.4-0.4,0.9-0.5,1.7-0.5h0.8v1.1h-0.6
			c-0.4,0-0.7,0.1-0.9,0.2c-0.2,0.2-0.3,0.4-0.3,0.8v1.3h1.9v1.1h-1.9v6.8L154.6,109.6L154.6,109.6z"/>
		<path class="st1" d="M162.8,109.8c-0.8,0-1.4-0.2-2-0.5c-0.6-0.4-1.1-0.8-1.4-1.4c-0.3-0.6-0.5-1.4-0.5-2.2c0-0.8,0.2-1.6,0.5-2.2
			s0.8-1.1,1.4-1.5c0.6-0.4,1.3-0.5,2.1-0.5s1.4,0.2,2,0.5s1,0.8,1.3,1.4s0.4,1.2,0.4,1.8c0,0.1,0,0.2,0,0.3s0,0.2,0,0.4h-6.3
			c0,0.6,0.2,1.1,0.4,1.5s0.6,0.7,0.9,0.9c0.4,0.2,0.8,0.3,1.2,0.3c0.5,0,1-0.1,1.4-0.4s0.6-0.6,0.8-1h1.3c-0.2,0.7-0.6,1.4-1.2,1.8
			C164.5,109.6,163.7,109.8,162.8,109.8z M162.8,102.6c-0.6,0-1.2,0.2-1.7,0.6s-0.8,1-0.9,1.7h5c0-0.7-0.3-1.3-0.7-1.7
			C164,102.8,163.4,102.6,162.8,102.6z"/>
		<path class="st1" d="M169.1,99.9c-0.3,0-0.5-0.1-0.7-0.3c-0.2-0.2-0.3-0.4-0.3-0.7c0-0.3,0.1-0.5,0.3-0.6c0.2-0.2,0.4-0.3,0.7-0.3
			s0.5,0.1,0.7,0.3c0.2,0.2,0.3,0.4,0.3,0.6c0,0.3-0.1,0.5-0.3,0.7C169.6,99.9,169.4,99.9,169.1,99.9z M168.4,109.6v-7.9h1.3v7.9
			H168.4z"/>
		<path class="st1" d="M172.1,109.6v-7.9h1.2l0.1,1.4c0.3-0.5,0.6-0.9,1.1-1.2c0.5-0.3,1-0.4,1.6-0.4c0.9,0,1.7,0.3,2.2,0.9
			c0.6,0.6,0.8,1.4,0.8,2.6v4.6h-1.3v-4.5c0-1.7-0.7-2.5-2.1-2.5c-0.7,0-1.2,0.2-1.7,0.7s-0.7,1.2-0.7,2.1v4.1L172.1,109.6
			L172.1,109.6z"/>
		<path class="st1" d="M184.8,109.8c-0.8,0-1.4-0.2-2-0.5c-0.6-0.4-1.1-0.8-1.4-1.4c-0.3-0.6-0.5-1.4-0.5-2.2c0-0.8,0.2-1.6,0.5-2.2
			s0.8-1.1,1.4-1.5c0.6-0.4,1.3-0.5,2.1-0.5s1.4,0.2,2,0.5s1,0.8,1.3,1.4s0.4,1.2,0.4,1.8c0,0.1,0,0.2,0,0.3c0,0.1,0,0.2,0,0.4h-6.3
			c0,0.6,0.2,1.1,0.4,1.5s0.6,0.7,0.9,0.9c0.4,0.2,0.8,0.3,1.2,0.3c0.6,0,1-0.1,1.4-0.4c0.4-0.2,0.7-0.6,0.8-1h1.3
			c-0.2,0.7-0.6,1.4-1.2,1.8C186.5,109.6,185.8,109.8,184.8,109.8z M184.8,102.6c-0.6,0-1.2,0.2-1.7,0.6s-0.8,1-0.9,1.7h5
			c0-0.7-0.3-1.3-0.7-1.7C186.1,102.8,185.5,102.6,184.8,102.6z"/>
		<path class="st1" d="M27.7,135.2l2-4.3h-0.5l-3.1-7.2h1.5l2.6,6.2l2.8-6.2h1.3l-5.2,11.5H27.7z"/>
		<path class="st1" d="M38.6,131.8c-0.8,0-1.4-0.2-2-0.5s-1.1-0.8-1.4-1.4c-0.3-0.6-0.5-1.4-0.5-2.2s0.2-1.6,0.5-2.2
			s0.8-1.1,1.4-1.5c0.6-0.3,1.3-0.5,2-0.5s1.4,0.2,2,0.5s1.1,0.8,1.4,1.5c0.3,0.6,0.5,1.4,0.5,2.2c0,0.8-0.2,1.6-0.5,2.2
			s-0.8,1.1-1.4,1.4C40,131.7,39.3,131.8,38.6,131.8z M38.6,130.7c0.5,0,0.9-0.1,1.3-0.3c0.4-0.2,0.7-0.6,1-1c0.2-0.5,0.4-1,0.4-1.7
			s-0.1-1.2-0.4-1.7c-0.2-0.4-0.6-0.8-0.9-1c-0.4-0.2-0.8-0.3-1.3-0.3s-0.9,0.1-1.3,0.3c-0.4,0.2-0.7,0.6-1,1s-0.4,1-0.4,1.7
			s0.1,1.2,0.4,1.7c0.2,0.4,0.6,0.8,0.9,1C37.7,130.6,38.1,130.7,38.6,130.7z"/>
		<path class="st1" d="M47.3,131.8c-0.9,0-1.7-0.3-2.2-0.9c-0.5-0.6-0.8-1.5-0.8-2.6v-4.6h1.3v4.5c0,1.6,0.7,2.5,2,2.5
			c0.7,0,1.3-0.2,1.7-0.7c0.5-0.5,0.7-1.2,0.7-2.1v-4.1h1.3v7.9h-1.2l-0.1-1.4c-0.2,0.5-0.6,0.9-1.1,1.2
			C48.5,131.7,47.9,131.8,47.3,131.8z"/>
		<path class="st1" d="M61.4,131.8c-0.8,0-1.4-0.2-2-0.5c-0.6-0.4-1.1-0.8-1.4-1.5c-0.3-0.6-0.5-1.3-0.5-2.2s0.2-1.6,0.5-2.2
			s0.8-1.1,1.4-1.5c0.6-0.4,1.3-0.5,2-0.5c0.9,0,1.7,0.2,2.4,0.7c0.7,0.5,1.1,1.1,1.2,2h-1.4c-0.1-0.5-0.4-0.9-0.8-1.1
			c-0.4-0.3-0.9-0.4-1.5-0.4c-0.4,0-0.9,0.1-1.3,0.3s-0.7,0.6-1,1c-0.2,0.5-0.4,1-0.4,1.7s0.1,1.2,0.4,1.7c0.2,0.4,0.6,0.8,1,1
			s0.8,0.3,1.3,0.3c0.6,0,1-0.1,1.5-0.4c0.4-0.3,0.7-0.7,0.8-1.2H65c-0.2,0.8-0.6,1.5-1.2,2C63.2,131.5,62.4,131.8,61.4,131.8z"/>
		<path class="st1" d="M70.5,131.8c-0.8,0-1.4-0.2-2-0.5s-1.1-0.8-1.4-1.4c-0.4-0.6-0.5-1.4-0.5-2.2s0.2-1.6,0.5-2.2
			c0.4-0.6,0.8-1.1,1.4-1.5c0.6-0.3,1.3-0.5,2-0.5c0.8,0,1.4,0.2,2,0.5s1.1,0.8,1.4,1.5c0.4,0.6,0.5,1.4,0.5,2.2
			c0,0.8-0.2,1.6-0.5,2.2c-0.4,0.6-0.8,1.1-1.4,1.4S71.3,131.8,70.5,131.8z M70.5,130.7c0.5,0,0.9-0.1,1.3-0.3s0.7-0.6,1-1
			c0.2-0.5,0.4-1,0.4-1.7s-0.1-1.2-0.4-1.7c-0.2-0.4-0.6-0.8-0.9-1c-0.4-0.2-0.8-0.3-1.3-0.3s-0.9,0.1-1.3,0.3c-0.4,0.2-0.7,0.6-1,1
			s-0.4,1-0.4,1.7s0.1,1.2,0.4,1.7c0.2,0.4,0.6,0.8,0.9,1C69.7,130.6,70.1,130.7,70.5,130.7z"/>
		<path class="st1" d="M76.4,131.6v-7.9h1.2l0.1,1.4c0.3-0.5,0.6-0.9,1.1-1.2c0.5-0.3,1-0.4,1.6-0.4c0.9,0,1.7,0.3,2.2,0.9
			c0.6,0.6,0.8,1.4,0.8,2.6v4.6h-1.3v-4.5c0-1.7-0.7-2.5-2-2.5c-0.7,0-1.2,0.2-1.7,0.7c-0.4,0.5-0.7,1.2-0.7,2.1v4.1L76.4,131.6
			L76.4,131.6z"/>
		<path class="st1" d="M88.6,131.8c-1,0-1.7-0.2-2.4-0.7c-0.6-0.5-1-1.1-1.1-2h1.4c0.1,0.4,0.3,0.8,0.7,1.1s0.8,0.5,1.4,0.5
			s1-0.1,1.2-0.4c0.3-0.2,0.4-0.5,0.4-0.9c0-0.5-0.2-0.8-0.5-1c-0.4-0.2-0.8-0.3-1.5-0.4c-0.4-0.1-0.9-0.2-1.3-0.4
			c-0.4-0.2-0.8-0.4-1.1-0.7c-0.3-0.3-0.4-0.7-0.4-1.2c0-0.7,0.3-1.3,0.8-1.7c0.5-0.4,1.2-0.7,2.1-0.7c0.8,0,1.5,0.2,2.1,0.6
			s0.8,1,0.9,1.8H90c-0.1-0.4-0.2-0.7-0.5-0.9c-0.3-0.2-0.7-0.3-1.2-0.3s-0.8,0.1-1.1,0.3c-0.3,0.2-0.4,0.5-0.4,0.8s0.2,0.6,0.5,0.8
			c0.3,0.2,0.8,0.3,1.4,0.5c0.5,0.1,1,0.2,1.4,0.4c0.4,0.1,0.8,0.4,1.1,0.7c0.3,0.3,0.4,0.7,0.4,1.3c0,0.7-0.3,1.3-0.8,1.8
			C90.3,131.6,89.5,131.8,88.6,131.8z"/>
		<path class="st1" d="M96.4,131.8c-0.9,0-1.7-0.3-2.2-0.9c-0.6-0.6-0.8-1.5-0.8-2.6v-4.6h1.3v4.5c0,1.6,0.7,2.5,2,2.5
			c0.7,0,1.3-0.2,1.7-0.7c0.4-0.5,0.7-1.2,0.7-2.1v-4.1h1.3v7.9h-1.1l-0.1-1.4c-0.2,0.5-0.6,0.9-1.1,1.2
			C97.6,131.7,97,131.8,96.4,131.8z"/>
		<path class="st1" d="M102.7,131.6v-7.9h1.2l0.1,1.1c0.3-0.4,0.6-0.8,1-1s0.9-0.4,1.4-0.4c0.6,0,1.2,0.1,1.6,0.4s0.8,0.6,1.1,1.2
			c0.3-0.5,0.7-0.9,1.1-1.1c0.5-0.3,1-0.4,1.6-0.4c0.9,0,1.7,0.3,2.3,0.9c0.6,0.6,0.9,1.4,0.9,2.6v4.6h-1.3v-4.5
			c0-0.8-0.2-1.4-0.5-1.9s-0.8-0.6-1.4-0.6s-1.2,0.2-1.6,0.7s-0.6,1.2-0.6,2.1v4.1h-1.3V127c0-0.8-0.2-1.4-0.5-1.9s-0.8-0.6-1.4-0.6
			s-1.2,0.2-1.6,0.7s-0.6,1.2-0.6,2.1v4.1L102.7,131.6L102.7,131.6z"/>
		<path class="st1" d="M120.6,131.8c-0.8,0-1.4-0.2-2-0.5c-0.6-0.4-1.1-0.8-1.4-1.4c-0.3-0.6-0.5-1.4-0.5-2.2s0.2-1.6,0.5-2.2
			s0.8-1.1,1.4-1.5s1.3-0.5,2.1-0.5c0.8,0,1.4,0.2,2,0.5s1,0.8,1.3,1.4s0.4,1.2,0.4,1.8c0,0.1,0,0.2,0,0.3c0,0.1,0,0.2,0,0.4h-6.3
			c0,0.6,0.2,1.1,0.4,1.5s0.6,0.7,0.9,0.9c0.4,0.2,0.8,0.3,1.2,0.3c0.6,0,1-0.1,1.4-0.4c0.4-0.3,0.7-0.6,0.8-1h1.3
			c-0.2,0.7-0.6,1.4-1.2,1.8C122.3,131.6,121.5,131.8,120.6,131.8z M120.6,124.6c-0.6,0-1.2,0.2-1.7,0.6s-0.8,1-0.9,1.7h5
			c0-0.7-0.3-1.3-0.7-1.7C121.8,124.8,121.3,124.6,120.6,124.6z"/>
		<path class="st1" d="M125,133.5l0.9-3.5h1.4l-1.4,3.5H125z"/>
		<path class="st1" d="M136.2,131.8c-0.9,0-1.7-0.2-2.4-0.7c-0.6-0.5-1-1.1-1.1-2h1.4c0.1,0.4,0.3,0.8,0.7,1.1
			c0.3,0.3,0.8,0.5,1.4,0.5c0.6,0,1-0.1,1.2-0.4s0.4-0.5,0.4-0.9c0-0.5-0.2-0.8-0.5-1c-0.4-0.2-0.8-0.3-1.5-0.4
			c-0.4-0.1-0.9-0.2-1.3-0.4c-0.4-0.2-0.8-0.4-1.1-0.7c-0.3-0.3-0.4-0.7-0.4-1.2c0-0.7,0.3-1.3,0.8-1.7s1.2-0.7,2.1-0.7
			c0.8,0,1.5,0.2,2.1,0.6c0.5,0.4,0.9,1,0.9,1.8h-1.3c-0.1-0.4-0.2-0.7-0.5-0.9c-0.3-0.2-0.7-0.3-1.2-0.3s-0.9,0.1-1.1,0.3
			s-0.4,0.5-0.4,0.8s0.2,0.6,0.5,0.8s0.8,0.3,1.4,0.5c0.5,0.1,1,0.2,1.4,0.4c0.4,0.1,0.8,0.4,1.1,0.7c0.3,0.3,0.4,0.7,0.4,1.3
			c0,0.7-0.3,1.3-0.8,1.8C137.9,131.6,137.2,131.8,136.2,131.8z"/>
		<path class="st1" d="M144.8,131.8c-0.8,0-1.4-0.2-2-0.5s-1.1-0.8-1.4-1.4c-0.3-0.6-0.5-1.4-0.5-2.2s0.2-1.6,0.5-2.2
			s0.8-1.1,1.4-1.5c0.6-0.3,1.3-0.5,2-0.5c0.8,0,1.4,0.2,2,0.5s1.1,0.8,1.4,1.5c0.3,0.6,0.5,1.4,0.5,2.2c0,0.8-0.2,1.6-0.5,2.2
			c-0.3,0.6-0.8,1.1-1.4,1.4C146.2,131.7,145.6,131.8,144.8,131.8z M144.8,130.7c0.5,0,0.9-0.1,1.3-0.3c0.4-0.2,0.7-0.6,1-1
			c0.2-0.5,0.4-1,0.4-1.7s-0.1-1.2-0.4-1.7s-0.6-0.8-0.9-1c-0.4-0.2-0.8-0.3-1.3-0.3s-0.9,0.1-1.3,0.3c-0.4,0.2-0.7,0.6-1,1
			s-0.4,1-0.4,1.7s0.1,1.2,0.4,1.7c0.2,0.4,0.6,0.8,0.9,1C144,130.6,144.4,130.7,144.8,130.7z"/>
		<path class="st1" d="M156.5,131.6l-2.3-7.9h1.3l1.7,6.2l1.9-6.2h1.5l1.9,6.2l1.7-6.2h1.4l-2.3,7.9h-1.4l-2-6.5l-1.9,6.5H156.5z"/>
		<path class="st1" d="M170.2,131.8c-0.8,0-1.4-0.2-2-0.5c-0.6-0.4-1-0.8-1.4-1.4c-0.3-0.6-0.5-1.4-0.5-2.2s0.2-1.6,0.5-2.2
			s0.8-1.1,1.4-1.5c0.6-0.4,1.3-0.5,2.1-0.5s1.4,0.2,2,0.5s1,0.8,1.3,1.4s0.4,1.2,0.4,1.8c0,0.1,0,0.2,0,0.3c0,0.1,0,0.2,0,0.4h-6.3
			c0,0.6,0.2,1.1,0.4,1.5s0.6,0.7,0.9,0.9c0.4,0.2,0.8,0.3,1.2,0.3c0.6,0,1-0.1,1.4-0.4c0.4-0.2,0.7-0.6,0.8-1h1.3
			c-0.2,0.7-0.6,1.4-1.2,1.8C172,131.6,171.2,131.8,170.2,131.8z M170.2,124.6c-0.6,0-1.2,0.2-1.7,0.6s-0.8,1-0.9,1.7h5
			c0-0.7-0.3-1.3-0.7-1.7C171.5,124.8,170.9,124.6,170.2,124.6z"/>
		<path class="st1" d="M29.8,153.8c-1,0-1.7-0.2-2.4-0.7c-0.6-0.5-1-1.1-1.1-2h1.4c0.1,0.4,0.3,0.8,0.7,1.1c0.3,0.3,0.8,0.5,1.5,0.5
			c0.6,0,1-0.1,1.2-0.4c0.3-0.2,0.4-0.5,0.4-0.9c0-0.5-0.2-0.8-0.5-1s-0.8-0.3-1.5-0.4c-0.4-0.1-0.8-0.2-1.3-0.4s-0.8-0.4-1.1-0.7
			c-0.3-0.3-0.4-0.7-0.4-1.2c0-0.7,0.3-1.3,0.8-1.7s1.2-0.7,2.1-0.7c0.8,0,1.5,0.2,2.1,0.6c0.5,0.4,0.8,1,0.9,1.8h-1.3
			c0-0.4-0.2-0.7-0.5-1c-0.3-0.2-0.7-0.3-1.2-0.3s-0.9,0.1-1.1,0.3c-0.3,0.2-0.4,0.5-0.4,0.8s0.2,0.6,0.5,0.8s0.8,0.3,1.4,0.5
			c0.5,0.1,1,0.2,1.4,0.4c0.4,0.1,0.8,0.4,1.1,0.7s0.4,0.7,0.4,1.3c0,0.7-0.3,1.3-0.8,1.8C31.5,153.6,30.8,153.8,29.8,153.8z"/>
		<path class="st1" d="M37.7,153.8c-0.9,0-1.7-0.3-2.2-0.9c-0.6-0.6-0.8-1.4-0.8-2.6v-4.6H36v4.5c0,1.6,0.7,2.5,2,2.5
			c0.7,0,1.3-0.2,1.7-0.7c0.5-0.5,0.7-1.2,0.7-2.1v-4.1h1.3v7.9h-1.2l-0.1-1.4c-0.2,0.5-0.6,0.9-1.1,1.2
			C38.8,153.7,38.3,153.8,37.7,153.8z"/>
		<path class="st1" d="M47.1,151.1c-0.4,0-0.9-0.1-1.2-0.2l-0.8,0.8c0.1,0.1,0.3,0.2,0.4,0.2c0.2,0.1,0.4,0.1,0.8,0.2
			c0.3,0.1,0.8,0.1,1.4,0.2c1.1,0.1,1.8,0.3,2.3,0.7s0.7,1,0.7,1.6c0,0.5-0.1,0.9-0.4,1.3c-0.2,0.4-0.6,0.8-1.2,1
			c-0.5,0.3-1.2,0.4-2,0.4c-0.7,0-1.4-0.1-1.9-0.3c-0.6-0.2-1-0.5-1.3-0.8c-0.3-0.4-0.5-0.9-0.5-1.4c0-0.3,0.1-0.6,0.2-1
			c0.2-0.3,0.5-0.7,0.9-1c-0.2-0.1-0.4-0.2-0.6-0.3c-0.2-0.1-0.3-0.2-0.5-0.4v-0.4l1.4-1.3c-0.6-0.5-0.9-1.2-0.9-2.1
			c0-0.5,0.1-1,0.4-1.4c0.2-0.4,0.6-0.8,1.1-1s1-0.4,1.7-0.4c0.5,0,0.9,0.1,1.2,0.2h3v1l-1.5,0.1c0.3,0.5,0.5,1,0.5,1.5
			s-0.1,1-0.4,1.4c-0.2,0.4-0.6,0.8-1.1,1C48.3,151,47.8,151.1,47.1,151.1z M44.7,154.7c0,0.5,0.2,0.9,0.7,1.2
			c0.4,0.3,1,0.4,1.7,0.4s1.2-0.1,1.6-0.4c0.4-0.3,0.6-0.7,0.6-1.1c0-0.3-0.1-0.6-0.4-0.9s-0.8-0.4-1.5-0.4c-0.6,0-1.1-0.1-1.5-0.2
			c-0.4,0.2-0.7,0.5-0.9,0.8C44.8,154.2,44.7,154.4,44.7,154.7z M47.1,150c0.6,0,1-0.1,1.3-0.4c0.3-0.3,0.5-0.7,0.5-1.3
			c0-0.5-0.2-1-0.5-1.3s-0.8-0.4-1.3-0.4c-0.6,0-1,0.1-1.4,0.4c-0.3,0.3-0.5,0.7-0.5,1.3c0,0.5,0.2,1,0.5,1.3
			C46,149.9,46.5,150,47.1,150z"/>
		<path class="st1" d="M55.9,151.1c-0.5,0-0.9-0.1-1.2-0.2l-0.8,0.8c0.1,0.1,0.3,0.2,0.4,0.2c0.2,0.1,0.4,0.1,0.8,0.2
			c0.3,0.1,0.8,0.1,1.4,0.2c1.1,0.1,1.8,0.3,2.3,0.7s0.7,1,0.7,1.6c0,0.5-0.1,0.9-0.4,1.3c-0.2,0.4-0.6,0.8-1.2,1
			c-0.5,0.3-1.2,0.4-2,0.4c-0.7,0-1.3-0.1-1.9-0.3c-0.5-0.2-1-0.5-1.3-0.8c-0.3-0.4-0.5-0.9-0.5-1.4c0-0.3,0.1-0.6,0.2-1
			c0.2-0.3,0.5-0.7,0.9-1c-0.2-0.1-0.4-0.2-0.6-0.3c-0.2-0.1-0.3-0.2-0.5-0.4v-0.4l1.4-1.3c-0.6-0.5-0.9-1.2-0.9-2.1
			c0-0.5,0.1-1,0.4-1.4c0.2-0.4,0.6-0.8,1.1-1s1-0.4,1.7-0.4c0.5,0,0.9,0.1,1.2,0.2H60v1l-1.5,0.1c0.3,0.5,0.5,1,0.5,1.5
			s-0.1,1-0.4,1.4c-0.2,0.4-0.6,0.8-1.1,1C57.2,151,56.6,151.1,55.9,151.1z M53.6,154.7c0,0.5,0.2,0.9,0.7,1.2s1,0.4,1.7,0.4
			s1.2-0.1,1.6-0.4c0.4-0.3,0.6-0.7,0.6-1.1c0-0.3-0.1-0.6-0.4-0.9s-0.8-0.4-1.5-0.4c-0.6,0-1.1-0.1-1.5-0.2
			c-0.4,0.2-0.7,0.5-0.9,0.8C53.6,154.2,53.6,154.4,53.6,154.7z M55.9,150c0.6,0,1-0.1,1.3-0.4c0.3-0.3,0.5-0.7,0.5-1.3
			c0-0.5-0.2-1-0.5-1.3s-0.8-0.4-1.3-0.4c-0.6,0-1,0.1-1.4,0.4s-0.5,0.7-0.5,1.3c0,0.5,0.2,1,0.5,1.3S55.3,150,55.9,150z"/>
		<path class="st1" d="M64.9,153.8c-0.8,0-1.4-0.2-2-0.5s-1.1-0.8-1.4-1.4c-0.3-0.6-0.5-1.4-0.5-2.2s0.2-1.6,0.5-2.2
			c0.3-0.6,0.8-1.1,1.4-1.5c0.6-0.3,1.3-0.5,2.1-0.5c0.8,0,1.4,0.2,2,0.5c0.6,0.4,1,0.8,1.3,1.4c0.3,0.6,0.5,1.2,0.5,1.8
			c0,0.1,0,0.2,0,0.4s0,0.2,0,0.4h-6.5c0,0.6,0.2,1.1,0.4,1.5s0.6,0.7,0.9,0.9c0.4,0.2,0.8,0.3,1.2,0.3c0.6,0,1-0.1,1.4-0.4
			c0.4-0.3,0.7-0.6,0.8-1h1.3c-0.2,0.7-0.6,1.4-1.2,1.8C66.6,153.6,65.8,153.8,64.9,153.8z M64.9,146.6c-0.6,0-1.2,0.2-1.7,0.6
			c-0.5,0.4-0.8,1-0.9,1.7h5c0-0.7-0.3-1.3-0.7-1.7C66.1,146.8,65.5,146.6,64.9,146.6z"/>
		<path class="st1" d="M73.4,153.8c-0.9,0-1.7-0.2-2.4-0.7c-0.6-0.5-1-1.1-1.1-2h1.4c0.1,0.4,0.3,0.8,0.7,1.1
			c0.4,0.3,0.8,0.5,1.5,0.5c0.6,0,1-0.1,1.2-0.4c0.3-0.2,0.4-0.5,0.4-0.9c0-0.5-0.2-0.8-0.5-1s-0.8-0.3-1.5-0.4
			c-0.4-0.1-0.8-0.2-1.3-0.4s-0.8-0.4-1.1-0.7s-0.4-0.7-0.4-1.2c0-0.7,0.3-1.3,0.8-1.7s1.2-0.7,2.1-0.7c0.8,0,1.5,0.2,2.1,0.6
			c0.5,0.4,0.8,1,0.9,1.8h-1.3c0-0.4-0.2-0.7-0.5-1c-0.3-0.2-0.7-0.3-1.2-0.3s-0.8,0.1-1.1,0.3c-0.3,0.2-0.4,0.5-0.4,0.8
			s0.2,0.6,0.5,0.8s0.8,0.3,1.4,0.5c0.5,0.1,1,0.2,1.4,0.4c0.4,0.1,0.8,0.4,1.1,0.7c0.3,0.3,0.4,0.7,0.4,1.3c0,0.7-0.3,1.3-0.8,1.8
			C75.1,153.6,74.4,153.8,73.4,153.8z"/>
		<path class="st1" d="M81.2,153.6c-0.7,0-1.3-0.2-1.7-0.5c-0.4-0.4-0.6-1-0.6-1.9v-4.4h-1.4v-1.1h1.4l0.2-1.9h1.2v1.9h2.3v1.1h-2.3
			v4.4c0,0.5,0.1,0.8,0.3,1c0.2,0.2,0.6,0.3,1.1,0.3h0.8v1.1L81.2,153.6L81.2,153.6z"/>
		<path class="st1" d="M88.5,153.6v-7.9h1.2l0.1,1.4c0.3-0.5,0.6-0.9,1.1-1.2s1-0.4,1.6-0.4c0.9,0,1.7,0.3,2.2,0.9
			c0.6,0.6,0.8,1.5,0.8,2.6v4.6h-1.3v-4.5c0-1.6-0.7-2.5-2-2.5c-0.7,0-1.2,0.2-1.7,0.7c-0.4,0.5-0.7,1.2-0.7,2.1v4.1L88.5,153.6
			L88.5,153.6z"/>
		<path class="st1" d="M101.2,153.8c-0.8,0-1.4-0.2-2-0.5s-1.1-0.8-1.4-1.5c-0.3-0.6-0.5-1.4-0.5-2.2s0.2-1.6,0.5-2.2
			s0.8-1.1,1.4-1.4c0.6-0.3,1.3-0.5,2-0.5c0.8,0,1.4,0.2,2,0.5s1.1,0.8,1.4,1.4c0.3,0.6,0.5,1.4,0.5,2.2s-0.2,1.6-0.5,2.2
			c-0.3,0.6-0.8,1.1-1.4,1.5S102,153.8,101.2,153.8z M101.2,152.7c0.5,0,0.9-0.1,1.3-0.3s0.7-0.6,1-1c0.2-0.5,0.4-1,0.4-1.7
			s-0.1-1.2-0.4-1.7c-0.2-0.4-0.6-0.8-1-1s-0.8-0.3-1.3-0.3s-0.9,0.1-1.3,0.3s-0.7,0.6-1,1s-0.4,1-0.4,1.7s0.1,1.2,0.4,1.7
			s0.6,0.8,1,1C100.4,152.6,100.8,152.7,101.2,152.7z"/>
		<path class="st1" d="M109.9,153.6c-0.7,0-1.3-0.2-1.7-0.5s-0.6-1-0.6-1.9v-4.4h-1.4v-1.1h1.4l0.2-1.9h1.2v1.9h2.3v1.1H109v4.4
			c0,0.5,0.1,0.8,0.3,1s0.6,0.3,1.1,0.3h0.8v1.1L109.9,153.6L109.9,153.6z"/>
		<path class="st1" d="M120.8,153.8c-0.8,0-1.5-0.2-2.1-0.5c-0.6-0.4-1.1-0.9-1.4-1.5s-0.5-1.3-0.5-2.1s0.2-1.5,0.5-2.1
			s0.8-1.1,1.4-1.5s1.3-0.5,2.1-0.5c0.6,0,1.2,0.1,1.7,0.4c0.5,0.3,0.9,0.6,1.2,1.1v-4.9h1.3v11.5h-1.2l-0.1-1.3
			c-0.3,0.4-0.6,0.7-1.1,1C122.1,153.7,121.5,153.8,120.8,153.8z M120.9,152.7c0.5,0,1-0.1,1.4-0.4c0.4-0.2,0.7-0.6,1-1
			s0.3-1,0.3-1.6s-0.1-1.1-0.3-1.6c-0.2-0.4-0.6-0.8-1-1s-0.9-0.4-1.4-0.4s-1,0.1-1.4,0.4s-0.7,0.6-1,1c-0.2,0.5-0.3,1-0.3,1.6
			s0.1,1.1,0.3,1.6c0.2,0.5,0.6,0.8,1,1C120,152.5,120.4,152.7,120.9,152.7z"/>
		<path class="st1" d="M127.3,153.6v-7.9h1.2l0.1,1.5c0.2-0.5,0.6-0.9,1.1-1.2s1.1-0.5,1.9-0.5v1.4h-0.4c-0.5,0-0.9,0.1-1.3,0.2
			c-0.4,0.2-0.7,0.4-0.9,0.8c-0.2,0.4-0.4,0.9-0.4,1.6v4L127.3,153.6L127.3,153.6z"/>
		<path class="st1" d="M133.9,143.9c-0.3,0-0.5-0.1-0.7-0.3s-0.3-0.4-0.3-0.7s0.1-0.5,0.3-0.6c0.2-0.2,0.4-0.3,0.7-0.3
			s0.5,0.1,0.7,0.3s0.3,0.4,0.3,0.6c0,0.3-0.1,0.5-0.3,0.7C134.4,143.9,134.1,143.9,133.9,143.9z M133.2,153.6v-7.9h1.3v7.9H133.2z"
			/>
		<path class="st1" d="M136.9,153.6v-7.9h1.2l0.1,1.4c0.3-0.5,0.6-0.9,1.1-1.2s1-0.4,1.6-0.4c0.9,0,1.7,0.3,2.2,0.9
			c0.6,0.6,0.8,1.5,0.8,2.6v4.6h-1.3v-4.5c0-1.6-0.7-2.5-2-2.5c-0.7,0-1.2,0.2-1.7,0.7c-0.4,0.5-0.7,1.2-0.7,2.1v4.1L136.9,153.6
			L136.9,153.6z"/>
		<path class="st1" d="M146,153.6v-11.5h1.3v6.9l3.2-3.3h1.6l-3.5,3.6l4,4.4h-1.7l-3.6-4.1v4.1L146,153.6L146,153.6z"/>
		<path class="st1" d="M154.9,143.9c-0.3,0-0.5-0.1-0.7-0.3s-0.3-0.4-0.3-0.7s0.1-0.5,0.3-0.6c0.2-0.2,0.4-0.3,0.7-0.3
			s0.5,0.1,0.7,0.3s0.3,0.4,0.3,0.6c0,0.3-0.1,0.5-0.3,0.7C155.4,143.9,155.2,143.9,154.9,143.9z M154.2,153.6v-7.9h1.3v7.9H154.2z"
			/>
		<path class="st1" d="M157.9,153.6v-7.9h1.2l0.1,1.4c0.3-0.5,0.6-0.9,1.1-1.2s1-0.4,1.6-0.4c0.9,0,1.7,0.3,2.2,0.9
			c0.6,0.6,0.8,1.5,0.8,2.6v4.6h-1.3v-4.5c0-1.6-0.7-2.5-2.1-2.5c-0.7,0-1.2,0.2-1.7,0.7c-0.4,0.5-0.7,1.2-0.7,2.1v4.1L157.9,153.6
			L157.9,153.6z"/>
		<path class="st1" d="M170.2,151.1c-0.4,0-0.9-0.1-1.2-0.2l-0.8,0.8c0.1,0.1,0.3,0.2,0.4,0.2c0.2,0.1,0.4,0.1,0.8,0.2
			c0.3,0.1,0.8,0.1,1.4,0.2c1.1,0.1,1.8,0.3,2.3,0.7s0.7,1,0.7,1.6c0,0.5-0.1,0.9-0.4,1.3c-0.2,0.4-0.6,0.8-1.2,1
			c-0.5,0.3-1.2,0.4-2,0.4c-0.7,0-1.4-0.1-1.9-0.3s-1-0.5-1.3-0.8c-0.3-0.4-0.5-0.9-0.5-1.4c0-0.3,0.1-0.6,0.2-1
			c0.2-0.3,0.5-0.7,0.9-1c-0.2-0.1-0.4-0.2-0.6-0.3c-0.2-0.1-0.3-0.2-0.5-0.4v-0.4l1.4-1.3c-0.6-0.5-0.9-1.2-0.9-2.1
			c0-0.5,0.1-1,0.4-1.4c0.2-0.4,0.6-0.8,1.1-1s1-0.4,1.7-0.4c0.5,0,0.9,0.1,1.2,0.2h2.9v1l-1.5,0.1c0.3,0.5,0.5,1,0.5,1.5
			s-0.1,1-0.4,1.4c-0.2,0.4-0.6,0.8-1.1,1C171.5,151,170.9,151.1,170.2,151.1z M167.9,154.7c0,0.5,0.2,0.9,0.7,1.2s1,0.4,1.7,0.4
			s1.2-0.1,1.6-0.4c0.4-0.3,0.6-0.7,0.6-1.1c0-0.3-0.1-0.6-0.4-0.9s-0.8-0.4-1.5-0.4c-0.6,0-1.1-0.1-1.5-0.2
			c-0.4,0.2-0.7,0.5-0.9,0.8C167.9,154.2,167.9,154.4,167.9,154.7z M170.2,150c0.6,0,1-0.1,1.4-0.4c0.3-0.3,0.5-0.7,0.5-1.3
			c0-0.5-0.2-1-0.5-1.3s-0.8-0.4-1.4-0.4c-0.6,0-1,0.1-1.4,0.4s-0.5,0.7-0.5,1.3c0,0.5,0.2,1,0.5,1.3
			C169.2,149.9,169.6,150,170.2,150z"/>
		<path class="st1" d="M30.4,175.8c-0.8,0-1.4-0.2-2-0.5s-1.1-0.8-1.4-1.5c-0.3-0.6-0.5-1.4-0.5-2.2s0.2-1.6,0.5-2.2
			c0.3-0.6,0.8-1.1,1.4-1.5c0.6-0.3,1.3-0.5,2-0.5c0.9,0,1.7,0.2,2.4,0.7c0.6,0.5,1,1.2,1.2,2h-1.4c-0.1-0.5-0.4-0.9-0.8-1.1
			c-0.4-0.3-0.9-0.4-1.5-0.4c-0.5,0-0.9,0.1-1.3,0.3s-0.7,0.6-1,1c-0.2,0.4-0.4,1-0.4,1.7s0.1,1.2,0.4,1.7c0.2,0.5,0.6,0.8,1,1
			s0.8,0.3,1.3,0.3s1-0.1,1.5-0.4c0.4-0.3,0.7-0.7,0.8-1.2H34c-0.2,0.8-0.6,1.5-1.2,2C32.2,175.6,31.4,175.8,30.4,175.8z"/>
		<path class="st1" d="M38.6,175.8c-0.7,0-1.2-0.1-1.7-0.3c-0.4-0.2-0.8-0.5-1-0.9s-0.3-0.8-0.3-1.2c0-0.8,0.3-1.4,0.9-1.9
			c0.6-0.4,1.5-0.7,2.5-0.7h2.1v-0.1c0-0.7-0.2-1.2-0.5-1.6c-0.4-0.4-0.8-0.5-1.5-0.5c-0.5,0-1,0.1-1.3,0.4s-0.6,0.6-0.7,1.1h-1.4
			c0-0.6,0.2-1.1,0.6-1.5c0.3-0.4,0.8-0.7,1.3-0.9s1-0.3,1.6-0.3c1.1,0,1.9,0.3,2.5,0.9c0.6,0.6,0.8,1.4,0.8,2.4v4.9h-1.2l-0.1-1.4
			c-0.2,0.5-0.5,0.8-1,1.1C39.9,175.7,39.3,175.8,38.6,175.8z M38.8,174.7c0.5,0,1-0.1,1.3-0.4c0.4-0.3,0.6-0.6,0.8-1
			s0.3-0.9,0.3-1.3l0,0h-2c-0.8,0-1.3,0.1-1.7,0.4c-0.3,0.3-0.5,0.6-0.5,1s0.1,0.8,0.5,1C37.8,174.6,38.2,174.7,38.8,174.7z"/>
		<path class="st1" d="M45,175.6v-6.8h-1.2v-1.1H45v-1.4c0-0.8,0.2-1.3,0.6-1.7c0.4-0.4,0.9-0.5,1.7-0.5h0.8v1.1h-0.6
			c-0.4,0-0.7,0.1-0.9,0.2c-0.2,0.2-0.3,0.5-0.3,0.8v1.3h2v1.1h-2v6.8L45,175.6L45,175.6z"/>
		<path class="st1" d="M50.3,175.6v-6.8h-1.2v-1.1h1.2v-1.4c0-0.8,0.2-1.3,0.6-1.7c0.4-0.4,0.9-0.5,1.7-0.5h0.8v1.1h-0.6
			c-0.4,0-0.7,0.1-0.9,0.2s-0.3,0.5-0.3,0.8v1.3h2v1.1h-2v6.8L50.3,175.6L50.3,175.6z"/>
		<path class="st1" d="M58.5,175.8c-0.8,0-1.4-0.2-2-0.5s-1.1-0.8-1.4-1.4c-0.3-0.6-0.5-1.4-0.5-2.2s0.2-1.6,0.5-2.2
			c0.3-0.6,0.8-1.1,1.4-1.5c0.6-0.3,1.3-0.5,2.1-0.5s1.4,0.2,2,0.5c0.6,0.4,1,0.8,1.3,1.4c0.3,0.6,0.4,1.2,0.4,1.8
			c0,0.1,0,0.2,0,0.4c0,0.1,0,0.2,0,0.4H56c0,0.6,0.2,1.1,0.4,1.5s0.6,0.7,0.9,0.9c0.4,0.2,0.8,0.3,1.2,0.3c0.6,0,1-0.1,1.4-0.4
			c0.4-0.3,0.7-0.6,0.8-1H62c-0.2,0.7-0.6,1.4-1.2,1.8C60.2,175.6,59.4,175.8,58.5,175.8z M58.5,168.6c-0.6,0-1.2,0.2-1.7,0.6
			c-0.5,0.4-0.8,1-0.9,1.7h5c0-0.7-0.3-1.3-0.7-1.7C59.7,168.8,59.1,168.6,58.5,168.6z"/>
		<path class="st1" d="M64.8,165.9c-0.3,0-0.5-0.1-0.7-0.3c-0.2-0.2-0.3-0.4-0.3-0.7s0.1-0.5,0.3-0.6c0.2-0.2,0.4-0.3,0.7-0.3
			s0.5,0.1,0.7,0.3s0.3,0.4,0.3,0.6c0,0.3-0.1,0.5-0.3,0.7C65.3,165.9,65.1,165.9,64.8,165.9z M64.1,175.6v-7.9h1.3v7.9H64.1z"/>
		<path class="st1" d="M67.8,175.6v-7.9H69l0.1,1.4c0.3-0.5,0.6-0.9,1.1-1.2s1-0.4,1.6-0.4c0.9,0,1.7,0.3,2.2,0.9
			c0.6,0.6,0.8,1.5,0.8,2.6v4.6h-1.3v-4.5c0-1.6-0.7-2.5-2.1-2.5c-0.7,0-1.2,0.2-1.7,0.7c-0.4,0.5-0.7,1.2-0.7,2.1v4.1L67.8,175.6
			L67.8,175.6z"/>
		<path class="st1" d="M80.5,175.8c-0.8,0-1.4-0.2-2-0.5s-1.1-0.8-1.4-1.4c-0.3-0.6-0.5-1.4-0.5-2.2s0.2-1.6,0.5-2.2
			c0.3-0.6,0.8-1.1,1.4-1.5c0.6-0.3,1.3-0.5,2.1-0.5c0.8,0,1.4,0.2,2,0.5c0.6,0.4,1,0.8,1.3,1.4c0.3,0.6,0.4,1.2,0.4,1.8
			c0,0.1,0,0.2,0,0.4c0,0.1,0,0.2,0,0.4H78c0,0.6,0.2,1.1,0.4,1.5s0.6,0.7,0.9,0.9c0.4,0.2,0.8,0.3,1.2,0.3c0.6,0,1-0.1,1.4-0.4
			c0.4-0.3,0.7-0.6,0.8-1H84c-0.2,0.7-0.6,1.4-1.2,1.8C82.3,175.6,81.5,175.8,80.5,175.8z M80.5,168.6c-0.6,0-1.2,0.2-1.7,0.6
			c-0.5,0.4-0.8,1-0.9,1.7h5c0-0.7-0.3-1.3-0.7-1.7S81.2,168.6,80.5,168.6z"/>
		<path class="st1" d="M93,175.8c-0.7,0-1.2-0.1-1.7-0.3c-0.4-0.2-0.8-0.5-1-0.9s-0.3-0.8-0.3-1.2c0-0.8,0.3-1.4,0.9-1.9
			c0.6-0.4,1.5-0.7,2.5-0.7h2.1v-0.1c0-0.7-0.2-1.2-0.5-1.6c-0.4-0.4-0.8-0.5-1.5-0.5c-0.5,0-1,0.1-1.3,0.4
			c-0.4,0.3-0.6,0.6-0.7,1.1h-1.4c0.1-0.6,0.2-1.1,0.6-1.5c0.3-0.4,0.8-0.7,1.3-0.9s1-0.3,1.6-0.3c1.1,0,1.9,0.3,2.5,0.9
			c0.6,0.6,0.8,1.4,0.8,2.4v4.9h-1.2l-0.1-1.4c-0.2,0.5-0.5,0.8-1,1.1C94.3,175.7,93.7,175.8,93,175.8z M93.2,174.7
			c0.5,0,1-0.1,1.3-0.4c0.4-0.3,0.7-0.6,0.8-1s0.3-0.9,0.3-1.3l0,0h-2c-0.8,0-1.4,0.1-1.7,0.4c-0.3,0.3-0.5,0.6-0.5,1s0.2,0.8,0.5,1
			C92.2,174.6,92.6,174.7,93.2,174.7z"/>
		<path class="st1" d="M99.4,175.6v-6.8h-1.2v-1.1h1.2v-1.4c0-0.8,0.2-1.3,0.6-1.7s0.9-0.5,1.7-0.5h0.8v1.1h-0.6
			c-0.4,0-0.7,0.1-0.9,0.2c-0.2,0.2-0.3,0.5-0.3,0.8v1.3h1.9v1.1h-1.9v6.8L99.4,175.6L99.4,175.6z"/>
		<path class="st1" d="M107.4,175.6c-0.7,0-1.3-0.2-1.7-0.5s-0.6-1-0.6-1.9v-4.4h-1.4v-1.1h1.4l0.2-1.9h1.2v1.9h2.3v1.1h-2.3v4.4
			c0,0.5,0.1,0.8,0.3,1s0.6,0.3,1.1,0.3h0.8v1.1L107.4,175.6L107.4,175.6z"/>
		<path class="st1" d="M113.8,175.8c-0.8,0-1.4-0.2-2-0.5s-1.1-0.8-1.4-1.4c-0.3-0.6-0.5-1.4-0.5-2.2s0.2-1.6,0.5-2.2
			c0.3-0.6,0.8-1.1,1.4-1.5c0.6-0.3,1.3-0.5,2.1-0.5c0.8,0,1.4,0.2,2,0.5c0.6,0.4,1,0.8,1.3,1.4c0.3,0.6,0.5,1.2,0.5,1.8
			c0,0.1,0,0.2,0,0.4c0,0.1,0,0.2,0,0.4h-6.4c0,0.6,0.2,1.1,0.4,1.5s0.6,0.7,0.9,0.9c0.4,0.2,0.8,0.3,1.2,0.3c0.6,0,1-0.1,1.4-0.4
			c0.4-0.3,0.6-0.6,0.8-1h1.3c-0.2,0.7-0.6,1.4-1.2,1.8C115.6,175.6,114.8,175.8,113.8,175.8z M113.8,168.6c-0.6,0-1.2,0.2-1.7,0.6
			c-0.5,0.4-0.8,1-0.9,1.7h5c0-0.7-0.3-1.3-0.7-1.7C115.1,168.8,114.5,168.6,113.8,168.6z"/>
		<path class="st1" d="M119.4,175.6v-7.9h1.2l0.1,1.5c0.2-0.5,0.6-0.9,1.1-1.2s1.1-0.5,1.9-0.5v1.4h-0.4c-0.5,0-0.9,0.1-1.3,0.2
			c-0.4,0.2-0.7,0.4-0.9,0.8c-0.2,0.4-0.3,0.9-0.3,1.6v4L119.4,175.6L119.4,175.6z"/>
		<path class="st1" d="M133,175.8c-0.7,0-1.4-0.1-1.9-0.4c-0.6-0.3-1-0.6-1.4-1.2c-0.4-0.5-0.5-1.2-0.6-2h1.4c0,0.6,0.2,1.2,0.7,1.7
			c0.4,0.5,1.1,0.7,1.8,0.7c0.8,0,1.4-0.2,1.8-0.7c0.4-0.4,0.6-1,0.6-1.6c0-0.5-0.1-1-0.4-1.3c-0.2-0.3-0.6-0.6-1-0.7
			s-0.9-0.2-1.4-0.2h-0.8V169h0.8c0.7,0,1.3-0.2,1.7-0.5s0.6-0.8,0.6-1.4c0-0.5-0.2-0.9-0.5-1.2s-0.8-0.5-1.4-0.5
			c-0.6,0-1.1,0.2-1.5,0.6c-0.4,0.4-0.6,0.8-0.6,1.4h-1.4c0-0.6,0.2-1.1,0.5-1.6s0.7-0.8,1.2-1.1s1.1-0.4,1.8-0.4s1.3,0.1,1.8,0.4
			c0.5,0.3,0.8,0.6,1.1,1c0.2,0.4,0.4,0.9,0.4,1.4c0,0.6-0.2,1.1-0.5,1.5c-0.3,0.5-0.8,0.8-1.4,0.9c0.7,0.1,1.2,0.4,1.7,0.9
			c0.4,0.5,0.7,1.1,0.7,1.9c0,0.6-0.1,1.2-0.4,1.7c-0.3,0.5-0.7,0.9-1.3,1.2C134.5,175.7,133.8,175.8,133,175.8z"/>
		<path class="st1" d="M138.8,179.2v-11.5h1.2l0.1,1.3c0.3-0.4,0.6-0.7,1.1-1s1.1-0.5,1.8-0.5c0.8,0,1.5,0.2,2.1,0.5
			c0.6,0.4,1,0.9,1.4,1.5s0.5,1.3,0.5,2.1s-0.2,1.5-0.5,2.1s-0.8,1.1-1.4,1.5c-0.6,0.4-1.3,0.5-2.1,0.5c-0.6,0-1.2-0.1-1.7-0.4
			c-0.5-0.3-0.9-0.6-1.2-1.1v4.9L138.8,179.2L138.8,179.2z M142.9,174.7c0.5,0,1-0.1,1.4-0.4s0.7-0.6,1-1c0.2-0.5,0.4-1,0.4-1.6
			s-0.1-1.1-0.4-1.6c-0.2-0.4-0.5-0.8-1-1s-0.9-0.4-1.4-0.4s-1,0.1-1.4,0.4c-0.4,0.2-0.7,0.6-1,1c-0.2,0.5-0.4,1-0.4,1.6
			s0.1,1.1,0.4,1.6c0.2,0.5,0.6,0.8,1,1S142.4,174.7,142.9,174.7z"/>
		<path class="st1" d="M148.9,175.6v-7.9h1.2l0.1,1.1c0.3-0.4,0.6-0.8,1-1s0.9-0.4,1.4-0.4c0.6,0,1.2,0.1,1.6,0.4
			c0.4,0.3,0.8,0.6,1,1.2c0.3-0.5,0.7-0.9,1.1-1.1c0.5-0.3,1-0.4,1.6-0.4c1,0,1.7,0.3,2.3,0.9c0.6,0.6,0.9,1.4,0.9,2.6v4.6h-1.3
			v-4.5c0-0.8-0.2-1.4-0.5-1.9c-0.3-0.4-0.8-0.6-1.4-0.6c-0.6,0-1.2,0.2-1.6,0.7c-0.4,0.5-0.6,1.2-0.6,2.1v4.1h-1.3V171
			c0-0.8-0.2-1.4-0.5-1.9c-0.3-0.4-0.8-0.6-1.4-0.6c-0.6,0-1.1,0.2-1.6,0.7c-0.4,0.5-0.6,1.2-0.6,2.1v4.1L148.9,175.6L148.9,175.6z"
			/>
		<path class="st1" d="M170.3,178c-0.6-0.6-1.1-1.2-1.6-2s-0.9-1.6-1.2-2.6s-0.4-2-0.4-3.1s0.2-2.1,0.4-3.1c0.3-1,0.7-1.8,1.2-2.6
			s1-1.4,1.6-2h1.4v0.1c-1,1-1.8,2.1-2.4,3.4s-0.9,2.7-0.9,4.1s0.3,2.9,0.9,4.1c0.6,1.3,1.4,2.4,2.4,3.4v0.1L170.3,178L170.3,178z"
			/>
		<path class="st1" d="M176.4,175.8c-0.8,0-1.4-0.2-2-0.5s-1.1-0.8-1.4-1.5c-0.3-0.6-0.5-1.4-0.5-2.2s0.2-1.6,0.5-2.2
			c0.3-0.6,0.8-1.1,1.4-1.4c0.6-0.3,1.3-0.5,2-0.5c0.8,0,1.4,0.2,2,0.5s1.1,0.8,1.4,1.4c0.3,0.6,0.5,1.4,0.5,2.2s-0.2,1.6-0.5,2.2
			c-0.3,0.6-0.8,1.1-1.4,1.5C177.8,175.7,177.1,175.8,176.4,175.8z M176.4,174.7c0.5,0,0.9-0.1,1.3-0.3c0.4-0.2,0.7-0.6,1-1
			c0.2-0.5,0.4-1,0.4-1.7s-0.1-1.2-0.4-1.7c-0.2-0.4-0.6-0.8-0.9-1c-0.4-0.2-0.8-0.3-1.3-0.3s-0.9,0.1-1.3,0.3c-0.4,0.2-0.7,0.6-1,1
			s-0.4,1-0.4,1.7s0.1,1.2,0.4,1.7s0.6,0.8,0.9,1C175.5,174.6,175.9,174.7,176.4,174.7z"/>
		<path class="st1" d="M182.2,175.6v-7.9h1.2l0.1,1.5c0.2-0.5,0.6-0.9,1.1-1.2s1.1-0.5,1.9-0.5v1.4h-0.4c-0.5,0-0.9,0.1-1.3,0.2
			c-0.4,0.2-0.7,0.4-0.9,0.8c-0.2,0.4-0.3,0.9-0.3,1.6v4L182.2,175.6L182.2,175.6z"/>
		<path class="st1" d="M30.4,197.8c-0.8,0-1.4-0.2-2-0.5s-1-0.8-1.4-1.4c-0.3-0.6-0.5-1.4-0.5-2.2s0.2-1.6,0.5-2.2
			c0.3-0.6,0.8-1.1,1.4-1.5c0.6-0.3,1.3-0.5,2.1-0.5s1.4,0.2,2,0.5c0.6,0.4,1,0.8,1.3,1.4c0.3,0.6,0.5,1.2,0.5,1.8
			c0,0.1,0,0.2,0,0.4c0,0.1,0,0.2,0,0.4H28c0,0.6,0.2,1.1,0.4,1.5s0.6,0.7,0.9,0.9c0.4,0.2,0.8,0.3,1.2,0.3c0.5,0,1-0.1,1.4-0.4
			s0.6-0.6,0.8-1H34c-0.2,0.7-0.6,1.4-1.2,1.8C32.1,197.6,31.3,197.8,30.4,197.8z M30.4,190.6c-0.6,0-1.2,0.2-1.7,0.6
			c-0.5,0.4-0.8,1-0.9,1.7h5c0-0.7-0.3-1.3-0.7-1.7C31.6,190.8,31,190.6,30.4,190.6z"/>
		<path class="st1" d="M38.5,197.8c-0.7,0-1.2-0.1-1.7-0.3c-0.4-0.2-0.8-0.5-1-0.9s-0.3-0.8-0.3-1.2c0-0.8,0.3-1.4,0.9-1.9
			c0.6-0.4,1.5-0.7,2.5-0.7H41v-0.1c0-0.7-0.2-1.2-0.5-1.6c-0.4-0.4-0.8-0.5-1.5-0.5c-0.5,0-1,0.1-1.3,0.4c-0.4,0.3-0.6,0.6-0.7,1.1
			h-1.4c0-0.6,0.2-1.1,0.6-1.5c0.3-0.4,0.8-0.7,1.3-0.9s1-0.3,1.6-0.3c1.1,0,1.9,0.3,2.5,0.9c0.6,0.6,0.8,1.4,0.8,2.4v4.9h-1.1
			l-0.1-1.4c-0.2,0.5-0.5,0.8-1,1.1C39.8,197.7,39.3,197.8,38.5,197.8z M38.7,196.7c0.5,0,1-0.1,1.3-0.4c0.4-0.3,0.6-0.6,0.8-1
			s0.3-0.9,0.3-1.3l0,0h-2c-0.8,0-1.3,0.1-1.7,0.4c-0.3,0.3-0.5,0.6-0.5,1s0.2,0.8,0.5,1C37.8,196.6,38.2,196.7,38.7,196.7z"/>
		<path class="st1" d="M44.5,197.6v-7.9h1.2l0.1,1.5c0.2-0.5,0.6-0.9,1.1-1.2s1.1-0.5,1.9-0.5v1.4h-0.4c-0.5,0-0.9,0.1-1.3,0.2
			c-0.4,0.2-0.7,0.4-0.9,0.8c-0.2,0.4-0.4,0.9-0.4,1.6v4L44.5,197.6L44.5,197.6z"/>
		<path class="st1" d="M50.4,197.6v-11.5h1.3v11.5H50.4z"/>
		<path class="st1" d="M54.7,187.9c-0.3,0-0.5-0.1-0.7-0.3s-0.3-0.4-0.3-0.7s0.1-0.5,0.3-0.6c0.2-0.2,0.4-0.3,0.7-0.3
			s0.5,0.1,0.7,0.3s0.3,0.4,0.3,0.6c0,0.3-0.1,0.5-0.3,0.7C55.2,187.9,55,187.9,54.7,187.9z M54.1,197.6v-7.9h1.3v7.9H54.1z"/>
		<path class="st1" d="M61.3,197.8c-0.8,0-1.4-0.2-2-0.5s-1-0.8-1.4-1.4c-0.3-0.6-0.5-1.4-0.5-2.2s0.2-1.6,0.5-2.2
			c0.3-0.6,0.8-1.1,1.4-1.5c0.6-0.3,1.3-0.5,2.1-0.5c0.8,0,1.4,0.2,2,0.5c0.6,0.4,1,0.8,1.3,1.4c0.3,0.6,0.4,1.2,0.4,1.8
			c0,0.1,0,0.2,0,0.4c0,0.1,0,0.2,0,0.4h-6.3c0,0.6,0.2,1.1,0.4,1.5s0.6,0.7,0.9,0.9c0.4,0.2,0.8,0.3,1.2,0.3c0.5,0,1-0.1,1.4-0.4
			c0.4-0.3,0.7-0.6,0.8-1h1.3c-0.2,0.7-0.6,1.4-1.2,1.8C63,197.6,62.2,197.8,61.3,197.8z M61.3,190.6c-0.6,0-1.2,0.2-1.7,0.6
			c-0.5,0.4-0.8,1-0.9,1.7h5c0-0.7-0.3-1.3-0.7-1.7C62.5,190.8,62,190.6,61.3,190.6z"/>
		<path class="st1" d="M66.8,197.6v-7.9H68l0.1,1.5c0.2-0.5,0.6-0.9,1.1-1.2s1.1-0.5,1.9-0.5v1.4h-0.4c-0.5,0-0.9,0.1-1.3,0.2
			c-0.4,0.2-0.7,0.4-0.9,0.8c-0.2,0.4-0.3,0.9-0.3,1.6v4L66.8,197.6L66.8,197.6z"/>
		<path class="st1" d="M77.7,187.9c-0.3,0-0.5-0.1-0.7-0.3s-0.3-0.4-0.3-0.7s0.1-0.5,0.3-0.6c0.2-0.2,0.4-0.3,0.7-0.3
			c0.3,0,0.5,0.1,0.7,0.3s0.3,0.4,0.3,0.6c0,0.3-0.1,0.5-0.3,0.7C78.2,187.9,78,187.9,77.7,187.9z M77,197.6v-7.9h1.3v7.9H77z"/>
		<path class="st1" d="M81.1,197.6v-6.8h-1.2v-1.1h1.2v-1.4c0-0.8,0.2-1.3,0.6-1.7s0.9-0.5,1.7-0.5h0.8v1.1h-0.6
			c-0.4,0-0.7,0.1-0.9,0.2s-0.3,0.5-0.3,0.8v1.3h2v1.1h-2v6.8L81.1,197.6L81.1,197.6z"/>
		<path class="st1" d="M91.1,201.2l2-4.3h-0.5l-3.2-7.2h1.5l2.6,6.2l2.8-6.2h1.4l-5.2,11.5H91.1z"/>
		<path class="st1" d="M102,197.8c-0.8,0-1.4-0.2-2-0.5s-1.1-0.8-1.4-1.5c-0.4-0.6-0.5-1.4-0.5-2.2s0.2-1.6,0.5-2.2
			c0.4-0.6,0.8-1.1,1.4-1.4s1.3-0.5,2-0.5c0.8,0,1.4,0.2,2,0.5s1.1,0.8,1.4,1.4c0.4,0.6,0.5,1.4,0.5,2.2s-0.2,1.6-0.5,2.2
			c-0.4,0.6-0.8,1.1-1.4,1.5S102.8,197.8,102,197.8z M102,196.7c0.5,0,0.9-0.1,1.3-0.3s0.7-0.6,1-1c0.2-0.5,0.4-1,0.4-1.7
			s-0.1-1.2-0.4-1.7c-0.2-0.4-0.6-0.8-0.9-1c-0.4-0.2-0.8-0.3-1.3-0.3s-0.9,0.1-1.3,0.3s-0.7,0.6-1,1s-0.4,1-0.4,1.7
			s0.1,1.2,0.4,1.7s0.6,0.8,0.9,1C101.2,196.6,101.6,196.7,102,196.7z"/>
		<path class="st1" d="M110.8,197.8c-0.9,0-1.7-0.3-2.2-0.9c-0.6-0.6-0.8-1.4-0.8-2.6v-4.6h1.3v4.5c0,1.6,0.7,2.5,2,2.5
			c0.7,0,1.3-0.2,1.7-0.7c0.5-0.5,0.7-1.2,0.7-2.1v-4.1h1.3v7.9h-1.2l-0.1-1.4c-0.2,0.5-0.6,0.9-1.1,1.2
			C111.9,197.7,111.4,197.8,110.8,197.8z"/>
		<path class="st1" d="M123.9,197.8c-0.7,0-1.2-0.1-1.7-0.3c-0.4-0.2-0.8-0.5-1-0.9s-0.3-0.8-0.3-1.2c0-0.8,0.3-1.4,0.9-1.9
			s1.5-0.7,2.5-0.7h2.1v-0.1c0-0.7-0.2-1.2-0.5-1.6c-0.4-0.4-0.9-0.5-1.5-0.5c-0.5,0-1,0.1-1.4,0.4c-0.4,0.3-0.6,0.6-0.7,1.1h-1.4
			c0.1-0.6,0.2-1.1,0.6-1.5c0.3-0.4,0.8-0.7,1.3-0.9c0.5-0.2,1-0.3,1.6-0.3c1.1,0,1.9,0.3,2.5,0.9c0.6,0.6,0.8,1.4,0.8,2.4v4.9h-1.2
			l-0.1-1.4c-0.2,0.5-0.6,0.8-1,1.1C125.2,197.7,124.7,197.8,123.9,197.8z M124.1,196.7c0.5,0,0.9-0.1,1.3-0.4
			c0.4-0.3,0.6-0.6,0.8-1s0.3-0.9,0.3-1.3l0,0h-2c-0.8,0-1.3,0.1-1.7,0.4c-0.3,0.3-0.5,0.6-0.5,1s0.1,0.8,0.5,1
			C123.1,196.6,123.6,196.7,124.1,196.7z"/>
		<path class="st1" d="M129.9,197.6v-7.9h1.2l0.1,1.5c0.2-0.5,0.6-0.9,1.1-1.2s1.1-0.5,1.9-0.5v1.4h-0.4c-0.5,0-0.9,0.1-1.3,0.2
			c-0.4,0.2-0.7,0.4-0.9,0.8c-0.2,0.4-0.4,0.9-0.4,1.6v4L129.9,197.6L129.9,197.6z"/>
		<path class="st1" d="M139,197.8c-0.8,0-1.4-0.2-2-0.5s-1.1-0.8-1.4-1.4c-0.3-0.6-0.5-1.4-0.5-2.2s0.2-1.6,0.5-2.2
			c0.3-0.6,0.8-1.1,1.4-1.5c0.6-0.3,1.3-0.5,2.1-0.5s1.4,0.2,2,0.5c0.6,0.4,1,0.8,1.3,1.4c0.3,0.6,0.5,1.2,0.5,1.8
			c0,0.1,0,0.2,0,0.4c0,0.1,0,0.2,0,0.4h-6.3c0,0.6,0.2,1.1,0.4,1.5s0.6,0.7,0.9,0.9c0.4,0.2,0.8,0.3,1.2,0.3c0.6,0,1-0.1,1.4-0.4
			c0.4-0.3,0.6-0.6,0.8-1h1.3c-0.2,0.7-0.6,1.4-1.2,1.8C140.7,197.6,140,197.8,139,197.8z M139,190.6c-0.6,0-1.2,0.2-1.7,0.6
			c-0.5,0.4-0.8,1-0.9,1.7h5c0-0.7-0.3-1.3-0.7-1.7C140.2,190.8,139.7,190.6,139,190.6z"/>
		<path class="st1" d="M148.8,197.6v-7.9h1.2l0.1,1.1c0.3-0.4,0.6-0.8,1-1s0.9-0.4,1.4-0.4c0.6,0,1.2,0.1,1.6,0.4
			c0.4,0.3,0.8,0.6,1.1,1.2c0.3-0.5,0.7-0.9,1.1-1.1s1-0.4,1.6-0.4c0.9,0,1.7,0.3,2.3,0.9c0.6,0.6,0.9,1.4,0.9,2.6v4.6h-1.3v-4.5
			c0-0.8-0.2-1.4-0.5-1.9c-0.3-0.4-0.8-0.6-1.4-0.6c-0.6,0-1.2,0.2-1.6,0.7c-0.4,0.5-0.6,1.2-0.6,2.1v4.1h-1.4V193
			c0-0.8-0.2-1.4-0.5-1.9s-0.8-0.6-1.4-0.6c-0.6,0-1.2,0.2-1.6,0.7c-0.4,0.5-0.6,1.2-0.6,2.1v4.1L148.8,197.6L148.8,197.6z"/>
		<path class="st1" d="M166.7,197.8c-0.8,0-1.4-0.2-2-0.5s-1.1-0.8-1.4-1.5c-0.4-0.6-0.5-1.4-0.5-2.2s0.2-1.6,0.5-2.2
			s0.8-1.1,1.4-1.4c0.6-0.3,1.3-0.5,2-0.5c0.8,0,1.4,0.2,2,0.5s1.1,0.8,1.4,1.4c0.4,0.6,0.5,1.4,0.5,2.2s-0.2,1.6-0.5,2.2
			c-0.4,0.6-0.8,1.1-1.4,1.5S167.5,197.8,166.7,197.8z M166.7,196.7c0.5,0,0.9-0.1,1.3-0.3c0.4-0.2,0.7-0.6,1-1
			c0.2-0.5,0.4-1,0.4-1.7s-0.1-1.2-0.4-1.7c-0.2-0.4-0.6-0.8-0.9-1c-0.4-0.2-0.8-0.3-1.3-0.3s-0.9,0.1-1.3,0.3c-0.4,0.2-0.7,0.6-1,1
			s-0.4,1-0.4,1.7s0.1,1.2,0.4,1.7s0.6,0.8,0.9,1C165.9,196.6,166.3,196.7,166.7,196.7z"/>
		<path class="st1" d="M172.6,197.6v-7.9h1.2l0.1,1.5c0.2-0.5,0.6-0.9,1.1-1.2s1.1-0.5,1.9-0.5v1.4h-0.4c-0.5,0-0.9,0.1-1.3,0.2
			c-0.4,0.2-0.7,0.4-0.9,0.8c-0.2,0.4-0.4,0.9-0.4,1.6v4L172.6,197.6L172.6,197.6z"/>
		<path class="st1" d="M181.7,197.8c-0.8,0-1.4-0.2-2-0.5s-1.1-0.8-1.4-1.4c-0.3-0.6-0.5-1.4-0.5-2.2s0.2-1.6,0.5-2.2
			c0.3-0.6,0.8-1.1,1.4-1.5c0.6-0.3,1.3-0.5,2.1-0.5s1.4,0.2,2,0.5c0.6,0.4,1,0.8,1.3,1.4c0.3,0.6,0.5,1.2,0.5,1.8
			c0,0.1,0,0.2,0,0.4c0,0.1,0,0.2,0,0.4h-6.3c0,0.6,0.2,1.1,0.4,1.5s0.6,0.7,0.9,0.9c0.4,0.2,0.8,0.3,1.2,0.3c0.6,0,1-0.1,1.4-0.4
			c0.4-0.3,0.6-0.6,0.8-1h1.3c-0.2,0.7-0.6,1.4-1.2,1.8C183.4,197.6,182.6,197.8,181.7,197.8z M181.7,190.6c-0.6,0-1.2,0.2-1.7,0.6
			c-0.5,0.4-0.8,1-0.9,1.7h5c0-0.7-0.3-1.3-0.7-1.7C182.9,190.8,182.3,190.6,181.7,190.6z"/>
		<path class="st1" d="M29.8,219.8c-1,0-1.7-0.2-2.4-0.7c-0.6-0.5-1-1.1-1.1-2h1.4c0.1,0.4,0.3,0.8,0.7,1.1c0.3,0.3,0.8,0.5,1.5,0.5
			c0.6,0,1-0.1,1.2-0.4c0.3-0.2,0.4-0.5,0.4-0.9c0-0.5-0.2-0.8-0.5-1s-0.8-0.3-1.5-0.4c-0.4-0.1-0.8-0.2-1.3-0.4s-0.8-0.4-1.1-0.7
			c-0.3-0.3-0.4-0.7-0.4-1.2c0-0.7,0.3-1.3,0.8-1.7s1.2-0.7,2.1-0.7c0.8,0,1.5,0.2,2.1,0.6c0.5,0.4,0.8,1,0.9,1.8h-1.3
			c0-0.4-0.2-0.7-0.5-1c-0.3-0.2-0.7-0.3-1.2-0.3s-0.9,0.1-1.1,0.3c-0.3,0.2-0.4,0.5-0.4,0.8s0.2,0.6,0.5,0.8s0.8,0.3,1.4,0.5
			c0.5,0.1,1,0.2,1.4,0.4c0.4,0.1,0.8,0.4,1.1,0.7s0.4,0.7,0.4,1.3c0,0.7-0.3,1.3-0.8,1.8C31.5,219.6,30.8,219.8,29.8,219.8z"/>
		<path class="st1" d="M38.4,219.8c-0.8,0-1.4-0.2-2-0.5s-1-0.8-1.4-1.4c-0.3-0.6-0.5-1.4-0.5-2.2s0.2-1.6,0.5-2.2
			c0.3-0.6,0.8-1.1,1.4-1.5c0.6-0.3,1.3-0.5,2.1-0.5s1.4,0.2,2,0.5c0.6,0.4,1,0.8,1.3,1.4c0.3,0.6,0.5,1.2,0.5,1.8
			c0,0.1,0,0.2,0,0.4s0,0.2,0,0.4H36c0,0.6,0.2,1.1,0.4,1.5s0.6,0.7,0.9,0.9c0.4,0.2,0.8,0.3,1.2,0.3c0.5,0,1-0.1,1.4-0.4
			s0.6-0.6,0.8-1H42c-0.2,0.7-0.6,1.4-1.2,1.8C40.1,219.6,39.3,219.8,38.4,219.8z M38.4,212.6c-0.6,0-1.2,0.2-1.7,0.6
			c-0.5,0.4-0.8,1-0.9,1.7h5c0-0.7-0.3-1.3-0.7-1.7C39.6,212.8,39,212.6,38.4,212.6z"/>
		<path class="st1" d="M43.9,219.6v-7.9h1.2l0.1,1.4c0.3-0.5,0.6-0.9,1.1-1.2s1-0.4,1.6-0.4c0.9,0,1.7,0.3,2.2,0.9
			c0.6,0.6,0.8,1.5,0.8,2.6v4.6h-1.3v-4.5c0-1.6-0.7-2.5-2-2.5c-0.7,0-1.2,0.2-1.7,0.7c-0.4,0.5-0.7,1.2-0.7,2.1v4.1L43.9,219.6
			L43.9,219.6z"/>
		<path class="st1" d="M56.1,219.8c-1,0-1.7-0.2-2.4-0.7c-0.6-0.5-1-1.1-1.1-2H54c0.1,0.4,0.3,0.8,0.7,1.1c0.3,0.3,0.8,0.5,1.4,0.5
			c0.6,0,1-0.1,1.2-0.4c0.3-0.2,0.4-0.5,0.4-0.9c0-0.5-0.2-0.8-0.5-1c-0.4-0.2-0.8-0.3-1.5-0.4c-0.4-0.1-0.9-0.2-1.3-0.4
			s-0.8-0.4-1.1-0.7s-0.4-0.7-0.4-1.2c0-0.7,0.3-1.3,0.8-1.7s1.2-0.7,2.1-0.7c0.8,0,1.5,0.2,2.1,0.6c0.5,0.4,0.8,1,0.9,1.8h-1.3
			c-0.1-0.4-0.2-0.7-0.5-1c-0.3-0.2-0.7-0.3-1.2-0.3s-0.8,0.1-1.1,0.3s-0.4,0.5-0.4,0.8s0.2,0.6,0.5,0.8s0.8,0.3,1.4,0.5
			c0.5,0.1,1,0.2,1.4,0.4c0.4,0.1,0.8,0.4,1.1,0.7s0.4,0.7,0.4,1.3c0,0.7-0.3,1.3-0.8,1.8C57.8,219.6,57,219.8,56.1,219.8z"/>
		<path class="st1" d="M61.9,209.9c-0.3,0-0.5-0.1-0.7-0.3s-0.3-0.4-0.3-0.7s0.1-0.5,0.3-0.6c0.2-0.2,0.4-0.3,0.7-0.3
			s0.5,0.1,0.7,0.3s0.3,0.4,0.3,0.6c0,0.3-0.1,0.5-0.3,0.7C62.3,209.9,62.1,209.9,61.9,209.9z M61.2,219.6v-7.9h1.3v7.9H61.2z"/>
		<path class="st1" d="M68,219.6c-0.7,0-1.3-0.2-1.7-0.5s-0.6-1-0.6-1.9v-4.4h-1.4v-1.1h1.4l0.2-1.9h1.2v1.9h2.3v1.1h-2.3v4.4
			c0,0.5,0.1,0.8,0.3,1c0.2,0.2,0.6,0.3,1.1,0.3h0.8v1.1L68,219.6L68,219.6z"/>
		<path class="st1" d="M71.9,209.9c-0.3,0-0.5-0.1-0.7-0.3s-0.3-0.4-0.3-0.7s0.1-0.5,0.3-0.6c0.2-0.2,0.4-0.3,0.7-0.3
			c0.3,0,0.5,0.1,0.7,0.3s0.3,0.4,0.3,0.6c0,0.3-0.1,0.5-0.3,0.7C72.4,209.9,72.1,209.9,71.9,209.9z M71.2,219.6v-7.9h1.3v7.9H71.2z
			"/>
		<path class="st1" d="M77.2,219.6l-3-7.9h1.4l2.4,6.6l2.4-6.6h1.4l-3,7.9H77.2z"/>
		<path class="st1" d="M86.4,219.8c-0.8,0-1.4-0.2-2-0.5s-1.1-0.8-1.4-1.4c-0.3-0.6-0.5-1.4-0.5-2.2s0.2-1.6,0.5-2.2
			c0.3-0.6,0.8-1.1,1.4-1.5c0.6-0.3,1.3-0.5,2.1-0.5c0.8,0,1.4,0.2,2,0.5c0.6,0.4,1,0.8,1.3,1.4c0.3,0.6,0.5,1.2,0.5,1.8
			c0,0.1,0,0.2,0,0.4s0,0.2,0,0.4H84c0,0.6,0.2,1.1,0.4,1.5s0.6,0.7,0.9,0.9c0.4,0.2,0.8,0.3,1.2,0.3c0.6,0,1-0.1,1.4-0.4
			c0.4-0.3,0.7-0.6,0.8-1H90c-0.2,0.7-0.6,1.4-1.2,1.8C88.1,219.6,87.3,219.8,86.4,219.8z M86.4,212.6c-0.6,0-1.2,0.2-1.7,0.6
			c-0.5,0.4-0.8,1-0.9,1.7h5c0-0.7-0.3-1.3-0.7-1.7C87.6,212.8,87.1,212.6,86.4,212.6z"/>
		<path class="st1" d="M99.3,219.6c-0.7,0-1.3-0.2-1.7-0.5c-0.4-0.4-0.6-1-0.6-1.9v-4.4h-1.4v-1.1H97l0.2-1.9h1.2v1.9h2.3v1.1h-2.4
			v4.4c0,0.5,0.1,0.8,0.3,1c0.2,0.2,0.6,0.3,1.1,0.3h0.8v1.1L99.3,219.6L99.3,219.6z"/>
		<path class="st1" d="M105.7,219.8c-0.8,0-1.4-0.2-2-0.5s-1.1-0.8-1.4-1.5c-0.3-0.6-0.5-1.4-0.5-2.2s0.2-1.6,0.5-2.2
			c0.4-0.6,0.8-1.1,1.4-1.4c0.6-0.3,1.3-0.5,2-0.5s1.4,0.2,2,0.5s1.1,0.8,1.4,1.4c0.3,0.6,0.5,1.4,0.5,2.2s-0.2,1.6-0.5,2.2
			c-0.3,0.6-0.8,1.1-1.4,1.5S106.5,219.8,105.7,219.8z M105.7,218.7c0.5,0,0.9-0.1,1.3-0.3s0.7-0.6,1-1c0.2-0.5,0.4-1,0.4-1.7
			s-0.1-1.2-0.4-1.7c-0.2-0.5-0.6-0.8-0.9-1c-0.4-0.2-0.8-0.3-1.3-0.3s-0.9,0.1-1.3,0.3s-0.7,0.6-1,1s-0.4,1-0.4,1.7
			s0.1,1.2,0.4,1.7c0.2,0.4,0.6,0.8,0.9,1C104.9,218.6,105.3,218.7,105.7,218.7z"/>
		<path class="st1" d="M116.7,209.9c-0.3,0-0.5-0.1-0.7-0.3s-0.3-0.4-0.3-0.7s0.1-0.5,0.3-0.6c0.2-0.2,0.4-0.3,0.7-0.3
			c0.3,0,0.5,0.1,0.7,0.3s0.3,0.4,0.3,0.6c0,0.3-0.1,0.5-0.3,0.7C117.1,209.9,116.9,209.9,116.7,209.9z M116,219.6v-7.9h1.3v7.9H116
			z"/>
		<path class="st1" d="M122.8,219.6c-0.7,0-1.3-0.2-1.7-0.5s-0.6-1-0.6-1.9v-4.4h-1.4v-1.1h1.4l0.2-1.9h1.2v1.9h2.3v1.1h-2.3v4.4
			c0,0.5,0.1,0.8,0.3,1s0.6,0.3,1.1,0.3h0.8v1.1L122.8,219.6L122.8,219.6z"/>
		<path class="st1" d="M125.4,222v-0.1c1-1,1.8-2.1,2.4-3.4c0.6-1.3,0.9-2.7,0.9-4.2s-0.3-2.9-0.9-4.1c-0.6-1.3-1.4-2.4-2.3-3.4
			v-0.1h1.4c0.6,0.6,1.1,1.2,1.6,2s0.9,1.6,1.2,2.6s0.4,2,0.4,3.1s-0.2,2.1-0.4,3.1c-0.3,0.9-0.7,1.8-1.2,2.6s-1,1.4-1.6,2
			L125.4,222L125.4,222z"/>
		<path class="st1" d="M132.3,219.7c-0.3,0-0.5-0.1-0.7-0.3s-0.3-0.4-0.3-0.7s0.1-0.5,0.3-0.6c0.2-0.2,0.4-0.3,0.7-0.3
			s0.5,0.1,0.7,0.3s0.3,0.4,0.3,0.6c0,0.3-0.1,0.5-0.3,0.7C132.7,219.6,132.5,219.7,132.3,219.7z"/>
		<path class="st1" d="M26.9,31.7V20.5h1.3v11.2H26.9z"/>
		<path class="st1" d="M33.6,31.7c-0.7,0-1.3-0.2-1.7-0.5s-0.6-1-0.6-1.9v-4.4h-1.4v-1.1h1.4l0.2-1.9h1.2v1.9H35v1.1h-2.3v4.4
			c0,0.5,0.1,0.8,0.3,1s0.6,0.3,1.1,0.3h0.8v1.1H33.6z"/>
		<path class="st1" d="M44.1,31.7c-0.7,0-1.3-0.2-1.7-0.5s-0.6-1-0.6-1.9v-4.4h-1.4v-1.1h1.4l0.2-1.9h1.2v1.9h2.3v1.1h-2.3v4.4
			c0,0.5,0.1,0.8,0.3,1s0.6,0.3,1.1,0.3h0.7v1.1H44.1z"/>
		<path class="st1" d="M49.8,31.9c-0.7,0-1.2-0.1-1.7-0.3c-0.4-0.2-0.8-0.5-1-0.9s-0.3-0.8-0.3-1.2c0-0.8,0.3-1.4,0.9-1.9
			c0.6-0.4,1.5-0.7,2.5-0.7h2.1v-0.1c0-0.7-0.2-1.2-0.5-1.6s-0.8-0.5-1.5-0.5c-0.5,0-1,0.1-1.4,0.4s-0.6,0.6-0.7,1.1h-1.4
			c0.1-0.6,0.2-1.1,0.6-1.5c0.3-0.4,0.8-0.7,1.3-0.9c0.5-0.2,1-0.3,1.6-0.3c1.1,0,1.9,0.3,2.5,0.9s0.8,1.4,0.8,2.4v4.9h-1.2
			l-0.1-1.4c-0.2,0.4-0.6,0.8-1,1.1C51.1,31.7,50.5,31.9,49.8,31.9z M50,30.7c0.5,0,0.9-0.1,1.3-0.4s0.7-0.6,0.8-1
			c0.2-0.4,0.3-0.9,0.3-1.3l0,0h-2c-0.8,0-1.3,0.1-1.7,0.4c-0.3,0.3-0.5,0.6-0.5,1s0.1,0.8,0.5,1C49,30.6,49.4,30.7,50,30.7z"/>
		<path class="st1" d="M55.8,31.7V20.2h1.3v6.9l3.2-3.3H62l-3.5,3.6l4,4.3h-1.7l-3.6-4.1v4.1H55.8z"/>
		<path class="st1" d="M66.8,31.9c-0.8,0-1.4-0.2-2-0.5c-0.6-0.4-1-0.8-1.4-1.5c-0.3-0.6-0.5-1.3-0.5-2.2c0-0.8,0.2-1.6,0.5-2.2
			s0.8-1.1,1.4-1.5s1.3-0.5,2.1-0.5c0.8,0,1.4,0.2,2,0.5s1,0.8,1.3,1.4s0.4,1.2,0.4,1.8c0,0.1,0,0.2,0,0.4c0,0.1,0,0.2,0,0.4h-6.3
			c0,0.6,0.2,1.1,0.4,1.5c0.2,0.4,0.6,0.7,0.9,0.9c0.4,0.2,0.8,0.3,1.2,0.3c0.5,0,1-0.1,1.4-0.4s0.7-0.6,0.8-1h1.3
			c-0.2,0.7-0.6,1.3-1.2,1.8C68.6,31.6,67.8,31.9,66.8,31.9z M66.8,24.7c-0.6,0-1.2,0.2-1.7,0.6s-0.8,1-0.9,1.7h5
			c0-0.7-0.3-1.3-0.7-1.7C68.1,24.9,67.5,24.7,66.8,24.7z"/>
		<path class="st1" d="M75.4,31.9c-1,0-1.7-0.2-2.4-0.7c-0.6-0.5-1-1.1-1.1-1.9h1.4c0.1,0.4,0.3,0.8,0.7,1.1
			c0.3,0.3,0.8,0.5,1.4,0.5s1-0.1,1.2-0.4c0.3-0.2,0.4-0.5,0.4-0.9c0-0.5-0.2-0.8-0.5-1s-0.8-0.3-1.5-0.4c-0.4-0.1-0.8-0.2-1.3-0.4
			c-0.4-0.2-0.8-0.4-1.1-0.7c-0.3-0.3-0.4-0.7-0.4-1.2c0-0.7,0.3-1.3,0.8-1.7c0.5-0.4,1.2-0.7,2.1-0.7c0.8,0,1.5,0.2,2.1,0.6
			c0.5,0.4,0.8,1,0.9,1.8h-1.3c0-0.4-0.2-0.7-0.5-1c-0.3-0.2-0.7-0.3-1.2-0.3s-0.8,0.1-1.1,0.3s-0.4,0.5-0.4,0.8s0.2,0.6,0.5,0.8
			c0.3,0.2,0.8,0.3,1.4,0.5c0.5,0.1,1,0.2,1.4,0.4c0.4,0.2,0.8,0.4,1.1,0.7c0.3,0.3,0.4,0.7,0.4,1.3c0,0.7-0.3,1.3-0.8,1.8
			C77.1,31.6,76.4,31.9,75.4,31.9z"/>
		<path class="st2" d="M31.1,44.3c0.2-0.1,0.5-0.2,0.6-0.2c0.2,0,0.4,0.1,0.7,0.2c0.5,0.2,0.8,0.7,0.8,1.3c0,0.1,0,0.3-0.1,0.6
			c-0.8,4-1.2,6-1.2,6.1c0,0.2,0.3,0.4,1,0.6c1.3,0.5,2.2,1.5,2.6,2.9c0.2,0.6,0.2,1.1,0.2,1.7c0,0.4,0,1-0.1,1.9
			c-0.1,1.3-0.3,2.2-0.5,2.7s-0.6,1.3-1.2,2.2c-0.5,0.8-1,1.2-1.6,1.4c-0.5,0.1-0.9,0.2-1,0.2c-0.3,0-0.7-0.1-1.3-0.4
			c-1.2-0.6-1.9-1.3-2.1-2.2c-0.1-0.4-0.2-0.6-0.3-0.8c-0.3,0.1-0.3-0.7-0.3-1.9c0-0.8,0-1.4,0.2-1.9c0.1-0.5,0.3-1.5,0.5-3
			s0.3-2.5,0.5-2.9c0.1-0.5,0.4-1.9,0.8-4.3c0.3-1.7,0.5-2.7,0.7-3.2C30.2,44.8,30.5,44.5,31.1,44.3z M31.8,58.2
			c-0.1-1.2-0.2-1.7-0.3-1.7s-0.3,0.4-0.5,1.3c-0.2,0.9-0.2,1.5-0.2,1.9c0,0.2,0.1,0.6,0.2,1.3c0.1,0.4,0.2,0.6,0.3,0.6
			s0.3-0.3,0.4-0.9c0.1-0.6,0.2-1.2,0.2-2v-0.5H31.8z"/>
		<path class="st2" d="M50.8,43.2c0.1-0.2,0.3-0.3,0.7-0.3c0.5,0,1,0.1,1.5,0.5c0.3,0.2,0.5,0.4,0.6,0.6c0.1,0.1,0.1,0.5,0.2,1.1
			c0,4,0.1,6.3,0.1,7s0.2,1,0.4,1.1h0.1c0.2,0,0.5-0.1,0.8-0.2c0.2-0.1,0.3-0.4,0.4-0.8c0-0.4,0.1-1.4,0.1-3.1
			c0-2.5,0.1-3.8,0.2-4.1c0.2-0.5,0.8-0.7,1.5-0.7c0.3,0,0.6,0.1,0.8,0.2l0.6,0.3l-0.1,4.4c-0.1,1.8-0.1,4.4-0.1,7.7
			c0,3.7,0.1,6.1,0.2,7.2l0.2,1.8L58.3,66c-0.2,0.1-0.4,0.2-0.7,0.2c-0.2,0-0.5-0.1-0.9-0.2c-0.6-0.2-0.9-0.5-1-0.8
			c-0.1-0.2-0.2-1.8-0.2-4.7c-0.1-2.9-0.2-4.4-0.2-4.5c-0.1-0.1-0.4-0.1-0.8,0l-0.8,0.2l0.1,3.4c0.1,2.4,0.2,3.8,0.4,4.2
			c0.1,0.3,0.2,0.7,0.2,1c0,0.6-0.3,1-0.9,1.1C53.2,66,53,66,52.9,66c-0.8,0-1.4-0.2-1.8-0.7c-0.2-0.2-0.3-0.8-0.3-1.8
			c0-1-0.1-4.1-0.1-9.3C50.6,47.1,50.6,43.4,50.8,43.2z"/>
		<path class="st2" d="M64.4,44.1l0.8-1h5.1l0.8,0.8c0.5,0.5,0.9,1.2,1.1,2s0.4,2.1,0.5,3.8c0.1,0.6,0.1,1.6,0.1,2.8
			c0,2.9-0.3,5.4-0.8,7.8c-0.5,2.3-1.2,3.9-2.1,4.8c-0.3,0.3-0.7,0.5-1.2,0.7s-1,0.3-1.4,0.3c-0.2,0-0.3,0-0.4-0.1
			c-0.2-0.1-0.5-0.2-0.9-0.2c-0.3,0-0.6-0.2-1-0.7s-0.7-1-0.9-1.7c-0.4-1.1-0.7-2.3-0.8-3.6c-0.1-1.3-0.2-3.4-0.2-6.3v-2
			c0-2.6,0.1-4.4,0.2-5.3C63.6,45.4,63.9,44.7,64.4,44.1z M68.3,46.1c-0.2-0.5-0.5-0.8-0.6-0.8c-0.2,0-0.4,0.4-0.7,1.3
			c-0.2,0.7-0.3,2-0.3,3.9c0,1.5,0.1,3.1,0.2,4.8c0.1,1.6,0.3,3.1,0.5,4.5s0.5,2.1,0.7,2.1c0.1,0,0.3-0.3,0.4-0.9
			c0.1-0.5,0.3-0.9,0.5-1.3c0.1-0.2,0.2-1.4,0.4-3.7c0.1-1.2,0.1-2.3,0.1-3.3C69.4,49.6,69,47.4,68.3,46.1z"/>
		<path class="st2" d="M77.7,42.8c0.3-0.2,0.8-0.4,1.3-0.4c0.6,0,1.1,0.2,1.5,0.5l0.5,0.5v5.1c0.1,6,0.2,10.1,0.6,12.3
			c0.1,0.4,0.2,0.7,0.2,0.7c0.3,0,0.5-0.9,0.6-2.6c0.4-3.6,0.6-7.1,0.6-10.6v-0.9v-0.6c0-1.9,0.2-3,0.7-3.3c0.1-0.1,0.4-0.2,0.8-0.2
			c0.8,0,1.3,0.1,1.6,0.4c0.4,0.4,0.7,1.6,0.7,3.4c0,1.5-0.1,4.4-0.4,8.6c-0.2,3.5-0.6,6-1.1,7.4c-0.5,1.5-1.4,2.4-2.7,2.8
			c-0.5,0.2-0.8,0.2-1,0.2S81,66,80.2,65.6c-1.5-0.7-2.4-1.9-2.6-3.5c-0.2-1.4-0.3-5.9-0.5-13.5c0-1.1,0-2.3,0-3.6
			c0-0.9,0-1.4,0.1-1.7C77.4,43.1,77.5,42.9,77.7,42.8z"/>
		<path class="st2" d="M92.4,43.3c0.5-0.2,1.2-0.2,1.9-0.2c0.8,0,1.5,0.1,1.9,0.2c0.7,0.3,1.3,0.9,1.7,1.7c0.2,0.4,0.3,1.1,0.5,2.2
			c0.2,1.1,0.2,2,0.2,2.9c0,0.4,0,0.7,0,0.8c-0.1,0.7-0.3,1.5-0.6,2.3c-0.3,0.9-0.5,1.3-0.7,1.3S97,54.7,97,55.1
			c0,0.3,0.1,0.6,0.3,0.9c0.5,0.6,1.1,1.8,1.9,3.6c0.8,1.7,1.3,2.8,1.3,3.3c0,0.1,0,0.3,0,0.6c0,0.4-0.1,0.7-0.3,1
			c-0.2,0.3-0.5,0.5-0.8,0.5s-0.5,0-0.8,0c-0.7-0.1-1.1-0.2-1.3-0.3C97.1,64.6,97,64.4,97,64c0-0.6-0.3-1.4-0.9-2.6
			c-0.6-1.2-1-1.7-1.3-1.7l0,0c-0.1,0.1-0.1,0.4-0.1,0.9c0,0.8,0.1,1.8,0.2,2.8c0.1,0.4,0.1,0.8,0.1,0.9c0,0.9-0.2,1.5-0.6,1.8
			c-0.2,0.1-0.4,0.1-0.7,0.1c-0.9,0-1.5-0.2-1.7-0.6c-0.1-0.2-0.2-2.1-0.3-5.7c0-1.2-0.1-2.4-0.1-3.7s0-2.3,0-2.9
			c0-0.6,0-1.4-0.1-2.4s-0.2-2-0.3-3.2c-0.1-1.3-0.2-2.1-0.2-2.4c0-0.7,0.1-1.1,0.3-1.4C91.6,43.7,91.9,43.5,92.4,43.3z M95.1,46.4
			c-0.1-0.2-0.2-0.3-0.5-0.3c-0.2,0-0.3,0.1-0.4,0.3s-0.1,0.4,0,0.5c0,0,0.1,0.9,0.2,2.7s0.2,2.7,0.3,2.8c0.1,0.1,0.2-0.1,0.4-0.3
			c0.2-0.2,0.2-0.7,0.2-1.4c0-0.5,0-1,0-1.4C95.3,47.7,95.2,46.7,95.1,46.4z"/>
		<path class="st2" d="M108.2,43.6c0.3-0.2,0.7-0.2,1.2-0.2c0.3,0,0.6,0,0.8,0c0.8,0.1,1.4,0.2,1.7,0.3c0.3,0.1,0.6,0.4,0.8,0.8
			c0.3,0.4,0.4,0.9,0.4,1.3c0,0.5-0.2,0.9-0.6,1.3c-0.3,0.3-0.7,0.5-1,0.5c-0.4,0-0.7-0.2-1.1-0.7c-0.2-0.4-0.5-0.6-0.8-0.6
			c-0.2,0-0.5,0.2-0.7,0.5c-0.2,0.4-0.4,0.7-0.4,1.2v0.2c0,1.5,1.2,4.4,3.5,8.5c0.4,0.7,0.8,1.9,1.1,3.7c0,0.1,0,0.3,0,0.6
			c0,1.5-0.3,2.7-1,3.6c-0.3,0.4-0.7,0.7-1.4,1S109.5,66,109,66c-0.1,0-0.1,0-0.2,0s-0.1,0-0.2,0c-0.6-0.1-1.4-0.6-2.3-1.4
			c-0.9-0.9-1.4-1.5-1.4-2c0-0.2,0.2-0.5,0.5-0.8s0.6-0.5,0.9-0.5c0.1,0,0.1,0,0.3,0c0.3,0,0.8,0.4,1.5,1.3c0.2,0.4,0.5,0.6,0.8,0.6
			s0.5-0.2,0.6-0.5c0.1-0.1,0.1-0.3,0.1-0.6c0-1.6-0.7-4-2.2-7.1c-1.3-2.9-2-5.1-2-6.5c0-0.6,0.1-1.2,0.3-1.7
			c0.4-1.1,0.8-1.8,1.1-2.2C107.2,44.3,107.6,43.9,108.2,43.6z"/>
		<path class="st3" d="M252.4,220.3c33.5,0,60.6-3.5,60.6-7.8s-27.1-7.8-60.6-7.8s-60.6,3.5-60.6,7.8S219,220.3,252.4,220.3z"/>
		<path class="st4" d="M230.7,181.3c0,0-7.9,3.2-5.9-9.4c2.1-12.7,3.1-19.4,0-23.3c0,0,10.8,4.5,4.4,19.5
			C222.8,183,230.7,181.3,230.7,181.3z"/>
		<path class="st4" d="M242.2,181.3c0,0-8,3.2-5.9-9.4c2.1-12.7,3.1-19.4,0-23.3c0,0,10.8,4.5,4.4,19.5
			C234.3,183,242.2,181.3,242.2,181.3z"/>
		<path class="st4" d="M252.9,181.3c0,0-7.9,3.2-5.9-9.4c2.1-12.7,3.1-19.4,0-23.3c0,0,10.8,4.5,4.4,19.5
			C245,183,252.9,181.3,252.9,181.3z"/>
		<path class="st5" d="M264.6,198.3h-15.7v-2.7h15.7c1.7,0,3.2-1.1,3.2-2.4v-3.6c0-1.3-1.5-2.4-3.2-2.4h-6.5v-2.7h6.5
			c3.2,0,5.9,2.3,5.9,5.1v3.6C270.5,196.1,267.9,198.3,264.6,198.3z"/>
		<path class="st6" d="M215,179.3c-1.2,0-2.2,1.1-2.1,2.4C214,195.9,225,207,238.5,207c13.4,0,24.5-11.1,25.6-25.3
			c0.1-1.3-0.9-2.4-2.1-2.4H215z"/>
		<path class="st2" d="M299.6,209.9h-10.3V95.4h4.3c3.3,0,6,2.7,6,6V209.9z"/>
		<path class="st7" d="M299.6,212.6h-96.4v-2.9c0-4.2,3.4-7.5,7.5-7.5h85.6c1.8,0,3.3,1.5,3.3,3.3V212.6z"/>
		<path class="st2" d="M249.6,141.4h-19.9c-1,0-1.8-0.8-1.8-1.8v-7h23.5v7C251.4,140.6,250.6,141.4,249.6,141.4z"/>
		<path class="st7" d="M214.8,106.2v25.7c0,2.5,2,4.5,4.5,4.5h39.8c1.4,0,2.6-1.2,2.6-2.6v-9.9c0-1.8,1.5-3.2,3.2-3.2h34.7v-19.9
			c0-3-2.4-5.4-5.4-5.4h-68.7C219.6,95.4,214.8,100.2,214.8,106.2z"/>
		<path class="st8" d="M220.5,106.9c-0.5-3.9,2.5-7.1,7.4-7.2"/>
		<path class="st9" d="M270.2,83.5c16.4,0,29.7-13.3,29.7-29.7s-13.3-29.7-29.7-29.7c-16.4,0-29.7,13.3-29.7,29.7
			S253.9,83.5,270.2,83.5z"/>
		<path class="st10" d="M270.2,80.6c14.8,0,26.8-12,26.8-26.8S285,27,270.2,27c-14.8,0-26.8,12-26.8,26.8
			C243.5,68.7,255.5,80.6,270.2,80.6z"/>
		<path class="st11" d="M268,57.9c-0.6-0.7-0.5-1.7,0.1-2.3L282.5,43c0.7-0.6,1.7-0.5,2.3,0.1c0.6,0.7,0.5,1.7-0.1,2.3l-14.4,12.7
			C269.7,58.7,268.6,58.6,268,57.9z"/>
		<path class="st11" d="M264.9,44.9c0.8-0.3,1.8,0.1,2.1,1l3.5,10c0.3,0.8-0.1,1.8-1,2.1c-0.8,0.3-1.8-0.1-2.1-1l-3.5-10
			C263.6,46.1,264.1,45.2,264.9,44.9z"/>
		<path class="st8" d="M250.1,41.7c1-3.6,6.9-8.1,11.9-8.8"/>
		<path class="st8" d="M291.3,63.2c-1.4,3.4-4.6,7.2-8,8.9"/>
	</g>
</g>
</svg>
