<?xml version="1.0" encoding="utf-8"?>
<!-- Generator: Adobe Illustrator 25.1.0, SVG Export Plug-In . SVG Version: 6.00 Build 0)  -->
<svg version="1.1" id="Layer_1" xmlns="http://www.w3.org/2000/svg" xmlns:xlink="http://www.w3.org/1999/xlink" x="0px" y="0px"
	 viewBox="0 0 334.4 210.9" style="enable-background:new 0 0 334.4 210.9;" xml:space="preserve">
<style type="text/css">
	.st0{fill:#FFFFFF;}
	.st1{fill:#808080;}
	.st2{fill:#00CDDC;}
	.st3{fill:#BFBFBF;}
	.st4{fill:#D64204;}
	.st5{fill:#DCDCDC;}
	.st6{fill:#FFE7C6;}
	.st7{fill:#00A878;}
	.st8{fill:#3CDC82;}
	.st9{fill:#EA7054;}
	.st10{fill:#F2DF89;}
	.st11{fill:#65E5DD;}
</style>
<g>
	<g>
		<path class="st0" d="M334.4,153c0-139-8.9-153-63.7-153C243.9,0,133.1,1.5,98,2.1C63.5,2.7,16.6-2.4,10.6,19
			c-6,21.1-9.1,48.4-9.1,86.2c0,59.6-7.7,103.2,11.9,103.2c36.8,0,183.8,3.2,227.3,2.3C285.5,209.7,334.4,213.7,334.4,153z"/>
		<path class="st1" d="M26.8,134.6c-0.3,0-0.5-0.1-0.7-0.3s-0.3-0.4-0.3-0.7s0.1-0.5,0.3-0.6c0.2-0.2,0.4-0.3,0.7-0.3
			s0.5,0.1,0.7,0.3s0.3,0.4,0.3,0.6c0,0.3-0.1,0.5-0.3,0.7C27.3,134.5,27.1,134.6,26.8,134.6z M26.2,144.3v-7.9h1.3v7.9H26.2z"/>
		<path class="st1" d="M32.9,144.5c-1,0-1.7-0.2-2.4-0.7c-0.6-0.5-1-1.1-1.1-2h1.4c0.1,0.4,0.3,0.8,0.7,1.1s0.8,0.5,1.5,0.5
			c0.6,0,1-0.1,1.2-0.4c0.3-0.2,0.4-0.5,0.4-0.9c0-0.5-0.2-0.8-0.5-1c-0.4-0.2-0.8-0.3-1.5-0.4c-0.4-0.1-0.9-0.2-1.3-0.4
			s-0.8-0.4-1.1-0.7s-0.4-0.7-0.4-1.2c0-0.7,0.3-1.3,0.8-1.7s1.2-0.7,2.1-0.7c0.8,0,1.5,0.2,2.1,0.6c0.5,0.4,0.8,1,0.9,1.8h-1.3
			c0-0.4-0.2-0.7-0.5-1c-0.3-0.2-0.7-0.3-1.2-0.3s-0.8,0.1-1.1,0.3s-0.4,0.5-0.4,0.8s0.2,0.6,0.5,0.8s0.8,0.3,1.4,0.5
			c0.5,0.1,1,0.2,1.4,0.4c0.4,0.1,0.8,0.4,1.1,0.7s0.4,0.7,0.4,1.3c0,0.7-0.3,1.3-0.8,1.8C34.6,144.2,33.8,144.5,32.9,144.5z"/>
		<path class="st1" d="M45.2,141.8c-0.5,0-0.9-0.1-1.2-0.2l-0.8,0.8c0.1,0.1,0.3,0.2,0.4,0.2c0.2,0.1,0.4,0.1,0.8,0.2
			c0.3,0.1,0.8,0.1,1.4,0.2c1.1,0.1,1.8,0.3,2.3,0.7s0.7,1,0.7,1.6c0,0.5-0.1,0.9-0.4,1.3c-0.2,0.4-0.6,0.8-1.2,1
			c-0.5,0.3-1.2,0.4-2,0.4c-0.7,0-1.3-0.1-1.9-0.3c-0.5-0.2-1-0.5-1.3-0.9s-0.5-0.9-0.5-1.4c0-0.3,0.1-0.6,0.2-1
			c0.2-0.4,0.5-0.7,0.9-1c-0.2-0.1-0.4-0.2-0.6-0.3c-0.2-0.1-0.3-0.2-0.5-0.4v-0.4l1.4-1.3c-0.6-0.5-0.9-1.2-0.9-2.1
			c0-0.5,0.1-1,0.4-1.4c0.2-0.4,0.6-0.8,1.1-1s1-0.4,1.7-0.4c0.5,0,0.9,0.1,1.2,0.2h2.9v1l-1.5,0.1c0.3,0.4,0.5,1,0.5,1.5
			s-0.1,1-0.4,1.4c-0.2,0.4-0.6,0.8-1.1,1C46.5,141.7,45.9,141.8,45.2,141.8z M42.9,145.3c0,0.5,0.2,0.9,0.7,1.2s1,0.4,1.7,0.4
			s1.2-0.1,1.6-0.4c0.4-0.3,0.6-0.7,0.6-1.1c0-0.3-0.1-0.6-0.4-0.9s-0.9-0.5-1.6-0.5c-0.6,0-1.1-0.1-1.5-0.2
			c-0.4,0.2-0.7,0.5-0.9,0.8C43,144.9,42.9,145.1,42.9,145.3z M45.2,140.7c0.6,0,1-0.1,1.3-0.4c0.3-0.3,0.5-0.7,0.5-1.3
			c0-0.5-0.2-1-0.5-1.3s-0.8-0.4-1.3-0.4c-0.6,0-1,0.1-1.4,0.4c-0.3,0.3-0.5,0.7-0.5,1.3c0,0.5,0.2,1,0.5,1.3
			C44.2,140.5,44.7,140.7,45.2,140.7z"/>
		<path class="st1" d="M54.2,144.5c-0.8,0-1.4-0.2-2-0.5s-1.1-0.8-1.4-1.5c-0.3-0.6-0.5-1.4-0.5-2.2s0.2-1.6,0.5-2.2
			s0.8-1.1,1.4-1.4c0.6-0.3,1.3-0.5,2-0.5c0.8,0,1.4,0.2,2,0.5s1.1,0.8,1.4,1.4s0.5,1.4,0.5,2.2s-0.2,1.6-0.5,2.2
			c-0.3,0.6-0.8,1.1-1.4,1.5S55,144.5,54.2,144.5z M54.2,143.3c0.5,0,0.9-0.1,1.3-0.3c0.4-0.2,0.7-0.6,1-1c0.2-0.5,0.4-1,0.4-1.7
			s-0.1-1.2-0.4-1.7s-0.6-0.8-1-1s-0.8-0.3-1.3-0.3s-0.9,0.1-1.3,0.3c-0.4,0.2-0.7,0.6-1,1c-0.2,0.4-0.4,1-0.4,1.7s0.1,1.2,0.4,1.7
			s0.6,0.8,1,1C53.3,143.2,53.8,143.3,54.2,143.3z"/>
		<path class="st1" d="M63.7,144.5c-0.8,0-1.4-0.2-2-0.5s-1.1-0.8-1.4-1.5c-0.3-0.6-0.5-1.4-0.5-2.2s0.2-1.6,0.5-2.2
			s0.8-1.1,1.4-1.4c0.6-0.3,1.3-0.5,2-0.5c0.7,0,1.4,0.2,2,0.5s1.1,0.8,1.4,1.4s0.5,1.4,0.5,2.2s-0.2,1.6-0.5,2.2
			c-0.3,0.6-0.8,1.1-1.4,1.5S64.4,144.5,63.7,144.5z M63.7,143.3c0.5,0,0.9-0.1,1.3-0.3s0.7-0.6,1-1c0.2-0.5,0.4-1,0.4-1.7
			s-0.1-1.2-0.4-1.7c-0.2-0.5-0.6-0.8-1-1s-0.8-0.3-1.3-0.3c-0.5,0-0.9,0.1-1.3,0.3c-0.4,0.2-0.7,0.6-1,1c-0.2,0.4-0.4,1-0.4,1.7
			s0.1,1.2,0.4,1.7c0.2,0.4,0.6,0.8,1,1C62.8,143.2,63.2,143.3,63.7,143.3z"/>
		<path class="st1" d="M73.2,144.5c-0.8,0-1.5-0.2-2.1-0.5c-0.6-0.4-1.1-0.9-1.4-1.5s-0.5-1.3-0.5-2.1s0.2-1.5,0.5-2.1
			s0.8-1.1,1.4-1.5s1.3-0.5,2.1-0.5c0.7,0,1.2,0.1,1.7,0.4s0.9,0.6,1.2,1.1v-4.9h1.3v11.5h-1.2l-0.1-1.3c-0.3,0.4-0.6,0.7-1.1,1
			C74.5,144.3,73.9,144.5,73.2,144.5z M73.3,143.3c0.5,0,1-0.1,1.4-0.4c0.4-0.2,0.7-0.6,1-1c0.2-0.5,0.3-1,0.3-1.6s-0.1-1.1-0.3-1.6
			c-0.2-0.4-0.5-0.8-1-1c-0.4-0.2-0.9-0.4-1.4-0.4s-1,0.1-1.4,0.4c-0.4,0.2-0.7,0.6-1,1c-0.2,0.5-0.3,1-0.3,1.6s0.1,1.1,0.3,1.6
			c0.2,0.4,0.6,0.8,1,1C72.3,143.2,72.8,143.3,73.3,143.3z"/>
		<path class="st1" d="M84.3,144.3v-6.8h-1.2v-1.1h1.2V135c0-0.8,0.2-1.3,0.6-1.7s0.9-0.5,1.7-0.5h0.8v1.1h-0.6
			c-0.4,0-0.7,0.1-0.9,0.2c-0.2,0.2-0.3,0.4-0.3,0.8v1.3h1.9v1.1h-1.9v6.8L84.3,144.3L84.3,144.3z"/>
		<path class="st1" d="M92.5,144.5c-0.8,0-1.4-0.2-2-0.5s-1.1-0.8-1.4-1.5c-0.3-0.6-0.5-1.4-0.5-2.2s0.2-1.6,0.5-2.2
			s0.8-1.1,1.4-1.4c0.6-0.3,1.3-0.5,2-0.5c0.8,0,1.4,0.2,2,0.5s1.1,0.8,1.4,1.4s0.5,1.4,0.5,2.2s-0.2,1.6-0.5,2.2
			c-0.4,0.6-0.8,1.1-1.4,1.5C93.9,144.3,93.2,144.5,92.5,144.5z M92.5,143.3c0.5,0,0.9-0.1,1.3-0.3s0.7-0.6,1-1
			c0.2-0.5,0.4-1,0.4-1.7s-0.1-1.2-0.4-1.7c-0.2-0.5-0.6-0.8-0.9-1c-0.4-0.2-0.8-0.3-1.3-0.3s-0.9,0.1-1.3,0.3s-0.7,0.6-1,1
			c-0.2,0.4-0.4,1-0.4,1.7s0.1,1.2,0.4,1.7c0.2,0.4,0.6,0.8,0.9,1C91.6,143.2,92,143.3,92.5,143.3z"/>
		<path class="st1" d="M98.3,144.3v-7.9h1.2l0.1,1.5c0.2-0.5,0.6-0.9,1.1-1.2s1.1-0.5,1.9-0.5v1.4h-0.4c-0.5,0-0.9,0.1-1.3,0.2
			c-0.4,0.2-0.7,0.4-0.9,0.8c-0.2,0.4-0.3,0.9-0.3,1.6v4L98.3,144.3L98.3,144.3z"/>
		<path class="st1" d="M108.4,147.8v-11.5h1.2l0.1,1.3c0.3-0.4,0.6-0.7,1.1-1s1.1-0.5,1.8-0.5c0.8,0,1.5,0.2,2.1,0.5
			c0.6,0.4,1,0.9,1.4,1.5c0.3,0.6,0.5,1.3,0.5,2.1s-0.2,1.5-0.5,2.1s-0.8,1.1-1.4,1.5s-1.3,0.5-2.1,0.5c-0.6,0-1.2-0.1-1.7-0.4
			c-0.5-0.3-0.9-0.6-1.2-1.1v4.9L108.4,147.8L108.4,147.8z M112.5,143.3c0.5,0,1-0.1,1.4-0.4c0.4-0.2,0.7-0.6,1-1
			c0.2-0.5,0.3-1,0.3-1.6s-0.1-1.1-0.3-1.6c-0.2-0.4-0.6-0.8-1-1s-0.9-0.4-1.4-0.4s-1,0.1-1.4,0.4s-0.7,0.6-1,1
			c-0.2,0.5-0.3,1-0.3,1.6s0.1,1.1,0.3,1.6c0.2,0.4,0.6,0.8,1,1S111.9,143.3,112.5,143.3z"/>
		<path class="st1" d="M118.4,144.3v-7.9h1.2l0.1,1.5c0.2-0.5,0.6-0.9,1.1-1.2s1.1-0.5,1.9-0.5v1.4h-0.4c-0.5,0-0.9,0.1-1.3,0.2
			c-0.4,0.2-0.7,0.4-0.9,0.8c-0.2,0.4-0.4,0.9-0.4,1.6v4L118.4,144.3L118.4,144.3z"/>
		<path class="st1" d="M127.5,144.5c-0.8,0-1.4-0.2-2-0.5c-0.6-0.4-1.1-0.8-1.4-1.4c-0.3-0.6-0.5-1.4-0.5-2.2s0.2-1.6,0.5-2.2
			c0.3-0.6,0.8-1.1,1.4-1.5s1.3-0.5,2.1-0.5s1.4,0.2,2,0.5c0.6,0.4,1,0.8,1.3,1.4c0.3,0.6,0.4,1.2,0.4,1.8c0,0.1,0,0.2,0,0.4
			c0,0.1,0,0.2,0,0.4H125c0,0.6,0.2,1.1,0.4,1.5s0.6,0.7,0.9,0.9c0.4,0.2,0.8,0.3,1.2,0.3c0.6,0,1-0.1,1.4-0.4
			c0.4-0.3,0.7-0.6,0.8-1h1.3c-0.2,0.7-0.6,1.4-1.2,1.8C129.2,144.2,128.4,144.5,127.5,144.5z M127.5,137.3c-0.6,0-1.2,0.2-1.7,0.6
			c-0.5,0.4-0.8,1-0.9,1.7h5c0-0.7-0.3-1.3-0.7-1.7C128.7,137.5,128.1,137.3,127.5,137.3z"/>
		<path class="st1" d="M135.9,144.3c-0.7,0-1.3-0.2-1.7-0.5c-0.4-0.4-0.6-1-0.6-1.9v-4.4h-1.4v-1.1h1.4l0.2-1.9h1.2v1.9h2.3v1.1H135
			v4.4c0,0.5,0.1,0.8,0.3,1s0.6,0.3,1.1,0.3h0.8v1.1L135.9,144.3L135.9,144.3z"/>
		<path class="st1" d="M142.1,144.3c-0.7,0-1.3-0.2-1.7-0.5c-0.4-0.4-0.6-1-0.6-1.9v-4.4h-1.4v-1.1h1.4l0.2-1.9h1.2v1.9h2.3v1.1
			h-2.3v4.4c0,0.5,0.1,0.8,0.3,1s0.6,0.3,1.1,0.3h0.8v1.1L142.1,144.3L142.1,144.3z"/>
		<path class="st1" d="M146,147.8l2-4.3h-0.5l-3.1-7.2h1.5l2.6,6.2l2.8-6.2h1.4l-5.2,11.5H146z"/>
		<path class="st1" d="M26,166.3v-7.9h1.2l0.1,1.1c0.3-0.4,0.6-0.8,1-1s0.9-0.4,1.4-0.4c0.6,0,1.2,0.1,1.6,0.4s0.8,0.6,1,1.2
			c0.3-0.5,0.7-0.9,1.1-1.1s1-0.4,1.6-0.4c1,0,1.7,0.3,2.3,0.9c0.6,0.6,0.8,1.4,0.8,2.6v4.6h-1.3v-4.5c0-0.8-0.2-1.4-0.5-1.9
			c-0.3-0.4-0.8-0.6-1.4-0.6c-0.6,0-1.2,0.2-1.6,0.7c-0.4,0.5-0.6,1.2-0.6,2.1v4.1h-1.2v-4.5c0-0.8-0.2-1.4-0.5-1.9
			c-0.3-0.4-0.8-0.6-1.4-0.6s-1.2,0.2-1.6,0.7s-0.6,1.2-0.6,2.1v4.1L26,166.3L26,166.3z"/>
		<path class="st1" d="M43.2,166.5c-0.9,0-1.7-0.3-2.2-0.9s-0.8-1.4-0.8-2.6v-4.6h1.3v4.5c0,1.6,0.7,2.5,2,2.5
			c0.7,0,1.3-0.2,1.7-0.7s0.7-1.2,0.7-2.1v-4.1h1.3v7.9H46l-0.1-1.4c-0.2,0.5-0.6,0.9-1.1,1.2C44.4,166.3,43.8,166.5,43.2,166.5z"/>
		<path class="st1" d="M53.2,166.5c-0.8,0-1.4-0.2-2-0.5s-1.1-0.8-1.4-1.5c-0.3-0.6-0.5-1.4-0.5-2.2s0.2-1.6,0.5-2.2
			c0.3-0.6,0.8-1.1,1.4-1.5s1.3-0.5,2-0.5c0.9,0,1.7,0.2,2.4,0.7s1.1,1.1,1.2,2h-1.4c-0.1-0.5-0.4-0.9-0.8-1.1
			c-0.4-0.3-0.9-0.4-1.5-0.4c-0.5,0-0.9,0.1-1.3,0.3s-0.7,0.6-1,1c-0.2,0.4-0.4,1-0.4,1.7s0.1,1.2,0.4,1.7c0.2,0.5,0.6,0.8,1,1
			s0.8,0.3,1.3,0.3s1-0.1,1.5-0.4s0.7-0.7,0.8-1.2h1.4c-0.2,0.8-0.6,1.5-1.2,2C54.9,166.2,54.1,166.5,53.2,166.5z"/>
		<path class="st1" d="M58.6,166.3v-11.5h1.3v4.9c0.3-0.5,0.6-0.9,1.1-1.1c0.5-0.3,1-0.4,1.6-0.4c0.9,0,1.7,0.3,2.2,0.9
			c0.5,0.6,0.8,1.5,0.8,2.6v4.6h-1.3v-4.5c0-1.6-0.7-2.5-2-2.5c-0.7,0-1.3,0.2-1.7,0.7c-0.5,0.5-0.7,1.2-0.7,2.1v4.1L58.6,166.3
			L58.6,166.3z"/>
		<path class="st1" d="M75.6,166.5c-0.8,0-1.4-0.2-2-0.5c-0.6-0.4-1-0.8-1.4-1.4c-0.3-0.6-0.5-1.4-0.5-2.2s0.2-1.6,0.5-2.2
			c0.3-0.6,0.8-1.1,1.4-1.5s1.3-0.5,2.1-0.5c0.8,0,1.4,0.2,2,0.5s1,0.8,1.3,1.4c0.3,0.6,0.4,1.2,0.4,1.8c0,0.1,0,0.2,0,0.4
			c0,0.1,0,0.2,0,0.4h-6.3c0,0.6,0.2,1.1,0.4,1.5s0.6,0.7,0.9,0.9s0.8,0.3,1.2,0.3c0.6,0,1-0.1,1.4-0.4c0.4-0.3,0.6-0.6,0.8-1h1.3
			c-0.2,0.7-0.6,1.4-1.2,1.8C77.3,166.2,76.5,166.5,75.6,166.5z M75.6,159.3c-0.6,0-1.2,0.2-1.7,0.6c-0.5,0.4-0.8,1-0.9,1.7h5
			c0-0.7-0.3-1.3-0.7-1.7C76.8,159.5,76.3,159.3,75.6,159.3z"/>
		<path class="st1" d="M83.1,166.3l-3-7.9h1.4l2.4,6.6l2.4-6.6h1.4l-3,7.9H83.1z"/>
		<path class="st1" d="M92.3,166.5c-0.8,0-1.4-0.2-2-0.5c-0.6-0.4-1-0.8-1.4-1.4c-0.3-0.6-0.5-1.4-0.5-2.2s0.2-1.6,0.5-2.2
			c0.3-0.6,0.8-1.1,1.4-1.5s1.3-0.5,2.1-0.5c0.8,0,1.4,0.2,2,0.5c0.6,0.4,1,0.8,1.3,1.4c0.3,0.6,0.4,1.2,0.4,1.8c0,0.1,0,0.2,0,0.4
			c0,0.1,0,0.2,0,0.4h-6.3c0,0.6,0.2,1.1,0.4,1.5s0.6,0.7,0.9,0.9c0.4,0.2,0.8,0.3,1.2,0.3c0.5,0,1-0.1,1.4-0.4
			c0.4-0.3,0.6-0.6,0.8-1h1.3c-0.2,0.7-0.6,1.4-1.2,1.8C94,166.2,93.2,166.5,92.3,166.5z M92.3,159.3c-0.6,0-1.2,0.2-1.7,0.6
			c-0.5,0.4-0.8,1-0.9,1.7h5c0-0.7-0.3-1.3-0.7-1.7C93.5,159.5,93,159.3,92.3,159.3z"/>
		<path class="st1" d="M97.8,166.3v-7.9H99l0.1,1.5c0.2-0.5,0.6-0.9,1.1-1.2s1.1-0.5,1.9-0.5v1.4h-0.4c-0.5,0-0.9,0.1-1.3,0.2
			c-0.4,0.2-0.7,0.4-0.9,0.8c-0.2,0.4-0.3,0.9-0.3,1.6v4L97.8,166.3L97.8,166.3z"/>
		<path class="st1" d="M104.5,169.8l2-4.3H106l-3.1-7.2h1.5l2.6,6.2l2.8-6.2h1.4l-5.2,11.5H104.5z"/>
		<path class="st1" d="M115.7,166.3c-0.7,0-1.3-0.2-1.7-0.5c-0.4-0.4-0.6-1-0.6-1.9v-4.4H112v-1.1h1.4l0.2-1.9h1.2v1.9h2.3v1.1h-2.3
			v4.4c0,0.5,0.1,0.8,0.3,1c0.2,0.2,0.6,0.3,1.1,0.3h0.8v1.1L115.7,166.3L115.7,166.3z"/>
		<path class="st1" d="M118.7,166.3v-11.5h1.3v4.9c0.3-0.5,0.6-0.9,1.1-1.1c0.5-0.3,1-0.4,1.6-0.4c0.9,0,1.7,0.3,2.2,0.9
			c0.6,0.6,0.8,1.5,0.8,2.6v4.6h-1.2v-4.5c0-1.6-0.7-2.5-2-2.5c-0.7,0-1.3,0.2-1.7,0.7c-0.5,0.5-0.7,1.2-0.7,2.1v4.1L118.7,166.3
			L118.7,166.3z"/>
		<path class="st1" d="M128.7,156.6c-0.3,0-0.5-0.1-0.7-0.3s-0.3-0.4-0.3-0.7s0.1-0.5,0.3-0.6c0.2-0.2,0.4-0.3,0.7-0.3
			s0.5,0.1,0.7,0.3s0.3,0.4,0.3,0.6c0,0.3-0.1,0.5-0.3,0.7S128.9,156.6,128.7,156.6z M128,166.3v-7.9h1.3v7.9H128z"/>
		<path class="st1" d="M131.7,166.3v-7.9h1.2l0.1,1.4c0.3-0.5,0.6-0.9,1.1-1.2s1-0.4,1.6-0.4c0.9,0,1.7,0.3,2.2,0.9
			c0.6,0.6,0.8,1.5,0.8,2.6v4.6h-1.2v-4.5c0-1.6-0.7-2.5-2.1-2.5c-0.7,0-1.2,0.2-1.7,0.7s-0.7,1.2-0.7,2.1v4.1L131.7,166.3
			L131.7,166.3z"/>
		<path class="st1" d="M144,163.8c-0.5,0-0.9-0.1-1.2-0.2l-0.8,0.8c0.1,0.1,0.3,0.2,0.4,0.2c0.2,0.1,0.4,0.1,0.8,0.2
			c0.3,0.1,0.8,0.1,1.4,0.2c1.1,0.1,1.8,0.3,2.3,0.7s0.7,1,0.7,1.6c0,0.5-0.1,0.9-0.4,1.3c-0.3,0.4-0.6,0.8-1.1,1
			c-0.5,0.3-1.2,0.4-2,0.4c-0.7,0-1.3-0.1-1.9-0.3s-1-0.5-1.3-0.9s-0.5-0.9-0.5-1.4c0-0.3,0.1-0.6,0.2-1s0.5-0.7,0.9-1
			c-0.2-0.1-0.4-0.2-0.6-0.3c-0.2-0.1-0.3-0.2-0.5-0.4v-0.4l1.4-1.3c-0.6-0.5-0.9-1.2-0.9-2.1c0-0.5,0.1-1,0.4-1.4
			c0.2-0.4,0.6-0.8,1.1-1s1-0.4,1.7-0.4c0.5,0,0.9,0.1,1.2,0.2h2.9v1l-1.5,0.1c0.3,0.4,0.5,1,0.5,1.5s-0.1,1-0.4,1.4
			c-0.2,0.4-0.6,0.8-1.1,1C145.2,163.7,144.7,163.8,144,163.8z M141.7,167.3c0,0.5,0.2,0.9,0.7,1.2s1,0.4,1.7,0.4s1.2-0.1,1.6-0.4
			c0.4-0.3,0.6-0.7,0.6-1.1c0-0.3-0.1-0.6-0.4-0.9s-0.8-0.4-1.5-0.4c-0.6,0-1.1-0.1-1.5-0.2c-0.4,0.2-0.7,0.5-0.9,0.8
			C141.7,166.9,141.7,167.1,141.7,167.3z M144,162.7c0.6,0,1-0.1,1.3-0.4c0.3-0.3,0.5-0.7,0.5-1.3c0-0.5-0.2-1-0.5-1.3
			s-0.8-0.4-1.3-0.4c-0.6,0-1,0.1-1.4,0.4c-0.3,0.3-0.5,0.7-0.5,1.3c0,0.5,0.2,1,0.5,1.3C143,162.5,143.4,162.7,144,162.7z"/>
		<path class="st1" d="M148.6,168.2l0.9-3.5h1.4l-1.4,3.5H148.6z"/>
		<path class="st1" d="M159.4,166.5c-0.7,0-1.2-0.1-1.6-0.3c-0.4-0.2-0.8-0.5-1-0.9s-0.3-0.8-0.3-1.2c0-0.8,0.3-1.4,0.9-1.9
			c0.6-0.4,1.5-0.7,2.5-0.7h2.1v-0.1c0-0.7-0.2-1.2-0.5-1.6c-0.4-0.4-0.9-0.5-1.5-0.5c-0.5,0-1,0.1-1.4,0.4s-0.6,0.6-0.7,1.1h-1.4
			c0-0.6,0.2-1.1,0.6-1.5c0.3-0.4,0.8-0.7,1.3-0.9s1-0.3,1.6-0.3c1.1,0,1.9,0.3,2.5,0.9c0.6,0.6,0.8,1.4,0.8,2.4v4.9h-1.2l-0.1-1.4
			c-0.2,0.5-0.6,0.8-1,1.1C160.7,166.3,160.1,166.5,159.4,166.5z M159.6,165.3c0.5,0,0.9-0.1,1.3-0.4c0.4-0.3,0.7-0.6,0.8-1
			c0.2-0.4,0.3-0.9,0.3-1.3l0,0h-2c-0.8,0-1.4,0.1-1.7,0.4c-0.3,0.3-0.5,0.6-0.5,1s0.1,0.8,0.5,1
			C158.6,165.2,159.1,165.3,159.6,165.3z"/>
		<path class="st1" d="M165.4,166.3v-7.9h1.2l0.1,1.4c0.3-0.5,0.6-0.9,1.1-1.2s1-0.4,1.6-0.4c0.9,0,1.7,0.3,2.2,0.9
			c0.6,0.6,0.8,1.5,0.8,2.6v4.6h-1.3v-4.5c0-1.6-0.7-2.5-2.1-2.5c-0.7,0-1.2,0.2-1.7,0.7s-0.7,1.2-0.7,2.1v4.1L165.4,166.3
			L165.4,166.3z"/>
		<path class="st1" d="M178.2,166.5c-0.8,0-1.5-0.2-2.1-0.5c-0.6-0.4-1-0.9-1.4-1.5c-0.3-0.6-0.5-1.3-0.5-2.1s0.2-1.5,0.5-2.1
			s0.8-1.1,1.4-1.5c0.6-0.4,1.3-0.5,2.1-0.5c0.6,0,1.2,0.1,1.7,0.4s0.9,0.6,1.2,1.1v-4.9h1.3v11.5h-1.2l-0.1-1.3
			c-0.3,0.4-0.6,0.7-1.1,1C179.5,166.3,178.9,166.5,178.2,166.5z M178.3,165.3c0.5,0,1-0.1,1.4-0.4s0.7-0.6,1-1
			c0.2-0.5,0.3-1,0.3-1.6s-0.1-1.1-0.3-1.6c-0.2-0.4-0.6-0.8-1-1s-0.9-0.4-1.4-0.4s-1,0.1-1.4,0.4c-0.4,0.2-0.7,0.6-1,1
			c-0.2,0.5-0.3,1-0.3,1.6s0.1,1.1,0.3,1.6c0.2,0.4,0.6,0.8,1,1C177.3,165.2,177.8,165.3,178.3,165.3z"/>
		<path class="st1" d="M29.1,188.5c-1,0-1.7-0.2-2.4-0.7c-0.6-0.5-1-1.1-1.1-2H27c0.1,0.4,0.3,0.8,0.7,1.1c0.4,0.3,0.8,0.5,1.5,0.5
			c0.6,0,1-0.1,1.2-0.4c0.3-0.2,0.4-0.5,0.4-0.9c0-0.5-0.2-0.8-0.5-1c-0.4-0.2-0.8-0.3-1.5-0.4c-0.4-0.1-0.8-0.2-1.3-0.4
			s-0.8-0.4-1.1-0.7s-0.4-0.7-0.4-1.2c0-0.7,0.3-1.3,0.8-1.7s1.2-0.7,2.1-0.7c0.8,0,1.5,0.2,2.1,0.6c0.5,0.4,0.8,1,0.9,1.8h-1.4
			c0-0.4-0.2-0.7-0.5-1c-0.3-0.2-0.7-0.3-1.2-0.3s-0.8,0.1-1.1,0.3c-0.3,0.2-0.4,0.5-0.4,0.8s0.2,0.6,0.5,0.8s0.8,0.3,1.4,0.5
			c0.5,0.1,1,0.2,1.4,0.4c0.4,0.1,0.8,0.4,1.1,0.7s0.4,0.7,0.4,1.3c0,0.7-0.3,1.3-0.8,1.8C30.7,188.2,30,188.5,29.1,188.5z"/>
		<path class="st1" d="M34,188.3v-11.5h1.3v11.5H34z"/>
		<path class="st1" d="M41.2,188.5c-0.8,0-1.4-0.2-2-0.5s-1-0.8-1.4-1.4c-0.3-0.6-0.5-1.4-0.5-2.2s0.2-1.6,0.5-2.2
			c0.3-0.6,0.8-1.1,1.4-1.5s1.3-0.5,2.1-0.5s1.4,0.2,2,0.5s1,0.8,1.3,1.4c0.3,0.6,0.4,1.2,0.4,1.8c0,0.1,0,0.2,0,0.4
			c0,0.1,0,0.2,0,0.4h-6.3c0,0.6,0.2,1.1,0.4,1.5s0.6,0.7,0.9,0.9c0.4,0.2,0.8,0.3,1.2,0.3c0.5,0,1-0.1,1.4-0.4
			c0.4-0.3,0.6-0.6,0.8-1h1.3c-0.2,0.7-0.6,1.4-1.2,1.8C42.9,188.2,42.1,188.5,41.2,188.5z M41.2,181.3c-0.6,0-1.2,0.2-1.7,0.6
			c-0.5,0.4-0.8,1-0.9,1.7h5c0-0.7-0.3-1.3-0.7-1.7C42.4,181.5,41.8,181.3,41.2,181.3z"/>
		<path class="st1" d="M50.3,188.5c-0.8,0-1.4-0.2-2-0.5c-0.6-0.4-1.1-0.8-1.4-1.4c-0.3-0.6-0.5-1.4-0.5-2.2s0.2-1.6,0.5-2.2
			c0.3-0.6,0.8-1.1,1.4-1.5c0.6-0.4,1.3-0.5,2.1-0.5s1.4,0.2,2,0.5s1,0.8,1.3,1.4c0.3,0.6,0.4,1.2,0.4,1.8c0,0.1,0,0.2,0,0.4
			c0,0.1,0,0.2,0,0.4h-6.3c0,0.6,0.2,1.1,0.4,1.5s0.6,0.7,0.9,0.9c0.4,0.2,0.8,0.3,1.2,0.3c0.6,0,1-0.1,1.4-0.4
			c0.4-0.3,0.6-0.6,0.8-1h1.3c-0.2,0.7-0.6,1.4-1.2,1.8C52,188.2,51.2,188.5,50.3,188.5z M50.3,181.3c-0.6,0-1.2,0.2-1.7,0.6
			c-0.5,0.4-0.8,1-0.9,1.7h5c0-0.7-0.3-1.3-0.7-1.7C51.5,181.5,50.9,181.3,50.3,181.3z"/>
		<path class="st1" d="M55.8,191.8v-11.5H57l0.1,1.3c0.3-0.4,0.6-0.7,1.1-1s1.1-0.5,1.8-0.5c0.8,0,1.5,0.2,2.1,0.5
			c0.6,0.4,1,0.9,1.4,1.5c0.3,0.6,0.5,1.3,0.5,2.1s-0.2,1.5-0.5,2.1s-0.8,1.1-1.4,1.5s-1.3,0.5-2.1,0.5c-0.7,0-1.2-0.1-1.7-0.4
			c-0.5-0.3-0.9-0.6-1.2-1.1v4.9L55.8,191.8L55.8,191.8z M59.9,187.3c0.5,0,1-0.1,1.4-0.4c0.4-0.2,0.7-0.6,1-1
			c0.2-0.5,0.3-1,0.3-1.6s-0.1-1.1-0.3-1.6c-0.2-0.4-0.6-0.8-1-1s-0.9-0.4-1.4-0.4s-1,0.1-1.4,0.4c-0.4,0.2-0.7,0.6-1,1
			c-0.2,0.5-0.3,1-0.3,1.6s0.1,1.1,0.3,1.6c0.2,0.4,0.5,0.8,1,1C58.9,187.2,59.3,187.3,59.9,187.3z"/>
		<path class="st1" d="M70.9,178.6c-0.3,0-0.5-0.1-0.7-0.3s-0.3-0.4-0.3-0.7s0.1-0.5,0.3-0.6c0.2-0.2,0.4-0.3,0.7-0.3
			s0.5,0.1,0.7,0.3s0.3,0.4,0.3,0.6c0,0.3-0.1,0.5-0.3,0.7C71.4,178.5,71.2,178.6,70.9,178.6z M70.2,188.3v-7.9h1.3v7.9H70.2z"/>
		<path class="st1" d="M76.9,188.5c-1,0-1.7-0.2-2.4-0.7c-0.6-0.5-1-1.1-1.1-2h1.4c0.1,0.4,0.3,0.8,0.7,1.1c0.3,0.3,0.8,0.5,1.4,0.5
			s1-0.1,1.2-0.4c0.3-0.2,0.4-0.5,0.4-0.9c0-0.5-0.2-0.8-0.5-1s-0.8-0.3-1.5-0.4c-0.4-0.1-0.8-0.2-1.3-0.4s-0.8-0.4-1.1-0.7
			s-0.4-0.7-0.4-1.2c0-0.7,0.3-1.3,0.8-1.7s1.2-0.7,2.1-0.7c0.8,0,1.5,0.2,2.1,0.6c0.5,0.4,0.8,1,0.9,1.8h-1.3
			c-0.1-0.4-0.2-0.7-0.5-1c-0.3-0.2-0.7-0.3-1.2-0.3s-0.8,0.1-1.1,0.3c-0.3,0.2-0.4,0.5-0.4,0.8s0.2,0.6,0.5,0.8s0.8,0.3,1.4,0.5
			c0.5,0.1,1,0.2,1.4,0.4c0.4,0.1,0.8,0.4,1.1,0.7c0.3,0.3,0.4,0.7,0.4,1.3c0,0.7-0.3,1.3-0.8,1.8C78.6,188.2,77.9,188.5,76.9,188.5
			z"/>
		<path class="st1" d="M86.1,188.3v-7.9h1.2l0.1,1.4c0.3-0.5,0.6-0.9,1.1-1.2s1-0.4,1.6-0.4c0.9,0,1.7,0.3,2.2,0.9
			c0.6,0.6,0.8,1.5,0.8,2.6v4.6h-1.3v-4.5c0-1.6-0.7-2.5-2-2.5c-0.7,0-1.2,0.2-1.7,0.7c-0.4,0.5-0.7,1.2-0.7,2.1v4.1L86.1,188.3
			L86.1,188.3z"/>
		<path class="st1" d="M98.9,188.5c-0.8,0-1.4-0.2-2-0.5s-1.1-0.8-1.4-1.5c-0.3-0.6-0.5-1.4-0.5-2.2s0.2-1.6,0.5-2.2
			c0.3-0.6,0.8-1.1,1.4-1.4c0.6-0.3,1.3-0.5,2-0.5c0.8,0,1.4,0.2,2,0.5s1.1,0.8,1.4,1.4c0.3,0.6,0.5,1.4,0.5,2.2s-0.2,1.6-0.5,2.2
			c-0.3,0.6-0.8,1.1-1.4,1.5S99.7,188.5,98.9,188.5z M98.9,187.3c0.5,0,0.9-0.1,1.3-0.3s0.7-0.6,1-1c0.2-0.5,0.4-1,0.4-1.7
			s-0.1-1.2-0.4-1.7c-0.2-0.5-0.6-0.8-1-1s-0.8-0.3-1.3-0.3s-0.9,0.1-1.3,0.3s-0.7,0.6-1,1c-0.2,0.4-0.4,1-0.4,1.7s0.1,1.2,0.4,1.7
			c0.2,0.4,0.6,0.8,1,1S98.5,187.3,98.9,187.3z"/>
		<path class="st1" d="M112.6,188.5c-0.8,0-1.5-0.2-2.1-0.5c-0.6-0.4-1.1-0.9-1.4-1.5s-0.5-1.3-0.5-2.1s0.2-1.5,0.5-2.1
			s0.8-1.1,1.4-1.5s1.3-0.5,2.1-0.5c0.7,0,1.2,0.1,1.7,0.4s0.9,0.6,1.2,1.1v-4.9h1.3v11.5h-1.2l-0.1-1.4c-0.3,0.4-0.6,0.7-1.1,1
			S113.3,188.5,112.6,188.5z M112.7,187.3c0.5,0,1-0.1,1.4-0.4c0.4-0.2,0.7-0.6,1-1c0.2-0.5,0.3-1,0.3-1.6s-0.1-1.1-0.3-1.6
			c-0.2-0.4-0.6-0.8-1-1s-0.9-0.4-1.4-0.4s-1,0.1-1.4,0.4c-0.4,0.2-0.7,0.6-1,1c-0.2,0.5-0.3,1-0.3,1.6s0.1,1.1,0.3,1.6
			c0.2,0.4,0.6,0.8,1,1C111.8,187.2,112.2,187.3,112.7,187.3z"/>
		<path class="st1" d="M119.9,178.6c-0.3,0-0.5-0.1-0.7-0.3s-0.3-0.4-0.3-0.7s0.1-0.5,0.3-0.6c0.2-0.2,0.4-0.3,0.7-0.3
			c0.3,0,0.5,0.1,0.7,0.3s0.3,0.4,0.3,0.6c0,0.3-0.1,0.5-0.3,0.7C120.3,178.5,120.1,178.6,119.9,178.6z M119.2,188.3v-7.9h1.3v7.9
			H119.2z"/>
		<path class="st1" d="M123.3,188.3v-6.8h-1.2v-1.1h1.2V179c0-0.8,0.2-1.3,0.6-1.7s0.9-0.5,1.7-0.5h0.8v1.1h-0.6
			c-0.4,0-0.7,0.1-0.9,0.2c-0.2,0.2-0.3,0.4-0.3,0.8v1.3h1.9v1.1h-1.9v6.8L123.3,188.3L123.3,188.3z"/>
		<path class="st1" d="M128.6,188.3v-6.8h-1.2v-1.1h1.2V179c0-0.8,0.2-1.3,0.6-1.7c0.4-0.4,0.9-0.5,1.7-0.5h0.8v1.1h-0.6
			c-0.4,0-0.7,0.1-0.9,0.2c-0.2,0.2-0.3,0.4-0.3,0.8v1.3h1.9v1.1h-1.9v6.8L128.6,188.3L128.6,188.3z"/>
		<path class="st1" d="M136.8,188.5c-0.8,0-1.4-0.2-2-0.5c-0.6-0.4-1-0.8-1.4-1.4c-0.3-0.6-0.5-1.4-0.5-2.2s0.2-1.6,0.5-2.2
			c0.3-0.6,0.8-1.1,1.4-1.5c0.6-0.4,1.3-0.5,2.1-0.5s1.4,0.2,2,0.5s1,0.8,1.3,1.4c0.3,0.6,0.4,1.2,0.4,1.8c0,0.1,0,0.2,0,0.4
			c0,0.1,0,0.2,0,0.4h-6.3c0,0.6,0.2,1.1,0.4,1.5s0.6,0.7,0.9,0.9c0.4,0.2,0.8,0.3,1.2,0.3c0.6,0,1-0.1,1.4-0.4
			c0.4-0.3,0.6-0.6,0.8-1h1.3c-0.2,0.7-0.6,1.4-1.2,1.8C138.5,188.2,137.7,188.5,136.8,188.5z M136.8,181.3c-0.6,0-1.2,0.2-1.7,0.6
			c-0.5,0.4-0.8,1-0.9,1.7h5c0-0.7-0.3-1.3-0.7-1.7C138,181.5,137.4,181.3,136.8,181.3z"/>
		<path class="st1" d="M142.3,188.3v-7.9h1.2l0.1,1.5c0.2-0.5,0.6-0.9,1.1-1.2s1.1-0.5,1.9-0.5v1.4h-0.4c-0.5,0-0.9,0.1-1.3,0.2
			c-0.4,0.2-0.7,0.4-0.9,0.8c-0.2,0.4-0.3,0.9-0.3,1.6v4L142.3,188.3L142.3,188.3z"/>
		<path class="st1" d="M151.4,188.5c-0.8,0-1.4-0.2-2-0.5c-0.6-0.4-1-0.8-1.4-1.4c-0.3-0.6-0.5-1.4-0.5-2.2s0.2-1.6,0.5-2.2
			c0.3-0.6,0.8-1.1,1.4-1.5c0.6-0.4,1.3-0.5,2.1-0.5s1.4,0.2,2,0.5s1,0.8,1.3,1.4c0.3,0.6,0.4,1.2,0.4,1.8c0,0.1,0,0.2,0,0.4
			c0,0.1,0,0.2,0,0.4h-6.3c0,0.6,0.2,1.1,0.4,1.5s0.6,0.7,0.9,0.9c0.4,0.2,0.8,0.3,1.2,0.3c0.6,0,1-0.1,1.4-0.4
			c0.4-0.3,0.6-0.6,0.8-1h1.3c-0.2,0.7-0.6,1.4-1.2,1.8C153.1,188.2,152.3,188.5,151.4,188.5z M151.4,181.3c-0.6,0-1.2,0.2-1.7,0.6
			c-0.5,0.4-0.8,1-0.9,1.7h5c0-0.7-0.3-1.3-0.7-1.7C152.6,181.5,152.1,181.3,151.4,181.3z"/>
		<path class="st1" d="M156.9,188.3v-7.9h1.2l0.1,1.4c0.3-0.5,0.6-0.9,1.1-1.2s1-0.4,1.6-0.4c0.9,0,1.7,0.3,2.2,0.9
			c0.6,0.6,0.8,1.5,0.8,2.6v4.6h-1.3v-4.5c0-1.6-0.7-2.5-2.1-2.5c-0.7,0-1.2,0.2-1.7,0.7c-0.4,0.5-0.7,1.2-0.7,2.1v4.1L156.9,188.3
			L156.9,188.3z"/>
		<path class="st1" d="M169.2,188.3c-0.7,0-1.3-0.2-1.7-0.5c-0.4-0.4-0.6-1-0.6-1.9v-4.4h-1.4v-1.1h1.4l0.2-1.9h1.2v1.9h2.3v1.1
			h-2.3v4.4c0,0.5,0.1,0.8,0.3,1s0.6,0.3,1.1,0.3h0.8v1.1L169.2,188.3L169.2,188.3z"/>
		<path class="st1" d="M173.2,188.4c-0.3,0-0.5-0.1-0.7-0.3s-0.3-0.4-0.3-0.6c0-0.3,0.1-0.5,0.3-0.6c0.2-0.2,0.4-0.3,0.7-0.3
			s0.5,0.1,0.6,0.3c0.2,0.2,0.3,0.4,0.3,0.6c0,0.3-0.1,0.5-0.3,0.6C173.6,188.3,173.4,188.4,173.2,188.4z M172.6,185.2l-0.2-8.1h1.5
			l-0.2,8.1H172.6z"/>
		<path class="st2" d="M29,96.2c0.4-0.1,0.9-0.1,1.6-0.1c1.5,0,2.4,0.1,2.8,0.3c0.3,0.1,0.5,0.5,0.5,1c0,0.4-0.1,0.8-0.4,1
			s-0.7,0.4-1.1,0.4c-0.4,0-0.7,0.1-0.8,0.3c-0.1,0.2-0.2,0.7-0.2,1.4c0,0.2,0,0.9,0.1,2.1c0.1,1.5,0.2,2.5,0.3,2.9s0.4,0.6,0.8,0.6
			c0.1,0,0.4,0,0.8-0.1c0,0,0.1,0,0.2,0c0.1,0,0.1,0,0.2,0c0.3,0,0.6,0.2,1,0.5l0.6,0.5l-0.5,0.6c-0.3,0.4-0.9,0.7-1.7,1
			c-0.7,0.2-1.1,0.4-1.2,0.5c-0.1,0.1-0.2,0.4-0.2,0.8c0,0.1,0,0.2,0,0.4c0,0.2,0,0.3,0,0.5c0,1.9,0.1,3.1,0.3,3.7
			c0.1,0.2,0.2,0.4,0.3,0.4c0.1,0.1,0.4,0.1,0.9,0.1c0.6,0,1.1,0.1,1.6,0.4s0.6,0.6,0.6,0.9s-0.2,0.7-0.8,1.1
			c-0.5,0.4-1.1,0.6-1.7,0.7c-0.5,0.1-1.1,0.2-1.6,0.2c-0.6,0-1.2-0.1-1.9-0.3c-0.5-0.1-0.8-0.2-0.9-0.3c-0.2-0.1-0.3-0.4-0.5-1
			s-0.2-1.2-0.2-2.1c0-0.8,0-2.2-0.1-4.1c0-0.2,0-0.4,0-0.5c-0.1-4.8-0.1-8-0.2-9.7c0-0.5,0-1,0-1.7c0-0.8,0.1-1.4,0.3-1.6
			C27.9,96.5,28.3,96.3,29,96.2z"/>
		<path class="st2" d="M43,98.7c0.7-0.7,1.8-1.1,3.3-1.1c0.6,0,1.2,0.1,1.6,0.3c0.6,0.3,1,1.1,1.3,2.3c0.2,1.1,0.4,2.9,0.7,5.4
			c0.3,2.6,0.5,4.5,0.5,5.9c0,1.3,0.1,2.8,0.3,4.4s0.3,2.5,0.4,2.7c0,0,0,0.1,0,0.2c0,0.2-0.1,0.6-0.3,0.9c-0.2,0.4-0.4,0.6-0.6,0.6
			c-0.1,0-0.2,0-0.4,0c-0.4,0-0.9-0.1-1.4-0.3c-0.5-0.2-0.8-0.4-0.9-0.6s-0.2-1-0.4-2.3s-0.2-2.4-0.2-3.2c0-0.8-0.1-1.2-0.2-1.3
			c-0.1-0.1-0.8-0.1-1.9-0.1c-1,0-1.4,0-1.5,0.1c0,0.1,0,0.3,0,0.5c0,0.6,0,1.3,0.1,2.3c0.1,1.1,0.1,2,0.1,2.7v0.4
			c0,0.2-0.2,0.4-0.6,0.5c-0.4,0.2-0.7,0.2-1.1,0.2c-0.2,0-0.3,0-0.4,0c-1-0.3-1.5-0.7-1.6-1.2c0,0,0-0.1,0-0.2s0-0.2,0-0.3
			c0-1.2,0.1-3.7,0.4-7.6s0.5-6.1,0.6-6.7c0.2-0.8,0.5-1.6,1-2.6C42.2,99.7,42.6,99.1,43,98.7z M45.9,103c-0.2-0.8-0.4-1.2-0.6-1.2
			c-0.2,0-0.4,0.3-0.7,0.9c-0.5,1.1-0.9,2.7-1,4.6c-0.1,0.8-0.1,1.3-0.1,1.4c0,0.4,0.1,0.6,0.2,0.7c0.1,0.1,0.5,0.2,1.1,0.2
			c0.8,0,1.3-0.1,1.4-0.2c0.1-0.1,0.1-0.4,0.1-1.1C46.3,106.3,46.2,104.6,45.9,103z"/>
		<path class="st2" d="M56.2,94.8c0.4-0.3,1-0.5,1.9-0.5h1c1.5,0.1,2.4,0.1,2.7,0.2c0.2,0.1,0.6,0.1,1.2,0.1s1.1,0.2,1.4,0.4
			c0.3,0.2,0.4,0.6,0.4,1.1s-0.1,0.9-0.3,1.1s-0.6,0.4-1.1,0.5c-0.6,0.1-0.9,0.2-1,0.3c-0.1,0.1-0.2,2.8-0.2,8c0,3.6,0,6.1,0.1,7.6
			c0.1,1.2,0.1,1.8,0.1,1.9c0,0.6-0.1,1.1-0.4,1.5c-0.3,0.6-0.8,0.8-1.4,0.8c-0.4,0-0.9-0.1-1.3-0.4l-0.8-0.5l0.1-9.6
			c0.1-2.5,0.1-4.9,0.1-7.4c0-1.5-0.1-2.3-0.3-2.4c-0.3-0.2-0.6-0.2-0.6-0.2c-0.1,0-0.3,0-0.5,0c-0.5,0-0.9-0.2-1.3-0.4
			c-0.3-0.3-0.5-0.6-0.5-1C55.6,95.6,55.8,95.2,56.2,94.8z"/>
		<path class="st2" d="M69.6,94.7c0.3-0.4,0.8-0.6,1.3-0.6s0.9,0.2,1.3,0.6l0.6,0.5l0.2,9.5c0.1,5.2,0.2,8.2,0.2,9c0,0.4,0,0.8,0,1
			c0,0.3,0,0.5,0,0.7s-0.1,0.3-0.1,0.4S73,116,73,116s-0.1,0.1-0.2,0.1c-0.1,0.1-0.2,0.1-0.2,0.1c-0.3,0.2-0.6,0.3-0.8,0.3
			c-0.1,0-0.4-0.1-0.8-0.2c-0.7-0.3-1-0.5-1.1-0.7c-0.1-0.1-0.2-3.5-0.2-10.1c-0.1-6.6-0.1-9.9-0.2-10
			C69.2,95.3,69.3,95.1,69.6,94.7z"/>
		<path class="st2" d="M78.5,96.2c0.4-0.2,0.8-0.3,1.3-0.3c0.8,0,1.4,0.5,1.7,1.6c0.2,0.8,0.6,1.7,1,2.6s0.7,1.6,0.9,2.2
			c0.3,0.9,0.5,1.5,0.8,1.7c0.1,0.1,0.2,0.2,0.2,0.2c0.1,0,0.2-0.6,0.3-1.8c0.1-1.1,0.1-1.9,0.1-2.3v-0.5c0-0.2,0-0.5,0-0.8
			c0-0.7,0.2-1.2,0.5-1.6s0.8-0.6,1.6-0.6c0.5,0,0.9,0.1,1.2,0.4c0.2,0.2,0.4,0.6,0.4,1c0,0.5,0,1-0.1,1.5s-0.1,3.9-0.2,10.2
			c0,3.9-0.1,6.3-0.1,7.1c0,0.8-0.1,1.3-0.3,1.5c-0.3,0.3-0.7,0.5-1.3,0.5c-1.2,0-1.9-0.6-2.1-1.8c-0.1-0.4-0.3-1.3-0.8-2.5
			c-0.4-1.1-0.7-2.1-0.8-3c-0.2-1.1-0.6-2.7-1.2-4.6c-0.1-0.2-0.1-0.2-0.1-0.2c-0.1,0-0.2,1.2-0.2,3.5v2v2.2c0,2.3-0.1,3.6-0.2,3.9
			c-0.3,0.8-0.9,1.2-1.8,1.2c-0.5,0-1-0.2-1.3-0.6c-0.2-0.3-0.4-0.6-0.4-0.8c0-0.1,0-0.3,0.1-0.8c0.1-0.9,0.2-4.3,0.2-10.1
			c0-6.5,0.1-9.9,0.2-10.3c0.1-0.2,0.2-0.4,0.5-0.5C78.4,96.3,78.4,96.3,78.5,96.2z"/>
		<path class="st2" d="M94.5,98.2c0-0.2,0.1-0.4,0.4-0.6s0.6-0.4,1-0.5s0.6-0.3,0.7-0.4c0.1-0.2,0.3-0.2,0.5-0.2s0.6,0.2,1.3,0.6
			c0.6,0.4,1,0.8,1.1,1.2c0,0.1,0,0.2,0,0.2c0,0.3-0.4,0.6-1.2,0.9c-0.8,0.4-1.4,0.8-1.6,1.2c-0.4,0.8-0.6,2.9-0.6,6.1
			c0,1.1,0,1.9,0.1,2.4c0.3,3.7,0.6,5.7,0.8,6.1l0,0c0.2,0,0.4-1,0.4-3.1c0.1-1.2,0.1-1.9,0.2-2.3c0.1-0.5,0.1-0.9-0.2-1.2
			c-0.3-0.4-0.5-0.8-0.5-1.1c0-0.2,0.1-0.5,0.3-0.8c0.3-0.3,0.9-0.5,1.9-0.5c0.6,0,1.1,0,1.3,0.1c0.2,0.1,0.4,0.2,0.6,0.4
			c0.2,0.3,0.4,0.7,0.4,1.2s-0.1,1-0.2,1.6c-0.2,1-0.3,2.4-0.4,4.1c-0.1,2-0.4,3.3-0.7,3.9c-0.4,0.7-0.7,1.2-0.9,1.4
			c-0.3,0.2-0.7,0.5-1.4,0.7c-0.4,0.1-0.8,0.2-1.2,0.2c-0.5,0-1-0.2-1.6-0.7c-0.7-0.5-1.3-1.9-1.7-4c-0.1-0.5-0.2-0.8-0.3-1
			c-0.1-0.1-0.1-0.5-0.2-1.2c0-0.4-0.1-2.2-0.2-5.6l-0.2-4.6l0.6-1.9c0.4-1.2,0.7-2,0.9-2.3C94.4,98.5,94.5,98.4,94.5,98.2z"/>
		<path class="st2" d="M117.7,95.4c0.1,0,0.3,0,0.6,0c0.9,0,1.4,0.1,1.4,0.2s0.1,0.2,0.2,0.5c0.2,0.4,0.3,0.8,0.3,1.2
			c0,1.1,0.2,2.9,0.8,5.4c0.1,1,0.3,2,0.6,2.9c0.2,0.9,0.4,1.4,0.5,1.4s0.1-0.1,0.1-0.3c0-0.8,0.6-1.3,1.7-1.7
			c0.5-0.1,0.9-0.2,1.1-0.2c0.4,0,0.8,0.2,1,0.5s0.5,0.9,0.7,1.7c0.2,0.6,0.3,0.9,0.4,0.8c0.1-0.1,0.2-0.7,0.4-1.9s0.4-2.1,0.4-2.8
			c0.1-0.4,0.1-0.9,0.2-1.6s0.2-1.4,0.3-2.2c0.2-1.5,0.3-2.3,0.4-2.6c0.1-0.3,0.5-0.6,1-0.8c0.5-0.2,1-0.4,1.4-0.4s0.7,0.2,1,0.5
			s0.4,0.7,0.4,1.1v0.1c0,0.1,0,0.1,0,0.1c-0.7,3.8-1.3,7.4-1.7,10.9c-0.3,2.5-0.5,4.2-0.6,5.3c-0.1,1.1-0.3,2-0.5,2.8
			s-0.4,1.3-0.6,1.4c-0.2,0.2-0.5,0.3-0.8,0.3c-0.1,0-0.4,0-0.7,0c-0.9,0-1.5-0.1-1.7-0.5c-0.1-0.1-0.3-0.6-0.6-1.4
			c-0.3-0.8-0.5-1.4-0.6-1.9c-0.1-0.3-0.2-0.5-0.4-0.6c-0.1,0-0.2,0.1-0.2,0.4c0,0.5-0.2,1.1-0.4,1.8c-0.3,0.7-0.6,1.2-0.9,1.5
			s-0.6,0.5-0.9,0.5c-0.2,0-0.4,0-0.5,0c-0.9-0.2-1.5-0.5-1.8-0.9s-0.5-1.2-0.6-2.6c-1-7.2-1.7-12.3-2.2-15.1
			c-0.2-1.1-0.3-2-0.3-2.6c0-0.4,0.1-0.8,0.3-1C117.1,95.7,117.4,95.5,117.7,95.4z"/>
		<path class="st2" d="M138.7,97.2c0.3-0.1,0.8-0.1,1.3-0.1c1.5,0,2.5,0.2,2.9,0.5c0.3,0.2,0.4,0.6,0.4,0.9s-0.1,0.7-0.4,0.9
			s-0.6,0.4-1.1,0.4c-0.4,0-0.7,0.1-0.8,0.3c-0.1,0.2-0.2,0.7-0.2,1.5c0,0.2,0,0.9,0.1,2.1c0.1,1.4,0.1,2.3,0.2,2.7
			c0.1,0.4,0.2,0.6,0.3,0.7c0,0,0.2,0,0.6,0c0.3,0,0.6,0,0.8,0c0.7,0,1.2,0.2,1.5,0.5c0.2,0.2,0.3,0.4,0.3,0.6
			c0,0.4-0.6,0.9-1.8,1.3c-0.7,0.2-1.1,0.4-1.3,0.6c-0.1,0.1-0.2,0.4-0.3,0.9c-0.1,0.4-0.1,0.8-0.1,1.2c0,1.4,0.1,2.4,0.4,3.1
			c0.1,0.3,0.2,0.5,0.4,0.5c0.1,0.1,0.4,0.1,0.9,0.1c0.6,0,1.1,0.1,1.5,0.4s0.6,0.6,0.6,0.9c0,0.2-0.2,0.6-0.6,1
			c-0.7,0.6-1.8,1-3.4,1c-1.6,0-2.7-0.3-3.2-1.1c-0.3-0.4-0.4-2.8-0.5-7.2c-0.1-5.5-0.1-8.8-0.2-9.7l-0.1-3.1l0.6-0.3
			C137.9,97.5,138.3,97.3,138.7,97.2z"/>
		<path class="st2" d="M149.7,96c0.2-0.2,0.5-0.4,0.8-0.4c0.2,0,0.5,0,0.6,0c0.6,0.1,1.1,0.3,1.2,0.5c0.3,0.4,0.5,2.9,0.5,7.6v2.5
			v2.2c0,3.7,0,5.7,0.1,6c0.1,0.5,0.6,0.7,1.4,0.7c0.4,0,0.7,0,1,0c0.2,0,0.5,0,0.8,0c0.5,0,0.9,0.1,1.1,0.2
			c0.2,0.2,0.3,0.5,0.3,0.9c0,0.3-0.1,0.5-0.2,0.7c-0.1,0.2-0.4,0.4-0.8,0.7c-0.8,0.4-1.6,0.6-2.4,0.7c-1.2,0.1-1.8,0.1-1.9,0.1
			c-0.1,0-0.1,0-0.3,0c-0.3,0-0.7-0.1-1.1-0.3c-0.4-0.2-0.7-0.4-1-0.7c-0.4-0.5-0.6-1.9-0.6-4.3c0-0.6,0-1.7,0.1-3.3
			c0.1-1.5,0.1-3,0.1-4.8c0-4.1-0.1-6.6-0.2-7.6c-0.1-0.4-0.1-0.6-0.1-0.7C149.3,96.5,149.4,96.2,149.7,96z"/>
		<path class="st2" d="M162.5,96c0.2-0.2,0.5-0.4,0.8-0.4c0.2,0,0.5,0,0.6,0c0.6,0.1,1.1,0.3,1.2,0.5c0.3,0.4,0.5,2.9,0.5,7.6v2.5
			v2.2c0,3.7,0,5.7,0.1,6c0.1,0.5,0.6,0.7,1.4,0.7c0.4,0,0.7,0,1,0c0.2,0,0.5,0,0.8,0c0.5,0,0.9,0.1,1.1,0.2s0.3,0.5,0.3,0.9
			c0,0.3-0.1,0.5-0.2,0.7c-0.1,0.2-0.4,0.4-0.8,0.7c-0.8,0.4-1.6,0.6-2.4,0.7c-1.2,0.1-1.8,0.1-1.9,0.1c-0.1,0-0.1,0-0.3,0
			c-0.3,0-0.7-0.1-1.1-0.3c-0.4-0.2-0.7-0.4-1-0.7c-0.4-0.5-0.6-1.9-0.6-4.3c0-0.6,0-1.7,0.1-3.3c0.1-1.5,0.1-3,0.1-4.8
			c0-4.1-0.1-6.6-0.2-7.6c-0.1-0.4-0.1-0.6-0.1-0.7C162.1,96.5,162.2,96.2,162.5,96z"/>
		<path class="st3" d="M232.9,63.7c2.7-4.7,3-12.2-0.6-14.3s-9.9,2.1-12.6,6.7c-2,3.4-1.4,6.2,0.6,8.3c0.4,0.4,0.4,1,0.1,1.4
			l-22.1,37.9c-1.2,1.8-0.8,4.3,1,5.5c1.9,1.2,4.4,0.4,5.4-1.6L224.2,68c0.2-0.5,0.8-0.8,1.3-0.6C228.3,68,230.9,67.1,232.9,63.7z"
			/>
		<path class="st4" d="M303.2,40.4c1.8-1.6-1.3-7.8-6.8-14s-11.4-9.9-13.1-8.3l-2.3,2.1c-0.3,0.3-0.4,0.8-0.1,1.2l18.7,21.1
			c0.3,0.4,0.8,0.4,1.2,0.1L303.2,40.4z"/>
		<path class="st5" d="M253.3,64.6c17,19.2,35,31,38.5,27.9c0.1-0.1,1.6-1.4,1.6-1.6c3.1-4,29.2-27.9-0.6-61.5
			c-29.8-33.5-56.7-10.4-61-7.8c-0.2,0.1-1.6,1.3-1.8,1.4C226.6,26.2,236.3,45.5,253.3,64.6z"/>
		<path class="st6" d="M245.7,28.9c-11.8-8.6-3.2,8.7,0.9,15c0.4,0.7,1.1,1.1,1.8,1.4c1,0.4,0.6,1.3-0.2,2.4
			c-1.5,2.1-0.8,4.8,1.3,5.9c3.1,1.5,6.2,3.6,5.9,6.3c-0.2,1.6,0.6,3,2,3.7c4.4,2.2,7.7,6.1,9.3,10.6c0.7,1.9,2.7,2.9,4.7,2.4
			c3.8-0.9,5.7,0.9,7.8,4.9c0.5,1,1.6,1.8,2.8,2c25.1,4.4-23.2-47.2-36-54.3C245.9,29.1,245.8,29,245.7,28.9z"/>
		<path class="st7" d="M176.1,34.4c0.2,0,0.3-0.3,0.1-0.4c-1.5-1.4-11.3-8.3-14.7-4.8C157.8,33.2,173.5,34.6,176.1,34.4z"/>
		<path class="st7" d="M159.2,34.9l-1.8-1.2l6.2-9.8c0.2-0.2,0.5-0.3,0.7-0.2l0.9,0.6c0.2,0.2,0.3,0.5,0.2,0.7L159.2,34.9z"/>
		<path class="st4" d="M155,30.5c-0.5-0.4-1.1-0.9-1.7-1.2c-9.2-5.2-13.1,2-17.3,8.6c-5.2,8.2-2.8,20.7,5.4,21.1
			c0.4,0,0.9,0.1,1.3,0.1c0.2,0.4,0.4,0.8,0.6,1.2c3.9,7.2,16.2,4.1,21.4-4.1c4.3-6.7,8.1-13.9,0-19.6c-0.4-0.3-0.9-0.5-1.3-0.7
			C160.4,34.5,157.5,32.7,155,30.5z"/>
		<path class="st7" d="M229.5,117.7c0-0.2-0.4-0.4-0.5-0.2c-1.9,1.8-11.2,13.2-7,17.7C226.6,140.3,229.6,121,229.5,117.7z"/>
		<path class="st7" d="M228.9,138.7l-1.6,2.2l-11.6-8.5c-0.3-0.2-0.4-0.7-0.1-1l0.8-1.1c0.2-0.3,0.7-0.4,1-0.1L228.9,138.7z"/>
		<path class="st8" d="M258.4,138.8c-2.1,0-4.1-0.6-5.8-1.9c-0.1-0.1-0.2-0.2-0.3-0.2c-9.7-7-19.2-5.2-24.4,1.8
			c-0.1,0.2-0.3,0.4-0.4,0.6c-0.1,0.2-0.3,0.3-0.4,0.5c-5.2,7.1-4,16.7,5.7,23.8c0.1,0.1,0.2,0.2,0.3,0.2c1.7,1.2,2.9,2.9,3.6,4.9
			c1.4,4.2,4,8.1,7.9,10.9c9.7,7,26.5,3.4,27.7-6.6c0-0.4,0.1-0.7,0.1-1c0.3-0.1,0.6-0.3,1-0.4c9.2-4.2,7.5-21.3-2.2-28.4
			C267.3,140.1,262.8,138.8,258.4,138.8z"/>
		<path class="st9" d="M254.5,61l3.5,1.6l-6.6,11.8l-5.5-3.2l4.5-8C251.8,62.4,253.1,61.6,254.5,61z"/>
		<path class="st9" d="M241.9,69.1c2.5-2,4.9-3.7,7.5-5.3l1.5,3.4l-11.1,3.6C240.4,70.3,241.1,69.7,241.9,69.1z"/>
		<path class="st9" d="M270.2,55.9l-4.4,4.1l-2.3-2.5C265.6,56.9,267.9,56.4,270.2,55.9z"/>
		<path class="st10" d="M232.2,84.8c0.5-0.5,1-0.9,1.5-1.4l4.8,2.2l-5.5,8.3l-4.1-3l2.6-5.5C231.8,85.2,232,85,232.2,84.8z"/>
		<path class="st10" d="M268.4,56.3l0.2,0.4l-12.5,8.7l-2.6-3.9C258.1,59.2,262.9,57.5,268.4,56.3z"/>
		<path class="st9" d="M238.8,74.3l3.1,4.9l10.3-9.7l-3.7-4.3L238.8,74.3z"/>
		<path class="st10" d="M241.8,68.4l1.6,2.7l-12,7.7l-2.6-2.1C232.5,73.8,237.8,70.5,241.8,68.4z"/>
		<path class="st9" d="M255.2,60.6l-5.9,8.8l-4-3C248.5,64.2,251.8,62.2,255.2,60.6z"/>
		<path class="st10" d="M233.6,78.1l1.7,4.5l10.7-3.2l-1.7-5.4L233.6,78.1z"/>
		<path class="st10" d="M211.6,92.6l8.9-5.5l2.7,5l-9.9,5.1l-2.2-3.7C211.3,93.1,211.5,92.9,211.6,92.6z"/>
		<path class="st10" d="M252.5,62l4.3,2l-5.5,8.3l-4.1-3l2.8-5.9C250.8,62.9,251.7,62.4,252.5,62z"/>
		<path class="st11" d="M70,49.5c-2.3-3-5.2-5.8-8.5-7l11.6,2c0.5-1.1,1-2.1,1.3-3.3c0.3-0.9,0.6-1.9,0.8-2.9l-11-4.8
			c3.7,0.9,7.9,0,11.7-1.4c-0.1,0.2,0.7-2.5,0.4-3.8c-15.5,2.1-33.4-2.9-33.4-2.9c-5.6-1.7-6.8,4.6-6.8,4.6s-2.5,5.9,3.1,7.6
			c0,0,16.5,5.3,28.3,14.9C68.3,51.6,69.2,50.6,70,49.5z"/>
		<path class="st7" d="M71.3,34.4c-23.4,24.2,1.8,41.4,7.4,25.1c9.1,4.8,10.3-7.2,13.8-13.3c1.2-2.2,1.5-4.9,0.3-7.1
			c-0.5-0.9-1.1-1.7-1.8-2.3c6.2-5.7-0.6-17.8-8-11.8C81.4,12.9,65.8,15.2,71.3,34.4z M82.6,37.7c-0.1,0.1-0.2,0.2-0.3,0.4
			c0.1-0.2,0.1-0.3,0.1-0.5C82.5,37.6,82.6,37.6,82.6,37.7z"/>
	</g>
</g>
</svg>
