<?xml version="1.0" encoding="utf-8"?>
<!-- Generator: Adobe Illustrator 25.1.0, SVG Export Plug-In . SVG Version: 6.00 Build 0)  -->
<svg version="1.1" id="Layer_1" xmlns="http://www.w3.org/2000/svg" xmlns:xlink="http://www.w3.org/1999/xlink" x="0px" y="0px"
	 viewBox="0 0 333.8 184" style="enable-background:new 0 0 333.8 184;" xml:space="preserve">
<style type="text/css">
	.st0{fill:#FFFFFF;}
	.st1{fill:#808080;}
	.st2{fill:#00CDDC;}
	.st3{fill:#F4F1EF;}
	.st4{fill:#BFBFBF;}
	.st5{fill:#EDF1F2;}
	.st6{fill:#E14504;}
	.st7{fill:#40D9E5;}
	.st8{fill:#80E6ED;}
</style>
<g>
	<g>
		<path class="st0" d="M333.8,129.3c0-57.2-2.5-95.9-4.1-114.8C329.1,7,318.4,1.1,305.3,1C275.6,0.7,224,0.2,193.5,0
			c-28.6-0.2-71.8,0.3-106.9,0.8C52.3,1.3,12.4,2.1,7.2,14.1c-8.1,18.8-6.7,57.2-6.7,91.8c0,54.3-6.6,67.3,28.7,74.2
			c35.9,7,219.5,2.6,262.8,1.8C336.7,181,333.8,184.7,333.8,129.3z"/>
		<path class="st1" d="M23.6,28.2V17h1.3v10.1h5.2v1.1H23.6z"/>
		<path class="st1" d="M32.7,18.5c-0.3,0-0.5-0.1-0.7-0.3c-0.2-0.2-0.3-0.4-0.3-0.7s0.1-0.5,0.3-0.6c0.2-0.2,0.4-0.3,0.7-0.3
			s0.5,0.1,0.7,0.3c0.2,0.2,0.3,0.4,0.3,0.6c0,0.3-0.1,0.5-0.3,0.7C33.2,18.4,33,18.5,32.7,18.5z M32,28.2v-7.9h1.3v7.9H32z"/>
		<path class="st1" d="M35.7,28.2v-7.9h1.2l0.1,1.2c0.3-0.4,0.6-0.8,1-1s0.9-0.4,1.4-0.4c0.6,0,1.2,0.1,1.6,0.4
			c0.5,0.3,0.8,0.7,1,1.2c0.3-0.5,0.7-0.9,1.1-1.1c0.5-0.3,1-0.4,1.6-0.4c1,0,1.7,0.3,2.3,0.9s0.8,1.4,0.8,2.6v4.6h-1.3v-4.5
			c0-0.8-0.2-1.4-0.5-1.9s-0.8-0.6-1.4-0.6c-0.6,0-1.2,0.2-1.6,0.7c-0.4,0.5-0.6,1.2-0.6,2.1v4.1h-1.3v-4.5c0-0.8-0.2-1.4-0.5-1.9
			c-0.3-0.4-0.8-0.6-1.4-0.6c-0.6,0-1.2,0.2-1.6,0.7C37.2,22.4,37,23.1,37,24v4.1L35.7,28.2L35.7,28.2z"/>
		<path class="st1" d="M50.9,18.5c-0.3,0-0.5-0.1-0.7-0.3c-0.2-0.2-0.3-0.4-0.3-0.7s0.1-0.5,0.3-0.6c0.2-0.2,0.4-0.3,0.7-0.3
			s0.5,0.1,0.7,0.3c0.2,0.2,0.3,0.4,0.3,0.6c0,0.3-0.1,0.5-0.3,0.7C51.3,18.4,51.1,18.5,50.9,18.5z M50.2,28.2v-7.9h1.3v7.9H50.2z"
			/>
		<path class="st1" d="M57,28.2c-0.7,0-1.3-0.2-1.7-0.5c-0.4-0.4-0.6-1-0.6-1.9v-4.4h-1.4v-1.1h1.4l0.2-1.9H56v1.9h2.3v1.1H56v4.4
			c0,0.5,0.1,0.8,0.3,1s0.6,0.3,1.1,0.3h0.8v1.2H57V28.2z"/>
		<path class="st1" d="M66.9,28.4c-0.7,0-1.2-0.1-1.7-0.3c-0.4-0.2-0.8-0.5-1-0.9c-0.2-0.4-0.3-0.8-0.3-1.2c0-0.8,0.3-1.4,0.9-1.9
			c0.6-0.4,1.5-0.7,2.5-0.7h2.1v-0.1c0-0.7-0.2-1.2-0.5-1.6s-0.8-0.5-1.5-0.5c-0.5,0-1,0.1-1.3,0.4c-0.4,0.3-0.6,0.6-0.7,1.1H64
			c0.1-0.6,0.2-1.1,0.6-1.5c0.3-0.4,0.8-0.7,1.3-0.9c0.5-0.2,1-0.3,1.6-0.3c1.1,0,1.9,0.3,2.5,0.9s0.8,1.4,0.8,2.4v4.9h-1.2
			l-0.1-1.4c-0.2,0.5-0.6,0.8-1,1.1C68.2,28.3,67.7,28.4,66.9,28.4z M67.1,27.3c0.5,0,0.9-0.1,1.3-0.4s0.7-0.6,0.8-1
			c0.2-0.4,0.3-0.9,0.3-1.3l0,0h-2c-0.8,0-1.3,0.1-1.7,0.4c-0.3,0.3-0.5,0.6-0.5,1s0.2,0.8,0.5,1C66.2,27.1,66.6,27.3,67.1,27.3z"/>
		<path class="st1" d="M73,28.2V16.7h1.3v11.5H73z"/>
		<path class="st1" d="M80.2,28.4c-0.8,0-1.4-0.2-2-0.5s-1.1-0.8-1.4-1.5c-0.3-0.6-0.5-1.4-0.5-2.2c0-0.8,0.2-1.6,0.5-2.2
			s0.8-1.1,1.4-1.5s1.3-0.5,2-0.5c0.9,0,1.7,0.2,2.4,0.7s1.1,1.2,1.2,2h-1.4c-0.1-0.5-0.4-0.9-0.8-1.1c-0.4-0.3-0.9-0.4-1.5-0.4
			c-0.4,0-0.9,0.1-1.3,0.3c-0.4,0.2-0.7,0.6-1,1s-0.4,1-0.4,1.7s0.1,1.2,0.4,1.7s0.6,0.8,1,1s0.8,0.3,1.3,0.3c0.6,0,1-0.1,1.5-0.4
			c0.4-0.3,0.7-0.7,0.8-1.2h1.4c-0.2,0.8-0.6,1.5-1.2,2S81.1,28.4,80.2,28.4z"/>
		<path class="st1" d="M89.2,28.4c-0.8,0-1.4-0.2-2-0.5s-1.1-0.8-1.4-1.5s-0.5-1.4-0.5-2.2c0-0.8,0.2-1.6,0.5-2.2s0.8-1.1,1.4-1.5
			c0.6-0.3,1.3-0.5,2-0.5s1.4,0.2,2,0.5s1.1,0.8,1.4,1.5c0.3,0.6,0.5,1.4,0.5,2.2c0,0.8-0.2,1.6-0.5,2.2s-0.8,1.1-1.4,1.5
			C90.7,28.2,90,28.4,89.2,28.4z M89.2,27.3c0.5,0,0.9-0.1,1.3-0.3c0.4-0.2,0.7-0.6,1-1s0.4-1,0.4-1.7s-0.1-1.2-0.4-1.7
			c-0.2-0.5-0.6-0.8-1-1s-0.8-0.3-1.3-0.3s-0.9,0.1-1.3,0.3c-0.4,0.2-0.7,0.6-1,1s-0.4,1-0.4,1.7s0.1,1.2,0.4,1.7
			c0.2,0.5,0.6,0.8,1,1C88.4,27.1,88.8,27.3,89.2,27.3z"/>
		<path class="st1" d="M95.1,28.2V16.7h1.3v4.9c0.3-0.5,0.7-0.9,1.1-1.1c0.5-0.3,1-0.4,1.6-0.4c0.9,0,1.7,0.3,2.2,0.9
			c0.6,0.6,0.8,1.5,0.8,2.6v4.6h-1.3v-4.5c0-1.7-0.7-2.5-2-2.5c-0.7,0-1.3,0.2-1.7,0.7c-0.5,0.5-0.7,1.2-0.7,2.1v4.1L95.1,28.2
			L95.1,28.2z"/>
		<path class="st1" d="M107.9,28.4c-0.8,0-1.4-0.2-2-0.5s-1.1-0.8-1.4-1.5c-0.3-0.6-0.5-1.4-0.5-2.2c0-0.8,0.2-1.6,0.5-2.2
			s0.8-1.1,1.4-1.5s1.3-0.5,2-0.5c0.8,0,1.4,0.2,2,0.5s1.1,0.8,1.4,1.5c0.3,0.6,0.5,1.4,0.5,2.2c0,0.8-0.2,1.6-0.5,2.2
			s-0.8,1.1-1.4,1.5C109.3,28.2,108.6,28.4,107.9,28.4z M107.9,27.3c0.5,0,0.9-0.1,1.3-0.3c0.4-0.2,0.7-0.6,1-1s0.4-1,0.4-1.7
			s-0.1-1.2-0.4-1.7s-0.6-0.8-0.9-1c-0.4-0.2-0.8-0.3-1.3-0.3s-0.9,0.1-1.3,0.3c-0.4,0.2-0.7,0.6-1,1s-0.4,1-0.4,1.7
			s0.1,1.2,0.4,1.7s0.6,0.8,0.9,1C107,27.1,107.4,27.3,107.9,27.3z"/>
		<path class="st1" d="M113.7,28.2V16.7h1.3v11.5H113.7z"/>
		<path class="st1" d="M27.1,50.4c-0.8,0-1.4-0.2-2-0.5s-1.1-0.8-1.4-1.5s-0.5-1.4-0.5-2.2c0-0.8,0.2-1.6,0.5-2.2s0.8-1.1,1.4-1.5
			s1.3-0.5,2-0.5c0.9,0,1.7,0.2,2.4,0.7c0.6,0.5,1,1.2,1.2,2h-1.4c-0.1-0.5-0.4-0.9-0.8-1.1c-0.4-0.3-0.9-0.4-1.5-0.4
			c-0.5,0-0.9,0.1-1.3,0.3c-0.4,0.2-0.7,0.6-1,1s-0.4,1-0.4,1.7s0.1,1.2,0.4,1.7c0.2,0.5,0.6,0.8,1,1s0.8,0.3,1.3,0.3s1-0.1,1.5-0.4
			c0.4-0.3,0.7-0.7,0.8-1.2h1.4c-0.2,0.8-0.6,1.5-1.2,2C28.9,50.2,28.1,50.4,27.1,50.4z"/>
		<path class="st1" d="M36.2,50.4c-0.8,0-1.4-0.2-2-0.5s-1.1-0.8-1.4-1.5c-0.4-0.6-0.5-1.4-0.5-2.2c0-0.8,0.2-1.6,0.5-2.2
			c0.4-0.6,0.8-1.1,1.4-1.5c0.6-0.3,1.3-0.5,2-0.5c0.8,0,1.4,0.2,2,0.5s1.1,0.8,1.4,1.5c0.4,0.6,0.5,1.4,0.5,2.2
			c0,0.8-0.2,1.6-0.5,2.2s-0.8,1.1-1.4,1.5C37.7,50.2,37,50.4,36.2,50.4z M36.2,49.3c0.5,0,0.9-0.1,1.3-0.3c0.4-0.2,0.7-0.6,1-1
			s0.4-1,0.4-1.7s-0.1-1.2-0.4-1.7c-0.2-0.4-0.6-0.8-1-1s-0.8-0.3-1.3-0.3s-0.9,0.1-1.3,0.3c-0.4,0.2-0.7,0.6-1,1s-0.4,1-0.4,1.7
			s0.1,1.2,0.4,1.7s0.6,0.8,1,1C35.4,49.1,35.8,49.3,36.2,49.3z"/>
		<path class="st1" d="M42.1,50.2v-7.9h1.2l0.1,1.4c0.3-0.5,0.6-0.9,1.1-1.2c0.5-0.3,1-0.4,1.6-0.4c0.9,0,1.7,0.3,2.2,0.9
			c0.6,0.6,0.8,1.5,0.8,2.6v4.6h-1.3v-4.5c0-1.7-0.7-2.5-2.1-2.5c-0.7,0-1.2,0.2-1.7,0.7c-0.4,0.5-0.7,1.2-0.7,2.1v4.1L42.1,50.2
			L42.1,50.2z"/>
		<path class="st1" d="M54.3,50.4c-1,0-1.7-0.2-2.4-0.7c-0.6-0.5-1-1.1-1.1-2h1.4c0.1,0.4,0.3,0.8,0.7,1.1c0.4,0.3,0.8,0.5,1.5,0.5
			c0.6,0,1-0.1,1.2-0.4S56,48.4,56,48c0-0.5-0.2-0.8-0.5-1s-0.8-0.3-1.5-0.4c-0.4-0.1-0.8-0.2-1.3-0.4c-0.4-0.2-0.8-0.4-1.1-0.7
			c-0.3-0.3-0.4-0.7-0.4-1.2c0-0.7,0.3-1.3,0.8-1.7c0.5-0.4,1.2-0.7,2.1-0.7c0.8,0,1.5,0.2,2.1,0.6c0.5,0.4,0.8,1,0.9,1.8h-1.3
			c0-0.4-0.2-0.7-0.5-1C55,43.1,54.6,43,54.1,43s-0.9,0.1-1.1,0.3s-0.4,0.5-0.4,0.8s0.2,0.6,0.5,0.8c0.3,0.2,0.8,0.3,1.4,0.5
			c0.5,0.1,1,0.2,1.4,0.4c0.4,0.1,0.8,0.4,1.1,0.7c0.3,0.3,0.4,0.7,0.4,1.3c0,0.7-0.3,1.3-0.8,1.8C56,50.2,55.2,50.4,54.3,50.4z"/>
		<path class="st1" d="M62.1,50.4c-0.9,0-1.7-0.3-2.2-0.9s-0.8-1.5-0.8-2.6v-4.6h1.3v4.5c0,1.7,0.7,2.5,2,2.5c0.7,0,1.3-0.2,1.7-0.7
			c0.4-0.5,0.7-1.2,0.7-2.1v-4.1h1.3v7.9H65l-0.1-1.4c-0.2,0.5-0.6,0.9-1.1,1.2C63.3,50.3,62.7,50.4,62.1,50.4z"/>
		<path class="st1" d="M68.4,50.2v-7.9h1.2l0.1,1.2c0.3-0.4,0.6-0.8,1-1s0.9-0.4,1.4-0.4c0.6,0,1.2,0.1,1.6,0.4s0.8,0.7,1,1.2
			c0.3-0.5,0.7-0.9,1.1-1.1c0.5-0.3,1-0.4,1.6-0.4c1,0,1.7,0.3,2.3,0.9c0.6,0.6,0.8,1.4,0.8,2.6v4.6h-1.3v-4.5
			c0-0.8-0.2-1.4-0.5-1.9s-0.8-0.6-1.4-0.6s-1.2,0.2-1.6,0.7s-0.6,1.2-0.6,2.1v4.1h-1.3v-4.5c0-0.8-0.2-1.4-0.5-1.9
			c-0.3-0.4-0.8-0.6-1.4-0.6s-1.2,0.2-1.6,0.7s-0.6,1.2-0.6,2.1v4.1L68.4,50.2L68.4,50.2z"/>
		<path class="st1" d="M82.7,53.7V42.2h1.2l0.1,1.3c0.3-0.4,0.6-0.7,1.1-1s1.1-0.5,1.8-0.5c0.8,0,1.5,0.2,2.1,0.5
			c0.6,0.4,1,0.9,1.4,1.5c0.3,0.6,0.5,1.3,0.5,2.1c0,0.8-0.2,1.5-0.5,2.1s-0.8,1.1-1.4,1.5s-1.3,0.5-2.1,0.5c-0.7,0-1.2-0.1-1.7-0.4
			s-0.9-0.6-1.2-1.1v4.9h-1.3V53.7z M86.8,49.2c0.5,0,1-0.1,1.4-0.4c0.4-0.2,0.7-0.6,1-1c0.2-0.5,0.3-1,0.3-1.6s-0.1-1.1-0.3-1.6
			c-0.2-0.5-0.5-0.8-1-1c-0.4-0.2-0.9-0.4-1.4-0.4s-1,0.1-1.4,0.4c-0.4,0.2-0.7,0.6-1,1s-0.3,1-0.3,1.6s0.1,1.1,0.3,1.6
			c0.2,0.4,0.6,0.8,1,1C85.8,49.1,86.3,49.2,86.8,49.2z"/>
		<path class="st1" d="M95.6,50.2c-0.7,0-1.3-0.2-1.7-0.5c-0.4-0.4-0.6-1-0.6-1.9v-4.4h-1.4v-1.1h1.4l0.2-1.9h1.2v1.9H97v1.1h-2.3
			v4.4c0,0.5,0.1,0.8,0.3,1s0.6,0.3,1.1,0.3h0.8v1.2h-1.3V50.2z"/>
		<path class="st1" d="M99.4,40.5c-0.3,0-0.5-0.1-0.7-0.3c-0.2-0.2-0.3-0.4-0.3-0.7s0.1-0.5,0.3-0.6c0.2-0.2,0.4-0.3,0.7-0.3
			c0.3,0,0.5,0.1,0.7,0.3c0.2,0.2,0.3,0.4,0.3,0.6c0,0.3-0.1,0.5-0.3,0.7C99.9,40.4,99.7,40.5,99.4,40.5z M98.8,50.2v-7.9h1.3v7.9
			H98.8z"/>
		<path class="st1" d="M106.1,50.4c-0.8,0-1.4-0.2-2-0.5s-1.1-0.8-1.4-1.5c-0.3-0.6-0.5-1.4-0.5-2.2c0-0.8,0.2-1.6,0.5-2.2
			s0.8-1.1,1.4-1.5s1.3-0.5,2-0.5c0.8,0,1.4,0.2,2,0.5s1.1,0.8,1.4,1.5c0.4,0.6,0.5,1.4,0.5,2.2c0,0.8-0.2,1.6-0.5,2.2
			c-0.4,0.6-0.8,1.1-1.4,1.5C107.5,50.2,106.8,50.4,106.1,50.4z M106.1,49.3c0.5,0,0.9-0.1,1.3-0.3c0.4-0.2,0.7-0.6,1-1
			s0.4-1,0.4-1.7s-0.1-1.2-0.4-1.7c-0.2-0.4-0.6-0.8-1-1s-0.8-0.3-1.3-0.3s-0.9,0.1-1.3,0.3c-0.4,0.2-0.7,0.6-1,1s-0.4,1-0.4,1.7
			s0.1,1.2,0.4,1.7s0.6,0.8,0.9,1C105.2,49.1,105.6,49.3,106.1,49.3z"/>
		<path class="st1" d="M111.9,50.2v-7.9h1.2l0.1,1.4c0.3-0.5,0.6-0.9,1.1-1.2c0.5-0.3,1-0.4,1.6-0.4c0.9,0,1.7,0.3,2.2,0.9
			c0.6,0.6,0.8,1.5,0.8,2.6v4.6h-1.3v-4.5c0-1.7-0.7-2.5-2.1-2.5c-0.7,0-1.2,0.2-1.7,0.7c-0.4,0.5-0.7,1.2-0.7,2.1v4.1L111.9,50.2
			L111.9,50.2z"/>
		<path class="st1" d="M128.5,50.2c-0.7,0-1.3-0.2-1.7-0.5c-0.4-0.4-0.6-1-0.6-1.9v-4.4h-1.4v-1.1h1.4l0.2-1.9h1.2v1.9h2.3v1.1h-2.3
			v4.4c0,0.5,0.1,0.8,0.3,1c0.2,0.2,0.6,0.3,1.1,0.3h0.8v1.2h-1.3V50.2z"/>
		<path class="st1" d="M134.9,50.4c-0.8,0-1.4-0.2-2-0.5s-1.1-0.8-1.4-1.5c-0.4-0.6-0.5-1.4-0.5-2.2c0-0.8,0.2-1.6,0.5-2.2
			s0.8-1.1,1.4-1.5c0.6-0.3,1.3-0.5,2-0.5s1.4,0.2,2,0.5s1.1,0.8,1.4,1.5c0.4,0.6,0.5,1.4,0.5,2.2c0,0.8-0.2,1.6-0.5,2.2
			c-0.4,0.6-0.8,1.1-1.4,1.5C136.3,50.2,135.6,50.4,134.9,50.4z M134.9,49.3c0.5,0,0.9-0.1,1.3-0.3c0.4-0.2,0.7-0.6,1-1
			s0.4-1,0.4-1.7s-0.1-1.2-0.4-1.7c-0.2-0.5-0.6-0.8-0.9-1c-0.4-0.2-0.8-0.3-1.3-0.3s-0.9,0.1-1.3,0.3c-0.4,0.2-0.7,0.6-1,1
			s-0.4,1-0.4,1.7s0.1,1.2,0.4,1.7c0.2,0.5,0.6,0.8,0.9,1C134,49.1,134.5,49.3,134.9,49.3z"/>
		<path class="st1" d="M26.1,163.4c-0.7,0-1.2-0.1-1.7-0.3c-0.4-0.2-0.8-0.5-1-0.9s-0.3-0.8-0.3-1.2c0-0.8,0.3-1.4,0.9-1.9
			s1.5-0.7,2.5-0.7h2.1v-0.1c0-0.7-0.2-1.2-0.5-1.6c-0.4-0.4-0.9-0.5-1.5-0.5c-0.5,0-1,0.1-1.3,0.4c-0.4,0.3-0.6,0.6-0.7,1.1h-1.4
			c0-0.6,0.2-1.1,0.6-1.5c0.3-0.4,0.8-0.7,1.3-0.9s1-0.3,1.6-0.3c1.1,0,1.9,0.3,2.5,0.9c0.6,0.6,0.8,1.4,0.8,2.4v4.9h-1.2l-0.1-1.4
			c-0.2,0.4-0.5,0.8-1,1.1S26.9,163.4,26.1,163.4z M26.3,162.3c0.5,0,1-0.1,1.3-0.4s0.7-0.6,0.8-1s0.3-0.9,0.3-1.3l0,0h-2
			c-0.8,0-1.3,0.1-1.7,0.4c-0.3,0.3-0.5,0.6-0.5,1s0.2,0.8,0.5,1C25.4,162.2,25.8,162.3,26.3,162.3z"/>
		<path class="st1" d="M32.2,163.3v-7.9h1.2l0.1,1.4c0.3-0.5,0.6-0.9,1.1-1.2s1-0.4,1.6-0.4c0.9,0,1.7,0.3,2.2,0.9s0.8,1.5,0.8,2.6
			v4.6h-1.3v-4.5c0-1.6-0.7-2.5-2-2.5c-0.7,0-1.2,0.2-1.7,0.7s-0.7,1.2-0.7,2.1v4.1L32.2,163.3L32.2,163.3z"/>
		<path class="st1" d="M44.9,163.4c-0.8,0-1.5-0.2-2.1-0.5c-0.6-0.4-1.1-0.9-1.4-1.5c-0.3-0.6-0.5-1.3-0.5-2.1s0.2-1.5,0.5-2.1
			s0.8-1.1,1.4-1.5s1.3-0.5,2.1-0.5c0.7,0,1.2,0.1,1.7,0.4s0.9,0.6,1.2,1.1v-4.9h1.3v11.5h-1.2l-0.1-1.3c-0.3,0.4-0.6,0.7-1.1,1
			C46.2,163.3,45.6,163.4,44.9,163.4z M45,162.3c0.5,0,1-0.1,1.4-0.4c0.4-0.2,0.7-0.6,1-1c0.2-0.5,0.3-1,0.3-1.6s-0.1-1.1-0.3-1.6
			s-0.5-0.8-1-1c-0.4-0.2-0.9-0.4-1.4-0.4s-1,0.1-1.4,0.4c-0.4,0.2-0.7,0.6-1,1s-0.3,1-0.3,1.6s0.1,1.1,0.3,1.6s0.6,0.8,1,1
			C44.1,162.2,44.5,162.3,45,162.3z"/>
		<path class="st1" d="M58.2,163.4c-0.7,0-1.2-0.1-1.7-0.3c-0.4-0.2-0.8-0.5-1-0.9s-0.3-0.8-0.3-1.2c0-0.8,0.3-1.4,0.9-1.9
			s1.5-0.7,2.5-0.7h2.1v-0.1c0-0.7-0.2-1.2-0.5-1.6c-0.4-0.4-0.8-0.5-1.5-0.5c-0.5,0-1,0.1-1.3,0.4c-0.4,0.3-0.6,0.6-0.7,1.1h-1.4
			c0-0.6,0.2-1.1,0.6-1.5c0.3-0.4,0.8-0.7,1.3-0.9s1-0.3,1.6-0.3c1.1,0,1.9,0.3,2.5,0.9c0.6,0.6,0.8,1.4,0.8,2.4v4.9H61l-0.1-1.4
			c-0.2,0.4-0.6,0.8-1,1.1C59.5,163.3,59,163.4,58.2,163.4z M58.4,162.3c0.5,0,0.9-0.1,1.3-0.4s0.7-0.6,0.8-1
			c0.2-0.4,0.3-0.9,0.3-1.3l0,0h-2c-0.8,0-1.3,0.1-1.7,0.4c-0.3,0.3-0.5,0.6-0.5,1s0.1,0.8,0.5,1C57.5,162.2,57.9,162.3,58.4,162.3z
			"/>
		<path class="st1" d="M66.2,163.3l-3-7.9h1.4L67,162l2.4-6.6h1.4l-3,7.9H66.2z"/>
		<path class="st1" d="M75.5,163.4c-0.8,0-1.4-0.2-2-0.5s-1.1-0.8-1.4-1.5c-0.4-0.6-0.5-1.4-0.5-2.2s0.2-1.6,0.5-2.2
			c0.4-0.6,0.8-1.1,1.4-1.5c0.6-0.3,1.3-0.5,2-0.5s1.4,0.2,2,0.5s1.1,0.8,1.4,1.5c0.4,0.6,0.5,1.4,0.5,2.2s-0.2,1.6-0.5,2.2
			c-0.4,0.6-0.8,1.1-1.4,1.5S76.2,163.4,75.5,163.4z M75.5,162.3c0.5,0,0.9-0.1,1.3-0.3s0.7-0.6,1-1c0.2-0.4,0.4-1,0.4-1.7
			s-0.1-1.2-0.4-1.7c-0.2-0.5-0.6-0.8-0.9-1c-0.4-0.2-0.8-0.3-1.3-0.3s-0.9,0.1-1.3,0.3s-0.7,0.6-1,1c-0.2,0.4-0.4,1-0.4,1.7
			s0.1,1.2,0.4,1.7c0.2,0.5,0.6,0.8,0.9,1C74.6,162.2,75,162.3,75.5,162.3z"/>
		<path class="st1" d="M82.2,153.6c-0.3,0-0.5-0.1-0.7-0.3s-0.3-0.4-0.3-0.7s0.1-0.5,0.3-0.6c0.2-0.2,0.4-0.3,0.7-0.3
			c0.3,0,0.5,0.1,0.7,0.3s0.3,0.4,0.3,0.6c0,0.3-0.1,0.5-0.3,0.7S82.4,153.6,82.2,153.6z M81.5,163.3v-7.9h1.3v7.9H81.5z"/>
		<path class="st1" d="M88.8,163.4c-0.8,0-1.5-0.2-2.1-0.5c-0.6-0.4-1-0.9-1.4-1.5s-0.5-1.3-0.5-2.1s0.2-1.5,0.5-2.1
			s0.8-1.1,1.4-1.5s1.3-0.5,2.1-0.5c0.7,0,1.2,0.1,1.7,0.4s0.9,0.6,1.2,1.1v-4.9H93v11.5h-1.2l-0.1-1.3c-0.3,0.4-0.6,0.7-1.1,1
			C90.1,163.3,89.5,163.4,88.8,163.4z M88.9,162.3c0.5,0,1-0.1,1.4-0.4c0.4-0.2,0.7-0.6,1-1c0.2-0.5,0.3-1,0.3-1.6s-0.1-1.1-0.3-1.6
			c-0.2-0.5-0.6-0.8-1-1s-0.9-0.4-1.4-0.4s-1,0.1-1.4,0.4c-0.4,0.2-0.7,0.6-1,1c-0.2,0.5-0.3,1-0.3,1.6s0.1,1.1,0.3,1.6
			c0.2,0.5,0.5,0.8,1,1C87.9,162.2,88.4,162.3,88.9,162.3z"/>
		<path class="st1" d="M103.1,163.4c-0.8,0-1.5-0.2-2.1-0.5c-0.6-0.4-1-0.9-1.4-1.5s-0.5-1.3-0.5-2.1s0.2-1.5,0.5-2.1
			s0.8-1.1,1.4-1.5s1.3-0.5,2.1-0.5c0.7,0,1.2,0.1,1.7,0.4s0.9,0.6,1.2,1.1v-4.9h1.3v11.5h-1.2L106,162c-0.3,0.4-0.6,0.7-1.1,1
			S103.8,163.4,103.1,163.4z M103.2,162.3c0.5,0,1-0.1,1.4-0.4c0.4-0.2,0.7-0.6,1-1c0.2-0.5,0.3-1,0.3-1.6s-0.1-1.1-0.3-1.6
			c-0.2-0.5-0.6-0.8-1-1s-0.9-0.4-1.4-0.4s-1,0.1-1.4,0.4c-0.4,0.2-0.7,0.6-1,1c-0.2,0.5-0.3,1-0.3,1.6s0.1,1.1,0.3,1.6
			c0.2,0.5,0.6,0.8,1,1C102.2,162.2,102.7,162.3,103.2,162.3z"/>
		<path class="st1" d="M109.5,163.3v-7.9h1.2l0.1,1.5c0.2-0.5,0.6-0.9,1.1-1.2s1.1-0.5,1.9-0.5v1.4h-0.4c-0.5,0-0.9,0.1-1.3,0.2
			c-0.4,0.2-0.7,0.5-0.9,0.8c-0.2,0.4-0.4,0.9-0.4,1.6v4h-1.3V163.3z"/>
		<path class="st1" d="M116.1,153.6c-0.3,0-0.5-0.1-0.7-0.3s-0.3-0.4-0.3-0.7s0.1-0.5,0.3-0.6c0.2-0.2,0.4-0.3,0.7-0.3
			c0.3,0,0.5,0.1,0.7,0.3s0.3,0.4,0.3,0.6c0,0.3-0.1,0.5-0.3,0.7C116.6,153.5,116.4,153.6,116.1,153.6z M115.5,163.3v-7.9h1.3v7.9
			H115.5z"/>
		<path class="st1" d="M119.1,163.3v-7.9h1.2l0.1,1.4c0.3-0.5,0.6-0.9,1.1-1.2s1-0.4,1.6-0.4c0.9,0,1.7,0.3,2.2,0.9s0.8,1.5,0.8,2.6
			v4.6h-1.3v-4.5c0-1.6-0.7-2.5-2.1-2.5c-0.7,0-1.2,0.2-1.7,0.7c-0.4,0.5-0.7,1.2-0.7,2.1v4.1L119.1,163.3L119.1,163.3z"/>
		<path class="st1" d="M128.3,163.3v-11.5h1.3v6.9l3.2-3.3h1.6l-3.5,3.6l4,4.3h-1.7l-3.6-4.1v4.1H128.3z"/>
		<path class="st1" d="M137.2,153.6c-0.3,0-0.5-0.1-0.7-0.3s-0.3-0.4-0.3-0.7s0.1-0.5,0.3-0.6c0.2-0.2,0.4-0.3,0.7-0.3
			s0.5,0.1,0.7,0.3s0.3,0.4,0.3,0.6c0,0.3-0.1,0.5-0.3,0.7S137.4,153.6,137.2,153.6z M136.5,163.3v-7.9h1.3v7.9H136.5z"/>
		<path class="st1" d="M140.2,163.3v-7.9h1.2l0.1,1.4c0.3-0.5,0.6-0.9,1.1-1.2s1-0.4,1.6-0.4c0.9,0,1.7,0.3,2.2,0.9
			c0.6,0.6,0.8,1.5,0.8,2.6v4.6H146v-4.5c0-1.6-0.7-2.5-2.1-2.5c-0.7,0-1.2,0.2-1.7,0.7s-0.7,1.2-0.7,2.1v4.1L140.2,163.3
			L140.2,163.3z"/>
		<path class="st1" d="M152.5,160.8c-0.5,0-0.9-0.1-1.2-0.2l-0.8,0.8c0.1,0.1,0.3,0.2,0.4,0.2c0.2,0.1,0.4,0.1,0.8,0.2
			s0.8,0.1,1.4,0.2c1.1,0.1,1.8,0.3,2.3,0.7s0.7,1,0.7,1.6c0,0.5-0.1,0.9-0.4,1.3c-0.2,0.4-0.6,0.8-1.1,1c-0.5,0.3-1.2,0.4-2,0.4
			c-0.7,0-1.3-0.1-1.9-0.3s-1-0.5-1.3-0.9s-0.5-0.9-0.5-1.4c0-0.3,0.1-0.6,0.2-1c0.2-0.4,0.5-0.7,0.9-1c-0.2-0.1-0.4-0.2-0.6-0.3
			c-0.2-0.1-0.3-0.2-0.5-0.4v-0.4l1.4-1.3c-0.6-0.5-0.9-1.2-0.9-2.1c0-0.5,0.1-1,0.4-1.4c0.2-0.4,0.6-0.8,1.1-1s1-0.4,1.7-0.4
			c0.5,0,0.9,0.1,1.2,0.2h2.9v1l-1.5,0.1c0.3,0.4,0.5,1,0.5,1.5s-0.1,1-0.4,1.4c-0.2,0.4-0.6,0.8-1.1,1
			C153.7,160.6,153.1,160.8,152.5,160.8z M150.1,164.3c0,0.5,0.2,0.9,0.7,1.2s1,0.4,1.7,0.4s1.2-0.1,1.6-0.4
			c0.4-0.3,0.6-0.7,0.6-1.2c0-0.3-0.1-0.6-0.4-0.9s-0.8-0.4-1.5-0.4c-0.6,0-1.1-0.1-1.5-0.2c-0.4,0.2-0.7,0.5-0.9,0.8
			C150.2,163.8,150.1,164.1,150.1,164.3z M152.5,159.7c0.6,0,1-0.2,1.3-0.4c0.3-0.3,0.5-0.7,0.5-1.3c0-0.5-0.2-1-0.5-1.3
			s-0.8-0.4-1.3-0.4c-0.6,0-1,0.1-1.4,0.4c-0.3,0.3-0.5,0.7-0.5,1.3s0.2,1,0.5,1.3C151.4,159.5,151.9,159.7,152.5,159.7z"/>
		<path class="st1" d="M160.9,166.8v-1.1h0.6c0.4,0,0.7-0.1,0.9-0.2c0.2-0.2,0.3-0.5,0.3-0.8v-9.2h1.3v9.2c0,0.8-0.2,1.3-0.6,1.7
			c-0.4,0.3-0.9,0.5-1.7,0.5h-0.8V166.8z M163.3,153.6c-0.3,0-0.5-0.1-0.7-0.3s-0.3-0.4-0.3-0.7s0.1-0.5,0.3-0.6
			c0.2-0.2,0.4-0.3,0.7-0.3s0.5,0.1,0.6,0.3c0.2,0.2,0.3,0.4,0.3,0.6c0,0.3-0.1,0.5-0.3,0.7C163.8,153.5,163.5,153.6,163.3,153.6z"
			/>
		<path class="st1" d="M169.2,163.4c-0.9,0-1.7-0.3-2.2-0.9c-0.5-0.6-0.8-1.5-0.8-2.6v-4.6h1.3v4.5c0,1.7,0.7,2.5,2,2.5
			c0.7,0,1.3-0.2,1.7-0.7s0.7-1.2,0.7-2.1v-4.1h1.3v7.9H172l-0.1-1.4c-0.2,0.5-0.6,0.9-1.1,1.2C170.3,163.3,169.8,163.4,169.2,163.4
			z"/>
		<path class="st1" d="M178.5,163.4c-1,0-1.7-0.2-2.4-0.7c-0.6-0.5-1-1.1-1.1-2h1.4c0.1,0.4,0.3,0.8,0.7,1.1s0.8,0.5,1.4,0.5
			c0.6,0,1-0.1,1.2-0.4c0.3-0.2,0.4-0.5,0.4-0.9c0-0.5-0.2-0.8-0.5-1c-0.4-0.2-0.8-0.3-1.5-0.4c-0.4-0.1-0.8-0.2-1.3-0.4
			c-0.4-0.2-0.8-0.4-1.1-0.7s-0.4-0.7-0.4-1.2c0-0.7,0.3-1.3,0.8-1.7s1.2-0.7,2.1-0.7c0.8,0,1.5,0.2,2.1,0.6c0.5,0.4,0.8,1,0.9,1.8
			h-1.3c0-0.4-0.2-0.7-0.5-0.9s-0.7-0.3-1.2-0.3s-0.8,0.1-1.1,0.3s-0.4,0.5-0.4,0.8s0.2,0.6,0.5,0.8s0.8,0.3,1.4,0.5
			c0.5,0.1,1,0.2,1.4,0.4s0.8,0.4,1.1,0.7s0.4,0.7,0.4,1.3c0,0.7-0.3,1.3-0.8,1.8C180.2,163.2,179.4,163.4,178.5,163.4z"/>
		<path class="st1" d="M186.2,163.3c-0.7,0-1.3-0.2-1.7-0.5s-0.6-1-0.6-1.9v-4.4h-1.4v-1.1h1.4l0.2-1.9h1.2v1.9h2.3v1.1h-2.3v4.4
			c0,0.5,0.1,0.8,0.3,1s0.6,0.3,1.1,0.3h0.8v1.1L186.2,163.3L186.2,163.3z"/>
		<path class="st1" d="M197.7,163.4c-0.7,0-1.2-0.1-1.7-0.4c-0.5-0.3-0.9-0.6-1.2-1.1l-0.1,1.3h-1.2v-11.5h1.3v4.9
			c0.3-0.4,0.6-0.7,1.1-1s1.1-0.5,1.8-0.5c0.8,0,1.5,0.2,2.1,0.5c0.6,0.4,1,0.9,1.4,1.5c0.3,0.6,0.5,1.3,0.5,2.1s-0.2,1.5-0.5,2.1
			s-0.8,1.1-1.4,1.5C199.2,163.3,198.5,163.4,197.7,163.4z M197.6,162.3c0.5,0,1-0.1,1.4-0.4c0.4-0.2,0.7-0.6,1-1s0.4-1,0.4-1.6
			s-0.1-1.1-0.4-1.6s-0.6-0.8-1-1s-0.9-0.4-1.4-0.4s-1,0.1-1.4,0.4s-0.7,0.6-1,1c-0.2,0.5-0.3,1-0.3,1.6s0.1,1.1,0.3,1.6
			s0.6,0.8,1,1C196.6,162.2,197.1,162.3,197.6,162.3z"/>
		<path class="st1" d="M207.1,163.4c-0.8,0-1.4-0.2-2-0.5c-0.6-0.4-1.1-0.8-1.4-1.5s-0.5-1.3-0.5-2.2c0-0.8,0.2-1.6,0.5-2.2
			s0.8-1.1,1.4-1.5c0.6-0.3,1.3-0.5,2.1-0.5s1.4,0.2,2,0.5c0.6,0.4,1,0.8,1.3,1.4s0.4,1.2,0.4,1.8c0,0.1,0,0.2,0,0.4
			c0,0.1,0,0.2,0,0.4h-6.3c0,0.6,0.2,1.1,0.4,1.5s0.6,0.7,0.9,0.9c0.4,0.2,0.8,0.3,1.2,0.3c0.6,0,1-0.1,1.4-0.4
			c0.4-0.3,0.7-0.6,0.8-1h1.3c-0.2,0.7-0.6,1.3-1.2,1.8C208.8,163.2,208.1,163.4,207.1,163.4z M207.1,156.3c-0.6,0-1.2,0.2-1.7,0.6
			s-0.8,1-0.9,1.7h5c0-0.7-0.3-1.3-0.7-1.7C208.4,156.5,207.8,156.3,207.1,156.3z"/>
		<path class="st1" d="M213.1,163.3v-6.8h-1.2v-1.1h1.2V154c0-0.8,0.2-1.3,0.6-1.7c0.4-0.3,0.9-0.5,1.7-0.5h0.8v1.2h-0.6
			c-0.4,0-0.7,0.1-0.9,0.2c-0.2,0.2-0.3,0.4-0.3,0.8v1.3h1.9v1.1h-1.9v6.8L213.1,163.3L213.1,163.3z"/>
		<path class="st1" d="M221.3,163.4c-0.8,0-1.4-0.2-2-0.5s-1.1-0.8-1.4-1.5c-0.3-0.6-0.5-1.4-0.5-2.2s0.2-1.6,0.5-2.2
			c0.3-0.6,0.8-1.1,1.4-1.5c0.6-0.3,1.3-0.5,2-0.5c0.8,0,1.4,0.2,2,0.5s1.1,0.8,1.4,1.5c0.3,0.6,0.5,1.4,0.5,2.2s-0.2,1.6-0.5,2.2
			c-0.3,0.6-0.8,1.1-1.4,1.5C222.7,163.3,222,163.4,221.3,163.4z M221.3,162.3c0.5,0,0.9-0.1,1.3-0.3c0.4-0.2,0.7-0.6,1-1
			c0.2-0.4,0.4-1,0.4-1.7s-0.1-1.2-0.4-1.7c-0.2-0.4-0.6-0.8-0.9-1c-0.4-0.2-0.8-0.3-1.3-0.3s-0.9,0.1-1.3,0.3c-0.4,0.2-0.7,0.6-1,1
			c-0.2,0.4-0.4,1-0.4,1.7s0.1,1.2,0.4,1.7s0.6,0.8,0.9,1C220.4,162.2,220.8,162.3,221.3,162.3z"/>
		<path class="st1" d="M227.1,163.3v-7.9h1.2l0.1,1.5c0.2-0.5,0.6-0.9,1.1-1.2s1.1-0.5,1.9-0.5v1.4H231c-0.5,0-0.9,0.1-1.3,0.2
			s-0.7,0.5-0.9,0.8c-0.2,0.4-0.3,0.9-0.3,1.6v4h-1.4V163.3z"/>
		<path class="st1" d="M236.2,163.4c-0.8,0-1.4-0.2-2-0.5c-0.6-0.4-1.1-0.8-1.4-1.5s-0.5-1.3-0.5-2.2c0-0.8,0.2-1.6,0.5-2.2
			s0.8-1.1,1.4-1.5c0.6-0.3,1.3-0.5,2.1-0.5s1.4,0.2,2,0.5c0.6,0.4,1,0.8,1.3,1.4s0.5,1.2,0.5,1.8c0,0.1,0,0.2,0,0.4
			c0,0.1,0,0.2,0,0.4h-6.3c0,0.6,0.2,1.1,0.4,1.5s0.6,0.7,0.9,0.9c0.4,0.2,0.8,0.3,1.2,0.3c0.6,0,1-0.1,1.4-0.4
			c0.4-0.3,0.6-0.6,0.8-1h1.3c-0.2,0.7-0.6,1.3-1.2,1.8C237.9,163.2,237.2,163.4,236.2,163.4z M236.2,156.3c-0.6,0-1.2,0.2-1.7,0.6
			c-0.5,0.4-0.8,1-0.9,1.7h5c0-0.7-0.3-1.3-0.7-1.7C237.5,156.5,236.9,156.3,236.2,156.3z"/>
		<path class="st1" d="M250.2,163.4c-0.6,0-1.2-0.1-1.7-0.4c-0.5-0.3-0.9-0.6-1.2-1.1l-0.1,1.3H246v-11.5h1.3v4.9
			c0.3-0.4,0.6-0.7,1.1-1s1.1-0.5,1.8-0.5c0.8,0,1.5,0.2,2.1,0.5c0.6,0.4,1,0.9,1.4,1.5c0.3,0.6,0.5,1.3,0.5,2.1s-0.2,1.5-0.5,2.1
			s-0.8,1.1-1.4,1.5S251,163.4,250.2,163.4z M250.1,162.3c0.5,0,1-0.1,1.4-0.4s0.7-0.6,1-1c0.2-0.5,0.3-1,0.3-1.6s-0.1-1.1-0.3-1.6
			s-0.6-0.8-1-1s-0.9-0.4-1.4-0.4s-1,0.1-1.4,0.4c-0.4,0.2-0.7,0.6-1,1c-0.2,0.5-0.4,1-0.4,1.6s0.1,1.1,0.4,1.6c0.2,0.5,0.6,0.8,1,1
			C249.1,162.2,249.6,162.3,250.1,162.3z"/>
		<path class="st1" d="M259.6,163.4c-0.8,0-1.4-0.2-2-0.5c-0.6-0.4-1-0.8-1.4-1.5c-0.3-0.6-0.5-1.3-0.5-2.2c0-0.8,0.2-1.6,0.5-2.2
			c0.3-0.6,0.8-1.1,1.4-1.5c0.6-0.3,1.3-0.5,2.1-0.5c0.8,0,1.4,0.2,2,0.5c0.6,0.4,1,0.8,1.3,1.4c0.3,0.6,0.4,1.2,0.4,1.8
			c0,0.1,0,0.2,0,0.4c0,0.1,0,0.2,0,0.4H257c0,0.6,0.2,1.1,0.4,1.5s0.6,0.7,0.9,0.9c0.4,0.2,0.8,0.3,1.2,0.3c0.5,0,1-0.1,1.4-0.4
			c0.4-0.3,0.7-0.6,0.8-1h1.3c-0.2,0.7-0.6,1.3-1.2,1.8C261.3,163.2,260.5,163.4,259.6,163.4z M259.6,156.3c-0.6,0-1.2,0.2-1.7,0.6
			c-0.5,0.4-0.8,1-0.9,1.7h5c0-0.7-0.3-1.3-0.7-1.7C260.8,156.5,260.3,156.3,259.6,156.3z"/>
		<path class="st1" d="M268.7,163.4c-0.8,0-1.5-0.2-2.1-0.5c-0.6-0.4-1.1-0.9-1.4-1.5s-0.5-1.3-0.5-2.1s0.2-1.5,0.5-2.1
			s0.8-1.1,1.4-1.5s1.3-0.5,2.1-0.5c0.6,0,1.2,0.1,1.7,0.4s0.9,0.6,1.2,1.1v-4.9h1.3v11.5h-1.2l-0.1-1.3c-0.3,0.4-0.6,0.7-1.1,1
			C270.1,163.3,269.5,163.4,268.7,163.4z M268.9,162.3c0.5,0,1-0.1,1.4-0.4c0.4-0.2,0.7-0.6,1-1c0.2-0.5,0.3-1,0.3-1.6
			s-0.1-1.1-0.3-1.6c-0.2-0.5-0.6-0.8-1-1s-0.9-0.4-1.4-0.4s-1,0.1-1.4,0.4s-0.7,0.6-1,1c-0.2,0.5-0.3,1-0.3,1.6s0.1,1.1,0.3,1.6
			c0.2,0.5,0.6,0.8,1,1C267.9,162.2,268.4,162.3,268.9,162.3z"/>
		<path class="st1" d="M275.7,163.3c-0.3,0-0.5-0.1-0.7-0.3s-0.3-0.4-0.3-0.6s0.1-0.5,0.3-0.7c0.2-0.2,0.4-0.3,0.7-0.3
			c0.3,0,0.5,0.1,0.6,0.3c0.2,0.2,0.3,0.4,0.3,0.7s-0.1,0.5-0.3,0.6C276.1,163.3,275.9,163.3,275.7,163.3z"/>
		<path class="st2" d="M23.2,60c0.5-0.3,0.9-0.5,1.4-0.5c0.4,0,0.6,0.1,0.8,0.4c0.2,0.2,0.3,0.6,0.3,1.4s0.1,2.5,0.1,5.2
			c0,1.7,0,3,0,3.9s0,1.6,0,2s0.1,1,0.1,1.9c0.1,0.9,0.1,1.8,0.2,2.8l0.1,3.1l-0.8,0.6c-0.5,0.3-0.8,0.5-1.1,0.5
			c-0.3,0-0.7-0.2-1.2-0.5l-0.5-0.4l-0.1-7c-0.1-3.1-0.1-6-0.1-8.8v-1.1v-2.9L23.2,60z"/>
		<path class="st2" d="M40,70.1c0,0.8-0.6,1.4-1.4,1.4H31c-0.8,0-1.4-0.6-1.4-1.4s0.6-1.4,1.4-1.4h7.6C39.4,68.8,40,69.4,40,70.1z"
			/>
		<path class="st2" d="M46.3,60.2c0.5-0.2,1-0.4,1.6-0.4c1.4,0,2.4,0.6,3,1.8c0.2,0.5,0.3,1.5,0.3,2.9c0,2.2-0.2,4-0.6,5.3
			c-0.3,0.8-0.5,1.4-0.8,2c-0.2,0.6-0.5,1.2-0.7,1.7c0,0.1-0.2,0.5-0.4,1.2s-0.4,1.2-0.6,1.4c-0.3,0.8-0.5,1.4-0.5,1.6
			c0,0.3,0.2,0.5,0.7,0.5h1.1h0.2c0.4,0,0.8,0.1,1.3,0.4c0.4,0.2,0.7,0.5,0.8,0.8c0.1,0.2,0.1,0.4,0.1,0.5c0,0.8-0.9,1.3-2.9,1.3
			c-0.6,0-1.1,0-1.4,0C46,81.1,45,81,44.4,80.8s-0.9-0.5-1-0.9c0-0.1,0-0.2,0-0.4c0-0.6,0.5-2,1.4-4.3c1.9-4.7,2.9-8.2,2.9-10.5
			c0-0.8,0-1.2-0.1-1.4c-0.1-0.2-0.2-0.3-0.5-0.3c-1.7-0.4-2.6-0.7-2.6-1.1c0-0.1,0.1-0.3,0.3-0.6C45.2,60.9,45.7,60.5,46.3,60.2z"
			/>
		<path class="st2" d="M25.4,88.4c0.2-0.1,0.8-0.2,1.6-0.2c1,0,1.6,0.1,2,0.3c0.3,0.2,0.6,0.4,0.9,0.8s0.5,0.7,0.5,1.1
			c0,0.1,0,0.2,0,0.4c0,0.3-0.2,0.6-0.5,1.1c-0.5,0.5-0.9,0.8-1.2,0.8c-0.4,0-0.7-0.2-1-0.6s-0.6-0.6-0.9-0.6
			c-0.2,0-0.5,0.2-0.8,0.6s-0.4,0.8-0.4,1.2c0,0.5,0.2,1.2,0.5,2.3s0.6,1.8,0.9,2.2c0.3,0.5,0.8,1.2,1.3,2.2c0.6,1.2,0.9,1.8,1,1.8
			c0.1,0.1,0.2,0.4,0.2,0.6c0,0.4,0.1,0.9,0.3,1.4c0.2,0.5,0.4,1.1,0.5,1.8c0,0.1,0,0.3,0,0.7c0,1.5-0.3,2.7-0.9,3.4
			c-0.2,0.4-0.7,0.7-1.3,1c-0.6,0.3-1.2,0.5-1.7,0.5c-0.6,0-1.4-0.3-2.3-1s-1.4-1.4-1.7-2.1c-0.2-0.4-0.2-0.8,0-1.1
			c0.4-0.5,0.8-0.8,1.4-0.8c0.1,0,0.3,0,0.4,0.1c0.2,0.1,0.4,0.5,0.8,1c0.4,0.6,0.8,0.8,1.1,0.8c0.2,0,0.4-0.1,0.6-0.4
			c0.1-0.2,0.1-0.5,0.1-0.8c0-1-0.2-1.9-0.6-2.9c-0.2-0.6-0.4-1-0.4-1.3c0-0.1-0.3-0.9-1-2.3c-0.5-1.1-1-2.1-1.4-3.1
			c-0.7-2-1-3.4-1-4.2c0-1.1,0.3-2.1,1-2.9C24.2,89.3,24.8,88.7,25.4,88.4z"/>
		<path class="st2" d="M35.6,87.8c0.4-0.3,1-0.5,1.6-0.5c0.1,0,0.2,0,0.5,0s0.5,0,0.7,0c2.9,0.1,4.6,0.3,5.3,0.7
			c0.5,0.2,0.8,0.6,0.8,1.2c0,0.2-0.1,0.5-0.2,0.8c-0.2,0.4-0.6,0.6-1.3,0.7c-0.6,0.1-1,0.2-1.1,0.3c-0.1,0.1-0.2,2.7-0.2,7.9
			c0,2,0,5.2,0.1,9.4v0.6c0,0.5,0,0.8-0.1,1s-0.2,0.4-0.5,0.6c-0.4,0.4-0.7,0.5-1.1,0.5c-0.3,0-0.7-0.2-1.1-0.5
			c-0.4-0.2-0.6-0.4-0.7-0.6c-0.1-0.2-0.1-0.7-0.2-1.6c0-0.3,0-1,0-2.1s0-2,0-2.8c0-0.6,0-1.8,0-3.4s0-3,0-4v-1.9
			c0-1.8,0-2.8-0.1-3.1c-0.1-0.3-0.5-0.5-1.3-0.6s-1.3-0.3-1.5-0.6c-0.2-0.3-0.3-0.6-0.3-1C35,88.6,35.2,88.2,35.6,87.8z"/>
		<path class="st2" d="M53.9,88.4c0.5-0.1,0.9-0.2,1.3-0.2c0.8,0,1.4,0.2,1.8,0.5c0.4,0.2,0.7,0.7,0.9,1.3c0.2,0.6,0.4,1.7,0.6,3.2
			c0.3,2,0.4,3.1,0.5,3.2c0.1,0.3,0.2,1.1,0.4,2.4s0.2,2.2,0.2,2.6c0,0.1,0,0.2,0,0.3c0,0.1,0,0.2,0,0.4c0,0.7,0.1,1.9,0.2,3.4
			s0.3,2.6,0.4,3.3c0.1,0.4,0.1,0.7,0.1,0.8c0,0.9-0.3,1.5-1,1.6h-0.1c-0.1,0-0.1,0-0.1,0c-0.4,0-0.8-0.1-1.4-0.3
			c-0.5-0.2-0.8-0.4-1-0.6c-0.2-0.3-0.3-1.5-0.5-3.5c-0.1-2-0.3-3.1-0.5-3.3c-0.1-0.1-0.4-0.2-0.9-0.2c-0.4,0-0.7,0-0.9,0l-1.6,0.1
			l0.1,1.5c0.1,1.6,0.2,2.9,0.2,3.7v0.6c0,0.2-0.2,0.4-0.5,0.5c-0.3,0.2-0.7,0.2-1.1,0.2c-0.3,0-0.6,0-0.8-0.1
			c-0.5-0.2-0.8-0.4-1-0.6c-0.1-0.2-0.2-0.7-0.2-1.5c0-0.6,0-1.5,0.1-2.6c0.2-2.7,0.3-4.6,0.4-5.7c0.1-2.1,0.3-3.7,0.5-4.8
			c0.2-1.1,0.5-2.1,1-3.2C51.6,89.8,52.6,88.8,53.9,88.4z M55,93c-0.1-0.5-0.2-0.8-0.4-0.8s-0.5,0.4-0.9,1.3c-0.4,1-0.7,2.3-1,3.9
			c-0.1,1-0.2,1.6-0.2,1.7c0,0.4,0.1,0.7,0.2,0.9c0.2,0.2,0.5,0.2,0.9,0.2c0.1,0,0.2,0,0.3,0c0.2,0,0.3,0,0.4,0l1.2-0.1l-0.1-2.5
			C55.5,96.3,55.3,94.8,55,93z"/>
		<path class="st2" d="M65.5,88c0.4-0.2,0.9-0.3,1.3-0.3c0.8,0,1.4,0.5,1.7,1.6c0.2,0.8,0.6,1.7,1,2.7c0.4,0.9,0.8,1.6,0.9,2.1
			c0.2,0.8,0.5,1.4,0.7,1.7c0.2,0.2,0.3,0.3,0.3,0.2c0,0,0.1-0.2,0.2-0.6c0.1-0.2,0.1-1.2,0.2-2.7c0-0.4,0-0.9,0-1.5
			c0-0.7,0-1,0-1.2c0-0.5,0.2-1,0.6-1.3s0.8-0.5,1.4-0.6c0.6,0,1,0.1,1.3,0.4c0.2,0.2,0.4,0.6,0.4,1c0,0.1,0,0.6-0.1,1.5
			c-0.1,1.5-0.2,4.9-0.2,10.3v4.5c0,1.8,0,2.9-0.1,3.3s-0.2,0.7-0.3,0.9c-0.3,0.2-0.8,0.4-1.3,0.4c-0.6,0-1.1-0.1-1.5-0.4
			c-0.3-0.2-0.5-0.7-0.7-1.2c-0.1-0.4-0.3-1.3-0.8-2.8c-0.5-1.4-0.7-2.4-0.8-2.9c-0.2-0.8-0.4-1.8-0.8-3s-0.6-1.8-0.7-1.8
			s-0.1,1.1-0.1,3.2v2.1v2.2c0,2.1,0,3.4-0.1,3.8s-0.3,0.8-0.7,1c-0.3,0.3-0.7,0.4-1.2,0.4s-1-0.2-1.3-0.5s-0.4-0.6-0.4-0.9
			c0-0.1,0-0.3,0.1-0.7c0.1-0.7,0.2-4.3,0.2-10.8v-9.8L65.5,88z"/>
		<path class="st2" d="M80.4,89.8c0.1,0,0.5,0,1.3,0h0.8c1.9,0,3.2,0.6,4,1.7c0.3,0.4,0.7,1.4,1.1,2.8s0.6,2.7,0.7,3.7v0.7
			c0,1.8-0.3,3.8-0.8,6.1c-0.5,2.3-1.1,3.8-1.7,4.5c-0.4,0.4-0.9,0.8-1.7,1.2c-0.8,0.4-1.5,0.6-2.2,0.6c-0.8,0-1.3-0.3-1.7-0.9
			c-0.1-0.3-0.2-1.9-0.2-5v-2v-2c0-3.3-0.1-5.8-0.2-7.4c-0.1-1-0.1-1.7-0.1-2.3C79.6,90.5,79.9,89.9,80.4,89.8z M83.8,93.5
			c-0.3-0.5-0.4-0.8-0.5-0.8c-0.2,0-0.3,0.2-0.3,0.8c0,0,0,0.1,0,0.2s0,0.2,0,0.2c0,0.2,0.1,1.9,0.2,5.3s0.2,5.3,0.3,5.6
			c0.1,0.4,0.1,0.6,0.1,0.6l0.2-0.4c0.4-1,0.7-2.8,0.9-5.3c0-0.1,0-0.2,0-0.3c0-0.2,0-0.3,0-0.4C84.9,96.8,84.5,94.9,83.8,93.5z"/>
		<path class="st2" d="M97.6,88.4c0.5-0.1,0.9-0.2,1.3-0.2c0.8,0,1.4,0.2,1.8,0.5c0.4,0.2,0.7,0.7,0.9,1.3c0.2,0.6,0.4,1.7,0.6,3.2
			c0.3,2,0.4,3.1,0.5,3.2c0.1,0.3,0.2,1.1,0.4,2.4c0.2,1.3,0.2,2.2,0.2,2.6c0,0.1,0,0.2,0,0.3c0,0.1,0,0.2,0,0.4
			c0,0.7,0.1,1.9,0.2,3.4s0.3,2.6,0.4,3.3c0.1,0.4,0.1,0.7,0.1,0.8c0,0.9-0.3,1.5-1,1.6h-0.1c-0.1,0-0.1,0-0.1,0
			c-0.4,0-0.8-0.1-1.4-0.3c-0.5-0.2-0.8-0.4-1-0.6c-0.2-0.3-0.3-1.5-0.5-3.5c-0.1-2-0.3-3.1-0.5-3.3c-0.1-0.1-0.4-0.2-0.9-0.2
			c-0.4,0-0.7,0-0.9,0l-1.6,0.1l0.1,1.5c0.1,1.6,0.2,2.9,0.2,3.7v0.6c0,0.2-0.2,0.4-0.5,0.5c-0.3,0.2-0.7,0.2-1.1,0.2
			c-0.3,0-0.6,0-0.8-0.1c-0.5-0.2-0.8-0.4-0.9-0.6c-0.2-0.2-0.2-0.7-0.2-1.5c0-0.6,0-1.5,0.1-2.6c0.2-2.7,0.3-4.6,0.4-5.7
			c0.1-2.1,0.3-3.7,0.5-4.8c0.2-1.1,0.5-2.1,1-3.2C95.4,89.8,96.4,88.8,97.6,88.4z M98.8,93c-0.1-0.5-0.2-0.8-0.4-0.8
			c-0.2,0-0.5,0.4-0.9,1.3c-0.4,1-0.7,2.3-1,3.9c-0.1,1-0.2,1.6-0.2,1.7c0,0.4,0.1,0.7,0.2,0.9s0.5,0.2,0.9,0.2c0.1,0,0.2,0,0.3,0
			c0.2,0,0.3,0,0.4,0l1.2-0.1l-0.1-2.5C99.3,96.3,99.1,94.8,98.8,93z"/>
		<path class="st2" d="M109.8,88.1c0.1-0.1,0.6-0.2,1.4-0.2c1,0,1.7,0.1,2.1,0.2c0.7,0.3,1.2,0.8,1.5,1.3c0.3,0.6,0.6,1.5,0.7,2.8
			c0.1,1.1,0.2,1.8,0.2,2.3c0,2.2-0.5,3.9-1.5,5.3c-0.2,0.2-0.1,0.6,0.3,1.1c0.3,0.5,0.6,0.9,0.7,1.2c0.1,0.4,0.5,1.1,1,2.1
			c1,1.8,1.5,3.2,1.5,4c0,0.5-0.1,0.8-0.3,1.1c-0.2,0.3-0.5,0.5-0.8,0.5c-0.2,0-0.5,0-0.7,0c-0.7-0.1-1.2-0.2-1.3-0.3
			c-0.2-0.1-0.3-0.3-0.3-0.7c0-0.5-0.3-1.4-0.9-2.5c-0.6-1.2-1-1.7-1.3-1.7l0,0c-0.1,0-0.1,0.3-0.1,0.8c0,0.7,0.1,1.6,0.3,2.9
			c0.1,0.5,0.1,0.8,0.1,0.9c0,1-0.2,1.6-0.6,1.8c-0.2,0.1-0.4,0.1-0.7,0.1c-0.9,0-1.5-0.2-1.7-0.7c-0.2-0.3-0.3-2.2-0.3-5.6
			c-0.1-5.6-0.2-9.7-0.5-12.2c-0.1-1.1-0.2-2-0.2-2.5s0.1-0.9,0.3-1.2c0.3-0.4,0.5-0.6,0.8-0.6C109.5,88.3,109.7,88.3,109.8,88.1z
			 M112.3,91.9c-0.2-0.6-0.4-0.9-0.6-1l0,0c-0.1,0-0.2,0.3-0.2,0.8c0,0.1,0,0.8,0.1,2.2c0.1,2.1,0.2,3.2,0.2,3.2
			c0.1,0.1,0.2,0,0.4-0.2c0.2-0.2,0.3-1.2,0.3-2.9C112.5,93,112.4,92.3,112.3,91.9z"/>
		<path class="st2" d="M122.9,89.8c0.1,0,0.5,0,1.3,0h0.8c1.9,0,3.2,0.6,4,1.7c0.3,0.4,0.7,1.4,1.1,2.8c0.4,1.4,0.6,2.7,0.7,3.7v0.7
			c0,1.8-0.3,3.8-0.8,6.1c-0.5,2.3-1.1,3.8-1.7,4.5c-0.4,0.4-0.9,0.8-1.7,1.2s-1.5,0.6-2.2,0.6c-0.8,0-1.3-0.3-1.7-0.9
			c-0.1-0.3-0.2-1.9-0.2-5v-2v-2c0-3.3-0.1-5.8-0.2-7.4c-0.1-1-0.1-1.7-0.1-2.3C122.1,90.5,122.4,89.9,122.9,89.8z M126.3,93.5
			c-0.3-0.5-0.4-0.8-0.5-0.8c-0.2,0-0.3,0.2-0.3,0.8c0,0,0,0.1,0,0.2s0,0.2,0,0.2c0,0.2,0.1,1.9,0.2,5.3s0.2,5.3,0.3,5.6
			c0.1,0.4,0.1,0.6,0.1,0.6l0.2-0.4c0.4-1,0.7-2.8,0.9-5.3c0-0.1,0-0.2,0-0.3c0-0.2,0-0.3,0-0.4C127.4,96.8,127,94.9,126.3,93.5z"/>
		<path class="st2" d="M23.1,119.4c0.1,0,0.5,0,1.3,0h0.8c1.9,0,3.2,0.6,4,1.7c0.3,0.5,0.7,1.4,1.1,2.8s0.6,2.7,0.7,3.7v0.7
			c0,1.8-0.3,3.8-0.8,6.1c-0.5,2.3-1.1,3.8-1.7,4.5c-0.4,0.4-0.9,0.8-1.7,1.2c-0.8,0.4-1.5,0.6-2.2,0.6c-0.8,0-1.3-0.3-1.7-0.9
			c-0.1-0.3-0.2-1.9-0.2-5v-2v-2c0-3.3-0.1-5.8-0.2-7.4c-0.1-0.9-0.1-1.7-0.1-2.3C22.4,120.1,22.6,119.5,23.1,119.4z M26.5,123.1
			c-0.3-0.5-0.4-0.8-0.5-0.8c-0.2,0-0.3,0.2-0.3,0.8c0,0,0,0.1,0,0.2s0,0.2,0,0.2c0,0.2,0.1,2,0.2,5.3c0.1,3.4,0.2,5.3,0.3,5.6
			c0.1,0.4,0.1,0.6,0.1,0.6l0.2-0.4c0.4-1,0.7-2.8,0.9-5.3c0-0.1,0-0.2,0-0.3c0-0.2,0-0.3,0-0.4C27.6,126.3,27.3,124.5,26.5,123.1z"
			/>
		<path class="st2" d="M37,117.7c0.1-0.1,0.6-0.2,1.4-0.2c1,0,1.7,0.1,2.1,0.2c0.7,0.3,1.2,0.8,1.5,1.3c0.3,0.6,0.5,1.5,0.7,2.8
			c0.1,1.1,0.2,1.8,0.2,2.3c0,2.2-0.5,3.9-1.5,5.3c-0.2,0.2-0.1,0.6,0.3,1.1c0.3,0.5,0.6,0.9,0.7,1.2c0.1,0.4,0.5,1.1,1,2.1
			c1,1.9,1.5,3.2,1.5,4c0,0.4-0.1,0.8-0.3,1.1s-0.5,0.5-0.8,0.5c-0.2,0-0.5,0-0.7,0c-0.7-0.1-1.2-0.2-1.3-0.3
			c-0.2-0.1-0.3-0.3-0.3-0.7c0-0.5-0.3-1.4-0.9-2.5c-0.6-1.2-1-1.7-1.3-1.7l0,0c-0.1,0-0.1,0.3-0.1,0.8c0,0.7,0.1,1.6,0.3,2.9
			c0.1,0.4,0.1,0.8,0.1,0.9c0,1-0.2,1.6-0.6,1.8c-0.2,0.1-0.4,0.1-0.7,0.1c-0.9,0-1.5-0.2-1.7-0.7c-0.2-0.3-0.3-2.2-0.3-5.6
			c-0.1-5.6-0.2-9.7-0.5-12.2c-0.1-1.1-0.2-2-0.2-2.5s0.1-0.9,0.3-1.2c0.3-0.4,0.5-0.6,0.8-0.6C36.7,117.9,36.9,117.9,37,117.7z
			 M39.4,121.5c-0.2-0.6-0.4-0.9-0.6-1l0,0c-0.1,0-0.2,0.3-0.2,0.8c0,0.1,0,0.8,0.1,2.2c0.1,2.1,0.2,3.2,0.2,3.2
			c0.1,0.1,0.2,0,0.4-0.2s0.3-1.2,0.3-2.9C39.7,122.6,39.6,121.9,39.4,121.5z"/>
		<path class="st2" d="M49.6,118.7c0.3-0.2,0.7-0.4,1.2-0.4c0.6,0,1,0.2,1.3,0.5c0.2,0.3,0.4,0.7,0.5,1.2s0.1,2.3,0.2,5.2
			c0.1,5.7,0.2,9.1,0.2,10.3v4.5l-0.7,0.4c-0.4,0.2-0.6,0.3-0.7,0.3c-0.2,0-0.5-0.1-0.9-0.2c-0.7-0.3-1.1-0.5-1.1-0.6
			c-0.1-0.1-0.2-2.2-0.2-6.3v-1.9c0-5.1-0.1-8.5-0.2-10.2c-0.1-1-0.1-1.5-0.1-1.6C49.2,119.3,49.4,119,49.6,118.7z"/>
		<path class="st2" d="M58.4,117.6c0.4-0.2,0.9-0.3,1.3-0.3c0.8,0,1.4,0.5,1.7,1.6c0.2,0.8,0.6,1.7,1,2.6s0.8,1.6,0.9,2.1
			c0.2,0.8,0.5,1.4,0.7,1.7c0.2,0.2,0.3,0.3,0.3,0.2c0,0,0.1-0.2,0.2-0.6c0.1-0.2,0.1-1.1,0.2-2.7c0-0.4,0-0.9,0-1.5
			c0-0.7,0-1,0-1.2c0-0.5,0.2-1,0.6-1.3s0.8-0.5,1.4-0.5s1,0.1,1.3,0.4c0.2,0.2,0.4,0.6,0.4,1c0,0.1,0,0.6-0.1,1.5
			c-0.1,1.5-0.2,4.9-0.2,10.3v4.5c0,1.8,0,2.9-0.1,3.3s-0.2,0.7-0.3,0.9c-0.3,0.2-0.8,0.4-1.3,0.4c-0.6,0-1.1-0.1-1.5-0.4
			c-0.3-0.2-0.5-0.7-0.7-1.2c-0.1-0.4-0.3-1.3-0.8-2.8c-0.4-1.4-0.7-2.4-0.8-2.9c-0.2-0.8-0.4-1.8-0.8-3c-0.4-1.2-0.6-1.8-0.7-1.8
			c-0.1,0-0.1,1.1-0.1,3.2v2.1v2.2c0,2.1,0,3.4-0.1,3.8c-0.1,0.4-0.3,0.8-0.6,1c-0.4,0.3-0.7,0.4-1.2,0.4s-1-0.2-1.3-0.5
			s-0.4-0.6-0.4-0.9c0-0.1,0-0.3,0.1-0.7c0.1-0.7,0.2-4.3,0.2-10.8v-9.8L58.4,117.6z"/>
		<path class="st2" d="M79.7,118.1c0.4-0.4,0.8-0.5,1-0.5c0.3,0,0.7,0.2,1.2,0.4c0.4,0.3,0.7,0.5,0.7,0.7c0,0.4-1.1,2.6-3.4,6.6
			c-0.8,1.3-1.1,2.2-1.1,2.5c0,0.3,0.2,0.8,0.8,1.5c1.2,1.9,2,3.4,2.4,4.4c0.2,0.7,0.5,1.3,0.8,1.6c1.3,1.9,1.9,3.2,1.9,3.9
			c0,0.4-0.2,0.8-0.5,1c-0.4,0.2-0.8,0.4-1.3,0.4c-1.1,0-1.7-0.4-1.9-1.2c-0.1-0.4-0.3-1-0.6-1.7c-0.3-0.7-0.6-1.2-0.7-1.4
			c-0.2-0.2-0.4-0.6-0.6-1.2s-0.6-1.4-1.1-2.3s-0.8-1.3-1-1.3c-0.1,0-0.2,0.4-0.2,1.2c0,1,0.1,2.6,0.3,4.7c0.1,0.7,0.1,1.3,0.1,1.6
			c0,0.5-0.1,0.8-0.3,1c-0.2,0.2-0.6,0.3-1.2,0.4c-0.2,0-0.4,0-0.6,0c-0.3,0-0.6-0.2-0.9-0.5l-0.6-0.6l0.2-3
			c0.1-1.6,0.1-2.6,0.1-3.1c0-0.7-0.1-2-0.2-3.8c0-0.6-0.1-1.8-0.1-3.5c-0.1-1.8-0.1-2.8-0.1-3.2l-0.1-3.9l0.5-0.3
			c0.2-0.1,0.3-0.1,0.5-0.1s0.7,0.2,1.4,0.5c0.2,0.1,0.3,1,0.4,2.5c0.1,1.7,0.1,2.7,0.2,2.9c0.1,0.2,0.1,0.3,0.2,0.4
			c0.1,0,0.2-0.1,0.4-0.2c0.2-0.2,0.4-0.5,0.6-0.8c0-0.1,0.3-0.7,0.9-1.5c0.6-0.9,1-1.7,1.2-2.3C78.9,119.1,79.3,118.5,79.7,118.1z"
			/>
		<path class="st2" d="M91.4,118c0.2-0.1,0.8-0.2,1.6-0.2c1,0,1.6,0.1,2,0.3c0.3,0.2,0.6,0.4,0.9,0.8s0.5,0.7,0.5,1.1
			c0,0.1,0,0.2,0,0.4c0,0.3-0.2,0.6-0.5,1.1c-0.5,0.5-0.9,0.8-1.2,0.8c-0.4,0-0.7-0.2-1-0.6s-0.6-0.6-0.9-0.6
			c-0.2,0-0.5,0.2-0.8,0.6s-0.4,0.8-0.4,1.2c0,0.5,0.2,1.2,0.5,2.3s0.6,1.8,0.9,2.2c0.3,0.5,0.8,1.2,1.3,2.2c0.6,1.1,0.9,1.8,1,1.8
			c0.1,0.1,0.2,0.3,0.2,0.6c0,0.4,0.1,0.9,0.3,1.4c0.2,0.5,0.4,1.1,0.5,1.8c0,0.1,0,0.3,0,0.7c0,1.5-0.3,2.7-0.9,3.4
			c-0.2,0.4-0.7,0.7-1.3,1c-0.6,0.3-1.2,0.5-1.7,0.5c-0.6,0-1.4-0.3-2.3-1s-1.4-1.4-1.7-2.1c-0.2-0.5-0.2-0.8,0-1.1
			c0.4-0.5,0.8-0.8,1.4-0.8c0.1,0,0.3,0,0.4,0.1c0.2,0.1,0.4,0.5,0.8,1c0.4,0.6,0.8,0.8,1.1,0.8c0.2,0,0.4-0.1,0.5-0.4
			c0.1-0.2,0.1-0.5,0.1-0.8c0-1-0.2-1.9-0.6-2.9c-0.2-0.6-0.4-1-0.4-1.3c0-0.1-0.3-0.9-1-2.3c-0.5-1.1-1-2.1-1.4-3.1
			c-0.7-2-1-3.4-1-4.2c0-1.1,0.3-2.1,1-2.9C90.2,118.9,90.9,118.3,91.4,118z"/>
		<path class="st3" d="M222.3,140.9c33.9,0,61.3-3.5,61.3-7.8s-27.5-7.8-61.3-7.8s-61.3,3.5-61.3,7.8
			C160.9,137.4,188.4,140.9,222.3,140.9z"/>
		<path class="st4" d="M196.3,87.1h-2.9c-0.6,0-1,0.4-1,1v32.8c0,0.3-0.1,0.5-0.3,0.7c-1.3,1.3-6.8,6.3-11.6,9
			c-0.9,0.5-0.5,1.9,0.5,1.9h27.8c1,0,1.4-1.4,0.5-1.9c-4.8-2.8-10.3-7.8-11.6-9c-0.2-0.2-0.3-0.5-0.3-0.7V88.1
			C197.3,87.6,196.8,87.1,196.3,87.1z"/>
		<path class="st5" d="M209.7,31.4h-29.8c-0.6,0-1.3,0.3-1.6,0.9c-2.4,3.5-10.7,17.2-6.3,35.8c5.1,21.6,20.4,21,20.4,21v0.2h4.9
			v-0.2c0,0,15.3,0.6,20.4-21c4.4-18.6-3.9-32.4-6.3-35.8C211,31.7,210.4,31.4,209.7,31.4z"/>
		<path class="st6" d="M174.3,66.8c0,0.2,0.1,0.3,0.1,0.4C179,86.5,192.6,86,192.6,86v0.2h4.4V86c0,0,13.7,0.5,18.2-18.8
			c0-0.1,0.1-0.3,0.1-0.4H174.3z"/>
		<path class="st7" d="M268.3,51.7c-1-0.8-1.6-2-1.8-3.2l-2.8-34.6h-12.2l-2.8,34.6c-0.2,1.2-0.8,2.4-1.8,3.2
			c-3.2,2.4-5.3,6.1-5.3,10.5v63.7c0,3.8,3,6.9,6.9,6.9h18.4c3.8,0,6.9-3,6.9-6.9V62.4C273.6,58,271.5,54.1,268.3,51.7z"/>
		<path class="st8" d="M264.9,15.3c0-0.1,0-0.1-0.1-0.2l-0.6-2.4c-0.4-1.2-1.4-2-2.7-2h-7.8c-1.2,0-2.5,0.8-2.7,2l-0.6,2.4
			c0,0.1,0,0.1,0,0.2H264.9z"/>
	</g>
</g>
</svg>
