<?xml version="1.0" encoding="utf-8"?>
<!-- Generator: Adobe Illustrator 25.1.0, SVG Export Plug-In . SVG Version: 6.00 Build 0)  -->
<svg version="1.1" id="Layer_1" xmlns="http://www.w3.org/2000/svg" xmlns:xlink="http://www.w3.org/1999/xlink" x="0px" y="0px"
	 viewBox="0 0 338.7 380.4" style="enable-background:new 0 0 338.7 380.4;" xml:space="preserve">
<style type="text/css">
	.st0{fill:#FFFFFF;}
	.st1{fill:#808080;}
	.st2{fill:#00A878;}
	.st3{fill:#F4F1EF;}
	.st4{fill:#00CDDC;}
	.st5{fill:#28C86E;}
	.st6{fill:#3CDC82;}
	.st7{fill:#32DCD2;}
	.st8{fill:none;stroke:#28C86E;stroke-width:1.3444;stroke-linecap:round;stroke-miterlimit:10;}
	.st9{fill:#FFCF8D;}
	.st10{fill:#FF9F1A;}
	.st11{fill:#CCF6F4;}
	.st12{fill:#F8FFFF;}
	.st13{fill:#F4F0EE;}
	.st14{fill:#646464;}
	.st15{fill:#00A976;}
	.st16{fill:none;stroke:#28C86E;stroke-width:0.8924;stroke-linecap:round;stroke-miterlimit:10;}
	.st17{fill:#F6F0EE;}
</style>
<g>
	<g>
		<path class="st0" d="M332.8,280.1c5.4-70.1,12.3-232.5-5.4-257.4C305.8-7.6,99.6-0.2,55.2,3.8C38.8,5.3,17.6,0,8.7,41.7
			c-13.2,61.6-7.1,127.5-8.1,198.8c-1,69.9-4.3,129.1,35.4,130.7c133,5.4,188.4,14.6,257.5,5C327.1,371.6,328,342.6,332.8,280.1z"/>
		<path class="st1" d="M19.8,57.6V46.4h6.9v1.1h-5.6v3.9h5.1v1.1h-5.1v4h5.6v1.1L19.8,57.6L19.8,57.6z"/>
		<path class="st1" d="M27.9,57.6l2.8-4l-2.8-4h1.5l2.2,3.3l2.2-3.3h1.4l-2.8,4l2.8,4h-1.4l-2.2-3.3l-2.2,3.3H27.9z"/>
		<path class="st1" d="M39.9,57.8c-0.8,0-1.4-0.2-2-0.5s-1-0.8-1.4-1.5c-0.3-0.6-0.5-1.4-0.5-2.2s0.2-1.6,0.5-2.2
			c0.3-0.6,0.8-1.1,1.4-1.5c0.6-0.4,1.3-0.5,2.1-0.5s1.4,0.2,2,0.5s1,0.8,1.3,1.4s0.4,1.2,0.4,1.8c0,0.1,0,0.2,0,0.3s0,0.2,0,0.4
			h-6.3c0,0.6,0.2,1.1,0.4,1.5s0.6,0.7,0.9,0.9c0.4,0.2,0.8,0.3,1.2,0.3c0.5,0,1-0.1,1.4-0.4s0.7-0.6,0.8-1h1.3
			c-0.2,0.7-0.6,1.4-1.2,1.8C41.6,57.5,40.8,57.8,39.9,57.8z M39.9,50.6c-0.6,0-1.2,0.2-1.7,0.6c-0.5,0.4-0.8,1-0.9,1.7h5
			c0-0.7-0.3-1.3-0.7-1.7C41.1,50.8,40.6,50.6,39.9,50.6z"/>
		<path class="st1" d="M45.4,57.6v-7.9h1.2l0.1,1.5c0.2-0.5,0.6-0.9,1.1-1.2s1.1-0.5,1.9-0.5v1.4h-0.4c-0.5,0-0.9,0.1-1.3,0.2
			c-0.4,0.2-0.7,0.5-0.9,0.8c-0.2,0.4-0.3,0.9-0.3,1.6v4L45.4,57.6L45.4,57.6z"/>
		<path class="st1" d="M54.6,57.8c-0.8,0-1.4-0.2-2-0.5s-1.1-0.8-1.4-1.5c-0.4-0.6-0.5-1.3-0.5-2.2c0-0.8,0.2-1.6,0.5-2.2
			c0.3-0.6,0.8-1.1,1.4-1.5c0.6-0.4,1.3-0.5,2-0.5c0.9,0,1.7,0.2,2.4,0.7c0.6,0.5,1.1,1.1,1.2,2h-1.4c-0.1-0.5-0.4-0.9-0.8-1.1
			c-0.4-0.3-0.9-0.4-1.5-0.4c-0.4,0-0.9,0.1-1.3,0.3c-0.4,0.2-0.7,0.6-1,1s-0.4,1-0.4,1.7s0.1,1.2,0.4,1.7s0.6,0.8,1,1
			s0.8,0.3,1.3,0.3c0.6,0,1-0.1,1.5-0.4c0.4-0.3,0.7-0.7,0.8-1.2h1.4c-0.2,0.8-0.6,1.5-1.2,2S55.5,57.8,54.6,57.8z"/>
		<path class="st1" d="M60.9,47.9c-0.3,0-0.5-0.1-0.7-0.3s-0.3-0.4-0.3-0.7s0.1-0.5,0.3-0.6c0.2-0.2,0.4-0.3,0.7-0.3
			c0.3,0,0.5,0.1,0.7,0.3s0.3,0.4,0.3,0.6c0,0.3-0.1,0.5-0.3,0.7C61.4,47.8,61.1,47.9,60.9,47.9z M60.2,57.6v-7.9h1.3v7.9H60.2z"/>
		<path class="st1" d="M66.9,57.8c-0.9,0-1.7-0.2-2.4-0.7c-0.6-0.5-1-1.1-1.1-1.9h1.4c0.1,0.4,0.3,0.8,0.7,1.1s0.8,0.5,1.5,0.5
			c0.6,0,1-0.1,1.2-0.4c0.3-0.2,0.4-0.5,0.4-0.9c0-0.5-0.2-0.8-0.5-1s-0.8-0.3-1.5-0.4c-0.4-0.1-0.8-0.2-1.3-0.4
			c-0.4-0.2-0.8-0.4-1.1-0.7c-0.3-0.3-0.4-0.7-0.4-1.2c0-0.7,0.3-1.3,0.8-1.7s1.2-0.7,2.1-0.7c0.8,0,1.5,0.2,2.1,0.6
			c0.5,0.4,0.8,1,0.9,1.8h-1.3c-0.1-0.4-0.2-0.7-0.5-0.9s-0.7-0.3-1.2-0.3s-0.9,0.1-1.1,0.3c-0.3,0.2-0.4,0.5-0.4,0.8
			s0.2,0.6,0.5,0.8s0.8,0.3,1.4,0.5c0.5,0.1,1,0.2,1.4,0.4s0.8,0.4,1.1,0.7c0.3,0.3,0.4,0.7,0.4,1.3c0,0.7-0.3,1.3-0.8,1.8
			C68.6,57.5,67.9,57.8,66.9,57.8z"/>
		<path class="st1" d="M75.5,57.8c-0.8,0-1.4-0.2-2-0.5c-0.6-0.4-1.1-0.8-1.4-1.5c-0.3-0.6-0.5-1.4-0.5-2.2s0.2-1.6,0.5-2.2
			c0.3-0.6,0.8-1.1,1.4-1.5s1.3-0.5,2.1-0.5c0.8,0,1.4,0.2,2,0.5s1,0.8,1.3,1.4c0.3,0.6,0.4,1.2,0.4,1.8c0,0.1,0,0.2,0,0.3
			s0,0.2,0,0.4H73c0,0.6,0.2,1.1,0.4,1.5s0.6,0.7,0.9,0.9c0.4,0.2,0.8,0.3,1.2,0.3c0.5,0,1-0.1,1.4-0.4c0.4-0.3,0.6-0.6,0.8-1H79
			c-0.2,0.7-0.6,1.4-1.2,1.8C77.2,57.5,76.4,57.8,75.5,57.8z M75.5,50.6c-0.6,0-1.2,0.2-1.7,0.6c-0.5,0.4-0.8,1-0.9,1.7h5
			c0-0.7-0.3-1.3-0.7-1.7C76.7,50.8,76.1,50.6,75.5,50.6z"/>
		<path class="st1" d="M85.2,57.6V46.1h1.3V51c0.3-0.5,0.7-0.9,1.1-1.1c0.5-0.3,1-0.4,1.6-0.4c0.9,0,1.7,0.3,2.2,0.9
			c0.5,0.6,0.8,1.4,0.8,2.6v4.6h-1.3v-4.5c0-1.6-0.7-2.5-2-2.5c-0.7,0-1.3,0.2-1.7,0.7c-0.5,0.5-0.7,1.2-0.7,2.1v4.1L85.2,57.6
			L85.2,57.6z"/>
		<path class="st1" d="M98,57.8c-0.8,0-1.4-0.2-2-0.5c-0.6-0.4-1-0.8-1.4-1.5c-0.3-0.6-0.5-1.4-0.5-2.2s0.2-1.6,0.5-2.2
			s0.8-1.1,1.4-1.5s1.3-0.5,2.1-0.5c0.8,0,1.4,0.2,2,0.5s1,0.8,1.3,1.4c0.3,0.6,0.4,1.2,0.4,1.8c0,0.1,0,0.2,0,0.3s0,0.2,0,0.4h-6.3
			c0,0.6,0.2,1.1,0.4,1.5s0.6,0.7,0.9,0.9c0.4,0.2,0.8,0.3,1.2,0.3c0.5,0,1-0.1,1.4-0.4s0.7-0.6,0.8-1h1.3c-0.2,0.7-0.6,1.4-1.2,1.8
			C99.7,57.5,98.9,57.8,98,57.8z M98,50.6c-0.6,0-1.2,0.2-1.7,0.6c-0.5,0.4-0.8,1-0.9,1.7h5c0-0.7-0.3-1.3-0.7-1.7
			C99.2,50.8,98.6,50.6,98,50.6z"/>
		<path class="st1" d="M103.5,57.6V46.1h1.3v11.5H103.5z"/>
		<path class="st1" d="M107,61.1V49.6h1.2l0.1,1.3c0.3-0.4,0.6-0.7,1.1-1s1.1-0.5,1.8-0.5c0.8,0,1.5,0.2,2.1,0.5
			c0.6,0.4,1,0.9,1.4,1.5c0.3,0.6,0.5,1.3,0.5,2.1s-0.2,1.5-0.5,2.1s-0.8,1.1-1.4,1.5s-1.3,0.5-2.1,0.5c-0.7,0-1.2-0.1-1.7-0.4
			s-0.9-0.6-1.2-1.1V61L107,61.1L107,61.1z M111.1,56.6c0.5,0,1-0.1,1.4-0.4s0.7-0.6,1-1.1c0.2-0.4,0.3-1,0.3-1.6s-0.1-1.1-0.3-1.6
			c-0.2-0.5-0.6-0.8-1-1.1s-0.9-0.4-1.4-0.4s-1,0.1-1.4,0.4c-0.4,0.2-0.7,0.6-1,1.1c-0.2,0.4-0.4,1-0.4,1.6s0.1,1.1,0.4,1.6
			c0.2,0.5,0.6,0.8,1,1.1S110.6,56.6,111.1,56.6z"/>
		<path class="st1" d="M120.1,57.8c-0.9,0-1.7-0.2-2.4-0.7c-0.6-0.5-1-1.1-1.1-1.9h1.4c0.1,0.4,0.3,0.8,0.7,1.1
			c0.4,0.3,0.8,0.5,1.5,0.5c0.6,0,1-0.1,1.2-0.4c0.3-0.2,0.4-0.5,0.4-0.9c0-0.5-0.2-0.8-0.5-1s-0.8-0.3-1.5-0.4
			c-0.4-0.1-0.9-0.2-1.3-0.4s-0.8-0.4-1.1-0.7c-0.3-0.3-0.4-0.7-0.4-1.2c0-0.7,0.3-1.3,0.8-1.7s1.2-0.7,2.1-0.7
			c0.8,0,1.5,0.2,2.1,0.6c0.5,0.4,0.8,1,0.9,1.8h-1.3c-0.1-0.4-0.2-0.7-0.5-0.9s-0.7-0.3-1.2-0.3s-0.9,0.1-1.1,0.3
			c-0.3,0.2-0.4,0.5-0.4,0.8s0.2,0.6,0.5,0.8s0.8,0.3,1.4,0.5c0.5,0.1,1,0.2,1.4,0.4s0.8,0.4,1.1,0.7s0.4,0.7,0.4,1.3
			c0,0.7-0.3,1.3-0.8,1.8C121.8,57.5,121.1,57.8,120.1,57.8z"/>
		<path class="st1" d="M19.7,83.1V71.6h1.2l0.1,1.3c0.3-0.4,0.6-0.7,1.1-1s1.1-0.5,1.8-0.5c0.8,0,1.5,0.2,2.1,0.5
			c0.6,0.4,1,0.9,1.4,1.5c0.3,0.6,0.5,1.3,0.5,2.1s-0.2,1.5-0.5,2.1s-0.8,1.1-1.4,1.5s-1.3,0.5-2.1,0.5c-0.7,0-1.2-0.1-1.7-0.4
			c-0.5-0.3-0.9-0.6-1.2-1.1V83L19.7,83.1L19.7,83.1z M23.8,78.6c0.5,0,1-0.1,1.4-0.4c0.4-0.2,0.7-0.6,1-1.1c0.2-0.4,0.4-1,0.4-1.6
			s-0.1-1.1-0.4-1.6c-0.2-0.5-0.6-0.8-1-1.1c-0.4-0.2-0.9-0.4-1.4-0.4s-1,0.1-1.4,0.4s-0.7,0.6-1,1.1c-0.2,0.4-0.4,1-0.4,1.6
			s0.1,1.1,0.4,1.6c0.2,0.5,0.5,0.8,1,1.1C22.8,78.5,23.2,78.6,23.8,78.6z"/>
		<path class="st1" d="M33.3,79.8c-0.8,0-1.4-0.2-2-0.5s-1-0.8-1.4-1.5c-0.3-0.6-0.5-1.4-0.5-2.2s0.2-1.6,0.5-2.2
			c0.3-0.6,0.8-1.1,1.4-1.5c0.6-0.4,1.3-0.5,2.1-0.5s1.4,0.2,2,0.5s1,0.8,1.3,1.4s0.5,1.2,0.5,1.8c0,0.1,0,0.2,0,0.3s0,0.2,0,0.4
			h-6.3c0,0.6,0.2,1.1,0.4,1.5s0.6,0.7,0.9,0.9c0.4,0.2,0.8,0.3,1.2,0.3c0.5,0,1-0.1,1.4-0.4c0.4-0.3,0.6-0.6,0.8-1h1.2
			c-0.2,0.7-0.6,1.4-1.2,1.8C35,79.5,34.2,79.8,33.3,79.8z M33.3,72.6c-0.6,0-1.2,0.2-1.7,0.6c-0.5,0.4-0.8,1-0.9,1.7h5
			c0-0.7-0.3-1.3-0.7-1.7C34.5,72.8,34,72.6,33.3,72.6z"/>
		<path class="st1" d="M42.5,79.8c-0.8,0-1.4-0.2-2-0.5s-1.1-0.8-1.4-1.4s-0.5-1.4-0.5-2.2s0.2-1.6,0.5-2.2c0.4-0.6,0.8-1.1,1.4-1.5
			c0.6-0.3,1.3-0.5,2-0.5c0.8,0,1.4,0.2,2,0.5s1.1,0.8,1.4,1.5c0.3,0.6,0.5,1.4,0.5,2.2s-0.2,1.6-0.5,2.2s-0.8,1.1-1.4,1.4
			S43.2,79.8,42.5,79.8z M42.5,78.6c0.5,0,0.9-0.1,1.3-0.3c0.4-0.2,0.7-0.6,1-1s0.4-1,0.4-1.7s-0.1-1.2-0.4-1.7
			c-0.2-0.4-0.6-0.8-1-1s-0.8-0.3-1.3-0.3s-0.9,0.1-1.3,0.3c-0.4,0.2-0.7,0.6-1,1c-0.2,0.5-0.4,1-0.4,1.7s0.1,1.2,0.4,1.7
			c0.2,0.5,0.6,0.8,0.9,1C41.6,78.5,42,78.6,42.5,78.6z"/>
		<path class="st1" d="M48.3,83.1V71.6h1.2l0.1,1.3c0.3-0.4,0.6-0.7,1.1-1s1.1-0.5,1.8-0.5c0.8,0,1.5,0.2,2.1,0.5
			c0.6,0.4,1,0.9,1.4,1.5c0.3,0.6,0.5,1.3,0.5,2.1S56.3,77,56,77.6s-0.8,1.1-1.4,1.5c-0.6,0.4-1.3,0.5-2.1,0.5
			c-0.7,0-1.2-0.1-1.7-0.4c-0.5-0.3-0.9-0.6-1.2-1.1V83L48.3,83.1L48.3,83.1z M52.4,78.6c0.5,0,1-0.1,1.4-0.4c0.4-0.2,0.7-0.6,1-1.1
			c0.2-0.4,0.3-1,0.3-1.6s-0.1-1.1-0.3-1.6s-0.6-0.8-1-1.1c-0.4-0.2-0.9-0.4-1.4-0.4s-1,0.1-1.4,0.4c-0.4,0.2-0.7,0.6-1,1.1
			c-0.2,0.4-0.4,1-0.4,1.6s0.1,1.1,0.4,1.6c0.2,0.5,0.5,0.8,1,1.1C51.4,78.5,51.9,78.6,52.4,78.6z"/>
		<path class="st1" d="M58.4,79.6V68.1h1.3v11.5H58.4z"/>
		<path class="st1" d="M65.5,79.8c-0.8,0-1.4-0.2-2-0.5c-0.6-0.4-1.1-0.8-1.4-1.5c-0.3-0.6-0.5-1.4-0.5-2.2s0.2-1.6,0.5-2.2
			c0.3-0.6,0.8-1.1,1.4-1.5s1.3-0.5,2.1-0.5c0.8,0,1.4,0.2,2,0.5s1,0.8,1.3,1.4c0.3,0.6,0.5,1.2,0.5,1.8c0,0.1,0,0.2,0,0.3
			s0,0.2,0,0.4h-6.3c0,0.6,0.2,1.1,0.4,1.5s0.6,0.7,0.9,0.9c0.4,0.2,0.8,0.3,1.2,0.3c0.6,0,1-0.1,1.4-0.4c0.4-0.3,0.7-0.6,0.8-1h1.3
			c-0.2,0.7-0.6,1.4-1.2,1.8C67.2,79.5,66.4,79.8,65.5,79.8z M65.5,72.6c-0.6,0-1.2,0.2-1.7,0.6c-0.5,0.4-0.8,1-0.9,1.7h5
			c0-0.7-0.3-1.3-0.7-1.7C66.7,72.8,66.1,72.6,65.5,72.6z"/>
		<path class="st1" d="M75.7,79.6v-6.8h-1.2v-1.1h1.2v-1.5c0-0.8,0.2-1.3,0.6-1.7S77.2,68,78,68h0.8v1.2h-0.6
			c-0.4,0-0.7,0.1-0.9,0.2S77,69.9,77,70.2v1.3h2v1.1h-2v6.8h-1.3V79.6z"/>
		<path class="st1" d="M82.9,79.8c-0.7,0-1.2-0.1-1.7-0.3c-0.4-0.2-0.8-0.5-1-0.9s-0.3-0.8-0.3-1.2c0-0.8,0.3-1.4,0.9-1.9
			c0.6-0.4,1.5-0.7,2.5-0.7h2.1v-0.1c0-0.7-0.2-1.2-0.5-1.6c-0.4-0.4-0.8-0.5-1.5-0.5c-0.5,0-1,0.1-1.3,0.4
			c-0.4,0.3-0.6,0.6-0.7,1.1H80c0.1-0.6,0.2-1.1,0.6-1.5c0.3-0.4,0.8-0.7,1.3-0.9s1-0.3,1.6-0.3c1.1,0,1.9,0.3,2.5,0.9
			s0.8,1.4,0.8,2.4v4.9h-1.2l-0.1-1.4c-0.2,0.4-0.5,0.8-1,1.1C84.2,79.6,83.6,79.8,82.9,79.8z M83.1,78.6c0.5,0,0.9-0.1,1.3-0.4
			c0.4-0.3,0.6-0.6,0.8-1c0.2-0.4,0.3-0.9,0.3-1.3l0,0h-2c-0.8,0-1.3,0.1-1.7,0.4c-0.3,0.3-0.5,0.6-0.5,1s0.2,0.8,0.5,1
			C82.1,78.5,82.6,78.6,83.1,78.6z"/>
		<path class="st1" d="M88.9,79.6V68.1h1.3v11.5H88.9z"/>
		<path class="st1" d="M92.5,79.6V68.1h1.3v11.5H92.5z"/>
		<path class="st1" d="M102.9,79.8c-0.7,0-1.2-0.1-1.7-0.3c-0.4-0.2-0.8-0.5-1-0.9s-0.3-0.8-0.3-1.2c0-0.8,0.3-1.4,0.9-1.9
			c0.6-0.4,1.5-0.7,2.5-0.7h2.1v-0.1c0-0.7-0.2-1.2-0.5-1.6c-0.4-0.4-0.8-0.5-1.5-0.5c-0.5,0-1,0.1-1.3,0.4
			c-0.4,0.3-0.6,0.6-0.7,1.1H100c0.1-0.6,0.2-1.1,0.6-1.5c0.3-0.4,0.8-0.7,1.3-0.9s1-0.3,1.6-0.3c1.1,0,1.9,0.3,2.5,0.9
			s0.8,1.4,0.8,2.4v4.9h-1.2l-0.1-1.4c-0.2,0.4-0.5,0.8-1,1.1C104.2,79.6,103.6,79.8,102.9,79.8z M103.1,78.6c0.5,0,0.9-0.1,1.3-0.4
			c0.4-0.3,0.6-0.6,0.8-1c0.2-0.4,0.3-0.9,0.3-1.3l0,0h-2c-0.8,0-1.3,0.1-1.7,0.4c-0.3,0.3-0.5,0.6-0.5,1s0.2,0.8,0.5,1
			C102.1,78.5,102.6,78.6,103.1,78.6z"/>
		<path class="st1" d="M112,79.8c-0.9,0-1.7-0.2-2.4-0.7s-1-1.1-1.1-1.9h1.4c0.1,0.4,0.3,0.8,0.7,1.1s0.8,0.5,1.4,0.5s1-0.1,1.2-0.4
			c0.3-0.2,0.4-0.5,0.4-0.9c0-0.5-0.2-0.8-0.5-1c-0.4-0.2-0.8-0.3-1.5-0.4c-0.4-0.1-0.8-0.2-1.3-0.4c-0.4-0.2-0.8-0.4-1.1-0.7
			c-0.3-0.3-0.4-0.7-0.4-1.2c0-0.7,0.3-1.3,0.8-1.7s1.2-0.7,2.1-0.7c0.8,0,1.5,0.2,2.1,0.6c0.5,0.4,0.9,1,0.9,1.8h-1.3
			c0-0.4-0.2-0.7-0.5-0.9s-0.7-0.3-1.2-0.3s-0.8,0.1-1.1,0.3c-0.3,0.2-0.4,0.5-0.4,0.8s0.2,0.6,0.5,0.8s0.8,0.3,1.4,0.5
			c0.5,0.1,1,0.2,1.4,0.4s0.8,0.4,1.1,0.7c0.3,0.3,0.4,0.7,0.4,1.3c0,0.7-0.3,1.3-0.8,1.8C113.6,79.5,112.9,79.8,112,79.8z"/>
		<path class="st1" d="M116.9,79.6V68.1h1.3v11.5H116.9z"/>
		<path class="st1" d="M124,79.8c-0.8,0-1.4-0.2-2-0.5c-0.6-0.4-1.1-0.8-1.4-1.5c-0.3-0.6-0.5-1.4-0.5-2.2s0.2-1.6,0.5-2.2
			s0.8-1.1,1.4-1.5s1.3-0.5,2.1-0.5s1.4,0.2,2,0.5s1,0.8,1.3,1.4s0.4,1.2,0.4,1.8c0,0.1,0,0.2,0,0.3s0,0.2,0,0.4h-6.3
			c0,0.6,0.2,1.1,0.4,1.5s0.6,0.7,0.9,0.9c0.4,0.2,0.8,0.3,1.2,0.3c0.6,0,1-0.1,1.4-0.4c0.4-0.3,0.7-0.6,0.8-1h1.3
			c-0.2,0.7-0.6,1.4-1.2,1.8C125.7,79.5,125,79.8,124,79.8z M124,72.6c-0.6,0-1.2,0.2-1.7,0.6c-0.5,0.4-0.8,1-0.9,1.7h5
			c0-0.7-0.3-1.3-0.7-1.7C125.3,72.8,124.7,72.6,124,72.6z"/>
		<path class="st1" d="M133.1,79.8c-0.8,0-1.4-0.2-2-0.5s-1.1-0.8-1.4-1.5c-0.3-0.6-0.5-1.4-0.5-2.2s0.2-1.6,0.5-2.2
			c0.3-0.6,0.8-1.1,1.4-1.5c0.6-0.4,1.3-0.5,2.1-0.5s1.4,0.2,2,0.5s1,0.8,1.3,1.4c0.3,0.6,0.5,1.2,0.5,1.8c0,0.1,0,0.2,0,0.3
			s0,0.2,0,0.4h-6.3c0,0.6,0.2,1.1,0.4,1.5s0.6,0.7,0.9,0.9c0.4,0.2,0.8,0.3,1.2,0.3c0.6,0,1-0.1,1.4-0.4c0.4-0.3,0.6-0.6,0.8-1h1.3
			c-0.2,0.7-0.6,1.4-1.2,1.8C134.8,79.5,134.1,79.8,133.1,79.8z M133.1,72.6c-0.6,0-1.2,0.2-1.7,0.6c-0.5,0.4-0.8,1-0.9,1.7h5
			c0-0.7-0.3-1.3-0.7-1.7C134.4,72.8,133.8,72.6,133.1,72.6z"/>
		<path class="st1" d="M138.7,83.1V71.6h1.2l0.1,1.3c0.3-0.4,0.6-0.7,1.1-1s1.1-0.5,1.8-0.5c0.8,0,1.5,0.2,2.1,0.5
			c0.6,0.4,1,0.9,1.4,1.5c0.3,0.6,0.5,1.3,0.5,2.1s-0.2,1.5-0.5,2.1s-0.8,1.1-1.4,1.5c-0.6,0.4-1.3,0.5-2.1,0.5
			c-0.6,0-1.2-0.1-1.7-0.4c-0.5-0.3-0.9-0.6-1.2-1.1V83L138.7,83.1L138.7,83.1z M142.8,78.6c0.5,0,1-0.1,1.4-0.4
			c0.4-0.2,0.7-0.6,1-1.1c0.2-0.4,0.4-1,0.4-1.6s-0.1-1.1-0.4-1.6c-0.2-0.5-0.6-0.8-1-1.1c-0.4-0.2-0.9-0.4-1.4-0.4s-1,0.1-1.4,0.4
			s-0.7,0.6-1,1.1c-0.2,0.4-0.4,1-0.4,1.6s0.1,1.1,0.4,1.6c0.2,0.5,0.5,0.8,1,1.1C141.8,78.5,142.2,78.6,142.8,78.6z"/>
		<path class="st1" d="M19.7,101.6v-7.9h1.2l0.1,1.1c0.3-0.4,0.6-0.8,1-1s0.9-0.4,1.4-0.4c0.6,0,1.2,0.1,1.6,0.4
			c0.5,0.3,0.8,0.6,1.1,1.2c0.3-0.5,0.7-0.9,1.1-1.1s1-0.4,1.6-0.4c1,0,1.7,0.3,2.3,0.9s0.8,1.5,0.8,2.6v4.6h-1.3v-4.5
			c0-0.8-0.2-1.4-0.5-1.9c-0.3-0.4-0.8-0.6-1.4-0.6c-0.6,0-1.2,0.2-1.6,0.7c-0.4,0.5-0.6,1.2-0.6,2.1v4.1h-1.3V97
			c0-0.8-0.2-1.4-0.5-1.9c-0.3-0.4-0.8-0.6-1.4-0.6s-1.2,0.2-1.6,0.7s-0.6,1.2-0.6,2.1v4.1L19.7,101.6L19.7,101.6z"/>
		<path class="st1" d="M37.6,101.8c-0.8,0-1.4-0.2-2-0.5s-1.1-0.8-1.4-1.4c-0.4-0.6-0.5-1.4-0.5-2.2s0.2-1.6,0.5-2.2
			c0.4-0.6,0.8-1.1,1.4-1.5s1.3-0.5,2-0.5c0.8,0,1.4,0.2,2,0.5s1.1,0.8,1.4,1.5c0.4,0.6,0.5,1.4,0.5,2.2s-0.2,1.6-0.5,2.2
			c-0.4,0.6-0.8,1.1-1.4,1.4C39,101.6,38.4,101.8,37.6,101.8z M37.6,100.6c0.5,0,0.9-0.1,1.3-0.3c0.4-0.2,0.7-0.6,1-1s0.4-1,0.4-1.7
			s-0.1-1.2-0.4-1.7c-0.2-0.4-0.6-0.8-1-1s-0.8-0.3-1.3-0.3s-0.9,0.1-1.3,0.3c-0.4,0.2-0.7,0.6-1,1c-0.2,0.5-0.4,1-0.4,1.7
			s0.1,1.2,0.4,1.7s0.6,0.8,1,1C36.8,100.5,37.2,100.6,37.6,100.6z"/>
		<path class="st1" d="M43.5,101.6v-7.9h1.2l0.1,1.5c0.2-0.5,0.6-0.9,1.1-1.2s1.1-0.5,1.9-0.5v1.4h-0.4c-0.5,0-0.9,0.1-1.3,0.2
			c-0.4,0.2-0.7,0.5-0.9,0.8c-0.2,0.4-0.4,0.9-0.4,1.6v4h-1.3V101.6z"/>
		<path class="st1" d="M52.5,101.8c-0.8,0-1.4-0.2-2-0.5c-0.6-0.4-1.1-0.8-1.4-1.5c-0.3-0.6-0.5-1.4-0.5-2.2c0-0.8,0.2-1.6,0.5-2.2
			s0.8-1.1,1.4-1.5c0.6-0.4,1.3-0.5,2.1-0.5s1.4,0.2,2,0.5s1,0.8,1.3,1.4s0.5,1.2,0.5,1.8c0,0.1,0,0.2,0,0.3c0,0.1,0,0.2,0,0.4h-6.3
			c0,0.6,0.2,1.1,0.4,1.5s0.6,0.7,0.9,0.9c0.4,0.2,0.8,0.3,1.2,0.3c0.6,0,1-0.1,1.4-0.4s0.7-0.6,0.8-1h1.3c-0.2,0.7-0.6,1.4-1.2,1.8
			C54.3,101.5,53.5,101.8,52.5,101.8z M52.5,94.6c-0.6,0-1.2,0.2-1.7,0.6s-0.8,1-0.9,1.7h5c0-0.7-0.3-1.3-0.7-1.7
			C53.8,94.8,53.2,94.6,52.5,94.6z"/>
		<path class="st1" d="M68.8,105.1v-4.8c-0.3,0.4-0.6,0.7-1.1,1s-1.1,0.5-1.8,0.5c-0.8,0-1.5-0.2-2.1-0.5c-0.6-0.4-1-0.9-1.4-1.5
			s-0.5-1.3-0.5-2.1c0-0.8,0.2-1.5,0.5-2.1s0.8-1.1,1.4-1.5s1.3-0.5,2.1-0.5c0.7,0,1.2,0.1,1.7,0.4s0.9,0.6,1.2,1.1l0.1-1.3h1.2
			v11.5h-1.3V105.1z M66.1,100.6c0.5,0,1-0.1,1.4-0.4c0.4-0.2,0.7-0.6,1-1.1c0.2-0.4,0.3-1,0.3-1.6s-0.1-1.1-0.3-1.6
			c-0.2-0.5-0.6-0.8-1-1.1c-0.4-0.2-0.9-0.4-1.4-0.4s-1,0.1-1.4,0.4c-0.4,0.2-0.7,0.6-1,1.1c-0.2,0.4-0.3,1-0.3,1.6s0.1,1.1,0.3,1.6
			c0.2,0.5,0.5,0.8,1,1.1C65.1,100.5,65.5,100.6,66.1,100.6z"/>
		<path class="st1" d="M75.3,101.8c-0.9,0-1.7-0.3-2.2-0.9c-0.6-0.6-0.8-1.5-0.8-2.6v-4.6h1.3v4.5c0,1.6,0.7,2.5,2,2.5
			c0.7,0,1.3-0.2,1.7-0.7c0.5-0.5,0.7-1.2,0.7-2.1v-4.1h1.3v7.9h-1.2l-0.1-1.4c-0.2,0.5-0.6,0.9-1.1,1.2
			C76.4,101.6,75.9,101.8,75.3,101.8z"/>
		<path class="st1" d="M82.3,91.9c-0.3,0-0.5-0.1-0.7-0.3c-0.2-0.2-0.3-0.4-0.3-0.7s0.1-0.5,0.3-0.6c0.2-0.2,0.4-0.3,0.7-0.3
			s0.5,0.1,0.7,0.3c0.2,0.2,0.3,0.4,0.3,0.6c0,0.3-0.1,0.5-0.3,0.7C82.8,91.8,82.6,91.9,82.3,91.9z M81.7,101.6v-7.9H83v7.9H81.7z"
			/>
		<path class="st1" d="M89,101.8c-0.8,0-1.4-0.2-2-0.5s-1.1-0.8-1.4-1.5c-0.3-0.6-0.5-1.3-0.5-2.2c0-0.8,0.2-1.6,0.5-2.2
			s0.8-1.1,1.4-1.5s1.3-0.5,2-0.5c0.9,0,1.7,0.2,2.4,0.7c0.7,0.5,1.1,1.1,1.2,2h-1.4c-0.1-0.5-0.4-0.9-0.8-1.1
			c-0.4-0.3-0.9-0.4-1.5-0.4c-0.5,0-0.9,0.1-1.3,0.3c-0.4,0.2-0.7,0.6-1,1s-0.4,1-0.4,1.7s0.1,1.2,0.4,1.7c0.2,0.4,0.6,0.8,1,1
			s0.8,0.3,1.3,0.3s1-0.1,1.5-0.4c0.4-0.3,0.7-0.7,0.8-1.2h1.4c-0.2,0.8-0.6,1.5-1.2,2C90.7,101.5,89.9,101.8,89,101.8z"/>
		<path class="st1" d="M94.5,101.6V90.1h1.3V97l3.2-3.3h1.7l-3.5,3.6l4,4.4h-1.7l-3.6-4.1v4.1h-1.4V101.6z"/>
		<path class="st1" d="M102.5,101.6V90.1h1.3v11.5H102.5z"/>
		<path class="st1" d="M106.9,105.1l2-4.3h-0.5l-3.1-7.2h1.5l2.6,6.2l2.8-6.2h1.4l-5.2,11.5H106.9z"/>
		<path class="st1" d="M112.9,103.5l0.9-3.5h1.4l-1.4,3.5H112.9z"/>
		<path class="st1" d="M22.7,123.8c-0.9,0-1.7-0.2-2.4-0.7s-1-1.1-1.1-1.9h1.4c0.1,0.4,0.3,0.8,0.7,1.1c0.3,0.3,0.8,0.5,1.4,0.5
			s1-0.1,1.2-0.4c0.3-0.2,0.4-0.5,0.4-0.9c0-0.5-0.2-0.8-0.5-1s-0.8-0.3-1.5-0.4c-0.4-0.1-0.9-0.2-1.3-0.4c-0.4-0.2-0.8-0.4-1.1-0.7
			c-0.3-0.3-0.4-0.7-0.4-1.2c0-0.7,0.3-1.3,0.8-1.7s1.2-0.7,2.1-0.7c0.8,0,1.5,0.2,2.1,0.6c0.5,0.4,0.8,1,0.9,1.8h-1.3
			c0-0.4-0.2-0.7-0.5-0.9c-0.3-0.2-0.7-0.3-1.2-0.3s-0.8,0.1-1.1,0.3c-0.3,0.2-0.4,0.5-0.4,0.8s0.2,0.6,0.5,0.8
			c0.3,0.2,0.8,0.3,1.4,0.5c0.5,0.1,1,0.2,1.4,0.4s0.8,0.4,1.1,0.7s0.4,0.7,0.4,1.3c0,0.7-0.3,1.3-0.8,1.8
			C24.4,123.5,23.7,123.8,22.7,123.8z"/>
		<path class="st1" d="M30.5,123.6c-0.7,0-1.3-0.2-1.7-0.5c-0.4-0.4-0.6-1-0.6-1.9v-4.4h-1.4v-1.1h1.4l0.2-1.9h1.2v1.9h2.2v1.1h-2.3
			v4.4c0,0.5,0.1,0.8,0.3,1s0.6,0.3,1.1,0.3h0.8v1.1H30.5z"/>
		<path class="st1" d="M36.2,123.8c-0.7,0-1.2-0.1-1.7-0.3c-0.4-0.2-0.8-0.5-1-0.9s-0.3-0.8-0.3-1.2c0-0.8,0.3-1.4,0.9-1.9
			c0.6-0.4,1.5-0.7,2.5-0.7h2.2v-0.1c0-0.7-0.2-1.2-0.5-1.6c-0.4-0.4-0.8-0.5-1.5-0.5c-0.5,0-1,0.1-1.3,0.4
			c-0.4,0.3-0.6,0.6-0.7,1.1h-1.4c0-0.6,0.2-1.1,0.6-1.5c0.3-0.4,0.8-0.7,1.3-0.9c0.5-0.2,1-0.3,1.6-0.3c1.1,0,1.9,0.3,2.5,0.9
			s0.8,1.4,0.8,2.4v4.9H39l-0.1-1.4c-0.2,0.4-0.5,0.8-1,1.1C37.5,123.6,36.9,123.8,36.2,123.8z M36.4,122.6c0.5,0,1-0.1,1.3-0.4
			c0.4-0.3,0.7-0.6,0.8-1c0.2-0.4,0.3-0.9,0.3-1.3l0,0h-2c-0.8,0-1.3,0.1-1.7,0.4s-0.5,0.6-0.5,1s0.2,0.8,0.5,1
			C35.4,122.5,35.8,122.6,36.4,122.6z"/>
		<path class="st1" d="M42.8,127.1l2-4.3h-0.5l-3.2-7.2h1.5l2.6,6.2l2.8-6.2h1.4l-5.2,11.5H42.8z"/>
		<path class="st1" d="M57.7,123.8c-0.7,0-1.2-0.1-1.7-0.3c-0.4-0.2-0.8-0.5-1-0.9s-0.3-0.8-0.3-1.2c0-0.8,0.3-1.4,0.9-1.9
			s1.5-0.7,2.5-0.7h2.1v-0.1c0-0.7-0.2-1.2-0.5-1.6c-0.4-0.4-0.8-0.5-1.5-0.5c-0.5,0-1,0.1-1.3,0.4c-0.4,0.3-0.6,0.6-0.7,1.1h-1.4
			c0-0.6,0.2-1.1,0.6-1.5c0.3-0.4,0.8-0.7,1.3-0.9c0.5-0.2,1-0.3,1.6-0.3c1.1,0,1.9,0.3,2.5,0.9c0.6,0.6,0.8,1.4,0.8,2.4v4.9h-1.2
			l-0.1-1.4c-0.2,0.4-0.6,0.8-1,1.1C59,123.6,58.4,123.8,57.7,123.8z M57.9,122.6c0.5,0,0.9-0.1,1.3-0.4s0.6-0.6,0.8-1
			c0.2-0.4,0.3-0.9,0.3-1.3l0,0h-2c-0.8,0-1.3,0.1-1.7,0.4s-0.5,0.6-0.5,1s0.2,0.8,0.5,1C56.9,122.5,57.4,122.6,57.9,122.6z"/>
		<path class="st1" d="M66.8,123.8c-1,0-1.7-0.2-2.4-0.7c-0.6-0.5-1-1.1-1.1-1.9h1.4c0.1,0.4,0.3,0.8,0.7,1.1s0.8,0.5,1.4,0.5
			s1-0.1,1.2-0.4c0.3-0.2,0.4-0.5,0.4-0.9c0-0.5-0.2-0.8-0.5-1c-0.4-0.2-0.8-0.3-1.5-0.4c-0.4-0.1-0.9-0.2-1.3-0.4
			c-0.4-0.2-0.8-0.4-1.1-0.7c-0.3-0.3-0.4-0.7-0.4-1.2c0-0.7,0.3-1.3,0.8-1.7c0.5-0.4,1.2-0.7,2.1-0.7c0.8,0,1.5,0.2,2.1,0.6
			c0.5,0.4,0.8,1,0.9,1.8h-1.3c-0.1-0.4-0.2-0.7-0.5-0.9c-0.3-0.2-0.7-0.3-1.2-0.3s-0.8,0.1-1.1,0.3c-0.3,0.2-0.4,0.5-0.4,0.8
			s0.2,0.6,0.5,0.8c0.3,0.2,0.8,0.3,1.4,0.5c0.5,0.1,1,0.2,1.4,0.4c0.4,0.1,0.8,0.4,1.1,0.7c0.3,0.3,0.4,0.7,0.4,1.3
			c0,0.7-0.3,1.3-0.8,1.8C68.5,123.5,67.7,123.8,66.8,123.8z"/>
		<path class="st1" d="M71.7,123.6v-11.5H73v11.5H71.7z"/>
		<path class="st1" d="M78.9,123.8c-0.8,0-1.4-0.2-2-0.5c-0.6-0.4-1.1-0.8-1.4-1.5c-0.3-0.6-0.5-1.4-0.5-2.2c0-0.8,0.2-1.6,0.5-2.2
			s0.8-1.1,1.4-1.5s1.3-0.5,2.1-0.5c0.8,0,1.4,0.2,2,0.5s1,0.8,1.3,1.4s0.4,1.2,0.4,1.8c0,0.1,0,0.2,0,0.3c0,0.1,0,0.2,0,0.4h-6.3
			c0,0.6,0.2,1.1,0.4,1.5s0.6,0.7,0.9,0.9c0.4,0.2,0.8,0.3,1.2,0.3c0.5,0,1-0.1,1.4-0.4c0.4-0.2,0.6-0.6,0.8-1h1.3
			c-0.2,0.7-0.6,1.4-1.2,1.8C80.6,123.5,79.8,123.8,78.9,123.8z M78.9,116.6c-0.6,0-1.2,0.2-1.7,0.6s-0.8,1-0.9,1.7h5
			c0-0.7-0.3-1.3-0.7-1.7C80.1,116.8,79.5,116.6,78.9,116.6z"/>
		<path class="st1" d="M88,123.8c-0.8,0-1.4-0.2-2-0.5c-0.6-0.4-1-0.8-1.4-1.5c-0.3-0.6-0.5-1.4-0.5-2.2c0-0.8,0.2-1.6,0.5-2.2
			s0.8-1.1,1.4-1.5s1.3-0.5,2.1-0.5c0.8,0,1.4,0.2,2,0.5s1,0.8,1.3,1.4s0.4,1.2,0.4,1.8c0,0.1,0,0.2,0,0.3c0,0.1,0,0.2,0,0.4h-6.3
			c0,0.6,0.2,1.1,0.4,1.5s0.6,0.7,0.9,0.9c0.4,0.2,0.8,0.3,1.2,0.3c0.5,0,1-0.1,1.4-0.4s0.7-0.6,0.8-1h1.3c-0.2,0.7-0.6,1.4-1.2,1.8
			C89.7,123.5,88.9,123.8,88,123.8z M88,116.6c-0.6,0-1.2,0.2-1.7,0.6s-0.8,1-0.9,1.7h5c0-0.7-0.3-1.3-0.7-1.7
			C89.2,116.8,88.6,116.6,88,116.6z"/>
		<path class="st1" d="M93.5,127.1v-11.5h1.2l0.1,1.3c0.3-0.4,0.6-0.7,1.1-1s1.1-0.5,1.8-0.5c0.8,0,1.5,0.2,2.1,0.5
			c0.6,0.4,1,0.9,1.4,1.5c0.3,0.6,0.5,1.3,0.5,2.1c0,0.8-0.2,1.5-0.5,2.1s-0.8,1.1-1.4,1.5s-1.3,0.5-2.1,0.5c-0.7,0-1.2-0.1-1.7-0.4
			s-0.9-0.6-1.2-1.1v4.9h-1.3V127.1z M97.6,122.6c0.5,0,1-0.1,1.4-0.4c0.4-0.2,0.7-0.6,1-1.1c0.2-0.4,0.3-1,0.3-1.6
			s-0.1-1.1-0.3-1.6c-0.2-0.5-0.6-0.8-1-1.1c-0.4-0.2-0.9-0.4-1.4-0.4s-1,0.1-1.4,0.4c-0.4,0.2-0.7,0.6-1,1.1
			c-0.2,0.4-0.4,1-0.4,1.6s0.1,1.1,0.4,1.6c0.2,0.5,0.5,0.8,1,1.1C96.6,122.5,97.1,122.6,97.6,122.6z"/>
		<path class="st1" d="M19.7,145.6v-11.5H21v11.5H19.7z"/>
		<path class="st1" d="M26.9,145.8c-0.8,0-1.4-0.2-2-0.5s-1.1-0.8-1.4-1.4c-0.4-0.6-0.5-1.4-0.5-2.2s0.2-1.6,0.5-2.2
			c0.4-0.6,0.8-1.1,1.4-1.5c0.6-0.3,1.3-0.5,2-0.5c0.8,0,1.4,0.2,2,0.5s1.1,0.8,1.4,1.5c0.4,0.6,0.5,1.4,0.5,2.2s-0.2,1.6-0.5,2.2
			s-0.8,1.1-1.4,1.4C28.3,145.6,27.6,145.8,26.9,145.8z M26.9,144.6c0.5,0,0.9-0.1,1.3-0.3c0.4-0.2,0.7-0.6,1-1s0.4-1,0.4-1.7
			s-0.1-1.2-0.4-1.7c-0.2-0.4-0.6-0.8-1-1s-0.8-0.3-1.3-0.3s-0.9,0.1-1.3,0.3c-0.4,0.2-0.7,0.6-1,1c-0.2,0.5-0.4,1-0.4,1.7
			s0.1,1.2,0.4,1.7c0.2,0.5,0.6,0.8,1,1C26,144.5,26.4,144.6,26.9,144.6z"/>
		<path class="st1" d="M32.7,145.6v-7.9h1.2l0.1,1.4c0.3-0.5,0.6-0.9,1.1-1.2c0.5-0.3,1-0.4,1.6-0.4c0.9,0,1.7,0.3,2.2,0.9
			c0.6,0.6,0.8,1.4,0.8,2.6v4.6h-1.3v-4.5c0-1.6-0.7-2.5-2-2.5c-0.7,0-1.2,0.2-1.7,0.7s-0.7,1.2-0.7,2.1v4.1L32.7,145.6L32.7,145.6z
			"/>
		<path class="st1" d="M45,143.1c-0.5,0-0.9-0.1-1.2-0.2l-0.8,0.8c0.1,0.1,0.3,0.2,0.4,0.2s0.4,0.1,0.8,0.2c0.3,0,0.8,0.1,1.4,0.1
			c1.1,0.1,1.8,0.3,2.3,0.7c0.5,0.4,0.7,1,0.7,1.6c0,0.5-0.1,0.9-0.4,1.3c-0.2,0.4-0.6,0.8-1.2,1c-0.5,0.3-1.2,0.4-2,0.4
			c-0.7,0-1.3-0.1-1.9-0.3c-0.5-0.2-1-0.5-1.3-0.9s-0.5-0.9-0.5-1.4c0-0.3,0.1-0.6,0.2-1s0.5-0.7,0.9-1c-0.2-0.1-0.4-0.2-0.6-0.3
			c-0.2-0.1-0.3-0.2-0.5-0.4v-0.4l1.4-1.3c-0.6-0.5-0.9-1.2-0.9-2.1c0-0.5,0.1-1,0.4-1.4c0.2-0.4,0.6-0.8,1.1-1s1-0.4,1.7-0.4
			c0.5,0,0.9,0.1,1.2,0.2h2.9v1l-1.5,0.1c0.3,0.5,0.5,1,0.5,1.6c0,0.5-0.1,1-0.4,1.4c-0.2,0.4-0.6,0.8-1.1,1
			C46.2,142.9,45.7,143.1,45,143.1z M42.7,146.6c0,0.5,0.2,0.9,0.7,1.2c0.4,0.3,1,0.4,1.7,0.4s1.2-0.1,1.6-0.4
			c0.4-0.3,0.6-0.7,0.6-1.1c0-0.3-0.1-0.6-0.4-0.9c-0.3-0.2-0.8-0.4-1.5-0.4c-0.6,0-1.1-0.1-1.5-0.2c-0.4,0.2-0.7,0.5-0.9,0.8
			C42.7,146.1,42.7,146.4,42.7,146.6z M45,142c0.6,0,1-0.1,1.3-0.4s0.5-0.7,0.5-1.3c0-0.5-0.2-1-0.5-1.3s-0.8-0.4-1.3-0.4
			c-0.6,0-1,0.2-1.4,0.4c-0.3,0.3-0.5,0.7-0.5,1.3s0.2,1,0.5,1.3C44,141.8,44.4,142,45,142z"/>
		<path class="st1" d="M53.9,145.8c-0.8,0-1.4-0.2-2-0.5c-0.6-0.4-1.1-0.8-1.4-1.5c-0.3-0.6-0.5-1.4-0.5-2.2c0-0.8,0.2-1.6,0.5-2.2
			s0.8-1.1,1.4-1.5c0.6-0.4,1.3-0.5,2.1-0.5s1.4,0.2,2,0.5s1,0.8,1.3,1.4s0.5,1.2,0.5,1.8c0,0.1,0,0.2,0,0.3c0,0.1,0,0.2,0,0.4h-6.3
			c0,0.6,0.2,1.1,0.4,1.5s0.6,0.7,0.9,0.9c0.4,0.2,0.8,0.3,1.2,0.3c0.6,0,1-0.1,1.4-0.4s0.7-0.6,0.8-1h1.3c-0.2,0.7-0.6,1.4-1.2,1.8
			C55.7,145.5,54.9,145.8,53.9,145.8z M53.9,138.6c-0.6,0-1.2,0.2-1.7,0.6s-0.8,1-0.9,1.7h5c0-0.7-0.3-1.3-0.7-1.7
			C55.2,138.8,54.6,138.6,53.9,138.6z"/>
		<path class="st1" d="M59.5,145.6v-7.9h1.2l0.1,1.5c0.2-0.5,0.6-0.9,1.1-1.2s1.1-0.5,1.9-0.5v1.4h-0.4c-0.5,0-0.9,0.1-1.3,0.2
			c-0.4,0.2-0.7,0.5-0.9,0.8c-0.2,0.4-0.4,0.9-0.4,1.6v4h-1.3V145.6z"/>
		<path class="st1" d="M63.7,147.5l0.9-3.5H66l-1.4,3.5H63.7z"/>
		<path class="st1" d="M74.5,145.8c-0.7,0-1.2-0.1-1.7-0.3c-0.4-0.2-0.8-0.5-1-0.9s-0.3-0.8-0.3-1.2c0-0.8,0.3-1.4,0.9-1.9
			c0.6-0.4,1.5-0.7,2.5-0.7H77v-0.1c0-0.7-0.2-1.2-0.5-1.6c-0.4-0.4-0.8-0.5-1.5-0.5c-0.5,0-1,0.1-1.3,0.4c-0.4,0.3-0.6,0.6-0.7,1.1
			h-1.4c0.1-0.6,0.2-1.1,0.6-1.5c0.3-0.4,0.8-0.7,1.3-0.9c0.5-0.2,1-0.3,1.6-0.3c1.1,0,1.9,0.3,2.5,0.9s0.8,1.4,0.8,2.4v4.9h-1.2
			l-0.1-1.4c-0.2,0.4-0.5,0.8-1,1.1C75.8,145.6,75.2,145.8,74.5,145.8z M74.7,144.6c0.5,0,1-0.1,1.3-0.4c0.4-0.3,0.7-0.6,0.8-1
			c0.2-0.4,0.3-0.9,0.3-1.3l0,0h-2c-0.8,0-1.3,0.1-1.7,0.4c-0.3,0.3-0.5,0.6-0.5,1s0.2,0.8,0.5,1C73.7,144.5,74.2,144.6,74.7,144.6z
			"/>
		<path class="st1" d="M80.5,145.6v-7.9h1.3l0.1,1.4c0.3-0.5,0.6-0.9,1.1-1.2c0.5-0.3,1-0.4,1.6-0.4c0.9,0,1.7,0.3,2.2,0.9
			c0.6,0.6,0.8,1.4,0.8,2.6v4.6h-1.3v-4.5c0-1.6-0.7-2.5-2.1-2.5c-0.7,0-1.2,0.2-1.7,0.7c-0.4,0.5-0.7,1.2-0.7,2.1v4.1L80.5,145.6
			L80.5,145.6z"/>
		<path class="st1" d="M93.3,145.8c-0.8,0-1.5-0.2-2.1-0.5c-0.6-0.4-1.1-0.9-1.4-1.5s-0.5-1.3-0.5-2.1c0-0.8,0.2-1.5,0.5-2.1
			s0.8-1.1,1.4-1.5s1.3-0.5,2.1-0.5c0.7,0,1.2,0.1,1.7,0.4s0.9,0.6,1.2,1.1v-4.9h1.3v11.5h-1.2l-0.1-1.3c-0.3,0.4-0.6,0.7-1.1,1
			C94.6,145.6,94,145.8,93.3,145.8z M93.4,144.6c0.5,0,1-0.1,1.4-0.4c0.4-0.2,0.7-0.6,1-1.1c0.2-0.4,0.3-1,0.3-1.6s-0.1-1.1-0.3-1.6
			c-0.2-0.5-0.6-0.8-1-1.1c-0.4-0.2-0.9-0.4-1.4-0.4s-1,0.1-1.4,0.4c-0.4,0.2-0.7,0.6-1,1.1c-0.2,0.4-0.3,1-0.3,1.6s0.1,1.1,0.3,1.6
			c0.2,0.5,0.5,0.8,1,1.1C92.4,144.5,92.9,144.6,93.4,144.6z"/>
		<path class="st1" d="M104,145.6v-11.5h1.3v4.9c0.3-0.5,0.7-0.9,1.1-1.1c0.5-0.3,1-0.4,1.6-0.4c0.9,0,1.6,0.3,2.2,0.9
			c0.5,0.6,0.8,1.4,0.8,2.6v4.6h-1.2v-4.5c0-1.6-0.7-2.5-2-2.5c-0.7,0-1.3,0.2-1.7,0.7c-0.5,0.5-0.7,1.2-0.7,2.1v4.1L104,145.6
			L104,145.6z"/>
		<path class="st1" d="M115.8,145.8c-0.7,0-1.2-0.1-1.7-0.3c-0.4-0.2-0.8-0.5-1-0.9s-0.3-0.8-0.3-1.2c0-0.8,0.3-1.4,0.9-1.9
			s1.5-0.7,2.5-0.7h2.1v-0.1c0-0.7-0.2-1.2-0.5-1.6c-0.4-0.4-0.9-0.5-1.5-0.5c-0.5,0-1,0.1-1.4,0.4s-0.6,0.6-0.7,1.1h-1.4
			c0.1-0.6,0.2-1.1,0.6-1.5c0.3-0.4,0.8-0.7,1.3-0.9c0.5-0.2,1-0.3,1.6-0.3c1.1,0,1.9,0.3,2.5,0.9s0.8,1.4,0.8,2.4v4.9h-1.2
			l-0.1-1.4c-0.2,0.4-0.6,0.8-1,1.1C117.1,145.6,116.5,145.8,115.8,145.8z M116,144.6c0.5,0,0.9-0.1,1.3-0.4s0.6-0.6,0.8-1
			c0.2-0.4,0.3-0.9,0.3-1.3l0,0h-2c-0.8,0-1.3,0.1-1.7,0.4c-0.3,0.3-0.5,0.6-0.5,1s0.2,0.8,0.5,1C115,144.5,115.4,144.6,116,144.6z"
			/>
		<path class="st1" d="M123.8,145.6l-3-7.9h1.4l2.4,6.6l2.4-6.6h1.4l-3,7.9H123.8z"/>
		<path class="st1" d="M133,145.8c-0.8,0-1.4-0.2-2-0.5s-1.1-0.8-1.4-1.5c-0.3-0.6-0.5-1.4-0.5-2.2c0-0.8,0.2-1.6,0.5-2.2
			s0.8-1.1,1.4-1.5c0.6-0.4,1.3-0.5,2.1-0.5s1.4,0.2,2,0.5s1,0.8,1.3,1.4s0.4,1.2,0.4,1.8c0,0.1,0,0.2,0,0.3c0,0.1,0,0.2,0,0.4h-6.3
			c0,0.6,0.2,1.1,0.4,1.5s0.6,0.7,0.9,0.9c0.4,0.2,0.8,0.3,1.2,0.3c0.6,0,1-0.1,1.4-0.4c0.4-0.2,0.6-0.6,0.8-1h1.3
			c-0.2,0.7-0.6,1.4-1.2,1.8C134.7,145.5,133.9,145.8,133,145.8z M133,138.6c-0.6,0-1.2,0.2-1.7,0.6s-0.8,1-0.9,1.7h5
			c0-0.7-0.3-1.3-0.7-1.7C134.2,138.8,133.7,138.6,133,138.6z"/>
		<path class="st2" d="M21.7,160.5c0.2-0.1,0.6-0.2,1.1-0.2c0.9,0,1.9,0.2,2.9,0.6s1.7,0.9,2.1,1.5c0.5,0.7,0.7,1.4,0.7,2.2
			c0,0.9-0.3,2.2-0.9,3.7l-0.5,1.1l0.7,0.7c0.5,0.5,0.9,1.1,1.3,1.8c0.3,0.7,0.5,1.4,0.5,2s0,1.2,0,1.7c-0.1,1.2-0.1,2-0.2,2.4
			c-0.1,0.4-0.3,0.9-0.6,1.6c-0.7,1.3-1.3,2.2-1.8,2.6s-1.3,0.6-2.3,0.6c-1.1,0-1.8,0-2,0l0,0c-0.5,0-0.8-0.2-1.2-0.7
			c-0.4-0.5-0.6-1-0.7-1.7c0-0.1,0-0.4,0-0.9c0-0.8,0-1.6,0.1-2.4c0.2-1.4,0.2-4.9,0.2-10.7c0-3,0-4.5-0.1-4.7c0,0,0-0.1,0-0.2
			c0-0.2,0.1-0.5,0.3-0.8C21.3,160.8,21.5,160.6,21.7,160.5z M25.9,172.8c-0.1-0.2-0.4-0.3-0.7-0.3c-0.3,0-0.5,0.1-0.7,0.4
			s-0.2,1.8-0.2,4.5c0,1.3,0,2.1,0.1,2.1h0.1c0.1,0,0.3-0.2,0.6-0.6c0.3-0.4,0.5-0.9,0.7-1.5c0.3-0.7,0.4-1.7,0.4-2.9
			C26.2,173.7,26.1,173.1,25.9,172.8z M25,164.6c-0.1-0.2-0.2-0.4-0.4-0.4c-0.2,0-0.3,0.6-0.3,1.7c0,1,0,1.5,0.1,1.5l0,0
			c0.1-0.1,0.3-0.4,0.4-0.8s0.2-0.8,0.2-1c0-0.1,0-0.3,0-0.5C25,164.8,25,164.6,25,164.6z"/>
		<path class="st2" d="M35.7,161.1C36,161,36.5,161,37,161c1.5,0,2.5,0.2,2.9,0.5c0.3,0.2,0.4,0.6,0.4,0.9c0,0.4-0.1,0.7-0.4,0.9
			c-0.3,0.2-0.6,0.4-1.1,0.4c-0.4,0-0.7,0.1-0.8,0.3c-0.1,0.2-0.2,0.7-0.2,1.4c0,0.2,0,0.9,0.1,2.1c0.1,1.4,0.1,2.3,0.2,2.7
			s0.2,0.6,0.3,0.6c0,0,0.2,0,0.5,0s0.6,0,0.8,0c0.7,0,1.2,0.2,1.5,0.5c0.2,0.2,0.3,0.4,0.3,0.6c0,0.4-0.6,0.9-1.8,1.3
			c-0.7,0.2-1.1,0.4-1.3,0.6c-0.1,0.1-0.2,0.4-0.3,0.9s-0.1,0.8-0.1,1.2c0,1.4,0.1,2.5,0.4,3.2c0.1,0.3,0.2,0.5,0.4,0.5
			c0.1,0.1,0.4,0.1,0.9,0.1c0.6,0,1.1,0.1,1.5,0.4s0.6,0.6,0.6,1c0,0.2-0.2,0.6-0.6,1c-0.7,0.6-1.8,1-3.4,1c-1.6,0-2.7-0.4-3.2-1
			c-0.3-0.4-0.5-2.8-0.5-7.2c-0.1-5.5-0.1-8.8-0.2-9.7l-0.1-3.1l0.6-0.3C34.9,161.4,35.4,161.2,35.7,161.1z"/>
		<path class="st2" d="M47.2,160c0.4-0.3,1-0.5,1.9-0.5h1c1.5,0.1,2.4,0.1,2.7,0.2c0.2,0.1,0.6,0.1,1.2,0.2c0.6,0,1.1,0.2,1.4,0.4
			c0.3,0.2,0.4,0.6,0.4,1.1s-0.1,0.9-0.3,1.1s-0.6,0.4-1.1,0.5c-0.6,0.1-0.9,0.2-1,0.3c-0.1,0.1-0.2,2.8-0.2,8c0,3.6,0,6.1,0.1,7.6
			c0.1,1.2,0.1,1.8,0.1,1.9c0,0.6-0.1,1.1-0.4,1.5c-0.3,0.6-0.8,0.8-1.4,0.8c-0.4,0-0.8-0.1-1.3-0.4l-0.8-0.5l0.1-9.6
			c0.1-2.5,0.1-4.9,0.1-7.4c0-1.5-0.1-2.3-0.3-2.4c-0.3-0.2-0.5-0.2-0.6-0.2s-0.3,0-0.5,0c-0.5,0-0.9-0.2-1.3-0.4
			c-0.3-0.3-0.5-0.6-0.5-1C46.5,160.7,46.7,160.3,47.2,160z"/>
		<path class="st2" d="M61.1,160c0.4-0.3,1-0.5,1.9-0.5h1c1.5,0.1,2.4,0.1,2.7,0.2c0.2,0.1,0.6,0.1,1.2,0.2c0.6,0,1.1,0.2,1.4,0.4
			c0.3,0.2,0.4,0.6,0.4,1.1s-0.1,0.9-0.3,1.1c-0.2,0.2-0.5,0.4-1,0.5c-0.6,0.1-0.9,0.2-1,0.3c-0.1,0.1-0.2,2.8-0.2,8
			c0,3.6,0,6.1,0.1,7.6c0.1,1.2,0.1,1.8,0.1,1.9c0,0.6-0.1,1.1-0.4,1.5c-0.3,0.6-0.8,0.8-1.4,0.8c-0.4,0-0.9-0.1-1.3-0.4l-0.8-0.5
			l0.1-9.6c0.1-2.5,0.1-4.9,0.1-7.4c0-1.5-0.1-2.3-0.3-2.4c-0.3-0.2-0.5-0.2-0.6-0.2s-0.3,0-0.5,0c-0.5,0-0.9-0.2-1.3-0.4
			c-0.3-0.3-0.5-0.6-0.5-1C60.4,160.7,60.6,160.3,61.1,160z"/>
		<path class="st2" d="M75.9,161.1c0.3-0.1,0.8-0.1,1.3-0.1c1.5,0,2.5,0.2,2.9,0.5c0.3,0.2,0.4,0.6,0.4,0.9c0,0.4-0.1,0.7-0.4,0.9
			c-0.3,0.2-0.6,0.4-1.1,0.4c-0.4,0-0.7,0.1-0.8,0.3c-0.1,0.2-0.2,0.7-0.2,1.4c0,0.2,0,0.9,0.1,2.1c0.1,1.4,0.1,2.3,0.2,2.7
			s0.2,0.6,0.3,0.6c0,0,0.2,0,0.6,0c0.3,0,0.6,0,0.8,0c0.7,0,1.2,0.2,1.5,0.5c0.2,0.2,0.3,0.4,0.3,0.6c0,0.4-0.6,0.9-1.8,1.3
			c-0.7,0.2-1.1,0.4-1.3,0.6s-0.2,0.4-0.3,0.9c-0.1,0.5-0.1,0.8-0.1,1.2c0,1.4,0.1,2.5,0.4,3.2c0.1,0.3,0.2,0.5,0.4,0.5
			c0.1,0.1,0.4,0.1,0.9,0.1c0.6,0,1.1,0.1,1.5,0.4s0.6,0.6,0.6,1c0,0.2-0.2,0.6-0.6,1c-0.7,0.6-1.8,1-3.4,1s-2.7-0.4-3.2-1
			c-0.3-0.4-0.5-2.8-0.5-7.2c-0.1-5.5-0.1-8.8-0.2-9.7l-0.1-3.1l0.6-0.3C75.1,161.4,75.5,161.2,75.9,161.1z"/>
		<path class="st2" d="M87.8,160.3c0.5-0.2,1.2-0.2,1.9-0.2c0.8,0,1.5,0.1,1.9,0.2c0.7,0.3,1.3,0.9,1.7,1.7c0.2,0.4,0.3,1.1,0.5,2.2
			s0.2,2,0.2,2.9c0,0.4,0,0.7,0,0.8c-0.1,0.7-0.3,1.5-0.6,2.3c-0.3,0.9-0.5,1.3-0.7,1.3s-0.3,0.2-0.3,0.5s0.1,0.6,0.3,0.9
			c0.5,0.6,1.1,1.8,1.9,3.6c0.8,1.7,1.3,2.8,1.3,3.3c0,0.1,0,0.3,0,0.6c0,0.4-0.1,0.7-0.3,1c-0.2,0.3-0.5,0.5-0.8,0.5s-0.5,0-0.8,0
			c-0.7-0.1-1.1-0.2-1.3-0.3c-0.2-0.1-0.3-0.3-0.3-0.7c0-0.6-0.3-1.4-0.9-2.6c-0.6-1.1-1-1.7-1.3-1.7l0,0c-0.1,0.1-0.1,0.4-0.1,0.9
			c0,0.8,0.1,1.8,0.2,2.8c0.1,0.5,0.1,0.8,0.1,0.9c0,1-0.2,1.5-0.6,1.8c-0.2,0.1-0.4,0.1-0.7,0.1c-0.9,0-1.5-0.2-1.7-0.6
			c-0.1-0.2-0.2-2.1-0.3-5.7c0-1.1-0.1-2.4-0.1-3.7c0-1.3,0-2.3,0-2.9s0-1.4-0.1-2.4s-0.2-2-0.3-3.2c-0.1-1.3-0.2-2.1-0.2-2.4
			c0-0.7,0.1-1.1,0.3-1.4C86.9,160.6,87.3,160.4,87.8,160.3z M90.4,163.4c-0.1-0.2-0.2-0.3-0.5-0.3c-0.2,0-0.3,0.1-0.4,0.3
			c-0.1,0.2-0.1,0.4,0,0.5c0,0,0.1,0.9,0.2,2.7c0.1,1.8,0.2,2.7,0.3,2.8c0.1,0.1,0.2-0.1,0.4-0.3c0.2-0.2,0.2-0.7,0.2-1.4
			c0-0.5,0-1,0-1.4C90.6,164.6,90.5,163.7,90.4,163.4z"/>
		<path class="st2" d="M112.5,159.3c0.1,0,0.3,0,0.6,0c0.7,0,1.7,0.1,2.8,0.3c1.2,0.2,1.9,0.5,2.3,0.7c0.2,0.2,0.6,0.7,1,1.5
			s0.6,2.1,0.7,3.9c0,0.4,0.1,0.8,0.1,1.2c0,0.4,0.1,0.8,0.1,1s0,0.5,0,0.7c0,0.3-0.1,1.6-0.2,3.8l-0.2,3.6l1.3,1.9
			c1.2,1.8,1.8,2.9,1.8,3.2c0,0.2-0.1,0.4-0.3,0.6c-0.2,0.2-0.6,0.3-1.1,0.3c-0.4,0-0.8-0.1-1-0.3c-0.2-0.2-0.5-0.5-0.8-1.1
			c-0.3-0.5-0.5-0.8-0.6-0.8s-0.3,0.4-0.7,1.1c-0.5,1.1-1.4,1.8-2.6,2.1h-0.1c-0.1,0-0.1,0-0.2,0c-0.5,0-1.1-0.2-1.8-0.6
			s-1.1-0.8-1.4-1.2c-0.9-1.4-1.3-5.1-1.3-11.2v-2.2c0-2.8,0.1-4.7,0.3-5.6C111.6,160.4,112.1,159.4,112.5,159.3z M116.8,163.4
			c-0.1-0.3-0.3-0.7-0.8-1.2c-0.4-0.5-0.8-0.7-1.2-0.7c-0.2,0-0.4,0.1-0.5,0.2c-0.1,0.2-0.3,0.9-0.6,2c-0.2,1-0.3,2-0.3,2.9
			c0,0.2,0,1,0.1,2.4c0.2,4.9,0.6,8.1,1,9.8c0.1,0.4,0.2,0.6,0.3,0.6c0.1,0.1,0.2,0.1,0.4-0.1c0.3-0.1,0.6-0.5,0.8-1.1
			c0.2-0.6,0.4-1.1,0.4-1.5c0,0,0-0.1,0-0.2s0-0.1,0-0.1c-0.1-0.4-0.4-0.9-0.8-1.6c-0.4-0.6-0.6-1.2-0.6-1.6c0-0.7,0.5-1,1.3-1
			c0.3,0,0.5-0.1,0.5-0.4c0.1-0.3,0.2-1.1,0.3-2.4c0-0.2,0-0.6,0-1.1C117.2,166.6,117.1,164.9,116.8,163.4z"/>
		<path class="st2" d="M127.6,159.7c0.3-0.2,0.8-0.4,1.3-0.4c0.6,0,1.1,0.1,1.5,0.5l0.6,0.5v5.1c0.1,6,0.2,10,0.6,12.3
			c0.1,0.4,0.2,0.7,0.2,0.7c0.3,0,0.5-0.9,0.6-2.6c0.4-3.6,0.6-7.1,0.6-10.6v-1v-0.5c0-1.9,0.2-3,0.7-3.3c0.1-0.1,0.4-0.2,0.8-0.2
			c0.8,0,1.3,0.1,1.6,0.4c0.4,0.4,0.7,1.5,0.7,3.4c0,1.5-0.1,4.4-0.4,8.6c-0.2,3.5-0.6,6-1.1,7.4c-0.6,1.5-1.4,2.4-2.7,2.8
			c-0.5,0.2-0.8,0.2-1,0.2s-0.6-0.1-1.4-0.5c-1.5-0.7-2.4-1.9-2.6-3.5c-0.2-1.4-0.3-5.9-0.5-13.5c0-1.1,0-2.3,0-3.6
			c0-0.9,0-1.4,0.1-1.7C127.3,160.1,127.4,159.9,127.6,159.7z"/>
		<path class="st2" d="M144.4,161.3c0.7-0.7,1.8-1.1,3.3-1.1c0.6,0,1.2,0.1,1.6,0.3c0.6,0.3,1,1.1,1.3,2.4c0.2,1.1,0.4,2.9,0.7,5.4
			c0.3,2.6,0.4,4.5,0.5,5.9c0,1.3,0.1,2.8,0.3,4.4s0.3,2.5,0.4,2.7c0,0,0,0.1,0,0.2c0,0.2-0.1,0.6-0.3,0.9c-0.2,0.4-0.4,0.6-0.6,0.6
			c-0.1,0-0.2,0-0.4,0c-0.4,0-0.9-0.1-1.4-0.3c-0.5-0.2-0.8-0.4-0.9-0.6s-0.2-1-0.4-2.3s-0.2-2.4-0.2-3.2c0-0.8-0.1-1.2-0.2-1.3
			c-0.1-0.1-0.8-0.1-1.9-0.1c-0.9,0-1.4,0-1.5,0.1c0,0.1,0,0.3,0,0.5c0,0.6,0,1.3,0.1,2.3c0.1,1.1,0.1,2,0.1,2.7v0.4
			c0,0.2-0.2,0.4-0.6,0.5c-0.4,0.2-0.7,0.2-1.1,0.2c-0.2,0-0.3,0-0.4,0c-0.9-0.3-1.5-0.7-1.6-1.2c0,0,0-0.1,0-0.2s0-0.2,0-0.3
			c0-1.2,0.1-3.7,0.4-7.6c0.3-3.9,0.5-6.1,0.6-6.7c0.2-0.8,0.5-1.6,1-2.6C143.5,162.4,144,161.7,144.4,161.3z M147.2,165.6
			c-0.2-0.8-0.4-1.2-0.6-1.2c-0.2,0-0.4,0.3-0.7,0.9c-0.5,1.1-0.9,2.7-1,4.6c-0.1,0.8-0.1,1.3-0.1,1.4c0,0.4,0.1,0.6,0.2,0.7
			c0.1,0.1,0.5,0.2,1.1,0.2c0.8,0,1.3-0.1,1.4-0.2c0.1-0.1,0.1-0.5,0.1-1.1C147.7,168.9,147.5,167.2,147.2,165.6z"/>
		<path class="st2" d="M157.1,160.7c0.2-0.2,0.5-0.4,0.8-0.4c0.2,0,0.5,0,0.6,0c0.6,0.1,1.1,0.3,1.2,0.5c0.3,0.4,0.5,3,0.5,7.6v2.5
			v2.2c0,3.7,0,5.7,0.1,6c0.1,0.5,0.6,0.7,1.4,0.7c0.4,0,0.7,0,1,0c0.2,0,0.5,0,0.8,0c0.5,0,0.9,0.1,1.1,0.2
			c0.2,0.2,0.3,0.5,0.3,0.9c0,0.3-0.1,0.5-0.2,0.7c-0.1,0.1-0.4,0.4-0.8,0.6c-0.8,0.4-1.6,0.6-2.4,0.7c-1.2,0.1-1.8,0.1-1.8,0.1
			s-0.2,0-0.3,0c-0.3,0-0.7-0.1-1.1-0.3c-0.4-0.2-0.7-0.4-1-0.7c-0.4-0.5-0.6-2-0.6-4.3c0-0.6,0-1.7,0.1-3.3c0.1-1.5,0.1-3,0.1-4.8
			c0-4.1-0.1-6.6-0.2-7.6c-0.1-0.4-0.1-0.6-0.1-0.7C156.6,161.2,156.8,161,157.1,160.7z"/>
		<path class="st2" d="M169.9,161.2c0.3-0.4,0.8-0.5,1.3-0.5s0.9,0.2,1.3,0.5l0.6,0.5l0.2,9.5c0.1,5.2,0.2,8.2,0.2,9
			c0,0.4,0,0.8,0,1c0,0.3,0,0.5,0,0.6c0,0.2-0.1,0.3-0.1,0.4c-0.1,0.1-0.1,0.2-0.1,0.2s-0.1,0.1-0.2,0.1c-0.1,0.1-0.2,0.1-0.2,0.1
			c-0.3,0.2-0.6,0.3-0.8,0.3c-0.1,0-0.4-0.1-0.8-0.2c-0.7-0.3-1.1-0.5-1.1-0.7c-0.1-0.1-0.2-3.5-0.2-10.1c-0.1-6.6-0.1-10-0.2-10
			C169.4,161.8,169.5,161.5,169.9,161.2z"/>
		<path class="st2" d="M178.6,160c0.4-0.3,1-0.5,1.9-0.5h1c1.5,0.1,2.4,0.1,2.7,0.2c0.2,0.1,0.6,0.1,1.2,0.2c0.6,0,1.1,0.2,1.4,0.4
			c0.3,0.2,0.4,0.6,0.4,1.1s-0.1,0.9-0.3,1.1s-0.6,0.4-1.1,0.5c-0.6,0.1-0.9,0.2-1,0.3c-0.1,0.1-0.2,2.8-0.2,8c0,3.6,0,6.1,0.1,7.6
			c0.1,1.2,0.1,1.8,0.1,1.9c0,0.6-0.1,1.1-0.4,1.5c-0.3,0.6-0.8,0.8-1.4,0.8c-0.4,0-0.9-0.1-1.3-0.4l-0.8-0.5l0.1-9.6
			c0.1-2.5,0.1-4.9,0.1-7.4c0-1.5-0.1-2.3-0.3-2.4c-0.3-0.2-0.5-0.2-0.6-0.2s-0.3,0-0.5,0c-0.5,0-0.9-0.2-1.3-0.4
			c-0.3-0.3-0.5-0.6-0.5-1C177.9,160.7,178.1,160.3,178.6,160z"/>
		<path class="st2" d="M193.6,158.7c0.4-0.2,0.8-0.2,1.1-0.2c0.4,0,0.8,0.2,1.1,0.5c0.3,0.4,0.5,1.1,0.6,2.1c0.1,2,0.5,3.7,1.1,5.3
			c0.2,0.5,0.3,0.9,0.3,1.2c0,0.1,0,0.2,0.1,0.2c0,0.1,0.1,0.1,0.1,0c0.2-0.1,0.2-0.5,0.2-1.3s0-1.2,0.1-1.3
			c0.1-0.1,0.1-0.9,0.2-2.6s0.1-2.8,0.1-3.2c0-0.2,0.3-0.4,0.9-0.7c0.6-0.2,1.1-0.4,1.5-0.4c0.6,0,1.1,0.2,1.3,0.6
			c0.2,0.3,0.4,0.7,0.4,1.1c0,0.3-0.1,1.8-0.4,4.4c-0.1,0.5-0.2,2-0.3,4.5c-0.1,1.9-0.5,4.1-1.2,6.7c-0.3,1.3-0.7,2.4-1,3.1
			c-0.4,0.7-0.9,1.4-1.5,2.1c-0.3,0.4-0.6,0.6-0.8,0.6s-0.3,0.1-0.5,0.5c-0.1,0.3-0.5,0.5-1,0.7s-1.1,0.3-1.7,0.3
			c-0.4,0-1-0.2-1.6-0.5s-0.9-0.6-0.9-0.8c0-0.3,0.2-0.6,0.5-1s0.7-0.7,1.2-0.9c0.8-0.4,1.5-0.9,2-1.6s1-1.7,1.4-3
			c0.5-1.5,0.7-2.4,0.7-2.8c0-0.3-0.2-0.6-0.7-0.7c-1.2-0.5-2-1.1-2.4-1.8c-0.2-0.4-0.6-2.2-1.3-5.4c-0.4-1.6-0.6-2.8-0.6-3.7
			C192.6,159.7,193,159,193.6,158.7z"/>
		<path class="st2" d="M220.8,160.6c0.3-0.2,0.7-0.2,1.2-0.2c0.3,0,0.6,0,0.8,0c0.8,0.1,1.4,0.2,1.7,0.3c0.3,0.1,0.6,0.4,0.8,0.8
			c0.3,0.5,0.4,0.9,0.4,1.3c0,0.5-0.2,0.9-0.6,1.3c-0.3,0.3-0.7,0.5-1,0.5c-0.4,0-0.7-0.2-1.1-0.7c-0.2-0.4-0.5-0.5-0.8-0.5
			c-0.2,0-0.5,0.2-0.7,0.5c-0.2,0.4-0.4,0.7-0.4,1.2v0.2c0,1.5,1.2,4.4,3.5,8.5c0.4,0.7,0.8,1.9,1.1,3.7c0,0.1,0,0.3,0,0.6
			c0,1.5-0.3,2.7-1,3.6c-0.3,0.4-0.7,0.7-1.4,1c-0.6,0.3-1.2,0.4-1.7,0.4c-0.1,0-0.1,0-0.2,0s-0.1,0-0.2,0c-0.6-0.1-1.4-0.6-2.3-1.5
			c-0.9-0.9-1.4-1.5-1.4-2c0-0.2,0.2-0.5,0.5-0.8s0.6-0.5,0.9-0.5c0.1,0,0.2,0,0.3,0c0.3,0,0.8,0.5,1.5,1.3c0.2,0.4,0.5,0.6,0.8,0.6
			s0.5-0.2,0.6-0.5c0.1-0.1,0.1-0.3,0.1-0.6c0-1.6-0.7-4-2.2-7.1c-1.3-2.9-2-5.1-2-6.5c0-0.6,0.1-1.2,0.3-1.7c0.4-1.1,0.8-1.8,1-2.2
			C219.8,161.2,220.2,160.9,220.8,160.6z"/>
		<path class="st2" d="M230.3,160.7c0.2-0.2,0.5-0.4,0.8-0.4c0.2,0,0.5,0,0.6,0c0.6,0.1,1.1,0.3,1.2,0.5c0.3,0.4,0.5,3,0.5,7.6v2.5
			v2.2c0,3.7,0,5.7,0.1,6c0.1,0.5,0.6,0.7,1.4,0.7c0.4,0,0.7,0,1,0c0.2,0,0.5,0,0.8,0c0.5,0,0.9,0.1,1.1,0.2
			c0.2,0.2,0.3,0.5,0.3,0.9c0,0.3-0.1,0.5-0.2,0.7c-0.1,0.1-0.4,0.4-0.8,0.6c-0.8,0.4-1.6,0.6-2.4,0.7c-1.2,0.1-1.8,0.1-1.9,0.1
			s-0.1,0-0.3,0c-0.3,0-0.7-0.1-1.1-0.3c-0.4-0.2-0.7-0.4-1-0.7c-0.4-0.5-0.6-2-0.6-4.3c0-0.6,0-1.7,0.1-3.3c0.1-1.5,0.1-3,0.1-4.8
			c0-4.1-0.1-6.6-0.2-7.6c-0.1-0.4-0.1-0.6-0.1-0.7C229.9,161.2,230.1,161,230.3,160.7z"/>
		<path class="st2" d="M244.5,161.1c0.3-0.1,0.8-0.1,1.3-0.1c1.5,0,2.5,0.2,2.9,0.5c0.3,0.2,0.4,0.6,0.4,0.9c0,0.4-0.1,0.7-0.4,0.9
			s-0.6,0.4-1.1,0.4c-0.4,0-0.7,0.1-0.8,0.3c-0.1,0.2-0.2,0.7-0.2,1.4c0,0.2,0,0.9,0.1,2.1c0.1,1.4,0.1,2.3,0.2,2.7s0.2,0.6,0.3,0.6
			c0,0,0.2,0,0.5,0s0.6,0,0.8,0c0.7,0,1.2,0.2,1.5,0.5c0.2,0.2,0.3,0.4,0.3,0.6c0,0.4-0.6,0.9-1.8,1.3c-0.7,0.2-1.1,0.4-1.3,0.6
			s-0.2,0.4-0.3,0.9s-0.1,0.8-0.1,1.2c0,1.4,0.1,2.5,0.4,3.2c0.1,0.3,0.2,0.5,0.4,0.5c0.1,0.1,0.4,0.1,0.9,0.1
			c0.6,0,1.1,0.1,1.5,0.4s0.6,0.6,0.6,1c0,0.2-0.2,0.6-0.6,1c-0.7,0.6-1.8,1-3.4,1c-1.6,0-2.7-0.4-3.2-1c-0.3-0.4-0.5-2.8-0.5-7.2
			c-0.1-5.5-0.1-8.8-0.2-9.7l-0.1-3.1l0.6-0.3C243.8,161.4,244.2,161.2,244.5,161.1z"/>
		<path class="st2" d="M256.9,161.1c0.3-0.1,0.8-0.1,1.3-0.1c1.5,0,2.5,0.2,2.9,0.5c0.3,0.2,0.4,0.6,0.4,0.9c0,0.4-0.1,0.7-0.4,0.9
			s-0.6,0.4-1.1,0.4c-0.4,0-0.7,0.1-0.8,0.3c-0.1,0.2-0.2,0.7-0.2,1.4c0,0.2,0,0.9,0.1,2.1c0.1,1.4,0.1,2.3,0.2,2.7
			c0.1,0.4,0.2,0.6,0.3,0.6c0,0,0.2,0,0.6,0c0.3,0,0.6,0,0.8,0c0.7,0,1.2,0.2,1.5,0.5c0.2,0.2,0.3,0.4,0.3,0.6
			c0,0.4-0.6,0.9-1.8,1.3c-0.7,0.2-1.1,0.4-1.3,0.6c-0.1,0.1-0.2,0.4-0.3,0.9c-0.1,0.5-0.1,0.8-0.1,1.2c0,1.4,0.1,2.5,0.4,3.2
			c0.1,0.3,0.2,0.5,0.4,0.5c0.1,0.1,0.4,0.1,0.9,0.1c0.6,0,1.1,0.1,1.5,0.4s0.6,0.6,0.6,1c0,0.2-0.2,0.6-0.6,1c-0.7,0.6-1.8,1-3.4,1
			s-2.7-0.4-3.2-1c-0.3-0.4-0.4-2.8-0.5-7.2c-0.1-5.5-0.1-8.8-0.2-9.7l-0.1-3.1l0.6-0.3C256.1,161.4,256.5,161.2,256.9,161.1z"/>
		<path class="st2" d="M268.4,159.6c0.3-0.1,1-0.2,2.1-0.2c1.3,0,2.2,0.1,2.5,0.3c0.5,0.2,0.9,0.6,1.5,1.2c0.5,0.5,0.9,1,1.1,1.4
			c0.3,0.6,0.6,2.2,0.6,4.5c0.1,1.4,0.1,2.2,0.1,2.4c0,0.9-0.1,1.7-0.4,2.5c-0.3,0.9-0.6,1.6-1,2c-0.4,0.5-1,0.8-1.7,1l-1.2,0.4v3.4
			c0,2-0.1,3.3-0.2,3.7c-0.1,0.5-0.6,0.7-1.2,0.7s-1.1-0.2-1.5-0.5l-0.6-0.5v-3v-0.7c0-2.4-0.1-5.4-0.2-9s-0.3-5.8-0.4-6.7
			c-0.1-0.6-0.1-1.2-0.1-1.5C267.5,160.4,267.8,159.8,268.4,159.6z M272.1,163.5c-0.3-0.6-0.5-1-0.7-1c-0.1,0-0.1,0-0.2,0.1
			c0,1,0,2,0,3.2c0,4,0.2,6,0.5,6c0.1,0,0.3-0.3,0.6-0.8c0.2-0.5,0.3-1.1,0.3-1.8c0-0.2,0-0.8-0.1-1.9
			C272.5,165.3,272.3,164,272.1,163.5z"/>
		<path class="st2" d="M280.9,180.2c0.3-0.3,0.6-0.5,0.9-0.5c0.1,0,0.3,0,0.6,0.1c1.1,0.2,1.7,0.7,1.7,1.3c0,0.5-0.4,1-1,1.4
			s-1.1,0.6-1.4,0.6c-0.6,0-1-0.5-1.1-1.4c0-0.2,0-0.4,0-0.6C280.4,180.8,280.6,180.5,280.9,180.2z"/>
		<path class="st1" d="M22.4,208.7v-10.1h-3.3v-1.1h8v1.1h-3.3v10.1H22.4z"/>
		<path class="st1" d="M28.6,208.7v-11.5h1.3v4.9c0.3-0.5,0.7-0.9,1.1-1.1c0.5-0.3,1-0.4,1.6-0.4c0.9,0,1.7,0.3,2.2,0.9
			s0.8,1.5,0.8,2.6v4.6h-1.3v-4.5c0-1.7-0.7-2.5-2-2.5c-0.7,0-1.3,0.2-1.7,0.7c-0.5,0.5-0.7,1.2-0.7,2.1v4.1L28.6,208.7L28.6,208.7z
			"/>
		<path class="st1" d="M41.4,208.9c-0.8,0-1.4-0.2-2-0.5s-1-0.8-1.4-1.4c-0.3-0.6-0.5-1.4-0.5-2.2c0-0.8,0.2-1.6,0.5-2.2
			s0.8-1.1,1.4-1.5s1.3-0.5,2.1-0.5s1.4,0.2,2,0.5c0.6,0.4,1,0.8,1.3,1.4s0.5,1.2,0.5,1.8c0,0.1,0,0.2,0,0.4s0,0.2,0,0.4h-6.5
			c0,0.6,0.2,1.1,0.4,1.5s0.6,0.7,0.9,0.9c0.4,0.2,0.8,0.3,1.2,0.3c0.5,0,1-0.1,1.4-0.4s0.6-0.6,0.8-1h1.3c-0.2,0.7-0.6,1.4-1.2,1.8
			C43.1,208.6,42.3,208.9,41.4,208.9z M41.4,201.7c-0.6,0-1.2,0.2-1.7,0.6s-0.8,1-0.9,1.7h5c0-0.7-0.3-1.3-0.7-1.7
			C42.6,201.9,42,201.7,41.4,201.7z"/>
		<path class="st1" d="M46.9,208.7v-7.9h1.2l0.1,1.5c0.2-0.5,0.6-0.9,1.1-1.2s1.1-0.5,1.9-0.5v1.4h-0.4c-0.5,0-0.9,0.1-1.3,0.2
			c-0.4,0.2-0.7,0.4-0.9,0.8s-0.4,0.9-0.4,1.6v4h-1.3V208.7z"/>
		<path class="st1" d="M56,208.9c-0.8,0-1.4-0.2-2-0.5c-0.6-0.4-1.1-0.8-1.4-1.4c-0.3-0.6-0.5-1.4-0.5-2.2c0-0.8,0.2-1.6,0.5-2.2
			s0.8-1.1,1.4-1.5c0.6-0.4,1.3-0.5,2.1-0.5s1.4,0.2,2,0.5c0.6,0.4,1,0.8,1.3,1.4c0.3,0.6,0.5,1.2,0.5,1.8c0,0.1,0,0.2,0,0.4
			s0,0.2,0,0.4h-6.3c0,0.6,0.2,1.1,0.4,1.5s0.6,0.7,0.9,0.9c0.4,0.2,0.8,0.3,1.2,0.3c0.6,0,1-0.1,1.4-0.4s0.7-0.6,0.8-1h1.3
			c-0.2,0.7-0.6,1.4-1.2,1.8C57.7,208.6,56.9,208.9,56,208.9z M56,201.7c-0.6,0-1.2,0.2-1.7,0.6s-0.8,1-0.9,1.7h5
			c0-0.7-0.3-1.3-0.7-1.7C57.2,201.9,56.6,201.7,56,201.7z"/>
		<path class="st1" d="M66.6,199c-0.3,0-0.5-0.1-0.7-0.3c-0.2-0.2-0.3-0.4-0.3-0.7c0-0.3,0.1-0.5,0.3-0.6s0.4-0.3,0.7-0.3
			c0.3,0,0.5,0.1,0.7,0.3c0.2,0.2,0.3,0.4,0.3,0.6c0,0.3-0.1,0.5-0.3,0.7C67,198.9,66.8,199,66.6,199z M65.9,208.7v-7.9h1.3v7.9
			H65.9z"/>
		<path class="st1" d="M72.6,208.9c-0.9,0-1.7-0.2-2.4-0.7c-0.6-0.5-1-1.1-1.1-2h1.4c0.1,0.4,0.3,0.8,0.7,1.1
			c0.4,0.3,0.8,0.5,1.5,0.5c0.6,0,1-0.1,1.2-0.4c0.3-0.2,0.4-0.5,0.4-0.9c0-0.5-0.2-0.8-0.5-1s-0.8-0.3-1.5-0.4
			c-0.4-0.1-0.8-0.2-1.3-0.4s-0.8-0.4-1.1-0.7s-0.4-0.7-0.4-1.2c0-0.7,0.3-1.3,0.8-1.7s1.2-0.7,2.1-0.7c0.8,0,1.5,0.2,2.1,0.6
			c0.5,0.4,0.8,1,0.9,1.8h-1.3c0-0.4-0.2-0.7-0.5-1c-0.3-0.2-0.7-0.3-1.2-0.3s-0.8,0.1-1.1,0.3c-0.3,0.2-0.4,0.5-0.4,0.8
			s0.2,0.6,0.5,0.8c0.3,0.2,0.8,0.3,1.4,0.5c0.5,0.1,1,0.2,1.4,0.4c0.4,0.1,0.8,0.4,1.1,0.7c0.3,0.3,0.4,0.7,0.4,1.3
			c0,0.7-0.3,1.3-0.8,1.8C74.3,208.7,73.6,208.9,72.6,208.9z"/>
		<path class="st1" d="M84.5,208.9c-0.7,0-1.2-0.1-1.7-0.3c-0.4-0.2-0.8-0.5-1-0.9s-0.3-0.8-0.3-1.2c0-0.8,0.3-1.4,0.9-1.9
			c0.6-0.4,1.5-0.7,2.5-0.7H87v-0.1c0-0.7-0.2-1.2-0.5-1.6c-0.4-0.4-0.8-0.5-1.5-0.5c-0.5,0-1,0.1-1.4,0.4s-0.6,0.6-0.7,1.1h-1.4
			c0.1-0.6,0.2-1.1,0.6-1.5c0.3-0.4,0.8-0.7,1.3-0.9c0.5-0.2,1-0.3,1.6-0.3c1.1,0,1.9,0.3,2.5,0.9s0.8,1.4,0.8,2.4v4.9h-1.2
			l-0.1-1.4c-0.2,0.5-0.6,0.8-1,1.1C85.8,208.7,85.2,208.9,84.5,208.9z M84.7,207.8c0.5,0,0.9-0.1,1.3-0.4s0.7-0.6,0.8-1
			c0.2-0.4,0.3-0.9,0.3-1.3l0,0h-2c-0.8,0-1.3,0.1-1.7,0.4c-0.3,0.3-0.5,0.6-0.5,1s0.1,0.8,0.5,1C83.7,207.6,84.1,207.8,84.7,207.8z
			"/>
		<path class="st1" d="M90.5,208.7v-11.5h1.3v11.5H90.5z"/>
		<path class="st1" d="M97.1,208.9c-1,0-1.7-0.2-2.4-0.7c-0.6-0.5-1-1.1-1.1-2H95c0.1,0.4,0.3,0.8,0.7,1.1c0.4,0.3,0.8,0.5,1.4,0.5
			s1-0.1,1.2-0.4c0.3-0.2,0.4-0.5,0.4-0.9c0-0.5-0.2-0.8-0.5-1c-0.4-0.2-0.8-0.3-1.5-0.4c-0.4-0.1-0.8-0.2-1.3-0.4s-0.8-0.4-1.1-0.7
			s-0.4-0.7-0.4-1.2c0-0.7,0.3-1.3,0.8-1.7c0.5-0.4,1.2-0.7,2.1-0.7c0.8,0,1.5,0.2,2.1,0.6c0.5,0.4,0.8,1,0.9,1.8h-1.3
			c-0.1-0.4-0.2-0.7-0.5-1c-0.3-0.2-0.7-0.3-1.2-0.3s-0.8,0.1-1.1,0.3c-0.3,0.2-0.4,0.5-0.4,0.8s0.2,0.6,0.5,0.8
			c0.3,0.2,0.8,0.3,1.4,0.5c0.5,0.1,1,0.2,1.4,0.4c0.4,0.1,0.8,0.4,1.1,0.7c0.3,0.3,0.4,0.7,0.4,1.3c0,0.7-0.3,1.3-0.8,1.8
			C98.7,208.7,98,208.9,97.1,208.9z"/>
		<path class="st1" d="M105.6,208.9c-0.8,0-1.4-0.2-2-0.5s-1.1-0.8-1.4-1.5s-0.5-1.4-0.5-2.2s0.2-1.6,0.5-2.2s0.8-1.1,1.4-1.4
			s1.3-0.5,2-0.5c0.8,0,1.4,0.2,2,0.5s1.1,0.8,1.4,1.4c0.4,0.6,0.5,1.4,0.5,2.2s-0.2,1.6-0.5,2.2s-0.8,1.1-1.4,1.5
			C107.1,208.7,106.4,208.9,105.6,208.9z M105.6,207.7c0.5,0,0.9-0.1,1.3-0.3c0.4-0.2,0.7-0.6,1-1c0.2-0.5,0.4-1,0.4-1.7
			s-0.1-1.2-0.4-1.7s-0.6-0.8-0.9-1c-0.4-0.2-0.8-0.3-1.3-0.3s-0.9,0.1-1.3,0.3c-0.4,0.2-0.7,0.6-1,1c-0.2,0.4-0.4,1-0.4,1.7
			s0.1,1.2,0.4,1.7s0.6,0.8,1,1C104.8,207.6,105.2,207.7,105.6,207.7z"/>
		<path class="st1" d="M118.8,208.9c-0.9,0-1.7-0.2-2.4-0.7c-0.6-0.5-1-1.1-1.1-2h1.4c0.1,0.4,0.3,0.8,0.7,1.1
			c0.4,0.3,0.8,0.5,1.5,0.5c0.6,0,1-0.1,1.2-0.4c0.3-0.2,0.4-0.5,0.4-0.9c0-0.5-0.2-0.8-0.5-1s-0.8-0.3-1.5-0.4
			c-0.4-0.1-0.9-0.2-1.3-0.4c-0.4-0.2-0.8-0.4-1.1-0.7c-0.3-0.3-0.4-0.7-0.4-1.2c0-0.7,0.3-1.3,0.8-1.7c0.5-0.4,1.2-0.7,2.1-0.7
			c0.8,0,1.5,0.2,2.1,0.6c0.5,0.4,0.8,1,0.9,1.8h-1.3c-0.1-0.4-0.2-0.7-0.5-1c-0.3-0.2-0.7-0.3-1.2-0.3s-0.9,0.1-1.1,0.3
			c-0.3,0.2-0.4,0.5-0.4,0.8s0.2,0.6,0.5,0.8c0.3,0.2,0.8,0.3,1.4,0.5c0.5,0.1,1,0.2,1.4,0.4c0.4,0.1,0.8,0.4,1.1,0.7
			c0.3,0.3,0.4,0.7,0.4,1.3c0,0.7-0.3,1.3-0.8,1.8C120.5,208.7,119.7,208.9,118.8,208.9z"/>
		<path class="st1" d="M126.5,208.7c-0.7,0-1.3-0.2-1.7-0.5c-0.4-0.4-0.6-1-0.6-1.9v-4.4h-1.4v-1.1h1.4l0.2-1.9h1.2v1.9h2.3v1.1
			h-2.3v4.4c0,0.5,0.1,0.8,0.3,1s0.6,0.3,1.1,0.3h0.8v1.2h-1.3V208.7z"/>
		<path class="st1" d="M129.6,208.7v-7.9h1.2l0.1,1.5c0.2-0.5,0.6-0.9,1.1-1.2s1.1-0.5,1.9-0.5v1.4h-0.4c-0.5,0-0.9,0.1-1.3,0.2
			c-0.4,0.2-0.7,0.4-0.9,0.8s-0.4,0.9-0.4,1.6v4h-1.3V208.7z"/>
		<path class="st1" d="M138.7,208.9c-0.8,0-1.4-0.2-2-0.5s-1.1-0.8-1.4-1.5c-0.3-0.6-0.5-1.4-0.5-2.2s0.2-1.6,0.5-2.2
			s0.8-1.1,1.4-1.4c0.6-0.3,1.3-0.5,2-0.5s1.4,0.2,2,0.5s1.1,0.8,1.4,1.4c0.3,0.6,0.5,1.4,0.5,2.2s-0.2,1.6-0.5,2.2
			s-0.8,1.1-1.4,1.5C140.1,208.7,139.4,208.9,138.7,208.9z M138.7,207.7c0.5,0,0.9-0.1,1.3-0.3c0.4-0.2,0.7-0.6,1-1
			c0.2-0.5,0.4-1,0.4-1.7s-0.1-1.2-0.4-1.7s-0.6-0.8-0.9-1c-0.4-0.2-0.8-0.3-1.3-0.3s-0.9,0.1-1.3,0.3c-0.4,0.2-0.7,0.6-1,1
			c-0.2,0.4-0.4,1-0.4,1.7s0.1,1.2,0.4,1.7s0.6,0.8,0.9,1C137.8,207.6,138.2,207.7,138.7,207.7z"/>
		<path class="st1" d="M144.5,208.7v-7.9h1.2l0.1,1.4c0.3-0.5,0.6-0.9,1.1-1.2c0.5-0.3,1-0.4,1.6-0.4c0.9,0,1.7,0.3,2.2,0.9
			c0.6,0.6,0.8,1.5,0.8,2.6v4.6h-1.3v-4.5c0-1.7-0.7-2.5-2.1-2.5c-0.7,0-1.2,0.2-1.7,0.7c-0.4,0.5-0.7,1.2-0.7,2.1v4.1L144.5,208.7
			L144.5,208.7z"/>
		<path class="st1" d="M156.8,206.2c-0.4,0-0.9-0.1-1.2-0.2l-0.8,0.8c0.1,0.1,0.3,0.2,0.4,0.2c0.2,0.1,0.4,0.1,0.8,0.2
			c0.3,0.1,0.8,0.1,1.4,0.1c1.1,0.1,1.8,0.3,2.3,0.7c0.5,0.4,0.7,1,0.7,1.6c0,0.5-0.1,0.9-0.4,1.3c-0.2,0.4-0.6,0.8-1.2,1
			c-0.5,0.3-1.2,0.4-2,0.4c-0.7,0-1.4-0.1-1.9-0.3c-0.5-0.2-1-0.5-1.3-0.9s-0.5-0.9-0.5-1.4c0-0.3,0.1-0.6,0.2-1
			c0.2-0.4,0.5-0.7,0.9-1c-0.2-0.1-0.4-0.2-0.6-0.3c-0.2-0.1-0.3-0.2-0.5-0.4v-0.4l1.4-1.3c-0.6-0.5-0.9-1.2-0.9-2.1
			c0-0.5,0.1-1,0.4-1.4c0.2-0.4,0.6-0.8,1.1-1s1-0.4,1.7-0.4c0.5,0,0.9,0.1,1.2,0.2h2.9v1l-1.5,0.1c0.3,0.4,0.5,1,0.5,1.5
			s-0.1,1-0.4,1.4c-0.2,0.4-0.6,0.8-1.1,1C158.1,206.1,157.5,206.2,156.8,206.2z M154.5,209.7c0,0.5,0.2,0.9,0.7,1.2
			c0.5,0.3,1,0.4,1.7,0.4s1.2-0.1,1.6-0.4c0.4-0.3,0.6-0.7,0.6-1.1c0-0.3-0.1-0.6-0.4-0.9c-0.3-0.2-0.8-0.4-1.5-0.4
			c-0.6,0-1.1-0.1-1.5-0.2c-0.4,0.2-0.7,0.5-0.9,0.8C154.6,209.3,154.5,209.5,154.5,209.7z M156.8,205.1c0.6,0,1-0.1,1.4-0.4
			c0.3-0.3,0.5-0.7,0.5-1.3c0-0.5-0.2-1-0.5-1.3s-0.8-0.4-1.4-0.4c-0.6,0-1,0.1-1.4,0.4s-0.5,0.7-0.5,1.3c0,0.5,0.2,1,0.5,1.3
			C155.8,205,156.3,205.1,156.8,205.1z"/>
		<path class="st1" d="M170.3,208.9c-0.8,0-1.4-0.2-2-0.5c-0.6-0.4-1.1-0.8-1.4-1.4c-0.3-0.6-0.5-1.4-0.5-2.2c0-0.8,0.2-1.6,0.5-2.2
			s0.8-1.1,1.4-1.5c0.6-0.4,1.3-0.5,2.1-0.5s1.4,0.2,2,0.5c0.6,0.4,1,0.8,1.3,1.4s0.4,1.2,0.4,1.8c0,0.1,0,0.2,0,0.4
			c0,0.1,0,0.2,0,0.4h-6.3c0,0.6,0.2,1.1,0.4,1.5s0.6,0.7,0.9,0.9s0.8,0.3,1.2,0.3c0.6,0,1-0.1,1.4-0.4s0.7-0.6,0.8-1h1.3
			c-0.2,0.7-0.6,1.4-1.2,1.8C172.1,208.6,171.3,208.9,170.3,208.9z M170.3,201.7c-0.6,0-1.2,0.2-1.7,0.6s-0.8,1-0.9,1.7h5
			c0-0.7-0.3-1.3-0.7-1.7C171.6,201.9,171,201.7,170.3,201.7z"/>
		<path class="st1" d="M177.8,208.7l-3-7.9h1.4l2.4,6.6l2.4-6.6h1.4l-3,7.9H177.8z"/>
		<path class="st1" d="M184.7,199c-0.3,0-0.5-0.1-0.7-0.3c-0.2-0.2-0.3-0.4-0.3-0.7c0-0.3,0.1-0.5,0.3-0.6s0.4-0.3,0.7-0.3
			s0.5,0.1,0.7,0.3s0.3,0.4,0.3,0.6c0,0.3-0.1,0.5-0.3,0.7S185,199,184.7,199z M184,208.7v-7.9h1.3v7.9H184z"/>
		<path class="st1" d="M191.3,208.9c-0.8,0-1.5-0.2-2.1-0.5c-0.6-0.4-1.1-0.9-1.4-1.5c-0.3-0.6-0.5-1.3-0.5-2.1s0.2-1.5,0.5-2.1
			s0.8-1.1,1.4-1.5c0.6-0.4,1.3-0.5,2.1-0.5c0.6,0,1.2,0.1,1.7,0.4s0.9,0.6,1.2,1.1v-5h1.3v11.5h-1.2l-0.1-1.3
			c-0.3,0.4-0.6,0.7-1.1,1C192.6,208.7,192,208.9,191.3,208.9z M191.5,207.7c0.5,0,1-0.1,1.4-0.4c0.4-0.2,0.7-0.6,1-1
			c0.2-0.5,0.3-1,0.3-1.6s-0.1-1.1-0.3-1.6c-0.2-0.4-0.6-0.8-1-1s-0.9-0.4-1.4-0.4s-1,0.1-1.4,0.4s-0.7,0.6-1,1
			c-0.2,0.5-0.3,1-0.3,1.6s0.1,1.1,0.3,1.6c0.2,0.4,0.6,0.8,1,1C190.5,207.6,190.9,207.7,191.5,207.7z"/>
		<path class="st1" d="M201.3,208.9c-0.8,0-1.4-0.2-2-0.5c-0.6-0.4-1-0.8-1.4-1.4c-0.3-0.6-0.5-1.4-0.5-2.2c0-0.8,0.2-1.6,0.5-2.2
			s0.8-1.1,1.4-1.5c0.6-0.4,1.3-0.5,2.1-0.5s1.4,0.2,2,0.5s1,0.8,1.3,1.4s0.4,1.2,0.4,1.8c0,0.1,0,0.2,0,0.4c0,0.1,0,0.2,0,0.4h-6.3
			c0,0.6,0.2,1.1,0.4,1.5s0.6,0.7,0.9,0.9c0.4,0.2,0.8,0.3,1.2,0.3c0.6,0,1-0.1,1.4-0.4s0.7-0.6,0.8-1h1.3c-0.2,0.7-0.6,1.4-1.2,1.8
			C203.1,208.6,202.3,208.9,201.3,208.9z M201.3,201.7c-0.6,0-1.2,0.2-1.7,0.6s-0.8,1-0.9,1.7h5c0-0.7-0.3-1.3-0.7-1.7
			C202.6,201.9,202,201.7,201.3,201.7z"/>
		<path class="st1" d="M206.9,208.7v-7.9h1.2l0.1,1.4c0.3-0.5,0.6-0.9,1.1-1.2c0.5-0.3,1-0.4,1.6-0.4c0.9,0,1.7,0.3,2.2,0.9
			c0.6,0.6,0.8,1.5,0.8,2.6v4.6h-1.3v-4.5c0-1.7-0.7-2.5-2.1-2.5c-0.7,0-1.2,0.2-1.7,0.7c-0.4,0.5-0.7,1.2-0.7,2.1v4.1L206.9,208.7
			L206.9,208.7z"/>
		<path class="st1" d="M219.7,208.9c-0.8,0-1.4-0.2-2-0.5c-0.6-0.4-1.1-0.8-1.4-1.5c-0.3-0.6-0.5-1.4-0.5-2.2c0-0.8,0.2-1.6,0.5-2.2
			c0.4-0.6,0.8-1.1,1.4-1.5c0.6-0.4,1.3-0.5,2-0.5c0.9,0,1.7,0.2,2.4,0.7c0.6,0.5,1,1.1,1.2,2h-1.4c-0.1-0.5-0.4-0.9-0.8-1.1
			c-0.4-0.3-0.9-0.4-1.5-0.4c-0.4,0-0.9,0.1-1.3,0.3c-0.4,0.2-0.7,0.6-1,1c-0.2,0.4-0.4,1-0.4,1.7s0.1,1.2,0.4,1.7s0.6,0.8,1,1
			s0.8,0.3,1.3,0.3c0.6,0,1-0.1,1.5-0.4s0.7-0.7,0.8-1.2h1.4c-0.2,0.8-0.6,1.5-1.2,2C221.4,208.6,220.6,208.9,219.7,208.9z"/>
		<path class="st1" d="M228.7,208.9c-0.8,0-1.4-0.2-2-0.5c-0.6-0.4-1.1-0.8-1.4-1.4c-0.3-0.6-0.5-1.4-0.5-2.2c0-0.8,0.2-1.6,0.5-2.2
			s0.8-1.1,1.4-1.5c0.6-0.4,1.3-0.5,2.1-0.5s1.4,0.2,2,0.5c0.6,0.4,1,0.8,1.3,1.4s0.4,1.2,0.4,1.8c0,0.1,0,0.2,0,0.4
			c0,0.1,0,0.2,0,0.4h-6.3c0,0.6,0.2,1.1,0.4,1.5s0.6,0.7,0.9,0.9s0.8,0.3,1.2,0.3c0.6,0,1-0.1,1.4-0.4s0.7-0.6,0.8-1h1.3
			c-0.2,0.7-0.6,1.4-1.2,1.8C230.4,208.6,229.6,208.9,228.7,208.9z M228.7,201.7c-0.6,0-1.2,0.2-1.7,0.6s-0.8,1-0.9,1.7h5
			c0-0.7-0.3-1.3-0.7-1.7C229.9,201.9,229.4,201.7,228.7,201.7z"/>
		<path class="st1" d="M241.6,208.7c-0.7,0-1.3-0.2-1.7-0.5c-0.4-0.4-0.6-1-0.6-1.9v-4.4h-1.4v-1.1h1.4l0.2-1.9h1.2v1.9h2.3v1.1
			h-2.3v4.4c0,0.5,0.1,0.8,0.3,1s0.6,0.3,1.1,0.3h0.8v1.2h-1.3V208.7z"/>
		<path class="st1" d="M244.7,208.7v-11.5h1.3v4.9c0.3-0.5,0.6-0.9,1.1-1.1c0.5-0.3,1-0.4,1.6-0.4c0.9,0,1.6,0.3,2.2,0.9
			c0.5,0.6,0.8,1.5,0.8,2.6v4.6h-1.3v-4.5c0-1.7-0.7-2.5-2-2.5c-0.7,0-1.3,0.2-1.7,0.7c-0.5,0.5-0.7,1.2-0.7,2.1v4.1L244.7,208.7
			L244.7,208.7z"/>
		<path class="st1" d="M256.5,208.9c-0.7,0-1.2-0.1-1.6-0.3c-0.4-0.2-0.8-0.5-1-0.9s-0.3-0.8-0.3-1.2c0-0.8,0.3-1.4,0.9-1.9
			c0.6-0.4,1.5-0.7,2.5-0.7h2.1v-0.1c0-0.7-0.2-1.2-0.5-1.6c-0.4-0.4-0.8-0.5-1.5-0.5c-0.5,0-1,0.1-1.4,0.4
			c-0.4,0.3-0.6,0.6-0.7,1.1h-1.4c0.1-0.6,0.2-1.1,0.6-1.5c0.3-0.4,0.8-0.7,1.3-0.9c0.5-0.2,1-0.3,1.6-0.3c1.1,0,1.9,0.3,2.5,0.9
			s0.8,1.4,0.8,2.4v4.9h-1.2l-0.1-1.4c-0.2,0.5-0.5,0.8-1,1.1C257.8,208.7,257.2,208.9,256.5,208.9z M256.7,207.8
			c0.5,0,1-0.1,1.3-0.4c0.4-0.3,0.6-0.6,0.8-1s0.3-0.9,0.3-1.3l0,0h-2c-0.8,0-1.4,0.1-1.7,0.4c-0.3,0.3-0.5,0.6-0.5,1s0.1,0.8,0.5,1
			C255.7,207.6,256.1,207.8,256.7,207.8z"/>
		<path class="st1" d="M265.4,208.7c-0.7,0-1.3-0.2-1.7-0.5c-0.4-0.4-0.6-1-0.6-1.9v-4.4h-1.4v-1.1h1.4l0.2-1.9h1.2v1.9h2.3v1.1
			h-2.3v4.4c0,0.5,0.1,0.8,0.3,1c0.2,0.2,0.6,0.3,1.1,0.3h0.8v1.2h-1.3V208.7z"/>
		<path class="st1" d="M23.3,230.9c-0.8,0-1.4-0.2-2-0.5s-1-0.8-1.4-1.5c-0.3-0.6-0.5-1.3-0.5-2.2c0-0.8,0.2-1.6,0.5-2.2
			s0.8-1.1,1.4-1.5s1.3-0.5,2.1-0.5c0.8,0,1.4,0.2,2,0.5s1,0.8,1.3,1.4c0.3,0.6,0.5,1.2,0.5,1.8c0,0.1,0,0.2,0,0.3
			c0,0.1,0,0.2,0,0.4h-6.3c0,0.6,0.2,1.1,0.4,1.5c0.2,0.4,0.6,0.7,0.9,0.9c0.4,0.2,0.8,0.3,1.2,0.3c0.5,0,1-0.1,1.4-0.4
			s0.7-0.6,0.8-1h1.2c-0.2,0.7-0.6,1.3-1.2,1.8C25,230.7,24.2,230.9,23.3,230.9z M23.3,223.7c-0.6,0-1.2,0.2-1.7,0.6s-0.8,1-0.9,1.7
			h5c0-0.7-0.3-1.3-0.7-1.7C24.5,223.9,23.9,223.7,23.3,223.7z"/>
		<path class="st1" d="M27.6,230.7l2.8-4l-2.8-4h1.5l2.2,3.3l2.2-3.3h1.4l-2.8,4l2.8,4h-1.4l-2.2-3.3l-2.2,3.3H27.6z"/>
		<path class="st1" d="M39.6,230.9c-0.8,0-1.4-0.2-2-0.5s-1-0.8-1.4-1.5c-0.3-0.6-0.5-1.3-0.5-2.2c0-0.8,0.2-1.6,0.5-2.2
			s0.8-1.1,1.4-1.5c0.6-0.4,1.3-0.5,2.1-0.5s1.4,0.2,2,0.5s1,0.8,1.3,1.4s0.4,1.2,0.4,1.8c0,0.1,0,0.2,0,0.3c0,0.1,0,0.2,0,0.4h-6.3
			c0,0.6,0.2,1.1,0.4,1.5s0.6,0.7,0.9,0.9c0.4,0.2,0.8,0.3,1.2,0.3c0.5,0,1-0.1,1.4-0.4s0.7-0.6,0.8-1h1.3c-0.2,0.7-0.6,1.3-1.2,1.8
			C41.3,230.6,40.6,230.9,39.6,230.9z M39.6,223.7c-0.6,0-1.2,0.2-1.7,0.6s-0.8,1-0.9,1.7h5c0-0.7-0.3-1.3-0.7-1.7
			C40.9,223.9,40.3,223.7,39.6,223.7z"/>
		<path class="st1" d="M45.2,230.7v-7.9h1.2l0.1,1.5c0.2-0.5,0.6-0.9,1.1-1.2s1.1-0.5,1.9-0.5v1.4h-0.4c-0.5,0-0.9,0.1-1.3,0.2
			c-0.4,0.2-0.7,0.5-0.9,0.8c-0.2,0.4-0.4,0.9-0.4,1.6v4h-1.3V230.7z"/>
		<path class="st1" d="M54.3,230.9c-0.8,0-1.4-0.2-2-0.5s-1.1-0.8-1.4-1.5c-0.3-0.6-0.5-1.3-0.5-2.2c0-0.8,0.2-1.6,0.5-2.2
			s0.8-1.1,1.4-1.5c0.6-0.4,1.3-0.5,2-0.5c0.9,0,1.7,0.2,2.4,0.7s1.1,1.2,1.2,2h-1.4c-0.1-0.5-0.4-0.9-0.8-1.1
			c-0.4-0.3-0.9-0.4-1.5-0.4c-0.5,0-0.9,0.1-1.3,0.3c-0.4,0.2-0.7,0.6-1,1s-0.4,1-0.4,1.7s0.1,1.2,0.4,1.7s0.6,0.8,1,1
			s0.8,0.3,1.3,0.3s1-0.1,1.5-0.4c0.4-0.3,0.7-0.7,0.8-1.2h1.4c-0.2,0.8-0.6,1.5-1.2,2C56,230.6,55.2,230.9,54.3,230.9z"/>
		<path class="st1" d="M60.6,221c-0.3,0-0.5-0.1-0.7-0.3c-0.2-0.2-0.3-0.4-0.3-0.7s0.1-0.5,0.3-0.6c0.2-0.2,0.4-0.3,0.7-0.3
			s0.5,0.1,0.7,0.3c0.2,0.2,0.3,0.4,0.3,0.6c0,0.3-0.1,0.5-0.3,0.7S60.9,221,60.6,221z M59.9,230.7v-7.9h1.3v7.9H59.9z"/>
		<path class="st1" d="M66.6,230.9c-0.9,0-1.7-0.2-2.4-0.7c-0.6-0.5-1-1.1-1.1-1.9h1.4c0.1,0.4,0.3,0.8,0.7,1.1
			c0.4,0.3,0.8,0.5,1.4,0.5s1-0.1,1.2-0.4c0.3-0.2,0.4-0.5,0.4-0.9c0-0.5-0.2-0.8-0.5-1s-0.8-0.3-1.5-0.4c-0.4-0.1-0.8-0.2-1.3-0.4
			c-0.4-0.2-0.8-0.4-1.1-0.7c-0.3-0.3-0.4-0.7-0.4-1.2c0-0.7,0.3-1.3,0.8-1.7c0.5-0.4,1.2-0.7,2.1-0.7c0.8,0,1.5,0.2,2.1,0.6
			c0.5,0.4,0.9,1,0.9,1.8H68c-0.1-0.4-0.2-0.7-0.5-1s-0.7-0.3-1.2-0.3s-0.8,0.1-1.1,0.3c-0.3,0.2-0.4,0.5-0.4,0.8s0.2,0.6,0.5,0.8
			c0.3,0.2,0.8,0.3,1.4,0.5c0.5,0.1,1,0.2,1.4,0.4c0.4,0.2,0.8,0.4,1.1,0.7c0.3,0.3,0.4,0.7,0.4,1.3c0,0.7-0.3,1.3-0.8,1.8
			C68.3,230.7,67.6,230.9,66.6,230.9z"/>
		<path class="st1" d="M75.2,230.9c-0.8,0-1.4-0.2-2-0.5s-1-0.8-1.4-1.5c-0.3-0.6-0.5-1.3-0.5-2.2c0-0.8,0.2-1.6,0.5-2.2
			s0.8-1.1,1.4-1.5s1.3-0.5,2.1-0.5c0.8,0,1.4,0.2,2,0.5s1,0.8,1.3,1.4s0.4,1.2,0.4,1.8c0,0.1,0,0.2,0,0.3c0,0.1,0,0.2,0,0.4h-6.3
			c0,0.6,0.2,1.1,0.4,1.5c0.2,0.4,0.6,0.7,0.9,0.9c0.4,0.2,0.8,0.3,1.2,0.3c0.5,0,1-0.1,1.4-0.4s0.6-0.6,0.8-1h1.3
			c-0.2,0.7-0.6,1.3-1.2,1.8C76.9,230.6,76.1,230.9,75.2,230.9z M75.2,223.7c-0.6,0-1.2,0.2-1.7,0.6s-0.8,1-0.9,1.7h5
			c0-0.7-0.3-1.3-0.7-1.7C76.4,223.9,75.8,223.7,75.2,223.7z"/>
		<path class="st1" d="M84.9,230.7v-7.9h1.2l0.1,1.5c0.2-0.5,0.6-0.9,1.1-1.2s1.1-0.5,1.9-0.5v1.4h-0.4c-0.5,0-0.9,0.1-1.3,0.2
			c-0.4,0.2-0.7,0.5-0.9,0.8c-0.2,0.4-0.3,0.9-0.3,1.6v4h-1.4V230.7z"/>
		<path class="st1" d="M94,230.9c-0.8,0-1.4-0.2-2-0.5s-1-0.8-1.4-1.5c-0.3-0.6-0.5-1.3-0.5-2.2c0-0.8,0.2-1.6,0.5-2.2
			s0.8-1.1,1.4-1.5s1.3-0.5,2.1-0.5c0.8,0,1.4,0.2,2,0.5s1,0.8,1.3,1.4s0.4,1.2,0.4,1.8c0,0.1,0,0.2,0,0.3c0,0.1,0,0.2,0,0.4h-6.3
			c0,0.6,0.2,1.1,0.4,1.5c0.2,0.4,0.6,0.7,0.9,0.9c0.4,0.2,0.8,0.3,1.2,0.3c0.5,0,1-0.1,1.4-0.4s0.6-0.6,0.8-1h1.3
			c-0.2,0.7-0.6,1.3-1.2,1.8C95.7,230.6,95,230.9,94,230.9z M94,223.7c-0.6,0-1.2,0.2-1.7,0.6s-0.8,1-0.9,1.7h5
			c0-0.7-0.3-1.3-0.7-1.7C95.3,223.9,94.7,223.7,94,223.7z"/>
		<path class="st1" d="M103.2,230.9c-0.8,0-1.5-0.2-2.1-0.5c-0.6-0.4-1-0.9-1.4-1.5s-0.5-1.3-0.5-2.1c0-0.8,0.2-1.5,0.5-2.1
			s0.8-1.1,1.4-1.5s1.3-0.5,2.1-0.5c0.6,0,1.2,0.1,1.7,0.4s0.9,0.6,1.2,1.1v-5h1.3v11.5h-1.2l-0.1-1.3c-0.3,0.4-0.6,0.7-1.1,1
			C104.5,230.7,103.9,230.9,103.2,230.9z M103.3,229.7c0.5,0,1-0.1,1.4-0.4c0.4-0.2,0.7-0.6,1-1.1c0.2-0.4,0.3-1,0.3-1.6
			s-0.1-1.1-0.3-1.6c-0.2-0.5-0.5-0.8-1-1.1c-0.4-0.2-0.9-0.4-1.4-0.4s-1,0.1-1.4,0.4c-0.4,0.2-0.7,0.6-1,1.1
			c-0.2,0.4-0.3,1-0.3,1.6s0.1,1.1,0.3,1.6c0.2,0.5,0.6,0.8,1,1.1C102.3,229.6,102.8,229.7,103.3,229.7z"/>
		<path class="st1" d="M112.5,230.9c-0.9,0-1.7-0.3-2.2-0.9c-0.6-0.6-0.8-1.5-0.8-2.6v-4.6h1.3v4.5c0,1.6,0.7,2.5,2,2.5
			c0.7,0,1.3-0.2,1.7-0.7c0.4-0.5,0.7-1.2,0.7-2.1v-4.1h1.3v7.9h-1.2l-0.1-1.4c-0.2,0.5-0.6,0.9-1.1,1.2
			C113.6,230.8,113.1,230.9,112.5,230.9z"/>
		<path class="st1" d="M122.4,230.9c-0.8,0-1.4-0.2-2-0.5s-1.1-0.8-1.4-1.5c-0.3-0.6-0.5-1.3-0.5-2.2c0-0.8,0.2-1.6,0.5-2.2
			s0.8-1.1,1.4-1.5s1.3-0.5,2-0.5c0.9,0,1.7,0.2,2.4,0.7s1.1,1.2,1.2,2h-1.4c-0.1-0.5-0.4-0.9-0.8-1.1c-0.4-0.3-0.9-0.4-1.5-0.4
			c-0.4,0-0.9,0.1-1.3,0.3c-0.4,0.2-0.7,0.6-1,1s-0.4,1-0.4,1.7s0.1,1.2,0.4,1.7s0.6,0.8,1,1s0.8,0.3,1.3,0.3s1-0.1,1.5-0.4
			c0.4-0.3,0.7-0.7,0.8-1.2h1.4c-0.2,0.8-0.6,1.5-1.2,2C124.1,230.6,123.3,230.9,122.4,230.9z"/>
		<path class="st1" d="M131.4,230.9c-0.8,0-1.4-0.2-2-0.5s-1-0.8-1.4-1.5c-0.3-0.6-0.5-1.3-0.5-2.2c0-0.8,0.2-1.6,0.5-2.2
			c0.3-0.6,0.8-1.1,1.4-1.5c0.6-0.4,1.3-0.5,2.1-0.5s1.4,0.2,2,0.5s1,0.8,1.3,1.4s0.4,1.2,0.4,1.8c0,0.1,0,0.2,0,0.3
			c0,0.1,0,0.2,0,0.4h-6.3c0,0.6,0.2,1.1,0.4,1.5s0.6,0.7,0.9,0.9c0.4,0.2,0.8,0.3,1.2,0.3c0.6,0,1-0.1,1.4-0.4s0.6-0.6,0.8-1h1.3
			c-0.2,0.7-0.6,1.3-1.2,1.8C133.2,230.6,132.4,230.9,131.4,230.9z M131.4,223.7c-0.6,0-1.2,0.2-1.7,0.6s-0.8,1-0.9,1.7h5
			c0-0.7-0.3-1.3-0.7-1.7C132.7,223.9,132.1,223.7,131.4,223.7z"/>
		<path class="st1" d="M140,230.9c-0.9,0-1.7-0.2-2.4-0.7c-0.6-0.5-1-1.1-1.1-1.9h1.4c0.1,0.4,0.3,0.8,0.7,1.1
			c0.4,0.3,0.8,0.5,1.5,0.5c0.6,0,1-0.1,1.2-0.4c0.3-0.2,0.4-0.5,0.4-0.9c0-0.5-0.2-0.8-0.5-1s-0.8-0.3-1.5-0.4
			c-0.4-0.1-0.9-0.2-1.3-0.4c-0.4-0.2-0.8-0.4-1.1-0.7c-0.3-0.3-0.4-0.7-0.4-1.2c0-0.7,0.3-1.3,0.8-1.7c0.5-0.4,1.2-0.7,2.1-0.7
			c0.8,0,1.5,0.2,2.1,0.6c0.5,0.4,0.8,1,0.9,1.8h-1.3c-0.1-0.4-0.2-0.7-0.5-1c-0.3-0.2-0.7-0.3-1.2-0.3s-0.9,0.1-1.1,0.3
			c-0.3,0.2-0.4,0.5-0.4,0.8s0.2,0.6,0.5,0.8c0.3,0.2,0.8,0.3,1.4,0.5c0.5,0.1,1,0.2,1.4,0.4c0.4,0.2,0.8,0.4,1.1,0.7
			c0.3,0.3,0.4,0.7,0.4,1.3c0,0.7-0.3,1.3-0.8,1.8C141.7,230.7,141,230.9,140,230.9z"/>
		<path class="st1" d="M151.9,230.9c-0.7,0-1.2-0.1-1.6-0.3c-0.4-0.2-0.8-0.5-1-0.9s-0.3-0.8-0.3-1.2c0-0.8,0.3-1.4,0.9-1.9
			c0.6-0.4,1.5-0.7,2.5-0.7h2.1v-0.1c0-0.7-0.2-1.2-0.5-1.6c-0.4-0.4-0.8-0.5-1.5-0.5c-0.5,0-1,0.1-1.4,0.4s-0.6,0.6-0.7,1.1H149
			c0.1-0.6,0.2-1.1,0.6-1.5c0.3-0.4,0.8-0.7,1.3-0.9c0.5-0.2,1-0.3,1.6-0.3c1.1,0,1.9,0.3,2.5,0.9s0.8,1.4,0.8,2.4v4.9h-1.2
			l-0.1-1.4c-0.2,0.5-0.6,0.8-1,1.1C153.2,230.7,152.6,230.9,151.9,230.9z M152.1,229.8c0.5,0,1-0.1,1.3-0.4c0.4-0.3,0.6-0.6,0.8-1
			s0.3-0.9,0.3-1.3l0,0h-2c-0.8,0-1.3,0.1-1.7,0.4c-0.3,0.3-0.5,0.6-0.5,1s0.1,0.8,0.5,1C151.1,229.6,151.5,229.8,152.1,229.8z"/>
		<path class="st1" d="M157.9,230.7v-7.9h1.2l0.1,1.4c0.3-0.5,0.6-0.9,1.1-1.2c0.5-0.3,1-0.4,1.6-0.4c0.9,0,1.7,0.3,2.2,0.9
			c0.6,0.6,0.8,1.5,0.8,2.6v4.6h-1.3v-4.5c0-1.7-0.7-2.5-2.1-2.5c-0.7,0-1.2,0.2-1.7,0.7s-0.7,1.2-0.7,2.1v4.1L157.9,230.7
			L157.9,230.7z"/>
		<path class="st1" d="M166.2,230.7l2.8-4l-2.8-4h1.5l2.2,3.3l2.2-3.3h1.4l-2.8,4l2.8,4h-1.4l-2.2-3.3l-2.2,3.3H166.2z"/>
		<path class="st1" d="M175.8,221c-0.3,0-0.5-0.1-0.7-0.3c-0.2-0.2-0.3-0.4-0.3-0.7s0.1-0.5,0.3-0.6c0.2-0.2,0.4-0.3,0.7-0.3
			s0.5,0.1,0.7,0.3c0.2,0.2,0.3,0.4,0.3,0.6c0,0.3-0.1,0.5-0.3,0.7S176.1,221,175.8,221z M175.1,230.7v-7.9h1.3v7.9H175.1z"/>
		<path class="st1" d="M182.4,230.9c-0.8,0-1.4-0.2-2-0.5s-1.1-0.8-1.4-1.5c-0.3-0.6-0.5-1.3-0.5-2.2c0-0.8,0.2-1.6,0.5-2.2
			s0.8-1.1,1.4-1.5c0.6-0.4,1.3-0.5,2.1-0.5s1.4,0.2,2,0.5s1,0.8,1.3,1.4s0.5,1.2,0.5,1.8c0,0.1,0,0.2,0,0.3c0,0.1,0,0.2,0,0.4h-6.5
			c0,0.6,0.2,1.1,0.4,1.5s0.6,0.7,0.9,0.9c0.4,0.2,0.8,0.3,1.2,0.3c0.6,0,1-0.1,1.4-0.4s0.6-0.6,0.8-1h1.3c-0.2,0.7-0.6,1.3-1.2,1.8
			C184.1,230.6,183.3,230.9,182.4,230.9z M182.4,223.7c-0.6,0-1.2,0.2-1.7,0.6s-0.8,1-0.9,1.7h5c0-0.7-0.3-1.3-0.7-1.7
			C183.6,223.9,183.1,223.7,182.4,223.7z"/>
		<path class="st1" d="M190.8,230.7c-0.7,0-1.3-0.2-1.7-0.5s-0.6-1-0.6-1.9v-4.4h-1.4v-1.1h1.4l0.2-1.9h1.2v1.9h2.3v1.1h-2.4v4.4
			c0,0.5,0.1,0.8,0.3,1s0.6,0.3,1.1,0.3h0.8v1.2h-1.2V230.7z"/>
		<path class="st1" d="M194.7,234.2l2-4.3h-0.5l-3.2-7.2h1.5l2.6,6.2l2.8-6.2h1.4l-5.2,11.5H194.7z"/>
		<path class="st1" d="M209.6,230.9c-0.7,0-1.2-0.1-1.6-0.3c-0.4-0.2-0.8-0.5-1-0.9s-0.3-0.8-0.3-1.2c0-0.8,0.3-1.4,0.9-1.9
			c0.6-0.4,1.5-0.7,2.5-0.7h2.1v-0.1c0-0.7-0.2-1.2-0.5-1.6c-0.4-0.4-0.8-0.5-1.5-0.5c-0.5,0-1,0.1-1.4,0.4s-0.6,0.6-0.7,1.1h-1.3
			c0.1-0.6,0.2-1.1,0.6-1.5c0.3-0.4,0.8-0.7,1.3-0.9c0.5-0.2,1-0.3,1.6-0.3c1.1,0,1.9,0.3,2.5,0.9s0.8,1.4,0.8,2.4v4.9h-1.2
			l-0.1-1.4c-0.2,0.5-0.6,0.8-1,1.1C210.9,230.7,210.3,230.9,209.6,230.9z M209.8,229.8c0.5,0,0.9-0.1,1.3-0.4
			c0.4-0.3,0.7-0.6,0.8-1c0.2-0.4,0.3-0.9,0.3-1.3l0,0h-2c-0.8,0-1.4,0.1-1.7,0.4s-0.5,0.6-0.5,1s0.1,0.8,0.5,1
			C208.8,229.6,209.3,229.8,209.8,229.8z"/>
		<path class="st1" d="M215.6,230.7v-7.9h1.2l0.1,1.4c0.3-0.5,0.6-0.9,1.1-1.2c0.5-0.3,1-0.4,1.6-0.4c0.9,0,1.7,0.3,2.2,0.9
			s0.8,1.5,0.8,2.6v4.6h-1.3v-4.5c0-1.7-0.7-2.5-2.1-2.5c-0.7,0-1.2,0.2-1.7,0.7c-0.4,0.5-0.7,1.2-0.7,2.1v4.1L215.6,230.7
			L215.6,230.7z"/>
		<path class="st1" d="M228.4,230.9c-0.8,0-1.5-0.2-2.1-0.5c-0.6-0.4-1-0.9-1.4-1.5s-0.5-1.3-0.5-2.1c0-0.8,0.2-1.5,0.5-2.1
			s0.8-1.1,1.4-1.5c0.6-0.4,1.3-0.5,2.1-0.5c0.6,0,1.2,0.1,1.7,0.4s0.9,0.6,1.2,1.1v-5h1.3v11.5h-1.2l-0.1-1.3
			c-0.3,0.4-0.6,0.7-1.1,1S229.1,230.9,228.4,230.9z M228.5,229.7c0.5,0,1-0.1,1.4-0.4c0.4-0.2,0.7-0.6,1-1.1c0.2-0.4,0.3-1,0.3-1.6
			s-0.1-1.1-0.3-1.6s-0.6-0.8-1-1.1c-0.4-0.2-0.9-0.4-1.4-0.4s-1,0.1-1.4,0.4s-0.7,0.6-1,1.1c-0.2,0.4-0.3,1-0.3,1.6
			s0.1,1.1,0.3,1.6s0.6,0.8,1,1.1C227.5,229.6,228,229.7,228.5,229.7z"/>
		<path class="st1" d="M242.1,230.9c-1,0-1.7-0.2-2.4-0.7c-0.6-0.5-1-1.1-1.1-1.9h1.4c0.1,0.4,0.3,0.8,0.7,1.1
			c0.4,0.3,0.8,0.5,1.4,0.5c0.6,0,1-0.1,1.2-0.4c0.3-0.2,0.4-0.5,0.4-0.9c0-0.5-0.2-0.8-0.5-1c-0.4-0.2-0.8-0.3-1.5-0.4
			c-0.4-0.1-0.9-0.2-1.3-0.4c-0.4-0.2-0.8-0.4-1.1-0.7c-0.3-0.3-0.4-0.7-0.4-1.2c0-0.7,0.3-1.3,0.8-1.7s1.2-0.7,2.1-0.7
			c0.8,0,1.5,0.2,2.1,0.6c0.5,0.4,0.8,1,0.9,1.8h-1.3c0-0.4-0.2-0.7-0.5-1c-0.3-0.2-0.7-0.3-1.2-0.3s-0.8,0.1-1.1,0.3
			s-0.4,0.5-0.4,0.8s0.2,0.6,0.5,0.8c0.3,0.2,0.8,0.3,1.4,0.5c0.5,0.1,1,0.2,1.4,0.4c0.4,0.2,0.8,0.4,1.1,0.7s0.4,0.7,0.4,1.3
			c0,0.7-0.3,1.3-0.8,1.8C243.8,230.7,243.1,230.9,242.1,230.9z"/>
		<path class="st1" d="M249.9,230.7c-0.7,0-1.3-0.2-1.7-0.5s-0.6-1-0.6-1.9v-4.4h-1.4v-1.1h1.4l0.2-1.9h1.2v1.9h2.3v1.1H249v4.4
			c0,0.5,0.1,0.8,0.3,1s0.6,0.3,1.1,0.3h0.8v1.2h-1.3V230.7z"/>
		<path class="st1" d="M252.9,230.7v-7.9h1.2l0.1,1.5c0.2-0.5,0.6-0.9,1.1-1.2s1.1-0.5,1.9-0.5v1.4h-0.4c-0.5,0-0.9,0.1-1.3,0.2
			c-0.4,0.2-0.7,0.5-0.9,0.8s-0.4,0.9-0.4,1.6v4h-1.3V230.7z"/>
		<path class="st1" d="M262,230.9c-0.8,0-1.4-0.2-2-0.5s-1.1-0.8-1.4-1.5c-0.3-0.6-0.5-1.3-0.5-2.2c0-0.8,0.2-1.6,0.5-2.2
			s0.8-1.1,1.4-1.5s1.3-0.5,2.1-0.5c0.8,0,1.4,0.2,2,0.5s1,0.8,1.3,1.4s0.5,1.2,0.5,1.8c0,0.1,0,0.2,0,0.3s0,0.2,0,0.4h-6.3
			c0,0.6,0.2,1.1,0.4,1.5c0.2,0.4,0.6,0.7,0.9,0.9s0.8,0.3,1.2,0.3c0.6,0,1-0.1,1.4-0.4s0.6-0.6,0.8-1h1.3c-0.2,0.7-0.6,1.3-1.2,1.8
			C263.7,230.7,262.9,230.9,262,230.9z M262,223.7c-0.6,0-1.2,0.2-1.7,0.6s-0.8,1-0.9,1.7h5c0-0.7-0.3-1.3-0.7-1.7
			C263.2,223.9,262.7,223.7,262,223.7z"/>
		<path class="st1" d="M270.6,230.9c-1,0-1.7-0.2-2.4-0.7c-0.6-0.5-1-1.1-1.1-1.9h1.4c0.1,0.4,0.3,0.8,0.7,1.1
			c0.4,0.3,0.8,0.5,1.5,0.5c0.6,0,1-0.1,1.2-0.4c0.3-0.2,0.4-0.5,0.4-0.9c0-0.5-0.2-0.8-0.5-1c-0.4-0.2-0.8-0.3-1.5-0.4
			c-0.4-0.1-0.9-0.2-1.3-0.4c-0.4-0.2-0.8-0.4-1.1-0.7c-0.3-0.3-0.4-0.7-0.4-1.2c0-0.7,0.3-1.3,0.8-1.7c0.5-0.4,1.2-0.7,2.1-0.7
			c0.8,0,1.5,0.2,2.1,0.6c0.5,0.4,0.9,1,0.9,1.8h-1.3c-0.1-0.4-0.2-0.7-0.5-1c-0.3-0.2-0.7-0.3-1.2-0.3s-0.9,0.1-1.1,0.3
			c-0.3,0.2-0.4,0.5-0.4,0.8s0.2,0.6,0.5,0.8c0.3,0.2,0.8,0.3,1.4,0.5c0.5,0.1,1,0.2,1.4,0.4c0.4,0.2,0.8,0.4,1.1,0.7
			c0.3,0.3,0.4,0.7,0.4,1.3c0,0.7-0.3,1.3-0.8,1.8C272.2,230.7,271.5,230.9,270.6,230.9z"/>
		<path class="st1" d="M278.6,230.9c-1,0-1.7-0.2-2.4-0.7c-0.6-0.5-1-1.1-1.1-1.9h1.4c0.1,0.4,0.3,0.8,0.7,1.1
			c0.4,0.3,0.8,0.5,1.5,0.5c0.6,0,1-0.1,1.2-0.4c0.3-0.2,0.4-0.5,0.4-0.9c0-0.5-0.2-0.8-0.5-1c-0.4-0.2-0.8-0.3-1.5-0.4
			c-0.4-0.1-0.9-0.2-1.3-0.4c-0.4-0.2-0.8-0.4-1.1-0.7c-0.3-0.3-0.4-0.7-0.4-1.2c0-0.7,0.3-1.3,0.8-1.7c0.5-0.4,1.2-0.7,2.1-0.7
			c0.8,0,1.5,0.2,2.1,0.6c0.5,0.4,0.9,1,0.9,1.8h-1.3c-0.1-0.4-0.2-0.7-0.5-1c-0.3-0.2-0.7-0.3-1.2-0.3s-0.9,0.1-1.1,0.3
			c-0.3,0.2-0.4,0.5-0.4,0.8s0.2,0.6,0.5,0.8c0.3,0.2,0.8,0.3,1.4,0.5c0.5,0.1,1,0.2,1.4,0.4c0.4,0.2,0.8,0.4,1.1,0.7
			c0.3,0.3,0.4,0.7,0.4,1.3c0,0.7-0.3,1.3-0.8,1.8C280.2,230.7,279.5,230.9,278.6,230.9z"/>
		<path class="st1" d="M282.5,232.6l0.9-3.5h1.4l-1.4,3.5H282.5z"/>
		<path class="st1" d="M22.3,252.9c-0.7,0-1.2-0.1-1.7-0.3c-0.4-0.2-0.8-0.5-1-0.9s-0.3-0.8-0.3-1.2c0-0.8,0.3-1.4,0.9-1.9
			s1.5-0.7,2.5-0.7h2.1v-0.1c0-0.7-0.2-1.2-0.5-1.6c-0.4-0.4-0.9-0.5-1.5-0.5c-0.5,0-1,0.1-1.3,0.4s-0.6,0.6-0.7,1.1h-1.4
			c0-0.6,0.2-1.1,0.6-1.5c0.3-0.4,0.8-0.7,1.3-0.9c0.5-0.2,1-0.3,1.6-0.3c1.1,0,1.9,0.3,2.5,0.9s0.8,1.4,0.8,2.4v4.9H25l-0.1-1.4
			c-0.2,0.5-0.5,0.8-1,1.1C23.6,252.7,23.1,252.9,22.3,252.9z M22.5,251.8c0.5,0,1-0.1,1.3-0.4c0.4-0.3,0.7-0.6,0.8-1
			s0.3-0.9,0.3-1.3l0,0h-2c-0.8,0-1.3,0.1-1.7,0.4c-0.3,0.3-0.5,0.6-0.5,1s0.2,0.8,0.5,1C21.5,251.6,22,251.8,22.5,251.8z"/>
		<path class="st1" d="M28.3,252.7v-7.9h1.2l0.1,1.4c0.3-0.5,0.6-0.9,1.1-1.2c0.5-0.3,1-0.4,1.6-0.4c0.9,0,1.7,0.3,2.2,0.9
			s0.8,1.5,0.8,2.6v4.6H34v-4.5c0-1.7-0.7-2.5-2-2.5c-0.7,0-1.2,0.2-1.7,0.7s-0.7,1.2-0.7,2.1v4.1L28.3,252.7L28.3,252.7z"/>
		<path class="st1" d="M41.1,252.9c-0.8,0-1.5-0.2-2.1-0.5c-0.6-0.4-1.1-0.9-1.4-1.5c-0.3-0.6-0.5-1.3-0.5-2.1
			c0-0.8,0.2-1.5,0.5-2.1s0.8-1.1,1.4-1.5c0.6-0.4,1.3-0.5,2.1-0.5c0.6,0,1.2,0.1,1.7,0.4s0.9,0.6,1.2,1.1v-5h1.3v11.5h-1.2
			l-0.1-1.3c-0.3,0.4-0.6,0.7-1.1,1C42.4,252.7,41.8,252.9,41.1,252.9z M41.2,251.7c0.5,0,1-0.1,1.4-0.4c0.4-0.2,0.7-0.6,1-1.1
			c0.2-0.4,0.3-1,0.3-1.6s-0.1-1.1-0.3-1.6s-0.5-0.8-1-1.1c-0.4-0.2-0.9-0.4-1.4-0.4s-1,0.1-1.4,0.4s-0.7,0.6-1,1.1
			c-0.2,0.4-0.3,1-0.3,1.6s0.1,1.1,0.3,1.6s0.5,0.8,1,1.1C40.2,251.6,40.7,251.7,41.2,251.7z"/>
		<path class="st1" d="M52.6,243c-0.3,0-0.5-0.1-0.7-0.3c-0.2-0.2-0.3-0.4-0.3-0.7s0.1-0.5,0.3-0.6c0.2-0.2,0.4-0.3,0.7-0.3
			s0.5,0.1,0.7,0.3c0.2,0.2,0.3,0.4,0.3,0.6c0,0.3-0.1,0.5-0.3,0.7S52.9,243,52.6,243z M51.9,252.7v-7.9h1.3v7.9H51.9z"/>
		<path class="st1" d="M55.6,252.7v-7.9h1.2l0.1,1.1c0.3-0.4,0.6-0.8,1-1s0.9-0.3,1.4-0.3c0.6,0,1.2,0.1,1.6,0.4
			c0.5,0.3,0.8,0.6,1.1,1.2c0.3-0.5,0.7-0.9,1.1-1.1c0.5-0.3,1-0.4,1.6-0.4c0.9,0,1.7,0.3,2.3,0.9c0.6,0.6,0.8,1.5,0.8,2.6v4.6h-1.3
			v-4.6c0-0.8-0.2-1.4-0.5-1.9c-0.3-0.4-0.8-0.6-1.4-0.6s-1.2,0.2-1.6,0.7s-0.6,1.2-0.6,2.1v4.1h-1.3v-4.4c0-0.8-0.2-1.4-0.5-1.9
			s-0.8-0.6-1.4-0.6s-1.2,0.2-1.6,0.7c-0.4,0.5-0.6,1.2-0.6,2.1v4.1L55.6,252.7L55.6,252.7z"/>
		<path class="st1" d="M69.9,256.2v-11.5h1.2l0.1,1.3c0.3-0.4,0.6-0.7,1.1-1s1.1-0.5,1.8-0.5c0.8,0,1.5,0.2,2.1,0.5
			c0.6,0.4,1,0.9,1.4,1.5c0.3,0.6,0.5,1.3,0.5,2.1s-0.2,1.5-0.5,2.1s-0.8,1.1-1.4,1.5s-1.3,0.5-2.1,0.5c-0.7,0-1.2-0.1-1.7-0.4
			s-0.9-0.6-1.2-1.1v4.9h-1.3V256.2z M74,251.7c0.5,0,1-0.1,1.4-0.4c0.4-0.2,0.7-0.6,1-1.1c0.2-0.4,0.4-1,0.4-1.6s-0.1-1.1-0.4-1.6
			c-0.2-0.5-0.5-0.8-1-1.1c-0.4-0.2-0.9-0.4-1.4-0.4s-1,0.1-1.4,0.4c-0.4,0.2-0.7,0.6-1,1.1c-0.2,0.4-0.3,1-0.3,1.6s0.1,1.1,0.3,1.6
			c0.2,0.5,0.6,0.8,1,1.1C73,251.6,73.5,251.7,74,251.7z"/>
		<path class="st1" d="M80,252.7v-7.9h1.2l0.1,1.5c0.2-0.5,0.6-0.9,1.1-1.2s1.1-0.5,1.9-0.5v1.4h-0.4c-0.5,0-0.9,0.1-1.3,0.2
			c-0.4,0.2-0.7,0.5-0.9,0.8c-0.2,0.4-0.3,0.9-0.3,1.6v4H80V252.7z"/>
		<path class="st1" d="M89.1,252.9c-0.8,0-1.4-0.2-2-0.5s-1.1-0.8-1.4-1.5s-0.5-1.4-0.5-2.2c0-0.8,0.2-1.6,0.5-2.2s0.8-1.1,1.4-1.5
			c0.6-0.3,1.3-0.5,2-0.5s1.4,0.2,2,0.5s1.1,0.8,1.4,1.5c0.3,0.6,0.5,1.4,0.5,2.2c0,0.8-0.2,1.6-0.5,2.2s-0.8,1.1-1.4,1.5
			C90.5,252.7,89.8,252.9,89.1,252.9z M89.1,251.7c0.5,0,0.9-0.1,1.3-0.3c0.4-0.2,0.7-0.6,1-1s0.4-1,0.4-1.7s-0.1-1.2-0.4-1.7
			s-0.6-0.8-1-1s-0.8-0.3-1.3-0.3s-0.9,0.1-1.3,0.3c-0.4,0.2-0.7,0.6-1,1s-0.4,1-0.4,1.7s0.1,1.2,0.4,1.7s0.6,0.8,1,1
			C88.2,251.6,88.6,251.7,89.1,251.7z"/>
		<path class="st1" d="M96.8,252.7l-3-7.9h1.4l2.4,6.6l2.4-6.6h1.4l-3,7.9H96.8z"/>
		<path class="st1" d="M106.1,252.9c-0.8,0-1.4-0.2-2-0.5s-1.1-0.8-1.4-1.5c-0.3-0.6-0.5-1.3-0.5-2.2c0-0.8,0.2-1.6,0.5-2.2
			s0.8-1.1,1.4-1.5s1.3-0.5,2.1-0.5c0.8,0,1.4,0.2,2,0.5s1,0.8,1.3,1.4s0.4,1.2,0.4,1.8c0,0.1,0,0.2,0,0.3c0,0.1,0,0.2,0,0.4h-6.3
			c0,0.6,0.2,1.1,0.4,1.5c0.2,0.4,0.6,0.7,0.9,0.9s0.8,0.3,1.2,0.3c0.6,0,1-0.1,1.4-0.4s0.6-0.6,0.8-1h1.3c-0.2,0.7-0.6,1.3-1.2,1.8
			C107.8,252.6,107,252.9,106.1,252.9z M106.1,245.7c-0.6,0-1.2,0.2-1.7,0.6s-0.8,1-0.9,1.7h5c0-0.7-0.3-1.3-0.7-1.7
			C107.3,245.9,106.7,245.7,106.1,245.7z"/>
		<path class="st1" d="M114.6,252.9c-1,0-1.7-0.2-2.4-0.7c-0.6-0.5-1-1.1-1.1-1.9h1.4c0.1,0.4,0.3,0.8,0.7,1.1
			c0.4,0.3,0.8,0.5,1.4,0.5s1-0.1,1.2-0.4c0.3-0.2,0.4-0.5,0.4-0.9c0-0.5-0.2-0.8-0.5-1c-0.4-0.2-0.8-0.3-1.5-0.4
			c-0.4-0.1-0.8-0.2-1.3-0.4c-0.4-0.2-0.8-0.4-1.1-0.7c-0.3-0.3-0.4-0.7-0.4-1.2c0-0.7,0.3-1.3,0.8-1.7c0.5-0.4,1.2-0.7,2.1-0.7
			c0.8,0,1.5,0.2,2.1,0.6c0.5,0.4,0.9,1,0.9,1.8H116c0-0.4-0.2-0.7-0.5-1c-0.3-0.2-0.7-0.3-1.2-0.3s-0.8,0.1-1.1,0.3
			c-0.3,0.2-0.4,0.5-0.4,0.8s0.2,0.6,0.5,0.8c0.3,0.2,0.8,0.3,1.4,0.5c0.5,0.1,1,0.2,1.4,0.4c0.4,0.2,0.8,0.4,1.1,0.7
			c0.3,0.3,0.4,0.7,0.4,1.3c0,0.7-0.3,1.3-0.8,1.8C116.3,252.7,115.6,252.9,114.6,252.9z"/>
		<path class="st1" d="M123.8,252.7v-7.9h1.2l0.1,1.1c0.3-0.4,0.6-0.8,1-1s0.9-0.3,1.4-0.3c0.6,0,1.2,0.1,1.6,0.4
			c0.4,0.3,0.8,0.6,1.1,1.2c0.3-0.5,0.7-0.9,1.1-1.1c0.5-0.3,1-0.4,1.6-0.4c0.9,0,1.7,0.3,2.3,0.9s0.8,1.5,0.8,2.6v4.6h-1.2v-4.6
			c0-0.8-0.2-1.4-0.5-1.9c-0.3-0.4-0.8-0.6-1.4-0.6c-0.6,0-1.2,0.2-1.6,0.7c-0.4,0.5-0.6,1.2-0.6,2.1v4.1h-1.3v-4.4
			c0-0.8-0.2-1.4-0.5-1.9s-0.8-0.6-1.4-0.6c-0.6,0-1.2,0.2-1.6,0.7c-0.4,0.5-0.6,1.2-0.6,2.1v4.1L123.8,252.7L123.8,252.7z"/>
		<path class="st1" d="M141.8,252.9c-0.8,0-1.4-0.2-2-0.5s-1.1-0.8-1.4-1.5c-0.4-0.6-0.5-1.4-0.5-2.2c0-0.8,0.2-1.6,0.5-2.2
			c0.4-0.6,0.8-1.1,1.4-1.5c0.6-0.3,1.3-0.5,2-0.5c0.8,0,1.4,0.2,2,0.5s1.1,0.8,1.4,1.5c0.4,0.6,0.5,1.4,0.5,2.2
			c0,0.8-0.2,1.6-0.5,2.2c-0.4,0.6-0.8,1.1-1.4,1.5C143.2,252.7,142.5,252.9,141.8,252.9z M141.8,251.7c0.5,0,0.9-0.1,1.3-0.3
			c0.4-0.2,0.7-0.6,1-1s0.4-1,0.4-1.7s-0.1-1.2-0.4-1.7c-0.2-0.4-0.6-0.8-1-1s-0.8-0.3-1.3-0.3s-0.9,0.1-1.3,0.3
			c-0.4,0.2-0.7,0.6-1,1s-0.4,1-0.4,1.7s0.1,1.2,0.4,1.7s0.6,0.8,1,1C140.9,251.6,141.3,251.7,141.8,251.7z"/>
		<path class="st1" d="M151.2,252.9c-0.8,0-1.4-0.2-2-0.5s-1.1-0.8-1.4-1.5c-0.4-0.6-0.5-1.4-0.5-2.2c0-0.8,0.2-1.6,0.5-2.2
			c0.4-0.6,0.8-1.1,1.4-1.5c0.6-0.3,1.3-0.5,2-0.5s1.4,0.2,2,0.5s1.1,0.8,1.4,1.5c0.4,0.6,0.5,1.4,0.5,2.2c0,0.8-0.2,1.6-0.5,2.2
			c-0.4,0.6-0.8,1.1-1.4,1.5C152.7,252.7,152,252.9,151.2,252.9z M151.2,251.7c0.5,0,0.9-0.1,1.3-0.3c0.4-0.2,0.7-0.6,1-1
			s0.4-1,0.4-1.7s-0.1-1.2-0.4-1.7c-0.2-0.5-0.6-0.8-0.9-1c-0.4-0.2-0.8-0.3-1.3-0.3s-0.9,0.1-1.3,0.3c-0.4,0.2-0.7,0.6-1,1
			s-0.4,1-0.4,1.7s0.1,1.2,0.4,1.7c0.2,0.5,0.6,0.8,0.9,1C150.4,251.6,150.8,251.7,151.2,251.7z"/>
		<path class="st1" d="M160.7,252.9c-0.8,0-1.5-0.2-2.1-0.5c-0.6-0.4-1.1-0.9-1.4-1.5s-0.5-1.3-0.5-2.1c0-0.8,0.2-1.5,0.5-2.1
			s0.8-1.1,1.4-1.5c0.6-0.4,1.3-0.5,2.1-0.5c0.6,0,1.2,0.1,1.7,0.4s0.9,0.6,1.2,1.1v-5h1.3v11.5h-1.2l-0.1-1.3
			c-0.3,0.4-0.6,0.7-1.1,1S161.4,252.9,160.7,252.9z M160.8,251.7c0.5,0,1-0.1,1.4-0.4c0.4-0.2,0.7-0.6,1-1.1c0.2-0.4,0.3-1,0.3-1.6
			s-0.1-1.1-0.3-1.6s-0.6-0.8-1-1.1s-0.9-0.4-1.4-0.4s-1,0.1-1.4,0.4c-0.4,0.2-0.7,0.6-1,1.1c-0.2,0.4-0.3,1-0.3,1.6
			s0.1,1.1,0.3,1.6s0.6,0.8,1,1.1C159.8,251.6,160.3,251.7,160.8,251.7z"/>
		<path class="st1" d="M167.6,252.8c-0.3,0-0.5-0.1-0.7-0.3c-0.2-0.2-0.3-0.4-0.3-0.7s0.1-0.5,0.3-0.6c0.2-0.2,0.4-0.3,0.7-0.3
			s0.5,0.1,0.6,0.3c0.2,0.2,0.3,0.4,0.3,0.6s-0.1,0.5-0.3,0.7C168.1,252.7,167.9,252.8,167.6,252.8z"/>
		<path class="st3" d="M227.1,149.8c34.8,0,63.1-4.9,63.1-10.9S262,128,227.1,128s-63.1,4.9-63.1,10.9S192.2,149.8,227.1,149.8z"/>
		<path class="st4" d="M200.2,92.7c0.3,2-0.6,6.7-6.4,4.7c-9.3-2.9-36.1-16.8-21.8-28.8c6.2-5.2,11.9,2.8,16.2,10.1
			C193.2,87.1,200.2,92.9,200.2,92.7z"/>
		<path class="st4" d="M254,92.7c-0.3,2,0.6,6.7,6.4,4.7c9.3-2.9,36.1-16.8,21.8-28.8c-6.2-5.2-11.9,2.8-16.2,10.1
			C261.1,87.1,254,92.9,254,92.7z"/>
		<path class="st5" d="M260.9,43.8c0,0-21.3,17.1-37.3,6.2C223.5,50,234.8,35.7,260.9,43.8z"/>
		<path class="st6" d="M244.7,35.5c0,0-3.5,15.8-24,17.7C220.7,53.1,220.6,46.3,244.7,35.5z"/>
		<path class="st7" d="M208.8,51.2c-9.1,4.4-22.9,17.1-21.3,42.3c0.4,6.8,1.4,18.7,5.3,25.9c3.9,7.1-4,12.2-1.9,18.9
			c3.6,11.5,7.2-6,35.7-8.4c17.1-1.5,35.4,17.5,36,4.8c0.2-4.8-5.4-7.5-3-15c3-9.4,6.8-10.6,7.5-25.1
			C269.6,46,226.1,42.7,208.8,51.2z"/>
		<path d="M230.6,84.4c0,0.8,0.6,5.3-5.6,5.3c-6.2,0-6.4-4.5-6.4-5.3s2.7-0.1,6-0.1C228,84.3,230.6,83.6,230.6,84.4z"/>
		<path class="st0" d="M225,85.5h-0.8c-0.4,0-0.6-0.3-0.6-0.6v-0.6h2.1v0.6C225.6,85.3,225.3,85.5,225,85.5z"/>
		<path class="st5" d="M216.7,33.7c0,0,4.6,1.3,5.3,6.6C222,40.2,220,40.1,216.7,33.7z"/>
		<path class="st5" d="M228.2,36.5c0,0,0.3,7.6-7.2,7.7C221,44.2,221.4,40.8,228.2,36.5z"/>
		<path class="st8" d="M221.5,49.6c-0.3-0.4-2.1-10,4.7-17.9"/>
		<path class="st9" d="M226.3,28.3c0,0-5.8-4.5-7.7-2.1S225.3,30.1,226.3,28.3z"/>
		<path class="st9" d="M226.3,28.2c0,0-8.1-0.1-6.9,2.7C220.6,33.7,227.3,30.1,226.3,28.2z"/>
		<path class="st9" d="M227.5,28.7c0,0-7.5,2.1-5.1,4.5C224.8,35.5,229.4,30.2,227.5,28.7z"/>
		<path class="st9" d="M228.2,28.2c0,0-2.4-7.4-4.7-4.9S226.8,30.1,228.2,28.2z"/>
		<path class="st9" d="M227.6,29.1c0,0,7.7-0.8,5.8-3.5C231.5,22.8,226.1,27.3,227.6,29.1z"/>
		<path class="st9" d="M228.1,29.7c0,0,2.9-5.6,0.4-5.8S226.3,29.7,228.1,29.7z"/>
		<path class="st9" d="M228.1,29.1c0,0,6.7-3.1,8-0.3S228.8,31.1,228.1,29.1z"/>
		<path class="st9" d="M228.1,28.5c0,0,7.9,1.6,6.1,4.1C232.4,35.1,226.6,30.2,228.1,28.5z"/>
		<path class="st9" d="M227.8,28.2c0,0,4.7,6.1,1.4,6.6C225.9,35.3,225.4,28.3,227.8,28.2z"/>
		<path class="st10" d="M231.8,29.2c0.1-1-1.8-2-4.2-2.3s-4.5,0.3-4.6,1.3s1.8,2,4.2,2.3C229.6,30.8,231.7,30.2,231.8,29.2z"/>
		<path d="M237,79.8c1.4,0,2.6-1.2,2.6-2.6c0-1.4-1.2-2.6-2.6-2.6c-1.4,0-2.6,1.2-2.6,2.6C234.4,78.7,235.6,79.8,237,79.8z"/>
		<path d="M212.5,79.8c1.4,0,2.6-1.2,2.6-2.6c0-1.4-1.2-2.6-2.6-2.6c-1.4,0-2.6,1.2-2.6,2.6C209.9,78.7,211,79.8,212.5,79.8z"/>
		<path class="st11" d="M287,82.9l-16.3-14.7l-2.8,3.1L284.2,86L287,82.9z"/>
		<path class="st10" d="M270.4,62.9l-0.7,0.8l0,0l-3.5,3.9c-0.1,0.1-0.3,0.1-0.4,0s-0.1-0.3,0-0.4l3.4-3.8c-0.7-0.4-1.6-0.6-2-0.2
			l-4.7,5.2c-0.4,0.5,0.1,1.8,0.8,2.4l-0.7,0.8c-0.5,0.5-0.3,1.5,0.5,2.1l1.6,1.4c0.2,0.2,0.4,0.2,0.5,0.1l9.2-10.2
			c0.1-0.1,0.1-0.4-0.1-0.5l-1.6-1.4C271.9,62.5,270.9,62.4,270.4,62.9z"/>
		<path class="st12" d="M265.8,67.6c0.1,0.1,0.3,0.1,0.4,0l3.5-3.9c-0.1-0.1-0.3-0.2-0.5-0.3l-3.4,3.8
			C265.6,67.3,265.6,67.5,265.8,67.6z"/>
		<path class="st10" d="M289.1,78.6l-9.2,10.2c-0.1,0.1-0.1,0.4,0.1,0.5l1.6,1.4c0.7,0.6,1.7,0.8,2.2,0.2l0.7-0.8
			c0.8,0.6,2.1,1,2.5,0.5l4.7-5.2c0.4-0.4,0.1-1.3-0.4-2l-1.1,1.2c-0.1,0.1-0.3,0.1-0.4,0s-0.1-0.3,0-0.4l1.2-1.3l0.7-0.8
			c0.5-0.5,0.3-1.5-0.4-2.1l-1.6-1.4C289.5,78.4,289.2,78.4,289.1,78.6z"/>
		<path class="st12" d="M289.8,84.7c0.1,0.1,0.3,0.1,0.4,0l1.1-1.2c-0.1-0.2-0.2-0.3-0.4-0.5l-1.2,1.3
			C289.7,84.4,289.7,84.6,289.8,84.7z"/>
		<path class="st4" d="M278.7,79.8c1.6,1.7,4.3,1.6,5.9,0c3.5-3.7,3.5-6.4-2.4-11.1c-3.2-2.6-6.3-2.2-9.7,1.1c-1,1-1,2.5-0.1,3.6
			C274.4,75.7,278.1,79.2,278.7,79.8z"/>
		<path class="st11" d="M169.9,86l16.3-14.7l-2.8-3.1l-16.3,14.7L169.9,86z"/>
		<path class="st10" d="M183.8,62.9l0.7,0.8l0,0l3.5,3.9c0.1,0.1,0.3,0.1,0.4,0c0.1-0.1,0.1-0.3,0-0.4l-3.4-3.8
			c0.7-0.4,1.6-0.6,2-0.2l4.7,5.2c0.4,0.5-0.1,1.8-0.8,2.4l0.7,0.8c0.5,0.5,0.3,1.5-0.4,2.1l-1.6,1.4c-0.2,0.2-0.4,0.2-0.5,0.1
			L179.9,65c-0.1-0.1-0.1-0.4,0.1-0.5l1.6-1.4C182.3,62.5,183.3,62.4,183.8,62.9z"/>
		<path class="st12" d="M188.4,67.6c-0.1,0.1-0.3,0.1-0.4,0l-3.5-3.9c0.1-0.1,0.3-0.2,0.5-0.3l3.4,3.8
			C188.6,67.3,188.6,67.5,188.4,67.6z"/>
		<path class="st10" d="M165.1,78.6l9.2,10.2c0.1,0.1,0.1,0.4-0.1,0.5l-1.6,1.4c-0.7,0.6-1.7,0.8-2.2,0.2l-0.7-0.8
			c-0.8,0.6-2.1,1-2.5,0.5l-4.7-5.2c-0.4-0.4-0.1-1.3,0.4-2l1.1,1.2c0.1,0.1,0.3,0.1,0.4,0c0.1-0.1,0.1-0.3,0-0.4l-1.2-1.3l-0.7-0.8
			c-0.5-0.5-0.3-1.5,0.4-2.1l1.6-1.4C164.7,78.4,165,78.4,165.1,78.6z"/>
		<path class="st12" d="M164.4,84.7c-0.1,0.1-0.3,0.1-0.4,0l-1.1-1.2c0.1-0.2,0.2-0.3,0.4-0.5l1.2,1.3
			C164.5,84.4,164.5,84.6,164.4,84.7z"/>
		<path class="st4" d="M175.4,79.8c-1.6,1.7-4.3,1.6-5.9,0c-3.5-3.7-3.5-6.4,2.4-11.1c3.2-2.6,6.3-2.2,9.7,1.1c1,1,1,2.5,0.1,3.6
			C179.6,75.7,176,79.2,175.4,79.8z"/>
		<path class="st0" d="M246.1,62.2c0,0,2.1,8.6,5.6,6.6C253.3,67.9,253.8,62.5,246.1,62.2z"/>
		<path class="st13" d="M215.4,345.6c54.2,0,98.2-3,98.2-6.7s-44-6.7-98.2-6.7s-98.2,3-98.2,6.7
			C117.2,342.6,161.1,345.6,215.4,345.6z"/>
		<path class="st14" d="M176.4,338.3c0.6,0,1-0.5,1-1v-5.1c0-1.1,1.1-2,2.4-2h99.9c1.3,0,2.4,0.9,2.4,2v5.1c0,0.6,0.5,1,1,1h3.8
			c0.6,0,1-0.5,1-1v-26.8c0-1.5-1.4-2.7-3.2-2.7h-2.6l0,0H177.4l0,0h-2.6c-1.8,0-3.2,1.2-3.2,2.7v26.8c0,0.6,0.5,1,1,1H176.4z
			 M282.2,316.8v4.6c0,2.1-2,3.9-4.6,3.9H182c-2.5,0-4.6-1.7-4.6-3.9v-4.6c0-1.5,1.4-2.7,3.2-2.7H279
			C280.8,314.1,282.2,315.3,282.2,316.8z"/>
		<path class="st14" d="M273.6,282.9v-26.5c0-1.5-1.2-2.7-2.6-2.4c-1.1,0.2-1.8,1.3-1.8,2.6v1.5c0,1.1-0.8,2-1.8,2h-75.2
			c-1,0-1.8-0.9-1.8-2v-1.5c0-1.2-0.7-2.4-1.8-2.6c-1.4-0.2-2.6,0.9-2.6,2.4v26.5H273.6z"/>
		<path class="st14" d="M288,297.7H171.6v15.6H288V297.7z"/>
		<path class="st1" d="M288,312.4H171.6V328H288V312.4z"/>
		<path class="st0" d="M225.7,282.1h-31v-9.6c0-2.5,2.1-4.6,4.6-4.6h21.8c2.5,0,4.6,2.1,4.6,4.6L225.7,282.1L225.7,282.1z"/>
		<path class="st0" d="M267.1,282.1h-31v-9.6c0-2.5,2.1-4.6,4.6-4.6h21.8c2.5,0,4.6,2.1,4.6,4.6V282.1z"/>
		<path class="st4" d="M212.7,282.3c-0.4-3.1-0.9-7-0.8-9.1c-2.1,1.7-5.4,5-6.6,9.1H212.7z"/>
		<path class="st15" d="M245,266c0,0-12.6,3.7-21.4-4.4C223.6,261.6,233.9,257.2,245,266z"/>
		<path class="st5" d="M237.5,260.4c0,0-4,3.2-15.8,2.8C221.7,263.2,225.1,255.9,237.5,260.4z"/>
		<path class="st7" d="M248.5,282.3c0-0.8-0.1-1.6-0.2-2.6c-2.7-23-24.6-20.2-32.5-14.8c-3.7,2.5-8.7,7.9-7.8,17.4H248.5z"/>
		<path d="M221.2,273.7c0,0.2-0.6,0.1-1.4,0.2c-0.8,0.1-1.2,0.4-1.4,0.2c-0.2-0.2,0.4-1.4,1.1-1.5
			C220.3,272.5,221.2,273.4,221.2,273.7z"/>
		<path d="M232.8,271.8c-0.1,0.3-0.6,0.1-1.4,0.2c-0.8,0.1-1.3,0.4-1.4,0.2c-0.2-0.2,0.4-1.4,1.1-1.5S232.8,271.5,232.8,271.8z"/>
		<path d="M225,277.7c-0.2-0.6,0.6-0.9,1.9-0.7c1.3,0.2,0.6,1.7-0.3,1.6C225.6,278.5,225.2,278.2,225,277.7z"/>
		<path class="st0" d="M226.8,278l-0.4,0.1c-0.2,0-0.4-0.1-0.4-0.3l-0.1-0.8c0.4-0.1,0.8,0,1.1,0.1l0.1,0.5
			C227.1,277.7,227,277.9,226.8,278z"/>
		<path class="st4" d="M249.8,282.3c0-3.8-1.8-7.5-3.2-9.6c-0.6,2.4-3.5,6.6-5,9.6H249.8z"/>
		<path class="st5" d="M220,258.1c0,0,0.1,2.4,2.5,3.4C222.5,261.5,222.6,260.5,220,258.1z"/>
		<path class="st16" d="M222.4,262.8c1.1-1.3-1.4-3.8-5.9-2"/>
		<path class="st9" d="M215.4,260.6c0,0-1.5,3.1-0.1,2.8C216.7,263.1,216.4,260.3,215.4,260.6z"/>
		<path class="st9" d="M215.8,260.1c0,0-0.5,3.5,0.8,2.6S216.7,259.4,215.8,260.1z"/>
		<path class="st9" d="M215.9,259.9c0,0-3,1.4-1.9,2.3C215,263.2,216.7,260.5,215.9,259.9z"/>
		<path class="st9" d="M216.6,261.4c0,0-0.6-4-1.7-2.6C213.8,260.2,215.9,262.4,216.6,261.4z"/>
		<path class="st9" d="M215.7,260.4c0,0-0.1-2.7,1.1-2.1S216.5,260.9,215.7,260.4z"/>
		<path class="st9" d="M215.6,259.6c0,0,3.3-0.4,2.4,1C217.2,262,215,260.5,215.6,259.6z"/>
		<path class="st10" d="M216.6,260.7c0.3-0.8,0.1-1.5-0.3-1.7s-1,0.3-1.3,1.1c-0.3,0.8-0.1,1.5,0.3,1.7S216.3,261.4,216.6,260.7z"/>
		<path class="st17" d="M179.4,284.2l-7.9,13.6H288l-7.5-13.6c-0.7-1.3-2.1-2.2-3.6-2.2h-93.8C181.5,282.1,180.2,282.9,179.4,284.2z
			"/>
		<path class="st1" d="M176.6,289l-5.1,8.8H288l-5.3-9.5c-0.7-1.3-2.1-2.1-3.6-2.1l-98.8,0.8C178.8,286.9,177.4,287.7,176.6,289z"/>
		<path class="st10" d="M243.8,256c0.6,0,1.2,0,1.8,0.1c0.3,0,0.6,0,0.9,0.2c0.1,0,0.3,0.3,0.3,0.4c0,0.2-0.2,0.3-0.3,0.4
			s-0.4,0.1-0.5,0.1c-1,0.1-2.1,0.1-3.1,0.1c-0.7,0-1-0.4-0.7-1.1c0.5-1.3,1.1-2.6,1.6-3.9c0.1-0.1,0.1-0.2,0.2-0.4
			c0.2-0.4,0.1-0.6-0.4-0.5c-0.2,0-0.3,0-0.5,0c-0.5,0-0.8-0.4-0.8-0.8s0.3-0.8,0.8-0.8c0.8-0.1,1.6-0.1,2.5-0.1
			c0.4,0,0.8,0.2,0.8,0.6s0,0.8-0.2,1.2c-0.3,0.6-0.7,1.2-1,1.8C244.5,254.3,244.2,255.1,243.8,256z"/>
		<path class="st10" d="M250.8,254c0.7,0,1.3,0,2,0.1c0.3,0,0.7,0.1,1,0.2c0.2,0.1,0.4,0.3,0.4,0.5s-0.2,0.4-0.3,0.5
			c-0.2,0.1-0.4,0.1-0.6,0.2c-1.1,0-2.2,0.1-3.4,0.1c-0.8,0-1.1-0.4-0.8-1.2c0.6-1.4,1.2-2.8,1.8-4.1c0.1-0.1,0.1-0.3,0.2-0.4
			c0.2-0.5,0.1-0.6-0.4-0.6c-0.2,0-0.4,0-0.5,0c-0.5,0-0.9-0.4-0.9-0.9s0.4-0.9,0.9-0.9c0.9-0.1,1.8-0.1,2.6-0.1
			c0.4,0,0.8,0.3,0.8,0.7c0,0.4,0,0.9-0.2,1.3c-0.3,0.7-0.8,1.3-1.1,2C251.7,252.1,251.3,253,250.8,254z"/>
		<path class="st10" d="M257.6,251.3c0.9,0.1,1.7,0.2,2.4,0.3c0.4,0,0.8,0.1,1.2,0.3c0.2,0.1,0.4,0.4,0.4,0.6s-0.3,0.4-0.5,0.6
			c-0.2,0.1-0.5,0.1-0.7,0.1c-1.4,0-2.8-0.1-4.2-0.1c-0.9,0-1.3-0.6-0.9-1.5c0.8-1.7,1.7-3.4,2.6-5c0.1-0.2,0.2-0.3,0.2-0.5
			c0.3-0.6,0.1-0.8-0.5-0.8c-0.2,0-0.5,0-0.7,0c-0.6-0.1-1.1-0.6-1.1-1.1c0-0.6,0.5-1,1.2-1c1.1,0,2.2,0,3.3,0.1c0.5,0,1,0.4,1,0.9
			s-0.1,1.1-0.4,1.6c-0.4,0.8-1,1.6-1.5,2.4C258.8,249,258.2,250.1,257.6,251.3z"/>
		<path class="st1" d="M162.4,296.7h-29.6V325h29.6V296.7z"/>
		<path class="st14" d="M161.8,295.1h-30.5c-1.2,0-2.2,1-2.2,2.2v40.3c0,0.4,0.3,0.8,0.8,0.8h2.8c0.4,0,0.8-0.3,0.8-0.8v-9.8h26.1
			v9.8c0,0.4,0.4,0.8,0.8,0.8h2.8c0.4,0,0.8-0.3,0.8-0.8v-40.3C164,296.1,163,295.1,161.8,295.1z M158.5,323.4h-23.9
			c-0.6,0-1.1-0.5-1.1-1.1v-7.5c0-0.6,0.5-1.1,1.1-1.1h23.9c0.6,0,1.1,0.5,1.1,1.1v7.5C159.5,322.9,159.1,323.4,158.5,323.4z
			 M158.5,309.2h-23.9c-0.6,0-1.1-0.5-1.1-1.1v-7.5c0-0.6,0.5-1.1,1.1-1.1h23.9c0.6,0,1.1,0.5,1.1,1.1v7.5
			C159.5,308.8,159.1,309.2,158.5,309.2z"/>
		<path class="st14" d="M143.8,306.6h5.4c1.2,0,2.2-1,2.2-2.2s-1-2.2-2.2-2.2h-5.4c-1.2,0-2.2,1-2.2,2.2S142.5,306.6,143.8,306.6z"
			/>
		<path class="st14" d="M143.8,320.7h5.4c1.2,0,2.2-1,2.2-2.2s-1-2.2-2.2-2.2h-5.4c-1.2,0-2.2,1-2.2,2.2S142.5,320.7,143.8,320.7z"
			/>
		<path class="st13" d="M58.2,344.6c22.5,0,40.7-2.5,40.7-5.7c0-3.1-18.2-5.6-40.7-5.6s-40.7,2.5-40.7,5.6
			C17.4,342,35.7,344.6,58.2,344.6z"/>
		<path class="st11" d="M59.4,332.9l-17.9-0.2v3.4l17.9,0.2V332.9z"/>
		<path class="st10" d="M38.5,329.6v0.9l0,0v4.2c0,0.1-0.1,0.2-0.2,0.2c-0.1,0-0.3-0.1-0.2-0.2v-4.2c-0.7,0.1-1.3,0.5-1.3,1
			l-0.1,5.7c0,0.5,1,1,1.8,1.1v0.9c0,0.6,0.6,1,1.4,1.1h1.7c0.2,0,0.3-0.1,0.4-0.2l0.1-11.2c0-0.1-0.2-0.3-0.4-0.3H40
			C39.1,328.5,38.5,329,38.5,329.6z"/>
		<path class="st12" d="M38.1,334.9c0.1,0,0.2-0.1,0.2-0.2v-4.2c-0.2,0-0.3,0-0.5,0.1v4.2C37.9,334.8,38,334.9,38.1,334.9z"/>
		<path class="st10" d="M58.3,329.1l-0.1,11.2c0,0.1,0.2,0.3,0.3,0.3h1.7c0.8,0,1.4-0.5,1.4-1v-0.9c0.8,0,1.8-0.5,1.8-1l0.1-5.7
			c0-0.4-0.7-0.8-1.3-1v1.3c0,0.1-0.1,0.2-0.2,0.2s-0.2-0.1-0.2-0.2v-1.4V330c0-0.6-0.6-1-1.4-1.1h-1.7
			C58.4,328.8,58.3,328.9,58.3,329.1z"/>
		<path class="st12" d="M62,332.5c0.1,0,0.2-0.1,0.2-0.2V331c-0.2,0-0.3-0.1-0.5-0.1v1.4C61.8,332.3,61.9,332.5,62,332.5z"/>
		<path class="st11" d="M77.8,330.7l-15.5-8.8l-1.7,2.9l15.5,8.8L77.8,330.7z"/>
		<path class="st10" d="M61.1,317.7l-0.4,0.8l0,0l-2.1,3.7c-0.1,0.1-0.2,0.2-0.3,0.1s-0.2-0.2-0.1-0.3l2.1-3.6
			c-0.7-0.2-1.4-0.2-1.6,0.2l-2.8,5c-0.3,0.5,0.4,1.4,1.1,1.8l-0.4,0.8c-0.3,0.5,0,1.2,0.7,1.6l1.5,0.9c0.2,0.1,0.4,0.1,0.4,0
			l5.5-9.7c0.1-0.1,0-0.3-0.2-0.4l-1.5-0.9C62.1,317.1,61.4,317.2,61.1,317.7z"/>
		<path class="st12" d="M58.2,322.2c0.1,0.1,0.3,0,0.3-0.1l2.1-3.7c-0.1-0.1-0.3-0.1-0.5-0.2l-2.1,3.6C58,322,58.1,322.2,58.2,322.2
			z"/>
		<path class="st10" d="M78.7,326.8l-5.5,9.7c-0.1,0.1,0,0.3,0.2,0.4l1.5,0.9c0.7,0.4,1.5,0.3,1.8-0.2l0.4-0.8
			c0.7,0.3,1.8,0.5,2.1,0l2.8-5c0.2-0.4-0.2-1-0.7-1.5l-0.7,1.2c-0.1,0.1-0.2,0.2-0.3,0.1c-0.1-0.1-0.2-0.2-0.1-0.3l0.7-1.2l0.4-0.8
			c0.3-0.5,0-1.2-0.7-1.6l-1.5-0.9C78.9,326.7,78.7,326.7,78.7,326.8z"/>
		<path class="st12" d="M80.3,331.6c0.1,0.1,0.3,0,0.3-0.1l0.7-1.2c-0.1-0.1-0.3-0.2-0.4-0.3l-0.7,1.2
			C80.2,331.4,80.2,331.5,80.3,331.6z"/>
	</g>
</g>
</svg>
