<?xml version="1.0" encoding="utf-8"?>
<!-- Generator: Adobe Illustrator 25.1.0, SVG Export Plug-In . SVG Version: 6.00 Build 0)  -->
<svg version="1.1" id="Layer_1" xmlns="http://www.w3.org/2000/svg" xmlns:xlink="http://www.w3.org/1999/xlink" x="0px" y="0px"
	 viewBox="0 0 338 416.9" style="enable-background:new 0 0 338 416.9;" xml:space="preserve">
<style type="text/css">
	.st0{fill:#FFFFFF;}
	.st1{fill:#404040;}
	.st2{clip-path:url(#SVGID_2_);}
	.st3{fill:#00A878;}
	.st4{fill:#F1F1F1;}
	.st5{fill:#DCE3E5;}
	.st6{fill:#FF9F1A;}
</style>
<g>
	<g>
		<g>
			<path class="st0" d="M337,315.4c0-236.6,11.6-266.7-43.8-266.7c-27.2,0-159.3-1-194.8,0C63.5,49.6,11.2,38.8,5,75.2
				c-6.1,35.9-4.4,94.5-4.4,158.9c0,101.3-4.6,168.4,11.9,175.6c36.2,15.8,185.9,0.7,229.8-0.9C287.6,407.1,337,418.7,337,315.4z"/>
			<path class="st1" d="M33.1,347c-1.1,0-2-0.2-2.8-0.7c-0.8-0.5-1.4-1.2-1.8-2c-0.4-0.9-0.7-1.9-0.7-3c0-1.1,0.2-2.1,0.7-3
				c0.4-0.9,1.1-1.6,1.8-2c0.8-0.5,1.7-0.7,2.8-0.7c1.3,0,2.3,0.3,3.1,0.9c0.8,0.6,1.3,1.5,1.6,2.6h-1.5c-0.2-0.7-0.5-1.2-1.1-1.7
				c-0.5-0.4-1.2-0.6-2.1-0.6c-0.8,0-1.5,0.2-2.1,0.6c-0.6,0.4-1.1,0.9-1.4,1.6c-0.3,0.7-0.5,1.5-0.5,2.5s0.2,1.8,0.5,2.5
				c0.3,0.7,0.8,1.2,1.4,1.6c0.6,0.4,1.3,0.5,2.1,0.5c0.9,0,1.6-0.2,2.1-0.6c0.5-0.4,0.9-1,1.1-1.6h1.5c-0.2,1.1-0.7,1.9-1.6,2.5
				C35.4,346.7,34.4,347,33.1,347z M39.6,346.9v-11.5H41v4.9c0.3-0.5,0.6-0.9,1.1-1.1c0.5-0.3,1-0.4,1.6-0.4c0.9,0,1.7,0.3,2.2,0.9
				c0.6,0.6,0.8,1.4,0.8,2.6v4.6h-1.3v-4.5c0-1.7-0.7-2.5-2-2.5c-0.7,0-1.3,0.3-1.7,0.8c-0.5,0.5-0.7,1.2-0.7,2.1v4.1H39.6z
				 M52.4,347c-0.7,0-1.4-0.2-2-0.5c-0.6-0.3-1.1-0.8-1.4-1.4c-0.3-0.6-0.5-1.4-0.5-2.2c0-0.8,0.2-1.6,0.5-2.2
				c0.4-0.6,0.8-1.1,1.4-1.5c0.6-0.3,1.3-0.5,2-0.5c0.7,0,1.4,0.2,2,0.5c0.6,0.3,1.1,0.8,1.4,1.5c0.4,0.6,0.5,1.3,0.5,2.2
				c0,0.8-0.2,1.6-0.5,2.2c-0.4,0.6-0.8,1.1-1.4,1.4C53.8,346.9,53.1,347,52.4,347z M52.4,345.9c0.5,0,0.9-0.1,1.3-0.3
				c0.4-0.2,0.7-0.6,1-1c0.2-0.4,0.4-1,0.4-1.7c0-0.7-0.1-1.2-0.4-1.7c-0.2-0.4-0.5-0.8-0.9-1c-0.4-0.2-0.8-0.3-1.3-0.3
				c-0.5,0-0.9,0.1-1.3,0.3c-0.4,0.2-0.7,0.6-1,1c-0.2,0.4-0.4,1-0.4,1.7c0,0.7,0.1,1.2,0.4,1.7c0.2,0.4,0.6,0.8,0.9,1
				C51.5,345.8,51.9,345.9,52.4,345.9z M61.9,347c-0.7,0-1.4-0.2-2-0.5c-0.6-0.3-1.1-0.8-1.4-1.4c-0.3-0.6-0.5-1.4-0.5-2.2
				c0-0.8,0.2-1.6,0.5-2.2c0.4-0.6,0.8-1.1,1.4-1.5c0.6-0.3,1.3-0.5,2-0.5c0.7,0,1.4,0.2,2,0.5c0.6,0.3,1.1,0.8,1.4,1.5
				c0.4,0.6,0.5,1.3,0.5,2.2c0,0.8-0.2,1.6-0.5,2.2c-0.4,0.6-0.8,1.1-1.4,1.4C63.3,346.9,62.6,347,61.9,347z M61.9,345.9
				c0.5,0,0.9-0.1,1.3-0.3c0.4-0.2,0.7-0.6,1-1c0.2-0.4,0.4-1,0.4-1.7c0-0.7-0.1-1.2-0.4-1.7c-0.2-0.4-0.5-0.8-0.9-1
				c-0.4-0.2-0.8-0.3-1.3-0.3c-0.5,0-0.9,0.1-1.3,0.3c-0.4,0.2-0.7,0.6-1,1c-0.2,0.4-0.4,1-0.4,1.7c0,0.7,0.1,1.2,0.4,1.7
				c0.2,0.4,0.6,0.8,0.9,1C61,345.8,61.4,345.9,61.9,345.9z M70.8,347c-0.9,0-1.7-0.2-2.4-0.7c-0.6-0.5-1-1.1-1.1-2h1.4
				c0.1,0.4,0.3,0.8,0.7,1.1c0.4,0.3,0.8,0.4,1.5,0.4c0.6,0,1-0.1,1.2-0.4c0.3-0.2,0.4-0.5,0.4-0.9c0-0.5-0.2-0.8-0.5-1
				c-0.3-0.2-0.8-0.3-1.5-0.4c-0.4-0.1-0.9-0.2-1.3-0.4c-0.4-0.2-0.8-0.4-1.1-0.7c-0.3-0.3-0.4-0.7-0.4-1.2c0-0.7,0.3-1.3,0.8-1.7
				c0.5-0.4,1.2-0.7,2.1-0.7c0.8,0,1.5,0.2,2.1,0.6c0.5,0.4,0.9,1,0.9,1.8h-1.3c-0.1-0.4-0.2-0.7-0.5-0.9c-0.3-0.2-0.7-0.4-1.2-0.4
				c-0.5,0-0.9,0.1-1.1,0.3c-0.3,0.2-0.4,0.5-0.4,0.8c0,0.3,0.2,0.6,0.5,0.8c0.3,0.2,0.8,0.3,1.4,0.5c0.5,0.1,1,0.2,1.4,0.4
				c0.4,0.1,0.8,0.4,1.1,0.7c0.3,0.3,0.4,0.7,0.4,1.3c0,0.7-0.3,1.3-0.8,1.8C72.4,346.8,71.7,347,70.8,347z M79.3,347
				c-0.8,0-1.4-0.2-2-0.5c-0.6-0.4-1.1-0.8-1.4-1.5c-0.3-0.6-0.5-1.3-0.5-2.2c0-0.8,0.2-1.6,0.5-2.2c0.3-0.6,0.8-1.1,1.4-1.5
				c0.6-0.4,1.3-0.5,2.1-0.5c0.8,0,1.4,0.2,2,0.5c0.6,0.3,1,0.8,1.3,1.4c0.3,0.6,0.4,1.2,0.4,1.8c0,0.1,0,0.2,0,0.4
				c0,0.1,0,0.3,0,0.4h-6.3c0,0.6,0.2,1.1,0.4,1.5c0.3,0.4,0.6,0.7,0.9,0.9c0.4,0.2,0.8,0.3,1.2,0.3c0.6,0,1-0.1,1.4-0.4
				c0.4-0.3,0.6-0.6,0.8-1h1.3c-0.2,0.7-0.6,1.3-1.2,1.8C81,346.8,80.2,347,79.3,347z M79.3,339.9c-0.6,0-1.2,0.2-1.7,0.6
				c-0.5,0.4-0.8,0.9-0.8,1.7h5c0-0.7-0.3-1.3-0.7-1.7C80.5,340.1,80,339.9,79.3,339.9z M92.7,347c-0.7,0-1.4-0.2-2-0.5
				s-1.1-0.8-1.4-1.4c-0.3-0.6-0.5-1.4-0.5-2.2c0-0.8,0.2-1.6,0.5-2.2c0.4-0.6,0.8-1.1,1.4-1.5c0.6-0.3,1.3-0.5,2-0.5s1.4,0.2,2,0.5
				s1.1,0.8,1.4,1.5c0.4,0.6,0.5,1.3,0.5,2.2c0,0.8-0.2,1.6-0.5,2.2c-0.4,0.6-0.8,1.1-1.4,1.4C94.1,346.9,93.4,347,92.7,347z
				 M92.7,345.9c0.5,0,0.9-0.1,1.3-0.3c0.4-0.2,0.7-0.6,1-1c0.2-0.4,0.4-1,0.4-1.7c0-0.7-0.1-1.2-0.4-1.7c-0.2-0.4-0.5-0.8-0.9-1
				c-0.4-0.2-0.8-0.3-1.3-0.3c-0.5,0-0.9,0.1-1.3,0.3c-0.4,0.2-0.7,0.6-1,1c-0.2,0.4-0.4,1-0.4,1.7c0,0.7,0.1,1.2,0.4,1.7
				c0.2,0.4,0.6,0.8,0.9,1C91.8,345.8,92.2,345.9,92.7,345.9z M98.5,346.9v-7.9h1.2l0.1,1.4c0.3-0.5,0.6-0.9,1.1-1.2
				c0.5-0.3,1-0.4,1.6-0.4c0.9,0,1.7,0.3,2.2,0.9c0.6,0.6,0.8,1.4,0.8,2.6v4.6h-1.3v-4.5c0-1.7-0.7-2.5-2-2.5
				c-0.7,0-1.3,0.3-1.7,0.8c-0.4,0.5-0.7,1.2-0.7,2.1v4.1H98.5z M111.3,347c-0.8,0-1.4-0.2-2-0.5c-0.6-0.4-1.1-0.8-1.4-1.5
				c-0.3-0.6-0.5-1.3-0.5-2.2c0-0.8,0.2-1.6,0.5-2.2c0.3-0.6,0.8-1.1,1.4-1.5c0.6-0.4,1.3-0.5,2.1-0.5c0.8,0,1.4,0.2,2,0.5
				c0.6,0.3,1,0.8,1.3,1.4s0.4,1.2,0.4,1.8c0,0.1,0,0.2,0,0.4c0,0.1,0,0.3,0,0.4h-6.3c0,0.6,0.2,1.1,0.4,1.5
				c0.3,0.4,0.6,0.7,0.9,0.9c0.4,0.2,0.8,0.3,1.2,0.3c0.6,0,1-0.1,1.4-0.4s0.6-0.6,0.8-1h1.3c-0.2,0.7-0.6,1.3-1.2,1.8
				C113,346.8,112.2,347,111.3,347z M111.3,339.9c-0.6,0-1.2,0.2-1.7,0.6c-0.5,0.4-0.8,0.9-0.8,1.7h5c0-0.7-0.3-1.3-0.7-1.7
				S111.9,339.9,111.3,339.9z M124.1,347c-0.9,0-1.7-0.2-2.4-0.7c-0.6-0.5-1-1.1-1.1-2h1.4c0.1,0.4,0.3,0.8,0.7,1.1
				c0.4,0.3,0.8,0.4,1.5,0.4c0.6,0,1-0.1,1.2-0.4c0.3-0.2,0.4-0.5,0.4-0.9c0-0.5-0.2-0.8-0.5-1c-0.3-0.2-0.8-0.3-1.5-0.4
				c-0.4-0.1-0.9-0.2-1.3-0.4c-0.4-0.2-0.8-0.4-1.1-0.7c-0.3-0.3-0.4-0.7-0.4-1.2c0-0.7,0.3-1.3,0.8-1.7c0.5-0.4,1.2-0.7,2.1-0.7
				c0.8,0,1.5,0.2,2.1,0.6c0.5,0.4,0.9,1,0.9,1.8h-1.3c-0.1-0.4-0.2-0.7-0.5-0.9c-0.3-0.2-0.7-0.4-1.2-0.4c-0.5,0-0.9,0.1-1.1,0.3
				c-0.3,0.2-0.4,0.5-0.4,0.8c0,0.3,0.2,0.6,0.5,0.8c0.3,0.2,0.8,0.3,1.4,0.5c0.5,0.1,1,0.2,1.4,0.4c0.4,0.1,0.8,0.4,1.1,0.7
				c0.3,0.3,0.4,0.7,0.4,1.3c0,0.7-0.3,1.3-0.8,1.8C125.7,346.8,125,347,124.1,347z M131.8,346.9c-0.7,0-1.3-0.2-1.7-0.5
				c-0.4-0.4-0.6-1-0.6-1.9v-4.4h-1.4v-1.1h1.4l0.2-1.9h1.2v1.9h2.3v1.1h-2.3v4.4c0,0.5,0.1,0.8,0.3,1c0.2,0.2,0.6,0.3,1.1,0.3h0.8
				v1.2H131.8z M134.9,346.9v-7.9h1.2l0.1,1.5c0.2-0.5,0.6-0.9,1.1-1.2c0.5-0.3,1.1-0.5,1.9-0.5v1.4h-0.4c-0.5,0-0.9,0.1-1.3,0.3
				c-0.4,0.2-0.7,0.4-0.9,0.8c-0.2,0.4-0.4,0.9-0.4,1.6v4H134.9z M143.3,347c-0.7,0-1.2-0.1-1.6-0.3c-0.4-0.2-0.8-0.5-1-0.9
				c-0.2-0.4-0.3-0.8-0.3-1.2c0-0.8,0.3-1.4,0.9-1.9c0.6-0.4,1.5-0.7,2.5-0.7h2.1V342c0-0.7-0.2-1.2-0.5-1.6
				c-0.4-0.4-0.8-0.5-1.5-0.5c-0.5,0-1,0.1-1.4,0.4c-0.4,0.3-0.6,0.6-0.7,1.1h-1.4c0.1-0.6,0.2-1.1,0.6-1.5c0.3-0.4,0.8-0.7,1.3-0.9
				c0.5-0.2,1-0.3,1.6-0.3c1.1,0,1.9,0.3,2.5,0.9c0.6,0.6,0.8,1.4,0.8,2.4v4.9h-1.2l-0.1-1.4c-0.2,0.4-0.6,0.8-1,1.2
				C144.6,346.9,144,347,143.3,347z M143.5,345.9c0.5,0,0.9-0.1,1.3-0.4c0.4-0.3,0.7-0.6,0.8-1s0.3-0.9,0.3-1.3v0h-2
				c-0.8,0-1.4,0.1-1.7,0.4c-0.3,0.3-0.5,0.6-0.5,1c0,0.4,0.1,0.8,0.4,1C142.5,345.8,143,345.9,143.5,345.9z M152.2,346.9
				c-0.7,0-1.3-0.2-1.7-0.5c-0.4-0.4-0.6-1-0.6-1.9v-4.4h-1.4v-1.1h1.4l0.2-1.9h1.2v1.9h2.3v1.1h-2.3v4.4c0,0.5,0.1,0.8,0.3,1
				c0.2,0.2,0.6,0.3,1.1,0.3h0.8v1.2H152.2z M158.6,347c-0.8,0-1.4-0.2-2-0.5c-0.6-0.4-1.1-0.8-1.4-1.5c-0.3-0.6-0.5-1.3-0.5-2.2
				c0-0.8,0.2-1.6,0.5-2.2c0.3-0.6,0.8-1.1,1.4-1.5c0.6-0.4,1.3-0.5,2.1-0.5c0.8,0,1.4,0.2,2,0.5c0.6,0.3,1,0.8,1.3,1.4
				c0.3,0.6,0.4,1.2,0.4,1.8c0,0.1,0,0.2,0,0.4c0,0.1,0,0.3,0,0.4h-6.3c0,0.6,0.2,1.1,0.4,1.5c0.3,0.4,0.6,0.7,0.9,0.9
				c0.4,0.2,0.8,0.3,1.2,0.3c0.6,0,1-0.1,1.4-0.4c0.4-0.3,0.6-0.6,0.8-1h1.3c-0.2,0.7-0.6,1.3-1.2,1.8
				C160.3,346.8,159.6,347,158.6,347z M158.6,339.9c-0.6,0-1.2,0.2-1.7,0.6c-0.5,0.4-0.8,0.9-0.8,1.7h5c0-0.7-0.3-1.3-0.7-1.7
				C159.9,340.1,159.3,339.9,158.6,339.9z M167.3,344.4c-0.4,0-0.9-0.1-1.2-0.2l-0.8,0.8c0.1,0.1,0.3,0.2,0.4,0.2
				c0.2,0.1,0.4,0.1,0.8,0.2c0.3,0,0.8,0.1,1.4,0.1c1.1,0.1,1.8,0.3,2.3,0.7c0.5,0.4,0.7,1,0.7,1.6c0,0.5-0.1,0.9-0.4,1.3
				c-0.2,0.4-0.6,0.8-1.2,1c-0.5,0.3-1.2,0.4-2,0.4c-0.7,0-1.3-0.1-1.9-0.3c-0.6-0.2-1-0.5-1.3-0.8c-0.3-0.4-0.5-0.8-0.5-1.4
				c0-0.3,0.1-0.6,0.2-1c0.2-0.3,0.5-0.7,0.9-1c-0.2-0.1-0.4-0.2-0.6-0.3c-0.2-0.1-0.3-0.2-0.4-0.4V345l1.4-1.3
				c-0.6-0.5-0.9-1.2-0.9-2.1c0-0.5,0.1-1,0.4-1.4c0.2-0.4,0.6-0.8,1.1-1c0.5-0.3,1-0.4,1.7-0.4c0.5,0,0.9,0.1,1.2,0.2h2.9v1
				L170,340c0.3,0.4,0.5,1,0.5,1.6c0,0.5-0.1,1-0.4,1.4c-0.2,0.4-0.6,0.8-1.1,1C168.5,344.2,167.9,344.4,167.3,344.4z M167.3,343.3
				c0.6,0,1-0.1,1.3-0.4c0.3-0.3,0.5-0.7,0.5-1.3c0-0.5-0.2-1-0.5-1.2c-0.3-0.3-0.8-0.4-1.3-0.4c-0.6,0-1,0.1-1.4,0.4
				c-0.3,0.3-0.5,0.7-0.5,1.2c0,0.6,0.2,1,0.5,1.3C166.2,343.1,166.7,343.3,167.3,343.3z M164.9,347.9c0,0.5,0.2,0.9,0.7,1.2
				c0.4,0.3,1,0.4,1.7,0.4c0.7,0,1.2-0.1,1.6-0.4c0.4-0.3,0.6-0.7,0.6-1.2c0-0.3-0.1-0.6-0.4-0.9c-0.3-0.2-0.8-0.4-1.5-0.4
				c-0.6,0-1.1-0.1-1.5-0.2c-0.4,0.2-0.7,0.5-0.9,0.8C165,347.4,164.9,347.7,164.9,347.9z M173.8,350.4l2-4.3h-0.5l-3.2-7.2h1.5
				l2.6,6.2l2.8-6.2h1.4l-5.2,11.5H173.8z M186.5,346.9v-6.8h-1.2v-1.1h1.2v-1.4c0-0.8,0.2-1.3,0.6-1.7c0.4-0.4,0.9-0.5,1.7-0.5h0.8
				v1.2H189c-0.4,0-0.7,0.1-0.9,0.3c-0.2,0.2-0.3,0.4-0.3,0.8v1.3h2v1.1h-2v6.8H186.5z M191.4,346.9v-7.9h1.2l0.1,1.5
				c0.2-0.5,0.6-0.9,1.1-1.2c0.5-0.3,1.1-0.5,1.9-0.5v1.4h-0.4c-0.5,0-0.9,0.1-1.3,0.3c-0.4,0.2-0.7,0.4-0.9,0.8
				c-0.2,0.4-0.4,0.9-0.4,1.6v4H191.4z M200.5,347c-0.7,0-1.4-0.2-2-0.5s-1.1-0.8-1.4-1.4c-0.3-0.6-0.5-1.4-0.5-2.2
				c0-0.8,0.2-1.6,0.5-2.2c0.4-0.6,0.8-1.1,1.4-1.5c0.6-0.3,1.3-0.5,2-0.5c0.7,0,1.4,0.2,2,0.5s1.1,0.8,1.4,1.5
				c0.4,0.6,0.5,1.3,0.5,2.2c0,0.8-0.2,1.6-0.5,2.2c-0.4,0.6-0.8,1.1-1.4,1.4C202,346.9,201.3,347,200.5,347z M200.5,345.9
				c0.5,0,0.9-0.1,1.3-0.3s0.7-0.6,1-1c0.2-0.4,0.4-1,0.4-1.7c0-0.7-0.1-1.2-0.4-1.7c-0.2-0.4-0.5-0.8-0.9-1
				c-0.4-0.2-0.8-0.3-1.3-0.3c-0.5,0-0.9,0.1-1.3,0.3c-0.4,0.2-0.7,0.6-1,1c-0.2,0.4-0.4,1-0.4,1.7c0,0.7,0.1,1.2,0.4,1.7
				c0.2,0.4,0.6,0.8,0.9,1C199.7,345.8,200.1,345.9,200.5,345.9z M206.4,346.9v-7.9h1.2l0.1,1.2c0.3-0.4,0.6-0.8,1-1
				c0.4-0.2,0.9-0.4,1.4-0.4c0.6,0,1.2,0.1,1.6,0.4c0.5,0.3,0.8,0.6,1.1,1.2c0.3-0.5,0.7-0.9,1.1-1.1c0.5-0.3,1-0.4,1.6-0.4
				c0.9,0,1.7,0.3,2.3,0.9c0.6,0.6,0.8,1.4,0.8,2.6v4.6h-1.3v-4.5c0-0.8-0.2-1.4-0.5-1.9c-0.3-0.4-0.8-0.6-1.4-0.6
				c-0.6,0-1.2,0.3-1.6,0.8c-0.4,0.5-0.6,1.2-0.6,2.1v4.1h-1.3v-4.5c0-0.8-0.2-1.4-0.5-1.9c-0.3-0.4-0.8-0.6-1.4-0.6
				c-0.6,0-1.2,0.3-1.6,0.8c-0.4,0.5-0.6,1.2-0.6,2.1v4.1H206.4z M228.1,346.9c-0.7,0-1.3-0.2-1.7-0.5c-0.4-0.4-0.6-1-0.6-1.9v-4.4
				h-1.4v-1.1h1.4l0.2-1.9h1.2v1.9h2.3v1.1h-2.3v4.4c0,0.5,0.1,0.8,0.3,1c0.2,0.2,0.6,0.3,1.1,0.3h0.8v1.2H228.1z M231.1,346.9
				v-11.5h1.3v4.9c0.3-0.5,0.6-0.9,1.1-1.1c0.5-0.3,1-0.4,1.6-0.4c0.9,0,1.7,0.3,2.2,0.9c0.6,0.6,0.8,1.4,0.8,2.6v4.6h-1.3v-4.5
				c0-1.7-0.7-2.5-2-2.5c-0.7,0-1.3,0.3-1.7,0.8c-0.5,0.5-0.7,1.2-0.7,2.1v4.1H231.1z M241.1,337.2c-0.3,0-0.5-0.1-0.7-0.3
				c-0.2-0.2-0.3-0.4-0.3-0.7c0-0.3,0.1-0.5,0.3-0.6c0.2-0.2,0.4-0.3,0.7-0.3c0.3,0,0.5,0.1,0.7,0.3c0.2,0.2,0.3,0.4,0.3,0.6
				c0,0.3-0.1,0.5-0.3,0.7C241.6,337.1,241.4,337.2,241.1,337.2z M240.4,346.9v-7.9h1.3v7.9H240.4z M247.2,347c-1,0-1.7-0.2-2.4-0.7
				c-0.6-0.5-1-1.1-1.1-2h1.4c0.1,0.4,0.3,0.8,0.7,1.1c0.4,0.3,0.8,0.4,1.5,0.4c0.6,0,1-0.1,1.2-0.4c0.3-0.2,0.4-0.5,0.4-0.9
				c0-0.5-0.2-0.8-0.5-1c-0.3-0.2-0.8-0.3-1.5-0.4c-0.4-0.1-0.9-0.2-1.3-0.4c-0.4-0.2-0.8-0.4-1.1-0.7c-0.3-0.3-0.4-0.7-0.4-1.2
				c0-0.7,0.3-1.3,0.8-1.7c0.5-0.4,1.2-0.7,2.1-0.7c0.8,0,1.5,0.2,2.1,0.6c0.5,0.4,0.9,1,0.9,1.8h-1.3c-0.1-0.4-0.2-0.7-0.5-0.9
				c-0.3-0.2-0.7-0.4-1.2-0.4c-0.5,0-0.9,0.1-1.1,0.3c-0.3,0.2-0.4,0.5-0.4,0.8c0,0.3,0.2,0.6,0.5,0.8c0.3,0.2,0.8,0.3,1.4,0.5
				c0.5,0.1,1,0.2,1.4,0.4c0.4,0.1,0.8,0.4,1.1,0.7c0.3,0.3,0.4,0.7,0.4,1.3c0,0.7-0.3,1.3-0.8,1.8C248.8,346.8,248.1,347,247.2,347
				z M28.1,370.9v-7.9h1.2l0.1,1.2c0.3-0.4,0.6-0.8,1-1c0.4-0.2,0.9-0.4,1.4-0.4c0.6,0,1.2,0.1,1.6,0.4c0.5,0.3,0.8,0.6,1.1,1.2
				c0.3-0.5,0.7-0.9,1.1-1.1c0.5-0.3,1-0.4,1.6-0.4c0.9,0,1.7,0.3,2.3,0.9c0.6,0.6,0.8,1.4,0.8,2.6v4.6h-1.3v-4.5
				c0-0.8-0.2-1.4-0.5-1.9s-0.8-0.6-1.4-0.6c-0.6,0-1.2,0.3-1.6,0.8c-0.4,0.5-0.6,1.2-0.6,2.1v4.1h-1.3v-4.5c0-0.8-0.2-1.4-0.5-1.9
				c-0.3-0.4-0.8-0.6-1.4-0.6c-0.6,0-1.2,0.3-1.6,0.8c-0.4,0.5-0.6,1.2-0.6,2.1v4.1H28.1z M46,371c-0.7,0-1.4-0.2-2-0.5
				c-0.6-0.3-1.1-0.8-1.4-1.4c-0.3-0.6-0.5-1.4-0.5-2.2c0-0.8,0.2-1.6,0.5-2.2c0.4-0.6,0.8-1.1,1.4-1.5c0.6-0.3,1.3-0.5,2-0.5
				c0.7,0,1.4,0.2,2,0.5c0.6,0.3,1.1,0.8,1.4,1.5c0.4,0.6,0.5,1.3,0.5,2.2c0,0.8-0.2,1.6-0.5,2.2c-0.4,0.6-0.8,1.1-1.4,1.4
				C47.5,370.9,46.8,371,46,371z M46,369.9c0.5,0,0.9-0.1,1.3-0.3s0.7-0.6,1-1s0.4-1,0.4-1.7s-0.1-1.2-0.4-1.7
				c-0.2-0.4-0.5-0.8-0.9-1s-0.8-0.3-1.3-0.3c-0.5,0-0.9,0.1-1.3,0.3s-0.7,0.6-1,1s-0.4,1-0.4,1.7s0.1,1.2,0.4,1.7s0.6,0.8,0.9,1
				C45.2,369.8,45.6,369.9,46,369.9z M55.5,371c-0.8,0-1.5-0.2-2.1-0.5c-0.6-0.4-1-0.9-1.4-1.5c-0.3-0.6-0.5-1.3-0.5-2.1
				s0.2-1.5,0.5-2.1c0.3-0.6,0.8-1.1,1.4-1.5c0.6-0.4,1.3-0.5,2.1-0.5c0.7,0,1.2,0.1,1.7,0.4c0.5,0.3,0.9,0.6,1.2,1.1v-4.9h1.3v11.5
				h-1.2l-0.1-1.3c-0.3,0.4-0.6,0.7-1.1,1C56.8,370.9,56.2,371,55.5,371z M55.6,369.9c0.5,0,1-0.1,1.4-0.4c0.4-0.3,0.7-0.6,1-1.1
				c0.2-0.4,0.4-1,0.4-1.6c0-0.6-0.1-1.1-0.4-1.6c-0.2-0.4-0.5-0.8-1-1c-0.4-0.3-0.9-0.4-1.4-0.4c-0.5,0-1,0.1-1.4,0.4
				c-0.4,0.2-0.7,0.6-1,1c-0.2,0.4-0.3,1-0.3,1.6c0,0.6,0.1,1.1,0.3,1.6c0.2,0.4,0.6,0.8,1,1.1C54.6,369.8,55.1,369.9,55.6,369.9z
				 M64.8,371c-0.9,0-1.7-0.3-2.2-0.8c-0.6-0.6-0.8-1.5-0.8-2.6v-4.6h1.3v4.5c0,1.7,0.7,2.5,2,2.5c0.7,0,1.3-0.2,1.7-0.7
				c0.5-0.5,0.7-1.2,0.7-2.1v-4.1h1.3v7.9h-1.2l-0.1-1.4c-0.2,0.5-0.6,0.9-1.1,1.2C66,370.9,65.4,371,64.8,371z M71.1,370.9v-11.5
				h1.3v11.5H71.1z M78.2,371c-0.8,0-1.4-0.2-2-0.5c-0.6-0.4-1.1-0.8-1.4-1.5c-0.3-0.6-0.5-1.3-0.5-2.2c0-0.8,0.2-1.6,0.5-2.2
				c0.3-0.6,0.8-1.1,1.4-1.5c0.6-0.4,1.3-0.5,2.1-0.5c0.8,0,1.4,0.2,2,0.5c0.6,0.3,1,0.8,1.3,1.4c0.3,0.6,0.4,1.2,0.4,1.8
				c0,0.1,0,0.2,0,0.4c0,0.1,0,0.3,0,0.4h-6.3c0,0.6,0.2,1.1,0.4,1.5c0.3,0.4,0.6,0.7,0.9,0.9c0.4,0.2,0.8,0.3,1.2,0.3
				c0.6,0,1-0.1,1.4-0.4c0.4-0.3,0.6-0.6,0.8-1h1.3c-0.2,0.7-0.6,1.3-1.2,1.8C79.9,370.8,79.1,371,78.2,371z M78.2,363.9
				c-0.6,0-1.2,0.2-1.7,0.6c-0.5,0.4-0.8,0.9-0.8,1.7h5c0-0.7-0.3-1.3-0.7-1.7C79.4,364.1,78.9,363.9,78.2,363.9z M91.1,370.9
				c-0.7,0-1.3-0.2-1.7-0.5s-0.6-1-0.6-1.9v-4.4h-1.4v-1.1h1.4L89,361h1.2v1.9h2.3v1.1h-2.3v4.4c0,0.5,0.1,0.8,0.3,1
				c0.2,0.2,0.6,0.3,1.1,0.3h0.8v1.2H91.1z M97.6,371c-0.7,0-1.4-0.2-2-0.5c-0.6-0.3-1.1-0.8-1.4-1.4c-0.3-0.6-0.5-1.4-0.5-2.2
				c0-0.8,0.2-1.6,0.5-2.2c0.4-0.6,0.8-1.1,1.4-1.5c0.6-0.3,1.3-0.5,2-0.5c0.7,0,1.4,0.2,2,0.5c0.6,0.3,1.1,0.8,1.4,1.5
				c0.4,0.6,0.5,1.3,0.5,2.2c0,0.8-0.2,1.6-0.5,2.2c-0.4,0.6-0.8,1.1-1.4,1.4C99,370.9,98.3,371,97.6,371z M97.6,369.9
				c0.5,0,0.9-0.1,1.3-0.3c0.4-0.2,0.7-0.6,1-1c0.2-0.4,0.4-1,0.4-1.7s-0.1-1.2-0.4-1.7c-0.2-0.4-0.6-0.8-0.9-1
				c-0.4-0.2-0.8-0.3-1.3-0.3c-0.5,0-0.9,0.1-1.3,0.3c-0.4,0.2-0.7,0.6-1,1c-0.2,0.4-0.4,1-0.4,1.7s0.1,1.2,0.4,1.7
				c0.2,0.4,0.6,0.8,0.9,1C96.7,369.8,97.1,369.9,97.6,369.9z M107.7,374.4v-11.5h1.2l0.1,1.3c0.3-0.4,0.6-0.7,1.1-1
				c0.5-0.3,1.1-0.5,1.8-0.5c0.8,0,1.5,0.2,2.1,0.5c0.6,0.4,1,0.9,1.4,1.5c0.3,0.6,0.5,1.3,0.5,2.1c0,0.8-0.2,1.5-0.5,2.1
				c-0.3,0.6-0.8,1.1-1.4,1.5c-0.6,0.4-1.3,0.5-2.1,0.5c-0.7,0-1.2-0.1-1.7-0.4c-0.5-0.3-0.9-0.6-1.2-1.1v4.8H107.7z M111.7,369.9
				c0.5,0,1-0.1,1.4-0.4c0.4-0.3,0.7-0.6,1-1.1s0.4-1,0.4-1.6c0-0.6-0.1-1.1-0.4-1.6s-0.6-0.8-1-1c-0.4-0.3-0.9-0.4-1.4-0.4
				c-0.5,0-1,0.1-1.4,0.4c-0.4,0.2-0.7,0.6-1,1s-0.4,1-0.4,1.6c0,0.6,0.1,1.1,0.4,1.6s0.6,0.8,1,1.1
				C110.7,369.8,111.2,369.9,111.7,369.9z M117.7,370.9v-7.9h1.2l0.1,1.5c0.2-0.5,0.6-0.9,1.1-1.2c0.5-0.3,1.1-0.5,1.9-0.5v1.4h-0.4
				c-0.5,0-0.9,0.1-1.3,0.3c-0.4,0.2-0.7,0.4-0.9,0.8c-0.2,0.4-0.4,0.9-0.4,1.6v4H117.7z M126.2,371c-0.7,0-1.2-0.1-1.6-0.3
				c-0.4-0.2-0.8-0.5-1-0.9c-0.2-0.4-0.3-0.8-0.3-1.2c0-0.8,0.3-1.4,0.9-1.9c0.6-0.4,1.5-0.7,2.5-0.7h2.1V366c0-0.7-0.2-1.2-0.5-1.6
				c-0.4-0.4-0.8-0.5-1.5-0.5c-0.5,0-1,0.1-1.4,0.4c-0.4,0.3-0.6,0.6-0.7,1.1h-1.4c0.1-0.6,0.2-1.1,0.6-1.5c0.3-0.4,0.8-0.7,1.3-0.9
				c0.5-0.2,1-0.3,1.6-0.3c1.1,0,1.9,0.3,2.5,0.9c0.6,0.6,0.8,1.4,0.8,2.4v4.9h-1.2l-0.1-1.4c-0.2,0.4-0.6,0.8-1,1.2
				C127.5,370.9,126.9,371,126.2,371z M126.4,369.9c0.5,0,0.9-0.1,1.3-0.4c0.4-0.3,0.7-0.6,0.8-1s0.3-0.9,0.3-1.3v0h-2
				c-0.8,0-1.3,0.1-1.7,0.4c-0.3,0.3-0.5,0.6-0.5,1c0,0.4,0.2,0.8,0.4,1C125.4,369.8,125.8,369.9,126.4,369.9z M135.8,371
				c-0.8,0-1.4-0.2-2-0.5c-0.6-0.4-1.1-0.8-1.4-1.5c-0.3-0.6-0.5-1.4-0.5-2.2c0-0.8,0.2-1.6,0.5-2.2c0.4-0.6,0.8-1.1,1.4-1.5
				c0.6-0.4,1.3-0.5,2-0.5c0.9,0,1.7,0.2,2.4,0.7c0.6,0.5,1.1,1.1,1.2,2H138c-0.1-0.5-0.4-0.9-0.8-1.1c-0.4-0.3-0.9-0.4-1.5-0.4
				c-0.4,0-0.9,0.1-1.3,0.3c-0.4,0.2-0.7,0.6-1,1c-0.2,0.4-0.4,1-0.4,1.7s0.1,1.2,0.4,1.7c0.2,0.4,0.6,0.8,1,1
				c0.4,0.2,0.8,0.3,1.3,0.3c0.6,0,1-0.1,1.5-0.4c0.4-0.3,0.7-0.7,0.8-1.2h1.4c-0.2,0.8-0.6,1.5-1.2,2
				C137.5,370.8,136.8,371,135.8,371z M144.2,370.9c-0.7,0-1.3-0.2-1.7-0.5s-0.6-1-0.6-1.9v-4.4h-1.4v-1.1h1.4l0.2-1.9h1.2v1.9h2.3
				v1.1h-2.3v4.4c0,0.5,0.1,0.8,0.3,1c0.2,0.2,0.6,0.3,1.1,0.3h0.8v1.2H144.2z M148.1,361.2c-0.3,0-0.5-0.1-0.7-0.3
				c-0.2-0.2-0.3-0.4-0.3-0.7c0-0.3,0.1-0.5,0.3-0.6c0.2-0.2,0.4-0.3,0.7-0.3c0.3,0,0.5,0.1,0.7,0.3c0.2,0.2,0.3,0.4,0.3,0.6
				c0,0.3-0.1,0.5-0.3,0.7C148.6,361.1,148.3,361.2,148.1,361.2z M147.4,370.9v-7.9h1.3v7.9H147.4z M154.1,371
				c-0.9,0-1.7-0.2-2.4-0.7c-0.6-0.5-1-1.1-1.1-2h1.4c0.1,0.4,0.3,0.8,0.7,1.1c0.4,0.3,0.8,0.4,1.5,0.4c0.6,0,1-0.1,1.2-0.4
				c0.3-0.2,0.4-0.5,0.4-0.9c0-0.5-0.2-0.8-0.5-1c-0.3-0.2-0.8-0.3-1.5-0.4c-0.4-0.1-0.9-0.2-1.3-0.4c-0.4-0.2-0.8-0.4-1.1-0.7
				c-0.3-0.3-0.4-0.7-0.4-1.2c0-0.7,0.3-1.3,0.8-1.7c0.5-0.4,1.2-0.7,2.1-0.7c0.8,0,1.5,0.2,2.1,0.6c0.5,0.4,0.9,1,0.9,1.8h-1.3
				c-0.1-0.4-0.2-0.7-0.5-0.9c-0.3-0.2-0.7-0.4-1.2-0.4c-0.5,0-0.9,0.1-1.1,0.3c-0.3,0.2-0.4,0.5-0.4,0.8c0,0.3,0.2,0.6,0.5,0.8
				c0.3,0.2,0.8,0.3,1.4,0.5c0.5,0.1,1,0.2,1.4,0.4c0.4,0.1,0.8,0.4,1.1,0.7c0.3,0.3,0.4,0.7,0.4,1.3c0,0.7-0.3,1.3-0.8,1.8
				C155.8,370.8,155.1,371,154.1,371z M162.7,371c-0.8,0-1.4-0.2-2-0.5c-0.6-0.4-1.1-0.8-1.4-1.5c-0.3-0.6-0.5-1.3-0.5-2.2
				c0-0.8,0.2-1.6,0.5-2.2c0.3-0.6,0.8-1.1,1.4-1.5c0.6-0.4,1.3-0.5,2.1-0.5c0.8,0,1.4,0.2,2,0.5c0.6,0.3,1,0.8,1.3,1.4
				c0.3,0.6,0.4,1.2,0.4,1.8c0,0.1,0,0.2,0,0.4c0,0.1,0,0.3,0,0.4h-6.3c0,0.6,0.2,1.1,0.4,1.5c0.3,0.4,0.6,0.7,0.9,0.9
				c0.4,0.2,0.8,0.3,1.2,0.3c0.6,0,1-0.1,1.4-0.4c0.4-0.3,0.6-0.6,0.8-1h1.3c-0.2,0.7-0.6,1.3-1.2,1.8
				C164.4,370.8,163.6,371,162.7,371z M162.7,363.9c-0.6,0-1.2,0.2-1.7,0.6c-0.5,0.4-0.8,0.9-0.8,1.7h5c0-0.7-0.3-1.3-0.7-1.7
				C163.9,364.1,163.3,363.9,162.7,363.9z M176,371c-0.8,0-1.4-0.2-2-0.5c-0.6-0.4-1.1-0.8-1.4-1.5c-0.3-0.6-0.5-1.3-0.5-2.2
				c0-0.8,0.2-1.6,0.5-2.2c0.3-0.6,0.8-1.1,1.4-1.5c0.6-0.4,1.3-0.5,2.1-0.5c0.8,0,1.4,0.2,2,0.5c0.6,0.3,1,0.8,1.3,1.4
				s0.4,1.2,0.4,1.8c0,0.1,0,0.2,0,0.4c0,0.1,0,0.3,0,0.4h-6.3c0,0.6,0.2,1.1,0.4,1.5c0.3,0.4,0.6,0.7,0.9,0.9
				c0.4,0.2,0.8,0.3,1.2,0.3c0.6,0,1-0.1,1.4-0.4s0.6-0.6,0.8-1h1.3c-0.2,0.7-0.6,1.3-1.2,1.8C177.7,370.8,176.9,371,176,371z
				 M176,363.9c-0.6,0-1.2,0.2-1.7,0.6c-0.5,0.4-0.8,0.9-0.8,1.7h5c0-0.7-0.3-1.3-0.7-1.7C177.2,364.1,176.7,363.9,176,363.9z
				 M184.2,371c-0.7,0-1.2-0.1-1.6-0.3c-0.4-0.2-0.8-0.5-1-0.9c-0.2-0.4-0.3-0.8-0.3-1.2c0-0.8,0.3-1.4,0.9-1.9
				c0.6-0.4,1.5-0.7,2.5-0.7h2.1V366c0-0.7-0.2-1.2-0.5-1.6c-0.4-0.4-0.8-0.5-1.5-0.5c-0.5,0-1,0.1-1.4,0.4
				c-0.4,0.3-0.6,0.6-0.7,1.1h-1.4c0.1-0.6,0.2-1.1,0.6-1.5c0.3-0.4,0.8-0.7,1.3-0.9c0.5-0.2,1-0.3,1.6-0.3c1.1,0,1.9,0.3,2.5,0.9
				c0.6,0.6,0.8,1.4,0.8,2.4v4.9H187l-0.1-1.4c-0.2,0.4-0.6,0.8-1,1.2C185.5,370.9,184.9,371,184.2,371z M184.4,369.9
				c0.5,0,0.9-0.1,1.3-0.4c0.4-0.3,0.7-0.6,0.8-1s0.3-0.9,0.3-1.3v0h-2c-0.8,0-1.4,0.1-1.7,0.4c-0.3,0.3-0.5,0.6-0.5,1
				c0,0.4,0.1,0.8,0.4,1C183.4,369.8,183.8,369.9,184.4,369.9z M193.8,371c-0.8,0-1.4-0.2-2-0.5c-0.6-0.4-1.1-0.8-1.4-1.5
				c-0.3-0.6-0.5-1.4-0.5-2.2c0-0.8,0.2-1.6,0.5-2.2c0.4-0.6,0.8-1.1,1.4-1.5c0.6-0.4,1.3-0.5,2-0.5c0.9,0,1.7,0.2,2.4,0.7
				c0.6,0.5,1.1,1.1,1.2,2h-1.4c-0.1-0.5-0.4-0.9-0.8-1.1c-0.4-0.3-0.9-0.4-1.5-0.4c-0.4,0-0.9,0.1-1.3,0.3c-0.4,0.2-0.7,0.6-1,1
				c-0.2,0.4-0.4,1-0.4,1.7s0.1,1.2,0.4,1.7c0.2,0.4,0.6,0.8,1,1c0.4,0.2,0.8,0.3,1.3,0.3c0.6,0,1-0.1,1.5-0.4
				c0.4-0.3,0.7-0.7,0.8-1.2h1.4c-0.2,0.8-0.6,1.5-1.2,2C195.6,370.8,194.8,371,193.8,371z M199.3,370.9v-11.5h1.3v4.9
				c0.3-0.5,0.6-0.9,1.1-1.1c0.5-0.3,1-0.4,1.6-0.4c0.9,0,1.7,0.3,2.2,0.9c0.6,0.6,0.8,1.4,0.8,2.6v4.6h-1.3v-4.5
				c0-1.7-0.7-2.5-2-2.5c-0.7,0-1.3,0.3-1.7,0.8c-0.5,0.5-0.7,1.2-0.7,2.1v4.1H199.3z M216.3,371c-0.8,0-1.5-0.2-2.1-0.5
				c-0.6-0.4-1-0.9-1.4-1.5c-0.3-0.6-0.5-1.3-0.5-2.1s0.2-1.5,0.5-2.1c0.3-0.6,0.8-1.1,1.4-1.5c0.6-0.4,1.3-0.5,2.1-0.5
				c0.7,0,1.2,0.1,1.7,0.4c0.5,0.3,0.9,0.6,1.2,1.1v-4.9h1.3v11.5h-1.2l-0.1-1.3c-0.3,0.4-0.6,0.7-1.1,1
				C217.6,370.9,217,371,216.3,371z M216.5,369.9c0.5,0,1-0.1,1.4-0.4c0.4-0.3,0.7-0.6,1-1.1c0.2-0.4,0.4-1,0.4-1.6
				c0-0.6-0.1-1.1-0.4-1.6c-0.2-0.4-0.5-0.8-1-1c-0.4-0.3-0.9-0.4-1.4-0.4c-0.5,0-1,0.1-1.4,0.4c-0.4,0.2-0.7,0.6-1,1
				c-0.2,0.4-0.3,1-0.3,1.6c0,0.6,0.1,1.1,0.3,1.6c0.2,0.4,0.6,0.8,1,1.1C215.5,369.8,215.9,369.9,216.5,369.9z M225.4,371
				c-0.7,0-1.2-0.1-1.6-0.3c-0.4-0.2-0.8-0.5-1-0.9c-0.2-0.4-0.3-0.8-0.3-1.2c0-0.8,0.3-1.4,0.9-1.9c0.6-0.4,1.5-0.7,2.5-0.7h2.1
				V366c0-0.7-0.2-1.2-0.5-1.6c-0.4-0.4-0.8-0.5-1.5-0.5c-0.5,0-1,0.1-1.4,0.4c-0.4,0.3-0.6,0.6-0.7,1.1h-1.4
				c0.1-0.6,0.2-1.1,0.6-1.5c0.3-0.4,0.8-0.7,1.3-0.9c0.5-0.2,1-0.3,1.6-0.3c1.1,0,1.9,0.3,2.5,0.9c0.6,0.6,0.8,1.4,0.8,2.4v4.9
				h-1.2l-0.1-1.4c-0.2,0.4-0.6,0.8-1,1.2C226.7,370.9,226.1,371,225.4,371z M225.6,369.9c0.5,0,0.9-0.1,1.3-0.4
				c0.4-0.3,0.7-0.6,0.8-1s0.3-0.9,0.3-1.3v0h-2c-0.8,0-1.3,0.1-1.7,0.4c-0.3,0.3-0.5,0.6-0.5,1c0,0.4,0.2,0.8,0.4,1
				C224.6,369.8,225.1,369.9,225.6,369.9z M232,374.4l2-4.3h-0.5l-3.2-7.2h1.5l2.6,6.2l2.8-6.2h1.4l-5.2,11.5H232z M239.4,370.9
				c-0.3,0-0.5-0.1-0.7-0.3c-0.2-0.2-0.3-0.4-0.3-0.7c0-0.3,0.1-0.5,0.3-0.6c0.2-0.2,0.4-0.3,0.7-0.3c0.3,0,0.5,0.1,0.6,0.3
				c0.2,0.2,0.3,0.4,0.3,0.6c0,0.3-0.1,0.5-0.3,0.7C239.9,370.8,239.7,370.9,239.4,370.9z"/>
			<path class="st1" d="M30.9,147.9l-3.5-12.6h1.6l2.7,10.8l3.1-10.8h1.7l3,10.8l2.8-10.8H44l-3.5,12.6h-1.7l-3-10.4l-3.1,10.4
				L30.9,147.9z M45.6,147.9v-13h1.5v5.6c0.3-0.6,0.7-1,1.3-1.3c0.6-0.3,1.2-0.5,1.8-0.5c1,0,1.9,0.3,2.5,1c0.6,0.6,0.9,1.6,0.9,3
				v5.2h-1.5v-5.1c0-1.9-0.8-2.8-2.2-2.8c-0.8,0-1.4,0.3-2,0.8c-0.5,0.6-0.8,1.3-0.8,2.4v4.6H45.6z M56.9,136.9
				c-0.3,0-0.6-0.1-0.8-0.3c-0.2-0.2-0.3-0.5-0.3-0.8c0-0.3,0.1-0.5,0.3-0.7c0.2-0.2,0.5-0.3,0.8-0.3c0.3,0,0.5,0.1,0.7,0.3
				c0.2,0.2,0.3,0.4,0.3,0.7c0,0.3-0.1,0.6-0.3,0.8C57.4,136.8,57.2,136.9,56.9,136.9z M56.1,147.9v-8.9h1.5v8.9H56.1z M64.4,148.1
				c-0.9,0-1.6-0.2-2.3-0.6c-0.7-0.4-1.2-0.9-1.6-1.6c-0.4-0.7-0.6-1.5-0.6-2.5c0-0.9,0.2-1.8,0.6-2.4c0.4-0.7,0.9-1.3,1.6-1.6
				c0.7-0.4,1.5-0.6,2.3-0.6c1.1,0,1.9,0.3,2.7,0.8c0.7,0.6,1.2,1.3,1.4,2.2h-1.5c-0.1-0.6-0.4-1-0.9-1.3c-0.5-0.3-1-0.5-1.6-0.5
				c-0.5,0-1,0.1-1.4,0.4c-0.4,0.3-0.8,0.6-1.1,1.1s-0.4,1.1-0.4,1.9c0,0.7,0.1,1.4,0.4,1.9s0.6,0.9,1.1,1.2
				c0.4,0.3,0.9,0.4,1.4,0.4c0.6,0,1.2-0.1,1.6-0.4c0.5-0.3,0.8-0.8,0.9-1.3h1.5c-0.2,0.9-0.6,1.6-1.4,2.2
				C66.3,147.8,65.4,148.1,64.4,148.1z M70.5,147.9v-13H72v5.6c0.3-0.6,0.7-1,1.3-1.3c0.6-0.3,1.2-0.5,1.8-0.5c1,0,1.9,0.3,2.5,1
				c0.6,0.6,0.9,1.6,0.9,3v5.2H77v-5.1c0-1.9-0.8-2.8-2.2-2.8c-0.8,0-1.4,0.3-2,0.8c-0.5,0.6-0.8,1.3-0.8,2.4v4.6H70.5z M89.7,148.1
				c-0.8,0-1.6-0.2-2.3-0.6c-0.7-0.4-1.2-0.9-1.6-1.6c-0.4-0.7-0.6-1.5-0.6-2.5s0.2-1.8,0.6-2.5c0.4-0.7,0.9-1.3,1.6-1.6
				c0.7-0.4,1.4-0.6,2.3-0.6c0.8,0,1.6,0.2,2.3,0.6c0.7,0.4,1.2,0.9,1.6,1.6c0.4,0.7,0.6,1.5,0.6,2.5s-0.2,1.8-0.6,2.5
				c-0.4,0.7-0.9,1.2-1.6,1.6C91.2,147.9,90.5,148.1,89.7,148.1z M89.7,146.8c0.5,0,1-0.1,1.4-0.4c0.4-0.3,0.8-0.6,1.1-1.1
				s0.4-1.1,0.4-1.9c0-0.7-0.1-1.4-0.4-1.9c-0.3-0.5-0.6-0.9-1.1-1.1c-0.4-0.3-0.9-0.4-1.4-0.4c-0.5,0-1,0.1-1.4,0.4
				c-0.4,0.3-0.8,0.6-1.1,1.1s-0.4,1.1-0.4,1.9c0,0.7,0.1,1.4,0.4,1.9s0.6,0.9,1.1,1.1C88.7,146.6,89.1,146.8,89.7,146.8z
				 M96.7,147.9v-7.6h-1.3v-1.3h1.3v-1.5c0-0.9,0.2-1.5,0.6-1.9c0.4-0.4,1.1-0.6,1.9-0.6h0.9v1.3h-0.7c-0.5,0-0.8,0.1-1,0.3
				c-0.2,0.2-0.3,0.5-0.3,0.9v1.5h2.2v1.3h-2.2v7.6H96.7z M110.5,147.9c-0.8,0-1.5-0.2-1.9-0.6c-0.5-0.4-0.7-1.1-0.7-2.1v-4.9h-1.5
				v-1.3h1.5l0.2-2.1h1.3v2.1h2.6v1.3h-2.6v4.9c0,0.6,0.1,0.9,0.3,1.2c0.2,0.2,0.6,0.3,1.2,0.3h0.9v1.3H110.5z M114,147.9v-13h1.5
				v5.6c0.3-0.6,0.7-1,1.3-1.3c0.6-0.3,1.2-0.5,1.8-0.5c1,0,1.9,0.3,2.5,1c0.6,0.6,0.9,1.6,0.9,3v5.2h-1.5v-5.1
				c0-1.9-0.8-2.8-2.2-2.8c-0.8,0-1.4,0.3-2,0.8c-0.5,0.6-0.8,1.3-0.8,2.4v4.6H114z M128.3,148.1c-0.9,0-1.6-0.2-2.3-0.6
				c-0.7-0.4-1.2-0.9-1.6-1.6c-0.4-0.7-0.6-1.5-0.6-2.5c0-0.9,0.2-1.8,0.6-2.4c0.4-0.7,0.9-1.3,1.5-1.6c0.7-0.4,1.4-0.6,2.3-0.6
				c0.9,0,1.6,0.2,2.2,0.6c0.6,0.4,1.1,0.9,1.5,1.5c0.3,0.6,0.5,1.3,0.5,2.1c0,0.1,0,0.3,0,0.4c0,0.1,0,0.3,0,0.4h-7.1
				c0,0.7,0.2,1.3,0.5,1.7c0.3,0.4,0.6,0.8,1.1,1c0.4,0.2,0.9,0.3,1.4,0.3c0.6,0,1.1-0.1,1.6-0.4c0.4-0.3,0.7-0.7,0.9-1.2h1.5
				c-0.2,0.8-0.7,1.5-1.4,2.1C130.2,147.8,129.3,148.1,128.3,148.1z M128.3,140c-0.7,0-1.4,0.2-1.9,0.7c-0.6,0.4-0.9,1.1-1,1.9h5.6
				c0-0.8-0.3-1.4-0.8-1.9C129.7,140.2,129,140,128.3,140z M143.3,148.1c-0.9,0-1.7-0.2-2.3-0.6c-0.7-0.4-1.2-1-1.5-1.7
				c-0.4-0.7-0.5-1.5-0.5-2.4s0.2-1.7,0.6-2.4c0.4-0.7,0.9-1.3,1.5-1.7c0.7-0.4,1.4-0.6,2.3-0.6c0.7,0,1.4,0.2,1.9,0.5
				c0.6,0.3,1,0.7,1.3,1.3v-5.5h1.5v13h-1.4l-0.1-1.5c-0.3,0.4-0.7,0.8-1.2,1.2C144.8,147.9,144.1,148.1,143.3,148.1z M143.5,146.8
				c0.6,0,1.1-0.1,1.6-0.4c0.5-0.3,0.8-0.7,1.1-1.2c0.3-0.5,0.4-1.1,0.4-1.8s-0.1-1.3-0.4-1.8c-0.3-0.5-0.6-0.9-1.1-1.2
				c-0.5-0.3-1-0.4-1.6-0.4c-0.6,0-1.1,0.1-1.6,0.4c-0.5,0.3-0.8,0.7-1.1,1.2c-0.3,0.5-0.4,1.1-0.4,1.8s0.1,1.3,0.4,1.8
				c0.3,0.5,0.6,0.9,1.1,1.2C142.4,146.6,142.9,146.8,143.5,146.8z M153.5,148.1c-0.7,0-1.4-0.1-1.9-0.4c-0.5-0.3-0.9-0.6-1.1-1
				c-0.2-0.4-0.4-0.9-0.4-1.4c0-0.9,0.3-1.6,1-2.1c0.7-0.5,1.6-0.7,2.8-0.7h2.4v-0.1c0-0.8-0.2-1.4-0.6-1.8c-0.4-0.4-1-0.6-1.6-0.6
				c-0.6,0-1.1,0.1-1.5,0.5c-0.4,0.3-0.7,0.7-0.8,1.3h-1.5c0.1-0.6,0.3-1.2,0.6-1.6c0.4-0.4,0.9-0.8,1.4-1c0.6-0.2,1.2-0.4,1.8-0.4
				c1.2,0,2.2,0.3,2.8,1c0.6,0.7,1,1.5,1,2.6v5.5h-1.3l-0.1-1.6c-0.3,0.5-0.6,0.9-1.1,1.3C155,147.9,154.4,148.1,153.5,148.1z
				 M153.8,146.8c0.6,0,1.1-0.1,1.5-0.4c0.4-0.3,0.7-0.7,1-1.2c0.2-0.5,0.3-1,0.3-1.5v0h-2.3c-0.9,0-1.5,0.2-1.9,0.5
				c-0.4,0.3-0.5,0.7-0.5,1.1c0,0.5,0.2,0.8,0.5,1.1C152.7,146.7,153.1,146.8,153.8,146.8z M161.2,136.9c-0.3,0-0.6-0.1-0.8-0.3
				c-0.2-0.2-0.3-0.5-0.3-0.8c0-0.3,0.1-0.5,0.3-0.7c0.2-0.2,0.5-0.3,0.8-0.3c0.3,0,0.5,0.1,0.7,0.3c0.2,0.2,0.3,0.4,0.3,0.7
				c0,0.3-0.1,0.6-0.3,0.8C161.8,136.8,161.5,136.9,161.2,136.9z M160.5,147.9v-8.9h1.5v8.9H160.5z M164.6,147.9v-13h1.5v13H164.6z
				 M169.6,151.8l2.2-4.8h-0.5l-3.5-8.1h1.6l3,6.9l3.1-6.9h1.6l-5.9,12.9H169.6z M186.3,148.1c-0.7,0-1.4-0.1-1.9-0.4
				c-0.5-0.3-0.9-0.6-1.1-1c-0.2-0.4-0.4-0.9-0.4-1.4c0-0.9,0.3-1.6,1-2.1c0.7-0.5,1.6-0.7,2.8-0.7h2.4v-0.1c0-0.8-0.2-1.4-0.6-1.8
				c-0.4-0.4-1-0.6-1.6-0.6c-0.6,0-1.1,0.1-1.5,0.5c-0.4,0.3-0.7,0.7-0.8,1.3h-1.5c0.1-0.6,0.3-1.2,0.6-1.6c0.4-0.4,0.9-0.8,1.4-1
				c0.6-0.2,1.2-0.4,1.8-0.4c1.2,0,2.2,0.3,2.8,1c0.6,0.7,1,1.5,1,2.6v5.5h-1.4l-0.1-1.6c-0.3,0.5-0.6,0.9-1.1,1.3
				C187.8,147.9,187.2,148.1,186.3,148.1z M186.6,146.8c0.6,0,1.1-0.1,1.5-0.4c0.4-0.3,0.7-0.7,1-1.2c0.2-0.5,0.3-1,0.3-1.5v0H187
				c-0.9,0-1.5,0.2-1.9,0.5c-0.4,0.3-0.5,0.7-0.5,1.1c0,0.5,0.2,0.8,0.5,1.1C185.5,146.7,185.9,146.8,186.6,146.8z M197.2,148.1
				c-0.9,0-1.6-0.2-2.3-0.6c-0.7-0.4-1.2-0.9-1.6-1.6c-0.4-0.7-0.6-1.5-0.6-2.5c0-0.9,0.2-1.8,0.6-2.4c0.4-0.7,0.9-1.3,1.6-1.6
				c0.7-0.4,1.5-0.6,2.3-0.6c1.1,0,1.9,0.3,2.7,0.8c0.7,0.6,1.2,1.3,1.4,2.2h-1.5c-0.1-0.6-0.4-1-0.9-1.3c-0.5-0.3-1-0.5-1.6-0.5
				c-0.5,0-1,0.1-1.4,0.4c-0.4,0.3-0.8,0.6-1.1,1.1s-0.4,1.1-0.4,1.9c0,0.7,0.1,1.4,0.4,1.9s0.6,0.9,1.1,1.2
				c0.4,0.3,0.9,0.4,1.4,0.4c0.6,0,1.2-0.1,1.6-0.4c0.5-0.3,0.8-0.8,0.9-1.3h1.5c-0.2,0.9-0.6,1.6-1.4,2.2
				C199.2,147.8,198.3,148.1,197.2,148.1z M206.7,147.9c-0.8,0-1.5-0.2-1.9-0.6s-0.7-1.1-0.7-2.1v-4.9h-1.5v-1.3h1.5l0.2-2.1h1.3
				v2.1h2.6v1.3h-2.6v4.9c0,0.6,0.1,0.9,0.3,1.2c0.2,0.2,0.6,0.3,1.2,0.3h0.9v1.3H206.7z M211,136.9c-0.3,0-0.6-0.1-0.8-0.3
				c-0.2-0.2-0.3-0.5-0.3-0.8c0-0.3,0.1-0.5,0.3-0.7c0.2-0.2,0.5-0.3,0.8-0.3c0.3,0,0.5,0.1,0.7,0.3c0.2,0.2,0.3,0.4,0.3,0.7
				c0,0.3-0.1,0.6-0.3,0.8C211.5,136.8,211.3,136.9,211,136.9z M210.2,147.9v-8.9h1.5v8.9H210.2z M217,147.9l-3.4-8.9h1.6l2.7,7.5
				l2.7-7.5h1.5l-3.4,8.9H217z M224.7,136.9c-0.3,0-0.6-0.1-0.8-0.3c-0.2-0.2-0.3-0.5-0.3-0.8c0-0.3,0.1-0.5,0.3-0.7
				c0.2-0.2,0.5-0.3,0.8-0.3c0.3,0,0.5,0.1,0.7,0.3c0.2,0.2,0.3,0.4,0.3,0.7c0,0.3-0.1,0.6-0.3,0.8
				C225.2,136.8,225,136.9,224.7,136.9z M223.9,147.9v-8.9h1.5v8.9H223.9z M231.6,147.9c-0.8,0-1.5-0.2-1.9-0.6s-0.7-1.1-0.7-2.1
				v-4.9h-1.5v-1.3h1.5l0.2-2.1h1.3v2.1h2.6v1.3h-2.6v4.9c0,0.6,0.1,0.9,0.3,1.2c0.2,0.2,0.6,0.3,1.2,0.3h0.9v1.3H231.6z M236,136.9
				c-0.3,0-0.6-0.1-0.8-0.3c-0.2-0.2-0.3-0.5-0.3-0.8c0-0.3,0.1-0.5,0.3-0.7c0.2-0.2,0.5-0.3,0.8-0.3c0.3,0,0.5,0.1,0.7,0.3
				c0.2,0.2,0.3,0.4,0.3,0.7c0,0.3-0.1,0.6-0.3,0.8C236.5,136.8,236.3,136.9,236,136.9z M235.2,147.9v-8.9h1.5v8.9H235.2z
				 M243.4,148.1c-0.9,0-1.6-0.2-2.3-0.6c-0.7-0.4-1.2-0.9-1.6-1.6c-0.4-0.7-0.6-1.5-0.6-2.5c0-0.9,0.2-1.8,0.6-2.4
				c0.4-0.7,0.9-1.3,1.5-1.6c0.7-0.4,1.4-0.6,2.3-0.6c0.9,0,1.6,0.2,2.2,0.6c0.6,0.4,1.1,0.9,1.5,1.5c0.3,0.6,0.5,1.3,0.5,2.1
				c0,0.1,0,0.3,0,0.4c0,0.1,0,0.3,0,0.4h-7.1c0,0.7,0.2,1.3,0.5,1.7c0.3,0.4,0.6,0.8,1.1,1c0.4,0.2,0.9,0.3,1.4,0.3
				c0.6,0,1.1-0.1,1.6-0.4c0.4-0.3,0.7-0.7,0.9-1.2h1.5c-0.2,0.8-0.7,1.5-1.4,2.1C245.3,147.8,244.4,148.1,243.4,148.1z M243.4,140
				c-0.7,0-1.4,0.2-1.9,0.7c-0.6,0.4-0.9,1.1-1,1.9h5.6c0-0.8-0.3-1.4-0.8-1.9C244.8,140.2,244.1,140,243.4,140z M253,148.1
				c-1.1,0-2-0.3-2.7-0.8c-0.7-0.5-1.1-1.3-1.2-2.2h1.5c0.1,0.5,0.3,0.9,0.7,1.2c0.4,0.3,1,0.5,1.6,0.5c0.6,0,1.1-0.1,1.4-0.4
				c0.3-0.3,0.4-0.6,0.4-1c0-0.5-0.2-0.9-0.6-1.1c-0.4-0.2-0.9-0.3-1.6-0.5c-0.5-0.1-1-0.2-1.4-0.4c-0.5-0.2-0.9-0.4-1.2-0.8
				c-0.3-0.3-0.5-0.8-0.5-1.3c0-0.8,0.3-1.4,0.9-1.9c0.6-0.5,1.4-0.8,2.4-0.8c0.9,0,1.7,0.2,2.3,0.7c0.6,0.5,1,1.1,1.1,2h-1.5
				c-0.1-0.5-0.3-0.8-0.6-1.1c-0.3-0.3-0.8-0.4-1.3-0.4c-0.5,0-1,0.1-1.3,0.3c-0.3,0.2-0.4,0.5-0.4,0.9c0,0.4,0.2,0.6,0.6,0.8
				c0.4,0.2,0.9,0.4,1.5,0.5c0.6,0.1,1.1,0.3,1.6,0.5c0.5,0.2,0.9,0.4,1.2,0.8c0.3,0.3,0.5,0.8,0.5,1.5c0,0.8-0.3,1.5-0.9,2
				C254.9,147.8,254.1,148.1,253,148.1z M264.3,136.9c-0.3,0-0.6-0.1-0.8-0.3c-0.2-0.2-0.3-0.5-0.3-0.8c0-0.3,0.1-0.5,0.3-0.7
				c0.2-0.2,0.5-0.3,0.8-0.3c0.3,0,0.5,0.1,0.7,0.3c0.2,0.2,0.3,0.4,0.3,0.7c0,0.3-0.1,0.6-0.3,0.8
				C264.8,136.8,264.6,136.9,264.3,136.9z M263.5,147.9v-8.9h1.5v8.9H263.5z M267.7,147.9v-8.9h1.4l0.1,1.6c0.3-0.6,0.7-1,1.2-1.3
				c0.5-0.3,1.2-0.5,1.8-0.5c1.1,0,1.9,0.3,2.5,1c0.6,0.6,1,1.6,1,3v5.2h-1.5v-5.1c0-1.9-0.8-2.8-2.3-2.8c-0.8,0-1.4,0.3-1.9,0.8
				c-0.5,0.6-0.8,1.3-0.8,2.4v4.6H267.7z M286.3,147.9c-0.8,0-1.5-0.2-1.9-0.6c-0.5-0.4-0.7-1.1-0.7-2.1v-4.9h-1.5v-1.3h1.5l0.2-2.1
				h1.3v2.1h2.6v1.3h-2.6v4.9c0,0.6,0.1,0.9,0.3,1.2c0.2,0.2,0.6,0.3,1.2,0.3h0.9v1.3H286.3z M289.7,147.9v-13h1.5v5.6
				c0.3-0.6,0.7-1,1.3-1.3c0.6-0.3,1.2-0.5,1.8-0.5c1,0,1.9,0.3,2.5,1c0.6,0.6,0.9,1.6,0.9,3v5.2h-1.5v-5.1c0-1.9-0.8-2.8-2.2-2.8
				c-0.8,0-1.4,0.3-2,0.8c-0.5,0.6-0.8,1.3-0.8,2.4v4.6H289.7z M300.9,136.9c-0.3,0-0.6-0.1-0.8-0.3c-0.2-0.2-0.3-0.5-0.3-0.8
				c0-0.3,0.1-0.5,0.3-0.7c0.2-0.2,0.5-0.3,0.8-0.3c0.3,0,0.5,0.1,0.7,0.3c0.2,0.2,0.3,0.4,0.3,0.7c0,0.3-0.1,0.6-0.3,0.8
				C301.5,136.8,301.2,136.9,300.9,136.9z M300.2,147.9v-8.9h1.5v8.9H300.2z M307.7,148.1c-1.1,0-2-0.3-2.7-0.8
				c-0.7-0.5-1.1-1.3-1.2-2.2h1.5c0.1,0.5,0.3,0.9,0.7,1.2c0.4,0.3,1,0.5,1.6,0.5c0.6,0,1.1-0.1,1.4-0.4c0.3-0.3,0.4-0.6,0.4-1
				c0-0.5-0.2-0.9-0.6-1.1c-0.4-0.2-0.9-0.3-1.6-0.5c-0.5-0.1-1-0.2-1.4-0.4c-0.5-0.2-0.9-0.4-1.2-0.8c-0.3-0.3-0.5-0.8-0.5-1.3
				c0-0.8,0.3-1.4,0.9-1.9c0.6-0.5,1.4-0.8,2.4-0.8c0.9,0,1.7,0.2,2.3,0.7c0.6,0.5,1,1.1,1.1,2h-1.5c-0.1-0.5-0.3-0.8-0.6-1.1
				c-0.3-0.3-0.8-0.4-1.3-0.4c-0.5,0-1,0.1-1.3,0.3c-0.3,0.2-0.4,0.5-0.4,0.9c0,0.4,0.2,0.6,0.6,0.8c0.4,0.2,0.9,0.4,1.5,0.5
				c0.6,0.1,1.1,0.3,1.6,0.5c0.5,0.2,0.9,0.4,1.2,0.8c0.3,0.3,0.5,0.8,0.5,1.5c0,0.8-0.3,1.5-0.9,2
				C309.6,147.8,308.8,148.1,307.7,148.1z M28.2,171.9v-8.9h1.4l0.1,1.3c0.3-0.5,0.7-0.9,1.2-1.1c0.5-0.3,1-0.4,1.6-0.4
				c0.7,0,1.3,0.1,1.8,0.4c0.5,0.3,0.9,0.7,1.2,1.3c0.3-0.5,0.7-1,1.3-1.3c0.6-0.3,1.1-0.5,1.8-0.5c1.1,0,1.9,0.3,2.6,1
				c0.6,0.6,1,1.6,1,3v5.2h-1.5v-5.1c0-0.9-0.2-1.6-0.6-2.1c-0.4-0.5-0.9-0.7-1.6-0.7c-0.7,0-1.3,0.3-1.8,0.8
				c-0.5,0.6-0.7,1.3-0.7,2.4v4.6h-1.5v-5.1c0-0.9-0.2-1.6-0.6-2.1c-0.4-0.5-0.9-0.7-1.6-0.7c-0.7,0-1.3,0.3-1.8,0.8
				c-0.5,0.6-0.7,1.3-0.7,2.4v4.6H28.2z M48.4,172.1c-0.8,0-1.6-0.2-2.3-0.6c-0.7-0.4-1.2-0.9-1.6-1.6c-0.4-0.7-0.6-1.5-0.6-2.5
				s0.2-1.8,0.6-2.5c0.4-0.7,0.9-1.3,1.6-1.6c0.7-0.4,1.4-0.6,2.3-0.6c0.8,0,1.6,0.2,2.3,0.6c0.7,0.4,1.2,0.9,1.6,1.6
				c0.4,0.7,0.6,1.5,0.6,2.5s-0.2,1.8-0.6,2.5c-0.4,0.7-0.9,1.2-1.6,1.6C50,171.9,49.3,172.1,48.4,172.1z M48.4,170.8
				c0.5,0,1-0.1,1.4-0.4c0.4-0.3,0.8-0.6,1.1-1.1s0.4-1.1,0.4-1.9c0-0.7-0.1-1.4-0.4-1.9c-0.3-0.5-0.6-0.9-1.1-1.1
				c-0.4-0.3-0.9-0.4-1.4-0.4c-0.5,0-1,0.1-1.4,0.4c-0.4,0.3-0.8,0.6-1.1,1.1c-0.3,0.5-0.4,1.1-0.4,1.9c0,0.7,0.1,1.4,0.4,1.9
				c0.3,0.5,0.6,0.9,1.1,1.1C47.4,170.6,47.9,170.8,48.4,170.8z M59,172.1c-0.9,0-1.7-0.2-2.3-0.6c-0.7-0.4-1.2-1-1.5-1.7
				c-0.4-0.7-0.5-1.5-0.5-2.4s0.2-1.7,0.6-2.4c0.4-0.7,0.9-1.3,1.5-1.7c0.7-0.4,1.4-0.6,2.3-0.6c0.7,0,1.4,0.2,1.9,0.5
				c0.6,0.3,1,0.7,1.3,1.3v-5.5h1.5v13h-1.4l-0.1-1.5c-0.3,0.4-0.7,0.8-1.2,1.2S59.9,172.1,59,172.1z M59.2,170.8
				c0.6,0,1.1-0.1,1.6-0.4c0.5-0.3,0.8-0.7,1.1-1.2c0.3-0.5,0.4-1.1,0.4-1.8s-0.1-1.3-0.4-1.8c-0.3-0.5-0.6-0.9-1.1-1.2
				c-0.5-0.3-1-0.4-1.6-0.4c-0.6,0-1.1,0.1-1.6,0.4c-0.5,0.3-0.8,0.7-1.1,1.2c-0.3,0.5-0.4,1.1-0.4,1.8s0.1,1.3,0.4,1.8
				c0.3,0.5,0.6,0.9,1.1,1.2C58.1,170.6,58.6,170.8,59.2,170.8z M69.6,172.1c-1.1,0-1.9-0.3-2.5-1c-0.6-0.6-0.9-1.6-0.9-3v-5.2h1.5
				v5.1c0,1.9,0.8,2.8,2.3,2.8c0.8,0,1.4-0.3,1.9-0.8c0.5-0.6,0.8-1.4,0.8-2.4v-4.6h1.5v8.9h-1.4l-0.1-1.6c-0.3,0.6-0.7,1-1.2,1.3
				C70.9,171.9,70.2,172.1,69.6,172.1z M76.6,171.9v-13h1.5v13H76.6z M84.6,172.1c-0.9,0-1.6-0.2-2.3-0.6c-0.7-0.4-1.2-0.9-1.6-1.6
				c-0.4-0.7-0.6-1.5-0.6-2.5c0-0.9,0.2-1.8,0.6-2.4c0.4-0.7,0.9-1.3,1.5-1.6c0.7-0.4,1.4-0.6,2.3-0.6c0.9,0,1.6,0.2,2.2,0.6
				c0.6,0.4,1.1,0.9,1.5,1.5c0.3,0.6,0.5,1.3,0.5,2.1c0,0.1,0,0.3,0,0.4c0,0.1,0,0.3,0,0.4h-7.1c0,0.7,0.2,1.3,0.5,1.7
				c0.3,0.4,0.6,0.8,1.1,1c0.4,0.2,0.9,0.3,1.4,0.3c0.6,0,1.1-0.1,1.6-0.4c0.4-0.3,0.7-0.7,0.9-1.2h1.5c-0.2,0.8-0.7,1.5-1.4,2.1
				C86.5,171.8,85.7,172.1,84.6,172.1z M84.6,164c-0.7,0-1.4,0.2-1.9,0.7c-0.6,0.4-0.9,1.1-1,1.9h5.6c0-0.8-0.3-1.4-0.8-1.9
				S85.4,164,84.6,164z M97.4,171.9l-2.6-8.9h1.5l1.9,7l2.1-7h1.7l2.1,7l1.9-7h1.5l-2.6,8.9h-1.5l-2.2-7.4l-2.2,7.4H97.4z
				 M111.8,172.1c-0.7,0-1.4-0.1-1.9-0.4c-0.5-0.3-0.9-0.6-1.1-1c-0.2-0.4-0.4-0.9-0.4-1.4c0-0.9,0.3-1.6,1-2.1
				c0.7-0.5,1.6-0.7,2.8-0.7h2.4v-0.1c0-0.8-0.2-1.4-0.6-1.8c-0.4-0.4-1-0.6-1.6-0.6c-0.6,0-1.1,0.1-1.5,0.5
				c-0.4,0.3-0.7,0.7-0.8,1.3h-1.5c0.1-0.6,0.3-1.2,0.6-1.6c0.4-0.4,0.9-0.8,1.4-1c0.6-0.2,1.2-0.4,1.8-0.4c1.2,0,2.2,0.3,2.8,1
				c0.6,0.7,1,1.5,1,2.6v5.5H115l-0.1-1.6c-0.3,0.5-0.6,0.9-1.1,1.3C113.3,171.9,112.6,172.1,111.8,172.1z M112.1,170.8
				c0.6,0,1.1-0.1,1.5-0.4c0.4-0.3,0.7-0.7,1-1.2c0.2-0.5,0.3-1,0.3-1.5v0h-2.3c-0.9,0-1.5,0.2-1.9,0.5c-0.4,0.3-0.5,0.7-0.5,1.1
				c0,0.5,0.2,0.8,0.5,1.1C110.9,170.7,111.4,170.8,112.1,170.8z M122,172.1c-1.1,0-2-0.3-2.7-0.8c-0.7-0.5-1.1-1.3-1.2-2.2h1.5
				c0.1,0.5,0.3,0.9,0.7,1.2c0.4,0.3,1,0.5,1.6,0.5c0.6,0,1.1-0.1,1.4-0.4c0.3-0.3,0.4-0.6,0.4-1c0-0.5-0.2-0.9-0.6-1.1
				c-0.4-0.2-0.9-0.3-1.6-0.5c-0.5-0.1-1-0.2-1.4-0.4c-0.5-0.2-0.9-0.4-1.2-0.8c-0.3-0.3-0.5-0.8-0.5-1.3c0-0.8,0.3-1.4,0.9-1.9
				c0.6-0.5,1.4-0.8,2.4-0.8c0.9,0,1.7,0.2,2.3,0.7c0.6,0.5,1,1.1,1.1,2h-1.5c-0.1-0.5-0.3-0.8-0.6-1.1c-0.3-0.3-0.8-0.4-1.3-0.4
				c-0.5,0-1,0.1-1.3,0.3c-0.3,0.2-0.4,0.5-0.4,0.9c0,0.4,0.2,0.6,0.6,0.8c0.4,0.2,0.9,0.4,1.5,0.5c0.6,0.1,1.1,0.3,1.6,0.5
				c0.5,0.2,0.9,0.4,1.2,0.8c0.3,0.3,0.5,0.8,0.5,1.5c0,0.8-0.3,1.5-0.9,2C123.9,171.8,123.1,172.1,122,172.1z M132.4,171.9v-8.9
				h1.4l0.1,1.3c0.3-0.5,0.7-0.9,1.2-1.1c0.5-0.3,1-0.4,1.6-0.4c0.7,0,1.3,0.1,1.8,0.4c0.5,0.3,0.9,0.7,1.2,1.3
				c0.3-0.5,0.7-1,1.3-1.3c0.6-0.3,1.1-0.5,1.8-0.5c1.1,0,1.9,0.3,2.6,1c0.6,0.6,1,1.6,1,3v5.2h-1.5v-5.1c0-0.9-0.2-1.6-0.6-2.1
				c-0.4-0.5-0.9-0.7-1.6-0.7c-0.7,0-1.3,0.3-1.8,0.8c-0.5,0.6-0.7,1.3-0.7,2.4v4.6h-1.5v-5.1c0-0.9-0.2-1.6-0.6-2.1
				c-0.4-0.5-0.9-0.7-1.6-0.7c-0.7,0-1.3,0.3-1.8,0.8c-0.5,0.6-0.7,1.3-0.7,2.4v4.6H132.4z M152.5,172.1c-0.8,0-1.6-0.2-2.3-0.6
				c-0.7-0.4-1.2-0.9-1.6-1.6c-0.4-0.7-0.6-1.5-0.6-2.5s0.2-1.8,0.6-2.5c0.4-0.7,0.9-1.3,1.6-1.6c0.7-0.4,1.4-0.6,2.3-0.6
				s1.6,0.2,2.3,0.6c0.7,0.4,1.2,0.9,1.6,1.6c0.4,0.7,0.6,1.5,0.6,2.5s-0.2,1.8-0.6,2.5c-0.4,0.7-0.9,1.2-1.6,1.6
				C154.1,171.9,153.4,172.1,152.5,172.1z M152.5,170.8c0.5,0,1-0.1,1.4-0.4c0.4-0.3,0.8-0.6,1.1-1.1s0.4-1.1,0.4-1.9
				c0-0.7-0.1-1.4-0.4-1.9c-0.3-0.5-0.6-0.9-1.1-1.1c-0.4-0.3-0.9-0.4-1.4-0.4c-0.5,0-1,0.1-1.4,0.4c-0.4,0.3-0.8,0.6-1.1,1.1
				s-0.4,1.1-0.4,1.9c0,0.7,0.1,1.4,0.4,1.9s0.6,0.9,1.1,1.1C151.5,170.6,152,170.8,152.5,170.8z M162.5,172.1c-1.1,0-2-0.3-2.7-0.8
				c-0.7-0.5-1.1-1.3-1.2-2.2h1.5c0.1,0.5,0.3,0.9,0.7,1.2c0.4,0.3,1,0.5,1.6,0.5c0.6,0,1.1-0.1,1.4-0.4c0.3-0.3,0.4-0.6,0.4-1
				c0-0.5-0.2-0.9-0.6-1.1c-0.4-0.2-0.9-0.3-1.6-0.5c-0.5-0.1-1-0.2-1.4-0.4s-0.9-0.4-1.2-0.8c-0.3-0.3-0.5-0.8-0.5-1.3
				c0-0.8,0.3-1.4,0.9-1.9c0.6-0.5,1.4-0.8,2.4-0.8c0.9,0,1.7,0.2,2.3,0.7c0.6,0.5,1,1.1,1.1,2h-1.5c-0.1-0.5-0.3-0.8-0.6-1.1
				c-0.3-0.3-0.8-0.4-1.3-0.4c-0.5,0-1,0.1-1.3,0.3c-0.3,0.2-0.4,0.5-0.4,0.9c0,0.4,0.2,0.6,0.6,0.8c0.4,0.2,0.9,0.4,1.5,0.5
				c0.6,0.1,1.1,0.3,1.6,0.5c0.5,0.2,0.9,0.4,1.2,0.8c0.3,0.3,0.5,0.8,0.5,1.5c0,0.8-0.3,1.5-0.9,2
				C164.4,171.8,163.6,172.1,162.5,172.1z M171.2,171.9c-0.8,0-1.5-0.2-1.9-0.6c-0.5-0.4-0.7-1.1-0.7-2.1v-4.9h-1.5v-1.3h1.5
				l0.2-2.1h1.3v2.1h2.6v1.3h-2.6v4.9c0,0.6,0.1,0.9,0.3,1.2c0.2,0.2,0.6,0.3,1.2,0.3h0.9v1.3H171.2z M179.4,171.9v-8.9h1.4l0.1,1.7
				c0.3-0.6,0.7-1.1,1.3-1.4c0.6-0.3,1.3-0.5,2.1-0.5v1.6h-0.4c-0.5,0-1,0.1-1.5,0.3c-0.4,0.2-0.8,0.5-1.1,0.9
				c-0.3,0.4-0.4,1.1-0.4,1.8v4.5H179.4z M189.7,172.1c-0.9,0-1.6-0.2-2.3-0.6c-0.7-0.4-1.2-0.9-1.6-1.6c-0.4-0.7-0.6-1.5-0.6-2.5
				c0-0.9,0.2-1.8,0.6-2.4c0.4-0.7,0.9-1.3,1.5-1.6c0.7-0.4,1.4-0.6,2.3-0.6c0.9,0,1.6,0.2,2.2,0.6c0.6,0.4,1.1,0.9,1.5,1.5
				c0.3,0.6,0.5,1.3,0.5,2.1c0,0.1,0,0.3,0,0.4c0,0.1,0,0.3,0,0.4h-7.1c0,0.7,0.2,1.3,0.5,1.7c0.3,0.4,0.6,0.8,1.1,1
				c0.4,0.2,0.9,0.3,1.4,0.3c0.6,0,1.1-0.1,1.6-0.4c0.4-0.3,0.7-0.7,0.9-1.2h1.5c-0.2,0.8-0.7,1.5-1.4,2.1
				C191.6,171.8,190.7,172.1,189.7,172.1z M189.7,164c-0.7,0-1.4,0.2-1.9,0.7c-0.6,0.4-0.9,1.1-1,1.9h5.6c0-0.8-0.3-1.4-0.8-1.9
				C191,164.2,190.4,164,189.7,164z M195.9,171.9v-13h1.5v13H195.9z M203.9,172.1c-0.9,0-1.6-0.2-2.3-0.6c-0.7-0.4-1.2-0.9-1.6-1.6
				c-0.4-0.7-0.6-1.5-0.6-2.5c0-0.9,0.2-1.8,0.6-2.4c0.4-0.7,0.9-1.3,1.5-1.6c0.7-0.4,1.4-0.6,2.3-0.6c0.9,0,1.6,0.2,2.2,0.6
				c0.6,0.4,1.1,0.9,1.5,1.5c0.3,0.6,0.5,1.3,0.5,2.1c0,0.1,0,0.3,0,0.4c0,0.1,0,0.3,0,0.4H201c0,0.7,0.2,1.3,0.5,1.7
				c0.3,0.4,0.6,0.8,1.1,1c0.4,0.2,0.9,0.3,1.4,0.3c0.6,0,1.1-0.1,1.6-0.4c0.4-0.3,0.7-0.7,0.9-1.2h1.5c-0.2,0.8-0.7,1.5-1.4,2.1
				C205.8,171.8,204.9,172.1,203.9,172.1z M203.9,164c-0.7,0-1.4,0.2-1.9,0.7c-0.6,0.4-0.9,1.1-1,1.9h5.6c0-0.8-0.3-1.4-0.8-1.9
				C205.3,164.2,204.6,164,203.9,164z M212.3,171.9l-3.4-8.9h1.6l2.7,7.5l2.7-7.5h1.5l-3.4,8.9H212.3z M221.7,172.1
				c-0.7,0-1.4-0.1-1.9-0.4c-0.5-0.3-0.9-0.6-1.1-1c-0.2-0.4-0.4-0.9-0.4-1.4c0-0.9,0.3-1.6,1-2.1c0.7-0.5,1.6-0.7,2.8-0.7h2.4v-0.1
				c0-0.8-0.2-1.4-0.6-1.8c-0.4-0.4-1-0.6-1.6-0.6c-0.6,0-1.1,0.1-1.5,0.5c-0.4,0.3-0.7,0.7-0.8,1.3h-1.5c0.1-0.6,0.3-1.2,0.6-1.6
				c0.4-0.4,0.9-0.8,1.4-1c0.6-0.2,1.2-0.4,1.8-0.4c1.2,0,2.2,0.3,2.8,1c0.6,0.7,1,1.5,1,2.6v5.5h-1.4l-0.1-1.6
				c-0.3,0.5-0.6,0.9-1.1,1.3C223.1,171.9,222.5,172.1,221.7,172.1z M221.9,170.8c0.6,0,1.1-0.1,1.5-0.4c0.4-0.3,0.7-0.7,1-1.2
				c0.2-0.5,0.3-1,0.3-1.5v0h-2.3c-0.9,0-1.5,0.2-1.9,0.5c-0.4,0.3-0.5,0.7-0.5,1.1c0,0.5,0.2,0.8,0.5,1.1
				C220.8,170.7,221.3,170.8,221.9,170.8z M228.4,171.9v-8.9h1.4l0.1,1.6c0.3-0.6,0.7-1,1.2-1.3c0.5-0.3,1.2-0.5,1.8-0.5
				c1.1,0,1.9,0.3,2.5,1c0.6,0.6,1,1.6,1,3v5.2h-1.5v-5.1c0-1.9-0.8-2.8-2.3-2.8c-0.8,0-1.4,0.3-1.9,0.8c-0.5,0.6-0.8,1.3-0.8,2.4
				v4.6H228.4z M242.3,171.9c-0.8,0-1.5-0.2-1.9-0.6c-0.5-0.4-0.7-1.1-0.7-2.1v-4.9h-1.5v-1.3h1.5l0.2-2.1h1.3v2.1h2.6v1.3h-2.6v4.9
				c0,0.6,0.1,0.9,0.3,1.2c0.2,0.2,0.6,0.3,1.2,0.3h0.9v1.3H242.3z M254,171.9c-0.8,0-1.5-0.2-1.9-0.6c-0.5-0.4-0.7-1.1-0.7-2.1
				v-4.9h-1.5v-1.3h1.5l0.2-2.1h1.3v2.1h2.6v1.3h-2.6v4.9c0,0.6,0.1,0.9,0.3,1.2c0.2,0.2,0.6,0.3,1.2,0.3h0.9v1.3H254z M261.2,172.1
				c-0.8,0-1.6-0.2-2.3-0.6c-0.7-0.4-1.2-0.9-1.6-1.6c-0.4-0.7-0.6-1.5-0.6-2.5s0.2-1.8,0.6-2.5c0.4-0.7,0.9-1.3,1.6-1.6
				c0.7-0.4,1.4-0.6,2.3-0.6s1.6,0.2,2.3,0.6s1.2,0.9,1.6,1.6c0.4,0.7,0.6,1.5,0.6,2.5s-0.2,1.8-0.6,2.5c-0.4,0.7-0.9,1.2-1.6,1.6
				C262.8,171.9,262.1,172.1,261.2,172.1z M261.2,170.8c0.5,0,1-0.1,1.4-0.4c0.4-0.3,0.8-0.6,1.1-1.1s0.4-1.1,0.4-1.9
				c0-0.7-0.1-1.4-0.4-1.9c-0.3-0.5-0.6-0.9-1.1-1.1c-0.4-0.3-0.9-0.4-1.4-0.4c-0.5,0-1,0.1-1.4,0.4c-0.4,0.3-0.8,0.6-1.1,1.1
				s-0.4,1.1-0.4,1.9c0,0.7,0.1,1.4,0.4,1.9s0.6,0.9,1.1,1.1C260.3,170.6,260.7,170.8,261.2,170.8z M273.6,175.8l2.2-4.8h-0.5
				l-3.5-8.1h1.6l3,6.9l3.1-6.9h1.6l-5.9,12.9H273.6z M285.8,172.1c-0.8,0-1.6-0.2-2.3-0.6c-0.7-0.4-1.2-0.9-1.6-1.6
				c-0.4-0.7-0.6-1.5-0.6-2.5s0.2-1.8,0.6-2.5c0.4-0.7,0.9-1.3,1.6-1.6c0.7-0.4,1.4-0.6,2.3-0.6s1.6,0.2,2.3,0.6s1.2,0.9,1.6,1.6
				c0.4,0.7,0.6,1.5,0.6,2.5s-0.2,1.8-0.6,2.5c-0.4,0.7-0.9,1.2-1.6,1.6C287.4,171.9,286.7,172.1,285.8,172.1z M285.8,170.8
				c0.5,0,1-0.1,1.4-0.4c0.4-0.3,0.8-0.6,1.1-1.1s0.4-1.1,0.4-1.9c0-0.7-0.1-1.4-0.4-1.9c-0.3-0.5-0.6-0.9-1.1-1.1
				c-0.4-0.3-0.9-0.4-1.4-0.4c-0.5,0-1,0.1-1.4,0.4c-0.4,0.3-0.8,0.6-1.1,1.1s-0.4,1.1-0.4,1.9c0,0.7,0.1,1.4,0.4,1.9
				s0.6,0.9,1.1,1.1C284.8,170.6,285.3,170.8,285.8,170.8z M295.7,172.1c-1.1,0-1.9-0.3-2.5-1c-0.6-0.6-0.9-1.6-0.9-3v-5.2h1.5v5.1
				c0,1.9,0.8,2.8,2.3,2.8c0.8,0,1.4-0.3,1.9-0.8c0.5-0.6,0.8-1.4,0.8-2.4v-4.6h1.5v8.9h-1.4l-0.1-1.6c-0.3,0.6-0.7,1-1.2,1.3
				C297,171.9,296.3,172.1,295.7,172.1z M304.2,168.3l-0.1-2.9h0.6c0.7,0,1.3-0.1,1.9-0.2c0.6-0.1,1.1-0.4,1.4-0.8
				c0.4-0.4,0.5-1,0.5-1.7c0-0.7-0.2-1.3-0.7-1.8c-0.5-0.4-1.1-0.6-1.8-0.6c-0.8,0-1.4,0.2-1.8,0.6c-0.4,0.4-0.7,1-0.7,1.7h-1.4
				c0-0.7,0.2-1.4,0.5-1.9c0.3-0.5,0.8-1,1.4-1.3s1.3-0.5,2.1-0.5s1.5,0.2,2.1,0.5s1.1,0.7,1.4,1.3s0.5,1.2,0.5,2
				c0,0.9-0.2,1.6-0.6,2.2c-0.4,0.6-0.9,1-1.6,1.2c-0.7,0.3-1.4,0.4-2.3,0.4l-0.1,1.9H304.2z M304.8,171.9c-0.3,0-0.6-0.1-0.8-0.3
				c-0.2-0.2-0.3-0.5-0.3-0.7s0.1-0.5,0.3-0.7c0.2-0.2,0.5-0.3,0.8-0.3c0.3,0,0.5,0.1,0.7,0.3c0.2,0.2,0.3,0.4,0.3,0.7
				s-0.1,0.5-0.3,0.7C305.4,171.8,305.1,171.9,304.8,171.9z"/>
			<g>
				<defs>
					<rect id="SVGID_1_" x="29" y="198.9" width="237" height="109"/>
				</defs>
				<clipPath id="SVGID_2_">
					<use xlink:href="#SVGID_1_"  style="overflow:visible;"/>
				</clipPath>
				<g class="st2">
					<path class="st3" d="M57.7,213.2c0.2,7.8-5.6,13.5-13.4,13.5S29,222.2,29,214.4c0-7.8,6.8-16.1,14.8-15.5
						C51.6,199.5,57.4,204.4,57.7,213.2z"/>
					<path class="st0" d="M40.6,220.1c-0.4,0-0.8-0.1-1.1-0.4l0,0l-4.1-3.7c-0.4-0.4-0.5-1.1-0.1-1.5c0.4-0.4,1.1-0.5,1.5-0.1
						l3.7,3.3l9.5-12c0.4-0.5,1-0.5,1.5-0.2c0.5,0.4,0.5,1,0.2,1.5l-9.8,12.4C41.5,219.9,41.1,220.1,40.6,220.1z"/>
					<path class="st3" d="M57.7,253.8c0.2,7.8-5.6,13.5-13.4,13.5c-7.8,0-15.3-4.5-15.3-12.3c0-7.8,6.8-16.1,14.8-15.5
						C51.6,240.1,57.4,245,57.7,253.8z"/>
					<path class="st0" d="M40.6,260.7c-0.4,0-0.8-0.1-1.1-0.4l0,0l-4.1-3.7c-0.4-0.4-0.5-1.1-0.1-1.5c0.4-0.4,1.1-0.5,1.5-0.1
						l3.7,3.3l9.5-12c0.4-0.5,1-0.5,1.5-0.2c0.5,0.4,0.5,1,0.2,1.5l-9.8,12.4C41.5,260.5,41.1,260.7,40.6,260.7z"/>
					<path class="st3" d="M57.7,294.4c0.2,7.8-5.6,13.5-13.4,13.5c-7.8,0-15.3-4.5-15.3-12.3c0-7.8,6.8-16.1,14.8-15.5
						C51.6,280.7,57.4,285.6,57.7,294.4z"/>
					<path class="st0" d="M40.6,301.3c-0.4,0-0.8-0.1-1.1-0.4l0,0l-4.1-3.7c-0.4-0.4-0.5-1.1-0.1-1.5c0.4-0.4,1.1-0.5,1.5-0.1
						l3.7,3.3l9.5-12c0.4-0.5,1-0.5,1.5-0.2c0.5,0.4,0.5,1,0.2,1.5l-9.8,12.4C41.5,301.1,41.1,301.3,40.6,301.3z"/>
					<path class="st3" d="M72.9,203.9c0.1-0.1,0.4-0.2,1.1-0.2c0.8,0,1.3,0.1,1.6,0.2c0.5,0.2,0.9,0.6,1.1,1
						c0.2,0.4,0.4,1.1,0.5,2.1c0.1,0.8,0.1,1.4,0.1,1.7c0,1.6-0.4,2.9-1.1,4c-0.1,0.2,0,0.4,0.2,0.8c0.2,0.4,0.4,0.7,0.5,0.9
						c0.1,0.3,0.4,0.8,0.8,1.5c0.8,1.4,1.1,2.4,1.1,3c0,0.3-0.1,0.6-0.2,0.8c-0.2,0.2-0.4,0.3-0.6,0.3c-0.2,0-0.4,0-0.5,0
						c-0.5-0.1-0.9-0.1-1-0.2c-0.1-0.1-0.2-0.2-0.2-0.5c0-0.4-0.2-1-0.7-1.9c-0.4-0.9-0.8-1.3-1-1.3h0c-0.1,0-0.1,0.2-0.1,0.6
						c0,0.5,0.1,1.2,0.2,2.2c0,0.3,0.1,0.6,0.1,0.7c0,0.7-0.2,1.2-0.5,1.3c-0.1,0.1-0.3,0.1-0.5,0.1c-0.7,0-1.1-0.2-1.3-0.5
						c-0.1-0.2-0.2-1.6-0.2-4.2c-0.1-4.2-0.2-7.2-0.4-9.1c-0.1-0.8-0.1-1.5-0.1-1.9c0-0.4,0.1-0.7,0.2-0.9c0.2-0.3,0.4-0.4,0.6-0.4
						C72.7,204,72.9,204,72.9,203.9z M74.8,206.7c-0.1-0.4-0.3-0.7-0.4-0.7h0c-0.1,0-0.1,0.2-0.1,0.6c0,0.1,0,0.6,0.1,1.7
						c0.1,1.6,0.1,2.4,0.2,2.4c0,0,0.1,0,0.3-0.1c0.2-0.2,0.2-0.9,0.2-2.1C74.9,207.5,74.9,207,74.8,206.7z"/>
					<path class="st3" d="M84.1,206c0.2-0.1,0.6-0.1,1-0.1c1.1,0,1.9,0.1,2.2,0.4c0.2,0.2,0.3,0.4,0.3,0.7s-0.1,0.5-0.3,0.7
						c-0.2,0.2-0.5,0.3-0.8,0.3c-0.3,0-0.5,0.1-0.6,0.2c-0.1,0.2-0.2,0.5-0.2,1.1c0,0.2,0,0.7,0.1,1.6c0,1,0.1,1.7,0.1,2
						c0.1,0.3,0.1,0.5,0.2,0.5c0,0,0.2,0,0.4,0c0.2,0,0.5,0,0.6,0c0.5,0,0.9,0.1,1.1,0.4c0.1,0.1,0.2,0.3,0.2,0.4
						c0,0.3-0.4,0.6-1.3,1c-0.5,0.2-0.8,0.3-0.9,0.4c-0.1,0.1-0.2,0.3-0.2,0.7c0,0.3-0.1,0.6-0.1,0.9c0,1,0.1,1.8,0.3,2.3
						c0.1,0.2,0.2,0.3,0.3,0.4c0.1,0,0.3,0.1,0.7,0.1c0.4,0,0.8,0.1,1.1,0.3c0.3,0.2,0.5,0.4,0.5,0.7c0,0.2-0.2,0.4-0.5,0.8
						c-0.5,0.5-1.3,0.7-2.5,0.7c-1.2,0-2-0.3-2.4-0.8c-0.2-0.3-0.3-2.1-0.4-5.4c0-4.1-0.1-6.5-0.1-7.3l-0.1-2.3l0.4-0.2
						C83.5,206.1,83.8,206,84.1,206z"/>
					<path class="st3" d="M93.1,205.9c0.1,0,0.6,0,1.6,0c1.1,0,1.9,0.3,2.5,0.7s1,1.3,1.3,2.4c0.3,1.1,0.5,2.4,0.5,3.9
						c0,0.3,0,0.7-0.1,1c-0.1,0.3-0.1,0.8-0.2,1.4c-0.1,0.6-0.2,1.2-0.2,1.7c-0.1,0.5-0.2,0.8-0.3,1c-0.1,0.2-0.2,0.4-0.2,0.6
						c0,0.1-0.1,0.4-0.3,0.9c-0.2,0.4-0.4,0.8-0.5,1c-0.2,0.3-0.6,0.6-1.1,0.8s-0.9,0.4-1.4,0.4c-0.4,0-0.6,0.1-0.7,0.1
						c-0.2,0-0.5-0.1-0.7-0.3l-0.4-0.4l0-5.3v-1.6c0-2.6,0-4-0.1-4.3c-0.1-0.9-0.2-1.6-0.2-2.2C92.6,206.6,92.8,206,93.1,205.9z
						 M96.1,209.7c-0.3-1.1-0.6-1.7-0.8-1.7l-0.1,0.1l0,0.1c0,0,0,0.1,0,0.2c0,0.1,0,0.2,0,0.3c0,0.3,0,0.9,0.1,1.8
						c0.1,1.1,0.1,2.5,0.2,4.4c0,1.7,0.1,2.6,0.2,2.6c0,0,0.1-0.1,0.2-0.4c0.4-1.3,0.6-2.7,0.6-4.3
						C96.4,211.6,96.3,210.6,96.1,209.7z"/>
					<path class="st3" d="M103.2,204c0.2-0.2,0.6-0.3,1-0.3c0.5,0,0.8,0.1,1.1,0.3l0.4,0.3l0,3.8c0,4.4,0.2,7.5,0.4,9.1
						c0.1,0.3,0.1,0.5,0.2,0.5c0.2,0,0.4-0.7,0.5-1.9c0.3-2.7,0.4-5.3,0.4-7.9v-0.7v-0.4c0-1.4,0.2-2.2,0.5-2.4
						c0.1-0.1,0.3-0.1,0.6-0.1c0.6,0,1,0.1,1.2,0.3c0.3,0.3,0.5,1.2,0.5,2.5c0,1.1-0.1,3.3-0.3,6.4c-0.1,2.6-0.4,4.5-0.8,5.5
						c-0.4,1.1-1.1,1.8-2,2.1c-0.4,0.1-0.6,0.2-0.8,0.2c-0.1,0-0.5-0.1-1-0.3c-1.1-0.5-1.8-1.4-1.9-2.6c-0.1-1-0.2-4.4-0.3-10.1
						c0-0.8,0-1.7,0-2.7c0-0.7,0-1.1,0.1-1.2C102.9,204.3,103,204.1,103.2,204z"/>
					<path class="st3" d="M116,206.5c0.4-0.4,0.7-0.6,0.8-0.7c0.2-0.1,0.4-0.1,0.8-0.1c0.9,0,1.4,0.3,1.4,0.9c0,0.6-0.4,1.1-1.3,1.5
						c-0.5,0.3-0.9,1.3-1.3,3.1c-0.1,0.8-0.2,1.6-0.2,2.5c0,0.9,0,1.8,0.2,2.7c0.1,1.2,0.3,2,0.5,2.5c0.2,0.5,0.6,0.8,1.1,0.8
						c0.8,0.1,1.3,0.4,1.4,0.7c0,0,0,0.1,0,0.2c0,0.2-0.1,0.4-0.4,0.6c-0.2,0.2-0.5,0.4-0.8,0.4c-0.1,0-0.2,0-0.3,0
						c-0.8,0-1.5-0.2-2.1-0.5c-0.2-0.1-0.5-0.5-0.8-1.1c-0.3-0.6-0.6-1.2-0.7-1.8c-0.2-0.9-0.3-2.4-0.3-4.5c0-0.8,0-1.6,0.1-2.4
						c0.2-1.3,0.4-2.3,0.7-2.9C114.9,207.8,115.4,207.1,116,206.5z"/>
					<path class="st3" d="M123.6,204.1c0.2-0.3,0.6-0.4,1-0.4c0.4,0,0.7,0.1,0.9,0.4l0.4,0.4l0.2,7.1c0.1,3.9,0.2,6.2,0.2,6.7
						c0,0.3,0,0.6,0,0.8c0,0.2,0,0.4,0,0.5c0,0.1,0,0.2-0.1,0.3c-0.1,0.1-0.1,0.1-0.1,0.1c0,0-0.1,0-0.1,0.1c-0.1,0-0.1,0.1-0.2,0.1
						c-0.2,0.1-0.4,0.2-0.6,0.2c-0.1,0-0.3,0-0.6-0.2c-0.5-0.2-0.8-0.4-0.9-0.5c-0.1-0.1-0.1-2.6-0.2-7.5c0-4.9-0.1-7.4-0.2-7.5
						C123.3,204.5,123.4,204.4,123.6,204.1z"/>
					<path class="st3" d="M130.9,205.2c0.3-0.1,0.6-0.2,0.9-0.2c0.6,0,1,0.4,1.3,1.2c0.2,0.6,0.4,1.2,0.7,1.9
						c0.3,0.7,0.6,1.2,0.7,1.6c0.2,0.7,0.4,1.1,0.6,1.3c0.1,0.1,0.1,0.1,0.2,0.1c0.1,0,0.2-0.4,0.2-1.3c0-0.8,0.1-1.4,0.1-1.7v-0.4
						c0-0.2,0-0.4,0-0.6c0-0.5,0.1-0.9,0.4-1.2c0.2-0.3,0.6-0.5,1.2-0.5c0.4,0,0.7,0.1,0.9,0.3c0.2,0.2,0.3,0.4,0.3,0.7
						c0,0.4,0,0.8-0.1,1.1s-0.1,2.9-0.1,7.6c0,2.9,0,4.7-0.1,5.3c0,0.6-0.1,1-0.2,1.1c-0.2,0.2-0.5,0.3-1,0.3
						c-0.9,0-1.4-0.4-1.6-1.3c-0.1-0.3-0.3-1-0.6-1.9c-0.3-0.8-0.5-1.6-0.6-2.2c-0.2-0.9-0.5-2-0.9-3.4c0-0.1-0.1-0.2-0.1-0.2
						c-0.1,0-0.2,0.9-0.2,2.6v1.5v1.6c0,1.7,0,2.6-0.1,2.9c-0.2,0.6-0.7,0.9-1.3,0.9c-0.4,0-0.7-0.1-1-0.4c-0.2-0.2-0.3-0.4-0.3-0.6
						c0,0,0-0.2,0.1-0.6c0.1-0.7,0.2-3.2,0.2-7.5c0-4.8,0.1-7.4,0.1-7.7c0-0.2,0.2-0.3,0.3-0.3C130.8,205.3,130.8,205.2,130.9,205.2
						z"/>
					<path class="st3" d="M143.4,206.7c0-0.1,0.1-0.3,0.3-0.4c0.2-0.1,0.5-0.3,0.8-0.4c0.3-0.1,0.5-0.2,0.6-0.3
						c0.1-0.1,0.2-0.2,0.3-0.2c0.2,0,0.5,0.1,0.9,0.4c0.5,0.3,0.8,0.6,0.8,0.9c0,0.1,0,0.1,0,0.2c0,0.2-0.3,0.4-0.9,0.7
						c-0.6,0.3-1,0.6-1.2,0.9c-0.3,0.6-0.5,2.1-0.5,4.5c0,0.8,0,1.4,0.1,1.8c0.2,2.8,0.5,4.3,0.6,4.6l0,0c0.2,0,0.3-0.8,0.3-2.3
						c0-0.9,0.1-1.4,0.2-1.7c0.1-0.4,0-0.7-0.2-0.9c-0.2-0.3-0.4-0.6-0.4-0.8c0-0.2,0.1-0.4,0.2-0.6c0.2-0.2,0.7-0.4,1.4-0.4
						c0.5,0,0.8,0,1,0.1c0.2,0,0.3,0.2,0.5,0.3c0.2,0.2,0.3,0.5,0.3,0.9c0,0.3,0,0.7-0.1,1.2c-0.1,0.8-0.2,1.8-0.3,3.1
						c-0.1,1.5-0.3,2.5-0.5,2.9c-0.3,0.5-0.5,0.9-0.7,1c-0.2,0.2-0.5,0.3-1,0.5c-0.3,0.1-0.6,0.2-0.9,0.2c-0.4,0-0.8-0.2-1.2-0.5
						c-0.5-0.4-0.9-1.4-1.3-3c-0.1-0.3-0.1-0.6-0.2-0.7c0-0.1-0.1-0.4-0.1-0.9c0-0.3,0-1.7-0.1-4.2l-0.1-3.4l0.4-1.4
						c0.3-0.9,0.5-1.5,0.7-1.7C143.4,206.9,143.4,206.8,143.4,206.7z"/>
					<path class="st3" d="M163.6,204.8c0.2-0.1,0.5-0.2,0.9-0.2c0.2,0,0.4,0,0.6,0c0.6,0.1,1,0.1,1.2,0.2c0.2,0.1,0.4,0.3,0.6,0.6
						c0.2,0.3,0.3,0.7,0.3,1c0,0.4-0.1,0.7-0.4,1c-0.2,0.2-0.5,0.4-0.8,0.4c-0.3,0-0.6-0.2-0.8-0.5c-0.2-0.3-0.4-0.4-0.6-0.4
						c-0.2,0-0.4,0.1-0.6,0.4c-0.2,0.3-0.3,0.6-0.3,0.9v0.1c0,1.1,0.9,3.3,2.6,6.4c0.3,0.5,0.6,1.4,0.9,2.8c0,0.1,0,0.2,0,0.4
						c0,1.1-0.2,2-0.7,2.7c-0.2,0.3-0.6,0.5-1,0.7c-0.5,0.2-0.9,0.3-1.3,0.3c0,0-0.1,0-0.1,0c0,0-0.1,0-0.1,0
						c-0.5-0.1-1.1-0.4-1.7-1.1c-0.7-0.6-1-1.1-1-1.5c0-0.2,0.1-0.4,0.3-0.6c0.2-0.2,0.4-0.3,0.7-0.4c0,0,0.1,0,0.2,0
						c0.2,0,0.6,0.3,1.1,1c0.2,0.3,0.4,0.4,0.6,0.4c0.2,0,0.4-0.1,0.5-0.4c0-0.1,0.1-0.2,0.1-0.5c0-1.2-0.5-3-1.6-5.3
						c-1-2.2-1.5-3.8-1.5-4.8c0-0.5,0.1-0.9,0.2-1.3c0.3-0.8,0.6-1.4,0.8-1.6C162.8,205.3,163.1,205,163.6,204.8z"/>
					<path class="st3" d="M171.7,204.2c0.3-0.2,0.8-0.4,1.4-0.4h0.7c1.1,0,1.8,0.1,2,0.2c0.1,0,0.4,0.1,0.9,0.1c0.5,0,0.8,0.1,1,0.3
						s0.3,0.4,0.3,0.8c0,0.4-0.1,0.7-0.2,0.8c-0.1,0.2-0.4,0.3-0.8,0.3c-0.4,0.1-0.7,0.2-0.8,0.2c-0.1,0.1-0.2,2.1-0.2,6
						c0,2.7,0,4.6,0.1,5.7c0,0.9,0.1,1.3,0.1,1.4c0,0.4-0.1,0.8-0.3,1.1c-0.2,0.4-0.6,0.6-1.1,0.6c-0.3,0-0.6-0.1-1-0.3l-0.6-0.3
						l0.1-7.1c0-1.8,0.1-3.7,0.1-5.5c0-1.1-0.1-1.7-0.2-1.8c-0.2-0.1-0.4-0.2-0.5-0.2c-0.1,0-0.2,0-0.3,0c-0.4,0-0.7-0.1-0.9-0.3
						c-0.2-0.2-0.4-0.5-0.4-0.8C171.2,204.7,171.3,204.4,171.7,204.2z"/>
					<path class="st3" d="M182.3,204.1c0.2-0.3,0.6-0.4,1-0.4c0.4,0,0.7,0.1,0.9,0.4l0.4,0.4l0.2,7.1c0.1,3.9,0.2,6.2,0.2,6.7
						c0,0.3,0,0.6,0,0.8c0,0.2,0,0.4,0,0.5c0,0.1,0,0.2-0.1,0.3c0,0.1-0.1,0.1-0.1,0.1c0,0,0,0-0.1,0.1c-0.1,0-0.1,0.1-0.2,0.1
						c-0.2,0.1-0.4,0.2-0.6,0.2c-0.1,0-0.3,0-0.6-0.2c-0.5-0.2-0.8-0.4-0.9-0.5c-0.1-0.1-0.1-2.6-0.2-7.5c0-4.9-0.1-7.4-0.2-7.5
						C182,204.5,182.1,204.4,182.3,204.1z"/>
					<path class="st3" d="M196.6,205.5c0.3-0.1,0.5-0.2,0.8-0.2c0.5,0,0.9,0.2,1.2,0.6c0.2,0.2,0.3,1.1,0.5,2.7
						c0.2,1.6,0.3,3.2,0.3,5.1c0,0.6,0.1,1.4,0.1,2.5c0,1.1,0.1,2,0.1,2.8c0,0.8,0,1.4,0,1.9c0,0.3-0.2,0.5-0.5,0.7
						c-0.3,0.2-0.7,0.3-1,0.3c-0.3,0-0.5-0.1-0.7-0.2l-0.4-0.3l-0.1-3.8c-0.1-4.3-0.3-6.5-0.6-6.5c-0.1,0-0.4,0.5-0.7,1.6
						c-0.2,0.6-0.4,1-0.6,1.3c-0.2,0.2-0.4,0.4-0.7,0.4c-0.2,0-0.5-0.1-0.8-0.2c-0.4-0.1-0.7-0.5-0.9-1c-0.2-0.5-0.4-0.8-0.4-0.9
						c0-0.1-0.1-0.2-0.2-0.4c-0.1-0.2-0.2-0.4-0.4-0.6c-0.1-0.2-0.2-0.3-0.2-0.2v0.4c0,0.9,0,2.2,0.1,4l0.2,4.4l-0.4,0.7
						c-0.5,0.7-0.9,1.1-1.2,1.1c-0.2,0-0.4-0.2-0.6-0.5c-0.2-0.2-0.3-0.6-0.3-1.2c0-0.5-0.1-2.1-0.2-4.7c-0.1-4.8-0.2-7.6-0.3-8.2
						c0-0.1,0-0.2,0-0.3c0-0.2,0.1-0.5,0.3-0.7c0.2-0.2,0.6-0.4,0.9-0.4c0.3,0,0.7,0.1,1.2,0.3c0.4,0.2,0.7,0.4,1,0.8
						c0.2,0.3,0.8,1.2,1.6,2.8c0.2,0.4,0.4,0.6,0.5,0.6c0.1,0,0.2-0.1,0.3-0.4c0.1-0.4,0.3-0.8,0.5-1.3c0.3-0.6,0.4-1,0.4-1
						c0-0.2,0.1-0.5,0.4-1C196.3,205.8,196.5,205.5,196.6,205.5z"/>
					<path class="st3" d="M203.8,204c0.2-0.2,0.6-0.3,1-0.3c0.5,0,0.8,0.1,1.1,0.3l0.4,0.3l0,3.8c0,4.4,0.2,7.5,0.4,9.1
						c0.1,0.3,0.1,0.5,0.2,0.5c0.2,0,0.4-0.7,0.5-1.9c0.3-2.7,0.4-5.3,0.4-7.9v-0.7v-0.4c0-1.4,0.2-2.2,0.5-2.4
						c0.1-0.1,0.3-0.1,0.6-0.1c0.6,0,1,0.1,1.2,0.3c0.3,0.3,0.5,1.2,0.5,2.5c0,1.1-0.1,3.3-0.3,6.4c-0.1,2.6-0.4,4.5-0.8,5.5
						c-0.4,1.1-1.1,1.8-2,2.1c-0.4,0.1-0.6,0.2-0.8,0.2s-0.5-0.1-1-0.3c-1.1-0.5-1.8-1.4-1.9-2.6c-0.1-1-0.2-4.4-0.3-10.1
						c0-0.8,0-1.7,0-2.7c0-0.7,0-1.1,0.1-1.2C203.6,204.3,203.6,204.1,203.8,204z"/>
					<path class="st3" d="M214.7,205c0.2-0.2,0.4-0.3,0.6-0.3c0.2,0,0.3,0,0.5,0c0.5,0.1,0.8,0.2,0.9,0.3c0.2,0.3,0.4,2.2,0.4,5.7
						v1.9v1.7c0,2.8,0,4.2,0.1,4.4c0.1,0.4,0.4,0.5,1,0.5c0.3,0,0.5,0,0.8,0c0.2,0,0.4,0,0.6,0c0.4,0,0.7,0.1,0.8,0.2
						c0.2,0.1,0.2,0.3,0.2,0.7c0,0.2,0,0.4-0.1,0.5c-0.1,0.1-0.3,0.3-0.6,0.5c-0.6,0.3-1.2,0.5-1.8,0.5c-0.9,0-1.3,0.1-1.4,0.1
						c0,0-0.1,0-0.2,0c-0.2,0-0.5-0.1-0.9-0.2c-0.3-0.1-0.6-0.3-0.7-0.5c-0.3-0.4-0.5-1.5-0.5-3.2c0-0.4,0-1.3,0.1-2.4
						c0-1.1,0.1-2.3,0.1-3.5c0-3.1,0-4.9-0.2-5.7c0-0.3-0.1-0.5-0.1-0.5C214.4,205.4,214.5,205.2,214.7,205z"/>
					<path class="st3" d="M227.1,207c0.5-0.5,1.4-0.8,2.4-0.8c0.5,0,0.9,0.1,1.2,0.2c0.4,0.2,0.8,0.8,0.9,1.8
						c0.1,0.8,0.3,2.1,0.5,4.1c0.2,1.9,0.3,3.4,0.4,4.4c0,1,0.1,2.1,0.2,3.3c0.1,1.2,0.2,1.9,0.3,2c0,0,0,0.1,0,0.1
						c0,0.2-0.1,0.4-0.2,0.7c-0.2,0.3-0.3,0.4-0.5,0.5c0,0-0.1,0-0.3,0c-0.3,0-0.7-0.1-1-0.2c-0.4-0.1-0.6-0.3-0.7-0.5
						c-0.1-0.2-0.2-0.7-0.3-1.7c-0.1-1-0.2-1.8-0.2-2.4c0-0.6-0.1-0.9-0.2-1c-0.1-0.1-0.6-0.1-1.4-0.1c-0.7,0-1.1,0-1.1,0.1
						c0,0.1,0,0.2,0,0.4c0,0.4,0,1,0.1,1.7c0.1,0.8,0.1,1.5,0.1,2v0.3c0,0.1-0.2,0.3-0.5,0.4c-0.3,0.1-0.6,0.2-0.8,0.2
						c-0.1,0-0.2,0-0.3,0c-0.7-0.2-1.1-0.5-1.2-0.9c0,0,0-0.1,0-0.1c0-0.1,0-0.1,0-0.2c0-0.9,0.1-2.8,0.3-5.6c0.2-2.9,0.4-4.5,0.5-5
						c0.1-0.6,0.4-1.2,0.7-2C226.5,207.8,226.8,207.3,227.1,207z M229.2,210.3c-0.1-0.6-0.3-0.9-0.4-0.9c-0.1,0-0.3,0.2-0.5,0.7
						c-0.4,0.8-0.7,2-0.8,3.4c0,0.6-0.1,1-0.1,1c0,0.3,0,0.5,0.2,0.5c0.1,0.1,0.4,0.1,0.9,0.1c0.6,0,1-0.1,1-0.2
						c0-0.1,0.1-0.3,0.1-0.8C229.6,212.7,229.5,211.4,229.2,210.3z"/>
					<path class="st3" d="M237.7,205.2c0.3-0.1,0.6-0.2,0.9-0.2c0.6,0,1,0.4,1.3,1.2c0.2,0.6,0.4,1.2,0.7,1.9
						c0.3,0.7,0.6,1.2,0.7,1.6c0.2,0.7,0.4,1.1,0.6,1.3c0.1,0.1,0.1,0.1,0.2,0.1c0.1,0,0.2-0.4,0.2-1.3c0-0.8,0.1-1.4,0.1-1.7v-0.4
						c0-0.2,0-0.4,0-0.6c0-0.5,0.1-0.9,0.4-1.2c0.2-0.3,0.6-0.5,1.2-0.5c0.4,0,0.7,0.1,0.9,0.3c0.2,0.2,0.3,0.4,0.3,0.7
						c0,0.4,0,0.8-0.1,1.1s-0.1,2.9-0.1,7.6c0,2.9,0,4.7-0.1,5.3c0,0.6-0.1,1-0.2,1.1c-0.2,0.2-0.5,0.3-1,0.3
						c-0.9,0-1.4-0.4-1.6-1.3c-0.1-0.3-0.3-1-0.6-1.9c-0.3-0.8-0.5-1.6-0.6-2.2c-0.2-0.9-0.5-2-0.9-3.4c0-0.1-0.1-0.2-0.1-0.2
						c-0.1,0-0.2,0.9-0.2,2.6v1.5v1.6c0,1.7,0,2.6-0.1,2.9c-0.2,0.6-0.7,0.9-1.3,0.9c-0.4,0-0.7-0.1-1-0.4c-0.2-0.2-0.3-0.4-0.3-0.6
						c0,0,0-0.2,0.1-0.6c0.1-0.7,0.2-3.2,0.2-7.5c0-4.8,0.1-7.4,0.1-7.7c0-0.2,0.2-0.3,0.3-0.3C237.6,205.3,237.7,205.2,237.7,205.2
						z"/>
					<path class="st3" d="M249.5,204.2c0.3-0.2,0.8-0.4,1.4-0.4h0.7c1.1,0,1.8,0.1,2,0.2c0.1,0,0.4,0.1,0.9,0.1c0.5,0,0.8,0.1,1,0.3
						c0.2,0.2,0.3,0.4,0.3,0.8c0,0.4-0.1,0.7-0.2,0.8c-0.1,0.2-0.4,0.3-0.8,0.3c-0.4,0.1-0.7,0.2-0.8,0.2c-0.1,0.1-0.2,2.1-0.2,6
						c0,2.7,0,4.6,0.1,5.7c0,0.9,0.1,1.3,0.1,1.4c0,0.4-0.1,0.8-0.3,1.1c-0.2,0.4-0.6,0.6-1.1,0.6c-0.3,0-0.6-0.1-1-0.3l-0.6-0.3
						l0.1-7.1c0-1.8,0.1-3.7,0.1-5.5c0-1.1-0.1-1.7-0.2-1.8c-0.2-0.1-0.4-0.2-0.5-0.2c-0.1,0-0.2,0-0.3,0c-0.4,0-0.7-0.1-0.9-0.3
						c-0.2-0.2-0.4-0.5-0.4-0.8C249,204.7,249.2,204.4,249.5,204.2z"/>
					<path class="st3" d="M262.3,204.8c0.2-0.1,0.5-0.2,0.9-0.2c0.2,0,0.4,0,0.6,0c0.6,0.1,1,0.1,1.2,0.2c0.2,0.1,0.4,0.3,0.6,0.6
						c0.2,0.3,0.3,0.7,0.3,1c0,0.4-0.1,0.7-0.4,1c-0.2,0.2-0.5,0.4-0.8,0.4c-0.3,0-0.6-0.2-0.8-0.5c-0.2-0.3-0.4-0.4-0.6-0.4
						c-0.2,0-0.4,0.1-0.6,0.4c-0.2,0.3-0.3,0.6-0.3,0.9v0.1c0,1.1,0.9,3.3,2.6,6.4c0.3,0.5,0.6,1.4,0.9,2.8c0,0.1,0,0.2,0,0.4
						c0,1.1-0.2,2-0.7,2.7c-0.2,0.3-0.6,0.5-1,0.7c-0.5,0.2-0.9,0.3-1.3,0.3c0,0-0.1,0-0.1,0c0,0-0.1,0-0.1,0
						c-0.5-0.1-1.1-0.4-1.7-1.1c-0.7-0.6-1-1.1-1-1.5c0-0.2,0.1-0.4,0.3-0.6c0.2-0.2,0.4-0.3,0.7-0.4c0,0,0.1,0,0.2,0
						c0.2,0,0.6,0.3,1.1,1c0.2,0.3,0.4,0.4,0.6,0.4c0.2,0,0.4-0.1,0.5-0.4c0-0.1,0.1-0.2,0.1-0.5c0-1.2-0.5-3-1.6-5.3
						c-1-2.2-1.5-3.8-1.5-4.8c0-0.5,0.1-0.9,0.2-1.3c0.3-0.8,0.6-1.4,0.8-1.6C261.5,205.3,261.9,205,262.3,204.8z"/>
					<path class="st3" d="M72.3,246.1c0.1,0,0.6,0,1.6,0c1.1,0,1.9,0.3,2.5,0.7c0.6,0.4,1,1.3,1.3,2.4c0.3,1.1,0.5,2.4,0.5,3.9
						c0,0.3,0,0.7-0.1,1c-0.1,0.3-0.1,0.8-0.2,1.4c-0.1,0.6-0.2,1.2-0.2,1.7c-0.1,0.5-0.2,0.8-0.3,1c-0.1,0.2-0.2,0.4-0.2,0.6
						c0,0.1-0.1,0.4-0.3,0.9c-0.2,0.4-0.4,0.8-0.5,1c-0.2,0.3-0.6,0.6-1.1,0.8c-0.5,0.2-0.9,0.4-1.4,0.4c-0.4,0-0.6,0.1-0.7,0.1
						c-0.2,0-0.5-0.1-0.7-0.3l-0.4-0.4l0-5.3v-1.6c0-2.6,0-4-0.1-4.3c-0.1-0.9-0.2-1.6-0.2-2.2C71.7,246.8,71.9,246.2,72.3,246.1z
						 M75.2,249.9c-0.3-1.1-0.6-1.7-0.8-1.7l-0.1,0.1l0,0.1c0,0,0,0.1,0,0.2c0,0.1,0,0.2,0,0.3c0,0.3,0,0.9,0.1,1.8
						c0.1,1.1,0.1,2.5,0.2,4.4c0,1.7,0.1,2.6,0.2,2.6c0,0,0.1-0.1,0.2-0.4c0.4-1.3,0.6-2.7,0.6-4.3
						C75.6,251.8,75.5,250.8,75.2,249.9z"/>
					<path class="st3" d="M82.3,244.3c0.2-0.3,0.6-0.4,1-0.4c0.4,0,0.7,0.1,0.9,0.4l0.4,0.4l0.2,7.1c0.1,3.9,0.2,6.2,0.2,6.7
						c0,0.3,0,0.6,0,0.8c0,0.2,0,0.4,0,0.5c0,0.1,0,0.2-0.1,0.3c0,0.1-0.1,0.1-0.1,0.1c0,0,0,0-0.1,0.1c-0.1,0.1-0.2,0.1-0.2,0.1
						c-0.2,0.1-0.4,0.2-0.6,0.2c-0.1,0-0.3,0-0.6-0.2c-0.5-0.2-0.8-0.4-0.9-0.5c-0.1-0.1-0.1-2.6-0.2-7.5c0-4.9-0.1-7.4-0.2-7.5
						C81.9,244.7,82,244.5,82.3,244.3z"/>
					<path class="st3" d="M90.1,246.1c0.2-0.1,0.6-0.1,1-0.1c1.1,0,1.9,0.1,2.2,0.4c0.2,0.2,0.3,0.4,0.3,0.7c0,0.3-0.1,0.5-0.3,0.7
						c-0.2,0.2-0.5,0.3-0.8,0.3c-0.3,0-0.5,0.1-0.6,0.2c-0.1,0.2-0.2,0.5-0.2,1.1c0,0.2,0,0.7,0.1,1.6c0,1,0.1,1.7,0.1,2
						c0,0.3,0.1,0.5,0.2,0.5c0,0,0.2,0,0.4,0c0.2,0,0.5,0,0.6,0c0.5,0,0.9,0.1,1.1,0.4c0.1,0.1,0.2,0.3,0.2,0.4c0,0.3-0.4,0.6-1.3,1
						c-0.5,0.2-0.8,0.3-0.9,0.4c-0.1,0.1-0.2,0.3-0.2,0.7c0,0.3-0.1,0.6-0.1,0.9c0,1,0.1,1.8,0.3,2.3c0.1,0.2,0.2,0.3,0.3,0.4
						c0.1,0,0.3,0.1,0.7,0.1c0.4,0,0.8,0.1,1.1,0.3c0.3,0.2,0.5,0.4,0.5,0.7c0,0.2-0.2,0.4-0.5,0.8c-0.5,0.5-1.3,0.7-2.5,0.7
						c-1.2,0-2-0.3-2.4-0.8c-0.2-0.3-0.3-2.1-0.4-5.4c0-4.1-0.1-6.5-0.1-7.3l-0.1-2.3l0.4-0.2C89.5,246.3,89.8,246.2,90.1,246.1z"/>
					<path class="st3" d="M99.2,244.4c0.3-0.2,0.8-0.4,1.4-0.4h0.7c1.1,0,1.8,0.1,2,0.2c0.1,0,0.4,0.1,0.9,0.1c0.5,0,0.8,0.1,1,0.3
						s0.3,0.4,0.3,0.8c0,0.4-0.1,0.7-0.2,0.8c-0.1,0.2-0.4,0.3-0.8,0.3c-0.4,0.1-0.7,0.2-0.8,0.2c-0.1,0.1-0.2,2.1-0.2,6
						c0,2.7,0,4.6,0.1,5.7c0,0.9,0.1,1.3,0.1,1.4c0,0.4-0.1,0.8-0.3,1.1c-0.2,0.4-0.6,0.6-1.1,0.6c-0.3,0-0.6-0.1-1-0.3L101,261
						l0.1-7.1c0-1.8,0.1-3.7,0.1-5.5c0-1.1-0.1-1.7-0.2-1.8c-0.2-0.1-0.4-0.2-0.5-0.2c-0.1,0-0.2,0-0.3,0c-0.4,0-0.7-0.1-0.9-0.3
						c-0.2-0.2-0.4-0.5-0.4-0.8C98.7,244.9,98.9,244.6,99.2,244.4z"/>
					<path class="st3" d="M130.1,247.2c0.5-0.5,1.4-0.8,2.4-0.8c0.5,0,0.9,0.1,1.2,0.2c0.4,0.2,0.8,0.8,0.9,1.8
						c0.1,0.8,0.3,2.1,0.5,4.1c0.2,1.9,0.3,3.4,0.4,4.4c0,1,0.1,2.1,0.2,3.3c0.1,1.2,0.2,1.9,0.3,2c0,0,0,0.1,0,0.1
						c0,0.2-0.1,0.4-0.2,0.7c-0.2,0.3-0.3,0.4-0.5,0.5c0,0-0.1,0-0.3,0c-0.3,0-0.7-0.1-1-0.2c-0.4-0.1-0.6-0.3-0.7-0.5
						c-0.1-0.2-0.2-0.7-0.3-1.7c-0.1-1-0.2-1.8-0.2-2.4c0-0.6-0.1-0.9-0.2-1c-0.1-0.1-0.6-0.1-1.4-0.1c-0.7,0-1.1,0-1.1,0.1
						c0,0.1,0,0.2,0,0.4c0,0.4,0,1,0.1,1.7c0.1,0.8,0.1,1.5,0.1,2v0.3c0,0.1-0.2,0.3-0.5,0.4c-0.3,0.1-0.6,0.2-0.8,0.2
						c-0.1,0-0.2,0-0.3,0c-0.7-0.2-1.1-0.5-1.2-0.9c0,0,0-0.1,0-0.1c0-0.1,0-0.1,0-0.2c0-0.9,0.1-2.8,0.3-5.6c0.2-2.9,0.4-4.5,0.5-5
						c0.1-0.6,0.4-1.2,0.7-2C129.5,248,129.8,247.5,130.1,247.2z M132.2,250.5c-0.1-0.6-0.3-0.9-0.4-0.9c-0.1,0-0.3,0.2-0.5,0.7
						c-0.4,0.8-0.7,2-0.8,3.4c0,0.6-0.1,1-0.1,1c0,0.3,0,0.5,0.2,0.5c0.1,0.1,0.4,0.1,0.9,0.1c0.6,0,1-0.1,1-0.2
						c0-0.1,0.1-0.3,0.1-0.8C132.6,252.9,132.4,251.6,132.2,250.5z"/>
					<path class="st3" d="M140.7,245.4c0.3-0.1,0.6-0.2,0.9-0.2c0.6,0,1,0.4,1.3,1.2c0.2,0.6,0.4,1.2,0.7,1.9
						c0.3,0.7,0.6,1.2,0.7,1.6c0.2,0.7,0.4,1.1,0.6,1.3c0.1,0.1,0.1,0.1,0.2,0.1c0.1,0,0.2-0.4,0.2-1.3c0-0.8,0.1-1.4,0.1-1.7v-0.4
						c0-0.2,0-0.4,0-0.6c0-0.5,0.1-0.9,0.4-1.2c0.2-0.3,0.6-0.5,1.2-0.5c0.4,0,0.7,0.1,0.9,0.3c0.2,0.2,0.3,0.4,0.3,0.7
						c0,0.4,0,0.8-0.1,1.1c0,0.4-0.1,2.9-0.1,7.6c0,2.9,0,4.7-0.1,5.3c0,0.6-0.1,1-0.2,1.1c-0.2,0.2-0.5,0.3-1,0.3
						c-0.9,0-1.4-0.4-1.6-1.3c-0.1-0.3-0.3-1-0.6-1.9c-0.3-0.8-0.5-1.6-0.6-2.2c-0.2-0.9-0.5-2-0.9-3.4c0-0.1-0.1-0.2-0.1-0.2
						c-0.1,0-0.2,0.9-0.2,2.6v1.5v1.6c0,1.7,0,2.6-0.1,2.9c-0.2,0.6-0.7,0.9-1.3,0.9c-0.4,0-0.7-0.1-1-0.4c-0.2-0.2-0.3-0.4-0.3-0.6
						c0,0,0-0.2,0.1-0.6c0.1-0.7,0.2-3.2,0.2-7.5c0-4.8,0.1-7.4,0.1-7.7c0-0.2,0.2-0.3,0.3-0.3C140.6,245.5,140.6,245.4,140.7,245.4
						z"/>
					<path class="st3" d="M152.4,246.1c0.1,0,0.6,0,1.6,0c1.1,0,1.9,0.3,2.5,0.7c0.6,0.4,1,1.3,1.3,2.4c0.3,1.1,0.5,2.4,0.5,3.9
						c0,0.3,0,0.7-0.1,1c-0.1,0.3-0.1,0.8-0.2,1.4c-0.1,0.6-0.2,1.2-0.2,1.7c-0.1,0.5-0.2,0.8-0.3,1c-0.1,0.2-0.2,0.4-0.2,0.6
						c0,0.1-0.1,0.4-0.3,0.9c-0.2,0.4-0.4,0.8-0.5,1c-0.2,0.3-0.6,0.6-1.1,0.8c-0.5,0.2-0.9,0.4-1.4,0.4c-0.4,0-0.6,0.1-0.7,0.1
						c-0.2,0-0.5-0.1-0.7-0.3l-0.4-0.4l0-5.3v-1.6c0-2.6,0-4-0.1-4.3c-0.1-0.9-0.2-1.6-0.2-2.2C151.8,246.8,152,246.2,152.4,246.1z
						 M155.3,249.9c-0.3-1.1-0.6-1.7-0.8-1.7l-0.1,0.1l0,0.1c0,0,0,0.1,0,0.2c0,0.1,0,0.2,0,0.3c0,0.3,0,0.9,0.1,1.8
						c0.1,1.1,0.1,2.5,0.2,4.4c0,1.7,0.1,2.6,0.2,2.6c0,0,0.1-0.1,0.2-0.4c0.4-1.3,0.6-2.7,0.6-4.3
						C155.7,251.8,155.6,250.8,155.3,249.9z"/>
					<path class="st3" d="M171.2,244.4c0.3-0.2,0.8-0.4,1.4-0.4h0.7c1.1,0,1.8,0.1,2,0.2c0.1,0,0.4,0.1,0.9,0.1c0.5,0,0.8,0.1,1,0.3
						c0.2,0.2,0.3,0.4,0.3,0.8c0,0.4-0.1,0.7-0.2,0.8c-0.1,0.2-0.4,0.3-0.8,0.3c-0.4,0.1-0.7,0.2-0.8,0.2c-0.1,0.1-0.2,2.1-0.2,6
						c0,2.7,0,4.6,0.1,5.7c0,0.9,0.1,1.3,0.1,1.4c0,0.4-0.1,0.8-0.3,1.1c-0.2,0.4-0.6,0.6-1.1,0.6c-0.3,0-0.6-0.1-1-0.3L173,261
						l0.1-7.1c0-1.8,0.1-3.7,0.1-5.5c0-1.1-0.1-1.7-0.2-1.8c-0.2-0.1-0.4-0.2-0.5-0.2c-0.1,0-0.2,0-0.3,0c-0.4,0-0.7-0.1-0.9-0.3
						c-0.2-0.2-0.4-0.5-0.4-0.8C170.7,244.9,170.9,244.6,171.2,244.4z"/>
					<path class="st3" d="M181.9,244.3c0.2-0.3,0.6-0.4,1-0.4c0.4,0,0.7,0.1,0.9,0.4l0.4,0.4l0.2,7.1c0.1,3.9,0.2,6.2,0.2,6.7
						c0,0.3,0,0.6,0,0.8c0,0.2,0,0.4,0,0.5c0,0.1,0,0.2-0.1,0.3c0,0.1-0.1,0.1-0.1,0.1c0,0-0.1,0-0.1,0.1c-0.1,0-0.1,0.1-0.2,0.1
						c-0.2,0.1-0.4,0.2-0.6,0.2c-0.1,0-0.3,0-0.6-0.2c-0.5-0.2-0.8-0.4-0.9-0.5c-0.1-0.1-0.1-2.6-0.2-7.5c0-4.9-0.1-7.4-0.2-7.5
						C181.5,244.7,181.6,244.5,181.9,244.3z"/>
					<path class="st3" d="M196.2,245.7c0.3-0.1,0.5-0.2,0.8-0.2c0.5,0,0.9,0.2,1.2,0.6c0.2,0.2,0.3,1.1,0.5,2.7
						c0.2,1.5,0.3,3.2,0.3,5.1c0,0.6,0.1,1.4,0.1,2.5c0,1.1,0.1,2,0.1,2.8c0,0.8,0.1,1.4,0.1,1.9c0,0.3-0.2,0.5-0.5,0.7
						c-0.3,0.2-0.7,0.3-1,0.3c-0.3,0-0.5-0.1-0.7-0.2l-0.4-0.3l-0.1-3.8c-0.1-4.3-0.3-6.5-0.6-6.5c-0.1,0-0.4,0.5-0.7,1.6
						c-0.2,0.6-0.4,1-0.6,1.3s-0.4,0.4-0.7,0.4c-0.2,0-0.5-0.1-0.8-0.2c-0.4-0.1-0.7-0.5-0.9-1c-0.2-0.5-0.4-0.8-0.4-0.9
						c0-0.1-0.1-0.2-0.2-0.4c-0.1-0.2-0.2-0.4-0.4-0.6c-0.1-0.2-0.2-0.3-0.2-0.2v0.4c0,0.9,0,2.2,0.1,4l0.2,4.4l-0.4,0.7
						c-0.5,0.7-0.9,1.1-1.2,1.1c-0.2,0-0.4-0.2-0.6-0.5c-0.2-0.2-0.3-0.6-0.3-1.2s-0.1-2.1-0.2-4.7c-0.1-4.8-0.2-7.6-0.3-8.2
						c0-0.1,0-0.2,0-0.3c0-0.2,0.1-0.5,0.3-0.7c0.2-0.2,0.6-0.4,0.9-0.4c0.3,0,0.7,0.1,1.2,0.3c0.4,0.2,0.7,0.4,1,0.8
						c0.2,0.3,0.8,1.2,1.6,2.8c0.2,0.4,0.4,0.6,0.5,0.6c0.1,0,0.2-0.1,0.3-0.4c0.1-0.4,0.3-0.8,0.5-1.3c0.3-0.6,0.4-1,0.4-1
						c0-0.2,0.1-0.5,0.4-1C195.8,246,196,245.7,196.2,245.7z"/>
					<path class="st3" d="M203.3,244.3c0.2-0.3,0.6-0.4,1-0.4c0.4,0,0.7,0.1,0.9,0.4l0.4,0.4l0.2,7.1c0.1,3.9,0.2,6.2,0.2,6.7
						c0,0.3,0,0.6,0,0.8c0,0.2,0,0.4,0,0.5c0,0.1,0,0.2-0.1,0.3c0,0.1-0.1,0.1-0.1,0.1c0,0,0,0-0.1,0.1c-0.1,0-0.1,0.1-0.2,0.1
						c-0.2,0.1-0.4,0.2-0.6,0.2c-0.1,0-0.3,0-0.6-0.2c-0.5-0.2-0.8-0.4-0.9-0.5c-0.1-0.1-0.1-2.6-0.2-7.5c0-4.9-0.1-7.4-0.2-7.5
						C203,244.7,203,244.5,203.3,244.3z"/>
					<path class="st3" d="M210.5,245.4c0.3-0.1,0.6-0.2,0.9-0.2c0.6,0,1,0.4,1.3,1.2c0.2,0.6,0.4,1.2,0.7,1.9
						c0.3,0.7,0.6,1.2,0.7,1.6c0.2,0.7,0.4,1.1,0.6,1.3c0.1,0.1,0.1,0.1,0.2,0.1c0.1,0,0.2-0.4,0.2-1.3c0-0.8,0.1-1.4,0.1-1.7v-0.4
						c0-0.2,0-0.4,0-0.6c0-0.5,0.1-0.9,0.4-1.2c0.2-0.3,0.6-0.5,1.2-0.5c0.4,0,0.7,0.1,0.9,0.3c0.2,0.2,0.3,0.4,0.3,0.7
						c0,0.4,0,0.8-0.1,1.1s-0.1,2.9-0.1,7.6c0,2.9,0,4.7-0.1,5.3c0,0.6-0.1,1-0.2,1.1c-0.2,0.2-0.5,0.3-1,0.3
						c-0.9,0-1.4-0.4-1.6-1.3c-0.1-0.3-0.3-1-0.6-1.9c-0.3-0.8-0.5-1.6-0.6-2.2c-0.2-0.9-0.5-2-0.9-3.4c0-0.1-0.1-0.2-0.1-0.2
						c-0.1,0-0.2,0.9-0.2,2.6v1.5v1.6c0,1.7,0,2.6-0.1,2.9c-0.2,0.6-0.7,0.9-1.3,0.9c-0.4,0-0.7-0.1-1-0.4c-0.2-0.2-0.3-0.4-0.3-0.6
						c0,0,0-0.2,0.1-0.6c0.1-0.7,0.2-3.2,0.2-7.5c0-4.8,0.1-7.4,0.1-7.7c0-0.2,0.2-0.3,0.3-0.3C210.5,245.5,210.5,245.4,210.5,245.4
						z"/>
					<path class="st3" d="M223.1,246.9c0-0.1,0.1-0.3,0.3-0.4c0.2-0.1,0.5-0.3,0.8-0.4c0.3-0.1,0.5-0.2,0.6-0.3
						c0.1-0.1,0.2-0.2,0.3-0.2c0.2,0,0.5,0.1,0.9,0.4c0.5,0.3,0.8,0.6,0.8,0.9c0,0.1,0,0.1,0,0.2c0,0.2-0.3,0.4-0.9,0.7
						c-0.6,0.3-1,0.6-1.2,0.9c-0.3,0.6-0.5,2.1-0.5,4.5c0,0.8,0,1.4,0.1,1.8c0.2,2.8,0.5,4.3,0.6,4.6l0,0c0.2,0,0.3-0.8,0.3-2.3
						c0-0.9,0.1-1.4,0.2-1.7c0.1-0.4,0-0.7-0.2-0.9c-0.2-0.3-0.4-0.6-0.4-0.8c0-0.2,0.1-0.4,0.2-0.6c0.2-0.2,0.7-0.4,1.4-0.4
						c0.5,0,0.8,0,1,0.1c0.2,0.1,0.3,0.2,0.5,0.3c0.2,0.2,0.3,0.5,0.3,0.9c0,0.3,0,0.7-0.1,1.2c-0.1,0.8-0.2,1.8-0.3,3.1
						c-0.1,1.5-0.3,2.5-0.5,2.9c-0.3,0.5-0.5,0.9-0.7,1c-0.2,0.2-0.5,0.3-1,0.5c-0.3,0.1-0.6,0.2-0.9,0.2c-0.4,0-0.8-0.2-1.2-0.5
						c-0.5-0.4-0.9-1.4-1.3-3c-0.1-0.3-0.1-0.6-0.2-0.7c0-0.1-0.1-0.4-0.1-0.9c0-0.3,0-1.7-0.1-4.2l-0.1-3.4l0.4-1.4
						c0.3-0.9,0.5-1.5,0.7-1.7C223,247.1,223.1,247,223.1,246.9z"/>
					<path class="st3" d="M232.8,268.2c-0.7-0.2-1-1-0.6-1.6c1.8-2.8,3.1-6.1,3.1-11c0-4.9-1.3-8.6-3.2-11.6
						c-0.4-0.6-0.1-1.4,0.6-1.6c0.5-0.2,1,0,1.3,0.4c1.8,2.7,3.6,7.1,3.6,12.8c0,5.7-1.8,9.5-3.7,12.2
						C233.7,268.1,233.2,268.3,232.8,268.2z"/>
					<path class="st3" d="M123.8,268.2c-0.4,0.1-0.9,0-1.2-0.4c-1.9-2.6-3.7-6.5-3.7-12.2c0-5.6,1.8-10.1,3.6-12.8
						c0.3-0.4,0.8-0.6,1.3-0.4c0.7,0.2,0.9,1,0.6,1.6c-1.8,2.9-3.2,6.6-3.2,11.6c0,4.9,1.3,8.2,3.1,11
						C124.8,267.2,124.5,267.9,123.8,268.2z"/>
					<path class="st3" d="M73,286.3c0.2-0.1,0.6-0.1,1-0.1c1.1,0,1.9,0.1,2.2,0.4c0.2,0.2,0.3,0.4,0.3,0.7c0,0.3-0.1,0.5-0.3,0.7
						c-0.2,0.2-0.5,0.3-0.8,0.3c-0.3,0-0.5,0.1-0.6,0.2c-0.1,0.2-0.2,0.5-0.2,1.1c0,0.2,0,0.7,0.1,1.6c0,1,0.1,1.7,0.1,2
						c0,0.3,0.1,0.5,0.2,0.5c0,0,0.2,0,0.4,0c0.2,0,0.5,0,0.6,0c0.5,0,0.9,0.1,1.1,0.4c0.1,0.1,0.2,0.3,0.2,0.4c0,0.3-0.4,0.6-1.3,1
						c-0.5,0.2-0.8,0.3-0.9,0.4c-0.1,0.1-0.2,0.3-0.2,0.7c0,0.3-0.1,0.6-0.1,0.9c0,1,0.1,1.8,0.3,2.4c0.1,0.2,0.2,0.3,0.3,0.4
						c0.1,0,0.3,0.1,0.7,0.1c0.4,0,0.8,0.1,1.1,0.3c0.3,0.2,0.5,0.4,0.5,0.7c0,0.2-0.2,0.4-0.5,0.8c-0.5,0.5-1.3,0.7-2.5,0.7
						c-1.2,0-2-0.3-2.4-0.8c-0.2-0.3-0.3-2.1-0.4-5.4c0-4.1-0.1-6.5-0.1-7.3l-0.1-2.3l0.4-0.2C72.5,286.5,72.8,286.4,73,286.3z"/>
					<path class="st3" d="M82.6,284.3c0.1,0,0.1,0,0.2-0.1c0.1,0,0.1,0,0.2-0.1c0,0,0.1,0,0.1,0h0.1c0,0,0.2,0.1,0.5,0.2
						c0.3,0.2,0.5,0.4,0.6,0.7c0.2,0.8,0.4,1.6,0.7,2.4c0.2,0.7,0.4,1.1,0.5,1.1c0,0,0,0,0-0.1c0-0.1,0.1-0.7,0.4-1.8
						c0.2-0.8,0.3-1.2,0.4-1.5c0.1-0.2,0.2-0.4,0.4-0.5c0.3-0.1,0.6-0.2,0.9-0.2c0.5,0,0.9,0.1,1.1,0.3c0.2,0.2,0.3,0.5,0.3,0.8
						c0,0.3-0.1,0.7-0.3,1.3c-0.1,0.5-0.4,1.3-0.7,2.4c-0.3,1.1-0.6,2-0.8,2.7c-0.3,1-0.4,1.7-0.4,2c0,0.2,0,0.5,0.1,0.8
						c0.2,0.7,0.3,1.3,0.5,1.7c0.2,0.4,0.3,0.8,0.3,1.1c0,0.1,0.2,0.8,0.5,1.8c0.3,0.9,0.5,1.5,0.5,1.8c0,0.3-0.1,0.6-0.4,0.8
						c-0.2,0.2-0.5,0.3-0.7,0.3c-0.2,0-0.3,0-0.4,0c-0.5,0-0.8-0.2-1.1-0.5c-0.2-0.3-0.5-0.7-0.6-1.2c-0.1-0.5-0.2-0.7-0.3-0.7
						c-0.1,0-0.1,0.3-0.2,0.8c-0.2,1.4-0.7,2.1-1.5,2.1c-0.2,0-0.6-0.1-1.1-0.4c-0.5-0.2-0.8-0.4-0.8-0.6c0-0.3,0.5-2.1,1.6-5.4
						c0.1-0.4,0.3-1,0.5-1.9c0.1-0.5,0.1-0.9,0.1-0.9c0-0.3-0.1-0.8-0.3-1.4c-0.2-0.5-0.4-1.3-0.7-2.4c-0.3-1.1-0.5-1.8-0.7-2.4
						c-0.2-0.8-0.4-1.4-0.5-1.8c0-0.1,0-0.2,0-0.3C81.6,284.8,82,284.5,82.6,284.3z"/>
					<path class="st3" d="M94.3,286.3c0.2-0.1,0.6-0.1,1-0.1c1.1,0,1.9,0.1,2.2,0.4c0.2,0.2,0.3,0.4,0.3,0.7c0,0.3-0.1,0.5-0.3,0.7
						c-0.2,0.2-0.5,0.3-0.8,0.3c-0.3,0-0.5,0.1-0.6,0.2c-0.1,0.2-0.2,0.5-0.2,1.1c0,0.2,0,0.7,0.1,1.6c0,1,0.1,1.7,0.1,2
						c0,0.3,0.1,0.5,0.2,0.5c0,0,0.2,0,0.4,0c0.2,0,0.5,0,0.6,0c0.5,0,0.9,0.1,1.1,0.4c0.1,0.1,0.2,0.3,0.2,0.4c0,0.3-0.4,0.6-1.3,1
						c-0.5,0.2-0.8,0.3-0.9,0.4c-0.1,0.1-0.2,0.3-0.2,0.7c0,0.3-0.1,0.6-0.1,0.9c0,1,0.1,1.8,0.3,2.4c0.1,0.2,0.2,0.3,0.3,0.4
						c0.1,0,0.3,0.1,0.7,0.1c0.4,0,0.8,0.1,1.1,0.3c0.3,0.2,0.5,0.4,0.5,0.7c0,0.2-0.2,0.4-0.5,0.8c-0.5,0.5-1.3,0.7-2.5,0.7
						c-1.2,0-2-0.3-2.4-0.8c-0.2-0.3-0.3-2.1-0.4-5.4c0-4.1-0.1-6.5-0.1-7.3L93,287l0.4-0.2C93.7,286.5,94,286.4,94.3,286.3z"/>
					<path class="st3" d="M103.8,284.6c0.4-0.1,0.9-0.2,1.4-0.2c0.6,0,1.1,0.1,1.4,0.2c0.5,0.2,1,0.7,1.3,1.3
						c0.1,0.3,0.2,0.8,0.4,1.6c0.1,0.8,0.2,1.5,0.2,2.1c0,0.3,0,0.5,0,0.6c-0.1,0.5-0.2,1.1-0.4,1.8c-0.2,0.7-0.4,1-0.5,1
						c-0.2,0-0.2,0.1-0.2,0.4c0,0.2,0.1,0.4,0.2,0.7c0.3,0.5,0.8,1.4,1.4,2.7c0.6,1.3,0.9,2.1,1,2.4c0,0.1,0,0.2,0,0.4
						c0,0.3-0.1,0.5-0.2,0.7c-0.2,0.2-0.4,0.4-0.6,0.4c-0.2,0-0.4,0-0.6,0c-0.5-0.1-0.9-0.1-1-0.2c-0.1-0.1-0.2-0.2-0.2-0.5
						c0-0.4-0.2-1.1-0.6-1.9c-0.4-0.9-0.8-1.3-1-1.3h0c-0.1,0-0.1,0.3-0.1,0.7c0,0.6,0.1,1.3,0.2,2.1c0,0.3,0.1,0.6,0.1,0.7
						c0,0.7-0.2,1.1-0.5,1.3c-0.1,0.1-0.3,0.1-0.5,0.1c-0.7,0-1.1-0.2-1.3-0.5c-0.1-0.2-0.2-1.6-0.2-4.2c0-0.9,0-1.8-0.1-2.8
						c0-1,0-1.7,0-2.1s0-1-0.1-1.7c-0.1-0.7-0.1-1.5-0.2-2.4c-0.1-1-0.1-1.6-0.1-1.8c0-0.5,0.1-0.8,0.2-1
						C103.2,284.9,103.4,284.7,103.8,284.6z M105.8,286.9c-0.1-0.2-0.2-0.2-0.3-0.2c-0.1,0-0.2,0.1-0.3,0.2c-0.1,0.1-0.1,0.3,0,0.4
						c0,0,0.1,0.7,0.2,2c0.1,1.3,0.2,2,0.2,2.1c0,0,0.1,0,0.3-0.2c0.1-0.2,0.2-0.5,0.2-1.1c0-0.4,0-0.7,0-1
						C105.9,287.8,105.9,287.1,105.8,286.9z"/>
					<path class="st3" d="M116,286.8c0.4-0.4,0.7-0.6,0.8-0.7c0.2-0.1,0.4-0.1,0.8-0.1c0.9,0,1.4,0.3,1.4,0.9c0,0.6-0.4,1.1-1.3,1.5
						c-0.5,0.3-0.9,1.3-1.3,3.1c-0.1,0.8-0.2,1.6-0.2,2.5c0,0.9,0.1,1.8,0.2,2.7c0.1,1.2,0.3,2,0.5,2.5c0.2,0.5,0.6,0.8,1.1,0.8
						c0.8,0.1,1.3,0.4,1.4,0.7c0,0,0,0.1,0,0.2c0,0.2-0.1,0.4-0.4,0.6c-0.2,0.2-0.5,0.4-0.8,0.4c-0.1,0-0.2,0-0.3,0
						c-0.8,0-1.5-0.2-2.1-0.5c-0.2-0.1-0.5-0.5-0.8-1.1c-0.3-0.6-0.6-1.2-0.7-1.8c-0.2-0.9-0.3-2.4-0.3-4.5c0-0.8,0-1.6,0.1-2.4
						c0.2-1.3,0.4-2.3,0.7-2.9C114.9,288.1,115.3,287.5,116,286.8z"/>
					<path class="st3" d="M123.6,284.5c0.2-0.3,0.6-0.4,1-0.4c0.4,0,0.7,0.1,0.9,0.4l0.4,0.4l0.2,7.1c0.1,3.9,0.2,6.2,0.2,6.7
						c0,0.3,0,0.6,0,0.8c0,0.2,0,0.4,0,0.5c0,0.1,0,0.2-0.1,0.3c0,0.1-0.1,0.1-0.1,0.1c0,0,0,0-0.1,0.1c-0.1,0-0.1,0.1-0.2,0.1
						c-0.2,0.1-0.4,0.2-0.6,0.2c-0.1,0-0.3,0-0.6-0.2c-0.5-0.2-0.8-0.4-0.9-0.5c-0.1-0.1-0.1-2.6-0.2-7.5c0-4.9-0.1-7.4-0.2-7.5
						C123.3,284.9,123.3,284.7,123.6,284.5z"/>
					<path class="st3" d="M132.5,285.2c0.2-0.1,0.5-0.2,0.9-0.2c0.2,0,0.4,0,0.6,0c0.6,0.1,1,0.1,1.2,0.2c0.2,0.1,0.4,0.3,0.6,0.6
						c0.2,0.3,0.3,0.7,0.3,1c0,0.4-0.1,0.7-0.4,1c-0.2,0.2-0.5,0.4-0.8,0.4c-0.3,0-0.6-0.2-0.8-0.5c-0.2-0.3-0.4-0.4-0.6-0.4
						c-0.2,0-0.4,0.1-0.6,0.4c-0.2,0.3-0.3,0.6-0.3,0.9v0.2c0,1.1,0.9,3.3,2.6,6.4c0.3,0.5,0.6,1.4,0.9,2.8c0,0.1,0,0.2,0,0.4
						c0,1.1-0.2,2-0.7,2.7c-0.2,0.3-0.6,0.5-1,0.7c-0.5,0.2-0.9,0.3-1.3,0.3c0,0-0.1,0-0.1,0c0,0-0.1,0-0.1,0
						c-0.5-0.1-1.1-0.4-1.7-1.1c-0.7-0.6-1-1.1-1-1.5c0-0.2,0.1-0.4,0.3-0.6c0.2-0.2,0.4-0.3,0.7-0.4c0,0,0.1,0,0.2,0
						c0.2,0,0.6,0.3,1.1,1c0.2,0.3,0.4,0.4,0.6,0.4c0.2,0,0.4-0.1,0.5-0.4c0-0.1,0.1-0.2,0.1-0.5c0-1.2-0.5-3-1.6-5.3
						c-1-2.2-1.5-3.8-1.5-4.8c0-0.5,0.1-0.9,0.2-1.3c0.3-0.8,0.6-1.4,0.8-1.6C131.7,285.6,132,285.4,132.5,285.2z"/>
					<path class="st3" d="M141.3,286.3c0.2-0.1,0.6-0.1,1-0.1c1.1,0,1.9,0.1,2.2,0.4c0.2,0.2,0.3,0.4,0.3,0.7c0,0.3-0.1,0.5-0.3,0.7
						c-0.2,0.2-0.5,0.3-0.8,0.3c-0.3,0-0.5,0.1-0.6,0.2c-0.1,0.2-0.2,0.5-0.2,1.1c0,0.2,0,0.7,0.1,1.6c0,1,0.1,1.7,0.1,2
						c0.1,0.3,0.1,0.5,0.2,0.5c0,0,0.2,0,0.4,0c0.2,0,0.5,0,0.6,0c0.5,0,0.9,0.1,1.1,0.4c0.1,0.1,0.2,0.3,0.2,0.4
						c0,0.3-0.4,0.6-1.3,1c-0.5,0.2-0.8,0.3-0.9,0.4c-0.1,0.1-0.2,0.3-0.2,0.7c0,0.3-0.1,0.6-0.1,0.9c0,1,0.1,1.8,0.3,2.4
						c0.1,0.2,0.2,0.3,0.3,0.4c0.1,0,0.3,0.1,0.7,0.1c0.4,0,0.8,0.1,1.1,0.3c0.3,0.2,0.5,0.4,0.5,0.7c0,0.2-0.2,0.4-0.5,0.8
						c-0.5,0.5-1.3,0.7-2.5,0.7c-1.2,0-2-0.3-2.4-0.8c-0.2-0.3-0.3-2.1-0.4-5.4c0-4.1-0.1-6.5-0.1-7.3l-0.1-2.3l0.4-0.2
						C140.7,286.5,141,286.4,141.3,286.3z"/>
				</g>
			</g>
			<path class="st4" d="M163.5,108.3c27.9,0,50.5-3.6,50.5-8s-22.6-8-50.5-8s-50.5,3.6-50.5,8S135.6,108.3,163.5,108.3z"/>
			<path class="st5" d="M198.3,91.8l-1.9,6.7c-1,3.3-4.4,5.2-7.7,4.3l-0.4-0.1c-2.9-0.8-4.7-3.5-4.4-6.6l3.1-10.7l9.4,2.7
				C197.8,88.6,198.7,90.2,198.3,91.8z"/>
			<path class="st5" d="M149.5,8.1l-2.7,9.3l-9.6-2.8c-1.6-0.5-2.5-2.1-2-3.7l1.9-6.5c1-3.3,4.4-5.2,7.7-4.3l0.4,0.1
				C148.6,1.3,150.5,4.8,149.5,8.1z"/>
			<path class="st6" d="M188.8,96.3l9.9-34.3l10.6-36.5c0.1-0.2,0.1-0.2,0.1-0.2c0.1-0.2,0.1-0.2,0.1-0.4c0.8-2.9-0.9-6-4-6.9
				L144.9,0.3c0.8,2.2,0.9,4.4,0.3,6.6l-20.5,70.8c-0.1,0.2-0.1,0.2-0.1,0.2c-0.1,0.2-0.1,0.2-0.1,0.4c-0.8,2.9,0.9,6,4,6.9
				l60.7,17.6C188.2,100.7,188.2,98.5,188.8,96.3z"/>
			<path class="st0" d="M145.2,56.6c2.6,0.3,5-1.5,5.3-4.2c0.3-2.6-1.5-5-4.2-5.3c-2.6-0.3-5,1.5-5.3,4.2
				C140.7,53.8,142.6,56.2,145.2,56.6z"/>
			<path class="st6" d="M144.8,54c-0.2,0-0.3-0.1-0.4-0.2l-1.2-1.2c-0.2-0.2-0.2-0.4,0-0.6c0.2-0.2,0.4-0.2,0.6,0l1,1.1l3-2.9
				c0.2-0.2,0.4-0.2,0.6,0c0.2,0.2,0.2,0.4,0,0.6l-3.1,3C145.2,53.9,145,54,144.8,54z"/>
			<path class="st0" d="M154.9,23.1c2.6,0.3,5-1.5,5.3-4.2c0.3-2.6-1.5-5-4.2-5.3c-2.6-0.3-5,1.5-5.3,4.2
				C150.4,20.3,152.3,22.7,154.9,23.1z"/>
			<path class="st6" d="M154.5,20.5c-0.2,0-0.3-0.1-0.4-0.2l-1.2-1.2c-0.2-0.2-0.2-0.4,0-0.6c0.2-0.2,0.4-0.2,0.6,0l1,1.1l3-2.9
				c0.2-0.2,0.4-0.2,0.6,0c0.2,0.2,0.2,0.4,0,0.6l-3.1,3C154.9,20.4,154.7,20.5,154.5,20.5z"/>
			<path class="st0" d="M150,40.1c2.6,0.3,5-1.5,5.3-4.2c0.3-2.6-1.5-5-4.2-5.3c-2.6-0.3-5,1.5-5.3,4.2
				C145.5,37.3,147.4,39.7,150,40.1z"/>
			<path class="st6" d="M149.5,37.5c-0.2,0-0.3-0.1-0.4-0.2L148,36c-0.2-0.2-0.2-0.4,0-0.6c0.2-0.2,0.4-0.2,0.6,0l1,1.1l3-2.9
				c0.2-0.2,0.4-0.2,0.6,0c0.2,0.2,0.2,0.4,0,0.6l-3.1,3C150,37.4,149.8,37.5,149.5,37.5C149.6,37.5,149.6,37.5,149.5,37.5z"/>
			<path class="st0" d="M140.2,73.9c2.6,0.3,5-1.5,5.3-4.2c0.3-2.6-1.5-5-4.2-5.3c-2.6-0.3-5,1.5-5.3,4.2
				C135.7,71.2,137.5,73.6,140.2,73.9z"/>
			<path class="st6" d="M139.7,71.3c-0.2,0-0.3-0.1-0.4-0.2l-1.2-1.2c-0.2-0.2-0.2-0.4,0-0.6c0.2-0.2,0.4-0.2,0.6,0l1,1.1l3-2.9
				c0.2-0.2,0.4-0.2,0.6,0c0.2,0.2,0.2,0.4,0,0.6l-3.1,3C140.1,71.3,139.9,71.3,139.7,71.3z"/>
			<path class="st0" d="M167,19.8l24.8,7.2c1.3,0.4,2.2,1.6,1.8,2.9c-0.4,1.3-1.5,2-2.9,1.6l-25-7.3c-1.3-0.4-2-1.5-1.6-2.9
				C164.5,20,165.6,19.4,167,19.8z"/>
			<path class="st0" d="M162,36.8l24.8,7.2c1.3,0.4,2.2,1.6,1.8,2.9c-0.4,1.3-1.5,2-2.9,1.6l-25.1-7.3c-1.3-0.4-2-1.5-1.6-2.9
				C159.5,37.1,160.7,36.4,162,36.8z"/>
			<path class="st0" d="M175.5,82.3l-24.8-7.2c-1.3-0.4-2.2-1.6-1.8-2.9s1.5-2,2.9-1.6l25,7.3c1.3,0.4,2,1.5,1.6,2.9
				C178,82.1,176.8,82.7,175.5,82.3z"/>
			<path class="st0" d="M180.8,64.2L155.9,57c-1.3-0.4-2.2-1.6-1.8-2.9c0.4-1.3,1.5-2,2.9-1.6l25,7.3c1.3,0.4,2,1.5,1.6,2.9
				C183.2,63.9,182.1,64.6,180.8,64.2z"/>
			<path class="st0" d="M203.5,28.6c-0.1,0-0.1,0-0.2-0.1c-0.3-0.2-0.4-0.5-0.2-0.8c0,0,0.9-1.6,0.1-3.2c-0.7-1.6-2.9-2.8-6.2-3.4
				c-0.3-0.1-0.5-0.3-0.4-0.7c0.1-0.3,0.4-0.5,0.7-0.4c3.7,0.7,6.1,2.1,7,4c1,2.1-0.1,4.1-0.2,4.2C203.9,28.5,203.7,28.6,203.5,28.6
				z"/>
		</g>
	</g>
</g>
</svg>
