<?xml version="1.0" encoding="utf-8"?>
<!-- Generator: Adobe Illustrator 25.1.0, SVG Export Plug-In . SVG Version: 6.00 Build 0)  -->
<svg version="1.1" id="Layer_1" xmlns="http://www.w3.org/2000/svg" xmlns:xlink="http://www.w3.org/1999/xlink" x="0px" y="0px"
	 viewBox="0 0 338.2 204.9" style="enable-background:new 0 0 338.2 204.9;" xml:space="preserve">
<style type="text/css">
	.st0{fill:#FFFFFF;}
	.st1{fill:#808080;}
	.st2{fill:#00CDDC;}
	.st3{fill:#F4F1EF;}
	.st4{fill:#80E6ED;}
	.st5{fill:#DCDCDC;}
</style>
<g>
	<g>
		<path class="st0" d="M338.2,150c0-132.4-8.8-145.7-63.7-145.7c-26.9,0-137.6-4.7-172.7-4.2C67.3,0.6,23.2-3,12.4,10.7
			c-11,14-10.8,33-10.8,69.1c0,56.7-8.8,122.9,14.8,122.9c36.3,0,184.5,3,227.9,2.1C289.2,203.9,338.2,207.8,338.2,150z"/>
		<path class="st1" d="M27.9,37.5V26.3h1.3v11.2H27.9z"/>
		<path class="st1" d="M31.9,37.5v-6.8h-1.2v-1.1h1.2v-1.4c0-0.8,0.2-1.3,0.6-1.7c0.4-0.4,0.9-0.5,1.7-0.5H35v1.1h-0.6
			c-0.4,0-0.7,0.1-0.9,0.2c-0.2,0.2-0.3,0.4-0.3,0.8v1.3h2v1.1h-2v6.8L31.9,37.5L31.9,37.5z"/>
		<path class="st1" d="M41.9,41l2-4.3h-0.5l-3.1-7.2h1.5l2.6,6.2l2.8-6.2h1.4L43.4,41H41.9z"/>
		<path class="st1" d="M52.8,37.7c-0.8,0-1.4-0.2-2-0.5s-1.1-0.8-1.4-1.5s-0.5-1.4-0.5-2.2c0-0.8,0.2-1.6,0.5-2.2s0.8-1.1,1.4-1.5
			c0.6-0.3,1.3-0.5,2-0.5c0.8,0,1.4,0.2,2,0.5s1.1,0.8,1.4,1.5c0.3,0.6,0.5,1.4,0.5,2.2c0,0.8-0.2,1.6-0.5,2.2s-0.8,1.1-1.4,1.5
			S53.6,37.7,52.8,37.7z M52.8,36.6c0.5,0,0.9-0.1,1.3-0.3c0.4-0.2,0.7-0.6,1-1c0.2-0.4,0.4-1,0.4-1.7s-0.1-1.2-0.4-1.7
			c-0.2-0.5-0.6-0.8-1-1s-0.8-0.3-1.3-0.3s-0.9,0.1-1.3,0.3c-0.4,0.2-0.7,0.6-1,1c-0.2,0.4-0.4,1-0.4,1.7s0.1,1.2,0.4,1.7
			c0.2,0.5,0.6,0.8,1,1C52,36.5,52.4,36.6,52.8,36.6z"/>
		<path class="st1" d="M61.6,37.7c-0.9,0-1.7-0.3-2.2-0.9s-0.8-1.5-0.8-2.6v-4.6h1.3v4.5c0,1.6,0.7,2.5,2,2.5c0.7,0,1.3-0.2,1.7-0.7
			c0.5-0.5,0.7-1.2,0.7-2.1v-4.2h1.3v7.9h-1.2l-0.1-1.4c-0.2,0.5-0.6,0.9-1.1,1.2C62.7,37.6,62.2,37.7,61.6,37.7z"/>
		<path class="st1" d="M67.8,37.5v-7.9H69l0.1,1.5c0.2-0.5,0.6-0.9,1.1-1.2s1.1-0.5,1.9-0.5v1.4h-0.4c-0.5,0-0.9,0.1-1.3,0.2
			c-0.4,0.2-0.7,0.4-0.9,0.8c-0.2,0.4-0.3,0.9-0.3,1.6v4h-1.4V37.5z"/>
		<path class="st1" d="M80.9,37.7c-1,0-1.7-0.2-2.4-0.7c-0.6-0.5-1-1.1-1.1-2h1.4c0.1,0.4,0.3,0.8,0.7,1.1c0.3,0.3,0.8,0.5,1.4,0.5
			s1-0.1,1.2-0.4c0.3-0.2,0.4-0.5,0.4-0.9c0-0.5-0.2-0.8-0.5-1c-0.4-0.2-0.8-0.3-1.5-0.4c-0.4-0.1-0.8-0.2-1.3-0.4s-0.8-0.4-1.1-0.7
			c-0.3-0.3-0.4-0.7-0.4-1.2c0-0.7,0.3-1.3,0.8-1.7c0.5-0.4,1.2-0.7,2.1-0.7c0.8,0,1.5,0.2,2.1,0.6c0.5,0.4,0.8,1,0.9,1.8h-1.3
			c-0.1-0.4-0.2-0.7-0.5-1s-0.7-0.3-1.2-0.3s-0.8,0.1-1.1,0.3c-0.3,0.2-0.4,0.5-0.4,0.8s0.2,0.6,0.5,0.8c0.3,0.2,0.8,0.3,1.4,0.5
			c0.5,0.1,1,0.2,1.4,0.4c0.4,0.1,0.8,0.4,1.1,0.7c0.3,0.3,0.4,0.7,0.4,1.3c0,0.7-0.3,1.3-0.8,1.8C82.6,37.5,81.9,37.7,80.9,37.7z"
			/>
		<path class="st1" d="M85.9,37.5V26h1.3v11.5H85.9z"/>
		<path class="st1" d="M93,37.7c-0.8,0-1.4-0.2-2-0.5c-0.6-0.4-1-0.8-1.4-1.4c-0.3-0.6-0.5-1.4-0.5-2.2c0-0.8,0.2-1.6,0.5-2.2
			s0.8-1.1,1.4-1.5s1.3-0.5,2.1-0.5c0.8,0,1.4,0.2,2,0.5c0.6,0.4,1,0.8,1.3,1.4s0.4,1.2,0.4,1.8c0,0.1,0,0.2,0,0.4
			c0,0.1,0,0.2,0,0.4h-6.3c0,0.6,0.2,1.1,0.4,1.5c0.2,0.4,0.6,0.7,0.9,0.9c0.4,0.2,0.8,0.3,1.2,0.3c0.5,0,1-0.1,1.4-0.4
			s0.6-0.6,0.8-1h1.3c-0.2,0.7-0.6,1.4-1.2,1.8C94.7,37.5,93.9,37.7,93,37.7z M93,30.5c-0.6,0-1.2,0.2-1.7,0.6s-0.8,1-0.9,1.7h5
			c0-0.7-0.3-1.3-0.7-1.7C94.2,30.7,93.7,30.5,93,30.5z"/>
		<path class="st1" d="M102.1,37.7c-0.8,0-1.4-0.2-2-0.5c-0.6-0.4-1-0.8-1.4-1.4c-0.3-0.6-0.5-1.4-0.5-2.2c0-0.8,0.2-1.6,0.5-2.2
			s0.8-1.1,1.4-1.5s1.3-0.5,2.1-0.5c0.8,0,1.4,0.2,2,0.5s1,0.8,1.3,1.4s0.4,1.2,0.4,1.8c0,0.1,0,0.2,0,0.4c0,0.1,0,0.2,0,0.4h-6.3
			c0,0.6,0.2,1.1,0.4,1.5c0.2,0.4,0.6,0.7,0.9,0.9c0.4,0.2,0.8,0.3,1.2,0.3c0.5,0,1-0.1,1.4-0.4c0.4-0.2,0.7-0.6,0.8-1h1.3
			c-0.2,0.7-0.6,1.4-1.2,1.8C103.8,37.5,103,37.7,102.1,37.7z M102.1,30.5c-0.6,0-1.2,0.2-1.7,0.6s-0.8,1-0.9,1.7h5
			c0-0.7-0.3-1.3-0.7-1.7C103.3,30.7,102.8,30.5,102.1,30.5z"/>
		<path class="st1" d="M107.6,41V29.6h1.2l0.1,1.3c0.3-0.4,0.6-0.7,1.1-1s1.1-0.5,1.8-0.5c0.8,0,1.5,0.2,2.1,0.5
			c0.6,0.4,1,0.9,1.4,1.5c0.3,0.6,0.5,1.3,0.5,2.1c0,0.8-0.2,1.5-0.5,2.1s-0.8,1.1-1.4,1.5s-1.3,0.5-2.1,0.5c-0.6,0-1.2-0.1-1.7-0.4
			s-0.9-0.6-1.2-1.1V41H107.6z M111.7,36.6c0.5,0,1-0.1,1.4-0.4c0.4-0.2,0.7-0.6,1-1.1c0.2-0.4,0.4-1,0.4-1.6s-0.1-1.1-0.4-1.6
			c-0.2-0.5-0.6-0.8-1-1.1c-0.4-0.2-0.9-0.4-1.4-0.4s-1,0.1-1.4,0.4c-0.4,0.2-0.7,0.6-1,1.1c-0.2,0.4-0.3,1-0.3,1.6s0.1,1.1,0.3,1.6
			c0.2,0.5,0.6,0.8,1,1.1C110.7,36.4,111.2,36.6,111.7,36.6z"/>
		<path class="st1" d="M122.7,27.8c-0.3,0-0.5-0.1-0.7-0.3s-0.3-0.4-0.3-0.7s0.1-0.5,0.3-0.6c0.2-0.2,0.4-0.3,0.7-0.3
			s0.5,0.1,0.7,0.3c0.2,0.2,0.3,0.4,0.3,0.6c0,0.3-0.1,0.5-0.3,0.7C123.2,27.7,123,27.8,122.7,27.8z M122.1,37.5v-7.9h1.3v7.9H122.1
			z"/>
		<path class="st1" d="M128.8,37.7c-0.9,0-1.7-0.2-2.4-0.7c-0.6-0.5-1-1.1-1.1-2h1.4c0.1,0.4,0.3,0.8,0.7,1.1
			c0.4,0.3,0.8,0.5,1.4,0.5s1-0.1,1.2-0.4c0.3-0.2,0.4-0.5,0.4-0.9c0-0.5-0.2-0.8-0.5-1s-0.8-0.3-1.5-0.4c-0.4-0.1-0.8-0.2-1.3-0.4
			c-0.4-0.2-0.8-0.4-1.1-0.7c-0.3-0.3-0.4-0.7-0.4-1.2c0-0.7,0.3-1.3,0.8-1.7c0.5-0.4,1.2-0.7,2.1-0.7c0.8,0,1.5,0.2,2.1,0.6
			c0.5,0.4,0.8,1,0.9,1.8h-1.3c-0.1-0.4-0.2-0.7-0.5-1c-0.3-0.2-0.7-0.3-1.2-0.3s-0.8,0.1-1.1,0.3c-0.3,0.2-0.4,0.5-0.4,0.8
			s0.2,0.6,0.5,0.8c0.3,0.2,0.8,0.3,1.4,0.5c0.5,0.1,1,0.2,1.4,0.4c0.4,0.1,0.8,0.4,1.1,0.7c0.3,0.3,0.4,0.7,0.4,1.3
			c0,0.7-0.3,1.3-0.8,1.8C130.5,37.5,129.7,37.7,128.8,37.7z"/>
		<path class="st1" d="M141.6,37.7c-0.8,0-1.5-0.2-2.1-0.5c-0.6-0.4-1.1-0.9-1.4-1.5c-0.3-0.6-0.5-1.3-0.5-2.1s0.2-1.5,0.5-2.1
			s0.8-1.1,1.4-1.5c0.6-0.4,1.3-0.5,2.1-0.5c0.7,0,1.2,0.1,1.7,0.4s0.9,0.6,1.2,1.1v-4.9h1.3v11.5h-1.2l-0.1-1.3
			c-0.3,0.4-0.6,0.7-1.1,1S142.3,37.7,141.6,37.7z M141.7,36.6c0.5,0,1-0.1,1.4-0.4c0.4-0.2,0.7-0.6,1-1.1c0.2-0.4,0.3-1,0.3-1.6
			s-0.1-1.1-0.3-1.6s-0.6-0.8-1-1.1c-0.4-0.2-0.9-0.4-1.4-0.4s-1,0.1-1.4,0.4s-0.7,0.6-1,1.1c-0.2,0.4-0.3,1-0.3,1.6
			s0.1,1.1,0.3,1.6s0.5,0.8,1,1.1S141.2,36.6,141.7,36.6z"/>
		<path class="st1" d="M148.8,27.8c-0.3,0-0.5-0.1-0.7-0.3s-0.3-0.4-0.3-0.7s0.1-0.5,0.3-0.6c0.2-0.2,0.4-0.3,0.7-0.3
			s0.5,0.1,0.7,0.3c0.2,0.2,0.3,0.4,0.3,0.6c0,0.3-0.1,0.5-0.3,0.7C149.3,27.7,149.1,27.8,148.8,27.8z M148.2,37.5v-7.9h1.3v7.9
			H148.2z"/>
		<path class="st1" d="M154.9,37.7c-1,0-1.7-0.2-2.4-0.7c-0.6-0.5-1-1.1-1.1-2h1.4c0.1,0.4,0.3,0.8,0.7,1.1c0.4,0.3,0.8,0.5,1.4,0.5
			c0.6,0,1-0.1,1.2-0.4c0.3-0.2,0.4-0.5,0.4-0.9c0-0.5-0.2-0.8-0.5-1c-0.4-0.2-0.8-0.3-1.5-0.4c-0.4-0.1-0.9-0.2-1.3-0.4
			c-0.4-0.2-0.8-0.4-1.1-0.7c-0.3-0.3-0.4-0.7-0.4-1.2c0-0.7,0.3-1.3,0.8-1.7c0.5-0.4,1.2-0.7,2.1-0.7c0.8,0,1.5,0.2,2.1,0.6
			c0.5,0.4,0.8,1,0.9,1.8h-1.3c-0.1-0.4-0.2-0.7-0.5-1c-0.3-0.2-0.7-0.3-1.2-0.3s-0.8,0.1-1.1,0.3c-0.3,0.2-0.4,0.5-0.4,0.8
			s0.2,0.6,0.5,0.8c0.3,0.2,0.8,0.3,1.4,0.5c0.5,0.1,1,0.2,1.4,0.4c0.4,0.1,0.8,0.4,1.1,0.7c0.3,0.3,0.4,0.7,0.4,1.3
			c0,0.7-0.3,1.3-0.8,1.8C156.6,37.5,155.8,37.7,154.9,37.7z"/>
		<path class="st1" d="M162.6,37.5c-0.7,0-1.3-0.2-1.7-0.5c-0.4-0.4-0.6-1-0.6-1.9v-4.4h-1.4v-1.1h1.4l0.2-1.9h1.2v1.9h2.3v1.1h-2.3
			v4.4c0,0.5,0.1,0.8,0.3,1s0.6,0.3,1.1,0.3h0.8v1.2h-1.3V37.5z"/>
		<path class="st1" d="M168.6,37.7c-0.9,0-1.7-0.3-2.2-0.9s-0.8-1.5-0.8-2.6v-4.6h1.3v4.5c0,1.6,0.7,2.5,2,2.5
			c0.7,0,1.3-0.2,1.7-0.7s0.7-1.2,0.7-2.1v-4.2h1.3v7.9h-1.2l-0.1-1.4c-0.2,0.5-0.6,0.9-1.1,1.2C169.7,37.6,169.2,37.7,168.6,37.7z"
			/>
		<path class="st1" d="M174.8,37.5v-7.9h1.2l0.1,1.5c0.2-0.5,0.6-0.9,1.1-1.2s1.1-0.5,1.9-0.5v1.4h-0.4c-0.5,0-0.9,0.1-1.3,0.2
			c-0.4,0.2-0.7,0.4-0.9,0.8s-0.4,0.9-0.4,1.6v4h-1.3V37.5z"/>
		<path class="st1" d="M184.9,37.7c-0.7,0-1.2-0.1-1.7-0.4s-0.9-0.6-1.2-1.1l-0.1,1.3h-1.2V26h1.3v4.9c0.3-0.4,0.6-0.7,1.1-1
			s1.1-0.5,1.8-0.5c0.8,0,1.5,0.2,2.1,0.5c0.6,0.4,1,0.9,1.4,1.5c0.3,0.6,0.5,1.3,0.5,2.1s-0.2,1.5-0.5,2.1s-0.8,1.1-1.4,1.5
			C186.4,37.5,185.7,37.7,184.9,37.7z M184.8,36.6c0.5,0,1-0.1,1.4-0.4c0.4-0.2,0.7-0.6,1-1.1c0.2-0.4,0.4-1,0.4-1.6
			s-0.1-1.1-0.4-1.6c-0.2-0.5-0.6-0.8-1-1.1c-0.4-0.2-0.9-0.4-1.4-0.4s-1,0.1-1.4,0.4s-0.7,0.6-1,1.1c-0.2,0.4-0.3,1-0.3,1.6
			s0.1,1.1,0.3,1.6s0.6,0.8,1,1.1S184.2,36.6,184.8,36.6z"/>
		<path class="st1" d="M194.3,37.7c-0.8,0-1.4-0.2-2-0.5c-0.6-0.4-1.1-0.8-1.4-1.4c-0.3-0.6-0.5-1.4-0.5-2.2c0-0.8,0.2-1.6,0.5-2.2
			s0.8-1.1,1.4-1.5c0.6-0.4,1.3-0.5,2.1-0.5s1.4,0.2,2,0.5c0.6,0.4,1,0.8,1.3,1.4s0.4,1.2,0.4,1.8c0,0.1,0,0.2,0,0.4
			c0,0.1,0,0.2,0,0.4h-6.3c0,0.6,0.2,1.1,0.4,1.5s0.6,0.7,0.9,0.9c0.4,0.2,0.8,0.3,1.2,0.3c0.6,0,1-0.1,1.4-0.4s0.7-0.6,0.8-1h1.3
			c-0.2,0.7-0.6,1.4-1.2,1.8C196,37.5,195.2,37.7,194.3,37.7z M194.3,30.5c-0.6,0-1.2,0.2-1.7,0.6s-0.8,1-0.9,1.7h5
			c0-0.7-0.3-1.3-0.7-1.7C195.5,30.7,194.9,30.5,194.3,30.5z"/>
		<path class="st1" d="M203.4,37.7c-0.8,0-1.5-0.2-2.1-0.5c-0.6-0.4-1.1-0.9-1.4-1.5c-0.3-0.6-0.5-1.3-0.5-2.1s0.2-1.5,0.5-2.1
			s0.8-1.1,1.4-1.5c0.6-0.4,1.3-0.5,2.1-0.5c0.6,0,1.2,0.1,1.7,0.4s0.9,0.6,1.2,1.1v-4.9h1.3v11.5h-1.2l-0.1-1.3
			c-0.3,0.4-0.6,0.7-1.1,1S204.1,37.7,203.4,37.7z M203.6,36.6c0.5,0,1-0.1,1.4-0.4c0.4-0.2,0.7-0.6,1-1.1c0.2-0.4,0.3-1,0.3-1.6
			s-0.1-1.1-0.3-1.6s-0.6-0.8-1-1.1c-0.4-0.2-0.9-0.4-1.4-0.4s-1,0.1-1.4,0.4s-0.7,0.6-1,1.1c-0.2,0.4-0.3,1-0.3,1.6
			s0.1,1.1,0.3,1.6s0.6,0.8,1,1.1S203,36.6,203.6,36.6z"/>
		<path class="st1" d="M32,59.7c-0.6,0-1.2-0.1-1.7-0.4s-0.9-0.6-1.2-1.1L29,59.5h-1.2V48h1.3v4.9c0.3-0.4,0.6-0.7,1.1-1
			s1.1-0.5,1.8-0.5c0.8,0,1.5,0.2,2.1,0.5c0.6,0.4,1,0.9,1.4,1.5c0.3,0.6,0.5,1.3,0.5,2.1s-0.2,1.5-0.5,2.1s-0.8,1.1-1.4,1.5
			C33.5,59.5,32.8,59.7,32,59.7z M31.9,58.6c0.5,0,1-0.1,1.4-0.4s0.7-0.6,1-1.1c0.2-0.4,0.4-1,0.4-1.6s-0.1-1.1-0.4-1.6
			c-0.2-0.5-0.5-0.8-1-1.1s-0.9-0.4-1.4-0.4s-1,0.1-1.4,0.4s-0.7,0.6-1,1.1c-0.2,0.4-0.4,1-0.4,1.6s0.1,1.1,0.4,1.6
			c0.2,0.5,0.5,0.8,1,1.1S31.3,58.6,31.9,58.6z"/>
		<path class="st1" d="M38.1,63l2-4.3h-0.5l-3.1-7.2H38l2.6,6.2l2.8-6.2h1.4L39.6,63H38.1z"/>
		<path class="st1" d="M50.3,59.5v-7.9h1.2l0.1,1.4c0.3-0.5,0.6-0.9,1.1-1.2c0.5-0.3,1-0.4,1.6-0.4c0.9,0,1.7,0.3,2.2,0.9
			c0.6,0.6,0.8,1.5,0.8,2.6v4.6H56V55c0-1.7-0.7-2.5-2-2.5c-0.7,0-1.2,0.2-1.7,0.7c-0.4,0.5-0.7,1.2-0.7,2.1v4.1L50.3,59.5
			L50.3,59.5z"/>
		<path class="st1" d="M63,59.7c-0.8,0-1.4-0.2-2-0.5c-0.6-0.4-1.1-0.8-1.4-1.4c-0.3-0.6-0.5-1.4-0.5-2.2c0-0.8,0.2-1.6,0.5-2.2
			s0.8-1.1,1.4-1.5c0.6-0.4,1.3-0.5,2.1-0.5s1.4,0.2,2,0.5c0.6,0.4,1,0.8,1.3,1.4s0.5,1.2,0.5,1.8c0,0.1,0,0.2,0,0.4s0,0.2,0,0.4
			h-6.3c0,0.6,0.2,1.1,0.4,1.5s0.6,0.7,0.9,0.9c0.4,0.2,0.8,0.3,1.2,0.3c0.6,0,1-0.1,1.4-0.4s0.6-0.6,0.8-1h1.3
			c-0.2,0.7-0.6,1.4-1.2,1.8C64.8,59.5,64,59.7,63,59.7z M63,52.5c-0.6,0-1.2,0.2-1.7,0.6s-0.8,1-0.9,1.7h5c0-0.7-0.3-1.3-0.7-1.7
			C64.3,52.7,63.7,52.5,63,52.5z"/>
		<path class="st1" d="M72.1,59.7c-0.8,0-1.4-0.2-2-0.5c-0.6-0.4-1.1-0.8-1.4-1.4s-0.5-1.4-0.5-2.2c0-0.8,0.2-1.6,0.5-2.2
			s0.8-1.1,1.4-1.5s1.3-0.5,2.1-0.5c0.8,0,1.4,0.2,2,0.5c0.6,0.4,1,0.8,1.3,1.4s0.5,1.2,0.5,1.8c0,0.1,0,0.2,0,0.4
			c0,0.1,0,0.2,0,0.4h-6.3c0,0.6,0.2,1.1,0.4,1.5c0.2,0.4,0.6,0.7,0.9,0.9c0.4,0.2,0.8,0.3,1.2,0.3c0.6,0,1-0.1,1.4-0.4
			s0.6-0.6,0.8-1h1.3c-0.2,0.7-0.6,1.4-1.2,1.8C73.9,59.5,73.1,59.7,72.1,59.7z M72.1,52.5c-0.6,0-1.2,0.2-1.7,0.6s-0.8,1-0.9,1.7h5
			c0-0.7-0.3-1.3-0.7-1.7C73.4,52.7,72.8,52.5,72.1,52.5z"/>
		<path class="st1" d="M81.3,59.7c-0.8,0-1.5-0.2-2.1-0.5c-0.6-0.4-1-0.9-1.4-1.5c-0.3-0.6-0.5-1.3-0.5-2.1s0.2-1.5,0.5-2.1
			s0.8-1.1,1.4-1.5s1.3-0.5,2.1-0.5c0.7,0,1.2,0.1,1.7,0.4s0.9,0.6,1.2,1.1v-4.9h1.3v11.5h-1.2l-0.1-1.3c-0.3,0.4-0.6,0.7-1.1,1
			C82.6,59.6,82,59.7,81.3,59.7z M81.4,58.6c0.5,0,1-0.1,1.4-0.4c0.4-0.2,0.7-0.6,1-1.1c0.2-0.4,0.3-1,0.3-1.6s-0.1-1.1-0.3-1.6
			c-0.2-0.5-0.6-0.8-1-1.1c-0.4-0.2-0.9-0.4-1.4-0.4s-1,0.1-1.4,0.4c-0.4,0.2-0.7,0.6-1,1.1c-0.2,0.4-0.3,1-0.3,1.6s0.1,1.1,0.3,1.6
			c0.2,0.5,0.5,0.8,1,1.1C80.4,58.4,80.9,58.6,81.4,58.6z"/>
		<path class="st1" d="M88.5,49.8c-0.3,0-0.5-0.1-0.7-0.3c-0.2-0.2-0.3-0.4-0.3-0.7s0.1-0.5,0.3-0.6c0.2-0.2,0.4-0.3,0.7-0.3
			s0.5,0.1,0.7,0.3c0.2,0.2,0.3,0.4,0.3,0.6c0,0.3-0.1,0.5-0.3,0.7S88.8,49.8,88.5,49.8z M87.9,59.5v-7.9h1.3v7.9H87.9z"/>
		<path class="st1" d="M91.6,59.5v-7.9h1.2l0.1,1.4c0.3-0.5,0.6-0.9,1.1-1.2c0.5-0.3,1-0.4,1.6-0.4c0.9,0,1.7,0.3,2.2,0.9
			s0.8,1.5,0.8,2.6v4.6h-1.3V55c0-1.7-0.7-2.5-2.1-2.5c-0.7,0-1.2,0.2-1.7,0.7c-0.4,0.5-0.7,1.2-0.7,2.1v4.1L91.6,59.5L91.6,59.5z"
			/>
		<path class="st1" d="M103.8,57c-0.5,0-0.9-0.1-1.2-0.2l-0.8,0.8c0.1,0.1,0.3,0.2,0.4,0.2s0.4,0.1,0.8,0.2c0.3,0,0.8,0.1,1.4,0.1
			c1.1,0.1,1.8,0.3,2.3,0.7c0.5,0.4,0.7,1,0.7,1.6c0,0.5-0.1,0.9-0.4,1.3c-0.2,0.4-0.6,0.8-1.2,1c-0.5,0.3-1.2,0.4-2,0.4
			c-0.7,0-1.3-0.1-1.9-0.3c-0.5-0.2-1-0.5-1.3-0.9s-0.5-0.9-0.5-1.4c0-0.3,0.1-0.6,0.2-1c0.2-0.4,0.5-0.7,0.9-1
			c-0.2-0.1-0.4-0.2-0.6-0.3c-0.2-0.1-0.3-0.2-0.5-0.4v-0.4l1.4-1.3c-0.6-0.5-0.9-1.2-0.9-2.1c0-0.5,0.1-1,0.4-1.4
			c0.2-0.4,0.6-0.8,1.1-1s1-0.4,1.7-0.4c0.5,0,0.9,0.1,1.2,0.2h2.9v1l-1.5,0.1c0.3,0.5,0.5,1,0.5,1.6c0,0.5-0.1,1-0.4,1.4
			c-0.2,0.4-0.6,0.8-1.1,1C105.1,56.9,104.5,57,103.8,57z M101.5,60.6c0,0.5,0.2,0.9,0.7,1.2c0.4,0.3,1,0.4,1.7,0.4s1.2-0.1,1.6-0.4
			s0.6-0.7,0.6-1.1c0-0.3-0.1-0.6-0.4-0.9s-0.8-0.4-1.5-0.4c-0.6,0-1.1-0.1-1.5-0.2c-0.4,0.2-0.7,0.5-0.9,0.8
			C101.6,60.1,101.5,60.3,101.5,60.6z M103.8,55.9c0.6,0,1-0.1,1.3-0.4s0.5-0.7,0.5-1.3c0-0.5-0.2-1-0.5-1.3s-0.8-0.4-1.3-0.4
			c-0.6,0-1,0.1-1.4,0.4c-0.3,0.3-0.5,0.7-0.5,1.3c0,0.6,0.2,1,0.5,1.3S103.3,55.9,103.8,55.9z"/>
		<path class="st1" d="M116.9,59.5c-0.7,0-1.3-0.2-1.7-0.5c-0.4-0.4-0.6-1-0.6-1.9v-4.4h-1.4v-1.1h1.4l0.2-1.9h1.2v1.9h2.3v1.1H116
			v4.4c0,0.5,0.1,0.8,0.3,1c0.2,0.2,0.6,0.3,1.1,0.3h0.8v1.2h-1.3V59.5z"/>
		<path class="st1" d="M123.4,59.7c-0.8,0-1.4-0.2-2-0.5s-1.1-0.8-1.4-1.5c-0.4-0.6-0.5-1.4-0.5-2.2c0-0.8,0.2-1.6,0.5-2.2
			c0.4-0.6,0.8-1.1,1.4-1.5c0.6-0.3,1.3-0.5,2-0.5c0.8,0,1.4,0.2,2,0.5s1.1,0.8,1.4,1.5c0.4,0.6,0.5,1.4,0.5,2.2
			c0,0.8-0.2,1.6-0.5,2.2c-0.4,0.6-0.8,1.1-1.4,1.5C124.8,59.5,124.1,59.7,123.4,59.7z M123.4,58.6c0.5,0,0.9-0.1,1.3-0.3
			c0.4-0.2,0.7-0.6,1-1c0.2-0.4,0.4-1,0.4-1.7s-0.1-1.2-0.4-1.7c-0.2-0.5-0.6-0.8-1-1s-0.8-0.3-1.3-0.3s-0.9,0.1-1.3,0.3
			c-0.4,0.2-0.7,0.6-1,1c-0.2,0.4-0.4,1-0.4,1.7s0.1,1.2,0.4,1.7c0.2,0.5,0.6,0.8,1,1C122.5,58.5,122.9,58.6,123.4,58.6z"/>
		<path class="st1" d="M136.4,59.7c-0.9,0-1.7-0.3-2.2-0.9c-0.6-0.6-0.8-1.5-0.8-2.6v-4.6h1.3v4.5c0,1.6,0.7,2.5,2,2.5
			c0.7,0,1.3-0.2,1.7-0.7s0.7-1.2,0.7-2.1v-4.2h1.3v7.9h-1.2l-0.1-1.4c-0.2,0.5-0.6,0.9-1.1,1.2C137.5,59.6,137,59.7,136.4,59.7z"/>
		<path class="st1" d="M142.6,59.5v-7.9h1.2l0.1,1.5c0.2-0.5,0.6-0.9,1.1-1.2s1.1-0.5,1.9-0.5v1.4h-0.4c-0.5,0-0.9,0.1-1.3,0.2
			c-0.4,0.2-0.7,0.4-0.9,0.8s-0.3,0.9-0.3,1.6v4h-1.4V59.5z"/>
		<path class="st1" d="M149.2,49.8c-0.3,0-0.5-0.1-0.7-0.3c-0.2-0.2-0.3-0.4-0.3-0.7s0.1-0.5,0.3-0.6c0.2-0.2,0.4-0.3,0.7-0.3
			s0.5,0.1,0.7,0.3c0.2,0.2,0.3,0.4,0.3,0.6c0,0.3-0.1,0.5-0.3,0.7C149.7,49.7,149.5,49.8,149.2,49.8z M148.6,59.5v-7.9h1.3v7.9
			H148.6z"/>
		<path class="st1" d="M152.2,59.5v-7.9h1.2l0.1,1.4c0.3-0.5,0.6-0.9,1.1-1.2c0.5-0.3,1-0.4,1.6-0.4c0.9,0,1.7,0.3,2.2,0.9
			c0.6,0.6,0.8,1.5,0.8,2.6v4.6H158V55c0-1.7-0.7-2.5-2.1-2.5c-0.7,0-1.2,0.2-1.7,0.7c-0.4,0.5-0.7,1.2-0.7,2.1v4.1L152.2,59.5
			L152.2,59.5z"/>
		<path class="st1" d="M164,59.7c-0.7,0-1.2-0.1-1.7-0.3c-0.4-0.2-0.8-0.5-1-0.9s-0.3-0.8-0.3-1.2c0-0.8,0.3-1.4,0.9-1.9
			s1.5-0.7,2.5-0.7h2.1v-0.1c0-0.7-0.2-1.2-0.5-1.6c-0.4-0.4-0.9-0.5-1.5-0.5c-0.5,0-1,0.1-1.3,0.4c-0.4,0.3-0.6,0.6-0.7,1.1h-1.4
			c0.1-0.6,0.2-1.1,0.6-1.5c0.3-0.4,0.8-0.7,1.3-0.9c0.5-0.2,1-0.3,1.6-0.3c1.1,0,1.9,0.3,2.5,0.9s0.8,1.4,0.8,2.4v4.9h-1.2
			l-0.1-1.4c-0.2,0.5-0.6,0.8-1,1.1C165.3,59.6,164.8,59.7,164,59.7z M164.2,58.6c0.5,0,0.9-0.1,1.3-0.4c0.4-0.3,0.6-0.6,0.8-1
			s0.3-0.9,0.3-1.3l0,0h-2c-0.8,0-1.3,0.1-1.7,0.4c-0.3,0.3-0.5,0.6-0.5,1s0.1,0.8,0.5,1C163.3,58.5,163.7,58.6,164.2,58.6z"/>
		<path class="st1" d="M173,59.5c-0.7,0-1.3-0.2-1.7-0.5c-0.4-0.4-0.6-1-0.6-1.9v-4.4h-1.4v-1.1h1.4l0.2-1.9h1.2v1.9h2.3v1.1H172
			v4.4c0,0.5,0.1,0.8,0.3,1s0.6,0.3,1.1,0.3h0.8v1.2H173V59.5z"/>
		<path class="st1" d="M179.4,59.7c-0.8,0-1.4-0.2-2-0.5s-1.1-0.8-1.4-1.4c-0.3-0.6-0.5-1.4-0.5-2.2c0-0.8,0.2-1.6,0.5-2.2
			s0.8-1.1,1.4-1.5s1.3-0.5,2.1-0.5s1.4,0.2,2,0.5s1,0.8,1.3,1.4s0.4,1.2,0.4,1.8c0,0.1,0,0.2,0,0.4s0,0.2,0,0.4h-6.3
			c0,0.6,0.2,1.1,0.4,1.5s0.6,0.7,0.9,0.9c0.4,0.2,0.8,0.3,1.2,0.3c0.5,0,1-0.1,1.4-0.4s0.6-0.6,0.8-1h1.3c-0.2,0.7-0.6,1.4-1.2,1.8
			C181.1,59.5,180.3,59.7,179.4,59.7z M179.4,52.5c-0.6,0-1.2,0.2-1.7,0.6s-0.8,1-0.9,1.7h5c0-0.7-0.3-1.3-0.7-1.7
			C180.6,52.7,180,52.5,179.4,52.5z"/>
		<path class="st1" d="M183.8,61.4l0.9-3.5h1.4l-1.4,3.5H183.8z"/>
		<path class="st1" d="M28.6,136.8c-0.3,0-0.5-0.1-0.7-0.3c-0.2-0.2-0.3-0.4-0.3-0.7s0.1-0.5,0.3-0.6c0.2-0.2,0.4-0.3,0.7-0.3
			c0.3,0,0.5,0.1,0.7,0.3c0.2,0.2,0.3,0.4,0.3,0.6c0,0.3-0.1,0.5-0.3,0.7C29.1,136.8,28.9,136.8,28.6,136.8z M27.9,146.5v-7.9h1.3
			v7.9H27.9L27.9,146.5z"/>
		<path class="st1" d="M31.6,146.5v-7.9h1.2l0.1,1.4c0.3-0.5,0.6-0.9,1.1-1.2c0.5-0.3,1-0.4,1.6-0.4c0.9,0,1.7,0.3,2.2,0.9
			c0.6,0.6,0.8,1.5,0.8,2.6v4.6h-1.3V142c0-1.7-0.7-2.5-2-2.5c-0.7,0-1.2,0.2-1.7,0.7s-0.7,1.2-0.7,2.1v4.1L31.6,146.5L31.6,146.5z"
			/>
		<path class="st1" d="M48.1,146.5c-0.7,0-1.3-0.2-1.7-0.5c-0.4-0.4-0.6-1-0.6-1.9v-4.4h-1.4v-1.1h1.4l0.2-1.9h1.2v1.9h2.3v1.1h-2.3
			v4.4c0,0.5,0.1,0.8,0.3,1s0.6,0.3,1.1,0.3h0.8v1.2L48.1,146.5L48.1,146.5z"/>
		<path class="st1" d="M51.2,146.5V135h1.3v4.9c0.3-0.5,0.7-0.9,1.1-1.1c0.5-0.3,1-0.4,1.6-0.4c0.9,0,1.7,0.3,2.2,0.9
			c0.6,0.6,0.8,1.5,0.8,2.6v4.6H57V142c0-1.6-0.7-2.5-2-2.5c-0.7,0-1.3,0.2-1.7,0.7c-0.5,0.5-0.7,1.2-0.7,2.1v4.1L51.2,146.5
			L51.2,146.5z"/>
		<path class="st1" d="M63.9,146.7c-0.8,0-1.4-0.2-2-0.5s-1-0.8-1.4-1.5c-0.3-0.6-0.5-1.3-0.5-2.2c0-0.8,0.2-1.6,0.5-2.2
			s0.8-1.1,1.4-1.5c0.6-0.4,1.3-0.5,2.1-0.5c0.8,0,1.4,0.2,2,0.5s1,0.8,1.3,1.4s0.5,1.2,0.5,1.8c0,0.1,0,0.2,0,0.3s0,0.2,0,0.4h-6.3
			c0,0.6,0.2,1.1,0.4,1.5s0.6,0.7,0.9,0.9c0.4,0.2,0.8,0.3,1.2,0.3c0.6,0,1-0.1,1.4-0.4s0.6-0.6,0.8-1h1.3c-0.2,0.7-0.6,1.3-1.2,1.8
			C65.6,146.5,64.8,146.7,63.9,146.7z M63.9,139.5c-0.6,0-1.2,0.2-1.7,0.6s-0.8,1-0.9,1.7h5c0-0.7-0.3-1.3-0.7-1.7
			C65.1,139.8,64.6,139.5,63.9,139.5z"/>
		<path class="st1" d="M73.6,146.5v-0.9c0.8-0.6,1.5-1.2,2.2-1.8c0.7-0.6,1.3-1.2,1.8-1.8c0.5-0.6,0.9-1.2,1.2-1.8
			c0.3-0.6,0.5-1.1,0.5-1.7c0-0.4-0.1-0.8-0.2-1.1c-0.1-0.3-0.3-0.6-0.7-0.8s-0.7-0.3-1.2-0.3s-0.9,0.1-1.2,0.3
			c-0.3,0.2-0.6,0.5-0.7,0.9c-0.2,0.4-0.2,0.8-0.2,1.2h-1.3c0-0.7,0.2-1.4,0.5-1.9s0.7-0.9,1.3-1.2c0.5-0.3,1.1-0.4,1.8-0.4
			c1,0,1.8,0.3,2.4,0.8c0.6,0.6,0.9,1.4,0.9,2.5c0,0.7-0.2,1.3-0.5,2c-0.3,0.6-0.8,1.3-1.3,1.9s-1.1,1.2-1.6,1.7
			c-0.6,0.5-1.1,1-1.6,1.4H81v1.1h-7.4V146.5z"/>
		<path class="st1" d="M87.1,146.5V135h1.3v4.9c0.3-0.5,0.7-0.9,1.1-1.1c0.5-0.3,1-0.4,1.6-0.4c0.9,0,1.7,0.3,2.2,0.9
			c0.6,0.6,0.8,1.5,0.8,2.6v4.6h-1.3V142c0-1.6-0.7-2.5-2-2.5c-0.7,0-1.3,0.2-1.7,0.7c-0.5,0.5-0.7,1.2-0.7,2.1v4.1L87.1,146.5
			L87.1,146.5z"/>
		<path class="st1" d="M99.8,146.7c-0.8,0-1.4-0.2-2-0.5s-1.1-0.8-1.4-1.5c-0.3-0.6-0.5-1.4-0.5-2.2c0-0.8,0.2-1.6,0.5-2.2
			s0.8-1.1,1.4-1.5c0.6-0.3,1.3-0.5,2-0.5c0.8,0,1.4,0.2,2,0.5s1.1,0.8,1.4,1.5c0.3,0.6,0.5,1.4,0.5,2.2c0,0.8-0.2,1.6-0.5,2.2
			s-0.8,1.1-1.4,1.5C101.3,146.6,100.6,146.7,99.8,146.7z M99.8,145.6c0.5,0,0.9-0.1,1.3-0.3c0.4-0.2,0.7-0.6,1-1s0.4-1,0.4-1.7
			s-0.1-1.2-0.4-1.7c-0.2-0.4-0.6-0.8-1-1s-0.8-0.3-1.3-0.3s-0.9,0.1-1.3,0.3c-0.4,0.2-0.7,0.6-1,1s-0.4,1-0.4,1.7s0.1,1.2,0.4,1.7
			s0.6,0.8,1,1C99,145.5,99.4,145.6,99.8,145.6z"/>
		<path class="st1" d="M108.6,146.7c-0.9,0-1.7-0.3-2.2-0.9s-0.8-1.5-0.8-2.6v-4.6h1.3v4.5c0,1.7,0.7,2.5,2,2.5
			c0.7,0,1.3-0.2,1.7-0.7c0.4-0.5,0.7-1.2,0.7-2.1v-4.2h1.3v7.9h-1.2l-0.1-1.4c-0.2,0.5-0.6,0.9-1.1,1.2
			C109.7,146.6,109.2,146.7,108.6,146.7z"/>
		<path class="st1" d="M114.8,146.5v-7.9h1.2l0.1,1.5c0.2-0.5,0.6-0.9,1.1-1.2s1.1-0.5,1.9-0.5v1.4h-0.4c-0.5,0-0.9,0.1-1.3,0.2
			c-0.4,0.2-0.7,0.5-0.9,0.8c-0.2,0.4-0.4,0.9-0.4,1.6v4L114.8,146.5L114.8,146.5z"/>
		<path class="st1" d="M123.7,146.7c-0.9,0-1.7-0.2-2.4-0.7c-0.6-0.5-1-1.1-1.1-1.9h1.4c0.1,0.4,0.3,0.8,0.7,1.1
			c0.4,0.3,0.8,0.5,1.4,0.5s1-0.1,1.2-0.4s0.4-0.5,0.4-0.9c0-0.5-0.2-0.8-0.5-1c-0.4-0.2-0.8-0.3-1.5-0.4c-0.4-0.1-0.8-0.2-1.3-0.4
			c-0.4-0.2-0.8-0.4-1.1-0.7c-0.3-0.3-0.4-0.7-0.4-1.2c0-0.7,0.3-1.3,0.8-1.7c0.5-0.4,1.2-0.7,2.1-0.7c0.8,0,1.5,0.2,2.1,0.6
			c0.5,0.4,0.9,1,0.9,1.8h-1.3c0-0.4-0.2-0.7-0.5-1c-0.3-0.2-0.7-0.3-1.2-0.3s-0.8,0.1-1.1,0.3c-0.3,0.2-0.4,0.5-0.4,0.8
			s0.2,0.6,0.5,0.8c0.3,0.2,0.8,0.3,1.4,0.5c0.5,0.1,1,0.2,1.4,0.4c0.4,0.2,0.8,0.4,1.1,0.7s0.4,0.7,0.4,1.3c0,0.7-0.3,1.3-0.8,1.8
			C125.4,146.5,124.6,146.7,123.7,146.7z"/>
		<path class="st1" d="M32,168.7c-0.6,0-1.2-0.1-1.7-0.4s-0.9-0.6-1.2-1.1l-0.1,1.3h-1.2V157h1.3v4.9c0.3-0.4,0.6-0.7,1.1-1
			s1.1-0.5,1.8-0.5c0.8,0,1.5,0.2,2.1,0.5c0.6,0.4,1,0.9,1.4,1.5c0.3,0.6,0.5,1.3,0.5,2.1s-0.2,1.5-0.5,2.1s-0.8,1.1-1.4,1.5
			C33.5,168.6,32.8,168.7,32,168.7z M31.9,167.6c0.5,0,1-0.1,1.4-0.4c0.4-0.2,0.7-0.6,1-1c0.2-0.5,0.4-1,0.4-1.6s-0.1-1.1-0.4-1.6
			c-0.2-0.5-0.6-0.8-1-1s-0.9-0.4-1.4-0.4s-1,0.1-1.4,0.4s-0.7,0.6-1,1c-0.2,0.5-0.4,1-0.4,1.6s0.1,1.1,0.4,1.6c0.2,0.4,0.5,0.8,1,1
			S31.3,167.6,31.9,167.6z"/>
		<path class="st1" d="M41.4,168.7c-0.8,0-1.4-0.2-2-0.5s-1-0.8-1.4-1.5c-0.3-0.6-0.5-1.3-0.5-2.2c0-0.8,0.2-1.6,0.5-2.2
			s0.8-1.1,1.4-1.5c0.6-0.4,1.3-0.5,2.1-0.5s1.4,0.2,2,0.5s1,0.8,1.3,1.4s0.5,1.2,0.5,1.8c0,0.1,0,0.2,0,0.3c0,0.1,0,0.2,0,0.4H39
			c0,0.6,0.2,1.1,0.4,1.5s0.6,0.7,0.9,0.9s0.8,0.3,1.2,0.3c0.5,0,1-0.1,1.4-0.4s0.6-0.6,0.8-1H45c-0.2,0.7-0.6,1.3-1.2,1.8
			C43.1,168.5,42.3,168.7,41.4,168.7z M41.4,161.5c-0.6,0-1.2,0.2-1.7,0.6s-0.8,1-0.9,1.7h5c0-0.7-0.3-1.3-0.7-1.7
			C42.6,161.8,42.1,161.5,41.4,161.5z"/>
		<path class="st1" d="M47.4,168.5v-6.8h-1.2v-1.1h1.2v-1.4c0-0.8,0.2-1.3,0.6-1.7s0.9-0.5,1.7-0.5h0.8v1.2h-0.6
			c-0.4,0-0.7,0.1-0.9,0.2s-0.3,0.5-0.3,0.8v1.3h2v1.1h-2v6.8L47.4,168.5L47.4,168.5z"/>
		<path class="st1" d="M55.6,168.7c-0.8,0-1.4-0.2-2-0.5s-1.1-0.8-1.4-1.5c-0.3-0.6-0.5-1.4-0.5-2.2c0-0.8,0.2-1.6,0.5-2.2
			s0.8-1.1,1.4-1.5c0.6-0.3,1.3-0.5,2-0.5c0.8,0,1.4,0.2,2,0.5s1.1,0.8,1.4,1.5c0.3,0.6,0.5,1.4,0.5,2.2c0,0.8-0.2,1.6-0.5,2.2
			s-0.8,1.1-1.4,1.5C57,168.6,56.3,168.7,55.6,168.7z M55.6,167.6c0.5,0,0.9-0.1,1.3-0.3s0.7-0.6,1-1s0.4-1,0.4-1.7
			s-0.1-1.2-0.4-1.7s-0.6-0.8-1-1s-0.8-0.3-1.3-0.3s-0.9,0.1-1.3,0.3c-0.4,0.2-0.7,0.6-1,1s-0.4,1-0.4,1.7s0.1,1.2,0.4,1.7
			s0.6,0.8,1,1C54.7,167.5,55.1,167.6,55.6,167.6z"/>
		<path class="st1" d="M61.4,168.5v-7.9h1.2l0.1,1.5c0.2-0.5,0.6-0.9,1.1-1.2c0.5-0.3,1.1-0.5,1.9-0.5v1.4h-0.4
			c-0.5,0-0.9,0.1-1.3,0.2c-0.4,0.2-0.7,0.5-0.9,0.8c-0.2,0.4-0.3,0.9-0.3,1.6v4L61.4,168.5L61.4,168.5z"/>
		<path class="st1" d="M70.5,168.7c-0.8,0-1.4-0.2-2-0.5s-1-0.8-1.4-1.5c-0.3-0.6-0.5-1.3-0.5-2.2c0-0.8,0.2-1.6,0.5-2.2
			s0.8-1.1,1.4-1.5s1.3-0.5,2.1-0.5c0.8,0,1.4,0.2,2,0.5s1,0.8,1.3,1.4s0.4,1.2,0.4,1.8c0,0.1,0,0.2,0,0.3c0,0.1,0,0.2,0,0.4H68
			c0,0.6,0.2,1.1,0.4,1.5c0.2,0.4,0.6,0.7,0.9,0.9c0.4,0.2,0.8,0.3,1.2,0.3c0.5,0,1-0.1,1.4-0.4s0.7-0.6,0.8-1H74
			c-0.2,0.7-0.6,1.3-1.2,1.8C72.2,168.5,71.4,168.7,70.5,168.7z M70.5,161.5c-0.6,0-1.2,0.2-1.7,0.6s-0.8,1-0.9,1.7h5
			c0-0.7-0.3-1.3-0.7-1.7C71.7,161.8,71.2,161.5,70.5,161.5z"/>
		<path class="st1" d="M84.5,168.7c-0.7,0-1.2-0.1-1.7-0.4s-0.9-0.6-1.2-1.1l-0.1,1.3h-1.2V157h1.3v4.9c0.3-0.4,0.6-0.7,1.1-1
			s1.1-0.5,1.8-0.5c0.8,0,1.5,0.2,2.1,0.5c0.6,0.4,1,0.9,1.4,1.5s0.5,1.3,0.5,2.1s-0.2,1.5-0.5,2.1s-0.8,1.1-1.4,1.5
			C86,168.6,85.3,168.7,84.5,168.7z M84.4,167.6c0.5,0,1-0.1,1.4-0.4s0.7-0.6,1-1c0.2-0.5,0.3-1,0.3-1.6s-0.1-1.1-0.3-1.6
			c-0.2-0.5-0.6-0.8-1-1s-0.9-0.4-1.4-0.4s-1,0.1-1.4,0.4c-0.4,0.2-0.7,0.6-1,1c-0.2,0.5-0.3,1-0.3,1.6s0.1,1.1,0.3,1.6
			c0.2,0.4,0.5,0.8,1,1C83.4,167.4,83.8,167.6,84.4,167.6z"/>
		<path class="st1" d="M93.9,168.7c-0.8,0-1.4-0.2-2-0.5s-1-0.8-1.4-1.5c-0.3-0.6-0.5-1.3-0.5-2.2c0-0.8,0.2-1.6,0.5-2.2
			s0.8-1.1,1.4-1.5s1.3-0.5,2.1-0.5c0.8,0,1.4,0.2,2,0.5s1,0.8,1.3,1.4s0.4,1.2,0.4,1.8c0,0.1,0,0.2,0,0.3c0,0.1,0,0.2,0,0.4h-6.3
			c0,0.6,0.2,1.1,0.4,1.5c0.2,0.4,0.6,0.7,0.9,0.9c0.4,0.2,0.8,0.3,1.2,0.3c0.6,0,1-0.1,1.4-0.4s0.7-0.6,0.8-1h1.3
			c-0.2,0.7-0.6,1.3-1.2,1.8C95.6,168.5,94.8,168.7,93.9,168.7z M93.9,161.5c-0.6,0-1.2,0.2-1.7,0.6s-0.8,1-0.9,1.7h5
			c0-0.7-0.3-1.3-0.7-1.7C95.1,161.8,94.5,161.5,93.9,161.5z"/>
		<path class="st1" d="M103,168.7c-0.8,0-1.5-0.2-2.1-0.5c-0.6-0.4-1-0.9-1.4-1.5s-0.5-1.3-0.5-2.1c0-0.8,0.2-1.5,0.5-2.1
			s0.8-1.1,1.4-1.5s1.3-0.5,2.1-0.5c0.7,0,1.2,0.1,1.7,0.4s0.9,0.6,1.2,1.1v-4.9h1.3v11.5H106l-0.1-1.3c-0.3,0.4-0.6,0.7-1.1,1
			S103.7,168.7,103,168.7z M103.2,167.6c0.5,0,1-0.1,1.4-0.4c0.4-0.2,0.7-0.6,1-1c0.2-0.5,0.3-1,0.3-1.6s-0.1-1.1-0.3-1.6
			c-0.2-0.5-0.5-0.8-1-1c-0.4-0.2-0.9-0.4-1.4-0.4s-1,0.1-1.4,0.4c-0.4,0.2-0.7,0.6-1,1c-0.2,0.5-0.3,1-0.3,1.6s0.1,1.1,0.3,1.6
			c0.2,0.4,0.6,0.8,1,1C102.2,167.4,102.6,167.6,103.2,167.6z"/>
		<path class="st1" d="M109.9,168.6c-0.3,0-0.5-0.1-0.7-0.3s-0.3-0.4-0.3-0.7c0-0.3,0.1-0.5,0.3-0.6c0.2-0.2,0.4-0.3,0.7-0.3
			c0.3,0,0.5,0.1,0.6,0.3c0.2,0.2,0.3,0.4,0.3,0.6c0,0.3-0.1,0.5-0.3,0.7C110.4,168.5,110.2,168.6,109.9,168.6z"/>
		<path class="st2" d="M27.1,72.3c0.2-0.2,0.5-0.4,0.8-0.4c0.2,0,0.4,0,0.6,0c0.6,0.1,1,0.2,1.2,0.4c0.3,0.4,0.5,2.8,0.5,7.2v2.4V84
			c0,3.5,0,5.4,0.1,5.6c0.1,0.5,0.5,0.7,1.3,0.7c0.4,0,0.7,0,0.9,0s0.5,0,0.8,0c0.5,0,0.8,0.1,1,0.2s0.3,0.4,0.3,0.8
			c0,0.3,0,0.5-0.2,0.7c-0.1,0.1-0.4,0.3-0.8,0.6c-0.7,0.4-1.5,0.6-2.3,0.6c-1.1,0-1.7,0.1-1.7,0.1s-0.1,0-0.3,0
			c-0.3,0-0.7-0.1-1.1-0.3c-0.4-0.2-0.7-0.4-0.9-0.6c-0.4-0.5-0.6-1.8-0.6-4.1c0-0.5,0-1.6,0.1-3.1c0-1.4,0.1-2.9,0.1-4.5
			c0-3.8-0.1-6.2-0.2-7.2c0-0.4-0.1-0.6-0.1-0.7C26.7,72.8,26.8,72.6,27.1,72.3z"/>
		<path class="st2" d="M39.1,72.8c0.3-0.3,0.7-0.5,1.2-0.5s0.9,0.2,1.2,0.5l0.5,0.5l0.2,9c0.1,4.9,0.2,7.8,0.2,8.5c0,0.4,0,0.7,0,1
			c0,0.2,0,0.5,0,0.6c0,0.2,0,0.3-0.1,0.4s-0.1,0.1-0.1,0.2s-0.1,0.1-0.2,0.1c-0.1,0.1-0.2,0.1-0.2,0.1c-0.3,0.2-0.5,0.3-0.7,0.3
			c-0.1,0-0.3-0.1-0.8-0.2c-0.6-0.3-1-0.5-1.1-0.7c-0.1-0.1-0.2-3.3-0.2-9.5s-0.1-9.4-0.2-9.5C38.7,73.3,38.8,73.1,39.1,72.8z"/>
		<path class="st2" d="M56.4,72.7c0.3-0.1,0.7-0.2,0.9-0.2c0.7,0,1.2,0.2,1.5,0.7c0.2,0.3,0.4,1.4,0.6,3.4c0.2,2,0.4,4.1,0.4,6.4
			c0,0.7,0.1,1.8,0.1,3.2c0.1,1.4,0.1,2.6,0.2,3.6c0,1,0.1,1.8,0.1,2.4c0,0.3-0.2,0.6-0.6,0.9c-0.4,0.2-0.8,0.4-1.3,0.4
			c-0.4,0-0.7-0.1-0.9-0.2l-0.5-0.4l-0.1-4.8c-0.2-5.5-0.4-8.2-0.7-8.2c-0.2,0-0.5,0.7-0.9,2.1c-0.2,0.8-0.5,1.3-0.7,1.6
			c-0.2,0.3-0.6,0.5-0.9,0.5c-0.3,0-0.6-0.1-1-0.2c-0.5-0.2-0.8-0.6-1.1-1.2C51.2,82,51,81.6,51,81.6c0-0.1-0.1-0.3-0.2-0.5
			c-0.2-0.3-0.3-0.5-0.5-0.8C50.1,80.1,50,80,50,80v0.5c0,1.1,0,2.8,0.1,5.1l0.2,5.5l-0.5,0.8c-0.6,0.9-1.1,1.3-1.5,1.3
			c-0.3,0-0.5-0.2-0.8-0.6c-0.2-0.3-0.3-0.8-0.4-1.5c-0.1-0.7-0.1-2.6-0.2-5.9c-0.2-6.1-0.3-9.6-0.4-10.4c0-0.1,0-0.2,0-0.4
			c0-0.3,0.1-0.6,0.4-0.9c0.3-0.3,0.7-0.5,1.1-0.5c0.4,0,0.9,0.1,1.5,0.4c0.5,0.2,0.9,0.6,1.2,1s0.9,1.6,2,3.5
			c0.3,0.5,0.5,0.8,0.6,0.8s0.3-0.2,0.4-0.5c0.1-0.5,0.4-1,0.7-1.6c0.4-0.8,0.5-1.2,0.5-1.3c0-0.2,0.2-0.6,0.5-1.2
			C56,73.1,56.2,72.8,56.4,72.7z"/>
		<path class="st2" d="M64.6,72.8c0.3-0.3,0.7-0.5,1.2-0.5s0.9,0.2,1.2,0.5l0.5,0.5l0.2,9c0.1,4.9,0.2,7.8,0.2,8.5c0,0.4,0,0.7,0,1
			c0,0.2,0,0.5,0,0.6c0,0.2-0.1,0.3-0.1,0.4c-0.1,0.1-0.1,0.1-0.1,0.2s-0.1,0.1-0.2,0.1c-0.1,0.1-0.2,0.1-0.2,0.1
			c-0.3,0.2-0.5,0.3-0.7,0.3c-0.1,0-0.3-0.1-0.8-0.2c-0.6-0.3-1-0.5-1.1-0.7c-0.1-0.1-0.2-3.3-0.2-9.5c-0.1-6.2-0.1-9.4-0.2-9.5
			C64.2,73.3,64.3,73.1,64.6,72.8z"/>
		<path class="st2" d="M72.8,71.6c0.4-0.3,1-0.5,1.8-0.5h0.9c1.4,0,2.3,0.1,2.6,0.2c0.2,0.1,0.5,0.1,1.1,0.1s1,0.2,1.3,0.4
			c0.3,0.2,0.4,0.5,0.4,1s-0.1,0.9-0.3,1.1c-0.2,0.2-0.5,0.4-1,0.4c-0.5,0.1-0.9,0.2-0.9,0.3c-0.1,0.1-0.2,2.6-0.2,7.6
			c0,3.4,0,5.8,0.1,7.2c0.1,1.1,0.1,1.7,0.1,1.8c0,0.6-0.1,1-0.4,1.4c-0.3,0.5-0.7,0.8-1.3,0.8c-0.4,0-0.8-0.1-1.2-0.4L75,92.6
			l0.1-9c0-2.3,0.1-4.7,0.1-7c0-1.4-0.1-2.2-0.3-2.3c-0.3-0.2-0.5-0.2-0.6-0.2s-0.2,0-0.4,0c-0.5,0-0.9-0.1-1.2-0.4s-0.5-0.6-0.5-1
			C72.2,72.4,72.4,72,72.8,71.6z"/>
		<path class="st2" d="M97,72.5c0.7,0,1.4-0.1,2-0.1s1,0,1.3,0c1.2,0,2,0.2,2.2,0.5s0.4,0.6,0.4,0.8c0,0.7-0.6,1.1-1.8,1.4
			c-0.3,0.1-1,0.2-2,0.5l-0.9,0.2v2.6c0,1.3,0,2,0.1,2.3c0,0.2,0.2,0.4,0.5,0.5c0.3,0.2,0.7,0.2,1.2,0.2s0.8,0.1,1,0.4
			s0.3,0.6,0.3,0.9c0,0.6-0.5,1.1-1.6,1.3c-0.6,0.2-1,0.3-1.1,0.4s-0.1,0.3-0.1,0.6c0,0.3,0.2,2.4,0.5,6.3l0.1,1
			c0,0.3-0.2,0.5-0.5,0.7c-0.2,0.1-0.5,0.2-0.9,0.2c-0.5,0-1.1-0.2-1.6-0.7c-0.4-0.4-0.7-0.9-0.7-1.4v-0.3c0-0.3,0-0.7,0-1.4
			c0-0.7,0-1.2,0-1.6c0-5.1-0.1-8.9-0.3-11.4c-0.1-1-0.1-1.8-0.1-2.3c0-0.7,0.1-1.1,0.4-1.3C95.5,72.7,96.1,72.6,97,72.5z"/>
		<path class="st2" d="M107.3,72.3c0.2-0.2,0.5-0.4,0.8-0.4c0.2,0,0.4,0,0.6,0c0.6,0.1,1,0.2,1.2,0.4c0.3,0.4,0.5,2.8,0.5,7.2v2.4
			V84c0,3.5,0,5.4,0.1,5.6c0.1,0.5,0.5,0.7,1.3,0.7c0.4,0,0.7,0,1,0c0.2,0,0.5,0,0.8,0c0.5,0,0.9,0.1,1.1,0.2s0.3,0.4,0.3,0.8
			c0,0.3-0.1,0.5-0.2,0.7c-0.1,0.1-0.4,0.3-0.8,0.6c-0.7,0.4-1.5,0.6-2.3,0.6c-1.1,0-1.7,0.1-1.7,0.1s-0.2,0-0.3,0
			c-0.3,0-0.7-0.1-1.1-0.3c-0.4-0.2-0.7-0.4-0.9-0.6c-0.4-0.5-0.6-1.8-0.6-4.1c0-0.5,0-1.6,0.1-3.1c0.1-1.4,0.1-2.9,0.1-4.5
			c0-3.8-0.1-6.2-0.2-7.2c-0.1-0.4-0.1-0.6-0.1-0.7C106.9,72.8,107.1,72.6,107.3,72.3z"/>
		<path class="st2" d="M119.4,71.4c0.3-0.2,0.7-0.4,1.2-0.4c0.6,0,1,0.1,1.4,0.4l0.5,0.4v4.8c0.1,5.6,0.2,9.5,0.6,11.6
			c0.1,0.4,0.2,0.6,0.2,0.6c0.3,0,0.5-0.8,0.6-2.5c0.3-3.4,0.5-6.7,0.5-10v-0.7v-0.5c0-1.8,0.2-2.8,0.6-3.1c0.1-0.1,0.4-0.2,0.8-0.2
			c0.7,0,1.2,0.1,1.5,0.4c0.4,0.4,0.6,1.5,0.6,3.2c0,1.4-0.1,4.2-0.4,8.1c-0.2,3.3-0.5,5.6-1.1,7c-0.5,1.4-1.3,2.2-2.5,2.6
			c-0.5,0.2-0.8,0.2-0.9,0.2s-0.6-0.1-1.3-0.4c-1.4-0.7-2.3-1.8-2.4-3.3c-0.2-1.3-0.3-5.6-0.4-12.8c0-1.1,0-2.2,0-3.4
			c0-0.8,0-1.3,0.1-1.6C119.2,71.7,119.3,71.5,119.4,71.4z"/>
		<path class="st2" d="M132.5,72.8c0.3-0.3,0.7-0.5,1.2-0.5s0.9,0.2,1.2,0.5l0.5,0.5l0.2,9c0.1,4.9,0.2,7.8,0.2,8.5c0,0.4,0,0.7,0,1
			c0,0.2,0,0.5,0,0.6c0,0.2-0.1,0.3-0.1,0.4c-0.1,0.1-0.1,0.1-0.1,0.2s-0.1,0.1-0.2,0.1c-0.1,0.1-0.2,0.1-0.2,0.1
			c-0.3,0.2-0.5,0.3-0.7,0.3c-0.1,0-0.3-0.1-0.8-0.2c-0.6-0.3-1-0.5-1.1-0.7c-0.1-0.1-0.2-3.3-0.2-9.5c-0.1-6.2-0.1-9.4-0.2-9.5
			C132.1,73.3,132.2,73.1,132.5,72.8z"/>
		<path class="st2" d="M140.5,73.4c0.1,0,0.8,0,2,0c1.4,0,2.4,0.3,3.1,0.9c0.7,0.6,1.3,1.6,1.7,3.1c0.4,1.4,0.6,3.1,0.6,4.9
			c0,0.4,0,0.8-0.1,1.3c-0.1,0.4-0.2,1-0.3,1.8s-0.2,1.5-0.3,2.1s-0.2,1.1-0.4,1.3c-0.1,0.2-0.2,0.4-0.2,0.7c0,0.2-0.1,0.6-0.4,1.1
			s-0.5,1-0.7,1.2c-0.3,0.4-0.8,0.7-1.4,1s-1.2,0.5-1.8,0.5c-0.5,0-0.8,0.1-0.8,0.1c-0.3,0-0.6-0.1-0.9-0.4l-0.6-0.5v-6.7v-2
			c0-3.3,0-5.1-0.1-5.4c-0.2-1.1-0.2-2-0.2-2.8C139.8,74.2,140,73.5,140.5,73.4z M144.2,78.2c-0.4-1.4-0.7-2.1-1-2.1l-0.1,0.1v0.1
			c0,0,0,0.1,0,0.3c0,0.1,0,0.2,0,0.3c0,0.3,0,1.1,0.1,2.3c0.1,1.4,0.1,3.2,0.2,5.5c0,2.2,0.1,3.3,0.3,3.3c0.1,0,0.1-0.2,0.3-0.5
			c0.5-1.7,0.8-3.5,0.8-5.4C144.7,80.5,144.6,79.3,144.2,78.2z"/>
		<path class="st2" d="M27.3,102.6c0.3-0.3,0.7-0.5,1.2-0.5s0.9,0.2,1.2,0.5l0.5,0.5l0.2,8.9c0.1,4.9,0.2,7.8,0.2,8.5
			c0,0.4,0,0.7,0,1c0,0.2,0,0.5,0,0.6c0,0.2,0,0.3-0.1,0.4s-0.1,0.2-0.1,0.2s-0.1,0.1-0.2,0.1s-0.2,0.1-0.2,0.1
			c-0.3,0.2-0.5,0.3-0.7,0.3c-0.1,0-0.3-0.1-0.8-0.2c-0.6-0.3-1-0.5-1.1-0.7c-0.1-0.1-0.2-3.3-0.2-9.5s-0.1-9.4-0.2-9.5
			C26.9,103.2,27,102.9,27.3,102.6z"/>
		<path class="st2" d="M35.7,101.5c0.4-0.2,0.8-0.3,1.2-0.3c0.8,0,1.3,0.5,1.6,1.5c0.2,0.8,0.5,1.6,0.9,2.4s0.7,1.5,0.8,2
			c0.3,0.9,0.5,1.4,0.7,1.6c0.1,0.1,0.1,0.2,0.2,0.2c0.1,0,0.2-0.6,0.3-1.7s0.1-1.8,0.1-2.1v-0.5c0-0.2,0-0.5,0-0.8
			c0-0.7,0.2-1.2,0.5-1.5c0.3-0.4,0.8-0.6,1.5-0.6c0.5,0,0.9,0.1,1.1,0.4c0.2,0.2,0.4,0.5,0.4,0.9c0,0.5,0,1-0.1,1.4
			c0,0.4-0.1,3.7-0.2,9.6c0,3.7,0,6-0.1,6.7c0,0.8-0.1,1.2-0.3,1.4c-0.3,0.3-0.7,0.4-1.3,0.4c-1.1,0-1.8-0.5-2-1.7
			c-0.1-0.4-0.3-1.2-0.8-2.4c-0.4-1.1-0.7-2-0.8-2.8c-0.2-1.1-0.6-2.5-1.2-4.4c0-0.2-0.1-0.2-0.1-0.2c-0.1,0-0.2,1.1-0.2,3.3v1.9
			v2.1c0,2.1,0,3.4-0.2,3.6c-0.3,0.8-0.8,1.2-1.7,1.2c-0.5,0-0.9-0.2-1.2-0.5c-0.2-0.3-0.4-0.5-0.4-0.8c0,0,0-0.3,0.1-0.7
			c0.1-0.9,0.2-4,0.2-9.5c0-6.1,0.1-9.3,0.2-9.7c0-0.2,0.2-0.4,0.4-0.4C35.6,101.6,35.6,101.5,35.7,101.5z"/>
		<path class="st2" d="M49.8,101.5c0.4-0.3,1-0.5,1.8-0.5h0.9c1.4,0,2.3,0.1,2.6,0.2c0.2,0.1,0.5,0.1,1.1,0.1s1,0.2,1.3,0.4
			c0.3,0.2,0.4,0.5,0.4,1s-0.1,0.9-0.3,1.1s-0.5,0.4-1,0.4c-0.6,0.1-0.9,0.2-0.9,0.3c-0.1,0.1-0.2,2.7-0.2,7.6c0,3.4,0,5.8,0.1,7.2
			c0.1,1.1,0.1,1.7,0.1,1.8c0,0.5-0.1,1-0.4,1.4c-0.3,0.5-0.7,0.8-1.3,0.8c-0.4,0-0.8-0.1-1.2-0.4l-0.8-0.4l0.1-9
			c0.1-2.3,0.1-4.7,0.1-7c0-1.4-0.1-2.2-0.3-2.3c-0.3-0.2-0.5-0.2-0.6-0.2s-0.2,0-0.4,0c-0.5,0-0.9-0.1-1.2-0.4s-0.5-0.6-0.5-1
			C49.2,102.2,49.4,101.8,49.8,101.5z"/>
		<path class="st2" d="M65.2,102.7c0.7-0.7,1.7-1,3.1-1c0.6,0,1.1,0.1,1.5,0.3c0.6,0.3,1,1,1.2,2.2c0.2,1,0.4,2.7,0.7,5.1
			c0.3,2.4,0.4,4.3,0.5,5.6c0,1.2,0.1,2.6,0.3,4.1c0.1,1.5,0.3,2.4,0.3,2.5c0,0,0,0.1,0,0.2c0,0.2-0.1,0.5-0.3,0.9
			c-0.2,0.3-0.4,0.5-0.6,0.6c0,0-0.2,0-0.4,0c-0.4,0-0.8-0.1-1.3-0.3c-0.5-0.2-0.8-0.4-0.9-0.6s-0.2-0.9-0.4-2.2
			c-0.2-1.2-0.2-2.3-0.2-3.1c0-0.7-0.1-1.1-0.2-1.2s-0.7-0.1-1.8-0.1c-0.9,0-1.4,0-1.4,0.1s0,0.3,0,0.5c0,0.6,0,1.3,0.1,2.1
			c0.1,1,0.1,1.9,0.1,2.5v0.4c0,0.2-0.2,0.3-0.6,0.5s-0.7,0.2-1,0.2c-0.2,0-0.3,0-0.4,0c-0.9-0.3-1.4-0.6-1.5-1.1c0,0,0-0.1,0-0.2
			s0-0.2,0-0.3c0-1.1,0.1-3.5,0.4-7.1c0.3-3.6,0.5-5.7,0.6-6.3c0.2-0.7,0.5-1.5,0.9-2.5C64.4,103.7,64.9,103.1,65.2,102.7z
			 M67.9,106.8c-0.2-0.8-0.3-1.2-0.6-1.2c-0.2,0-0.4,0.3-0.6,0.8c-0.5,1.1-0.8,2.5-1,4.4c0,0.8-0.1,1.2-0.1,1.3
			c0,0.4,0.1,0.6,0.2,0.7s0.5,0.2,1.1,0.2c0.8,0,1.2-0.1,1.3-0.2c0.1-0.1,0.1-0.4,0.1-1C68.4,109.9,68.2,108.3,67.9,106.8z"/>
		<path class="st2" d="M83.5,102.1c0.3-0.3,0.7-0.4,0.9-0.4c0.2,0,0.5,0.1,1,0.3c0.5,0.3,0.8,0.5,0.8,0.8c0,0.4-0.5,1.5-1.6,3.4
			c-0.3,0.5-0.5,1-0.8,1.5s-0.5,0.9-0.7,1.2c-0.2,0.3-0.3,0.5-0.5,0.8s-0.3,0.5-0.4,0.6c-0.1,0.2-0.1,0.3-0.2,0.4s-0.1,0.2-0.1,0.3
			c0,0.1,0,0.1,0,0.2c0,0.3,0.2,0.8,0.7,1.5c0.5,0.8,0.8,1.3,0.8,1.4s0.1,0.4,0.4,0.8c0.3,0.3,0.6,0.9,0.9,1.8
			c0.2,0.6,0.5,1.2,0.9,1.8c1.2,1.8,1.8,3,1.8,3.8c0,0.7-0.5,1.1-1.6,1.1h-0.1c-0.7,0-1.1-0.1-1.3-0.3c-0.2-0.2-0.5-0.7-0.8-1.5
			c-0.2-0.5-0.5-1.1-0.9-1.8c-0.4-0.6-0.6-1.2-0.8-1.6c-0.2-0.6-0.6-1.4-1.1-2.2c-0.5-0.8-0.8-1.2-0.9-1.2s-0.2,0.3-0.2,0.8
			c0,1,0.1,2.5,0.4,4.7c0.1,0.7,0.1,1.2,0.1,1.5c0,0.5-0.1,0.8-0.3,0.9s-0.6,0.2-1.2,0.3c-0.4,0-0.6,0.1-0.6,0.1
			c-0.3,0-0.5-0.2-0.8-0.5s-0.5-0.8-0.5-1.5c0-0.1,0-0.2,0-0.5s0-0.5,0-0.7c0.1-1,0.1-2.3,0.1-3.9c0-2.2,0-4.5-0.1-6.9l-0.1-6.5
			l0.5-0.2c0.2-0.1,0.3-0.1,0.4-0.1c0.2,0,0.5,0.1,0.9,0.4l0.8,0.4l0.1,2.6c0,1.7,0.1,2.6,0.2,2.6s0.6-0.6,1.3-1.8
			c0.7-1.2,1.2-2.2,1.5-2.8C82.8,103,83.1,102.5,83.5,102.1z"/>
		<path class="st2" d="M93.2,102.5c0.3-0.1,0.7-0.1,1.3-0.1c1.4,0,2.4,0.2,2.7,0.5c0.3,0.2,0.4,0.5,0.4,0.9s-0.1,0.6-0.4,0.9
			c-0.3,0.2-0.6,0.4-1,0.4s-0.7,0.1-0.8,0.3s-0.2,0.7-0.2,1.4c0,0.2,0,0.9,0.1,2c0.1,1.3,0.1,2.1,0.2,2.5s0.2,0.6,0.3,0.6
			c0,0,0.2,0,0.5,0s0.6,0,0.8,0c0.6,0,1.1,0.2,1.4,0.5c0.2,0.2,0.3,0.4,0.3,0.5c0,0.4-0.6,0.8-1.7,1.2c-0.7,0.2-1.1,0.4-1.2,0.5
			s-0.2,0.4-0.3,0.9c-0.1,0.4-0.1,0.8-0.1,1.1c0,1.3,0.1,2.3,0.4,3c0.1,0.3,0.2,0.4,0.4,0.5c0.1,0.1,0.4,0.1,0.8,0.1
			c0.6,0,1,0.1,1.4,0.4c0.4,0.2,0.6,0.5,0.6,0.9c0,0.2-0.2,0.5-0.6,0.9c-0.6,0.6-1.7,0.9-3.2,0.9s-2.5-0.3-3-1
			c-0.3-0.3-0.4-2.6-0.5-6.8c-0.1-5.2-0.1-8.3-0.2-9.2l-0.1-2.9l0.5-0.3C92.5,102.8,92.9,102.6,93.2,102.5z"/>
		<path class="st3" d="M211.1,173.8c41.7,0,75.6-3.9,75.6-8.8s-33.8-8.8-75.6-8.8s-75.5,3.9-75.5,8.8S169.4,173.8,211.1,173.8z"/>
		<path class="st4" d="M207.1,54.7l24.2,59.9c0.6,1.5,2.5,2.2,4.3,1.8c1.8-0.5,2.8-2.1,2.2-3.5c-7.3-18.1-14.7-36.2-22-54.4
			C214.6,55.5,210.7,53.8,207.1,54.7z"/>
		<path class="st5" d="M175.7,132.9v30c0,1.9,1.6,3.5,3.5,3.5H246v-1.5c-2.8-3.4-5.5-6.8-8.3-10.1c-3.4-4.2-5.3-9.6-5.3-15v-5.4
			c-15.4,0.6-31.8,0-47.4,0C181.9,134.3,178.8,133.8,175.7,132.9z"/>
		<path class="st5" d="M241.5,52.3v57.4h24.9c3.9,0,7.1-2.8,7.7-6.7l7.3-50.7L241.5,52.3L241.5,52.3z"/>
		<path class="st2" d="M157.9,112c0,14.9,12.2,27.1,27.1,27.1h46c16.6,0,31.3-13.3,32.6-30.2H161C159.3,109,157.9,110.3,157.9,112z"
			/>
		<path class="st2" d="M239.5,53.8L239.5,53.8h42.7c5.8-0.2,5.6-8.9-0.2-8.9h-42.3C234.1,44.9,233.8,53.5,239.5,53.8z"/>
	</g>
</g>
</svg>
