<?xml version="1.0" encoding="utf-8"?>
<!-- Generator: Adobe Illustrator 25.1.0, SVG Export Plug-In . SVG Version: 6.00 Build 0)  -->
<svg version="1.1" id="Layer_1" xmlns="http://www.w3.org/2000/svg" xmlns:xlink="http://www.w3.org/1999/xlink" x="0px" y="0px"
	 viewBox="0 0 332.6 145.5" style="enable-background:new 0 0 332.6 145.5;" xml:space="preserve">
<style type="text/css">
	.st0{fill:#FFFFFF;}
	.st1{fill:#808080;}
	.st2{fill:#00CDDC;}
	.st3{fill:#F4F1EF;}
	.st4{fill:#BFBFBF;}
	.st5{fill:#32DCD2;}
</style>
<g>
	<g>
		<path class="st0" d="M332.5,100.7c-1.6-27.4,4.8-67.1-21.1-86.6C282.5-7.7,120.1,2.4,85.6,1.8C69.1,1.5,17.9,2,8.9,18.5
			c-13.4,24.4-7.3,39-8.5,67.2c-1.2,27.6-1,54,38.6,54.9c73.2,1.8,156.9,7.5,226.1,3.5C298.4,142.1,335.1,146.7,332.5,100.7z"/>
		<path class="st1" d="M27.3,35.3V25.2H24v-1.1h8v1.1h-3.3v10.1H27.3z"/>
		<path class="st1" d="M32.6,35.3v-7.9h1.2l0.1,1.5c0.2-0.5,0.6-0.9,1.1-1.2s1.1-0.5,1.9-0.5v1.4h-0.4c-0.5,0-0.9,0.1-1.3,0.2
			c-0.4,0.2-0.7,0.5-0.9,0.8c-0.2,0.4-0.4,0.9-0.4,1.6v4h-1.3V35.3z"/>
		<path class="st1" d="M39.3,38.8l2-4.3h-0.5l-3.2-7.2h1.5l2.6,6.2l2.8-6.2h1.4l-5.2,11.5H39.3z"/>
		<path class="st1" d="M54.7,35.3c-0.7,0-1.3-0.2-1.7-0.5c-0.4-0.4-0.6-1-0.6-1.9v-4.4H51v-1.1h1.4l0.2-1.9h1.2v1.9h2.3v1.1h-2.3
			v4.4c0,0.5,0.1,0.8,0.3,1s0.6,0.3,1.1,0.3H56v1.1H54.7z"/>
		<path class="st1" d="M61.2,35.5c-0.8,0-1.4-0.2-2-0.5s-1.1-0.8-1.4-1.4s-0.5-1.4-0.5-2.2c0-0.8,0.2-1.6,0.5-2.2s0.8-1.1,1.4-1.5
			c0.6-0.3,1.3-0.5,2-0.5s1.4,0.2,2,0.5s1.1,0.8,1.4,1.5c0.3,0.6,0.5,1.4,0.5,2.2c0,0.8-0.2,1.6-0.5,2.2s-0.8,1.1-1.4,1.4
			S61.9,35.5,61.2,35.5z M61.2,34.3c0.5,0,0.9-0.1,1.3-0.3c0.4-0.2,0.7-0.6,1-1s0.4-1,0.4-1.7s-0.1-1.2-0.4-1.7
			c-0.2-0.5-0.6-0.8-0.9-1c-0.4-0.2-0.8-0.3-1.3-0.3s-0.9,0.1-1.3,0.3c-0.4,0.2-0.7,0.6-1,1s-0.4,1-0.4,1.7s0.1,1.2,0.4,1.7
			c0.2,0.5,0.6,0.8,0.9,1C60.3,34.2,60.7,34.3,61.2,34.3z"/>
		<path class="st1" d="M27.7,122.3c-0.7,0-1.3-0.2-1.7-0.5s-0.6-1-0.6-1.9v-4.4H24v-1.1h1.4l0.2-1.9h1.2v1.9h2.3v1.1h-2.3v4.4
			c0,0.5,0.1,0.8,0.3,1s0.6,0.3,1.1,0.3H29v1.2h-1.3V122.3z"/>
		<path class="st1" d="M34.2,122.5c-0.8,0-1.4-0.2-2-0.5c-0.6-0.3-1.1-0.8-1.4-1.5c-0.3-0.6-0.5-1.4-0.5-2.2s0.2-1.6,0.5-2.2
			c0.3-0.6,0.8-1.1,1.4-1.4c0.6-0.3,1.3-0.5,2-0.5c0.8,0,1.4,0.2,2,0.5s1.1,0.8,1.4,1.4c0.3,0.6,0.5,1.4,0.5,2.2s-0.2,1.6-0.5,2.2
			c-0.4,0.6-0.8,1.1-1.4,1.5C35.6,122.4,34.9,122.5,34.2,122.5z M34.2,121.4c0.5,0,0.9-0.1,1.3-0.3c0.4-0.2,0.7-0.6,1-1
			s0.4-1,0.4-1.7s-0.1-1.2-0.4-1.7c-0.2-0.4-0.6-0.8-1-1s-0.8-0.3-1.3-0.3s-0.9,0.1-1.3,0.3c-0.4,0.2-0.7,0.6-1,1
			c-0.3,0.4-0.4,1-0.4,1.7s0.1,1.2,0.4,1.7c0.3,0.5,0.6,0.8,1,1C33.3,121.3,33.7,121.4,34.2,121.4z"/>
		<path class="st1" d="M47.4,122.3c-0.7,0-1.3-0.2-1.7-0.5s-0.6-1-0.6-1.9v-4.4h-1.4v-1.1h1.4l0.2-1.9h1.2v1.9h2.3v1.1h-2.3v4.4
			c0,0.5,0.1,0.8,0.3,1s0.6,0.3,1.1,0.3h0.8v1.2h-1.3V122.3z"/>
		<path class="st1" d="M52.1,122.3l-2.3-7.9h1.3l1.7,6.2l1.9-6.2h1.4l1.9,6.2l1.7-6.2h1.4l-2.3,7.9h-1.4l-1.9-6.5l-2,6.5H52.1z"/>
		<path class="st1" d="M65.8,122.5c-0.8,0-1.4-0.2-2-0.5c-0.6-0.3-1.1-0.8-1.4-1.5c-0.4-0.6-0.5-1.4-0.5-2.2s0.2-1.6,0.5-2.2
			c0.4-0.6,0.8-1.1,1.4-1.4c0.6-0.3,1.3-0.5,2-0.5s1.4,0.2,2,0.5s1.1,0.8,1.4,1.4c0.4,0.6,0.5,1.4,0.5,2.2s-0.2,1.6-0.5,2.2
			c-0.4,0.6-0.8,1.1-1.4,1.5C67.3,122.4,66.6,122.5,65.8,122.5z M65.8,121.4c0.5,0,0.9-0.1,1.3-0.3s0.7-0.6,1-1s0.4-1,0.4-1.7
			s-0.1-1.2-0.4-1.7c-0.2-0.5-0.6-0.8-0.9-1c-0.4-0.2-0.8-0.3-1.3-0.3s-0.9,0.1-1.3,0.3s-0.7,0.6-1,1s-0.4,1-0.4,1.7
			s0.1,1.2,0.4,1.7c0.2,0.5,0.6,0.8,0.9,1C65,121.3,65.4,121.4,65.8,121.4z"/>
		<path class="st1" d="M79.6,122.5c-0.8,0-1.4-0.2-2-0.5s-1.1-0.8-1.4-1.5c-0.3-0.6-0.5-1.3-0.5-2.2c0-0.8,0.2-1.6,0.5-2.2
			s0.8-1.1,1.4-1.5c0.6-0.3,1.3-0.5,2-0.5c0.9,0,1.7,0.2,2.4,0.7c0.6,0.5,1,1.2,1.2,2h-1.4c-0.1-0.5-0.4-0.9-0.8-1.1
			c-0.4-0.3-0.9-0.4-1.5-0.4c-0.5,0-0.9,0.1-1.3,0.3s-0.7,0.6-1,1c-0.2,0.4-0.4,1-0.4,1.7s0.1,1.2,0.4,1.7c0.2,0.4,0.6,0.8,1,1
			s0.8,0.3,1.3,0.3s1-0.1,1.5-0.4c0.4-0.3,0.7-0.7,0.8-1.2h1.4c-0.2,0.8-0.6,1.5-1.2,2C81.3,122.3,80.5,122.5,79.6,122.5z"/>
		<path class="st1" d="M87.7,122.5c-0.7,0-1.2-0.1-1.7-0.3c-0.4-0.2-0.8-0.5-1-0.9s-0.3-0.8-0.3-1.2c0-0.8,0.3-1.4,0.9-1.9
			c0.6-0.4,1.5-0.7,2.5-0.7h2.1v-0.1c0-0.7-0.2-1.2-0.5-1.6c-0.4-0.4-0.8-0.5-1.5-0.5c-0.5,0-1,0.1-1.3,0.4
			c-0.4,0.3-0.6,0.6-0.7,1.1h-1.4c0.1-0.6,0.2-1.1,0.6-1.5c0.3-0.4,0.8-0.7,1.3-0.9s1-0.3,1.6-0.3c1.1,0,1.9,0.3,2.5,0.9
			s0.8,1.4,0.8,2.4v4.9h-1.2l-0.1-1.4c-0.2,0.5-0.5,0.8-1,1.1C89,122.4,88.4,122.5,87.7,122.5z M87.9,121.4c0.5,0,1-0.1,1.3-0.4
			c0.4-0.3,0.7-0.6,0.8-1s0.3-0.9,0.3-1.3l0,0h-2c-0.8,0-1.4,0.1-1.7,0.4c-0.3,0.3-0.5,0.6-0.5,1s0.2,0.8,0.5,1
			C86.9,121.3,87.3,121.4,87.9,121.4z"/>
		<path class="st1" d="M94.1,122.3v-6.8h-1.2v-1.1h1.2V113c0-0.8,0.2-1.3,0.6-1.7s0.9-0.5,1.7-0.5h0.8v1.2h-0.6
			c-0.4,0-0.7,0.1-0.9,0.2c-0.2,0.2-0.3,0.5-0.3,0.8v1.3h1.9v1.1h-1.9v6.8L94.1,122.3L94.1,122.3z"/>
		<path class="st1" d="M99.5,122.3v-6.8h-1.2v-1.1h1.2V113c0-0.8,0.2-1.3,0.6-1.7s0.9-0.5,1.7-0.5h0.8v1.2H102
			c-0.4,0-0.7,0.1-0.9,0.2c-0.2,0.2-0.3,0.5-0.3,0.8v1.3h1.9v1.1h-1.9v6.8L99.5,122.3L99.5,122.3z"/>
		<path class="st1" d="M107.6,122.5c-0.8,0-1.4-0.2-2-0.5s-1.1-0.8-1.4-1.5c-0.3-0.6-0.5-1.3-0.5-2.2c0-0.8,0.2-1.6,0.5-2.2
			s0.8-1.1,1.4-1.5c0.6-0.3,1.3-0.5,2.1-0.5c0.8,0,1.4,0.2,2,0.5c0.6,0.4,1,0.8,1.3,1.4c0.3,0.6,0.4,1.2,0.4,1.8c0,0.1,0,0.2,0,0.4
			s0,0.2,0,0.4h-6.3c0,0.6,0.2,1.1,0.4,1.5c0.2,0.4,0.6,0.7,0.9,0.9s0.8,0.3,1.2,0.3c0.6,0,1-0.1,1.4-0.4c0.4-0.3,0.6-0.6,0.8-1h1.3
			c-0.2,0.7-0.6,1.3-1.2,1.8C109.3,122.3,108.6,122.5,107.6,122.5z M107.6,115.3c-0.6,0-1.2,0.2-1.7,0.6c-0.5,0.4-0.8,1-0.9,1.7h5
			c0-0.7-0.3-1.3-0.7-1.7C108.9,115.5,108.3,115.3,107.6,115.3z"/>
		<path class="st1" d="M114,112.6c-0.3,0-0.5-0.1-0.7-0.3s-0.3-0.4-0.3-0.7s0.1-0.5,0.3-0.6c0.2-0.2,0.4-0.3,0.7-0.3
			c0.3,0,0.5,0.1,0.7,0.3s0.3,0.4,0.3,0.6c0,0.3-0.1,0.5-0.3,0.7C114.4,112.5,114.2,112.6,114,112.6z M113.3,122.3v-7.9h1.3v7.9
			H113.3z"/>
		<path class="st1" d="M117,122.3v-7.9h1.2l0.1,1.4c0.3-0.5,0.6-0.9,1.1-1.2s1-0.4,1.6-0.4c0.9,0,1.7,0.3,2.2,0.9s0.8,1.5,0.8,2.6
			v4.6h-1.3v-4.5c0-1.7-0.7-2.5-2.1-2.5c-0.7,0-1.2,0.2-1.7,0.7c-0.4,0.5-0.7,1.2-0.7,2.1v4.1L117,122.3L117,122.3z"/>
		<path class="st1" d="M128.8,122.5c-0.7,0-1.2-0.1-1.6-0.3c-0.4-0.2-0.8-0.5-1-0.9s-0.3-0.8-0.3-1.2c0-0.8,0.3-1.4,0.9-1.9
			c0.6-0.4,1.5-0.7,2.5-0.7h2.1v-0.1c0-0.7-0.2-1.2-0.5-1.6c-0.4-0.4-0.9-0.5-1.5-0.5c-0.5,0-1,0.1-1.4,0.4
			c-0.4,0.3-0.6,0.6-0.7,1.1h-1.4c0-0.6,0.2-1.1,0.6-1.5c0.3-0.4,0.8-0.7,1.3-0.9c0.5-0.2,1-0.3,1.6-0.3c1.1,0,1.9,0.3,2.5,0.9
			c0.6,0.6,0.8,1.4,0.8,2.4v4.9h-1.2l-0.1-1.4c-0.2,0.5-0.6,0.8-1,1.1C130.1,122.4,129.5,122.5,128.8,122.5z M129,121.4
			c0.5,0,0.9-0.1,1.3-0.4c0.4-0.3,0.7-0.6,0.8-1c0.2-0.4,0.3-0.9,0.3-1.3l0,0h-2c-0.8,0-1.4,0.1-1.7,0.4c-0.3,0.3-0.5,0.6-0.5,1
			s0.1,0.8,0.5,1C128,121.3,128.4,121.4,129,121.4z"/>
		<path class="st1" d="M137.7,122.3c-0.7,0-1.3-0.2-1.7-0.5s-0.6-1-0.6-1.9v-4.4H134v-1.1h1.4l0.2-1.9h1.2v1.9h2.3v1.1h-2.3v4.4
			c0,0.5,0.1,0.8,0.3,1s0.6,0.3,1.1,0.3h0.8v1.2h-1.3V122.3z"/>
		<path class="st1" d="M144.1,122.5c-0.8,0-1.4-0.2-2-0.5s-1.1-0.8-1.4-1.5c-0.3-0.6-0.5-1.3-0.5-2.2c0-0.8,0.2-1.6,0.5-2.2
			c0.3-0.6,0.8-1.1,1.4-1.5c0.6-0.3,1.3-0.5,2.1-0.5s1.4,0.2,2,0.5c0.6,0.4,1,0.8,1.3,1.4c0.3,0.6,0.4,1.2,0.4,1.8
			c0,0.1,0,0.2,0,0.4c0,0.1,0,0.2,0,0.4h-6.3c0,0.6,0.2,1.1,0.4,1.5s0.6,0.7,0.9,0.9c0.4,0.2,0.8,0.3,1.2,0.3c0.6,0,1-0.1,1.4-0.4
			c0.4-0.3,0.6-0.6,0.8-1h1.3c-0.2,0.7-0.6,1.3-1.2,1.8C145.8,122.3,145,122.5,144.1,122.5z M144.1,115.3c-0.6,0-1.2,0.2-1.7,0.6
			c-0.5,0.4-0.8,1-0.9,1.7h5c0-0.7-0.3-1.3-0.7-1.7C145.3,115.5,144.8,115.3,144.1,115.3z"/>
		<path class="st1" d="M153.2,122.5c-0.8,0-1.5-0.2-2.1-0.5c-0.6-0.4-1.1-0.9-1.4-1.5c-0.3-0.6-0.5-1.3-0.5-2.1s0.2-1.5,0.5-2.1
			s0.8-1.1,1.4-1.5c0.6-0.4,1.3-0.5,2.1-0.5c0.7,0,1.2,0.1,1.7,0.4c0.5,0.3,0.9,0.6,1.2,1.1v-4.9h1.3v11.5h-1.2l-0.1-1.3
			c-0.3,0.4-0.6,0.7-1.1,1C154.6,122.4,154,122.5,153.2,122.5z M153.4,121.4c0.5,0,1-0.1,1.4-0.4c0.4-0.2,0.7-0.6,1-1
			c0.2-0.5,0.3-1,0.3-1.6s-0.1-1.1-0.3-1.6s-0.6-0.8-1-1.1s-0.9-0.4-1.4-0.4s-1,0.1-1.4,0.4c-0.4,0.2-0.7,0.6-1,1.1
			c-0.2,0.4-0.3,1-0.3,1.6s0.1,1.1,0.3,1.6s0.6,0.8,1,1S152.9,121.4,153.4,121.4z"/>
		<path class="st1" d="M167.5,122.5c-0.8,0-1.5-0.2-2.1-0.5c-0.6-0.4-1.1-0.9-1.4-1.5s-0.5-1.3-0.5-2.1s0.2-1.5,0.5-2.1
			s0.8-1.1,1.4-1.5s1.3-0.5,2.1-0.5c0.6,0,1.2,0.1,1.7,0.4c0.5,0.3,0.9,0.6,1.2,1.1v-4.9h1.3v11.5h-1.2l-0.1-1.3
			c-0.3,0.4-0.6,0.7-1.1,1C168.8,122.4,168.2,122.5,167.5,122.5z M167.7,121.4c0.5,0,1-0.1,1.4-0.4c0.4-0.2,0.7-0.6,1-1
			s0.3-1,0.3-1.6s-0.1-1.1-0.3-1.6s-0.6-0.8-1-1.1c-0.4-0.2-0.9-0.4-1.4-0.4s-1,0.1-1.4,0.4s-0.7,0.6-1,1.1c-0.2,0.4-0.3,1-0.3,1.6
			s0.1,1.1,0.3,1.6s0.5,0.8,1,1S167.1,121.4,167.7,121.4z"/>
		<path class="st1" d="M174,122.3v-7.9h1.2l0.1,1.5c0.2-0.5,0.6-0.9,1.1-1.2s1.1-0.5,1.9-0.5v1.4h-0.4c-0.5,0-0.9,0.1-1.3,0.2
			c-0.4,0.2-0.7,0.5-0.9,0.8c-0.2,0.4-0.4,0.9-0.4,1.6v4H174V122.3z"/>
		<path class="st1" d="M180.6,112.6c-0.3,0-0.5-0.1-0.7-0.3s-0.3-0.4-0.3-0.7s0.1-0.5,0.3-0.6c0.2-0.2,0.4-0.3,0.7-0.3
			s0.5,0.1,0.7,0.3s0.3,0.4,0.3,0.6c0,0.3-0.1,0.5-0.3,0.7S180.8,112.6,180.6,112.6z M179.9,122.3v-7.9h1.3v7.9H179.9z"/>
		<path class="st1" d="M183.6,122.3v-7.9h1.2l0.1,1.4c0.3-0.5,0.6-0.9,1.1-1.2s1-0.4,1.6-0.4c0.9,0,1.7,0.3,2.2,0.9s0.8,1.5,0.8,2.6
			v4.6h-1.3v-4.5c0-1.7-0.7-2.5-2.1-2.5c-0.7,0-1.2,0.2-1.7,0.7c-0.4,0.5-0.7,1.2-0.7,2.1v4.1L183.6,122.3L183.6,122.3z"/>
		<path class="st1" d="M192.7,122.3v-11.5h1.4v6.9l3.2-3.3h1.6l-3.5,3.6l4,4.4h-1.7l-3.6-4.1v4.1h-1.4V122.3z"/>
		<path class="st1" d="M203.4,122.5c-0.9,0-1.7-0.2-2.4-0.7c-0.6-0.5-1-1.1-1.1-2h1.4c0.1,0.4,0.3,0.8,0.7,1.1s0.8,0.5,1.4,0.5
			c0.6,0,1-0.1,1.2-0.4c0.3-0.2,0.4-0.5,0.4-0.9c0-0.5-0.2-0.8-0.5-1c-0.4-0.2-0.8-0.3-1.5-0.4c-0.4-0.1-0.8-0.2-1.3-0.4
			c-0.4-0.2-0.8-0.4-1.1-0.7s-0.4-0.7-0.4-1.2c0-0.7,0.3-1.3,0.8-1.7s1.2-0.7,2.1-0.7c0.8,0,1.5,0.2,2.1,0.6c0.5,0.4,0.9,1,0.9,1.8
			h-1.3c0-0.4-0.2-0.7-0.5-1c-0.3-0.2-0.7-0.3-1.2-0.3s-0.8,0.1-1.1,0.3s-0.4,0.5-0.4,0.8s0.2,0.6,0.5,0.8s0.8,0.3,1.4,0.5
			c0.5,0.1,1,0.2,1.4,0.4s0.8,0.4,1.1,0.7s0.4,0.7,0.4,1.3c0,0.7-0.3,1.3-0.8,1.8C205.1,122.3,204.3,122.5,203.4,122.5z"/>
		<path class="st1" d="M212.6,125.8v-11.5h1.2l0.1,1.3c0.3-0.4,0.6-0.7,1.1-1s1.1-0.5,1.8-0.5c0.8,0,1.5,0.2,2.1,0.5
			c0.6,0.4,1,0.9,1.4,1.5c0.3,0.6,0.5,1.3,0.5,2.1s-0.2,1.5-0.5,2.1s-0.8,1.1-1.4,1.5c-0.6,0.4-1.3,0.5-2.1,0.5
			c-0.7,0-1.2-0.1-1.7-0.4c-0.5-0.3-0.9-0.6-1.2-1.1v4.9h-1.3V125.8z M216.7,121.4c0.5,0,1-0.1,1.4-0.4s0.7-0.6,1-1
			c0.2-0.5,0.3-1,0.3-1.6s-0.1-1.1-0.3-1.6s-0.6-0.8-1-1.1c-0.4-0.2-0.9-0.4-1.4-0.4s-1,0.1-1.4,0.4c-0.4,0.2-0.7,0.6-1,1.1
			c-0.2,0.4-0.4,1-0.4,1.6s0.1,1.1,0.4,1.6s0.6,0.8,1,1S216.2,121.4,216.7,121.4z"/>
		<path class="st1" d="M226.2,122.5c-0.8,0-1.4-0.2-2-0.5s-1.1-0.8-1.4-1.5c-0.3-0.6-0.5-1.3-0.5-2.2c0-0.8,0.2-1.6,0.5-2.2
			c0.3-0.6,0.8-1.1,1.4-1.5c0.6-0.3,1.3-0.5,2.1-0.5s1.4,0.2,2,0.5c0.6,0.4,1,0.8,1.3,1.4c0.3,0.6,0.5,1.2,0.5,1.8
			c0,0.1,0,0.2,0,0.4c0,0.1,0,0.2,0,0.4h-6.3c0,0.6,0.2,1.1,0.4,1.5s0.6,0.7,0.9,0.9c0.4,0.2,0.8,0.3,1.2,0.3c0.6,0,1-0.1,1.4-0.4
			s0.6-0.6,0.8-1h1.3c-0.2,0.7-0.6,1.3-1.2,1.8C227.9,122.3,227.1,122.5,226.2,122.5z M226.2,115.3c-0.6,0-1.2,0.2-1.7,0.6
			c-0.5,0.4-0.8,1-0.9,1.7h5c0-0.7-0.3-1.3-0.7-1.7C227.4,115.5,226.9,115.3,226.2,115.3z"/>
		<path class="st1" d="M231.7,122.3v-7.9h1.2l0.1,1.5c0.2-0.5,0.6-0.9,1.1-1.2s1.1-0.5,1.9-0.5v1.4h-0.4c-0.5,0-0.9,0.1-1.3,0.2
			c-0.4,0.2-0.7,0.5-0.9,0.8c-0.2,0.4-0.4,0.9-0.4,1.6v4h-1.3V122.3z"/>
		<path class="st1" d="M245.4,122.5c-0.8,0-1.5-0.2-2.1-0.5c-0.6-0.4-1-0.9-1.4-1.5c-0.3-0.6-0.5-1.3-0.5-2.1s0.2-1.5,0.5-2.1
			s0.8-1.1,1.4-1.5s1.3-0.5,2.1-0.5c0.6,0,1.2,0.1,1.7,0.4c0.5,0.3,0.9,0.6,1.2,1.1v-4.9h1.3v11.5h-1.2l-0.1-1.3
			c-0.3,0.4-0.6,0.7-1.1,1C246.7,122.4,246.1,122.5,245.4,122.5z M245.5,121.4c0.5,0,1-0.1,1.4-0.4c0.4-0.2,0.7-0.6,1-1
			c0.2-0.5,0.3-1,0.3-1.6s-0.1-1.1-0.3-1.6s-0.6-0.8-1-1.1c-0.4-0.2-0.9-0.4-1.4-0.4s-1,0.1-1.4,0.4s-0.7,0.6-1,1.1
			c-0.2,0.4-0.3,1-0.3,1.6s0.1,1.1,0.3,1.6s0.6,0.8,1,1S245,121.4,245.5,121.4z"/>
		<path class="st1" d="M254.5,122.5c-0.7,0-1.2-0.1-1.6-0.3s-0.8-0.5-1-0.9s-0.3-0.8-0.3-1.2c0-0.8,0.3-1.4,0.9-1.9
			c0.6-0.4,1.5-0.7,2.5-0.7h2.1v-0.1c0-0.7-0.2-1.2-0.5-1.6c-0.4-0.4-0.8-0.5-1.5-0.5c-0.5,0-1,0.1-1.4,0.4s-0.6,0.6-0.7,1.1h-1.4
			c0.1-0.6,0.2-1.1,0.6-1.5c0.3-0.4,0.8-0.7,1.3-0.9s1-0.3,1.6-0.3c1.1,0,1.9,0.3,2.5,0.9s0.8,1.4,0.8,2.4v4.9h-1.2l-0.1-1.4
			c-0.2,0.5-0.5,0.8-1,1.1C255.8,122.4,255.2,122.5,254.5,122.5z M254.7,121.4c0.5,0,1-0.1,1.3-0.4c0.4-0.3,0.6-0.6,0.8-1
			s0.3-0.9,0.3-1.3l0,0h-2c-0.8,0-1.4,0.1-1.7,0.4c-0.3,0.3-0.5,0.6-0.5,1s0.1,0.8,0.5,1C253.7,121.3,254.1,121.4,254.7,121.4z"/>
		<path class="st1" d="M261.1,125.8l2-4.3h-0.5l-3.1-7.2h1.5l2.6,6.2l2.8-6.2h1.4l-5.2,11.5H261.1z"/>
		<path class="st1" d="M268.5,122.4c-0.3,0-0.5-0.1-0.7-0.3s-0.3-0.4-0.3-0.7s0.1-0.5,0.3-0.6c0.2-0.2,0.4-0.3,0.7-0.3
			s0.5,0.1,0.6,0.3c0.2,0.2,0.3,0.4,0.3,0.6s-0.1,0.5-0.3,0.7S268.7,122.4,268.5,122.4z"/>
		<path class="st2" d="M25.4,48.5c0.2-0.2,0.5-0.4,0.8-0.4c0.2,0,0.5,0,0.6,0c0.6,0.1,1,0.3,1.2,0.5c0.3,0.4,0.5,2.9,0.5,7.6v2.5
			v2.2c0,3.7,0,5.7,0.1,6c0.1,0.5,0.6,0.7,1.4,0.7c0.4,0,0.7,0,1,0c0.2,0,0.5,0,0.8,0c0.5,0,0.9,0.1,1.1,0.2
			c0.2,0.2,0.3,0.5,0.3,0.9c0,0.3-0.1,0.5-0.2,0.7c-0.1,0.2-0.4,0.4-0.8,0.7c-0.8,0.4-1.6,0.6-2.4,0.7c-1.2,0.1-1.8,0.1-1.8,0.1
			c-0.1,0-0.2,0-0.3,0c-0.3,0-0.7-0.1-1.1-0.3c-0.4-0.2-0.7-0.4-1-0.7c-0.4-0.5-0.6-2-0.6-4.3c0-0.6,0-1.7,0.1-3.3
			c0.1-1.5,0.1-3,0.1-4.8c0-4.1-0.1-6.6-0.2-7.6c-0.1-0.4-0.1-0.6-0.1-0.7C25,49,25.1,48.8,25.4,48.5z"/>
		<path class="st2" d="M38.2,49c0.3-0.4,0.8-0.5,1.3-0.5s0.9,0.2,1.3,0.5l0.6,0.6l0.2,9.5c0.1,5.2,0.2,8.2,0.2,9c0,0.4,0,0.8,0,1
			s0,0.5,0,0.6c0,0.2-0.1,0.3-0.1,0.4s-0.1,0.2-0.1,0.2s-0.1,0.1-0.2,0.1s-0.2,0.1-0.2,0.1c-0.3,0.2-0.6,0.3-0.8,0.3
			c-0.1,0-0.4-0.1-0.8-0.2c-0.7-0.3-1-0.5-1.1-0.7c-0.1-0.1-0.2-3.5-0.2-10.1c-0.1-6.6-0.1-10-0.2-10C37.7,49.6,37.8,49.3,38.2,49z"
			/>
		<path class="st2" d="M56.5,48.9c0.4-0.1,0.7-0.2,1-0.2c0.7,0,1.2,0.2,1.5,0.8c0.2,0.3,0.5,1.5,0.7,3.6s0.4,4.3,0.5,6.8
			c0,0.8,0.1,1.9,0.1,3.4c0.1,1.5,0.1,2.7,0.2,3.8s0.1,1.9,0.1,2.5c0,0.4-0.2,0.7-0.6,0.9c-0.4,0.2-0.9,0.4-1.3,0.4
			s-0.7-0.1-0.9-0.2l-0.6-0.4l-0.1-5.1c-0.2-5.8-0.4-8.7-0.8-8.7c-0.2,0-0.5,0.7-1,2.2c-0.2,0.8-0.5,1.4-0.8,1.7
			c-0.3,0.3-0.6,0.5-1,0.5c-0.3,0-0.7-0.1-1.1-0.2c-0.5-0.2-0.9-0.6-1.2-1.3c-0.3-0.7-0.5-1.1-0.5-1.2s-0.1-0.3-0.2-0.6
			c-0.2-0.3-0.3-0.6-0.5-0.8c-0.2-0.2-0.3-0.3-0.3-0.3V57c0,1.2,0,3,0.1,5.4l0.2,5.8l-0.6,0.9c-0.6,1-1.1,1.4-1.5,1.4
			c-0.3,0-0.6-0.2-0.8-0.6c-0.2-0.3-0.4-0.8-0.4-1.5s-0.1-2.8-0.2-6.3C46.3,55.6,46.2,51.9,46,51c0-0.1,0-0.3,0-0.5
			c0-0.3,0.2-0.6,0.5-0.9s0.7-0.5,1.2-0.5c0.4,0,1,0.1,1.6,0.4c0.6,0.2,1,0.6,1.3,1s1,1.7,2.1,3.7c0.3,0.5,0.5,0.8,0.7,0.8
			c0.1,0,0.3-0.2,0.4-0.6c0.1-0.5,0.4-1,0.7-1.7c0.4-0.8,0.6-1.3,0.6-1.4c0-0.2,0.2-0.7,0.5-1.3C56,49.4,56.3,49,56.5,48.9z"/>
		<path class="st2" d="M65.2,49c0.3-0.4,0.8-0.5,1.3-0.5s0.9,0.2,1.3,0.5l0.5,0.6l0.2,9.5c0.1,5.2,0.2,8.2,0.2,9c0,0.4,0,0.8,0,1
			s0,0.5,0,0.6c0,0.2-0.1,0.3-0.1,0.4s-0.1,0.2-0.1,0.2s-0.1,0.1-0.2,0.1c-0.1,0.1-0.2,0.1-0.2,0.1c-0.3,0.2-0.6,0.3-0.8,0.3
			c-0.1,0-0.4-0.1-0.8-0.2c-0.7-0.3-1.1-0.5-1.1-0.7c-0.1-0.1-0.2-3.5-0.2-10.1c-0.1-6.6-0.1-10-0.2-10C64.7,49.6,64.9,49.3,65.2,49
			z"/>
		<path class="st2" d="M73.9,47.8c0.4-0.3,1-0.5,1.9-0.5h1c1.5,0.1,2.4,0.1,2.7,0.2c0.2,0.1,0.6,0.1,1.2,0.2c0.6,0,1.1,0.2,1.4,0.4
			c0.3,0.2,0.4,0.6,0.4,1.1s-0.1,0.9-0.3,1.1c-0.2,0.2-0.6,0.4-1.1,0.5c-0.6,0.1-0.9,0.2-1,0.3c-0.1,0.1-0.2,2.8-0.2,8
			c0,3.6,0,6.1,0.1,7.6c0.1,1.2,0.1,1.8,0.1,1.9c0,0.6-0.1,1.1-0.4,1.5c-0.3,0.6-0.8,0.8-1.4,0.8c-0.4,0-0.8-0.1-1.3-0.4L76.2,70
			l0.1-9.6c0.1-2.5,0.1-4.9,0.1-7.4c0-1.5-0.1-2.3-0.3-2.4c-0.3-0.2-0.6-0.2-0.6-0.2c-0.1,0-0.3,0-0.5,0c-0.5,0-0.9-0.1-1.3-0.4
			c-0.3-0.3-0.5-0.6-0.5-1C73.2,48.5,73.4,48.1,73.9,47.8z"/>
		<path class="st3" d="M225.2,101.1c44.2,0,80-3.4,80-7.5c0-4.2-35.8-7.5-80-7.5s-80,3.4-80,7.5C145.2,97.8,181.1,101.1,225.2,101.1
			z"/>
		<path class="st4" d="M177.2,65.2c0,0-9.3,3.8-6.8-11c2.4-14.8,3.6-22.6-0.1-27.2c0,0,12.6,5.3,5.1,22.8
			C168,67.2,177.2,65.2,177.2,65.2z"/>
		<path class="st4" d="M190.6,65.2c0,0-9.3,3.8-6.9-11c2.4-14.8,3.6-22.6-0.1-27.2c0,0,12.6,5.3,5.1,22.8S190.6,65.2,190.6,65.2z"/>
		<path class="st4" d="M203.1,65.2c0,0-9.3,3.8-6.9-11c2.4-14.8,3.6-22.6,0-27.2c0,0,12.6,5.3,5.1,22.8
			C193.8,67.2,203.1,65.2,203.1,65.2z"/>
		<path class="st2" d="M216.8,85.2h-18.4v-3.1h18.4c2,0,3.7-1.3,3.7-2.8v-4.2c0-1.5-1.7-2.8-3.7-2.8h-7.6v-3.1h7.6
			c3.8,0,6.9,2.7,6.9,5.9v4.2C223.7,82.5,220.6,85.2,216.8,85.2z"/>
		<path class="st5" d="M158.8,62.9c-1.5,0-2.6,1.3-2.5,2.8c1.3,16.6,14.2,29.6,29.9,29.6s28.6-13,29.9-29.6c0.1-1.5-1-2.8-2.5-2.8
			H158.8z"/>
		<path class="st3" d="M261.6,101.1c24.7,0,44.8-3.4,44.8-7.5c0-4.2-20-7.5-44.8-7.5s-44.8,3.4-44.8,7.5
			C216.8,97.8,236.8,101.1,261.6,101.1z"/>
		<path class="st4" d="M248.8,65.2c0,0-9.3,3.8-6.9-11c2.4-14.8,3.6-22.6,0-27.2c0,0,12.6,5.3,5.1,22.8
			C239.5,67.2,248.8,65.2,248.8,65.2z"/>
		<path class="st4" d="M262.2,65.2c0,0-9.3,3.8-6.9-11c2.4-14.8,3.6-22.6,0-27.2c0,0,12.6,5.3,5.1,22.8
			C252.9,67.2,262.2,65.2,262.2,65.2z"/>
		<path class="st4" d="M274.7,65.2c0,0-9.3,3.8-6.9-11s3.6-22.6,0-27.2c0,0,12.6,5.3,5.1,22.8C265.4,67.2,274.7,65.2,274.7,65.2z"/>
		<path class="st2" d="M288.4,85.2h-18.3v-3.1h18.4c2,0,3.7-1.3,3.7-2.8v-4.2c0-1.5-1.7-2.8-3.7-2.8h-7.6v-3.1h7.6
			c3.8,0,6.9,2.7,6.9,5.9v4.2C295.3,82.5,292.2,85.2,288.4,85.2z"/>
		<path class="st5" d="M230.3,62.9c-1.5,0-2.6,1.3-2.5,2.8c1.3,16.6,14.2,29.6,29.9,29.6s28.6-13,29.9-29.6c0.1-1.5-1-2.8-2.5-2.8
			H230.3z"/>
		<path class="st2" d="M25.3,77.5c0.4-0.2,0.8-0.2,1.1-0.2c0.4,0,0.8,0.2,1.1,0.5c0.3,0.4,0.5,1.1,0.5,2.1c0.1,2,0.5,3.7,1.1,5.3
			c0.2,0.5,0.3,0.9,0.3,1.2c0,0.1,0,0.2,0.1,0.2c0,0.1,0.1,0.1,0.2,0c0.2-0.1,0.2-0.5,0.2-1.3s0-1.2,0.1-1.3
			c0.1-0.1,0.1-0.9,0.2-2.6s0.1-2.8,0.1-3.2c0-0.2,0.3-0.4,0.9-0.7c0.6-0.2,1.1-0.4,1.5-0.4c0.6,0,1.1,0.2,1.3,0.6
			c0.2,0.3,0.4,0.7,0.4,1s-0.1,1.8-0.4,4.4c-0.1,0.5-0.2,2-0.3,4.5c-0.1,1.9-0.5,4.1-1.2,6.7c-0.3,1.3-0.7,2.4-1,3.1
			c-0.4,0.7-0.9,1.4-1.5,2.1c-0.3,0.4-0.6,0.6-0.8,0.6s-0.3,0.2-0.5,0.5c-0.1,0.3-0.5,0.5-1,0.7s-1.1,0.3-1.7,0.3
			c-0.5,0-1-0.2-1.6-0.5s-0.9-0.6-0.9-0.8c0-0.3,0.2-0.7,0.5-1s0.7-0.7,1.2-0.9c0.8-0.4,1.5-0.9,2-1.6s1-1.7,1.4-3
			c0.5-1.5,0.7-2.4,0.7-2.8c0-0.3-0.2-0.6-0.7-0.7c-1.2-0.5-2-1.1-2.4-1.8c-0.2-0.4-0.6-2.2-1.3-5.4c-0.4-1.6-0.5-2.8-0.5-3.7
			C24.3,78.5,24.7,77.8,25.3,77.5z"/>
		<path class="st2" d="M39.9,79.8l0.8-1h5.2l0.8,0.8c0.5,0.5,0.9,1.2,1.1,2c0.2,0.8,0.4,2.1,0.5,3.8c0.1,0.6,0.1,1.6,0.1,2.8
			c0,2.9-0.3,5.5-0.8,7.8s-1.2,3.9-2.1,4.8c-0.3,0.3-0.7,0.5-1.2,0.7s-1,0.3-1.4,0.3c-0.2,0-0.3,0-0.4-0.1c-0.2-0.1-0.5-0.2-0.9-0.2
			c-0.3,0-0.6-0.2-1-0.7s-0.7-1-0.9-1.7c-0.4-1.1-0.7-2.3-0.8-3.6s-0.2-3.4-0.2-6.3v-2c0-2.6,0.1-4.4,0.2-5.3
			C39.1,81.2,39.4,80.4,39.9,79.8z M43.8,81.8c-0.2-0.5-0.5-0.8-0.6-0.8c-0.2,0-0.4,0.4-0.7,1.3c-0.2,0.7-0.3,2-0.3,3.9
			c0,1.5,0.1,3.1,0.2,4.8c0.1,1.6,0.3,3.1,0.6,4.5c0.2,1.4,0.5,2.1,0.7,2.1c0.1,0,0.3-0.3,0.4-0.9c0.1-0.5,0.3-0.9,0.5-1.3
			c0.1-0.2,0.2-1.4,0.4-3.7c0.1-1.2,0.1-2.3,0.1-3.3C44.9,85.4,44.5,83.1,43.8,81.8z"/>
		<path class="st2" d="M53.2,78.5c0.3-0.2,0.8-0.4,1.3-0.4c0.6,0,1.1,0.2,1.5,0.5l0.6,0.5v5.1c0.1,6,0.2,10,0.6,12.3
			c0.1,0.5,0.2,0.7,0.2,0.7c0.3,0,0.5-0.9,0.6-2.6c0.4-3.6,0.5-7.1,0.5-10.6v-0.9v-0.5c0-1.9,0.2-3,0.7-3.3c0.1-0.1,0.4-0.2,0.8-0.2
			c0.8,0,1.3,0.1,1.6,0.4c0.5,0.4,0.7,1.5,0.7,3.4c0,1.5-0.1,4.4-0.4,8.6c-0.2,3.5-0.6,6-1.1,7.4c-0.5,1.5-1.4,2.4-2.7,2.8
			c-0.5,0.2-0.8,0.2-1,0.2s-0.6-0.2-1.4-0.5c-1.5-0.7-2.4-1.9-2.6-3.5c-0.2-1.4-0.3-5.9-0.5-13.5c0-1.1,0-2.3,0-3.6
			c0-0.9,0-1.4,0.1-1.7C52.9,78.8,53,78.7,53.2,78.5z"/>
		<path class="st2" d="M67.9,79.1c0.5-0.2,1.2-0.2,1.9-0.2c0.8,0,1.5,0.1,1.8,0.2c0.7,0.3,1.3,0.9,1.7,1.7c0.2,0.4,0.3,1.1,0.5,2.2
			s0.2,2,0.2,2.9c0,0.4,0,0.7,0,0.8c-0.1,0.7-0.3,1.5-0.6,2.4c-0.3,0.9-0.5,1.3-0.6,1.3c-0.2,0-0.3,0.2-0.3,0.5s0.1,0.6,0.3,0.9
			c0.4,0.6,1.1,1.8,1.9,3.6c0.8,1.7,1.3,2.8,1.3,3.3c0,0.1,0,0.3,0,0.6c0,0.4-0.1,0.7-0.3,1c-0.2,0.3-0.5,0.5-0.8,0.5s-0.5,0-0.8,0
			c-0.7-0.1-1.1-0.2-1.3-0.3s-0.3-0.3-0.3-0.7c0-0.6-0.3-1.4-0.9-2.6s-1-1.7-1.3-1.7l0,0c-0.1,0.1-0.1,0.4-0.1,0.9
			c0,0.8,0.1,1.8,0.2,2.8c0.1,0.5,0.1,0.8,0.1,0.9c0,1-0.2,1.5-0.6,1.8c-0.2,0.1-0.4,0.1-0.7,0.1c-0.9,0-1.5-0.2-1.7-0.6
			c-0.1-0.2-0.2-2.1-0.3-5.7c0-1.2-0.1-2.4-0.1-3.7c0-1.3,0-2.3,0-2.9s0-1.4-0.1-2.3c-0.1-1-0.2-2-0.3-3.2c-0.1-1.3-0.2-2.1-0.2-2.3
			c0-0.7,0.1-1.1,0.3-1.4C67.1,79.4,67.4,79.2,67.9,79.1z M70.6,82.2c-0.1-0.2-0.2-0.3-0.5-0.3c-0.2,0-0.3,0.1-0.4,0.3
			c-0.1,0.2-0.1,0.4,0,0.5c0,0,0.1,0.9,0.2,2.7c0.1,1.8,0.2,2.7,0.3,2.8c0.1,0.1,0.2-0.1,0.4-0.3c0.2-0.2,0.2-0.7,0.2-1.4
			c0-0.5,0-1,0-1.4C70.8,83.4,70.7,82.5,70.6,82.2z"/>
		<path class="st2" d="M83.7,79.4c0.3-0.2,0.7-0.2,1.2-0.2c0.3,0,0.6,0,0.8,0c0.8,0.1,1.4,0.2,1.7,0.3c0.3,0.1,0.6,0.4,0.8,0.8
			c0.3,0.5,0.4,0.9,0.4,1.3c0,0.5-0.2,0.9-0.6,1.3c-0.3,0.3-0.7,0.5-1,0.5c-0.4,0-0.7-0.2-1-0.7c-0.2-0.4-0.5-0.5-0.8-0.5
			c-0.2,0-0.5,0.2-0.7,0.5c-0.2,0.4-0.4,0.7-0.4,1.2v0.2c0,1.5,1.2,4.4,3.5,8.5c0.4,0.7,0.8,1.9,1.1,3.7c0,0.1,0,0.3,0,0.6
			c0,1.5-0.3,2.7-1,3.6c-0.3,0.4-0.7,0.7-1.4,1c-0.6,0.3-1.2,0.4-1.7,0.4c-0.1,0-0.1,0-0.2,0s-0.1,0-0.2,0c-0.6-0.1-1.4-0.6-2.3-1.5
			c-0.9-0.8-1.4-1.5-1.4-2c0-0.2,0.2-0.5,0.5-0.8s0.6-0.5,0.9-0.5c0.1,0,0.2,0,0.3,0c0.3,0,0.8,0.5,1.5,1.3c0.2,0.4,0.5,0.5,0.8,0.5
			s0.5-0.2,0.6-0.5c0.1-0.1,0.1-0.3,0.1-0.6c0-1.6-0.7-4-2.2-7.1c-1.3-2.9-2-5.1-2-6.5c0-0.6,0.1-1.2,0.3-1.7
			c0.5-1.1,0.8-1.8,1.1-2.2C82.7,80,83.1,79.7,83.7,79.4z"/>
		<path class="st2" d="M94.6,79.9c0.3-0.1,0.8-0.1,1.3-0.1c1.5,0,2.5,0.2,2.9,0.5c0.3,0.2,0.4,0.6,0.4,0.9s-0.1,0.7-0.4,0.9
			c-0.3,0.2-0.6,0.4-1.1,0.4c-0.4,0-0.7,0.1-0.8,0.3c-0.1,0.2-0.2,0.7-0.2,1.5c0,0.2,0,0.9,0.1,2.1c0.1,1.4,0.1,2.3,0.2,2.7
			c0.1,0.4,0.2,0.6,0.3,0.6c0,0,0.2,0,0.5,0s0.6,0,0.8,0c0.7,0,1.2,0.2,1.5,0.5c0.2,0.2,0.3,0.4,0.3,0.6c0,0.4-0.6,0.9-1.8,1.3
			c-0.7,0.2-1.1,0.4-1.3,0.6c-0.1,0.1-0.2,0.4-0.3,0.9c-0.1,0.5-0.1,0.8-0.1,1.2c0,1.4,0.1,2.5,0.4,3.2c0.1,0.3,0.2,0.5,0.4,0.5
			s0.4,0.1,0.9,0.1c0.6,0,1.1,0.1,1.5,0.4s0.6,0.6,0.6,1c0,0.2-0.2,0.6-0.6,1c-0.7,0.6-1.8,1-3.4,1s-2.7-0.3-3.2-1
			c-0.3-0.4-0.4-2.8-0.5-7.2c-0.1-5.5-0.1-8.8-0.2-9.7L92.7,81l0.6-0.3C93.9,80.2,94.3,80,94.6,79.9z"/>
		<path class="st2" d="M105.6,79.5c0.2-0.2,0.5-0.4,0.8-0.4c0.2,0,0.5,0,0.6,0c0.6,0.1,1,0.3,1.2,0.5c0.3,0.4,0.5,2.9,0.5,7.6v2.5
			v2.2c0,3.7,0,5.7,0.1,6c0.1,0.5,0.6,0.7,1.4,0.7c0.4,0,0.7,0,1,0c0.2,0,0.5,0,0.8,0c0.5,0,0.9,0.1,1.1,0.2
			c0.2,0.2,0.3,0.5,0.3,0.9c0,0.3-0.1,0.5-0.2,0.7s-0.4,0.4-0.8,0.7c-0.8,0.4-1.6,0.6-2.4,0.7c-1.2,0.1-1.8,0.1-1.8,0.1
			c-0.1,0-0.2,0-0.3,0c-0.3,0-0.7-0.1-1.1-0.3s-0.7-0.4-1-0.7c-0.4-0.5-0.6-2-0.6-4.3c0-0.6,0-1.7,0.1-3.3c0.1-1.5,0.1-3,0.1-4.8
			c0-4.1-0.1-6.6-0.2-7.6c-0.1-0.4-0.1-0.6-0.1-0.7C105.2,80,105.3,79.8,105.6,79.5z"/>
		<path class="st2" d="M120.2,79.7c0.7-0.1,1.4-0.1,2.1-0.1c0.6,0,1.1,0,1.3,0c1.3,0.1,2.1,0.2,2.4,0.5c0.2,0.3,0.4,0.6,0.4,0.9
			c0,0.7-0.6,1.2-1.9,1.5c-0.3,0.1-1.1,0.2-2.1,0.5l-0.9,0.2V86c0,1.4,0,2.2,0.1,2.4c0,0.2,0.2,0.4,0.5,0.6s0.7,0.2,1.3,0.2
			c0.5,0,0.9,0.2,1.1,0.5c0.2,0.3,0.3,0.6,0.3,0.9c0,0.7-0.6,1.1-1.7,1.4c-0.7,0.2-1.1,0.3-1.2,0.4c-0.1,0.1-0.1,0.3-0.1,0.7
			c0,0.3,0.2,2.6,0.5,6.7l0.1,1.1c0,0.3-0.2,0.6-0.6,0.8c-0.2,0.1-0.6,0.2-0.9,0.2c-0.6,0-1.1-0.2-1.7-0.8c-0.5-0.5-0.7-1-0.7-1.5
			v-0.3c0-0.3,0-0.8,0-1.5s0-1.3,0-1.7c0-5.4-0.1-9.4-0.3-12c-0.1-1.1-0.1-1.9-0.1-2.4c0-0.8,0.1-1.2,0.4-1.4
			C118.6,79.9,119.2,79.8,120.2,79.7z"/>
	</g>
</g>
</svg>
