<?xml version="1.0" encoding="utf-8"?>
<!-- Generator: Adobe Illustrator 25.1.0, SVG Export Plug-In . SVG Version: 6.00 Build 0)  -->
<svg version="1.1" id="Layer_1" xmlns="http://www.w3.org/2000/svg" xmlns:xlink="http://www.w3.org/1999/xlink" x="0px" y="0px"
	 viewBox="0 0 337.2 142.8" style="enable-background:new 0 0 337.2 142.8;" xml:space="preserve">
<style type="text/css">
	.st0{fill:#FFFFFF;}
	.st1{fill:#808080;}
	.st2{fill:#D64204;}
	.st3{fill:#F0A282;}
	.st4{fill:#00CDDC;}
	.st5{fill:#BFF2F6;}
	.st6{fill:#BFBFBF;}
	.st7{fill:#FF9F1A;}
	.st8{fill:#E97443;}
	.st9{fill:#F4F1EF;}
</style>
<g>
	<g>
		<path class="st0" d="M0.5,45.4c1.4,23.6-0.1,72.8,13,83.7c25.7,21.2,283.6,12.6,302.9,8.8c30.4-5.9,18-46.7,19.4-71.1
			c1.3-24,0.8-57.6-38.4-62C228.3-2.9,101,0.3,31.8,3.5C-1.7,4.9-1,19.9,0.5,45.4z"/>
		<path class="st1" d="M165.7,45.8V35.7h-3.3v-1.1h8v1.1h-3.3v10.1H165.7z"/>
		<path class="st1" d="M172,45.8V34.3h1.3v4.9c0.3-0.5,0.6-0.9,1.1-1.1c0.5-0.3,1-0.4,1.6-0.4c0.9,0,1.7,0.3,2.2,0.9
			c0.6,0.6,0.8,1.4,0.8,2.6v4.6h-1.3v-4.5c0-1.6-0.7-2.5-2-2.5c-0.7,0-1.3,0.2-1.7,0.7c-0.5,0.5-0.7,1.2-0.7,2.1v4.1L172,45.8
			L172,45.8z"/>
		<path class="st1" d="M181.9,36.1c-0.3,0-0.5-0.1-0.7-0.3c-0.2-0.2-0.3-0.4-0.3-0.7s0.1-0.5,0.3-0.6c0.2-0.2,0.4-0.3,0.7-0.3
			s0.5,0.1,0.7,0.3c0.2,0.2,0.3,0.4,0.3,0.6c0,0.3-0.1,0.5-0.3,0.7C182.4,36,182.2,36.1,181.9,36.1z M181.3,45.8v-7.9h1.3v7.9H181.3
			z"/>
		<path class="st1" d="M188,46c-0.9,0-1.7-0.2-2.4-0.7c-0.6-0.5-1-1.1-1.1-2h1.4c0.1,0.4,0.3,0.8,0.7,1.1c0.3,0.3,0.8,0.5,1.4,0.5
			c0.6,0,1-0.1,1.2-0.4c0.3-0.2,0.4-0.5,0.4-0.9c0-0.5-0.2-0.8-0.5-1s-0.8-0.3-1.5-0.4c-0.4-0.1-0.9-0.2-1.3-0.4
			c-0.4-0.2-0.8-0.4-1.1-0.7c-0.3-0.3-0.4-0.7-0.4-1.2c0-0.7,0.3-1.3,0.8-1.7s1.2-0.7,2.1-0.7c0.8,0,1.5,0.2,2.1,0.6
			c0.5,0.4,0.9,1,0.9,1.8h-1.3c-0.1-0.4-0.2-0.7-0.5-0.9c-0.3-0.2-0.7-0.3-1.2-0.3s-0.9,0.1-1.1,0.3c-0.3,0.2-0.4,0.5-0.4,0.8
			s0.2,0.6,0.5,0.8c0.3,0.2,0.8,0.3,1.4,0.5c0.5,0.1,1,0.2,1.4,0.4c0.4,0.1,0.8,0.4,1.1,0.7s0.4,0.7,0.4,1.3c0,0.7-0.3,1.3-0.8,1.8
			C189.7,45.7,188.9,46,188,46z"/>
		<path class="st1" d="M198,36.1c-0.3,0-0.5-0.1-0.7-0.3c-0.2-0.2-0.3-0.4-0.3-0.7s0.1-0.5,0.3-0.6c0.2-0.2,0.4-0.3,0.7-0.3
			s0.5,0.1,0.7,0.3c0.2,0.2,0.3,0.4,0.3,0.6c0,0.3-0.1,0.5-0.3,0.7C198.5,36,198.3,36.1,198,36.1z M197.3,45.8v-7.9h1.3v7.9H197.3z"
			/>
		<path class="st1" d="M201,45.8v-7.9h1.2l0.1,1.4c0.3-0.5,0.6-0.9,1.1-1.2c0.5-0.3,1-0.4,1.6-0.4c0.9,0,1.7,0.3,2.2,0.9
			c0.6,0.6,0.8,1.4,0.8,2.6v4.6h-1.3v-4.5c0-1.6-0.7-2.5-2.1-2.5c-0.7,0-1.2,0.2-1.7,0.7c-0.4,0.5-0.7,1.2-0.7,2.1v4.1L201,45.8
			L201,45.8z"/>
		<path class="st1" d="M213.8,46c-0.8,0-1.4-0.2-2-0.5c-0.6-0.4-1.1-0.8-1.4-1.5s-0.5-1.3-0.5-2.2c0-0.8,0.2-1.6,0.5-2.2
			s0.8-1.1,1.4-1.5c0.6-0.4,1.3-0.5,2-0.5c0.9,0,1.7,0.2,2.4,0.7s1.1,1.1,1.2,2H216c-0.1-0.5-0.4-0.9-0.8-1.1
			c-0.4-0.3-0.9-0.4-1.5-0.4c-0.4,0-0.9,0.1-1.3,0.3c-0.4,0.2-0.7,0.6-1,1c-0.2,0.4-0.4,1-0.4,1.7s0.1,1.2,0.4,1.7s0.6,0.8,1,1
			s0.8,0.3,1.3,0.3c0.6,0,1-0.1,1.5-0.4c0.4-0.3,0.7-0.7,0.8-1.2h1.4c-0.2,0.8-0.6,1.5-1.2,2C215.5,45.7,214.8,46,213.8,46z"/>
		<path class="st1" d="M219.3,45.8V34.3h1.3v11.5H219.3z"/>
		<path class="st1" d="M225.7,46c-0.9,0-1.7-0.3-2.2-0.9c-0.6-0.6-0.8-1.4-0.8-2.6v-4.6h1.3v4.5c0,1.6,0.7,2.5,2,2.5
			c0.7,0,1.3-0.2,1.7-0.7c0.5-0.5,0.7-1.2,0.7-2.1V38h1.3v7.9h-1.2l-0.1-1.4c-0.2,0.5-0.6,0.9-1.1,1.2C226.9,45.8,226.3,46,225.7,46
			z"/>
		<path class="st1" d="M235.6,46c-0.8,0-1.5-0.2-2.1-0.5c-0.6-0.4-1.1-0.9-1.4-1.5c-0.3-0.6-0.5-1.3-0.5-2.1c0-0.8,0.2-1.5,0.5-2.1
			s0.8-1.1,1.4-1.5c0.6-0.4,1.3-0.5,2.1-0.5c0.7,0,1.2,0.1,1.7,0.4s0.9,0.6,1.2,1.1v-4.9h1.3v11.5h-1.2l-0.1-1.3
			c-0.3,0.4-0.6,0.7-1.1,1C236.9,45.8,236.3,46,235.6,46z M235.7,44.8c0.5,0,1-0.1,1.4-0.4c0.4-0.2,0.7-0.6,1-1.1
			c0.2-0.4,0.3-1,0.3-1.6s-0.1-1.1-0.3-1.6s-0.5-0.8-1-1.1s-0.9-0.4-1.4-0.4s-1,0.1-1.4,0.4s-0.7,0.6-1,1.1c-0.2,0.4-0.3,1-0.3,1.6
			s0.1,1.1,0.3,1.6s0.5,0.8,1,1.1C234.7,44.7,235.2,44.8,235.7,44.8z"/>
		<path class="st1" d="M245.6,46c-0.8,0-1.4-0.2-2-0.5c-0.6-0.4-1.1-0.8-1.4-1.5c-0.3-0.6-0.5-1.4-0.5-2.2c0-0.8,0.2-1.6,0.5-2.2
			s0.8-1.1,1.4-1.5c0.6-0.4,1.3-0.5,2.1-0.5s1.4,0.2,2,0.5s1,0.8,1.3,1.4s0.5,1.2,0.5,1.8c0,0.1,0,0.2,0,0.4s0,0.2,0,0.4H243
			c0,0.6,0.2,1.1,0.4,1.5s0.6,0.7,0.9,0.9c0.4,0.2,0.8,0.3,1.2,0.3c0.6,0,1-0.1,1.4-0.4s0.6-0.6,0.8-1h1.3c-0.2,0.7-0.6,1.4-1.2,1.8
			C247.3,45.7,246.5,46,245.6,46z M245.6,38.8c-0.6,0-1.2,0.2-1.7,0.6s-0.8,1-0.9,1.7h5c0-0.7-0.3-1.3-0.7-1.7
			C246.8,39,246.3,38.8,245.6,38.8z"/>
		<path class="st1" d="M254.2,46c-1,0-1.7-0.2-2.4-0.7s-1-1.1-1.1-2h1.4c0.1,0.4,0.3,0.8,0.7,1.1c0.3,0.3,0.8,0.5,1.4,0.5
			c0.6,0,1-0.1,1.2-0.4c0.3-0.2,0.4-0.5,0.4-0.9c0-0.5-0.2-0.8-0.5-1s-0.8-0.3-1.5-0.4c-0.4-0.1-0.9-0.2-1.3-0.4
			c-0.4-0.2-0.8-0.4-1.1-0.7c-0.3-0.3-0.4-0.7-0.4-1.2c0-0.7,0.3-1.3,0.8-1.7c0.5-0.4,1.2-0.7,2.1-0.7c0.8,0,1.5,0.2,2.1,0.6
			c0.5,0.4,0.9,1,0.9,1.8h-1.3c-0.1-0.4-0.2-0.7-0.5-0.9c-0.3-0.2-0.7-0.3-1.2-0.3s-0.9,0.1-1.1,0.3c-0.3,0.2-0.4,0.5-0.4,0.8
			s0.2,0.6,0.5,0.8c0.3,0.2,0.8,0.3,1.4,0.5c0.5,0.1,1,0.2,1.4,0.4s0.8,0.4,1.1,0.7c0.3,0.3,0.4,0.7,0.4,1.3c0,0.7-0.3,1.3-0.8,1.8
			C255.9,45.7,255.1,46,254.2,46z"/>
		<path class="st1" d="M267,46c-0.8,0-1.4-0.2-2-0.5c-0.6-0.4-1.1-0.8-1.4-1.5c-0.3-0.6-0.5-1.3-0.5-2.2c0-0.8,0.2-1.6,0.5-2.2
			c0.4-0.6,0.8-1.1,1.4-1.5s1.3-0.5,2-0.5c0.9,0,1.7,0.2,2.4,0.7c0.6,0.5,1,1.1,1.2,2h-1.4c-0.1-0.5-0.4-0.9-0.8-1.1
			s-0.9-0.4-1.5-0.4c-0.4,0-0.9,0.1-1.3,0.3c-0.4,0.2-0.7,0.6-1,1c-0.2,0.4-0.4,1-0.4,1.7s0.1,1.2,0.4,1.7c0.2,0.4,0.6,0.8,1,1
			s0.8,0.3,1.3,0.3c0.6,0,1-0.1,1.5-0.4c0.4-0.3,0.7-0.7,0.8-1.2h1.4c-0.2,0.8-0.6,1.5-1.2,2C268.8,45.7,268,46,267,46z"/>
		<path class="st1" d="M276.1,46c-0.8,0-1.4-0.2-2-0.5s-1.1-0.8-1.4-1.4s-0.5-1.4-0.5-2.2s0.2-1.6,0.5-2.2s0.8-1.1,1.4-1.4
			s1.3-0.5,2-0.5c0.8,0,1.4,0.2,2,0.5s1.1,0.8,1.4,1.4c0.4,0.6,0.5,1.4,0.5,2.2s-0.2,1.6-0.5,2.2s-0.8,1.1-1.4,1.4
			S276.9,46,276.1,46z M276.1,44.8c0.5,0,0.9-0.1,1.3-0.3c0.4-0.2,0.7-0.6,1-1s0.4-1,0.4-1.7s-0.1-1.2-0.4-1.7s-0.6-0.8-1-1
			s-0.8-0.3-1.3-0.3s-0.9,0.1-1.3,0.3c-0.4,0.2-0.7,0.6-1,1c-0.2,0.5-0.4,1-0.4,1.7s0.1,1.2,0.4,1.7s0.6,0.8,1,1
			C275.3,44.7,275.7,44.8,276.1,44.8z"/>
		<path class="st1" d="M282.4,45.8V39h-1.2v-1.1h1.2v-1.4c0-0.8,0.2-1.3,0.6-1.7c0.4-0.4,0.9-0.5,1.7-0.5h0.8v1.1h-0.6
			c-0.4,0-0.7,0.1-0.9,0.2c-0.2,0.2-0.3,0.5-0.3,0.8v1.3h1.9v1.1h-1.9v6.8L282.4,45.8L282.4,45.8z"/>
		<path class="st1" d="M287.7,45.8V39h-1.2v-1.1h1.2v-1.4c0-0.8,0.2-1.3,0.6-1.7c0.4-0.4,0.9-0.5,1.7-0.5h0.8v1.1h-0.6
			c-0.4,0-0.7,0.1-0.9,0.2c-0.2,0.2-0.3,0.5-0.3,0.8v1.3h2v1.1h-2v6.8L287.7,45.8L287.7,45.8z"/>
		<path class="st1" d="M295.9,46c-0.8,0-1.4-0.2-2-0.5c-0.6-0.4-1-0.8-1.4-1.5c-0.3-0.6-0.5-1.4-0.5-2.2c0-0.8,0.2-1.6,0.5-2.2
			s0.8-1.1,1.4-1.5s1.3-0.5,2.1-0.5c0.8,0,1.4,0.2,2,0.5s1,0.8,1.3,1.4s0.5,1.2,0.5,1.8c0,0.1,0,0.2,0,0.4c0,0.1,0,0.2,0,0.4h-6.3
			c0,0.6,0.2,1.1,0.4,1.5s0.6,0.7,0.9,0.9c0.4,0.2,0.8,0.3,1.2,0.3c0.5,0,1-0.1,1.4-0.4s0.6-0.6,0.8-1h1.3c-0.2,0.7-0.6,1.4-1.2,1.8
			C297.6,45.7,296.8,46,295.9,46z M295.9,38.8c-0.6,0-1.2,0.2-1.7,0.6s-0.8,1-0.9,1.7h5c0-0.7-0.3-1.3-0.7-1.7
			C297.1,39,296.6,38.8,295.9,38.8z"/>
		<path class="st1" d="M305,46c-0.8,0-1.4-0.2-2-0.5c-0.6-0.4-1-0.8-1.4-1.5c-0.3-0.6-0.5-1.4-0.5-2.2c0-0.8,0.2-1.6,0.5-2.2
			s0.8-1.1,1.4-1.5s1.3-0.5,2.1-0.5c0.8,0,1.4,0.2,2,0.5s1,0.8,1.3,1.4s0.5,1.2,0.5,1.8c0,0.1,0,0.2,0,0.4s0,0.2,0,0.4h-6.3
			c0,0.6,0.2,1.1,0.4,1.5s0.6,0.7,0.9,0.9c0.4,0.2,0.8,0.3,1.2,0.3c0.6,0,1-0.1,1.4-0.4s0.6-0.6,0.8-1h1.3c-0.2,0.7-0.6,1.4-1.2,1.8
			C306.7,45.7,305.9,46,305,46z M305,38.8c-0.6,0-1.2,0.2-1.7,0.6s-0.8,1-0.9,1.7h5c0-0.7-0.3-1.3-0.7-1.7
			C306.2,39,305.7,38.8,305,38.8z"/>
		<path class="st1" d="M309.4,47.7l0.9-3.5h1.4l-1.4,3.5H309.4z"/>
		<path class="st1" d="M166.2,67.8c-0.7,0-1.3-0.2-1.7-0.5c-0.4-0.4-0.6-1-0.6-1.9V61h-1.4v-1.1h1.4l0.2-1.9h1.2v1.9h2.3V61h-2.3
			v4.4c0,0.5,0.1,0.8,0.3,1s0.6,0.3,1.1,0.3h0.8v1.1H166.2z"/>
		<path class="st1" d="M172.6,68c-0.8,0-1.4-0.2-2-0.5c-0.6-0.4-1-0.8-1.4-1.5c-0.3-0.6-0.5-1.4-0.5-2.2c0-0.8,0.2-1.6,0.5-2.2
			s0.8-1.1,1.4-1.5c0.6-0.4,1.3-0.5,2.1-0.5s1.4,0.2,2,0.5s1,0.8,1.3,1.4s0.4,1.2,0.4,1.8c0,0.1,0,0.2,0,0.4c0,0.1,0,0.2,0,0.4H170
			c0,0.6,0.2,1.1,0.4,1.5s0.6,0.7,0.9,0.9c0.4,0.2,0.8,0.3,1.2,0.3c0.6,0,1-0.1,1.4-0.4s0.7-0.6,0.8-1h1.3c-0.2,0.7-0.6,1.4-1.2,1.8
			C174.3,67.7,173.5,68,172.6,68z M172.6,60.8c-0.6,0-1.2,0.2-1.7,0.6s-0.8,1-0.9,1.7h5c0-0.7-0.3-1.3-0.7-1.7
			C173.8,61,173.2,60.8,172.6,60.8z"/>
		<path class="st1" d="M180.7,68c-0.7,0-1.2-0.1-1.7-0.3c-0.4-0.2-0.8-0.5-1-0.9s-0.3-0.8-0.3-1.2c0-0.8,0.3-1.4,0.9-1.9
			c0.6-0.4,1.5-0.7,2.5-0.7h2.1v-0.1c0-0.7-0.2-1.2-0.5-1.6c-0.4-0.4-0.9-0.5-1.5-0.5c-0.5,0-1,0.1-1.4,0.4s-0.6,0.6-0.7,1.1h-1.4
			c0.1-0.6,0.2-1.1,0.6-1.5c0.3-0.4,0.8-0.7,1.3-0.9c0.5-0.2,1-0.3,1.6-0.3c1.1,0,1.9,0.3,2.5,0.9s0.8,1.4,0.8,2.4v4.9h-1.2
			l-0.1-1.4c-0.2,0.5-0.6,0.8-1,1.1C182,67.8,181.5,68,180.7,68z M180.9,66.8c0.5,0,0.9-0.1,1.3-0.4c0.4-0.3,0.7-0.6,0.8-1
			c0.2-0.4,0.3-0.9,0.3-1.3l0,0h-2c-0.8,0-1.4,0.1-1.7,0.4s-0.5,0.6-0.5,1s0.2,0.8,0.5,1C180,66.7,180.4,66.8,180.9,66.8z"/>
		<path class="st1" d="M185.7,69.7l0.9-3.5h1.4l-1.4,3.5H185.7z"/>
		<path class="st1" d="M197.4,68c-0.8,0-1.4-0.2-2-0.5c-0.6-0.4-1.1-0.8-1.4-1.5c-0.3-0.6-0.5-1.4-0.5-2.2c0-0.8,0.2-1.6,0.5-2.2
			s0.8-1.1,1.4-1.5c0.6-0.4,1.3-0.5,2.1-0.5s1.4,0.2,2,0.5s1,0.8,1.3,1.4s0.4,1.2,0.4,1.8c0,0.1,0,0.2,0,0.4s0,0.2,0,0.4h-6.3
			c0,0.6,0.2,1.1,0.4,1.5s0.6,0.7,0.9,0.9c0.4,0.2,0.8,0.3,1.2,0.3c0.6,0,1-0.1,1.4-0.4c0.4-0.2,0.6-0.6,0.8-1h1.3
			c-0.2,0.7-0.6,1.4-1.2,1.8C199.1,67.7,198.3,68,197.4,68z M197.4,60.8c-0.6,0-1.2,0.2-1.7,0.6s-0.8,1-0.9,1.7h5
			c0-0.7-0.3-1.3-0.7-1.7C198.6,61,198.1,60.8,197.4,60.8z"/>
		<path class="st1" d="M202.9,67.8v-7.9h1.2l0.1,1.4c0.3-0.5,0.6-0.9,1.1-1.2c0.5-0.3,1-0.4,1.6-0.4c0.9,0,1.7,0.3,2.2,0.9
			c0.6,0.6,0.8,1.4,0.8,2.6v4.6h-1.3v-4.5c0-1.6-0.7-2.5-2.1-2.5c-0.7,0-1.2,0.2-1.7,0.7c-0.4,0.5-0.7,1.2-0.7,2.1v4.1L202.9,67.8
			L202.9,67.8z"/>
		<path class="st1" d="M215.7,68c-0.8,0-1.4-0.2-2-0.5c-0.6-0.4-1.1-0.8-1.4-1.5c-0.3-0.6-0.5-1.4-0.5-2.2c0-0.8,0.2-1.6,0.5-2.2
			s0.8-1.1,1.4-1.5c0.6-0.4,1.3-0.5,2.1-0.5s1.4,0.2,2,0.5s1,0.8,1.3,1.4s0.4,1.2,0.4,1.8c0,0.1,0,0.2,0,0.4s0,0.2,0,0.4h-6.3
			c0,0.6,0.2,1.1,0.4,1.5s0.6,0.7,0.9,0.9c0.4,0.2,0.8,0.3,1.2,0.3c0.6,0,1-0.1,1.4-0.4s0.6-0.6,0.8-1h1.3c-0.2,0.7-0.6,1.4-1.2,1.8
			C217.4,67.7,216.6,68,215.7,68z M215.7,60.8c-0.6,0-1.2,0.2-1.7,0.6s-0.8,1-0.9,1.7h5c0-0.7-0.3-1.3-0.7-1.7
			C216.9,61,216.3,60.8,215.7,60.8z"/>
		<path class="st1" d="M221.2,67.8v-7.9h1.2l0.1,1.5c0.2-0.5,0.6-0.9,1.1-1.2c0.5-0.3,1.1-0.5,1.9-0.5v1.4h-0.4
			c-0.5,0-0.9,0.1-1.3,0.2c-0.4,0.2-0.7,0.5-0.9,0.8c-0.2,0.4-0.3,0.9-0.3,1.6v4h-1.4V67.8z"/>
		<path class="st1" d="M229.9,65.3c-0.4,0-0.9-0.1-1.2-0.2l-0.8,0.8c0.1,0.1,0.3,0.2,0.4,0.2c0.2,0.1,0.4,0.1,0.8,0.2
			c0.3,0,0.8,0.1,1.4,0.1c1.1,0.1,1.8,0.3,2.3,0.7c0.5,0.4,0.7,1,0.7,1.6c0,0.5-0.1,0.9-0.4,1.3c-0.2,0.4-0.6,0.8-1.1,1
			c-0.5,0.3-1.2,0.4-2,0.4c-0.7,0-1.4-0.1-1.9-0.3c-0.6-0.2-1-0.5-1.3-0.9s-0.5-0.9-0.5-1.4c0-0.3,0.1-0.6,0.2-1
			c0.2-0.4,0.5-0.7,0.9-1c-0.2-0.1-0.4-0.2-0.6-0.3c-0.2-0.1-0.3-0.2-0.5-0.4v-0.4l1.4-1.3c-0.6-0.5-0.9-1.2-0.9-2.1
			c0-0.5,0.1-1,0.4-1.4c0.2-0.4,0.6-0.8,1.1-1s1-0.4,1.7-0.4c0.5,0,0.9,0.1,1.2,0.2h2.9v1l-1.5,0.1c0.3,0.5,0.5,1,0.5,1.6
			c0,0.5-0.1,1-0.4,1.4c-0.2,0.4-0.6,0.8-1.1,1C231.2,65.2,230.6,65.3,229.9,65.3z M227.6,68.8c0,0.5,0.2,0.9,0.7,1.2
			c0.4,0.3,1,0.4,1.7,0.4s1.2-0.1,1.6-0.4c0.4-0.3,0.6-0.7,0.6-1.2c0-0.3-0.1-0.6-0.4-0.9s-0.8-0.4-1.5-0.4c-0.6,0-1.1-0.1-1.5-0.2
			c-0.4,0.2-0.7,0.5-0.9,0.8C227.7,68.4,227.6,68.6,227.6,68.8z M229.9,64.2c0.6,0,1-0.1,1.4-0.4c0.3-0.3,0.5-0.7,0.5-1.3
			c0-0.5-0.2-1-0.5-1.3s-0.8-0.4-1.4-0.4c-0.6,0-1,0.2-1.4,0.4c-0.3,0.3-0.5,0.7-0.5,1.3s0.2,1,0.5,1.3
			C228.9,64,229.4,64.2,229.9,64.2z"/>
		<path class="st1" d="M236.5,71.3l2-4.3H238l-3.1-7.2h1.5L239,66l2.8-6.2h1.4L238,71.3H236.5z"/>
		<path class="st1" d="M252.4,68c-0.8,0-1.5-0.2-2.1-0.5c-0.6-0.4-1-0.9-1.4-1.5c-0.3-0.6-0.5-1.3-0.5-2.1c0-0.8,0.2-1.5,0.5-2.1
			s0.8-1.1,1.4-1.5c0.6-0.4,1.3-0.5,2.1-0.5c0.6,0,1.2,0.1,1.7,0.4s0.9,0.6,1.2,1.1v-4.9h1.3v11.5h-1.2l-0.1-1.3
			c-0.3,0.4-0.6,0.7-1.1,1S253.1,68,252.4,68z M252.5,66.8c0.5,0,1-0.1,1.4-0.4c0.4-0.2,0.7-0.6,1-1.1c0.2-0.4,0.3-1,0.3-1.6
			s-0.1-1.1-0.3-1.6s-0.6-0.8-1-1.1c-0.4-0.2-0.9-0.4-1.4-0.4s-1,0.1-1.4,0.4s-0.7,0.6-1,1.1c-0.2,0.4-0.3,1-0.3,1.6
			s0.1,1.1,0.3,1.6s0.5,0.8,1,1.1C251.5,66.7,252,66.8,252.5,66.8z"/>
		<path class="st1" d="M258.8,67.8v-7.9h1.2l0.1,1.5c0.2-0.5,0.6-0.9,1.1-1.2c0.5-0.3,1.1-0.5,1.9-0.5v1.4h-0.4
			c-0.5,0-0.9,0.1-1.3,0.2c-0.4,0.2-0.7,0.5-0.9,0.8c-0.2,0.4-0.4,0.9-0.4,1.6v4h-1.3V67.8z"/>
		<path class="st1" d="M265.4,58.1c-0.3,0-0.5-0.1-0.7-0.3c-0.2-0.2-0.3-0.4-0.3-0.7s0.1-0.5,0.3-0.6c0.2-0.2,0.4-0.3,0.7-0.3
			c0.3,0,0.5,0.1,0.7,0.3c0.2,0.2,0.3,0.4,0.3,0.6c0,0.3-0.1,0.5-0.3,0.7C265.9,58,265.7,58.1,265.4,58.1z M264.8,67.8v-7.9h1.3v7.9
			H264.8z"/>
		<path class="st1" d="M268.5,67.8v-7.9h1.2l0.1,1.4c0.3-0.5,0.6-0.9,1.1-1.2c0.5-0.3,1-0.4,1.6-0.4c0.9,0,1.7,0.3,2.2,0.9
			c0.6,0.6,0.8,1.4,0.8,2.6v4.6h-1.3v-4.5c0-1.6-0.7-2.5-2-2.5c-0.7,0-1.2,0.2-1.7,0.7c-0.4,0.5-0.7,1.2-0.7,2.1v4.1L268.5,67.8
			L268.5,67.8z"/>
		<path class="st1" d="M277.6,67.8V56.3h1.3v6.9l3.2-3.3h1.6l-3.5,3.6l4,4.4h-1.7l-3.6-4.1v4.1h-1.3V67.8z"/>
		<path class="st1" d="M288.2,68c-1,0-1.7-0.2-2.4-0.7s-1-1.1-1.1-2h1.4c0.1,0.4,0.3,0.8,0.7,1.1c0.4,0.3,0.8,0.5,1.4,0.5
			s1-0.1,1.2-0.4c0.3-0.2,0.4-0.5,0.4-0.9c0-0.5-0.2-0.8-0.5-1s-0.8-0.3-1.5-0.4c-0.4-0.1-0.9-0.2-1.3-0.4c-0.4-0.2-0.8-0.4-1.1-0.7
			c-0.3-0.3-0.4-0.7-0.4-1.2c0-0.7,0.3-1.3,0.8-1.7s1.2-0.7,2.1-0.7c0.8,0,1.5,0.2,2.1,0.6c0.5,0.4,0.9,1,0.9,1.8h-1.3
			c0-0.4-0.2-0.7-0.5-0.9c-0.3-0.2-0.7-0.3-1.2-0.3s-0.8,0.1-1.1,0.3c-0.3,0.2-0.4,0.5-0.4,0.8s0.2,0.6,0.5,0.8
			c0.3,0.2,0.8,0.3,1.4,0.5c0.5,0.1,1,0.2,1.4,0.4s0.8,0.4,1.1,0.7c0.3,0.3,0.4,0.7,0.4,1.3c0,0.7-0.3,1.3-0.8,1.8
			C289.9,67.7,289.2,68,288.2,68z"/>
		<path class="st1" d="M165.9,92.1c-0.6-0.6-1.1-1.2-1.6-2s-0.9-1.6-1.2-2.6s-0.4-2-0.4-3.1s0.2-2.1,0.4-3.1
			c0.3-0.9,0.7-1.8,1.2-2.6c0.5-0.8,1-1.4,1.6-2h1.4v0.1c-1,1-1.8,2.1-2.4,3.4s-0.9,2.7-0.9,4.1c0,1.5,0.3,2.9,0.9,4.1
			c0.6,1.3,1.4,2.4,2.4,3.4v0.1L165.9,92.1L165.9,92.1z"/>
		<path class="st1" d="M169,89.8V78.3h1.3v11.5H169z"/>
		<path class="st1" d="M173.3,80.1c-0.3,0-0.5-0.1-0.7-0.3c-0.2-0.2-0.3-0.4-0.3-0.7s0.1-0.5,0.3-0.6c0.2-0.2,0.4-0.3,0.7-0.3
			s0.5,0.1,0.7,0.3c0.2,0.2,0.3,0.4,0.3,0.6c0,0.3-0.1,0.5-0.3,0.7C173.8,80,173.6,80.1,173.3,80.1z M172.7,89.8v-7.9h1.3v7.9H172.7
			z"/>
		<path class="st1" d="M176.3,89.8V78.3h1.3v6.9l3.2-3.3h1.6l-3.5,3.6l4,4.4h-1.7l-3.6-4.1v4.1h-1.3V89.8z"/>
		<path class="st1" d="M187.4,90c-0.8,0-1.4-0.2-2-0.5c-0.6-0.4-1.1-0.8-1.4-1.5c-0.3-0.6-0.5-1.4-0.5-2.2c0-0.8,0.2-1.6,0.5-2.2
			s0.8-1.1,1.4-1.5c0.6-0.4,1.3-0.5,2.1-0.5s1.4,0.2,2,0.5s1,0.8,1.3,1.4s0.4,1.2,0.4,1.8c0,0.1,0,0.2,0,0.4s0,0.2,0,0.4h-6.3
			c0,0.6,0.2,1.1,0.4,1.5s0.6,0.7,0.9,0.9c0.4,0.2,0.8,0.3,1.2,0.3c0.6,0,1-0.1,1.4-0.4s0.6-0.6,0.8-1h1.3c-0.2,0.7-0.6,1.4-1.2,1.8
			C189.1,89.7,188.3,90,187.4,90z M187.4,82.8c-0.6,0-1.2,0.2-1.7,0.6s-0.8,1-0.9,1.7h5c0-0.7-0.3-1.3-0.7-1.7
			C188.6,83,188.1,82.8,187.4,82.8z"/>
		<path class="st1" d="M197.3,89.8V78.6h3.6c0.9,0,1.6,0.1,2.1,0.4c0.6,0.3,1,0.7,1.2,1.2s0.4,1.1,0.4,1.7c0,0.7-0.2,1.3-0.6,1.9
			c-0.4,0.6-1,1-1.8,1.2l2.4,4.8H203l-2.3-4.6h-0.1h-2.2v4.6H197.3L197.3,89.8z M198.6,84.1h2.2c0.9,0,1.5-0.2,1.9-0.6
			s0.6-1,0.6-1.6c0-0.7-0.2-1.2-0.6-1.6c-0.4-0.4-1-0.6-1.9-0.6h-2.2V84.1L198.6,84.1z"/>
		<path class="st1" d="M209.8,90c-0.8,0-1.4-0.2-2-0.5c-0.6-0.4-1.1-0.8-1.4-1.5c-0.3-0.6-0.5-1.4-0.5-2.2c0-0.8,0.2-1.6,0.5-2.2
			s0.8-1.1,1.4-1.5c0.6-0.4,1.3-0.5,2.1-0.5s1.4,0.2,2,0.5s1,0.8,1.3,1.4s0.4,1.2,0.4,1.8c0,0.1,0,0.2,0,0.4c0,0.1,0,0.2,0,0.4h-6.3
			c0,0.6,0.2,1.1,0.4,1.5s0.6,0.7,0.9,0.9c0.4,0.2,0.8,0.3,1.2,0.3c0.6,0,1-0.1,1.4-0.4s0.7-0.6,0.8-1h1.3c-0.2,0.7-0.6,1.4-1.2,1.8
			C211.5,89.7,210.7,90,209.8,90z M209.8,82.8c-0.6,0-1.2,0.2-1.7,0.6s-0.8,1-0.9,1.7h5c0-0.7-0.3-1.3-0.7-1.7
			C211,83,210.4,82.8,209.8,82.8z"/>
		<path class="st1" d="M218.9,90c-0.8,0-1.5-0.2-2.1-0.5c-0.6-0.4-1.1-0.9-1.4-1.5s-0.5-1.3-0.5-2.1c0-0.8,0.2-1.5,0.5-2.1
			s0.8-1.1,1.4-1.5c0.6-0.4,1.3-0.5,2.1-0.5c0.6,0,1.2,0.1,1.7,0.4s0.9,0.6,1.2,1.1v-4.9h1.3v11.5h-1.2l-0.1-1.3
			c-0.3,0.4-0.6,0.7-1.1,1S219.6,90,218.9,90z M219,88.8c0.5,0,1-0.1,1.4-0.4c0.4-0.2,0.7-0.6,1-1.1c0.2-0.4,0.3-1,0.3-1.6
			s-0.1-1.1-0.3-1.6s-0.6-0.8-1-1.1c-0.4-0.2-0.9-0.4-1.4-0.4s-1,0.1-1.4,0.4s-0.7,0.6-1,1.1c-0.2,0.4-0.3,1-0.3,1.6
			s0.1,1.1,0.3,1.6s0.6,0.8,1,1.1S218.5,88.8,219,88.8z"/>
		<path class="st1" d="M229.6,90c-0.7,0-1.2-0.1-1.7-0.4s-0.9-0.6-1.2-1.1l-0.1,1.3h-1.2V78.3h1.3v4.9c0.3-0.4,0.6-0.7,1.1-1
			s1.1-0.5,1.8-0.5c0.8,0,1.5,0.2,2.1,0.5c0.6,0.4,1,0.9,1.4,1.5s0.5,1.3,0.5,2.1c0,0.8-0.2,1.5-0.5,2.1s-0.8,1.1-1.4,1.5
			C231.1,89.8,230.4,90,229.6,90z M229.4,88.8c0.5,0,1-0.1,1.4-0.4c0.4-0.2,0.7-0.6,1-1.1c0.2-0.4,0.4-1,0.4-1.6s-0.1-1.1-0.4-1.6
			c-0.2-0.5-0.6-0.8-1-1.1c-0.4-0.2-0.9-0.4-1.4-0.4s-1,0.1-1.4,0.4s-0.7,0.6-1,1.1c-0.2,0.4-0.4,1-0.4,1.6s0.1,1.1,0.4,1.6
			c0.2,0.5,0.5,0.8,1,1.1C228.4,88.7,228.9,88.8,229.4,88.8z"/>
		<path class="st1" d="M238.3,90c-0.9,0-1.7-0.3-2.2-0.9c-0.6-0.6-0.8-1.4-0.8-2.6v-4.6h1.3v4.5c0,1.6,0.7,2.5,2,2.5
			c0.7,0,1.3-0.2,1.7-0.7c0.5-0.5,0.7-1.2,0.7-2.1V82h1.3v7.9h-1.2l-0.1-1.4c-0.2,0.5-0.6,0.9-1.1,1.2C239.4,89.8,238.9,90,238.3,90
			z"/>
		<path class="st1" d="M244.5,89.8V78.3h1.3v11.5H244.5z"/>
		<path class="st1" d="M248.1,89.8V78.3h1.3v11.5H248.1z"/>
		<path class="st1" d="M258.5,90c-0.7,0-1.2-0.1-1.6-0.3c-0.4-0.2-0.8-0.5-1-0.9c-0.2-0.4-0.3-0.8-0.3-1.2c0-0.8,0.3-1.4,0.9-1.9
			c0.6-0.4,1.5-0.7,2.5-0.7h2.1v-0.1c0-0.7-0.2-1.2-0.5-1.6c-0.4-0.4-0.9-0.5-1.5-0.5c-0.5,0-1,0.1-1.4,0.4s-0.6,0.6-0.7,1.1h-1.4
			c0.1-0.6,0.2-1.1,0.6-1.5c0.3-0.4,0.8-0.7,1.3-0.9c0.5-0.2,1-0.3,1.6-0.3c1.1,0,1.9,0.3,2.5,0.9s0.8,1.4,0.8,2.4v4.9h-1.2
			l-0.1-1.4c-0.2,0.5-0.5,0.8-1,1.1C259.8,89.8,259.2,90,258.5,90z M258.7,88.8c0.5,0,0.9-0.1,1.3-0.4s0.7-0.6,0.8-1
			c0.2-0.4,0.3-0.9,0.3-1.3l0,0h-2c-0.8,0-1.4,0.1-1.7,0.4c-0.3,0.3-0.5,0.6-0.5,1s0.2,0.8,0.5,1C257.7,88.7,258.2,88.8,258.7,88.8z
			"/>
		<path class="st1" d="M264.5,89.8v-7.9h1.2l0.1,1.4c0.3-0.5,0.6-0.9,1.1-1.2c0.5-0.3,1-0.4,1.6-0.4c0.9,0,1.7,0.3,2.2,0.9
			c0.6,0.6,0.8,1.4,0.8,2.6v4.6h-1.3v-4.5c0-1.6-0.7-2.5-2.1-2.5c-0.7,0-1.2,0.2-1.7,0.7s-0.7,1.2-0.7,2.1v4.1L264.5,89.8
			L264.5,89.8z"/>
		<path class="st1" d="M277.3,90c-0.8,0-1.5-0.2-2.1-0.5c-0.6-0.4-1-0.9-1.4-1.5c-0.3-0.6-0.5-1.3-0.5-2.1c0-0.8,0.2-1.5,0.5-2.1
			s0.8-1.1,1.4-1.5s1.3-0.5,2.1-0.5c0.6,0,1.2,0.1,1.7,0.4s0.9,0.6,1.2,1.1v-4.9h1.3v11.5h-1.2l-0.1-1.3c-0.3,0.4-0.6,0.7-1.1,1
			C278.6,89.8,278,90,277.3,90z M277.4,88.8c0.5,0,1-0.1,1.4-0.4c0.4-0.2,0.7-0.6,1-1.1c0.2-0.4,0.3-1,0.3-1.6s-0.1-1.1-0.3-1.6
			c-0.2-0.5-0.6-0.8-1-1.1c-0.4-0.2-0.9-0.4-1.4-0.4s-1,0.1-1.4,0.4s-0.7,0.6-1,1.1c-0.2,0.4-0.3,1-0.3,1.6s0.1,1.1,0.3,1.6
			c0.2,0.5,0.6,0.8,1,1.1S276.9,88.8,277.4,88.8z"/>
		<path class="st1" d="M291.4,89.8l-4.2-11.2h1.5l3.5,9.8l3.6-9.8h1.4L293,89.8H291.4z"/>
		<path class="st1" d="M298.2,92.1V92c1-1,1.8-2.1,2.4-3.4s0.9-2.7,0.9-4.1c0-1.5-0.3-2.9-0.9-4.2c-0.6-1.3-1.4-2.4-2.4-3.4v-0.1
			h1.4c0.6,0.6,1.1,1.2,1.6,2s0.9,1.6,1.2,2.6c0.3,1,0.4,2,0.4,3.1s-0.2,2.1-0.4,3.1c-0.3,1-0.7,1.8-1.2,2.6c-0.5,0.8-1,1.4-1.6,2
			L298.2,92.1L298.2,92.1z"/>
		<path class="st1" d="M165.7,112c-0.7,0-1.2-0.1-1.7-0.3c-0.4-0.2-0.8-0.5-1-0.9s-0.3-0.8-0.3-1.2c0-0.8,0.3-1.4,0.9-1.9
			c0.6-0.4,1.5-0.7,2.5-0.7h2.1v-0.1c0-0.7-0.2-1.2-0.5-1.6c-0.4-0.4-0.9-0.5-1.5-0.5c-0.5,0-1,0.1-1.3,0.4
			c-0.4,0.3-0.6,0.6-0.7,1.1h-1.4c0.1-0.6,0.2-1.1,0.6-1.5c0.3-0.4,0.8-0.7,1.3-0.9c0.5-0.2,1-0.3,1.6-0.3c1.1,0,1.9,0.3,2.5,0.9
			s0.8,1.4,0.8,2.4v4.9h-1.2l-0.1-1.4c-0.2,0.5-0.5,0.8-1,1.1C167,111.8,166.4,112,165.7,112z M165.9,110.8c0.5,0,1-0.1,1.3-0.4
			s0.6-0.6,0.8-1s0.3-0.9,0.3-1.3l0,0h-2c-0.8,0-1.3,0.1-1.7,0.4c-0.3,0.3-0.5,0.6-0.5,1s0.1,0.8,0.5,1
			C164.9,110.7,165.3,110.8,165.9,110.8z"/>
		<path class="st1" d="M171.7,111.8v-7.9h1.2l0.1,1.4c0.3-0.5,0.6-0.9,1.1-1.2c0.5-0.3,1-0.4,1.6-0.4c0.9,0,1.7,0.3,2.2,0.9
			c0.6,0.6,0.8,1.4,0.8,2.6v4.6h-1.3v-4.5c0-1.6-0.7-2.5-2.1-2.5c-0.7,0-1.2,0.2-1.7,0.7s-0.7,1.2-0.7,2.1v4.1L171.7,111.8
			L171.7,111.8z"/>
		<path class="st1" d="M184.4,112c-0.8,0-1.5-0.2-2.1-0.5c-0.6-0.4-1.1-0.9-1.4-1.5s-0.5-1.3-0.5-2.1c0-0.8,0.2-1.5,0.5-2.1
			s0.8-1.1,1.4-1.5c0.6-0.4,1.3-0.5,2.1-0.5c0.7,0,1.2,0.1,1.7,0.4s0.9,0.6,1.2,1.1v-4.9h1.3v11.5h-1.2l-0.1-1.3
			c-0.3,0.4-0.6,0.7-1.1,1C185.8,111.8,185.2,112,184.4,112z M184.6,110.8c0.5,0,1-0.1,1.4-0.4s0.7-0.6,1-1.1c0.2-0.4,0.3-1,0.3-1.6
			s-0.1-1.1-0.3-1.6s-0.6-0.8-1-1.1s-0.9-0.4-1.4-0.4s-1,0.1-1.4,0.4c-0.4,0.2-0.7,0.6-1,1.1c-0.2,0.4-0.3,1-0.3,1.6
			s0.1,1.1,0.3,1.6s0.6,0.8,1,1.1S184,110.8,184.6,110.8z"/>
		<path class="st1" d="M198.8,112c-0.8,0-1.4-0.2-2-0.5c-0.6-0.4-1.1-0.8-1.4-1.5c-0.3-0.6-0.5-1.3-0.5-2.2c0-0.8,0.2-1.6,0.5-2.2
			c0.4-0.6,0.8-1.1,1.4-1.5c0.6-0.4,1.3-0.5,2-0.5c0.9,0,1.7,0.2,2.4,0.7s1.1,1.1,1.2,2H201c-0.1-0.5-0.4-0.9-0.8-1.1
			c-0.4-0.3-0.9-0.4-1.5-0.4c-0.4,0-0.9,0.1-1.3,0.3c-0.4,0.2-0.7,0.6-1,1c-0.2,0.4-0.4,1-0.4,1.7s0.1,1.2,0.4,1.7s0.6,0.8,1,1
			s0.8,0.3,1.3,0.3c0.6,0,1-0.1,1.5-0.4c0.4-0.3,0.7-0.7,0.8-1.2h1.4c-0.2,0.8-0.6,1.5-1.2,2C200.5,111.7,199.7,112,198.8,112z"/>
		<path class="st1" d="M207.9,112c-0.8,0-1.4-0.2-2-0.5s-1.1-0.8-1.4-1.4c-0.3-0.6-0.5-1.4-0.5-2.2s0.2-1.6,0.5-2.2
			c0.4-0.6,0.8-1.1,1.4-1.4s1.3-0.5,2-0.5s1.4,0.2,2,0.5s1.1,0.8,1.4,1.4c0.3,0.6,0.5,1.4,0.5,2.2s-0.2,1.6-0.5,2.2
			s-0.8,1.1-1.4,1.4S208.6,112,207.9,112z M207.9,110.8c0.5,0,0.9-0.1,1.3-0.3c0.4-0.2,0.7-0.6,1-1s0.4-1,0.4-1.7s-0.1-1.2-0.4-1.7
			c-0.2-0.4-0.6-0.8-0.9-1c-0.4-0.2-0.8-0.3-1.3-0.3s-0.9,0.1-1.3,0.3c-0.4,0.2-0.7,0.6-1,1c-0.2,0.5-0.4,1-0.4,1.7s0.1,1.2,0.4,1.7
			c0.2,0.5,0.6,0.8,0.9,1C207,110.7,207.4,110.8,207.9,110.8z"/>
		<path class="st1" d="M213.7,111.8v-11.5h1.3v11.5H213.7z"/>
		<path class="st1" d="M219.9,112c-0.7,0-1.2-0.1-1.6-0.3c-0.4-0.2-0.8-0.5-1-0.9s-0.3-0.8-0.3-1.2c0-0.8,0.3-1.4,0.9-1.9
			c0.6-0.4,1.5-0.7,2.5-0.7h2.1v-0.1c0-0.7-0.2-1.2-0.5-1.6c-0.4-0.4-0.8-0.5-1.5-0.5c-0.5,0-1,0.1-1.4,0.4s-0.6,0.6-0.7,1.1H217
			c0.1-0.6,0.2-1.1,0.6-1.5c0.3-0.4,0.8-0.7,1.3-0.9c0.5-0.2,1-0.3,1.6-0.3c1.1,0,1.9,0.3,2.5,0.9s0.8,1.4,0.8,2.4v4.9h-1.2
			l-0.1-1.4c-0.2,0.5-0.6,0.8-1,1.1C221.2,111.8,220.6,112,219.9,112z M220.1,110.8c0.5,0,0.9-0.1,1.3-0.4c0.4-0.3,0.7-0.6,0.8-1
			s0.3-0.9,0.3-1.3l0,0h-2c-0.8,0-1.4,0.1-1.7,0.4s-0.5,0.6-0.5,1s0.2,0.8,0.5,1C219.1,110.7,219.6,110.8,220.1,110.8z"/>
		<path class="st1" d="M233.8,112c-0.8,0-1.5-0.2-2.1-0.5c-0.6-0.4-1.1-0.9-1.4-1.5s-0.5-1.3-0.5-2.1c0-0.8,0.2-1.5,0.5-2.1
			s0.8-1.1,1.4-1.5c0.6-0.4,1.3-0.5,2.1-0.5c0.6,0,1.2,0.1,1.7,0.4s0.9,0.6,1.2,1.1v-4.9h1.3v11.5h-1.2l-0.1-1.3
			c-0.3,0.4-0.6,0.7-1.1,1C235.1,111.8,234.5,112,233.8,112z M233.9,110.8c0.5,0,1-0.1,1.4-0.4c0.4-0.2,0.7-0.6,1-1.1
			c0.2-0.4,0.3-1,0.3-1.6s-0.1-1.1-0.3-1.6s-0.6-0.8-1-1.1c-0.4-0.2-0.9-0.4-1.4-0.4s-1,0.1-1.4,0.4s-0.7,0.6-1,1.1
			c-0.2,0.4-0.3,1-0.3,1.6s0.1,1.1,0.3,1.6s0.6,0.8,1,1.1S233.4,110.8,233.9,110.8z"/>
		<path class="st1" d="M240.2,111.8v-7.9h1.2l0.1,1.5c0.2-0.5,0.6-0.9,1.1-1.2c0.5-0.3,1.1-0.5,1.9-0.5v1.4h-0.4
			c-0.5,0-0.9,0.1-1.3,0.2c-0.4,0.2-0.7,0.5-0.9,0.8c-0.2,0.4-0.4,0.9-0.4,1.6v4h-1.3V111.8z"/>
		<path class="st1" d="M246.8,102.1c-0.3,0-0.5-0.1-0.7-0.3c-0.2-0.2-0.3-0.4-0.3-0.7s0.1-0.5,0.3-0.6c0.2-0.2,0.4-0.3,0.7-0.3
			s0.5,0.1,0.7,0.3c0.2,0.2,0.3,0.4,0.3,0.6c0,0.3-0.1,0.5-0.3,0.7C247.3,102,247.1,102.1,246.8,102.1z M246.2,111.8v-7.9h1.3v7.9
			H246.2z"/>
		<path class="st1" d="M249.8,111.8v-7.9h1.2l0.1,1.4c0.3-0.5,0.6-0.9,1.1-1.2c0.5-0.3,1-0.4,1.6-0.4c0.9,0,1.7,0.3,2.2,0.9
			c0.6,0.6,0.8,1.4,0.8,2.6v4.6h-1.3v-4.5c0-1.6-0.7-2.5-2-2.5c-0.7,0-1.2,0.2-1.7,0.7c-0.4,0.5-0.7,1.2-0.7,2.1v4.1L249.8,111.8
			L249.8,111.8z"/>
		<path class="st1" d="M259,111.8v-11.5h1.3v6.9l3.2-3.3h1.7l-3.5,3.6l4,4.4H264l-3.6-4.1v4.1H259V111.8z"/>
		<path class="st1" d="M269.6,112c-1,0-1.7-0.2-2.4-0.7s-1-1.1-1.1-2h1.4c0.1,0.4,0.3,0.8,0.7,1.1c0.3,0.3,0.8,0.5,1.4,0.5
			s1-0.1,1.2-0.4c0.3-0.2,0.4-0.5,0.4-0.9c0-0.5-0.2-0.8-0.5-1s-0.8-0.3-1.5-0.4c-0.4-0.1-0.9-0.2-1.3-0.4c-0.4-0.2-0.8-0.4-1.1-0.7
			c-0.3-0.3-0.4-0.7-0.4-1.2c0-0.7,0.3-1.3,0.8-1.7c0.5-0.4,1.2-0.7,2.1-0.7c0.8,0,1.5,0.2,2.1,0.6c0.5,0.4,0.9,1,0.9,1.8H271
			c-0.1-0.4-0.2-0.7-0.5-0.9c-0.3-0.2-0.7-0.3-1.2-0.3s-0.9,0.1-1.1,0.3c-0.3,0.2-0.4,0.5-0.4,0.8s0.2,0.6,0.5,0.8
			c0.3,0.2,0.8,0.3,1.4,0.5c0.5,0.1,1,0.2,1.4,0.4c0.4,0.1,0.8,0.4,1.1,0.7c0.3,0.3,0.4,0.7,0.4,1.3c0,0.7-0.3,1.3-0.8,1.8
			C271.3,111.7,270.6,112,269.6,112z"/>
		<path class="st1" d="M275,111.9c-0.3,0-0.5-0.1-0.7-0.3c-0.2-0.2-0.3-0.4-0.3-0.6c0-0.3,0.1-0.5,0.3-0.7c0.2-0.2,0.4-0.3,0.7-0.3
			c0.3,0,0.5,0.1,0.7,0.3c0.2,0.2,0.3,0.4,0.3,0.7c0,0.3-0.1,0.5-0.3,0.6C275.5,111.8,275.3,111.9,275,111.9z"/>
		<path class="st2" d="M67.2,23.7l8.2-0.9c1-0.1,1.9,0.7,1.9,1.7c0,0.9-0.8,1.7-1.7,1.7H69L67.2,23.7z"/>
		<path class="st2" d="M82.4,40.2c0-0.1,0-0.1,0-0.2c-0.1-1.5,0-2.9,0.4-4.4c0.3-0.2,0.6-0.4,0.8-0.8c0.7-1.1,0.3-2.7-0.8-3.4
			c-3.5-2.2-8.4-4.9-13.4-7.5c-5.1-2.6-9.9-4.9-13.7-6.3c-1.3-0.5-2.8,0.1-3.3,1.4c-0.2,0.5-0.2,0.9-0.1,1.5
			c-0.5,0.7-1.3,1.2-2.2,1.4c-0.4,0.1-0.9,0.4-1.3,0.6c-1.9,0.9-3.4,2.4-4.4,4.4l-23,45.4c-0.9,1.7-0.7,3.7,0.2,5.3
			c0.2,0.7,0.5,1.2,0.6,1.6c0.2,0.4,0.3,0.8,0.2,1.2c-0.2,1.7,0.6,3.9,11.7,9.5l2.3,1.1c11.6,5.9,13.8,5.3,15.1,4.2l0.2-0.3
			c0.4-0.4,0.9-0.7,1.6-0.9l0.5-0.1c2-0.1,3.6-1.2,4.5-2.9l23.1-45.4C82.2,44,82.6,42.1,82.4,40.2z"/>
		<path class="st3" d="M21.7,77.7c0.2,0.6,0.4,1.1,0.6,1.5s0.3,0.8,0.2,1.2c-0.2,1.7,0.6,3.9,11.7,9.5l2.3,1.1
			c11.6,5.9,13.8,5.3,15.1,4.2l0.2-0.3c0.4-0.4,0.9-0.7,1.6-0.9l0.4-0.1c-5-1.8-10.6-4.3-16.4-7.2C31.5,83.8,26.2,80.7,21.7,77.7z"
			/>
		<path class="st2" d="M81.8,44.5C82.4,43.4,45.5,24.9,45,26c-0.2,0.3,2-2.5,3.9-3.4c0.4-0.2,0.8-0.5,1.3-0.6
			c0.9-0.2,1.6-0.8,2.2-1.4c-0.1-0.5-0.1-1,0.1-1.4c0.5-1.3,2-1.9,3.3-1.4c3.7,1.4,8.6,3.7,13.7,6.3c5.1,2.6,9.9,5.2,13.4,7.5
			c1.2,0.7,1.5,2.3,0.8,3.4c-0.2,0.4-0.5,0.6-0.8,0.8c-0.4,1.5-0.5,2.9-0.4,4.4c0,0.1,0,0.1,0,0.2C82.5,42.1,81.8,44.5,81.8,44.5z"
			/>
		<path class="st3" d="M81.3,45.9c0.2-0.4,0.3-0.8,0.5-1.2C82.4,43.5,45.6,25,45,26.2c-0.2,0.3-0.4,0.6-0.6,1L21.9,71.5
			c-1.3,2.7,35.6,21.4,36.9,18.8L81.3,45.9z"/>
		<path class="st2" d="M45.3,35.1L28.4,68.3c-1.1,2,20,16.5,32.4,17.9l18-35.4C70.6,42.4,45.6,34.5,45.3,35.1z"/>
		<path class="st0" d="M36.5,42.8l-6.4,12.6c0,0,30.3,1.3,39.5,13.6l2.7-5.1C72.3,63.9,58.6,46.7,36.5,42.8z"/>
		<path class="st4" d="M101.6,53.9l0.9-5.4c0.1-0.7,0.8-1.1,1.4-0.9s0.9,0.8,0.8,1.4l-1.2,4.2L101.6,53.9z"/>
		<path class="st4" d="M114.9,47.2L114.9,47.2c-1-0.2-2-0.5-2.8-1.1c-0.1-0.2-0.2-0.5-0.4-0.6c-0.6-0.6-1.7-0.7-2.3-0.1
			c-2.1,1.8-4.7,4.4-7.2,7.2c-2.6,2.8-4.9,5.4-6.5,7.5c-0.5,0.7-0.5,1.8,0.3,2.4c0.3,0.2,0.6,0.3,0.9,0.3c0.3,0.5,0.5,1,0.5,1.6
			c0,0.3,0.1,0.6,0.2,0.9c0.2,1.4,0.9,2.6,2,3.6l24.6,23c0.9,0.9,2.2,1.2,3.4,0.8c0.5,0,0.8-0.1,1.1-0.1c0.3-0.1,0.5,0,0.8,0.1
			c1,0.4,2.6,0.3,8.2-5.7l1.2-1.2c5.9-6.3,5.9-7.8,5.4-8.9l-0.1-0.2c-0.2-0.3-0.3-0.7-0.3-1.2v-0.3c0.3-1.3-0.1-2.5-1-3.4l-24.6-23
			C117.3,48.1,116.2,47.5,114.9,47.2z"/>
		<path class="st4" d="M127.6,92.8c0.4,0,0.8-0.1,1.1-0.1c0.3-0.1,0.6,0,0.8,0.1c1,0.4,2.6,0.3,8.2-5.7l1.1-1.2
			c5.9-6.3,5.9-7.8,5.4-8.9l-0.1-0.2c-0.2-0.3-0.3-0.7-0.3-1.2v-0.2c-2.1,2.8-4.7,6-7.6,9.1C133.3,87.7,130.3,90.5,127.6,92.8z"/>
		<path class="st4" d="M117.5,48.4c-0.6-0.6-19.2,19.5-18.5,20c0.2,0.2-1.2-1.7-1.5-3.1c-0.1-0.3-0.2-0.6-0.2-0.9
			c0-0.6-0.2-1.2-0.5-1.6c-0.3,0-0.6-0.1-0.9-0.3c-0.8-0.5-0.8-1.6-0.3-2.4c1.6-2.1,3.9-4.8,6.5-7.5c2.6-2.8,5.1-5.3,7.2-7.2
			c0.7-0.6,1.7-0.5,2.3,0.1c0.2,0.2,0.3,0.4,0.4,0.7c0.8,0.5,1.8,0.9,2.7,1.1h0.1C116.1,47.5,117.5,48.4,117.5,48.4z"/>
		<path class="st5" d="M118.4,49c-0.2-0.2-0.5-0.4-0.7-0.5c-0.7-0.6-19.2,19.4-18.5,20c0.2,0.2,0.3,0.4,0.5,0.5l24.1,22.5
			c1.4,1.3,20.2-18.7,18.7-20L118.4,49z"/>
		<path class="st4" d="M103.7,68.9l20.1,18.5c1.1,1.1,13.3-10.4,16.5-18.1l-19.9-18.5C113.5,54.6,103.3,68.6,103.7,68.9z"/>
		<path class="st0" d="M116.6,59.7c1.1-1.6,2.4-1.6,3.2,0.5c3.3,5,3.2,5.4,8.1,11.6c2,3,3.2,3.2,1.9,5.1c-2,1.6-2.5,0.5-4.9-1.2
			c-3.4-2.7-11-7.4-12.5-9.1s1.4-2.7,3-1.7c1.6,0.8,9.9,8,10,7.9s-5.4-6.1-7.5-9.1C116.6,61.7,115.8,61.5,116.6,59.7z"/>
		<path class="st6" d="M102.1,105.3c0,0,3.6,1.6,2.9-4.2c-0.7-5.9-1.1-9,0.4-10.7c0,0-5.1,1.9-2.4,8.9
			C105.7,106.2,102.1,105.3,102.1,105.3z"/>
		<path class="st7" d="M72.9,107.5l17.7-13.8l11.7,17L83,122.2c-1.5,0.9-3.4,0.8-4.7-0.4c-2.6-2.2-5.7-6.5-6.7-10.1
			C71,110.3,71.6,108.5,72.9,107.5z"/>
		<path class="st8" d="M105.3,105.7l-0.8-1.1c-0.1-0.1-0.2-0.2-0.3-0.2c-0.2,0-0.4-0.3-0.4-0.5v-0.1c0-0.1,0-0.2-0.1-0.3l-7.3-10.7
			c-0.3-0.4-0.8-0.6-1.4-0.5l-3.4,0.8l11.7,17l2-2.9C105.6,106.7,105.6,106.1,105.3,105.7z"/>
		<path class="st8" d="M102.4,111.5L90,93.4c-0.5-0.8-0.3-1.9,0.4-2.4c0.8-0.5,1.9-0.3,2.4,0.5l12.4,18.1c0.5,0.8,0.3,1.9-0.4,2.4
			C104,112.5,102.9,112.3,102.4,111.5z"/>
		<path class="st9" d="M86.8,119.7c-3.9-4.8-7.2-9.7-10.2-14.8c-0.2-0.3-0.1-0.7,0.2-1l8.5-6.7c0.4-0.3,0.9-0.2,1.1,0.2
			c3,5.3,6.6,10.5,10.9,15.9c0.3,0.4,0.2,0.9-0.2,1.1l-9.4,5.5C87.4,120,87,120,86.8,119.7z"/>
	</g>
</g>
</svg>
