<?xml version="1.0" encoding="utf-8"?>
<!-- Generator: Adobe Illustrator 25.1.0, SVG Export Plug-In . SVG Version: 6.00 Build 0)  -->
<svg version="1.1" id="Layer_1" xmlns="http://www.w3.org/2000/svg" xmlns:xlink="http://www.w3.org/1999/xlink" x="0px" y="0px"
	 viewBox="0 0 332.7 157.9" style="enable-background:new 0 0 332.7 157.9;" xml:space="preserve">
<style type="text/css">
	.st0{fill:#FFFFFF;}
	.st1{fill:#808080;}
	.st2{fill:#00CDDC;}
	.st3{fill:#F4F1EF;}
	.st4{fill:#28C86E;}
	.st5{fill:#3CDC82;}
	.st6{fill:#32DCD2;}
	.st7{fill:none;stroke:#28C86E;stroke-width:1.3622;stroke-linecap:round;stroke-miterlimit:10;}
	.st8{fill:#FFCF8D;}
	.st9{fill:#FF9F1A;}
</style>
<g>
	<g>
		<path class="st0" d="M332.6,109.3c-1.6-29.7,4.8-72.8-21.2-94C282.5-8.3,120.2,2.6,85.6,1.9C69.1,1.6,17.9,2,8.9,19.9
			c-13.4,26.5-7.3,42.4-8.5,73c-1.2,30-1,58.6,38.6,59.6c73.2,1.9,156.9,8.2,226.1,3.9C298.6,154.2,335.3,159.2,332.6,109.3z"/>
		<path class="st1" d="M25,59.8V48.6h3.6c0.9,0,1.6,0.1,2.1,0.4c0.5,0.3,1,0.7,1.2,1.2s0.4,1.1,0.4,1.7c0,0.7-0.2,1.3-0.6,1.9
			c-0.4,0.6-1,1-1.8,1.2l2.5,4.8h-1.6l-2.3-4.6h-0.1h-2.2v4.6L25,59.8L25,59.8z M26.3,54.1h2.2c0.9,0,1.5-0.2,1.9-0.6
			c0.4-0.4,0.6-0.9,0.6-1.6c0-0.7-0.2-1.2-0.6-1.6c-0.4-0.4-1-0.6-1.9-0.6h-2.2V54.1L26.3,54.1z"/>
		<path class="st1" d="M37.5,60c-0.8,0-1.4-0.2-2-0.5s-1-0.8-1.4-1.4c-0.3-0.6-0.5-1.3-0.5-2.2c0-0.8,0.2-1.6,0.5-2.2
			c0.3-0.6,0.8-1.1,1.4-1.5c0.6-0.3,1.3-0.5,2.1-0.5s1.4,0.2,2,0.5c0.6,0.4,1,0.8,1.3,1.4c0.3,0.6,0.5,1.2,0.5,1.8
			c0,0.1,0,0.2,0,0.4c0,0.1,0,0.2,0,0.4h-6.3c0,0.6,0.2,1.1,0.4,1.5s0.6,0.7,0.9,0.9s0.8,0.3,1.2,0.3c0.5,0,1-0.1,1.4-0.4
			c0.4-0.3,0.7-0.6,0.8-1H41c-0.2,0.7-0.6,1.3-1.2,1.8C39.2,59.8,38.4,60,37.5,60z M37.5,52.8c-0.6,0-1.2,0.2-1.7,0.6
			c-0.5,0.4-0.8,1-0.9,1.7h5c0-0.7-0.3-1.3-0.7-1.7C38.7,53,38.1,52.8,37.5,52.8z"/>
		<path class="st1" d="M46,60c-1,0-1.7-0.2-2.4-0.7s-1-1.1-1.1-1.9h1.4c0.1,0.4,0.3,0.8,0.7,1.1s0.8,0.5,1.5,0.5
			c0.6,0,1-0.1,1.2-0.4c0.3-0.2,0.4-0.5,0.4-0.9c0-0.5-0.2-0.8-0.5-1c-0.4-0.2-0.8-0.3-1.5-0.4c-0.4-0.1-0.8-0.2-1.3-0.4
			s-0.8-0.4-1.1-0.7s-0.4-0.7-0.4-1.2c0-0.7,0.3-1.3,0.8-1.7s1.2-0.7,2.1-0.7c0.8,0,1.5,0.2,2.1,0.6c0.5,0.4,0.8,1,0.9,1.8h-1.3
			c0-0.4-0.2-0.7-0.5-0.9s-0.7-0.3-1.2-0.3s-0.8,0.1-1.1,0.3s-0.4,0.5-0.4,0.8s0.2,0.6,0.5,0.8s0.8,0.3,1.4,0.5
			c0.5,0.1,1,0.2,1.4,0.4s0.8,0.4,1.1,0.7s0.4,0.7,0.4,1.3c0,0.7-0.3,1.3-0.8,1.8C47.7,59.8,47,60,46,60z"/>
		<path class="st1" d="M54.6,60c-0.8,0-1.4-0.2-2-0.5s-1.1-0.8-1.4-1.4c-0.3-0.6-0.5-1.3-0.5-2.2c0-0.8,0.2-1.6,0.5-2.2
			c0.3-0.6,0.8-1.1,1.4-1.5c0.6-0.3,1.3-0.5,2.1-0.5s1.4,0.2,2,0.5c0.6,0.4,1,0.8,1.3,1.4c0.3,0.6,0.5,1.2,0.5,1.8
			c0,0.1,0,0.2,0,0.4c0,0.1,0,0.2,0,0.4H52c0,0.6,0.2,1.1,0.4,1.5s0.6,0.7,0.9,0.9s0.8,0.3,1.2,0.3c0.6,0,1-0.1,1.4-0.4
			c0.4-0.3,0.7-0.6,0.8-1H58c-0.2,0.7-0.6,1.3-1.2,1.8C56.3,59.8,55.5,60,54.6,60z M54.6,52.8c-0.6,0-1.2,0.2-1.7,0.6
			s-0.8,1-0.9,1.7h5c0-0.7-0.3-1.3-0.7-1.7C55.8,53,55.2,52.8,54.6,52.8z"/>
		<path class="st1" d="M62.7,60c-0.7,0-1.2-0.1-1.7-0.3c-0.4-0.2-0.8-0.5-1-0.9s-0.3-0.8-0.3-1.2c0-0.8,0.3-1.4,0.9-1.9
			c0.6-0.4,1.5-0.7,2.5-0.7h2.1v-0.1c0-0.7-0.2-1.2-0.5-1.6s-0.8-0.5-1.5-0.5c-0.5,0-1,0.1-1.3,0.4c-0.4,0.3-0.6,0.6-0.7,1.1H60
			c0.1-0.6,0.2-1.1,0.6-1.5s0.8-0.7,1.3-0.9s1-0.3,1.6-0.3c1.1,0,1.9,0.3,2.5,0.9c0.6,0.6,0.8,1.4,0.8,2.4v4.9h-1.2l-0.1-1.4
			c-0.2,0.4-0.5,0.8-1,1.1C64,59.9,63.5,60,62.7,60z M62.9,58.9c0.5,0,0.9-0.1,1.3-0.4c0.4-0.3,0.6-0.6,0.8-1
			c0.2-0.4,0.3-0.9,0.3-1.3l0,0h-2c-0.8,0-1.3,0.1-1.7,0.4s-0.5,0.6-0.5,1s0.2,0.8,0.5,1C62,58.8,62.4,58.9,62.9,58.9z"/>
		<path class="st1" d="M68.8,59.8v-7.9H70l0.1,1.5c0.2-0.5,0.6-0.9,1.1-1.2s1.1-0.5,1.9-0.5v1.4h-0.4c-0.5,0-0.9,0.1-1.3,0.2
			c-0.4,0.2-0.7,0.5-0.9,0.8c-0.2,0.4-0.3,0.9-0.3,1.6v4L68.8,59.8L68.8,59.8z"/>
		<path class="st1" d="M77.9,60c-0.8,0-1.4-0.2-2-0.5s-1.1-0.8-1.4-1.5c-0.3-0.6-0.5-1.4-0.5-2.2s0.2-1.6,0.5-2.2
			c0.3-0.6,0.8-1.1,1.4-1.5c0.6-0.3,1.3-0.5,2-0.5c0.9,0,1.7,0.2,2.4,0.7c0.7,0.5,1.1,1.2,1.2,2h-1.4c-0.1-0.5-0.4-0.9-0.8-1.1
			c-0.4-0.3-0.9-0.4-1.5-0.4c-0.4,0-0.9,0.1-1.3,0.3s-0.7,0.6-1,1s-0.4,1-0.4,1.7s0.1,1.2,0.4,1.7c0.2,0.4,0.6,0.8,1,1
			s0.8,0.3,1.3,0.3c0.6,0,1-0.1,1.5-0.4c0.4-0.3,0.7-0.7,0.8-1.2h1.4c-0.2,0.8-0.6,1.4-1.2,1.9C79.6,59.8,78.8,60,77.9,60z"/>
		<path class="st1" d="M83.4,59.8V48.3h1.3v4.9c0.3-0.5,0.7-0.9,1.1-1.1s1-0.4,1.6-0.4c0.9,0,1.7,0.3,2.2,0.9
			c0.6,0.6,0.8,1.4,0.8,2.6v4.6h-1.3v-4.5c0-1.7-0.7-2.5-2-2.5c-0.7,0-1.3,0.2-1.7,0.7c-0.5,0.5-0.7,1.2-0.7,2.1v4.1L83.4,59.8
			L83.4,59.8z"/>
		<path class="st1" d="M99.8,60c-0.9,0-1.7-0.2-2.4-0.7c-0.6-0.5-1-1.1-1.1-1.9h1.4c0.1,0.4,0.3,0.8,0.7,1.1
			c0.4,0.3,0.8,0.5,1.5,0.5c0.6,0,1-0.1,1.2-0.4c0.3-0.2,0.4-0.5,0.4-0.9c0-0.5-0.2-0.8-0.5-1s-0.8-0.3-1.5-0.4
			c-0.4-0.1-0.8-0.2-1.3-0.4s-0.8-0.4-1.1-0.7c-0.3-0.3-0.4-0.7-0.4-1.2c0-0.7,0.3-1.3,0.8-1.7s1.2-0.7,2.1-0.7
			c0.8,0,1.5,0.2,2.1,0.6c0.5,0.4,0.8,1,0.9,1.8h-1.3c0-0.4-0.2-0.7-0.5-0.9s-0.7-0.3-1.2-0.3s-0.8,0.1-1.1,0.3s-0.4,0.5-0.4,0.8
			s0.2,0.6,0.5,0.8s0.8,0.3,1.4,0.5c0.5,0.1,1,0.2,1.4,0.4s0.8,0.4,1.1,0.7s0.4,0.7,0.4,1.3c0,0.7-0.3,1.3-0.8,1.8
			C101.5,59.8,100.8,60,99.8,60z"/>
		<path class="st1" d="M104.8,59.8V48.3h1.3v4.9c0.3-0.5,0.6-0.9,1.1-1.1c0.5-0.3,1-0.4,1.6-0.4c0.9,0,1.7,0.3,2.2,0.9
			c0.6,0.6,0.8,1.4,0.8,2.6v4.6h-1.3v-4.5c0-1.7-0.7-2.5-2-2.5c-0.7,0-1.3,0.2-1.7,0.7c-0.5,0.5-0.7,1.2-0.7,2.1v4.1L104.8,59.8
			L104.8,59.8z"/>
		<path class="st1" d="M117.5,60c-0.8,0-1.4-0.2-2-0.5s-1.1-0.8-1.4-1.4c-0.4-0.6-0.5-1.4-0.5-2.2s0.2-1.6,0.5-2.2s0.8-1.1,1.4-1.4
			c0.6-0.3,1.3-0.5,2-0.5c0.8,0,1.4,0.2,2,0.5s1.1,0.8,1.4,1.4s0.5,1.4,0.5,2.2s-0.2,1.6-0.5,2.2c-0.4,0.6-0.8,1.1-1.4,1.4
			C119,59.9,118.3,60,117.5,60z M117.5,58.9c0.5,0,0.9-0.1,1.3-0.3s0.7-0.6,1-1s0.4-1,0.4-1.7s-0.1-1.2-0.4-1.7
			c-0.2-0.4-0.6-0.8-0.9-1c-0.4-0.2-0.8-0.3-1.3-0.3s-0.9,0.1-1.3,0.3s-0.7,0.6-1,1s-0.4,1-0.4,1.7s0.1,1.2,0.4,1.7s0.6,0.8,0.9,1
			C116.7,58.8,117.1,58.9,117.5,58.9z"/>
		<path class="st1" d="M124.7,59.8l-2.3-7.9h1.3l1.7,6.2l1.9-6.2h1.5l1.9,6.2l1.7-6.2h1.4l-2.3,7.9H130l-2-6.5l-1.9,6.5H124.7z"/>
		<path class="st1" d="M138.2,60c-0.9,0-1.7-0.2-2.4-0.7c-0.6-0.5-1-1.1-1.1-1.9h1.4c0.1,0.4,0.3,0.8,0.7,1.1s0.8,0.5,1.5,0.5
			c0.6,0,1-0.1,1.2-0.4c0.3-0.2,0.4-0.5,0.4-0.9c0-0.5-0.2-0.8-0.5-1s-0.8-0.3-1.5-0.4c-0.4-0.1-0.9-0.2-1.3-0.4
			c-0.4-0.2-0.8-0.4-1.1-0.7s-0.4-0.7-0.4-1.2c0-0.7,0.3-1.3,0.8-1.7s1.2-0.7,2.1-0.7c0.8,0,1.5,0.2,2.1,0.6c0.5,0.4,0.8,1,0.9,1.8
			h-1.3c-0.1-0.4-0.2-0.7-0.5-0.9s-0.7-0.3-1.2-0.3s-0.9,0.1-1.1,0.3c-0.3,0.2-0.4,0.5-0.4,0.8s0.2,0.6,0.5,0.8s0.8,0.3,1.4,0.5
			c0.5,0.1,1,0.2,1.4,0.4s0.8,0.4,1.1,0.7s0.4,0.7,0.4,1.3c0,0.7-0.3,1.3-0.8,1.8C139.9,59.8,139.1,60,138.2,60z"/>
		<path class="st1" d="M150.5,59.8c-0.7,0-1.3-0.2-1.7-0.5c-0.4-0.4-0.6-1-0.6-1.9V53h-1.4v-1.1h1.4l0.2-1.9h1.2v1.9h2.3V53h-2.3
			v4.4c0,0.5,0.1,0.8,0.3,1s0.6,0.3,1.1,0.3h0.8v1.1H150.5L150.5,59.8z"/>
		<path class="st1" d="M153.6,59.8V48.3h1.3v4.9c0.3-0.5,0.7-0.9,1.1-1.1c0.5-0.3,1-0.4,1.6-0.4c0.9,0,1.6,0.3,2.2,0.9
			c0.6,0.6,0.8,1.4,0.8,2.6v4.6h-1.3v-4.5c0-1.7-0.7-2.5-2-2.5c-0.7,0-1.3,0.2-1.7,0.7c-0.5,0.5-0.7,1.2-0.7,2.1v4.1L153.6,59.8
			L153.6,59.8z"/>
		<path class="st1" d="M165.4,60c-0.7,0-1.2-0.1-1.7-0.3c-0.4-0.2-0.8-0.5-1-0.9s-0.3-0.8-0.3-1.2c0-0.8,0.3-1.4,0.9-1.9
			s1.5-0.7,2.5-0.7h2.1v-0.1c0-0.7-0.2-1.2-0.5-1.6s-0.9-0.5-1.5-0.5c-0.5,0-1,0.1-1.4,0.4c-0.4,0.3-0.6,0.6-0.7,1.1h-1.4
			c0.1-0.6,0.2-1.1,0.6-1.5s0.8-0.7,1.3-0.9s1-0.3,1.6-0.3c1.1,0,1.9,0.3,2.5,0.9c0.6,0.6,0.8,1.4,0.8,2.4v4.9H168l-0.1-1.4
			c-0.2,0.4-0.6,0.8-1,1.1C166.7,59.9,166.1,60,165.4,60z M165.6,58.9c0.5,0,0.9-0.1,1.3-0.4c0.4-0.3,0.7-0.6,0.8-1
			c0.2-0.4,0.3-0.9,0.3-1.3l0,0h-2c-0.8,0-1.4,0.1-1.7,0.4c-0.3,0.3-0.5,0.6-0.5,1s0.2,0.8,0.5,1C164.6,58.8,165,58.9,165.6,58.9z"
			/>
		<path class="st1" d="M174.3,59.8c-0.7,0-1.3-0.2-1.7-0.5c-0.4-0.4-0.6-1-0.6-1.9V53h-1.4v-1.1h1.4l0.2-1.9h1.2v1.9h2.3V53h-2.3
			v4.4c0,0.5,0.1,0.8,0.3,1s0.6,0.3,1.1,0.3h0.8v1.1H174.3L174.3,59.8z"/>
		<path class="st1" d="M25.7,108.6c-0.3,0-0.5-0.1-0.7-0.3c-0.2-0.2-0.3-0.4-0.3-0.7c0-0.3,0.1-0.5,0.3-0.6c0.2-0.2,0.4-0.3,0.7-0.3
			c0.3,0,0.5,0.1,0.7,0.3c0.2,0.2,0.3,0.4,0.3,0.6c0,0.3-0.1,0.5-0.3,0.7C26.2,108.5,26,108.6,25.7,108.6z M25,118.3v-7.9h1.3v7.9
			H25z"/>
		<path class="st1" d="M28.7,118.3v-7.9h1.2l0.1,1.1c0.3-0.4,0.6-0.8,1-1s0.9-0.4,1.4-0.4c0.6,0,1.2,0.1,1.6,0.4
			c0.4,0.3,0.8,0.6,1,1.2c0.3-0.5,0.7-0.9,1.1-1.1s1-0.4,1.6-0.4c1,0,1.7,0.3,2.3,0.9s0.9,1.4,0.9,2.6v4.6h-1.3v-4.5
			c0-0.8-0.2-1.4-0.5-1.9c-0.3-0.4-0.8-0.6-1.4-0.6c-0.6,0-1.2,0.2-1.6,0.7c-0.4,0.5-0.6,1.2-0.6,2.1v4.1h-1.3v-4.5
			c0-0.8-0.2-1.4-0.5-1.9c-0.3-0.4-0.8-0.6-1.4-0.6c-0.6,0-1.2,0.2-1.6,0.7s-0.6,1.2-0.6,2.1v4.1L28.7,118.3L28.7,118.3z"/>
		<path class="st1" d="M43,121.8v-11.5h1.2l0.1,1.3c0.3-0.4,0.6-0.7,1.1-1s1.1-0.5,1.8-0.5c0.8,0,1.5,0.2,2.1,0.5
			c0.6,0.4,1,0.9,1.4,1.5s0.5,1.3,0.5,2.1s-0.2,1.5-0.5,2.1s-0.8,1.1-1.4,1.5c-0.6,0.4-1.3,0.5-2.1,0.5c-0.7,0-1.2-0.1-1.7-0.4
			s-0.9-0.6-1.2-1.1v4.8H43V121.8z M47.1,117.3c0.5,0,1-0.1,1.4-0.4c0.4-0.2,0.7-0.6,1-1.1c0.2-0.4,0.3-1,0.3-1.6s-0.1-1.1-0.3-1.6
			c-0.2-0.4-0.5-0.8-1-1.1c-0.4-0.2-0.9-0.4-1.4-0.4s-1,0.1-1.4,0.4s-0.7,0.6-1,1.1s-0.3,1-0.3,1.6s0.1,1.1,0.3,1.6s0.5,0.8,1,1.1
			C46.1,117.2,46.6,117.3,47.1,117.3z"/>
		<path class="st1" d="M53.1,118.3v-7.9h1.2l0.1,1.5c0.2-0.5,0.6-0.9,1.1-1.2c0.5-0.3,1.1-0.5,1.9-0.5v1.4H57
			c-0.5,0-0.9,0.1-1.3,0.2s-0.7,0.4-0.9,0.8s-0.4,0.9-0.4,1.6v4L53.1,118.3L53.1,118.3z"/>
		<path class="st1" d="M62.2,118.5c-0.8,0-1.4-0.2-2-0.5s-1.1-0.8-1.4-1.4s-0.5-1.4-0.5-2.2s0.2-1.6,0.5-2.2s0.8-1.1,1.4-1.5
			c0.6-0.3,1.3-0.5,2-0.5c0.8,0,1.4,0.2,2,0.5s1.1,0.8,1.4,1.5c0.3,0.6,0.5,1.4,0.5,2.2s-0.2,1.6-0.5,2.2s-0.8,1.1-1.4,1.4
			C63.6,118.3,62.9,118.5,62.2,118.5z M62.2,117.3c0.5,0,0.9-0.1,1.3-0.3c0.4-0.2,0.7-0.6,1-1c0.2-0.5,0.4-1,0.4-1.7
			s-0.1-1.2-0.4-1.7c-0.2-0.4-0.6-0.8-1-1s-0.8-0.3-1.3-0.3s-0.9,0.1-1.3,0.3c-0.4,0.2-0.7,0.6-1,1s-0.4,1-0.4,1.7s0.1,1.2,0.4,1.7
			c0.2,0.4,0.6,0.8,1,1S61.7,117.3,62.2,117.3z"/>
		<path class="st1" d="M69.9,118.3l-3-7.9h1.4l2.4,6.6l2.4-6.6h1.4l-3,7.9H69.9z"/>
		<path class="st1" d="M79.2,118.5c-0.8,0-1.4-0.2-2-0.5c-0.6-0.4-1-0.8-1.4-1.4c-0.3-0.6-0.5-1.4-0.5-2.2c0-0.8,0.2-1.6,0.5-2.2
			s0.8-1.1,1.4-1.5s1.3-0.5,2.1-0.5c0.8,0,1.4,0.2,2,0.5s1,0.8,1.3,1.4s0.4,1.2,0.4,1.8c0,0.1,0,0.2,0,0.3c0,0.1,0,0.2,0,0.4h-6.3
			c0,0.6,0.2,1.1,0.4,1.5s0.6,0.7,0.9,0.9c0.4,0.2,0.8,0.3,1.2,0.3c0.5,0,1-0.1,1.4-0.4s0.7-0.6,0.8-1h1.3c-0.2,0.7-0.6,1.4-1.2,1.8
			C80.9,118.2,80.1,118.5,79.2,118.5z M79.2,111.3c-0.6,0-1.2,0.2-1.7,0.6s-0.8,1-0.9,1.7h5c0-0.7-0.3-1.3-0.7-1.7
			C80.4,111.5,79.8,111.3,79.2,111.3z"/>
		<path class="st1" d="M87.7,118.5c-1,0-1.7-0.2-2.4-0.7c-0.6-0.5-1-1.1-1.1-2h1.4c0.1,0.4,0.3,0.8,0.7,1.1c0.4,0.3,0.8,0.5,1.4,0.5
			s1-0.1,1.2-0.4s0.4-0.5,0.4-0.9c0-0.5-0.2-0.8-0.5-1s-0.8-0.3-1.5-0.4c-0.4-0.1-0.8-0.2-1.3-0.4c-0.4-0.2-0.8-0.4-1.1-0.7
			c-0.3-0.3-0.4-0.7-0.4-1.2c0-0.7,0.3-1.3,0.8-1.7c0.5-0.4,1.2-0.7,2.1-0.7c0.8,0,1.5,0.2,2.1,0.6c0.5,0.4,0.9,1,0.9,1.8h-1.3
			c0-0.4-0.2-0.7-0.5-0.9c-0.3-0.2-0.7-0.3-1.2-0.3s-0.8,0.1-1.1,0.3s-0.4,0.5-0.4,0.8s0.2,0.6,0.5,0.8c0.3,0.2,0.8,0.3,1.4,0.5
			c0.5,0.1,1,0.2,1.4,0.4c0.4,0.1,0.8,0.4,1.1,0.7c0.3,0.3,0.4,0.7,0.4,1.3c0,0.7-0.3,1.3-0.8,1.8C89.4,118.2,88.7,118.5,87.7,118.5
			z"/>
		<path class="st1" d="M100,118.5c-1,0-1.7-0.2-2.4-0.7c-0.6-0.5-1-1.1-1.1-2h1.4c0.1,0.4,0.3,0.8,0.7,1.1c0.4,0.3,0.8,0.5,1.4,0.5
			s1-0.1,1.2-0.4c0.3-0.2,0.4-0.5,0.4-0.9c0-0.5-0.2-0.8-0.5-1c-0.4-0.2-0.8-0.3-1.5-0.4c-0.4-0.1-0.9-0.2-1.3-0.4
			c-0.4-0.2-0.8-0.4-1.1-0.7c-0.3-0.3-0.4-0.7-0.4-1.2c0-0.7,0.3-1.3,0.8-1.7c0.5-0.4,1.2-0.7,2.1-0.7c0.8,0,1.5,0.2,2.1,0.6
			s0.8,1,0.9,1.8h-1.3c-0.1-0.4-0.2-0.7-0.5-0.9c-0.3-0.2-0.7-0.3-1.2-0.3s-0.8,0.1-1.1,0.3c-0.3,0.2-0.4,0.5-0.4,0.8
			s0.2,0.6,0.5,0.8c0.3,0.2,0.8,0.3,1.4,0.5c0.5,0.1,1,0.2,1.4,0.4c0.4,0.1,0.8,0.4,1.1,0.7c0.3,0.3,0.4,0.7,0.4,1.3
			c0,0.7-0.3,1.3-0.8,1.8C101.7,118.2,100.9,118.5,100,118.5z"/>
		<path class="st1" d="M104.9,118.3v-11.5h1.3v11.5H104.9z"/>
		<path class="st1" d="M112.1,118.5c-0.8,0-1.4-0.2-2-0.5c-0.6-0.4-1-0.8-1.4-1.4c-0.3-0.6-0.5-1.4-0.5-2.2c0-0.8,0.2-1.6,0.5-2.2
			s0.8-1.1,1.4-1.5s1.3-0.5,2.1-0.5c0.8,0,1.4,0.2,2,0.5s1,0.8,1.3,1.4s0.5,1.2,0.5,1.8c0,0.1,0,0.2,0,0.3c0,0.1,0,0.2,0,0.4h-6.3
			c0,0.6,0.2,1.1,0.4,1.5s0.6,0.7,0.9,0.9c0.4,0.2,0.8,0.3,1.2,0.3c0.6,0,1-0.1,1.4-0.4s0.6-0.6,0.8-1h1.3c-0.2,0.7-0.6,1.4-1.2,1.8
			C113.8,118.2,113,118.5,112.1,118.5z M112.1,111.3c-0.6,0-1.2,0.2-1.7,0.6s-0.8,1-0.9,1.7h5c0-0.7-0.3-1.3-0.7-1.7
			C113.3,111.5,112.7,111.3,112.1,111.3z"/>
		<path class="st1" d="M121.2,118.5c-0.8,0-1.4-0.2-2-0.5c-0.6-0.4-1.1-0.8-1.4-1.4s-0.5-1.4-0.5-2.2c0-0.8,0.2-1.6,0.5-2.2
			s0.8-1.1,1.4-1.5s1.3-0.5,2.1-0.5c0.8,0,1.4,0.2,2,0.5s1,0.8,1.3,1.4s0.4,1.2,0.4,1.8c0,0.1,0,0.2,0,0.3c0,0.1,0,0.2,0,0.4h-6.3
			c0,0.6,0.2,1.1,0.4,1.5s0.6,0.7,0.9,0.9c0.4,0.2,0.8,0.3,1.2,0.3c0.6,0,1-0.1,1.4-0.4s0.7-0.6,0.8-1h1.3c-0.2,0.7-0.6,1.4-1.2,1.8
			C122.9,118.2,122.1,118.5,121.2,118.5z M121.2,111.3c-0.6,0-1.2,0.2-1.7,0.6s-0.8,1-0.9,1.7h5c0-0.7-0.3-1.3-0.7-1.7
			C122.4,111.5,121.8,111.3,121.2,111.3z"/>
		<path class="st1" d="M126.7,121.8v-11.5h1.2l0.1,1.3c0.3-0.4,0.6-0.7,1.1-1s1.1-0.5,1.8-0.5c0.8,0,1.5,0.2,2.1,0.5
			c0.6,0.4,1,0.9,1.4,1.5s0.5,1.3,0.5,2.1s-0.2,1.5-0.5,2.1s-0.8,1.1-1.4,1.5c-0.6,0.4-1.3,0.5-2.1,0.5c-0.7,0-1.2-0.1-1.7-0.4
			s-0.9-0.6-1.2-1.1v4.8h-1.3V121.8z M130.8,117.3c0.5,0,1-0.1,1.4-0.4c0.4-0.2,0.7-0.6,1-1.1c0.2-0.4,0.4-1,0.4-1.6
			s-0.1-1.1-0.4-1.6c-0.2-0.4-0.6-0.8-1-1.1c-0.4-0.2-0.9-0.4-1.4-0.4s-1,0.1-1.4,0.4c-0.4,0.2-0.7,0.6-1,1.1
			c-0.2,0.4-0.4,1-0.4,1.6s0.1,1.1,0.4,1.6c0.2,0.4,0.6,0.8,1,1.1S130.3,117.3,130.8,117.3z"/>
		<path class="st1" d="M137.2,118.3c-0.3,0-0.5-0.1-0.7-0.3c-0.2-0.2-0.3-0.4-0.3-0.6c0-0.3,0.1-0.5,0.3-0.7s0.4-0.3,0.7-0.3
			s0.5,0.1,0.7,0.3c0.2,0.2,0.3,0.4,0.3,0.7c0,0.3-0.1,0.5-0.3,0.6C137.7,118.3,137.5,118.3,137.2,118.3z"/>
		<path class="st2" d="M28.4,72.5c0.4-0.1,0.9-0.1,1.6-0.1c1.5,0,2.4,0.1,2.8,0.3c0.3,0.1,0.5,0.5,0.5,1c0,0.4-0.1,0.8-0.4,1
			c-0.3,0.2-0.7,0.4-1.1,0.4s-0.7,0.1-0.8,0.3c-0.1,0.2-0.2,0.7-0.2,1.4c0,0.2,0,0.9,0.1,2.1c0.1,1.5,0.1,2.5,0.3,2.9
			c0.1,0.4,0.4,0.6,0.8,0.6c0.1,0,0.4,0,0.8-0.1c0.1,0,0.1,0,0.2,0s0.1,0,0.1,0c0.3,0,0.6,0.2,1,0.5l0.6,0.5l-0.5,0.6
			c-0.3,0.4-0.9,0.7-1.7,1c-0.7,0.2-1.1,0.4-1.2,0.5s-0.2,0.4-0.2,0.8c0,0.1,0,0.2,0,0.4c0,0.2,0,0.4,0,0.5c0,1.9,0.1,3.1,0.3,3.7
			c0.1,0.2,0.2,0.4,0.3,0.4c0.1,0.1,0.4,0.1,0.9,0.1c0.6,0,1.1,0.1,1.6,0.4c0.4,0.3,0.6,0.6,0.6,0.9c0,0.4-0.2,0.7-0.8,1.1
			c-0.5,0.4-1.1,0.6-1.7,0.7c-0.5,0.1-1.1,0.2-1.6,0.2c-0.6,0-1.2-0.1-1.9-0.3c-0.5-0.1-0.8-0.2-0.9-0.3c-0.2-0.1-0.3-0.4-0.5-1
			s-0.2-1.2-0.2-2.1s0-2.2-0.1-4.1c0-0.2,0-0.4,0-0.5c-0.1-4.8-0.1-8-0.2-9.7c0-0.5,0-1,0-1.7c0-0.8,0.1-1.4,0.3-1.6
			C27.3,72.8,27.7,72.6,28.4,72.5z"/>
		<path class="st2" d="M40.5,70.8c0.1,0,0.2-0.1,0.3-0.1s0.2-0.1,0.2-0.1c0.1,0,0.1,0,0.2-0.1h0.1c0.1,0,0.3,0.1,0.7,0.3
			c0.5,0.2,0.7,0.6,0.8,0.9c0.2,1.1,0.5,2.2,0.9,3.2c0.3,1,0.6,1.5,0.7,1.5c0,0,0,0,0-0.1s0.2-1,0.6-2.5c0.2-1,0.4-1.7,0.5-2
			s0.3-0.5,0.6-0.7c0.4-0.2,0.8-0.2,1.3-0.2c0.6,0,1.2,0.2,1.5,0.5s0.5,0.6,0.5,1s-0.1,1-0.4,1.8c-0.2,0.6-0.5,1.7-0.9,3.2
			S47.3,80.1,47,81c-0.4,1.4-0.6,2.3-0.6,2.7c0,0.3,0,0.6,0.1,1.1c0.2,0.9,0.5,1.7,0.7,2.2c0.3,0.6,0.4,1,0.4,1.4
			c0,0.2,0.2,1,0.7,2.5c0.4,1.2,0.6,2,0.6,2.5c0,0.4-0.2,0.8-0.5,1.1c-0.3,0.3-0.6,0.4-1,0.4c-0.2,0-0.4,0-0.6,0
			c-0.6-0.1-1.1-0.3-1.4-0.6c-0.3-0.4-0.6-0.9-0.8-1.6c-0.2-0.6-0.3-1-0.5-1c-0.1,0-0.2,0.4-0.3,1.1c-0.2,1.9-0.9,2.9-2.1,2.9
			c-0.3,0-0.8-0.2-1.5-0.5s-1-0.6-1-0.8c0-0.4,0.7-2.9,2.2-7.2c0.2-0.5,0.4-1.3,0.6-2.6c0.1-0.7,0.2-1.2,0.2-1.3
			c0-0.4-0.1-1-0.4-1.8c-0.2-0.7-0.6-1.8-1-3.2c-0.4-1.4-0.7-2.5-0.9-3.1c-0.3-1-0.6-1.9-0.7-2.5c0-0.1,0-0.3,0-0.5
			C39.2,71.5,39.7,71.1,40.5,70.8z"/>
		<path class="st2" d="M55.3,73.5c0.3-0.1,0.8-0.1,1.3-0.1c1.5,0,2.5,0.2,2.9,0.5c0.3,0.2,0.4,0.6,0.4,0.9c0,0.4-0.1,0.7-0.4,0.9
			c-0.3,0.2-0.6,0.4-1.1,0.4c-0.4,0-0.7,0.1-0.8,0.3c-0.1,0.2-0.2,0.7-0.2,1.5c0,0.2,0,0.9,0.1,2.1c0.1,1.4,0.1,2.3,0.2,2.7
			c0.1,0.4,0.2,0.6,0.3,0.7c0,0,0.2,0,0.6,0c0.3,0,0.6,0,0.8,0c0.7,0,1.2,0.2,1.5,0.5c0.2,0.2,0.3,0.4,0.3,0.6
			c0,0.4-0.6,0.9-1.8,1.3c-0.7,0.2-1.1,0.4-1.3,0.6c-0.1,0.1-0.2,0.4-0.3,0.9c-0.1,0.4-0.1,0.8-0.1,1.2c0,1.4,0.1,2.4,0.4,3.1
			c0.1,0.3,0.2,0.5,0.4,0.5c0.1,0.1,0.4,0.1,0.9,0.1c0.6,0,1.1,0.1,1.5,0.4s0.6,0.6,0.6,0.9c0,0.2-0.2,0.6-0.6,1
			c-0.7,0.6-1.8,1-3.4,1c-1.6,0-2.7-0.4-3.2-1.1c-0.3-0.4-0.5-2.8-0.5-7.2c-0.1-5.5-0.1-8.8-0.2-9.7l-0.1-3.1l0.6-0.3
			C54.6,73.8,55,73.6,55.3,73.5z"/>
		<path class="st2" d="M67.2,71.2c0.5-0.2,1.1-0.2,1.9-0.2s1.5,0.1,1.8,0.2c0.7,0.3,1.3,0.9,1.7,1.7c0.2,0.4,0.3,1.1,0.5,2.2
			s0.2,2,0.2,2.9c0,0.4,0,0.7,0,0.8c-0.1,0.7-0.3,1.5-0.6,2.4c-0.3,0.9-0.5,1.3-0.7,1.3s-0.3,0.2-0.3,0.6c0,0.3,0.1,0.6,0.3,0.9
			c0.5,0.6,1.1,1.8,1.9,3.6c0.8,1.7,1.3,2.8,1.3,3.3c0,0.1,0,0.3,0,0.6c0,0.4-0.1,0.7-0.3,1c-0.2,0.3-0.5,0.5-0.8,0.5s-0.5,0-0.8,0
			c-0.7-0.1-1.1-0.2-1.3-0.3s-0.3-0.3-0.3-0.7c0-0.6-0.3-1.4-0.9-2.6s-1-1.7-1.3-1.7l0,0c-0.1,0.1-0.1,0.4-0.1,0.9
			c0,0.8,0.1,1.8,0.2,2.8c0.1,0.4,0.1,0.8,0.1,0.9c0,0.9-0.2,1.5-0.6,1.8c0-0.1-0.2-0.1-0.5-0.1c-0.9,0-1.5-0.2-1.7-0.6
			c-0.1-0.2-0.2-2.1-0.3-5.7c0-1.1-0.1-2.4-0.1-3.7c0-1.3,0-2.3,0-2.9s0-1.4-0.1-2.3c-0.1-1-0.2-2-0.3-3.2c-0.1-1.3-0.2-2.1-0.2-2.3
			c0-0.7,0.1-1.1,0.3-1.4C66.4,71.6,66.7,71.4,67.2,71.2z M69.9,74.3c-0.1-0.2-0.2-0.3-0.5-0.3c-0.2,0-0.3,0.1-0.4,0.3
			c-0.1,0.2-0.1,0.4,0,0.5c0,0,0.1,0.9,0.2,2.7c0.1,1.8,0.2,2.7,0.3,2.8c0.1,0.1,0.2-0.1,0.4-0.3c0.2-0.2,0.2-0.7,0.2-1.4
			c0-0.5,0-1,0-1.4C70.1,75.6,70,74.6,69.9,74.3z"/>
		<path class="st2" d="M82.6,74.2c0.5-0.5,0.9-0.9,1.1-1s0.6-0.2,1-0.2c1.3,0,1.9,0.4,1.9,1.3c0,0.8-0.6,1.4-1.7,2
			c-0.7,0.4-1.3,1.8-1.7,4.2c-0.2,1.1-0.3,2.2-0.3,3.4c0,1.2,0.1,2.4,0.2,3.6c0.1,1.6,0.4,2.7,0.7,3.3c0.3,0.6,0.8,1,1.4,1.1
			c1.1,0.2,1.8,0.5,1.9,1c0,0.1,0,0.1,0,0.2c0,0.3-0.2,0.6-0.5,0.9s-0.7,0.5-1.1,0.6c-0.1,0-0.2,0-0.5,0c-1,0-2-0.2-2.8-0.7
			c-0.3-0.2-0.7-0.7-1.1-1.5s-0.8-1.6-1-2.4c-0.3-1.2-0.5-3.2-0.5-6.1c0-1.1,0.1-2.2,0.2-3.2c0.2-1.7,0.5-3,0.9-3.9
			C81.2,76,81.8,75.1,82.6,74.2z"/>
		<path class="st2" d="M92,71c0.3-0.4,0.8-0.6,1.3-0.6s0.9,0.2,1.3,0.6l0.6,0.6l0.2,9.5c0.1,5.2,0.2,8.2,0.2,9c0,0.4,0,0.8,0,1
			c0,0.3,0,0.5,0,0.7s-0.1,0.3-0.1,0.4c-0.1,0.1-0.1,0.2-0.1,0.2s-0.1,0.1-0.2,0.1c-0.1,0.1-0.2,0.1-0.2,0.1
			c-0.3,0.2-0.6,0.3-0.8,0.3c-0.1,0-0.4-0.1-0.8-0.2c-0.7-0.3-1.1-0.5-1.1-0.7c-0.1-0.1-0.2-3.5-0.2-10.1c-0.1-6.6-0.1-9.9-0.2-10
			C91.6,71.7,91.7,71.4,92,71z"/>
		<path class="st2" d="M103.1,72c0.3-0.2,0.7-0.2,1.2-0.2c0.3,0,0.6,0,0.8,0c0.8,0.1,1.4,0.2,1.7,0.3s0.6,0.4,0.8,0.8
			c0.3,0.4,0.4,0.9,0.4,1.3c0,0.5-0.2,0.9-0.6,1.3c-0.3,0.3-0.7,0.5-1,0.5c-0.4,0-0.7-0.2-1.1-0.7c-0.2-0.4-0.5-0.6-0.8-0.6
			c-0.2,0-0.5,0.2-0.7,0.5s-0.4,0.7-0.4,1.2v0.2c0,1.5,1.2,4.4,3.5,8.5c0.4,0.7,0.8,1.9,1.1,3.7c0,0.1,0,0.3,0,0.6
			c0,1.5-0.3,2.7-1,3.6c-0.3,0.4-0.7,0.7-1.4,1c-0.6,0.3-1.2,0.4-1.7,0.4c-0.1,0-0.1,0-0.2,0s-0.1,0-0.2,0c-0.6-0.1-1.4-0.6-2.3-1.5
			c-0.9-0.8-1.4-1.5-1.4-2c0-0.2,0.2-0.5,0.5-0.8s0.6-0.5,0.9-0.5c0.1,0,0.2,0,0.3,0c0.3,0,0.8,0.4,1.5,1.3c0.2,0.4,0.5,0.6,0.8,0.6
			s0.5-0.2,0.6-0.5c0.1-0.1,0.1-0.3,0.1-0.6c0-1.6-0.7-4-2.2-7.1c-1.3-2.9-2-5.1-2-6.5c0-0.6,0.1-1.2,0.3-1.7
			c0.5-1.1,0.8-1.8,1.1-2.2C102,72.6,102.5,72.3,103.1,72z"/>
		<path class="st2" d="M114,73.5c0.3-0.1,0.8-0.1,1.3-0.1c1.5,0,2.5,0.2,2.9,0.5c0.3,0.2,0.4,0.6,0.4,0.9c0,0.4-0.1,0.7-0.4,0.9
			s-0.6,0.4-1.1,0.4c-0.4,0-0.7,0.1-0.8,0.3c-0.1,0.2-0.2,0.7-0.2,1.5c0,0.2,0,0.9,0.1,2.1c0.1,1.4,0.1,2.3,0.2,2.7
			c0.1,0.4,0.2,0.6,0.3,0.7c0,0,0.2,0,0.6,0c0.3,0,0.6,0,0.8,0c0.7,0,1.2,0.2,1.5,0.5c0.2,0.2,0.3,0.4,0.3,0.6
			c0,0.4-0.6,0.9-1.8,1.3c-0.7,0.2-1.1,0.4-1.3,0.6c-0.1,0.1-0.2,0.4-0.3,0.9c-0.1,0.4-0.1,0.8-0.1,1.2c0,1.4,0.1,2.4,0.4,3.1
			c0.1,0.3,0.2,0.5,0.4,0.5c0.1,0.1,0.4,0.1,0.9,0.1c0.6,0,1.1,0.1,1.5,0.4s0.6,0.6,0.6,0.9c0,0.2-0.2,0.6-0.6,1
			c-0.7,0.6-1.8,1-3.4,1s-2.7-0.4-3.2-1.1c-0.3-0.4-0.4-2.8-0.5-7.2c-0.1-5.5-0.1-8.8-0.2-9.7l-0.1-3.1l0.6-0.3
			C113.2,73.8,113.7,73.6,114,73.5z"/>
		<path class="st3" d="M237.2,132.2c30.6,0,55.3-4.3,55.3-9.6c0-5.3-24.8-9.6-55.3-9.6s-55.3,4.3-55.3,9.6
			C181.9,127.9,206.6,132.2,237.2,132.2z"/>
		<path class="st2" d="M257.7,69.3c-1.8,1-2.8,3.3-1.9,5.2c0.7,1.5,2.3,2.6,5.6,2.2c10.5-0.8,42-9,29.9-25.1
			c-5.3-7-13.2,0.1-19.5,6.8C266.7,63.8,260.7,67.7,257.7,69.3z"/>
		<path class="st4" d="M175.6,36.7c0,0,27,13.1,41.3-1.7C217,35,201.4,22.6,175.6,36.7z"/>
		<path class="st5" d="M186.1,22.8c0,0,8.8,19,35.3,15.7C221.3,38.5,219.5,29.8,186.1,22.8z"/>
		<path class="st6" d="M211.3,36.2c-9.8,4.8-34,25.5-14.8,64.8c5.4,11-6.9,14.3-4.6,21.6c3.8,12.4,30.1-18.3,59.7-18.2
			c9.4,0.1,26.4,9.6,34.3-0.8c6-7.9-1.8-7.9-8.5-7.5c-12.8,0.6-9.2-3.9-9-19.6C269.1,28.4,230,27,211.3,36.2z"/>
		<path d="M248.1,72.1c-0.1-0.7-1.2-1.3-2-1.6v1c0,0.3-0.2,0.6-0.6,0.6h-1c-0.3,0-0.6-0.2-0.6-0.6v-0.9c-0.8,0.4-2.3,0.8-2.3,1.5
			c0,0.9,0.9,2.8,3.5,2.7C247.6,74.7,248.3,73.1,248.1,72.1z"/>
		<path class="st0" d="M244.5,72.1h1c0.3,0,0.6-0.3,0.6-0.6v-1c-0.3-0.1-0.7-0.2-1.1-0.2c-0.4,0-0.8,0.1-1.2,0.3v0.9
			C243.9,71.9,244.2,72.1,244.5,72.1z"/>
		<path class="st4" d="M225.7,18.6c0,0-3.3,3.5-1.2,8.5C224.5,27,226.1,25.9,225.7,18.6z"/>
		<path class="st4" d="M217.1,27.1c0,0,3.8,6.8,10.3,2.9C227.4,30,225.2,27.2,217.1,27.1z"/>
		<path class="st7" d="M229.8,34.9c0-0.5-3.5-9.8-13.4-13"/>
		<path class="st8" d="M214.5,19c0,0,2.7-6.9,5.6-5.8S216.3,19.9,214.5,19z"/>
		<path class="st8" d="M214.5,18.9c0,0,6.9-4.4,7.4-1.3C222.3,20.6,214.6,21,214.5,18.9z"/>
		<path class="st8" d="M213.6,19.9c0,0,7.6-2.1,6.8,1.2C219.5,24.4,212.8,22.2,213.6,19.9z"/>
		<path class="st8" d="M212.8,19.9c0,0-1.7-7.7,1.5-6.7C217.6,14.1,215.1,20.8,212.8,19.9z"/>
		<path class="st8" d="M213.8,20.4c0,0-7.1,3.3-6.9,0C207.1,17,214.1,18,213.8,20.4z"/>
		<path class="st8" d="M213.6,21.1c0,0-5.5-3.3-3.4-4.8C212.4,14.7,215.2,20.2,213.6,21.1z"/>
		<path class="st8" d="M213.3,20.6c0,0-7.4,0.8-7.1,3.9C206.5,27.6,213.8,22.7,213.3,20.6z"/>
		<path class="st8" d="M213.1,20.1c0,0-6,5.5-3.2,6.8C212.8,28.1,215.2,20.7,213.1,20.1z"/>
		<path class="st8" d="M213.2,19.6c0,0-0.9,7.8,2.2,6.5C218.5,24.8,215.3,18.5,213.2,19.6z"/>
		<path class="st9" d="M214.9,21.4c2-1.5,3-3.4,2.4-4.2s-2.7-0.2-4.7,1.2c-2,1.5-3,3.4-2.4,4.2C210.8,23.5,212.9,22.9,214.9,21.4z"
			/>
		<path d="M232.7,67.2c1.6,0,2.8-1.3,2.8-2.8c0-1.6-1.3-2.8-2.8-2.8s-2.8,1.3-2.8,2.8C229.8,65.9,231.1,67.2,232.7,67.2z"/>
		<path d="M254.8,66.5c1.6,0,2.8-1.3,2.8-2.8c0-1.5-1.3-2.8-2.8-2.8c-1.6,0-2.8,1.3-2.8,2.8S253.2,66.5,254.8,66.5z"/>
		<path class="st2" d="M202.6,70.9c-1.8-1-4.2-0.6-5.3,1.2c-0.9,1.4-0.9,3.3,1.1,5.9c6.3,8.4,30.1,30.6,37.2,11.8
			c3.1-8.2-7.2-11.1-16.2-12.9C212.1,75.5,205.6,72.5,202.6,70.9z"/>
		<path class="st0" d="M217.3,47.8c0,0-7.6,9.9-11.1,5.3C204.7,51,207.1,43.8,217.3,47.8z"/>
	</g>
</g>
</svg>
