<?xml version="1.0" encoding="utf-8"?>
<!-- Generator: Adobe Illustrator 25.1.0, SVG Export Plug-In . SVG Version: 6.00 Build 0)  -->
<svg version="1.1" id="Layer_1" xmlns="http://www.w3.org/2000/svg" xmlns:xlink="http://www.w3.org/1999/xlink" x="0px" y="0px"
	 viewBox="0 0 339 369.9" style="enable-background:new 0 0 339 369.9;" xml:space="preserve">
<style type="text/css">
	.st0{fill:#FFFFFF;}
	.st1{fill:#404040;}
	.st2{fill:#F4F1EF;}
	.st3{fill:#BFBFBF;}
	.st4{fill:#00CDDC;}
	.st5{fill:#32DCD2;}
</style>
<g>
	<g>
		<g>
			<path class="st0" d="M333,288.5c5.4-56.9,12.3-188.9-5.4-209.1C306.1,54.7,99.7,60.7,55.2,64c-16.5,1.2-37.6-3.1-46.5,30.8
				c-13.2,50-7.1,103.6-8.1,161.5C-0.4,313-3.7,361.1,36,362.4c133.1,4.4,188.5,11.9,257.7,4.1C327.3,362.7,328.2,339.2,333,288.5z"
				/>
			<path class="st1" d="M33.1,143.8c-1.2,0-2.3-0.3-3.3-0.8c-0.9-0.6-1.7-1.3-2.2-2.3c-0.5-1-0.8-2.1-0.8-3.4c0-1.3,0.3-2.4,0.8-3.4
				c0.5-1,1.3-1.8,2.2-2.3c0.9-0.6,2-0.8,3.3-0.8c1.2,0,2.3,0.3,3.3,0.8c0.9,0.6,1.7,1.3,2.2,2.3c0.5,1,0.8,2.1,0.8,3.4
				c0,1.3-0.3,2.4-0.8,3.4c-0.5,1-1.2,1.8-2.2,2.3C35.4,143.6,34.3,143.8,33.1,143.8z M33.1,142.5c0.9,0,1.7-0.2,2.4-0.6
				c0.7-0.4,1.3-1,1.6-1.8c0.4-0.8,0.6-1.7,0.6-2.8c0-1.1-0.2-2-0.6-2.8c-0.4-0.8-0.9-1.4-1.6-1.8c-0.7-0.4-1.5-0.6-2.4-0.6
				s-1.7,0.2-2.4,0.6c-0.7,0.4-1.2,1-1.6,1.8c-0.4,0.8-0.6,1.7-0.6,2.8c0,1.1,0.2,2,0.6,2.8c0.4,0.8,0.9,1.4,1.6,1.8
				C31.3,142.3,32.1,142.5,33.1,142.5z M44.6,143.8c-1.1,0-1.9-0.3-2.5-1c-0.6-0.6-0.9-1.6-0.9-3v-5.2h1.5v5.1
				c0,1.9,0.8,2.8,2.3,2.8c0.8,0,1.4-0.3,1.9-0.8c0.5-0.6,0.8-1.4,0.8-2.4v-4.6h1.5v8.9h-1.4l-0.1-1.6c-0.3,0.6-0.7,1-1.2,1.3
				C45.9,143.7,45.3,143.8,44.6,143.8z M51.7,143.6v-8.9H53l0.1,1.7c0.3-0.6,0.7-1.1,1.3-1.4c0.6-0.3,1.3-0.5,2.1-0.5v1.6h-0.4
				c-0.5,0-1,0.1-1.5,0.3c-0.4,0.2-0.8,0.5-1.1,0.9s-0.4,1.1-0.4,1.8v4.5H51.7z M65.9,143.8c-0.7,0-1.4-0.1-1.9-0.4
				c-0.5-0.3-0.9-0.6-1.1-1c-0.2-0.4-0.4-0.9-0.4-1.4c0-0.9,0.3-1.6,1-2.1c0.7-0.5,1.6-0.7,2.8-0.7h2.4v-0.1c0-0.8-0.2-1.4-0.6-1.8
				c-0.4-0.4-1-0.6-1.6-0.6c-0.6,0-1.1,0.1-1.5,0.5c-0.4,0.3-0.7,0.7-0.8,1.3h-1.5c0.1-0.6,0.3-1.2,0.6-1.6c0.4-0.4,0.9-0.8,1.4-1
				c0.6-0.2,1.2-0.4,1.8-0.4c1.2,0,2.2,0.3,2.8,1c0.6,0.7,1,1.5,1,2.6v5.5h-1.3L69,142c-0.3,0.5-0.6,0.9-1.1,1.3
				C67.4,143.7,66.7,143.8,65.9,143.8z M66.2,142.6c0.6,0,1.1-0.1,1.5-0.4c0.4-0.3,0.7-0.7,1-1.2c0.2-0.5,0.3-1,0.3-1.5v0h-2.3
				c-0.9,0-1.5,0.2-1.9,0.5c-0.4,0.3-0.5,0.7-0.5,1.1c0,0.5,0.2,0.8,0.5,1.1C65.1,142.4,65.5,142.6,66.2,142.6z M76.8,143.8
				c-0.9,0-1.6-0.2-2.3-0.6c-0.7-0.4-1.2-0.9-1.6-1.6c-0.4-0.7-0.6-1.5-0.6-2.5c0-0.9,0.2-1.8,0.6-2.4c0.4-0.7,0.9-1.3,1.6-1.6
				c0.7-0.4,1.5-0.6,2.3-0.6c1.1,0,1.9,0.3,2.7,0.8c0.7,0.6,1.2,1.3,1.4,2.2h-1.5c-0.1-0.6-0.4-1-0.9-1.3c-0.5-0.3-1-0.5-1.6-0.5
				c-0.5,0-1,0.1-1.4,0.4c-0.4,0.3-0.8,0.6-1.1,1.1c-0.3,0.5-0.4,1.1-0.4,1.9c0,0.7,0.1,1.4,0.4,1.9c0.3,0.5,0.6,0.9,1.1,1.2
				c0.4,0.3,0.9,0.4,1.4,0.4c0.6,0,1.2-0.1,1.6-0.4c0.5-0.3,0.8-0.8,0.9-1.3h1.5c-0.2,0.9-0.6,1.6-1.4,2.2S77.9,143.8,76.8,143.8z
				 M86.2,143.6c-0.8,0-1.5-0.2-1.9-0.6s-0.7-1.1-0.7-2.1V136h-1.5v-1.3h1.5l0.2-2.1h1.3v2.1h2.6v1.3h-2.6v4.9
				c0,0.6,0.1,0.9,0.3,1.2c0.2,0.2,0.6,0.3,1.2,0.3h0.9v1.3H86.2z M90.6,132.7c-0.3,0-0.6-0.1-0.8-0.3c-0.2-0.2-0.3-0.5-0.3-0.8
				c0-0.3,0.1-0.5,0.3-0.7c0.2-0.2,0.5-0.3,0.8-0.3c0.3,0,0.5,0.1,0.7,0.3c0.2,0.2,0.3,0.4,0.3,0.7c0,0.3-0.1,0.6-0.3,0.8
				C91.1,132.6,90.9,132.7,90.6,132.7z M89.8,143.6v-8.9h1.5v8.9H89.8z M96.6,143.6l-3.4-8.9h1.6l2.7,7.5l2.7-7.5h1.5l-3.4,8.9H96.6
				z M104.3,132.7c-0.3,0-0.6-0.1-0.8-0.3c-0.2-0.2-0.3-0.5-0.3-0.8c0-0.3,0.1-0.5,0.3-0.7c0.2-0.2,0.5-0.3,0.8-0.3
				c0.3,0,0.5,0.1,0.7,0.3c0.2,0.2,0.3,0.4,0.3,0.7c0,0.3-0.1,0.6-0.3,0.8C104.8,132.6,104.6,132.7,104.3,132.7z M103.5,143.6v-8.9
				h1.5v8.9H103.5z M111.2,143.6c-0.8,0-1.5-0.2-1.9-0.6c-0.5-0.4-0.7-1.1-0.7-2.1V136H107v-1.3h1.5l0.2-2.1h1.3v2.1h2.6v1.3h-2.6
				v4.9c0,0.6,0.1,0.9,0.3,1.2c0.2,0.2,0.6,0.3,1.2,0.3h0.9v1.3H111.2z M115.6,147.6l2.2-4.8h-0.5l-3.5-8.1h1.6l3,6.9l3.1-6.9h1.6
				l-5.9,12.9H115.6z M132.9,143.6c-0.8,0-1.5-0.2-1.9-0.6s-0.7-1.1-0.7-2.1V136h-1.5v-1.3h1.5l0.2-2.1h1.3v2.1h2.6v1.3h-2.6v4.9
				c0,0.6,0.1,0.9,0.3,1.2c0.2,0.2,0.6,0.3,1.2,0.3h0.9v1.3H132.9z M136.4,143.6v-13h1.5v5.6c0.3-0.6,0.7-1,1.3-1.3
				c0.6-0.3,1.2-0.5,1.8-0.5c1,0,1.9,0.3,2.5,1c0.6,0.6,0.9,1.6,0.9,3v5.2h-1.5v-5.1c0-1.9-0.8-2.8-2.2-2.8c-0.8,0-1.4,0.3-2,0.8
				c-0.5,0.6-0.8,1.3-0.8,2.4v4.6H136.4z M146.7,143.6v-8.9h1.4l0.1,1.7c0.3-0.6,0.7-1.1,1.3-1.4c0.6-0.3,1.3-0.5,2.1-0.5v1.6h-0.4
				c-0.5,0-1,0.1-1.5,0.3c-0.4,0.2-0.8,0.5-1.1,0.9c-0.3,0.4-0.4,1.1-0.4,1.8v4.5H146.7z M156.9,143.8c-0.8,0-1.6-0.2-2.3-0.6
				c-0.7-0.4-1.2-0.9-1.6-1.6c-0.4-0.7-0.6-1.5-0.6-2.5s0.2-1.8,0.6-2.5c0.4-0.7,0.9-1.3,1.6-1.6c0.7-0.4,1.4-0.6,2.3-0.6
				c0.8,0,1.6,0.2,2.3,0.6c0.7,0.4,1.2,0.9,1.6,1.6c0.4,0.7,0.6,1.5,0.6,2.5s-0.2,1.8-0.6,2.5c-0.4,0.7-0.9,1.2-1.6,1.6
				C158.5,143.6,157.8,143.8,156.9,143.8z M156.9,142.5c0.5,0,1-0.1,1.4-0.4c0.4-0.3,0.8-0.6,1.1-1.1s0.4-1.1,0.4-1.9
				c0-0.7-0.1-1.4-0.4-1.9c-0.3-0.5-0.6-0.9-1.1-1.1c-0.4-0.3-0.9-0.4-1.4-0.4c-0.5,0-1,0.1-1.4,0.4c-0.4,0.3-0.8,0.6-1.1,1.1
				s-0.4,1.1-0.4,1.9c0,0.7,0.1,1.4,0.4,1.9s0.6,0.9,1.1,1.1C156,142.4,156.4,142.5,156.9,142.5z M166.8,143.8c-1.1,0-1.9-0.3-2.5-1
				c-0.6-0.6-0.9-1.6-0.9-3v-5.2h1.5v5.1c0,1.9,0.8,2.8,2.3,2.8c0.8,0,1.4-0.3,1.9-0.8c0.5-0.6,0.8-1.4,0.8-2.4v-4.6h1.5v8.9H170
				l-0.1-1.6c-0.3,0.6-0.7,1-1.2,1.3C168.1,143.7,167.5,143.8,166.8,143.8z M177.4,140.8c-0.5,0-1-0.1-1.4-0.2l-0.9,0.8
				c0.1,0.1,0.3,0.2,0.5,0.3c0.2,0.1,0.5,0.1,0.9,0.2c0.4,0,0.9,0.1,1.6,0.2c1.2,0.1,2.1,0.4,2.6,0.8c0.5,0.5,0.8,1.1,0.8,1.8
				c0,0.5-0.1,1-0.4,1.5c-0.3,0.5-0.7,0.9-1.3,1.2c-0.6,0.3-1.3,0.4-2.2,0.4c-0.8,0-1.5-0.1-2.1-0.3c-0.6-0.2-1.1-0.5-1.5-1
				c-0.3-0.4-0.5-1-0.5-1.6c0-0.3,0.1-0.7,0.3-1.1c0.2-0.4,0.5-0.8,1-1.1c-0.3-0.1-0.5-0.2-0.7-0.3c-0.2-0.1-0.3-0.3-0.5-0.4v-0.4
				l1.5-1.5c-0.7-0.6-1.1-1.4-1.1-2.4c0-0.6,0.1-1.1,0.4-1.6s0.7-0.9,1.2-1.1c0.5-0.3,1.2-0.4,1.9-0.4c0.5,0,1,0.1,1.4,0.2h3.3v1.1
				l-1.7,0.1c0.3,0.5,0.5,1.1,0.5,1.7c0,0.6-0.1,1.1-0.4,1.6c-0.3,0.5-0.7,0.9-1.2,1.2C178.7,140.7,178.1,140.8,177.4,140.8z
				 M177.4,139.6c0.6,0,1.1-0.2,1.5-0.5c0.4-0.3,0.6-0.8,0.6-1.4c0-0.6-0.2-1.1-0.6-1.4c-0.4-0.3-0.9-0.5-1.5-0.5
				c-0.6,0-1.2,0.2-1.5,0.5c-0.4,0.3-0.6,0.8-0.6,1.4c0,0.6,0.2,1.1,0.6,1.4C176.2,139.4,176.7,139.6,177.4,139.6z M174.7,144.8
				c0,0.6,0.3,1,0.8,1.3c0.5,0.3,1.1,0.4,1.9,0.4c0.7,0,1.3-0.2,1.8-0.5c0.5-0.3,0.7-0.8,0.7-1.3c0-0.4-0.2-0.7-0.5-1
				c-0.3-0.3-0.9-0.4-1.7-0.5c-0.7,0-1.2-0.1-1.7-0.2c-0.5,0.3-0.8,0.5-1,0.8C174.8,144.3,174.7,144.5,174.7,144.8z M183.8,143.6
				v-13h1.5v5.6c0.3-0.6,0.7-1,1.3-1.3c0.6-0.3,1.2-0.5,1.8-0.5c1,0,1.9,0.3,2.5,1c0.6,0.6,0.9,1.6,0.9,3v5.2h-1.5v-5.1
				c0-1.9-0.8-2.8-2.2-2.8c-0.8,0-1.4,0.3-2,0.8c-0.5,0.6-0.8,1.3-0.8,2.4v4.6H183.8z M198.1,143.8c-0.8,0-1.6-0.2-2.3-0.6
				c-0.7-0.4-1.2-0.9-1.6-1.6c-0.4-0.7-0.6-1.5-0.6-2.5s0.2-1.8,0.6-2.5c0.4-0.7,0.9-1.3,1.6-1.6c0.7-0.4,1.4-0.6,2.3-0.6
				s1.6,0.2,2.3,0.6c0.7,0.4,1.2,0.9,1.6,1.6c0.4,0.7,0.6,1.5,0.6,2.5s-0.2,1.8-0.6,2.5c-0.4,0.7-0.9,1.2-1.6,1.6
				C199.7,143.6,199,143.8,198.1,143.8z M198.1,142.5c0.5,0,1-0.1,1.4-0.4c0.4-0.3,0.8-0.6,1.1-1.1s0.4-1.1,0.4-1.9
				c0-0.7-0.1-1.4-0.4-1.9c-0.3-0.5-0.6-0.9-1.1-1.1c-0.4-0.3-0.9-0.4-1.4-0.4c-0.5,0-1,0.1-1.4,0.4c-0.4,0.3-0.8,0.6-1.1,1.1
				s-0.4,1.1-0.4,1.9c0,0.7,0.1,1.4,0.4,1.9s0.6,0.9,1.1,1.1C197.1,142.4,197.6,142.5,198.1,142.5z M208,143.8c-1.1,0-1.9-0.3-2.5-1
				c-0.6-0.6-0.9-1.6-0.9-3v-5.2h1.5v5.1c0,1.9,0.8,2.8,2.3,2.8c0.8,0,1.4-0.3,1.9-0.8c0.5-0.6,0.8-1.4,0.8-2.4v-4.6h1.5v8.9h-1.4
				L211,142c-0.3,0.6-0.7,1-1.2,1.3C209.3,143.7,208.7,143.8,208,143.8z M218.5,143.6c-0.8,0-1.5-0.2-1.9-0.6s-0.7-1.1-0.7-2.1V136
				h-1.5v-1.3h1.5l0.2-2.1h1.3v2.1h2.6v1.3h-2.6v4.9c0,0.6,0.1,0.9,0.3,1.2c0.2,0.2,0.6,0.3,1.2,0.3h0.9v1.3H218.5z M230.3,143.6
				c-0.8,0-1.5-0.2-1.9-0.6s-0.7-1.1-0.7-2.1V136h-1.5v-1.3h1.5l0.2-2.1h1.3v2.1h2.6v1.3h-2.6v4.9c0,0.6,0.1,0.9,0.3,1.2
				c0.2,0.2,0.6,0.3,1.2,0.3h0.9v1.3H230.3z M233.7,143.6v-13h1.5v5.6c0.3-0.6,0.7-1,1.3-1.3c0.6-0.3,1.2-0.5,1.8-0.5
				c1,0,1.9,0.3,2.5,1c0.6,0.6,0.9,1.6,0.9,3v5.2h-1.5v-5.1c0-1.9-0.8-2.8-2.3-2.8c-0.8,0-1.4,0.3-2,0.8c-0.5,0.6-0.8,1.3-0.8,2.4
				v4.6H233.7z M248,143.8c-0.9,0-1.6-0.2-2.3-0.6c-0.7-0.4-1.2-0.9-1.6-1.6c-0.4-0.7-0.6-1.5-0.6-2.5c0-0.9,0.2-1.8,0.6-2.4
				c0.4-0.7,0.9-1.3,1.5-1.6c0.7-0.4,1.4-0.6,2.3-0.6c0.9,0,1.6,0.2,2.2,0.6c0.6,0.4,1.1,0.9,1.5,1.5c0.3,0.6,0.5,1.3,0.5,2.1
				c0,0.1,0,0.3,0,0.4c0,0.1,0,0.3,0,0.4h-7.1c0,0.7,0.2,1.3,0.5,1.7c0.3,0.4,0.6,0.8,1.1,1c0.4,0.2,0.9,0.3,1.4,0.3
				c0.6,0,1.1-0.1,1.6-0.4c0.4-0.3,0.7-0.7,0.9-1.2h1.5c-0.2,0.8-0.7,1.5-1.4,2.1C249.9,143.6,249.1,143.8,248,143.8z M248,135.8
				c-0.7,0-1.4,0.2-1.9,0.7c-0.6,0.4-0.9,1.1-1,1.9h5.6c0-0.8-0.3-1.4-0.8-1.9C249.4,136,248.8,135.8,248,135.8z M31.3,167.8
				c-0.9,0-1.7-0.2-2.3-0.6c-0.7-0.4-1.2-1-1.5-1.7c-0.4-0.7-0.5-1.5-0.5-2.4s0.2-1.7,0.6-2.4c0.4-0.7,0.9-1.3,1.5-1.7
				c0.7-0.4,1.4-0.6,2.3-0.6c0.7,0,1.4,0.2,1.9,0.5c0.6,0.3,1,0.7,1.3,1.3v-5.5h1.5v13h-1.4l-0.1-1.5c-0.3,0.4-0.7,0.8-1.2,1.2
				S32.1,167.8,31.3,167.8z M31.5,166.5c0.6,0,1.1-0.1,1.6-0.4c0.5-0.3,0.8-0.7,1.1-1.2c0.3-0.5,0.4-1.1,0.4-1.8s-0.1-1.3-0.4-1.8
				c-0.3-0.5-0.6-0.9-1.1-1.2c-0.5-0.3-1-0.4-1.6-0.4c-0.6,0-1.1,0.1-1.6,0.4c-0.5,0.3-0.8,0.7-1.1,1.2c-0.3,0.5-0.4,1.1-0.4,1.8
				s0.1,1.3,0.4,1.8c0.3,0.5,0.6,0.9,1.1,1.2C30.3,166.4,30.9,166.5,31.5,166.5z M41.5,167.8c-0.7,0-1.4-0.1-1.9-0.4
				c-0.5-0.3-0.9-0.6-1.1-1c-0.2-0.4-0.4-0.9-0.4-1.4c0-0.9,0.3-1.6,1-2.1c0.7-0.5,1.6-0.7,2.8-0.7h2.4v-0.1c0-0.8-0.2-1.4-0.6-1.8
				c-0.4-0.4-1-0.6-1.6-0.6c-0.6,0-1.1,0.1-1.5,0.5c-0.4,0.3-0.7,0.7-0.8,1.3h-1.5c0.1-0.6,0.3-1.2,0.6-1.6c0.4-0.4,0.9-0.8,1.4-1
				c0.6-0.2,1.2-0.4,1.8-0.4c1.2,0,2.2,0.3,2.8,1c0.6,0.7,1,1.5,1,2.6v5.5h-1.4l-0.1-1.6c-0.3,0.5-0.6,0.9-1.1,1.3
				C43,167.7,42.3,167.8,41.5,167.8z M41.7,166.6c0.6,0,1.1-0.1,1.5-0.4c0.4-0.3,0.7-0.7,1-1.2c0.2-0.5,0.3-1,0.3-1.5v0h-2.3
				c-0.9,0-1.5,0.2-1.9,0.5c-0.4,0.3-0.5,0.7-0.5,1.1c0,0.5,0.2,0.8,0.5,1.1C40.6,166.4,41.1,166.6,41.7,166.6z M49,171.6l2.2-4.8
				h-0.5l-3.5-8.1h1.6l3,6.9l3.1-6.9h1.6l-5.8,12.9H49z M62.8,167.6v-13h1.5v5.6c0.3-0.6,0.7-1,1.3-1.3c0.6-0.3,1.2-0.5,1.8-0.5
				c1,0,1.9,0.3,2.5,1c0.6,0.6,0.9,1.6,0.9,3v5.2h-1.5v-5.1c0-1.9-0.8-2.8-2.2-2.8c-0.8,0-1.4,0.3-2,0.8c-0.5,0.6-0.8,1.3-0.8,2.4
				v4.6H62.8z M76.1,167.8c-0.7,0-1.4-0.1-1.9-0.4c-0.5-0.3-0.9-0.6-1.1-1c-0.2-0.4-0.4-0.9-0.4-1.4c0-0.9,0.3-1.6,1-2.1
				c0.7-0.5,1.6-0.7,2.8-0.7H79v-0.1c0-0.8-0.2-1.4-0.6-1.8c-0.4-0.4-1-0.6-1.6-0.6c-0.6,0-1.1,0.1-1.5,0.5
				c-0.4,0.3-0.7,0.7-0.8,1.3h-1.5c0.1-0.6,0.3-1.2,0.6-1.6c0.4-0.4,0.9-0.8,1.4-1c0.6-0.2,1.2-0.4,1.8-0.4c1.2,0,2.2,0.3,2.8,1
				c0.6,0.7,1,1.5,1,2.6v5.5h-1.3l-0.1-1.6c-0.3,0.5-0.6,0.9-1.1,1.3C77.5,167.7,76.9,167.8,76.1,167.8z M76.3,166.6
				c0.6,0,1.1-0.1,1.5-0.4c0.4-0.3,0.7-0.7,1-1.2c0.2-0.5,0.3-1,0.3-1.5v0h-2.3c-0.9,0-1.5,0.2-1.9,0.5c-0.4,0.3-0.5,0.7-0.5,1.1
				c0,0.5,0.2,0.8,0.5,1.1C75.2,166.4,75.7,166.6,76.3,166.6z M86.2,167.8c-1.1,0-2-0.3-2.7-0.8s-1.1-1.3-1.2-2.2h1.5
				c0.1,0.5,0.3,0.9,0.7,1.2c0.4,0.3,1,0.5,1.6,0.5c0.6,0,1.1-0.1,1.4-0.4c0.3-0.3,0.4-0.6,0.4-1c0-0.5-0.2-0.9-0.6-1.1
				c-0.4-0.2-0.9-0.3-1.6-0.5c-0.5-0.1-1-0.2-1.4-0.4s-0.9-0.4-1.2-0.8c-0.3-0.3-0.5-0.8-0.5-1.3c0-0.8,0.3-1.4,0.9-1.9
				c0.6-0.5,1.4-0.8,2.4-0.8c0.9,0,1.7,0.2,2.3,0.7c0.6,0.5,1,1.1,1.1,2h-1.5c-0.1-0.5-0.3-0.8-0.6-1.1c-0.3-0.3-0.8-0.4-1.3-0.4
				c-0.5,0-1,0.1-1.3,0.3c-0.3,0.2-0.4,0.5-0.4,0.9c0,0.4,0.2,0.6,0.6,0.8c0.4,0.2,0.9,0.4,1.5,0.5c0.6,0.1,1.1,0.3,1.6,0.5
				c0.5,0.2,0.9,0.4,1.2,0.8c0.3,0.3,0.5,0.8,0.5,1.5c0,0.8-0.3,1.5-0.9,2C88.1,167.6,87.3,167.8,86.2,167.8z M99.6,167.8
				c-0.7,0-1.4-0.1-1.9-0.4c-0.5-0.3-0.9-0.6-1.1-1c-0.2-0.4-0.4-0.9-0.4-1.4c0-0.9,0.3-1.6,1-2.1c0.7-0.5,1.6-0.7,2.8-0.7h2.4v-0.1
				c0-0.8-0.2-1.4-0.6-1.8c-0.4-0.4-1-0.6-1.6-0.6c-0.6,0-1.1,0.1-1.5,0.5c-0.4,0.3-0.7,0.7-0.8,1.3h-1.5c0.1-0.6,0.3-1.2,0.6-1.6
				c0.4-0.4,0.9-0.8,1.4-1c0.6-0.2,1.2-0.4,1.8-0.4c1.2,0,2.2,0.3,2.8,1c0.6,0.7,1,1.5,1,2.6v5.5h-1.3l-0.1-1.6
				c-0.3,0.5-0.6,0.9-1.1,1.3C101,167.7,100.4,167.8,99.6,167.8z M99.8,166.6c0.6,0,1.1-0.1,1.5-0.4c0.4-0.3,0.7-0.7,1-1.2
				c0.2-0.5,0.3-1,0.3-1.5v0h-2.3c-0.9,0-1.5,0.2-1.9,0.5c-0.4,0.3-0.5,0.7-0.5,1.1c0,0.5,0.2,0.8,0.5,1.1
				C98.7,166.4,99.2,166.6,99.8,166.6z M111.1,167.6v-13h1.5v5.6c0.3-0.6,0.7-1,1.3-1.3c0.6-0.3,1.2-0.5,1.8-0.5c1,0,1.9,0.3,2.5,1
				c0.6,0.6,0.9,1.6,0.9,3v5.2h-1.5v-5.1c0-1.9-0.8-2.8-2.2-2.8c-0.8,0-1.4,0.3-2,0.8c-0.5,0.6-0.8,1.3-0.8,2.4v4.6H111.1z
				 M124.6,167.8c-1.1,0-1.9-0.3-2.5-1c-0.6-0.6-0.9-1.6-0.9-3v-5.2h1.5v5.1c0,1.9,0.8,2.8,2.3,2.8c0.8,0,1.4-0.3,1.9-0.8
				c0.5-0.6,0.8-1.4,0.8-2.4v-4.6h1.5v8.9h-1.4l-0.1-1.6c-0.3,0.6-0.7,1-1.2,1.3C125.9,167.7,125.3,167.8,124.6,167.8z M135.2,164.8
				c-0.5,0-1-0.1-1.4-0.2l-0.9,0.8c0.1,0.1,0.3,0.2,0.5,0.3c0.2,0.1,0.5,0.1,0.9,0.2c0.4,0,0.9,0.1,1.6,0.2c1.2,0.1,2.1,0.4,2.6,0.8
				c0.5,0.5,0.8,1.1,0.8,1.8c0,0.5-0.1,1-0.4,1.5c-0.3,0.5-0.7,0.9-1.3,1.2c-0.6,0.3-1.3,0.4-2.2,0.4c-0.8,0-1.5-0.1-2.1-0.3
				c-0.6-0.2-1.1-0.5-1.5-1c-0.3-0.4-0.5-1-0.5-1.6c0-0.3,0.1-0.7,0.3-1.1c0.2-0.4,0.5-0.8,1-1.1c-0.3-0.1-0.5-0.2-0.7-0.3
				c-0.2-0.1-0.3-0.3-0.5-0.4v-0.4l1.5-1.5c-0.7-0.6-1.1-1.4-1.1-2.4c0-0.6,0.1-1.1,0.4-1.6s0.7-0.9,1.2-1.1
				c0.5-0.3,1.2-0.4,1.9-0.4c0.5,0,1,0.1,1.4,0.2h3.3v1.1l-1.7,0.1c0.3,0.5,0.5,1.1,0.5,1.7c0,0.6-0.1,1.1-0.4,1.6
				c-0.3,0.5-0.7,0.9-1.2,1.2C136.6,164.7,136,164.8,135.2,164.8z M135.2,163.6c0.6,0,1.1-0.2,1.5-0.5c0.4-0.3,0.6-0.8,0.6-1.4
				c0-0.6-0.2-1.1-0.6-1.4c-0.4-0.3-0.9-0.5-1.5-0.5c-0.6,0-1.2,0.2-1.5,0.5c-0.4,0.3-0.6,0.8-0.6,1.4c0,0.6,0.2,1.1,0.6,1.4
				C134.1,163.4,134.6,163.6,135.2,163.6z M132.6,168.8c0,0.6,0.3,1,0.8,1.3c0.5,0.3,1.1,0.4,1.9,0.4c0.7,0,1.3-0.2,1.8-0.5
				c0.5-0.3,0.7-0.8,0.7-1.3c0-0.4-0.2-0.7-0.5-1c-0.3-0.3-0.9-0.4-1.7-0.5c-0.7,0-1.2-0.1-1.7-0.2c-0.5,0.3-0.8,0.5-1,0.8
				C132.7,168.3,132.6,168.5,132.6,168.8z M145.3,167.8c-0.9,0-1.6-0.2-2.3-0.6c-0.7-0.4-1.2-0.9-1.6-1.6c-0.4-0.7-0.6-1.5-0.6-2.5
				c0-0.9,0.2-1.8,0.6-2.4c0.4-0.7,0.9-1.3,1.5-1.6c0.7-0.4,1.4-0.6,2.3-0.6c0.9,0,1.6,0.2,2.2,0.6c0.6,0.4,1.1,0.9,1.5,1.5
				c0.3,0.6,0.5,1.3,0.5,2.1c0,0.1,0,0.3,0,0.4c0,0.1,0,0.3,0,0.4h-7.1c0,0.7,0.2,1.3,0.5,1.7c0.3,0.4,0.6,0.8,1.1,1
				c0.4,0.2,0.9,0.3,1.4,0.3c0.6,0,1.1-0.1,1.6-0.4c0.4-0.3,0.7-0.7,0.9-1.2h1.5c-0.2,0.8-0.7,1.5-1.4,2.1
				C147.2,167.6,146.3,167.8,145.3,167.8z M145.3,159.8c-0.7,0-1.4,0.2-1.9,0.7c-0.6,0.4-0.9,1.1-1,1.9h5.6c0-0.8-0.3-1.4-0.8-1.9
				C146.7,160,146,159.8,145.3,159.8z M157.2,156.7c-0.3,0-0.6-0.1-0.8-0.3c-0.2-0.2-0.3-0.5-0.3-0.8c0-0.3,0.1-0.5,0.3-0.7
				c0.2-0.2,0.5-0.3,0.8-0.3c0.3,0,0.5,0.1,0.7,0.3c0.2,0.2,0.3,0.4,0.3,0.7c0,0.3-0.1,0.6-0.3,0.8
				C157.7,156.6,157.5,156.7,157.2,156.7z M156.4,167.6v-8.9h1.5v8.9H156.4z M160.6,167.6v-8.9h1.4l0.1,1.3c0.3-0.5,0.7-0.9,1.2-1.1
				c0.5-0.3,1-0.4,1.6-0.4c0.7,0,1.3,0.1,1.8,0.4c0.5,0.3,0.9,0.7,1.2,1.3c0.3-0.5,0.7-1,1.3-1.3c0.6-0.3,1.1-0.5,1.8-0.5
				c1.1,0,1.9,0.3,2.6,1c0.6,0.6,1,1.6,1,3v5.2h-1.5v-5.1c0-0.9-0.2-1.6-0.6-2.1c-0.4-0.5-0.9-0.7-1.6-0.7c-0.7,0-1.3,0.3-1.8,0.8
				c-0.5,0.6-0.7,1.3-0.7,2.4v4.6h-1.5v-5.1c0-0.9-0.2-1.6-0.6-2.1c-0.4-0.5-0.9-0.7-1.6-0.7c-0.7,0-1.3,0.3-1.8,0.8
				c-0.5,0.6-0.7,1.3-0.7,2.4v4.6H160.6z M176.7,171.6v-12.9h1.4l0.1,1.5c0.3-0.4,0.7-0.8,1.2-1.2c0.5-0.3,1.2-0.5,2.1-0.5
				c0.9,0,1.7,0.2,2.3,0.6c0.7,0.4,1.2,1,1.5,1.7c0.4,0.7,0.6,1.5,0.6,2.4c0,0.9-0.2,1.7-0.6,2.4c-0.4,0.7-0.9,1.2-1.5,1.7
				c-0.7,0.4-1.4,0.6-2.3,0.6c-0.7,0-1.4-0.1-2-0.5c-0.6-0.3-1-0.7-1.3-1.3v5.5H176.7z M181.3,166.5c0.6,0,1.1-0.1,1.6-0.4
				c0.5-0.3,0.8-0.7,1.1-1.2c0.3-0.5,0.4-1.1,0.4-1.8s-0.1-1.3-0.4-1.8c-0.3-0.5-0.6-0.9-1.1-1.2c-0.5-0.3-1-0.4-1.6-0.4
				c-0.6,0-1.1,0.1-1.6,0.4c-0.5,0.3-0.8,0.7-1.1,1.2c-0.3,0.5-0.4,1.1-0.4,1.8s0.1,1.3,0.4,1.8c0.3,0.5,0.6,0.9,1.1,1.2
				C180.2,166.4,180.7,166.5,181.3,166.5z M191,167.8c-0.7,0-1.4-0.1-1.9-0.4c-0.5-0.3-0.9-0.6-1.1-1c-0.2-0.4-0.4-0.9-0.4-1.4
				c0-0.9,0.3-1.6,1-2.1c0.7-0.5,1.6-0.7,2.8-0.7h2.4v-0.1c0-0.8-0.2-1.4-0.6-1.8c-0.4-0.4-1-0.6-1.6-0.6c-0.6,0-1.1,0.1-1.5,0.5
				c-0.4,0.3-0.7,0.7-0.8,1.3h-1.5c0.1-0.6,0.3-1.2,0.6-1.6c0.4-0.4,0.9-0.8,1.4-1c0.6-0.2,1.2-0.4,1.8-0.4c1.2,0,2.2,0.3,2.8,1
				c0.6,0.7,1,1.5,1,2.6v5.5h-1.4L194,166c-0.3,0.5-0.6,0.9-1.1,1.3C192.4,167.7,191.8,167.8,191,167.8z M191.2,166.6
				c0.6,0,1.1-0.1,1.5-0.4c0.4-0.3,0.7-0.7,1-1.2c0.2-0.5,0.3-1,0.3-1.5v0h-2.3c-0.9,0-1.5,0.2-1.9,0.5c-0.4,0.3-0.5,0.7-0.5,1.1
				c0,0.5,0.2,0.8,0.5,1.1C190.1,166.4,190.6,166.6,191.2,166.6z M201.8,167.8c-0.9,0-1.6-0.2-2.3-0.6c-0.7-0.4-1.2-0.9-1.6-1.6
				c-0.4-0.7-0.6-1.5-0.6-2.5c0-0.9,0.2-1.8,0.6-2.4c0.4-0.7,0.9-1.3,1.6-1.6c0.7-0.4,1.5-0.6,2.3-0.6c1.1,0,1.9,0.3,2.7,0.8
				c0.7,0.6,1.2,1.3,1.4,2.2h-1.5c-0.1-0.6-0.4-1-0.9-1.3c-0.5-0.3-1-0.5-1.6-0.5c-0.5,0-1,0.1-1.4,0.4c-0.4,0.3-0.8,0.6-1.1,1.1
				s-0.4,1.1-0.4,1.9c0,0.7,0.1,1.4,0.4,1.9s0.6,0.9,1.1,1.2c0.4,0.3,0.9,0.4,1.4,0.4c0.6,0,1.2-0.1,1.6-0.4
				c0.5-0.3,0.8-0.8,0.9-1.3h1.5c-0.2,0.9-0.6,1.6-1.4,2.2C203.8,167.6,202.9,167.8,201.8,167.8z M211.3,167.6
				c-0.8,0-1.5-0.2-1.9-0.6s-0.7-1.1-0.7-2.1V160h-1.5v-1.3h1.5l0.2-2.1h1.3v2.1h2.6v1.3h-2.6v4.9c0,0.6,0.1,0.9,0.3,1.2
				c0.2,0.2,0.6,0.3,1.2,0.3h0.9v1.3H211.3z M223.5,167.8c-0.8,0-1.6-0.2-2.3-0.6c-0.7-0.4-1.2-0.9-1.6-1.6
				c-0.4-0.7-0.6-1.5-0.6-2.5s0.2-1.8,0.6-2.5c0.4-0.7,0.9-1.3,1.6-1.6c0.7-0.4,1.4-0.6,2.3-0.6s1.6,0.2,2.3,0.6
				c0.7,0.4,1.2,0.9,1.6,1.6c0.4,0.7,0.6,1.5,0.6,2.5s-0.2,1.8-0.6,2.5c-0.4,0.7-0.9,1.2-1.6,1.6
				C225.1,167.6,224.4,167.8,223.5,167.8z M223.5,166.5c0.5,0,1-0.1,1.4-0.4c0.4-0.3,0.8-0.6,1.1-1.1s0.4-1.1,0.4-1.9
				c0-0.7-0.1-1.4-0.4-1.9c-0.3-0.5-0.6-0.9-1.1-1.1c-0.4-0.3-0.9-0.4-1.4-0.4c-0.5,0-1,0.1-1.4,0.4c-0.4,0.3-0.8,0.6-1.1,1.1
				s-0.4,1.1-0.4,1.9c0,0.7,0.1,1.4,0.4,1.9s0.6,0.9,1.1,1.1C222.6,166.4,223,166.5,223.5,166.5z M230.1,167.6v-8.9h1.4l0.1,1.6
				c0.3-0.6,0.7-1,1.2-1.3c0.5-0.3,1.2-0.5,1.8-0.5c1.1,0,1.9,0.3,2.5,1c0.6,0.6,1,1.6,1,3v5.2h-1.5v-5.1c0-1.9-0.8-2.8-2.3-2.8
				c-0.8,0-1.4,0.3-1.9,0.8c-0.5,0.6-0.8,1.3-0.8,2.4v4.6H230.1z M30.7,191.8c-1.1,0-2-0.3-2.7-0.8s-1.1-1.3-1.2-2.2h1.5
				c0.1,0.5,0.3,0.9,0.7,1.2c0.4,0.3,1,0.5,1.6,0.5c0.6,0,1.1-0.1,1.4-0.4c0.3-0.3,0.5-0.6,0.5-1c0-0.5-0.2-0.9-0.6-1.1
				c-0.4-0.2-0.9-0.3-1.6-0.5c-0.5-0.1-1-0.2-1.4-0.4s-0.9-0.4-1.2-0.8c-0.3-0.3-0.5-0.8-0.5-1.3c0-0.8,0.3-1.4,0.9-1.9
				c0.6-0.5,1.4-0.8,2.4-0.8c0.9,0,1.7,0.2,2.3,0.7c0.6,0.5,1,1.1,1.1,2h-1.5c-0.1-0.5-0.3-0.8-0.6-1.1c-0.3-0.3-0.8-0.4-1.3-0.4
				c-0.5,0-1,0.1-1.3,0.3c-0.3,0.2-0.4,0.5-0.4,0.9c0,0.4,0.2,0.6,0.6,0.8c0.4,0.2,0.9,0.4,1.5,0.5c0.6,0.1,1.1,0.3,1.6,0.5
				c0.5,0.2,0.9,0.4,1.2,0.8c0.3,0.3,0.5,0.8,0.5,1.5c0,0.8-0.3,1.5-0.9,2C32.6,191.6,31.7,191.8,30.7,191.8z M36.2,191.6v-13h1.5
				v13H36.2z M44.2,191.8c-0.9,0-1.6-0.2-2.3-0.6c-0.7-0.4-1.2-0.9-1.6-1.6c-0.4-0.7-0.6-1.5-0.6-2.5c0-0.9,0.2-1.8,0.6-2.4
				c0.4-0.7,0.9-1.3,1.5-1.6c0.7-0.4,1.4-0.6,2.3-0.6c0.9,0,1.6,0.2,2.2,0.6c0.6,0.4,1.1,0.9,1.5,1.5c0.3,0.6,0.5,1.3,0.5,2.1
				c0,0.1,0,0.3,0,0.4c0,0.1,0,0.3,0,0.4h-7.1c0,0.7,0.2,1.3,0.5,1.7c0.3,0.4,0.6,0.8,1.1,1c0.4,0.2,0.9,0.3,1.4,0.3
				c0.6,0,1.1-0.1,1.6-0.4c0.4-0.3,0.7-0.7,0.9-1.2h1.5c-0.2,0.8-0.7,1.5-1.4,2.1C46.2,191.6,45.3,191.8,44.2,191.8z M44.2,183.8
				c-0.7,0-1.4,0.2-1.9,0.7c-0.6,0.4-0.9,1.1-1,1.9H47c0-0.8-0.3-1.4-0.8-1.9S45,183.8,44.2,183.8z M54.5,191.8
				c-0.9,0-1.6-0.2-2.3-0.6c-0.7-0.4-1.2-0.9-1.6-1.6c-0.4-0.7-0.6-1.5-0.6-2.5c0-0.9,0.2-1.8,0.6-2.4c0.4-0.7,0.9-1.3,1.5-1.6
				c0.7-0.4,1.4-0.6,2.3-0.6c0.9,0,1.6,0.2,2.2,0.6c0.6,0.4,1.1,0.9,1.5,1.5c0.3,0.6,0.5,1.3,0.5,2.1c0,0.1,0,0.3,0,0.4
				c0,0.1,0,0.3,0,0.4h-7.1c0,0.7,0.2,1.3,0.5,1.7c0.3,0.4,0.6,0.8,1.1,1c0.4,0.2,0.9,0.3,1.4,0.3c0.6,0,1.1-0.1,1.6-0.4
				c0.4-0.3,0.7-0.7,0.9-1.2h1.5c-0.2,0.8-0.7,1.5-1.4,2.1C56.4,191.6,55.6,191.8,54.5,191.8z M54.5,183.8c-0.7,0-1.4,0.2-1.9,0.7
				c-0.6,0.4-0.9,1.1-1,1.9h5.6c0-0.8-0.3-1.4-0.8-1.9S55.3,183.8,54.5,183.8z M60.7,195.6v-12.9h1.4l0.1,1.5
				c0.3-0.4,0.7-0.8,1.2-1.2c0.5-0.3,1.2-0.5,2.1-0.5c0.9,0,1.7,0.2,2.3,0.6c0.7,0.4,1.2,1,1.5,1.7c0.4,0.7,0.6,1.5,0.6,2.4
				c0,0.9-0.2,1.7-0.6,2.4c-0.4,0.7-0.9,1.2-1.5,1.7c-0.7,0.4-1.4,0.6-2.3,0.6c-0.7,0-1.4-0.1-2-0.5c-0.6-0.3-1-0.7-1.3-1.3v5.5
				H60.7z M65.3,190.5c0.6,0,1.1-0.1,1.6-0.4c0.5-0.3,0.8-0.7,1.1-1.2s0.4-1.1,0.4-1.8s-0.1-1.3-0.4-1.8s-0.6-0.9-1.1-1.2
				c-0.5-0.3-1-0.4-1.6-0.4c-0.6,0-1.1,0.1-1.6,0.4c-0.5,0.3-0.8,0.7-1.1,1.2s-0.4,1.1-0.4,1.8s0.1,1.3,0.4,1.8s0.6,0.9,1.1,1.2
				C64.2,190.4,64.7,190.5,65.3,190.5z M72.6,191.7c-0.3,0-0.6-0.1-0.8-0.3c-0.2-0.2-0.3-0.5-0.3-0.7s0.1-0.5,0.3-0.7
				c0.2-0.2,0.5-0.3,0.8-0.3c0.3,0,0.5,0.1,0.7,0.3c0.2,0.2,0.3,0.4,0.3,0.7s-0.1,0.5-0.3,0.7C73.1,191.6,72.8,191.7,72.6,191.7z
				 M84.4,191.8c-0.9,0-1.7-0.2-2.4-0.5c-0.7-0.3-1.2-0.8-1.6-1.4c-0.4-0.6-0.6-1.3-0.6-2.1h1.6c0,0.5,0.1,0.9,0.3,1.4
				c0.2,0.4,0.6,0.7,1,1c0.4,0.2,1,0.4,1.6,0.4c0.9,0,1.5-0.2,2-0.6c0.5-0.4,0.7-0.9,0.7-1.5c0-0.5-0.1-0.9-0.3-1.2
				c-0.2-0.3-0.5-0.6-0.9-0.8c-0.4-0.2-0.8-0.4-1.3-0.5c-0.5-0.1-1-0.3-1.5-0.5c-1-0.3-1.7-0.8-2.2-1.2c-0.5-0.5-0.7-1.2-0.7-2
				c0-0.7,0.1-1.3,0.5-1.8c0.3-0.5,0.8-0.9,1.4-1.2c0.6-0.3,1.3-0.5,2.1-0.5c0.8,0,1.5,0.2,2.1,0.5c0.6,0.3,1.1,0.7,1.4,1.2
				c0.3,0.5,0.5,1.1,0.5,1.8h-1.6c0-0.3-0.1-0.7-0.3-1c-0.2-0.3-0.5-0.6-0.8-0.8c-0.4-0.2-0.8-0.3-1.4-0.3c-0.7,0-1.2,0.2-1.7,0.5
				c-0.4,0.4-0.6,0.9-0.6,1.5c0,0.5,0.1,1,0.4,1.2c0.3,0.3,0.7,0.5,1.3,0.7c0.6,0.2,1.2,0.4,1.9,0.6c0.6,0.2,1.1,0.5,1.6,0.8
				c0.5,0.3,0.9,0.7,1.1,1.1c0.3,0.5,0.4,1,0.4,1.7c0,0.6-0.2,1.2-0.5,1.7c-0.3,0.5-0.8,1-1.4,1.3C86.1,191.7,85.4,191.8,84.4,191.8
				z M94.8,191.8c-0.8,0-1.6-0.2-2.3-0.6c-0.7-0.4-1.2-0.9-1.6-1.6c-0.4-0.7-0.6-1.5-0.6-2.5s0.2-1.8,0.6-2.5
				c0.4-0.7,0.9-1.3,1.6-1.6c0.7-0.4,1.4-0.6,2.3-0.6c0.8,0,1.6,0.2,2.3,0.6c0.7,0.4,1.2,0.9,1.6,1.6c0.4,0.7,0.6,1.5,0.6,2.5
				s-0.2,1.8-0.6,2.5c-0.4,0.7-0.9,1.2-1.6,1.6C96.4,191.6,95.6,191.8,94.8,191.8z M94.8,190.5c0.5,0,1-0.1,1.4-0.4
				c0.4-0.3,0.8-0.6,1.1-1.1s0.4-1.1,0.4-1.9c0-0.7-0.1-1.4-0.4-1.9c-0.3-0.5-0.6-0.9-1.1-1.1c-0.4-0.3-0.9-0.4-1.4-0.4
				c-0.5,0-1,0.1-1.4,0.4c-0.4,0.3-0.8,0.6-1.1,1.1s-0.4,1.1-0.4,1.9c0,0.7,0.1,1.4,0.4,1.9s0.6,0.9,1.1,1.1
				C93.8,190.4,94.3,190.5,94.8,190.5z M110.2,191.8c-0.9,0-1.7-0.2-2.3-0.6c-0.7-0.4-1.2-1-1.5-1.7c-0.4-0.7-0.5-1.5-0.5-2.4
				s0.2-1.7,0.6-2.4c0.4-0.7,0.9-1.3,1.5-1.7c0.7-0.4,1.4-0.6,2.3-0.6c0.7,0,1.4,0.2,1.9,0.5c0.6,0.3,1,0.7,1.3,1.3v-5.5h1.5v13
				h-1.4l-0.1-1.5c-0.3,0.4-0.7,0.8-1.2,1.2C111.7,191.7,111,191.8,110.2,191.8z M110.3,190.5c0.6,0,1.1-0.1,1.6-0.4
				c0.5-0.3,0.8-0.7,1.1-1.2c0.3-0.5,0.4-1.1,0.4-1.8s-0.1-1.3-0.4-1.8c-0.3-0.5-0.6-0.9-1.1-1.2c-0.5-0.3-1-0.4-1.6-0.4
				c-0.6,0-1.1,0.1-1.6,0.4c-0.5,0.3-0.8,0.7-1.1,1.2c-0.3,0.5-0.4,1.1-0.4,1.8s0.1,1.3,0.4,1.8c0.3,0.5,0.6,0.9,1.1,1.2
				C109.2,190.4,109.8,190.5,110.3,190.5z M121.5,191.8c-0.8,0-1.6-0.2-2.3-0.6c-0.7-0.4-1.2-0.9-1.6-1.6c-0.4-0.7-0.6-1.5-0.6-2.5
				s0.2-1.8,0.6-2.5c0.4-0.7,0.9-1.3,1.6-1.6c0.7-0.4,1.4-0.6,2.3-0.6s1.6,0.2,2.3,0.6c0.7,0.4,1.2,0.9,1.6,1.6
				c0.4,0.7,0.6,1.5,0.6,2.5s-0.2,1.8-0.6,2.5c-0.4,0.7-0.9,1.2-1.6,1.6C123.1,191.6,122.3,191.8,121.5,191.8z M121.5,190.5
				c0.5,0,1-0.1,1.4-0.4c0.4-0.3,0.8-0.6,1.1-1.1s0.4-1.1,0.4-1.9c0-0.7-0.1-1.4-0.4-1.9c-0.3-0.5-0.6-0.9-1.1-1.1
				c-0.4-0.3-0.9-0.4-1.4-0.4c-0.5,0-1,0.1-1.4,0.4c-0.4,0.3-0.8,0.6-1.1,1.1s-0.4,1.1-0.4,1.9c0,0.7,0.1,1.4,0.4,1.9
				s0.6,0.9,1.1,1.1C120.5,190.4,121,190.5,121.5,190.5z M132.1,191.8c-0.9,0-1.6-0.2-2.3-0.6c-0.7-0.4-1.2-0.9-1.6-1.6
				c-0.4-0.7-0.6-1.5-0.6-2.5c0-0.9,0.2-1.8,0.6-2.4c0.4-0.7,0.9-1.3,1.5-1.6c0.7-0.4,1.4-0.6,2.3-0.6c0.9,0,1.6,0.2,2.2,0.6
				c0.6,0.4,1.1,0.9,1.5,1.5c0.3,0.6,0.5,1.3,0.5,2.1c0,0.1,0,0.3,0,0.4c0,0.1,0,0.3,0,0.4h-7.1c0,0.7,0.2,1.3,0.5,1.7
				c0.3,0.4,0.6,0.8,1.1,1c0.4,0.2,0.9,0.3,1.4,0.3c0.6,0,1.1-0.1,1.6-0.4c0.4-0.3,0.7-0.7,0.9-1.2h1.5c-0.2,0.8-0.7,1.5-1.4,2.1
				C134,191.6,133.2,191.8,132.1,191.8z M132.1,183.8c-0.7,0-1.4,0.2-1.9,0.7c-0.6,0.4-0.9,1.1-1,1.9h5.6c0-0.8-0.3-1.4-0.8-1.9
				C133.5,184,132.9,183.8,132.1,183.8z M141.8,191.8c-1.1,0-2-0.3-2.7-0.8c-0.7-0.5-1.1-1.3-1.2-2.2h1.5c0.1,0.5,0.3,0.9,0.7,1.2
				c0.4,0.3,1,0.5,1.6,0.5c0.6,0,1.1-0.1,1.4-0.4c0.3-0.3,0.5-0.6,0.5-1c0-0.5-0.2-0.9-0.6-1.1c-0.4-0.2-0.9-0.3-1.6-0.5
				c-0.5-0.1-1-0.2-1.4-0.4c-0.5-0.2-0.9-0.4-1.2-0.8c-0.3-0.3-0.5-0.8-0.5-1.3c0-0.8,0.3-1.4,0.9-1.9c0.6-0.5,1.4-0.8,2.4-0.8
				c0.9,0,1.7,0.2,2.3,0.7c0.6,0.5,1,1.1,1.1,2h-1.5c-0.1-0.5-0.3-0.8-0.6-1.1c-0.3-0.3-0.8-0.4-1.3-0.4c-0.5,0-1,0.1-1.3,0.3
				c-0.3,0.2-0.4,0.5-0.4,0.9c0,0.4,0.2,0.6,0.6,0.8c0.4,0.2,0.9,0.4,1.5,0.5c0.6,0.1,1.1,0.3,1.6,0.5c0.5,0.2,0.9,0.4,1.2,0.8
				c0.3,0.3,0.5,0.8,0.5,1.5c0,0.8-0.3,1.5-0.9,2C143.6,191.6,142.8,191.8,141.8,191.8z M153.9,191.6l-2.6-8.9h1.5l1.9,7l2.1-7h1.7
				l2.1,7l1.9-7h1.5l-2.6,8.9h-1.5l-2.2-7.4l-2.2,7.4H153.9z M165.7,191.6v-13h1.5v5.6c0.3-0.6,0.7-1,1.3-1.3
				c0.6-0.3,1.2-0.5,1.8-0.5c1,0,1.9,0.3,2.5,1c0.6,0.6,0.9,1.6,0.9,3v5.2h-1.5v-5.1c0-1.9-0.8-2.8-2.2-2.8c-0.8,0-1.4,0.3-2,0.8
				c-0.5,0.6-0.8,1.3-0.8,2.4v4.6H165.7z M178.9,191.8c-0.7,0-1.4-0.1-1.9-0.4c-0.5-0.3-0.9-0.6-1.1-1c-0.2-0.4-0.4-0.9-0.4-1.4
				c0-0.9,0.3-1.6,1-2.1c0.7-0.5,1.6-0.7,2.8-0.7h2.4v-0.1c0-0.8-0.2-1.4-0.6-1.8c-0.4-0.4-1-0.6-1.6-0.6c-0.6,0-1.1,0.1-1.5,0.5
				c-0.4,0.3-0.7,0.7-0.8,1.3h-1.5c0.1-0.6,0.3-1.2,0.6-1.6c0.4-0.4,0.9-0.8,1.4-1c0.6-0.2,1.2-0.4,1.8-0.4c1.2,0,2.2,0.3,2.8,1
				c0.6,0.7,1,1.5,1,2.6v5.5h-1.3L182,190c-0.3,0.5-0.6,0.9-1.1,1.3C180.4,191.7,179.8,191.8,178.9,191.8z M179.2,190.6
				c0.6,0,1.1-0.1,1.5-0.4c0.4-0.3,0.7-0.7,1-1.2c0.2-0.5,0.3-1,0.3-1.5v0h-2.3c-0.9,0-1.5,0.2-1.9,0.5c-0.4,0.3-0.5,0.7-0.5,1.1
				c0,0.5,0.2,0.8,0.5,1.1C178.1,190.4,178.6,190.6,179.2,190.6z M189,191.6c-0.8,0-1.5-0.2-1.9-0.6s-0.7-1.1-0.7-2.1V184h-1.5v-1.3
				h1.5l0.2-2.1h1.3v2.1h2.6v1.3h-2.6v4.9c0,0.6,0.1,0.9,0.3,1.2c0.2,0.2,0.6,0.3,1.2,0.3h0.9v1.3H189z M199,191.6l-2.6-8.9h1.5
				l1.9,7l2.1-7h1.7l2.1,7l1.9-7h1.5l-2.6,8.9h-1.5l-2.2-7.4l-2.2,7.4H199z M214.4,191.8c-0.9,0-1.6-0.2-2.3-0.6
				c-0.7-0.4-1.2-0.9-1.6-1.6c-0.4-0.7-0.6-1.5-0.6-2.5c0-0.9,0.2-1.8,0.6-2.4c0.4-0.7,0.9-1.3,1.5-1.6c0.7-0.4,1.4-0.6,2.3-0.6
				c0.9,0,1.6,0.2,2.2,0.6c0.6,0.4,1.1,0.9,1.5,1.5c0.3,0.6,0.5,1.3,0.5,2.1c0,0.1,0,0.3,0,0.4c0,0.1,0,0.3,0,0.4h-7.1
				c0,0.7,0.2,1.3,0.5,1.7c0.3,0.4,0.6,0.8,1.1,1c0.4,0.2,0.9,0.3,1.4,0.3c0.6,0,1.1-0.1,1.6-0.4c0.4-0.3,0.7-0.7,0.9-1.2h1.5
				c-0.2,0.8-0.7,1.5-1.4,2.1C216.4,191.6,215.5,191.8,214.4,191.8z M214.4,183.8c-0.7,0-1.4,0.2-1.9,0.7c-0.6,0.4-0.9,1.1-1,1.9
				h5.6c0-0.8-0.3-1.4-0.8-1.9C215.8,184,215.2,183.8,214.4,183.8z M225.4,195.6v-12.9h1.4l0.1,1.5c0.3-0.4,0.7-0.8,1.2-1.2
				c0.5-0.3,1.2-0.5,2.1-0.5c0.9,0,1.7,0.2,2.3,0.6c0.7,0.4,1.2,1,1.5,1.7c0.4,0.7,0.6,1.5,0.6,2.4c0,0.9-0.2,1.7-0.6,2.4
				c-0.4,0.7-0.9,1.2-1.5,1.7c-0.7,0.4-1.4,0.6-2.3,0.6c-0.7,0-1.4-0.1-2-0.5c-0.6-0.3-1-0.7-1.3-1.3v5.5H225.4z M230,190.5
				c0.6,0,1.1-0.1,1.6-0.4c0.5-0.3,0.8-0.7,1.1-1.2c0.3-0.5,0.4-1.1,0.4-1.8s-0.1-1.3-0.4-1.8c-0.3-0.5-0.6-0.9-1.1-1.2
				c-0.5-0.3-1-0.4-1.6-0.4s-1.1,0.1-1.6,0.4c-0.5,0.3-0.8,0.7-1.1,1.2c-0.3,0.5-0.4,1.1-0.4,1.8s0.1,1.3,0.4,1.8
				c0.3,0.5,0.6,0.9,1.1,1.2C228.9,190.4,229.4,190.5,230,190.5z M240,191.8c-1.1,0-1.9-0.3-2.5-1c-0.6-0.6-0.9-1.6-0.9-3v-5.2h1.5
				v5.1c0,1.9,0.8,2.8,2.3,2.8c0.8,0,1.4-0.3,1.9-0.8c0.5-0.6,0.8-1.4,0.8-2.4v-4.6h1.5v8.9h-1.4l-0.1-1.6c-0.3,0.6-0.7,1-1.2,1.3
				C241.3,191.7,240.7,191.8,240,191.8z M250.6,191.6c-0.8,0-1.5-0.2-1.9-0.6c-0.5-0.4-0.7-1.1-0.7-2.1V184h-1.5v-1.3h1.5l0.2-2.1
				h1.3v2.1h2.6v1.3h-2.6v4.9c0,0.6,0.1,0.9,0.3,1.2c0.2,0.2,0.6,0.3,1.2,0.3h0.9v1.3H250.6z M28.2,204.7c-0.3,0-0.6-0.1-0.8-0.3
				c-0.2-0.2-0.3-0.5-0.3-0.8c0-0.3,0.1-0.5,0.3-0.7c0.2-0.2,0.5-0.3,0.8-0.3c0.3,0,0.5,0.1,0.7,0.3c0.2,0.2,0.3,0.4,0.3,0.7
				c0,0.3-0.1,0.6-0.3,0.8C28.7,204.6,28.4,204.7,28.2,204.7z M27.4,215.6v-8.9h1.5v8.9H27.4z M31.5,215.6v-8.9h1.4l0.1,1.6
				c0.3-0.6,0.7-1,1.2-1.3c0.5-0.3,1.2-0.5,1.8-0.5c1.1,0,1.9,0.3,2.5,1c0.6,0.6,1,1.6,1,3v5.2H38v-5.1c0-1.9-0.8-2.8-2.3-2.8
				c-0.8,0-1.4,0.3-1.9,0.8c-0.5,0.6-0.8,1.3-0.8,2.4v4.6H31.5z M45.4,215.6c-0.8,0-1.5-0.2-1.9-0.6c-0.5-0.4-0.7-1.1-0.7-2.1V208
				h-1.5v-1.3h1.5l0.2-2.1h1.3v2.1h2.6v1.3h-2.6v4.9c0,0.6,0.1,0.9,0.3,1.2c0.2,0.2,0.6,0.3,1.2,0.3h0.9v1.3H45.4z M52.6,215.8
				c-0.8,0-1.6-0.2-2.3-0.6c-0.7-0.4-1.2-0.9-1.6-1.6c-0.4-0.7-0.6-1.5-0.6-2.5s0.2-1.8,0.6-2.5c0.4-0.7,0.9-1.3,1.6-1.6
				c0.7-0.4,1.4-0.6,2.3-0.6c0.8,0,1.6,0.2,2.3,0.6c0.7,0.4,1.2,0.9,1.6,1.6c0.4,0.7,0.6,1.5,0.6,2.5s-0.2,1.8-0.6,2.5
				c-0.4,0.7-0.9,1.2-1.6,1.6C54.2,215.6,53.5,215.8,52.6,215.8z M52.6,214.5c0.5,0,1-0.1,1.4-0.4c0.4-0.3,0.8-0.6,1.1-1.1
				s0.4-1.1,0.4-1.9c0-0.7-0.1-1.4-0.4-1.9c-0.3-0.5-0.6-0.9-1.1-1.1c-0.4-0.3-0.9-0.4-1.4-0.4c-0.5,0-1,0.1-1.4,0.4
				c-0.4,0.3-0.8,0.6-1.1,1.1s-0.4,1.1-0.4,1.9c0,0.7,0.1,1.4,0.4,1.9s0.6,0.9,1.1,1.1C51.7,214.4,52.1,214.5,52.6,214.5z M68,215.8
				c-0.8,0-1.6-0.2-2.3-0.6c-0.7-0.4-1.2-0.9-1.6-1.6c-0.4-0.7-0.6-1.5-0.6-2.5s0.2-1.8,0.6-2.5c0.4-0.7,0.9-1.3,1.6-1.6
				c0.7-0.4,1.4-0.6,2.3-0.6c0.8,0,1.6,0.2,2.3,0.6c0.7,0.4,1.2,0.9,1.6,1.6c0.4,0.7,0.6,1.5,0.6,2.5s-0.2,1.8-0.6,2.5
				c-0.4,0.7-0.9,1.2-1.6,1.6C69.6,215.6,68.9,215.8,68,215.8z M68,214.5c0.5,0,1-0.1,1.4-0.4c0.4-0.3,0.8-0.6,1.1-1.1
				s0.4-1.1,0.4-1.9c0-0.7-0.1-1.4-0.4-1.9c-0.3-0.5-0.6-0.9-1.1-1.1c-0.4-0.3-0.9-0.4-1.4-0.4c-0.5,0-1,0.1-1.4,0.4
				c-0.4,0.3-0.8,0.6-1.1,1.1s-0.4,1.1-0.4,1.9c0,0.7,0.1,1.4,0.4,1.9s0.6,0.9,1.1,1.1C67.1,214.4,67.5,214.5,68,214.5z M77.9,215.8
				c-1.1,0-1.9-0.3-2.5-1c-0.6-0.6-0.9-1.6-0.9-3v-5.2h1.5v5.1c0,1.9,0.8,2.8,2.3,2.8c0.8,0,1.4-0.3,1.9-0.8
				c0.5-0.6,0.8-1.4,0.8-2.4v-4.6h1.5v8.9h-1.4L81,214c-0.3,0.6-0.7,1-1.2,1.3C79.2,215.7,78.6,215.8,77.9,215.8z M84.9,215.6v-8.9
				h1.4l0.1,1.7c0.3-0.6,0.7-1.1,1.3-1.4c0.6-0.3,1.3-0.5,2.1-0.5v1.6h-0.4c-0.5,0-1,0.1-1.5,0.3c-0.4,0.2-0.8,0.5-1.1,0.9
				s-0.4,1.1-0.4,1.8v4.5H84.9z M101,215.8c-0.7,0-1.4-0.1-2-0.5c-0.6-0.3-1-0.7-1.3-1.3l-0.1,1.5h-1.4v-13h1.5v5.5
				c0.3-0.4,0.7-0.8,1.2-1.2c0.5-0.3,1.2-0.5,2.1-0.5c0.9,0,1.7,0.2,2.3,0.6c0.7,0.4,1.2,1,1.5,1.7c0.4,0.7,0.6,1.5,0.6,2.4
				c0,0.9-0.2,1.7-0.6,2.4c-0.4,0.7-0.9,1.2-1.5,1.7C102.7,215.6,101.9,215.8,101,215.8z M100.8,214.5c0.6,0,1.1-0.1,1.6-0.4
				c0.5-0.3,0.8-0.7,1.1-1.2s0.4-1.1,0.4-1.8s-0.1-1.3-0.4-1.8s-0.6-0.9-1.1-1.2c-0.5-0.3-1-0.4-1.6-0.4s-1.1,0.1-1.6,0.4
				c-0.5,0.3-0.8,0.7-1.1,1.2s-0.4,1.1-0.4,1.8s0.1,1.3,0.4,1.8s0.6,0.9,1.1,1.2C99.7,214.4,100.2,214.5,100.8,214.5z M111.6,215.8
				c-0.8,0-1.6-0.2-2.3-0.6c-0.7-0.4-1.2-0.9-1.6-1.6c-0.4-0.7-0.6-1.5-0.6-2.5s0.2-1.8,0.6-2.5c0.4-0.7,0.9-1.3,1.6-1.6
				c0.7-0.4,1.4-0.6,2.3-0.6c0.8,0,1.6,0.2,2.3,0.6s1.2,0.9,1.6,1.6c0.4,0.7,0.6,1.5,0.6,2.5s-0.2,1.8-0.6,2.5
				c-0.4,0.7-0.9,1.2-1.6,1.6C113.2,215.6,112.4,215.8,111.6,215.8z M111.6,214.5c0.5,0,1-0.1,1.4-0.4c0.4-0.3,0.8-0.6,1.1-1.1
				s0.4-1.1,0.4-1.9c0-0.7-0.1-1.4-0.4-1.9c-0.3-0.5-0.6-0.9-1.1-1.1c-0.4-0.3-0.9-0.4-1.4-0.4c-0.5,0-1,0.1-1.4,0.4
				c-0.4,0.3-0.8,0.6-1.1,1.1s-0.4,1.1-0.4,1.9c0,0.7,0.1,1.4,0.4,1.9s0.6,0.9,1.1,1.1C110.6,214.4,111.1,214.5,111.6,214.5z
				 M122.2,215.8c-0.9,0-1.7-0.2-2.3-0.6c-0.7-0.4-1.2-1-1.5-1.7c-0.4-0.7-0.5-1.5-0.5-2.4s0.2-1.7,0.6-2.4c0.4-0.7,0.9-1.3,1.5-1.7
				c0.7-0.4,1.4-0.6,2.3-0.6c0.7,0,1.4,0.2,1.9,0.5s1,0.7,1.3,1.3v-5.5h1.5v13h-1.4l-0.1-1.5c-0.3,0.4-0.7,0.8-1.2,1.2
				C123.7,215.7,123.1,215.8,122.2,215.8z M122.4,214.5c0.6,0,1.1-0.1,1.6-0.4c0.5-0.3,0.8-0.7,1.1-1.2c0.3-0.5,0.4-1.1,0.4-1.8
				s-0.1-1.3-0.4-1.8c-0.3-0.5-0.6-0.9-1.1-1.2c-0.5-0.3-1-0.4-1.6-0.4c-0.6,0-1.1,0.1-1.6,0.4c-0.5,0.3-0.8,0.7-1.1,1.2
				c-0.3,0.5-0.4,1.1-0.4,1.8s0.1,1.3,0.4,1.8c0.3,0.5,0.6,0.9,1.1,1.2C121.3,214.4,121.8,214.5,122.4,214.5z M130.4,204.7
				c-0.3,0-0.6-0.1-0.8-0.3c-0.2-0.2-0.3-0.5-0.3-0.8c0-0.3,0.1-0.5,0.3-0.7c0.2-0.2,0.5-0.3,0.8-0.3c0.3,0,0.5,0.1,0.7,0.3
				c0.2,0.2,0.3,0.4,0.3,0.7c0,0.3-0.1,0.6-0.3,0.8C130.9,204.6,130.7,204.7,130.4,204.7z M129.7,215.6v-8.9h1.5v8.9H129.7z
				 M137.8,215.8c-0.9,0-1.6-0.2-2.3-0.6c-0.7-0.4-1.2-0.9-1.6-1.6c-0.4-0.7-0.6-1.5-0.6-2.5c0-0.9,0.2-1.8,0.6-2.4
				c0.4-0.7,0.9-1.3,1.5-1.6c0.7-0.4,1.4-0.6,2.3-0.6c0.9,0,1.6,0.2,2.2,0.6c0.6,0.4,1.1,0.9,1.5,1.5c0.3,0.6,0.5,1.3,0.5,2.1
				c0,0.1,0,0.3,0,0.4c0,0.1,0,0.3,0,0.4h-7.1c0,0.7,0.2,1.3,0.5,1.7c0.3,0.4,0.6,0.8,1.1,1c0.4,0.2,0.9,0.3,1.4,0.3
				c0.6,0,1.1-0.1,1.6-0.4c0.4-0.3,0.7-0.7,0.9-1.2h1.5c-0.2,0.8-0.7,1.5-1.4,2.1C139.7,215.6,138.9,215.8,137.8,215.8z
				 M137.8,207.8c-0.7,0-1.4,0.2-1.9,0.7c-0.6,0.4-0.9,1.1-1,1.9h5.6c0-0.8-0.3-1.4-0.8-1.9C139.2,208,138.6,207.8,137.8,207.8z
				 M147.5,215.8c-1.1,0-2-0.3-2.7-0.8c-0.7-0.5-1.1-1.3-1.2-2.2h1.5c0.1,0.5,0.3,0.9,0.7,1.2c0.4,0.3,1,0.5,1.6,0.5
				c0.6,0,1.1-0.1,1.4-0.4c0.3-0.3,0.4-0.6,0.4-1c0-0.5-0.2-0.9-0.6-1.1c-0.4-0.2-0.9-0.3-1.6-0.5c-0.5-0.1-1-0.2-1.4-0.4
				c-0.5-0.2-0.9-0.4-1.2-0.8c-0.3-0.3-0.5-0.8-0.5-1.3c0-0.8,0.3-1.4,0.9-1.9c0.6-0.5,1.4-0.8,2.4-0.8c0.9,0,1.7,0.2,2.3,0.7
				c0.6,0.5,1,1.1,1.1,2h-1.5c-0.1-0.5-0.3-0.8-0.6-1.1c-0.3-0.3-0.8-0.4-1.3-0.4c-0.5,0-1,0.1-1.3,0.3c-0.3,0.2-0.4,0.5-0.4,0.9
				c0,0.4,0.2,0.6,0.6,0.8c0.4,0.2,0.9,0.4,1.5,0.5c0.6,0.1,1.1,0.3,1.6,0.5c0.5,0.2,0.9,0.4,1.2,0.8c0.3,0.3,0.5,0.8,0.5,1.5
				c0,0.8-0.3,1.5-0.9,2C149.4,215.6,148.5,215.8,147.5,215.8z M153.6,215.7c-0.3,0-0.6-0.1-0.8-0.3c-0.2-0.2-0.3-0.5-0.3-0.7
				s0.1-0.5,0.3-0.7c0.2-0.2,0.5-0.3,0.8-0.3c0.3,0,0.5,0.1,0.7,0.3c0.2,0.2,0.3,0.4,0.3,0.7s-0.1,0.5-0.3,0.7
				C154.1,215.6,153.9,215.7,153.6,215.7z"/>
			<path class="st1" d="M29.8,255.6v-10.1h-3.3v-1.1h8v1.1h-3.3v10.1H29.8z M36.1,255.6v-11.5h1.3v4.9c0.3-0.5,0.6-0.9,1.1-1.1
				c0.5-0.3,1-0.4,1.6-0.4c0.9,0,1.7,0.3,2.2,0.9c0.6,0.6,0.8,1.4,0.8,2.6v4.6h-1.3v-4.5c0-1.7-0.7-2.5-2-2.5
				c-0.7,0-1.3,0.2-1.7,0.8c-0.5,0.5-0.7,1.2-0.7,2.1v4.1H36.1z M46,245.9c-0.3,0-0.5-0.1-0.7-0.3c-0.2-0.2-0.3-0.4-0.3-0.7
				c0-0.3,0.1-0.5,0.3-0.6c0.2-0.2,0.4-0.3,0.7-0.3c0.3,0,0.5,0.1,0.7,0.3c0.2,0.2,0.3,0.4,0.3,0.6c0,0.3-0.1,0.5-0.3,0.7
				C46.5,245.8,46.3,245.9,46,245.9z M45.4,255.6v-7.9h1.3v7.9H45.4z M52.1,255.8c-0.9,0-1.7-0.2-2.4-0.7c-0.6-0.5-1-1.1-1.1-2H50
				c0.1,0.4,0.3,0.8,0.7,1.1c0.4,0.3,0.8,0.4,1.5,0.4c0.6,0,1-0.1,1.2-0.4c0.3-0.2,0.4-0.5,0.4-0.9c0-0.5-0.2-0.8-0.5-1
				c-0.3-0.2-0.8-0.3-1.5-0.4c-0.4-0.1-0.9-0.2-1.3-0.4c-0.4-0.2-0.8-0.4-1.1-0.7c-0.3-0.3-0.4-0.7-0.4-1.2c0-0.7,0.3-1.3,0.8-1.7
				c0.5-0.4,1.2-0.7,2.1-0.7c0.8,0,1.5,0.2,2.1,0.6c0.5,0.4,0.9,1,0.9,1.8h-1.3c-0.1-0.4-0.2-0.7-0.5-0.9c-0.3-0.2-0.7-0.4-1.2-0.4
				c-0.5,0-0.9,0.1-1.1,0.3c-0.3,0.2-0.4,0.5-0.4,0.8c0,0.3,0.2,0.6,0.5,0.8c0.3,0.2,0.8,0.3,1.4,0.5c0.5,0.1,1,0.2,1.4,0.4
				c0.4,0.1,0.8,0.4,1.1,0.7c0.3,0.3,0.4,0.7,0.4,1.3c0,0.7-0.3,1.3-0.8,1.8C53.8,255.6,53,255.8,52.1,255.8z M61.3,255.6v-7.9h1.2
				l0.1,1.2c0.3-0.4,0.6-0.8,1-1c0.4-0.2,0.9-0.4,1.4-0.4c0.6,0,1.2,0.1,1.6,0.4c0.5,0.3,0.8,0.6,1.1,1.2c0.3-0.5,0.7-0.9,1.1-1.1
				c0.5-0.3,1-0.4,1.6-0.4c0.9,0,1.7,0.3,2.3,0.9c0.6,0.6,0.8,1.4,0.8,2.6v4.6h-1.3v-4.5c0-0.8-0.2-1.4-0.5-1.9
				c-0.3-0.4-0.8-0.6-1.4-0.6c-0.6,0-1.2,0.2-1.6,0.8c-0.4,0.5-0.6,1.2-0.6,2.1v4.1h-1.3v-4.5c0-0.8-0.2-1.4-0.5-1.9
				c-0.3-0.4-0.8-0.6-1.4-0.6c-0.6,0-1.2,0.2-1.6,0.8c-0.4,0.5-0.6,1.2-0.6,2.1v4.1H61.3z M79.2,255.8c-0.7,0-1.4-0.2-2-0.5
				c-0.6-0.3-1.1-0.8-1.4-1.4c-0.3-0.6-0.5-1.4-0.5-2.2c0-0.8,0.2-1.6,0.5-2.2c0.4-0.6,0.8-1.1,1.4-1.5c0.6-0.3,1.3-0.5,2-0.5
				c0.7,0,1.4,0.2,2,0.5c0.6,0.3,1.1,0.8,1.4,1.5c0.4,0.6,0.5,1.3,0.5,2.2c0,0.8-0.2,1.6-0.5,2.2c-0.4,0.6-0.8,1.1-1.4,1.4
				C80.6,255.6,80,255.8,79.2,255.8z M79.2,254.7c0.5,0,0.9-0.1,1.3-0.3c0.4-0.2,0.7-0.6,1-1c0.2-0.4,0.4-1,0.4-1.7
				c0-0.7-0.1-1.2-0.4-1.7c-0.2-0.4-0.5-0.8-0.9-1c-0.4-0.2-0.8-0.3-1.3-0.3c-0.5,0-0.9,0.1-1.3,0.3c-0.4,0.2-0.7,0.6-1,1
				c-0.2,0.4-0.4,1-0.4,1.7c0,0.7,0.1,1.2,0.4,1.7c0.2,0.4,0.6,0.8,0.9,1C78.3,254.5,78.8,254.7,79.2,254.7z M88.7,255.8
				c-0.8,0-1.5-0.2-2.1-0.5c-0.6-0.4-1-0.9-1.4-1.5c-0.3-0.6-0.5-1.3-0.5-2.1s0.2-1.5,0.5-2.1c0.3-0.6,0.8-1.1,1.4-1.5
				c0.6-0.4,1.3-0.5,2.1-0.5c0.7,0,1.2,0.1,1.7,0.4c0.5,0.3,0.9,0.6,1.2,1.1v-4.9h1.3v11.5h-1.2l-0.1-1.3c-0.3,0.4-0.6,0.7-1.1,1
				C90,255.7,89.4,255.8,88.7,255.8z M88.8,254.6c0.5,0,1-0.1,1.4-0.4c0.4-0.3,0.7-0.6,1-1.1c0.2-0.4,0.4-1,0.4-1.6
				c0-0.6-0.1-1.1-0.4-1.6c-0.2-0.4-0.5-0.8-1-1c-0.4-0.3-0.9-0.4-1.4-0.4c-0.5,0-1,0.1-1.4,0.4c-0.4,0.2-0.7,0.6-1,1
				c-0.2,0.4-0.3,1-0.3,1.6c0,0.6,0.1,1.1,0.3,1.6c0.2,0.4,0.6,0.8,1,1.1C87.8,254.5,88.3,254.6,88.8,254.6z M98,255.8
				c-0.9,0-1.7-0.3-2.2-0.8c-0.6-0.6-0.8-1.5-0.8-2.6v-4.6h1.3v4.5c0,1.7,0.7,2.5,2,2.5c0.7,0,1.3-0.2,1.7-0.7
				c0.5-0.5,0.7-1.2,0.7-2.1v-4.1h1.3v7.9h-1.2l-0.1-1.4c-0.2,0.5-0.6,0.9-1.1,1.2C99.2,255.7,98.6,255.8,98,255.8z M104.3,255.6
				v-11.5h1.3v11.5H104.3z M111.4,255.8c-0.8,0-1.4-0.2-2-0.5c-0.6-0.4-1.1-0.8-1.4-1.5c-0.3-0.6-0.5-1.4-0.5-2.2
				c0-0.8,0.2-1.6,0.5-2.2c0.3-0.6,0.8-1.1,1.4-1.5c0.6-0.4,1.3-0.5,2.1-0.5c0.8,0,1.4,0.2,2,0.5c0.6,0.3,1,0.8,1.3,1.4
				c0.3,0.6,0.4,1.2,0.4,1.8c0,0.1,0,0.2,0,0.4c0,0.1,0,0.2,0,0.4h-6.3c0,0.6,0.2,1.1,0.4,1.5c0.3,0.4,0.6,0.7,0.9,0.9
				c0.4,0.2,0.8,0.3,1.2,0.3c0.6,0,1-0.1,1.4-0.4c0.4-0.3,0.6-0.6,0.8-1h1.3c-0.2,0.7-0.6,1.3-1.2,1.8
				C113.1,255.6,112.3,255.8,111.4,255.8z M111.4,248.6c-0.6,0-1.2,0.2-1.7,0.6c-0.5,0.4-0.8,0.9-0.8,1.7h5c0-0.7-0.3-1.3-0.7-1.7
				C112.6,248.8,112,248.6,111.4,248.6z M124.3,255.6c-0.7,0-1.3-0.2-1.7-0.5c-0.4-0.4-0.6-1-0.6-1.9v-4.4h-1.4v-1.1h1.4l0.2-1.9
				h1.2v1.9h2.3v1.1h-2.3v4.4c0,0.5,0.1,0.8,0.3,1c0.2,0.2,0.6,0.3,1.1,0.3h0.8v1.2H124.3z M130,255.8c-0.7,0-1.2-0.1-1.6-0.3
				c-0.4-0.2-0.8-0.5-1-0.9c-0.2-0.4-0.3-0.8-0.3-1.2c0-0.8,0.3-1.4,0.9-1.9c0.6-0.4,1.5-0.7,2.5-0.7h2.1v-0.1
				c0-0.7-0.2-1.2-0.5-1.6c-0.4-0.4-0.8-0.5-1.5-0.5c-0.5,0-1,0.1-1.4,0.4c-0.4,0.3-0.6,0.6-0.7,1.1h-1.4c0.1-0.6,0.2-1.1,0.6-1.5
				c0.3-0.4,0.8-0.7,1.3-0.9c0.5-0.2,1-0.3,1.6-0.3c1.1,0,1.9,0.3,2.5,0.9c0.6,0.6,0.8,1.4,0.8,2.4v4.9h-1.2l-0.1-1.4
				c-0.2,0.4-0.6,0.8-1,1.2C131.3,255.7,130.7,255.8,130,255.8z M130.2,254.7c0.5,0,0.9-0.1,1.3-0.4c0.4-0.3,0.7-0.6,0.8-1
				c0.2-0.4,0.3-0.9,0.3-1.3v0h-2c-0.8,0-1.3,0.1-1.7,0.4c-0.3,0.3-0.5,0.6-0.5,1c0,0.4,0.1,0.8,0.4,1
				C129.2,254.6,129.6,254.7,130.2,254.7z M136,255.6v-11.5h1.3v11.5H136z M139.5,255.6v-11.5h1.3v6.9l3.2-3.3h1.6l-3.5,3.6l4,4.4
				h-1.7l-3.6-4.1v4.1H139.5z M150.2,255.8c-0.9,0-1.7-0.2-2.4-0.7c-0.6-0.5-1-1.1-1.1-2h1.4c0.1,0.4,0.3,0.8,0.7,1.1
				c0.4,0.3,0.8,0.4,1.5,0.4c0.6,0,1-0.1,1.2-0.4c0.3-0.2,0.4-0.5,0.4-0.9c0-0.5-0.2-0.8-0.5-1c-0.3-0.2-0.8-0.3-1.5-0.4
				c-0.4-0.1-0.9-0.2-1.3-0.4c-0.4-0.2-0.8-0.4-1.1-0.7c-0.3-0.3-0.4-0.7-0.4-1.2c0-0.7,0.3-1.3,0.8-1.7c0.5-0.4,1.2-0.7,2.1-0.7
				c0.8,0,1.5,0.2,2.1,0.6c0.5,0.4,0.9,1,0.9,1.8h-1.3c-0.1-0.4-0.2-0.7-0.5-0.9c-0.3-0.2-0.7-0.4-1.2-0.4c-0.5,0-0.9,0.1-1.1,0.3
				c-0.3,0.2-0.4,0.5-0.4,0.8c0,0.3,0.2,0.6,0.5,0.8c0.3,0.2,0.8,0.3,1.4,0.5c0.5,0.1,1,0.2,1.4,0.4c0.4,0.1,0.8,0.4,1.1,0.7
				c0.3,0.3,0.4,0.7,0.4,1.3c0,0.7-0.3,1.3-0.8,1.8C151.9,255.6,151.1,255.8,150.2,255.8z M162,255.8c-0.7,0-1.2-0.1-1.6-0.3
				c-0.4-0.2-0.8-0.5-1-0.9c-0.2-0.4-0.3-0.8-0.3-1.2c0-0.8,0.3-1.4,0.9-1.9c0.6-0.4,1.5-0.7,2.5-0.7h2.1v-0.1
				c0-0.7-0.2-1.2-0.5-1.6c-0.4-0.4-0.8-0.5-1.5-0.5c-0.5,0-1,0.1-1.4,0.4c-0.4,0.3-0.6,0.6-0.7,1.1h-1.4c0.1-0.6,0.2-1.1,0.6-1.5
				c0.3-0.4,0.8-0.7,1.3-0.9c0.5-0.2,1-0.3,1.6-0.3c1.1,0,1.9,0.3,2.5,0.9c0.6,0.6,0.8,1.4,0.8,2.4v4.9h-1.2l-0.1-1.4
				c-0.2,0.4-0.6,0.8-1,1.2C163.3,255.7,162.7,255.8,162,255.8z M162.2,254.7c0.5,0,0.9-0.1,1.3-0.4c0.4-0.3,0.7-0.6,0.8-1
				c0.2-0.4,0.3-0.9,0.3-1.3v0h-2c-0.8,0-1.4,0.1-1.7,0.4c-0.3,0.3-0.5,0.6-0.5,1c0,0.4,0.1,0.8,0.4,1
				C161.2,254.6,161.7,254.7,162.2,254.7z M172.3,255.8c-0.7,0-1.2-0.1-1.7-0.4c-0.5-0.3-0.9-0.6-1.2-1.1l-0.1,1.3H168v-11.5h1.3
				v4.9c0.3-0.4,0.6-0.7,1.1-1c0.5-0.3,1.1-0.5,1.8-0.5c0.8,0,1.5,0.2,2.1,0.5c0.6,0.4,1,0.9,1.4,1.5c0.3,0.6,0.5,1.3,0.5,2.1
				c0,0.8-0.2,1.5-0.5,2.1c-0.3,0.6-0.8,1.1-1.4,1.5C173.7,255.6,173.1,255.8,172.3,255.8z M172.1,254.6c0.5,0,1-0.1,1.4-0.4
				c0.4-0.3,0.7-0.6,1-1.1s0.4-1,0.4-1.6c0-0.6-0.1-1.1-0.4-1.6s-0.6-0.8-1-1c-0.4-0.3-0.9-0.4-1.4-0.4c-0.5,0-1,0.1-1.4,0.4
				c-0.4,0.2-0.7,0.6-1,1s-0.4,1-0.4,1.6c0,0.6,0.1,1.1,0.4,1.6s0.6,0.8,1,1.1C171.1,254.5,171.6,254.6,172.1,254.6z M181.7,255.8
				c-0.7,0-1.4-0.2-2-0.5c-0.6-0.3-1.1-0.8-1.4-1.4c-0.3-0.6-0.5-1.4-0.5-2.2c0-0.8,0.2-1.6,0.5-2.2c0.4-0.6,0.8-1.1,1.4-1.5
				c0.6-0.3,1.3-0.5,2-0.5c0.7,0,1.4,0.2,2,0.5c0.6,0.3,1.1,0.8,1.4,1.5c0.4,0.6,0.5,1.3,0.5,2.2c0,0.8-0.2,1.6-0.5,2.2
				c-0.4,0.6-0.8,1.1-1.4,1.4C183.1,255.6,182.4,255.8,181.7,255.8z M181.7,254.7c0.5,0,0.9-0.1,1.3-0.3c0.4-0.2,0.7-0.6,1-1
				c0.2-0.4,0.4-1,0.4-1.7c0-0.7-0.1-1.2-0.4-1.7c-0.2-0.4-0.6-0.8-0.9-1c-0.4-0.2-0.8-0.3-1.3-0.3c-0.5,0-0.9,0.1-1.3,0.3
				c-0.4,0.2-0.7,0.6-1,1c-0.2,0.4-0.4,1-0.4,1.7c0,0.7,0.1,1.2,0.4,1.7c0.2,0.4,0.6,0.8,0.9,1C180.8,254.5,181.2,254.7,181.7,254.7
				z M190.4,255.8c-0.9,0-1.7-0.3-2.2-0.8c-0.6-0.6-0.8-1.5-0.8-2.6v-4.6h1.3v4.5c0,1.7,0.7,2.5,2,2.5c0.7,0,1.3-0.2,1.7-0.7
				c0.5-0.5,0.7-1.2,0.7-2.1v-4.1h1.3v7.9h-1.2l-0.1-1.4c-0.2,0.5-0.6,0.9-1.1,1.2C191.6,255.7,191,255.8,190.4,255.8z M199.8,255.6
				c-0.7,0-1.3-0.2-1.7-0.5c-0.4-0.4-0.6-1-0.6-1.9v-4.4h-1.4v-1.1h1.4l0.2-1.9h1.2v1.9h2.3v1.1h-2.3v4.4c0,0.5,0.1,0.8,0.3,1
				c0.2,0.2,0.6,0.3,1.1,0.3h0.8v1.2H199.8z M210.8,255.8c-0.8,0-1.4-0.2-2-0.5c-0.6-0.4-1.1-0.8-1.4-1.5c-0.3-0.6-0.5-1.4-0.5-2.2
				s0.2-1.6,0.5-2.2c0.4-0.6,0.8-1.1,1.4-1.5c0.6-0.4,1.3-0.5,2-0.5c0.9,0,1.7,0.2,2.4,0.7c0.6,0.5,1.1,1.1,1.2,2H213
				c-0.1-0.5-0.4-0.9-0.8-1.1c-0.4-0.3-0.9-0.4-1.5-0.4c-0.4,0-0.9,0.1-1.3,0.3c-0.4,0.2-0.7,0.6-1,1c-0.2,0.4-0.4,1-0.4,1.7
				c0,0.7,0.1,1.2,0.4,1.7c0.2,0.4,0.6,0.8,1,1c0.4,0.2,0.8,0.3,1.3,0.3c0.6,0,1-0.1,1.5-0.4c0.4-0.3,0.7-0.7,0.8-1.2h1.4
				c-0.2,0.8-0.6,1.4-1.2,2C212.5,255.6,211.7,255.8,210.8,255.8z M219.1,255.8c-0.9,0-1.7-0.3-2.2-0.8c-0.6-0.6-0.8-1.5-0.8-2.6
				v-4.6h1.3v4.5c0,1.7,0.7,2.5,2,2.5c0.7,0,1.3-0.2,1.7-0.7c0.5-0.5,0.7-1.2,0.7-2.1v-4.1h1.3v7.9H222l-0.1-1.4
				c-0.2,0.5-0.6,0.9-1.1,1.2C220.3,255.7,219.7,255.8,219.1,255.8z M228.5,255.6c-0.7,0-1.3-0.2-1.7-0.5c-0.4-0.4-0.6-1-0.6-1.9
				v-4.4h-1.4v-1.1h1.4l0.2-1.9h1.2v1.9h2.3v1.1h-2.3v4.4c0,0.5,0.1,0.8,0.3,1c0.2,0.2,0.6,0.3,1.1,0.3h0.8v1.2H228.5z M234.7,255.6
				c-0.7,0-1.3-0.2-1.7-0.5c-0.4-0.4-0.6-1-0.6-1.9v-4.4H231v-1.1h1.4l0.2-1.9h1.2v1.9h2.3v1.1h-2.3v4.4c0,0.5,0.1,0.8,0.3,1
				c0.2,0.2,0.6,0.3,1.1,0.3h0.8v1.2H234.7z M238.6,245.9c-0.3,0-0.5-0.1-0.7-0.3c-0.2-0.2-0.3-0.4-0.3-0.7c0-0.3,0.1-0.5,0.3-0.6
				c0.2-0.2,0.4-0.3,0.7-0.3c0.3,0,0.5,0.1,0.7,0.3c0.2,0.2,0.3,0.4,0.3,0.6c0,0.3-0.1,0.5-0.3,0.7
				C239.1,245.8,238.8,245.9,238.6,245.9z M237.9,255.6v-7.9h1.3v7.9H237.9z M241.6,255.6v-7.9h1.2l0.1,1.4c0.3-0.5,0.6-0.9,1.1-1.2
				s1-0.4,1.6-0.4c0.9,0,1.7,0.3,2.2,0.9c0.6,0.6,0.8,1.4,0.8,2.6v4.6h-1.3v-4.5c0-1.7-0.7-2.5-2-2.5c-0.7,0-1.3,0.2-1.7,0.8
				c-0.4,0.5-0.7,1.2-0.7,2.1v4.1H241.6z M253.9,253.1c-0.4,0-0.9-0.1-1.2-0.2l-0.8,0.8c0.1,0.1,0.3,0.2,0.4,0.2
				c0.2,0.1,0.4,0.1,0.8,0.2c0.3,0,0.8,0.1,1.4,0.1c1.1,0.1,1.8,0.3,2.3,0.7c0.5,0.4,0.7,1,0.7,1.6c0,0.5-0.1,0.9-0.4,1.3
				c-0.2,0.4-0.6,0.8-1.2,1c-0.5,0.3-1.2,0.4-2,0.4c-0.7,0-1.3-0.1-1.9-0.3c-0.6-0.2-1-0.5-1.3-0.8c-0.3-0.4-0.5-0.8-0.5-1.4
				c0-0.3,0.1-0.6,0.2-1c0.2-0.3,0.5-0.7,0.9-1c-0.2-0.1-0.4-0.2-0.6-0.3c-0.2-0.1-0.3-0.2-0.4-0.4v-0.4l1.4-1.3
				c-0.6-0.5-0.9-1.2-0.9-2.1c0-0.5,0.1-1,0.4-1.4c0.2-0.4,0.6-0.8,1.1-1c0.5-0.3,1-0.4,1.7-0.4c0.5,0,0.9,0.1,1.2,0.2h2.9v1
				l-1.5,0.1c0.3,0.4,0.5,1,0.5,1.6c0,0.5-0.1,1-0.4,1.4c-0.2,0.4-0.6,0.8-1.1,1C255.1,253,254.6,253.1,253.9,253.1z M253.9,252
				c0.6,0,1-0.1,1.3-0.4c0.3-0.3,0.5-0.7,0.5-1.3c0-0.5-0.2-1-0.5-1.2c-0.3-0.3-0.8-0.4-1.3-0.4c-0.6,0-1,0.1-1.4,0.4
				c-0.3,0.3-0.5,0.7-0.5,1.2c0,0.6,0.2,1,0.5,1.3C252.9,251.9,253.3,252,253.9,252z M251.6,256.6c0,0.5,0.2,0.9,0.7,1.2
				c0.4,0.3,1,0.4,1.7,0.4c0.7,0,1.2-0.1,1.6-0.4c0.4-0.3,0.6-0.7,0.6-1.2c0-0.3-0.1-0.6-0.4-0.9c-0.3-0.2-0.8-0.4-1.5-0.4
				c-0.6,0-1.1-0.1-1.5-0.2c-0.4,0.2-0.7,0.5-0.9,0.8C251.6,256.2,251.6,256.4,251.6,256.6z M267.4,255.8c-0.8,0-1.5-0.2-2.1-0.5
				c-0.6-0.4-1-0.9-1.4-1.5c-0.3-0.6-0.5-1.3-0.5-2.1s0.2-1.5,0.5-2.1c0.3-0.6,0.8-1.1,1.4-1.5c0.6-0.4,1.3-0.5,2.1-0.5
				c0.6,0,1.2,0.1,1.7,0.4c0.5,0.3,0.9,0.6,1.2,1.1v-4.9h1.3v11.5h-1.2l-0.1-1.3c-0.3,0.4-0.6,0.7-1.1,1
				C268.8,255.7,268.1,255.8,267.4,255.8z M267.6,254.6c0.5,0,1-0.1,1.4-0.4c0.4-0.3,0.7-0.6,1-1.1c0.2-0.4,0.4-1,0.4-1.6
				c0-0.6-0.1-1.1-0.4-1.6c-0.2-0.4-0.5-0.8-1-1c-0.4-0.3-0.9-0.4-1.4-0.4c-0.5,0-1,0.1-1.4,0.4c-0.4,0.2-0.7,0.6-1,1
				c-0.2,0.4-0.3,1-0.3,1.6c0,0.6,0.1,1.1,0.3,1.6c0.2,0.4,0.6,0.8,1,1.1C266.6,254.5,267,254.6,267.6,254.6z M277.5,255.8
				c-0.7,0-1.4-0.2-2-0.5c-0.6-0.3-1.1-0.8-1.4-1.4c-0.3-0.6-0.5-1.4-0.5-2.2c0-0.8,0.2-1.6,0.5-2.2c0.4-0.6,0.8-1.1,1.4-1.5
				c0.6-0.3,1.3-0.5,2-0.5c0.7,0,1.4,0.2,2,0.5c0.6,0.3,1.1,0.8,1.4,1.5c0.4,0.6,0.5,1.3,0.5,2.2c0,0.8-0.2,1.6-0.5,2.2
				c-0.4,0.6-0.8,1.1-1.4,1.4C278.9,255.6,278.2,255.8,277.5,255.8z M277.5,254.7c0.5,0,0.9-0.1,1.3-0.3c0.4-0.2,0.7-0.6,1-1
				c0.2-0.4,0.4-1,0.4-1.7c0-0.7-0.1-1.2-0.4-1.7c-0.2-0.4-0.6-0.8-0.9-1c-0.4-0.2-0.8-0.3-1.3-0.3c-0.5,0-0.9,0.1-1.3,0.3
				c-0.4,0.2-0.7,0.6-1,1c-0.2,0.4-0.4,1-0.4,1.7c0,0.7,0.1,1.2,0.4,1.7c0.2,0.4,0.6,0.8,0.9,1C276.6,254.5,277,254.7,277.5,254.7z
				 M284.6,255.6l-2.3-7.9h1.3l1.7,6.2l1.9-6.2h1.5l1.9,6.2l1.7-6.2h1.4l-2.3,7.9h-1.4l-2-6.5l-2,6.5H284.6z M295.1,255.6v-7.9h1.2
				l0.1,1.4c0.3-0.5,0.6-0.9,1.1-1.2s1-0.4,1.6-0.4c0.9,0,1.7,0.3,2.2,0.9c0.6,0.6,0.8,1.4,0.8,2.6v4.6h-1.3v-4.5
				c0-1.7-0.7-2.5-2-2.5c-0.7,0-1.3,0.2-1.7,0.8c-0.4,0.5-0.7,1.2-0.7,2.1v4.1H295.1z M30.7,279.8c-0.7,0-1.4-0.2-2-0.5
				c-0.6-0.3-1.1-0.8-1.4-1.4c-0.3-0.6-0.5-1.4-0.5-2.2c0-0.8,0.2-1.6,0.5-2.2c0.4-0.6,0.8-1.1,1.4-1.5c0.6-0.3,1.3-0.5,2-0.5
				s1.4,0.2,2,0.5c0.6,0.3,1.1,0.8,1.4,1.5c0.4,0.6,0.5,1.3,0.5,2.2c0,0.8-0.2,1.6-0.5,2.2c-0.4,0.6-0.8,1.1-1.4,1.4
				C32.1,279.6,31.5,279.8,30.7,279.8z M30.7,278.7c0.5,0,0.9-0.1,1.3-0.3s0.7-0.6,1-1s0.4-1,0.4-1.7c0-0.7-0.1-1.2-0.4-1.7
				c-0.2-0.4-0.5-0.8-0.9-1c-0.4-0.2-0.8-0.3-1.3-0.3c-0.5,0-0.9,0.1-1.3,0.3s-0.7,0.6-1,1s-0.4,1-0.4,1.7c0,0.7,0.1,1.2,0.4,1.7
				s0.6,0.8,0.9,1C29.9,278.5,30.3,278.7,30.7,278.7z M36.6,279.6v-7.9h1.2l0.1,1.4c0.3-0.5,0.6-0.9,1.1-1.2c0.5-0.3,1-0.4,1.6-0.4
				c0.9,0,1.7,0.3,2.2,0.9c0.6,0.6,0.8,1.4,0.8,2.6v4.6h-1.3v-4.5c0-1.7-0.7-2.5-2-2.5c-0.7,0-1.3,0.2-1.7,0.8
				c-0.4,0.5-0.7,1.2-0.7,2.1v4.1H36.6z M53,279.8c-0.9,0-1.7-0.2-2.4-0.7c-0.6-0.5-1-1.1-1.1-2h1.4c0.1,0.4,0.3,0.8,0.7,1.1
				c0.4,0.3,0.8,0.4,1.5,0.4c0.6,0,1-0.1,1.2-0.4c0.3-0.2,0.4-0.5,0.4-0.9c0-0.5-0.2-0.8-0.5-1c-0.3-0.2-0.8-0.3-1.5-0.4
				c-0.4-0.1-0.9-0.2-1.3-0.4c-0.4-0.2-0.8-0.4-1.1-0.7c-0.3-0.3-0.4-0.7-0.4-1.2c0-0.7,0.3-1.3,0.8-1.7c0.5-0.4,1.2-0.7,2.1-0.7
				c0.8,0,1.5,0.2,2.1,0.6c0.5,0.4,0.9,1,0.9,1.8h-1.3c-0.1-0.4-0.2-0.7-0.5-0.9c-0.3-0.2-0.7-0.4-1.2-0.4c-0.5,0-0.9,0.1-1.1,0.3
				c-0.3,0.2-0.4,0.5-0.4,0.8c0,0.3,0.2,0.6,0.5,0.8c0.3,0.2,0.8,0.3,1.4,0.5c0.5,0.1,1,0.2,1.4,0.4c0.4,0.1,0.8,0.4,1.1,0.7
				c0.3,0.3,0.4,0.7,0.4,1.3c0,0.7-0.3,1.3-0.8,1.8C54.7,279.6,53.9,279.8,53,279.8z M60.7,279.6c-0.7,0-1.3-0.2-1.7-0.5
				s-0.6-1-0.6-1.9v-4.4H57v-1.1h1.4l0.2-1.9h1.2v1.9h2.3v1.1h-2.3v4.4c0,0.5,0.1,0.8,0.3,1c0.2,0.2,0.6,0.3,1.1,0.3H62v1.2H60.7z
				 M64.6,269.9c-0.3,0-0.5-0.1-0.7-0.3c-0.2-0.2-0.3-0.4-0.3-0.7c0-0.3,0.1-0.5,0.3-0.6c0.2-0.2,0.4-0.3,0.7-0.3
				c0.3,0,0.5,0.1,0.7,0.3c0.2,0.2,0.3,0.4,0.3,0.6c0,0.3-0.1,0.5-0.3,0.7C65.1,269.8,64.9,269.9,64.6,269.9z M63.9,279.6v-7.9h1.3
				v7.9H63.9z M67.6,279.6v-7.9h1.2l0.1,1.2c0.3-0.4,0.6-0.8,1-1c0.4-0.2,0.9-0.4,1.4-0.4c0.6,0,1.2,0.1,1.6,0.4
				c0.5,0.3,0.8,0.6,1.1,1.2c0.3-0.5,0.7-0.9,1.1-1.1c0.5-0.3,1-0.4,1.6-0.4c0.9,0,1.7,0.3,2.3,0.9c0.6,0.6,0.8,1.4,0.8,2.6v4.6
				h-1.3v-4.5c0-0.8-0.2-1.4-0.5-1.9c-0.3-0.4-0.8-0.6-1.4-0.6c-0.6,0-1.2,0.2-1.6,0.8c-0.4,0.5-0.6,1.2-0.6,2.1v4.1h-1.3v-4.5
				c0-0.8-0.2-1.4-0.5-1.9c-0.3-0.4-0.8-0.6-1.4-0.6c-0.6,0-1.2,0.2-1.6,0.8c-0.4,0.5-0.6,1.2-0.6,2.1v4.1H67.6z M84.8,279.8
				c-0.9,0-1.7-0.3-2.2-0.8c-0.6-0.6-0.8-1.5-0.8-2.6v-4.6h1.3v4.5c0,1.7,0.7,2.5,2,2.5c0.7,0,1.3-0.2,1.7-0.7
				c0.5-0.5,0.7-1.2,0.7-2.1v-4.1h1.3v7.9h-1.2l-0.1-1.4c-0.2,0.5-0.6,0.9-1.1,1.2C86,279.7,85.4,279.8,84.8,279.8z M91.1,279.6
				v-11.5h1.3v11.5H91.1z M97.3,279.8c-0.7,0-1.2-0.1-1.6-0.3c-0.4-0.2-0.8-0.5-1-0.9c-0.2-0.4-0.3-0.8-0.3-1.2
				c0-0.8,0.3-1.4,0.9-1.9c0.6-0.4,1.5-0.7,2.5-0.7h2.1v-0.1c0-0.7-0.2-1.2-0.5-1.6c-0.4-0.4-0.8-0.5-1.5-0.5c-0.5,0-1,0.1-1.4,0.4
				c-0.4,0.3-0.6,0.6-0.7,1.1h-1.4c0.1-0.6,0.2-1.1,0.6-1.5c0.3-0.4,0.8-0.7,1.3-0.9c0.5-0.2,1-0.3,1.6-0.3c1.1,0,1.9,0.3,2.5,0.9
				c0.6,0.6,0.8,1.4,0.8,2.4v4.9h-1.2l-0.1-1.4c-0.2,0.4-0.6,0.8-1,1.2C98.6,279.7,98,279.8,97.3,279.8z M97.5,278.7
				c0.5,0,0.9-0.1,1.3-0.4c0.4-0.3,0.7-0.6,0.8-1c0.2-0.4,0.3-0.9,0.3-1.3v0h-2c-0.8,0-1.3,0.1-1.7,0.4c-0.3,0.3-0.5,0.6-0.5,1
				c0,0.4,0.2,0.8,0.4,1C96.5,278.6,96.9,278.7,97.5,278.7z M103.3,279.6v-7.9h1.2l0.1,1.4c0.3-0.5,0.6-0.9,1.1-1.2
				c0.5-0.3,1-0.4,1.6-0.4c0.9,0,1.7,0.3,2.2,0.9c0.6,0.6,0.8,1.4,0.8,2.6v4.6h-1.3v-4.5c0-1.7-0.7-2.5-2-2.5
				c-0.7,0-1.3,0.2-1.7,0.8c-0.4,0.5-0.7,1.2-0.7,2.1v4.1H103.3z M115.6,279.6c-0.7,0-1.3-0.2-1.7-0.5s-0.6-1-0.6-1.9v-4.4h-1.4
				v-1.1h1.4l0.2-1.9h1.2v1.9h2.3v1.1h-2.3v4.4c0,0.5,0.1,0.8,0.3,1c0.2,0.2,0.6,0.3,1.1,0.3h0.8v1.2H115.6z M121.7,279.8
				c-0.9,0-1.7-0.2-2.4-0.7c-0.6-0.5-1-1.1-1.1-2h1.4c0.1,0.4,0.3,0.8,0.7,1.1c0.4,0.3,0.8,0.4,1.5,0.4c0.6,0,1-0.1,1.2-0.4
				c0.3-0.2,0.4-0.5,0.4-0.9c0-0.5-0.2-0.8-0.5-1c-0.3-0.2-0.8-0.3-1.5-0.4c-0.4-0.1-0.9-0.2-1.3-0.4c-0.4-0.2-0.8-0.4-1.1-0.7
				c-0.3-0.3-0.4-0.7-0.4-1.2c0-0.7,0.3-1.3,0.8-1.7c0.5-0.4,1.2-0.7,2.1-0.7c0.8,0,1.5,0.2,2.1,0.6c0.5,0.4,0.9,1,0.9,1.8h-1.3
				c-0.1-0.4-0.2-0.7-0.5-0.9c-0.3-0.2-0.7-0.4-1.2-0.4c-0.5,0-0.9,0.1-1.1,0.3c-0.3,0.2-0.4,0.5-0.4,0.8c0,0.3,0.2,0.6,0.5,0.8
				c0.3,0.2,0.8,0.3,1.4,0.5c0.5,0.1,1,0.2,1.4,0.4c0.4,0.1,0.8,0.4,1.1,0.7c0.3,0.3,0.4,0.7,0.4,1.3c0,0.7-0.3,1.3-0.8,1.8
				C123.4,279.6,122.6,279.8,121.7,279.8z M125.6,281.5l0.9-3.5h1.4l-1.4,3.5H125.6z M136.4,279.8c-0.7,0-1.2-0.1-1.6-0.3
				c-0.4-0.2-0.8-0.5-1-0.9c-0.2-0.4-0.3-0.8-0.3-1.2c0-0.8,0.3-1.4,0.9-1.9c0.6-0.4,1.5-0.7,2.5-0.7h2.1v-0.1
				c0-0.7-0.2-1.2-0.5-1.6c-0.4-0.4-0.8-0.5-1.5-0.5c-0.5,0-1,0.1-1.4,0.4c-0.4,0.3-0.6,0.6-0.7,1.1h-1.4c0.1-0.6,0.2-1.1,0.6-1.5
				c0.3-0.4,0.8-0.7,1.3-0.9c0.5-0.2,1-0.3,1.6-0.3c1.1,0,1.9,0.3,2.5,0.9c0.6,0.6,0.8,1.4,0.8,2.4v4.9h-1.2l-0.1-1.4
				c-0.2,0.4-0.6,0.8-1,1.2C137.7,279.7,137.1,279.8,136.4,279.8z M136.6,278.7c0.5,0,0.9-0.1,1.3-0.4c0.4-0.3,0.7-0.6,0.8-1
				c0.2-0.4,0.3-0.9,0.3-1.3v0h-2c-0.8,0-1.3,0.1-1.7,0.4c-0.3,0.3-0.5,0.6-0.5,1c0,0.4,0.1,0.8,0.4,1
				C135.6,278.6,136,278.7,136.6,278.7z M142.4,279.6v-7.9h1.2l0.1,1.4c0.3-0.5,0.6-0.9,1.1-1.2c0.5-0.3,1-0.4,1.6-0.4
				c0.9,0,1.7,0.3,2.2,0.9c0.6,0.6,0.8,1.4,0.8,2.6v4.6h-1.3v-4.5c0-1.7-0.7-2.5-2-2.5c-0.7,0-1.3,0.2-1.7,0.8
				c-0.4,0.5-0.7,1.2-0.7,2.1v4.1H142.4z M155.1,279.8c-0.8,0-1.5-0.2-2.1-0.5c-0.6-0.4-1-0.9-1.4-1.5c-0.3-0.6-0.5-1.3-0.5-2.1
				s0.2-1.5,0.5-2.1c0.3-0.6,0.8-1.1,1.4-1.5c0.6-0.4,1.3-0.5,2.1-0.5c0.7,0,1.2,0.1,1.7,0.4c0.5,0.3,0.9,0.6,1.2,1.1v-4.9h1.3v11.5
				h-1.2l-0.1-1.3c-0.3,0.4-0.6,0.7-1.1,1C156.5,279.7,155.9,279.8,155.1,279.8z M155.3,278.6c0.5,0,1-0.1,1.4-0.4
				c0.4-0.3,0.7-0.6,1-1.1c0.2-0.4,0.4-1,0.4-1.6c0-0.6-0.1-1.1-0.4-1.6c-0.2-0.4-0.5-0.8-1-1c-0.4-0.3-0.9-0.4-1.4-0.4
				c-0.5,0-1,0.1-1.4,0.4c-0.4,0.2-0.7,0.6-1,1c-0.2,0.4-0.3,1-0.3,1.6c0,0.6,0.1,1.1,0.3,1.6c0.2,0.4,0.6,0.8,1,1.1
				C154.3,278.5,154.7,278.6,155.3,278.6z M169.4,279.8c-0.8,0-1.4-0.2-2-0.5c-0.6-0.4-1.1-0.8-1.4-1.5c-0.3-0.6-0.5-1.4-0.5-2.2
				c0-0.8,0.2-1.6,0.5-2.2c0.3-0.6,0.8-1.1,1.4-1.5c0.6-0.4,1.3-0.5,2.1-0.5c0.8,0,1.4,0.2,2,0.5c0.6,0.3,1,0.8,1.3,1.4
				c0.3,0.6,0.4,1.2,0.4,1.8c0,0.1,0,0.2,0,0.4c0,0.1,0,0.2,0,0.4h-6.3c0,0.6,0.2,1.1,0.4,1.5c0.3,0.4,0.6,0.7,0.9,0.9
				c0.4,0.2,0.8,0.3,1.2,0.3c0.6,0,1-0.1,1.4-0.4c0.4-0.3,0.6-0.6,0.8-1h1.3c-0.2,0.7-0.6,1.3-1.2,1.8
				C171.1,279.6,170.3,279.8,169.4,279.8z M169.4,272.6c-0.6,0-1.2,0.2-1.7,0.6c-0.5,0.4-0.8,0.9-0.8,1.7h5c0-0.7-0.3-1.3-0.7-1.7
				C170.6,272.8,170,272.6,169.4,272.6z M177.6,279.8c-0.7,0-1.2-0.1-1.6-0.3c-0.4-0.2-0.8-0.5-1-0.9c-0.2-0.4-0.3-0.8-0.3-1.2
				c0-0.8,0.3-1.4,0.9-1.9c0.6-0.4,1.5-0.7,2.5-0.7h2.1v-0.1c0-0.7-0.2-1.2-0.5-1.6c-0.4-0.4-0.8-0.5-1.5-0.5c-0.5,0-1,0.1-1.4,0.4
				c-0.4,0.3-0.6,0.6-0.7,1.1h-1.4c0.1-0.6,0.2-1.1,0.6-1.5c0.3-0.4,0.8-0.7,1.3-0.9c0.5-0.2,1-0.3,1.6-0.3c1.1,0,1.9,0.3,2.5,0.9
				c0.6,0.6,0.8,1.4,0.8,2.4v4.9h-1.2l-0.1-1.4c-0.2,0.4-0.6,0.8-1,1.2C178.9,279.7,178.3,279.8,177.6,279.8z M177.8,278.7
				c0.5,0,0.9-0.1,1.3-0.4c0.4-0.3,0.7-0.6,0.8-1c0.2-0.4,0.3-0.9,0.3-1.3v0h-2c-0.8,0-1.4,0.1-1.7,0.4c-0.3,0.3-0.5,0.6-0.5,1
				c0,0.4,0.1,0.8,0.4,1C176.8,278.6,177.2,278.7,177.8,278.7z M186.5,279.6c-0.7,0-1.3-0.2-1.7-0.5s-0.6-1-0.6-1.9v-4.4h-1.4v-1.1
				h1.4l0.2-1.9h1.2v1.9h2.3v1.1h-2.3v4.4c0,0.5,0.1,0.8,0.3,1c0.2,0.2,0.6,0.3,1.1,0.3h0.8v1.2H186.5z M190.4,269.9
				c-0.3,0-0.5-0.1-0.7-0.3c-0.2-0.2-0.3-0.4-0.3-0.7c0-0.3,0.1-0.5,0.3-0.6c0.2-0.2,0.4-0.3,0.7-0.3c0.3,0,0.5,0.1,0.7,0.3
				c0.2,0.2,0.3,0.4,0.3,0.6c0,0.3-0.1,0.5-0.3,0.7C190.8,269.8,190.6,269.9,190.4,269.9z M189.7,279.6v-7.9h1.3v7.9H189.7z
				 M193.4,279.6v-7.9h1.2l0.1,1.4c0.3-0.5,0.6-0.9,1.1-1.2c0.5-0.3,1-0.4,1.6-0.4c0.9,0,1.7,0.3,2.2,0.9c0.6,0.6,0.8,1.4,0.8,2.6
				v4.6h-1.3v-4.5c0-1.7-0.7-2.5-2-2.5c-0.7,0-1.3,0.2-1.7,0.8c-0.4,0.5-0.7,1.2-0.7,2.1v4.1H193.4z M205.7,277.1
				c-0.4,0-0.9-0.1-1.2-0.2l-0.8,0.8c0.1,0.1,0.3,0.2,0.4,0.2c0.2,0.1,0.4,0.1,0.8,0.2c0.3,0,0.8,0.1,1.4,0.1
				c1.1,0.1,1.8,0.3,2.3,0.7c0.5,0.4,0.7,1,0.7,1.6c0,0.5-0.1,0.9-0.4,1.3c-0.2,0.4-0.6,0.8-1.2,1c-0.5,0.3-1.2,0.4-2,0.4
				c-0.7,0-1.3-0.1-1.9-0.3c-0.6-0.2-1-0.5-1.3-0.8c-0.3-0.4-0.5-0.8-0.5-1.4c0-0.3,0.1-0.6,0.2-1c0.2-0.3,0.5-0.7,0.9-1
				c-0.2-0.1-0.4-0.2-0.6-0.3c-0.2-0.1-0.3-0.2-0.4-0.4v-0.4l1.4-1.3c-0.6-0.5-0.9-1.2-0.9-2.1c0-0.5,0.1-1,0.4-1.4
				c0.2-0.4,0.6-0.8,1.1-1c0.5-0.3,1-0.4,1.7-0.4c0.5,0,0.9,0.1,1.2,0.2h2.9v1l-1.5,0.1c0.3,0.4,0.5,1,0.5,1.6c0,0.5-0.1,1-0.4,1.4
				c-0.2,0.4-0.6,0.8-1.1,1C206.9,277,206.3,277.1,205.7,277.1z M205.7,276c0.6,0,1-0.1,1.3-0.4c0.3-0.3,0.5-0.7,0.5-1.3
				c0-0.5-0.2-1-0.5-1.2c-0.3-0.3-0.8-0.4-1.3-0.4c-0.6,0-1,0.1-1.4,0.4c-0.3,0.3-0.5,0.7-0.5,1.2c0,0.6,0.2,1,0.5,1.3
				C204.6,275.9,205.1,276,205.7,276z M203.3,280.6c0,0.5,0.2,0.9,0.7,1.2c0.4,0.3,1,0.4,1.7,0.4c0.7,0,1.2-0.1,1.6-0.4
				c0.4-0.3,0.6-0.7,0.6-1.2c0-0.3-0.1-0.6-0.4-0.9c-0.3-0.2-0.8-0.4-1.5-0.4c-0.6,0-1.1-0.1-1.5-0.2c-0.4,0.2-0.7,0.5-0.9,0.8
				C203.4,280.2,203.3,280.4,203.3,280.6z M218.2,279.8c-0.7,0-1.2-0.1-1.6-0.3c-0.4-0.2-0.8-0.5-1-0.9c-0.2-0.4-0.3-0.8-0.3-1.2
				c0-0.8,0.3-1.4,0.9-1.9c0.6-0.4,1.5-0.7,2.5-0.7h2.1v-0.1c0-0.7-0.2-1.2-0.5-1.6c-0.4-0.4-0.8-0.5-1.5-0.5c-0.5,0-1,0.1-1.4,0.4
				c-0.4,0.3-0.6,0.6-0.7,1.1h-1.4c0.1-0.6,0.2-1.1,0.6-1.5c0.3-0.4,0.8-0.7,1.3-0.9c0.5-0.2,1-0.3,1.6-0.3c1.1,0,1.9,0.3,2.5,0.9
				c0.6,0.6,0.8,1.4,0.8,2.4v4.9H221l-0.1-1.4c-0.2,0.4-0.6,0.8-1,1.2C219.5,279.7,219,279.8,218.2,279.8z M218.4,278.7
				c0.5,0,0.9-0.1,1.3-0.4c0.4-0.3,0.7-0.6,0.8-1c0.2-0.4,0.3-0.9,0.3-1.3v0h-2c-0.8,0-1.3,0.1-1.7,0.4c-0.3,0.3-0.5,0.6-0.5,1
				c0,0.4,0.1,0.8,0.4,1C217.5,278.6,217.9,278.7,218.4,278.7z M224.2,279.6v-7.9h1.2l0.1,1.4c0.3-0.5,0.6-0.9,1.1-1.2
				c0.5-0.3,1-0.4,1.6-0.4c0.9,0,1.7,0.3,2.2,0.9c0.6,0.6,0.8,1.4,0.8,2.6v4.6H230v-4.5c0-1.7-0.7-2.5-2-2.5c-0.7,0-1.3,0.2-1.7,0.8
				c-0.4,0.5-0.7,1.2-0.7,2.1v4.1H224.2z M237,279.8c-0.8,0-1.5-0.2-2.1-0.5c-0.6-0.4-1-0.9-1.4-1.5c-0.3-0.6-0.5-1.3-0.5-2.1
				s0.2-1.5,0.5-2.1c0.3-0.6,0.8-1.1,1.4-1.5c0.6-0.4,1.3-0.5,2.1-0.5c0.7,0,1.2,0.1,1.7,0.4c0.5,0.3,0.9,0.6,1.2,1.1v-4.9h1.3v11.5
				H240l-0.1-1.3c-0.3,0.4-0.6,0.7-1.1,1C238.3,279.7,237.7,279.8,237,279.8z M237.1,278.6c0.5,0,1-0.1,1.4-0.4
				c0.4-0.3,0.7-0.6,1-1.1c0.2-0.4,0.4-1,0.4-1.6c0-0.6-0.1-1.1-0.4-1.6c-0.2-0.4-0.5-0.8-1-1c-0.4-0.3-0.9-0.4-1.4-0.4
				c-0.5,0-1,0.1-1.4,0.4c-0.4,0.2-0.7,0.6-1,1c-0.2,0.4-0.3,1-0.3,1.6c0,0.6,0.1,1.1,0.3,1.6c0.2,0.4,0.6,0.8,1,1.1
				C236.2,278.5,236.6,278.6,237.1,278.6z M251.3,279.8c-0.8,0-1.4-0.2-2-0.5c-0.6-0.4-1.1-0.8-1.4-1.5c-0.3-0.6-0.5-1.4-0.5-2.2
				c0-0.8,0.2-1.6,0.5-2.2c0.3-0.6,0.8-1.1,1.4-1.5c0.6-0.4,1.3-0.5,2.1-0.5c0.8,0,1.4,0.2,2,0.5c0.6,0.3,1,0.8,1.3,1.4
				c0.3,0.6,0.4,1.2,0.4,1.8c0,0.1,0,0.2,0,0.4c0,0.1,0,0.2,0,0.4h-6.3c0,0.6,0.2,1.1,0.4,1.5c0.3,0.4,0.6,0.7,0.9,0.9
				c0.4,0.2,0.8,0.3,1.2,0.3c0.6,0,1-0.1,1.4-0.4c0.4-0.3,0.6-0.6,0.8-1h1.3c-0.2,0.7-0.6,1.3-1.2,1.8
				C253,279.6,252.2,279.8,251.3,279.8z M251.3,272.6c-0.6,0-1.2,0.2-1.7,0.6c-0.5,0.4-0.8,0.9-0.8,1.7h5c0-0.7-0.3-1.3-0.7-1.7
				C252.5,272.8,251.9,272.6,251.3,272.6z M255.6,279.6l2.8-4l-2.8-4h1.5l2.2,3.3l2.2-3.3h1.4l-2.8,4l2.8,4h-1.4l-2.2-3.3l-2.2,3.3
				H255.6z M267.6,279.8c-0.8,0-1.4-0.2-2-0.5c-0.6-0.4-1.1-0.8-1.4-1.5c-0.3-0.6-0.5-1.4-0.5-2.2c0-0.8,0.2-1.6,0.5-2.2
				c0.3-0.6,0.8-1.1,1.4-1.5c0.6-0.4,1.3-0.5,2.1-0.5c0.8,0,1.4,0.2,2,0.5c0.6,0.3,1,0.8,1.3,1.4c0.3,0.6,0.4,1.2,0.4,1.8
				c0,0.1,0,0.2,0,0.4c0,0.1,0,0.2,0,0.4H265c0,0.6,0.2,1.1,0.4,1.5c0.3,0.4,0.6,0.7,0.9,0.9c0.4,0.2,0.8,0.3,1.2,0.3
				c0.6,0,1-0.1,1.4-0.4c0.4-0.3,0.6-0.6,0.8-1h1.3c-0.2,0.7-0.6,1.3-1.2,1.8C269.3,279.6,268.5,279.8,267.6,279.8z M267.6,272.6
				c-0.6,0-1.2,0.2-1.7,0.6c-0.5,0.4-0.8,0.9-0.8,1.7h5c0-0.7-0.3-1.3-0.7-1.7C268.8,272.8,268.3,272.6,267.6,272.6z M273.2,279.6
				v-7.9h1.2l0.1,1.5c0.2-0.5,0.6-0.9,1.1-1.2c0.5-0.3,1.1-0.5,1.9-0.5v1.4h-0.4c-0.5,0-0.9,0.1-1.3,0.3c-0.4,0.2-0.7,0.4-0.9,0.8
				c-0.2,0.4-0.4,0.9-0.4,1.6v4H273.2z M282.3,279.8c-0.8,0-1.4-0.2-2-0.5c-0.6-0.4-1.1-0.8-1.4-1.5c-0.3-0.6-0.5-1.4-0.5-2.2
				c0-0.8,0.2-1.6,0.5-2.2c0.4-0.6,0.8-1.1,1.4-1.5c0.6-0.4,1.3-0.5,2-0.5c0.9,0,1.7,0.2,2.4,0.7c0.6,0.5,1.1,1.1,1.2,2h-1.4
				c-0.1-0.5-0.4-0.9-0.8-1.1c-0.4-0.3-0.9-0.4-1.5-0.4c-0.4,0-0.9,0.1-1.3,0.3c-0.4,0.2-0.7,0.6-1,1c-0.2,0.4-0.4,1-0.4,1.7
				c0,0.7,0.1,1.2,0.4,1.7c0.2,0.4,0.6,0.8,1,1c0.4,0.2,0.8,0.3,1.3,0.3c0.6,0,1-0.1,1.5-0.4c0.4-0.3,0.7-0.7,0.8-1.2h1.4
				c-0.2,0.8-0.6,1.5-1.2,2C284,279.6,283.3,279.8,282.3,279.8z M288.6,269.9c-0.3,0-0.5-0.1-0.7-0.3c-0.2-0.2-0.3-0.4-0.3-0.7
				c0-0.3,0.1-0.5,0.3-0.6c0.2-0.2,0.4-0.3,0.7-0.3c0.3,0,0.5,0.1,0.7,0.3c0.2,0.2,0.3,0.4,0.3,0.6c0,0.3-0.1,0.5-0.3,0.7
				C289.1,269.8,288.9,269.9,288.6,269.9z M287.9,279.6v-7.9h1.3v7.9H287.9z M294.7,279.8c-1,0-1.7-0.2-2.4-0.7
				c-0.6-0.5-1-1.1-1.1-2h1.4c0.1,0.4,0.3,0.8,0.7,1.1c0.4,0.3,0.8,0.4,1.5,0.4c0.6,0,1-0.1,1.2-0.4c0.3-0.2,0.4-0.5,0.4-0.9
				c0-0.5-0.2-0.8-0.5-1c-0.3-0.2-0.8-0.3-1.5-0.4c-0.4-0.1-0.9-0.2-1.3-0.4c-0.4-0.2-0.8-0.4-1.1-0.7c-0.3-0.3-0.4-0.7-0.4-1.2
				c0-0.7,0.3-1.3,0.8-1.7c0.5-0.4,1.2-0.7,2.1-0.7c0.8,0,1.5,0.2,2.1,0.6c0.5,0.4,0.9,1,0.9,1.8h-1.3c-0.1-0.4-0.2-0.7-0.5-0.9
				c-0.3-0.2-0.7-0.4-1.2-0.4c-0.5,0-0.9,0.1-1.1,0.3c-0.3,0.2-0.4,0.5-0.4,0.8c0,0.3,0.2,0.6,0.5,0.8c0.3,0.2,0.8,0.3,1.4,0.5
				c0.5,0.1,1,0.2,1.4,0.4c0.4,0.1,0.8,0.4,1.1,0.7c0.3,0.3,0.4,0.7,0.4,1.3c0,0.7-0.3,1.3-0.8,1.8
				C296.3,279.6,295.6,279.8,294.7,279.8z M303.2,279.8c-0.8,0-1.4-0.2-2-0.5c-0.6-0.4-1.1-0.8-1.4-1.5c-0.3-0.6-0.5-1.4-0.5-2.2
				c0-0.8,0.2-1.6,0.5-2.2c0.3-0.6,0.8-1.1,1.4-1.5c0.6-0.4,1.3-0.5,2.1-0.5c0.8,0,1.4,0.2,2,0.5c0.6,0.3,1,0.8,1.3,1.4
				c0.3,0.6,0.4,1.2,0.4,1.8c0,0.1,0,0.2,0,0.4c0,0.1,0,0.2,0,0.4h-6.3c0,0.6,0.2,1.1,0.4,1.5c0.3,0.4,0.6,0.7,0.9,0.9
				c0.4,0.2,0.8,0.3,1.2,0.3c0.6,0,1-0.1,1.4-0.4c0.4-0.3,0.6-0.6,0.8-1h1.3c-0.2,0.7-0.6,1.3-1.2,1.8
				C304.9,279.6,304.1,279.8,303.2,279.8z M303.2,272.6c-0.6,0-1.2,0.2-1.7,0.6c-0.5,0.4-0.8,0.9-0.8,1.7h5c0-0.7-0.3-1.3-0.7-1.7
				C304.4,272.8,303.9,272.6,303.2,272.6z M30.2,303.6c-0.7,0-1.3-0.2-1.7-0.5s-0.6-1-0.6-1.9v-4.4h-1.4v-1.1h1.4l0.2-1.9h1.2v1.9
				h2.3v1.1h-2.3v4.4c0,0.5,0.1,0.8,0.3,1c0.2,0.2,0.6,0.3,1.1,0.3h0.8v1.2H30.2z M36.7,303.8c-0.7,0-1.4-0.2-2-0.5
				c-0.6-0.3-1.1-0.8-1.4-1.4c-0.3-0.6-0.5-1.4-0.5-2.2c0-0.8,0.2-1.6,0.5-2.2c0.4-0.6,0.8-1.1,1.4-1.5c0.6-0.3,1.3-0.5,2-0.5
				c0.7,0,1.4,0.2,2,0.5c0.6,0.3,1.1,0.8,1.4,1.5c0.4,0.6,0.5,1.3,0.5,2.2c0,0.8-0.2,1.6-0.5,2.2c-0.4,0.6-0.8,1.1-1.4,1.4
				C38.1,303.6,37.4,303.8,36.7,303.8z M36.7,302.7c0.5,0,0.9-0.1,1.3-0.3c0.4-0.2,0.7-0.6,1-1c0.2-0.4,0.4-1,0.4-1.7
				c0-0.7-0.1-1.2-0.4-1.7c-0.2-0.4-0.5-0.8-0.9-1c-0.4-0.2-0.8-0.3-1.3-0.3c-0.5,0-0.9,0.1-1.3,0.3c-0.4,0.2-0.7,0.6-1,1
				c-0.2,0.4-0.4,1-0.4,1.7c0,0.7,0.1,1.2,0.4,1.7c0.2,0.4,0.6,0.8,0.9,1C35.8,302.5,36.2,302.7,36.7,302.7z M47.6,293.9
				c-0.3,0-0.5-0.1-0.7-0.3c-0.2-0.2-0.3-0.4-0.3-0.7c0-0.3,0.1-0.5,0.3-0.6c0.2-0.2,0.4-0.3,0.7-0.3c0.3,0,0.5,0.1,0.7,0.3
				c0.2,0.2,0.3,0.4,0.3,0.6c0,0.3-0.1,0.5-0.3,0.7C48.1,293.8,47.8,293.9,47.6,293.9z M46.9,303.6v-7.9h1.3v7.9H46.9z M50.6,303.6
				v-7.9h1.2l0.1,1.2c0.3-0.4,0.6-0.8,1-1c0.4-0.2,0.9-0.4,1.4-0.4c0.6,0,1.2,0.1,1.6,0.4c0.5,0.3,0.8,0.6,1.1,1.2
				c0.3-0.5,0.7-0.9,1.1-1.1c0.5-0.3,1-0.4,1.6-0.4c0.9,0,1.7,0.3,2.3,0.9c0.6,0.6,0.8,1.4,0.8,2.6v4.6h-1.3v-4.5
				c0-0.8-0.2-1.4-0.5-1.9c-0.3-0.4-0.8-0.6-1.4-0.6c-0.6,0-1.2,0.2-1.6,0.8c-0.4,0.5-0.6,1.2-0.6,2.1v4.1h-1.3v-4.5
				c0-0.8-0.2-1.4-0.5-1.9c-0.3-0.4-0.8-0.6-1.4-0.6c-0.6,0-1.2,0.2-1.6,0.8c-0.4,0.5-0.6,1.2-0.6,2.1v4.1H50.6z M64.9,307.1v-11.5
				h1.2l0.1,1.3c0.3-0.4,0.6-0.7,1.1-1c0.5-0.3,1.1-0.5,1.8-0.5c0.8,0,1.5,0.2,2.1,0.5c0.6,0.4,1,0.9,1.4,1.5
				c0.3,0.6,0.5,1.3,0.5,2.1s-0.2,1.5-0.5,2.1c-0.3,0.6-0.8,1.1-1.4,1.5c-0.6,0.4-1.3,0.5-2.1,0.5c-0.7,0-1.2-0.1-1.7-0.4
				c-0.5-0.3-0.9-0.6-1.2-1.1v4.8H64.9z M69,302.6c0.5,0,1-0.1,1.4-0.4c0.4-0.3,0.7-0.6,1-1.1c0.2-0.4,0.4-1,0.4-1.6
				c0-0.6-0.1-1.1-0.4-1.6c-0.2-0.4-0.6-0.8-1-1c-0.4-0.3-0.9-0.4-1.4-0.4c-0.5,0-1,0.1-1.4,0.4c-0.4,0.2-0.7,0.6-1,1
				s-0.4,1-0.4,1.6c0,0.6,0.1,1.1,0.4,1.6s0.6,0.8,1,1.1C68,302.5,68.5,302.6,69,302.6z M75,303.6v-7.9h1.2l0.1,1.5
				c0.2-0.5,0.6-0.9,1.1-1.2c0.5-0.3,1.1-0.5,1.9-0.5v1.4h-0.4c-0.5,0-0.9,0.1-1.3,0.3c-0.4,0.2-0.7,0.4-0.9,0.8
				c-0.2,0.4-0.4,0.9-0.4,1.6v4H75z M84.1,303.8c-0.7,0-1.4-0.2-2-0.5c-0.6-0.3-1.1-0.8-1.4-1.4c-0.3-0.6-0.5-1.4-0.5-2.2
				c0-0.8,0.2-1.6,0.5-2.2c0.4-0.6,0.8-1.1,1.4-1.5c0.6-0.3,1.3-0.5,2-0.5s1.4,0.2,2,0.5c0.6,0.3,1.1,0.8,1.4,1.5
				c0.4,0.6,0.5,1.3,0.5,2.2c0,0.8-0.2,1.6-0.5,2.2c-0.4,0.6-0.8,1.1-1.4,1.4C85.5,303.6,84.8,303.8,84.1,303.8z M84.1,302.7
				c0.5,0,0.9-0.1,1.3-0.3s0.7-0.6,1-1s0.4-1,0.4-1.7c0-0.7-0.1-1.2-0.4-1.7c-0.2-0.4-0.5-0.8-0.9-1c-0.4-0.2-0.8-0.3-1.3-0.3
				c-0.5,0-0.9,0.1-1.3,0.3s-0.7,0.6-1,1c-0.2,0.4-0.4,1-0.4,1.7c0,0.7,0.1,1.2,0.4,1.7c0.2,0.4,0.6,0.8,0.9,1
				C83.2,302.5,83.6,302.7,84.1,302.7z M91.8,303.6l-3-7.9h1.4l2.4,6.6l2.4-6.6h1.4l-3,7.9H91.8z M101,303.8c-0.8,0-1.4-0.2-2-0.5
				c-0.6-0.4-1.1-0.8-1.4-1.5c-0.3-0.6-0.5-1.4-0.5-2.2c0-0.8,0.2-1.6,0.5-2.2c0.3-0.6,0.8-1.1,1.4-1.5c0.6-0.4,1.3-0.5,2.1-0.5
				c0.8,0,1.4,0.2,2,0.5c0.6,0.3,1,0.8,1.3,1.4c0.3,0.6,0.4,1.2,0.4,1.8c0,0.1,0,0.2,0,0.4c0,0.1,0,0.2,0,0.4h-6.3
				c0,0.6,0.2,1.1,0.4,1.5c0.3,0.4,0.6,0.7,0.9,0.9c0.4,0.2,0.8,0.3,1.2,0.3c0.6,0,1-0.1,1.4-0.4c0.4-0.3,0.6-0.6,0.8-1h1.3
				c-0.2,0.7-0.6,1.3-1.2,1.8C102.8,303.6,102,303.8,101,303.8z M101,296.6c-0.6,0-1.2,0.2-1.7,0.6c-0.5,0.4-0.8,0.9-0.8,1.7h5
				c0-0.7-0.3-1.3-0.7-1.7C102.3,296.8,101.7,296.6,101,296.6z M113.9,303.8c-1,0-1.7-0.2-2.4-0.7c-0.6-0.5-1-1.1-1.1-2h1.4
				c0.1,0.4,0.3,0.8,0.7,1.1c0.4,0.3,0.8,0.4,1.5,0.4c0.6,0,1-0.1,1.2-0.4c0.3-0.2,0.4-0.5,0.4-0.9c0-0.5-0.2-0.8-0.5-1
				c-0.3-0.2-0.8-0.3-1.5-0.4c-0.4-0.1-0.9-0.2-1.3-0.4c-0.4-0.2-0.8-0.4-1.1-0.7c-0.3-0.3-0.4-0.7-0.4-1.2c0-0.7,0.3-1.3,0.8-1.7
				c0.5-0.4,1.2-0.7,2.1-0.7c0.8,0,1.5,0.2,2.1,0.6c0.5,0.4,0.9,1,0.9,1.8h-1.3c-0.1-0.4-0.2-0.7-0.5-0.9c-0.3-0.2-0.7-0.4-1.2-0.4
				c-0.5,0-0.9,0.1-1.1,0.3c-0.3,0.2-0.4,0.5-0.4,0.8c0,0.3,0.2,0.6,0.5,0.8c0.3,0.2,0.8,0.3,1.4,0.5c0.5,0.1,1,0.2,1.4,0.4
				c0.4,0.1,0.8,0.4,1.1,0.7c0.3,0.3,0.4,0.7,0.4,1.3c0,0.7-0.3,1.3-0.8,1.8C115.5,303.6,114.8,303.8,113.9,303.8z M118.8,303.6
				v-11.5h1.3v11.5H118.8z M125.9,303.8c-0.8,0-1.4-0.2-2-0.5c-0.6-0.4-1.1-0.8-1.4-1.5c-0.3-0.6-0.5-1.4-0.5-2.2
				c0-0.8,0.2-1.6,0.5-2.2c0.3-0.6,0.8-1.1,1.4-1.5c0.6-0.4,1.3-0.5,2.1-0.5c0.8,0,1.4,0.2,2,0.5c0.6,0.3,1,0.8,1.3,1.4
				c0.3,0.6,0.4,1.2,0.4,1.8c0,0.1,0,0.2,0,0.4c0,0.1,0,0.2,0,0.4h-6.3c0,0.6,0.2,1.1,0.4,1.5c0.3,0.4,0.6,0.7,0.9,0.9
				c0.4,0.2,0.8,0.3,1.2,0.3c0.6,0,1-0.1,1.4-0.4c0.4-0.3,0.6-0.6,0.8-1h1.3c-0.2,0.7-0.6,1.3-1.2,1.8
				C127.6,303.6,126.9,303.8,125.9,303.8z M125.9,296.6c-0.6,0-1.2,0.2-1.7,0.6c-0.5,0.4-0.8,0.9-0.8,1.7h5c0-0.7-0.3-1.3-0.7-1.7
				C127.2,296.8,126.6,296.6,125.9,296.6z M135,303.8c-0.8,0-1.4-0.2-2-0.5c-0.6-0.4-1.1-0.8-1.4-1.5c-0.3-0.6-0.5-1.4-0.5-2.2
				c0-0.8,0.2-1.6,0.5-2.2c0.3-0.6,0.8-1.1,1.4-1.5c0.6-0.4,1.3-0.5,2.1-0.5c0.8,0,1.4,0.2,2,0.5c0.6,0.3,1,0.8,1.3,1.4
				c0.3,0.6,0.4,1.2,0.4,1.8c0,0.1,0,0.2,0,0.4c0,0.1,0,0.2,0,0.4h-6.3c0,0.6,0.2,1.1,0.4,1.5c0.3,0.4,0.6,0.7,0.9,0.9
				c0.4,0.2,0.8,0.3,1.2,0.3c0.6,0,1-0.1,1.4-0.4c0.4-0.3,0.6-0.6,0.8-1h1.3c-0.2,0.7-0.6,1.3-1.2,1.8
				C136.8,303.6,136,303.8,135,303.8z M135,296.6c-0.6,0-1.2,0.2-1.7,0.6c-0.5,0.4-0.8,0.9-0.8,1.7h5c0-0.7-0.3-1.3-0.7-1.7
				C136.3,296.8,135.7,296.6,135,296.6z M140.6,307.1v-11.5h1.2l0.1,1.3c0.3-0.4,0.6-0.7,1.1-1c0.5-0.3,1.1-0.5,1.8-0.5
				c0.8,0,1.5,0.2,2.1,0.5c0.6,0.4,1,0.9,1.4,1.5c0.3,0.6,0.5,1.3,0.5,2.1s-0.2,1.5-0.5,2.1c-0.3,0.6-0.8,1.1-1.4,1.5
				c-0.6,0.4-1.3,0.5-2.1,0.5c-0.7,0-1.2-0.1-1.7-0.4c-0.5-0.3-0.9-0.6-1.2-1.1v4.8H140.6z M144.7,302.6c0.5,0,1-0.1,1.4-0.4
				c0.4-0.3,0.7-0.6,1-1.1c0.2-0.4,0.4-1,0.4-1.6c0-0.6-0.1-1.1-0.4-1.6c-0.2-0.4-0.6-0.8-1-1c-0.4-0.3-0.9-0.4-1.4-0.4
				c-0.5,0-1,0.1-1.4,0.4c-0.4,0.2-0.7,0.6-1,1c-0.2,0.4-0.4,1-0.4,1.6c0,0.6,0.1,1.1,0.4,1.6c0.2,0.4,0.6,0.8,1,1.1
				C143.7,302.5,144.2,302.6,144.7,302.6z M151.1,303.7c-0.3,0-0.5-0.1-0.7-0.3c-0.2-0.2-0.3-0.4-0.3-0.7s0.1-0.5,0.3-0.6
				c0.2-0.2,0.4-0.3,0.7-0.3c0.3,0,0.5,0.1,0.6,0.3c0.2,0.2,0.3,0.4,0.3,0.6s-0.1,0.5-0.3,0.7C151.6,303.6,151.4,303.7,151.1,303.7z
				"/>
			<path class="st2" d="M169.5,101.9c29.5,0,53.5-4,53.5-9c0-5-24-9-53.5-9s-53.5,4-53.5,9C116,97.9,140,101.9,169.5,101.9z"/>
			<path class="st3" d="M154,49.4c0,0-12,4.9-8.8-14.2c3.1-19.1,4.6-29.2-0.1-35.2c0,0,16.3,6.8,6.6,29.4
				C142.1,52,154,49.4,154,49.4z"/>
			<path class="st3" d="M171.3,49.4c0,0-12,4.9-8.8-14.2c3.1-19.1,4.6-29.2-0.1-35.2c0,0,16.3,6.8,6.6,29.4
				C159.4,52,171.3,49.4,171.3,49.4z"/>
			<path class="st3" d="M187.4,49.4c0,0-12,4.9-8.8-14.2c3.2-19.1,4.6-29.2-0.1-35.2c0,0,16.3,6.8,6.6,29.4
				C175.5,52,187.4,49.4,187.4,49.4z"/>
			<path class="st4" d="M205.2,75.1h-23.7v-4h23.7c2.6,0,4.8-1.7,4.8-3.6V62c0-2-2.2-3.6-4.8-3.6h-9.9v-4h9.9c4.9,0,8.9,3.4,8.9,7.7
				v5.4C214,71.7,210,75.1,205.2,75.1z"/>
			<path class="st5" d="M130.2,46.4c-1.9,0-3.4,1.7-3.2,3.6c1.7,21.4,18.3,38.2,38.6,38.2s36.9-16.8,38.6-38.2
				c0.2-1.9-1.3-3.6-3.2-3.6H130.2z"/>
		</g>
	</g>
</g>
</svg>
