<?xml version="1.0" encoding="utf-8"?>
<!-- Generator: Adobe Illustrator 25.1.0, SVG Export Plug-In . SVG Version: 6.00 Build 0)  -->
<svg version="1.1" id="Layer_1" xmlns="http://www.w3.org/2000/svg" xmlns:xlink="http://www.w3.org/1999/xlink" x="0px" y="0px"
	 viewBox="0 0 337.3 242.1" style="enable-background:new 0 0 337.3 242.1;" xml:space="preserve">
<style type="text/css">
	.st0{fill:#FFFFFF;}
	.st1{fill:#808080;}
	.st2{fill:#00CDDC;}
	.st3{fill:#DADADA;}
	.st4{fill:#D64204;}
	.st5{fill:#040404;}
</style>
<g>
	<g>
		<path class="st0" d="M335.9,150.6c1.8-51.7,5.9-138-19.7-144C276.6-2.8,120,1.4,85.4,0.1c-16.5-0.6-67.7,0-76.7,28.7
			C-4.5,71.1,1.6,96.6,0.4,145.5c-1.1,48-0.8,93.7,38.8,95.5c73.2,3.3,187.2-2.2,256.7-0.8C338.1,241.1,333.1,230.4,335.9,150.6z"/>
		<path class="st1" d="M27.6,55.6V45.5h-3.3v-1.1h8v1.1H29v10.1H27.6L27.6,55.6z"/>
		<path class="st1" d="M33.9,55.6V44.1h1.3V49c0.3-0.5,0.7-0.9,1.1-1.1c0.5-0.3,1-0.4,1.6-0.4c0.9,0,1.7,0.3,2.2,0.9
			c0.5,0.6,0.8,1.4,0.8,2.6v4.6h-1.3v-4.5c0-1.6-0.7-2.5-2-2.5c-0.7,0-1.3,0.2-1.7,0.7c-0.5,0.5-0.7,1.2-0.7,2.1v4.1L33.9,55.6
			L33.9,55.6z"/>
		<path class="st1" d="M46.6,55.8c-0.8,0-1.4-0.2-2-0.5s-1-0.8-1.4-1.4c-0.3-0.6-0.5-1.3-0.5-2.2c0-0.8,0.2-1.6,0.5-2.2
			c0.3-0.6,0.8-1.1,1.4-1.5c0.6-0.3,1.3-0.5,2.1-0.5s1.4,0.2,2,0.5c0.6,0.4,1,0.8,1.3,1.4c0.3,0.6,0.5,1.2,0.5,1.8
			c0,0.1,0,0.2,0,0.4c0,0.1,0,0.2,0,0.4h-6.3c0,0.6,0.2,1.1,0.4,1.5s0.6,0.7,0.9,0.9c0.4,0.2,0.8,0.3,1.2,0.3c0.6,0,1-0.1,1.4-0.4
			c0.4-0.3,0.7-0.6,0.8-1h1.3C50,54,49.6,54.6,49,55.1C48.3,55.5,47.5,55.8,46.6,55.8z M46.6,48.6c-0.6,0-1.2,0.2-1.7,0.6
			c-0.5,0.4-0.8,1-0.9,1.7h5c0-0.7-0.3-1.3-0.7-1.7C47.8,48.8,47.3,48.6,46.6,48.6z"/>
		<path class="st1" d="M60.6,55.8c-0.7,0-1.2-0.1-1.7-0.4c-0.5-0.3-0.9-0.6-1.2-1.1l-0.1,1.3h-1.2V44.1h1.3V49
			c0.3-0.4,0.6-0.7,1.1-1s1.1-0.5,1.8-0.5c0.8,0,1.5,0.2,2.1,0.5c0.6,0.4,1,0.9,1.4,1.5c0.3,0.6,0.5,1.3,0.5,2.1s-0.2,1.5-0.5,2.1
			c-0.3,0.6-0.8,1.1-1.4,1.5C62.1,55.6,61.4,55.8,60.6,55.8z M60.5,54.6c0.5,0,1-0.1,1.4-0.4c0.4-0.2,0.7-0.6,1-1.1
			c0.2-0.4,0.3-1,0.3-1.6s-0.1-1.1-0.3-1.6c-0.2-0.4-0.6-0.8-1-1.1c-0.4-0.2-0.9-0.4-1.4-0.4s-1,0.1-1.4,0.4c-0.4,0.2-0.7,0.6-1,1.1
			c-0.2,0.4-0.3,1-0.3,1.6s0.1,1.1,0.3,1.6c0.2,0.4,0.6,0.8,1,1.1C59.5,54.5,59.9,54.6,60.5,54.6z"/>
		<path class="st1" d="M70,55.8c-0.8,0-1.4-0.2-2-0.5s-1.1-0.8-1.4-1.4c-0.3-0.6-0.5-1.4-0.5-2.2s0.2-1.6,0.5-2.2s0.8-1.1,1.4-1.4
			s1.3-0.5,2-0.5c0.8,0,1.4,0.2,2,0.5s1.1,0.8,1.4,1.4s0.5,1.4,0.5,2.2s-0.2,1.6-0.5,2.2c-0.3,0.6-0.8,1.1-1.4,1.4
			C71.5,55.6,70.8,55.8,70,55.8z M70,54.6c0.5,0,0.9-0.1,1.3-0.3s0.7-0.6,1-1s0.4-1,0.4-1.7s-0.1-1.2-0.4-1.7c-0.2-0.4-0.6-0.8-1-1
			s-0.8-0.3-1.3-0.3s-0.9,0.1-1.3,0.3s-0.7,0.6-1,1c-0.2,0.4-0.4,1-0.4,1.7s0.1,1.2,0.4,1.7s0.6,0.8,1,1
			C69.2,54.5,69.6,54.6,70,54.6z"/>
		<path class="st1" d="M79.5,55.8c-0.8,0-1.5-0.2-2.1-0.5c-0.6-0.4-1.1-0.9-1.4-1.5s-0.5-1.3-0.5-2.1s0.2-1.5,0.5-2.1
			s0.8-1.1,1.4-1.5s1.3-0.5,2.1-0.5c0.7,0,1.2,0.1,1.7,0.4s0.9,0.6,1.2,1.1v-4.9h1.3v11.5h-1.2l-0.1-1.3c-0.3,0.4-0.6,0.7-1.1,1
			C80.8,55.6,80.2,55.8,79.5,55.8z M79.6,54.6c0.5,0,1-0.1,1.4-0.4c0.4-0.2,0.7-0.6,1-1.1c0.2-0.4,0.3-1,0.3-1.6s-0.1-1.1-0.3-1.6
			s-0.5-0.8-1-1.1c-0.4-0.2-0.9-0.4-1.4-0.4s-1,0.1-1.4,0.4c-0.4,0.2-0.7,0.6-1,1.1c-0.2,0.4-0.3,1-0.3,1.6s0.1,1.1,0.3,1.6
			c0.2,0.4,0.6,0.8,1,1.1C78.7,54.5,79.1,54.6,79.6,54.6z"/>
		<path class="st1" d="M86.8,59.1l2-4.3h-0.5l-3.2-7.2h1.5l2.6,6.2l2.8-6.2h1.4l-5.2,11.5H86.8z"/>
		<path class="st1" d="M99.1,55.6v-7.9h1.2l0.1,1.4c0.3-0.5,0.6-0.9,1.1-1.2s1-0.4,1.6-0.4c0.9,0,1.7,0.3,2.2,0.9
			c0.6,0.6,0.8,1.4,0.8,2.6v4.6h-1.3v-4.5c0-1.6-0.7-2.5-2.1-2.5c-0.7,0-1.2,0.2-1.7,0.7s-0.7,1.2-0.7,2.1v4.1L99.1,55.6L99.1,55.6z
			"/>
		<path class="st1" d="M111.8,55.8c-0.8,0-1.4-0.2-2-0.5s-1-0.8-1.4-1.4c-0.3-0.6-0.5-1.3-0.5-2.2c0-0.8,0.2-1.6,0.5-2.2
			s0.8-1.1,1.4-1.5c0.6-0.3,1.3-0.5,2.1-0.5c0.8,0,1.4,0.2,2,0.5c0.6,0.4,1,0.8,1.3,1.4c0.3,0.6,0.4,1.2,0.4,1.8c0,0.1,0,0.2,0,0.4
			c0,0.1,0,0.2,0,0.4h-6.3c0,0.6,0.2,1.1,0.4,1.5c0.2,0.4,0.6,0.7,0.9,0.9c0.4,0.2,0.8,0.3,1.2,0.3c0.6,0,1-0.1,1.4-0.4
			c0.4-0.3,0.7-0.6,0.8-1h1.3c-0.2,0.7-0.6,1.3-1.2,1.8C113.5,55.5,112.7,55.8,111.8,55.8z M111.8,48.6c-0.6,0-1.2,0.2-1.7,0.6
			c-0.5,0.4-0.8,1-0.9,1.7h5c0-0.7-0.3-1.3-0.7-1.7C113,48.8,112.5,48.6,111.8,48.6z"/>
		<path class="st1" d="M120.9,55.8c-0.8,0-1.4-0.2-2-0.5s-1.1-0.8-1.4-1.4c-0.3-0.6-0.5-1.3-0.5-2.2c0-0.8,0.2-1.6,0.5-2.2
			c0.3-0.6,0.8-1.1,1.4-1.5c0.6-0.3,1.3-0.5,2.1-0.5c0.8,0,1.4,0.2,2,0.5c0.6,0.4,1,0.8,1.3,1.4c0.3,0.6,0.5,1.2,0.5,1.8
			c0,0.1,0,0.2,0,0.4c0,0.1,0,0.2,0,0.4h-6.3c0,0.6,0.2,1.1,0.4,1.5c0.2,0.4,0.6,0.7,0.9,0.9c0.4,0.2,0.8,0.3,1.2,0.3
			c0.6,0,1-0.1,1.4-0.4c0.4-0.3,0.6-0.6,0.8-1h1.3c-0.2,0.7-0.6,1.3-1.2,1.8C122.6,55.5,121.8,55.8,120.9,55.8z M120.9,48.6
			c-0.6,0-1.2,0.2-1.7,0.6c-0.5,0.4-0.8,1-0.9,1.7h5c0-0.7-0.3-1.3-0.7-1.7C122.1,48.8,121.6,48.6,120.9,48.6z"/>
		<path class="st1" d="M130,55.8c-0.8,0-1.5-0.2-2.1-0.5c-0.6-0.4-1-0.9-1.4-1.5s-0.5-1.3-0.5-2.1s0.2-1.5,0.5-2.1s0.8-1.1,1.4-1.5
			c0.6-0.4,1.3-0.5,2.1-0.5c0.6,0,1.2,0.1,1.7,0.4s0.9,0.6,1.2,1.1v-4.9h1.3v11.5H133l-0.1-1.3c-0.3,0.4-0.6,0.7-1.1,1
			C131.4,55.6,130.8,55.8,130,55.8z M130.2,54.6c0.5,0,1-0.1,1.4-0.4s0.7-0.6,1-1.1c0.2-0.4,0.3-1,0.3-1.6s-0.1-1.1-0.3-1.6
			c-0.2-0.4-0.6-0.8-1-1.1s-0.9-0.4-1.4-0.4s-1,0.1-1.4,0.4c-0.4,0.2-0.7,0.6-1,1.1c-0.2,0.4-0.3,1-0.3,1.6s0.1,1.1,0.3,1.6
			c0.2,0.4,0.6,0.8,1,1.1C129.2,54.5,129.7,54.6,130.2,54.6z"/>
		<path class="st1" d="M139.5,55.8c-0.9,0-1.7-0.2-2.4-0.7s-1-1.1-1.1-1.9h1.4c0.1,0.4,0.3,0.8,0.7,1.1s0.8,0.5,1.4,0.5
			c0.6,0,1-0.1,1.2-0.4c0.3-0.2,0.4-0.5,0.4-0.9c0-0.5-0.2-0.8-0.5-1c-0.4-0.2-0.8-0.3-1.5-0.4c-0.4-0.1-0.8-0.2-1.3-0.4
			c-0.4-0.2-0.8-0.4-1.1-0.7s-0.4-0.7-0.4-1.2c0-0.7,0.3-1.3,0.8-1.7s1.2-0.7,2.1-0.7c0.8,0,1.5,0.2,2.1,0.6c0.5,0.4,0.9,1,0.9,1.8
			h-1.3c0-0.4-0.2-0.7-0.5-0.9s-0.7-0.3-1.2-0.3s-0.8,0.1-1.1,0.3s-0.4,0.5-0.4,0.8s0.2,0.6,0.5,0.8s0.8,0.3,1.4,0.5
			c0.5,0.1,1,0.2,1.4,0.4s0.8,0.4,1.1,0.7s0.4,0.7,0.4,1.3c0,0.7-0.3,1.3-0.8,1.8C141.2,55.6,140.5,55.8,139.5,55.8z"/>
		<path class="st1" d="M151.9,55.6c-0.7,0-1.3-0.2-1.7-0.5s-0.6-1-0.6-1.9v-4.4h-1.4v-1.1h1.4l0.2-1.9h1.2v1.9h2.3v1.1H151v4.4
			c0,0.5,0.1,0.8,0.3,1s0.6,0.3,1.1,0.3h0.8v1.1C153.2,55.6,151.9,55.6,151.9,55.6z"/>
		<path class="st1" d="M158.3,55.8c-0.8,0-1.4-0.2-2-0.5s-1.1-0.8-1.4-1.4c-0.4-0.6-0.5-1.4-0.5-2.2s0.2-1.6,0.5-2.2
			s0.8-1.1,1.4-1.4c0.6-0.3,1.3-0.5,2-0.5s1.4,0.2,2,0.5s1.1,0.8,1.4,1.4c0.4,0.6,0.5,1.4,0.5,2.2s-0.2,1.6-0.5,2.2
			c-0.4,0.6-0.8,1.1-1.4,1.4C159.7,55.6,159.1,55.8,158.3,55.8z M158.3,54.6c0.5,0,0.9-0.1,1.3-0.3c0.4-0.2,0.7-0.6,1-1
			s0.4-1,0.4-1.7s-0.1-1.2-0.4-1.7c-0.2-0.5-0.6-0.8-1-1s-0.8-0.3-1.3-0.3s-0.9,0.1-1.3,0.3s-0.7,0.6-1,1c-0.2,0.4-0.4,1-0.4,1.7
			s0.1,1.2,0.4,1.7c0.2,0.4,0.6,0.8,1,1C157.5,54.5,157.9,54.6,158.3,54.6z"/>
		<path class="st1" d="M25.7,104.1c-0.3,0-0.5-0.1-0.7-0.3c-0.2-0.2-0.3-0.4-0.3-0.7c0-0.3,0.1-0.5,0.3-0.6c0.2-0.2,0.4-0.3,0.7-0.3
			c0.3,0,0.5,0.1,0.7,0.3c0.2,0.2,0.3,0.4,0.3,0.6c0,0.3-0.1,0.5-0.3,0.7C26.2,104,26,104.1,25.7,104.1z M25.1,113.8v-7.9h1.3v7.9
			H25.1z"/>
		<path class="st1" d="M28.8,113.8v-7.9H30l0.1,1.4c0.3-0.5,0.6-0.9,1.1-1.2c0.5-0.3,1-0.4,1.6-0.4c0.9,0,1.7,0.3,2.2,0.9
			c0.6,0.6,0.8,1.4,0.8,2.6v4.6h-1.3v-4.5c0-1.7-0.7-2.5-2-2.5c-0.7,0-1.2,0.2-1.7,0.7s-0.7,1.2-0.7,2.1v4.1L28.8,113.8L28.8,113.8z
			"/>
		<path class="st1" d="M45.8,114c-0.8,0-1.4-0.2-2-0.5s-1.1-0.8-1.4-1.4c-0.4-0.6-0.5-1.4-0.5-2.2s0.2-1.6,0.5-2.2
			c0.4-0.6,0.8-1.1,1.4-1.5c0.6-0.3,1.3-0.5,2-0.5s1.4,0.2,2,0.5s1.1,0.8,1.4,1.5c0.3,0.6,0.5,1.4,0.5,2.2s-0.2,1.6-0.5,2.2
			s-0.8,1.1-1.4,1.4S46.5,114,45.8,114z M45.8,112.8c0.5,0,0.9-0.1,1.3-0.3s0.7-0.6,1-1c0.2-0.5,0.4-1,0.4-1.7s-0.1-1.2-0.4-1.7
			c-0.2-0.4-0.6-0.8-0.9-1c-0.4-0.2-0.8-0.3-1.3-0.3s-0.9,0.1-1.3,0.3c-0.4,0.2-0.7,0.6-1,1s-0.4,1-0.4,1.7s0.1,1.2,0.4,1.7
			c0.2,0.4,0.6,0.8,1,1S45.3,112.8,45.8,112.8z"/>
		<path class="st1" d="M51.6,113.8v-7.9h1.2l0.1,1.5c0.2-0.5,0.6-0.9,1.1-1.2s1.1-0.5,1.9-0.5v1.4h-0.3c-0.5,0-0.9,0.1-1.3,0.2
			c-0.4,0.2-0.7,0.4-0.9,0.8s-0.3,0.9-0.3,1.6v4L51.6,113.8L51.6,113.8z"/>
		<path class="st1" d="M60.7,114c-0.8,0-1.5-0.2-2.1-0.5c-0.6-0.4-1.1-0.9-1.4-1.5c-0.3-0.6-0.5-1.3-0.5-2.1c0-0.8,0.2-1.5,0.5-2.1
			s0.8-1.1,1.4-1.5c0.6-0.4,1.3-0.5,2.1-0.5c0.6,0,1.2,0.1,1.7,0.4s0.9,0.6,1.2,1.1v-4.9h1.3v11.5h-1.2l-0.1-1.3
			c-0.3,0.4-0.6,0.7-1.1,1C62,113.8,61.4,114,60.7,114z M60.9,112.8c0.5,0,1-0.1,1.4-0.4c0.4-0.2,0.7-0.6,1-1.1
			c0.2-0.4,0.3-1,0.3-1.6s-0.1-1.1-0.3-1.6c-0.2-0.4-0.5-0.8-1-1.1c-0.4-0.2-0.9-0.4-1.4-0.4s-1,0.1-1.4,0.4c-0.4,0.2-0.7,0.6-1,1.1
			s-0.3,1-0.3,1.6s0.1,1.1,0.3,1.6s0.6,0.8,1,1.1S60.3,112.8,60.9,112.8z"/>
		<path class="st1" d="M70.7,114c-0.8,0-1.4-0.2-2-0.5c-0.6-0.4-1-0.8-1.4-1.4c-0.3-0.6-0.5-1.4-0.5-2.2c0-0.8,0.2-1.6,0.5-2.2
			s0.8-1.1,1.4-1.5s1.3-0.5,2.1-0.5c0.8,0,1.4,0.2,2,0.5s1,0.8,1.3,1.4s0.4,1.2,0.4,1.8c0,0.1,0,0.2,0,0.3c0,0.1,0,0.2,0,0.4h-6.3
			c0,0.6,0.2,1.1,0.4,1.5s0.6,0.7,0.9,0.9c0.4,0.2,0.8,0.3,1.2,0.3c0.5,0,1-0.1,1.4-0.4s0.6-0.6,0.8-1h1.3c-0.2,0.7-0.6,1.4-1.2,1.8
			C72.4,113.8,71.7,114,70.7,114z M70.7,106.8c-0.6,0-1.2,0.2-1.7,0.6s-0.8,1-0.9,1.7h5c0-0.7-0.3-1.3-0.7-1.7
			C72,107,71.4,106.8,70.7,106.8z"/>
		<path class="st1" d="M76.3,113.8v-7.9h1.2l0.1,1.5c0.2-0.5,0.6-0.9,1.1-1.2s1.1-0.5,1.9-0.5v1.4h-0.4c-0.5,0-0.9,0.1-1.3,0.2
			c-0.4,0.2-0.7,0.4-0.9,0.8c-0.2,0.4-0.3,0.9-0.3,1.6v4L76.3,113.8L76.3,113.8z"/>
		<path class="st1" d="M86.7,113.8V107h-1.2v-1.1h1.2v-1.4c0-0.8,0.2-1.3,0.6-1.7c0.4-0.4,0.9-0.5,1.7-0.5h0.8v1.1h-0.6
			c-0.4,0-0.7,0.1-0.9,0.2S88,104,88,104.4v1.3h2v1.1h-2v6.8h-1.3V113.8z"/>
		<path class="st1" d="M94.9,114c-0.8,0-1.4-0.2-2-0.5s-1.1-0.8-1.4-1.4s-0.5-1.4-0.5-2.2s0.2-1.6,0.5-2.2s0.8-1.1,1.4-1.5
			c0.6-0.3,1.3-0.5,2-0.5c0.8,0,1.4,0.2,2,0.5s1.1,0.8,1.4,1.5c0.3,0.6,0.5,1.4,0.5,2.2s-0.2,1.6-0.5,2.2s-0.8,1.1-1.4,1.4
			C96.4,113.8,95.7,114,94.9,114z M94.9,112.8c0.5,0,0.9-0.1,1.3-0.3s0.7-0.6,1-1c0.2-0.5,0.4-1,0.4-1.7s-0.1-1.2-0.4-1.7
			c-0.2-0.4-0.6-0.8-0.9-1c-0.4-0.2-0.8-0.3-1.3-0.3s-0.9,0.1-1.3,0.3c-0.4,0.2-0.7,0.6-1,1s-0.4,1-0.4,1.7s0.1,1.2,0.4,1.7
			c0.2,0.4,0.6,0.8,0.9,1C94.1,112.7,94.5,112.8,94.9,112.8z"/>
		<path class="st1" d="M100.8,113.8v-7.9h1.2l0.1,1.5c0.2-0.5,0.6-0.9,1.1-1.2s1.1-0.5,1.9-0.5v1.4h-0.4c-0.5,0-0.9,0.1-1.3,0.2
			c-0.4,0.2-0.7,0.4-0.9,0.8c-0.2,0.4-0.3,0.9-0.3,1.6v4L100.8,113.8L100.8,113.8z"/>
		<path class="st1" d="M113.9,114c-0.9,0-1.7-0.2-2.4-0.7c-0.6-0.5-1-1.1-1.1-1.9h1.4c0.1,0.4,0.3,0.8,0.7,1.1
			c0.3,0.3,0.8,0.5,1.4,0.5s1-0.1,1.2-0.4s0.4-0.5,0.4-0.9c0-0.5-0.2-0.8-0.5-1s-0.8-0.3-1.5-0.4c-0.4-0.1-0.9-0.2-1.3-0.4
			c-0.4-0.2-0.8-0.4-1.1-0.7c-0.3-0.3-0.4-0.7-0.4-1.2c0-0.7,0.3-1.3,0.8-1.7s1.2-0.7,2.1-0.7c0.8,0,1.5,0.2,2.1,0.6s0.9,1,0.9,1.8
			h-1.3c-0.1-0.4-0.2-0.7-0.5-0.9c-0.3-0.2-0.7-0.3-1.2-0.3s-0.9,0.1-1.1,0.3c-0.3,0.2-0.4,0.5-0.4,0.8s0.2,0.6,0.5,0.8
			c0.3,0.2,0.8,0.3,1.4,0.5c0.5,0.1,1,0.2,1.4,0.4c0.4,0.1,0.8,0.4,1.1,0.7c0.3,0.3,0.4,0.7,0.4,1.3c0,0.7-0.3,1.3-0.8,1.8
			C115.6,113.8,114.8,114,113.9,114z"/>
		<path class="st1" d="M118.8,113.8v-11.5h1.3v11.5H118.8z"/>
		<path class="st1" d="M126,114c-0.8,0-1.4-0.2-2-0.5s-1.1-0.8-1.4-1.4s-0.5-1.4-0.5-2.2c0-0.8,0.2-1.6,0.5-2.2s0.8-1.1,1.4-1.5
			s1.3-0.5,2.1-0.5c0.8,0,1.4,0.2,2,0.5c0.6,0.3,1,0.8,1.3,1.4s0.5,1.2,0.5,1.8c0,0.1,0,0.2,0,0.3c0,0.1,0,0.2,0,0.4h-6.3
			c0,0.6,0.2,1.1,0.4,1.5s0.6,0.7,0.9,0.9c0.4,0.2,0.8,0.3,1.2,0.3c0.6,0,1-0.1,1.4-0.4s0.7-0.6,0.8-1h1.3c-0.2,0.7-0.6,1.4-1.2,1.8
			C127.7,113.8,126.9,114,126,114z M126,106.8c-0.6,0-1.2,0.2-1.7,0.6s-0.8,1-0.9,1.7h5c0-0.7-0.3-1.3-0.7-1.7
			C127.2,107,126.6,106.8,126,106.8z"/>
		<path class="st1" d="M135.1,114c-0.8,0-1.4-0.2-2-0.5s-1.1-0.8-1.4-1.4c-0.3-0.6-0.5-1.4-0.5-2.2c0-0.8,0.2-1.6,0.5-2.2
			s0.8-1.1,1.4-1.5c0.6-0.4,1.3-0.5,2.1-0.5s1.4,0.2,2,0.5s1,0.8,1.3,1.4s0.5,1.2,0.5,1.8c0,0.1,0,0.2,0,0.3c0,0.1,0,0.2,0,0.4h-6.3
			c0,0.6,0.2,1.1,0.4,1.5s0.6,0.7,0.9,0.9c0.4,0.2,0.8,0.3,1.2,0.3c0.6,0,1-0.1,1.4-0.4s0.6-0.6,0.8-1h1.3c-0.2,0.7-0.6,1.4-1.2,1.8
			C136.8,113.8,136,114,135.1,114z M135.1,106.8c-0.6,0-1.2,0.2-1.7,0.6s-0.8,1-0.9,1.7h5c0-0.7-0.3-1.3-0.7-1.7
			C136.3,107,135.7,106.8,135.1,106.8z"/>
		<path class="st1" d="M140.6,117.3v-11.5h1.2l0.1,1.3c0.3-0.4,0.6-0.7,1.1-1s1.1-0.5,1.8-0.5c0.8,0,1.5,0.2,2.1,0.5
			c0.6,0.4,1,0.9,1.4,1.5c0.3,0.6,0.5,1.3,0.5,2.1s-0.2,1.5-0.5,2.1s-0.8,1.1-1.4,1.5c-0.6,0.4-1.3,0.5-2.1,0.5
			c-0.6,0-1.2-0.1-1.7-0.4s-0.9-0.6-1.2-1.1v4.9L140.6,117.3L140.6,117.3z M144.7,112.8c0.5,0,1-0.1,1.4-0.4c0.4-0.2,0.7-0.6,1-1.1
			s0.4-1,0.4-1.6s-0.1-1.1-0.4-1.6s-0.6-0.8-1-1.1c-0.4-0.2-0.9-0.4-1.4-0.4s-1,0.1-1.4,0.4s-0.7,0.6-1,1.1c-0.2,0.4-0.3,1-0.3,1.6
			s0.1,1.1,0.3,1.6c0.2,0.4,0.6,0.8,1,1.1S144.2,112.8,144.7,112.8z"/>
		<path class="st1" d="M158,113.8c-0.7,0-1.3-0.2-1.7-0.5c-0.4-0.4-0.6-1-0.6-1.9V107h-1.4v-1.1h1.4l0.2-1.9h1.2v1.9h2.3v1.1h-2.3
			v4.4c0,0.5,0.1,0.8,0.3,1s0.6,0.3,1.1,0.3h0.8v1.2L158,113.8L158,113.8z"/>
		<path class="st1" d="M164.5,114c-0.8,0-1.4-0.2-2-0.5s-1.1-0.8-1.4-1.4c-0.3-0.6-0.5-1.4-0.5-2.2s0.2-1.6,0.5-2.2s0.8-1.1,1.4-1.5
			c0.6-0.3,1.3-0.5,2-0.5c0.8,0,1.4,0.2,2,0.5s1.1,0.8,1.4,1.5c0.3,0.6,0.5,1.4,0.5,2.2s-0.2,1.6-0.5,2.2c-0.4,0.6-0.8,1.1-1.4,1.4
			S165.2,114,164.5,114z M164.5,112.8c0.5,0,0.9-0.1,1.3-0.3c0.4-0.2,0.7-0.6,1-1c0.2-0.5,0.4-1,0.4-1.7s-0.1-1.2-0.4-1.7
			c-0.2-0.4-0.6-0.8-0.9-1c-0.4-0.2-0.8-0.3-1.3-0.3s-0.9,0.1-1.3,0.3c-0.4,0.2-0.7,0.6-1,1s-0.4,1-0.4,1.7s0.1,1.2,0.4,1.7
			c0.2,0.4,0.6,0.8,0.9,1S164,112.8,164.5,112.8z"/>
		<path class="st1" d="M28.5,136c-0.8,0-1.4-0.2-2-0.5s-1.1-0.8-1.4-1.5c-0.3-0.6-0.5-1.4-0.5-2.2s0.2-1.6,0.5-2.2
			c0.3-0.6,0.8-1.1,1.4-1.5c0.6-0.3,1.3-0.5,2-0.5s1.4,0.2,2,0.5c0.6,0.3,1.1,0.8,1.4,1.5c0.3,0.6,0.5,1.4,0.5,2.2s-0.2,1.6-0.5,2.2
			c-0.4,0.6-0.8,1.1-1.4,1.5C30,135.8,29.3,136,28.5,136z M28.5,134.8c0.5,0,0.9-0.1,1.3-0.3s0.7-0.6,1-1c0.2-0.4,0.4-1,0.4-1.7
			s-0.1-1.2-0.4-1.7c-0.2-0.4-0.6-0.8-1-1s-0.8-0.3-1.3-0.3s-0.9,0.1-1.3,0.3s-0.7,0.6-1,1s-0.4,1-0.4,1.7s0.1,1.2,0.4,1.7
			s0.6,0.8,1,1S28.1,134.8,28.5,134.8z"/>
		<path class="st1" d="M38,136c-0.8,0-1.4-0.2-2-0.5s-1.1-0.8-1.4-1.5s-0.5-1.4-0.5-2.2s0.2-1.6,0.5-2.2c0.3-0.6,0.8-1.1,1.4-1.5
			c0.6-0.4,1.3-0.5,2-0.5c0.9,0,1.7,0.2,2.4,0.7c0.6,0.5,1,1.1,1.2,2h-1.4c-0.1-0.5-0.4-0.9-0.8-1.1c-0.4-0.3-0.9-0.4-1.5-0.4
			c-0.5,0-0.9,0.1-1.3,0.3c-0.4,0.2-0.7,0.6-1,1c-0.2,0.5-0.4,1-0.4,1.7s0.1,1.2,0.4,1.7c0.2,0.5,0.6,0.8,1,1s0.8,0.3,1.3,0.3
			s1-0.1,1.5-0.4c0.4-0.3,0.7-0.7,0.8-1.2h1.4c-0.2,0.8-0.6,1.4-1.2,1.9C39.8,135.7,39,136,38,136z"/>
		<path class="st1" d="M47.2,136c-0.8,0-1.4-0.2-2-0.5c-0.6-0.4-1.1-0.8-1.4-1.5s-0.5-1.4-0.5-2.2s0.2-1.6,0.5-2.2
			c0.3-0.6,0.8-1.1,1.4-1.5c0.6-0.4,1.3-0.5,2-0.5c0.9,0,1.7,0.2,2.4,0.7c0.7,0.5,1.1,1.1,1.2,2h-1.4c-0.1-0.5-0.4-0.9-0.8-1.1
			c-0.4-0.3-0.9-0.4-1.5-0.4c-0.4,0-0.9,0.1-1.3,0.3c-0.4,0.2-0.7,0.6-1,1c-0.2,0.5-0.4,1-0.4,1.7s0.1,1.2,0.4,1.7s0.6,0.8,1,1
			s0.8,0.3,1.3,0.3c0.6,0,1-0.1,1.5-0.4c0.4-0.3,0.7-0.7,0.8-1.2h1.4c-0.2,0.8-0.6,1.4-1.2,1.9C48.9,135.7,48.1,136,47.2,136z"/>
		<path class="st1" d="M55.5,136c-0.9,0-1.7-0.3-2.2-0.9c-0.6-0.6-0.8-1.5-0.8-2.6v-4.6h1.3v4.5c0,1.7,0.7,2.5,2,2.5
			c0.7,0,1.3-0.2,1.7-0.7s0.7-1.2,0.7-2.1V128h1.4v7.9h-1.2l-0.1-1.4c-0.2,0.5-0.6,0.9-1.1,1.2C56.7,135.9,56.1,136,55.5,136z"/>
		<path class="st1" d="M61.8,135.8v-7.9H63l0.1,1.5c0.2-0.5,0.6-0.9,1.1-1.2c0.5-0.3,1.1-0.5,1.9-0.5v1.4h-0.4
			c-0.5,0-0.9,0.1-1.3,0.2c-0.4,0.2-0.7,0.4-0.9,0.8c-0.2,0.4-0.3,0.9-0.3,1.6v4h-1.4V135.8z"/>
		<path class="st1" d="M66,137.7l0.9-3.5h1.4l-1.4,3.5H66z"/>
		<path class="st1" d="M77.2,136c-0.9,0-1.7-0.2-2.4-0.7c-0.6-0.5-1-1.1-1.1-1.9h1.4c0.1,0.4,0.3,0.8,0.7,1.1
			c0.3,0.3,0.8,0.5,1.5,0.5c0.6,0,1-0.1,1.2-0.4s0.4-0.5,0.4-0.9c0-0.5-0.2-0.8-0.5-1s-0.8-0.3-1.5-0.4c-0.4-0.1-0.8-0.2-1.3-0.4
			s-0.8-0.4-1.1-0.7c-0.3-0.3-0.4-0.7-0.4-1.2c0-0.7,0.3-1.3,0.8-1.7c0.5-0.4,1.2-0.7,2.1-0.7c0.8,0,1.5,0.2,2.1,0.6
			c0.5,0.4,0.9,1,0.9,1.8h-1.3c0-0.4-0.2-0.7-0.5-0.9s-0.7-0.3-1.2-0.3s-0.8,0.1-1.1,0.3c-0.3,0.2-0.4,0.5-0.4,0.8s0.2,0.6,0.5,0.8
			s0.8,0.3,1.4,0.5c0.5,0.1,1,0.2,1.4,0.4c0.4,0.1,0.8,0.4,1.1,0.7c0.3,0.3,0.4,0.7,0.4,1.3c0,0.7-0.3,1.3-0.8,1.8
			C78.9,135.8,78.2,136,77.2,136z"/>
		<path class="st1" d="M85.8,136c-0.8,0-1.4-0.2-2-0.5s-1.1-0.8-1.4-1.5c-0.3-0.6-0.5-1.4-0.5-2.2s0.2-1.6,0.5-2.2
			c0.4-0.6,0.8-1.1,1.4-1.5c0.6-0.3,1.3-0.5,2-0.5c0.8,0,1.4,0.2,2,0.5c0.6,0.3,1.1,0.8,1.4,1.5c0.3,0.6,0.5,1.4,0.5,2.2
			s-0.2,1.6-0.5,2.2s-0.8,1.1-1.4,1.5S86.6,136,85.8,136z M85.8,134.8c0.5,0,0.9-0.1,1.3-0.3s0.7-0.6,1-1c0.2-0.4,0.4-1,0.4-1.7
			s-0.1-1.2-0.4-1.7c-0.2-0.4-0.6-0.8-0.9-1c-0.4-0.2-0.8-0.3-1.3-0.3s-0.9,0.1-1.3,0.3s-0.7,0.6-1,1s-0.4,1-0.4,1.7
			s0.1,1.2,0.4,1.7s0.6,0.8,0.9,1C84.9,134.7,85.4,134.8,85.8,134.8z"/>
		<path class="st1" d="M95.9,139.3v-11.5h1.2l0.1,1.3c0.3-0.4,0.6-0.7,1.1-1c0.5-0.3,1.1-0.5,1.8-0.5c0.8,0,1.5,0.2,2.1,0.5
			c0.6,0.4,1,0.9,1.4,1.5c0.3,0.6,0.5,1.3,0.5,2.1s-0.2,1.5-0.5,2.1s-0.8,1.1-1.4,1.5s-1.3,0.5-2.1,0.5c-0.7,0-1.2-0.1-1.7-0.4
			c-0.5-0.3-0.9-0.6-1.2-1.1v4.9L95.9,139.3L95.9,139.3z M100,134.8c0.5,0,1-0.1,1.4-0.4c0.4-0.2,0.7-0.6,1-1c0.2-0.5,0.3-1,0.3-1.6
			s-0.1-1.1-0.3-1.6c-0.2-0.4-0.6-0.8-1-1.1c-0.4-0.2-0.9-0.4-1.4-0.4s-1,0.1-1.4,0.4c-0.4,0.2-0.7,0.6-1,1.1
			c-0.2,0.4-0.3,1-0.3,1.6s0.1,1.1,0.3,1.6c0.2,0.4,0.6,0.8,1,1C99,134.7,99.5,134.8,100,134.8z"/>
		<path class="st1" d="M105.9,135.8v-11.5h1.3v11.5H105.9z"/>
		<path class="st1" d="M112.1,136c-0.7,0-1.2-0.1-1.6-0.3s-0.8-0.5-1-0.9s-0.3-0.8-0.3-1.2c0-0.8,0.3-1.4,0.9-1.9
			c0.6-0.4,1.5-0.7,2.5-0.7h2.1v-0.1c0-0.7-0.2-1.2-0.5-1.6c-0.4-0.4-0.8-0.5-1.5-0.5c-0.5,0-1,0.1-1.4,0.4
			c-0.4,0.3-0.6,0.6-0.7,1.1h-1.4c0.1-0.6,0.2-1.1,0.6-1.5c0.3-0.4,0.8-0.7,1.3-0.9c0.5-0.2,1-0.3,1.6-0.3c1.1,0,1.9,0.3,2.5,0.9
			s0.8,1.4,0.8,2.4v4.9h-1.2l-0.1-1.4c-0.2,0.4-0.6,0.8-1,1.1C113.4,135.8,112.9,136,112.1,136z M112.3,134.9c0.5,0,0.9-0.1,1.3-0.4
			c0.4-0.3,0.7-0.6,0.8-1c0.2-0.4,0.3-0.9,0.3-1.3l0,0h-2c-0.8,0-1.4,0.1-1.7,0.4c-0.3,0.3-0.5,0.6-0.5,1s0.1,0.8,0.5,1
			C111.4,134.7,111.8,134.9,112.3,134.9z"/>
		<path class="st1" d="M118.2,135.8v-7.9h1.2l0.1,1.4c0.3-0.5,0.6-0.9,1.1-1.2c0.5-0.3,1-0.4,1.6-0.4c0.9,0,1.7,0.3,2.2,0.9
			c0.6,0.6,0.8,1.4,0.8,2.6v4.6h-1.3v-4.5c0-1.7-0.7-2.5-2.1-2.5c-0.7,0-1.2,0.2-1.7,0.7c-0.4,0.5-0.7,1.2-0.7,2.1v4.1L118.2,135.8
			L118.2,135.8z"/>
		<path class="st1" d="M132.4,139.3l2-4.3h-0.5l-3.2-7.2h1.5l2.6,6.2l2.8-6.2h1.4l-5.2,11.5H132.4z"/>
		<path class="st1" d="M143.3,136c-0.8,0-1.4-0.2-2-0.5s-1.1-0.8-1.4-1.5c-0.3-0.6-0.5-1.4-0.5-2.2s0.2-1.6,0.5-2.2
			c0.3-0.6,0.8-1.1,1.4-1.5c0.6-0.3,1.3-0.5,2-0.5s1.4,0.2,2,0.5c0.6,0.3,1.1,0.8,1.4,1.5c0.3,0.6,0.5,1.4,0.5,2.2s-0.2,1.6-0.5,2.2
			c-0.3,0.6-0.8,1.1-1.4,1.5C144.7,135.8,144.1,136,143.3,136z M143.3,134.8c0.5,0,0.9-0.1,1.3-0.3s0.7-0.6,1-1
			c0.2-0.4,0.4-1,0.4-1.7s-0.1-1.2-0.4-1.7c-0.2-0.4-0.6-0.8-0.9-1c-0.4-0.2-0.8-0.3-1.3-0.3s-0.9,0.1-1.3,0.3c-0.4,0.2-0.7,0.6-1,1
			s-0.4,1-0.4,1.7s0.1,1.2,0.4,1.7c0.2,0.5,0.6,0.8,0.9,1S142.9,134.8,143.3,134.8z"/>
		<path class="st1" d="M152.1,136c-0.9,0-1.7-0.3-2.2-0.9s-0.8-1.5-0.8-2.6v-4.6h1.3v4.5c0,1.7,0.7,2.5,2,2.5c0.7,0,1.3-0.2,1.7-0.7
			s0.7-1.2,0.7-2.1V128h1.3v7.9h-1.2l-0.1-1.4c-0.2,0.5-0.6,0.9-1.1,1.2C153.2,135.9,152.7,136,152.1,136z"/>
		<path class="st1" d="M158.3,135.8v-7.9h1.2l0.1,1.5c0.2-0.5,0.6-0.9,1.1-1.2c0.5-0.3,1.1-0.5,1.9-0.5v1.4h-0.4
			c-0.5,0-0.9,0.1-1.3,0.2c-0.4,0.2-0.7,0.4-0.9,0.8c-0.2,0.4-0.4,0.9-0.4,1.6v4h-1.3V135.8z"/>
		<path class="st1" d="M28.5,158c-0.8,0-1.4-0.2-2-0.5s-1-0.8-1.4-1.5c-0.3-0.6-0.5-1.3-0.5-2.2c0-0.8,0.2-1.6,0.5-2.2
			s0.8-1.1,1.4-1.5s1.3-0.5,2.1-0.5c0.8,0,1.4,0.2,2,0.5s1,0.8,1.3,1.4c0.3,0.6,0.4,1.2,0.4,1.8c0,0.1,0,0.2,0,0.4
			c0,0.1,0,0.2,0,0.4H26c0,0.6,0.2,1.1,0.4,1.5c0.2,0.4,0.6,0.7,0.9,0.9c0.4,0.2,0.8,0.3,1.2,0.3c0.5,0,1-0.1,1.4-0.4
			c0.4-0.3,0.6-0.6,0.8-1H32c-0.2,0.7-0.6,1.3-1.2,1.8C30.2,157.8,29.4,158,28.5,158z M28.5,150.8c-0.6,0-1.2,0.2-1.7,0.6
			c-0.5,0.4-0.8,1-0.9,1.7h5c0-0.7-0.3-1.3-0.7-1.7C29.7,151,29.2,150.8,28.5,150.8z"/>
		<path class="st1" d="M32.9,157.8l2.8-4l-2.8-4h1.5l2.2,3.3l2.2-3.3h1.4l-2.8,4l2.8,4h-1.4l-2.2-3.3l-2.2,3.3H32.9z"/>
		<path class="st1" d="M44.9,158c-0.8,0-1.4-0.2-2-0.5s-1-0.8-1.4-1.5c-0.3-0.6-0.5-1.3-0.5-2.2c0-0.8,0.2-1.6,0.5-2.2
			c0.3-0.6,0.8-1.1,1.4-1.5s1.3-0.5,2.1-0.5s1.4,0.2,2,0.5s1,0.8,1.3,1.4c0.3,0.6,0.4,1.2,0.4,1.8c0,0.1,0,0.2,0,0.4
			c0,0.1,0,0.2,0,0.4h-6.3c0,0.6,0.2,1.1,0.4,1.5s0.6,0.7,0.9,0.9c0.4,0.2,0.8,0.3,1.2,0.3c0.5,0,1-0.1,1.4-0.4
			c0.4-0.3,0.7-0.6,0.8-1h1.3c-0.2,0.7-0.6,1.3-1.2,1.8C46.6,157.8,45.8,158,44.9,158z M44.9,150.8c-0.6,0-1.2,0.2-1.7,0.6
			c-0.5,0.4-0.8,1-0.9,1.7h5c0-0.7-0.3-1.3-0.7-1.7C46.1,151,45.5,150.8,44.9,150.8z"/>
		<path class="st1" d="M50.4,157.8v-7.9h1.2l0.1,1.5c0.2-0.5,0.6-0.9,1.1-1.2s1.1-0.5,1.9-0.5v1.4h-0.4c-0.5,0-0.9,0.1-1.3,0.2
			c-0.4,0.2-0.7,0.5-0.9,0.8c-0.2,0.4-0.4,0.9-0.4,1.6v4L50.4,157.8L50.4,157.8z"/>
		<path class="st1" d="M59.6,158c-0.8,0-1.4-0.2-2-0.5s-1.1-0.8-1.4-1.5c-0.3-0.6-0.5-1.4-0.5-2.2s0.2-1.6,0.5-2.2
			c0.4-0.6,0.8-1.1,1.4-1.5s1.3-0.5,2-0.5c0.9,0,1.7,0.2,2.4,0.7s1.1,1.1,1.2,2h-1.4c-0.1-0.5-0.4-0.9-0.8-1.1
			c-0.4-0.3-0.9-0.4-1.5-0.4c-0.4,0-0.9,0.1-1.3,0.3c-0.4,0.2-0.7,0.6-1,1c-0.2,0.5-0.4,1-0.4,1.7s0.1,1.2,0.4,1.7s0.6,0.8,1,1
			s0.8,0.3,1.3,0.3c0.6,0,1-0.1,1.5-0.4c0.4-0.3,0.7-0.7,0.8-1.2h1.4c-0.2,0.8-0.6,1.4-1.2,1.9S60.5,158,59.6,158z"/>
		<path class="st1" d="M65.8,148.1c-0.3,0-0.5-0.1-0.7-0.3s-0.3-0.4-0.3-0.7s0.1-0.5,0.3-0.6c0.2-0.2,0.4-0.3,0.7-0.3
			s0.5,0.1,0.7,0.3s0.3,0.4,0.3,0.6c0,0.3-0.1,0.5-0.3,0.7C66.3,148,66.1,148.1,65.8,148.1z M65.2,157.8v-7.9h1.3v7.9H65.2z"/>
		<path class="st1" d="M71.9,158c-0.9,0-1.7-0.2-2.4-0.7c-0.6-0.5-1-1.1-1.1-1.9h1.4c0.1,0.4,0.3,0.8,0.7,1.1
			c0.3,0.3,0.8,0.5,1.4,0.5s1-0.1,1.2-0.4c0.3-0.2,0.4-0.5,0.4-0.9c0-0.5-0.2-0.8-0.5-1s-0.8-0.3-1.5-0.4c-0.4-0.1-0.8-0.2-1.3-0.4
			s-0.8-0.4-1.1-0.7c-0.3-0.3-0.4-0.7-0.4-1.2c0-0.7,0.3-1.3,0.8-1.7s1.2-0.7,2.1-0.7c0.8,0,1.5,0.2,2.1,0.6c0.5,0.4,0.9,1,0.9,1.8
			h-1.3c0-0.4-0.2-0.7-0.5-0.9s-0.7-0.3-1.2-0.3s-0.8,0.1-1.1,0.3c-0.3,0.2-0.4,0.5-0.4,0.8s0.2,0.6,0.5,0.8s0.8,0.3,1.4,0.5
			c0.5,0.1,1,0.2,1.4,0.4s0.8,0.4,1.1,0.7c0.3,0.3,0.4,0.7,0.4,1.3c0,0.7-0.3,1.3-0.8,1.8C73.6,157.8,72.8,158,71.9,158z"/>
		<path class="st1" d="M80.4,158c-0.8,0-1.4-0.2-2-0.5c-0.6-0.4-1.1-0.8-1.4-1.5c-0.3-0.6-0.5-1.3-0.5-2.2c0-0.8,0.2-1.6,0.5-2.2
			c0.3-0.6,0.8-1.1,1.4-1.5s1.3-0.5,2.1-0.5c0.8,0,1.4,0.2,2,0.5c0.6,0.4,1,0.8,1.3,1.4c0.3,0.6,0.5,1.2,0.5,1.8c0,0.1,0,0.2,0,0.4
			c0,0.1,0,0.2,0,0.4H78c0,0.6,0.2,1.1,0.4,1.5c0.2,0.4,0.6,0.7,0.9,0.9c0.4,0.2,0.8,0.3,1.2,0.3c0.5,0,1-0.1,1.4-0.4
			c0.4-0.3,0.6-0.6,0.8-1H84c-0.2,0.7-0.6,1.3-1.2,1.8C82.1,157.8,81.4,158,80.4,158z M80.4,150.8c-0.6,0-1.2,0.2-1.7,0.6
			c-0.5,0.4-0.8,1-0.9,1.7h5c0-0.7-0.3-1.3-0.7-1.7C81.7,151,81.1,150.8,80.4,150.8z"/>
		<path class="st1" d="M90.6,157.8V151h-1.2v-1.1h1.2v-1.4c0-0.8,0.2-1.3,0.6-1.7c0.4-0.3,0.9-0.5,1.7-0.5h0.8v1.2h-0.6
			c-0.4,0-0.7,0.1-0.9,0.2c-0.2,0.2-0.3,0.4-0.3,0.8v1.3h1.9v1.1h-1.9v6.8L90.6,157.8L90.6,157.8z"/>
		<path class="st1" d="M98.8,158c-0.8,0-1.4-0.2-2-0.5s-1.1-0.8-1.4-1.5c-0.3-0.6-0.5-1.4-0.5-2.2s0.2-1.6,0.5-2.2s0.8-1.1,1.4-1.5
			s1.3-0.5,2-0.5c0.8,0,1.4,0.2,2,0.5s1.1,0.8,1.4,1.5c0.3,0.6,0.5,1.4,0.5,2.2s-0.2,1.6-0.5,2.2c-0.4,0.6-0.8,1.1-1.4,1.5
			C100.2,157.8,99.6,158,98.8,158z M98.8,156.8c0.5,0,0.9-0.1,1.3-0.3s0.7-0.6,1-1c0.2-0.4,0.4-1,0.4-1.7s-0.1-1.2-0.4-1.7
			c-0.2-0.4-0.6-0.8-0.9-1s-0.8-0.3-1.3-0.3s-0.9,0.1-1.3,0.3s-0.7,0.6-1,1c-0.2,0.4-0.4,1-0.4,1.7s0.1,1.2,0.4,1.7s0.6,0.8,0.9,1
			C97.9,156.7,98.4,156.8,98.8,156.8z"/>
		<path class="st1" d="M104.7,157.8v-7.9h1.2l0.1,1.5c0.2-0.5,0.6-0.9,1.1-1.2s1.1-0.5,1.9-0.5v1.4h-0.4c-0.5,0-0.9,0.1-1.3,0.2
			c-0.4,0.2-0.7,0.5-0.9,0.8c-0.2,0.4-0.3,0.9-0.3,1.6v4L104.7,157.8L104.7,157.8z"/>
		<path class="st1" d="M117.9,157.8c-0.7,0-1.3-0.2-1.7-0.5c-0.4-0.3-0.6-1-0.6-1.9V151h-1.4v-1.1h1.4l0.2-1.9h1.2v1.9h2.3v1.1H117
			v4.4c0,0.5,0.1,0.8,0.3,1c0.2,0.2,0.6,0.3,1.1,0.3h0.8v1.1H117.9z"/>
		<path class="st1" d="M120.9,157.8v-11.5h1.3v4.9c0.3-0.5,0.6-0.9,1.1-1.1c0.5-0.3,1-0.4,1.6-0.4c0.9,0,1.6,0.3,2.2,0.9
			c0.6,0.6,0.8,1.5,0.8,2.6v4.6h-1.3v-4.5c0-1.6-0.7-2.5-2-2.5c-0.7,0-1.3,0.2-1.7,0.7c-0.5,0.5-0.7,1.2-0.7,2.1v4.1L120.9,157.8
			L120.9,157.8z"/>
		<path class="st1" d="M133.6,158c-0.8,0-1.4-0.2-2-0.5s-1.1-0.8-1.4-1.5c-0.3-0.6-0.5-1.3-0.5-2.2c0-0.8,0.2-1.6,0.5-2.2
			s0.8-1.1,1.4-1.5s1.3-0.5,2.1-0.5s1.4,0.2,2,0.5s1,0.8,1.3,1.4s0.4,1.2,0.4,1.8c0,0.1,0,0.2,0,0.4c0,0.1,0,0.2,0,0.4h-6.3
			c0,0.6,0.2,1.1,0.4,1.5s0.6,0.7,0.9,0.9c0.4,0.2,0.8,0.3,1.2,0.3c0.6,0,1-0.1,1.4-0.4c0.4-0.2,0.6-0.6,0.8-1h1.3
			c-0.2,0.7-0.6,1.3-1.2,1.8C135.3,157.8,134.6,158,133.6,158z M133.6,150.8c-0.6,0-1.2,0.2-1.7,0.6c-0.5,0.4-0.8,1-0.9,1.7h5
			c0-0.7-0.3-1.3-0.7-1.7C134.9,151,134.3,150.8,133.6,150.8z"/>
		<path class="st1" d="M147,158c-0.8,0-1.5-0.2-2.1-0.5c-0.6-0.4-1.1-0.9-1.4-1.5s-0.5-1.3-0.5-2.1s0.2-1.5,0.5-2.1s0.8-1.1,1.4-1.5
			c0.6-0.4,1.3-0.5,2.1-0.5c0.7,0,1.2,0.1,1.7,0.4c0.5,0.3,0.9,0.6,1.2,1.1v-4.9h1.3v11.5H150l-0.1-1.3c-0.3,0.4-0.6,0.7-1.1,1
			C148.3,157.8,147.7,158,147,158z M147.1,156.8c0.5,0,1-0.1,1.4-0.4c0.4-0.2,0.7-0.6,1-1c0.2-0.5,0.3-1,0.3-1.6s-0.1-1.1-0.3-1.6
			s-0.6-0.8-1-1s-0.9-0.4-1.4-0.4s-1,0.1-1.4,0.4s-0.7,0.6-1,1c-0.2,0.5-0.3,1-0.3,1.6s0.1,1.1,0.3,1.6c0.2,0.4,0.6,0.8,1,1
			C146.2,156.7,146.6,156.8,147.1,156.8z"/>
		<path class="st1" d="M156.1,158c-0.7,0-1.2-0.1-1.7-0.3c-0.4-0.2-0.8-0.5-1-0.9s-0.3-0.8-0.3-1.2c0-0.8,0.3-1.4,0.9-1.9
			s1.5-0.7,2.5-0.7h2.1v-0.1c0-0.7-0.2-1.2-0.5-1.6c-0.4-0.4-0.9-0.5-1.5-0.5c-0.5,0-1,0.1-1.4,0.4c-0.4,0.3-0.6,0.6-0.7,1.1h-1.4
			c0.1-0.6,0.2-1.1,0.6-1.5c0.3-0.4,0.8-0.7,1.3-0.9s1-0.3,1.6-0.3c1.1,0,1.9,0.3,2.5,0.9s0.8,1.4,0.8,2.4v4.9h-1.2l-0.1-1.4
			c-0.2,0.4-0.6,0.8-1,1.1C157.4,157.8,156.8,158,156.1,158z M156.3,156.9c0.5,0,0.9-0.1,1.3-0.4c0.4-0.3,0.6-0.6,0.8-1
			s0.3-0.9,0.3-1.3l0,0h-2c-0.8,0-1.3,0.1-1.7,0.4c-0.3,0.3-0.5,0.6-0.5,1s0.1,0.8,0.5,1C155.3,156.7,155.7,156.9,156.3,156.9z"/>
		<path class="st1" d="M162.7,161.3l2-4.3h-0.5l-3.1-7.2h1.5l2.6,6.2l2.8-6.2h1.4l-5.2,11.5H162.7z"/>
		<path class="st1" d="M178.6,158c-0.8,0-1.4-0.2-2-0.5s-1.1-0.8-1.4-1.5c-0.4-0.6-0.5-1.4-0.5-2.2s0.2-1.6,0.5-2.2
			c0.4-0.6,0.8-1.1,1.4-1.5c0.6-0.3,1.3-0.5,2-0.5c0.8,0,1.4,0.2,2,0.5s1.1,0.8,1.4,1.5c0.4,0.6,0.5,1.4,0.5,2.2s-0.2,1.6-0.5,2.2
			s-0.8,1.1-1.4,1.5C180,157.8,179.4,158,178.6,158z M178.6,156.8c0.5,0,0.9-0.1,1.3-0.3c0.4-0.2,0.7-0.6,1-1c0.2-0.4,0.4-1,0.4-1.7
			s-0.1-1.2-0.4-1.7c-0.2-0.4-0.6-0.8-0.9-1c-0.4-0.2-0.8-0.3-1.3-0.3s-0.9,0.1-1.3,0.3s-0.7,0.6-1,1c-0.2,0.4-0.4,1-0.4,1.7
			s0.1,1.2,0.4,1.7s0.6,0.8,0.9,1C177.8,156.7,178.2,156.8,178.6,156.8z"/>
		<path class="st1" d="M184.5,157.8v-7.9h1.2l0.1,1.5c0.2-0.5,0.6-0.9,1.1-1.2s1.1-0.5,1.9-0.5v1.4h-0.4c-0.5,0-0.9,0.1-1.3,0.2
			c-0.4,0.2-0.7,0.5-0.9,0.8c-0.2,0.4-0.4,0.9-0.4,1.6v4L184.5,157.8L184.5,157.8z"/>
		<path class="st1" d="M28.5,180c-0.8,0-1.4-0.2-2-0.5s-1-0.8-1.4-1.5c-0.3-0.6-0.5-1.3-0.5-2.2c0-0.8,0.2-1.6,0.5-2.2
			s0.8-1.1,1.4-1.5s1.3-0.5,2.1-0.5c0.8,0,1.4,0.2,2,0.5s1,0.8,1.3,1.4c0.3,0.6,0.4,1.2,0.4,1.8c0,0.1,0,0.2,0,0.4
			c0,0.1,0,0.2,0,0.4H26c0,0.6,0.2,1.1,0.4,1.5c0.2,0.4,0.6,0.7,0.9,0.9c0.4,0.2,0.8,0.3,1.2,0.3c0.5,0,1-0.1,1.4-0.4
			c0.4-0.3,0.6-0.6,0.8-1H32c-0.2,0.7-0.6,1.3-1.2,1.8C30.2,179.8,29.4,180,28.5,180z M28.5,172.8c-0.6,0-1.2,0.2-1.7,0.6
			c-0.5,0.4-0.8,1-0.9,1.7h5c0-0.7-0.3-1.3-0.7-1.7C29.7,173,29.2,172.8,28.5,172.8z"/>
		<path class="st1" d="M36.7,180c-0.7,0-1.2-0.1-1.6-0.3c-0.4-0.2-0.8-0.5-1-0.9s-0.3-0.8-0.3-1.2c0-0.8,0.3-1.4,0.9-1.9
			c0.6-0.4,1.5-0.7,2.5-0.7h2.1v-0.1c0-0.7-0.2-1.2-0.5-1.6c-0.4-0.4-0.8-0.5-1.5-0.5c-0.5,0-1,0.1-1.4,0.4
			c-0.4,0.3-0.6,0.6-0.7,1.1h-1.4c0-0.6,0.2-1.1,0.6-1.5c0.3-0.4,0.8-0.7,1.3-0.9s1-0.3,1.6-0.3c1.1,0,1.9,0.3,2.5,0.9
			s0.8,1.4,0.8,2.4v4.9h-1.2l-0.1-1.4c-0.2,0.4-0.6,0.8-1,1.1C38,179.8,37.4,180,36.7,180z M36.9,178.9c0.5,0,1-0.1,1.3-0.4
			c0.4-0.3,0.7-0.6,0.8-1s0.3-0.9,0.3-1.3l0,0h-2c-0.8,0-1.4,0.1-1.7,0.4c-0.3,0.3-0.5,0.6-0.5,1s0.1,0.8,0.5,1
			C35.9,178.7,36.3,178.9,36.9,178.9z"/>
		<path class="st1" d="M42.7,179.8v-7.9h1.2l0.1,1.5c0.2-0.5,0.6-0.9,1.1-1.2s1.1-0.5,1.9-0.5v1.4h-0.4c-0.5,0-0.9,0.1-1.3,0.2
			c-0.4,0.2-0.7,0.5-0.9,0.8c-0.2,0.4-0.3,0.9-0.3,1.6v4L42.7,179.8L42.7,179.8z"/>
		<path class="st1" d="M48.5,179.8v-11.5h1.3v11.5H48.5z"/>
		<path class="st1" d="M52.9,183.3l2-4.3h-0.5l-3.2-7.2h1.5l2.6,6.2l2.8-6.2h1.4l-5.2,11.5H52.9z"/>
		<path class="st1" d="M68.7,180c-0.8,0-1.4-0.2-2-0.5c-0.6-0.4-1.1-0.8-1.4-1.5c-0.3-0.6-0.5-1.3-0.5-2.2c0-0.8,0.2-1.6,0.5-2.2
			c0.3-0.6,0.8-1.1,1.4-1.5s1.3-0.5,2.1-0.5c0.8,0,1.4,0.2,2,0.5c0.6,0.4,1,0.8,1.3,1.4c0.3,0.6,0.5,1.2,0.5,1.8c0,0.1,0,0.2,0,0.4
			c0,0.1,0,0.2,0,0.4h-6.3c0,0.6,0.2,1.1,0.4,1.5c0.2,0.4,0.6,0.7,0.9,0.9c0.4,0.2,0.8,0.3,1.2,0.3c0.6,0,1-0.1,1.4-0.4
			c0.4-0.3,0.6-0.6,0.8-1h1.3c-0.2,0.7-0.6,1.3-1.2,1.8C70.5,179.8,69.7,180,68.7,180z M68.7,172.8c-0.6,0-1.2,0.2-1.7,0.6
			c-0.5,0.4-0.8,1-0.9,1.7h5c0-0.7-0.3-1.3-0.7-1.7C70,173,69.4,172.8,68.7,172.8z"/>
		<path class="st1" d="M76.3,179.8l-3-7.9h1.4l2.4,6.6l2.4-6.6h1.4l-3,7.9H76.3z"/>
		<path class="st1" d="M85.5,180c-0.8,0-1.4-0.2-2-0.5c-0.6-0.4-1-0.8-1.4-1.5c-0.3-0.6-0.5-1.3-0.5-2.2c0-0.8,0.2-1.6,0.5-2.2
			s0.8-1.1,1.4-1.5s1.3-0.5,2.1-0.5c0.8,0,1.4,0.2,2,0.5c0.6,0.4,1,0.8,1.3,1.4c0.3,0.6,0.4,1.2,0.4,1.8c0,0.1,0,0.2,0,0.4
			c0,0.1,0,0.2,0,0.4H83c0,0.6,0.2,1.1,0.4,1.5c0.2,0.4,0.6,0.7,0.9,0.9c0.4,0.2,0.8,0.3,1.2,0.3c0.5,0,1-0.1,1.4-0.4
			c0.4-0.3,0.7-0.6,0.8-1H89c-0.2,0.7-0.6,1.3-1.2,1.8C87.2,179.8,86.4,180,85.5,180z M85.5,172.8c-0.6,0-1.2,0.2-1.7,0.6
			c-0.5,0.4-0.8,1-0.9,1.7h5c0-0.7-0.3-1.3-0.7-1.7C86.7,173,86.1,172.8,85.5,172.8z"/>
		<path class="st1" d="M91,179.8v-7.9h1.2l0.1,1.4c0.3-0.5,0.6-0.9,1.1-1.2s1-0.4,1.6-0.4c0.9,0,1.7,0.3,2.2,0.9s0.8,1.5,0.8,2.6
			v4.6h-1.3v-4.5c0-1.6-0.7-2.5-2.1-2.5c-0.7,0-1.2,0.2-1.7,0.7c-0.4,0.5-0.7,1.2-0.7,2.1v4.1L91,179.8L91,179.8z"/>
		<path class="st1" d="M101,170.1c-0.3,0-0.5-0.1-0.7-0.3s-0.3-0.4-0.3-0.7s0.1-0.5,0.3-0.6c0.2-0.2,0.4-0.3,0.7-0.3
			c0.3,0,0.5,0.1,0.7,0.3s0.3,0.4,0.3,0.6c0,0.3-0.1,0.5-0.3,0.7C101.4,170,101.2,170.1,101,170.1z M100.3,179.8v-7.9h1.3v7.9H100.3
			z"/>
		<path class="st1" d="M104,179.8v-7.9h1.2l0.1,1.4c0.3-0.5,0.6-0.9,1.1-1.2s1-0.4,1.6-0.4c0.9,0,1.7,0.3,2.2,0.9s0.8,1.5,0.8,2.6
			v4.6h-1.3v-4.5c0-1.6-0.7-2.5-2.1-2.5c-0.7,0-1.2,0.2-1.7,0.7s-0.7,1.2-0.7,2.1v4.1L104,179.8L104,179.8z"/>
		<path class="st1" d="M116.3,177.3c-0.4,0-0.9-0.1-1.2-0.2l-0.8,0.8c0.1,0.1,0.3,0.2,0.4,0.2c0.2,0.1,0.4,0.1,0.8,0.2
			s0.8,0.1,1.4,0.1c1.1,0.1,1.8,0.3,2.3,0.7s0.7,1,0.7,1.6c0,0.5-0.1,0.9-0.4,1.3c-0.2,0.4-0.6,0.8-1.2,1c-0.5,0.3-1.2,0.4-2,0.4
			c-0.7,0-1.3-0.1-1.9-0.3s-1-0.5-1.3-0.9s-0.5-0.9-0.5-1.4c0-0.3,0.1-0.6,0.2-1c0.2-0.4,0.5-0.7,0.9-1c-0.2-0.1-0.4-0.2-0.6-0.3
			s-0.3-0.2-0.5-0.4v-0.4l1.4-1.3c-0.6-0.5-0.9-1.2-0.9-2.1c0-0.5,0.1-1,0.4-1.4c0.2-0.4,0.6-0.8,1.1-1s1-0.4,1.7-0.4
			c0.5,0,0.9,0.1,1.2,0.2h2.9v1l-1.5,0.1c0.3,0.4,0.5,1,0.5,1.5s-0.1,1-0.4,1.4c-0.2,0.4-0.6,0.8-1.1,1
			C117.5,177.2,116.9,177.3,116.3,177.3z M113.9,180.8c0,0.5,0.2,0.9,0.7,1.2c0.4,0.3,1,0.4,1.7,0.4s1.2-0.1,1.6-0.4
			c0.4-0.3,0.6-0.7,0.6-1.1c0-0.3-0.1-0.6-0.4-0.9s-0.8-0.4-1.5-0.4c-0.6,0-1.1-0.1-1.5-0.2c-0.4,0.2-0.7,0.5-0.9,0.8
			S113.9,180.6,113.9,180.8z M116.3,176.2c0.6,0,1-0.2,1.3-0.4c0.3-0.3,0.5-0.7,0.5-1.3c0-0.5-0.2-1-0.5-1.3s-0.8-0.4-1.3-0.4
			c-0.6,0-1,0.1-1.4,0.4c-0.3,0.3-0.5,0.7-0.5,1.3s0.2,1,0.5,1.3S115.7,176.2,116.3,176.2z"/>
		<path class="st1" d="M120.9,181.7l0.9-3.5h1.4l-1.4,3.5H120.9z"/>
		<path class="st1" d="M129.9,170.1c-0.3,0-0.5-0.1-0.7-0.3s-0.3-0.4-0.3-0.7s0.1-0.5,0.3-0.6c0.2-0.2,0.4-0.3,0.7-0.3
			s0.5,0.1,0.7,0.3s0.3,0.4,0.3,0.6c0,0.3-0.1,0.5-0.3,0.7C130.3,170,130.1,170.1,129.9,170.1z M129.2,179.8v-7.9h1.3v7.9H129.2z"/>
		<path class="st1" d="M132.9,179.8v-7.9h1.2l0.1,1.4c0.3-0.5,0.6-0.9,1.1-1.2s1-0.4,1.6-0.4c0.9,0,1.7,0.3,2.2,0.9s0.8,1.5,0.8,2.6
			v4.6h-1.3v-4.5c0-1.6-0.7-2.5-2.1-2.5c-0.7,0-1.2,0.2-1.7,0.7c-0.4,0.5-0.7,1.2-0.7,2.1v4.1L132.9,179.8L132.9,179.8z"/>
		<path class="st1" d="M145.1,180c-1,0-1.7-0.2-2.4-0.7c-0.6-0.5-1-1.1-1.1-1.9h1.4c0.1,0.4,0.3,0.8,0.7,1.1s0.8,0.5,1.4,0.5
			c0.6,0,1-0.1,1.2-0.4c0.3-0.2,0.4-0.5,0.4-0.9c0-0.5-0.2-0.8-0.5-1s-0.8-0.3-1.5-0.4c-0.4-0.1-0.8-0.2-1.3-0.4
			c-0.4-0.2-0.8-0.4-1.1-0.7s-0.4-0.7-0.4-1.2c0-0.7,0.3-1.3,0.8-1.7s1.2-0.7,2.1-0.7c0.8,0,1.5,0.2,2.1,0.6c0.5,0.4,0.8,1,0.9,1.8
			h-1.3c0-0.4-0.2-0.7-0.5-0.9s-0.7-0.3-1.2-0.3s-0.8,0.1-1.1,0.3s-0.4,0.5-0.4,0.8s0.2,0.6,0.5,0.8s0.8,0.3,1.4,0.5
			c0.5,0.1,1,0.2,1.4,0.4s0.8,0.4,1.1,0.7s0.4,0.7,0.4,1.3c0,0.7-0.3,1.3-0.8,1.8C146.8,179.8,146,180,145.1,180z"/>
		<path class="st1" d="M152.8,179.8c-0.7,0-1.3-0.2-1.7-0.5s-0.6-1-0.6-1.9V173h-1.4v-1.1h1.4l0.2-1.9h1.2v1.9h2.3v1.1h-2.3v4.4
			c0,0.5,0.1,0.8,0.3,1s0.6,0.3,1.1,0.3h0.8v1.1H152.8z"/>
		<path class="st1" d="M159.2,180c-0.8,0-1.4-0.2-2-0.5s-1.1-0.8-1.4-1.5c-0.3-0.6-0.5-1.3-0.5-2.2c0-0.8,0.2-1.6,0.5-2.2
			c0.3-0.6,0.8-1.1,1.4-1.5s1.3-0.5,2.1-0.5s1.4,0.2,2,0.5s1,0.8,1.3,1.4c0.3,0.6,0.5,1.2,0.5,1.8c0,0.1,0,0.2,0,0.4
			c0,0.1,0,0.2,0,0.4h-6.5c0,0.6,0.2,1.1,0.4,1.5s0.6,0.7,0.9,0.9c0.4,0.2,0.8,0.3,1.2,0.3c0.6,0,1-0.1,1.4-0.4s0.6-0.6,0.8-1h1.3
			c-0.2,0.7-0.6,1.3-1.2,1.8C160.9,179.8,160.2,180,159.2,180z M159.2,172.8c-0.6,0-1.2,0.2-1.7,0.6c-0.5,0.4-0.8,1-0.9,1.7h5
			c0-0.7-0.3-1.3-0.7-1.7C160.5,173,159.9,172.8,159.2,172.8z"/>
		<path class="st1" d="M167.4,180c-0.7,0-1.2-0.1-1.6-0.3c-0.4-0.2-0.8-0.5-1-0.9s-0.3-0.8-0.3-1.2c0-0.8,0.3-1.4,0.9-1.9
			c0.6-0.4,1.5-0.7,2.5-0.7h2.1v-0.1c0-0.7-0.2-1.2-0.5-1.6c-0.4-0.4-0.9-0.5-1.5-0.5c-0.5,0-1,0.1-1.3,0.4
			c-0.4,0.3-0.6,0.6-0.7,1.1h-1.4c0.1-0.6,0.2-1.1,0.6-1.5c0.3-0.4,0.8-0.7,1.3-0.9s1-0.3,1.6-0.3c1.1,0,1.9,0.3,2.5,0.9
			s0.8,1.4,0.8,2.4v4.9h-1.2l-0.1-1.4c-0.2,0.4-0.6,0.8-1,1.1C168.7,179.8,168.1,180,167.4,180z M167.6,178.9c0.5,0,0.9-0.1,1.3-0.4
			c0.4-0.3,0.7-0.6,0.8-1c0.2-0.4,0.3-0.9,0.3-1.3l0,0h-2c-0.8,0-1.4,0.1-1.7,0.4c-0.3,0.3-0.5,0.6-0.5,1s0.1,0.8,0.5,1
			C166.6,178.7,167,178.9,167.6,178.9z"/>
		<path class="st1" d="M177,180c-0.8,0-1.5-0.2-2.1-0.5c-0.6-0.4-1.1-0.9-1.4-1.5s-0.5-1.3-0.5-2.1s0.2-1.5,0.5-2.1s0.8-1.1,1.4-1.5
			c0.6-0.4,1.3-0.5,2.1-0.5c0.7,0,1.2,0.1,1.7,0.4c0.5,0.3,0.9,0.6,1.2,1.1v-4.9h1.3v11.5H180l-0.1-1.3c-0.3,0.4-0.6,0.7-1.1,1
			C178.3,179.8,177.7,180,177,180z M177.1,178.8c0.5,0,1-0.1,1.4-0.4c0.4-0.2,0.7-0.6,1-1c0.2-0.5,0.3-1,0.3-1.6s-0.1-1.1-0.3-1.6
			s-0.6-0.8-1-1s-0.9-0.4-1.4-0.4s-1,0.1-1.4,0.4s-0.7,0.6-1,1c-0.2,0.5-0.3,1-0.3,1.6s0.1,1.1,0.3,1.6c0.2,0.4,0.6,0.8,1,1
			C176.2,178.7,176.6,178.8,177.1,178.8z"/>
		<path class="st1" d="M191.3,180c-0.8,0-1.4-0.2-2-0.5s-1.1-0.8-1.4-1.5c-0.3-0.6-0.5-1.4-0.5-2.2s0.2-1.6,0.5-2.2
			c0.3-0.6,0.8-1.1,1.4-1.5c0.6-0.3,1.3-0.5,2-0.5s1.4,0.2,2,0.5s1.1,0.8,1.4,1.5c0.3,0.6,0.5,1.4,0.5,2.2s-0.2,1.6-0.5,2.2
			c-0.3,0.6-0.8,1.1-1.4,1.5C192.7,179.8,192.1,180,191.3,180z M191.3,178.8c0.5,0,0.9-0.1,1.3-0.3s0.7-0.6,1-1
			c0.2-0.4,0.4-1,0.4-1.7s-0.1-1.2-0.4-1.7c-0.2-0.4-0.6-0.8-0.9-1c-0.4-0.2-0.8-0.3-1.3-0.3s-0.9,0.1-1.3,0.3s-0.7,0.6-1,1
			c-0.2,0.4-0.4,1-0.4,1.7s0.1,1.2,0.4,1.7s0.6,0.8,0.9,1S190.9,178.8,191.3,178.8z"/>
		<path class="st1" d="M197.6,179.8V173h-1.2v-1.1h1.2v-1.4c0-0.8,0.2-1.3,0.6-1.7c0.4-0.3,0.9-0.5,1.7-0.5h0.8v1.2h-0.6
			c-0.4,0-0.7,0.1-0.9,0.2c-0.2,0.2-0.3,0.4-0.3,0.8v1.3h1.9v1.1h-1.9v6.8L197.6,179.8L197.6,179.8z"/>
		<path class="st1" d="M28.6,202c-0.8,0-1.4-0.2-2-0.5c-0.6-0.4-1.1-0.8-1.4-1.5s-0.5-1.4-0.5-2.2s0.2-1.6,0.5-2.2
			c0.3-0.6,0.8-1.1,1.4-1.5s1.3-0.5,2-0.5c0.9,0,1.7,0.2,2.4,0.7c0.6,0.5,1,1.1,1.2,2h-1.4c-0.1-0.5-0.4-0.9-0.8-1.1
			c-0.4-0.3-0.9-0.4-1.5-0.4c-0.5,0-0.9,0.1-1.3,0.3s-0.7,0.6-1,1c-0.2,0.5-0.4,1-0.4,1.7s0.1,1.2,0.4,1.7s0.6,0.8,1,1
			s0.8,0.3,1.3,0.3s1-0.1,1.5-0.4c0.4-0.3,0.7-0.7,0.8-1.2h1.4c-0.2,0.8-0.6,1.4-1.2,1.9C30.3,201.7,29.5,202,28.6,202z"/>
		<path class="st1" d="M34,201.8v-11.5h1.3v11.5H34z"/>
		<path class="st1" d="M41.2,202c-0.8,0-1.4-0.2-2-0.5s-1.1-0.8-1.4-1.5c-0.4-0.6-0.5-1.4-0.5-2.2s0.2-1.6,0.5-2.2
			c0.4-0.6,0.8-1.1,1.4-1.5s1.3-0.5,2-0.5c0.8,0,1.4,0.2,2,0.5s1.1,0.8,1.4,1.5c0.3,0.6,0.5,1.4,0.5,2.2s-0.2,1.6-0.5,2.2
			c-0.3,0.6-0.8,1.1-1.4,1.5S42,202,41.2,202z M41.2,200.8c0.5,0,0.9-0.1,1.3-0.3c0.4-0.2,0.7-0.6,1-1c0.2-0.4,0.4-1,0.4-1.7
			s-0.1-1.2-0.4-1.7c-0.2-0.4-0.6-0.8-1-1s-0.8-0.3-1.3-0.3s-0.9,0.1-1.3,0.3c-0.4,0.2-0.7,0.6-1,1c-0.2,0.4-0.4,1-0.4,1.7
			s0.1,1.2,0.4,1.7s0.6,0.8,1,1S40.8,200.8,41.2,200.8z"/>
		<path class="st1" d="M50.1,202c-0.9,0-1.7-0.2-2.4-0.7c-0.6-0.5-1-1.1-1.1-1.9H48c0.1,0.4,0.3,0.8,0.7,1.1
			c0.3,0.3,0.8,0.5,1.4,0.5c0.6,0,1-0.1,1.2-0.4c0.3-0.2,0.4-0.5,0.4-0.9c0-0.5-0.2-0.8-0.5-1s-0.8-0.3-1.5-0.4
			c-0.4-0.1-0.8-0.2-1.3-0.4s-0.8-0.4-1.1-0.7s-0.4-0.7-0.4-1.2c0-0.7,0.3-1.3,0.8-1.7s1.2-0.7,2.1-0.7c0.8,0,1.5,0.2,2.1,0.6
			c0.5,0.4,0.8,1,0.9,1.8h-1.2c-0.1-0.4-0.2-0.7-0.5-0.9s-0.7-0.3-1.2-0.3s-0.8,0.1-1.1,0.3s-0.4,0.5-0.4,0.8s0.2,0.6,0.5,0.8
			s0.8,0.3,1.4,0.5c0.5,0.1,1,0.2,1.4,0.4s0.8,0.4,1.1,0.7s0.4,0.7,0.4,1.3c0,0.7-0.3,1.3-0.8,1.8C51.8,201.8,51,202,50.1,202z"/>
		<path class="st1" d="M58.6,202c-0.8,0-1.4-0.2-2-0.5c-0.6-0.4-1.1-0.8-1.4-1.5c-0.3-0.6-0.5-1.3-0.5-2.2c0-0.8,0.2-1.6,0.5-2.2
			c0.3-0.6,0.8-1.1,1.4-1.5c0.6-0.4,1.3-0.5,2.1-0.5s1.4,0.2,2,0.5c0.6,0.4,1,0.8,1.3,1.4c0.3,0.6,0.5,1.2,0.5,1.8
			c0,0.1,0,0.2,0,0.4c0,0.1,0,0.2,0,0.4h-6.3c0,0.6,0.2,1.1,0.4,1.5s0.6,0.7,0.9,0.9c0.4,0.2,0.8,0.3,1.2,0.3c0.6,0,1-0.1,1.4-0.4
			c0.4-0.3,0.6-0.6,0.8-1h1.3c-0.2,0.7-0.6,1.3-1.2,1.8C60.3,201.8,59.6,202,58.6,202z M58.6,194.8c-0.6,0-1.2,0.2-1.7,0.6
			c-0.5,0.4-0.8,1-0.9,1.7h5c0-0.7-0.3-1.3-0.7-1.7C59.9,195,59.3,194.8,58.6,194.8z"/>
		<path class="st1" d="M71.6,201.8c-0.7,0-1.3-0.2-1.7-0.5c-0.4-0.3-0.6-1-0.6-1.9V195h-1.4v-1.1h1.4l0.2-1.9h1.1v1.9h2.3v1.1h-2.3
			v4.4c0,0.5,0.1,0.8,0.3,1c0.2,0.2,0.6,0.3,1.1,0.3h0.8v1.1H71.6z"/>
		<path class="st1" d="M78,202c-0.8,0-1.4-0.2-2-0.5s-1.1-0.8-1.4-1.5c-0.4-0.6-0.5-1.4-0.5-2.2s0.2-1.6,0.5-2.2
			c0.4-0.6,0.8-1.1,1.4-1.5s1.3-0.5,2-0.5c0.8,0,1.4,0.2,2,0.5s1.1,0.8,1.4,1.5c0.3,0.6,0.5,1.4,0.5,2.2s-0.2,1.6-0.5,2.2
			c-0.3,0.6-0.8,1.1-1.4,1.5C79.4,201.8,78.7,202,78,202z M78,200.8c0.5,0,0.9-0.1,1.3-0.3s0.7-0.6,1-1c0.2-0.4,0.4-1,0.4-1.7
			s-0.1-1.2-0.4-1.7c-0.2-0.5-0.6-0.8-0.9-1s-0.8-0.3-1.3-0.3s-0.9,0.1-1.3,0.3s-0.7,0.6-1,1c-0.2,0.4-0.4,1-0.4,1.7
			s0.1,1.2,0.4,1.7c0.2,0.5,0.6,0.8,0.9,1S77.6,200.8,78,200.8z"/>
		<path class="st1" d="M89,205.3l2-4.3h-0.5l-3.2-7.2h1.5l2.6,6.2l2.8-6.2h1.4l-5.2,11.5H89z"/>
		<path class="st1" d="M99.9,202c-0.8,0-1.4-0.2-2-0.5s-1.1-0.8-1.4-1.5c-0.3-0.6-0.5-1.4-0.5-2.2s0.2-1.6,0.5-2.2s0.8-1.1,1.4-1.5
			s1.3-0.5,2-0.5c0.8,0,1.4,0.2,2,0.5s1.1,0.8,1.4,1.5c0.3,0.6,0.5,1.4,0.5,2.2s-0.2,1.6-0.5,2.2c-0.3,0.6-0.8,1.1-1.4,1.5
			C101.3,201.8,100.6,202,99.9,202z M99.9,200.8c0.5,0,0.9-0.1,1.3-0.3s0.7-0.6,1-1c0.2-0.4,0.4-1,0.4-1.7s-0.1-1.2-0.4-1.7
			c-0.2-0.4-0.6-0.8-0.9-1s-0.8-0.3-1.3-0.3s-0.9,0.1-1.3,0.3s-0.7,0.6-1,1c-0.2,0.4-0.4,1-0.4,1.7s0.1,1.2,0.4,1.7s0.6,0.8,0.9,1
			S99.4,200.8,99.9,200.8z"/>
		<path class="st1" d="M108.6,202c-0.9,0-1.7-0.3-2.2-0.9c-0.6-0.6-0.8-1.5-0.8-2.6v-4.6h1.3v4.5c0,1.7,0.7,2.5,2,2.5
			c0.7,0,1.3-0.2,1.7-0.7c0.4-0.5,0.7-1.2,0.7-2.1V194h1.3v7.9h-1.2l-0.1-1.4c-0.2,0.5-0.6,0.9-1.1,1.2
			C109.7,201.9,109.2,202,108.6,202z"/>
		<path class="st1" d="M114.9,201.8v-7.9h1.2l0.1,1.5c0.2-0.5,0.6-0.9,1.1-1.2s1.1-0.5,1.9-0.5v1.4h-0.4c-0.5,0-0.9,0.1-1.3,0.2
			c-0.4,0.2-0.7,0.5-0.9,0.8c-0.2,0.4-0.4,0.9-0.4,1.6v4L114.9,201.8L114.9,201.8z"/>
		<path class="st1" d="M129.2,202c-0.7,0-1.2-0.1-1.7-0.4c-0.5-0.3-0.9-0.6-1.2-1.1l-0.1,1.3H125v-11.5h1.3v4.9
			c0.3-0.4,0.6-0.7,1.1-1s1.1-0.5,1.8-0.5c0.8,0,1.5,0.2,2.1,0.5c0.6,0.4,1,0.9,1.4,1.5s0.5,1.3,0.5,2.1s-0.2,1.5-0.5,2.1
			s-0.8,1.1-1.4,1.5C130.6,201.8,129.9,202,129.2,202z M129,200.8c0.5,0,1-0.1,1.4-0.4s0.7-0.6,1-1c0.2-0.5,0.3-1,0.3-1.6
			s-0.1-1.1-0.3-1.6s-0.6-0.8-1-1s-0.9-0.4-1.4-0.4s-1,0.1-1.4,0.4c-0.4,0.2-0.7,0.6-1,1s-0.4,1-0.4,1.6s0.1,1.1,0.4,1.6
			c0.2,0.4,0.6,0.8,1,1C128,200.7,128.5,200.8,129,200.8z"/>
		<path class="st1" d="M138.5,202c-0.8,0-1.4-0.2-2-0.5c-0.6-0.4-1-0.8-1.4-1.5c-0.3-0.6-0.5-1.3-0.5-2.2c0-0.8,0.2-1.6,0.5-2.2
			s0.8-1.1,1.4-1.5c0.6-0.4,1.3-0.5,2.1-0.5s1.4,0.2,2,0.5s1,0.8,1.3,1.4c0.3,0.6,0.4,1.2,0.4,1.8c0,0.1,0,0.2,0,0.4
			c0,0.1,0,0.2,0,0.4H136c0,0.6,0.2,1.1,0.4,1.5s0.6,0.7,0.9,0.9c0.4,0.2,0.8,0.3,1.2,0.3c0.6,0,1-0.1,1.4-0.4s0.7-0.6,0.8-1h1.3
			c-0.2,0.7-0.6,1.3-1.2,1.8C140.2,201.8,139.5,202,138.5,202z M138.5,194.8c-0.6,0-1.2,0.2-1.7,0.6c-0.5,0.4-0.8,1-0.9,1.7h5
			c0-0.7-0.3-1.3-0.7-1.7C139.8,195,139.2,194.8,138.5,194.8z"/>
		<path class="st1" d="M147.7,202c-0.8,0-1.5-0.2-2.1-0.5c-0.6-0.4-1.1-0.9-1.4-1.5s-0.5-1.3-0.5-2.1s0.2-1.5,0.5-2.1
			s0.8-1.1,1.4-1.5c0.6-0.4,1.3-0.5,2.1-0.5c0.6,0,1.2,0.1,1.7,0.4c0.5,0.3,0.9,0.6,1.2,1.1v-4.9h1.3v11.5h-1.2l-0.1-1.3
			c-0.3,0.4-0.6,0.7-1.1,1C149,201.8,148.4,202,147.7,202z M147.8,200.8c0.5,0,1-0.1,1.4-0.4c0.4-0.2,0.7-0.6,1-1
			c0.2-0.5,0.3-1,0.3-1.6s-0.1-1.1-0.3-1.6s-0.6-0.8-1-1s-0.9-0.4-1.4-0.4s-1,0.1-1.4,0.4s-0.7,0.6-1,1c-0.2,0.5-0.3,1-0.3,1.6
			s0.1,1.1,0.3,1.6c0.2,0.4,0.6,0.8,1,1C146.8,200.7,147.3,200.8,147.8,200.8z"/>
		<path class="st1" d="M161.5,201.8c-0.7,0-1.3-0.2-1.7-0.5s-0.6-1-0.6-1.9V195h-1.4v-1.1h1.4l0.2-1.9h1.2v1.9h2.3v1.1h-2.3v4.4
			c0,0.5,0.1,0.8,0.3,1s0.6,0.3,1.1,0.3h0.8v1.1H161.5z"/>
		<path class="st1" d="M165.4,192.1c-0.3,0-0.5-0.1-0.7-0.3s-0.3-0.4-0.3-0.7s0.1-0.5,0.3-0.6c0.2-0.2,0.4-0.3,0.7-0.3
			s0.5,0.1,0.7,0.3s0.3,0.4,0.3,0.6c0,0.3-0.1,0.5-0.3,0.7C165.8,192,165.6,192.1,165.4,192.1z M164.7,201.8v-7.9h1.3v7.9H164.7z"/>
		<path class="st1" d="M168.4,201.8v-7.9h1.2l0.1,1.2c0.3-0.4,0.6-0.8,1-1s0.9-0.3,1.4-0.3c0.6,0,1.2,0.1,1.6,0.4
			c0.4,0.3,0.8,0.7,1.1,1.2c0.3-0.5,0.7-0.9,1.1-1.1c0.5-0.3,1-0.4,1.6-0.4c1,0,1.7,0.3,2.3,0.9c0.6,0.6,0.9,1.5,0.9,2.6v4.6h-1.3
			v-4.5c0-0.8-0.2-1.4-0.5-1.9c-0.3-0.4-0.8-0.6-1.4-0.6c-0.6,0-1.2,0.2-1.6,0.7c-0.4,0.5-0.6,1.2-0.6,2.1v4.1H174v-4.5
			c0-0.8-0.2-1.4-0.5-1.9c-0.3-0.4-0.8-0.6-1.4-0.6c-0.6,0-1.2,0.2-1.6,0.7c-0.4,0.5-0.6,1.2-0.6,2.1v4.1L168.4,201.8L168.4,201.8z"
			/>
		<path class="st1" d="M186.3,202c-0.8,0-1.4-0.2-2-0.5c-0.6-0.4-1.1-0.8-1.4-1.5c-0.3-0.6-0.5-1.3-0.5-2.2c0-0.8,0.2-1.6,0.5-2.2
			s0.8-1.1,1.4-1.5c0.6-0.4,1.3-0.5,2.1-0.5s1.4,0.2,2,0.5c0.6,0.4,1,0.8,1.3,1.4s0.4,1.2,0.4,1.8c0,0.1,0,0.2,0,0.4
			c0,0.1,0,0.2,0,0.4h-6.3c0,0.6,0.2,1.1,0.4,1.5s0.6,0.7,0.9,0.9c0.4,0.2,0.8,0.3,1.2,0.3c0.6,0,1-0.1,1.4-0.4
			c0.4-0.3,0.7-0.6,0.8-1h1.3c-0.2,0.7-0.6,1.3-1.2,1.8C188,201.8,187.2,202,186.3,202z M186.3,194.8c-0.6,0-1.2,0.2-1.7,0.6
			c-0.5,0.4-0.8,1-0.9,1.7h5c0-0.7-0.3-1.3-0.7-1.7C187.5,195,186.9,194.8,186.3,194.8z"/>
		<path class="st1" d="M192.3,201.9c-0.3,0-0.5-0.1-0.7-0.3s-0.3-0.4-0.3-0.6s0.1-0.5,0.3-0.6c0.2-0.2,0.4-0.3,0.7-0.3
			s0.5,0.1,0.7,0.3s0.3,0.4,0.3,0.6s-0.1,0.5-0.3,0.6C192.7,201.8,192.5,201.9,192.3,201.9z"/>
		<path class="st2" d="M29.4,69.4c0.5-0.5,0.9-0.8,1.1-1c0.2-0.1,0.5-0.2,1-0.2c1.3,0,1.9,0.4,1.9,1.3c0,0.8-0.6,1.4-1.7,2
			c-0.7,0.4-1.3,1.8-1.7,4.2c-0.2,1.1-0.3,2.2-0.3,3.4c0,1.2,0.1,2.4,0.2,3.6c0.1,1.6,0.4,2.7,0.7,3.3c0.3,0.6,0.8,1,1.4,1.1
			c1.1,0.2,1.8,0.5,1.9,1c0,0.1,0,0.1,0,0.2c0,0.3-0.2,0.6-0.5,0.9s-0.7,0.5-1.1,0.6c-0.1,0-0.2,0-0.5,0c-1,0-2-0.2-2.8-0.7
			c-0.3-0.2-0.7-0.7-1.1-1.5s-0.8-1.6-1-2.4c-0.3-1.2-0.5-3.2-0.5-6.1c0-1.1,0-2.2,0.2-3.2c0.2-1.7,0.5-3,0.9-3.9
			C28,71.1,28.6,70.2,29.4,69.4z"/>
		<path class="st2" d="M39.5,68.1l0.8-1h5.2l0.8,0.8c0.5,0.5,0.9,1.2,1.1,2c0.2,0.8,0.4,2.1,0.6,3.8c0.1,0.6,0.1,1.6,0.1,2.8
			c0,2.9-0.3,5.4-0.8,7.8c-0.5,2.3-1.2,3.9-2.1,4.8c-0.3,0.3-0.7,0.5-1.2,0.7s-1,0.3-1.4,0.3c-0.2,0-0.3,0-0.4-0.1
			c-0.2-0.1-0.5-0.2-0.9-0.2c-0.3,0-0.6-0.2-1-0.7s-0.7-1-0.9-1.7c-0.4-1.1-0.6-2.3-0.8-3.6s-0.2-3.4-0.2-6.3v-2
			c0-2.6,0.1-4.4,0.2-5.3C38.7,69.5,39,68.7,39.5,68.1z M43.4,70.1c-0.2-0.5-0.5-0.8-0.6-0.8c-0.2,0-0.4,0.4-0.7,1.3
			c-0.2,0.7-0.3,2-0.3,3.9c0,1.5,0.1,3.1,0.2,4.8c0.1,1.6,0.3,3.1,0.5,4.5s0.5,2.1,0.7,2.1c0.1,0,0.3-0.3,0.4-0.9
			c0.1-0.5,0.3-0.9,0.5-1.3c0.1-0.2,0.2-1.4,0.4-3.7c0.1-1.2,0.1-2.3,0.1-3.3C44.5,73.7,44.1,71.5,43.4,70.1z"/>
		<path class="st2" d="M53.5,68.1l0.8-1h5.2l0.8,0.8c0.5,0.5,0.9,1.2,1.1,2c0.2,0.8,0.4,2.1,0.5,3.8c0.1,0.6,0.1,1.6,0.1,2.8
			c0,2.9-0.3,5.4-0.8,7.8c-0.5,2.3-1.2,3.9-2.1,4.8c-0.3,0.3-0.7,0.5-1.2,0.7s-1,0.3-1.4,0.3c-0.2,0-0.3,0-0.4-0.1
			c-0.2-0.1-0.5-0.2-0.9-0.2c-0.3,0-0.6-0.2-1-0.7s-0.7-1-0.9-1.7c-0.4-1.1-0.6-2.3-0.8-3.6c-0.1-1.3-0.2-3.4-0.2-6.3v-2
			c0-2.6,0.1-4.4,0.2-5.3C52.7,69.5,53,68.7,53.5,68.1z M57.5,70.1c-0.2-0.5-0.5-0.8-0.6-0.8c-0.2,0-0.4,0.4-0.7,1.3
			c-0.2,0.7-0.3,2-0.3,3.9c0,1.5,0.1,3.1,0.2,4.8c0.1,1.6,0.3,3.1,0.5,4.5s0.5,2.1,0.7,2.1c0.1,0,0.3-0.3,0.4-0.9
			c0.1-0.5,0.3-0.9,0.5-1.3c0.1-0.2,0.2-1.4,0.4-3.7c0.1-1.2,0.1-2.3,0.1-3.3C58.5,73.7,58.2,71.5,57.5,70.1z"/>
		<path class="st2" d="M66.8,67.4c0.2-0.2,0.5-0.4,0.8-0.4c0.2,0,0.5,0,0.6,0c0.6,0.1,1.1,0.3,1.2,0.5c0.3,0.4,0.5,2.9,0.5,7.6v2.5
			v2.2c0,3.7,0,5.7,0.1,6c0.1,0.5,0.6,0.7,1.4,0.7c0.4,0,0.7,0,1,0c0.2,0,0.5,0,0.8,0c0.5,0,0.9,0.1,1.1,0.2
			c0.2,0.2,0.3,0.5,0.3,0.9c0,0.3-0.1,0.5-0.2,0.7c-0.1,0.1-0.4,0.4-0.8,0.6c-0.8,0.4-1.6,0.6-2.4,0.7c-1.2,0.1-1.8,0.1-1.8,0.1
			c-0.1,0-0.2,0-0.3,0c-0.3,0-0.7-0.1-1.1-0.3c-0.4-0.2-0.7-0.4-1-0.7c-0.4-0.5-0.6-1.9-0.6-4.3c0-0.6,0-1.7,0.1-3.3
			c0.1-1.5,0.1-3,0.1-4.8c0-4.1-0.1-6.6-0.2-7.6c-0.1-0.4-0.1-0.6-0.1-0.7C66.4,67.9,66.5,67.7,66.8,67.4z"/>
		<path class="st2" d="M90.4,68.6c0.1,0,0.8,0,2.1,0c1.5,0,2.6,0.3,3.3,0.9c0.7,0.6,1.3,1.7,1.8,3.3c0.5,1.5,0.7,3.2,0.7,5.2
			c0,0.4,0,0.9-0.1,1.4c-0.1,0.4-0.2,1-0.3,1.9c-0.1,0.8-0.2,1.6-0.3,2.2c-0.1,0.7-0.2,1.1-0.4,1.4c-0.1,0.2-0.2,0.5-0.2,0.8
			c0,0.2-0.1,0.6-0.4,1.2s-0.5,1-0.7,1.3c-0.3,0.4-0.8,0.8-1.5,1.1c-0.6,0.3-1.3,0.5-1.9,0.6C92,90,91.7,90,91.6,90
			c-0.3,0-0.7-0.1-1-0.5L90,88.9v-7.1v-2.1c0-3.5,0-5.4-0.1-5.8c-0.2-1.1-0.2-2.1-0.2-2.9C89.7,69.5,89.9,68.7,90.4,68.6z
			 M94.4,73.7c-0.4-1.5-0.8-2.2-1-2.2l-0.1,0.1v0.1c0,0.1,0,0.1,0,0.3c0,0.1,0,0.2,0,0.4c0,0.4,0,1.2,0.1,2.4
			c0.1,1.4,0.1,3.4,0.2,5.8c0,2.3,0.1,3.5,0.3,3.5c0.1,0,0.1-0.2,0.3-0.6c0.5-1.8,0.8-3.7,0.8-5.7C94.9,76.2,94.7,74.9,94.4,73.7z"
			/>
		<path class="st2" d="M103.7,68.1l0.8-1h5.2l0.9,0.9c0.5,0.5,0.9,1.2,1.1,2s0.4,2.1,0.6,3.8c0.1,0.6,0.1,1.6,0.1,2.8
			c0,2.9-0.3,5.4-0.8,7.8c-0.5,2.3-1.2,3.9-2.1,4.8c-0.3,0.3-0.7,0.5-1.2,0.7s-1,0.3-1.4,0.3c-0.2,0-0.3,0-0.4-0.1
			c-0.2-0.1-0.5-0.2-0.9-0.2c-0.3,0-0.6-0.2-1-0.7s-0.7-1-0.9-1.7c-0.4-1.1-0.7-2.3-0.8-3.6c-0.1-1.3-0.2-3.4-0.2-6.3v-2
			c0-2.6,0.1-4.4,0.2-5.3C103,69.5,103.3,68.7,103.7,68.1z M107.7,70.1c-0.2-0.5-0.5-0.8-0.6-0.8c-0.2,0-0.4,0.4-0.7,1.3
			c-0.2,0.7-0.3,2-0.3,3.9c0,1.5,0.1,3.1,0.2,4.8c0.1,1.6,0.3,3.1,0.5,4.5s0.5,2.1,0.7,2.1c0.1,0,0.3-0.3,0.4-0.9
			c0.1-0.5,0.3-0.9,0.5-1.3c0.1-0.2,0.2-1.4,0.4-3.7c0.1-1.2,0.1-2.3,0.1-3.3C108.7,73.7,108.4,71.5,107.7,70.1z"/>
		<path class="st2" d="M117.9,66.9c0.1,0,0.3,0,0.6,0c0.9,0,1.4,0.1,1.4,0.2s0.1,0.2,0.2,0.5c0.2,0.4,0.3,0.8,0.3,1.2
			c0,1.1,0.2,2.9,0.8,5.4c0.1,1,0.3,2,0.6,2.9c0.2,0.9,0.4,1.4,0.5,1.4s0.1-0.1,0.1-0.3c0-0.8,0.6-1.3,1.7-1.7
			c0.5-0.1,0.9-0.2,1.1-0.2c0.4,0,0.8,0.2,1,0.5s0.5,0.9,0.7,1.7c0.2,0.6,0.3,0.9,0.4,0.8s0.2-0.7,0.4-1.9c0.2-1.2,0.4-2.1,0.4-2.8
			c0.1-0.4,0.1-0.9,0.2-1.6s0.2-1.4,0.3-2.2c0.2-1.5,0.3-2.3,0.4-2.6c0.1-0.3,0.5-0.6,1-0.8c0.5-0.2,1-0.4,1.4-0.4s0.7,0.2,1,0.5
			s0.4,0.7,0.4,1.1v0.1v0.1c-0.7,3.8-1.3,7.4-1.7,10.9c-0.3,2.5-0.5,4.2-0.6,5.3c-0.1,1.1-0.3,2-0.5,2.8s-0.4,1.3-0.6,1.4
			c-0.2,0.2-0.5,0.3-0.8,0.3c-0.1,0-0.4,0-0.7,0c-0.9,0-1.5-0.2-1.7-0.5c-0.1-0.1-0.3-0.6-0.6-1.4c-0.3-0.8-0.5-1.4-0.6-1.9
			c-0.1-0.3-0.2-0.5-0.4-0.6c-0.1,0-0.2,0.1-0.2,0.4c0,0.5-0.1,1.1-0.4,1.8c-0.3,0.7-0.6,1.2-0.9,1.5s-0.6,0.5-0.9,0.5
			c-0.2,0-0.4,0-0.5,0c-0.9-0.2-1.5-0.5-1.8-0.9s-0.5-1.2-0.7-2.6c-1-7.2-1.7-12.3-2.2-15.1c-0.2-1.1-0.3-2-0.3-2.6
			c0-0.4,0.1-0.8,0.3-1C117.3,67.1,117.6,67,117.9,66.9z"/>
		<path class="st2" d="M138.2,67.7c0.4-0.2,0.8-0.3,1.3-0.3c0.8,0,1.4,0.5,1.7,1.6c0.2,0.8,0.6,1.7,1,2.6s0.7,1.6,0.9,2.2
			c0.3,0.9,0.5,1.5,0.8,1.7c0.1,0.1,0.2,0.2,0.2,0.2c0.1,0,0.2-0.6,0.3-1.8c0.1-1.1,0.1-1.9,0.1-2.3v-0.5c0-0.2,0-0.5,0-0.8
			c0-0.7,0.2-1.2,0.6-1.6c0.3-0.4,0.9-0.6,1.6-0.6c0.5,0,0.9,0.1,1.2,0.4c0.2,0.2,0.4,0.6,0.4,1c0,0.5,0,1-0.1,1.5
			s-0.1,3.9-0.2,10.2c0,3.9-0.1,6.3-0.1,7.1c0,0.8-0.1,1.3-0.3,1.5c-0.3,0.3-0.7,0.5-1.3,0.5c-1.2,0-1.9-0.6-2.1-1.8
			c-0.1-0.4-0.3-1.3-0.8-2.5c-0.4-1.1-0.7-2.1-0.8-3c-0.2-1.1-0.6-2.7-1.2-4.6c-0.1-0.2-0.1-0.2-0.1-0.2c-0.1,0-0.2,1.2-0.2,3.5v2
			v2.2c0,2.3-0.1,3.6-0.2,3.9c-0.3,0.8-0.9,1.2-1.8,1.2c-0.5,0-1-0.2-1.3-0.5c-0.2-0.3-0.4-0.6-0.4-0.8c0-0.1,0-0.3,0.1-0.8
			c0.1-0.9,0.2-4.3,0.2-10.1c0-6.5,0.1-9.9,0.2-10.3c0.1-0.2,0.2-0.4,0.5-0.5C138.1,67.8,138.1,67.7,138.2,67.7z"/>
		<path class="st3" d="M263.2,170.8l-10.2,0.1c-2.5,0-4.5-2-4.5-4.5l-1.3-136.9c0-3.4,2.7-6.1,6-6.2l7-0.1c3.4,0,6.1,2.7,6.2,6.1
			l1.3,136.9C267.7,168.8,265.7,170.8,263.2,170.8z"/>
		<path class="st3" d="M258.2,203.7c12.1,0,21.9-9.8,21.9-21.9c0-12.1-9.8-21.9-21.9-21.9c-12.1,0-21.8,9.8-21.8,21.9
			C236.3,193.9,246.1,203.7,258.2,203.7z"/>
		<path class="st4" d="M258.2,199.1c9.6,0,17.3-7.8,17.3-17.3c0-9.6-7.8-17.3-17.3-17.3c-9.6,0-17.3,7.8-17.3,17.3
			C240.8,191.4,248.6,199.1,258.2,199.1z"/>
		<path class="st0" d="M262.2,168.6l-8.9,0.1l-0.9-89.9c0-2.7,2.1-4.8,4.8-4.9c2.7,0,4.9,2.1,4.9,4.8L262.2,168.6z"/>
		<path class="st4" d="M262.2,189.7l-8.9,0.1l-0.8-60.3c0-2.7,2.1-4.8,4.8-4.9c2.7,0,4.9,2.1,4.9,4.8V189.7z"/>
		<path class="st5" d="M262.4,55.4h-3.5c-1.7,0-3.1-1.4-3.1-3.1c0-1.7,1.4-3.1,3.1-3.1h3.5c1.7,0,3.1,1.4,3.1,3.1
			S264.1,55.4,262.4,55.4z"/>
		<path class="st5" d="M262.5,70.8H259c-1.7,0-3.1-1.4-3.1-3.1s1.4-3.1,3.1-3.1h3.5c1.7,0,3.1,1.3,3.1,3
			C265.6,69.4,264.2,70.8,262.5,70.8z"/>
		<path class="st5" d="M262.7,86.2h-3.5c-1.7,0-3.1-1.4-3.1-3.1s1.4-3.1,3-3.1h3.5c1.7,0,3.1,1.3,3.1,3.1
			C265.7,84.8,264.4,86.2,262.7,86.2z"/>
		<path class="st5" d="M262.8,101.6h-3.5c-1.7,0-3.1-1.4-3.1-3.1s1.3-3.1,3-3.1h3.5c1.7,0,3.1,1.4,3.1,3.1
			C265.9,100.2,264.5,101.6,262.8,101.6z"/>
		<path class="st5" d="M263,117.1h-3.5c-1.7,0-3.1-1.4-3.1-3.1s1.4-3.1,3-3.1h3.5c1.7,0,3.1,1.4,3.1,3.1
			C266,115.6,264.7,117,263,117.1z"/>
		<path class="st5" d="M263.1,132.5h-3.5c-1.7,0-3.1-1.3-3.1-3c0-1.7,1.4-3.1,3.1-3.1h3.5c1.7,0,3.1,1.3,3.1,3.1
			C266.2,131.1,264.8,132.5,263.1,132.5z"/>
		<path class="st2" d="M290.1,113.8l-1.9,22.7c-0.1,1.1,0.6,2,1.7,2.2l1.2,0.2c1.4,0.3,2.1,1.9,1.3,3.1l-8.7,13.1
			c-0.9,1.3-2.9,1.2-3.5-0.3l-7.4-16.2c-0.7-1.5,0.6-3.2,2.3-2.9h0.1c1.3,0.3,2.5-0.8,2.5-2.1l-0.2-21.3
			C277.1,97.5,291.7,104.5,290.1,113.8z"/>
		<path class="st2" d="M313.2,57.7l-5.8,1.6c-0.2,0.1-0.5,0-0.7-0.1l-4.5-2.6c-0.6-0.3-0.6-1.2,0-1.6l4.5-2.6
			c0.2-0.1,0.5-0.2,0.7-0.1l5.8,1.6c0.5,0.1,1-0.2,1.1-0.6l0,0c0.1-0.5-0.1-1-0.6-1.1l-2.4-0.6c-0.8-0.2-0.9-1.2-0.2-1.6l1.7-1
			c0.4-0.2,0.6-0.8,0.3-1.2l0,0c-0.2-0.4-0.8-0.6-1.2-0.3l-1.7,1c-0.7,0.4-1.5-0.2-1.3-1l0.6-2.4c0.1-0.5-0.2-1-0.6-1.1l0,0
			c-0.5-0.1-1,0.1-1.1,0.6l-1.6,5.8c-0.1,0.2-0.2,0.4-0.4,0.6l-4.5,2.6c-0.6,0.4-1.4-0.1-1.4-0.8v-5.2c0-0.2,0.1-0.5,0.3-0.6
			l4.3-4.3c0.4-0.3,0.4-0.9,0-1.3c-0.4-0.3-0.9-0.3-1.3,0l-1.7,1.7c-0.6,0.6-1.5,0.2-1.5-0.6v-2c0-0.5-0.4-0.9-0.9-0.9l0,0
			c-0.5,0-0.9,0.4-0.9,0.9v2c0,0.8-1,1.2-1.5,0.6l-1.7-1.7c-0.3-0.3-0.9-0.3-1.3,0c-0.4,0.4-0.4,0.9,0,1.3L298,47
			c0.2,0.2,0.3,0.4,0.3,0.6v5.2c0,0.7-0.8,1.1-1.4,0.8l-4.5-2.6c-0.2-0.1-0.4-0.3-0.4-0.6l-1.6-5.8c-0.1-0.5-0.6-0.8-1.1-0.6
			s-0.8,0.6-0.6,1.1l0.6,2.4c0.2,0.8-0.6,1.4-1.3,1l-1.7-1c-0.4-0.2-1-0.1-1.2,0.3l0,0c-0.2,0.4-0.1,1,0.3,1.2l1.7,1
			c0.7,0.4,0.6,1.4-0.2,1.7l-2.4,0.6c-0.5,0.1-0.8,0.6-0.6,1.1l0,0c0.1,0.5,0.6,0.8,1.1,0.6l5.8-1.6c0.2-0.1,0.5,0,0.7,0.1l4.5,2.6
			c0.6,0.3,0.6,1.2,0,1.6l-4.5,2.6c-0.2,0.1-0.5,0.2-0.7,0.1l-5.8-1.6c-0.5-0.1-1,0.2-1.1,0.6l0,0c-0.1,0.5,0.1,1,0.6,1.1l2.4,0.6
			c0.8,0.2,0.9,1.2,0.2,1.6l-1.7,1c-0.4,0.2-0.6,0.8-0.3,1.2l0,0c0.2,0.4,0.8,0.6,1.2,0.3l1.7-1c0.7-0.4,1.5,0.2,1.3,1l-0.6,2.3
			c-0.1,0.5,0.1,1,0.6,1.1s1-0.2,1.1-0.6l1.6-5.9c0.1-0.2,0.2-0.4,0.4-0.5l4.5-2.6c0.6-0.3,1.4,0.1,1.4,0.8V64
			c0,0.2-0.1,0.5-0.3,0.6l-4.4,4.4c-0.4,0.4-0.4,0.9,0,1.3s0.9,0.4,1.3,0l1.7-1.7c0.6-0.6,1.5-0.2,1.5,0.6v2c0,0.5,0.4,0.9,0.9,0.9
			l0,0c0.5,0,0.9-0.4,0.9-0.9v-2c0-0.8,1-1.2,1.5-0.6l1.7,1.7c0.4,0.4,0.9,0.4,1.3,0c0.4-0.3,0.4-0.9,0-1.3l-4.3-4.3
			c-0.2-0.2-0.3-0.4-0.3-0.6v-5.2c0-0.7,0.8-1.1,1.4-0.8l4.5,2.6c0.2,0.1,0.4,0.3,0.4,0.5l1.6,5.9c0.1,0.5,0.6,0.8,1.1,0.6l0,0
			c0.5-0.1,0.8-0.6,0.6-1.1l-0.6-2.4c-0.2-0.8,0.6-1.4,1.3-1l1.7,1c0.4,0.2,1,0.1,1.2-0.3l0,0c0.2-0.4,0.1-1-0.3-1.2l-1.7-1
			c-0.7-0.4-0.5-1.4,0.2-1.6l2.4-0.6c0.5-0.1,0.8-0.6,0.6-1.1l0,0C314.2,57.9,313.7,57.6,313.2,57.7z"/>
		<path class="st2" d="M319.6,180.1l-5.9,1.6c-0.2,0.1-0.5,0-0.7-0.1l-4.4-2.6c-0.6-0.4-0.6-1.2,0-1.6l4.5-2.6
			c0.2-0.1,0.5-0.1,0.7-0.1l5.9,1.6c0.5,0.1,1-0.2,1.1-0.6l0,0c0.1-0.5-0.1-1-0.6-1.1l-2.4-0.6c-0.8-0.2-0.9-1.2-0.2-1.7l1.7-1
			c0.4-0.2,0.6-0.8,0.3-1.2l0,0c-0.2-0.4-0.8-0.6-1.2-0.3l-1.7,1c-0.7,0.4-1.5-0.2-1.3-1l0.6-2.4c0.1-0.5-0.2-1-0.6-1.1l0,0
			c-0.5-0.1-1,0.1-1.1,0.6l-1.6,5.9c-0.1,0.2-0.2,0.4-0.4,0.5l-4.5,2.6c-0.6,0.4-1.3-0.1-1.3-0.8v-5.2c0-0.2,0.1-0.5,0.3-0.6
			l4.3-4.3c0.3-0.4,0.3-0.9,0-1.3c-0.4-0.4-0.9-0.4-1.3,0l-1.7,1.7c-0.6,0.6-1.5,0.2-1.5-0.6v-2c0-0.5-0.4-0.9-0.9-0.9l0,0
			c-0.5,0-0.9,0.4-0.9,0.9v2c0,0.8-1,1.2-1.5,0.6l-1.7-1.7c-0.4-0.4-0.9-0.4-1.3,0c-0.3,0.4-0.3,0.9,0,1.3l4.3,4.3
			c0.2,0.2,0.3,0.4,0.3,0.6v5.2c0,0.7-0.8,1.1-1.4,0.8l-4.5-2.6c-0.2-0.1-0.4-0.3-0.4-0.5l-1.6-5.9c-0.1-0.5-0.6-0.8-1.1-0.6
			c-0.5,0.1-0.8,0.6-0.6,1.1l0.6,2.4c0.2,0.8-0.6,1.4-1.3,1l-1.7-1c-0.4-0.2-1-0.1-1.2,0.3l0,0c-0.2,0.4-0.1,1,0.3,1.2l1.7,1
			c0.7,0.4,0.5,1.4-0.2,1.6l-2.4,0.6c-0.5,0.1-0.8,0.6-0.6,1.1l0,0c0.1,0.5,0.6,0.8,1.1,0.6l5.9-1.6c0.2-0.1,0.5,0,0.7,0.1l4.5,2.6
			c0.6,0.4,0.6,1.2,0,1.6l-4.5,2.6c-0.2,0.1-0.4,0.1-0.7,0.1l-5.9-1.6c-0.5-0.1-1,0.2-1.1,0.6l0,0c-0.1,0.5,0.2,1,0.6,1.1l2.4,0.6
			c0.8,0.2,0.9,1.2,0.2,1.6l-1.7,1c-0.4,0.2-0.6,0.8-0.3,1.2l0,0c0.2,0.4,0.8,0.6,1.2,0.3l1.7-1c0.7-0.4,1.5,0.2,1.3,1l-0.6,2.4
			c-0.1,0.5,0.1,1,0.6,1.1s1-0.1,1.1-0.6l1.6-5.9c0.1-0.2,0.2-0.4,0.4-0.5l4.5-2.6c0.6-0.4,1.4,0.1,1.4,0.8v5.2
			c0,0.2-0.1,0.5-0.3,0.6l-4.3,4.3c-0.3,0.4-0.3,0.9,0,1.3c0.4,0.3,0.9,0.3,1.3,0l1.7-1.7c0.6-0.6,1.5-0.2,1.5,0.6v2
			c0,0.5,0.4,0.9,0.9,0.9l0,0c0.5,0,0.9-0.4,0.9-0.9v-2c0-0.8,1-1.2,1.5-0.6l1.7,1.7c0.4,0.3,0.9,0.3,1.3,0c0.3-0.4,0.3-0.9,0-1.3
			l-4.3-4.3c-0.2-0.2-0.3-0.4-0.3-0.6v-5.2c0-0.7,0.8-1.1,1.3-0.8l4.5,2.6c0.2,0.1,0.4,0.3,0.4,0.5l1.6,5.9c0.1,0.5,0.6,0.8,1.1,0.6
			l0,0c0.5-0.1,0.8-0.6,0.6-1.1l-0.6-2.4c-0.2-0.8,0.6-1.4,1.3-1l1.7,1c0.4,0.2,1,0.1,1.2-0.3l0,0c0.2-0.4,0.1-1-0.3-1.2l-1.7-1
			c-0.7-0.4-0.5-1.4,0.2-1.7l2.4-0.6c0.5-0.1,0.8-0.6,0.6-1.1l0,0C320.6,180.3,320.1,180,319.6,180.1z"/>
		<path class="st2" d="M230.2,95.9l-5.9,1.6c-0.2,0.1-0.5,0-0.7-0.1l-4.5-2.6c-0.6-0.4-0.6-1.2,0-1.6l4.5-2.6
			c0.2-0.1,0.4-0.1,0.7-0.1l5.9,1.6c0.5,0.1,1-0.2,1.1-0.6l0,0c0.1-0.5-0.1-1-0.6-1.1l-2.4-0.6c-0.8-0.2-0.9-1.2-0.2-1.7l1.7-1
			c0.4-0.2,0.6-0.8,0.3-1.2l0,0c-0.2-0.4-0.8-0.6-1.2-0.3l-1.7,1c-0.7,0.4-1.5-0.2-1.3-1l0.6-2.4c0.1-0.5-0.2-1-0.6-1.1l0,0
			c-0.5-0.1-1,0.2-1.1,0.6l-1.6,5.9c-0.1,0.2-0.2,0.4-0.4,0.5l-4.5,2.6c-0.6,0.3-1.4-0.1-1.4-0.8v-5.2c0-0.2,0.1-0.5,0.3-0.6
			l4.3-4.3c0.4-0.4,0.4-0.9,0-1.3c-0.3-0.4-0.9-0.4-1.3,0l-1.7,1.7c-0.6,0.6-1.5,0.2-1.5-0.6v-2c0-0.5-0.4-0.9-0.9-0.9l0,0
			c-0.5,0-0.9,0.4-0.9,0.9v2c0,0.8-1,1.2-1.5,0.6l-1.7-1.7c-0.4-0.4-0.9-0.4-1.3,0s-0.4,0.9,0,1.3l4.3,4.3c0.2,0.2,0.3,0.4,0.3,0.6
			v5.2c0,0.7-0.8,1.1-1.4,0.8l-4.5-2.6c-0.2-0.1-0.4-0.3-0.4-0.5l-1.6-5.9c-0.1-0.5-0.6-0.8-1.1-0.6c-0.5,0.1-0.8,0.6-0.6,1.1
			l0.6,2.4c0.2,0.8-0.6,1.4-1.3,1l-1.7-1c-0.4-0.2-1-0.1-1.2,0.3l0,0c-0.2,0.4-0.1,1,0.3,1.2l1.7,1c0.7,0.4,0.6,1.4-0.2,1.6
			l-2.4,0.6c-0.5,0.1-0.8,0.6-0.6,1.1l0,0c0.1,0.5,0.6,0.8,1.1,0.6l5.9-1.6c0.2-0.1,0.5,0,0.7,0.1l4.5,2.6c0.6,0.4,0.6,1.2,0,1.6
			l-4.5,2.6c-0.2,0.1-0.4,0.1-0.7,0.1l-5.9-1.6c-0.5-0.1-1,0.2-1.1,0.6l0,0c-0.1,0.5,0.1,1,0.6,1.1l2.4,0.6c0.8,0.2,0.9,1.2,0.2,1.7
			l-1.7,1c-0.4,0.2-0.6,0.8-0.3,1.2l0,0c0.2,0.4,0.8,0.6,1.2,0.3l1.7-1c0.7-0.4,1.5,0.2,1.3,1l-0.6,2.4c-0.1,0.5,0.2,1,0.6,1.1
			c0.5,0.1,1-0.1,1.1-0.6l1.6-5.9c0.1-0.2,0.2-0.4,0.4-0.6l4.5-2.6c0.6-0.4,1.4,0.1,1.4,0.8v5.2c0,0.2-0.1,0.5-0.3,0.6l-4.3,4.3
			c-0.4,0.4-0.4,0.9,0,1.3c0.4,0.3,0.9,0.3,1.3,0l1.7-1.7c0.6-0.6,1.5-0.2,1.5,0.6v2c0,0.5,0.4,0.9,0.9,0.9l0,0
			c0.5,0,0.9-0.4,0.9-0.9v-2c0-0.8,1-1.2,1.5-0.6l1.7,1.7c0.3,0.3,0.9,0.3,1.3,0c0.4-0.4,0.4-0.9,0-1.3l-4.3-4.3
			c-0.2-0.2-0.3-0.4-0.3-0.6v-5.2c0-0.7,0.8-1.1,1.4-0.8l4.5,2.6c0.2,0.1,0.4,0.3,0.4,0.6l1.6,5.9c0.1,0.5,0.6,0.8,1.1,0.6l0,0
			c0.5-0.1,0.8-0.6,0.6-1.1l-0.6-2.4c-0.2-0.8,0.6-1.4,1.3-1l1.7,1c0.4,0.2,1,0.1,1.2-0.3l0,0c0.2-0.4,0.1-1-0.3-1.2l-1.7-1
			c-0.7-0.4-0.6-1.4,0.2-1.6l2.4-0.6c0.5-0.1,0.8-0.6,0.6-1.1l0,0C231.2,96.1,230.7,95.8,230.2,95.9z"/>
	</g>
</g>
</svg>
