<?xml version="1.0" encoding="utf-8"?>
<!-- Generator: Adobe Illustrator 25.1.0, SVG Export Plug-In . SVG Version: 6.00 Build 0)  -->
<svg version="1.1" id="Layer_1" xmlns="http://www.w3.org/2000/svg" xmlns:xlink="http://www.w3.org/1999/xlink" x="0px" y="0px"
	 viewBox="0 0 332.9 326" style="enable-background:new 0 0 332.9 326;" xml:space="preserve">
<style type="text/css">
	.st0{fill:#FFFFFF;}
	.st1{fill:#808080;}
	.st2{fill:#00A878;}
	.st3{fill:#BFBFBF;}
	.st4{fill:#FF9F1A;}
	.st5{fill:#D64204;}
	.st6{fill:#3CDC82;}
	.st7{fill:#FFCF8D;}
	.st8{fill-rule:evenodd;clip-rule:evenodd;fill:#FF9F1A;}
	.st9{fill:#65E5DD;}
	.st10{fill:#DCDCDC;}
	.st11{fill-rule:evenodd;clip-rule:evenodd;fill:#CCF6F4;}
	.st12{fill-rule:evenodd;clip-rule:evenodd;fill:#00CDDC;}
	.st13{fill-rule:evenodd;clip-rule:evenodd;fill:#FFCF8D;}
	.st14{fill-rule:evenodd;clip-rule:evenodd;fill:#FFE7C6;}
</style>
<g>
	<g>
		<path class="st0" d="M332.9,234.4c0-213-8.8-234.4-63.7-234.4C242.3,0,131.6,2.4,96.5,3.2C62,4.1,15.1-3.7,9.1,29.1
			C3.1,61.5,0,103.2,0,161.3c0,91.2,10.1,146.4,45.6,158c36,11.7,150.1,4.9,193.6,3.5C284,321.2,332.9,327.4,332.9,234.4z"/>
		<path class="st1" d="M26.9,134.9l4.1-11.2h1.4l4.1,11.2h-1.4l-1-2.9h-4.8l-1,2.9H26.9z M29.8,130.9h4l-2-5.5L29.8,130.9z"/>
		<path class="st1" d="M39,125.2c-0.3,0-0.5-0.1-0.7-0.3c-0.2-0.2-0.3-0.4-0.3-0.7s0.1-0.5,0.3-0.6c0.2-0.2,0.4-0.3,0.7-0.3
			s0.5,0.1,0.7,0.3c0.2,0.2,0.3,0.4,0.3,0.6c0,0.3-0.1,0.5-0.3,0.7C39.4,125.1,39.2,125.2,39,125.2z M38.3,134.9V127h1.3v7.9H38.3z"
			/>
		<path class="st1" d="M42,134.9V127h1.2l0.1,1.1c0.3-0.4,0.6-0.8,1-1s0.9-0.4,1.4-0.4c0.6,0,1.2,0.1,1.6,0.4
			c0.5,0.3,0.8,0.6,1.1,1.2c0.3-0.5,0.7-0.9,1.1-1.1s1-0.4,1.6-0.4c0.9,0,1.7,0.3,2.3,0.9s0.8,1.5,0.8,2.6v4.6h-1.3v-4.5
			c0-0.8-0.2-1.4-0.5-1.9c-0.3-0.4-0.8-0.6-1.4-0.6c-0.6,0-1.2,0.2-1.6,0.7c-0.4,0.5-0.6,1.2-0.6,2.1v4.1h-1.3v-4.5
			c0-0.8-0.2-1.4-0.5-1.9c-0.3-0.4-0.8-0.6-1.4-0.6c-0.6,0-1.2,0.2-1.6,0.7c-0.4,0.5-0.6,1.2-0.6,2.1v4.1L42,134.9L42,134.9z"/>
		<path class="st1" d="M61,134.9v-6.8h-1.2V127H61v-1.4c0-0.8,0.2-1.3,0.6-1.7c0.4-0.4,0.9-0.5,1.7-0.5H64v1.1h-0.6
			c-0.4,0-0.7,0.1-0.9,0.2c-0.2,0.2-0.3,0.5-0.3,0.8v1.3h1.9v1.1h-1.9v6.8L61,134.9L61,134.9z"/>
		<path class="st1" d="M69.2,135.1c-0.8,0-1.4-0.2-2-0.5s-1.1-0.8-1.4-1.4s-0.5-1.4-0.5-2.2s0.2-1.6,0.5-2.2s0.8-1.1,1.4-1.5
			c0.6-0.3,1.3-0.5,2-0.5s1.4,0.2,2,0.5s1.1,0.8,1.4,1.5c0.3,0.6,0.5,1.4,0.5,2.2s-0.2,1.6-0.5,2.2s-0.8,1.1-1.4,1.4
			S69.9,135.1,69.2,135.1z M69.2,133.9c0.5,0,0.9-0.1,1.3-0.3c0.4-0.2,0.7-0.6,1-1s0.4-1,0.4-1.7s-0.1-1.2-0.4-1.7
			c-0.2-0.4-0.6-0.8-1-1s-0.8-0.3-1.3-0.3s-0.9,0.1-1.3,0.3c-0.4,0.2-0.7,0.6-1,1c-0.2,0.5-0.4,1-0.4,1.7s0.1,1.2,0.4,1.7
			s0.6,0.8,1,1C68.3,133.8,68.7,133.9,69.2,133.9z"/>
		<path class="st1" d="M75,134.9V127h1.2l0.1,1.5c0.2-0.5,0.6-0.9,1.1-1.2c0.5-0.3,1.1-0.5,1.9-0.5v1.4H79c-0.5,0-0.9,0.1-1.3,0.2
			c-0.4,0.2-0.7,0.5-0.9,0.8c-0.2,0.4-0.3,0.9-0.3,1.6v4H75V134.9z"/>
		<path class="st1" d="M87.7,135.1c-0.7,0-1.2-0.1-1.6-0.3c-0.4-0.2-0.8-0.5-1-0.9s-0.3-0.8-0.3-1.2c0-0.8,0.3-1.4,0.9-1.9
			s1.5-0.7,2.5-0.7h2.1V130c0-0.7-0.2-1.2-0.5-1.6c-0.4-0.4-0.8-0.5-1.5-0.5c-0.5,0-1,0.1-1.3,0.4c-0.4,0.3-0.6,0.6-0.7,1.1h-1.4
			c0-0.6,0.2-1.1,0.6-1.5c0.3-0.4,0.8-0.7,1.3-0.9c0.5-0.2,1-0.3,1.6-0.3c1.1,0,1.9,0.3,2.5,0.9s0.8,1.4,0.8,2.4v4.9h-1.2l-0.1-1.4
			c-0.2,0.4-0.6,0.8-1,1.1S88.4,135.1,87.7,135.1z M87.9,133.9c0.5,0,0.9-0.1,1.3-0.4s0.6-0.6,0.8-1c0.2-0.4,0.3-0.9,0.3-1.3l0,0h-2
			c-0.8,0-1.3,0.1-1.7,0.4c-0.3,0.3-0.5,0.6-0.5,1s0.2,0.8,0.5,1C86.9,133.8,87.4,133.9,87.9,133.9z"/>
		<path class="st1" d="M98,134.9v-11.5h1.3v4.9c0.3-0.5,0.6-0.9,1.1-1.1c0.5-0.3,1-0.4,1.6-0.4c0.9,0,1.7,0.3,2.2,0.9
			c0.6,0.6,0.8,1.4,0.8,2.6v4.6h-1.3v-4.5c0-1.6-0.7-2.5-2-2.5c-0.7,0-1.3,0.2-1.7,0.7c-0.5,0.5-0.7,1.2-0.7,2.1v4.1L98,134.9
			L98,134.9z"/>
		<path class="st1" d="M110.7,135.1c-0.8,0-1.4-0.2-2-0.5c-0.6-0.4-1.1-0.8-1.4-1.5s-0.5-1.4-0.5-2.2c0-0.8,0.2-1.6,0.5-2.2
			s0.8-1.1,1.4-1.5s1.3-0.5,2.1-0.5c0.8,0,1.4,0.2,2,0.5s1,0.8,1.3,1.4s0.4,1.2,0.4,1.8c0,0.1,0,0.2,0,0.3c0,0.1,0,0.2,0,0.4h-6.3
			c0,0.6,0.2,1.1,0.4,1.5s0.6,0.7,0.9,0.9c0.4,0.2,0.8,0.3,1.2,0.3c0.6,0,1-0.1,1.4-0.4s0.6-0.6,0.8-1h1.3c-0.2,0.7-0.6,1.4-1.2,1.8
			C112.4,134.8,111.6,135.1,110.7,135.1z M110.7,127.9c-0.6,0-1.2,0.2-1.7,0.6s-0.8,1-0.9,1.7h5c0-0.7-0.3-1.3-0.7-1.7
			C111.9,128.1,111.4,127.9,110.7,127.9z"/>
		<path class="st1" d="M118.9,135.1c-0.7,0-1.2-0.1-1.7-0.3c-0.4-0.2-0.8-0.5-1-0.9s-0.3-0.8-0.3-1.2c0-0.8,0.3-1.4,0.9-1.9
			s1.5-0.7,2.5-0.7h2.1V130c0-0.7-0.2-1.2-0.5-1.6c-0.4-0.4-0.9-0.5-1.5-0.5c-0.5,0-1,0.1-1.4,0.4s-0.6,0.6-0.7,1.1h-1.4
			c0.1-0.6,0.2-1.1,0.6-1.5c0.3-0.4,0.8-0.7,1.3-0.9c0.5-0.2,1-0.3,1.6-0.3c1.1,0,1.9,0.3,2.5,0.9s0.8,1.4,0.8,2.4v4.9h-1.2
			l-0.1-1.4c-0.2,0.4-0.6,0.8-1,1.1C120.1,134.9,119.6,135.1,118.9,135.1z M119.1,133.9c0.5,0,0.9-0.1,1.3-0.4s0.6-0.6,0.8-1
			c0.2-0.4,0.3-0.9,0.3-1.3l0,0h-2c-0.8,0-1.3,0.1-1.7,0.4c-0.3,0.3-0.5,0.6-0.5,1s0.1,0.8,0.5,1
			C118.1,133.8,118.5,133.9,119.1,133.9z"/>
		<path class="st1" d="M124.9,134.9v-11.5h1.3v11.5H124.9z"/>
		<path class="st1" d="M131.6,134.9c-0.7,0-1.3-0.2-1.7-0.5c-0.4-0.4-0.6-1-0.6-1.9v-4.4h-1.4V127h1.4l0.2-1.9h1.2v1.9h2.3v1.1h-2.3
			v4.4c0,0.5,0.1,0.8,0.3,1s0.6,0.3,1.1,0.3h0.8v1.1H131.6z"/>
		<path class="st1" d="M134.6,134.9v-11.5h1.3v4.9c0.3-0.5,0.7-0.9,1.1-1.1c0.5-0.3,1-0.4,1.6-0.4c0.9,0,1.6,0.3,2.2,0.9
			c0.6,0.6,0.8,1.4,0.8,2.6v4.6h-1.3v-4.5c0-1.6-0.7-2.5-2-2.5c-0.7,0-1.3,0.2-1.7,0.7c-0.5,0.5-0.7,1.2-0.7,2.1v4.1L134.6,134.9
			L134.6,134.9z"/>
		<path class="st1" d="M144.4,138.4l2-4.3h-0.5l-3.1-7.2h1.5l2.6,6.2l2.8-6.2h1.4l-5.2,11.5H144.4z"/>
		<path class="st1" d="M150.4,136.8l0.9-3.5h1.4l-1.4,3.5H150.4z"/>
		<path class="st1" d="M29.1,193.5l-2.3-7.9h1.3l1.7,6.2l1.9-6.2h1.5l1.9,6.2l1.7-6.2h1.4l-2.3,7.9h-1.4l-2-6.5l-2,6.5H29.1z"/>
		<path class="st1" d="M40.4,183.8c-0.3,0-0.5-0.1-0.7-0.3c-0.2-0.2-0.3-0.4-0.3-0.7s0.1-0.5,0.3-0.6c0.2-0.2,0.4-0.3,0.7-0.3
			s0.5,0.1,0.7,0.3c0.2,0.2,0.3,0.4,0.3,0.6c0,0.3-0.1,0.5-0.3,0.7C40.9,183.7,40.7,183.8,40.4,183.8z M39.7,193.5v-7.9H41v7.9H39.7
			z"/>
		<path class="st1" d="M46.6,193.5c-0.7,0-1.3-0.2-1.7-0.5c-0.4-0.4-0.6-1-0.6-1.9v-4.4h-1.4v-1.1h1.4l0.2-1.9h1.2v1.9H48v1.1h-2.3
			v4.4c0,0.5,0.1,0.8,0.3,1s0.6,0.3,1.1,0.3h0.8v1.1H46.6z"/>
		<path class="st1" d="M49.6,193.5V182h1.3v4.9c0.3-0.5,0.6-0.9,1.1-1.1c0.5-0.3,1-0.4,1.6-0.4c0.9,0,1.6,0.3,2.2,0.9
			c0.5,0.6,0.8,1.4,0.8,2.6v4.6h-1.3V189c0-1.6-0.7-2.5-2-2.5c-0.7,0-1.3,0.2-1.7,0.7c-0.5,0.5-0.7,1.2-0.7,2.1v4.1L49.6,193.5
			L49.6,193.5z"/>
		<path class="st1" d="M63,193.5V182h1.3v11.5H63z"/>
		<path class="st1" d="M70.2,193.7c-0.8,0-1.4-0.2-2-0.5s-1.1-0.8-1.4-1.4c-0.4-0.6-0.5-1.4-0.5-2.2c0-0.8,0.2-1.6,0.5-2.2
			s0.8-1.1,1.4-1.5c0.6-0.3,1.3-0.5,2-0.5s1.4,0.2,2,0.5s1.1,0.8,1.4,1.5c0.4,0.6,0.5,1.4,0.5,2.2c0,0.8-0.2,1.6-0.5,2.2
			c-0.4,0.6-0.8,1.1-1.4,1.4C71.6,193.5,70.9,193.7,70.2,193.7z M70.2,192.5c0.5,0,0.9-0.1,1.3-0.3s0.7-0.6,1-1s0.4-1,0.4-1.7
			s-0.1-1.2-0.4-1.7c-0.2-0.4-0.6-0.8-0.9-1c-0.4-0.2-0.8-0.3-1.3-0.3s-0.9,0.1-1.3,0.3c-0.4,0.2-0.7,0.6-1,1
			c-0.2,0.5-0.4,1-0.4,1.7s0.1,1.2,0.4,1.7s0.6,0.8,0.9,1S69.7,192.5,70.2,192.5z"/>
		<path class="st1" d="M78.8,193.5c-0.7,0-1.3-0.2-1.7-0.5c-0.4-0.4-0.6-1-0.6-1.9v-4.4h-1.4v-1.1h1.4l0.2-1.9h1.2v1.9h2.3v1.1h-2.3
			v4.4c0,0.5,0.1,0.8,0.3,1c0.2,0.2,0.6,0.3,1.1,0.3h0.8v1.1H78.8z"/>
		<path class="st1" d="M84.9,193.7c-1,0-1.7-0.2-2.4-0.7c-0.6-0.5-1-1.1-1.1-2h1.4c0.1,0.4,0.3,0.8,0.7,1.1c0.3,0.3,0.8,0.5,1.4,0.5
			s1-0.1,1.2-0.4c0.3-0.2,0.4-0.5,0.4-0.9c0-0.5-0.2-0.8-0.5-1s-0.8-0.3-1.5-0.4c-0.4-0.1-0.8-0.2-1.3-0.4s-0.8-0.4-1.1-0.7
			s-0.4-0.7-0.4-1.2c0-0.7,0.3-1.3,0.8-1.7c0.5-0.4,1.2-0.7,2.1-0.7c0.8,0,1.5,0.2,2.1,0.6c0.5,0.4,0.8,1,0.9,1.8h-1.3
			c-0.1-0.4-0.2-0.7-0.5-0.9c-0.3-0.2-0.7-0.3-1.2-0.3s-0.8,0.1-1.1,0.3s-0.4,0.5-0.4,0.8s0.2,0.6,0.5,0.8s0.8,0.3,1.4,0.5
			c0.5,0.1,1,0.2,1.4,0.4c0.4,0.1,0.8,0.4,1.1,0.7c0.3,0.3,0.4,0.7,0.4,1.3c0,0.7-0.3,1.3-0.8,1.8C86.6,193.4,85.9,193.7,84.9,193.7
			z"/>
		<path class="st1" d="M97.8,193.7c-0.8,0-1.4-0.2-2-0.5s-1.1-0.8-1.4-1.4s-0.5-1.4-0.5-2.2c0-0.8,0.2-1.6,0.5-2.2s0.8-1.1,1.4-1.5
			c0.6-0.3,1.3-0.5,2-0.5s1.4,0.2,2,0.5s1.1,0.8,1.4,1.5c0.3,0.6,0.5,1.4,0.5,2.2c0,0.8-0.2,1.6-0.5,2.2s-0.8,1.1-1.4,1.4
			C99.2,193.5,98.5,193.7,97.8,193.7z M97.8,192.5c0.5,0,0.9-0.1,1.3-0.3s0.7-0.6,1-1s0.4-1,0.4-1.7s-0.1-1.2-0.4-1.7
			s-0.6-0.8-0.9-1c-0.4-0.2-0.8-0.3-1.3-0.3s-0.9,0.1-1.3,0.3c-0.4,0.2-0.7,0.6-1,1c-0.2,0.5-0.4,1-0.4,1.7s0.1,1.2,0.4,1.7
			s0.6,0.8,0.9,1S97.3,192.5,97.8,192.5z"/>
		<path class="st1" d="M104,193.5v-6.8h-1.2v-1.1h1.2v-1.4c0-0.8,0.2-1.3,0.6-1.7c0.4-0.3,0.9-0.5,1.7-0.5h0.8v1.1h-0.6
			c-0.4,0-0.7,0.1-0.9,0.2c-0.2,0.2-0.3,0.5-0.3,0.8v1.3h1.9v1.1h-1.9v6.8L104,193.5L104,193.5z"/>
		<path class="st1" d="M115.5,193.5l-3-7.9h1.4l2.4,6.6l2.4-6.6h1.4l-3,7.9H115.5z"/>
		<path class="st1" d="M124.7,193.7c-0.8,0-1.4-0.2-2-0.5c-0.6-0.4-1.1-0.8-1.4-1.5c-0.3-0.6-0.5-1.4-0.5-2.2c0-0.8,0.2-1.6,0.5-2.2
			s0.8-1.1,1.4-1.5s1.3-0.5,2.1-0.5c0.8,0,1.4,0.2,2,0.5s1,0.8,1.3,1.4c0.3,0.6,0.4,1.2,0.4,1.8c0,0.1,0,0.2,0,0.3
			c0,0.1,0,0.2,0,0.4h-6.3c0,0.6,0.2,1.1,0.4,1.5c0.2,0.4,0.6,0.7,0.9,0.9c0.4,0.2,0.8,0.3,1.2,0.3c0.6,0,1-0.1,1.4-0.4
			s0.6-0.6,0.8-1h1.3c-0.2,0.7-0.6,1.4-1.2,1.8C126.4,193.4,125.6,193.7,124.7,193.7z M124.7,186.5c-0.6,0-1.2,0.2-1.7,0.6
			s-0.8,1-0.9,1.7h5c0-0.7-0.3-1.3-0.7-1.7C125.9,186.7,125.4,186.5,124.7,186.5z"/>
		<path class="st1" d="M133.3,191c-0.4,0-0.9-0.1-1.2-0.2l-0.8,0.8c0.1,0.1,0.3,0.2,0.4,0.2c0.2,0.1,0.4,0.1,0.8,0.2
			s0.8,0.1,1.4,0.2c1.1,0.1,1.8,0.3,2.3,0.7c0.5,0.4,0.7,1,0.7,1.6c0,0.5-0.1,0.9-0.4,1.3c-0.3,0.4-0.6,0.8-1.2,1
			c-0.5,0.3-1.2,0.4-2,0.4c-0.7,0-1.4-0.1-1.9-0.3s-1-0.5-1.3-0.9s-0.5-0.9-0.5-1.4c0-0.3,0.1-0.6,0.2-1c0.2-0.4,0.5-0.7,0.9-1
			c-0.2-0.1-0.4-0.2-0.6-0.3s-0.3-0.2-0.5-0.4v-0.4l1.4-1.3c-0.6-0.5-0.9-1.2-0.9-2.1c0-0.5,0.1-1,0.4-1.4c0.2-0.4,0.6-0.8,1.1-1
			s1-0.4,1.7-0.4c0.5,0,0.9,0.1,1.2,0.2h2.9v1l-1.5,0.1c0.3,0.5,0.5,1,0.5,1.6c0,0.5-0.1,1-0.4,1.4c-0.2,0.4-0.6,0.8-1.1,1
			C134.5,190.8,134,191,133.3,191z M131,194.5c0,0.5,0.2,0.9,0.7,1.2s1,0.4,1.7,0.4s1.2-0.1,1.6-0.4c0.4-0.3,0.6-0.7,0.6-1.2
			c0-0.3-0.1-0.6-0.4-0.9s-0.8-0.4-1.5-0.4c-0.6,0-1.1-0.1-1.5-0.2c-0.4,0.2-0.7,0.5-0.9,0.8C131,194,131,194.3,131,194.5z
			 M133.3,189.9c0.6,0,1-0.2,1.3-0.4c0.3-0.3,0.5-0.7,0.5-1.3c0-0.5-0.2-1-0.5-1.3s-0.8-0.4-1.3-0.4c-0.6,0-1,0.2-1.4,0.4
			c-0.3,0.3-0.5,0.7-0.5,1.3s0.2,1,0.5,1.3C132.3,189.7,132.7,189.9,133.3,189.9z"/>
		<path class="st1" d="M142.2,193.7c-0.8,0-1.4-0.2-2-0.5c-0.6-0.4-1.1-0.8-1.4-1.5c-0.3-0.6-0.5-1.4-0.5-2.2c0-0.8,0.2-1.6,0.5-2.2
			s0.8-1.1,1.4-1.5c0.6-0.3,1.3-0.5,2.1-0.5s1.4,0.2,2,0.5s1,0.8,1.3,1.4s0.4,1.2,0.4,1.8c0,0.1,0,0.2,0,0.3c0,0.1,0,0.2,0,0.4h-6.3
			c0,0.6,0.2,1.1,0.4,1.5s0.6,0.7,0.9,0.9c0.4,0.2,0.8,0.3,1.2,0.3c0.6,0,1-0.1,1.4-0.4s0.6-0.6,0.8-1h1.3c-0.2,0.7-0.6,1.4-1.2,1.8
			C144,193.4,143.2,193.7,142.2,193.7z M142.2,186.5c-0.6,0-1.2,0.2-1.7,0.6s-0.8,1-0.9,1.7h5c0-0.7-0.3-1.3-0.7-1.7
			C143.5,186.7,142.9,186.5,142.2,186.5z"/>
		<path class="st1" d="M150.6,193.5c-0.7,0-1.3-0.2-1.7-0.5c-0.4-0.4-0.6-1-0.6-1.9v-4.4h-1.4v-1.1h1.4l0.2-1.9h1.2v1.9h2.3v1.1
			h-2.3v4.4c0,0.5,0.1,0.8,0.3,1s0.6,0.3,1.1,0.3h0.8v1.1H150.6z"/>
		<path class="st1" d="M156.3,193.7c-0.7,0-1.2-0.1-1.6-0.3c-0.4-0.2-0.8-0.5-1-0.9s-0.3-0.8-0.3-1.2c0-0.8,0.3-1.4,0.9-1.9
			c0.6-0.4,1.5-0.7,2.5-0.7h2.1v-0.1c0-0.7-0.2-1.2-0.5-1.6s-0.9-0.5-1.5-0.5c-0.5,0-1,0.1-1.4,0.4s-0.6,0.6-0.7,1.1h-1.4
			c0.1-0.6,0.2-1.1,0.6-1.5c0.3-0.4,0.8-0.7,1.3-0.9c0.5-0.2,1-0.3,1.6-0.3c1.1,0,1.9,0.3,2.5,0.9s0.8,1.4,0.8,2.4v4.9H159l-0.1-1.4
			c-0.2,0.5-0.6,0.8-1,1.1C157.6,193.5,157.1,193.7,156.3,193.7z M156.6,192.5c0.5,0,0.9-0.1,1.3-0.4c0.4-0.3,0.7-0.6,0.8-1
			c0.2-0.4,0.3-0.9,0.3-1.3l0,0h-2c-0.8,0-1.4,0.1-1.7,0.4s-0.5,0.6-0.5,1s0.2,0.8,0.5,1C155.6,192.4,156,192.5,156.6,192.5z"/>
		<path class="st1" d="M166.6,193.7c-0.7,0-1.2-0.1-1.7-0.4s-0.9-0.6-1.2-1.1l-0.1,1.3h-1.2V182h1.3v4.9c0.3-0.4,0.6-0.7,1.1-1
			s1.1-0.5,1.8-0.5c0.8,0,1.5,0.2,2.1,0.5c0.6,0.4,1,0.9,1.4,1.5c0.3,0.6,0.5,1.3,0.5,2.1c0,0.8-0.2,1.5-0.5,2.1s-0.8,1.1-1.4,1.5
			C168.1,193.5,167.4,193.7,166.6,193.7z M166.4,192.5c0.5,0,1-0.1,1.4-0.4s0.7-0.6,1-1c0.2-0.5,0.3-1,0.3-1.6s-0.1-1.1-0.3-1.6
			s-0.6-0.8-1-1s-0.9-0.4-1.4-0.4s-1,0.1-1.4,0.4c-0.4,0.2-0.7,0.6-1,1s-0.4,1-0.4,1.6s0.1,1.1,0.4,1.6s0.6,0.8,1,1
			C165.4,192.4,165.9,192.5,166.4,192.5z"/>
		<path class="st1" d="M172.4,193.5V182h1.3v11.5H172.4z"/>
		<path class="st1" d="M179.5,193.7c-0.8,0-1.4-0.2-2-0.5c-0.6-0.4-1-0.8-1.4-1.5c-0.3-0.6-0.5-1.4-0.5-2.2c0-0.8,0.2-1.6,0.5-2.2
			s0.8-1.1,1.4-1.5c0.6-0.3,1.3-0.5,2.1-0.5s1.4,0.2,2,0.5s1,0.8,1.3,1.4s0.4,1.2,0.4,1.8c0,0.1,0,0.2,0,0.3c0,0.1,0,0.2,0,0.4H177
			c0,0.6,0.2,1.1,0.4,1.5s0.6,0.7,0.9,0.9c0.4,0.2,0.8,0.3,1.2,0.3c0.6,0,1-0.1,1.4-0.4s0.7-0.6,0.8-1h1.3c-0.2,0.7-0.6,1.4-1.2,1.8
			C181.2,193.4,180.5,193.7,179.5,193.7z M179.5,186.5c-0.6,0-1.2,0.2-1.7,0.6s-0.8,1-0.9,1.7h5c0-0.7-0.3-1.3-0.7-1.7
			C180.8,186.7,180.2,186.5,179.5,186.5z"/>
		<path class="st1" d="M188.1,193.7c-1,0-1.7-0.2-2.4-0.7c-0.6-0.5-1-1.1-1.1-2h1.4c0.1,0.4,0.3,0.8,0.7,1.1
			c0.4,0.3,0.8,0.5,1.4,0.5c0.6,0,1-0.1,1.2-0.4c0.3-0.2,0.4-0.5,0.4-0.9c0-0.5-0.2-0.8-0.5-1c-0.4-0.2-0.8-0.3-1.5-0.4
			c-0.4-0.1-0.8-0.2-1.3-0.4c-0.4-0.2-0.8-0.4-1.1-0.7c-0.3-0.3-0.4-0.7-0.4-1.2c0-0.7,0.3-1.3,0.8-1.7c0.5-0.4,1.2-0.7,2.1-0.7
			c0.8,0,1.5,0.2,2.1,0.6c0.5,0.4,0.8,1,0.9,1.8h-1.3c-0.1-0.4-0.2-0.7-0.5-0.9c-0.3-0.2-0.7-0.3-1.2-0.3s-0.8,0.1-1.1,0.3
			c-0.3,0.2-0.4,0.5-0.4,0.8s0.2,0.6,0.5,0.8s0.8,0.3,1.4,0.5c0.5,0.1,1,0.2,1.4,0.4c0.4,0.1,0.8,0.4,1.1,0.7
			c0.3,0.3,0.4,0.7,0.4,1.3c0,0.7-0.3,1.3-0.8,1.8C189.8,193.4,189,193.7,188.1,193.7z"/>
		<path class="st1" d="M192,195.4l0.9-3.5h1.4l-1.4,3.5H192z"/>
		<path class="st1" d="M200.6,193.5v-6.8h-1.2v-1.1h1.2v-1.4c0-0.8,0.2-1.3,0.6-1.7c0.4-0.3,0.9-0.5,1.7-0.5h0.8v1.1h-0.6
			c-0.4,0-0.7,0.1-0.9,0.2c-0.2,0.2-0.3,0.5-0.3,0.8v1.3h2v1.1h-2v6.8L200.6,193.5L200.6,193.5z"/>
		<path class="st1" d="M205.5,193.5v-7.9h1.2l0.1,1.5c0.2-0.5,0.6-0.9,1.1-1.2s1.1-0.5,1.9-0.5v1.4h-0.4c-0.5,0-0.9,0.1-1.3,0.2
			c-0.4,0.2-0.7,0.5-0.9,0.8c-0.2,0.4-0.3,0.9-0.3,1.6v4h-1.4V193.5z"/>
		<path class="st1" d="M214.2,193.7c-0.9,0-1.7-0.3-2.2-0.9s-0.8-1.5-0.8-2.6v-4.6h1.3v4.5c0,1.7,0.7,2.5,2,2.5
			c0.7,0,1.3-0.2,1.7-0.7s0.7-1.2,0.7-2.1v-4.1h1.3v7.9H217l-0.1-1.4c-0.2,0.5-0.6,0.9-1.1,1.2C215.3,193.5,214.8,193.7,214.2,193.7
			z"/>
		<path class="st1" d="M221.2,183.8c-0.3,0-0.5-0.1-0.7-0.3c-0.2-0.2-0.3-0.4-0.3-0.7s0.1-0.5,0.3-0.6c0.2-0.2,0.4-0.3,0.7-0.3
			s0.5,0.1,0.7,0.3c0.2,0.2,0.3,0.4,0.3,0.6c0,0.3-0.1,0.5-0.3,0.7C221.7,183.7,221.5,183.8,221.2,183.8z M220.6,193.5v-7.9h1.3v7.9
			H220.6z"/>
		<path class="st1" d="M227.4,193.5c-0.7,0-1.3-0.2-1.7-0.5c-0.4-0.4-0.6-1-0.6-1.9v-4.4h-1.4v-1.1h1.4l0.2-1.9h1.2v1.9h2.3v1.1
			h-2.3v4.4c0,0.5,0.1,0.8,0.3,1s0.6,0.3,1.1,0.3h0.8v1.1H227.4z"/>
		<path class="st1" d="M237.3,193.7c-0.7,0-1.2-0.1-1.6-0.3c-0.4-0.2-0.8-0.5-1-0.9s-0.3-0.8-0.3-1.2c0-0.8,0.3-1.4,0.9-1.9
			c0.6-0.4,1.5-0.7,2.5-0.7h2.1v-0.1c0-0.7-0.2-1.2-0.5-1.6c-0.4-0.4-0.9-0.5-1.5-0.5c-0.5,0-1,0.1-1.4,0.4s-0.6,0.6-0.7,1.1h-1.4
			c0.1-0.6,0.2-1.1,0.6-1.5c0.3-0.4,0.8-0.7,1.3-0.9c0.5-0.2,1-0.3,1.6-0.3c1.1,0,1.9,0.3,2.5,0.9s0.8,1.4,0.8,2.4v4.9H240l-0.1-1.4
			c-0.2,0.5-0.6,0.8-1,1.1S238.1,193.7,237.3,193.7z M237.5,192.5c0.5,0,0.9-0.1,1.3-0.4c0.4-0.3,0.7-0.6,0.8-1
			c0.2-0.4,0.3-0.9,0.3-1.3l0,0h-2c-0.8,0-1.4,0.1-1.7,0.4s-0.5,0.6-0.5,1s0.1,0.8,0.5,1C236.6,192.4,237,192.5,237.5,192.5z"/>
		<path class="st1" d="M243.4,193.5v-7.9h1.2l0.1,1.4c0.3-0.5,0.6-0.9,1.1-1.2c0.5-0.3,1-0.4,1.6-0.4c0.9,0,1.7,0.3,2.2,0.9
			c0.6,0.6,0.8,1.4,0.8,2.6v4.6h-1.3V189c0-1.6-0.7-2.5-2.1-2.5c-0.7,0-1.2,0.2-1.7,0.7s-0.7,1.2-0.7,2.1v4.1L243.4,193.5
			L243.4,193.5z"/>
		<path class="st1" d="M256.1,193.7c-0.8,0-1.5-0.2-2.1-0.5s-1-0.9-1.4-1.5c-0.3-0.6-0.5-1.3-0.5-2.1s0.2-1.5,0.5-2.1
			s0.8-1.1,1.4-1.5c0.6-0.4,1.3-0.5,2.1-0.5c0.6,0,1.2,0.1,1.7,0.4s0.9,0.6,1.2,1.1v-4.9h1.3v11.5h-1.2l-0.1-1.3
			c-0.3,0.4-0.6,0.7-1.1,1C257.4,193.5,256.8,193.7,256.1,193.7z M256.2,192.5c0.5,0,1-0.1,1.4-0.4c0.4-0.2,0.7-0.6,1-1
			c0.2-0.5,0.3-1,0.3-1.6s-0.1-1.1-0.3-1.6c-0.2-0.5-0.5-0.8-1-1s-0.9-0.4-1.4-0.4s-1,0.1-1.4,0.4s-0.7,0.6-1,1
			c-0.2,0.5-0.3,1-0.3,1.6s0.1,1.1,0.3,1.6s0.5,0.8,1,1S255.7,192.5,256.2,192.5z"/>
		<path class="st1" d="M27.5,219v-11.5h1.2l0.1,1.3c0.3-0.4,0.6-0.7,1.1-1s1.1-0.5,1.8-0.5c0.8,0,1.5,0.2,2.1,0.5
			c0.6,0.4,1,0.9,1.4,1.5c0.3,0.6,0.5,1.3,0.5,2.1c0,0.8-0.2,1.5-0.5,2.1s-0.8,1.1-1.4,1.5c-0.6,0.4-1.3,0.5-2.1,0.5
			c-0.6,0-1.2-0.1-1.7-0.4s-0.9-0.6-1.2-1.1v4.8h-1.3V219z M31.6,214.5c0.5,0,1-0.1,1.4-0.4c0.4-0.2,0.7-0.6,1-1
			c0.2-0.5,0.3-1,0.3-1.6s-0.1-1.1-0.3-1.6s-0.6-0.8-1-1s-0.9-0.4-1.4-0.4c-0.5,0-1,0.1-1.4,0.4s-0.7,0.6-1,1
			c-0.2,0.5-0.3,1-0.3,1.6s0.1,1.1,0.3,1.6s0.5,0.8,1,1S31.1,214.5,31.6,214.5z"/>
		<path class="st1" d="M37.6,215.5v-7.9h1.2l0.1,1.5c0.2-0.5,0.6-0.9,1.1-1.2s1.1-0.5,1.9-0.5v1.4h-0.4c-0.5,0-0.9,0.1-1.3,0.2
			c-0.4,0.2-0.7,0.5-0.9,0.8c-0.2,0.4-0.4,0.9-0.4,1.6v4h-1.3V215.5z"/>
		<path class="st1" d="M46.7,215.7c-0.8,0-1.4-0.2-2-0.5s-1.1-0.8-1.4-1.4c-0.3-0.6-0.5-1.4-0.5-2.2c0-0.8,0.2-1.6,0.5-2.2
			s0.8-1.1,1.4-1.5c0.6-0.3,1.3-0.5,2-0.5s1.4,0.2,2,0.5s1.1,0.8,1.4,1.5c0.3,0.6,0.5,1.4,0.5,2.2c0,0.8-0.2,1.6-0.5,2.2
			s-0.8,1.1-1.4,1.4C48.1,215.5,47.4,215.7,46.7,215.7z M46.7,214.5c0.5,0,0.9-0.1,1.3-0.3c0.4-0.2,0.7-0.6,1-1s0.4-1,0.4-1.7
			s-0.1-1.2-0.4-1.7c-0.2-0.4-0.6-0.8-0.9-1c-0.4-0.2-0.8-0.3-1.3-0.3s-0.9,0.1-1.3,0.3c-0.4,0.2-0.7,0.6-1,1
			c-0.2,0.5-0.4,1-0.4,1.7s0.1,1.2,0.4,1.7c0.2,0.5,0.6,0.8,0.9,1S46.2,214.5,46.7,214.5z"/>
		<path class="st1" d="M55.4,215.5c-0.7,0-1.3-0.2-1.7-0.5c-0.4-0.4-0.6-1-0.6-1.9v-4.4h-1.4v-1.1H53l0.2-1.9h1.2v1.9h2.3v1.1h-2.3
			v4.4c0,0.5,0.1,0.8,0.3,1s0.6,0.3,1.1,0.3h0.8v1.1H55.4z"/>
		<path class="st1" d="M61.8,215.7c-0.8,0-1.4-0.2-2-0.5c-0.6-0.4-1.1-0.8-1.4-1.5c-0.3-0.6-0.5-1.4-0.5-2.2c0-0.8,0.2-1.6,0.5-2.2
			s0.8-1.1,1.4-1.5s1.3-0.5,2.1-0.5s1.4,0.2,2,0.5c0.6,0.3,1,0.8,1.3,1.4s0.5,1.2,0.5,1.8c0,0.1,0,0.2,0,0.3c0,0.1,0,0.2,0,0.4h-6.3
			c0,0.6,0.2,1.1,0.4,1.5s0.6,0.7,0.9,0.9c0.4,0.2,0.8,0.3,1.2,0.3c0.6,0,1-0.1,1.4-0.4s0.6-0.6,0.8-1h1.3c-0.2,0.7-0.6,1.4-1.2,1.8
			C63.5,215.4,62.7,215.7,61.8,215.7z M61.8,208.5c-0.6,0-1.2,0.2-1.7,0.6s-0.8,1-0.9,1.7h5c0-0.7-0.3-1.3-0.7-1.7
			C63,208.7,62.4,208.5,61.8,208.5z"/>
		<path class="st1" d="M68.1,205.8c-0.3,0-0.5-0.1-0.7-0.3c-0.2-0.2-0.3-0.4-0.3-0.7s0.1-0.5,0.3-0.6c0.2-0.2,0.4-0.3,0.7-0.3
			c0.3,0,0.5,0.1,0.7,0.3c0.2,0.2,0.3,0.4,0.3,0.6c0,0.3-0.1,0.5-0.3,0.7C68.6,205.7,68.4,205.8,68.1,205.8z M67.4,215.5v-7.9h1.3
			v7.9H67.4z"/>
		<path class="st1" d="M71.1,215.5v-7.9h1.2l0.1,1.4c0.3-0.5,0.6-0.9,1.1-1.2c0.5-0.3,1-0.4,1.6-0.4c0.9,0,1.7,0.3,2.2,0.9
			c0.6,0.6,0.8,1.4,0.8,2.6v4.6h-1.3V211c0-1.6-0.7-2.5-2.1-2.5c-0.7,0-1.2,0.2-1.7,0.7s-0.7,1.2-0.7,2.1v4.1L71.1,215.5L71.1,215.5
			z"/>
		<path class="st1" d="M83.3,215.7c-0.9,0-1.7-0.2-2.4-0.7c-0.6-0.5-1-1.1-1.1-2h1.4c0.1,0.4,0.3,0.8,0.7,1.1
			c0.3,0.3,0.8,0.5,1.4,0.5s1-0.1,1.2-0.4c0.3-0.2,0.4-0.5,0.4-0.9c0-0.5-0.2-0.8-0.5-1s-0.8-0.3-1.5-0.4c-0.4-0.1-0.8-0.2-1.3-0.4
			s-0.8-0.4-1.1-0.7c-0.3-0.3-0.4-0.7-0.4-1.2c0-0.7,0.3-1.3,0.8-1.7c0.5-0.4,1.2-0.7,2.1-0.7c0.8,0,1.5,0.2,2.1,0.6s0.8,1,0.9,1.8
			h-1.3c-0.1-0.4-0.2-0.7-0.5-0.9c-0.3-0.2-0.7-0.3-1.2-0.3s-0.8,0.1-1.1,0.3c-0.3,0.2-0.4,0.5-0.4,0.8s0.2,0.6,0.5,0.8
			c0.3,0.2,0.8,0.3,1.4,0.5c0.5,0.1,1,0.2,1.4,0.4c0.4,0.1,0.8,0.4,1.1,0.7c0.3,0.3,0.4,0.7,0.4,1.3c0,0.7-0.3,1.3-0.8,1.8
			C85,215.4,84.3,215.7,83.3,215.7z"/>
		<path class="st1" d="M88.7,215.6c-0.3,0-0.5-0.1-0.7-0.3s-0.3-0.4-0.3-0.6c0-0.3,0.1-0.5,0.3-0.7c0.2-0.2,0.4-0.3,0.7-0.3
			c0.3,0,0.5,0.1,0.7,0.3c0.2,0.2,0.3,0.4,0.3,0.7c0,0.3-0.1,0.5-0.3,0.6S89,215.6,88.7,215.6z"/>
		<path class="st1" d="M95.7,215.5v-11.2h3.4c2,0,3.4,0.5,4.4,1.5s1.4,2.4,1.4,4.1s-0.5,3.1-1.4,4.1s-2.4,1.5-4.4,1.5H95.7z
			 M97.1,214.3h2.1c1.1,0,1.9-0.2,2.6-0.5c0.6-0.4,1.1-0.9,1.4-1.5c0.3-0.7,0.4-1.5,0.4-2.4s-0.1-1.7-0.4-2.4s-0.7-1.2-1.4-1.5
			c-0.7-0.4-1.5-0.5-2.6-0.5h-2.1V214.3z"/>
		<path class="st1" d="M106.8,215.5v-7.9h1.2l0.1,1.5c0.2-0.5,0.6-0.9,1.1-1.2s1.1-0.5,1.9-0.5v1.4h-0.4c-0.5,0-0.9,0.1-1.3,0.2
			c-0.4,0.2-0.7,0.5-0.9,0.8c-0.2,0.4-0.3,0.9-0.3,1.6v4h-1.4V215.5z"/>
		<path class="st1" d="M113.4,205.8c-0.3,0-0.5-0.1-0.7-0.3c-0.2-0.2-0.3-0.4-0.3-0.7s0.1-0.5,0.3-0.6c0.2-0.2,0.4-0.3,0.7-0.3
			c0.3,0,0.5,0.1,0.7,0.3c0.2,0.2,0.3,0.4,0.3,0.6c0,0.3-0.1,0.5-0.3,0.7C113.9,205.7,113.6,205.8,113.4,205.8z M112.7,215.5v-7.9
			h1.3v7.9H112.7z"/>
		<path class="st1" d="M116.4,215.5v-7.9h1.2l0.1,1.4c0.3-0.5,0.6-0.9,1.1-1.2c0.5-0.3,1-0.4,1.6-0.4c0.9,0,1.7,0.3,2.2,0.9
			c0.6,0.6,0.8,1.4,0.8,2.6v4.6h-1.3V211c0-1.6-0.7-2.5-2.1-2.5c-0.7,0-1.2,0.2-1.7,0.7s-0.7,1.2-0.7,2.1v4.1L116.4,215.5
			L116.4,215.5z"/>
		<path class="st1" d="M125.6,215.5V204h1.3v6.9l3.2-3.3h1.7l-3.5,3.6l4,4.3h-1.7l-3.6-4.1v4.1H125.6z"/>
		<path class="st1" d="M137.9,219v-11.5h1.2l0.1,1.3c0.3-0.4,0.6-0.7,1.1-1s1.1-0.5,1.8-0.5c0.8,0,1.5,0.2,2.1,0.5
			c0.6,0.4,1,0.9,1.4,1.5s0.5,1.3,0.5,2.1c0,0.8-0.2,1.5-0.5,2.1s-0.8,1.1-1.4,1.5c-0.6,0.4-1.3,0.5-2.1,0.5c-0.6,0-1.2-0.1-1.7-0.4
			s-0.9-0.6-1.2-1.1v4.8h-1.3V219z M142,214.5c0.5,0,1-0.1,1.4-0.4c0.4-0.2,0.7-0.6,1-1s0.3-1,0.3-1.6s-0.1-1.1-0.3-1.6
			s-0.6-0.8-1-1s-0.9-0.4-1.4-0.4s-1,0.1-1.4,0.4s-0.7,0.6-1,1c-0.2,0.5-0.3,1-0.3,1.6s0.1,1.1,0.3,1.6s0.6,0.8,1,1
			S141.4,214.5,142,214.5z"/>
		<path class="st1" d="M147.9,215.5V204h1.3v11.5H147.9z"/>
		<path class="st1" d="M155,215.7c-0.8,0-1.4-0.2-2-0.5c-0.6-0.4-1-0.8-1.4-1.5c-0.3-0.6-0.5-1.4-0.5-2.2c0-0.8,0.2-1.6,0.5-2.2
			s0.8-1.1,1.4-1.5c0.6-0.3,1.3-0.5,2.1-0.5s1.4,0.2,2,0.5s1,0.8,1.3,1.4s0.4,1.2,0.4,1.8c0,0.1,0,0.2,0,0.3c0,0.1,0,0.2,0,0.4h-6.3
			c0,0.6,0.2,1.1,0.4,1.5s0.6,0.7,0.9,0.9c0.4,0.2,0.8,0.3,1.2,0.3c0.6,0,1-0.1,1.4-0.4s0.6-0.6,0.8-1h1.3c-0.2,0.7-0.6,1.4-1.2,1.8
			C156.7,215.4,156,215.7,155,215.7z M155,208.5c-0.6,0-1.2,0.2-1.7,0.6s-0.8,1-0.9,1.7h5c0-0.7-0.3-1.3-0.7-1.7
			C156.3,208.7,155.7,208.5,155,208.5z"/>
		<path class="st1" d="M160.6,215.5v-7.9h1.2l0.1,1.4c0.3-0.5,0.6-0.9,1.1-1.2c0.5-0.3,1-0.4,1.6-0.4c0.9,0,1.7,0.3,2.2,0.9
			c0.6,0.6,0.8,1.4,0.8,2.6v4.6h-1.3V211c0-1.6-0.7-2.5-2.1-2.5c-0.7,0-1.2,0.2-1.7,0.7s-0.7,1.2-0.7,2.1v4.1L160.6,215.5
			L160.6,215.5z"/>
		<path class="st1" d="M172.9,215.5c-0.7,0-1.3-0.2-1.7-0.5c-0.4-0.4-0.6-1-0.6-1.9v-4.4h-1.4v-1.1h1.4l0.2-1.9h1.2v1.9h2.3v1.1H172
			v4.4c0,0.5,0.1,0.8,0.3,1s0.6,0.3,1.1,0.3h0.8v1.1H172.9z"/>
		<path class="st1" d="M176.8,219l2-4.3h-0.5l-3.1-7.2h1.5l2.6,6.2l2.8-6.2h1.4l-5.2,11.5H176.8z"/>
		<path class="st1" d="M192.7,215.7c-0.8,0-1.4-0.2-2-0.5s-1.1-0.8-1.4-1.4s-0.5-1.4-0.5-2.2c0-0.8,0.2-1.6,0.5-2.2
			c0.4-0.6,0.8-1.1,1.4-1.5c0.6-0.3,1.3-0.5,2-0.5c0.8,0,1.4,0.2,2,0.5s1.1,0.8,1.4,1.5c0.4,0.6,0.5,1.4,0.5,2.2
			c0,0.8-0.2,1.6-0.5,2.2s-0.8,1.1-1.4,1.4C194.1,215.5,193.4,215.7,192.7,215.7z M192.7,214.5c0.5,0,0.9-0.1,1.3-0.3
			c0.4-0.2,0.7-0.6,1-1s0.4-1,0.4-1.7s-0.1-1.2-0.4-1.7c-0.2-0.4-0.6-0.8-0.9-1c-0.4-0.2-0.8-0.3-1.3-0.3s-0.9,0.1-1.3,0.3
			c-0.4,0.2-0.7,0.6-1,1c-0.2,0.5-0.4,1-0.4,1.7s0.1,1.2,0.4,1.7c0.2,0.5,0.6,0.8,0.9,1C191.8,214.4,192.2,214.5,192.7,214.5z"/>
		<path class="st1" d="M198.9,215.5v-6.8h-1.2v-1.1h1.2v-1.4c0-0.8,0.2-1.3,0.6-1.7c0.4-0.3,0.9-0.5,1.7-0.5h0.8v1.1h-0.6
			c-0.4,0-0.7,0.1-0.9,0.2c-0.2,0.2-0.3,0.5-0.3,0.8v1.3h1.9v1.1h-1.9v6.8L198.9,215.5L198.9,215.5z"/>
		<path class="st1" d="M209.7,215.5l-2.3-7.9h1.3l1.7,6.2l1.9-6.2h1.5l1.9,6.2l1.7-6.2h1.4l-2.3,7.9H215l-2-6.5l-1.9,6.5H209.7z"/>
		<path class="st1" d="M222.5,215.7c-0.7,0-1.2-0.1-1.6-0.3c-0.4-0.2-0.8-0.5-1-0.9s-0.3-0.8-0.3-1.2c0-0.8,0.3-1.4,0.9-1.9
			c0.6-0.4,1.5-0.7,2.5-0.7h2.1v-0.1c0-0.7-0.2-1.2-0.5-1.6s-0.9-0.5-1.5-0.5c-0.5,0-1,0.1-1.3,0.4c-0.4,0.3-0.6,0.6-0.7,1.1h-1.4
			c0-0.6,0.2-1.1,0.6-1.5c0.3-0.4,0.8-0.7,1.3-0.9c0.5-0.2,1-0.3,1.6-0.3c1.1,0,1.9,0.3,2.5,0.9s0.8,1.4,0.8,2.4v4.9h-1.2l-0.1-1.4
			c-0.2,0.5-0.6,0.8-1,1.1C223.8,215.5,223.2,215.7,222.5,215.7z M222.7,214.5c0.5,0,0.9-0.1,1.3-0.4s0.6-0.6,0.8-1s0.3-0.9,0.3-1.3
			l0,0h-2c-0.8,0-1.4,0.1-1.7,0.4s-0.5,0.6-0.5,1s0.1,0.8,0.5,1C221.7,214.4,222.1,214.5,222.7,214.5z"/>
		<path class="st1" d="M231.4,215.5c-0.7,0-1.3-0.2-1.7-0.5c-0.4-0.4-0.6-1-0.6-1.9v-4.4h-1.4v-1.1h1.4l0.2-1.9h1.2v1.9h2.3v1.1
			h-2.3v4.4c0,0.5,0.1,0.8,0.3,1s0.6,0.3,1.1,0.3h0.8v1.1H231.4z"/>
		<path class="st1" d="M237.8,215.7c-0.8,0-1.4-0.2-2-0.5c-0.6-0.4-1.1-0.8-1.4-1.5c-0.3-0.6-0.5-1.4-0.5-2.2c0-0.8,0.2-1.6,0.5-2.2
			s0.8-1.1,1.4-1.5s1.3-0.5,2.1-0.5s1.4,0.2,2,0.5s1,0.8,1.3,1.4s0.5,1.2,0.5,1.8c0,0.1,0,0.2,0,0.3s0,0.2,0,0.4h-6.3
			c0,0.6,0.2,1.1,0.4,1.5s0.6,0.7,0.9,0.9c0.4,0.2,0.8,0.3,1.2,0.3c0.6,0,1-0.1,1.4-0.4s0.6-0.6,0.8-1h1.3c-0.2,0.7-0.6,1.4-1.2,1.8
			C239.5,215.4,238.8,215.7,237.8,215.7z M237.8,208.5c-0.6,0-1.2,0.2-1.7,0.6s-0.8,1-0.9,1.7h5c0-0.7-0.3-1.3-0.7-1.7
			C239.1,208.7,238.5,208.5,237.8,208.5z"/>
		<path class="st1" d="M243.4,215.5v-7.9h1.2l0.1,1.5c0.2-0.5,0.6-0.9,1.1-1.2s1.1-0.5,1.9-0.5v1.4h-0.4c-0.5,0-0.9,0.1-1.3,0.2
			c-0.4,0.2-0.7,0.5-0.9,0.8c-0.2,0.4-0.4,0.9-0.4,1.6v4h-1.3V215.5z"/>
		<path class="st1" d="M256.5,215.5c-0.7,0-1.3-0.2-1.7-0.5c-0.4-0.4-0.6-1-0.6-1.9v-4.4h-1.4v-1.1h1.4l0.2-1.9h1.2v1.9h2.3v1.1
			h-2.3v4.4c0,0.5,0.1,0.8,0.3,1c0.2,0.2,0.6,0.3,1.1,0.3h0.8v1.1H256.5z"/>
		<path class="st1" d="M263,215.7c-0.8,0-1.4-0.2-2-0.5s-1.1-0.8-1.4-1.4s-0.5-1.4-0.5-2.2c0-0.8,0.2-1.6,0.5-2.2s0.8-1.1,1.4-1.5
			c0.6-0.3,1.3-0.5,2-0.5s1.4,0.2,2,0.5s1.1,0.8,1.4,1.5c0.4,0.6,0.5,1.4,0.5,2.2c0,0.8-0.2,1.6-0.5,2.2c-0.4,0.6-0.8,1.1-1.4,1.4
			C264.4,215.5,263.7,215.7,263,215.7z M263,214.5c0.5,0,0.9-0.1,1.3-0.3c0.4-0.2,0.7-0.6,1-1s0.4-1,0.4-1.7s-0.1-1.2-0.4-1.7
			s-0.6-0.8-1-1s-0.8-0.3-1.3-0.3s-0.9,0.1-1.3,0.3c-0.4,0.2-0.7,0.6-1,1c-0.2,0.5-0.4,1-0.4,1.7s0.1,1.2,0.4,1.7s0.6,0.8,1,1
			S262.5,214.5,263,214.5z"/>
		<path class="st1" d="M272.5,215.7c-0.8,0-1.4-0.2-2-0.5s-1.1-0.8-1.4-1.4s-0.5-1.4-0.5-2.2c0-0.8,0.2-1.6,0.5-2.2s0.8-1.1,1.4-1.5
			c0.6-0.3,1.3-0.5,2-0.5c0.8,0,1.4,0.2,2,0.5s1.1,0.8,1.4,1.5s0.5,1.4,0.5,2.2c0,0.8-0.2,1.6-0.5,2.2c-0.4,0.6-0.8,1.1-1.4,1.4
			C273.9,215.5,273.2,215.7,272.5,215.7z M272.5,214.5c0.5,0,0.9-0.1,1.3-0.3s0.7-0.6,1-1s0.4-1,0.4-1.7s-0.1-1.2-0.4-1.7
			c-0.2-0.4-0.6-0.8-1-1s-0.8-0.3-1.3-0.3s-0.9,0.1-1.3,0.3c-0.4,0.2-0.7,0.6-1,1c-0.2,0.5-0.4,1-0.4,1.7s0.1,1.2,0.4,1.7
			c0.2,0.5,0.6,0.8,1,1C271.6,214.4,272,214.5,272.5,214.5z"/>
		<path class="st1" d="M278.8,215.6c-0.3,0-0.5-0.1-0.7-0.3c-0.2-0.2-0.3-0.4-0.3-0.6c0-0.3,0.1-0.5,0.3-0.7
			c0.2-0.2,0.4-0.3,0.7-0.3c0.3,0,0.5,0.1,0.6,0.3c0.2,0.2,0.3,0.4,0.3,0.7c0,0.3-0.1,0.5-0.3,0.6
			C279.3,215.5,279,215.6,278.8,215.6z"/>
		<path class="st2" d="M30,146.9c0.2-0.1,0.6-0.2,1.1-0.2c0.9,0,1.9,0.2,2.9,0.6s1.7,0.9,2.1,1.5c0.5,0.7,0.7,1.4,0.7,2.2
			c0,1-0.3,2.2-0.9,3.7l-0.5,1.1l0.7,0.7c0.5,0.5,0.9,1.1,1.3,1.8c0.3,0.7,0.5,1.4,0.5,2s0,1.2,0,1.7c-0.1,1.2-0.1,2-0.2,2.4
			c-0.1,0.4-0.3,0.9-0.6,1.6c-0.7,1.3-1.3,2.2-1.8,2.6s-1.3,0.6-2.3,0.6c-1.1,0-1.8,0-2,0l0,0c-0.5,0-0.8-0.2-1.2-0.7
			c-0.4-0.5-0.6-1-0.7-1.7c0-0.1,0-0.4,0-0.9c0-0.8,0-1.6,0.1-2.4c0.2-1.4,0.2-4.9,0.2-10.7c0-3,0-4.5-0.1-4.7c0,0,0-0.1,0-0.2
			c0-0.2,0.1-0.5,0.3-0.8C29.6,147.2,29.8,147,30,146.9z M34.2,159.2c-0.1-0.2-0.4-0.3-0.7-0.3s-0.5,0.1-0.7,0.4s-0.2,1.8-0.2,4.5
			c0,1.3,0,2.1,0.1,2.1h0.1c0.1,0,0.3-0.2,0.6-0.6s0.5-0.9,0.7-1.5c0.3-0.7,0.4-1.7,0.4-2.9C34.5,160,34.3,159.4,34.2,159.2z
			 M33.2,150.9c-0.1-0.2-0.2-0.4-0.4-0.4s-0.3,0.6-0.3,1.7c0,1,0,1.5,0.1,1.5l0,0c0.1-0.1,0.3-0.4,0.4-0.8c0.1-0.4,0.2-0.8,0.2-1
			c0-0.1,0-0.3,0-0.5C33.2,151.2,33.2,151,33.2,150.9z"/>
		<path class="st2" d="M45.5,147.7c0.7-0.7,1.8-1.1,3.3-1.1c0.6,0,1.2,0.1,1.6,0.3c0.6,0.3,1,1.1,1.3,2.3c0.2,1.1,0.4,2.9,0.7,5.4
			s0.5,4.5,0.5,5.9c0,1.3,0.1,2.8,0.3,4.4c0.1,1.6,0.3,2.5,0.4,2.7c0,0,0,0.1,0,0.2c0,0.2-0.1,0.6-0.3,0.9c-0.2,0.4-0.4,0.6-0.6,0.6
			c-0.1,0-0.2,0-0.4,0c-0.4,0-0.9-0.1-1.4-0.3c-0.5-0.2-0.8-0.4-0.9-0.6c-0.1-0.2-0.2-1-0.4-2.3s-0.2-2.4-0.2-3.2
			c0-0.8-0.1-1.2-0.2-1.3c-0.1-0.1-0.8-0.1-1.9-0.1c-0.9,0-1.4,0-1.5,0.1c0,0.1,0,0.3,0,0.5c0,0.6,0,1.3,0.1,2.3
			c0.1,1.1,0.1,2,0.1,2.7v0.4c0,0.2-0.2,0.4-0.6,0.5c-0.4,0.2-0.7,0.2-1.1,0.2c-0.2,0-0.3,0-0.4,0c-0.9-0.3-1.5-0.7-1.6-1.2
			c0,0,0-0.1,0-0.2s0-0.2,0-0.3c0-1.2,0.1-3.7,0.4-7.6c0.3-3.9,0.5-6.1,0.6-6.7c0.2-0.8,0.5-1.6,1-2.6
			C44.7,148.7,45.1,148.1,45.5,147.7z M48.3,152c-0.2-0.8-0.4-1.2-0.6-1.2c-0.2,0-0.4,0.3-0.7,0.9c-0.5,1.1-0.9,2.7-1,4.6
			c-0.1,0.8-0.1,1.3-0.1,1.4c0,0.4,0.1,0.6,0.2,0.7c0.1,0.1,0.5,0.2,1.1,0.2c0.8,0,1.3-0.1,1.4-0.2c0.1-0.1,0.1-0.5,0.1-1.1
			C48.8,155.3,48.7,153.6,48.3,152z"/>
		<path class="st2" d="M58.2,147.1c0.2-0.2,0.5-0.4,0.8-0.4c0.2,0,0.5,0,0.6,0c0.6,0.1,1,0.3,1.2,0.5c0.3,0.4,0.5,2.9,0.5,7.6v2.5
			v2.2c0,3.7,0,5.7,0.1,6c0.1,0.5,0.6,0.7,1.4,0.7c0.4,0,0.7,0,1,0c0.2,0,0.5,0,0.8,0c0.5,0,0.9,0.1,1.1,0.2s0.3,0.5,0.3,0.9
			c0,0.3-0.1,0.5-0.2,0.7c-0.1,0.1-0.4,0.4-0.8,0.6c-0.8,0.4-1.6,0.6-2.4,0.7c-1.2,0.1-1.8,0.1-1.8,0.1c-0.1,0-0.2,0-0.3,0
			c-0.3,0-0.7-0.1-1.1-0.3c-0.4-0.2-0.7-0.4-1-0.7c-0.4-0.5-0.6-2-0.6-4.3c0-0.6,0-1.7,0.1-3.3c0.1-1.5,0.1-3,0.1-4.8
			c0-4.1-0.1-6.6-0.2-7.6c-0.1-0.4-0.1-0.6-0.1-0.7C57.8,147.6,57.9,147.3,58.2,147.1z"/>
		<path class="st2" d="M73.9,147.7c0.7-0.7,1.8-1.1,3.3-1.1c0.6,0,1.2,0.1,1.6,0.3c0.6,0.3,1,1.1,1.3,2.3c0.2,1.1,0.4,2.9,0.7,5.4
			s0.5,4.5,0.5,5.9c0,1.3,0.1,2.8,0.3,4.4c0.1,1.6,0.3,2.5,0.4,2.7c0,0,0,0.1,0,0.2c0,0.2-0.1,0.6-0.3,0.9c-0.2,0.4-0.4,0.6-0.6,0.6
			c-0.1,0-0.2,0-0.4,0c-0.4,0-0.9-0.1-1.4-0.3c-0.5-0.2-0.8-0.4-0.9-0.6s-0.2-1-0.4-2.3s-0.2-2.4-0.2-3.2c0-0.8-0.1-1.2-0.2-1.3
			c-0.1-0.1-0.8-0.1-1.9-0.1c-0.9,0-1.4,0-1.5,0.1c0,0.1,0,0.3,0,0.5c0,0.6,0,1.3,0.1,2.3c0.1,1.1,0.1,2,0.1,2.7v0.4
			c0,0.2-0.2,0.4-0.6,0.5c-0.4,0.2-0.7,0.2-1.1,0.2c-0.2,0-0.3,0-0.4,0c-0.9-0.3-1.5-0.7-1.6-1.2c0,0,0-0.1,0-0.2s0-0.2,0-0.3
			c0-1.2,0.1-3.7,0.4-7.6s0.5-6.1,0.6-6.7c0.2-0.8,0.5-1.6,1-2.6C73.1,148.7,73.5,148.1,73.9,147.7z M76.8,152
			c-0.2-0.8-0.4-1.2-0.6-1.2s-0.4,0.3-0.7,0.9c-0.5,1.1-0.9,2.7-1,4.6c-0.1,0.8-0.1,1.3-0.1,1.4c0,0.4,0.1,0.6,0.2,0.7
			s0.5,0.2,1.1,0.2c0.8,0,1.3-0.1,1.4-0.2s0.1-0.5,0.1-1.1C77.2,155.3,77.1,153.6,76.8,152z"/>
		<path class="st2" d="M87.3,146.4c0.4-0.2,0.8-0.3,1.3-0.3c0.8,0,1.4,0.5,1.7,1.6c0.2,0.8,0.5,1.7,1,2.6c0.4,0.9,0.7,1.6,0.9,2.2
			c0.3,0.9,0.5,1.5,0.8,1.7c0.1,0.1,0.2,0.2,0.2,0.2c0.1,0,0.2-0.6,0.3-1.8c0.1-1.1,0.1-1.9,0.1-2.3v-0.5c0-0.2,0-0.5,0-0.8
			c0-0.7,0.2-1.2,0.5-1.6s0.9-0.6,1.6-0.6c0.5,0,0.9,0.1,1.2,0.4c0.2,0.2,0.4,0.5,0.4,1s0,1-0.1,1.5s-0.1,3.9-0.2,10.2
			c0,4-0.1,6.3-0.1,7.1c0,0.8-0.1,1.3-0.3,1.5c-0.3,0.3-0.7,0.5-1.3,0.5c-1.2,0-1.9-0.6-2.1-1.8c-0.1-0.5-0.3-1.3-0.8-2.5
			c-0.4-1.1-0.7-2.1-0.8-3c-0.2-1.2-0.6-2.7-1.2-4.6c-0.1-0.2-0.1-0.2-0.1-0.2c-0.1,0-0.2,1.2-0.2,3.5v2v2.2c0,2.3-0.1,3.6-0.2,3.9
			c-0.3,0.8-0.9,1.2-1.8,1.2c-0.5,0-1-0.2-1.3-0.5c-0.2-0.3-0.4-0.5-0.4-0.8c0-0.1,0-0.3,0.1-0.8c0.1-0.9,0.2-4.3,0.2-10.1
			c0-6.5,0.1-9.9,0.2-10.3c0.1-0.2,0.2-0.4,0.5-0.5C87.2,146.4,87.2,146.4,87.3,146.4z"/>
		<path class="st2" d="M104.3,149c0.5-0.5,0.9-0.9,1.1-1s0.5-0.2,1-0.2c1.3,0,1.9,0.4,1.9,1.3c0,0.8-0.6,1.4-1.7,2
			c-0.7,0.4-1.3,1.8-1.7,4.2c-0.2,1.1-0.3,2.2-0.3,3.4c0,1.2,0.1,2.4,0.2,3.6c0.1,1.6,0.4,2.7,0.7,3.3c0.3,0.6,0.8,1,1.4,1.1
			c1.1,0.2,1.8,0.5,1.9,1c0,0.1,0,0.1,0,0.2c0,0.3-0.2,0.6-0.5,0.9s-0.7,0.5-1.1,0.6c-0.1,0-0.2,0-0.5,0c-1,0-2-0.2-2.8-0.7
			c-0.3-0.2-0.7-0.7-1.1-1.5s-0.8-1.6-1-2.4c-0.3-1.2-0.5-3.2-0.5-6.1c0-1.1,0.1-2.2,0.2-3.2c0.2-1.7,0.5-3,0.9-3.9
			C102.9,150.7,103.5,149.8,104.3,149z"/>
		<path class="st2" d="M115.1,147.5c0.3-0.1,0.8-0.1,1.3-0.1c1.5,0,2.5,0.2,2.9,0.5c0.3,0.2,0.4,0.6,0.4,0.9c0,0.4-0.1,0.7-0.4,0.9
			c-0.3,0.2-0.6,0.4-1.1,0.4c-0.4,0-0.7,0.1-0.8,0.3c-0.1,0.2-0.2,0.7-0.2,1.5c0,0.2,0,0.9,0.1,2.1c0.1,1.4,0.1,2.3,0.2,2.7
			c0.1,0.4,0.2,0.6,0.3,0.7c0,0,0.2,0,0.6,0s0.6,0,0.8,0c0.7,0,1.2,0.2,1.5,0.5c0.2,0.2,0.3,0.4,0.3,0.6c0,0.4-0.6,0.8-1.8,1.3
			c-0.7,0.2-1.1,0.4-1.3,0.6s-0.2,0.4-0.3,0.9c-0.1,0.5-0.1,0.8-0.1,1.2c0,1.4,0.1,2.4,0.4,3.1c0.1,0.3,0.2,0.5,0.4,0.5
			s0.4,0.1,0.9,0.1c0.6,0,1.1,0.1,1.5,0.4s0.6,0.6,0.6,0.9c0,0.2-0.2,0.6-0.6,1c-0.7,0.6-1.8,1-3.4,1s-2.7-0.4-3.2-1
			c-0.3-0.4-0.4-2.8-0.5-7.2c-0.1-5.5-0.1-8.8-0.2-9.7l-0.1-3.1l0.6-0.3C114.3,147.8,114.7,147.6,115.1,147.5z"/>
		<path class="st2" d="M126.4,148.2c0.1,0,0.8,0,2.1,0c1.5,0,2.6,0.3,3.3,1c0.7,0.6,1.3,1.7,1.8,3.3c0.5,1.5,0.7,3.2,0.7,5.2
			c0,0.4,0,0.9-0.1,1.4c-0.1,0.4-0.2,1-0.3,1.9s-0.2,1.6-0.3,2.2c-0.1,0.7-0.2,1.1-0.4,1.4c-0.1,0.2-0.2,0.5-0.2,0.8
			c0,0.2-0.1,0.6-0.4,1.2c-0.3,0.6-0.5,1-0.7,1.3c-0.3,0.4-0.8,0.8-1.5,1.1c-0.6,0.3-1.3,0.5-1.9,0.6c-0.5,0.1-0.8,0.1-0.9,0.1
			c-0.3,0-0.7-0.1-1-0.5l-0.6-0.6v-7.1v-2.1c0-3.5,0-5.4-0.1-5.8c-0.2-1.1-0.2-2.1-0.2-2.9C125.6,149.1,125.8,148.3,126.4,148.2z
			 M130.3,153.3c-0.4-1.5-0.8-2.2-1-2.2l-0.1,0.1v0.1c0,0.1,0,0.1,0,0.3c0,0.1,0,0.2,0,0.4c0,0.4,0,1.2,0.1,2.4
			c0.1,1.4,0.2,3.4,0.2,5.8c0,2.3,0.1,3.5,0.3,3.5c0.1,0,0.2-0.2,0.3-0.6c0.5-1.8,0.8-3.7,0.8-5.7
			C130.8,155.8,130.6,154.4,130.3,153.3z"/>
		<path class="st2" d="M149.7,148.2c0.1,0,0.8,0,2.1,0c1.5,0,2.6,0.3,3.3,1c0.7,0.6,1.3,1.7,1.8,3.3c0.5,1.5,0.7,3.2,0.7,5.2
			c0,0.4,0,0.9-0.1,1.4c-0.1,0.4-0.2,1-0.3,1.9s-0.2,1.6-0.3,2.2c-0.1,0.7-0.2,1.1-0.4,1.4c-0.1,0.2-0.2,0.5-0.2,0.8
			c0,0.2-0.1,0.6-0.4,1.2c-0.3,0.6-0.5,1-0.7,1.3c-0.3,0.4-0.8,0.8-1.5,1.1c-0.6,0.3-1.3,0.5-1.9,0.6c-0.5,0.1-0.8,0.1-0.9,0.1
			c-0.3,0-0.7-0.1-1-0.5l-0.6-0.6v-7.1v-2.1c0-3.5,0-5.4-0.1-5.8c-0.2-1.1-0.2-2.1-0.2-2.9C149,149.1,149.2,148.3,149.7,148.2z
			 M153.7,153.3c-0.4-1.5-0.8-2.2-1.1-2.2l-0.1,0.1v0.1c0,0.1,0,0.1,0,0.3c0,0.1,0,0.2,0,0.4c0,0.4,0,1.2,0.1,2.4
			c0.1,1.4,0.1,3.4,0.2,5.8c0,2.3,0.1,3.5,0.3,3.5c0.1,0,0.1-0.2,0.3-0.6c0.5-1.8,0.8-3.7,0.8-5.7
			C154.2,155.8,154,154.4,153.7,153.3z"/>
		<path class="st2" d="M162.3,147.6c0.3-0.4,0.8-0.5,1.3-0.5s0.9,0.2,1.3,0.5l0.6,0.6l0.2,9.5c0.1,5.2,0.2,8.2,0.2,9
			c0,0.4,0,0.8,0,1c0,0.3,0,0.5,0,0.7s-0.1,0.3-0.1,0.4c-0.1,0.1-0.1,0.2-0.1,0.2s-0.1,0.1-0.2,0.1c-0.1,0.1-0.2,0.1-0.2,0.1
			c-0.3,0.2-0.6,0.3-0.8,0.3c-0.1,0-0.4-0.1-0.8-0.2c-0.7-0.3-1.1-0.5-1.1-0.7c-0.1-0.1-0.2-3.5-0.2-10.1c-0.1-6.6-0.1-9.9-0.2-10
			C161.9,148.2,162,147.9,162.3,147.6z"/>
		<path class="st2" d="M171.9,147.5c0.3-0.1,0.8-0.1,1.3-0.1c1.5,0,2.5,0.2,2.9,0.5c0.3,0.2,0.4,0.6,0.4,0.9c0,0.4-0.1,0.7-0.4,0.9
			s-0.6,0.4-1.1,0.4c-0.4,0-0.7,0.1-0.8,0.3c-0.1,0.2-0.2,0.7-0.2,1.5c0,0.2,0,0.9,0.1,2.1c0.1,1.4,0.1,2.3,0.2,2.7
			c0.1,0.4,0.2,0.6,0.3,0.7c0,0,0.2,0,0.5,0s0.6,0,0.8,0c0.7,0,1.2,0.2,1.5,0.5c0.2,0.2,0.3,0.4,0.3,0.6c0,0.4-0.6,0.8-1.8,1.3
			c-0.7,0.2-1.1,0.4-1.3,0.6s-0.2,0.4-0.3,0.9s-0.1,0.8-0.1,1.2c0,1.4,0.1,2.4,0.4,3.1c0.1,0.3,0.2,0.5,0.4,0.5s0.4,0.1,0.9,0.1
			c0.6,0,1.1,0.1,1.5,0.4s0.6,0.6,0.6,0.9c0,0.2-0.2,0.6-0.6,1c-0.7,0.6-1.8,1-3.4,1c-1.6,0-2.7-0.4-3.2-1c-0.3-0.4-0.4-2.8-0.5-7.2
			c-0.1-5.5-0.1-8.8-0.2-9.7l-0.1-3.1l0.6-0.3C171.1,147.8,171.5,147.6,171.9,147.5z"/>
		<path class="st2" d="M183.3,146.3c0.4-0.3,1-0.5,1.9-0.5h1c1.5,0.1,2.4,0.1,2.7,0.2c0.2,0.1,0.6,0.1,1.2,0.1
			c0.6,0,1.1,0.2,1.4,0.4c0.3,0.2,0.4,0.6,0.4,1.1s-0.1,0.9-0.3,1.1s-0.5,0.4-1,0.5c-0.6,0.1-0.9,0.2-1,0.3c-0.1,0.1-0.2,2.8-0.2,8
			c0,3.6,0,6.1,0.1,7.6c0.1,1.2,0.1,1.8,0.1,1.9c0,0.6-0.1,1.1-0.4,1.5c-0.3,0.6-0.8,0.8-1.4,0.8c-0.4,0-0.9-0.1-1.3-0.4l-0.8-0.5
			l0.1-9.6c0.1-2.5,0.1-4.9,0.1-7.4c0-1.5-0.1-2.3-0.3-2.4c-0.3-0.2-0.6-0.2-0.6-0.2c-0.1,0-0.3,0-0.5,0c-0.5,0-0.9-0.1-1.3-0.4
			s-0.5-0.6-0.5-1C182.7,147.1,182.9,146.7,183.3,146.3z"/>
		<path class="st3" d="M213.9,142.8c-1.2,0.9-1.2,2,0.5,3l13.4-8.4c0.8-0.5,1.8-0.3,2.2,0.4v0.1c0.4,0.7,0.2,1.6-0.6,2.1l-12.5,7.9
			c-0.5,0.3-0.8,0.9-0.6,1.5c0.4,1.1,1.3,1.4,2.3,0.8l12.4-7.8c0.8-0.5,1.8-0.3,2.2,0.4v0.1c0.4,0.7,0.1,1.6-0.6,2.1l-12.5,7.9
			c-0.5,0.3-0.8,1-0.6,1.5c0.4,1.1,1.2,1.3,2.3,0.7l20.7-11.5c0.6-0.3,0.9-0.9,0.8-1.5l-0.5-3.8c-0.1-0.6,0.2-1.2,0.8-1.5l41.3-24.7
			c1.6-0.9,2.2-2.9,1.3-4.2l-1.5-2.4c-0.9-1.4-2.9-1.7-4.4-0.7l-40.2,26.5c-0.5,0.4-1.2,0.4-1.7,0.1l-3.2-2.1
			c-0.5-0.3-1.2-0.3-1.7,0.1L213.9,142.8z"/>
		<path class="st4" d="M297.7,222.9c-2.8,44.5-39.4,49.4-49.6,49.9c-0.1,0.2-0.2,0.4-0.3,0.5c-0.3,0.5-0.6,0.9-1,1.2
			c4.9,5.5,22.9,21.5,49.6-3.5c20.7-19.4,12-42.1,6.5-49.6C301.4,219.3,297.9,220.2,297.7,222.9z"/>
		<path class="st4" d="M307.7,244c-2.5,6.8-6.8,12.8-11.7,18.1c-4.9,5.2-10.4,10.5-16.7,13.9c-8.3,4.5-17.5,4.8-26.6,3.5
			c7.5,5.8,22.5,11.6,43.8-8.4c11.8-11.1,14-23.2,12.8-32.9C308.9,240.1,308.4,242.1,307.7,244z"/>
		<path class="st5" d="M302.9,223.9c0.5-0.1,1.1-0.2,1.6-0.2c-0.5-0.9-1-1.6-1.4-2.2c-1.6-2.2-5-1.2-5.3,1.5
			c-0.1,1.2-0.3,2.3-0.5,3.4C298.9,225.1,300.7,224.3,302.9,223.9z"/>
		<path class="st5" d="M247.4,272.9c-0.5,0.2-1,0.4-1.5,0.5c-2,0.8-3.1,1.7-2.3,2.6c0,0,1.7,2.6,4.4,3l6.9,2l0.2,0.1
			c-4.1-3.2,1.3-7.7,3.4-9.8C253.7,272.5,249.6,272.8,247.4,272.9z"/>
		<path class="st6" d="M302.9,159.1c2.4,0,4.3-1.9,4.3-4.3s-1.9-4.3-4.3-4.3s-4.3,1.9-4.3,4.3S300.5,159.1,302.9,159.1z"/>
		<path class="st6" d="M301.7,171.9c2.4,0,4.3-1.9,4.3-4.3s-1.9-4.3-4.3-4.3s-4.3,1.9-4.3,4.3S299.3,171.9,301.7,171.9z"/>
		<path class="st6" d="M297.8,165.7c2.4,0,4.3-1.9,4.3-4.3s-1.9-4.3-4.3-4.3s-4.3,1.9-4.3,4.3S295.4,165.7,297.8,165.7z"/>
		<path class="st6" d="M296,156.3c2.4,0,4.3-1.9,4.3-4.3s-1.9-4.3-4.3-4.3s-4.3,1.9-4.3,4.3C291.7,154.3,293.6,156.3,296,156.3z"/>
		<path class="st6" d="M292.1,162.5c2.4,0,4.3-1.9,4.3-4.3s-1.9-4.3-4.3-4.3s-4.3,1.9-4.3,4.3C287.8,160.6,289.8,162.5,292.1,162.5z
			"/>
		<path class="st6" d="M298.2,161.4c2.4,0,4.3-1.9,4.3-4.3s-1.9-4.3-4.3-4.3s-4.3,1.9-4.3,4.3S295.8,161.4,298.2,161.4z"/>
		<path class="st6" d="M293.5,167.5c2.4,0,4.3-1.9,4.3-4.3s-1.9-4.3-4.3-4.3s-4.3,1.9-4.3,4.3S291.1,167.5,293.5,167.5z"/>
		<path class="st6" d="M302.4,164.9c2.4,0,4.3-1.9,4.3-4.3s-1.9-4.3-4.3-4.3s-4.3,1.9-4.3,4.3S300,164.9,302.4,164.9z"/>
		<path class="st6" d="M296.4,176c2.4,0,4.3-1.9,4.3-4.3s-1.9-4.3-4.3-4.3s-4.3,1.9-4.3,4.3S294,176,296.4,176z"/>
		<path class="st6" d="M295.9,172.8c2.4,0,4.3-1.9,4.3-4.3s-1.9-4.3-4.3-4.3s-4.3,1.9-4.3,4.3S293.5,172.8,295.9,172.8z"/>
		<path class="st6" d="M290.1,173.8c2.4,0,4.3-1.9,4.3-4.3s-1.9-4.3-4.3-4.3s-4.3,1.9-4.3,4.3C285.8,171.9,287.7,173.8,290.1,173.8z
			"/>
		<path class="st6" d="M287.7,168.5c2.4,0,4.3-1.9,4.3-4.3s-1.9-4.3-4.3-4.3s-4.3,1.9-4.3,4.3S285.3,168.5,287.7,168.5z"/>
		<path class="st6" d="M289.2,157.1c2.4,0,4.3-1.9,4.3-4.3s-1.9-4.3-4.3-4.3s-4.3,1.9-4.3,4.3C284.9,155.1,286.9,157.1,289.2,157.1z
			"/>
		<path class="st6" d="M285,162.5c2.4,0,4.3-1.9,4.3-4.3s-1.9-4.3-4.3-4.3s-4.3,1.9-4.3,4.3S282.7,162.5,285,162.5z"/>
		<path class="st6" d="M280.8,158.1c2.4,0,4.3-1.9,4.3-4.3s-1.9-4.3-4.3-4.3s-4.3,1.9-4.3,4.3S278.4,158.1,280.8,158.1z"/>
		<path class="st6" d="M280.7,162.5c2.4,0,4.3-1.9,4.3-4.3s-1.9-4.3-4.3-4.3s-4.3,1.9-4.3,4.3C276.4,160.5,278.4,162.5,280.7,162.5z
			"/>
		<path class="st6" d="M284,156.5c2.4,0,4.3-1.9,4.3-4.3s-1.9-4.3-4.3-4.3s-4.3,1.9-4.3,4.3S281.6,156.5,284,156.5z"/>
		<path class="st6" d="M278.3,153.6c1.8,0,3.2-1.4,3.2-3.2s-1.4-3.2-3.2-3.2c-1.8,0-3.2,1.4-3.2,3.2S276.5,153.6,278.3,153.6z"/>
		<path class="st6" d="M276.5,157c1.8,0,3.2-1.4,3.2-3.2s-1.4-3.2-3.2-3.2c-1.8,0-3.2,1.4-3.2,3.2S274.7,157,276.5,157z"/>
		<path class="st6" d="M274.1,152.7c1.8,0,3.2-1.4,3.2-3.2s-1.4-3.2-3.2-3.2s-3.2,1.4-3.2,3.2S272.3,152.7,274.1,152.7z"/>
		<path class="st6" d="M284.2,166c2.4,0,4.3-1.9,4.3-4.3s-1.9-4.3-4.3-4.3s-4.3,1.9-4.3,4.3S281.8,166,284.2,166z"/>
		<path class="st2" d="M305.5,166.2l1.1-2l4.9,2.6c0.6,0.3,1.5,0.8,1,1.8s-1.5,0.5-2,0.2L305.5,166.2z"/>
		<path class="st2" d="M294.5,165.4c0,0,14.9,8.8,12.4-1.3C305,156.3,294.5,165.4,294.5,165.4z"/>
		<path class="st2" d="M299.1,176.3c0,0,11.8-2,8.8-9.2C304.6,159.3,299.1,176.3,299.1,176.3z"/>
		<path class="st2" d="M308.7,151c0,0-8.1,13.8-0.6,14.1C314,165.4,308.7,151,308.7,151z"/>
		<path class="st7" d="M173.1,87.4c0.7-0.8,2-0.9,2.8-0.1L187.8,98c0.8,0.7,0.9,2,0.1,2.8c-0.7,0.8-2,0.9-2.8,0.1l-11.9-10.7
			C172.5,89.5,172.4,88.3,173.1,87.4z"/>
		<path class="st7" d="M173.8,86.6c0.1-0.1,0.1-0.1,0.2-0.2c0.9-0.7,2.1-0.6,2.8,0.3c0.2,0.3,5.3,6.2,11.2,2.4
			c0.9-0.6,2.2-0.4,2.8,0.6c0.6,0.9,0.4,2.2-0.6,2.8c-7.1,4.7-13.9,0-16.5-3.2C173.1,88.4,173.1,87.3,173.8,86.6z"/>
		<path class="st7" d="M172.4,88.3c0.6-0.7,1.8-0.9,2.6-0.3c3.4,2.2,8.7,8.5,4.8,16.1c-0.5,1-1.7,1.4-2.7,0.8
			c-1-0.5-1.4-1.7-0.9-2.7c3.3-6.3-3.2-10.7-3.5-10.9c-0.9-0.6-1.2-1.9-0.6-2.8C172.2,88.5,172.3,88.4,172.4,88.3z"/>
		<path class="st8" d="M140.4,54.9c-5.7-3.3-7.2-1.6-3.4,3.7l22.8,31.7c3.9,5.4,10.6,5.7,15,0.8l1.7-1.8c4.4-4.9,3.4-11.6-2.3-14.9
			L140.4,54.9z"/>
		<path class="st9" d="M75.7,268.8c-1.7-3.5-4-6.9-7.1-8.8l11.2,4.4c0.7-1,1.4-2,2-3c0.5-0.9,0.9-1.8,1.4-2.7l-10.1-7.1
			c3.5,1.6,8,1.6,12,1c-0.2,0.2,1.2-2.3,1.2-3.7c-16-1.1-33-9.8-33-9.8c-5.3-2.9-7.8,3.2-7.8,3.2s-3.7,5.4,1.6,8.2
			c0,0,15.5,8.7,25.4,20.8C73.7,270.5,74.7,269.7,75.7,268.8z"/>
		<path class="st2" d="M80.2,253.9c-28.6,19.5-6.7,42.1,2.3,26.8c8.1,6.7,11.9-5.1,16.6-10.5c1.7-2,2.5-4.6,1.8-7.1
			c-0.3-1-0.7-1.9-1.4-2.7c7.4-4.5,3.1-18-5.6-13.5C94.8,234.3,78.6,233.4,80.2,253.9z M90.9,259.5c-0.1,0.1-0.3,0.2-0.4,0.3
			c0.1-0.1,0.2-0.3,0.2-0.5C90.8,259.4,90.8,259.4,90.9,259.5z"/>
		<path d="M172.6,296.3C172.5,296.2,172.7,296.4,172.6,296.3L172.6,296.3z"/>
		<path d="M143.4,277.9C143.3,277.8,143.4,277.9,143.4,277.9L143.4,277.9z"/>
		<path class="st10" d="M203.9,302.7c-0.1,1.2-0.8,2.3-1.9,2.9c-1.2,0.6-2.2-0.4-3.3-0.2c-1.4,0.2-0.7,1.9-0.8,2.8
			c-0.2,1.4-1.1,2.6-2.3,3.2c-2.1,0.9-4.5-0.1-5.4-2.2c-0.2-0.5-0.3-1-0.3-1.6c0.1-1.6,0.8-3.1,0.3-4.7c-0.5-1.2-1.4-2.3-2.4-3.2
			c-0.1-0.2-0.4-0.4-0.6-0.7c0.9-0.4,1.8-0.9,2.6-1.5c1.2-0.8,2.3-1.7,3.2-2.8l0.3,0.3c0.9,1.2,2,2.2,3.3,3c1.3,0.7,4.1-0.4,5.9,0.9
			C203.5,300,204.1,301.4,203.9,302.7z"/>
		<path class="st4" d="M195.3,288.7c-0.6-3.3-2-6.5-2.7-9.8c-0.2-0.9-2.3-7.8-2.6-9.6c-0.5-3.4-0.5-6.8-1.2-10.2
			c-1.5-6.4-5.3-12.1-10.5-16.2c-6.3-4.9-14.4-7.1-22.3-6c-8.9,1.4-15.1,8.6-17.6,16.9c-2.4,8.3-0.5,17.2,5,23.9
			c0.1,0.1,0.1,0.1,0.2,0.2c0.4,0.5,1.7,2,2.6,2.8c1.1,1.1,2.2,2.1,3.4,3c2.5,1.9,5.3,3.6,8.2,4.9c3,1.2,6.1,2.2,9.3,3
			c2.8,0.8,5.4,2,7.7,3.7c2.7,2.3,5.8,4.1,9.1,5.3c3.4,0.9,6.3-0.8,8.8-3c1.1-0.8,2-1.9,2.6-3.2
			C195.7,292.6,195.7,290.6,195.3,288.7z"/>
		<path class="st11" d="M41.5,80.5c-0.8,8.4,4.1,18.2,4.1,18.2c5.5-12,6.1-17.9,5.9-20.8l-7.4-7.3c-2.9-0.1-8.8,0.6-20.7,6.3
			C23.5,76.8,33.4,81.6,41.5,80.5z"/>
		<path class="st11" d="M84.6,58c-0.4,3.8-1.8,13.6-4.9,18.9c0,0-3.8-5-5.3-10.6L84.6,58z"/>
		<path class="st11" d="M64.1,37.8C60.5,38.5,50.7,40,45.3,43c0,0,5.3,3.9,10.7,5.1L64.1,37.8z"/>
		<path class="st12" d="M51,78.1c13.2-0.8,28.3-11.2,38.7-24.7C77.7,52,71.6,42.9,68,31.9C54.5,42.3,44.5,58,44,71.2L51,78.1z"/>
		<path class="st11" d="M89.7,53.5c-11.4-1.4-20-10.5-21.8-21.4c8.6-5.7,18-8.1,25.3-4.2C97.5,35.4,95.3,44.9,89.7,53.5z"/>
		<path class="st13" d="M247.4,34.3c-6.2-3.9-17.3,0.4-22.9,3.8c-5.7,3.3-14.8,10.9-14.4,18.2c0,0.3,0.1,0.7,0.1,1
			c0.6,0.7,2.8,1.4,3.5,1.5l2.8,0.5l16.5,28l30.3-17.9l-16.5-28l1-2.7c0.3-0.7,0.7-3,0.4-3.8C248,34.7,247.7,34.5,247.4,34.3z
			 M252.4,30.4C238,17.7,200.2,40,204.3,58.8c1.1,4.9,8.5,6.1,8.5,6.1s13,22.1,15.6,26.4c2.6,4.4,5.8,2.5,5.8,2.5l34.3-20.3
			c0,0,3.2-2,0.6-6.3c-2.6-4.4-15.6-26.4-15.6-26.4S256.2,33.7,252.4,30.4z M250,41.2L266.4,69c0.7,1,0.4,2-0.3,2.3l-32.5,19.1
			c-0.6,0.3-1.5,0.8-2.4-0.7l-16.3-27.9c-2.2-0.4-6.8-1.3-7.3-3.8c-0.1-0.5-0.2-1.1-0.2-1.6c-0.4-8.6,9.1-16.9,15.8-20.8
			c6.6-3.9,18.5-8.3,25.8-3.7c0.5,0.3,0.9,0.6,1.3,1C252.1,34.6,250.8,39,250,41.2z M224.5,38.1c-5.7,3.3-14.8,10.9-14.4,18.2
			c0,0.3,0.1,0.7,0.1,1c0.6,0.7,2.8,1.4,3.5,1.5l2.8,0.5l16.5,28l30.3-17.9l-16.5-28l1-2.7c0.3-0.7,0.7-3,0.4-3.8
			c-0.3-0.2-0.6-0.4-0.9-0.6C241.2,30.4,230.2,34.8,224.5,38.1z M247.4,34.3c-6.2-3.9-17.3,0.4-22.9,3.8
			c-5.7,3.3-14.8,10.9-14.4,18.2c0,0.3,0.1,0.7,0.1,1c0.6,0.7,2.8,1.4,3.5,1.5l2.8,0.5l16.5,28l30.3-17.9l-16.5-28l1-2.7
			c0.3-0.7,0.7-3,0.4-3.8C248,34.7,247.7,34.5,247.4,34.3z"/>
		<path class="st14" d="M250.2,32.9c-0.4-0.4-0.9-0.7-1.3-1c-7.3-4.5-19.2-0.2-25.8,3.7c-6.6,3.9-16.2,12.2-15.8,20.8
			c0,0.6,0.1,1.1,0.2,1.6c0.5,2.5,5.1,3.4,7.3,3.8l16.4,27.8c0.9,1.5,1.8,1,2.4,0.7l32.5-19.1c0.7-0.3,1-1.2,0.3-2.3L250,41.2
			C250.8,39,252.1,34.6,250.2,32.9z M247.9,38.7l-1,2.7l16.5,28l-30.3,17.9l-16.5-28l-2.8-0.5c-0.8-0.1-3-0.8-3.5-1.5
			c-0.1-0.3-0.1-0.7-0.1-1c-0.4-7.3,8.7-14.9,14.4-18.2c5.7-3.3,16.7-7.6,22.9-3.8c0.3,0.2,0.6,0.4,0.9,0.6
			C248.6,35.7,248.2,38,247.9,38.7z"/>
	</g>
</g>
</svg>
