<?xml version="1.0" encoding="utf-8"?>
<!-- Generator: Adobe Illustrator 25.1.0, SVG Export Plug-In . SVG Version: 6.00 Build 0)  -->
<svg version="1.1" id="Layer_1" xmlns="http://www.w3.org/2000/svg" xmlns:xlink="http://www.w3.org/1999/xlink" x="0px" y="0px"
	 viewBox="0 0 333.1 180.1" style="enable-background:new 0 0 333.1 180.1;" xml:space="preserve">
<style type="text/css">
	.st0{fill:#FFFFFF;}
	.st1{fill:#808080;}
	.st2{fill:#D64204;}
	.st3{fill:#40D9E5;}
	.st4{fill:#F4F1EF;}
	.st5{fill:#FF9F1A;}
	.st6{fill:#E14504;}
	.st7{fill-rule:evenodd;clip-rule:evenodd;fill:#808080;}
	.st8{fill-rule:evenodd;clip-rule:evenodd;fill:#FFFFFF;}
	.st9{fill:none;stroke:#F4F1EF;stroke-width:0.8434;stroke-linecap:round;stroke-miterlimit:10;}
</style>
<g>
	<g>
		<path class="st0" d="M333.1,129.5C333.1,11.8,324.3,0,269.5,0C242.6,0,131.9,1.3,96.7,1.8C62.3,2.3,15.4-2,9.3,16.1
			c-6,17.8-9.1,40.9-9.1,73c0,50.4-4.7,80.9,30.8,87.3c36,6.5,211.3,2.7,254.7,1.9C330.5,177.5,333.1,180.9,333.1,129.5z"/>
		<path class="st1" d="M25.2,42.4V31.2h3.6c0.9,0,1.6,0.1,2.1,0.4s1,0.7,1.2,1.2s0.4,1.1,0.4,1.7c0,0.7-0.2,1.3-0.6,1.9
			c-0.4,0.6-1,1-1.8,1.2l2.5,4.8H31l-2.3-4.6h-0.1h-2.2v4.6H25.2L25.2,42.4z M26.6,36.7h2.2c0.9,0,1.5-0.2,1.9-0.6
			c0.4-0.4,0.6-0.9,0.6-1.6c0-0.7-0.2-1.2-0.6-1.6c-0.4-0.4-1-0.6-1.9-0.6h-2.2L26.6,36.7L26.6,36.7z"/>
		<path class="st1" d="M37.7,42.6c-0.8,0-1.4-0.2-2-0.5s-1-0.8-1.4-1.4c-0.3-0.6-0.5-1.4-0.5-2.2s0.2-1.6,0.5-2.2
			c0.3-0.6,0.8-1.1,1.4-1.5s1.3-0.5,2.1-0.5s1.4,0.2,2,0.5c0.6,0.4,1,0.8,1.3,1.4c0.3,0.6,0.5,1.2,0.5,1.8c0,0.1,0,0.2,0,0.3
			s0,0.2,0,0.4h-6.3c0,0.6,0.2,1.1,0.4,1.5s0.6,0.7,0.9,0.9c0.4,0.2,0.8,0.3,1.2,0.3c0.5,0,1-0.1,1.4-0.4c0.4-0.3,0.7-0.6,0.8-1h1.3
			c-0.2,0.7-0.6,1.4-1.2,1.8C39.4,42.3,38.6,42.6,37.7,42.6z M37.7,35.4c-0.6,0-1.2,0.2-1.7,0.6c-0.5,0.4-0.8,1-0.9,1.7h5
			c0-0.7-0.3-1.3-0.7-1.7C38.9,35.6,38.4,35.4,37.7,35.4z"/>
		<path class="st1" d="M46.3,42.6c-1,0-1.7-0.2-2.4-0.7s-1-1.1-1.1-1.9h1.4c0.1,0.4,0.3,0.8,0.7,1.1c0.3,0.3,0.8,0.5,1.4,0.5
			c0.6,0,1-0.1,1.2-0.4c0.3-0.2,0.4-0.5,0.4-0.9c0-0.5-0.2-0.8-0.5-1s-0.8-0.3-1.5-0.4c-0.4-0.1-0.8-0.2-1.3-0.4s-0.8-0.4-1.1-0.7
			s-0.4-0.7-0.4-1.2c0-0.7,0.3-1.3,0.8-1.7s1.2-0.7,2.1-0.7c0.8,0,1.5,0.2,2.1,0.6c0.5,0.4,0.8,1,0.9,1.8h-1.3
			c0-0.4-0.2-0.7-0.5-0.9s-0.7-0.3-1.2-0.3s-0.8,0.1-1.1,0.3s-0.4,0.5-0.4,0.8s0.2,0.6,0.5,0.8s0.8,0.3,1.4,0.5
			c0.5,0.1,1,0.2,1.4,0.4c0.4,0.1,0.8,0.4,1.1,0.7s0.4,0.7,0.4,1.3c0,0.7-0.3,1.3-0.8,1.8C48,42.3,47.2,42.6,46.3,42.6z"/>
		<path class="st1" d="M54.8,42.6c-0.8,0-1.4-0.2-2-0.5c-0.6-0.4-1-0.8-1.4-1.4s-0.5-1.4-0.5-2.2s0.2-1.6,0.5-2.2
			c0.3-0.6,0.8-1.1,1.4-1.5c0.6-0.4,1.3-0.5,2.1-0.5s1.4,0.2,2,0.5s1,0.8,1.3,1.4c0.3,0.6,0.4,1.2,0.4,1.8c0,0.1,0,0.2,0,0.3
			s0,0.2,0,0.4h-6.3c0,0.6,0.2,1.1,0.4,1.5s0.6,0.7,0.9,0.9c0.4,0.2,0.8,0.3,1.2,0.3c0.5,0,1-0.1,1.4-0.4c0.4-0.3,0.7-0.6,0.8-1h1.3
			c-0.2,0.7-0.6,1.4-1.2,1.8C56.5,42.3,55.7,42.6,54.8,42.6z M54.8,35.4c-0.6,0-1.2,0.2-1.7,0.6s-0.8,1-0.9,1.7h5
			c0-0.7-0.3-1.3-0.7-1.7S55.5,35.4,54.8,35.4z"/>
		<path class="st1" d="M63,42.6c-0.7,0-1.2-0.1-1.7-0.3c-0.4-0.2-0.8-0.5-1-0.9S60,40.6,60,40.2c0-0.8,0.3-1.4,0.9-1.9
			c0.6-0.4,1.5-0.7,2.5-0.7h2.1v-0.1c0-0.7-0.2-1.2-0.5-1.6s-0.9-0.5-1.5-0.5c-0.5,0-1,0.1-1.4,0.4c-0.4,0.3-0.6,0.6-0.7,1.1H60
			c0-0.6,0.2-1.1,0.6-1.5c0.3-0.4,0.8-0.7,1.3-0.9s1-0.3,1.6-0.3c1.1,0,1.9,0.3,2.5,0.9c0.6,0.6,0.8,1.4,0.8,2.4v4.9h-1.2L65.5,41
			c-0.2,0.4-0.6,0.8-1,1.1C64.3,42.4,63.7,42.6,63,42.6z M63.2,41.4c0.5,0,1-0.1,1.3-0.4c0.4-0.3,0.7-0.6,0.8-1
			c0.2-0.4,0.3-0.9,0.3-1.3l0,0h-2c-0.8,0-1.3,0.1-1.7,0.4s-0.5,0.6-0.5,1s0.2,0.8,0.5,1C62.2,41.3,62.6,41.4,63.2,41.4z"/>
		<path class="st1" d="M69,42.4v-7.9h1.2l0.1,1.5c0.2-0.5,0.6-0.9,1.1-1.2s1.1-0.5,1.9-0.5v1.4h-0.4c-0.5,0-0.9,0.1-1.3,0.2
			c-0.4,0.2-0.7,0.4-0.9,0.8c-0.2,0.4-0.3,0.9-0.3,1.6v4H69V42.4z"/>
		<path class="st1" d="M78.1,42.6c-0.8,0-1.4-0.2-2-0.5c-0.6-0.4-1.1-0.8-1.4-1.5c-0.3-0.6-0.5-1.4-0.5-2.2s0.2-1.6,0.5-2.2
			c0.3-0.6,0.8-1.1,1.4-1.5s1.3-0.5,2-0.5c0.9,0,1.7,0.2,2.4,0.7c0.6,0.5,1,1.1,1.2,2h-1.3c-0.1-0.5-0.4-0.9-0.8-1.1
			c-0.4-0.3-0.9-0.4-1.5-0.4c-0.5,0-0.9,0.1-1.3,0.3s-0.7,0.6-1,1c-0.2,0.4-0.4,1-0.4,1.7s0.1,1.2,0.4,1.7s0.6,0.8,1,1
			s0.8,0.3,1.3,0.3s1-0.1,1.5-0.4c0.4-0.3,0.7-0.7,0.8-1.2h1.4c-0.2,0.8-0.6,1.4-1.2,1.9C79.9,42.3,79.1,42.6,78.1,42.6z"/>
		<path class="st1" d="M83.6,42.4V30.8h1.3v4.9c0.3-0.5,0.7-0.9,1.1-1.1c0.5-0.3,1-0.4,1.6-0.4c0.9,0,1.6,0.3,2.2,0.9
			c0.5,0.6,0.8,1.4,0.8,2.6v4.6h-1.2v-4.5c0-1.6-0.7-2.5-2-2.5c-0.7,0-1.3,0.2-1.7,0.7c-0.5,0.5-0.7,1.2-0.7,2.1v4.1L83.6,42.4
			L83.6,42.4z"/>
		<path class="st1" d="M100.1,42.6c-1,0-1.7-0.2-2.4-0.7c-0.6-0.5-1-1.1-1.1-1.9H98c0.1,0.4,0.3,0.8,0.7,1.1
			c0.3,0.3,0.8,0.5,1.4,0.5s1-0.1,1.2-0.4c0.3-0.2,0.4-0.5,0.4-0.9c0-0.5-0.2-0.8-0.5-1c-0.4-0.2-0.8-0.3-1.5-0.4
			c-0.4-0.1-0.8-0.2-1.3-0.4s-0.8-0.4-1.1-0.7c-0.3-0.3-0.4-0.7-0.4-1.2c0-0.7,0.3-1.3,0.8-1.7s1.2-0.7,2.1-0.7
			c0.8,0,1.5,0.2,2.1,0.6s0.8,1,0.9,1.8h-1.3c-0.1-0.4-0.2-0.7-0.5-0.9s-0.7-0.3-1.2-0.3s-0.8,0.1-1.1,0.3c-0.3,0.2-0.4,0.5-0.4,0.8
			s0.2,0.6,0.5,0.8s0.8,0.3,1.4,0.5c0.5,0.1,1,0.2,1.4,0.4c0.4,0.1,0.8,0.4,1.1,0.7c0.3,0.3,0.4,0.7,0.4,1.3c0,0.7-0.3,1.3-0.8,1.8
			C101.7,42.3,101,42.6,100.1,42.6z"/>
		<path class="st1" d="M105,42.4V30.8h1.3v4.9c0.3-0.5,0.6-0.9,1.1-1.1c0.5-0.3,1-0.4,1.6-0.4c0.9,0,1.6,0.3,2.2,0.9
			c0.6,0.6,0.8,1.4,0.8,2.6v4.6h-1.3v-4.5c0-1.6-0.7-2.5-2-2.5c-0.7,0-1.3,0.2-1.7,0.7c-0.5,0.5-0.7,1.2-0.7,2.1v4.1L105,42.4
			L105,42.4z"/>
		<path class="st1" d="M117.8,42.6c-0.8,0-1.4-0.2-2-0.5s-1.1-0.8-1.4-1.4c-0.4-0.6-0.5-1.4-0.5-2.2s0.2-1.6,0.5-2.2
			c0.4-0.6,0.8-1.1,1.4-1.4c0.6-0.3,1.3-0.5,2-0.5c0.8,0,1.4,0.2,2,0.5s1.1,0.8,1.4,1.4c0.4,0.6,0.5,1.4,0.5,2.2s-0.2,1.6-0.5,2.2
			c-0.4,0.6-0.8,1.1-1.4,1.4S118.5,42.6,117.8,42.6z M117.8,41.4c0.5,0,0.9-0.1,1.3-0.3s0.7-0.6,1-1s0.4-1,0.4-1.7s-0.1-1.2-0.4-1.7
			c-0.2-0.4-0.6-0.8-1-1s-0.8-0.3-1.3-0.3s-0.9,0.1-1.3,0.3s-0.7,0.6-1,1s-0.4,1-0.4,1.7s0.1,1.2,0.4,1.7s0.6,0.8,1,1
			C116.9,41.3,117.3,41.4,117.8,41.4z"/>
		<path class="st1" d="M124.9,42.4l-2.3-7.9h1.3l1.7,6.2l1.9-6.2h1.5l1.9,6.2l1.7-6.2h1.4l-2.3,7.9h-1.4l-1.9-6.5l-2,6.5H124.9z"/>
		<path class="st1" d="M138.4,42.6c-0.9,0-1.7-0.2-2.4-0.7c-0.6-0.5-1-1.1-1.1-1.9h1.4c0.1,0.4,0.3,0.8,0.7,1.1
			c0.3,0.3,0.8,0.5,1.4,0.5c0.6,0,1-0.1,1.2-0.4c0.3-0.2,0.4-0.5,0.4-0.9c0-0.5-0.2-0.8-0.5-1s-0.8-0.3-1.5-0.4
			c-0.4-0.1-0.9-0.2-1.3-0.4c-0.4-0.2-0.8-0.4-1.1-0.7s-0.4-0.7-0.4-1.2c0-0.7,0.3-1.3,0.8-1.7s1.2-0.7,2.1-0.7
			c0.8,0,1.5,0.2,2.1,0.6s0.9,1,0.9,1.8h-1.3c-0.1-0.4-0.2-0.7-0.5-0.9s-0.7-0.3-1.2-0.3s-0.9,0.1-1.1,0.3c-0.3,0.2-0.4,0.5-0.4,0.8
			s0.2,0.6,0.5,0.8s0.8,0.3,1.4,0.5c0.5,0.1,1,0.2,1.4,0.4c0.4,0.1,0.8,0.4,1.1,0.7s0.4,0.7,0.4,1.3c0,0.7-0.3,1.3-0.8,1.8
			C140.1,42.3,139.4,42.6,138.4,42.6z"/>
		<path class="st1" d="M150.8,42.4c-0.7,0-1.3-0.2-1.7-0.5c-0.4-0.4-0.6-1-0.6-1.9v-4.4h-1.4v-1.1h1.4l0.2-1.9h1.2v1.9h2.3v1.1h-2.3
			V40c0,0.5,0.1,0.8,0.3,1s0.6,0.3,1.1,0.3h0.8v1.1C152.1,42.4,150.8,42.4,150.8,42.4z"/>
		<path class="st1" d="M153.8,42.4V30.8h1.3v4.9c0.3-0.5,0.7-0.9,1.1-1.1c0.5-0.3,1-0.4,1.6-0.4c0.9,0,1.6,0.3,2.2,0.9
			c0.5,0.6,0.8,1.4,0.8,2.6v4.6h-1.3v-4.5c0-1.6-0.7-2.5-2-2.5c-0.7,0-1.3,0.2-1.7,0.7c-0.5,0.5-0.7,1.2-0.7,2.1v4.1L153.8,42.4
			L153.8,42.4z"/>
		<path class="st1" d="M165.6,42.6c-0.7,0-1.2-0.1-1.6-0.3c-0.4-0.2-0.8-0.5-1-0.9s-0.3-0.8-0.3-1.2c0-0.8,0.3-1.4,0.9-1.9
			c0.6-0.4,1.5-0.7,2.5-0.7h2.1v-0.1c0-0.7-0.2-1.2-0.5-1.6s-0.9-0.5-1.5-0.5c-0.5,0-1,0.1-1.3,0.4c-0.4,0.3-0.6,0.6-0.7,1.1h-1.4
			c0.1-0.6,0.2-1.1,0.6-1.5c0.3-0.4,0.8-0.7,1.3-0.9s1-0.3,1.6-0.3c1.1,0,1.9,0.3,2.5,0.9s0.8,1.4,0.8,2.4v4.9h-1.2l-0.1-1.4
			c-0.2,0.4-0.5,0.8-1,1.1C166.9,42.4,166.3,42.6,165.6,42.6z M165.8,41.4c0.5,0,0.9-0.1,1.3-0.4c0.4-0.3,0.6-0.6,0.8-1
			s0.3-0.9,0.3-1.3l0,0h-2c-0.8,0-1.3,0.1-1.7,0.4c-0.3,0.3-0.5,0.6-0.5,1s0.2,0.8,0.5,1C164.8,41.3,165.3,41.4,165.8,41.4z"/>
		<path class="st1" d="M174.5,42.4c-0.7,0-1.3-0.2-1.7-0.5c-0.4-0.4-0.6-1-0.6-1.9v-4.4h-1.4v-1.1h1.4l0.2-1.9h1.2v1.9h2.3v1.1h-2.3
			V40c0,0.5,0.1,0.8,0.3,1s0.6,0.3,1.1,0.3h0.8v1.1C175.8,42.4,174.5,42.4,174.5,42.4z"/>
		<path class="st1" d="M25.1,100.5v-7.9h1.2l0.1,1.1c0.3-0.4,0.6-0.8,1-1s0.9-0.3,1.4-0.3c0.6,0,1.2,0.1,1.6,0.4
			c0.5,0.3,0.8,0.7,1,1.2c0.3-0.5,0.7-0.9,1.1-1.1c0.5-0.3,1-0.4,1.6-0.4c1,0,1.7,0.3,2.3,0.9s0.8,1.5,0.8,2.6v4.6h-1.3V96
			c0-0.8-0.2-1.4-0.5-1.9c-0.3-0.4-0.8-0.6-1.4-0.6c-0.6,0-1.2,0.2-1.6,0.7c-0.4,0.5-0.6,1.2-0.6,2.1v4.1h-1.3V96
			c0-0.8-0.2-1.4-0.5-1.9c-0.3-0.4-0.8-0.6-1.4-0.6s-1.2,0.2-1.6,0.7s-0.6,1.2-0.6,2.1v4.1L25.1,100.5L25.1,100.5z"/>
		<path class="st1" d="M42.1,100.7c-0.7,0-1.2-0.1-1.7-0.3c-0.4-0.2-0.8-0.5-1-0.9s-0.3-0.8-0.3-1.2c0-0.8,0.3-1.4,0.9-1.9
			c0.6-0.4,1.5-0.7,2.5-0.7h2.1v-0.1c0-0.7-0.2-1.2-0.5-1.6s-0.8-0.5-1.5-0.5c-0.5,0-1,0.1-1.4,0.4s-0.6,0.6-0.7,1.1h-1.4
			c0-0.6,0.2-1.1,0.6-1.5c0.3-0.4,0.8-0.7,1.3-0.9c0.5-0.2,1-0.3,1.6-0.3c1.1,0,1.9,0.3,2.5,0.9s0.8,1.4,0.8,2.4v4.9h-1.2l-0.1-1.4
			c-0.2,0.4-0.6,0.8-1,1.1C43.4,100.6,42.8,100.7,42.1,100.7z M42.3,99.6c0.5,0,0.9-0.1,1.3-0.4s0.7-0.6,0.8-1
			c0.2-0.4,0.3-0.9,0.3-1.3l0,0h-2c-0.8,0-1.3,0.1-1.7,0.4c-0.3,0.3-0.5,0.6-0.5,1s0.1,0.8,0.5,1C41.3,99.5,41.7,99.6,42.3,99.6z"/>
		<path class="st1" d="M48.1,100.5V89h1.3v6.9l3.2-3.3h1.7l-3.5,3.6l4,4.3h-1.7l-3.6-4.1v4.1H48.1z"/>
		<path class="st1" d="M59.2,100.7c-0.8,0-1.4-0.2-2-0.5c-0.6-0.4-1.1-0.8-1.4-1.5c-0.3-0.6-0.5-1.3-0.5-2.2c0-0.8,0.2-1.6,0.5-2.2
			s0.8-1.1,1.4-1.5c0.6-0.3,1.3-0.5,2.1-0.5s1.4,0.2,2,0.5c0.6,0.4,1,0.8,1.3,1.4S63,95.4,63,96c0,0.1,0,0.2,0,0.4
			c0,0.1,0,0.2,0,0.4h-6.3c0,0.6,0.2,1.1,0.4,1.5s0.6,0.7,0.9,0.9c0.4,0.2,0.8,0.3,1.2,0.3c0.6,0,1-0.1,1.4-0.4s0.7-0.6,0.8-1h1.3
			c-0.2,0.7-0.6,1.3-1.2,1.8C60.9,100.5,60.1,100.7,59.2,100.7z M59.2,93.6c-0.6,0-1.2,0.2-1.7,0.6s-0.8,1-0.9,1.7h5
			c0-0.7-0.3-1.3-0.7-1.7C60.4,93.8,59.8,93.6,59.2,93.6z"/>
		<path class="st1" d="M67.7,100.7c-1,0-1.7-0.2-2.4-0.7c-0.6-0.5-1-1.1-1.1-1.9h1.4c0.1,0.4,0.3,0.8,0.7,1.1s0.8,0.5,1.4,0.5
			s1-0.1,1.2-0.4c0.3-0.2,0.4-0.5,0.4-0.9c0-0.5-0.2-0.8-0.5-1c-0.4-0.2-0.8-0.3-1.5-0.4c-0.4-0.1-0.8-0.2-1.3-0.4
			c-0.4-0.2-0.8-0.4-1.1-0.7c-0.3-0.3-0.4-0.7-0.4-1.2c0-0.7,0.3-1.3,0.8-1.7c0.5-0.4,1.2-0.7,2.1-0.7c0.8,0,1.5,0.2,2.1,0.6
			s0.8,1,0.9,1.8h-1.3c-0.1-0.4-0.2-0.7-0.5-1c-0.3-0.2-0.7-0.3-1.2-0.3s-0.8,0.1-1.1,0.3c-0.3,0.2-0.4,0.5-0.4,0.8s0.2,0.6,0.5,0.8
			c0.3,0.2,0.8,0.3,1.4,0.5c0.5,0.1,1,0.2,1.4,0.4c0.4,0.2,0.8,0.4,1.1,0.7c0.3,0.3,0.4,0.7,0.4,1.3c0,0.7-0.3,1.3-0.8,1.8
			C69.4,100.5,68.7,100.7,67.7,100.7z"/>
		<path class="st1" d="M77.8,90.8c-0.3,0-0.5-0.1-0.7-0.3c-0.2-0.2-0.3-0.4-0.3-0.7s0.1-0.5,0.3-0.6c0.2-0.2,0.4-0.3,0.7-0.3
			s0.5,0.1,0.7,0.3c0.2,0.2,0.3,0.4,0.3,0.6c0,0.3-0.1,0.5-0.3,0.7C78.2,90.8,78,90.8,77.8,90.8z M77.1,100.5v-7.9h1.3v7.9H77.1z"/>
		<path class="st1" d="M83.9,100.5c-0.7,0-1.3-0.2-1.7-0.5c-0.4-0.3-0.6-1-0.6-1.9v-4.4h-1.4v-1.1h1.4l0.2-1.9H83v1.9h2.3v1.1H83
			v4.4c0,0.5,0.1,0.8,0.3,1c0.2,0.2,0.6,0.3,1.1,0.3h0.8v1.1H83.9z"/>
		<path class="st1" d="M91.2,100.5V89h1.3v5c0.3-0.5,0.6-0.9,1.1-1.1c0.5-0.3,1-0.4,1.6-0.4c0.9,0,1.7,0.3,2.2,0.9
			c0.6,0.6,0.8,1.4,0.8,2.6v4.6h-1.3V96c0-1.6-0.7-2.5-2-2.5c-0.7,0-1.3,0.2-1.7,0.7c-0.5,0.5-0.7,1.2-0.7,2.1v4.1L91.2,100.5
			L91.2,100.5z"/>
		<path class="st1" d="M103,100.7c-0.7,0-1.2-0.1-1.7-0.3c-0.4-0.2-0.8-0.5-1-0.9s-0.3-0.8-0.3-1.2c0-0.8,0.3-1.4,0.9-1.9
			c0.6-0.4,1.5-0.7,2.5-0.7h2.1v-0.1c0-0.7-0.2-1.2-0.5-1.6s-0.9-0.5-1.5-0.5c-0.5,0-1,0.1-1.4,0.4s-0.6,0.6-0.7,1.1H100
			c0-0.6,0.2-1.1,0.6-1.5c0.3-0.4,0.8-0.7,1.3-0.9c0.5-0.2,1-0.3,1.6-0.3c1.1,0,1.9,0.3,2.5,0.9s0.8,1.4,0.8,2.4v4.9h-1.2l-0.1-1.4
			c-0.2,0.4-0.5,0.8-1,1.1C104.3,100.6,103.7,100.7,103,100.7z M103.2,99.6c0.5,0,1-0.1,1.3-0.4c0.4-0.3,0.7-0.6,0.8-1
			c0.2-0.4,0.3-0.9,0.3-1.3l0,0h-2c-0.8,0-1.3,0.1-1.7,0.4c-0.3,0.3-0.5,0.6-0.5,1s0.2,0.8,0.5,1C102.2,99.5,102.6,99.6,103.2,99.6z
			"/>
		<path class="st1" d="M109,100.5v-7.9h1.2l0.1,1.5c0.2-0.5,0.6-0.9,1.1-1.2s1.1-0.5,1.9-0.5v1.4h-0.4c-0.5,0-0.9,0.1-1.3,0.2
			c-0.4,0.2-0.7,0.4-0.9,0.8c-0.2,0.4-0.3,0.9-0.3,1.6v4L109,100.5L109,100.5z"/>
		<path class="st1" d="M118.1,100.7c-0.8,0-1.5-0.2-2.1-0.5c-0.6-0.4-1.1-0.9-1.4-1.5s-0.5-1.3-0.5-2.1s0.2-1.5,0.5-2.1
			s0.8-1.1,1.4-1.5s1.3-0.5,2.1-0.5c0.6,0,1.2,0.1,1.7,0.4s0.9,0.6,1.2,1.1v-5h1.3v11.5h-1.2l-0.1-1.3c-0.3,0.4-0.6,0.7-1.1,1
			C119.4,100.6,118.8,100.7,118.1,100.7z M118.2,99.6c0.5,0,1-0.1,1.4-0.4c0.4-0.2,0.7-0.6,1-1c0.2-0.5,0.3-1,0.3-1.6
			s-0.1-1.1-0.3-1.6c-0.2-0.5-0.6-0.8-1-1.1c-0.4-0.2-0.9-0.4-1.4-0.4s-1,0.1-1.4,0.4s-0.7,0.6-1,1.1c-0.2,0.4-0.3,1-0.3,1.6
			s0.1,1.1,0.3,1.6c0.2,0.4,0.6,0.8,1,1C117.3,99.4,117.7,99.6,118.2,99.6z"/>
		<path class="st1" d="M131.9,100.5c-0.7,0-1.3-0.2-1.7-0.5s-0.6-1-0.6-1.9v-4.4h-1.4v-1.1h1.4l0.2-1.9h1.2v1.9h2.3v1.1H131v4.4
			c0,0.5,0.1,0.8,0.3,1s0.6,0.3,1.1,0.3h0.8v1.1H131.9z"/>
		<path class="st1" d="M138.4,100.7c-0.8,0-1.4-0.2-2-0.5s-1.1-0.8-1.4-1.4c-0.4-0.6-0.5-1.4-0.5-2.2c0-0.8,0.2-1.6,0.5-2.2
			c0.4-0.6,0.8-1.1,1.4-1.4s1.3-0.5,2-0.5c0.8,0,1.4,0.2,2,0.5s1.1,0.8,1.4,1.4c0.4,0.6,0.5,1.4,0.5,2.2c0,0.8-0.2,1.6-0.5,2.2
			s-0.8,1.1-1.4,1.4C139.8,100.6,139.1,100.7,138.4,100.7z M138.4,99.6c0.5,0,0.9-0.1,1.3-0.3c0.4-0.2,0.7-0.6,1-1s0.4-1,0.4-1.7
			s-0.1-1.2-0.4-1.7s-0.6-0.8-0.9-1c-0.4-0.2-0.8-0.3-1.3-0.3s-0.9,0.1-1.3,0.3c-0.4,0.2-0.7,0.6-1,1s-0.4,1-0.4,1.7
			s0.1,1.2,0.4,1.7s0.6,0.8,0.9,1C137.5,99.5,137.9,99.6,138.4,99.6z"/>
		<path class="st1" d="M148.9,100.5v-6.8h-1.2v-1.1h1.2v-1.4c0-0.8,0.2-1.3,0.6-1.7c0.4-0.3,0.9-0.5,1.7-0.5h0.8v1.2h-0.6
			c-0.4,0-0.7,0.1-0.9,0.2s-0.3,0.4-0.3,0.8v1.3h1.9v1.1h-1.9v6.8L148.9,100.5L148.9,100.5z"/>
		<path class="st1" d="M156.1,100.7c-0.7,0-1.2-0.1-1.7-0.3c-0.4-0.2-0.8-0.5-1-0.9s-0.3-0.8-0.3-1.2c0-0.8,0.3-1.4,0.9-1.9
			c0.6-0.4,1.5-0.7,2.5-0.7h2.1v-0.1c0-0.7-0.2-1.2-0.5-1.6c-0.4-0.4-0.9-0.5-1.5-0.5c-0.5,0-1,0.1-1.4,0.4s-0.6,0.6-0.7,1.1h-1.4
			c0.1-0.6,0.2-1.1,0.6-1.5c0.3-0.4,0.8-0.7,1.3-0.9c0.5-0.2,1-0.3,1.6-0.3c1.1,0,1.9,0.3,2.5,0.9s0.8,1.4,0.8,2.4v4.9h-1.2
			l-0.1-1.4c-0.2,0.4-0.6,0.8-1,1.1C157.4,100.6,156.8,100.7,156.1,100.7z M156.3,99.6c0.5,0,0.9-0.1,1.3-0.4c0.4-0.3,0.6-0.6,0.8-1
			s0.3-0.9,0.3-1.3l0,0h-2c-0.8,0-1.3,0.1-1.7,0.4c-0.3,0.3-0.5,0.6-0.5,1s0.2,0.8,0.5,1C155.3,99.5,155.8,99.6,156.3,99.6z"/>
		<path class="st1" d="M162.1,100.5V89h1.3v11.5H162.1z"/>
		<path class="st1" d="M165.7,100.5V89h1.3v11.5H165.7z"/>
		<path class="st1" d="M27.8,122.7c-0.7,0-1.2-0.1-1.7-0.3c-0.4-0.2-0.8-0.5-1-0.9s-0.3-0.8-0.3-1.2c0-0.8,0.3-1.4,0.9-1.9
			c0.6-0.4,1.5-0.7,2.5-0.7h2.2v-0.1c0-0.7-0.2-1.2-0.5-1.6s-0.9-0.5-1.5-0.5c-0.5,0-1,0.1-1.3,0.4c-0.4,0.3-0.6,0.6-0.7,1.1H25
			c0-0.6,0.2-1.1,0.6-1.5c0.3-0.4,0.8-0.7,1.3-0.9c0.5-0.2,1-0.3,1.6-0.3c1.1,0,1.9,0.3,2.5,0.9s0.8,1.4,0.8,2.4v4.9h-1.2l-0.1-1.4
			c-0.2,0.4-0.5,0.8-1,1.1C29.1,122.6,28.5,122.7,27.8,122.7z M28,121.6c0.5,0,1-0.1,1.3-0.4c0.3-0.3,0.7-0.6,0.8-1
			c0.2-0.4,0.3-0.9,0.3-1.3l0,0h-2c-0.8,0-1.4,0.1-1.7,0.4c-0.3,0.3-0.5,0.6-0.5,1s0.1,0.8,0.5,1C27,121.5,27.4,121.6,28,121.6z"/>
		<path class="st1" d="M36.8,122.7c-0.9,0-1.7-0.2-2.4-0.7c-0.6-0.5-1-1.1-1.1-1.9h1.4c0.1,0.4,0.3,0.8,0.7,1.1
			c0.3,0.3,0.8,0.5,1.4,0.5c0.6,0,1-0.1,1.2-0.4c0.3-0.2,0.4-0.5,0.4-0.9c0-0.5-0.2-0.8-0.5-1s-0.8-0.3-1.5-0.4
			c-0.4-0.1-0.9-0.2-1.3-0.4c-0.4-0.2-0.8-0.4-1.1-0.7c-0.3-0.3-0.4-0.7-0.4-1.2c0-0.7,0.3-1.3,0.8-1.7s1.2-0.7,2.1-0.7
			c0.8,0,1.5,0.2,2.1,0.6c0.5,0.4,0.9,1,0.9,1.8h-1.3c0-0.4-0.2-0.7-0.5-1c-0.3-0.2-0.7-0.3-1.2-0.3s-0.8,0.1-1.1,0.3
			c-0.3,0.2-0.4,0.5-0.4,0.8s0.2,0.6,0.5,0.8c0.3,0.2,0.8,0.3,1.4,0.5c0.5,0.1,1,0.2,1.4,0.4c0.4,0.2,0.8,0.4,1.1,0.7
			c0.3,0.3,0.4,0.7,0.4,1.3c0,0.7-0.3,1.3-0.8,1.8C38.5,122.5,37.8,122.7,36.8,122.7z"/>
		<path class="st1" d="M41.8,122.5V111h1.3v11.5H41.8z"/>
		<path class="st1" d="M48.9,122.7c-0.8,0-1.4-0.2-2-0.5c-0.6-0.4-1.1-0.8-1.4-1.5c-0.3-0.6-0.5-1.3-0.5-2.2c0-0.8,0.2-1.6,0.5-2.2
			s0.8-1.1,1.4-1.5c0.6-0.3,1.3-0.5,2.1-0.5s1.4,0.2,2,0.5c0.6,0.4,1,0.8,1.3,1.4s0.4,1.2,0.4,1.8c0,0.1,0,0.2,0,0.4
			c0,0.1,0,0.2,0,0.4h-6.3c0,0.6,0.2,1.1,0.4,1.5s0.6,0.7,0.9,0.9c0.4,0.2,0.8,0.3,1.2,0.3c0.6,0,1-0.1,1.4-0.4s0.7-0.6,0.8-1h1.3
			c-0.2,0.7-0.6,1.3-1.2,1.8C50.6,122.5,49.8,122.7,48.9,122.7z M48.9,115.6c-0.6,0-1.2,0.2-1.7,0.6s-0.8,1-0.9,1.7h5
			c0-0.7-0.3-1.3-0.7-1.7C50.1,115.8,49.6,115.6,48.9,115.6z"/>
		<path class="st1" d="M58,122.7c-0.8,0-1.4-0.2-2-0.5c-0.6-0.4-1.1-0.8-1.4-1.5c-0.3-0.6-0.5-1.3-0.5-2.2c0-0.8,0.2-1.6,0.5-2.2
			s0.8-1.1,1.4-1.5c0.6-0.3,1.3-0.5,2.1-0.5s1.4,0.2,2,0.5c0.6,0.4,1,0.8,1.3,1.4s0.5,1.2,0.5,1.8c0,0.1,0,0.2,0,0.4s0,0.2,0,0.4
			h-6.5c0,0.6,0.2,1.1,0.4,1.5s0.6,0.7,0.9,0.9c0.4,0.2,0.8,0.3,1.2,0.3c0.6,0,1-0.1,1.4-0.4s0.7-0.6,0.8-1h1.3
			c-0.2,0.7-0.6,1.3-1.2,1.8C59.7,122.5,58.9,122.7,58,122.7z M58,115.6c-0.6,0-1.2,0.2-1.7,0.6s-0.8,1-0.9,1.7h5
			c0-0.7-0.3-1.3-0.7-1.7C59.2,115.8,58.7,115.6,58,115.6z"/>
		<path class="st1" d="M63.5,126.1v-11.5h1.2l0.1,1.3c0.3-0.4,0.6-0.7,1.1-1s1.1-0.5,1.8-0.5c0.8,0,1.5,0.2,2.1,0.5s1,0.9,1.4,1.5
			c0.3,0.6,0.5,1.3,0.5,2.1s-0.2,1.5-0.5,2.1s-0.8,1.1-1.4,1.5s-1.3,0.5-2.1,0.5c-0.7,0-1.2-0.1-1.7-0.4s-0.9-0.6-1.2-1.1v4.8h-1.3
			V126.1z M67.6,121.6c0.5,0,1-0.1,1.4-0.4c0.4-0.2,0.7-0.6,1-1c0.2-0.5,0.3-1,0.3-1.6s-0.1-1.1-0.3-1.6c-0.2-0.5-0.5-0.8-1-1.1
			c-0.4-0.2-0.9-0.4-1.4-0.4s-1,0.1-1.4,0.4c-0.4,0.2-0.7,0.6-1,1.1c-0.2,0.4-0.3,1-0.3,1.6s0.1,1.1,0.3,1.6c0.2,0.4,0.6,0.8,1,1
			C66.6,121.4,67.1,121.6,67.6,121.6z"/>
		<path class="st1" d="M80.5,122.7c-0.7,0-1.2-0.1-1.6-0.3c-0.4-0.2-0.8-0.5-1-0.9s-0.3-0.8-0.3-1.2c0-0.8,0.3-1.4,0.9-1.9
			c0.6-0.4,1.5-0.7,2.5-0.7h2.1v-0.1c0-0.7-0.2-1.2-0.5-1.6s-0.8-0.5-1.5-0.5c-0.5,0-1,0.1-1.3,0.4c-0.4,0.3-0.6,0.6-0.7,1.1h-1.4
			c0.1-0.6,0.2-1.1,0.6-1.5c0.3-0.4,0.8-0.7,1.3-0.9c0.5-0.2,1-0.3,1.6-0.3c1.1,0,1.9,0.3,2.5,0.9s0.8,1.4,0.8,2.4v4.9h-1.2
			l-0.1-1.4c-0.2,0.4-0.5,0.8-1,1.1C81.8,122.6,81.2,122.7,80.5,122.7z M80.7,121.6c0.5,0,1-0.1,1.3-0.4c0.4-0.3,0.7-0.6,0.8-1
			c0.2-0.4,0.3-0.9,0.3-1.3l0,0h-2c-0.8,0-1.4,0.1-1.7,0.4c-0.3,0.3-0.5,0.6-0.5,1s0.2,0.8,0.5,1C79.7,121.5,80.1,121.6,80.7,121.6z
			"/>
		<path class="st1" d="M86.5,122.5v-7.9h1.2l0.1,1.4c0.3-0.5,0.6-0.9,1.1-1.2c0.5-0.3,1-0.4,1.6-0.4c0.9,0,1.7,0.3,2.2,0.9
			c0.6,0.6,0.8,1.4,0.8,2.6v4.6h-1.3V118c0-1.6-0.7-2.5-2.1-2.5c-0.7,0-1.2,0.2-1.7,0.7c-0.4,0.5-0.7,1.2-0.7,2.1v4.1L86.5,122.5
			L86.5,122.5z"/>
		<path class="st1" d="M99.2,122.7c-0.8,0-1.5-0.2-2.1-0.5c-0.6-0.4-1.1-0.9-1.4-1.5s-0.5-1.3-0.5-2.1s0.2-1.5,0.5-2.1
			s0.8-1.1,1.4-1.5s1.3-0.5,2.1-0.5c0.7,0,1.2,0.1,1.7,0.4s0.9,0.6,1.2,1.1v-5h1.3v11.5h-1.2l-0.1-1.3c-0.3,0.4-0.6,0.7-1.1,1
			C100.6,122.6,100,122.7,99.2,122.7z M99.4,121.6c0.5,0,1-0.1,1.4-0.4c0.4-0.2,0.7-0.6,1-1c0.2-0.5,0.3-1,0.3-1.6s-0.1-1.1-0.3-1.6
			c-0.2-0.5-0.6-0.8-1-1.1c-0.4-0.2-0.9-0.4-1.4-0.4s-1,0.1-1.4,0.4c-0.4,0.2-0.7,0.6-1,1.1c-0.2,0.4-0.3,1-0.3,1.6s0.1,1.1,0.3,1.6
			c0.2,0.4,0.5,0.8,1,1C98.4,121.4,98.9,121.6,99.4,121.6z"/>
		<path class="st1" d="M113,122.7c-0.9,0-1.7-0.2-2.4-0.7c-0.6-0.5-1-1.1-1.1-1.9h1.4c0.1,0.4,0.3,0.8,0.7,1.1
			c0.3,0.3,0.8,0.5,1.4,0.5s1-0.1,1.2-0.4c0.3-0.2,0.4-0.5,0.4-0.9c0-0.5-0.2-0.8-0.5-1c-0.4-0.2-0.8-0.3-1.5-0.4
			c-0.4-0.1-0.9-0.2-1.3-0.4c-0.4-0.2-0.8-0.4-1.1-0.7c-0.3-0.3-0.4-0.7-0.4-1.2c0-0.7,0.3-1.3,0.8-1.7s1.2-0.7,2.1-0.7
			c0.8,0,1.5,0.2,2.1,0.6c0.5,0.4,0.9,1,0.9,1.8h-1.3c-0.1-0.4-0.2-0.7-0.5-1c-0.3-0.2-0.7-0.3-1.2-0.3s-0.9,0.1-1.1,0.3
			s-0.4,0.5-0.4,0.8s0.2,0.6,0.5,0.8c0.3,0.2,0.8,0.3,1.4,0.5c0.5,0.1,1,0.2,1.4,0.4c0.4,0.2,0.8,0.4,1.1,0.7
			c0.3,0.3,0.4,0.7,0.4,1.3c0,0.7-0.3,1.3-0.8,1.8C114.6,122.5,113.9,122.7,113,122.7z"/>
		<path class="st1" d="M120.7,122.5c-0.7,0-1.3-0.2-1.7-0.5c-0.4-0.3-0.6-1-0.6-1.9v-4.4H117v-1.1h1.4l0.2-1.9h1.2v1.9h2.3v1.1h-2.3
			v4.4c0,0.5,0.1,0.8,0.3,1c0.2,0.2,0.6,0.3,1.1,0.3h0.8v1.1H120.7z"/>
		<path class="st1" d="M126.4,122.7c-0.7,0-1.2-0.1-1.6-0.3c-0.4-0.2-0.8-0.5-1-0.9s-0.3-0.8-0.3-1.2c0-0.8,0.3-1.4,0.9-1.9
			c0.6-0.4,1.5-0.7,2.5-0.7h2.1v-0.1c0-0.7-0.2-1.2-0.5-1.6s-0.9-0.5-1.5-0.5c-0.5,0-1,0.1-1.3,0.4c-0.4,0.3-0.6,0.6-0.7,1.1h-1.4
			c0-0.6,0.2-1.1,0.6-1.5c0.3-0.4,0.8-0.7,1.3-0.9c0.5-0.2,1-0.3,1.6-0.3c1.1,0,1.9,0.3,2.5,0.9s0.8,1.4,0.8,2.4v4.9h-1.2l-0.1-1.4
			c-0.2,0.4-0.6,0.8-1,1.1C127.7,122.6,127.1,122.7,126.4,122.7z M126.6,121.6c0.5,0,0.9-0.1,1.3-0.4c0.4-0.3,0.6-0.6,0.8-1
			s0.3-0.9,0.3-1.3l0,0h-2c-0.8,0-1.4,0.1-1.7,0.4s-0.5,0.6-0.5,1s0.1,0.8,0.5,1C125.6,121.5,126.1,121.6,126.6,121.6z"/>
		<path class="st1" d="M133,126.1l2-4.3h-0.5l-3.1-7.2h1.5l2.6,6.2l2.8-6.2h1.4l-5.2,11.5H133z"/>
		<path class="st1" d="M148,122.7c-0.7,0-1.2-0.1-1.7-0.3c-0.4-0.2-0.8-0.5-1-0.9s-0.3-0.8-0.3-1.2c0-0.8,0.3-1.4,0.9-1.9
			c0.6-0.4,1.5-0.7,2.5-0.7h2.1v-0.1c0-0.7-0.2-1.2-0.5-1.6s-0.9-0.5-1.5-0.5c-0.5,0-1,0.1-1.3,0.4c-0.4,0.3-0.6,0.6-0.7,1.1h-1.4
			c0.1-0.6,0.2-1.1,0.6-1.5c0.3-0.4,0.8-0.7,1.3-0.9c0.5-0.2,1-0.3,1.6-0.3c1.1,0,1.9,0.3,2.5,0.9s0.8,1.4,0.8,2.4v4.9h-1.2
			l-0.1-1.4c-0.2,0.4-0.5,0.8-1,1.1C149.3,122.6,148.7,122.7,148,122.7z M148.2,121.6c0.5,0,1-0.1,1.3-0.4s0.6-0.6,0.8-1
			s0.3-0.9,0.3-1.3l0,0h-2c-0.8,0-1.3,0.1-1.7,0.4c-0.3,0.3-0.5,0.6-0.5,1s0.1,0.8,0.5,1C147.2,121.5,147.6,121.6,148.2,121.6z"/>
		<path class="st1" d="M157,122.7c-0.9,0-1.7-0.2-2.4-0.7c-0.6-0.5-1-1.1-1.1-1.9h1.4c0.1,0.4,0.3,0.8,0.7,1.1
			c0.4,0.3,0.8,0.5,1.5,0.5c0.6,0,1-0.1,1.2-0.4c0.3-0.2,0.4-0.5,0.4-0.9c0-0.5-0.2-0.8-0.5-1s-0.8-0.3-1.5-0.4
			c-0.4-0.1-0.9-0.2-1.3-0.4c-0.4-0.2-0.8-0.4-1.1-0.7c-0.3-0.3-0.4-0.7-0.4-1.2c0-0.7,0.3-1.3,0.8-1.7s1.2-0.7,2.1-0.7
			c0.8,0,1.5,0.2,2.1,0.6c0.5,0.4,0.9,1,0.9,1.8h-1.3c-0.1-0.4-0.2-0.7-0.5-1c-0.3-0.2-0.7-0.3-1.2-0.3s-0.9,0.1-1.1,0.3
			c-0.3,0.2-0.4,0.5-0.4,0.8s0.2,0.6,0.5,0.8c0.3,0.2,0.8,0.3,1.4,0.5c0.5,0.1,1,0.2,1.4,0.4c0.4,0.2,0.8,0.4,1.1,0.7
			c0.3,0.3,0.4,0.7,0.4,1.3c0,0.7-0.3,1.3-0.8,1.8C158.7,122.5,158,122.7,157,122.7z"/>
		<path class="st1" d="M162,122.5V111h1.3v11.5H162z"/>
		<path class="st1" d="M169.1,122.7c-0.8,0-1.4-0.2-2-0.5c-0.6-0.4-1.1-0.8-1.4-1.5c-0.3-0.6-0.5-1.3-0.5-2.2c0-0.8,0.2-1.6,0.5-2.2
			s0.8-1.1,1.4-1.5c0.6-0.3,1.3-0.5,2.1-0.5s1.4,0.2,2,0.5c0.6,0.4,1,0.8,1.3,1.4s0.5,1.2,0.5,1.8c0,0.1,0,0.2,0,0.4
			c0,0.1,0,0.2,0,0.4h-6.3c0,0.6,0.2,1.1,0.4,1.5s0.6,0.7,0.9,0.9c0.4,0.2,0.8,0.3,1.2,0.3c0.6,0,1-0.1,1.4-0.4s0.6-0.6,0.8-1h1.3
			c-0.2,0.7-0.6,1.3-1.2,1.8C170.8,122.5,170,122.7,169.1,122.7z M169.1,115.6c-0.6,0-1.2,0.2-1.7,0.6s-0.8,1-0.9,1.7h5
			c0-0.7-0.3-1.3-0.7-1.7C170.3,115.8,169.8,115.6,169.1,115.6z"/>
		<path class="st1" d="M178.2,122.7c-0.8,0-1.4-0.2-2-0.5c-0.6-0.4-1.1-0.8-1.4-1.5c-0.3-0.6-0.5-1.3-0.5-2.2c0-0.8,0.2-1.6,0.5-2.2
			s0.8-1.1,1.4-1.5c0.6-0.3,1.3-0.5,2.1-0.5s1.4,0.2,2,0.5c0.6,0.4,1,0.8,1.3,1.4s0.4,1.2,0.4,1.8c0,0.1,0,0.2,0,0.4
			c0,0.1,0,0.2,0,0.4h-6.3c0,0.6,0.2,1.1,0.4,1.5s0.6,0.7,0.9,0.9c0.4,0.2,0.8,0.3,1.2,0.3c0.6,0,1-0.1,1.4-0.4
			c0.4-0.2,0.7-0.6,0.8-1h1.3c-0.2,0.7-0.6,1.3-1.2,1.8C179.9,122.5,179.1,122.7,178.2,122.7z M178.2,115.6c-0.6,0-1.2,0.2-1.7,0.6
			s-0.8,1-0.9,1.7h5c0-0.7-0.3-1.3-0.7-1.7C179.4,115.8,178.9,115.6,178.2,115.6z"/>
		<path class="st1" d="M183.7,126.1v-11.5h1.2l0.1,1.3c0.3-0.4,0.6-0.7,1.1-1s1.1-0.5,1.8-0.5c0.8,0,1.5,0.2,2.1,0.5s1,0.9,1.4,1.5
			s0.5,1.3,0.5,2.1s-0.2,1.5-0.5,2.1s-0.8,1.1-1.4,1.5c-0.6,0.4-1.3,0.5-2.1,0.5c-0.7,0-1.2-0.1-1.7-0.4s-0.9-0.6-1.2-1.1v4.8h-1.3
			V126.1z M187.8,121.6c0.5,0,1-0.1,1.4-0.4s0.7-0.6,1-1c0.2-0.5,0.4-1,0.4-1.6s-0.1-1.1-0.4-1.6c-0.2-0.5-0.5-0.8-1-1.1
			s-0.9-0.4-1.4-0.4s-1,0.1-1.4,0.4c-0.4,0.2-0.7,0.6-1,1.1c-0.2,0.4-0.4,1-0.4,1.6s0.1,1.1,0.4,1.6c0.2,0.4,0.6,0.8,1,1
			C186.8,121.4,187.3,121.6,187.8,121.6z"/>
		<path class="st1" d="M28.7,144.7c-0.8,0-1.5-0.2-2.1-0.5c-0.6-0.4-1-0.9-1.4-1.5c-0.3-0.6-0.5-1.3-0.5-2.1s0.2-1.5,0.5-2.1
			s0.8-1.1,1.4-1.5s1.3-0.5,2.1-0.5c0.7,0,1.2,0.1,1.7,0.4s0.9,0.6,1.2,1.1v-5h1.3v11.5h-1.2l-0.1-1.3c-0.3,0.4-0.6,0.7-1.1,1
			S29.5,144.7,28.7,144.7z M28.9,143.6c0.5,0,1-0.1,1.4-0.4s0.7-0.6,1-1c0.2-0.5,0.3-1,0.3-1.6s-0.1-1.1-0.3-1.6
			c-0.2-0.4-0.5-0.8-1-1s-0.9-0.4-1.4-0.4c-0.5,0-1,0.1-1.4,0.4s-0.7,0.6-1,1c-0.2,0.5-0.3,1-0.3,1.6s0.1,1.1,0.3,1.6
			c0.2,0.4,0.5,0.8,1,1C27.9,143.4,28.3,143.6,28.9,143.6z"/>
		<path class="st1" d="M38.1,144.7c-0.9,0-1.7-0.3-2.2-0.9s-0.8-1.4-0.8-2.6v-4.6h1.3v4.5c0,1.6,0.7,2.5,2,2.5
			c0.7,0,1.3-0.2,1.7-0.7c0.5-0.5,0.7-1.2,0.7-2.1v-4.1h1.3v7.9h-1.2l-0.1-1.4c-0.2,0.5-0.6,0.9-1.1,1.2
			C39.2,144.6,38.7,144.7,38.1,144.7z"/>
		<path class="st1" d="M44.3,144.5v-7.9h1.2l0.1,1.5c0.2-0.5,0.6-0.9,1.1-1.2s1.1-0.5,1.9-0.5v1.4h-0.4c-0.5,0-0.9,0.1-1.3,0.2
			c-0.4,0.2-0.7,0.4-0.9,0.8c-0.2,0.4-0.4,0.9-0.4,1.6v4L44.3,144.5L44.3,144.5z"/>
		<path class="st1" d="M51,134.8c-0.3,0-0.5-0.1-0.7-0.3s-0.3-0.4-0.3-0.7s0.1-0.5,0.3-0.6c0.2-0.2,0.4-0.3,0.7-0.3s0.5,0.1,0.7,0.3
			s0.3,0.4,0.3,0.6c0,0.3-0.1,0.5-0.3,0.7C51.4,134.8,51.2,134.8,51,134.8z M50.3,144.5v-7.9h1.3v7.9H50.3z"/>
		<path class="st1" d="M54,144.5v-7.9h1.2l0.1,1.4c0.3-0.5,0.6-0.9,1.1-1.2s1-0.4,1.6-0.4c0.9,0,1.7,0.3,2.2,0.9
			c0.6,0.6,0.8,1.5,0.8,2.6v4.6h-1.3V140c0-1.6-0.7-2.5-2.1-2.5c-0.7,0-1.2,0.2-1.7,0.7s-0.7,1.2-0.7,2.1v4.1L54,144.5L54,144.5z"/>
		<path class="st1" d="M66.2,142c-0.4,0-0.9-0.1-1.2-0.2l-0.8,0.8c0.1,0.1,0.3,0.2,0.4,0.2c0.2,0.1,0.4,0.1,0.8,0.2
			c0.3,0.1,0.8,0.1,1.4,0.2c1.1,0.1,1.8,0.3,2.3,0.7s0.7,1,0.7,1.6c0,0.5-0.1,0.9-0.4,1.3c-0.2,0.4-0.6,0.8-1.2,1
			c-0.5,0.3-1.2,0.4-2,0.4c-0.7,0-1.3-0.1-1.9-0.3c-0.5-0.2-1-0.5-1.3-0.9s-0.5-0.9-0.5-1.4c0-0.3,0.1-0.6,0.2-1
			c0.2-0.4,0.5-0.7,0.9-1c-0.2-0.1-0.4-0.2-0.6-0.3s-0.3-0.2-0.5-0.4v-0.4l1.4-1.3c-0.6-0.5-0.9-1.2-0.9-2.1c0-0.5,0.1-1,0.4-1.4
			c0.2-0.4,0.6-0.8,1.1-1s1-0.4,1.7-0.4c0.5,0,0.9,0.1,1.2,0.2h3v1l-1.5,0.1c0.3,0.4,0.5,1,0.5,1.5s-0.1,1-0.4,1.4
			c-0.2,0.4-0.6,0.8-1.1,1C67.5,141.9,66.9,142,66.2,142z M63.9,145.6c0,0.5,0.2,0.9,0.7,1.2s1,0.4,1.7,0.4s1.2-0.1,1.6-0.4
			c0.4-0.3,0.6-0.7,0.6-1.1c0-0.3-0.1-0.6-0.4-0.9c-0.3-0.2-0.8-0.4-1.5-0.4c-0.6,0-1.1-0.1-1.5-0.2c-0.4,0.2-0.7,0.5-0.9,0.8
			C64,145.1,63.9,145.4,63.9,145.6z M66.2,140.9c0.6,0,1-0.1,1.4-0.4c0.3-0.3,0.5-0.7,0.5-1.3c0-0.5-0.2-1-0.5-1.3s-0.8-0.4-1.4-0.4
			s-1,0.1-1.4,0.4c-0.3,0.3-0.5,0.7-0.5,1.3c0,0.5,0.2,1,0.5,1.3S65.7,140.9,66.2,140.9z"/>
		<path class="st1" d="M79.3,144.5c-0.7,0-1.3-0.2-1.7-0.5c-0.4-0.4-0.6-1-0.6-1.9v-4.4h-1.4v-1.1H77l0.2-1.9h1.2v1.9h2.3v1.1h-2.3
			v4.4c0,0.5,0.1,0.8,0.3,1c0.2,0.2,0.6,0.3,1.1,0.3h0.8v1.1L79.3,144.5L79.3,144.5z"/>
		<path class="st1" d="M82.4,144.5V133h1.3v4.9c0.3-0.5,0.7-0.9,1.1-1.1c0.5-0.3,1-0.4,1.6-0.4c0.9,0,1.6,0.3,2.2,0.9
			c0.5,0.6,0.8,1.5,0.8,2.6v4.6h-1.3V140c0-1.6-0.7-2.5-2-2.5c-0.7,0-1.3,0.2-1.7,0.7c-0.5,0.5-0.7,1.2-0.7,2.1v4.1L82.4,144.5
			L82.4,144.5z"/>
		<path class="st1" d="M95.1,144.7c-0.8,0-1.4-0.2-2-0.5c-0.6-0.4-1-0.8-1.4-1.4c-0.3-0.6-0.5-1.4-0.5-2.2s0.2-1.6,0.5-2.2
			c0.3-0.6,0.8-1.1,1.4-1.5s1.3-0.5,2.1-0.5c0.8,0,1.4,0.2,2,0.5s1,0.8,1.3,1.4c0.3,0.6,0.4,1.2,0.4,1.8c0,0.1,0,0.2,0,0.4
			c0,0.1,0,0.2,0,0.4h-6.3c0,0.6,0.2,1.1,0.4,1.5s0.6,0.7,0.9,0.9c0.4,0.2,0.8,0.3,1.2,0.3c0.5,0,1-0.1,1.4-0.4
			c0.4-0.3,0.7-0.6,0.8-1h1.3c-0.2,0.7-0.6,1.4-1.2,1.8C96.8,144.5,96,144.7,95.1,144.7z M95.1,137.5c-0.6,0-1.2,0.2-1.7,0.6
			c-0.5,0.4-0.8,1-0.9,1.7h5c0-0.7-0.3-1.3-0.7-1.7C96.3,137.8,95.8,137.5,95.1,137.5z"/>
		<path class="st1" d="M104.9,144.5v-7.9h1.2l0.1,1.4c0.3-0.5,0.6-0.9,1.1-1.2s1-0.4,1.6-0.4c0.9,0,1.7,0.3,2.2,0.9
			c0.6,0.6,0.8,1.5,0.8,2.6v4.6h-1.3V140c0-1.6-0.7-2.5-2.1-2.5c-0.7,0-1.2,0.2-1.7,0.7c-0.4,0.5-0.7,1.2-0.7,2.1v4.1L104.9,144.5
			L104.9,144.5z"/>
		<path class="st1" d="M114.8,134.8c-0.3,0-0.5-0.1-0.7-0.3s-0.3-0.4-0.3-0.7s0.1-0.5,0.3-0.6c0.2-0.2,0.4-0.3,0.7-0.3
			c0.3,0,0.5,0.1,0.7,0.3s0.3,0.4,0.3,0.6c0,0.3-0.1,0.5-0.3,0.7C115.3,134.8,115.1,134.8,114.8,134.8z M114.2,144.5v-7.9h1.3v7.9
			H114.2z"/>
		<path class="st1" d="M121,142c-0.4,0-0.9-0.1-1.2-0.2l-0.8,0.8c0.1,0.1,0.3,0.2,0.4,0.2c0.2,0.1,0.4,0.1,0.8,0.2
			c0.3,0.1,0.8,0.1,1.4,0.2c1.1,0.1,1.8,0.3,2.3,0.7s0.7,1,0.7,1.6c0,0.5-0.1,0.9-0.4,1.3c-0.2,0.4-0.6,0.8-1.2,1
			c-0.5,0.3-1.2,0.4-2,0.4c-0.7,0-1.4-0.1-1.9-0.3s-1-0.5-1.3-0.9s-0.5-0.9-0.5-1.4c0-0.3,0.1-0.6,0.2-1c0.2-0.4,0.5-0.7,0.9-1
			c-0.2-0.1-0.4-0.2-0.6-0.3s-0.3-0.2-0.5-0.4v-0.4l1.4-1.3c-0.6-0.5-0.9-1.2-0.9-2.1c0-0.5,0.1-1,0.4-1.4c0.2-0.4,0.6-0.8,1.1-1
			s1-0.4,1.7-0.4c0.5,0,0.9,0.1,1.2,0.2h2.9v1l-1.5,0.1c0.3,0.4,0.5,1,0.5,1.5s-0.1,1-0.4,1.4c-0.2,0.4-0.6,0.8-1.1,1
			C122.2,141.9,121.7,142,121,142z M118.6,145.6c0,0.5,0.2,0.9,0.7,1.2s1,0.4,1.7,0.4s1.2-0.1,1.6-0.4c0.4-0.3,0.6-0.7,0.6-1.1
			c0-0.3-0.1-0.6-0.4-0.9s-0.8-0.4-1.5-0.4c-0.6,0-1.1-0.1-1.5-0.2c-0.4,0.2-0.7,0.5-0.9,0.8C118.7,145.1,118.6,145.4,118.6,145.6z
			 M121,140.9c0.6,0,1-0.1,1.3-0.4c0.3-0.3,0.5-0.7,0.5-1.3c0-0.5-0.2-1-0.5-1.3s-0.8-0.4-1.3-0.4c-0.6,0-1,0.1-1.4,0.4
			c-0.3,0.3-0.5,0.7-0.5,1.3c0,0.5,0.2,1,0.5,1.3S120.4,140.9,121,140.9z"/>
		<path class="st1" d="M126.7,144.5V133h1.3v4.9c0.3-0.5,0.6-0.9,1.1-1.1c0.5-0.3,1-0.4,1.6-0.4c0.9,0,1.6,0.3,2.2,0.9
			c0.6,0.6,0.8,1.5,0.8,2.6v4.6h-1.3V140c0-1.6-0.7-2.5-2-2.5c-0.7,0-1.3,0.2-1.7,0.7c-0.5,0.5-0.7,1.2-0.7,2.1v4.1L126.7,144.5
			L126.7,144.5z"/>
		<path class="st1" d="M139,144.5c-0.7,0-1.3-0.2-1.7-0.5c-0.4-0.4-0.6-1-0.6-1.9v-4.4h-1.4v-1.1h1.4l0.2-1.9h1.2v1.9h2.3v1.1h-2.3
			v4.4c0,0.5,0.1,0.8,0.3,1s0.6,0.3,1.1,0.3h0.8v1.1L139,144.5L139,144.5z"/>
		<path class="st1" d="M142.5,144.6c-0.3,0-0.5-0.1-0.7-0.3s-0.3-0.4-0.3-0.6c0-0.3,0.1-0.5,0.3-0.6c0.2-0.2,0.4-0.3,0.7-0.3
			s0.5,0.1,0.6,0.3c0.2,0.2,0.3,0.4,0.3,0.6c0,0.3-0.1,0.5-0.3,0.6C143,144.5,142.7,144.6,142.5,144.6z"/>
		<path class="st2" d="M30.4,54.5c0.3-0.2,0.7-0.2,1.2-0.2c0.3,0,0.6,0,0.8,0c0.8,0.1,1.4,0.2,1.7,0.3s0.6,0.4,0.8,0.8
			c0.3,0.4,0.4,0.9,0.4,1.3c0,0.5-0.2,0.9-0.6,1.3c-0.3,0.3-0.7,0.5-1,0.5c-0.4,0-0.7-0.2-1-0.7c-0.2-0.4-0.5-0.5-0.8-0.5
			c-0.2,0-0.5,0.2-0.7,0.5s-0.4,0.7-0.4,1.1v0.2c0,1.5,1.2,4.4,3.5,8.5c0.4,0.7,0.8,1.9,1.1,3.7c0,0.1,0,0.3,0,0.6
			c0,1.5-0.3,2.7-1,3.6c-0.3,0.4-0.7,0.7-1.4,1c-0.6,0.3-1.2,0.4-1.7,0.4c-0.1,0-0.1,0-0.2,0c-0.1,0-0.1,0-0.2,0
			c-0.6-0.1-1.4-0.6-2.3-1.4c-0.9-0.9-1.4-1.5-1.4-2c0-0.2,0.2-0.5,0.5-0.8s0.6-0.5,0.9-0.5c0.1,0,0.2,0,0.3,0
			c0.3,0,0.8,0.4,1.5,1.3c0.2,0.4,0.5,0.6,0.8,0.6s0.5-0.2,0.6-0.5c0.1-0.1,0.1-0.3,0.1-0.6c0-1.6-0.7-4-2.2-7.1
			c-1.3-2.9-2-5.1-2-6.5c0-0.6,0.1-1.2,0.3-1.7c0.5-1.1,0.8-1.8,1-2.2C29.3,55.1,29.8,54.8,30.4,54.5z"/>
		<path class="st2" d="M50,55.4c0.4-0.1,0.7-0.2,1-0.2c0.7,0,1.2,0.2,1.5,0.8c0.2,0.3,0.5,1.5,0.7,3.6s0.4,4.3,0.5,6.8
			c0,0.8,0.1,1.9,0.2,3.4c0.1,1.5,0.1,2.7,0.2,3.8s0.1,1.9,0.1,2.5c0,0.4-0.2,0.7-0.6,0.9s-0.9,0.4-1.3,0.4c-0.4,0-0.7-0.1-0.9-0.2
			l-0.6-0.4l-0.1-5.1c-0.2-5.8-0.4-8.7-0.8-8.7c-0.2,0-0.5,0.7-1,2.2c-0.2,0.8-0.5,1.4-0.8,1.7c-0.3,0.3-0.6,0.5-1,0.5
			c-0.3,0-0.7-0.1-1.1-0.2c-0.5-0.2-0.9-0.6-1.2-1.3c-0.3-0.7-0.5-1.1-0.5-1.2s-0.1-0.3-0.2-0.6c-0.2-0.3-0.3-0.6-0.5-0.8
			S43.3,63,43.3,63v0.5c0,1.2,0,3,0.1,5.4l0.2,5.8l-0.5,0.9C42.5,76.5,42,77,41.5,77c-0.3,0-0.5-0.2-0.8-0.6
			c-0.2-0.3-0.4-0.9-0.4-1.6c-0.1-0.7-0.1-2.8-0.2-6.3c-0.2-6.5-0.3-10.2-0.5-11.1c0-0.1,0-0.3,0-0.5c0-0.3,0.2-0.6,0.5-0.9
			c0.3-0.3,0.7-0.5,1.2-0.5c0.4,0,1,0.1,1.6,0.4c0.6,0.2,1,0.6,1.3,1s1,1.7,2.1,3.7c0.3,0.5,0.5,0.8,0.7,0.8c0.1,0,0.3-0.2,0.4-0.6
			c0.1-0.5,0.4-1,0.7-1.7c0.4-0.8,0.6-1.3,0.6-1.4c0-0.2,0.2-0.7,0.6-1.3C49.6,55.9,49.9,55.5,50,55.4z"/>
		<path class="st2" d="M59.5,55.5l0.8-1h5.2l0.8,0.8c0.5,0.5,0.9,1.2,1.1,2s0.4,2.1,0.6,3.8c0.1,0.6,0.1,1.6,0.1,2.8
			c0,2.9-0.3,5.4-0.8,7.8s-1.2,3.9-2.1,4.8c-0.3,0.3-0.7,0.5-1.2,0.7s-1,0.3-1.4,0.3c-0.2,0-0.3,0-0.4-0.1c-0.2-0.1-0.5-0.2-0.9-0.2
			c-0.3,0-0.6-0.2-1-0.7s-0.7-1-0.9-1.7c-0.4-1.1-0.7-2.3-0.8-3.6c-0.1-1.2-0.2-3.3-0.2-6.2v-2c0-2.6,0.1-4.4,0.2-5.3
			C58.7,56.9,59,56.1,59.5,55.5z M63.4,57.5c-0.2-0.5-0.5-0.8-0.6-0.8c-0.2,0-0.4,0.4-0.7,1.3c-0.2,0.7-0.3,2-0.3,3.9
			c0,1.5,0.1,3.1,0.2,4.8c0.1,1.6,0.3,3.1,0.6,4.5c0.2,1.4,0.5,2.1,0.7,2.1c0.1,0,0.3-0.3,0.4-0.9c0.1-0.5,0.3-0.9,0.5-1.3
			c0.1-0.2,0.2-1.4,0.4-3.7c0.1-1.2,0.1-2.3,0.1-3.3C64.5,61.1,64.1,58.8,63.4,57.5z"/>
		<path class="st2" d="M79.4,55.1c0.4-0.3,0.7-0.5,1-0.5c0.2,0,0.6,0.1,1,0.3c0.5,0.3,0.8,0.6,0.8,0.8c0,0.4-0.6,1.6-1.7,3.6
			c-0.3,0.5-0.6,1-0.9,1.5s-0.5,0.9-0.7,1.2s-0.3,0.6-0.5,0.9c-0.2,0.3-0.3,0.5-0.4,0.7c-0.1,0.1-0.2,0.3-0.2,0.4
			c0,0.1-0.1,0.2-0.1,0.3c0,0.1,0,0.2,0,0.2c0,0.3,0.2,0.9,0.7,1.6c0.6,0.9,0.8,1.4,0.8,1.5s0.2,0.4,0.5,0.8c0.3,0.3,0.6,1,1,1.9
			c0.2,0.6,0.6,1.2,1,1.9c1.3,1.9,1.9,3.2,1.9,4s-0.6,1.2-1.7,1.2h-0.1c-0.7,0-1.2-0.1-1.4-0.3c-0.2-0.2-0.5-0.7-0.8-1.5
			c-0.2-0.6-0.5-1.2-0.9-1.9C78.3,73,78,72.5,77.9,72c-0.2-0.7-0.6-1.4-1.1-2.3s-0.8-1.3-1-1.3c-0.1,0-0.2,0.3-0.2,0.9
			c0,1,0.1,2.7,0.4,5c0.1,0.7,0.1,1.3,0.1,1.6c0,0.5-0.1,0.8-0.3,1s-0.6,0.2-1.2,0.3c-0.4,0.1-0.6,0.1-0.7,0.1
			c-0.3,0-0.6-0.2-0.9-0.5c-0.3-0.4-0.5-0.9-0.5-1.6c0-0.1,0-0.3,0-0.6c0-0.3,0-0.5,0-0.7c0.1-1.1,0.1-2.5,0.1-4.2
			c0-2.4,0-4.8-0.1-7.3l-0.1-6.8l0.5-0.2c0.2-0.1,0.3-0.1,0.4-0.1c0.2,0,0.6,0.1,1,0.4l0.9,0.4l0.1,2.8c0.1,1.8,0.1,2.7,0.2,2.7
			s0.6-0.7,1.4-2s1.3-2.3,1.5-3C78.7,56,79,55.5,79.4,55.1z"/>
		<path class="st2" d="M88.4,53.6c0.3-0.4,0.8-0.6,1.3-0.6s0.9,0.2,1.3,0.6l0.5,0.6l0.2,9.5c0.1,5.2,0.2,8.2,0.2,9c0,0.4,0,0.8,0,1
			c0,0.3,0,0.5,0,0.7s-0.1,0.3-0.1,0.4c-0.1,0.1-0.1,0.2-0.1,0.2s-0.1,0.1-0.2,0.1c-0.1,0.1-0.2,0.1-0.2,0.1
			c-0.3,0.2-0.6,0.3-0.8,0.3c-0.1,0-0.4-0.1-0.8-0.2c-0.7-0.3-1.1-0.5-1.1-0.7c-0.1-0.1-0.2-3.5-0.2-10.1c-0.1-6.6-0.1-9.9-0.2-10
			C87.9,54.2,88.1,53.9,88.4,53.6z"/>
		<path class="st2" d="M97.3,55.1c0.4-0.2,0.8-0.3,1.3-0.3c0.8,0,1.4,0.5,1.7,1.6c0.2,0.8,0.5,1.7,1,2.6c0.4,0.9,0.7,1.6,0.9,2.2
			c0.3,0.9,0.5,1.5,0.8,1.7c0.1,0.1,0.1,0.2,0.2,0.2s0.2-0.6,0.3-1.8c0.1-1.1,0.1-1.9,0.1-2.3v-0.5c0-0.2,0-0.5,0-0.8
			c0-0.7,0.2-1.2,0.6-1.6c0.3-0.4,0.8-0.6,1.6-0.6c0.5,0,0.9,0.1,1.2,0.4c0.2,0.2,0.4,0.6,0.4,1c0,0.5,0,1-0.1,1.5
			s-0.1,3.9-0.2,10.2c0,3.9-0.1,6.3-0.1,7.1c0,0.8-0.1,1.3-0.3,1.5c-0.3,0.3-0.7,0.5-1.3,0.5c-1.2,0-1.9-0.6-2.1-1.8
			c-0.1-0.4-0.3-1.3-0.8-2.5c-0.4-1.1-0.7-2.1-0.8-3c-0.2-1.1-0.6-2.7-1.2-4.6c-0.1-0.2-0.1-0.2-0.1-0.2c-0.1,0-0.2,1.2-0.2,3.5v2
			v2.2c0,2.3-0.1,3.6-0.2,3.9c-0.3,0.8-0.9,1.2-1.8,1.2c-0.5,0-1-0.2-1.3-0.6c-0.2-0.3-0.4-0.6-0.4-0.8c0-0.1,0-0.3,0.1-0.8
			c0.1-0.9,0.2-4.3,0.2-10.1c0-6.5,0.1-9.9,0.2-10.3c0.1-0.2,0.2-0.4,0.5-0.5C97.1,55.1,97.2,55.1,97.3,55.1z"/>
		<path class="st2" d="M113.3,57c0-0.2,0.1-0.4,0.4-0.6c0.3-0.2,0.6-0.4,1-0.5c0.4-0.2,0.6-0.3,0.7-0.4c0.1-0.2,0.3-0.2,0.5-0.2
			s0.6,0.2,1.3,0.6c0.6,0.4,1,0.8,1.1,1.2c0,0.1,0,0.2,0,0.2c0,0.3-0.4,0.6-1.2,0.9c-0.8,0.4-1.4,0.8-1.6,1.2
			c-0.4,0.8-0.6,2.9-0.6,6.1c0,1.1,0,1.9,0.1,2.4c0.3,3.7,0.6,5.7,0.8,6.1l0,0c0.2,0,0.4-1,0.4-3.1c0.1-1.1,0.1-1.9,0.2-2.3
			c0.1-0.5,0.1-0.9-0.2-1.2c-0.3-0.4-0.5-0.8-0.5-1.1c0-0.2,0.1-0.5,0.3-0.8c0.3-0.3,0.9-0.5,1.9-0.5c0.6,0,1.1,0,1.3,0.1
			c0.2,0.1,0.4,0.2,0.6,0.4c0.2,0.3,0.4,0.7,0.4,1.2s-0.1,1-0.2,1.6c-0.2,1-0.3,2.4-0.4,4.1c-0.1,2-0.4,3.3-0.7,3.9
			c-0.4,0.7-0.7,1.2-0.9,1.4c-0.3,0.2-0.7,0.5-1.4,0.6c-0.4,0.1-0.8,0.2-1.2,0.2c-0.5,0-1-0.2-1.6-0.7c-0.7-0.5-1.3-1.9-1.7-4
			c-0.1-0.4-0.2-0.8-0.3-1c-0.1-0.1-0.1-0.5-0.2-1.2c0-0.4-0.1-2.2-0.2-5.6l-0.2-4.6l0.6-1.9c0.4-1.2,0.7-2,0.9-2.3
			C113.2,57.4,113.3,57.2,113.3,57z"/>
		<path class="st3" d="M185.5,155.9c4.4,0,8-3.6,8-8s-3.6-8-8-8s-8,3.6-8,8C177.5,152.3,181.1,155.9,185.5,155.9z"/>
		<path class="st3" d="M214.9,139.5c4.7,0,8.6-3.8,8.6-8.6s-3.8-8.6-8.6-8.6s-8.6,3.8-8.6,8.6C206.3,135.7,210.1,139.5,214.9,139.5z
			"/>
		<path class="st3" d="M155.7,158c2.4,0,4.3-1.9,4.3-4.3c0-2.4-1.9-4.3-4.3-4.3s-4.3,1.9-4.3,4.3C151.4,156,153.3,158,155.7,158z"/>
		<path class="st3" d="M202.5,103c4.5,0.4,8.7-0.7,12.4-2.7c3.6,5.5,9.6,9.3,16.6,9.9c5.2,0.4,10-1.1,14-3.7
			c2.4,8.7,9.9,15.5,19.5,16.2c11.5,0.9,21.5-7.2,23.4-18.3c11.4-1.3,20.7-10.5,21.7-22.4c0.8-10.2-4.7-19.4-13.3-23.8
			c0.4-1.4,0.7-2.8,0.8-4.3c1-12.1-8.1-22.8-20.3-23.8c-0.8-0.1-1.6,0-2.5,0.1c-4.9-9.4-14.4-16.2-25.7-17.1
			c-13.2-1-25.2,6.1-30.9,17.2c-12.1-1-22.8,8.1-23.8,20.3c-0.3,3.5,0.4,6.9,1.6,9.9c-7.5,3.1-13,10-13.7,18.6
			C181.3,91.4,190.4,102,202.5,103z"/>
		<path class="st4" d="M222.3,59.9c0,0,6.1-1.1,0.2-7.8c-5.9-6.7-8.9-10.3-8.4-13.8c0,0-5.1,6.8,4.3,13.2
			C227.8,57.9,222.3,59.9,222.3,59.9z"/>
		<path class="st5" d="M206.2,85.7l-2.5-1.5c-0.3-0.2-0.4-0.6-0.2-0.9l2.2-3.2l3.5,2.2l-2.2,3.2C206.9,85.8,206.5,85.9,206.2,85.7z"
			/>
		<path class="st6" d="M222.2,58.2v1.9l1.7,0.3l0.4-0.2l0.8-1.2c0.1-0.1-1.6-0.4-1.6-0.4l-0.4-1.4l-0.8-0.5
			c-0.2-0.1-0.5-0.1-0.7,0.2l-0.5,0.7l0.4,1L222.2,58.2z"/>
		<path class="st0" d="M223.9,60.4l-1.7-0.3v-1.9l-0.7,0.3l-0.4-1l-16.3,24.1l3.5,2.2l16-23.6L223.9,60.4z"/>
		<path class="st7" d="M247.4,81.9l-10.2,1.7c-1.2,0.2-2,1.3-1.8,2.5v0.1c0.3,1.5,1.7,2.3,3.1,1.8l11.7-4.4L247.4,81.9z"/>
		<path class="st7" d="M247,77.5l-10.1-2.4c-1.2-0.3-2.3,0.4-2.6,1.6v0.1c-0.3,1.5,0.7,2.8,2.2,2.8l12.5,0.5L247,77.5z"/>
		<path class="st7" d="M274.9,83.6l10.1,2.5c1.2,0.3,2.3-0.4,2.6-1.6v-0.1c0.3-1.5-0.6-2.8-2.2-2.9L272.9,81L274.9,83.6z"/>
		<path class="st7" d="M269.6,88.8l6.8,7.8c0.8,0.9,2.2,1,3,0.2l0.1-0.1c1.1-1,1.1-2.7-0.2-3.6l-9.9-7.6L269.6,88.8z"/>
		<path class="st8" d="M246.8,85.1c-2.5-1.6-3.3-3.7-2-6.3c-6.9,0.3-7.6-10.2-1-10.2c-0.1-3.2,1.4-4.8,4.7-4.7
			c1.4-3.1,3.3-4.6,6.6-2.4c2.9-3.6,5.5-3.8,7.6,0.2c3.5-2.4,5.9-1.9,7,2c3.1-1.2,4.8-0.4,5.1,2.4l3.1,0.9c-0.1-0.8,0.1-1.6,0.3-2.3
			c-0.2-0.1-0.4-0.1-0.6-0.2c-1.7-0.8-2.7-2.2-2.2-3.3s2.3-1.4,3.9-0.6c1,0.4,1.7,1,2.1,1.7c2.4-0.2,5.4,1.4,7.6,4.3
			c2.8,3.8,3,8.4,0.6,10.1c-2,1.6-5.3,0.6-8-1.9c0.4,3.7-1.3,4.8-3.8,4.9c1.3,2.3,0.6,3.6-1.8,4.1c2,2.3-0.8,4.6-4.3,4.2
			c-0.4,1.3-6.5,2.7-7.6,1.7c-1.3,2.2-3.8,2.4-4.9-0.5c-2.1,2-3.9,2.4-5.1-1.2l-4.2-1.5L246.8,85.1z"/>
		<path class="st9" d="M236.9,71.4c0,0-4.5,0.4-6,2.2"/>
		<path class="st9" d="M236.2,68.8c0,0-4.5,0.4-6,2.2"/>
	</g>
</g>
</svg>
