<?xml version="1.0" encoding="utf-8"?>
<!-- Generator: Adobe Illustrator 25.1.0, SVG Export Plug-In . SVG Version: 6.00 Build 0)  -->
<svg version="1.1" id="Layer_1" xmlns="http://www.w3.org/2000/svg" xmlns:xlink="http://www.w3.org/1999/xlink" x="0px" y="0px"
	 viewBox="0 0 333.7 234.1" style="enable-background:new 0 0 333.7 234.1;" xml:space="preserve">
<style type="text/css">
	.st0{fill:#FFFFFF;}
	.st1{fill:#808080;}
	.st2{fill:#FF9F1A;}
	.st3{fill-rule:evenodd;clip-rule:evenodd;fill:#FF9F1A;}
	.st4{fill-rule:evenodd;clip-rule:evenodd;fill:#D64204;}
	.st5{fill:none;stroke:#BFBFBF;stroke-width:1.373;stroke-miterlimit:10;}
	.st6{fill:none;stroke:#BFBFBF;stroke-width:1.373;stroke-miterlimit:10;stroke-dasharray:2.73,2.73;}
</style>
<g>
	<path class="st0" d="M333.6,152.3c-1.7-48.8,4.5-93.6-21.5-128.5c-29-39-166.2-18.1-200.7-19.4C94.9,3.8,16.9-8.1,7.9,21.3
		C-5.4,64.7,2.4,99.9,1.3,150.2c-1.1,49.2-0.8,80.2,38.8,82.1c73.2,3.4,157,1.9,226.1-5C299.7,224,336.4,234.2,333.6,152.3z"/>
	<path class="st1" d="M28.5,46.5V36.4h-3.3v-1.1h8v1.1h-3.3v10.1H28.5z"/>
	<path class="st1" d="M33.8,46.5v-7.9H35l0.1,1.5c0.2-0.5,0.6-0.9,1.1-1.2s1.1-0.5,1.9-0.5v1.4h-0.4c-0.5,0-0.9,0.1-1.3,0.2
		c-0.4,0.2-0.7,0.4-0.9,0.8s-0.3,0.9-0.3,1.6v4L33.8,46.5L33.8,46.5z"/>
	<path class="st1" d="M40.5,50l2-4.3H42l-3.2-7.2h1.5l2.6,6.2l2.8-6.2h1.4L41.9,50H40.5z"/>
	<path class="st1" d="M55.9,46.5c-0.7,0-1.3-0.2-1.7-0.5s-0.6-1-0.6-1.9v-4.4h-1.4v-1.1h1.4l0.2-1.9H55v1.9h2.3v1.1H55v4.4
		c0,0.5,0.1,0.8,0.3,1s0.6,0.3,1.1,0.3h0.8v1.2L55.9,46.5L55.9,46.5z"/>
	<path class="st1" d="M62.4,46.7c-0.8,0-1.4-0.2-2-0.5s-1.1-0.8-1.4-1.5c-0.3-0.6-0.5-1.4-0.5-2.2s0.2-1.6,0.5-2.2
		c0.3-0.6,0.8-1.1,1.4-1.4c0.6-0.3,1.3-0.5,2-0.5s1.4,0.2,2,0.5s1.1,0.8,1.4,1.4c0.3,0.6,0.5,1.4,0.5,2.2s-0.2,1.6-0.5,2.2
		c-0.3,0.6-0.8,1.1-1.4,1.5C63.8,46.5,63.1,46.7,62.4,46.7z M62.4,45.6c0.5,0,0.9-0.1,1.3-0.3s0.7-0.6,1-1c0.2-0.5,0.4-1,0.4-1.7
		s-0.1-1.2-0.4-1.7c-0.2-0.4-0.6-0.8-1-1s-0.8-0.3-1.3-0.3s-0.9,0.1-1.3,0.3s-0.7,0.6-1,1s-0.4,1-0.4,1.7s0.1,1.2,0.4,1.7
		c0.2,0.4,0.6,0.8,1,1C61.5,45.5,61.9,45.6,62.4,45.6z"/>
	<path class="st1" d="M76.1,46.7c-0.8,0-1.5-0.2-2.1-0.5c-0.6-0.4-1-0.9-1.4-1.5c-0.3-0.6-0.5-1.3-0.5-2.1s0.2-1.5,0.5-2.1
		s0.8-1.1,1.4-1.5s1.3-0.5,2.1-0.5c0.6,0,1.2,0.1,1.7,0.4c0.5,0.3,0.9,0.6,1.2,1.1v-4.9h1.3v11.5h-1.2L79,45.2
		c-0.3,0.4-0.6,0.7-1.1,1C77.4,46.6,76.8,46.7,76.1,46.7z M76.2,45.6c0.5,0,1-0.1,1.4-0.4c0.4-0.2,0.7-0.6,1-1.1
		c0.2-0.4,0.3-1,0.3-1.6s-0.1-1.1-0.3-1.6c-0.2-0.4-0.6-0.8-1-1.1c-0.4-0.2-0.9-0.4-1.4-0.4s-1,0.1-1.4,0.4c-0.4,0.2-0.7,0.6-1,1.1
		c-0.2,0.4-0.3,1-0.3,1.6s0.1,1.1,0.3,1.6c0.2,0.4,0.6,0.8,1,1.1C75.2,45.4,75.7,45.6,76.2,45.6z"/>
	<path class="st1" d="M86.1,46.7c-0.8,0-1.4-0.2-2-0.5s-1.1-0.8-1.4-1.5c-0.3-0.6-0.5-1.4-0.5-2.2s0.2-1.6,0.5-2.2
		c0.3-0.6,0.8-1.1,1.4-1.4c0.6-0.3,1.3-0.5,2-0.5s1.4,0.2,2,0.5s1.1,0.8,1.4,1.4c0.3,0.6,0.5,1.4,0.5,2.2s-0.2,1.6-0.5,2.2
		c-0.3,0.6-0.8,1.1-1.4,1.5C87.5,46.5,86.9,46.7,86.1,46.7z M86.1,45.6c0.5,0,0.9-0.1,1.3-0.3s0.7-0.6,1-1c0.2-0.5,0.4-1,0.4-1.7
		s-0.1-1.2-0.4-1.7c-0.2-0.4-0.6-0.8-1-1s-0.8-0.3-1.3-0.3s-0.9,0.1-1.3,0.3s-0.7,0.6-1,1s-0.4,1-0.4,1.7s0.1,1.2,0.4,1.7
		c0.2,0.4,0.6,0.8,1,1C85.3,45.5,85.7,45.6,86.1,45.6z"/>
	<path class="st1" d="M99.3,46.7c-1,0-1.7-0.2-2.4-0.7c-0.6-0.5-1-1.1-1.1-1.9h1.4c0.1,0.4,0.3,0.8,0.7,1.1c0.4,0.3,0.8,0.5,1.4,0.5
		s1-0.1,1.2-0.4c0.3-0.2,0.4-0.5,0.4-0.9c0-0.5-0.2-0.8-0.5-1s-0.8-0.3-1.5-0.4c-0.4-0.1-0.8-0.2-1.3-0.4c-0.4-0.2-0.8-0.4-1.1-0.7
		s-0.4-0.7-0.4-1.2c0-0.7,0.3-1.3,0.8-1.7s1.2-0.7,2.1-0.7c0.8,0,1.5,0.2,2.1,0.6c0.5,0.4,0.8,1,0.9,1.8h-1.3c0-0.4-0.2-0.7-0.5-0.9
		s-0.7-0.3-1.2-0.3s-0.8,0.1-1.1,0.3s-0.4,0.5-0.4,0.8s0.2,0.6,0.5,0.8s0.8,0.3,1.4,0.5c0.5,0.1,1,0.2,1.4,0.4s0.8,0.4,1.1,0.7
		c0.3,0.3,0.4,0.7,0.4,1.3c0,0.7-0.3,1.3-0.8,1.8C101,46.5,100.2,46.7,99.3,46.7z"/>
	<path class="st1" d="M107.8,46.7c-0.8,0-1.4-0.2-2-0.5s-1.1-0.8-1.4-1.5c-0.3-0.6-0.5-1.4-0.5-2.2s0.2-1.6,0.5-2.2
		c0.3-0.6,0.8-1.1,1.4-1.4c0.6-0.3,1.3-0.5,2-0.5s1.4,0.2,2,0.5s1.1,0.8,1.4,1.4c0.4,0.6,0.5,1.4,0.5,2.2s-0.2,1.6-0.5,2.2
		c-0.4,0.6-0.8,1.1-1.4,1.5C109.3,46.5,108.6,46.7,107.8,46.7z M107.8,45.6c0.5,0,0.9-0.1,1.3-0.3s0.7-0.6,1-1
		c0.2-0.5,0.4-1,0.4-1.7s-0.1-1.2-0.4-1.7c-0.2-0.4-0.6-0.8-0.9-1s-0.8-0.3-1.3-0.3s-0.9,0.1-1.3,0.3s-0.7,0.6-1,1s-0.4,1-0.4,1.7
		s0.1,1.2,0.4,1.7c0.2,0.4,0.6,0.8,1,1C107,45.5,107.4,45.6,107.8,45.6z"/>
	<path class="st1" d="M113.7,46.5v-7.9h1.2l0.1,1.2c0.3-0.4,0.6-0.8,1-1s0.9-0.4,1.4-0.4c0.6,0,1.2,0.1,1.6,0.4
		c0.4,0.3,0.8,0.6,1.1,1.2c0.3-0.5,0.7-0.9,1.1-1.1c0.5-0.3,1-0.4,1.6-0.4c1,0,1.7,0.3,2.3,0.9c0.6,0.6,0.9,1.4,0.9,2.6v4.6h-1.3
		v-4.5c0-0.8-0.2-1.4-0.5-1.9s-0.8-0.6-1.4-0.6s-1.2,0.2-1.6,0.7s-0.6,1.2-0.6,2.1v4.1h-1.3V42c0-0.8-0.2-1.4-0.5-1.9
		c-0.3-0.4-0.8-0.6-1.4-0.6s-1.2,0.2-1.6,0.7s-0.6,1.2-0.6,2.1v4.1L113.7,46.5L113.7,46.5z"/>
	<path class="st1" d="M131.6,46.7c-0.8,0-1.4-0.2-2-0.5c-0.6-0.4-1.1-0.8-1.4-1.5c-0.3-0.6-0.5-1.4-0.5-2.2s0.2-1.6,0.5-2.2
		s0.8-1.1,1.4-1.5c0.6-0.4,1.3-0.5,2.1-0.5s1.4,0.2,2,0.5c0.6,0.4,1,0.8,1.3,1.4c0.3,0.6,0.4,1.2,0.4,1.8c0,0.1,0,0.2,0,0.3
		s0,0.3,0,0.4H129c0,0.6,0.2,1.1,0.4,1.5s0.6,0.7,0.9,0.9c0.4,0.2,0.8,0.3,1.2,0.3c0.6,0,1-0.1,1.4-0.4c0.4-0.2,0.7-0.6,0.8-1h1.3
		c-0.2,0.7-0.6,1.4-1.2,1.8C133.3,46.5,132.5,46.7,131.6,46.7z M131.6,39.5c-0.6,0-1.2,0.2-1.7,0.6c-0.5,0.4-0.8,1-0.9,1.7h5
		c0-0.7-0.3-1.3-0.7-1.7C132.8,39.7,132.3,39.5,131.6,39.5z"/>
	<path class="st1" d="M26.2,68.5v-6.8H25v-1.1h1.2v-1.4c0-0.8,0.2-1.3,0.6-1.7s0.9-0.5,1.7-0.5h0.8v1.1h-0.6c-0.4,0-0.7,0.1-0.9,0.2
		c-0.2,0.2-0.3,0.5-0.3,0.8v1.3h2v1.1h-2v6.8h-1.3V68.5z"/>
	<path class="st1" d="M34.4,68.7c-0.8,0-1.4-0.2-2-0.5c-0.6-0.3-1.1-0.8-1.4-1.4c-0.4-0.6-0.5-1.4-0.5-2.2s0.2-1.6,0.5-2.2
		c0.3-0.6,0.8-1.1,1.4-1.4c0.6-0.3,1.3-0.5,2-0.5c0.8,0,1.4,0.2,2,0.5s1.1,0.8,1.4,1.4c0.4,0.6,0.5,1.4,0.5,2.2
		c0,0.8-0.2,1.6-0.5,2.2c-0.4,0.6-0.8,1.1-1.4,1.4C35.8,68.5,35.2,68.7,34.4,68.7z M34.4,67.6c0.5,0,0.9-0.1,1.3-0.3
		c0.4-0.2,0.7-0.6,1-1c0.2-0.5,0.4-1,0.4-1.7c0-0.7-0.1-1.2-0.4-1.7c-0.2-0.4-0.6-0.8-1-1s-0.8-0.3-1.3-0.3s-0.9,0.1-1.3,0.3
		c-0.4,0.2-0.7,0.6-1,1c-0.3,0.4-0.4,1-0.4,1.7c0,0.7,0.1,1.2,0.4,1.7c0.2,0.4,0.6,0.8,1,1C33.5,67.5,34,67.6,34.4,67.6z"/>
	<path class="st1" d="M40.3,68.5v-7.9h1.2l0.1,1.5c0.2-0.5,0.6-0.9,1.1-1.2s1.1-0.5,1.9-0.5v1.4h-0.4c-0.5,0-0.9,0.1-1.3,0.2
		c-0.4,0.2-0.7,0.4-0.9,0.8c-0.2,0.4-0.3,0.9-0.3,1.6v4L40.3,68.5L40.3,68.5z"/>
	<path class="st1" d="M46.1,68.5v-7.9h1.2l0.1,1.2c0.3-0.4,0.6-0.8,1-1s0.9-0.4,1.4-0.4c0.6,0,1.2,0.1,1.6,0.4
		c0.4,0.3,0.8,0.6,1,1.2c0.3-0.5,0.7-0.9,1.1-1.1c0.5-0.3,1-0.4,1.6-0.4c1,0,1.7,0.3,2.3,0.9c0.6,0.6,0.8,1.4,0.8,2.6v4.6H57v-4.5
		c0-0.8-0.2-1.4-0.5-1.9s-0.8-0.6-1.4-0.6c-0.6,0-1.2,0.2-1.6,0.7c-0.4,0.5-0.6,1.2-0.6,2.1v4.1h-1.3V64c0-0.8-0.2-1.4-0.5-1.9
		c-0.3-0.4-0.8-0.6-1.4-0.6c-0.6,0-1.2,0.2-1.6,0.7c-0.4,0.5-0.6,1.2-0.6,2.1v4.1L46.1,68.5L46.1,68.5z"/>
	<path class="st1" d="M68.3,68.7c-0.8,0-1.4-0.2-2-0.5s-1.1-0.8-1.4-1.4s-0.5-1.4-0.5-2.2s0.2-1.6,0.5-2.2c0.3-0.6,0.8-1.1,1.4-1.4
		s1.3-0.5,2-0.5s1.4,0.2,2,0.5s1.1,0.8,1.4,1.4c0.3,0.6,0.5,1.4,0.5,2.2c0,0.8-0.2,1.6-0.5,2.2s-0.8,1.1-1.4,1.4
		C69.7,68.5,69,68.7,68.3,68.7z M68.3,67.6c0.5,0,0.9-0.1,1.3-0.3c0.4-0.2,0.7-0.6,1-1c0.2-0.5,0.4-1,0.4-1.7c0-0.7-0.1-1.2-0.4-1.7
		c-0.2-0.4-0.6-0.8-1-1s-0.8-0.3-1.3-0.3s-0.9,0.1-1.3,0.3s-0.7,0.6-1,1s-0.4,1-0.4,1.7c0,0.7,0.1,1.2,0.4,1.7
		c0.2,0.5,0.6,0.8,0.9,1C67.4,67.5,67.8,67.6,68.3,67.6z"/>
	<path class="st1" d="M74.5,68.5v-6.8h-1.2v-1.1h1.2v-1.4c0-0.8,0.2-1.3,0.6-1.7S76,57,76.8,57h0.8v1.1H77c-0.4,0-0.7,0.1-0.9,0.2
		c-0.2,0.2-0.3,0.5-0.3,0.8v1.3h1.9v1.1h-1.9v6.8h-1.3V68.5z"/>
	<path class="st1" d="M87.2,68.7c-0.8,0-1.4-0.2-2-0.5s-1.1-0.8-1.4-1.4s-0.5-1.4-0.5-2.2c0-0.8,0.2-1.6,0.5-2.2
		c0.3-0.6,0.8-1.1,1.4-1.5s1.3-0.5,2.1-0.5c0.8,0,1.4,0.2,2,0.5c0.6,0.4,1,0.8,1.3,1.4c0.3,0.6,0.5,1.2,0.5,1.8c0,0.1,0,0.2,0,0.3
		c0,0.1,0,0.3,0,0.4h-6.3c0,0.6,0.2,1.1,0.4,1.5c0.2,0.4,0.6,0.7,0.9,0.9c0.4,0.2,0.8,0.3,1.2,0.3c0.6,0,1-0.1,1.4-0.4
		c0.4-0.2,0.7-0.6,0.8-1h1.3c-0.2,0.7-0.6,1.3-1.2,1.8C89,68.5,88.2,68.7,87.2,68.7z M87.2,61.5c-0.6,0-1.2,0.2-1.7,0.6
		c-0.5,0.4-0.8,1-0.9,1.7h5c0-0.7-0.3-1.3-0.7-1.7C88.5,61.7,87.9,61.5,87.2,61.5z"/>
	<path class="st1" d="M91.6,68.5l2.8-4l-2.8-4h1.5l2.2,3.3l2.2-3.3h1.4l-2.8,4l2.8,4h-1.4l-2.2-3.3l-2.2,3.3H91.6z"/>
	<path class="st1" d="M103.6,68.7c-0.8,0-1.4-0.2-2-0.5s-1-0.8-1.4-1.4c-0.3-0.6-0.5-1.4-0.5-2.2c0-0.8,0.2-1.6,0.5-2.2
		s0.8-1.1,1.4-1.5s1.3-0.5,2.1-0.5c0.8,0,1.4,0.2,2,0.5s1,0.8,1.3,1.4c0.3,0.6,0.4,1.2,0.4,1.8c0,0.1,0,0.2,0,0.3c0,0.1,0,0.3,0,0.4
		H101c0,0.6,0.2,1.1,0.4,1.5c0.2,0.4,0.6,0.7,0.9,0.9c0.4,0.2,0.8,0.3,1.2,0.3c0.5,0,1-0.1,1.4-0.4s0.7-0.6,0.8-1h1.3
		c-0.2,0.7-0.6,1.3-1.2,1.8C105.3,68.5,104.6,68.7,103.6,68.7z M103.6,61.5c-0.6,0-1.2,0.2-1.7,0.6s-0.8,1-0.9,1.7h5
		c0-0.7-0.3-1.3-0.7-1.7C104.9,61.7,104.3,61.5,103.6,61.5z"/>
	<path class="st1" d="M109.2,68.5v-7.9h1.2l0.1,1.5c0.2-0.5,0.6-0.9,1.1-1.2s1.1-0.5,1.9-0.5v1.4h-0.4c-0.5,0-0.9,0.1-1.3,0.2
		c-0.4,0.2-0.7,0.4-0.9,0.8c-0.2,0.4-0.4,0.9-0.4,1.6v4L109.2,68.5L109.2,68.5z"/>
	<path class="st1" d="M118.3,68.7c-0.8,0-1.4-0.2-2-0.5s-1.1-0.8-1.4-1.5c-0.3-0.6-0.5-1.4-0.5-2.2s0.2-1.6,0.5-2.2
		c0.3-0.6,0.8-1.1,1.4-1.5s1.3-0.5,2-0.5c0.9,0,1.7,0.2,2.4,0.7s1.1,1.2,1.2,2h-1.4c-0.1-0.5-0.4-0.9-0.8-1.1
		c-0.4-0.3-0.9-0.4-1.5-0.4c-0.5,0-0.9,0.1-1.3,0.3s-0.7,0.6-1,1s-0.4,1-0.4,1.7c0,0.7,0.1,1.2,0.4,1.7c0.2,0.4,0.6,0.8,1,1
		s0.8,0.3,1.3,0.3s1-0.1,1.5-0.4s0.7-0.7,0.8-1.2h1.4c-0.2,0.8-0.6,1.5-1.2,2S119.2,68.7,118.3,68.7z"/>
	<path class="st1" d="M124.6,58.8c-0.3,0-0.5-0.1-0.7-0.3s-0.3-0.4-0.3-0.7s0.1-0.5,0.3-0.6c0.2-0.2,0.4-0.3,0.7-0.3
		c0.3,0,0.5,0.1,0.7,0.3s0.3,0.4,0.3,0.6c0,0.3-0.1,0.5-0.3,0.7C125.1,58.7,124.8,58.8,124.6,58.8z M123.9,68.5v-7.9h1.3v7.9H123.9
		L123.9,68.5z"/>
	<path class="st1" d="M130.6,68.7c-0.9,0-1.7-0.2-2.4-0.7c-0.6-0.5-1-1.1-1.1-1.9h1.4c0.1,0.4,0.3,0.8,0.7,1.1
		c0.4,0.3,0.8,0.5,1.4,0.5c0.6,0,1-0.1,1.2-0.4c0.3-0.2,0.4-0.5,0.4-0.9c0-0.5-0.2-0.8-0.5-1c-0.4-0.2-0.8-0.3-1.5-0.4
		c-0.4-0.1-0.9-0.2-1.3-0.4c-0.4-0.2-0.8-0.4-1.1-0.7s-0.4-0.7-0.4-1.2c0-0.7,0.3-1.3,0.8-1.7s1.2-0.7,2.1-0.7
		c0.8,0,1.5,0.2,2.1,0.6c0.5,0.4,0.9,1,0.9,1.8H132c-0.1-0.4-0.2-0.7-0.5-0.9s-0.7-0.3-1.2-0.3s-0.9,0.1-1.1,0.3s-0.4,0.5-0.4,0.8
		s0.2,0.6,0.5,0.8s0.8,0.3,1.4,0.5c0.5,0.1,1,0.2,1.4,0.4s0.8,0.4,1.1,0.7c0.3,0.3,0.4,0.7,0.4,1.3c0,0.7-0.3,1.3-0.8,1.8
		C132.3,68.5,131.6,68.7,130.6,68.7z"/>
	<path class="st1" d="M139.2,68.7c-0.8,0-1.4-0.2-2-0.5s-1.1-0.8-1.4-1.4c-0.3-0.6-0.5-1.4-0.5-2.2c0-0.8,0.2-1.6,0.5-2.2
		s0.8-1.1,1.4-1.5c0.6-0.4,1.3-0.5,2.1-0.5s1.4,0.2,2,0.5s1,0.8,1.3,1.4c0.3,0.6,0.4,1.2,0.4,1.8c0,0.1,0,0.2,0,0.3
		c0,0.1,0,0.3,0,0.4h-6.3c0,0.6,0.2,1.1,0.4,1.5s0.6,0.7,0.9,0.9c0.4,0.2,0.8,0.3,1.2,0.3c0.6,0,1-0.1,1.4-0.4s0.6-0.6,0.8-1h1.3
		c-0.2,0.7-0.6,1.3-1.2,1.8C140.9,68.5,140.1,68.7,139.2,68.7z M139.2,61.5c-0.6,0-1.2,0.2-1.7,0.6c-0.5,0.4-0.8,1-0.9,1.7h5
		c0-0.7-0.3-1.3-0.7-1.7C140.4,61.7,139.8,61.5,139.2,61.5z"/>
	<path class="st1" d="M28.7,136.7c-0.6-0.5-1.1-1.2-1.6-2s-0.9-1.6-1.2-2.6c-0.3-0.9-0.4-2-0.4-3.1c0-1.1,0.1-2.1,0.4-3.1
		c0.3-0.9,0.7-1.8,1.2-2.6c0.5-0.8,1-1.4,1.6-2H30v0.1c-1,1-1.8,2.1-2.4,3.4s-0.9,2.7-0.9,4.1s0.3,2.9,0.9,4.2s1.4,2.4,2.3,3.4v0.1
		L28.7,136.7L28.7,136.7z"/>
	<path class="st1" d="M34.7,134.5c-0.8,0-1.4-0.2-2-0.5s-1.1-0.8-1.4-1.5s-0.5-1.4-0.5-2.2s0.2-1.6,0.5-2.2c0.3-0.6,0.8-1.1,1.4-1.5
		c0.6-0.3,1.3-0.5,2-0.5c0.8,0,1.4,0.2,2,0.5s1.1,0.8,1.4,1.5c0.3,0.6,0.5,1.4,0.5,2.2s-0.2,1.6-0.5,2.2c-0.3,0.6-0.8,1.1-1.4,1.5
		S35.5,134.5,34.7,134.5z M34.7,133.4c0.5,0,0.9-0.1,1.3-0.3s0.7-0.6,1-1c0.2-0.4,0.4-1,0.4-1.7s-0.1-1.2-0.4-1.7
		c-0.2-0.4-0.6-0.8-0.9-1c-0.4-0.2-0.8-0.3-1.3-0.3s-0.9,0.1-1.3,0.3c-0.4,0.2-0.7,0.6-1,1s-0.4,1-0.4,1.7s0.1,1.2,0.4,1.7
		c0.2,0.5,0.6,0.8,0.9,1C33.8,133.3,34.3,133.4,34.7,133.4z"/>
	<path class="st1" d="M40.6,134.4v-7.9h1.2l0.1,1.5c0.2-0.5,0.6-0.9,1.1-1.2c0.5-0.3,1.1-0.5,1.9-0.5v1.4h-0.4
		c-0.5,0-0.9,0.1-1.3,0.2c-0.4,0.2-0.7,0.4-0.9,0.8c-0.2,0.4-0.4,0.9-0.4,1.6v4L40.6,134.4L40.6,134.4z"/>
	<path class="st1" d="M50.6,134.4v-7.9h1.2l0.1,1.1c0.3-0.4,0.6-0.8,1-1s0.9-0.4,1.4-0.4c0.6,0,1.2,0.1,1.6,0.4
		c0.4,0.3,0.8,0.6,1,1.2c0.3-0.5,0.7-0.9,1.1-1.1c0.5-0.3,1-0.4,1.6-0.4c1,0,1.7,0.3,2.3,0.9s0.8,1.4,0.8,2.6v4.6h-1.3v-4.5
		c0-0.8-0.2-1.4-0.5-1.9c-0.3-0.4-0.8-0.6-1.4-0.6c-0.6,0-1.2,0.2-1.6,0.7c-0.4,0.5-0.6,1.2-0.6,2.1v4.1H56v-4.5
		c0-0.8-0.2-1.4-0.5-1.9s-0.8-0.6-1.4-0.6c-0.6,0-1.2,0.2-1.6,0.7c-0.4,0.5-0.6,1.2-0.6,2.1v4.1L50.6,134.4L50.6,134.4z"/>
	<path class="st1" d="M68.5,134.5c-0.8,0-1.4-0.2-2-0.5s-1.1-0.8-1.4-1.5s-0.5-1.4-0.5-2.2s0.2-1.6,0.5-2.2c0.3-0.6,0.8-1.1,1.4-1.5
		c0.6-0.3,1.3-0.5,2-0.5s1.4,0.2,2,0.5s1.1,0.8,1.4,1.5c0.3,0.6,0.5,1.4,0.5,2.2s-0.2,1.6-0.5,2.2s-0.8,1.1-1.4,1.5
		C70,134.4,69.3,134.5,68.5,134.5z M68.5,133.4c0.5,0,0.9-0.1,1.3-0.3s0.7-0.6,1-1c0.2-0.4,0.4-1,0.4-1.7s-0.1-1.2-0.4-1.7
		c-0.2-0.4-0.6-0.8-1-1s-0.8-0.3-1.3-0.3s-0.9,0.1-1.3,0.3c-0.4,0.2-0.7,0.6-1,1s-0.4,1-0.4,1.7s0.1,1.2,0.4,1.7
		c0.2,0.4,0.6,0.8,1,1S68.1,133.4,68.5,133.4z"/>
	<path class="st1" d="M77.4,134.5c-1,0-1.7-0.2-2.4-0.7c-0.6-0.5-1-1.1-1.1-1.9h1.4c0.1,0.4,0.3,0.8,0.7,1.1
		c0.4,0.3,0.8,0.5,1.4,0.5s1-0.1,1.2-0.4c0.3-0.2,0.4-0.5,0.4-0.9c0-0.5-0.2-0.8-0.5-1c-0.4-0.2-0.8-0.3-1.5-0.4
		c-0.4-0.1-0.8-0.2-1.3-0.4c-0.4-0.2-0.8-0.4-1.1-0.7c-0.3-0.3-0.4-0.7-0.4-1.2c0-0.7,0.3-1.3,0.8-1.7c0.5-0.4,1.2-0.7,2.1-0.7
		c0.8,0,1.5,0.2,2.1,0.6s0.9,1,0.9,1.8h-1.3c-0.1-0.4-0.2-0.7-0.5-0.9c-0.3-0.2-0.7-0.3-1.2-0.3s-0.8,0.1-1.1,0.3
		c-0.3,0.2-0.4,0.5-0.4,0.8s0.2,0.6,0.5,0.8s0.8,0.3,1.4,0.5c0.5,0.1,1,0.2,1.4,0.4c0.4,0.1,0.8,0.4,1.1,0.7
		c0.3,0.3,0.4,0.7,0.4,1.3c0,0.7-0.3,1.3-0.8,1.8C79.1,134.3,78.4,134.5,77.4,134.5z"/>
	<path class="st1" d="M85.2,134.4c-0.7,0-1.3-0.2-1.7-0.5c-0.4-0.3-0.6-1-0.6-1.9v-4.4h-1.4v-1.1h1.4l0.2-1.9h1.2v1.9h2.3v1.1h-2.3
		v4.4c0,0.5,0.1,0.8,0.3,1c0.2,0.2,0.6,0.3,1.1,0.3h0.8v1.1L85.2,134.4L85.2,134.4z"/>
	<path class="st1" d="M96.1,134.5c-0.8,0-1.5-0.2-2.1-0.5c-0.6-0.4-1.1-0.9-1.4-1.5s-0.5-1.3-0.5-2.1s0.2-1.5,0.5-2.1
		c0.3-0.6,0.8-1.1,1.4-1.5s1.3-0.5,2.1-0.5c0.7,0,1.2,0.1,1.7,0.4s0.9,0.6,1.2,1.1v-4.9h1.3v11.5h-1.2l-0.1-1.3
		c-0.3,0.4-0.6,0.7-1.1,1S96.8,134.5,96.1,134.5z M96.2,133.4c0.5,0,1-0.1,1.4-0.4s0.7-0.6,1-1.1c0.2-0.4,0.3-1,0.3-1.6
		s-0.1-1.1-0.3-1.6c-0.2-0.4-0.5-0.8-1-1.1s-0.9-0.4-1.4-0.4s-1,0.1-1.4,0.4c-0.4,0.2-0.7,0.6-1,1.1c-0.2,0.4-0.3,1-0.3,1.6
		s0.1,1.1,0.3,1.6c0.2,0.5,0.5,0.8,1,1.1C95.2,133.3,95.7,133.4,96.2,133.4z"/>
	<path class="st1" d="M105.2,134.5c-0.7,0-1.2-0.1-1.6-0.3s-0.8-0.5-1-0.9s-0.3-0.8-0.3-1.2c0-0.8,0.3-1.4,0.9-1.9s1.5-0.7,2.5-0.7
		h2.1v-0.1c0-0.7-0.2-1.2-0.5-1.6s-0.8-0.5-1.5-0.5c-0.5,0-1,0.1-1.3,0.4s-0.6,0.6-0.7,1.1h-1.4c0-0.6,0.2-1.1,0.6-1.5
		c0.3-0.4,0.8-0.7,1.3-0.9c0.5-0.2,1-0.3,1.6-0.3c1.1,0,1.9,0.3,2.5,0.9s0.8,1.4,0.8,2.4v4.9H108l-0.1-1.4c-0.2,0.4-0.6,0.8-1,1.1
		C106.5,134.4,105.9,134.5,105.2,134.5z M105.4,133.4c0.5,0,0.9-0.1,1.3-0.4c0.4-0.3,0.6-0.6,0.8-1c0.2-0.4,0.3-0.9,0.3-1.3l0,0h-2
		c-0.8,0-1.3,0.1-1.7,0.4s-0.5,0.6-0.5,1s0.2,0.8,0.5,1C104.4,133.3,104.8,133.4,105.4,133.4z"/>
	<path class="st1" d="M111.8,137.9l2-4.3h-0.5l-3.2-7.2h1.5l2.6,6.2l2.8-6.2h1.4l-5.2,11.5H111.8z"/>
	<path class="st1" d="M122.4,134.5c-0.9,0-1.7-0.2-2.4-0.7c-0.6-0.5-1-1.1-1.1-1.9h1.4c0.1,0.4,0.3,0.8,0.7,1.1
		c0.4,0.3,0.8,0.5,1.4,0.5s1-0.1,1.2-0.4s0.4-0.5,0.4-0.9c0-0.5-0.2-0.8-0.5-1c-0.4-0.2-0.8-0.3-1.5-0.4c-0.4-0.1-0.9-0.2-1.3-0.4
		s-0.8-0.4-1.1-0.7c-0.3-0.3-0.4-0.7-0.4-1.2c0-0.7,0.3-1.3,0.8-1.7s1.2-0.7,2.1-0.7c0.8,0,1.5,0.2,2.1,0.6c0.5,0.4,0.9,1,0.9,1.8
		h-1.3c-0.1-0.4-0.2-0.7-0.5-0.9c-0.3-0.2-0.7-0.3-1.2-0.3s-0.9,0.1-1.1,0.3s-0.4,0.5-0.4,0.8s0.2,0.6,0.5,0.8s0.8,0.3,1.4,0.5
		c0.5,0.1,1,0.2,1.4,0.4c0.4,0.1,0.8,0.4,1.1,0.7s0.4,0.7,0.4,1.3c0,0.7-0.3,1.3-0.8,1.8C124.1,134.3,123.4,134.5,122.4,134.5z"/>
	<path class="st1" d="M126.8,136.7v-0.1c1-1,1.8-2.1,2.4-3.4c0.6-1.3,0.9-2.7,0.9-4.1s-0.3-2.9-0.9-4.2c-0.6-1.3-1.4-2.4-2.3-3.4
		v-0.1h1.4c0.6,0.6,1.1,1.2,1.6,2s0.9,1.6,1.2,2.6c0.3,0.9,0.4,2,0.4,3.1s-0.2,2.1-0.4,3.1c-0.3,1-0.7,1.8-1.2,2.6s-1,1.4-1.6,2
		L126.8,136.7L126.8,136.7z"/>
	<path class="st1" d="M133.7,134.4c-0.3,0-0.5-0.1-0.7-0.3s-0.3-0.4-0.3-0.6s0.1-0.5,0.3-0.6c0.2-0.2,0.4-0.3,0.7-0.3
		s0.5,0.1,0.7,0.3s0.3,0.4,0.3,0.6s-0.1,0.5-0.3,0.6C134.2,134.3,134,134.4,133.7,134.4z"/>
	<path class="st1" d="M25.9,156.4v-11.2h3.9c0.8,0,1.4,0.1,2,0.4c0.5,0.2,0.9,0.6,1.2,1s0.4,0.9,0.4,1.5c0,0.7-0.2,1.3-0.6,1.7
		s-0.9,0.7-1.4,0.9c0.4,0.1,0.8,0.2,1.1,0.5s0.6,0.6,0.8,1s0.3,0.8,0.3,1.3c0,0.6-0.1,1.1-0.4,1.5c-0.3,0.5-0.7,0.8-1.2,1.1
		c-0.5,0.3-1.2,0.4-2,0.4L25.9,156.4L25.9,156.4z M27.2,150.1h2.5c0.7,0,1.3-0.2,1.6-0.5c0.4-0.3,0.6-0.8,0.6-1.4
		c0-0.6-0.2-1-0.6-1.4s-1-0.5-1.7-0.5h-2.5L27.2,150.1L27.2,150.1z M27.2,155.2h2.6c0.8,0,1.4-0.2,1.8-0.5c0.4-0.4,0.6-0.9,0.6-1.5
		s-0.2-1.1-0.7-1.5s-1-0.6-1.8-0.6h-2.5C27.2,151.1,27.2,155.2,27.2,155.2z"/>
	<path class="st1" d="M39,156.5c-0.8,0-1.4-0.2-2-0.5s-1-0.8-1.4-1.5c-0.3-0.6-0.5-1.3-0.5-2.2c0-0.8,0.2-1.6,0.5-2.2
		c0.3-0.6,0.8-1.1,1.4-1.5s1.3-0.5,2.1-0.5s1.4,0.2,2,0.5c0.6,0.4,1,0.8,1.3,1.4s0.5,1.2,0.5,1.8c0,0.1,0,0.2,0,0.4
		c0,0.1,0,0.2,0,0.4h-6.3c0,0.6,0.2,1.1,0.4,1.5s0.6,0.7,0.9,0.9c0.4,0.2,0.8,0.3,1.2,0.3c0.5,0,1-0.1,1.4-0.4
		c0.4-0.3,0.7-0.6,0.8-1h1.3c-0.2,0.7-0.6,1.3-1.2,1.8C40.7,156.3,39.9,156.5,39,156.5z M39,149.4c-0.6,0-1.2,0.2-1.7,0.6
		c-0.5,0.4-0.8,1-0.9,1.7h5c0-0.7-0.3-1.3-0.7-1.7C40.2,149.6,39.7,149.4,39,149.4z"/>
	<path class="st1" d="M45.3,146.7c-0.3,0-0.5-0.1-0.7-0.3s-0.3-0.4-0.3-0.7s0.1-0.5,0.3-0.6c0.2-0.2,0.4-0.3,0.7-0.3
		s0.5,0.1,0.7,0.3s0.3,0.4,0.3,0.6c0,0.3-0.1,0.5-0.3,0.7S45.6,146.7,45.3,146.7z M44.7,156.4v-7.9H46v7.9H44.7z"/>
	<path class="st1" d="M48.4,156.4v-7.9h1.2l0.1,1.4c0.3-0.5,0.6-0.9,1.1-1.2s1-0.4,1.6-0.4c0.9,0,1.7,0.3,2.2,0.9
		c0.6,0.6,0.8,1.5,0.8,2.6v4.6h-1.3v-4.5c0-1.6-0.7-2.5-2-2.5c-0.7,0-1.2,0.2-1.7,0.7c-0.4,0.5-0.7,1.2-0.7,2.1v4.1L48.4,156.4
		L48.4,156.4z"/>
	<path class="st1" d="M60.6,153.9c-0.4,0-0.9-0.1-1.2-0.2l-0.8,0.8c0.1,0.1,0.3,0.2,0.4,0.2s0.4,0.1,0.8,0.2c0.3,0,0.8,0.1,1.4,0.1
		c1.1,0.1,1.8,0.3,2.3,0.7s0.7,1,0.7,1.6c0,0.5-0.1,0.9-0.4,1.3c-0.2,0.4-0.6,0.8-1.2,1c-0.5,0.3-1.2,0.4-2,0.4
		c-0.7,0-1.4-0.1-1.9-0.3c-0.6-0.2-1-0.5-1.3-0.9s-0.5-0.9-0.5-1.4c0-0.3,0.1-0.6,0.2-1c0.2-0.4,0.5-0.7,0.9-1
		c-0.2-0.1-0.4-0.2-0.6-0.3c-0.2-0.1-0.3-0.2-0.5-0.4v-0.4l1.4-1.3c-0.6-0.5-0.9-1.2-0.9-2.1c0-0.5,0.1-1,0.4-1.4
		c0.2-0.4,0.6-0.8,1.1-1s1-0.4,1.7-0.4c0.5,0,0.9,0.1,1.2,0.2h2.9v1l-1.5,0.1c0.3,0.5,0.5,1,0.5,1.6c0,0.5-0.1,1-0.4,1.4
		c-0.2,0.4-0.6,0.8-1.1,1C61.9,153.7,61.3,153.9,60.6,153.9z M58.3,157.4c0,0.5,0.2,0.9,0.7,1.2c0.4,0.3,1,0.4,1.7,0.4
		s1.2-0.1,1.6-0.4c0.4-0.3,0.6-0.7,0.6-1.2c0-0.3-0.1-0.6-0.4-0.9s-0.8-0.4-1.5-0.4c-0.6,0-1.1-0.1-1.5-0.2
		c-0.4,0.2-0.7,0.5-0.9,0.8C58.4,156.9,58.3,157.2,58.3,157.4z M60.6,152.8c0.6,0,1-0.2,1.3-0.4c0.3-0.3,0.5-0.7,0.5-1.3
		c0-0.5-0.2-1-0.5-1.3s-0.8-0.4-1.3-0.4c-0.6,0-1,0.1-1.4,0.4c-0.3,0.3-0.5,0.7-0.5,1.3s0.2,1,0.5,1.3
		C59.6,152.6,60.1,152.8,60.6,152.8z"/>
	<path class="st1" d="M70.6,156.4v-7.9h1.2l0.1,1.2c0.3-0.4,0.6-0.8,1-1s0.9-0.3,1.4-0.3c0.6,0,1.2,0.1,1.6,0.4
		c0.4,0.2,0.8,0.7,1,1.2c0.3-0.5,0.7-0.9,1.1-1.1c0.5-0.3,1-0.4,1.6-0.4c1,0,1.7,0.3,2.3,0.9c0.6,0.6,0.8,1.5,0.8,2.6v4.6h-1.3v-4.5
		c0-0.8-0.2-1.4-0.5-1.9c-0.3-0.4-0.8-0.6-1.4-0.6s-1.2,0.2-1.6,0.7s-0.6,1.2-0.6,2.1v4.1H76V152c0-0.8-0.2-1.4-0.5-1.9
		c-0.3-0.4-0.8-0.6-1.4-0.6s-1.2,0.2-1.6,0.7s-0.6,1.2-0.6,2.1v4.1L70.6,156.4L70.6,156.4z"/>
	<path class="st1" d="M88.5,156.5c-0.8,0-1.4-0.2-2-0.5s-1.1-0.8-1.4-1.5s-0.5-1.4-0.5-2.2s0.2-1.6,0.5-2.2c0.3-0.6,0.8-1.1,1.4-1.5
		c0.6-0.3,1.3-0.5,2-0.5c0.8,0,1.4,0.2,2,0.5s1.1,0.8,1.4,1.5s0.5,1.4,0.5,2.2s-0.2,1.6-0.5,2.2s-0.8,1.1-1.4,1.5
		S89.3,156.5,88.5,156.5z M88.5,155.4c0.5,0,0.9-0.1,1.3-0.3s0.7-0.6,1-1c0.2-0.4,0.4-1,0.4-1.7s-0.1-1.2-0.4-1.7
		c-0.2-0.5-0.6-0.8-1-1s-0.8-0.3-1.3-0.3s-0.9,0.1-1.3,0.3s-0.7,0.6-1,1c-0.2,0.4-0.4,1-0.4,1.7s0.1,1.2,0.4,1.7
		c0.2,0.5,0.6,0.8,1,1S88.1,155.4,88.5,155.4z"/>
	<path class="st1" d="M94.4,156.4v-7.9h1.2l0.1,1.5c0.2-0.5,0.6-0.9,1.1-1.2s1.1-0.5,1.9-0.5v1.4h-0.4c-0.5,0-0.9,0.1-1.3,0.2
		c-0.4,0.2-0.7,0.5-0.9,0.8c-0.2,0.4-0.3,0.9-0.3,1.6v4L94.4,156.4L94.4,156.4z"/>
	<path class="st1" d="M103.4,156.5c-0.8,0-1.4-0.2-2-0.5c-0.6-0.4-1-0.8-1.4-1.5c-0.3-0.6-0.5-1.3-0.5-2.2c0-0.8,0.2-1.6,0.5-2.2
		s0.8-1.1,1.4-1.5s1.3-0.5,2.1-0.5c0.8,0,1.4,0.2,2,0.5s1,0.8,1.3,1.4s0.4,1.2,0.4,1.8c0,0.1,0,0.2,0,0.4c0,0.1,0,0.2,0,0.4h-6.3
		c0,0.6,0.2,1.1,0.4,1.5c0.2,0.4,0.6,0.7,0.9,0.9c0.4,0.2,0.8,0.3,1.2,0.3c0.5,0,1-0.1,1.4-0.4s0.7-0.6,0.8-1h1.3
		c-0.2,0.7-0.6,1.3-1.2,1.8C105.1,156.3,104.4,156.5,103.4,156.5z M103.4,149.4c-0.6,0-1.2,0.2-1.7,0.6c-0.5,0.4-0.8,1-0.9,1.7h5
		c0-0.7-0.3-1.3-0.7-1.7C104.7,149.6,104.1,149.4,103.4,149.4z"/>
	<path class="st1" d="M115.9,156.5c-0.7,0-1.2-0.1-1.6-0.3s-0.8-0.5-1-0.9s-0.3-0.8-0.3-1.2c0-0.8,0.3-1.4,0.9-1.9
		c0.6-0.4,1.5-0.7,2.5-0.7h2.1v-0.1c0-0.7-0.2-1.2-0.5-1.6c-0.4-0.4-0.9-0.5-1.5-0.5c-0.5,0-1,0.1-1.3,0.4c-0.4,0.3-0.6,0.6-0.7,1.1
		h-1.4c0-0.6,0.2-1.1,0.6-1.5c0.3-0.4,0.8-0.7,1.3-0.9s1-0.3,1.6-0.3c1.1,0,1.9,0.3,2.5,0.9c0.6,0.6,0.8,1.4,0.8,2.4v4.9h-1.2
		l-0.1-1.4c-0.2,0.4-0.6,0.8-1,1.1C117.2,156.4,116.6,156.5,115.9,156.5z M116.1,155.4c0.5,0,0.9-0.1,1.3-0.4c0.4-0.3,0.7-0.6,0.8-1
		c0.2-0.4,0.3-0.9,0.3-1.3l0,0h-2c-0.8,0-1.4,0.1-1.7,0.4c-0.3,0.3-0.5,0.6-0.5,1s0.1,0.8,0.5,1
		C115.1,155.3,115.5,155.4,116.1,155.4z"/>
	<path class="st1" d="M125.5,156.5c-0.8,0-1.4-0.2-2-0.5c-0.6-0.4-1.1-0.8-1.4-1.5c-0.3-0.6-0.5-1.4-0.5-2.2s0.2-1.6,0.5-2.2
		c0.4-0.6,0.8-1.1,1.4-1.5s1.3-0.5,2-0.5c0.9,0,1.7,0.2,2.4,0.7c0.6,0.5,1,1.1,1.2,2h-1.4c-0.1-0.5-0.4-0.9-0.8-1.1
		c-0.4-0.3-0.9-0.4-1.5-0.4c-0.4,0-0.9,0.1-1.3,0.3s-0.7,0.6-1,1c-0.2,0.5-0.4,1-0.4,1.7s0.1,1.2,0.4,1.7c0.2,0.5,0.6,0.8,1,1
		s0.8,0.3,1.3,0.3c0.6,0,1-0.1,1.5-0.4c0.4-0.3,0.7-0.7,0.8-1.2h1.4c-0.2,0.8-0.6,1.4-1.2,1.9C127.3,156.3,126.5,156.5,125.5,156.5z
		"/>
	<path class="st1" d="M133.9,156.4c-0.7,0-1.3-0.2-1.7-0.5s-0.6-1-0.6-1.9v-4.4h-1.4v-1.1h1.4l0.2-1.9h1.2v1.9h2.3v1.1H133v4.4
		c0,0.5,0.1,0.8,0.3,1s0.6,0.3,1.1,0.3h0.8v1.1L133.9,156.4L133.9,156.4z"/>
	<path class="st1" d="M137.8,146.7c-0.3,0-0.5-0.1-0.7-0.3s-0.3-0.4-0.3-0.7s0.1-0.5,0.3-0.6c0.2-0.2,0.4-0.3,0.7-0.3
		s0.5,0.1,0.7,0.3s0.3,0.4,0.3,0.6c0,0.3-0.1,0.5-0.3,0.7S138,146.7,137.8,146.7z M137.1,156.4v-7.9h1.3v7.9H137.1z"/>
	<path class="st1" d="M143.1,156.4l-3-7.9h1.4l2.4,6.6l2.4-6.6h1.4l-3,7.9H143.1z"/>
	<path class="st1" d="M152.3,156.5c-0.8,0-1.4-0.2-2-0.5s-1.1-0.8-1.4-1.5c-0.3-0.6-0.5-1.3-0.5-2.2c0-0.8,0.2-1.6,0.5-2.2
		s0.8-1.1,1.4-1.5s1.3-0.5,2.1-0.5s1.4,0.2,2,0.5c0.6,0.4,1,0.8,1.3,1.4s0.4,1.2,0.4,1.8c0,0.1,0,0.2,0,0.4c0,0.1,0,0.2,0,0.4h-6.3
		c0,0.6,0.2,1.1,0.4,1.5s0.6,0.7,0.9,0.9c0.4,0.2,0.8,0.3,1.2,0.3c0.5,0,1-0.1,1.4-0.4c0.4-0.2,0.6-0.6,0.8-1h1.3
		c-0.2,0.7-0.6,1.3-1.2,1.8C154,156.3,153.2,156.5,152.3,156.5z M152.3,149.4c-0.6,0-1.2,0.2-1.7,0.6c-0.5,0.4-0.8,1-0.9,1.7h5
		c0-0.7-0.3-1.3-0.7-1.7C153.5,149.6,153,149.4,152.3,149.4z"/>
	<path class="st1" d="M162.9,146.7c-0.3,0-0.5-0.1-0.7-0.3s-0.3-0.4-0.3-0.7s0.1-0.5,0.3-0.6c0.2-0.2,0.4-0.3,0.7-0.3
		s0.5,0.1,0.7,0.3s0.3,0.4,0.3,0.6c0,0.3-0.1,0.5-0.3,0.7S163.1,146.7,162.9,146.7z M162.2,156.4v-7.9h1.3v7.9H162.2z"/>
	<path class="st1" d="M165.9,156.4v-7.9h1.2l0.1,1.4c0.3-0.5,0.6-0.9,1.1-1.2s1-0.4,1.6-0.4c0.9,0,1.7,0.3,2.2,0.9s0.8,1.5,0.8,2.6
		v4.6h-1.3v-4.5c0-1.6-0.7-2.5-2.1-2.5c-0.7,0-1.2,0.2-1.7,0.7c-0.4,0.5-0.7,1.2-0.7,2.1v4.1L165.9,156.4L165.9,156.4z"/>
	<path class="st1" d="M26.7,181.9l2-4.3h-0.5l-3.2-7.2h1.5l2.6,6.2l2.8-6.2h1.4l-5.2,11.5H26.7z"/>
	<path class="st1" d="M37.6,178.5c-0.8,0-1.4-0.2-2-0.5s-1.1-0.8-1.4-1.5c-0.3-0.6-0.5-1.4-0.5-2.2s0.2-1.6,0.5-2.2s0.8-1.1,1.4-1.5
		c0.6-0.3,1.3-0.5,2-0.5c0.8,0,1.4,0.2,2,0.5s1.1,0.8,1.4,1.5s0.5,1.4,0.5,2.2s-0.2,1.6-0.5,2.2c-0.4,0.6-0.8,1.1-1.4,1.5
		C39,178.4,38.3,178.5,37.6,178.5z M37.6,177.4c0.5,0,0.9-0.1,1.3-0.3c0.4-0.2,0.7-0.6,1-1c0.2-0.4,0.4-1,0.4-1.7s-0.1-1.2-0.4-1.7
		c-0.2-0.5-0.6-0.8-1-1s-0.8-0.3-1.3-0.3s-0.9,0.1-1.3,0.3c-0.4,0.2-0.7,0.6-1,1c-0.2,0.4-0.4,1-0.4,1.7s0.1,1.2,0.4,1.7
		c0.2,0.5,0.6,0.8,1,1S37.1,177.4,37.6,177.4z"/>
	<path class="st1" d="M46.3,178.5c-0.9,0-1.7-0.3-2.2-0.9c-0.5-0.6-0.8-1.5-0.8-2.6v-4.6h1.3v4.5c0,1.6,0.7,2.5,2,2.5
		c0.7,0,1.3-0.2,1.7-0.7s0.7-1.2,0.7-2.1v-4.1h1.3v7.9h-1.2l-0.1-1.5c-0.2,0.5-0.6,0.9-1.1,1.2C47.5,178.4,46.9,178.5,46.3,178.5z"
		/>
	<path class="st1" d="M52.6,178.4v-7.9h1.2l0.1,1.5c0.2-0.5,0.6-0.9,1.1-1.2s1.1-0.5,1.9-0.5v1.4h-0.4c-0.5,0-0.9,0.1-1.3,0.2
		c-0.4,0.2-0.7,0.5-0.9,0.8c-0.2,0.4-0.4,0.9-0.4,1.6v4L52.6,178.4L52.6,178.4z"/>
	<path class="st1" d="M66.2,178.5c-0.8,0-1.5-0.2-2.1-0.5c-0.6-0.4-1-0.9-1.4-1.5s-0.5-1.3-0.5-2.1s0.2-1.5,0.5-2.1s0.8-1.1,1.4-1.5
		s1.3-0.5,2.1-0.5c0.6,0,1.2,0.1,1.7,0.4c0.5,0.3,0.9,0.6,1.2,1.1v-4.9h1.3v11.5h-1.2l-0.1-1.3c-0.3,0.4-0.6,0.7-1.1,1
		S66.9,178.5,66.2,178.5z M66.4,177.4c0.5,0,1-0.1,1.4-0.4c0.4-0.2,0.7-0.6,1-1.1c0.2-0.4,0.3-1,0.3-1.6s-0.1-1.1-0.3-1.6
		c-0.2-0.5-0.5-0.8-1-1.1c-0.4-0.2-0.9-0.4-1.4-0.4s-1,0.1-1.4,0.4c-0.4,0.2-0.7,0.6-1,1.1c-0.2,0.4-0.3,1-0.3,1.6s0.1,1.1,0.3,1.6
		c0.2,0.5,0.6,0.8,1,1.1C65.4,177.3,65.8,177.4,66.4,177.4z"/>
	<path class="st1" d="M75.3,178.5c-0.7,0-1.2-0.1-1.7-0.3c-0.4-0.2-0.8-0.5-1-0.9s-0.3-0.8-0.3-1.2c0-0.8,0.3-1.4,0.9-1.9
		c0.6-0.4,1.5-0.7,2.5-0.7h2.1v-0.1c0-0.7-0.2-1.2-0.5-1.6c-0.4-0.4-0.9-0.5-1.5-0.5c-0.5,0-1,0.1-1.4,0.4c-0.4,0.3-0.6,0.6-0.7,1.1
		h-1.4c0-0.6,0.2-1.1,0.6-1.5c0.3-0.4,0.8-0.7,1.3-0.9s1-0.3,1.6-0.3c1.1,0,1.9,0.3,2.5,0.9c0.6,0.6,0.8,1.4,0.8,2.4v4.9h-1.2
		l0.1-1.4c-0.2,0.4-0.6,0.8-1,1.1S76,178.5,75.3,178.5z M75.5,177.4c0.5,0,0.9-0.1,1.3-0.4c0.4-0.3,0.7-0.6,0.8-1
		c0.2-0.4,0.3-0.9,0.3-1.3l0,0h-2c-0.8,0-1.3,0.1-1.7,0.4s-0.5,0.6-0.5,1s0.1,0.8,0.5,1C74.5,177.3,74.9,177.4,75.5,177.4z"/>
	<path class="st1" d="M82.1,168.7c-0.3,0-0.5-0.1-0.7-0.3s-0.3-0.4-0.3-0.7s0.1-0.5,0.3-0.6c0.2-0.2,0.4-0.3,0.7-0.3
		c0.3,0,0.5,0.1,0.7,0.3s0.3,0.4,0.3,0.6c0,0.3-0.1,0.5-0.3,0.7C82.6,168.6,82.4,168.7,82.1,168.7z M81.5,178.4v-7.9h1.3v7.9H81.5z"
		/>
	<path class="st1" d="M85.1,178.4v-11.5h1.3v11.5H85.1z"/>
	<path class="st1" d="M89.6,181.9l2-4.3h-0.5l-3.2-7.2h1.5l2.6,6.2l2.8-6.2h1.4L91,181.9H89.6z"/>
	<path class="st1" d="M101.8,178.4v-11.5h1.3v11.5H101.8z"/>
	<path class="st1" d="M106.2,168.7c-0.3,0-0.5-0.1-0.7-0.3s-0.3-0.4-0.3-0.7s0.1-0.5,0.3-0.6c0.2-0.2,0.4-0.3,0.7-0.3
		c0.3,0,0.5,0.1,0.7,0.3s0.3,0.4,0.3,0.6c0,0.3-0.1,0.5-0.3,0.7C106.7,168.6,106.4,168.7,106.2,168.7z M105.5,178.4v-7.9h1.3v7.9
		H105.5z"/>
	<path class="st1" d="M109.6,178.4v-6.8h-1.2v-1.1h1.2v-1.4c0-0.8,0.2-1.3,0.6-1.7c0.4-0.3,0.9-0.5,1.7-0.5h0.8v1.2h-0.6
		c-0.4,0-0.7,0.1-0.9,0.2c-0.2,0.2-0.3,0.4-0.3,0.8v1.3h2v1.1h-2v6.8L109.6,178.4L109.6,178.4z"/>
	<path class="st1" d="M117.8,178.5c-0.8,0-1.4-0.2-2-0.5c-0.6-0.4-1-0.8-1.4-1.5c-0.3-0.6-0.5-1.3-0.5-2.2c0-0.8,0.2-1.6,0.5-2.2
		s0.8-1.1,1.4-1.5s1.3-0.5,2.1-0.5c0.8,0,1.4,0.2,2,0.5s1,0.8,1.3,1.4s0.4,1.2,0.4,1.8c0,0.1,0,0.2,0,0.4c0,0.1,0,0.2,0,0.4h-6.3
		c0,0.6,0.2,1.1,0.4,1.5c0.2,0.4,0.6,0.7,0.9,0.9c0.4,0.2,0.8,0.3,1.2,0.3c0.6,0,1-0.1,1.4-0.4c0.4-0.2,0.7-0.6,0.8-1h1.3
		c-0.2,0.7-0.6,1.3-1.2,1.8C119.5,178.3,118.7,178.5,117.8,178.5z M117.8,171.4c-0.6,0-1.2,0.2-1.7,0.6c-0.5,0.4-0.8,1-0.9,1.7h5
		c0-0.7-0.3-1.3-0.7-1.7C119,171.6,118.4,171.4,117.8,171.4z"/>
	<path class="st1" d="M131.2,178.5c-0.8,0-1.4-0.2-2-0.5c-0.6-0.4-1.1-0.8-1.4-1.5c-0.4-0.6-0.5-1.4-0.5-2.2s0.2-1.6,0.5-2.2
		c0.3-0.6,0.8-1.1,1.4-1.5c0.6-0.4,1.3-0.5,2-0.5c0.9,0,1.7,0.2,2.4,0.7c0.6,0.5,1.1,1.1,1.2,2h-1.4c-0.1-0.5-0.4-0.9-0.8-1.1
		c-0.4-0.3-0.9-0.4-1.5-0.4c-0.5,0-0.9,0.1-1.3,0.3c-0.4,0.2-0.7,0.6-1,1c-0.2,0.5-0.4,1-0.4,1.7s0.1,1.2,0.4,1.7s0.6,0.8,1,1
		s0.8,0.3,1.3,0.3s1-0.1,1.5-0.4c0.4-0.3,0.7-0.7,0.8-1.2h1.4c-0.2,0.8-0.6,1.4-1.2,1.9C132.9,178.3,132.1,178.5,131.2,178.5z"/>
	<path class="st1" d="M139.3,178.5c-0.7,0-1.2-0.1-1.6-0.3c-0.4-0.2-0.8-0.5-1-0.9s-0.3-0.8-0.3-1.2c0-0.8,0.3-1.4,0.9-1.9
		c0.6-0.4,1.5-0.7,2.5-0.7h2.1v-0.1c0-0.7-0.2-1.2-0.5-1.6c-0.4-0.4-0.8-0.5-1.5-0.5c-0.5,0-1,0.1-1.4,0.4c-0.4,0.3-0.6,0.6-0.7,1.1
		h-1.4c0.1-0.6,0.2-1.1,0.6-1.5c0.3-0.4,0.8-0.7,1.3-0.9s1-0.3,1.6-0.3c1.1,0,1.9,0.3,2.5,0.9s0.8,1.4,0.8,2.4v4.9H142l0-1.4
		c-0.2,0.4-0.6,0.8-1,1.1C140.6,178.4,140,178.5,139.3,178.5z M139.5,177.4c0.5,0,0.9-0.1,1.3-0.4c0.4-0.3,0.7-0.6,0.8-1
		c0.2-0.4,0.3-0.9,0.3-1.3l0,0h-2c-0.8,0-1.4,0.1-1.7,0.4c-0.3,0.3-0.5,0.6-0.5,1s0.2,0.8,0.5,1C138.5,177.3,139,177.4,139.5,177.4z
		"/>
	<path class="st1" d="M145.3,178.4v-7.9h1.2l0.1,1.4c0.3-0.5,0.6-0.9,1.1-1.2s1-0.4,1.6-0.4c0.9,0,1.7,0.3,2.2,0.9s0.8,1.5,0.8,2.6
		v4.6H151v-4.5c0-1.6-0.7-2.5-2.1-2.5c-0.7,0-1.2,0.2-1.7,0.7c-0.4,0.5-0.7,1.2-0.7,2.1v4.1L145.3,178.4L145.3,178.4z"/>
	<path class="st1" d="M158.7,178.4v-7.9h1.2l0.1,1.2c0.3-0.4,0.6-0.8,1-1s0.9-0.3,1.4-0.3c0.6,0,1.2,0.1,1.6,0.4
		c0.5,0.2,0.8,0.7,1.1,1.2c0.3-0.5,0.7-0.9,1.1-1.1c0.5-0.3,1-0.4,1.6-0.4c0.9,0,1.7,0.3,2.3,0.9c0.6,0.6,0.8,1.5,0.8,2.6v4.6h-1.3
		v-4.5c0-0.8-0.2-1.4-0.5-1.9c-0.3-0.4-0.8-0.6-1.4-0.6c-0.6,0-1.2,0.2-1.6,0.7c-0.4,0.5-0.6,1.2-0.6,2.1v4.1h-1.3V174
		c0-0.8-0.2-1.4-0.5-1.9c-0.3-0.4-0.8-0.6-1.4-0.6c-0.6,0-1.1,0.2-1.6,0.7c-0.4,0.5-0.6,1.2-0.6,2.1v4.1L158.7,178.4L158.7,178.4z"
		/>
	<path class="st1" d="M175.7,178.5c-0.7,0-1.2-0.1-1.7-0.3c-0.4-0.2-0.8-0.5-1-0.9s-0.3-0.8-0.3-1.2c0-0.8,0.3-1.4,0.9-1.9
		s1.5-0.7,2.5-0.7h2.1v-0.1c0-0.7-0.2-1.2-0.5-1.6c-0.4-0.4-0.9-0.5-1.5-0.5c-0.5,0-1,0.1-1.4,0.4c-0.4,0.3-0.6,0.6-0.7,1.1h-1.4
		c0.1-0.6,0.2-1.1,0.6-1.5c0.3-0.4,0.8-0.7,1.3-0.9s1-0.3,1.6-0.3c1.1,0,1.9,0.3,2.5,0.9s0.8,1.4,0.8,2.4v4.9h-1.2l-0.1-1.4
		c-0.2,0.4-0.6,0.8-1,1.1C177,178.4,176.4,178.5,175.7,178.5z M175.9,177.4c0.5,0,0.9-0.1,1.3-0.4c0.4-0.3,0.6-0.6,0.8-1
		s0.3-0.9,0.3-1.3l0,0h-2c-0.8,0-1.3,0.1-1.7,0.4c-0.3,0.3-0.5,0.6-0.5,1s0.1,0.8,0.5,1C174.9,177.3,175.3,177.4,175.9,177.4z"/>
	<path class="st1" d="M181.7,178.4v-11.5h1.3v6.9l3.2-3.3h1.6l-3.5,3.6l4,4.3h-1.7l-3.6-4.1v4.1H181.7z"/>
	<path class="st1" d="M192.7,178.5c-0.8,0-1.4-0.2-2-0.5c-0.6-0.4-1-0.8-1.4-1.5c-0.3-0.6-0.5-1.3-0.5-2.2c0-0.8,0.2-1.6,0.5-2.2
		s0.8-1.1,1.4-1.5c0.6-0.4,1.3-0.5,2.1-0.5s1.4,0.2,2,0.5s1,0.8,1.3,1.4c0.3,0.6,0.4,1.2,0.4,1.8c0,0.1,0,0.2,0,0.4
		c0,0.1,0,0.2,0,0.4h-6.3c0,0.6,0.2,1.1,0.4,1.5s0.6,0.7,0.9,0.9c0.4,0.2,0.8,0.3,1.2,0.3c0.6,0,1-0.1,1.4-0.4
		c0.4-0.3,0.7-0.6,0.8-1h1.3c-0.2,0.7-0.6,1.3-1.2,1.8C194.5,178.3,193.7,178.5,192.7,178.5z M192.7,171.4c-0.6,0-1.2,0.2-1.7,0.6
		c-0.5,0.4-0.8,1-0.9,1.7h5c0-0.7-0.3-1.3-0.7-1.7C194,171.6,193.4,171.4,192.7,171.4z"/>
	<path class="st1" d="M28.4,200.5c-0.7,0-1.2-0.1-1.7-0.3c-0.4-0.2-0.8-0.5-1-0.9s-0.3-0.8-0.3-1.2c0-0.8,0.3-1.4,0.9-1.9
		c0.6-0.4,1.5-0.7,2.5-0.7h2.1v-0.1c0-0.7-0.2-1.2-0.5-1.6c-0.4-0.4-0.8-0.5-1.5-0.5c-0.5,0-1,0.1-1.3,0.4c-0.4,0.3-0.6,0.6-0.7,1.1
		h-1.4c0-0.6,0.2-1.1,0.6-1.5c0.3-0.4,0.8-0.7,1.3-0.9s1-0.3,1.6-0.3c1.1,0,1.9,0.3,2.5,0.9c0.6,0.6,0.8,1.4,0.8,2.4v4.9h-1.2
		l-0.1-1.4c-0.2,0.4-0.5,0.8-1,1.1C29.7,200.4,29.2,200.5,28.4,200.5z M28.6,199.4c0.5,0,1-0.1,1.3-0.4c0.4-0.3,0.7-0.6,0.8-1
		c0.2-0.4,0.3-0.9,0.3-1.3l0,0h-2c-0.8,0-1.4,0.1-1.7,0.4s-0.5,0.6-0.5,1s0.1,0.8,0.5,1C27.7,199.3,28.1,199.4,28.6,199.4z"/>
	<path class="st1" d="M42.3,200.5c-0.8,0-1.5-0.2-2.1-0.5c-0.6-0.4-1-0.9-1.4-1.5c-0.3-0.6-0.5-1.3-0.5-2.1s0.2-1.5,0.5-2.1
		s0.8-1.1,1.4-1.5c0.6-0.4,1.3-0.5,2.1-0.5c0.6,0,1.2,0.1,1.7,0.4c0.5,0.3,0.9,0.6,1.2,1.1v-4.9h1.3v11.5h-1.2l-0.1-1.3
		c-0.3,0.4-0.6,0.7-1.1,1C43.6,200.4,43,200.5,42.3,200.5z M42.4,199.4c0.5,0,1-0.1,1.4-0.4c0.4-0.2,0.7-0.6,1-1.1
		c0.2-0.4,0.3-1,0.3-1.6s-0.1-1.1-0.3-1.6s-0.5-0.8-1-1.1c-0.4-0.2-0.9-0.4-1.4-0.4s-1,0.1-1.4,0.4s-0.7,0.6-1,1.1
		c-0.2,0.4-0.3,1-0.3,1.6s0.1,1.1,0.3,1.6s0.5,0.8,1,1.1S41.9,199.4,42.4,199.4z"/>
	<path class="st1" d="M49.6,190.7c-0.3,0-0.5-0.1-0.7-0.3s-0.3-0.4-0.3-0.7s0.1-0.5,0.3-0.6c0.2-0.2,0.4-0.3,0.7-0.3
		s0.5,0.1,0.7,0.3s0.3,0.4,0.3,0.6c0,0.3-0.1,0.5-0.3,0.7C50,190.6,49.8,190.7,49.6,190.7z M48.9,200.4v-7.9h1.3v7.9H48.9z"/>
	<path class="st1" d="M53,200.4v-6.8h-1.2v-1.1H53v-1.4c0-0.8,0.2-1.3,0.6-1.7c0.4-0.3,0.9-0.5,1.7-0.5h0.8v1.2h-0.6
		c-0.4,0-0.7,0.1-0.9,0.2c-0.2,0.2-0.3,0.4-0.3,0.8v1.3h2v1.1h-2v6.8L53,200.4L53,200.4z"/>
	<path class="st1" d="M58.3,200.4v-6.8h-1.2v-1.1h1.2v-1.4c0-0.8,0.2-1.3,0.6-1.7c0.4-0.3,0.9-0.5,1.7-0.5h0.8v1.2h-0.6
		c-0.4,0-0.7,0.1-0.9,0.2c-0.2,0.2-0.3,0.4-0.3,0.8v1.3h2v1.1h-2v6.8L58.3,200.4L58.3,200.4z"/>
	<path class="st1" d="M66.5,200.5c-0.8,0-1.4-0.2-2-0.5c-0.6-0.4-1.1-0.8-1.4-1.5c-0.3-0.6-0.5-1.3-0.5-2.2c0-0.8,0.2-1.6,0.5-2.2
		s0.8-1.1,1.4-1.5s1.3-0.5,2.1-0.5c0.8,0,1.4,0.2,2,0.5c0.6,0.4,1,0.8,1.3,1.4s0.4,1.2,0.4,1.8c0,0.1,0,0.2,0,0.4c0,0.1,0,0.2,0,0.4
		H64c0,0.6,0.2,1.1,0.4,1.5c0.2,0.4,0.6,0.7,0.9,0.9c0.4,0.2,0.8,0.3,1.2,0.3c0.6,0,1-0.1,1.4-0.4c0.4-0.3,0.6-0.6,0.8-1H70
		c-0.2,0.7-0.6,1.3-1.2,1.8C68.2,200.3,67.4,200.5,66.5,200.5z M66.5,193.4c-0.6,0-1.2,0.2-1.7,0.6c-0.5,0.4-0.8,1-0.9,1.7h5
		c0-0.7-0.3-1.3-0.7-1.7C67.7,193.6,67.1,193.4,66.5,193.4z"/>
	<path class="st1" d="M72,200.4v-7.9h1.2l0.1,1.5c0.2-0.5,0.6-0.9,1.1-1.2s1.1-0.5,1.9-0.5v1.4h-0.4c-0.5,0-0.9,0.1-1.3,0.2
		c-0.4,0.2-0.7,0.5-0.9,0.8c-0.2,0.4-0.4,0.9-0.4,1.6v4L72,200.4L72,200.4z"/>
	<path class="st1" d="M81.1,200.5c-0.8,0-1.4-0.2-2-0.5c-0.6-0.4-1-0.8-1.4-1.5c-0.3-0.6-0.5-1.3-0.5-2.2c0-0.8,0.2-1.6,0.5-2.2
		s0.8-1.1,1.4-1.5s1.3-0.5,2.1-0.5c0.8,0,1.4,0.2,2,0.5s1,0.8,1.3,1.4s0.4,1.2,0.4,1.8c0,0.1,0,0.2,0,0.4c0,0.1,0,0.2,0,0.4h-6.3
		c0,0.6,0.2,1.1,0.4,1.5c0.2,0.4,0.6,0.7,0.9,0.9c0.4,0.2,0.8,0.3,1.2,0.3c0.6,0,1-0.1,1.4-0.4c0.4-0.3,0.6-0.6,0.8-1h1.3
		c-0.2,0.7-0.6,1.3-1.2,1.8C82.8,200.3,82,200.5,81.1,200.5z M81.1,193.4c-0.6,0-1.2,0.2-1.7,0.6c-0.5,0.4-0.8,1-0.9,1.7h5
		c0-0.7-0.3-1.3-0.7-1.7C82.3,193.6,81.7,193.4,81.1,193.4z"/>
	<path class="st1" d="M86.6,200.4v-7.9h1.2l0.1,1.4c0.3-0.5,0.6-0.9,1.1-1.2s1-0.4,1.6-0.4c0.9,0,1.7,0.3,2.2,0.9
		c0.6,0.6,0.8,1.5,0.8,2.6v4.6h-1.3v-4.5c0-1.6-0.7-2.5-2-2.5c-0.7,0-1.2,0.2-1.7,0.7c-0.4,0.5-0.7,1.2-0.7,2.1v4.1L86.6,200.4
		L86.6,200.4z"/>
	<path class="st1" d="M99.4,200.5c-0.8,0-1.4-0.2-2-0.5s-1.1-0.8-1.4-1.5c-0.3-0.6-0.5-1.4-0.5-2.2s0.2-1.6,0.5-2.2
		c0.3-0.6,0.8-1.1,1.4-1.5s1.3-0.5,2-0.5c0.9,0,1.7,0.2,2.4,0.7s1.1,1.1,1.2,2h-1.4c-0.1-0.5-0.4-0.9-0.8-1.1
		c-0.4-0.3-0.9-0.4-1.5-0.4c-0.5,0-0.9,0.1-1.3,0.3s-0.7,0.6-1,1c-0.2,0.5-0.4,1-0.4,1.7s0.1,1.2,0.4,1.7c0.2,0.5,0.6,0.8,1,1
		s0.8,0.3,1.3,0.3s1-0.1,1.5-0.4c0.4-0.3,0.7-0.7,0.8-1.2h1.4c-0.2,0.8-0.6,1.4-1.2,1.9C101.1,200.3,100.3,200.5,99.4,200.5z"/>
	<path class="st1" d="M108.4,200.5c-0.8,0-1.4-0.2-2-0.5c-0.6-0.4-1-0.8-1.4-1.5c-0.3-0.6-0.5-1.3-0.5-2.2c0-0.8,0.2-1.6,0.5-2.2
		s0.8-1.1,1.4-1.5s1.3-0.5,2.1-0.5c0.8,0,1.4,0.2,2,0.5c0.6,0.4,1,0.8,1.3,1.4s0.4,1.2,0.4,1.8c0,0.1,0,0.2,0,0.4c0,0.1,0,0.2,0,0.4
		h-6.3c0,0.6,0.2,1.1,0.4,1.5c0.2,0.4,0.6,0.7,0.9,0.9c0.4,0.2,0.8,0.3,1.2,0.3c0.6,0,1-0.1,1.4-0.4c0.4-0.2,0.7-0.6,0.8-1h1.3
		c-0.2,0.7-0.6,1.3-1.2,1.8C110.2,200.3,109.4,200.5,108.4,200.5z M108.4,193.4c-0.6,0-1.2,0.2-1.7,0.6c-0.5,0.4-0.8,1-0.9,1.7h5
		c0-0.7-0.3-1.3-0.7-1.7C109.7,193.6,109.1,193.4,108.4,193.4z"/>
	<path class="st1" d="M121.4,200.4c-0.7,0-1.3-0.2-1.7-0.5c-0.4-0.3-0.6-1-0.6-1.9v-4.4h-1.4v-1.1h1.4l0.2-1.9h1.2v1.9h2.3v1.1h-2.3
		v4.4c0,0.5,0.1,0.8,0.3,1c0.2,0.2,0.6,0.3,1.1,0.3h0.8v1.1L121.4,200.4L121.4,200.4z"/>
	<path class="st1" d="M127.8,200.5c-0.8,0-1.4-0.2-2-0.5s-1.1-0.8-1.4-1.5c-0.3-0.6-0.5-1.4-0.5-2.2s0.2-1.6,0.5-2.2
		c0.3-0.6,0.8-1.1,1.4-1.5c0.6-0.3,1.3-0.5,2-0.5s1.4,0.2,2,0.5s1.1,0.8,1.4,1.5c0.3,0.6,0.5,1.4,0.5,2.2s-0.2,1.6-0.5,2.2
		c-0.3,0.6-0.8,1.1-1.4,1.5C129.2,200.4,128.6,200.5,127.8,200.5z M127.8,199.4c0.5,0,0.9-0.1,1.3-0.3s0.7-0.6,1-1
		c0.2-0.4,0.4-1,0.4-1.7s-0.1-1.2-0.4-1.7c-0.2-0.5-0.6-0.8-0.9-1c-0.4-0.2-0.8-0.3-1.3-0.3s-0.9,0.1-1.3,0.3c-0.4,0.2-0.7,0.6-1,1
		c-0.2,0.4-0.4,1-0.4,1.7s0.1,1.2,0.4,1.7c0.2,0.5,0.6,0.8,0.9,1S127.4,199.4,127.8,199.4z"/>
	<path class="st1" d="M137.3,200.5c-0.8,0-1.4-0.2-2-0.5s-1.1-0.8-1.4-1.5c-0.3-0.6-0.5-1.4-0.5-2.2s0.2-1.6,0.5-2.2
		c0.3-0.6,0.8-1.1,1.4-1.5c0.6-0.3,1.3-0.5,2-0.5c0.8,0,1.4,0.2,2,0.5s1.1,0.8,1.4,1.5c0.3,0.6,0.5,1.4,0.5,2.2s-0.2,1.6-0.5,2.2
		c-0.3,0.6-0.8,1.1-1.4,1.5C138.7,200.4,138,200.5,137.3,200.5z M137.3,199.4c0.5,0,0.9-0.1,1.3-0.3s0.7-0.6,1-1
		c0.2-0.4,0.4-1,0.4-1.7s-0.1-1.2-0.4-1.7c-0.2-0.5-0.6-0.8-0.9-1c-0.4-0.2-0.8-0.3-1.3-0.3s-0.9,0.1-1.3,0.3c-0.4,0.2-0.7,0.6-1,1
		c-0.2,0.4-0.4,1-0.4,1.7s0.1,1.2,0.4,1.7c0.2,0.5,0.6,0.8,0.9,1S136.8,199.4,137.3,199.4z"/>
	<path class="st1" d="M143.6,200.4c-0.3,0-0.5-0.1-0.7-0.3s-0.3-0.4-0.3-0.6s0.1-0.5,0.3-0.6c0.2-0.2,0.4-0.3,0.7-0.3
		s0.5,0.1,0.6,0.3c0.2,0.2,0.3,0.4,0.3,0.6s-0.1,0.5-0.3,0.6C144.1,200.3,143.9,200.4,143.6,200.4z"/>
	<path class="st2" d="M29.4,85.2c0.3-0.1,0.8-0.1,1.3-0.1c1.5,0,2.5,0.2,2.9,0.5c0.3,0.2,0.4,0.6,0.4,0.9c0,0.4-0.1,0.7-0.4,0.9
		c-0.3,0.2-0.6,0.4-1.1,0.4c-0.4,0-0.7,0.1-0.8,0.3c-0.1,0.2-0.2,0.7-0.2,1.5c0,0.2,0,0.9,0.1,2.1c0.1,1.4,0.1,2.3,0.2,2.7
		c0.1,0.4,0.2,0.6,0.3,0.7c0,0,0.2,0,0.5,0s0.6,0,0.8,0c0.7,0,1.2,0.2,1.5,0.5c0.2,0.2,0.3,0.4,0.3,0.6c0,0.4-0.6,0.9-1.8,1.3
		c-0.7,0.2-1.1,0.4-1.3,0.6c-0.1,0.1-0.2,0.4-0.3,0.9c-0.1,0.4-0.1,0.8-0.1,1.2c0,1.4,0.1,2.4,0.4,3.1c0.1,0.3,0.2,0.5,0.4,0.5
		c0.1,0.1,0.4,0.1,0.9,0.1c0.6,0,1.1,0.1,1.5,0.4s0.6,0.6,0.6,0.9c0,0.2-0.2,0.6-0.6,1c-0.7,0.6-1.8,1-3.4,1c-1.6,0-2.7-0.4-3.2-1.1
		c-0.3-0.4-0.5-2.8-0.5-7.2c-0.1-5.5-0.1-8.8-0.2-9.7l-0.1-3.1l0.6-0.3C28.6,85.5,29,85.3,29.4,85.2z"/>
	<path class="st2" d="M48.5,83.4c0.4-0.1,0.8-0.2,1.2-0.2c0.7,0,1.2,0.1,1.5,0.4s0.4,0.6,0.4,0.8c0,0.3-0.2,1-0.5,1.9
		c-0.2,0.7-0.4,1.4-0.6,1.9c-0.1,0.5-0.3,1.2-0.4,1.9c-0.1,0.7-0.3,1.5-0.5,2.2c-0.6,2.4-1.1,4.9-1.5,7.5s-0.7,4.4-0.7,5.2
		c0,0.3-0.2,0.7-0.6,1.2c-0.4,0.4-0.7,0.7-1.1,0.8c-0.1,0-0.2,0-0.5,0c-0.9,0-1.6-0.3-2.1-0.8c-0.3-0.3-0.6-1.7-0.8-4.1
		c-0.5-4.8-0.9-8-1.2-9.6c-0.1-0.6-0.2-1.6-0.4-3s-0.3-2.4-0.4-3.1l-0.2-1.5l0.6-0.5c0.4-0.3,0.8-0.5,1.1-0.5c0.7,0,1.3,0.5,1.8,1.6
		s0.7,2.1,0.7,2.9c0,0.5,0.1,1,0.2,1.5c0,0.1,0.1,0.4,0.2,1c0.1,0.6,0.2,1.2,0.3,1.7s0.2,0.7,0.4,0.7s0.7-2,1.4-5.9
		c0.3-1.5,0.5-2.5,0.7-3C47.8,84,48.1,83.6,48.5,83.4z"/>
	<path class="st2" d="M57.8,85.2c0.3-0.1,0.8-0.1,1.3-0.1c1.5,0,2.5,0.2,2.9,0.5c0.3,0.2,0.4,0.6,0.4,0.9c0,0.4-0.1,0.7-0.4,0.9
		s-0.6,0.4-1.1,0.4c-0.4,0-0.7,0.1-0.8,0.3c-0.1,0.2-0.2,0.7-0.2,1.5c0,0.2,0,0.9,0.1,2.1c0.1,1.4,0.1,2.3,0.2,2.7
		c0.1,0.4,0.2,0.6,0.3,0.7c0,0,0.2,0,0.6,0c0.3,0,0.6,0,0.8,0c0.7,0,1.2,0.2,1.5,0.5c0.2,0.2,0.3,0.4,0.3,0.6c0,0.4-0.6,0.9-1.8,1.3
		c-0.7,0.2-1.1,0.4-1.3,0.6c-0.1,0.1-0.2,0.4-0.3,0.9c-0.1,0.4-0.1,0.8-0.1,1.2c0,1.4,0.1,2.4,0.4,3.1c0.1,0.3,0.2,0.5,0.4,0.5
		c0.1,0.1,0.4,0.1,0.9,0.1c0.6,0,1.1,0.1,1.5,0.4s0.6,0.6,0.6,0.9c0,0.2-0.2,0.6-0.6,1c-0.7,0.6-1.8,1-3.4,1s-2.7-0.4-3.2-1.1
		c-0.3-0.4-0.4-2.8-0.5-7.2c-0.1-5.5-0.1-8.8-0.2-9.7L56,86.1l0.6-0.3C57,85.5,57.4,85.3,57.8,85.2z"/>
	<path class="st2" d="M69.7,84.4c0.5-0.2,1.2-0.2,1.9-0.2c0.8,0,1.5,0.1,1.8,0.2c0.7,0.3,1.3,0.9,1.7,1.7c0.2,0.4,0.3,1.1,0.5,2.2
		s0.2,2,0.2,2.9c0,0.4,0,0.7,0,0.8c-0.1,0.7-0.3,1.5-0.6,2.4c-0.3,0.9-0.5,1.3-0.6,1.3c-0.2,0-0.3,0.2-0.3,0.6
		c0,0.3,0.1,0.6,0.3,0.9c0.4,0.6,1.1,1.8,1.9,3.6c0.8,1.7,1.3,2.8,1.3,3.3c0,0.1,0,0.3,0,0.6c0,0.4-0.1,0.7-0.3,1
		c-0.2,0.3-0.5,0.5-0.8,0.5s-0.5,0-0.8,0c-0.7-0.1-1.1-0.2-1.3-0.3s-0.3-0.3-0.3-0.7c0-0.6-0.3-1.4-0.9-2.6c-0.6-1.1-1-1.7-1.3-1.7
		l0,0c-0.1,0.1-0.1,0.4-0.1,0.9c0,0.8,0.1,1.8,0.2,2.8c0.1,0.4,0.1,0.8,0.1,0.9c0,1-0.2,1.5-0.6,1.8c-0.2,0.1-0.4,0.1-0.7,0.1
		c-0.9,0-1.5-0.2-1.7-0.6c-0.1-0.2-0.2-2.1-0.3-5.7c0-1.2-0.1-2.4-0.1-3.7c0-1.3,0-2.3,0-2.9s0-1.4-0.1-2.4s-0.2-2-0.3-3.2
		c-0.1-1.3-0.2-2.1-0.2-2.4c0-0.7,0.1-1.1,0.3-1.4C68.8,84.7,69.2,84.5,69.7,84.4z M72.3,87.5c-0.1-0.2-0.2-0.3-0.5-0.3
		c-0.2,0-0.3,0.1-0.4,0.3c-0.1,0.2-0.1,0.4,0,0.5c0,0,0.1,0.9,0.2,2.7c0.1,1.8,0.2,2.7,0.3,2.8c0.1,0.1,0.2-0.1,0.4-0.3
		c0.2-0.2,0.2-0.7,0.2-1.4c0-0.5,0-1,0-1.4C72.5,88.7,72.4,87.8,72.3,87.5z"/>
	<path class="st2" d="M84.2,82.8c0.4-0.2,0.8-0.2,1.1-0.2c0.4,0,0.8,0.2,1.1,0.5c0.3,0.4,0.5,1.1,0.6,2.1c0.1,2,0.5,3.7,1.1,5.3
		c0.2,0.5,0.3,0.9,0.3,1.2c0,0.1,0,0.2,0.1,0.2c0,0.1,0.1,0.1,0.2,0c0.2-0.1,0.2-0.5,0.2-1.3s0-1.2,0.1-1.3c0.1-0.1,0.1-0.9,0.2-2.6
		s0.1-2.8,0.1-3.2c0-0.2,0.3-0.4,0.9-0.7c0.6-0.2,1.1-0.4,1.5-0.4c0.6,0,1.1,0.2,1.3,0.6c0.2,0.3,0.4,0.7,0.4,1.1
		c0,0.3-0.1,1.8-0.4,4.4c-0.1,0.5-0.2,2-0.3,4.5c-0.1,1.9-0.5,4.1-1.2,6.7c-0.3,1.3-0.7,2.4-1,3.1s-0.8,1.4-1.5,2.1
		c-0.3,0.4-0.6,0.6-0.8,0.6c-0.2,0-0.3,0.1-0.5,0.5c-0.1,0.3-0.5,0.5-1,0.7S85.6,107,85,107c-0.4,0-1-0.2-1.6-0.5s-0.9-0.6-0.9-0.8
		c0-0.3,0.2-0.7,0.5-1c0.3-0.4,0.7-0.7,1.2-0.9c0.8-0.4,1.5-0.9,2-1.6s1-1.7,1.4-3c0.5-1.5,0.7-2.4,0.7-2.8c0-0.3-0.2-0.6-0.7-0.7
		c-1.2-0.5-2-1.1-2.4-1.8c-0.2-0.4-0.6-2.2-1.3-5.4c-0.4-1.6-0.6-2.8-0.6-3.7C83.2,83.8,83.6,83.1,84.2,82.8z"/>
	<path class="st2" d="M108.9,85.9c0.1,0,0.8,0,2.1,0c1.5,0,2.5,0.3,3.3,0.9c0.7,0.6,1.3,1.7,1.8,3.3c0.4,1.5,0.7,3.2,0.7,5.2
		c0,0.4,0,0.9-0.1,1.4c-0.1,0.4-0.2,1.1-0.3,1.9c-0.1,0.8-0.2,1.6-0.3,2.2c-0.1,0.7-0.2,1.1-0.4,1.4c-0.1,0.2-0.2,0.5-0.2,0.8
		c0,0.2-0.1,0.6-0.4,1.2s-0.5,1-0.7,1.3c-0.3,0.4-0.8,0.8-1.5,1.1c-0.6,0.3-1.3,0.5-1.9,0.6c-0.5,0.1-0.8,0.1-0.9,0.1
		c-0.3,0-0.7-0.2-1-0.5l-0.6-0.6v-7.1v-2.2c0-3.5,0-5.4-0.1-5.8c-0.2-1.2-0.2-2.1-0.2-2.9C108.1,86.8,108.4,86,108.9,85.9z
		 M112.8,91c-0.4-1.5-0.8-2.2-1.1-2.2l-0.1,0.1V89c0,0.1,0,0.1,0,0.3c0,0.1,0,0.2,0,0.4c0,0.4,0,1.2,0.1,2.4
		c0.1,1.4,0.1,3.4,0.2,5.8c0,2.3,0.1,3.5,0.3,3.5c0.1,0,0.1-0.2,0.3-0.6c0.5-1.8,0.8-3.7,0.8-5.7C113.3,93.5,113.1,92.2,112.8,91z"
		/>
	<path class="st2" d="M124.4,85.4c0.7-0.7,1.8-1.1,3.3-1.1c0.6,0,1.2,0.1,1.6,0.3c0.6,0.3,1,1.1,1.3,2.3c0.2,1.1,0.4,2.9,0.7,5.4
		s0.4,4.5,0.5,5.9c0,1.3,0.1,2.8,0.3,4.4s0.3,2.5,0.4,2.7c0,0,0,0.1,0,0.2c0,0.2-0.1,0.6-0.3,0.9c-0.2,0.4-0.4,0.6-0.6,0.6
		c-0.1,0-0.2,0-0.4,0c-0.4,0-0.9-0.1-1.4-0.3c-0.5-0.2-0.8-0.4-0.9-0.6s-0.2-1-0.4-2.3s-0.2-2.4-0.2-3.2c0-0.8-0.1-1.2-0.2-1.3
		c-0.1-0.1-0.8-0.1-1.9-0.1c-0.9,0-1.4,0-1.5,0.1c0,0.1,0,0.3,0,0.5c0,0.6,0,1.3,0.1,2.3c0.1,1.1,0.1,2,0.1,2.7v0.4
		c0,0.2-0.2,0.4-0.6,0.5s-0.7,0.2-1.1,0.2c-0.2,0-0.3,0-0.4,0c-0.9-0.3-1.5-0.7-1.6-1.2c0,0,0-0.1,0-0.2s0-0.2,0-0.3
		c0-1.2,0.1-3.7,0.4-7.6s0.5-6.1,0.6-6.7c0.2-0.8,0.5-1.6,1-2.6C123.5,86.5,124,85.8,124.4,85.4z M127.2,89.8
		c-0.2-0.8-0.4-1.2-0.6-1.2c-0.2,0-0.4,0.3-0.7,0.9c-0.5,1.1-0.9,2.7-1,4.6c-0.1,0.8-0.1,1.3-0.1,1.4c0,0.4,0.1,0.6,0.2,0.7
		s0.5,0.2,1.1,0.2c0.8,0,1.3-0.1,1.4-0.2c0.1-0.1,0.1-0.4,0.1-1.1C127.7,93,127.5,91.3,127.2,89.8z"/>
	<path class="st2" d="M138.7,82.8c0.4-0.2,0.8-0.2,1.1-0.2c0.4,0,0.8,0.2,1.1,0.5c0.3,0.4,0.5,1.1,0.6,2.1c0.1,2,0.5,3.7,1.1,5.3
		c0.2,0.5,0.3,0.9,0.3,1.2c0,0.1,0,0.2,0.1,0.2c0,0.1,0.1,0.1,0.1,0c0.2-0.1,0.2-0.5,0.2-1.3s0-1.2,0.1-1.3c0.1-0.1,0.1-0.9,0.2-2.6
		c0.1-1.7,0.1-2.8,0.1-3.2c0-0.2,0.3-0.4,0.9-0.7s1.1-0.4,1.5-0.4c0.6,0,1.1,0.2,1.3,0.6c0.2,0.3,0.4,0.7,0.4,1.1
		c0,0.3-0.1,1.8-0.4,4.4c-0.1,0.5-0.2,2-0.3,4.5c-0.1,1.9-0.5,4.1-1.2,6.7c-0.3,1.3-0.7,2.4-1,3.1s-0.8,1.4-1.5,2.1
		c-0.3,0.4-0.6,0.6-0.8,0.6s-0.3,0.1-0.5,0.5c-0.1,0.3-0.5,0.5-1,0.7s-1.1,0.3-1.7,0.3c-0.4,0-1-0.2-1.6-0.5s-0.9-0.6-0.9-0.8
		c0-0.3,0.2-0.7,0.5-1c0.3-0.4,0.7-0.7,1.2-0.9c0.8-0.4,1.5-0.9,2-1.6s1-1.7,1.4-3c0.5-1.5,0.7-2.4,0.7-2.8c0-0.3-0.2-0.6-0.7-0.7
		c-1.2-0.5-2-1.1-2.4-1.8c-0.2-0.4-0.6-2.2-1.3-5.4c-0.4-1.6-0.6-2.8-0.6-3.7C137.7,83.8,138,83.1,138.7,82.8z"/>
	<path class="st3" d="M225.3,60.6c7.1,0,12.7,1.5,12.7,3.2c0,1.9-5.6,3.4-12.7,3.4c-7.1,0-12.7-1.5-12.7-3.4
		C212.7,62,218.3,60.6,225.3,60.6z"/>
	<path class="st4" d="M225.4,64.6c9.6-7.6,20.1-20.1,18.4-32.8c-1.2-9.3-9.1-16.2-18.4-16.2c-9.6,0-17.6,7.3-18.4,16.9
		C205.8,45,215.9,57.2,225.4,64.6z M225.4,27.9c3.7,0,6.8,3,6.8,6.8s-3,6.8-6.8,6.8s-6.8-3-6.8-6.8S221.6,27.9,225.4,27.9z"/>
	<path class="st3" d="M253.2,196.1c7.1,0,12.7,1.5,12.7,3.2c0,2-5.6,3.4-12.7,3.4s-12.7-1.5-12.7-3.4
		C240.5,197.5,246.1,196.1,253.2,196.1z"/>
	<path class="st5" d="M238.7,199.4h-1.4"/>
	<path class="st6" d="M234.6,199.3l-13.6-0.2c-3.3,0-6.1-3.8-6.1-8.5c0,0,16.2-116-29.7-116c-32.3,0-24.1,44.5,36.5,44.5
		c55.8,0,47.1-47.1,47.1-47.1c0-4.7-2.7-8.5-6.1-8.5h-19.2"/>
	<path class="st5" d="M242.1,63.4h-1.4"/>
	<path class="st1" d="M236.3,187.4h-3.9c-0.5,0-1-0.4-1-1v-7.8c0-0.5,0.4-1,1-1h3.9c0.5,0,1,0.4,1,1v7.8
		C237.3,187,236.9,187.4,236.3,187.4z"/>
	<path class="st1" d="M274.6,187.4h-3.9c-0.5,0-1-0.4-1-1v-7.8c0-0.5,0.4-1,1-1h3.9c0.5,0,1,0.4,1,1v7.8
		C275.6,187,275.2,187.4,274.6,187.4z"/>
	<path class="st2" d="M227.1,178.3c0,1.5,1.2,2.8,2.8,2.8h47.2c1.5,0,2.8-1.2,2.8-2.8v-47.9c0-2.9-2.4-5.2-5.2-5.2h-42.3
		c-2.9,0-5.2,2.4-5.2,5.2L227.1,178.3L227.1,178.3z M235,175.1c-3.1,0-5.3-3.5-3-6.7c0.1-0.1,0.2-0.2,0.3-0.3c3.2-2.3,6.7,0,6.7,3
		C238.9,173.3,237.1,175.1,235,175.1z M258.3,133h15c1.3,0,2.4,1.1,2.4,2.4v18c0,1.3-1.1,2.4-2.4,2.4h-15c-1.3,0-2.4-1.1-2.4-2.4
		v-18C255.9,134.1,257,133,258.3,133z M233.7,133h15c1.3,0,2.4,1.1,2.4,2.4v18c0,1.3-1.1,2.4-2.4,2.4h-15c-1.3,0-2.4-1.1-2.4-2.4
		v-18C231.3,134.1,232.4,133,233.7,133z M275.8,174.2c-4.1,2.9-8.7-1.6-5.8-5.8c0.1-0.1,0.2-0.2,0.3-0.3c4.1-2.9,8.7,1.6,5.8,5.8
		C276,174,275.9,174.1,275.8,174.2z"/>
	<path class="st1" d="M292.6,188.2h-1.8c-0.6,0-1-0.2-1-0.8v-66h3.9v66C293.7,188,293.2,188.2,292.6,188.2z"/>
	<path class="st2" d="M277,110.4l6.6-11.5c0.3-0.5,0.9-0.8,1.5-0.8h13.3c0.6,0,1.2,0.3,1.5,0.8l6.6,11.5c0.3,0.5,0.3,1.2,0,1.7
		l-6.6,11.5c-0.3,0.5-0.9,0.8-1.5,0.8h-13.3c-0.6,0-1.2-0.3-1.5-0.8l-6.6-11.5C276.7,111.6,276.7,110.9,277,110.4z"/>
</g>
</svg>
