<?xml version="1.0" encoding="utf-8"?>
<!-- Generator: Adobe Illustrator 25.1.0, SVG Export Plug-In . SVG Version: 6.00 Build 0)  -->
<svg version="1.1" id="Layer_1" xmlns="http://www.w3.org/2000/svg" xmlns:xlink="http://www.w3.org/1999/xlink" x="0px" y="0px"
	 viewBox="0 0 329.5 204.7" style="enable-background:new 0 0 329.5 204.7;" xml:space="preserve">
<style type="text/css">
	.st0{fill:#FFFFFF;}
	.st1{fill:#808080;}
	.st2{fill:#00A878;}
	.st3{fill:#F4F1EF;}
	.st4{fill:#646464;}
	.st5{fill:#F5F1EF;}
	.st6{fill:#32DCD2;}
	.st7{fill:#28C86E;}
	.st8{fill:none;stroke:#28C86E;stroke-width:1.8283;stroke-linecap:round;stroke-miterlimit:10;}
	.st9{fill:#FFCF8D;}
	.st10{fill:#FF9F1A;}
	.st11{fill:#00CDDC;}
</style>
<g>
	<g>
		<g>
			<g>
				<path class="st0" d="M328.5,144.1c-6.4-51.4,12.5-115.8-22.8-133c-19.2-9.3-93.6-16.6-161.2-5.5C111.5,11,19.5-6.9,9.3,22.5
					c-11.1,32-7.9,65.8-9,101.9c-1.1,35.4-0.9,76.7,38.7,78c73.2,2.4,161.6,4,230.8-1C303.2,198.9,335.7,202.7,328.5,144.1z"/>
				<path class="st1" d="M30.8,95.8v-4.3l-3.6-6.9h1.5l2.8,5.7l2.8-5.7h1.5l-3.6,6.9v4.3H30.8z"/>
				<path class="st1" d="M39.4,96c-0.8,0-1.4-0.2-2-0.5S36.3,94.7,36,94c-0.4-0.6-0.5-1.4-0.5-2.2c0-0.8,0.2-1.6,0.5-2.2
					s0.8-1.1,1.4-1.5c0.6-0.3,1.3-0.5,2-0.5s1.4,0.2,2,0.5s1.1,0.8,1.4,1.5c0.3,0.6,0.5,1.4,0.5,2.2c0,0.8-0.2,1.6-0.5,2.2
					s-0.8,1.1-1.4,1.5C40.9,95.8,40.2,96,39.4,96z M39.4,94.8c0.5,0,0.9-0.1,1.3-0.3c0.4-0.2,0.7-0.6,1-1s0.4-1,0.4-1.7
					s-0.1-1.2-0.4-1.7s-0.6-0.8-0.9-1c-0.4-0.2-0.8-0.3-1.3-0.3s-0.9,0.1-1.3,0.3c-0.4,0.2-0.7,0.6-1,1s-0.4,1-0.4,1.7
					s0.1,1.2,0.4,1.7s0.6,0.8,1,1S39,94.8,39.4,94.8z"/>
				<path class="st1" d="M48.2,96c-0.9,0-1.7-0.3-2.2-0.9c-0.6-0.6-0.8-1.5-0.8-2.6v-4.6h1.3v4.5c0,1.6,0.7,2.5,2,2.5
					c0.7,0,1.3-0.2,1.7-0.7s0.7-1.2,0.7-2.1V88h1.3v7.9H51l-0.1-1.4c-0.2,0.5-0.6,0.9-1.1,1.2C49.3,95.8,48.8,96,48.2,96z"/>
				<path class="st1" d="M62.3,96c-0.8,0-1.5-0.2-2.1-0.5c-0.6-0.4-1.1-0.9-1.4-1.5s-0.5-1.3-0.5-2.1c0-0.8,0.2-1.5,0.5-2.1
					s0.8-1.1,1.4-1.5s1.3-0.5,2.1-0.5c0.7,0,1.2,0.1,1.7,0.4c0.5,0.3,0.9,0.6,1.2,1.1v-4.9h1.3v11.5h-1.2l-0.1-1.3
					c-0.3,0.4-0.6,0.7-1.1,1C63.6,95.8,63,96,62.3,96z M62.4,94.8c0.5,0,1-0.1,1.4-0.4c0.4-0.2,0.7-0.6,1-1c0.2-0.5,0.3-1,0.3-1.6
					s-0.1-1.1-0.3-1.6c-0.2-0.4-0.6-0.8-1-1c-0.4-0.2-0.9-0.4-1.4-0.4s-1,0.1-1.4,0.4c-0.4,0.2-0.7,0.6-1,1c-0.2,0.5-0.3,1-0.3,1.6
					s0.1,1.1,0.3,1.6c0.2,0.5,0.6,0.8,1,1C61.4,94.7,61.9,94.8,62.4,94.8z"/>
				<path class="st1" d="M72.4,96c-0.8,0-1.4-0.2-2-0.5S69.3,94.7,69,94c-0.3-0.6-0.5-1.4-0.5-2.2c0-0.8,0.2-1.6,0.5-2.2
					s0.8-1.1,1.4-1.5c0.6-0.3,1.3-0.5,2-0.5c0.8,0,1.4,0.2,2,0.5s1.1,0.8,1.4,1.5c0.3,0.6,0.5,1.4,0.5,2.2c0,0.8-0.2,1.6-0.5,2.2
					s-0.8,1.1-1.4,1.5S73.1,96,72.4,96z M72.4,94.8c0.5,0,0.9-0.1,1.3-0.3c0.4-0.2,0.7-0.6,1-1s0.4-1,0.4-1.7s-0.1-1.2-0.4-1.7
					c-0.2-0.4-0.6-0.8-1-1s-0.8-0.3-1.3-0.3s-0.9,0.1-1.3,0.3c-0.4,0.2-0.7,0.6-1,1s-0.4,1-0.4,1.7s0.1,1.2,0.4,1.7s0.6,0.8,1,1
					S71.9,94.8,72.4,94.8z"/>
				<path class="st1" d="M78.2,95.8v-7.9h1.2l0.1,1.4c0.3-0.5,0.6-0.9,1.1-1.2c0.5-0.3,1-0.4,1.6-0.4c0.9,0,1.7,0.3,2.2,0.9
					c0.6,0.6,0.8,1.5,0.8,2.6v4.6h-1.3v-4.5c0-1.7-0.7-2.5-2.1-2.5c-0.7,0-1.2,0.2-1.7,0.7s-0.7,1.2-0.7,2.1v4.1L78.2,95.8
					L78.2,95.8z"/>
				<path class="st1" d="M86.8,88.1l0.9-3.6h1.5l-1.5,3.6H86.8z"/>
				<path class="st1" d="M93.9,95.8c-0.7,0-1.3-0.2-1.7-0.5c-0.4-0.3-0.6-1-0.6-1.9V89h-1.4v-1.1h1.4l0.2-1.9H93v1.9h2.3V89h-2.4
					v4.4c0,0.5,0.1,0.8,0.3,1c0.2,0.2,0.6,0.3,1.1,0.3h0.8v1.2h-1.2V95.8z"/>
				<path class="st1" d="M101.2,95.8v-7.9h1.2l0.1,1.4c0.3-0.5,0.6-0.9,1.1-1.2c0.5-0.3,1-0.4,1.6-0.4c0.9,0,1.7,0.3,2.2,0.9
					s0.8,1.5,0.8,2.6v4.6h-1.3v-4.5c0-1.7-0.7-2.5-2.1-2.5c-0.7,0-1.2,0.2-1.7,0.7s-0.7,1.2-0.7,2.1v4.1L101.2,95.8L101.2,95.8z"/>
				<path class="st1" d="M113.9,96c-0.8,0-1.4-0.2-2-0.5s-1.1-0.8-1.4-1.5c-0.3-0.6-0.5-1.3-0.5-2.2c0-0.8,0.2-1.6,0.5-2.2
					s0.8-1.1,1.4-1.5s1.3-0.5,2.1-0.5c0.8,0,1.4,0.2,2,0.5s1,0.8,1.3,1.4s0.4,1.2,0.4,1.8c0,0.1,0,0.2,0,0.3s0,0.2,0,0.4h-6.3
					c0,0.6,0.2,1.1,0.4,1.5c0.2,0.4,0.6,0.7,0.9,0.9c0.4,0.2,0.8,0.3,1.2,0.3c0.6,0,1-0.1,1.4-0.4s0.6-0.6,0.8-1h1.3
					c-0.2,0.7-0.6,1.3-1.2,1.8C115.6,95.7,114.9,96,113.9,96z M113.9,88.8c-0.6,0-1.2,0.2-1.7,0.6s-0.8,1-0.9,1.7h5
					c0-0.7-0.3-1.3-0.7-1.7C115.2,89,114.6,88.8,113.9,88.8z"/>
				<path class="st1" d="M123,96c-0.8,0-1.4-0.2-2-0.5s-1.1-0.8-1.4-1.5c-0.3-0.6-0.5-1.3-0.5-2.2c0-0.8,0.2-1.6,0.5-2.2
					c0.3-0.6,0.8-1.1,1.4-1.5s1.3-0.5,2.1-0.5s1.4,0.2,2,0.5s1,0.8,1.3,1.4s0.4,1.2,0.4,1.8c0,0.1,0,0.2,0,0.3c0,0.1,0,0.2,0,0.4
					h-6.3c0,0.6,0.2,1.1,0.4,1.5s0.6,0.7,0.9,0.9c0.4,0.2,0.8,0.3,1.2,0.3c0.6,0,1-0.1,1.4-0.4s0.7-0.6,0.8-1h1.3
					c-0.2,0.7-0.6,1.3-1.2,1.8C124.7,95.7,124,96,123,96z M123,88.8c-0.6,0-1.2,0.2-1.7,0.6s-0.8,1-0.9,1.7h5c0-0.7-0.3-1.3-0.7-1.7
					C124.3,89,123.7,88.8,123,88.8z"/>
				<path class="st1" d="M132.2,96c-0.8,0-1.5-0.2-2.1-0.5c-0.6-0.4-1-0.9-1.4-1.5s-0.5-1.3-0.5-2.1c0-0.8,0.2-1.5,0.5-2.1
					s0.8-1.1,1.4-1.5c0.6-0.4,1.3-0.5,2.1-0.5c0.6,0,1.2,0.1,1.7,0.4s0.9,0.6,1.2,1.1v-4.9h1.3v11.5h-1.2l-0.1-1.3
					c-0.3,0.4-0.6,0.7-1.1,1S132.9,96,132.2,96z M132.3,94.8c0.5,0,1-0.1,1.4-0.4c0.4-0.2,0.7-0.6,1-1s0.3-1,0.3-1.6
					s-0.1-1.1-0.3-1.6c-0.2-0.4-0.6-0.8-1-1s-0.9-0.4-1.4-0.4s-1,0.1-1.4,0.4s-0.7,0.6-1,1c-0.2,0.5-0.3,1-0.3,1.6s0.1,1.1,0.3,1.6
					s0.6,0.8,1,1S131.8,94.8,132.3,94.8z"/>
				<path class="st1" d="M146,95.8c-0.7,0-1.3-0.2-1.7-0.5s-0.6-1-0.6-1.9V89h-1.4v-1.1h1.4l0.2-1.9h1.2v1.9h2.3V89h-2.3v4.4
					c0,0.5,0.1,0.8,0.3,1s0.6,0.3,1.1,0.3h0.8v1.2H146V95.8z"/>
				<path class="st1" d="M152.4,96c-0.8,0-1.4-0.2-2-0.5s-1.1-0.8-1.4-1.5c-0.3-0.6-0.5-1.4-0.5-2.2c0-0.8,0.2-1.6,0.5-2.2
					s0.8-1.1,1.4-1.5c0.6-0.3,1.3-0.5,2-0.5c0.8,0,1.4,0.2,2,0.5s1.1,0.8,1.4,1.5c0.3,0.6,0.5,1.4,0.5,2.2c0,0.8-0.2,1.6-0.5,2.2
					s-0.8,1.1-1.4,1.5C153.9,95.8,153.2,96,152.4,96z M152.4,94.8c0.5,0,0.9-0.1,1.3-0.3c0.4-0.2,0.7-0.6,1-1s0.4-1,0.4-1.7
					s-0.1-1.2-0.4-1.7c-0.2-0.5-0.6-0.8-0.9-1c-0.4-0.2-0.8-0.3-1.3-0.3s-0.9,0.1-1.3,0.3c-0.4,0.2-0.7,0.6-1,1s-0.4,1-0.4,1.7
					s0.1,1.2,0.4,1.7c0.2,0.5,0.6,0.8,0.9,1C151.6,94.7,152,94.8,152.4,94.8z"/>
				<path class="st1" d="M164.1,95.8l-2.3-7.9h1.3l1.7,6.2l1.9-6.2h1.5l1.9,6.2l1.7-6.2h1.4l-2.3,7.9h-1.4l-2-6.5l-1.9,6.5H164.1z"
					/>
				<path class="st1" d="M176.9,96c-0.7,0-1.2-0.1-1.6-0.3c-0.4-0.2-0.8-0.5-1-0.9S174,94,174,93.6c0-0.8,0.3-1.4,0.9-1.9
					c0.6-0.4,1.5-0.7,2.5-0.7h2.1v-0.1c0-0.7-0.2-1.2-0.5-1.6c-0.4-0.4-0.8-0.5-1.5-0.5c-0.5,0-1,0.1-1.4,0.4s-0.6,0.6-0.7,1.1H174
					c0.1-0.6,0.2-1.1,0.6-1.5c0.3-0.4,0.8-0.7,1.3-0.9c0.5-0.2,1-0.3,1.6-0.3c1.1,0,1.9,0.3,2.5,0.9s0.8,1.4,0.8,2.4v4.9h-1.2
					l-0.1-1.4c-0.2,0.5-0.6,0.8-1,1.1C178.2,95.8,177.7,96,176.9,96z M177.2,94.8c0.5,0,0.9-0.1,1.3-0.4c0.4-0.3,0.6-0.6,0.8-1
					s0.3-0.9,0.3-1.3l0,0h-2c-0.8,0-1.3,0.1-1.7,0.4c-0.3,0.3-0.5,0.6-0.5,1s0.2,0.8,0.5,1C176.2,94.7,176.6,94.8,177.2,94.8z"/>
				<path class="st1" d="M185.9,95.8c-0.7,0-1.3-0.2-1.7-0.5s-0.6-1-0.6-1.9V89h-1.4v-1.1h1.4l0.2-1.9h1.2v1.9h2.3V89h-2.4v4.4
					c0,0.5,0.1,0.8,0.3,1s0.6,0.3,1.1,0.3h0.8v1.2h-1.2V95.8z"/>
				<path class="st1" d="M192.4,96c-0.8,0-1.4-0.2-2-0.5s-1.1-0.8-1.4-1.5c-0.4-0.6-0.5-1.3-0.5-2.2c0-0.8,0.2-1.6,0.5-2.2
					s0.8-1.1,1.4-1.5c0.6-0.4,1.3-0.5,2-0.5c0.9,0,1.7,0.2,2.4,0.7c0.6,0.5,1.1,1.2,1.2,2h-1.4c-0.1-0.5-0.4-0.9-0.8-1.1
					c-0.4-0.3-0.9-0.4-1.5-0.4c-0.4,0-0.9,0.1-1.3,0.3c-0.4,0.2-0.7,0.6-1,1s-0.4,1-0.4,1.7s0.1,1.2,0.4,1.7s0.6,0.8,1,1
					s0.8,0.3,1.3,0.3c0.6,0,1-0.1,1.5-0.4c0.4-0.3,0.7-0.7,0.8-1.2h1.4c-0.2,0.8-0.6,1.5-1.2,2C194.1,95.7,193.3,96,192.4,96z"/>
				<path class="st1" d="M197.8,95.8V84.3h1.3v4.9c0.3-0.5,0.7-0.9,1.1-1.1c0.5-0.3,1-0.4,1.6-0.4c0.9,0,1.6,0.3,2.2,0.9
					c0.5,0.6,0.8,1.5,0.8,2.6v4.6h-1.3v-4.5c0-1.7-0.7-2.5-2-2.5c-0.7,0-1.3,0.2-1.7,0.7c-0.5,0.5-0.7,1.2-0.7,2.1v4.1L197.8,95.8
					L197.8,95.8z"/>
				<path class="st1" d="M214.4,95.8c-0.7,0-1.3-0.2-1.7-0.5s-0.6-1-0.6-1.9V89h-1.4v-1.1h1.4l0.2-1.9h1.2v1.9h2.3V89h-2.3v4.4
					c0,0.5,0.1,0.8,0.3,1s0.6,0.3,1.1,0.3h0.8v1.2h-1.3V95.8z"/>
				<path class="st1" d="M217.4,95.8V84.3h1.3v4.9c0.3-0.5,0.6-0.9,1.1-1.1c0.5-0.3,1-0.4,1.6-0.4c0.9,0,1.6,0.3,2.2,0.9
					c0.6,0.6,0.8,1.5,0.8,2.6v4.6h-1.3v-4.5c0-1.7-0.7-2.5-2-2.5c-0.7,0-1.3,0.2-1.7,0.7c-0.5,0.5-0.7,1.2-0.7,2.1v4.1L217.4,95.8
					L217.4,95.8z"/>
				<path class="st1" d="M230.1,96c-0.8,0-1.4-0.2-2-0.5s-1.1-0.8-1.4-1.5c-0.3-0.6-0.5-1.3-0.5-2.2c0-0.8,0.2-1.6,0.5-2.2
					s0.8-1.1,1.4-1.5c0.6-0.4,1.3-0.5,2.1-0.5s1.4,0.2,2,0.5s1,0.8,1.3,1.4s0.4,1.2,0.4,1.8c0,0.1,0,0.2,0,0.3c0,0.1,0,0.2,0,0.4
					h-6.3c0,0.6,0.2,1.1,0.4,1.5s0.6,0.7,0.9,0.9c0.4,0.2,0.8,0.3,1.2,0.3c0.6,0,1-0.1,1.4-0.4s0.7-0.6,0.8-1h1.3
					c-0.2,0.7-0.6,1.3-1.2,1.8C231.8,95.7,231.1,96,230.1,96z M230.1,88.8c-0.6,0-1.2,0.2-1.7,0.6s-0.8,1-0.9,1.7h5
					c0-0.7-0.3-1.3-0.7-1.7C231.4,89,230.8,88.8,230.1,88.8z"/>
				<path class="st1" d="M243.6,96c-0.8,0-1.4-0.2-2-0.5s-1.1-0.8-1.4-1.5c-0.4-0.6-0.5-1.3-0.5-2.2c0-0.8,0.2-1.6,0.5-2.2
					s0.8-1.1,1.4-1.5c0.6-0.4,1.3-0.5,2-0.5c0.9,0,1.7,0.2,2.4,0.7c0.6,0.5,1,1.2,1.2,2h-1.4c-0.1-0.5-0.4-0.9-0.8-1.1
					c-0.4-0.3-0.9-0.4-1.5-0.4c-0.5,0-0.9,0.1-1.3,0.3c-0.4,0.2-0.7,0.6-1,1s-0.4,1-0.4,1.7s0.1,1.2,0.4,1.7s0.6,0.8,1,1
					s0.8,0.3,1.3,0.3s1-0.1,1.5-0.4c0.4-0.3,0.7-0.7,0.8-1.2h1.4c-0.2,0.8-0.6,1.5-1.2,2S244.5,96,243.6,96z"/>
				<path class="st1" d="M249,95.8V84.3h1.3v11.5H249z"/>
				<path class="st1" d="M256.2,96c-0.8,0-1.4-0.2-2-0.5s-1.1-0.8-1.4-1.5s-0.5-1.4-0.5-2.2c0-0.8,0.2-1.6,0.5-2.2
					c0.4-0.6,0.8-1.1,1.4-1.5c0.6-0.3,1.3-0.5,2-0.5c0.8,0,1.4,0.2,2,0.5s1.1,0.8,1.4,1.5c0.4,0.6,0.5,1.4,0.5,2.2
					c0,0.8-0.2,1.6-0.5,2.2s-0.8,1.1-1.4,1.5S256.9,96,256.2,96z M256.2,94.8c0.5,0,0.9-0.1,1.3-0.3c0.4-0.2,0.7-0.6,1-1
					s0.4-1,0.4-1.7s-0.1-1.2-0.4-1.7c-0.2-0.5-0.6-0.8-1-1s-0.8-0.3-1.3-0.3c-0.5,0-0.9,0.1-1.3,0.3c-0.4,0.2-0.7,0.6-1,1
					s-0.4,1-0.4,1.7s0.1,1.2,0.4,1.7c0.2,0.5,0.6,0.8,1,1S255.7,94.8,256.2,94.8z"/>
				<path class="st1" d="M265.7,96c-0.8,0-1.4-0.2-2-0.5s-1.1-0.8-1.4-1.5c-0.3-0.6-0.5-1.3-0.5-2.2c0-0.8,0.2-1.6,0.5-2.2
					c0.4-0.6,0.8-1.1,1.4-1.5s1.3-0.5,2-0.5c0.9,0,1.7,0.2,2.4,0.7c0.6,0.5,1,1.2,1.2,2h-1.4c-0.1-0.5-0.4-0.9-0.8-1.1
					c-0.4-0.3-0.9-0.4-1.5-0.4c-0.4,0-0.9,0.1-1.3,0.3c-0.4,0.2-0.7,0.6-1,1s-0.4,1-0.4,1.7s0.1,1.2,0.4,1.7c0.2,0.4,0.6,0.8,1,1
					s0.8,0.3,1.3,0.3c0.6,0,1-0.1,1.5-0.4c0.4-0.3,0.7-0.7,0.8-1.2h1.4c-0.2,0.8-0.6,1.5-1.2,2C267.4,95.7,266.6,96,265.7,96z"/>
				<path class="st1" d="M271.2,95.8V84.3h1.3v6.9l3.2-3.3h1.6l-3.5,3.6l4,4.4h-1.7l-3.6-4.1v4.1h-1.3V95.8z"/>
				<path class="st1" d="M279.7,95.8c-0.3,0-0.5-0.1-0.7-0.3c-0.2-0.2-0.3-0.4-0.3-0.7s0.1-0.5,0.3-0.6c0.2-0.2,0.4-0.3,0.7-0.3
					c0.3,0,0.5,0.1,0.6,0.3c0.2,0.2,0.3,0.4,0.3,0.6s-0.1,0.5-0.3,0.7C280.2,95.7,280,95.8,279.7,95.8z"/>
				<path class="st1" d="M30.5,118c-1,0-1.8-0.3-2.4-0.9c-0.6-0.6-0.9-1.3-0.9-2.3h1.4c0,0.6,0.1,1,0.4,1.4c0.3,0.4,0.8,0.6,1.5,0.6
					s1.1-0.2,1.4-0.6c0.3-0.4,0.4-0.8,0.4-1.4v-8.2h1.3v8.2c0,1-0.3,1.8-0.8,2.3C32.3,117.7,31.5,118,30.5,118z"/>
				<path class="st1" d="M38.8,118c-0.9,0-1.7-0.3-2.2-0.9c-0.6-0.6-0.8-1.5-0.8-2.6v-4.6h1.3v4.5c0,1.6,0.7,2.5,2,2.5
					c0.7,0,1.3-0.2,1.7-0.7s0.7-1.2,0.7-2.1V110h1.4v7.9h-1.2l-0.1-1.4c-0.2,0.5-0.6,0.9-1.1,1.2C40,117.8,39.4,118,38.8,118z"/>
				<path class="st1" d="M48.1,118c-0.9,0-1.7-0.2-2.4-0.7c-0.6-0.5-1-1.1-1.1-1.9H46c0.1,0.4,0.3,0.8,0.7,1.1s0.8,0.5,1.4,0.5
					c0.6,0,1-0.1,1.2-0.4c0.3-0.2,0.4-0.5,0.4-0.9c0-0.5-0.2-0.8-0.5-1s-0.8-0.3-1.5-0.4c-0.4-0.1-0.8-0.2-1.3-0.4
					c-0.4-0.2-0.8-0.4-1.1-0.7c-0.3-0.3-0.4-0.7-0.4-1.2c0-0.7,0.3-1.3,0.8-1.7c0.5-0.4,1.2-0.7,2.1-0.7c0.8,0,1.5,0.2,2.1,0.6
					c0.5,0.4,0.8,1,0.9,1.8h-1.3c-0.1-0.4-0.2-0.7-0.5-1c-0.3-0.2-0.7-0.3-1.2-0.3s-0.8,0.1-1.1,0.3c-0.3,0.2-0.4,0.5-0.4,0.8
					s0.2,0.6,0.5,0.8c0.3,0.2,0.8,0.3,1.4,0.5c0.5,0.1,1,0.2,1.4,0.4c0.4,0.2,0.8,0.4,1.1,0.7c0.3,0.3,0.4,0.7,0.4,1.3
					c0,0.7-0.3,1.3-0.8,1.8C49.8,117.7,49.1,118,48.1,118z"/>
				<path class="st1" d="M55.9,117.8c-0.7,0-1.3-0.2-1.7-0.5s-0.6-1-0.6-1.9V111h-1.4v-1.1h1.4l0.2-1.9h1.1v1.9h2.3v1.1h-2.3v4.4
					c0,0.5,0.1,0.8,0.3,1s0.6,0.3,1.1,0.3h0.8v1.2h-1.2V117.8z"/>
				<path class="st1" d="M66.3,115.3c-0.4,0-0.9-0.1-1.2-0.2l-0.8,0.8c0.1,0.1,0.3,0.2,0.4,0.2c0.2,0.1,0.4,0.1,0.8,0.2
					c0.3,0.1,0.8,0.1,1.4,0.2c1.1,0.1,1.8,0.3,2.3,0.7c0.5,0.4,0.7,1,0.7,1.6c0,0.5-0.1,0.9-0.4,1.3c-0.2,0.4-0.6,0.8-1.1,1
					c-0.5,0.3-1.2,0.4-2,0.4c-0.7,0-1.3-0.1-1.9-0.3c-0.6-0.2-1-0.5-1.3-0.8c-0.3-0.4-0.5-0.9-0.5-1.4c0-0.3,0.1-0.6,0.2-1
					c0.2-0.3,0.5-0.7,0.9-1c-0.2-0.1-0.4-0.2-0.6-0.3c-0.2-0.1-0.3-0.2-0.5-0.4v-0.4l1.4-1.3c-0.6-0.5-0.9-1.2-0.9-2.1
					c0-0.5,0.1-1,0.4-1.4c0.2-0.4,0.6-0.8,1.1-1s1-0.4,1.7-0.4c0.5,0,0.9,0.1,1.2,0.2h2.9v1L69,111c0.3,0.5,0.5,1,0.5,1.5
					s-0.1,1-0.4,1.4c-0.2,0.4-0.6,0.8-1.1,1C67.5,115.1,67,115.3,66.3,115.3z M64,118.8c0,0.5,0.2,0.9,0.7,1.2
					c0.4,0.3,1,0.4,1.7,0.4s1.2-0.1,1.6-0.4s0.6-0.7,0.6-1.2c0-0.3-0.1-0.6-0.4-0.9s-0.8-0.4-1.5-0.4c-0.6,0-1.1-0.1-1.5-0.2
					c-0.4,0.2-0.7,0.5-0.9,0.8C64,118.3,64,118.6,64,118.8z M66.3,114.2c0.6,0,1-0.1,1.3-0.4s0.5-0.7,0.5-1.3c0-0.5-0.2-1-0.5-1.3
					s-0.8-0.4-1.3-0.4c-0.6,0-1,0.2-1.4,0.4c-0.3,0.3-0.5,0.7-0.5,1.3s0.2,1,0.5,1.3C65.3,114,65.7,114.2,66.3,114.2z"/>
				<path class="st1" d="M75.2,118c-0.8,0-1.4-0.2-2-0.5s-1-0.8-1.4-1.5c-0.3-0.6-0.5-1.3-0.5-2.2c0-0.8,0.2-1.6,0.5-2.2
					s0.8-1.1,1.4-1.5s1.3-0.5,2.1-0.5c0.8,0,1.4,0.2,2,0.5s1,0.8,1.3,1.4s0.4,1.2,0.4,1.8c0,0.1,0,0.2,0,0.3s0,0.2,0,0.4h-6.3
					c0,0.6,0.2,1.1,0.4,1.5c0.2,0.4,0.6,0.7,0.9,0.9c0.4,0.2,0.8,0.3,1.2,0.3c0.5,0,1-0.1,1.4-0.4s0.6-0.6,0.8-1h1.3
					c-0.2,0.7-0.6,1.3-1.2,1.8C77,117.7,76.2,118,75.2,118z M75.2,110.8c-0.6,0-1.2,0.2-1.7,0.6s-0.8,1-0.9,1.7h5
					c0-0.7-0.3-1.3-0.7-1.7C76.5,111,75.9,110.8,75.2,110.8z"/>
				<path class="st1" d="M83.6,117.8c-0.7,0-1.3-0.2-1.7-0.5c-0.4-0.3-0.6-1-0.6-1.9V111h-1.4v-1.1h1.4l0.2-1.9h1.2v1.9H85v1.1h-2.3
					v4.4c0,0.5,0.1,0.8,0.3,1c0.2,0.2,0.6,0.3,1.1,0.3h0.8v1.2h-1.3V117.8z"/>
				<path class="st1" d="M93.8,118c-0.9,0-1.7-0.3-2.2-0.9s-0.8-1.5-0.8-2.6v-4.6h1.3v4.5c0,1.6,0.7,2.5,2,2.5
					c0.7,0,1.3-0.2,1.7-0.7c0.5-0.5,0.7-1.2,0.7-2.1V110h1.3v7.9h-1.2l-0.1-1.4c-0.2,0.5-0.6,0.9-1.1,1.2
					C95,117.8,94.4,118,93.8,118z"/>
				<path class="st1" d="M100.1,121.3v-11.5h1.2l0.1,1.3c0.3-0.4,0.6-0.7,1.1-1s1.1-0.5,1.8-0.5c0.8,0,1.5,0.2,2.1,0.5
					c0.6,0.4,1,0.9,1.4,1.5c0.3,0.6,0.5,1.3,0.5,2.1s-0.2,1.5-0.5,2.1s-0.8,1.1-1.4,1.5s-1.3,0.5-2.1,0.5c-0.7,0-1.2-0.1-1.7-0.4
					s-0.9-0.6-1.2-1.1v4.9h-1.3V121.3z M104.2,116.8c0.5,0,1-0.1,1.4-0.4s0.7-0.6,1-1c0.2-0.5,0.3-1,0.3-1.6s-0.1-1.1-0.3-1.6
					c-0.2-0.4-0.6-0.8-1-1s-0.9-0.4-1.4-0.4s-1,0.1-1.4,0.4c-0.4,0.2-0.7,0.6-1,1c-0.2,0.5-0.3,1-0.3,1.6s0.1,1.1,0.3,1.6
					c0.2,0.5,0.6,0.8,1,1C103.2,116.7,103.7,116.8,104.2,116.8z"/>
				<path class="st1" d="M116,117.8l-2.3-7.9h1.3l1.7,6.2l1.9-6.2h1.5l1.9,6.2l1.7-6.2h1.4l-2.3,7.9h-1.4l-2-6.5l-1.9,6.5H116z"/>
				<path class="st1" d="M126.4,117.8v-11.5h1.3v4.9c0.3-0.5,0.6-0.9,1.1-1.1c0.5-0.3,1-0.4,1.6-0.4c0.9,0,1.7,0.3,2.2,0.9
					c0.6,0.6,0.8,1.5,0.8,2.6v4.6h-1.3v-4.5c0-1.7-0.7-2.5-2-2.5c-0.7,0-1.3,0.2-1.7,0.7c-0.5,0.5-0.7,1.2-0.7,2.1v4.1L126.4,117.8
					L126.4,117.8z"/>
				<path class="st1" d="M139.2,118c-0.8,0-1.4-0.2-2-0.5s-1.1-0.8-1.4-1.5c-0.3-0.6-0.5-1.3-0.5-2.2c0-0.8,0.2-1.6,0.5-2.2
					s0.8-1.1,1.4-1.5c0.6-0.4,1.3-0.5,2.1-0.5s1.4,0.2,2,0.5s1,0.8,1.3,1.4s0.4,1.2,0.4,1.8c0,0.1,0,0.2,0,0.3c0,0.1,0,0.2,0,0.4
					h-6.3c0,0.6,0.2,1.1,0.4,1.5s0.6,0.7,0.9,0.9c0.4,0.2,0.8,0.3,1.2,0.3c0.6,0,1-0.1,1.4-0.4s0.7-0.6,0.8-1h1.3
					c-0.2,0.7-0.6,1.3-1.2,1.8C140.9,117.7,140.1,118,139.2,118z M139.2,110.8c-0.6,0-1.2,0.2-1.7,0.6s-0.8,1-0.9,1.7h5
					c0-0.7-0.3-1.3-0.7-1.7C140.4,111,139.8,110.8,139.2,110.8z"/>
				<path class="st1" d="M144.7,117.8v-7.9h1.2l0.1,1.4c0.3-0.5,0.6-0.9,1.1-1.2c0.5-0.3,1-0.4,1.6-0.4c0.9,0,1.7,0.3,2.2,0.9
					s0.8,1.5,0.8,2.6v4.6h-1.3v-4.5c0-1.7-0.7-2.5-2.1-2.5c-0.7,0-1.2,0.2-1.7,0.7c-0.4,0.5-0.7,1.2-0.7,2.1v4.1L144.7,117.8
					L144.7,117.8z"/>
				<path class="st1" d="M158.9,108.1c-0.3,0-0.5-0.1-0.7-0.3c-0.2-0.2-0.3-0.4-0.3-0.7c0-0.3,0.1-0.5,0.3-0.6
					c0.2-0.2,0.4-0.3,0.7-0.3s0.5,0.1,0.7,0.3c0.2,0.2,0.3,0.4,0.3,0.6c0,0.3-0.1,0.5-0.3,0.7C159.4,108,159.2,108.1,158.9,108.1z
					 M158.2,117.8v-7.9h1.3v7.9H158.2z"/>
				<path class="st1" d="M165.1,117.8c-0.7,0-1.3-0.2-1.7-0.5s-0.6-1-0.6-1.9V111h-1.4v-1.1h1.4l0.2-1.9h1.2v1.9h2.3v1.1h-2.3v4.4
					c0,0.5,0.1,0.8,0.3,1s0.6,0.3,1.1,0.3h0.8v1.2h-1.3V117.8z"/>
				<path class="st1" d="M172.8,117.8V111h-1.2v-1.1h1.2v-1.4c0-0.8,0.2-1.3,0.6-1.7c0.4-0.4,0.9-0.5,1.7-0.5h0.8v1.2h-0.6
					c-0.4,0-0.7,0.1-0.9,0.2s-0.3,0.5-0.3,0.8v1.3h1.9v1.1h-1.9v6.8L172.8,117.8L172.8,117.8z"/>
				<path class="st1" d="M180.9,118c-0.8,0-1.4-0.2-2-0.5s-1.1-0.8-1.4-1.5c-0.3-0.6-0.5-1.3-0.5-2.2c0-0.8,0.2-1.6,0.5-2.2
					s0.8-1.1,1.4-1.5c0.6-0.4,1.3-0.5,2.1-0.5s1.4,0.2,2,0.5s1,0.8,1.3,1.4s0.4,1.2,0.4,1.8c0,0.1,0,0.2,0,0.3c0,0.1,0,0.2,0,0.4
					h-6.3c0,0.6,0.2,1.1,0.4,1.5s0.6,0.7,0.9,0.9c0.4,0.2,0.8,0.3,1.2,0.3c0.6,0,1-0.1,1.4-0.4s0.6-0.6,0.8-1h1.3
					c-0.2,0.7-0.6,1.3-1.2,1.8C182.6,117.7,181.9,118,180.9,118z M180.9,110.8c-0.6,0-1.2,0.2-1.7,0.6s-0.8,1-0.9,1.7h5
					c0-0.7-0.3-1.3-0.7-1.7C182.2,111,181.6,110.8,180.9,110.8z"/>
				<path class="st1" d="M190,118c-0.8,0-1.4-0.2-2-0.5s-1.1-0.8-1.4-1.5c-0.3-0.6-0.5-1.3-0.5-2.2c0-0.8,0.2-1.6,0.5-2.2
					s0.8-1.1,1.4-1.5c0.6-0.4,1.3-0.5,2.1-0.5s1.4,0.2,2,0.5s1,0.8,1.3,1.4s0.4,1.2,0.4,1.8c0,0.1,0,0.2,0,0.3s0,0.2,0,0.4h-6.3
					c0,0.6,0.2,1.1,0.4,1.5s0.6,0.7,0.9,0.9c0.4,0.2,0.8,0.3,1.2,0.3c0.5,0,1-0.1,1.4-0.4s0.6-0.6,0.8-1h1.3
					c-0.2,0.7-0.6,1.3-1.2,1.8C191.7,117.7,191,118,190,118z M190,110.8c-0.6,0-1.2,0.2-1.7,0.6s-0.8,1-0.9,1.7h5
					c0-0.7-0.3-1.3-0.7-1.7C191.3,111,190.7,110.8,190,110.8z"/>
				<path class="st1" d="M195.6,117.8v-11.5h1.3v11.5H195.6z"/>
				<path class="st1" d="M202.2,118c-0.9,0-1.7-0.2-2.4-0.7c-0.6-0.5-1-1.1-1.1-1.9h1.4c0.1,0.4,0.3,0.8,0.7,1.1
					c0.3,0.3,0.8,0.5,1.4,0.5c0.6,0,1-0.1,1.2-0.4c0.3-0.2,0.4-0.5,0.4-0.9c0-0.5-0.2-0.8-0.5-1s-0.8-0.3-1.5-0.4
					c-0.4-0.1-0.9-0.2-1.3-0.4c-0.4-0.2-0.8-0.4-1.1-0.7c-0.3-0.3-0.4-0.7-0.4-1.2c0-0.7,0.3-1.3,0.8-1.7s1.2-0.7,2.1-0.7
					c0.8,0,1.5,0.2,2.1,0.6c0.5,0.4,0.9,1,0.9,1.8h-1.3c-0.1-0.4-0.2-0.7-0.5-1c-0.3-0.2-0.7-0.3-1.2-0.3s-0.9,0.1-1.1,0.3
					c-0.3,0.2-0.4,0.5-0.4,0.8s0.2,0.6,0.5,0.8c0.3,0.2,0.8,0.3,1.4,0.5c0.5,0.1,1,0.2,1.4,0.4c0.4,0.2,0.8,0.4,1.1,0.7
					c0.3,0.3,0.4,0.7,0.4,1.3c0,0.7-0.3,1.3-0.8,1.8C203.8,117.7,203.1,118,202.2,118z"/>
				<path class="st1" d="M211.4,117.8v-11.5h1.3v11.5H211.4z"/>
				<path class="st1" d="M215.7,108.1c-0.3,0-0.5-0.1-0.7-0.3c-0.2-0.2-0.3-0.4-0.3-0.7c0-0.3,0.1-0.5,0.3-0.6
					c0.2-0.2,0.4-0.3,0.7-0.3s0.5,0.1,0.7,0.3c0.2,0.2,0.3,0.4,0.3,0.6c0,0.3-0.1,0.5-0.3,0.7C216.2,108,216,108.1,215.7,108.1z
					 M215.1,117.8v-7.9h1.3v7.9H215.1z"/>
				<path class="st1" d="M218.7,117.8v-11.5h1.3v6.9l3.2-3.3h1.7l-3.5,3.6l4,4.4h-1.7l-3.6-4.1v4.1h-1.4V117.8z"/>
				<path class="st1" d="M229.8,118c-0.8,0-1.4-0.2-2-0.5s-1-0.8-1.4-1.5c-0.3-0.6-0.5-1.3-0.5-2.2c0-0.8,0.2-1.6,0.5-2.2
					s0.8-1.1,1.4-1.5c0.6-0.4,1.3-0.5,2.1-0.5s1.4,0.2,2,0.5s1,0.8,1.3,1.4s0.5,1.2,0.5,1.8c0,0.1,0,0.2,0,0.3c0,0.1,0,0.2,0,0.4
					h-6.3c0,0.6,0.2,1.1,0.4,1.5s0.6,0.7,0.9,0.9c0.4,0.2,0.8,0.3,1.2,0.3c0.6,0,1-0.1,1.4-0.4s0.6-0.6,0.8-1h1.3
					c-0.2,0.7-0.6,1.3-1.2,1.8C231.5,117.7,230.7,118,229.8,118z M229.8,110.8c-0.6,0-1.2,0.2-1.7,0.6s-0.8,1-0.9,1.7h5
					c0-0.7-0.3-1.3-0.7-1.7C231,111,230.5,110.8,229.8,110.8z"/>
				<path class="st1" d="M27.9,139.8v-0.9c0.8-0.6,1.5-1.2,2.2-1.8c0.7-0.6,1.3-1.2,1.8-1.8c0.5-0.6,0.9-1.2,1.2-1.8
					c0.3-0.6,0.5-1.1,0.5-1.7c0-0.4-0.1-0.8-0.2-1.1c-0.1-0.3-0.3-0.6-0.7-0.8c-0.3-0.2-0.7-0.3-1.2-0.3s-0.9,0.1-1.2,0.3
					c-0.3,0.2-0.6,0.5-0.7,0.9c-0.2,0.4-0.2,0.8-0.2,1.2h-1.5c0-0.7,0.1-1.4,0.5-1.9s0.7-0.9,1.3-1.2c0.5-0.3,1.1-0.4,1.8-0.4
					c1,0,1.8,0.3,2.4,0.8c0.6,0.6,1,1.4,1,2.5c0,0.7-0.2,1.3-0.5,2s-0.8,1.3-1.3,1.9s-1.1,1.2-1.6,1.7c-0.6,0.5-1.1,1-1.6,1.4h5.4
					v1.1h-7.4V139.8z"/>
				<path class="st1" d="M41.4,140c-1,0-1.8-0.2-2.6-0.7c-0.7-0.5-1.3-1.2-1.7-2c-0.4-0.9-0.6-1.9-0.6-3s0.2-2.2,0.6-3
					c0.4-0.9,0.9-1.5,1.7-2c0.7-0.5,1.6-0.7,2.6-0.7s1.8,0.2,2.6,0.7c0.7,0.5,1.3,1.2,1.7,2c0.4,0.9,0.6,1.9,0.6,3
					c0,1.2-0.2,2.2-0.6,3s-0.9,1.5-1.7,2C43.2,139.7,42.4,140,41.4,140z M41.4,138.8c0.7,0,1.2-0.2,1.8-0.6c0.5-0.4,0.9-0.9,1.2-1.6
					s0.4-1.5,0.4-2.5s-0.2-1.8-0.4-2.5s-0.7-1.2-1.2-1.6s-1.1-0.5-1.8-0.5s-1.2,0.2-1.8,0.5c-0.5,0.4-0.9,0.9-1.2,1.6
					s-0.5,1.5-0.5,2.5s0.2,1.8,0.5,2.5s0.7,1.2,1.2,1.6C40.1,138.6,40.7,138.8,41.4,138.8z"/>
				<path class="st1" d="M52.3,139.8v-7.9h1.2l0.1,1.1c0.3-0.4,0.6-0.8,1-1s0.9-0.3,1.4-0.3c0.6,0,1.2,0.1,1.6,0.4s0.8,0.6,1,1.2
					c0.3-0.5,0.7-0.9,1.1-1.1c0.5-0.3,1-0.4,1.6-0.4c0.9,0,1.7,0.3,2.3,0.9c0.6,0.6,0.9,1.5,0.9,2.6v4.6h-1.3v-4.5
					c0-0.8-0.2-1.4-0.5-1.9c-0.3-0.4-0.8-0.6-1.4-0.6s-1.2,0.2-1.6,0.7s-0.6,1.2-0.6,2.1v4.1h-1.3v-4.5c0-0.8-0.2-1.4-0.5-1.9
					c-0.3-0.4-0.8-0.6-1.4-0.6s-1.2,0.2-1.6,0.7c-0.4,0.5-0.6,1.2-0.6,2.1v4.1L52.3,139.8L52.3,139.8z"/>
				<path class="st1" d="M67.4,130.1c-0.3,0-0.5-0.1-0.7-0.3c-0.2-0.2-0.3-0.4-0.3-0.7c0-0.3,0.1-0.5,0.3-0.6
					c0.2-0.2,0.4-0.3,0.7-0.3s0.5,0.1,0.7,0.3c0.2,0.2,0.3,0.4,0.3,0.6c0,0.3-0.1,0.5-0.3,0.7S67.7,130.1,67.4,130.1z M66.7,139.8
					v-7.9H68v7.9H66.7z"/>
				<path class="st1" d="M70.4,139.8v-7.9h1.2l0.1,1.4c0.3-0.5,0.6-0.9,1.1-1.2c0.5-0.3,1-0.4,1.6-0.4c0.9,0,1.7,0.3,2.2,0.9
					s0.8,1.5,0.8,2.6v4.6h-1.3v-4.5c0-1.7-0.7-2.5-2-2.5c-0.7,0-1.2,0.2-1.7,0.7c-0.4,0.5-0.7,1.2-0.7,2.1v4.1L70.4,139.8
					L70.4,139.8z"/>
				<path class="st1" d="M82.6,140c-0.9,0-1.7-0.2-2.4-0.7c-0.6-0.5-1-1.1-1.1-1.9h1.4c0.1,0.4,0.3,0.8,0.7,1.1
					c0.4,0.3,0.8,0.5,1.5,0.5c0.6,0,1-0.1,1.2-0.4c0.3-0.2,0.4-0.5,0.4-0.9c0-0.5-0.2-0.8-0.5-1s-0.8-0.3-1.5-0.4
					c-0.4-0.1-0.8-0.2-1.3-0.4c-0.4-0.2-0.8-0.4-1.1-0.7c-0.3-0.3-0.4-0.7-0.4-1.2c0-0.7,0.3-1.3,0.8-1.7c0.5-0.4,1.2-0.7,2.1-0.7
					c0.8,0,1.5,0.2,2.1,0.6c0.5,0.4,0.9,1,0.9,1.8h-1.3c0-0.4-0.2-0.7-0.5-1s-0.7-0.3-1.2-0.3s-0.8,0.1-1.1,0.3s-0.4,0.5-0.4,0.9
					c0,0.3,0.2,0.6,0.5,0.8c0.3,0.2,0.8,0.3,1.4,0.5c0.5,0.1,1,0.2,1.4,0.4c0.4,0.2,0.8,0.4,1.1,0.7c0.3,0.3,0.4,0.7,0.4,1.3
					c0,0.7-0.3,1.3-0.8,1.8C84.3,139.7,83.5,140,82.6,140z"/>
				<path class="st1" d="M95.4,140c-0.8,0-1.4-0.2-2-0.5s-1.1-0.8-1.4-1.5s-0.5-1.4-0.5-2.2c0-0.8,0.2-1.6,0.5-2.2
					c0.4-0.6,0.8-1.1,1.4-1.5c0.6-0.3,1.3-0.5,2-0.5s1.4,0.2,2,0.5s1.1,0.8,1.4,1.5c0.3,0.6,0.5,1.4,0.5,2.2c0,0.8-0.2,1.6-0.5,2.2
					s-0.8,1.1-1.4,1.5C96.8,139.9,96.2,140,95.4,140z M95.4,138.8c0.5,0,0.9-0.1,1.3-0.3c0.4-0.2,0.7-0.6,1-1s0.4-1,0.4-1.7
					s-0.1-1.2-0.4-1.7c-0.2-0.5-0.6-0.8-0.9-1c-0.4-0.2-0.8-0.3-1.3-0.3s-0.9,0.1-1.3,0.3c-0.4,0.2-0.7,0.6-1,1s-0.4,1-0.4,1.7
					s0.1,1.2,0.4,1.7c0.2,0.5,0.6,0.8,0.9,1C94.6,138.7,95,138.8,95.4,138.8z"/>
				<path class="st1" d="M101.3,139.8v-7.9h1.2l0.1,1.5c0.2-0.5,0.6-0.9,1.1-1.2s1.1-0.5,1.9-0.5v1.4h-0.4c-0.5,0-0.9,0.1-1.3,0.2
					c-0.4,0.2-0.7,0.5-0.9,0.8c-0.2,0.4-0.3,0.9-0.3,1.6v4h-1.4V139.8z"/>
				<path class="st1" d="M112.2,143.3l2-4.3h-0.5l-3.2-7.2h1.5l2.6,6.2l2.8-6.2h1.4l-5.2,11.5H112.2z"/>
				<path class="st1" d="M123.1,140c-0.8,0-1.4-0.2-2-0.5s-1.1-0.8-1.4-1.5c-0.4-0.6-0.5-1.4-0.5-2.2c0-0.8,0.2-1.6,0.5-2.2
					c0.4-0.6,0.8-1.1,1.4-1.5c0.6-0.3,1.3-0.5,2-0.5c0.8,0,1.4,0.2,2,0.5s1.1,0.8,1.4,1.5c0.4,0.6,0.5,1.4,0.5,2.2
					c0,0.8-0.2,1.6-0.5,2.2c-0.4,0.6-0.8,1.1-1.4,1.5C124.5,139.8,123.8,140,123.1,140z M123.1,138.8c0.5,0,0.9-0.1,1.3-0.3
					c0.4-0.2,0.7-0.6,1-1s0.4-1,0.4-1.7s-0.1-1.2-0.4-1.7c-0.2-0.4-0.6-0.8-0.9-1c-0.4-0.2-0.8-0.3-1.3-0.3s-0.9,0.1-1.3,0.3
					c-0.4,0.2-0.7,0.6-1,1s-0.4,1-0.4,1.7s0.1,1.2,0.4,1.7s0.6,0.8,0.9,1C122.2,138.7,122.6,138.8,123.1,138.8z"/>
				<path class="st1" d="M131.8,140c-0.9,0-1.7-0.3-2.2-0.9c-0.6-0.6-0.8-1.5-0.8-2.6v-4.6h1.3v4.5c0,1.6,0.7,2.5,2,2.5
					c0.7,0,1.3-0.2,1.7-0.7s0.7-1.2,0.7-2.1V132h1.3v7.9h-1.2l-0.1-1.4c-0.2,0.5-0.6,0.9-1.1,1.2C133,139.8,132.4,140,131.8,140z"/>
				<path class="st1" d="M137.5,132.1l0.9-3.6h1.5l-1.5,3.6H137.5z"/>
				<path class="st1" d="M141.5,139.8v-7.9h1.2l0.1,1.5c0.2-0.5,0.6-0.9,1.1-1.2s1.1-0.5,1.9-0.5v1.4h-0.4c-0.5,0-0.9,0.1-1.3,0.2
					c-0.4,0.2-0.7,0.5-0.9,0.8c-0.2,0.4-0.4,0.9-0.4,1.6v4h-1.3V139.8z"/>
				<path class="st1" d="M150.6,140c-0.8,0-1.4-0.2-2-0.5s-1-0.8-1.4-1.5c-0.3-0.6-0.5-1.3-0.5-2.2c0-0.8,0.2-1.6,0.5-2.2
					s0.8-1.1,1.4-1.5c0.6-0.4,1.3-0.5,2.1-0.5s1.4,0.2,2,0.5s1,0.8,1.3,1.4s0.4,1.2,0.4,1.8c0,0.1,0,0.2,0,0.3c0,0.1,0,0.2,0,0.4
					h-6.3c0,0.6,0.2,1.1,0.4,1.5s0.6,0.7,0.9,0.9c0.4,0.2,0.8,0.3,1.2,0.3c0.6,0,1-0.1,1.4-0.4s0.6-0.6,0.8-1h1.3
					c-0.2,0.7-0.6,1.3-1.2,1.8C152.3,139.7,151.5,140,150.6,140z M150.6,132.8c-0.6,0-1.2,0.2-1.7,0.6s-0.8,1-0.9,1.7h5
					c0-0.7-0.3-1.3-0.7-1.7C151.8,133,151.2,132.8,150.6,132.8z"/>
				<path class="st1" d="M164.6,140c-0.7,0-1.2-0.1-1.7-0.4c-0.5-0.3-0.9-0.6-1.2-1.1l-0.1,1.3h-1.2v-11.5h1.3v4.9
					c0.3-0.4,0.6-0.7,1.1-1s1.1-0.5,1.8-0.5c0.8,0,1.5,0.2,2.1,0.5c0.6,0.4,1,0.9,1.4,1.5s0.5,1.3,0.5,2.1s-0.2,1.5-0.5,2.1
					s-0.8,1.1-1.4,1.5C166.1,139.8,165.4,140,164.6,140z M164.4,138.8c0.5,0,1-0.1,1.4-0.4s0.7-0.6,1-1c0.2-0.5,0.3-1,0.3-1.6
					s-0.1-1.1-0.3-1.6c-0.2-0.4-0.6-0.8-1-1s-0.9-0.4-1.4-0.4s-1,0.1-1.4,0.4c-0.4,0.2-0.7,0.6-1,1c-0.2,0.5-0.3,1-0.3,1.6
					s0.1,1.1,0.3,1.6s0.6,0.8,1,1C163.4,138.7,163.9,138.8,164.4,138.8z"/>
				<path class="st1" d="M174,140c-0.8,0-1.4-0.2-2-0.5s-1-0.8-1.4-1.5c-0.3-0.6-0.5-1.3-0.5-2.2c0-0.8,0.2-1.6,0.5-2.2
					s0.8-1.1,1.4-1.5c0.6-0.4,1.3-0.5,2.1-0.5s1.4,0.2,2,0.5s1,0.8,1.3,1.4s0.4,1.2,0.4,1.8c0,0.1,0,0.2,0,0.3c0,0.1,0,0.2,0,0.4
					h-6.3c0,0.6,0.2,1.1,0.4,1.5s0.6,0.7,0.9,0.9c0.4,0.2,0.8,0.3,1.2,0.3c0.6,0,1-0.1,1.4-0.4s0.7-0.6,0.8-1h1.3
					c-0.2,0.7-0.6,1.3-1.2,1.8C175.7,139.7,174.9,140,174,140z M174,132.8c-0.6,0-1.2,0.2-1.7,0.6s-0.8,1-0.9,1.7h5
					c0-0.7-0.3-1.3-0.7-1.7C175.2,133,174.6,132.8,174,132.8z"/>
				<path class="st1" d="M183.2,140c-0.8,0-1.4-0.2-2-0.5s-1.1-0.8-1.4-1.5c-0.3-0.6-0.5-1.3-0.5-2.2c0-0.8,0.2-1.6,0.5-2.2
					c0.4-0.6,0.8-1.1,1.4-1.5c0.6-0.4,1.3-0.5,2-0.5c0.9,0,1.7,0.2,2.4,0.7c0.6,0.5,1,1.2,1.2,2h-1.4c-0.1-0.5-0.4-0.9-0.8-1.1
					c-0.4-0.3-0.9-0.4-1.5-0.4c-0.4,0-0.9,0.1-1.3,0.3c-0.4,0.2-0.7,0.6-1,1s-0.4,1-0.4,1.7s0.1,1.2,0.4,1.7c0.2,0.4,0.6,0.8,1,1
					s0.8,0.3,1.3,0.3c0.6,0,1-0.1,1.5-0.4c0.4-0.3,0.7-0.7,0.8-1.2h1.4c-0.2,0.8-0.6,1.5-1.2,2C184.9,139.7,184.1,140,183.2,140z"/>
				<path class="st1" d="M192.2,140c-0.8,0-1.4-0.2-2-0.5s-1.1-0.8-1.4-1.5s-0.5-1.4-0.5-2.2c0-0.8,0.2-1.6,0.5-2.2
					c0.4-0.6,0.8-1.1,1.4-1.5c0.6-0.3,1.3-0.5,2-0.5c0.8,0,1.4,0.2,2,0.5s1.1,0.8,1.4,1.5c0.4,0.6,0.5,1.4,0.5,2.2
					c0,0.8-0.2,1.6-0.5,2.2s-0.8,1.1-1.4,1.5C193.7,139.8,193,140,192.2,140z M192.2,138.8c0.5,0,0.9-0.1,1.3-0.3
					c0.4-0.2,0.7-0.6,1-1s0.4-1,0.4-1.7s-0.1-1.2-0.4-1.7c-0.2-0.5-0.6-0.8-0.9-1c-0.4-0.2-0.8-0.3-1.3-0.3s-0.9,0.1-1.3,0.3
					c-0.4,0.2-0.7,0.6-1,1s-0.4,1-0.4,1.7s0.1,1.2,0.4,1.7c0.2,0.5,0.6,0.8,0.9,1C191.4,138.7,191.8,138.8,192.2,138.8z"/>
				<path class="st1" d="M198.1,139.8v-7.9h1.2l0.1,1.1c0.3-0.4,0.6-0.8,1-1s0.9-0.3,1.4-0.3c0.6,0,1.2,0.1,1.6,0.4
					c0.4,0.3,0.8,0.6,1.1,1.2c0.3-0.5,0.7-0.9,1.1-1.1c0.5-0.3,1-0.4,1.6-0.4c0.9,0,1.7,0.3,2.3,0.9s0.8,1.5,0.8,2.6v4.6H209v-4.5
					c0-0.8-0.2-1.4-0.5-1.9c-0.3-0.4-0.8-0.6-1.4-0.6c-0.6,0-1.2,0.2-1.6,0.7c-0.4,0.5-0.6,1.2-0.6,2.1v4.1h-1.3v-4.5
					c0-0.8-0.2-1.4-0.5-1.9s-0.8-0.6-1.4-0.6c-0.6,0-1.1,0.2-1.6,0.7c-0.4,0.5-0.6,1.2-0.6,2.1v4.1L198.1,139.8L198.1,139.8z"/>
				<path class="st1" d="M213.2,130.1c-0.3,0-0.5-0.1-0.7-0.3s-0.3-0.4-0.3-0.7c0-0.3,0.1-0.5,0.3-0.6c0.2-0.2,0.4-0.3,0.7-0.3
					s0.5,0.1,0.7,0.3c0.2,0.2,0.3,0.4,0.3,0.6c0,0.3-0.1,0.5-0.3,0.7C213.7,130,213.5,130.1,213.2,130.1z M212.6,139.8v-7.9h1.4v7.9
					H212.6z"/>
				<path class="st1" d="M216.2,139.8v-7.9h1.2l0.1,1.4c0.3-0.5,0.6-0.9,1.1-1.2c0.5-0.3,1-0.4,1.6-0.4c0.9,0,1.7,0.3,2.2,0.9
					s0.8,1.5,0.8,2.6v4.6h-1.3v-4.5c0-1.7-0.7-2.5-2.1-2.5c-0.7,0-1.2,0.2-1.7,0.7c-0.4,0.5-0.7,1.2-0.7,2.1v4.1L216.2,139.8
					L216.2,139.8z"/>
				<path class="st1" d="M228.5,137.3c-0.4,0-0.9-0.1-1.2-0.2l-0.8,0.8c0.1,0.1,0.3,0.2,0.4,0.2c0.2,0.1,0.4,0.1,0.8,0.2
					c0.3,0.1,0.8,0.1,1.4,0.2c1.1,0.1,1.8,0.3,2.3,0.7s0.7,1,0.7,1.6c0,0.5-0.1,0.9-0.4,1.3c-0.2,0.4-0.6,0.8-1.1,1
					c-0.5,0.3-1.2,0.4-2,0.4c-0.7,0-1.4-0.1-1.9-0.3c-0.6-0.2-1-0.5-1.3-0.8c-0.3-0.4-0.5-0.9-0.5-1.4c0-0.3,0.1-0.6,0.2-1
					s0.5-0.7,0.9-1c-0.2-0.1-0.4-0.2-0.6-0.3c-0.2-0.1-0.3-0.2-0.5-0.4v-0.4l1.4-1.3c-0.6-0.5-0.9-1.2-0.9-2.1c0-0.5,0.1-1,0.4-1.4
					c0.2-0.4,0.6-0.8,1.1-1s1-0.4,1.7-0.4c0.5,0,0.9,0.1,1.2,0.2h2.9v1l-1.5,0.1c0.3,0.5,0.5,1,0.5,1.5s-0.1,1-0.4,1.4
					c-0.2,0.4-0.6,0.8-1.1,1C229.8,137.1,229.2,137.3,228.5,137.3z M226.2,140.8c0,0.5,0.2,0.9,0.7,1.2c0.4,0.3,1,0.4,1.7,0.4
					s1.2-0.1,1.6-0.4c0.4-0.3,0.6-0.7,0.6-1.2c0-0.3-0.1-0.6-0.4-0.9s-0.8-0.4-1.5-0.4c-0.6,0-1.1-0.1-1.5-0.2
					c-0.4,0.2-0.7,0.5-0.9,0.8C226.3,140.3,226.2,140.6,226.2,140.8z M228.5,136.2c0.6,0,1-0.1,1.4-0.4c0.3-0.3,0.5-0.7,0.5-1.3
					c0-0.5-0.2-1-0.5-1.3s-0.8-0.4-1.4-0.4c-0.6,0-1,0.2-1.4,0.4s-0.5,0.7-0.5,1.3s0.2,1,0.5,1.3C227.5,136,228,136.2,228.5,136.2z"
					/>
				<path class="st1" d="M28.4,161.8V155h-1.2v-1.1h1.2v-1.4c0-0.8,0.2-1.3,0.6-1.7c0.4-0.4,0.9-0.5,1.7-0.5h0.8v1.2h-0.6
					c-0.4,0-0.7,0.1-0.9,0.2c-0.2,0.2-0.3,0.5-0.3,0.8v1.3h2v1.1h-2v6.8L28.4,161.8L28.4,161.8z"/>
				<path class="st1" d="M33.3,161.8v-7.9h1.2l0.1,1.5c0.2-0.5,0.6-0.9,1.1-1.2s1.1-0.5,1.9-0.5v1.4h-0.4c-0.5,0-0.9,0.1-1.3,0.2
					c-0.4,0.2-0.7,0.5-0.9,0.8c-0.2,0.4-0.4,0.9-0.4,1.6v4h-1.3V161.8z"/>
				<path class="st1" d="M42,162c-0.9,0-1.7-0.3-2.2-0.9c-0.5-0.6-0.8-1.5-0.8-2.6v-4.6h1.3v4.5c0,1.6,0.7,2.5,2,2.5
					c0.7,0,1.3-0.2,1.7-0.7c0.5-0.5,0.7-1.2,0.7-2.1V154H46v7.9h-1.2l-0.1-1.4c-0.2,0.5-0.6,0.9-1.1,1.2C43.1,161.8,42.6,162,42,162
					z"/>
				<path class="st1" d="M51.3,162c-1,0-1.7-0.2-2.4-0.7c-0.6-0.5-1-1.1-1.1-1.9h1.4c0.1,0.4,0.3,0.8,0.7,1.1
					c0.3,0.3,0.8,0.5,1.4,0.5c0.6,0,1-0.1,1.2-0.4c0.3-0.2,0.4-0.5,0.4-0.9c0-0.5-0.2-0.8-0.5-1s-0.8-0.3-1.5-0.4
					c-0.4-0.1-0.8-0.2-1.3-0.4c-0.4-0.2-0.8-0.4-1.1-0.7s-0.4-0.7-0.4-1.2c0-0.7,0.3-1.3,0.8-1.7s1.2-0.7,2.1-0.7
					c0.8,0,1.5,0.2,2.1,0.6c0.5,0.4,0.9,1,0.9,1.8h-1.3c0-0.4-0.2-0.7-0.5-1s-0.7-0.3-1.2-0.3s-0.8,0.1-1.1,0.3s-0.4,0.5-0.4,0.8
					s0.2,0.6,0.5,0.8s0.8,0.3,1.4,0.5c0.5,0.1,1,0.2,1.4,0.4s0.8,0.4,1.1,0.7s0.4,0.7,0.4,1.3c0,0.7-0.3,1.3-0.8,1.8
					C53,161.7,52.2,162,51.3,162z"/>
				<path class="st1" d="M59,161.8c-0.7,0-1.3-0.2-1.7-0.5c-0.4-0.3-0.6-1-0.6-1.9V155h-1.4v-1.1h1.4l0.2-1.9h1.2v1.9h2.3v1.1h-2.3
					v4.4c0,0.5,0.1,0.8,0.3,1c0.2,0.2,0.6,0.3,1.1,0.3h0.8v1.2L59,161.8L59,161.8z"/>
				<path class="st1" d="M62.1,161.8v-7.9h1.2l0.1,1.5c0.2-0.5,0.6-0.9,1.1-1.2c0.5-0.3,1.1-0.5,1.9-0.5v1.4H66
					c-0.5,0-0.9,0.1-1.3,0.2c-0.4,0.2-0.7,0.5-0.9,0.8c-0.2,0.4-0.4,0.9-0.4,1.6v4h-1.3V161.8z"/>
				<path class="st1" d="M70.5,162c-0.7,0-1.2-0.1-1.7-0.3c-0.4-0.2-0.8-0.5-1-0.9s-0.3-0.8-0.3-1.2c0-0.8,0.3-1.4,0.9-1.9
					c0.6-0.4,1.5-0.7,2.5-0.7H73v-0.1c0-0.7-0.2-1.2-0.5-1.6c-0.4-0.4-0.8-0.5-1.5-0.5c-0.5,0-1,0.1-1.4,0.4
					c-0.4,0.3-0.6,0.6-0.7,1.1h-1.4c0.1-0.6,0.2-1.1,0.6-1.5c0.3-0.4,0.8-0.7,1.3-0.9s1-0.3,1.6-0.3c1.1,0,1.9,0.3,2.5,0.9
					c0.6,0.6,0.8,1.4,0.8,2.4v4.9h-1.2l-0.1-1.4c-0.2,0.5-0.6,0.8-1,1.1C71.8,161.8,71.3,162,70.5,162z M70.7,160.8
					c0.5,0,0.9-0.1,1.3-0.4c0.4-0.3,0.7-0.6,0.8-1c0.2-0.4,0.3-0.9,0.3-1.3l0,0h-2c-0.8,0-1.3,0.1-1.7,0.4s-0.5,0.6-0.5,1
					s0.1,0.8,0.5,1C69.8,160.7,70.2,160.8,70.7,160.8z"/>
				<path class="st1" d="M79.5,161.8c-0.7,0-1.3-0.2-1.7-0.5c-0.4-0.3-0.6-1-0.6-1.9V155h-1.4v-1.1h1.4l0.2-1.9h1.2v1.9h2.3v1.1
					h-2.3v4.4c0,0.5,0.1,0.8,0.3,1c0.2,0.2,0.6,0.3,1.1,0.3h0.8v1.2L79.5,161.8L79.5,161.8z"/>
				<path class="st1" d="M85.9,162c-0.8,0-1.4-0.2-2-0.5s-1.1-0.8-1.4-1.5c-0.3-0.6-0.5-1.3-0.5-2.2c0-0.8,0.2-1.6,0.5-2.2
					c0.3-0.6,0.8-1.1,1.4-1.5s1.3-0.5,2.1-0.5c0.8,0,1.4,0.2,2,0.5s1,0.8,1.3,1.4c0.3,0.6,0.5,1.2,0.5,1.8c0,0.1,0,0.2,0,0.3
					s0,0.2,0,0.4h-6.3c0,0.6,0.2,1.1,0.4,1.5c0.2,0.4,0.6,0.7,0.9,0.9c0.4,0.2,0.8,0.3,1.2,0.3c0.6,0,1-0.1,1.4-0.4
					c0.4-0.3,0.7-0.6,0.8-1h1.3c-0.2,0.7-0.6,1.3-1.2,1.8C87.6,161.7,86.8,162,85.9,162z M85.9,154.8c-0.6,0-1.2,0.2-1.7,0.6
					c-0.5,0.4-0.8,1-0.9,1.7h5c0-0.7-0.3-1.3-0.7-1.7C87.1,155,86.5,154.8,85.9,154.8z"/>
				<path class="st1" d="M95,162c-0.8,0-1.5-0.2-2.1-0.5c-0.6-0.4-1-0.9-1.4-1.5s-0.5-1.3-0.5-2.1s0.2-1.5,0.5-2.1s0.8-1.1,1.4-1.5
					s1.3-0.5,2.1-0.5c0.7,0,1.2,0.1,1.7,0.4c0.5,0.3,0.9,0.6,1.2,1.1v-4.9h1.3v11.5H98l-0.1-1.4c-0.3,0.4-0.6,0.7-1.1,1
					S95.7,162,95,162z M95.1,160.8c0.5,0,1-0.1,1.4-0.4c0.4-0.2,0.7-0.6,1-1c0.2-0.5,0.3-1,0.3-1.6s-0.1-1.1-0.3-1.6
					c-0.2-0.4-0.6-0.8-1-1s-0.9-0.4-1.4-0.4s-1,0.1-1.4,0.4c-0.4,0.2-0.7,0.6-1,1c-0.2,0.5-0.3,1-0.3,1.6s0.1,1.1,0.3,1.6
					c0.2,0.5,0.5,0.8,1,1C94.1,160.7,94.6,160.8,95.1,160.8z"/>
				<path class="st1" d="M101.9,161.8c-0.3,0-0.5-0.1-0.7-0.3s-0.3-0.4-0.3-0.7s0.1-0.5,0.3-0.6c0.2-0.2,0.4-0.3,0.7-0.3
					s0.5,0.1,0.7,0.3s0.3,0.4,0.3,0.6s-0.1,0.5-0.3,0.7C102.4,161.7,102.2,161.8,101.9,161.8z"/>
				<path class="st1" d="M108.9,161.8v-11.2h3.4c2,0,3.4,0.5,4.4,1.5c0.9,1,1.4,2.4,1.4,4.1c0,1.7-0.5,3.1-1.4,4.1s-2.4,1.5-4.4,1.5
					L108.9,161.8L108.9,161.8z M110.2,160.6h2.1c1.1,0,1.9-0.2,2.6-0.5c0.6-0.4,1.1-0.9,1.4-1.5c0.3-0.7,0.4-1.5,0.4-2.4
					s-0.1-1.7-0.4-2.4s-0.7-1.2-1.4-1.5c-0.6-0.4-1.5-0.5-2.6-0.5h-2.1V160.6z"/>
				<path class="st1" d="M123.6,162c-0.8,0-1.4-0.2-2-0.5s-1.1-0.8-1.4-1.5c-0.4-0.6-0.5-1.4-0.5-2.2s0.2-1.6,0.5-2.2
					c0.4-0.6,0.8-1.1,1.4-1.5c0.6-0.3,1.3-0.5,2-0.5c0.8,0,1.4,0.2,2,0.5s1.1,0.8,1.4,1.5c0.4,0.6,0.5,1.4,0.5,2.2s-0.2,1.6-0.5,2.2
					c-0.4,0.6-0.8,1.1-1.4,1.5C125,161.8,124.3,162,123.6,162z M123.6,160.8c0.5,0,0.9-0.1,1.3-0.3c0.4-0.2,0.7-0.6,1-1
					s0.4-1,0.4-1.7s-0.1-1.2-0.4-1.7c-0.2-0.4-0.6-0.8-0.9-1c-0.4-0.2-0.8-0.3-1.3-0.3s-0.9,0.1-1.3,0.3c-0.4,0.2-0.7,0.6-1,1
					s-0.4,1-0.4,1.7s0.1,1.2,0.4,1.7s0.6,0.8,0.9,1C122.7,160.7,123.1,160.8,123.6,160.8z"/>
				<path class="st1" d="M136.7,162c-0.9,0-1.7-0.2-2.4-0.7c-0.6-0.5-1-1.1-1.1-1.9h1.4c0.1,0.4,0.3,0.8,0.7,1.1
					c0.3,0.3,0.8,0.5,1.4,0.5c0.6,0,1-0.1,1.2-0.4c0.3-0.2,0.4-0.5,0.4-0.9c0-0.5-0.2-0.8-0.5-1s-0.8-0.3-1.5-0.4
					c-0.4-0.1-0.9-0.2-1.3-0.4c-0.4-0.2-0.8-0.4-1.1-0.7s-0.4-0.7-0.4-1.2c0-0.7,0.3-1.3,0.8-1.7s1.2-0.7,2.1-0.7
					c0.8,0,1.5,0.2,2.1,0.6c0.5,0.4,0.9,1,0.9,1.8h-1.3c-0.1-0.4-0.2-0.7-0.5-1c-0.3-0.2-0.7-0.3-1.2-0.3s-0.9,0.1-1.1,0.3
					c-0.3,0.2-0.4,0.5-0.4,0.8s0.2,0.6,0.5,0.8s0.8,0.3,1.4,0.5c0.5,0.1,1,0.2,1.4,0.4s0.8,0.4,1.1,0.7s0.4,0.7,0.4,1.3
					c0,0.7-0.3,1.3-0.8,1.8C138.4,161.7,137.6,162,136.7,162z"/>
				<path class="st1" d="M145.3,162c-0.8,0-1.4-0.2-2-0.5s-1.1-0.8-1.4-1.5c-0.3-0.6-0.5-1.4-0.5-2.2s0.2-1.6,0.5-2.2
					c0.4-0.6,0.8-1.1,1.4-1.5c0.6-0.3,1.3-0.5,2-0.5c0.8,0,1.4,0.2,2,0.5s1.1,0.8,1.4,1.5c0.3,0.6,0.5,1.4,0.5,2.2s-0.2,1.6-0.5,2.2
					c-0.3,0.6-0.8,1.1-1.4,1.5C146.7,161.8,146,162,145.3,162z M145.3,160.8c0.5,0,0.9-0.1,1.3-0.3c0.4-0.2,0.7-0.6,1-1
					s0.4-1,0.4-1.7s-0.1-1.2-0.4-1.7c-0.2-0.5-0.6-0.8-0.9-1c-0.4-0.2-0.8-0.3-1.3-0.3s-0.9,0.1-1.3,0.3c-0.4,0.2-0.7,0.6-1,1
					s-0.4,1-0.4,1.7s0.1,1.2,0.4,1.7c0.2,0.5,0.6,0.8,0.9,1C144.4,160.7,144.8,160.8,145.3,160.8z"/>
				<path class="st1" d="M151.1,161.8v-7.9h1.2l0.1,1.1c0.3-0.4,0.6-0.8,1-1s0.9-0.3,1.4-0.3c0.6,0,1.2,0.1,1.6,0.4
					c0.4,0.3,0.8,0.6,1.1,1.2c0.3-0.5,0.7-0.9,1.1-1.1c0.5-0.3,1-0.4,1.6-0.4c0.9,0,1.7,0.3,2.3,0.9c0.6,0.6,0.9,1.5,0.9,2.6v4.6
					h-1.3v-4.5c0-0.8-0.2-1.4-0.5-1.9c-0.3-0.4-0.8-0.6-1.4-0.6c-0.6,0-1.2,0.2-1.6,0.7c-0.4,0.5-0.6,1.2-0.6,2.1v4.1h-1.3v-4.5
					c0-0.8-0.2-1.4-0.5-1.9s-0.8-0.6-1.4-0.6c-0.6,0-1.2,0.2-1.6,0.7c-0.4,0.5-0.6,1.2-0.6,2.1v4.1L151.1,161.8L151.1,161.8z"/>
				<path class="st1" d="M169,162c-0.8,0-1.4-0.2-2-0.5s-1.1-0.8-1.4-1.5c-0.3-0.6-0.5-1.3-0.5-2.2c0-0.8,0.2-1.6,0.5-2.2
					s0.8-1.1,1.4-1.5c0.6-0.4,1.3-0.5,2.1-0.5s1.4,0.2,2,0.5s1,0.8,1.3,1.4s0.4,1.2,0.4,1.8c0,0.1,0,0.2,0,0.3s0,0.2,0,0.4h-6.3
					c0,0.6,0.2,1.1,0.4,1.5s0.6,0.7,0.9,0.9c0.4,0.2,0.8,0.3,1.2,0.3c0.5,0,1-0.1,1.4-0.4c0.4-0.3,0.6-0.6,0.8-1h1.3
					c-0.2,0.7-0.6,1.3-1.2,1.8C170.7,161.7,169.9,162,169,162z M169,154.8c-0.6,0-1.2,0.2-1.7,0.6c-0.5,0.4-0.8,1-0.9,1.7h5
					c0-0.7-0.3-1.3-0.7-1.7C170.2,155,169.7,154.8,169,154.8z"/>
				<path class="st1" d="M177.4,161.8c-0.7,0-1.3-0.2-1.7-0.5s-0.6-1-0.6-1.9V155h-1.4v-1.1h1.4l0.2-1.9h1.2v1.9h2.3v1.1h-2.3v4.4
					c0,0.5,0.1,0.8,0.3,1s0.6,0.3,1.1,0.3h0.8v1.2L177.4,161.8L177.4,161.8z"/>
				<path class="st1" d="M180.5,161.8v-11.5h1.3v4.9c0.3-0.5,0.7-0.9,1.1-1.1c0.5-0.3,1-0.4,1.6-0.4c0.9,0,1.6,0.3,2.2,0.9
					c0.5,0.6,0.8,1.5,0.8,2.6v4.6h-1.3v-4.5c0-1.7-0.7-2.5-2-2.5c-0.7,0-1.3,0.2-1.7,0.7c-0.5,0.5-0.7,1.2-0.7,2.1v4.1L180.5,161.8
					L180.5,161.8z"/>
				<path class="st1" d="M190.4,152.1c-0.3,0-0.5-0.1-0.7-0.3s-0.3-0.4-0.3-0.7s0.1-0.5,0.3-0.6c0.2-0.2,0.4-0.3,0.7-0.3
					s0.5,0.1,0.7,0.3s0.3,0.4,0.3,0.6c0,0.3-0.1,0.5-0.3,0.7S190.7,152.1,190.4,152.1z M189.8,161.8v-7.9h1.3v7.9H189.8z"/>
				<path class="st1" d="M193.4,161.8v-7.9h1.2l0.1,1.4c0.3-0.5,0.6-0.9,1.1-1.2s1-0.4,1.6-0.4c0.9,0,1.7,0.3,2.2,0.9
					s0.8,1.5,0.8,2.6v4.6h-1.3v-4.5c0-1.7-0.7-2.5-2.1-2.5c-0.7,0-1.2,0.2-1.7,0.7c-0.4,0.5-0.7,1.2-0.7,2.1v4.1L193.4,161.8
					L193.4,161.8z"/>
				<path class="st1" d="M205.7,159.3c-0.5,0-0.9-0.1-1.2-0.2l-0.8,0.8c0.1,0.1,0.3,0.2,0.4,0.2c0.2,0.1,0.4,0.1,0.8,0.2
					c0.3,0.1,0.8,0.1,1.4,0.2c1.1,0.1,1.8,0.3,2.3,0.7s0.7,1,0.7,1.6c0,0.5-0.1,0.9-0.4,1.3c-0.2,0.4-0.6,0.8-1.1,1
					c-0.5,0.3-1.2,0.4-2,0.4c-0.7,0-1.3-0.1-1.9-0.3s-1-0.5-1.3-0.8c-0.3-0.4-0.5-0.9-0.5-1.4c0-0.3,0.1-0.6,0.2-1s0.5-0.7,0.9-1
					c-0.2-0.1-0.4-0.2-0.6-0.3c-0.2-0.1-0.3-0.2-0.5-0.4v-0.4l1.4-1.3c-0.6-0.5-0.9-1.2-0.9-2.1c0-0.5,0.1-1,0.4-1.4
					c0.2-0.4,0.6-0.8,1.1-1s1-0.4,1.7-0.4c0.5,0,0.9,0.1,1.2,0.2h2.9v1l-1.5,0.1c0.3,0.5,0.5,1,0.5,1.5s-0.1,1-0.4,1.4
					c-0.2,0.4-0.6,0.8-1.1,1C207,159.1,206.4,159.3,205.7,159.3z M203.4,162.8c0,0.5,0.2,0.9,0.7,1.2s1,0.4,1.7,0.4s1.2-0.1,1.6-0.4
					c0.4-0.3,0.6-0.7,0.6-1.2c0-0.3-0.1-0.6-0.4-0.9s-0.8-0.4-1.5-0.4c-0.6,0-1.1-0.1-1.5-0.2c-0.4,0.2-0.7,0.5-0.9,0.8
					S203.4,162.6,203.4,162.8z M205.7,158.2c0.6,0,1-0.1,1.3-0.4c0.3-0.3,0.5-0.7,0.5-1.3c0-0.5-0.2-1-0.5-1.3s-0.8-0.4-1.3-0.4
					c-0.6,0-1,0.2-1.4,0.4s-0.5,0.7-0.5,1.3s0.2,1,0.5,1.3C204.7,158,205.2,158.2,205.7,158.2z"/>
				<path class="st1" d="M218.8,161.8c-0.7,0-1.3-0.2-1.7-0.5s-0.6-1-0.6-1.9V155h-1.4v-1.1h1.4l0.2-1.9h1.2v1.9h2.3v1.1h-2.3v4.4
					c0,0.5,0.1,0.8,0.3,1s0.6,0.3,1.1,0.3h0.8v1.2L218.8,161.8L218.8,161.8z"/>
				<path class="st1" d="M225.2,162c-0.8,0-1.4-0.2-2-0.5s-1.1-0.8-1.4-1.5c-0.3-0.6-0.5-1.4-0.5-2.2s0.2-1.6,0.5-2.2
					c0.3-0.6,0.8-1.1,1.4-1.5c0.6-0.3,1.3-0.5,2-0.5s1.4,0.2,2,0.5s1.1,0.8,1.4,1.5c0.3,0.6,0.5,1.4,0.5,2.2s-0.2,1.6-0.5,2.2
					c-0.3,0.6-0.8,1.1-1.4,1.5S226,162,225.2,162z M225.2,160.8c0.5,0,0.9-0.1,1.3-0.3c0.4-0.2,0.7-0.6,1-1s0.4-1,0.4-1.7
					s-0.1-1.2-0.4-1.7c-0.2-0.5-0.6-0.8-0.9-1c-0.4-0.2-0.8-0.3-1.3-0.3s-0.9,0.1-1.3,0.3c-0.4,0.2-0.7,0.6-1,1s-0.4,1-0.4,1.7
					s0.1,1.2,0.4,1.7c0.2,0.5,0.6,0.8,0.9,1C224.4,160.7,224.8,160.8,225.2,160.8z"/>
				<path class="st1" d="M235.3,161.8v-7.9h1.2l0.1,1.5c0.2-0.5,0.6-0.9,1.1-1.2s1.1-0.5,1.9-0.5v1.4h-0.4c-0.5,0-0.9,0.1-1.3,0.2
					c-0.4,0.2-0.7,0.5-0.9,0.8c-0.2,0.4-0.4,0.9-0.4,1.6v4h-1.3V161.8z"/>
				<path class="st1" d="M244.4,162c-0.8,0-1.4-0.2-2-0.5s-1-0.8-1.4-1.5c-0.3-0.6-0.5-1.3-0.5-2.2c0-0.8,0.2-1.6,0.5-2.2
					c0.3-0.6,0.8-1.1,1.4-1.5c0.6-0.4,1.3-0.5,2.1-0.5s1.4,0.2,2,0.5s1,0.8,1.3,1.4c0.3,0.6,0.5,1.2,0.5,1.8c0,0.1,0,0.2,0,0.3
					s0,0.2,0,0.4H242c0,0.6,0.2,1.1,0.4,1.5s0.6,0.7,0.9,0.9c0.4,0.2,0.8,0.3,1.2,0.3c0.5,0,1-0.1,1.4-0.4c0.4-0.3,0.6-0.6,0.8-1
					h1.3c-0.2,0.7-0.6,1.3-1.2,1.8C246.1,161.7,245.4,162,244.4,162z M244.4,154.8c-0.6,0-1.2,0.2-1.7,0.6c-0.5,0.4-0.8,1-0.9,1.7h5
					c0-0.7-0.3-1.3-0.7-1.7C245.7,155,245.1,154.8,244.4,154.8z"/>
				<path class="st1" d="M250,161.8v-11.5h1.3v11.5H250z"/>
				<path class="st1" d="M256.1,162c-0.7,0-1.2-0.1-1.6-0.3s-0.8-0.5-1-0.9s-0.3-0.8-0.3-1.2c0-0.8,0.3-1.4,0.9-1.9s1.5-0.7,2.5-0.7
					h2.1v-0.1c0-0.7-0.2-1.2-0.5-1.6c-0.4-0.4-0.9-0.5-1.5-0.5c-0.5,0-1,0.1-1.4,0.4s-0.6,0.6-0.7,1.1h-1.4c0-0.6,0.2-1.1,0.6-1.5
					c0.3-0.4,0.8-0.7,1.3-0.9s1-0.3,1.6-0.3c1.1,0,1.9,0.3,2.5,0.9c0.6,0.6,0.8,1.4,0.8,2.4v4.9h-1.1l-0.1-1.4
					c-0.2,0.5-0.6,0.8-1,1.1S256.9,162,256.1,162z M256.4,160.8c0.5,0,0.9-0.1,1.3-0.4c0.4-0.3,0.7-0.6,0.8-1
					c0.2-0.4,0.3-0.9,0.3-1.3l0,0h-2c-0.8,0-1.4,0.1-1.7,0.4c-0.3,0.3-0.5,0.6-0.5,1s0.1,0.8,0.5,1
					C255.4,160.7,255.8,160.8,256.4,160.8z"/>
				<path class="st1" d="M261.4,161.8l2.8-4l-2.8-4h1.5l2.2,3.3l2.2-3.3h1.4l-2.8,4l2.8,4h-1.4l-2.2-3.3l-2.2,3.3H261.4z"/>
				<path class="st1" d="M269.1,163.7l0.9-3.5h1.4l-1.4,3.5H269.1z"/>
				<path class="st1" d="M30.6,184c-0.7,0-1.2-0.1-1.7-0.3c-0.4-0.2-0.8-0.5-1-0.9s-0.3-0.8-0.3-1.2c0-0.8,0.3-1.4,0.9-1.9
					c0.6-0.4,1.5-0.7,2.5-0.7h2.1v-0.1c0-0.7-0.2-1.2-0.5-1.6c-0.4-0.4-0.8-0.5-1.5-0.5c-0.5,0-1,0.1-1.3,0.4
					c-0.4,0.3-0.6,0.6-0.7,1.1h-1.4c0-0.6,0.2-1.1,0.6-1.5c0.3-0.4,0.8-0.7,1.3-0.9s1-0.3,1.6-0.3c1.1,0,1.9,0.3,2.5,0.9
					c0.6,0.6,0.8,1.4,0.8,2.4v4.9h-1.2l-0.1-1.4c-0.2,0.5-0.5,0.8-1,1.1C31.9,183.8,31.3,184,30.6,184z M30.8,182.8
					c0.5,0,1-0.1,1.3-0.4c0.4-0.3,0.6-0.6,0.8-1s0.3-0.9,0.3-1.3l0,0h-2c-0.8,0-1.3,0.1-1.7,0.4s-0.5,0.6-0.5,1s0.2,0.8,0.5,1
					C29.8,182.7,30.2,182.8,30.8,182.8z"/>
				<path class="st1" d="M36.6,183.8v-7.9h1.2l0.1,1.4c0.3-0.5,0.6-0.9,1.1-1.2s1-0.4,1.6-0.4c0.9,0,1.7,0.3,2.2,0.9
					c0.6,0.6,0.8,1.5,0.8,2.6v4.6h-1.3v-4.5c0-1.7-0.7-2.5-2.1-2.5c-0.7,0-1.2,0.2-1.7,0.7s-0.7,1.2-0.7,2.1v4.1L36.6,183.8
					L36.6,183.8z"/>
				<path class="st1" d="M49.4,184c-0.8,0-1.5-0.2-2.1-0.5c-0.6-0.4-1.1-0.9-1.4-1.5c-0.3-0.6-0.5-1.3-0.5-2.1s0.2-1.5,0.5-2.1
					s0.8-1.1,1.4-1.5c0.6-0.4,1.3-0.5,2.1-0.5c0.6,0,1.2,0.1,1.7,0.4c0.5,0.3,0.9,0.6,1.2,1.1v-4.9h1.3v11.5h-1.2l-0.1-1.3
					c-0.3,0.4-0.6,0.7-1.1,1C50.7,183.8,50.1,184,49.4,184z M49.5,182.8c0.5,0,1-0.1,1.4-0.4c0.4-0.2,0.7-0.6,1-1
					c0.2-0.5,0.3-1,0.3-1.6s-0.1-1.1-0.3-1.6c-0.2-0.4-0.6-0.8-1-1s-0.9-0.4-1.4-0.4s-1,0.1-1.4,0.4c-0.4,0.2-0.7,0.6-1,1
					c-0.2,0.5-0.3,1-0.3,1.6s0.1,1.1,0.3,1.6s0.6,0.8,1,1C48.5,182.7,49,182.8,49.5,182.8z"/>
				<path class="st2" d="M65.9,171.5c0.4-0.3,1-0.5,1.6-0.5c0.1,0,0.2,0,0.5,0s0.5,0,0.7,0c2.9,0.1,4.6,0.3,5.2,0.7
					c0.5,0.2,0.8,0.6,0.8,1.2c0,0.2-0.1,0.5-0.2,0.8c-0.2,0.4-0.6,0.6-1.3,0.7c-0.6,0.1-1,0.2-1.1,0.3s-0.2,2.7-0.2,7.9
					c0,2,0,5.1,0.1,9.4v0.6c0,0.5,0,0.8-0.1,1s-0.2,0.4-0.5,0.6c-0.4,0.4-0.7,0.5-1.1,0.5c-0.3,0-0.7-0.1-1.1-0.5
					c-0.4-0.2-0.6-0.4-0.6-0.6c-0.1-0.2-0.1-0.7-0.2-1.6c0-0.3,0-1,0-2.1s0-2,0-2.8c0-0.6,0-1.8,0-3.4c0-1.7,0-3,0-4v-1.9
					c0-1.8,0-2.8-0.1-3.1s-0.5-0.5-1.3-0.6s-1.3-0.3-1.5-0.6s-0.3-0.6-0.3-1C65.2,172.3,65.4,171.9,65.9,171.5z"/>
				<path class="st2" d="M80.7,171.2c0.1-0.1,0.6-0.2,1.4-0.2c1,0,1.7,0.1,2.1,0.2c0.7,0.3,1.2,0.8,1.5,1.3c0.3,0.6,0.6,1.5,0.7,2.8
					c0.1,1.1,0.2,1.8,0.2,2.3c0,2.2-0.5,3.9-1.5,5.3c-0.2,0.2-0.1,0.6,0.3,1.1c0.3,0.5,0.6,0.9,0.7,1.2c0.1,0.4,0.5,1.1,1,2.1
					c1,1.8,1.5,3.2,1.5,4c0,0.5-0.1,0.8-0.3,1.1c-0.2,0.3-0.5,0.5-0.8,0.5c-0.2,0-0.5,0-0.7,0c-0.7-0.1-1.2-0.2-1.3-0.3
					c-0.2-0.1-0.3-0.3-0.3-0.7c0-0.5-0.3-1.4-0.9-2.5c-0.6-1.2-1-1.7-1.3-1.7l0,0c-0.1,0-0.1,0.3-0.1,0.8c0,0.7,0.1,1.6,0.3,2.9
					c0.1,0.5,0.1,0.8,0.1,0.9c0,1-0.2,1.6-0.6,1.8c-0.2,0.1-0.4,0.1-0.7,0.1c-0.9,0-1.5-0.2-1.7-0.7c-0.2-0.3-0.3-2.2-0.3-5.6
					c-0.1-5.6-0.2-9.7-0.5-12.2c-0.1-1.1-0.2-2-0.2-2.5s0.1-0.9,0.3-1.2c0.3-0.4,0.5-0.6,0.8-0.6C80.4,171.4,80.6,171.3,80.7,171.2z
					 M83.2,175c-0.2-0.6-0.4-0.9-0.6-1l0,0c-0.1,0-0.2,0.3-0.2,0.8c0,0.1,0,0.8,0.1,2.2c0.1,2.1,0.2,3.2,0.2,3.2
					c0.1,0.1,0.2,0,0.4-0.2c0.2-0.2,0.3-1.2,0.3-2.9C83.4,176.1,83.3,175.3,83.2,175z"/>
				<path class="st2" d="M95.1,171.6c0.4-0.2,0.8-0.2,1.1-0.2c0.5,0,0.9,0.2,1.3,0.7c0.3,0.4,0.5,0.7,0.5,1v0.1c0,0.1,0,0.1,0,0.2
					c0,0,0,0.1,0,0.2c0,0.1,0,0.1,0,0.2c0,0.9,0.2,2.3,0.7,4.2c0.4,1.9,0.8,2.8,1,2.8c0.1,0,0.1,0,0.1-0.1c0.2-0.6,0.4-2.4,0.5-5.3
					l0.1-3c0-0.2,0.3-0.4,0.9-0.7s1.1-0.4,1.4-0.4c0.6,0,1,0.2,1.3,0.7c0.2,0.4,0.4,0.8,0.4,1.2c0,0.5-0.2,2.9-0.6,7
					c-0.7,7.1-1.9,11.6-3.6,13.4c-1.9,1.9-3.4,2.8-4.5,2.8c-0.5,0-1.1-0.2-1.6-0.5c-0.5-0.4-0.8-0.6-0.8-0.8c0-0.3,0.2-0.7,0.5-1.1
					s0.7-0.7,1.2-0.9c0.7-0.3,1.1-0.6,1.1-0.7c0-0.2,0.1-0.3,0.4-0.5c1-0.8,1.8-2.6,2.5-5.5c0.1-0.4,0.1-0.7,0.1-0.9
					s-0.1-0.3-0.2-0.5c-0.2-0.2-0.5-0.3-0.6-0.3c-0.2,0-0.5-0.2-1-0.5c-0.5-0.4-0.8-0.7-1-0.9c-0.4-0.6-0.8-2-1.2-4.1
					c-0.2-1.2-0.3-1.9-0.4-2.2c-0.3-1.3-0.5-2.4-0.5-3.2C94,172.5,94.4,171.9,95.1,171.6z"/>
				<path class="st2" d="M124,172.7c0.5-0.1,0.9-0.2,1.3-0.2c0.8,0,1.4,0.2,1.9,0.5c0.4,0.2,0.7,0.7,0.9,1.3
					c0.2,0.6,0.4,1.7,0.6,3.2c0.3,2,0.4,3.1,0.5,3.2c0.1,0.3,0.2,1.1,0.4,2.4c0.2,1.3,0.2,2.2,0.2,2.6c0,0.1,0,0.2,0,0.3
					s0,0.2,0,0.4c0,0.7,0.1,1.9,0.2,3.4s0.3,2.6,0.4,3.3c0.1,0.4,0.1,0.7,0.1,0.8c0,0.9-0.3,1.5-1,1.6h-0.1h-0.1
					c-0.4,0-0.8-0.1-1.4-0.3c-0.5-0.2-0.8-0.4-1-0.7s-0.3-1.5-0.5-3.5c-0.1-2-0.3-3.1-0.5-3.3c-0.1-0.1-0.4-0.2-0.9-0.2
					c-0.4,0-0.7,0-0.9,0l-1.6,0.1l0.1,1.5c0.1,1.6,0.2,2.9,0.2,3.7v0.5c0,0.2-0.2,0.4-0.5,0.5c-0.3,0.2-0.7,0.2-1.1,0.2
					c-0.3,0-0.6,0-0.8-0.1c-0.5-0.2-0.8-0.4-1-0.6c-0.2-0.2-0.2-0.7-0.2-1.5c0-0.6,0-1.5,0.1-2.6c0.2-2.7,0.3-4.6,0.4-5.7
					c0.1-2.1,0.3-3.7,0.5-4.8s0.5-2.1,1-3.2C121.8,174.1,122.7,173.1,124,172.7z M125.2,177.3c-0.1-0.5-0.2-0.8-0.4-0.8
					s-0.5,0.4-0.9,1.3c-0.4,1-0.7,2.3-1,3.9c-0.1,1-0.2,1.6-0.2,1.7c0,0.4,0.1,0.7,0.2,0.9c0.2,0.2,0.5,0.2,0.9,0.2
					c0.1,0,0.2,0,0.3,0c0.2,0,0.3,0,0.4,0l1.2-0.1l-0.1-2.5C125.6,180.7,125.5,179.1,125.2,177.3z"/>
				<path class="st2" d="M138.4,172.3c0.1-0.2,0.3-0.3,0.5-0.3s0.6,0.2,1.2,0.6c0.6,0.4,1,0.7,1.1,0.9c0.1,0.3,0.2,0.5,0.2,0.8
					c0,0.2-0.1,0.3-0.2,0.3c-0.3,0-0.8,0.2-1.4,0.5s-1.1,0.6-1.2,0.9c-0.4,0.7-0.7,2.8-0.7,6.2c0,1.1,0,1.9,0.1,2.4
					c0.3,3.5,0.6,5.6,0.8,6.2v0.1c0.2,0,0.4-1.1,0.4-3.2c0.1-1.3,0.1-2,0.2-2.3c0.1-0.5,0.1-0.9-0.2-1.2c-0.4-0.4-0.6-0.8-0.6-1.2
					s0.2-0.7,0.6-0.9c0.4-0.2,0.9-0.4,1.6-0.4c0.3,0,0.6,0,0.7,0c1.2,0.2,1.8,0.8,1.8,1.9c0,0.4-0.1,0.8-0.2,1.2
					c-0.1,0.5-0.3,1.6-0.4,3.4c-0.1,1.7-0.2,3-0.3,3.7s-0.4,1.4-0.8,1.9c-0.7,1-1.6,1.5-2.9,1.5c-0.7,0-1.3-0.2-1.8-0.6
					c-1.6-1.2-2.4-5.4-2.4-12.4v-0.6c0-2,0-3.4,0.1-3.9c0.1-0.6,0.2-1.2,0.5-2c0.7-1.9,1.5-2.9,2.3-3.2
					C137.9,172.7,138.2,172.5,138.4,172.3z"/>
				<path class="st2" d="M152.7,172.7c0.5-0.1,0.9-0.2,1.3-0.2c0.8,0,1.4,0.2,1.8,0.5c0.4,0.2,0.7,0.7,0.9,1.3s0.4,1.7,0.6,3.2
					c0.3,2,0.4,3.1,0.5,3.2c0.1,0.3,0.2,1.1,0.4,2.4c0.2,1.3,0.2,2.2,0.2,2.6c0,0.1,0,0.2,0,0.3s0,0.2,0,0.4c0,0.7,0.1,1.9,0.2,3.4
					c0.1,1.5,0.3,2.6,0.4,3.3c0.1,0.4,0.1,0.7,0.1,0.8c0,0.9-0.3,1.5-1,1.6H158c-0.1,0-0.1,0-0.1,0c-0.4,0-0.9-0.1-1.4-0.3
					s-0.9-0.4-1-0.7c-0.2-0.3-0.3-1.5-0.5-3.5c-0.1-2-0.3-3.1-0.5-3.3c-0.1-0.1-0.4-0.2-0.9-0.2c-0.4,0-0.7,0-0.9,0l-1.6,0.1
					l0.1,1.5c0.1,1.6,0.2,2.9,0.2,3.7v0.5c0,0.2-0.2,0.4-0.5,0.5c-0.3,0.2-0.7,0.2-1.1,0.2c-0.3,0-0.6,0-0.8-0.1
					c-0.5-0.2-0.8-0.4-0.9-0.6c-0.2-0.2-0.2-0.7-0.2-1.5c0-0.6,0-1.5,0.1-2.6c0.2-2.7,0.3-4.6,0.4-5.7c0.1-2.1,0.3-3.7,0.5-4.8
					s0.5-2.1,1-3.2C150.5,174.1,151.5,173.1,152.7,172.7z M153.9,177.3c-0.1-0.5-0.2-0.8-0.4-0.8s-0.5,0.4-0.9,1.3
					c-0.4,1-0.7,2.3-1,3.9c-0.1,1-0.2,1.6-0.2,1.7c0,0.4,0.1,0.7,0.2,0.9s0.5,0.2,0.9,0.2c0.1,0,0.2,0,0.3,0s0.3,0,0.4,0l1.2-0.1
					l-0.1-2.5C154.4,180.7,154.2,179.1,153.9,177.3z"/>
				<path class="st2" d="M163.7,172.6c0.3-0.2,0.7-0.4,1.2-0.4c0.6,0,1,0.2,1.3,0.5c0.2,0.3,0.4,0.7,0.5,1.2
					c0.1,0.6,0.1,2.3,0.2,5.2c0.1,5.7,0.2,9.1,0.2,10.3v4.5l-0.7,0.4c-0.4,0.2-0.6,0.3-0.7,0.3c-0.2,0-0.5-0.1-0.9-0.2
					c-0.7-0.3-1.1-0.5-1.1-0.6c-0.1-0.1-0.2-2.2-0.2-6.3v-1.9c0-5.1-0.1-8.5-0.2-10.2c-0.1-1-0.1-1.6-0.1-1.6
					C163.2,173.2,163.4,172.9,163.7,172.6z"/>
				<path class="st2" d="M172.4,172.4c0.4-0.2,0.9-0.3,1.3-0.3c0.8,0,1.4,0.5,1.7,1.6c0.2,0.8,0.6,1.7,1,2.7
					c0.4,0.9,0.8,1.6,0.9,2.1c0.2,0.8,0.5,1.4,0.7,1.7c0.2,0.2,0.3,0.3,0.3,0.2c0,0,0.1-0.2,0.1-0.6c0.1-0.2,0.1-1.2,0.2-2.7
					c0-0.4,0-0.9,0-1.5c0-0.7,0-1,0-1.2c0-0.5,0.2-1,0.6-1.3c0.4-0.3,0.8-0.5,1.4-0.5c0.6,0,1,0.1,1.3,0.4c0.2,0.2,0.4,0.6,0.4,1
					c0,0.1,0,0.6-0.1,1.5c-0.1,1.5-0.2,4.9-0.2,10.3v4.5c0,1.8,0,2.9-0.1,3.3c-0.1,0.4-0.2,0.7-0.3,0.9c-0.3,0.2-0.8,0.4-1.3,0.4
					c-0.6,0-1.1-0.1-1.5-0.4c-0.3-0.2-0.6-0.7-0.7-1.2c-0.1-0.4-0.4-1.3-0.8-2.8s-0.7-2.4-0.8-2.9c-0.2-0.8-0.4-1.8-0.8-3
					c-0.4-1.2-0.6-1.8-0.7-1.8c-0.1,0-0.1,1.1-0.1,3.2v2.1v2.2c0,2.1,0,3.4-0.1,3.8c-0.1,0.4-0.3,0.8-0.6,1
					c-0.4,0.3-0.7,0.4-1.2,0.4s-1-0.2-1.3-0.5s-0.4-0.6-0.4-0.9c0-0.1,0-0.3,0.1-0.7c0.1-0.7,0.2-4.3,0.2-10.8v-9.8L172.4,172.4z"/>
				<path class="st2" d="M187,190.5c0.3-0.3,0.6-0.5,0.9-0.5c0.1,0,0.3,0,0.6,0.1c1.1,0.2,1.7,0.7,1.7,1.3c0,0.5-0.4,1-1.1,1.4
					c-0.6,0.4-1.1,0.5-1.4,0.5c-0.6,0-1-0.5-1.1-1.4c0-0.2,0-0.4,0-0.6C186.6,191.1,186.7,190.8,187,190.5z"/>
				<path class="st3" d="M74.1,72.8c24.4,0,44.2-1.7,44.2-3.9c0-2.2-19.8-3.9-44.2-3.9s-44.2,1.7-44.2,3.9
					C29.9,71.1,49.7,72.8,74.1,72.8z"/>
				<path class="st4" d="M46.1,68.5c0.3,0,0.6-0.3,0.6-0.6V65c0-0.6,0.6-1.2,1.4-1.2h57.2c0.8,0,1.4,0.5,1.4,1.2v2.9
					c0,0.3,0.3,0.6,0.6,0.6h2.2c0.3,0,0.6-0.3,0.6-0.6V52.6c0-0.8-0.8-1.5-1.8-1.5h-1.5h-60h-1.5c-1,0-1.8,0.7-1.8,1.5v15.3
					c0,0.3,0.3,0.6,0.6,0.6H46.1z M106.7,56.2v2.7c0,1.2-1.2,2.2-2.6,2.2H49.3c-1.4,0-2.6-1-2.6-2.2v-2.7c0-0.8,0.8-1.5,1.8-1.5
					h56.4C105.9,54.6,106.7,55.3,106.7,56.2z"/>
				<path class="st4" d="M101.8,36.7V21.5c0-0.9-0.7-1.5-1.5-1.4c-0.6,0.1-1,0.8-1,1.5v0.8c0,0.7-0.5,1.2-1,1.2H55.2
					c-0.6,0-1-0.5-1-1.2v-0.8c0-0.7-0.4-1.3-1-1.5c-0.8-0.2-1.5,0.5-1.5,1.4v15.2H101.8L101.8,36.7z"/>
				<path class="st4" d="M110.1,45.2H43.4v8.9h66.7V45.2z"/>
				<path class="st1" d="M110.1,53.6H43.4v8.9h66.7V53.6z"/>
				<path class="st0" d="M74.4,36.3H56.6v-3.5c0-2.5,2.1-4.6,4.6-4.6h8.6c2.5,0,4.6,2.1,4.6,4.6C74.4,32.8,74.4,36.3,74.4,36.3z"/>
				<path class="st0" d="M98.1,36.3H80.4v-3.5c0-2.5,2.1-4.6,4.6-4.6h8.6c2.5,0,4.6,2.1,4.6,4.6L98.1,36.3L98.1,36.3z"/>
				<path class="st5" d="M47.9,37.5l-4.5,7.8h66.8l-4.3-7.8c-0.4-0.8-1.2-1.2-2.1-1.2H49.9C49.1,36.3,48.3,36.7,47.9,37.5z"/>
				<path class="st1" d="M46.3,40.2l-2.9,5h66.8l-3.1-5.5c-0.4-0.8-1.2-1.2-2.1-1.2L48.4,39C47.5,39,46.7,39.5,46.3,40.2z"/>
				<path class="st6" d="M147.7,38.6h-18.1c-1.4,0-2.4-1.1-2.4-2.4s1.1-2.4,2.4-2.4l18.1-0.6c1.4,0,2.5,1.1,2.5,2.4v0.6
					C150.2,37.5,149.1,38.6,147.7,38.6z"/>
				<path class="st6" d="M147.7,46.9l-18.1-0.6c-1.3,0-2.4-1.1-2.4-2.4v-0.7c0-1.3,1.1-2.4,2.4-2.4h18.1c1.4,0,2.4,1.1,2.4,2.4v1.3
					C150.2,45.9,149,47,147.7,46.9z"/>
				<path class="st2" d="M248.6,14.9c0,0-19.6,18.5-43.2,12C205.4,26.9,220.2,9.2,248.6,14.9z"/>
				<path class="st7" d="M229.7,11.6c0,0-4.4,9.5-26.2,19.8C203.5,31.4,202.9,15.1,229.7,11.6z"/>
				<path class="st6" d="M241.4,67c0.4-44.4-42.9-47.4-60.4-39.3c-9.1,4.2-22.8,16-22.1,39.3H241.4z"/>
				<path d="M205.9,51.9c0-1.6,1.3-2.4,2.9-2.4s2.9,0.8,2.9,2.4s-1.2,0.6-2.8,0.6S205.9,53.5,205.9,51.9z"/>
				<path d="M184.6,51.9c0-1.6,1.3-2.4,2.9-2.4s2.9,0.8,2.9,2.4s-1.2,0.6-2.8,0.6S184.6,53.5,184.6,51.9z"/>
				<path class="st7" d="M186.7,18.9c0,0,4.6-1.6,8.4,2.1C195.1,21,193.3,22,186.7,18.9z"/>
				<path class="st8" d="M196.8,25.6c-1.1-2.9-4.3-12.8,5.7-12.3"/>
				<path class="st9" d="M204.4,12.1c0,0,5,4.9,2.1,5.3C203.7,17.7,202.4,12.1,204.4,12.1z"/>
				<path class="st9" d="M203.4,11.2c0,0,3.2,6.4,0.1,5.6C200.4,16,201.2,10.5,203.4,11.2z"/>
				<path class="st9" d="M203,11c0,0,6.7,0.7,5.3,3.2C207,16.8,201.9,12.7,203,11z"/>
				<path class="st9" d="M203,13.7c0,0-1.6-8.1,1.6-6.1C207.8,9.5,205.2,15.3,203,13.7z"/>
				<path class="st9" d="M203.7,11.4c0,0-1.6-5.3-3.6-3.4C198.2,10,202.5,12.9,203.7,11.4z"/>
				<path class="st9" d="M203.4,10.3c0,0-6.6,1.5-4.1,3.5C201.9,15.9,205.3,11.6,203.4,10.3z"/>
				<path class="st10" d="M205.5,14.2c0.8-0.6,0.6-2.2-0.5-3.5c-1-1.3-2.5-1.8-3.3-1.2c-0.8,0.6-0.6,2.2,0.5,3.5
					C203.3,14.3,204.7,14.8,205.5,14.2z"/>
				<path class="st11" d="M235.3,31.2c-3.4,3.1-0.7,10.5-1.7,15c-1.6,6.9-7.2,6.7-6.6,8.2c0.9,2.2,25.1,2.2,20.8-18.8
					C246,27.1,239.1,27.7,235.3,31.2z"/>
				<path d="M198.5,57.6c-2.9,0-4.6-1.6-5.2-0.3c-0.5,1.2,2,3.1,5.6,2.9c1.3-0.1,3.9-1.4,4-2.7C203.1,55.3,201.4,57.6,198.5,57.6z"
					/>
			</g>
		</g>
	</g>
</g>
</svg>
