<?xml version="1.0" encoding="utf-8"?>
<!-- Generator: Adobe Illustrator 25.1.0, SVG Export Plug-In . SVG Version: 6.00 Build 0)  -->
<svg version="1.1" id="Layer_1" xmlns="http://www.w3.org/2000/svg" xmlns:xlink="http://www.w3.org/1999/xlink" x="0px" y="0px"
	 viewBox="0 0 334.1 252.3" style="enable-background:new 0 0 334.1 252.3;" xml:space="preserve">
<style type="text/css">
	.st0{fill:#FFFFFF;}
	.st1{fill:#808080;}
	.st2{fill:#F6F0EE;}
	.st3{fill:#646464;}
	.st4{fill-rule:evenodd;clip-rule:evenodd;fill:#646464;}
	.st5{fill:#00A976;}
	.st6{fill:#00DC7D;}
	.st7{fill:#F4F0EE;}
	.st8{fill:#00CDDC;}
	.st9{fill:#28C86E;}
	.st10{fill:#32DCD2;}
	.st11{fill:none;stroke:#28C86E;stroke-width:0.8924;stroke-linecap:round;stroke-miterlimit:10;}
	.st12{fill:#FFCF8D;}
	.st13{fill:#FF9F1A;}
</style>
<g>
	<g>
		<path class="st0" d="M333.5,180.1c-1.7-45.6,5.9-117.6-8.2-155.4c-7.3-19.5-18.9-19-53.4-20.1C255.4,4,11-10.3,9.2,14.7
			C6.1,57,2.4,107,1.2,153.9c-1.1,46-6.9,95.7,22.1,95.7c73.3,0,173.6,6.2,242.8-0.3C299.6,246.2,336.3,256.6,333.5,180.1z"/>
		<path class="st1" d="M26.3,47.7V36.5h1.3v11.2H26.3z"/>
		<path class="st1" d="M30.3,47.7v-6.8h-1.2v-1.2h1.2v-1.4c0-0.8,0.2-1.3,0.6-1.7s0.9-0.5,1.7-0.5h0.8v1.1h-0.6
			c-0.4,0-0.7,0.1-0.9,0.2c-0.2,0.2-0.3,0.5-0.3,0.8v1.3h2v1.1h-2v6.8L30.3,47.7L30.3,47.7z"/>
		<path class="st1" d="M40.3,51.2l2-4.3h-0.5l-3.1-7.2h1.5l2.6,6.2l2.8-6.2H47l-5.2,11.5H40.3z"/>
		<path class="st1" d="M51.2,47.9c-0.8,0-1.4-0.2-2-0.5s-1.1-0.8-1.4-1.5s-0.5-1.4-0.5-2.2s0.2-1.6,0.5-2.2s0.8-1.1,1.4-1.5
			c0.6-0.3,1.3-0.5,2-0.5s1.4,0.2,2,0.5s1.1,0.8,1.4,1.5c0.3,0.6,0.5,1.4,0.5,2.2s-0.2,1.6-0.5,2.2s-0.8,1.1-1.4,1.5
			C52.7,47.7,52,47.9,51.2,47.9z M51.2,46.7c0.5,0,0.9-0.1,1.3-0.3s0.7-0.6,1-1c0.2-0.4,0.4-1,0.4-1.7s-0.1-1.2-0.4-1.7
			c-0.2-0.4-0.6-0.8-1-1s-0.8-0.3-1.3-0.3s-0.9,0.1-1.3,0.3c-0.4,0.2-0.7,0.6-1,1c-0.2,0.5-0.4,1-0.4,1.7s0.1,1.2,0.4,1.7
			s0.6,0.8,1,1S50.8,46.7,51.2,46.7z"/>
		<path class="st1" d="M60,47.9c-0.9,0-1.7-0.3-2.2-0.9S57,45.5,57,44.4v-4.7h1.3v4.5c0,1.7,0.7,2.5,2,2.5c0.7,0,1.3-0.2,1.7-0.7
			c0.5-0.5,0.7-1.2,0.7-2.1v-4.2H64v7.9h-1.2l-0.1-1.4c-0.2,0.5-0.6,0.9-1.1,1.2C61.1,47.7,60.6,47.9,60,47.9z"/>
		<path class="st1" d="M66.2,47.7v-8h1.2l0.1,1.5c0.2-0.5,0.6-0.9,1.1-1.2s1.1-0.5,1.9-0.5v1.4h-0.4c-0.5,0-0.9,0.1-1.3,0.2
			c-0.4,0.2-0.7,0.5-0.9,0.8c-0.2,0.4-0.3,0.9-0.3,1.6v4h-1.4V47.7z"/>
		<path class="st1" d="M76.3,47.7v-8h1.2l0.1,1.5c0.2-0.5,0.6-0.9,1.1-1.2s1.1-0.5,1.9-0.5v1.4h-0.4c-0.5,0-0.9,0.1-1.3,0.2
			c-0.4,0.2-0.7,0.5-0.9,0.8c-0.2,0.4-0.4,0.9-0.4,1.6v4h-1.3V47.7z"/>
		<path class="st1" d="M85.4,47.9c-0.8,0-1.4-0.2-2-0.5s-1.1-0.8-1.4-1.5c-0.3-0.6-0.5-1.4-0.5-2.2s0.2-1.6,0.5-2.2s0.8-1.1,1.4-1.5
			s1.3-0.5,2-0.5c0.8,0,1.4,0.2,2,0.5s1.1,0.8,1.4,1.5c0.3,0.6,0.5,1.4,0.5,2.2s-0.2,1.6-0.5,2.2S88,47,87.4,47.4
			C86.8,47.7,86.2,47.9,85.4,47.9z M85.4,46.7c0.5,0,0.9-0.1,1.3-0.3c0.4-0.2,0.7-0.6,1-1c0.2-0.4,0.4-1,0.4-1.7S88,42.5,87.7,42
			c-0.2-0.4-0.6-0.8-0.9-1c-0.4-0.2-0.8-0.3-1.3-0.3s-0.9,0.1-1.3,0.3c-0.4,0.2-0.7,0.6-1,1c-0.2,0.5-0.4,1-0.4,1.7s0.1,1.2,0.4,1.7
			s0.6,0.8,0.9,1C84.5,46.6,85,46.7,85.4,46.7z"/>
		<path class="st1" d="M94.9,47.9c-0.8,0-1.4-0.2-2-0.5s-1.1-0.8-1.4-1.5S91,44.5,91,43.7s0.2-1.6,0.5-2.2s0.8-1.1,1.4-1.5
			c0.6-0.3,1.3-0.5,2-0.5s1.4,0.2,2,0.5s1.1,0.8,1.4,1.5c0.3,0.6,0.5,1.4,0.5,2.2s-0.2,1.6-0.5,2.2s-0.8,1.1-1.4,1.5
			C96.3,47.7,95.6,47.9,94.9,47.9z M94.9,46.7c0.5,0,0.9-0.1,1.3-0.3s0.7-0.6,1-1c0.2-0.4,0.4-1,0.4-1.7s-0.1-1.2-0.4-1.7
			c-0.2-0.4-0.6-0.8-0.9-1c-0.4-0.2-0.8-0.3-1.3-0.3s-0.9,0.1-1.3,0.3c-0.4,0.2-0.7,0.6-1,1c-0.2,0.5-0.4,1-0.4,1.7s0.1,1.2,0.4,1.7
			c0.2,0.5,0.6,0.8,0.9,1C94,46.6,94.4,46.7,94.9,46.7z"/>
		<path class="st1" d="M100.7,47.7v-8h1.2l0.1,1.2c0.3-0.4,0.6-0.8,1-1s0.9-0.4,1.4-0.4c0.6,0,1.2,0.1,1.6,0.4s0.8,0.6,1.1,1.2
			c0.3-0.5,0.7-0.9,1.1-1.1c0.5-0.3,1-0.4,1.6-0.4c0.9,0,1.7,0.3,2.3,0.9c0.6,0.6,0.8,1.5,0.8,2.6v4.6h-1.3v-4.5
			c0-0.8-0.2-1.4-0.5-1.9c-0.3-0.4-0.8-0.6-1.4-0.6s-1.2,0.2-1.6,0.7s-0.6,1.2-0.6,2.1v4.1h-1.3v-4.5c0-0.8-0.2-1.4-0.5-1.9
			c-0.3-0.4-0.8-0.6-1.4-0.6s-1.2,0.2-1.6,0.7s-0.6,1.2-0.6,2.1v4.1L100.7,47.7L100.7,47.7z"/>
		<path class="st1" d="M120.1,38c-0.3,0-0.5-0.1-0.7-0.3c-0.2-0.2-0.3-0.4-0.3-0.7s0.1-0.5,0.3-0.6c0.2-0.2,0.4-0.3,0.7-0.3
			c0.3,0,0.5,0.1,0.7,0.3c0.2,0.2,0.3,0.4,0.3,0.6c0,0.3-0.1,0.5-0.3,0.7C120.6,37.9,120.4,38,120.1,38z M119.4,47.7v-8h1.3v7.9
			h-1.3V47.7z"/>
		<path class="st1" d="M126.2,47.9c-0.9,0-1.7-0.2-2.4-0.7c-0.6-0.5-1-1.1-1.1-1.9h1.4c0.1,0.4,0.3,0.8,0.7,1.1
			c0.4,0.3,0.8,0.5,1.4,0.5s1-0.1,1.2-0.4s0.4-0.5,0.4-0.9c0-0.5-0.2-0.8-0.5-1c-0.4-0.2-0.8-0.3-1.5-0.4c-0.4-0.1-0.8-0.2-1.3-0.4
			c-0.4-0.2-0.8-0.4-1.1-0.7c-0.3-0.3-0.4-0.7-0.4-1.2c0-0.7,0.3-1.3,0.8-1.7s1.2-0.7,2.1-0.7c0.8,0,1.5,0.2,2.1,0.6
			c0.5,0.4,0.9,1,0.9,1.8h-1.3c-0.1-0.4-0.2-0.7-0.5-0.9c-0.3-0.2-0.7-0.3-1.2-0.3s-0.9,0.1-1.1,0.3s-0.4,0.5-0.4,0.8
			s0.2,0.6,0.5,0.8c0.3,0.2,0.8,0.3,1.4,0.5c0.5,0.1,1,0.2,1.4,0.4s0.8,0.4,1.1,0.7c0.3,0.3,0.4,0.7,0.4,1.3c0,0.7-0.3,1.3-0.8,1.8
			C127.8,47.6,127.1,47.9,126.2,47.9z"/>
		<path class="st1" d="M138.4,47.9c-0.9,0-1.7-0.2-2.4-0.7c-0.6-0.5-1-1.1-1.1-1.9h1.4c0.1,0.4,0.3,0.8,0.7,1.1
			c0.4,0.3,0.8,0.5,1.5,0.5c0.6,0,1-0.1,1.2-0.4c0.3-0.2,0.4-0.5,0.4-0.9c0-0.5-0.2-0.8-0.5-1s-0.8-0.3-1.5-0.4
			c-0.4-0.1-0.9-0.2-1.3-0.4c-0.4-0.2-0.8-0.4-1.1-0.7c-0.3-0.3-0.4-0.7-0.4-1.2c0-0.7,0.3-1.3,0.8-1.7s1.2-0.7,2.1-0.7
			c0.8,0,1.5,0.2,2.1,0.6c0.5,0.4,0.9,1,0.9,1.8h-1.3c-0.1-0.4-0.2-0.7-0.5-0.9c-0.3-0.2-0.7-0.3-1.2-0.3s-0.9,0.1-1.1,0.3
			c-0.3,0.2-0.4,0.5-0.4,0.8s0.2,0.6,0.5,0.8c0.3,0.2,0.8,0.3,1.4,0.5c0.5,0.1,1,0.2,1.4,0.4c0.4,0.1,0.8,0.4,1.1,0.7
			c0.3,0.3,0.4,0.7,0.4,1.3c0,0.7-0.3,1.3-0.8,1.8C140.1,47.6,139.3,47.9,138.4,47.9z"/>
		<path class="st1" d="M146.1,47.7c-0.7,0-1.3-0.2-1.7-0.5s-0.6-1-0.6-1.9v-4.4h-1.4v-1.2h1.4l0.2-1.9h1.2v1.9h2.3v1.1h-2.3v4.4
			c0,0.5,0.1,0.8,0.3,1s0.6,0.3,1.1,0.3h0.8v1.1h-1.3V47.7z"/>
		<path class="st1" d="M152.1,47.9c-0.9,0-1.7-0.3-2.2-0.9c-0.6-0.6-0.8-1.5-0.8-2.6v-4.7h1.3v4.5c0,1.7,0.7,2.5,2,2.5
			c0.7,0,1.3-0.2,1.7-0.7s0.7-1.2,0.7-2.1v-4.2h1.3v7.9h-1.2l-0.1-1.4c-0.2,0.5-0.6,0.9-1.1,1.2C153.3,47.7,152.7,47.9,152.1,47.9z"
			/>
		<path class="st1" d="M158.8,47.7v-6.8h-1.2v-1.2h1.2v-1.4c0-0.8,0.2-1.3,0.6-1.7c0.4-0.4,0.9-0.5,1.7-0.5h0.8v1.1h-0.6
			c-0.4,0-0.7,0.1-0.9,0.2c-0.2,0.2-0.3,0.5-0.3,0.8v1.3h1.9v1.1h-1.9v6.8L158.8,47.7L158.8,47.7z"/>
		<path class="st1" d="M164.1,47.7v-6.8h-1.2v-1.2h1.2v-1.4c0-0.8,0.2-1.3,0.6-1.7c0.4-0.4,0.9-0.5,1.7-0.5h0.8v1.1h-0.6
			c-0.4,0-0.7,0.1-0.9,0.2c-0.2,0.2-0.3,0.5-0.3,0.8v1.3h1.9v1.1h-1.9v6.8L164.1,47.7L164.1,47.7z"/>
		<path class="st1" d="M169.9,51.2l2-4.3h-0.5l-3.1-7.2h1.5l2.6,6.2l2.8-6.2h1.4l-5.2,11.5H169.9z"/>
		<path class="st1" d="M175.9,49.6l0.9-3.5h1.4l-1.4,3.5H175.9z"/>
		<path class="st1" d="M29.8,69.9c-0.8,0-1.4-0.2-2-0.5c-0.6-0.4-1.1-0.8-1.4-1.5c-0.3-0.6-0.5-1.4-0.5-2.2c0-0.8,0.2-1.6,0.5-2.2
			s0.8-1.1,1.4-1.5s1.3-0.5,2-0.5c0.9,0,1.7,0.2,2.4,0.7c0.7,0.5,1,1.1,1.2,2H32c-0.1-0.5-0.4-0.9-0.8-1.1c-0.4-0.3-0.9-0.4-1.5-0.4
			c-0.4,0-0.9,0.1-1.3,0.3c-0.4,0.2-0.7,0.6-1,1c-0.2,0.5-0.4,1-0.4,1.7s0.1,1.2,0.4,1.7s0.6,0.8,1,1s0.8,0.3,1.3,0.3
			c0.6,0,1-0.1,1.5-0.4c0.4-0.3,0.7-0.7,0.8-1.2h1.4c-0.2,0.8-0.6,1.4-1.2,1.9C31.6,69.5,30.8,69.9,29.8,69.9z"/>
		<path class="st1" d="M35.3,69.7v-8h1.2l0.1,1.5c0.2-0.5,0.6-0.9,1.1-1.2s1.1-0.5,1.9-0.5v1.4h-0.3c-0.5,0-0.9,0.1-1.3,0.2
			c-0.4,0.2-0.7,0.5-0.9,0.8c-0.2,0.4-0.4,0.9-0.4,1.6v4h-1.4V69.7z"/>
		<path class="st1" d="M43.8,69.9c-0.7,0-1.2-0.1-1.7-0.3c-0.4-0.2-0.8-0.5-1-0.9s-0.3-0.8-0.3-1.2c0-0.8,0.3-1.4,0.9-1.9
			s1.5-0.7,2.5-0.7h2.1v-0.1c0-0.7-0.2-1.2-0.5-1.6c-0.4-0.4-0.8-0.5-1.5-0.5c-0.5,0-1,0.1-1.4,0.4s-0.6,0.6-0.7,1.1h-1.4
			c0-0.6,0.2-1.1,0.6-1.5c0.3-0.4,0.8-0.7,1.3-0.9c0.5-0.2,1-0.3,1.6-0.3c1.1,0,1.9,0.3,2.5,0.9s0.8,1.4,0.8,2.4v4.9h-1.2l-0.1-1.4
			c-0.2,0.4-0.6,0.8-1,1.1C45.1,69.7,44.5,69.9,43.8,69.9z M44,68.7c0.5,0,1-0.1,1.3-0.4c0.4-0.3,0.7-0.6,0.8-1
			c0.2-0.4,0.3-0.9,0.3-1.3l0,0h-2c-0.8,0-1.3,0.1-1.7,0.4c-0.3,0.3-0.5,0.6-0.5,1s0.2,0.8,0.5,1C43,68.6,43.4,68.7,44,68.7z"/>
		<path class="st1" d="M53.4,69.9c-0.8,0-1.4-0.2-2-0.5c-0.6-0.4-1.1-0.8-1.4-1.5c-0.3-0.6-0.5-1.4-0.5-2.2c0-0.8,0.2-1.6,0.5-2.2
			s0.8-1.1,1.4-1.5c0.6-0.4,1.3-0.5,2-0.5c0.9,0,1.7,0.2,2.4,0.7c0.6,0.5,1,1.1,1.2,2h-1.4c-0.1-0.5-0.4-0.9-0.8-1.1
			c-0.4-0.3-0.9-0.4-1.5-0.4c-0.4,0-0.9,0.1-1.3,0.3c-0.4,0.2-0.7,0.6-1,1c-0.2,0.5-0.4,1-0.4,1.7s0.1,1.2,0.4,1.7s0.6,0.8,1,1
			s0.8,0.3,1.3,0.3c0.6,0,1-0.1,1.5-0.4c0.4-0.3,0.7-0.7,0.8-1.2H57c-0.2,0.8-0.6,1.4-1.2,1.9S54.4,69.9,53.4,69.9z"/>
		<path class="st1" d="M58.9,69.7V58.2h1.3v6.9l3.2-3.3H65l-3.5,3.6l4,4.4h-1.7l-3.6-4.1v4.1h-1.3V69.7z"/>
		<path class="st1" d="M73.8,69.9c-0.7,0-1.2-0.1-1.7-0.3c-0.4-0.2-0.8-0.5-1-0.9s-0.3-0.8-0.3-1.2c0-0.8,0.3-1.4,0.9-1.9
			c0.6-0.4,1.5-0.7,2.5-0.7h2.1v-0.1c0-0.7-0.2-1.2-0.5-1.6c-0.4-0.4-0.9-0.5-1.5-0.5c-0.5,0-1,0.1-1.3,0.4
			c-0.4,0.3-0.6,0.6-0.7,1.1h-1.4c0-0.6,0.2-1.1,0.6-1.5c0.3-0.4,0.8-0.7,1.3-0.9c0.5-0.2,1-0.3,1.6-0.3c1.1,0,1.9,0.3,2.5,0.9
			s0.8,1.4,0.8,2.4v4.9h-1.2l-0.1-1.4c-0.2,0.4-0.6,0.8-1,1.1C75.1,69.7,74.6,69.9,73.8,69.9z M74,68.7c0.5,0,0.9-0.1,1.3-0.4
			s0.7-0.6,0.8-1c0.2-0.4,0.3-0.9,0.3-1.3l0,0h-2c-0.8,0-1.3,0.1-1.7,0.4c-0.3,0.3-0.5,0.6-0.5,1s0.2,0.8,0.5,1
			C73.1,68.6,73.5,68.7,74,68.7z"/>
		<path class="st1" d="M85.7,69.7l-2.3-7.9h1.3l1.7,6.2l1.9-6.3h1.5l1.9,6.2l1.6-6.2h1.4l-2.4,8h-1.4L89,63.2l-2,6.5H85.7z"/>
		<path class="st1" d="M97,60c-0.3,0-0.5-0.1-0.7-0.3C96.1,59.5,96,59.3,96,59s0.1-0.5,0.3-0.6c0.2-0.2,0.4-0.3,0.7-0.3
			s0.5,0.1,0.7,0.3c0.2,0.2,0.3,0.4,0.3,0.6c0,0.3-0.1,0.5-0.3,0.7C97.5,59.9,97.2,60,97,60z M96.3,69.7v-8h1.3v7.9h-1.3V69.7z"/>
		<path class="st1" d="M100,69.7v-8h1.2l0.1,1.4c0.3-0.5,0.6-0.9,1.1-1.2c0.5-0.3,1-0.4,1.6-0.4c0.9,0,1.7,0.3,2.2,0.9
			s0.8,1.5,0.8,2.6v4.6h-1.3v-4.5c0-1.6-0.7-2.5-2.1-2.5c-0.7,0-1.2,0.2-1.7,0.7s-0.7,1.2-0.7,2.1v4.1L100,69.7L100,69.7z"/>
		<path class="st1" d="M112.7,69.9c-0.8,0-1.5-0.2-2.1-0.5c-0.6-0.4-1-0.9-1.4-1.5s-0.5-1.3-0.5-2.1c0-0.8,0.2-1.5,0.5-2.1
			s0.8-1.1,1.4-1.5s1.3-0.5,2.1-0.5c0.6,0,1.2,0.1,1.7,0.4s0.9,0.6,1.2,1.1v-4.9h1.3v11.4h-1.2l-0.1-1.3c-0.3,0.4-0.6,0.7-1.1,1
			C114.1,69.7,113.5,69.9,112.7,69.9z M112.9,68.7c0.5,0,1-0.1,1.4-0.4c0.4-0.2,0.7-0.6,1-1.1c0.2-0.4,0.3-1,0.3-1.6
			s-0.1-1.1-0.3-1.6c-0.2-0.5-0.6-0.8-1-1.1c-0.4-0.2-0.9-0.4-1.4-0.4s-1,0.1-1.4,0.4s-0.7,0.6-1,1.1c-0.2,0.4-0.3,1-0.3,1.6
			s0.1,1.1,0.3,1.6c0.2,0.5,0.6,0.8,1,1.1C111.9,68.6,112.4,68.7,112.9,68.7z"/>
		<path class="st1" d="M122.8,69.9c-0.8,0-1.4-0.2-2-0.5s-1.1-0.8-1.4-1.5c-0.4-0.6-0.5-1.4-0.5-2.2s0.2-1.6,0.5-2.2
			s0.8-1.1,1.4-1.5c0.6-0.3,1.3-0.5,2-0.5c0.8,0,1.4,0.2,2,0.5c0.6,0.3,1.1,0.8,1.4,1.5c0.4,0.6,0.5,1.4,0.5,2.2s-0.2,1.6-0.5,2.2
			c-0.4,0.6-0.8,1.1-1.4,1.5C124.2,69.7,123.5,69.9,122.8,69.9z M122.8,68.7c0.5,0,0.9-0.1,1.3-0.3c0.4-0.2,0.7-0.6,1-1
			c0.2-0.4,0.4-1,0.4-1.7s-0.1-1.2-0.4-1.7c-0.2-0.4-0.6-0.8-0.9-1c-0.4-0.2-0.8-0.3-1.3-0.3s-0.9,0.1-1.3,0.3c-0.4,0.2-0.7,0.6-1,1
			c-0.2,0.5-0.4,1-0.4,1.7s0.1,1.2,0.4,1.7c0.2,0.5,0.6,0.8,0.9,1C121.9,68.6,122.4,68.7,122.8,68.7z"/>
		<path class="st1" d="M130,69.7l-2.3-7.9h1.3l1.7,6.2l1.9-6.2h1.5L136,68l1.7-6.2h1.4l-2.3,7.9h-1.4l-1.9-6.5l-2.2,6.5H130z"/>
		<path class="st1" d="M145.1,69.7v-6.8h-1.2v-1.2h1.2v-1.4c0-0.8,0.2-1.3,0.6-1.7c0.4-0.4,0.9-0.5,1.7-0.5h0.8v1.1h-0.6
			c-0.4,0-0.7,0.1-0.9,0.2c-0.2,0.2-0.3,0.5-0.3,0.8v1.3h1.9v1.1h-1.9v6.8L145.1,69.7L145.1,69.7z"/>
		<path class="st1" d="M153.3,69.9c-0.8,0-1.4-0.2-2-0.5s-1.1-0.8-1.4-1.5c-0.3-0.6-0.5-1.4-0.5-2.2s0.2-1.6,0.5-2.2
			s0.8-1.1,1.4-1.5c0.6-0.3,1.3-0.5,2-0.5s1.4,0.2,2,0.5s1.1,0.8,1.4,1.5c0.3,0.6,0.5,1.4,0.5,2.2s-0.2,1.6-0.5,2.2
			s-0.8,1.1-1.4,1.5C154.7,69.7,154,69.9,153.3,69.9z M153.3,68.7c0.5,0,0.9-0.1,1.3-0.3s0.7-0.6,1-1c0.2-0.4,0.4-1,0.4-1.7
			s-0.1-1.2-0.4-1.7c-0.2-0.4-0.6-0.8-0.9-1c-0.4-0.2-0.8-0.3-1.3-0.3s-0.9,0.1-1.3,0.3c-0.4,0.2-0.7,0.6-1,1
			c-0.2,0.5-0.4,1-0.4,1.7s0.1,1.2,0.4,1.7s0.6,0.8,0.9,1S152.8,68.7,153.3,68.7z"/>
		<path class="st1" d="M159.1,69.7v-8h1.2l0.1,1.5c0.2-0.5,0.6-0.9,1.1-1.2s1.1-0.5,1.9-0.5v1.4H163c-0.5,0-0.9,0.1-1.3,0.2
			c-0.4,0.2-0.7,0.5-0.9,0.8c-0.2,0.4-0.3,0.9-0.3,1.6v4h-1.4V69.7z"/>
		<path class="st1" d="M195.5,131.2c-0.7,0-1.2-0.1-1.7-0.3c-0.4-0.2-0.8-0.5-1-0.9s-0.3-0.8-0.3-1.2c0-0.8,0.3-1.4,0.9-1.9
			s1.5-0.7,2.5-0.7h2.1v-0.1c0-0.7-0.2-1.2-0.5-1.6c-0.4-0.4-0.9-0.5-1.5-0.5c-0.5,0-1,0.1-1.3,0.4c-0.4,0.3-0.6,0.6-0.7,1.1h-1.4
			c0.1-0.6,0.2-1.1,0.6-1.5c0.3-0.4,0.8-0.7,1.3-0.9c0.5-0.2,1-0.3,1.6-0.3c1.1,0,1.9,0.3,2.5,0.9s0.8,1.4,0.8,2.4v4.9h-1.2
			l-0.1-1.4c-0.2,0.4-0.5,0.8-1,1.1C196.8,131,196.2,131.2,195.5,131.2z M195.7,130c0.5,0,1-0.1,1.3-0.4c0.4-0.3,0.6-0.6,0.8-1
			s0.3-0.9,0.3-1.3l0,0h-2c-0.8,0-1.3,0.1-1.7,0.4c-0.3,0.3-0.5,0.6-0.5,1s0.1,0.8,0.5,1C194.7,129.9,195.1,130,195.7,130z"/>
		<path class="st1" d="M201.5,131v-7.9h1.2l0.1,1.4c0.3-0.5,0.6-0.9,1.1-1.2c0.5-0.3,1-0.4,1.6-0.4c0.9,0,1.7,0.3,2.2,0.9
			s0.8,1.5,0.8,2.6v4.6h-1.3v-4.5c0-1.6-0.7-2.5-2.1-2.5c-0.7,0-1.2,0.2-1.7,0.7c-0.4,0.5-0.7,1.2-0.7,2.1v4.1L201.5,131L201.5,131z
			"/>
		<path class="st1" d="M214.2,131.2c-0.8,0-1.5-0.2-2.1-0.5c-0.6-0.4-1.1-0.9-1.4-1.5s-0.5-1.3-0.5-2.1c0-0.8,0.2-1.5,0.5-2.1
			s0.8-1.1,1.4-1.5c0.6-0.4,1.3-0.5,2.1-0.5c0.7,0,1.2,0.1,1.7,0.4s0.9,0.6,1.2,1.1v-4.9h1.3v11.5h-1.1l-0.1-1.3
			c-0.3,0.4-0.6,0.7-1.1,1C215.5,131,214.9,131.2,214.2,131.2z M214.4,130c0.5,0,1-0.1,1.4-0.4c0.4-0.2,0.7-0.6,1-1.1
			c0.2-0.4,0.3-1,0.3-1.6s-0.1-1.1-0.3-1.6s-0.6-0.8-1-1s-0.9-0.4-1.4-0.4s-1,0.1-1.4,0.4s-0.7,0.6-1,1c-0.2,0.5-0.3,1-0.3,1.6
			s0.1,1.1,0.3,1.6s0.5,0.8,1,1.1C213.4,129.9,213.8,130,214.4,130z"/>
		<path class="st1" d="M227.8,131.2c-0.9,0-1.7-0.3-2.2-0.9s-0.8-1.5-0.8-2.6v-4.6h1.3v4.5c0,1.7,0.7,2.5,2,2.5
			c0.7,0,1.3-0.2,1.7-0.7s0.7-1.2,0.7-2.1v-4.1h1.3v7.9h-1.2l-0.1-1.4c-0.2,0.5-0.6,0.9-1.1,1.2C229,131,228.4,131.2,227.8,131.2z"
			/>
		<path class="st1" d="M237.1,131.2c-0.9,0-1.7-0.2-2.4-0.7c-0.6-0.5-1-1.1-1.1-1.9h1.4c0.1,0.4,0.3,0.8,0.7,1.1
			c0.4,0.3,0.8,0.5,1.5,0.5c0.6,0,1-0.1,1.2-0.4c0.3-0.2,0.4-0.5,0.4-0.9c0-0.5-0.2-0.8-0.5-1c-0.4-0.2-0.8-0.3-1.5-0.4
			c-0.4-0.1-0.8-0.2-1.3-0.4c-0.4-0.2-0.8-0.4-1.1-0.7c-0.3-0.3-0.4-0.7-0.4-1.2c0-0.7,0.3-1.3,0.8-1.7c0.5-0.4,1.2-0.7,2.1-0.7
			c0.8,0,1.5,0.2,2.1,0.6s0.9,1,0.9,1.8h-1.3c0-0.4-0.2-0.7-0.5-0.9c-0.3-0.2-0.7-0.3-1.2-0.3s-0.9,0.1-1.1,0.3
			c-0.3,0.2-0.4,0.5-0.4,0.8s0.2,0.6,0.5,0.8c0.3,0.2,0.8,0.3,1.4,0.5c0.5,0.1,1,0.2,1.4,0.4c0.4,0.2,0.8,0.4,1.1,0.7
			c0.3,0.3,0.4,0.7,0.4,1.3c0,0.7-0.3,1.3-0.8,1.8C238.8,130.9,238,131.2,237.1,131.2z"/>
		<path class="st1" d="M245.6,131.2c-0.8,0-1.4-0.2-2-0.5s-1-0.8-1.4-1.5c-0.3-0.6-0.5-1.3-0.5-2.2c0-0.8,0.2-1.6,0.5-2.2
			s0.8-1.1,1.4-1.5s1.3-0.5,2.1-0.5s1.4,0.2,2,0.5c0.6,0.4,1,0.8,1.3,1.4s0.5,1.2,0.5,1.8c0,0.1,0,0.2,0,0.4c0,0.1,0,0.2,0,0.4h-6.3
			c0,0.6,0.2,1.1,0.4,1.5s0.6,0.7,0.9,0.9c0.4,0.2,0.8,0.3,1.2,0.3c0.6,0,1-0.1,1.4-0.4s0.6-0.6,0.8-1h1.3c-0.2,0.7-0.6,1.3-1.2,1.8
			C247.3,130.9,246.6,131.2,245.6,131.2z M245.6,124c-0.6,0-1.2,0.2-1.7,0.6s-0.8,1-0.9,1.7h5c0-0.7-0.3-1.3-0.7-1.7
			C246.9,124.2,246.3,124,245.6,124z"/>
		<path class="st1" d="M258,131.2c-0.7,0-1.2-0.1-1.6-0.3c-0.4-0.2-0.8-0.5-1-0.9s-0.3-0.8-0.3-1.2c0-0.8,0.3-1.4,0.9-1.9
			c0.6-0.4,1.5-0.7,2.5-0.7h2.1v-0.1c0-0.7-0.2-1.2-0.5-1.6c-0.4-0.4-0.8-0.5-1.5-0.5c-0.5,0-1,0.1-1.4,0.4s-0.6,0.6-0.7,1.1h-1.2
			c0.1-0.6,0.2-1.1,0.6-1.5c0.3-0.4,0.8-0.7,1.3-0.9c0.5-0.2,1-0.3,1.6-0.3c1.1,0,1.9,0.3,2.5,0.9s0.8,1.4,0.8,2.4v4.9h-1.2
			l-0.1-1.4c-0.2,0.4-0.5,0.8-1,1.1C259.3,131,258.8,131.2,258,131.2z M258.3,130c0.5,0,1-0.1,1.3-0.4c0.4-0.3,0.6-0.6,0.8-1
			s0.3-0.9,0.3-1.3l0,0h-2c-0.8,0-1.4,0.1-1.7,0.4c-0.3,0.3-0.5,0.6-0.5,1s0.1,0.8,0.5,1C257.3,129.9,257.7,130,258.3,130z"/>
		<path class="st1" d="M272.5,131.2c-0.6,0-1.2-0.1-1.7-0.4s-0.9-0.6-1.2-1.1l-0.1,1.3h-1.2v-11.5h1.3v4.9c0.3-0.4,0.6-0.7,1.1-1
			s1.1-0.5,1.8-0.5c0.8,0,1.5,0.2,2.1,0.5c0.6,0.4,1,0.9,1.4,1.5c0.3,0.6,0.5,1.3,0.5,2.1c0,0.8-0.2,1.5-0.5,2.1s-0.8,1.1-1.4,1.5
			C274,131,273.3,131.2,272.5,131.2z M272.4,130c0.5,0,1-0.1,1.4-0.4s0.7-0.6,1-1.1c0.2-0.4,0.4-1,0.4-1.6s-0.1-1.1-0.4-1.6
			s-0.5-0.8-1-1s-0.9-0.4-1.4-0.4s-1,0.1-1.4,0.4s-0.7,0.6-1,1c-0.2,0.5-0.4,1-0.4,1.6s0.1,1.1,0.4,1.6c0.2,0.5,0.5,0.8,1,1.1
			C271.4,129.9,271.9,130,272.4,130z"/>
		<path class="st1" d="M278.3,131v-11.5h1.3V131H278.3z"/>
		<path class="st1" d="M284.5,131.2c-0.7,0-1.2-0.1-1.6-0.3c-0.4-0.2-0.8-0.5-1-0.9s-0.3-0.8-0.3-1.2c0-0.8,0.3-1.4,0.9-1.9
			s1.5-0.7,2.5-0.7h2.1v-0.1c0-0.7-0.2-1.2-0.5-1.6c-0.4-0.4-0.9-0.5-1.5-0.5c-0.5,0-1,0.1-1.4,0.4s-0.6,0.6-0.7,1.1h-1.4
			c0-0.6,0.2-1.1,0.6-1.5c0.3-0.4,0.8-0.7,1.3-0.9c0.5-0.2,1-0.3,1.6-0.3c1.1,0,1.9,0.3,2.5,0.9s0.8,1.4,0.8,2.4v4.9h-1.1l-0.1-1.4
			c-0.2,0.4-0.6,0.8-1,1.1C285.8,131,285.3,131.2,284.5,131.2z M284.7,130c0.5,0,0.9-0.1,1.3-0.4s0.7-0.6,0.8-1
			c0.2-0.4,0.3-0.9,0.3-1.3l0,0h-2c-0.8,0-1.4,0.1-1.7,0.4c-0.3,0.3-0.5,0.6-0.5,1s0.1,0.8,0.5,1C283.8,129.9,284.2,130,284.7,130z"
			/>
		<path class="st1" d="M290.6,131v-7.9h1.2l0.1,1.4c0.3-0.5,0.6-0.9,1.1-1.2c0.5-0.3,1-0.4,1.6-0.4c0.9,0,1.7,0.3,2.2,0.9
			s0.8,1.5,0.8,2.6v4.6h-1.3v-4.5c0-1.6-0.7-2.5-2.1-2.5c-0.7,0-1.2,0.2-1.7,0.7s-0.7,1.2-0.7,2.1v4.1L290.6,131L290.6,131z"/>
		<path class="st1" d="M299.7,131v-11.5h1.3v6.9l3.2-3.3h1.6l-3.5,3.6l4,4.3h-1.7l-3.6-4.1v4.1H299.7z"/>
		<path class="st1" d="M310.8,131.2c-0.8,0-1.4-0.2-2-0.5c-0.6-0.4-1.1-0.8-1.4-1.5c-0.3-0.6-0.5-1.3-0.5-2.2c0-0.8,0.2-1.6,0.5-2.2
			s0.8-1.1,1.4-1.5s1.3-0.5,2.1-0.5c0.8,0,1.4,0.2,2,0.5s1,0.8,1.3,1.4s0.4,1.2,0.4,1.8c0,0.1,0,0.2,0,0.4c0,0.1,0,0.2,0,0.4h-6.3
			c0,0.6,0.2,1.1,0.4,1.5c0.2,0.4,0.6,0.7,0.9,0.9c0.4,0.2,0.8,0.3,1.2,0.3c0.5,0,1-0.1,1.4-0.4s0.6-0.6,0.8-1h1.3
			c-0.2,0.7-0.6,1.3-1.2,1.8C312.5,130.9,311.7,131.2,310.8,131.2z M310.8,124c-0.6,0-1.2,0.2-1.7,0.6s-0.8,1-0.9,1.7h5
			c0-0.7-0.3-1.3-0.7-1.7C312,124.2,311.4,124,310.8,124z"/>
		<path class="st1" d="M319.2,131c-0.7,0-1.3-0.2-1.7-0.5c-0.4-0.3-0.6-1-0.6-1.9v-4.4h-1.4v-1.1h1.4l0.2-1.9h1.2v1.9h2.3v1.1h-2.3
			v4.4c0,0.5,0.1,0.8,0.3,1c0.2,0.2,0.6,0.3,1.1,0.3h0.8v1.1H319.2z"/>
		<path class="st1" d="M195.9,153c-0.7,0-1.3-0.2-1.7-0.5s-0.6-1-0.6-1.9v-4.4h-1.4v-1.1h1.4l0.2-1.9h1.2v1.9h2.3v1.1H195v4.4
			c0,0.5,0.1,0.8,0.3,1s0.6,0.3,1.1,0.3h0.8v1.1H195.9z"/>
		<path class="st1" d="M202.4,153.2c-0.8,0-1.4-0.2-2-0.5s-1.1-0.8-1.4-1.5c-0.4-0.6-0.5-1.4-0.5-2.2c0-0.8,0.2-1.6,0.5-2.2
			c0.4-0.6,0.8-1.1,1.4-1.5c0.6-0.3,1.3-0.5,2-0.5c0.8,0,1.4,0.2,2,0.5s1.1,0.8,1.4,1.5c0.4,0.6,0.5,1.4,0.5,2.2
			c0,0.8-0.2,1.6-0.5,2.2c-0.4,0.6-0.8,1.1-1.4,1.5C203.8,153,203.1,153.2,202.4,153.2z M202.4,152c0.5,0,0.9-0.1,1.3-0.3
			c0.4-0.2,0.7-0.6,1-1c0.2-0.4,0.4-1,0.4-1.7s-0.1-1.2-0.4-1.7c-0.2-0.5-0.6-0.8-1-1s-0.8-0.3-1.3-0.3s-0.9,0.1-1.3,0.3
			c-0.4,0.2-0.7,0.6-1,1c-0.2,0.4-0.4,1-0.4,1.7s0.1,1.2,0.4,1.7c0.2,0.5,0.6,0.8,1,1S201.9,152,202.4,152z"/>
		<path class="st1" d="M212.5,153v-11.5h1.3v6.9l3.2-3.3h1.7l-3.5,3.6l4,4.3h-1.7l-3.6-4.1v4.1H212.5z"/>
		<path class="st1" d="M223.5,153.2c-0.8,0-1.4-0.2-2-0.5c-0.6-0.4-1.1-0.8-1.4-1.5c-0.3-0.6-0.5-1.3-0.5-2.2c0-0.8,0.2-1.6,0.5-2.2
			s0.8-1.1,1.4-1.5c0.6-0.4,1.3-0.5,2.1-0.5s1.4,0.2,2,0.5s1,0.8,1.3,1.4s0.4,1.2,0.4,1.8c0,0.1,0,0.2,0,0.4c0,0.1,0,0.2,0,0.4H221
			c0,0.6,0.2,1.1,0.4,1.5s0.6,0.7,0.9,0.9c0.4,0.2,0.8,0.3,1.2,0.3c0.6,0,1-0.1,1.4-0.4s0.6-0.6,0.8-1h1.3c-0.2,0.7-0.6,1.3-1.2,1.8
			C225.3,152.9,224.5,153.2,223.5,153.2z M223.5,146c-0.6,0-1.2,0.2-1.7,0.6s-0.8,1-0.9,1.7h5c0-0.7-0.3-1.3-0.7-1.7
			C224.8,146.2,224.2,146,223.5,146z"/>
		<path class="st1" d="M232.7,153.2c-0.8,0-1.4-0.2-2-0.5s-1.1-0.8-1.4-1.5c-0.3-0.6-0.5-1.3-0.5-2.2c0-0.8,0.2-1.6,0.5-2.2
			s0.8-1.1,1.4-1.5s1.3-0.5,2.1-0.5s1.4,0.2,2,0.5c0.6,0.4,1,0.8,1.3,1.4s0.5,1.2,0.5,1.8c0,0.1,0,0.2,0,0.4c0,0.1,0,0.2,0,0.4h-6.3
			c0,0.6,0.2,1.1,0.4,1.5s0.6,0.7,0.9,0.9c0.4,0.2,0.8,0.3,1.2,0.3c0.6,0,1-0.1,1.4-0.4s0.6-0.6,0.8-1h1.3c-0.2,0.7-0.6,1.3-1.2,1.8
			C234.4,152.9,233.6,153.2,232.7,153.2z M232.7,146c-0.6,0-1.2,0.2-1.7,0.6s-0.8,1-0.9,1.7h5c0-0.7-0.3-1.3-0.7-1.7
			C233.9,146.2,233.3,146,232.7,146z"/>
		<path class="st1" d="M238.2,156.5V145h1.2l0.1,1.3c0.3-0.4,0.6-0.7,1.1-1s1.1-0.5,1.8-0.5c0.8,0,1.5,0.2,2.1,0.5
			c0.6,0.4,1,0.9,1.4,1.5c0.3,0.6,0.5,1.3,0.5,2.1s-0.2,1.5-0.5,2.1s-0.8,1.1-1.4,1.5c-0.6,0.4-1.3,0.5-2.1,0.5
			c-0.7,0-1.2-0.1-1.7-0.4s-0.9-0.6-1.2-1.1v4.9h-1.3V156.5z M242.3,152c0.5,0,1-0.1,1.4-0.4s0.7-0.6,1-1.1c0.2-0.4,0.4-1,0.4-1.6
			s-0.1-1.1-0.4-1.6c-0.2-0.5-0.5-0.8-1-1s-0.9-0.4-1.4-0.4s-1,0.1-1.4,0.4c-0.4,0.2-0.7,0.6-1,1s-0.4,1-0.4,1.6s0.1,1.1,0.4,1.6
			c0.2,0.5,0.6,0.8,1,1.1S241.8,152,242.3,152z"/>
		<path class="st1" d="M253.3,156.5l2-4.3h-0.5l-3.1-7.2h1.5l2.6,6.2l2.8-6.2h1.4l-5.2,11.5H253.3z"/>
		<path class="st1" d="M264.2,153.2c-0.8,0-1.4-0.2-2-0.5s-1.1-0.8-1.4-1.5s-0.5-1.4-0.5-2.2c0-0.8,0.2-1.6,0.5-2.2s0.8-1.1,1.4-1.5
			s1.3-0.5,2-0.5c0.8,0,1.4,0.2,2,0.5s1.1,0.8,1.4,1.5c0.4,0.6,0.5,1.4,0.5,2.2c0,0.8-0.2,1.6-0.5,2.2c-0.4,0.6-0.8,1.1-1.4,1.5
			C265.7,153,265,153.2,264.2,153.2z M264.2,152c0.5,0,0.9-0.1,1.3-0.3c0.4-0.2,0.7-0.6,1-1c0.2-0.4,0.4-1,0.4-1.7s-0.1-1.2-0.4-1.7
			c-0.2-0.4-0.6-0.8-1-1s-0.8-0.3-1.3-0.3s-0.9,0.1-1.3,0.3c-0.4,0.2-0.7,0.6-1,1c-0.2,0.4-0.4,1-0.4,1.7s0.1,1.2,0.4,1.7
			s0.6,0.8,1,1C263.4,151.9,263.8,152,264.2,152z"/>
		<path class="st1" d="M273,153.2c-0.9,0-1.7-0.3-2.2-0.9c-0.6-0.6-0.8-1.5-0.8-2.6v-4.6h1.3v4.5c0,1.7,0.7,2.5,2,2.5
			c0.7,0,1.3-0.2,1.7-0.7c0.5-0.5,0.7-1.2,0.7-2.1v-4.1h1.3v7.9h-1.2l-0.1-1.4c-0.2,0.5-0.6,0.9-1.1,1.2
			C274.1,153,273.6,153.2,273,153.2z"/>
		<path class="st2" d="M283.2,100.3h-60.9c-0.8,0-1.4-0.8-1.4-1.7l0.2-59.9c0-0.9,0.6-1.7,1.4-1.7l60.5,0.1c0.8,0,1.4,0.8,1.4,1.7
			l0.2,59.8C284.6,99.5,284,100.3,283.2,100.3z"/>
		<path class="st3" d="M220.2,36.3L190.6,32c-1.4-0.2-2.7,0.8-2.7,2l-0.3,71.7c0,1.1,1,2.1,2.3,2.1h1.6c0.2,0,0.4,0,0.5-0.1
			l28.1-5.9c1.1-0.2,1.8-1,1.8-2l0.2-61.6C222.2,37.3,221.3,36.5,220.2,36.3z M220.3,98.2c0,1-0.7,1.8-1.8,2l-24.8,5.5
			c-0.2,0-0.4,0.1-0.6,0.1c-1.3,0-2.3-0.9-2.3-2.1l0.3-67.6c0-1.3,1.3-2.3,2.7-2l24.6,3.9c1.1,0.2,1.9,1,1.9,2L220.3,98.2z"/>
		<path class="st1" d="M218.5,38.1l-24.6-3.9c-1.4-0.2-2.7,0.7-2.7,2l-0.3,67.6c0,1.1,1,2.1,2.3,2.1c0.2,0,0.4,0,0.6-0.1l24.8-5.5
			c1-0.2,1.8-1.1,1.8-2l0.1-58.1C220.4,39.1,219.6,38.2,218.5,38.1z M205.4,97.5c0,1-0.7,1.8-1.8,2l-5.3,1.2c-1.5,0.3-2.9-0.7-2.9-2
			v-25c0-1,0.9-1.9,2-2.1l5.3-0.6c1.4-0.2,2.6,0.8,2.6,2L205.4,97.5L205.4,97.5z M205.4,67.3c0,1.1-0.9,1.9-2.1,2.1L198,70
			c-1.4,0.1-2.6-0.8-2.6-2.1V39.5c0-1.3,1.3-2.3,2.7-2l5.3,0.9c1.1,0.2,1.9,1,1.9,2v26.9H205.4z M218.3,95.2c0,1-0.8,1.8-1.8,2
			l-6.2,1.2c-1.4,0.3-2.8-0.7-2.8-2V72.2c0-1,0.8-1.9,2-2.1l6.2-0.8c1.4-0.2,2.6,0.8,2.6,2.1V95.2z M218.3,65.9c0,1.1-0.9,2-2.1,2.1
			l-6.2,0.5c-1.4,0.1-2.6-0.8-2.6-2.1V40.9c0-1.3,1.3-2.2,2.7-2l6.2,0.8c1.1,0.2,2,1,2,2.1L218.3,65.9L218.3,65.9z"/>
		<path class="st3" d="M283.1,38.4l0.2,61.6c0,1,0.7,1.8,1.8,2l28.1,5.9c0.2,0,0.3,0.1,0.5,0.1h1.6c1.3,0,2.3-0.9,2.3-2.1l-0.3-71.7
			c0-1.3-1.3-2.2-2.7-2l-29.5,4.3C284,36.5,283.1,37.3,283.1,38.4z M284.9,40.1c0-1,0.8-1.9,1.9-2l24.6-3.9c1.4-0.2,2.7,0.7,2.7,2
			l0.3,67.6c0,1.1-1,2.1-2.3,2.1c-0.2,0-0.4,0-0.6-0.1l-24.8-5.5c-1-0.2-1.8-1.1-1.8-2L284.9,40.1z"/>
		<path class="st1" d="M284.9,40.1l0.1,58.1c0,1,0.7,1.8,1.8,2l24.8,5.5c0.2,0,0.4,0.1,0.6,0.1c1.3,0,2.3-0.9,2.3-2.1l-0.3-67.6
			c0-1.3-1.3-2.3-2.7-2L286.9,38C285.7,38.2,284.9,39.1,284.9,40.1z M300,72.9c0-1.3,1.2-2.2,2.6-2l5.3,0.6c1.1,0.1,2,1,2,2.1v25
			c0,1.4-1.4,2.3-2.9,2l-5.3-1.2c-1-0.2-1.8-1.1-1.8-2L300,72.9L300,72.9z M300,40.4c0-1,0.8-1.9,1.9-2l5.3-0.9
			c1.4-0.2,2.7,0.8,2.7,2v28.4c0,1.2-1.2,2.2-2.6,2.1l-5.3-0.6c-1.2-0.1-2.1-1-2.1-2.1V40.4H300z M287,71.4c0-1.3,1.2-2.2,2.6-2
			l6.2,0.8c1.1,0.1,2,1,2,2v24.2c0,1.3-1.4,2.3-2.8,2l-6.2-1.2c-1.1-0.2-1.8-1-1.8-2L287,71.4L287,71.4z M287,41.8c0-1,0.8-1.9,2-2
			l6.2-0.8c1.4-0.2,2.7,0.8,2.7,2v25.5c0,1.2-1.2,2.2-2.5,2.1l-6.2-0.5c-1.2-0.1-2.1-1-2.1-2.1V41.8H287z"/>
		<path class="st4" d="M235.5,43.1c0,0,0-0.1-0.1-0.1c-0.2-0.3-0.6-0.4-0.9-0.3c-2.8,0.8-5,2.9-6,5.5c-1,2.7-0.7,5.7,0.8,8.1
			s4.1,3.9,7,4.2c2.9,0.2,5.7-0.9,7.6-3c0.2-0.3,0.3-0.6,0.1-0.9c0,0,0-0.1-0.1-0.1c-0.2-0.2-0.4-0.4-0.7-0.4
			c-2.9,0-5.7-1.5-7.2-3.9s-1.7-5.5-0.5-8.2C235.7,43.6,235.6,43.3,235.5,43.1z"/>
		<path class="st4" d="M249,46l0.8,1c0.1,0.1,0.3,0.2,0.4,0.2l1.3-0.1c0.4,0,0.7,0.4,0.4,0.8l-0.7,1.1c-0.1,0.1-0.1,0.3,0,0.5
			l0.5,1.2c0.1,0.4-0.2,0.8-0.6,0.7l-1.2-0.4c-0.2,0-0.3,0-0.5,0.1l-1,0.8c-0.3,0.3-0.8,0.1-0.8-0.4v-1.3c0-0.2-0.1-0.3-0.2-0.4
			l-1.1-0.7c-0.3-0.2-0.3-0.7,0.1-0.9l1.2-0.5c0.2-0.1,0.3-0.2,0.3-0.3l0.3-1.2C248.3,45.7,248.8,45.6,249,46z"/>
		<path class="st4" d="M241.2,46.5l0.2,0.7c0,0.1,0.1,0.2,0.2,0.2l0.7,0.2c0.2,0.1,0.2,0.4,0.1,0.5l-0.6,0.4
			c-0.1,0.1-0.1,0.1-0.1,0.2v0.7c0,0.2-0.3,0.3-0.4,0.2l-0.5-0.4c-0.1-0.1-0.2-0.1-0.2-0.1l-0.7,0.2c-0.2,0.1-0.4-0.1-0.3-0.4
			l0.3-0.7c0-0.1,0-0.2,0-0.2l-0.4-0.6c-0.1-0.2,0-0.4,0.2-0.4h0.7c0.1,0,0.2,0,0.2-0.1l0.4-0.6C240.8,46.2,241.1,46.3,241.2,46.5z"
			/>
		<path class="st5" d="M267.4,79.6h-0.8v20.7h0.8V79.6z"/>
		<path class="st5" d="M263.8,66.3c-0.9,1.3-2.2,2.8-3.2,5.3c-3.7,9.4,4.1,12.1,7.5,11.4c3.4-0.8,9.4-4.5,6-11.1
			C272.2,67.9,267.2,61.4,263.8,66.3z"/>
		<path class="st5" d="M259.8,82.1h-0.6v18.1h0.6V82.1z"/>
		<path class="st6" d="M257,70.5c-0.7,1.2-1.8,2.5-2.5,4.6c-3,8.2,3.3,10.7,6,10s7.5-3.9,4.8-9.7C263.7,71.9,259.7,66.1,257,70.5z"
			/>
		<path class="st3" d="M286.8,36.3H219v1.4h67.8V36.3z"/>
		<path class="st3" d="M284.5,98.8h-63.9v1.4h63.9V98.8z"/>
		<path class="st7" d="M140.6,219c71.4,0,129.3-3,129.3-6.8s-57.9-6.8-129.3-6.8s-129.3,3-129.3,6.8S69.2,219,140.6,219z"/>
		<path class="st3" d="M70.5,211.5c0.6,0,1-0.5,1-1v-5.1c0-1.1,1.1-2,2.4-2h99.9c1.3,0,2.4,0.9,2.4,2v5.1c0,0.6,0.5,1,1,1h3.8
			c0.6,0,1-0.5,1-1v-26.8c0-1.5-1.4-2.7-3.2-2.7h-2.5l0,0H71.5l0,0h-2.7c-1.8,0-3.2,1.2-3.2,2.7v26.8c0,0.6,0.5,1,1,1H70.5z
			 M176.3,190v4.6c0,2.1-2,3.8-4.6,3.8H76.1c-2.5,0-4.6-1.7-4.6-3.8V190c0-1.5,1.4-2.7,3.2-2.7h98.4
			C174.9,187.3,176.3,188.5,176.3,190z"/>
		<path class="st3" d="M167.7,156.1v-26.5c0-1.5-1.2-2.7-2.6-2.4c-1.1,0.2-1.8,1.3-1.8,2.6v1.5c0,1.1-0.8,2-1.8,2H86.3
			c-1,0-1.8-0.9-1.8-2v-1.6c0-1.2-0.7-2.4-1.8-2.6c-1.4-0.2-2.6,0.9-2.6,2.4V156h87.6V156.1z"/>
		<path class="st3" d="M182.1,170.8H65.7v15.6h116.4V170.8z"/>
		<path class="st1" d="M182.1,185.5H65.7v15.6h116.4V185.5z"/>
		<path class="st0" d="M119.8,155.2h-31v-9.6c0-2.5,2.1-4.6,4.6-4.6h21.8c2.5,0,4.6,2.1,4.6,4.6L119.8,155.2L119.8,155.2z"/>
		<path class="st0" d="M161.2,155.2h-31v-9.6c0-2.5,2.1-4.6,4.6-4.6h21.8c2.5,0,4.6,2.1,4.6,4.6L161.2,155.2L161.2,155.2z"/>
		<path class="st8" d="M106.8,155.5c-0.4-3.1-0.9-7-0.8-9.1c-2.1,1.7-5.4,5-6.6,9.1H106.8z"/>
		<path class="st5" d="M139.1,139.2c0,0-12.6,3.7-21.4-4.4C117.7,134.8,128,130.4,139.1,139.2z"/>
		<path class="st9" d="M131.6,133.5c0,0-4,3.2-15.8,2.8C115.8,136.3,119.2,129.1,131.6,133.5z"/>
		<path class="st10" d="M142.6,155.5c0-0.8-0.1-1.6-0.2-2.6c-2.7-23-24.6-20.2-32.5-14.8c-3.7,2.5-8.7,7.9-7.8,17.3h40.5V155.5z"/>
		<path d="M115.3,146.8c0,0.2-0.6,0.1-1.4,0.2s-1.2,0.4-1.4,0.2s0.4-1.4,1.1-1.5C114.4,145.6,115.3,146.6,115.3,146.8z"/>
		<path d="M126.9,145c-0.1,0.3-0.6,0.1-1.4,0.2c-0.8,0.1-1.3,0.4-1.4,0.2c-0.2-0.2,0.4-1.4,1.1-1.5C126,143.7,126.9,144.7,126.9,145
			z"/>
		<path d="M119.1,150.8c-0.2-0.6,0.6-0.9,1.9-0.7s0.6,1.7-0.3,1.6C119.7,151.7,119.3,151.4,119.1,150.8z"/>
		<path class="st0" d="M120.9,151.1l-0.4,0.1c-0.2,0-0.4-0.1-0.4-0.3l-0.1-0.8c0.4-0.1,0.8,0,1.1,0.1l0.1,0.5
			C121.2,150.9,121.1,151.1,120.9,151.1z"/>
		<path class="st8" d="M143.9,155.5c0-3.8-1.8-7.5-3.2-9.6c-0.6,2.4-3.5,6.6-5,9.6H143.9z"/>
		<path class="st9" d="M114.1,131.3c0,0,0.1,2.4,2.5,3.4C116.6,134.6,116.7,133.7,114.1,131.3z"/>
		<path class="st11" d="M116.5,136c1.1-1.3-1.4-3.8-5.9-2"/>
		<path class="st12" d="M109.5,133.8c0,0-1.5,3.1-0.1,2.8C110.8,136.3,110.5,133.5,109.5,133.8z"/>
		<path class="st12" d="M109.9,133.2c0,0-0.5,3.5,0.8,2.6S110.8,132.5,109.9,133.2z"/>
		<path class="st12" d="M110,133.1c0,0-3,1.4-1.9,2.3C109.1,136.4,110.8,133.7,110,133.1z"/>
		<path class="st12" d="M110.7,134.5c0,0-0.6-4-1.7-2.6C107.9,133.3,110,135.6,110.7,134.5z"/>
		<path class="st12" d="M109.8,133.5c0,0-0.1-2.7,1.1-2.1C112.1,132,110.6,134,109.8,133.5z"/>
		<path class="st12" d="M109.7,132.8c0,0,3.3-0.4,2.4,1C111.3,135.1,109.1,133.7,109.7,132.8z"/>
		<path class="st13" d="M110.7,133.8c0.3-0.8,0.1-1.5-0.3-1.7c-0.5-0.2-1,0.3-1.3,1.1c-0.3,0.8-0.1,1.5,0.3,1.7
			C109.9,135.1,110.4,134.6,110.7,133.8z"/>
		<path class="st2" d="M73.5,157.3l-7.9,13.6h116.5l-7.5-13.6c-0.7-1.3-2.1-2.1-3.6-2.1H77.1C75.6,155.2,74.3,156,73.5,157.3z"/>
		<path class="st1" d="M70.7,162.2l-5.1,8.8h116.5l-5.3-9.5c-0.7-1.3-2.1-2.2-3.6-2.2l-98.9,0.8C72.9,160.1,71.5,160.9,70.7,162.2z"
			/>
		<path class="st13" d="M137.9,129.2c0.6,0,1.2,0,1.8,0.1c0.3,0,0.6,0,0.9,0.1c0.2,0.1,0.3,0.3,0.3,0.4s-0.2,0.3-0.3,0.4
			s-0.3,0.1-0.5,0.1c-1,0.1-2.1,0.1-3.1,0.1c-0.7,0-1-0.4-0.7-1.1c0.5-1.3,1.1-2.6,1.6-3.9c0.1-0.1,0.1-0.2,0.2-0.4
			c0.2-0.4,0.1-0.6-0.4-0.5c-0.2,0-0.3,0-0.5,0c-0.5,0-0.8-0.4-0.8-0.8s0.3-0.8,0.8-0.8c0.8-0.1,1.6-0.1,2.5-0.1
			c0.4,0,0.8,0.2,0.8,0.6s0,0.8-0.2,1.2c-0.3,0.6-0.7,1.2-1,1.8C138.6,127.4,138.3,128.3,137.9,129.2z"/>
		<path class="st13" d="M144.9,127.2c0.7,0,1.3,0.1,2,0.1c0.3,0,0.7,0.1,1,0.2c0.2,0.1,0.3,0.3,0.3,0.5c0,0.2-0.2,0.4-0.3,0.5
			s-0.4,0.1-0.6,0.1c-1.1,0-2.2,0.1-3.4,0.1c-0.8,0-1.1-0.4-0.8-1.1c0.6-1.4,1.2-2.8,1.8-4.2c0.1-0.1,0.1-0.3,0.2-0.4
			c0.2-0.5,0.1-0.6-0.4-0.6c-0.2,0-0.4,0-0.6,0c-0.5,0-0.9-0.4-0.9-0.9s0.4-0.9,0.9-0.9c0.9,0,1.8-0.1,2.6-0.1
			c0.4,0,0.8,0.3,0.8,0.7c0,0.4,0,0.9-0.2,1.3c-0.3,0.7-0.8,1.3-1.1,2C145.8,125.3,145.4,126.2,144.9,127.2z"/>
		<path class="st13" d="M151.7,124.4c0.9,0.1,1.7,0.2,2.5,0.3c0.4,0,0.8,0.1,1.2,0.3c0.2,0.1,0.4,0.4,0.4,0.6s-0.3,0.4-0.5,0.6
			s-0.5,0.1-0.7,0.1c-1.4,0-2.8,0-4.2-0.1c-0.9,0-1.3-0.6-0.9-1.5c0.8-1.7,1.7-3.4,2.6-5c0.1-0.2,0.2-0.3,0.2-0.5
			c0.3-0.6,0.2-0.8-0.5-0.8c-0.2,0-0.5,0-0.7,0c-0.6-0.1-1.1-0.6-1.1-1.1c0-0.6,0.5-1.1,1.1-1.1c1.1,0,2.2,0,3.3,0.1
			c0.5,0,1,0.4,1,0.9s-0.1,1.1-0.4,1.6c-0.4,0.8-1,1.6-1.5,2.4C152.9,122.1,152.3,123.3,151.7,124.4z"/>
		<path class="st1" d="M56.5,169.8H26.9v28.3h29.6V169.8z"/>
		<path class="st3" d="M55.9,168.3H25.3c-1.2,0-2.2,1-2.2,2.2v40.2c0,0.4,0.4,0.8,0.8,0.8h2.8c0.4,0,0.8-0.3,0.8-0.8v-9.8h26.1v9.8
			c0,0.4,0.3,0.8,0.8,0.8h2.9c0.4,0,0.8-0.3,0.8-0.8v-40.3C58.1,169.2,57.1,168.3,55.9,168.3z M52.6,196.5h-24
			c-0.6,0-1.1-0.5-1.1-1.1v-7.5c0-0.6,0.5-1.1,1.1-1.1h23.9c0.6,0,1.1,0.5,1.1,1.1v7.5C53.6,196,53.2,196.5,52.6,196.5z M52.6,182.4
			h-24c-0.6,0-1.1-0.5-1.1-1.1v-7.5c0-0.6,0.5-1.1,1.1-1.1h23.9c0.6,0,1.1,0.5,1.1,1.1v7.5C53.6,181.9,53.2,182.4,52.6,182.4z"/>
		<path class="st3" d="M37.9,179.7h5.4c1.2,0,2.2-1,2.2-2.2s-1-2.2-2.2-2.2h-5.4c-1.2,0-2.2,1-2.2,2.2
			C35.7,178.8,36.6,179.7,37.9,179.7z"/>
		<path class="st3" d="M37.9,193.9h5.4c1.2,0,2.2-1,2.2-2.2s-1-2.2-2.2-2.2h-5.4c-1.2,0-2.2,1-2.2,2.2
			C35.7,192.9,36.6,193.9,37.9,193.9z"/>
		<path class="st8" d="M28.7,81c0.8-0.1,1.7-0.1,2.5-0.1c0.7,0,1.2,0,1.5,0c1.5,0.1,2.4,0.3,2.7,0.6c0.3,0.4,0.4,0.7,0.4,1
			c0,0.8-0.7,1.4-2.2,1.7c-0.4,0.1-1.2,0.3-2.5,0.6L30,85v3.2c0,1.6,0,2.5,0.1,2.8c0,0.3,0.2,0.5,0.5,0.7s0.8,0.3,1.5,0.3
			c0.6,0,1,0.2,1.2,0.5c0.3,0.4,0.4,0.7,0.4,1.1c0,0.8-0.6,1.3-1.9,1.6c-0.8,0.2-1.2,0.4-1.3,0.5s-0.1,0.4-0.1,0.8s0.2,2.9,0.6,7.6
			l0.1,1.2c0,0.4-0.2,0.7-0.6,0.9c-0.3,0.2-0.6,0.2-1.1,0.2c-0.6,0-1.3-0.3-1.9-0.9c-0.5-0.5-0.8-1.1-0.8-1.7v-0.4
			c0-0.3,0-0.9,0-1.7c0-0.8,0-1.5,0-2c0-6.2-0.1-10.8-0.3-13.8c-0.1-1.2-0.1-2.2-0.1-2.8c0-0.9,0.1-1.4,0.4-1.6
			C26.9,81.2,27.6,81.1,28.7,81z"/>
		<path class="st8" d="M42.2,78.6c0.6-0.2,1.3-0.3,2.2-0.3c1,0,1.7,0.1,2.1,0.3c0.8,0.4,1.5,1,1.9,1.9c0.2,0.4,0.4,1.2,0.6,2.5
			c0.2,1.2,0.3,2.3,0.3,3.3c0,0.5,0,0.8,0,1C49.2,88.1,49,89,48.6,90c-0.3,1-0.6,1.5-0.7,1.5c-0.3,0-0.4,0.2-0.4,0.6
			c0,0.3,0.1,0.7,0.3,1.1c0.5,0.7,1.2,2.1,2.2,4.1c0.9,2,1.4,3.2,1.5,3.7c0,0.2,0.1,0.4,0.1,0.7c0,0.4-0.1,0.8-0.3,1.1
			c-0.3,0.4-0.6,0.6-0.9,0.6c-0.3,0-0.6,0-0.9-0.1c-0.8-0.1-1.3-0.2-1.5-0.3s-0.3-0.4-0.3-0.8c0-0.6-0.3-1.6-1-2.9s-1.1-2-1.5-2
			h-0.1C45,97.4,45,97.7,45,98.4c0,1,0.1,2,0.3,3.2c0.1,0.5,0.1,0.9,0.1,1.1c0,1.1-0.2,1.8-0.7,2c-0.2,0.1-0.5,0.1-0.8,0.1
			c-1,0-1.7-0.2-1.9-0.7c-0.2-0.3-0.3-2.4-0.4-6.5c0-1.3-0.1-2.7-0.1-4.2s0-2.6,0-3.3s0-1.6-0.1-2.7s-0.2-2.3-0.3-3.7
			c-0.1-1.5-0.2-2.4-0.2-2.7c0-0.8,0.1-1.3,0.3-1.6C41.3,79,41.7,78.7,42.2,78.6z M45.3,82.1c-0.1-0.3-0.3-0.4-0.5-0.4
			s-0.4,0.1-0.5,0.3c-0.1,0.2-0.1,0.4,0,0.6c0,0,0.1,1.1,0.3,3.1c0.1,2,0.2,3.1,0.3,3.1s0.2-0.1,0.5-0.4c0.2-0.3,0.3-0.8,0.3-1.6
			c0-0.6,0-1.1-0.1-1.6C45.5,83.5,45.4,82.5,45.3,82.1z"/>
		<path class="st8" d="M58.6,81.2c0.4-0.1,0.9-0.1,1.5-0.1c1.8,0,2.9,0.2,3.3,0.6c0.3,0.3,0.5,0.6,0.5,1.1c0,0.4-0.2,0.8-0.5,1.1
			c-0.3,0.3-0.7,0.4-1.2,0.4s-0.8,0.1-1,0.4C61,84.9,61,85.5,61,86.4c0,0.3,0,1.1,0.1,2.4c0.1,1.6,0.1,2.6,0.2,3
			c0.1,0.5,0.2,0.7,0.4,0.7c0,0,0.2,0,0.6,0s0.7,0,1,0c0.8,0,1.3,0.2,1.7,0.6c0.2,0.2,0.3,0.5,0.3,0.7c0,0.5-0.7,1-2.1,1.5
			c-0.8,0.3-1.3,0.5-1.4,0.7c-0.2,0.1-0.3,0.5-0.3,1c-0.1,0.5-0.1,1-0.1,1.3c0,1.6,0.1,2.8,0.4,3.6c0.1,0.3,0.3,0.5,0.4,0.6
			c0.2,0.1,0.5,0.1,1,0.1c0.7,0,1.2,0.2,1.7,0.5s0.7,0.7,0.7,1.1c0,0.3-0.2,0.7-0.7,1.1c-0.8,0.7-2.1,1.1-3.8,1.1
			c-1.9,0-3.1-0.4-3.7-1.2c-0.3-0.4-0.5-3.2-0.6-8.2c-0.1-6.3-0.1-10-0.2-11.1l-0.1-3.6l0.7-0.4C57.7,81.5,58.1,81.3,58.6,81.2z"/>
		<path class="st8" d="M74.4,79.4c0.4-0.2,0.8-0.3,1.3-0.3c0.4,0,0.6,0,0.9,0c0.9,0.1,1.6,0.2,1.9,0.4c0.3,0.2,0.7,0.5,0.9,1
			c0.3,0.5,0.5,1,0.5,1.5c0,0.6-0.2,1.1-0.7,1.5c-0.4,0.4-0.8,0.6-1.2,0.6c-0.4,0-0.8-0.3-1.2-0.8c-0.3-0.4-0.6-0.6-0.9-0.6
			s-0.6,0.2-0.8,0.6c-0.3,0.4-0.4,0.8-0.5,1.3v0.2c0,1.8,1.3,5,4,9.7c0.4,0.8,0.9,2.2,1.3,4.2c0,0.1,0,0.4,0,0.7
			c0,1.8-0.4,3.1-1.1,4.1c-0.3,0.4-0.8,0.8-1.6,1.1c-0.7,0.3-1.4,0.5-1.9,0.5c-0.1,0-0.1,0-0.2,0s-0.1,0-0.2,0
			c-0.7-0.1-1.6-0.7-2.7-1.7c-1-1-1.6-1.8-1.6-2.3c0-0.3,0.2-0.5,0.5-0.9s0.7-0.5,1-0.6c0.1,0,0.2,0,0.3,0c0.3,0,0.9,0.5,1.7,1.5
			c0.3,0.4,0.6,0.6,1,0.6c0.3,0,0.6-0.2,0.7-0.6c0.1-0.1,0.1-0.4,0.1-0.7c0-1.9-0.8-4.5-2.5-8.1c-1.5-3.3-2.3-5.8-2.3-7.4
			c0-0.7,0.1-1.4,0.4-2c0.5-1.2,0.9-2.1,1.2-2.5C73.2,80.2,73.7,79.8,74.4,79.4z"/>
		<path class="st8" d="M85,80.6c0.1-0.3,0.4-0.4,0.8-0.4c0.5,0,1.1,0.2,1.7,0.5c0.4,0.3,0.6,0.5,0.7,0.6c0.1,0.2,0.1,0.6,0.2,1.2
			c0,4.5,0.1,7.2,0.1,8s0.2,1.2,0.4,1.2H89c0.3,0,0.6-0.1,1-0.3c0.2-0.2,0.4-0.5,0.4-0.9c0.1-0.5,0.1-1.7,0.1-3.6
			c0-2.8,0.1-4.4,0.3-4.7c0.3-0.5,0.9-0.8,1.8-0.8c0.3,0,0.6,0.1,1,0.2l0.7,0.4l-0.1,5c-0.1,2.1-0.1,5-0.1,8.8c0,4.2,0.1,7,0.2,8.3
			l0.2,2.1l-0.8,0.3c-0.3,0.1-0.5,0.2-0.8,0.2c-0.2,0-0.5-0.1-1-0.3c-0.7-0.3-1.1-0.6-1.2-0.9s-0.2-2-0.2-5.3
			c-0.1-3.3-0.2-5-0.3-5.1c-0.1-0.1-0.4-0.1-1-0.1l-0.9,0.2l0.1,3.9c0.1,2.7,0.3,4.3,0.5,4.9c0.1,0.4,0.2,0.8,0.2,1.1
			c0,0.7-0.3,1.2-1,1.3c-0.3,0.1-0.6,0.1-0.7,0.1c-0.9,0-1.6-0.3-2.1-0.8c-0.2-0.2-0.3-0.9-0.4-2.1c0-1.2-0.1-4.7-0.1-10.6
			C84.8,85.2,84.9,81,85,80.6z"/>
		<path class="st8" d="M115.1,82.9c0.8-0.8,2.1-1.2,3.7-1.2c0.7,0,1.3,0.1,1.8,0.4c0.7,0.3,1.1,1.2,1.4,2.7c0.2,1.2,0.5,3.3,0.8,6.2
			c0.3,2.9,0.5,5.2,0.6,6.7c0,1.5,0.1,3.1,0.3,5s0.3,2.9,0.4,3.1c0,0,0,0.1,0,0.2c0,0.3-0.1,0.6-0.4,1.1c-0.3,0.4-0.5,0.7-0.7,0.7
			c-0.1,0-0.2,0-0.4,0c-0.5,0-1-0.1-1.6-0.3c-0.6-0.2-0.9-0.5-1.1-0.7c-0.1-0.3-0.3-1.1-0.5-2.6s-0.3-2.7-0.3-3.7
			c0-0.9-0.1-1.4-0.3-1.5c-0.2-0.1-0.9-0.1-2.2-0.1c-1.1,0-1.6,0-1.7,0.1c0,0.2-0.1,0.3-0.1,0.6c0,0.7,0.1,1.5,0.1,2.6
			c0.1,1.2,0.1,2.3,0.1,3.1v0.4c0,0.2-0.3,0.4-0.7,0.6c-0.4,0.2-0.8,0.3-1.2,0.3c-0.2,0-0.3,0-0.4-0.1c-1.1-0.3-1.7-0.8-1.8-1.3
			c0,0,0-0.1,0-0.2s0-0.2,0-0.3c0-1.3,0.2-4.2,0.5-8.6s0.6-7,0.7-7.6c0.2-0.9,0.6-1.9,1.1-3C114.1,84.1,114.6,83.3,115.1,82.9z
			 M118.3,87.8c-0.2-0.9-0.4-1.4-0.7-1.4c-0.2,0-0.5,0.3-0.8,1c-0.6,1.3-1,3-1.1,5.3c-0.1,1-0.1,1.5-0.1,1.6c0,0.5,0.1,0.7,0.2,0.8
			c0.2,0.1,0.6,0.2,1.3,0.2c1,0,1.5-0.1,1.6-0.3c0.1-0.1,0.1-0.5,0.1-1.2C118.9,91.6,118.7,89.6,118.3,87.8z"/>
		<path class="st8" d="M129.6,78.4c0.4-0.4,0.9-0.6,1.5-0.6s1.1,0.2,1.4,0.6l0.6,0.6l0.3,10.9c0.2,6,0.2,9.4,0.2,10.3
			c0,0.5,0,0.9,0,1.2c0,0.3,0,0.6-0.1,0.7c0,0.2-0.1,0.3-0.1,0.5c-0.1,0.1-0.1,0.2-0.1,0.2s-0.1,0.1-0.2,0.1
			c-0.1,0.1-0.2,0.1-0.3,0.1c-0.4,0.2-0.6,0.3-0.9,0.3c-0.1,0-0.4-0.1-1-0.2c-0.8-0.3-1.2-0.6-1.3-0.8c-0.1-0.2-0.2-4-0.3-11.6
			c-0.1-7.5-0.1-11.4-0.2-11.5C129,79.1,129.2,78.8,129.6,78.4z"/>
		<path class="st8" d="M140,78.6c0.6-0.2,1.3-0.3,2.2-0.3c1,0,1.7,0.1,2.1,0.3c0.8,0.4,1.5,1,1.9,1.9c0.2,0.4,0.4,1.2,0.6,2.5
			c0.2,1.2,0.3,2.3,0.3,3.3c0,0.5,0,0.8-0.1,1c-0.1,0.8-0.3,1.7-0.6,2.7s-0.6,1.5-0.7,1.5c-0.3,0-0.4,0.2-0.4,0.6
			c0,0.3,0.1,0.7,0.3,1.1c0.5,0.7,1.2,2.1,2.2,4.1c0.9,2,1.4,3.2,1.5,3.7c0,0.2,0.1,0.4,0.1,0.7c0,0.4-0.1,0.8-0.3,1.1
			c-0.3,0.4-0.6,0.6-0.9,0.6c-0.3,0-0.6,0-0.9-0.1c-0.8-0.1-1.3-0.2-1.5-0.3c-0.2-0.1-0.3-0.4-0.3-0.8c0-0.6-0.3-1.6-1-2.9
			s-1.1-2-1.5-2h-0.1c-0.1,0.1-0.1,0.4-0.1,1.1c0,1,0.1,2,0.3,3.2c0.1,0.5,0.1,0.9,0.1,1.1c0,1.1-0.2,1.8-0.7,2
			c-0.2,0.1-0.5,0.1-0.8,0.1c-1,0-1.7-0.2-1.9-0.7c-0.2-0.3-0.3-2.4-0.4-6.5c0-1.3-0.1-2.7-0.1-4.2s-0.1-2.6-0.1-3.3s0-1.6-0.1-2.7
			s-0.2-2.3-0.3-3.7c-0.1-1.5-0.2-2.4-0.2-2.7c0-0.8,0.1-1.3,0.3-1.6C139,79,139.4,78.7,140,78.6z M143,82.1
			c-0.1-0.3-0.3-0.4-0.5-0.4s-0.3,0.1-0.5,0.3c-0.1,0.2-0.1,0.4,0,0.6c0,0,0.1,1.1,0.3,3.1c0.1,2,0.2,3.1,0.3,3.1
			c0.1,0.1,0.2-0.1,0.5-0.4c0.2-0.3,0.3-0.8,0.3-1.6c0-0.6,0-1.1-0.1-1.6C143.2,83.5,143.1,82.5,143,82.1z"/>
		<path class="st13" d="M194.9,164.9c0.4-0.1,0.7-0.1,1-0.1c0.8,0,1.3,0.3,1.5,0.9c0.1,0.3,0.3,1.4,0.6,3.3s0.4,3,0.5,3.2
			c0.1,0.3,0.3,1.2,0.6,2.7s0.4,2.3,0.5,2.6l0.2,0.8l0.3-0.9c0.2-0.5,0.5-0.9,1.1-1.3c0.6-0.3,1.2-0.5,1.9-0.5
			c0.6,0,1.1,0.1,1.4,0.4c0.3,0.3,0.5,0.6,0.5,1s0.1,0.9,0.3,1.4l0.3,0.9l0.1-0.9c0.5-2.6,0.7-4.1,0.7-4.6s0.1-1,0.2-1.4
			c0.1-0.4,0.3-1.5,0.5-3.2c0.1-1.4,0.3-2.3,0.5-2.8s0.6-0.8,1.1-1.1c0.5-0.2,0.9-0.3,1.4-0.3s1,0.2,1.4,0.7c0.3,0.4,0.4,0.7,0.4,1
			c0,0.2,0,0.4-0.1,0.5c-0.7,3.5-1.4,7.9-2,13.2c-0.3,2.6-0.5,4.4-0.7,5.6c-0.1,1.2-0.3,2.2-0.5,3s-0.4,1.3-0.7,1.5
			c-0.2,0.2-0.5,0.3-0.9,0.4c-0.2,0-0.4,0-0.8,0c-1.1,0-1.8-0.2-2-0.5c-0.1-0.2-0.4-0.7-0.7-1.6s-0.6-1.6-0.7-2.2
			c-0.1-0.4-0.2-0.6-0.4-0.7c-0.1,0-0.2,0.2-0.2,0.5c0,0.5-0.2,1.2-0.5,2s-0.7,1.4-1,1.7c-0.4,0.4-0.8,0.6-1.1,0.6
			c-0.2,0-0.4,0-0.6,0c-1.3-0.3-2.1-0.8-2.3-1.4c-0.1-0.2-0.5-3.4-1.4-9.7c-1.1-6.9-1.6-10.5-1.7-10.7c-0.2-0.9-0.3-1.7-0.3-2.2
			C193.6,165.7,194,165.1,194.9,164.9z"/>
		<path class="st13" d="M222.7,165.8c0.5-0.2,1-0.2,1.5-0.2c0.9,0,1.6,0.2,2.1,0.5s0.8,0.8,1,1.5s0.4,1.9,0.7,3.7
			c0.3,2.3,0.5,3.5,0.5,3.6c0.1,0.3,0.2,1.2,0.4,2.7s0.3,2.5,0.3,3c0,0.1,0,0.2,0,0.3c0,0.1,0,0.2,0,0.4c0,0.8,0.1,2.1,0.2,3.9
			c0.2,1.8,0.3,3,0.4,3.7c0.1,0.5,0.1,0.8,0.1,1c0,1.1-0.4,1.7-1.1,1.9h-0.1c-0.1,0-0.1,0-0.1,0c-0.4,0-1-0.1-1.6-0.4
			c-0.6-0.2-1-0.5-1.1-0.7c-0.2-0.3-0.4-1.7-0.5-4c-0.2-2.3-0.3-3.5-0.5-3.8c-0.1-0.1-0.5-0.2-1.1-0.2c-0.4,0-0.8,0-1.1,0l-1.8,0.1
			l0.1,1.7c0.1,1.9,0.2,3.3,0.2,4.3v0.6c0,0.2-0.2,0.4-0.6,0.6c-0.4,0.2-0.8,0.3-1.3,0.3c-0.4,0-0.7,0-1-0.1
			c-0.5-0.2-0.9-0.4-1.1-0.7c-0.2-0.3-0.3-0.8-0.3-1.7c0-0.7,0.1-1.7,0.1-3c0.2-3.1,0.3-5.3,0.4-6.5c0.2-2.4,0.4-4.2,0.6-5.4
			c0.2-1.2,0.6-2.5,1.2-3.7C220.2,167.3,221.3,166.2,222.7,165.8z M224,171c-0.1-0.6-0.2-0.9-0.4-0.9c-0.3,0-0.6,0.5-1,1.5
			c-0.5,1.2-0.8,2.6-1.1,4.5c-0.1,1.2-0.2,1.8-0.2,2c0,0.5,0.1,0.8,0.3,1s0.5,0.3,1,0.3c0.1,0,0.2,0,0.4,0s0.3,0,0.4,0l1.3-0.1
			l-0.1-2.8C224.6,174.8,224.4,173.1,224,171z"/>
		<path class="st13" d="M236.6,164c0.1-0.2,0.6-0.2,1.6-0.2c1.2,0,2,0.1,2.4,0.3c0.8,0.3,1.4,0.9,1.7,1.5c0.4,0.7,0.6,1.7,0.8,3.2
			c0.1,1.2,0.2,2.1,0.2,2.6c0,2.5-0.6,4.5-1.7,6c-0.2,0.3-0.1,0.7,0.3,1.2c0.4,0.5,0.6,1,0.8,1.4c0.2,0.5,0.5,1.2,1.1,2.4
			c1.1,2.1,1.7,3.6,1.7,4.6c0,0.5-0.1,0.9-0.4,1.3c-0.3,0.3-0.6,0.5-1,0.5c-0.3,0-0.5,0-0.8-0.1c-0.8-0.1-1.3-0.2-1.5-0.3
			c-0.2-0.1-0.3-0.4-0.3-0.8c0-0.6-0.3-1.6-1-2.9s-1.2-2-1.5-2h-0.1c-0.1,0-0.1,0.3-0.1,0.9c0,0.8,0.1,1.9,0.3,3.3
			c0.1,0.5,0.1,0.9,0.1,1.1c0,1.1-0.2,1.8-0.7,2.1c-0.2,0.1-0.5,0.1-0.8,0.1c-1,0-1.7-0.3-2-0.8c-0.2-0.3-0.3-2.5-0.4-6.4
			c-0.1-6.4-0.3-11.1-0.6-14c-0.1-1.3-0.2-2.2-0.2-2.9c0-0.6,0.1-1.1,0.3-1.4c0.3-0.5,0.6-0.7,0.9-0.7
			C236.3,164.2,236.5,164.1,236.6,164z M239.5,168.3c-0.2-0.6-0.5-1-0.7-1.1l0,0c-0.1,0-0.2,0.3-0.2,0.9c0,0.1,0,0.9,0.1,2.5
			c0.1,2.4,0.2,3.7,0.2,3.7c0.1,0.1,0.2,0,0.4-0.2c0.3-0.3,0.4-1.3,0.4-3.3C239.7,169.6,239.6,168.7,239.5,168.3z"/>
		<path class="st13" d="M262.8,165.7c0.4-0.2,0.8-0.2,1.2-0.2c0.9,0,1.5,0.3,1.8,0.9c0.4,0.5,0.6,1.9,0.8,4.1
			c0.2,2.2,0.4,7.2,0.7,15c0.1,2.6,0.2,3.9,0.2,4c0.1,0.4-0.1,0.7-0.6,1c-0.7,0.4-1.3,0.6-1.8,0.6c-0.4,0-0.8-0.1-1-0.3
			c-0.3-0.2-0.5-0.6-0.6-1c-0.1-0.5-0.1-1.8-0.2-4c-0.2-6.9-0.4-10.5-0.6-11c0-0.1-0.1-0.2-0.1-0.2s-0.1-0.1-0.1,0
			c0,0-0.1,0.1-0.2,0.2s-0.1,0.2-0.2,0.4c-0.3,0.4-0.5,0.7-0.5,1c0,0.2-0.2,0.8-0.5,1.7c-0.4,1.2-1,1.8-1.8,1.8
			c-0.3,0-0.5,0-0.9-0.1c-0.5-0.1-1-0.4-1.2-0.7c-0.3-0.3-0.6-0.9-0.8-1.7c-0.2-0.5-0.4-1.1-0.8-1.7c-0.3-0.6-0.5-0.9-0.6-0.9
			s-0.1,0.4-0.1,1.2c0,0.4,0,1.4,0.1,2.8c0.1,1.3,0.1,2.7,0.2,4.1s0.1,2.4,0.1,3.1s0.1,1.2,0.1,1.5c0,0.2,0,0.4,0,0.6s0,0.3,0,0.4
			s0,0.2-0.1,0.3c0,0.1-0.1,0.1-0.1,0.2c0,0-0.1,0.1-0.1,0.2c-0.1,0.1-0.1,0.2-0.2,0.2c-0.4,0.6-0.6,1-0.6,1.1s-0.1,0.3-0.5,0.4
			c-0.3,0.1-0.6,0.2-0.9,0.2c-0.2,0-0.3,0-0.4-0.1c-0.2-0.2-0.4-0.5-0.5-0.9c-0.1-0.5-0.2-1.1-0.3-1.8c-0.1-0.8-0.1-1.4-0.2-2
			c0-0.6-0.1-1.3-0.1-2.2c0-0.9,0-1.5,0-1.7c0-0.5-0.1-2.4-0.1-5.5s-0.2-5.3-0.3-6.5l-0.2-2.6l0.7-0.6c0.4-0.4,0.8-0.6,1.3-0.6
			s1.2,0.2,1.9,0.5c0.8,0.3,1.2,0.7,1.5,1.1c0.8,1.2,1.5,2.6,2.3,4.3c0.2,0.4,0.3,0.7,0.4,0.8c0.1,0.1,0.3,0.2,0.4,0.1
			c0.3-0.1,0.4-0.3,0.4-0.4c0-0.2,0.3-0.9,0.8-2.2c0.5-1.3,1-2.4,1.3-3.1C262.2,166.2,262.5,165.8,262.8,165.7z"/>
		<path class="st13" d="M273,186.2c0.4-0.4,0.7-0.5,1-0.5c0.1,0,0.3,0,0.7,0.1c1.3,0.3,1.9,0.8,1.9,1.5c0,0.6-0.4,1.1-1.2,1.6
			c-0.7,0.4-1.2,0.6-1.6,0.6c-0.7,0-1.1-0.5-1.3-1.6c0-0.2-0.1-0.4-0.1-0.7C272.5,186.8,272.6,186.5,273,186.2z"/>
	</g>
</g>
</svg>
