<?xml version="1.0" encoding="utf-8"?>
<!-- Generator: Adobe Illustrator 25.1.0, SVG Export Plug-In . SVG Version: 6.00 Build 0)  -->
<svg version="1.1" id="Layer_1" xmlns="http://www.w3.org/2000/svg" xmlns:xlink="http://www.w3.org/1999/xlink" x="0px" y="0px"
	 viewBox="0 0 335 179.6" style="enable-background:new 0 0 335 179.6;" xml:space="preserve">
<style type="text/css">
	.st0{fill:#FFFFFF;}
	.st1{fill:#808080;}
	.st2{fill:#E14504;}
	.st3{fill:#F4F1EF;}
	.st4{fill:#646464;}
	.st5{fill:#F5F1EF;}
	.st6{fill:#32DCD2;}
	.st7{fill:none;stroke:#E14504;stroke-width:2;stroke-linecap:round;stroke-miterlimit:10;}
	.st8{fill:#00A878;}
	.st9{fill:#28C86E;}
	.st10{fill:none;stroke:#28C86E;stroke-width:1.8283;stroke-linecap:round;stroke-miterlimit:10;}
	.st11{fill:#FFCF8D;}
	.st12{fill:#FF9F1A;}
	.st13{fill:#00CDDC;}
</style>
<g>
	<g>
		<g>
			<g>
				<path class="st0" d="M332.6,129.2c-1.6-33,13-97.8-14.7-120.1C301.6-4,125.3,1.1,90.7,0.3C74.2-0.1,23,0.4,14,20.3
					C0.6,49.7,1.5,76.7,0.3,110.7C-0.9,144-0.6,175.8,39,177c73.2,2.2,165.7,4.6,234.8-0.2C307.3,174.5,335.3,184.6,332.6,129.2z"/>
				<path class="st1" d="M28.3,90.4V79.2h1.3v11.2H28.3z"/>
				<path class="st1" d="M32.4,90.4v-6.8h-1.2v-1.1h1.2v-1.4c0-0.8,0.2-1.3,0.6-1.7c0.4-0.4,0.9-0.5,1.7-0.5h0.8V80h-0.6
					c-0.4,0-0.7,0.1-0.9,0.2c-0.2,0.2-0.3,0.5-0.3,0.8v1.3h2v1.1h-2v6.8L32.4,90.4L32.4,90.4z"/>
				<path class="st1" d="M42.4,94l2-4.3h-0.5l-3.2-7.2h1.5l2.6,6.2l2.8-6.2H49L43.8,94H42.4z"/>
				<path class="st1" d="M53.3,90.6c-0.8,0-1.4-0.2-2-0.5s-1.1-0.8-1.4-1.4c-0.4-0.6-0.5-1.4-0.5-2.2s0.2-1.6,0.5-2.2
					c0.4-0.6,0.8-1.1,1.4-1.4c0.6-0.3,1.3-0.5,2-0.5s1.4,0.2,2,0.5s1.1,0.8,1.4,1.4c0.4,0.6,0.5,1.4,0.5,2.2s-0.2,1.6-0.5,2.2
					s-0.8,1.1-1.4,1.4S54,90.6,53.3,90.6z M53.3,89.5c0.5,0,0.9-0.1,1.3-0.3c0.4-0.2,0.7-0.6,1-1s0.4-1,0.4-1.7s-0.1-1.2-0.4-1.7
					c-0.2-0.4-0.6-0.8-0.9-1c-0.4-0.2-0.8-0.3-1.3-0.3s-0.9,0.1-1.3,0.3c-0.4,0.2-0.7,0.6-1,1c-0.2,0.5-0.4,1-0.4,1.7
					s0.1,1.2,0.4,1.7c0.2,0.5,0.6,0.8,0.9,1C52.4,89.4,52.8,89.5,53.3,89.5z"/>
				<path class="st1" d="M62,90.6c-0.9,0-1.7-0.3-2.2-0.9S59,88.3,59,87.1v-4.6h1.3V87c0,1.6,0.7,2.5,2,2.5c0.7,0,1.3-0.2,1.7-0.7
					c0.4-0.5,0.7-1.2,0.7-2.1v-4.1H66v7.9h-1.2l-0.1-1.4c-0.2,0.5-0.6,0.9-1.1,1.2C63.2,90.5,62.7,90.6,62,90.6z"/>
				<path class="st1" d="M75.7,90.4c-0.7,0-1.3-0.2-1.7-0.5c-0.4-0.4-0.6-1-0.6-1.9v-4.4H72v-1.1h1.4l0.2-1.9h1.2v1.9h2.3v1.1h-2.3
					V88c0,0.5,0.1,0.8,0.3,1c0.2,0.2,0.6,0.3,1.1,0.3H77v1.1H75.7z"/>
				<path class="st1" d="M82.1,90.6c-0.8,0-1.4-0.2-2-0.5c-0.6-0.4-1-0.8-1.4-1.5c-0.3-0.6-0.5-1.4-0.5-2.2c0-0.8,0.2-1.6,0.5-2.2
					s0.8-1.1,1.4-1.5s1.3-0.5,2.1-0.5c0.8,0,1.4,0.2,2,0.5s1,0.8,1.3,1.4s0.4,1.2,0.4,1.8c0,0.1,0,0.2,0,0.4c0,0.1,0,0.2,0,0.4h-6.3
					c0,0.6,0.2,1.1,0.4,1.5s0.6,0.7,0.9,0.9c0.4,0.2,0.8,0.3,1.2,0.3c0.5,0,1-0.1,1.4-0.4s0.7-0.6,0.8-1h1.3
					c-0.2,0.7-0.6,1.4-1.2,1.8C83.8,90.4,83,90.6,82.1,90.6z M82.1,83.4c-0.6,0-1.2,0.2-1.7,0.6s-0.8,1-0.9,1.7h5
					c0-0.7-0.3-1.3-0.7-1.7C83.3,83.7,82.7,83.4,82.1,83.4z"/>
				<path class="st1" d="M87.6,90.4v-7.9h1.2l0.1,1.4c0.3-0.5,0.6-0.9,1.1-1.2c0.5-0.3,1-0.4,1.6-0.4c0.9,0,1.7,0.3,2.2,0.9
					c0.6,0.6,0.8,1.4,0.8,2.6v4.6h-1.3v-4.5c0-1.6-0.7-2.5-2.1-2.5c-0.7,0-1.2,0.2-1.7,0.7s-0.7,1.2-0.7,2.1v4.1L87.6,90.4
					L87.6,90.4z"/>
				<path class="st1" d="M100.4,90.6c-0.8,0-1.5-0.2-2.1-0.5c-0.6-0.4-1-0.9-1.4-1.5s-0.5-1.3-0.5-2.1c0-0.8,0.2-1.5,0.5-2.1
					s0.8-1.1,1.4-1.5s1.3-0.5,2.1-0.5c0.7,0,1.2,0.1,1.7,0.4s0.9,0.6,1.2,1.1V79h1.3v11.5h-1.2l-0.1-1.3c-0.3,0.4-0.6,0.7-1.1,1
					S101.1,90.6,100.4,90.6z M100.5,89.5c0.5,0,1-0.1,1.4-0.4c0.4-0.2,0.7-0.6,1-1.1c0.2-0.4,0.3-1,0.3-1.6s-0.1-1.1-0.3-1.6
					c-0.2-0.5-0.6-0.8-1-1.1c-0.4-0.2-0.9-0.4-1.4-0.4s-1,0.1-1.4,0.4c-0.4,0.2-0.7,0.6-1,1.1c-0.2,0.4-0.3,1-0.3,1.6
					s0.1,1.1,0.3,1.6c0.2,0.5,0.5,0.8,1,1.1C99.5,89.3,100,89.5,100.5,89.5z"/>
				<path class="st1" d="M114.2,90.4c-0.7,0-1.3-0.2-1.7-0.5c-0.4-0.4-0.6-1-0.6-1.9v-4.4h-1.4v-1.1h1.4l0.2-1.9h1.2v1.9h2.3v1.1
					h-2.4V88c0,0.5,0.1,0.8,0.3,1s0.6,0.3,1.1,0.3h0.8v1.1H114.2z"/>
				<path class="st1" d="M120.6,90.6c-0.8,0-1.4-0.2-2-0.5s-1.1-0.8-1.4-1.4c-0.4-0.6-0.5-1.4-0.5-2.2s0.2-1.6,0.5-2.2
					c0.4-0.6,0.8-1.1,1.4-1.4s1.3-0.5,2-0.5c0.8,0,1.4,0.2,2,0.5s1.1,0.8,1.4,1.4c0.4,0.6,0.5,1.4,0.5,2.2s-0.2,1.6-0.5,2.2
					c-0.4,0.6-0.8,1.1-1.4,1.4C122.1,90.5,121.4,90.6,120.6,90.6z M120.6,89.5c0.5,0,0.9-0.1,1.3-0.3c0.4-0.2,0.7-0.6,1-1
					s0.4-1,0.4-1.7s-0.1-1.2-0.4-1.7c-0.2-0.4-0.6-0.8-0.9-1c-0.4-0.2-0.8-0.3-1.3-0.3s-0.9,0.1-1.3,0.3c-0.4,0.2-0.7,0.6-1,1
					c-0.2,0.5-0.4,1-0.4,1.7s0.1,1.2,0.4,1.7c0.2,0.5,0.6,0.8,0.9,1C119.8,89.4,120.2,89.5,120.6,89.5z"/>
				<path class="st1" d="M133.9,88c-0.4,0-0.9-0.1-1.2-0.2l-0.8,0.8c0.1,0.1,0.3,0.2,0.4,0.2c0.2,0.1,0.4,0.1,0.8,0.2
					c0.3,0,0.8,0.1,1.4,0.1c1.1,0.1,1.8,0.3,2.3,0.7c0.5,0.4,0.7,1,0.7,1.6c0,0.5-0.1,0.9-0.4,1.3c-0.2,0.4-0.6,0.8-1.2,1
					c-0.5,0.3-1.2,0.4-2,0.4c-0.7,0-1.3-0.1-1.9-0.3c-0.6-0.2-1-0.5-1.3-0.9s-0.5-0.9-0.5-1.4c0-0.3,0.1-0.6,0.2-1
					c0.2-0.4,0.5-0.7,0.9-1c-0.2-0.1-0.4-0.2-0.6-0.3c-0.2-0.1-0.3-0.2-0.5-0.4v-0.4l1.4-1.3c-0.6-0.5-0.9-1.2-0.9-2.1
					c0-0.5,0.1-1,0.4-1.4c0.2-0.4,0.6-0.8,1.1-1s1-0.4,1.7-0.4c0.5,0,0.9,0.1,1.2,0.2h2.9v1l-1.5,0.1c0.3,0.5,0.5,1,0.5,1.6
					c0,0.5-0.1,1-0.4,1.4c-0.2,0.4-0.6,0.8-1.1,1C135.1,87.8,134.5,88,133.9,88z M131.5,91.5c0,0.5,0.2,0.9,0.7,1.2
					c0.4,0.3,1,0.4,1.7,0.4s1.2-0.1,1.6-0.4c0.4-0.3,0.6-0.7,0.6-1.2c0-0.3-0.1-0.6-0.4-0.9s-0.8-0.4-1.5-0.4
					c-0.6,0-1.1-0.1-1.5-0.2c-0.4,0.2-0.7,0.5-0.9,0.8C131.6,91,131.5,91.3,131.5,91.5z M133.9,86.8c0.6,0,1-0.1,1.3-0.4
					s0.5-0.7,0.5-1.3c0-0.5-0.2-1-0.5-1.3s-0.8-0.4-1.3-0.4c-0.6,0-1,0.2-1.4,0.4c-0.3,0.3-0.5,0.7-0.5,1.3s0.2,1,0.5,1.3
					S133.3,86.8,133.9,86.8z"/>
				<path class="st1" d="M142.8,90.6c-0.8,0-1.4-0.2-2-0.5c-0.6-0.4-1.1-0.8-1.4-1.5c-0.3-0.6-0.5-1.4-0.5-2.2
					c0-0.8,0.2-1.6,0.5-2.2s0.8-1.1,1.4-1.5c0.6-0.4,1.3-0.5,2.1-0.5s1.4,0.2,2,0.5s1,0.8,1.3,1.4s0.5,1.2,0.5,1.8
					c0,0.1,0,0.2,0,0.4c0,0.1,0,0.2,0,0.4h-6.5c0,0.6,0.2,1.1,0.4,1.5s0.6,0.7,0.9,0.9c0.4,0.2,0.8,0.3,1.2,0.3c0.6,0,1-0.1,1.4-0.4
					s0.6-0.6,0.8-1h1.3c-0.2,0.7-0.6,1.4-1.2,1.8C144.5,90.4,143.8,90.6,142.8,90.6z M142.8,83.4c-0.6,0-1.2,0.2-1.7,0.6
					s-0.8,1-0.9,1.7h5c0-0.7-0.3-1.3-0.7-1.7C144,83.7,143.5,83.4,142.8,83.4z"/>
				<path class="st1" d="M151.2,90.4c-0.7,0-1.3-0.2-1.7-0.5s-0.6-1-0.6-1.9v-4.4h-1.4v-1.1h1.4l0.2-1.9h1.2v1.9h2.3v1.1h-2.4V88
					c0,0.5,0.1,0.8,0.3,1s0.6,0.3,1.1,0.3h0.8v1.1H151.2z"/>
				<path class="st1" d="M158.9,90.4v-6.8h-1.2v-1.1h1.2v-1.4c0-0.8,0.2-1.3,0.6-1.7c0.4-0.4,0.9-0.5,1.7-0.5h0.8V80h-0.6
					c-0.4,0-0.7,0.1-0.9,0.2c-0.2,0.2-0.3,0.5-0.3,0.8v1.3h1.9v1.1h-1.9v6.8L158.9,90.4L158.9,90.4z"/>
				<path class="st1" d="M163.8,90.4v-7.9h1.2l0.1,1.5c0.2-0.5,0.6-0.9,1.1-1.2c0.5-0.3,1.1-0.5,1.9-0.5v1.4h-0.4
					c-0.5,0-0.9,0.1-1.3,0.2c-0.4,0.2-0.7,0.5-0.9,0.8c-0.2,0.4-0.4,0.9-0.4,1.6v4h-1.3V90.4z"/>
				<path class="st1" d="M172.5,90.6c-0.9,0-1.7-0.3-2.2-0.9c-0.6-0.6-0.8-1.4-0.8-2.6v-4.6h1.3V87c0,1.6,0.7,2.5,2,2.5
					c0.7,0,1.3-0.2,1.7-0.7s0.7-1.2,0.7-2.1v-4.1h1.3v7.9h-1.2l-0.1-1.4c-0.2,0.5-0.6,0.9-1.1,1.2C173.7,90.5,173.1,90.6,172.5,90.6
					z"/>
				<path class="st1" d="M181.8,90.6c-1,0-1.7-0.2-2.4-0.7c-0.6-0.5-1-1.1-1.1-2h1.4c0.1,0.4,0.3,0.8,0.7,1.1
					c0.4,0.3,0.8,0.5,1.4,0.5c0.6,0,1-0.1,1.2-0.4c0.3-0.2,0.4-0.5,0.4-0.9c0-0.5-0.2-0.8-0.5-1s-0.8-0.3-1.5-0.4
					c-0.4-0.1-0.9-0.2-1.3-0.4c-0.4-0.2-0.8-0.4-1.1-0.7c-0.3-0.3-0.4-0.7-0.4-1.2c0-0.7,0.3-1.3,0.8-1.7c0.5-0.4,1.2-0.7,2.1-0.7
					c0.8,0,1.5,0.2,2.1,0.6c0.5,0.4,0.8,1,0.9,1.8h-1.3c-0.1-0.4-0.2-0.7-0.5-1c-0.3-0.2-0.7-0.3-1.2-0.3s-0.8,0.1-1.1,0.3
					c-0.3,0.2-0.4,0.5-0.4,0.8s0.2,0.6,0.5,0.8c0.3,0.2,0.8,0.3,1.4,0.5c0.5,0.1,1,0.2,1.4,0.4s0.8,0.4,1.1,0.7
					c0.3,0.3,0.4,0.7,0.4,1.3c0,0.7-0.3,1.3-0.8,1.8C183.5,90.4,182.8,90.6,181.8,90.6z"/>
				<path class="st1" d="M189.6,90.4c-0.7,0-1.3-0.2-1.7-0.5s-0.6-1-0.6-1.9v-4.4h-1.4v-1.1h1.4l0.2-1.9h1.2v1.9h2.3v1.1h-2.3V88
					c0,0.5,0.1,0.8,0.3,1s0.6,0.3,1.1,0.3h0.8v1.1H189.6z"/>
				<path class="st1" d="M192.6,90.4v-7.9h1.2l0.1,1.5c0.2-0.5,0.6-0.9,1.1-1.2c0.5-0.3,1.1-0.5,1.9-0.5v1.4h-0.4
					c-0.5,0-0.9,0.1-1.3,0.2c-0.4,0.2-0.7,0.5-0.9,0.8c-0.2,0.4-0.4,0.9-0.4,1.6v4h-1.3V90.4z"/>
				<path class="st1" d="M201.1,90.6c-0.7,0-1.2-0.1-1.7-0.3c-0.4-0.2-0.8-0.5-1-0.9s-0.3-0.8-0.3-1.2c0-0.8,0.3-1.4,0.9-1.9
					c0.6-0.4,1.5-0.7,2.5-0.7h2.1v-0.1c0-0.7-0.2-1.2-0.5-1.6c-0.4-0.4-0.9-0.5-1.5-0.5c-0.5,0-1,0.1-1.4,0.4s-0.6,0.6-0.7,1.1h-1.4
					c0.1-0.6,0.2-1.1,0.6-1.5c0.3-0.4,0.8-0.7,1.3-0.9c0.5-0.2,1-0.3,1.6-0.3c1.1,0,1.9,0.3,2.5,0.9s0.8,1.4,0.8,2.4v4.9h-1.2
					l-0.1-1.4c-0.2,0.5-0.6,0.8-1,1.1C202.4,90.5,201.8,90.6,201.1,90.6z M201.3,89.5c0.5,0,0.9-0.1,1.3-0.4c0.4-0.3,0.6-0.6,0.8-1
					s0.3-0.9,0.3-1.3l0,0h-2c-0.8,0-1.3,0.1-1.7,0.4c-0.3,0.3-0.5,0.6-0.5,1s0.1,0.8,0.5,1C200.3,89.4,200.7,89.5,201.3,89.5z"/>
				<path class="st1" d="M210,90.4c-0.7,0-1.3-0.2-1.7-0.5c-0.4-0.4-0.6-1-0.6-1.9v-4.4h-1.4v-1.1h1.4l0.2-1.9h1.2v1.9h2.3v1.1h-2.3
					V88c0,0.5,0.1,0.8,0.3,1s0.6,0.3,1.1,0.3h0.8v1.1H210z"/>
				<path class="st1" d="M216.4,90.6c-0.8,0-1.4-0.2-2-0.5c-0.6-0.4-1.1-0.8-1.4-1.5c-0.3-0.6-0.5-1.4-0.5-2.2
					c0-0.8,0.2-1.6,0.5-2.2s0.8-1.1,1.4-1.5c0.6-0.4,1.3-0.5,2.1-0.5s1.4,0.2,2,0.5s1,0.8,1.3,1.4s0.4,1.2,0.4,1.8
					c0,0.1,0,0.2,0,0.4c0,0.1,0,0.2,0,0.4h-6.3c0,0.6,0.2,1.1,0.4,1.5s0.6,0.7,0.9,0.9c0.4,0.2,0.8,0.3,1.2,0.3c0.5,0,1-0.1,1.4-0.4
					s0.6-0.6,0.8-1h1.3c-0.2,0.7-0.6,1.4-1.2,1.8C218.1,90.4,217.4,90.6,216.4,90.6z M216.4,83.4c-0.6,0-1.2,0.2-1.7,0.6
					s-0.8,1-0.9,1.7h5c0-0.7-0.3-1.3-0.7-1.7C217.6,83.7,217.1,83.4,216.4,83.4z"/>
				<path class="st1" d="M225.5,90.6c-0.8,0-1.5-0.2-2.1-0.5c-0.6-0.4-1.1-0.9-1.4-1.5s-0.5-1.3-0.5-2.1c0-0.8,0.2-1.5,0.5-2.1
					s0.8-1.1,1.4-1.5c0.6-0.4,1.3-0.5,2.1-0.5c0.6,0,1.2,0.1,1.7,0.4s0.9,0.6,1.2,1.1V79h1.3v11.5h-1.2l-0.1-1.3
					c-0.3,0.4-0.6,0.7-1.1,1C226.9,90.5,226.3,90.6,225.5,90.6z M225.7,89.5c0.5,0,1-0.1,1.4-0.4c0.4-0.2,0.7-0.6,1-1.1
					c0.2-0.4,0.3-1,0.3-1.6s-0.1-1.1-0.3-1.6s-0.5-0.8-1-1.1s-0.9-0.4-1.4-0.4s-1,0.1-1.4,0.4s-0.7,0.6-1,1.1
					c-0.2,0.4-0.3,1-0.3,1.6s0.1,1.1,0.3,1.6s0.5,0.8,1,1.1C224.7,89.3,225.2,89.5,225.7,89.5z"/>
				<path class="st1" d="M239.9,90.6c-0.8,0-1.4-0.2-2-0.5s-1.1-0.8-1.4-1.4c-0.4-0.6-0.5-1.4-0.5-2.2s0.2-1.6,0.5-2.2
					c0.4-0.6,0.8-1.1,1.4-1.4s1.3-0.5,2-0.5c0.8,0,1.4,0.2,2,0.5s1.1,0.8,1.4,1.4c0.4,0.6,0.5,1.4,0.5,2.2s-0.2,1.6-0.5,2.2
					c-0.4,0.6-0.8,1.1-1.4,1.4C241.3,90.5,240.6,90.6,239.9,90.6z M239.9,89.5c0.5,0,0.9-0.1,1.3-0.3c0.4-0.2,0.7-0.6,1-1
					s0.4-1,0.4-1.7s-0.1-1.2-0.4-1.7c-0.2-0.4-0.6-0.8-0.9-1c-0.4-0.2-0.8-0.3-1.3-0.3s-0.9,0.1-1.3,0.3c-0.4,0.2-0.7,0.6-1,1
					c-0.2,0.5-0.4,1-0.4,1.7s0.1,1.2,0.4,1.7c0.2,0.5,0.6,0.8,0.9,1C239,89.4,239.4,89.5,239.9,89.5z"/>
				<path class="st1" d="M245.7,90.4v-7.9h1.2L247,84c0.2-0.5,0.6-0.9,1.1-1.2c0.5-0.3,1.1-0.5,1.9-0.5v1.4h-0.4
					c-0.5,0-0.9,0.1-1.3,0.2c-0.4,0.2-0.7,0.5-0.9,0.8c-0.2,0.4-0.4,0.9-0.4,1.6v4h-1.3V90.4z"/>
				<path class="st1" d="M257.4,90.4l-2.3-7.9h1.3l1.7,6.2l1.9-6.2h1.5l1.9,6.2l1.7-6.2h1.4l-2.3,7.9h-1.4l-2-6.5l-2,6.5H257.4z"/>
				<path class="st1" d="M271.1,90.6c-0.8,0-1.4-0.2-2-0.5s-1.1-0.8-1.4-1.4s-0.5-1.4-0.5-2.2s0.2-1.6,0.5-2.2
					c0.4-0.6,0.8-1.1,1.4-1.4s1.3-0.5,2-0.5c0.8,0,1.4,0.2,2,0.5s1.1,0.8,1.4,1.4s0.5,1.4,0.5,2.2s-0.2,1.6-0.5,2.2
					c-0.4,0.6-0.8,1.1-1.4,1.4C272.6,90.5,271.9,90.6,271.1,90.6z M271.1,89.5c0.5,0,0.9-0.1,1.3-0.3c0.4-0.2,0.7-0.6,1-1
					s0.4-1,0.4-1.7s-0.1-1.2-0.4-1.7c-0.2-0.4-0.6-0.8-0.9-1c-0.4-0.2-0.8-0.3-1.3-0.3s-0.9,0.1-1.3,0.3c-0.4,0.2-0.7,0.6-1,1
					c-0.2,0.5-0.4,1-0.4,1.7s0.1,1.2,0.4,1.7s0.6,0.8,0.9,1C270.3,89.4,270.7,89.5,271.1,89.5z"/>
				<path class="st1" d="M277,90.4v-7.9h1.2l0.1,1.5c0.2-0.5,0.6-0.9,1.1-1.2c0.5-0.3,1.1-0.5,1.9-0.5v1.4h-0.4
					c-0.5,0-0.9,0.1-1.3,0.2c-0.4,0.2-0.7,0.5-0.9,0.8c-0.2,0.4-0.4,0.9-0.4,1.6v4H277V90.4z"/>
				<path class="st1" d="M282.8,90.4v-7.9h1.2l0.1,1.5c0.2-0.5,0.6-0.9,1.1-1.2c0.5-0.3,1.1-0.5,1.9-0.5v1.4h-0.4
					c-0.5,0-0.9,0.1-1.3,0.2c-0.4,0.2-0.7,0.5-0.9,0.8c-0.2,0.4-0.4,0.9-0.4,1.6v4h-1.3V90.4z"/>
				<path class="st1" d="M289.5,94l2-4.3H291l-3.1-7.2h1.5l2.6,6.2l2.8-6.2h1.4L291,94H289.5z"/>
				<path class="st1" d="M29.9,112.4l-2.3-7.9h1.3l1.7,6.2l1.9-6.2H34l1.9,6.2l1.7-6.2H39l-2.3,7.9h-1.4l-1.9-6.5l-2,6.5H29.9z"/>
				<path class="st1" d="M40.3,112.4v-11.5h1.3v4.9c0.3-0.5,0.7-0.9,1.1-1.1c0.5-0.3,1-0.4,1.6-0.4c0.9,0,1.6,0.3,2.2,0.9
					c0.5,0.6,0.8,1.4,0.8,2.6v4.6H46v-4.5c0-1.6-0.7-2.5-2-2.5c-0.7,0-1.3,0.2-1.7,0.7c-0.5,0.5-0.7,1.2-0.7,2.1v4.1L40.3,112.4
					L40.3,112.4z"/>
				<path class="st1" d="M53,112.6c-0.8,0-1.4-0.2-2-0.5c-0.6-0.4-1-0.8-1.4-1.5c-0.3-0.6-0.5-1.4-0.5-2.2c0-0.8,0.2-1.6,0.5-2.2
					s0.8-1.1,1.4-1.5c0.6-0.4,1.3-0.5,2.1-0.5s1.4,0.2,2,0.5s1,0.8,1.3,1.4c0.3,0.6,0.4,1.2,0.4,1.8c0,0.1,0,0.2,0,0.4
					c0,0.1,0,0.2,0,0.4h-6.3c0,0.6,0.2,1.1,0.4,1.5s0.6,0.7,0.9,0.9c0.4,0.2,0.8,0.3,1.2,0.3c0.5,0,1-0.1,1.4-0.4s0.7-0.6,0.8-1h1.3
					c-0.2,0.7-0.6,1.4-1.2,1.8C54.7,112.4,54,112.6,53,112.6z M53,105.4c-0.6,0-1.2,0.2-1.7,0.6s-0.8,1-0.9,1.7h5
					c0-0.7-0.3-1.3-0.7-1.7C54.3,105.7,53.7,105.4,53,105.4z"/>
				<path class="st1" d="M58.6,112.4v-7.9h1.2l0.1,1.4c0.3-0.5,0.6-0.9,1.1-1.2c0.5-0.3,1-0.4,1.6-0.4c0.9,0,1.7,0.3,2.2,0.9
					c0.6,0.6,0.8,1.4,0.8,2.6v4.6h-1.3v-4.5c0-1.6-0.7-2.5-2.1-2.5c-0.7,0-1.2,0.2-1.7,0.7s-0.7,1.2-0.7,2.1v4.1L58.6,112.4
					L58.6,112.4z"/>
				<path class="st1" d="M72.8,116l2-4.3h-0.5l-3.1-7.2h1.5l2.6,6.2l2.8-6.2h1.4L74.2,116H72.8z"/>
				<path class="st1" d="M83.7,112.6c-0.8,0-1.4-0.2-2-0.5s-1.1-0.8-1.4-1.4s-0.5-1.4-0.5-2.2s0.2-1.6,0.5-2.2
					c0.4-0.6,0.8-1.1,1.4-1.4s1.3-0.5,2-0.5s1.4,0.2,2,0.5s1.1,0.8,1.4,1.4s0.5,1.4,0.5,2.2s-0.2,1.6-0.5,2.2s-0.8,1.1-1.4,1.4
					S84.5,112.6,83.7,112.6z M83.7,111.5c0.5,0,0.9-0.1,1.3-0.3c0.4-0.2,0.7-0.6,1-1s0.4-1,0.4-1.7s-0.1-1.2-0.4-1.7
					c-0.2-0.4-0.6-0.8-0.9-1c-0.4-0.2-0.8-0.3-1.3-0.3s-0.9,0.1-1.3,0.3c-0.4,0.2-0.7,0.6-1,1c-0.2,0.5-0.4,1-0.4,1.7
					s0.1,1.2,0.4,1.7c0.2,0.5,0.6,0.8,0.9,1C82.9,111.4,83.3,111.5,83.7,111.5z"/>
				<path class="st1" d="M92.5,112.6c-0.9,0-1.7-0.3-2.2-0.9s-0.8-1.4-0.8-2.6v-4.6h1.3v4.5c0,1.6,0.7,2.5,2,2.5
					c0.7,0,1.3-0.2,1.7-0.7c0.4-0.5,0.7-1.2,0.7-2.1v-4.1h1.3v7.9h-1.2l-0.1-1.4c-0.2,0.5-0.6,0.9-1.1,1.2
					C93.6,112.5,93.1,112.6,92.5,112.6z"/>
				<path class="st1" d="M106.6,112.6c-0.8,0-1.4-0.2-2-0.5c-0.6-0.4-1.1-0.8-1.4-1.5c-0.3-0.6-0.5-1.4-0.5-2.2s0.2-1.6,0.5-2.2
					c0.4-0.6,0.8-1.1,1.4-1.5s1.3-0.5,2-0.5c0.9,0,1.7,0.2,2.4,0.7c0.6,0.5,1.1,1.2,1.2,2h-1.4c-0.1-0.5-0.4-0.9-0.8-1.1
					c-0.4-0.3-0.9-0.4-1.5-0.4c-0.4,0-0.9,0.1-1.3,0.3c-0.4,0.2-0.7,0.6-1,1c-0.2,0.4-0.4,1-0.4,1.7s0.1,1.2,0.4,1.7s0.6,0.8,1,1
					s0.8,0.3,1.3,0.3c0.6,0,1-0.1,1.5-0.4c0.4-0.3,0.7-0.7,0.8-1.2h1.4c-0.2,0.8-0.6,1.5-1.2,2C108.4,112.4,107.6,112.6,106.6,112.6
					z"/>
				<path class="st1" d="M114.7,112.6c-0.7,0-1.2-0.1-1.6-0.3c-0.4-0.2-0.8-0.5-1-0.9s-0.3-0.8-0.3-1.2c0-0.8,0.3-1.4,0.9-1.9
					c0.6-0.4,1.5-0.7,2.5-0.7h2.1v-0.1c0-0.7-0.2-1.2-0.5-1.6c-0.4-0.4-0.9-0.5-1.5-0.5c-0.5,0-1,0.1-1.3,0.4s-0.6,0.6-0.7,1.1h-1.4
					c0-0.6,0.2-1.1,0.6-1.5c0.3-0.4,0.8-0.7,1.3-0.9c0.5-0.2,1-0.3,1.6-0.3c1.1,0,1.9,0.3,2.5,0.9s0.8,1.4,0.8,2.4v4.9h-1.2
					l-0.1-1.4c-0.2,0.5-0.6,0.8-1,1.1C116,112.5,115.5,112.6,114.7,112.6z M114.9,111.5c0.5,0,0.9-0.1,1.3-0.4s0.7-0.6,0.8-1
					c0.2-0.4,0.3-0.9,0.3-1.3l0,0h-2c-0.8,0-1.4,0.1-1.7,0.4c-0.3,0.3-0.5,0.6-0.5,1s0.1,0.8,0.5,1
					C114,111.4,114.4,111.5,114.9,111.5z"/>
				<path class="st1" d="M120.7,112.4v-7.9h1.2l0.1,1.4c0.3-0.5,0.6-0.9,1.1-1.2c0.5-0.3,1-0.4,1.6-0.4c0.9,0,1.7,0.3,2.2,0.9
					c0.6,0.6,0.8,1.4,0.8,2.6v4.6h-1.3v-4.5c0-1.6-0.7-2.5-2.1-2.5c-0.7,0-1.2,0.2-1.7,0.7s-0.7,1.2-0.7,2.1v4.1L120.7,112.4
					L120.7,112.4z"/>
				<path class="st1" d="M129.3,104.8l0.9-3.6h1.5l-1.5,3.6H129.3z"/>
				<path class="st1" d="M136.4,112.4c-0.7,0-1.3-0.2-1.7-0.5s-0.6-1-0.6-1.9v-4.4h-1.4v-1.1h1.4l0.2-1.9h1.2v1.9h2.3v1.1h-2.3v4.4
					c0,0.5,0.1,0.8,0.3,1s0.6,0.3,1.1,0.3h0.8v1.1H136.4z"/>
				<path class="st1" d="M146.8,112.6c-1,0-1.7-0.2-2.4-0.7c-0.6-0.5-1-1.1-1.1-2h1.4c0.1,0.4,0.3,0.8,0.7,1.1
					c0.4,0.3,0.8,0.5,1.4,0.5c0.6,0,1-0.1,1.2-0.4c0.3-0.2,0.4-0.5,0.4-0.9c0-0.5-0.2-0.8-0.5-1s-0.8-0.3-1.5-0.4
					c-0.4-0.1-0.8-0.2-1.3-0.4c-0.4-0.2-0.8-0.4-1.1-0.7c-0.3-0.3-0.4-0.7-0.4-1.2c0-0.7,0.3-1.3,0.8-1.7c0.5-0.4,1.2-0.7,2.1-0.7
					c0.8,0,1.5,0.2,2.1,0.6c0.5,0.4,0.9,1,0.9,1.8h-1.3c0-0.4-0.2-0.7-0.5-1c-0.3-0.2-0.7-0.3-1.2-0.3s-0.8,0.1-1.1,0.3
					c-0.3,0.2-0.4,0.5-0.4,0.8s0.2,0.6,0.5,0.8s0.8,0.3,1.4,0.5c0.5,0.1,1,0.2,1.4,0.4s0.8,0.4,1.1,0.7c0.3,0.3,0.4,0.7,0.4,1.3
					c0,0.7-0.3,1.3-0.8,1.8C148.5,112.4,147.7,112.6,146.8,112.6z"/>
				<path class="st1" d="M151.7,112.4v-11.5h1.3v11.5H151.7z"/>
				<path class="st1" d="M158.9,112.6c-0.8,0-1.4-0.2-2-0.5c-0.6-0.4-1.1-0.8-1.4-1.5c-0.3-0.6-0.5-1.4-0.5-2.2
					c0-0.8,0.2-1.6,0.5-2.2s0.8-1.1,1.4-1.5c0.6-0.4,1.3-0.5,2.1-0.5s1.4,0.2,2,0.5s1,0.8,1.3,1.4s0.4,1.2,0.4,1.8
					c0,0.1,0,0.2,0,0.4c0,0.1,0,0.2,0,0.4h-6.3c0,0.6,0.2,1.1,0.4,1.5s0.6,0.7,0.9,0.9c0.4,0.2,0.8,0.3,1.2,0.3c0.6,0,1-0.1,1.4-0.4
					s0.7-0.6,0.8-1h1.3c-0.2,0.7-0.6,1.4-1.2,1.8C160.6,112.4,159.8,112.6,158.9,112.6z M158.9,105.4c-0.6,0-1.2,0.2-1.7,0.6
					s-0.8,1-0.9,1.7h5c0-0.7-0.3-1.3-0.7-1.7C160.1,105.7,159.5,105.4,158.9,105.4z"/>
				<path class="st1" d="M168,112.6c-0.8,0-1.4-0.2-2-0.5c-0.6-0.4-1.1-0.8-1.4-1.5c-0.3-0.6-0.5-1.4-0.5-2.2c0-0.8,0.2-1.6,0.5-2.2
					s0.8-1.1,1.4-1.5c0.6-0.4,1.3-0.5,2.1-0.5s1.4,0.2,2,0.5s1,0.8,1.3,1.4s0.4,1.2,0.4,1.8c0,0.1,0,0.2,0,0.4c0,0.1,0,0.2,0,0.4
					h-6.3c0,0.6,0.2,1.1,0.4,1.5s0.6,0.7,0.9,0.9c0.4,0.2,0.8,0.3,1.2,0.3c0.6,0,1-0.1,1.4-0.4s0.7-0.6,0.8-1h1.3
					c-0.2,0.7-0.6,1.4-1.2,1.8C169.7,112.4,168.9,112.6,168,112.6z M168,105.4c-0.6,0-1.2,0.2-1.7,0.6s-0.8,1-0.9,1.7h5
					c0-0.7-0.3-1.3-0.7-1.7C169.2,105.7,168.6,105.4,168,105.4z"/>
				<path class="st1" d="M173.5,116v-11.5h1.2l0.1,1.3c0.3-0.4,0.6-0.7,1.1-1s1.1-0.5,1.8-0.5c0.8,0,1.5,0.2,2.1,0.5
					c0.6,0.4,1,0.9,1.4,1.5s0.5,1.3,0.5,2.1c0,0.8-0.2,1.5-0.5,2.1s-0.8,1.1-1.4,1.5c-0.6,0.4-1.3,0.5-2.1,0.5
					c-0.6,0-1.2-0.1-1.7-0.4s-0.9-0.6-1.2-1.1v4.8h-1.3V116z M177.6,111.5c0.5,0,1-0.1,1.4-0.4s0.7-0.6,1-1.1c0.2-0.4,0.4-1,0.4-1.6
					s-0.1-1.1-0.4-1.6c-0.2-0.5-0.6-0.8-1-1.1c-0.4-0.2-0.9-0.4-1.4-0.4s-1,0.1-1.4,0.4c-0.4,0.2-0.7,0.6-1,1.1
					c-0.2,0.4-0.4,1-0.4,1.6s0.1,1.1,0.4,1.6c0.2,0.5,0.6,0.8,1,1.1C176.6,111.3,177.1,111.5,177.6,111.5z"/>
				<path class="st1" d="M182.5,114.3l0.9-3.5h1.4l-1.4,3.5H182.5z"/>
				<path class="st1" d="M193.8,112.4c-0.7,0-1.3-0.2-1.7-0.5s-0.6-1-0.6-1.9v-4.4h-1.4v-1.1h1.4l0.2-1.9h1.2v1.9h2.3v1.1h-2.3v4.4
					c0,0.5,0.1,0.8,0.3,1s0.6,0.3,1.1,0.3h0.8v1.1H193.8z"/>
				<path class="st1" d="M196.8,112.4v-11.5h1.3v4.9c0.3-0.5,0.6-0.9,1.1-1.1c0.5-0.3,1-0.4,1.6-0.4c0.9,0,1.7,0.3,2.2,0.9
					c0.6,0.6,0.8,1.4,0.8,2.6v4.6h-1.3v-4.5c0-1.6-0.7-2.5-2-2.5c-0.7,0-1.3,0.2-1.7,0.7c-0.5,0.5-0.7,1.2-0.7,2.1v4.1L196.8,112.4
					L196.8,112.4z"/>
				<path class="st1" d="M206.8,102.7c-0.3,0-0.5-0.1-0.7-0.3c-0.2-0.2-0.3-0.4-0.3-0.7s0.1-0.5,0.3-0.6c0.2-0.2,0.4-0.3,0.7-0.3
					s0.5,0.1,0.7,0.3c0.2,0.2,0.3,0.4,0.3,0.6c0,0.3-0.1,0.5-0.3,0.7C207.3,102.7,207.1,102.7,206.8,102.7z M206.1,112.4v-7.9h1.3
					v7.9H206.1z"/>
				<path class="st1" d="M212.8,112.6c-0.9,0-1.7-0.2-2.4-0.7c-0.6-0.5-1-1.1-1.1-2h1.4c0.1,0.4,0.3,0.8,0.7,1.1
					c0.4,0.3,0.8,0.5,1.4,0.5c0.6,0,1-0.1,1.2-0.4c0.3-0.2,0.4-0.5,0.4-0.9c0-0.5-0.2-0.8-0.5-1s-0.8-0.3-1.5-0.4
					c-0.4-0.1-0.9-0.2-1.3-0.4c-0.4-0.2-0.8-0.4-1.1-0.7c-0.3-0.3-0.4-0.7-0.4-1.2c0-0.7,0.3-1.3,0.8-1.7s1.2-0.7,2.1-0.7
					c0.8,0,1.5,0.2,2.1,0.6c0.5,0.4,0.9,1,0.9,1.8h-1.3c-0.1-0.4-0.2-0.7-0.5-1c-0.3-0.2-0.7-0.3-1.2-0.3s-0.9,0.1-1.1,0.3
					c-0.3,0.2-0.4,0.5-0.4,0.8s0.2,0.6,0.5,0.8s0.8,0.3,1.4,0.5c0.5,0.1,1,0.2,1.4,0.4c0.4,0.1,0.8,0.4,1.1,0.7
					c0.3,0.3,0.4,0.7,0.4,1.3c0,0.7-0.3,1.3-0.8,1.8C214.5,112.4,213.8,112.6,212.8,112.6z"/>
				<path class="st1" d="M223.6,112.4l-2.3-7.9h1.3l1.7,6.2l1.9-6.2h1.5l1.9,6.2l1.7-6.2h1.4l-2.3,7.9H229l-2-6.5l-1.9,6.5H223.6z"
					/>
				<path class="st1" d="M234.9,102.7c-0.3,0-0.5-0.1-0.7-0.3c-0.2-0.2-0.3-0.4-0.3-0.7s0.1-0.5,0.3-0.6c0.2-0.2,0.4-0.3,0.7-0.3
					s0.5,0.1,0.7,0.3c0.2,0.2,0.3,0.4,0.3,0.6c0,0.3-0.1,0.5-0.3,0.7C235.4,102.7,235.2,102.7,234.9,102.7z M234.3,112.4v-7.9h1.3
					v7.9H234.3z"/>
				<path class="st1" d="M237.9,112.4v-11.5h1.3v11.5H237.9z"/>
				<path class="st1" d="M241.5,112.4v-11.5h1.3v11.5H241.5z"/>
				<path class="st1" d="M251.9,112.6c-0.7,0-1.2-0.1-1.6-0.3c-0.4-0.2-0.8-0.5-1-0.9s-0.3-0.8-0.3-1.2c0-0.8,0.3-1.4,0.9-1.9
					c0.6-0.4,1.5-0.7,2.5-0.7h2.1v-0.1c0-0.7-0.2-1.2-0.5-1.6c-0.4-0.4-0.9-0.5-1.5-0.5c-0.5,0-1,0.1-1.3,0.4s-0.6,0.6-0.7,1.1h-1.4
					c0-0.6,0.2-1.1,0.6-1.5c0.3-0.4,0.8-0.7,1.3-0.9c0.5-0.2,1-0.3,1.6-0.3c1.1,0,1.9,0.3,2.5,0.9s0.8,1.4,0.8,2.4v4.9h-1.2
					l-0.1-1.4c-0.2,0.5-0.6,0.8-1,1.1C253.2,112.5,252.6,112.6,251.9,112.6z M252.1,111.5c0.5,0,0.9-0.1,1.3-0.4s0.7-0.6,0.8-1
					c0.2-0.4,0.3-0.9,0.3-1.3l0,0h-2c-0.8,0-1.4,0.1-1.7,0.4c-0.3,0.3-0.5,0.6-0.5,1s0.1,0.8,0.5,1
					C251.1,111.4,251.6,111.5,252.1,111.5z"/>
				<path class="st1" d="M257.9,112.4v-11.5h1.3v11.5H257.9z"/>
				<path class="st1" d="M264.5,112.6c-1,0-1.7-0.2-2.4-0.7c-0.6-0.5-1-1.1-1.1-2h1.4c0.1,0.4,0.3,0.8,0.7,1.1
					c0.4,0.3,0.8,0.5,1.4,0.5s1-0.1,1.2-0.4c0.3-0.2,0.4-0.5,0.4-0.9c0-0.5-0.2-0.8-0.5-1s-0.8-0.3-1.5-0.4
					c-0.4-0.1-0.9-0.2-1.3-0.4c-0.4-0.2-0.8-0.4-1.1-0.7s-0.4-0.7-0.4-1.2c0-0.7,0.3-1.3,0.8-1.7c0.5-0.4,1.2-0.7,2.1-0.7
					c0.8,0,1.5,0.2,2.1,0.6c0.5,0.4,0.9,1,0.9,1.8h-1.3c-0.1-0.4-0.2-0.7-0.5-1c-0.3-0.2-0.7-0.3-1.2-0.3s-0.9,0.1-1.1,0.3
					c-0.3,0.2-0.4,0.5-0.4,0.8s0.2,0.6,0.5,0.8c0.3,0.2,0.8,0.3,1.4,0.5c0.5,0.1,1,0.2,1.4,0.4c0.4,0.1,0.8,0.4,1.1,0.7
					c0.3,0.3,0.4,0.7,0.4,1.3c0,0.7-0.3,1.3-0.8,1.8C266.2,112.4,265.5,112.6,264.5,112.6z"/>
				<path class="st1" d="M273.1,112.6c-0.8,0-1.4-0.2-2-0.5s-1.1-0.8-1.4-1.4c-0.4-0.6-0.5-1.4-0.5-2.2s0.2-1.6,0.5-2.2
					c0.4-0.6,0.8-1.1,1.4-1.4s1.3-0.5,2-0.5c0.8,0,1.4,0.2,2,0.5s1.1,0.8,1.4,1.4c0.4,0.6,0.5,1.4,0.5,2.2s-0.2,1.6-0.5,2.2
					c-0.4,0.6-0.8,1.1-1.4,1.4S273.8,112.6,273.1,112.6z M273.1,111.5c0.5,0,0.9-0.1,1.3-0.3c0.4-0.2,0.7-0.6,1-1s0.4-1,0.4-1.7
					s-0.1-1.2-0.4-1.7c-0.2-0.4-0.6-0.8-1-1s-0.8-0.3-1.3-0.3s-0.9,0.1-1.3,0.3c-0.4,0.2-0.7,0.6-1,1c-0.2,0.5-0.4,1-0.4,1.7
					s0.1,1.2,0.4,1.7s0.6,0.8,1,1S272.6,111.5,273.1,111.5z"/>
				<path class="st1" d="M28.3,134.4v-7.9h1.2l0.1,1.1c0.3-0.4,0.6-0.8,1-1s0.9-0.4,1.4-0.4c0.6,0,1.2,0.1,1.6,0.4
					c0.4,0.3,0.8,0.6,1,1.2c0.3-0.5,0.7-0.9,1.1-1.1c0.5-0.3,1-0.4,1.6-0.4c1,0,1.7,0.3,2.3,0.9s0.8,1.5,0.8,2.6v4.6h-1.2v-4.5
					c0-0.8-0.2-1.4-0.5-1.9c-0.3-0.4-0.8-0.6-1.4-0.6c-0.6,0-1.2,0.2-1.6,0.7c-0.4,0.5-0.6,1.2-0.6,2.1v4.1h-1.3v-4.5
					c0-0.8-0.2-1.4-0.5-1.9c-0.3-0.4-0.8-0.6-1.4-0.6c-0.6,0-1.2,0.2-1.6,0.7c-0.4,0.5-0.6,1.2-0.6,2.1v4.1L28.3,134.4L28.3,134.4z"
					/>
				<path class="st1" d="M45.2,134.6c-0.7,0-1.2-0.1-1.7-0.3c-0.4-0.2-0.8-0.5-1-0.9s-0.3-0.8-0.3-1.2c0-0.8,0.3-1.4,0.9-1.9
					c0.6-0.4,1.5-0.7,2.5-0.7h2.1v-0.1c0-0.7-0.2-1.2-0.5-1.6c-0.4-0.4-0.8-0.5-1.5-0.5c-0.5,0-1,0.1-1.4,0.4
					c-0.4,0.3-0.6,0.6-0.7,1.1h-1.4c0.1-0.6,0.2-1.1,0.6-1.5c0.3-0.4,0.8-0.7,1.3-0.9c0.5-0.2,1-0.3,1.6-0.3c1.1,0,1.9,0.3,2.5,0.9
					s0.8,1.4,0.8,2.4v4.9h-1.2l-0.1-1.4c-0.2,0.5-0.6,0.8-1,1.1C46.5,134.5,45.9,134.6,45.2,134.6z M45.4,133.5
					c0.5,0,0.9-0.1,1.3-0.4c0.4-0.3,0.7-0.6,0.8-1c0.2-0.4,0.3-0.9,0.3-1.3l0,0h-2c-0.8,0-1.3,0.1-1.7,0.4s-0.5,0.6-0.5,1
					s0.1,0.8,0.5,1C44.4,133.4,44.9,133.5,45.4,133.5z"/>
				<path class="st1" d="M51.2,134.4v-11.5h1.3v6.9l3.2-3.3h1.6l-3.5,3.6l4,4.4h-1.6l-3.6-4.1v4.1h-1.4V134.4z"/>
				<path class="st1" d="M62.3,134.6c-0.8,0-1.4-0.2-2-0.5c-0.6-0.4-1-0.8-1.4-1.5c-0.3-0.6-0.5-1.4-0.5-2.2c0-0.8,0.2-1.6,0.5-2.2
					c0.3-0.6,0.8-1.1,1.4-1.5s1.3-0.5,2.1-0.5c0.8,0,1.4,0.2,2,0.5c0.6,0.3,1,0.8,1.3,1.4c0.3,0.6,0.4,1.2,0.4,1.8
					c0,0.1,0,0.2,0,0.4c0,0.1,0,0.2,0,0.4h-6.3c0,0.6,0.2,1.1,0.4,1.5s0.6,0.7,0.9,0.9c0.4,0.2,0.8,0.3,1.2,0.3c0.6,0,1-0.1,1.4-0.4
					c0.4-0.3,0.7-0.6,0.8-1h1.3c-0.2,0.7-0.6,1.4-1.2,1.8C64,134.4,63.2,134.6,62.3,134.6z M62.3,127.4c-0.6,0-1.2,0.2-1.7,0.6
					c-0.5,0.4-0.8,1-0.9,1.7h5c0-0.7-0.3-1.3-0.7-1.7C63.5,127.7,63,127.4,62.3,127.4z"/>
				<path class="st1" d="M75.1,134.6c-1,0-1.7-0.2-2.4-0.7s-1-1.1-1.1-2H73c0.1,0.4,0.3,0.8,0.7,1.1c0.4,0.3,0.8,0.5,1.4,0.5
					s1-0.1,1.3-0.4c0.3-0.2,0.4-0.5,0.4-0.9c0-0.5-0.2-0.8-0.5-1c-0.4-0.2-0.8-0.3-1.5-0.4c-0.4-0.1-0.8-0.2-1.3-0.4
					c-0.4-0.2-0.8-0.4-1.1-0.7S72,129,72,128.5c0-0.7,0.3-1.3,0.8-1.7c0.5-0.4,1.2-0.7,2.1-0.7c0.8,0,1.5,0.2,2.1,0.6
					c0.5,0.4,0.8,1,0.9,1.8h-1.3c-0.1-0.4-0.2-0.7-0.5-1c-0.3-0.2-0.7-0.3-1.2-0.3s-0.8,0.1-1.1,0.3c-0.3,0.2-0.4,0.5-0.4,0.8
					s0.2,0.6,0.5,0.8s0.8,0.3,1.4,0.5c0.5,0.1,1,0.2,1.4,0.4c0.4,0.1,0.8,0.4,1.1,0.7s0.4,0.7,0.4,1.3c0,0.7-0.3,1.3-0.8,1.8
					C76.8,134.4,76,134.6,75.1,134.6z"/>
				<path class="st1" d="M83,134.6c-0.9,0-1.7-0.3-2.2-0.9c-0.6-0.6-0.8-1.4-0.8-2.6v-4.6h1.2v4.5c0,1.6,0.7,2.5,2,2.5
					c0.7,0,1.3-0.2,1.7-0.7c0.5-0.5,0.7-1.2,0.7-2.1v-4.1h1.3v7.9h-1.2l-0.1-1.4c-0.2,0.5-0.6,0.9-1.1,1.2
					C84.1,134.5,83.6,134.6,83,134.6z"/>
				<path class="st1" d="M89.2,134.4v-7.9h1.2l0.1,1.5c0.2-0.5,0.6-0.9,1.1-1.2c0.5-0.3,1.1-0.5,1.9-0.5v1.4h-0.3
					c-0.5,0-0.9,0.1-1.3,0.2c-0.4,0.2-0.7,0.5-0.9,0.8c-0.2,0.4-0.3,0.9-0.3,1.6v4h-1.5V134.4z"/>
				<path class="st1" d="M98.3,134.6c-0.8,0-1.4-0.2-2-0.5c-0.6-0.4-1-0.8-1.4-1.5c-0.3-0.6-0.5-1.4-0.5-2.2c0-0.8,0.2-1.6,0.5-2.2
					c0.3-0.6,0.8-1.1,1.4-1.5s1.3-0.5,2.1-0.5c0.8,0,1.4,0.2,2,0.5s1,0.8,1.3,1.4c0.3,0.6,0.4,1.2,0.4,1.8c0,0.1,0,0.2,0,0.4
					c0,0.1,0,0.2,0,0.4h-6.3c0,0.6,0.2,1.1,0.4,1.5s0.6,0.7,0.9,0.9c0.4,0.2,0.8,0.3,1.2,0.3c0.5,0,1-0.1,1.4-0.4s0.6-0.6,0.8-1h1.3
					c-0.2,0.7-0.6,1.4-1.2,1.8C100,134.4,99.2,134.6,98.3,134.6z M98.3,127.4c-0.6,0-1.2,0.2-1.7,0.6c-0.5,0.4-0.8,1-0.9,1.7h5
					c0-0.7-0.3-1.3-0.7-1.7C99.5,127.7,99,127.4,98.3,127.4z"/>
				<path class="st1" d="M111.2,134.4c-0.7,0-1.3-0.2-1.7-0.5s-0.6-1-0.6-1.9v-4.4h-1.4v-1.1h1.4l0.2-1.9h1.2v1.9h2.3v1.1h-2.4v4.4
					c0,0.5,0.1,0.8,0.3,1s0.6,0.3,1.1,0.3h0.8v1.1H111.2z"/>
				<path class="st1" d="M114.3,134.4v-11.5h1.3v4.9c0.3-0.5,0.6-0.9,1.1-1.1c0.5-0.3,1-0.4,1.6-0.4c0.9,0,1.6,0.3,2.2,0.9
					s0.8,1.4,0.8,2.6v4.6H120v-4.5c0-1.6-0.7-2.5-2-2.5c-0.7,0-1.3,0.2-1.7,0.7c-0.5,0.5-0.7,1.2-0.7,2.1v4.1L114.3,134.4
					L114.3,134.4z"/>
				<path class="st1" d="M126,134.6c-0.7,0-1.2-0.1-1.6-0.3c-0.4-0.2-0.8-0.5-1-0.9s-0.3-0.8-0.3-1.2c0-0.8,0.3-1.4,0.9-1.9
					c0.6-0.4,1.5-0.7,2.5-0.7h2.1v-0.1c0-0.7-0.2-1.2-0.5-1.6c-0.4-0.4-0.8-0.5-1.5-0.5c-0.5,0-1,0.1-1.4,0.4
					c-0.4,0.3-0.6,0.6-0.7,1.1h-1.4c0.1-0.6,0.2-1.1,0.6-1.5c0.3-0.4,0.8-0.7,1.3-0.9c0.5-0.2,1-0.3,1.6-0.3c1.1,0,1.9,0.3,2.5,0.9
					s0.8,1.4,0.8,2.4v4.9h-1.2l-0.1-1.4c-0.2,0.5-0.6,0.8-1,1.1C127.3,134.4,126.8,134.6,126,134.6z M126.3,133.5
					c0.5,0,0.9-0.1,1.3-0.4c0.4-0.3,0.7-0.6,0.8-1c0.2-0.4,0.3-0.9,0.3-1.3l0,0h-2c-0.8,0-1.4,0.1-1.7,0.4s-0.5,0.6-0.5,1
					s0.2,0.8,0.5,1C125.3,133.4,125.7,133.5,126.3,133.5z"/>
				<path class="st1" d="M135,134.4c-0.7,0-1.3-0.2-1.7-0.5s-0.6-1-0.6-1.9v-4.4h-1.4v-1.1h1.4l0.2-1.9h1.2v1.9h2.3v1.1h-2.3v4.4
					c0,0.5,0.1,0.8,0.3,1s0.6,0.3,1.1,0.3h0.8v1.1H135z"/>
				<path class="st1" d="M146.5,134.6c-0.7,0-1.2-0.1-1.7-0.4s-0.9-0.6-1.2-1.1l-0.1,1.3h-1.2v-11.5h1.3v4.9c0.3-0.4,0.6-0.7,1.1-1
					s1.1-0.5,1.8-0.5c0.8,0,1.5,0.2,2.1,0.5c0.6,0.4,1,0.9,1.4,1.5c0.4,0.6,0.5,1.3,0.5,2.1c0,0.8-0.2,1.5-0.5,2.1s-0.8,1.1-1.4,1.5
					C148,134.5,147.3,134.6,146.5,134.6z M146.4,133.5c0.5,0,1-0.1,1.4-0.4c0.4-0.2,0.7-0.6,1-1.1c0.2-0.4,0.4-1,0.4-1.6
					s-0.1-1.1-0.4-1.6c-0.2-0.5-0.6-0.8-1-1.1c-0.4-0.2-0.9-0.4-1.4-0.4s-1,0.1-1.4,0.4c-0.4,0.3-0.7,0.6-1,1.1
					c-0.2,0.4-0.3,1-0.3,1.6s0.1,1.1,0.3,1.6s0.6,0.8,1,1.1C145.4,133.3,145.8,133.5,146.4,133.5z"/>
				<path class="st1" d="M155.9,134.6c-0.8,0-1.4-0.2-2-0.5c-0.6-0.4-1.1-0.8-1.4-1.5c-0.3-0.6-0.5-1.4-0.5-2.2
					c0-0.8,0.2-1.6,0.5-2.2c0.3-0.6,0.8-1.1,1.4-1.5c0.6-0.4,1.3-0.5,2.1-0.5s1.4,0.2,2,0.5s1,0.8,1.3,1.4c0.3,0.6,0.4,1.2,0.4,1.8
					c0,0.1,0,0.2,0,0.4c0,0.1,0,0.2,0,0.4h-6.3c0,0.6,0.2,1.1,0.4,1.5s0.6,0.7,0.9,0.9c0.4,0.2,0.8,0.3,1.2,0.3c0.6,0,1-0.1,1.4-0.4
					s0.6-0.6,0.8-1h1.3c-0.2,0.7-0.6,1.4-1.2,1.8C157.6,134.4,156.8,134.6,155.9,134.6z M155.9,127.4c-0.6,0-1.2,0.2-1.7,0.6
					c-0.5,0.4-0.8,1-0.9,1.7h5c0-0.7-0.3-1.3-0.7-1.7C157.1,127.7,156.6,127.4,155.9,127.4z"/>
				<path class="st1" d="M165,134.6c-0.8,0-1.5-0.2-2.1-0.5c-0.6-0.4-1.1-0.9-1.4-1.5s-0.5-1.3-0.5-2.1c0-0.8,0.2-1.5,0.5-2.1
					c0.3-0.6,0.8-1.1,1.4-1.5c0.6-0.4,1.3-0.5,2.1-0.5c0.6,0,1.2,0.1,1.7,0.4s0.9,0.6,1.2,1.1V123h1.3v11.5H168l-0.1-1.3
					c-0.3,0.4-0.6,0.7-1.1,1C166.3,134.5,165.7,134.6,165,134.6z M165.2,133.5c0.5,0,1-0.1,1.4-0.4c0.4-0.2,0.7-0.6,1-1.1
					c0.2-0.4,0.3-1,0.3-1.6s-0.1-1.1-0.3-1.6s-0.6-0.8-1-1.1c-0.4-0.2-0.9-0.4-1.4-0.4s-1,0.1-1.4,0.4c-0.4,0.3-0.7,0.6-1,1.1
					c-0.2,0.4-0.3,1-0.3,1.6s0.1,1.1,0.3,1.6s0.5,0.8,1,1.1C164.2,133.3,164.6,133.5,165.2,133.5z"/>
				<path class="st1" d="M179.3,134.6c-0.8,0-1.5-0.2-2.1-0.5c-0.6-0.4-1.1-0.9-1.4-1.5c-0.3-0.6-0.5-1.3-0.5-2.1
					c0-0.8,0.2-1.5,0.5-2.1c0.3-0.6,0.8-1.1,1.4-1.5c0.6-0.4,1.3-0.5,2.1-0.5c0.7,0,1.2,0.1,1.7,0.4s0.9,0.6,1.2,1.1V123h1.3v11.5
					h-1.2l-0.1-1.3c-0.3,0.4-0.6,0.7-1.1,1S180,134.6,179.3,134.6z M179.5,133.5c0.5,0,1-0.1,1.4-0.4c0.4-0.2,0.7-0.6,1-1.1
					c0.2-0.4,0.3-1,0.3-1.6s-0.1-1.1-0.3-1.6s-0.6-0.8-1-1.1c-0.4-0.3-0.9-0.4-1.4-0.4s-1,0.1-1.4,0.4c-0.4,0.2-0.7,0.6-1,1.1
					c-0.2,0.4-0.3,1-0.3,1.6s0.1,1.1,0.3,1.6s0.6,0.8,1,1.1C178.5,133.3,178.9,133.5,179.5,133.5z"/>
				<path class="st1" d="M189.4,134.6c-0.8,0-1.4-0.2-2-0.5s-1.1-0.8-1.4-1.4c-0.3-0.6-0.5-1.4-0.5-2.2s0.2-1.6,0.5-2.2
					c0.3-0.6,0.8-1.1,1.4-1.4c0.6-0.3,1.3-0.5,2-0.5c0.8,0,1.4,0.2,2,0.5s1.1,0.8,1.4,1.4c0.3,0.6,0.5,1.4,0.5,2.2s-0.2,1.6-0.5,2.2
					s-0.8,1.1-1.4,1.4C190.8,134.5,190.1,134.6,189.4,134.6z M189.4,133.5c0.5,0,0.9-0.1,1.3-0.3c0.4-0.2,0.7-0.6,1-1s0.4-1,0.4-1.7
					s-0.1-1.2-0.4-1.7s-0.6-0.8-0.9-1c-0.4-0.2-0.8-0.3-1.3-0.3s-0.9,0.1-1.3,0.3c-0.4,0.2-0.7,0.6-1,1c-0.2,0.5-0.4,1-0.4,1.7
					s0.1,1.2,0.4,1.7s0.6,0.8,0.9,1C188.5,133.4,188.9,133.5,189.4,133.5z"/>
				<path class="st1" d="M198.8,134.6c-0.8,0-1.4-0.2-2-0.5c-0.6-0.4-1.1-0.8-1.4-1.5c-0.3-0.6-0.5-1.4-0.5-2.2
					c0-0.8,0.2-1.6,0.5-2.2c0.3-0.6,0.8-1.1,1.4-1.5c0.6-0.4,1.3-0.5,2.1-0.5s1.4,0.2,2,0.5s1,0.8,1.3,1.4c0.3,0.6,0.4,1.2,0.4,1.8
					c0,0.1,0,0.2,0,0.4c0,0.1,0,0.2,0,0.4h-6.4c0,0.6,0.2,1.1,0.4,1.5s0.6,0.7,0.9,0.9c0.4,0.2,0.8,0.3,1.2,0.3c0.6,0,1-0.1,1.4-0.4
					s0.7-0.6,0.8-1h1.3c-0.2,0.7-0.6,1.4-1.2,1.8C200.5,134.4,199.7,134.6,198.8,134.6z M198.8,127.4c-0.6,0-1.2,0.2-1.7,0.6
					c-0.5,0.4-0.8,1-0.9,1.7h5c0-0.7-0.3-1.3-0.7-1.7C200,127.7,199.5,127.4,198.8,127.4z"/>
				<path class="st1" d="M207.4,134.6c-0.9,0-1.7-0.2-2.4-0.7c-0.6-0.5-1-1.1-1.1-2h1.4c0.1,0.4,0.3,0.8,0.7,1.1
					c0.4,0.3,0.8,0.5,1.4,0.5c0.6,0,1-0.1,1.2-0.4c0.3-0.2,0.4-0.5,0.4-0.9c0-0.5-0.2-0.8-0.5-1c-0.4-0.2-0.8-0.3-1.5-0.4
					c-0.4-0.1-0.9-0.2-1.3-0.4c-0.4-0.2-0.8-0.4-1.1-0.7c-0.3-0.3-0.4-0.7-0.4-1.2c0-0.7,0.3-1.3,0.8-1.7s1.2-0.7,2.1-0.7
					c0.8,0,1.5,0.2,2.1,0.6c0.5,0.4,0.9,1,0.9,1.8h-1.3c-0.1-0.4-0.2-0.7-0.5-1c-0.3-0.2-0.7-0.3-1.2-0.3s-0.9,0.1-1.1,0.3
					c-0.3,0.2-0.4,0.5-0.4,0.8s0.2,0.6,0.5,0.8s0.8,0.3,1.4,0.5c0.5,0.1,1,0.2,1.4,0.4c0.4,0.1,0.8,0.4,1.1,0.7
					c0.3,0.3,0.4,0.7,0.4,1.3c0,0.7-0.3,1.3-0.8,1.8C209.1,134.4,208.3,134.6,207.4,134.6z"/>
				<path class="st1" d="M212.3,134.4v-7.9h1.2l0.1,1.4c0.3-0.5,0.6-0.9,1.1-1.2c0.5-0.3,1-0.4,1.6-0.4c0.9,0,1.7,0.3,2.2,0.9
					c0.6,0.6,0.8,1.4,0.8,2.6v4.6H218v-4.5c0-1.6-0.7-2.5-2.1-2.5c-0.7,0-1.2,0.2-1.7,0.7c-0.4,0.5-0.7,1.2-0.7,2.1v4.1L212.3,134.4
					L212.3,134.4z"/>
				<path class="st1" d="M220.9,126.8l0.9-3.6h1.5l-1.5,3.6H220.9z"/>
				<path class="st1" d="M228,134.4c-0.7,0-1.3-0.2-1.7-0.5s-0.6-1-0.6-1.9v-4.4h-1.4v-1.1h1.4l0.2-1.9h1.2v1.9h2.3v1.1h-2.3v4.4
					c0,0.5,0.1,0.8,0.3,1s0.6,0.3,1.1,0.3h0.8v1.1H228z"/>
				<path class="st1" d="M239.6,134.6c-0.6,0-1.2-0.1-1.7-0.4s-0.9-0.6-1.2-1.1l-0.1,1.3h-1.2v-11.5h1.3v4.9c0.3-0.4,0.6-0.7,1.1-1
					s1.1-0.5,1.8-0.5c0.8,0,1.5,0.2,2.1,0.5c0.6,0.4,1,0.9,1.4,1.5c0.3,0.6,0.5,1.3,0.5,2.1c0,0.8-0.2,1.5-0.5,2.1s-0.8,1.1-1.4,1.5
					C241,134.5,240.4,134.6,239.6,134.6z M239.4,133.5c0.5,0,1-0.1,1.4-0.4s0.7-0.6,1-1.1c0.2-0.4,0.4-1,0.4-1.6s-0.1-1.1-0.4-1.6
					c-0.2-0.5-0.5-0.8-1-1.1c-0.5-0.3-0.9-0.4-1.4-0.4s-1,0.1-1.4,0.4c-0.4,0.2-0.7,0.6-1,1.1c-0.2,0.4-0.4,1-0.4,1.6
					s0.1,1.1,0.4,1.6c0.2,0.5,0.6,0.8,1,1.1C238.4,133.3,238.9,133.5,239.4,133.5z"/>
				<path class="st1" d="M248.9,134.6c-0.8,0-1.4-0.2-2-0.5c-0.6-0.4-1-0.8-1.4-1.5c-0.3-0.6-0.5-1.4-0.5-2.2c0-0.8,0.2-1.6,0.5-2.2
					c0.3-0.6,0.8-1.1,1.4-1.5c0.6-0.4,1.3-0.5,2.1-0.5c0.8,0,1.4,0.2,2,0.5s1,0.8,1.3,1.4c0.3,0.6,0.5,1.2,0.5,1.8
					c0,0.1,0,0.2,0,0.4c0,0.1,0,0.2,0,0.4h-6.3c0,0.6,0.2,1.1,0.4,1.5s0.6,0.7,0.9,0.9c0.4,0.2,0.8,0.3,1.2,0.3c0.5,0,1-0.1,1.4-0.4
					s0.6-0.6,0.8-1h1.3c-0.2,0.7-0.6,1.4-1.2,1.8C250.6,134.4,249.9,134.6,248.9,134.6z M248.9,127.4c-0.6,0-1.2,0.2-1.7,0.6
					c-0.5,0.4-0.8,1-0.9,1.7h5c0-0.7-0.3-1.3-0.7-1.7C250.2,127.7,249.6,127.4,248.9,127.4z"/>
				<path class="st1" d="M258.1,134.6c-0.8,0-1.4-0.2-2-0.5c-0.6-0.4-1.1-0.8-1.4-1.5s-0.5-1.4-0.5-2.2s0.2-1.6,0.5-2.2
					c0.3-0.6,0.8-1.1,1.4-1.5s1.3-0.5,2-0.5c0.9,0,1.7,0.2,2.4,0.7c0.7,0.5,1.1,1.2,1.2,2h-1.4c-0.1-0.5-0.4-0.9-0.8-1.1
					c-0.4-0.3-0.9-0.4-1.5-0.4c-0.5,0-0.9,0.1-1.3,0.3c-0.4,0.2-0.7,0.6-1,1c-0.2,0.4-0.4,1-0.4,1.7s0.1,1.2,0.4,1.7
					c0.2,0.4,0.6,0.8,1,1s0.8,0.3,1.3,0.3s1-0.1,1.5-0.4c0.4-0.3,0.7-0.7,0.8-1.2h1.4c-0.2,0.8-0.6,1.5-1.2,2
					C259.9,134.4,259.1,134.6,258.1,134.6z"/>
				<path class="st1" d="M267.2,134.6c-0.8,0-1.4-0.2-2-0.5s-1.1-0.8-1.4-1.4c-0.4-0.6-0.5-1.4-0.5-2.2s0.2-1.6,0.5-2.2
					c0.4-0.6,0.8-1.1,1.4-1.4s1.3-0.5,2-0.5c0.8,0,1.4,0.2,2,0.5s1.1,0.8,1.4,1.4c0.4,0.6,0.5,1.4,0.5,2.2s-0.2,1.6-0.5,2.2
					c-0.4,0.6-0.8,1.1-1.4,1.4C268.6,134.5,268,134.6,267.2,134.6z M267.2,133.5c0.5,0,0.9-0.1,1.3-0.3c0.4-0.2,0.7-0.6,1-1
					s0.4-1,0.4-1.7s-0.1-1.2-0.4-1.7s-0.6-0.8-1-1c-0.4-0.2-0.8-0.3-1.3-0.3s-0.9,0.1-1.3,0.3c-0.4,0.2-0.7,0.6-1,1
					c-0.2,0.5-0.4,1-0.4,1.7s0.1,1.2,0.4,1.7s0.6,0.8,1,1S266.8,133.5,267.2,133.5z"/>
				<path class="st1" d="M273.1,134.4v-7.9h1.2l0.1,1.1c0.3-0.4,0.6-0.8,1-1s0.9-0.4,1.4-0.4c0.6,0,1.2,0.1,1.6,0.4s0.8,0.6,1,1.2
					c0.3-0.5,0.7-0.9,1.1-1.1c0.5-0.3,1-0.4,1.6-0.4c1,0,1.7,0.3,2.3,0.9c0.6,0.6,0.9,1.5,0.9,2.6v4.6H284v-4.5
					c0-0.8-0.2-1.4-0.5-1.9c-0.3-0.4-0.8-0.6-1.4-0.6s-1.2,0.2-1.6,0.7c-0.4,0.5-0.6,1.2-0.6,2.1v4.1h-1.3v-4.5
					c0-0.8-0.2-1.4-0.5-1.9c-0.3-0.4-0.8-0.6-1.4-0.6s-1.2,0.2-1.6,0.7c-0.4,0.5-0.6,1.2-0.6,2.1v4.1L273.1,134.4L273.1,134.4z"/>
				<path class="st1" d="M291,134.6c-0.8,0-1.4-0.2-2-0.5c-0.6-0.4-1.1-0.8-1.4-1.5c-0.3-0.6-0.5-1.4-0.5-2.2c0-0.8,0.2-1.6,0.5-2.2
					c0.3-0.6,0.8-1.1,1.4-1.5s1.3-0.5,2.1-0.5c0.8,0,1.4,0.2,2,0.5s1,0.8,1.3,1.4c0.3,0.6,0.4,1.2,0.4,1.8c0,0.1,0,0.2,0,0.4
					c0,0.1,0,0.2,0,0.4h-6.3c0,0.6,0.2,1.1,0.4,1.5s0.6,0.7,0.9,0.9c0.4,0.2,0.8,0.3,1.2,0.3c0.5,0,1-0.1,1.4-0.4s0.6-0.6,0.8-1h1.3
					c-0.2,0.7-0.6,1.4-1.2,1.8C292.7,134.4,291.9,134.6,291,134.6z M291,127.4c-0.6,0-1.2,0.2-1.7,0.6c-0.5,0.4-0.8,1-0.9,1.7h5
					c0-0.7-0.3-1.3-0.7-1.7C292.2,127.7,291.6,127.4,291,127.4z"/>
				<path class="st1" d="M30.9,156.6c-0.7,0-1.2-0.1-1.6-0.3c-0.4-0.2-0.8-0.5-1-0.9s-0.3-0.8-0.3-1.2c0-0.8,0.3-1.4,0.9-1.9
					c0.6-0.4,1.5-0.7,2.5-0.7h2.1v-0.1c0-0.7-0.2-1.2-0.5-1.6c-0.4-0.4-0.8-0.5-1.5-0.5c-0.5,0-1,0.1-1.3,0.4
					c-0.4,0.3-0.6,0.6-0.7,1.1h-1.4c0-0.6,0.2-1.1,0.6-1.5c0.3-0.4,0.8-0.7,1.3-0.9c0.5-0.2,1-0.3,1.6-0.3c1.1,0,1.9,0.3,2.5,0.9
					s0.8,1.4,0.8,2.4v4.9h-1.2l-0.1-1.4c-0.2,0.5-0.6,0.8-1,1.1C32.2,156.5,31.6,156.6,30.9,156.6z M31.1,155.5
					c0.5,0,0.9-0.1,1.3-0.4c0.4-0.3,0.6-0.6,0.8-1s0.3-0.9,0.3-1.3l0,0h-2c-0.8,0-1.3,0.1-1.7,0.4s-0.5,0.6-0.5,1s0.2,0.8,0.5,1
					C30.1,155.4,30.5,155.5,31.1,155.5z"/>
				<path class="st1" d="M39.9,156.6c-0.9,0-1.7-0.2-2.4-0.7s-1-1.1-1.1-2h1.4c0.1,0.4,0.3,0.8,0.7,1.1c0.4,0.3,0.8,0.5,1.5,0.5
					c0.6,0,1-0.1,1.3-0.4c0.3-0.2,0.4-0.5,0.4-0.9c0-0.5-0.2-0.8-0.5-1s-0.8-0.3-1.5-0.4c-0.4-0.1-0.9-0.2-1.3-0.4
					c-0.4-0.2-0.8-0.4-1.1-0.7c-0.3-0.3-0.4-0.7-0.4-1.2c0-0.7,0.3-1.3,0.8-1.7s1.2-0.7,2.1-0.7c0.8,0,1.5,0.2,2.1,0.6
					c0.5,0.4,0.8,1,0.9,1.8h-1.3c0-0.4-0.2-0.7-0.5-1c-0.3-0.2-0.7-0.3-1.2-0.3s-0.9,0.1-1.1,0.3c-0.3,0.2-0.4,0.5-0.4,0.8
					s0.2,0.6,0.5,0.8c0.3,0.2,0.8,0.3,1.4,0.5c0.5,0.1,1,0.2,1.4,0.4c0.4,0.1,0.8,0.4,1.1,0.7c0.3,0.3,0.4,0.7,0.4,1.3
					c0,0.7-0.3,1.3-0.8,1.8C41.6,156.4,40.9,156.6,39.9,156.6z"/>
				<path class="st1" d="M47.9,156.6c-0.9,0-1.7-0.2-2.4-0.7c-0.6-0.5-1-1.1-1.1-2h1.4c0.1,0.4,0.3,0.8,0.7,1.1
					c0.4,0.3,0.8,0.5,1.5,0.5c0.6,0,1-0.1,1.2-0.4c0.3-0.2,0.4-0.5,0.4-0.9c0-0.5-0.2-0.8-0.5-1s-0.8-0.3-1.5-0.4
					c-0.4-0.1-0.8-0.2-1.3-0.4c-0.4-0.2-0.8-0.4-1.1-0.7s-0.4-0.7-0.4-1.2c0-0.7,0.3-1.3,0.8-1.7s1.2-0.7,2.1-0.7
					c0.8,0,1.5,0.2,2.1,0.6c0.5,0.4,0.8,1,0.9,1.8h-1.3c0-0.4-0.2-0.7-0.5-1c-0.3-0.2-0.7-0.3-1.2-0.3s-0.8,0.1-1.1,0.3
					c-0.3,0.2-0.4,0.5-0.4,0.8s0.2,0.6,0.5,0.8s0.8,0.3,1.4,0.5c0.5,0.1,1,0.2,1.4,0.4c0.4,0.1,0.8,0.4,1.1,0.7
					c0.3,0.3,0.4,0.7,0.4,1.3c0,0.7-0.3,1.3-0.8,1.8C49.6,156.4,48.9,156.6,47.9,156.6z"/>
				<path class="st1" d="M56.5,156.6c-0.7,0-1.4-0.2-2-0.5s-1.1-0.8-1.4-1.4c-0.3-0.6-0.5-1.4-0.5-2.2s0.2-1.6,0.5-2.2
					s0.8-1.1,1.4-1.4s1.3-0.5,2-0.5c0.8,0,1.4,0.2,2,0.5s1.1,0.8,1.4,1.4s0.5,1.4,0.5,2.2s-0.2,1.6-0.5,2.2s-0.8,1.1-1.4,1.4
					C57.9,156.5,57.3,156.6,56.5,156.6z M56.5,155.5c0.5,0,0.9-0.1,1.3-0.3c0.4-0.2,0.7-0.6,1-1s0.4-1,0.4-1.7s-0.1-1.2-0.4-1.7
					c-0.2-0.4-0.6-0.8-0.9-1c-0.4-0.2-0.8-0.3-1.3-0.3s-0.9,0.1-1.3,0.3c-0.4,0.2-0.7,0.6-1,1c-0.2,0.5-0.4,1-0.4,1.7
					s0.1,1.2,0.4,1.7c0.2,0.5,0.6,0.8,0.9,1C55.7,155.4,56.1,155.5,56.5,155.5z"/>
				<path class="st1" d="M66,156.6c-0.8,0-1.4-0.2-2-0.5c-0.6-0.4-1.1-0.8-1.4-1.5c-0.3-0.6-0.5-1.4-0.5-2.2s0.2-1.6,0.5-2.2
					s0.8-1.1,1.4-1.5c0.6-0.4,1.3-0.5,2-0.5c0.9,0,1.7,0.2,2.4,0.7c0.6,0.5,1.1,1.2,1.2,2h-1.4c-0.1-0.5-0.4-0.9-0.8-1.1
					c-0.4-0.3-0.9-0.4-1.5-0.4c-0.4,0-0.9,0.1-1.3,0.3c-0.4,0.2-0.7,0.6-1,1c-0.2,0.4-0.4,1-0.4,1.7s0.1,1.2,0.4,1.7s0.6,0.8,1,1
					s0.8,0.3,1.3,0.3c0.6,0,1-0.1,1.5-0.4c0.4-0.3,0.7-0.7,0.8-1.2h1.4c-0.2,0.8-0.6,1.5-1.2,2C67.8,156.4,67,156.6,66,156.6z"/>
				<path class="st1" d="M72.3,146.7c-0.3,0-0.5-0.1-0.7-0.3c-0.2-0.2-0.3-0.4-0.3-0.7s0.1-0.5,0.3-0.6c0.2-0.2,0.4-0.3,0.7-0.3
					s0.5,0.1,0.7,0.3c0.2,0.2,0.3,0.4,0.3,0.6c0,0.3-0.1,0.5-0.3,0.7C72.8,146.7,72.6,146.7,72.3,146.7z M71.6,156.4v-7.9h1.3v7.9
					H71.6z"/>
				<path class="st1" d="M78,156.6c-0.7,0-1.2-0.1-1.7-0.3c-0.4-0.2-0.8-0.5-1-0.9s-0.3-0.8-0.3-1.2c0-0.8,0.3-1.4,0.9-1.9
					c0.6-0.4,1.5-0.7,2.5-0.7h2.1v-0.1c0-0.7-0.2-1.2-0.5-1.6c-0.4-0.4-0.9-0.5-1.5-0.5c-0.5,0-1,0.1-1.4,0.4s-0.6,0.6-0.7,1.1h-1.2
					c0.1-0.6,0.2-1.1,0.6-1.5c0.3-0.4,0.7-0.7,1.3-0.9c0.5-0.2,1-0.3,1.6-0.3c1.1,0,1.9,0.3,2.5,0.9s0.8,1.4,0.8,2.4v4.9h-1.2
					l-0.1-1.4c-0.2,0.5-0.6,0.8-1,1.1C79.3,156.5,78.7,156.6,78,156.6z M78.2,155.5c0.5,0,0.9-0.1,1.3-0.4s0.7-0.6,0.8-1
					c0.2-0.4,0.3-0.9,0.3-1.3l0,0h-2c-0.8,0-1.3,0.1-1.7,0.4s-0.5,0.6-0.5,1s0.1,0.8,0.5,1C77.2,155.4,77.6,155.5,78.2,155.5z"/>
				<path class="st1" d="M86.9,156.4c-0.7,0-1.3-0.2-1.7-0.5c-0.4-0.4-0.6-1-0.6-1.9v-4.4h-1.4v-1.1h1.4l0.2-1.9H86v1.9h2.3v1.1
					h-2.4v4.4c0,0.5,0.1,0.8,0.3,1s0.6,0.3,1.1,0.3h0.8v1.1H86.9z"/>
				<path class="st1" d="M93.3,156.6c-0.8,0-1.4-0.2-2-0.5c-0.6-0.4-1.1-0.8-1.4-1.5c-0.3-0.6-0.5-1.4-0.5-2.2
					c0-0.8,0.2-1.6,0.5-2.2s0.8-1.1,1.4-1.5s1.3-0.5,2.1-0.5c0.8,0,1.4,0.2,2,0.5s1,0.8,1.3,1.4s0.4,1.2,0.4,1.8c0,0.1,0,0.2,0,0.4
					s0,0.2,0,0.4h-6.3c0,0.6,0.2,1.1,0.4,1.5s0.6,0.7,0.9,0.9c0.4,0.2,0.8,0.3,1.2,0.3c0.6,0,1-0.1,1.4-0.4s0.6-0.6,0.8-1h1.3
					c-0.2,0.7-0.6,1.4-1.2,1.8C95,156.4,94.2,156.6,93.3,156.6z M93.3,149.4c-0.6,0-1.2,0.2-1.7,0.6s-0.8,1-0.9,1.7h5
					c0-0.7-0.3-1.3-0.7-1.7C94.5,149.7,94,149.4,93.3,149.4z"/>
				<path class="st1" d="M102.4,156.6c-0.8,0-1.5-0.2-2.1-0.5c-0.6-0.4-1.1-0.9-1.4-1.5s-0.5-1.3-0.5-2.1c0-0.8,0.2-1.5,0.5-2.1
					s0.8-1.1,1.4-1.5s1.3-0.5,2.1-0.5c0.7,0,1.2,0.1,1.7,0.4s0.9,0.6,1.2,1.1V145h1.3v11.5h-1.2l-0.1-1.3c-0.3,0.4-0.6,0.7-1.1,1
					C103.8,156.5,103.2,156.6,102.4,156.6z M102.6,155.5c0.5,0,1-0.1,1.4-0.4c0.4-0.2,0.7-0.6,1-1.1c0.2-0.4,0.3-1,0.3-1.6
					s-0.1-1.1-0.3-1.6c-0.2-0.5-0.6-0.8-1-1.1c-0.4-0.2-0.9-0.4-1.4-0.4s-1,0.1-1.4,0.4c-0.4,0.2-0.7,0.6-1,1.1
					c-0.2,0.4-0.3,1-0.3,1.6s0.1,1.1,0.3,1.6c0.2,0.5,0.5,0.8,1,1.1C101.6,155.3,102,155.5,102.6,155.5z"/>
				<path class="st1" d="M114.7,156.4l-2.3-7.9h1.3l1.7,6.2l1.9-6.2h1.5l1.9,6.2l1.7-6.2h1.4l-2.3,7.9h-1.4l-1.9-6.5l-1.9,6.5H114.7
					z"/>
				<path class="st1" d="M126,146.7c-0.3,0-0.5-0.1-0.7-0.3c-0.2-0.2-0.3-0.4-0.3-0.7s0.1-0.5,0.3-0.6c0.2-0.2,0.4-0.3,0.7-0.3
					s0.5,0.1,0.7,0.3c0.2,0.2,0.3,0.4,0.3,0.6c0,0.3-0.1,0.5-0.3,0.7C126.5,146.7,126.3,146.7,126,146.7z M125.3,156.4v-7.9h1.3v7.9
					H125.3z"/>
				<path class="st1" d="M132.1,156.4c-0.7,0-1.3-0.2-1.7-0.5c-0.4-0.4-0.6-1-0.6-1.9v-4.4h-1.4v-1.1h1.4l0.2-1.9h1.2v1.9h2.3v1.1
					h-2.3v4.4c0,0.5,0.1,0.8,0.3,1s0.6,0.3,1.1,0.3h0.8v1.1H132.1z"/>
				<path class="st1" d="M135.2,156.4v-11.5h1.3v4.9c0.3-0.5,0.6-0.9,1.1-1.1s1-0.4,1.6-0.4c0.9,0,1.6,0.3,2.2,0.9
					c0.6,0.6,0.8,1.4,0.8,2.6v4.6h-1.3v-4.5c0-1.6-0.7-2.5-2-2.5c-0.7,0-1.3,0.2-1.7,0.7c-0.5,0.5-0.7,1.2-0.7,2.1v4.1L135.2,156.4
					L135.2,156.4z"/>
				<path class="st2" d="M152.8,145.7c0.4-0.3,1-0.5,1.6-0.5c0.1,0,0.2,0,0.5,0c0.2,0,0.5,0,0.7,0c2.9,0.1,4.6,0.3,5.2,0.7
					c0.5,0.2,0.8,0.6,0.8,1.2c0,0.2-0.1,0.5-0.2,0.8c-0.2,0.4-0.6,0.6-1.3,0.7c-0.6,0.1-1,0.2-1.1,0.3c-0.1,0.1-0.2,2.7-0.2,7.9
					c0,2,0,5.1,0.1,9.4v0.6c0,0.5,0,0.8-0.1,1s-0.2,0.4-0.5,0.6c-0.4,0.4-0.7,0.5-1.1,0.5c-0.3,0-0.7-0.1-1.1-0.5
					c-0.4-0.2-0.6-0.4-0.7-0.6c-0.1-0.2-0.1-0.7-0.1-1.6c0-0.3,0-1,0-2.1s0-2,0-2.8c0-0.6,0-1.8,0-3.4s0-3,0-4v-1.7
					c0-1.8,0-2.8-0.1-3.1c-0.1-0.3-0.5-0.5-1.3-0.6s-1.3-0.3-1.5-0.6c-0.2-0.3-0.3-0.6-0.3-1C152.1,146.5,152.3,146.1,152.8,145.7z"
					/>
				<path class="st2" d="M167.5,147.1c0.4-0.1,0.9-0.1,1.6-0.1c1.5,0,2.4,0.1,2.8,0.3c0.3,0.1,0.5,0.5,0.5,1c0,0.4-0.1,0.8-0.4,1
					s-0.7,0.4-1.1,0.4c-0.4,0-0.7,0.1-0.8,0.3s-0.2,0.7-0.2,1.4c0,0.2,0,0.9,0.1,2.1c0.1,1.5,0.2,2.5,0.3,2.9s0.4,0.6,0.8,0.6
					c0.1,0,0.4,0,0.8-0.1c0.1,0,0.1,0,0.2,0c0.1,0,0.1,0,0.1,0c0.3,0,0.6,0.1,1,0.5l0.6,0.5l-0.5,0.6c-0.3,0.4-0.9,0.7-1.7,1
					c-0.7,0.2-1.1,0.4-1.2,0.5c-0.1,0.1-0.2,0.4-0.2,0.8c0,0.1,0,0.2,0,0.4c0,0.2,0,0.4,0,0.5c0,1.9,0.1,3.1,0.3,3.7
					c0.1,0.2,0.2,0.4,0.3,0.4s0.4,0.1,0.9,0.1c0.6,0,1.1,0.1,1.6,0.4c0.4,0.3,0.7,0.6,0.7,0.9c0,0.4-0.2,0.7-0.8,1.1
					c-0.5,0.4-1.1,0.6-1.7,0.7c-0.5,0.1-1.1,0.2-1.6,0.2c-0.6,0-1.2-0.1-1.9-0.3c-0.4-0.1-0.8-0.2-0.9-0.3c-0.2-0.1-0.3-0.4-0.5-1
					s-0.2-1.2-0.2-2.1c0-0.8,0-2.2-0.1-4.1c0-0.2,0-0.4,0-0.6c-0.1-4.8-0.1-8-0.2-9.7c0-0.5,0-1.1,0-1.7c0-0.8,0.1-1.4,0.3-1.6
					C166.4,147.4,166.8,147.2,167.5,147.1z"/>
				<path class="st2" d="M179.3,146.6c0.4-0.2,0.8-0.3,1.3-0.3c0.8,0,1.4,0.5,1.7,1.6c0.2,0.8,0.6,1.7,1,2.6
					c0.5,0.9,0.8,1.6,0.9,2.1c0.2,0.8,0.5,1.4,0.7,1.7c0.2,0.2,0.3,0.3,0.3,0.2c0,0,0.1-0.2,0.1-0.6c0.1-0.2,0.1-1.1,0.2-2.7
					c0-0.4,0-0.9,0-1.5s0-1,0-1.2c0-0.5,0.2-1,0.5-1.3c0.4-0.3,0.8-0.5,1.4-0.6c0.6,0,1,0.1,1.3,0.4c0.2,0.2,0.4,0.6,0.4,1
					c0,0.1,0,0.6-0.1,1.5c-0.1,1.5-0.2,4.9-0.2,10.3v4.5c0,1.8,0,2.9-0.1,3.3s-0.2,0.7-0.3,0.9c-0.3,0.2-0.8,0.4-1.3,0.4
					c-0.6,0-1.1-0.1-1.5-0.4c-0.3-0.2-0.6-0.7-0.7-1.2c-0.1-0.4-0.4-1.3-0.8-2.8s-0.7-2.4-0.8-2.9c-0.2-0.8-0.4-1.8-0.8-3
					c-0.4-1.2-0.6-1.8-0.7-1.8c-0.1,0-0.1,1.1-0.1,3.2v2.1v2.2c0,2.1,0,3.4-0.1,3.8s-0.3,0.8-0.7,1c-0.3,0.3-0.7,0.4-1.2,0.4
					s-1-0.2-1.3-0.5s-0.4-0.6-0.4-0.9c0-0.1,0-0.3,0.1-0.7c0.1-0.7,0.2-4.3,0.2-10.8v-9.8L179.3,146.6z"/>
				<path class="st2" d="M196.6,146.6c0.2-0.1,0.8-0.2,1.6-0.2c0.9,0,1.6,0.1,2,0.3c0.3,0.2,0.6,0.4,0.9,0.8
					c0.3,0.4,0.4,0.7,0.5,1.1c0,0.1,0,0.2,0,0.4c0,0.3-0.2,0.6-0.5,1.1c-0.5,0.5-0.9,0.8-1.2,0.8c-0.4,0-0.7-0.2-1-0.6
					s-0.6-0.6-0.9-0.6c-0.2,0-0.5,0.2-0.8,0.6s-0.4,0.8-0.4,1.2c0,0.5,0.2,1.2,0.5,2.3c0.3,1.1,0.6,1.8,0.9,2.2
					c0.3,0.5,0.8,1.2,1.3,2.2c0.6,1.1,0.9,1.8,1,1.8c0.1,0.1,0.2,0.4,0.2,0.6c0,0.4,0.1,0.9,0.3,1.4s0.4,1.1,0.5,1.8
					c0,0.1,0,0.3,0,0.7c0,1.5-0.3,2.7-0.9,3.4c-0.2,0.4-0.7,0.7-1.3,1s-1.2,0.5-1.7,0.5c-0.6,0-1.4-0.3-2.3-1
					c-0.9-0.7-1.4-1.4-1.7-2.1c-0.2-0.4-0.2-0.8,0-1.1c0.4-0.5,0.8-0.8,1.4-0.8c0.1,0,0.3,0,0.4,0.1c0.2,0.1,0.4,0.5,0.8,1
					c0.4,0.6,0.8,0.8,1.1,0.8c0.2,0,0.4-0.1,0.6-0.4c0.1-0.2,0.1-0.5,0.1-0.8c0-1-0.2-1.9-0.6-2.9c-0.2-0.6-0.4-1-0.4-1.3
					c0-0.1-0.3-0.9-1-2.3c-0.5-1.1-1-2.1-1.4-3.1c-0.7-2-1.1-3.4-1.1-4.2c0-1.1,0.3-2.1,1-2.9C195.4,147.4,196,146.9,196.6,146.6z"
					/>
				<path class="st2" d="M206.3,146.8c0.3-0.2,0.7-0.4,1.2-0.4c0.6,0,1,0.2,1.3,0.5c0.2,0.3,0.4,0.7,0.5,1.2s0.1,2.3,0.2,5.2
					c0.1,5.7,0.2,9.1,0.2,10.3v4.5l-0.7,0.4c-0.4,0.2-0.6,0.3-0.7,0.3c-0.2,0-0.5-0.1-0.9-0.2c-0.7-0.3-1.1-0.5-1.1-0.6
					c-0.1-0.1-0.2-2.2-0.2-6.3v-1.9c0-5.1-0.1-8.5-0.2-10.2c-0.1-1-0.1-1.5-0.1-1.6C205.9,147.4,206,147.1,206.3,146.8z"/>
				<path class="st2" d="M215.4,146.8l0.7-0.8h5.2l0.9,0.9c0.5,0.6,0.9,1.2,1.1,1.9c0.2,0.7,0.4,2,0.5,3.8c0.1,0.6,0.1,1.6,0.1,2.9
					c0,2.9-0.3,5.5-0.8,7.8s-1.2,3.9-2.1,4.7c-0.3,0.3-0.7,0.5-1.2,0.7s-1,0.3-1.4,0.3c-0.1,0-0.3,0-0.5-0.1s-0.5-0.2-0.9-0.2
					c-0.5,0-1-0.5-1.4-1.4c-0.5-0.9-0.8-2.1-1-3.3c-0.3-2.1-0.5-5.1-0.5-9.1s0.2-6.3,0.5-6.9C214.7,147.8,215,147.4,215.4,146.8z
					 M219.2,149c-0.3-0.5-0.5-0.8-0.6-0.8c-0.2,0-0.4,0.5-0.8,1.4c-0.2,0.6-0.3,1.9-0.3,3.9c0,3.3,0.2,6.3,0.7,8.8
					c0.3,1.7,0.5,2.5,0.8,2.5c0.1,0,0.3-0.2,0.4-0.8c0-0.2,0.2-0.7,0.5-1.7c0.2-0.6,0.3-2.5,0.4-5.5v-1.2c0-1.9-0.1-3.3-0.2-4.1
					C219.9,150.6,219.6,149.8,219.2,149z"/>
				<path class="st2" d="M229.2,146.6c0.4-0.2,0.8-0.3,1.3-0.3c0.8,0,1.4,0.5,1.7,1.6c0.2,0.8,0.6,1.7,1,2.6s0.8,1.6,0.9,2.1
					c0.2,0.8,0.5,1.4,0.7,1.7c0.2,0.2,0.3,0.3,0.3,0.2c0,0,0.1-0.2,0.1-0.6c0.1-0.2,0.1-1.1,0.2-2.7c0-0.4,0-0.9,0-1.5s0-1,0-1.2
					c0-0.5,0.2-1,0.5-1.3c0.4-0.3,0.8-0.5,1.4-0.6c0.6,0,1,0.1,1.3,0.4c0.2,0.2,0.4,0.6,0.4,1c0,0.1,0,0.6-0.1,1.5
					c-0.1,1.5-0.2,4.9-0.2,10.3v4.5c0,1.8,0,2.9-0.1,3.3s-0.2,0.7-0.3,0.9c-0.3,0.2-0.8,0.4-1.3,0.4c-0.6,0-1.1-0.1-1.5-0.4
					c-0.3-0.2-0.5-0.7-0.7-1.2c-0.1-0.4-0.4-1.3-0.8-2.8c-0.4-1.4-0.7-2.4-0.8-2.9c-0.2-0.8-0.4-1.8-0.8-3c-0.4-1.2-0.6-1.8-0.7-1.8
					c-0.1,0-0.1,1.1-0.1,3.2v2.1v2.2c0,2.1,0,3.4-0.1,3.8s-0.3,0.8-0.7,1c-0.3,0.3-0.7,0.4-1.2,0.4s-1-0.2-1.3-0.5s-0.4-0.6-0.4-0.9
					c0-0.1,0-0.3,0.1-0.7c0.1-0.7,0.2-4.3,0.2-10.8v-9.8L229.2,146.6z"/>
				<path class="st2" d="M243.8,164.7c0.3-0.3,0.6-0.5,0.9-0.5c0.1,0,0.3,0,0.6,0.1c1.1,0.2,1.7,0.7,1.7,1.3c0,0.5-0.4,1-1.1,1.4
					c-0.6,0.4-1,0.6-1.4,0.6c-0.6,0-1-0.5-1.1-1.4c0-0.2,0-0.4,0-0.6C243.4,165.3,243.5,165,243.8,164.7z"/>
				<path class="st3" d="M72.9,68.3c24.4,0,44.2-1.7,44.2-3.9s-19.8-3.9-44.2-3.9s-44.2,1.7-44.2,3.9C28.7,66.6,48.5,68.3,72.9,68.3
					z"/>
				<path class="st4" d="M44.9,64c0.3,0,0.6-0.3,0.6-0.6v-2.9c0-0.6,0.6-1.2,1.4-1.2h57.2c0.8,0,1.4,0.5,1.4,1.2v2.9
					c0,0.3,0.3,0.6,0.6,0.6h2.2c0.3,0,0.6-0.3,0.6-0.6V48.1c0-0.8-0.8-1.5-1.8-1.5h-1.5h-60h-1.5c-1,0-1.8,0.7-1.8,1.5v15.3
					c0,0.3,0.3,0.6,0.6,0.6H44.9z M105.5,51.7v2.6c0,1.2-1.2,2.2-2.6,2.2H48.1c-1.4,0-2.6-1-2.6-2.2v-2.6c0-0.8,0.8-1.5,1.8-1.5
					h56.4C104.7,50.2,105.5,50.8,105.5,51.7z"/>
				<path class="st4" d="M100.6,32.3V17.1c0-0.8-0.7-1.5-1.5-1.4c-0.6,0.1-1,0.8-1,1.5V18c0,0.7-0.5,1.2-1,1.2H54
					c-0.6,0-1-0.5-1-1.2v-0.8c0-0.7-0.4-1.4-1-1.5c-0.8-0.1-1.5,0.5-1.5,1.4v15.2H100.6L100.6,32.3z"/>
				<path class="st4" d="M108.9,40.7H42.2v8.9h66.7V40.7z"/>
				<path class="st1" d="M108.9,49.1H42.2V58h66.7V49.1z"/>
				<path class="st0" d="M73.2,31.8H55.4v-3.6c0-2.5,2.1-4.6,4.6-4.6h8.6c2.5,0,4.6,2.1,4.6,4.6V31.8L73.2,31.8z"/>
				<path class="st0" d="M96.9,31.8H79.2v-3.6c0-2.5,2.1-4.6,4.6-4.6h8.6c2.5,0,4.6,2.1,4.6,4.6L96.9,31.8L96.9,31.8z"/>
				<path class="st5" d="M46.7,33l-4.5,7.8H109l-4.3-7.8c-0.4-0.8-1.2-1.2-2.1-1.2H48.7C47.9,31.8,47.1,32.2,46.7,33z"/>
				<path class="st1" d="M45.1,35.8l-2.9,5H109l-3.1-5.4c-0.4-0.8-1.2-1.2-2.1-1.2l-56.6,0.5C46.3,34.6,45.5,35,45.1,35.8z"/>
				<path class="st6" d="M146.5,34.1h-18.1c-1.4,0-2.4-1.1-2.4-2.4c0-1.3,1.1-2.4,2.4-2.4l18.1-0.6c1.4,0,2.5,1.1,2.5,2.4v0.6
					C149,33,147.9,34.1,146.5,34.1z"/>
				<path class="st6" d="M146.5,42.4l-18.1-0.6c-1.3,0-2.4-1.1-2.4-2.4v-0.7c0-1.3,1.1-2.4,2.4-2.4h18.1c1.4,0,2.4,1.1,2.4,2.4V40
					C149,41.4,147.8,42.5,146.5,42.4z"/>
				<path class="st7" d="M148.5,17.7l-20.7,31.1"/>
				<path class="st8" d="M238.6,35.4c0,0-26.7,4-42.3-14.9C196.3,20.5,218.5,14.5,238.6,35.4z"/>
				<path class="st9" d="M224.9,21.9c0,0-9,5.3-32.8,1.2C192.1,23.1,201,9.4,224.9,21.9z"/>
				<path class="st6" d="M240.2,62.5c0.4-44.4-42.9-47.4-60.4-39.3c-9.1,4.2-22.8,16-22.1,39.3H240.2z"/>
				<path d="M187.4,46c0,1.6-1.3,2.4-2.9,2.4s-2.9-0.8-2.9-2.4c0-1.6,1.3-2.9,2.9-2.9S187.4,44.4,187.4,46z"/>
				<path d="M211.5,46c0,1.6-1.3,2.4-2.9,2.4s-2.9-0.8-2.9-2.4c0-1.6,1.3-2.9,2.9-2.9S211.5,44.4,211.5,46z"/>
				<path class="st9" d="M190.3,12.2c0,0-0.6,4.9,3.9,7.7C194.2,20,194.8,18,190.3,12.2z"/>
				<path class="st10" d="M197.1,23.6c-2.1-2.2-4.8-9-14.6-6.9"/>
				<path class="st11" d="M180.3,15.8c0,0-4.1,5.7-1.2,5.6C181.9,21.3,182.3,15.5,180.3,15.8z"/>
				<path class="st11" d="M181.2,14.8c0,0-2.1,6.9,0.8,5.5C184.9,19.1,183.2,13.7,181.2,14.8z"/>
				<path class="st11" d="M181.5,14.5c0,0-6.5,1.8-4.7,4.1C178.5,20.9,182.9,16,181.5,14.5z"/>
				<path class="st11" d="M182.4,17.7c0,0,0.2-8.2-2.6-5.8C177.1,14.3,180.6,19.6,182.4,17.7z"/>
				<path class="st11" d="M180.9,15.4c0,0,0.7-5.5,2.9-3.9C186.1,13.1,182.4,16.6,180.9,15.4z"/>
				<path class="st11" d="M181,13.8c0,0,6.8,0.4,4.6,2.8C183.4,19.1,179.4,15.5,181,13.8z"/>
				<path class="st12" d="M182.6,16.3c0.8-1.4,0.8-3-0.1-3.5c-0.9-0.5-2.2,0.3-3,1.7s-0.8,3,0.1,3.5
					C180.4,18.5,181.8,17.8,182.6,16.3z"/>
				<path class="st13" d="M184,27.3c-4.5,0.8-8.7,3.1-12,6.3c-5.1,5-11.4,14.5-11.7,16.2c-0.5,2.3,22.9,5.5,30.7-14.6
					C194.1,27,189,26.4,184,27.3z"/>
				<path d="M199.1,57.5c0,1.3-1.4,0.1-2.7,0.1s-3.2,1.3-3.2,0s1.9-3.5,3.2-3.5C197.7,54.1,199.1,54.7,199.1,57.5z"/>
				<path class="st0" d="M197,56h-0.7c-0.4,0-0.6-0.3-0.6-0.6l0.1-1.1c0.4-0.3,1.4-0.2,2,0.1v1C197.6,55.7,197.4,56,197,56z"/>
			</g>
		</g>
	</g>
</g>
</svg>
