<?xml version="1.0" encoding="utf-8"?>
<!-- Generator: Adobe Illustrator 25.1.0, SVG Export Plug-In . SVG Version: 6.00 Build 0)  -->
<svg version="1.1" id="Layer_1" xmlns="http://www.w3.org/2000/svg" xmlns:xlink="http://www.w3.org/1999/xlink" x="0px" y="0px"
	 viewBox="0 0 337.2 168.4" style="enable-background:new 0 0 337.2 168.4;" xml:space="preserve">
<style type="text/css">
	.st0{fill:#FFFFFF;}
	.st1{fill:#32DCD2;}
	.st2{fill:#808080;}
	.st3{fill:#00CDDC;}
	.st4{fill:#00A878;}
	.st5{fill:#28C86E;}
	.st6{fill:#D64204;}
	.st7{fill:none;stroke:#28C86E;stroke-width:2.1144;stroke-linecap:round;stroke-miterlimit:10;}
	.st8{fill:#FFCF8D;}
	.st9{fill:#FF9F1A;}
</style>
<g>
	<g>
		<path class="st0" d="M0.5,59.7c1.4,31.1,0.3,86.1,11.3,102.2c8.1,11.8,285.3,4.9,304.6,0c30.4-7.8,18-41.8,19.4-74
			c1.3-31.5,0.8-75.8-38.4-81.6C228.3-3.9,101,0.3,31.8,4.5C-1.8,6.5-1,26.2,0.5,59.7z"/>
		<path class="st1" d="M171.7,55.3c0.5-0.5,0.9-0.8,1.1-0.9c0.2-0.1,0.6-0.2,1.1-0.2c0.7,0,1.2,0.2,1.6,0.5c0.4,0.4,0.6,0.6,0.6,0.8
			s-0.2,0.5-0.4,0.9c-0.3,0.3-0.7,0.6-1.1,0.8c-0.6,0.3-1,0.8-1.3,1.4s-0.6,1.7-0.8,3.3c-0.2,1-0.2,1.9-0.2,2.7c0,0.2,0.1,1.2,0.2,3
			c0.2,2.4,0.4,3.8,0.6,4.2c0.4,1,1,1.4,2,1.4c0.4,0,0.8,0.1,1.1,0.3c0.3,0.2,0.4,0.5,0.4,0.8c0,0.1,0,0.2,0,0.2
			c-0.2,0.8-0.9,1.2-2,1.2c-0.5,0-1.2-0.1-2-0.3c-0.6-0.2-0.9-0.3-1.2-0.5c-0.2-0.1-0.4-0.5-0.7-0.9c-0.4-0.7-0.7-1.3-0.9-2
			c-0.4-1.2-0.6-3.7-0.6-7.6c0-1,0-1.8,0.1-2.4c0.3-2.1,0.6-3.6,0.9-4.4C170.3,56.8,170.9,56,171.7,55.3z"/>
		<path class="st1" d="M185.7,54.8c0.5-0.1,0.9-0.2,1.3-0.2c0.8,0,1.4,0.1,1.9,0.5c0.4,0.2,0.7,0.7,0.9,1.3s0.4,1.7,0.6,3.2
			c0.3,2,0.4,3.1,0.5,3.1c0.1,0.3,0.2,1.1,0.4,2.4c0.2,1.3,0.2,2.2,0.2,2.6c0,0.1,0,0.2,0,0.3s0,0.2,0,0.4c0,0.7,0.1,1.9,0.2,3.4
			c0.1,1.6,0.3,2.6,0.4,3.3c0.1,0.4,0.1,0.7,0.1,0.8c0,0.9-0.3,1.5-1,1.6h-0.1H191c-0.4,0-0.9-0.1-1.4-0.3c-0.5-0.2-0.9-0.4-1-0.6
			c-0.2-0.3-0.3-1.5-0.5-3.5c-0.1-2-0.3-3.1-0.5-3.3c-0.1-0.1-0.4-0.2-0.9-0.2c-0.4,0-0.7,0-0.9,0l-1.6,0.1l0.1,1.5
			c0.1,1.6,0.2,2.9,0.2,3.7v0.6c0,0.2-0.2,0.4-0.5,0.5s-0.7,0.2-1.1,0.2c-0.3,0-0.6,0-0.8-0.1c-0.5-0.2-0.8-0.4-0.9-0.6
			c-0.1-0.2-0.2-0.7-0.2-1.5c0-0.6,0-1.5,0.1-2.6c0.2-2.7,0.3-4.6,0.4-5.7c0.1-2.1,0.3-3.7,0.5-4.8s0.5-2.1,1-3.2
			C183.5,56.1,184.5,55.1,185.7,54.8z M186.9,59.4c-0.1-0.5-0.2-0.8-0.4-0.8s-0.5,0.4-0.9,1.3c-0.4,1-0.7,2.3-1,3.9
			c-0.1,1-0.2,1.6-0.2,1.7c0,0.4,0.1,0.7,0.2,0.9c0.2,0.1,0.5,0.2,0.9,0.2c0.1,0,0.2,0,0.3,0c0.2,0,0.3,0,0.4,0l1.2-0.1l-0.1-2.5
			C187.4,62.7,187.2,61.1,186.9,59.4z"/>
		<path class="st1" d="M196.7,54.1c0.3-0.3,0.6-0.4,0.8-0.4c0.1,0,0.4,0,0.9,0.1c0.7,0.1,1.1,0.5,1.2,1.2c0.1,0.7,0.2,3,0.2,6.8
			c0,7.2,0.1,10.9,0.3,11.2c0.1,0.2,0.6,0.2,1.5,0.2h0.6h0.5c0.8,0,1.4,0.1,1.6,0.2c0.3,0.1,0.4,0.5,0.4,0.9c0,1.3-1.5,2-4.4,2.2
			c-0.1,0-0.2,0-0.3,0s-0.2,0-0.3,0c-1.3,0-2.2-0.4-2.8-1.3c-0.2-0.4-0.4-1.5-0.4-3.5v-2.4c0-1.3,0-3,0-5.3c0-4.6-0.1-7.5-0.2-8.5
			c0-0.2,0-0.4,0-0.6C196.3,54.6,196.4,54.3,196.7,54.1z"/>
		<path class="st1" d="M219.7,54.7c0.4-0.1,0.7-0.2,1-0.2c0.8,0,1.3,0.2,1.6,0.8c0.3,0.5,0.5,1.6,0.7,3.6c0.1,1.9,0.4,6.3,0.6,13.1
			c0.1,2.2,0.2,3.4,0.2,3.5c0.1,0.3-0.1,0.6-0.5,0.9c-0.6,0.3-1.1,0.5-1.6,0.5c-0.4,0-0.7-0.1-0.9-0.3c-0.3-0.2-0.4-0.5-0.5-0.9
			s-0.1-1.6-0.2-3.5c-0.2-6-0.4-9.2-0.6-9.6c0-0.1-0.1-0.1-0.1-0.2h-0.1c0,0-0.1,0.1-0.2,0.1s-0.1,0.2-0.2,0.3
			c-0.3,0.4-0.4,0.6-0.4,0.8s-0.1,0.7-0.5,1.5c-0.4,1.1-0.9,1.6-1.6,1.6c-0.2,0-0.5,0-0.8-0.1c-0.5-0.1-0.8-0.3-1.1-0.6
			c-0.2-0.3-0.5-0.8-0.7-1.5c-0.2-0.5-0.4-1-0.7-1.5s-0.5-0.8-0.6-0.8s-0.1,0.3-0.1,1c0,0.4,0,1.2,0.1,2.5c0.1,1.1,0.1,2.3,0.1,3.5
			s0.1,2.1,0.1,2.7s0,1,0,1.3c0,0.2,0,0.4,0,0.5s0,0.2,0,0.3s0,0.2-0.1,0.2c0,0.1-0.1,0.1-0.1,0.1s-0.1,0.1-0.1,0.2
			c-0.1,0.1-0.1,0.1-0.2,0.2c-0.4,0.5-0.6,0.9-0.6,1s-0.1,0.2-0.4,0.3c-0.3,0.1-0.5,0.2-0.8,0.2c-0.1,0-0.3,0-0.4-0.1
			c-0.2-0.1-0.3-0.4-0.5-0.8s-0.2-0.9-0.3-1.6s-0.1-1.2-0.1-1.8c0-0.5-0.1-1.2-0.1-1.9c0-0.8,0-1.3,0-1.5c0-0.5-0.1-2.1-0.1-4.9
			s-0.1-4.7-0.2-5.7l-0.2-2.3l0.6-0.5c0.3-0.3,0.7-0.5,1.2-0.5s1,0.1,1.7,0.5c0.7,0.3,1.1,0.6,1.3,1c0.7,1,1.3,2.3,2,3.7
			c0.1,0.3,0.3,0.6,0.4,0.7c0.1,0.1,0.2,0.2,0.4,0.1c0.2-0.1,0.4-0.2,0.4-0.4c0-0.1,0.2-0.8,0.7-2s0.9-2.1,1.2-2.7
			C219.2,55.1,219.5,54.8,219.7,54.7z"/>
		<path class="st1" d="M228.6,54.6c0.3-0.2,0.7-0.4,1.2-0.4c0.6,0,1,0.2,1.3,0.5c0.2,0.3,0.4,0.7,0.5,1.2s0.1,2.3,0.2,5.2
			c0.1,5.7,0.2,9.1,0.2,10.3v4.4l-0.7,0.4c-0.4,0.2-0.6,0.3-0.7,0.3c-0.2,0-0.5-0.1-0.9-0.2c-0.7-0.3-1.1-0.5-1.1-0.6
			c-0.1-0.1-0.2-2.2-0.2-6.3v-1.8c0-5.1-0.1-8.5-0.2-10.2c-0.1-1-0.1-1.5-0.1-1.6C228.2,55.3,228.3,54.9,228.6,54.6z"/>
		<path class="st1" d="M237.3,54.4c0.4-0.2,0.9-0.3,1.3-0.3c0.8,0,1.4,0.5,1.7,1.6c0.2,0.8,0.6,1.7,1,2.6c0.4,0.9,0.8,1.6,0.9,2.1
			c0.2,0.8,0.5,1.4,0.7,1.7c0.2,0.2,0.3,0.3,0.3,0.2c0,0,0.1-0.2,0.1-0.6c0.1-0.2,0.1-1.1,0.2-2.7c0-0.4,0-0.9,0-1.5
			c0-0.7,0-1,0-1.2c0-0.5,0.2-1,0.5-1.3c0.4-0.3,0.8-0.5,1.4-0.5c0.6,0,1,0.1,1.3,0.4c0.2,0.2,0.4,0.6,0.4,1c0,0.1,0,0.6-0.1,1.5
			c-0.1,1.5-0.2,4.9-0.2,10.3v4.5c0,1.8,0,2.9-0.1,3.3s-0.2,0.7-0.3,0.9c-0.3,0.2-0.8,0.4-1.3,0.4c-0.6,0-1.1-0.1-1.5-0.4
			c-0.3-0.2-0.5-0.7-0.7-1.2c-0.1-0.4-0.4-1.3-0.8-2.8c-0.5-1.4-0.7-2.4-0.8-2.9c-0.2-0.8-0.4-1.8-0.8-3c-0.4-1.2-0.6-1.8-0.7-1.8
			c-0.1,0-0.1,1.1-0.1,3.2V70v2.2c0,2.1,0,3.4-0.1,3.8s-0.3,0.8-0.7,1c-0.3,0.3-0.7,0.4-1.2,0.4s-1-0.2-1.3-0.5S236,76.3,236,76
			c0-0.1,0-0.3,0.1-0.7c0.1-0.7,0.2-4.3,0.2-10.8v-9.8L237.3,54.4z"/>
		<path class="st1" d="M255.4,54.3c0.1-0.2,0.3-0.3,0.5-0.3s0.6,0.2,1.2,0.6s1,0.7,1.1,0.9c0.1,0.3,0.2,0.5,0.2,0.8
			c0,0.2-0.1,0.3-0.2,0.3c-0.3,0-0.8,0.2-1.4,0.5c-0.7,0.4-1.1,0.6-1.2,0.9c-0.5,0.7-0.7,2.8-0.7,6.2c0,1.1,0,1.9,0.1,2.4
			c0.3,3.5,0.6,5.6,0.8,6.2v0.1c0.2,0,0.4-1.1,0.4-3.2c0.1-1.3,0.1-2,0.2-2.3c0.1-0.5,0.1-0.9-0.2-1.2c-0.4-0.4-0.6-0.8-0.6-1.2
			s0.2-0.7,0.6-0.9s0.9-0.4,1.6-0.4c0.3,0,0.5,0,0.7,0c1.2,0.2,1.8,0.8,1.8,1.9c0,0.4-0.1,0.8-0.2,1.2c-0.1,0.5-0.3,1.6-0.4,3.4
			c-0.1,1.7-0.2,3-0.3,3.7c-0.1,0.7-0.4,1.4-0.8,1.9c-0.7,1-1.6,1.5-2.9,1.5c-0.7,0-1.3-0.2-1.8-0.6c-1.6-1.2-2.4-5.4-2.4-12.4v-0.6
			c0-2,0-3.4,0.1-3.9s0.2-1.2,0.5-2c0.7-1.9,1.5-2.9,2.3-3.1C254.9,54.7,255.2,54.5,255.4,54.3z"/>
		<path class="st2" d="M167.2,43.8V32.6h3.4c2,0,3.4,0.5,4.4,1.5c0.9,1,1.4,2.4,1.4,4.1c0,1.7-0.5,3.1-1.4,4.1s-2.4,1.5-4.4,1.5
			L167.2,43.8L167.2,43.8z M168.6,42.7h2.1c1.1,0,1.9-0.2,2.6-0.5c0.6-0.4,1.1-0.9,1.4-1.5c0.3-0.7,0.4-1.5,0.4-2.4
			s-0.1-1.7-0.4-2.4c-0.3-0.7-0.7-1.2-1.4-1.6c-0.6-0.4-1.5-0.5-2.6-0.5h-2.1V42.7z"/>
		<path class="st2" d="M181.9,44c-0.8,0-1.4-0.2-2-0.5s-1.1-0.8-1.4-1.5c-0.4-0.6-0.5-1.4-0.5-2.2s0.2-1.6,0.5-2.2s0.8-1.1,1.4-1.5
			c0.6-0.3,1.3-0.5,2-0.5c0.8,0,1.4,0.2,2,0.5s1.1,0.8,1.4,1.5c0.4,0.6,0.5,1.4,0.5,2.2s-0.2,1.6-0.5,2.2c-0.4,0.6-0.8,1.1-1.4,1.5
			C183.3,43.8,182.6,44,181.9,44z M181.9,42.9c0.5,0,0.9-0.1,1.3-0.3c0.4-0.2,0.7-0.6,1-1c0.2-0.5,0.4-1,0.4-1.7s-0.1-1.2-0.4-1.7
			c-0.2-0.5-0.6-0.8-0.9-1c-0.4-0.2-0.8-0.3-1.3-0.3s-0.9,0.1-1.3,0.3c-0.4,0.2-0.7,0.6-1,1c-0.2,0.4-0.4,1-0.4,1.7s0.1,1.2,0.4,1.7
			c0.2,0.4,0.6,0.8,0.9,1C181,42.8,181.4,42.9,181.9,42.9z"/>
		<path class="st2" d="M195,44c-0.9,0-1.7-0.2-2.4-0.7c-0.6-0.5-1-1.1-1.1-2h1.4c0.1,0.4,0.3,0.8,0.7,1.1s0.8,0.5,1.4,0.5
			c0.6,0,1-0.1,1.2-0.4c0.3-0.2,0.4-0.5,0.4-0.9c0-0.5-0.2-0.8-0.5-1c-0.4-0.2-0.8-0.3-1.5-0.4c-0.4-0.1-0.8-0.2-1.3-0.4
			c-0.4-0.2-0.8-0.4-1.1-0.7s-0.4-0.7-0.4-1.2c0-0.7,0.3-1.3,0.8-1.7s1.2-0.7,2.1-0.7c0.8,0,1.5,0.2,2.1,0.6c0.5,0.4,0.9,1,0.9,1.8
			h-1.3c0-0.4-0.2-0.7-0.5-1c-0.3-0.2-0.7-0.3-1.2-0.3s-0.8,0.1-1.1,0.3s-0.4,0.5-0.4,0.8s0.2,0.6,0.5,0.8s0.8,0.3,1.4,0.5
			c0.5,0.1,1,0.2,1.4,0.4c0.4,0.1,0.8,0.4,1.1,0.7s0.4,0.7,0.4,1.3c0,0.7-0.3,1.3-0.8,1.8C196.7,43.8,196,44,195,44z"/>
		<path class="st2" d="M203.6,44c-0.8,0-1.4-0.2-2-0.5s-1.1-0.8-1.4-1.5c-0.3-0.6-0.5-1.4-0.5-2.2s0.2-1.6,0.5-2.2
			c0.3-0.6,0.8-1.1,1.4-1.5c0.6-0.3,1.3-0.5,2-0.5c0.8,0,1.4,0.2,2,0.5s1.1,0.8,1.4,1.5c0.3,0.6,0.5,1.4,0.5,2.2s-0.2,1.6-0.5,2.2
			c-0.3,0.6-0.8,1.1-1.4,1.5C205,43.8,204.3,44,203.6,44z M203.6,42.9c0.5,0,0.9-0.1,1.3-0.3c0.4-0.2,0.7-0.6,1-1
			c0.2-0.5,0.4-1,0.4-1.7s-0.1-1.2-0.4-1.7c-0.2-0.5-0.6-0.8-0.9-1s-0.8-0.3-1.3-0.3s-0.9,0.1-1.3,0.3s-0.7,0.6-1,1
			c-0.2,0.4-0.4,1-0.4,1.7s0.1,1.2,0.4,1.7c0.2,0.4,0.6,0.8,0.9,1C202.7,42.8,203.1,42.9,203.6,42.9z"/>
		<path class="st2" d="M209.5,43.8v-7.9h1.2l0.1,1.1c0.3-0.4,0.6-0.8,1-1s0.9-0.4,1.4-0.4c0.6,0,1.2,0.1,1.6,0.4
			c0.5,0.3,0.8,0.6,1.1,1.2c0.3-0.5,0.7-0.9,1.1-1.1c0.5-0.3,1-0.4,1.6-0.4c0.9,0,1.7,0.3,2.3,0.9c0.6,0.6,0.8,1.4,0.8,2.6v4.6h-1.3
			v-4.5c0-0.8-0.2-1.4-0.5-1.9c-0.3-0.4-0.8-0.6-1.4-0.6c-0.6,0-1.2,0.2-1.6,0.7c-0.4,0.5-0.6,1.2-0.6,2.1v4.1H215v-4.5
			c0-0.8-0.2-1.4-0.5-1.9c-0.3-0.4-0.8-0.6-1.4-0.6c-0.6,0-1.1,0.2-1.6,0.7c-0.4,0.5-0.6,1.2-0.6,2.1v4.1L209.5,43.8L209.5,43.8z"/>
		<path class="st2" d="M227.3,44c-0.8,0-1.4-0.2-2-0.5c-0.6-0.4-1.1-0.8-1.4-1.4c-0.3-0.6-0.5-1.4-0.5-2.2s0.2-1.6,0.5-2.2
			c0.3-0.6,0.8-1.1,1.4-1.5c0.6-0.4,1.3-0.5,2.1-0.5s1.4,0.2,2,0.5s1,0.8,1.3,1.4c0.3,0.6,0.4,1.2,0.4,1.8c0,0.1,0,0.2,0,0.4
			c0,0.1,0,0.2,0,0.4h-6.3c0,0.6,0.2,1.1,0.4,1.5s0.6,0.7,0.9,0.9c0.4,0.2,0.8,0.3,1.2,0.3c0.6,0,1-0.1,1.4-0.4
			c0.4-0.3,0.6-0.6,0.8-1h1.3c-0.2,0.7-0.6,1.4-1.2,1.8C229,43.8,228.3,44,227.3,44z M227.3,36.8c-0.6,0-1.2,0.2-1.7,0.6
			c-0.5,0.4-0.8,1-0.9,1.7h5c0-0.7-0.3-1.3-0.7-1.7C228.6,37,228,36.8,227.3,36.8z"/>
		<path class="st2" d="M235.7,43.8c-0.7,0-1.3-0.2-1.7-0.5c-0.4-0.4-0.6-1-0.6-1.9V37H232v-1.1h1.4l0.2-1.9h1.2v1.9h2.3V37h-2.3v4.4
			c0,0.5,0.1,0.8,0.3,1s0.6,0.3,1.1,0.3h0.8v1.2h-1.3V43.8z"/>
		<path class="st2" d="M238.8,43.8V32.3h1.3v4.9c0.3-0.5,0.6-0.9,1.1-1.1c0.5-0.3,1-0.4,1.6-0.4c0.9,0,1.6,0.3,2.2,0.9
			c0.6,0.6,0.8,1.5,0.8,2.6v4.6h-1.2v-4.5c0-1.7-0.7-2.5-2-2.5c-0.7,0-1.3,0.2-1.7,0.7c-0.5,0.5-0.7,1.2-0.7,2.1v4.1L238.8,43.8
			L238.8,43.8z"/>
		<path class="st2" d="M248.8,34.1c-0.3,0-0.5-0.1-0.7-0.3s-0.3-0.4-0.3-0.7s0.1-0.5,0.3-0.6c0.2-0.2,0.4-0.3,0.7-0.3
			s0.5,0.1,0.7,0.3c0.2,0.2,0.3,0.4,0.3,0.6c0,0.3-0.1,0.5-0.3,0.7C249.2,34,249,34.1,248.8,34.1z M248.1,43.8v-7.9h1.3v7.9H248.1z"
			/>
		<path class="st2" d="M251.8,43.8v-7.9h1.2l0.1,1.4c0.3-0.5,0.6-0.9,1.1-1.2s1-0.4,1.6-0.4c0.9,0,1.7,0.3,2.2,0.9
			c0.6,0.6,0.8,1.5,0.8,2.6v4.6h-1.2v-4.5c0-1.7-0.7-2.5-2-2.5c-0.7,0-1.2,0.2-1.7,0.7s-0.7,1.2-0.7,2.1v4.1L251.8,43.8L251.8,43.8z
			"/>
		<path class="st2" d="M264.1,41.3c-0.5,0-0.9-0.1-1.2-0.2l-0.8,0.8c0.1,0.1,0.3,0.2,0.4,0.2s0.4,0.1,0.8,0.2
			c0.3,0.1,0.8,0.1,1.4,0.1c1.1,0.1,1.8,0.3,2.3,0.7s0.7,1,0.7,1.6c0,0.5-0.1,0.9-0.4,1.3c-0.2,0.4-0.6,0.8-1.1,1
			c-0.5,0.3-1.2,0.4-2,0.4c-0.7,0-1.3-0.1-1.9-0.3c-0.5-0.2-1-0.5-1.3-0.9s-0.5-0.9-0.5-1.4c0-0.3,0.1-0.6,0.2-1s0.5-0.7,0.9-1
			c-0.2-0.1-0.4-0.2-0.6-0.3s-0.3-0.2-0.5-0.4v-0.4l1.4-1.3c-0.6-0.5-0.9-1.2-0.9-2.1c0-0.5,0.1-1,0.4-1.4c0.2-0.4,0.6-0.8,1.1-1
			s1-0.4,1.7-0.4c0.5,0,0.9,0.1,1.2,0.2h2.9v1l-1.5,0.1c0.3,0.4,0.5,1,0.5,1.5s-0.1,1-0.4,1.4c-0.2,0.4-0.6,0.8-1.1,1
			C265.3,41.2,264.7,41.3,264.1,41.3z M261.7,44.8c0,0.5,0.2,0.9,0.7,1.2s1,0.4,1.7,0.4s1.2-0.1,1.6-0.4s0.6-0.7,0.6-1.1
			c0-0.3-0.1-0.6-0.4-0.9s-0.8-0.4-1.5-0.4c-0.6,0-1.1-0.1-1.5-0.2c-0.4,0.2-0.7,0.5-0.9,0.8C261.8,44.4,261.7,44.6,261.7,44.8z
			 M264.1,40.2c0.6,0,1-0.1,1.4-0.4c0.3-0.3,0.5-0.7,0.5-1.3c0-0.5-0.2-1-0.5-1.3s-0.8-0.4-1.4-0.4s-1,0.1-1.4,0.4s-0.5,0.7-0.5,1.3
			c0,0.5,0.2,1,0.5,1.3C263,40.1,263.5,40.2,264.1,40.2z"/>
		<path class="st2" d="M26.7,105c-0.7,0-1.2-0.1-1.6-0.3c-0.4-0.2-0.8-0.5-1-0.9s-0.3-0.8-0.3-1.2c0-0.8,0.3-1.4,0.9-1.9
			c0.6-0.4,1.5-0.7,2.5-0.7h2.1v-0.1c0-0.7-0.2-1.2-0.5-1.6c-0.4-0.4-0.8-0.5-1.5-0.5c-0.5,0-1,0.1-1.3,0.4
			c-0.4,0.3-0.6,0.6-0.7,1.1h-1.4c0-0.6,0.2-1.1,0.6-1.5c0.3-0.4,0.8-0.7,1.3-0.9c0.5-0.2,1-0.3,1.6-0.3c1.1,0,1.9,0.3,2.5,0.9
			s0.8,1.4,0.8,2.4v4.9h-1.2l-0.1-1.4c-0.2,0.4-0.6,0.8-1,1.1C28,104.9,27.4,105,26.7,105z M26.9,103.9c0.5,0,0.9-0.1,1.3-0.4
			c0.4-0.3,0.6-0.6,0.8-1s0.3-0.9,0.3-1.3l0,0h-2c-0.8,0-1.3,0.1-1.7,0.4c-0.3,0.3-0.5,0.6-0.5,1s0.2,0.8,0.5,1
			C25.9,103.8,26.3,103.9,26.9,103.9z"/>
		<path class="st2" d="M32.7,104.8v-7.9h1.2l0.1,1.4c0.3-0.5,0.6-0.9,1.1-1.2c0.5-0.3,1-0.4,1.6-0.4c0.9,0,1.7,0.3,2.2,0.9
			c0.6,0.6,0.8,1.5,0.8,2.6v4.6h-1.3v-4.5c0-1.6-0.7-2.5-2-2.5c-0.7,0-1.2,0.2-1.7,0.7s-0.7,1.2-0.7,2.1v4.1L32.7,104.8L32.7,104.8z
			"/>
		<path class="st2" d="M45.5,105c-0.8,0-1.5-0.2-2.1-0.5c-0.6-0.4-1.1-0.9-1.4-1.5c-0.3-0.6-0.5-1.3-0.5-2.1c0-0.8,0.2-1.5,0.5-2.1
			s0.8-1.1,1.4-1.5c0.6-0.4,1.3-0.5,2.1-0.5c0.7,0,1.2,0.1,1.7,0.4s0.9,0.6,1.2,1.1v-4.9h1.3v11.5h-1.2l-0.1-1.3
			c-0.3,0.4-0.6,0.7-1.1,1C46.8,104.9,46.2,105,45.5,105z M45.6,103.9c0.5,0,1-0.1,1.4-0.4c0.4-0.2,0.7-0.6,1-1.1
			c0.2-0.4,0.3-1,0.3-1.6s-0.1-1.1-0.3-1.6s-0.5-0.8-1-1c-0.4-0.2-0.9-0.4-1.4-0.4s-1,0.1-1.4,0.4c-0.4,0.2-0.7,0.6-1,1
			c-0.2,0.5-0.3,1-0.3,1.6s0.1,1.1,0.3,1.6s0.6,0.8,1,1.1C44.6,103.7,45.1,103.9,45.6,103.9z"/>
		<path class="st2" d="M58.8,105c-0.7,0-1.2-0.1-1.7-0.3s-0.8-0.5-1-0.9s-0.3-0.8-0.3-1.2c0-0.8,0.3-1.4,0.9-1.9
			c0.6-0.4,1.5-0.7,2.5-0.7h2.1v-0.1c0-0.7-0.2-1.2-0.5-1.6c-0.4-0.4-0.9-0.5-1.5-0.5c-0.5,0-1,0.1-1.3,0.4
			c-0.4,0.3-0.6,0.6-0.7,1.1h-1.4c0-0.6,0.2-1.1,0.6-1.5c0.3-0.4,0.8-0.7,1.3-0.9c0.5-0.2,1-0.3,1.6-0.3c1.1,0,1.9,0.3,2.5,0.9
			s0.8,1.4,0.8,2.4v4.9h-1.1l-0.1-1.4c-0.2,0.4-0.6,0.8-1,1.1C60.1,104.9,59.5,105,58.8,105z M59,103.9c0.5,0,0.9-0.1,1.3-0.4
			s0.7-0.6,0.8-1c0.2-0.4,0.3-0.9,0.3-1.3l0,0h-2c-0.8,0-1.3,0.1-1.7,0.4c-0.3,0.3-0.5,0.6-0.5,1s0.1,0.8,0.5,1
			C58,103.8,58.4,103.9,59,103.9z"/>
		<path class="st2" d="M73.3,105c-0.7,0-1.2-0.1-1.7-0.4s-0.9-0.6-1.2-1.1l-0.1,1.3h-1.2V93.3h1.3v4.9c0.3-0.4,0.6-0.7,1.1-1
			s1.1-0.5,1.8-0.5c0.8,0,1.5,0.2,2.1,0.5c0.6,0.4,1,0.9,1.4,1.5c0.3,0.6,0.5,1.3,0.5,2.1c0,0.8-0.2,1.5-0.5,2.1s-0.8,1.1-1.4,1.5
			C74.7,104.9,74.1,105,73.3,105z M73.1,103.9c0.5,0,1-0.1,1.4-0.4c0.4-0.2,0.7-0.6,1-1.1c0.2-0.4,0.4-1,0.4-1.6s-0.1-1.1-0.4-1.6
			c-0.2-0.5-0.5-0.8-1-1c-0.4-0.2-0.9-0.4-1.4-0.4s-1,0.1-1.4,0.4c-0.4,0.2-0.7,0.6-1,1c-0.2,0.5-0.3,1-0.3,1.6s0.1,1.1,0.3,1.6
			c0.2,0.5,0.6,0.8,1,1.1C72.1,103.7,72.6,103.9,73.1,103.9z"/>
		<path class="st2" d="M79.9,95.1c-0.3,0-0.5-0.1-0.7-0.3c-0.2-0.2-0.3-0.4-0.3-0.7s0.1-0.5,0.3-0.6c0.2-0.2,0.4-0.3,0.7-0.3
			c0.3,0,0.5,0.1,0.7,0.3c0.2,0.2,0.3,0.4,0.3,0.6c0,0.3-0.1,0.5-0.3,0.7S80.2,95.1,79.9,95.1z M79.2,104.8v-7.9h1.4v7.9H79.2z"/>
		<path class="st2" d="M86.1,104.8c-0.7,0-1.3-0.2-1.7-0.5s-0.6-1-0.6-1.9V98h-1.4v-1.1h1.4L84,95h1.2v1.9h2.3V98h-2.3v4.4
			c0,0.5,0.1,0.8,0.3,1c0.2,0.2,0.6,0.3,1.1,0.3h0.8v1.1H86.1z"/>
		<path class="st2" d="M97.6,105c-0.7,0-1.2-0.1-1.7-0.4s-0.9-0.6-1.2-1.1l-0.1,1.3h-1.2V93.3h1.3v4.9c0.3-0.4,0.6-0.7,1.1-1
			s1.1-0.5,1.8-0.5c0.8,0,1.5,0.2,2.1,0.5c0.6,0.4,1,0.9,1.4,1.5s0.5,1.3,0.5,2.1c0,0.8-0.2,1.5-0.5,2.1s-0.8,1.1-1.4,1.5
			C99,104.9,98.4,105,97.6,105z M97.4,103.9c0.5,0,1-0.1,1.4-0.4c0.4-0.2,0.7-0.6,1-1.1c0.2-0.4,0.3-1,0.3-1.6s-0.1-1.1-0.3-1.6
			c-0.2-0.5-0.6-0.8-1-1s-0.9-0.4-1.4-0.4s-1,0.1-1.4,0.4c-0.4,0.2-0.7,0.6-1,1c-0.2,0.5-0.4,1-0.4,1.6s0.1,1.1,0.4,1.6
			c0.2,0.5,0.5,0.8,1,1.1C96.4,103.7,96.9,103.9,97.4,103.9z"/>
		<path class="st2" d="M107,105c-0.8,0-1.4-0.2-2-0.5s-1.1-0.8-1.4-1.5c-0.4-0.6-0.5-1.4-0.5-2.2s0.2-1.6,0.5-2.2s0.8-1.1,1.4-1.5
			c0.6-0.3,1.3-0.5,2-0.5s1.4,0.2,2,0.5s1.1,0.8,1.4,1.5c0.3,0.6,0.5,1.4,0.5,2.2s-0.2,1.6-0.5,2.2s-0.8,1.1-1.4,1.5
			S107.8,105,107,105z M107,103.9c0.5,0,0.9-0.1,1.3-0.3s0.7-0.6,1-1c0.2-0.4,0.4-1,0.4-1.7s-0.1-1.2-0.4-1.7
			c-0.2-0.4-0.6-0.8-0.9-1c-0.4-0.2-0.8-0.3-1.3-0.3s-0.9,0.1-1.3,0.3c-0.4,0.2-0.7,0.6-1,1c-0.2,0.5-0.4,1-0.4,1.7s0.1,1.2,0.4,1.7
			c0.2,0.5,0.6,0.8,0.9,1S106.6,103.9,107,103.9z"/>
		<path class="st2" d="M112.9,104.8v-7.9h1.2l0.1,1.5c0.2-0.5,0.6-0.9,1.1-1.2s1.1-0.5,1.9-0.5v1.4h-0.4c-0.5,0-0.9,0.1-1.3,0.2
			c-0.4,0.2-0.7,0.5-0.9,0.8c-0.2,0.4-0.4,0.9-0.4,1.6v4h-1.3V104.8z"/>
		<path class="st2" d="M119.5,95.1c-0.3,0-0.5-0.1-0.7-0.3c-0.2-0.2-0.3-0.4-0.3-0.7s0.1-0.5,0.3-0.6c0.2-0.2,0.4-0.3,0.7-0.3
			c0.3,0,0.5,0.1,0.7,0.3c0.2,0.2,0.3,0.4,0.3,0.6c0,0.3-0.1,0.5-0.3,0.7C120,95,119.7,95.1,119.5,95.1z M118.8,104.8v-7.9h1.3v7.9
			H118.8z"/>
		<path class="st2" d="M122.5,104.8v-7.9h1.2l0.1,1.4c0.3-0.5,0.6-0.9,1.1-1.2c0.5-0.3,1-0.4,1.6-0.4c0.9,0,1.7,0.3,2.2,0.9
			c0.6,0.6,0.8,1.5,0.8,2.6v4.6h-1.3v-4.5c0-1.6-0.7-2.5-2-2.5c-0.7,0-1.2,0.2-1.7,0.7c-0.4,0.5-0.7,1.2-0.7,2.1v4.1L122.5,104.8
			L122.5,104.8z"/>
		<path class="st2" d="M134.8,102.3c-0.4,0-0.9-0.1-1.2-0.2l-0.8,0.8c0.1,0.1,0.3,0.2,0.4,0.2c0.2,0.1,0.4,0.1,0.8,0.2
			s0.8,0.1,1.4,0.1c1.1,0.1,1.8,0.3,2.3,0.7c0.5,0.4,0.7,1,0.7,1.6c0,0.5-0.1,0.9-0.4,1.3c-0.2,0.4-0.6,0.8-1.2,1
			c-0.5,0.3-1.2,0.4-2,0.4c-0.7,0-1.4-0.1-1.9-0.3s-1-0.5-1.3-0.9s-0.5-0.9-0.5-1.4c0-0.3,0.1-0.6,0.2-1c0.2-0.4,0.5-0.7,0.9-1
			c-0.2-0.1-0.4-0.2-0.6-0.3c-0.2-0.1-0.3-0.2-0.5-0.4v-0.4l1.4-1.3c-0.6-0.5-0.9-1.2-0.9-2.1c0-0.5,0.1-1,0.4-1.4
			c0.2-0.4,0.6-0.8,1.1-1s1-0.4,1.7-0.4c0.5,0,0.9,0.1,1.2,0.2h2.9v1l-1.5,0.1c0.3,0.5,0.5,1,0.5,1.6c0,0.5-0.1,1-0.4,1.4
			c-0.2,0.4-0.6,0.8-1.1,1C136,102.2,135.5,102.3,134.8,102.3z M132.5,105.9c0,0.5,0.2,0.9,0.7,1.2c0.4,0.3,1,0.4,1.7,0.4
			s1.2-0.1,1.6-0.4c0.4-0.3,0.6-0.7,0.6-1.1c0-0.3-0.1-0.6-0.4-0.9s-0.8-0.4-1.5-0.4c-0.6,0-1.1-0.1-1.5-0.2
			c-0.4,0.2-0.7,0.5-0.9,0.8C132.5,105.4,132.5,105.6,132.5,105.9z M134.8,101.2c0.6,0,1-0.2,1.3-0.4c0.3-0.3,0.5-0.7,0.5-1.3
			c0-0.5-0.2-1-0.5-1.3s-0.8-0.4-1.3-0.4c-0.6,0-1,0.1-1.4,0.4c-0.3,0.3-0.5,0.7-0.5,1.3c0,0.6,0.2,1,0.5,1.3
			C133.8,101.1,134.2,101.2,134.8,101.2z"/>
		<path class="st2" d="M139.4,106.7l0.9-3.5h1.4l-1.4,3.5H139.4z"/>
		<path class="st2" d="M147.6,104.8V93.3h1.3v11.5H147.6z"/>
		<path class="st2" d="M151.9,95.1c-0.3,0-0.5-0.1-0.7-0.3c-0.2-0.2-0.3-0.4-0.3-0.7s0.1-0.5,0.3-0.6c0.2-0.2,0.4-0.3,0.7-0.3
			s0.5,0.1,0.7,0.3c0.2,0.2,0.3,0.4,0.3,0.6c0,0.3-0.1,0.5-0.3,0.7S152.2,95.1,151.9,95.1z M151.3,104.8v-7.9h1.3v7.9H151.3z"/>
		<path class="st2" d="M154.9,104.8V93.3h1.3v6.9l3.2-3.3h1.6l-3.5,3.6l4,4.3h-1.7l-3.6-4.1v4.1H154.9z"/>
		<path class="st2" d="M166,105c-0.8,0-1.4-0.2-2-0.5s-1.1-0.8-1.4-1.5c-0.3-0.6-0.5-1.4-0.5-2.2c0-0.8,0.2-1.6,0.5-2.2
			s0.8-1.1,1.4-1.5s1.3-0.5,2.1-0.5s1.4,0.2,2,0.5s1,0.8,1.3,1.4s0.4,1.2,0.4,1.8c0,0.1,0,0.2,0,0.4c0,0.1,0,0.2,0,0.4h-6.3
			c0,0.6,0.2,1.1,0.4,1.5s0.6,0.7,0.9,0.9c0.4,0.2,0.8,0.3,1.2,0.3c0.6,0,1-0.1,1.4-0.4s0.6-0.6,0.8-1h1.3c-0.2,0.7-0.6,1.4-1.2,1.8
			C167.7,104.8,166.9,105,166,105z M166,97.8c-0.6,0-1.2,0.2-1.7,0.6s-0.8,1-0.9,1.7h5c0-0.7-0.3-1.3-0.7-1.7
			C167.2,98,166.7,97.8,166,97.8z"/>
		<path class="st2" d="M175.8,104.8V93.3h1.3v11.5H175.8z"/>
		<path class="st2" d="M180.1,95.1c-0.3,0-0.5-0.1-0.7-0.3c-0.2-0.2-0.3-0.4-0.3-0.7s0.1-0.5,0.3-0.6c0.2-0.2,0.4-0.3,0.7-0.3
			s0.5,0.1,0.7,0.3c0.2,0.2,0.3,0.4,0.3,0.6c0,0.3-0.1,0.5-0.3,0.7C180.6,95,180.4,95.1,180.1,95.1z M179.5,104.8v-7.9h1.3v7.9
			H179.5z"/>
		<path class="st2" d="M186.2,105c-1,0-1.7-0.2-2.4-0.7c-0.6-0.5-1-1.1-1.1-1.9h1.4c0.1,0.4,0.3,0.8,0.7,1.1
			c0.4,0.3,0.8,0.5,1.4,0.5c0.6,0,1-0.1,1.2-0.4c0.3-0.2,0.4-0.5,0.4-0.9c0-0.5-0.2-0.8-0.5-1s-0.8-0.3-1.5-0.4
			c-0.4-0.1-0.8-0.2-1.3-0.4c-0.4-0.2-0.8-0.4-1.1-0.7c-0.3-0.3-0.4-0.7-0.4-1.2c0-0.7,0.3-1.3,0.8-1.7c0.5-0.4,1.2-0.7,2.1-0.7
			c0.8,0,1.5,0.2,2.1,0.6c0.5,0.4,0.8,1,0.9,1.8h-1.3c-0.1-0.4-0.2-0.7-0.5-0.9c-0.3-0.2-0.7-0.3-1.2-0.3s-0.8,0.1-1.1,0.3
			c-0.3,0.2-0.4,0.5-0.4,0.8s0.2,0.6,0.5,0.8c0.3,0.2,0.8,0.3,1.4,0.5c0.5,0.1,1,0.2,1.4,0.4s0.8,0.4,1.1,0.7
			c0.3,0.3,0.4,0.7,0.4,1.3c0,0.7-0.3,1.3-0.8,1.8C187.9,104.8,187.1,105,186.2,105z"/>
		<path class="st2" d="M193.9,104.8c-0.7,0-1.3-0.2-1.7-0.5c-0.4-0.4-0.6-1-0.6-1.9V98h-1.4v-1.1h1.4l0.2-1.9h1.2v1.9h2.3V98H193
			v4.4c0,0.5,0.1,0.8,0.3,1s0.6,0.3,1.1,0.3h0.8v1.1H193.9z"/>
		<path class="st2" d="M200.3,105c-0.8,0-1.4-0.2-2-0.5s-1.1-0.8-1.4-1.5c-0.3-0.6-0.5-1.4-0.5-2.2c0-0.8,0.2-1.6,0.5-2.2
			s0.8-1.1,1.4-1.5s1.3-0.5,2.1-0.5s1.4,0.2,2,0.5s1,0.8,1.3,1.4s0.4,1.2,0.4,1.8c0,0.1,0,0.2,0,0.4c0,0.1,0,0.2,0,0.4h-6.3
			c0,0.6,0.2,1.1,0.4,1.5s0.6,0.7,0.9,0.9c0.4,0.2,0.8,0.3,1.2,0.3c0.5,0,1-0.1,1.4-0.4s0.6-0.6,0.8-1h1.3c-0.2,0.7-0.6,1.4-1.2,1.8
			C202,104.8,201.3,105,200.3,105z M200.3,97.8c-0.6,0-1.2,0.2-1.7,0.6s-0.8,1-0.9,1.7h5c0-0.7-0.3-1.3-0.7-1.7
			C201.6,98,201,97.8,200.3,97.8z"/>
		<path class="st2" d="M205.9,104.8v-7.9h1.2l0.1,1.4c0.3-0.5,0.6-0.9,1.1-1.2c0.5-0.3,1-0.4,1.6-0.4c0.9,0,1.7,0.3,2.2,0.9
			s0.8,1.5,0.8,2.6v4.6h-1.3v-4.5c0-1.6-0.7-2.5-2.1-2.5c-0.7,0-1.2,0.2-1.7,0.7c-0.4,0.5-0.7,1.2-0.7,2.1v4.1L205.9,104.8
			L205.9,104.8z"/>
		<path class="st2" d="M222.4,104.8c-0.7,0-1.3-0.2-1.7-0.5c-0.4-0.4-0.6-1-0.6-1.9V98h-1.4v-1.1h1.4l0.2-1.9h1.2v1.9h2.3V98h-2.3
			v4.4c0,0.5,0.1,0.8,0.3,1s0.6,0.3,1.1,0.3h0.8v1.1H222.4z"/>
		<path class="st2" d="M228.9,105c-0.8,0-1.4-0.2-2-0.5s-1.1-0.8-1.4-1.5c-0.4-0.6-0.5-1.4-0.5-2.2s0.2-1.6,0.5-2.2s0.8-1.1,1.4-1.5
			c0.6-0.3,1.3-0.5,2-0.5c0.8,0,1.4,0.2,2,0.5s1.1,0.8,1.4,1.5c0.4,0.6,0.5,1.4,0.5,2.2s-0.2,1.6-0.5,2.2c-0.4,0.6-0.8,1.1-1.4,1.5
			C230.3,104.9,229.6,105,228.9,105z M228.9,103.9c0.5,0,0.9-0.1,1.3-0.3c0.4-0.2,0.7-0.6,1-1c0.2-0.4,0.4-1,0.4-1.7
			s-0.1-1.2-0.4-1.7c-0.2-0.4-0.6-0.8-0.9-1c-0.4-0.2-0.8-0.3-1.3-0.3s-0.9,0.1-1.3,0.3c-0.4,0.2-0.7,0.6-1,1
			c-0.2,0.5-0.4,1-0.4,1.7s0.1,1.2,0.4,1.7s0.6,0.8,0.9,1C228,103.8,228.4,103.9,228.9,103.9z"/>
		<path class="st2" d="M241.6,105c-0.7,0-1.2-0.1-1.6-0.3s-0.8-0.5-1-0.9s-0.3-0.8-0.3-1.2c0-0.8,0.3-1.4,0.9-1.9s1.5-0.7,2.5-0.7
			h2.1v-0.1c0-0.7-0.2-1.2-0.5-1.6c-0.4-0.4-0.9-0.5-1.5-0.5c-0.5,0-1,0.1-1.4,0.4s-0.6,0.6-0.7,1.1h-1.4c0-0.6,0.2-1.1,0.6-1.5
			c0.3-0.4,0.8-0.7,1.3-0.9c0.5-0.2,1-0.3,1.6-0.3c1.1,0,1.9,0.3,2.5,0.9s0.8,1.4,0.8,2.4v4.9h-1.2l-0.1-1.4c-0.2,0.4-0.6,0.8-1,1.1
			C242.9,104.9,242.3,105,241.6,105z M241.8,103.9c0.5,0,0.9-0.1,1.3-0.4c0.4-0.3,0.7-0.6,0.8-1c0.2-0.4,0.3-0.9,0.3-1.3l0,0h-2
			c-0.8,0-1.4,0.1-1.7,0.4s-0.5,0.6-0.5,1s0.1,0.8,0.5,1C240.8,103.8,241.2,103.9,241.8,103.9z"/>
		<path class="st2" d="M24.1,126.8v-7.9h1.2l0.1,1.5c0.3-0.5,0.6-0.9,1.1-1.2s1.1-0.5,1.9-0.5v1.4H28c-0.5,0-0.9,0.1-1.3,0.2
			c-0.4,0.2-0.7,0.5-0.9,0.8c-0.2,0.4-0.4,0.9-0.4,1.6v4h-1.3V126.8z"/>
		<path class="st2" d="M33.1,127c-0.8,0-1.4-0.2-2-0.5s-1-0.8-1.4-1.5c-0.3-0.6-0.5-1.4-0.5-2.2c0-0.8,0.2-1.6,0.5-2.2
			s0.8-1.1,1.4-1.5s1.3-0.5,2.1-0.5s1.4,0.2,2,0.5c0.6,0.4,1,0.8,1.3,1.4s0.5,1.2,0.5,1.8c0,0.1,0,0.2,0,0.4c0,0.1,0,0.2,0,0.4h-6.4
			c0,0.6,0.2,1.1,0.4,1.5s0.6,0.7,0.9,0.9c0.4,0.2,0.8,0.3,1.2,0.3c0.6,0,1-0.1,1.4-0.4s0.7-0.6,0.8-1h1.3c-0.2,0.7-0.6,1.4-1.2,1.8
			C34.8,126.8,34.1,127,33.1,127z M33.1,119.8c-0.6,0-1.2,0.2-1.7,0.6s-0.8,1-0.9,1.7h5c0-0.7-0.3-1.3-0.7-1.7
			C34.4,120,33.8,119.8,33.1,119.8z"/>
		<path class="st2" d="M38.7,126.8v-11.5H40v11.5H38.7z"/>
		<path class="st2" d="M44.9,127c-0.7,0-1.2-0.1-1.7-0.3s-0.8-0.5-1-0.9s-0.3-0.8-0.3-1.2c0-0.8,0.3-1.4,0.9-1.9
			c0.6-0.4,1.5-0.7,2.5-0.7h2.1v-0.1c0-0.7-0.2-1.2-0.5-1.6c-0.4-0.4-0.8-0.5-1.5-0.5c-0.5,0-1,0.1-1.4,0.4s-0.6,0.6-0.7,1.1h-1.4
			c0.1-0.6,0.2-1.1,0.6-1.5c0.3-0.4,0.8-0.7,1.3-0.9c0.5-0.2,1-0.3,1.6-0.3c1.1,0,1.9,0.3,2.5,0.9s0.8,1.4,0.8,2.4v4.9h-1.1
			l-0.1-1.4c-0.2,0.4-0.6,0.8-1,1.1C46.2,126.9,45.6,127,44.9,127z M45.1,125.9c0.5,0,0.9-0.1,1.3-0.4c0.4-0.3,0.7-0.6,0.8-1
			c0.2-0.4,0.3-0.9,0.3-1.3l0,0h-2c-0.8,0-1.3,0.1-1.7,0.4c-0.3,0.3-0.5,0.6-0.5,1s0.1,0.8,0.5,1C44.1,125.8,44.5,125.9,45.1,125.9z
			"/>
		<path class="st2" d="M50.1,126.8l2.8-4l-2.8-4h1.5l2.2,3.3l2.2-3.3h1.4l-2.8,4l2.8,4H56l-2.2-3.3l-2.2,3.3H50.1z"/>
		<path class="st2" d="M61.4,127c-0.7,0-1.2-0.1-1.7-0.3s-0.8-0.5-1-0.9s-0.3-0.8-0.3-1.2c0-0.8,0.3-1.4,0.9-1.9
			c0.6-0.4,1.5-0.7,2.5-0.7h2.1v-0.1c0-0.7-0.2-1.2-0.5-1.6c-0.4-0.4-0.9-0.5-1.5-0.5c-0.5,0-1,0.1-1.4,0.4s-0.6,0.6-0.7,1.1h-1.2
			c0-0.6,0.2-1.1,0.6-1.5c0.3-0.4,0.8-0.7,1.3-0.9c0.5-0.2,1-0.3,1.6-0.3c1.1,0,1.9,0.3,2.5,0.9s0.8,1.4,0.8,2.4v4.9h-1.2l-0.1-1.4
			c-0.2,0.4-0.6,0.8-1,1.1C62.7,126.9,62.2,127,61.4,127z M61.6,125.9c0.5,0,0.9-0.1,1.3-0.4s0.7-0.6,0.8-1c0.2-0.4,0.3-0.9,0.3-1.3
			l0,0h-2c-0.8,0-1.3,0.1-1.7,0.4c-0.3,0.3-0.5,0.6-0.5,1s0.1,0.8,0.5,1C60.7,125.8,61.1,125.9,61.6,125.9z"/>
		<path class="st2" d="M70.4,126.8c-0.7,0-1.3-0.2-1.7-0.5c-0.4-0.4-0.6-1-0.6-1.9V120h-1.5v-1.1H68l0.2-1.9h1.2v1.9h2.3v1.1h-2.3
			v4.4c0,0.5,0.1,0.8,0.3,1c0.2,0.2,0.6,0.3,1.1,0.3h0.8v1.1H70.4z"/>
		<path class="st2" d="M74.2,117.1c-0.3,0-0.5-0.1-0.7-0.3c-0.2-0.2-0.3-0.4-0.3-0.7s0.1-0.5,0.3-0.6c0.2-0.2,0.4-0.3,0.7-0.3
			c0.3,0,0.5,0.1,0.7,0.3c0.2,0.2,0.3,0.4,0.3,0.6c0,0.3-0.1,0.5-0.3,0.7S74.5,117.1,74.2,117.1z M73.6,126.8v-7.9h1.3v7.9H73.6z"/>
		<path class="st2" d="M80.9,127c-0.8,0-1.4-0.2-2-0.5s-1.1-0.8-1.4-1.5s-0.5-1.4-0.5-2.2s0.2-1.6,0.5-2.2s0.8-1.1,1.4-1.5
			s1.3-0.5,2-0.5c0.8,0,1.4,0.2,2,0.5s1.1,0.8,1.4,1.5c0.3,0.6,0.5,1.4,0.5,2.2s-0.2,1.6-0.5,2.2s-0.8,1.1-1.4,1.5
			C82.3,126.9,81.6,127,80.9,127z M80.9,125.9c0.5,0,0.9-0.1,1.3-0.3s0.7-0.6,1-1c0.2-0.4,0.4-1,0.4-1.7s-0.1-1.2-0.4-1.7
			c-0.2-0.4-0.6-0.8-1-1s-0.8-0.3-1.3-0.3s-0.9,0.1-1.3,0.3c-0.4,0.2-0.7,0.6-1,1c-0.2,0.5-0.4,1-0.4,1.7s0.1,1.2,0.4,1.7
			c0.2,0.5,0.6,0.8,1,1S80.4,125.9,80.9,125.9z"/>
		<path class="st2" d="M86.7,126.8v-7.9h1.2l0.1,1.4c0.3-0.5,0.6-0.9,1.1-1.2c0.5-0.3,1-0.4,1.6-0.4c0.9,0,1.7,0.3,2.2,0.9
			s0.8,1.5,0.8,2.6v4.6h-1.3v-4.5c0-1.6-0.7-2.5-2.1-2.5c-0.7,0-1.2,0.2-1.7,0.7c-0.4,0.5-0.7,1.2-0.7,2.1v4.1L86.7,126.8
			L86.7,126.8z"/>
		<path class="st2" d="M103.2,126.8c-0.7,0-1.3-0.2-1.7-0.5s-0.6-1-0.6-1.9V120h-1.4v-1.1h1.4l0.2-1.9h1.2v1.9h2.3v1.1h-2.3v4.4
			c0,0.5,0.1,0.8,0.3,1c0.2,0.2,0.6,0.3,1.1,0.3h0.8v1.1H103.2z"/>
		<path class="st2" d="M108.9,127c-0.7,0-1.2-0.1-1.6-0.3c-0.4-0.2-0.8-0.5-1-0.9s-0.3-0.8-0.3-1.2c0-0.8,0.3-1.4,0.9-1.9
			c0.6-0.4,1.5-0.7,2.5-0.7h2.1v-0.1c0-0.7-0.2-1.2-0.5-1.6c-0.4-0.4-0.8-0.5-1.5-0.5c-0.5,0-1,0.1-1.4,0.4s-0.6,0.6-0.7,1.1H106
			c0.1-0.6,0.2-1.1,0.6-1.5c0.3-0.4,0.8-0.7,1.3-0.9c0.5-0.2,1-0.3,1.6-0.3c1.1,0,1.9,0.3,2.5,0.9s0.8,1.4,0.8,2.4v4.9h-1.2
			l-0.1-1.4c-0.2,0.4-0.6,0.8-1,1.1C110.2,126.9,109.7,127,108.9,127z M109.1,125.9c0.5,0,1-0.1,1.3-0.4c0.4-0.3,0.6-0.6,0.8-1
			s0.3-0.9,0.3-1.3l0,0h-2c-0.8,0-1.4,0.1-1.7,0.4c-0.3,0.3-0.5,0.6-0.5,1s0.1,0.8,0.5,1C108.2,125.8,108.6,125.9,109.1,125.9z"/>
		<path class="st2" d="M114.9,130.4v-11.5h1.2l0.1,1.3c0.3-0.4,0.6-0.7,1.1-1s1.1-0.5,1.8-0.5c0.8,0,1.5,0.2,2.1,0.5
			c0.6,0.4,1,0.9,1.4,1.5c0.3,0.6,0.5,1.3,0.5,2.1s-0.2,1.5-0.5,2.1s-0.8,1.1-1.4,1.5s-1.3,0.5-2.1,0.5c-0.7,0-1.2-0.1-1.7-0.4
			s-0.9-0.6-1.2-1.1v4.9h-1.3V130.4z M119,125.9c0.5,0,1-0.1,1.4-0.4s0.7-0.6,1-1.1c0.2-0.4,0.3-1,0.3-1.6s-0.1-1.1-0.3-1.6
			s-0.6-0.8-1-1s-0.9-0.4-1.4-0.4s-1,0.1-1.4,0.4c-0.4,0.2-0.7,0.6-1,1c-0.2,0.5-0.4,1-0.4,1.6s0.1,1.1,0.4,1.6
			c0.2,0.5,0.6,0.8,1,1.1C118,125.7,118.5,125.9,119,125.9z"/>
		<path class="st2" d="M128.6,127c-0.8,0-1.4-0.2-2-0.5s-1.1-0.8-1.4-1.5c-0.3-0.6-0.5-1.4-0.5-2.2c0-0.8,0.2-1.6,0.5-2.2
			s0.8-1.1,1.4-1.5s1.3-0.5,2.1-0.5s1.4,0.2,2,0.5s1,0.8,1.3,1.4s0.5,1.2,0.5,1.8c0,0.1,0,0.2,0,0.4c0,0.1,0,0.2,0,0.4h-6.3
			c0,0.6,0.2,1.1,0.4,1.5s0.6,0.7,0.9,0.9c0.4,0.2,0.8,0.3,1.2,0.3c0.6,0,1-0.1,1.4-0.4s0.6-0.6,0.8-1h1.3c-0.2,0.7-0.6,1.4-1.2,1.8
			C130.3,126.8,129.5,127,128.6,127z M128.6,119.8c-0.6,0-1.2,0.2-1.7,0.6s-0.8,1-0.9,1.7h5c0-0.7-0.3-1.3-0.7-1.7
			C129.8,120,129.2,119.8,128.6,119.8z"/>
		<path class="st2" d="M142,127c-0.8,0-1.4-0.2-2-0.5s-1.1-0.8-1.4-1.5c-0.3-0.6-0.5-1.4-0.5-2.2s0.2-1.6,0.5-2.2
			c0.4-0.6,0.8-1.1,1.4-1.5s1.3-0.5,2-0.5c0.8,0,1.4,0.2,2,0.5s1.1,0.8,1.4,1.5c0.3,0.6,0.5,1.4,0.5,2.2s-0.2,1.6-0.5,2.2
			s-0.8,1.1-1.4,1.5S142.7,127,142,127z M142,125.9c0.5,0,0.9-0.1,1.3-0.3s0.7-0.6,1-1c0.2-0.4,0.4-1,0.4-1.7s-0.1-1.2-0.4-1.7
			c-0.2-0.4-0.6-0.8-0.9-1c-0.4-0.2-0.8-0.3-1.3-0.3s-0.9,0.1-1.3,0.3c-0.4,0.2-0.7,0.6-1,1c-0.2,0.5-0.4,1-0.4,1.7s0.1,1.2,0.4,1.7
			s0.6,0.8,0.9,1S141.5,125.9,142,125.9z"/>
		<path class="st2" d="M147.8,126.8v-7.9h1.2l0.1,1.5c0.2-0.5,0.6-0.9,1.1-1.2s1.1-0.5,1.9-0.5v1.4h-0.4c-0.5,0-0.9,0.1-1.3,0.2
			c-0.4,0.2-0.7,0.5-0.9,0.8c-0.2,0.4-0.3,0.9-0.3,1.6v4h-1.4V126.8z"/>
		<path class="st2" d="M157.9,126.8v-7.9h1.2l0.1,1.5c0.2-0.5,0.6-0.9,1.1-1.2s1.1-0.5,1.9-0.5v1.4h-0.4c-0.5,0-0.9,0.1-1.3,0.2
			c-0.4,0.2-0.7,0.5-0.9,0.8c-0.2,0.4-0.4,0.9-0.4,1.6v4h-1.3V126.8z"/>
		<path class="st2" d="M166.9,127c-0.8,0-1.4-0.2-2-0.5c-0.6-0.4-1.1-0.8-1.4-1.5c-0.3-0.6-0.5-1.4-0.5-2.2c0-0.8,0.2-1.6,0.5-2.2
			s0.8-1.1,1.4-1.5c0.6-0.4,1.3-0.5,2.1-0.5s1.4,0.2,2,0.5s1,0.8,1.3,1.4s0.4,1.2,0.4,1.8c0,0.1,0,0.2,0,0.4c0,0.1,0,0.2,0,0.4h-6.3
			c0,0.6,0.2,1.1,0.4,1.5s0.6,0.7,0.9,0.9c0.4,0.2,0.8,0.3,1.2,0.3c0.6,0,1-0.1,1.4-0.4s0.6-0.6,0.8-1h1.3c-0.2,0.7-0.6,1.4-1.2,1.8
			C168.6,126.8,167.9,127,166.9,127z M166.9,119.8c-0.6,0-1.2,0.2-1.7,0.6s-0.8,1-0.9,1.7h5c0-0.7-0.3-1.3-0.7-1.7
			C168.2,120,167.6,119.8,166.9,119.8z"/>
		<path class="st2" d="M175.1,127c-0.7,0-1.2-0.1-1.6-0.3s-0.8-0.5-1-0.9s-0.3-0.8-0.3-1.2c0-0.8,0.3-1.4,0.9-1.9
			c0.6-0.4,1.5-0.7,2.5-0.7h2.1v-0.1c0-0.7-0.2-1.2-0.5-1.6c-0.4-0.4-0.8-0.5-1.5-0.5c-0.5,0-1,0.1-1.4,0.4s-0.6,0.6-0.7,1.1h-1.4
			c0.1-0.6,0.2-1.1,0.6-1.5c0.3-0.4,0.8-0.7,1.3-0.9c0.5-0.2,1-0.3,1.6-0.3c1.1,0,1.9,0.3,2.5,0.9s0.8,1.4,0.8,2.4v4.9h-1.2
			l-0.1-1.4c-0.2,0.4-0.6,0.8-1,1.1C176.4,126.9,175.8,127,175.1,127z M175.3,125.9c0.5,0,0.9-0.1,1.3-0.4c0.4-0.3,0.7-0.6,0.8-1
			s0.3-0.9,0.3-1.3l0,0h-2c-0.8,0-1.4,0.1-1.7,0.4s-0.5,0.6-0.5,1s0.2,0.8,0.5,1C174.3,125.8,174.8,125.9,175.3,125.9z"/>
		<path class="st2" d="M184.7,127c-0.8,0-1.5-0.2-2.1-0.5c-0.6-0.4-1.1-0.9-1.4-1.5c-0.3-0.6-0.5-1.3-0.5-2.1c0-0.8,0.2-1.5,0.5-2.1
			s0.8-1.1,1.4-1.5c0.6-0.4,1.3-0.5,2.1-0.5c0.7,0,1.2,0.1,1.7,0.4s0.9,0.6,1.2,1.1v-4.9h1.3v11.5h-1.2l-0.1-1.3
			c-0.3,0.4-0.6,0.7-1.1,1S185.4,127,184.7,127z M184.9,125.9c0.5,0,1-0.1,1.4-0.4s0.7-0.6,1-1.1c0.2-0.4,0.3-1,0.3-1.6
			s-0.1-1.1-0.3-1.6s-0.5-0.8-1-1s-0.9-0.4-1.4-0.4s-1,0.1-1.4,0.4c-0.4,0.2-0.7,0.6-1,1c-0.2,0.5-0.3,1-0.3,1.6s0.1,1.1,0.3,1.6
			s0.6,0.8,1,1.1C183.9,125.7,184.3,125.9,184.9,125.9z"/>
		<path class="st2" d="M198,127c-0.7,0-1.2-0.1-1.6-0.3c-0.4-0.2-0.8-0.5-1-0.9s-0.3-0.8-0.3-1.2c0-0.8,0.3-1.4,0.9-1.9
			c0.6-0.4,1.5-0.7,2.5-0.7h2.1v-0.1c0-0.7-0.2-1.2-0.5-1.6c-0.4-0.4-0.8-0.5-1.5-0.5c-0.5,0-1,0.1-1.4,0.4s-0.6,0.6-0.7,1.1h-1.4
			c0.1-0.6,0.2-1.1,0.6-1.5c0.3-0.4,0.8-0.7,1.3-0.9c0.5-0.2,1-0.3,1.6-0.3c1.1,0,1.9,0.3,2.5,0.9s0.8,1.4,0.8,2.4v4.9h-1.2
			l-0.1-1.4c-0.2,0.4-0.6,0.8-1,1.1C199.4,126.9,198.8,127,198,127z M198.3,125.9c0.5,0,0.9-0.1,1.3-0.4c0.4-0.3,0.7-0.6,0.8-1
			c0.2-0.4,0.3-0.9,0.3-1.3l0,0h-2c-0.8,0-1.4,0.1-1.7,0.4s-0.5,0.6-0.5,1s0.2,0.8,0.5,1C197.3,125.8,197.7,125.9,198.3,125.9z"/>
		<path class="st2" d="M212.5,127c-0.6,0-1.2-0.1-1.7-0.4s-0.9-0.6-1.2-1.1l-0.1,1.3h-1.2v-11.5h1.3v4.9c0.3-0.4,0.6-0.7,1.1-1
			s1.1-0.5,1.8-0.5c0.8,0,1.5,0.2,2.1,0.5c0.6,0.4,1,0.9,1.4,1.5s0.5,1.3,0.5,2.1c0,0.8-0.2,1.5-0.5,2.1s-0.8,1.1-1.4,1.5
			C214,126.9,213.3,127,212.5,127z M212.4,125.9c0.5,0,1-0.1,1.4-0.4s0.7-0.6,1-1.1c0.2-0.4,0.4-1,0.4-1.6s-0.1-1.1-0.4-1.6
			c-0.2-0.5-0.6-0.8-1-1s-0.9-0.4-1.4-0.4s-1,0.1-1.4,0.4c-0.4,0.2-0.7,0.6-1,1c-0.2,0.5-0.4,1-0.4,1.6s0.1,1.1,0.4,1.6
			c0.2,0.5,0.6,0.8,1,1.1C211.4,125.7,211.9,125.9,212.4,125.9z"/>
		<path class="st2" d="M222,127c-0.8,0-1.4-0.2-2-0.5s-1.1-0.8-1.4-1.5c-0.3-0.6-0.5-1.4-0.5-2.2s0.2-1.6,0.5-2.2s0.8-1.1,1.4-1.5
			c0.6-0.3,1.3-0.5,2-0.5c0.8,0,1.4,0.2,2,0.5s1.1,0.8,1.4,1.5c0.3,0.6,0.5,1.4,0.5,2.2s-0.2,1.6-0.5,2.2c-0.4,0.6-0.8,1.1-1.4,1.5
			S222.7,127,222,127z M222,125.9c0.5,0,0.9-0.1,1.3-0.3c0.4-0.2,0.7-0.6,1-1c0.2-0.4,0.4-1,0.4-1.7s-0.1-1.2-0.4-1.7
			c-0.2-0.4-0.6-0.8-0.9-1c-0.4-0.2-0.8-0.3-1.3-0.3s-0.9,0.1-1.3,0.3c-0.4,0.2-0.7,0.6-1,1c-0.2,0.5-0.4,1-0.4,1.7s0.1,1.2,0.4,1.7
			s0.6,0.8,0.9,1S221.5,125.9,222,125.9z"/>
		<path class="st2" d="M231.4,127c-0.8,0-1.4-0.2-2-0.5s-1.1-0.8-1.4-1.5c-0.4-0.6-0.5-1.4-0.5-2.2s0.2-1.6,0.5-2.2
			c0.4-0.6,0.8-1.1,1.4-1.5c0.6-0.3,1.3-0.5,2-0.5s1.4,0.2,2,0.5s1.1,0.8,1.4,1.5c0.4,0.6,0.5,1.4,0.5,2.2s-0.2,1.6-0.5,2.2
			s-0.8,1.1-1.4,1.5C232.9,126.9,232.2,127,231.4,127z M231.4,125.9c0.5,0,0.9-0.1,1.3-0.3s0.7-0.6,1-1c0.2-0.4,0.4-1,0.4-1.7
			s-0.1-1.2-0.4-1.7c-0.2-0.4-0.6-0.8-1-1s-0.8-0.3-1.3-0.3s-0.9,0.1-1.3,0.3c-0.4,0.2-0.7,0.6-1,1c-0.2,0.5-0.4,1-0.4,1.7
			s0.1,1.2,0.4,1.7c0.2,0.5,0.6,0.8,1,1S231,125.9,231.4,125.9z"/>
		<path class="st2" d="M237.3,126.8v-11.5h1.3v6.9l3.2-3.3h1.6l-3.5,3.6l4,4.3h-1.7l-3.6-4.1v4.1H237.3z"/>
		<path class="st2" d="M26.9,149c-0.9,0-1.7-0.3-2.2-0.9s-0.8-1.5-0.8-2.6v-4.6h1.3v4.5c0,1.7,0.7,2.5,2,2.5c0.7,0,1.3-0.2,1.7-0.7
			c0.5-0.5,0.7-1.2,0.7-2.1V141h1.3v7.9h-1.2l-0.1-1.4c-0.2,0.5-0.6,0.9-1.1,1.2C28.1,148.9,27.6,149,26.9,149z"/>
		<path class="st2" d="M33.2,148.8v-7.9h1.2l0.1,1.4c0.3-0.5,0.6-0.9,1.1-1.2c0.5-0.3,1-0.4,1.6-0.4c0.9,0,1.7,0.3,2.2,0.9
			c0.6,0.6,0.8,1.5,0.8,2.6v4.6h-1.3v-4.5c0-1.6-0.7-2.5-2-2.5c-0.7,0-1.2,0.2-1.7,0.7s-0.7,1.2-0.7,2.1v4.1L33.2,148.8L33.2,148.8z
			"/>
		<path class="st2" d="M45.5,148.8c-0.7,0-1.3-0.2-1.7-0.5c-0.4-0.4-0.6-1-0.6-1.9V142h-1.4v-1.1h1.4l0.2-1.9h1.2v1.9h2.3v1.1h-2.3
			v4.4c0,0.5,0.1,0.8,0.3,1s0.6,0.3,1.1,0.3h0.8v1.1H45.5z"/>
		<path class="st2" d="M49.4,139.1c-0.3,0-0.5-0.1-0.7-0.3c-0.2-0.2-0.3-0.4-0.3-0.7s0.1-0.5,0.3-0.6c0.2-0.2,0.4-0.3,0.7-0.3
			s0.5,0.1,0.7,0.3c0.2,0.2,0.3,0.4,0.3,0.6c0,0.3-0.1,0.5-0.3,0.7C49.8,139,49.6,139.1,49.4,139.1z M48.7,148.8v-7.9H50v7.9H48.7z"
			/>
		<path class="st2" d="M52.4,148.8v-11.5h1.3v11.5H52.4z"/>
		<path class="st2" d="M61,152.4l2-4.3h-0.5l-3.2-7.2h1.5l2.6,6.2l2.8-6.2h1.4l-5.2,11.5H61z"/>
		<path class="st2" d="M71.9,149c-0.8,0-1.4-0.2-2-0.5s-1.1-0.8-1.4-1.5c-0.3-0.6-0.5-1.4-0.5-2.2s0.2-1.6,0.5-2.2s0.8-1.1,1.4-1.5
			s1.3-0.5,2-0.5c0.8,0,1.4,0.2,2,0.5s1.1,0.8,1.4,1.5c0.3,0.6,0.5,1.4,0.5,2.2s-0.2,1.6-0.5,2.2s-0.8,1.1-1.4,1.5
			C73.3,148.9,72.7,149,71.9,149z M71.9,147.9c0.5,0,0.9-0.1,1.3-0.3s0.7-0.6,1-1c0.2-0.4,0.4-1,0.4-1.7s-0.1-1.2-0.4-1.7
			c-0.2-0.4-0.6-0.8-1-1s-0.8-0.3-1.3-0.3s-0.9,0.1-1.3,0.3c-0.4,0.2-0.7,0.6-1,1c-0.2,0.5-0.4,1-0.4,1.7s0.1,1.2,0.4,1.7
			s0.6,0.8,1,1C71.1,147.8,71.5,147.9,71.9,147.9z"/>
		<path class="st2" d="M80.7,149c-0.9,0-1.7-0.3-2.2-0.9s-0.8-1.5-0.8-2.6v-4.6H79v4.5c0,1.7,0.7,2.5,2,2.5c0.7,0,1.3-0.2,1.7-0.7
			c0.5-0.5,0.7-1.2,0.7-2.1V141h1.3v7.9h-1.2l-0.1-1.4c-0.2,0.5-0.6,0.9-1.1,1.2C81.8,148.9,81.3,149,80.7,149z"/>
		<path class="st2" d="M93.8,149c-0.7,0-1.2-0.1-1.7-0.3s-0.8-0.5-1-0.9s-0.3-0.8-0.3-1.2c0-0.8,0.3-1.4,0.9-1.9
			c0.6-0.4,1.5-0.7,2.5-0.7h2.1v-0.1c0-0.7-0.2-1.2-0.5-1.6c-0.4-0.4-0.8-0.5-1.5-0.5c-0.5,0-1,0.1-1.4,0.4s-0.6,0.6-0.7,1.1h-1.4
			c0.1-0.6,0.2-1.1,0.6-1.5c0.3-0.4,0.8-0.7,1.3-0.9c0.5-0.2,1-0.3,1.6-0.3c1.1,0,1.9,0.3,2.5,0.9s0.8,1.4,0.8,2.4v4.9h-1l-0.1-1.4
			c-0.2,0.4-0.6,0.8-1,1.1C95.1,148.9,94.5,149,93.8,149z M94,147.9c0.5,0,0.9-0.1,1.3-0.4s0.7-0.6,0.8-1c0.2-0.4,0.3-0.9,0.3-1.3
			l0,0h-2c-0.8,0-1.3,0.1-1.7,0.4c-0.3,0.3-0.5,0.6-0.5,1s0.1,0.8,0.5,1C93,147.8,93.5,147.9,94,147.9z"/>
		<path class="st2" d="M99.8,148.8v-7.9h1.2l0.1,1.5c0.2-0.5,0.6-0.9,1.1-1.2s1.1-0.5,1.9-0.5v1.4h-0.4c-0.5,0-0.9,0.1-1.3,0.2
			c-0.4,0.2-0.7,0.5-0.9,0.8c-0.2,0.4-0.3,0.9-0.3,1.6v4h-1.4V148.8z"/>
		<path class="st2" d="M108.9,149c-0.8,0-1.4-0.2-2-0.5c-0.6-0.4-1-0.8-1.4-1.5c-0.3-0.6-0.5-1.4-0.5-2.2c0-0.8,0.2-1.6,0.5-2.2
			s0.8-1.1,1.4-1.5s1.3-0.5,2.1-0.5c0.8,0,1.4,0.2,2,0.5s1,0.8,1.3,1.4s0.4,1.2,0.4,1.8c0,0.1,0,0.2,0,0.4c0,0.1,0,0.2,0,0.4h-6.3
			c0,0.6,0.2,1.1,0.4,1.5c0.2,0.4,0.6,0.7,0.9,0.9c0.4,0.2,0.8,0.3,1.2,0.3c0.6,0,1-0.1,1.4-0.4c0.4-0.2,0.7-0.6,0.8-1h1.3
			c-0.2,0.7-0.6,1.4-1.2,1.8C110.6,148.8,109.8,149,108.9,149z M108.9,141.8c-0.6,0-1.2,0.2-1.7,0.6s-0.8,1-0.9,1.7h5
			c0-0.7-0.3-1.3-0.7-1.7C110.1,142,109.6,141.8,108.9,141.8z"/>
		<path class="st2" d="M121.7,149c-0.9,0-1.7-0.2-2.4-0.7c-0.6-0.5-1-1.1-1.1-1.9h1.4c0.1,0.4,0.3,0.8,0.7,1.1
			c0.3,0.3,0.8,0.5,1.4,0.5c0.6,0,1-0.1,1.2-0.4s0.4-0.5,0.4-0.9c0-0.5-0.2-0.8-0.5-1c-0.4-0.2-0.8-0.3-1.5-0.4
			c-0.4-0.1-0.8-0.2-1.3-0.4c-0.4-0.2-0.8-0.4-1.1-0.7c-0.3-0.3-0.4-0.7-0.4-1.2c0-0.7,0.3-1.3,0.8-1.7s1.2-0.7,2.1-0.7
			c0.8,0,1.5,0.2,2.1,0.6c0.5,0.4,0.9,1,0.9,1.8h-1.3c-0.1-0.4-0.2-0.7-0.5-0.9c-0.3-0.2-0.7-0.3-1.2-0.3s-0.9,0.1-1.1,0.3
			s-0.4,0.5-0.4,0.8s0.2,0.6,0.5,0.8c0.3,0.2,0.8,0.3,1.4,0.5c0.5,0.1,1,0.2,1.4,0.4s0.8,0.4,1.1,0.7c0.3,0.3,0.4,0.7,0.4,1.3
			c0,0.7-0.3,1.3-0.8,1.8C123.4,148.8,122.7,149,121.7,149z"/>
		<path class="st2" d="M126.7,148.8v-11.5h1.3v11.5H126.7z"/>
		<path class="st2" d="M133.8,149c-0.8,0-1.4-0.2-2-0.5c-0.6-0.4-1-0.8-1.4-1.5c-0.3-0.6-0.5-1.4-0.5-2.2c0-0.8,0.2-1.6,0.5-2.2
			s0.8-1.1,1.4-1.5c0.6-0.4,1.3-0.5,2.1-0.5s1.4,0.2,2,0.5s1,0.8,1.3,1.4s0.4,1.2,0.4,1.8c0,0.1,0,0.2,0,0.4c0,0.1,0,0.2,0,0.4h-6.3
			c0,0.6,0.2,1.1,0.4,1.5s0.6,0.7,0.9,0.9c0.4,0.2,0.8,0.3,1.2,0.3c0.6,0,1-0.1,1.4-0.4s0.7-0.6,0.8-1h1.3c-0.2,0.7-0.6,1.4-1.2,1.8
			C135.5,148.8,134.7,149,133.8,149z M133.8,141.8c-0.6,0-1.2,0.2-1.7,0.6s-0.8,1-0.9,1.7h5c0-0.7-0.3-1.3-0.7-1.7
			C135,142,134.5,141.8,133.8,141.8z"/>
		<path class="st2" d="M142.9,149c-0.8,0-1.4-0.2-2-0.5s-1.1-0.8-1.4-1.5c-0.3-0.6-0.5-1.4-0.5-2.2c0-0.8,0.2-1.6,0.5-2.2
			s0.8-1.1,1.4-1.5s1.3-0.5,2.1-0.5s1.4,0.2,2,0.5s1,0.8,1.3,1.4s0.5,1.2,0.5,1.8c0,0.1,0,0.2,0,0.4c0,0.1,0,0.2,0,0.4h-6.3
			c0,0.6,0.2,1.1,0.4,1.5s0.6,0.7,0.9,0.9c0.4,0.2,0.8,0.3,1.2,0.3c0.6,0,1-0.1,1.4-0.4s0.6-0.6,0.8-1h1.3c-0.2,0.7-0.6,1.4-1.2,1.8
			C144.6,148.8,143.8,149,142.9,149z M142.9,141.8c-0.6,0-1.2,0.2-1.7,0.6s-0.8,1-0.9,1.7h5c0-0.7-0.3-1.3-0.7-1.7
			C144.1,142,143.6,141.8,142.9,141.8z"/>
		<path class="st2" d="M148.4,152.4v-11.5h1.2l0.1,1.3c0.3-0.4,0.6-0.7,1.1-1s1.1-0.5,1.8-0.5c0.8,0,1.5,0.2,2.1,0.5
			c0.6,0.4,1,0.9,1.4,1.5c0.3,0.6,0.5,1.3,0.5,2.1s-0.2,1.5-0.5,2.1s-0.8,1.1-1.4,1.5c-0.6,0.4-1.3,0.5-2.1,0.5
			c-0.6,0-1.2-0.1-1.7-0.4s-0.9-0.6-1.2-1.1v4.9h-1.3V152.4z M152.5,147.9c0.5,0,1-0.1,1.4-0.4c0.4-0.2,0.7-0.6,1-1.1
			c0.2-0.4,0.4-1,0.4-1.6s-0.1-1.1-0.4-1.6c-0.2-0.5-0.6-0.8-1-1s-0.9-0.4-1.4-0.4s-1,0.1-1.4,0.4s-0.7,0.6-1,1
			c-0.2,0.5-0.4,1-0.4,1.6s0.1,1.1,0.4,1.6c0.2,0.5,0.5,0.8,1,1.1C151.5,147.7,152,147.9,152.5,147.9z"/>
		<path class="st2" d="M158.7,152.4l2-4.3h-0.5l-3.1-7.2h1.5l2.6,6.2l2.8-6.2h1.4l-5.2,11.5H158.7z"/>
		<path class="st2" d="M173.6,149c-0.7,0-1.2-0.1-1.7-0.3s-0.8-0.5-1-0.9s-0.3-0.8-0.3-1.2c0-0.8,0.3-1.4,0.9-1.9s1.5-0.7,2.5-0.7
			h2.1v-0.1c0-0.7-0.2-1.2-0.5-1.6c-0.4-0.4-0.9-0.5-1.5-0.5c-0.5,0-1,0.1-1.3,0.4c-0.4,0.3-0.6,0.6-0.7,1.1h-1.4
			c0.1-0.6,0.2-1.1,0.6-1.5c0.3-0.4,0.8-0.7,1.3-0.9c0.5-0.2,1-0.3,1.6-0.3c1.1,0,1.9,0.3,2.5,0.9s0.8,1.4,0.8,2.4v4.9h-1.2
			l-0.1-1.4c-0.2,0.4-0.6,0.8-1,1.1C174.9,148.9,174.3,149,173.6,149z M173.8,147.9c0.5,0,0.9-0.1,1.3-0.4c0.4-0.3,0.6-0.6,0.8-1
			s0.3-0.9,0.3-1.3l0,0h-2c-0.8,0-1.3,0.1-1.7,0.4c-0.3,0.3-0.5,0.6-0.5,1s0.1,0.8,0.5,1C172.8,147.8,173.3,147.9,173.8,147.9z"/>
		<path class="st2" d="M182.8,146.3c-0.4,0-0.9-0.1-1.2-0.2l-0.8,0.8c0.1,0.1,0.3,0.2,0.4,0.2c0.2,0.1,0.4,0.1,0.8,0.2
			c0.3,0,0.8,0.1,1.4,0.1c1.1,0.1,1.8,0.3,2.3,0.7c0.5,0.4,0.7,1,0.7,1.6c0,0.5-0.1,0.9-0.4,1.3c-0.2,0.4-0.6,0.8-1.1,1
			c-0.5,0.3-1.2,0.4-2,0.4c-0.7,0-1.3-0.1-1.9-0.3s-1-0.5-1.3-0.9s-0.5-0.9-0.5-1.4c0-0.3,0.1-0.6,0.2-1s0.5-0.7,0.9-1
			c-0.2-0.1-0.4-0.2-0.6-0.3c-0.2-0.1-0.3-0.2-0.5-0.4v-0.4l1.4-1.3c-0.6-0.5-0.9-1.2-0.9-2.1c0-0.5,0.1-1,0.4-1.4
			c0.2-0.4,0.6-0.8,1.1-1s1-0.4,1.7-0.4c0.5,0,0.9,0.1,1.2,0.2h2.9v1l-1.5,0.1c0.3,0.5,0.5,1,0.5,1.6c0,0.5-0.1,1-0.4,1.4
			c-0.2,0.4-0.6,0.8-1.1,1C184,146.2,183.4,146.3,182.8,146.3z M180.4,149.9c0,0.5,0.2,0.9,0.7,1.2c0.5,0.3,1,0.4,1.7,0.4
			s1.2-0.1,1.6-0.4s0.6-0.7,0.6-1.1c0-0.3-0.1-0.6-0.4-0.9c-0.3-0.2-0.8-0.4-1.5-0.4c-0.6,0-1.1-0.1-1.5-0.2
			c-0.4,0.2-0.7,0.5-0.9,0.8C180.5,149.4,180.4,149.6,180.4,149.9z M182.8,145.2c0.6,0,1-0.2,1.4-0.4c0.3-0.3,0.5-0.7,0.5-1.3
			c0-0.5-0.2-1-0.5-1.3s-0.8-0.4-1.4-0.4c-0.6,0-1,0.1-1.4,0.4c-0.3,0.3-0.5,0.7-0.5,1.3c0,0.6,0.2,1,0.5,1.3
			S182.2,145.2,182.8,145.2z"/>
		<path class="st2" d="M191.1,149c-0.7,0-1.2-0.1-1.6-0.3s-0.8-0.5-1-0.9s-0.3-0.8-0.3-1.2c0-0.8,0.3-1.4,0.9-1.9
			c0.6-0.4,1.5-0.7,2.5-0.7h2.1v-0.1c0-0.7-0.2-1.2-0.5-1.6c-0.4-0.4-0.8-0.5-1.5-0.5c-0.5,0-1,0.1-1.4,0.4s-0.6,0.6-0.7,1.1h-1.4
			c0.1-0.6,0.2-1.1,0.6-1.5c0.3-0.4,0.8-0.7,1.3-0.9c0.5-0.2,1-0.3,1.6-0.3c1.1,0,1.9,0.3,2.5,0.9s0.8,1.4,0.8,2.4v4.9h-1.2
			l-0.1-1.4c-0.2,0.4-0.6,0.8-1,1.1C192.4,148.8,191.8,149,191.1,149z M191.3,147.9c0.5,0,0.9-0.1,1.3-0.4c0.4-0.3,0.7-0.6,0.8-1
			s0.3-0.9,0.3-1.3l0,0h-2c-0.8,0-1.4,0.1-1.7,0.4s-0.5,0.6-0.5,1s0.2,0.8,0.5,1C190.3,147.8,190.8,147.9,191.3,147.9z"/>
		<path class="st2" d="M197.9,139.1c-0.3,0-0.5-0.1-0.7-0.3c-0.2-0.2-0.3-0.4-0.3-0.7s0.1-0.5,0.3-0.6c0.2-0.2,0.4-0.3,0.7-0.3
			s0.5,0.1,0.7,0.3c0.2,0.2,0.3,0.4,0.3,0.6c0,0.3-0.1,0.5-0.3,0.7S198.2,139.1,197.9,139.1z M197.3,148.8v-7.9h1.3v7.9H197.3z"/>
		<path class="st2" d="M200.9,148.8v-7.9h1.2l0.1,1.4c0.3-0.5,0.6-0.9,1.1-1.2c0.5-0.3,1-0.4,1.6-0.4c0.9,0,1.7,0.3,2.2,0.9
			s0.8,1.5,0.8,2.6v4.6h-1.3v-4.5c0-1.6-0.7-2.5-2.1-2.5c-0.7,0-1.2,0.2-1.7,0.7c-0.4,0.5-0.7,1.2-0.7,2.1v4.1L200.9,148.8
			L200.9,148.8z"/>
		<path class="st2" d="M210.6,148.9c-0.3,0-0.5-0.1-0.7-0.3c-0.2-0.2-0.3-0.4-0.3-0.6s0.1-0.5,0.3-0.6c0.2-0.2,0.4-0.3,0.7-0.3
			s0.5,0.1,0.6,0.3c0.2,0.2,0.3,0.4,0.3,0.6s-0.1,0.5-0.3,0.6C211,148.8,210.8,148.9,210.6,148.9z"/>
		<path class="st3" d="M122,80.1h19.9c-3.2-11.2-13.4-20.1-19.5-24.4C123.1,61.2,122.6,71.8,122,80.1z"/>
		<path class="st3" d="M46.6,80.1c0.3-8.1,1-18.1,2.2-23.3c-6.7,3.7-18.5,11.9-22.6,23.3H46.6z"/>
		<path class="st4" d="M138.5,38c0,0-29.9,17.5-49.3-2.7C89.1,35.3,118.9,15.6,138.5,38z"/>
		<path class="st5" d="M119.1,18.5c0,0-5.2,21.1-32.8,23.1C86.3,41.5,96.9,15.8,119.1,18.5z"/>
		<path class="st1" d="M131.5,80.1C130.3,31.5,82,28.4,62.3,37.6c-10.1,4.7-25.2,17.5-25.4,42.5H131.5z"/>
		<path d="M77.2,63c0-0.9,2.4-0.7,5.5-0.7c3,0,5.5-0.1,5.5,0.7s-2.4,1.5-5.5,1.5S77.2,63.8,77.2,63z"/>
		<path d="M73,56.5c-0.7,1-1-0.8-3.6-0.8s-2.7,1.2-3.6,0.8s1.5-2.4,3.6-2.4C71.5,54.2,73.6,55.6,73,56.5z"/>
		<path d="M92.3,56.5c0.6,1,1-0.8,3.6-0.8s2.7,1.2,3.6,0.8s-1.5-2.4-3.6-2.4S91.6,55.6,92.3,56.5z"/>
		<path class="st6" d="M43.7,48.1h-3c-0.6,0-1.1,0.5-1.1,1v5.2c0,0.6,0.5,1,1.1,1h3.1L43.7,48.1L43.7,48.1z"/>
		<path class="st6" d="M123.5,48.1h3.1c0.6,0,1.1,0.5,1.1,1v5.2c0,0.6-0.5,1-1.1,1h-3.1V48.1z"/>
		<path class="st6" d="M84.2,26.6C84.2,26.6,84.1,26.6,84.2,26.6c-0.1,0-0.2,0-0.2,0c-21.4,0-42.9,6.6-42.9,19.8v2.9h4.5
			c0.1,0-0.9,0-0.8,0v-2.9c0-11.8,20.2-16.6,39.3-16.6"/>
		<path class="st5" d="M75.3,19.7c0,0-1.8,6.2,3.9,10.9C79.2,30.6,80.4,28.2,75.3,19.7z"/>
		<path class="st7" d="M82.4,36c-2.5-3.4-4.9-12.9-19-12.2"/>
		<path class="st8" d="M64.1,23.3c0,0,6.2-7.2,6.9-3.2C71.6,24.1,64.3,26.2,64.1,23.3z"/>
		<path class="st8" d="M63.1,24.8c0,0,8.3-4.7,7.4-0.4C69.6,28.8,62.2,27.9,63.1,24.8z"/>
		<path class="st8" d="M62.8,25.3c0,0,0.4-9.4,3.9-7.6C70.2,19.5,65.1,26.8,62.8,25.3z"/>
		<path class="st8" d="M67.2,25.7c0,0-10.6,2.5-8.2-2C61.3,19.2,69.1,22.6,67.2,25.7z"/>
		<path class="st8" d="M63.7,24.2c0,0-6.9,2.4-4.2,5.1C62.2,32,65.8,25.9,63.7,24.2z"/>
		<path class="st8" d="M61.8,24.8c0,0,2.4,9.2,4.9,5.6C69.3,26.7,63.4,22.1,61.8,24.8z"/>
		<path class="st9" d="M65.6,26.2c1.6-1.6,2.1-3.6,1.1-4.6s-3-0.5-4.6,1c-1.6,1.6-2.1,3.6-1.1,4.6C61.9,28.2,64,27.7,65.6,26.2z"/>
		<path class="st6" d="M83.3,26.6c0.1,0,0.1,0,0.2,0c22.8,0.4,44.7,6.4,42.9,22.7c0.2,0-6.6,0-3.6,0c1.9-15.1-18.7-19.1-39.3-19.5"
			/>
		<path class="st9" d="M48.6,44.9c-2.3,0-2.6,0.7-4.4,1.9c-0.3,0.2-0.5,0.5-0.5,0.8l0.1,8.6c0.1,0.2,2.6,2.3,4.8,2.3
			c0.6,0,1.1-0.5,1.1-1V45.8C49.7,45.4,49.2,44.9,48.6,44.9z"/>
		<path class="st9" d="M118.7,44.8c2.3,0,2.6,0.7,4.5,1.9c0.3,0.2,0.5,0.5,0.5,0.8l-0.1,8.6c-0.1,0.2-2.5,2.3-4.8,2.3
			c-0.6,0-1.1-0.4-1.1-1V45.7C117.5,45.2,118,44.8,118.7,44.8z"/>
	</g>
</g>
</svg>
