<?xml version="1.0" encoding="utf-8"?>
<!-- Generator: Adobe Illustrator 25.1.0, SVG Export Plug-In . SVG Version: 6.00 Build 0)  -->
<svg version="1.1" id="Layer_1" xmlns="http://www.w3.org/2000/svg" xmlns:xlink="http://www.w3.org/1999/xlink" x="0px" y="0px"
	 viewBox="0 0 333.3 259.1" style="enable-background:new 0 0 333.3 259.1;" xml:space="preserve">
<style type="text/css">
	.st0{fill:#FFFFFF;}
	.st1{fill:#F4F1EF;}
	.st2{fill:#808080;}
	.st3{fill:#00CDDC;}
	.st4{fill-rule:evenodd;clip-rule:evenodd;fill:#3CDC82;}
	.st5{fill-rule:evenodd;clip-rule:evenodd;fill:#65E5DD;}
	.st6{fill-rule:evenodd;clip-rule:evenodd;fill:#00CDDC;}
	.st7{fill:#3CDC82;}
	.st8{fill:#65E5DD;}
</style>
<g>
	<g>
		<path class="st0" d="M333.3,194.8c0-170.7-5.4-178.6-68.1-191.6C238.9-2.3,131.9,0.8,96.7,1.5C62.2,2.2,15.3,16.7,9.3,42.9
			c-6,25.9-9.1,51-9.1,97.5c0,73.1-4.2,103.9,31.2,113.1c36,9.4,164.5,4.3,207.9,3.1C284.2,255.5,333.3,269.3,333.3,194.8z"/>
		<path class="st1" d="M250.6,134.4c0,0,74.5-38.7,45.1-90.6c-26.7-47-72.4-11-113.8-22.4c-81.7-22.5-142,7.1-151.1,50
			S41.4,188,178.2,117C211.8,99.6,244.7,124.1,250.6,134.4z"/>
		<path class="st2" d="M25.5,164.3v-11.2h3.4c2,0,3.4,0.5,4.4,1.5s1.4,2.4,1.4,4.1s-0.5,3.1-1.4,4.1s-2.4,1.5-4.4,1.5H25.5z
			 M26.9,163.2H29c1.1,0,2-0.2,2.6-0.5c0.6-0.4,1.1-0.9,1.4-1.5c0.3-0.7,0.4-1.5,0.4-2.4s-0.1-1.7-0.4-2.4c-0.3-0.7-0.7-1.2-1.4-1.6
			c-0.7-0.4-1.5-0.5-2.6-0.5h-2.1V163.2z"/>
		<path class="st2" d="M39.2,164.5c-0.7,0-1.2-0.1-1.7-0.3c-0.4-0.2-0.8-0.5-1-0.9s-0.3-0.8-0.3-1.2c0-0.8,0.3-1.4,0.9-1.9
			s1.5-0.7,2.5-0.7h2.1v-0.1c0-0.7-0.2-1.2-0.5-1.6s-0.9-0.5-1.5-0.5c-0.5,0-1,0.1-1.4,0.4s-0.6,0.6-0.7,1.1h-1.4
			c0-0.6,0.2-1.1,0.6-1.5c0.3-0.4,0.8-0.7,1.3-0.9c0.5-0.2,1-0.3,1.6-0.3c1.1,0,1.9,0.3,2.5,0.9s0.8,1.4,0.8,2.4v4.9h-1.2l-0.1-1.4
			c-0.2,0.5-0.5,0.8-1,1.1C40.5,164.3,40,164.5,39.2,164.5z M39.4,163.4c0.5,0,1-0.1,1.3-0.4c0.4-0.3,0.7-0.6,0.8-1
			c0.2-0.4,0.3-0.9,0.3-1.3l0,0h-2c-0.8,0-1.4,0.1-1.7,0.4s-0.5,0.6-0.5,1s0.1,0.8,0.5,1C38.5,163.2,38.9,163.4,39.4,163.4z"/>
		<path class="st2" d="M45.2,164.3v-7.9h1.2l0.1,1.5c0.2-0.5,0.6-0.9,1.1-1.2s1.1-0.5,1.9-0.5v1.4h-0.4c-0.5,0-0.9,0.1-1.3,0.2
			c-0.4,0.2-0.7,0.5-0.9,0.8c-0.2,0.4-0.4,0.9-0.4,1.6v4h-1.3V164.3z"/>
		<path class="st2" d="M51.1,164.3v-11.5h1.3v6.9l3.2-3.3h1.7l-3.5,3.6l4,4.4h-1.7l-3.6-4.1v4.1h-1.4V164.3z"/>
		<path class="st2" d="M59.1,164.3v-7.9h1.2l0.1,1.4c0.3-0.5,0.6-0.9,1.1-1.2c0.5-0.3,1-0.4,1.6-0.4c0.9,0,1.7,0.3,2.2,0.9
			s0.8,1.5,0.8,2.6v4.6h-1.3v-4.5c0-1.7-0.7-2.5-2-2.5c-0.7,0-1.2,0.2-1.7,0.7c-0.4,0.5-0.7,1.2-0.7,2.1v4.1L59.1,164.3L59.1,164.3z
			"/>
		<path class="st2" d="M71.8,164.5c-0.8,0-1.4-0.2-2-0.5c-0.6-0.4-1-0.8-1.4-1.5c-0.3-0.6-0.5-1.3-0.5-2.2c0-0.8,0.2-1.6,0.5-2.2
			s0.8-1.1,1.4-1.5c0.6-0.3,1.3-0.5,2.1-0.5c0.8,0,1.4,0.2,2,0.5c0.6,0.4,1,0.8,1.3,1.4s0.4,1.2,0.4,1.8c0,0.1,0,0.2,0,0.4
			c0,0.1,0,0.2,0,0.4h-6.3c0,0.6,0.2,1.1,0.4,1.5c0.2,0.4,0.6,0.7,0.9,0.9c0.4,0.2,0.8,0.3,1.2,0.3c0.5,0,1-0.1,1.4-0.4
			s0.7-0.6,0.8-1h1.3c-0.2,0.7-0.6,1.3-1.2,1.8C73.5,164.2,72.8,164.5,71.8,164.5z M71.8,157.3c-0.6,0-1.2,0.2-1.7,0.6
			s-0.8,1-0.9,1.7h5c0-0.7-0.3-1.3-0.7-1.7C73.1,157.5,72.5,157.3,71.8,157.3z"/>
		<path class="st2" d="M80.4,164.5c-1,0-1.7-0.2-2.4-0.7s-1-1.1-1.1-2h1.4c0.1,0.4,0.3,0.8,0.7,1.1c0.4,0.3,0.8,0.5,1.4,0.5
			s1-0.1,1.2-0.4c0.3-0.2,0.4-0.5,0.4-0.9c0-0.5-0.2-0.8-0.5-1s-0.8-0.3-1.5-0.4c-0.4-0.1-0.8-0.2-1.3-0.4c-0.4-0.2-0.8-0.4-1.1-0.7
			c-0.3-0.3-0.4-0.7-0.4-1.2c0-0.7,0.3-1.3,0.8-1.7c0.5-0.4,1.2-0.7,2.1-0.7c0.8,0,1.5,0.2,2.1,0.6c0.5,0.4,0.8,1,0.9,1.8h-1.3
			c0-0.4-0.2-0.7-0.5-1c-0.3-0.2-0.7-0.3-1.2-0.3s-0.8,0.1-1.1,0.3c-0.3,0.2-0.4,0.5-0.4,0.8s0.2,0.6,0.5,0.8
			c0.3,0.2,0.8,0.3,1.4,0.5c0.5,0.1,1,0.2,1.4,0.4c0.4,0.2,0.8,0.4,1.1,0.7c0.3,0.3,0.4,0.7,0.4,1.3c0,0.7-0.3,1.3-0.8,1.8
			C82.1,164.3,81.3,164.5,80.4,164.5z"/>
		<path class="st2" d="M88.4,164.5c-1,0-1.7-0.2-2.4-0.7s-1-1.1-1.1-2h1.4c0.1,0.4,0.3,0.8,0.7,1.1c0.4,0.3,0.8,0.5,1.4,0.5
			s1-0.1,1.2-0.4c0.3-0.2,0.4-0.5,0.4-0.9c0-0.5-0.2-0.8-0.5-1s-0.8-0.3-1.5-0.4c-0.4-0.1-0.8-0.2-1.3-0.4c-0.4-0.2-0.8-0.4-1.1-0.7
			c-0.3-0.3-0.4-0.7-0.4-1.2c0-0.7,0.3-1.3,0.8-1.7c0.5-0.4,1.2-0.7,2.1-0.7c0.8,0,1.5,0.2,2.1,0.6c0.5,0.4,0.8,1,0.9,1.8h-1.3
			c0-0.4-0.2-0.7-0.5-1c-0.3-0.2-0.7-0.3-1.2-0.3s-0.8,0.1-1.1,0.3c-0.3,0.2-0.4,0.5-0.4,0.8s0.2,0.6,0.5,0.8
			c0.3,0.2,0.8,0.3,1.4,0.5c0.5,0.1,1,0.2,1.4,0.4c0.4,0.2,0.8,0.4,1.1,0.7c0.3,0.3,0.4,0.7,0.4,1.3c0,0.7-0.3,1.3-0.8,1.8
			C90.1,164.3,89.3,164.5,88.4,164.5z"/>
		<path class="st2" d="M100.7,164.3c-0.7,0-1.3-0.2-1.7-0.5c-0.4-0.3-0.6-1-0.6-1.9v-4.4H97v-1.1h1.4l0.2-1.9h1.2v1.9h2.3v1.1h-2.3
			v4.4c0,0.5,0.1,0.8,0.3,1c0.2,0.2,0.6,0.3,1.1,0.3h0.8v1.2h-1.3V164.3z"/>
		<path class="st2" d="M103.8,164.3v-7.9h1.2l0.1,1.5c0.2-0.5,0.6-0.9,1.1-1.2s1.1-0.5,1.9-0.5v1.4h-0.4c-0.5,0-0.9,0.1-1.3,0.2
			c-0.4,0.2-0.7,0.5-0.9,0.8c-0.2,0.4-0.3,0.9-0.3,1.6v4h-1.4V164.3z"/>
		<path class="st2" d="M110.4,154.6c-0.3,0-0.5-0.1-0.7-0.3c-0.2-0.2-0.3-0.4-0.3-0.7s0.1-0.5,0.3-0.6c0.2-0.2,0.4-0.3,0.7-0.3
			c0.3,0,0.5,0.1,0.7,0.3c0.2,0.2,0.3,0.4,0.3,0.6c0,0.3-0.1,0.5-0.3,0.7C110.9,154.5,110.7,154.6,110.4,154.6z M109.8,164.3v-7.9
			h1.3v7.9H109.8z"/>
		<path class="st2" d="M116.6,161.8c-0.4,0-0.9-0.1-1.2-0.2l-0.8,0.8c0.1,0.1,0.3,0.2,0.4,0.2c0.2,0.1,0.4,0.1,0.8,0.2
			s0.8,0.1,1.4,0.2c1.1,0.1,1.8,0.3,2.3,0.7c0.5,0.4,0.7,1,0.7,1.6c0,0.5-0.1,0.9-0.4,1.3c-0.2,0.4-0.6,0.8-1.2,1
			c-0.5,0.3-1.2,0.4-2,0.4c-0.7,0-1.4-0.1-1.9-0.3c-0.5-0.2-1-0.5-1.3-0.9s-0.5-0.9-0.5-1.4c0-0.3,0.1-0.6,0.2-1
			c0.2-0.4,0.5-0.7,0.9-1c-0.2-0.1-0.4-0.2-0.6-0.3c-0.2-0.1-0.3-0.2-0.5-0.4v-0.4l1.4-1.3c-0.6-0.5-0.9-1.2-0.9-2.1
			c0-0.5,0.1-1,0.4-1.4c0.2-0.4,0.6-0.8,1.1-1s1-0.4,1.7-0.4c0.5,0,0.9,0.1,1.2,0.2h2.9v1l-1.5,0.1c0.3,0.5,0.5,1,0.5,1.6
			c0,0.5-0.1,1-0.4,1.4c-0.2,0.4-0.6,0.8-1.1,1C117.8,161.7,117.2,161.8,116.6,161.8z M114.2,165.3c0,0.5,0.2,0.9,0.7,1.2
			s1,0.4,1.7,0.4s1.2-0.1,1.6-0.4s0.6-0.7,0.6-1.2c0-0.3-0.1-0.6-0.4-0.9s-0.8-0.4-1.5-0.4c-0.6,0-1.1-0.1-1.5-0.2
			c-0.4,0.2-0.7,0.5-0.9,0.8C114.3,164.9,114.2,165.1,114.2,165.3z M116.6,160.7c0.6,0,1-0.1,1.4-0.4c0.3-0.3,0.5-0.7,0.5-1.3
			c0-0.5-0.2-1-0.5-1.3s-0.8-0.4-1.4-0.4s-1,0.1-1.4,0.4c-0.3,0.3-0.5,0.7-0.5,1.3c0,0.5,0.2,1,0.5,1.3
			C115.5,160.5,116,160.7,116.6,160.7z"/>
		<path class="st2" d="M125.4,161.8c-0.4,0-0.9-0.1-1.2-0.2l-0.8,0.8c0.1,0.1,0.3,0.2,0.4,0.2c0.2,0.1,0.4,0.1,0.8,0.2
			s0.8,0.1,1.4,0.2c1.1,0.1,1.8,0.3,2.3,0.7c0.5,0.4,0.7,1,0.7,1.6c0,0.5-0.1,0.9-0.4,1.3c-0.2,0.4-0.6,0.8-1.2,1
			c-0.5,0.3-1.2,0.4-2,0.4c-0.7,0-1.4-0.1-1.9-0.3s-1-0.5-1.3-0.9s-0.5-0.9-0.5-1.4c0-0.3,0.1-0.6,0.2-1c0.2-0.4,0.5-0.7,0.9-1
			c-0.2-0.1-0.4-0.2-0.6-0.3c-0.2-0.1-0.3-0.2-0.5-0.4v-0.4l1.4-1.3c-0.6-0.5-0.9-1.2-0.9-2.1c0-0.5,0.1-1,0.4-1.4
			c0.2-0.4,0.6-0.8,1.1-1s1-0.4,1.7-0.4c0.5,0,0.9,0.1,1.2,0.2h2.9v1l-1.5,0.1c0.3,0.5,0.5,1,0.5,1.6c0,0.5-0.1,1-0.4,1.4
			c-0.2,0.4-0.6,0.8-1.1,1C126.6,161.7,126.1,161.8,125.4,161.8z M123.1,165.3c0,0.5,0.2,0.9,0.7,1.2s1,0.4,1.7,0.4s1.2-0.1,1.6-0.4
			s0.6-0.7,0.6-1.2c0-0.3-0.1-0.6-0.4-0.9s-0.8-0.4-1.5-0.4c-0.6,0-1.1-0.1-1.5-0.2c-0.4,0.2-0.7,0.5-0.9,0.8
			C123.1,164.9,123.1,165.1,123.1,165.3z M125.4,160.7c0.6,0,1-0.1,1.4-0.4c0.3-0.3,0.5-0.7,0.5-1.3c0-0.5-0.2-1-0.5-1.3
			s-0.8-0.4-1.4-0.4s-1,0.1-1.4,0.4c-0.3,0.3-0.5,0.7-0.5,1.3c0,0.5,0.2,1,0.5,1.3C124.4,160.5,124.8,160.7,125.4,160.7z"/>
		<path class="st2" d="M134.3,164.5c-0.8,0-1.4-0.2-2-0.5c-0.6-0.4-1.1-0.8-1.4-1.5c-0.3-0.6-0.5-1.3-0.5-2.2c0-0.8,0.2-1.6,0.5-2.2
			s0.8-1.1,1.4-1.5c0.6-0.3,1.3-0.5,2.1-0.5s1.4,0.2,2,0.5c0.6,0.4,1,0.8,1.3,1.4s0.5,1.2,0.5,1.8c0,0.1,0,0.2,0,0.4
			c0,0.1,0,0.2,0,0.4h-6.4c0,0.6,0.2,1.1,0.4,1.5s0.6,0.7,0.9,0.9c0.4,0.2,0.8,0.3,1.2,0.3c0.6,0,1-0.1,1.4-0.4s0.6-0.6,0.8-1h1.3
			c-0.2,0.7-0.6,1.3-1.2,1.8C136.1,164.2,135.3,164.5,134.3,164.5z M134.3,157.3c-0.6,0-1.2,0.2-1.7,0.6s-0.8,1-0.9,1.7h5
			c0-0.7-0.3-1.3-0.7-1.7C135.6,157.5,135,157.3,134.3,157.3z"/>
		<path class="st2" d="M139.9,164.3v-7.9h1.2l0.1,1.5c0.2-0.5,0.6-0.9,1.1-1.2s1.1-0.5,1.9-0.5v1.4h-0.4c-0.5,0-0.9,0.1-1.3,0.2
			c-0.4,0.2-0.7,0.5-0.9,0.8c-0.2,0.4-0.3,0.9-0.3,1.6v4h-1.4V164.3z"/>
		<path class="st2" d="M148.7,164.5c-0.9,0-1.7-0.2-2.4-0.7c-0.6-0.5-1-1.1-1.1-2h1.4c0.1,0.4,0.3,0.8,0.7,1.1
			c0.4,0.3,0.8,0.5,1.5,0.5c0.6,0,1-0.1,1.2-0.4c0.3-0.2,0.4-0.5,0.4-0.9c0-0.5-0.2-0.8-0.5-1s-0.8-0.3-1.5-0.4
			c-0.4-0.1-0.9-0.2-1.3-0.4c-0.4-0.2-0.8-0.4-1.1-0.7c-0.3-0.3-0.4-0.7-0.4-1.2c0-0.7,0.3-1.3,0.8-1.7c0.5-0.4,1.2-0.7,2.1-0.7
			c0.8,0,1.5,0.2,2.1,0.6c0.5,0.4,0.8,1,0.9,1.8h-1.3c-0.1-0.4-0.2-0.7-0.5-1c-0.3-0.2-0.7-0.3-1.2-0.3s-0.9,0.1-1.1,0.3
			c-0.3,0.2-0.4,0.5-0.4,0.8s0.2,0.6,0.5,0.8c0.3,0.2,0.8,0.3,1.4,0.5c0.5,0.1,1,0.2,1.4,0.4s0.8,0.4,1.1,0.7
			c0.3,0.3,0.4,0.7,0.4,1.3c0,0.7-0.3,1.3-0.8,1.8C150.4,164.3,149.7,164.5,148.7,164.5z"/>
		<path class="st2" d="M25.5,222.6v-7.9h1.2l0.1,1.5c0.2-0.5,0.6-0.9,1.1-1.2s1.1-0.5,1.9-0.5v1.4h-0.4c-0.5,0-0.9,0.1-1.3,0.2
			c-0.4,0.2-0.7,0.5-0.9,0.8c-0.2,0.4-0.4,0.9-0.4,1.6v4h-1.3V222.6z"/>
		<path class="st2" d="M34.5,222.7c-0.8,0-1.4-0.2-2-0.5c-0.6-0.4-1.1-0.8-1.4-1.5c-0.3-0.6-0.5-1.4-0.5-2.2s0.2-1.6,0.5-2.2
			c0.3-0.6,0.8-1.1,1.4-1.5c0.6-0.3,1.3-0.5,2.1-0.5s1.4,0.2,2,0.5c0.6,0.4,1,0.8,1.3,1.4s0.5,1.2,0.5,1.8c0,0.1,0,0.2,0,0.4
			c0,0.1,0,0.2,0,0.4h-6.3c0,0.6,0.2,1.1,0.4,1.5s0.6,0.7,0.9,0.9c0.4,0.2,0.8,0.3,1.2,0.3c0.5,0,1-0.1,1.4-0.4
			c0.4-0.2,0.7-0.6,0.8-1h1.3c-0.2,0.7-0.6,1.4-1.2,1.8C36.2,222.5,35.5,222.7,34.5,222.7z M34.5,215.6c-0.6,0-1.2,0.2-1.7,0.6
			c-0.5,0.4-0.8,1-0.9,1.7h5c0-0.7-0.3-1.3-0.7-1.7C35.8,215.8,35.2,215.6,34.5,215.6z"/>
		<path class="st2" d="M40.1,222.6v-11.5h1.3v11.5H40.1z"/>
		<path class="st2" d="M47.2,222.7c-0.8,0-1.4-0.2-2-0.5c-0.6-0.4-1.1-0.8-1.4-1.5c-0.3-0.6-0.5-1.4-0.5-2.2s0.2-1.6,0.5-2.2
			c0.3-0.6,0.8-1.1,1.4-1.5c0.6-0.3,1.3-0.5,2.1-0.5s1.4,0.2,2,0.5c0.6,0.4,1,0.8,1.3,1.4c0.3,0.6,0.5,1.2,0.5,1.8
			c0,0.1,0,0.2,0,0.4c0,0.1,0,0.2,0,0.4h-6.3c0,0.6,0.2,1.1,0.4,1.5s0.6,0.7,0.9,0.9c0.4,0.2,0.8,0.3,1.2,0.3c0.6,0,1-0.1,1.4-0.4
			c0.4-0.3,0.7-0.6,0.8-1h1.3c-0.2,0.7-0.6,1.4-1.2,1.8C48.9,222.5,48.1,222.7,47.2,222.7z M47.2,215.6c-0.6,0-1.2,0.2-1.7,0.6
			c-0.5,0.4-0.8,1-0.9,1.7h5c0-0.7-0.3-1.3-0.7-1.7C48.4,215.8,47.9,215.6,47.2,215.6z"/>
		<path class="st2" d="M55.4,222.7c-0.7,0-1.2-0.1-1.6-0.3c-0.4-0.2-0.8-0.5-1-0.9s-0.3-0.8-0.3-1.2c0-0.8,0.3-1.4,0.9-1.9
			s1.5-0.7,2.5-0.7H58v-0.1c0-0.7-0.2-1.2-0.5-1.6s-0.8-0.5-1.5-0.5c-0.5,0-1,0.1-1.3,0.4c-0.4,0.3-0.6,0.6-0.7,1.1h-1.4
			c0.1-0.6,0.2-1.1,0.6-1.5c0.3-0.4,0.8-0.7,1.3-0.9s1-0.3,1.6-0.3c1.1,0,1.9,0.3,2.5,0.9c0.6,0.6,0.8,1.4,0.8,2.4v4.9h-1.2
			l-0.1-1.4c-0.2,0.4-0.5,0.8-1,1.1C56.7,222.6,56.1,222.7,55.4,222.7z M55.6,221.6c0.5,0,1-0.1,1.3-0.4c0.4-0.3,0.7-0.6,0.8-1
			s0.3-0.9,0.3-1.3l0,0h-2c-0.8,0-1.4,0.1-1.7,0.4s-0.5,0.6-0.5,1s0.2,0.8,0.5,1C54.6,221.5,55,221.6,55.6,221.6z"/>
		<path class="st2" d="M64.4,222.7c-1,0-1.7-0.2-2.4-0.7s-1-1.1-1.1-2h1.4c0.1,0.4,0.3,0.8,0.7,1.1c0.3,0.3,0.8,0.5,1.4,0.5
			c0.6,0,1-0.1,1.2-0.4s0.4-0.5,0.4-0.9c0-0.5-0.2-0.8-0.5-1s-0.8-0.3-1.5-0.4c-0.4-0.1-0.8-0.2-1.3-0.4c-0.4-0.2-0.8-0.4-1.1-0.7
			s-0.4-0.7-0.4-1.2c0-0.7,0.3-1.3,0.8-1.7c0.5-0.4,1.2-0.7,2.1-0.7c0.8,0,1.5,0.2,2.1,0.6c0.5,0.4,0.9,1,0.9,1.8h-1.3
			c0-0.4-0.2-0.7-0.5-0.9s-0.7-0.3-1.2-0.3c-0.5,0-0.8,0.1-1.1,0.3s-0.4,0.5-0.4,0.8s0.2,0.6,0.5,0.8s0.8,0.3,1.4,0.5
			c0.5,0.1,1,0.2,1.4,0.4c0.4,0.1,0.8,0.4,1.1,0.7c0.3,0.3,0.4,0.7,0.4,1.3c0,0.7-0.3,1.3-0.8,1.8C66.1,222.5,65.3,222.7,64.4,222.7
			z"/>
		<path class="st2" d="M72.9,222.7c-0.8,0-1.4-0.2-2-0.5c-0.6-0.4-1.1-0.8-1.4-1.5c-0.3-0.6-0.5-1.4-0.5-2.2s0.2-1.6,0.5-2.2
			c0.3-0.6,0.8-1.1,1.4-1.5c0.6-0.3,1.3-0.5,2.1-0.5c0.8,0,1.4,0.2,2,0.5c0.6,0.4,1,0.8,1.3,1.4c0.3,0.6,0.5,1.2,0.5,1.8
			c0,0.1,0,0.2,0,0.4c0,0.1,0,0.2,0,0.4h-6.3c0,0.6,0.2,1.1,0.4,1.5s0.6,0.7,0.9,0.9c0.4,0.2,0.8,0.3,1.2,0.3c0.6,0,1-0.1,1.4-0.4
			c0.4-0.3,0.7-0.6,0.8-1h1.3c-0.2,0.7-0.6,1.4-1.2,1.8C74.6,222.5,73.9,222.7,72.9,222.7z M72.9,215.6c-0.6,0-1.2,0.2-1.7,0.6
			c-0.5,0.4-0.8,1-0.9,1.7h5c0-0.7-0.3-1.3-0.7-1.7C74.2,215.8,73.6,215.6,72.9,215.6z"/>
		<path class="st2" d="M78.9,222.6c-0.3,0-0.5-0.1-0.7-0.3s-0.3-0.4-0.3-0.6s0.1-0.5,0.3-0.7c0.2-0.2,0.4-0.3,0.7-0.3
			s0.5,0.1,0.7,0.3s0.3,0.4,0.3,0.7s-0.1,0.5-0.3,0.6S79.2,222.6,78.9,222.6z"/>
		<path class="st2" d="M85.9,222.6v-11.2h1.6l4,7.8l4-7.8h1.6v11.2h-1.3v-8.8l-3.7,7.2h-1l-3.7-7.2v8.8H85.9z"/>
		<path class="st2" d="M103,222.7c-0.8,0-1.4-0.2-2-0.5c-0.6-0.4-1.1-0.8-1.4-1.5c-0.3-0.6-0.5-1.4-0.5-2.2s0.2-1.6,0.5-2.2
			c0.3-0.6,0.8-1.1,1.4-1.5c0.6-0.3,1.3-0.5,2.1-0.5c0.8,0,1.4,0.2,2,0.5c0.6,0.4,1,0.8,1.3,1.4c0.3,0.6,0.4,1.2,0.4,1.8
			c0,0.1,0,0.2,0,0.4c0,0.1,0,0.2,0,0.4h-6.3c0,0.6,0.2,1.1,0.4,1.5s0.6,0.7,0.9,0.9c0.4,0.2,0.8,0.3,1.2,0.3c0.5,0,1-0.1,1.4-0.4
			c0.4-0.3,0.6-0.6,0.8-1h1.3c-0.2,0.7-0.6,1.4-1.2,1.8C104.7,222.5,103.9,222.7,103,222.7z M103,215.6c-0.6,0-1.2,0.2-1.7,0.6
			s-0.8,1-0.9,1.7h5c0-0.7-0.3-1.3-0.7-1.7C104.2,215.8,103.6,215.6,103,215.6z"/>
		<path class="st2" d="M108.5,222.6v-11.5h1.3v11.5H108.5z"/>
		<path class="st2" d="M114.7,222.7c-0.7,0-1.2-0.1-1.6-0.3s-0.8-0.5-1-0.9s-0.3-0.8-0.3-1.2c0-0.8,0.3-1.4,0.9-1.9
			c0.6-0.4,1.5-0.7,2.5-0.7h2.1v-0.1c0-0.7-0.2-1.2-0.5-1.6s-0.9-0.5-1.5-0.5c-0.5,0-1,0.1-1.3,0.4c-0.4,0.3-0.6,0.6-0.7,1.1h-1.4
			c0-0.6,0.2-1.1,0.6-1.5c0.3-0.4,0.8-0.7,1.3-0.9c0.5-0.2,1-0.3,1.6-0.3c1.1,0,1.9,0.3,2.5,0.9c0.6,0.6,0.8,1.4,0.8,2.4v4.9h-1.2
			l-0.1-1.4c-0.2,0.4-0.6,0.8-1,1.1C116,222.6,115.4,222.7,114.7,222.7z M114.9,221.6c0.5,0,0.9-0.1,1.3-0.4c0.4-0.3,0.6-0.6,0.8-1
			s0.3-0.9,0.3-1.3l0,0h-2c-0.8,0-1.3,0.1-1.7,0.4c-0.3,0.3-0.5,0.6-0.5,1s0.1,0.8,0.5,1C113.9,221.5,114.3,221.6,114.9,221.6z"/>
		<path class="st2" d="M123.6,222.6c-0.7,0-1.3-0.2-1.7-0.5c-0.4-0.4-0.6-1-0.6-1.9v-4.4h-1.4v-1.1h1.4l0.2-1.9h1.2v1.9h2.3v1.1
			h-2.3v4.4c0,0.5,0.1,0.8,0.3,1c0.2,0.2,0.6,0.3,1.1,0.3h0.8v1.1L123.6,222.6L123.6,222.6z"/>
		<path class="st2" d="M130.1,222.7c-0.8,0-1.4-0.2-2-0.5c-0.6-0.3-1.1-0.8-1.4-1.5c-0.4-0.6-0.5-1.4-0.5-2.2s0.2-1.6,0.5-2.2
			c0.3-0.6,0.8-1.1,1.4-1.5c0.6-0.3,1.3-0.5,2-0.5s1.4,0.2,2,0.5s1.1,0.8,1.4,1.5c0.4,0.6,0.5,1.4,0.5,2.2s-0.2,1.6-0.5,2.2
			c-0.4,0.6-0.8,1.1-1.4,1.5C131.5,222.6,130.8,222.7,130.1,222.7z M130.1,221.6c0.5,0,0.9-0.1,1.3-0.3c0.4-0.2,0.7-0.6,1-1
			c0.2-0.4,0.4-1,0.4-1.7s-0.1-1.2-0.4-1.7c-0.2-0.4-0.6-0.8-0.9-1c-0.4-0.2-0.8-0.3-1.3-0.3s-0.9,0.1-1.3,0.3c-0.4,0.2-0.7,0.6-1,1
			c-0.3,0.5-0.4,1-0.4,1.7s0.1,1.2,0.4,1.7c0.2,0.5,0.6,0.8,0.9,1C129.2,221.5,129.6,221.6,130.1,221.6z"/>
		<path class="st2" d="M135.9,222.6v-7.9h1.2l0.1,1.4c0.3-0.5,0.6-0.9,1.1-1.2s1-0.4,1.6-0.4c0.9,0,1.7,0.3,2.2,0.9
			c0.6,0.6,0.8,1.5,0.8,2.6v4.6h-1.3v-4.5c0-1.6-0.7-2.5-2-2.5c-0.7,0-1.2,0.2-1.7,0.7c-0.4,0.5-0.7,1.2-0.7,2.1v4.1L135.9,222.6
			L135.9,222.6z"/>
		<path class="st2" d="M145.9,212.9c-0.3,0-0.5-0.1-0.7-0.3c-0.2-0.2-0.3-0.4-0.3-0.7s0.1-0.5,0.3-0.6c0.2-0.2,0.4-0.3,0.7-0.3
			s0.5,0.1,0.7,0.3c0.2,0.2,0.3,0.4,0.3,0.6c0,0.3-0.1,0.5-0.3,0.7C146.4,212.8,146.1,212.9,145.9,212.9z M145.2,222.6v-7.9h1.3v7.9
			H145.2z"/>
		<path class="st2" d="M148.9,222.6v-7.9h1.2l0.1,1.4c0.3-0.5,0.6-0.9,1.1-1.2s1-0.4,1.6-0.4c0.9,0,1.7,0.3,2.2,0.9
			c0.5,0.6,0.8,1.5,0.8,2.6v4.6h-1.3v-4.5c0-1.6-0.7-2.5-2-2.5c-0.7,0-1.2,0.2-1.7,0.7c-0.4,0.5-0.7,1.2-0.7,2.1v4.1L148.9,222.6
			L148.9,222.6z"/>
		<path class="st2" d="M163.1,212.9c-0.3,0-0.5-0.1-0.7-0.3c-0.2-0.2-0.3-0.4-0.3-0.7s0.1-0.5,0.3-0.6c0.2-0.2,0.4-0.3,0.7-0.3
			s0.5,0.1,0.7,0.3c0.2,0.2,0.3,0.4,0.3,0.6c0,0.3-0.1,0.5-0.3,0.7C163.6,212.8,163.4,212.9,163.1,212.9z M162.4,222.6v-7.9h1.3v7.9
			H162.4z"/>
		<path class="st2" d="M169.1,222.7c-1,0-1.7-0.2-2.4-0.7c-0.6-0.5-1-1.1-1.1-2h1.4c0.1,0.4,0.3,0.8,0.7,1.1s0.8,0.5,1.4,0.5
			c0.6,0,1-0.1,1.2-0.4c0.3-0.2,0.4-0.5,0.4-0.9c0-0.5-0.2-0.8-0.5-1c-0.4-0.2-0.8-0.3-1.5-0.4c-0.4-0.1-0.8-0.2-1.3-0.4
			c-0.4-0.2-0.8-0.4-1.1-0.7s-0.4-0.7-0.4-1.2c0-0.7,0.3-1.3,0.8-1.7c0.5-0.4,1.2-0.7,2.1-0.7c0.8,0,1.5,0.2,2.1,0.6
			c0.5,0.4,0.8,1,0.9,1.8h-1.3c-0.1-0.4-0.2-0.7-0.5-0.9s-0.7-0.3-1.2-0.3s-0.8,0.1-1.1,0.3s-0.4,0.5-0.4,0.8s0.2,0.6,0.5,0.8
			s0.8,0.3,1.4,0.5c0.5,0.1,1,0.2,1.4,0.4c0.4,0.1,0.8,0.4,1.1,0.7s0.4,0.7,0.4,1.3c0,0.7-0.3,1.3-0.8,1.8
			C170.8,222.5,170.1,222.7,169.1,222.7z"/>
		<path class="st2" d="M181.5,222.6c-0.7,0-1.3-0.2-1.7-0.5c-0.4-0.4-0.6-1-0.6-1.9v-4.4h-1.4v-1.1h1.4l0.2-1.9h1.2v1.9h2.3v1.1
			h-2.3v4.4c0,0.5,0.1,0.8,0.3,1s0.6,0.3,1.1,0.3h0.8v1.1L181.5,222.6L181.5,222.6z"/>
		<path class="st2" d="M184.5,222.6v-11.5h1.3v4.9c0.3-0.5,0.6-0.9,1.1-1.1s1-0.4,1.6-0.4c0.9,0,1.6,0.3,2.2,0.9
			c0.6,0.6,0.8,1.5,0.8,2.6v4.6h-1.3v-4.5c0-1.6-0.7-2.5-2-2.5c-0.7,0-1.3,0.2-1.7,0.7c-0.5,0.5-0.7,1.2-0.7,2.1v4.1L184.5,222.6
			L184.5,222.6z"/>
		<path class="st2" d="M197.3,222.7c-0.8,0-1.4-0.2-2-0.5c-0.6-0.4-1.1-0.8-1.4-1.5c-0.3-0.6-0.5-1.4-0.5-2.2s0.2-1.6,0.5-2.2
			s0.8-1.1,1.4-1.5c0.6-0.3,1.3-0.5,2.1-0.5s1.4,0.2,2,0.5c0.6,0.4,1,0.8,1.3,1.4s0.4,1.2,0.4,1.8c0,0.1,0,0.2,0,0.4
			c0,0.1,0,0.2,0,0.4h-6.3c0,0.6,0.2,1.1,0.4,1.5s0.6,0.7,0.9,0.9c0.4,0.2,0.8,0.3,1.2,0.3c0.5,0,1-0.1,1.4-0.4
			c0.4-0.3,0.6-0.6,0.8-1h1.3c-0.2,0.7-0.6,1.4-1.2,1.8C199,222.5,198.2,222.7,197.3,222.7z M197.3,215.6c-0.6,0-1.2,0.2-1.7,0.6
			s-0.8,1-0.9,1.7h5c0-0.7-0.3-1.3-0.7-1.7C198.5,215.8,197.9,215.6,197.3,215.6z"/>
		<path class="st2" d="M207,222.6v-11.5h1.3v4.9c0.3-0.5,0.6-0.9,1.1-1.1s1-0.4,1.6-0.4c0.9,0,1.6,0.3,2.2,0.9
			c0.6,0.6,0.8,1.5,0.8,2.6v4.6h-1.2v-4.5c0-1.6-0.7-2.5-2-2.5c-0.7,0-1.3,0.2-1.7,0.7c-0.5,0.5-0.7,1.2-0.7,2.1v4.1L207,222.6
			L207,222.6z"/>
		<path class="st2" d="M219.8,222.7c-0.8,0-1.4-0.2-2-0.5s-1.1-0.8-1.4-1.5c-0.4-0.6-0.5-1.4-0.5-2.2s0.2-1.6,0.5-2.2
			c0.3-0.6,0.8-1.1,1.4-1.5c0.6-0.3,1.3-0.5,2-0.5c0.8,0,1.4,0.2,2,0.5s1.1,0.8,1.4,1.5c0.4,0.6,0.5,1.4,0.5,2.2s-0.2,1.6-0.5,2.2
			c-0.4,0.6-0.8,1.1-1.4,1.5C221.2,222.6,220.5,222.7,219.8,222.7z M219.8,221.6c0.5,0,0.9-0.1,1.3-0.3c0.4-0.2,0.7-0.6,1-1
			c0.2-0.4,0.4-1,0.4-1.7s-0.1-1.2-0.4-1.7c-0.2-0.4-0.6-0.8-0.9-1c-0.4-0.2-0.8-0.3-1.3-0.3s-0.9,0.1-1.3,0.3c-0.4,0.2-0.7,0.6-1,1
			c-0.2,0.5-0.4,1-0.4,1.7s0.1,1.2,0.4,1.7s0.6,0.8,0.9,1C218.9,221.5,219.4,221.6,219.8,221.6z"/>
		<path class="st2" d="M225.7,222.6v-7.9h1.2l0.1,1.5c0.2-0.5,0.6-0.9,1.1-1.2s1.1-0.5,1.9-0.5v1.4h-0.4c-0.5,0-0.9,0.1-1.3,0.2
			c-0.4,0.2-0.7,0.5-0.9,0.8c-0.2,0.4-0.3,0.9-0.3,1.6v4h-1.4V222.6z"/>
		<path class="st2" d="M231.5,222.6v-7.9h1.2l0.1,1.2c0.3-0.4,0.6-0.8,1-1s0.9-0.4,1.4-0.4c0.6,0,1.2,0.1,1.6,0.4
			c0.4,0.3,0.8,0.7,1,1.2c0.3-0.5,0.7-0.9,1.1-1.1c0.5-0.3,1-0.4,1.6-0.4c1,0,1.7,0.3,2.3,0.9c0.6,0.6,0.9,1.5,0.9,2.6v4.6h-1.3
			v-4.5c0-0.8-0.2-1.4-0.5-1.9c-0.3-0.4-0.8-0.6-1.4-0.6c-0.6,0-1.2,0.2-1.6,0.7c-0.4,0.5-0.6,1.2-0.6,2.1v4.1H237v-4.5
			c0-0.8-0.2-1.4-0.5-1.9c-0.3-0.4-0.8-0.6-1.4-0.6c-0.6,0-1.2,0.2-1.6,0.7c-0.4,0.5-0.6,1.2-0.6,2.1v4.1L231.5,222.6L231.5,222.6z"
			/>
		<path class="st2" d="M249.4,222.7c-0.8,0-1.4-0.2-2-0.5s-1.1-0.8-1.4-1.5c-0.4-0.6-0.5-1.4-0.5-2.2s0.2-1.6,0.5-2.2
			s0.8-1.1,1.4-1.5c0.6-0.3,1.3-0.5,2-0.5c0.8,0,1.4,0.2,2,0.5s1.1,0.8,1.4,1.5c0.4,0.6,0.5,1.4,0.5,2.2s-0.2,1.6-0.5,2.2
			s-0.8,1.1-1.4,1.5C250.8,222.6,250.1,222.7,249.4,222.7z M249.4,221.6c0.5,0,0.9-0.1,1.3-0.3c0.4-0.2,0.7-0.6,1-1
			c0.2-0.4,0.4-1,0.4-1.7s-0.1-1.2-0.4-1.7c-0.2-0.4-0.6-0.8-0.9-1c-0.4-0.2-0.8-0.3-1.3-0.3s-0.9,0.1-1.3,0.3c-0.4,0.2-0.7,0.6-1,1
			c-0.2,0.5-0.4,1-0.4,1.7s0.1,1.2,0.4,1.7s0.6,0.8,0.9,1C248.5,221.5,249,221.6,249.4,221.6z"/>
		<path class="st2" d="M255.3,222.6v-7.9h1.2l0.1,1.4c0.3-0.5,0.6-0.9,1.1-1.2s1-0.4,1.6-0.4c0.9,0,1.7,0.3,2.2,0.9
			c0.5,0.6,0.8,1.5,0.8,2.6v4.6H261v-4.5c0-1.6-0.7-2.5-2-2.5c-0.7,0-1.2,0.2-1.7,0.7c-0.4,0.5-0.7,1.2-0.7,2.1v4.1L255.3,222.6
			L255.3,222.6z"/>
		<path class="st2" d="M268,222.7c-0.8,0-1.4-0.2-2-0.5c-0.6-0.4-1.1-0.8-1.4-1.5c-0.3-0.6-0.5-1.4-0.5-2.2s0.2-1.6,0.5-2.2
			s0.8-1.1,1.4-1.5c0.6-0.3,1.3-0.5,2.1-0.5c0.8,0,1.4,0.2,2,0.5c0.6,0.4,1,0.8,1.3,1.4s0.5,1.2,0.5,1.8c0,0.1,0,0.2,0,0.4
			c0,0.1,0,0.2,0,0.4h-6.3c0,0.6,0.2,1.1,0.4,1.5s0.6,0.7,0.9,0.9c0.4,0.2,0.8,0.3,1.2,0.3c0.6,0,1-0.1,1.4-0.4
			c0.4-0.3,0.6-0.6,0.8-1h1.3c-0.2,0.7-0.6,1.4-1.2,1.8C269.7,222.5,268.9,222.7,268,222.7z M268,215.6c-0.6,0-1.2,0.2-1.7,0.6
			c-0.5,0.4-0.8,1-0.9,1.7h5c0-0.7-0.3-1.3-0.7-1.7C269.2,215.8,268.6,215.6,268,215.6z"/>
		<path class="st2" d="M280.9,222.6c-0.7,0-1.3-0.2-1.7-0.5c-0.4-0.4-0.6-1-0.6-1.9v-4.4h-1.4v-1.1h1.4l0.2-1.9h1.2v1.9h2.3v1.1H280
			v4.4c0,0.5,0.1,0.8,0.3,1c0.2,0.2,0.6,0.3,1.1,0.3h0.8v1.1L280.9,222.6L280.9,222.6z"/>
		<path class="st2" d="M283.9,222.6v-11.5h1.3v4.9c0.3-0.5,0.7-0.9,1.1-1.1s1-0.4,1.6-0.4c0.9,0,1.6,0.3,2.2,0.9
			c0.5,0.6,0.8,1.5,0.8,2.6v4.6h-1.3v-4.5c0-1.6-0.7-2.5-2-2.5c-0.7,0-1.3,0.2-1.7,0.7c-0.5,0.5-0.7,1.2-0.7,2.1v4.1L283.9,222.6
			L283.9,222.6z"/>
		<path class="st2" d="M295.7,222.7c-0.7,0-1.2-0.1-1.6-0.3s-0.8-0.5-1-0.9s-0.3-0.8-0.3-1.2c0-0.8,0.3-1.4,0.9-1.9
			c0.6-0.4,1.5-0.7,2.5-0.7h2.1v-0.1c0-0.7-0.2-1.2-0.5-1.6c-0.4-0.4-0.8-0.5-1.5-0.5c-0.5,0-1,0.1-1.4,0.4
			c-0.4,0.3-0.6,0.6-0.7,1.1h-1.4c0.1-0.6,0.2-1.1,0.6-1.5c0.3-0.4,0.8-0.7,1.3-0.9c0.5-0.2,1-0.3,1.6-0.3c1.1,0,1.9,0.3,2.5,0.9
			c0.6,0.6,0.8,1.4,0.8,2.4v4.9h-1.2l-0.1-1.4c-0.2,0.4-0.5,0.8-1,1.1C297,222.6,296.5,222.7,295.7,222.7z M295.9,221.6
			c0.5,0,1-0.1,1.3-0.4s0.6-0.6,0.8-1s0.3-0.9,0.3-1.3l0,0h-2c-0.8,0-1.4,0.1-1.7,0.4s-0.5,0.6-0.5,1s0.1,0.8,0.5,1
			C295,221.5,295.4,221.6,295.9,221.6z"/>
		<path class="st2" d="M304.7,222.6c-0.7,0-1.3-0.2-1.7-0.5c-0.4-0.4-0.6-1-0.6-1.9v-4.4H301v-1.1h1.4l0.2-1.9h1.2v1.9h2.3v1.1h-2.3
			v4.4c0,0.5,0.1,0.8,0.3,1s0.6,0.3,1.1,0.3h0.8v1.1L304.7,222.6L304.7,222.6z"/>
		<path class="st2" d="M28.6,244.6c-0.7,0-1.3-0.2-1.7-0.5c-0.4-0.4-0.6-1-0.6-1.9v-4.4h-1.4v-1.1h1.4l0.2-1.9h1.2v1.9H30v1.1h-2.4
			v4.4c0,0.5,0.1,0.8,0.3,1c0.2,0.2,0.6,0.3,1.1,0.3h0.8v1.1L28.6,244.6L28.6,244.6z"/>
		<path class="st2" d="M35,244.7c-0.8,0-1.4-0.2-2-0.5c-0.6-0.4-1-0.8-1.4-1.5c-0.3-0.6-0.5-1.4-0.5-2.2s0.2-1.6,0.5-2.2
			c0.3-0.6,0.8-1.1,1.4-1.5c0.6-0.3,1.3-0.5,2.1-0.5s1.4,0.2,2,0.5c0.6,0.4,1,0.8,1.3,1.4s0.5,1.2,0.5,1.8c0,0.1,0,0.2,0,0.4
			c0,0.1,0,0.2,0,0.4h-6.3c0,0.6,0.2,1.1,0.4,1.5s0.6,0.7,0.9,0.9c0.4,0.2,0.8,0.3,1.2,0.3c0.5,0,1-0.1,1.4-0.4
			c0.4-0.3,0.7-0.6,0.8-1h1.3c-0.2,0.7-0.6,1.4-1.2,1.8C36.7,244.5,35.9,244.7,35,244.7z M35,237.6c-0.6,0-1.2,0.2-1.7,0.6
			c-0.5,0.4-0.8,1-0.9,1.7h5c0-0.7-0.3-1.3-0.7-1.7C36.2,237.8,35.7,237.6,35,237.6z"/>
		<path class="st2" d="M40.5,244.6v-11.5h1.3v11.5H40.5z"/>
		<path class="st2" d="M44.1,244.6v-11.5h1.3v11.5H44.1z"/>
		<path class="st2" d="M50.7,244.7c-1,0-1.7-0.2-2.4-0.7s-1-1.1-1.1-2h1.4c0.1,0.4,0.3,0.8,0.7,1.1c0.3,0.3,0.8,0.5,1.4,0.5
			c0.6,0,1-0.1,1.2-0.4s0.4-0.5,0.4-0.9c0-0.5-0.2-0.8-0.5-1s-0.8-0.3-1.5-0.4c-0.4-0.1-0.8-0.2-1.3-0.4c-0.4-0.2-0.8-0.4-1.1-0.7
			s-0.4-0.7-0.4-1.2c0-0.7,0.3-1.3,0.8-1.7s1.2-0.7,2.1-0.7c0.8,0,1.5,0.2,2.1,0.6c0.5,0.4,0.9,1,0.9,1.8h-1.3
			c0-0.4-0.2-0.7-0.5-0.9s-0.7-0.3-1.2-0.3s-0.8,0.1-1.1,0.3s-0.4,0.5-0.4,0.8s0.2,0.6,0.5,0.8s0.8,0.3,1.4,0.5
			c0.5,0.1,1,0.2,1.4,0.4c0.4,0.1,0.8,0.4,1.1,0.7s0.4,0.7,0.4,1.3c0,0.7-0.3,1.3-0.8,1.8C52.3,244.5,51.6,244.7,50.7,244.7z"/>
		<path class="st2" d="M60.7,248.1l2-4.3h-0.5l-3.2-7.2h1.5l2.6,6.2l2.8-6.2h1.4l-5.2,11.5H60.7z"/>
		<path class="st2" d="M71.6,244.7c-0.8,0-1.4-0.2-2-0.5s-1.1-0.8-1.4-1.5s-0.5-1.4-0.5-2.2s0.2-1.6,0.5-2.2s0.8-1.1,1.4-1.5
			c0.6-0.3,1.3-0.5,2-0.5c0.8,0,1.4,0.2,2,0.5s1.1,0.8,1.4,1.5c0.3,0.6,0.5,1.4,0.5,2.2s-0.2,1.6-0.5,2.2s-0.8,1.1-1.4,1.5
			C73,244.6,72.4,244.7,71.6,244.7z M71.6,243.6c0.5,0,0.9-0.1,1.3-0.3s0.7-0.6,1-1c0.2-0.4,0.4-1,0.4-1.7s-0.1-1.2-0.4-1.7
			c-0.2-0.4-0.6-0.8-1-1s-0.8-0.3-1.3-0.3s-0.9,0.1-1.3,0.3s-0.7,0.6-1,1c-0.2,0.5-0.4,1-0.4,1.7s0.1,1.2,0.4,1.7
			c0.2,0.5,0.6,0.8,1,1C70.8,243.5,71.2,243.6,71.6,243.6z"/>
		<path class="st2" d="M80.4,244.7c-0.9,0-1.7-0.3-2.2-0.9c-0.5-0.6-0.8-1.5-0.8-2.6v-4.6h1.3v4.5c0,1.7,0.7,2.5,2,2.5
			c0.7,0,1.3-0.2,1.7-0.7c0.5-0.5,0.7-1.2,0.7-2.1v-4.1h1.3v7.9h-1.2l-0.1-1.4c-0.2,0.5-0.6,0.9-1.1,1.2
			C81.5,244.6,81,244.7,80.4,244.7z"/>
		<path class="st2" d="M86.6,244.6v-7.9h1.2l0.1,1.5c0.2-0.5,0.6-0.9,1.1-1.2s1.1-0.5,1.9-0.5v1.4h-0.4c-0.5,0-0.9,0.1-1.3,0.2
			c-0.4,0.2-0.7,0.5-0.9,0.8c-0.2,0.4-0.3,0.9-0.3,1.6v4h-1.4V244.6z"/>
		<path class="st2" d="M100.9,244.7c-0.6,0-1.2-0.1-1.7-0.4c-0.5-0.3-0.9-0.6-1.2-1.1l-0.1,1.3h-1.2V233H98v4.9
			c0.3-0.4,0.6-0.7,1.1-1s1.1-0.5,1.8-0.5c0.8,0,1.5,0.2,2.1,0.5c0.6,0.4,1,0.9,1.4,1.5s0.5,1.3,0.5,2.1s-0.2,1.5-0.5,2.1
			s-0.8,1.1-1.4,1.5C102.4,244.6,101.7,244.7,100.9,244.7z M100.8,243.6c0.5,0,1-0.1,1.4-0.4c0.4-0.2,0.7-0.6,1-1
			c0.2-0.5,0.3-1,0.3-1.6s-0.1-1.1-0.3-1.6c-0.2-0.5-0.6-0.8-1-1s-0.9-0.4-1.4-0.4s-1,0.1-1.4,0.4c-0.4,0.2-0.7,0.6-1,1
			c-0.2,0.5-0.3,1-0.3,1.6s0.1,1.1,0.3,1.6c0.2,0.5,0.6,0.8,1,1C99.8,243.5,100.2,243.6,100.8,243.6z"/>
		<path class="st2" d="M106.7,244.6v-7.9h1.2l0.1,1.5c0.2-0.5,0.6-0.9,1.1-1.2s1.1-0.5,1.9-0.5v1.4h-0.4c-0.5,0-0.9,0.1-1.3,0.2
			c-0.4,0.2-0.7,0.5-0.9,0.8c-0.2,0.4-0.4,0.9-0.4,1.6v4h-1.3V244.6z"/>
		<path class="st2" d="M115.2,244.7c-0.7,0-1.2-0.1-1.7-0.3c-0.4-0.2-0.8-0.5-1-0.9s-0.3-0.8-0.3-1.2c0-0.8,0.3-1.4,0.9-1.9
			s1.5-0.7,2.5-0.7h2.1v-0.1c0-0.7-0.2-1.2-0.5-1.6s-0.9-0.5-1.5-0.5c-0.5,0-1,0.1-1.4,0.4c-0.4,0.3-0.6,0.6-0.7,1.1h-1.4
			c0.1-0.6,0.2-1.1,0.6-1.5c0.3-0.4,0.8-0.7,1.3-0.9s1-0.3,1.6-0.3c1.1,0,1.9,0.3,2.5,0.9c0.6,0.6,0.8,1.4,0.8,2.4v4.9h-1.2
			l-0.1-1.4c-0.2,0.4-0.6,0.8-1,1.1C116.5,244.6,115.9,244.7,115.2,244.7z M115.4,243.6c0.5,0,0.9-0.1,1.3-0.4
			c0.4-0.3,0.6-0.6,0.8-1s0.3-0.9,0.3-1.3l0,0h-2c-0.8,0-1.3,0.1-1.7,0.4c-0.3,0.3-0.5,0.6-0.5,1s0.1,0.8,0.5,1
			C114.4,243.5,114.8,243.6,115.4,243.6z"/>
		<path class="st2" d="M122,234.9c-0.3,0-0.5-0.1-0.7-0.3s-0.3-0.4-0.3-0.7s0.1-0.5,0.3-0.6c0.2-0.2,0.4-0.3,0.7-0.3
			s0.5,0.1,0.7,0.3s0.3,0.4,0.3,0.6c0,0.3-0.1,0.5-0.3,0.7C122.5,234.8,122.3,234.9,122,234.9z M121.3,244.6v-7.9h1.3v7.9H121.3z"/>
		<path class="st2" d="M125,244.6v-7.9h1.2l0.1,1.4c0.3-0.5,0.6-0.9,1.1-1.2s1-0.4,1.6-0.4c0.9,0,1.7,0.3,2.2,0.9s0.8,1.5,0.8,2.6
			v4.6h-1.2v-4.5c0-1.6-0.7-2.5-2.1-2.5c-0.7,0-1.3,0.2-1.7,0.7c-0.4,0.5-0.7,1.2-0.7,2.1v4.1L125,244.6L125,244.6z"/>
		<path class="st2" d="M139.2,234.9c-0.3,0-0.5-0.1-0.7-0.3s-0.3-0.4-0.3-0.7s0.1-0.5,0.3-0.6c0.2-0.2,0.4-0.3,0.7-0.3
			s0.5,0.1,0.7,0.3s0.3,0.4,0.3,0.6c0,0.3-0.1,0.5-0.3,0.7C139.7,234.8,139.5,234.9,139.2,234.9z M138.6,244.6v-7.9h1.3v7.9H138.6z"
			/>
		<path class="st2" d="M145.4,244.6c-0.7,0-1.3-0.2-1.7-0.5c-0.4-0.4-0.6-1-0.6-1.9v-4.4h-1.4v-1.1h1.4l0.2-1.9h1.2v1.9h2.3v1.1
			h-2.3v4.4c0,0.5,0.1,0.8,0.3,1s0.6,0.3,1.1,0.3h0.8v1.1L145.4,244.6L145.4,244.6z"/>
		<path class="st2" d="M151.5,244.7c-0.9,0-1.7-0.2-2.4-0.7c-0.6-0.5-1-1.1-1.1-2h1.4c0.1,0.4,0.3,0.8,0.7,1.1
			c0.3,0.3,0.8,0.5,1.4,0.5c0.6,0,1-0.1,1.2-0.4s0.4-0.5,0.4-0.9c0-0.5-0.2-0.8-0.5-1c-0.4-0.2-0.8-0.3-1.5-0.4
			c-0.4-0.1-0.9-0.2-1.3-0.4c-0.4-0.2-0.8-0.4-1.1-0.7s-0.4-0.7-0.4-1.2c0-0.7,0.3-1.3,0.8-1.7s1.2-0.7,2.1-0.7
			c0.8,0,1.5,0.2,2.1,0.6c0.5,0.4,0.9,1,0.9,1.8h-1.3c-0.1-0.4-0.2-0.7-0.5-0.9s-0.7-0.3-1.2-0.3s-0.9,0.1-1.1,0.3s-0.4,0.5-0.4,0.8
			s0.2,0.6,0.5,0.8s0.8,0.3,1.4,0.5c0.5,0.1,1,0.2,1.4,0.4c0.4,0.1,0.8,0.4,1.1,0.7s0.4,0.7,0.4,1.3c0,0.7-0.3,1.3-0.8,1.8
			C153.1,244.5,152.4,244.7,151.5,244.7z"/>
		<path class="st2" d="M163.8,244.6c-0.7,0-1.3-0.2-1.7-0.5c-0.4-0.4-0.6-1-0.6-1.9v-4.4h-1.4v-1.1h1.4l0.2-1.9h1.2v1.9h2.3v1.1
			h-2.4v4.4c0,0.5,0.1,0.8,0.3,1s0.6,0.3,1.1,0.3h0.8v1.1L163.8,244.6L163.8,244.6z"/>
		<path class="st2" d="M167.7,234.9c-0.3,0-0.5-0.1-0.7-0.3s-0.3-0.4-0.3-0.7s0.1-0.5,0.3-0.6c0.2-0.2,0.4-0.3,0.7-0.3
			s0.5,0.1,0.7,0.3s0.3,0.4,0.3,0.6c0,0.3-0.1,0.5-0.3,0.7C168.1,234.8,167.9,234.9,167.7,234.9z M167,244.6v-7.9h1.3v7.9H167z"/>
		<path class="st2" d="M170.7,244.6v-7.9h1.2l0.1,1.2c0.3-0.4,0.6-0.8,1-1s0.9-0.4,1.4-0.4c0.6,0,1.2,0.1,1.6,0.4
			c0.5,0.3,0.8,0.7,1.1,1.2c0.3-0.5,0.7-0.9,1.1-1.1c0.5-0.3,1-0.4,1.6-0.4c0.9,0,1.7,0.3,2.3,0.9c0.6,0.6,0.8,1.5,0.8,2.6v4.6h-1.3
			v-4.5c0-0.8-0.2-1.4-0.5-1.9c-0.3-0.4-0.8-0.6-1.4-0.6c-0.6,0-1.2,0.2-1.6,0.7c-0.4,0.5-0.6,1.2-0.6,2.1v4.1h-1.3v-4.5
			c0-0.8-0.2-1.4-0.5-1.9c-0.3-0.4-0.8-0.6-1.4-0.6c-0.6,0-1.2,0.2-1.6,0.7c-0.4,0.5-0.6,1.2-0.6,2.1v4.1L170.7,244.6L170.7,244.6z"
			/>
		<path class="st2" d="M188.6,244.7c-0.8,0-1.4-0.2-2-0.5c-0.6-0.4-1-0.8-1.4-1.5c-0.3-0.6-0.5-1.4-0.5-2.2s0.2-1.6,0.5-2.2
			s0.8-1.1,1.4-1.5c0.6-0.3,1.3-0.5,2.1-0.5s1.4,0.2,2,0.5c0.6,0.4,1,0.8,1.3,1.4c0.3,0.6,0.4,1.2,0.4,1.8c0,0.1,0,0.2,0,0.4
			c0,0.1,0,0.2,0,0.4h-6.3c0,0.6,0.2,1.1,0.4,1.5s0.6,0.7,0.9,0.9c0.4,0.2,0.8,0.3,1.2,0.3c0.6,0,1-0.1,1.4-0.4
			c0.4-0.3,0.7-0.6,0.8-1h1.3c-0.2,0.7-0.6,1.4-1.2,1.8C190.3,244.5,189.5,244.7,188.6,244.7z M188.6,237.6c-0.6,0-1.2,0.2-1.7,0.6
			c-0.5,0.4-0.8,1-0.9,1.7h5c0-0.7-0.3-1.3-0.7-1.7C189.8,237.8,189.2,237.6,188.6,237.6z"/>
		<path class="st2" d="M198.8,244.6v-6.8h-1.2v-1.1h1.2v-1.5c0-0.8,0.2-1.3,0.6-1.7c0.4-0.3,0.9-0.5,1.7-0.5h0.8v1.1h-0.6
			c-0.4,0-0.7,0.1-0.9,0.2c-0.2,0.2-0.3,0.5-0.3,0.8v1.3h1.9v1.1h-1.9v6.8L198.8,244.6L198.8,244.6z"/>
		<path class="st2" d="M207,244.7c-0.8,0-1.4-0.2-2-0.5s-1.1-0.8-1.4-1.5c-0.3-0.6-0.5-1.4-0.5-2.2s0.2-1.6,0.5-2.2
			c0.3-0.6,0.8-1.1,1.4-1.5c0.6-0.3,1.3-0.5,2-0.5c0.8,0,1.4,0.2,2,0.5s1.1,0.8,1.4,1.5c0.3,0.6,0.5,1.4,0.5,2.2s-0.2,1.6-0.5,2.2
			c-0.3,0.6-0.8,1.1-1.4,1.5S207.7,244.7,207,244.7z M207,243.6c0.5,0,0.9-0.1,1.3-0.3c0.4-0.2,0.7-0.6,1-1c0.2-0.4,0.4-1,0.4-1.7
			s-0.1-1.2-0.4-1.7c-0.2-0.4-0.6-0.8-0.9-1c-0.4-0.2-0.8-0.3-1.3-0.3s-0.9,0.1-1.3,0.3c-0.4,0.2-0.7,0.6-1,1
			c-0.2,0.5-0.4,1-0.4,1.7s0.1,1.2,0.4,1.7s0.6,0.8,0.9,1C206.1,243.5,206.5,243.6,207,243.6z"/>
		<path class="st2" d="M212.8,244.6v-7.9h1.2l0.1,1.5c0.2-0.5,0.6-0.9,1.1-1.2s1.1-0.5,1.9-0.5v1.4h-0.3c-0.5,0-0.9,0.1-1.3,0.2
			c-0.4,0.2-0.7,0.5-0.9,0.8c-0.2,0.4-0.3,0.9-0.3,1.6v4h-1.5V244.6z"/>
		<path class="st2" d="M225.9,244.7c-0.9,0-1.7-0.2-2.4-0.7s-1-1.1-1.1-2h1.4c0.1,0.4,0.3,0.8,0.7,1.1c0.3,0.3,0.8,0.5,1.4,0.5
			c0.6,0,1-0.1,1.2-0.4s0.4-0.5,0.4-0.9c0-0.5-0.2-0.8-0.5-1c-0.4-0.2-0.8-0.3-1.5-0.4c-0.4-0.1-0.8-0.2-1.3-0.4
			c-0.4-0.2-0.8-0.4-1.1-0.7s-0.4-0.7-0.4-1.2c0-0.7,0.3-1.3,0.8-1.7s1.2-0.7,2.1-0.7c0.8,0,1.5,0.2,2.1,0.6c0.5,0.4,0.9,1,0.9,1.8
			h-1.3c-0.1-0.4-0.2-0.7-0.5-0.9s-0.7-0.3-1.2-0.3s-0.9,0.1-1.1,0.3s-0.4,0.5-0.4,0.8s0.2,0.6,0.5,0.8s0.8,0.3,1.4,0.5
			c0.5,0.1,1,0.2,1.4,0.4c0.4,0.1,0.8,0.4,1.1,0.7s0.4,0.7,0.4,1.3c0,0.7-0.3,1.3-0.8,1.8C227.6,244.5,226.9,244.7,225.9,244.7z"/>
		<path class="st2" d="M230.9,244.6v-11.5h1.3v11.5H230.9z"/>
		<path class="st2" d="M238,244.7c-0.8,0-1.4-0.2-2-0.5c-0.6-0.4-1-0.8-1.4-1.5c-0.3-0.6-0.5-1.4-0.5-2.2s0.2-1.6,0.5-2.2
			s0.8-1.1,1.4-1.5c0.6-0.3,1.3-0.5,2.1-0.5s1.4,0.2,2,0.5c0.6,0.4,1,0.8,1.3,1.4c0.3,0.6,0.5,1.2,0.5,1.8c0,0.1,0,0.2,0,0.4
			c0,0.1,0,0.2,0,0.4h-6.3c0,0.6,0.2,1.1,0.4,1.5s0.6,0.7,0.9,0.9c0.4,0.2,0.8,0.3,1.2,0.3c0.5,0,1-0.1,1.4-0.4
			c0.4-0.3,0.6-0.6,0.8-1h1.3c-0.2,0.7-0.6,1.4-1.2,1.8C239.7,244.5,238.9,244.7,238,244.7z M238,237.6c-0.6,0-1.2,0.2-1.7,0.6
			c-0.5,0.4-0.8,1-0.9,1.7h5c0-0.7-0.3-1.3-0.7-1.7C239.2,237.8,238.7,237.6,238,237.6z"/>
		<path class="st2" d="M247.1,244.7c-0.8,0-1.4-0.2-2-0.5c-0.6-0.4-1-0.8-1.4-1.5c-0.3-0.6-0.5-1.4-0.5-2.2s0.2-1.6,0.5-2.2
			c0.3-0.6,0.8-1.1,1.4-1.5c0.6-0.3,1.3-0.5,2.1-0.5s1.4,0.2,2,0.5c0.6,0.4,1,0.8,1.3,1.4c0.3,0.6,0.5,1.2,0.5,1.8
			c0,0.1,0,0.2,0,0.4c0,0.1,0,0.2,0,0.4h-6.3c0,0.6,0.2,1.1,0.4,1.5s0.6,0.7,0.9,0.9c0.4,0.2,0.8,0.3,1.2,0.3c0.6,0,1-0.1,1.4-0.4
			c0.4-0.3,0.6-0.6,0.8-1h1.3c-0.2,0.7-0.6,1.4-1.2,1.8C248.8,244.5,248,244.7,247.1,244.7z M247.1,237.6c-0.6,0-1.2,0.2-1.7,0.6
			s-0.8,1-0.9,1.7h5c0-0.7-0.3-1.3-0.7-1.7C248.3,237.8,247.8,237.6,247.1,237.6z"/>
		<path class="st2" d="M252.6,248.1v-11.5h1.2l0.1,1.3c0.3-0.4,0.6-0.7,1.1-1s1.1-0.5,1.8-0.5c0.8,0,1.5,0.2,2.1,0.5
			c0.6,0.4,1,0.9,1.4,1.5c0.3,0.6,0.5,1.3,0.5,2.1s-0.2,1.5-0.5,2.1s-0.8,1.1-1.4,1.5s-1.3,0.5-2.1,0.5c-0.6,0-1.2-0.1-1.7-0.4
			c-0.5-0.3-0.9-0.6-1.2-1.1v4.8h-1.3V248.1z M256.7,243.6c0.5,0,1-0.1,1.4-0.4s0.7-0.6,1-1c0.2-0.5,0.4-1,0.4-1.6s-0.1-1.1-0.4-1.6
			c-0.2-0.5-0.5-0.8-1-1s-0.9-0.4-1.4-0.4s-1,0.1-1.4,0.4s-0.7,0.6-1,1s-0.4,1-0.4,1.6s0.1,1.1,0.4,1.6s0.5,0.8,1,1
			C255.7,243.5,256.2,243.6,256.7,243.6z"/>
		<path class="st2" d="M263.1,244.6c-0.3,0-0.5-0.1-0.7-0.3s-0.3-0.4-0.3-0.6s0.1-0.5,0.3-0.7c0.2-0.2,0.4-0.3,0.7-0.3
			c0.3,0,0.5,0.1,0.6,0.3c0.2,0.2,0.3,0.4,0.3,0.7s-0.1,0.5-0.3,0.6S263.4,244.6,263.1,244.6z"/>
		<path class="st3" d="M35,176.4c0.4-0.1,0.7-0.2,1-0.2c0.7,0,1.2,0.2,1.5,0.8c0.2,0.3,0.5,1.5,0.7,3.6s0.4,4.3,0.5,6.8
			c0,0.8,0.1,1.9,0.2,3.4c0.1,1.5,0.1,2.7,0.2,3.8s0.1,1.9,0.1,2.5c0,0.4-0.2,0.7-0.6,0.9c-0.4,0.2-0.9,0.4-1.3,0.4
			c-0.4,0-0.7-0.1-0.9-0.2l-0.6-0.4l-0.1-5.1c-0.2-5.8-0.5-8.7-0.8-8.7c-0.2,0-0.5,0.7-1,2.2c-0.2,0.8-0.5,1.4-0.8,1.7
			c-0.3,0.3-0.6,0.5-1,0.5c-0.3,0-0.7-0.1-1.1-0.2c-0.5-0.2-0.9-0.6-1.2-1.3c-0.3-0.7-0.5-1.1-0.5-1.2s-0.1-0.3-0.2-0.6
			c-0.2-0.3-0.3-0.6-0.5-0.8c-0.2-0.2-0.3-0.3-0.3-0.3v0.5c0,1.2,0,3,0.1,5.4l0.2,5.8l-0.5,0.9c-0.6,1-1.1,1.4-1.6,1.4
			c-0.3,0-0.5-0.2-0.8-0.6c-0.2-0.3-0.4-0.8-0.4-1.5c-0.1-0.7-0.1-2.8-0.2-6.3c-0.2-6.5-0.3-10.2-0.5-11.1c0-0.1,0-0.3,0-0.5
			c0-0.3,0.2-0.6,0.5-0.9s0.7-0.5,1.2-0.5s1,0.1,1.6,0.4c0.6,0.2,1,0.6,1.3,1s1,1.7,2.1,3.7c0.3,0.5,0.5,0.8,0.7,0.8
			c0.1,0,0.3-0.2,0.4-0.6c0.1-0.5,0.4-1,0.7-1.7c0.4-0.8,0.6-1.3,0.6-1.4c0-0.2,0.2-0.7,0.5-1.3C34.5,176.8,34.8,176.5,35,176.4z"/>
		<path class="st3" d="M45.1,177c0.3-0.1,0.8-0.1,1.3-0.1c1.5,0,2.5,0.2,2.9,0.5c0.3,0.2,0.4,0.6,0.4,0.9c0,0.4-0.1,0.7-0.4,0.9
			s-0.6,0.4-1.1,0.4c-0.4,0-0.7,0.1-0.8,0.3c-0.1,0.2-0.2,0.7-0.2,1.5c0,0.2,0,0.9,0.1,2.1c0.1,1.4,0.1,2.3,0.2,2.7s0.2,0.6,0.3,0.7
			c0,0,0.2,0,0.6,0c0.3,0,0.6,0,0.8,0c0.7,0,1.2,0.2,1.5,0.5c0.2,0.2,0.3,0.4,0.3,0.6c0,0.4-0.6,0.9-1.8,1.3
			c-0.7,0.2-1.1,0.4-1.3,0.6c-0.1,0.1-0.2,0.4-0.3,0.9s-0.1,0.8-0.1,1.2c0,1.4,0.1,2.5,0.4,3.2c0.1,0.3,0.2,0.5,0.4,0.5
			c0.1,0.1,0.4,0.1,0.9,0.1c0.6,0,1.1,0.1,1.5,0.4s0.6,0.6,0.6,1c0,0.2-0.2,0.6-0.6,1c-0.7,0.6-1.8,1-3.4,1c-1.6,0-2.7-0.4-3.2-1.1
			c-0.3-0.4-0.5-2.8-0.5-7.2c-0.1-5.5-0.1-8.8-0.2-9.7l-0.1-3.1l0.6-0.3C44.3,177.3,44.7,177.1,45.1,177z"/>
		<path class="st3" d="M56.1,175.8c0.2-0.2,0.5-0.4,0.8-0.4c0.2,0,0.5,0,0.6,0c0.6,0.1,1,0.3,1.2,0.5c0.3,0.4,0.5,3,0.5,7.6v2.5v2.2
			c0,3.7,0,5.7,0.1,6c0.1,0.5,0.6,0.7,1.4,0.7c0.4,0,0.7,0,1,0c0.2,0,0.5,0,0.8,0c0.5,0,0.9,0.1,1.1,0.2c0.2,0.2,0.3,0.5,0.3,0.9
			c0,0.3-0.1,0.5-0.2,0.7c-0.1,0.2-0.4,0.4-0.8,0.7c-0.8,0.4-1.6,0.6-2.4,0.7c-1.2,0.1-1.8,0.1-1.8,0.1c-0.1,0-0.2,0-0.3,0
			c-0.3,0-0.7-0.1-1.1-0.3c-0.4-0.2-0.7-0.4-1-0.7c-0.4-0.5-0.6-2-0.6-4.3c0-0.6,0-1.7,0.1-3.3c0.1-1.5,0.1-3,0.1-4.8
			c0-4.1-0.1-6.6-0.2-7.6c-0.1-0.4-0.1-0.6-0.1-0.7C55.6,176.3,55.8,176,56.1,175.8z"/>
		<path class="st3" d="M71.8,178.5c0.7-0.7,1.8-1.1,3.3-1.1c0.6,0,1.2,0.1,1.6,0.3c0.6,0.3,1,1.1,1.3,2.3c0.2,1.1,0.4,2.9,0.7,5.4
			s0.4,4.5,0.5,5.9c0,1.3,0.1,2.8,0.3,4.4c0.2,1.6,0.3,2.5,0.4,2.7c0,0,0,0.1,0,0.2c0,0.2-0.1,0.6-0.3,0.9c-0.2,0.4-0.4,0.6-0.6,0.6
			c-0.1,0-0.2,0-0.4,0c-0.4,0-0.9-0.1-1.4-0.3c-0.5-0.2-0.8-0.4-0.9-0.6s-0.2-1-0.4-2.3s-0.2-2.4-0.2-3.2c0-0.8-0.1-1.2-0.2-1.3
			c-0.1-0.1-0.8-0.1-1.9-0.1c-0.9,0-1.4,0-1.5,0.1c0,0.1,0,0.3,0,0.5c0,0.6,0,1.3,0.1,2.3c0.1,1.1,0.1,2,0.1,2.7v0.4
			c0,0.2-0.2,0.4-0.6,0.5S71,199,70.6,199c-0.2,0-0.3,0-0.4,0c-1-0.3-1.5-0.7-1.6-1.2c0,0,0-0.1,0-0.2s0-0.2,0-0.3
			c0-1.2,0.1-3.7,0.4-7.6s0.5-6.1,0.6-6.7c0.2-0.8,0.5-1.6,1-2.6C71,179.5,71.4,178.9,71.8,178.5z M74.7,182.8
			c-0.2-0.8-0.4-1.2-0.6-1.2s-0.4,0.3-0.7,0.9c-0.5,1.1-0.9,2.7-1,4.6c-0.1,0.8-0.1,1.3-0.1,1.4c0,0.4,0.1,0.6,0.2,0.7
			s0.5,0.2,1.1,0.2c0.8,0,1.3-0.1,1.4-0.2s0.1-0.4,0.1-1.1C75.1,186.1,75,184.4,74.7,182.8z"/>
		<path class="st3" d="M85,174.6c0.4-0.3,1-0.5,1.9-0.5h1c1.5,0.1,2.4,0.1,2.7,0.2c0.2,0.1,0.6,0.1,1.2,0.2c0.6,0,1.1,0.2,1.4,0.4
			c0.3,0.2,0.4,0.6,0.4,1.1s-0.1,0.9-0.3,1.1c-0.2,0.2-0.6,0.4-1.1,0.5c-0.6,0.1-0.9,0.2-1,0.3c-0.1,0.1-0.2,2.8-0.2,8
			c0,3.6,0,6.1,0.1,7.6c0.1,1.2,0.1,1.8,0.1,1.9c0,0.6-0.1,1.1-0.4,1.5c-0.3,0.6-0.8,0.8-1.4,0.8c-0.4,0-0.8-0.1-1.3-0.4l-0.8-0.5
			l0.1-9.6c0.1-2.5,0.1-4.9,0.1-7.4c0-1.5-0.1-2.3-0.3-2.4c-0.3-0.2-0.5-0.2-0.6-0.2s-0.3,0-0.5,0c-0.5,0-0.9-0.2-1.3-0.4
			c-0.3-0.3-0.5-0.6-0.5-1C84.3,175.4,84.5,175,85,174.6z"/>
		<path class="st3" d="M99.1,176.5l0.8-1h5.2l0.8,0.8c0.5,0.5,0.9,1.2,1.1,2s0.4,2.1,0.6,3.8c0.1,0.6,0.1,1.6,0.1,2.8
			c0,2.9-0.3,5.5-0.8,7.8s-1.2,3.9-2.1,4.8c-0.3,0.3-0.7,0.5-1.2,0.7s-1,0.3-1.4,0.3c-0.2,0-0.3,0-0.4-0.1c-0.2-0.1-0.5-0.2-0.9-0.2
			c-0.3,0-0.6-0.2-1-0.7s-0.7-1-0.9-1.7c-0.4-1.1-0.7-2.3-0.8-3.6c-0.1-1.3-0.2-3.4-0.2-6.3v-2c0-2.6,0.1-4.4,0.2-5.3
			C98.4,177.8,98.7,177.1,99.1,176.5z M103.1,178.5c-0.2-0.5-0.5-0.8-0.6-0.8c-0.2,0-0.4,0.4-0.7,1.3c-0.2,0.7-0.3,2-0.3,3.9
			c0,1.5,0.1,3.1,0.2,4.8c0.1,1.6,0.3,3.1,0.5,4.5s0.5,2.1,0.7,2.1c0.1,0,0.3-0.3,0.4-0.9c0.1-0.5,0.3-0.9,0.5-1.3
			c0.1-0.2,0.2-1.4,0.4-3.7c0.1-1.2,0.1-2.3,0.1-3.3C104.1,182,103.8,179.8,103.1,178.5z"/>
		<path class="st3" d="M113.1,176c0.4-0.2,0.8-0.3,1.3-0.3c0.8,0,1.4,0.5,1.7,1.6c0.2,0.8,0.6,1.7,1,2.6s0.7,1.6,0.9,2.2
			c0.3,0.9,0.5,1.5,0.8,1.7c0.1,0.1,0.1,0.2,0.2,0.2s0.2-0.6,0.3-1.8c0.1-1.1,0.1-1.9,0.1-2.3v-0.5c0-0.2,0-0.5,0-0.8
			c0-0.7,0.2-1.2,0.6-1.6c0.3-0.4,0.8-0.6,1.6-0.6c0.5,0,0.9,0.1,1.2,0.4c0.2,0.2,0.4,0.5,0.4,1s0,1-0.1,1.5s-0.1,3.9-0.2,10.2
			c0,4-0.1,6.3-0.1,7.1c0,0.8-0.1,1.3-0.3,1.5c-0.3,0.3-0.7,0.5-1.3,0.5c-1.2,0-1.9-0.6-2.1-1.8c-0.1-0.5-0.4-1.3-0.8-2.5
			c-0.4-1.1-0.7-2.1-0.8-3c-0.2-1.2-0.6-2.7-1.2-4.6c-0.1-0.2-0.1-0.2-0.1-0.2c-0.1,0-0.2,1.2-0.2,3.5v2v2.2c0,2.3-0.1,3.6-0.2,3.9
			c-0.3,0.8-0.9,1.2-1.8,1.2c-0.5,0-1-0.2-1.3-0.5c-0.2-0.3-0.4-0.5-0.4-0.8c0-0.1,0-0.3,0.1-0.8c0.1-0.9,0.2-4.3,0.2-10.1
			c0-6.5,0.1-9.9,0.2-10.3c0.1-0.2,0.2-0.4,0.5-0.5C113,176.1,113,176.1,113.1,176z"/>
		<path class="st3" d="M127.6,174.5c0.3-0.4,0.8-0.5,1.3-0.5s0.9,0.2,1.3,0.5l0.6,0.5l0.2,9.5c0.1,5.2,0.2,8.2,0.2,9
			c0,0.4,0,0.8,0,1s0,0.5,0,0.7s-0.1,0.3-0.1,0.4c-0.1,0.1-0.1,0.2-0.1,0.2s-0.1,0.1-0.2,0.1s-0.2,0.1-0.2,0.1
			c-0.3,0.2-0.6,0.3-0.8,0.3c-0.1,0-0.4-0.1-0.8-0.2c-0.7-0.3-1.1-0.5-1.1-0.7c-0.1-0.1-0.2-3.5-0.2-10.1c-0.1-6.6-0.1-10-0.2-10
			C127.1,175.1,127.2,174.9,127.6,174.5z"/>
		<path class="st3" d="M136.4,176c0.4-0.2,0.8-0.3,1.3-0.3c0.8,0,1.4,0.5,1.7,1.6c0.2,0.8,0.6,1.7,1,2.6s0.7,1.6,0.9,2.2
			c0.3,0.9,0.5,1.5,0.8,1.7c0.1,0.1,0.1,0.2,0.2,0.2c0.1,0,0.2-0.6,0.3-1.8c0.1-1.1,0.1-1.9,0.1-2.3v-0.5c0-0.2,0-0.5,0-0.8
			c0-0.7,0.2-1.2,0.6-1.6c0.3-0.4,0.8-0.6,1.5-0.6c0.5,0,0.9,0.1,1.2,0.4c0.2,0.2,0.4,0.5,0.4,1s0,1-0.1,1.5s-0.1,3.9-0.2,10.2
			c0,4-0.1,6.3-0.1,7.1c0,0.8-0.1,1.3-0.3,1.5c-0.3,0.3-0.7,0.5-1.3,0.5c-1.2,0-1.9-0.6-2.1-1.8c-0.1-0.5-0.4-1.3-0.8-2.5
			c-0.4-1.1-0.7-2.1-0.8-3c-0.2-1.2-0.6-2.7-1.2-4.6c-0.1-0.2-0.1-0.2-0.1-0.2c-0.1,0-0.2,1.2-0.2,3.5v2v2.2c0,2.3-0.1,3.6-0.2,3.9
			c-0.3,0.8-0.9,1.2-1.8,1.2c-0.5,0-1-0.2-1.3-0.5c-0.2-0.3-0.4-0.5-0.4-0.8c0-0.1,0-0.3,0.1-0.8c0.1-0.9,0.2-4.3,0.2-10.1
			c0-6.5,0.1-9.9,0.2-10.3c0.1-0.2,0.2-0.4,0.5-0.5C136.3,176.1,136.4,176.1,136.4,176z"/>
		<path class="st4" d="M138.1,106.3l0.2,2.1c0,0.3,0.2,0.5,0.4,0.6l1.9,1c0.6,0.3,0.6,1.2,0,1.4l-1.9,0.9c-0.2,0.1-0.4,0.3-0.5,0.6
			l-0.4,2.1c-0.1,0.7-0.9,0.9-1.4,0.4l-1.4-1.6c-0.2-0.2-0.4-0.3-0.7-0.2l-2.1,0.3c-0.7,0.1-1.1-0.6-0.8-1.2l1-1.8
			c0.1-0.2,0.1-0.5,0-0.8l-0.9-1.9c-0.3-0.6,0.2-1.3,0.9-1.1l2.1,0.4c0.3,0,0.5,0,0.7-0.2l1.5-1.5
			C137.3,105.4,138.1,105.7,138.1,106.3z"/>
		<path class="st5" d="M255.9,94.9l1.2,1.2c0.1,0.2,0.4,0.2,0.6,0.2l1.7-0.2c0.5-0.1,0.9,0.5,0.7,1l-0.8,1.5c-0.1,0.2-0.1,0.4,0,0.6
			l0.8,1.5c0.2,0.5-0.2,1-0.7,0.9l-1.7-0.3c-0.2,0-0.4,0-0.6,0.2l-1.2,1.2c-0.4,0.4-1,0.1-1.1-0.4l-0.2-1.7c0-0.2-0.1-0.4-0.3-0.5
			l-1.5-0.8c-0.5-0.2-0.5-0.9,0-1.2l1.5-0.7c0.2-0.1,0.3-0.3,0.4-0.5l0.3-1.7C254.9,94.7,255.5,94.5,255.9,94.9z"/>
		<path class="st6" d="M90.3,46.3c-0.1-0.2-0.1-0.4-0.2-0.5c-0.6-1.4-2-2.4-3.6-2.4C73.6,43,61.2,48.6,53.1,58.7
			C45,68.7,42,81.9,45.2,94.4c3.1,12.4,12,22.7,23.8,27.7c11.9,5,25.5,4.1,36.7-2.3c1.4-0.8,2.1-2.3,2-3.8c0-0.2,0-0.4-0.1-0.6
			c-0.3-1.3-1.3-2.4-2.6-2.8c-12.4-4.1-22.1-14.2-25.3-26.9c-3.2-12.6,0.6-26.1,9.6-35.6C90.2,49,90.6,47.6,90.3,46.3z"/>
		<path class="st4" d="M117.4,31.1l2,2.6c0.3,0.3,0.7,0.5,1.1,0.5l3.3-0.2c1-0.1,1.7,1.1,1.1,1.9l-1.8,2.8c-0.2,0.3-0.3,0.8-0.1,1.2
			l1.2,3.1c0.4,1-0.5,1.9-1.5,1.7l-3.2-0.9c-0.4-0.1-0.8,0-1.1,0.2l-2.5,2.1c-0.8,0.7-2,0.1-2.1-0.9l-0.1-3.3c0-0.4-0.2-0.8-0.6-1
			l-2.8-1.8c-0.9-0.6-0.7-1.9,0.2-2.2l3.1-1.1c0.4-0.1,0.7-0.5,0.8-0.9l0.8-3.2C115.5,30.5,116.8,30.2,117.4,31.1z"/>
		<path class="st5" d="M114.3,66l0.5,1.8c0.1,0.2,0.2,0.4,0.4,0.5l1.7,0.6c0.5,0.2,0.6,0.9,0.1,1.2l-1.5,1c-0.2,0.1-0.3,0.3-0.3,0.6
			l-0.1,1.8c0,0.6-0.7,0.9-1.1,0.5l-1.4-1.1c-0.2-0.1-0.4-0.2-0.6-0.1l-1.7,0.5c-0.6,0.2-1-0.4-0.8-0.9l0.7-1.7
			c0.1-0.2,0.1-0.5-0.1-0.6l-1-1.5c-0.3-0.5,0-1.1,0.6-1.1l1.8,0.1c0.2,0,0.4-0.1,0.6-0.3l1.1-1.4C113.4,65.3,114.2,65.5,114.3,66z"
			/>
		<path class="st5" d="M199,42.4l0.5,1.8c0.1,0.2,0.2,0.4,0.4,0.5l1.7,0.6c0.5,0.2,0.6,0.9,0.1,1.2l-1.5,1c-0.2,0.1-0.3,0.3-0.3,0.6
			l-0.1,1.8c0,0.6-0.7,0.9-1.1,0.5l-1.4-1.1c-0.2-0.1-0.4-0.2-0.6-0.1l-1.7,0.5c-0.6,0.2-1-0.4-0.8-0.9l0.7-1.7
			c0.1-0.2,0.1-0.4-0.1-0.6l-1-1.5c-0.3-0.5,0-1.1,0.6-1.1l1.8,0.1c0.2,0,0.4-0.1,0.6-0.3l1.1-1.4C198.1,41.7,198.8,41.9,199,42.4z"
			/>
		<path class="st4" d="M267.9,48.6l0.5,1.8c0.1,0.2,0.2,0.4,0.4,0.5l1.7,0.6c0.5,0.2,0.6,0.9,0.1,1.2l-1.5,1
			c-0.2,0.1-0.3,0.3-0.3,0.6l-0.1,1.8c0,0.6-0.7,0.9-1.1,0.5l-1.4-1.1c-0.2-0.1-0.4-0.2-0.6-0.1l-1.7,0.5c-0.5,0.2-1-0.4-0.8-0.9
			l0.7-1.7c0.1-0.2,0-0.5-0.1-0.6l-1-1.5c-0.3-0.5,0-1.1,0.6-1.1l1.8,0.1c0.2,0,0.4-0.1,0.6-0.3l1.1-1.4
			C267.1,47.9,267.8,48,267.9,48.6z"/>
		<path class="st3" d="M198.3,159.7c0,7.9,6.4,14.3,14.3,14.3c0.3,0,8.4,0,10.9,0c0.7,7.2,6.8,12.9,14.2,12.9c1.7,0,3.4-0.3,5-0.9
			l13.1,12.1c2.1,2,5.6,0.5,5.6-2.5h4.7c4.9,0,8.8-3.9,8.9-8.8h-9.5c-0.9,0-1.6-0.8-1.4-1.8c0.1-0.7,0.8-1.2,1.5-1.2h15.2
			c6.4-0.3,11.5-5.7,11.5-12.2c0-6.3-4.7-11.5-10.8-12.1c-0.7-0.1-1.3-0.7-1.3-1.5c0-0.9,0.8-1.6,1.6-1.5c2.5,0.3,4.8,1.2,6.8,2.5
			c0.8-1.7,1.2-3.5,1.2-5.5c0-6.2-4.4-11.4-10.3-12.6c-1.3-5.9-6.6-10.3-12.9-10.3c-1.1,0-2.2,0.1-3.3,0.4c-3.2,1-5.9,3.2-7.5,6.2
			c-0.3,0.5-0.8,0.8-1.3,0.8c-0.2,0-0.5-0.1-0.7-0.2c-0.7-0.4-1-1.3-0.6-2c1.4-2.6,3.5-4.8,6-6.2c-2.4-2-5.4-3.1-8.7-3.1
			c-4,0-7.5,1.7-10,4.4c-2-1.3-4.4-2.1-7.1-2.1c0,0,0,0-0.1,0c-7,0-12.7,5.7-12.7,12.7c0,0.8-0.7,1.5-1.5,1.5s-1.5-0.7-1.5-1.5
			c0-2.9,0.8-5.6,2.1-7.9l0,0c-6.9-0.4-12.7,4.6-13.5,11.2C199.8,149.7,198.3,154.3,198.3,159.7z M253.5,172.4
			c1.5-2.9,4.7-4,6.8-4.4c-0.6-1.4-0.9-2.9-0.9-4.5c0-0.8,0.7-1.5,1.5-1.5s1.5,0.7,1.5,1.5c0,5.1,4.2,9.3,9.3,9.3
			c0.8,0,1.5,0.7,1.5,1.5s-0.7,1.5-1.5,1.5c-4,0-7.6-2-9.9-5c-1.3,0.2-4.5,0.8-5.7,3c-0.3,0.5-0.8,0.8-1.3,0.8c-0.2,0-0.5,0-0.7-0.2
			C253.4,174,253.2,173.1,253.5,172.4z M236,154.2c-2.5-1.7-4.2-4.4-4.4-7.5c-0.1-0.9,0.6-1.6,1.5-1.6c0.8,0,1.3,0.7,1.4,1.4
			c0.2,2.3,1.5,4.3,3.5,5.5c1.5-1.2,3.3-2,5.3-2.3c0.3,0,0.6-0.1,1-0.1c-1.3-2.1-1.9-4.6-1.7-7.2c0.1-0.8,0.8-1.4,1.6-1.3
			s1.4,0.8,1.3,1.6c-0.3,3.2,1.2,6.3,3.9,8.1c0,0,3.3,1.9,6.5,1.1c2.2-0.5,4.1-1.8,5.4-3.7c0.4-0.6,1.2-0.9,1.9-0.6
			c0.8,0.4,1,1.4,0.6,2.1c-1.7,2.6-4.2,4.4-7.2,5c-0.8,0.2-1.7,0.3-2.5,0.3c-2.8,0-5.1-1.2-5.7-1.5c-0.2-0.1-0.3-0.2-0.5-0.2
			c-1.3-0.6-2.7-0.8-4.1-0.6c-2,0.3-3.8,1.3-5,2.9c-1,1.3-1.5,2.8-1.6,4.3c0,0.7-0.6,1.3-1.3,1.4c-0.9,0.1-1.7-0.6-1.7-1.5
			C234.2,157.8,234.8,155.8,236,154.2z M213.8,155.8c0-0.8,0.7-1.5,1.5-1.5s1.5,0.7,1.5,1.5c0,5.1,4.2,9.3,9.3,9.3
			c0.8,0,1.5,0.7,1.5,1.5s-0.7,1.5-1.5,1.5C219.3,168.1,213.8,162.6,213.8,155.8z"/>
		<path class="st7" d="M167.5,71.1c-3.9,3.2-7.8,6.3-11.6,9.5c0.9,2.4,1.8,4.7,2.7,7c0.1,0.2,0.2,0.4,0.2,0.6c0,0.3,0,0.6,0,1
			c-0.2-0.2-0.5-0.5-0.6-0.8c-0.9-2.2-1.8-4.5-2.6-6.8c-0.2-0.6-0.6-1-1.2-1.2c-4.3-1.6-8.7-3.2-13-4.9c-0.6-0.2-0.8-0.5-0.9-1.1
			c-0.8-4.7-1.5-9.3-2.3-14c-0.1-0.7,0.1-1.1,0.6-1.6c3.5-2.9,7.1-5.8,10.6-8.6c0.6-0.5,0.7-0.9,0.6-1.6c-0.4-2.4-0.8-4.8-1.2-7.1
			c-0.1-0.4,0.1-0.7,0.1-1.1c0.2,0.4,0.4,0.7,0.5,1c0.4,2.3,0.8,4.7,1.1,7c0.1,0.7,0.4,1.1,1.1,1.4c4.3,1.6,8.5,3.2,12.8,4.8
			c0.6,0.2,0.9,0.5,1,1.2c0.7,4.5,1.5,9.1,2.2,13.6c0.1,0.7,0.3,1.1,0.9,1.5c3.8,2.4,7.6,4.8,11.3,7.3c0.5,0.4,1,0.4,1.6,0.2
			c4.2-1.7,8.5-3.3,12.7-5c0.7-0.3,1.2-0.2,1.7,0.2c3.5,2.9,7.1,5.7,10.7,8.6c0.5,0.4,0.9,0.5,1.6,0.2c2.3-0.9,4.6-1.8,6.9-2.7
			c0.2-0.1,0.5,0,0.8,0c-0.2,0.2-0.3,0.5-0.6,0.6c-2.4,1-4.9,2-7.3,2.8c-0.4,0.1-1,0-1.3-0.3c-3.6-2.8-7.2-5.7-10.8-8.6
			c-0.6-0.5-1-0.5-1.6-0.2c-4.1,1.6-8.3,3.3-12.4,4.9c-0.6,0.2-0.9,0.6-1.1,1.2c-1.1,4.5-2.3,8.9-3.5,13.3c-0.2,0.7-0.5,1-1.2,1
			c-2.9,0.1-5.8,0.3-8.8,0.5c-0.3,0-0.6-0.2-0.8-0.2c0.3-0.1,0.5-0.4,0.8-0.4c2.9-0.2,5.7-0.3,8.6-0.5c0.3,0,0.8-0.4,0.9-0.7
			c1.2-4.4,2.4-8.9,3.5-13.3c0.1-0.3-0.1-0.8-0.3-0.9C175.7,76.3,171.6,73.8,167.5,71.1z M155.2,80.1c0.1-0.1,0.5-0.2,0.7-0.4
			c3.6-2.9,7.1-5.8,10.6-8.8c0.3-0.2,0.5-0.8,0.4-1.2c-0.7-4.5-1.4-8.9-2.1-13.4c-0.1-0.7-0.4-1-1-1.2c-4.2-1.6-8.4-3.1-12.6-4.7
			c-0.5-0.2-0.9-0.2-1.4,0.2c-3.5,2.9-7,5.8-10.5,8.7c-0.3,0.2-0.5,0.8-0.4,1.2c0.7,4.5,1.5,9,2.2,13.5c0.1,0.6,0.4,0.9,0.9,1.1
			c1.5,0.5,3,1.1,4.5,1.7C149.3,77.9,152.2,79,155.2,80.1z"/>
		<path class="st7" d="M233.6,97.5c-0.3-1.1,0.2-2.1,0.3-3.2c0.1-1.2,0.4-2.3,0.6-3.5c0.2-1.1,0.3-2.3,0.4-3.3
			c-0.7-0.1-1.3-0.2-2.2-0.3c-0.1,1.1-0.3,2.4-0.5,3.7c-0.3,1.8-0.6,3.6-0.9,5.4c-0.1,0.3-0.2,0.5-0.4,0.8c-0.1,0-0.2-0.1-0.3-0.1
			c0-0.3,0-0.7,0.1-1c0.5-3,1-5.9,1.4-8.9c0.1-0.4-0.2-1-0.5-1.3c-1.5-1.3-3-2.5-4.5-3.7c-0.2-0.1-0.2-0.5-0.3-0.7
			c0.2,0.1,0.5,0.1,0.7,0.2c2,1.5,3.9,3.1,5.8,4.7c0.4,0.4,0.8,0.4,1.4,0.2c4.2-1.7,8.5-3.3,12.7-5c0.2-0.1,0.3-0.2,0.5-0.2
			s0.3,0.1,0.5,0.2c-0.1,0.1-0.1,0.4-0.3,0.4c-0.4,0.2-0.8,0.3-1.2,0.5c-3.4,1.3-6.8,2.7-10.3,4c-0.6,0.2-1,0.6-1.1,1.3
			c-0.4,3-1,6.1-1.5,9.1c0,0.2-0.1,0.4-0.2,0.7C233.8,97.5,233.7,97.5,233.6,97.5z"/>
		<path class="st8" d="M223.9,82.3c-0.3-0.3-0.8-0.6-1-1c-0.9-1.9-1.8-3.8-2.9-5.6c-0.2,1.7-0.4,3.3-0.7,5c-0.1,0.8-0.1,0.8-1,0.6
			c0.3-2.5,0.7-5.1,1-7.6c0.8-0.2,1.1,0.1,1.4,0.8c0.9,1.9,1.8,3.8,2.9,5.7c0.2-1.7,0.5-3.4,0.7-5.1c0.1-0.6,0.3-1,1-0.6
			c-0.3,2.5-0.7,5.1-1,7.7C224.1,82.2,224,82.2,223.9,82.3z"/>
		<path class="st8" d="M159.2,93.1c-0.2,1.7-0.4,3.4-0.7,5.1c-0.1,0.7-0.1,0.7-1,0.5c0.3-2.5,0.7-5,1-7.6c0.7-0.2,1.1,0,1.4,0.7
			c0.9,1.9,1.8,3.9,2.9,5.8c0.2-1.7,0.5-3.4,0.7-5.1c0.1-0.6,0.3-1,1-0.6c-0.3,2.5-0.7,5-1,7.6c-0.8,0.2-1.2-0.1-1.5-0.8
			c-0.8-1.9-1.7-3.8-2.6-5.6C159.4,93.1,159.3,93.1,159.2,93.1z"/>
		<path class="st8" d="M235.3,103.5c-0.3,2.5-2.1,3.9-4.3,3.6c-2.3-0.3-3.5-2.1-3.2-4.6s2-3.9,4.3-3.6
			C234.3,99.2,235.6,101,235.3,103.5z M234.2,103.4c0.3-2.4-1.3-4.1-3.4-3.5c-1.3,0.4-1.9,1.5-2.1,2.8c-0.2,1.3,0.1,2.5,1.3,3.2
			C231.8,107,233.9,105.8,234.2,103.4z"/>
		<path class="st8" d="M144.1,34.4c0.3-2.5,2-3.9,4.3-3.6s3.6,2.1,3.3,4.6s-2,3.9-4.3,3.6C145.1,38.7,143.8,36.9,144.1,34.4z
			 M145.1,34.5c-0.2,1.5,0.3,2.7,1.4,3.2c1.4,0.8,3,0.3,3.7-1.2c0.9-1.7,0.4-3.9-1.1-4.7C147.3,31,145.4,32.2,145.1,34.5z"/>
		<path class="st8" d="M220.5,72.4c-0.4,0-0.6-0.1-1-0.1c0.2-1.4,0.4-2.8,0.6-4.1c0.1-0.9,0.3-1.9,0.4-2.8c0.1-0.7,0.4-0.9,1.1-0.5
			c-0.1,1-0.3,2-0.4,3.1c1.4,0.2,2.6,0.4,4,0.5c0.1-1,0.3-2.1,0.4-3.2c0.4,0,0.6,0.1,1,0.1c-0.4,2.6-0.7,5.1-1,7.7
			c-0.3,0-0.6-0.1-1-0.1c0.1-1.1,0.3-2.2,0.5-3.4c-1.4-0.2-2.6-0.4-4-0.5C220.8,70.2,220.7,71.3,220.5,72.4z"/>
		<path class="st8" d="M161.8,105.6c-1.4-0.2-2.7-0.4-4-0.5c-0.1,1.1-0.3,2.3-0.5,3.4c-0.7,0.1-1.1,0.1-1-0.7c0.3-2.3,0.6-4.6,1-7.1
			c0.3,0,0.6,0,1,0c-0.2,1.1-0.3,2.2-0.5,3.3c1.4,0.2,2.6,0.4,4,0.5c0.2-1.1,0.3-2.2,0.4-3.3c0.4,0,0.6,0.1,0.9,0.1
			c0,0.1,0.1,0.2,0.1,0.3c-0.3,2.3-0.6,4.5-0.9,6.8c-0.1,0.7-0.4,0.8-1.1,0.5C161.5,108,161.6,106.8,161.8,105.6z"/>
		<path class="st7" d="M174.5,91.6c-0.1-0.4-0.2-0.6-0.2-0.9c0.8-3.3,1.7-6.6,2.6-9.9c0.1-0.2,0.3-0.4,0.5-0.5
			c0.1,0.2,0.2,0.4,0.2,0.6c-0.9,3.5-1.8,6.9-2.7,10.4C174.8,91.4,174.7,91.4,174.5,91.6z"/>
		<path class="st7" d="M152,31.1c0.1-0.2,0.1-0.5,0.2-0.7c2.3-1.9,4.7-3.8,7-5.7c0.2-0.1,0.4-0.1,0.7-0.2c0.1,0.1,0.1,0.2,0.2,0.3
			c-2.6,2.1-5.1,4.2-7.7,6.3C152.3,31.2,152.2,31.2,152,31.1z"/>
		<path class="st7" d="M155,77.7c0-0.3-0.1-0.6-0.1-0.7c0.1-0.2,0.3-0.3,0.5-0.5c2.7-2.2,5.4-4.4,8.1-6.6c0.2-0.2,0.6-0.3,0.9-0.4
			c-0.2,0.3-0.3,0.7-0.5,0.9c-2.7,2.3-5.5,4.5-8.2,6.7C155.5,77.3,155.3,77.4,155,77.7z"/>
		<path class="st7" d="M150.7,53c0.5,0,0.8-0.1,1-0.1c3.4,1.3,6.9,2.6,10.3,3.9c0.2,0.1,0.3,0.3,0.5,0.5c-0.2,0-0.5,0.2-0.7,0.1
			c-3.6-1.3-7.1-2.7-10.7-4.1C151,53.4,151,53.3,150.7,53z"/>
		<path class="st7" d="M141.7,60.9c0.6,4,1.3,8,2,12c-0.1,0.1-0.2,0.1-0.2,0.2c-0.2-0.2-0.4-0.3-0.5-0.5c-0.6-3.7-1.2-7.3-1.8-11
			c0-0.2,0.1-0.5,0.2-0.7C141.5,60.8,141.6,60.9,141.7,60.9z"/>
	</g>
</g>
</svg>
