<?xml version="1.0" encoding="utf-8"?>
<!-- Generator: Adobe Illustrator 25.1.0, SVG Export Plug-In . SVG Version: 6.00 Build 0)  -->
<svg version="1.1" id="Layer_1" xmlns="http://www.w3.org/2000/svg" xmlns:xlink="http://www.w3.org/1999/xlink" x="0px" y="0px"
	 viewBox="0 0 328.8 285.7" style="enable-background:new 0 0 328.8 285.7;" xml:space="preserve">
<style type="text/css">
	.st0{fill:#E97443;}
	.st1{fill:#FFFFFF;}
	.st2{fill:#808080;}
	.st3{fill:#32DCD2;}
	.st4{fill:#F4F1EF;}
	.st5{fill:#646464;}
	.st6{fill:#00CDDC;}
	.st7{fill:#00A878;}
	.st8{fill:#28C86E;}
	.st9{fill:none;stroke:#28C86E;stroke-width:0.8924;stroke-linecap:round;stroke-miterlimit:10;}
	.st10{fill:#FFCF8D;}
	.st11{fill:#FF9F1A;}
	.st12{fill:none;stroke:#808080;stroke-width:1.2394;stroke-miterlimit:10;}
</style>
<path class="st0" d="M19.1,176.8l4.1-11.2h2.3l4.1,11.2h-2.2l-0.9-2.6h-4.4l-0.9,2.6H19.1z M22.7,172.6H26l-1.6-4.7L22.7,172.6z"/>
<path class="st0" d="M38.7,177c-0.8,0-1.5-0.2-2.1-0.5s-1.1-0.8-1.5-1.5c-0.4-0.6-0.5-1.3-0.5-2.2c0-0.8,0.2-1.5,0.5-2.2
	c0.4-0.6,0.8-1.1,1.5-1.5c0.6-0.4,1.3-0.5,2.1-0.5c1,0,1.9,0.3,2.6,0.8s1.1,1.3,1.3,2.2h-2.2c-0.1-0.4-0.3-0.7-0.6-0.9
	s-0.7-0.3-1.1-0.3c-0.6,0-1,0.2-1.4,0.6c-0.4,0.4-0.6,1-0.6,1.8s0.2,1.4,0.6,1.8c0.4,0.4,0.9,0.6,1.4,0.6c0.4,0,0.8-0.1,1.1-0.3
	s0.5-0.5,0.6-0.9h2.2c-0.2,0.9-0.6,1.6-1.3,2.2C40.5,176.7,39.7,177,38.7,177z"/>
<path class="st0" d="M48.2,177c-0.8,0-1.5-0.2-2.1-0.5s-1.1-0.8-1.5-1.5c-0.4-0.6-0.5-1.4-0.5-2.2s0.2-1.5,0.5-2.2
	c0.4-0.6,0.8-1.1,1.5-1.5c0.6-0.4,1.3-0.5,2.1-0.5s1.4,0.2,2.1,0.5c0.6,0.3,1.1,0.8,1.5,1.5s0.5,1.4,0.5,2.2s-0.2,1.5-0.5,2.2
	c-0.4,0.6-0.8,1.1-1.5,1.5S48.9,177,48.2,177z M48.2,175.2c0.5,0,1-0.2,1.4-0.6c0.4-0.4,0.6-1,0.6-1.8s-0.2-1.4-0.6-1.8
	c-0.4-0.4-0.8-0.6-1.4-0.6c-0.5,0-1,0.2-1.4,0.6c-0.4,0.4-0.6,1-0.6,1.8s0.2,1.4,0.6,1.8C47.2,175,47.7,175.2,48.2,175.2z"/>
<path class="st0" d="M54.1,176.8v-7.9h1.8l0.2,1.1c0.3-0.4,0.6-0.7,1-0.9s0.9-0.3,1.5-0.3c1.2,0,2.1,0.5,2.6,1.4
	c0.3-0.4,0.7-0.8,1.2-1c0.5-0.3,1-0.4,1.6-0.4c1,0,1.8,0.3,2.4,0.9c0.5,0.6,0.8,1.5,0.8,2.7v4.5h-2.1v-4.3c0-0.7-0.1-1.2-0.4-1.6
	c-0.3-0.4-0.7-0.5-1.2-0.5c-0.6,0-1,0.2-1.3,0.6c-0.3,0.4-0.5,1-0.5,1.7v4.1h-2v-4.3c0-0.7-0.1-1.2-0.4-1.6
	c-0.3-0.4-0.7-0.5-1.2-0.5s-1,0.2-1.3,0.6c-0.3,0.4-0.5,1-0.5,1.7v4.1L54.1,176.8L54.1,176.8z"/>
<path class="st0" d="M69.4,176.8v-6.2h-1.1v-1.7h1.1V168c0-1,0.2-1.6,0.7-2s1.1-0.6,2-0.6H73v1.7h-0.6c-0.3,0-0.6,0.1-0.8,0.2
	c-0.2,0.1-0.2,0.4-0.2,0.7v0.9h1.7v1.7h-1.7v6.2L69.4,176.8L69.4,176.8z"/>
<path class="st0" d="M78.3,177c-0.8,0-1.5-0.2-2.1-0.5s-1.1-0.8-1.5-1.5s-0.5-1.4-0.5-2.2s0.2-1.5,0.5-2.2c0.4-0.6,0.8-1.1,1.5-1.5
	c0.6-0.4,1.3-0.5,2.1-0.5c0.8,0,1.4,0.2,2.1,0.5c0.6,0.3,1.1,0.8,1.5,1.5s0.5,1.4,0.5,2.2s-0.2,1.5-0.5,2.2
	c-0.4,0.6-0.8,1.1-1.5,1.5C79.7,176.8,79.1,177,78.3,177z M78.3,175.2c0.5,0,1-0.2,1.4-0.6c0.4-0.4,0.6-1,0.6-1.8s-0.2-1.4-0.6-1.8
	c-0.4-0.4-0.8-0.6-1.4-0.6c-0.5,0-1,0.2-1.4,0.6c-0.4,0.4-0.6,1-0.6,1.8s0.2,1.4,0.6,1.8S77.8,175.2,78.3,175.2z"/>
<path class="st0" d="M84.2,176.8v-7.9H86l0.2,1.5c0.3-0.5,0.7-0.9,1.2-1.2s1.1-0.5,1.8-0.5v2.2h-0.6c-0.5,0-0.9,0.1-1.2,0.2
	c-0.3,0.1-0.6,0.4-0.8,0.7c-0.2,0.3-0.3,0.8-0.3,1.4v3.6H84.2z"/>
<path class="st0" d="M94.1,176.8c-0.8,0-1.5-0.2-2-0.6s-0.8-1.1-0.8-2.2v-3.5H90v-1.7h1.4l0.2-2.1h1.8v2.1h2.1v1.7h-2.1v3.5
	c0,0.4,0.1,0.6,0.2,0.8c0.2,0.1,0.4,0.2,0.9,0.2h1v1.7L94.1,176.8L94.1,176.8z"/>
<path class="st0" d="M100,177c-0.7,0-1.2-0.1-1.7-0.3s-0.8-0.5-1-0.9S97,175,97,174.6c0-0.7,0.3-1.3,0.9-1.8s1.4-0.7,2.6-0.7h2v-0.2
	c0-0.5-0.2-0.9-0.5-1.2s-0.7-0.4-1.2-0.4c-0.4,0-0.8,0.1-1.1,0.3c-0.3,0.2-0.5,0.5-0.6,0.9h-2c0.1-0.6,0.2-1.1,0.6-1.5
	c0.3-0.4,0.8-0.8,1.3-1s1.1-0.3,1.8-0.3c1.1,0,2,0.3,2.7,0.9c0.6,0.6,1,1.4,1,2.4v4.9h-1.7l-0.2-1.3c-0.2,0.4-0.6,0.8-1,1.1
	C101.2,176.9,100.7,177,100,177z M100.5,175.4c0.6,0,1-0.2,1.4-0.6c0.3-0.4,0.5-0.9,0.6-1.4h-1.7c-0.5,0-0.9,0.1-1.2,0.3
	c-0.2,0.2-0.4,0.4-0.4,0.7s0.1,0.5,0.4,0.7C99.8,175.3,100.1,175.4,100.5,175.4z"/>
<path class="st0" d="M111.2,177c-0.6,0-1.1-0.1-1.6-0.3s-0.8-0.5-1.1-0.9l-0.2,1.1h-1.8v-11.5h2.1v4.7c0.3-0.4,0.6-0.7,1-0.9
	c0.4-0.3,1-0.4,1.6-0.4c0.8,0,1.4,0.2,2,0.5c0.6,0.4,1,0.9,1.4,1.5c0.3,0.6,0.5,1.3,0.5,2.1s-0.2,1.5-0.5,2.1s-0.8,1.1-1.4,1.5
	C112.6,176.8,111.9,177,111.2,177z M110.8,175.2c0.6,0,1.2-0.2,1.6-0.7c0.4-0.4,0.6-1,0.6-1.7s-0.2-1.3-0.6-1.7
	c-0.4-0.5-1-0.7-1.6-0.7c-0.7,0-1.2,0.2-1.6,0.7c-0.4,0.4-0.6,1-0.6,1.7s0.2,1.3,0.6,1.7C109.6,175,110.1,175.2,110.8,175.2z"/>
<path class="st0" d="M116.9,176.8v-11.5h2.1v11.5H116.9z"/>
<path class="st0" d="M124.9,177c-0.8,0-1.5-0.2-2.1-0.5s-1.1-0.8-1.5-1.4c-0.3-0.6-0.5-1.3-0.5-2.1s0.2-1.5,0.5-2.2
	c0.3-0.6,0.8-1.1,1.4-1.5s1.3-0.5,2.2-0.5c0.8,0,1.5,0.2,2.1,0.5s1.1,0.8,1.4,1.4c0.3,0.6,0.5,1.2,0.5,2c0,0.1,0,0.2,0,0.4
	s0,0.3,0,0.4h-6c0,0.6,0.3,1.1,0.7,1.5c0.4,0.4,0.9,0.5,1.4,0.5c0.4,0,0.8-0.1,1.1-0.3c0.3-0.2,0.5-0.4,0.6-0.7h2.1
	c-0.1,0.5-0.4,1-0.7,1.4s-0.8,0.7-1.3,1C126.1,176.9,125.6,177,124.9,177z M124.9,170.3c-0.5,0-0.9,0.1-1.3,0.4
	c-0.4,0.3-0.6,0.7-0.7,1.3h3.9c0-0.5-0.2-0.9-0.6-1.2C125.9,170.5,125.5,170.3,124.9,170.3z"/>
<path class="st0" d="M137.7,177c-0.7,0-1.3-0.1-1.9-0.3c-0.5-0.2-1-0.5-1.3-0.9s-0.5-0.9-0.6-1.4h2.1c0.1,0.3,0.2,0.6,0.5,0.8
	s0.7,0.3,1.1,0.3s0.8-0.1,1-0.3s0.3-0.4,0.3-0.6c0-0.3-0.1-0.6-0.4-0.7c-0.3-0.1-0.7-0.2-1.2-0.4c-0.3-0.1-0.7-0.2-1-0.3
	c-0.4-0.1-0.7-0.2-1-0.4s-0.5-0.4-0.7-0.6c-0.2-0.3-0.3-0.6-0.3-1c0-0.7,0.3-1.3,0.8-1.8c0.6-0.5,1.3-0.7,2.4-0.7
	c0.9,0,1.7,0.2,2.2,0.7c0.6,0.4,0.9,1,1,1.8h-1.9c-0.1-0.6-0.6-0.9-1.3-0.9c-0.4,0-0.7,0.1-0.9,0.2c-0.2,0.1-0.3,0.3-0.3,0.6
	c0,0.2,0.1,0.4,0.5,0.6c0.3,0.1,0.7,0.3,1.2,0.4c0.5,0.1,1.1,0.3,1.5,0.4c0.5,0.1,0.8,0.4,1.1,0.7s0.4,0.7,0.4,1.3
	c0,0.5-0.1,0.9-0.4,1.3c-0.3,0.4-0.6,0.7-1.1,0.9C139,176.9,138.4,177,137.7,177z"/>
<path class="st0" d="M146.7,177c-0.8,0-1.5-0.2-2.1-0.5s-1.1-0.8-1.5-1.4c-0.4-0.6-0.5-1.3-0.5-2.1s0.2-1.5,0.5-2.2
	c0.3-0.6,0.8-1.1,1.4-1.5c0.6-0.4,1.3-0.5,2.2-0.5c0.8,0,1.5,0.2,2.1,0.5s1.1,0.8,1.4,1.4c0.3,0.6,0.5,1.2,0.5,2c0,0.1,0,0.2,0,0.4
	c0,0.1,0,0.3,0,0.4h-6c0,0.6,0.3,1.1,0.6,1.5c0.4,0.4,0.9,0.5,1.4,0.5c0.4,0,0.8-0.1,1.1-0.3s0.5-0.4,0.6-0.7h2.1
	c-0.2,0.5-0.4,1-0.7,1.4s-0.8,0.7-1.3,1C147.9,176.9,147.3,177,146.7,177z M146.7,170.3c-0.5,0-0.9,0.1-1.3,0.4
	c-0.4,0.3-0.6,0.7-0.7,1.3h4c0-0.5-0.2-0.9-0.6-1.2C147.7,170.5,147.2,170.3,146.7,170.3z"/>
<path class="st0" d="M155.8,176.8c-0.8,0-1.5-0.2-2-0.6s-0.8-1.1-0.8-2.2v-3.5h-1.4v-1.7h1.4l0.2-2.1h1.8v2.1h2.1v1.7H155v3.5
	c0,0.4,0.1,0.6,0.2,0.8c0.2,0.1,0.4,0.2,0.9,0.2h1v1.7L155.8,176.8L155.8,176.8z"/>
<path class="st0" d="M162.5,176.8c-0.8,0-1.5-0.2-2-0.6s-0.8-1.1-0.8-2.2v-3.5h-1.4v-1.7h1.4l0.2-2.1h1.8v2.1h2.1v1.7h-2.1v3.5
	c0,0.4,0.1,0.6,0.2,0.8c0.2,0.1,0.4,0.2,0.9,0.2h1v1.7L162.5,176.8L162.5,176.8z"/>
<path class="st0" d="M166.8,167.6c-0.4,0-0.7-0.1-0.9-0.3s-0.4-0.5-0.4-0.9s0.1-0.6,0.4-0.8c0.2-0.2,0.6-0.3,0.9-0.3
	c0.4,0,0.7,0.1,0.9,0.3s0.4,0.5,0.4,0.8s-0.1,0.6-0.4,0.9C167.5,167.5,167.2,167.6,166.8,167.6z M165.8,176.8v-7.9h2v7.9H165.8z"/>
<path class="st0" d="M170,176.8v-7.9h1.8l0.2,1.3c0.2-0.5,0.6-0.8,1.1-1.1s1-0.4,1.6-0.4c1,0,1.7,0.3,2.3,0.9
	c0.5,0.6,0.8,1.5,0.8,2.7v4.5h-2.1v-4.3c0-0.7-0.1-1.2-0.4-1.6c-0.3-0.4-0.7-0.5-1.3-0.5s-1.1,0.2-1.4,0.6s-0.6,1-0.6,1.7v4.1H170z"
	/>
<path class="st0" d="M183.1,174.4c-0.4,0-0.7,0-1.1-0.1l-0.6,0.6c0.2,0.1,0.4,0.2,0.7,0.2c0.3,0.1,0.8,0.1,1.5,0.2
	c1.1,0.1,1.8,0.4,2.3,0.8c0.5,0.4,0.7,1,0.7,1.7c0,0.5-0.1,0.9-0.4,1.3c-0.3,0.4-0.7,0.8-1.2,1c-0.5,0.3-1.2,0.4-2.1,0.4
	c-1.1,0-2-0.2-2.7-0.6c-0.7-0.4-1-1-1-1.9c0-0.7,0.4-1.3,1-1.9c-0.2-0.1-0.4-0.2-0.6-0.3c-0.2-0.1-0.3-0.2-0.4-0.3v-0.4l1.4-1.5
	c-0.6-0.5-0.9-1.2-0.9-2.1c0-0.5,0.1-1,0.4-1.5c0.3-0.4,0.6-0.8,1.1-1c0.5-0.3,1.1-0.4,1.7-0.4c0.4,0,0.9,0.1,1.2,0.2h3v1.2
	l-1.4,0.1c0.2,0.4,0.3,0.9,0.3,1.3c0,0.5-0.1,1-0.4,1.5c-0.3,0.4-0.6,0.8-1.1,1C184.3,174.3,183.8,174.4,183.1,174.4z M181.2,177.8
	c0,0.4,0.2,0.7,0.6,0.9c0.4,0.2,0.8,0.3,1.4,0.3c0.5,0,0.9-0.1,1.2-0.3s0.5-0.5,0.5-0.8s-0.1-0.5-0.3-0.7s-0.6-0.3-1.2-0.4
	c-0.4,0-0.8-0.1-1.2-0.1c-0.3,0.2-0.5,0.4-0.7,0.6C181.2,177.4,181.2,177.6,181.2,177.8z M183.1,172.9c0.4,0,0.8-0.1,1-0.3
	c0.3-0.2,0.4-0.5,0.4-1c0-0.4-0.1-0.7-0.4-1c-0.3-0.2-0.6-0.3-1-0.3s-0.8,0.1-1.1,0.3s-0.4,0.5-0.4,1c0,0.4,0.1,0.7,0.4,1
	C182.3,172.8,182.7,172.9,183.1,172.9z"/>
<path class="st1" d="M328.7,197c0-87.1-2.5-146-4-174.8c-0.6-11.4-11.1-20.4-24-20.6c-29.3-0.4-80-1.2-110.1-1.5
	c-28.1-0.3-70.8,0.4-105.3,1.2C51.5,2.1,12.2,3.3,7,21.6c-8,28.7-6.6,87.1-6.6,139.7c0,82.7-6.3,110.1,28.5,120.5
	c35.3,10.6,216-3.6,258.6-4.9C331.6,275.7,328.7,281.3,328.7,197z"/>
<path class="st2" d="M27.9,134.2v-10.1h-3.3V123h8v1.1h-3.3v10.1H27.9z"/>
<path class="st2" d="M34.2,134.2v-11.5h1.3v4.9c0.3-0.5,0.6-0.9,1.1-1.1c0.5-0.3,1-0.4,1.6-0.4c0.9,0,1.7,0.3,2.2,0.9
	c0.6,0.6,0.8,1.5,0.8,2.6v4.6H40v-4.5c0-1.6-0.7-2.5-2-2.5c-0.7,0-1.3,0.2-1.7,0.7c-0.5,0.5-0.7,1.2-0.7,2.1v4.1L34.2,134.2
	L34.2,134.2z"/>
<path class="st2" d="M46.9,134.4c-0.8,0-1.4-0.2-2-0.5c-0.6-0.4-1-0.8-1.4-1.4c-0.3-0.6-0.5-1.4-0.5-2.2s0.2-1.6,0.5-2.2
	c0.3-0.6,0.8-1.1,1.4-1.5c0.6-0.3,1.3-0.5,2.1-0.5s1.4,0.2,2,0.5c0.6,0.4,1,0.8,1.3,1.4c0.3,0.6,0.4,1.2,0.4,1.8c0,0.1,0,0.2,0,0.4
	c0,0.1,0,0.2,0,0.4h-6.3c0,0.6,0.2,1.1,0.4,1.5s0.6,0.7,0.9,0.9c0.4,0.2,0.8,0.3,1.2,0.3c0.5,0,1-0.1,1.4-0.4c0.4-0.3,0.6-0.6,0.8-1
	h1.3c-0.2,0.7-0.6,1.4-1.2,1.8C48.6,134.1,47.8,134.4,46.9,134.4z M46.9,127.2c-0.6,0-1.2,0.2-1.7,0.6s-0.8,1-0.9,1.7h5
	c0-0.7-0.3-1.3-0.7-1.7C48.1,127.4,47.6,127.2,46.9,127.2z"/>
<path class="st2" d="M57.1,134.2v-6.8h-1.2v-1.1h1.2v-1.4c0-0.8,0.2-1.3,0.6-1.7c0.4-0.3,0.9-0.5,1.7-0.5h0.8v1.1h-0.6
	c-0.4,0-0.7,0.1-0.9,0.2c-0.2,0.2-0.3,0.5-0.3,0.8v1.3h4.9v7.9H62v-6.8h-3.6v6.8L57.1,134.2L57.1,134.2z M62.7,124.7
	c-0.3,0-0.5-0.1-0.7-0.3c-0.2-0.2-0.3-0.4-0.3-0.7c0-0.3,0.1-0.5,0.3-0.6c0.2-0.2,0.4-0.3,0.7-0.3s0.5,0.1,0.7,0.3
	c0.2,0.2,0.3,0.4,0.3,0.6c0,0.3-0.1,0.5-0.3,0.7C63.2,124.6,63,124.7,62.7,124.7z"/>
<path class="st2" d="M65.7,134.2v-7.9H67l0.1,1.5c0.2-0.5,0.6-0.9,1.1-1.2s1.1-0.5,1.9-0.5v1.4h-0.4c-0.5,0-0.9,0.1-1.3,0.2
	c-0.4,0.2-0.7,0.4-0.9,0.8c-0.2,0.4-0.3,0.9-0.3,1.6v4L65.7,134.2L65.7,134.2z"/>
<path class="st2" d="M74.6,134.4c-0.9,0-1.7-0.2-2.4-0.7c-0.6-0.5-1-1.1-1.1-2h1.4c0.1,0.4,0.3,0.8,0.7,1.1c0.4,0.3,0.8,0.5,1.4,0.5
	s1-0.1,1.2-0.4c0.3-0.2,0.4-0.5,0.4-0.9c0-0.5-0.2-0.8-0.5-1s-0.8-0.3-1.5-0.4c-0.4-0.1-0.8-0.2-1.3-0.4s-0.8-0.4-1.1-0.7
	c-0.3-0.3-0.4-0.7-0.4-1.2c0-0.7,0.3-1.3,0.8-1.7c0.5-0.4,1.2-0.7,2.1-0.7c0.8,0,1.5,0.2,2.1,0.6c0.5,0.4,0.9,1,0.9,1.8H76
	c0-0.4-0.2-0.7-0.5-0.9s-0.7-0.3-1.2-0.3s-0.8,0.1-1.1,0.3c-0.3,0.2-0.4,0.5-0.4,0.8c0,0.3,0.2,0.6,0.5,0.8s0.8,0.3,1.4,0.5
	c0.5,0.1,1,0.2,1.4,0.4c0.4,0.1,0.8,0.4,1.1,0.7c0.3,0.3,0.4,0.7,0.4,1.3c0,0.7-0.3,1.3-0.8,1.8C76.3,134.1,75.5,134.4,74.6,134.4z"
	/>
<path class="st2" d="M82.3,134.2c-0.7,0-1.3-0.2-1.7-0.5c-0.4-0.4-0.6-1-0.6-1.9v-4.4h-1.4v-1.1H80l0.2-1.9h1.2v1.9h2.3v1.1h-2.3
	v4.4c0,0.5,0.1,0.8,0.3,1c0.2,0.2,0.6,0.3,1.1,0.3h0.8v1.2h-1.3V134.2z"/>
<path class="st2" d="M92.7,134.4c-0.9,0-1.7-0.2-2.4-0.7c-0.6-0.5-1-1.1-1.1-2h1.4c0.1,0.4,0.3,0.8,0.7,1.1c0.4,0.3,0.8,0.5,1.5,0.5
	c0.6,0,1-0.1,1.2-0.4c0.3-0.2,0.4-0.5,0.4-0.9c0-0.5-0.2-0.8-0.5-1s-0.8-0.3-1.5-0.4c-0.4-0.1-0.8-0.2-1.3-0.4s-0.8-0.4-1.1-0.7
	c-0.3-0.3-0.4-0.7-0.4-1.2c0-0.7,0.3-1.3,0.8-1.7c0.5-0.4,1.2-0.7,2.1-0.7c0.8,0,1.5,0.2,2.1,0.6c0.5,0.4,0.8,1,0.9,1.8h-1.3
	c-0.1-0.4-0.2-0.7-0.5-0.9s-0.7-0.3-1.2-0.3s-0.9,0.1-1.1,0.3c-0.3,0.2-0.4,0.5-0.4,0.8c0,0.3,0.2,0.6,0.5,0.8s0.8,0.3,1.4,0.5
	c0.5,0.1,1,0.2,1.4,0.4s0.8,0.4,1.1,0.7c0.3,0.3,0.4,0.7,0.4,1.3c0,0.7-0.3,1.3-0.8,1.8C94.4,134.1,93.6,134.4,92.7,134.4z"/>
<path class="st2" d="M100.4,134.2c-0.7,0-1.3-0.2-1.7-0.5c-0.4-0.4-0.6-1-0.6-1.9v-4.4h-1.4v-1.1h1.4l0.2-1.9h1.2v1.9h2.3v1.1h-2.3
	v4.4c0,0.5,0.1,0.8,0.3,1c0.2,0.2,0.6,0.3,1.1,0.3h0.8v1.2h-1.3V134.2z"/>
<path class="st2" d="M106.8,134.4c-0.8,0-1.4-0.2-2-0.5c-0.6-0.4-1.1-0.8-1.4-1.4c-0.3-0.6-0.5-1.4-0.5-2.2s0.2-1.6,0.5-2.2
	c0.3-0.6,0.8-1.1,1.4-1.5c0.6-0.3,1.3-0.5,2.1-0.5c0.8,0,1.4,0.2,2,0.5c0.6,0.4,1,0.8,1.3,1.4c0.3,0.6,0.4,1.2,0.4,1.8
	c0,0.1,0,0.2,0,0.4c0,0.1,0,0.2,0,0.4h-6.3c0,0.6,0.2,1.1,0.4,1.5c0.2,0.4,0.6,0.7,0.9,0.9c0.4,0.2,0.8,0.3,1.2,0.3
	c0.5,0,1-0.1,1.4-0.4c0.4-0.3,0.6-0.6,0.8-1h1.3c-0.2,0.7-0.6,1.4-1.2,1.8C108.5,134.1,107.8,134.4,106.8,134.4z M106.8,127.2
	c-0.6,0-1.2,0.2-1.7,0.6s-0.8,1-0.9,1.7h5c0-0.7-0.3-1.3-0.7-1.7C108.1,127.4,107.5,127.2,106.8,127.2z"/>
<path class="st2" d="M112.3,137.7v-11.5h1.2l0.1,1.3c0.3-0.4,0.6-0.7,1.1-1s1.1-0.5,1.8-0.5c0.8,0,1.5,0.2,2.1,0.5
	c0.6,0.4,1,0.9,1.4,1.5c0.3,0.6,0.5,1.3,0.5,2.1s-0.2,1.5-0.5,2.1s-0.8,1.1-1.4,1.5s-1.3,0.5-2.1,0.5c-0.7,0-1.2-0.1-1.7-0.4
	c-0.5-0.3-0.9-0.6-1.2-1.1v4.9L112.3,137.7L112.3,137.7z M116.4,133.2c0.5,0,1-0.1,1.4-0.4s0.7-0.6,1-1.1c0.2-0.4,0.3-1,0.3-1.6
	s-0.1-1.1-0.3-1.6c-0.2-0.4-0.6-0.8-1-1s-0.9-0.4-1.4-0.4s-1,0.1-1.4,0.4c-0.4,0.2-0.7,0.6-1,1c-0.2,0.5-0.4,1-0.4,1.6
	s0.1,1.1,0.4,1.6c0.2,0.5,0.6,0.8,1,1.1S115.9,133.2,116.4,133.2z"/>
<path class="st2" d="M127.5,124.5c-0.3,0-0.5-0.1-0.7-0.3c-0.2-0.2-0.3-0.4-0.3-0.7c0-0.3,0.1-0.5,0.3-0.6c0.2-0.2,0.4-0.3,0.7-0.3
	c0.3,0,0.5,0.1,0.7,0.3c0.2,0.2,0.3,0.4,0.3,0.6c0,0.3-0.1,0.5-0.3,0.7C127.9,124.4,127.7,124.5,127.5,124.5z M126.8,134.2v-7.9h1.3
	v7.9H126.8z"/>
<path class="st2" d="M133.5,134.4c-0.9,0-1.7-0.2-2.4-0.7c-0.6-0.5-1-1.1-1.1-2h1.4c0.1,0.4,0.3,0.8,0.7,1.1s0.8,0.5,1.4,0.5
	c0.6,0,1-0.1,1.2-0.4s0.4-0.5,0.4-0.9c0-0.5-0.2-0.8-0.5-1c-0.4-0.2-0.8-0.3-1.5-0.4c-0.4-0.1-0.8-0.2-1.3-0.4
	c-0.4-0.2-0.8-0.4-1.1-0.7s-0.4-0.7-0.4-1.2c0-0.7,0.3-1.3,0.8-1.7c0.5-0.4,1.2-0.7,2.1-0.7c0.8,0,1.5,0.2,2.1,0.6
	c0.5,0.4,0.9,1,0.9,1.8H135c-0.1-0.4-0.2-0.7-0.5-0.9c-0.3-0.2-0.7-0.3-1.2-0.3s-0.9,0.1-1.1,0.3c-0.3,0.2-0.4,0.5-0.4,0.8
	c0,0.3,0.2,0.6,0.5,0.8s0.8,0.3,1.4,0.5c0.5,0.1,1,0.2,1.4,0.4s0.8,0.4,1.1,0.7s0.4,0.7,0.4,1.3c0,0.7-0.3,1.3-0.8,1.8
	C135.2,134.1,134.4,134.4,133.5,134.4z"/>
<path class="st2" d="M145.8,134.2c-0.7,0-1.3-0.2-1.7-0.5c-0.4-0.4-0.6-1-0.6-1.9v-4.4h-1.4v-1.1h1.4l0.2-1.9h1.2v1.9h2.3v1.1h-2.3
	v4.4c0,0.5,0.1,0.8,0.3,1s0.6,0.3,1.1,0.3h0.8v1.2h-1.3V134.2z"/>
<path class="st2" d="M152.3,134.4c-0.8,0-1.4-0.2-2-0.5s-1.1-0.8-1.4-1.5c-0.4-0.6-0.5-1.4-0.5-2.2s0.2-1.6,0.5-2.2
	c0.4-0.6,0.8-1.1,1.4-1.4c0.6-0.3,1.3-0.5,2-0.5c0.8,0,1.4,0.2,2,0.5s1.1,0.8,1.4,1.4c0.4,0.6,0.5,1.4,0.5,2.2s-0.2,1.6-0.5,2.2
	c-0.4,0.6-0.8,1.1-1.4,1.5C153.7,134.2,153,134.4,152.3,134.4z M152.3,133.2c0.5,0,0.9-0.1,1.3-0.3c0.4-0.2,0.7-0.6,1-1
	s0.4-1,0.4-1.7s-0.1-1.2-0.4-1.7c-0.2-0.4-0.6-0.8-0.9-1s-0.8-0.3-1.3-0.3s-0.9,0.1-1.3,0.3c-0.4,0.2-0.7,0.6-1,1
	c-0.2,0.5-0.4,1-0.4,1.7s0.1,1.2,0.4,1.7c0.2,0.4,0.6,0.8,0.9,1C151.4,133.1,151.8,133.2,152.3,133.2z"/>
<path class="st2" d="M165.9,134.4c-0.8,0-1.4-0.2-2-0.5c-0.6-0.4-1-0.8-1.4-1.4c-0.3-0.6-0.5-1.4-0.5-2.2s0.2-1.6,0.5-2.2
	c0.3-0.6,0.8-1.1,1.4-1.5c0.6-0.3,1.3-0.5,2.1-0.5s1.4,0.2,2,0.5c0.6,0.4,1,0.8,1.3,1.4c0.3,0.6,0.4,1.2,0.4,1.8c0,0.1,0,0.2,0,0.4
	c0,0.1,0,0.2,0,0.4h-6.3c0,0.6,0.2,1.1,0.4,1.5s0.6,0.7,0.9,0.9c0.4,0.2,0.8,0.3,1.2,0.3c0.6,0,1-0.1,1.4-0.4c0.4-0.2,0.7-0.6,0.8-1
	h1.3c-0.2,0.7-0.6,1.4-1.2,1.8C167.7,134.1,166.9,134.4,165.9,134.4z M165.9,127.2c-0.6,0-1.2,0.2-1.7,0.6s-0.8,1-0.9,1.7h5
	c0-0.7-0.3-1.3-0.7-1.7C167.2,127.4,166.6,127.2,165.9,127.2z"/>
<path class="st2" d="M171.5,134.2v-7.9h1.2l0.1,1.4c0.3-0.5,0.6-0.9,1.1-1.2c0.5-0.3,1-0.4,1.6-0.4c0.9,0,1.7,0.3,2.2,0.9
	c0.6,0.6,0.8,1.5,0.8,2.6v4.6h-1.3v-4.5c0-1.6-0.7-2.5-2.1-2.5c-0.7,0-1.2,0.2-1.7,0.7c-0.4,0.5-0.7,1.2-0.7,2.1v4.1L171.5,134.2
	L171.5,134.2z"/>
<path class="st2" d="M183.7,134.4c-0.9,0-1.7-0.2-2.4-0.7c-0.6-0.5-1-1.1-1.1-2h1.4c0.1,0.4,0.3,0.8,0.7,1.1s0.8,0.5,1.4,0.5
	c0.6,0,1-0.1,1.2-0.4s0.4-0.5,0.4-0.9c0-0.5-0.2-0.8-0.5-1c-0.4-0.2-0.8-0.3-1.5-0.4c-0.4-0.1-0.8-0.2-1.3-0.4
	c-0.4-0.2-0.8-0.4-1.1-0.7s-0.4-0.7-0.4-1.2c0-0.7,0.3-1.3,0.8-1.7c0.5-0.4,1.2-0.7,2.1-0.7c0.8,0,1.5,0.2,2.1,0.6
	c0.5,0.4,0.9,1,0.9,1.8h-1.3c0-0.4-0.2-0.7-0.5-0.9c-0.3-0.2-0.7-0.3-1.2-0.3s-0.8,0.1-1.1,0.3c-0.3,0.2-0.4,0.5-0.4,0.8
	c0,0.3,0.2,0.6,0.5,0.8s0.8,0.3,1.4,0.5c0.5,0.1,1,0.2,1.4,0.4s0.8,0.4,1.1,0.7s0.4,0.7,0.4,1.3c0,0.7-0.3,1.3-0.8,1.8
	C185.4,134.1,184.6,134.4,183.7,134.4z"/>
<path class="st2" d="M191.5,134.4c-0.9,0-1.7-0.3-2.2-0.9s-0.8-1.4-0.8-2.6v-4.6h1.3v4.5c0,1.7,0.7,2.5,2,2.5c0.7,0,1.3-0.2,1.7-0.7
	s0.7-1.2,0.7-2.1v-4.1h1.3v7.9h-1.2l-0.1-1.4c-0.2,0.5-0.6,0.9-1.1,1.2C192.7,134.2,192.1,134.4,191.5,134.4z"/>
<path class="st2" d="M197.8,134.2v-7.9h1.2l0.1,1.5c0.2-0.5,0.6-0.9,1.1-1.2s1.1-0.5,1.9-0.5v1.4h-0.4c-0.5,0-0.9,0.1-1.3,0.2
	c-0.4,0.2-0.7,0.4-0.9,0.8c-0.2,0.4-0.4,0.9-0.4,1.6v4L197.8,134.2L197.8,134.2z"/>
<path class="st2" d="M206.9,134.4c-0.8,0-1.4-0.2-2-0.5c-0.6-0.4-1.1-0.8-1.4-1.4c-0.3-0.6-0.5-1.4-0.5-2.2s0.2-1.6,0.5-2.2
	c0.3-0.6,0.8-1.1,1.4-1.5c0.6-0.3,1.3-0.5,2.1-0.5s1.4,0.2,2,0.5c0.6,0.4,1,0.8,1.3,1.4c0.3,0.6,0.4,1.2,0.4,1.8c0,0.1,0,0.2,0,0.4
	c0,0.1,0,0.2,0,0.4h-6.3c0,0.6,0.2,1.1,0.4,1.5s0.6,0.7,0.9,0.9c0.4,0.2,0.8,0.3,1.2,0.3c0.6,0,1-0.1,1.4-0.4c0.4-0.3,0.7-0.6,0.8-1
	h1.3c-0.2,0.7-0.6,1.4-1.2,1.8C208.6,134.1,207.8,134.4,206.9,134.4z M206.9,127.2c-0.6,0-1.2,0.2-1.7,0.6s-0.8,1-0.9,1.7h5
	c0-0.7-0.3-1.3-0.7-1.7C208.1,127.4,207.5,127.2,206.9,127.2z"/>
<path class="st2" d="M217.5,137.7l2-4.3H219l-3.1-7.2h1.5l2.6,6.2l2.8-6.2h1.4l-5.2,11.5H217.5z"/>
<path class="st2" d="M228.4,134.4c-0.8,0-1.4-0.2-2-0.5s-1.1-0.8-1.4-1.5c-0.4-0.6-0.5-1.4-0.5-2.2s0.2-1.6,0.5-2.2
	c0.4-0.6,0.8-1.1,1.4-1.4c0.6-0.3,1.3-0.5,2-0.5c0.8,0,1.4,0.2,2,0.5s1.1,0.8,1.4,1.4c0.4,0.6,0.5,1.4,0.5,2.2s-0.2,1.6-0.5,2.2
	c-0.4,0.6-0.8,1.1-1.4,1.5C229.8,134.2,229.1,134.4,228.4,134.4z M228.4,133.2c0.5,0,0.9-0.1,1.3-0.3c0.4-0.2,0.7-0.6,1-1
	s0.4-1,0.4-1.7s-0.1-1.2-0.4-1.7c-0.2-0.4-0.6-0.8-0.9-1s-0.8-0.3-1.3-0.3s-0.9,0.1-1.3,0.3s-0.7,0.6-1,1c-0.2,0.5-0.4,1-0.4,1.7
	s0.1,1.2,0.4,1.7c0.2,0.4,0.6,0.8,0.9,1C227.5,133.1,227.9,133.2,228.4,133.2z"/>
<path class="st2" d="M237.1,134.4c-0.9,0-1.7-0.3-2.2-0.9c-0.6-0.6-0.8-1.4-0.8-2.6v-4.6h1.3v4.5c0,1.7,0.7,2.5,2,2.5
	c0.7,0,1.3-0.2,1.7-0.7s0.7-1.2,0.7-2.1v-4.1h1.3v7.9H240l-0.1-1.4c-0.2,0.5-0.6,0.9-1.1,1.2C238.3,134.2,237.8,134.4,237.1,134.4z"
	/>
<path class="st2" d="M29.5,156.4c-0.6,0-1.2-0.1-1.7-0.4c-0.5-0.3-0.9-0.6-1.2-1.1l-0.1,1.3h-1.2v-11.5h1.3v4.9
	c0.3-0.4,0.6-0.7,1.1-1s1.1-0.5,1.8-0.5c0.8,0,1.5,0.2,2.1,0.5c0.6,0.4,1,0.9,1.4,1.5c0.3,0.6,0.5,1.3,0.5,2.1s-0.2,1.5-0.5,2.1
	s-0.8,1.1-1.4,1.5C30.9,156.2,30.2,156.4,29.5,156.4z M29.3,155.2c0.5,0,1-0.1,1.4-0.4s0.7-0.6,1-1c0.2-0.5,0.4-1,0.4-1.6
	s-0.1-1.1-0.4-1.6c-0.2-0.4-0.5-0.8-1-1s-0.9-0.4-1.4-0.4s-1,0.1-1.4,0.4s-0.7,0.6-1,1c-0.2,0.5-0.3,1-0.3,1.6s0.1,1.1,0.3,1.6
	c0.2,0.4,0.6,0.8,1,1C28.3,155.1,28.8,155.2,29.3,155.2z"/>
<path class="st2" d="M38.8,156.4c-0.8,0-1.4-0.2-2-0.5s-1-0.8-1.4-1.4c-0.3-0.6-0.5-1.4-0.5-2.2s0.2-1.6,0.5-2.2
	c0.3-0.6,0.8-1.1,1.4-1.5s1.3-0.5,2.1-0.5s1.4,0.2,2,0.5c0.6,0.4,1,0.8,1.3,1.4c0.3,0.6,0.5,1.2,0.5,1.8c0,0.1,0,0.2,0,0.4
	c0,0.1,0,0.2,0,0.4h-6.3c0,0.6,0.2,1.1,0.4,1.5s0.6,0.7,0.9,0.9c0.4,0.2,0.8,0.3,1.2,0.3c0.6,0,1-0.1,1.4-0.4c0.4-0.2,0.7-0.6,0.8-1
	h1.3c-0.2,0.7-0.6,1.4-1.2,1.8C40.5,156.1,39.8,156.4,38.8,156.4z M38.8,149.2c-0.6,0-1.2,0.2-1.7,0.6c-0.5,0.4-0.8,1-0.9,1.7h5
	c0-0.7-0.3-1.3-0.7-1.7C40.1,149.4,39.5,149.2,38.8,149.2z"/>
<path class="st2" d="M48,156.4c-0.8,0-1.5-0.2-2.1-0.5c-0.6-0.4-1.1-0.9-1.4-1.5c-0.3-0.6-0.5-1.3-0.5-2.1s0.2-1.5,0.5-2.1
	s0.8-1.1,1.4-1.5c0.6-0.4,1.3-0.5,2.1-0.5c0.7,0,1.2,0.1,1.7,0.4s0.9,0.6,1.2,1.1v-4.9h1.3v11.5H51l-0.1-1.3c-0.3,0.4-0.6,0.7-1.1,1
	S48.7,156.4,48,156.4z M48.1,155.2c0.5,0,1-0.1,1.4-0.4c0.4-0.2,0.7-0.6,1-1c0.2-0.5,0.3-1,0.3-1.6s-0.1-1.1-0.3-1.6
	c-0.2-0.4-0.5-0.8-1-1c-0.4-0.2-0.9-0.4-1.4-0.4s-1,0.1-1.4,0.4s-0.7,0.6-1,1c-0.2,0.5-0.3,1-0.3,1.6s0.1,1.1,0.3,1.6
	c0.2,0.4,0.5,0.8,1,1C47.1,155.1,47.6,155.2,48.1,155.2z"/>
<path class="st2" d="M54.4,156.2v-7.9h1.2l0.1,1.5c0.2-0.5,0.6-0.9,1.1-1.2s1.1-0.5,1.9-0.5v1.4h-0.4c-0.5,0-0.9,0.1-1.3,0.2
	c-0.4,0.2-0.7,0.4-0.9,0.8c-0.2,0.4-0.4,0.9-0.4,1.6v4L54.4,156.2L54.4,156.2z"/>
<path class="st2" d="M63.5,156.4c-0.8,0-1.4-0.2-2-0.5s-1.1-0.8-1.4-1.5s-0.5-1.4-0.5-2.2s0.2-1.6,0.5-2.2s0.8-1.1,1.4-1.5
	c0.6-0.3,1.3-0.5,2-0.5c0.7,0,1.4,0.2,2,0.5s1.1,0.8,1.4,1.5c0.3,0.6,0.5,1.4,0.5,2.2s-0.2,1.6-0.5,2.2s-0.8,1.1-1.4,1.5
	C65,156.2,64.3,156.4,63.5,156.4z M63.5,155.2c0.5,0,0.9-0.1,1.3-0.3s0.7-0.6,1-1c0.2-0.4,0.4-1,0.4-1.7s-0.1-1.2-0.4-1.7
	s-0.6-0.8-1-1s-0.8-0.3-1.3-0.3c-0.5,0-0.9,0.1-1.3,0.3s-0.7,0.6-1,1c-0.2,0.4-0.4,1-0.4,1.7s0.1,1.2,0.4,1.7c0.2,0.4,0.6,0.8,1,1
	C62.7,155.1,63.1,155.2,63.5,155.2z"/>
<path class="st2" d="M73,156.4c-0.8,0-1.4-0.2-2-0.5s-1.1-0.8-1.4-1.5S69,153,69,152.2s0.2-1.6,0.5-2.2c0.3-0.6,0.8-1.1,1.4-1.5
	c0.6-0.3,1.3-0.5,2-0.5s1.4,0.2,2,0.5s1.1,0.8,1.4,1.5c0.3,0.6,0.5,1.4,0.5,2.2s-0.2,1.6-0.5,2.2s-0.8,1.1-1.4,1.5
	S73.8,156.4,73,156.4z M73,155.2c0.5,0,0.9-0.1,1.3-0.3s0.7-0.6,1-1c0.2-0.4,0.4-1,0.4-1.7s-0.1-1.2-0.4-1.7c-0.2-0.4-0.6-0.8-1-1
	s-0.8-0.3-1.3-0.3s-0.9,0.1-1.3,0.3s-0.7,0.6-1,1c-0.2,0.4-0.4,1-0.4,1.7s0.1,1.2,0.4,1.7c0.2,0.4,0.6,0.8,1,1
	C72.1,155.1,72.6,155.2,73,155.2z"/>
<path class="st2" d="M78.9,156.2v-7.9h1.2l0.1,1.1c0.3-0.4,0.6-0.8,1-1s0.9-0.4,1.4-0.4c0.6,0,1.2,0.1,1.6,0.4
	c0.5,0.3,0.8,0.6,1.1,1.2c0.3-0.5,0.7-0.9,1.1-1.1c0.5-0.3,1-0.4,1.6-0.4c0.9,0,1.7,0.3,2.3,0.9c0.6,0.6,0.9,1.4,0.9,2.6v4.6h-1.3
	v-4.5c0-0.8-0.2-1.4-0.5-1.9c-0.3-0.4-0.8-0.6-1.4-0.6s-1.2,0.2-1.6,0.7s-0.6,1.2-0.6,2.1v4.1h-1.3v-4.5c0-0.8-0.2-1.4-0.5-1.9
	c-0.3-0.4-0.8-0.6-1.4-0.6s-1.2,0.2-1.6,0.7s-0.6,1.2-0.6,2.1v4.1L78.9,156.2L78.9,156.2z"/>
<path class="st2" d="M98.2,146.5c-0.3,0-0.5-0.1-0.7-0.3s-0.3-0.4-0.3-0.7s0.1-0.5,0.3-0.6c0.2-0.2,0.4-0.3,0.7-0.3
	c0.3,0,0.5,0.1,0.7,0.3s0.3,0.4,0.3,0.6c0,0.3-0.1,0.5-0.3,0.7C98.7,146.4,98.5,146.5,98.2,146.5z M97.6,156.2v-7.9h1.3v7.9H97.6z"
	/>
<path class="st2" d="M104.3,156.4c-1,0-1.7-0.2-2.4-0.7c-0.6-0.5-1-1.1-1.1-2h1.4c0.1,0.4,0.3,0.8,0.7,1.1c0.4,0.3,0.8,0.5,1.4,0.5
	s1-0.1,1.2-0.4c0.3-0.2,0.4-0.5,0.4-0.9c0-0.5-0.2-0.8-0.5-1c-0.4-0.2-0.8-0.3-1.5-0.4c-0.4-0.1-0.9-0.2-1.3-0.4s-0.8-0.4-1.1-0.7
	c-0.3-0.3-0.4-0.7-0.4-1.2c0-0.7,0.3-1.3,0.8-1.7s1.2-0.7,2.1-0.7c0.8,0,1.5,0.2,2.1,0.6c0.5,0.4,0.8,1,0.9,1.8h-1.3
	c-0.1-0.4-0.2-0.7-0.5-1s-0.7-0.3-1.2-0.3s-0.8,0.1-1.1,0.3c-0.3,0.2-0.4,0.5-0.4,0.8s0.2,0.6,0.5,0.8s0.8,0.3,1.4,0.5
	c0.5,0.1,1,0.2,1.4,0.4c0.4,0.1,0.8,0.4,1.1,0.7c0.3,0.3,0.4,0.7,0.4,1.3c0,0.7-0.3,1.3-0.8,1.8C106,156.1,105.2,156.4,104.3,156.4z
	"/>
<path class="st2" d="M117.1,156.4c-0.8,0-1.5-0.2-2.1-0.5c-0.6-0.4-1.1-0.9-1.4-1.5s-0.5-1.3-0.5-2.1s0.2-1.5,0.5-2.1
	s0.8-1.1,1.4-1.5s1.3-0.5,2.1-0.5c0.6,0,1.2,0.1,1.7,0.4s0.9,0.6,1.2,1.1v-4.9h1.3v11.5h-1.2L120,155c-0.3,0.4-0.6,0.7-1.1,1
	C118.4,156.2,117.8,156.4,117.1,156.4z M117.2,155.2c0.5,0,1-0.1,1.4-0.4c0.4-0.2,0.7-0.6,1-1c0.2-0.5,0.3-1,0.3-1.6
	s-0.1-1.1-0.3-1.6c-0.2-0.4-0.6-0.8-1-1s-0.9-0.4-1.4-0.4s-1,0.1-1.4,0.4s-0.7,0.6-1,1c-0.2,0.5-0.3,1-0.3,1.6s0.1,1.1,0.3,1.6
	c0.2,0.4,0.6,0.8,1,1C116.2,155.1,116.7,155.2,117.2,155.2z"/>
<path class="st2" d="M126.2,156.4c-0.7,0-1.2-0.1-1.6-0.3s-0.8-0.5-1-0.9s-0.3-0.8-0.3-1.2c0-0.8,0.3-1.4,0.9-1.9
	c0.6-0.4,1.5-0.7,2.5-0.7h2.1v-0.1c0-0.7-0.2-1.2-0.5-1.6c-0.4-0.4-0.8-0.5-1.5-0.5c-0.5,0-1,0.1-1.4,0.4c-0.4,0.3-0.6,0.6-0.7,1.1
	h-1.4c0.1-0.6,0.2-1.1,0.6-1.5c0.3-0.4,0.8-0.7,1.3-0.9s1-0.3,1.6-0.3c1.1,0,1.9,0.3,2.5,0.9s0.8,1.4,0.8,2.4v4.9H129l-0.1-1.4
	c-0.2,0.5-0.6,0.8-1,1.1S126.9,156.4,126.2,156.4z M126.4,155.2c0.5,0,0.9-0.1,1.3-0.4c0.4-0.3,0.7-0.6,0.8-1
	c0.2-0.4,0.3-0.9,0.3-1.3l0,0h-2c-0.8,0-1.3,0.1-1.7,0.4c-0.3,0.3-0.5,0.6-0.5,1s0.2,0.8,0.5,1C125.4,155.1,125.8,155.2,126.4,155.2
	z"/>
<path class="st2" d="M132.2,156.2v-7.9h1.2l0.1,1.5c0.2-0.5,0.6-0.9,1.1-1.2s1.1-0.5,1.9-0.5v1.4h-0.4c-0.5,0-0.9,0.1-1.3,0.2
	c-0.4,0.2-0.7,0.4-0.9,0.8c-0.2,0.4-0.4,0.9-0.4,1.6v4L132.2,156.2L132.2,156.2z"/>
<path class="st2" d="M138,156.2v-11.5h1.3v6.9l3.2-3.3h1.7l-3.5,3.6l4,4.4H143l-3.6-4.1v4.1L138,156.2L138,156.2z"/>
<path class="st2" d="M145,158.1l0.9-3.5h1.4l-1.4,3.5H145z"/>
<path class="st2" d="M159.7,159.7v-4.8c-0.3,0.4-0.6,0.7-1.1,1s-1.1,0.5-1.8,0.5c-0.8,0-1.5-0.2-2.1-0.5c-0.6-0.4-1-0.9-1.4-1.5
	c-0.3-0.6-0.5-1.3-0.5-2.1s0.2-1.5,0.5-2.1s0.8-1.1,1.4-1.5c0.6-0.4,1.3-0.5,2.1-0.5c0.6,0,1.2,0.1,1.7,0.4s0.9,0.6,1.2,1.1l0.1-1.3
	h1.2v11.5h-1.3V159.7z M156.9,155.2c0.5,0,1-0.1,1.4-0.4c0.4-0.2,0.7-0.6,1-1c0.2-0.5,0.3-1,0.3-1.6s-0.1-1.1-0.3-1.6
	c-0.2-0.4-0.6-0.8-1-1s-0.9-0.4-1.4-0.4s-1,0.1-1.4,0.4s-0.7,0.6-1,1c-0.2,0.5-0.3,1-0.3,1.6s0.1,1.1,0.3,1.6c0.2,0.4,0.6,0.8,1,1
	C155.9,155.1,156.4,155.2,156.9,155.2z"/>
<path class="st2" d="M166.1,156.4c-0.9,0-1.7-0.3-2.2-0.9s-0.8-1.5-0.8-2.6v-4.6h1.3v4.5c0,1.6,0.7,2.5,2,2.5c0.7,0,1.3-0.2,1.7-0.7
	c0.5-0.5,0.7-1.2,0.7-2.1v-4.1h1.3v7.9h-1.2l-0.1-1.4c-0.2,0.5-0.6,0.9-1.1,1.2C167.2,156.2,166.7,156.4,166.1,156.4z"/>
<path class="st2" d="M173.2,146.5c-0.3,0-0.5-0.1-0.7-0.3s-0.3-0.4-0.3-0.7s0.1-0.5,0.3-0.6c0.2-0.2,0.4-0.3,0.7-0.3
	s0.5,0.1,0.7,0.3s0.3,0.4,0.3,0.6c0,0.3-0.1,0.5-0.3,0.7C173.6,146.4,173.4,146.5,173.2,146.5z M172.5,156.2v-7.9h1.3v7.9H172.5z"/>
<path class="st2" d="M179.7,156.4c-0.8,0-1.4-0.2-2-0.5s-1.1-0.8-1.4-1.4c-0.3-0.6-0.5-1.4-0.5-2.2s0.2-1.6,0.5-2.2
	c0.3-0.6,0.8-1.1,1.4-1.5s1.3-0.5,2.1-0.5s1.4,0.2,2,0.5s1,0.8,1.3,1.4s0.4,1.2,0.4,1.8c0,0.1,0,0.2,0,0.4s0,0.2,0,0.4h-6.3
	c0,0.6,0.2,1.1,0.4,1.5s0.6,0.7,0.9,0.9c0.4,0.2,0.8,0.3,1.2,0.3c0.5,0,1-0.1,1.4-0.4c0.4-0.2,0.6-0.6,0.8-1h1.3
	c-0.2,0.7-0.6,1.4-1.2,1.8S180.7,156.4,179.7,156.4z M179.7,149.2c-0.6,0-1.2,0.2-1.7,0.6c-0.5,0.4-0.8,1-0.9,1.7h5
	c0-0.7-0.3-1.3-0.7-1.7C181,149.4,180.4,149.2,179.7,149.2z"/>
<path class="st2" d="M188.1,156.2c-0.7,0-1.3-0.2-1.7-0.5c-0.4-0.4-0.6-1-0.6-1.9v-4.4h-1.4v-1.1h1.4l0.2-1.9h1.2v1.9h2.3v1.1h-2.3
	v4.4c0,0.5,0.1,0.8,0.3,1s0.6,0.3,1.1,0.3h0.8v1.2h-1.3V156.2z"/>
<path class="st2" d="M191,158.1l0.9-3.5h1.4l-1.4,3.5H191z"/>
<path class="st2" d="M199.1,156.2v-7.9h1.2l0.1,1.4c0.3-0.5,0.6-0.9,1.1-1.2s1-0.4,1.6-0.4c0.9,0,1.7,0.3,2.2,0.9
	c0.6,0.6,0.8,1.5,0.8,2.6v4.6h-1.3v-4.5c0-1.7-0.7-2.5-2-2.5c-0.7,0-1.2,0.2-1.7,0.7c-0.4,0.5-0.7,1.2-0.7,2.1v4.1L199.1,156.2
	L199.1,156.2z"/>
<path class="st2" d="M211.9,156.4c-0.8,0-1.4-0.2-2-0.5s-1.1-0.8-1.4-1.5c-0.3-0.6-0.5-1.4-0.5-2.2s0.2-1.6,0.5-2.2
	c0.3-0.6,0.8-1.1,1.4-1.5c0.6-0.3,1.3-0.5,2-0.5s1.4,0.2,2,0.5s1.1,0.8,1.4,1.5c0.3,0.6,0.5,1.4,0.5,2.2s-0.2,1.6-0.5,2.2
	c-0.3,0.6-0.8,1.1-1.4,1.5C213.3,156.2,212.6,156.4,211.9,156.4z M211.9,155.2c0.5,0,0.9-0.1,1.3-0.3c0.4-0.2,0.7-0.6,1-1
	c0.2-0.4,0.4-1,0.4-1.7s-0.1-1.2-0.4-1.7c-0.2-0.5-0.6-0.8-0.9-1s-0.8-0.3-1.3-0.3s-0.9,0.1-1.3,0.3s-0.7,0.6-1,1
	c-0.2,0.4-0.4,1-0.4,1.7s0.1,1.2,0.4,1.7c0.2,0.5,0.6,0.8,0.9,1C211,155.1,211.4,155.2,211.9,155.2z"/>
<path class="st2" d="M220.6,156.2c-0.7,0-1.3-0.2-1.7-0.5c-0.4-0.4-0.6-1-0.6-1.9v-4.4h-1.4v-1.1h1.4l0.2-1.9h1.2v1.9h2.3v1.1h-2.3
	v4.4c0,0.5,0.1,0.8,0.3,1s0.6,0.3,1.1,0.3h0.8v1.2h-1.3V156.2z"/>
<path class="st2" d="M231,156.2c-0.7,0-1.3-0.2-1.7-0.5c-0.4-0.4-0.6-1-0.6-1.9v-4.4h-1.4v-1.1h1.4l0.2-1.9h1.2v1.9h2.3v1.1H230v4.4
	c0,0.5,0.1,0.8,0.3,1s0.6,0.3,1.1,0.3h0.8v1.2H231V156.2z"/>
<path class="st2" d="M237.4,156.4c-0.8,0-1.4-0.2-2-0.5s-1.1-0.8-1.4-1.5s-0.5-1.4-0.5-2.2s0.2-1.6,0.5-2.2c0.4-0.6,0.8-1.1,1.4-1.5
	c0.6-0.3,1.3-0.5,2-0.5c0.8,0,1.4,0.2,2,0.5s1.1,0.8,1.4,1.5c0.4,0.6,0.5,1.4,0.5,2.2s-0.2,1.6-0.5,2.2c-0.4,0.6-0.8,1.1-1.4,1.5
	S238.2,156.4,237.4,156.4z M237.4,155.2c0.5,0,0.9-0.1,1.3-0.3c0.4-0.2,0.7-0.6,1-1c0.2-0.4,0.4-1,0.4-1.7s-0.1-1.2-0.4-1.7
	c-0.2-0.5-0.6-0.8-1-1s-0.8-0.3-1.3-0.3s-0.9,0.1-1.3,0.3c-0.4,0.2-0.7,0.6-1,1c-0.2,0.4-0.4,1-0.4,1.7s0.1,1.2,0.4,1.7
	c0.2,0.5,0.6,0.8,1,1C236.6,155.1,237,155.2,237.4,155.2z"/>
<path class="st2" d="M246.9,156.4c-0.8,0-1.4-0.2-2-0.5s-1.1-0.8-1.4-1.5c-0.4-0.6-0.5-1.4-0.5-2.2s0.2-1.6,0.5-2.2
	c0.3-0.6,0.8-1.1,1.4-1.5c0.6-0.3,1.3-0.5,2-0.5c0.8,0,1.4,0.2,2,0.5s1.1,0.8,1.4,1.5c0.4,0.6,0.5,1.4,0.5,2.2s-0.2,1.6-0.5,2.2
	c-0.3,0.6-0.8,1.1-1.4,1.5S247.7,156.4,246.9,156.4z M246.9,155.2c0.5,0,0.9-0.1,1.3-0.3c0.4-0.2,0.7-0.6,1-1c0.2-0.4,0.4-1,0.4-1.7
	s-0.1-1.2-0.4-1.7s-0.6-0.8-1-1s-0.8-0.3-1.3-0.3s-0.9,0.1-1.3,0.3c-0.4,0.2-0.7,0.6-1,1c-0.2,0.4-0.4,1-0.4,1.7s0.1,1.2,0.4,1.7
	c0.2,0.4,0.6,0.8,1,1C246,155.1,246.5,155.2,246.9,155.2z"/>
<path class="st2" d="M25.2,178.2v-11.5h1.3v4.9c0.3-0.5,0.6-0.9,1.1-1.1c0.5-0.3,1-0.4,1.6-0.4c0.9,0,1.7,0.3,2.2,0.9
	c0.6,0.6,0.8,1.5,0.8,2.6v4.6H31v-4.5c0-1.7-0.7-2.5-2-2.5c-0.7,0-1.3,0.2-1.7,0.7c-0.5,0.5-0.7,1.2-0.7,2.1v4.1L25.2,178.2
	L25.2,178.2z"/>
<path class="st2" d="M38,178.4c-0.8,0-1.4-0.2-2-0.5s-1.1-0.8-1.4-1.5S34,175,34,174.2s0.2-1.6,0.5-2.2c0.4-0.6,0.8-1.1,1.4-1.5
	c0.6-0.3,1.3-0.5,2-0.5s1.4,0.2,2,0.5s1.1,0.8,1.4,1.5c0.3,0.6,0.5,1.4,0.5,2.2s-0.2,1.6-0.5,2.2c-0.3,0.6-0.8,1.1-1.4,1.5
	C39.4,178.2,38.7,178.4,38,178.4z M38,177.2c0.5,0,0.9-0.1,1.3-0.3c0.4-0.2,0.7-0.6,1-1c0.2-0.4,0.4-1,0.4-1.7s-0.1-1.2-0.4-1.7
	c-0.2-0.4-0.6-0.8-0.9-1c-0.4-0.2-0.8-0.3-1.3-0.3s-0.9,0.1-1.3,0.3s-0.7,0.6-1,1c-0.2,0.4-0.4,1-0.4,1.7s0.1,1.2,0.4,1.7
	c0.2,0.4,0.6,0.8,0.9,1C37.1,177.1,37.5,177.2,38,177.2z"/>
<path class="st2" d="M46.7,178.2c-0.7,0-1.3-0.2-1.7-0.5c-0.4-0.4-0.6-1-0.6-1.9v-4.4H43v-1.1h1.4l0.2-1.9h1.2v1.9H48v1.1h-2.3v4.4
	c0,0.5,0.1,0.8,0.3,1s0.6,0.3,1.1,0.3h0.8v1.2h-1.2V178.2z"/>
<path class="st2" d="M57.6,178.4c-0.8,0-1.4-0.2-2-0.5s-1.1-0.8-1.4-1.5c-0.3-0.6-0.5-1.4-0.5-2.2s0.2-1.6,0.5-2.2s0.8-1.1,1.4-1.5
	c0.6-0.3,1.3-0.5,2-0.5s1.4,0.2,2,0.5s1.1,0.8,1.4,1.5c0.3,0.6,0.5,1.4,0.5,2.2s-0.2,1.6-0.5,2.2c-0.3,0.6-0.8,1.1-1.4,1.5
	C59,178.2,58.3,178.4,57.6,178.4z M57.6,177.2c0.5,0,0.9-0.1,1.3-0.3c0.4-0.2,0.7-0.6,1-1c0.2-0.4,0.4-1,0.4-1.7s-0.1-1.2-0.4-1.7
	s-0.6-0.8-0.9-1c-0.4-0.2-0.8-0.3-1.3-0.3s-0.9,0.1-1.3,0.3s-0.7,0.6-1,1c-0.2,0.4-0.4,1-0.4,1.7s0.1,1.2,0.4,1.7
	c0.2,0.4,0.6,0.8,0.9,1C56.7,177.1,57.1,177.2,57.6,177.2z"/>
<path class="st2" d="M63.4,178.2v-7.9h1.2l0.1,1.5c0.2-0.5,0.6-0.9,1.1-1.2s1.1-0.5,1.9-0.5v1.4h-0.4c-0.5,0-0.9,0.1-1.3,0.2
	c-0.4,0.2-0.7,0.4-0.9,0.8c-0.2,0.4-0.3,0.9-0.3,1.6v4L63.4,178.2L63.4,178.2z"/>
<path class="st2" d="M77.1,178.4c-0.8,0-1.4-0.2-2-0.5c-0.6-0.4-1.1-0.8-1.4-1.5c-0.3-0.6-0.5-1.4-0.5-2.2s0.2-1.6,0.5-2.2
	c0.4-0.6,0.8-1.1,1.4-1.5s1.3-0.5,2-0.5c0.9,0,1.7,0.2,2.4,0.7c0.7,0.5,1.1,1.1,1.2,2h-1.4c-0.1-0.5-0.4-0.9-0.8-1.1
	c-0.4-0.3-0.9-0.4-1.5-0.4c-0.4,0-0.9,0.1-1.3,0.3s-0.7,0.6-1,1c-0.2,0.5-0.4,1-0.4,1.7s0.1,1.2,0.4,1.7c0.2,0.5,0.6,0.8,1,1
	s0.8,0.3,1.3,0.3c0.6,0,1-0.1,1.5-0.4c0.4-0.3,0.7-0.7,0.8-1.2h1.4c-0.2,0.8-0.6,1.4-1.2,1.9C78.9,178.1,78.1,178.4,77.1,178.4z"/>
<path class="st2" d="M86.2,178.4c-0.8,0-1.4-0.2-2-0.5s-1.1-0.8-1.4-1.5c-0.3-0.6-0.5-1.4-0.5-2.2s0.2-1.6,0.5-2.2s0.8-1.1,1.4-1.5
	c0.6-0.3,1.3-0.5,2-0.5s1.4,0.2,2,0.5s1.1,0.8,1.4,1.5c0.3,0.6,0.5,1.4,0.5,2.2s-0.2,1.6-0.5,2.2c-0.4,0.6-0.8,1.1-1.4,1.5
	C87.6,178.2,87,178.4,86.2,178.4z M86.2,177.2c0.5,0,0.9-0.1,1.3-0.3s0.7-0.6,1-1c0.2-0.4,0.4-1,0.4-1.7s-0.1-1.2-0.4-1.7
	c-0.2-0.5-0.6-0.8-0.9-1s-0.8-0.3-1.3-0.3s-0.9,0.1-1.3,0.3s-0.7,0.6-1,1c-0.2,0.4-0.4,1-0.4,1.7s0.1,1.2,0.4,1.7
	c0.2,0.5,0.6,0.8,0.9,1C85.3,177.1,85.8,177.2,86.2,177.2z"/>
<path class="st2" d="M92.1,178.2v-11.5h1.3v11.5H92.1z"/>
<path class="st2" d="M99.2,178.4c-0.8,0-1.5-0.2-2.1-0.5c-0.6-0.4-1.1-0.9-1.4-1.5s-0.5-1.3-0.5-2.1s0.2-1.5,0.5-2.1
	s0.8-1.1,1.4-1.5s1.3-0.5,2.1-0.5c0.7,0,1.2,0.1,1.7,0.4s0.9,0.6,1.2,1.1v-4.9h1.3v11.5h-1.2l-0.1-1.3c-0.3,0.4-0.6,0.7-1.1,1
	C100.5,178.2,99.9,178.4,99.2,178.4z M99.4,177.2c0.5,0,1-0.1,1.4-0.4c0.4-0.2,0.7-0.6,1-1c0.2-0.5,0.3-1,0.3-1.6s-0.1-1.1-0.3-1.6
	c-0.2-0.4-0.5-0.8-1-1c-0.4-0.2-0.9-0.4-1.4-0.4s-1,0.1-1.4,0.4c-0.4,0.2-0.7,0.6-1,1c-0.2,0.5-0.3,1-0.3,1.6s0.1,1.1,0.3,1.6
	c0.2,0.4,0.6,0.8,1,1C98.4,177.1,98.8,177.2,99.4,177.2z"/>
<path class="st2" d="M112.5,178.4c-0.7,0-1.2-0.1-1.7-0.3c-0.4-0.2-0.8-0.5-1-0.9s-0.3-0.8-0.3-1.2c0-0.8,0.3-1.4,0.9-1.9
	s1.5-0.7,2.5-0.7h2.1v-0.1c0-0.7-0.2-1.2-0.5-1.6c-0.4-0.4-0.9-0.5-1.5-0.5c-0.5,0-1,0.1-1.3,0.4c-0.4,0.3-0.6,0.6-0.7,1.1h-1.4
	c0.1-0.6,0.2-1.1,0.6-1.5c0.3-0.4,0.8-0.7,1.3-0.9s1-0.3,1.6-0.3c1.1,0,1.9,0.3,2.5,0.9s0.8,1.4,0.8,2.4v4.9h-1.2l-0.1-1.4
	c-0.2,0.5-0.5,0.8-1,1.1C113.8,178.2,113.3,178.4,112.5,178.4z M112.7,177.2c0.5,0,0.9-0.1,1.3-0.4c0.4-0.3,0.6-0.6,0.8-1
	c0.2-0.4,0.3-0.9,0.3-1.3l0,0h-2c-0.8,0-1.3,0.1-1.7,0.4c-0.3,0.3-0.5,0.6-0.5,1s0.2,0.8,0.5,1C111.8,177.1,112.2,177.2,112.7,177.2
	z"/>
<path class="st2" d="M118.6,178.2v-7.9h1.2l0.1,1.4c0.3-0.5,0.6-0.9,1.1-1.2s1-0.4,1.6-0.4c0.9,0,1.7,0.3,2.2,0.9s0.8,1.5,0.8,2.6
	v4.6h-1.3v-4.5c0-1.7-0.7-2.5-2.1-2.5c-0.7,0-1.2,0.2-1.7,0.7c-0.4,0.5-0.7,1.2-0.7,2.1v4.1L118.6,178.2L118.6,178.2z"/>
<path class="st2" d="M131.3,178.4c-0.8,0-1.5-0.2-2.1-0.5c-0.6-0.4-1.1-0.9-1.4-1.5c-0.3-0.6-0.5-1.3-0.5-2.1s0.2-1.5,0.5-2.1
	c0.3-0.6,0.8-1.1,1.4-1.5s1.3-0.5,2.1-0.5c0.6,0,1.2,0.1,1.7,0.4s0.9,0.6,1.2,1.1v-4.9h1.3v11.5h-1.2l-0.1-1.3
	c-0.3,0.4-0.6,0.7-1.1,1C132.6,178.2,132,178.4,131.3,178.4z M131.5,177.2c0.5,0,1-0.1,1.4-0.4c0.4-0.2,0.7-0.6,1-1
	c0.2-0.5,0.3-1,0.3-1.6s-0.1-1.1-0.3-1.6c-0.2-0.4-0.6-0.8-1-1s-0.9-0.4-1.4-0.4s-1,0.1-1.4,0.4s-0.7,0.6-1,1
	c-0.2,0.5-0.3,1-0.3,1.6s0.1,1.1,0.3,1.6c0.2,0.4,0.5,0.8,1,1C130.5,177.1,130.9,177.2,131.5,177.2z"/>
<path class="st2" d="M142.9,181.7l2-4.3h-0.5l-3.2-7.2h1.5l2.6,6.2l2.8-6.2h1.4l-5.2,11.5H142.9z"/>
<path class="st2" d="M153.8,178.4c-0.8,0-1.4-0.2-2-0.5s-1.1-0.8-1.4-1.5c-0.4-0.6-0.5-1.4-0.5-2.2s0.2-1.6,0.5-2.2
	c0.3-0.6,0.8-1.1,1.4-1.5c0.6-0.3,1.3-0.5,2-0.5c0.8,0,1.4,0.2,2,0.5s1.1,0.8,1.4,1.5c0.4,0.6,0.5,1.4,0.5,2.2s-0.2,1.6-0.5,2.2
	c-0.4,0.6-0.8,1.1-1.4,1.5S154.5,178.4,153.8,178.4z M153.8,177.2c0.5,0,0.9-0.1,1.3-0.3c0.4-0.2,0.7-0.6,1-1c0.2-0.4,0.4-1,0.4-1.7
	s-0.1-1.2-0.4-1.7c-0.2-0.5-0.6-0.8-0.9-1c-0.4-0.2-0.8-0.3-1.3-0.3s-0.9,0.1-1.3,0.3c-0.4,0.2-0.7,0.6-1,1c-0.2,0.4-0.4,1-0.4,1.7
	s0.1,1.2,0.4,1.7c0.2,0.5,0.6,0.8,0.9,1C152.9,177.1,153.3,177.2,153.8,177.2z"/>
<path class="st2" d="M162.5,178.4c-0.9,0-1.7-0.3-2.2-0.9s-0.8-1.5-0.8-2.6v-4.6h1.3v4.5c0,1.6,0.7,2.5,2,2.5c0.7,0,1.3-0.2,1.7-0.7
	s0.7-1.2,0.7-2.1v-4.1h1.3v7.9h-1.2l-0.1-1.4c-0.2,0.5-0.6,0.9-1.1,1.2C163.7,178.2,163.1,178.4,162.5,178.4z"/>
<path class="st2" d="M173,178.2v-11.5h1.3v4.9c0.3-0.5,0.6-0.9,1.1-1.1c0.5-0.3,1-0.4,1.6-0.4c0.9,0,1.7,0.3,2.2,0.9
	c0.6,0.6,0.8,1.5,0.8,2.6v4.6h-1.3v-4.5c0-1.7-0.7-2.5-2-2.5c-0.7,0-1.3,0.2-1.7,0.7c-0.5,0.5-0.7,1.2-0.7,2.1v4.1L173,178.2
	L173,178.2z"/>
<path class="st2" d="M184.8,178.4c-0.7,0-1.2-0.1-1.7-0.3c-0.4-0.2-0.8-0.5-1-0.9s-0.3-0.8-0.3-1.2c0-0.8,0.3-1.4,0.9-1.9
	s1.5-0.7,2.5-0.7h2.1v-0.1c0-0.7-0.2-1.2-0.5-1.6c-0.4-0.4-0.9-0.5-1.5-0.5c-0.5,0-1,0.1-1.3,0.4c-0.4,0.3-0.6,0.6-0.7,1.1H182
	c0.1-0.6,0.2-1.1,0.6-1.5c0.3-0.4,0.8-0.7,1.3-0.9s1-0.3,1.6-0.3c1.1,0,1.9,0.3,2.5,0.9s0.8,1.4,0.8,2.4v4.9h-1.2l-0.1-1.4
	c-0.2,0.5-0.5,0.8-1,1.1C186.1,178.2,185.5,178.4,184.8,178.4z M185,177.2c0.5,0,1-0.1,1.3-0.4c0.4-0.3,0.6-0.6,0.8-1
	s0.3-0.9,0.3-1.3l0,0h-2c-0.8,0-1.3,0.1-1.7,0.4c-0.3,0.3-0.5,0.6-0.5,1s0.1,0.8,0.5,1C184,177.1,184.4,177.2,185,177.2z"/>
<path class="st2" d="M192.8,178.2l-3-7.9h1.4l2.4,6.6l2.4-6.6h1.4l-3,7.9H192.8z"/>
<path class="st2" d="M202,178.4c-0.8,0-1.4-0.2-2-0.5s-1.1-0.8-1.4-1.4c-0.3-0.6-0.5-1.4-0.5-2.2s0.2-1.6,0.5-2.2
	c0.3-0.6,0.8-1.1,1.4-1.5s1.3-0.5,2.1-0.5s1.4,0.2,2,0.5s1,0.8,1.3,1.4s0.4,1.2,0.4,1.8c0,0.1,0,0.2,0,0.4c0,0.1,0,0.2,0,0.4h-6.3
	c0,0.6,0.2,1.1,0.4,1.5s0.6,0.7,0.9,0.9c0.4,0.2,0.8,0.3,1.2,0.3c0.6,0,1-0.1,1.4-0.4c0.4-0.3,0.6-0.6,0.8-1h1.3
	c-0.2,0.7-0.6,1.4-1.2,1.8S202.9,178.4,202,178.4z M202,171.2c-0.6,0-1.2,0.2-1.7,0.6c-0.5,0.4-0.8,1-0.9,1.7h5
	c0-0.7-0.3-1.3-0.7-1.7C203.2,171.4,202.7,171.2,202,171.2z"/>
<path class="st2" d="M25.3,244.2V233h6.8v1.1h-5.5v3.9h4.7v1.1h-4.7v5.1L25.3,244.2L25.3,244.2z"/>
<path class="st2" d="M37,244.4c-0.8,0-1.4-0.2-2-0.5s-1.1-0.8-1.4-1.4c-0.3-0.6-0.5-1.4-0.5-2.2s0.2-1.6,0.5-2.2
	c0.3-0.6,0.8-1.1,1.4-1.4c0.6-0.3,1.3-0.5,2-0.5c0.8,0,1.4,0.2,2,0.5s1.1,0.8,1.4,1.4s0.5,1.4,0.5,2.2s-0.2,1.6-0.5,2.2
	c-0.4,0.6-0.8,1.1-1.4,1.4C38.5,244.2,37.8,244.4,37,244.4z M37,243.2c0.5,0,0.9-0.1,1.3-0.3c0.4-0.2,0.7-0.6,1-1
	c0.2-0.5,0.4-1,0.4-1.7s-0.1-1.2-0.4-1.7c-0.2-0.4-0.6-0.8-1-1s-0.8-0.3-1.3-0.3s-0.9,0.1-1.3,0.3c-0.4,0.2-0.7,0.6-1,1
	s-0.4,1-0.4,1.7s0.1,1.2,0.4,1.7s0.6,0.8,1,1C36.2,243.1,36.6,243.2,37,243.2z"/>
<path class="st2" d="M42.9,244.2v-7.9h1.2l0.1,1.5c0.2-0.5,0.6-0.9,1.1-1.2s1.1-0.5,1.9-0.5v1.4h-0.4c-0.5,0-0.9,0.1-1.3,0.2
	c-0.4,0.2-0.7,0.5-0.9,0.8c-0.2,0.4-0.3,0.9-0.3,1.6v4L42.9,244.2L42.9,244.2z"/>
<path class="st2" d="M56.5,244.4c-0.8,0-1.4-0.2-2-0.5s-1-0.8-1.4-1.4c-0.3-0.6-0.5-1.4-0.5-2.2s0.2-1.6,0.5-2.2s0.8-1.1,1.4-1.5
	c0.6-0.3,1.3-0.5,2.1-0.5s1.4,0.2,2,0.5c0.6,0.4,1,0.8,1.3,1.4c0.3,0.6,0.4,1.2,0.4,1.8c0,0.1,0,0.2,0,0.4c0,0.1,0,0.2,0,0.4H54
	c0,0.6,0.2,1.1,0.4,1.5s0.6,0.7,0.9,0.9c0.4,0.2,0.8,0.3,1.2,0.3c0.5,0,1-0.1,1.4-0.4c0.4-0.2,0.7-0.6,0.8-1H60
	c-0.2,0.7-0.6,1.4-1.2,1.8C58.2,244.1,57.4,244.4,56.5,244.4z M56.5,237.2c-0.6,0-1.2,0.2-1.7,0.6c-0.5,0.4-0.8,1-0.9,1.7h5
	c0-0.7-0.3-1.3-0.7-1.7C57.7,237.4,57.2,237.2,56.5,237.2z"/>
<path class="st2" d="M60.9,244.2l2.8-4l-2.8-4h1.5l2.2,3.3l2.2-3.3h1.4l-2.8,4l2.8,4h-1.4l-2.2-3.3l-2.2,3.3H60.9z"/>
<path class="st2" d="M72.2,244.4c-0.7,0-1.2-0.1-1.7-0.3c-0.4-0.2-0.8-0.5-1-0.9s-0.3-0.8-0.3-1.2c0-0.8,0.3-1.4,0.9-1.9
	c0.6-0.4,1.5-0.7,2.5-0.7h2.1v-0.1c0-0.7-0.2-1.2-0.5-1.6c-0.4-0.4-0.8-0.5-1.5-0.5c-0.5,0-1,0.1-1.3,0.4s-0.6,0.6-0.7,1.1h-1.4
	c0.1-0.6,0.2-1.1,0.6-1.5c0.3-0.4,0.8-0.7,1.3-0.9s1-0.3,1.6-0.3c1.1,0,1.9,0.3,2.5,0.9c0.6,0.6,0.8,1.4,0.8,2.4v4.9H75l-0.1-1.4
	c-0.2,0.5-0.5,0.8-1,1.1S73,244.4,72.2,244.4z M72.4,243.2c0.5,0,1-0.1,1.3-0.4c0.4-0.3,0.7-0.6,0.8-1s0.3-0.9,0.3-1.3l0,0h-2
	c-0.8,0-1.4,0.1-1.7,0.4c-0.3,0.3-0.5,0.6-0.5,1s0.2,0.8,0.5,1C71.5,243.1,71.9,243.2,72.4,243.2z"/>
<path class="st2" d="M78.3,244.2v-7.9h1.2l0.1,1.1c0.3-0.4,0.6-0.8,1-1s0.9-0.4,1.4-0.4c0.6,0,1.2,0.1,1.6,0.4
	c0.4,0.2,0.8,0.6,1,1.2c0.3-0.5,0.7-0.9,1.1-1.1c0.5-0.3,1-0.4,1.6-0.4c0.9,0,1.7,0.3,2.3,0.9c0.6,0.6,0.9,1.4,0.9,2.6v4.6h-1.3
	v-4.5c0-0.8-0.2-1.4-0.5-1.9c-0.3-0.4-0.8-0.6-1.4-0.6s-1.2,0.2-1.6,0.7s-0.6,1.2-0.6,2.1v4.1h-1.3v-4.5c0-0.8-0.2-1.4-0.5-1.9
	c-0.3-0.4-0.8-0.6-1.4-0.6s-1.2,0.2-1.6,0.7s-0.6,1.2-0.6,2.1v4.1L78.3,244.2L78.3,244.2z"/>
<path class="st2" d="M92.6,247.7v-11.5h1.2l0.1,1.3c0.3-0.4,0.6-0.7,1.1-1s1.1-0.5,1.8-0.5c0.8,0,1.5,0.2,2.1,0.5
	c0.6,0.4,1,0.9,1.4,1.5s0.5,1.3,0.5,2.1s-0.2,1.5-0.5,2.1s-0.8,1.1-1.4,1.5s-1.3,0.5-2.1,0.5c-0.7,0-1.2-0.1-1.7-0.4
	c-0.5-0.3-0.9-0.6-1.2-1.1v4.9L92.6,247.7L92.6,247.7z M96.7,243.2c0.5,0,1-0.1,1.4-0.4c0.4-0.2,0.7-0.6,1-1c0.2-0.5,0.3-1,0.3-1.6
	s-0.1-1.1-0.3-1.6c-0.2-0.4-0.6-0.8-1-1s-0.9-0.4-1.4-0.4s-1,0.1-1.4,0.4c-0.4,0.2-0.7,0.6-1,1c-0.2,0.5-0.4,1-0.4,1.6
	s0.1,1.1,0.4,1.6c0.2,0.5,0.5,0.8,1,1C95.7,243.1,96.1,243.2,96.7,243.2z"/>
<path class="st2" d="M102.6,244.2v-11.5h1.3v11.5H102.6z"/>
<path class="st2" d="M109.7,244.4c-0.8,0-1.4-0.2-2-0.5s-1-0.8-1.4-1.4c-0.3-0.6-0.5-1.4-0.5-2.2s0.2-1.6,0.5-2.2s0.8-1.1,1.4-1.5
	c0.6-0.3,1.3-0.5,2.1-0.5c0.8,0,1.4,0.2,2,0.5c0.6,0.4,1,0.8,1.3,1.4c0.3,0.6,0.4,1.2,0.4,1.8c0,0.1,0,0.2,0,0.4c0,0.1,0,0.2,0,0.4
	h-6.3c0,0.6,0.2,1.1,0.4,1.5s0.6,0.7,0.9,0.9c0.4,0.2,0.8,0.3,1.2,0.3c0.6,0,1-0.1,1.4-0.4c0.4-0.3,0.6-0.6,0.8-1h1.3
	c-0.2,0.7-0.6,1.4-1.2,1.8C111.4,244.1,110.7,244.4,109.7,244.4z M109.7,237.2c-0.6,0-1.2,0.2-1.7,0.6s-0.8,1-0.9,1.7h5
	c0-0.7-0.3-1.3-0.7-1.7C111,237.4,110.4,237.2,109.7,237.2z"/>
<path class="st2" d="M114.2,246.1l0.9-3.5h1.4l-1.4,3.5H114.2z"/>
<path class="st2" d="M125.4,244.4c-0.9,0-1.7-0.2-2.4-0.7c-0.6-0.5-1-1.1-1.1-2h1.4c0.1,0.4,0.3,0.8,0.7,1.1
	c0.4,0.3,0.8,0.5,1.4,0.5s1-0.1,1.2-0.4c0.3-0.2,0.4-0.5,0.4-0.9c0-0.5-0.2-0.8-0.5-1s-0.8-0.3-1.5-0.4c-0.4-0.1-0.9-0.2-1.3-0.4
	s-0.8-0.4-1.1-0.7s-0.4-0.7-0.4-1.2c0-0.7,0.3-1.3,0.8-1.7s1.2-0.7,2.1-0.7c0.8,0,1.5,0.2,2.1,0.6c0.5,0.4,0.8,1,0.9,1.8h-1.3
	c-0.1-0.4-0.2-0.7-0.5-1c-0.3-0.2-0.7-0.3-1.2-0.3s-0.8,0.1-1.1,0.3c-0.3,0.2-0.4,0.5-0.4,0.8s0.2,0.6,0.5,0.8s0.8,0.3,1.4,0.5
	c0.5,0.1,1,0.2,1.4,0.4s0.8,0.4,1.1,0.7c0.3,0.3,0.4,0.7,0.4,1.3c0,0.7-0.3,1.3-0.8,1.8C127.1,244.1,126.3,244.4,125.4,244.4z"/>
<path class="st2" d="M131.7,244.2l-2.3-7.9h1.3l1.7,6.2l1.9-6.2h1.5l1.9,6.2l1.7-6.2h1.4l-2.3,7.9h-1.4l-1.9-6.5l-1.9,6.5H131.7z"/>
<path class="st2" d="M142.9,234.5c-0.3,0-0.5-0.1-0.7-0.3s-0.3-0.4-0.3-0.7s0.1-0.5,0.3-0.6c0.2-0.2,0.4-0.3,0.7-0.3
	s0.5,0.1,0.7,0.3s0.3,0.4,0.3,0.6c0,0.3-0.1,0.5-0.3,0.7S143.2,234.5,142.9,234.5z M142.3,244.2v-7.9h1.3v7.9H142.3z"/>
<path class="st2" d="M149.1,244.2c-0.7,0-1.3-0.2-1.7-0.5c-0.4-0.4-0.6-1-0.6-1.9v-4.4h-1.4v-1.1h1.4l0.2-1.9h1.2v1.9h2.3v1.1h-2.3
	v4.4c0,0.5,0.1,0.8,0.3,1s0.6,0.3,1.1,0.3h0.8v1.1L149.1,244.2L149.1,244.2z"/>
<path class="st2" d="M155.6,244.4c-0.8,0-1.4-0.2-2-0.5s-1.1-0.8-1.4-1.5c-0.4-0.6-0.5-1.4-0.5-2.2s0.2-1.6,0.5-2.2s0.8-1.1,1.4-1.5
	c0.6-0.3,1.3-0.5,2-0.5c0.9,0,1.7,0.2,2.4,0.7c0.6,0.5,1.1,1.2,1.2,2h-1.4c-0.1-0.5-0.4-0.9-0.8-1.1c-0.4-0.3-0.9-0.4-1.5-0.4
	c-0.4,0-0.9,0.1-1.3,0.3s-0.7,0.6-1,1c-0.2,0.4-0.4,1-0.4,1.7s0.1,1.2,0.4,1.7c0.2,0.4,0.6,0.8,1,1s0.8,0.3,1.3,0.3
	c0.6,0,1-0.1,1.5-0.4s0.7-0.7,0.8-1.2h1.4c-0.2,0.8-0.6,1.5-1.2,2C157.3,244.1,156.5,244.4,155.6,244.4z"/>
<path class="st2" d="M161,244.2v-11.5h1.3v4.9c0.3-0.5,0.6-0.9,1.1-1.1c0.5-0.3,1-0.4,1.6-0.4c0.9,0,1.7,0.3,2.2,0.9
	c0.6,0.6,0.8,1.4,0.8,2.6v4.6h-1.3v-4.5c0-1.6-0.7-2.5-2-2.5c-0.7,0-1.3,0.2-1.7,0.7c-0.5,0.5-0.7,1.2-0.7,2.1v4.1L161,244.2
	L161,244.2z"/>
<path class="st2" d="M175.3,247.7l2-4.3h-0.5l-3.1-7.2h1.5l2.6,6.2l2.8-6.2h1.4l-5.2,11.5H175.3z"/>
<path class="st2" d="M186.2,244.4c-0.8,0-1.4-0.2-2-0.5s-1.1-0.8-1.4-1.4c-0.4-0.6-0.5-1.4-0.5-2.2s0.2-1.6,0.5-2.2
	c0.4-0.6,0.8-1.1,1.4-1.4c0.6-0.3,1.3-0.5,2-0.5c0.8,0,1.4,0.2,2,0.5s1.1,0.8,1.4,1.4c0.4,0.6,0.5,1.4,0.5,2.2s-0.2,1.6-0.5,2.2
	c-0.4,0.6-0.8,1.1-1.4,1.4C187.6,244.2,186.9,244.4,186.2,244.4z M186.2,243.2c0.5,0,0.9-0.1,1.3-0.3c0.4-0.2,0.7-0.6,1-1
	c0.2-0.5,0.4-1,0.4-1.7s-0.1-1.2-0.4-1.7c-0.2-0.5-0.6-0.8-0.9-1c-0.4-0.2-0.8-0.3-1.3-0.3s-0.9,0.1-1.3,0.3c-0.4,0.2-0.7,0.6-1,1
	s-0.4,1-0.4,1.7s0.1,1.2,0.4,1.7c0.2,0.4,0.6,0.8,0.9,1C185.3,243.1,185.7,243.2,186.2,243.2z"/>
<path class="st2" d="M194.9,244.4c-0.9,0-1.7-0.3-2.2-0.9c-0.6-0.6-0.8-1.4-0.8-2.6v-4.6h1.3v4.5c0,1.6,0.7,2.5,2,2.5
	c0.7,0,1.3-0.2,1.7-0.7s0.7-1.2,0.7-2.1v-4.1h1.3v7.9h-1.2l-0.1-1.4c-0.2,0.5-0.6,0.9-1.1,1.2C196.1,244.2,195.5,244.4,194.9,244.4z
	"/>
<path class="st2" d="M201.2,244.2v-7.9h1.2l0.1,1.5c0.2-0.5,0.6-0.9,1.1-1.2s1.1-0.5,1.9-0.5v1.4h-0.4c-0.5,0-0.9,0.1-1.3,0.2
	c-0.4,0.2-0.7,0.5-0.9,0.8c-0.2,0.4-0.3,0.9-0.3,1.6v4L201.2,244.2L201.2,244.2z"/>
<path class="st2" d="M211.2,247.7v-11.5h1.2l0.1,1.3c0.3-0.4,0.6-0.7,1.1-1s1.1-0.5,1.8-0.5c0.8,0,1.5,0.2,2.1,0.5
	c0.6,0.4,1,0.9,1.4,1.5s0.5,1.3,0.5,2.1s-0.2,1.5-0.5,2.1s-0.8,1.1-1.4,1.5c-0.6,0.4-1.3,0.5-2.1,0.5c-0.6,0-1.2-0.1-1.7-0.4
	c-0.5-0.3-0.9-0.6-1.2-1.1v4.9L211.2,247.7L211.2,247.7z M215.3,243.2c0.5,0,1-0.1,1.4-0.4s0.7-0.6,1-1c0.2-0.5,0.3-1,0.3-1.6
	s-0.1-1.1-0.3-1.6c-0.2-0.4-0.6-0.8-1-1s-0.9-0.4-1.4-0.4s-1,0.1-1.4,0.4c-0.4,0.2-0.7,0.6-1,1c-0.2,0.5-0.4,1-0.4,1.6
	s0.1,1.1,0.4,1.6s0.6,0.8,1,1C214.3,243.1,214.8,243.2,215.3,243.2z"/>
<path class="st2" d="M222.1,234.5c-0.3,0-0.5-0.1-0.7-0.3s-0.3-0.4-0.3-0.7s0.1-0.5,0.3-0.6c0.2-0.2,0.4-0.3,0.7-0.3
	s0.5,0.1,0.7,0.3s0.3,0.4,0.3,0.6c0,0.3-0.1,0.5-0.3,0.7S222.4,234.5,222.1,234.5z M221.4,244.2v-7.9h1.3v7.9H221.4z"/>
<path class="st2" d="M225.1,244.2v-11.5h1.3v11.5H225.1z"/>
<path class="st2" d="M228.7,244.2v-11.5h1.3v11.5H228.7z"/>
<path class="st2" d="M235.8,244.4c-0.8,0-1.4-0.2-2-0.5s-1.1-0.8-1.4-1.4c-0.3-0.6-0.5-1.4-0.5-2.2s0.2-1.6,0.5-2.2
	c0.3-0.6,0.8-1.1,1.4-1.4c0.6-0.3,1.3-0.5,2-0.5c0.8,0,1.4,0.2,2,0.5s1.1,0.8,1.4,1.4c0.4,0.6,0.5,1.4,0.5,2.2s-0.2,1.6-0.5,2.2
	c-0.4,0.6-0.8,1.1-1.4,1.4C237.3,244.2,236.6,244.4,235.8,244.4z M235.8,243.2c0.5,0,0.9-0.1,1.3-0.3c0.4-0.2,0.7-0.6,1-1
	c0.2-0.5,0.4-1,0.4-1.7s-0.1-1.2-0.4-1.7s-0.6-0.8-0.9-1c-0.4-0.2-0.8-0.3-1.3-0.3s-0.9,0.1-1.3,0.3c-0.4,0.2-0.7,0.6-1,1
	s-0.4,1-0.4,1.7s0.1,1.2,0.4,1.7s0.6,0.8,0.9,1C235,243.1,235.4,243.2,235.8,243.2z"/>
<path class="st2" d="M243,244.2l-2.3-7.9h1.3l1.7,6.2l1.9-6.2h1.5l1.9,6.2l1.7-6.2h1.4l-2.3,7.9h-1.4l-2-6.5l-2,6.5H243z"/>
<path class="st2" d="M258.5,234.5c-0.3,0-0.5-0.1-0.7-0.3s-0.3-0.4-0.3-0.7s0.1-0.5,0.3-0.6c0.2-0.2,0.4-0.3,0.7-0.3
	c0.3,0,0.5,0.1,0.7,0.3s0.3,0.4,0.3,0.6c0,0.3-0.1,0.5-0.3,0.7C259,234.4,258.8,234.5,258.5,234.5z M257.8,244.2v-7.9h1.3v7.9H257.8
	z"/>
<path class="st2" d="M261.9,244.2v-6.8h-1.2v-1.1h1.2v-1.4c0-0.8,0.2-1.3,0.6-1.7s0.9-0.5,1.7-0.5h0.8v1.1h-0.6
	c-0.4,0-0.7,0.1-0.9,0.2c-0.2,0.2-0.3,0.5-0.3,0.8v1.3h2v1.1h-2v6.8L261.9,244.2L261.9,244.2z"/>
<path class="st2" d="M26,256.5c-0.3,0-0.5-0.1-0.7-0.3c-0.2-0.2-0.3-0.4-0.3-0.7s0.1-0.5,0.3-0.6c0.2-0.2,0.4-0.3,0.7-0.3
	c0.3,0,0.5,0.1,0.7,0.3s0.3,0.4,0.3,0.6c0,0.3-0.1,0.5-0.3,0.7C26.5,256.4,26.3,256.5,26,256.5z M25.4,266.2v-7.9h1.3v7.9H25.4z"/>
<path class="st2" d="M32.2,266.2c-0.7,0-1.3-0.2-1.7-0.5c-0.4-0.4-0.6-1-0.6-1.9v-4.4h-1.4v-1.1h1.4l0.2-1.9h1.2v1.9h2.3v1.1h-2.3
	v4.4c0,0.5,0.1,0.8,0.3,1s0.6,0.3,1.1,0.3h0.8v1.1H32.2z"/>
<path class="st2" d="M34.7,258.5l0.9-3.6h1.5l-1.5,3.6H34.7z"/>
<path class="st2" d="M41,266.4c-1,0-1.7-0.2-2.4-0.7c-0.6-0.5-1-1.1-1.1-2h1.4c0.1,0.4,0.3,0.8,0.7,1.1c0.4,0.3,0.8,0.5,1.4,0.5
	c0.6,0,1-0.1,1.2-0.4c0.3-0.2,0.4-0.5,0.4-0.9c0-0.5-0.2-0.8-0.5-1s-0.8-0.3-1.5-0.4c-0.4-0.1-0.8-0.2-1.3-0.4s-0.8-0.4-1.1-0.7
	c-0.3-0.3-0.4-0.7-0.4-1.2c0-0.7,0.3-1.3,0.8-1.7s1.2-0.7,2.1-0.7c0.8,0,1.5,0.2,2.1,0.6c0.5,0.4,0.8,1,0.9,1.8h-1.3
	c0-0.4-0.2-0.7-0.5-1c-0.3-0.2-0.7-0.3-1.2-0.3s-0.8,0.1-1.1,0.3c-0.3,0.2-0.4,0.5-0.4,0.8s0.2,0.6,0.5,0.8c0.3,0.2,0.8,0.3,1.4,0.5
	c0.5,0.1,1,0.2,1.4,0.4c0.4,0.1,0.8,0.4,1.1,0.7c0.3,0.3,0.4,0.7,0.4,1.3c0,0.7-0.3,1.3-0.8,1.8C42.7,266.1,41.9,266.4,41,266.4z"/>
<path class="st2" d="M53.8,266.4c-0.8,0-1.4-0.2-2-0.5s-1.1-0.8-1.4-1.5c-0.3-0.6-0.5-1.4-0.5-2.2c0-0.8,0.2-1.6,0.5-2.2
	c0.4-0.6,0.8-1.1,1.4-1.5c0.6-0.3,1.3-0.5,2-0.5c0.9,0,1.7,0.2,2.4,0.7c0.6,0.5,1,1.2,1.2,2H56c-0.1-0.5-0.4-0.9-0.8-1.1
	c-0.4-0.3-0.9-0.4-1.5-0.4c-0.4,0-0.9,0.1-1.3,0.3s-0.7,0.6-1,1c-0.2,0.4-0.4,1-0.4,1.7s0.1,1.2,0.4,1.7c0.2,0.4,0.6,0.8,1,1
	s0.8,0.3,1.3,0.3c0.6,0,1-0.1,1.5-0.4s0.7-0.7,0.8-1.2h1.4c-0.2,0.8-0.6,1.5-1.2,2C55.6,266.1,54.8,266.4,53.8,266.4z"/>
<path class="st2" d="M61.9,266.4c-0.7,0-1.2-0.1-1.6-0.3c-0.4-0.2-0.8-0.5-1-0.9S59,264.4,59,264c0-0.8,0.3-1.4,0.9-1.9
	s1.5-0.7,2.5-0.7h2.1v-0.1c0-0.7-0.2-1.2-0.5-1.6c-0.4-0.4-0.8-0.5-1.5-0.5c-0.5,0-1,0.1-1.3,0.4s-0.6,0.6-0.7,1.1h-1.4
	c0-0.6,0.2-1.1,0.6-1.5c0.3-0.4,0.8-0.7,1.3-0.9c0.5-0.2,1-0.3,1.6-0.3c1.1,0,1.9,0.3,2.5,0.9c0.6,0.6,0.8,1.4,0.8,2.4v4.9h-1.2
	l-0.1-1.4c-0.2,0.5-0.6,0.8-1,1.1C63.3,266.2,62.7,266.4,61.9,266.4z M62.2,265.2c0.5,0,0.9-0.1,1.3-0.4c0.4-0.3,0.6-0.6,0.8-1
	s0.3-0.9,0.3-1.3l0,0h-2c-0.8,0-1.3,0.1-1.7,0.4c-0.3,0.3-0.5,0.6-0.5,1s0.2,0.8,0.5,1C61.2,265.1,61.6,265.2,62.2,265.2z"/>
<path class="st2" d="M70.9,266.4c-0.9,0-1.7-0.3-2.2-0.9s-0.8-1.4-0.8-2.6v-4.6h1.3v4.5c0,1.6,0.7,2.5,2,2.5c0.7,0,1.3-0.2,1.7-0.7
	c0.4-0.5,0.7-1.2,0.7-2.1v-4.1h1.3v7.9h-1.2l-0.1-1.4c-0.2,0.5-0.6,0.9-1.1,1.2C72,266.2,71.5,266.4,70.9,266.4z"/>
<path class="st2" d="M80.2,266.4c-1,0-1.7-0.2-2.4-0.7c-0.6-0.5-1-1.1-1.1-2h1.4c0.1,0.4,0.3,0.8,0.7,1.1c0.4,0.3,0.8,0.5,1.5,0.5
	c0.6,0,1-0.1,1.2-0.4c0.3-0.2,0.4-0.5,0.4-0.9c0-0.5-0.2-0.8-0.5-1s-0.8-0.3-1.5-0.4c-0.4-0.1-0.9-0.2-1.3-0.4s-0.8-0.4-1.1-0.7
	s-0.4-0.7-0.4-1.2c0-0.7,0.3-1.3,0.8-1.7c0.5-0.4,1.2-0.7,2.1-0.7c0.8,0,1.5,0.2,2.1,0.6c0.5,0.4,0.9,1,0.9,1.8h-1.3
	c0-0.4-0.2-0.7-0.5-1c-0.3-0.2-0.7-0.3-1.2-0.3s-0.8,0.1-1.1,0.3c-0.3,0.2-0.4,0.5-0.4,0.8s0.2,0.6,0.5,0.8c0.3,0.2,0.8,0.3,1.4,0.5
	c0.5,0.1,1,0.2,1.4,0.4c0.4,0.1,0.8,0.4,1.1,0.7c0.3,0.3,0.4,0.7,0.4,1.3c0,0.7-0.3,1.3-0.8,1.8C81.8,266.1,81.1,266.4,80.2,266.4z"
	/>
<path class="st2" d="M85.9,256.5c-0.3,0-0.5-0.1-0.7-0.3c-0.2-0.2-0.3-0.4-0.3-0.7s0.1-0.5,0.3-0.6c0.2-0.2,0.4-0.3,0.7-0.3
	c0.3,0,0.5,0.1,0.7,0.3s0.3,0.4,0.3,0.6c0,0.3-0.1,0.5-0.3,0.7C86.4,256.4,86.2,256.5,85.9,256.5z M85.3,266.2v-7.9h1.3v7.9H85.3z"
	/>
<path class="st2" d="M88.9,266.2v-7.9h1.2l0.1,1.4c0.3-0.5,0.6-0.9,1.1-1.2c0.5-0.3,1-0.4,1.6-0.4c0.9,0,1.7,0.3,2.2,0.9
	c0.6,0.6,0.8,1.4,0.8,2.6v4.6h-1.3v-4.5c0-1.6-0.7-2.5-2.1-2.5c-0.7,0-1.2,0.2-1.7,0.7s-0.7,1.2-0.7,2.1v4.1L88.9,266.2L88.9,266.2z
	"/>
<path class="st2" d="M101.2,263.7c-0.5,0-0.9-0.1-1.2-0.2l-0.8,0.8c0.1,0.1,0.3,0.2,0.4,0.2s0.4,0.1,0.8,0.2
	c0.3,0.1,0.8,0.1,1.4,0.2c1.1,0.1,1.8,0.3,2.3,0.7s0.7,1,0.7,1.6c0,0.5-0.1,0.9-0.4,1.3c-0.2,0.4-0.6,0.8-1.2,1
	c-0.5,0.3-1.2,0.4-2,0.4c-0.7,0-1.3-0.1-1.9-0.3c-0.5-0.2-1-0.5-1.3-0.8c-0.3-0.4-0.5-0.9-0.5-1.4c0-0.3,0.1-0.6,0.2-1
	c0.2-0.3,0.5-0.7,0.9-1c-0.2-0.1-0.4-0.2-0.6-0.3c-0.2-0.1-0.3-0.2-0.5-0.4v-0.4L99,263c-0.6-0.5-0.9-1.2-0.9-2.1
	c0-0.5,0.1-1,0.4-1.4c0.2-0.4,0.6-0.8,1.1-1s1-0.4,1.7-0.4c0.5,0,0.9,0.1,1.2,0.2h2.9v1l-1.5,0.1c0.3,0.5,0.5,1,0.5,1.5
	s-0.1,1-0.4,1.4c-0.2,0.4-0.6,0.8-1.1,1C102.5,263.5,101.9,263.7,101.2,263.7z M98.9,267.2c0,0.5,0.2,0.9,0.7,1.2s1,0.4,1.7,0.4
	s1.2-0.1,1.6-0.4s0.6-0.7,0.6-1.1c0-0.3-0.1-0.6-0.4-0.9c-0.3-0.2-0.8-0.4-1.5-0.4c-0.6,0-1.1-0.1-1.5-0.2c-0.4,0.2-0.7,0.5-0.9,0.8
	C99,266.7,98.9,267,98.9,267.2z M101.2,262.6c0.6,0,1-0.1,1.3-0.4s0.5-0.7,0.5-1.3c0-0.5-0.2-1-0.5-1.3s-0.8-0.4-1.3-0.4
	c-0.6,0-1,0.1-1.4,0.4c-0.3,0.3-0.5,0.7-0.5,1.3c0,0.5,0.2,1,0.5,1.3C100.2,262.4,100.7,262.6,101.2,262.6z"/>
<path class="st2" d="M111.2,266.2v-7.9h1.2l0.1,1.4c0.3-0.5,0.6-0.9,1.1-1.2c0.5-0.3,1-0.4,1.6-0.4c0.9,0,1.7,0.3,2.2,0.9
	c0.6,0.6,0.8,1.4,0.8,2.6v4.6h-1.3v-4.5c0-1.6-0.7-2.5-2.1-2.5c-0.7,0-1.2,0.2-1.7,0.7c-0.4,0.5-0.7,1.2-0.7,2.1v4.1L111.2,266.2
	L111.2,266.2z"/>
<path class="st2" d="M123.9,266.4c-0.8,0-1.4-0.2-2-0.5s-1-0.8-1.4-1.4c-0.3-0.6-0.5-1.4-0.5-2.2c0-0.8,0.2-1.6,0.5-2.2
	s0.8-1.1,1.4-1.5c0.6-0.3,1.3-0.5,2.1-0.5c0.8,0,1.4,0.2,2,0.5c0.6,0.4,1,0.8,1.3,1.4s0.4,1.2,0.4,1.8c0,0.1,0,0.2,0,0.4
	c0,0.1,0,0.2,0,0.4h-6.3c0,0.6,0.2,1.1,0.4,1.5s0.6,0.7,0.9,0.9c0.4,0.2,0.8,0.3,1.2,0.3c0.6,0,1-0.1,1.4-0.4s0.6-0.6,0.8-1h1.3
	c-0.2,0.7-0.6,1.4-1.2,1.8C125.6,266.1,124.8,266.4,123.9,266.4z M123.9,259.2c-0.6,0-1.2,0.2-1.7,0.6s-0.8,1-0.9,1.7h5
	c0-0.7-0.3-1.3-0.7-1.7C125.1,259.4,124.6,259.2,123.9,259.2z"/>
<path class="st2" d="M133.1,266.4c-0.8,0-1.4-0.2-2-0.5s-1.1-0.8-1.4-1.5s-0.5-1.4-0.5-2.2c0-0.8,0.2-1.6,0.5-2.2s0.8-1.1,1.4-1.5
	c0.6-0.3,1.3-0.5,2-0.5c0.9,0,1.7,0.2,2.4,0.7s1.1,1.2,1.2,2h-1.4c-0.1-0.5-0.4-0.9-0.8-1.1c-0.4-0.3-0.9-0.4-1.5-0.4
	c-0.4,0-0.9,0.1-1.3,0.3s-0.7,0.6-1,1c-0.2,0.4-0.4,1-0.4,1.7s0.1,1.2,0.4,1.7c0.2,0.4,0.6,0.8,1,1s0.8,0.3,1.3,0.3
	c0.6,0,1-0.1,1.5-0.4s0.7-0.7,0.8-1.2h1.4c-0.2,0.8-0.6,1.5-1.2,2C134.8,266.1,134,266.4,133.1,266.4z"/>
<path class="st2" d="M138.5,266.2v-11.5h1.3v6.9l3.2-3.3h1.6l-3.5,3.6l4,4.4h-1.7l-3.6-4.1v4.1h-1.3V266.2z"/>
<path class="st2" d="M154.5,266.4c-0.8,0-1.4-0.2-2-0.5s-1.1-0.8-1.4-1.4c-0.4-0.6-0.5-1.4-0.5-2.2s0.2-1.6,0.5-2.2s0.8-1.1,1.4-1.4
	c0.6-0.3,1.3-0.5,2-0.5s1.4,0.2,2,0.5s1.1,0.8,1.4,1.4c0.4,0.6,0.5,1.4,0.5,2.2s-0.2,1.6-0.5,2.2c-0.4,0.6-0.8,1.1-1.4,1.4
	C155.9,266.2,155.2,266.4,154.5,266.4z M154.5,265.2c0.5,0,0.9-0.1,1.3-0.3c0.4-0.2,0.7-0.6,1-1c0.2-0.5,0.4-1,0.4-1.7
	s-0.1-1.2-0.4-1.7c-0.2-0.4-0.6-0.8-1-1s-0.8-0.3-1.3-0.3s-0.9,0.1-1.3,0.3c-0.4,0.2-0.7,0.6-1,1s-0.4,1-0.4,1.7s0.1,1.2,0.4,1.7
	s0.6,0.8,1,1C153.6,265.1,154,265.2,154.5,265.2z"/>
<path class="st2" d="M160.3,266.2v-7.9h1.2l0.1,1.5c0.2-0.5,0.6-0.9,1.1-1.2s1.1-0.5,1.9-0.5v1.4h-0.4c-0.5,0-0.9,0.1-1.3,0.2
	c-0.4,0.2-0.7,0.5-0.9,0.8c-0.2,0.4-0.4,0.9-0.4,1.6v4h-1.3V266.2z"/>
<path class="st2" d="M174.6,266.4c-0.6,0-1.2-0.1-1.7-0.4s-0.9-0.6-1.2-1.1l-0.1,1.3h-1.2v-11.5h1.3v4.9c0.3-0.4,0.6-0.7,1.1-1
	s1.1-0.5,1.8-0.5c0.8,0,1.5,0.2,2.1,0.5c0.6,0.4,1,0.9,1.4,1.5s0.5,1.3,0.5,2.1c0,0.8-0.2,1.5-0.5,2.1s-0.8,1.1-1.4,1.5
	C176.1,266.2,175.4,266.4,174.6,266.4z M174.5,265.2c0.5,0,1-0.1,1.4-0.4c0.4-0.2,0.7-0.6,1-1c0.2-0.5,0.3-1,0.3-1.6
	s-0.1-1.1-0.3-1.6c-0.2-0.4-0.6-0.8-1-1s-0.9-0.4-1.4-0.4s-1,0.1-1.4,0.4s-0.7,0.6-1,1c-0.2,0.5-0.3,1-0.3,1.6s0.1,1.1,0.3,1.6
	s0.6,0.8,1,1C173.5,265.1,173.9,265.2,174.5,265.2z"/>
<path class="st2" d="M183.1,266.4c-0.7,0-1.2-0.1-1.6-0.3c-0.4-0.2-0.8-0.5-1-0.9s-0.3-0.8-0.3-1.2c0-0.8,0.3-1.4,0.9-1.9
	c0.6-0.4,1.5-0.7,2.5-0.7h2.1v-0.1c0-0.7-0.2-1.2-0.5-1.6c-0.4-0.4-0.8-0.5-1.5-0.5c-0.5,0-1,0.1-1.4,0.4s-0.6,0.6-0.7,1.1h-1.4
	c0.1-0.6,0.2-1.1,0.6-1.5c0.3-0.4,0.8-0.7,1.3-0.9c0.5-0.2,1-0.3,1.6-0.3c1.1,0,1.9,0.3,2.5,0.9s0.8,1.4,0.8,2.4v4.9h-1.2l-0.1-1.4
	c-0.2,0.5-0.6,0.8-1,1.1C184.4,266.2,183.8,266.4,183.1,266.4z M183.3,265.2c0.5,0,1-0.1,1.3-0.4c0.4-0.3,0.6-0.6,0.8-1
	s0.3-0.9,0.3-1.3l0,0h-2c-0.8,0-1.3,0.1-1.7,0.4c-0.3,0.3-0.5,0.6-0.5,1s0.1,0.8,0.5,1C182.3,265.1,182.7,265.2,183.3,265.2z"/>
<path class="st2" d="M192.7,266.4c-0.8,0-1.4-0.2-2-0.5s-1.1-0.8-1.4-1.5c-0.3-0.6-0.5-1.4-0.5-2.2c0-0.8,0.2-1.6,0.5-2.2
	c0.4-0.6,0.8-1.1,1.4-1.5c0.6-0.3,1.3-0.5,2-0.5c0.9,0,1.7,0.2,2.4,0.7c0.6,0.5,1,1.2,1.2,2h-1.4c-0.1-0.5-0.4-0.9-0.8-1.1
	c-0.4-0.3-0.9-0.4-1.5-0.4c-0.4,0-0.9,0.1-1.3,0.3s-0.7,0.6-1,1c-0.2,0.4-0.4,1-0.4,1.7s0.1,1.2,0.4,1.7c0.2,0.4,0.6,0.8,1,1
	s0.8,0.3,1.3,0.3c0.6,0,1-0.1,1.5-0.4s0.7-0.7,0.8-1.2h1.4c-0.2,0.8-0.6,1.5-1.2,2C194.4,266.1,193.7,266.4,192.7,266.4z"/>
<path class="st2" d="M198.2,266.2v-11.5h1.3v6.9l3.2-3.3h1.6l-3.5,3.6l4,4.4h-1.7l-3.6-4.1v4.1h-1.3V266.2z"/>
<path class="st2" d="M210.5,269.7v-11.5h1.2l0.1,1.3c0.3-0.4,0.6-0.7,1.1-1s1.1-0.5,1.8-0.5c0.8,0,1.5,0.2,2.1,0.5
	c0.6,0.4,1,0.9,1.4,1.5s0.5,1.3,0.5,2.1c0,0.8-0.2,1.5-0.5,2.1s-0.8,1.1-1.4,1.5c-0.6,0.4-1.3,0.5-2.1,0.5c-0.6,0-1.2-0.1-1.7-0.4
	s-0.9-0.6-1.2-1.1v4.9h-1.3V269.7z M214.6,265.2c0.5,0,1-0.1,1.4-0.4s0.7-0.6,1-1c0.2-0.5,0.3-1,0.3-1.6s-0.1-1.1-0.3-1.6
	c-0.2-0.4-0.6-0.8-1-1s-0.9-0.4-1.4-0.4s-1,0.1-1.4,0.4c-0.4,0.2-0.7,0.6-1,1c-0.2,0.5-0.4,1-0.4,1.6s0.1,1.1,0.4,1.6s0.6,0.8,1,1
	C213.6,265.1,214.1,265.2,214.6,265.2z"/>
<path class="st2" d="M223.2,266.4c-0.7,0-1.2-0.1-1.6-0.3c-0.4-0.2-0.8-0.5-1-0.9s-0.3-0.8-0.3-1.2c0-0.8,0.3-1.4,0.9-1.9
	c0.6-0.4,1.5-0.7,2.5-0.7h2.1v-0.1c0-0.7-0.2-1.2-0.5-1.6c-0.4-0.4-0.8-0.5-1.5-0.5c-0.5,0-1,0.1-1.4,0.4s-0.6,0.6-0.7,1.1h-1.4
	c0.1-0.6,0.2-1.1,0.6-1.5c0.3-0.4,0.8-0.7,1.3-0.9c0.5-0.2,1-0.3,1.6-0.3c1.1,0,1.9,0.3,2.5,0.9s0.8,1.4,0.8,2.4v4.9H226l-0.1-1.4
	c-0.2,0.5-0.6,0.8-1,1.1S223.9,266.4,223.2,266.4z M223.4,265.2c0.5,0,0.9-0.1,1.3-0.4c0.4-0.3,0.6-0.6,0.8-1s0.3-0.9,0.3-1.3l0,0
	h-2c-0.8,0-1.3,0.1-1.7,0.4c-0.3,0.3-0.5,0.6-0.5,1s0.2,0.8,0.5,1C222.4,265.1,222.8,265.2,223.4,265.2z"/>
<path class="st2" d="M230,256.5c-0.3,0-0.5-0.1-0.7-0.3c-0.2-0.2-0.3-0.4-0.3-0.7s0.1-0.5,0.3-0.6c0.2-0.2,0.4-0.3,0.7-0.3
	s0.5,0.1,0.7,0.3s0.3,0.4,0.3,0.6c0,0.3-0.1,0.5-0.3,0.7C230.5,256.4,230.3,256.5,230,256.5z M229.3,266.2v-7.9h1.3v7.9H229.3z"/>
<path class="st2" d="M233,266.2v-7.9h1.2l0.1,1.4c0.3-0.5,0.6-0.9,1.1-1.2c0.5-0.3,1-0.4,1.6-0.4c0.9,0,1.7,0.3,2.2,0.9
	c0.6,0.6,0.8,1.4,0.8,2.6v4.6h-1.3v-4.5c0-1.6-0.7-2.5-2-2.5c-0.7,0-1.2,0.2-1.7,0.7c-0.4,0.5-0.7,1.2-0.7,2.1v4.1L233,266.2
	L233,266.2z"/>
<path class="st2" d="M242.6,266.2c-0.3,0-0.5-0.1-0.7-0.3c-0.2-0.2-0.3-0.4-0.3-0.7c0-0.3,0.1-0.5,0.3-0.6c0.2-0.2,0.4-0.3,0.7-0.3
	s0.5,0.1,0.6,0.3c0.2,0.2,0.3,0.4,0.3,0.6c0,0.3-0.1,0.5-0.3,0.7C243.1,266.2,242.9,266.2,242.6,266.2z"/>
<path class="st3" d="M29.2,195.8c0.5-0.5,0.9-0.8,1.1-1c0.2-0.1,0.5-0.2,1-0.2c1.3,0,1.9,0.4,1.9,1.3c0,0.8-0.6,1.4-1.7,2
	c-0.7,0.4-1.3,1.8-1.7,4.2c-0.2,1.1-0.3,2.2-0.3,3.4s0.1,2.4,0.2,3.6c0.1,1.6,0.4,2.7,0.7,3.3c0.3,0.6,0.8,1,1.4,1.1
	c1.1,0.2,1.8,0.5,1.9,1c0,0.1,0,0.1,0,0.2c0,0.3-0.2,0.6-0.5,0.9c-0.3,0.3-0.7,0.5-1.1,0.6c-0.1,0-0.2,0-0.5,0c-1,0-2-0.2-2.8-0.7
	c-0.3-0.2-0.7-0.7-1.1-1.5s-0.8-1.6-1-2.4c-0.3-1.2-0.5-3.2-0.5-6.1c0-1.1,0.1-2.2,0.2-3.2c0.2-1.7,0.5-3,0.9-3.9
	C27.8,197.6,28.4,196.7,29.2,195.8z"/>
<path class="st3" d="M39.4,194.6l0.8-1h5.2l0.8,0.8c0.5,0.5,0.9,1.2,1.1,2c0.2,0.8,0.4,2.1,0.6,3.8c0.1,0.6,0.1,1.6,0.1,2.8
	c0,2.9-0.3,5.5-0.8,7.8s-1.2,3.9-2.1,4.8c-0.3,0.3-0.7,0.5-1.2,0.7s-1,0.3-1.4,0.3c-0.2,0-0.3,0-0.4-0.1c-0.2-0.1-0.5-0.2-0.9-0.2
	c-0.3,0-0.6-0.2-1-0.7s-0.7-1-0.9-1.7c-0.4-1.1-0.6-2.3-0.8-3.6c-0.1-1.3-0.2-3.4-0.2-6.3v-2c0-2.6,0.1-4.4,0.2-5.3
	S38.9,195.2,39.4,194.6z M43.3,196.6c-0.2-0.5-0.5-0.8-0.6-0.8c-0.2,0-0.4,0.4-0.7,1.3c-0.2,0.7-0.3,2-0.3,3.9
	c0,1.5,0.1,3.1,0.2,4.8c0.1,1.6,0.3,3.1,0.6,4.5c0.2,1.4,0.5,2.1,0.7,2.1c0.1,0,0.3-0.3,0.4-0.9c0.1-0.5,0.3-0.9,0.5-1.3
	c0.1-0.2,0.2-1.4,0.4-3.7c0.1-1.2,0.1-2.3,0.1-3.3C44.4,200.1,44,197.9,43.3,196.6z"/>
<path class="st3" d="M62.8,194.5c0.4-0.1,0.7-0.2,1-0.2c0.7,0,1.2,0.2,1.5,0.8c0.2,0.3,0.4,1.5,0.7,3.6c0.2,2.1,0.4,4.4,0.5,6.8
	c0,0.8,0.1,1.9,0.2,3.4s0.1,2.7,0.2,3.8c0,1.1,0.1,1.9,0.1,2.5c0,0.4-0.2,0.7-0.6,0.9s-0.9,0.4-1.3,0.4s-0.7-0.1-0.9-0.2l-0.5-0.4
	l-0.1-5.1c-0.2-5.8-0.4-8.7-0.8-8.7c-0.2,0-0.5,0.7-1,2.2c-0.2,0.8-0.5,1.4-0.8,1.7s-0.6,0.5-1,0.5c-0.3,0-0.7-0.1-1.1-0.2
	c-0.5-0.2-0.9-0.6-1.2-1.3s-0.5-1.1-0.5-1.2c0-0.1-0.1-0.3-0.2-0.6c-0.1-0.3-0.3-0.6-0.5-0.8s-0.3-0.3-0.3-0.3v0.5
	c0,1.2,0,3,0.1,5.4l0.2,5.8l-0.5,0.9c-0.6,0.9-1.1,1.4-1.6,1.4c-0.3,0-0.5-0.2-0.8-0.6c-0.2-0.3-0.4-0.9-0.4-1.5
	c-0.1-0.7-0.1-2.8-0.2-6.3c-0.2-6.5-0.3-10.2-0.5-11c0-0.1,0-0.3,0-0.5c0-0.3,0.2-0.6,0.5-0.9c0.3-0.3,0.7-0.5,1.2-0.5
	s1,0.1,1.6,0.4c0.6,0.2,1,0.6,1.3,1s1,1.7,2.1,3.7c0.3,0.5,0.5,0.8,0.7,0.8c0.1,0,0.3-0.2,0.4-0.6c0.1-0.5,0.4-1,0.7-1.7
	c0.4-0.8,0.6-1.3,0.6-1.4c0-0.2,0.2-0.7,0.6-1.3C62.3,194.9,62.6,194.6,62.8,194.5z"/>
<path class="st3" d="M73.2,194.9c0.7-0.1,1.4-0.1,2.1-0.1c0.6,0,1.1,0,1.3,0c1.3,0.1,2.1,0.2,2.4,0.5c0.2,0.3,0.4,0.6,0.4,0.9
	c0,0.7-0.6,1.2-1.9,1.5c-0.3,0.1-1.1,0.2-2.1,0.5l-0.9,0.2v2.8c0,1.4,0,2.2,0.1,2.4c0,0.2,0.2,0.4,0.5,0.6c0.3,0.2,0.7,0.2,1.3,0.2
	c0.5,0,0.8,0.1,1.1,0.5c0.2,0.3,0.3,0.6,0.3,0.9c0,0.7-0.6,1.1-1.7,1.4c-0.7,0.2-1.1,0.3-1.2,0.4c-0.1,0.1-0.1,0.3-0.1,0.7
	c0,0.3,0.2,2.6,0.5,6.7l0.1,1.1c0,0.3-0.2,0.6-0.6,0.8c-0.2,0.1-0.6,0.2-0.9,0.2c-0.6,0-1.1-0.2-1.7-0.8c-0.5-0.4-0.7-0.9-0.7-1.5
	v-0.3c0-0.3,0-0.8,0-1.5s0-1.3,0-1.7c0-5.4-0.1-9.4-0.3-12c-0.1-1.1-0.1-1.9-0.1-2.4c0-0.8,0.1-1.2,0.4-1.4
	C71.7,195.1,72.3,195,73.2,194.9z"/>
<path class="st3" d="M84.9,194.6l0.8-1h5.2l0.8,0.8c0.5,0.5,0.9,1.2,1.1,2s0.4,2.1,0.6,3.8c0.1,0.6,0.1,1.6,0.1,2.8
	c0,2.9-0.3,5.5-0.8,7.8s-1.2,3.9-2.1,4.8c-0.3,0.3-0.7,0.5-1.2,0.7s-1,0.3-1.4,0.3c-0.2,0-0.3,0-0.4-0.1c-0.2-0.1-0.5-0.2-0.9-0.2
	c-0.3,0-0.6-0.2-1-0.7s-0.7-1-0.9-1.7c-0.4-1.1-0.7-2.3-0.8-3.6c-0.1-1.3-0.2-3.4-0.2-6.3v-2c0-2.6,0.1-4.4,0.2-5.3
	C84.2,195.9,84.5,195.2,84.9,194.6z M88.9,196.6c-0.2-0.5-0.5-0.8-0.6-0.8c-0.2,0-0.4,0.4-0.7,1.3c-0.2,0.7-0.3,2-0.3,3.9
	c0,1.5,0.1,3.1,0.2,4.8c0.1,1.6,0.3,3.1,0.6,4.5c0.2,1.4,0.5,2.1,0.7,2.1c0.1,0,0.3-0.3,0.4-0.9c0.1-0.5,0.3-0.9,0.5-1.3
	c0.1-0.2,0.2-1.4,0.4-3.7c0.1-1.2,0.1-2.3,0.1-3.3C89.9,200.1,89.6,197.9,88.9,196.6z"/>
<path class="st3" d="M99.1,192.8c0.5-0.2,1.2-0.2,1.9-0.2c0.8,0,1.5,0.1,1.8,0.2c0.7,0.3,1.3,0.9,1.7,1.7c0.2,0.4,0.3,1.1,0.5,2.2
	c0.2,1.1,0.2,2,0.2,2.9c0,0.4,0,0.7,0,0.8c-0.1,0.7-0.3,1.5-0.6,2.4c-0.3,0.9-0.5,1.3-0.6,1.3c-0.2,0-0.3,0.2-0.3,0.6
	c0,0.3,0.1,0.6,0.3,0.9c0.4,0.6,1.1,1.8,1.9,3.6s1.3,2.8,1.3,3.3c0,0.1,0,0.3,0,0.6c0,0.4-0.1,0.7-0.3,1c-0.2,0.3-0.5,0.5-0.8,0.5
	s-0.5,0-0.8,0c-0.7-0.1-1.1-0.2-1.3-0.3c-0.2-0.1-0.3-0.3-0.3-0.7c0-0.6-0.3-1.4-0.9-2.6s-1-1.7-1.3-1.7l0,0
	c-0.1,0.1-0.1,0.4-0.1,0.9c0,0.8,0.1,1.8,0.2,2.8c0.1,0.5,0.1,0.8,0.1,0.9c0,0.9-0.2,1.5-0.6,1.8c-0.2,0.1-0.4,0.1-0.7,0.1
	c-0.9,0-1.5-0.2-1.7-0.6c-0.1-0.2-0.2-2.1-0.3-5.7c0-1.1-0.1-2.4-0.1-3.7s0-2.3,0-2.9c0-0.6,0-1.4-0.1-2.3c-0.1-1-0.2-2-0.3-3.2
	c-0.1-1.3-0.2-2.1-0.2-2.4c0-0.7,0.1-1.1,0.3-1.4C98.3,193.2,98.6,193,99.1,192.8z M101.8,195.9c-0.1-0.2-0.2-0.3-0.5-0.3
	c-0.2,0-0.3,0.1-0.4,0.3s-0.1,0.4,0,0.5c0,0,0.1,0.9,0.2,2.7s0.2,2.7,0.3,2.8c0.1,0.1,0.2-0.1,0.4-0.3c0.2-0.2,0.2-0.7,0.2-1.4
	c0-0.5,0-1,0-1.4C102,197.2,101.9,196.2,101.8,195.9z"/>
<path class="st3" d="M112.5,192.7c0.4-0.3,1-0.5,1.9-0.5h1c1.5,0.1,2.4,0.1,2.7,0.2c0.2,0.1,0.6,0.1,1.2,0.1
	c0.6,0.1,1.1,0.2,1.4,0.4s0.4,0.6,0.4,1.1s-0.1,0.9-0.3,1.1c-0.2,0.2-0.6,0.4-1.1,0.5c-0.6,0.1-0.9,0.2-1,0.3s-0.2,2.8-0.2,8
	c0,3.6,0,6.1,0.1,7.6c0.1,1.2,0.1,1.8,0.1,1.9c0,0.6-0.1,1.1-0.4,1.5c-0.3,0.6-0.8,0.8-1.4,0.8c-0.4,0-0.8-0.1-1.3-0.4l-0.8-0.5
	l0.1-9.6c0.1-2.5,0.1-4.9,0.1-7.4c0-1.5-0.1-2.3-0.3-2.4c-0.3-0.2-0.6-0.2-0.6-0.2c-0.1,0-0.3,0-0.5,0c-0.5,0-0.9-0.2-1.3-0.4
	c-0.3-0.3-0.5-0.6-0.5-1C111.9,193.5,112.1,193.1,112.5,192.7z"/>
<path class="st3" d="M128.9,196.6c0.7-0.7,1.8-1.1,3.3-1.1c0.6,0,1.2,0.1,1.6,0.3c0.6,0.3,1,1.1,1.3,2.4c0.2,1.1,0.4,2.9,0.7,5.4
	s0.4,4.5,0.5,5.9c0,1.3,0.1,2.8,0.3,4.4c0.1,1.6,0.3,2.5,0.4,2.7c0,0,0,0.1,0,0.2c0,0.2-0.1,0.6-0.3,0.9c-0.2,0.4-0.4,0.6-0.6,0.6
	c-0.1,0-0.2,0-0.4,0c-0.4,0-0.9-0.1-1.4-0.3s-0.8-0.4-0.9-0.6s-0.2-1-0.4-2.3s-0.2-2.4-0.2-3.2s-0.1-1.2-0.2-1.3
	c-0.1-0.1-0.8-0.1-1.9-0.1c-1,0-1.4,0-1.5,0.1c0,0.1,0,0.3,0,0.5c0,0.6,0,1.3,0.1,2.3c0.1,1.1,0.1,2,0.1,2.7v0.4
	c0,0.2-0.2,0.4-0.6,0.5c-0.4,0.1-0.7,0.2-1.1,0.2c-0.2,0-0.3,0-0.4,0c-0.9-0.3-1.5-0.7-1.6-1.2c0,0,0-0.1,0-0.2s0-0.2,0-0.3
	c0-1.2,0.1-3.7,0.4-7.6c0.3-3.9,0.5-6.1,0.6-6.7c0.2-0.8,0.5-1.6,1-2.6C128,197.6,128.5,197,128.9,196.6z M131.7,200.9
	c-0.2-0.8-0.4-1.2-0.6-1.2c-0.2,0-0.4,0.3-0.7,0.9c-0.5,1.1-0.9,2.7-1,4.6c-0.1,0.8-0.1,1.3-0.1,1.4c0,0.4,0.1,0.6,0.2,0.7
	c0.1,0.1,0.5,0.2,1.1,0.2c0.8,0,1.3-0.1,1.4-0.2c0.1-0.1,0.1-0.4,0.1-1.1C132.2,204.2,132,202.5,131.7,200.9z"/>
<path class="st3" d="M142.2,194.3c0.2-0.1,0.6-0.2,1.1-0.2c0.9,0,1.9,0.2,2.9,0.7c1,0.4,1.7,0.9,2.1,1.5c0.4,0.7,0.7,1.4,0.7,2.2
	c0,1-0.3,2.2-0.9,3.7l-0.5,1.1l0.7,0.7c0.5,0.5,0.9,1.1,1.3,1.8c0.3,0.7,0.5,1.4,0.5,2s0,1.2,0,1.7c-0.1,1.2-0.1,2-0.2,2.4
	s-0.3,0.9-0.6,1.6c-0.7,1.3-1.3,2.2-1.8,2.6c-0.5,0.4-1.3,0.6-2.3,0.6c-1.1,0-1.8,0-2,0l0,0c-0.5,0-0.9-0.2-1.2-0.7
	c-0.4-0.5-0.6-1-0.7-1.7c0-0.1,0-0.4,0-0.9c0-0.8,0-1.6,0.1-2.4c0.2-1.4,0.2-4.9,0.2-10.7c0-3,0-4.5-0.1-4.7c0,0,0-0.1,0-0.2
	c0-0.2,0.1-0.5,0.3-0.8C141.8,194.5,142,194.4,142.2,194.3z M146.4,206.5c-0.1-0.2-0.4-0.3-0.7-0.3s-0.5,0.1-0.7,0.4
	c-0.2,0.3-0.2,1.8-0.2,4.5c0,1.3,0,2.1,0.1,2.1h0.1c0.1,0,0.3-0.2,0.6-0.6c0.3-0.4,0.5-0.9,0.7-1.5c0.3-0.7,0.4-1.7,0.4-2.9
	C146.7,207.4,146.6,206.8,146.4,206.5z M145.4,198.3c-0.1-0.2-0.2-0.4-0.4-0.4s-0.3,0.6-0.3,1.7c0,1,0,1.5,0.1,1.5l0,0
	c0.1-0.1,0.3-0.4,0.4-0.8c0.1-0.4,0.2-0.8,0.2-1c0-0.1,0-0.3,0-0.5C145.4,198.5,145.4,198.4,145.4,198.3z"/>
<path class="st3" d="M154.8,193.9c0.2-0.2,0.5-0.4,0.8-0.4c0.2,0,0.5,0,0.6,0c0.6,0.1,1.1,0.3,1.2,0.5c0.3,0.4,0.5,2.9,0.5,7.6v2.5
	v2.2c0,3.7,0,5.7,0.1,6c0.1,0.5,0.6,0.7,1.4,0.7c0.4,0,0.7,0,1,0c0.2,0,0.5,0,0.8,0c0.5,0,0.9,0.1,1.1,0.2c0.2,0.2,0.3,0.5,0.3,0.9
	c0,0.3-0.1,0.5-0.2,0.7c-0.1,0.2-0.4,0.4-0.8,0.7c-0.8,0.4-1.6,0.6-2.4,0.7c-1.2,0.1-1.8,0.1-1.9,0.1s-0.1,0-0.3,0
	c-0.3,0-0.7-0.1-1.1-0.3c-0.4-0.2-0.7-0.4-1-0.7c-0.4-0.5-0.6-1.9-0.6-4.3c0-0.6,0-1.7,0.1-3.3c0.1-1.5,0.1-3,0.1-4.8
	c0-4.1-0.1-6.6-0.2-7.6c-0.1-0.4-0.1-0.6-0.1-0.7C154.4,194.4,154.5,194.1,154.8,193.9z"/>
<path class="st3" d="M169,195.1c0.3-0.1,0.8-0.1,1.3-0.1c1.5,0,2.5,0.2,2.9,0.5c0.3,0.2,0.4,0.6,0.4,0.9c0,0.4-0.1,0.7-0.4,0.9
	s-0.6,0.4-1.1,0.4c-0.4,0-0.7,0.1-0.8,0.3s-0.2,0.7-0.2,1.5c0,0.2,0,0.9,0.1,2.1c0.1,1.4,0.1,2.3,0.2,2.7c0.1,0.4,0.2,0.6,0.3,0.6
	c0,0,0.2,0,0.6,0c0.3,0,0.6,0,0.8,0c0.7,0,1.2,0.2,1.5,0.5c0.2,0.2,0.3,0.4,0.3,0.6c0,0.4-0.6,0.9-1.8,1.3c-0.7,0.2-1.1,0.4-1.3,0.6
	s-0.2,0.4-0.3,0.9s-0.1,0.8-0.1,1.2c0,1.4,0.1,2.4,0.4,3.1c0.1,0.3,0.2,0.5,0.4,0.5s0.4,0.1,0.9,0.1c0.6,0,1.1,0.1,1.5,0.4
	s0.6,0.6,0.6,0.9c0,0.2-0.2,0.6-0.6,1c-0.7,0.6-1.8,1-3.4,1c-1.6,0-2.7-0.4-3.2-1c-0.3-0.4-0.4-2.8-0.5-7.2
	c-0.1-5.5-0.1-8.8-0.2-9.7l-0.1-3.1l0.6-0.3C168.2,195.4,168.6,195.2,169,195.1z"/>
<path class="st3" d="M191.1,194.3c0.2-0.1,0.6-0.2,1.1-0.2c0.9,0,1.9,0.2,2.9,0.7c1,0.4,1.7,0.9,2.1,1.5c0.4,0.7,0.7,1.4,0.7,2.2
	c0,1-0.3,2.2-0.9,3.7l-0.5,1.1l0.7,0.7c0.5,0.5,0.9,1.1,1.3,1.8c0.3,0.7,0.5,1.4,0.5,2s0,1.2,0,1.7c-0.1,1.2-0.1,2-0.2,2.4
	s-0.3,0.9-0.6,1.6c-0.7,1.3-1.3,2.2-1.8,2.6c-0.5,0.4-1.3,0.6-2.3,0.6c-1.1,0-1.8,0-2,0l0,0c-0.4,0-0.9-0.2-1.2-0.7
	c-0.4-0.5-0.6-1-0.7-1.7c0-0.1,0-0.4,0-0.9c0-0.8,0-1.6,0.1-2.4c0.2-1.4,0.2-4.9,0.2-10.7c0-3,0-4.5-0.1-4.7c0,0,0-0.1,0-0.2
	c0-0.2,0.1-0.5,0.3-0.8C190.7,194.5,190.9,194.4,191.1,194.3z M195.3,206.5c-0.1-0.2-0.4-0.3-0.7-0.3s-0.6,0.1-0.7,0.4
	c-0.2,0.3-0.2,1.8-0.2,4.5c0,1.3,0,2.1,0.1,2.1h0.1c0.1,0,0.3-0.2,0.6-0.6c0.3-0.4,0.5-0.9,0.7-1.5c0.3-0.7,0.4-1.7,0.4-2.9
	C195.6,207.4,195.5,206.8,195.3,206.5z M194.3,198.3c-0.1-0.2-0.2-0.4-0.4-0.4s-0.3,0.6-0.3,1.7c0,1,0,1.5,0.1,1.5l0,0
	c0.1-0.1,0.3-0.4,0.4-0.8c0.1-0.4,0.2-0.8,0.2-1c0-0.1,0-0.3,0-0.5C194.3,198.5,194.3,198.4,194.3,198.3z"/>
<path class="st3" d="M205.1,195.1c0.3-0.1,0.8-0.1,1.3-0.1c1.5,0,2.5,0.2,2.9,0.5c0.3,0.2,0.4,0.6,0.4,0.9c0,0.4-0.1,0.7-0.4,0.9
	s-0.6,0.4-1.1,0.4c-0.4,0-0.7,0.1-0.8,0.3s-0.2,0.7-0.2,1.5c0,0.2,0,0.9,0.1,2.1c0.1,1.4,0.1,2.3,0.2,2.7c0.1,0.4,0.2,0.6,0.3,0.6
	c0,0,0.2,0,0.6,0c0.3,0,0.6,0,0.8,0c0.7,0,1.2,0.2,1.5,0.5c0.2,0.2,0.3,0.4,0.3,0.6c0,0.4-0.6,0.9-1.8,1.3c-0.7,0.2-1.1,0.4-1.3,0.6
	s-0.2,0.4-0.3,0.9s-0.1,0.8-0.1,1.2c0,1.4,0.1,2.4,0.4,3.1c0.1,0.3,0.2,0.5,0.4,0.5s0.4,0.1,0.9,0.1c0.6,0,1.1,0.1,1.5,0.4
	s0.6,0.6,0.6,0.9c0,0.2-0.2,0.6-0.6,1c-0.7,0.6-1.8,1-3.4,1c-1.6,0-2.7-0.4-3.2-1c-0.3-0.4-0.4-2.8-0.5-7.2
	c-0.1-5.5-0.1-8.8-0.2-9.7l-0.1-3.1l0.6-0.3C204.3,195.4,204.7,195.2,205.1,195.1z"/>
<path class="st3" d="M216.4,195.1c0.1,0,0.8,0,2.1,0c1.5,0,2.5,0.3,3.3,0.9c0.7,0.6,1.3,1.7,1.8,3.3c0.4,1.5,0.7,3.2,0.7,5.2
	c0,0.4,0,0.9-0.1,1.4c-0.1,0.4-0.2,1-0.3,1.9s-0.2,1.6-0.3,2.2c-0.1,0.7-0.2,1.1-0.4,1.4c-0.1,0.2-0.2,0.5-0.2,0.8
	c0,0.2-0.1,0.6-0.4,1.2c-0.3,0.6-0.5,1-0.7,1.3c-0.3,0.4-0.8,0.8-1.5,1.1c-0.6,0.3-1.3,0.5-1.9,0.6c-0.5,0.1-0.8,0.1-0.9,0.1
	c-0.3,0-0.7-0.1-1-0.5l-0.6-0.6v-7.1v-2.1c0-3.5,0-5.4-0.1-5.8c-0.2-1.1-0.2-2.1-0.2-2.9C215.6,196,215.8,195.2,216.4,195.1z
	 M220.3,200.2c-0.4-1.5-0.8-2.2-1.1-2.2l-0.1,0.1v0.1c0,0.1,0,0.1,0,0.3c0,0.1,0,0.2,0,0.4c0,0.4,0,1.2,0.1,2.4
	c0.1,1.4,0.1,3.4,0.2,5.8c0,2.3,0.1,3.5,0.3,3.5c0.1,0,0.1-0.2,0.3-0.6c0.5-1.8,0.8-3.7,0.8-5.7
	C220.8,202.7,220.6,201.3,220.3,200.2z"/>
<path class="st3" d="M229.2,195.1c0.1,0,0.8,0,2.1,0c1.5,0,2.5,0.3,3.3,0.9c0.7,0.6,1.3,1.7,1.8,3.3c0.5,1.5,0.7,3.2,0.7,5.2
	c0,0.4,0,0.9-0.1,1.4c-0.1,0.4-0.2,1-0.3,1.9c-0.1,0.8-0.2,1.6-0.3,2.2c-0.1,0.7-0.2,1.1-0.4,1.4c-0.1,0.2-0.2,0.5-0.2,0.8
	c0,0.2-0.1,0.6-0.4,1.2c-0.3,0.6-0.5,1-0.7,1.3c-0.3,0.4-0.8,0.8-1.5,1.1c-0.6,0.3-1.3,0.5-1.9,0.6c-0.5,0.1-0.8,0.1-0.9,0.1
	c-0.3,0-0.7-0.1-1-0.5l-0.6-0.6v-7.1v-2.1c0-3.5,0-5.4-0.1-5.8c-0.2-1.1-0.2-2.1-0.2-2.9C228.5,196,228.7,195.2,229.2,195.1z
	 M233.2,200.2c-0.4-1.5-0.8-2.2-1.1-2.2l-0.1,0.1v0.1c0,0.1,0,0.1,0,0.3c0,0.1,0,0.2,0,0.4c0,0.4,0,1.2,0.1,2.4
	c0.1,1.4,0.1,3.4,0.2,5.8c0,2.3,0.1,3.5,0.3,3.5c0.1,0,0.1-0.2,0.3-0.6c0.5-1.8,0.8-3.7,0.8-5.7
	C233.7,202.7,233.5,201.3,233.2,200.2z"/>
<path class="st3" d="M241.8,192.6c0.3-0.4,0.8-0.6,1.3-0.6s0.9,0.2,1.3,0.6l0.6,0.5l0.2,9.5c0.1,5.2,0.2,8.2,0.2,9c0,0.4,0,0.8,0,1
	c0,0.3,0,0.5,0,0.7s-0.1,0.3-0.1,0.4s-0.1,0.2-0.1,0.2s-0.1,0.1-0.2,0.1c-0.1,0.1-0.2,0.1-0.2,0.1c-0.3,0.2-0.6,0.3-0.8,0.3
	c-0.1,0-0.4-0.1-0.8-0.2c-0.7-0.3-1-0.5-1.1-0.7c-0.1-0.1-0.2-3.5-0.2-10.1c-0.1-6.6-0.1-9.9-0.2-10
	C241.4,193.2,241.5,193,241.8,192.6z"/>
<path class="st3" d="M250.7,194.2c0.4-0.2,0.8-0.3,1.3-0.3c0.8,0,1.4,0.5,1.7,1.6c0.2,0.8,0.6,1.7,1,2.6c0.4,0.9,0.7,1.6,0.9,2.2
	c0.3,0.9,0.5,1.5,0.8,1.7c0.1,0.1,0.1,0.2,0.2,0.2s0.2-0.6,0.3-1.8c0.1-1.1,0.1-1.9,0.1-2.3v-0.5c0-0.2,0-0.5,0-0.8
	c0-0.7,0.2-1.2,0.5-1.6c0.3-0.4,0.9-0.6,1.6-0.6c0.5,0,0.9,0.1,1.2,0.4c0.2,0.2,0.4,0.5,0.4,1s0,1-0.1,1.5s-0.1,3.9-0.2,10.2
	c0,3.9-0.1,6.3-0.1,7.1s-0.1,1.3-0.3,1.5c-0.3,0.3-0.7,0.5-1.3,0.5c-1.2,0-1.9-0.6-2.1-1.8c-0.1-0.5-0.4-1.3-0.8-2.5
	c-0.4-1.1-0.7-2.1-0.8-3c-0.2-1.1-0.6-2.7-1.2-4.6c-0.1-0.2-0.1-0.2-0.1-0.2c-0.1,0-0.2,1.2-0.2,3.5v2v2.2c0,2.3-0.1,3.6-0.2,3.9
	c-0.3,0.8-0.9,1.2-1.8,1.2c-0.5,0-1-0.2-1.3-0.5c-0.2-0.3-0.4-0.6-0.4-0.8c0-0.1,0-0.3,0.1-0.8c0.1-0.9,0.2-4.3,0.2-10.1
	c0-6.5,0.1-9.9,0.2-10.3c0.1-0.2,0.2-0.4,0.5-0.5C250.6,194.2,250.6,194.2,250.7,194.2z"/>
<path class="st3" d="M266.7,196.1c0-0.2,0.1-0.4,0.4-0.6c0.3-0.2,0.6-0.4,1-0.5c0.4-0.2,0.6-0.3,0.7-0.4c0.1-0.2,0.3-0.2,0.5-0.2
	s0.6,0.2,1.3,0.6c0.6,0.4,1,0.8,1.1,1.2c0,0.1,0,0.2,0,0.2c0,0.3-0.4,0.6-1.2,0.9c-0.8,0.4-1.4,0.8-1.6,1.2c-0.4,0.8-0.6,2.9-0.6,6
	c0,1.1,0,1.9,0.1,2.4c0.3,3.7,0.6,5.7,0.8,6.1l0,0c0.2,0,0.4-1,0.4-3.1c0.1-1.1,0.1-1.9,0.2-2.3c0.1-0.5,0.1-0.9-0.2-1.2
	c-0.3-0.4-0.5-0.8-0.5-1.1c0-0.2,0.1-0.5,0.3-0.8c0.3-0.3,1-0.5,1.9-0.5c0.6,0,1.1,0,1.3,0.1c0.2,0.1,0.4,0.2,0.6,0.4
	c0.2,0.3,0.4,0.7,0.4,1.2c0,0.4-0.1,1-0.2,1.6c-0.2,1-0.3,2.4-0.4,4.1c-0.1,2-0.4,3.3-0.7,3.9c-0.4,0.7-0.7,1.2-1,1.4
	s-0.7,0.5-1.4,0.6c-0.4,0.1-0.8,0.2-1.2,0.2c-0.5,0-1-0.2-1.6-0.7c-0.7-0.5-1.3-1.9-1.7-4c-0.1-0.5-0.2-0.8-0.3-1
	c-0.1-0.1-0.1-0.5-0.2-1.2c0-0.4-0.1-2.2-0.2-5.6l-0.2-4.6l0.6-1.9c0.4-1.2,0.7-2,0.9-2.3C266.6,196.4,266.7,196.3,266.7,196.1z"/>
<path class="st3" d="M278.6,211.8c0.3-0.3,0.6-0.5,0.9-0.5c0.1,0,0.3,0,0.6,0.1c1.1,0.2,1.7,0.7,1.7,1.3c0,0.5-0.4,1-1,1.4
	s-1.1,0.5-1.4,0.5c-0.6,0-1-0.5-1.1-1.4c0-0.2,0-0.4,0-0.6C278.1,212.3,278.3,212,278.6,211.8z"/>
<path class="st4" d="M130.7,109c57.2,0,103.5-3,103.5-6.8s-46.3-6.8-103.5-6.8s-103.5,3-103.5,6.8S73.5,109,130.7,109z"/>
<path class="st5" d="M55.6,100.3c0.6,0,1-0.5,1-1v-5.1c0-1.1,1.1-2,2.4-2h100c1.3,0,2.4,0.9,2.4,2v5.1c0,0.6,0.5,1,1,1h3.8
	c0.6,0,1-0.5,1-1V72.5c0-1.5-1.4-2.7-3.2-2.7h-2.6l0,0H56.7l0,0H54c-1.8,0-3.2,1.2-3.2,2.7v26.8c0,0.6,0.5,1,1,1H55.6z M161.4,78.8
	v4.6c0,2.1-2,3.8-4.6,3.8H61.3c-2.5,0-4.6-1.7-4.6-3.8v-4.6c0-1.5,1.4-2.7,3.2-2.7h98.4C160,76.1,161.4,77.3,161.4,78.8z"/>
<path class="st5" d="M152.8,44.9V18.3c0-1.5-1.2-2.7-2.6-2.4c-1.1,0.2-1.8,1.3-1.8,2.6V20c0,1.1-0.8,2-1.8,2H71.4
	c-1,0-1.8-0.9-1.8-2v-1.5c0-1.2-0.7-2.4-1.8-2.6c-1.4-0.2-2.6,0.9-2.6,2.4v26.5h87.6V44.9z"/>
<path class="st5" d="M167.2,59.6H50.8v15.6h116.4V59.6z"/>
<path class="st2" d="M167.2,74.3H50.8v15.6h116.4V74.3z"/>
<path class="st1" d="M104.9,44h-31v-9.6c0-2.5,2.1-4.6,4.6-4.6h21.8c2.5,0,4.6,2.1,4.6,4.6V44z"/>
<path class="st1" d="M146.4,44h-31v-9.6c0-2.5,2.1-4.6,4.6-4.6h21.8c2.5,0,4.6,2.1,4.6,4.6V44z"/>
<path class="st6" d="M92,44.3c-0.4-3.1-0.9-7-0.8-9.1c-2.1,1.7-5.4,5-6.6,9.1C84.6,44.3,92,44.3,92,44.3z"/>
<path class="st7" d="M124.3,28c0,0-12.6,3.7-21.4-4.4C102.8,23.6,113.2,19.2,124.3,28z"/>
<path class="st8" d="M116.8,22.3c0,0-4,3.2-15.8,2.8C101,25.1,104.3,17.9,116.8,22.3z"/>
<path class="st3" d="M127.8,44.3c0-0.8-0.1-1.6-0.2-2.6c-2.7-23.1-24.6-20.2-32.5-14.8c-3.7,2.6-8.7,7.9-7.8,17.3L127.8,44.3
	L127.8,44.3z"/>
<path d="M100.4,35.6c0,0.2-0.6,0.1-1.4,0.2c-0.8,0.1-1.2,0.4-1.4,0.2c-0.2-0.2,0.4-1.4,1.1-1.5C99.5,34.4,100.4,35.4,100.4,35.6z"/>
<path d="M112,33.7c-0.1,0.3-0.6,0.1-1.4,0.2c-0.8,0.1-1.3,0.4-1.4,0.2c-0.2-0.2,0.4-1.4,1.1-1.5C111.1,32.5,112.1,33.5,112,33.7z"/>
<path d="M104.2,39.6c-0.2-0.6,0.6-0.9,1.9-0.7s0.6,1.7-0.3,1.6C104.8,40.5,104.5,40.2,104.2,39.6z"/>
<path class="st1" d="M106,39.9l-0.4,0.1c-0.2,0-0.4-0.1-0.4-0.3l-0.1-0.8c0.4-0.1,0.8,0,1.1,0.1l0.1,0.5
	C106.3,39.7,106.2,39.9,106,39.9z"/>
<path class="st6" d="M129,44.3c0-3.8-1.8-7.5-3.2-9.6c-0.6,2.4-3.5,6.6-5,9.6C120.8,44.3,129,44.3,129,44.3z"/>
<path class="st8" d="M99.2,20c0,0,0.1,2.4,2.5,3.4C101.7,23.4,101.9,22.4,99.2,20z"/>
<path class="st9" d="M101.7,24.8c1.2-1.3-1.4-3.8-5.9-1.9"/>
<path class="st10" d="M94.7,22.6c0,0-1.5,3.1-0.1,2.8C95.9,25.1,95.6,22.3,94.7,22.6z"/>
<path class="st10" d="M95.1,22c0,0-0.5,3.5,0.8,2.6C97.2,23.7,95.9,21.3,95.1,22z"/>
<path class="st10" d="M95.2,21.8c0,0-3,1.4-1.9,2.3C94.3,25.2,96,22.4,95.2,21.8z"/>
<path class="st10" d="M95.9,23.3c0,0-0.6-4-1.7-2.6C93,22.1,95.1,24.4,95.9,23.3z"/>
<path class="st10" d="M94.9,22.3c0,0-0.1-2.7,1.1-2.1S95.8,22.8,94.9,22.3z"/>
<path class="st10" d="M94.9,21.6c0,0,3.3-0.4,2.4,1S94.2,22.5,94.9,21.6z"/>
<path class="st11" d="M95.8,22.6c0.3-0.8,0.1-1.5-0.3-1.7c-0.5-0.2-1,0.3-1.3,1.1c-0.3,0.8-0.1,1.5,0.3,1.7
	C95,23.9,95.6,23.4,95.8,22.6z"/>
<path class="st2" d="M58.7,46.1l-7.9,13.6h116.5l-7.5-13.6c-0.7-1.3-2.1-2.1-3.6-2.1H62.3C60.8,44,59.4,44.8,58.7,46.1z"/>
<path class="st1" d="M55.9,51l-5.1,8.8h116.5l-5.3-9.5c-0.7-1.3-2.1-2.2-3.6-2.2l-98.8,0.8C58,48.9,56.6,49.7,55.9,51z"/>
<path class="st2" d="M209.9,54h-33v31.6h33V54z"/>
<path class="st2" d="M194.6,32.8h-4.9v20.5h4.9V32.8z"/>
<path class="st5" d="M209.2,52.3h-34c-1.4,0-2.5,1.1-2.5,2.5v44.9c0,0.5,0.4,0.9,0.9,0.9h3.2c0.5,0,0.9-0.4,0.9-0.9V88.8h29.1v10.9
	c0,0.5,0.4,0.9,0.9,0.9h3.1c0.5,0,0.9-0.4,0.9-0.9v-45C211.7,53.4,210.6,52.3,209.2,52.3z M205.5,83.8h-26.7c-0.7,0-1.2-0.5-1.2-1.2
	v-8.4c0-0.7,0.5-1.2,1.2-1.2h26.7c0.7,0,1.2,0.5,1.2,1.2v8.4C206.7,83.3,206.2,83.8,205.5,83.8z M205.5,68.1h-26.7
	c-0.7,0-1.2-0.5-1.2-1.2v-8.4c0-0.7,0.5-1.2,1.2-1.2h26.7c0.7,0,1.2,0.5,1.2,1.2v8.4C206.7,67.5,206.2,68.1,205.5,68.1z"/>
<path class="st5" d="M189.1,65.1h6.1c1.4,0,2.4-1.1,2.4-2.5s-1.1-2.4-2.4-2.4h-6.1c-1.3,0-2.4,1.1-2.4,2.4S187.8,65.1,189.1,65.1z"
	/>
<path class="st5" d="M189.1,80.9h6.1c1.4,0,2.4-1.1,2.4-2.4c0-1.4-1.1-2.4-2.4-2.4h-6.1c-1.3,0-2.4,1.1-2.4,2.4
	C186.7,79.8,187.8,80.9,189.1,80.9z"/>
<path class="st12" d="M199.5,35.3v8.6"/>
<path class="st2" d="M199.5,45.5c1,0,1.8-0.8,1.8-1.8s-0.8-1.8-1.8-1.8s-1.8,0.8-1.8,1.8S198.5,45.5,199.5,45.5z"/>
<path class="st5" d="M209,34.6l-4.4-21.1c-0.2-1.2-1.2-2.1-2.4-2.1h-20c-1.2,0-2.3,0.9-2.4,2.1l-4.4,21.1c-0.1,0.7,0.1,1.4,0.6,2
	s1.1,0.8,1.8,0.8h28.8c0.7,0,1.4-0.3,1.8-0.8C208.9,36.1,209.1,35.4,209,34.6z"/>
</svg>
