<?xml version="1.0" encoding="utf-8"?>
<!-- Generator: Adobe Illustrator 25.1.0, SVG Export Plug-In . SVG Version: 6.00 Build 0)  -->
<svg version="1.1" id="Layer_1" xmlns="http://www.w3.org/2000/svg" xmlns:xlink="http://www.w3.org/1999/xlink" x="0px" y="0px"
	 viewBox="0 0 332.9 210.7" style="enable-background:new 0 0 332.9 210.7;" xml:space="preserve">
<style type="text/css">
	.st0{fill:#FFFFFF;}
	.st1{fill:#808080;}
	.st2{fill:#00A878;}
	.st3{fill:#FF9F1A;}
	.st4{fill:none;stroke:#FFFFFF;stroke-linecap:round;stroke-miterlimit:10;}
	.st5{fill:#00CDDC;}
	.st6{fill:#3CDC82;}
	.st7{fill:#32DCD2;}
	.st8{fill:#28C86E;}
	.st9{fill:none;stroke:#28C86E;stroke-width:1.0383;stroke-linecap:round;stroke-miterlimit:10;}
	.st10{fill:#FFCF8D;}
	.st11{fill:none;stroke:#28C86E;stroke-width:1.8847;stroke-linecap:round;stroke-miterlimit:10;}
</style>
<g>
	<g>
		<path class="st0" d="M332.9,157.1C332.9,14.4,324,0,269.2,0C242.3,0,131.6,1.6,96.5,2.2C62,2.7,15.1-2.4,9.1,19.5
			C3.1,41.2,0,69.2,0,108.1c0,61.2,10.1,85.1,45.6,92.9c36,7.9,150.1,10.4,193.6,9.5C283.9,209.4,332.9,219.5,332.9,157.1z"/>
		<path class="st1" d="M24.5,50.6l4.1-11.2H30l4.1,11.2h-1.3l-1-2.9H27l-1,2.9H24.5z M27.4,46.7h4l-2-5.5L27.4,46.7z"/>
		<path class="st1" d="M40,54.2V42.7h1.2l0.1,1.3c0.3-0.4,0.6-0.7,1.1-1s1.1-0.5,1.8-0.5c0.8,0,1.5,0.2,2.1,0.5
			c0.6,0.4,1,0.9,1.4,1.5c0.3,0.6,0.5,1.3,0.5,2.1s-0.2,1.5-0.5,2.1s-0.8,1.1-1.4,1.5c-0.6,0.4-1.3,0.5-2.1,0.5
			c-0.7,0-1.2-0.1-1.7-0.4c-0.5-0.3-0.9-0.6-1.2-1.1V54H40V54.2z M44.1,49.7c0.5,0,1-0.1,1.4-0.4c0.4-0.2,0.7-0.6,1-1
			c0.2-0.5,0.4-1,0.4-1.6s-0.1-1.1-0.4-1.6c-0.2-0.5-0.5-0.8-1-1.1c-0.4-0.2-0.9-0.4-1.4-0.4s-1,0.1-1.4,0.4c-0.4,0.2-0.7,0.6-1,1.1
			c-0.2,0.4-0.3,1-0.3,1.6s0.1,1.1,0.3,1.6c0.2,0.4,0.6,0.8,1,1C43.1,49.6,43.6,49.7,44.1,49.7z"/>
		<path class="st1" d="M53.7,50.8c-0.8,0-1.4-0.2-2-0.5s-1.1-0.8-1.4-1.4c-0.3-0.6-0.5-1.4-0.5-2.2s0.2-1.6,0.5-2.2
			c0.3-0.6,0.8-1.1,1.4-1.4s1.3-0.5,2-0.5c0.8,0,1.4,0.2,2,0.5s1.1,0.8,1.4,1.4c0.3,0.6,0.5,1.4,0.5,2.2s-0.2,1.6-0.5,2.2
			c-0.3,0.6-0.8,1.1-1.4,1.4S54.4,50.8,53.7,50.8z M53.7,49.7c0.5,0,0.9-0.1,1.3-0.3c0.4-0.2,0.7-0.6,1-1s0.4-1,0.4-1.7
			S56.3,45.5,56,45c-0.2-0.4-0.6-0.8-1-1s-0.8-0.3-1.3-0.3s-0.9,0.1-1.3,0.3c-0.4,0.2-0.7,0.6-1,1S51,46,51,46.7s0.1,1.2,0.4,1.7
			c0.2,0.4,0.6,0.8,1,1C52.8,49.6,53.3,49.7,53.7,49.7z"/>
		<path class="st1" d="M60.9,50.6l-2.3-7.9h1.3l1.7,6.2l1.9-6.2H65l1.9,6.2l1.7-6.2h1.2l-2.3,7.9h-1.4l-1.9-6.5l-2,6.5H60.9
			L60.9,50.6z"/>
		<path class="st1" d="M74.6,50.8c-0.8,0-1.4-0.2-2-0.5c-0.6-0.4-1.1-0.8-1.4-1.5c-0.3-0.6-0.5-1.3-0.5-2.2c0-0.8,0.2-1.6,0.5-2.2
			c0.3-0.6,0.8-1.1,1.4-1.5c0.6-0.3,1.3-0.5,2.1-0.5c0.8,0,1.4,0.2,2,0.5c0.6,0.4,1,0.8,1.3,1.4c0.3,0.6,0.5,1.2,0.5,1.8
			c0,0.1,0,0.2,0,0.4s0,0.2,0,0.4h-6.3c0,0.6,0.2,1.1,0.4,1.5c0.2,0.4,0.6,0.7,0.9,0.9c0.4,0.2,0.8,0.3,1.2,0.3c0.6,0,1-0.1,1.4-0.4
			c0.4-0.3,0.6-0.6,0.8-1h1.3C78,48.9,77.6,49.5,77,50C76.3,50.6,75.5,50.8,74.6,50.8z M74.6,43.7c-0.6,0-1.2,0.2-1.7,0.6
			c-0.5,0.4-0.8,1-0.9,1.7h5c0-0.7-0.3-1.3-0.7-1.7C75.8,43.9,75.3,43.7,74.6,43.7z"/>
		<path class="st1" d="M80.1,50.6v-7.9h1.2l0.1,1.5c0.2-0.5,0.6-0.9,1.1-1.2s1.1-0.5,1.9-0.5v1.4H84c-0.5,0-0.9,0.1-1.3,0.2
			c-0.4,0.2-0.7,0.5-0.9,0.8c-0.2,0.4-0.3,0.9-0.3,1.6v4h-1.4V50.6z"/>
		<path class="st1" d="M86.4,50.6v-6.8h-1.2v-1.1h1.2v-1.4c0-0.8,0.2-1.3,0.6-1.7c0.4-0.3,0.9-0.5,1.7-0.5h0.8v1.2h-0.7
			c-0.4,0-0.7,0.1-0.9,0.2c-0.2,0.2-0.3,0.4-0.3,0.8v1.3h1.9v1.1h-1.9v6.8L86.4,50.6L86.4,50.6z"/>
		<path class="st1" d="M94.1,50.8c-0.9,0-1.7-0.3-2.2-0.9c-0.5-0.6-0.8-1.4-0.8-2.6v-4.6h1.3v4.5c0,1.6,0.7,2.5,2,2.5
			c0.7,0,1.3-0.2,1.7-0.7c0.4-0.5,0.7-1.2,0.7-2.1v-4.1h1.3v7.9h-1.2l-0.1-1.4c-0.2,0.5-0.6,0.9-1.1,1.2
			C95.3,50.7,94.8,50.8,94.1,50.8z"/>
		<path class="st1" d="M100.4,50.6V39.1h1.3v11.5H100.4z"/>
		<path class="st1" d="M109.8,50.6l-2.3-7.9h1.3l1.7,6.2l1.9-6.2h1.5l1.9,6.2l1.7-6.2h1.4l-2.3,7.9h-1.4l-1.9-6.5l-1.9,6.5H109.8z"
			/>
		<path class="st1" d="M122.6,50.8c-0.7,0-1.2-0.1-1.6-0.3s-0.8-0.5-1-0.9s-0.3-0.8-0.3-1.2c0-0.8,0.3-1.4,0.9-1.9
			c0.6-0.4,1.5-0.7,2.5-0.7h2.1v-0.1c0-0.7-0.2-1.2-0.5-1.6s-0.8-0.5-1.5-0.5c-0.5,0-1,0.1-1.4,0.4c-0.4,0.3-0.6,0.6-0.7,1.1h-1.3
			c0.1-0.6,0.2-1.1,0.6-1.5c0.3-0.4,0.8-0.7,1.3-0.9s1-0.3,1.6-0.3c1.1,0,1.9,0.3,2.5,0.9c0.6,0.6,0.8,1.4,0.8,2.4v4.9h-1.2
			l-0.1-1.4c-0.2,0.4-0.6,0.8-1,1.1C123.9,50.7,123.3,50.8,122.6,50.8z M122.8,49.7c0.5,0,0.9-0.1,1.3-0.4c0.4-0.3,0.7-0.6,0.8-1
			c0.2-0.4,0.3-0.9,0.3-1.3l0,0h-2c-0.8,0-1.4,0.1-1.7,0.4c-0.3,0.3-0.5,0.6-0.5,1s0.1,0.8,0.5,1C121.8,49.6,122.3,49.7,122.8,49.7z
			"/>
		<path class="st1" d="M129.3,54.2l2-4.3h-0.5l-3.2-7.2h1.5l2.6,6.2l2.8-6.2h1.4l-5.2,11.5H129.3z"/>
		<path class="st1" d="M144.7,50.6c-0.7,0-1.3-0.2-1.7-0.5s-0.6-1-0.6-1.9v-4.4H141v-1.1h1.4l0.2-1.9h1.2v1.9h2.3v1.1h-2.3v4.4
			c0,0.5,0.1,0.8,0.3,1s0.6,0.3,1.1,0.3h0.8v1.1C146,50.6,144.7,50.6,144.7,50.6z"/>
		<path class="st1" d="M151.1,50.8c-0.8,0-1.4-0.2-2-0.5s-1.1-0.8-1.4-1.4c-0.4-0.6-0.5-1.4-0.5-2.2s0.2-1.6,0.5-2.2
			c0.4-0.6,0.8-1.1,1.4-1.4c0.6-0.3,1.3-0.5,2-0.5c0.8,0,1.4,0.2,2,0.5s1.1,0.8,1.4,1.4c0.4,0.6,0.5,1.4,0.5,2.2s-0.2,1.6-0.5,2.2
			c-0.4,0.6-0.8,1.1-1.4,1.4C152.5,50.7,151.9,50.8,151.1,50.8z M151.1,49.7c0.5,0,0.9-0.1,1.3-0.3c0.4-0.2,0.7-0.6,1-1
			s0.4-1,0.4-1.7s-0.1-1.2-0.4-1.7c-0.2-0.4-0.6-0.8-0.9-1c-0.4-0.2-0.8-0.3-1.3-0.3s-0.9,0.1-1.3,0.3c-0.4,0.2-0.7,0.6-1,1
			s-0.4,1-0.4,1.7s0.1,1.2,0.4,1.7c0.2,0.4,0.6,0.8,0.9,1C150.2,49.6,150.7,49.7,151.1,49.7z"/>
		<path class="st1" d="M26,62.9c-0.3,0-0.5-0.1-0.7-0.3S25,62.2,25,61.9s0.1-0.5,0.3-0.6c0.2-0.2,0.4-0.3,0.7-0.3s0.5,0.1,0.7,0.3
			s0.3,0.4,0.3,0.6c0,0.3-0.1,0.5-0.3,0.7C26.5,62.8,26.2,62.9,26,62.9z M25.3,72.6v-7.9h1.3v7.9H25.3z"/>
		<path class="st1" d="M29,72.6v-7.9h1.2l0.1,1.1c0.3-0.4,0.6-0.8,1-1s0.9-0.3,1.4-0.3c0.6,0,1.2,0.1,1.6,0.4c0.5,0.3,0.8,0.7,1,1.2
			c0.3-0.5,0.7-0.9,1.1-1.1c0.5-0.3,1-0.4,1.6-0.4c1,0,1.7,0.3,2.3,0.9s0.8,1.5,0.8,2.6v4.6h-1.3v-4.5c0-0.8-0.2-1.4-0.5-1.9
			c-0.3-0.4-0.8-0.6-1.4-0.6c-0.6,0-1.2,0.2-1.6,0.7c-0.4,0.5-0.6,1.2-0.6,2.1v4.1h-1.3v-4.5c0-0.8-0.2-1.4-0.5-1.9
			c-0.3-0.4-0.8-0.6-1.4-0.6c-0.6,0-1.2,0.2-1.6,0.7c-0.4,0.5-0.6,1.2-0.6,2.1v4.1L29,72.6L29,72.6z"/>
		<path class="st1" d="M43.3,76.2V64.7h1.2l0.1,1.3c0.3-0.4,0.6-0.7,1.1-1s1.1-0.5,1.8-0.5c0.8,0,1.5,0.2,2.1,0.5
			c0.6,0.4,1,0.9,1.4,1.5c0.3,0.6,0.5,1.3,0.5,2.1s-0.2,1.5-0.5,2.1s-0.8,1.1-1.4,1.5c-0.6,0.4-1.3,0.5-2.1,0.5
			c-0.7,0-1.2-0.1-1.7-0.4s-0.9-0.6-1.2-1.1V76h-1.3V76.2z M47.4,71.7c0.5,0,1-0.1,1.4-0.4c0.4-0.2,0.7-0.6,1-1
			c0.2-0.5,0.3-1,0.3-1.6s-0.1-1.1-0.3-1.6s-0.6-0.8-1-1.1c-0.4-0.2-0.9-0.4-1.4-0.4s-1,0.1-1.4,0.4c-0.4,0.2-0.7,0.6-1,1.1
			c-0.2,0.4-0.3,1-0.3,1.6s0.1,1.1,0.3,1.6c0.2,0.4,0.6,0.8,1,1C46.4,71.6,46.9,71.7,47.4,71.7z"/>
		<path class="st1" d="M53.4,72.6v-7.9h1.2l0.1,1.5c0.2-0.5,0.6-0.9,1.1-1.2s1.1-0.5,1.9-0.5v1.4h-0.4c-0.5,0-0.9,0.1-1.3,0.2
			c-0.4,0.2-0.7,0.5-0.9,0.8c-0.2,0.4-0.3,0.9-0.3,1.6v4L53.4,72.6L53.4,72.6z"/>
		<path class="st1" d="M62.5,72.8c-0.8,0-1.4-0.2-2-0.5s-1.1-0.8-1.4-1.4c-0.3-0.6-0.5-1.4-0.5-2.2c0-0.8,0.2-1.6,0.5-2.2
			s0.8-1.1,1.4-1.4s1.3-0.5,2-0.5c0.8,0,1.4,0.2,2,0.5c0.6,0.3,1.1,0.8,1.4,1.4s0.5,1.4,0.5,2.2c0,0.8-0.2,1.6-0.5,2.2
			s-0.8,1.1-1.4,1.4C63.9,72.7,63.2,72.8,62.5,72.8z M62.5,71.7c0.5,0,0.9-0.1,1.3-0.3c0.4-0.2,0.7-0.6,1-1s0.4-1,0.4-1.7
			s-0.1-1.2-0.4-1.7c-0.2-0.4-0.6-0.8-0.9-1c-0.4-0.2-0.8-0.3-1.3-0.3s-0.9,0.1-1.3,0.3c-0.4,0.2-0.7,0.6-1,1s-0.4,1-0.4,1.7
			s0.1,1.2,0.4,1.7c0.2,0.4,0.6,0.8,0.9,1C61.6,71.6,62,71.7,62.5,71.7z"/>
		<path class="st1" d="M70.2,72.6l-3-7.9h1.4l2.4,6.6l2.4-6.6h1.4l-3,7.9H70.2z"/>
		<path class="st1" d="M79.4,72.8c-0.8,0-1.4-0.2-2-0.5c-0.6-0.4-1.1-0.8-1.4-1.5c-0.3-0.6-0.5-1.3-0.5-2.2c0-0.8,0.2-1.6,0.5-2.2
			s0.8-1.1,1.4-1.5c0.6-0.3,1.3-0.5,2.1-0.5c0.8,0,1.4,0.2,2,0.5c0.6,0.4,1,0.8,1.3,1.4s0.5,1.2,0.5,1.8c0,0.1,0,0.2,0,0.4
			s0,0.2,0,0.4H77c0,0.6,0.2,1.1,0.4,1.5c0.2,0.4,0.6,0.7,0.9,0.9c0.4,0.2,0.8,0.3,1.2,0.3c0.6,0,1-0.1,1.4-0.4s0.7-0.6,0.8-1H83
			c-0.2,0.8-0.6,1.4-1.2,1.9S80.4,72.8,79.4,72.8z M79.4,65.7c-0.6,0-1.2,0.2-1.7,0.6s-0.8,1-0.9,1.7h5c0-0.7-0.3-1.3-0.7-1.7
			C80.7,65.9,80.1,65.7,79.4,65.7z"/>
		<path class="st1" d="M90.1,76.2l2-4.3h-0.5l-3.2-7.2h1.5l2.6,6.2l2.8-6.2h1.4l-5.2,11.5H90.1z"/>
		<path class="st1" d="M101,72.8c-0.8,0-1.4-0.2-2-0.5s-1.1-0.8-1.4-1.4s-0.5-1.4-0.5-2.2c0-0.8,0.2-1.6,0.5-2.2s0.8-1.1,1.4-1.4
			s1.3-0.5,2-0.5s1.4,0.2,2,0.5s1.1,0.8,1.4,1.4s0.5,1.4,0.5,2.2c0,0.8-0.2,1.6-0.5,2.2s-0.8,1.1-1.4,1.4
			C102.4,72.7,101.7,72.8,101,72.8z M101,71.7c0.5,0,0.9-0.1,1.3-0.3c0.4-0.2,0.7-0.6,1-1s0.4-1,0.4-1.7s-0.1-1.2-0.4-1.7
			c-0.2-0.4-0.6-0.8-0.9-1c-0.4-0.2-0.8-0.3-1.3-0.3s-0.9,0.1-1.3,0.3c-0.4,0.2-0.7,0.6-1,1s-0.4,1-0.4,1.7s0.1,1.2,0.4,1.7
			c0.2,0.4,0.6,0.8,0.9,1C100.1,71.6,100.5,71.7,101,71.7z"/>
		<path class="st1" d="M109.7,72.8c-0.9,0-1.7-0.3-2.2-0.9c-0.6-0.6-0.8-1.4-0.8-2.6v-4.6h1.3v4.5c0,1.6,0.7,2.5,2,2.5
			c0.7,0,1.3-0.2,1.7-0.7c0.4-0.5,0.7-1.2,0.7-2.1v-4.1h1.3v7.9h-1.2l-0.1-1.4c-0.2,0.5-0.6,0.9-1.1,1.2
			C110.9,72.7,110.3,72.8,109.7,72.8z"/>
		<path class="st1" d="M116,72.6v-7.9h1.2l0.1,1.5c0.2-0.5,0.6-0.9,1.1-1.2s1.1-0.5,1.9-0.5v1.4h-0.4c-0.5,0-0.9,0.1-1.3,0.2
			c-0.4,0.2-0.7,0.5-0.9,0.8c-0.2,0.4-0.4,0.9-0.4,1.6v4L116,72.6L116,72.6z"/>
		<path class="st1" d="M129.1,72.8c-0.9,0-1.7-0.2-2.4-0.7c-0.6-0.5-1-1.1-1.1-1.9h1.4c0.1,0.4,0.3,0.8,0.7,1.1
			c0.4,0.3,0.8,0.5,1.4,0.5c0.6,0,1-0.1,1.2-0.4c0.3-0.2,0.4-0.5,0.4-0.9c0-0.5-0.2-0.8-0.5-1s-0.8-0.3-1.5-0.4
			c-0.4-0.1-0.9-0.2-1.3-0.4c-0.4-0.2-0.8-0.4-1.1-0.7c-0.3-0.3-0.4-0.7-0.4-1.2c0-0.7,0.3-1.3,0.8-1.7c0.5-0.4,1.2-0.7,2.1-0.7
			c0.8,0,1.5,0.2,2.1,0.6c0.5,0.4,0.8,1,0.9,1.8h-1.3c-0.1-0.4-0.2-0.7-0.5-1c-0.3-0.2-0.7-0.3-1.2-0.3s-0.8,0.1-1.1,0.3
			c-0.3,0.2-0.4,0.5-0.4,0.8s0.2,0.6,0.5,0.8c0.3,0.2,0.8,0.3,1.4,0.5c0.5,0.1,1,0.2,1.4,0.4c0.4,0.2,0.8,0.4,1.1,0.7
			c0.3,0.3,0.4,0.7,0.4,1.3c0,0.7-0.3,1.3-0.8,1.8C130.8,72.6,130,72.8,129.1,72.8z"/>
		<path class="st1" d="M134,72.6V61.1h1.3v11.5H134z"/>
		<path class="st1" d="M141.2,72.8c-0.8,0-1.4-0.2-2-0.5c-0.6-0.4-1.1-0.8-1.4-1.5c-0.3-0.6-0.5-1.3-0.5-2.2c0-0.8,0.2-1.6,0.5-2.2
			s0.8-1.1,1.4-1.5c0.6-0.3,1.3-0.5,2.1-0.5s1.4,0.2,2,0.5c0.6,0.4,1,0.8,1.3,1.4s0.4,1.2,0.4,1.8c0,0.1,0,0.2,0,0.4s0,0.2,0,0.4
			h-6.3c0,0.6,0.2,1.1,0.4,1.5s0.6,0.7,0.9,0.9c0.4,0.2,0.8,0.3,1.2,0.3c0.5,0,1-0.1,1.4-0.4s0.6-0.6,0.8-1h1.3
			c-0.2,0.7-0.6,1.3-1.2,1.8C142.9,72.6,142.1,72.8,141.2,72.8z M141.2,65.7c-0.6,0-1.2,0.2-1.7,0.6s-0.8,1-0.9,1.7h5
			c0-0.7-0.3-1.3-0.7-1.7C142.4,65.9,141.8,65.7,141.2,65.7z"/>
		<path class="st1" d="M150.3,72.8c-0.8,0-1.4-0.2-2-0.5c-0.6-0.4-1-0.8-1.4-1.5c-0.3-0.6-0.5-1.3-0.5-2.2c0-0.8,0.2-1.6,0.5-2.2
			s0.8-1.1,1.4-1.5c0.6-0.3,1.3-0.5,2.1-0.5s1.4,0.2,2,0.5c0.6,0.4,1,0.8,1.3,1.4s0.4,1.2,0.4,1.8c0,0.1,0,0.2,0,0.4
			c0,0.1,0,0.2,0,0.4h-6.3c0,0.6,0.2,1.1,0.4,1.5s0.6,0.7,0.9,0.9c0.4,0.2,0.8,0.3,1.2,0.3c0.6,0,1-0.1,1.4-0.4s0.7-0.6,0.8-1h1.3
			c-0.2,0.7-0.6,1.3-1.2,1.8C152,72.6,151.2,72.8,150.3,72.8z M150.3,65.7c-0.6,0-1.2,0.2-1.7,0.6s-0.8,1-0.9,1.7h5
			c0-0.7-0.3-1.3-0.7-1.7C151.5,65.9,150.9,65.7,150.3,65.7z"/>
		<path class="st1" d="M155.8,76.2V64.7h1.2l0.1,1.3c0.3-0.4,0.6-0.7,1.1-1s1.1-0.5,1.8-0.5c0.8,0,1.5,0.2,2.1,0.5
			c0.6,0.4,1,0.9,1.4,1.5c0.3,0.6,0.5,1.3,0.5,2.1s-0.2,1.5-0.5,2.1s-0.8,1.1-1.4,1.5c-0.6,0.4-1.3,0.5-2.1,0.5
			c-0.7,0-1.2-0.1-1.7-0.4s-0.9-0.6-1.2-1.1V76h-1.3V76.2z M159.9,71.7c0.5,0,1-0.1,1.4-0.4s0.7-0.6,1-1c0.2-0.5,0.3-1,0.3-1.6
			s-0.1-1.1-0.3-1.6s-0.6-0.8-1-1.1s-0.9-0.4-1.4-0.4s-1,0.1-1.4,0.4c-0.4,0.2-0.7,0.6-1,1.1c-0.2,0.4-0.4,1-0.4,1.6
			s0.1,1.1,0.4,1.6c0.2,0.4,0.6,0.8,1,1C158.9,71.6,159.4,71.7,159.9,71.7z"/>
		<path class="st1" d="M164.8,74.6l0.9-3.5h1.4l-1.4,3.5H164.8z"/>
		<path class="st1" d="M173.7,62.9c-0.3,0-0.5-0.1-0.7-0.3s-0.2-0.3-0.2-0.6s0.1-0.5,0.3-0.6c0.2-0.2,0.4-0.3,0.7-0.3
			s0.5,0.1,0.7,0.3s0.3,0.4,0.3,0.6c0,0.3-0.1,0.5-0.3,0.7C174.2,62.9,174,62.9,173.7,62.9z M173.1,72.6v-7.9h1.3v7.9H173.1z"/>
		<path class="st1" d="M179.8,72.8c-1,0-1.7-0.2-2.4-0.7c-0.6-0.5-1-1.1-1.1-1.9h1.4c0.1,0.4,0.3,0.8,0.7,1.1
			c0.4,0.3,0.8,0.5,1.4,0.5c0.6,0,1-0.1,1.2-0.4c0.3-0.2,0.4-0.5,0.4-0.9c0-0.5-0.2-0.8-0.5-1s-0.8-0.3-1.5-0.4
			c-0.4-0.1-0.8-0.2-1.3-0.4c-0.4-0.2-0.8-0.4-1.1-0.7c-0.3-0.3-0.4-0.7-0.4-1.2c0-0.7,0.3-1.3,0.8-1.7c0.5-0.4,1.2-0.7,2.1-0.7
			c0.8,0,1.5,0.2,2.1,0.6c0.5,0.4,0.8,1,0.9,1.8h-1.3c-0.1-0.4-0.2-0.7-0.5-1c-0.3-0.2-0.7-0.3-1.2-0.3s-0.8,0.1-1.1,0.3
			c-0.3,0.2-0.4,0.5-0.4,0.8s0.2,0.6,0.5,0.8c0.3,0.2,0.8,0.3,1.4,0.5c0.5,0.1,1,0.2,1.4,0.4c0.4,0.2,0.8,0.4,1.1,0.7
			c0.3,0.3,0.4,0.7,0.4,1.3c0,0.7-0.3,1.3-0.8,1.8C181.5,72.6,180.7,72.8,179.8,72.8z"/>
		<path class="st1" d="M25.2,94.6V83.1h1.3v11.5H25.2z"/>
		<path class="st1" d="M29.5,84.9c-0.3,0-0.5-0.1-0.7-0.3c-0.2-0.2-0.3-0.4-0.3-0.7s0.1-0.5,0.3-0.6c0.2-0.2,0.4-0.3,0.7-0.3
			s0.5,0.1,0.7,0.3c0.2,0.2,0.3,0.4,0.3,0.6c0,0.3-0.1,0.5-0.3,0.7C30,84.9,29.8,84.9,29.5,84.9z M28.9,94.6v-7.9h1.3v7.9H28.9z"/>
		<path class="st1" d="M32.5,94.6v-7.9h1.3l0.1,1.1c0.3-0.4,0.6-0.8,1-1s0.9-0.3,1.4-0.3c0.6,0,1.2,0.1,1.6,0.4
			c0.5,0.3,0.8,0.7,1,1.2c0.3-0.5,0.7-0.9,1.1-1.1c0.5-0.3,1-0.4,1.6-0.4c1,0,1.7,0.3,2.3,0.9s0.8,1.5,0.8,2.6v4.6h-1.3v-4.5
			c0-0.8-0.2-1.4-0.5-1.9c-0.3-0.4-0.8-0.6-1.4-0.6c-0.6,0-1.2,0.2-1.6,0.7c-0.4,0.5-0.6,1.2-0.6,2.1v4.1H38v-4.5
			c0-0.8-0.2-1.4-0.5-1.9c-0.3-0.4-0.8-0.6-1.4-0.6c-0.6,0-1.1,0.2-1.6,0.7c-0.4,0.5-0.6,1.2-0.6,2.1v4.1L32.5,94.6L32.5,94.6z"/>
		<path class="st1" d="M47.7,84.9c-0.3,0-0.5-0.1-0.7-0.3s-0.2-0.3-0.2-0.6s0.1-0.5,0.3-0.6c0.2-0.2,0.4-0.3,0.7-0.3
			s0.5,0.1,0.7,0.3c0.2,0.2,0.3,0.4,0.3,0.6c0,0.3-0.1,0.5-0.3,0.7S47.9,84.9,47.7,84.9z M47,94.6v-7.9h1.3v7.9H47z"/>
		<path class="st1" d="M53.8,94.6c-0.7,0-1.3-0.2-1.7-0.5s-0.6-1-0.6-1.9v-4.4h-1.4v-1.1h1.4l0.2-1.9h1.1v1.9h2.3v1.1h-2.3v4.4
			c0,0.5,0.1,0.8,0.3,1s0.6,0.3,1.1,0.3H55v1.1H53.8z"/>
		<path class="st1" d="M57.7,84.9c-0.3,0-0.5-0.1-0.7-0.3c-0.1-0.1-0.2-0.3-0.2-0.6s0.1-0.5,0.3-0.6c0.2-0.2,0.4-0.3,0.7-0.3
			s0.5,0.1,0.7,0.3c0.2,0.2,0.3,0.4,0.3,0.6c0,0.3-0.1,0.5-0.3,0.7S58,84.9,57.7,84.9z M57,94.6v-7.9h1.3v7.9H57z"/>
		<path class="st1" d="M60.7,94.6v-7.9h1.2l0.1,1.4c0.3-0.5,0.6-0.9,1.1-1.2c0.5-0.3,1-0.4,1.6-0.4c0.9,0,1.7,0.3,2.2,0.9
			c0.6,0.6,0.8,1.4,0.8,2.6v4.6h-1.3v-4.5c0-1.6-0.7-2.5-2.1-2.5c-0.7,0-1.2,0.2-1.7,0.7c-0.4,0.5-0.7,1.2-0.7,2.1v4.1L60.7,94.6
			L60.7,94.6z"/>
		<path class="st1" d="M73,92.1c-0.5,0-0.9-0.1-1.2-0.2L71,92.7c0.1,0.1,0.3,0.2,0.4,0.2s0.4,0.1,0.8,0.2c0.3,0,0.8,0.1,1.4,0.1
			c1.1,0.1,1.8,0.3,2.3,0.7s0.7,1,0.7,1.6c0,0.5-0.1,0.9-0.4,1.3s-0.6,0.8-1.2,1c-0.5,0.3-1.2,0.4-2,0.4c-0.7,0-1.3-0.1-1.9-0.3
			c-0.5-0.2-1-0.5-1.3-0.9s-0.5-0.9-0.5-1.4c0-0.3,0.1-0.6,0.2-1c0.2-0.4,0.5-0.7,0.9-1c-0.2-0.1-0.4-0.2-0.6-0.3
			c-0.2-0.1-0.3-0.2-0.5-0.4v-0.4l1.4-1.3c-0.6-0.5-0.9-1.2-0.9-2.1c0-0.5,0.1-1,0.4-1.4c0.2-0.4,0.6-0.8,1.1-1s1-0.4,1.7-0.4
			c0.5,0,0.9,0.1,1.2,0.2h2.9v1l-1.5,0.1c0.3,0.4,0.5,1,0.5,1.6c0,0.5-0.1,1-0.4,1.4c-0.2,0.4-0.6,0.8-1.1,1
			C74.2,92,73.7,92.1,73,92.1z M70.7,95.7c0,0.5,0.2,0.9,0.7,1.2c0.5,0.3,1,0.4,1.7,0.4s1.2-0.1,1.6-0.4s0.6-0.7,0.6-1.2
			c0-0.3-0.1-0.6-0.4-0.9c-0.3-0.2-0.8-0.4-1.5-0.4c-0.6,0-1.1-0.1-1.5-0.2c-0.4,0.2-0.7,0.5-0.9,0.8C70.7,95.2,70.7,95.5,70.7,95.7
			z M73,91.1c0.6,0,1-0.2,1.3-0.4c0.3-0.3,0.5-0.7,0.5-1.3c0-0.5-0.2-1-0.5-1.3s-0.8-0.4-1.3-0.4c-0.6,0-1,0.1-1.4,0.4
			c-0.3,0.3-0.5,0.7-0.5,1.3s0.2,1,0.5,1.3C72,90.9,72.4,91.1,73,91.1z"/>
		<path class="st1" d="M83.8,98.2l2-4.3h-0.5l-3.2-7.2h1.5l2.6,6.2l2.8-6.2h1.4l-5.2,11.5H83.8z"/>
		<path class="st1" d="M94.7,94.8c-0.8,0-1.4-0.2-2-0.5s-1.1-0.8-1.4-1.4s-0.5-1.4-0.5-2.2c0-0.8,0.2-1.6,0.5-2.2s0.8-1.1,1.4-1.4
			s1.3-0.5,2-0.5c0.8,0,1.4,0.2,2,0.5s1.1,0.8,1.4,1.4s0.5,1.4,0.5,2.2c0,0.8-0.2,1.6-0.5,2.2s-0.8,1.1-1.4,1.4
			C96.1,94.7,95.4,94.8,94.7,94.8z M94.7,93.7c0.5,0,0.9-0.1,1.3-0.3c0.4-0.2,0.7-0.6,1-1s0.4-1,0.4-1.7S97.3,89.5,97,89
			s-0.6-0.8-0.9-1c-0.4-0.2-0.8-0.3-1.3-0.3s-0.9,0.1-1.3,0.3c-0.4,0.2-0.7,0.6-1,1s-0.4,1-0.4,1.7s0.1,1.2,0.4,1.7s0.6,0.8,0.9,1
			C93.8,93.6,94.2,93.7,94.7,93.7z"/>
		<path class="st1" d="M103.4,94.8c-0.9,0-1.7-0.3-2.2-0.9c-0.6-0.6-0.8-1.4-0.8-2.6v-4.6h1.3v4.5c0,1.6,0.7,2.5,2,2.5
			c0.7,0,1.3-0.2,1.7-0.7c0.4-0.5,0.7-1.2,0.7-2.1v-4.1h1.3v7.9h-1.2l-0.1-1.4c-0.2,0.5-0.6,0.9-1.1,1.2
			C104.6,94.7,104.1,94.8,103.4,94.8z"/>
		<path class="st1" d="M109.7,94.6v-7.9h1.2l0.1,1.5c0.2-0.5,0.6-0.9,1.1-1.2s1.1-0.5,1.9-0.5v1.4h-0.4c-0.5,0-0.9,0.1-1.3,0.2
			c-0.4,0.2-0.7,0.5-0.9,0.8c-0.2,0.4-0.4,0.9-0.4,1.6v4L109.7,94.6L109.7,94.6z"/>
		<path class="st1" d="M124,94.8c-0.6,0-1.2-0.1-1.7-0.4s-0.9-0.6-1.2-1.1l-0.1,1.3h-1.2V83.1h1.3V88c0.3-0.4,0.6-0.7,1.1-1
			s1.1-0.5,1.8-0.5c0.8,0,1.5,0.2,2.1,0.5c0.6,0.4,1,0.9,1.4,1.5c0.3,0.6,0.5,1.3,0.5,2.1s-0.2,1.5-0.5,2.1s-0.8,1.1-1.4,1.5
			C125.5,94.7,124.8,94.8,124,94.8z M123.8,93.7c0.5,0,1-0.1,1.4-0.4s0.7-0.6,1-1c0.2-0.5,0.3-1,0.3-1.6s-0.1-1.1-0.3-1.6
			s-0.5-0.8-1-1.1s-0.9-0.4-1.4-0.4s-1,0.1-1.4,0.4c-0.4,0.2-0.7,0.6-1,1.1c-0.2,0.4-0.3,1-0.3,1.6s0.1,1.1,0.3,1.6
			c0.2,0.4,0.6,0.8,1,1C122.8,93.6,123.3,93.7,123.8,93.7z"/>
		<path class="st1" d="M133.4,94.8c-0.8,0-1.4-0.2-2-0.5c-0.6-0.4-1-0.8-1.4-1.5c-0.3-0.6-0.5-1.3-0.5-2.2c0-0.8,0.2-1.6,0.5-2.2
			s0.8-1.1,1.4-1.5c0.6-0.3,1.3-0.5,2.1-0.5s1.4,0.2,2,0.5c0.6,0.4,1,0.8,1.3,1.4s0.4,1.2,0.4,1.8c0,0.1,0,0.2,0,0.4
			c0,0.1,0,0.2,0,0.4h-6.4c0,0.6,0.2,1.1,0.4,1.5s0.6,0.7,0.9,0.9c0.4,0.2,0.8,0.3,1.2,0.3c0.6,0,1-0.1,1.4-0.4s0.7-0.6,0.8-1h1.3
			c-0.2,0.7-0.6,1.3-1.2,1.8C135.1,94.6,134.3,94.8,133.4,94.8z M133.4,87.7c-0.6,0-1.2,0.2-1.7,0.6s-0.8,1-0.9,1.7h5
			c0-0.7-0.3-1.3-0.7-1.7C134.6,87.9,134,87.7,133.4,87.7z"/>
		<path class="st1" d="M142.5,94.8c-0.8,0-1.5-0.2-2.1-0.5c-0.6-0.4-1-0.9-1.4-1.5s-0.5-1.3-0.5-2.1s0.2-1.5,0.5-2.1
			s0.8-1.1,1.4-1.5c0.6-0.4,1.3-0.5,2.1-0.5c0.6,0,1.2,0.1,1.7,0.4s0.9,0.6,1.2,1.1v-4.9h1.3v11.5h-1.2l-0.1-1.3
			c-0.3,0.4-0.6,0.7-1.1,1S143.2,94.8,142.5,94.8z M142.6,93.7c0.5,0,1-0.1,1.4-0.4c0.4-0.2,0.7-0.6,1-1c0.2-0.5,0.3-1,0.3-1.6
			s-0.1-1.1-0.3-1.6s-0.6-0.8-1-1.1c-0.4-0.2-0.9-0.4-1.4-0.4s-1,0.1-1.4,0.4s-0.7,0.6-1,1.1c-0.2,0.4-0.3,1-0.3,1.6
			s0.1,1.1,0.3,1.6c0.2,0.4,0.6,0.8,1,1C141.7,93.6,142.1,93.7,142.6,93.7z"/>
		<path class="st1" d="M156.3,94.6c-0.7,0-1.3-0.2-1.7-0.5s-0.6-1-0.6-1.9v-4.4h-1.4v-1.1h1.4l0.2-1.9h1.2v1.9h2.3v1.1h-2.3v4.4
			c0,0.5,0.1,0.8,0.3,1s0.6,0.3,1.1,0.3h0.8v1.1H156.3z"/>
		<path class="st1" d="M162.8,94.8c-0.8,0-1.4-0.2-2-0.5s-1.1-0.8-1.4-1.4c-0.4-0.6-0.5-1.4-0.5-2.2c0-0.8,0.2-1.6,0.5-2.2
			c0.4-0.6,0.8-1.1,1.4-1.4s1.3-0.5,2-0.5c0.8,0,1.4,0.2,2,0.5s1.1,0.8,1.4,1.4c0.4,0.6,0.5,1.4,0.5,2.2c0,0.8-0.2,1.6-0.5,2.2
			s-0.8,1.1-1.4,1.4C164.2,94.7,163.5,94.8,162.8,94.8z M162.8,93.7c0.5,0,0.9-0.1,1.3-0.3c0.4-0.2,0.7-0.6,1-1s0.4-1,0.4-1.7
			s-0.1-1.2-0.4-1.7s-0.6-0.8-0.9-1c-0.4-0.2-0.8-0.3-1.3-0.3s-0.9,0.1-1.3,0.3c-0.4,0.2-0.7,0.6-1,1s-0.4,1-0.4,1.7
			s0.1,1.2,0.4,1.7s0.6,0.8,0.9,1C161.9,93.6,162.3,93.7,162.8,93.7z"/>
		<path class="st1" d="M93.6,150.9c-0.7,0-1.2-0.1-1.7-0.3c-0.4-0.2-0.8-0.5-1-0.9s-0.3-0.8-0.3-1.2c0-0.8,0.3-1.4,0.9-1.9
			c0.6-0.4,1.5-0.7,2.5-0.7h2.1v-0.1c0-0.7-0.2-1.2-0.5-1.6c-0.4-0.4-0.8-0.5-1.5-0.5c-0.5,0-1,0.1-1.3,0.4
			c-0.4,0.3-0.6,0.6-0.7,1.1h-1.3c0.1-0.6,0.2-1.1,0.6-1.5c0.3-0.4,0.8-0.7,1.3-0.9s1-0.3,1.6-0.3c1.1,0,1.9,0.3,2.5,0.9
			s0.8,1.4,0.8,2.4v4.9h-1.2l-0.1-1.4c-0.2,0.5-0.5,0.8-1,1.1C94.9,150.7,94.3,150.9,93.6,150.9z M93.8,149.7c0.5,0,1-0.1,1.3-0.4
			c0.4-0.3,0.7-0.6,0.8-1c0.2-0.4,0.3-0.9,0.3-1.3l0,0h-2c-0.8,0-1.3,0.1-1.7,0.4c-0.3,0.3-0.5,0.6-0.5,1s0.2,0.8,0.5,1
			C92.8,149.6,93.3,149.7,93.8,149.7z"/>
		<path class="st1" d="M99.6,150.7v-7.9h1.2l0.1,1.4c0.3-0.5,0.6-0.9,1.1-1.2s1-0.4,1.6-0.4c0.9,0,1.7,0.3,2.2,0.9
			c0.6,0.6,0.8,1.4,0.8,2.6v4.6h-1.3v-4.5c0-1.6-0.7-2.5-2.1-2.5c-0.7,0-1.2,0.2-1.7,0.7c-0.4,0.5-0.7,1.2-0.7,2.1v4.1L99.6,150.7
			L99.6,150.7z"/>
		<path class="st1" d="M112.4,150.9c-0.8,0-1.5-0.2-2.1-0.5c-0.6-0.4-1.1-0.9-1.4-1.5s-0.5-1.3-0.5-2.1s0.2-1.5,0.5-2.1
			s0.8-1.1,1.4-1.5s1.3-0.5,2.1-0.5c0.6,0,1.2,0.1,1.7,0.4s0.9,0.6,1.2,1.1v-4.9h1.3v11.5h-1.2l-0.1-1.3c-0.3,0.4-0.6,0.7-1.1,1
			C113.7,150.7,113.1,150.9,112.4,150.9z M112.5,149.7c0.5,0,1-0.1,1.4-0.4c0.4-0.2,0.7-0.6,1-1c0.2-0.5,0.3-1,0.3-1.6
			s-0.1-1.1-0.3-1.6c-0.2-0.4-0.6-0.8-1-1s-0.9-0.4-1.4-0.4s-1,0.1-1.4,0.4s-0.7,0.6-1,1c-0.2,0.5-0.3,1-0.3,1.6s0.1,1.1,0.3,1.6
			c0.2,0.4,0.6,0.8,1,1S112,149.7,112.5,149.7z"/>
		<path class="st2" d="M29.5,107.5c0.2-0.1,0.8-0.2,1.6-0.2c1,0,1.6,0.1,2,0.3c0.3,0.2,0.6,0.4,0.9,0.8c0.3,0.4,0.5,0.7,0.5,1.1
			c0,0.1,0,0.2,0,0.4c0,0.3-0.2,0.6-0.5,1.1c-0.5,0.5-0.9,0.8-1.2,0.8c-0.4,0-0.7-0.2-1-0.6s-0.6-0.6-0.9-0.6
			c-0.2,0-0.5,0.2-0.8,0.6s-0.4,0.8-0.4,1.2c0,0.5,0.2,1.2,0.5,2.3s0.6,1.8,0.9,2.2c0.3,0.4,0.8,1.2,1.3,2.2c0.6,1.1,0.9,1.8,1,1.8
			c0.1,0.1,0.2,0.4,0.2,0.6c0,0.4,0.1,0.9,0.3,1.4s0.4,1.1,0.5,1.8c0,0.1,0,0.3,0,0.7c0,1.5-0.3,2.7-0.9,3.4c-0.2,0.4-0.7,0.7-1.3,1
			s-1.2,0.5-1.7,0.5c-0.6,0-1.4-0.3-2.3-1c-0.9-0.7-1.4-1.4-1.7-2.1c-0.2-0.4-0.2-0.8,0-1.1c0.4-0.5,0.8-0.8,1.4-0.8
			c0.1,0,0.3,0,0.4,0.1c0.2,0.1,0.4,0.5,0.8,1c0.4,0.6,0.8,0.8,1.1,0.8c0.2,0,0.4-0.1,0.5-0.4c0.1-0.2,0.1-0.4,0.1-0.8
			c0-1-0.2-1.9-0.6-2.9c-0.2-0.6-0.4-1-0.4-1.3c0-0.1-0.3-0.9-1-2.3c-0.5-1.1-1-2.1-1.4-3.1c-0.7-2-1-3.4-1-4.2c0-1.1,0.3-2.1,1-2.9
			C28.3,108.4,28.9,107.8,29.5,107.5z"/>
		<path class="st2" d="M39.2,107.8c0.2-0.2,0.5-0.4,0.8-0.4c0.2,0,0.5,0,0.6,0c0.6,0.1,1,0.3,1.2,0.5c0.3,0.4,0.5,2.9,0.5,7.6v2.5
			v2.2c0,3.7,0,5.7,0.1,6c0.1,0.5,0.6,0.7,1.4,0.7c0.4,0,0.7,0,1,0c0.2,0,0.5,0,0.8,0c0.5,0,0.9,0.1,1.1,0.2s0.3,0.5,0.3,0.9
			c0,0.3-0.1,0.5-0.2,0.7c-0.1,0.2-0.4,0.4-0.8,0.7c-0.8,0.4-1.6,0.6-2.4,0.7c-1.2,0.1-1.8,0.1-1.8,0.1c-0.1,0-0.2,0-0.3,0
			c-0.3,0-0.7-0.1-1.1-0.3c-0.4-0.2-0.7-0.4-1-0.7c-0.4-0.5-0.6-2-0.6-4.3c0-0.6,0-1.7,0.1-3.3c0.1-1.5,0.1-3,0.1-4.8
			c0-4.1-0.1-6.6-0.2-7.6c-0.1-0.4-0.1-0.6-0.1-0.7C38.8,108.3,38.9,108.1,39.2,107.8z"/>
		<path class="st2" d="M53.4,109.1c0.3-0.1,0.8-0.1,1.3-0.1c1.5,0,2.5,0.2,2.9,0.5c0.3,0.2,0.4,0.6,0.4,0.9s-0.1,0.7-0.4,0.9
			c-0.3,0.2-0.6,0.4-1.1,0.4c-0.4,0-0.7,0.1-0.8,0.3c-0.1,0.2-0.2,0.7-0.2,1.4c0,0.2,0,0.9,0.1,2.1c0.1,1.4,0.1,2.3,0.2,2.7
			s0.2,0.6,0.3,0.6c0,0,0.2,0,0.5,0s0.6,0,0.8,0c0.7,0,1.2,0.2,1.5,0.5c0.2,0.2,0.3,0.4,0.3,0.6c0,0.4-0.6,0.9-1.8,1.3
			c-0.7,0.2-1.1,0.4-1.3,0.6c-0.1,0.1-0.2,0.4-0.3,0.9c-0.1,0.4-0.1,0.8-0.1,1.2c0,1.4,0.1,2.4,0.4,3.2c0.1,0.3,0.2,0.5,0.4,0.5
			c0.1,0.1,0.4,0.1,0.9,0.1c0.6,0,1.1,0.1,1.5,0.4c0.4,0.3,0.6,0.6,0.6,0.9c0,0.2-0.2,0.6-0.6,1c-0.7,0.6-1.8,1-3.4,1
			c-1.6,0-2.7-0.4-3.2-1.1c-0.3-0.4-0.4-2.8-0.5-7.2c-0.1-5.5-0.1-8.8-0.2-9.7l-0.1-3.1l0.6-0.3C52.6,109.3,53,109.1,53.4,109.1z"/>
		<path class="st2" d="M65.7,109.1C66,109,66.5,109,67,109c1.5,0,2.5,0.2,2.9,0.5c0.3,0.2,0.4,0.6,0.4,0.9s-0.1,0.7-0.4,0.9
			s-0.6,0.4-1.1,0.4c-0.4,0-0.7,0.1-0.8,0.3c-0.1,0.2-0.2,0.7-0.2,1.4c0,0.2,0,0.9,0.1,2.1c0.1,1.4,0.1,2.3,0.2,2.7s0.2,0.6,0.3,0.6
			c0,0,0.2,0,0.6,0c0.3,0,0.6,0,0.8,0c0.7,0,1.2,0.2,1.5,0.5c0.2,0.2,0.3,0.4,0.3,0.6c0,0.4-0.6,0.9-1.8,1.3
			c-0.7,0.2-1.1,0.4-1.3,0.6c-0.1,0.1-0.2,0.4-0.3,0.9c-0.1,0.4-0.1,0.8-0.1,1.2c0,1.4,0.1,2.4,0.4,3.2c0.1,0.3,0.2,0.5,0.4,0.5
			c0.1,0.1,0.4,0.1,0.9,0.1c0.6,0,1.1,0.1,1.5,0.4c0.4,0.3,0.6,0.6,0.6,0.9c0,0.2-0.2,0.6-0.6,1c-0.7,0.6-1.8,1-3.4,1
			s-2.7-0.4-3.2-1.1c-0.3-0.4-0.5-2.8-0.5-7.2c-0.1-5.5-0.1-8.8-0.2-9.7l-0.1-3.1l0.6-0.3C65,109.3,65.4,109.1,65.7,109.1z"/>
		<path class="st2" d="M77.2,107.2c0.3-0.1,1-0.2,2.1-0.2c1.3,0,2.2,0.1,2.5,0.3c0.5,0.2,0.9,0.7,1.5,1.2c0.5,0.5,0.9,1,1.1,1.4
			c0.3,0.6,0.5,2.2,0.6,4.5c0.1,1.4,0.1,2.2,0.1,2.4c0,0.9-0.1,1.7-0.4,2.5c-0.3,0.9-0.6,1.6-1,2c-0.4,0.5-1,0.8-1.7,1l-1.2,0.4v3.4
			c0,2-0.1,3.3-0.2,3.7c-0.2,0.4-0.6,0.7-1.2,0.7s-1.1-0.2-1.5-0.5l-0.6-0.5v-3V126c0-2.4-0.1-5.4-0.2-9s-0.3-5.8-0.4-6.7
			c-0.1-0.6-0.1-1.2-0.1-1.5C76.3,108,76.6,107.5,77.2,107.2z M81,111.2c-0.3-0.6-0.5-1-0.7-1c-0.1,0-0.1,0-0.2,0.1c0,0.9,0,2,0,3.2
			c0,4,0.2,6,0.5,6c0.1,0,0.3-0.3,0.6-0.8c0.2-0.5,0.3-1.1,0.3-1.8c0-0.2,0-0.8-0.1-1.9C81.3,112.9,81.2,111.7,81,111.2z"/>
		<path class="st2" d="M89.7,106.6c0.3-0.4,0.8-0.6,1.3-0.6s0.9,0.2,1.3,0.6l0.5,0.6l0.2,9.5c0.1,5.2,0.2,8.2,0.2,9c0,0.4,0,0.8,0,1
			c0,0.3,0,0.5,0,0.7s-0.1,0.3-0.1,0.4C93,127.9,93,128,93,128s-0.1,0.1-0.2,0.1c-0.1,0.1-0.2,0.1-0.2,0.1c-0.3,0.2-0.6,0.3-0.8,0.3
			c-0.1,0-0.4-0.1-0.8-0.2c-0.7-0.3-1.1-0.5-1.1-0.7c-0.1-0.1-0.2-3.5-0.2-10.1c-0.1-6.6-0.1-9.9-0.2-10
			C89.2,107.2,89.4,106.9,89.7,106.6z"/>
		<path class="st2" d="M98.6,108.1c0.4-0.2,0.8-0.3,1.3-0.3c0.8,0,1.4,0.5,1.7,1.6c0.2,0.8,0.5,1.7,1,2.6c0.4,0.9,0.7,1.6,0.9,2.2
			c0.3,0.9,0.5,1.5,0.8,1.7c0.1,0.1,0.2,0.2,0.2,0.2c0.1,0,0.2-0.6,0.3-1.8c0.1-1.1,0.1-1.9,0.1-2.3v-0.5c0-0.2,0-0.5,0-0.8
			c0-0.7,0.2-1.2,0.6-1.6c0.3-0.4,0.8-0.6,1.5-0.6c0.5,0,0.9,0.1,1.2,0.4c0.2,0.2,0.4,0.6,0.4,1c0,0.5,0,1-0.1,1.5
			s-0.1,3.9-0.2,10.2c0,3.9-0.1,6.3-0.1,7.1s-0.1,1.3-0.3,1.5c-0.3,0.3-0.7,0.5-1.3,0.5c-1.2,0-1.9-0.6-2.1-1.8
			c-0.1-0.4-0.4-1.3-0.8-2.5c-0.4-1.1-0.7-2.1-0.8-3c-0.2-1.1-0.6-2.7-1.2-4.6c-0.1-0.2-0.1-0.2-0.1-0.2c-0.1,0-0.2,1.2-0.2,3.5v2
			v2.2c0,2.3-0.1,3.6-0.2,3.9c-0.3,0.8-0.9,1.2-1.8,1.2c-0.5,0-1-0.2-1.3-0.6c-0.2-0.3-0.4-0.6-0.4-0.8c0-0.1,0-0.3,0.1-0.8
			c0.1-0.9,0.2-4.3,0.2-10.1c0-6.5,0.1-9.9,0.2-10.3c0.1-0.2,0.2-0.4,0.5-0.5C98.4,108.1,98.5,108.1,98.6,108.1z"/>
		<path class="st2" d="M114.6,110c0-0.2,0.1-0.4,0.4-0.6s0.6-0.4,1-0.5c0.4-0.2,0.6-0.3,0.7-0.4c0.1-0.2,0.3-0.2,0.5-0.2
			s0.6,0.2,1.3,0.6c0.6,0.4,1,0.8,1.1,1.2c0,0.1,0,0.2,0,0.2c0,0.3-0.4,0.6-1.2,0.9c-0.8,0.4-1.4,0.8-1.6,1.2
			c-0.4,0.8-0.6,2.9-0.6,6.1c0,1.1,0,1.9,0.1,2.4c0.3,3.7,0.6,5.7,0.8,6.1l0,0c0.2,0,0.4-1,0.4-3.1c0.1-1.2,0.1-1.9,0.2-2.3
			c0.1-0.5,0.1-0.9-0.2-1.2c-0.3-0.4-0.5-0.8-0.5-1.1c0-0.2,0.1-0.5,0.3-0.8c0.3-0.3,0.9-0.5,1.9-0.5c0.6,0,1.1,0,1.3,0.1
			c0.2,0.1,0.4,0.2,0.6,0.4c0.2,0.3,0.4,0.7,0.4,1.2s-0.1,1-0.2,1.6c-0.2,1-0.3,2.4-0.4,4.1c-0.1,2-0.4,3.3-0.7,3.9
			c-0.4,0.7-0.7,1.2-0.9,1.4c-0.3,0.2-0.7,0.5-1.4,0.7c-0.4,0.1-0.8,0.2-1.2,0.2c-0.5,0-1-0.2-1.6-0.7c-0.7-0.5-1.3-1.9-1.7-4
			c-0.1-0.4-0.2-0.8-0.3-1c-0.1-0.1-0.1-0.5-0.2-1.2c0-0.4-0.1-2.2-0.2-5.6l-0.2-4.6l0.6-1.9c0.4-1.2,0.7-2,0.9-2.3
			C114.5,110.4,114.6,110.2,114.6,110z"/>
		<path class="st2" d="M129.5,141c0.2-0.1,0.8-0.2,1.6-0.2c1,0,1.6,0.1,2,0.3c0.3,0.2,0.6,0.4,0.9,0.8c0.3,0.4,0.5,0.7,0.5,1.1
			c0,0.1,0,0.2,0,0.4c0,0.3-0.2,0.6-0.6,1.1c-0.5,0.5-0.9,0.8-1.2,0.8c-0.4,0-0.7-0.2-1-0.6c-0.3-0.4-0.6-0.6-0.9-0.6
			c-0.2,0-0.5,0.2-0.8,0.6c-0.3,0.4-0.4,0.8-0.4,1.2c0,0.5,0.2,1.2,0.5,2.3s0.6,1.8,0.9,2.2c0.3,0.5,0.8,1.2,1.3,2.2
			c0.6,1.1,0.9,1.8,1,1.8c0.1,0.1,0.2,0.4,0.2,0.6c0,0.4,0.1,0.9,0.3,1.4s0.4,1.1,0.5,1.8c0,0.1,0,0.3,0,0.7c0,1.5-0.3,2.7-0.9,3.4
			c-0.2,0.4-0.7,0.7-1.3,1s-1.2,0.5-1.7,0.5c-0.6,0-1.4-0.3-2.3-1c-0.9-0.7-1.4-1.4-1.7-2.1c-0.2-0.5-0.2-0.8,0-1.1
			c0.4-0.5,0.8-0.8,1.4-0.8c0.1,0,0.3,0,0.4,0.1c0.2,0.1,0.4,0.5,0.8,1c0.4,0.6,0.8,0.8,1.1,0.8c0.2,0,0.4-0.1,0.6-0.4
			c0.1-0.2,0.1-0.5,0.1-0.8c0-1-0.2-1.9-0.6-2.9c-0.2-0.6-0.4-1-0.4-1.3c0-0.1-0.3-0.9-1-2.3c-0.5-1.1-1-2.1-1.4-3.1
			c-0.7-2-1-3.4-1-4.2c0-1.1,0.3-2.1,1-2.9C128.3,141.9,128.9,141.3,129.5,141z"/>
		<path class="st2" d="M140.6,142.6c0.3-0.1,0.8-0.1,1.3-0.1c1.5,0,2.5,0.2,2.9,0.5c0.3,0.2,0.4,0.6,0.4,0.9c0,0.4-0.1,0.7-0.4,0.9
			s-0.6,0.4-1.1,0.4c-0.4,0-0.7,0.1-0.8,0.3s-0.2,0.7-0.2,1.5c0,0.2,0,0.9,0.1,2.1c0.1,1.4,0.1,2.3,0.2,2.7c0.1,0.4,0.2,0.6,0.3,0.6
			c0,0,0.2,0,0.5,0s0.6,0,0.8,0c0.7,0,1.2,0.2,1.5,0.5c0.2,0.2,0.3,0.4,0.3,0.6c0,0.4-0.6,0.9-1.8,1.3c-0.7,0.2-1.1,0.4-1.3,0.6
			s-0.2,0.4-0.3,0.9s-0.1,0.8-0.1,1.2c0,1.4,0.1,2.4,0.4,3.1c0.1,0.3,0.2,0.5,0.4,0.5c0.1,0.1,0.4,0.1,0.9,0.1
			c0.6,0,1.1,0.1,1.5,0.4c0.4,0.3,0.6,0.6,0.6,0.9c0,0.2-0.2,0.6-0.6,1c-0.7,0.6-1.8,1-3.4,1c-1.6,0-2.7-0.4-3.2-1
			c-0.3-0.4-0.4-2.8-0.5-7.2c-0.1-5.5-0.1-8.8-0.2-9.7l-0.1-3.1l0.6-0.3C139.8,142.8,140.2,142.6,140.6,142.6z"/>
		<path class="st2" d="M152.6,139.8c0.1,0,0.2-0.1,0.3-0.1s0.2-0.1,0.2-0.1c0.1,0,0.1,0,0.2-0.1h0.1c0.1,0,0.3,0.1,0.7,0.3
			s0.7,0.6,0.8,0.9c0.2,1.1,0.6,2.2,0.9,3.2c0.3,1,0.6,1.5,0.7,1.5c0,0,0,0,0-0.1s0.2-1,0.6-2.5c0.2-1,0.4-1.7,0.6-2
			c0.1-0.3,0.3-0.5,0.5-0.7c0.4-0.2,0.8-0.2,1.3-0.2c0.6,0,1.1,0.1,1.5,0.5c0.3,0.3,0.5,0.6,0.5,1s-0.1,1-0.4,1.8
			c-0.2,0.6-0.5,1.7-0.9,3.1s-0.8,2.7-1.1,3.6c-0.4,1.4-0.6,2.3-0.6,2.7c0,0.3,0,0.6,0.1,1c0.2,1,0.4,1.7,0.7,2.2
			c0.3,0.6,0.4,1,0.4,1.4c0,0.2,0.2,1,0.7,2.5c0.4,1.2,0.6,2,0.6,2.5c0,0.4-0.2,0.8-0.6,1.1c-0.3,0.3-0.6,0.4-1,0.4
			c-0.2,0-0.4,0-0.6,0c-0.6-0.1-1.1-0.3-1.4-0.6s-0.6-0.9-0.8-1.6c-0.2-0.6-0.3-1-0.5-1c-0.1,0-0.2,0.3-0.3,1
			c-0.2,1.9-0.9,2.9-2.1,2.9c-0.3,0-0.8-0.2-1.5-0.5s-1-0.6-1-0.8c0-0.4,0.7-2.9,2.2-7.2c0.2-0.5,0.4-1.3,0.6-2.6
			c0.1-0.7,0.2-1.1,0.2-1.3c0-0.4-0.1-1-0.4-1.9c-0.2-0.7-0.6-1.8-1-3.2s-0.7-2.5-0.9-3.1c-0.3-1-0.6-1.9-0.7-2.5c0-0.1,0-0.3,0-0.5
			C151.3,140.6,151.7,140.1,152.6,139.8z"/>
		<path class="st2" d="M166,159.2c0.3-0.3,0.6-0.5,0.9-0.5c0.1,0,0.3,0,0.6,0.1c1.1,0.2,1.7,0.7,1.7,1.3c0,0.5-0.3,1-1.1,1.4
			c-0.6,0.4-1,0.5-1.4,0.5c-0.6,0-1-0.5-1.1-1.4c0-0.2,0-0.4,0-0.6C165.6,159.8,165.8,159.5,166,159.2z"/>
		<path class="st3" d="M282.9,163.3c12,0,21.8-9.8,21.8-21.8s-9.8-21.8-21.8-21.8s-21.8,9.8-21.8,21.8S270.9,163.3,282.9,163.3z"/>
		<path class="st0" d="M268.8,145.2c0.7-1,2.1-1.2,3-0.3l1.4,1.3c0.8,0.7,2,0.7,2.8,0l14.3-14c0.8-0.8,2.2-0.7,3,0.2l0.6,0.7
			c0.6,0.8,0.6,1.9-0.2,2.6l-16.8,16.9c-0.8,0.8-2,0.8-2.8,0l-5-4.8C268.4,147.1,268.3,146,268.8,145.2z"/>
		<path class="st4" d="M281.8,123.2c0,0,14,0.1,17.6,10"/>
		<path class="st4" d="M294.5,156.7c0,0-10,8.1-20.2,2.1"/>
		<path class="st3" d="M294.8,88.4c12,0,21.8-9.8,21.8-21.8s-9.8-21.8-21.8-21.8S273,54.6,273,66.6S282.7,88.4,294.8,88.4z"/>
		<path class="st0" d="M280.7,70.3c0.7-1,2.1-1.2,3-0.3l1.4,1.3c0.8,0.7,2,0.7,2.8,0l14.3-14c0.9-0.8,2.2-0.7,3,0.2l0.6,0.7
			c0.6,0.8,0.6,1.9-0.2,2.6l-16.8,16.9c-0.8,0.8-2,0.8-2.8,0l-5-4.8C280.2,72.1,280.1,71.1,280.7,70.3z"/>
		<path class="st4" d="M293.6,48.3c0,0,14,0.1,17.6,10"/>
		<path class="st4" d="M306.3,81.8c0,0-10,8.1-20.2,2.1"/>
		<path class="st5" d="M202.6,181.1c-1-6.7-2-15.4-1.8-19.9c-4.5,3.6-11.8,11.1-14.1,19.9H202.6z"/>
		<path class="st2" d="M241.4,100.8c0,0,9.3,25.9-6.4,45.3C235,146,224.5,125.1,241.4,100.8z"/>
		<path class="st6" d="M248.1,116.3c0,0,0.6,10.7-14.3,30.3C233.8,146.6,225.5,132.1,248.1,116.3z"/>
		<path class="st7" d="M277.3,181.1c-0.1-1.8-0.2-3.9-0.5-6.3c-5.6-48.2-51.3-42.3-67.9-30.9c-7.9,5.4-18.6,16.8-16.2,37.2H277.3
			L277.3,181.1z"/>
		<path d="M226.1,166.4c0-1,1.4-0.5,4.8-0.5s4.3-0.2,4.3,0.5c-0.1,0.8-0.2,2.5-4.3,2.5C226.9,169,226.1,167.6,226.1,166.4z"/>
		<path class="st0" d="M230.1,165.9l-0.1,1c0,0.4,0.3,0.6,0.7,0.6h0.7c0.4,0,0.7-0.3,0.6-0.7v-1L230.1,165.9L230.1,165.9z"/>
		<path class="st5" d="M279.8,181.1c0.4-8.3-3.6-16.5-6.7-20.9c-1.3,5.2-7.9,14.8-10.9,20.9H279.8z"/>
		<path class="st8" d="M229.4,130.8c0,0-3.4,1.1-3.8,5C225.5,135.7,228.7,136,229.4,130.8z"/>
		<path class="st9" d="M225.6,139.8c-0.2-4.4-0.2-8.4-2.2-13.4"/>
		<path class="st10" d="M224.2,125c0,0-7-1.3-5.7,1.3C219.9,128.9,225.4,126.8,224.2,125z"/>
		<path class="st10" d="M225.6,125.4c0,0-7.2,1.1-4.8,3.2C223.3,130.7,227.4,126.8,225.6,125.4z"/>
		<path class="st10" d="M226,125.6c0,0-4.4-5.2-5.8-2.6C218.8,125.6,225.2,127.5,226,125.6z"/>
		<path class="st10" d="M223.4,127.8c0,0,7.7-3.4,4.2-4.9S220.8,126.9,223.4,127.8z"/>
		<path class="st10" d="M225.2,125.5c0,0,5.4-1.8,4.9,1S224.7,127.5,225.2,125.5z"/>
		<path class="st10" d="M226.4,124.8c0,0,2.6,6.4-0.6,5.4C222.5,129.3,224.1,124,226.4,124.8z"/>
		<path class="st3" d="M227.9,125.7c0.1-1-1.2-1.9-2.9-2s-3.1,0.6-3.2,1.6c-0.1,1,1.2,1.9,2.9,2
			C226.4,127.4,227.8,126.7,227.9,125.7z"/>
		<path class="st3" d="M220.9,161.6l-1.5-1c-3.1-2.1-3.3-4.2-3.2-5.1c0.1-1,0.8-2.7,2.5-2.8c1.6-0.1,2.2,2.1,2.2,2.1
			s0.6-2.1,2.2-2.1c1.7,0,2.4,1.8,2.5,2.8c0.1,0.9-0.1,3-3.2,5.1L220.9,161.6z"/>
		<path class="st3" d="M240.5,161.6l-1.5-1c-3.1-2.1-3.3-4.2-3.2-5.1c0.1-1,0.8-2.7,2.4-2.8c1.6-0.1,2.2,2.1,2.2,2.1
			s0.6-2.1,2.2-2.1s2.4,1.8,2.5,2.8c0.1,0.9-0.1,3-3.2,5.1L240.5,161.6z"/>
		<path class="st3" d="M198.7,144.8h-3.5c-7.5-0.3-9.9-3.7-10.7-5.2c-0.9-1.7-1.5-5.4,1.2-7.2s5.9,1.1,5.9,1.1s-1.2-4.2,1.6-5.9
			c2.8-1.6,5.9,0.5,7,2.1c1,1.4,3,5.1,0,11.9L198.7,144.8z"/>
		<path class="st5" d="M207.6,96.6c-0.9-6.6-1.9-14.8-1.7-19.2c-4.4,3.6-11.5,10.7-14,19.2C191.9,96.6,207.6,96.6,207.6,96.6z"/>
		<path class="st2" d="M275.7,62.1c0,0-26.7,7.8-45.3-9.2C230.4,52.9,252.3,43.6,275.7,62.1z"/>
		<path class="st8" d="M259.9,50.3c0,0-8.5,6.7-33.3,5.8C226.5,56.1,233.6,40.9,259.9,50.3z"/>
		<path class="st7" d="M283.1,96.6c-0.1-1.6-0.2-3.4-0.4-5.5c-5.6-48.6-51.9-42.6-68.6-31.1c-7.8,5.4-18.5,16.7-16.5,36.6H283.1
			L283.1,96.6z"/>
		<path d="M225.4,78.3c0.1,0.5-1.3,0.3-2.9,0.5c-1.6,0.3-2.6,0.8-3,0.4c-0.3-0.4,0.8-3,2.4-3.2C223.5,75.8,225.3,77.8,225.4,78.3z"
			/>
		<path d="M249.9,74.4c-0.1,0.6-1.3,0.3-3,0.5c-1.6,0.3-2.6,0.8-3,0.4c-0.3-0.4,0.8-3,2.4-3.2C248,71.8,250,73.8,249.9,74.4z"/>
		<path d="M233.4,86.8c-0.5-1.2,1.2-1.9,4.1-1.4c2.8,0.5,1.4,3.5-0.7,3.3S233.9,88,233.4,86.8z"/>
		<path class="st0" d="M237.2,87.4l-0.9,0.2c-0.4,0.1-0.8-0.2-0.9-0.7l-0.1-1.6c0.8-0.1,1.6,0,2.4,0.1l0.2,1
			C237.9,86.9,237.6,87.3,237.2,87.4z"/>
		<path class="st5" d="M285.7,96.6c0-8.1-3.7-15.9-6.8-20.2c-1.2,5-7.4,14-10.6,20.2C268.3,96.6,285.7,96.6,285.7,96.6z"/>
		<path class="st8" d="M222.8,45.4c0,0,0.3,5.1,5.3,7.2C228.1,52.6,228.4,50.5,222.8,45.4z"/>
		<path class="st11" d="M228.1,55.4c2.4-2.8-2.9-8-12.4-4.1"/>
		<path class="st10" d="M213.3,50.7c0,0-3.2,6.5-0.3,5.9C215.9,56,215.3,50.1,213.3,50.7z"/>
		<path class="st10" d="M214,49.6c0,0-1,7.3,1.8,5.5C218.5,53.2,215.9,48.1,214,49.6z"/>
		<path class="st10" d="M214.3,49.2c0,0-6.3,2.9-4.1,4.9C212.4,56.2,215.9,50.5,214.3,49.2z"/>
		<path class="st10" d="M215.8,52.3c0,0-1.2-8.4-3.6-5.4C209.7,49.8,214.2,54.6,215.8,52.3z"/>
		<path class="st10" d="M213.8,50.2c0,0-0.2-5.7,2.3-4.5C218.7,47,215.5,51.2,213.8,50.2z"/>
		<path class="st10" d="M213.7,48.6c0,0,6.9-0.8,5.1,2.1C217,53.6,212.3,50.6,213.7,48.6z"/>
		<path class="st3" d="M215.7,50.9c0.6-1.6,0.3-3.2-0.7-3.5s-2.2,0.7-2.8,2.3s-0.3,3.2,0.7,3.5C213.9,53.5,215.1,52.5,215.7,50.9z"
			/>
		<path class="st3" d="M266.6,47.9c0.8-0.1,1.4-0.2,2.1-0.3c0.3,0,0.7-0.1,1.1,0c0.2,0,0.4,0.2,0.5,0.4s-0.1,0.4-0.3,0.6
			c-0.1,0.1-0.4,0.2-0.6,0.3c-1.2,0.3-2.4,0.6-3.6,0.8c-0.8,0.2-1.2-0.3-1.1-1.1c0.4-1.6,0.7-3.2,1.1-4.8c0-0.2,0.1-0.3,0.1-0.5
			c0.1-0.5,0-0.7-0.6-0.5c-0.2,0.1-0.4,0.1-0.6,0.1c-0.6,0.1-1.1-0.3-1.1-0.7c-0.1-0.5,0.2-1,0.8-1.1c0.9-0.2,1.9-0.4,2.8-0.6
			c0.4-0.1,0.9,0.1,1,0.6s0.1,1,0,1.4c-0.2,0.8-0.5,1.5-0.8,2.3C267.2,45.7,266.9,46.7,266.6,47.9z"/>
		<path class="st3" d="M274.4,44.1c0.8-0.1,1.5-0.2,2.3-0.3c0.4,0,0.8-0.1,1.1,0c0.2,0,0.5,0.3,0.5,0.4c0,0.2-0.1,0.5-0.3,0.6
			c-0.2,0.1-0.4,0.2-0.6,0.3c-1.3,0.3-2.6,0.6-3.9,0.8c-0.9,0.2-1.3-0.3-1.1-1.2c0.4-1.7,0.8-3.4,1.2-5.2c0-0.2,0.1-0.3,0.1-0.5
			c0.1-0.6,0-0.7-0.6-0.6c-0.2,0.1-0.4,0.1-0.6,0.1c-0.6,0.1-1.1-0.3-1.2-0.8s0.2-1.1,0.8-1.2c1-0.2,2-0.5,3-0.7
			c0.5-0.1,1,0.2,1.1,0.6c0.1,0.5,0.1,1,0,1.5c-0.2,0.9-0.6,1.7-0.9,2.5C275,41.8,274.7,42.9,274.4,44.1z"/>
		<path class="st3" d="M281.7,39.5c1-0.1,1.9-0.2,2.9-0.2c0.5,0,1,0,1.4,0.1c0.2,0.1,0.6,0.4,0.6,0.6c0,0.2-0.2,0.6-0.4,0.7
			c-0.2,0.2-0.5,0.3-0.8,0.3c-1.6,0.3-3.3,0.5-4.9,0.7c-1.1,0.2-1.6-0.5-1.3-1.5c0.6-2.1,1.3-4.2,1.9-6.4c0.1-0.2,0.1-0.4,0.2-0.6
			c0.2-0.7,0-0.9-0.7-0.8c-0.3,0-0.5,0.1-0.8,0.1c-0.8,0-1.4-0.4-1.4-1.1c-0.1-0.7,0.4-1.3,1.1-1.4c1.3-0.2,2.6-0.4,3.8-0.6
			c0.6-0.1,1.2,0.3,1.3,0.8c0.1,0.6,0.1,1.3-0.1,1.9c-0.3,1-0.9,2-1.3,3.1C282.6,36.7,282.2,38.1,281.7,39.5z"/>
	</g>
</g>
</svg>
