<?xml version="1.0" encoding="utf-8"?>
<!-- Generator: Adobe Illustrator 25.1.0, SVG Export Plug-In . SVG Version: 6.00 Build 0)  -->
<svg version="1.1" id="Layer_1" xmlns="http://www.w3.org/2000/svg" xmlns:xlink="http://www.w3.org/1999/xlink" x="0px" y="0px"
	 viewBox="0 0 337.2 172.7" style="enable-background:new 0 0 337.2 172.7;" xml:space="preserve">
<style type="text/css">
	.st0{fill:#FFFFFF;}
	.st1{fill:#808080;}
	.st2{fill:#00A878;}
	.st3{fill:#FF9F1A;}
	.st4{fill:#EAA283;}
	.st5{fill:#F4F1EF;}
	.st6{fill:#646464;}
	.st7{fill:#00CDDC;}
	.st8{fill:#BFBFBF;}
</style>
<g>
	<g>
		<path class="st0" d="M0.5,60.8c1.4,26.4-0.1,86.7,13,98.9c25.7,23.7,283.6,8.7,302.9,4.5c30.4-6.6,18-52.2,19.4-79.5
			c1.3-26.8,0.8-74.3-38.4-79.2C228.3-3.1,101,0.1,31.8,3.7C-1.7,5.5-1,32.4,0.5,60.8z"/>
		<path class="st1" d="M32.3,36.4V25.2h1.3v11.2H32.3z"/>
		<path class="st1" d="M36.4,36.4v-6.8h-1.2v-1.1h1.2v-1.4c0-0.8,0.2-1.3,0.6-1.7c0.4-0.3,0.9-0.5,1.7-0.5h0.8V26h-0.6
			c-0.4,0-0.7,0.1-0.9,0.2c-0.2,0.2-0.3,0.5-0.3,0.8v1.3h2v1.1h-2v6.8L36.4,36.4L36.4,36.4z"/>
		<path class="st1" d="M46.4,39.9l2-4.3h-0.5l-3.2-7.2h1.5l2.6,6.2l2.8-6.2H53l-5.2,11.5H46.4z"/>
		<path class="st1" d="M57.3,36.6c-0.8,0-1.4-0.2-2-0.5s-1.1-0.8-1.4-1.5c-0.3-0.6-0.5-1.4-0.5-2.2s0.2-1.6,0.5-2.2s0.8-1.1,1.4-1.4
			c0.6-0.3,1.3-0.5,2-0.5s1.4,0.2,2,0.5s1.1,0.8,1.4,1.4c0.3,0.6,0.5,1.4,0.5,2.2c0,0.8-0.2,1.6-0.5,2.2s-0.8,1.1-1.4,1.5
			C58.7,36.4,58,36.6,57.3,36.6z M57.3,35.4c0.5,0,0.9-0.1,1.3-0.3s0.7-0.6,1-1s0.4-1,0.4-1.7s-0.1-1.2-0.4-1.7
			c-0.2-0.4-0.6-0.8-1-1s-0.8-0.3-1.3-0.3s-0.9,0.1-1.3,0.3s-0.7,0.6-1,1c-0.2,0.5-0.4,1-0.4,1.7s0.1,1.2,0.4,1.7s0.6,0.8,1,1
			S56.8,35.4,57.3,35.4z"/>
		<path class="st1" d="M66,36.6c-0.9,0-1.7-0.3-2.2-0.9c-0.5-0.6-0.8-1.4-0.8-2.6v-4.6h1.3V33c0,1.7,0.7,2.5,2,2.5
			c0.7,0,1.3-0.2,1.7-0.7c0.5-0.5,0.7-1.2,0.7-2.1v-4.1H70v7.9h-1.2l-0.1-1.4c-0.2,0.5-0.6,0.9-1.1,1.2C67.2,36.4,66.6,36.6,66,36.6
			z"/>
		<path class="st1" d="M79.6,36.6c-1,0-1.7-0.2-2.4-0.7s-1-1.1-1.1-1.9h1.4c0.1,0.4,0.3,0.8,0.7,1.1c0.4,0.3,0.8,0.5,1.4,0.5
			s1-0.1,1.2-0.4c0.3-0.2,0.4-0.5,0.4-0.9c0-0.5-0.2-0.8-0.5-1s-0.8-0.3-1.5-0.4c-0.4-0.1-0.8-0.2-1.3-0.4s-0.8-0.4-1.1-0.7
			c-0.3-0.3-0.4-0.7-0.4-1.2c0-0.7,0.3-1.3,0.8-1.7s1.2-0.7,2.1-0.7c0.8,0,1.5,0.2,2.1,0.6c0.5,0.4,0.8,1,0.9,1.8H81
			c0-0.4-0.2-0.7-0.5-0.9s-0.7-0.3-1.2-0.3s-0.8,0.1-1.1,0.3c-0.3,0.2-0.4,0.5-0.4,0.8s0.2,0.6,0.5,0.8s0.8,0.3,1.4,0.5
			c0.5,0.1,1,0.2,1.4,0.4c0.4,0.1,0.8,0.4,1.1,0.7c0.3,0.3,0.4,0.7,0.4,1.3c0,0.7-0.3,1.3-0.8,1.8C81.3,36.3,80.5,36.6,79.6,36.6z"
			/>
		<path class="st1" d="M87.3,36.4c-0.7,0-1.3-0.2-1.7-0.5c-0.4-0.4-0.6-1-0.6-1.9v-4.4h-1.4v-1.1H85l0.2-1.9h1.2v1.9h2.3v1.1h-2.3
			V34c0,0.5,0.1,0.8,0.3,1c0.2,0.2,0.6,0.3,1.1,0.3h0.8v1.1L87.3,36.4L87.3,36.4z"/>
		<path class="st1" d="M93.3,36.6c-0.9,0-1.7-0.3-2.2-0.9c-0.6-0.6-0.8-1.4-0.8-2.6v-4.6h1.3V33c0,1.7,0.7,2.5,2,2.5
			c0.7,0,1.3-0.2,1.7-0.7c0.4-0.5,0.7-1.2,0.7-2.1v-4.1h1.3v7.9h-1.2L96,35.1c-0.2,0.5-0.6,0.9-1.1,1.2
			C94.4,36.4,93.9,36.6,93.3,36.6z"/>
		<path class="st1" d="M103.1,36.6c-0.8,0-1.5-0.2-2.1-0.5c-0.6-0.4-1-0.9-1.4-1.5s-0.5-1.3-0.5-2.1s0.2-1.5,0.5-2.1
			s0.8-1.1,1.4-1.5s1.3-0.5,2.1-0.5c0.7,0,1.2,0.1,1.7,0.4s0.9,0.6,1.2,1.1V25h1.3v11.5h-1.2l-0.1-1.4c-0.3,0.4-0.6,0.7-1.1,1
			C104.5,36.4,103.9,36.6,103.1,36.6z M103.3,35.4c0.5,0,1-0.1,1.4-0.4c0.4-0.2,0.7-0.6,1-1.1c0.2-0.4,0.3-1,0.3-1.6
			s-0.1-1.1-0.3-1.6c-0.2-0.4-0.6-0.8-1-1s-0.9-0.4-1.4-0.4s-1,0.1-1.4,0.4c-0.4,0.2-0.7,0.6-1,1c-0.2,0.5-0.3,1-0.3,1.6
			c0,0.6,0.1,1.1,0.3,1.6c0.2,0.5,0.6,0.8,1,1.1S102.8,35.4,103.3,35.4z"/>
		<path class="st1" d="M110.4,39.9l2-4.3h-0.5l-3.1-7.2h1.5l2.6,6.2l2.8-6.2h1.4l-5.2,11.5H110.4z"/>
		<path class="st1" d="M123.5,26.7c-0.3,0-0.5-0.1-0.7-0.3s-0.3-0.4-0.3-0.7s0.1-0.5,0.3-0.6s0.4-0.3,0.7-0.3s0.5,0.1,0.7,0.3
			s0.3,0.4,0.3,0.6c0,0.3-0.1,0.5-0.3,0.7S123.8,26.7,123.5,26.7z M122.9,36.4v-7.9h1.3v7.9H122.9z"/>
		<path class="st1" d="M126.5,36.4v-7.9h1.2l0.1,1.4c0.3-0.5,0.6-0.9,1.1-1.2s1-0.4,1.6-0.4c0.9,0,1.7,0.3,2.2,0.9
			c0.6,0.6,0.8,1.5,0.8,2.6v4.6h-1.3v-4.5c0-1.6-0.7-2.5-2.1-2.5c-0.7,0-1.2,0.2-1.7,0.7s-0.7,1.2-0.7,2.1v4.1L126.5,36.4
			L126.5,36.4z"/>
		<path class="st1" d="M144.2,36.6c-0.6,0-1.2-0.1-1.7-0.4c-0.5-0.3-0.9-0.6-1.2-1.1l-0.1,1.3H140V24.9h1.3v4.9
			c0.3-0.4,0.6-0.7,1.1-1s1.1-0.5,1.8-0.5c0.8,0,1.5,0.2,2.1,0.5c0.6,0.4,1,0.9,1.4,1.5c0.3,0.6,0.5,1.3,0.5,2.1s-0.2,1.5-0.5,2.1
			s-0.8,1.1-1.4,1.5C145.6,36.4,145,36.6,144.2,36.6z M144,35.4c0.5,0,1-0.1,1.4-0.4s0.7-0.6,1-1.1c0.2-0.4,0.4-1,0.4-1.6
			s-0.1-1.1-0.4-1.6c-0.2-0.4-0.5-0.8-1-1s-0.9-0.4-1.4-0.4s-1,0.1-1.4,0.4c-0.4,0.2-0.7,0.6-1,1c-0.2,0.5-0.4,1-0.4,1.6
			c0,0.6,0.1,1.1,0.4,1.6c0.2,0.5,0.6,0.8,1,1.1S143.5,35.4,144,35.4z"/>
		<path class="st1" d="M153.6,36.6c-0.8,0-1.4-0.2-2-0.5s-1.1-0.8-1.4-1.4c-0.3-0.6-0.5-1.4-0.5-2.2s0.2-1.6,0.5-2.2
			s0.8-1.1,1.4-1.5c0.6-0.3,1.3-0.5,2.1-0.5s1.4,0.2,2,0.5c0.6,0.4,1,0.8,1.3,1.4s0.5,1.2,0.5,1.8c0,0.1,0,0.2,0,0.4
			c0,0.1,0,0.2,0,0.4H151c0,0.6,0.2,1.1,0.4,1.5s0.6,0.7,0.9,0.9c0.4,0.2,0.8,0.3,1.2,0.3c0.6,0,1-0.1,1.4-0.4
			c0.4-0.3,0.6-0.6,0.8-1h1.3c-0.2,0.7-0.6,1.4-1.2,1.8C155.3,36.3,154.5,36.6,153.6,36.6z M153.6,29.4c-0.6,0-1.2,0.2-1.7,0.6
			s-0.8,1-0.9,1.7h5c0-0.7-0.3-1.3-0.7-1.7C154.8,29.6,154.2,29.4,153.6,29.4z"/>
		<path class="st1" d="M162.7,36.6c-0.8,0-1.5-0.2-2.1-0.5s-1.1-0.9-1.4-1.5s-0.5-1.3-0.5-2.1s0.2-1.5,0.5-2.1s0.8-1.1,1.4-1.5
			c0.6-0.4,1.3-0.5,2.1-0.5c0.7,0,1.2,0.1,1.7,0.4s0.9,0.6,1.2,1.1V25h1.3v11.5h-1.2l-0.1-1.3c-0.3,0.4-0.6,0.7-1.1,1
			C164,36.4,163.4,36.6,162.7,36.6z M162.8,35.4c0.5,0,1-0.1,1.4-0.4s0.7-0.6,1-1.1c0.2-0.4,0.3-1,0.3-1.6s-0.1-1.1-0.3-1.6
			c-0.2-0.4-0.6-0.8-1-1s-0.9-0.4-1.4-0.4s-1,0.1-1.4,0.4c-0.4,0.2-0.7,0.6-1,1c-0.2,0.5-0.3,1-0.3,1.6c0,0.6,0.1,1.1,0.3,1.6
			s0.6,0.8,1,1.1S162.3,35.4,162.8,35.4z"/>
		<path class="st1" d="M33.1,61.9l2-4.3h-0.5l-3.2-7.2h1.5l2.6,6.2l2.8-6.2h1.4l-5.2,11.5H33.1z"/>
		<path class="st1" d="M44,58.6c-0.8,0-1.4-0.2-2-0.5s-1.1-0.8-1.4-1.5c-0.4-0.6-0.5-1.4-0.5-2.2s0.2-1.6,0.5-2.2
			c0.4-0.6,0.8-1.1,1.4-1.4c0.6-0.3,1.3-0.5,2-0.5c0.8,0,1.4,0.2,2,0.5s1.1,0.8,1.4,1.4s0.5,1.4,0.5,2.2s-0.2,1.6-0.5,2.2
			c-0.3,0.6-0.8,1.1-1.4,1.5C45.4,58.4,44.8,58.6,44,58.6z M44,57.4c0.5,0,0.9-0.1,1.3-0.3c0.4-0.2,0.7-0.6,1-1s0.4-1,0.4-1.7
			s-0.1-1.2-0.4-1.7c-0.2-0.4-0.6-0.8-1-1s-0.8-0.3-1.3-0.3s-0.9,0.1-1.3,0.3c-0.4,0.2-0.7,0.6-1,1c-0.2,0.5-0.4,1-0.4,1.7
			s0.1,1.2,0.4,1.7s0.6,0.8,1,1C43.1,57.3,43.6,57.4,44,57.4z"/>
		<path class="st1" d="M52.8,58.6c-0.9,0-1.7-0.3-2.2-0.9c-0.5-0.6-0.8-1.4-0.8-2.6v-4.6H51V55c0,1.7,0.7,2.5,2,2.5
			c0.7,0,1.3-0.2,1.7-0.7s0.7-1.2,0.7-2.1v-4.1h1.3v7.9h-1.2l-0.1-1.4c-0.2,0.5-0.6,0.9-1.1,1.2C53.9,58.4,53.4,58.6,52.8,58.6z"/>
		<path class="st1" d="M63.3,58.4v-7.9h1.2l0.1,1.2c0.3-0.4,0.6-0.8,1-1s0.9-0.4,1.4-0.4c0.6,0,1.2,0.1,1.6,0.4
			c0.5,0.2,0.8,0.7,1.1,1.2c0.3-0.5,0.7-0.9,1.1-1.1c0.5-0.3,1-0.4,1.6-0.4c0.9,0,1.7,0.3,2.3,0.9c0.6,0.6,0.8,1.4,0.8,2.6v4.6h-1.3
			V54c0-0.8-0.2-1.4-0.5-1.9c-0.3-0.4-0.8-0.6-1.4-0.6s-1.2,0.2-1.6,0.7s-0.6,1.2-0.6,2.1v4.1h-1.3v-4.5c0-0.8-0.2-1.4-0.5-1.9
			c-0.3-0.4-0.8-0.6-1.4-0.6s-1.2,0.2-1.6,0.7s-0.6,1.2-0.6,2.1v4.1L63.3,58.4L63.3,58.4z"/>
		<path class="st1" d="M80.2,58.6c-0.7,0-1.2-0.1-1.7-0.3c-0.4-0.2-0.8-0.5-1-0.9s-0.3-0.8-0.3-1.2c0-0.8,0.3-1.4,0.9-1.9
			c0.6-0.4,1.5-0.7,2.5-0.7h2.1v-0.1c0-0.7-0.2-1.2-0.5-1.6s-0.9-0.5-1.5-0.5c-0.5,0-1,0.1-1.4,0.4c-0.4,0.3-0.6,0.6-0.7,1.1h-1.4
			c0-0.6,0.2-1.1,0.6-1.5c0.3-0.4,0.8-0.7,1.3-0.9s1-0.3,1.6-0.3c1.1,0,1.9,0.3,2.5,0.9c0.6,0.6,0.8,1.4,0.8,2.4v4.9h-1L82.9,57
			c-0.2,0.4-0.6,0.8-1,1.1S80.9,58.6,80.2,58.6z M80.4,57.4c0.5,0,0.9-0.1,1.3-0.4c0.4-0.3,0.7-0.6,0.8-1c0.2-0.4,0.3-0.9,0.3-1.3
			l0,0h-2c-0.8,0-1.3,0.1-1.7,0.4s-0.5,0.6-0.5,1s0.1,0.8,0.5,1C79.4,57.3,79.9,57.4,80.4,57.4z"/>
		<path class="st1" d="M86.9,61.9l2-4.3h-0.5l-3.2-7.2h1.5l2.6,6.2l2.8-6.2h1.4l-5.2,11.5H86.9z"/>
		<path class="st1" d="M101.8,58.6c-0.7,0-1.2-0.1-1.6-0.3s-0.8-0.5-1-0.9s-0.3-0.8-0.3-1.2c0-0.8,0.3-1.4,0.9-1.9s1.5-0.7,2.5-0.7
			h2.1v-0.1c0-0.7-0.2-1.2-0.5-1.6s-0.8-0.5-1.5-0.5c-0.5,0-1,0.1-1.3,0.4c-0.4,0.3-0.6,0.6-0.7,1.1H99c0-0.6,0.2-1.1,0.6-1.5
			c0.3-0.4,0.8-0.7,1.3-0.9s1-0.3,1.6-0.3c1.1,0,1.9,0.3,2.5,0.9c0.6,0.6,0.8,1.4,0.8,2.4v4.9h-1.2l-0.1-1.4c-0.2,0.4-0.6,0.8-1,1.1
			C103.1,58.4,102.5,58.6,101.8,58.6z M102,57.4c0.5,0,0.9-0.1,1.3-0.4c0.4-0.3,0.6-0.6,0.8-1c0.2-0.4,0.3-0.9,0.3-1.3l0,0h-2
			c-0.8,0-1.3,0.1-1.7,0.4s-0.5,0.6-0.5,1s0.2,0.8,0.5,1C101,57.3,101.4,57.4,102,57.4z"/>
		<path class="st1" d="M110.8,58.6c-1,0-1.7-0.2-2.4-0.7s-1-1.1-1.1-1.9h1.4c0.1,0.4,0.3,0.8,0.7,1.1c0.4,0.3,0.8,0.5,1.4,0.5
			s1-0.1,1.3-0.4c0.3-0.2,0.4-0.5,0.4-0.9c0-0.5-0.2-0.8-0.5-1s-0.8-0.3-1.5-0.4c-0.4-0.1-0.8-0.2-1.3-0.4s-0.8-0.4-1.1-0.7
			c-0.3-0.3-0.4-0.7-0.4-1.2c0-0.7,0.3-1.3,0.8-1.7s1.2-0.7,2.1-0.7c0.8,0,1.5,0.2,2.1,0.6c0.5,0.4,0.8,1,0.9,1.8h-1.3
			c-0.1-0.4-0.2-0.7-0.5-0.9s-0.7-0.3-1.2-0.3s-0.8,0.1-1.1,0.3c-0.3,0.2-0.4,0.5-0.4,0.8s0.2,0.6,0.5,0.8s0.8,0.3,1.4,0.5
			c0.5,0.1,1,0.2,1.4,0.4s0.8,0.4,1.1,0.7s0.4,0.7,0.4,1.3c0,0.7-0.3,1.3-0.8,1.8C112.5,58.3,111.8,58.6,110.8,58.6z"/>
		<path class="st1" d="M118.8,58.6c-0.9,0-1.7-0.2-2.4-0.7c-0.6-0.5-1-1.1-1.1-1.9h1.4c0.1,0.4,0.3,0.8,0.7,1.1s0.8,0.5,1.5,0.5
			c0.6,0,1-0.1,1.2-0.4c0.3-0.2,0.4-0.5,0.4-0.9c0-0.5-0.2-0.8-0.5-1s-0.8-0.3-1.5-0.4c-0.4-0.1-0.9-0.2-1.3-0.4s-0.8-0.4-1.1-0.7
			s-0.4-0.7-0.4-1.2c0-0.7,0.3-1.3,0.8-1.7s1.2-0.7,2.1-0.7c0.8,0,1.5,0.2,2.1,0.6c0.5,0.4,0.8,1,0.9,1.8h-1.3
			c-0.1-0.4-0.2-0.7-0.5-0.9s-0.7-0.3-1.2-0.3s-0.9,0.1-1.1,0.3c-0.3,0.2-0.4,0.5-0.4,0.8s0.2,0.6,0.5,0.8s0.8,0.3,1.4,0.5
			c0.5,0.1,1,0.2,1.4,0.4s0.8,0.4,1.1,0.7s0.4,0.7,0.4,1.3c0,0.7-0.3,1.3-0.8,1.8C120.5,58.3,119.8,58.6,118.8,58.6z"/>
		<path class="st1" d="M127.4,58.6c-0.8,0-1.4-0.2-2-0.5s-1.1-0.8-1.4-1.5c-0.4-0.6-0.5-1.4-0.5-2.2s0.2-1.6,0.5-2.2
			s0.8-1.1,1.4-1.4c0.6-0.3,1.3-0.5,2-0.5c0.8,0,1.4,0.2,2,0.5s1.1,0.8,1.4,1.4c0.4,0.6,0.5,1.4,0.5,2.2s-0.2,1.6-0.5,2.2
			c-0.4,0.6-0.8,1.1-1.4,1.5C128.8,58.4,128.1,58.6,127.4,58.6z M127.4,57.4c0.5,0,0.9-0.1,1.3-0.3s0.7-0.6,1-1s0.4-1,0.4-1.7
			s-0.1-1.2-0.4-1.7c-0.2-0.4-0.6-0.8-0.9-1c-0.4-0.2-0.8-0.3-1.3-0.3s-0.9,0.1-1.3,0.3s-0.7,0.6-1,1c-0.2,0.5-0.4,1-0.4,1.7
			s0.1,1.2,0.4,1.7s0.6,0.8,0.9,1C126.5,57.3,126.9,57.4,127.4,57.4z"/>
		<path class="st1" d="M136.9,58.6c-0.8,0-1.4-0.2-2-0.5s-1.1-0.8-1.4-1.5c-0.3-0.6-0.5-1.4-0.5-2.2s0.2-1.6,0.5-2.2
			c0.4-0.6,0.8-1.1,1.4-1.5c0.6-0.3,1.3-0.5,2-0.5c0.9,0,1.7,0.2,2.4,0.7s1.1,1.2,1.2,2h-1.4c-0.1-0.5-0.4-0.9-0.8-1.1
			c-0.4-0.3-0.9-0.4-1.5-0.4c-0.4,0-0.9,0.1-1.3,0.3c-0.4,0.2-0.7,0.6-1,1s-0.4,1-0.4,1.7s0.1,1.2,0.4,1.7c0.2,0.5,0.6,0.8,1,1
			s0.8,0.3,1.3,0.3c0.6,0,1-0.1,1.5-0.4c0.4-0.3,0.7-0.7,0.8-1.2h1.4c-0.2,0.8-0.6,1.4-1.2,1.9C138.6,58.3,137.8,58.6,136.9,58.6z"
			/>
		<path class="st1" d="M143.2,48.7c-0.3,0-0.5-0.1-0.7-0.3s-0.3-0.4-0.3-0.7s0.1-0.5,0.3-0.6s0.4-0.3,0.7-0.3s0.5,0.1,0.7,0.3
			s0.3,0.4,0.3,0.6c0,0.3-0.1,0.5-0.3,0.7S143.4,48.7,143.2,48.7z M142.5,58.4v-7.9h1.3v7.9H142.5z"/>
		<path class="st1" d="M148.8,58.6c-0.7,0-1.2-0.1-1.6-0.3c-0.4-0.2-0.8-0.5-1-0.9s-0.3-0.8-0.3-1.2c0-0.8,0.3-1.4,0.9-1.9
			c0.6-0.4,1.5-0.7,2.5-0.7h2.1v-0.1c0-0.7-0.2-1.2-0.5-1.6s-0.8-0.5-1.5-0.5c-0.5,0-1,0.1-1.4,0.4c-0.4,0.3-0.6,0.6-0.7,1.1h-1.4
			c0.1-0.6,0.2-1.1,0.6-1.5c0.3-0.4,0.8-0.7,1.3-0.9s1-0.3,1.6-0.3c1.1,0,1.9,0.3,2.5,0.9c0.6,0.6,0.8,1.4,0.8,2.4v4.9h-1.2
			l-0.1-1.4c-0.2,0.4-0.6,0.8-1,1.1C150.1,58.4,149.6,58.6,148.8,58.6z M149.1,57.4c0.5,0,0.9-0.1,1.3-0.4c0.4-0.3,0.7-0.6,0.8-1
			c0.2-0.4,0.3-0.9,0.3-1.3l0,0h-2c-0.8,0-1.4,0.1-1.7,0.4c-0.3,0.3-0.5,0.6-0.5,1s0.2,0.8,0.5,1C148.1,57.3,148.5,57.4,149.1,57.4z
			"/>
		<path class="st1" d="M157.8,58.4c-0.7,0-1.3-0.2-1.7-0.5c-0.4-0.4-0.6-1-0.6-1.9v-4.4h-1.4v-1.1h1.4l0.2-1.9h1.2v1.9h2.3v1.1h-2.3
			V56c0,0.5,0.1,0.8,0.3,1s0.6,0.3,1.1,0.3h0.8v1.1L157.8,58.4L157.8,58.4z"/>
		<path class="st1" d="M164.2,58.6c-0.8,0-1.4-0.2-2-0.5s-1-0.8-1.4-1.4c-0.3-0.6-0.5-1.4-0.5-2.2s0.2-1.6,0.5-2.2
			c0.3-0.6,0.8-1.1,1.4-1.5c0.6-0.3,1.3-0.5,2.1-0.5s1.4,0.2,2,0.5c0.6,0.4,1,0.8,1.3,1.4c0.3,0.6,0.4,1.2,0.4,1.8
			c0,0.1,0,0.2,0,0.4c0,0.1,0,0.2,0,0.4h-6.3c0,0.6,0.2,1.1,0.4,1.5s0.6,0.7,0.9,0.9c0.4,0.2,0.8,0.3,1.2,0.3c0.6,0,1-0.1,1.4-0.4
			c0.4-0.3,0.6-0.6,0.8-1h1.3c-0.2,0.7-0.6,1.4-1.2,1.8C165.9,58.3,165.1,58.6,164.2,58.6z M164.2,51.4c-0.6,0-1.2,0.2-1.7,0.6
			c-0.5,0.4-0.8,1-0.9,1.7h5c0-0.7-0.3-1.3-0.7-1.7C165.4,51.6,164.8,51.4,164.2,51.4z"/>
		<path class="st1" d="M36.5,80.6c-0.6,0-1.2-0.1-1.7-0.4s-0.9-0.6-1.2-1.1l-0.1,1.3h-1.2V68.9h1.3v4.9c0.3-0.4,0.6-0.7,1.1-1
			s1.1-0.5,1.8-0.5c0.8,0,1.5,0.2,2.1,0.5c0.6,0.4,1,0.9,1.4,1.5c0.3,0.6,0.5,1.3,0.5,2.1s-0.2,1.5-0.5,2.1s-0.8,1.1-1.4,1.5
			S37.3,80.6,36.5,80.6z M36.3,79.4c0.5,0,1-0.1,1.4-0.4c0.4-0.2,0.7-0.6,1-1.1c0.2-0.4,0.4-1,0.4-1.6s-0.1-1.1-0.4-1.6
			c-0.2-0.4-0.6-0.8-1-1s-0.9-0.4-1.4-0.4s-1,0.1-1.4,0.4s-0.7,0.6-1,1c-0.2,0.5-0.3,1-0.3,1.6s0.1,1.1,0.3,1.6s0.5,0.8,1,1.1
			C35.3,79.3,35.8,79.4,36.3,79.4z"/>
		<path class="st1" d="M45.9,80.6c-0.8,0-1.4-0.2-2-0.5s-1-0.8-1.4-1.4c-0.3-0.6-0.5-1.4-0.5-2.2s0.2-1.6,0.5-2.2s0.8-1.1,1.4-1.5
			c0.6-0.3,1.3-0.5,2.1-0.5s1.4,0.2,2,0.5c0.6,0.4,1,0.8,1.3,1.4s0.5,1.2,0.5,1.8c0,0.1,0,0.2,0,0.4c0,0.1,0,0.2,0,0.4h-6.3
			c0,0.6,0.2,1.1,0.4,1.5s0.6,0.7,0.9,0.9c0.4,0.2,0.8,0.3,1.2,0.3c0.5,0,1-0.1,1.4-0.4s0.6-0.6,0.8-1h1.3c-0.2,0.7-0.6,1.4-1.2,1.8
			C47.6,80.3,46.8,80.6,45.9,80.6z M45.9,73.4c-0.6,0-1.2,0.2-1.7,0.6s-0.8,1-0.9,1.7h5c0-0.7-0.3-1.3-0.7-1.7
			C47.1,73.6,46.5,73.4,45.9,73.4z"/>
		<path class="st1" d="M55,80.6c-0.8,0-1.5-0.2-2.1-0.5c-0.6-0.4-1.1-0.9-1.4-1.5S51,77.3,51,76.5s0.2-1.5,0.5-2.1s0.8-1.1,1.4-1.5
			s1.3-0.5,2.1-0.5c0.7,0,1.2,0.1,1.7,0.4s0.9,0.6,1.2,1.1V69h1.3v11.5H58l-0.1-1.3c-0.3,0.4-0.6,0.7-1.1,1
			C56.3,80.4,55.7,80.6,55,80.6z M55.1,79.4c0.5,0,1-0.1,1.4-0.4c0.4-0.2,0.7-0.6,1-1.1c0.2-0.4,0.3-1,0.3-1.6s-0.1-1.1-0.3-1.6
			c-0.2-0.4-0.6-0.8-1-1s-0.9-0.4-1.4-0.4s-1,0.1-1.4,0.4c-0.4,0.2-0.7,0.6-1,1c-0.2,0.5-0.3,1-0.3,1.6s0.1,1.1,0.3,1.6
			s0.5,0.8,1,1.1C54.2,79.3,54.6,79.4,55.1,79.4z"/>
		<path class="st1" d="M67.3,80.4L65,72.5h1.3l1.7,6.2l1.9-6.2h1.5l1.9,6.2l1.7-6.2h1.4l-2.3,7.9h-1.4l-1.9-6.5l-1.9,6.5H67.3z"/>
		<path class="st1" d="M78.6,70.7c-0.3,0-0.5-0.1-0.7-0.3s-0.3-0.4-0.3-0.7s0.1-0.5,0.3-0.6c0.2-0.2,0.4-0.3,0.7-0.3
			s0.5,0.1,0.7,0.3s0.3,0.4,0.3,0.6c0,0.3-0.1,0.5-0.3,0.7C79,70.6,78.8,70.7,78.6,70.7z M77.9,80.4v-7.9h1.3v7.9H77.9z"/>
		<path class="st1" d="M84.7,80.4c-0.7,0-1.3-0.2-1.7-0.5c-0.4-0.4-0.6-1-0.6-1.9v-4.4H81v-1.1h1.4l0.2-1.9h1.2v1.9h2.3v1.1h-2.3V78
			c0,0.5,0.1,0.8,0.3,1c0.2,0.2,0.6,0.3,1.1,0.3H86v1.1H84.7L84.7,80.4z"/>
		<path class="st1" d="M87.8,80.4V68.9h1.3v4.9c0.3-0.5,0.6-0.9,1.1-1.1c0.5-0.3,1-0.4,1.6-0.4c0.9,0,1.7,0.3,2.2,0.9
			c0.6,0.6,0.8,1.5,0.8,2.6v4.6h-1.3v-4.5c0-1.6-0.7-2.5-2-2.5c-0.7,0-1.3,0.2-1.7,0.7c-0.5,0.5-0.7,1.2-0.7,2.1v4.1L87.8,80.4
			L87.8,80.4z"/>
		<path class="st1" d="M104.3,80.4c-0.7,0-1.3-0.2-1.7-0.5c-0.4-0.4-0.6-1-0.6-1.9v-4.4h-1.4v-1.1h1.4l0.2-1.9h1.2v1.9h2.3v1.1h-2.3
			V78c0,0.5,0.1,0.8,0.3,1c0.2,0.2,0.6,0.3,1.1,0.3h0.8v1.1H104.3L104.3,80.4z"/>
		<path class="st1" d="M107.3,80.4V68.9h1.3v4.9c0.3-0.5,0.6-0.9,1.1-1.1c0.5-0.3,1-0.4,1.6-0.4c0.9,0,1.7,0.3,2.2,0.9
			c0.6,0.6,0.8,1.5,0.8,2.6v4.6H113v-4.5c0-1.6-0.7-2.5-2-2.5c-0.7,0-1.3,0.2-1.7,0.7c-0.5,0.5-0.7,1.2-0.7,2.1v4.1L107.3,80.4
			L107.3,80.4z"/>
		<path class="st1" d="M120.1,80.6c-0.8,0-1.4-0.2-2-0.5s-1.1-0.8-1.4-1.4s-0.5-1.4-0.5-2.2s0.2-1.6,0.5-2.2s0.8-1.1,1.4-1.5
			c0.6-0.3,1.3-0.5,2.1-0.5s1.4,0.2,2,0.5c0.6,0.4,1,0.8,1.3,1.4s0.4,1.2,0.4,1.8c0,0.1,0,0.2,0,0.4c0,0.1,0,0.2,0,0.4h-6.3
			c0,0.6,0.2,1.1,0.4,1.5s0.6,0.7,0.9,0.9c0.4,0.2,0.8,0.3,1.2,0.3c0.5,0,1-0.1,1.4-0.4s0.6-0.6,0.8-1h1.3c-0.2,0.7-0.6,1.4-1.2,1.8
			C121.8,80.3,121,80.6,120.1,80.6z M120.1,73.4c-0.6,0-1.2,0.2-1.7,0.6s-0.8,1-0.9,1.7h5c0-0.7-0.3-1.3-0.7-1.7
			C121.3,73.6,120.8,73.4,120.1,73.4z"/>
		<path class="st1" d="M38.2,138.2c-0.8,0-1.4-0.2-2-0.5s-1.1-0.8-1.4-1.5c-0.3-0.6-0.5-1.4-0.5-2.2s0.2-1.6,0.5-2.2
			c0.3-0.6,0.8-1.1,1.4-1.5c0.6-0.3,1.3-0.5,2-0.5s1.4,0.2,2,0.5s1.1,0.8,1.4,1.5c0.3,0.6,0.5,1.4,0.5,2.2s-0.2,1.6-0.5,2.2
			c-0.4,0.6-0.8,1.1-1.4,1.5C39.6,138,38.9,138.2,38.2,138.2z M38.2,137c0.5,0,0.9-0.1,1.3-0.3s0.7-0.6,1-1c0.2-0.4,0.4-1,0.4-1.7
			s-0.1-1.2-0.4-1.7c-0.2-0.4-0.6-0.8-1-1s-0.8-0.3-1.3-0.3s-0.9,0.1-1.3,0.3c-0.4,0.2-0.7,0.6-1,1s-0.4,1-0.4,1.7s0.1,1.2,0.4,1.7
			s0.6,0.8,1,1S37.8,137,38.2,137z"/>
		<path class="st1" d="M44.5,138v-6.8h-1.2v-1.1h1.2v-1.4c0-0.8,0.2-1.3,0.6-1.7c0.4-0.4,0.9-0.5,1.7-0.5h0.8v1.1H47
			c-0.4,0-0.7,0.1-0.9,0.2c-0.2,0.2-0.3,0.4-0.3,0.8v1.3h2v1.1h-2v6.8L44.5,138L44.5,138z"/>
		<path class="st1" d="M56.3,138.2c-0.7,0-1.2-0.1-1.6-0.3c-0.4-0.2-0.8-0.5-1-0.9s-0.3-0.8-0.3-1.2c0-0.8,0.3-1.4,0.9-1.9
			s1.5-0.7,2.5-0.7h2.1v-0.1c0-0.7-0.2-1.2-0.5-1.6s-0.8-0.5-1.5-0.5c-0.5,0-1,0.1-1.3,0.4c-0.4,0.3-0.6,0.6-0.7,1.1h-1.4
			c0.1-0.6,0.2-1.1,0.6-1.5c0.3-0.4,0.8-0.7,1.3-0.9s1-0.3,1.6-0.3c1.1,0,1.9,0.3,2.5,0.9s0.8,1.4,0.8,2.4v4.9h-1.2l-0.1-1.4
			c-0.2,0.5-0.5,0.8-1,1.1C57.6,138,57,138.2,56.3,138.2z M56.5,137c0.5,0,1-0.1,1.3-0.4c0.4-0.3,0.7-0.6,0.8-1s0.3-0.9,0.3-1.3l0,0
			h-2c-0.8,0-1.4,0.1-1.7,0.4c-0.3,0.3-0.5,0.6-0.5,1s0.2,0.8,0.5,1C55.5,136.9,55.9,137,56.5,137z"/>
		<path class="st1" d="M65.3,138.2c-1,0-1.7-0.2-2.4-0.7c-0.6-0.5-1-1.1-1.1-1.9h1.4c0.1,0.4,0.3,0.8,0.7,1.1
			c0.4,0.3,0.8,0.5,1.4,0.5s1-0.1,1.2-0.4c0.3-0.2,0.4-0.5,0.4-0.9c0-0.5-0.2-0.8-0.5-1s-0.8-0.3-1.5-0.4c-0.4-0.1-0.8-0.2-1.3-0.4
			c-0.5-0.2-0.8-0.4-1.1-0.7s-0.4-0.7-0.4-1.2c0-0.7,0.3-1.3,0.8-1.7s1.2-0.7,2.1-0.7c0.8,0,1.5,0.2,2.1,0.6c0.5,0.4,0.8,1,0.9,1.8
			h-1.3c0-0.4-0.2-0.7-0.5-0.9S65.5,131,65,131s-0.8,0.1-1.1,0.3c-0.3,0.2-0.4,0.5-0.4,0.8s0.2,0.6,0.5,0.8c0.3,0.2,0.8,0.3,1.4,0.5
			c0.5,0.1,1,0.2,1.4,0.4s0.8,0.4,1.1,0.7c0.3,0.3,0.4,0.7,0.4,1.3c0,0.7-0.3,1.3-0.8,1.8C67,137.9,66.3,138.2,65.3,138.2z"/>
		<path class="st1" d="M73.3,138.2c-1,0-1.7-0.2-2.4-0.7c-0.6-0.5-1-1.1-1.1-1.9h1.4c0.1,0.4,0.3,0.8,0.7,1.1
			c0.4,0.3,0.8,0.5,1.4,0.5s1-0.1,1.2-0.4c0.3-0.2,0.4-0.5,0.4-0.9c0-0.5-0.2-0.8-0.5-1s-0.8-0.3-1.5-0.4c-0.4-0.1-0.8-0.2-1.3-0.4
			s-0.8-0.4-1.1-0.7c-0.3-0.3-0.4-0.7-0.4-1.2c0-0.7,0.3-1.3,0.8-1.7s1.2-0.7,2.1-0.7c0.8,0,1.5,0.2,2.1,0.6c0.5,0.4,0.8,1,0.9,1.8
			h-1.3c0-0.4-0.2-0.7-0.5-0.9S73.5,131,73,131s-0.8,0.1-1.1,0.3s-0.4,0.5-0.4,0.8s0.2,0.6,0.5,0.8s0.8,0.3,1.4,0.5
			c0.5,0.1,1,0.2,1.4,0.4s0.8,0.4,1.1,0.7c0.3,0.3,0.4,0.7,0.4,1.3c0,0.7-0.3,1.3-0.8,1.8C75,137.9,74.3,138.2,73.3,138.2z"/>
		<path class="st1" d="M79.1,128.3c-0.3,0-0.5-0.1-0.7-0.3c-0.2-0.2-0.3-0.4-0.3-0.7s0.1-0.5,0.3-0.6c0.2-0.2,0.4-0.3,0.7-0.3
			s0.5,0.1,0.7,0.3s0.3,0.4,0.3,0.6c0,0.3-0.1,0.5-0.3,0.7C79.6,128.2,79.4,128.3,79.1,128.3z M78.4,138v-7.9h1.3v7.9H78.4z"/>
		<path class="st1" d="M85.2,135.5c-0.4,0-0.9-0.1-1.2-0.2l-0.8,0.8c0.1,0.1,0.3,0.2,0.4,0.2c0.2,0.1,0.4,0.1,0.8,0.2
			s0.8,0.1,1.4,0.1c1.1,0.1,1.8,0.3,2.3,0.7s0.7,1,0.7,1.6c0,0.5-0.1,0.9-0.4,1.3c-0.2,0.4-0.6,0.8-1.2,1c-0.5,0.3-1.2,0.4-2,0.4
			c-0.7,0-1.3-0.1-1.9-0.3s-1-0.5-1.3-0.9s-0.5-0.9-0.5-1.4c0-0.3,0.1-0.6,0.2-1c0.2-0.4,0.5-0.7,0.9-1c-0.2-0.1-0.4-0.2-0.6-0.3
			s-0.3-0.2-0.5-0.4v-0.2l1.4-1.3c-0.6-0.5-0.9-1.2-0.9-2.1c0-0.5,0.1-1,0.4-1.4c0.2-0.4,0.6-0.8,1.1-1s1-0.4,1.7-0.4
			c0.5,0,0.9,0.1,1.2,0.2h2.9v1l-1.5,0.1c0.3,0.4,0.5,1,0.5,1.6c0,0.5-0.1,1-0.4,1.4c-0.2,0.4-0.6,0.8-1.1,1
			C86.5,135.4,85.9,135.5,85.2,135.5z M82.9,139c0,0.5,0.2,0.9,0.7,1.2c0.4,0.3,1,0.4,1.7,0.4s1.2-0.1,1.6-0.4s0.6-0.7,0.6-1.1
			c0-0.3-0.1-0.6-0.4-0.9s-0.8-0.4-1.5-0.4c-0.6,0-1.1-0.1-1.5-0.2c-0.4,0.2-0.7,0.5-0.9,0.8C83,138.5,82.9,138.8,82.9,139z
			 M85.2,134.4c0.6,0,1-0.2,1.3-0.4c0.3-0.3,0.5-0.7,0.5-1.3c0-0.5-0.2-1-0.5-1.3s-0.8-0.4-1.3-0.4c-0.6,0-1,0.2-1.4,0.4
			c-0.3,0.3-0.5,0.7-0.5,1.3s0.2,1,0.5,1.3C84.2,134.2,84.7,134.4,85.2,134.4z"/>
		<path class="st1" d="M90.9,138v-7.9h1.2l0.1,1.4c0.3-0.5,0.6-0.9,1.1-1.2s1-0.4,1.6-0.4c0.9,0,1.7,0.3,2.2,0.9
			c0.6,0.6,0.8,1.4,0.8,2.6v4.6h-1.3v-4.5c0-1.6-0.7-2.5-2.1-2.5c-0.7,0-1.2,0.2-1.7,0.7s-0.7,1.2-0.7,2.1v4.1L90.9,138L90.9,138z"
			/>
		<path class="st1" d="M100.1,138v-7.9h1.2l0.1,1.1c0.3-0.4,0.6-0.8,1-1s0.9-0.4,1.4-0.4c0.6,0,1.2,0.1,1.6,0.4
			c0.5,0.2,0.8,0.6,1.1,1.2c0.3-0.5,0.7-0.9,1.1-1.1s1-0.4,1.6-0.4c0.9,0,1.7,0.3,2.3,0.9c0.6,0.6,0.9,1.4,0.9,2.6v4.6h-1.3v-4.5
			c0-0.8-0.2-1.4-0.5-1.9c-0.3-0.4-0.8-0.6-1.4-0.6s-1.2,0.2-1.6,0.7s-0.6,1.2-0.6,2.1v4.1h-1.3v-4.5c0-0.8-0.2-1.4-0.5-1.9
			s-0.8-0.6-1.4-0.6s-1.2,0.2-1.6,0.7s-0.6,1.2-0.6,2.1v4.1L100.1,138L100.1,138z"/>
		<path class="st1" d="M118,138.2c-0.8,0-1.4-0.2-2-0.5c-0.6-0.4-1.1-0.8-1.4-1.5c-0.3-0.6-0.5-1.3-0.5-2.2c0-0.8,0.2-1.6,0.5-2.2
			c0.3-0.6,0.8-1.1,1.4-1.5s1.3-0.5,2.1-0.5s1.4,0.2,2,0.5s1,0.8,1.3,1.4c0.3,0.6,0.4,1.2,0.4,1.8c0,0.1,0,0.2,0,0.4
			c0,0.1,0,0.2,0,0.4h-6.3c0,0.6,0.2,1.1,0.4,1.5s0.6,0.7,0.9,0.9c0.4,0.2,0.8,0.3,1.2,0.3c0.6,0,1-0.1,1.4-0.4s0.7-0.6,0.8-1h1.3
			c-0.2,0.7-0.6,1.3-1.2,1.8C119.7,137.9,118.9,138.2,118,138.2z M118,131c-0.6,0-1.2,0.2-1.7,0.6c-0.5,0.4-0.8,1-0.9,1.7h5
			c0-0.7-0.3-1.3-0.7-1.7C119.2,131.2,118.6,131,118,131z"/>
		<path class="st1" d="M123.5,138v-7.9h1.2l0.1,1.4c0.3-0.5,0.6-0.9,1.1-1.2s1-0.4,1.6-0.4c0.9,0,1.7,0.3,2.2,0.9
			c0.6,0.6,0.8,1.4,0.8,2.6v4.6h-1.3v-4.5c0-1.6-0.7-2.5-2.1-2.5c-0.7,0-1.2,0.2-1.7,0.7c-0.4,0.5-0.7,1.2-0.7,2.1v4.1L123.5,138
			L123.5,138z"/>
		<path class="st1" d="M135.8,138c-0.7,0-1.3-0.2-1.7-0.5s-0.6-1-0.6-1.9v-4.4h-1.4v-1.1h1.4l0.2-1.9h1.2v1.9h2.3v1.1h-2.3v4.4
			c0,0.5,0.1,0.8,0.3,1s0.6,0.3,1.1,0.3h0.8v1.1L135.8,138L135.8,138z"/>
		<path class="st1" d="M141.9,138.2c-0.9,0-1.7-0.2-2.4-0.7c-0.6-0.5-1-1.1-1.1-1.9h1.4c0.1,0.4,0.3,0.8,0.7,1.1s0.8,0.5,1.4,0.5
			c0.6,0,1-0.1,1.2-0.4s0.4-0.5,0.4-0.9c0-0.5-0.2-0.8-0.5-1c-0.4-0.2-0.8-0.3-1.5-0.4c-0.4-0.1-0.8-0.2-1.3-0.4
			c-0.4-0.2-0.8-0.4-1.1-0.7s-0.4-0.7-0.4-1.2c0-0.7,0.3-1.3,0.8-1.7s1.2-0.7,2.1-0.7c0.8,0,1.5,0.2,2.1,0.6c0.5,0.4,0.9,1,0.9,1.8
			h-1.3c0-0.4-0.2-0.7-0.5-0.9s-0.7-0.3-1.2-0.3s-0.8,0.1-1.1,0.3s-0.4,0.5-0.4,0.8s0.2,0.6,0.5,0.8s0.8,0.3,1.4,0.5
			c0.5,0.1,1,0.2,1.4,0.4s0.8,0.4,1.1,0.7s0.4,0.7,0.4,1.3c0,0.7-0.3,1.3-0.8,1.8S142.8,138.2,141.9,138.2z"/>
		<path class="st1" d="M147.3,138.1c-0.3,0-0.5-0.1-0.7-0.3s-0.3-0.4-0.3-0.6s0.1-0.5,0.3-0.6c0.2-0.2,0.4-0.3,0.7-0.3
			s0.5,0.1,0.6,0.3c0.2,0.2,0.3,0.4,0.3,0.6s-0.1,0.5-0.3,0.6C147.8,138,147.6,138.1,147.3,138.1z"/>
		<path class="st2" d="M37.2,93c0.3-0.2,0.7-0.2,1.2-0.2c0.3,0,0.6,0,0.8,0c0.8,0.1,1.4,0.2,1.7,0.3s0.6,0.4,0.8,0.8
			c0.3,0.4,0.4,0.9,0.4,1.3c0,0.5-0.2,0.9-0.6,1.3c-0.3,0.3-0.7,0.5-1,0.5c-0.4,0-0.7-0.2-1-0.7c-0.2-0.4-0.5-0.6-0.8-0.6
			c-0.2,0-0.5,0.2-0.7,0.5c-0.2,0.4-0.4,0.7-0.4,1.2v0.2c0,1.5,1.2,4.4,3.5,8.5c0.4,0.7,0.8,1.9,1.1,3.7c0,0.1,0,0.3,0,0.6
			c0,1.5-0.3,2.7-1,3.6c-0.3,0.4-0.7,0.7-1.4,1s-1.2,0.4-1.7,0.4c-0.1,0-0.1,0-0.2,0c-0.1,0-0.1,0-0.2,0c-0.6-0.1-1.4-0.6-2.3-1.4
			c-0.9-0.8-1.4-1.5-1.4-2c0-0.2,0.2-0.5,0.5-0.8s0.6-0.5,0.9-0.5c0.1,0,0.2,0,0.3,0c0.3,0,0.8,0.4,1.5,1.3c0.2,0.4,0.5,0.6,0.8,0.6
			s0.5-0.2,0.6-0.5c0.1-0.1,0.1-0.3,0.1-0.6c0-1.6-0.7-4-2.2-7.1c-1.3-2.9-2-5.1-2-6.5c0-0.6,0.1-1.2,0.3-1.7c0.5-1.1,0.8-1.8,1-2.2
			C36.2,93.6,36.6,93.3,37.2,93z"/>
		<path class="st2" d="M47.3,92.1c0.4-0.3,1-0.5,1.9-0.5h1c1.5,0.1,2.4,0.1,2.7,0.2c0.2,0.1,0.6,0.1,1.2,0.1s1.1,0.2,1.4,0.4
			s0.4,0.6,0.4,1.1s-0.1,0.9-0.3,1.1s-0.5,0.4-1,0.5c-0.6,0.1-0.9,0.2-1,0.3s-0.2,2.8-0.2,8c0,3.6,0,6.1,0.1,7.6
			c0.1,1.2,0.1,1.8,0.1,1.9c0,0.6-0.1,1.1-0.4,1.5c-0.3,0.6-0.8,0.8-1.4,0.8c-0.4,0-0.8-0.1-1.3-0.4l-0.8-0.5l0.1-9.6
			c0.1-2.5,0.1-4.9,0.1-7.4c0-1.5-0.1-2.3-0.3-2.4c-0.3-0.2-0.5-0.2-0.6-0.2s-0.3,0-0.5,0c-0.5,0-0.9-0.2-1.3-0.4
			c-0.3-0.3-0.5-0.6-0.5-1C46.6,92.9,46.8,92.5,47.3,92.1z"/>
		<path class="st2" d="M61.6,92.2c0.5-0.2,1.2-0.2,1.9-0.2c0.8,0,1.5,0.1,1.9,0.2c0.7,0.3,1.3,0.9,1.7,1.7c0.2,0.4,0.3,1.1,0.5,2.2
			s0.2,2,0.2,2.9c0,0.4,0,0.7,0,0.8c-0.1,0.7-0.3,1.5-0.6,2.3c-0.3,0.9-0.5,1.3-0.7,1.3s-0.3,0.2-0.3,0.6c0,0.3,0.1,0.6,0.3,0.9
			c0.5,0.6,1.1,1.8,1.9,3.6c0.8,1.7,1.3,2.8,1.3,3.3c0,0.1,0,0.3,0,0.6c0,0.4-0.1,0.7-0.3,1c-0.2,0.3-0.5,0.5-0.8,0.5s-0.5,0-0.8,0
			c-0.7-0.1-1.1-0.2-1.3-0.3c-0.2-0.1-0.3-0.3-0.3-0.7c0-0.6-0.3-1.4-0.9-2.6s-1-1.7-1.3-1.7l0,0c-0.1,0.1-0.1,0.4-0.1,0.9
			c0,0.8,0.1,1.8,0.2,2.8c0.1,0.4,0.1,0.8,0.1,0.9c0,0.9-0.2,1.5-0.6,1.8c-0.2,0.1-0.4,0.1-0.7,0.1c-0.9,0-1.5-0.2-1.7-0.6
			c-0.1-0.2-0.2-2.1-0.3-5.7c0-1.1-0.1-2.4-0.1-3.7s0-2.3,0-2.9s0-1.4-0.1-2.3c-0.1-1-0.2-2-0.3-3.2c-0.1-1.3-0.2-2.1-0.2-2.4
			c0-0.7,0.1-1.1,0.3-1.4C60.7,92.5,61.1,92.3,61.6,92.2z M64.2,95.3C64.1,95.1,64,95,63.7,95c-0.2,0-0.3,0.1-0.4,0.3
			s-0.1,0.4,0,0.5c0,0,0.1,0.9,0.2,2.7s0.2,2.7,0.3,2.8c0.1,0.1,0.2-0.1,0.4-0.3c0.2-0.2,0.2-0.7,0.2-1.4c0-0.5,0-1,0-1.4
			C64.4,96.5,64.3,95.6,64.2,95.3z"/>
		<path class="st2" d="M75.9,94.5c0.3-0.1,0.8-0.1,1.3-0.1c1.5,0,2.5,0.2,2.9,0.5c0.3,0.2,0.4,0.6,0.4,0.9s-0.1,0.7-0.4,0.9
			s-0.6,0.4-1.1,0.4c-0.4,0-0.7,0.1-0.8,0.3c-0.1,0.2-0.2,0.7-0.2,1.4c0,0.2,0,0.9,0.1,2.1c0.1,1.4,0.1,2.3,0.2,2.7s0.2,0.6,0.3,0.6
			c0,0,0.2,0,0.6,0c0.3,0,0.6,0,0.8,0c0.7,0,1.2,0.2,1.5,0.5c0.2,0.2,0.3,0.4,0.3,0.6c0,0.4-0.6,0.8-1.8,1.3
			c-0.7,0.2-1.1,0.4-1.3,0.6s-0.2,0.4-0.3,0.9c-0.1,0.5-0.1,0.8-0.1,1.2c0,1.4,0.1,2.4,0.4,3.1c0.1,0.3,0.2,0.5,0.4,0.5
			c0.1,0.1,0.4,0.1,0.9,0.1c0.6,0,1.1,0.1,1.5,0.4s0.6,0.6,0.6,0.9c0,0.2-0.2,0.6-0.6,1c-0.7,0.6-1.8,1-3.4,1s-2.7-0.4-3.2-1.1
			c-0.3-0.4-0.5-2.8-0.5-7.2c-0.1-5.5-0.1-8.8-0.2-9.7l-0.1-3.1l0.6-0.3C75.1,94.8,75.5,94.6,75.9,94.5z"/>
		<path class="st2" d="M89.7,93c0.3-0.2,0.7-0.2,1.2-0.2c0.3,0,0.6,0,0.8,0c0.8,0.1,1.4,0.2,1.7,0.3s0.6,0.4,0.8,0.8
			c0.3,0.4,0.4,0.9,0.4,1.3c0,0.5-0.2,0.9-0.6,1.3c-0.3,0.3-0.7,0.5-1,0.5c-0.4,0-0.7-0.2-1.1-0.7c-0.2-0.4-0.5-0.6-0.8-0.6
			c-0.2,0-0.5,0.2-0.7,0.5c-0.2,0.4-0.4,0.7-0.4,1.2v0.2c0,1.5,1.2,4.4,3.5,8.5c0.4,0.7,0.8,1.9,1.1,3.7c0,0.1,0,0.3,0,0.6
			c0,1.5-0.3,2.7-1,3.6c-0.3,0.4-0.7,0.7-1.4,1c-0.6,0.3-1.2,0.4-1.7,0.4c-0.1,0-0.1,0-0.2,0s-0.1,0-0.2,0c-0.6-0.1-1.4-0.6-2.3-1.4
			s-1.4-1.5-1.4-2c0-0.2,0.2-0.5,0.5-0.8s0.6-0.5,0.9-0.5c0.1,0,0.1,0,0.3,0c0.3,0,0.8,0.4,1.5,1.3c0.2,0.4,0.5,0.6,0.8,0.6
			s0.5-0.2,0.6-0.5c0.1-0.1,0.1-0.3,0.1-0.6c0-1.6-0.7-4-2.2-7.1c-1.3-2.9-2-5.1-2-6.5c0-0.6,0.1-1.2,0.3-1.7
			c0.4-1.1,0.8-1.8,1.1-2.2C88.7,93.6,89.1,93.3,89.7,93z"/>
		<path class="st2" d="M102.2,93c0.3-0.2,0.7-0.2,1.2-0.2c0.3,0,0.6,0,0.8,0c0.8,0.1,1.4,0.2,1.7,0.3c0.3,0.1,0.6,0.4,0.8,0.8
			c0.3,0.4,0.4,0.9,0.4,1.3c0,0.5-0.2,0.9-0.6,1.3c-0.3,0.3-0.7,0.5-1,0.5c-0.4,0-0.7-0.2-1.1-0.7c-0.2-0.4-0.5-0.6-0.8-0.6
			c-0.2,0-0.5,0.2-0.7,0.5c-0.2,0.4-0.4,0.7-0.4,1.2v0.2c0,1.5,1.2,4.4,3.5,8.5c0.4,0.7,0.8,1.9,1.1,3.7c0,0.1,0,0.3,0,0.6
			c0,1.5-0.3,2.7-1,3.6c-0.3,0.4-0.7,0.7-1.4,1s-1.2,0.4-1.7,0.4c-0.1,0-0.1,0-0.2,0s-0.1,0-0.2,0c-0.6-0.1-1.4-0.6-2.3-1.4
			s-1.4-1.5-1.4-2c0-0.2,0.2-0.5,0.5-0.8s0.6-0.5,0.9-0.5c0.1,0,0.2,0,0.3,0c0.3,0,0.8,0.4,1.5,1.3c0.2,0.4,0.5,0.6,0.8,0.6
			s0.5-0.2,0.6-0.5c0.1-0.1,0.1-0.3,0.1-0.6c0-1.6-0.7-4-2.2-7.1c-1.3-2.9-2-5.1-2-6.5c0-0.6,0.1-1.2,0.3-1.7c0.4-1.1,0.8-1.8,1-2.2
			C101.1,93.6,101.6,93.3,102.2,93z"/>
		<path class="st3" d="M200.2,64.3c0.2-0.4,0.2-1-0.1-1.5l-5.4-9.8c-0.3-0.6-1.1-1-1.8-0.8l-4.6,1.2c-0.5,0.1-1,0.5-1.1,1
			c-0.2,0.5-0.1,1,0.1,1.5l2.9,4.3l-2.9,0.7c-0.6,0.1-1,0.6-1.2,1.2s0,1.2,0.4,1.6l10,10.4c0.4,0.4,1,0.6,1.5,0.5
			c0.2-0.1,0.4-0.1,0.6-0.2c0.7-0.5,0.8-1.3,0.5-2l-3.2-6.3l3.2-0.8C199.6,65.1,200,64.8,200.2,64.3z"/>
		<path class="st3" d="M217.6,48.3c0.3-0.2,0.5-0.5,0.6-0.9l0.5-8.4c0.1-0.5-0.3-1.1-0.8-1.2l-3.4-1.1c-0.4-0.1-0.8-0.1-1.1,0.2
			c-0.3,0.2-0.5,0.6-0.5,1l0.1,3.9l-2.1-0.7c-0.4-0.1-0.9,0-1.2,0.3s-0.5,0.7-0.4,1.2l2.1,10.6c0.1,0.4,0.4,0.8,0.8,0.9
			c0.2,0.1,0.3,0.1,0.4,0.1c0.6,0,1.1-0.5,1.1-1.1l0.5-5.3l2.4,0.8C216.9,48.6,217.3,48.5,217.6,48.3z"/>
		<path class="st3" d="M254.7,67.7c0.2,0,0.4-0.1,0.6-0.3l2.7-4c0.2-0.2,0.2-0.6,0-0.9l-1.3-1.5c-0.1-0.2-0.4-0.3-0.6-0.2
			c-0.2,0-0.4,0.1-0.6,0.3l-1.1,1.9l-0.8-1c-0.2-0.2-0.4-0.3-0.7-0.2s-0.4,0.2-0.5,0.5l-2.1,5.8c-0.1,0.2,0,0.5,0.1,0.7
			c0.1,0.1,0.1,0.1,0.2,0.2c0.3,0.2,0.7,0.1,0.9-0.2l1.8-2.4l0.9,1.1C254.3,67.7,254.5,67.8,254.7,67.7z"/>
		<path class="st3" d="M241.8,53.5c0.5-0.2,1-0.6,1.2-1.2l4.4-12.3c0.3-0.8,0-1.7-0.7-2.2l-4.6-3.2c-0.5-0.3-1.2-0.5-1.8-0.2
			c-0.6,0.2-1,0.7-1.2,1.3l-1.5,5.8l-2.8-2c-0.6-0.4-1.3-0.5-1.9-0.1s-1,0.9-1.1,1.6l-1.5,16.7c-0.1,0.7,0.2,1.3,0.8,1.7
			c0.2,0.1,0.4,0.2,0.6,0.3c0.9,0.2,1.8-0.3,2.1-1.1l3.1-7.6l3.2,2.2C240.6,53.7,241.2,53.7,241.8,53.5z"/>
		<path class="st4" d="M206,79.5c0.4-0.1,0.8,0.3,0.8,0.7s-0.3,0.7-0.7,0.7c-1.9,0.2-3.5,1.3-4.5,2.8h14.1c0.1-0.3,0.1-0.5,0.1-0.8
			c0-0.4,0.3-0.7,0.7-0.7s0.7,0.3,0.7,0.7c0,0.3,0,0.6-0.1,0.8h17.1c2.5-0.1,4.6-2.2,4.6-4.7c0-0.4,0.3-0.7,0.7-0.7s0.7,0.3,0.7,0.7
			c0,1.9-0.9,3.6-2.2,4.7h9.5c0.3-0.9,0.5-1.8,0.5-2.8c0-2.7-0.8-5.1-4.1-7.5c-0.4-3.3-3.4-5.9-6.8-5.7c0.7,1.2,1.1,2.5,1.1,4
			c0,0.4-0.3,0.7-0.7,0.7s-0.7-0.3-0.7-0.7c0-3.5-2.9-6.4-6.4-6.4l0,0c-1.3,0-2.6,0.4-3.6,1.1c-1.3-1.4-3.1-2.2-5.1-2.2
			c-1.7,0-3.2,0.6-4.4,1.6c1.3,0.7,2.3,1.8,3,3.1c0.2,0.4,0.1,0.8-0.3,1c-0.1,0.1-0.2,0.1-0.3,0.1c-0.3,0-0.5-0.1-0.7-0.4
			c-0.8-1.6-2.2-2.7-3.8-3.1c-0.5-0.1-1.1-0.2-1.7-0.2c-3.2,0-5.9,2.2-6.5,5.2c-3,0.6-5.2,3.2-5.2,6.4c0,1,0.2,1.9,0.6,2.8
			C203.6,80.1,204.8,79.7,206,79.5z M215.5,75c0.3-0.2,0.8,0,1,0.3c0.6,1,1.6,1.6,2.7,1.9c1.6,0.4,3.3-0.6,3.3-0.6
			c1.4-0.9,2.1-2.4,2-4.1c0-0.4,0.3-0.8,0.7-0.8s0.8,0.3,0.8,0.7c0.1,1.3-0.2,2.6-0.9,3.7c0.2,0,0.3,0,0.5,0c1,0.1,1.9,0.5,2.7,1.2
			c1-0.6,1.7-1.6,1.8-2.8c0-0.4,0.3-0.7,0.7-0.7c0.5,0,0.8,0.4,0.8,0.8c-0.1,1.6-1,3-2.2,3.8c0.6,0.8,0.9,1.8,0.9,2.8
			c0,0.5-0.4,0.8-0.8,0.8c-0.4-0.1-0.6-0.4-0.6-0.7c0-0.8-0.3-1.6-0.8-2.2c-0.6-0.8-1.5-1.3-2.5-1.5c-0.7-0.1-1.4,0-2.1,0.3
			c-0.1,0-0.2,0.1-0.2,0.1c-0.3,0.2-1.5,0.8-2.9,0.8c-0.4,0-0.8-0.1-1.3-0.1c-1.5-0.3-2.8-1.2-3.7-2.6
			C214.9,75.6,215.1,75.2,215.5,75z"/>
		<path class="st5" d="M234.2,134.9c42.3,0,76.6-3.9,76.6-8.8c0-4.9-34.3-8.8-76.6-8.8s-76.6,3.9-76.6,8.8
			C157.6,130.9,191.9,134.9,234.2,134.9z"/>
		<path class="st6" d="M257.4,96.4h20.8c2.6,0,4.7-2.1,4.7-4.7V77.6c0-2.6-2.1-4.7-4.7-4.7h-17.4c-4.5,0-8.1,3.6-8.1,8.1v10.7
			C252.7,94.3,254.8,96.4,257.4,96.4z"/>
		<path class="st7" d="M181.9,127.6h9.3c1.6,0,2.9-1.3,2.9-2.9V84.2c0-0.6-0.5-1.1-1.1-1.1l-11.1,4.7c-1.6,0-2.9,1.3-2.9,2.9v34
			C179,126.3,180.3,127.6,181.9,127.6z"/>
		<path class="st8" d="M177,111l-0.4-19.2c-0.1-4.8,3.8-8.7,8.5-8.7h96.4v27.8L177,111z"/>
		<path class="st7" d="M280.6,127.6h10.2c1.4,0,2.5-1.1,2.5-2.5V50c0-0.8-0.7-1.5-1.5-1.5h-12.1c-0.8,0-1.5,0.7-1.5,1.5v75.2
			C278.1,126.5,279.2,127.6,280.6,127.6z"/>
	</g>
</g>
</svg>
