<?xml version="1.0" encoding="utf-8"?>
<!-- Generator: Adobe Illustrator 25.1.0, SVG Export Plug-In . SVG Version: 6.00 Build 0)  -->
<svg version="1.1" id="Layer_1" xmlns="http://www.w3.org/2000/svg" xmlns:xlink="http://www.w3.org/1999/xlink" x="0px" y="0px"
	 viewBox="0 0 329 453.9" style="enable-background:new 0 0 329 453.9;" xml:space="preserve">
<style type="text/css">
	.st0{fill:#FFFFFF;}
	.st1{fill:#404040;}
	.st2{clip-path:url(#SVGID_2_);}
	.st3{fill:#00A878;}
	.st4{fill:#F1F1F1;}
	.st5{fill:#DCE3E5;}
	.st6{fill:#FF9F1A;}
</style>
<g>
	<path class="st0" d="M328,341.3c0-256,11.3-288.6-42.6-288.6c-26.4,0-154.8-1-189.3,0c-33.9,1-84.7-10.6-90.7,28.7
		c-5.9,38.8-4.3,102.2-4.3,172c0,109.7-6,181.7,10,189.5c35.1,17.1,182.1,9.5,224.7,7.7C279.9,448.9,328,453.1,328,341.3z"/>
	<path class="st1" d="M34.1,385.1c-1.1,0-2-0.2-2.8-0.7c-0.8-0.5-1.4-1.2-1.8-2c-0.4-0.9-0.7-1.9-0.7-3c0-1.1,0.2-2.1,0.7-3
		c0.4-0.9,1.1-1.6,1.8-2c0.8-0.5,1.7-0.7,2.8-0.7c1.3,0,2.3,0.3,3.1,0.9c0.8,0.6,1.3,1.5,1.6,2.6h-1.5c-0.2-0.7-0.5-1.2-1.1-1.7
		c-0.5-0.4-1.2-0.6-2.1-0.6c-0.8,0-1.5,0.2-2.1,0.6c-0.6,0.4-1.1,0.9-1.4,1.6c-0.3,0.7-0.5,1.5-0.5,2.5c0,1,0.2,1.8,0.5,2.5
		c0.3,0.7,0.8,1.2,1.4,1.6c0.6,0.4,1.3,0.5,2.1,0.5c0.9,0,1.6-0.2,2.1-0.6c0.5-0.4,0.9-1,1.1-1.6h1.5c-0.2,1.1-0.7,1.9-1.6,2.5
		C36.4,384.8,35.4,385.1,34.1,385.1z M40.6,384.9v-11.5H42v4.9c0.3-0.5,0.6-0.9,1.1-1.1c0.5-0.3,1-0.4,1.6-0.4
		c0.9,0,1.7,0.3,2.2,0.9c0.6,0.6,0.8,1.4,0.8,2.6v4.6h-1.3v-4.5c0-1.7-0.7-2.5-2-2.5c-0.7,0-1.3,0.3-1.7,0.8
		c-0.5,0.5-0.7,1.2-0.7,2.1v4.1H40.6z M53.4,385.1c-0.7,0-1.4-0.2-2-0.5c-0.6-0.3-1.1-0.8-1.4-1.4c-0.3-0.6-0.5-1.4-0.5-2.2
		s0.2-1.6,0.5-2.2c0.4-0.6,0.8-1.1,1.4-1.5c0.6-0.3,1.3-0.5,2-0.5c0.7,0,1.4,0.2,2,0.5c0.6,0.3,1.1,0.8,1.4,1.5
		c0.4,0.6,0.5,1.3,0.5,2.2s-0.2,1.6-0.5,2.2c-0.4,0.6-0.8,1.1-1.4,1.4C54.8,384.9,54.1,385.1,53.4,385.1z M53.4,383.9
		c0.5,0,0.9-0.1,1.3-0.3c0.4-0.2,0.7-0.6,1-1c0.2-0.4,0.4-1,0.4-1.7s-0.1-1.2-0.4-1.7c-0.2-0.4-0.5-0.8-0.9-1
		c-0.4-0.2-0.8-0.3-1.3-0.3c-0.5,0-0.9,0.1-1.3,0.3c-0.4,0.2-0.7,0.6-1,1c-0.2,0.4-0.4,1-0.4,1.7s0.1,1.2,0.4,1.7
		c0.2,0.4,0.6,0.8,0.9,1C52.5,383.8,52.9,383.9,53.4,383.9z M62.9,385.1c-0.7,0-1.4-0.2-2-0.5c-0.6-0.3-1.1-0.8-1.4-1.4
		c-0.3-0.6-0.5-1.4-0.5-2.2s0.2-1.6,0.5-2.2c0.4-0.6,0.8-1.1,1.4-1.5c0.6-0.3,1.3-0.5,2-0.5c0.7,0,1.4,0.2,2,0.5
		c0.6,0.3,1.1,0.8,1.4,1.5c0.4,0.6,0.5,1.3,0.5,2.2s-0.2,1.6-0.5,2.2c-0.4,0.6-0.8,1.1-1.4,1.4C64.3,384.9,63.6,385.1,62.9,385.1z
		 M62.9,383.9c0.5,0,0.9-0.1,1.3-0.3c0.4-0.2,0.7-0.6,1-1c0.2-0.4,0.4-1,0.4-1.7s-0.1-1.2-0.4-1.7c-0.2-0.4-0.5-0.8-0.9-1
		c-0.4-0.2-0.8-0.3-1.3-0.3c-0.5,0-0.9,0.1-1.3,0.3c-0.4,0.2-0.7,0.6-1,1c-0.2,0.4-0.4,1-0.4,1.7s0.1,1.2,0.4,1.7
		c0.2,0.4,0.6,0.8,0.9,1C62,383.8,62.4,383.9,62.9,383.9z M71.8,385.1c-0.9,0-1.7-0.2-2.4-0.7c-0.6-0.5-1-1.1-1.1-2h1.4
		c0.1,0.4,0.3,0.8,0.7,1.1c0.4,0.3,0.8,0.4,1.5,0.4c0.6,0,1-0.1,1.2-0.4c0.3-0.2,0.4-0.5,0.4-0.9c0-0.5-0.2-0.8-0.5-1
		c-0.3-0.2-0.8-0.3-1.5-0.4c-0.4-0.1-0.9-0.2-1.3-0.4c-0.4-0.2-0.8-0.4-1.1-0.7c-0.3-0.3-0.4-0.7-0.4-1.2c0-0.7,0.3-1.3,0.8-1.7
		c0.5-0.4,1.2-0.7,2.1-0.7c0.8,0,1.5,0.2,2.1,0.6c0.5,0.4,0.9,1,0.9,1.8h-1.3c-0.1-0.4-0.2-0.7-0.5-0.9c-0.3-0.2-0.7-0.4-1.2-0.4
		c-0.5,0-0.9,0.1-1.1,0.3c-0.3,0.2-0.4,0.5-0.4,0.8c0,0.3,0.2,0.6,0.5,0.8c0.3,0.2,0.8,0.3,1.4,0.5c0.5,0.1,1,0.2,1.4,0.4
		c0.4,0.1,0.8,0.4,1.1,0.7c0.3,0.3,0.4,0.7,0.4,1.3c0,0.7-0.3,1.3-0.8,1.8C73.4,384.9,72.7,385.1,71.8,385.1z M80.3,385.1
		c-0.8,0-1.4-0.2-2-0.5c-0.6-0.4-1.1-0.8-1.4-1.5c-0.3-0.6-0.5-1.3-0.5-2.2c0-0.8,0.2-1.6,0.5-2.2c0.3-0.6,0.8-1.1,1.4-1.5
		c0.6-0.4,1.3-0.5,2.1-0.5c0.8,0,1.4,0.2,2,0.5c0.6,0.3,1,0.8,1.3,1.4c0.3,0.6,0.4,1.2,0.4,1.8c0,0.1,0,0.2,0,0.4c0,0.1,0,0.3,0,0.4
		h-6.3c0,0.6,0.2,1.1,0.4,1.5c0.3,0.4,0.6,0.7,0.9,0.9c0.4,0.2,0.8,0.3,1.2,0.3c0.6,0,1-0.1,1.4-0.4c0.4-0.3,0.6-0.6,0.8-1h1.3
		c-0.2,0.7-0.6,1.3-1.2,1.8C82,384.8,81.2,385.1,80.3,385.1z M80.3,377.9c-0.6,0-1.2,0.2-1.7,0.6c-0.5,0.4-0.8,0.9-0.8,1.7h5
		c0-0.7-0.3-1.3-0.7-1.7C81.5,378.1,81,377.9,80.3,377.9z M93.7,385.1c-0.7,0-1.4-0.2-2-0.5s-1.1-0.8-1.4-1.4
		c-0.3-0.6-0.5-1.4-0.5-2.2s0.2-1.6,0.5-2.2c0.4-0.6,0.8-1.1,1.4-1.5c0.6-0.3,1.3-0.5,2-0.5s1.4,0.2,2,0.5c0.6,0.3,1.1,0.8,1.4,1.5
		c0.4,0.6,0.5,1.3,0.5,2.2s-0.2,1.6-0.5,2.2c-0.4,0.6-0.8,1.1-1.4,1.4C95.1,384.9,94.4,385.1,93.7,385.1z M93.7,383.9
		c0.5,0,0.9-0.1,1.3-0.3c0.4-0.2,0.7-0.6,1-1c0.2-0.4,0.4-1,0.4-1.7s-0.1-1.2-0.4-1.7c-0.2-0.4-0.5-0.8-0.9-1
		c-0.4-0.2-0.8-0.3-1.3-0.3c-0.5,0-0.9,0.1-1.3,0.3c-0.4,0.2-0.7,0.6-1,1c-0.2,0.4-0.4,1-0.4,1.7s0.1,1.2,0.4,1.7
		c0.2,0.4,0.6,0.8,0.9,1C92.8,383.8,93.2,383.9,93.7,383.9z M99.5,384.9V377h1.2l0.1,1.4c0.3-0.5,0.6-0.9,1.1-1.2
		c0.5-0.3,1-0.4,1.6-0.4c0.9,0,1.7,0.3,2.2,0.9c0.6,0.6,0.8,1.4,0.8,2.6v4.6h-1.3v-4.5c0-1.7-0.7-2.5-2-2.5c-0.7,0-1.3,0.3-1.7,0.8
		c-0.4,0.5-0.7,1.2-0.7,2.1v4.1H99.5z M112.3,385.1c-0.8,0-1.4-0.2-2-0.5c-0.6-0.4-1.1-0.8-1.4-1.5c-0.3-0.6-0.5-1.3-0.5-2.2
		c0-0.8,0.2-1.6,0.5-2.2c0.3-0.6,0.8-1.1,1.4-1.5c0.6-0.4,1.3-0.5,2.1-0.5c0.8,0,1.4,0.2,2,0.5c0.6,0.3,1,0.8,1.3,1.4
		s0.4,1.2,0.4,1.8c0,0.1,0,0.2,0,0.4c0,0.1,0,0.3,0,0.4h-6.3c0,0.6,0.2,1.1,0.4,1.5c0.3,0.4,0.6,0.7,0.9,0.9
		c0.4,0.2,0.8,0.3,1.2,0.3c0.6,0,1-0.1,1.4-0.4c0.4-0.3,0.6-0.6,0.8-1h1.3c-0.2,0.7-0.6,1.3-1.2,1.8
		C114,384.8,113.2,385.1,112.3,385.1z M112.3,377.9c-0.6,0-1.2,0.2-1.7,0.6c-0.5,0.4-0.8,0.9-0.8,1.7h5c0-0.7-0.3-1.3-0.7-1.7
		S112.9,377.9,112.3,377.9z M125.1,385.1c-0.9,0-1.7-0.2-2.4-0.7s-1-1.1-1.1-2h1.4c0.1,0.4,0.3,0.8,0.7,1.1c0.4,0.3,0.8,0.4,1.5,0.4
		c0.6,0,1-0.1,1.2-0.4c0.3-0.2,0.4-0.5,0.4-0.9c0-0.5-0.2-0.8-0.5-1c-0.3-0.2-0.8-0.3-1.5-0.4c-0.4-0.1-0.9-0.2-1.3-0.4
		s-0.8-0.4-1.1-0.7c-0.3-0.3-0.4-0.7-0.4-1.2c0-0.7,0.3-1.3,0.8-1.7c0.5-0.4,1.2-0.7,2.1-0.7c0.8,0,1.5,0.2,2.1,0.6
		c0.5,0.4,0.9,1,0.9,1.8h-1.3c-0.1-0.4-0.2-0.7-0.5-0.9c-0.3-0.2-0.7-0.4-1.2-0.4c-0.5,0-0.9,0.1-1.1,0.3c-0.3,0.2-0.4,0.5-0.4,0.8
		c0,0.3,0.2,0.6,0.5,0.8c0.3,0.2,0.8,0.3,1.4,0.5c0.5,0.1,1,0.2,1.4,0.4c0.4,0.1,0.8,0.4,1.1,0.7c0.3,0.3,0.4,0.7,0.4,1.3
		c0,0.7-0.3,1.3-0.8,1.8C126.7,384.9,126,385.1,125.1,385.1z M132.8,384.9c-0.7,0-1.3-0.2-1.7-0.5s-0.6-1-0.6-1.9v-4.4h-1.4V377h1.4
		l0.2-1.9h1.2v1.9h2.3v1.1h-2.3v4.4c0,0.5,0.1,0.8,0.3,1c0.2,0.2,0.6,0.3,1.1,0.3h0.8v1.2H132.8z M135.9,384.9V377h1.2l0.1,1.5
		c0.2-0.5,0.6-0.9,1.1-1.2c0.5-0.3,1.1-0.5,1.9-0.5v1.4h-0.4c-0.5,0-0.9,0.1-1.3,0.3c-0.4,0.2-0.7,0.4-0.9,0.8s-0.4,0.9-0.4,1.6v4
		H135.9z M144.3,385.1c-0.7,0-1.2-0.1-1.6-0.3c-0.4-0.2-0.8-0.5-1-0.9c-0.2-0.4-0.3-0.8-0.3-1.2c0-0.8,0.3-1.4,0.9-1.9
		c0.6-0.4,1.5-0.7,2.5-0.7h2.1V380c0-0.7-0.2-1.2-0.5-1.6c-0.4-0.4-0.8-0.5-1.5-0.5c-0.5,0-1,0.1-1.4,0.4c-0.4,0.3-0.6,0.6-0.7,1.1
		h-1.4c0.1-0.6,0.2-1.1,0.6-1.5c0.3-0.4,0.8-0.7,1.3-0.9c0.5-0.2,1-0.3,1.6-0.3c1.1,0,1.9,0.3,2.5,0.9c0.6,0.6,0.8,1.4,0.8,2.4v4.9
		h-1.2l-0.1-1.4c-0.2,0.4-0.6,0.8-1,1.2C145.6,384.9,145,385.1,144.3,385.1z M144.5,383.9c0.5,0,0.9-0.1,1.3-0.4
		c0.4-0.3,0.7-0.6,0.8-1s0.3-0.9,0.3-1.3v0h-2c-0.8,0-1.4,0.1-1.7,0.4c-0.3,0.3-0.5,0.6-0.5,1c0,0.4,0.1,0.8,0.4,1
		C143.5,383.8,144,383.9,144.5,383.9z M153.2,384.9c-0.7,0-1.3-0.2-1.7-0.5s-0.6-1-0.6-1.9v-4.4h-1.4V377h1.4l0.2-1.9h1.2v1.9h2.3
		v1.1h-2.3v4.4c0,0.5,0.1,0.8,0.3,1c0.2,0.2,0.6,0.3,1.1,0.3h0.8v1.2H153.2z M159.6,385.1c-0.8,0-1.4-0.2-2-0.5
		c-0.6-0.4-1.1-0.8-1.4-1.5c-0.3-0.6-0.5-1.3-0.5-2.2c0-0.8,0.2-1.6,0.5-2.2c0.3-0.6,0.8-1.1,1.4-1.5c0.6-0.4,1.3-0.5,2.1-0.5
		c0.8,0,1.4,0.2,2,0.5c0.6,0.3,1,0.8,1.3,1.4c0.3,0.6,0.4,1.2,0.4,1.8c0,0.1,0,0.2,0,0.4c0,0.1,0,0.3,0,0.4h-6.3
		c0,0.6,0.2,1.1,0.4,1.5c0.3,0.4,0.6,0.7,0.9,0.9c0.4,0.2,0.8,0.3,1.2,0.3c0.6,0,1-0.1,1.4-0.4c0.4-0.3,0.6-0.6,0.8-1h1.3
		c-0.2,0.7-0.6,1.3-1.2,1.8C161.3,384.8,160.6,385.1,159.6,385.1z M159.6,377.9c-0.6,0-1.2,0.2-1.7,0.6c-0.5,0.4-0.8,0.9-0.8,1.7h5
		c0-0.7-0.3-1.3-0.7-1.7C160.9,378.1,160.3,377.9,159.6,377.9z M168.3,382.4c-0.4,0-0.9-0.1-1.2-0.2l-0.8,0.8
		c0.1,0.1,0.3,0.2,0.4,0.2c0.2,0.1,0.4,0.1,0.8,0.2c0.3,0,0.8,0.1,1.4,0.1c1.1,0.1,1.8,0.3,2.3,0.7c0.5,0.4,0.7,1,0.7,1.6
		c0,0.5-0.1,0.9-0.4,1.3c-0.2,0.4-0.6,0.8-1.2,1c-0.5,0.3-1.2,0.4-2,0.4c-0.7,0-1.3-0.1-1.9-0.3c-0.6-0.2-1-0.5-1.3-0.8
		c-0.3-0.4-0.5-0.8-0.5-1.4c0-0.3,0.1-0.6,0.2-1c0.2-0.3,0.5-0.7,0.9-1c-0.2-0.1-0.4-0.2-0.6-0.3c-0.2-0.1-0.3-0.2-0.4-0.4V383
		l1.4-1.3c-0.6-0.5-0.9-1.2-0.9-2.1c0-0.5,0.1-1,0.4-1.4c0.2-0.4,0.6-0.8,1.1-1c0.5-0.3,1-0.4,1.7-0.4c0.5,0,0.9,0.1,1.2,0.2h2.9v1
		L171,378c0.3,0.4,0.5,1,0.5,1.6c0,0.5-0.1,1-0.4,1.4c-0.2,0.4-0.6,0.8-1.1,1C169.5,382.3,168.9,382.4,168.3,382.4z M168.3,381.3
		c0.6,0,1-0.1,1.3-0.4c0.3-0.3,0.5-0.7,0.5-1.3c0-0.5-0.2-1-0.5-1.2c-0.3-0.3-0.8-0.4-1.3-0.4c-0.6,0-1,0.1-1.4,0.4
		c-0.3,0.3-0.5,0.7-0.5,1.2c0,0.6,0.2,1,0.5,1.3C167.2,381.1,167.7,381.3,168.3,381.3z M165.9,385.9c0,0.5,0.2,0.9,0.7,1.2
		c0.4,0.3,1,0.4,1.7,0.4c0.7,0,1.2-0.1,1.6-0.4c0.4-0.3,0.6-0.7,0.6-1.2c0-0.3-0.1-0.6-0.4-0.9c-0.3-0.2-0.8-0.4-1.5-0.4
		c-0.6,0-1.1-0.1-1.5-0.2c-0.4,0.2-0.7,0.5-0.9,0.8C166,385.5,165.9,385.7,165.9,385.9z M174.8,388.4l2-4.3h-0.5l-3.2-7.2h1.5
		l2.6,6.2l2.8-6.2h1.4l-5.2,11.5H174.8z M187.5,384.9v-6.8h-1.2V377h1.2v-1.4c0-0.8,0.2-1.3,0.6-1.7c0.4-0.4,0.9-0.5,1.7-0.5h0.8
		v1.2H190c-0.4,0-0.7,0.1-0.9,0.3c-0.2,0.2-0.3,0.4-0.3,0.8v1.3h2v1.1h-2v6.8H187.5z M192.4,384.9V377h1.2l0.1,1.5
		c0.2-0.5,0.6-0.9,1.1-1.2c0.5-0.3,1.1-0.5,1.9-0.5v1.4h-0.4c-0.5,0-0.9,0.1-1.3,0.3c-0.4,0.2-0.7,0.4-0.9,0.8
		c-0.2,0.4-0.4,0.9-0.4,1.6v4H192.4z M201.5,385.1c-0.7,0-1.4-0.2-2-0.5s-1.1-0.8-1.4-1.4c-0.3-0.6-0.5-1.4-0.5-2.2s0.2-1.6,0.5-2.2
		c0.4-0.6,0.8-1.1,1.4-1.5c0.6-0.3,1.3-0.5,2-0.5c0.7,0,1.4,0.2,2,0.5c0.6,0.3,1.1,0.8,1.4,1.5c0.4,0.6,0.5,1.3,0.5,2.2
		s-0.2,1.6-0.5,2.2c-0.4,0.6-0.8,1.1-1.4,1.4C203,384.9,202.3,385.1,201.5,385.1z M201.5,383.9c0.5,0,0.9-0.1,1.3-0.3s0.7-0.6,1-1
		c0.2-0.4,0.4-1,0.4-1.7s-0.1-1.2-0.4-1.7c-0.2-0.4-0.5-0.8-0.9-1c-0.4-0.2-0.8-0.3-1.3-0.3c-0.5,0-0.9,0.1-1.3,0.3s-0.7,0.6-1,1
		c-0.2,0.4-0.4,1-0.4,1.7s0.1,1.2,0.4,1.7c0.2,0.4,0.6,0.8,0.9,1C200.7,383.8,201.1,383.9,201.5,383.9z M207.4,384.9V377h1.2
		l0.1,1.2c0.3-0.4,0.6-0.8,1-1c0.4-0.2,0.9-0.4,1.4-0.4c0.6,0,1.2,0.1,1.6,0.4c0.5,0.3,0.8,0.6,1.1,1.2c0.3-0.5,0.7-0.9,1.1-1.1
		c0.5-0.3,1-0.4,1.6-0.4c0.9,0,1.7,0.3,2.3,0.9c0.6,0.6,0.8,1.4,0.8,2.6v4.6h-1.3v-4.5c0-0.8-0.2-1.4-0.5-1.9
		c-0.3-0.4-0.8-0.6-1.4-0.6c-0.6,0-1.2,0.3-1.6,0.8c-0.4,0.5-0.6,1.2-0.6,2.1v4.1h-1.3v-4.5c0-0.8-0.2-1.4-0.5-1.9
		c-0.3-0.4-0.8-0.6-1.4-0.6c-0.6,0-1.2,0.3-1.6,0.8c-0.4,0.5-0.6,1.2-0.6,2.1v4.1H207.4z M229.1,384.9c-0.7,0-1.3-0.2-1.7-0.5
		s-0.6-1-0.6-1.9v-4.4h-1.4V377h1.4l0.2-1.9h1.2v1.9h2.3v1.1h-2.3v4.4c0,0.5,0.1,0.8,0.3,1c0.2,0.2,0.6,0.3,1.1,0.3h0.8v1.2H229.1z
		 M232.1,384.9v-11.5h1.3v4.9c0.3-0.5,0.6-0.9,1.1-1.1c0.5-0.3,1-0.4,1.6-0.4c0.9,0,1.7,0.3,2.2,0.9c0.6,0.6,0.8,1.4,0.8,2.6v4.6
		h-1.3v-4.5c0-1.7-0.7-2.5-2-2.5c-0.7,0-1.3,0.3-1.7,0.8c-0.5,0.5-0.7,1.2-0.7,2.1v4.1H232.1z M242.1,375.2c-0.3,0-0.5-0.1-0.7-0.3
		c-0.2-0.2-0.3-0.4-0.3-0.7c0-0.3,0.1-0.5,0.3-0.6c0.2-0.2,0.4-0.3,0.7-0.3c0.3,0,0.5,0.1,0.7,0.3c0.2,0.2,0.3,0.4,0.3,0.6
		c0,0.3-0.1,0.5-0.3,0.7C242.6,375.1,242.4,375.2,242.1,375.2z M241.4,384.9V377h1.3v7.9H241.4z M248.2,385.1c-1,0-1.7-0.2-2.4-0.7
		c-0.6-0.5-1-1.1-1.1-2h1.4c0.1,0.4,0.3,0.8,0.7,1.1c0.4,0.3,0.8,0.4,1.5,0.4c0.6,0,1-0.1,1.2-0.4c0.3-0.2,0.4-0.5,0.4-0.9
		c0-0.5-0.2-0.8-0.5-1c-0.3-0.2-0.8-0.3-1.5-0.4c-0.4-0.1-0.9-0.2-1.3-0.4c-0.4-0.2-0.8-0.4-1.1-0.7c-0.3-0.3-0.4-0.7-0.4-1.2
		c0-0.7,0.3-1.3,0.8-1.7c0.5-0.4,1.2-0.7,2.1-0.7c0.8,0,1.5,0.2,2.1,0.6c0.5,0.4,0.9,1,0.9,1.8h-1.3c-0.1-0.4-0.2-0.7-0.5-0.9
		c-0.3-0.2-0.7-0.4-1.2-0.4c-0.5,0-0.9,0.1-1.1,0.3c-0.3,0.2-0.4,0.5-0.4,0.8c0,0.3,0.2,0.6,0.5,0.8c0.3,0.2,0.8,0.3,1.4,0.5
		c0.5,0.1,1,0.2,1.4,0.4c0.4,0.1,0.8,0.4,1.1,0.7c0.3,0.3,0.4,0.7,0.4,1.3c0,0.7-0.3,1.3-0.8,1.8
		C249.8,384.9,249.1,385.1,248.2,385.1z M29.1,408.9V401h1.2l0.1,1.2c0.3-0.4,0.6-0.8,1-1c0.4-0.2,0.9-0.4,1.4-0.4
		c0.6,0,1.2,0.1,1.6,0.4c0.5,0.3,0.8,0.6,1.1,1.2c0.3-0.5,0.7-0.9,1.1-1.1c0.5-0.3,1-0.4,1.6-0.4c0.9,0,1.7,0.3,2.3,0.9
		c0.6,0.6,0.8,1.4,0.8,2.6v4.6h-1.3v-4.5c0-0.8-0.2-1.4-0.5-1.9c-0.3-0.4-0.8-0.6-1.4-0.6c-0.6,0-1.2,0.3-1.6,0.8
		c-0.4,0.5-0.6,1.2-0.6,2.1v4.1h-1.3v-4.5c0-0.8-0.2-1.4-0.5-1.9c-0.3-0.4-0.8-0.6-1.4-0.6c-0.6,0-1.2,0.3-1.6,0.8
		c-0.4,0.5-0.6,1.2-0.6,2.1v4.1H29.1z M47,409.1c-0.7,0-1.4-0.2-2-0.5c-0.6-0.3-1.1-0.8-1.4-1.4c-0.3-0.6-0.5-1.4-0.5-2.2
		s0.2-1.6,0.5-2.2c0.4-0.6,0.8-1.1,1.4-1.5c0.6-0.3,1.3-0.5,2-0.5c0.7,0,1.4,0.2,2,0.5c0.6,0.3,1.1,0.8,1.4,1.5
		c0.4,0.6,0.5,1.3,0.5,2.2s-0.2,1.6-0.5,2.2c-0.4,0.6-0.8,1.1-1.4,1.4C48.5,408.9,47.8,409.1,47,409.1z M47,407.9
		c0.5,0,0.9-0.1,1.3-0.3s0.7-0.6,1-1s0.4-1,0.4-1.7s-0.1-1.2-0.4-1.7c-0.2-0.4-0.5-0.8-0.9-1s-0.8-0.3-1.3-0.3
		c-0.5,0-0.9,0.1-1.3,0.3s-0.7,0.6-1,1s-0.4,1-0.4,1.7s0.1,1.2,0.4,1.7s0.6,0.8,0.9,1C46.2,407.8,46.6,407.9,47,407.9z M56.5,409.1
		c-0.8,0-1.5-0.2-2.1-0.5c-0.6-0.4-1-0.9-1.4-1.5c-0.3-0.6-0.5-1.3-0.5-2.1s0.2-1.5,0.5-2.1c0.3-0.6,0.8-1.1,1.4-1.5
		c0.6-0.4,1.3-0.5,2.1-0.5c0.7,0,1.2,0.1,1.7,0.4c0.5,0.3,0.9,0.6,1.2,1.1v-4.9h1.3v11.5h-1.2l-0.1-1.3c-0.3,0.4-0.6,0.7-1.1,1
		C57.8,408.9,57.2,409.1,56.5,409.1z M56.6,407.9c0.5,0,1-0.1,1.4-0.4c0.4-0.3,0.7-0.6,1-1.1c0.2-0.4,0.4-1,0.4-1.6
		s-0.1-1.1-0.4-1.6c-0.2-0.4-0.5-0.8-1-1c-0.4-0.3-0.9-0.4-1.4-0.4c-0.5,0-1,0.1-1.4,0.4c-0.4,0.2-0.7,0.6-1,1
		c-0.2,0.4-0.3,1-0.3,1.6s0.1,1.1,0.3,1.6c0.2,0.4,0.6,0.8,1,1.1C55.6,407.8,56.1,407.9,56.6,407.9z M65.8,409.1
		c-0.9,0-1.7-0.3-2.2-0.8c-0.6-0.6-0.8-1.5-0.8-2.6V401h1.3v4.5c0,1.7,0.7,2.5,2,2.5c0.7,0,1.3-0.2,1.7-0.7c0.5-0.5,0.7-1.2,0.7-2.1
		V401h1.3v7.9h-1.2l-0.1-1.4c-0.2,0.5-0.6,0.9-1.1,1.2C67,408.9,66.4,409.1,65.8,409.1z M72.1,408.9v-11.5h1.3v11.5H72.1z
		 M79.2,409.1c-0.8,0-1.4-0.2-2-0.5c-0.6-0.4-1.1-0.8-1.4-1.5c-0.3-0.6-0.5-1.3-0.5-2.2c0-0.8,0.2-1.6,0.5-2.2
		c0.3-0.6,0.8-1.1,1.4-1.5c0.6-0.4,1.3-0.5,2.1-0.5c0.8,0,1.4,0.2,2,0.5c0.6,0.3,1,0.8,1.3,1.4c0.3,0.6,0.4,1.2,0.4,1.8
		c0,0.1,0,0.2,0,0.4c0,0.1,0,0.3,0,0.4h-6.3c0,0.6,0.2,1.1,0.4,1.5c0.3,0.4,0.6,0.7,0.9,0.9c0.4,0.2,0.8,0.3,1.2,0.3
		c0.6,0,1-0.1,1.4-0.4c0.4-0.3,0.6-0.6,0.8-1h1.3c-0.2,0.7-0.6,1.3-1.2,1.8C80.9,408.8,80.1,409.1,79.2,409.1z M79.2,401.9
		c-0.6,0-1.2,0.2-1.7,0.6c-0.5,0.4-0.8,0.9-0.8,1.7h5c0-0.7-0.3-1.3-0.7-1.7C80.4,402.1,79.9,401.9,79.2,401.9z M92.1,408.9
		c-0.7,0-1.3-0.2-1.7-0.5s-0.6-1-0.6-1.9v-4.4h-1.4V401h1.4l0.2-1.9h1.2v1.9h2.3v1.1h-2.3v4.4c0,0.5,0.1,0.8,0.3,1
		c0.2,0.2,0.6,0.3,1.1,0.3h0.8v1.2H92.1z M98.6,409.1c-0.7,0-1.4-0.2-2-0.5c-0.6-0.3-1.1-0.8-1.4-1.4c-0.3-0.6-0.5-1.4-0.5-2.2
		s0.2-1.6,0.5-2.2c0.4-0.6,0.8-1.1,1.4-1.5c0.6-0.3,1.3-0.5,2-0.5c0.7,0,1.4,0.2,2,0.5c0.6,0.3,1.1,0.8,1.4,1.5
		c0.4,0.6,0.5,1.3,0.5,2.2s-0.2,1.6-0.5,2.2c-0.4,0.6-0.8,1.1-1.4,1.4C100,408.9,99.3,409.1,98.6,409.1z M98.6,407.9
		c0.5,0,0.9-0.1,1.3-0.3c0.4-0.2,0.7-0.6,1-1c0.2-0.4,0.4-1,0.4-1.7s-0.1-1.2-0.4-1.7c-0.2-0.4-0.6-0.8-0.9-1
		c-0.4-0.2-0.8-0.3-1.3-0.3c-0.5,0-0.9,0.1-1.3,0.3c-0.4,0.2-0.7,0.6-1,1c-0.2,0.4-0.4,1-0.4,1.7s0.1,1.2,0.4,1.7
		c0.2,0.4,0.6,0.8,0.9,1C97.7,407.8,98.1,407.9,98.6,407.9z M108.7,412.4V401h1.2l0.1,1.3c0.3-0.4,0.6-0.7,1.1-1
		c0.5-0.3,1.1-0.5,1.8-0.5c0.8,0,1.5,0.2,2.1,0.5c0.6,0.4,1,0.9,1.4,1.5c0.3,0.6,0.5,1.3,0.5,2.1s-0.2,1.5-0.5,2.1
		c-0.3,0.6-0.8,1.1-1.4,1.5c-0.6,0.4-1.3,0.5-2.1,0.5c-0.7,0-1.2-0.1-1.7-0.4c-0.5-0.3-0.9-0.6-1.2-1.1v4.8H108.7z M112.7,407.9
		c0.5,0,1-0.1,1.4-0.4c0.4-0.3,0.7-0.6,1-1.1s0.4-1,0.4-1.6s-0.1-1.1-0.4-1.6s-0.6-0.8-1-1c-0.4-0.3-0.9-0.4-1.4-0.4
		c-0.5,0-1,0.1-1.4,0.4c-0.4,0.2-0.7,0.6-1,1s-0.4,1-0.4,1.6s0.1,1.1,0.4,1.6s0.6,0.8,1,1.1C111.7,407.8,112.2,407.9,112.7,407.9z
		 M118.7,408.9V401h1.2l0.1,1.5c0.2-0.5,0.6-0.9,1.1-1.2c0.5-0.3,1.1-0.5,1.9-0.5v1.4h-0.4c-0.5,0-0.9,0.1-1.3,0.3
		c-0.4,0.2-0.7,0.4-0.9,0.8c-0.2,0.4-0.4,0.9-0.4,1.6v4H118.7z M127.2,409.1c-0.7,0-1.2-0.1-1.6-0.3c-0.4-0.2-0.8-0.5-1-0.9
		c-0.2-0.4-0.3-0.8-0.3-1.2c0-0.8,0.3-1.4,0.9-1.9c0.6-0.4,1.5-0.7,2.5-0.7h2.1V404c0-0.7-0.2-1.2-0.5-1.6c-0.4-0.4-0.8-0.5-1.5-0.5
		c-0.5,0-1,0.1-1.4,0.4c-0.4,0.3-0.6,0.6-0.7,1.1h-1.4c0.1-0.6,0.2-1.1,0.6-1.5c0.3-0.4,0.8-0.7,1.3-0.9c0.5-0.2,1-0.3,1.6-0.3
		c1.1,0,1.9,0.3,2.5,0.9c0.6,0.6,0.8,1.4,0.8,2.4v4.9H130l-0.1-1.4c-0.2,0.4-0.6,0.8-1,1.2C128.5,408.9,127.9,409.1,127.2,409.1z
		 M127.4,407.9c0.5,0,0.9-0.1,1.3-0.4c0.4-0.3,0.7-0.6,0.8-1s0.3-0.9,0.3-1.3v0h-2c-0.8,0-1.3,0.1-1.7,0.4c-0.3,0.3-0.5,0.6-0.5,1
		c0,0.4,0.2,0.8,0.4,1C126.4,407.8,126.8,407.9,127.4,407.9z M136.8,409.1c-0.8,0-1.4-0.2-2-0.5c-0.6-0.4-1.1-0.8-1.4-1.5
		c-0.3-0.6-0.5-1.4-0.5-2.2c0-0.8,0.2-1.6,0.5-2.2c0.4-0.6,0.8-1.1,1.4-1.5c0.6-0.4,1.3-0.5,2-0.5c0.9,0,1.7,0.2,2.4,0.7
		c0.6,0.5,1.1,1.1,1.2,2H139c-0.1-0.5-0.4-0.9-0.8-1.1c-0.4-0.3-0.9-0.4-1.5-0.4c-0.4,0-0.9,0.1-1.3,0.3c-0.4,0.2-0.7,0.6-1,1
		c-0.2,0.4-0.4,1-0.4,1.7s0.1,1.2,0.4,1.7c0.2,0.4,0.6,0.8,1,1c0.4,0.2,0.8,0.3,1.3,0.3c0.6,0,1-0.1,1.5-0.4
		c0.4-0.3,0.7-0.7,0.8-1.2h1.4c-0.2,0.8-0.6,1.5-1.2,2C138.5,408.8,137.8,409.1,136.8,409.1z M145.2,408.9c-0.7,0-1.3-0.2-1.7-0.5
		s-0.6-1-0.6-1.9v-4.4h-1.4V401h1.4l0.2-1.9h1.2v1.9h2.3v1.1h-2.3v4.4c0,0.5,0.1,0.8,0.3,1c0.2,0.2,0.6,0.3,1.1,0.3h0.8v1.2H145.2z
		 M149.1,399.2c-0.3,0-0.5-0.1-0.7-0.3c-0.2-0.2-0.3-0.4-0.3-0.7c0-0.3,0.1-0.5,0.3-0.6c0.2-0.2,0.4-0.3,0.7-0.3
		c0.3,0,0.5,0.1,0.7,0.3c0.2,0.2,0.3,0.4,0.3,0.6c0,0.3-0.1,0.5-0.3,0.7C149.6,399.1,149.3,399.2,149.1,399.2z M148.4,408.9V401h1.3
		v7.9H148.4z M155.1,409.1c-0.9,0-1.7-0.2-2.4-0.7c-0.6-0.5-1-1.1-1.1-2h1.4c0.1,0.4,0.3,0.8,0.7,1.1c0.4,0.3,0.8,0.4,1.5,0.4
		c0.6,0,1-0.1,1.2-0.4c0.3-0.2,0.4-0.5,0.4-0.9c0-0.5-0.2-0.8-0.5-1c-0.3-0.2-0.8-0.3-1.5-0.4c-0.4-0.1-0.9-0.2-1.3-0.4
		c-0.4-0.2-0.8-0.4-1.1-0.7c-0.3-0.3-0.4-0.7-0.4-1.2c0-0.7,0.3-1.3,0.8-1.7c0.5-0.4,1.2-0.7,2.1-0.7c0.8,0,1.5,0.2,2.1,0.6
		c0.5,0.4,0.9,1,0.9,1.8h-1.3c-0.1-0.4-0.2-0.7-0.5-0.9c-0.3-0.2-0.7-0.4-1.2-0.4c-0.5,0-0.9,0.1-1.1,0.3c-0.3,0.2-0.4,0.5-0.4,0.8
		c0,0.3,0.2,0.6,0.5,0.8c0.3,0.2,0.8,0.3,1.4,0.5c0.5,0.1,1,0.2,1.4,0.4c0.4,0.1,0.8,0.4,1.1,0.7c0.3,0.3,0.4,0.7,0.4,1.3
		c0,0.7-0.3,1.3-0.8,1.8C156.8,408.9,156.1,409.1,155.1,409.1z M163.7,409.1c-0.8,0-1.4-0.2-2-0.5c-0.6-0.4-1.1-0.8-1.4-1.5
		c-0.3-0.6-0.5-1.3-0.5-2.2c0-0.8,0.2-1.6,0.5-2.2c0.3-0.6,0.8-1.1,1.4-1.5c0.6-0.4,1.3-0.5,2.1-0.5c0.8,0,1.4,0.2,2,0.5
		c0.6,0.3,1,0.8,1.3,1.4c0.3,0.6,0.4,1.2,0.4,1.8c0,0.1,0,0.2,0,0.4c0,0.1,0,0.3,0,0.4h-6.3c0,0.6,0.2,1.1,0.4,1.5
		c0.3,0.4,0.6,0.7,0.9,0.9c0.4,0.2,0.8,0.3,1.2,0.3c0.6,0,1-0.1,1.4-0.4c0.4-0.3,0.6-0.6,0.8-1h1.3c-0.2,0.7-0.6,1.3-1.2,1.8
		C165.4,408.8,164.6,409.1,163.7,409.1z M163.7,401.9c-0.6,0-1.2,0.2-1.7,0.6c-0.5,0.4-0.8,0.9-0.8,1.7h5c0-0.7-0.3-1.3-0.7-1.7
		C164.9,402.1,164.3,401.9,163.7,401.9z M177,409.1c-0.8,0-1.4-0.2-2-0.5c-0.6-0.4-1.1-0.8-1.4-1.5c-0.3-0.6-0.5-1.3-0.5-2.2
		c0-0.8,0.2-1.6,0.5-2.2c0.3-0.6,0.8-1.1,1.4-1.5c0.6-0.4,1.3-0.5,2.1-0.5c0.8,0,1.4,0.2,2,0.5c0.6,0.3,1,0.8,1.3,1.4
		s0.4,1.2,0.4,1.8c0,0.1,0,0.2,0,0.4c0,0.1,0,0.3,0,0.4h-6.3c0,0.6,0.2,1.1,0.4,1.5c0.3,0.4,0.6,0.7,0.9,0.9
		c0.4,0.2,0.8,0.3,1.2,0.3c0.6,0,1-0.1,1.4-0.4c0.4-0.3,0.6-0.6,0.8-1h1.3c-0.2,0.7-0.6,1.3-1.2,1.8
		C178.7,408.8,177.9,409.1,177,409.1z M177,401.9c-0.6,0-1.2,0.2-1.7,0.6c-0.5,0.4-0.8,0.9-0.8,1.7h5c0-0.7-0.3-1.3-0.7-1.7
		C178.2,402.1,177.7,401.9,177,401.9z M185.2,409.1c-0.7,0-1.2-0.1-1.6-0.3c-0.4-0.2-0.8-0.5-1-0.9c-0.2-0.4-0.3-0.8-0.3-1.2
		c0-0.8,0.3-1.4,0.9-1.9c0.6-0.4,1.5-0.7,2.5-0.7h2.1V404c0-0.7-0.2-1.2-0.5-1.6c-0.4-0.4-0.8-0.5-1.5-0.5c-0.5,0-1,0.1-1.4,0.4
		c-0.4,0.3-0.6,0.6-0.7,1.1h-1.4c0.1-0.6,0.2-1.1,0.6-1.5c0.3-0.4,0.8-0.7,1.3-0.9c0.5-0.2,1-0.3,1.6-0.3c1.1,0,1.9,0.3,2.5,0.9
		c0.6,0.6,0.8,1.4,0.8,2.4v4.9H188l-0.1-1.4c-0.2,0.4-0.6,0.8-1,1.2C186.5,408.9,185.9,409.1,185.2,409.1z M185.4,407.9
		c0.5,0,0.9-0.1,1.3-0.4c0.4-0.3,0.7-0.6,0.8-1s0.3-0.9,0.3-1.3v0h-2c-0.8,0-1.4,0.1-1.7,0.4c-0.3,0.3-0.5,0.6-0.5,1
		c0,0.4,0.1,0.8,0.4,1C184.4,407.8,184.8,407.9,185.4,407.9z M194.8,409.1c-0.8,0-1.4-0.2-2-0.5c-0.6-0.4-1.1-0.8-1.4-1.5
		c-0.3-0.6-0.5-1.4-0.5-2.2c0-0.8,0.2-1.6,0.5-2.2c0.4-0.6,0.8-1.1,1.4-1.5c0.6-0.4,1.3-0.5,2-0.5c0.9,0,1.7,0.2,2.4,0.7
		c0.6,0.5,1.1,1.1,1.2,2h-1.4c-0.1-0.5-0.4-0.9-0.8-1.1c-0.4-0.3-0.9-0.4-1.5-0.4c-0.4,0-0.9,0.1-1.3,0.3c-0.4,0.2-0.7,0.6-1,1
		c-0.2,0.4-0.4,1-0.4,1.7s0.1,1.2,0.4,1.7c0.2,0.4,0.6,0.8,1,1c0.4,0.2,0.8,0.3,1.3,0.3c0.6,0,1-0.1,1.5-0.4
		c0.4-0.3,0.7-0.7,0.8-1.2h1.4c-0.2,0.8-0.6,1.5-1.2,2C196.6,408.8,195.8,409.1,194.8,409.1z M200.3,408.9v-11.5h1.3v4.9
		c0.3-0.5,0.6-0.9,1.1-1.1c0.5-0.3,1-0.4,1.6-0.4c0.9,0,1.7,0.3,2.2,0.9c0.6,0.6,0.8,1.4,0.8,2.6v4.6h-1.3v-4.5c0-1.7-0.7-2.5-2-2.5
		c-0.7,0-1.3,0.3-1.7,0.8c-0.5,0.5-0.7,1.2-0.7,2.1v4.1H200.3z M217.3,409.1c-0.8,0-1.5-0.2-2.1-0.5c-0.6-0.4-1-0.9-1.4-1.5
		c-0.3-0.6-0.5-1.3-0.5-2.1s0.2-1.5,0.5-2.1c0.3-0.6,0.8-1.1,1.4-1.5c0.6-0.4,1.3-0.5,2.1-0.5c0.7,0,1.2,0.1,1.7,0.4
		c0.5,0.3,0.9,0.6,1.2,1.1v-4.9h1.3v11.5h-1.2l-0.1-1.3c-0.3,0.4-0.6,0.7-1.1,1C218.6,408.9,218,409.1,217.3,409.1z M217.5,407.9
		c0.5,0,1-0.1,1.4-0.4c0.4-0.3,0.7-0.6,1-1.1c0.2-0.4,0.4-1,0.4-1.6s-0.1-1.1-0.4-1.6c-0.2-0.4-0.5-0.8-1-1
		c-0.4-0.3-0.9-0.4-1.4-0.4c-0.5,0-1,0.1-1.4,0.4c-0.4,0.2-0.7,0.6-1,1c-0.2,0.4-0.3,1-0.3,1.6s0.1,1.1,0.3,1.6
		c0.2,0.4,0.6,0.8,1,1.1C216.5,407.8,216.9,407.9,217.5,407.9z M226.4,409.1c-0.7,0-1.2-0.1-1.6-0.3c-0.4-0.2-0.8-0.5-1-0.9
		c-0.2-0.4-0.3-0.8-0.3-1.2c0-0.8,0.3-1.4,0.9-1.9c0.6-0.4,1.5-0.7,2.5-0.7h2.1V404c0-0.7-0.2-1.2-0.5-1.6c-0.4-0.4-0.8-0.5-1.5-0.5
		c-0.5,0-1,0.1-1.4,0.4c-0.4,0.3-0.6,0.6-0.7,1.1h-1.4c0.1-0.6,0.2-1.1,0.6-1.5c0.3-0.4,0.8-0.7,1.3-0.9c0.5-0.2,1-0.3,1.6-0.3
		c1.1,0,1.9,0.3,2.5,0.9c0.6,0.6,0.8,1.4,0.8,2.4v4.9h-1.2l-0.1-1.4c-0.2,0.4-0.6,0.8-1,1.2C227.7,408.9,227.1,409.1,226.4,409.1z
		 M226.6,407.9c0.5,0,0.9-0.1,1.3-0.4c0.4-0.3,0.7-0.6,0.8-1s0.3-0.9,0.3-1.3v0h-2c-0.8,0-1.3,0.1-1.7,0.4c-0.3,0.3-0.5,0.6-0.5,1
		c0,0.4,0.2,0.8,0.4,1C225.6,407.8,226.1,407.9,226.6,407.9z M233,412.4l2-4.3h-0.5l-3.2-7.2h1.5l2.6,6.2l2.8-6.2h1.4l-5.2,11.5H233
		z M240.4,409c-0.3,0-0.5-0.1-0.7-0.3c-0.2-0.2-0.3-0.4-0.3-0.7c0-0.3,0.1-0.5,0.3-0.6c0.2-0.2,0.4-0.3,0.7-0.3
		c0.3,0,0.5,0.1,0.6,0.3c0.2,0.2,0.3,0.4,0.3,0.6c0,0.3-0.1,0.5-0.3,0.7C240.9,408.9,240.7,409,240.4,409z"/>
	<path class="st1" d="M31.9,146.9l-3.5-12.6h1.6l2.7,10.8l3.1-10.8h1.7l3,10.8l2.8-10.8H45l-3.5,12.6h-1.7l-3-10.4l-3.1,10.4
		L31.9,146.9z M46.6,146.9v-13h1.5v5.6c0.3-0.6,0.7-1,1.3-1.3c0.6-0.3,1.2-0.5,1.8-0.5c1,0,1.9,0.3,2.5,1c0.6,0.6,0.9,1.6,0.9,3v5.2
		h-1.5v-5.1c0-1.9-0.8-2.8-2.2-2.8c-0.8,0-1.4,0.3-2,0.8c-0.5,0.6-0.8,1.3-0.8,2.4v4.6H46.6z M57.9,135.9c-0.3,0-0.6-0.1-0.8-0.3
		c-0.2-0.2-0.3-0.5-0.3-0.8c0-0.3,0.1-0.5,0.3-0.7c0.2-0.2,0.5-0.3,0.8-0.3c0.3,0,0.5,0.1,0.7,0.3c0.2,0.2,0.3,0.4,0.3,0.7
		c0,0.3-0.1,0.6-0.3,0.8C58.4,135.8,58.2,135.9,57.9,135.9z M57.1,146.9v-8.9h1.5v8.9H57.1z M65.4,147.1c-0.9,0-1.6-0.2-2.3-0.6
		c-0.7-0.4-1.2-0.9-1.6-1.6c-0.4-0.7-0.6-1.5-0.6-2.5c0-0.9,0.2-1.8,0.6-2.4c0.4-0.7,0.9-1.3,1.6-1.6c0.7-0.4,1.5-0.6,2.3-0.6
		c1.1,0,1.9,0.3,2.7,0.8c0.7,0.6,1.2,1.3,1.4,2.2h-1.5c-0.1-0.6-0.4-1-0.9-1.3c-0.5-0.3-1-0.5-1.6-0.5c-0.5,0-1,0.1-1.4,0.4
		c-0.4,0.3-0.8,0.6-1.1,1.1s-0.4,1.1-0.4,1.9c0,0.7,0.1,1.4,0.4,1.9s0.6,0.9,1.1,1.2c0.4,0.3,0.9,0.4,1.4,0.4c0.6,0,1.2-0.1,1.6-0.4
		c0.5-0.3,0.8-0.8,0.9-1.3h1.5c-0.2,0.9-0.6,1.6-1.4,2.2C67.3,146.8,66.4,147.1,65.4,147.1z M71.5,146.9v-13H73v5.6
		c0.3-0.6,0.7-1,1.3-1.3c0.6-0.3,1.2-0.5,1.8-0.5c1,0,1.9,0.3,2.5,1c0.6,0.6,0.9,1.6,0.9,3v5.2H78v-5.1c0-1.9-0.8-2.8-2.2-2.8
		c-0.8,0-1.4,0.3-2,0.8c-0.5,0.6-0.8,1.3-0.8,2.4v4.6H71.5z M90.7,147.1c-0.8,0-1.6-0.2-2.3-0.6c-0.7-0.4-1.2-0.9-1.6-1.6
		c-0.4-0.7-0.6-1.5-0.6-2.5s0.2-1.8,0.6-2.5c0.4-0.7,0.9-1.3,1.6-1.6c0.7-0.4,1.4-0.6,2.3-0.6c0.8,0,1.6,0.2,2.3,0.6
		c0.7,0.4,1.2,0.9,1.6,1.6c0.4,0.7,0.6,1.5,0.6,2.5s-0.2,1.8-0.6,2.5c-0.4,0.7-0.9,1.2-1.6,1.6C92.2,146.9,91.5,147.1,90.7,147.1z
		 M90.7,145.8c0.5,0,1-0.1,1.4-0.4c0.4-0.3,0.8-0.6,1.1-1.1s0.4-1.1,0.4-1.9c0-0.7-0.1-1.4-0.4-1.9c-0.3-0.5-0.6-0.9-1.1-1.1
		c-0.4-0.3-0.9-0.4-1.4-0.4c-0.5,0-1,0.1-1.4,0.4c-0.4,0.3-0.8,0.6-1.1,1.1s-0.4,1.1-0.4,1.9c0,0.7,0.1,1.4,0.4,1.9s0.6,0.9,1.1,1.1
		C89.7,145.6,90.1,145.8,90.7,145.8z M97.7,146.9v-7.6h-1.3v-1.3h1.3v-1.5c0-0.9,0.2-1.5,0.6-1.9c0.4-0.4,1.1-0.6,1.9-0.6h0.9v1.3
		h-0.7c-0.5,0-0.8,0.1-1,0.3c-0.2,0.2-0.3,0.5-0.3,0.9v1.5h2.2v1.3h-2.2v7.6H97.7z M111.5,146.9c-0.8,0-1.5-0.2-1.9-0.6
		c-0.5-0.4-0.7-1.1-0.7-2.1v-4.9h-1.5v-1.3h1.5l0.2-2.1h1.3v2.1h2.6v1.3h-2.6v4.9c0,0.6,0.1,0.9,0.3,1.2c0.2,0.2,0.6,0.3,1.2,0.3
		h0.9v1.3H111.5z M115,146.9v-13h1.5v5.6c0.3-0.6,0.7-1,1.3-1.3c0.6-0.3,1.2-0.5,1.8-0.5c1,0,1.9,0.3,2.5,1c0.6,0.6,0.9,1.6,0.9,3
		v5.2h-1.5v-5.1c0-1.9-0.8-2.8-2.2-2.8c-0.8,0-1.4,0.3-2,0.8c-0.5,0.6-0.8,1.3-0.8,2.4v4.6H115z M129.3,147.1
		c-0.9,0-1.6-0.2-2.3-0.6c-0.7-0.4-1.2-0.9-1.6-1.6c-0.4-0.7-0.6-1.5-0.6-2.5c0-0.9,0.2-1.8,0.6-2.4c0.4-0.7,0.9-1.3,1.5-1.6
		c0.7-0.4,1.4-0.6,2.3-0.6c0.9,0,1.6,0.2,2.2,0.6c0.6,0.4,1.1,0.9,1.5,1.5c0.3,0.6,0.5,1.3,0.5,2.1c0,0.1,0,0.3,0,0.4
		c0,0.1,0,0.3,0,0.4h-7.1c0,0.7,0.2,1.3,0.5,1.7c0.3,0.4,0.6,0.8,1.1,1c0.4,0.2,0.9,0.3,1.4,0.3c0.6,0,1.1-0.1,1.6-0.4
		c0.4-0.3,0.7-0.7,0.9-1.2h1.5c-0.2,0.8-0.7,1.5-1.4,2.1C131.2,146.8,130.3,147.1,129.3,147.1z M129.3,139c-0.7,0-1.4,0.2-1.9,0.7
		c-0.6,0.4-0.9,1.1-1,1.9h5.6c0-0.8-0.3-1.4-0.8-1.9C130.7,139.2,130,139,129.3,139z M143.7,147.1c-1.1,0-2-0.3-2.7-0.8
		c-0.7-0.5-1.1-1.3-1.2-2.2h1.5c0.1,0.5,0.3,0.9,0.7,1.2c0.4,0.3,1,0.5,1.6,0.5c0.6,0,1.1-0.1,1.4-0.4c0.3-0.3,0.5-0.6,0.5-1
		c0-0.5-0.2-0.9-0.6-1.1c-0.4-0.2-0.9-0.3-1.6-0.5c-0.5-0.1-1-0.2-1.4-0.4c-0.5-0.2-0.9-0.4-1.2-0.8c-0.3-0.3-0.5-0.8-0.5-1.3
		c0-0.8,0.3-1.4,0.9-1.9c0.6-0.5,1.4-0.8,2.4-0.8c0.9,0,1.7,0.2,2.3,0.7c0.6,0.5,1,1.1,1.1,2h-1.5c-0.1-0.5-0.3-0.8-0.6-1.1
		c-0.3-0.3-0.8-0.4-1.3-0.4c-0.5,0-1,0.1-1.3,0.3c-0.3,0.2-0.4,0.5-0.4,0.9c0,0.4,0.2,0.6,0.6,0.8c0.4,0.2,0.9,0.4,1.5,0.5
		c0.6,0.1,1.1,0.3,1.6,0.5c0.5,0.2,0.9,0.4,1.2,0.8c0.3,0.3,0.5,0.8,0.5,1.5c0,0.8-0.3,1.5-0.9,2
		C145.6,146.8,144.7,147.1,143.7,147.1z M149.3,146.9v-13h1.5v13H149.3z M157.3,147.1c-0.9,0-1.6-0.2-2.3-0.6
		c-0.7-0.4-1.2-0.9-1.6-1.6c-0.4-0.7-0.6-1.5-0.6-2.5c0-0.9,0.2-1.8,0.6-2.4c0.4-0.7,0.9-1.3,1.5-1.6c0.7-0.4,1.4-0.6,2.3-0.6
		c0.9,0,1.6,0.2,2.2,0.6c0.6,0.4,1.1,0.9,1.5,1.5c0.3,0.6,0.5,1.3,0.5,2.1c0,0.1,0,0.3,0,0.4c0,0.1,0,0.3,0,0.4h-7.1
		c0,0.7,0.2,1.3,0.5,1.7c0.3,0.4,0.6,0.8,1.1,1c0.4,0.2,0.9,0.3,1.4,0.3c0.6,0,1.1-0.1,1.6-0.4c0.4-0.3,0.7-0.7,0.9-1.2h1.5
		c-0.2,0.8-0.7,1.5-1.4,2.1C159.2,146.8,158.3,147.1,157.3,147.1z M157.3,139c-0.7,0-1.4,0.2-1.9,0.7c-0.6,0.4-0.9,1.1-1,1.9h5.6
		c0-0.8-0.3-1.4-0.8-1.9C158.7,139.2,158,139,157.3,139z M167.5,147.1c-0.9,0-1.6-0.2-2.3-0.6c-0.7-0.4-1.2-0.9-1.6-1.6
		c-0.4-0.7-0.6-1.5-0.6-2.5c0-0.9,0.2-1.8,0.6-2.4c0.4-0.7,0.9-1.3,1.5-1.6c0.7-0.4,1.4-0.6,2.3-0.6c0.9,0,1.6,0.2,2.2,0.6
		c0.6,0.4,1.1,0.9,1.5,1.5c0.3,0.6,0.5,1.3,0.5,2.1c0,0.1,0,0.3,0,0.4c0,0.1,0,0.3,0,0.4h-7.1c0,0.7,0.2,1.3,0.5,1.7
		c0.3,0.4,0.6,0.8,1.1,1c0.4,0.2,0.9,0.3,1.4,0.3c0.6,0,1.1-0.1,1.6-0.4c0.4-0.3,0.7-0.7,0.9-1.2h1.5c-0.2,0.8-0.7,1.5-1.4,2.1
		C169.4,146.8,168.6,147.1,167.5,147.1z M167.5,139c-0.7,0-1.4,0.2-1.9,0.7c-0.6,0.4-0.9,1.1-1,1.9h5.6c0-0.8-0.3-1.4-0.8-1.9
		C168.9,139.2,168.3,139,167.5,139z M173.8,150.8v-12.9h1.4l0.1,1.5c0.3-0.4,0.7-0.8,1.2-1.2c0.5-0.3,1.2-0.5,2.1-0.5
		c0.9,0,1.7,0.2,2.3,0.6c0.7,0.4,1.2,1,1.5,1.7c0.4,0.7,0.6,1.5,0.6,2.4c0,0.9-0.2,1.7-0.6,2.4c-0.4,0.7-0.9,1.2-1.5,1.7
		c-0.7,0.4-1.4,0.6-2.3,0.6c-0.7,0-1.4-0.1-2-0.5c-0.6-0.3-1-0.7-1.3-1.3v5.5H173.8z M178.4,145.8c0.6,0,1.1-0.1,1.6-0.4
		c0.5-0.3,0.8-0.7,1.1-1.2c0.3-0.5,0.4-1.1,0.4-1.8s-0.1-1.3-0.4-1.8c-0.3-0.5-0.6-0.9-1.1-1.2c-0.5-0.3-1-0.4-1.6-0.4
		s-1.1,0.1-1.6,0.4c-0.5,0.3-0.8,0.7-1.1,1.2c-0.3,0.5-0.4,1.1-0.4,1.8s0.1,1.3,0.4,1.8c0.3,0.5,0.6,0.9,1.1,1.2
		C177.2,145.6,177.8,145.8,178.4,145.8z M193.8,147.1c-0.9,0-1.6-0.2-2.3-0.6c-0.7-0.4-1.2-0.9-1.6-1.6c-0.4-0.7-0.6-1.5-0.6-2.5
		c0-0.9,0.2-1.8,0.6-2.4c0.4-0.7,0.9-1.3,1.5-1.6c0.7-0.4,1.4-0.6,2.3-0.6c0.9,0,1.6,0.2,2.2,0.6c0.6,0.4,1.1,0.9,1.5,1.5
		c0.3,0.6,0.5,1.3,0.5,2.1c0,0.1,0,0.3,0,0.4c0,0.1,0,0.3,0,0.4h-7.1c0,0.7,0.2,1.3,0.5,1.7c0.3,0.4,0.6,0.8,1.1,1
		c0.4,0.2,0.9,0.3,1.4,0.3c0.6,0,1.1-0.1,1.6-0.4c0.4-0.3,0.7-0.7,0.9-1.2h1.5c-0.2,0.8-0.7,1.5-1.4,2.1
		C195.8,146.8,194.9,147.1,193.8,147.1z M193.8,139c-0.7,0-1.4,0.2-1.9,0.7c-0.6,0.4-0.9,1.1-1,1.9h5.6c0-0.8-0.3-1.4-0.8-1.9
		C195.2,139.2,194.6,139,193.8,139z M200.1,146.9v-8.9h1.4l0.1,1.6c0.3-0.6,0.7-1,1.2-1.3c0.5-0.3,1.2-0.5,1.8-0.5
		c1.1,0,1.9,0.3,2.5,1c0.6,0.6,1,1.6,1,3v5.2h-1.5v-5.1c0-1.9-0.8-2.8-2.3-2.8c-0.8,0-1.4,0.3-1.9,0.8c-0.5,0.6-0.8,1.3-0.8,2.4v4.6
		H200.1z M212.8,146.9l-3.4-8.9h1.6l2.7,7.5l2.7-7.5h1.5l-3.4,8.9H212.8z M220.5,135.9c-0.3,0-0.6-0.1-0.8-0.3
		c-0.2-0.2-0.3-0.5-0.3-0.8c0-0.3,0.1-0.5,0.3-0.7c0.2-0.2,0.5-0.3,0.8-0.3c0.3,0,0.5,0.1,0.7,0.3c0.2,0.2,0.3,0.4,0.3,0.7
		c0,0.3-0.1,0.6-0.3,0.8C221,135.8,220.8,135.9,220.5,135.9z M219.7,146.9v-8.9h1.5v8.9H219.7z M223.9,146.9v-8.9h1.4l0.1,1.7
		c0.3-0.6,0.7-1.1,1.3-1.4c0.6-0.3,1.3-0.5,2.1-0.5v1.6h-0.4c-0.5,0-1,0.1-1.5,0.3c-0.4,0.2-0.8,0.5-1.1,0.9
		c-0.3,0.4-0.4,1.1-0.4,1.8v4.5H223.9z M234.2,147.1c-0.8,0-1.6-0.2-2.3-0.6c-0.7-0.4-1.2-0.9-1.6-1.6c-0.4-0.7-0.6-1.5-0.6-2.5
		s0.2-1.8,0.6-2.5c0.4-0.7,0.9-1.3,1.6-1.6c0.7-0.4,1.4-0.6,2.3-0.6s1.6,0.2,2.3,0.6s1.2,0.9,1.6,1.6c0.4,0.7,0.6,1.5,0.6,2.5
		s-0.2,1.8-0.6,2.5c-0.4,0.7-0.9,1.2-1.6,1.6C235.8,146.9,235,147.1,234.2,147.1z M234.2,145.8c0.5,0,1-0.1,1.4-0.4
		c0.4-0.3,0.8-0.6,1.1-1.1s0.4-1.1,0.4-1.9c0-0.7-0.1-1.4-0.4-1.9c-0.3-0.5-0.6-0.9-1.1-1.1c-0.4-0.3-0.9-0.4-1.4-0.4
		c-0.5,0-1,0.1-1.4,0.4c-0.4,0.3-0.8,0.6-1.1,1.1s-0.4,1.1-0.4,1.9c0,0.7,0.1,1.4,0.4,1.9s0.6,0.9,1.1,1.1
		C233.2,145.6,233.7,145.8,234.2,145.8z M240.7,146.9v-8.9h1.4l0.1,1.6c0.3-0.6,0.7-1,1.2-1.3c0.5-0.3,1.2-0.5,1.8-0.5
		c1.1,0,1.9,0.3,2.5,1c0.6,0.6,1,1.6,1,3v5.2h-1.5v-5.1c0-1.9-0.8-2.8-2.3-2.8c-0.8,0-1.4,0.3-1.9,0.8c-0.5,0.6-0.8,1.3-0.8,2.4v4.6
		H240.7z M251,146.9v-8.9h1.4l0.1,1.3c0.3-0.5,0.7-0.9,1.2-1.1c0.5-0.3,1-0.4,1.6-0.4c0.7,0,1.3,0.1,1.8,0.4
		c0.5,0.3,0.9,0.7,1.2,1.3c0.3-0.5,0.7-1,1.3-1.3c0.6-0.3,1.1-0.5,1.8-0.5c1.1,0,1.9,0.3,2.6,1c0.6,0.6,1,1.6,1,3v5.2h-1.5v-5.1
		c0-0.9-0.2-1.6-0.6-2.1c-0.4-0.5-0.9-0.7-1.6-0.7c-0.7,0-1.3,0.3-1.8,0.8c-0.5,0.6-0.7,1.3-0.7,2.4v4.6h-1.5v-5.1
		c0-0.9-0.2-1.6-0.6-2.1c-0.4-0.5-0.9-0.7-1.6-0.7c-0.7,0-1.3,0.3-1.8,0.8c-0.5,0.6-0.7,1.3-0.7,2.4v4.6H251z M271.2,147.1
		c-0.9,0-1.6-0.2-2.3-0.6c-0.7-0.4-1.2-0.9-1.6-1.6c-0.4-0.7-0.6-1.5-0.6-2.5c0-0.9,0.2-1.8,0.6-2.4c0.4-0.7,0.9-1.3,1.5-1.6
		c0.7-0.4,1.4-0.6,2.3-0.6c0.9,0,1.6,0.2,2.2,0.6c0.6,0.4,1.1,0.9,1.5,1.5c0.3,0.6,0.5,1.3,0.5,2.1c0,0.1,0,0.3,0,0.4
		c0,0.1,0,0.3,0,0.4h-7.1c0,0.7,0.2,1.3,0.5,1.7c0.3,0.4,0.6,0.8,1.1,1c0.4,0.2,0.9,0.3,1.4,0.3c0.6,0,1.1-0.1,1.6-0.4
		c0.4-0.3,0.7-0.7,0.9-1.2h1.5c-0.2,0.8-0.7,1.5-1.4,2.1C273.1,146.8,272.2,147.1,271.2,147.1z M271.2,139c-0.7,0-1.4,0.2-1.9,0.7
		c-0.6,0.4-0.9,1.1-1,1.9h5.6c0-0.8-0.3-1.4-0.8-1.9C272.6,139.2,271.9,139,271.2,139z M277.4,146.9v-8.9h1.4l0.1,1.6
		c0.3-0.6,0.7-1,1.2-1.3c0.5-0.3,1.2-0.5,1.8-0.5c1.1,0,1.9,0.3,2.5,1c0.6,0.6,1,1.6,1,3v5.2h-1.5v-5.1c0-1.9-0.8-2.8-2.3-2.8
		c-0.8,0-1.4,0.3-1.9,0.8c-0.5,0.6-0.8,1.3-0.8,2.4v4.6H277.4z M291.2,146.9c-0.8,0-1.5-0.2-1.9-0.6c-0.5-0.4-0.7-1.1-0.7-2.1v-4.9
		H287v-1.3h1.5l0.2-2.1h1.3v2.1h2.6v1.3h-2.6v4.9c0,0.6,0.1,0.9,0.3,1.2c0.2,0.2,0.6,0.3,1.2,0.3h0.9v1.3H291.2z M32.7,171.1
		c-1.1,0-2-0.3-2.7-0.8s-1.1-1.3-1.2-2.2h1.5c0.1,0.5,0.3,0.9,0.7,1.2c0.4,0.3,1,0.5,1.6,0.5c0.6,0,1.1-0.1,1.4-0.4
		c0.3-0.3,0.5-0.6,0.5-1c0-0.5-0.2-0.9-0.6-1.1c-0.4-0.2-0.9-0.3-1.6-0.5c-0.5-0.1-1-0.2-1.4-0.4s-0.9-0.4-1.2-0.8
		c-0.3-0.3-0.5-0.8-0.5-1.3c0-0.8,0.3-1.4,0.9-1.9c0.6-0.5,1.4-0.8,2.4-0.8c0.9,0,1.7,0.2,2.3,0.7c0.6,0.5,1,1.1,1.1,2h-1.5
		c-0.1-0.5-0.3-0.8-0.6-1.1c-0.3-0.3-0.8-0.4-1.3-0.4c-0.5,0-1,0.1-1.3,0.3c-0.3,0.2-0.4,0.5-0.4,0.9c0,0.4,0.2,0.6,0.6,0.8
		c0.4,0.2,0.9,0.4,1.5,0.5c0.6,0.1,1.1,0.3,1.6,0.5c0.5,0.2,0.9,0.4,1.2,0.8c0.3,0.3,0.5,0.8,0.5,1.5c0,0.8-0.3,1.5-0.9,2
		C34.6,170.8,33.7,171.1,32.7,171.1z M41.4,170.9c-0.8,0-1.5-0.2-1.9-0.6c-0.5-0.4-0.7-1.1-0.7-2.1v-4.9h-1.5v-1.3h1.5l0.2-2.1h1.3
		v2.1h2.6v1.3h-2.6v4.9c0,0.6,0.1,0.9,0.3,1.2c0.2,0.2,0.6,0.3,1.2,0.3h0.9v1.3H41.4z M44.8,170.9v-8.9h1.4l0.1,1.7
		c0.3-0.6,0.7-1.1,1.3-1.4c0.6-0.3,1.3-0.5,2.1-0.5v1.6h-0.4c-0.5,0-1,0.1-1.5,0.3c-0.4,0.2-0.8,0.5-1.1,0.9s-0.4,1.1-0.4,1.8v4.5
		H44.8z M54.3,171.1c-0.7,0-1.4-0.1-1.9-0.4c-0.5-0.3-0.9-0.6-1.1-1c-0.2-0.4-0.4-0.9-0.4-1.4c0-0.9,0.3-1.6,1-2.1
		c0.7-0.5,1.6-0.7,2.8-0.7h2.4v-0.1c0-0.8-0.2-1.4-0.6-1.8c-0.4-0.4-1-0.6-1.6-0.6c-0.6,0-1.1,0.1-1.5,0.5c-0.4,0.3-0.7,0.7-0.8,1.3
		h-1.5c0.1-0.6,0.3-1.2,0.6-1.6c0.4-0.4,0.9-0.8,1.4-1c0.6-0.2,1.2-0.4,1.8-0.4c1.2,0,2.2,0.3,2.8,1c0.6,0.7,1,1.5,1,2.6v5.5h-1.3
		l-0.1-1.6c-0.3,0.5-0.6,0.9-1.1,1.3C55.8,170.9,55.1,171.1,54.3,171.1z M54.5,169.8c0.6,0,1.1-0.1,1.5-0.4c0.4-0.3,0.7-0.7,1-1.2
		c0.2-0.5,0.3-1,0.3-1.5v0H55c-0.9,0-1.5,0.2-1.9,0.5c-0.4,0.3-0.5,0.7-0.5,1.1c0,0.5,0.2,0.8,0.5,1.1
		C53.4,169.7,53.9,169.8,54.5,169.8z M64.4,170.9c-0.8,0-1.5-0.2-1.9-0.6s-0.7-1.1-0.7-2.1v-4.9h-1.5v-1.3h1.5l0.2-2.1h1.3v2.1h2.6
		v1.3h-2.6v4.9c0,0.6,0.1,0.9,0.3,1.2c0.2,0.2,0.6,0.3,1.2,0.3h0.9v1.3H64.4z M71.6,171.1c-0.9,0-1.6-0.2-2.3-0.6
		c-0.7-0.4-1.2-0.9-1.6-1.6c-0.4-0.7-0.6-1.5-0.6-2.5c0-0.9,0.2-1.8,0.6-2.4c0.4-0.7,0.9-1.3,1.5-1.6c0.7-0.4,1.4-0.6,2.3-0.6
		c0.9,0,1.6,0.2,2.2,0.6c0.6,0.4,1.1,0.9,1.5,1.5c0.3,0.6,0.5,1.3,0.5,2.1c0,0.1,0,0.3,0,0.4c0,0.1,0,0.3,0,0.4h-7.1
		c0,0.7,0.2,1.3,0.5,1.7c0.3,0.4,0.6,0.8,1.1,1c0.4,0.2,0.9,0.3,1.4,0.3c0.6,0,1.1-0.1,1.6-0.4c0.4-0.3,0.7-0.7,0.9-1.2h1.5
		c-0.2,0.8-0.7,1.5-1.4,2.1C73.5,170.8,72.6,171.1,71.6,171.1z M71.6,163c-0.7,0-1.4,0.2-1.9,0.7c-0.6,0.4-0.9,1.1-1,1.9h5.6
		c0-0.8-0.3-1.4-0.8-1.9S72.3,163,71.6,163z M81.3,168c-0.5,0-1-0.1-1.4-0.2l-0.9,0.8c0.1,0.1,0.3,0.2,0.5,0.3
		c0.2,0.1,0.5,0.1,0.9,0.2c0.4,0,0.9,0.1,1.6,0.2c1.2,0.1,2.1,0.4,2.6,0.8c0.5,0.5,0.8,1.1,0.8,1.8c0,0.5-0.1,1-0.4,1.5
		c-0.3,0.5-0.7,0.9-1.3,1.2c-0.6,0.3-1.3,0.4-2.2,0.4c-0.8,0-1.5-0.1-2.1-0.3c-0.6-0.2-1.1-0.5-1.5-1c-0.3-0.4-0.5-1-0.5-1.6
		c0-0.3,0.1-0.7,0.3-1.1c0.2-0.4,0.5-0.8,1-1.1c-0.3-0.1-0.5-0.2-0.7-0.3c-0.2-0.1-0.3-0.3-0.5-0.4v-0.4l1.5-1.5
		c-0.7-0.6-1.1-1.4-1.1-2.4c0-0.6,0.1-1.1,0.4-1.6s0.7-0.9,1.2-1.1c0.5-0.3,1.2-0.4,1.9-0.4c0.5,0,1,0.1,1.4,0.2H86v1.1l-1.7,0.1
		c0.3,0.5,0.5,1.1,0.5,1.7c0,0.6-0.1,1.1-0.4,1.6c-0.3,0.5-0.7,0.9-1.2,1.2C82.7,167.9,82,168,81.3,168z M81.3,166.8
		c0.6,0,1.1-0.2,1.5-0.5c0.4-0.3,0.6-0.8,0.6-1.4c0-0.6-0.2-1.1-0.6-1.4c-0.4-0.3-0.9-0.5-1.5-0.5c-0.6,0-1.2,0.2-1.5,0.5
		c-0.4,0.3-0.6,0.8-0.6,1.4c0,0.6,0.2,1.1,0.6,1.4C80.1,166.6,80.6,166.8,81.3,166.8z M78.6,172c0,0.6,0.3,1,0.8,1.3
		c0.5,0.3,1.1,0.4,1.9,0.4c0.7,0,1.3-0.2,1.8-0.5c0.5-0.3,0.7-0.8,0.7-1.3c0-0.4-0.2-0.7-0.5-1c-0.3-0.3-0.9-0.4-1.7-0.5
		c-0.7,0-1.2-0.1-1.7-0.2c-0.5,0.3-0.8,0.5-1,0.8C78.7,171.5,78.6,171.8,78.6,172z M88.6,159.9c-0.3,0-0.6-0.1-0.8-0.3
		c-0.2-0.2-0.3-0.5-0.3-0.8c0-0.3,0.1-0.5,0.3-0.7c0.2-0.2,0.5-0.3,0.8-0.3c0.3,0,0.5,0.1,0.7,0.3c0.2,0.2,0.3,0.4,0.3,0.7
		c0,0.3-0.1,0.6-0.3,0.8C89.1,159.8,88.9,159.9,88.6,159.9z M87.8,170.9v-8.9h1.5v8.9H87.8z M96,171.1c-0.9,0-1.6-0.2-2.3-0.6
		c-0.7-0.4-1.2-0.9-1.6-1.6c-0.4-0.7-0.6-1.5-0.6-2.5c0-0.9,0.2-1.8,0.6-2.4c0.4-0.7,0.9-1.3,1.5-1.6c0.7-0.4,1.4-0.6,2.3-0.6
		c0.9,0,1.6,0.2,2.2,0.6c0.6,0.4,1.1,0.9,1.5,1.5c0.3,0.6,0.5,1.3,0.5,2.1c0,0.1,0,0.3,0,0.4c0,0.1,0,0.3,0,0.4h-7.1
		c0,0.7,0.2,1.3,0.5,1.7c0.3,0.4,0.6,0.8,1.1,1c0.4,0.2,0.9,0.3,1.4,0.3c0.6,0,1.1-0.1,1.6-0.4c0.4-0.3,0.7-0.7,0.9-1.2h1.5
		c-0.2,0.8-0.7,1.5-1.4,2.1C97.9,170.8,97,171.1,96,171.1z M96,163c-0.7,0-1.4,0.2-1.9,0.7c-0.6,0.4-0.9,1.1-1,1.9h5.6
		c0-0.8-0.3-1.4-0.8-1.9S96.7,163,96,163z M105.6,171.1c-1.1,0-2-0.3-2.7-0.8s-1.1-1.3-1.2-2.2h1.5c0.1,0.5,0.3,0.9,0.7,1.2
		c0.4,0.3,1,0.5,1.6,0.5c0.6,0,1.1-0.1,1.4-0.4c0.3-0.3,0.5-0.6,0.5-1c0-0.5-0.2-0.9-0.6-1.1c-0.4-0.2-0.9-0.3-1.6-0.5
		c-0.5-0.1-1-0.2-1.4-0.4c-0.5-0.2-0.9-0.4-1.2-0.8c-0.3-0.3-0.5-0.8-0.5-1.3c0-0.8,0.3-1.4,0.9-1.9c0.6-0.5,1.4-0.8,2.4-0.8
		c0.9,0,1.7,0.2,2.3,0.7c0.6,0.5,1,1.1,1.1,2h-1.5c-0.1-0.5-0.3-0.8-0.6-1.1c-0.3-0.3-0.8-0.4-1.3-0.4c-0.5,0-1,0.1-1.3,0.3
		c-0.3,0.2-0.4,0.5-0.4,0.9c0,0.4,0.2,0.6,0.6,0.8c0.4,0.2,0.9,0.4,1.5,0.5c0.6,0.1,1.1,0.3,1.6,0.5c0.5,0.2,0.9,0.4,1.2,0.8
		c0.3,0.3,0.5,0.8,0.5,1.5c0,0.8-0.3,1.5-0.9,2C107.5,170.8,106.7,171.1,105.6,171.1z M116.9,159.9c-0.3,0-0.6-0.1-0.8-0.3
		c-0.2-0.2-0.3-0.5-0.3-0.8c0-0.3,0.1-0.5,0.3-0.7c0.2-0.2,0.5-0.3,0.8-0.3c0.3,0,0.5,0.1,0.7,0.3c0.2,0.2,0.3,0.4,0.3,0.7
		c0,0.3-0.1,0.6-0.3,0.8C117.4,159.8,117.2,159.9,116.9,159.9z M116.2,170.9v-8.9h1.5v8.9H116.2z M123.7,171.1c-1.1,0-2-0.3-2.7-0.8
		c-0.7-0.5-1.1-1.3-1.2-2.2h1.5c0.1,0.5,0.3,0.9,0.7,1.2c0.4,0.3,1,0.5,1.6,0.5c0.6,0,1.1-0.1,1.4-0.4c0.3-0.3,0.4-0.6,0.4-1
		c0-0.5-0.2-0.9-0.6-1.1c-0.4-0.2-0.9-0.3-1.6-0.5c-0.5-0.1-1-0.2-1.4-0.4c-0.5-0.2-0.9-0.4-1.2-0.8c-0.3-0.3-0.5-0.8-0.5-1.3
		c0-0.8,0.3-1.4,0.9-1.9c0.6-0.5,1.4-0.8,2.4-0.8c0.9,0,1.7,0.2,2.3,0.7c0.6,0.5,1,1.1,1.1,2h-1.5c-0.1-0.5-0.3-0.8-0.6-1.1
		c-0.3-0.3-0.8-0.4-1.3-0.4c-0.5,0-1,0.1-1.3,0.3c-0.3,0.2-0.4,0.5-0.4,0.9c0,0.4,0.2,0.6,0.6,0.8c0.4,0.2,0.9,0.4,1.5,0.5
		c0.6,0.1,1.1,0.3,1.6,0.5c0.5,0.2,0.9,0.4,1.2,0.8c0.3,0.3,0.5,0.8,0.5,1.5c0,0.8-0.3,1.5-0.9,2
		C125.6,170.8,124.8,171.1,123.7,171.1z M134.1,170.9v-8.9h1.4l0.1,1.3c0.3-0.5,0.7-0.9,1.2-1.1c0.5-0.3,1-0.4,1.6-0.4
		c0.7,0,1.3,0.1,1.8,0.4c0.5,0.3,0.9,0.7,1.2,1.3c0.3-0.5,0.7-1,1.3-1.3c0.6-0.3,1.1-0.5,1.8-0.5c1.1,0,1.9,0.3,2.6,1
		c0.6,0.6,1,1.6,1,3v5.2h-1.5v-5.1c0-0.9-0.2-1.6-0.6-2.1c-0.4-0.5-0.9-0.7-1.6-0.7c-0.7,0-1.3,0.3-1.8,0.8
		c-0.5,0.6-0.7,1.3-0.7,2.4v4.6h-1.5v-5.1c0-0.9-0.2-1.6-0.6-2.1c-0.4-0.5-0.9-0.7-1.6-0.7c-0.7,0-1.3,0.3-1.8,0.8
		c-0.5,0.6-0.7,1.3-0.7,2.4v4.6H134.1z M154.2,171.1c-0.8,0-1.6-0.2-2.3-0.6c-0.7-0.4-1.2-0.9-1.6-1.6c-0.4-0.7-0.6-1.5-0.6-2.5
		s0.2-1.8,0.6-2.5c0.4-0.7,0.9-1.3,1.6-1.6c0.7-0.4,1.4-0.6,2.3-0.6c0.8,0,1.6,0.2,2.3,0.6s1.2,0.9,1.6,1.6c0.4,0.7,0.6,1.5,0.6,2.5
		s-0.2,1.8-0.6,2.5c-0.4,0.7-0.9,1.2-1.6,1.6C155.8,170.9,155.1,171.1,154.2,171.1z M154.2,169.8c0.5,0,1-0.1,1.4-0.4
		c0.4-0.3,0.8-0.6,1.1-1.1s0.4-1.1,0.4-1.9c0-0.7-0.1-1.4-0.4-1.9c-0.3-0.5-0.6-0.9-1.1-1.1c-0.4-0.3-0.9-0.4-1.4-0.4
		c-0.5,0-1,0.1-1.4,0.4c-0.4,0.3-0.8,0.6-1.1,1.1s-0.4,1.1-0.4,1.9c0,0.7,0.1,1.4,0.4,1.9s0.6,0.9,1.1,1.1
		C153.3,169.6,153.7,169.8,154.2,169.8z M164.2,171.1c-1.1,0-2-0.3-2.7-0.8c-0.7-0.5-1.1-1.3-1.2-2.2h1.5c0.1,0.5,0.3,0.9,0.7,1.2
		c0.4,0.3,1,0.5,1.6,0.5c0.6,0,1.1-0.1,1.4-0.4c0.3-0.3,0.4-0.6,0.4-1c0-0.5-0.2-0.9-0.6-1.1c-0.4-0.2-0.9-0.3-1.6-0.5
		c-0.5-0.1-1-0.2-1.4-0.4c-0.5-0.2-0.9-0.4-1.2-0.8c-0.3-0.3-0.5-0.8-0.5-1.3c0-0.8,0.3-1.4,0.9-1.9c0.6-0.5,1.4-0.8,2.4-0.8
		c0.9,0,1.7,0.2,2.3,0.7c0.6,0.5,1,1.1,1.1,2h-1.5c-0.1-0.5-0.3-0.8-0.6-1.1c-0.3-0.3-0.8-0.4-1.3-0.4c-0.5,0-1,0.1-1.3,0.3
		c-0.3,0.2-0.4,0.5-0.4,0.9c0,0.4,0.2,0.6,0.6,0.8c0.4,0.2,0.9,0.4,1.5,0.5c0.6,0.1,1.1,0.3,1.6,0.5c0.5,0.2,0.9,0.4,1.2,0.8
		c0.3,0.3,0.5,0.8,0.5,1.5c0,0.8-0.3,1.5-0.9,2C166.1,170.8,165.3,171.1,164.2,171.1z M172.9,170.9c-0.8,0-1.5-0.2-1.9-0.6
		c-0.5-0.4-0.7-1.1-0.7-2.1v-4.9h-1.5v-1.3h1.5l0.2-2.1h1.3v2.1h2.6v1.3h-2.6v4.9c0,0.6,0.1,0.9,0.3,1.2c0.2,0.2,0.6,0.3,1.2,0.3
		h0.9v1.3H172.9z M181.1,170.9v-8.9h1.4l0.1,1.7c0.3-0.6,0.7-1.1,1.3-1.4c0.6-0.3,1.3-0.5,2.1-0.5v1.6h-0.4c-0.5,0-1,0.1-1.5,0.3
		c-0.4,0.2-0.8,0.5-1.1,0.9c-0.3,0.4-0.4,1.1-0.4,1.8v4.5H181.1z M191.4,171.1c-0.9,0-1.6-0.2-2.3-0.6c-0.7-0.4-1.2-0.9-1.6-1.6
		c-0.4-0.7-0.6-1.5-0.6-2.5c0-0.9,0.2-1.8,0.6-2.4c0.4-0.7,0.9-1.3,1.5-1.6c0.7-0.4,1.4-0.6,2.3-0.6c0.9,0,1.6,0.2,2.2,0.6
		c0.6,0.4,1.1,0.9,1.5,1.5c0.3,0.6,0.5,1.3,0.5,2.1c0,0.1,0,0.3,0,0.4c0,0.1,0,0.3,0,0.4h-7.1c0,0.7,0.2,1.3,0.5,1.7
		c0.3,0.4,0.6,0.8,1.1,1c0.4,0.2,0.9,0.3,1.4,0.3c0.6,0,1.1-0.1,1.6-0.4c0.4-0.3,0.7-0.7,0.9-1.2h1.5c-0.2,0.8-0.7,1.5-1.4,2.1
		C193.3,170.8,192.4,171.1,191.4,171.1z M191.4,163c-0.7,0-1.4,0.2-1.9,0.7c-0.6,0.4-0.9,1.1-1,1.9h5.6c0-0.8-0.3-1.4-0.8-1.9
		C192.7,163.2,192.1,163,191.4,163z M197.6,170.9v-13h1.5v13H197.6z M205.6,171.1c-0.9,0-1.6-0.2-2.3-0.6c-0.7-0.4-1.2-0.9-1.6-1.6
		c-0.4-0.7-0.6-1.5-0.6-2.5c0-0.9,0.2-1.8,0.6-2.4c0.4-0.7,0.9-1.3,1.5-1.6c0.7-0.4,1.4-0.6,2.3-0.6c0.9,0,1.6,0.2,2.2,0.6
		c0.6,0.4,1.1,0.9,1.5,1.5c0.3,0.6,0.5,1.3,0.5,2.1c0,0.1,0,0.3,0,0.4c0,0.1,0,0.3,0,0.4h-7.1c0,0.7,0.2,1.3,0.5,1.7
		c0.3,0.4,0.6,0.8,1.1,1c0.4,0.2,0.9,0.3,1.4,0.3c0.6,0,1.1-0.1,1.6-0.4c0.4-0.3,0.7-0.7,0.9-1.2h1.5c-0.2,0.8-0.7,1.5-1.4,2.1
		C207.5,170.8,206.6,171.1,205.6,171.1z M205.6,163c-0.7,0-1.4,0.2-1.9,0.7c-0.6,0.4-0.9,1.1-1,1.9h5.6c0-0.8-0.3-1.4-0.8-1.9
		S206.3,163,205.6,163z M214,170.9l-3.4-8.9h1.6l2.7,7.5l2.7-7.5h1.5l-3.4,8.9H214z M223.4,171.1c-0.7,0-1.4-0.1-1.9-0.4
		c-0.5-0.3-0.9-0.6-1.1-1c-0.2-0.4-0.4-0.9-0.4-1.4c0-0.9,0.3-1.6,1-2.1c0.7-0.5,1.6-0.7,2.8-0.7h2.4v-0.1c0-0.8-0.2-1.4-0.6-1.8
		c-0.4-0.4-1-0.6-1.6-0.6c-0.6,0-1.1,0.1-1.5,0.5c-0.4,0.3-0.7,0.7-0.8,1.3h-1.5c0.1-0.6,0.3-1.2,0.6-1.6c0.4-0.4,0.9-0.8,1.4-1
		c0.6-0.2,1.2-0.4,1.8-0.4c1.2,0,2.2,0.3,2.8,1c0.6,0.7,1,1.5,1,2.6v5.5h-1.3l-0.1-1.6c-0.3,0.5-0.6,0.9-1.1,1.3
		C224.8,170.9,224.2,171.1,223.4,171.1z M223.6,169.8c0.6,0,1.1-0.1,1.5-0.4c0.4-0.3,0.7-0.7,1-1.2c0.2-0.5,0.3-1,0.3-1.5v0h-2.3
		c-0.9,0-1.5,0.2-1.9,0.5c-0.4,0.3-0.5,0.7-0.5,1.1c0,0.5,0.2,0.8,0.5,1.1C222.5,169.7,223,169.8,223.6,169.8z M230.1,170.9v-8.9
		h1.4l0.1,1.6c0.3-0.6,0.7-1,1.2-1.3c0.5-0.3,1.2-0.5,1.8-0.5c1.1,0,1.9,0.3,2.5,1c0.6,0.6,1,1.6,1,3v5.2h-1.5v-5.1
		c0-1.9-0.8-2.8-2.3-2.8c-0.8,0-1.4,0.3-1.9,0.8c-0.5,0.6-0.8,1.3-0.8,2.4v4.6H230.1z M244,170.9c-0.8,0-1.5-0.2-1.9-0.6
		c-0.5-0.4-0.7-1.1-0.7-2.1v-4.9h-1.5v-1.3h1.5l0.2-2.1h1.3v2.1h2.6v1.3h-2.6v4.9c0,0.6,0.1,0.9,0.3,1.2c0.2,0.2,0.6,0.3,1.2,0.3
		h0.9v1.3H244z M255.7,170.9c-0.8,0-1.5-0.2-1.9-0.6c-0.5-0.4-0.7-1.1-0.7-2.1v-4.9h-1.5v-1.3h1.5l0.2-2.1h1.3v2.1h2.6v1.3h-2.6v4.9
		c0,0.6,0.1,0.9,0.3,1.2c0.2,0.2,0.6,0.3,1.2,0.3h0.9v1.3H255.7z M263,171.1c-0.8,0-1.6-0.2-2.3-0.6c-0.7-0.4-1.2-0.9-1.6-1.6
		c-0.4-0.7-0.6-1.5-0.6-2.5s0.2-1.8,0.6-2.5c0.4-0.7,0.9-1.3,1.6-1.6c0.7-0.4,1.4-0.6,2.3-0.6s1.6,0.2,2.3,0.6s1.2,0.9,1.6,1.6
		c0.4,0.7,0.6,1.5,0.6,2.5s-0.2,1.8-0.6,2.5c-0.4,0.7-0.9,1.2-1.6,1.6C264.5,170.9,263.8,171.1,263,171.1z M263,169.8
		c0.5,0,1-0.1,1.4-0.4c0.4-0.3,0.8-0.6,1.1-1.1s0.4-1.1,0.4-1.9c0-0.7-0.1-1.4-0.4-1.9c-0.3-0.5-0.6-0.9-1.1-1.1
		c-0.4-0.3-0.9-0.4-1.4-0.4c-0.5,0-1,0.1-1.4,0.4c-0.4,0.3-0.8,0.6-1.1,1.1s-0.4,1.1-0.4,1.9c0,0.7,0.1,1.4,0.4,1.9s0.6,0.9,1.1,1.1
		C262,169.6,262.4,169.8,263,169.8z M275.3,174.8l2.2-4.8H277l-3.5-8.1h1.6l3,6.9l3.1-6.9h1.6l-5.8,12.9H275.3z M287.5,171.1
		c-0.8,0-1.6-0.2-2.3-0.6c-0.7-0.4-1.2-0.9-1.6-1.6c-0.4-0.7-0.6-1.5-0.6-2.5s0.2-1.8,0.6-2.5c0.4-0.7,0.9-1.3,1.6-1.6
		c0.7-0.4,1.4-0.6,2.3-0.6s1.6,0.2,2.3,0.6s1.2,0.9,1.6,1.6c0.4,0.7,0.6,1.5,0.6,2.5s-0.2,1.8-0.6,2.5c-0.4,0.7-0.9,1.2-1.6,1.6
		C289.1,170.9,288.4,171.1,287.5,171.1z M287.5,169.8c0.5,0,1-0.1,1.4-0.4c0.4-0.3,0.8-0.6,1.1-1.1s0.4-1.1,0.4-1.9
		c0-0.7-0.1-1.4-0.4-1.9c-0.3-0.5-0.6-0.9-1.1-1.1c-0.4-0.3-0.9-0.4-1.4-0.4c-0.5,0-1,0.1-1.4,0.4c-0.4,0.3-0.8,0.6-1.1,1.1
		c-0.3,0.5-0.4,1.1-0.4,1.9c0,0.7,0.1,1.4,0.4,1.9c0.3,0.5,0.6,0.9,1.1,1.1C286.5,169.6,287,169.8,287.5,169.8z M297.4,171.1
		c-1.1,0-1.9-0.3-2.5-1c-0.6-0.6-0.9-1.6-0.9-3v-5.2h1.5v5.1c0,1.9,0.8,2.8,2.3,2.8c0.8,0,1.4-0.3,1.9-0.8c0.5-0.6,0.8-1.4,0.8-2.4
		v-4.6h1.5v8.9h-1.4l-0.1-1.6c-0.3,0.6-0.7,1-1.2,1.3C298.7,170.9,298.1,171.1,297.4,171.1z M305.9,167.3l-0.1-2.9h0.6
		c0.7,0,1.3-0.1,1.9-0.2c0.6-0.1,1.1-0.4,1.4-0.8c0.4-0.4,0.5-1,0.5-1.7c0-0.7-0.2-1.3-0.7-1.8c-0.5-0.4-1.1-0.6-1.8-0.6
		c-0.8,0-1.4,0.2-1.8,0.6c-0.4,0.4-0.7,1-0.7,1.7h-1.4c0-0.7,0.2-1.4,0.5-1.9c0.3-0.5,0.8-1,1.4-1.3c0.6-0.3,1.3-0.5,2.1-0.5
		s1.5,0.2,2.1,0.5c0.6,0.3,1.1,0.7,1.4,1.3s0.5,1.2,0.5,2c0,0.9-0.2,1.6-0.6,2.2c-0.4,0.6-0.9,1-1.6,1.2c-0.7,0.3-1.4,0.4-2.3,0.4
		l-0.1,1.9H305.9z M306.5,170.9c-0.3,0-0.6-0.1-0.8-0.3c-0.2-0.2-0.3-0.5-0.3-0.7s0.1-0.5,0.3-0.7c0.2-0.2,0.5-0.3,0.8-0.3
		c0.3,0,0.5,0.1,0.7,0.3c0.2,0.2,0.3,0.4,0.3,0.7s-0.1,0.5-0.3,0.7C307.1,170.8,306.8,170.9,306.5,170.9z"/>
	<g>
		<defs>
			<rect id="SVGID_1_" x="30" y="197.9" width="248" height="148"/>
		</defs>
		<clipPath id="SVGID_2_">
			<use xlink:href="#SVGID_1_"  style="overflow:visible;"/>
		</clipPath>
		<g class="st2">
			<path class="st3" d="M58.7,212.1c0.2,7.8-5.6,13.4-13.4,13.4c-7.8,0-15.3-4.4-15.3-12.2c0-7.8,6.8-16,14.8-15.4
				C52.6,198.5,58.4,203.3,58.7,212.1z"/>
			<path class="st0" d="M41.6,219c-0.4,0-0.8-0.1-1.1-0.4l0,0l-4.1-3.7c-0.4-0.4-0.5-1.1-0.1-1.5c0.4-0.4,1.1-0.5,1.5-0.1l3.7,3.3
				l9.5-11.9c0.4-0.5,1-0.5,1.5-0.2c0.5,0.4,0.5,1,0.2,1.5l-9.8,12.3C42.5,218.8,42.1,219,41.6,219z"/>
			<path class="st3" d="M58.7,252.5c0.2,7.8-5.6,13.4-13.4,13.4S30,261.4,30,253.7c0-7.8,6.8-16,14.8-15.4
				C52.6,238.8,58.4,243.7,58.7,252.5z"/>
			<path class="st0" d="M41.6,259.3c-0.4,0-0.8-0.1-1.1-0.4l0,0l-4.1-3.7c-0.4-0.4-0.5-1.1-0.1-1.5s1.1-0.5,1.5-0.1l3.7,3.3
				l9.5-11.9c0.4-0.5,1-0.5,1.5-0.2c0.5,0.4,0.5,1,0.2,1.5l-9.8,12.3C42.5,259.1,42.1,259.3,41.6,259.3z"/>
			<path class="st3" d="M58.7,292.8c0.2,7.8-5.6,13.4-13.4,13.4S30,301.8,30,294c0-7.8,6.8-16,14.8-15.4
				C52.6,279.2,58.4,284,58.7,292.8z"/>
			<path class="st0" d="M41.6,299.7c-0.4,0-0.8-0.1-1.1-0.4l0,0l-4.1-3.7c-0.4-0.4-0.5-1.1-0.1-1.5c0.4-0.4,1.1-0.5,1.5-0.1l3.7,3.3
				l9.5-11.9c0.4-0.5,1-0.5,1.5-0.2c0.5,0.4,0.5,1,0.2,1.5l-9.8,12.3C42.5,299.5,42.1,299.7,41.6,299.7z"/>
			<path class="st3" d="M58.7,332.5c0.2,7.8-5.6,13.4-13.4,13.4c-7.8,0-15.3-4.4-15.3-12.2c0-7.8,6.8-16,14.8-15.4
				C52.6,318.8,58.4,323.7,58.7,332.5z"/>
			<path class="st0" d="M41.6,339.3c-0.4,0-0.8-0.1-1.1-0.4l0,0l-4.1-3.7c-0.4-0.4-0.5-1.1-0.1-1.5c0.4-0.4,1.1-0.5,1.5-0.1l3.7,3.3
				l9.5-11.9c0.4-0.5,1-0.5,1.5-0.2c0.5,0.4,0.5,1,0.2,1.5l-9.8,12.3C42.5,339.1,42.1,339.3,41.6,339.3z"/>
			<path class="st3" d="M74.9,204.4c0.4-0.4,0.7-0.6,0.9-0.6c0.2-0.1,0.4-0.1,0.8-0.1c0.5,0,0.9,0.1,1.2,0.4
				c0.3,0.3,0.4,0.5,0.4,0.6c0,0.2-0.1,0.4-0.3,0.6c-0.2,0.2-0.5,0.5-0.8,0.6c-0.4,0.2-0.7,0.6-1,1.1c-0.2,0.5-0.4,1.3-0.6,2.4
				c-0.1,0.8-0.2,1.4-0.2,2c0,0.2,0,0.9,0.1,2.2c0.2,1.8,0.3,2.8,0.4,3.1c0.3,0.7,0.8,1.1,1.5,1.1c0.3,0,0.6,0.1,0.8,0.2
				c0.2,0.2,0.3,0.3,0.3,0.6c0,0.1,0,0.1,0,0.2c-0.2,0.6-0.7,0.9-1.5,0.9c-0.4,0-0.9-0.1-1.5-0.2c-0.4-0.1-0.7-0.2-0.9-0.4
				c-0.2-0.1-0.3-0.3-0.5-0.7c-0.3-0.5-0.5-1-0.7-1.5c-0.3-0.9-0.5-2.8-0.5-5.6c0-0.8,0-1.4,0.1-1.8c0.2-1.6,0.4-2.7,0.7-3.3
				C73.8,205.6,74.2,205,74.9,204.4z"/>
			<path class="st3" d="M83.1,204.5l0.6-0.7h3.9l0.6,0.6c0.4,0.4,0.7,0.9,0.8,1.5c0.2,0.6,0.3,1.5,0.4,2.8c0,0.5,0.1,1.2,0.1,2.1
				c0,2.1-0.2,4-0.6,5.8c-0.4,1.7-0.9,2.9-1.6,3.5c-0.2,0.2-0.5,0.4-0.9,0.5c-0.4,0.1-0.7,0.2-1,0.2c-0.1,0-0.2,0-0.3-0.1
				c-0.2-0.1-0.4-0.2-0.7-0.2c-0.2,0-0.5-0.2-0.7-0.5c-0.3-0.3-0.5-0.7-0.7-1.2c-0.3-0.8-0.5-1.7-0.6-2.7c-0.1-1-0.1-2.5-0.2-4.6
				v-1.5c0-1.9,0-3.3,0.1-3.9C82.5,205.5,82.7,204.9,83.1,204.5z M86,206c-0.2-0.4-0.3-0.6-0.5-0.6c-0.1,0-0.3,0.3-0.5,1
				c-0.2,0.5-0.2,1.5-0.2,2.9c0,1.1,0,2.3,0.1,3.5c0.1,1.2,0.2,2.3,0.4,3.4c0.2,1.1,0.4,1.6,0.5,1.6c0.1,0,0.2-0.2,0.3-0.7
				c0.1-0.4,0.2-0.7,0.3-0.9c0.1-0.1,0.2-1,0.3-2.7c0.1-0.9,0.1-1.7,0.1-2.4C86.8,208.6,86.6,207,86,206z"/>
			<path class="st3" d="M101.2,204.4c0.3-0.1,0.5-0.2,0.8-0.2c0.5,0,0.9,0.2,1.2,0.6c0.2,0.2,0.3,1.1,0.5,2.7c0.2,1.5,0.3,3.2,0.3,5
				c0,0.6,0.1,1.4,0.1,2.5c0,1.1,0.1,2,0.1,2.8c0,0.8,0.1,1.4,0.1,1.9c0,0.3-0.2,0.5-0.5,0.7c-0.3,0.2-0.7,0.3-1,0.3
				c-0.3,0-0.5-0.1-0.7-0.2l-0.4-0.3l-0.1-3.8c-0.1-4.3-0.3-6.5-0.6-6.5c-0.1,0-0.4,0.5-0.7,1.6c-0.2,0.6-0.4,1-0.6,1.3
				c-0.2,0.2-0.4,0.4-0.7,0.4c-0.2,0-0.5-0.1-0.8-0.2c-0.4-0.1-0.7-0.5-0.9-1c-0.2-0.5-0.4-0.8-0.4-0.9c0-0.1-0.1-0.2-0.2-0.4
				s-0.2-0.4-0.4-0.6s-0.2-0.3-0.2-0.2v0.4c0,0.9,0,2.2,0.1,4l0.2,4.3l-0.4,0.6c-0.5,0.7-0.9,1.1-1.2,1.1c-0.2,0-0.4-0.2-0.6-0.5
				c-0.2-0.2-0.3-0.6-0.3-1.1c0-0.5-0.1-2.1-0.2-4.7c-0.1-4.8-0.2-7.5-0.3-8.2c0-0.1,0-0.2,0-0.4c0-0.2,0.1-0.5,0.3-0.7
				c0.2-0.2,0.6-0.4,0.9-0.4c0.3,0,0.7,0.1,1.2,0.3c0.4,0.2,0.7,0.4,1,0.8c0.2,0.3,0.8,1.2,1.6,2.8c0.2,0.4,0.4,0.6,0.5,0.6
				c0.1,0,0.2-0.1,0.3-0.4c0.1-0.4,0.3-0.8,0.5-1.2c0.3-0.6,0.4-1,0.4-1c0-0.2,0.1-0.5,0.4-1C100.8,204.8,101.1,204.5,101.2,204.4z"
				/>
			<path class="st3" d="M109.6,204.7c0.5,0,1.1-0.1,1.6-0.1c0.5,0,0.8,0,1,0c1,0,1.6,0.2,1.8,0.4c0.2,0.2,0.3,0.4,0.3,0.6
				c0,0.5-0.5,0.9-1.4,1.1c-0.2,0-0.8,0.2-1.6,0.4l-0.7,0.2v2.1c0,1,0,1.6,0,1.8c0,0.2,0.1,0.3,0.4,0.4c0.2,0.1,0.5,0.2,1,0.2
				c0.4,0,0.6,0.1,0.8,0.3c0.2,0.2,0.2,0.5,0.2,0.7c0,0.5-0.4,0.8-1.3,1c-0.5,0.1-0.8,0.2-0.9,0.3c-0.1,0.1-0.1,0.2-0.1,0.5
				c0,0.2,0.1,1.9,0.4,5l0.1,0.8c0,0.2-0.1,0.4-0.4,0.6c-0.2,0.1-0.4,0.2-0.7,0.2c-0.4,0-0.8-0.2-1.3-0.6c-0.4-0.3-0.5-0.7-0.5-1.1
				v-0.2c0-0.2,0-0.6,0-1.1c0-0.5,0-1,0-1.3c0-4-0.1-7-0.2-8.9c-0.1-0.8-0.1-1.4-0.1-1.8c0-0.6,0.1-0.9,0.3-1
				C108.5,204.9,108.9,204.8,109.6,204.7z"/>
			<path class="st3" d="M119,204.5l0.6-0.7h3.9l0.6,0.6c0.4,0.4,0.7,0.9,0.9,1.5c0.2,0.6,0.3,1.5,0.4,2.8c0,0.5,0.1,1.2,0.1,2.1
				c0,2.1-0.2,4-0.6,5.8c-0.4,1.7-0.9,2.9-1.6,3.5c-0.2,0.2-0.5,0.4-0.9,0.5c-0.4,0.1-0.7,0.2-1,0.2c-0.1,0-0.2,0-0.3-0.1
				c-0.2-0.1-0.4-0.2-0.7-0.2c-0.2,0-0.5-0.2-0.7-0.5c-0.3-0.3-0.5-0.7-0.7-1.2c-0.3-0.8-0.5-1.7-0.6-2.7c-0.1-1-0.1-2.5-0.2-4.6
				v-1.5c0-1.9,0-3.3,0.1-3.9C118.4,205.5,118.7,204.9,119,204.5z M122,206c-0.2-0.4-0.3-0.6-0.5-0.6c-0.1,0-0.3,0.3-0.5,1
				c-0.2,0.5-0.2,1.5-0.2,2.9c0,1.1,0,2.3,0.1,3.5c0.1,1.2,0.2,2.3,0.4,3.4c0.2,1.1,0.4,1.6,0.5,1.6c0.1,0,0.2-0.2,0.3-0.7
				c0.1-0.4,0.2-0.7,0.3-0.9c0.1-0.1,0.2-1,0.3-2.7c0.1-0.9,0.1-1.7,0.1-2.4C122.8,208.6,122.5,207,122,206z"/>
			<path class="st3" d="M130.3,203.2c0.4-0.1,0.9-0.2,1.4-0.2c0.6,0,1.1,0.1,1.4,0.2c0.5,0.2,1,0.6,1.3,1.2c0.1,0.3,0.2,0.8,0.4,1.6
				c0.1,0.8,0.2,1.5,0.2,2.1c0,0.3,0,0.5,0,0.6c-0.1,0.5-0.2,1.1-0.4,1.7c-0.2,0.6-0.4,1-0.5,1c-0.2,0-0.2,0.1-0.2,0.4
				c0,0.2,0.1,0.4,0.2,0.7c0.3,0.5,0.8,1.4,1.4,2.6c0.6,1.3,0.9,2.1,1,2.4c0,0.1,0,0.2,0,0.4c0,0.3-0.1,0.5-0.2,0.7
				c-0.2,0.2-0.4,0.4-0.6,0.4c-0.2,0-0.4,0-0.6,0c-0.5-0.1-0.9-0.1-1-0.2c-0.1-0.1-0.2-0.2-0.2-0.5c0-0.4-0.2-1.1-0.6-1.9
				c-0.4-0.9-0.8-1.3-1-1.3h0c-0.1,0-0.1,0.3-0.1,0.7c0,0.6,0.1,1.3,0.2,2.1c0,0.3,0.1,0.6,0.1,0.7c0,0.7-0.2,1.1-0.5,1.3
				c-0.1,0.1-0.3,0.1-0.5,0.1c-0.7,0-1.1-0.2-1.3-0.5c-0.1-0.2-0.2-1.6-0.2-4.2c0-0.9,0-1.8-0.1-2.7c0-1,0-1.7,0-2.1
				c0-0.4,0-1-0.1-1.7c-0.1-0.7-0.1-1.5-0.2-2.4c-0.1-1-0.1-1.6-0.1-1.7c0-0.5,0.1-0.8,0.2-1C129.6,203.5,129.9,203.3,130.3,203.2z
				 M132.2,205.5c-0.1-0.2-0.2-0.2-0.3-0.2c-0.1,0-0.2,0.1-0.3,0.2c-0.1,0.1-0.1,0.3,0,0.4c0,0,0.1,0.7,0.2,2c0.1,1.3,0.2,2,0.2,2
				c0,0,0.1,0,0.3-0.2c0.1-0.2,0.2-0.5,0.2-1.1c0-0.4,0-0.7,0-1C132.4,206.4,132.3,205.7,132.2,205.5z"/>
			<path class="st3" d="M140.9,203.1c0.3-0.2,0.8-0.4,1.4-0.4h0.7c1.1,0,1.8,0.1,2,0.2c0.1,0,0.4,0.1,0.9,0.1c0.5,0,0.8,0.1,1,0.3
				c0.2,0.2,0.3,0.4,0.3,0.8c0,0.4-0.1,0.7-0.2,0.8c-0.1,0.2-0.4,0.3-0.8,0.3c-0.4,0.1-0.7,0.2-0.8,0.2c-0.1,0.1-0.2,2.1-0.2,5.9
				c0,2.7,0,4.5,0.1,5.7c0,0.9,0.1,1.3,0.1,1.4c0,0.4-0.1,0.8-0.3,1.1c-0.2,0.4-0.6,0.6-1.1,0.6c-0.3,0-0.6-0.1-1-0.3l-0.6-0.3
				l0.1-7.1c0-1.8,0.1-3.7,0.1-5.5c0-1.1-0.1-1.7-0.2-1.8c-0.2-0.1-0.4-0.2-0.5-0.2c-0.1,0-0.2,0-0.3,0c-0.4,0-0.7-0.1-0.9-0.3
				c-0.2-0.2-0.4-0.5-0.4-0.8C140.4,203.7,140.5,203.4,140.9,203.1z"/>
			<path class="st3" d="M153.7,206c0.5-0.5,1.4-0.8,2.4-0.8c0.5,0,0.9,0.1,1.2,0.2c0.4,0.2,0.8,0.8,0.9,1.8c0.1,0.8,0.3,2.1,0.5,4
				c0.2,1.9,0.3,3.4,0.4,4.4c0,1,0.1,2,0.2,3.3c0.1,1.2,0.2,1.9,0.3,2c0,0,0,0.1,0,0.1c0,0.2-0.1,0.4-0.2,0.7
				c-0.2,0.3-0.3,0.4-0.5,0.5c0,0-0.1,0-0.3,0c-0.3,0-0.7-0.1-1-0.2c-0.4-0.1-0.6-0.3-0.7-0.5c-0.1-0.2-0.2-0.7-0.3-1.7
				c-0.1-1-0.2-1.8-0.2-2.4c0-0.6-0.1-0.9-0.2-1c-0.1-0.1-0.6-0.1-1.4-0.1c-0.7,0-1.1,0-1.1,0.1c0,0.1,0,0.2,0,0.4
				c0,0.4,0,1,0.1,1.7c0.1,0.8,0.1,1.5,0.1,2v0.3c0,0.1-0.2,0.3-0.5,0.4c-0.3,0.1-0.6,0.2-0.8,0.2c-0.1,0-0.2,0-0.3,0
				c-0.7-0.2-1.1-0.5-1.2-0.9c0,0,0-0.1,0-0.1c0-0.1,0-0.1,0-0.2c0-0.9,0.1-2.7,0.3-5.6c0.2-2.9,0.4-4.5,0.5-5
				c0.1-0.6,0.4-1.2,0.7-1.9C153.1,206.8,153.4,206.3,153.7,206z M155.9,209.2c-0.1-0.6-0.3-0.9-0.4-0.9c-0.1,0-0.3,0.2-0.5,0.6
				c-0.4,0.8-0.7,2-0.8,3.4c0,0.6-0.1,1-0.1,1c0,0.3,0.1,0.5,0.2,0.5c0.1,0.1,0.4,0.1,0.9,0.1c0.6,0,1-0.1,1-0.2
				c0-0.1,0.1-0.3,0.1-0.8C156.2,211.6,156.1,210.3,155.9,209.2z"/>
			<path class="st3" d="M164.3,204.3c0.2-0.1,0.5-0.1,0.9-0.1c0.7,0,1.4,0.2,2.2,0.5c0.8,0.3,1.3,0.7,1.6,1.1
				c0.3,0.5,0.5,1.1,0.5,1.7c0,0.7-0.2,1.6-0.7,2.7l-0.3,0.8l0.5,0.5c0.4,0.4,0.7,0.8,0.9,1.3c0.2,0.5,0.3,1,0.3,1.5
				c0,0.5,0,0.9,0,1.2c0,0.9-0.1,1.5-0.2,1.8c-0.1,0.3-0.2,0.7-0.5,1.2c-0.5,1-0.9,1.7-1.3,2c-0.4,0.3-1,0.5-1.7,0.5
				c-0.8,0-1.3,0-1.5,0h0c-0.3,0-0.6-0.2-0.9-0.5c-0.3-0.3-0.5-0.7-0.5-1.2c0-0.1,0-0.3,0-0.6c0-0.6,0-1.2,0.1-1.8
				c0.1-1,0.2-3.7,0.2-7.9c0-2.2,0-3.4-0.1-3.5c0,0,0-0.1,0-0.2c0-0.2,0.1-0.4,0.2-0.6C164,204.5,164.1,204.3,164.3,204.3z
				 M167.4,213.4c-0.1-0.2-0.3-0.2-0.5-0.2c-0.2,0-0.4,0.1-0.5,0.3c-0.1,0.2-0.2,1.3-0.2,3.3c0,1,0,1.5,0.1,1.6c0,0,0,0,0.1,0
				c0.1,0,0.3-0.2,0.5-0.5c0.2-0.3,0.4-0.7,0.6-1.1c0.2-0.5,0.3-1.3,0.3-2.2C167.7,214,167.6,213.6,167.4,213.4z M166.7,207.3
				c0-0.2-0.1-0.3-0.3-0.3c-0.1,0-0.2,0.4-0.2,1.2c0,0.7,0,1.1,0.1,1.1h0c0.1-0.1,0.2-0.3,0.3-0.6c0.1-0.3,0.1-0.6,0.1-0.7
				c0-0.1,0-0.2,0-0.4C166.7,207.4,166.7,207.3,166.7,207.3z"/>
			<path class="st3" d="M174.3,204c0.2-0.2,0.4-0.3,0.6-0.3c0.2,0,0.3,0,0.5,0c0.5,0.1,0.8,0.2,0.9,0.3c0.2,0.3,0.4,2.2,0.4,5.6v1.9
				v1.7c0,2.7,0,4.2,0.1,4.4c0.1,0.4,0.4,0.5,1,0.5c0.3,0,0.5,0,0.8,0c0.2,0,0.4,0,0.6,0c0.4,0,0.7,0.1,0.8,0.2
				c0.2,0.1,0.2,0.3,0.2,0.6c0,0.2,0,0.4-0.1,0.5c-0.1,0.1-0.3,0.3-0.6,0.5c-0.6,0.3-1.2,0.5-1.8,0.5c-0.9,0-1.3,0.1-1.4,0.1
				c0,0-0.1,0-0.2,0c-0.2,0-0.5-0.1-0.9-0.2c-0.3-0.1-0.6-0.3-0.7-0.5c-0.3-0.4-0.5-1.4-0.5-3.2c0-0.4,0-1.2,0.1-2.4
				c0-1.1,0.1-2.2,0.1-3.5c0-3-0.1-4.9-0.2-5.6c0-0.3-0.1-0.5-0.1-0.5C174,204.4,174.1,204.2,174.3,204z"/>
			<path class="st3" d="M185.6,204.9c0.2-0.1,0.6-0.1,1-0.1c1.1,0,1.9,0.1,2.2,0.4c0.2,0.2,0.3,0.4,0.3,0.7c0,0.3-0.1,0.5-0.3,0.7
				c-0.2,0.2-0.5,0.3-0.8,0.3c-0.3,0-0.5,0.1-0.6,0.2c-0.1,0.2-0.2,0.5-0.2,1.1c0,0.2,0,0.7,0.1,1.6c0,1,0.1,1.7,0.1,2
				c0,0.3,0.1,0.5,0.2,0.5c0,0,0.2,0,0.4,0c0.2,0,0.5,0,0.6,0c0.5,0,0.9,0.1,1.1,0.4c0.1,0.1,0.2,0.3,0.2,0.4c0,0.3-0.4,0.6-1.3,1
				c-0.5,0.2-0.8,0.3-0.9,0.4c-0.1,0.1-0.2,0.3-0.2,0.7c0,0.3-0.1,0.6-0.1,0.9c0,1,0.1,1.8,0.3,2.3c0.1,0.2,0.2,0.3,0.3,0.4
				c0.1,0,0.3,0.1,0.7,0.1c0.4,0,0.8,0.1,1.1,0.3c0.3,0.2,0.5,0.4,0.5,0.7c0,0.2-0.2,0.4-0.5,0.7c-0.5,0.5-1.3,0.7-2.5,0.7
				c-1.2,0-2-0.3-2.4-0.8c-0.2-0.3-0.3-2-0.4-5.3c0-4.1-0.1-6.5-0.1-7.2l-0.1-2.3l0.4-0.2C185,205.1,185.3,205,185.6,204.9z"/>
			<path class="st3" d="M205,203.8c0.2-0.1,0.5-0.2,0.9-0.2c0.2,0,0.4,0,0.6,0c0.6,0.1,1,0.1,1.2,0.2c0.2,0.1,0.4,0.3,0.6,0.6
				c0.2,0.3,0.3,0.7,0.3,1c0,0.4-0.1,0.7-0.4,1c-0.2,0.2-0.5,0.4-0.8,0.4c-0.3,0-0.6-0.2-0.8-0.5c-0.2-0.3-0.4-0.4-0.6-0.4
				c-0.2,0-0.4,0.1-0.6,0.4c-0.2,0.3-0.3,0.6-0.3,0.9v0.1c0,1.1,0.9,3.3,2.6,6.3c0.3,0.5,0.6,1.4,0.9,2.7c0,0.1,0,0.2,0,0.4
				c0,1.1-0.2,2-0.7,2.6c-0.2,0.3-0.6,0.5-1,0.7c-0.5,0.2-0.9,0.3-1.3,0.3c0,0-0.1,0-0.1,0c0,0-0.1,0-0.1,0
				c-0.5-0.1-1.1-0.4-1.7-1.1c-0.7-0.6-1-1.1-1-1.5c0-0.2,0.1-0.4,0.3-0.6c0.2-0.2,0.4-0.3,0.7-0.4c0,0,0.1,0,0.2,0
				c0.2,0,0.6,0.3,1.1,1c0.2,0.3,0.4,0.4,0.6,0.4c0.2,0,0.4-0.1,0.5-0.4c0-0.1,0.1-0.2,0.1-0.5c0-1.2-0.5-2.9-1.6-5.2
				c-1-2.2-1.5-3.8-1.5-4.8c0-0.5,0.1-0.9,0.2-1.3c0.3-0.8,0.6-1.3,0.8-1.6C204.2,204.2,204.6,204,205,203.8z"/>
			<path class="st3" d="M213.8,204.9c0.2-0.1,0.6-0.1,1-0.1c1.1,0,1.9,0.1,2.2,0.4c0.2,0.2,0.3,0.4,0.3,0.7c0,0.3-0.1,0.5-0.3,0.7
				c-0.2,0.2-0.5,0.3-0.8,0.3c-0.3,0-0.5,0.1-0.6,0.2c-0.1,0.2-0.2,0.5-0.2,1.1c0,0.2,0,0.7,0.1,1.6c0,1,0.1,1.7,0.1,2
				c0.1,0.3,0.1,0.5,0.2,0.5c0,0,0.2,0,0.4,0c0.2,0,0.5,0,0.6,0c0.5,0,0.9,0.1,1.1,0.4c0.1,0.1,0.2,0.3,0.2,0.4c0,0.3-0.4,0.6-1.3,1
				c-0.5,0.2-0.8,0.3-0.9,0.4c-0.1,0.1-0.2,0.3-0.2,0.7c0,0.3-0.1,0.6-0.1,0.9c0,1,0.1,1.8,0.3,2.3c0.1,0.2,0.2,0.3,0.3,0.4
				c0.1,0,0.3,0.1,0.7,0.1c0.4,0,0.8,0.1,1.1,0.3c0.3,0.2,0.5,0.4,0.5,0.7c0,0.2-0.2,0.4-0.5,0.7c-0.5,0.5-1.3,0.7-2.5,0.7
				c-1.2,0-2-0.3-2.4-0.8c-0.2-0.3-0.3-2-0.4-5.3c0-4.1-0.1-6.5-0.1-7.2l-0.1-2.3l0.4-0.2C213.2,205.1,213.5,205,213.8,204.9z"/>
			<path class="st3" d="M223,203.1c0.3-0.2,0.8-0.4,1.4-0.4h0.7c1.1,0,1.8,0.1,2,0.2c0.1,0,0.4,0.1,0.9,0.1c0.5,0,0.8,0.1,1,0.3
				c0.2,0.2,0.3,0.4,0.3,0.8c0,0.4-0.1,0.7-0.2,0.8c-0.1,0.2-0.4,0.3-0.8,0.3c-0.4,0.1-0.7,0.2-0.8,0.2c-0.1,0.1-0.2,2.1-0.2,5.9
				c0,2.7,0,4.5,0.1,5.7c0,0.9,0.1,1.3,0.1,1.4c0,0.4-0.1,0.8-0.3,1.1c-0.2,0.4-0.6,0.6-1.1,0.6c-0.3,0-0.6-0.1-1-0.3l-0.6-0.3
				l0.1-7.1c0-1.8,0.1-3.7,0.1-5.5c0-1.1-0.1-1.7-0.2-1.8c-0.2-0.1-0.4-0.2-0.5-0.2c-0.1,0-0.2,0-0.3,0c-0.4,0-0.7-0.1-0.9-0.3
				c-0.2-0.2-0.4-0.5-0.4-0.8C222.5,203.7,222.7,203.4,223,203.1z"/>
			<path class="st3" d="M234,203.1c0.3-0.2,0.8-0.4,1.4-0.4h0.7c1.1,0,1.8,0.1,2,0.2c0.1,0,0.4,0.1,0.9,0.1c0.5,0,0.8,0.1,1,0.3
				c0.2,0.2,0.3,0.4,0.3,0.8c0,0.4-0.1,0.7-0.2,0.8c-0.1,0.2-0.4,0.3-0.8,0.3c-0.4,0.1-0.7,0.2-0.8,0.2c-0.1,0.1-0.2,2.1-0.2,5.9
				c0,2.7,0,4.5,0.1,5.7c0,0.9,0.1,1.3,0.1,1.4c0,0.4-0.1,0.8-0.3,1.1c-0.2,0.4-0.6,0.6-1.1,0.6c-0.3,0-0.6-0.1-1-0.3l-0.6-0.3
				l0.1-7.1c0-1.8,0.1-3.7,0.1-5.5c0-1.1-0.1-1.7-0.2-1.8c-0.2-0.1-0.4-0.2-0.5-0.2c-0.1,0-0.2,0-0.3,0c-0.4,0-0.7-0.1-0.9-0.3
				c-0.2-0.2-0.4-0.5-0.4-0.8C233.5,203.7,233.7,203.4,234,203.1z"/>
			<path class="st3" d="M244.7,203.1c0.2-0.3,0.6-0.4,1-0.4c0.4,0,0.7,0.1,0.9,0.4l0.4,0.4l0.2,7c0.1,3.9,0.2,6.1,0.2,6.7
				c0,0.3,0,0.6,0,0.8c0,0.2,0,0.4,0,0.5c0,0.1,0,0.2-0.1,0.3c-0.1,0.1-0.1,0.1-0.1,0.1c0,0,0,0-0.1,0.1c-0.1,0-0.1,0.1-0.2,0.1
				c-0.2,0.1-0.4,0.2-0.6,0.2c-0.1,0-0.3,0-0.6-0.2c-0.5-0.2-0.8-0.4-0.9-0.5c-0.1-0.1-0.1-2.6-0.2-7.5c0-4.9-0.1-7.4-0.2-7.4
				C244.3,203.5,244.4,203.3,244.7,203.1z"/>
			<path class="st3" d="M251.9,204.2c0.3-0.1,0.6-0.2,0.9-0.2c0.6,0,1,0.4,1.3,1.2c0.2,0.6,0.4,1.2,0.7,1.9c0.3,0.7,0.6,1.2,0.7,1.6
				c0.2,0.7,0.4,1.1,0.6,1.3c0.1,0.1,0.1,0.1,0.2,0.1c0.1,0,0.2-0.4,0.2-1.3c0-0.8,0.1-1.4,0.1-1.7v-0.4c0-0.2,0-0.4,0-0.6
				c0-0.5,0.1-0.9,0.4-1.2c0.2-0.3,0.6-0.5,1.2-0.5c0.4,0,0.7,0.1,0.9,0.3c0.2,0.2,0.3,0.4,0.3,0.7c0,0.4,0,0.8-0.1,1.1
				c0,0.4-0.1,2.9-0.1,7.6c0,2.9,0,4.7-0.1,5.3c0,0.6-0.1,1-0.2,1.1c-0.2,0.2-0.5,0.3-1,0.3c-0.9,0-1.4-0.4-1.6-1.3
				c-0.1-0.3-0.3-1-0.6-1.9c-0.3-0.8-0.5-1.6-0.6-2.2c-0.2-0.9-0.5-2-0.9-3.4c0-0.1-0.1-0.2-0.1-0.2c-0.1,0-0.2,0.9-0.2,2.6v1.5v1.6
				c0,1.7,0,2.6-0.1,2.9c-0.2,0.6-0.7,0.9-1.3,0.9c-0.4,0-0.7-0.1-1-0.4c-0.2-0.2-0.3-0.4-0.3-0.6c0,0,0-0.2,0.1-0.6
				c0.1-0.7,0.2-3.2,0.2-7.5c0-4.8,0.1-7.3,0.1-7.6c0-0.2,0.2-0.3,0.3-0.3C251.8,204.2,251.9,204.2,251.9,204.2z"/>
			<path class="st3" d="M264.5,205.6c0-0.1,0.1-0.3,0.3-0.4c0.2-0.1,0.5-0.3,0.8-0.4c0.3-0.1,0.5-0.2,0.6-0.3
				c0.1-0.1,0.2-0.2,0.3-0.2c0.2,0,0.5,0.1,0.9,0.4c0.5,0.3,0.8,0.6,0.8,0.9c0,0.1,0,0.1,0,0.2c0,0.2-0.3,0.4-0.9,0.6
				c-0.6,0.3-1,0.6-1.2,0.9c-0.3,0.6-0.5,2.1-0.5,4.5c0,0.8,0,1.4,0.1,1.8c0.2,2.7,0.5,4.3,0.6,4.6l0,0c0.2,0,0.3-0.8,0.3-2.3
				c0-0.9,0.1-1.4,0.2-1.7c0.1-0.4,0-0.7-0.2-0.9c-0.2-0.3-0.4-0.6-0.4-0.8c0-0.2,0.1-0.4,0.2-0.6c0.2-0.2,0.7-0.4,1.4-0.4
				c0.5,0,0.8,0,1,0.1c0.2,0,0.3,0.2,0.5,0.3c0.2,0.2,0.3,0.5,0.3,0.9c0,0.3,0,0.7-0.1,1.2c-0.1,0.7-0.2,1.8-0.3,3
				c-0.1,1.5-0.3,2.5-0.5,2.9c-0.3,0.5-0.5,0.9-0.7,1c-0.2,0.2-0.5,0.3-1,0.5c-0.3,0.1-0.6,0.2-0.9,0.2c-0.4,0-0.8-0.2-1.2-0.5
				c-0.5-0.4-0.9-1.4-1.3-3c-0.1-0.3-0.1-0.6-0.2-0.7c0-0.1-0.1-0.4-0.1-0.9c0-0.3,0-1.7-0.1-4.1l-0.1-3.4l0.4-1.4
				c0.3-0.9,0.5-1.5,0.7-1.7C264.4,205.9,264.5,205.8,264.5,205.6z"/>
			<path class="st3" d="M75.1,243.7c0.2-0.1,0.6-0.2,1.2-0.2c0.7,0,1.2,0.1,1.5,0.2c0.2,0.1,0.5,0.3,0.7,0.6
				c0.2,0.3,0.3,0.5,0.4,0.8c0,0.1,0,0.2,0,0.3c0,0.2-0.1,0.5-0.4,0.8c-0.4,0.4-0.7,0.6-0.9,0.6c-0.3,0-0.5-0.2-0.7-0.5
				c-0.2-0.3-0.4-0.5-0.7-0.5c-0.2,0-0.4,0.1-0.6,0.4c-0.2,0.3-0.3,0.6-0.3,0.9c0,0.4,0.1,0.9,0.4,1.7c0.2,0.8,0.5,1.3,0.6,1.6
				c0.2,0.3,0.6,0.9,0.9,1.7c0.4,0.9,0.7,1.3,0.8,1.3c0.1,0.1,0.2,0.3,0.2,0.5c0,0.3,0.1,0.7,0.2,1.1c0.2,0.4,0.3,0.8,0.4,1.3
				c0,0.1,0,0.2,0,0.5c0,1.1-0.2,2-0.7,2.6c-0.2,0.3-0.5,0.5-1,0.8c-0.5,0.2-0.9,0.4-1.2,0.4c-0.5,0-1-0.2-1.7-0.7
				c-0.7-0.5-1.1-1-1.3-1.5c-0.1-0.3-0.1-0.6,0-0.8c0.3-0.4,0.6-0.6,1.1-0.6c0.1,0,0.2,0,0.3,0.1c0.1,0.1,0.3,0.3,0.6,0.7
				c0.3,0.4,0.6,0.6,0.9,0.6c0.2,0,0.3-0.1,0.4-0.3c0.1-0.1,0.1-0.3,0.1-0.6c0-0.7-0.1-1.4-0.4-2.1c-0.2-0.5-0.3-0.8-0.3-0.9
				c0-0.1-0.2-0.7-0.7-1.7c-0.4-0.8-0.7-1.6-1-2.3c-0.5-1.5-0.8-2.5-0.8-3.1c0-0.8,0.2-1.5,0.7-2.2
				C74.2,244.4,74.6,243.9,75.1,243.7z"/>
			<path class="st3" d="M83,243.9c0.2-0.2,0.4-0.3,0.6-0.3c0.2,0,0.3,0,0.5,0c0.5,0.1,0.8,0.2,0.9,0.3c0.2,0.3,0.4,2.2,0.4,5.6v1.9
				v1.7c0,2.7,0,4.2,0.1,4.4c0.1,0.4,0.4,0.5,1,0.5c0.3,0,0.5,0,0.8,0c0.2,0,0.4,0,0.6,0c0.4,0,0.7,0.1,0.8,0.2
				c0.2,0.1,0.2,0.3,0.2,0.6c0,0.2,0,0.4-0.1,0.5c-0.1,0.1-0.3,0.3-0.6,0.5c-0.6,0.3-1.2,0.5-1.8,0.5c-0.9,0-1.3,0.1-1.4,0.1
				c0,0-0.1,0-0.2,0c-0.2,0-0.5-0.1-0.9-0.2c-0.3-0.1-0.6-0.3-0.7-0.5c-0.3-0.4-0.5-1.4-0.5-3.2c0-0.4,0-1.2,0.1-2.4
				c0-1.1,0.1-2.3,0.1-3.5c0-3,0-4.9-0.2-5.6c0-0.3-0.1-0.5-0.1-0.5C82.7,244.3,82.8,244.1,83,243.9z"/>
			<path class="st3" d="M94.2,244.9c0.2-0.1,0.6-0.1,1-0.1c1.1,0,1.9,0.1,2.2,0.4c0.2,0.2,0.3,0.4,0.3,0.7c0,0.3-0.1,0.5-0.3,0.7
				c-0.2,0.2-0.5,0.3-0.8,0.3c-0.3,0-0.5,0.1-0.6,0.2c-0.1,0.2-0.2,0.5-0.2,1.1c0,0.2,0,0.7,0.1,1.6c0,1,0.1,1.7,0.1,2
				c0.1,0.3,0.1,0.5,0.2,0.5c0,0,0.2,0,0.4,0c0.2,0,0.5,0,0.6,0c0.5,0,0.9,0.1,1.1,0.4c0.1,0.1,0.2,0.3,0.2,0.4c0,0.3-0.4,0.6-1.3,1
				c-0.5,0.2-0.8,0.3-0.9,0.4c-0.1,0.1-0.2,0.3-0.2,0.7c0,0.3-0.1,0.6-0.1,0.9c0,1,0.1,1.8,0.3,2.3c0.1,0.2,0.2,0.3,0.3,0.4
				c0.1,0,0.3,0.1,0.7,0.1c0.4,0,0.8,0.1,1.1,0.3c0.3,0.2,0.5,0.4,0.5,0.7c0,0.2-0.2,0.4-0.5,0.7c-0.5,0.5-1.3,0.7-2.5,0.7
				c-1.2,0-2-0.3-2.4-0.8c-0.2-0.3-0.3-2-0.4-5.3c0-4.1-0.1-6.5-0.1-7.2l-0.1-2.3l0.4-0.2C93.6,245.1,93.9,244.9,94.2,244.9z"/>
			<path class="st3" d="M104,244.9c0.2-0.1,0.6-0.1,1-0.1c1.1,0,1.9,0.1,2.2,0.4c0.2,0.2,0.3,0.4,0.3,0.7c0,0.3-0.1,0.5-0.3,0.7
				c-0.2,0.2-0.5,0.3-0.8,0.3c-0.3,0-0.5,0.1-0.6,0.2c-0.1,0.2-0.2,0.5-0.2,1.1c0,0.2,0,0.7,0.1,1.6c0,1,0.1,1.7,0.1,2
				c0,0.3,0.1,0.5,0.2,0.5c0,0,0.2,0,0.4,0c0.2,0,0.5,0,0.6,0c0.5,0,0.9,0.1,1.1,0.4c0.1,0.1,0.2,0.3,0.2,0.4c0,0.3-0.4,0.6-1.3,1
				c-0.5,0.2-0.8,0.3-0.9,0.4c-0.1,0.1-0.2,0.3-0.2,0.7c0,0.3-0.1,0.6-0.1,0.9c0,1,0.1,1.8,0.3,2.3c0.1,0.2,0.2,0.3,0.3,0.4
				c0.1,0,0.3,0.1,0.7,0.1c0.4,0,0.8,0.1,1.1,0.3c0.3,0.2,0.5,0.4,0.5,0.7c0,0.2-0.2,0.4-0.5,0.7c-0.5,0.5-1.3,0.7-2.5,0.7
				c-1.2,0-2-0.3-2.4-0.8c-0.2-0.3-0.3-2-0.4-5.3c0-4.1-0.1-6.5-0.1-7.2l-0.1-2.3l0.4-0.2C103.5,245.1,103.8,244.9,104,244.9z"/>
			<path class="st3" d="M113.2,243.5c0.2-0.1,0.7-0.2,1.5-0.2c1,0,1.6,0.1,1.8,0.2c0.3,0.2,0.7,0.5,1.1,0.9c0.4,0.4,0.7,0.8,0.8,1.1
				c0.2,0.5,0.4,1.6,0.5,3.4c0,1,0.1,1.6,0.1,1.8c0,0.6-0.1,1.3-0.3,1.9c-0.2,0.7-0.5,1.2-0.8,1.5c-0.3,0.3-0.7,0.6-1.3,0.8
				l-0.9,0.3l0,2.6c0,1.5-0.1,2.4-0.2,2.8c-0.1,0.3-0.4,0.5-0.9,0.5c-0.4,0-0.8-0.1-1.1-0.4l-0.5-0.4v-2.2v-0.5c0-1.8,0-4-0.2-6.7
				c-0.1-2.7-0.2-4.3-0.3-5c-0.1-0.5-0.1-0.9-0.1-1.1C112.6,244.1,112.8,243.7,113.2,243.5z M116,246.4c-0.2-0.5-0.4-0.7-0.5-0.7
				c-0.1,0-0.1,0-0.1,0.1c0,0.7,0,1.5,0,2.4c0,2.9,0.1,4.4,0.4,4.4c0.1,0,0.2-0.2,0.4-0.6c0.2-0.4,0.2-0.8,0.2-1.3
				c0-0.1,0-0.6-0.1-1.4C116.3,247.7,116.2,246.8,116,246.4z"/>
			<path class="st3" d="M138.1,241.6c-2.3,3-4,7.1-4,12.7c0,5.5,1.7,9.5,4,12.6h-2.2c-2-2.6-4.1-6.6-4.1-12.6
				c0-6.1,2.1-10.1,4.1-12.7H138.1z"/>
			<path class="st3" d="M143.4,245.9c0.5-0.5,1.4-0.8,2.4-0.8c0.5,0,0.9,0.1,1.2,0.2c0.4,0.2,0.8,0.8,0.9,1.7c0.1,0.8,0.3,2.1,0.5,4
				c0.2,1.9,0.3,3.4,0.4,4.4c0,1,0.1,2,0.2,3.3c0.1,1.2,0.2,1.9,0.3,2c0,0,0,0.1,0,0.1c0,0.2-0.1,0.4-0.2,0.7
				c-0.2,0.3-0.3,0.4-0.5,0.5c0,0-0.1,0-0.3,0c-0.3,0-0.7-0.1-1-0.2c-0.4-0.1-0.6-0.3-0.7-0.5c-0.1-0.2-0.2-0.7-0.3-1.7
				c-0.1-1-0.2-1.8-0.2-2.4c0-0.6-0.1-0.9-0.2-1c-0.1-0.1-0.6-0.1-1.4-0.1c-0.7,0-1.1,0-1.1,0.1c0,0.1,0,0.2,0,0.4
				c0,0.4,0,1,0.1,1.7c0.1,0.8,0.1,1.5,0.1,2v0.3c0,0.1-0.2,0.3-0.5,0.4c-0.3,0.1-0.6,0.2-0.8,0.2c-0.1,0-0.2,0-0.3,0
				c-0.7-0.2-1.1-0.5-1.2-0.9c0,0,0-0.1,0-0.1c0-0.1,0-0.1,0-0.2c0-0.9,0.1-2.7,0.3-5.6c0.2-2.9,0.4-4.5,0.5-5
				c0.1-0.6,0.4-1.2,0.7-1.9C142.8,246.7,143.1,246.2,143.4,245.9z M145.5,249.1c-0.1-0.6-0.3-0.9-0.4-0.9c-0.1,0-0.3,0.2-0.5,0.6
				c-0.4,0.8-0.7,2-0.8,3.4c0,0.6-0.1,1-0.1,1c0,0.3,0.1,0.5,0.2,0.5c0.1,0.1,0.4,0.1,0.9,0.1c0.6,0,1-0.1,1-0.2
				c0-0.1,0.1-0.3,0.1-0.8C145.9,251.6,145.8,250.3,145.5,249.1z"/>
			<path class="st3" d="M154,244.1c0.3-0.1,0.6-0.2,0.9-0.2c0.6,0,1,0.4,1.3,1.2c0.2,0.6,0.4,1.2,0.7,1.9c0.3,0.7,0.6,1.2,0.7,1.6
				c0.2,0.7,0.4,1.1,0.6,1.3c0.1,0.1,0.1,0.1,0.2,0.1c0.1,0,0.2-0.4,0.2-1.3c0-0.8,0.1-1.4,0.1-1.7v-0.4c0-0.2,0-0.4,0-0.6
				c0-0.5,0.1-0.9,0.4-1.2c0.2-0.3,0.6-0.5,1.2-0.5c0.4,0,0.7,0.1,0.9,0.3c0.2,0.2,0.3,0.4,0.3,0.7c0,0.4,0,0.8-0.1,1.1
				c0,0.4-0.1,2.9-0.1,7.6c0,2.9,0,4.7-0.1,5.3c0,0.6-0.1,1-0.2,1.1c-0.2,0.2-0.5,0.3-1,0.3c-0.9,0-1.4-0.4-1.6-1.3
				c-0.1-0.3-0.3-1-0.6-1.9c-0.3-0.8-0.5-1.6-0.6-2.2c-0.2-0.9-0.5-2-0.9-3.4c0-0.1-0.1-0.2-0.1-0.2c-0.1,0-0.2,0.9-0.2,2.6v1.5v1.6
				c0,1.7,0,2.6-0.1,2.9c-0.2,0.6-0.7,0.9-1.3,0.9c-0.4,0-0.7-0.1-1-0.4c-0.2-0.2-0.3-0.4-0.3-0.6c0,0,0-0.2,0.1-0.6
				c0.1-0.7,0.2-3.2,0.2-7.5c0-4.8,0.1-7.3,0.1-7.6c0-0.2,0.2-0.3,0.3-0.3C153.9,244.2,154,244.2,154,244.1z"/>
			<path class="st3" d="M165.7,244.8c0.1,0,0.6,0,1.6,0c1.1,0,1.9,0.3,2.5,0.7c0.6,0.4,1,1.2,1.3,2.4c0.3,1.1,0.5,2.4,0.5,3.9
				c0,0.3,0,0.6-0.1,1c-0.1,0.3-0.1,0.8-0.2,1.4c-0.1,0.6-0.2,1.2-0.2,1.7c-0.1,0.5-0.2,0.8-0.3,1c-0.1,0.2-0.2,0.4-0.2,0.6
				c0,0.1-0.1,0.4-0.3,0.9c-0.2,0.4-0.4,0.8-0.5,1c-0.2,0.3-0.6,0.6-1.1,0.8c-0.5,0.2-0.9,0.4-1.4,0.4c-0.4,0-0.6,0.1-0.7,0.1
				c-0.2,0-0.5-0.1-0.7-0.3l-0.4-0.4l0-5.3V253c0-2.6,0-4-0.1-4.3c-0.1-0.9-0.2-1.6-0.2-2.2C165.1,245.5,165.3,244.9,165.7,244.8z
				 M168.6,248.6c-0.3-1.1-0.6-1.7-0.8-1.7l-0.1,0.1l0,0.1c0,0,0,0.1,0,0.2c0,0.1,0,0.2,0,0.3c0,0.3,0,0.9,0.1,1.8
				c0.1,1.1,0.1,2.5,0.2,4.3c0,1.7,0.1,2.6,0.2,2.6c0,0,0.1-0.1,0.2-0.4c0.4-1.3,0.6-2.7,0.6-4.2C169,250.4,168.9,249.4,168.6,248.6
				z"/>
			<path class="st3" d="M186.4,243.7c0.2-0.1,0.5-0.2,0.9-0.2c0.2,0,0.4,0,0.6,0c0.6,0.1,1,0.1,1.2,0.2c0.2,0.1,0.4,0.3,0.6,0.6
				c0.2,0.3,0.3,0.7,0.3,1c0,0.4-0.1,0.7-0.4,1c-0.2,0.2-0.5,0.4-0.8,0.4c-0.3,0-0.6-0.2-0.8-0.5c-0.2-0.3-0.4-0.4-0.6-0.4
				c-0.2,0-0.4,0.1-0.6,0.4c-0.2,0.3-0.3,0.5-0.3,0.9v0.2c0,1.1,0.9,3.3,2.6,6.3c0.3,0.5,0.6,1.4,0.9,2.7c0,0.1,0,0.2,0,0.4
				c0,1.1-0.2,2-0.7,2.6c-0.2,0.3-0.6,0.5-1,0.7c-0.5,0.2-0.9,0.3-1.3,0.3c0,0-0.1,0-0.1,0c0,0-0.1,0-0.1,0
				c-0.5-0.1-1.1-0.4-1.7-1.1c-0.7-0.6-1-1.1-1-1.5c0-0.2,0.1-0.4,0.3-0.6c0.2-0.2,0.4-0.3,0.7-0.4c0,0,0.1,0,0.2,0
				c0.2,0,0.6,0.3,1.1,1c0.2,0.3,0.4,0.4,0.6,0.4c0.2,0,0.4-0.1,0.5-0.4c0-0.1,0.1-0.2,0.1-0.5c0-1.2-0.5-2.9-1.6-5.2
				c-1-2.2-1.5-3.8-1.5-4.8c0-0.5,0.1-0.9,0.2-1.3c0.3-0.8,0.6-1.3,0.8-1.6C185.6,244.2,185.9,243.9,186.4,243.7z"/>
			<path class="st3" d="M195.1,244.9c0.2-0.1,0.6-0.1,1-0.1c1.1,0,1.9,0.1,2.2,0.4c0.2,0.2,0.3,0.4,0.3,0.7c0,0.3-0.1,0.5-0.3,0.7
				c-0.2,0.2-0.5,0.3-0.8,0.3c-0.3,0-0.5,0.1-0.6,0.2c-0.1,0.2-0.2,0.5-0.2,1.1c0,0.2,0,0.7,0.1,1.6c0,1,0.1,1.7,0.1,2
				c0,0.3,0.1,0.5,0.2,0.5c0,0,0.2,0,0.4,0c0.2,0,0.5,0,0.6,0c0.5,0,0.9,0.1,1.1,0.4c0.1,0.1,0.2,0.3,0.2,0.4c0,0.3-0.4,0.6-1.3,1
				c-0.5,0.2-0.8,0.3-0.9,0.4c-0.1,0.1-0.2,0.3-0.2,0.7c0,0.3-0.1,0.6-0.1,0.9c0,1,0.1,1.8,0.3,2.3c0.1,0.2,0.2,0.3,0.3,0.4
				c0.1,0,0.3,0.1,0.7,0.1c0.4,0,0.8,0.1,1.1,0.3c0.3,0.2,0.5,0.4,0.5,0.7c0,0.2-0.2,0.4-0.5,0.7c-0.5,0.5-1.3,0.7-2.5,0.7
				c-1.2,0-2-0.3-2.4-0.8c-0.2-0.3-0.3-2-0.4-5.3c0-4.1-0.1-6.5-0.1-7.2l-0.1-2.3l0.4-0.2C194.6,245.1,194.9,244.9,195.1,244.9z"/>
			<path class="st3" d="M204.7,242.8c0.1,0,0.1,0,0.2-0.1c0.1,0,0.1,0,0.2-0.1c0,0,0.1,0,0.1,0h0.1c0,0,0.2,0.1,0.5,0.2
				c0.3,0.2,0.5,0.4,0.6,0.7c0.2,0.8,0.4,1.6,0.7,2.3c0.2,0.7,0.4,1.1,0.5,1.1c0,0,0,0,0-0.1c0-0.1,0.1-0.7,0.4-1.8
				c0.2-0.7,0.3-1.2,0.4-1.5c0.1-0.2,0.2-0.4,0.4-0.5c0.3-0.1,0.6-0.2,0.9-0.2c0.5,0,0.9,0.1,1.1,0.3c0.2,0.2,0.3,0.5,0.3,0.7
				c0,0.3-0.1,0.7-0.3,1.3c-0.1,0.5-0.4,1.3-0.7,2.3c-0.3,1.1-0.6,2-0.8,2.7c-0.3,1-0.4,1.7-0.4,2c0,0.2,0,0.5,0.1,0.8
				c0.2,0.7,0.3,1.3,0.5,1.7c0.2,0.4,0.3,0.8,0.3,1.1c0,0.1,0.2,0.8,0.5,1.8c0.3,0.9,0.5,1.5,0.5,1.8c0,0.3-0.1,0.6-0.4,0.8
				c-0.2,0.2-0.5,0.3-0.7,0.3c-0.2,0-0.3,0-0.4,0c-0.5,0-0.8-0.2-1.1-0.5c-0.2-0.3-0.5-0.7-0.6-1.2c-0.1-0.5-0.2-0.7-0.3-0.7
				c-0.1,0-0.1,0.3-0.2,0.8c-0.2,1.4-0.7,2.1-1.5,2.1c-0.2,0-0.6-0.1-1.1-0.4c-0.5-0.2-0.8-0.4-0.8-0.6c0-0.3,0.5-2.1,1.6-5.4
				c0.1-0.4,0.3-1,0.5-1.9c0.1-0.5,0.1-0.9,0.1-0.9c0-0.3-0.1-0.7-0.3-1.4c-0.2-0.5-0.4-1.3-0.7-2.4c-0.3-1.1-0.5-1.8-0.7-2.3
				c-0.2-0.8-0.4-1.4-0.5-1.8c0-0.1,0-0.2,0-0.3C203.7,243.4,204.1,243.1,204.7,242.8z"/>
			<path class="st3" d="M214.1,266.9c2.2-3.1,4-7.1,4-12.7c0-5.6-1.7-9.6-4-12.6h2.1c2,2.6,4.1,6.5,4.1,12.7
				c0,6.1-2.1,10.1-4.1,12.7H214.1z"/>
			<path class="st3" d="M234,244.4l0.6-0.7h3.9l0.6,0.6c0.4,0.4,0.7,0.9,0.9,1.5c0.2,0.6,0.3,1.5,0.4,2.8c0,0.5,0.1,1.2,0.1,2.1
				c0,2.1-0.2,4-0.6,5.8c-0.4,1.7-0.9,2.9-1.6,3.5c-0.2,0.2-0.5,0.4-0.9,0.5c-0.4,0.1-0.7,0.2-1,0.2c-0.1,0-0.2,0-0.3-0.1
				c-0.2-0.1-0.4-0.2-0.7-0.2c-0.2,0-0.5-0.2-0.7-0.5c-0.3-0.3-0.5-0.7-0.7-1.2c-0.3-0.8-0.5-1.7-0.6-2.7c-0.1-1-0.1-2.5-0.2-4.6
				V250c0-1.9,0-3.3,0.1-3.9C233.4,245.4,233.6,244.9,234,244.4z M236.9,245.9c-0.2-0.4-0.3-0.6-0.5-0.6c-0.1,0-0.3,0.3-0.5,1
				c-0.2,0.5-0.2,1.5-0.2,2.9c0,1.1,0,2.3,0.1,3.5c0.1,1.2,0.2,2.3,0.4,3.4c0.2,1.1,0.4,1.6,0.5,1.6c0.1,0,0.2-0.2,0.3-0.7
				c0.1-0.4,0.2-0.7,0.3-0.9c0.1-0.1,0.2-1,0.3-2.7c0.1-0.9,0.1-1.7,0.1-2.4C237.7,248.5,237.4,246.9,236.9,245.9z"/>
			<path class="st3" d="M245,244.1c0.3-0.1,0.6-0.2,0.9-0.2c0.6,0,1,0.4,1.3,1.2c0.2,0.6,0.4,1.2,0.7,1.9c0.3,0.7,0.6,1.2,0.7,1.6
				c0.2,0.7,0.4,1.1,0.6,1.3c0.1,0.1,0.1,0.1,0.2,0.1c0.1,0,0.2-0.4,0.2-1.3c0-0.8,0.1-1.4,0.1-1.7v-0.4c0-0.2,0-0.4,0-0.6
				c0-0.5,0.1-0.9,0.4-1.2c0.2-0.3,0.6-0.5,1.2-0.5c0.4,0,0.7,0.1,0.9,0.3c0.2,0.2,0.3,0.4,0.3,0.7c0,0.4,0,0.8-0.1,1.1
				c0,0.4-0.1,2.9-0.1,7.6c0,2.9,0,4.7-0.1,5.3c0,0.6-0.1,1-0.2,1.1c-0.2,0.2-0.5,0.3-1,0.3c-0.9,0-1.4-0.4-1.6-1.3
				c-0.1-0.3-0.3-1-0.6-1.9c-0.3-0.8-0.5-1.6-0.6-2.2c-0.2-0.9-0.5-2-0.9-3.4c0-0.1-0.1-0.2-0.1-0.2c-0.1,0-0.2,0.9-0.2,2.6v1.5v1.6
				c0,1.7,0,2.6-0.1,2.9c-0.2,0.6-0.7,0.9-1.3,0.9c-0.4,0-0.7-0.1-1-0.4c-0.2-0.2-0.3-0.4-0.3-0.6c0,0,0-0.2,0.1-0.6
				c0.1-0.7,0.2-3.2,0.2-7.5c0-4.8,0.1-7.3,0.1-7.6c0-0.2,0.2-0.3,0.3-0.3C244.9,244.2,245,244.2,245,244.1z"/>
			<path class="st3" d="M256.4,243.9c0.2-0.2,0.4-0.3,0.6-0.3c0.2,0,0.3,0,0.5,0c0.5,0.1,0.8,0.2,0.9,0.3c0.2,0.3,0.4,2.2,0.4,5.6
				v1.9v1.7c0,2.7,0,4.2,0.1,4.4c0.1,0.4,0.4,0.5,1,0.5c0.3,0,0.5,0,0.8,0c0.2,0,0.4,0,0.6,0c0.4,0,0.7,0.1,0.8,0.2
				c0.2,0.1,0.2,0.3,0.2,0.6c0,0.2,0,0.4-0.1,0.5c-0.1,0.1-0.3,0.3-0.6,0.5c-0.6,0.3-1.2,0.5-1.8,0.5c-0.9,0-1.3,0.1-1.4,0.1
				c0,0-0.1,0-0.2,0c-0.2,0-0.5-0.1-0.9-0.2c-0.3-0.1-0.6-0.3-0.7-0.5c-0.3-0.4-0.5-1.4-0.5-3.2c0-0.4,0-1.2,0.1-2.4
				c0-1.1,0.1-2.3,0.1-3.5c0-3,0-4.9-0.2-5.6c0-0.3-0.1-0.5-0.1-0.5C256.1,244.3,256.2,244.1,256.4,243.9z"/>
			<path class="st3" d="M267.9,243.5c0.3-0.1,0.6-0.2,0.9-0.2c0.3,0,0.6,0.1,0.9,0.4c0.2,0.3,0.4,0.8,0.4,1.6
				c0.1,1.5,0.4,2.8,0.8,3.9c0.1,0.4,0.2,0.7,0.2,0.9c0,0.1,0,0.1,0,0.2s0.1,0,0.1,0c0.1-0.1,0.2-0.4,0.2-0.9c0-0.6,0-0.9,0.1-1
				c0,0,0.1-0.7,0.1-1.9c0-1.3,0.1-2,0.1-2.3c0-0.1,0.2-0.3,0.7-0.5c0.4-0.2,0.8-0.3,1.1-0.3c0.5,0,0.8,0.2,1,0.5
				c0.2,0.2,0.3,0.5,0.3,0.8c0,0.2-0.1,1.3-0.3,3.2c0,0.4-0.1,1.5-0.2,3.4c-0.1,1.4-0.4,3-0.9,5c-0.2,1-0.5,1.8-0.8,2.3
				c-0.3,0.5-0.6,1.1-1.1,1.6c-0.2,0.3-0.5,0.4-0.6,0.4c-0.1,0-0.2,0.1-0.4,0.3c-0.1,0.2-0.4,0.4-0.8,0.6c-0.4,0.2-0.8,0.2-1.3,0.2
				c-0.3,0-0.7-0.1-1.2-0.4c-0.5-0.2-0.7-0.4-0.7-0.6c0-0.2,0.1-0.5,0.4-0.8c0.2-0.3,0.5-0.5,0.9-0.7c0.6-0.3,1.1-0.7,1.5-1.2
				c0.4-0.5,0.7-1.3,1-2.2c0.4-1.1,0.5-1.8,0.5-2.1c0-0.2-0.2-0.4-0.5-0.5c-0.9-0.4-1.5-0.8-1.8-1.3c-0.1-0.3-0.5-1.6-1-4
				c-0.3-1.2-0.4-2.1-0.4-2.7C267.1,244.2,267.4,243.7,267.9,243.5z"/>
			<path class="st3" d="M73.9,282.7c0.1-0.1,0.4-0.2,1.1-0.2c0.8,0,1.3,0.1,1.6,0.2c0.5,0.2,0.9,0.6,1.1,1c0.2,0.4,0.4,1.1,0.5,2.1
				c0.1,0.8,0.1,1.3,0.1,1.7c0,1.6-0.4,2.9-1.1,3.9c-0.1,0.2,0,0.4,0.2,0.8c0.2,0.4,0.4,0.6,0.5,0.9c0.1,0.3,0.4,0.8,0.8,1.5
				c0.8,1.4,1.1,2.4,1.1,3c0,0.3-0.1,0.6-0.2,0.8c-0.2,0.2-0.4,0.3-0.6,0.3c-0.2,0-0.4,0-0.5,0c-0.5-0.1-0.9-0.1-1-0.2
				c-0.1-0.1-0.2-0.2-0.2-0.5c0-0.4-0.2-1-0.7-1.9c-0.4-0.9-0.8-1.3-1-1.3h0c-0.1,0-0.1,0.2-0.1,0.6c0,0.5,0.1,1.2,0.2,2.2
				c0,0.3,0.1,0.6,0.1,0.7c0,0.7-0.2,1.2-0.5,1.3c-0.1,0.1-0.3,0.1-0.5,0.1c-0.7,0-1.1-0.2-1.3-0.5c-0.1-0.2-0.2-1.6-0.2-4.1
				c-0.1-4.2-0.2-7.2-0.4-9.1c-0.1-0.8-0.1-1.5-0.1-1.9c0-0.4,0.1-0.7,0.2-0.9c0.2-0.3,0.4-0.4,0.6-0.4
				C73.7,282.9,73.9,282.8,73.9,282.7z M75.8,285.6c-0.1-0.4-0.3-0.6-0.4-0.7h0c-0.1,0-0.1,0.2-0.1,0.6c0,0.1,0,0.6,0.1,1.7
				c0.1,1.6,0.1,2.4,0.2,2.4c0,0,0.1,0,0.3-0.1c0.2-0.2,0.2-0.9,0.2-2.1C75.9,286.4,75.9,285.8,75.8,285.6z"/>
			<path class="st3" d="M85.1,284.8c0.2-0.1,0.6-0.1,1-0.1c1.1,0,1.9,0.1,2.2,0.4c0.2,0.2,0.3,0.4,0.3,0.7c0,0.3-0.1,0.5-0.3,0.7
				c-0.2,0.2-0.5,0.3-0.8,0.3c-0.3,0-0.5,0.1-0.6,0.2c-0.1,0.2-0.2,0.5-0.2,1.1c0,0.2,0,0.7,0.1,1.6c0,1,0.1,1.7,0.1,2
				c0.1,0.3,0.1,0.5,0.2,0.5c0,0,0.2,0,0.4,0c0.2,0,0.5,0,0.6,0c0.5,0,0.9,0.1,1.1,0.4c0.1,0.1,0.2,0.3,0.2,0.4c0,0.3-0.4,0.6-1.3,1
				c-0.5,0.2-0.8,0.3-0.9,0.4c-0.1,0.1-0.2,0.3-0.2,0.7c0,0.3-0.1,0.6-0.1,0.9c0,1,0.1,1.8,0.3,2.3c0.1,0.2,0.2,0.3,0.3,0.4
				c0.1,0,0.3,0.1,0.7,0.1c0.4,0,0.8,0.1,1.1,0.3c0.3,0.2,0.5,0.4,0.5,0.7c0,0.2-0.2,0.4-0.5,0.7c-0.5,0.5-1.3,0.7-2.5,0.7
				c-1.2,0-2-0.3-2.4-0.8c-0.2-0.3-0.3-2-0.4-5.3c0-4.1-0.1-6.5-0.1-7.2l-0.1-2.3l0.4-0.2C84.5,285,84.8,284.9,85.1,284.8z"/>
			<path class="st3" d="M94.1,284.8c0.1,0,0.6,0,1.6,0c1.1,0,1.9,0.3,2.5,0.7c0.6,0.4,1,1.2,1.3,2.4c0.3,1.1,0.5,2.4,0.5,3.9
				c0,0.3,0,0.6-0.1,1c-0.1,0.3-0.1,0.8-0.2,1.4c-0.1,0.6-0.2,1.2-0.2,1.7c-0.1,0.5-0.2,0.8-0.3,1c-0.1,0.2-0.2,0.4-0.2,0.6
				c0,0.1-0.1,0.4-0.3,0.9c-0.2,0.4-0.4,0.8-0.5,1c-0.2,0.3-0.6,0.5-1.1,0.8s-0.9,0.4-1.4,0.4c-0.4,0-0.6,0.1-0.7,0.1
				c-0.2,0-0.5-0.1-0.7-0.3l-0.4-0.4l0-5.3v-1.6c0-2.6,0-4-0.1-4.3c-0.1-0.9-0.2-1.6-0.2-2.2C93.6,285.4,93.8,284.8,94.1,284.8z
				 M97.1,288.6c-0.3-1.1-0.6-1.7-0.8-1.7l-0.1,0.1l0,0.1c0,0,0,0.1,0,0.2c0,0.1,0,0.2,0,0.3c0,0.3,0,0.9,0.1,1.8
				c0.1,1.1,0.1,2.5,0.2,4.3c0,1.7,0.1,2.6,0.2,2.6c0,0,0.1-0.1,0.2-0.4c0.4-1.3,0.6-2.7,0.6-4.2C97.5,290.4,97.3,289.4,97.1,288.6z
				"/>
			<path class="st3" d="M104.2,282.9c0.2-0.2,0.6-0.3,1-0.3c0.5,0,0.8,0.1,1.1,0.3l0.4,0.3l0,3.8c0,4.4,0.2,7.4,0.4,9.1
				c0.1,0.3,0.1,0.5,0.2,0.5c0.2,0,0.4-0.6,0.5-1.9c0.3-2.7,0.4-5.3,0.4-7.9v-0.7v-0.4c0-1.4,0.2-2.2,0.5-2.4
				c0.1-0.1,0.3-0.1,0.6-0.1c0.6,0,1,0.1,1.2,0.3c0.3,0.3,0.5,1.1,0.5,2.5c0,1.1-0.1,3.3-0.3,6.4c-0.1,2.6-0.4,4.4-0.8,5.5
				c-0.4,1.1-1.1,1.8-2,2.1c-0.4,0.1-0.6,0.2-0.8,0.2s-0.5-0.1-1-0.3c-1.1-0.5-1.8-1.4-1.9-2.6c-0.1-1-0.2-4.4-0.3-10
				c0-0.8,0-1.7,0-2.7c0-0.6,0-1.1,0.1-1.2C104,283.1,104,283,104.2,282.9z"/>
			<path class="st3" d="M117,285.3c0.4-0.4,0.7-0.6,0.8-0.7c0.2-0.1,0.4-0.1,0.8-0.1c0.9,0,1.4,0.3,1.4,0.9c0,0.6-0.4,1.1-1.3,1.5
				c-0.5,0.3-0.9,1.3-1.3,3.1c-0.1,0.8-0.2,1.6-0.2,2.5c0,0.9,0,1.8,0.2,2.7c0.1,1.2,0.3,2,0.5,2.5c0.2,0.5,0.6,0.8,1.1,0.8
				c0.8,0.1,1.3,0.4,1.4,0.7c0,0,0,0.1,0,0.2c0,0.2-0.1,0.4-0.4,0.6c-0.2,0.2-0.5,0.4-0.8,0.4c-0.1,0-0.2,0-0.3,0
				c-0.8,0-1.5-0.2-2.1-0.5c-0.2-0.1-0.5-0.5-0.8-1.1c-0.3-0.6-0.6-1.2-0.7-1.8c-0.2-0.9-0.3-2.3-0.3-4.5c0-0.8,0-1.6,0.1-2.4
				c0.2-1.3,0.4-2.2,0.7-2.9C116,286.6,116.4,285.9,117,285.3z"/>
			<path class="st3" d="M124.6,283c0.2-0.3,0.6-0.4,1-0.4c0.4,0,0.7,0.1,0.9,0.4l0.4,0.4l0.2,7c0.1,3.9,0.2,6.1,0.2,6.7
				c0,0.3,0,0.6,0,0.8c0,0.2,0,0.4,0,0.5c0,0.1,0,0.2-0.1,0.3c0,0.1-0.1,0.1-0.1,0.1c0,0,0,0-0.1,0.1c-0.1,0-0.1,0.1-0.2,0.1
				c-0.2,0.1-0.4,0.2-0.6,0.2c-0.1,0-0.3,0-0.6-0.2c-0.5-0.2-0.8-0.4-0.9-0.5c-0.1-0.1-0.1-2.6-0.2-7.5c0-4.9-0.1-7.4-0.2-7.4
				C124.3,283.4,124.4,283.2,124.6,283z"/>
			<path class="st3" d="M131.9,284.1c0.3-0.1,0.6-0.2,0.9-0.2c0.6,0,1,0.4,1.3,1.2c0.2,0.6,0.4,1.2,0.7,1.9c0.3,0.7,0.6,1.2,0.7,1.6
				c0.2,0.7,0.4,1.1,0.6,1.3c0.1,0.1,0.1,0.1,0.2,0.1c0.1,0,0.2-0.4,0.2-1.3c0-0.8,0.1-1.4,0.1-1.7v-0.4c0-0.2,0-0.4,0-0.6
				c0-0.5,0.1-0.9,0.4-1.2c0.2-0.3,0.6-0.5,1.2-0.5c0.4,0,0.7,0.1,0.9,0.3c0.2,0.2,0.3,0.4,0.3,0.7c0,0.4,0,0.8-0.1,1.1
				c0,0.4-0.1,2.9-0.1,7.6c0,2.9,0,4.7-0.1,5.3c0,0.6-0.1,1-0.2,1.1c-0.2,0.2-0.5,0.3-1,0.3c-0.9,0-1.4-0.4-1.6-1.3
				c-0.1-0.3-0.3-1-0.6-1.9c-0.3-0.8-0.5-1.6-0.6-2.2c-0.2-0.9-0.5-2-0.9-3.4c0-0.1-0.1-0.2-0.1-0.2c-0.1,0-0.2,0.9-0.2,2.6v1.5v1.6
				c0,1.7,0,2.6-0.1,2.9c-0.2,0.6-0.7,0.9-1.3,0.9c-0.4,0-0.7-0.1-1-0.4c-0.2-0.2-0.3-0.4-0.3-0.6c0,0,0-0.2,0.1-0.6
				c0.1-0.7,0.2-3.2,0.2-7.5c0-4.8,0.1-7.3,0.1-7.6c0-0.2,0.2-0.3,0.3-0.3C131.8,284.1,131.8,284.1,131.9,284.1z"/>
			<path class="st3" d="M144.5,285.5c0-0.1,0.1-0.3,0.3-0.4c0.2-0.1,0.5-0.3,0.8-0.4c0.3-0.1,0.5-0.2,0.6-0.3
				c0.1-0.1,0.2-0.2,0.3-0.2c0.2,0,0.5,0.1,0.9,0.4c0.5,0.3,0.8,0.6,0.8,0.9c0,0.1,0,0.1,0,0.2c0,0.2-0.3,0.4-0.9,0.6
				c-0.6,0.3-1,0.6-1.2,0.9c-0.3,0.6-0.5,2.1-0.5,4.5c0,0.8,0,1.4,0.1,1.8c0.2,2.7,0.5,4.3,0.6,4.6l0,0c0.2,0,0.3-0.8,0.3-2.3
				c0-0.9,0.1-1.4,0.2-1.7c0.1-0.4,0-0.7-0.2-0.9c-0.2-0.3-0.4-0.6-0.4-0.8c0-0.2,0.1-0.4,0.2-0.6c0.2-0.2,0.7-0.4,1.4-0.4
				c0.5,0,0.8,0,1,0.1c0.2,0,0.3,0.2,0.5,0.3c0.2,0.2,0.3,0.5,0.3,0.9c0,0.3,0,0.7-0.1,1.2c-0.1,0.7-0.2,1.8-0.3,3
				c-0.1,1.5-0.3,2.5-0.5,2.9c-0.3,0.5-0.5,0.9-0.7,1c-0.2,0.2-0.5,0.3-1,0.5c-0.3,0.1-0.6,0.2-0.9,0.2c-0.4,0-0.8-0.2-1.2-0.5
				c-0.5-0.4-0.9-1.4-1.3-3c-0.1-0.3-0.1-0.6-0.2-0.7c0-0.1-0.1-0.4-0.1-0.9c0-0.3,0-1.7-0.1-4.1l-0.1-3.4l0.4-1.4
				c0.3-0.9,0.5-1.5,0.7-1.7C144.4,285.8,144.5,285.6,144.5,285.5z"/>
			<path class="st3" d="M164.6,283.6c0.2-0.1,0.5-0.2,0.9-0.2c0.2,0,0.4,0,0.6,0c0.6,0.1,1,0.1,1.2,0.2c0.2,0.1,0.4,0.3,0.6,0.6
				c0.2,0.3,0.3,0.7,0.3,1c0,0.4-0.1,0.7-0.4,1c-0.2,0.2-0.5,0.4-0.8,0.4c-0.3,0-0.6-0.2-0.8-0.5c-0.2-0.3-0.4-0.4-0.6-0.4
				c-0.2,0-0.4,0.1-0.6,0.4c-0.2,0.3-0.3,0.5-0.3,0.9v0.2c0,1.1,0.9,3.3,2.6,6.3c0.3,0.5,0.6,1.4,0.9,2.7c0,0.1,0,0.2,0,0.4
				c0,1.1-0.2,2-0.7,2.6c-0.2,0.3-0.6,0.5-1,0.7c-0.5,0.2-0.9,0.3-1.3,0.3c0,0-0.1,0-0.1,0c0,0-0.1,0-0.1,0
				c-0.5-0.1-1.1-0.4-1.7-1.1c-0.7-0.6-1-1.1-1-1.5c0-0.2,0.1-0.4,0.3-0.6c0.2-0.2,0.4-0.3,0.7-0.4c0,0,0.1,0,0.2,0
				c0.2,0,0.6,0.3,1.1,1c0.2,0.3,0.4,0.4,0.6,0.4c0.2,0,0.4-0.1,0.5-0.4c0-0.1,0.1-0.2,0.1-0.5c0-1.2-0.5-2.9-1.6-5.2
				c-1-2.2-1.5-3.8-1.5-4.8c0-0.5,0.1-0.9,0.2-1.3c0.3-0.8,0.6-1.3,0.8-1.6C163.8,284.1,164.1,283.9,164.6,283.6z"/>
			<path class="st3" d="M174.2,285.3c0.4-0.4,0.7-0.6,0.8-0.7c0.2-0.1,0.4-0.1,0.8-0.1c0.9,0,1.4,0.3,1.4,0.9c0,0.6-0.4,1.1-1.3,1.5
				c-0.5,0.3-0.9,1.3-1.3,3.1c-0.1,0.8-0.2,1.6-0.2,2.5c0,0.9,0,1.8,0.2,2.7c0.1,1.2,0.3,2,0.5,2.5c0.2,0.5,0.6,0.8,1.1,0.8
				c0.8,0.1,1.3,0.4,1.4,0.7c0,0,0,0.1,0,0.2c0,0.2-0.1,0.4-0.4,0.6c-0.2,0.2-0.5,0.4-0.8,0.4c-0.1,0-0.2,0-0.3,0
				c-0.8,0-1.5-0.2-2.1-0.5c-0.2-0.1-0.5-0.5-0.8-1.1c-0.3-0.6-0.6-1.2-0.7-1.8c-0.2-0.9-0.3-2.3-0.3-4.5c0-0.8,0-1.6,0.1-2.4
				c0.2-1.3,0.4-2.2,0.7-2.9C173.2,286.6,173.6,285.9,174.2,285.3z"/>
			<path class="st3" d="M182.5,283.1c0.4-0.1,0.9-0.2,1.4-0.2c0.6,0,1.1,0.1,1.4,0.2c0.5,0.2,1,0.6,1.3,1.2c0.1,0.3,0.2,0.8,0.4,1.6
				c0.1,0.8,0.2,1.5,0.2,2.1c0,0.3,0,0.5,0,0.6c-0.1,0.5-0.2,1.1-0.4,1.7c-0.2,0.6-0.4,1-0.5,1c-0.2,0-0.2,0.1-0.2,0.4
				c0,0.2,0.1,0.4,0.2,0.7c0.3,0.5,0.8,1.4,1.4,2.6c0.6,1.3,0.9,2.1,1,2.4c0,0.1,0,0.2,0,0.4c0,0.3-0.1,0.5-0.2,0.7
				c-0.2,0.2-0.4,0.4-0.6,0.4c-0.2,0-0.4,0-0.6,0c-0.5-0.1-0.9-0.1-1-0.2c-0.1-0.1-0.2-0.2-0.2-0.5c0-0.4-0.2-1.1-0.6-1.9
				c-0.4-0.9-0.8-1.3-1-1.3h0c-0.1,0-0.1,0.3-0.1,0.7c0,0.6,0.1,1.3,0.2,2.1c0,0.3,0.1,0.6,0.1,0.7c0,0.7-0.2,1.1-0.5,1.3
				c-0.1,0.1-0.3,0.1-0.5,0.1c-0.7,0-1.1-0.2-1.3-0.5c-0.1-0.2-0.2-1.6-0.2-4.2c0-0.9,0-1.8-0.1-2.7c0-1,0-1.7,0-2.1
				c0-0.4,0-1-0.1-1.7c0-0.7-0.1-1.5-0.2-2.4c-0.1-1-0.1-1.6-0.1-1.7c0-0.5,0.1-0.8,0.2-1C181.9,283.3,182.2,283.2,182.5,283.1z
				 M184.5,285.4c-0.1-0.2-0.2-0.2-0.3-0.2c-0.1,0-0.2,0.1-0.3,0.2c-0.1,0.1-0.1,0.3,0,0.4c0,0,0.1,0.7,0.2,2c0.1,1.3,0.2,2,0.2,2
				c0,0,0.1,0,0.3-0.2c0.1-0.2,0.2-0.5,0.2-1.1c0-0.4,0-0.7,0-1C184.6,286.3,184.6,285.6,184.5,285.4z"/>
			<path class="st3" d="M193.8,284.8c0.2-0.1,0.6-0.1,1-0.1c1.1,0,1.9,0.1,2.2,0.4c0.2,0.2,0.3,0.4,0.3,0.7c0,0.3-0.1,0.5-0.3,0.7
				c-0.2,0.2-0.5,0.3-0.8,0.3c-0.3,0-0.5,0.1-0.6,0.2c-0.1,0.2-0.2,0.5-0.2,1.1c0,0.2,0,0.7,0.1,1.6c0,1,0.1,1.7,0.1,2
				s0.1,0.5,0.2,0.5c0,0,0.2,0,0.4,0c0.2,0,0.5,0,0.6,0c0.5,0,0.9,0.1,1.1,0.4c0.1,0.1,0.2,0.3,0.2,0.4c0,0.3-0.4,0.6-1.3,1
				c-0.5,0.2-0.8,0.3-0.9,0.4c-0.1,0.1-0.2,0.3-0.2,0.7c0,0.3-0.1,0.6-0.1,0.9c0,1,0.1,1.8,0.3,2.3c0.1,0.2,0.2,0.3,0.3,0.4
				c0.1,0,0.3,0.1,0.7,0.1c0.4,0,0.8,0.1,1.1,0.3c0.3,0.2,0.5,0.4,0.5,0.7c0,0.2-0.2,0.4-0.5,0.7c-0.5,0.5-1.3,0.7-2.5,0.7
				c-1.2,0-2-0.3-2.4-0.8c-0.2-0.3-0.3-2-0.4-5.3c0-4.1-0.1-6.5-0.1-7.2l-0.1-2.3l0.4-0.2C193.2,285,193.5,284.9,193.8,284.8z"/>
			<path class="st3" d="M203.7,284.8c0.2-0.1,0.6-0.1,1-0.1c1.1,0,1.9,0.1,2.2,0.4c0.2,0.2,0.3,0.4,0.3,0.7c0,0.3-0.1,0.5-0.3,0.7
				c-0.2,0.2-0.5,0.3-0.8,0.3c-0.3,0-0.5,0.1-0.6,0.2c-0.1,0.2-0.2,0.5-0.2,1.1c0,0.2,0,0.7,0.1,1.6c0,1,0.1,1.7,0.1,2
				c0,0.3,0.1,0.5,0.2,0.5c0,0,0.2,0,0.4,0c0.2,0,0.5,0,0.6,0c0.5,0,0.9,0.1,1.1,0.4c0.1,0.1,0.2,0.3,0.2,0.4c0,0.3-0.4,0.6-1.3,1
				c-0.5,0.2-0.8,0.3-0.9,0.4c-0.1,0.1-0.2,0.3-0.2,0.7c0,0.3-0.1,0.6-0.1,0.9c0,1,0.1,1.8,0.3,2.3c0.1,0.2,0.2,0.3,0.3,0.4
				c0.1,0,0.3,0.1,0.7,0.1c0.4,0,0.8,0.1,1.1,0.3c0.3,0.2,0.5,0.4,0.5,0.7c0,0.2-0.2,0.4-0.5,0.7c-0.5,0.5-1.3,0.7-2.5,0.7
				c-1.2,0-2-0.3-2.4-0.8c-0.2-0.3-0.3-2-0.4-5.3c0-4.1-0.1-6.5-0.1-7.2l-0.1-2.3l0.4-0.2C203.1,285,203.4,284.9,203.7,284.8z"/>
			<path class="st3" d="M213,284.1c0.3-0.1,0.6-0.2,0.9-0.2c0.6,0,1,0.4,1.3,1.2c0.2,0.6,0.4,1.2,0.7,1.9c0.3,0.7,0.6,1.2,0.7,1.6
				c0.2,0.7,0.4,1.1,0.6,1.3c0.1,0.1,0.1,0.1,0.2,0.1c0.1,0,0.2-0.4,0.2-1.3c0-0.8,0.1-1.4,0.1-1.7v-0.4c0-0.2,0-0.4,0-0.6
				c0-0.5,0.1-0.9,0.4-1.2c0.2-0.3,0.6-0.5,1.2-0.5c0.4,0,0.7,0.1,0.9,0.3c0.2,0.2,0.3,0.4,0.3,0.7c0,0.4,0,0.8-0.1,1.1
				c0,0.4-0.1,2.9-0.1,7.6c0,2.9,0,4.7-0.1,5.3c0,0.6-0.1,1-0.2,1.1c-0.2,0.2-0.5,0.3-1,0.3c-0.9,0-1.4-0.4-1.6-1.3
				c-0.1-0.3-0.3-1-0.6-1.9c-0.3-0.8-0.5-1.6-0.6-2.2c-0.2-0.9-0.5-2-0.9-3.4c0-0.1-0.1-0.2-0.1-0.2c-0.1,0-0.2,0.9-0.2,2.6v1.5v1.6
				c0,1.7,0,2.6-0.1,2.9c-0.2,0.6-0.7,0.9-1.3,0.9c-0.4,0-0.7-0.1-1-0.4c-0.2-0.2-0.3-0.4-0.3-0.6c0,0,0-0.2,0.1-0.6
				c0.1-0.7,0.2-3.2,0.2-7.5c0-4.8,0.1-7.3,0.1-7.6c0-0.2,0.2-0.3,0.3-0.3C212.9,284.1,213,284.1,213,284.1z"/>
			<path class="st3" d="M232.9,282.9c0.2-0.2,0.6-0.3,1-0.3c0.5,0,0.8,0.1,1.1,0.3l0.4,0.3l0,3.8c0,4.4,0.2,7.4,0.4,9.1
				c0.1,0.3,0.1,0.5,0.2,0.5c0.2,0,0.4-0.6,0.5-1.9c0.3-2.7,0.4-5.3,0.4-7.9v-0.7v-0.4c0-1.4,0.2-2.2,0.5-2.4
				c0.1-0.1,0.3-0.1,0.6-0.1c0.6,0,1,0.1,1.2,0.3c0.3,0.3,0.5,1.1,0.5,2.5c0,1.1-0.1,3.3-0.3,6.4c-0.1,2.6-0.4,4.4-0.8,5.5
				c-0.4,1.1-1.1,1.8-2,2.1c-0.4,0.1-0.6,0.2-0.8,0.2c-0.1,0-0.5-0.1-1-0.3c-1.1-0.5-1.8-1.4-1.9-2.6c-0.1-1-0.2-4.4-0.3-10
				c0-0.8,0-1.7,0-2.7c0-0.6,0-1.1,0.1-1.2C232.7,283.1,232.8,283,232.9,282.9z"/>
			<path class="st3" d="M246.1,283.6c0.2-0.1,0.5-0.2,0.9-0.2c0.2,0,0.4,0,0.6,0c0.6,0.1,1,0.1,1.2,0.2c0.2,0.1,0.4,0.3,0.6,0.6
				c0.2,0.3,0.3,0.7,0.3,1c0,0.4-0.1,0.7-0.4,1c-0.2,0.2-0.5,0.4-0.8,0.4c-0.3,0-0.6-0.2-0.8-0.5c-0.2-0.3-0.4-0.4-0.6-0.4
				c-0.2,0-0.4,0.1-0.6,0.4c-0.2,0.3-0.3,0.5-0.3,0.9v0.2c0,1.1,0.9,3.3,2.6,6.3c0.3,0.5,0.6,1.4,0.9,2.7c0,0.1,0,0.2,0,0.4
				c0,1.1-0.2,2-0.7,2.6c-0.2,0.3-0.6,0.5-1,0.7c-0.5,0.2-0.9,0.3-1.3,0.3c0,0-0.1,0-0.1,0c0,0-0.1,0-0.1,0
				c-0.5-0.1-1.1-0.4-1.7-1.1c-0.7-0.6-1-1.1-1-1.5c0-0.2,0.1-0.4,0.3-0.6c0.2-0.2,0.4-0.3,0.7-0.4c0,0,0.1,0,0.2,0
				c0.2,0,0.6,0.3,1.1,1c0.2,0.3,0.4,0.4,0.6,0.4c0.2,0,0.4-0.1,0.5-0.4c0-0.1,0.1-0.2,0.1-0.5c0-1.2-0.5-2.9-1.6-5.2
				c-1-2.2-1.5-3.8-1.5-4.8c0-0.5,0.1-0.9,0.2-1.3c0.3-0.8,0.6-1.3,0.8-1.6C245.3,284.1,245.6,283.9,246.1,283.6z"/>
			<path class="st3" d="M254.8,284.8c0.2-0.1,0.6-0.1,1-0.1c1.1,0,1.9,0.1,2.2,0.4c0.2,0.2,0.3,0.4,0.3,0.7c0,0.3-0.1,0.5-0.3,0.7
				c-0.2,0.2-0.5,0.3-0.8,0.3c-0.3,0-0.5,0.1-0.6,0.2c-0.1,0.2-0.2,0.5-0.2,1.1c0,0.2,0,0.7,0.1,1.6c0,1,0.1,1.7,0.1,2
				c0,0.3,0.1,0.5,0.2,0.5c0,0,0.2,0,0.4,0c0.2,0,0.5,0,0.6,0c0.5,0,0.9,0.1,1.1,0.4c0.1,0.1,0.2,0.3,0.2,0.4c0,0.3-0.4,0.6-1.3,1
				c-0.5,0.2-0.8,0.3-0.9,0.4c-0.1,0.1-0.2,0.3-0.2,0.7c0,0.3-0.1,0.6-0.1,0.9c0,1,0.1,1.8,0.3,2.3c0.1,0.2,0.2,0.3,0.3,0.4
				c0.1,0,0.3,0.1,0.7,0.1c0.4,0,0.8,0.1,1.1,0.3c0.3,0.2,0.5,0.4,0.5,0.7c0,0.2-0.2,0.4-0.5,0.7c-0.5,0.5-1.3,0.7-2.5,0.7
				c-1.2,0-2-0.3-2.4-0.8c-0.2-0.3-0.3-2-0.4-5.3c0-4.1-0.1-6.5-0.1-7.2l-0.1-2.3l0.4-0.2C254.3,285,254.6,284.9,254.8,284.8z"/>
			<path class="st3" d="M75.6,323.5c0.1-0.1,0.2-0.2,0.3-0.2c0.1,0,0.5,0.1,0.9,0.5c0.5,0.3,0.8,0.5,0.8,0.7
				c0.1,0.2,0.1,0.4,0.1,0.6c0,0.2-0.1,0.2-0.2,0.2c-0.2,0-0.6,0.1-1.1,0.4c-0.5,0.3-0.8,0.5-0.9,0.6c-0.3,0.5-0.5,2-0.5,4.6
				c0,0.8,0,1.4,0.1,1.8c0.2,2.6,0.4,4.1,0.6,4.6l0,0.1c0.2,0,0.3-0.8,0.3-2.4c0-0.9,0.1-1.5,0.2-1.7c0.1-0.4,0.1-0.7-0.1-0.9
				c-0.3-0.3-0.4-0.6-0.4-0.9c0-0.3,0.1-0.5,0.4-0.7c0.3-0.2,0.7-0.3,1.2-0.3c0.2,0,0.4,0,0.5,0c0.9,0.1,1.3,0.6,1.3,1.4
				c0,0.3,0,0.6-0.1,0.9c-0.1,0.3-0.2,1.2-0.3,2.6c-0.1,1.3-0.1,2.2-0.2,2.7c-0.1,0.5-0.3,1-0.6,1.4c-0.5,0.7-1.2,1.1-2.1,1.1
				c-0.5,0-0.9-0.1-1.3-0.4c-1.2-0.9-1.8-4-1.8-9.2v-0.4c0-1.5,0-2.5,0.1-2.9c0-0.4,0.2-0.9,0.4-1.5c0.5-1.4,1.1-2.2,1.7-2.3
				C75.2,323.8,75.5,323.7,75.6,323.5z"/>
			<path class="st3" d="M84.5,324.7c0.2-0.1,0.6-0.1,1-0.1c1.1,0,1.9,0.1,2.2,0.4c0.2,0.2,0.3,0.4,0.3,0.7c0,0.3-0.1,0.5-0.3,0.7
				c-0.2,0.2-0.5,0.3-0.8,0.3c-0.3,0-0.5,0.1-0.6,0.2c-0.1,0.2-0.2,0.5-0.2,1.1c0,0.2,0,0.7,0.1,1.6c0,1,0.1,1.7,0.1,2
				c0.1,0.3,0.1,0.5,0.2,0.5c0,0,0.2,0,0.4,0c0.2,0,0.5,0,0.6,0c0.5,0,0.9,0.1,1.1,0.4c0.1,0.1,0.2,0.3,0.2,0.4c0,0.3-0.4,0.6-1.3,1
				c-0.5,0.2-0.8,0.3-0.9,0.4c-0.1,0.1-0.2,0.3-0.2,0.7c0,0.3-0.1,0.6-0.1,0.9c0,1,0.1,1.8,0.3,2.3c0.1,0.2,0.2,0.3,0.3,0.4
				c0.1,0,0.3,0.1,0.7,0.1c0.4,0,0.8,0.1,1.1,0.3c0.3,0.2,0.5,0.4,0.5,0.7c0,0.2-0.2,0.4-0.5,0.7c-0.5,0.5-1.3,0.7-2.5,0.7
				c-1.2,0-2-0.3-2.4-0.8c-0.2-0.3-0.3-2-0.4-5.3c0-4.1-0.1-6.5-0.1-7.2l-0.1-2.3l0.4-0.2C83.9,324.9,84.2,324.8,84.5,324.7z"/>
			<path class="st3" d="M93.7,323c0.3-0.2,0.8-0.4,1.4-0.4h0.7c1.1,0,1.8,0.1,2,0.2c0.1,0,0.4,0.1,0.9,0.1c0.5,0,0.8,0.1,1,0.3
				s0.3,0.4,0.3,0.8c0,0.4-0.1,0.7-0.2,0.8c-0.1,0.2-0.4,0.3-0.8,0.3c-0.4,0.1-0.7,0.2-0.8,0.2c-0.1,0.1-0.2,2.1-0.2,5.9
				c0,2.7,0,4.5,0.1,5.7c0,0.9,0.1,1.3,0.1,1.4c0,0.4-0.1,0.8-0.3,1.1c-0.2,0.4-0.6,0.6-1.1,0.6c-0.3,0-0.6-0.1-1-0.3l-0.6-0.3
				l0.1-7.1c0-1.8,0.1-3.7,0.1-5.5c0-1.1-0.1-1.7-0.2-1.8c-0.2-0.1-0.4-0.2-0.5-0.2c-0.1,0-0.2,0-0.3,0c-0.4,0-0.7-0.1-0.9-0.3
				c-0.2-0.2-0.4-0.5-0.4-0.8C93.2,323.5,93.4,323.2,93.7,323z"/>
			<path class="st3" d="M112.8,322.8c0.2-0.2,0.6-0.3,1-0.3c0.5,0,0.8,0.1,1.1,0.3l0.4,0.3l0,3.8c0,4.4,0.2,7.4,0.4,9.1
				c0.1,0.3,0.1,0.5,0.2,0.5c0.2,0,0.4-0.6,0.5-1.9c0.3-2.7,0.4-5.3,0.4-7.9v-0.7v-0.4c0-1.4,0.2-2.2,0.5-2.4
				c0.1-0.1,0.3-0.1,0.6-0.1c0.6,0,1,0.1,1.2,0.3c0.3,0.3,0.5,1.1,0.5,2.5c0,1.1-0.1,3.3-0.3,6.4c-0.1,2.6-0.4,4.4-0.8,5.5
				c-0.4,1.1-1.1,1.8-2,2.1c-0.4,0.1-0.6,0.2-0.8,0.2c-0.1,0-0.5-0.1-1-0.3c-1.1-0.5-1.8-1.4-1.9-2.6c-0.1-1-0.2-4.4-0.3-10
				c0-0.8,0-1.7,0-2.7c0-0.6,0-1.1,0.1-1.2C112.6,323.1,112.7,322.9,112.8,322.8z"/>
			<path class="st3" d="M124.2,323.4c0.2-0.1,0.7-0.2,1.5-0.2c1,0,1.6,0.1,1.8,0.2c0.3,0.2,0.7,0.5,1.1,0.9c0.4,0.4,0.7,0.8,0.8,1.1
				c0.2,0.5,0.4,1.6,0.5,3.4c0,1,0.1,1.6,0.1,1.8c0,0.6-0.1,1.3-0.3,1.9c-0.2,0.7-0.5,1.2-0.8,1.5c-0.3,0.3-0.7,0.6-1.3,0.8
				l-0.9,0.3l0,2.6c0,1.5-0.1,2.4-0.2,2.8c-0.1,0.3-0.4,0.5-0.9,0.5c-0.4,0-0.8-0.1-1.1-0.4l-0.5-0.4v-2.2v-0.5c0-1.8-0.1-4-0.2-6.7
				c-0.1-2.7-0.2-4.3-0.3-5c-0.1-0.5-0.1-0.9-0.1-1.1C123.5,324,123.7,323.6,124.2,323.4z M127,326.3c-0.2-0.5-0.4-0.7-0.5-0.7
				c-0.1,0-0.1,0-0.1,0.1c0,0.7,0,1.5,0,2.4c0,2.9,0.1,4.4,0.4,4.4c0.1,0,0.2-0.2,0.4-0.6c0.2-0.4,0.2-0.8,0.2-1.3
				c0-0.1,0-0.6-0.1-1.4C127.2,327.6,127.1,326.7,127,326.3z"/>
			<path class="st3" d="M144.8,325.8c0.5-0.5,1.4-0.8,2.4-0.8c0.5,0,0.9,0.1,1.2,0.2c0.4,0.2,0.8,0.8,0.9,1.7c0.1,0.8,0.3,2.1,0.5,4
				c0.2,1.9,0.3,3.4,0.4,4.4c0,1,0.1,2,0.2,3.3c0.1,1.2,0.2,1.9,0.3,2c0,0,0,0.1,0,0.1c0,0.2-0.1,0.4-0.2,0.7
				c-0.2,0.3-0.3,0.4-0.5,0.5c0,0-0.1,0-0.3,0c-0.3,0-0.7-0.1-1-0.2c-0.4-0.1-0.6-0.3-0.7-0.5c-0.1-0.2-0.2-0.7-0.3-1.7
				c-0.1-1-0.2-1.8-0.2-2.4c0-0.6-0.1-0.9-0.2-1c-0.1-0.1-0.6-0.1-1.4-0.1c-0.7,0-1.1,0-1.1,0.1c0,0.1,0,0.2,0,0.4
				c0,0.4,0,1,0.1,1.7c0.1,0.8,0.1,1.5,0.1,2v0.3c0,0.1-0.2,0.3-0.5,0.4c-0.3,0.1-0.6,0.2-0.8,0.2c-0.1,0-0.2,0-0.3,0
				c-0.7-0.2-1.1-0.5-1.2-0.9c0,0,0-0.1,0-0.1c0-0.1,0-0.1,0-0.2c0-0.9,0.1-2.7,0.3-5.6c0.2-2.9,0.4-4.5,0.5-5
				c0.1-0.6,0.4-1.2,0.7-1.9C144.2,326.6,144.5,326.1,144.8,325.8z M146.9,329c-0.1-0.6-0.3-0.9-0.4-0.9c-0.1,0-0.3,0.2-0.5,0.6
				c-0.4,0.8-0.7,2-0.8,3.4c0,0.6-0.1,1-0.1,1c0,0.3,0.1,0.5,0.2,0.5c0.1,0.1,0.4,0.1,0.9,0.1c0.6,0,1-0.1,1-0.2
				c0-0.1,0.1-0.3,0.1-0.8C147.3,331.5,147.1,330.2,146.9,329z"/>
			<path class="st3" d="M155.4,324c0.3-0.1,0.6-0.2,0.9-0.2c0.6,0,1,0.4,1.3,1.2c0.2,0.6,0.4,1.2,0.7,1.9c0.3,0.7,0.6,1.2,0.7,1.6
				c0.2,0.7,0.4,1.1,0.6,1.3c0.1,0.1,0.1,0.1,0.2,0.1c0.1,0,0.2-0.4,0.2-1.3c0-0.8,0.1-1.4,0.1-1.7v-0.4c0-0.2,0-0.4,0-0.6
				c0-0.5,0.1-0.9,0.4-1.2c0.2-0.3,0.6-0.5,1.2-0.5c0.4,0,0.7,0.1,0.9,0.3c0.2,0.2,0.3,0.4,0.3,0.7c0,0.4,0,0.8-0.1,1.1
				c0,0.4-0.1,2.9-0.1,7.6c0,2.9,0,4.7-0.1,5.3c0,0.6-0.1,1-0.2,1.1c-0.2,0.2-0.5,0.3-1,0.3c-0.9,0-1.4-0.4-1.6-1.3
				c-0.1-0.3-0.3-1-0.6-1.9c-0.3-0.8-0.5-1.6-0.6-2.2c-0.2-0.9-0.5-2-0.9-3.4c0-0.1-0.1-0.2-0.1-0.2c-0.1,0-0.2,0.9-0.2,2.6v1.5v1.6
				c0,1.7,0,2.6-0.1,2.9c-0.2,0.6-0.7,0.9-1.3,0.9c-0.4,0-0.7-0.1-1-0.4c-0.2-0.2-0.3-0.4-0.3-0.6c0,0,0-0.2,0.1-0.6
				c0.1-0.7,0.2-3.2,0.2-7.5c0-4.8,0.1-7.3,0.1-7.6c0-0.2,0.2-0.3,0.3-0.3C155.3,324.1,155.3,324,155.4,324z"/>
			<path class="st3" d="M167.1,324.7c0.1,0,0.6,0,1.6,0c1.1,0,1.9,0.3,2.5,0.7c0.6,0.4,1,1.2,1.3,2.4c0.3,1.1,0.5,2.4,0.5,3.9
				c0,0.3,0,0.6-0.1,1c-0.1,0.3-0.1,0.8-0.2,1.4c-0.1,0.6-0.2,1.2-0.2,1.7c-0.1,0.5-0.2,0.8-0.3,1c-0.1,0.2-0.2,0.4-0.2,0.6
				c0,0.1-0.1,0.4-0.3,0.9c-0.2,0.4-0.4,0.8-0.5,1c-0.2,0.3-0.6,0.5-1.1,0.8c-0.5,0.2-0.9,0.4-1.4,0.4c-0.4,0-0.6,0.1-0.7,0.1
				c-0.2,0-0.5-0.1-0.7-0.3l-0.4-0.4l0-5.3v-1.6c0-2.6,0-4-0.1-4.3c-0.1-0.9-0.2-1.6-0.2-2.2C166.5,325.4,166.7,324.8,167.1,324.7z
				 M170,328.5c-0.3-1.1-0.6-1.7-0.8-1.7l-0.1,0.1l0,0.1c0,0,0,0.1,0,0.2c0,0.1,0,0.2,0,0.3c0,0.3,0,0.9,0.1,1.8
				c0.1,1.1,0.1,2.5,0.2,4.3c0,1.7,0.1,2.6,0.2,2.6c0,0,0.1-0.1,0.2-0.4c0.4-1.3,0.6-2.7,0.6-4.2C170.4,330.3,170.3,329.3,170,328.5
				z"/>
			<path class="st3" d="M185.9,323c0.3-0.2,0.8-0.4,1.4-0.4h0.7c1.1,0,1.8,0.1,2,0.2c0.1,0,0.4,0.1,0.9,0.1c0.5,0,0.8,0.1,1,0.3
				s0.3,0.4,0.3,0.8c0,0.4-0.1,0.7-0.2,0.8c-0.1,0.2-0.4,0.3-0.8,0.3c-0.4,0.1-0.7,0.2-0.8,0.2c-0.1,0.1-0.2,2.1-0.2,5.9
				c0,2.7,0,4.5,0.1,5.7c0,0.9,0.1,1.3,0.1,1.4c0,0.4-0.1,0.8-0.3,1.1c-0.2,0.4-0.6,0.6-1.1,0.6c-0.3,0-0.6-0.1-1-0.3l-0.6-0.3
				l0.1-7.1c0-1.8,0.1-3.7,0.1-5.5c0-1.1-0.1-1.7-0.2-1.8c-0.2-0.1-0.4-0.2-0.5-0.2c-0.1,0-0.2,0-0.3,0c-0.4,0-0.7-0.1-0.9-0.3
				c-0.2-0.2-0.4-0.5-0.4-0.8C185.4,323.5,185.6,323.2,185.9,323z"/>
			<path class="st3" d="M197.3,323c0.4-0.1,0.9-0.2,1.4-0.2c0.6,0,1.1,0.1,1.4,0.2c0.5,0.2,1,0.6,1.3,1.2c0.1,0.3,0.2,0.8,0.4,1.6
				c0.1,0.8,0.2,1.5,0.2,2.1c0,0.3,0,0.5,0,0.6c-0.1,0.5-0.2,1.1-0.4,1.7c-0.2,0.6-0.4,1-0.5,1c-0.2,0-0.2,0.1-0.2,0.4
				c0,0.2,0.1,0.4,0.2,0.7c0.3,0.5,0.8,1.4,1.4,2.6c0.6,1.3,0.9,2.1,1,2.4c0,0.1,0,0.2,0,0.4c0,0.3-0.1,0.5-0.2,0.7
				c-0.2,0.2-0.4,0.4-0.6,0.4c-0.2,0-0.4,0-0.6,0c-0.5-0.1-0.9-0.1-1-0.2c-0.1-0.1-0.2-0.2-0.2-0.5c0-0.4-0.2-1.1-0.6-1.9
				c-0.4-0.9-0.8-1.3-1-1.3h0c-0.1,0-0.1,0.3-0.1,0.7c0,0.6,0.1,1.3,0.2,2.1c0,0.3,0.1,0.6,0.1,0.7c0,0.7-0.2,1.1-0.5,1.3
				c-0.1,0.1-0.3,0.1-0.5,0.1c-0.7,0-1.1-0.2-1.3-0.5c-0.1-0.2-0.2-1.6-0.2-4.2c0-0.9,0-1.8-0.1-2.7c0-1,0-1.7,0-2.1
				c0-0.4,0-1-0.1-1.7c0-0.7-0.1-1.5-0.2-2.4c-0.1-1-0.1-1.6-0.1-1.8c0-0.5,0.1-0.8,0.2-1C196.6,323.3,196.9,323.1,197.3,323z
				 M199.2,325.3c-0.1-0.2-0.2-0.2-0.3-0.2c-0.1,0-0.2,0.1-0.3,0.2c-0.1,0.1-0.1,0.3,0,0.4c0,0,0.1,0.7,0.2,2c0.1,1.3,0.2,2,0.2,2
				c0,0,0.1,0,0.3-0.2c0.1-0.2,0.2-0.5,0.2-1.1c0-0.4,0-0.7,0-1C199.4,326.2,199.3,325.6,199.2,325.3z"/>
			<path class="st3" d="M208.8,323.4c0.3-0.1,0.6-0.2,0.8-0.2c0.3,0,0.6,0.1,0.9,0.4c0.2,0.3,0.4,0.8,0.4,1.6
				c0.1,1.5,0.4,2.8,0.8,3.9c0.1,0.4,0.2,0.7,0.2,0.9c0,0.1,0,0.1,0,0.2c0,0,0.1,0,0.1,0c0.1-0.1,0.2-0.4,0.2-0.9c0-0.6,0-0.9,0.1-1
				c0,0,0.1-0.7,0.1-1.9c0-1.3,0.1-2,0.1-2.3c0-0.1,0.2-0.3,0.7-0.5c0.4-0.2,0.8-0.3,1.1-0.3c0.5,0,0.8,0.2,1,0.5
				c0.2,0.2,0.3,0.5,0.3,0.8c0,0.2-0.1,1.3-0.3,3.2c0,0.4-0.1,1.5-0.2,3.4c-0.1,1.4-0.4,3-0.9,5c-0.2,1-0.5,1.8-0.8,2.3
				s-0.6,1.1-1.1,1.6c-0.2,0.3-0.5,0.4-0.6,0.4c-0.1,0-0.2,0.1-0.4,0.3c-0.1,0.2-0.4,0.4-0.8,0.6c-0.4,0.2-0.8,0.2-1.3,0.2
				c-0.3,0-0.7-0.1-1.2-0.4c-0.5-0.2-0.7-0.4-0.7-0.6c0-0.2,0.1-0.5,0.4-0.8c0.2-0.3,0.5-0.5,0.9-0.7c0.6-0.3,1.1-0.7,1.5-1.2
				c0.4-0.5,0.7-1.3,1-2.2c0.4-1.1,0.5-1.8,0.5-2.1c0-0.2-0.2-0.4-0.5-0.5c-0.9-0.4-1.5-0.8-1.8-1.3c-0.1-0.3-0.5-1.6-1-4
				c-0.3-1.2-0.4-2.1-0.4-2.7C208,324.1,208.3,323.6,208.8,323.4z"/>
			<path class="st3" d="M230.4,325.8c0.5-0.5,1.4-0.8,2.4-0.8c0.5,0,0.9,0.1,1.2,0.2c0.4,0.2,0.8,0.8,0.9,1.7c0.1,0.8,0.3,2.1,0.5,4
				c0.2,1.9,0.3,3.4,0.4,4.4c0,1,0.1,2,0.2,3.3c0.1,1.2,0.2,1.9,0.3,2c0,0,0,0.1,0,0.1c0,0.2-0.1,0.4-0.2,0.7
				c-0.2,0.3-0.3,0.4-0.5,0.5c0,0-0.1,0-0.3,0c-0.3,0-0.7-0.1-1-0.2c-0.4-0.1-0.6-0.3-0.7-0.5c-0.1-0.2-0.2-0.7-0.3-1.7
				c-0.1-1-0.2-1.8-0.2-2.4c0-0.6-0.1-0.9-0.2-1c-0.1-0.1-0.6-0.1-1.4-0.1c-0.7,0-1.1,0-1.1,0.1c0,0.1,0,0.2,0,0.4
				c0,0.4,0,1,0.1,1.7c0.1,0.8,0.1,1.5,0.1,2v0.3c0,0.1-0.2,0.3-0.5,0.4c-0.3,0.1-0.6,0.2-0.8,0.2c-0.1,0-0.2,0-0.3,0
				c-0.7-0.2-1.1-0.5-1.2-0.9c0,0,0-0.1,0-0.1c0-0.1,0-0.1,0-0.2c0-0.9,0.1-2.7,0.3-5.6c0.2-2.9,0.4-4.5,0.5-5
				c0.1-0.6,0.4-1.2,0.7-1.9C229.7,326.6,230.1,326.1,230.4,325.8z M232.5,329c-0.1-0.6-0.3-0.9-0.4-0.9c-0.1,0-0.3,0.2-0.5,0.6
				c-0.4,0.8-0.7,2-0.8,3.4c0,0.6-0.1,1-0.1,1c0,0.3,0,0.5,0.2,0.5c0.1,0.1,0.4,0.1,0.9,0.1c0.6,0,1-0.1,1-0.2
				c0-0.1,0.1-0.3,0.1-0.8C232.9,331.5,232.7,330.2,232.5,329z"/>
			<path class="st3" d="M241.6,325.4c0-0.1,0.1-0.3,0.3-0.4c0.2-0.1,0.5-0.3,0.8-0.4c0.3-0.1,0.5-0.2,0.6-0.3
				c0.1-0.1,0.2-0.2,0.3-0.2c0.2,0,0.5,0.1,0.9,0.4c0.5,0.3,0.8,0.6,0.8,0.9c0,0.1,0,0.1,0,0.2c0,0.2-0.3,0.4-0.9,0.6
				c-0.6,0.3-1,0.6-1.2,0.9c-0.3,0.6-0.5,2.1-0.5,4.5c0,0.8,0,1.4,0.1,1.8c0.2,2.7,0.5,4.3,0.6,4.6l0,0c0.2,0,0.3-0.8,0.3-2.3
				c0-0.9,0.1-1.4,0.2-1.7c0.1-0.4,0-0.7-0.2-0.9c-0.2-0.3-0.4-0.6-0.4-0.8c0-0.2,0.1-0.4,0.2-0.6c0.2-0.2,0.7-0.4,1.4-0.4
				c0.5,0,0.8,0,1,0.1c0.2,0,0.3,0.2,0.5,0.3c0.2,0.2,0.3,0.5,0.3,0.9c0,0.3,0,0.7-0.1,1.2c-0.1,0.7-0.2,1.8-0.3,3
				c-0.1,1.5-0.3,2.5-0.5,2.9c-0.3,0.5-0.5,0.9-0.7,1c-0.2,0.2-0.5,0.3-1,0.5c-0.3,0.1-0.6,0.2-0.9,0.2c-0.4,0-0.8-0.2-1.2-0.5
				c-0.5-0.4-0.9-1.4-1.3-3c-0.1-0.3-0.1-0.6-0.2-0.7c0-0.1-0.1-0.4-0.1-0.9c0-0.3,0-1.7-0.1-4.1l-0.1-3.4l0.4-1.4
				c0.3-0.9,0.5-1.5,0.7-1.7C241.5,325.7,241.6,325.6,241.6,325.4z"/>
			<path class="st3" d="M253.3,325.8c0.5-0.5,1.4-0.8,2.4-0.8c0.5,0,0.9,0.1,1.2,0.2c0.4,0.2,0.8,0.8,0.9,1.7c0.1,0.8,0.3,2.1,0.5,4
				c0.2,1.9,0.3,3.4,0.4,4.4c0,1,0.1,2,0.2,3.3c0.1,1.2,0.2,1.9,0.3,2c0,0,0,0.1,0,0.1c0,0.2-0.1,0.4-0.2,0.7
				c-0.2,0.3-0.3,0.4-0.5,0.5c0,0-0.1,0-0.3,0c-0.3,0-0.7-0.1-1-0.2c-0.4-0.1-0.6-0.3-0.7-0.5c-0.1-0.2-0.2-0.7-0.3-1.7
				c-0.1-1-0.2-1.8-0.2-2.4c0-0.6-0.1-0.9-0.2-1c-0.1-0.1-0.6-0.1-1.4-0.1c-0.7,0-1.1,0-1.1,0.1c0,0.1,0,0.2,0,0.4
				c0,0.4,0,1,0.1,1.7c0.1,0.8,0.1,1.5,0.1,2v0.3c0,0.1-0.2,0.3-0.5,0.4c-0.3,0.1-0.6,0.2-0.8,0.2c-0.1,0-0.2,0-0.3,0
				c-0.7-0.2-1.1-0.5-1.2-0.9c0,0,0-0.1,0-0.1s0-0.1,0-0.2c0-0.9,0.1-2.7,0.3-5.6s0.4-4.5,0.5-5c0.1-0.6,0.4-1.2,0.7-1.9
				C252.7,326.6,253,326.1,253.3,325.8z M255.4,329c-0.1-0.6-0.3-0.9-0.4-0.9c-0.1,0-0.3,0.2-0.5,0.6c-0.4,0.8-0.7,2-0.8,3.4
				c0,0.6-0.1,1-0.1,1c0,0.3,0.1,0.5,0.2,0.5c0.1,0.1,0.4,0.1,0.9,0.1c0.6,0,1-0.1,1-0.2c0-0.1,0.1-0.3,0.1-0.8
				C255.8,331.5,255.6,330.2,255.4,329z"/>
			<path class="st3" d="M263.4,322.9c0.2-0.3,0.6-0.4,1-0.4c0.4,0,0.7,0.1,0.9,0.4l0.4,0.4l0.2,7c0.1,3.9,0.2,6.1,0.2,6.7
				c0,0.3,0,0.6,0,0.8c0,0.2,0,0.4,0,0.5c0,0.1,0,0.2-0.1,0.3c0,0.1-0.1,0.1-0.1,0.1c0,0,0,0-0.1,0.1c-0.1,0-0.1,0.1-0.2,0.1
				c-0.2,0.1-0.4,0.2-0.6,0.2c-0.1,0-0.3,0-0.6-0.2c-0.5-0.2-0.8-0.4-0.9-0.5c-0.1-0.1-0.1-2.6-0.2-7.5c0-4.9-0.1-7.4-0.2-7.4
				C263,323.3,263.1,323.1,263.4,322.9z"/>
			<path class="st3" d="M270.6,324c0.3-0.1,0.6-0.2,0.9-0.2c0.6,0,1,0.4,1.3,1.2c0.2,0.6,0.4,1.2,0.7,1.9c0.3,0.7,0.6,1.2,0.7,1.6
				c0.2,0.7,0.4,1.1,0.6,1.3c0.1,0.1,0.1,0.1,0.2,0.1c0.1,0,0.2-0.4,0.2-1.3c0-0.8,0.1-1.4,0.1-1.7v-0.4c0-0.2,0-0.4,0-0.6
				c0-0.5,0.1-0.9,0.4-1.2c0.2-0.3,0.6-0.5,1.2-0.5c0.4,0,0.7,0.1,0.9,0.3c0.2,0.2,0.3,0.4,0.3,0.7c0,0.4,0,0.8-0.1,1.1
				c0,0.4-0.1,2.9-0.1,7.6c0,2.9,0,4.7-0.1,5.3c0,0.6-0.1,1-0.2,1.1c-0.2,0.2-0.5,0.3-1,0.3c-0.9,0-1.4-0.4-1.6-1.3
				c-0.1-0.3-0.3-1-0.6-1.9c-0.3-0.8-0.5-1.6-0.6-2.2c-0.2-0.9-0.5-2-0.9-3.4c0-0.1-0.1-0.2-0.1-0.2c-0.1,0-0.2,0.9-0.2,2.6v1.5v1.6
				c0,1.7,0,2.6-0.1,2.9c-0.2,0.6-0.7,0.9-1.3,0.9c-0.4,0-0.7-0.1-1-0.4c-0.2-0.2-0.3-0.4-0.3-0.6c0,0,0-0.2,0.1-0.6
				c0.1-0.7,0.2-3.2,0.2-7.5c0-4.8,0.1-7.3,0.1-7.6c0-0.2,0.2-0.3,0.3-0.3C270.6,324.1,270.6,324,270.6,324z"/>
		</g>
	</g>
	<path class="st4" d="M163.5,108.3c27.9,0,50.5-3.6,50.5-8s-22.6-8-50.5-8s-50.5,3.6-50.5,8S135.6,108.3,163.5,108.3z"/>
	<path class="st5" d="M198.3,91.8l-1.9,6.7c-1,3.3-4.4,5.2-7.7,4.3l-0.4-0.1c-2.9-0.8-4.7-3.5-4.4-6.6l3.1-10.7l9.4,2.7
		C197.8,88.6,198.7,90.2,198.3,91.8z"/>
	<path class="st5" d="M149.5,8.1l-2.7,9.3l-9.6-2.8c-1.6-0.5-2.5-2.1-2-3.7l1.9-6.5c1-3.3,4.4-5.2,7.7-4.3l0.4,0.1
		C148.6,1.3,150.5,4.8,149.5,8.1z"/>
	<path class="st6" d="M188.8,96.3l9.9-34.3l10.6-36.5c0.1-0.2,0.1-0.2,0.1-0.2c0.1-0.2,0.1-0.2,0.1-0.4c0.8-2.9-0.9-6-4-6.9
		L144.9,0.3c0.8,2.2,0.9,4.4,0.3,6.6l-20.5,70.8c-0.1,0.2-0.1,0.2-0.1,0.2c-0.1,0.2-0.1,0.2-0.1,0.4c-0.8,2.9,0.9,6,4,6.9l60.7,17.6
		C188.2,100.7,188.2,98.5,188.8,96.3z"/>
	<path class="st0" d="M145.2,56.6c2.6,0.3,5-1.5,5.3-4.2c0.3-2.6-1.5-5-4.2-5.3c-2.6-0.3-5,1.5-5.3,4.2
		C140.7,53.8,142.6,56.2,145.2,56.6z"/>
	<path class="st6" d="M144.8,54c-0.2,0-0.3-0.1-0.4-0.2l-1.2-1.2c-0.2-0.2-0.2-0.4,0-0.6c0.2-0.2,0.4-0.2,0.6,0l1,1.1l3-2.9
		c0.2-0.2,0.4-0.2,0.6,0c0.2,0.2,0.2,0.4,0,0.6l-3.1,3C145.2,53.9,145,54,144.8,54z"/>
	<path class="st0" d="M154.9,23.1c2.6,0.3,5-1.5,5.3-4.2c0.3-2.6-1.5-5-4.2-5.3c-2.6-0.3-5,1.5-5.3,4.2
		C150.4,20.3,152.3,22.7,154.9,23.1z"/>
	<path class="st6" d="M154.5,20.5c-0.2,0-0.3-0.1-0.4-0.2l-1.2-1.2c-0.2-0.2-0.2-0.4,0-0.6c0.2-0.2,0.4-0.2,0.6,0l1,1.1l3-2.9
		c0.2-0.2,0.4-0.2,0.6,0c0.2,0.2,0.2,0.4,0,0.6l-3.1,3C154.9,20.4,154.7,20.5,154.5,20.5z"/>
	<path class="st0" d="M150,40.1c2.6,0.3,5-1.5,5.3-4.2c0.3-2.6-1.5-5-4.2-5.3c-2.6-0.3-5,1.5-5.3,4.2
		C145.5,37.3,147.4,39.7,150,40.1z"/>
	<path class="st6" d="M149.5,37.5c-0.2,0-0.3-0.1-0.4-0.2L148,36c-0.2-0.2-0.2-0.4,0-0.6c0.2-0.2,0.4-0.2,0.6,0l1,1.1l3-2.9
		c0.2-0.2,0.4-0.2,0.6,0c0.2,0.2,0.2,0.4,0,0.6l-3.1,3C150,37.4,149.8,37.5,149.5,37.5C149.6,37.5,149.6,37.5,149.5,37.5z"/>
	<path class="st0" d="M140.2,73.9c2.6,0.3,5-1.5,5.3-4.2c0.3-2.6-1.5-5-4.2-5.3c-2.6-0.3-5,1.5-5.3,4.2
		C135.7,71.2,137.5,73.6,140.2,73.9z"/>
	<path class="st6" d="M139.7,71.3c-0.2,0-0.3-0.1-0.4-0.2l-1.2-1.2c-0.2-0.2-0.2-0.4,0-0.6c0.2-0.2,0.4-0.2,0.6,0l1,1.1l3-2.9
		c0.2-0.2,0.4-0.2,0.6,0c0.2,0.2,0.2,0.4,0,0.6l-3.1,3C140.1,71.3,139.9,71.3,139.7,71.3z"/>
	<path class="st0" d="M167,19.8l24.8,7.2c1.3,0.4,2.2,1.6,1.8,2.9c-0.4,1.3-1.5,2-2.9,1.6l-25-7.3c-1.3-0.4-2-1.5-1.6-2.9
		C164.5,20,165.6,19.4,167,19.8z"/>
	<path class="st0" d="M162,36.8l24.8,7.2c1.3,0.4,2.2,1.6,1.8,2.9c-0.4,1.3-1.5,2-2.9,1.6l-25.1-7.3c-1.3-0.4-2-1.5-1.6-2.9
		C159.5,37.1,160.7,36.4,162,36.8z"/>
	<path class="st0" d="M175.5,82.3l-24.8-7.2c-1.3-0.4-2.2-1.6-1.8-2.9s1.5-2,2.9-1.6l25,7.3c1.3,0.4,2,1.5,1.6,2.9
		C178,82.1,176.8,82.7,175.5,82.3z"/>
	<path class="st0" d="M180.8,64.2L155.9,57c-1.3-0.4-2.2-1.6-1.8-2.9c0.4-1.3,1.5-2,2.9-1.6l25,7.3c1.3,0.4,2,1.5,1.6,2.9
		C183.3,63.9,182.1,64.6,180.8,64.2z"/>
	<path class="st0" d="M203.5,28.6c-0.1,0-0.1,0-0.2-0.1c-0.3-0.2-0.4-0.5-0.2-0.8c0,0,0.9-1.6,0.1-3.2c-0.7-1.6-2.9-2.8-6.2-3.4
		c-0.3-0.1-0.5-0.3-0.4-0.7c0.1-0.3,0.4-0.5,0.7-0.4c3.7,0.7,6.1,2.1,7,4c1,2.1-0.1,4.1-0.2,4.2C203.9,28.5,203.7,28.6,203.5,28.6z"
		/>
</g>
</svg>
