<?xml version="1.0" encoding="utf-8"?>
<!-- Generator: Adobe Illustrator 25.1.0, SVG Export Plug-In . SVG Version: 6.00 Build 0)  -->
<svg version="1.1" id="Layer_1" xmlns="http://www.w3.org/2000/svg" xmlns:xlink="http://www.w3.org/1999/xlink" x="0px" y="0px"
	 viewBox="0 0 335.4 275" style="enable-background:new 0 0 335.4 275;" xml:space="preserve">
<style type="text/css">
	.st0{fill:#FFFFFF;}
	.st1{fill:#808080;}
	.st2{fill:#FF9F1A;}
	.st3{fill:#EAA283;}
	.st4{fill:#D8B693;}
	.st5{fill:#00A878;}
	.st6{fill:none;stroke:#FFFFFF;stroke-width:1.6675;stroke-linecap:round;stroke-miterlimit:10;}
</style>
<g>
	<g>
		<path class="st0" d="M334.9,173.2c-1.7-50,8.2-110.4-17.8-146.2C288.1-12.9,116.2,3.6,81.6,2.3C65.1,1.7,7.8-2.5,5.8,39.5
			C3.6,85.7,3.7,92.9,2.6,144.4c-1.1,50.4-13.2,125.1,26.4,127c73.2,3.5,169.3,6.3,238.5-0.7C301,267.2,337.7,257.1,334.9,173.2z"/>
		<path class="st1" d="M27.5,66.9V55.7h1.3v11.2H27.5z"/>
		<path class="st1" d="M31.5,66.9v-6.8h-1.2V59h1.2v-1.4c0-0.8,0.2-1.3,0.6-1.7c0.4-0.4,0.9-0.5,1.7-0.5h0.8v1.1H34
			c-0.4,0-0.7,0.1-0.9,0.2c-0.2,0.2-0.3,0.4-0.3,0.8v1.3h2v1.1h-2v6.8L31.5,66.9L31.5,66.9z"/>
		<path class="st1" d="M41.5,70.4l2-4.3H43l-3.2-7.2h1.5l2.6,6.2l2.8-6.2h1.4l-5.2,11.5H41.5z"/>
		<path class="st1" d="M52.4,67.1c-0.8,0-1.4-0.2-2-0.5s-1.1-0.8-1.4-1.5s-0.5-1.4-0.5-2.2c0-0.8,0.2-1.6,0.5-2.2s0.8-1.1,1.4-1.5
			c0.6-0.3,1.3-0.5,2-0.5s1.4,0.2,2,0.5s1.1,0.8,1.4,1.5c0.3,0.6,0.5,1.4,0.5,2.2c0,0.8-0.2,1.6-0.5,2.2s-0.8,1.1-1.4,1.5
			S53.2,67.1,52.4,67.1z M52.4,65.9c0.5,0,0.9-0.1,1.3-0.3c0.4-0.2,0.7-0.6,1-1c0.2-0.4,0.4-1,0.4-1.7s-0.1-1.2-0.4-1.7
			c-0.2-0.5-0.6-0.8-1-1s-0.8-0.3-1.3-0.3s-0.9,0.1-1.3,0.3c-0.4,0.2-0.7,0.6-1,1c-0.2,0.4-0.4,1-0.4,1.7s0.1,1.2,0.4,1.7
			c0.2,0.5,0.6,0.8,1,1C51.5,65.8,52,65.9,52.4,65.9z"/>
		<path class="st1" d="M61.2,67.1c-0.9,0-1.7-0.3-2.2-0.9s-0.8-1.5-0.8-2.6V59h1.3v4.5c0,1.6,0.7,2.5,2,2.5c0.7,0,1.3-0.2,1.7-0.7
			s0.7-1.2,0.7-2.1v-4.1h1.3V67H64l-0.1-1.4c-0.2,0.5-0.6,0.9-1.1,1.2C62.3,66.9,61.8,67.1,61.2,67.1z"/>
		<path class="st1" d="M74.6,67.1c-0.9,0-1.7-0.3-2.2-0.9s-0.8-1.5-0.8-2.6V59h1.3v4.5c0,1.6,0.7,2.5,2,2.5c0.7,0,1.3-0.2,1.7-0.7
			c0.4-0.5,0.7-1.2,0.7-2.1v-4.1h1.3V67h-1.2l-0.1-1.4c-0.2,0.5-0.6,0.9-1.1,1.2C75.7,66.9,75.2,67.1,74.6,67.1z"/>
		<path class="st1" d="M83.9,67.1c-0.9,0-1.7-0.2-2.4-0.7c-0.6-0.5-1-1.1-1.1-2h1.4c0.1,0.4,0.3,0.8,0.7,1.1
			c0.4,0.3,0.8,0.5,1.5,0.5c0.6,0,1-0.1,1.2-0.4c0.3-0.2,0.4-0.5,0.4-0.9c0-0.5-0.2-0.8-0.5-1s-0.8-0.3-1.5-0.4
			c-0.4-0.1-0.8-0.2-1.3-0.4s-0.8-0.4-1.1-0.7c-0.3-0.3-0.4-0.7-0.4-1.2c0-0.7,0.3-1.3,0.8-1.7c0.5-0.4,1.2-0.7,2.1-0.7
			c0.8,0,1.5,0.2,2.1,0.6c0.5,0.4,0.8,1,0.9,1.8h-1.3c-0.1-0.4-0.2-0.7-0.5-1s-0.7-0.3-1.2-0.3s-0.8,0.1-1.1,0.3
			c-0.3,0.2-0.4,0.5-0.4,0.8s0.2,0.6,0.5,0.8c0.3,0.2,0.8,0.3,1.4,0.5c0.5,0.1,1,0.2,1.4,0.4c0.4,0.1,0.8,0.4,1.1,0.7
			c0.3,0.3,0.4,0.7,0.4,1.3c0,0.7-0.3,1.3-0.8,1.8C85.5,66.8,84.8,67.1,83.9,67.1z"/>
		<path class="st1" d="M92.4,67.1c-0.8,0-1.4-0.2-2-0.5c-0.6-0.4-1.1-0.8-1.4-1.4s-0.5-1.4-0.5-2.2c0-0.8,0.2-1.6,0.5-2.2
			s0.8-1.1,1.4-1.5s1.3-0.5,2.1-0.5c0.8,0,1.4,0.2,2,0.5c0.6,0.4,1,0.8,1.3,1.4s0.5,1.2,0.5,1.8c0,0.1,0,0.2,0,0.4s0,0.2,0,0.4H90
			c0,0.6,0.2,1.1,0.4,1.5c0.2,0.4,0.6,0.7,0.9,0.9c0.4,0.2,0.8,0.3,1.2,0.3c0.5,0,1-0.1,1.4-0.4s0.6-0.6,0.8-1H96
			c-0.2,0.7-0.6,1.4-1.2,1.8C94.1,66.8,93.3,67.1,92.4,67.1z M92.4,59.9c-0.6,0-1.2,0.2-1.7,0.6s-0.8,1-0.9,1.7h5
			c0-0.7-0.3-1.3-0.7-1.7C93.6,60.1,93.1,59.9,92.4,59.9z"/>
		<path class="st1" d="M103,70.4l2-4.3h-0.5l-3.2-7.2h1.5l2.6,6.2l2.8-6.2h1.4l-5.2,11.5H103z"/>
		<path class="st1" d="M113.9,67.1c-0.8,0-1.4-0.2-2-0.5s-1.1-0.8-1.4-1.5s-0.5-1.4-0.5-2.2c0-0.8,0.2-1.6,0.5-2.2
			c0.4-0.6,0.8-1.1,1.4-1.5c0.6-0.3,1.3-0.5,2-0.5c0.8,0,1.4,0.2,2,0.5s1.1,0.8,1.4,1.5c0.4,0.6,0.5,1.4,0.5,2.2
			c0,0.8-0.2,1.6-0.5,2.2s-0.8,1.1-1.4,1.5C115.3,66.9,114.7,67.1,113.9,67.1z M113.9,65.9c0.5,0,0.9-0.1,1.3-0.3
			c0.4-0.2,0.7-0.6,1-1c0.2-0.4,0.4-1,0.4-1.7s-0.1-1.2-0.4-1.7c-0.2-0.5-0.6-0.8-0.9-1c-0.4-0.2-0.8-0.3-1.3-0.3s-0.9,0.1-1.3,0.3
			c-0.4,0.2-0.7,0.6-1,1c-0.2,0.4-0.4,1-0.4,1.7s0.1,1.2,0.4,1.7c0.2,0.5,0.6,0.8,0.9,1C113,65.8,113.5,65.9,113.9,65.9z"/>
		<path class="st1" d="M122.7,67.1c-0.9,0-1.7-0.3-2.2-0.9s-0.8-1.5-0.8-2.6V59h1.3v4.5c0,1.6,0.7,2.5,2,2.5c0.7,0,1.3-0.2,1.7-0.7
			c0.5-0.5,0.7-1.2,0.7-2.1v-4.1h1.3V67h-1.2l-0.1-1.4c-0.2,0.5-0.6,0.9-1.1,1.2C123.8,66.9,123.3,67.1,122.7,67.1z"/>
		<path class="st1" d="M128.9,66.9V59h1.2l0.1,1.5c0.2-0.5,0.6-0.9,1.1-1.2s1.1-0.5,1.9-0.5v1.4h-0.4c-0.5,0-0.9,0.1-1.3,0.2
			c-0.4,0.2-0.7,0.4-0.9,0.8s-0.3,0.9-0.3,1.6v4h-1.4V66.9z"/>
		<path class="st1" d="M143.2,67.1c-0.7,0-1.2-0.1-1.7-0.4s-0.9-0.6-1.2-1.1l-0.1,1.3H139V55.4h1.3v4.9c0.3-0.4,0.6-0.7,1.1-1
			s1.1-0.5,1.8-0.5c0.8,0,1.5,0.2,2.1,0.5c0.6,0.4,1,0.9,1.4,1.5c0.3,0.6,0.5,1.3,0.5,2.1s-0.2,1.5-0.5,2.1s-0.8,1.1-1.4,1.5
			C144.7,66.9,144,67.1,143.2,67.1z M143.1,65.9c0.5,0,1-0.1,1.4-0.4s0.7-0.6,1-1.1c0.2-0.4,0.4-1,0.4-1.6s-0.1-1.1-0.4-1.6
			c-0.2-0.5-0.5-0.8-1-1.1s-0.9-0.4-1.4-0.4s-1,0.1-1.4,0.4c-0.4,0.2-0.7,0.6-1,1.1c-0.2,0.4-0.4,1-0.4,1.6s0.1,1.1,0.4,1.6
			c0.2,0.5,0.6,0.8,1,1.1C142.1,65.8,142.5,65.9,143.1,65.9z"/>
		<path class="st1" d="M152.6,67.1c-0.8,0-1.4-0.2-2-0.5s-1.1-0.8-1.4-1.4c-0.3-0.6-0.5-1.4-0.5-2.2c0-0.8,0.2-1.6,0.5-2.2
			s0.8-1.1,1.4-1.5s1.3-0.5,2.1-0.5s1.4,0.2,2,0.5s1,0.8,1.3,1.4s0.5,1.2,0.5,1.8c0,0.1,0,0.2,0,0.4c0,0.1,0,0.2,0,0.4H150
			c0,0.6,0.2,1.1,0.4,1.5s0.6,0.7,0.9,0.9c0.4,0.2,0.8,0.3,1.2,0.3c0.6,0,1-0.1,1.4-0.4s0.6-0.6,0.8-1h1.3c-0.2,0.7-0.6,1.4-1.2,1.8
			C154.3,66.8,153.5,67.1,152.6,67.1z M152.6,59.9c-0.6,0-1.2,0.2-1.7,0.6s-0.8,1-0.9,1.7h5c0-0.7-0.3-1.3-0.7-1.7
			C153.8,60.1,153.3,59.9,152.6,59.9z"/>
		<path class="st1" d="M161.7,67.1c-0.8,0-1.5-0.2-2.1-0.5c-0.6-0.4-1-0.9-1.4-1.5c-0.3-0.6-0.5-1.3-0.5-2.1s0.2-1.5,0.5-2.1
			s0.8-1.1,1.4-1.5c0.6-0.4,1.3-0.5,2.1-0.5c0.6,0,1.2,0.1,1.7,0.4s0.9,0.6,1.2,1.1v-4.9h1.3V67h-1.2l-0.1-1.3
			c-0.3,0.4-0.6,0.7-1.1,1S162.4,67.1,161.7,67.1z M161.9,65.9c0.5,0,1-0.1,1.4-0.4c0.4-0.2,0.7-0.6,1-1.1c0.2-0.4,0.3-1,0.3-1.6
			s-0.1-1.1-0.3-1.6s-0.6-0.8-1-1.1s-0.9-0.4-1.4-0.4s-1,0.1-1.4,0.4c-0.4,0.2-0.7,0.6-1,1.1c-0.2,0.4-0.3,1-0.3,1.6
			s0.1,1.1,0.3,1.6c0.2,0.5,0.6,0.8,1,1.1C160.9,65.8,161.3,65.9,161.9,65.9z"/>
		<path class="st1" d="M30.5,88.9c-0.7,0-1.3-0.2-1.7-0.5c-0.4-0.4-0.6-1-0.6-1.9v-4.4h-1.4V81h1.4l0.2-1.9h1.2V81h2.3v1.1h-2.3v4.4
			c0,0.5,0.1,0.8,0.3,1c0.2,0.2,0.6,0.3,1.1,0.3h0.8V89h-1.3V88.9z"/>
		<path class="st1" d="M37,89.1c-0.8,0-1.4-0.2-2-0.5s-1.1-0.8-1.4-1.5c-0.3-0.6-0.5-1.4-0.5-2.2c0-0.8,0.2-1.6,0.5-2.2
			c0.4-0.6,0.8-1.1,1.4-1.5c0.6-0.3,1.3-0.5,2-0.5c0.8,0,1.4,0.2,2,0.5s1.1,0.8,1.4,1.5c0.4,0.6,0.5,1.4,0.5,2.2
			c0,0.8-0.2,1.6-0.5,2.2s-0.8,1.1-1.4,1.5C38.4,88.9,37.7,89.1,37,89.1z M37,87.9c0.5,0,0.9-0.1,1.3-0.3c0.4-0.2,0.7-0.6,1-1
			c0.2-0.4,0.4-1,0.4-1.7s-0.1-1.2-0.4-1.7c-0.2-0.5-0.6-0.8-1-1s-0.8-0.3-1.3-0.3s-0.9,0.1-1.3,0.3c-0.4,0.2-0.7,0.6-1,1
			c-0.2,0.4-0.4,1-0.4,1.7s0.1,1.2,0.4,1.7c0.2,0.5,0.6,0.8,1,1C36.1,87.8,36.5,87.9,37,87.9z"/>
		<path class="st1" d="M47.1,88.9V81h1.2l0.1,1.5c0.2-0.5,0.6-0.9,1.1-1.2s1.1-0.5,1.9-0.5v1.4H51c-0.5,0-0.9,0.1-1.3,0.2
			c-0.4,0.2-0.7,0.4-0.9,0.8s-0.3,0.9-0.3,1.6v4h-1.4V88.9z"/>
		<path class="st1" d="M56.1,89.1c-0.8,0-1.4-0.2-2-0.5c-0.6-0.4-1-0.8-1.4-1.4c-0.3-0.6-0.5-1.4-0.5-2.2c0-0.8,0.2-1.6,0.5-2.2
			s0.8-1.1,1.4-1.5c0.6-0.4,1.3-0.5,2.1-0.5s1.4,0.2,2,0.5c0.6,0.4,1,0.8,1.3,1.4s0.4,1.2,0.4,1.8c0,0.1,0,0.2,0,0.4
			c0,0.1,0,0.2,0,0.4h-6.3c0,0.6,0.2,1.1,0.4,1.5s0.6,0.7,0.9,0.9c0.4,0.2,0.8,0.3,1.2,0.3c0.5,0,1-0.1,1.4-0.4s0.6-0.6,0.8-1h1.3
			c-0.2,0.7-0.6,1.4-1.2,1.8C57.8,88.8,57.1,89.1,56.1,89.1z M56.1,81.9c-0.6,0-1.2,0.2-1.7,0.6s-0.8,1-0.9,1.7h5
			c0-0.7-0.3-1.3-0.7-1.7C57.4,82.1,56.8,81.9,56.1,81.9z"/>
		<path class="st1" d="M64.3,89.1c-0.7,0-1.2-0.1-1.7-0.3c-0.4-0.2-0.8-0.5-1-0.9s-0.3-0.8-0.3-1.2c0-0.8,0.3-1.4,0.9-1.9
			c0.6-0.4,1.5-0.7,2.5-0.7H67V84c0-0.7-0.2-1.2-0.5-1.6c-0.4-0.4-0.9-0.5-1.5-0.5c-0.5,0-1,0.1-1.4,0.4s-0.6,0.6-0.7,1.1h-1.4
			c0-0.6,0.2-1.1,0.6-1.5c0.3-0.4,0.8-0.7,1.3-0.9c0.5-0.2,1-0.3,1.6-0.3c1.1,0,1.9,0.3,2.5,0.9s0.8,1.4,0.8,2.4v4.9h-1.2L67,87.5
			c-0.2,0.5-0.6,0.8-1,1.1S65,89.1,64.3,89.1z M64.5,87.9c0.5,0,0.9-0.1,1.3-0.4s0.7-0.6,0.8-1c0.2-0.4,0.3-0.9,0.3-1.3l0,0h-2
			c-0.8,0-1.4,0.1-1.7,0.4s-0.5,0.6-0.5,1s0.2,0.8,0.5,1C63.5,87.8,64,87.9,64.5,87.9z"/>
		<path class="st1" d="M73.9,89.1c-0.8,0-1.5-0.2-2.1-0.5c-0.6-0.4-1-0.9-1.4-1.5c-0.3-0.6-0.5-1.3-0.5-2.1s0.2-1.5,0.5-2.1
			s0.8-1.1,1.4-1.5s1.3-0.5,2.1-0.5c0.7,0,1.2,0.1,1.7,0.4s0.9,0.6,1.2,1.1v-4.9h1.3V89H77l-0.1-1.3c-0.3,0.4-0.6,0.7-1.1,1
			C75.2,88.9,74.6,89.1,73.9,89.1z M74.1,87.9c0.5,0,1-0.1,1.4-0.4c0.4-0.2,0.7-0.6,1-1.1c0.2-0.4,0.3-1,0.3-1.6s-0.1-1.1-0.3-1.6
			c-0.2-0.5-0.6-0.8-1-1.1c-0.4-0.2-0.9-0.4-1.4-0.4s-1,0.1-1.4,0.4c-0.4,0.2-0.7,0.6-1,1.1c-0.2,0.4-0.3,1-0.3,1.6s0.1,1.1,0.3,1.6
			c0.2,0.5,0.6,0.8,1,1.1C73.1,87.8,73.5,87.9,74.1,87.9z"/>
		<path class="st1" d="M79.3,90.8l0.9-3.5h1.4l-1.4,3.5H79.3z"/>
		<path class="st1" d="M90.6,88.9c-0.7,0-1.3-0.2-1.7-0.5c-0.4-0.4-0.6-1-0.6-1.9v-4.4h-1.4V81h1.4l0.2-1.9h1.2V81H92v1.1h-2.3v4.4
			c0,0.5,0.1,0.8,0.3,1c0.2,0.2,0.6,0.3,1.1,0.3h0.8V89h-1.3V88.9z"/>
		<path class="st1" d="M97,89.1c-0.8,0-1.4-0.2-2-0.5c-0.6-0.4-1-0.8-1.4-1.4c-0.3-0.6-0.5-1.4-0.5-2.2c0-0.8,0.2-1.6,0.5-2.2
			s0.8-1.1,1.4-1.5s1.3-0.5,2.1-0.5c0.8,0,1.4,0.2,2,0.5c0.6,0.4,1,0.8,1.3,1.4s0.4,1.2,0.4,1.8c0,0.1,0,0.2,0,0.4
			c0,0.1,0,0.2,0,0.4h-6.3c0,0.6,0.2,1.1,0.4,1.5c0.2,0.4,0.6,0.7,0.9,0.9c0.4,0.2,0.8,0.3,1.2,0.3c0.5,0,1-0.1,1.4-0.4
			s0.6-0.6,0.8-1h1.3c-0.2,0.7-0.6,1.4-1.2,1.8C98.7,88.8,97.9,89.1,97,89.1z M97,81.9c-0.6,0-1.2,0.2-1.7,0.6s-0.8,1-0.9,1.7h5
			c0-0.7-0.3-1.3-0.7-1.7C98.2,82.1,97.7,81.9,97,81.9z"/>
		<path class="st1" d="M101.4,88.9l2.8-4l-2.8-4h1.5l2.2,3.3l2.2-3.3h1.4l-2.8,4l2.8,4h-1.4l-2.2-3.3l-2.2,3.3H101.4z"/>
		<path class="st1" d="M113.3,88.9c-0.7,0-1.3-0.2-1.7-0.5c-0.4-0.4-0.6-1-0.6-1.9v-4.4h-1.4V81h1.4l0.2-1.9h1.2V81h2.3v1.1h-2.3
			v4.4c0,0.5,0.1,0.8,0.3,1c0.2,0.2,0.6,0.3,1.1,0.3h0.8V89h-1.3V88.9z"/>
		<path class="st1" d="M116.1,90.8l0.9-3.5h1.4l-1.4,3.5H116.1z"/>
		<path class="st1" d="M124.2,92.4V80.9h1.2l0.1,1.3c0.3-0.4,0.6-0.7,1.1-1s1.1-0.5,1.8-0.5c0.8,0,1.5,0.2,2.1,0.5
			c0.6,0.4,1,0.9,1.4,1.5c0.3,0.6,0.5,1.3,0.5,2.1c0,0.8-0.2,1.5-0.5,2.1s-0.8,1.1-1.4,1.5c-0.6,0.4-1.3,0.5-2.1,0.5
			c-0.6,0-1.2-0.1-1.7-0.4s-0.9-0.6-1.2-1.1v4.9h-1.3V92.4z M128.3,87.9c0.5,0,1-0.1,1.4-0.4c0.4-0.2,0.7-0.6,1-1.1
			c0.2-0.4,0.4-1,0.4-1.6s-0.1-1.1-0.4-1.6c-0.2-0.5-0.6-0.8-1-1.1c-0.4-0.2-0.9-0.4-1.4-0.4c-0.5,0-1,0.1-1.4,0.4s-0.7,0.6-1,1.1
			c-0.2,0.4-0.4,1-0.4,1.6s0.1,1.1,0.4,1.6c0.2,0.5,0.5,0.8,1,1.1C127.3,87.8,127.8,87.9,128.3,87.9z"/>
		<path class="st1" d="M136.9,89.1c-0.7,0-1.2-0.1-1.6-0.3c-0.4-0.2-0.8-0.5-1-0.9s-0.3-0.8-0.3-1.2c0-0.8,0.3-1.4,0.9-1.9
			c0.6-0.4,1.5-0.7,2.5-0.7h2.1V84c0-0.7-0.2-1.2-0.5-1.6c-0.4-0.4-0.9-0.5-1.5-0.5c-0.5,0-1,0.1-1.4,0.4s-0.6,0.6-0.7,1.1H134
			c0-0.6,0.2-1.1,0.6-1.5c0.3-0.4,0.8-0.7,1.3-0.9c0.5-0.2,1-0.3,1.6-0.3c1.1,0,1.9,0.3,2.5,0.9s0.8,1.4,0.8,2.4v4.9h-1.2l-0.1-1.4
			c-0.2,0.5-0.6,0.8-1,1.1C138.2,88.9,137.6,89.1,136.9,89.1z M137.1,87.9c0.5,0,0.9-0.1,1.3-0.4c0.4-0.3,0.7-0.6,0.8-1
			c0.2-0.4,0.3-0.9,0.3-1.3l0,0h-2c-0.8,0-1.4,0.1-1.7,0.4s-0.5,0.6-0.5,1s0.1,0.8,0.5,1C136.1,87.8,136.6,87.9,137.1,87.9z"/>
		<path class="st1" d="M143.6,92.4l2-4.3h-0.5l-3.2-7.2h1.5l2.6,6.2l2.8-6.2h1.4L145,92.4H143.6z"/>
		<path class="st1" d="M31.6,111.1c-0.7,0-1.2-0.1-1.7-0.4s-0.9-0.6-1.2-1.1l-0.1,1.3h-1.2V99.4h1.3v4.9c0.3-0.4,0.6-0.7,1.1-1
			s1.1-0.5,1.8-0.5c0.8,0,1.5,0.2,2.1,0.5c0.6,0.4,1,0.9,1.4,1.5c0.3,0.6,0.5,1.3,0.5,2.1s-0.2,1.5-0.5,2.1s-0.8,1.1-1.4,1.5
			C33.1,110.9,32.4,111.1,31.6,111.1z M31.5,109.9c0.5,0,1-0.1,1.4-0.4s0.7-0.6,1-1.1c0.2-0.4,0.3-1,0.3-1.6s-0.1-1.1-0.3-1.6
			s-0.6-0.8-1-1.1s-0.9-0.4-1.4-0.4c-0.5,0-1,0.1-1.4,0.4s-0.7,0.6-1,1.1c-0.2,0.4-0.3,1-0.3,1.6s0.1,1.1,0.3,1.6
			c0.2,0.5,0.5,0.8,1,1.1S30.9,109.9,31.5,109.9z"/>
		<path class="st1" d="M38.2,101.2c-0.3,0-0.5-0.1-0.7-0.3c-0.2-0.2-0.3-0.4-0.3-0.7s0.1-0.5,0.3-0.6c0.2-0.2,0.4-0.3,0.7-0.3
			s0.5,0.1,0.7,0.3c0.2,0.2,0.3,0.4,0.3,0.6c0,0.3-0.1,0.5-0.3,0.7S38.5,101.2,38.2,101.2z M37.6,110.9V103h1.3v7.9H37.6z"/>
		<path class="st1" d="M41.2,110.9V99.4h1.3v11.5H41.2z"/>
		<path class="st1" d="M44.8,110.9V99.4h1.3v11.5H44.8z"/>
		<path class="st1" d="M51.4,111.1c-0.9,0-1.7-0.2-2.4-0.7c-0.6-0.5-1-1.1-1.1-2h1.4c0.1,0.4,0.3,0.8,0.7,1.1
			c0.4,0.3,0.8,0.5,1.5,0.5c0.6,0,1-0.1,1.2-0.4c0.3-0.2,0.4-0.5,0.4-0.9c0-0.5-0.2-0.8-0.5-1s-0.8-0.3-1.5-0.4
			c-0.4-0.1-0.8-0.2-1.3-0.4s-0.8-0.4-1.1-0.7c-0.3-0.3-0.4-0.7-0.4-1.2c0-0.7,0.3-1.3,0.8-1.7s1.2-0.7,2.1-0.7
			c0.8,0,1.5,0.2,2.1,0.6c0.5,0.4,0.8,1,0.9,1.8h-1.3c0-0.4-0.2-0.7-0.5-1s-0.7-0.3-1.2-0.3s-0.8,0.1-1.1,0.3
			c-0.3,0.2-0.4,0.5-0.4,0.8s0.2,0.6,0.5,0.8c0.3,0.2,0.8,0.3,1.4,0.5c0.5,0.1,1,0.2,1.4,0.4c0.4,0.1,0.8,0.4,1.1,0.7
			c0.3,0.3,0.4,0.7,0.4,1.3c0,0.7-0.3,1.3-0.8,1.8C53.1,110.8,52.3,111.1,51.4,111.1z"/>
		<path class="st1" d="M55.3,112.8l0.9-3.5h1.4l-1.4,3.5H55.3z"/>
		<path class="st1" d="M65,110.9l-2.3-7.9H64l1.7,6.2l1.9-6.2h1.5l1.9,6.2l1.7-6.2H74l-2.3,7.9h-1.4l-2-6.5l-1.9,6.5H65z"/>
		<path class="st1" d="M77.9,111.1c-0.7,0-1.2-0.1-1.7-0.3c-0.4-0.2-0.8-0.5-1-0.9s-0.3-0.8-0.3-1.2c0-0.8,0.3-1.4,0.9-1.9
			c0.6-0.4,1.5-0.7,2.5-0.7h2.1V106c0-0.7-0.2-1.2-0.5-1.6c-0.4-0.4-0.8-0.5-1.5-0.5c-0.5,0-1,0.1-1.3,0.4c-0.4,0.3-0.6,0.6-0.7,1.1
			H75c0.1-0.6,0.2-1.1,0.6-1.5c0.3-0.4,0.8-0.7,1.3-0.9c0.5-0.2,1-0.3,1.6-0.3c1.1,0,1.9,0.3,2.5,0.9s0.8,1.4,0.8,2.4v4.9h-1.2
			l-0.1-1.4c-0.2,0.5-0.5,0.8-1,1.1C79.2,110.9,78.6,111.1,77.9,111.1z M78.1,109.9c0.5,0,1-0.1,1.3-0.4c0.4-0.3,0.7-0.6,0.8-1
			c0.2-0.4,0.3-0.9,0.3-1.3l0,0h-2c-0.8,0-1.4,0.1-1.7,0.4s-0.5,0.6-0.5,1s0.2,0.8,0.5,1C77.1,109.8,77.5,109.9,78.1,109.9z"/>
		<path class="st1" d="M86.8,110.9c-0.7,0-1.3-0.2-1.7-0.5c-0.4-0.4-0.6-1-0.6-1.9v-4.4h-1.4V103h1.4l0.2-1.9h1.2v1.9h2.3v1.1h-2.3
			v4.4c0,0.5,0.1,0.8,0.3,1c0.2,0.2,0.6,0.3,1.1,0.3H88v1.2h-1.2V110.9z"/>
		<path class="st1" d="M93.3,111.1c-0.8,0-1.4-0.2-2-0.5s-1.1-0.8-1.4-1.5c-0.3-0.6-0.5-1.4-0.5-2.2c0-0.8,0.2-1.6,0.5-2.2
			s0.8-1.1,1.4-1.5s1.3-0.5,2-0.5c0.9,0,1.7,0.2,2.4,0.7s1.1,1.1,1.2,2h-1.4c-0.1-0.5-0.4-0.9-0.8-1.1c-0.4-0.3-0.9-0.4-1.5-0.4
			c-0.4,0-0.9,0.1-1.3,0.3c-0.4,0.2-0.7,0.6-1,1c-0.2,0.5-0.4,1-0.4,1.7s0.1,1.2,0.4,1.7s0.6,0.8,1,1s0.8,0.3,1.3,0.3
			c0.6,0,1-0.1,1.5-0.4c0.4-0.3,0.7-0.7,0.8-1.2h1.4c-0.2,0.8-0.6,1.4-1.2,1.9S94.2,111.1,93.3,111.1z"/>
		<path class="st1" d="M98.7,110.9V99.4h1.3v4.9c0.3-0.5,0.7-0.9,1.1-1.1c0.5-0.3,1-0.4,1.6-0.4c0.9,0,1.7,0.3,2.2,0.9
			c0.6,0.6,0.8,1.5,0.8,2.6v4.6h-1.3v-4.5c0-1.7-0.7-2.5-2-2.5c-0.7,0-1.3,0.2-1.7,0.7c-0.5,0.5-0.7,1.2-0.7,2.1v4.1L98.7,110.9
			L98.7,110.9z"/>
		<path class="st1" d="M114.8,110.9v-10.1h-3.3v-1.1h8v1.1h-3.3v10.1H114.8z"/>
		<path class="st1" d="M124.5,110.9l-4.2-11.2h1.5l3.5,9.8l3.6-9.8h1.4l-4.2,11.2H124.5z"/>
		<path class="st1" d="M139.6,111.1c-0.8,0-1.4-0.2-2-0.5s-1.1-0.8-1.4-1.5c-0.3-0.6-0.5-1.4-0.5-2.2c0-0.8,0.2-1.6,0.5-2.2
			s0.8-1.1,1.4-1.5c0.6-0.3,1.3-0.5,2-0.5c0.8,0,1.4,0.2,2,0.5s1.1,0.8,1.4,1.5c0.3,0.6,0.5,1.4,0.5,2.2c0,0.8-0.2,1.6-0.5,2.2
			c-0.4,0.6-0.8,1.1-1.4,1.5S140.4,111.1,139.6,111.1z M139.6,109.9c0.5,0,0.9-0.1,1.3-0.3c0.4-0.2,0.7-0.6,1-1
			c0.2-0.4,0.4-1,0.4-1.7s-0.1-1.2-0.4-1.7c-0.2-0.5-0.6-0.8-0.9-1c-0.4-0.2-0.8-0.3-1.3-0.3s-0.9,0.1-1.3,0.3c-0.4,0.2-0.7,0.6-1,1
			c-0.2,0.4-0.4,1-0.4,1.7s0.1,1.2,0.4,1.7c0.2,0.5,0.6,0.8,0.9,1C138.8,109.8,139.2,109.9,139.6,109.9z"/>
		<path class="st1" d="M145.5,110.9V103h1.2l0.1,1.5c0.2-0.5,0.6-0.9,1.1-1.2s1.1-0.5,1.9-0.5v1.4h-0.4c-0.5,0-0.9,0.1-1.3,0.2
			c-0.4,0.2-0.7,0.4-0.9,0.8s-0.3,0.9-0.3,1.6v4h-1.4V110.9z"/>
		<path class="st1" d="M30.9,133.1c-0.8,0-1.4-0.2-2-0.5c-0.6-0.4-1-0.8-1.4-1.4c-0.3-0.6-0.5-1.4-0.5-2.2c0-0.8,0.2-1.6,0.5-2.2
			s0.8-1.1,1.4-1.5s1.3-0.5,2.1-0.5c0.8,0,1.4,0.2,2,0.5c0.6,0.4,1,0.8,1.3,1.4s0.5,1.2,0.5,1.8c0,0.1,0,0.2,0,0.4
			c0,0.1,0,0.2,0,0.4h-6.3c0,0.6,0.2,1.1,0.4,1.5c0.2,0.4,0.6,0.7,0.9,0.9c0.4,0.2,0.8,0.3,1.2,0.3c0.6,0,1-0.1,1.4-0.4
			c0.4-0.3,0.6-0.6,0.8-1h1.3c-0.2,0.7-0.6,1.4-1.2,1.8C32.7,132.8,31.9,133.1,30.9,133.1z M30.9,125.9c-0.6,0-1.2,0.2-1.7,0.6
			s-0.8,1-0.9,1.7h5c0-0.7-0.3-1.3-0.7-1.7C32.2,126.1,31.6,125.9,30.9,125.9z"/>
		<path class="st1" d="M39.1,133.1c-0.7,0-1.2-0.1-1.7-0.3c-0.4-0.2-0.8-0.5-1-0.9s-0.3-0.8-0.3-1.2c0-0.8,0.3-1.4,0.9-1.9
			s1.5-0.7,2.5-0.7h2.1V128c0-0.7-0.2-1.2-0.5-1.6c-0.4-0.4-0.9-0.5-1.5-0.5c-0.5,0-1,0.1-1.3,0.4c-0.4,0.3-0.6,0.6-0.7,1.1h-1.4
			c0-0.6,0.2-1.1,0.6-1.5c0.3-0.4,0.8-0.7,1.3-0.9c0.5-0.2,1-0.3,1.6-0.3c1.1,0,1.9,0.3,2.5,0.9S43,127,43,128v4.9h-1.2l-0.1-1.4
			c-0.2,0.5-0.5,0.8-1,1.1C40.4,132.9,39.8,133.1,39.1,133.1z M39.3,131.9c0.5,0,1-0.1,1.3-0.4c0.4-0.3,0.7-0.6,0.8-1
			c0.2-0.4,0.3-0.9,0.3-1.3l0,0h-2c-0.8,0-1.4,0.1-1.7,0.4s-0.5,0.6-0.5,1s0.1,0.8,0.5,1C38.3,131.8,38.8,131.9,39.3,131.9z"/>
		<path class="st1" d="M48,132.9c-0.7,0-1.3-0.2-1.7-0.5c-0.4-0.4-0.6-1-0.6-1.9v-4.4h-1.4V125h1.4l0.2-1.9h1.2v1.9h2.3v1.1h-2.3
			v4.4c0,0.5,0.1,0.8,0.3,1s0.6,0.3,1.1,0.3h0.8v1.2H48V132.9z"/>
		<path class="st1" d="M58.5,132.9c-0.7,0-1.3-0.2-1.7-0.5c-0.4-0.4-0.6-1-0.6-1.9v-4.4h-1.4V125h1.4l0.2-1.9h1.2v1.9h2.3v1.1h-2.3
			v4.4c0,0.5,0.1,0.8,0.3,1s0.6,0.3,1.1,0.3h0.8v1.2h-1.3V132.9z"/>
		<path class="st1" d="M61.5,132.9v-11.5h1.3v4.9c0.3-0.5,0.6-0.9,1.1-1.1c0.5-0.3,1-0.4,1.6-0.4c0.9,0,1.7,0.3,2.2,0.9
			c0.6,0.6,0.8,1.5,0.8,2.6v4.6h-1.3v-4.5c0-1.7-0.7-2.5-2-2.5c-0.7,0-1.3,0.2-1.7,0.7c-0.5,0.5-0.7,1.2-0.7,2.1v4.1L61.5,132.9
			L61.5,132.9z"/>
		<path class="st1" d="M74.3,133.1c-0.8,0-1.4-0.2-2-0.5c-0.6-0.4-1.1-0.8-1.4-1.4s-0.5-1.4-0.5-2.2c0-0.8,0.2-1.6,0.5-2.2
			s0.8-1.1,1.4-1.5s1.3-0.5,2.1-0.5c0.8,0,1.4,0.2,2,0.5s1,0.8,1.3,1.4s0.4,1.2,0.4,1.8c0,0.1,0,0.2,0,0.4c0,0.1,0,0.2,0,0.4h-6.3
			c0,0.6,0.2,1.1,0.4,1.5c0.2,0.4,0.6,0.7,0.9,0.9c0.4,0.2,0.8,0.3,1.2,0.3c0.6,0,1-0.1,1.4-0.4s0.7-0.6,0.8-1h1.3
			c-0.2,0.7-0.6,1.4-1.2,1.8C76,132.8,75.2,133.1,74.3,133.1z M74.3,125.9c-0.6,0-1.2,0.2-1.7,0.6s-0.8,1-0.9,1.7h5
			c0-0.7-0.3-1.3-0.7-1.7C75.5,126.1,74.9,125.9,74.3,125.9z"/>
		<path class="st1" d="M79.8,132.9V125H81l0.1,1.4c0.3-0.5,0.6-0.9,1.1-1.2c0.5-0.3,1-0.4,1.6-0.4c0.9,0,1.7,0.3,2.2,0.9
			c0.6,0.6,0.8,1.5,0.8,2.6v4.6h-1.3v-4.5c0-1.7-0.7-2.5-2-2.5c-0.7,0-1.2,0.2-1.7,0.7c-0.4,0.5-0.7,1.2-0.7,2.1v4.1L79.8,132.9
			L79.8,132.9z"/>
		<path class="st1" d="M94,136.4l2-4.3h-0.5l-3.2-7.2h1.5l2.6,6.2l2.8-6.2h1.4l-5.2,11.5H94z"/>
		<path class="st1" d="M104.9,133.1c-0.8,0-1.4-0.2-2-0.5s-1.1-0.8-1.4-1.5s-0.5-1.4-0.5-2.2c0-0.8,0.2-1.6,0.5-2.2s0.8-1.1,1.4-1.5
			c0.6-0.3,1.3-0.5,2-0.5c0.8,0,1.4,0.2,2,0.5s1.1,0.8,1.4,1.5c0.4,0.6,0.5,1.4,0.5,2.2c0,0.8-0.2,1.6-0.5,2.2s-0.8,1.1-1.4,1.5
			S105.7,133.1,104.9,133.1z M104.9,131.9c0.5,0,0.9-0.1,1.3-0.3c0.4-0.2,0.7-0.6,1-1c0.2-0.4,0.4-1,0.4-1.7s-0.1-1.2-0.4-1.7
			c-0.2-0.4-0.6-0.8-1-1s-0.8-0.3-1.3-0.3s-0.9,0.1-1.3,0.3c-0.4,0.2-0.7,0.6-1,1c-0.2,0.4-0.4,1-0.4,1.7s0.1,1.2,0.4,1.7
			c0.2,0.4,0.6,0.8,1,1C104.1,131.8,104.5,131.9,104.9,131.9z"/>
		<path class="st1" d="M113.7,133.1c-0.9,0-1.7-0.3-2.2-0.9s-0.8-1.5-0.8-2.6V125h1.3v4.5c0,1.6,0.7,2.5,2,2.5
			c0.7,0,1.3-0.2,1.7-0.7c0.4-0.5,0.7-1.2,0.7-2.1v-4.1h1.3v7.9h-1.2l-0.1-1.4c-0.2,0.5-0.6,0.9-1.1,1.2
			C114.8,132.9,114.3,133.1,113.7,133.1z"/>
		<path class="st1" d="M124.2,132.9V125h1.2l0.1,1.1c0.3-0.4,0.6-0.8,1-1s0.9-0.4,1.4-0.4c0.6,0,1.2,0.1,1.6,0.4
			c0.4,0.3,0.8,0.6,1.1,1.2c0.3-0.5,0.7-0.9,1.1-1.1c0.5-0.3,1-0.4,1.6-0.4c0.9,0,1.7,0.3,2.3,0.9s0.9,1.4,0.9,2.6v4.6h-1.3v-4.5
			c0-0.8-0.2-1.4-0.5-1.9c-0.3-0.4-0.8-0.6-1.4-0.6c-0.6,0-1.2,0.2-1.6,0.7c-0.4,0.5-0.6,1.2-0.6,2.1v4.1h-1.3v-4.5
			c0-0.8-0.2-1.4-0.5-1.9c-0.3-0.4-0.8-0.6-1.4-0.6c-0.6,0-1.2,0.2-1.6,0.7s-0.6,1.2-0.6,2.1v4.1L124.2,132.9L124.2,132.9z"/>
		<path class="st1" d="M141.1,133.1c-0.7,0-1.2-0.1-1.6-0.3c-0.4-0.2-0.8-0.5-1-0.9s-0.3-0.8-0.3-1.2c0-0.8,0.3-1.4,0.9-1.9
			c0.6-0.4,1.5-0.7,2.5-0.7h2.1V128c0-0.7-0.2-1.2-0.5-1.6c-0.4-0.4-0.9-0.5-1.5-0.5c-0.5,0-1,0.1-1.3,0.4c-0.4,0.3-0.6,0.6-0.7,1.1
			h-1.4c0-0.6,0.2-1.1,0.6-1.5c0.3-0.4,0.8-0.7,1.3-0.9c0.5-0.2,1-0.3,1.6-0.3c1.1,0,1.9,0.3,2.5,0.9s0.8,1.4,0.8,2.4v4.9h-1.2
			l-0.1-1.4c-0.2,0.5-0.6,0.8-1,1.1C142.5,132.9,141.9,133.1,141.1,133.1z M141.4,131.9c0.5,0,0.9-0.1,1.3-0.4
			c0.4-0.3,0.7-0.6,0.8-1c0.2-0.4,0.3-0.9,0.3-1.3l0,0h-2c-0.8,0-1.4,0.1-1.7,0.4s-0.5,0.6-0.5,1s0.1,0.8,0.5,1
			C140.4,131.8,140.8,131.9,141.4,131.9z"/>
		<path class="st1" d="M147.8,136.4l2-4.3h-0.5l-3.1-7.2h1.5l2.6,6.2l2.8-6.2h1.4l-5.2,11.5H147.8z"/>
		<path class="st1" d="M31,155.1c-0.8,0-1.4-0.2-2-0.5c-0.6-0.4-1.1-0.8-1.4-1.5s-0.6-1.4-0.6-2.2s0.2-1.6,0.5-2.2s0.8-1.1,1.4-1.5
			s1.3-0.5,2-0.5c0.9,0,1.7,0.2,2.4,0.7c0.6,0.5,1,1.1,1.2,2h-1.4c-0.1-0.5-0.4-0.9-0.8-1.1c-0.4-0.3-0.9-0.4-1.5-0.4
			c-0.5,0-0.9,0.1-1.3,0.3c-0.4,0.2-0.7,0.6-1,1c-0.2,0.5-0.4,1-0.4,1.7s0.1,1.2,0.4,1.7c0.2,0.5,0.6,0.8,1,1s0.8,0.3,1.3,0.3
			s1-0.1,1.5-0.4c0.4-0.3,0.7-0.7,0.8-1.2h1.4c-0.2,0.8-0.6,1.4-1.2,1.9C32.8,154.8,32,155.1,31,155.1z"/>
		<path class="st1" d="M40.1,155.1c-0.8,0-1.4-0.2-2-0.5s-1.1-0.8-1.4-1.4c-0.3-0.6-0.5-1.4-0.5-2.2c0-0.8,0.2-1.6,0.5-2.2
			c0.4-0.6,0.8-1.1,1.4-1.5c0.6-0.3,1.3-0.5,2-0.5c0.8,0,1.4,0.2,2,0.5s1.1,0.8,1.4,1.5c0.3,0.6,0.5,1.4,0.5,2.2
			c0,0.8-0.2,1.6-0.5,2.2s-0.8,1.1-1.4,1.4C41.5,154.9,40.9,155.1,40.1,155.1z M40.1,153.9c0.5,0,0.9-0.1,1.3-0.3
			c0.4-0.2,0.7-0.6,1-1c0.2-0.4,0.4-1,0.4-1.7s-0.1-1.2-0.4-1.7c-0.2-0.4-0.6-0.8-0.9-1c-0.4-0.2-0.8-0.3-1.3-0.3s-0.9,0.1-1.3,0.3
			c-0.4,0.2-0.7,0.6-1,1c-0.2,0.4-0.4,1-0.4,1.7s0.1,1.2,0.4,1.7c0.2,0.4,0.6,0.8,0.9,1C39.2,153.8,39.7,153.9,40.1,153.9z"/>
		<path class="st1" d="M46,154.9V147h1.2l0.1,1.4c0.3-0.5,0.6-0.9,1.1-1.2c0.5-0.3,1-0.4,1.6-0.4c0.9,0,1.7,0.3,2.2,0.9
			c0.6,0.6,0.8,1.5,0.8,2.6v4.6h-1.3v-4.5c0-1.7-0.7-2.5-2-2.5c-0.7,0-1.2,0.2-1.7,0.7c-0.4,0.5-0.7,1.2-0.7,2.1v4.1L46,154.9
			L46,154.9z"/>
		<path class="st1" d="M55.1,154.9V147h1.2l0.1,1.4c0.3-0.5,0.6-0.9,1.1-1.2c0.5-0.3,1-0.4,1.6-0.4c0.9,0,1.7,0.3,2.2,0.9
			s0.8,1.5,0.8,2.6v4.6h-1.3v-4.5c0-1.7-0.7-2.5-2.1-2.5c-0.7,0-1.2,0.2-1.7,0.7c-0.4,0.5-0.7,1.2-0.7,2.1v4.1L55.1,154.9
			L55.1,154.9z"/>
		<path class="st1" d="M67.8,155.1c-0.8,0-1.4-0.2-2-0.5c-0.6-0.4-1-0.8-1.4-1.5c-0.3-0.6-0.5-1.4-0.5-2.2c0-0.8,0.2-1.6,0.5-2.2
			s0.8-1.1,1.4-1.5s1.3-0.5,2.1-0.5c0.8,0,1.4,0.2,2,0.5s1,0.8,1.3,1.4s0.4,1.2,0.4,1.8c0,0.1,0,0.2,0,0.4c0,0.1,0,0.2,0,0.4h-6.3
			c0,0.6,0.2,1.1,0.4,1.5c0.2,0.4,0.6,0.7,0.9,0.9c0.4,0.2,0.8,0.3,1.2,0.3c0.5,0,1-0.1,1.4-0.4s0.7-0.6,0.8-1h1.3
			c-0.2,0.7-0.6,1.4-1.2,1.8C69.5,154.8,68.8,155.1,67.8,155.1z M67.8,147.9c-0.6,0-1.2,0.2-1.7,0.6s-0.8,1-0.9,1.7h5
			c0-0.7-0.3-1.3-0.7-1.7C69.1,148.1,68.5,147.9,67.8,147.9z"/>
		<path class="st1" d="M77,155.1c-0.8,0-1.4-0.2-2-0.5c-0.6-0.4-1.1-0.8-1.4-1.5c-0.3-0.6-0.5-1.4-0.5-2.2c0-0.8,0.2-1.6,0.5-2.2
			c0.4-0.6,0.8-1.1,1.4-1.5s1.3-0.5,2-0.5c0.9,0,1.7,0.2,2.4,0.7s1,1.1,1.2,2h-1.4c-0.1-0.5-0.4-0.9-0.8-1.1
			c-0.4-0.3-0.9-0.4-1.5-0.4c-0.4,0-0.9,0.1-1.3,0.3c-0.4,0.2-0.7,0.6-1,1c-0.2,0.5-0.4,1-0.4,1.7s0.1,1.2,0.4,1.7
			c0.2,0.5,0.6,0.8,1,1s0.8,0.3,1.3,0.3c0.6,0,1-0.1,1.5-0.4s0.7-0.7,0.8-1.2h1.4c-0.2,0.8-0.6,1.4-1.2,1.9S78,155.1,77,155.1z"/>
		<path class="st1" d="M85.4,154.9c-0.7,0-1.3-0.2-1.7-0.5c-0.4-0.4-0.6-1-0.6-1.9v-4.4h-1.4V147h1.4l0.2-1.9h1.2v1.9h2.3v1.1h-2.3
			v4.4c0,0.5,0.1,0.8,0.3,1c0.2,0.2,0.6,0.3,1.1,0.3h0.8v1.1H85.4z"/>
		<path class="st1" d="M96.9,155.1c-0.7,0-1.2-0.1-1.7-0.4s-0.9-0.6-1.2-1.1l-0.1,1.3h-1.2v-11.5H94v4.9c0.3-0.4,0.6-0.7,1.1-1
			s1.1-0.5,1.8-0.5c0.8,0,1.5,0.2,2.1,0.5c0.6,0.4,1,0.9,1.4,1.5c0.3,0.6,0.5,1.3,0.5,2.1s-0.2,1.5-0.5,2.1s-0.8,1.1-1.4,1.5
			C98.4,154.9,97.7,155.1,96.9,155.1z M96.8,153.9c0.5,0,1-0.1,1.4-0.4c0.4-0.2,0.7-0.6,1-1.1c0.2-0.4,0.3-1,0.3-1.6
			s-0.1-1.1-0.3-1.6c-0.2-0.5-0.6-0.8-1-1.1c-0.4-0.2-0.9-0.4-1.4-0.4s-1,0.1-1.4,0.4c-0.4,0.2-0.7,0.6-1,1.1
			c-0.2,0.4-0.3,1-0.3,1.6s0.1,1.1,0.3,1.6c0.2,0.4,0.6,0.8,1,1.1C95.8,153.8,96.3,153.9,96.8,153.9z"/>
		<path class="st1" d="M106.3,155.1c-0.8,0-1.4-0.2-2-0.5c-0.6-0.4-1.1-0.8-1.4-1.5c-0.3-0.6-0.5-1.4-0.5-2.2c0-0.8,0.2-1.6,0.5-2.2
			s0.8-1.1,1.4-1.5s1.3-0.5,2.1-0.5c0.8,0,1.4,0.2,2,0.5s1,0.8,1.3,1.4s0.4,1.2,0.4,1.8c0,0.1,0,0.2,0,0.4c0,0.1,0,0.2,0,0.4h-6.3
			c0,0.6,0.2,1.1,0.4,1.5c0.2,0.4,0.6,0.7,0.9,0.9c0.4,0.2,0.8,0.3,1.2,0.3c0.6,0,1-0.1,1.4-0.4s0.6-0.6,0.8-1h1.3
			c-0.2,0.7-0.6,1.4-1.2,1.8C108,154.8,107.3,155.1,106.3,155.1z M106.3,147.9c-0.6,0-1.2,0.2-1.7,0.6s-0.8,1-0.9,1.7h5
			c0-0.7-0.3-1.3-0.7-1.7C107.6,148.1,107,147.9,106.3,147.9z"/>
		<path class="st1" d="M115.5,155.1c-0.8,0-1.5-0.2-2.1-0.5c-0.6-0.4-1.1-0.9-1.4-1.5s-0.5-1.3-0.5-2.1s0.2-1.5,0.5-2.1
			s0.8-1.1,1.4-1.5s1.3-0.5,2.1-0.5c0.6,0,1.2,0.1,1.7,0.4s0.9,0.6,1.2,1.1v-4.9h1.3V155h-1.2l-0.1-1.3c-0.3,0.4-0.6,0.7-1.1,1
			C116.8,154.9,116.2,155.1,115.5,155.1z M115.6,153.9c0.5,0,1-0.1,1.4-0.4c0.4-0.2,0.7-0.6,1-1.1s0.3-1,0.3-1.6s-0.1-1.1-0.3-1.6
			c-0.2-0.5-0.6-0.8-1-1.1c-0.4-0.2-0.9-0.4-1.4-0.4s-1,0.1-1.4,0.4s-0.7,0.6-1,1.1c-0.2,0.4-0.3,1-0.3,1.6s0.1,1.1,0.3,1.6
			c0.2,0.4,0.6,0.8,1,1.1S115.1,153.9,115.6,153.9z"/>
		<path class="st1" d="M127.7,154.9l-2.3-7.9h1.3l1.7,6.2l1.9-6.2h1.5l1.9,6.2l1.7-6.2h1.4l-2.3,7.9H133l-1.9-6.5l-1.9,6.5H127.7z"
			/>
		<path class="st1" d="M139,145.2c-0.3,0-0.5-0.1-0.7-0.3c-0.2-0.2-0.3-0.4-0.3-0.7s0.1-0.5,0.3-0.6c0.2-0.2,0.4-0.3,0.7-0.3
			s0.5,0.1,0.7,0.3c0.2,0.2,0.3,0.4,0.3,0.6c0,0.3-0.1,0.5-0.3,0.7C139.5,145.1,139.3,145.2,139,145.2z M138.3,154.9V147h1.3v7.9
			H138.3z"/>
		<path class="st1" d="M145.2,154.9c-0.7,0-1.3-0.2-1.7-0.5c-0.4-0.4-0.6-1-0.6-1.9v-4.4h-1.4V147h1.4l0.2-1.9h1.2v1.9h2.3v1.1h-2.3
			v4.4c0,0.5,0.1,0.8,0.3,1s0.6,0.3,1.1,0.3h0.8v1.1H145.2z"/>
		<path class="st1" d="M148.2,154.9v-11.5h1.3v4.9c0.3-0.5,0.6-0.9,1.1-1.1c0.5-0.3,1-0.4,1.6-0.4c0.9,0,1.7,0.3,2.2,0.9
			c0.6,0.6,0.8,1.5,0.8,2.6v4.6H154v-4.5c0-1.7-0.7-2.5-2-2.5c-0.7,0-1.3,0.2-1.7,0.7c-0.5,0.5-0.7,1.2-0.7,2.1v4.1L148.2,154.9
			L148.2,154.9z"/>
		<path class="st1" d="M31.6,177.1c-0.7,0-1.2-0.1-1.7-0.4s-0.9-0.6-1.2-1.1l-0.1,1.3h-1.2v-11.5h1.3v4.9c0.3-0.4,0.6-0.7,1.1-1
			s1.1-0.5,1.8-0.5c0.8,0,1.5,0.2,2.1,0.5c0.6,0.4,1,0.9,1.4,1.5c0.3,0.6,0.5,1.3,0.5,2.1c0,0.8-0.2,1.5-0.5,2.1s-0.8,1.1-1.4,1.5
			C33.1,176.9,32.4,177.1,31.6,177.1z M31.5,175.9c0.5,0,1-0.1,1.4-0.4s0.7-0.6,1-1c0.2-0.5,0.3-1,0.3-1.6s-0.1-1.1-0.3-1.6
			s-0.6-0.8-1-1s-0.9-0.4-1.4-0.4c-0.5,0-1,0.1-1.4,0.4s-0.7,0.6-1,1s-0.3,1-0.3,1.6s0.1,1.1,0.3,1.6c0.2,0.4,0.5,0.8,1,1
			S30.9,175.9,31.5,175.9z"/>
		<path class="st1" d="M41,177.1c-0.8,0-1.4-0.2-2-0.5c-0.6-0.4-1-0.8-1.4-1.5c-0.3-0.6-0.5-1.4-0.5-2.2c0-0.8,0.2-1.6,0.5-2.2
			s0.8-1.1,1.4-1.5s1.3-0.5,2.1-0.5s1.4,0.2,2,0.5s1,0.8,1.3,1.4s0.4,1.2,0.4,1.8c0,0.1,0,0.2,0,0.3c0,0.1,0,0.2,0,0.4h-6.3
			c0,0.6,0.2,1.1,0.4,1.5s0.6,0.7,0.9,0.9c0.4,0.2,0.8,0.3,1.2,0.3c0.5,0,1-0.1,1.4-0.4s0.7-0.6,0.8-1h1.3c-0.2,0.7-0.6,1.4-1.2,1.8
			C42.7,176.8,41.9,177.1,41,177.1z M41,169.9c-0.6,0-1.2,0.2-1.7,0.6s-0.8,1-0.9,1.7h5c0-0.7-0.3-1.3-0.7-1.7
			C42.2,170.1,41.7,169.9,41,169.9z"/>
		<path class="st1" d="M47.3,167.2c-0.3,0-0.5-0.1-0.7-0.3c-0.2-0.2-0.3-0.4-0.3-0.7s0.1-0.5,0.3-0.6c0.2-0.2,0.4-0.3,0.7-0.3
			s0.5,0.1,0.7,0.3c0.2,0.2,0.3,0.4,0.3,0.6c0,0.3-0.1,0.5-0.3,0.7C47.8,167.1,47.6,167.2,47.3,167.2z M46.7,176.9V169H48v7.9H46.7z
			"/>
		<path class="st1" d="M50.3,176.9V169h1.2l0.1,1.4c0.3-0.5,0.6-0.9,1.1-1.2c0.5-0.3,1-0.4,1.6-0.4c0.9,0,1.7,0.3,2.2,0.9
			c0.6,0.6,0.8,1.4,0.8,2.6v4.6H56v-4.5c0-1.6-0.7-2.5-2.1-2.5c-0.7,0-1.2,0.2-1.7,0.7s-0.7,1.2-0.7,2.1v4.1L50.3,176.9L50.3,176.9z
			"/>
		<path class="st1" d="M62.6,174.4c-0.4,0-0.9-0.1-1.2-0.2l-0.8,0.8c0.1,0.1,0.3,0.2,0.4,0.2c0.2,0.1,0.4,0.1,0.8,0.2
			c0.3,0,0.8,0.1,1.4,0.2c1.1,0.1,1.8,0.3,2.3,0.7c0.5,0.4,0.7,1,0.7,1.6c0,0.5-0.1,0.9-0.4,1.3c-0.2,0.4-0.6,0.8-1.2,1
			c-0.5,0.3-1.2,0.4-2,0.4c-0.7,0-1.3-0.1-1.9-0.3s-1-0.5-1.3-0.8c-0.3-0.4-0.5-0.9-0.5-1.4c0-0.3,0.1-0.6,0.2-1
			c0.2-0.3,0.5-0.7,0.9-1c-0.2-0.1-0.4-0.2-0.6-0.3s-0.3-0.2-0.5-0.4V175l1.4-1.3c-0.6-0.5-0.9-1.2-0.9-2.1c0-0.5,0.1-1,0.4-1.4
			c0.2-0.4,0.6-0.8,1.1-1s1-0.4,1.7-0.4c0.5,0,0.9,0.1,1.2,0.2h2.9v1l-1.5,0.1c0.3,0.5,0.5,1,0.5,1.5s-0.1,1-0.4,1.4
			c-0.2,0.4-0.6,0.8-1.1,1C63.9,174.2,63.3,174.4,62.6,174.4z M60.3,177.9c0,0.5,0.2,0.9,0.7,1.2c0.4,0.3,1,0.4,1.7,0.4
			s1.2-0.1,1.6-0.4s0.6-0.7,0.6-1.1c0-0.3-0.1-0.6-0.4-0.9s-0.8-0.4-1.5-0.4c-0.6,0-1.1-0.1-1.5-0.2c-0.4,0.2-0.7,0.5-0.9,0.8
			C60.4,177.4,60.3,177.7,60.3,177.9z M62.6,173.3c0.6,0,1-0.2,1.4-0.4c0.3-0.3,0.5-0.7,0.5-1.3c0-0.5-0.2-1-0.5-1.3
			c-0.3-0.3-0.8-0.4-1.4-0.4c-0.6,0-1,0.2-1.4,0.4c-0.3,0.3-0.5,0.7-0.5,1.3s0.2,1,0.5,1.3C61.6,173.1,62.1,173.3,62.6,173.3z"/>
		<path class="st1" d="M75.2,177.1c-0.7,0-1.2-0.1-1.7-0.3c-0.4-0.2-0.8-0.5-1-0.9s-0.3-0.8-0.3-1.2c0-0.8,0.3-1.4,0.9-1.9
			c0.6-0.4,1.5-0.7,2.5-0.7h2.1V172c0-0.7-0.2-1.2-0.5-1.6s-0.8-0.5-1.5-0.5c-0.5,0-1,0.1-1.3,0.4c-0.4,0.3-0.6,0.6-0.7,1.1h-1.4
			c0.1-0.6,0.2-1.1,0.6-1.5c0.3-0.4,0.8-0.7,1.3-0.9c0.5-0.2,1-0.3,1.6-0.3c1.1,0,1.9,0.3,2.5,0.9s0.8,1.4,0.8,2.4v4.9H78l-0.1-1.4
			c-0.2,0.5-0.5,0.8-1,1.1C76.5,176.9,75.9,177.1,75.2,177.1z M75.4,175.9c0.5,0,1-0.1,1.3-0.4c0.4-0.3,0.7-0.6,0.8-1
			c0.2-0.4,0.3-0.9,0.3-1.3l0,0h-2c-0.8,0-1.3,0.1-1.7,0.4c-0.3,0.3-0.5,0.6-0.5,1s0.2,0.8,0.5,1C74.4,175.8,74.9,175.9,75.4,175.9z
			"/>
		<path class="st1" d="M82.7,176.9l-2.3-7.9h1.3l1.7,6.2l1.9-6.2h1.5l1.9,6.2l1.7-6.2h1.4l-2.3,7.9h-1.4l-1.9-6.5l-2,6.5H82.7z"/>
		<path class="st1" d="M95.5,177.1c-0.7,0-1.2-0.1-1.7-0.3c-0.4-0.2-0.8-0.5-1-0.9s-0.3-0.8-0.3-1.2c0-0.8,0.3-1.4,0.9-1.9
			c0.6-0.4,1.5-0.7,2.5-0.7H98V172c0-0.7-0.2-1.2-0.5-1.6c-0.4-0.4-0.8-0.5-1.5-0.5c-0.5,0-1,0.1-1.3,0.4c-0.4,0.3-0.6,0.6-0.7,1.1
			h-1.4c0.1-0.6,0.2-1.1,0.6-1.5c0.3-0.4,0.8-0.7,1.3-0.9c0.5-0.2,1-0.3,1.6-0.3c1.1,0,1.9,0.3,2.5,0.9s0.8,1.4,0.8,2.4v4.9h-1.2
			l-0.1-1.4c-0.2,0.5-0.5,0.8-1,1.1S96.2,177.1,95.5,177.1z M95.7,175.9c0.5,0,0.9-0.1,1.3-0.4s0.7-0.6,0.8-1
			c0.2-0.4,0.3-0.9,0.3-1.3l0,0h-2c-0.8,0-1.3,0.1-1.7,0.4c-0.3,0.3-0.5,0.6-0.5,1s0.1,0.8,0.5,1C94.7,175.8,95.1,175.9,95.7,175.9z
			"/>
		<path class="st1" d="M101.5,176.9v-11.5h1.3v6.9l3.2-3.3h1.7l-3.5,3.6l4,4.3h-1.7l-3.6-4.1v4.1H101.5z"/>
		<path class="st1" d="M112.6,177.1c-0.8,0-1.4-0.2-2-0.5c-0.6-0.4-1.1-0.8-1.4-1.5c-0.3-0.6-0.5-1.4-0.5-2.2c0-0.8,0.2-1.6,0.5-2.2
			s0.8-1.1,1.4-1.5s1.3-0.5,2.1-0.5c0.8,0,1.4,0.2,2,0.5s1,0.8,1.3,1.4s0.5,1.2,0.5,1.8c0,0.1,0,0.2,0,0.3c0,0.1,0,0.2,0,0.4H110
			c0,0.6,0.2,1.1,0.4,1.5c0.2,0.4,0.6,0.7,0.9,0.9c0.4,0.2,0.8,0.3,1.2,0.3c0.6,0,1-0.1,1.4-0.4s0.6-0.6,0.8-1h1.3
			c-0.2,0.7-0.6,1.4-1.2,1.8C114.3,176.8,113.5,177.1,112.6,177.1z M112.6,169.9c-0.6,0-1.2,0.2-1.7,0.6s-0.8,1-0.9,1.7h5
			c0-0.7-0.3-1.3-0.7-1.7C113.8,170.1,113.2,169.9,112.6,169.9z"/>
		<path class="st1" d="M117,178.8l0.9-3.5h1.4l-1.4,3.5H117z"/>
		<path class="st1" d="M30.5,198.9c-0.7,0-1.3-0.2-1.7-0.5c-0.4-0.4-0.6-1-0.6-1.9v-4.4h-1.4V191h1.4l0.2-1.9h1.2v1.9h2.3v1.1h-2.3
			v4.4c0,0.5,0.1,0.8,0.3,1s0.6,0.3,1.1,0.3h0.8v1.1H30.5z"/>
		<path class="st1" d="M33.6,198.9v-11.5h1.3v4.9c0.3-0.5,0.6-0.9,1.1-1.1c0.5-0.3,1-0.4,1.6-0.4c0.9,0,1.7,0.3,2.2,0.9
			c0.6,0.6,0.8,1.4,0.8,2.6v4.6h-1.3v-4.5c0-1.6-0.7-2.5-2-2.5c-0.7,0-1.3,0.2-1.7,0.7c-0.5,0.5-0.7,1.2-0.7,2.1v4.1L33.6,198.9
			L33.6,198.9z"/>
		<path class="st1" d="M43.5,189.2c-0.3,0-0.5-0.1-0.7-0.3c-0.2-0.2-0.3-0.4-0.3-0.7s0.1-0.5,0.3-0.6c0.2-0.2,0.4-0.3,0.7-0.3
			s0.5,0.1,0.7,0.3c0.2,0.2,0.3,0.4,0.3,0.6c0,0.3-0.1,0.5-0.3,0.7C44,189.1,43.8,189.2,43.5,189.2z M42.9,198.9V191h1.3v7.9H42.9z"
			/>
		<path class="st1" d="M46.5,198.9V191h1.2l0.1,1.4c0.3-0.5,0.6-0.9,1.1-1.2c0.5-0.3,1-0.4,1.6-0.4c0.9,0,1.7,0.3,2.2,0.9
			c0.6,0.6,0.8,1.4,0.8,2.6v4.6h-1.3v-4.5c0-1.6-0.7-2.5-2.1-2.5c-0.7,0-1.2,0.2-1.7,0.7c-0.4,0.5-0.7,1.2-0.7,2.1v4.1L46.5,198.9
			L46.5,198.9z"/>
		<path class="st1" d="M55.7,198.9v-11.5H57v6.9l3.2-3.3h1.7l-3.5,3.6l4,4.3h-1.7l-3.6-4.1v4.1H55.7z"/>
		<path class="st1" d="M64.6,189.2c-0.3,0-0.5-0.1-0.7-0.3c-0.2-0.2-0.3-0.4-0.3-0.7s0.1-0.5,0.3-0.6c0.2-0.2,0.4-0.3,0.7-0.3
			s0.5,0.1,0.7,0.3c0.2,0.2,0.3,0.4,0.3,0.6c0,0.3-0.1,0.5-0.3,0.7C65,189.1,64.8,189.2,64.6,189.2z M63.9,198.9V191h1.3v7.9H63.9z"
			/>
		<path class="st1" d="M67.6,198.9V191h1.2l0.1,1.4c0.3-0.5,0.6-0.9,1.1-1.2c0.5-0.3,1-0.4,1.6-0.4c0.9,0,1.7,0.3,2.2,0.9
			c0.6,0.6,0.8,1.4,0.8,2.6v4.6h-1.3v-4.5c0-1.6-0.7-2.5-2.1-2.5c-0.7,0-1.2,0.2-1.7,0.7c-0.4,0.5-0.7,1.2-0.7,2.1v4.1L67.6,198.9
			L67.6,198.9z"/>
		<path class="st1" d="M79.9,196.4c-0.4,0-0.9-0.1-1.2-0.2l-0.8,0.8c0.1,0.1,0.3,0.2,0.4,0.2c0.2,0.1,0.4,0.1,0.8,0.2
			s0.8,0.1,1.4,0.2c1.1,0.1,1.8,0.3,2.3,0.7c0.5,0.4,0.7,1,0.7,1.6c0,0.5-0.1,0.9-0.4,1.3c-0.2,0.4-0.6,0.8-1.1,1
			c-0.5,0.3-1.2,0.4-2,0.4c-0.7,0-1.3-0.1-1.9-0.3c-0.6-0.2-1-0.5-1.3-0.8s-0.5-0.9-0.5-1.4c0-0.3,0.1-0.6,0.2-1
			c0.2-0.3,0.5-0.7,0.9-1c-0.2-0.1-0.4-0.2-0.6-0.3c-0.2-0.1-0.3-0.2-0.5-0.4V197l1.4-1.3c-0.6-0.5-0.9-1.2-0.9-2.1
			c0-0.5,0.1-1,0.4-1.4c0.2-0.4,0.6-0.8,1.1-1s1-0.4,1.7-0.4c0.5,0,0.9,0.1,1.2,0.2h2.9v1l-1.5,0.1c0.3,0.5,0.5,1,0.5,1.5
			s-0.1,1-0.4,1.4c-0.2,0.4-0.6,0.8-1.1,1C81.1,196.2,80.5,196.4,79.9,196.4z M77.5,199.9c0,0.5,0.2,0.9,0.7,1.2
			c0.5,0.3,1,0.4,1.7,0.4s1.2-0.1,1.6-0.4s0.6-0.7,0.6-1.1c0-0.3-0.1-0.6-0.4-0.9s-0.8-0.4-1.5-0.4c-0.6,0-1.1-0.1-1.5-0.2
			c-0.4,0.2-0.7,0.5-0.9,0.8C77.6,199.4,77.5,199.7,77.5,199.9z M79.9,195.3c0.6,0,1-0.2,1.3-0.4c0.3-0.3,0.5-0.7,0.5-1.3
			c0-0.5-0.2-1-0.5-1.3s-0.8-0.4-1.3-0.4c-0.6,0-1,0.2-1.4,0.4c-0.3,0.3-0.5,0.7-0.5,1.3s0.2,1,0.5,1.3
			C78.8,195.1,79.3,195.3,79.9,195.3z"/>
		<path class="st1" d="M84.5,200.8l0.9-3.5h1.4l-1.4,3.5H84.5z"/>
		<path class="st1" d="M95.3,199.1c-0.7,0-1.2-0.1-1.7-0.3c-0.4-0.2-0.8-0.5-1-0.9s-0.3-0.8-0.3-1.2c0-0.8,0.3-1.4,0.9-1.9
			c0.6-0.4,1.5-0.7,2.5-0.7h2.1V194c0-0.7-0.2-1.2-0.5-1.6s-0.8-0.5-1.5-0.5c-0.5,0-1,0.1-1.4,0.4s-0.6,0.6-0.7,1.1h-1.4
			c0.1-0.6,0.2-1.1,0.6-1.5c0.3-0.4,0.8-0.7,1.3-0.9c0.5-0.2,1-0.3,1.6-0.3c1.1,0,1.9,0.3,2.5,0.9s0.8,1.4,0.8,2.4v4.9h-1.2
			l-0.1-1.4c-0.2,0.5-0.6,0.8-1,1.1C96.6,198.9,96,199.1,95.3,199.1z M95.5,197.9c0.5,0,1-0.1,1.3-0.4c0.4-0.3,0.7-0.6,0.8-1
			c0.2-0.4,0.3-0.9,0.3-1.3l0,0h-2c-0.8,0-1.4,0.1-1.7,0.4c-0.3,0.3-0.5,0.6-0.5,1s0.2,0.8,0.5,1C94.5,197.8,94.9,197.9,95.5,197.9z
			"/>
		<path class="st1" d="M101.3,198.9V191h1.2l0.1,1.4c0.3-0.5,0.6-0.9,1.1-1.2c0.5-0.3,1-0.4,1.6-0.4c0.9,0,1.7,0.3,2.2,0.9
			c0.6,0.6,0.8,1.4,0.8,2.6v4.6H107v-4.5c0-1.6-0.7-2.5-2.1-2.5c-0.7,0-1.2,0.2-1.7,0.7s-0.7,1.2-0.7,2.1v4.1L101.3,198.9
			L101.3,198.9z"/>
		<path class="st1" d="M114.1,199.1c-0.8,0-1.5-0.2-2.1-0.5c-0.6-0.4-1.1-0.9-1.4-1.5s-0.5-1.3-0.5-2.1s0.2-1.5,0.5-2.1
			s0.8-1.1,1.4-1.5s1.3-0.5,2.1-0.5c0.6,0,1.2,0.1,1.7,0.4s0.9,0.6,1.2,1.1v-4.9h1.3V199h-1.2l-0.1-1.3c-0.3,0.4-0.6,0.7-1.1,1
			C115.4,198.9,114.8,199.1,114.1,199.1z M114.2,197.9c0.5,0,1-0.1,1.4-0.4c0.4-0.2,0.7-0.6,1-1c0.2-0.5,0.3-1,0.3-1.6
			s-0.1-1.1-0.3-1.6s-0.6-0.8-1-1s-0.9-0.4-1.4-0.4s-1,0.1-1.4,0.4s-0.7,0.6-1,1c-0.2,0.5-0.3,1-0.3,1.6s0.1,1.1,0.3,1.6
			c0.2,0.4,0.6,0.8,1,1S113.7,197.9,114.2,197.9z"/>
		<path class="st1" d="M30.4,221.1c-1,0-1.7-0.2-2.4-0.7c-0.6-0.5-1-1.1-1.1-2h1.4c0.1,0.4,0.3,0.8,0.7,1.1c0.4,0.3,0.8,0.5,1.5,0.5
			c0.6,0,1-0.1,1.2-0.4s0.4-0.5,0.4-0.9c0-0.5-0.2-0.8-0.5-1c-0.4-0.2-0.8-0.3-1.5-0.4c-0.4-0.1-0.8-0.2-1.3-0.4s-0.8-0.4-1.1-0.7
			s-0.4-0.7-0.4-1.2c0-0.7,0.3-1.3,0.8-1.7c0.5-0.4,1.2-0.7,2.1-0.7c0.8,0,1.5,0.2,2.1,0.6c0.6,0.4,0.8,1,0.9,1.8h-1.3
			c0-0.4-0.2-0.7-0.5-0.9c-0.3-0.2-0.7-0.3-1.2-0.3s-0.8,0.1-1.1,0.3c-0.3,0.2-0.4,0.5-0.4,0.8s0.2,0.6,0.5,0.8
			c0.3,0.2,0.8,0.3,1.4,0.5c0.5,0.1,1,0.2,1.4,0.4c0.4,0.1,0.8,0.4,1.1,0.7c0.3,0.3,0.4,0.7,0.4,1.3c0,0.7-0.3,1.3-0.8,1.8
			C32.1,220.8,31.4,221.1,30.4,221.1z"/>
		<path class="st1" d="M39,221.1c-0.8,0-1.4-0.2-2-0.5s-1.1-0.8-1.4-1.4c-0.4-0.6-0.5-1.4-0.5-2.2c0-0.8,0.2-1.6,0.5-2.2
			c0.4-0.6,0.8-1.1,1.4-1.5c0.6-0.3,1.3-0.5,2-0.5s1.4,0.2,2,0.5s1.1,0.8,1.4,1.5c0.4,0.6,0.5,1.4,0.5,2.2c0,0.8-0.2,1.6-0.5,2.2
			s-0.8,1.1-1.4,1.4C40.4,220.9,39.7,221.1,39,221.1z M39,219.9c0.5,0,0.9-0.1,1.3-0.3c0.4-0.2,0.7-0.6,1-1s0.4-1,0.4-1.7
			s-0.1-1.2-0.4-1.7c-0.2-0.4-0.6-0.8-1-1s-0.8-0.3-1.3-0.3s-0.9,0.1-1.3,0.3c-0.4,0.2-0.7,0.6-1,1c-0.2,0.5-0.4,1-0.4,1.7
			s0.1,1.2,0.4,1.7c0.2,0.5,0.6,0.8,1,1S38.5,219.9,39,219.9z"/>
		<path class="st1" d="M44.8,220.9v-11.5h1.3v11.5H44.8z"/>
		<path class="st1" d="M50.7,220.9l-3-7.9h1.4l2.4,6.6l2.4-6.6h1.4l-3,7.9H50.7z"/>
		<path class="st1" d="M57.5,211.2c-0.3,0-0.5-0.1-0.7-0.3c-0.2-0.2-0.3-0.4-0.3-0.7s0.1-0.5,0.3-0.6c0.2-0.2,0.4-0.3,0.7-0.3
			s0.5,0.1,0.7,0.3c0.2,0.2,0.3,0.4,0.3,0.6c0,0.3-0.1,0.5-0.3,0.7C58,211.1,57.8,211.2,57.5,211.2z M56.9,220.9V213h1.3v7.9H56.9z"
			/>
		<path class="st1" d="M60.6,220.9V213h1.2l0.1,1.4c0.3-0.5,0.6-0.9,1.1-1.2c0.5-0.3,1-0.4,1.6-0.4c0.9,0,1.7,0.3,2.2,0.9
			c0.6,0.6,0.8,1.4,0.8,2.6v4.6h-1.3v-4.5c0-1.6-0.7-2.5-2.1-2.5c-0.7,0-1.3,0.2-1.7,0.7c-0.5,0.5-0.7,1.2-0.7,2.1v4.1L60.6,220.9
			L60.6,220.9z"/>
		<path class="st1" d="M72.8,218.4c-0.4,0-0.9-0.1-1.2-0.2l-0.8,0.8c0.1,0.1,0.3,0.2,0.4,0.2c0.2,0.1,0.4,0.1,0.8,0.2
			c0.3,0,0.8,0.1,1.4,0.2c1.1,0.1,1.8,0.3,2.3,0.7c0.5,0.4,0.7,1,0.7,1.6c0,0.5-0.1,0.9-0.4,1.3c-0.2,0.4-0.6,0.8-1.2,1
			c-0.5,0.3-1.2,0.4-2,0.4c-0.7,0-1.3-0.1-1.9-0.3c-0.5-0.2-1-0.5-1.3-0.8c-0.3-0.4-0.5-0.9-0.5-1.4c0-0.3,0.1-0.6,0.2-1
			c0.2-0.3,0.5-0.7,0.9-1c-0.2-0.1-0.4-0.2-0.6-0.3c-0.2-0.1-0.3-0.2-0.5-0.4V219l1.4-1.3c-0.6-0.5-0.9-1.2-0.9-2.1
			c0-0.5,0.1-1,0.4-1.4c0.2-0.4,0.6-0.8,1.1-1s1-0.4,1.7-0.4c0.5,0,0.9,0.1,1.2,0.2h3v1l-1.5,0.1c0.3,0.5,0.5,1,0.5,1.5
			s-0.1,1-0.4,1.4c-0.2,0.4-0.6,0.8-1.1,1C74.1,218.2,73.5,218.4,72.8,218.4z M70.5,221.9c0,0.5,0.2,0.9,0.7,1.2
			c0.5,0.3,1,0.4,1.7,0.4s1.2-0.1,1.6-0.4s0.6-0.7,0.6-1.1c0-0.3-0.1-0.6-0.4-0.9c-0.3-0.2-0.8-0.4-1.5-0.4c-0.6,0-1.1-0.1-1.5-0.2
			c-0.4,0.2-0.7,0.5-0.9,0.8C70.6,221.4,70.5,221.7,70.5,221.9z M72.8,217.3c0.6,0,1-0.2,1.4-0.4c0.3-0.3,0.5-0.7,0.5-1.3
			c0-0.5-0.2-1-0.5-1.3s-0.8-0.4-1.4-0.4s-1,0.2-1.4,0.4c-0.3,0.3-0.5,0.7-0.5,1.3s0.2,1,0.5,1.3C71.8,217.1,72.3,217.3,72.8,217.3z
			"/>
		<path class="st1" d="M82.8,224.4v-11.5H84l0.1,1.3c0.3-0.4,0.6-0.7,1.1-1s1.1-0.5,1.8-0.5c0.8,0,1.5,0.2,2.1,0.5
			c0.6,0.4,1,0.9,1.4,1.5c0.3,0.6,0.5,1.3,0.5,2.1c0,0.8-0.2,1.5-0.5,2.1s-0.8,1.1-1.4,1.5s-1.3,0.5-2.1,0.5c-0.7,0-1.2-0.1-1.7-0.4
			s-0.9-0.6-1.2-1.1v4.8h-1.3V224.4z M86.9,219.9c0.5,0,1-0.1,1.4-0.4c0.4-0.2,0.7-0.6,1-1c0.2-0.5,0.3-1,0.3-1.6s-0.1-1.1-0.3-1.6
			c-0.2-0.5-0.6-0.8-1-1s-0.9-0.4-1.4-0.4s-1,0.1-1.4,0.4c-0.4,0.2-0.7,0.6-1,1c-0.2,0.5-0.3,1-0.3,1.6s0.1,1.1,0.3,1.6
			c0.2,0.4,0.6,0.8,1,1C85.9,219.8,86.3,219.9,86.9,219.9z"/>
		<path class="st1" d="M92.8,220.9V213H94l0.1,1.5c0.2-0.5,0.6-0.9,1.1-1.2s1.1-0.5,1.9-0.5v1.4h-0.4c-0.5,0-0.9,0.1-1.3,0.2
			c-0.4,0.2-0.7,0.5-0.9,0.8c-0.2,0.4-0.3,0.9-0.3,1.6v4h-1.4V220.9z"/>
		<path class="st1" d="M101.9,221.1c-0.8,0-1.4-0.2-2-0.5s-1.1-0.8-1.4-1.4s-0.5-1.5-0.5-2.3s0.2-1.6,0.5-2.2s0.8-1.1,1.4-1.5
			c0.6-0.3,1.3-0.5,2-0.5s1.4,0.2,2,0.5s1.1,0.8,1.4,1.5c0.3,0.6,0.5,1.4,0.5,2.2c0,0.8-0.2,1.6-0.5,2.2s-0.8,1.1-1.4,1.4
			C103.4,220.9,102.7,221.1,101.9,221.1z M101.9,219.9c0.5,0,0.9-0.1,1.3-0.3c0.4-0.2,0.7-0.6,1-1s0.4-1,0.4-1.7s-0.1-1.2-0.4-1.7
			c-0.2-0.4-0.6-0.8-1-1s-0.8-0.3-1.3-0.3s-0.9,0.1-1.3,0.3c-0.4,0.2-0.7,0.6-1,1c-0.2,0.5-0.4,1-0.4,1.7s0.1,1.2,0.4,1.7
			c0.2,0.5,0.6,0.8,1,1S101.5,219.9,101.9,219.9z"/>
		<path class="st1" d="M112,221.1c-0.6,0-1.2-0.1-1.7-0.4s-0.9-0.6-1.2-1.1l-0.1,1.3h-1.2v-11.5h1.3v4.9c0.3-0.4,0.6-0.7,1.1-1
			s1.1-0.5,1.8-0.5c0.8,0,1.5,0.2,2.1,0.5c0.6,0.4,1,0.9,1.4,1.5s0.5,1.3,0.5,2.1c0,0.8-0.2,1.5-0.5,2.1s-0.8,1.1-1.4,1.5
			C113.5,220.9,112.8,221.1,112,221.1z M111.9,219.9c0.5,0,1-0.1,1.4-0.4s0.7-0.6,1-1c0.2-0.5,0.3-1,0.3-1.6s-0.1-1.1-0.3-1.6
			c-0.2-0.5-0.6-0.8-1-1s-0.9-0.4-1.4-0.4s-1,0.1-1.4,0.4c-0.4,0.2-0.7,0.6-1,1s-0.4,1-0.4,1.6s0.1,1.1,0.4,1.6c0.2,0.4,0.6,0.8,1,1
			C110.9,219.8,111.4,219.9,111.9,219.9z"/>
		<path class="st1" d="M117.9,220.9v-11.5h1.3v11.5H117.9z"/>
		<path class="st1" d="M125,221.1c-0.8,0-1.4-0.2-2-0.5c-0.6-0.4-1.1-0.8-1.4-1.5c-0.3-0.6-0.5-1.4-0.5-2.2c0-0.8,0.2-1.6,0.5-2.2
			s0.8-1.1,1.4-1.5s1.3-0.5,2.1-0.5c0.8,0,1.4,0.2,2,0.5s1,0.8,1.3,1.4c0.3,0.6,0.5,1.2,0.5,1.8c0,0.1,0,0.2,0,0.3
			c0,0.1,0,0.2,0,0.4h-6.3c0,0.6,0.2,1.1,0.4,1.5c0.2,0.4,0.6,0.7,0.9,0.9c0.4,0.2,0.8,0.3,1.2,0.3c0.6,0,1-0.1,1.4-0.4
			s0.6-0.6,0.8-1h1.3c-0.2,0.7-0.6,1.4-1.2,1.8C126.7,220.8,125.9,221.1,125,221.1z M125,213.9c-0.6,0-1.2,0.2-1.7,0.6
			s-0.8,1-0.9,1.7h5c0-0.7-0.3-1.3-0.7-1.7C126.2,214.1,125.6,213.9,125,213.9z"/>
		<path class="st1" d="M130.5,220.9V213h1.2l0.1,1.2c0.3-0.4,0.6-0.8,1-1s0.9-0.4,1.4-0.4c0.6,0,1.2,0.1,1.6,0.4
			c0.5,0.3,0.8,0.7,1.1,1.2c0.3-0.5,0.7-0.9,1.1-1.1c0.5-0.3,1-0.4,1.6-0.4c0.9,0,1.7,0.3,2.3,0.9s0.8,1.5,0.8,2.6v4.6h-1.3v-4.5
			c0-0.8-0.2-1.4-0.5-1.9c-0.3-0.4-0.8-0.6-1.4-0.6c-0.6,0-1.2,0.2-1.6,0.7c-0.4,0.5-0.6,1.2-0.6,2.1v4.1H136v-4.5
			c0-0.8-0.2-1.4-0.5-1.9c-0.3-0.4-0.8-0.6-1.4-0.6c-0.6,0-1.1,0.2-1.6,0.7c-0.4,0.5-0.6,1.2-0.6,2.1v4.1L130.5,220.9L130.5,220.9z"
			/>
		<path class="st1" d="M147.9,221.1c-0.9,0-1.7-0.2-2.4-0.7c-0.6-0.5-1-1.1-1.1-2h1.4c0.1,0.4,0.3,0.8,0.7,1.1
			c0.4,0.3,0.8,0.5,1.5,0.5c0.6,0,1-0.1,1.2-0.4c0.3-0.2,0.4-0.5,0.4-0.9c0-0.5-0.2-0.8-0.5-1s-0.8-0.3-1.5-0.4
			c-0.4-0.1-0.9-0.2-1.3-0.4c-0.4-0.2-0.8-0.4-1.1-0.7c-0.3-0.3-0.4-0.7-0.4-1.2c0-0.7,0.3-1.3,0.8-1.7s1.2-0.7,2.1-0.7
			c0.8,0,1.5,0.2,2.1,0.6c0.5,0.4,0.9,1,0.9,1.8h-1.3c-0.1-0.4-0.2-0.7-0.5-0.9c-0.3-0.2-0.7-0.3-1.2-0.3s-0.9,0.1-1.1,0.3
			c-0.3,0.2-0.4,0.5-0.4,0.8s0.2,0.6,0.5,0.8s0.8,0.3,1.4,0.5c0.5,0.1,1,0.2,1.4,0.4c0.4,0.1,0.8,0.4,1.1,0.7s0.4,0.7,0.4,1.3
			c0,0.7-0.3,1.3-0.8,1.8C149.5,220.8,148.8,221.1,147.9,221.1z"/>
		<path class="st1" d="M153.3,220.9c-0.3,0-0.5-0.1-0.7-0.3c-0.2-0.2-0.3-0.4-0.3-0.6c0-0.3,0.1-0.5,0.3-0.7s0.4-0.3,0.7-0.3
			s0.5,0.1,0.7,0.3c0.2,0.2,0.3,0.4,0.3,0.7c0,0.3-0.1,0.5-0.3,0.6S153.5,220.9,153.3,220.9z"/>
		<path class="st2" d="M236.4,116.9c0.2-0.5,0.3-1.2-0.1-1.8l-6.6-11.8c-0.4-0.8-1.3-1.2-2.2-0.9l-5.6,1.4c-0.6,0.2-1.2,0.6-1.4,1.2
			s-0.2,1.3,0.2,1.8l3.5,5.1l-3.5,0.9c-0.7,0.2-1.2,0.7-1.4,1.4c-0.2,0.7,0,1.4,0.5,1.9l12.1,12.6c0.5,0.5,1.2,0.7,1.8,0.6
			c0.3-0.1,0.4-0.1,0.7-0.3c0.8-0.6,1-1.6,0.6-2.4l-3.8-7.6l3.9-1C235.7,117.9,236.2,117.5,236.4,116.9z"/>
		<path class="st2" d="M249.6,40.2c0.2-0.5,0.3-1.2-0.1-1.8l-6.6-11.8c-0.4-0.8-1.3-1.2-2.2-0.9l-5.6,1.4c-0.6,0.2-1.2,0.6-1.4,1.2
			s-0.1,1.3,0.2,1.8l3.5,5.1l-3.5,0.9c-0.7,0.2-1.2,0.7-1.4,1.4s0,1.4,0.5,2l12.1,12.6c0.5,0.5,1.2,0.7,1.8,0.6
			c0.3-0.1,0.4-0.1,0.7-0.3c0.8-0.6,1-1.6,0.6-2.4l-3.8-7.6l3.9-1C248.9,41.2,249.4,40.8,249.6,40.2z"/>
		<path class="st2" d="M274.6,76.5l3.5,0.9l-3.4,6.8c-0.4,0.8-0.2,1.6,0.5,2.2c0.2,0.1,0.4,0.2,0.6,0.2c0.5,0.1,1.2,0,1.6-0.5
			l10.8-11.2c0.5-0.5,0.6-1.1,0.4-1.7s-0.6-1.1-1.3-1.2l-3.1-0.8l3.1-4.6c0.3-0.5,0.4-1.1,0.2-1.6c-0.2-0.5-0.7-0.9-1.2-1.1l-5-1.3
			c-0.8-0.2-1.6,0.2-2,0.8l-5.9,10.5c-0.3,0.5-0.3,1.1-0.1,1.6C273.6,75.9,274,76.3,274.6,76.5z"/>
		<path class="st3" d="M236.4,193.3c0.4,0,0.8,0.3,0.8,0.7c0,0.4-0.3,0.7-0.6,0.7c-1.8,0.2-3.4,1.2-4.3,2.7h13.4
			c0-0.2,0.1-0.5,0.1-0.8c0-0.4,0.3-0.7,0.7-0.7s0.7,0.3,0.7,0.7c0,0.3,0,0.5-0.1,0.8h16.3c2.4-0.1,4.4-2.1,4.4-4.5
			c0-0.4,0.3-0.7,0.7-0.7c0.4,0,0.7,0.3,0.7,0.7c0,1.8-0.8,3.4-2.1,4.5h9c0.3-0.8,0.5-1.7,0.5-2.6c0-2.6-0.7-4.8-3.9-7.1
			c-0.4-3.2-3.2-5.6-6.5-5.4c0.7,1.1,1,2.4,1,3.8c0,0.4-0.3,0.7-0.7,0.7c-0.4,0-0.7-0.3-0.7-0.7c0-3.4-2.7-6.1-6.1-6.1l0,0
			c-1.3,0-2.4,0.4-3.4,1c-1.2-1.3-2.9-2.1-4.8-2.1c-1.6,0-3,0.6-4.2,1.5c1.2,0.7,2.2,1.7,2.9,3c0.2,0.3,0.1,0.8-0.3,1
			c-0.1,0.1-0.2,0.1-0.3,0.1c-0.2,0-0.5-0.1-0.6-0.4c-0.8-1.5-2.1-2.5-3.6-3c-0.5-0.1-1-0.2-1.6-0.2c-3,0-5.6,2.1-6.2,5
			c-2.8,0.6-5,3.1-5,6.1c0,1,0.2,1.8,0.6,2.6C234,193.9,235.2,193.5,236.4,193.3z M245.4,189c0.3-0.2,0.7,0,0.9,0.3
			c0.6,0.9,1.5,1.5,2.6,1.8c1.5,0.3,3.1-0.6,3.1-0.6c1.3-0.8,2-2.3,1.9-3.9c0-0.4,0.2-0.7,0.6-0.8c0.4,0,0.7,0.2,0.8,0.6
			c0.1,1.2-0.2,2.5-0.8,3.5c0.2,0,0.3,0,0.5,0c1,0.1,1.8,0.5,2.6,1.1c1-0.6,1.6-1.5,1.7-2.7c0-0.4,0.3-0.7,0.7-0.7
			c0.4,0,0.8,0.4,0.7,0.8c-0.1,1.5-0.9,2.8-2.1,3.7c0.5,0.8,0.9,1.7,0.9,2.7c0,0.4-0.4,0.8-0.8,0.7c-0.3,0-0.6-0.3-0.6-0.7
			c0-0.8-0.3-1.5-0.8-2.1c-0.6-0.8-1.4-1.3-2.4-1.4c-0.7-0.1-1.4,0-2,0.3c-0.1,0-0.2,0.1-0.2,0.1c-0.3,0.2-1.4,0.8-2.8,0.8
			c-0.4,0-0.8,0-1.2-0.1c-1.5-0.3-2.7-1.2-3.5-2.4C244.9,189.6,245,189.2,245.4,189z"/>
		<path class="st4" d="M281.4,205c0.5-2.9,0.7-5.5,0.5-8h-56.7c-0.6,7.7,2,17.2,9.2,28.6h0.3c-0.1,1.8-0.5,10.4-0.7,15.8
			c-0.1,2,1.5,3.6,3.4,3.6h19.2c1.3,0,2.4-1,2.6-2.3c0.3-2,0.9-4.2,2.9-4.2c3.2-0.2,13.3,2.9,15-0.4c1-1.9,4.3-12.8,3.9-15
			c-0.5-3.5,2-1.9,3.5-3.9c1.2-1.7-0.7-3.8-1.5-5.2C281.6,211.3,280.8,208.1,281.4,205z"/>
		<path class="st2" d="M236.6,171.9c0.2-0.4,0.2-0.9-0.1-1.4l-5.2-9.3c-0.3-0.6-1.1-0.9-1.8-0.7l-4.4,1.1c-0.5,0.1-0.9,0.5-1.1,1
			c-0.2,0.5-0.1,1,0.1,1.5l2.7,4.1l-2.7,0.7c-0.6,0.1-1,0.5-1.1,1.1s0,1.1,0.4,1.5l9.5,9.9c0.4,0.4,1,0.6,1.4,0.5
			c0.2-0.1,0.3-0.1,0.5-0.2c0.6-0.5,0.8-1.2,0.5-1.9l-3-6l3.1-0.8C236.1,172.7,236.5,172.4,236.6,171.9z"/>
		<path class="st2" d="M251.7,151.6c0.3-0.2,0.5-0.5,0.5-0.9l0.5-8c0-0.5-0.3-1-0.8-1.2l-3.2-1.1c-0.4-0.1-0.8-0.1-1.1,0.2
			c-0.3,0.2-0.5,0.6-0.5,1l0.1,3.7l-2-0.7c-0.4-0.1-0.8-0.1-1.2,0.2c-0.3,0.3-0.5,0.7-0.4,1.1l2,10.1c0.1,0.4,0.4,0.8,0.7,0.9
			c0.1,0,0.3,0.1,0.4,0.1c0.6,0,1-0.5,1.1-1l0.5-5l2.3,0.8C251.1,151.9,251.4,151.8,251.7,151.6z"/>
		<path class="st2" d="M277.6,180.6c0.2,0,0.4-0.1,0.5-0.3l2.6-3.8c0.2-0.2,0.1-0.6,0-0.8l-1.3-1.5c-0.1-0.2-0.3-0.3-0.6-0.2
			c-0.2,0-0.4,0.1-0.5,0.3l-1,1.8l-0.8-0.9c-0.2-0.2-0.4-0.3-0.6-0.2c-0.2,0-0.4,0.2-0.5,0.4l-2,5.5c-0.1,0.2,0,0.5,0.1,0.6
			s0.1,0.1,0.2,0.2c0.3,0.2,0.6,0.1,0.8-0.2l1.7-2.3l0.9,1C277.1,180.6,277.3,180.6,277.6,180.6z"/>
		<path class="st2" d="M273,169.2c0.5-0.1,1-0.5,1.2-1.1l4.2-11.7c0.3-0.7,0-1.6-0.7-2.1l-4.4-3c-0.5-0.3-1.1-0.5-1.7-0.2
			c-0.6,0.2-1,0.7-1.2,1.2l-1.5,5.5l-2.7-1.9c-0.6-0.4-1.2-0.4-1.8-0.2c-0.6,0.3-1,0.8-1.1,1.5l-1.4,16c-0.1,0.7,0.2,1.3,0.7,1.6
			c0.2,0.1,0.4,0.2,0.6,0.3c0.9,0.2,1.7-0.2,2-1l3-7.2l3,2.1C271.8,169.4,272.4,169.5,273,169.2z"/>
		<path class="st5" d="M242.6,70.7l-27-13.2c-0.1-0.1-0.2-0.1-0.4-0.2c-1.5-0.6-3.2,0.1-3.9,1.6l-8.6,17.5c-0.1,0.2-0.2,0.5-0.3,0.7
			c-0.3,1.4,0.4,2.9,1.7,3.4l27,13.2c0.1,0.1,0.2,0.1,0.3,0.2c1.5,0.7,3.2,0,3.9-1.5c2.9-5.8,5.7-11.7,8.6-17.5
			c0.1-0.1,0.1-0.2,0.2-0.4C244.8,73,244.1,71.3,242.6,70.7z"/>
		<path class="st6" d="M216.4,72.3l-7.4,3.5"/>
		<path class="st6" d="M240.1,75.1l-18.4,7.5c-0.6,0.2-1.1,0.2-1.6,0s-0.9-0.7-1-1.3l-5.3-19.2"/>
		<path class="st6" d="M230.3,79.2l1.7,8"/>
		<path class="st2" d="M270.4,108.6l1.8-6.7c0.1-0.4-0.1-0.8-0.5-1c-0.2-0.1-0.4,0-0.6,0.1s-0.3,0.3-0.4,0.5l-2.2,8.2L270.4,108.6z"
			/>
		<path class="st2" d="M266.3,111l2-1.2l-8.7-1.7c-0.4-0.1-0.8,0.2-0.9,0.6s0.2,0.8,0.6,0.9L266.3,111z"/>
		<path class="st2" d="M273.6,136.5c-0.2,0-0.4-0.1-0.5-0.2l-1.6-2.6c-0.1-0.2-0.1-0.6,0.2-0.7c0.2-0.2,0.6-0.1,0.7,0.2l1.6,2.6
			c0.1,0.2,0.1,0.6-0.2,0.7C273.8,136.5,273.7,136.5,273.6,136.5z"/>
		<path class="st2" d="M288.3,127.8c-0.2,0-0.3-0.1-0.4-0.2l-1.6-2.6c-0.1-0.2-0.1-0.6,0.2-0.7s0.6-0.1,0.7,0.2l1.6,2.6
			c0.1,0.2,0.1,0.6-0.2,0.7C288.5,127.8,288.4,127.8,288.3,127.8z"/>
		<path class="st5" d="M281.7,101.6l-27.2,16.2c-1.1,0.7-1.5,2.1-0.8,3.2l9.7,16.3c0.7,1.1,2.1,1.5,3.2,0.8l27.2-16.2
			c1.1-0.7,1.5-2.1,0.8-3.2l-9.7-16.3C284.2,101.2,282.8,100.9,281.7,101.6z M284,120.5c0.7,1.1,0.3,2.6-0.8,3.2l-15.4,9.2
			c-1.1,0.7-2.6,0.3-3.2-0.8l-5.7-9.6c-0.7-1.1-0.3-2.6,0.8-3.2l15.4-9.2c1.1-0.7,2.6-0.3,3.2,0.8L284,120.5z M289.2,116.2
			c0.5,0.9,0.2,2.1-0.7,2.6c-0.9,0.5-2.1,0.2-2.6-0.7c-0.5-0.9-0.2-2.1,0.7-2.6C287.4,115,288.6,115.3,289.2,116.2z M284.5,108.4
			c0.5,0.9,0.2,2.1-0.7,2.6c-0.9,0.5-2.1,0.2-2.6-0.7c-0.5-0.9-0.2-2.1,0.7-2.6C282.7,107.2,283.9,107.5,284.5,108.4z"/>
		<path class="st5" d="M261.1,60.5l2.3-5.1c0.3-0.7,0.6-1.3,1.3-0.9c0.7,0.3,1.3,0.6,0.9,1.3l-2.9,6.3c-0.1,0.3,0.5,0.7,0.7,0.3
			l2.9-6.3c0.3-0.7,0.9-0.4,1.6-0.1s0.4,0.9,0.1,1.6l-2.3,5.1c-0.2,0.5,0.5,0.8,0.7,0.3l2.7-6c0.4-0.8,0.6-1.6-0.2-1.9l-0.6-0.3
			c-0.3-0.2-0.5-0.6-0.3-0.9l8.8-19.3c0.2-0.5,0-1-0.5-1.2s-1,0-1.2,0.5l-8.8,19.3c-0.2,0.3-0.6,0.5-0.9,0.3l-0.6-0.3
			c-0.8-0.4-1.2,0.2-1.6,1.1l-2.7,6C260.3,60.5,261,60.9,261.1,60.5z"/>
		<path class="st5" d="M235.2,145.5c2.4-1.8,3.4-4.5,2.2-6.1s-4.1-1.4-6.5,0.5c-1.6,1.2-2.6,2.9-2.7,4.3c0,0.7-0.4,1.3-1,1.8
			l-15.1,11.4c-0.4,0.3-0.5,0.9-0.2,1.3s0.9,0.5,1.3,0.2l15.1-11.4c0.6-0.4,1.3-0.6,2-0.5C231.7,147.2,233.6,146.7,235.2,145.5z"/>
		<path class="st5" d="M193.4,138.8l1.3-1.8l2.2,0.3c0.2,0,0.5-0.1,0.6-0.3l1.3-1.8l2.2,0.3c0.1,0,0.2,0,0.3,0s0.2-0.1,0.3-0.2
			l1.3-1.8l2.2,0.3c0.2,0,0.5-0.1,0.6-0.3l1.3-1.8l2.2,0.3c0.2,0,0.5-0.1,0.6-0.3l1.3-1.8l2.2,0.3c0.2,0,0.5-0.1,0.6-0.3
			s0.2-0.5,0.1-0.7l-12.7-29.5c-0.2-0.3-0.5-0.5-0.9-0.3l-20.7,9.1c-0.3,0.1-0.5,0.5-0.3,0.9l12.9,29.3c0.1,0.2,0.3,0.4,0.5,0.4
			S193.2,139,193.4,138.8z M194.5,112.1l-1.4,0.6c-1.1,0.5-2.3,0-2.8-1.1s0-2.3,1.1-2.8h0.1l-0.3-0.8c-0.2-0.3,0-0.7,0.3-0.9
			c0.3-0.1,0.7,0,0.9,0.3l0.3,0.8l1.4-0.6c0.3-0.1,0.7,0,0.9,0.3s0,0.7-0.3,0.9L192,110c-0.4,0.2-0.6,0.6-0.4,1
			c0.2,0.4,0.6,0.6,1,0.4l1.4-0.6c1.1-0.5,2.3,0,2.8,1.1s0,2.3-1.1,2.8h-0.1l0.3,0.8c0.2,0.3,0,0.7-0.3,0.9c-0.3,0.1-0.7,0-0.9-0.3
			l-0.3-0.8l-1.4,0.6c-0.3,0.1-0.7,0-0.9-0.3s0-0.7,0.3-0.9l2.7-1.2c0.4-0.2,0.6-0.6,0.4-1C195.3,112.1,194.9,111.9,194.5,112.1z
			 M189.9,122.4l13.9-6.1c0.3-0.1,0.7,0,0.9,0.3c0.1,0.3,0,0.7-0.3,0.9l-14,6.1c-0.3,0.1-0.7,0-0.9-0.3
			C189.4,123,189.5,122.6,189.9,122.4z M191.7,126.6l13.9-6.1c0.3-0.1,0.7,0,0.9,0.3c0.1,0.3,0,0.7-0.3,0.9l-13.9,6.1
			c-0.3,0.1-0.7,0-0.9-0.3C191.2,127.1,191.3,126.7,191.7,126.6z M193.5,130.7l13.9-6.1c0.3-0.2,0.7,0,0.9,0.3
			c0.1,0.3,0,0.7-0.3,0.9l-13.9,6.1c-0.3,0.2-0.7,0-0.9-0.3S193.2,130.9,193.5,130.7z"/>
	</g>
</g>
</svg>
