<?xml version="1.0" encoding="utf-8"?>
<!-- Generator: Adobe Illustrator 25.1.0, SVG Export Plug-In . SVG Version: 6.00 Build 0)  -->
<svg version="1.1" id="Layer_1" xmlns="http://www.w3.org/2000/svg" xmlns:xlink="http://www.w3.org/1999/xlink" x="0px" y="0px"
	 viewBox="0 0 334.5 298.6" style="enable-background:new 0 0 334.5 298.6;" xml:space="preserve">
<style type="text/css">
	.st0{fill:#FFFFFF;}
	.st1{fill:#808080;}
	.st2{fill:#D64204;}
	.st3{fill:#646464;}
	.st4{fill:#F4F1EF;}
	.st5{fill:none;stroke:#FFFFFF;stroke-width:2.1335;stroke-linecap:round;stroke-miterlimit:10;}
	.st6{fill:#00CDDC;}
	.st7{fill:#00A878;}
	.st8{fill:#28C86E;}
	.st9{fill:#32DCD2;}
	.st10{fill:none;stroke:#28C86E;stroke-width:2.1458;stroke-linecap:round;stroke-miterlimit:10;}
	.st11{fill:#FFCF8D;}
	.st12{fill:#FF9F1A;}
	.st13{fill:#BFBFBF;}
	.st14{fill:#E97443;}
</style>
<g>
	<g>
		<path class="st0" d="M4.2,101.4C-2,147.3-4.9,244.5,21,278.1c28.8,37.6,273.4,13.5,292.7,6.1c30.4-11.6,18-92.3,19.4-140.6
			c1.3-47.3,3.3-121.7-35.8-130.3C228.2-2,110.6-2.5,41.4,3.8C7.7,6.9,10,58.3,4.2,101.4z"/>
		<path class="st1" d="M41.2,232.6c-0.7,0-1.2-0.1-1.7-0.3c-0.4-0.2-0.8-0.5-1-0.9s-0.3-0.8-0.3-1.2c0-0.8,0.3-1.4,0.9-1.9
			s1.5-0.7,2.5-0.7h2.1v-0.1c0-0.7-0.2-1.2-0.5-1.6c-0.4-0.4-0.9-0.5-1.5-0.5c-0.5,0-1,0.1-1.3,0.4s-0.6,0.6-0.7,1.1h-1.4
			c0-0.6,0.2-1.1,0.6-1.5c0.3-0.4,0.8-0.7,1.3-0.9c0.5-0.2,1-0.3,1.6-0.3c1.1,0,1.9,0.3,2.5,0.9s0.8,1.4,0.8,2.4v4.9H44l-0.1-1.4
			c-0.2,0.5-0.5,0.8-1,1.1C42.5,232.5,41.9,232.6,41.2,232.6z M41.4,231.5c0.5,0,0.9-0.1,1.3-0.4c0.4-0.3,0.6-0.6,0.8-1
			s0.3-0.9,0.3-1.3l0,0h-2c-0.8,0-1.3,0.1-1.7,0.4c-0.3,0.3-0.5,0.6-0.5,1s0.2,0.8,0.5,1C40.4,231.4,40.8,231.5,41.4,231.5z"/>
		<path class="st1" d="M47.2,232.5v-7.9h1.2l0.1,1.4c0.3-0.5,0.6-0.9,1.1-1.2c0.5-0.3,1-0.4,1.6-0.4c0.9,0,1.7,0.3,2.2,0.9
			c0.6,0.6,0.8,1.5,0.8,2.6v4.6H53V228c0-1.7-0.7-2.5-2-2.5c-0.7,0-1.2,0.2-1.7,0.7c-0.4,0.5-0.7,1.2-0.7,2.1v4.1L47.2,232.5
			L47.2,232.5z"/>
		<path class="st1" d="M60,232.6c-0.8,0-1.5-0.2-2.1-0.5c-0.6-0.4-1.1-0.9-1.4-1.5c-0.3-0.6-0.5-1.3-0.5-2.1c0-0.8,0.2-1.5,0.5-2.1
			s0.8-1.1,1.4-1.5c0.6-0.4,1.3-0.5,2.1-0.5c0.6,0,1.2,0.1,1.7,0.4s0.9,0.6,1.2,1.1V221h1.3v11.5H63l-0.1-1.3
			c-0.3,0.4-0.6,0.7-1.1,1C61.3,232.5,60.7,232.6,60,232.6z M60.1,231.5c0.5,0,1-0.1,1.4-0.4c0.4-0.2,0.7-0.6,1-1.1
			c0.2-0.4,0.3-1,0.3-1.6s-0.1-1.1-0.3-1.6s-0.5-0.8-1-1.1c-0.4-0.2-0.9-0.4-1.4-0.4s-1,0.1-1.4,0.4c-0.4,0.2-0.7,0.6-1,1.1
			c-0.2,0.4-0.3,1-0.3,1.6s0.1,1.1,0.3,1.6s0.6,0.8,1,1.1C59.1,231.4,59.6,231.5,60.1,231.5z"/>
		<path class="st1" d="M73.3,232.6c-0.7,0-1.2-0.1-1.7-0.3c-0.4-0.2-0.8-0.5-1-0.9s-0.3-0.8-0.3-1.2c0-0.8,0.3-1.4,0.9-1.9
			c0.6-0.4,1.5-0.7,2.5-0.7h2.1v-0.1c0-0.7-0.2-1.2-0.5-1.6c-0.4-0.4-0.8-0.5-1.5-0.5c-0.5,0-1,0.1-1.4,0.4s-0.6,0.6-0.7,1.1h-1.4
			c0.1-0.6,0.2-1.1,0.6-1.5c0.3-0.4,0.8-0.7,1.3-0.9c0.5-0.2,1-0.3,1.6-0.3c1.1,0,1.9,0.3,2.5,0.9s0.8,1.4,0.8,2.4v4.9h-1.2L76,231
			c-0.2,0.5-0.6,0.8-1,1.1C74.6,232.5,74,232.6,73.3,232.6z M73.5,231.5c0.5,0,0.9-0.1,1.3-0.4s0.7-0.6,0.8-1
			c0.2-0.4,0.3-0.9,0.3-1.3l0,0h-2c-0.8,0-1.3,0.1-1.7,0.4c-0.3,0.3-0.5,0.6-0.5,1s0.2,0.8,0.5,1C72.5,231.4,72.9,231.5,73.5,231.5z
			"/>
		<path class="st1" d="M79.3,232.5v-7.9h1.2l0.1,1.4c0.3-0.5,0.6-0.9,1.1-1.2c0.5-0.3,1-0.4,1.6-0.4c0.9,0,1.7,0.3,2.2,0.9
			c0.6,0.6,0.8,1.5,0.8,2.6v4.6H85V228c0-1.7-0.7-2.5-2-2.5c-0.7,0-1.2,0.2-1.7,0.7c-0.4,0.5-0.7,1.2-0.7,2.1v4.1L79.3,232.5
			L79.3,232.5z"/>
		<path class="st1" d="M40.6,35.1c-0.8,0-1.5-0.1-2.1-0.4s-1.1-0.7-1.4-1.2c-0.3-0.5-0.5-1.2-0.5-1.9H38c0,0.4,0.1,0.8,0.3,1.2
			c0.2,0.4,0.5,0.7,0.9,0.9s0.9,0.3,1.5,0.3c0.8,0,1.3-0.2,1.8-0.5c0.4-0.4,0.6-0.8,0.6-1.4c0-0.4-0.1-0.8-0.3-1.1s-0.5-0.5-0.8-0.7
			s-0.7-0.3-1.1-0.4c-0.4-0.1-0.9-0.3-1.3-0.4c-0.9-0.3-1.5-0.7-1.9-1.1s-0.6-1-0.6-1.7c0-0.6,0.1-1.1,0.4-1.6
			c0.3-0.5,0.7-0.8,1.2-1.1c0.5-0.3,1.2-0.4,1.9-0.4s1.3,0.1,1.9,0.4c0.5,0.3,0.9,0.6,1.2,1.1s0.5,1,0.5,1.6h-1.4
			c0-0.3-0.1-0.6-0.2-0.9s-0.4-0.5-0.7-0.7s-0.7-0.3-1.2-0.3c-0.6,0-1.1,0.1-1.5,0.5s-0.6,0.8-0.6,1.3s0.1,0.8,0.4,1.1
			c0.3,0.3,0.6,0.5,1.1,0.6c0.5,0.2,1.1,0.4,1.7,0.6c0.5,0.2,1,0.4,1.4,0.7s0.8,0.6,1,1s0.4,0.9,0.4,1.5c0,0.5-0.1,1-0.4,1.5
			c-0.3,0.5-0.7,0.9-1.3,1.2C42.1,35,41.4,35.1,40.6,35.1z"/>
		<path class="st1" d="M49.8,35.1c-0.8,0-1.4-0.2-2-0.5s-1.1-0.8-1.4-1.4c-0.4-0.6-0.5-1.4-0.5-2.2s0.2-1.6,0.5-2.2
			c0.4-0.6,0.8-1.1,1.4-1.5c0.6-0.3,1.3-0.5,2-0.5c0.8,0,1.4,0.2,2,0.5s1.1,0.8,1.4,1.5c0.4,0.6,0.5,1.4,0.5,2.2s-0.2,1.6-0.5,2.2
			s-0.8,1.1-1.4,1.4C51.2,35,50.5,35.1,49.8,35.1z M49.8,34c0.5,0,0.9-0.1,1.3-0.3c0.4-0.2,0.7-0.6,1-1c0.2-0.4,0.4-1,0.4-1.7
			s-0.1-1.2-0.4-1.7c-0.2-0.4-0.6-0.8-0.9-1c-0.4-0.2-0.8-0.3-1.3-0.3s-0.9,0.1-1.3,0.3c-0.4,0.2-0.7,0.6-1,1
			c-0.2,0.5-0.4,1-0.4,1.7s0.1,1.2,0.4,1.7s0.6,0.8,0.9,1C48.9,33.9,49.4,34,49.8,34z"/>
		<path class="st1" d="M55.7,34.9V27h1.2l0.1,1.1c0.3-0.4,0.6-0.8,1-1s0.9-0.4,1.4-0.4c0.6,0,1.2,0.1,1.6,0.4
			c0.5,0.3,0.8,0.6,1.1,1.2c0.3-0.5,0.7-0.9,1.1-1.1c0.5-0.3,1-0.4,1.6-0.4c0.9,0,1.7,0.3,2.3,0.9c0.6,0.6,0.8,1.4,0.8,2.6v4.6h-1.3
			v-4.5c0-0.8-0.2-1.4-0.5-1.9c-0.3-0.4-0.8-0.6-1.4-0.6s-1.2,0.2-1.6,0.7s-0.6,1.2-0.6,2.1v4.1h-1.3v-4.5c0-0.8-0.2-1.4-0.5-1.9
			c-0.3-0.4-0.8-0.6-1.4-0.6c-0.6,0-1.2,0.2-1.6,0.7c-0.4,0.5-0.6,1.2-0.6,2.1v4.1L55.7,34.9L55.7,34.9z"/>
		<path class="st1" d="M73.5,35.1c-0.8,0-1.4-0.2-2-0.5c-0.6-0.4-1-0.8-1.4-1.5c-0.3-0.6-0.5-1.4-0.5-2.2c0-0.8,0.2-1.6,0.5-2.2
			s0.8-1.1,1.4-1.5s1.3-0.5,2.1-0.5c0.8,0,1.4,0.2,2,0.5c0.6,0.4,1,0.8,1.3,1.4s0.4,1.2,0.4,1.8c0,0.1,0,0.2,0,0.3
			c0,0.1,0,0.2,0,0.4H71c0,0.6,0.2,1.1,0.4,1.5c0.2,0.4,0.6,0.7,0.9,0.9c0.4,0.2,0.8,0.3,1.2,0.3c0.5,0,1-0.1,1.4-0.4s0.6-0.6,0.8-1
			H77c-0.2,0.7-0.6,1.4-1.2,1.8C75.3,34.9,74.5,35.1,73.5,35.1z M73.5,27.9c-0.6,0-1.2,0.2-1.7,0.6s-0.8,1-0.9,1.7h5
			c0-0.7-0.3-1.3-0.7-1.7C74.8,28.1,74.2,27.9,73.5,27.9z"/>
		<path class="st1" d="M83.3,34.9V23.4h1.3v11.5H83.3z"/>
		<path class="st1" d="M87.7,25.2c-0.3,0-0.5-0.1-0.7-0.3c-0.2-0.2-0.3-0.4-0.3-0.7c0-0.3,0.1-0.5,0.3-0.6c0.2-0.2,0.4-0.3,0.7-0.3
			c0.3,0,0.5,0.1,0.7,0.3c0.2,0.2,0.3,0.4,0.3,0.6c0,0.3-0.1,0.5-0.3,0.7C88.2,25.2,87.9,25.2,87.7,25.2z M87,34.9V27h1.3v7.9H87
			L87,34.9z"/>
		<path class="st1" d="M93.8,32.4c-0.4,0-0.9-0.1-1.2-0.2L91.8,33c0.1,0.1,0.3,0.2,0.4,0.2s0.4,0.1,0.8,0.2c0.3,0,0.8,0.1,1.4,0.1
			c1.1,0.1,1.8,0.3,2.3,0.7s0.7,1,0.7,1.6c0,0.5-0.1,0.9-0.4,1.3c-0.2,0.4-0.6,0.8-1.2,1c-0.5,0.3-1.2,0.4-2,0.4
			c-0.7,0-1.3-0.1-1.9-0.3c-0.5-0.2-1-0.5-1.3-0.8c-0.3-0.4-0.5-0.9-0.5-1.4c0-0.3,0.1-0.6,0.2-1c0.2-0.3,0.5-0.7,0.9-1
			c-0.2-0.1-0.4-0.2-0.6-0.3c-0.2-0.1-0.3-0.2-0.5-0.4v-0.4l1.4-1.3c-0.6-0.5-0.9-1.2-0.9-2.1c0-0.5,0.1-1,0.4-1.4
			c0.2-0.4,0.6-0.8,1.1-1s1-0.4,1.7-0.4c0.5,0,0.9,0.1,1.2,0.2h3v1L96.5,28c0.3,0.5,0.5,1,0.5,1.5s-0.1,1-0.4,1.4
			c-0.2,0.4-0.6,0.8-1.1,1C95.1,32.3,94.5,32.4,93.8,32.4z M91.5,36c0,0.5,0.2,0.9,0.7,1.2c0.5,0.3,1,0.4,1.7,0.4s1.2-0.1,1.6-0.4
			s0.6-0.7,0.6-1.1c0-0.3-0.1-0.6-0.4-0.9c-0.3-0.2-0.8-0.4-1.5-0.4c-0.6,0-1.1-0.1-1.5-0.2c-0.4,0.2-0.7,0.5-0.9,0.8
			C91.6,35.5,91.5,35.7,91.5,36z M93.8,31.3c0.6,0,1-0.1,1.4-0.4c0.3-0.3,0.5-0.7,0.5-1.3c0-0.5-0.2-1-0.5-1.3s-0.8-0.4-1.4-0.4
			s-1,0.1-1.4,0.4c-0.3,0.3-0.5,0.7-0.5,1.3c0,0.6,0.2,1,0.5,1.3C92.8,31.2,93.3,31.3,93.8,31.3z"/>
		<path class="st1" d="M99.5,34.9V23.4h1.3v4.9c0.3-0.5,0.6-0.9,1.1-1.1c0.5-0.3,1-0.4,1.6-0.4c0.9,0,1.7,0.3,2.2,0.9
			c0.6,0.6,0.8,1.4,0.8,2.6v4.6h-1.3v-4.5c0-1.6-0.7-2.5-2-2.5c-0.7,0-1.3,0.2-1.7,0.7c-0.5,0.5-0.7,1.2-0.7,2.1v4.1L99.5,34.9
			L99.5,34.9z"/>
		<path class="st1" d="M111.8,34.9c-0.7,0-1.3-0.2-1.7-0.5s-0.6-1-0.6-1.9v-4.4h-1.4V27h1.4l0.2-1.9h1.2V27h2.3v1.1h-2.3v4.4
			c0,0.5,0.1,0.8,0.3,1s0.6,0.3,1.1,0.3h0.8v1.1H111.8L111.8,34.9z"/>
		<path class="st1" d="M122.7,35.1c-0.8,0-1.4-0.2-2-0.5s-1.1-0.8-1.4-1.4s-0.5-1.4-0.5-2.2s0.2-1.6,0.5-2.2s0.8-1.1,1.4-1.5
			c0.6-0.3,1.3-0.5,2-0.5c0.8,0,1.4,0.2,2,0.5s1.1,0.8,1.4,1.5c0.3,0.6,0.5,1.4,0.5,2.2s-0.2,1.6-0.5,2.2s-0.8,1.1-1.4,1.4
			C124.1,35,123.5,35.1,122.7,35.1z M122.7,34c0.5,0,0.9-0.1,1.3-0.3c0.4-0.2,0.7-0.6,1-1c0.2-0.4,0.4-1,0.4-1.7s-0.1-1.2-0.4-1.7
			c-0.2-0.4-0.6-0.8-0.9-1c-0.4-0.2-0.8-0.3-1.3-0.3s-0.9,0.1-1.3,0.3c-0.4,0.2-0.7,0.6-1,1c-0.2,0.5-0.4,1-0.4,1.7s0.1,1.2,0.4,1.7
			s0.6,0.8,0.9,1C121.9,33.9,122.3,34,122.7,34z"/>
		<path class="st1" d="M128.6,34.9V27h1.2l0.1,1.5c0.2-0.5,0.6-0.9,1.1-1.2s1.1-0.5,1.9-0.5v1.4h-0.4c-0.5,0-0.9,0.1-1.3,0.2
			c-0.4,0.2-0.7,0.5-0.9,0.8c-0.2,0.4-0.3,0.9-0.3,1.6v4L128.6,34.9L128.6,34.9z"/>
		<path class="st1" d="M138.6,34.9V27h1.2l0.1,1.4c0.3-0.5,0.6-0.9,1.1-1.2c0.5-0.3,1-0.4,1.6-0.4c0.9,0,1.7,0.3,2.2,0.9
			c0.6,0.6,0.8,1.4,0.8,2.6v4.6h-1.3v-4.5c0-1.6-0.7-2.5-2.1-2.5c-0.7,0-1.2,0.2-1.7,0.7c-0.4,0.5-0.7,1.2-0.7,2.1v4.1L138.6,34.9
			L138.6,34.9z"/>
		<path class="st1" d="M151.4,35.1c-0.8,0-1.4-0.2-2-0.5s-1.1-0.8-1.4-1.4c-0.4-0.6-0.5-1.4-0.5-2.2s0.2-1.6,0.5-2.2
			s0.8-1.1,1.4-1.5c0.6-0.3,1.3-0.5,2-0.5c0.8,0,1.4,0.2,2,0.5s1.1,0.8,1.4,1.5c0.4,0.6,0.5,1.4,0.5,2.2s-0.2,1.6-0.5,2.2
			c-0.4,0.6-0.8,1.1-1.4,1.4C152.8,35,152.1,35.1,151.4,35.1z M151.4,34c0.5,0,0.9-0.1,1.3-0.3c0.4-0.2,0.7-0.6,1-1
			c0.2-0.4,0.4-1,0.4-1.7s-0.1-1.2-0.4-1.7c-0.2-0.4-0.6-0.8-0.9-1c-0.4-0.2-0.8-0.3-1.3-0.3s-0.9,0.1-1.3,0.3c-0.4,0.2-0.7,0.6-1,1
			c-0.2,0.5-0.4,1-0.4,1.7s0.1,1.2,0.4,1.7c0.2,0.5,0.6,0.8,0.9,1C150.5,33.9,151,34,151.4,34z"/>
		<path class="st1" d="M158.1,25.2c-0.3,0-0.5-0.1-0.7-0.3c-0.2-0.2-0.3-0.4-0.3-0.7c0-0.3,0.1-0.5,0.3-0.6c0.2-0.2,0.4-0.3,0.7-0.3
			s0.5,0.1,0.7,0.3c0.2,0.2,0.3,0.4,0.3,0.6c0,0.3-0.1,0.5-0.3,0.7C158.5,25.2,158.3,25.2,158.1,25.2z M157.4,34.9V27h1.3v7.9H157.4
			L157.4,34.9z"/>
		<path class="st1" d="M164.1,35.1c-0.9,0-1.7-0.2-2.4-0.7c-0.6-0.5-1-1.1-1.1-1.9h1.4c0.1,0.4,0.3,0.8,0.7,1.1
			c0.4,0.3,0.8,0.5,1.4,0.5c0.6,0,1-0.1,1.2-0.4s0.4-0.5,0.4-0.9c0-0.5-0.2-0.8-0.5-1c-0.4-0.2-0.8-0.3-1.5-0.4
			c-0.4-0.1-0.8-0.2-1.3-0.4c-0.4-0.2-0.8-0.4-1.1-0.7c-0.3-0.3-0.4-0.7-0.4-1.2c0-0.7,0.3-1.3,0.8-1.7s1.2-0.7,2.1-0.7
			c0.8,0,1.5,0.2,2.1,0.6c0.5,0.4,0.9,1,0.9,1.8h-1.3c-0.1-0.4-0.2-0.7-0.5-0.9c-0.3-0.2-0.7-0.3-1.2-0.3s-0.9,0.1-1.1,0.3
			s-0.4,0.5-0.4,0.8s0.2,0.6,0.5,0.8c0.3,0.2,0.8,0.3,1.4,0.5c0.5,0.1,1,0.2,1.4,0.4s0.8,0.4,1.1,0.7c0.3,0.3,0.4,0.7,0.4,1.3
			c0,0.7-0.3,1.3-0.8,1.8C165.8,34.9,165.1,35.1,164.1,35.1z"/>
		<path class="st1" d="M172.6,35.1c-0.8,0-1.4-0.2-2-0.5c-0.6-0.4-1.1-0.8-1.4-1.5c-0.3-0.6-0.5-1.4-0.5-2.2c0-0.8,0.2-1.6,0.5-2.2
			s0.8-1.1,1.4-1.5c0.6-0.4,1.3-0.5,2.1-0.5s1.4,0.2,2,0.5c0.6,0.4,1,0.8,1.3,1.4s0.4,1.2,0.4,1.8c0,0.1,0,0.2,0,0.3
			c0,0.1,0,0.2,0,0.4h-6.3c0,0.6,0.2,1.1,0.4,1.5s0.6,0.7,0.9,0.9c0.4,0.2,0.8,0.3,1.2,0.3c0.6,0,1-0.1,1.4-0.4s0.7-0.6,0.8-1h1.3
			c-0.2,0.7-0.6,1.4-1.2,1.8C174.4,34.9,173.6,35.1,172.6,35.1z M172.6,27.9c-0.6,0-1.2,0.2-1.7,0.6s-0.8,1-0.9,1.7h5
			c0-0.7-0.3-1.3-0.7-1.7C173.9,28.1,173.3,27.9,172.6,27.9z"/>
		<path class="st1" d="M40.6,57.1c-0.8,0-1.4-0.2-2-0.5c-0.6-0.4-1.1-0.8-1.4-1.5c-0.3-0.6-0.5-1.4-0.5-2.2c0-0.8,0.2-1.6,0.5-2.2
			s0.8-1.1,1.4-1.5c0.6-0.4,1.3-0.5,2-0.5c0.9,0,1.7,0.2,2.4,0.7c0.6,0.5,1,1.1,1.2,2h-1.4c-0.1-0.5-0.4-0.9-0.8-1.1
			c-0.4-0.3-0.9-0.4-1.5-0.4c-0.5,0-0.9,0.1-1.3,0.3c-0.4,0.2-0.7,0.6-1,1s-0.4,1-0.4,1.7s0.1,1.2,0.4,1.7s0.6,0.8,1,1
			s0.8,0.3,1.3,0.3s1-0.1,1.5-0.4c0.4-0.3,0.7-0.7,0.8-1.2h1.4c-0.2,0.8-0.6,1.4-1.2,1.9C42.3,56.9,41.5,57.1,40.6,57.1z"/>
		<path class="st1" d="M48.7,57.1c-0.7,0-1.2-0.1-1.6-0.3c-0.4-0.2-0.8-0.5-1-0.9s-0.3-0.8-0.3-1.2c0-0.8,0.3-1.4,0.9-1.9
			s1.5-0.7,2.5-0.7h2.1V52c0-0.7-0.2-1.2-0.5-1.6c-0.4-0.4-0.8-0.5-1.5-0.5c-0.5,0-1,0.1-1.3,0.4c-0.4,0.3-0.6,0.6-0.7,1.1h-1.4
			c0-0.6,0.3-1.1,0.6-1.5s0.8-0.7,1.3-0.9c0.5-0.2,1-0.3,1.6-0.3c1.1,0,1.9,0.3,2.5,0.9s0.8,1.4,0.8,2.4v4.9h-1.2l-0.1-1.4
			c-0.2,0.4-0.6,0.8-1,1.1C50,57,49.4,57.1,48.7,57.1z M48.9,56c0.5,0,0.9-0.1,1.3-0.4c0.4-0.3,0.6-0.6,0.8-1s0.3-0.9,0.3-1.3l0,0
			h-2c-0.8,0-1.3,0.1-1.7,0.4c-0.3,0.3-0.5,0.6-0.5,1s0.2,0.8,0.5,1C47.9,55.9,48.3,56,48.9,56z"/>
		<path class="st1" d="M54.7,56.9V49h1.2l0.1,1.4c0.3-0.5,0.6-0.9,1.1-1.2c0.5-0.3,1-0.4,1.6-0.4c0.9,0,1.7,0.3,2.2,0.9
			c0.6,0.6,0.8,1.4,0.8,2.6v4.6h-1.3v-4.5c0-1.6-0.7-2.5-2.1-2.5c-0.7,0-1.2,0.2-1.7,0.7c-0.4,0.5-0.7,1.2-0.7,2.1v4.1L54.7,56.9
			L54.7,56.9z"/>
		<path class="st1" d="M63.3,49.3l0.9-3.6h1.5l-1.5,3.6H63.3z"/>
		<path class="st1" d="M70.4,56.9c-0.7,0-1.3-0.2-1.7-0.5c-0.4-0.4-0.6-1-0.6-1.9v-4.4h-1.4V49h1.4l0.2-1.9h1.2V49h2.3v1.1h-2.3v4.4
			c0,0.5,0.1,0.8,0.3,1c0.2,0.2,0.6,0.3,1.1,0.3h0.8v1.1H70.4L70.4,56.9z"/>
		<path class="st1" d="M81.9,57.1c-0.6,0-1.2-0.1-1.7-0.4s-0.9-0.6-1.2-1.1l-0.1,1.3h-1.2V45.4H79v4.9c0.3-0.4,0.6-0.7,1.1-1
			s1.1-0.5,1.8-0.5c0.8,0,1.5,0.2,2.1,0.5c0.6,0.4,1,0.9,1.4,1.5s0.5,1.3,0.5,2.1c0,0.8-0.2,1.5-0.5,2.1s-0.8,1.1-1.4,1.5
			S82.7,57.1,81.9,57.1z M81.8,56c0.5,0,1-0.1,1.4-0.4c0.4-0.2,0.7-0.6,1-1s0.3-1,0.3-1.6s-0.1-1.1-0.3-1.6c-0.2-0.5-0.6-0.8-1-1.1
			c-0.4-0.2-0.9-0.4-1.4-0.4s-1,0.1-1.4,0.4c-0.4,0.2-0.7,0.6-1,1.1c-0.2,0.4-0.4,1-0.4,1.6s0.1,1.1,0.4,1.6c0.2,0.5,0.5,0.8,1,1
			C80.8,55.8,81.3,56,81.8,56z"/>
		<path class="st1" d="M91.3,57.1c-0.8,0-1.4-0.2-2-0.5c-0.6-0.4-1.1-0.8-1.4-1.5c-0.3-0.6-0.5-1.4-0.5-2.2c0-0.8,0.2-1.6,0.5-2.2
			s0.8-1.1,1.4-1.5s1.3-0.5,2.1-0.5c0.8,0,1.4,0.2,2,0.5c0.6,0.4,1,0.8,1.3,1.4s0.4,1.2,0.4,1.8c0,0.1,0,0.2,0,0.3
			c0,0.1,0,0.2,0,0.4h-6.3c0,0.6,0.2,1.1,0.4,1.5c0.2,0.4,0.6,0.7,0.9,0.9c0.4,0.2,0.8,0.3,1.2,0.3c0.6,0,1-0.1,1.4-0.4
			s0.7-0.6,0.8-1h1.3c-0.2,0.7-0.6,1.4-1.2,1.8C93,56.9,92.3,57.1,91.3,57.1z M91.3,49.9c-0.6,0-1.2,0.2-1.7,0.6s-0.8,1-0.9,1.7h5
			c0-0.7-0.3-1.3-0.7-1.7C92.6,50.1,92,49.9,91.3,49.9z"/>
		<path class="st1" d="M103.7,57.1c-0.7,0-1.2-0.1-1.7-0.3c-0.4-0.2-0.8-0.5-1-0.9s-0.3-0.8-0.3-1.2c0-0.8,0.3-1.4,0.9-1.9
			c0.6-0.4,1.5-0.7,2.5-0.7h2.1V52c0-0.7-0.2-1.2-0.5-1.6c-0.4-0.4-0.8-0.5-1.5-0.5c-0.5,0-1,0.1-1.3,0.4c-0.4,0.3-0.6,0.6-0.7,1.1
			h-1.4c0.1-0.6,0.2-1.1,0.6-1.5c0.3-0.4,0.8-0.7,1.3-0.9c0.5-0.2,1-0.3,1.6-0.3c1.1,0,1.9,0.3,2.5,0.9s0.8,1.4,0.8,2.4v4.9h-1.2
			l-0.1-1.4c-0.2,0.4-0.5,0.8-1,1.1C105,57,104.5,57.1,103.7,57.1z M103.9,56c0.5,0,1-0.1,1.3-0.4c0.4-0.3,0.7-0.6,0.8-1
			c0.2-0.4,0.3-0.9,0.3-1.3l0,0h-2c-0.8,0-1.4,0.1-1.7,0.4c-0.3,0.3-0.5,0.6-0.5,1s0.2,0.8,0.5,1C103,55.9,103.4,56,103.9,56z"/>
		<path class="st1" d="M111.7,56.9l-3-7.9h1.4l2.4,6.6l2.4-6.6h1.4l-3,7.9H111.7z"/>
		<path class="st1" d="M121,57.1c-0.8,0-1.4-0.2-2-0.5s-1.1-0.8-1.4-1.4s-0.5-1.4-0.5-2.2s0.2-1.6,0.5-2.2s0.8-1.1,1.4-1.5
			s1.3-0.5,2-0.5c0.8,0,1.4,0.2,2,0.5s1.1,0.8,1.4,1.5c0.3,0.6,0.5,1.4,0.5,2.2s-0.2,1.6-0.5,2.2s-0.8,1.1-1.4,1.4
			C122.4,57,121.7,57.1,121,57.1z M121,56c0.5,0,0.9-0.1,1.3-0.3c0.4-0.2,0.7-0.6,1-1c0.2-0.4,0.4-1,0.4-1.7s-0.1-1.2-0.4-1.7
			s-0.6-0.8-0.9-1c-0.4-0.2-0.8-0.3-1.3-0.3s-0.9,0.1-1.3,0.3c-0.4,0.2-0.7,0.6-1,1c-0.2,0.5-0.4,1-0.4,1.7s0.1,1.2,0.4,1.7
			s0.6,0.8,0.9,1C120.1,55.9,120.6,56,121,56z"/>
		<path class="st1" d="M127.7,47.2c-0.3,0-0.5-0.1-0.7-0.3c-0.2-0.2-0.3-0.4-0.3-0.7c0-0.3,0.1-0.5,0.3-0.6c0.2-0.2,0.4-0.3,0.7-0.3
			c0.3,0,0.5,0.1,0.7,0.3c0.2,0.2,0.3,0.4,0.3,0.6c0,0.3-0.1,0.5-0.3,0.7C128.1,47.2,127.9,47.2,127.7,47.2z M127,56.9V49h1.3v7.9
			H127L127,56.9z"/>
		<path class="st1" d="M134.3,57.1c-0.8,0-1.5-0.2-2.1-0.5c-0.6-0.4-1.1-0.9-1.4-1.5s-0.5-1.3-0.5-2.1c0-0.8,0.2-1.5,0.5-2.1
			s0.8-1.1,1.4-1.5c0.6-0.4,1.3-0.5,2.1-0.5c0.6,0,1.2,0.1,1.7,0.4s0.9,0.6,1.2,1.1v-4.9h1.3V57h-1.2l-0.1-1.3
			c-0.3,0.4-0.6,0.7-1.1,1C135.6,57,135,57.1,134.3,57.1z M134.4,56c0.5,0,1-0.1,1.4-0.4c0.4-0.2,0.7-0.6,1-1s0.3-1,0.3-1.6
			s-0.1-1.1-0.3-1.6s-0.6-0.8-1-1.1c-0.4-0.2-0.9-0.4-1.4-0.4s-1,0.1-1.4,0.4s-0.7,0.6-1,1.1c-0.2,0.4-0.3,1-0.3,1.6
			s0.1,1.1,0.3,1.6s0.5,0.8,1,1S133.9,56,134.4,56z"/>
		<path class="st1" d="M144.3,57.1c-0.8,0-1.4-0.2-2-0.5s-1.1-0.8-1.4-1.5c-0.3-0.6-0.5-1.4-0.5-2.2c0-0.8,0.2-1.6,0.5-2.2
			s0.8-1.1,1.4-1.5s1.3-0.5,2.1-0.5s1.4,0.2,2,0.5s1,0.8,1.3,1.4s0.5,1.2,0.5,1.8c0,0.1,0,0.2,0,0.3c0,0.1,0,0.2,0,0.4h-6.3
			c0,0.6,0.2,1.1,0.4,1.5s0.6,0.7,0.9,0.9c0.4,0.2,0.8,0.3,1.2,0.3c0.6,0,1-0.1,1.4-0.4s0.6-0.6,0.8-1h1.3c-0.2,0.7-0.6,1.4-1.2,1.8
			C146,56.9,145.2,57.1,144.3,57.1z M144.3,49.9c-0.6,0-1.2,0.2-1.7,0.6s-0.8,1-0.9,1.7h5c0-0.7-0.3-1.3-0.7-1.7
			C145.5,50.1,145,49.9,144.3,49.9z"/>
		<path class="st1" d="M153.4,57.1c-0.8,0-1.5-0.2-2.1-0.5c-0.6-0.4-1-0.9-1.4-1.5s-0.5-1.3-0.5-2.1c0-0.8,0.2-1.5,0.5-2.1
			s0.8-1.1,1.4-1.5c0.6-0.4,1.3-0.5,2.1-0.5c0.6,0,1.2,0.1,1.7,0.4s0.9,0.6,1.2,1.1v-4.9h1.3V57h-1.2l-0.1-1.3
			c-0.3,0.4-0.6,0.7-1.1,1C154.8,57,154.2,57.1,153.4,57.1z M153.6,56c0.5,0,1-0.1,1.4-0.4c0.4-0.2,0.7-0.6,1-1
			c0.2-0.5,0.3-1,0.3-1.6s-0.1-1.1-0.3-1.6s-0.6-0.8-1-1.1s-0.9-0.4-1.4-0.4s-1,0.1-1.4,0.4c-0.4,0.2-0.7,0.6-1,1.1
			c-0.2,0.4-0.3,1-0.3,1.6s0.1,1.1,0.3,1.6s0.6,0.8,1,1C152.6,55.8,153.1,56,153.6,56z"/>
		<path class="st1" d="M160.3,57c-0.3,0-0.5-0.1-0.7-0.3c-0.2-0.2-0.3-0.4-0.3-0.6c0-0.3,0.1-0.5,0.3-0.6c0.2-0.2,0.4-0.3,0.7-0.3
			s0.5,0.1,0.6,0.3c0.2,0.2,0.3,0.4,0.3,0.6c0,0.3-0.1,0.5-0.3,0.6S160.6,57,160.3,57z"/>
		<path class="st1" d="M37,78.9V67.7h1.3v11.2H37z"/>
		<path class="st1" d="M40.6,78.9V71h1.2l0.1,1.4c0.3-0.5,0.6-0.9,1.1-1.2c0.5-0.3,1-0.4,1.6-0.4c0.9,0,1.7,0.3,2.2,0.9
			c0.6,0.6,0.8,1.4,0.8,2.6v4.6h-1.3v-4.5c0-1.6-0.7-2.5-2-2.5c-0.7,0-1.2,0.2-1.7,0.7s-0.7,1.2-0.7,2.1v4.1L40.6,78.9L40.6,78.9z"
			/>
		<path class="st1" d="M52.8,79.1c-0.9,0-1.7-0.2-2.4-0.7c-0.6-0.5-1-1.1-1.1-1.9h1.4c0.1,0.4,0.3,0.8,0.7,1.1
			c0.4,0.3,0.8,0.5,1.5,0.5c0.6,0,1-0.1,1.2-0.4c0.3-0.2,0.4-0.5,0.4-0.9c0-0.5-0.2-0.8-0.5-1s-0.8-0.3-1.5-0.4
			c-0.4-0.1-0.8-0.2-1.3-0.4s-0.8-0.4-1.1-0.7c-0.3-0.3-0.4-0.7-0.4-1.2c0-0.7,0.3-1.3,0.8-1.7c0.5-0.4,1.2-0.7,2.1-0.7
			c0.8,0,1.5,0.2,2.1,0.6c0.5,0.4,0.8,1,0.9,1.8h-1.3c-0.1-0.4-0.2-0.7-0.5-0.9c-0.3-0.2-0.7-0.3-1.2-0.3s-0.8,0.1-1.1,0.3
			c-0.3,0.2-0.4,0.5-0.4,0.8s0.2,0.6,0.5,0.8c0.3,0.2,0.8,0.3,1.4,0.5c0.5,0.1,1,0.2,1.4,0.4c0.4,0.1,0.8,0.4,1.1,0.7
			c0.3,0.3,0.4,0.7,0.4,1.3c0,0.7-0.3,1.3-0.8,1.8C54.5,78.9,53.8,79.1,52.8,79.1z"/>
		<path class="st1" d="M60.6,78.9c-0.7,0-1.3-0.2-1.7-0.5c-0.4-0.4-0.6-1-0.6-1.9v-4.4h-1.4V71h1.4l0.2-1.9h1.2V71H62v1.1h-2.3v4.4
			c0,0.5,0.1,0.8,0.3,1s0.6,0.3,1.1,0.3h0.8v1.1H60.6L60.6,78.9z"/>
		<path class="st1" d="M67,79.1c-0.8,0-1.4-0.2-2-0.5c-0.6-0.4-1-0.8-1.4-1.5c-0.3-0.6-0.5-1.4-0.5-2.2c0-0.8,0.2-1.6,0.5-2.2
			s0.8-1.1,1.4-1.5s1.3-0.5,2.1-0.5c0.8,0,1.4,0.2,2,0.5c0.6,0.4,1,0.8,1.3,1.4s0.5,1.2,0.5,1.8c0,0.1,0,0.2,0,0.3
			c0,0.1,0,0.2,0,0.4h-6.3c0,0.6,0.2,1.1,0.4,1.5c0.2,0.4,0.6,0.7,0.9,0.9c0.4,0.2,0.8,0.3,1.2,0.3c0.6,0,1-0.1,1.4-0.4
			s0.7-0.6,0.8-1h1.3c-0.2,0.7-0.6,1.4-1.2,1.8C68.7,78.9,67.9,79.1,67,79.1z M67,71.9c-0.6,0-1.2,0.2-1.7,0.6s-0.8,1-0.9,1.7h5
			c0-0.7-0.3-1.3-0.7-1.7C68.2,72.1,67.7,71.9,67,71.9z"/>
		<path class="st1" d="M75.2,79.1c-0.7,0-1.2-0.1-1.7-0.3c-0.4-0.2-0.8-0.5-1-0.9s-0.3-0.8-0.3-1.2c0-0.8,0.3-1.4,0.9-1.9
			s1.5-0.7,2.5-0.7h2.1V74c0-0.7-0.2-1.2-0.5-1.6c-0.4-0.4-0.8-0.5-1.5-0.5c-0.5,0-1,0.1-1.3,0.4c-0.4,0.3-0.6,0.6-0.7,1.1h-1.4
			c0-0.6,0.2-1.1,0.6-1.5c0.3-0.4,0.8-0.7,1.3-0.9c0.5-0.2,1-0.3,1.6-0.3c1.1,0,1.9,0.3,2.5,0.9s0.8,1.4,0.8,2.4v4.9h-1.2l-0.1-1.4
			c-0.2,0.4-0.6,0.8-1,1.1C76.5,79,75.9,79.1,75.2,79.1z M75.4,78c0.5,0,0.9-0.1,1.3-0.4s0.6-0.6,0.8-1c0.2-0.4,0.3-0.9,0.3-1.3l0,0
			h-2c-0.8,0-1.3,0.1-1.7,0.4c-0.3,0.3-0.5,0.6-0.5,1s0.2,0.8,0.5,1C74.4,77.9,74.8,78,75.4,78z"/>
		<path class="st1" d="M84.8,79.1c-0.8,0-1.5-0.2-2.1-0.5c-0.6-0.4-1-0.9-1.4-1.5s-0.5-1.3-0.5-2.1c0-0.8,0.2-1.5,0.5-2.1
			s0.8-1.1,1.4-1.5s1.3-0.5,2.1-0.5c0.6,0,1.2,0.1,1.7,0.4s0.9,0.6,1.2,1.1v-4.9H89V79h-1.2l-0.1-1.3c-0.3,0.4-0.6,0.7-1.1,1
			C86.1,79,85.5,79.1,84.8,79.1z M84.9,78c0.5,0,1-0.1,1.4-0.4c0.4-0.2,0.7-0.6,1-1c0.2-0.5,0.3-1,0.3-1.6s-0.1-1.1-0.3-1.6
			c-0.2-0.5-0.6-0.8-1-1.1c-0.4-0.2-0.9-0.4-1.4-0.4s-1,0.1-1.4,0.4c-0.4,0.2-0.7,0.6-1,1.1c-0.2,0.4-0.3,1-0.3,1.6s0.1,1.1,0.3,1.6
			c0.2,0.5,0.6,0.8,1,1C83.9,77.8,84.4,78,84.9,78z"/>
		<path class="st1" d="M99.1,79.1c-0.8,0-1.4-0.2-2-0.5s-1.1-0.8-1.4-1.4s-0.5-1.4-0.5-2.2s0.2-1.6,0.5-2.2s0.8-1.1,1.4-1.5
			s1.3-0.5,2-0.5s1.4,0.2,2,0.5s1.1,0.8,1.4,1.5c0.3,0.6,0.5,1.4,0.5,2.2s-0.2,1.6-0.5,2.2s-0.8,1.1-1.4,1.4
			C100.5,79,99.8,79.1,99.1,79.1z M99.1,78c0.5,0,0.9-0.1,1.3-0.3c0.4-0.2,0.7-0.6,1-1c0.2-0.4,0.4-1,0.4-1.7s-0.1-1.2-0.4-1.7
			c-0.2-0.4-0.6-0.8-1-1S99.6,72,99.1,72s-0.9,0.1-1.3,0.3c-0.4,0.2-0.7,0.6-1,1c-0.2,0.5-0.4,1-0.4,1.7s0.1,1.2,0.4,1.7
			s0.6,0.8,1,1C98.2,77.9,98.6,78,99.1,78z"/>
		<path class="st1" d="M105.4,78.9v-6.8h-1.2V71h1.2v-1.4c0-0.8,0.2-1.3,0.6-1.7s0.9-0.5,1.7-0.5h0.8v1.1h-0.6
			c-0.4,0-0.7,0.1-0.9,0.2c-0.2,0.2-0.3,0.5-0.3,0.8v1.4h1.9V72h-1.9v6.8L105.4,78.9L105.4,78.9z"/>
		<path class="st1" d="M117.6,76.4c-0.4,0-0.9-0.1-1.2-0.2l-0.8,0.8c0.1,0.1,0.3,0.2,0.4,0.2c0.2,0.1,0.4,0.1,0.8,0.2
			c0.3,0,0.8,0.1,1.4,0.1c1.1,0.1,1.8,0.3,2.3,0.7s0.7,1,0.7,1.6c0,0.5-0.1,0.9-0.4,1.3c-0.2,0.4-0.6,0.8-1.1,1
			c-0.5,0.3-1.2,0.4-2,0.4c-0.7,0-1.3-0.1-1.9-0.3c-0.6-0.2-1-0.5-1.3-0.8S114,80.5,114,80c0-0.3,0.1-0.6,0.2-1
			c0.2-0.3,0.5-0.7,0.9-1c-0.2-0.1-0.4-0.2-0.6-0.3c-0.2-0.1-0.3-0.2-0.5-0.4v-0.4l1.4-1.3c-0.6-0.5-0.9-1.2-0.9-2.1
			c0-0.5,0.1-1,0.4-1.4c0.2-0.4,0.6-0.8,1.1-1s1-0.4,1.7-0.4c0.5,0,0.9,0.1,1.2,0.2h2.9v1l-1.5,0.1c0.3,0.5,0.5,1,0.5,1.5
			s-0.1,1-0.4,1.4c-0.2,0.4-0.6,0.8-1.1,1C118.9,76.3,118.3,76.4,117.6,76.4z M115.3,80c0,0.5,0.2,0.9,0.7,1.2
			c0.4,0.3,1,0.4,1.7,0.4s1.2-0.1,1.6-0.4s0.6-0.7,0.6-1.1c0-0.3-0.1-0.6-0.4-0.9c-0.3-0.2-0.8-0.4-1.5-0.4c-0.6,0-1.1-0.1-1.5-0.2
			c-0.4,0.2-0.7,0.5-0.9,0.8C115.4,79.5,115.3,79.7,115.3,80z M117.6,75.3c0.6,0,1-0.1,1.4-0.4c0.3-0.3,0.5-0.7,0.5-1.3
			c0-0.5-0.2-1-0.5-1.3s-0.8-0.4-1.4-0.4s-1,0.1-1.4,0.4c-0.3,0.3-0.5,0.7-0.5,1.3c0,0.6,0.2,1,0.5,1.3
			C116.6,75.2,117.1,75.3,117.6,75.3z"/>
		<path class="st1" d="M126.6,79.1c-0.8,0-1.4-0.2-2-0.5c-0.6-0.4-1.1-0.8-1.4-1.5c-0.3-0.6-0.5-1.4-0.5-2.2c0-0.8,0.2-1.6,0.5-2.2
			s0.8-1.1,1.4-1.5s1.3-0.5,2.1-0.5c0.8,0,1.4,0.2,2,0.5s1,0.8,1.3,1.4s0.4,1.2,0.4,1.8c0,0.1,0,0.2,0,0.3c0,0.1,0,0.2,0,0.4H124
			c0,0.6,0.2,1.1,0.4,1.5c0.2,0.4,0.6,0.7,0.9,0.9c0.4,0.2,0.8,0.3,1.2,0.3c0.6,0,1-0.1,1.4-0.4c0.4-0.3,0.6-0.6,0.8-1h1.3
			c-0.2,0.7-0.6,1.4-1.2,1.8C128.3,78.9,127.5,79.1,126.6,79.1z M126.6,71.9c-0.6,0-1.2,0.2-1.7,0.6s-0.8,1-0.9,1.7h5
			c0-0.7-0.3-1.3-0.7-1.7C127.8,72.1,127.3,71.9,126.6,71.9z"/>
		<path class="st1" d="M135,78.9c-0.7,0-1.3-0.2-1.7-0.5s-0.6-1-0.6-1.9v-4.4h-1.4V71h1.4l0.2-1.9h1.2V71h2.3v1.1H134v4.4
			c0,0.5,0.1,0.8,0.3,1s0.6,0.3,1.1,0.3h0.8v1.1H135L135,78.9z"/>
		<path class="st1" d="M141.2,78.9c-0.7,0-1.3-0.2-1.7-0.5s-0.6-1-0.6-1.9v-4.4h-1.4V71h1.4l0.2-1.9h1.2V71h2.3v1.1h-2.3v4.4
			c0,0.5,0.1,0.8,0.3,1s0.6,0.3,1.1,0.3h0.8v1.1H141.2L141.2,78.9z"/>
		<path class="st1" d="M145,69.2c-0.3,0-0.5-0.1-0.7-0.3c-0.2-0.2-0.3-0.4-0.3-0.7c0-0.3,0.1-0.5,0.3-0.6c0.2-0.2,0.4-0.3,0.7-0.3
			s0.5,0.1,0.7,0.3c0.2,0.2,0.3,0.4,0.3,0.6c0,0.3-0.1,0.5-0.3,0.7C145.5,69.2,145.3,69.2,145,69.2z M144.4,78.9V71h1.3v7.9H144.4
			L144.4,78.9z"/>
		<path class="st1" d="M148.1,78.9V71h1.2l0.1,1.4c0.3-0.5,0.6-0.9,1.1-1.2c0.5-0.3,1-0.4,1.6-0.4c0.9,0,1.7,0.3,2.2,0.9
			c0.6,0.6,0.8,1.4,0.8,2.6v4.6h-1.3v-4.5c0-1.6-0.7-2.5-2.1-2.5c-0.7,0-1.2,0.2-1.7,0.7c-0.4,0.5-0.7,1.2-0.7,2.1v4.1L148.1,78.9
			L148.1,78.9z"/>
		<path class="st1" d="M160.3,76.4c-0.5,0-0.9-0.1-1.2-0.2l-0.8,0.8c0.1,0.1,0.3,0.2,0.4,0.2c0.2,0.1,0.4,0.1,0.8,0.2
			c0.3,0,0.8,0.1,1.4,0.1c1.1,0.1,1.8,0.3,2.3,0.7c0.5,0.4,0.7,1,0.7,1.6c0,0.5-0.1,0.9-0.4,1.3c-0.2,0.4-0.6,0.8-1.1,1
			c-0.5,0.3-1.2,0.4-2,0.4c-0.7,0-1.3-0.1-1.9-0.3c-0.6-0.2-1-0.5-1.3-0.8s-0.5-0.9-0.5-1.4c0-0.3,0.1-0.6,0.2-1
			c0.2-0.3,0.5-0.7,0.9-1c-0.2-0.1-0.4-0.2-0.6-0.3c-0.2-0.1-0.3-0.2-0.5-0.4v-0.4l1.4-1.3c-0.6-0.5-0.9-1.2-0.9-2.1
			c0-0.5,0.1-1,0.4-1.4c0.2-0.4,0.6-0.8,1.1-1s1-0.4,1.7-0.4c0.5,0,0.9,0.1,1.2,0.2h2.9v1L163,72c0.3,0.5,0.5,1,0.5,1.5
			s-0.1,1-0.4,1.4c-0.2,0.4-0.6,0.8-1.1,1C161.6,76.3,161,76.4,160.3,76.4z M158,80c0,0.5,0.2,0.9,0.7,1.2c0.5,0.3,1,0.4,1.7,0.4
			s1.2-0.1,1.6-0.4c0.4-0.3,0.6-0.7,0.6-1.1c0-0.3-0.1-0.6-0.4-0.9s-0.8-0.4-1.5-0.4c-0.6,0-1.1-0.1-1.5-0.2
			c-0.4,0.2-0.7,0.5-0.9,0.8C158.1,79.5,158,79.7,158,80z M160.3,75.3c0.6,0,1-0.1,1.3-0.4s0.5-0.7,0.5-1.3c0-0.5-0.2-1-0.5-1.3
			s-0.8-0.4-1.3-0.4c-0.6,0-1,0.1-1.4,0.4c-0.3,0.3-0.5,0.7-0.5,1.3c0,0.6,0.2,1,0.5,1.3C159.3,75.2,159.8,75.3,160.3,75.3z"/>
		<path class="st1" d="M37.8,91.2c-0.3,0-0.5-0.1-0.7-0.3c-0.2-0.2-0.3-0.4-0.3-0.7c0-0.3,0.1-0.5,0.3-0.6c0.2-0.2,0.4-0.3,0.7-0.3
			s0.5,0.1,0.7,0.3c0.2,0.2,0.3,0.4,0.3,0.6c0,0.3-0.1,0.5-0.3,0.7C38.2,91.2,38,91.2,37.8,91.2z M37.1,100.9V93h1.3v7.9H37.1
			L37.1,100.9z"/>
		<path class="st1" d="M40.8,100.9V93H42l0.1,1.5c0.2-0.5,0.6-0.9,1.1-1.2s1.1-0.5,1.9-0.5v1.4h-0.4c-0.5,0-0.9,0.1-1.3,0.2
			c-0.4,0.2-0.7,0.5-0.9,0.8c-0.2,0.4-0.3,0.9-0.3,1.6v4L40.8,100.9L40.8,100.9z"/>
		<path class="st1" d="M46.6,100.9V93h1.2l0.1,1.5c0.2-0.5,0.6-0.9,1.1-1.2s1.1-0.5,1.9-0.5v1.4h-0.4c-0.5,0-0.9,0.1-1.3,0.2
			c-0.4,0.2-0.7,0.5-0.9,0.8c-0.2,0.4-0.3,0.9-0.3,1.6v4L46.6,100.9L46.6,100.9z"/>
		<path class="st1" d="M53.2,91.2c-0.3,0-0.5-0.1-0.7-0.3c-0.2-0.2-0.3-0.4-0.3-0.7c0-0.3,0.1-0.5,0.3-0.6c0.2-0.2,0.4-0.3,0.7-0.3
			s0.5,0.1,0.7,0.3c0.2,0.2,0.3,0.4,0.3,0.6c0,0.3-0.1,0.5-0.3,0.7C53.7,91.2,53.4,91.2,53.2,91.2z M52.5,100.9V93h1.3v7.9H52.5
			L52.5,100.9z"/>
		<path class="st1" d="M59.3,100.9c-0.7,0-1.3-0.2-1.7-0.5c-0.4-0.4-0.6-1-0.6-1.9v-4.4h-1.4V93H57l0.2-1.9h1.2V93h2.3v1.1h-2.3v4.4
			c0,0.5,0.1,0.8,0.3,1s0.6,0.3,1.1,0.3h0.8v1.1H59.3L59.3,100.9z"/>
		<path class="st1" d="M65,101.1c-0.7,0-1.2-0.1-1.6-0.3s-0.8-0.5-1-0.9s-0.3-0.8-0.3-1.2c0-0.8,0.3-1.4,0.9-1.9
			c0.6-0.4,1.5-0.7,2.5-0.7h2.1V96c0-0.7-0.2-1.2-0.5-1.6c-0.4-0.4-0.8-0.5-1.5-0.5c-0.5,0-1,0.1-1.4,0.4c-0.4,0.3-0.6,0.6-0.7,1.1
			h-1.4c0.1-0.6,0.2-1.1,0.6-1.5c0.3-0.4,0.8-0.7,1.3-0.9c0.5-0.2,1-0.3,1.6-0.3c1.1,0,1.9,0.3,2.5,0.9s0.8,1.4,0.8,2.4v4.9h-1.2
			l-0.1-1.4c-0.2,0.4-0.6,0.8-1,1.1C66.3,101,65.8,101.1,65,101.1z M65.2,100c0.5,0,1-0.1,1.3-0.4c0.4-0.3,0.7-0.6,0.8-1
			c0.2-0.4,0.3-0.9,0.3-1.3l0,0h-2c-0.8,0-1.4,0.1-1.7,0.4c-0.3,0.3-0.5,0.6-0.5,1s0.2,0.8,0.5,1C64.3,99.9,64.7,100,65.2,100z"/>
		<path class="st1" d="M74,100.9c-0.7,0-1.3-0.2-1.7-0.5c-0.4-0.4-0.6-1-0.6-1.9v-4.4h-1.4V93h1.4l0.2-1.9H73V93h2.3v1.1H73v4.4
			c0,0.5,0.1,0.8,0.3,1c0.2,0.2,0.6,0.3,1.1,0.3h0.8v1.1H74L74,100.9z"/>
		<path class="st1" d="M80.4,101.1c-0.8,0-1.4-0.2-2-0.5c-0.6-0.4-1-0.8-1.4-1.5c-0.3-0.6-0.5-1.4-0.5-2.2c0-0.8,0.2-1.6,0.5-2.2
			s0.8-1.1,1.4-1.5s1.3-0.5,2.1-0.5c0.8,0,1.4,0.2,2,0.5s1,0.8,1.3,1.4s0.4,1.2,0.4,1.8c0,0.1,0,0.2,0,0.3c0,0.1,0,0.2,0,0.4h-6.3
			c0,0.6,0.2,1.1,0.4,1.5c0.2,0.4,0.6,0.7,0.9,0.9c0.4,0.2,0.8,0.3,1.2,0.3c0.6,0,1-0.1,1.4-0.4s0.7-0.6,0.8-1h1.3
			c-0.2,0.7-0.6,1.4-1.2,1.8C82.1,100.9,81.3,101.1,80.4,101.1z M80.4,93.9c-0.6,0-1.2,0.2-1.7,0.6s-0.8,1-0.9,1.7h5
			c0-0.7-0.3-1.3-0.7-1.7C81.6,94.1,81,93.9,80.4,93.9z"/>
		<path class="st1" d="M89.5,101.1c-0.8,0-1.5-0.2-2.1-0.5c-0.6-0.4-1.1-0.9-1.4-1.5s-0.5-1.3-0.5-2.1c0-0.8,0.2-1.5,0.5-2.1
			s0.8-1.1,1.4-1.5s1.3-0.5,2.1-0.5c0.7,0,1.2,0.1,1.7,0.4s0.9,0.6,1.2,1.1v-4.9h1.3V101h-1.2l-0.1-1.3c-0.3,0.4-0.6,0.7-1.1,1
			S90.2,101.1,89.5,101.1z M89.6,100c0.5,0,1-0.1,1.4-0.4c0.4-0.2,0.7-0.6,1-1c0.2-0.5,0.3-1,0.3-1.6s-0.1-1.1-0.3-1.6
			c-0.2-0.5-0.5-0.8-1-1.1c-0.4-0.2-0.9-0.4-1.4-0.4s-1,0.1-1.4,0.4s-0.7,0.6-1,1.1c-0.2,0.4-0.3,1-0.3,1.6s0.1,1.1,0.3,1.6
			c0.2,0.5,0.5,0.8,1,1C88.6,99.8,89.1,100,89.6,100z"/>
		<path class="st1" d="M102.8,101.1c-0.7,0-1.2-0.1-1.7-0.3s-0.8-0.5-1-0.9s-0.3-0.8-0.3-1.2c0-0.8,0.3-1.4,0.9-1.9
			c0.6-0.4,1.5-0.7,2.5-0.7h2.1V96c0-0.7-0.2-1.2-0.5-1.6c-0.4-0.4-0.9-0.5-1.5-0.5c-0.5,0-1,0.1-1.4,0.4s-0.6,0.6-0.7,1.1H100
			c0-0.6,0.2-1.1,0.6-1.5c0.3-0.4,0.8-0.7,1.3-0.9c0.5-0.2,1-0.3,1.6-0.3c1.1,0,1.9,0.3,2.5,0.9s0.8,1.4,0.8,2.4v4.9h-1.2l-0.1-1.4
			c-0.2,0.4-0.6,0.8-1,1.1C104.1,101,103.5,101.1,102.8,101.1z M103,100c0.5,0,0.9-0.1,1.3-0.4s0.7-0.6,0.8-1
			c0.2-0.4,0.3-0.9,0.3-1.3l0,0h-2c-0.8,0-1.3,0.1-1.7,0.4c-0.3,0.3-0.5,0.6-0.5,1s0.1,0.8,0.5,1C102,99.9,102.5,100,103,100z"/>
		<path class="st1" d="M108.8,100.9V93h1.2l0.1,1.4c0.3-0.5,0.6-0.9,1.1-1.2c0.5-0.3,1-0.4,1.6-0.4c0.9,0,1.7,0.3,2.2,0.9
			c0.6,0.6,0.8,1.4,0.8,2.6v4.6h-1.3v-4.5c0-1.6-0.7-2.5-2-2.5c-0.7,0-1.2,0.2-1.7,0.7c-0.4,0.5-0.7,1.2-0.7,2.1v4.1L108.8,100.9
			L108.8,100.9z"/>
		<path class="st1" d="M121.6,101.1c-0.8,0-1.5-0.2-2.1-0.5c-0.6-0.4-1.1-0.9-1.4-1.5s-0.5-1.3-0.5-2.1c0-0.8,0.2-1.5,0.5-2.1
			s0.8-1.1,1.4-1.5s1.3-0.5,2.1-0.5c0.7,0,1.2,0.1,1.7,0.4s0.9,0.6,1.2,1.1v-4.9h1.3V101h-1.2l-0.1-1.3c-0.3,0.4-0.6,0.7-1.1,1
			S122.3,101.1,121.6,101.1z M121.7,100c0.5,0,1-0.1,1.4-0.4s0.7-0.6,1-1c0.2-0.5,0.3-1,0.3-1.6s-0.1-1.1-0.3-1.6
			c-0.2-0.5-0.5-0.8-1-1.1s-0.9-0.4-1.4-0.4s-1,0.1-1.4,0.4s-0.7,0.6-1,1.1c-0.2,0.4-0.3,1-0.3,1.6s0.1,1.1,0.3,1.6s0.5,0.8,1,1
			S121.2,100,121.7,100z"/>
		<path class="st1" d="M135.4,100.9c-0.7,0-1.3-0.2-1.7-0.5c-0.4-0.4-0.6-1-0.6-1.9v-4.4h-1.4V93h1.4l0.2-1.9h1.2V93h2.3v1.1h-2.3
			v4.4c0,0.5,0.1,0.8,0.3,1s0.6,0.3,1.1,0.3h0.8v1.1H135.4L135.4,100.9z"/>
		<path class="st1" d="M141.8,101.1c-0.8,0-1.4-0.2-2-0.5s-1.1-0.8-1.4-1.5c-0.3-0.6-0.5-1.4-0.5-2.2c0-0.8,0.2-1.6,0.5-2.2
			s0.8-1.1,1.4-1.5s1.3-0.5,2.1-0.5s1.4,0.2,2,0.5c0.6,0.4,1,0.8,1.3,1.4s0.4,1.2,0.4,1.8c0,0.1,0,0.2,0,0.3c0,0.1,0,0.2,0,0.4h-6.3
			c0,0.6,0.2,1.1,0.4,1.5s0.6,0.7,0.9,0.9c0.4,0.2,0.8,0.3,1.2,0.3c0.5,0,1-0.1,1.4-0.4s0.6-0.6,0.8-1h1.3c-0.2,0.7-0.6,1.4-1.2,1.8
			C143.5,100.9,142.8,101.1,141.8,101.1z M141.8,93.9c-0.6,0-1.2,0.2-1.7,0.6s-0.8,1-0.9,1.7h5c0-0.7-0.3-1.3-0.7-1.7
			C143.1,94.1,142.5,93.9,141.8,93.9z"/>
		<path class="st1" d="M147.4,100.9V93h1.2l0.1,1.4c0.3-0.5,0.6-0.9,1.1-1.2c0.5-0.3,1-0.4,1.6-0.4c0.9,0,1.7,0.3,2.2,0.9
			c0.6,0.6,0.8,1.4,0.8,2.6v4.6h-1.3v-4.5c0-1.6-0.7-2.5-2.1-2.5c-0.7,0-1.2,0.2-1.7,0.7c-0.4,0.5-0.7,1.2-0.7,2.1v4.1L147.4,100.9
			L147.4,100.9z"/>
		<path class="st1" d="M159.5,101.1c-0.9,0-1.7-0.2-2.4-0.7c-0.6-0.5-1-1.1-1.1-1.9h1.4c0.1,0.4,0.3,0.8,0.7,1.1
			c0.4,0.3,0.8,0.5,1.5,0.5c0.6,0,1-0.1,1.2-0.4c0.3-0.2,0.4-0.5,0.4-0.9c0-0.5-0.2-0.8-0.5-1s-0.8-0.3-1.5-0.4
			c-0.4-0.1-0.9-0.2-1.3-0.4c-0.4-0.2-0.8-0.4-1.1-0.7c-0.3-0.3-0.4-0.7-0.4-1.2c0-0.7,0.3-1.3,0.8-1.7c0.5-0.4,1.2-0.7,2.1-0.7
			c0.8,0,1.5,0.2,2.1,0.6c0.5,0.4,0.8,1,0.9,1.8H161c-0.1-0.4-0.2-0.7-0.5-0.9c-0.3-0.2-0.7-0.3-1.2-0.3s-0.9,0.1-1.1,0.3
			c-0.3,0.2-0.4,0.5-0.4,0.8s0.2,0.6,0.5,0.8c0.3,0.2,0.8,0.3,1.4,0.5c0.5,0.1,1,0.2,1.4,0.4c0.4,0.1,0.8,0.4,1.1,0.7
			s0.4,0.7,0.4,1.3c0,0.7-0.3,1.3-0.8,1.8C161.2,100.9,160.5,101.1,159.5,101.1z"/>
		<path class="st1" d="M168.1,101.1c-0.8,0-1.4-0.2-2-0.5s-1.1-0.8-1.4-1.5c-0.3-0.6-0.5-1.4-0.5-2.2c0-0.8,0.2-1.6,0.5-2.2
			s0.8-1.1,1.4-1.5s1.3-0.5,2.1-0.5s1.4,0.2,2,0.5s1,0.8,1.3,1.4s0.5,1.2,0.5,1.8c0,0.1,0,0.2,0,0.3c0,0.1,0,0.2,0,0.4h-6.3
			c0,0.6,0.2,1.1,0.4,1.5s0.6,0.7,0.9,0.9c0.4,0.2,0.8,0.3,1.2,0.3c0.6,0,1-0.1,1.4-0.4s0.6-0.6,0.8-1h1.3c-0.2,0.7-0.6,1.4-1.2,1.8
			C169.8,100.9,169,101.1,168.1,101.1z M168.1,93.9c-0.6,0-1.2,0.2-1.7,0.6s-0.8,1-0.9,1.7h5c0-0.7-0.3-1.3-0.7-1.7
			C169.3,94.1,168.7,93.9,168.1,93.9z"/>
		<path class="st1" d="M39.8,125.3c-0.6-0.5-1.1-1.2-1.6-2s-0.9-1.6-1.2-2.6s-0.4-2-0.4-3.1s0.2-2.1,0.4-3.1
			c0.3-0.9,0.7-1.8,1.2-2.6c0.5-0.8,1-1.4,1.6-2h1.4v0.1c-1,1-1.8,2.1-2.4,3.4c-0.6,1.3-0.9,2.7-0.9,4.1c0,1.5,0.3,2.9,0.9,4.2
			c0.6,1.3,1.4,2.4,2.3,3.4v0.1L39.8,125.3L39.8,125.3z"/>
		<path class="st1" d="M44.5,122.9l-2.3-7.9h1.3l1.7,6.2L47,115h1.5l1.9,6.2l1.7-6.2h1.4l-2.3,7.9h-1.4l-2-6.5l-1.9,6.5H44.5
			L44.5,122.9z"/>
		<path class="st1" d="M55,122.9v-11.5h1.3v4.9c0.3-0.5,0.6-0.9,1.1-1.1c0.5-0.3,1-0.4,1.6-0.4c0.9,0,1.7,0.3,2.2,0.9
			c0.6,0.6,0.8,1.4,0.8,2.6v4.6h-1.3v-4.5c0-1.6-0.7-2.5-2-2.5c-0.7,0-1.3,0.2-1.7,0.7s-0.7,1.2-0.7,2.1v4.1L55,122.9L55,122.9z"/>
		<path class="st1" d="M64.9,113.2c-0.3,0-0.5-0.1-0.7-0.3c-0.2-0.2-0.3-0.4-0.3-0.7c0-0.3,0.1-0.5,0.3-0.6c0.2-0.2,0.4-0.3,0.7-0.3
			s0.5,0.1,0.7,0.3c0.2,0.2,0.3,0.4,0.3,0.6c0,0.3-0.1,0.5-0.3,0.7C65.4,113.2,65.2,113.2,64.9,113.2z M64.2,122.9V115h1.3v7.9H64.2
			L64.2,122.9z"/>
		<path class="st1" d="M71.6,123.1c-0.8,0-1.4-0.2-2-0.5s-1.1-0.8-1.4-1.5c-0.4-0.6-0.5-1.4-0.5-2.2c0-0.8,0.2-1.6,0.5-2.2
			s0.8-1.1,1.4-1.5s1.3-0.5,2-0.5c0.9,0,1.7,0.2,2.4,0.7c0.6,0.5,1.1,1.1,1.2,2h-1.4c-0.1-0.5-0.4-0.9-0.8-1.1
			c-0.4-0.3-0.9-0.4-1.5-0.4c-0.4,0-0.9,0.1-1.3,0.3c-0.4,0.2-0.7,0.6-1,1s-0.4,1-0.4,1.7s0.1,1.2,0.4,1.7s0.6,0.8,1,1
			s0.8,0.3,1.3,0.3c0.6,0,1-0.1,1.5-0.4c0.4-0.3,0.7-0.7,0.8-1.2h1.4c-0.2,0.8-0.6,1.4-1.2,1.9S72.5,123.1,71.6,123.1z"/>
		<path class="st1" d="M77,122.9v-11.5h1.3v4.9c0.3-0.5,0.7-0.9,1.1-1.1c0.5-0.3,1-0.4,1.6-0.4c0.9,0,1.7,0.3,2.2,0.9
			c0.6,0.6,0.8,1.4,0.8,2.6v4.6h-1.3v-4.5c0-1.6-0.7-2.5-2-2.5c-0.7,0-1.3,0.2-1.7,0.7s-0.7,1.2-0.7,2.1v4.1L77,122.9L77,122.9z"/>
		<path class="st1" d="M90.4,122.9V115h1.2l0.1,1.1c0.3-0.4,0.6-0.8,1-1s0.9-0.4,1.4-0.4c0.6,0,1.2,0.1,1.6,0.4
			c0.5,0.3,0.8,0.6,1.1,1.2c0.3-0.5,0.7-0.9,1.1-1.1c0.5-0.3,1-0.4,1.6-0.4c0.9,0,1.7,0.3,2.3,0.9c0.6,0.6,0.9,1.4,0.9,2.6v4.6h-1.3
			v-4.5c0-0.8-0.2-1.4-0.5-1.9c-0.3-0.4-0.8-0.6-1.4-0.6s-1.2,0.2-1.6,0.7s-0.6,1.2-0.6,2.1v4.1H96v-4.5c0-0.8-0.2-1.4-0.5-1.9
			c-0.3-0.4-0.8-0.6-1.4-0.6s-1.2,0.2-1.6,0.7s-0.6,1.2-0.6,2.1v4.1L90.4,122.9L90.4,122.9z"/>
		<path class="st1" d="M107.4,123.1c-0.7,0-1.2-0.1-1.7-0.3s-0.8-0.5-1-0.9s-0.3-0.8-0.3-1.2c0-0.8,0.3-1.4,0.9-1.9
			c0.6-0.4,1.5-0.7,2.5-0.7h2.1V118c0-0.7-0.2-1.2-0.5-1.6c-0.4-0.4-0.8-0.5-1.5-0.5c-0.5,0-1,0.1-1.4,0.4s-0.6,0.6-0.7,1.1h-1.4
			c0.1-0.6,0.2-1.1,0.6-1.5c0.3-0.4,0.8-0.7,1.3-0.9c0.5-0.2,1-0.3,1.6-0.3c1.1,0,1.9,0.3,2.5,0.9s0.8,1.4,0.8,2.4v4.9H110l-0.1-1.4
			c-0.2,0.4-0.6,0.8-1,1.1C108.7,123,108.1,123.1,107.4,123.1z M107.6,122c0.5,0,0.9-0.1,1.3-0.4s0.7-0.6,0.8-1
			c0.2-0.4,0.3-0.9,0.3-1.3l0,0h-2c-0.8,0-1.3,0.1-1.7,0.4c-0.3,0.3-0.5,0.6-0.5,1s0.1,0.8,0.5,1C106.6,121.9,107.1,122,107.6,122z"
			/>
		<path class="st1" d="M113.4,122.9v-11.5h1.3v6.9l3.2-3.3h1.7l-3.5,3.6l4,4.4h-1.7l-3.6-4.1v4.1h-1.4V122.9z"/>
		<path class="st1" d="M124.5,123.1c-0.8,0-1.4-0.2-2-0.5c-0.6-0.4-1.1-0.8-1.4-1.5c-0.3-0.6-0.5-1.4-0.5-2.2c0-0.8,0.2-1.6,0.5-2.2
			s0.8-1.1,1.4-1.5s1.3-0.5,2.1-0.5c0.8,0,1.4,0.2,2,0.5c0.6,0.4,1,0.8,1.3,1.4c0.3,0.6,0.4,1.2,0.4,1.8c0,0.1,0,0.2,0,0.3
			c0,0.1,0,0.2,0,0.4H122c0,0.6,0.2,1.1,0.4,1.5c0.2,0.4,0.6,0.7,0.9,0.9c0.4,0.2,0.8,0.3,1.2,0.3c0.6,0,1-0.1,1.4-0.4
			s0.7-0.6,0.8-1h1.3c-0.2,0.7-0.6,1.4-1.2,1.8C126.2,122.9,125.4,123.1,124.5,123.1z M124.5,115.9c-0.6,0-1.2,0.2-1.7,0.6
			s-0.8,1-0.9,1.7h5c0-0.7-0.3-1.3-0.7-1.7C125.7,116.1,125.1,115.9,124.5,115.9z"/>
		<path class="st1" d="M133,123.1c-0.9,0-1.7-0.2-2.4-0.7c-0.6-0.5-1-1.1-1.1-1.9h1.4c0.1,0.4,0.3,0.8,0.7,1.1
			c0.4,0.3,0.8,0.5,1.5,0.5c0.6,0,1-0.1,1.2-0.4c0.3-0.2,0.4-0.5,0.4-0.9c0-0.5-0.2-0.8-0.5-1s-0.8-0.3-1.5-0.4
			c-0.4-0.1-0.9-0.2-1.3-0.4c-0.4-0.2-0.8-0.4-1.1-0.7c-0.3-0.3-0.4-0.7-0.4-1.2c0-0.7,0.3-1.3,0.8-1.7c0.5-0.4,1.2-0.7,2.1-0.7
			c0.8,0,1.5,0.2,2.1,0.6c0.5,0.4,0.8,1,0.9,1.8h-1.3c-0.1-0.4-0.2-0.7-0.5-0.9c-0.3-0.2-0.7-0.3-1.2-0.3s-0.9,0.1-1.1,0.3
			c-0.3,0.2-0.4,0.5-0.4,0.8s0.2,0.6,0.5,0.8c0.3,0.2,0.8,0.3,1.4,0.5c0.5,0.1,1,0.2,1.4,0.4s0.8,0.4,1.1,0.7
			c0.3,0.3,0.4,0.7,0.4,1.3c0,0.7-0.3,1.3-0.8,1.8C134.7,122.9,134,123.1,133,123.1z"/>
		<path class="st1" d="M40,145.1c-1,0-1.7-0.2-2.4-0.7c-0.6-0.5-1-1.1-1.1-2h1.4c0.1,0.4,0.3,0.8,0.7,1.1c0.4,0.3,0.8,0.5,1.5,0.5
			c0.6,0,1-0.1,1.2-0.4s0.4-0.5,0.4-0.9c0-0.5-0.2-0.8-0.5-1c-0.4-0.2-0.8-0.3-1.5-0.4c-0.4-0.1-0.8-0.2-1.3-0.4
			c-0.4-0.2-0.8-0.4-1.1-0.7c-0.3-0.3-0.4-0.7-0.4-1.2c0-0.7,0.3-1.3,0.8-1.7c0.5-0.4,1.2-0.7,2.1-0.7c0.8,0,1.5,0.2,2.1,0.6
			s0.8,1,0.9,1.8h-1.3c0-0.4-0.2-0.7-0.5-1c-0.3-0.2-0.7-0.3-1.2-0.3s-0.8,0.1-1.1,0.3c-0.3,0.2-0.4,0.5-0.4,0.8s0.2,0.6,0.5,0.8
			s0.8,0.3,1.4,0.5c0.5,0.1,1,0.2,1.4,0.4c0.4,0.1,0.8,0.4,1.1,0.7s0.4,0.7,0.4,1.3c0,0.7-0.3,1.3-0.8,1.8
			C41.7,144.9,40.9,145.1,40,145.1z"/>
		<path class="st1" d="M44.9,144.9v-11.5h1.3v11.5H44.9z"/>
		<path class="st1" d="M52.1,145.1c-0.8,0-1.4-0.2-2-0.5s-1.1-0.8-1.4-1.4c-0.3-0.6-0.5-1.4-0.5-2.2c0-0.8,0.2-1.6,0.5-2.2
			s0.8-1.1,1.4-1.5c0.6-0.4,1.3-0.5,2.1-0.5s1.4,0.2,2,0.5s1,0.8,1.3,1.4s0.5,1.2,0.5,1.8c0,0.1,0,0.2,0,0.3s0,0.2,0,0.4h-6.3
			c0,0.6,0.2,1.1,0.4,1.5s0.6,0.7,0.9,0.9c0.4,0.2,0.8,0.3,1.2,0.3c0.6,0,1-0.1,1.4-0.4s0.6-0.6,0.8-1h1.3c-0.2,0.7-0.6,1.4-1.2,1.8
			C53.8,144.9,53,145.1,52.1,145.1z M52.1,137.9c-0.6,0-1.2,0.2-1.7,0.6s-0.8,1-0.9,1.7h5c0-0.7-0.3-1.3-0.7-1.7
			C53.3,138.1,52.7,137.9,52.1,137.9z"/>
		<path class="st1" d="M61.2,145.1c-0.8,0-1.4-0.2-2-0.5s-1.1-0.8-1.4-1.4c-0.3-0.6-0.5-1.4-0.5-2.2c0-0.8,0.2-1.6,0.5-2.2
			s0.8-1.1,1.4-1.5c0.6-0.4,1.3-0.5,2.1-0.5s1.4,0.2,2,0.5s1,0.8,1.3,1.4c0.3,0.6,0.4,1.2,0.4,1.8c0,0.1,0,0.2,0,0.3
			c0,0.1,0,0.2,0,0.4h-6.3c0,0.6,0.2,1.1,0.4,1.5s0.6,0.7,0.9,0.9c0.4,0.2,0.8,0.3,1.2,0.3c0.5,0,1-0.1,1.4-0.4s0.6-0.6,0.8-1h1.3
			c-0.2,0.7-0.6,1.4-1.2,1.8C62.9,144.9,62.1,145.1,61.2,145.1z M61.2,137.9c-0.6,0-1.2,0.2-1.7,0.6s-0.8,1-0.9,1.7h5
			c0-0.7-0.3-1.3-0.7-1.7C62.4,138.1,61.8,137.9,61.2,137.9z"/>
		<path class="st1" d="M66.7,148.5V137h1.2l0.1,1.3c0.3-0.4,0.6-0.7,1.1-1s1.1-0.5,1.8-0.5c0.8,0,1.5,0.2,2.1,0.5
			c0.6,0.4,1,0.9,1.4,1.5c0.3,0.6,0.5,1.3,0.5,2.1c0,0.8-0.2,1.5-0.5,2.1s-0.8,1.1-1.4,1.5s-1.3,0.5-2.1,0.5c-0.6,0-1.2-0.1-1.7-0.4
			s-0.9-0.6-1.2-1.1v4.9L66.7,148.5L66.7,148.5z M70.8,144c0.5,0,1-0.1,1.4-0.4c0.4-0.2,0.7-0.6,1-1c0.2-0.5,0.3-1,0.3-1.6
			s-0.1-1.1-0.3-1.6c-0.2-0.5-0.5-0.8-1-1c-0.4-0.2-0.9-0.4-1.4-0.4s-1,0.1-1.4,0.4c-0.4,0.2-0.7,0.6-1,1s-0.3,1-0.3,1.6
			s0.1,1.1,0.3,1.6c0.2,0.4,0.6,0.8,1,1C69.8,143.8,70.3,144,70.8,144z"/>
		<path class="st1" d="M77.6,135.2c-0.3,0-0.5-0.1-0.7-0.3c-0.2-0.2-0.3-0.4-0.3-0.7c0-0.3,0.1-0.5,0.3-0.6c0.2-0.2,0.4-0.3,0.7-0.3
			c0.3,0,0.5,0.1,0.7,0.3c0.2,0.2,0.3,0.4,0.3,0.6c0,0.3-0.1,0.5-0.3,0.7S77.8,135.2,77.6,135.2z M76.9,144.9V137h1.3v7.9H76.9
			L76.9,144.9z"/>
		<path class="st1" d="M80.6,144.9V137h1.2l0.1,1.4c0.3-0.5,0.6-0.9,1.1-1.2c0.5-0.3,1-0.4,1.6-0.4c0.9,0,1.7,0.3,2.2,0.9
			c0.6,0.6,0.8,1.5,0.8,2.6v4.6h-1.3v-4.5c0-1.7-0.7-2.5-2-2.5c-0.7,0-1.2,0.2-1.7,0.7c-0.4,0.5-0.7,1.2-0.7,2.1v4.1L80.6,144.9
			L80.6,144.9z"/>
		<path class="st1" d="M92.9,142.4c-0.4,0-0.9-0.1-1.2-0.2l-0.8,0.8c0.1,0.1,0.3,0.2,0.4,0.2s0.4,0.1,0.8,0.2s0.8,0.1,1.4,0.1
			c1.1,0.1,1.8,0.3,2.3,0.7c0.5,0.4,0.7,1,0.7,1.6c0,0.5-0.1,0.9-0.4,1.3c-0.2,0.4-0.6,0.8-1.1,1c-0.5,0.3-1.2,0.4-2,0.4
			c-0.7,0-1.3-0.1-1.9-0.3c-0.6-0.2-1-0.5-1.3-0.8s-0.5-0.9-0.5-1.4c0-0.3,0.1-0.6,0.2-1c0.2-0.3,0.5-0.7,0.9-1
			c-0.2-0.1-0.4-0.2-0.6-0.3c-0.2-0.1-0.3-0.2-0.5-0.4v-0.4l1.4-1.3c-0.6-0.5-0.9-1.2-0.9-2.1c0-0.5,0.1-1,0.4-1.4
			c0.2-0.4,0.6-0.8,1.1-1s1-0.4,1.7-0.4c0.5,0,0.9,0.1,1.2,0.2H97v1l-1.5,0.1c0.3,0.5,0.5,1,0.5,1.5s-0.1,1-0.4,1.4
			c-0.2,0.4-0.6,0.8-1.1,1C94.1,142.3,93.5,142.4,92.9,142.4z M90.5,146c0,0.5,0.2,0.9,0.7,1.2c0.4,0.3,1,0.4,1.7,0.4
			s1.2-0.1,1.6-0.4s0.6-0.7,0.6-1.1c0-0.3-0.1-0.6-0.4-0.9s-0.8-0.4-1.5-0.4c-0.6,0-1.1-0.1-1.5-0.2c-0.4,0.2-0.7,0.5-0.9,0.8
			C90.6,145.5,90.5,145.7,90.5,146z M92.9,141.3c0.6,0,1-0.2,1.3-0.4c0.3-0.3,0.5-0.7,0.5-1.3c0-0.5-0.2-1-0.5-1.3s-0.8-0.4-1.3-0.4
			c-0.6,0-1,0.2-1.4,0.4c-0.3,0.3-0.5,0.7-0.5,1.3s0.2,1,0.5,1.3C91.8,141.2,92.3,141.3,92.9,141.3z"/>
		<path class="st1" d="M102.8,144.9v-11.5h1.3v4.9c0.3-0.5,0.7-0.9,1.1-1.1c0.5-0.3,1-0.4,1.6-0.4c0.9,0,1.7,0.3,2.2,0.9
			c0.6,0.6,0.8,1.5,0.8,2.6v4.6h-1.3v-4.5c0-1.6-0.7-2.5-2-2.5c-0.7,0-1.3,0.2-1.7,0.7c-0.5,0.5-0.7,1.2-0.7,2.1v4.1L102.8,144.9
			L102.8,144.9z"/>
		<path class="st1" d="M114.6,145.1c-0.7,0-1.2-0.1-1.6-0.3c-0.4-0.2-0.8-0.5-1-0.9s-0.3-0.8-0.3-1.2c0-0.8,0.3-1.4,0.9-1.9
			c0.6-0.4,1.5-0.7,2.5-0.7h2.1V140c0-0.7-0.2-1.2-0.5-1.6s-0.8-0.5-1.5-0.5c-0.5,0-1,0.1-1.4,0.4s-0.6,0.6-0.7,1.1h-1.4
			c0.1-0.6,0.2-1.1,0.6-1.5c0.3-0.4,0.8-0.7,1.3-0.9s1-0.3,1.6-0.3c1.1,0,1.9,0.3,2.5,0.9s0.8,1.4,0.8,2.4v4.9h-1.2l-0.1-1.4
			c-0.2,0.5-0.6,0.8-1,1.1C115.9,145,115.3,145.1,114.6,145.1z M114.8,144c0.5,0,0.9-0.1,1.3-0.4s0.7-0.6,0.8-1
			c0.2-0.4,0.3-0.9,0.3-1.3l0,0h-2c-0.8,0-1.4,0.1-1.7,0.4c-0.3,0.3-0.5,0.6-0.5,1s0.2,0.8,0.5,1C113.8,143.9,114.2,144,114.8,144z"
			/>
		<path class="st1" d="M120.6,144.9V137h1.2l0.1,1.5c0.2-0.5,0.6-0.9,1.1-1.2s1.1-0.5,1.9-0.5v1.4h-0.4c-0.5,0-0.9,0.1-1.3,0.2
			c-0.4,0.2-0.7,0.5-0.9,0.8s-0.4,0.9-0.4,1.6v4L120.6,144.9L120.6,144.9z"/>
		<path class="st1" d="M129.7,145.1c-0.8,0-1.5-0.2-2.1-0.5c-0.6-0.4-1.1-0.9-1.4-1.5s-0.5-1.3-0.5-2.1s0.2-1.5,0.5-2.1
			s0.8-1.1,1.4-1.5c0.6-0.4,1.3-0.5,2.1-0.5c0.7,0,1.2,0.1,1.7,0.4s0.9,0.6,1.2,1.1v-4.9h1.3V145h-1.2l-0.1-1.3
			c-0.3,0.4-0.6,0.7-1.1,1C131,145,130.4,145.1,129.7,145.1z M129.8,144c0.5,0,1-0.1,1.4-0.4c0.4-0.2,0.7-0.6,1-1
			c0.2-0.5,0.3-1,0.3-1.6s-0.1-1.1-0.3-1.6s-0.6-0.8-1-1s-0.9-0.4-1.4-0.4s-1,0.1-1.4,0.4s-0.7,0.6-1,1c-0.2,0.5-0.3,1-0.3,1.6
			s0.1,1.1,0.3,1.6c0.2,0.4,0.5,0.8,1,1C128.9,143.8,129.3,144,129.8,144z"/>
		<path class="st1" d="M139.7,145.1c-0.8,0-1.4-0.2-2-0.5s-1.1-0.8-1.4-1.4c-0.3-0.6-0.5-1.4-0.5-2.2c0-0.8,0.2-1.6,0.5-2.2
			s0.8-1.1,1.4-1.5c0.6-0.4,1.3-0.5,2.1-0.5s1.4,0.2,2,0.5s1,0.8,1.3,1.4s0.5,1.2,0.5,1.8c0,0.1,0,0.2,0,0.3c0,0.1,0,0.2,0,0.4h-6.3
			c0,0.6,0.2,1.1,0.4,1.5s0.6,0.7,0.9,0.9c0.4,0.2,0.8,0.3,1.2,0.3c0.6,0,1-0.1,1.4-0.4s0.6-0.6,0.8-1h1.3c-0.2,0.7-0.6,1.4-1.2,1.8
			C141.4,144.9,140.7,145.1,139.7,145.1z M139.7,137.9c-0.6,0-1.2,0.2-1.7,0.6s-0.8,1-0.9,1.7h5c0-0.7-0.3-1.3-0.7-1.7
			C141,138.1,140.4,137.9,139.7,137.9z"/>
		<path class="st1" d="M145.3,144.9V137h1.2l0.1,1.5c0.2-0.5,0.6-0.9,1.1-1.2s1.1-0.5,1.9-0.5v1.4h-0.4c-0.5,0-0.9,0.1-1.3,0.2
			c-0.4,0.2-0.7,0.5-0.9,0.8c-0.2,0.4-0.4,0.9-0.4,1.6v4L145.3,144.9L145.3,144.9z"/>
		<path class="st1" d="M150.6,147.3v-0.1c1-1,1.8-2.1,2.4-3.4c0.6-1.3,0.9-2.7,0.9-4.2s-0.3-2.9-0.9-4.1c-0.6-1.3-1.4-2.4-2.3-3.4
			V132h1.4c0.6,0.5,1.1,1.2,1.6,2s0.9,1.6,1.2,2.6s0.4,2,0.4,3.1s-0.2,2.1-0.4,3.1c-0.3,0.9-0.7,1.8-1.2,2.6c-0.5,0.8-1,1.4-1.6,2
			L150.6,147.3L150.6,147.3z"/>
		<path class="st1" d="M155.9,146.8l0.9-3.5h1.4l-1.4,3.5H155.9z"/>
		<path class="st1" d="M40.1,166.9c-0.7,0-1.3-0.2-1.7-0.5c-0.4-0.4-0.6-1-0.6-1.9v-4.4h-1.4V159h1.4l0.2-1.9h1.2v1.9h2.3v1.1h-2.3
			v4.4c0,0.5,0.1,0.8,0.3,1s0.6,0.3,1.1,0.3h0.8v1.2L40.1,166.9L40.1,166.9z"/>
		<path class="st1" d="M43.1,166.9V159h1.2l0.1,1.5c0.2-0.5,0.6-0.9,1.1-1.2s1.1-0.5,1.9-0.5v1.4H47c-0.5,0-0.9,0.1-1.3,0.2
			c-0.4,0.2-0.7,0.5-0.9,0.8c-0.2,0.4-0.4,0.9-0.4,1.6v4L43.1,166.9L43.1,166.9z"/>
		<path class="st1" d="M49.8,170.5l2-4.3h-0.5l-3.2-7.2h1.5l2.6,6.2L55,159h1.4l-5.2,11.5H49.8L49.8,170.5z"/>
		<path class="st1" d="M58.6,157.2c-0.3,0-0.5-0.1-0.7-0.3c-0.2-0.2-0.3-0.4-0.3-0.7s0.1-0.5,0.3-0.6c0.2-0.2,0.4-0.3,0.7-0.3
			s0.5,0.1,0.7,0.3c0.2,0.2,0.3,0.4,0.3,0.6c0,0.3-0.1,0.5-0.3,0.7C59.1,157.2,58.9,157.2,58.6,157.2z M58,166.9V159h1.3v7.9H58
			L58,166.9z"/>
		<path class="st1" d="M61.7,166.9V159h1.2l0.1,1.4c0.3-0.5,0.6-0.9,1.1-1.2c0.5-0.3,1-0.4,1.6-0.4c0.9,0,1.7,0.3,2.2,0.9
			c0.6,0.6,0.8,1.5,0.8,2.6v4.6h-1.3v-4.5c0-1.7-0.7-2.5-2.1-2.5c-0.7,0-1.2,0.2-1.7,0.7s-0.7,1.2-0.7,2.1v4.1L61.7,166.9
			L61.7,166.9z"/>
		<path class="st1" d="M73.9,164.4c-0.4,0-0.9-0.1-1.2-0.2l-0.8,0.8c0.1,0.1,0.3,0.2,0.4,0.2s0.4,0.1,0.8,0.2c0.3,0,0.8,0.1,1.4,0.1
			c1.1,0.1,1.8,0.3,2.3,0.7c0.5,0.4,0.7,1,0.7,1.6c0,0.5-0.1,0.9-0.4,1.3c-0.2,0.4-0.6,0.8-1.2,1c-0.5,0.3-1.2,0.4-2,0.4
			c-0.7,0-1.3-0.1-1.9-0.3s-1-0.5-1.3-0.8c-0.3-0.4-0.5-0.9-0.5-1.4c0-0.3,0.1-0.6,0.2-1c0.2-0.3,0.5-0.7,0.9-1
			c-0.2-0.1-0.4-0.2-0.6-0.3s-0.3-0.2-0.5-0.4v-0.4l1.4-1.3c-0.6-0.5-0.9-1.2-0.9-2.1c0-0.5,0.1-1,0.4-1.4c0.2-0.4,0.6-0.8,1.1-1
			s1-0.4,1.7-0.4c0.5,0,0.9,0.1,1.2,0.2H78v1l-1.5,0.1c0.3,0.5,0.5,1,0.5,1.5s-0.1,1-0.4,1.4c-0.2,0.4-0.6,0.8-1.1,1
			C75.2,164.3,74.6,164.4,73.9,164.4z M71.6,168c0,0.5,0.2,0.9,0.7,1.2c0.5,0.3,1,0.4,1.7,0.4s1.2-0.1,1.6-0.4s0.6-0.7,0.6-1.1
			c0-0.3-0.1-0.6-0.4-0.9c-0.3-0.2-0.8-0.4-1.5-0.4c-0.6,0-1.1-0.1-1.5-0.2c-0.4,0.2-0.7,0.5-0.9,0.8
			C71.7,167.5,71.6,167.7,71.6,168z M73.9,163.3c0.6,0,1-0.2,1.4-0.4c0.3-0.3,0.5-0.7,0.5-1.3c0-0.5-0.2-1-0.5-1.3s-0.8-0.4-1.4-0.4
			s-1,0.2-1.4,0.4c-0.3,0.3-0.5,0.7-0.5,1.3s0.2,1,0.5,1.3C72.9,163.2,73.4,163.3,73.9,163.3z"/>
		<path class="st1" d="M86.8,167.1c-0.9,0-1.7-0.3-2.2-0.9c-0.6-0.6-0.8-1.5-0.8-2.6V159H85v4.5c0,1.7,0.7,2.5,2,2.5
			c0.7,0,1.3-0.2,1.7-0.7c0.4-0.5,0.7-1.2,0.7-2.1V159h1.3v7.9h-1.2l-0.1-1.4c-0.2,0.5-0.6,0.9-1.1,1.2
			C87.9,167,87.4,167.1,86.8,167.1z"/>
		<path class="st1" d="M96.1,167.1c-1,0-1.7-0.2-2.4-0.7c-0.6-0.5-1-1.1-1.1-2H94c0.1,0.4,0.3,0.8,0.7,1.1c0.4,0.3,0.8,0.5,1.4,0.5
			s1-0.1,1.2-0.4c0.3-0.2,0.4-0.5,0.4-0.9c0-0.5-0.2-0.8-0.5-1c-0.4-0.2-0.8-0.3-1.5-0.4c-0.4-0.1-0.8-0.2-1.3-0.4
			c-0.4-0.2-0.8-0.4-1.1-0.7c-0.3-0.3-0.4-0.7-0.4-1.2c0-0.7,0.3-1.3,0.8-1.7c0.5-0.4,1.2-0.7,2.1-0.7c0.8,0,1.5,0.2,2.1,0.6
			s0.8,1,0.9,1.8h-1.3c-0.1-0.4-0.2-0.7-0.5-1c-0.3-0.2-0.7-0.3-1.2-0.3s-0.8,0.1-1.1,0.3c-0.3,0.2-0.4,0.5-0.4,0.8s0.2,0.6,0.5,0.8
			s0.8,0.3,1.4,0.5c0.5,0.1,1,0.2,1.4,0.4c0.4,0.1,0.8,0.4,1.1,0.7c0.3,0.3,0.4,0.7,0.4,1.3c0,0.7-0.3,1.3-0.8,1.8
			C97.8,166.9,97,167.1,96.1,167.1z"/>
		<path class="st1" d="M104.6,167.1c-0.8,0-1.4-0.2-2-0.5s-1.1-0.8-1.4-1.4s-0.5-1.4-0.5-2.2c0-0.8,0.2-1.6,0.5-2.2s0.8-1.1,1.4-1.5
			s1.3-0.5,2.1-0.5c0.8,0,1.4,0.2,2,0.5s1,0.8,1.3,1.4s0.5,1.2,0.5,1.8c0,0.1,0,0.2,0,0.3s0,0.2,0,0.4H102c0,0.6,0.2,1.1,0.4,1.5
			c0.2,0.4,0.6,0.7,0.9,0.9c0.4,0.2,0.8,0.3,1.2,0.3c0.6,0,1-0.1,1.4-0.4s0.7-0.6,0.8-1h1.3c-0.2,0.7-0.6,1.4-1.2,1.8
			C106.3,166.9,105.5,167.1,104.6,167.1z M104.6,159.9c-0.6,0-1.2,0.2-1.7,0.6s-0.8,1-0.9,1.7h5c0-0.7-0.3-1.3-0.7-1.7
			C105.8,160.1,105.3,159.9,104.6,159.9z"/>
		<path class="st2" d="M41,183c0.3-0.1,0.8-0.1,1.3-0.1c1.5,0,2.5,0.2,2.9,0.5c0.3,0.2,0.4,0.6,0.4,0.9s-0.1,0.7-0.4,0.9
			s-0.6,0.4-1.1,0.4c-0.4,0-0.7,0.1-0.8,0.3c-0.1,0.2-0.2,0.7-0.2,1.5c0,0.2,0,0.9,0.1,2.1c0.1,1.4,0.1,2.3,0.2,2.7
			c0.1,0.4,0.2,0.6,0.3,0.7c0,0,0.2,0,0.5,0s0.6,0,0.8,0c0.7,0,1.2,0.2,1.5,0.5c0.2,0.2,0.3,0.4,0.3,0.6c0,0.4-0.6,0.8-1.8,1.3
			c-0.7,0.2-1.1,0.4-1.3,0.6c-0.1,0.1-0.2,0.4-0.3,0.9c-0.1,0.4-0.1,0.8-0.1,1.2c0,1.4,0.1,2.5,0.4,3.1c0.1,0.3,0.2,0.5,0.4,0.5
			c0.1,0.1,0.4,0.1,0.9,0.1c0.6,0,1.1,0.1,1.5,0.4s0.6,0.6,0.6,1c0,0.2-0.2,0.6-0.6,1c-0.7,0.6-1.8,1-3.4,1c-1.6,0-2.7-0.3-3.2-1
			c-0.3-0.4-0.5-2.8-0.5-7.2c-0.1-5.5-0.1-8.8-0.2-9.7l-0.1-3.1l0.6-0.3C40.2,183.2,40.6,183.1,41,183z"/>
		<path class="st2" d="M54.9,184.4c0.7-0.7,1.8-1.1,3.3-1.1c0.6,0,1.2,0.1,1.6,0.3c0.6,0.3,1,1.1,1.3,2.3c0.2,1.1,0.4,2.9,0.7,5.4
			s0.5,4.5,0.5,5.9c0,1.3,0.1,2.8,0.3,4.4s0.3,2.5,0.4,2.7c0,0,0,0.1,0,0.2c0,0.2-0.1,0.6-0.3,0.9c-0.2,0.4-0.4,0.6-0.6,0.6
			c-0.1,0-0.2,0-0.4,0c-0.4,0-0.9-0.1-1.4-0.3c-0.5-0.2-0.8-0.4-0.9-0.6c-0.1-0.2-0.2-1-0.4-2.3s-0.2-2.4-0.2-3.2
			c0-0.8-0.1-1.2-0.2-1.3c-0.1-0.1-0.8-0.1-1.9-0.1c-1,0-1.4,0-1.5,0.1c0,0.1,0,0.3,0,0.5c0,0.6,0,1.3,0.1,2.3
			c0.1,1.1,0.1,2,0.1,2.7v0.4c0,0.2-0.2,0.4-0.6,0.5c-0.4,0.2-0.7,0.2-1.1,0.2c-0.2,0-0.3,0-0.4,0c-0.9-0.3-1.5-0.7-1.6-1.2
			c0,0,0-0.1,0-0.2s0-0.2,0-0.3c0-1.2,0.1-3.7,0.4-7.6c0.3-3.9,0.5-6.1,0.6-6.7c0.2-0.8,0.5-1.6,1-2.6
			C54.1,185.5,54.5,184.8,54.9,184.4z M57.7,188.8c-0.2-0.8-0.4-1.2-0.6-1.2c-0.2,0-0.4,0.3-0.7,0.9c-0.5,1.1-0.9,2.7-1,4.6
			c-0.1,0.8-0.1,1.3-0.1,1.4c0,0.4,0.1,0.6,0.2,0.7c0.1,0.1,0.5,0.2,1.1,0.2c0.8,0,1.3-0.1,1.4-0.2c0.1-0.1,0.1-0.5,0.1-1.1
			C58.2,192.1,58,190.3,57.7,188.8z"/>
		<path class="st2" d="M68.5,180.7c0.5-0.2,1.2-0.2,1.9-0.2c0.8,0,1.5,0.1,1.8,0.2c0.7,0.3,1.3,0.9,1.7,1.7c0.2,0.4,0.3,1.1,0.5,2.2
			c0.1,1.1,0.2,2,0.2,2.9c0,0.4,0,0.7,0,0.8c-0.1,0.7-0.3,1.5-0.6,2.4c-0.3,0.9-0.5,1.3-0.6,1.3c-0.2,0-0.3,0.2-0.3,0.5
			s0.1,0.6,0.3,0.9c0.4,0.6,1.1,1.8,1.9,3.6c0.8,1.7,1.3,2.8,1.3,3.3c0,0.1,0,0.3,0,0.6c0,0.4-0.1,0.7-0.3,1
			c-0.2,0.3-0.5,0.5-0.8,0.5s-0.5,0-0.8,0c-0.7-0.1-1.1-0.2-1.3-0.3c-0.2-0.1-0.3-0.3-0.3-0.7c0-0.6-0.3-1.4-0.9-2.6s-1-1.7-1.3-1.7
			l0,0c-0.1,0.1-0.1,0.4-0.1,0.9c0,0.8,0.1,1.8,0.2,2.8c0.1,0.5,0.1,0.8,0.1,0.9c0,1-0.2,1.5-0.6,1.8c-0.2,0.1-0.4,0.1-0.7,0.1
			c-0.9,0-1.5-0.2-1.7-0.6c-0.1-0.2-0.2-2.1-0.3-5.7c0-1.1-0.1-2.4-0.1-3.7c0-1.3,0-2.3,0-2.9s0-1.4-0.1-2.4s-0.2-2-0.3-3.2
			c-0.1-1.3-0.2-2.1-0.2-2.4c0-0.7,0.1-1.1,0.3-1.4C67.6,181,68,180.8,68.5,180.7z M71.1,183.8c-0.1-0.2-0.2-0.3-0.5-0.3
			c-0.2,0-0.3,0.1-0.4,0.3c-0.1,0.2-0.1,0.4,0,0.5c0,0,0.1,0.9,0.2,2.7c0.1,1.8,0.2,2.7,0.3,2.8c0.1,0.1,0.2-0.1,0.4-0.3
			c0.2-0.2,0.2-0.7,0.2-1.4c0-0.5,0-1,0-1.4C71.3,185,71.3,184.1,71.1,183.8z"/>
		<path class="st2" d="M81.9,181.1c0.3-0.1,1-0.2,2.1-0.2c1.3,0,2.2,0.1,2.5,0.3c0.4,0.2,0.9,0.6,1.5,1.2c0.5,0.6,0.9,1,1.1,1.5
			c0.3,0.6,0.6,2.2,0.6,4.5c0.1,1.4,0.1,2.2,0.1,2.4c0,0.9-0.1,1.7-0.4,2.5c-0.3,0.9-0.6,1.6-1,2c-0.4,0.5-1,0.8-1.7,1l-1.2,0.4v3.4
			c0,2-0.1,3.3-0.2,3.7c-0.2,0.5-0.6,0.7-1.2,0.7s-1.1-0.2-1.5-0.5l-0.6-0.5v-3v-0.7c0-2.4-0.1-5.4-0.2-9s-0.3-5.8-0.4-6.7
			c-0.1-0.6-0.1-1.2-0.1-1.5C81,181.9,81.3,181.4,81.9,181.1z M85.6,185.1c-0.3-0.6-0.5-1-0.7-1c-0.1,0-0.1,0-0.2,0.1c0,1,0,2,0,3.2
			c0,4,0.2,6,0.5,6c0.1,0,0.3-0.3,0.6-0.8c0.2-0.5,0.3-1.1,0.3-1.8c0-0.2,0-0.8-0.1-1.9C86,186.8,85.9,185.6,85.6,185.1z"/>
		<path class="st2" d="M94.4,181.7c0.2-0.2,0.5-0.4,0.8-0.4c0.2,0,0.5,0,0.6,0c0.6,0.1,1.1,0.3,1.2,0.5c0.3,0.4,0.5,3,0.5,7.6v2.5
			v2.2c0,3.7,0,5.7,0.1,6c0.1,0.5,0.6,0.7,1.4,0.7c0.4,0,0.7,0,1,0c0.2,0,0.5,0,0.8,0c0.5,0,0.9,0.1,1.1,0.2
			c0.2,0.2,0.3,0.5,0.3,0.9c0,0.3-0.1,0.5-0.2,0.7c-0.1,0.1-0.4,0.4-0.8,0.6c-0.8,0.4-1.6,0.6-2.4,0.7c-1.2,0.1-1.8,0.1-1.9,0.1
			s-0.1,0-0.3,0c-0.3,0-0.7-0.1-1.1-0.3c-0.4-0.2-0.7-0.4-1-0.7c-0.4-0.5-0.6-2-0.6-4.3c0-0.6,0-1.7,0.1-3.3c0.1-1.5,0.1-3,0.1-4.8
			c0-4.1-0.1-6.6-0.2-7.6c-0.1-0.4-0.1-0.6-0.1-0.7C93.9,182.3,94.1,182,94.4,181.7z"/>
		<path class="st2" d="M107.2,180.4c0.3-0.2,0.8-0.4,1.3-0.4c0.6,0,1.1,0.2,1.5,0.5l0.5,0.5v5.1c0.1,6,0.2,10,0.6,12.3
			c0.1,0.5,0.2,0.7,0.2,0.7c0.3,0,0.5-0.9,0.6-2.6c0.4-3.6,0.6-7.1,0.6-10.6V185v-0.5c0-1.9,0.2-3,0.7-3.3c0.1-0.1,0.4-0.2,0.8-0.2
			c0.8,0,1.3,0.1,1.6,0.4c0.4,0.4,0.7,1.6,0.7,3.4c0,1.5-0.1,4.4-0.4,8.6c-0.2,3.5-0.6,6-1.1,7.4c-0.5,1.5-1.4,2.4-2.7,2.8
			c-0.5,0.2-0.8,0.2-1,0.2s-0.6-0.2-1.4-0.5c-1.5-0.7-2.4-1.9-2.6-3.5c-0.2-1.4-0.3-5.9-0.5-13.5c0-1.1,0-2.3,0-3.6
			c0-0.9,0-1.4,0.1-1.7C106.9,180.7,107,180.5,107.2,180.4z"/>
		<path class="st2" d="M122.5,183.9c0-0.2,0.1-0.4,0.4-0.6s0.6-0.4,1-0.5c0.4-0.2,0.6-0.3,0.7-0.4c0.1-0.2,0.3-0.2,0.5-0.2
			s0.6,0.2,1.3,0.6c0.6,0.4,1,0.8,1.1,1.2c0,0.1,0,0.2,0,0.2c0,0.3-0.4,0.6-1.2,0.9c-0.8,0.4-1.4,0.8-1.6,1.2
			c-0.4,0.8-0.6,2.9-0.6,6c0,1.1,0,1.9,0.1,2.4c0.3,3.7,0.6,5.7,0.8,6.1l0,0c0.2,0,0.4-1,0.4-3.1c0.1-1.1,0.1-1.9,0.2-2.3
			c0.1-0.5,0.1-0.9-0.2-1.2c-0.3-0.4-0.5-0.8-0.5-1.1c0-0.2,0.1-0.5,0.3-0.8c0.3-0.3,0.9-0.5,1.9-0.5c0.6,0,1.1,0,1.3,0.1
			s0.4,0.2,0.6,0.4c0.2,0.3,0.4,0.7,0.4,1.2s-0.1,1-0.2,1.6c-0.2,1-0.3,2.4-0.4,4.1c-0.1,2-0.4,3.3-0.7,3.9
			c-0.4,0.7-0.7,1.2-0.9,1.4s-0.7,0.5-1.4,0.6c-0.4,0.1-0.8,0.2-1.2,0.2c-0.5,0-1-0.2-1.6-0.7c-0.7-0.5-1.3-1.9-1.7-4
			c-0.1-0.5-0.2-0.8-0.3-1c-0.1-0.1-0.1-0.5-0.2-1.2c0-0.4-0.1-2.2-0.2-5.6l-0.2-4.6l0.6-1.9c0.4-1.2,0.7-2,0.9-2.3
			C122.4,184.3,122.5,184.1,122.5,183.9z"/>
		<path class="st2" d="M137.3,181.4c0.3-0.2,0.7-0.2,1.2-0.2c0.3,0,0.6,0,0.8,0c0.8,0.1,1.4,0.2,1.7,0.3c0.3,0.1,0.6,0.4,0.8,0.8
			c0.3,0.5,0.4,0.9,0.4,1.3c0,0.5-0.2,0.9-0.6,1.3c-0.3,0.3-0.7,0.5-1,0.5c-0.4,0-0.7-0.2-1.1-0.7c-0.2-0.4-0.5-0.5-0.8-0.5
			c-0.2,0-0.5,0.2-0.7,0.5c-0.2,0.4-0.4,0.7-0.4,1.2v0.2c0,1.5,1.2,4.4,3.5,8.5c0.4,0.7,0.8,1.9,1.1,3.7c0,0.1,0,0.3,0,0.6
			c0,1.5-0.3,2.7-1,3.6c-0.3,0.4-0.7,0.7-1.4,1c-0.6,0.3-1.2,0.4-1.7,0.4c-0.1,0-0.1,0-0.2,0s-0.1,0-0.2,0c-0.6-0.1-1.4-0.6-2.3-1.4
			c-0.9-0.9-1.4-1.5-1.4-2c0-0.2,0.1-0.5,0.5-0.8c0.3-0.3,0.6-0.5,0.9-0.5c0.1,0,0.1,0,0.3,0c0.3,0,0.8,0.5,1.5,1.3
			c0.2,0.4,0.5,0.6,0.8,0.6s0.5-0.2,0.6-0.5c0.1-0.1,0.1-0.3,0.1-0.6c0-1.6-0.7-4-2.2-7.1c-1.3-2.9-2-5.1-2-6.5
			c0-0.6,0.1-1.2,0.3-1.7c0.4-1.1,0.8-1.8,1.1-2.2C136.2,182.1,136.7,181.7,137.3,181.4z"/>
		<path class="st2" d="M41,245.6c0.3-0.1,0.8-0.1,1.3-0.1c1.5,0,2.5,0.2,2.9,0.5c0.3,0.2,0.4,0.6,0.4,0.9s-0.1,0.7-0.4,0.9
			s-0.6,0.4-1.1,0.4c-0.4,0-0.7,0.1-0.8,0.3c-0.1,0.2-0.2,0.7-0.2,1.5c0,0.2,0,0.9,0.1,2.1c0.1,1.4,0.1,2.3,0.2,2.7
			c0.1,0.4,0.2,0.6,0.3,0.6c0,0,0.2,0,0.5,0s0.6,0,0.8,0c0.7,0,1.2,0.2,1.5,0.5c0.2,0.2,0.3,0.4,0.3,0.6c0,0.4-0.6,0.9-1.8,1.3
			c-0.7,0.2-1.1,0.4-1.3,0.6c-0.1,0.1-0.2,0.4-0.3,0.9s-0.1,0.8-0.1,1.2c0,1.4,0.1,2.5,0.4,3.2c0.1,0.3,0.2,0.5,0.4,0.5
			c0.1,0.1,0.4,0.1,0.9,0.1c0.6,0,1.1,0.1,1.5,0.4s0.6,0.6,0.6,1c0,0.2-0.2,0.6-0.6,1c-0.7,0.6-1.8,1-3.4,1c-1.6,0-2.7-0.3-3.2-1
			c-0.3-0.4-0.5-2.8-0.5-7.2c-0.1-5.5-0.1-8.8-0.2-9.7l-0.1-3.1l0.6-0.3C40.2,245.8,40.6,245.7,41,245.6z"/>
		<path class="st2" d="M53.6,243.7c0.4-0.2,0.8-0.2,1.1-0.2c0.4,0,0.8,0.2,1.1,0.5c0.3,0.4,0.5,1.1,0.6,2.1c0.1,2,0.5,3.7,1.1,5.3
			c0.2,0.5,0.3,0.9,0.3,1.2c0,0.1,0,0.2,0.1,0.2c0,0.1,0.1,0.1,0.2,0c0.2-0.1,0.2-0.5,0.2-1.3s0-1.2,0.1-1.3
			c0.1-0.1,0.1-0.9,0.2-2.6c0.1-1.7,0.1-2.8,0.1-3.2c0-0.2,0.3-0.4,0.9-0.7c0.6-0.2,1.1-0.4,1.5-0.4c0.6,0,1.1,0.2,1.3,0.6
			c0.2,0.3,0.4,0.7,0.4,1s-0.1,1.8-0.4,4.4c-0.1,0.5-0.2,2-0.3,4.5c-0.1,1.9-0.5,4.1-1.2,6.7c-0.3,1.3-0.7,2.4-1,3.1
			c-0.4,0.7-0.9,1.4-1.5,2.1c-0.3,0.4-0.6,0.6-0.8,0.6s-0.3,0.1-0.5,0.5c-0.1,0.3-0.5,0.5-1,0.7s-1.1,0.3-1.7,0.3
			c-0.4,0-1-0.2-1.6-0.5s-0.9-0.6-0.9-0.8c0-0.3,0.2-0.6,0.5-1s0.7-0.7,1.2-0.9c0.8-0.4,1.5-0.9,2-1.6c0.5-0.7,1-1.7,1.4-3
			c0.5-1.5,0.7-2.4,0.7-2.8c0-0.3-0.2-0.5-0.7-0.7c-1.2-0.5-2-1.1-2.4-1.8c-0.2-0.4-0.6-2.2-1.3-5.4c-0.4-1.6-0.6-2.8-0.6-3.7
			C52.6,244.7,53,244,53.6,243.7z"/>
		<path class="st2" d="M68.8,245.6c0.3-0.1,0.8-0.1,1.3-0.1c1.5,0,2.5,0.2,2.9,0.5c0.3,0.2,0.4,0.6,0.4,0.9s-0.1,0.7-0.4,0.9
			s-0.6,0.4-1.1,0.4c-0.4,0-0.7,0.1-0.8,0.3c-0.1,0.2-0.2,0.7-0.2,1.5c0,0.2,0,0.9,0.1,2.1c0.1,1.4,0.1,2.3,0.2,2.7
			c0.1,0.4,0.2,0.6,0.3,0.6c0,0,0.2,0,0.5,0s0.6,0,0.8,0c0.7,0,1.2,0.2,1.5,0.5c0.2,0.2,0.3,0.4,0.3,0.6c0,0.4-0.6,0.9-1.8,1.3
			c-0.7,0.2-1.1,0.4-1.3,0.6s-0.2,0.4-0.3,0.9c-0.1,0.5-0.1,0.8-0.1,1.2c0,1.4,0.1,2.5,0.4,3.2c0.1,0.3,0.2,0.5,0.4,0.5
			s0.4,0.1,0.9,0.1c0.6,0,1.1,0.1,1.5,0.4c0.4,0.3,0.6,0.6,0.6,1c0,0.2-0.2,0.6-0.6,1c-0.7,0.6-1.8,1-3.4,1s-2.7-0.3-3.2-1
			c-0.3-0.4-0.5-2.8-0.5-7.2c-0.1-5.5-0.1-8.8-0.2-9.7l-0.1-3.1l0.6-0.3C68,245.8,68.4,245.7,68.8,245.6z"/>
		<path class="st2" d="M100.4,245c0.4-0.1,0.7-0.2,1-0.2c0.7,0,1.2,0.2,1.6,0.8c0.2,0.3,0.4,1.5,0.7,3.6c0.2,2.1,0.4,4.3,0.5,6.8
			c0,0.8,0.1,1.9,0.2,3.4s0.1,2.7,0.2,3.8c0,1.1,0.1,1.9,0.1,2.5c0,0.4-0.2,0.7-0.6,0.9s-0.9,0.4-1.3,0.4s-0.7-0.1-0.9-0.2l-0.5-0.4
			l-0.1-5.1c-0.2-5.8-0.4-8.7-0.8-8.7c-0.2,0-0.5,0.7-1,2.2c-0.2,0.8-0.5,1.4-0.8,1.7c-0.3,0.3-0.6,0.5-1,0.5
			c-0.3,0-0.7-0.1-1.1-0.2c-0.5-0.2-0.9-0.6-1.2-1.3c-0.3-0.7-0.5-1.1-0.5-1.2s-0.1-0.3-0.2-0.6c-0.1-0.3-0.3-0.6-0.5-0.8
			s-0.3-0.3-0.3-0.3v0.5c0,1.2,0,3,0.1,5.4l0.2,5.8l-0.5,0.9c-0.6,1-1.1,1.4-1.6,1.4c-0.3,0-0.5-0.2-0.8-0.6
			c-0.2-0.3-0.4-0.9-0.4-1.6c-0.1-0.7-0.1-2.8-0.2-6.3c-0.2-6.5-0.3-10.2-0.5-11c0-0.1,0-0.3,0-0.5c0-0.3,0.2-0.6,0.5-0.9
			s0.7-0.5,1.2-0.5s1,0.1,1.6,0.4c0.6,0.2,1,0.6,1.3,1s1,1.7,2.1,3.7c0.3,0.5,0.5,0.8,0.7,0.8c0.1,0,0.3-0.2,0.4-0.6
			c0.1-0.5,0.4-1,0.7-1.7c0.4-0.8,0.6-1.3,0.6-1.4c0-0.2,0.2-0.7,0.6-1.3C99.9,245.4,100.2,245,100.4,245z"/>
		<path class="st2" d="M112,247.1c0.7-0.7,1.8-1.1,3.3-1.1c0.6,0,1.2,0.1,1.6,0.3c0.6,0.3,1,1.1,1.3,2.4c0.2,1.1,0.4,2.9,0.7,5.4
			s0.4,4.5,0.5,5.9c0,1.3,0.1,2.8,0.3,4.4c0.1,1.6,0.3,2.5,0.4,2.7c0,0,0,0.1,0,0.2c0,0.2-0.1,0.6-0.3,0.9c-0.2,0.4-0.4,0.6-0.6,0.6
			c-0.1,0-0.2,0-0.4,0c-0.4,0-0.9-0.1-1.4-0.3s-0.8-0.4-0.9-0.6c-0.1-0.2-0.2-1-0.4-2.3s-0.2-2.4-0.2-3.2s-0.1-1.2-0.2-1.3
			s-0.8-0.1-1.9-0.1c-1,0-1.4,0-1.5,0.1c0,0.1,0,0.3,0,0.5c0,0.6,0,1.3,0.1,2.3c0.1,1.1,0.1,2,0.1,2.7v0.4c0,0.2-0.2,0.4-0.6,0.5
			c-0.4,0.2-0.7,0.2-1.1,0.2c-0.2,0-0.3,0-0.4,0c-0.9-0.3-1.5-0.7-1.6-1.2c0,0,0-0.1,0-0.2c0-0.1,0-0.2,0-0.3c0-1.2,0.1-3.7,0.4-7.6
			c0.3-3.9,0.5-6.1,0.6-6.7c0.2-0.8,0.5-1.6,1-2.6C111.2,248.1,111.6,247.4,112,247.1z M114.9,251.4c-0.2-0.8-0.4-1.2-0.6-1.2
			s-0.4,0.3-0.7,0.9c-0.5,1.1-0.9,2.7-1,4.6c-0.1,0.8-0.1,1.3-0.1,1.4c0,0.4,0.1,0.6,0.2,0.7s0.5,0.2,1.1,0.2c0.8,0,1.3-0.1,1.4-0.2
			s0.1-0.5,0.1-1.1C115.3,254.7,115.2,252.9,114.9,251.4z"/>
		<path class="st2" d="M127.6,244c0.3-0.2,0.7-0.2,1.2-0.2c0.3,0,0.6,0,0.8,0c0.8,0.1,1.4,0.2,1.7,0.3c0.3,0.1,0.6,0.4,0.8,0.8
			c0.3,0.5,0.4,0.9,0.4,1.3c0,0.5-0.2,0.9-0.6,1.3c-0.3,0.3-0.7,0.5-1,0.5c-0.4,0-0.7-0.2-1.1-0.7c-0.2-0.4-0.5-0.5-0.8-0.5
			c-0.2,0-0.5,0.2-0.7,0.5s-0.4,0.7-0.4,1.2v0.2c0,1.5,1.2,4.4,3.5,8.5c0.4,0.7,0.8,1.9,1.1,3.7c0,0.1,0,0.3,0,0.6
			c0,1.5-0.3,2.7-1,3.6c-0.3,0.4-0.7,0.7-1.4,1c-0.6,0.3-1.2,0.4-1.7,0.4c-0.1,0-0.1,0-0.2,0c-0.1,0-0.1,0-0.2,0
			c-0.6-0.1-1.4-0.6-2.3-1.5c-0.9-0.8-1.4-1.5-1.4-2c0-0.2,0.2-0.5,0.5-0.8s0.6-0.5,0.9-0.5c0.1,0,0.2,0,0.3,0
			c0.3,0,0.8,0.5,1.5,1.3c0.2,0.4,0.5,0.5,0.8,0.5s0.5-0.2,0.6-0.5c0.1-0.1,0.1-0.3,0.1-0.6c0-1.6-0.7-4-2.2-7.1
			c-1.3-2.9-2-5.1-2-6.5c0-0.6,0.1-1.2,0.3-1.7c0.4-1.1,0.8-1.8,1-2.2C126.5,244.7,127,244.3,127.6,244z"/>
		<path class="st2" d="M143.8,244.6c0.4-0.3,0.7-0.5,1-0.5c0.2,0,0.6,0.1,1,0.3c0.5,0.3,0.8,0.6,0.8,0.8c0,0.4-0.6,1.6-1.7,3.6
			c-0.3,0.5-0.6,1-0.9,1.5c-0.3,0.5-0.5,0.9-0.7,1.2c-0.2,0.3-0.3,0.6-0.5,0.9s-0.3,0.5-0.4,0.7c-0.1,0.2-0.1,0.3-0.2,0.4
			c-0.1,0.1-0.1,0.2-0.1,0.3c0,0.1,0,0.2,0,0.2c0,0.3,0.2,0.9,0.7,1.6c0.6,0.9,0.8,1.4,0.8,1.5s0.1,0.4,0.5,0.8c0.3,0.3,0.6,1,1,1.9
			c0.2,0.6,0.5,1.2,1,1.9c1.3,1.9,1.9,3.2,1.9,4s-0.6,1.2-1.7,1.2h-0.1c-0.7,0-1.2-0.1-1.4-0.3s-0.5-0.7-0.8-1.5
			c-0.2-0.6-0.5-1.2-0.9-1.9s-0.7-1.2-0.8-1.7c-0.2-0.7-0.6-1.4-1.1-2.3c-0.5-0.8-0.8-1.3-1-1.3c-0.1,0-0.2,0.3-0.2,0.9
			c0,1,0.1,2.7,0.4,5c0.1,0.7,0.1,1.3,0.1,1.6c0,0.5-0.1,0.8-0.3,1c-0.2,0.1-0.6,0.2-1.2,0.3c-0.4,0.1-0.6,0.1-0.7,0.1
			c-0.3,0-0.6-0.2-0.9-0.5c-0.3-0.4-0.5-0.9-0.5-1.5c0-0.1,0-0.3,0-0.5c0-0.3,0-0.5,0-0.7c0.1-1.1,0.1-2.5,0.1-4.2
			c0-2.4,0-4.8-0.1-7.3l-0.1-6.9l0.5-0.2c0.2-0.1,0.3-0.1,0.4-0.1c0.2,0,0.6,0.1,1,0.4l0.9,0.4l0.1,2.8c0.1,1.8,0.1,2.7,0.2,2.7
			c0.1,0,0.6-0.6,1.4-1.9c0.8-1.3,1.3-2.3,1.6-3C143,245.5,143.4,245,143.8,244.6z"/>
		<path class="st2" d="M152.8,262.2c0.3-0.3,0.6-0.5,0.9-0.5c0.1,0,0.3,0,0.6,0.1c1.1,0.2,1.7,0.7,1.7,1.3c0,0.5-0.3,1-1.1,1.4
			c-0.6,0.4-1,0.5-1.4,0.5c-0.6,0-1-0.5-1.1-1.4c0-0.2,0-0.4,0-0.6C152.4,262.8,152.5,262.5,152.8,262.2z"/>
		<path class="st3" d="M312.3,91.8V50.5c0-2.3-1.5-4.1-3.2-3.8c-1.4,0.3-2.3,2.1-2.3,4V53c0,1.8-1,3.2-2.3,3.2H209
			c-1.3,0-2.3-1.4-2.3-3.2v-2.3c0-1.9-0.9-3.7-2.3-4c-1.7-0.4-3.2,1.5-3.2,3.8v41.3H312.3z"/>
		<path class="st4" d="M312.9,87.9l0.8-3.5c0.8-3.4-1.4-6.9-4.8-7.6c-1.3-0.3-2.7-0.2-3.9,0.3l-2,0.8c-1.6,0.7-3.4,0.9-5.2,0.6
			c-28.4-4.4-57.4-3.5-85.5,2.5c-0.6,0.1-1.3-0.1-1.7-0.7l-2.9-1.1c-3.3-1.2-6.9,0.5-8.2,3.7c-0.5,1.3-0.5,2.7-0.1,4.1l0.8,2.8
			c0.4,1.4,0.5,3,0.2,4.4c-2.6,15-2.2,30.4,1.1,45.2c0.3,1.5,0.3,3.1-0.1,4.6l-0.4,1.5c-0.9,3.4,1.1,6.9,4.5,7.8
			c1.5,0.4,3,0.2,4.4-0.4c1.2-0.6,2.6-0.9,3.9-0.9c0.6,0,1.3,0,1.9,0.1c27.6,5.1,55.9,4.7,83.4-1.2c1.8-0.4,3.7-0.3,5.4,0.4l2.1,0.8
			c3.3,1.2,6.9-0.5,8.2-3.7c0.5-1.3,0.5-2.6,0.2-3.9l-0.9-3.3c-0.4-1.3-0.5-2.7-0.2-4c2.2-15,1.8-30.3-1.1-45.2
			C312.5,90.6,312.6,89.2,312.9,87.9z"/>
		<path class="st5" d="M286.1,84.2c3.9-0.5,9.9,1.2,14,2.4"/>
		<path class="st5" d="M225.2,145.6c-3.8,1-10,0-14.2-0.7"/>
		<path class="st2" d="M216.7,132h7l-0.3-6.6c-0.5-15.9,14.4-17.9,33.1-18.4c18.8-0.4,34.5,0.9,35,16.8l0.3,8.2h7l-0.3-8.4
			c-0.6-19.1-19.6-23-42.2-22.5s-40.5,5.3-39.9,24.4L216.7,132z"/>
		<path d="M305.9,137.1l-0.1-0.1c-0.5-0.5-0.7-1.2-0.4-1.8v-0.1c0.4-0.8,0-1.8-0.9-2.2l-0.2-0.1c-0.6-0.3-1.1-0.9-1.1-1.6l0,0
			c0-0.9-0.8-1.7-1.9-1.8h-0.2c-0.7-0.1-1.3-0.4-1.6-0.9c-0.4-0.5-1-0.9-1.7-0.9v-0.7h-4.3v0.8c-0.7,0.1-1.3,0.4-1.7,1
			c-0.3,0.5-0.9,0.9-1.6,1H290c-1.1,0.2-1.8,1-1.8,1.9v0.1c0,0.6-0.3,1.3-1,1.6l-0.2,0.1c-0.9,0.5-1.2,1.4-0.8,2.3l0.1,0.1
			c0.3,0.6,0.2,1.3-0.3,1.8l-0.1,0.1c-0.6,0.7-0.6,1.7,0.1,2.3l0.1,0.1c0.5,0.5,0.7,1.2,0.4,1.8v0.1c-0.4,0.8,0,1.8,0.9,2.2l0.1,0.1
			c0.6,0.3,1.1,0.9,1.1,1.6v0.1c0,0.9,0.8,1.7,1.9,1.8h0.2c0.7,0.1,1.3,0.4,1.6,0.9c0.6,0.9,1.8,1.2,2.9,0.8h0.1
			c0.6-0.2,1.2-0.3,1.8,0h0.1c0.3,0.1,0.6,0.2,0.9,0.2c0.8,0,1.5-0.4,1.9-1c0.3-0.5,0.9-0.9,1.6-1h0.2c1.1-0.2,1.8-1,1.8-1.9v-0.1
			c0-0.6,0.3-1.2,1-1.6l0.1-0.1c0.9-0.5,1.2-1.4,0.8-2.2l-0.1-0.1c-0.3-0.6-0.2-1.3,0.3-1.8l0.1-0.1
			C306.6,138.8,306.6,137.8,305.9,137.1z"/>
		<path d="M229.6,137.1l-0.1-0.1c-0.5-0.5-0.7-1.2-0.4-1.8v-0.1c0.4-0.8,0-1.8-0.9-2.2l-0.1-0.1c-0.6-0.3-1.1-0.9-1.1-1.6l0,0
			c0-0.9-0.8-1.7-1.9-1.8h-0.2c-0.7-0.1-1.3-0.4-1.6-0.9c-0.4-0.5-1-0.9-1.7-0.9v-0.7h-4.3v0.8c-0.7,0.1-1.3,0.4-1.7,1
			c-0.3,0.5-0.9,0.9-1.6,1h-0.2c-1.1,0.2-1.8,1-1.8,1.9v0.1c0,0.6-0.3,1.3-1,1.6l-0.1,0.1c-0.9,0.5-1.2,1.4-0.8,2.3l0.1,0.1
			c0.3,0.6,0.2,1.3-0.3,1.8l-0.1,0.1c-0.6,0.7-0.6,1.7,0.1,2.3l0.1,0.1c0.5,0.5,0.7,1.2,0.4,1.8v0.1c-0.4,0.8,0,1.8,0.9,2.2l0.1,0.1
			c0.6,0.3,1.1,0.9,1.1,1.6v0.1c0,0.9,0.8,1.7,1.9,1.8h0.2c0.7,0.1,1.3,0.4,1.6,0.9c0.6,0.9,1.8,1.2,2.9,0.8h0.1
			c0.6-0.2,1.2-0.3,1.8,0h0.1c0.3,0.1,0.6,0.2,0.9,0.2c0.8,0,1.5-0.4,1.9-1c0.3-0.5,0.9-0.9,1.6-1h0.2c1.1-0.2,1.8-1,1.8-1.9v-0.1
			c0-0.6,0.3-1.2,1-1.6l0.2-0.1c0.9-0.5,1.2-1.4,0.8-2.2l-0.1-0.1c-0.3-0.6-0.2-1.3,0.3-1.8l0.1-0.1
			C230.3,138.8,230.2,137.8,229.6,137.1z"/>
		<path class="st6" d="M219.9,167.3c-1.1-7.5-2.2-16.8-1.9-21.8c-5,4-13,12.1-15.9,21.8H219.9z"/>
		<path class="st7" d="M297.5,128c0,0-30.4,8.9-51.5-10.5C246,117.4,270.9,106.9,297.5,128z"/>
		<path class="st8" d="M279.5,114.5c0,0-9.6,7.6-38,6.6C241.5,121.1,249.6,103.8,279.5,114.5z"/>
		<path class="st9" d="M306,167.3c-0.1-1.8-0.2-3.9-0.5-6.2c-6.4-55.4-59-48.6-78.1-35.5c-8.9,6.1-21,19-18.8,41.7H306z"/>
		<path class="st6" d="M309,167.3c0-9.2-4.3-18.1-7.7-23c-1.4,5.7-8.4,16-12,23H309z"/>
		<path class="st8" d="M237.3,108.9c0,0,0.3,5.8,6,8.1C243.3,117.1,243.7,114.7,237.3,108.9z"/>
		<path class="st10" d="M243.3,120.3c2.8-3.2-3.3-9.1-14.2-4.7"/>
		<path class="st11" d="M226.4,115c0,0-3.6,7.4-0.3,6.7C229.4,121,228.8,114.3,226.4,115z"/>
		<path class="st11" d="M227.3,113.7c0,0-1.1,8.3,2,6.3C232.5,117.9,229.4,112,227.3,113.7z"/>
		<path class="st11" d="M227.6,113.3c0,0-7.1,3.3-4.7,5.6C225.4,121.2,229.5,114.7,227.6,113.3z"/>
		<path class="st11" d="M229.3,116.8c0,0-1.4-9.6-4.1-6.2C222.4,114,227.5,119.4,229.3,116.8z"/>
		<path class="st11" d="M227,114.4c0,0-0.3-6.5,2.7-5.1C232.6,110.7,229,115.6,227,114.4z"/>
		<path class="st11" d="M226.9,112.6c0,0,7.9-0.9,5.9,2.4C230.7,118.2,225.3,114.8,226.9,112.6z"/>
		<path class="st12" d="M229.2,115.2c0.6-1.8,0.3-3.6-0.8-4s-2.5,0.8-3.2,2.6s-0.3,3.6,0.8,4C227.2,118.2,228.6,117,229.2,115.2z"/>
		<path class="st4" d="M313.5,171.4c0,0-1.1-12.1-57-12.1s-59.8,12.1-59.8,12.1l-0.4,27.8l116.4,5.6L313.5,171.4z"/>
		<path class="st13" d="M313.5,179.9c0,0-1.1-12.1-57-12.1s-59.8,12.1-59.8,12.1l-0.2,25.1c-0.1,13.8,9.6,25.7,23.2,28.3l59.4,11.5
			c17.5,3.4,33.8-9.9,34-27.8L313.5,179.9z"/>
		<path class="st14" d="M233.8,144.8c-1.8,0-3.8-1.2-4.7-2.8c-0.5-1-0.6-1.9-0.1-2.7c1.4-2.4,5.2-0.7,5.3-0.7l-0.4,0.8
			c0,0-3.2-1.4-4.2,0.3c-0.4,0.7-0.2,1.4,0.1,1.8c0.7,1.3,2.5,2.3,4,2.3L233.8,144.8L233.8,144.8z"/>
		<path class="st14" d="M270.8,144.8v-0.9c1.5,0,3.2-1,4-2.3c0.3-0.5,0.5-1.2,0.1-1.8c-1-1.7-4.2-0.3-4.2-0.3l-0.4-0.8
			c0.2-0.1,3.9-1.7,5.3,0.7c0.5,0.8,0.5,1.8-0.1,2.7C274.6,143.6,272.6,144.8,270.8,144.8z"/>
		<path d="M249.1,154c-0.5-1.3,1.4-2.1,4.6-1.6s1.5,4-0.8,3.8C250.6,156,249.7,155.4,249.1,154z"/>
		<path class="st0" d="M253.4,154.7l-1,0.2c-0.5,0.1-0.9-0.3-1-0.8l-0.1-1.8c1-0.2,1.8,0.1,2.7,0.2l0.2,1.1
			C254.2,154.1,253.9,154.6,253.4,154.7z"/>
		<path class="st2" d="M268,135c-2.9-1.9-9.3-2.9-15.6-2.9l0,0l0,0c-6.3,0-12.7,1-15.6,2.9c-2.5,1.7-3.9,3.7-3.7,8.1
			c0.1,2.4,1.6,4.5,3.7,5.6c2.3,1.3,5.1,1,7.3-0.5c2.5-1.6,5.4-3,8.3-3.1c2.9,0.1,5.8,1.4,8.3,3.1c2.2,1.5,5,1.8,7.3,0.5
			c2.1-1.1,3.5-3.2,3.7-5.6C271.9,138.7,270.5,136.7,268,135z"/>
		<path class="st2" d="M298.5,123c-2.2-0.1-4.4-0.2-6.6-0.3c-0.1,0-0.3,0-0.4,0c0,0.4,0.1,0.8,0.1,1.2l0.3,8.2h7l-0.3-8.4
			C298.5,123.4,298.5,123.2,298.5,123z"/>
		<path class="st2" d="M223.4,123.7c-0.6,0-1.1,0-1.7,0c-1.8-0.1-3.5-0.1-5.3,0.1c0,0.6,0,1.2,0,1.8l0.3,6.4h7l-0.3-6.6
			C223.4,124.8,223.4,124.3,223.4,123.7z"/>
		<path class="st2" d="M305.9,137.1l-0.1-0.1c-0.5-0.5-0.7-1.2-0.4-1.8v-0.1c0.4-0.8,0-1.8-0.9-2.2l-0.2-0.1
			c-0.6-0.3-1.1-0.9-1.1-1.6l0,0c0-0.9-0.8-1.7-1.9-1.8h-0.2c-0.7-0.1-1.3-0.4-1.6-0.9c-0.4-0.5-1-0.9-1.7-0.9v-0.7h-4.3v0.8
			c-0.7,0.1-1.3,0.4-1.7,1c-0.3,0.5-0.9,0.9-1.6,1H290c-1.1,0.2-1.8,1-1.8,1.9v0.1c0,0.6-0.3,1.3-1,1.6l-0.2,0.1
			c-0.9,0.5-1.2,1.4-0.8,2.3l0.1,0.1c0.3,0.6,0.2,1.3-0.3,1.8l-0.1,0.1c-0.6,0.7-0.6,1.7,0.1,2.3l0.1,0.1c0.5,0.5,0.7,1.2,0.4,1.8
			v0.1c-0.4,0.8,0,1.8,0.9,2.2l0.1,0.1c0.6,0.3,1.1,0.9,1.1,1.6v0.1c0,0.9,0.8,1.7,1.9,1.8h0.2c0.7,0.1,1.3,0.4,1.6,0.9
			c0.6,0.9,1.8,1.2,2.9,0.8h0.1c0.6-0.2,1.2-0.3,1.8,0h0.1c0.3,0.1,0.6,0.2,0.9,0.2c0.8,0,1.5-0.4,1.9-1c0.3-0.5,0.9-0.9,1.6-1h0.2
			c1.1-0.2,1.8-1,1.8-1.9v-0.1c0-0.6,0.3-1.2,1-1.6l0.1-0.1c0.9-0.5,1.2-1.4,0.8-2.2l-0.1-0.1c-0.3-0.6-0.2-1.3,0.3-1.8l0.1-0.1
			C306.6,138.8,306.6,137.8,305.9,137.1z"/>
		<path class="st2" d="M223.4,128.6l-0.1-0.1c-0.4-0.6-1-0.9-1.7-0.9v-0.7h-4.3v0.8c-0.7,0.1-1.3,0.4-1.7,1c-0.3,0.5-0.9,0.9-1.6,1
			h-0.2c-1.1,0.2-1.8,1-1.8,1.9v0.1c0,0.6-0.3,1.3-1,1.6l-0.1,0.1c-0.9,0.5-1.2,1.4-0.8,2.2l0.1,0.1c0.3,0.6,0.2,1.3-0.3,1.8
			l-0.1,0.1c-0.6,0.7-0.6,1.7,0.1,2.3l0.1,0.1c0.5,0.5,0.7,1.2,0.4,1.8v0.1c-0.4,0.8,0,1.8,0.9,2.2l0.1,0.1c0.1,0.1,0.2,0.1,0.3,0.2
			C214.6,137.5,219.1,132.3,223.4,128.6z"/>
		<path class="st9" d="M225,146.8c0.7-3.6,2.1-7.1,4.2-10.1c-0.3-0.5-0.4-1-0.1-1.5v-0.1c0.4-0.8,0-1.8-0.9-2.2l-0.1-0.1
			c-0.6-0.3-1.1-0.9-1.1-1.6l0,0c0-0.9-0.8-1.7-1.9-1.8h-0.2c-0.6-0.1-1.2-0.4-1.5-0.8c-4.3,3.7-8.7,8.8-11.6,15.8
			c0.5,0.3,0.8,0.8,0.8,1.4v0.1c0,0.9,0.8,1.7,1.9,1.8h0.2c0.7,0.1,1.3,0.4,1.7,0.9c0.6,0.9,1.8,1.2,2.9,0.8h0.1
			c0.6-0.2,1.2-0.3,1.8,0h0.1c0.3,0.1,0.6,0.2,0.9,0.2c0.8,0,1.5-0.4,1.9-1c0.2-0.3,0.5-0.6,0.9-0.8
			C224.9,147.3,224.9,147.1,225,146.8z"/>
	</g>
</g>
</svg>
