<?xml version="1.0" encoding="utf-8"?>
<!-- Generator: Adobe Illustrator 25.1.0, SVG Export Plug-In . SVG Version: 6.00 Build 0)  -->
<svg version="1.1" id="Layer_1" xmlns="http://www.w3.org/2000/svg" xmlns:xlink="http://www.w3.org/1999/xlink" x="0px" y="0px"
	 viewBox="0 0 337.2 215.9" style="enable-background:new 0 0 337.2 215.9;" xml:space="preserve">
<style type="text/css">
	.st0{fill:#FFFFFF;}
	.st1{fill:#808080;}
	.st2{fill:#FF9F1A;}
	.st3{fill:#00CDDC;}
	.st4{fill:#040404;}
</style>
<g>
	<g>
		<path class="st0" d="M0.5,75.9c1.4,33.1-0.1,108.5,13,123.7c25.7,29.7,283.6,10.9,302.9,5.7c30.4-8.2,18-65.3,19.4-99.4
			c1.3-33.5,0.8-92.9-38.4-99C228.4-3.9,101,0.2,31.8,4.6C-1.7,6.8-1,40.4,0.5,75.9z"/>
		<path class="st1" d="M29.6,98.5v-7.9h1.2l0.1,1.4c0.3-0.5,0.6-0.9,1.1-1.2c0.5-0.3,1-0.4,1.6-0.4c0.9,0,1.7,0.3,2.2,0.9
			c0.6,0.6,0.8,1.4,0.8,2.6v4.6h-1.3V94c0-1.6-0.7-2.5-2-2.5c-0.7,0-1.2,0.2-1.7,0.7c-0.4,0.5-0.7,1.2-0.7,2.1v4.1h-1.3V98.5z"/>
		<path class="st1" d="M41.4,98.7c-0.7,0-1.2-0.1-1.7-0.3c-0.4-0.2-0.8-0.5-1-0.9s-0.3-0.8-0.3-1.2c0-0.8,0.3-1.4,0.9-1.9
			c0.6-0.4,1.5-0.7,2.5-0.7H44v-0.1c0-0.7-0.2-1.2-0.5-1.6s-0.9-0.5-1.5-0.5c-0.5,0-1,0.1-1.3,0.4c-0.4,0.3-0.6,0.6-0.7,1.1h-1.4
			c0-0.6,0.2-1.1,0.6-1.5c0.3-0.4,0.8-0.7,1.3-0.9c0.5-0.2,1-0.3,1.6-0.3c1.1,0,1.9,0.3,2.5,0.9s0.8,1.4,0.8,2.4v4.9h-1.2l-0.1-1.4
			c-0.2,0.4-0.5,0.8-1,1.1C42.7,98.6,42.1,98.7,41.4,98.7z M41.6,97.6c0.5,0,1-0.1,1.3-0.4s0.7-0.6,0.8-1c0.2-0.4,0.3-0.9,0.3-1.3
			l0,0h-2c-0.8,0-1.4,0.1-1.7,0.4s-0.5,0.6-0.5,1s0.1,0.8,0.5,1C40.6,97.5,41,97.6,41.6,97.6z"/>
		<path class="st1" d="M50.3,98.5c-0.7,0-1.3-0.2-1.7-0.5S48,97,48,96.1v-4.4h-1.4v-1.1H48l0.2-1.9h1.2v1.9h2.3v1.1h-2.3v4.4
			c0,0.5,0.1,0.8,0.3,1s0.6,0.3,1.1,0.3h0.8v1.1H50.3L50.3,98.5z"/>
		<path class="st1" d="M56.2,98.7c-0.9,0-1.7-0.3-2.2-0.9c-0.6-0.6-0.8-1.4-0.8-2.6v-4.6h1.3v4.5c0,1.6,0.7,2.5,2,2.5
			c0.7,0,1.3-0.2,1.7-0.7s0.7-1.2,0.7-2.1v-4.1h1.3v7.9H59v-1.5c-0.2,0.5-0.6,0.9-1.1,1.2C57.4,98.6,56.8,98.7,56.2,98.7z"/>
		<path class="st1" d="M62.5,98.5v-7.9h1.2l0.1,1.5c0.2-0.5,0.6-0.9,1.1-1.2s1.1-0.5,1.9-0.5v1.4h-0.4c-0.5,0-0.9,0.1-1.3,0.2
			c-0.4,0.2-0.7,0.4-0.9,0.8c-0.2,0.4-0.3,0.9-0.3,1.6v4L62.5,98.5L62.5,98.5z"/>
		<path class="st1" d="M70.9,98.7c-0.7,0-1.2-0.1-1.6-0.3c-0.4-0.2-0.8-0.5-1-0.9S68,96.7,68,96.3c0-0.8,0.3-1.4,0.9-1.9
			s1.5-0.7,2.5-0.7h2.1v-0.1c0-0.7-0.2-1.2-0.5-1.6c-0.4-0.4-0.8-0.5-1.5-0.5c-0.5,0-1,0.1-1.3,0.4s-0.6,0.6-0.7,1.1h-1.4
			c0-0.6,0.2-1.1,0.6-1.5c0.3-0.4,0.8-0.7,1.3-0.9s1-0.3,1.6-0.3c1.1,0,1.9,0.3,2.5,0.9s0.8,1.4,0.8,2.4v4.9h-1.2l-0.1-1.4
			c-0.2,0.4-0.6,0.8-1,1.1C72.2,98.6,71.7,98.7,70.9,98.7z M71.2,97.6c0.5,0,0.9-0.1,1.3-0.4s0.6-0.6,0.8-1c0.2-0.4,0.3-0.9,0.3-1.3
			l0,0h-2c-0.8,0-1.3,0.1-1.7,0.4c-0.3,0.3-0.5,0.6-0.5,1s0.2,0.8,0.5,1C70.2,97.5,70.6,97.6,71.2,97.6z"/>
		<path class="st1" d="M77,98.5V87h1.3v11.5H77z"/>
		<path class="st1" d="M80.5,98.5V87h1.3v11.5H80.5z"/>
		<path class="st1" d="M84.9,102.1l2-4.3h-0.5l-3.2-7.2h1.5l2.6,6.2l2.8-6.2h1.4l-5.2,11.5H84.9z"/>
		<path class="st1" d="M100.8,98.7c-0.8,0-1.5-0.2-2.1-0.5c-0.6-0.4-1.1-0.9-1.4-1.5s-0.5-1.3-0.5-2.1s0.2-1.5,0.5-2.1
			s0.8-1.1,1.4-1.5s1.3-0.5,2.1-0.5c0.7,0,1.2,0.1,1.7,0.4s0.9,0.6,1.2,1.1v-5h1.3v11.5h-1.2l-0.1-1.3c-0.3,0.4-0.6,0.7-1.1,1
			C102.1,98.6,101.5,98.7,100.8,98.7z M100.9,97.6c0.5,0,1-0.1,1.4-0.4c0.4-0.2,0.7-0.6,1-1c0.2-0.5,0.3-1,0.3-1.6s-0.1-1.1-0.3-1.6
			c-0.2-0.5-0.6-0.8-1-1.1c-0.4-0.2-0.9-0.4-1.4-0.4s-1,0.1-1.4,0.4c-0.4,0.2-0.7,0.6-1,1.1c-0.2,0.4-0.3,1-0.3,1.6s0.1,1.1,0.3,1.6
			c0.2,0.4,0.6,0.8,1,1C100,97.4,100.4,97.6,100.9,97.6z"/>
		<path class="st1" d="M107.2,98.5v-7.9h1.2l0.1,1.5c0.2-0.5,0.6-0.9,1.1-1.2s1.1-0.5,1.9-0.5v1.4h-0.4c-0.5,0-0.9,0.1-1.3,0.2
			c-0.4,0.2-0.7,0.4-0.9,0.8c-0.2,0.4-0.3,0.9-0.3,1.6v4L107.2,98.5L107.2,98.5z"/>
		<path class="st1" d="M116.4,98.7c-0.8,0-1.4-0.2-2-0.5s-1.1-0.8-1.4-1.4s-0.5-1.4-0.5-2.2c0-0.8,0.2-1.6,0.5-2.2s0.8-1.1,1.4-1.4
			s1.3-0.5,2-0.5c0.8,0,1.4,0.2,2,0.5s1.1,0.8,1.4,1.4s0.5,1.4,0.5,2.2c0,0.8-0.2,1.6-0.5,2.2c-0.4,0.6-0.8,1.1-1.4,1.4
			S117.1,98.7,116.4,98.7z M116.4,97.6c0.5,0,0.9-0.1,1.3-0.3c0.4-0.2,0.7-0.6,1-1s0.4-1,0.4-1.7s-0.1-1.2-0.4-1.7
			c-0.2-0.4-0.6-0.8-0.9-1s-0.8-0.3-1.3-0.3s-0.9,0.1-1.3,0.3s-0.7,0.6-1,1c-0.2,0.5-0.4,1-0.4,1.7s0.1,1.2,0.4,1.7s0.6,0.8,0.9,1
			C115.5,97.5,115.9,97.6,116.4,97.6z"/>
		<path class="st1" d="M122.2,102.1V90.6h1.2l0.1,1.3c0.3-0.4,0.6-0.7,1.1-1s1.1-0.5,1.8-0.5c0.8,0,1.5,0.2,2.1,0.5
			c0.6,0.4,1,0.9,1.4,1.5c0.3,0.6,0.5,1.3,0.5,2.1s-0.2,1.5-0.5,2.1s-0.8,1.1-1.4,1.5c-0.6,0.4-1.3,0.5-2.1,0.5
			c-0.6,0-1.2-0.1-1.7-0.4s-0.9-0.6-1.2-1.1v4.8L122.2,102.1L122.2,102.1z M126.3,97.6c0.5,0,1-0.1,1.4-0.4c0.4-0.2,0.7-0.6,1-1
			c0.2-0.5,0.3-1,0.3-1.6s-0.1-1.1-0.3-1.6s-0.6-0.8-1-1.1c-0.4-0.2-0.9-0.4-1.4-0.4s-1,0.1-1.4,0.4s-0.7,0.6-1,1.1
			c-0.2,0.4-0.3,1-0.3,1.6s0.1,1.1,0.3,1.6c0.2,0.4,0.6,0.8,1,1S125.8,97.6,126.3,97.6z"/>
		<path class="st1" d="M135.3,98.7c-0.9,0-1.7-0.2-2.4-0.7c-0.6-0.5-1-1.1-1.1-1.9h1.4c0.1,0.4,0.3,0.8,0.7,1.1
			c0.4,0.3,0.8,0.5,1.4,0.5c0.6,0,1-0.1,1.2-0.4c0.3-0.2,0.4-0.5,0.4-0.9c0-0.5-0.2-0.8-0.5-1c-0.4-0.2-0.8-0.3-1.5-0.4
			c-0.4-0.1-0.9-0.2-1.3-0.4c-0.4-0.2-0.8-0.4-1.1-0.7c-0.3-0.3-0.4-0.7-0.4-1.2c0-0.7,0.3-1.3,0.8-1.7s1.2-0.7,2.1-0.7
			c0.8,0,1.5,0.2,2.1,0.6c0.5,0.4,0.9,1,0.9,1.8h-1.3c-0.1-0.4-0.2-0.7-0.5-1c-0.3-0.2-0.7-0.3-1.2-0.3s-0.9,0.1-1.1,0.3
			s-0.4,0.5-0.4,0.8s0.2,0.6,0.5,0.8c0.3,0.2,0.8,0.3,1.4,0.5c0.5,0.1,1,0.2,1.4,0.4c0.4,0.2,0.8,0.4,1.1,0.7
			c0.3,0.3,0.4,0.7,0.4,1.3c0,0.7-0.3,1.3-0.8,1.8C137,98.5,136.2,98.7,135.3,98.7z"/>
		<path class="st1" d="M147.6,98.5c-0.7,0-1.3-0.2-1.7-0.5s-0.6-1-0.6-1.9v-4.4h-1.4v-1.1h1.4l0.2-1.9h1.2v1.9h2.3v1.1h-2.3v4.4
			c0,0.5,0.1,0.8,0.3,1s0.6,0.3,1.1,0.3h0.8v1.1H147.6L147.6,98.5z"/>
		<path class="st1" d="M154.1,98.7c-0.8,0-1.4-0.2-2-0.5s-1.1-0.8-1.4-1.4c-0.4-0.6-0.5-1.4-0.5-2.2c0-0.8,0.2-1.6,0.5-2.2
			c0.4-0.6,0.8-1.1,1.4-1.4c0.6-0.3,1.3-0.5,2-0.5s1.4,0.2,2,0.5s1.1,0.8,1.4,1.4c0.4,0.6,0.5,1.4,0.5,2.2c0,0.8-0.2,1.6-0.5,2.2
			c-0.4,0.6-0.8,1.1-1.4,1.4C155.5,98.6,154.8,98.7,154.1,98.7z M154.1,97.6c0.5,0,0.9-0.1,1.3-0.3c0.4-0.2,0.7-0.6,1-1
			s0.4-1,0.4-1.7s-0.1-1.2-0.4-1.7c-0.2-0.4-0.6-0.8-1-1s-0.8-0.3-1.3-0.3s-0.9,0.1-1.3,0.3s-0.7,0.6-1,1c-0.2,0.5-0.4,1-0.4,1.7
			s0.1,1.2,0.4,1.7s0.6,0.8,1,1C153.2,97.5,153.6,97.6,154.1,97.6z"/>
		<path class="st1" d="M30.4,110.8c-0.3,0-0.5-0.1-0.7-0.3c-0.2-0.2-0.3-0.4-0.3-0.7s0.1-0.5,0.3-0.6c0.2-0.2,0.4-0.3,0.7-0.3
			c0.3,0,0.5,0.1,0.7,0.3c0.2,0.2,0.3,0.4,0.3,0.6c0,0.3-0.1,0.5-0.3,0.7C30.9,110.8,30.6,110.8,30.4,110.8z M29.7,120.5v-7.9H31
			v7.9H29.7z"/>
		<path class="st1" d="M33.4,120.5v-7.9h1.2l0.1,1.4c0.3-0.5,0.6-0.9,1.1-1.2c0.5-0.3,1-0.4,1.6-0.4c0.9,0,1.7,0.3,2.2,0.9
			c0.6,0.6,0.8,1.5,0.8,2.6v4.6h-1.3V116c0-1.6-0.7-2.5-2-2.5c-0.7,0-1.2,0.2-1.7,0.7s-0.7,1.2-0.7,2.1v4.1L33.4,120.5L33.4,120.5z"
			/>
		<path class="st1" d="M43.4,110.8c-0.3,0-0.5-0.1-0.7-0.3c-0.2-0.2-0.3-0.4-0.3-0.7s0.1-0.5,0.3-0.6c0.2-0.2,0.4-0.3,0.7-0.3
			s0.5,0.1,0.7,0.3c0.2,0.2,0.3,0.4,0.3,0.6c0,0.3-0.1,0.5-0.3,0.7S43.6,110.8,43.4,110.8z M42.7,120.5v-7.9H44v7.9H42.7z"/>
		<path class="st1" d="M49.5,120.5c-0.7,0-1.3-0.2-1.7-0.5c-0.4-0.4-0.6-1-0.6-1.9v-4.4h-1.4v-1.1h1.4l0.2-1.9h1.2v1.9h2.3v1.1h-2.3
			v4.4c0,0.5,0.1,0.8,0.3,1s0.6,0.3,1.1,0.3h0.8v1.1H49.5z"/>
		<path class="st1" d="M53.4,110.8c-0.3,0-0.5-0.1-0.7-0.3c-0.2-0.2-0.3-0.4-0.3-0.7s0.1-0.5,0.3-0.6c0.2-0.2,0.4-0.3,0.7-0.3
			s0.5,0.1,0.7,0.3c0.2,0.2,0.3,0.4,0.3,0.6c0,0.3-0.1,0.5-0.3,0.7C53.8,110.8,53.6,110.8,53.4,110.8z M52.7,120.5v-7.9H54v7.9H52.7
			z"/>
		<path class="st1" d="M59,120.7c-0.7,0-1.2-0.1-1.7-0.3c-0.4-0.2-0.8-0.5-1-0.9s-0.3-0.8-0.3-1.2c0-0.8,0.3-1.4,0.9-1.9
			c0.6-0.4,1.5-0.7,2.5-0.7h2.1v-0.1c0-0.7-0.2-1.2-0.5-1.6s-0.8-0.5-1.5-0.5c-0.5,0-1,0.1-1.3,0.4c-0.4,0.3-0.6,0.6-0.7,1.1h-1.4
			c0.1-0.6,0.2-1.1,0.6-1.5c0.3-0.4,0.8-0.7,1.3-0.9c0.5-0.2,1-0.3,1.6-0.3c1.1,0,1.9,0.3,2.5,0.9s0.8,1.4,0.8,2.4v4.9h-1.2
			l-0.1-1.4c-0.2,0.4-0.5,0.8-1,1.1C60.3,120.6,59.7,120.7,59,120.7z M59.2,119.6c0.5,0,1-0.1,1.3-0.4c0.4-0.3,0.7-0.6,0.8-1
			c0.2-0.4,0.3-0.9,0.3-1.3l0,0h-2c-0.8,0-1.4,0.1-1.7,0.4s-0.5,0.6-0.5,1s0.2,0.8,0.5,1C58.2,119.5,58.7,119.6,59.2,119.6z"/>
		<path class="st1" d="M68,120.5c-0.7,0-1.3-0.2-1.7-0.5s-0.6-1-0.6-1.9v-4.4h-1.4v-1.1h1.4l0.2-1.9H67v1.9h2.3v1.1H67v4.4
			c0,0.5,0.1,0.8,0.3,1c0.2,0.2,0.6,0.3,1.1,0.3h0.8v1.1H68z"/>
		<path class="st1" d="M74.4,120.7c-0.8,0-1.4-0.2-2-0.5c-0.6-0.4-1-0.8-1.4-1.5c-0.3-0.6-0.5-1.3-0.5-2.2c0-0.8,0.2-1.6,0.5-2.2
			s0.8-1.1,1.4-1.5c0.6-0.3,1.3-0.5,2.1-0.5c0.8,0,1.4,0.2,2,0.5c0.6,0.4,1,0.8,1.3,1.4s0.4,1.2,0.4,1.8c0,0.1,0,0.2,0,0.4
			c0,0.1,0,0.2,0,0.4h-6.3c0,0.6,0.2,1.1,0.4,1.5c0.2,0.4,0.6,0.7,0.9,0.9c0.4,0.2,0.8,0.3,1.2,0.3c0.6,0,1-0.1,1.4-0.4
			s0.7-0.6,0.8-1h1.3c-0.2,0.7-0.6,1.3-1.2,1.8C76.1,120.5,75.3,120.7,74.4,120.7z M74.4,113.5c-0.6,0-1.2,0.2-1.7,0.6
			s-0.8,1-0.9,1.7h5c0-0.7-0.3-1.3-0.7-1.7C75.6,113.7,75,113.5,74.4,113.5z"/>
		<path class="st1" d="M87.2,120.7c-0.9,0-1.7-0.2-2.4-0.7c-0.6-0.5-1-1.1-1.1-1.9h1.4c0.1,0.4,0.3,0.8,0.7,1.1
			c0.4,0.3,0.8,0.5,1.5,0.5c0.6,0,1-0.1,1.2-0.4c0.3-0.2,0.4-0.5,0.4-0.9c0-0.5-0.2-0.8-0.5-1s-0.8-0.3-1.5-0.4
			c-0.4-0.1-0.8-0.2-1.3-0.4c-0.4-0.2-0.8-0.4-1.1-0.7c-0.3-0.3-0.4-0.7-0.4-1.2c0-0.7,0.3-1.3,0.8-1.7c0.5-0.4,1.2-0.7,2.1-0.7
			c0.8,0,1.5,0.2,2.1,0.6s0.8,1,0.9,1.8h-1.3c-0.1-0.4-0.2-0.7-0.5-1c-0.3-0.2-0.7-0.3-1.2-0.3s-0.9,0.1-1.1,0.3
			c-0.3,0.2-0.4,0.5-0.4,0.8s0.2,0.6,0.5,0.8c0.3,0.2,0.8,0.3,1.4,0.5c0.5,0.1,1,0.2,1.4,0.4c0.4,0.2,0.8,0.4,1.1,0.7
			c0.3,0.3,0.4,0.7,0.4,1.3c0,0.7-0.3,1.3-0.8,1.8C88.8,120.5,88.1,120.7,87.2,120.7z"/>
		<path class="st1" d="M92.1,120.5V109h1.3v11.5H92.1z"/>
		<path class="st1" d="M99.2,120.7c-0.8,0-1.4-0.2-2-0.5c-0.6-0.4-1.1-0.8-1.4-1.5c-0.3-0.6-0.5-1.3-0.5-2.2c0-0.8,0.2-1.6,0.5-2.2
			s0.8-1.1,1.4-1.5c0.6-0.3,1.3-0.5,2.1-0.5c0.8,0,1.4,0.2,2,0.5c0.6,0.4,1,0.8,1.3,1.4s0.4,1.2,0.4,1.8c0,0.1,0,0.2,0,0.4
			c0,0.1,0,0.2,0,0.4h-6.3c0,0.6,0.2,1.1,0.4,1.5c0.2,0.4,0.6,0.7,0.9,0.9c0.4,0.2,0.8,0.3,1.2,0.3c0.6,0,1-0.1,1.4-0.4
			s0.7-0.6,0.8-1h1.3c-0.2,0.7-0.6,1.3-1.2,1.8C101,120.5,100.2,120.7,99.2,120.7z M99.2,113.5c-0.6,0-1.2,0.2-1.7,0.6
			s-0.8,1-0.9,1.7h5c0-0.7-0.3-1.3-0.7-1.7C100.5,113.7,99.9,113.5,99.2,113.5z"/>
		<path class="st1" d="M108.3,120.7c-0.8,0-1.4-0.2-2-0.5c-0.6-0.4-1.1-0.8-1.4-1.5c-0.3-0.6-0.5-1.3-0.5-2.2c0-0.8,0.2-1.6,0.5-2.2
			s0.8-1.1,1.4-1.5c0.6-0.3,1.3-0.5,2.1-0.5c0.8,0,1.4,0.2,2,0.5c0.6,0.4,1,0.8,1.3,1.4s0.4,1.2,0.4,1.8c0,0.1,0,0.2,0,0.4
			c0,0.1,0,0.2,0,0.4h-6.3c0,0.6,0.2,1.1,0.4,1.5c0.2,0.4,0.6,0.7,0.9,0.9s0.8,0.3,1.2,0.3c0.6,0,1-0.1,1.4-0.4s0.6-0.6,0.8-1h1.3
			c-0.2,0.7-0.6,1.3-1.2,1.8C110.1,120.5,109.3,120.7,108.3,120.7z M108.3,113.5c-0.6,0-1.2,0.2-1.7,0.6s-0.8,1-0.9,1.7h5
			c0-0.7-0.3-1.3-0.7-1.7C109.6,113.7,109,113.5,108.3,113.5z"/>
		<path class="st1" d="M113.9,124.1v-11.4h1.2l0.1,1.3c0.3-0.4,0.6-0.7,1.1-1s1.1-0.5,1.8-0.5c0.8,0,1.5,0.2,2.1,0.5
			c0.6,0.4,1,0.9,1.4,1.5s0.5,1.3,0.5,2.1s-0.2,1.5-0.5,2.1s-0.8,1.1-1.4,1.5s-1.3,0.5-2.1,0.5c-0.6,0-1.2-0.1-1.7-0.4
			s-0.9-0.6-1.2-1.1v4.8L113.9,124.1L113.9,124.1z M118,119.6c0.5,0,1-0.1,1.4-0.4c0.4-0.2,0.7-0.6,1-1c0.2-0.5,0.4-1,0.4-1.6
			s-0.1-1.1-0.4-1.6c-0.2-0.5-0.6-0.8-1-1.1c-0.4-0.2-0.9-0.4-1.4-0.4s-1,0.1-1.4,0.4s-0.7,0.6-1,1.1c-0.2,0.4-0.3,1-0.3,1.6
			s0.1,1.1,0.3,1.6c0.2,0.4,0.6,0.8,1,1C117,119.4,117.4,119.6,118,119.6z"/>
		<path class="st1" d="M124.4,120.6c-0.3,0-0.5-0.1-0.7-0.3c-0.2-0.2-0.3-0.4-0.3-0.7c0-0.3,0.1-0.5,0.3-0.6
			c0.2-0.2,0.4-0.3,0.7-0.3c0.3,0,0.5,0.1,0.7,0.3c0.2,0.2,0.3,0.4,0.3,0.6c0,0.3-0.1,0.5-0.3,0.7
			C124.9,120.5,124.7,120.6,124.4,120.6z"/>
		<path class="st1" d="M32.5,145c-0.8,0-1.5-0.1-2.1-0.4c-0.6-0.3-1.1-0.7-1.4-1.2s-0.5-1.1-0.5-1.9h1.4c0,0.4,0.1,0.8,0.3,1.2
			c0.2,0.4,0.5,0.7,0.9,0.9s0.9,0.3,1.5,0.3c0.8,0,1.3-0.2,1.8-0.5c0.4-0.4,0.6-0.8,0.6-1.4c0-0.5-0.1-0.8-0.3-1.1s-0.5-0.5-0.8-0.7
			s-0.7-0.3-1.1-0.4c-0.4-0.1-0.9-0.3-1.3-0.4c-0.9-0.3-1.5-0.7-1.9-1.1s-0.6-1-0.6-1.7c0-0.6,0.1-1.1,0.4-1.6s0.7-0.8,1.2-1.1
			s1.2-0.4,1.9-0.4c0.7,0,1.3,0.1,1.9,0.4c0.5,0.3,0.9,0.6,1.2,1.1s0.4,1,0.5,1.6h-1.4c0-0.3-0.1-0.6-0.2-0.9
			c-0.2-0.3-0.4-0.5-0.7-0.7s-0.7-0.3-1.2-0.3c-0.6,0-1.1,0.1-1.5,0.5c-0.4,0.3-0.6,0.8-0.6,1.3s0.1,0.9,0.4,1.1
			c0.3,0.3,0.7,0.5,1.1,0.6c0.5,0.2,1.1,0.4,1.7,0.6c0.5,0.2,1,0.4,1.4,0.7s0.8,0.6,1,1s0.4,0.9,0.4,1.6c0,0.5-0.1,1-0.4,1.5
			c-0.3,0.5-0.7,0.9-1.3,1.2C34.1,144.9,33.4,145,32.5,145z"/>
		<path class="st1" d="M38.1,144.8v-11.5h1.3v11.5H38.1z"/>
		<path class="st1" d="M45.3,145c-0.8,0-1.4-0.2-2-0.5s-1-0.8-1.4-1.5c-0.3-0.6-0.5-1.3-0.5-2.2c0-0.8,0.2-1.6,0.5-2.2
			c0.3-0.6,0.8-1.1,1.4-1.5s1.3-0.5,2.1-0.5s1.4,0.2,2,0.5c0.6,0.4,1,0.8,1.3,1.4c0.3,0.6,0.5,1.2,0.5,1.8c0,0.1,0,0.2,0,0.4
			s0,0.2,0,0.4h-6.3c0,0.6,0.2,1.1,0.4,1.5s0.6,0.7,0.9,0.9c0.4,0.2,0.8,0.3,1.2,0.3c0.6,0,1-0.1,1.4-0.4c0.4-0.3,0.6-0.6,0.8-1h1.3
			c-0.2,0.7-0.6,1.3-1.2,1.8C47,144.8,46.2,145,45.3,145z M45.3,137.8c-0.6,0-1.2,0.2-1.7,0.6c-0.5,0.4-0.8,1-0.9,1.7h5
			c0-0.7-0.3-1.3-0.7-1.7C46.5,138,45.9,137.8,45.3,137.8z"/>
		<path class="st1" d="M54.4,145c-0.8,0-1.4-0.2-2-0.5c-0.6-0.4-1-0.8-1.4-1.5c-0.3-0.6-0.5-1.3-0.5-2.2c0-0.8,0.2-1.6,0.5-2.2
			s0.8-1.1,1.4-1.5c0.6-0.4,1.3-0.5,2.1-0.5s1.4,0.2,2,0.5c0.6,0.4,1,0.8,1.3,1.4c0.3,0.6,0.4,1.2,0.4,1.8c0,0.1,0,0.2,0,0.4
			c0,0.1,0,0.2,0,0.4h-6.3c0,0.6,0.2,1.1,0.4,1.5s0.6,0.7,0.9,0.9c0.4,0.2,0.8,0.3,1.2,0.3c0.5,0,1-0.1,1.4-0.4
			c0.4-0.3,0.6-0.6,0.8-1h1.3c-0.2,0.7-0.6,1.3-1.2,1.8C56.1,144.8,55.3,145,54.4,145z M54.4,137.8c-0.6,0-1.2,0.2-1.7,0.6
			c-0.5,0.4-0.8,1-0.9,1.7h5c0-0.7-0.3-1.3-0.7-1.7C55.6,138,55,137.8,54.4,137.8z"/>
		<path class="st1" d="M59.9,148.4v-11.5h1.2l0.1,1.3c0.3-0.4,0.6-0.7,1.1-1s1.1-0.5,1.8-0.5c0.8,0,1.5,0.2,2.1,0.5
			c0.6,0.4,1,0.9,1.4,1.5c0.3,0.6,0.5,1.3,0.5,2.1s-0.2,1.5-0.5,2.1s-0.8,1.1-1.4,1.5s-1.3,0.5-2.1,0.5c-0.7,0-1.2-0.1-1.7-0.4
			c-0.5-0.3-0.9-0.6-1.2-1.1v4.9L59.9,148.4L59.9,148.4z M64,143.9c0.5,0,1-0.1,1.4-0.4c0.4-0.2,0.7-0.6,1-1c0.2-0.5,0.3-1,0.3-1.6
			s-0.1-1.1-0.3-1.6c-0.2-0.5-0.6-0.8-1-1s-0.9-0.4-1.4-0.4c-0.5,0-1,0.1-1.4,0.4c-0.4,0.2-0.7,0.6-1,1c-0.2,0.5-0.3,1-0.3,1.6
			s0.1,1.1,0.3,1.6c0.2,0.4,0.6,0.8,1,1S63.5,143.9,64,143.9z"/>
		<path class="st1" d="M70.8,135.1c-0.3,0-0.5-0.1-0.7-0.3s-0.3-0.4-0.3-0.7s0.1-0.5,0.3-0.6c0.2-0.2,0.4-0.3,0.7-0.3
			c0.3,0,0.5,0.1,0.7,0.3s0.3,0.4,0.3,0.6c0,0.3-0.1,0.5-0.3,0.7C71.2,135,71,135.1,70.8,135.1z M70.1,144.8v-7.9h1.3v7.9H70.1z"/>
		<path class="st1" d="M73.8,144.8v-7.9H75l0.1,1.4c0.3-0.5,0.6-0.9,1.1-1.2s1-0.4,1.6-0.4c0.9,0,1.7,0.3,2.2,0.9
			c0.6,0.6,0.8,1.5,0.8,2.6v4.6h-1.3v-4.5c0-1.6-0.7-2.5-2-2.5c-0.7,0-1.2,0.2-1.7,0.7c-0.4,0.5-0.7,1.2-0.7,2.1v4.1L73.8,144.8
			L73.8,144.8z"/>
		<path class="st1" d="M86.1,142.3c-0.4,0-0.9-0.1-1.2-0.2l-0.8,0.8c0.1,0.1,0.3,0.2,0.4,0.2s0.4,0.1,0.8,0.2c0.3,0,0.8,0.1,1.4,0.1
			c1.1,0.1,1.8,0.3,2.3,0.7s0.7,1,0.7,1.6c0,0.5-0.1,0.9-0.4,1.3c-0.2,0.4-0.6,0.8-1.2,1c-0.5,0.3-1.2,0.4-2,0.4
			c-0.7,0-1.3-0.1-1.9-0.3s-1-0.5-1.3-0.9s-0.5-0.9-0.5-1.4c0-0.3,0.1-0.6,0.2-1c0.2-0.4,0.5-0.7,0.9-1c-0.2-0.1-0.4-0.2-0.6-0.3
			s-0.3-0.2-0.5-0.4V143l1.4-1.3c-0.6-0.5-0.9-1.2-0.9-2.1c0-0.5,0.1-1,0.4-1.4c0.2-0.4,0.6-0.8,1.1-1s1-0.4,1.7-0.4
			c0.5,0,0.9,0.1,1.2,0.2h2.9v1l-1.5,0.1c0.3,0.4,0.5,1,0.5,1.5s-0.1,1-0.4,1.4c-0.2,0.4-0.6,0.8-1.1,1
			C87.3,142.2,86.7,142.3,86.1,142.3z M83.7,145.9c0,0.5,0.2,0.9,0.7,1.2c0.4,0.3,1,0.4,1.7,0.4s1.2-0.1,1.6-0.4s0.6-0.7,0.6-1.1
			c0-0.3-0.1-0.6-0.4-0.9s-0.8-0.4-1.5-0.4c-0.6,0-1.1-0.1-1.5-0.2c-0.4,0.2-0.7,0.5-0.9,0.8C83.8,145.4,83.7,145.6,83.7,145.9z
			 M86.1,141.2c0.6,0,1-0.2,1.4-0.4c0.3-0.3,0.5-0.7,0.5-1.3c0-0.5-0.2-1-0.5-1.3s-0.8-0.4-1.4-0.4s-1,0.1-1.4,0.4
			c-0.3,0.3-0.5,0.7-0.5,1.3s0.2,1,0.5,1.3S85.5,141.2,86.1,141.2z"/>
		<path class="st1" d="M96.8,135.1c-0.3,0-0.5-0.1-0.7-0.3s-0.3-0.4-0.3-0.7s0.1-0.5,0.3-0.6c0.2-0.2,0.4-0.3,0.7-0.3
			s0.5,0.1,0.7,0.3s0.3,0.4,0.3,0.6c0,0.3-0.1,0.5-0.3,0.7C97.3,135,97.1,135.1,96.8,135.1z M96.1,144.8v-7.9h1.3v7.9H96.1z"/>
		<path class="st1" d="M99.8,144.8v-7.9h1.2l0.1,1.4c0.3-0.5,0.6-0.9,1.1-1.2s1-0.4,1.6-0.4c0.9,0,1.7,0.3,2.2,0.9
			c0.6,0.6,0.8,1.5,0.8,2.6v4.6h-1.3v-4.5c0-1.6-0.7-2.5-2-2.5c-0.7,0-1.2,0.2-1.7,0.7c-0.4,0.5-0.7,1.2-0.7,2.1v4.1L99.8,144.8
			L99.8,144.8z"/>
		<path class="st1" d="M115.9,145c-0.7,0-1.2-0.1-1.6-0.3s-0.8-0.5-1-0.9s-0.3-0.8-0.3-1.2c0-0.8,0.3-1.4,0.9-1.9
			c0.6-0.4,1.5-0.7,2.5-0.7h2.1v-0.1c0-0.7-0.2-1.2-0.5-1.6c-0.4-0.4-0.9-0.5-1.5-0.5c-0.5,0-1,0.1-1.3,0.4
			c-0.4,0.3-0.6,0.6-0.7,1.1h-1.4c0-0.6,0.2-1.1,0.6-1.5c0.3-0.4,0.8-0.7,1.3-0.9s1-0.3,1.6-0.3c1.1,0,1.9,0.3,2.5,0.9
			c0.6,0.6,0.8,1.4,0.8,2.4v4.9h-1.2l-0.1-1.4c-0.2,0.4-0.6,0.8-1,1.1C117.2,144.9,116.6,145,115.9,145z M116.1,143.9
			c0.5,0,0.9-0.1,1.3-0.4c0.4-0.3,0.6-0.6,0.8-1s0.3-0.9,0.3-1.3l0,0h-2c-0.8,0-1.3,0.1-1.7,0.4c-0.3,0.3-0.5,0.6-0.5,1
			s0.1,0.8,0.5,1C115.1,143.8,115.5,143.9,116.1,143.9z"/>
		<path class="st1" d="M129.8,145c-0.8,0-1.4-0.2-2-0.5s-1.1-0.8-1.4-1.5s-0.5-1.4-0.5-2.2s0.2-1.6,0.5-2.2c0.3-0.6,0.8-1.1,1.4-1.5
			c0.6-0.4,1.3-0.5,2-0.5c0.9,0,1.7,0.2,2.4,0.7s1.1,1.1,1.2,2H132c-0.1-0.5-0.4-0.9-0.8-1.1c-0.4-0.3-0.9-0.4-1.5-0.4
			c-0.5,0-0.9,0.1-1.3,0.3c-0.4,0.2-0.7,0.6-1,1c-0.2,0.5-0.4,1-0.4,1.7s0.1,1.2,0.4,1.7c0.2,0.5,0.6,0.8,1,1s0.8,0.3,1.3,0.3
			s1-0.1,1.5-0.4c0.4-0.3,0.7-0.7,0.8-1.2h1.4c-0.2,0.8-0.6,1.4-1.2,1.9S130.7,145,129.8,145z"/>
		<path class="st1" d="M138.8,145c-0.8,0-1.4-0.2-2-0.5s-1.1-0.8-1.4-1.5c-0.4-0.6-0.5-1.4-0.5-2.2s0.2-1.6,0.5-2.2
			c0.4-0.6,0.8-1.1,1.4-1.5c0.6-0.3,1.3-0.5,2-0.5s1.4,0.2,2,0.5s1.1,0.8,1.4,1.5c0.4,0.6,0.5,1.4,0.5,2.2s-0.2,1.6-0.5,2.2
			c-0.4,0.6-0.8,1.1-1.4,1.5C140.3,144.9,139.6,145,138.8,145z M138.8,143.9c0.5,0,0.9-0.1,1.3-0.3s0.7-0.6,1-1
			c0.2-0.4,0.4-1,0.4-1.7s-0.1-1.2-0.4-1.7c-0.2-0.4-0.6-0.8-1-1s-0.8-0.3-1.3-0.3s-0.9,0.1-1.3,0.3s-0.7,0.6-1,1
			c-0.2,0.4-0.4,1-0.4,1.7s0.1,1.2,0.4,1.7s0.6,0.8,1,1S138.4,143.9,138.8,143.9z"/>
		<path class="st1" d="M148.3,145c-0.8,0-1.4-0.2-2-0.5s-1.1-0.8-1.4-1.5c-0.4-0.6-0.5-1.4-0.5-2.2s0.2-1.6,0.5-2.2s0.8-1.1,1.4-1.5
			c0.6-0.3,1.3-0.5,2-0.5c0.8,0,1.4,0.2,2,0.5s1.1,0.8,1.4,1.5c0.4,0.6,0.5,1.4,0.5,2.2s-0.2,1.6-0.5,2.2c-0.4,0.6-0.8,1.1-1.4,1.5
			C149.7,144.9,149.1,145,148.3,145z M148.3,143.9c0.5,0,0.9-0.1,1.3-0.3c0.4-0.2,0.7-0.6,1-1c0.2-0.4,0.4-1,0.4-1.7
			s-0.1-1.2-0.4-1.7c-0.2-0.5-0.6-0.8-1-1s-0.8-0.3-1.3-0.3s-0.9,0.1-1.3,0.3c-0.4,0.2-0.7,0.6-1,1c-0.2,0.4-0.4,1-0.4,1.7
			s0.1,1.2,0.4,1.7c0.2,0.5,0.6,0.8,1,1C147.4,143.8,147.9,143.9,148.3,143.9z"/>
		<path class="st1" d="M154.2,144.8v-11.5h1.3v11.5H154.2z"/>
		<path class="st1" d="M161.3,145c-0.8,0-1.4-0.2-2-0.5s-1.1-0.8-1.4-1.5c-0.3-0.6-0.5-1.3-0.5-2.2c0-0.8,0.2-1.6,0.5-2.2
			c0.3-0.6,0.8-1.1,1.4-1.5s1.3-0.5,2.1-0.5s1.4,0.2,2,0.5s1,0.8,1.3,1.4c0.3,0.6,0.5,1.2,0.5,1.8c0,0.1,0,0.2,0,0.4
			c0,0.1,0,0.2,0,0.4h-6.3c0,0.6,0.2,1.1,0.4,1.5s0.6,0.7,0.9,0.9c0.4,0.2,0.8,0.3,1.2,0.3c0.6,0,1-0.1,1.4-0.4s0.6-0.6,0.8-1h1.3
			c-0.2,0.7-0.6,1.3-1.2,1.8C163,144.8,162.2,145,161.3,145z M161.3,137.8c-0.6,0-1.2,0.2-1.7,0.6c-0.5,0.4-0.8,1-0.9,1.7h5
			c0-0.7-0.3-1.3-0.7-1.7C162.5,138,162,137.8,161.3,137.8z"/>
		<path class="st1" d="M166.8,144.8v-7.9h1.2l0.1,1.5c0.2-0.5,0.6-0.9,1.1-1.2s1.1-0.5,1.9-0.5v1.4h-0.4c-0.5,0-0.9,0.1-1.3,0.2
			c-0.4,0.2-0.7,0.5-0.9,0.8c-0.2,0.4-0.4,0.9-0.4,1.6v4L166.8,144.8L166.8,144.8z"/>
		<path class="st1" d="M28.9,166.8v-7.9h1.2l0.1,1.5c0.2-0.5,0.6-0.9,1.1-1.2s1.1-0.5,1.9-0.5v1.4h-0.4c-0.5,0-0.9,0.1-1.3,0.2
			c-0.4,0.2-0.7,0.5-0.9,0.8c-0.2,0.4-0.3,0.9-0.3,1.6v4L28.9,166.8L28.9,166.8z"/>
		<path class="st1" d="M38,167c-0.8,0-1.4-0.2-2-0.5s-1.1-0.8-1.4-1.5c-0.4-0.6-0.5-1.4-0.5-2.2s0.2-1.6,0.5-2.2s0.8-1.1,1.4-1.5
			c0.6-0.3,1.3-0.5,2-0.5s1.4,0.2,2,0.5s1.1,0.8,1.4,1.5c0.4,0.6,0.5,1.4,0.5,2.2s-0.2,1.6-0.5,2.2c-0.4,0.6-0.8,1.1-1.4,1.5
			C39.4,166.9,38.8,167,38,167z M38,165.9c0.5,0,0.9-0.1,1.3-0.3s0.7-0.6,1-1c0.2-0.4,0.4-1,0.4-1.7s-0.1-1.2-0.4-1.7
			c-0.2-0.4-0.6-0.8-1-1s-0.8-0.3-1.3-0.3s-0.9,0.1-1.3,0.3s-0.7,0.6-1,1c-0.2,0.4-0.4,1-0.4,1.7s0.1,1.2,0.4,1.7s0.6,0.8,1,1
			S37.6,165.9,38,165.9z"/>
		<path class="st1" d="M47.5,167c-0.8,0-1.4-0.2-2-0.5s-1.1-0.8-1.4-1.5c-0.3-0.6-0.5-1.4-0.5-2.2s0.2-1.6,0.5-2.2
			c0.3-0.6,0.8-1.1,1.4-1.5s1.3-0.5,2-0.5c0.8,0,1.4,0.2,2,0.5s1.1,0.8,1.4,1.5c0.4,0.6,0.5,1.4,0.5,2.2s-0.2,1.6-0.5,2.2
			c-0.4,0.6-0.8,1.1-1.4,1.5S48.2,167,47.5,167z M47.5,165.9c0.5,0,0.9-0.1,1.3-0.3c0.4-0.2,0.7-0.6,1-1c0.2-0.4,0.4-1,0.4-1.7
			s-0.1-1.2-0.4-1.7c-0.2-0.5-0.6-0.8-0.9-1c-0.4-0.2-0.8-0.3-1.3-0.3s-0.9,0.1-1.3,0.3c-0.4,0.2-0.7,0.6-1,1
			c-0.2,0.4-0.4,1-0.4,1.7s0.1,1.2,0.4,1.7c0.2,0.5,0.6,0.8,0.9,1C46.6,165.8,47,165.9,47.5,165.9z"/>
		<path class="st1" d="M53.3,166.8v-7.9h1.2l0.1,1.1c0.3-0.4,0.6-0.8,1-1s0.9-0.3,1.4-0.3c0.6,0,1.2,0.1,1.6,0.4
			c0.4,0.3,0.8,0.7,1.1,1.2c0.3-0.5,0.7-0.9,1.1-1.1c0.5-0.3,1-0.4,1.6-0.4c1,0,1.7,0.3,2.3,0.9c0.6,0.6,0.8,1.5,0.8,2.6v4.6h-1.3
			v-4.5c0-0.8-0.2-1.4-0.5-1.9c-0.3-0.4-0.8-0.6-1.4-0.6c-0.6,0-1.2,0.2-1.6,0.7c-0.4,0.5-0.6,1.2-0.6,2.1v4.1h-1.3v-4.5
			c0-0.8-0.2-1.4-0.5-1.9c-0.3-0.4-0.8-0.6-1.4-0.6c-0.6,0-1.2,0.2-1.6,0.7c-0.4,0.5-0.6,1.2-0.6,2.1v4.1L53.3,166.8L53.3,166.8z"/>
		<path class="st1" d="M74.8,169.2c-0.6-0.5-1.1-1.2-1.6-2s-0.9-1.6-1.2-2.6c-0.3-0.9-0.4-2-0.4-3.1s0.1-2.1,0.4-3.1
			s0.7-1.8,1.2-2.6s1-1.4,1.6-2h1.4v0.1c-1,1-1.8,2.1-2.4,3.4c-0.6,1.3-0.9,2.7-0.9,4.2s0.3,2.9,0.9,4.1c0.6,1.3,1.4,2.4,2.3,3.4
			v0.1L74.8,169.2L74.8,169.2z"/>
		<path class="st1" d="M79.8,167c-0.7,0-1.2-0.1-1.6-0.3s-0.8-0.5-1-0.9s-0.3-0.8-0.3-1.2c0-0.8,0.3-1.4,0.9-1.9s1.5-0.7,2.5-0.7
			h2.1v-0.1c0-0.7-0.2-1.2-0.5-1.6c-0.4-0.4-0.8-0.5-1.5-0.5c-0.5,0-1,0.1-1.3,0.4c-0.4,0.3-0.6,0.6-0.7,1.1H77
			c0-0.6,0.2-1.1,0.6-1.5c0.3-0.4,0.8-0.7,1.3-0.9s1-0.3,1.6-0.3c1.1,0,1.9,0.3,2.5,0.9c0.6,0.6,0.8,1.4,0.8,2.4v4.9h-1.2l-0.1-1.4
			c-0.2,0.4-0.6,0.8-1,1.1C81.1,166.9,80.6,167,79.8,167z M80,165.9c0.5,0,0.9-0.1,1.3-0.4c0.4-0.3,0.6-0.6,0.8-1s0.3-0.9,0.3-1.3
			l0,0h-2c-0.8,0-1.3,0.1-1.7,0.4c-0.3,0.3-0.5,0.6-0.5,1s0.2,0.8,0.5,1C79.1,165.8,79.5,165.9,80,165.9z"/>
		<path class="st1" d="M90.1,167c-0.7,0-1.2-0.1-1.7-0.4c-0.5-0.3-0.9-0.6-1.2-1.1l-0.1,1.3h-1.2v-11.5h1.3v4.9
			c0.3-0.4,0.6-0.7,1.1-1s1.1-0.5,1.8-0.5c0.8,0,1.5,0.2,2.1,0.5c0.6,0.4,1,0.9,1.4,1.5s0.5,1.3,0.5,2.1s-0.2,1.5-0.5,2.1
			s-0.8,1.1-1.4,1.5C91.6,166.8,90.9,167,90.1,167z M89.9,165.9c0.5,0,1-0.1,1.4-0.4c0.4-0.2,0.7-0.6,1-1c0.2-0.5,0.3-1,0.3-1.6
			s-0.1-1.1-0.3-1.6s-0.6-0.8-1-1s-0.9-0.4-1.4-0.4s-1,0.1-1.4,0.4c-0.4,0.2-0.7,0.6-1,1c-0.2,0.5-0.3,1-0.3,1.6s0.1,1.1,0.3,1.6
			c0.2,0.4,0.5,0.8,1,1C88.9,165.7,89.4,165.9,89.9,165.9z"/>
		<path class="st1" d="M99.5,167c-0.8,0-1.4-0.2-2-0.5s-1.1-0.8-1.4-1.5c-0.3-0.6-0.5-1.4-0.5-2.2s0.2-1.6,0.5-2.2
			c0.4-0.6,0.8-1.1,1.4-1.5c0.6-0.3,1.3-0.5,2-0.5c0.8,0,1.4,0.2,2,0.5s1.1,0.8,1.4,1.5c0.3,0.6,0.5,1.4,0.5,2.2s-0.2,1.6-0.5,2.2
			s-0.8,1.1-1.4,1.5S100.3,167,99.5,167z M99.5,165.9c0.5,0,0.9-0.1,1.3-0.3s0.7-0.6,1-1c0.2-0.4,0.4-1,0.4-1.7s-0.1-1.2-0.4-1.7
			c-0.2-0.4-0.6-0.8-0.9-1s-0.8-0.3-1.3-0.3s-0.9,0.1-1.3,0.3s-0.7,0.6-1,1c-0.2,0.4-0.4,1-0.4,1.7s0.1,1.2,0.4,1.7s0.6,0.8,0.9,1
			C98.6,165.8,99.1,165.9,99.5,165.9z"/>
		<path class="st1" d="M108.3,167c-0.9,0-1.7-0.3-2.2-0.9c-0.5-0.6-0.8-1.5-0.8-2.6v-4.6h1.3v4.5c0,1.6,0.7,2.5,2,2.5
			c0.7,0,1.3-0.2,1.7-0.7c0.5-0.5,0.7-1.2,0.7-2.1V159h1.3v7.9h-1.2l-0.1-1.4c-0.2,0.5-0.6,0.9-1.1,1.2
			C109.4,166.9,108.9,167,108.3,167z"/>
		<path class="st1" d="M117.7,166.8c-0.7,0-1.3-0.2-1.7-0.5c-0.4-0.3-0.6-1-0.6-1.9V160H114v-1.1h1.4l0.2-1.9h1.2v1.9h2.3v1.1h-2.3
			v4.4c0,0.5,0.1,0.8,0.3,1c0.2,0.2,0.6,0.3,1.1,0.3h0.8v1.1H117.7z"/>
		<path class="st1" d="M124.9,166.8v-0.9c0.8-0.6,1.5-1.2,2.2-1.8s1.3-1.2,1.8-1.8s0.9-1.2,1.2-1.8s0.5-1.1,0.5-1.7
			c0-0.4-0.1-0.8-0.2-1.1c-0.1-0.3-0.3-0.6-0.6-0.8s-0.7-0.3-1.2-0.3s-0.9,0.1-1.2,0.3s-0.6,0.5-0.7,0.9c-0.2,0.4-0.2,0.8-0.2,1.2
			h-1.3c0-0.7,0.2-1.4,0.5-1.9s0.7-0.9,1.3-1.2c0.5-0.3,1.1-0.4,1.8-0.4c1,0,1.8,0.3,2.4,0.8s0.9,1.4,0.9,2.5c0,0.7-0.2,1.3-0.5,2
			s-0.8,1.3-1.3,1.9c-0.5,0.6-1.1,1.2-1.6,1.7c-0.6,0.5-1.1,1-1.6,1.4h5.4v1.1L124.9,166.8L124.9,166.8z"/>
		<path class="st1" d="M138.4,167c-1,0-1.8-0.2-2.6-0.7c-0.7-0.5-1.3-1.2-1.7-2c-0.4-0.9-0.6-1.9-0.6-3c0-1.2,0.2-2.2,0.6-3
			c0.4-0.9,0.9-1.6,1.7-2c0.7-0.5,1.6-0.7,2.6-0.7s1.9,0.2,2.6,0.7c0.7,0.5,1.3,1.2,1.6,2c0.4,0.9,0.6,1.9,0.6,3s-0.2,2.2-0.6,3
			c-0.4,0.9-0.9,1.5-1.6,2C140.2,166.8,139.4,167,138.4,167z M138.4,165.8c0.7,0,1.2-0.2,1.8-0.5c0.5-0.4,0.9-0.9,1.2-1.6
			c0.3-0.7,0.4-1.5,0.4-2.5s-0.1-1.8-0.4-2.5c-0.3-0.7-0.7-1.2-1.2-1.6c-0.5-0.4-1.1-0.5-1.8-0.5s-1.2,0.2-1.8,0.5s-0.9,0.9-1.2,1.6
			c-0.3,0.7-0.4,1.5-0.4,2.5s0.1,1.8,0.4,2.5s0.7,1.2,1.2,1.6C137.2,165.6,137.7,165.8,138.4,165.8z"/>
		<path class="st1" d="M146.7,159.7c-0.6,0-1.1-0.2-1.5-0.6c-0.4-0.4-0.6-0.9-0.6-1.6c0-0.4,0.1-0.8,0.3-1.1s0.5-0.6,0.8-0.8
			s0.7-0.3,1.1-0.3c0.6,0,1.1,0.2,1.5,0.6c0.4,0.4,0.6,0.9,0.6,1.6c0,0.4-0.1,0.8-0.3,1.1s-0.4,0.6-0.8,0.7
			C147.4,159.6,147.1,159.7,146.7,159.7z M146.7,158.7c0.3,0,0.5-0.1,0.7-0.3s0.3-0.5,0.3-0.9s-0.1-0.7-0.3-0.9s-0.5-0.3-0.7-0.3
			c-0.3,0-0.5,0.1-0.7,0.3s-0.3,0.5-0.3,0.9s0.1,0.7,0.3,0.9C146.2,158.6,146.4,158.7,146.7,158.7z"/>
		<path class="st1" d="M155.5,167c-1.1,0-2.1-0.2-2.8-0.7c-0.8-0.5-1.4-1.2-1.8-2s-0.7-1.9-0.7-3s0.2-2.2,0.7-3s1.1-1.5,1.8-2
			c0.8-0.5,1.7-0.7,2.8-0.7c1.3,0,2.3,0.3,3.1,0.9c0.8,0.6,1.3,1.5,1.5,2.6h-1.5c-0.2-0.7-0.5-1.2-1.1-1.7s-1.2-0.6-2.1-0.6
			c-0.8,0-1.5,0.2-2.1,0.6c-0.6,0.4-1.1,0.9-1.4,1.6c-0.3,0.7-0.5,1.5-0.5,2.5s0.2,1.8,0.5,2.5s0.8,1.2,1.4,1.6
			c0.6,0.4,1.3,0.6,2.1,0.6c0.9,0,1.6-0.2,2.1-0.6c0.5-0.4,0.9-1,1.1-1.6h1.5c-0.2,1.1-0.7,1.9-1.5,2.5
			C157.8,166.7,156.8,167,155.5,167z"/>
		<path class="st1" d="M161.1,169.2V169c1-1,1.8-2.1,2.4-3.4c0.6-1.3,0.9-2.7,0.9-4.1s-0.3-2.9-0.9-4.1c-0.6-1.3-1.4-2.4-2.3-3.4
			v-0.1h1.4c0.6,0.5,1.1,1.2,1.6,2s0.9,1.6,1.2,2.6c0.3,0.9,0.4,2,0.4,3.1s-0.2,2.1-0.4,3.1c-0.3,1-0.7,1.8-1.2,2.6s-1,1.4-1.6,2
			L161.1,169.2L161.1,169.2z"/>
		<path class="st1" d="M32.5,189c-0.8,0-1.4-0.2-2-0.5c-0.6-0.4-1.1-0.8-1.4-1.5s-0.5-1.4-0.5-2.2s0.2-1.6,0.5-2.2s0.8-1.1,1.4-1.5
			s1.3-0.5,2-0.5c0.9,0,1.7,0.2,2.4,0.7s1,1.1,1.2,2h-1.4c-0.1-0.5-0.4-0.9-0.8-1.1c-0.4-0.3-0.9-0.4-1.5-0.4
			c-0.4,0-0.9,0.1-1.3,0.3s-0.7,0.6-1,1c-0.2,0.5-0.4,1-0.4,1.7s0.1,1.2,0.4,1.7s0.6,0.8,1,1s0.8,0.3,1.3,0.3c0.6,0,1-0.1,1.5-0.4
			c0.4-0.3,0.7-0.7,0.8-1.2h1.4c-0.2,0.8-0.6,1.4-1.2,1.9S33.5,189,32.5,189z"/>
		<path class="st1" d="M40.7,189c-0.7,0-1.2-0.1-1.7-0.3c-0.4-0.2-0.8-0.5-1-0.9s-0.3-0.8-0.3-1.2c0-0.8,0.3-1.4,0.9-1.9
			s1.5-0.7,2.5-0.7h2.1v-0.1c0-0.7-0.2-1.2-0.5-1.6c-0.4-0.4-0.9-0.5-1.5-0.5c-0.5,0-1,0.1-1.4,0.4c-0.4,0.3-0.6,0.6-0.7,1.1h-1.4
			c0-0.6,0.2-1.1,0.6-1.5c0.3-0.4,0.8-0.7,1.3-0.9s1-0.3,1.6-0.3c1.1,0,1.9,0.3,2.5,0.9c0.6,0.6,0.8,1.4,0.8,2.4v4.9h-1.2l-0.1-1.4
			c-0.2,0.4-0.5,0.8-1,1.1C42,188.9,41.4,189,40.7,189z M40.9,187.9c0.5,0,1-0.1,1.3-0.4c0.4-0.3,0.7-0.6,0.8-1
			c0.2-0.4,0.3-0.9,0.3-1.3l0,0h-2c-0.8,0-1.4,0.1-1.7,0.4c-0.3,0.3-0.5,0.6-0.5,1s0.1,0.8,0.5,1C39.9,187.8,40.3,187.9,40.9,187.9z
			"/>
		<path class="st1" d="M46.7,188.8v-7.9h1.2l0.1,1.4c0.3-0.5,0.6-0.9,1.1-1.2s1-0.4,1.6-0.4c0.9,0,1.7,0.3,2.2,0.9
			c0.6,0.6,0.8,1.5,0.8,2.6v4.6h-1.3v-4.5c0-1.6-0.7-2.5-2-2.5c-0.7,0-1.2,0.2-1.7,0.7c-0.4,0.5-0.7,1.2-0.7,2.1v4.1L46.7,188.8
			L46.7,188.8z"/>
		<path class="st1" d="M60.1,188.8v-11.5h1.3v4.9c0.3-0.5,0.6-0.9,1.1-1.1c0.5-0.3,1-0.4,1.6-0.4c0.9,0,1.7,0.3,2.2,0.9
			c0.6,0.6,0.8,1.5,0.8,2.6v4.6h-1.3v-4.5c0-1.6-0.7-2.5-2-2.5c-0.7,0-1.3,0.2-1.7,0.7c-0.5,0.5-0.7,1.2-0.7,2.1v4.1L60.1,188.8
			L60.1,188.8z"/>
		<path class="st1" d="M72.8,189c-0.8,0-1.4-0.2-2-0.5c-0.6-0.4-1-0.8-1.4-1.5c-0.3-0.6-0.5-1.3-0.5-2.2c0-0.8,0.2-1.6,0.5-2.2
			s0.8-1.1,1.4-1.5s1.3-0.5,2.1-0.5c0.8,0,1.4,0.2,2,0.5s1,0.8,1.3,1.4s0.4,1.2,0.4,1.8c0,0.1,0,0.2,0,0.4c0,0.1,0,0.2,0,0.4h-6.3
			c0,0.6,0.2,1.1,0.4,1.5c0.2,0.4,0.6,0.7,0.9,0.9c0.4,0.2,0.8,0.3,1.2,0.3c0.5,0,1-0.1,1.4-0.4c0.4-0.3,0.6-0.6,0.8-1h1.3
			c-0.2,0.7-0.6,1.3-1.2,1.8C74.5,188.8,73.7,189,72.8,189z M72.8,181.8c-0.6,0-1.2,0.2-1.7,0.6c-0.5,0.4-0.8,1-0.9,1.7h5
			c0-0.7-0.3-1.3-0.7-1.7C74,182,73.5,181.8,72.8,181.8z"/>
		<path class="st1" d="M78.3,188.8v-11.5h1.3v11.5H78.3z"/>
		<path class="st1" d="M81.9,192.4v-11.5h1.2l0.1,1.3c0.3-0.4,0.6-0.7,1.1-1s1.1-0.5,1.8-0.5c0.8,0,1.5,0.2,2.1,0.5
			c0.6,0.4,1,0.9,1.4,1.5c0.3,0.6,0.5,1.3,0.5,2.1s-0.2,1.5-0.5,2.1s-0.8,1.1-1.4,1.5s-1.3,0.5-2.1,0.5c-0.7,0-1.2-0.1-1.7-0.4
			c-0.5-0.3-0.9-0.6-1.2-1.1v4.9L81.9,192.4L81.9,192.4z M86,187.9c0.5,0,1-0.1,1.4-0.4c0.4-0.2,0.7-0.6,1-1c0.2-0.5,0.4-1,0.4-1.6
			s-0.1-1.1-0.4-1.6c-0.2-0.5-0.5-0.8-1-1c-0.4-0.2-0.9-0.4-1.4-0.4s-1,0.1-1.4,0.4c-0.4,0.2-0.7,0.6-1,1c-0.2,0.5-0.3,1-0.3,1.6
			s0.1,1.1,0.3,1.6c0.2,0.4,0.6,0.8,1,1S85.4,187.9,86,187.9z"/>
		<path class="st1" d="M97.8,188.8l-2.3-7.9h1.3l1.7,6.2l1.9-6.2h1.5l1.9,6.2l1.7-6.2h1.4l-2.3,7.9H103l-1.9-6.5l-2,6.5H97.8z"/>
		<path class="st1" d="M109,179.1c-0.3,0-0.5-0.1-0.7-0.3s-0.3-0.4-0.3-0.7s0.1-0.5,0.3-0.6c0.2-0.2,0.4-0.3,0.7-0.3
			c0.3,0,0.5,0.1,0.7,0.3s0.3,0.4,0.3,0.6c0,0.3-0.1,0.5-0.3,0.7C109.5,179,109.3,179.1,109,179.1z M108.4,188.8v-7.9h1.3v7.9H108.4
			z"/>
		<path class="st1" d="M115.2,188.8c-0.7,0-1.3-0.2-1.7-0.5c-0.4-0.3-0.6-1-0.6-1.9V182h-1.4v-1.1h1.4l0.2-1.9h1.2v1.9h2.3v1.1h-2.3
			v4.4c0,0.5,0.1,0.8,0.3,1c0.2,0.2,0.6,0.3,1.1,0.3h0.8v1.1H115.2z"/>
		<path class="st1" d="M118.2,188.8v-11.5h1.3v4.9c0.3-0.5,0.6-0.9,1.1-1.1c0.5-0.3,1-0.4,1.6-0.4c0.9,0,1.6,0.3,2.2,0.9
			c0.6,0.6,0.8,1.5,0.8,2.6v4.6H124v-4.5c0-1.6-0.7-2.5-2-2.5c-0.7,0-1.3,0.2-1.7,0.7c-0.5,0.5-0.7,1.2-0.7,2.1v4.1L118.2,188.8
			L118.2,188.8z"/>
		<path class="st1" d="M134.8,188.8c-0.7,0-1.3-0.2-1.7-0.5s-0.6-1-0.6-1.9V182h-1.4v-1.1h1.4l0.2-1.9h1.2v1.9h2.3v1.1h-2.3v4.4
			c0,0.5,0.1,0.8,0.3,1s0.6,0.3,1.1,0.3h0.8v1.1H134.8z"/>
		<path class="st1" d="M137.8,188.8v-11.5h1.3v4.9c0.3-0.5,0.6-0.9,1.1-1.1c0.5-0.3,1-0.4,1.6-0.4c0.9,0,1.7,0.3,2.2,0.9
			c0.6,0.6,0.8,1.5,0.8,2.6v4.6h-1.3v-4.5c0-1.6-0.7-2.5-2-2.5c-0.7,0-1.3,0.2-1.7,0.7c-0.5,0.5-0.7,1.2-0.7,2.1v4.1L137.8,188.8
			L137.8,188.8z"/>
		<path class="st1" d="M147.8,179.1c-0.3,0-0.5-0.1-0.7-0.3s-0.3-0.4-0.3-0.7s0.1-0.5,0.3-0.6c0.2-0.2,0.4-0.3,0.7-0.3
			s0.5,0.1,0.7,0.3s0.3,0.4,0.3,0.6c0,0.3-0.1,0.5-0.3,0.7S148,179.1,147.8,179.1z M147.1,188.8v-7.9h1.3v7.9H147.1z"/>
		<path class="st1" d="M153.8,189c-0.9,0-1.7-0.2-2.4-0.7c-0.6-0.5-1-1.1-1.1-1.9h1.4c0.1,0.4,0.3,0.8,0.7,1.1s0.8,0.5,1.4,0.5
			c0.6,0,1-0.1,1.2-0.4s0.4-0.5,0.4-0.9c0-0.5-0.2-0.8-0.5-1c-0.4-0.2-0.8-0.3-1.5-0.4c-0.4-0.1-0.9-0.2-1.3-0.4s-0.8-0.4-1.1-0.7
			s-0.4-0.7-0.4-1.2c0-0.7,0.3-1.3,0.8-1.7s1.2-0.7,2.1-0.7c0.8,0,1.5,0.2,2.1,0.6c0.5,0.4,0.9,1,0.9,1.8h-1.3
			c-0.1-0.4-0.2-0.7-0.5-1c-0.3-0.2-0.7-0.3-1.2-0.3s-0.9,0.1-1.1,0.3c-0.3,0.2-0.4,0.5-0.4,0.8s0.2,0.6,0.5,0.8s0.8,0.3,1.4,0.5
			c0.5,0.1,1,0.2,1.4,0.4s0.8,0.4,1.1,0.7s0.4,0.7,0.4,1.3c0,0.7-0.3,1.3-0.8,1.8C155.5,188.8,154.8,189,153.8,189z"/>
		<path class="st1" d="M159.3,188.9c-0.3,0-0.5-0.1-0.7-0.3s-0.3-0.4-0.3-0.6s0.1-0.5,0.3-0.6c0.2-0.2,0.4-0.3,0.7-0.3
			s0.5,0.1,0.7,0.3s0.3,0.4,0.3,0.6s-0.1,0.5-0.3,0.6C159.7,188.8,159.5,188.9,159.3,188.9z"/>
		<path class="st1" d="M31.8,44.7v-4.3l-3.6-6.9h1.5l2.8,5.7l2.8-5.7h1.5l-3.6,6.9v4.3H31.8z"/>
		<path class="st1" d="M40.4,44.9c-0.8,0-1.4-0.2-2-0.5S37.3,43.6,37,43c-0.3-0.6-0.5-1.4-0.5-2.2s0.2-1.6,0.5-2.2
			c0.4-0.6,0.8-1.1,1.4-1.4c0.6-0.3,1.3-0.5,2-0.5c0.8,0,1.4,0.2,2,0.5s1.1,0.8,1.4,1.4c0.3,0.6,0.5,1.4,0.5,2.2s-0.2,1.6-0.5,2.2
			c-0.3,0.6-0.8,1.1-1.4,1.4C41.8,44.7,41.1,44.9,40.4,44.9z M40.4,43.7c0.5,0,0.9-0.1,1.3-0.3c0.4-0.2,0.7-0.6,1-1
			c0.2-0.5,0.4-1,0.4-1.7S43,39.5,42.7,39c-0.2-0.4-0.6-0.8-0.9-1c-0.4-0.2-0.8-0.3-1.3-0.3s-0.9,0.1-1.3,0.3c-0.4,0.2-0.7,0.6-1,1
			s-0.4,1-0.4,1.7s0.1,1.2,0.4,1.7s0.6,0.8,0.9,1C39.5,43.6,39.9,43.7,40.4,43.7z"/>
		<path class="st1" d="M49.1,44.9c-0.9,0-1.7-0.3-2.2-0.9c-0.6-0.6-0.8-1.4-0.8-2.6v-4.6h1.3v4.5c0,1.6,0.7,2.5,2,2.5
			c0.7,0,1.3-0.2,1.7-0.7s0.7-1.2,0.7-2.1v-4.1h1.3v7.9H52l-0.1-1.4c-0.2,0.5-0.6,0.9-1.1,1.2C50.3,44.7,49.7,44.9,49.1,44.9z"/>
		<path class="st1" d="M55.4,44.7v-7.9h1.2l0.1,1.5c0.2-0.5,0.6-0.9,1.1-1.2s1.1-0.5,1.9-0.5V38h-0.4c-0.5,0-0.9,0.1-1.3,0.2
			c-0.4,0.2-0.7,0.4-0.9,0.8c-0.2,0.4-0.3,0.9-0.3,1.6v4h-1.4V44.7z"/>
		<path class="st2" d="M30.9,54.7c0.2-0.1,0.6-0.2,1.1-0.2c0.9,0,1.9,0.2,2.9,0.7c1,0.4,1.7,0.9,2.1,1.5c0.5,0.7,0.7,1.4,0.7,2.2
			c0,0.9-0.3,2.2-0.9,3.7l-0.5,1.1l0.7,0.7c0.5,0.5,0.9,1.1,1.3,1.8c0.3,0.7,0.5,1.4,0.5,2s0,1.2,0,1.7c-0.1,1.2-0.1,2-0.2,2.4
			c-0.1,0.4-0.3,0.9-0.6,1.6c-0.7,1.3-1.3,2.2-1.8,2.6s-1.3,0.6-2.3,0.6c-1.1,0-1.8,0-2,0l0,0c-0.4,0-0.8-0.2-1.2-0.7
			c-0.4-0.5-0.6-1-0.7-1.7c0-0.1,0-0.4,0-0.9c0-0.8,0-1.6,0.1-2.4c0.2-1.4,0.2-4.9,0.2-10.7c0-3,0-4.5-0.1-4.7c0,0,0-0.1,0-0.2
			c0-0.2,0.1-0.5,0.3-0.8C30.6,55,30.7,54.8,30.9,54.7z M35.1,66.9c-0.1-0.2-0.4-0.3-0.7-0.3s-0.5,0.1-0.7,0.4s-0.2,1.8-0.2,4.5
			c0,1.3,0,2.1,0.1,2.1h0.1c0.1,0,0.3-0.2,0.6-0.6s0.5-0.9,0.7-1.5c0.3-0.7,0.4-1.7,0.4-2.9C35.4,67.8,35.3,67.2,35.1,66.9z
			 M34.2,58.7c-0.1-0.2-0.2-0.4-0.4-0.4s-0.3,0.6-0.3,1.7c0,1,0,1.5,0.1,1.5l0,0c0.1-0.1,0.3-0.4,0.4-0.8c0.1-0.4,0.2-0.8,0.2-1
			c0-0.1,0-0.3,0-0.5C34.2,58.9,34.2,58.8,34.2,58.7z"/>
		<path class="st2" d="M44.3,55l0.8-1h5.2l0.8,0.8c0.5,0.5,0.9,1.2,1.1,2c0.2,0.8,0.4,2.1,0.6,3.8c0.1,0.6,0.1,1.6,0.1,2.8
			c0,2.9-0.3,5.4-0.8,7.8c-0.5,2.3-1.2,3.9-2.1,4.8c-0.3,0.3-0.7,0.5-1.2,0.7s-1,0.3-1.4,0.3c-0.2,0-0.3,0-0.4-0.1
			c-0.2-0.1-0.5-0.2-0.9-0.2c-0.3,0-0.6-0.2-1-0.7s-0.7-1-0.9-1.7c-0.4-1.1-0.6-2.3-0.8-3.6s-0.2-3.4-0.2-6.3v-2
			c0-2.6,0.1-4.4,0.2-5.3S43.8,55.6,44.3,55z M48.2,57c-0.2-0.5-0.5-0.8-0.6-0.8c-0.2,0-0.4,0.4-0.7,1.3c-0.2,0.7-0.3,2-0.3,3.9
			c0,1.5,0.1,3.1,0.2,4.8c0.1,1.6,0.3,3.1,0.6,4.5c0.2,1.4,0.5,2.1,0.7,2.1c0.1,0,0.3-0.3,0.4-0.9c0.1-0.5,0.3-0.9,0.5-1.3
			c0.1-0.2,0.2-1.4,0.4-3.7c0.1-1.2,0.1-2.3,0.1-3.3C49.3,60.5,48.9,58.3,48.2,57z"/>
		<path class="st2" d="M57.9,55.5c0.1,0,0.8,0,2.1,0c1.5,0,2.5,0.3,3.3,0.9c0.7,0.6,1.3,1.7,1.8,3.3c0.5,1.5,0.7,3.2,0.7,5.2
			c0,0.4,0,0.9-0.1,1.4c-0.1,0.4-0.2,1.1-0.3,1.9s-0.2,1.6-0.3,2.2c-0.1,0.7-0.2,1.1-0.4,1.4c-0.1,0.2-0.2,0.5-0.2,0.8
			c0,0.2-0.1,0.6-0.4,1.2c-0.3,0.6-0.5,1-0.7,1.3c-0.3,0.4-0.8,0.8-1.5,1.1c-0.6,0.3-1.3,0.5-1.9,0.6c-0.5,0.1-0.8,0.1-0.9,0.1
			c-0.3,0-0.7-0.1-1-0.5l-0.6-0.6v-7.1v-2.1c0-3.5,0-5.4-0.1-5.8c-0.2-1.1-0.2-2.1-0.2-2.9C57.1,56.4,57.4,55.6,57.9,55.5z
			 M61.9,60.6c-0.4-1.5-0.8-2.2-1.1-2.2l-0.1,0.1v0.1c0,0.1,0,0.1,0,0.3c0,0.1,0,0.2,0,0.4c0,0.4,0,1.2,0.1,2.4
			c0.1,1.4,0.2,3.4,0.2,5.8c0,2.3,0.1,3.5,0.3,3.5c0.1,0,0.2-0.2,0.3-0.6c0.5-1.8,0.8-3.7,0.8-5.7C62.4,63.1,62.2,61.7,61.9,60.6z"
			/>
		<path class="st2" d="M72.1,53.7c0.4-0.2,0.8-0.2,1.1-0.2c0.4,0,0.8,0.2,1.1,0.5c0.3,0.4,0.5,1.1,0.5,2.1c0.1,2,0.5,3.7,1.1,5.3
			c0.2,0.5,0.3,0.9,0.3,1.2c0,0.1,0,0.2,0.1,0.2c0,0.1,0.1,0.1,0.2,0c0.2-0.1,0.2-0.5,0.2-1.3s0-1.2,0.1-1.3s0.1-0.9,0.2-2.6
			c0.1-1.7,0.1-2.8,0.1-3.2c0-0.2,0.3-0.4,0.9-0.7c0.6-0.2,1.1-0.4,1.5-0.4c0.6,0,1.1,0.2,1.3,0.6c0.2,0.3,0.4,0.7,0.4,1.1
			c0,0.3-0.1,1.8-0.4,4.4c-0.1,0.5-0.2,2-0.3,4.5c-0.1,1.9-0.5,4.1-1.2,6.7c-0.3,1.3-0.7,2.4-1,3.1s-0.8,1.4-1.5,2.1
			c-0.3,0.4-0.6,0.6-0.8,0.6c-0.2,0-0.3,0.1-0.5,0.5c-0.1,0.3-0.5,0.5-1,0.7s-1.1,0.3-1.7,0.3c-0.5,0-1-0.2-1.6-0.5
			s-0.9-0.6-0.9-0.8c0-0.3,0.2-0.7,0.5-1c0.3-0.4,0.7-0.7,1.2-0.9c0.8-0.4,1.5-0.9,2-1.6s1-1.7,1.4-3c0.5-1.5,0.7-2.4,0.7-2.8
			c0-0.3-0.2-0.6-0.7-0.7c-1.2-0.5-2-1.1-2.4-1.8c-0.2-0.4-0.6-2.2-1.3-5.4c-0.4-1.6-0.6-2.8-0.6-3.7C71.1,54.7,71.5,54,72.1,53.7z"
			/>
		<path class="st2" d="M93.6,53.1c0.4-0.3,1-0.5,1.9-0.5h1c1.5,0.1,2.4,0.1,2.7,0.2c0.2,0.1,0.6,0.1,1.2,0.2c0.6,0,1.1,0.2,1.4,0.4
			s0.4,0.6,0.4,1.1s-0.1,0.9-0.3,1.1c-0.2,0.2-0.5,0.4-1,0.5c-0.6,0.1-0.9,0.2-1,0.3s-0.2,2.8-0.2,8c0,3.6,0,6.1,0.1,7.6
			c0.1,1.2,0.1,1.8,0.1,1.9c0,0.6-0.1,1.1-0.4,1.5c-0.3,0.6-0.8,0.8-1.4,0.8c-0.4,0-0.8-0.1-1.3-0.4L96,75.3l0.1-9.6
			c0.1-2.5,0.1-4.9,0.1-7.4c0-1.5-0.1-2.3-0.3-2.4c-0.3-0.2-0.5-0.2-0.6-0.2s-0.3,0-0.5,0c-0.5,0-0.9-0.1-1.3-0.4
			c-0.3-0.3-0.5-0.6-0.5-1C92.9,53.9,93.1,53.5,93.6,53.1z"/>
		<path class="st2" d="M108.3,55.5c0.3-0.1,0.8-0.1,1.3-0.1c1.5,0,2.5,0.2,2.9,0.5c0.3,0.2,0.4,0.6,0.4,0.9s-0.1,0.7-0.4,0.9
			s-0.6,0.4-1.1,0.4c-0.4,0-0.7,0.1-0.8,0.3c-0.1,0.2-0.2,0.7-0.2,1.5c0,0.2,0,0.9,0.1,2.1c0.1,1.4,0.1,2.3,0.2,2.7s0.2,0.6,0.3,0.7
			c0,0,0.2,0,0.6,0c0.3,0,0.6,0,0.8,0c0.7,0,1.2,0.2,1.5,0.5c0.2,0.2,0.3,0.4,0.3,0.6c0,0.4-0.6,0.9-1.8,1.3
			c-0.7,0.2-1.1,0.4-1.3,0.6c-0.1,0.1-0.2,0.4-0.3,0.9c-0.1,0.4-0.1,0.8-0.1,1.2c0,1.4,0.1,2.4,0.4,3.1c0.1,0.3,0.2,0.5,0.4,0.5
			c0.1,0.1,0.4,0.1,0.9,0.1c0.6,0,1.1,0.1,1.5,0.4s0.6,0.6,0.6,0.9c0,0.2-0.2,0.6-0.6,1c-0.7,0.6-1.8,1-3.4,1s-2.7-0.4-3.2-1.1
			c-0.3-0.4-0.4-2.8-0.5-7.2c-0.1-5.5-0.1-8.8-0.2-9.7l-0.1-3.1l0.6-0.3C107.6,55.8,108,55.6,108.3,55.5z"/>
		<path class="st2" d="M129.4,54.9c0.4-0.1,0.7-0.2,1-0.2c0.7,0,1.2,0.2,1.6,0.8c0.2,0.3,0.4,1.5,0.7,3.6c0.2,2.1,0.4,4.4,0.5,6.8
			c0,0.8,0.1,1.9,0.2,3.4c0.1,1.5,0.1,2.7,0.2,3.8c0,1.1,0.1,1.9,0.1,2.5c0,0.4-0.2,0.7-0.6,0.9s-0.9,0.4-1.3,0.4
			c-0.4,0-0.7-0.1-0.9-0.2l-0.6-0.4l-0.1-5.1c-0.2-5.8-0.4-8.7-0.8-8.7c-0.2,0-0.5,0.7-1,2.2c-0.2,0.8-0.5,1.4-0.8,1.7
			c-0.3,0.3-0.6,0.5-1,0.5c-0.3,0-0.7-0.1-1.1-0.2c-0.5-0.2-0.9-0.6-1.2-1.3c-0.3-0.7-0.5-1.1-0.5-1.2s-0.1-0.3-0.2-0.6
			s-0.3-0.6-0.5-0.8s-0.3-0.3-0.3-0.3V63c0,1.2,0,3,0.1,5.4L123,74l-0.6,0.9c-0.6,0.9-1.1,1.4-1.6,1.4c-0.3,0-0.5-0.2-0.8-0.6
			c-0.2-0.3-0.4-0.9-0.4-1.6c-0.1-0.7-0.1-2.8-0.2-6.3c-0.2-6.5-0.3-10.2-0.5-11.1c0-0.1,0-0.3,0-0.5c0-0.3,0.1-0.6,0.5-0.9
			c0.3-0.3,0.7-0.5,1.2-0.5s1,0.1,1.6,0.4c0.6,0.2,1,0.6,1.3,1s1,1.7,2.1,3.7c0.3,0.5,0.5,0.8,0.7,0.8c0.1,0,0.3-0.2,0.4-0.6
			c0.1-0.5,0.4-1,0.7-1.7c0.4-0.8,0.6-1.3,0.6-1.4c0-0.2,0.2-0.7,0.6-1.3C129,55.3,129.2,55,129.4,54.9z"/>
		<path class="st2" d="M138.6,53.7c0.3-0.1,1-0.2,2.1-0.2c1.3,0,2.2,0.1,2.5,0.3c0.4,0.2,0.9,0.6,1.5,1.2s0.9,1,1.1,1.4
			c0.3,0.6,0.6,2.2,0.6,4.5c0.1,1.4,0.1,2.2,0.1,2.4c0,0.9-0.1,1.7-0.4,2.5c-0.3,0.9-0.6,1.6-1,2c-0.4,0.5-1,0.8-1.7,1l-1.2,0.4v3.4
			c0,2-0.1,3.3-0.2,3.7c-0.2,0.4-0.6,0.7-1.2,0.7c-0.6,0-1.1-0.2-1.5-0.5l-0.6-0.5v-3v-0.7c0-2.4-0.1-5.4-0.2-9
			c-0.1-3.6-0.3-5.8-0.4-6.7c-0.1-0.6-0.1-1.1-0.1-1.5C137.7,54.5,138,54,138.6,53.7z M142.4,57.7c-0.3-0.6-0.5-1-0.7-1
			c-0.1,0-0.1,0-0.2,0.1c0,0.9,0,2,0,3.2c0,4,0.2,6,0.5,6c0.1,0,0.3-0.3,0.6-0.8c0.2-0.5,0.3-1.1,0.3-1.8c0-0.2,0-0.8-0.1-1.9
			C142.7,59.4,142.6,58.1,142.4,57.7z"/>
		<path class="st2" d="M152.5,55.5c0.3-0.1,0.8-0.1,1.3-0.1c1.5,0,2.5,0.2,2.9,0.5c0.3,0.2,0.4,0.6,0.4,0.9s-0.1,0.7-0.4,0.9
			s-0.6,0.4-1.1,0.4c-0.4,0-0.7,0.1-0.8,0.3s-0.2,0.7-0.2,1.5c0,0.2,0,0.9,0.1,2.1c0.1,1.4,0.1,2.3,0.2,2.7c0.1,0.4,0.2,0.6,0.3,0.7
			c0,0,0.2,0,0.6,0c0.3,0,0.6,0,0.8,0c0.7,0,1.2,0.2,1.5,0.5c0.2,0.2,0.3,0.4,0.3,0.6c0,0.4-0.6,0.9-1.8,1.3
			c-0.7,0.2-1.1,0.4-1.3,0.6c-0.1,0.1-0.2,0.4-0.3,0.9c-0.1,0.4-0.1,0.8-0.1,1.2c0,1.4,0.1,2.4,0.4,3.1c0.1,0.3,0.2,0.5,0.4,0.5
			c0.1,0.1,0.4,0.1,0.9,0.1c0.6,0,1.1,0.1,1.5,0.4s0.6,0.6,0.6,0.9c0,0.2-0.2,0.6-0.6,1c-0.7,0.6-1.8,1-3.4,1
			c-1.6,0-2.7-0.4-3.2-1.1c-0.3-0.4-0.4-2.8-0.5-7.2c-0.1-5.5-0.1-8.8-0.2-9.7l-0.1-3.1l0.6-0.3C151.7,55.8,152.1,55.6,152.5,55.5z"
			/>
		<path class="st2" d="M164.4,53.2c0.5-0.2,1.1-0.2,1.9-0.2c0.8,0,1.5,0.1,1.9,0.2c0.7,0.3,1.3,0.9,1.7,1.7c0.2,0.4,0.3,1.1,0.5,2.2
			c0.1,1.1,0.2,2,0.2,2.9c0,0.4,0,0.7,0,0.8c-0.1,0.7-0.3,1.5-0.6,2.3c-0.3,0.9-0.5,1.3-0.7,1.3S169,64.6,169,65
			c0,0.3,0.1,0.6,0.3,0.9c0.4,0.6,1.1,1.8,1.9,3.6c0.8,1.7,1.3,2.8,1.3,3.3c0,0.1,0,0.3,0,0.6c0,0.4-0.1,0.7-0.3,1s-0.5,0.5-0.8,0.5
			s-0.5,0-0.8,0c-0.7-0.1-1.1-0.2-1.3-0.3c-0.2-0.1-0.3-0.3-0.3-0.7c0-0.6-0.3-1.4-0.9-2.6c-0.6-1.2-1-1.7-1.3-1.7l0,0
			c-0.1,0.1-0.1,0.4-0.1,0.9c0,0.8,0.1,1.8,0.2,2.8c0.1,0.4,0.1,0.8,0.1,0.9c0,0.9-0.2,1.5-0.6,1.8c-0.2,0.1-0.4,0.1-0.7,0.1
			c-0.9,0-1.5-0.2-1.7-0.6c-0.1-0.2-0.2-2.1-0.3-5.7c0-1.1-0.1-2.4-0.1-3.7c0-1.3,0-2.3,0-2.9c0-0.6,0-1.4-0.1-2.4s-0.2-2-0.3-3.2
			c-0.1-1.3-0.2-2.1-0.2-2.4c0-0.7,0.1-1.1,0.3-1.4C163.5,53.6,163.9,53.4,164.4,53.2z M167,56.3c-0.1-0.2-0.2-0.3-0.5-0.3
			c-0.2,0-0.3,0.1-0.4,0.3c-0.1,0.2-0.1,0.4,0,0.5c0,0,0.1,0.9,0.2,2.7c0.1,1.8,0.2,2.7,0.3,2.8s0.2-0.1,0.4-0.3s0.2-0.7,0.2-1.4
			c0-0.5,0-1,0-1.4C167.2,57.6,167.1,56.6,167,56.3z"/>
		<path class="st2" d="M180.2,57c0.7-0.7,1.8-1.1,3.3-1.1c0.6,0,1.2,0.1,1.6,0.3c0.6,0.3,1,1.1,1.3,2.3c0.2,1.1,0.4,2.9,0.7,5.4
			s0.4,4.5,0.5,5.9c0,1.3,0.1,2.8,0.3,4.4c0.1,1.6,0.3,2.5,0.4,2.7c0,0,0,0.1,0,0.2c0,0.2-0.1,0.6-0.3,0.9c-0.2,0.4-0.4,0.6-0.6,0.6
			c-0.1,0-0.2,0-0.4,0c-0.4,0-0.9-0.1-1.4-0.3c-0.5-0.2-0.8-0.4-0.9-0.6c-0.1-0.2-0.2-1-0.4-2.3c-0.1-1.3-0.2-2.4-0.2-3.2
			c0-0.8-0.1-1.2-0.2-1.3c-0.1-0.1-0.8-0.1-1.9-0.1c-0.9,0-1.4,0-1.5,0.1c0,0.1,0,0.3,0,0.5c0,0.6,0,1.3,0.1,2.3
			c0.1,1.1,0.1,2,0.1,2.7v0.4c0,0.2-0.2,0.4-0.6,0.5c-0.4,0.1-0.7,0.2-1.1,0.2c-0.2,0-0.3,0-0.4,0c-1-0.3-1.5-0.7-1.6-1.2
			c0,0,0-0.1,0-0.2s0-0.2,0-0.3c0-1.2,0.1-3.7,0.4-7.6s0.5-6.1,0.6-6.7c0.2-0.8,0.5-1.6,1-2.6C179.4,58,179.8,57.4,180.2,57z
			 M183.1,61.3c-0.2-0.8-0.4-1.2-0.6-1.2c-0.2,0-0.4,0.3-0.7,0.9c-0.5,1.1-0.9,2.7-1,4.6c-0.1,0.8-0.1,1.3-0.1,1.4
			c0,0.4,0.1,0.6,0.2,0.7c0.1,0.1,0.5,0.2,1.1,0.2c0.8,0,1.3-0.1,1.4-0.2c0.1-0.1,0.1-0.4,0.1-1.1C183.5,64.6,183.4,62.9,183.1,61.3
			z"/>
		<path class="st2" d="M193.4,53.1c0.4-0.3,1-0.5,1.9-0.5h1c1.5,0.1,2.4,0.1,2.7,0.2c0.2,0.1,0.6,0.1,1.2,0.2c0.6,0,1.1,0.2,1.4,0.4
			c0.3,0.2,0.4,0.6,0.4,1.1s-0.1,0.9-0.3,1.1c-0.2,0.2-0.5,0.4-1,0.5c-0.6,0.1-0.9,0.2-1,0.3s-0.2,2.8-0.2,8c0,3.6,0,6.1,0.1,7.6
			c0.1,1.2,0.1,1.8,0.1,1.9c0,0.6-0.1,1.1-0.4,1.5c-0.3,0.6-0.8,0.8-1.4,0.8c-0.4,0-0.8-0.1-1.3-0.4l-0.8-0.5l0.1-9.6
			c0.1-2.5,0.1-4.9,0.1-7.4c0-1.5-0.1-2.3-0.3-2.4c-0.3-0.2-0.6-0.2-0.6-0.2c-0.1,0-0.3,0-0.5,0c-0.5,0-0.9-0.2-1.3-0.4
			c-0.3-0.3-0.5-0.6-0.5-1C192.7,53.9,192.9,53.5,193.4,53.1z"/>
		<path class="st2" d="M206.8,52.9c0.3-0.2,0.8-0.4,1.3-0.4c0.6,0,1.1,0.2,1.5,0.5l0.6,0.5v5.1c0.1,6,0.2,10.1,0.6,12.3
			c0.1,0.4,0.2,0.7,0.2,0.7c0.3,0,0.5-0.9,0.6-2.6c0.4-3.6,0.6-7.1,0.6-10.6v-0.9v-0.6c0-1.9,0.2-3,0.7-3.3c0.1-0.1,0.4-0.2,0.8-0.2
			c0.8,0,1.3,0.1,1.6,0.4c0.5,0.4,0.7,1.6,0.7,3.4c0,1.5-0.1,4.4-0.4,8.6c-0.2,3.5-0.6,6-1.1,7.4c-0.6,1.5-1.4,2.4-2.7,2.8
			c-0.5,0.2-0.8,0.2-1,0.2s-0.6-0.2-1.4-0.5c-1.5-0.7-2.4-1.9-2.6-3.5c-0.2-1.4-0.3-5.9-0.5-13.5c0-1.1,0-2.3,0-3.7
			c0-0.9,0-1.4,0.1-1.7C206.6,53.3,206.7,53.1,206.8,52.9z"/>
		<path class="st2" d="M221.6,53.2c0.5-0.2,1.1-0.2,1.9-0.2c0.8,0,1.5,0.1,1.9,0.2c0.7,0.3,1.3,0.9,1.7,1.7c0.2,0.4,0.3,1.1,0.5,2.2
			c0.1,1.1,0.2,2,0.2,2.9c0,0.4,0,0.7,0,0.8c-0.1,0.7-0.3,1.5-0.6,2.3c-0.3,0.9-0.5,1.3-0.6,1.3c-0.2,0-0.3,0.2-0.3,0.6
			c0,0.3,0.1,0.6,0.3,0.9c0.4,0.6,1.1,1.8,1.9,3.6c0.8,1.7,1.3,2.8,1.3,3.3c0,0.1,0,0.3,0,0.6c0,0.4-0.1,0.7-0.3,1s-0.5,0.5-0.8,0.5
			s-0.5,0-0.8,0c-0.7-0.1-1.1-0.2-1.3-0.3c-0.2-0.1-0.3-0.3-0.3-0.7c0-0.6-0.3-1.4-0.9-2.6c-0.6-1.2-1-1.7-1.3-1.7l0,0
			c-0.1,0.1-0.1,0.4-0.1,0.9c0,0.8,0.1,1.8,0.2,2.8c0.1,0.4,0.1,0.8,0.1,0.9c0,0.9-0.2,1.5-0.6,1.8c-0.2,0.1-0.4,0.1-0.7,0.1
			c-0.9,0-1.5-0.2-1.7-0.6c-0.1-0.2-0.2-2.1-0.3-5.7c0-1.1-0.1-2.4-0.1-3.7c0-1.3,0-2.3,0-2.9c0-0.6,0-1.4-0.1-2.4s-0.2-2-0.3-3.2
			c-0.1-1.3-0.2-2.1-0.2-2.4c0-0.7,0.1-1.1,0.3-1.4C220.7,53.6,221.1,53.4,221.6,53.2z M224.2,56.3c-0.1-0.2-0.2-0.3-0.5-0.3
			c-0.2,0-0.3,0.1-0.4,0.3c-0.1,0.2-0.1,0.4,0,0.5c0,0,0.1,0.9,0.2,2.7c0.1,1.8,0.2,2.7,0.3,2.8s0.2-0.1,0.4-0.3s0.2-0.7,0.2-1.4
			c0-0.5,0-1,0-1.4C224.4,57.6,224.3,56.6,224.2,56.3z"/>
		<path class="st2" d="M235.9,55.5c0.3-0.1,0.8-0.1,1.3-0.1c1.5,0,2.5,0.2,2.9,0.5c0.3,0.2,0.4,0.6,0.4,0.9s-0.1,0.7-0.4,0.9
			s-0.6,0.4-1.1,0.4c-0.4,0-0.7,0.1-0.8,0.3s-0.2,0.7-0.2,1.5c0,0.2,0,0.9,0.1,2.1c0.1,1.4,0.1,2.3,0.2,2.7c0.1,0.4,0.2,0.6,0.3,0.7
			c0,0,0.2,0,0.6,0c0.3,0,0.6,0,0.8,0c0.7,0,1.2,0.2,1.5,0.5c0.2,0.2,0.3,0.4,0.3,0.6c0,0.4-0.6,0.9-1.8,1.3
			c-0.7,0.2-1.1,0.4-1.3,0.6c-0.1,0.1-0.2,0.4-0.3,0.9c-0.1,0.4-0.1,0.8-0.1,1.2c0,1.4,0.1,2.4,0.4,3.1c0.1,0.3,0.2,0.5,0.4,0.5
			c0.1,0.1,0.4,0.1,0.9,0.1c0.6,0,1.1,0.1,1.5,0.4s0.6,0.6,0.6,0.9c0,0.2-0.2,0.6-0.6,1c-0.7,0.6-1.8,1-3.4,1
			c-1.6,0-2.7-0.4-3.2-1.1c-0.3-0.4-0.4-2.8-0.5-7.2c-0.1-5.5-0.1-8.8-0.2-9.7l-0.1-3.1l0.6-0.3C235.1,55.8,235.5,55.6,235.9,55.5z"
			/>
		<path class="st2" d="M303.3,66.5c14.2,3.9-3,12.5-5.7,15.1c-0.4,0.6,0.9,1,1.3,1.3c1.9,1.3,0.8,3.8-1.8,1.9
			c-9.1-4.3,3.8-7.1,7-13.4C306.1,69.2,298.2,66.9,303.3,66.5z"/>
		<path class="st2" d="M311.9,73.4c0.5-0.2,1-0.1,1.5,0.2l2,1.2c0.5,0.3,0.8,0.8,0.9,1.4c0.4,4.2-4.6,9.6-7.5,12.4
			c-2,1.9-6.2,0.9-5-2.6C305.1,82.2,308.6,75.1,311.9,73.4z M313.2,77.8c1.8-7.8-7.8,9.3-6.5,8.7C309,85.5,311.8,80.9,313.2,77.8z"
			/>
		<path class="st2" d="M318.6,75.8c1,0.3,3.6,1.7,1.6,2.7c-1,0.3-3.2-0.8-2.4-2.1C318,76,318.1,75.6,318.6,75.8z M319.7,76.6
			c-0.6-0.8-1.2,0.8-0.8,1.2C319.4,78,320,77.1,319.7,76.6z"/>
		<path class="st2" d="M322.3,79.2c0.4,0,0.6,0,0.8,0.1c0.1,0,0.3,0.1,0.6,0.3c0.4,0.2,0.6,0.4,0.7,0.6s0.2,0.4,0.1,0.4
			c0,0.1-0.2,0.1-0.4,0.1c-0.2,0-0.5,0-0.7-0.1c-0.4-0.1-0.7-0.1-0.9,0.1s-0.6,0.4-1,0.8c-0.3,0.3-0.5,0.5-0.6,0.8
			c0,0.1-0.2,0.4-0.5,1c-0.3,0.8-0.5,1.3-0.5,1.5c0,0.4,0.3,0.8,0.8,1c0.2,0.1,0.4,0.3,0.5,0.4c0.1,0.2,0.1,0.3,0.1,0.4
			c0,0,0,0.1-0.1,0.1c-0.3,0.2-0.7,0.1-1.2-0.2c-0.3-0.1-0.6-0.4-1-0.7c-0.3-0.2-0.4-0.4-0.5-0.5s-0.1-0.3-0.2-0.5
			c-0.1-0.3-0.1-0.6-0.1-0.9c0-0.5,0.4-1.4,1.1-2.5c0.2-0.3,0.4-0.6,0.5-0.7c0.5-0.6,0.9-0.9,1.3-1.1
			C321.3,79.3,321.7,79.2,322.3,79.2z"/>
		<path class="st2" d="M222.9,165.9l-8.6-5.5c-2.1-1.3-2.7-4.1-1.3-6.2L287,39c1.8-2.8,5.6-3.7,8.4-1.8l5.9,3.8
			c2.8,1.8,3.7,5.6,1.8,8.4l-74,115.2C227.8,166.7,225,167.3,222.9,165.9z"/>
		<path class="st2" d="M212.7,194.2c12.1,0,21.8-9.8,21.8-21.9c0-12.1-9.8-21.9-21.8-21.9s-21.9,9.8-21.9,21.9
			S200.6,194.2,212.7,194.2z"/>
		<path class="st3" d="M212.7,189.7c9.6,0,17.3-7.8,17.3-17.3c0-9.6-7.8-17.3-17.3-17.3c-9.6,0-17.3,7.8-17.3,17.3
			C195.3,181.9,203.1,189.7,212.7,189.7z"/>
		<path class="st0" d="M223.2,163.5l-7.5-4.8L264.3,83c1.4-2.2,4.4-2.9,6.7-1.4c2.2,1.4,2.9,4.4,1.4,6.7L223.2,163.5z"/>
		<path class="st3" d="M211.7,181.1l-7.5-4.8l32.4-50.9c1.4-2.2,4.4-2.9,6.7-1.4c2.2,1.4,2.9,4.4,1.4,6.7L211.7,181.1z"/>
		<path class="st4" d="M285.5,68.9l-2.9-1.9c-1.4-0.9-1.9-2.8-0.9-4.3c0.9-1.4,2.8-1.8,4.3-0.9l2.9,1.9c1.4,0.9,1.9,2.8,0.9,4.3
			C288.9,69.4,287,69.9,285.5,68.9z"/>
		<path class="st4" d="M277.2,81.9l-2.9-1.9c-1.4-0.9-1.9-2.8-0.9-4.3c0.9-1.4,2.8-1.9,4.3-0.9l2.9,1.9c1.4,0.9,1.9,2.8,0.9,4.3
			C280.5,82.4,278.6,82.8,277.2,81.9z"/>
		<path class="st4" d="M268.9,94.9L266,93c-1.4-0.9-1.9-2.8-0.9-4.3c0.9-1.4,2.8-1.9,4.3-0.9l2.9,1.9c1.4,0.9,1.9,2.8,0.9,4.3
			C272.2,95.4,270.3,95.8,268.9,94.9z"/>
		<path class="st4" d="M260.5,107.9l-2.9-1.9c-1.4-0.9-1.9-2.8-0.9-4.3c0.9-1.4,2.8-1.9,4.3-0.9l2.9,1.9c1.4,0.9,1.9,2.8,0.9,4.3
			C263.9,108.4,262,108.8,260.5,107.9z"/>
		<path class="st4" d="M252.2,120.8l-2.9-1.9c-1.4-0.9-1.9-2.8-0.9-4.3c0.9-1.4,2.8-1.9,4.3-0.9l2.9,1.9c1.4,0.9,1.9,2.8,0.9,4.3
			C255.5,121.3,253.6,121.7,252.2,120.8z"/>
		<path class="st4" d="M243.9,133.8l-2.9-1.9c-1.4-0.9-1.9-2.8-0.9-4.3c0.9-1.4,2.8-1.9,4.3-0.9l2.9,1.9c1.4,0.9,1.9,2.8,0.9,4.3
			C247.2,134.3,245.3,134.7,243.9,133.8z"/>
		<path class="st3" d="M220.6,95.5l-12.9,18.7c-0.6,0.9-1.8,1.2-2.7,0.7l-1-0.6c-1.3-0.7-2.8,0.2-3,1.6l-1.6,15.6
			c-0.2,1.6,1.5,2.7,2.9,2l16.1-7.8c1.5-0.7,1.5-2.9,0.1-3.7h-0.1c-1.2-0.6-1.5-2.2-0.6-3.2l13.7-16.4
			C241,91.1,225.3,87.3,220.6,95.5z"/>
		<path class="st2" d="M274.7,132.7l12.9-18.7c0.6-0.9,1.8-1.2,2.7-0.7l1,0.6c1.3,0.7,2.8-0.2,3-1.6l1.6-15.6c0.2-1.6-1.5-2.7-2.9-2
			l-16.1,7.8c-1.5,0.7-1.6,2.9-0.1,3.7h0.1c1.2,0.6,1.5,2.2,0.6,3.2l-13.7,16.4C254.3,137,270,140.9,274.7,132.7z"/>
	</g>
</g>
</svg>
