<?xml version="1.0" encoding="utf-8"?>
<!-- Generator: Adobe Illustrator 25.1.0, SVG Export Plug-In . SVG Version: 6.00 Build 0)  -->
<svg version="1.1" id="Layer_1" xmlns="http://www.w3.org/2000/svg" xmlns:xlink="http://www.w3.org/1999/xlink" x="0px" y="0px"
	 viewBox="0 0 335.6 168.1" style="enable-background:new 0 0 335.6 168.1;" xml:space="preserve">
<style type="text/css">
	.st0{fill:#FFFFFF;}
	.st1{fill:#00A878;}
	.st2{fill:#808080;}
	.st3{fill:#9DEDC0;}
	.st4{fill:#CEF6E0;}
	.st5{fill:#F4F1EF;}
	.st6{fill:#646464;}
	.st7{fill:#00CDDC;}
	.st8{fill:#28C86E;}
	.st9{fill:#32DCD2;}
	.st10{fill:none;stroke:#28C86E;stroke-width:0.4179;stroke-linecap:round;stroke-miterlimit:10;}
	.st11{fill:#FFCF8D;}
	.st12{fill:#FF9F1A;}
	.st13{fill:#F5F1EF;}
</style>
<g>
	<g>
		<path class="st0" d="M332.6,120.5c-1.5-29.2,10.7-102.2-5.4-109.7C300.9-1.2,132.6,0.8,98,0C81.6-0.3,6.7,3.1,4.7,14.5
			C-0.6,44.8,1.5,71,0.3,103.1c-1.2,31.4-1,61.4,38.6,62.6c73.2,2.1,165.7,4.3,234.8-0.2C307.3,163.3,335.2,172.8,332.6,120.5z"/>
		<path class="st1" d="M33.2,53.4c0.5-0.2,1-0.4,1.6-0.4c1.4,0,2.4,0.6,3,1.8c0.2,0.5,0.3,1.5,0.3,2.9c0,2.2-0.2,4-0.6,5.3
			c-0.3,0.8-0.5,1.4-0.8,2c-0.2,0.6-0.5,1.2-0.6,1.7c0,0.1-0.2,0.5-0.4,1.2s-0.4,1.2-0.5,1.4c-0.3,0.8-0.5,1.4-0.5,1.6
			c0,0.3,0.2,0.5,0.7,0.6h1.1h0.2c0.4,0,0.8,0.1,1.3,0.4c0.4,0.2,0.7,0.5,0.8,0.8c0.1,0.2,0.1,0.4,0.1,0.5c0,0.8-1,1.3-2.9,1.3
			c-0.6,0-1.1,0-1.4,0c-1.5-0.1-2.5-0.2-3.1-0.4c-0.6-0.2-0.9-0.5-1-0.9c0-0.1,0-0.2,0-0.4c0-0.6,0.5-2,1.4-4.3
			c1.9-4.7,2.9-8.2,2.9-10.5c0-0.8,0-1.2-0.1-1.4s-0.2-0.3-0.5-0.3c-1.7-0.4-2.6-0.7-2.6-1.1c0-0.1,0.1-0.3,0.3-0.6
			C32.1,54.1,32.5,53.7,33.2,53.4z"/>
		<path class="st1" d="M44.6,52.6l0.7-0.8h5l0.8,0.8c0.6,0.6,0.9,1.1,1.1,1.7c0.2,0.8,0.3,2.3,0.3,4.7c0,1.6-0.1,3-0.2,4
			c0,0.4-0.1,0.8-0.1,1.3c0,0.5-0.1,0.9-0.1,1.3S52,66.2,52,66.3c-0.1,1.2-0.6,2.8-1.3,4.8c-0.2,0.5-0.6,1.1-1.1,1.8
			s-0.9,1.1-1.2,1.2c-0.4,0.1-1,0.2-1.6,0.2c-0.5,0-0.9,0-1.3-0.1c-0.8-0.2-1.4-1.1-1.9-2.7s-0.7-3.9-0.7-6.9v-1.7
			c0-3.7,0.2-6,0.4-6.9c0.1-0.3,0.1-0.7,0.2-1.2c0.1-0.4,0.2-0.8,0.2-0.9c0-0.1,0.1-0.3,0.2-0.6C44.1,53.1,44.3,52.9,44.6,52.6z
			 M48.8,56.5c-0.3-1.6-0.7-2.4-1.1-2.4c-0.1,0-0.2,0-0.2,0.1c-0.3,0.4-0.6,1-0.7,1.9c-0.1,0.9-0.2,2.3-0.2,4.3v1.3
			c0,5.6,0.2,8.4,0.7,8.4c0.2,0,0.4-0.4,0.7-1.3c0.7-2,1.1-5,1.1-8.9C49.1,58.6,49,57.4,48.8,56.5z"/>
		<path class="st1" d="M78.4,53.3c0.4-0.1,0.7-0.2,1-0.2c0.7,0,1.2,0.2,1.6,0.8c0.2,0.3,0.4,1.5,0.7,3.6c0.2,2.1,0.4,4.4,0.5,6.8
			c0,0.8,0.1,1.9,0.2,3.4s0.1,2.7,0.2,3.8s0.1,1.9,0.1,2.5c0,0.4-0.2,0.7-0.6,0.9c-0.4,0.2-0.9,0.4-1.3,0.4s-0.7-0.1-0.9-0.2
			L79,74.6l-0.1-5.1c-0.2-5.8-0.4-8.7-0.8-8.7c-0.2,0-0.5,0.7-1,2.2c-0.2,0.8-0.5,1.4-0.8,1.7c-0.3,0.3-0.6,0.5-1,0.5
			c-0.3,0-0.7-0.1-1.1-0.2c-0.5-0.2-0.9-0.6-1.2-1.3c-0.3-0.7-0.5-1.1-0.5-1.2c0-0.1-0.1-0.3-0.2-0.6s-0.3-0.6-0.5-0.8
			s-0.3-0.3-0.3-0.3v0.5c0,1.2,0,3,0.1,5.4l0.2,5.8l-0.5,0.9c-0.6,0.9-1.1,1.4-1.6,1.4c-0.3,0-0.5-0.2-0.8-0.6
			c-0.2-0.3-0.4-0.9-0.4-1.6c-0.1-0.7-0.1-2.8-0.2-6.3c-0.2-6.5-0.3-10.2-0.5-11c0-0.1,0-0.3,0-0.5c0-0.3,0.2-0.6,0.5-0.9
			c0.3-0.3,0.7-0.5,1.2-0.5s1,0.1,1.6,0.4c0.6,0.2,1,0.6,1.3,1s1,1.7,2.1,3.7c0.3,0.5,0.5,0.8,0.7,0.8c0.1,0,0.3-0.2,0.4-0.6
			c0.1-0.5,0.4-1,0.7-1.7c0.4-0.8,0.6-1.3,0.6-1.4c0-0.2,0.2-0.7,0.6-1.3C77.9,53.8,78.2,53.4,78.4,53.3z"/>
		<path class="st1" d="M87.1,51.5c0.3-0.4,0.8-0.6,1.3-0.6s0.9,0.2,1.3,0.6l0.5,0.6l0.2,9.5c0.1,5.2,0.2,8.2,0.2,9c0,0.4,0,0.8,0,1
			c0,0.3,0,0.5,0,0.6s-0.1,0.3-0.1,0.4c-0.1,0.1-0.1,0.2-0.1,0.2s-0.1,0.1-0.2,0.1C90.1,73,90,73.1,90,73.1
			c-0.3,0.2-0.6,0.3-0.8,0.3c-0.1,0-0.4-0.1-0.8-0.2c-0.7-0.3-1.1-0.5-1.1-0.7C87.1,72.3,87,69,87,62.3c-0.1-6.6-0.1-10-0.2-10
			C86.6,52.1,86.8,51.8,87.1,51.5z"/>
		<path class="st1" d="M96,53c0.4-0.2,0.8-0.3,1.3-0.3c0.8,0,1.4,0.5,1.7,1.6c0.2,0.8,0.5,1.7,1,2.6c0.4,0.9,0.7,1.6,0.9,2.2
			c0.3,0.9,0.5,1.5,0.8,1.7c0.1,0.1,0.1,0.2,0.2,0.2s0.2-0.6,0.3-1.8c0.1-1.1,0.1-1.9,0.1-2.3v-0.5c0-0.2,0-0.5,0-0.8
			c0-0.7,0.2-1.2,0.6-1.6c0.3-0.4,0.8-0.6,1.5-0.6c0.5,0,0.9,0.1,1.2,0.4c0.2,0.2,0.4,0.6,0.4,1c0,0.5,0,1-0.1,1.5
			s-0.1,3.9-0.2,10.2c0,4-0.1,6.3-0.1,7.1c0,0.8-0.1,1.3-0.3,1.5c-0.3,0.3-0.7,0.5-1.3,0.5c-1.2,0-1.9-0.6-2.1-1.8
			c-0.1-0.4-0.4-1.3-0.8-2.5c-0.4-1.1-0.7-2.1-0.8-3c-0.2-1.1-0.6-2.7-1.2-4.6C99,63.5,99,63.5,99,63.5c-0.1,0-0.2,1.2-0.2,3.5v2v2
			c0,2.3-0.1,3.6-0.2,3.9c-0.3,0.8-0.9,1.2-1.8,1.2c-0.5,0-1-0.2-1.3-0.6c-0.2-0.3-0.4-0.6-0.4-0.8c0-0.1,0-0.3,0.1-0.8
			c0.1-0.9,0.2-4.3,0.2-10.1c0-6.5,0.1-9.9,0.2-10.3C95.7,53.3,95.8,53.1,96,53C95.8,53.1,95.9,53,96,53z"/>
		<path class="st1" d="M110.5,51.4c0.3-0.2,0.8-0.4,1.3-0.4c0.6,0,1.1,0.1,1.5,0.5l0.6,0.5v5.1c0.1,6,0.2,10,0.6,12.3
			c0.1,0.5,0.2,0.7,0.2,0.7c0.3,0,0.5-0.9,0.6-2.6c0.4-3.6,0.6-7.1,0.6-10.6V56v-0.6c0-1.9,0.2-3,0.7-3.3c0.1-0.1,0.4-0.2,0.8-0.2
			c0.8,0,1.3,0.1,1.6,0.4c0.4,0.4,0.7,1.6,0.7,3.4c0,1.5-0.1,4.4-0.4,8.6c-0.2,3.5-0.6,6-1.1,7.4c-0.6,1.5-1.4,2.4-2.7,2.8
			c-0.5,0.2-0.8,0.2-1,0.2s-0.6-0.2-1.4-0.5c-1.5-0.7-2.4-1.9-2.6-3.5c-0.2-1.4-0.3-5.9-0.5-13.5c0-1.1,0-2.3,0-3.6
			c0-0.9,0-1.4,0.1-1.7C110.2,51.7,110.3,51.5,110.5,51.4z"/>
		<path class="st1" d="M124.8,51.6c0.4-0.3,1-0.5,1.9-0.5h1c1.5,0.1,2.4,0.1,2.7,0.2c0.2,0.1,0.6,0.1,1.2,0.2
			c0.6,0.1,1.1,0.2,1.4,0.4c0.3,0.2,0.4,0.6,0.4,1.1s-0.1,0.9-0.3,1.1c-0.2,0.2-0.6,0.4-1.1,0.5c-0.6,0.1-0.9,0.2-1,0.3
			s-0.2,2.8-0.2,8c0,3.6,0,6.1,0.1,7.6c0.1,1.2,0.1,1.8,0.1,1.9c0,0.6-0.1,1.1-0.4,1.5c-0.3,0.6-0.8,0.8-1.4,0.8
			c-0.4,0-0.8-0.1-1.3-0.4l-0.8-0.5l0.1-9.6c0.1-2.5,0.1-4.9,0.1-7.4c0-1.5-0.1-2.3-0.3-2.4c-0.3-0.2-0.6-0.2-0.6-0.2
			c-0.1,0-0.3,0-0.5,0c-0.5,0-0.9-0.1-1.3-0.4c-0.3-0.3-0.5-0.6-0.5-1C124.1,52.3,124.4,51.9,124.8,51.6z"/>
		<path class="st1" d="M139.6,54c0.3-0.1,0.8-0.1,1.3-0.1c1.5,0,2.5,0.2,2.9,0.5c0.3,0.2,0.4,0.6,0.4,0.9s-0.1,0.7-0.4,0.9
			s-0.6,0.4-1.1,0.4c-0.4,0-0.7,0.1-0.8,0.3s-0.2,0.7-0.2,1.4c0,0.2,0,0.9,0.1,2.1c0.1,1.4,0.1,2.3,0.2,2.7c0.1,0.4,0.2,0.6,0.3,0.6
			c0,0,0.2,0,0.6,0c0.3,0,0.6,0,0.8,0c0.7,0,1.2,0.2,1.5,0.5c0.2,0.2,0.3,0.4,0.3,0.6c0,0.4-0.6,0.8-1.8,1.3
			c-0.7,0.2-1.1,0.4-1.3,0.6s-0.2,0.4-0.3,0.9s-0.1,0.8-0.1,1.2c0,1.4,0.1,2.4,0.4,3.1c0.1,0.3,0.2,0.5,0.4,0.5
			c0.1,0.1,0.4,0.1,0.9,0.1c0.6,0,1.1,0.1,1.5,0.4s0.6,0.6,0.6,1c0,0.2-0.2,0.6-0.6,1c-0.7,0.6-1.8,1-3.4,1c-1.6,0-2.7-0.4-3.2-1.1
			c-0.3-0.4-0.5-2.8-0.5-7.2c-0.1-5.5-0.1-8.8-0.2-9.7l-0.1-3.1l0.6-0.3C138.8,54.2,139.2,54.1,139.6,54z"/>
		<path class="st1" d="M153.5,52.4c0.3-0.2,0.7-0.2,1.2-0.2c0.3,0,0.6,0,0.8,0c0.8,0.1,1.4,0.2,1.7,0.3s0.6,0.4,0.8,0.8
			c0.3,0.4,0.4,0.9,0.4,1.3c0,0.5-0.2,0.9-0.6,1.3c-0.3,0.3-0.7,0.5-1,0.5c-0.4,0-0.7-0.2-1.1-0.7c-0.2-0.4-0.5-0.6-0.8-0.6
			c-0.2,0-0.5,0.2-0.7,0.5s-0.4,0.7-0.4,1.2V57c0,1.5,1.2,4.4,3.5,8.5c0.4,0.7,0.8,1.9,1.1,3.7c0,0.1,0,0.3,0,0.6
			c0,1.5-0.3,2.7-1,3.6c-0.3,0.4-0.7,0.7-1.4,1c-0.6,0.3-1.2,0.4-1.7,0.4c-0.1,0-0.1,0-0.2,0c-0.1,0-0.1,0-0.2,0
			c-0.6-0.1-1.4-0.6-2.3-1.4c-0.9-0.9-1.4-1.5-1.4-2c0-0.2,0.1-0.5,0.5-0.8c0.3-0.3,0.6-0.5,0.9-0.5c0.1,0,0.1,0,0.3,0
			c0.3,0,0.8,0.4,1.5,1.3c0.2,0.4,0.5,0.6,0.8,0.6s0.5-0.2,0.6-0.5c0.1-0.1,0.1-0.3,0.1-0.6c0-1.6-0.7-4-2.2-7.1
			c-1.3-2.9-2-5.1-2-6.5c0-0.6,0.1-1.2,0.3-1.7c0.4-1.1,0.8-1.8,1.1-2.2C152.4,53.1,152.8,52.7,153.5,52.4z"/>
		<path class="st2" d="M29.3,39.7V28.5h1.3v11.2H29.3z"/>
		<path class="st2" d="M33.4,39.7v-6.8h-1.2v-1.1h1.2v-1.4c0-0.8,0.2-1.3,0.6-1.7c0.4-0.4,0.9-0.5,1.7-0.5h0.8v1.1h-0.6
			c-0.4,0-0.7,0.1-0.9,0.2c-0.2,0.2-0.3,0.4-0.3,0.8v1.3h2v1.1h-2v6.8L33.4,39.7L33.4,39.7z"/>
		<path class="st2" d="M43.4,43.3l2-4.3h-0.5l-3.1-7.2h1.5l2.6,6.2l2.8-6.2H50l-5.2,11.5H43.4z"/>
		<path class="st2" d="M54.3,39.9c-0.8,0-1.4-0.2-2-0.5s-1.1-0.8-1.4-1.4c-0.3-0.6-0.5-1.4-0.5-2.2s0.2-1.6,0.5-2.2s0.8-1.1,1.4-1.4
			c0.6-0.3,1.3-0.5,2-0.5s1.4,0.2,2,0.5s1.1,0.8,1.4,1.4c0.3,0.6,0.5,1.4,0.5,2.2S58,37.4,57.7,38c-0.3,0.6-0.8,1.1-1.4,1.4
			C55.7,39.8,55,39.9,54.3,39.9z M54.3,38.8c0.5,0,0.9-0.1,1.3-0.3s0.7-0.6,1-1c0.2-0.4,0.4-1,0.4-1.7s-0.1-1.2-0.4-1.7
			c-0.2-0.4-0.6-0.8-0.9-1c-0.4-0.2-0.8-0.3-1.3-0.3s-0.9,0.1-1.3,0.3c-0.4,0.2-0.7,0.6-1,1s-0.4,1-0.4,1.7s0.1,1.2,0.4,1.7
			c0.2,0.5,0.6,0.8,0.9,1S53.8,38.8,54.3,38.8z"/>
		<path class="st2" d="M63,39.9c-0.9,0-1.7-0.3-2.2-0.9c-0.6-0.6-0.8-1.4-0.8-2.6v-4.6h1.3v4.5c0,1.7,0.7,2.5,2,2.5
			c0.7,0,1.3-0.2,1.7-0.7c0.5-0.5,0.7-1.2,0.7-2.1v-4.1H67v7.9h-1.2l-0.1-1.4c-0.2,0.5-0.6,0.9-1.1,1.2C64.2,39.8,63.6,39.9,63,39.9
			z"/>
		<path class="st2" d="M77.2,39.9c-0.8,0-1.4-0.2-2-0.5s-1.1-0.8-1.4-1.5c-0.4-0.6-0.5-1.4-0.5-2.2s0.2-1.6,0.5-2.2
			c0.3-0.6,0.8-1.1,1.4-1.5c0.6-0.4,1.3-0.5,2-0.5c0.9,0,1.7,0.2,2.4,0.7c0.6,0.5,1.1,1.1,1.2,2h-1.4c-0.1-0.5-0.4-0.9-0.8-1.1
			c-0.4-0.3-0.9-0.4-1.5-0.4c-0.4,0-0.9,0.1-1.3,0.3s-0.7,0.6-1,1c-0.2,0.4-0.4,1-0.4,1.7s0.1,1.2,0.4,1.7s0.6,0.8,1,1
			s0.8,0.3,1.3,0.3c0.6,0,1-0.1,1.5-0.4c0.4-0.3,0.7-0.7,0.8-1.2h1.4c-0.2,0.8-0.6,1.4-1.2,1.9C78.9,39.7,78.1,39.9,77.2,39.9z"/>
		<path class="st2" d="M85.3,39.9c-0.7,0-1.2-0.1-1.6-0.3s-0.8-0.5-1-0.9s-0.3-0.8-0.3-1.2c0-0.8,0.3-1.4,0.9-1.9s1.5-0.7,2.5-0.7
			h2.1v-0.1c0-0.7-0.2-1.2-0.5-1.6s-0.8-0.5-1.5-0.5c-0.5,0-1,0.1-1.3,0.4c-0.4,0.3-0.6,0.6-0.7,1.1h-1.4c0-0.6,0.2-1.1,0.6-1.5
			c0.3-0.4,0.8-0.7,1.3-0.9c0.5-0.2,1-0.3,1.6-0.3c1.1,0,1.9,0.3,2.5,0.9c0.6,0.6,0.8,1.4,0.8,2.4v4.9h-1.2L88,38.3
			c-0.2,0.4-0.6,0.8-1,1.1C86.6,39.8,86,39.9,85.3,39.9z M85.5,38.8c0.5,0,0.9-0.1,1.3-0.4c0.4-0.3,0.6-0.6,0.8-1
			c0.2-0.4,0.3-0.9,0.3-1.3l0,0h-2c-0.8,0-1.3,0.1-1.7,0.4c-0.3,0.3-0.5,0.6-0.5,1s0.2,0.8,0.5,1C84.5,38.7,84.9,38.8,85.5,38.8z"/>
		<path class="st2" d="M91.3,39.7v-7.9h1.2l0.1,1.4c0.3-0.5,0.6-0.9,1.1-1.2s1-0.4,1.6-0.4c0.9,0,1.7,0.3,2.2,0.9
			c0.6,0.6,0.8,1.4,0.8,2.6v4.6H97v-4.5c0-1.7-0.7-2.5-2-2.5c-0.7,0-1.2,0.2-1.7,0.7c-0.4,0.5-0.7,1.2-0.7,2.1v4.1L91.3,39.7
			L91.3,39.7z"/>
		<path class="st2" d="M99.9,32.1l0.9-3.6h1.5l-1.5,3.6H99.9z"/>
		<path class="st2" d="M107,39.7c-0.7,0-1.3-0.2-1.7-0.5c-0.4-0.4-0.6-1-0.6-1.9v-4.4h-1.4v-1.1h1.4l0.2-1.9h1.2v1.9h2.3v1.1H106
			v4.4c0,0.5,0.1,0.8,0.3,1c0.2,0.2,0.6,0.3,1.1,0.3h0.8v1.2L107,39.7L107,39.7z"/>
		<path class="st2" d="M117.3,39.9c-1,0-1.7-0.2-2.4-0.7c-0.6-0.5-1-1.1-1.1-1.9h1.4c0.1,0.4,0.3,0.8,0.7,1.1
			c0.4,0.3,0.8,0.5,1.4,0.5s1-0.1,1.2-0.4c0.3-0.2,0.4-0.5,0.4-0.9c0-0.5-0.2-0.8-0.5-1c-0.4-0.2-0.8-0.3-1.5-0.4
			c-0.4-0.1-0.8-0.2-1.3-0.4c-0.4-0.2-0.8-0.4-1.1-0.7c-0.3-0.3-0.4-0.7-0.4-1.2c0-0.7,0.3-1.3,0.8-1.7c0.5-0.4,1.2-0.7,2.1-0.7
			c0.8,0,1.5,0.2,2.1,0.6c0.5,0.4,0.9,1,0.9,1.8h-1.3c0-0.4-0.2-0.7-0.5-0.9s-0.7-0.3-1.2-0.3s-0.8,0.1-1.1,0.3
			c-0.3,0.2-0.4,0.5-0.4,0.8s0.2,0.6,0.5,0.8s0.8,0.3,1.4,0.5c0.5,0.1,1,0.2,1.4,0.4s0.8,0.4,1.1,0.7c0.3,0.3,0.4,0.7,0.4,1.3
			c0,0.7-0.3,1.3-0.8,1.8C119,39.7,118.2,39.9,117.3,39.9z"/>
		<path class="st2" d="M122.3,39.7V28.2h1.3v11.5H122.3z"/>
		<path class="st2" d="M129.4,39.9c-0.8,0-1.4-0.2-2-0.5c-0.6-0.3-1.1-0.8-1.4-1.4c-0.3-0.6-0.5-1.4-0.5-2.2s0.2-1.6,0.5-2.2
			c0.3-0.6,0.8-1.1,1.4-1.5c0.6-0.4,1.3-0.5,2.1-0.5s1.4,0.2,2,0.5c0.6,0.4,1,0.8,1.3,1.4c0.3,0.6,0.4,1.2,0.4,1.8
			c0,0.1,0,0.2,0,0.3s0,0.2,0,0.4h-6.3c0,0.6,0.2,1.1,0.4,1.5c0.2,0.4,0.6,0.7,0.9,0.9c0.4,0.2,0.8,0.3,1.2,0.3c0.6,0,1-0.1,1.4-0.4
			c0.4-0.3,0.7-0.6,0.8-1h1.3c-0.2,0.7-0.6,1.4-1.2,1.8C131.1,39.7,130.3,39.9,129.4,39.9z M129.4,32.7c-0.6,0-1.2,0.2-1.7,0.6
			s-0.8,1-0.9,1.7h5c0-0.7-0.3-1.3-0.7-1.7C130.6,32.9,130.1,32.7,129.4,32.7z"/>
		<path class="st2" d="M138.5,39.9c-0.8,0-1.4-0.2-2-0.5s-1.1-0.8-1.4-1.4c-0.3-0.6-0.5-1.4-0.5-2.2s0.2-1.6,0.5-2.2
			c0.3-0.6,0.8-1.1,1.4-1.5c0.6-0.4,1.3-0.5,2.1-0.5s1.4,0.2,2,0.5c0.6,0.4,1,0.8,1.3,1.4c0.3,0.6,0.4,1.2,0.4,1.8
			c0,0.1,0,0.2,0,0.3s0,0.2,0,0.4H136c0,0.6,0.2,1.1,0.4,1.5s0.6,0.7,0.9,0.9c0.4,0.2,0.8,0.3,1.2,0.3c0.6,0,1-0.1,1.4-0.4
			c0.4-0.3,0.6-0.6,0.8-1h1.3c-0.2,0.7-0.6,1.4-1.2,1.8C140.2,39.7,139.4,39.9,138.5,39.9z M138.5,32.7c-0.6,0-1.2,0.2-1.7,0.6
			c-0.5,0.4-0.8,1-0.9,1.7h5c0-0.7-0.3-1.3-0.7-1.7C139.7,32.9,139.2,32.7,138.5,32.7z"/>
		<path class="st2" d="M144,43.3V31.8h1.2l0.1,1.3c0.3-0.4,0.6-0.7,1.1-1s1.1-0.5,1.8-0.5c0.8,0,1.5,0.2,2.1,0.5
			c0.6,0.4,1,0.9,1.4,1.5c0.3,0.6,0.5,1.3,0.5,2.1s-0.2,1.5-0.5,2.1s-0.8,1.1-1.4,1.5c-0.6,0.4-1.3,0.5-2.1,0.5
			c-0.6,0-1.2-0.1-1.7-0.4c-0.5-0.3-0.9-0.6-1.2-1.1v4.9L144,43.3L144,43.3z M148.1,38.8c0.5,0,1-0.1,1.4-0.4c0.4-0.2,0.7-0.6,1-1.1
			s0.4-1,0.4-1.6s-0.1-1.1-0.4-1.6c-0.2-0.4-0.6-0.8-1-1.1c-0.4-0.2-0.9-0.4-1.4-0.4s-1,0.1-1.4,0.4s-0.7,0.6-1,1.1
			c-0.2,0.4-0.3,1-0.3,1.6s0.1,1.1,0.3,1.6c0.2,0.4,0.6,0.8,1,1.1S147.6,38.8,148.1,38.8z"/>
		<path class="st2" d="M161,39.9c-0.7,0-1.2-0.1-1.7-0.3c-0.4-0.2-0.8-0.5-1-0.9s-0.3-0.8-0.3-1.2c0-0.8,0.3-1.4,0.9-1.9
			s1.5-0.7,2.5-0.7h2.1v-0.1c0-0.7-0.2-1.2-0.5-1.6c-0.4-0.4-0.9-0.5-1.5-0.5c-0.5,0-1,0.1-1.4,0.4c-0.4,0.3-0.6,0.6-0.7,1.1H158
			c0.1-0.6,0.2-1.1,0.6-1.5c0.3-0.4,0.8-0.7,1.3-0.9c0.5-0.2,1-0.3,1.6-0.3c1.1,0,1.9,0.3,2.5,0.9c0.6,0.6,0.8,1.4,0.8,2.4v4.9h-1.2
			l-0.1-1.4c-0.2,0.4-0.6,0.8-1,1.1C162.3,39.8,161.7,39.9,161,39.9z M161.2,38.8c0.5,0,0.9-0.1,1.3-0.4c0.4-0.3,0.6-0.6,0.8-1
			s0.3-0.9,0.3-1.3l0,0h-2c-0.8,0-1.3,0.1-1.7,0.4c-0.3,0.3-0.5,0.6-0.5,1s0.2,0.8,0.5,1C160.2,38.7,160.6,38.8,161.2,38.8z"/>
		<path class="st2" d="M167.4,39.7v-6.8h-1.2v-1.1h1.2v-1.4c0-0.8,0.2-1.3,0.6-1.7c0.4-0.4,0.9-0.5,1.7-0.5h0.8v1.1h-0.6
			c-0.4,0-0.7,0.1-0.9,0.2s-0.3,0.4-0.3,0.8v1.3h2v1.1h-2v6.8L167.4,39.7L167.4,39.7z"/>
		<path class="st2" d="M175.4,39.7c-0.7,0-1.3-0.2-1.7-0.5c-0.4-0.4-0.6-1-0.6-1.9v-4.4h-1.4v-1.1h1.4l0.2-1.9h1.2v1.9h2.3v1.1h-2.3
			v4.4c0,0.5,0.1,0.8,0.3,1s0.6,0.3,1.1,0.3h0.8v1.2L175.4,39.7L175.4,39.7z"/>
		<path class="st2" d="M181.8,39.9c-0.8,0-1.4-0.2-2-0.5s-1.1-0.8-1.4-1.4c-0.3-0.6-0.5-1.4-0.5-2.2s0.2-1.6,0.5-2.2
			c0.3-0.6,0.8-1.1,1.4-1.5c0.6-0.4,1.3-0.5,2.1-0.5s1.4,0.2,2,0.5c0.6,0.4,1,0.8,1.3,1.4c0.3,0.6,0.4,1.2,0.4,1.8
			c0,0.1,0,0.2,0,0.3s0,0.2,0,0.4h-6.3c0,0.6,0.2,1.1,0.4,1.5s0.6,0.7,0.9,0.9c0.4,0.2,0.8,0.3,1.2,0.3c0.6,0,1-0.1,1.4-0.4
			c0.4-0.3,0.7-0.6,0.8-1h1.3c-0.2,0.7-0.6,1.4-1.2,1.8C183.5,39.7,182.8,39.9,181.8,39.9z M181.8,32.7c-0.6,0-1.2,0.2-1.7,0.6
			c-0.5,0.4-0.8,1-0.9,1.7h5c0-0.7-0.3-1.3-0.7-1.7C183.1,32.9,182.5,32.7,181.8,32.7z"/>
		<path class="st2" d="M187.4,39.7v-7.9h1.2l0.1,1.5c0.2-0.5,0.6-0.9,1.1-1.2s1.1-0.5,1.9-0.5V33h-0.4c-0.5,0-0.9,0.1-1.3,0.2
			c-0.4,0.2-0.7,0.4-0.9,0.8s-0.4,0.9-0.4,1.6v4h-1.3V39.7z"/>
		<path class="st2" d="M32.8,96.4c-0.8,0-1.4-0.2-2-0.5s-1.1-0.8-1.4-1.4c-0.4-0.6-0.5-1.4-0.5-2.2s0.2-1.6,0.5-2.2s0.8-1.1,1.4-1.4
			s1.3-0.5,2-0.5s1.4,0.2,2,0.5s1.1,0.8,1.4,1.4c0.4,0.6,0.5,1.4,0.5,2.2s-0.2,1.6-0.5,2.2c-0.4,0.6-0.8,1.1-1.4,1.4
			C34.3,96.2,33.6,96.4,32.8,96.4z M32.8,95.2c0.5,0,0.9-0.1,1.3-0.3s0.7-0.6,1-1c0.2-0.5,0.4-1,0.4-1.7s-0.1-1.2-0.4-1.7
			c-0.2-0.4-0.6-0.8-1-1s-0.8-0.3-1.3-0.3s-0.9,0.1-1.3,0.3c-0.4,0.2-0.7,0.6-1,1s-0.4,1-0.4,1.7s0.1,1.2,0.4,1.7
			c0.2,0.4,0.6,0.8,1,1S32.4,95.2,32.8,95.2z"/>
		<path class="st2" d="M38.7,96.2v-7.9h1.2l0.1,1.5c0.2-0.5,0.6-0.9,1.1-1.2s1.1-0.5,1.9-0.5v1.4h-0.4c-0.5,0-0.9,0.1-1.3,0.2
			c-0.4,0.2-0.7,0.4-0.9,0.8s-0.4,1-0.4,1.7v4H38.7z"/>
		<path class="st2" d="M51.8,96.4c-0.9,0-1.7-0.2-2.4-0.7c-0.6-0.5-1-1.1-1.1-1.9h1.4c0.1,0.4,0.3,0.8,0.7,1.1
			c0.4,0.3,0.8,0.5,1.5,0.5c0.6,0,1-0.1,1.2-0.4c0.3-0.2,0.4-0.5,0.4-0.9c0-0.5-0.2-0.8-0.5-1s-0.8-0.3-1.5-0.4
			c-0.4-0.1-0.8-0.2-1.3-0.4c-0.4-0.2-0.8-0.4-1.1-0.7c-0.3-0.3-0.4-0.7-0.4-1.2c0-0.7,0.3-1.3,0.8-1.7s1.2-0.7,2.1-0.7
			c0.8,0,1.5,0.2,2.1,0.6s0.8,1,0.9,1.8h-1.3c0-0.4-0.2-0.7-0.5-0.9s-0.7-0.3-1.2-0.3s-0.8,0.1-1.1,0.3C50.2,89.7,50,90,50,90.3
			s0.2,0.6,0.5,0.8c0.3,0.2,0.8,0.3,1.4,0.5c0.5,0.1,1,0.2,1.4,0.4c0.4,0.1,0.8,0.4,1.1,0.7c0.3,0.3,0.4,0.7,0.4,1.3
			c0,0.7-0.3,1.3-0.8,1.8C53.5,96.1,52.7,96.4,51.8,96.4z"/>
		<path class="st2" d="M60.4,96.4c-0.8,0-1.4-0.2-2-0.5s-1.1-0.8-1.4-1.4s-0.5-1.4-0.5-2.2s0.2-1.6,0.5-2.2s0.8-1.1,1.4-1.4
			c0.6-0.3,1.3-0.5,2-0.5c0.8,0,1.4,0.2,2,0.5s1.1,0.8,1.4,1.4c0.3,0.6,0.5,1.4,0.5,2.2s-0.2,1.6-0.5,2.2c-0.3,0.6-0.8,1.1-1.4,1.4
			C61.8,96.2,61.1,96.4,60.4,96.4z M60.4,95.2c0.5,0,0.9-0.1,1.3-0.3s0.7-0.6,1-1c0.2-0.5,0.4-1,0.4-1.7S63,91,62.7,90.5
			c-0.2-0.4-0.6-0.8-0.9-1c-0.4-0.2-0.8-0.3-1.3-0.3s-0.9,0.1-1.3,0.3c-0.4,0.2-0.7,0.6-1,1s-0.4,1-0.4,1.7s0.1,1.2,0.4,1.7
			c0.2,0.4,0.6,0.8,0.9,1C59.5,95.1,59.9,95.2,60.4,95.2z"/>
		<path class="st2" d="M74.1,96.4c-0.8,0-1.4-0.2-2-0.5s-1.1-0.8-1.4-1.4s-0.5-1.4-0.5-2.2s0.2-1.6,0.5-2.2s0.8-1.1,1.4-1.4
			s1.3-0.5,2-0.5c0.8,0,1.4,0.2,2,0.5s1.1,0.8,1.4,1.4s0.5,1.4,0.5,2.2s-0.2,1.6-0.5,2.2s-0.8,1.1-1.4,1.4
			C75.5,96.2,74.8,96.4,74.1,96.4z M74.1,95.2c0.5,0,0.9-0.1,1.3-0.3s0.7-0.6,1-1c0.2-0.5,0.4-1,0.4-1.7s-0.1-1.2-0.4-1.7
			c-0.2-0.4-0.6-0.8-0.9-1s-0.8-0.3-1.3-0.3s-0.9,0.1-1.3,0.3s-0.7,0.6-1,1s-0.4,1-0.4,1.7s0.1,1.2,0.4,1.7c0.2,0.4,0.6,0.8,0.9,1
			C73.2,95.1,73.6,95.2,74.1,95.2z"/>
		<path class="st2" d="M80.4,96.2v-6.8h-1.2v-1.1h1.2v-1.4c0-0.8,0.2-1.3,0.6-1.7c0.4-0.4,0.9-0.5,1.7-0.5h0.8v1.1h-0.6
			c-0.4,0-0.7,0.1-0.9,0.2s-0.3,0.4-0.3,0.8v1.3h2v1.1h-2V96L80.4,96.2L80.4,96.2z"/>
		<path class="st2" d="M93.7,96.4c-0.7,0-1.2-0.1-1.7-0.4s-0.9-0.6-1.2-1.1l-0.1,1.3h-1.2V84.7h1.3v4.9c0.3-0.4,0.6-0.7,1.1-1
			s1.1-0.5,1.8-0.5c0.8,0,1.5,0.2,2.1,0.5c0.6,0.4,1,0.9,1.4,1.5c0.3,0.6,0.5,1.3,0.5,2.1c0,0.8-0.2,1.5-0.5,2.1s-0.8,1.1-1.4,1.5
			S94.5,96.4,93.7,96.4z M93.6,95.2c0.5,0,1-0.1,1.4-0.4s0.7-0.6,1-1.1c0.2-0.4,0.3-1,0.3-1.6S96.2,91,96,90.5c-0.2-0.4-0.5-0.8-1-1
			s-0.9-0.4-1.4-0.4s-1,0.1-1.4,0.4c-0.4,0.2-0.7,0.6-1,1c-0.2,0.5-0.3,1-0.3,1.6s0.1,1.1,0.3,1.6c0.2,0.5,0.5,0.8,1,1.1
			C92.6,95.1,93,95.2,93.6,95.2z"/>
		<path class="st2" d="M103.1,96.4c-0.8,0-1.4-0.2-2-0.5c-0.6-0.4-1-0.8-1.4-1.4c-0.3-0.6-0.5-1.4-0.5-2.2c0-0.8,0.2-1.6,0.5-2.2
			s0.8-1.1,1.4-1.5s1.3-0.5,2.1-0.5c0.8,0,1.4,0.2,2,0.5s1,0.8,1.3,1.4s0.4,1.2,0.4,1.8c0,0.1,0,0.2,0,0.3c0,0.1,0,0.2,0,0.4h-6.3
			c0,0.6,0.2,1.1,0.4,1.5s0.6,0.7,0.9,0.9c0.4,0.2,0.8,0.3,1.2,0.3c0.6,0,1-0.1,1.4-0.4s0.7-0.6,0.8-1h1.3c-0.2,0.7-0.6,1.4-1.2,1.8
			C104.8,96.1,104,96.4,103.1,96.4z M103.1,89.2c-0.6,0-1.2,0.2-1.7,0.6s-0.8,1-0.9,1.7h5c0-0.7-0.3-1.3-0.7-1.7
			C104.3,89.4,103.8,89.2,103.1,89.2z"/>
		<path class="st2" d="M109.5,86.5c-0.3,0-0.5-0.1-0.7-0.3c-0.2-0.2-0.3-0.4-0.3-0.7s0.1-0.5,0.3-0.6c0.2-0.2,0.4-0.3,0.7-0.3
			s0.5,0.1,0.7,0.3c0.2,0.2,0.3,0.4,0.3,0.6c0,0.3-0.1,0.5-0.3,0.7C109.9,86.4,109.7,86.5,109.5,86.5z M108.8,96.2v-7.9h1.3v7.9
			H108.8z"/>
		<path class="st2" d="M112.5,96.2v-7.9h1.2l0.1,1.4c0.3-0.5,0.6-0.9,1.1-1.2c0.5-0.3,1-0.4,1.6-0.4c0.9,0,1.7,0.3,2.2,0.9
			c0.6,0.6,0.8,1.4,0.8,2.6v4.6h-1.3v-4.5c0-1.7-0.7-2.5-2.1-2.5c-0.7,0-1.2,0.2-1.7,0.7c-0.4,0.5-0.7,1.2-0.7,2.1v4.1L112.5,96.2
			L112.5,96.2z"/>
		<path class="st2" d="M124.8,93.7c-0.4,0-0.9-0.1-1.2-0.2l-0.8,0.8c0.1,0.1,0.3,0.2,0.4,0.2c0.2,0.1,0.4,0.1,0.8,0.2
			c0.3,0.1,0.8,0.1,1.4,0.2c1.1,0.1,1.8,0.3,2.3,0.7c0.5,0.4,0.7,1,0.7,1.6c0,0.5-0.1,0.9-0.4,1.3c-0.2,0.4-0.6,0.8-1.1,1
			c-0.5,0.3-1.2,0.4-2,0.4c-0.7,0-1.4-0.1-1.9-0.3c-0.6-0.2-1-0.5-1.3-0.8c-0.3-0.4-0.5-0.9-0.5-1.4c0-0.3,0.1-0.6,0.2-1
			c0.2-0.3,0.5-0.7,0.9-1c-0.2-0.1-0.4-0.2-0.6-0.3s-0.3-0.2-0.5-0.4v-0.4l1.4-1.3c-0.6-0.5-0.9-1.2-0.9-2.1c0-0.5,0.1-1,0.4-1.4
			c0.2-0.4,0.6-0.8,1.1-1s1-0.4,1.7-0.4c0.5,0,0.9,0.1,1.2,0.2h2.9v1l-1.5,0.1c0.3,0.4,0.5,1,0.5,1.5s-0.1,1-0.4,1.4
			c-0.2,0.4-0.6,0.8-1.1,1C126,93.6,125.4,93.7,124.8,93.7z M122.4,97.2c0,0.5,0.2,0.9,0.7,1.2c0.4,0.3,1,0.4,1.7,0.4
			s1.2-0.1,1.6-0.4s0.6-0.7,0.6-1.1c0-0.3-0.1-0.6-0.4-0.9c-0.3-0.2-0.8-0.4-1.5-0.4c-0.6,0-1.1-0.1-1.5-0.2
			c-0.4,0.2-0.7,0.5-0.9,0.8C122.5,96.8,122.4,97,122.4,97.2z M124.8,92.6c0.6,0,1-0.1,1.4-0.4c0.3-0.3,0.5-0.7,0.5-1.3
			c0-0.5-0.2-1-0.5-1.3s-0.8-0.4-1.4-0.4s-1,0.2-1.4,0.4c-0.3,0.3-0.5,0.7-0.5,1.3c0,0.5,0.2,1,0.5,1.3
			C123.7,92.4,124.2,92.6,124.8,92.6z"/>
		<path class="st2" d="M135.5,86.5c-0.3,0-0.5-0.1-0.7-0.3c-0.2-0.2-0.3-0.4-0.3-0.7s0.1-0.5,0.3-0.6c0.2-0.2,0.4-0.3,0.7-0.3
			s0.5,0.1,0.7,0.3c0.2,0.2,0.3,0.4,0.3,0.6c0,0.3-0.1,0.5-0.3,0.7C136,86.4,135.8,86.5,135.5,86.5z M134.8,96.2v-7.9h1.3v7.9H134.8
			z"/>
		<path class="st2" d="M138.5,96.2v-7.9h1.2l0.1,1.4c0.3-0.5,0.6-0.9,1.1-1.2c0.5-0.3,1-0.4,1.6-0.4c0.9,0,1.7,0.3,2.2,0.9
			c0.6,0.6,0.8,1.4,0.8,2.6v4.6h-1.3v-4.5c0-1.7-0.7-2.5-2-2.5c-0.7,0-1.2,0.2-1.7,0.7c-0.4,0.5-0.7,1.2-0.7,2.1v4.1L138.5,96.2
			L138.5,96.2z"/>
		<path class="st2" d="M33.5,118.4c-0.6,0-1.2-0.1-1.7-0.4s-0.9-0.6-1.2-1.1l-0.1,1.3h-1.2v-11.5h1.3v4.9c0.3-0.4,0.6-0.7,1.1-1
			s1.1-0.5,1.8-0.5c0.8,0,1.5,0.2,2.1,0.5c0.6,0.4,1,0.9,1.4,1.5c0.3,0.6,0.5,1.3,0.5,2.1c0,0.8-0.2,1.5-0.5,2.1s-0.8,1.1-1.4,1.5
			C34.9,118.2,34.2,118.4,33.5,118.4z M33.3,117.2c0.5,0,1-0.1,1.4-0.4s0.7-0.6,1-1.1c0.2-0.4,0.4-1,0.4-1.6s-0.1-1.1-0.4-1.6
			c-0.2-0.4-0.5-0.8-1-1s-0.9-0.4-1.4-0.4s-1,0.1-1.4,0.4c-0.4,0.2-0.7,0.6-1,1c-0.2,0.5-0.4,1-0.4,1.6s0.1,1.1,0.4,1.6
			c0.2,0.5,0.5,0.8,1,1.1C32.3,117.1,32.8,117.2,33.3,117.2z"/>
		<path class="st2" d="M42.8,118.4c-0.8,0-1.4-0.2-2-0.5s-1-0.8-1.4-1.4c-0.3-0.6-0.5-1.4-0.5-2.2c0-0.8,0.2-1.6,0.5-2.2
			s0.8-1.1,1.4-1.5c0.6-0.4,1.3-0.5,2.1-0.5s1.4,0.2,2,0.5s1,0.8,1.3,1.4s0.5,1.2,0.5,1.8c0,0.1,0,0.2,0,0.3c0,0.1,0,0.2,0,0.4h-6.3
			c0,0.6,0.2,1.1,0.4,1.5s0.6,0.7,0.9,0.9c0.4,0.2,0.8,0.3,1.2,0.3c0.5,0,1-0.1,1.4-0.4s0.7-0.6,0.8-1h1.3c-0.2,0.7-0.6,1.4-1.2,1.8
			C44.5,118.1,43.8,118.4,42.8,118.4z M42.8,111.2c-0.6,0-1.2,0.2-1.7,0.6s-0.8,1-0.9,1.7h5c0-0.7-0.3-1.3-0.7-1.7
			C44.1,111.4,43.5,111.2,42.8,111.2z"/>
		<path class="st2" d="M52,118.4c-0.8,0-1.5-0.2-2.1-0.5c-0.6-0.4-1.1-0.9-1.4-1.5c-0.3-0.6-0.5-1.3-0.5-2.1c0-0.8,0.2-1.5,0.5-2.1
			s0.8-1.1,1.4-1.5c0.6-0.4,1.3-0.5,2.1-0.5c0.7,0,1.2,0.1,1.7,0.4s0.9,0.6,1.2,1.1v-4.9h1.3v11.5H55l-0.1-1.3
			c-0.3,0.4-0.6,0.7-1.1,1C53.3,118.2,52.7,118.4,52,118.4z M52.1,117.2c0.5,0,1-0.1,1.4-0.4c0.4-0.2,0.7-0.6,1-1.1
			c0.2-0.4,0.3-1,0.3-1.6s-0.1-1.1-0.3-1.6c-0.2-0.4-0.6-0.8-1-1s-0.9-0.4-1.4-0.4s-1,0.1-1.4,0.4c-0.4,0.2-0.7,0.6-1,1
			c-0.2,0.5-0.3,1-0.3,1.6s0.1,1.1,0.3,1.6s0.5,0.8,1,1.1C51.1,117.1,51.6,117.2,52.1,117.2z"/>
		<path class="st2" d="M57.3,120.1l0.9-3.5h1.4l-1.4,3.5H57.3z"/>
		<path class="st2" d="M68.6,115.7c-0.4,0-0.9-0.1-1.2-0.2l-0.8,0.8c0.1,0.1,0.3,0.2,0.4,0.2c0.2,0.1,0.4,0.1,0.8,0.2
			c0.3,0.1,0.8,0.1,1.4,0.2c1.1,0.1,1.8,0.3,2.3,0.7c0.5,0.4,0.7,1,0.7,1.6c0,0.5-0.1,0.9-0.4,1.3c-0.2,0.4-0.6,0.8-1.2,1
			c-0.5,0.3-1.2,0.4-2,0.4c-0.7,0-1.4-0.1-1.9-0.3c-0.6-0.2-1-0.5-1.3-0.8c-0.3-0.4-0.5-0.9-0.5-1.4c0-0.3,0.1-0.6,0.2-1
			c0.2-0.3,0.5-0.7,0.9-1c-0.2-0.1-0.4-0.2-0.6-0.3c-0.2-0.1-0.3-0.2-0.5-0.4v-0.4l1.4-1.3c-0.6-0.5-0.9-1.2-0.9-2.1
			c0-0.5,0.1-1,0.4-1.4c0.2-0.4,0.6-0.8,1.1-1s1-0.4,1.7-0.4c0.5,0,0.9,0.1,1.2,0.2h2.9v1l-1.5,0.1c0.3,0.4,0.5,1,0.5,1.5
			s-0.1,1-0.4,1.4c-0.2,0.4-0.6,0.8-1.1,1C69.9,115.6,69.3,115.7,68.6,115.7z M66.3,119.2c0,0.5,0.2,0.9,0.7,1.2
			c0.4,0.3,1,0.4,1.7,0.4s1.2-0.1,1.6-0.4s0.6-0.7,0.6-1.1c0-0.3-0.1-0.6-0.4-0.9S69.7,118,69,118c-0.6,0-1.1-0.1-1.5-0.2
			c-0.4,0.2-0.7,0.5-0.9,0.8C66.4,118.8,66.3,119,66.3,119.2z M68.6,114.6c0.6,0,1-0.1,1.3-0.4s0.5-0.7,0.5-1.3c0-0.5-0.2-1-0.5-1.3
			s-0.8-0.4-1.3-0.4c-0.6,0-1,0.2-1.4,0.4c-0.3,0.3-0.5,0.7-0.5,1.3c0,0.5,0.2,1,0.5,1.3C67.6,114.4,68.1,114.6,68.6,114.6z"/>
		<path class="st2" d="M77.6,118.4c-0.8,0-1.4-0.2-2-0.5c-0.6-0.4-1-0.8-1.4-1.4c-0.3-0.6-0.5-1.4-0.5-2.2c0-0.8,0.2-1.6,0.5-2.2
			s0.8-1.1,1.4-1.5s1.3-0.5,2.1-0.5c0.8,0,1.4,0.2,2,0.5s1,0.8,1.3,1.4s0.4,1.2,0.4,1.8c0,0.1,0,0.2,0,0.3c0,0.1,0,0.2,0,0.4H75
			c0,0.6,0.2,1.1,0.4,1.5s0.6,0.7,0.9,0.9c0.4,0.2,0.8,0.3,1.2,0.3c0.5,0,1-0.1,1.4-0.4c0.4-0.2,0.6-0.6,0.8-1H81
			c-0.2,0.7-0.6,1.4-1.2,1.8C79.3,118.1,78.5,118.4,77.6,118.4z M77.6,111.2c-0.6,0-1.2,0.2-1.7,0.6s-0.8,1-0.9,1.7h5
			c0-0.7-0.3-1.3-0.7-1.7C78.8,111.4,78.3,111.2,77.6,111.2z"/>
		<path class="st2" d="M86,118.2c-0.7,0-1.3-0.2-1.7-0.5c-0.4-0.4-0.6-1-0.6-1.9v-4.4h-1.4v-1.1h1.4l0.2-1.9H85v1.9h2.3v1.1H85v4.4
			c0,0.5,0.1,0.8,0.3,1c0.2,0.2,0.6,0.3,1.1,0.3h0.8v1.2L86,118.2L86,118.2z"/>
		<path class="st2" d="M96.2,118.4c-0.9,0-1.7-0.3-2.2-0.9c-0.6-0.6-0.8-1.4-0.8-2.6v-4.6h1.3v4.5c0,1.6,0.7,2.5,2,2.5
			c0.7,0,1.3-0.2,1.7-0.7c0.5-0.5,0.7-1.2,0.7-2.1v-4.1h1.3v7.9H99l-0.1-1.4c-0.2,0.5-0.6,0.9-1.1,1.2
			C97.3,118.2,96.8,118.4,96.2,118.4z"/>
		<path class="st2" d="M102.4,121.7v-11.5h1.2l0.1,1.3c0.3-0.4,0.6-0.7,1.1-1s1.1-0.5,1.8-0.5c0.8,0,1.5,0.2,2.1,0.5
			c0.6,0.4,1,0.9,1.4,1.5c0.3,0.6,0.5,1.3,0.5,2.1s-0.2,1.5-0.5,2.1s-0.8,1.1-1.4,1.5s-1.3,0.5-2.1,0.5c-0.7,0-1.2-0.1-1.7-0.4
			s-0.9-0.6-1.2-1.1v4.9L102.4,121.7L102.4,121.7z M106.5,117.2c0.5,0,1-0.1,1.4-0.4c0.4-0.2,0.7-0.6,1-1.1c0.2-0.4,0.3-1,0.3-1.6
			s-0.1-1.1-0.3-1.6c-0.2-0.4-0.6-0.8-1-1s-0.9-0.4-1.4-0.4s-1,0.1-1.4,0.4c-0.4,0.2-0.7,0.6-1,1c-0.2,0.5-0.4,1-0.4,1.6
			s0.1,1.1,0.4,1.6c0.2,0.5,0.5,0.8,1,1.1C105.5,117.1,106,117.2,106.5,117.2z"/>
		<path class="st2" d="M119.4,118.4c-0.7,0-1.2-0.1-1.6-0.3c-0.4-0.2-0.8-0.5-1-0.9s-0.3-0.8-0.3-1.2c0-0.8,0.3-1.4,0.9-1.9
			c0.6-0.4,1.5-0.7,2.5-0.7h2.1v-0.1c0-0.7-0.2-1.2-0.5-1.6s-0.9-0.5-1.5-0.5c-0.5,0-1,0.1-1.3,0.4c-0.4,0.3-0.6,0.6-0.7,1.1h-1.4
			c0-0.6,0.2-1.1,0.6-1.5c0.3-0.4,0.8-0.7,1.3-0.9c0.5-0.2,1-0.3,1.6-0.3c1.1,0,1.9,0.3,2.5,0.9s0.8,1.4,0.8,2.4v4.9h-1.2l-0.1-1.4
			c-0.2,0.4-0.6,0.8-1,1.1C120.7,118.2,120.1,118.4,119.4,118.4z M119.6,117.2c0.5,0,0.9-0.1,1.3-0.4s0.6-0.6,0.8-1
			c0.2-0.4,0.3-0.9,0.3-1.3l0,0h-2c-0.8,0-1.4,0.1-1.7,0.4c-0.3,0.3-0.5,0.6-0.5,1s0.1,0.8,0.5,1C118.6,117.1,119,117.2,119.6,117.2
			z"/>
		<path class="st2" d="M125.4,118.2v-7.9h1.2l0.1,1.4c0.3-0.5,0.6-0.9,1.1-1.2c0.5-0.3,1-0.4,1.6-0.4c0.9,0,1.7,0.3,2.2,0.9
			c0.6,0.6,0.8,1.4,0.8,2.6v4.6h-1.3v-4.5c0-1.7-0.7-2.5-2.1-2.5c-0.7,0-1.2,0.2-1.7,0.7c-0.4,0.5-0.7,1.2-0.7,2.1v4.1L125.4,118.2
			L125.4,118.2z"/>
		<path class="st2" d="M138.1,118.4c-0.8,0-1.5-0.2-2.1-0.5s-1.1-0.9-1.4-1.5c-0.3-0.6-0.5-1.3-0.5-2.1c0-0.8,0.2-1.5,0.5-2.1
			s0.8-1.1,1.4-1.5c0.6-0.4,1.3-0.5,2.1-0.5c0.7,0,1.2,0.1,1.7,0.4s0.9,0.6,1.2,1.1v-4.9h1.3v11.5h-1.2L141,117
			c-0.3,0.4-0.6,0.7-1.1,1S138.9,118.4,138.1,118.4z M138.3,117.2c0.5,0,1-0.1,1.4-0.4s0.7-0.6,1-1.1c0.2-0.4,0.3-1,0.3-1.6
			s-0.1-1.1-0.3-1.6c-0.2-0.4-0.5-0.8-1-1s-0.9-0.4-1.4-0.4s-1,0.1-1.4,0.4c-0.4,0.2-0.7,0.6-1,1c-0.2,0.5-0.3,1-0.3,1.6
			s0.1,1.1,0.3,1.6s0.6,0.8,1,1.1C137.3,117.1,137.7,117.2,138.3,117.2z"/>
		<path class="st2" d="M151.9,115.7c-0.4,0-0.9-0.1-1.2-0.2l-0.8,0.8c0.1,0.1,0.3,0.2,0.4,0.2c0.2,0.1,0.4,0.1,0.8,0.2
			c0.3,0.1,0.8,0.1,1.4,0.2c1.1,0.1,1.8,0.3,2.3,0.7c0.5,0.4,0.7,1,0.7,1.6c0,0.5-0.1,0.9-0.4,1.3c-0.2,0.4-0.6,0.8-1.1,1
			c-0.5,0.3-1.2,0.4-2,0.4c-0.7,0-1.4-0.1-1.9-0.3c-0.6-0.2-1-0.5-1.3-0.8c-0.3-0.4-0.5-0.9-0.5-1.4c0-0.3,0.1-0.6,0.2-1
			c0.2-0.3,0.5-0.7,0.9-1c-0.2-0.1-0.4-0.2-0.6-0.3c-0.2-0.1-0.3-0.2-0.5-0.4v-0.4l1.4-1.3c-0.6-0.5-0.9-1.2-0.9-2.1
			c0-0.5,0.1-1,0.4-1.4c0.2-0.4,0.6-0.8,1.1-1s1-0.4,1.7-0.4c0.5,0,0.9,0.1,1.2,0.2h2.9v1l-1.5,0.1c0.3,0.4,0.5,1,0.5,1.5
			s-0.1,1-0.4,1.4c-0.2,0.4-0.6,0.8-1.1,1C153.2,115.6,152.6,115.7,151.9,115.7z M149.6,119.2c0,0.5,0.2,0.9,0.7,1.2
			c0.5,0.3,1,0.4,1.7,0.4s1.2-0.1,1.6-0.4c0.4-0.3,0.6-0.7,0.6-1.1c0-0.3-0.1-0.6-0.4-0.9s-0.8-0.4-1.5-0.4c-0.6,0-1.1-0.1-1.5-0.2
			c-0.4,0.2-0.7,0.5-0.9,0.8C149.7,118.8,149.6,119,149.6,119.2z M151.9,114.6c0.6,0,1-0.1,1.4-0.4c0.3-0.3,0.5-0.7,0.5-1.3
			c0-0.5-0.2-1-0.5-1.3s-0.8-0.4-1.4-0.4c-0.6,0-1,0.2-1.4,0.4c-0.3,0.3-0.5,0.7-0.5,1.3c0,0.5,0.2,1,0.5,1.3
			C150.9,114.4,151.4,114.6,151.9,114.6z"/>
		<path class="st2" d="M160.9,118.4c-0.8,0-1.4-0.2-2-0.5s-1.1-0.8-1.4-1.4c-0.3-0.6-0.5-1.4-0.5-2.2s0.2-1.6,0.5-2.2
			s0.8-1.1,1.4-1.4c0.6-0.3,1.3-0.5,2-0.5c0.8,0,1.4,0.2,2,0.5s1.1,0.8,1.4,1.4c0.3,0.6,0.5,1.4,0.5,2.2s-0.2,1.6-0.5,2.2
			s-0.8,1.1-1.4,1.4C162.4,118.2,161.7,118.4,160.9,118.4z M160.9,117.2c0.5,0,0.9-0.1,1.3-0.3c0.4-0.2,0.7-0.6,1-1
			c0.2-0.5,0.4-1,0.4-1.7s-0.1-1.2-0.4-1.7c-0.2-0.4-0.6-0.8-0.9-1s-0.8-0.3-1.3-0.3s-0.9,0.1-1.3,0.3s-0.7,0.6-1,1s-0.4,1-0.4,1.7
			s0.1,1.2,0.4,1.7s0.6,0.8,0.9,1C160.1,117.1,160.5,117.2,160.9,117.2z"/>
		<path class="st2" d="M30,130.5c-0.3,0-0.5-0.1-0.7-0.3s-0.3-0.4-0.3-0.7s0.1-0.5,0.3-0.6c0.2-0.2,0.4-0.3,0.7-0.3
			c0.3,0,0.5,0.1,0.7,0.3s0.3,0.4,0.3,0.6c0,0.3-0.1,0.5-0.3,0.7C30.5,130.4,30.3,130.5,30,130.5z M29.4,140.2v-7.9h1.3v7.9H29.4z"
			/>
		<path class="st2" d="M33,140.2v-7.9h1.2l0.1,1.4c0.3-0.5,0.6-0.9,1.1-1.2s1-0.4,1.6-0.4c0.9,0,1.7,0.3,2.2,0.9s0.8,1.4,0.8,2.6
			v4.6h-1.3v-4.5c0-1.6-0.7-2.5-2-2.5c-0.7,0-1.2,0.2-1.7,0.7s-0.7,1.2-0.7,2.1v4.1L33,140.2L33,140.2z"/>
		<path class="st2" d="M45.3,140.2c-0.7,0-1.3-0.2-1.7-0.5s-0.6-1-0.6-1.9v-4.4h-1.4v-1.1H43l0.2-1.9h1.2v1.9h2.3v1.1h-2.3v4.4
			c0,0.5,0.1,0.8,0.3,1s0.6,0.3,1.1,0.3h0.8v1.1L45.3,140.2L45.3,140.2z"/>
		<path class="st2" d="M51.8,140.4c-0.8,0-1.4-0.2-2-0.5s-1.1-0.8-1.4-1.4c-0.3-0.6-0.5-1.4-0.5-2.2s0.2-1.6,0.5-2.2
			c0.3-0.6,0.8-1.1,1.4-1.4c0.6-0.3,1.3-0.5,2-0.5c0.8,0,1.4,0.2,2,0.5s1.1,0.8,1.4,1.4c0.3,0.6,0.5,1.4,0.5,2.2s-0.2,1.6-0.5,2.2
			c-0.3,0.6-0.8,1.1-1.4,1.4C53.2,140.2,52.5,140.4,51.8,140.4z M51.8,139.2c0.5,0,0.9-0.1,1.3-0.3c0.4-0.2,0.7-0.6,1-1
			c0.2-0.5,0.4-1,0.4-1.7s-0.1-1.2-0.4-1.7s-0.6-0.8-0.9-1c-0.4-0.2-0.8-0.3-1.3-0.3s-0.9,0.1-1.3,0.3c-0.4,0.2-0.7,0.6-1,1
			s-0.4,1-0.4,1.7s0.1,1.2,0.4,1.7s0.6,0.8,0.9,1C50.9,139.1,51.3,139.2,51.8,139.2z"/>
		<path class="st2" d="M64.5,140.4c-0.7,0-1.2-0.1-1.7-0.3c-0.4-0.2-0.8-0.5-1-0.9s-0.3-0.8-0.3-1.2c0-0.8,0.3-1.4,0.9-1.9
			s1.5-0.7,2.5-0.7H67v-0.1c0-0.7-0.2-1.2-0.5-1.6c-0.4-0.4-0.8-0.5-1.5-0.5c-0.5,0-1,0.1-1.3,0.4c-0.4,0.3-0.6,0.6-0.7,1.1h-1.4
			c0-0.6,0.2-1.1,0.6-1.5c0.3-0.4,0.8-0.7,1.3-0.9s1-0.3,1.6-0.3c1.1,0,1.9,0.3,2.5,0.9c0.6,0.6,0.8,1.4,0.8,2.4v4.9h-1.2l-0.1-1.4
			c-0.2,0.5-0.6,0.8-1,1.1C65.8,140.2,65.2,140.4,64.5,140.4z M64.7,139.2c0.5,0,0.9-0.1,1.3-0.4c0.4-0.3,0.7-0.6,0.8-1
			c0.2-0.4,0.3-0.9,0.3-1.3l0,0h-2c-0.8,0-1.3,0.1-1.7,0.4c-0.3,0.3-0.5,0.6-0.5,1s0.1,0.8,0.5,1C63.7,139.1,64.2,139.2,64.7,139.2z
			"/>
		<path class="st2" d="M70.5,140.2v-7.9h1.2l0.1,1.4c0.3-0.5,0.6-0.9,1.1-1.2s1-0.4,1.6-0.4c0.9,0,1.7,0.3,2.2,0.9
			c0.6,0.6,0.8,1.4,0.8,2.6v4.6h-1.3v-4.5c0-1.6-0.7-2.5-2-2.5c-0.7,0-1.2,0.2-1.7,0.7c-0.4,0.5-0.7,1.2-0.7,2.1v4.1L70.5,140.2
			L70.5,140.2z"/>
		<path class="st2" d="M83.3,140.4c-0.8,0-1.4-0.2-2-0.5s-1.1-0.8-1.4-1.4c-0.3-0.6-0.5-1.4-0.5-2.2s0.2-1.6,0.5-2.2
			c0.3-0.6,0.8-1.1,1.4-1.4c0.6-0.3,1.3-0.5,2-0.5c0.8,0,1.4,0.2,2,0.5s1.1,0.8,1.4,1.4c0.3,0.6,0.5,1.4,0.5,2.2s-0.2,1.6-0.5,2.2
			c-0.3,0.6-0.8,1.1-1.4,1.4S84,140.4,83.3,140.4z M83.3,139.2c0.5,0,0.9-0.1,1.3-0.3s0.7-0.6,1-1c0.2-0.5,0.4-1,0.4-1.7
			s-0.1-1.2-0.4-1.7c-0.2-0.4-0.6-0.8-1-1s-0.8-0.3-1.3-0.3s-0.9,0.1-1.3,0.3s-0.7,0.6-1,1s-0.4,1-0.4,1.7s0.1,1.2,0.4,1.7
			s0.6,0.8,1,1C82.4,139.1,82.8,139.2,83.3,139.2z"/>
		<path class="st2" d="M92,140.2c-0.7,0-1.3-0.2-1.7-0.5c-0.4-0.4-0.6-1-0.6-1.9v-4.4h-1.4v-1.1h1.4l0.2-1.9H91v1.9h2.3v1.1H91v4.4
			c0,0.5,0.1,0.8,0.3,1c0.2,0.2,0.6,0.3,1.1,0.3h0.8v1.1L92,140.2L92,140.2z"/>
		<path class="st2" d="M95,140.2v-11.5h1.3v4.9c0.3-0.5,0.6-0.9,1.1-1.1c0.5-0.3,1-0.4,1.6-0.4c0.9,0,1.7,0.3,2.2,0.9
			c0.6,0.6,0.8,1.4,0.8,2.6v4.6h-1.3v-4.5c0-1.6-0.7-2.5-2-2.5c-0.7,0-1.3,0.2-1.7,0.7c-0.5,0.5-0.7,1.2-0.7,2.1v4.1L95,140.2
			L95,140.2z"/>
		<path class="st2" d="M107.7,140.4c-0.8,0-1.4-0.2-2-0.5s-1.1-0.8-1.4-1.4c-0.3-0.6-0.5-1.4-0.5-2.2s0.2-1.6,0.5-2.2
			s0.8-1.1,1.4-1.5s1.3-0.5,2.1-0.5c0.8,0,1.4,0.2,2,0.5s1,0.8,1.3,1.4c0.3,0.6,0.4,1.2,0.4,1.8c0,0.1,0,0.2,0,0.4
			c0,0.1,0,0.2,0,0.4h-6.3c0,0.6,0.2,1.1,0.4,1.5s0.6,0.7,0.9,0.9c0.4,0.2,0.8,0.3,1.2,0.3c0.6,0,1-0.1,1.4-0.4
			c0.4-0.3,0.6-0.6,0.8-1h1.3c-0.2,0.7-0.6,1.4-1.2,1.8C109.5,140.1,108.7,140.4,107.7,140.4z M107.7,133.2c-0.6,0-1.2,0.2-1.7,0.6
			c-0.5,0.4-0.8,1-0.9,1.7h5c0-0.7-0.3-1.3-0.7-1.7C109,133.4,108.4,133.2,107.7,133.2z"/>
		<path class="st2" d="M113.3,140.2v-7.9h1.2l0.1,1.5c0.2-0.5,0.6-0.9,1.1-1.2s1.1-0.5,1.9-0.5v1.4h-0.4c-0.5,0-0.9,0.1-1.3,0.2
			c-0.4,0.2-0.7,0.5-0.9,0.8c-0.2,0.4-0.3,0.9-0.3,1.6v4L113.3,140.2L113.3,140.2z"/>
		<path class="st2" d="M123.3,140.2v-7.9h1.2l0.1,1.5c0.2-0.5,0.6-0.9,1.1-1.2s1.1-0.5,1.9-0.5v1.4h-0.4c-0.5,0-0.9,0.1-1.3,0.2
			c-0.4,0.2-0.7,0.5-0.9,0.8c-0.2,0.4-0.4,0.9-0.4,1.6v4L123.3,140.2L123.3,140.2z"/>
		<path class="st2" d="M132.4,140.4c-0.8,0-1.4-0.2-2-0.5s-1.1-0.8-1.4-1.4c-0.3-0.6-0.5-1.4-0.5-2.2s0.2-1.6,0.5-2.2
			c0.3-0.6,0.8-1.1,1.4-1.4c0.6-0.3,1.3-0.5,2-0.5c0.8,0,1.4,0.2,2,0.5s1.1,0.8,1.4,1.4c0.3,0.6,0.5,1.4,0.5,2.2s-0.2,1.6-0.5,2.2
			c-0.3,0.6-0.8,1.1-1.4,1.4S133.2,140.4,132.4,140.4z M132.4,139.2c0.5,0,0.9-0.1,1.3-0.3c0.4-0.2,0.7-0.6,1-1
			c0.2-0.5,0.4-1,0.4-1.7s-0.1-1.2-0.4-1.7c-0.2-0.5-0.6-0.8-0.9-1c-0.4-0.2-0.8-0.3-1.3-0.3s-0.9,0.1-1.3,0.3c-0.4,0.2-0.7,0.6-1,1
			s-0.4,1-0.4,1.7s0.1,1.2,0.4,1.7c0.2,0.4,0.6,0.8,0.9,1C131.6,139.1,132,139.2,132.4,139.2z"/>
		<path class="st2" d="M141.9,140.4c-0.8,0-1.4-0.2-2-0.5s-1.1-0.8-1.4-1.4c-0.3-0.6-0.5-1.4-0.5-2.2s0.2-1.6,0.5-2.2
			c0.3-0.6,0.8-1.1,1.4-1.4c0.6-0.3,1.3-0.5,2-0.5c0.8,0,1.4,0.2,2,0.5s1.1,0.8,1.4,1.4c0.3,0.6,0.5,1.4,0.5,2.2s-0.2,1.6-0.5,2.2
			c-0.3,0.6-0.8,1.1-1.4,1.4C143.3,140.2,142.7,140.4,141.9,140.4z M141.9,139.2c0.5,0,0.9-0.1,1.3-0.3c0.4-0.2,0.7-0.6,1-1
			c0.2-0.5,0.4-1,0.4-1.7s-0.1-1.2-0.4-1.7s-0.6-0.8-0.9-1c-0.4-0.2-0.8-0.3-1.3-0.3s-0.9,0.1-1.3,0.3c-0.4,0.2-0.7,0.6-1,1
			s-0.4,1-0.4,1.7s0.1,1.2,0.4,1.7s0.6,0.8,0.9,1C141.1,139.1,141.5,139.2,141.9,139.2z"/>
		<path class="st2" d="M147.8,140.2v-7.9h1.2l0.1,1.1c0.3-0.4,0.6-0.8,1-1s0.9-0.4,1.4-0.4c0.6,0,1.2,0.1,1.6,0.4
			c0.5,0.3,0.8,0.6,1.1,1.2c0.3-0.5,0.7-0.9,1.1-1.1c0.5-0.3,1-0.4,1.6-0.4c0.9,0,1.7,0.3,2.3,0.9c0.6,0.6,0.9,1.4,0.9,2.6v4.6h-1.3
			v-4.5c0-0.8-0.2-1.4-0.5-1.9c-0.3-0.4-0.8-0.6-1.4-0.6c-0.6,0-1.2,0.2-1.6,0.7c-0.4,0.5-0.6,1.2-0.6,2.1v4.1h-1.3v-4.5
			c0-0.8-0.2-1.4-0.5-1.9c-0.3-0.4-0.8-0.6-1.4-0.6c-0.6,0-1.2,0.2-1.6,0.7c-0.4,0.5-0.6,1.2-0.6,2.1v4.1L147.8,140.2L147.8,140.2z"
			/>
		<path class="st2" d="M162.6,140.3c-0.3,0-0.5-0.1-0.7-0.3s-0.3-0.4-0.3-0.7s0.1-0.5,0.3-0.6c0.2-0.2,0.4-0.3,0.7-0.3
			s0.5,0.1,0.7,0.3s0.3,0.4,0.3,0.6c0,0.3-0.1,0.5-0.3,0.7C163,140.2,162.8,140.3,162.6,140.3z"/>
		<path class="st3" d="M300.6,68.6h-85.5c-2.3,0-4.2-1.9-4.2-4.2V25.8c0-2.3,1.9-4.2,4.2-4.2h85.5c2.3,0,4.2,1.9,4.2,4.2v38.6
			C304.8,66.7,302.9,68.6,300.6,68.6z"/>
		<path class="st1" d="M296.9,64.6h-78.2c-2.3,0-4.2-1.9-4.2-4.2V29.8c0-2.3,1.9-4.2,4.2-4.2h78.2c2.3,0,4.2,1.9,4.2,4.2v30.7
			C301.1,62.8,299.2,64.6,296.9,64.6z"/>
		<path class="st4" d="M227.3,34.2c0.4-0.1,1.1-0.1,1.8-0.1c1.6,0,2.7,0.1,3.1,0.4c0.3,0.2,0.5,0.5,0.5,1.1c0,0.5-0.2,0.8-0.5,1.1
			s-0.7,0.4-1.3,0.4c-0.4,0-0.7,0.1-0.9,0.3s-0.2,0.7-0.2,1.5c0,0.2,0,1,0.1,2.4c0.1,1.7,0.2,2.8,0.3,3.2s0.4,0.7,0.9,0.7
			c0.1,0,0.4,0,0.8-0.1c0.1,0,0.1,0,0.2,0c0.1,0,0.1,0,0.2,0c0.3,0,0.7,0.2,1.1,0.5l0.7,0.6l-0.5,0.6c-0.4,0.4-1,0.8-1.9,1.1
			c-0.8,0.2-1.2,0.4-1.3,0.5s-0.2,0.4-0.2,0.9c0,0.1,0,0.2,0,0.5c0,0.2,0,0.4,0,0.5c0,2.1,0.1,3.5,0.4,4.1c0.1,0.2,0.2,0.4,0.4,0.5
			s0.5,0.1,1,0.1c0.7,0,1.3,0.1,1.8,0.4c0.5,0.3,0.7,0.6,0.7,1.1s-0.3,0.8-0.8,1.2c-0.6,0.4-1.2,0.7-1.9,0.8
			c-0.6,0.1-1.2,0.2-1.8,0.2c-0.7,0-1.4-0.1-2.2-0.3c-0.5-0.1-0.8-0.2-1-0.4c-0.2-0.1-0.4-0.5-0.5-1.1c-0.2-0.6-0.2-1.4-0.3-2.3
			c0-0.9,0-2.5-0.1-4.5c0-0.2,0-0.5,0-0.6c-0.1-5.3-0.1-8.9-0.2-10.9c0-0.5-0.1-1.2-0.1-1.9c0-0.9,0.1-1.5,0.3-1.8
			C226.1,34.6,226.5,34.4,227.3,34.2z"/>
		<path class="st4" d="M240.8,32.2c0.1-0.1,0.2-0.1,0.4-0.2c0.1,0,0.2-0.1,0.3-0.1l0.1-0.1c0.1,0,0.4,0.1,0.8,0.3
			c0.5,0.2,0.8,0.6,0.8,1.1c0.7,3,1.2,4.7,1.6,5c0.1,0.1,0.1,0.1,0.1,0.1c0.1,0,0.4-1,0.8-2.9c0.3-1.5,0.6-2.4,0.8-2.6
			c0.3-0.4,1.1-0.6,2.4-0.6h0.1c0.2,0,0.5,0.2,1,0.5c0.4,0.3,0.7,0.7,0.7,1.3c0,0.4-0.1,1-0.3,1.6c-0.2,0.8-0.6,2.1-1.2,4
			s-0.9,3.2-1.2,4c-0.4,1.4-0.7,2.3-0.7,2.8c0,0.2,0.1,0.6,0.2,1.4c0.1,0.7,0.3,1.5,0.6,2.2s0.5,1.5,0.6,2.1c0.3,1.6,0.7,3,1.2,4
			c0.2,0.4,0.2,0.7,0.2,1c0,0.7-0.2,1.2-0.6,1.6c-0.3,0.3-0.7,0.5-1.1,0.5c-0.2,0-0.5,0-0.7,0c-0.7-0.1-1.2-0.3-1.6-0.6
			c-0.4-0.3-0.7-0.9-1-1.8l-0.4-1.3l-0.3,0.7c-0.2,0.5-0.3,1-0.3,1.4c0,0.5-0.2,1.1-0.6,1.6c-0.4,0.5-0.8,0.8-1.3,0.8h-0.1
			c-0.5,0-1.1-0.2-1.8-0.5s-1-0.7-1-1.1c0-0.4,0.2-1.1,0.5-1.9c0.2-0.6,0.5-1.3,0.7-2.1s0.4-1.5,0.6-1.9c0.7-2.1,1.2-3.8,1.4-5
			c0.1-0.4,0.1-0.8,0.1-1.2c0-0.8-0.8-3.7-2.5-9c-0.5-1.5-0.7-2.5-0.8-3.2c0-0.1-0.1-0.3-0.1-0.5C239.3,33,239.8,32.5,240.8,32.2z"
			/>
		<path class="st4" d="M255.9,33.9c0.4-0.3,0.8-0.4,1.3-0.4c0.6,0,1.1,0.2,1.5,0.6c0.3,0.3,0.5,0.8,0.5,1.4c0.1,0.6,0.1,2.6,0.2,5.9
			c0.2,6.3,0.2,10.2,0.3,11.5l0.1,5l-0.8,0.4c-0.4,0.2-0.7,0.3-0.8,0.3c-0.2,0-0.6-0.1-1-0.3c-0.8-0.3-1.2-0.5-1.3-0.7
			c-0.2-0.2-0.2-2.5-0.2-7v-2.1c0-5.7-0.1-9.5-0.2-11.5c-0.1-1.1-0.1-1.7-0.1-1.8C255.5,34.6,255.6,34.2,255.9,33.9z"/>
		<path class="st4" d="M265.5,32.7c0.5-0.4,1.1-0.6,1.8-0.6c0.1,0,0.3,0,0.6,0c0.3,0,0.5,0,0.8,0c3.2,0.1,5.1,0.4,5.9,0.8
			c0.6,0.3,0.9,0.7,0.9,1.3c0,0.2-0.1,0.6-0.2,0.9c-0.2,0.4-0.7,0.7-1.4,0.8c-0.7,0.1-1.1,0.2-1.2,0.4c-0.1,0.1-0.2,3.1-0.2,8.8
			c0,2.2,0,5.8,0.1,10.5v0.7c0,0.5,0,0.9-0.1,1.1c-0.1,0.2-0.3,0.4-0.5,0.7c-0.4,0.4-0.8,0.6-1.2,0.6c-0.4,0-0.8-0.2-1.3-0.5
			c-0.4-0.2-0.6-0.5-0.7-0.7s-0.1-0.8-0.2-1.8c0-0.3,0-1.1,0-2.3s0-2.2,0-3.1c0-0.7,0-2,0-3.8s0-3.3,0-4.5v-2.2c0-2,0-3.2-0.1-3.4
			c-0.1-0.3-0.6-0.5-1.5-0.7c-0.9-0.1-1.5-0.3-1.7-0.7c-0.2-0.3-0.4-0.7-0.4-1.1C264.8,33.6,265,33.1,265.5,32.7z"/>
		<path class="st4" d="M294.3,44.7l-6.5-7.8c-0.4-0.5-1,0-1,0.9v2.5c0,0.6-0.3,1.1-0.6,1.1h-7.5c-0.4,0-0.6,0.5-0.6,1.1v7
			c0,0.6,0.3,1.1,0.6,1.1h7.5c0.4,0,0.6,0.5,0.6,1.1v1.7c0,0.9,0.6,1.4,1,0.9l6.5-7.8C294.6,46,294.6,45.1,294.3,44.7z"/>
		<path class="st5" d="M223.8,102.6c19.9,0,36.1-1.4,36.1-3.2c0-1.8-16.2-3.2-36.1-3.2s-36.1,1.4-36.1,3.2
			C187.7,101.2,203.9,102.6,223.8,102.6z"/>
		<path class="st6" d="M201,99.1c0.3,0,0.5-0.2,0.5-0.5v-2.4c0-0.5,0.5-1,1.1-1h46.8c0.6,0,1.1,0.4,1.1,1v2.4c0,0.3,0.2,0.5,0.5,0.5
			h1.8c0.3,0,0.5-0.2,0.5-0.5V86.1c0-0.7-0.7-1.2-1.5-1.2h-1.2h-49.1h-1.3c-0.8,0-1.5,0.6-1.5,1.2v12.5c0,0.3,0.2,0.5,0.5,0.5H201
			L201,99.1z M250.5,89v2.2c0,1-1,1.8-2.1,1.8h-44.8c-1.2,0-2.1-0.8-2.1-1.8V89c0-0.7,0.7-1.2,1.5-1.2h46
			C249.8,87.8,250.5,88.3,250.5,89z"/>
		<path class="st6" d="M246.5,73.1V60.7c0-0.7-0.6-1.2-1.2-1.1c-0.5,0.1-0.8,0.6-0.8,1.2v0.7c0,0.5-0.4,1-0.9,1h-35.2
			c-0.5,0-0.9-0.4-0.9-1v-0.7c0-0.6-0.4-1.1-0.9-1.2c-0.6-0.1-1.2,0.4-1.2,1.1v12.4H246.5z"/>
		<path class="st6" d="M253.2,80h-54.5v7.3h54.5V80z"/>
		<path class="st2" d="M253.2,86.9h-54.5v7.3h54.5V86.9z"/>
		<path class="st0" d="M224.1,72.7h-14.5v-2.1c0-2.5,2.1-4.6,4.6-4.6h5.3c2.5,0,4.6,2.1,4.6,4.6L224.1,72.7L224.1,72.7z"/>
		<path class="st0" d="M243.5,72.7H229v-2.1c0-2.5,2.1-4.6,4.6-4.6h5.3c2.5,0,4.6,2.1,4.6,4.6L243.5,72.7L243.5,72.7z"/>
		<path class="st7" d="M218,72.9c-0.2-1.5-0.8-4.9-0.6-5.9c-1.1,0.6-2.3,4-2.9,5.9H218z"/>
		<path class="st1" d="M233.7,63.4c0,0-5.5,2.7-10.2-0.3C223.5,63.1,227.9,60.2,233.7,63.4z"/>
		<path class="st8" d="M229.8,61.4c0,0-1.6,1.8-7.1,2.5C222.7,63.9,223.7,60.3,229.8,61.4z"/>
		<path class="st9" d="M234.8,72.9c0-0.4-1.2,0.7-1.2,0.3c0.8-10.8-9.8-11.8-13.7-9.6c-2.5,1.4-4.5,4.9-4.1,9.3
			C215.8,72.9,234.8,72.9,234.8,72.9z"/>
		<path d="M223,70.2c-0.1-0.3,0.3-0.4,0.9-0.1c0.6,0.2,0.1,0.9-0.4,0.8C223.1,70.7,223.1,70.4,223,70.2z"/>
		<path class="st0" d="M223.8,70.5h-0.2c-0.1,0-0.2-0.1-0.2-0.2v-0.4c0.2,0,0.4,0.1,0.5,0.1v0.2C224,70.4,223.9,70.5,223.8,70.5z"/>
		<path class="st7" d="M235.3,72.9c0-1.8-1.5-2-2-3.1c-0.5,1.1-1.2,1.7-1.9,3.1H235.3z"/>
		<path class="st8" d="M221.5,61.1c0,0,0.8,0.7,0.5,1.9C222,63,221.6,62.8,221.5,61.1z"/>
		<path class="st10" d="M222.5,63.4c-0.8,0-1-1.6,1-2.7"/>
		<path class="st11" d="M223.7,60.2c0,0,1.6,0.3,1.1,0.8S223.4,60.5,223.7,60.2z"/>
		<path class="st11" d="M223.4,60.2c0,0,1.4,0.9,0.7,1.1C223.4,61.5,222.9,60.3,223.4,60.2z"/>
		<path class="st11" d="M223.3,60.2c0,0,1.4-0.7,1.4,0C224.8,60.8,223.3,60.6,223.3,60.2z"/>
		<path class="st11" d="M223.7,60.9c0,0-1.3-1.4-0.4-1.4C224.1,59.5,224.3,60.9,223.7,60.9z"/>
		<path class="st11" d="M223.6,60.2c0,0-0.9-0.8-1.1-0.2C222.3,60.6,223.5,60.7,223.6,60.2z"/>
		<path class="st11" d="M223.3,60c0,0-1.1,1.1-0.4,1.2C223.7,61.2,223.8,60,223.3,60z"/>
		<path class="st12" d="M224.2,60.5c0.1-0.2-0.2-0.5-0.5-0.6c-0.4-0.1-0.7,0-0.8,0.2s0.2,0.5,0.5,0.6
			C223.8,60.8,224.1,60.7,224.2,60.5z"/>
		<path class="st13" d="M202.4,73.7l-3.7,6.4h54.6l-3.5-6.4c-0.3-0.6-1-1-1.7-1h-43.9C203.4,72.8,202.7,73.1,202.4,73.7z"/>
		<path class="st2" d="M201.1,76l-2.4,4.1h54.6l-2.5-4.4c-0.3-0.6-1-1-1.7-1L202.8,75C202.1,75,201.4,75.4,201.1,76z"/>
		<path d="M220.5,68.1c0.4,0,0.7-0.3,0.7-0.7c0-0.4-0.3-0.7-0.7-0.7s-0.7,0.3-0.7,0.7C219.9,67.8,220.2,68.1,220.5,68.1z"/>
		<path d="M226.6,68.1c0.4,0,0.7-0.3,0.7-0.7c0-0.4-0.3-0.7-0.7-0.7s-0.7,0.3-0.7,0.7C225.9,67.8,226.2,68.1,226.6,68.1z"/>
		<path class="st9" d="M220.5,68.4c0.4,0,0.7-0.2,0.7-0.4s-0.3-0.4-0.7-0.4s-0.7,0.2-0.7,0.4S220.1,68.4,220.5,68.4z"/>
		<path class="st9" d="M226.5,68.4c0.4,0,0.7-0.2,0.7-0.4s-0.3-0.4-0.7-0.4s-0.7,0.2-0.7,0.4S226.1,68.4,226.5,68.4z"/>
	</g>
</g>
</svg>
