<?xml version="1.0" encoding="utf-8"?>
<!-- Generator: Adobe Illustrator 25.1.0, SVG Export Plug-In . SVG Version: 6.00 Build 0)  -->
<svg version="1.1" id="Layer_1" xmlns="http://www.w3.org/2000/svg" xmlns:xlink="http://www.w3.org/1999/xlink" x="0px" y="0px"
	 viewBox="0 0 339.1 175.2" style="enable-background:new 0 0 339.1 175.2;" xml:space="preserve">
<style type="text/css">
	.st0{fill:#FFFFFF;}
	.st1{fill:#808080;}
	.st2{fill:#FF9F1A;}
	.st3{fill:#F4F1EF;}
	.st4{fill:#646464;}
	.st5{fill:#F5F1EF;}
	.st6{fill:#32DCD2;}
	.st7{fill:none;stroke:#E14504;stroke-width:2;stroke-linecap:round;stroke-miterlimit:10;}
	.st8{fill:#00A878;}
	.st9{fill:#28C86E;}
	.st10{fill:none;stroke:#28C86E;stroke-width:1.8283;stroke-linecap:round;stroke-miterlimit:10;}
	.st11{fill:#FFCF8D;}
</style>
<g>
	<g>
		<g>
			<g>
				<path class="st0" d="M8.7,69.6c-6.2,27.7-19.5,79.5,8.2,97.3c27.8,17.8,279,2.1,298.3-2.4c30.4-7,20.9-40.4,22.3-69.5
					c1.3-28.5,9.4-71.2-29.7-76.4C238.7,9.4,114,16,44.8,19.8C11.2,21.8,14.5,43.7,8.7,69.6z"/>
				<path class="st1" d="M40.9,105.4c-1,0-2-0.2-2.8-0.7s-1.4-1.2-1.8-2c-0.4-0.9-0.7-1.9-0.7-3s0.2-2.1,0.7-3
					c0.4-0.9,1.1-1.6,1.9-2.1c0.8-0.5,1.8-0.7,2.9-0.7c1.3,0,2.3,0.3,3.1,0.9s1.4,1.4,1.6,2.5h-1.5c-0.1-0.7-0.5-1.2-1.1-1.6
					C42.7,95.2,42,95,41.1,95c-0.8,0-1.5,0.2-2.1,0.6s-1.1,0.9-1.4,1.6c-0.3,0.7-0.5,1.5-0.5,2.4s0.2,1.8,0.5,2.4
					c0.3,0.7,0.8,1.2,1.4,1.6c0.6,0.4,1.3,0.6,2,0.6c1.2,0,2.1-0.3,2.7-1.1c0.6-0.7,1-1.7,1-2.9h-3.2v-1.1h4.6v6h-1.2l-0.1-1.8
					c-0.4,0.6-0.9,1.1-1.5,1.5S41.9,105.4,40.9,105.4z"/>
				<path class="st1" d="M51.7,105.4c-0.8,0-1.4-0.2-2-0.5c-0.6-0.4-1-0.8-1.4-1.5c-0.3-0.6-0.5-1.3-0.5-2.2c0-0.8,0.2-1.6,0.5-2.2
					s0.8-1.1,1.4-1.5c0.6-0.4,1.3-0.5,2.1-0.5s1.4,0.2,2,0.5s1,0.8,1.3,1.4s0.4,1.2,0.4,1.8c0,0.1,0,0.2,0,0.4c0,0.1,0,0.2,0,0.4
					h-6.3c0,0.6,0.2,1.1,0.4,1.5s0.6,0.7,0.9,0.9c0.4,0.2,0.8,0.3,1.2,0.3c0.5,0,1-0.1,1.4-0.4c0.4-0.2,0.7-0.6,0.8-1h1.3
					c-0.2,0.7-0.6,1.3-1.2,1.8C53.4,105.1,52.7,105.4,51.7,105.4z M51.7,98.2c-0.6,0-1.2,0.2-1.7,0.6s-0.8,1-0.9,1.7h5
					c0-0.7-0.3-1.3-0.7-1.7C53,98.4,52.4,98.2,51.7,98.2z"/>
				<path class="st1" d="M60.1,105.2c-0.7,0-1.3-0.2-1.7-0.5c-0.4-0.4-0.6-1-0.6-1.9v-4.4h-1.4v-1.1h1.4l0.2-1.9h1.2v1.9h2.3v1.1
					h-2.3v4.4c0,0.5,0.1,0.8,0.3,1s0.6,0.3,1.1,0.3h0.8v1.1H60.1z"/>
				<path class="st1" d="M66.3,105.2c-0.7,0-1.3-0.2-1.7-0.5s-0.6-1-0.6-1.9v-4.4h-1.4v-1.1H64l0.2-1.9h1.2v1.9h2.3v1.1h-2.3v4.4
					c0,0.5,0.1,0.8,0.3,1c0.2,0.2,0.6,0.3,1.1,0.3h0.8v1.1H66.3z"/>
				<path class="st1" d="M70.2,95.5c-0.3,0-0.5-0.1-0.7-0.3c-0.2-0.2-0.3-0.4-0.3-0.7c0-0.3,0.1-0.5,0.3-0.6
					c0.2-0.2,0.4-0.3,0.7-0.3c0.3,0,0.5,0.1,0.7,0.3c0.2,0.2,0.3,0.4,0.3,0.6c0,0.3-0.1,0.5-0.3,0.7S70.5,95.5,70.2,95.5z
					 M69.5,105.2v-7.9h1.3v7.9H69.5z"/>
				<path class="st1" d="M73.2,105.2v-7.9h1.2l0.1,1.4c0.3-0.5,0.6-0.9,1.1-1.2c0.5-0.3,1-0.4,1.6-0.4c0.9,0,1.7,0.3,2.2,0.9
					c0.6,0.6,0.8,1.5,0.8,2.6v4.6H79v-4.5c0-1.6-0.7-2.5-2.1-2.5c-0.7,0-1.2,0.2-1.7,0.7s-0.7,1.2-0.7,2.1v4.1L73.2,105.2
					L73.2,105.2z"/>
				<path class="st1" d="M85.5,102.7c-0.4,0-0.9-0.1-1.2-0.2l-0.8,0.8c0.1,0.1,0.3,0.2,0.4,0.2c0.2,0.1,0.4,0.1,0.8,0.2
					c0.3,0,0.8,0.1,1.4,0.1c1.1,0.1,1.8,0.3,2.3,0.7c0.5,0.4,0.7,1,0.7,1.6c0,0.5-0.1,0.9-0.4,1.3c-0.2,0.4-0.6,0.8-1.2,1
					c-0.5,0.3-1.2,0.4-2,0.4c-0.7,0-1.3-0.1-1.9-0.3c-0.6-0.2-1-0.5-1.3-0.9s-0.5-0.9-0.5-1.4c0-0.3,0.1-0.6,0.2-1
					c0.2-0.4,0.5-0.7,0.9-1c-0.2-0.1-0.4-0.2-0.6-0.3s-0.3-0.2-0.5-0.4v-0.4l1.4-1.3c-0.6-0.5-0.9-1.2-0.9-2.1c0-0.5,0.1-1,0.4-1.4
					c0.2-0.4,0.6-0.8,1.1-1s1-0.4,1.7-0.4c0.5,0,0.9,0.1,1.2,0.2h2.9v1l-1.5,0.1c0.3,0.4,0.5,1,0.5,1.6c0,0.5-0.1,1-0.4,1.4
					c-0.2,0.4-0.6,0.8-1.1,1C86.7,102.6,86.2,102.7,85.5,102.7z M83.2,106.2c0,0.5,0.2,0.9,0.7,1.2c0.4,0.3,1,0.4,1.7,0.4
					s1.2-0.1,1.6-0.4s0.6-0.7,0.6-1.2c0-0.3-0.1-0.6-0.4-0.9c-0.3-0.2-0.8-0.4-1.5-0.4c-0.6,0-1.1-0.1-1.5-0.2
					c-0.4,0.2-0.7,0.5-0.9,0.8C83.2,105.7,83.2,106,83.2,106.2z M85.5,101.6c0.6,0,1-0.2,1.3-0.4c0.3-0.3,0.5-0.7,0.5-1.3
					c0-0.5-0.2-1-0.5-1.3s-0.8-0.4-1.3-0.4c-0.6,0-1,0.1-1.4,0.4c-0.3,0.3-0.5,0.7-0.5,1.3s0.2,1,0.5,1.3
					C84.5,101.4,84.9,101.6,85.5,101.6z"/>
				<path class="st1" d="M98.3,105.4c-0.9,0-1.7-0.3-2.2-0.9c-0.6-0.6-0.8-1.4-0.8-2.6v-4.6h1.3v4.5c0,1.6,0.7,2.5,2,2.5
					c0.7,0,1.3-0.2,1.7-0.7c0.5-0.5,0.7-1.2,0.7-2.1v-4.1h1.3v7.9h-1.2l-0.1-1.4c-0.2,0.5-0.6,0.9-1.1,1.2
					C99.5,105.2,98.9,105.4,98.3,105.4z"/>
				<path class="st1" d="M104.6,108.7V97.2h1.2l0.1,1.3c0.3-0.4,0.6-0.7,1.1-1s1.1-0.5,1.8-0.5c0.8,0,1.5,0.2,2.1,0.5
					c0.6,0.4,1,0.9,1.4,1.5s0.5,1.3,0.5,2.1s-0.2,1.5-0.5,2.1s-0.8,1.1-1.4,1.5s-1.3,0.5-2.1,0.5c-0.7,0-1.2-0.1-1.7-0.4
					s-0.9-0.6-1.2-1.1v4.8L104.6,108.7L104.6,108.7z M108.7,104.2c0.5,0,1-0.1,1.4-0.4c0.4-0.2,0.7-0.6,1-1.1c0.2-0.4,0.3-1,0.3-1.6
					s-0.1-1.1-0.3-1.6c-0.2-0.5-0.6-0.8-1-1.1c-0.4-0.2-0.9-0.4-1.4-0.4s-1,0.1-1.4,0.4c-0.4,0.2-0.7,0.6-1,1.1
					c-0.2,0.4-0.4,1-0.4,1.6s0.1,1.1,0.4,1.6c0.2,0.4,0.5,0.8,1,1.1C107.7,104.1,108.1,104.2,108.7,104.2z"/>
				<path class="st1" d="M122.4,105.4c-0.8,0-1.4-0.2-2-0.5c-0.6-0.4-1.1-0.8-1.4-1.5c-0.3-0.6-0.5-1.3-0.5-2.2
					c0-0.8,0.2-1.6,0.5-2.2s0.8-1.1,1.4-1.5s1.3-0.5,2.1-0.5c0.8,0,1.4,0.2,2,0.5s1,0.8,1.3,1.4s0.4,1.2,0.4,1.8c0,0.1,0,0.2,0,0.4
					c0,0.1,0,0.2,0,0.4h-6.3c0,0.6,0.2,1.1,0.4,1.5c0.2,0.4,0.6,0.7,0.9,0.9c0.4,0.2,0.8,0.3,1.2,0.3c0.6,0,1-0.1,1.4-0.4
					s0.6-0.6,0.8-1h1.3c-0.2,0.7-0.6,1.3-1.2,1.8C124.1,105.1,123.4,105.4,122.4,105.4z M122.4,98.2c-0.6,0-1.2,0.2-1.7,0.6
					s-0.8,1-0.9,1.7h5c0-0.7-0.3-1.3-0.7-1.7C123.7,98.4,123.1,98.2,122.4,98.2z"/>
				<path class="st1" d="M128,105.2v-7.9h1.2l0.1,1.4c0.3-0.5,0.6-0.9,1.1-1.2c0.5-0.3,1-0.4,1.6-0.4c0.9,0,1.7,0.3,2.2,0.9
					c0.6,0.6,0.8,1.5,0.8,2.6v4.6h-1.3v-4.5c0-1.6-0.7-2.5-2.1-2.5c-0.7,0-1.2,0.2-1.7,0.7c-0.4,0.5-0.7,1.2-0.7,2.1v4.1L128,105.2
					L128,105.2z"/>
				<path class="st1" d="M140.2,105.4c-0.9,0-1.7-0.2-2.4-0.7c-0.6-0.5-1-1.1-1.1-1.9h1.4c0.1,0.4,0.3,0.8,0.7,1.1
					c0.4,0.3,0.8,0.5,1.4,0.5c0.6,0,1-0.1,1.2-0.4c0.3-0.2,0.4-0.5,0.4-0.9c0-0.5-0.2-0.8-0.5-1s-0.8-0.3-1.5-0.4
					c-0.4-0.1-0.9-0.2-1.3-0.4c-0.4-0.2-0.8-0.4-1.1-0.7c-0.3-0.3-0.4-0.7-0.4-1.2c0-0.7,0.3-1.3,0.8-1.7c0.5-0.4,1.2-0.7,2.1-0.7
					c0.8,0,1.5,0.2,2.1,0.6c0.5,0.4,0.8,1,0.9,1.8h-1.3c-0.1-0.4-0.2-0.7-0.5-1c-0.3-0.2-0.7-0.3-1.2-0.3s-0.8,0.1-1.1,0.3
					c-0.3,0.2-0.4,0.5-0.4,0.8s0.2,0.6,0.5,0.8c0.3,0.2,0.8,0.3,1.4,0.5c0.5,0.1,1,0.2,1.4,0.4c0.4,0.2,0.8,0.4,1.1,0.7
					c0.3,0.3,0.4,0.7,0.4,1.3c0,0.7-0.3,1.3-0.8,1.8C141.9,105.1,141.1,105.4,140.2,105.4z"/>
				<path class="st1" d="M148,105.4c-0.9,0-1.7-0.3-2.2-0.9c-0.6-0.6-0.8-1.4-0.8-2.6v-4.6h1.3v4.5c0,1.6,0.7,2.5,2,2.5
					c0.7,0,1.3-0.2,1.7-0.7s0.7-1.2,0.7-2.1v-4.1h1.3v7.9h-1.2l-0.1-1.4c-0.2,0.5-0.6,0.9-1.1,1.2
					C149.2,105.2,148.6,105.4,148,105.4z"/>
				<path class="st1" d="M154.3,105.2v-7.9h1.2l0.1,1.5c0.2-0.5,0.6-0.9,1.1-1.2s1.1-0.5,1.9-0.5v1.4h-0.4c-0.5,0-0.9,0.1-1.3,0.2
					c-0.4,0.2-0.7,0.4-0.9,0.8s-0.4,0.9-0.4,1.6v4L154.3,105.2L154.3,105.2z"/>
				<path class="st1" d="M163.3,105.4c-0.8,0-1.4-0.2-2-0.5c-0.6-0.4-1.1-0.8-1.4-1.5c-0.3-0.6-0.5-1.3-0.5-2.2
					c0-0.8,0.2-1.6,0.5-2.2s0.8-1.1,1.4-1.5c0.6-0.4,1.3-0.5,2.1-0.5s1.4,0.2,2,0.5s1,0.8,1.3,1.4s0.4,1.2,0.4,1.8
					c0,0.1,0,0.2,0,0.4c0,0.1,0,0.2,0,0.4h-6.3c0,0.6,0.2,1.1,0.4,1.5s0.6,0.7,0.9,0.9c0.4,0.2,0.8,0.3,1.2,0.3c0.6,0,1-0.1,1.4-0.4
					s0.7-0.6,0.8-1h1.3c-0.2,0.7-0.6,1.3-1.2,1.8C165.1,105.1,164.3,105.4,163.3,105.4z M163.3,98.2c-0.6,0-1.2,0.2-1.7,0.6
					s-0.8,1-0.9,1.7h5c0-0.7-0.3-1.3-0.7-1.7C164.6,98.4,164,98.2,163.3,98.2z"/>
				<path class="st1" d="M171.9,105.4c-0.9,0-1.7-0.2-2.4-0.7c-0.6-0.5-1-1.1-1.1-1.9h1.4c0.1,0.4,0.3,0.8,0.7,1.1
					c0.4,0.3,0.8,0.5,1.4,0.5c0.6,0,1-0.1,1.2-0.4c0.3-0.2,0.4-0.5,0.4-0.9c0-0.5-0.2-0.8-0.5-1c-0.4-0.2-0.8-0.3-1.5-0.4
					c-0.4-0.1-0.9-0.2-1.3-0.4c-0.4-0.2-0.8-0.4-1.1-0.7c-0.3-0.3-0.4-0.7-0.4-1.2c0-0.7,0.3-1.3,0.8-1.7s1.2-0.7,2.1-0.7
					c0.8,0,1.5,0.2,2.1,0.6c0.5,0.4,0.9,1,0.9,1.8h-1.3c-0.1-0.4-0.2-0.7-0.5-1c-0.3-0.2-0.7-0.3-1.2-0.3s-0.9,0.1-1.1,0.3
					s-0.4,0.5-0.4,0.8s0.2,0.6,0.5,0.8c0.3,0.2,0.8,0.3,1.4,0.5c0.5,0.1,1,0.2,1.4,0.4c0.4,0.2,0.8,0.4,1.1,0.7
					c0.3,0.3,0.4,0.7,0.4,1.3c0,0.7-0.3,1.3-0.8,1.8C173.6,105.1,172.9,105.4,171.9,105.4z"/>
				<path class="st1" d="M182,108.7l2-4.3h-0.5l-3.2-7.2h1.5l2.6,6.2l2.8-6.2h1.4l-5.2,11.5H182z"/>
				<path class="st1" d="M192.9,105.4c-0.8,0-1.4-0.2-2-0.5s-1.1-0.8-1.4-1.4c-0.4-0.6-0.5-1.4-0.5-2.2c0-0.8,0.2-1.6,0.5-2.2
					c0.4-0.6,0.8-1.1,1.4-1.4c0.6-0.3,1.3-0.5,2-0.5s1.4,0.2,2,0.5s1.1,0.8,1.4,1.4c0.4,0.6,0.5,1.4,0.5,2.2c0,0.8-0.2,1.6-0.5,2.2
					c-0.4,0.6-0.8,1.1-1.4,1.4C194.3,105.2,193.6,105.4,192.9,105.4z M192.9,104.2c0.5,0,0.9-0.1,1.3-0.3c0.4-0.2,0.7-0.6,1-1
					s0.4-1,0.4-1.7s-0.1-1.2-0.4-1.7c-0.2-0.4-0.6-0.8-1-1s-0.8-0.3-1.3-0.3s-0.9,0.1-1.3,0.3s-0.7,0.6-1,1c-0.2,0.5-0.4,1-0.4,1.7
					s0.1,1.2,0.4,1.7s0.6,0.8,1,1C192,104.1,192.4,104.2,192.9,104.2z"/>
				<path class="st1" d="M201.6,105.4c-0.9,0-1.7-0.3-2.2-0.9c-0.6-0.6-0.8-1.4-0.8-2.6v-4.6h1.3v4.5c0,1.6,0.7,2.5,2,2.5
					c0.7,0,1.3-0.2,1.7-0.7c0.5-0.5,0.7-1.2,0.7-2.1v-4.1h1.3v7.9h-1.2l-0.1-1.4c-0.2,0.5-0.6,0.9-1.1,1.2
					C202.8,105.2,202.2,105.4,201.6,105.4z"/>
				<path class="st1" d="M215.7,105.4c-0.8,0-1.5-0.2-2.1-0.5s-1.1-0.9-1.4-1.5c-0.3-0.6-0.5-1.3-0.5-2.1s0.2-1.5,0.5-2.1
					s0.8-1.1,1.4-1.5s1.3-0.5,2.1-0.5c0.6,0,1.2,0.1,1.7,0.4s0.9,0.6,1.2,1.1v-4.9h1.3v11.5h-1.2l-0.1-1.3c-0.3,0.4-0.6,0.7-1.1,1
					C217.1,105.2,216.5,105.4,215.7,105.4z M215.9,104.2c0.5,0,1-0.1,1.4-0.4c0.4-0.2,0.7-0.6,1-1.1s0.3-1,0.3-1.6s-0.1-1.1-0.3-1.6
					s-0.6-0.8-1-1.1c-0.4-0.2-0.9-0.4-1.4-0.4s-1,0.1-1.4,0.4s-0.7,0.6-1,1.1c-0.2,0.4-0.3,1-0.3,1.6s0.1,1.1,0.3,1.6
					c0.2,0.4,0.6,0.8,1,1.1S215.4,104.2,215.9,104.2z"/>
				<path class="st1" d="M225.8,105.4c-0.8,0-1.4-0.2-2-0.5s-1.1-0.8-1.4-1.4c-0.4-0.6-0.5-1.4-0.5-2.2c0-0.8,0.2-1.6,0.5-2.2
					c0.4-0.6,0.8-1.1,1.4-1.4c0.6-0.3,1.3-0.5,2-0.5c0.8,0,1.4,0.2,2,0.5s1.1,0.8,1.4,1.4c0.4,0.6,0.5,1.4,0.5,2.2
					c0,0.8-0.2,1.6-0.5,2.2c-0.4,0.6-0.8,1.1-1.4,1.4C227.2,105.2,226.5,105.4,225.8,105.4z M225.8,104.2c0.5,0,0.9-0.1,1.3-0.3
					c0.4-0.2,0.7-0.6,1-1s0.4-1,0.4-1.7s-0.1-1.2-0.4-1.7c-0.2-0.4-0.6-0.8-0.9-1s-0.8-0.3-1.3-0.3s-0.9,0.1-1.3,0.3
					c-0.4,0.2-0.7,0.6-1,1c-0.2,0.5-0.4,1-0.4,1.7s0.1,1.2,0.4,1.7s0.6,0.8,0.9,1C224.9,104.1,225.3,104.2,225.8,104.2z"/>
				<path class="st1" d="M231.7,105.2v-7.9h1.2l0.1,1.4c0.3-0.5,0.6-0.9,1.1-1.2c0.5-0.3,1-0.4,1.6-0.4c0.9,0,1.7,0.3,2.2,0.9
					c0.6,0.6,0.8,1.5,0.8,2.6v4.6h-1.3v-4.5c0-1.6-0.7-2.5-2-2.5c-0.7,0-1.2,0.2-1.7,0.7c-0.4,0.5-0.7,1.2-0.7,2.1v4.1L231.7,105.2
					L231.7,105.2z"/>
				<path class="st1" d="M240.2,97.5l0.9-3.6h1.5l-1.5,3.6H240.2z"/>
				<path class="st1" d="M247.3,105.2c-0.7,0-1.3-0.2-1.7-0.5c-0.4-0.4-0.6-1-0.6-1.9v-4.4h-1.4v-1.1h1.4l0.2-1.9h1.2v1.9h2.3v1.1
					h-2.3v4.4c0,0.5,0.1,0.8,0.3,1s0.6,0.3,1.1,0.3h0.8v1.1H247.3z"/>
				<path class="st1" d="M254.6,105.2V93.6h1.3v11.5L254.6,105.2L254.6,105.2z"/>
				<path class="st1" d="M261.8,105.4c-0.8,0-1.4-0.2-2-0.5c-0.6-0.4-1-0.8-1.4-1.5c-0.3-0.6-0.5-1.3-0.5-2.2c0-0.8,0.2-1.6,0.5-2.2
					s0.8-1.1,1.4-1.5s1.3-0.5,2.1-0.5c0.8,0,1.4,0.2,2,0.5s1,0.8,1.3,1.4s0.5,1.2,0.5,1.8c0,0.1,0,0.2,0,0.4c0,0.1,0,0.2,0,0.4h-6.3
					c0,0.6,0.2,1.1,0.4,1.5c0.2,0.4,0.6,0.7,0.9,0.9c0.4,0.2,0.8,0.3,1.2,0.3c0.5,0,1-0.1,1.4-0.4s0.6-0.6,0.8-1h1.3
					c-0.2,0.7-0.6,1.3-1.2,1.8C263.5,105.1,262.7,105.4,261.8,105.4z M261.8,98.2c-0.6,0-1.2,0.2-1.7,0.6s-0.8,1-0.9,1.7h5
					c0-0.7-0.3-1.3-0.7-1.7C263,98.4,262.4,98.2,261.8,98.2z"/>
				<path class="st1" d="M269.9,105.4c-0.7,0-1.2-0.1-1.6-0.3c-0.4-0.2-0.8-0.5-1-0.9s-0.3-0.8-0.3-1.2c0-0.8,0.3-1.4,0.9-1.9
					c0.6-0.4,1.5-0.7,2.5-0.7h2.1v-0.1c0-0.7-0.2-1.2-0.5-1.6c-0.4-0.4-0.9-0.5-1.5-0.5c-0.5,0-1,0.1-1.3,0.4
					c-0.4,0.3-0.6,0.6-0.7,1.1h-1.4c0-0.6,0.2-1.1,0.6-1.5c0.3-0.4,0.8-0.7,1.3-0.9c0.5-0.2,1-0.3,1.6-0.3c1.1,0,1.9,0.3,2.5,0.9
					s0.8,1.4,0.8,2.4v4.9h-1.2l-0.1-1.4c-0.2,0.4-0.6,0.8-1,1.1S270.7,105.4,269.9,105.4z M270.1,104.2c0.5,0,0.9-0.1,1.3-0.4
					s0.6-0.6,0.8-1c0.2-0.4,0.3-0.9,0.3-1.3l0,0h-2c-0.8,0-1.4,0.1-1.7,0.4c-0.3,0.3-0.5,0.6-0.5,1s0.1,0.8,0.5,1
					C269.2,104.1,269.6,104.2,270.1,104.2z"/>
				<path class="st1" d="M276,105.2v-7.9h1.2l0.1,1.5c0.2-0.5,0.6-0.9,1.1-1.2s1.1-0.5,1.9-0.5v1.4h-0.4c-0.5,0-0.9,0.1-1.3,0.2
					c-0.4,0.2-0.7,0.4-0.9,0.8c-0.2,0.4-0.4,0.9-0.4,1.6v4L276,105.2L276,105.2z"/>
				<path class="st1" d="M281.8,105.2v-7.9h1.2l0.1,1.4c0.3-0.5,0.6-0.9,1.1-1.2c0.5-0.3,1-0.4,1.6-0.4c0.9,0,1.7,0.3,2.2,0.9
					c0.6,0.6,0.8,1.5,0.8,2.6v4.6h-1.3v-4.5c0-1.6-0.7-2.5-2.1-2.5c-0.7,0-1.2,0.2-1.7,0.7s-0.7,1.2-0.7,2.1v4.1L281.8,105.2
					L281.8,105.2z"/>
				<path class="st1" d="M38.7,127.4c-0.7,0-1.2-0.1-1.7-0.3c-0.4-0.2-0.8-0.5-1-0.9s-0.3-0.8-0.3-1.2c0-0.8,0.3-1.4,0.9-1.9
					c0.6-0.4,1.5-0.7,2.5-0.7h2.1v-0.1c0-0.7-0.2-1.2-0.5-1.6c-0.4-0.4-0.8-0.5-1.5-0.5c-0.5,0-1,0.1-1.3,0.4
					c-0.4,0.3-0.6,0.6-0.7,1.1h-1.4c0-0.6,0.2-1.1,0.6-1.5c0.3-0.4,0.8-0.7,1.3-0.9c0.5-0.2,1-0.3,1.6-0.3c1.1,0,1.9,0.3,2.5,0.9
					s0.8,1.4,0.8,2.4v4.9h-1.2l-0.1-1.4c-0.2,0.4-0.5,0.8-1,1.1C40,127.2,39.4,127.4,38.7,127.4z M38.9,126.2c0.5,0,1-0.1,1.3-0.4
					s0.6-0.6,0.8-1s0.3-0.9,0.3-1.3l0,0h-2c-0.8,0-1.3,0.1-1.7,0.4c-0.3,0.3-0.5,0.6-0.5,1s0.2,0.8,0.5,1
					C37.9,126.1,38.3,126.2,38.9,126.2z"/>
				<path class="st1" d="M52.6,127.4c-0.8,0-1.4-0.2-2-0.5c-0.6-0.4-1.1-0.8-1.4-1.5c-0.3-0.6-0.5-1.4-0.5-2.2
					c0-0.8,0.2-1.6,0.5-2.2c0.4-0.6,0.8-1.1,1.4-1.5c0.6-0.4,1.3-0.5,2-0.5c0.9,0,1.7,0.2,2.4,0.7s1.1,1.2,1.2,2h-1.4
					c-0.1-0.5-0.4-0.9-0.8-1.1c-0.4-0.3-0.9-0.4-1.5-0.4c-0.4,0-0.9,0.1-1.3,0.3c-0.4,0.2-0.7,0.6-1,1s-0.4,1-0.4,1.7
					s0.1,1.2,0.4,1.7c0.2,0.4,0.6,0.8,1,1s0.8,0.3,1.3,0.3c0.6,0,1-0.1,1.5-0.4c0.4-0.3,0.7-0.7,0.8-1.2h1.4
					c-0.2,0.8-0.6,1.4-1.2,1.9S53.5,127.4,52.6,127.4z"/>
				<path class="st1" d="M61.7,127.4c-0.8,0-1.4-0.2-2-0.5s-1.1-0.8-1.4-1.4c-0.3-0.6-0.5-1.4-0.5-2.2c0-0.8,0.2-1.6,0.5-2.2
					s0.8-1.1,1.4-1.4s1.3-0.5,2-0.5s1.4,0.2,2,0.5c0.6,0.3,1.1,0.8,1.4,1.4c0.3,0.6,0.5,1.4,0.5,2.2c0,0.8-0.2,1.6-0.5,2.2
					s-0.8,1.1-1.4,1.4C63.1,127.2,62.4,127.4,61.7,127.4z M61.7,126.2c0.5,0,0.9-0.1,1.3-0.3c0.4-0.2,0.7-0.6,1-1
					c0.2-0.4,0.4-1,0.4-1.7s-0.1-1.2-0.4-1.7c-0.2-0.4-0.6-0.8-0.9-1c-0.4-0.2-0.8-0.3-1.3-0.3s-0.9,0.1-1.3,0.3s-0.7,0.6-1,1
					c-0.2,0.5-0.4,1-0.4,1.7s0.1,1.2,0.4,1.7c0.2,0.4,0.6,0.8,0.9,1C60.8,126.1,61.2,126.2,61.7,126.2z"/>
				<path class="st1" d="M67.5,127.2v-7.9h1.2l0.1,1.4c0.3-0.5,0.6-0.9,1.1-1.2c0.5-0.3,1-0.4,1.6-0.4c0.9,0,1.7,0.3,2.2,0.9
					c0.6,0.6,0.8,1.5,0.8,2.6v4.6h-1.3v-4.5c0-1.6-0.7-2.5-2.1-2.5c-0.7,0-1.2,0.2-1.7,0.7c-0.4,0.5-0.7,1.2-0.7,2.1v4.1L67.5,127.2
					L67.5,127.2z"/>
				<path class="st1" d="M76.7,127.2v-7.9h1.2l0.1,1.4c0.3-0.5,0.6-0.9,1.1-1.2c0.5-0.3,1-0.4,1.6-0.4c0.9,0,1.7,0.3,2.2,0.9
					c0.6,0.6,0.8,1.5,0.8,2.6v4.6h-1.3v-4.5c0-1.6-0.7-2.5-2.1-2.5c-0.7,0-1.2,0.2-1.7,0.7c-0.4,0.5-0.7,1.2-0.7,2.1v4.1L76.7,127.2
					L76.7,127.2z"/>
				<path class="st1" d="M89.4,127.4c-0.8,0-1.4-0.2-2-0.5c-0.6-0.4-1.1-0.8-1.4-1.5c-0.3-0.6-0.5-1.3-0.5-2.2
					c0-0.8,0.2-1.6,0.5-2.2s0.8-1.1,1.4-1.5s1.3-0.5,2.1-0.5c0.8,0,1.4,0.2,2,0.5s1,0.8,1.3,1.4s0.4,1.2,0.4,1.8c0,0.1,0,0.2,0,0.4
					c0,0.1,0,0.2,0,0.4h-6.3c0,0.6,0.2,1.1,0.4,1.5c0.2,0.4,0.6,0.7,0.9,0.9c0.4,0.2,0.8,0.3,1.2,0.3c0.5,0,1-0.1,1.4-0.4
					s0.6-0.6,0.8-1H93c-0.2,0.7-0.6,1.3-1.2,1.8C91.1,127.1,90.4,127.4,89.4,127.4z M89.4,120.2c-0.6,0-1.2,0.2-1.7,0.6
					s-0.8,1-0.9,1.7h5c0-0.7-0.3-1.3-0.7-1.7C90.6,120.4,90.1,120.2,89.4,120.2z"/>
				<path class="st1" d="M98.6,127.4c-0.8,0-1.4-0.2-2-0.5c-0.6-0.4-1.1-0.8-1.4-1.5c-0.3-0.6-0.5-1.4-0.5-2.2
					c0-0.8,0.2-1.6,0.5-2.2c0.4-0.6,0.8-1.1,1.4-1.5s1.3-0.5,2-0.5c0.9,0,1.7,0.2,2.4,0.7c0.6,0.5,1,1.2,1.2,2h-1.4
					c-0.1-0.5-0.4-0.9-0.8-1.1c-0.4-0.3-0.9-0.4-1.5-0.4c-0.4,0-0.9,0.1-1.3,0.3s-0.7,0.6-1,1s-0.4,1-0.4,1.7s0.1,1.2,0.4,1.7
					s0.6,0.8,1,1s0.8,0.3,1.3,0.3c0.6,0,1-0.1,1.5-0.4s0.7-0.7,0.8-1.2h1.4c-0.2,0.8-0.6,1.4-1.2,1.9S99.5,127.4,98.6,127.4z"/>
				<path class="st1" d="M107,127.2c-0.7,0-1.3-0.2-1.7-0.5c-0.4-0.4-0.6-1-0.6-1.9v-4.4h-1.4v-1.1h1.4l0.2-1.9h1.2v1.9h2.3v1.1H106
					v4.4c0,0.5,0.1,0.8,0.3,1c0.2,0.2,0.6,0.3,1.1,0.3h0.8v1.1H107z"/>
				<path class="st1" d="M110.9,117.5c-0.3,0-0.5-0.1-0.7-0.3c-0.2-0.2-0.3-0.4-0.3-0.7c0-0.3,0.1-0.5,0.3-0.6
					c0.2-0.2,0.4-0.3,0.7-0.3s0.5,0.1,0.7,0.3c0.2,0.2,0.3,0.4,0.3,0.6c0,0.3-0.1,0.5-0.3,0.7S111.1,117.5,110.9,117.5z
					 M110.2,127.2v-7.9h1.3v7.9H110.2z"/>
				<path class="st1" d="M117.5,127.4c-0.8,0-1.4-0.2-2-0.5s-1.1-0.8-1.4-1.4c-0.4-0.6-0.5-1.4-0.5-2.2c0-0.8,0.2-1.6,0.5-2.2
					c0.4-0.6,0.8-1.1,1.4-1.4s1.3-0.5,2-0.5c0.8,0,1.4,0.2,2,0.5s1.1,0.8,1.4,1.4c0.4,0.6,0.5,1.4,0.5,2.2c0,0.8-0.2,1.6-0.5,2.2
					s-0.8,1.1-1.4,1.4C118.9,127.2,118.2,127.4,117.5,127.4z M117.5,126.2c0.5,0,0.9-0.1,1.3-0.3c0.4-0.2,0.7-0.6,1-1s0.4-1,0.4-1.7
					s-0.1-1.2-0.4-1.7c-0.2-0.4-0.6-0.8-0.9-1c-0.4-0.2-0.8-0.3-1.3-0.3s-0.9,0.1-1.3,0.3c-0.4,0.2-0.7,0.6-1,1
					c-0.2,0.5-0.4,1-0.4,1.7s0.1,1.2,0.4,1.7c0.2,0.4,0.6,0.8,0.9,1C116.6,126.1,117,126.2,117.5,126.2z"/>
				<path class="st1" d="M123.3,127.2v-7.9h1.2l0.1,1.4c0.3-0.5,0.6-0.9,1.1-1.2c0.5-0.3,1-0.4,1.6-0.4c0.9,0,1.7,0.3,2.3,0.9
					c0.6,0.6,0.8,1.5,0.8,2.6v4.6h-1.3v-4.5c0-1.6-0.7-2.5-2.1-2.5c-0.7,0-1.2,0.2-1.7,0.7s-0.7,1.2-0.7,2.1v4.1L123.3,127.2
					L123.3,127.2z"/>
				<path class="st1" d="M141,127.4c-0.7,0-1.2-0.1-1.7-0.4s-0.9-0.6-1.2-1.1l-0.1,1.3h-1.2v-11.5h1.3v4.9c0.3-0.4,0.6-0.7,1.1-1
					s1.1-0.5,1.8-0.5c0.8,0,1.5,0.2,2.1,0.5c0.6,0.4,1,0.9,1.4,1.5c0.3,0.6,0.5,1.3,0.5,2.1s-0.2,1.5-0.5,2.1s-0.8,1.1-1.4,1.5
					C142.4,127.2,141.8,127.4,141,127.4z M140.8,126.2c0.5,0,1-0.1,1.4-0.4c0.4-0.2,0.7-0.6,1-1.1s0.3-1,0.3-1.6s-0.1-1.1-0.3-1.6
					s-0.6-0.8-1-1.1c-0.4-0.2-0.9-0.4-1.4-0.4s-1,0.1-1.4,0.4s-0.7,0.6-1,1.1c-0.2,0.4-0.3,1-0.3,1.6s0.1,1.1,0.3,1.6s0.6,0.8,1,1.1
					C139.8,126.1,140.3,126.2,140.8,126.2z"/>
				<path class="st1" d="M150.3,127.4c-0.8,0-1.4-0.2-2-0.5c-0.6-0.4-1.1-0.8-1.4-1.5c-0.3-0.6-0.5-1.3-0.5-2.2
					c0-0.8,0.2-1.6,0.5-2.2s0.8-1.1,1.4-1.5c0.6-0.4,1.3-0.5,2.1-0.5s1.4,0.2,2,0.5s1,0.8,1.3,1.4s0.5,1.2,0.5,1.8
					c0,0.1,0,0.2,0,0.4c0,0.1,0,0.2,0,0.4h-6.3c0,0.6,0.2,1.1,0.4,1.5s0.6,0.7,0.9,0.9c0.4,0.2,0.8,0.3,1.2,0.3c0.6,0,1-0.1,1.4-0.4
					s0.6-0.6,0.8-1h1.3c-0.2,0.7-0.6,1.3-1.2,1.8C152,127.1,151.3,127.4,150.3,127.4z M150.3,120.2c-0.6,0-1.2,0.2-1.7,0.6
					s-0.8,1-0.9,1.7h5c0-0.7-0.3-1.3-0.7-1.7C151.6,120.4,151,120.2,150.3,120.2z"/>
				<path class="st1" d="M158.7,127.2c-0.7,0-1.3-0.2-1.7-0.5c-0.4-0.4-0.6-1-0.6-1.9v-4.4H155v-1.1h1.4l0.2-1.9h1.2v1.9h2.3v1.1
					h-2.3v4.4c0,0.5,0.1,0.8,0.3,1s0.6,0.3,1.1,0.3h0.8v1.1H158.7z"/>
				<path class="st1" d="M163.4,127.2l-2.3-7.9h1.3l1.7,6.2l1.9-6.2h1.5l1.9,6.2l1.7-6.2h1.4l-2.3,7.9h-1.4l-1.9-6.5l-2,6.5H163.4z"
					/>
				<path class="st1" d="M177.1,127.4c-0.8,0-1.4-0.2-2-0.5c-0.6-0.4-1.1-0.8-1.4-1.5c-0.3-0.6-0.5-1.3-0.5-2.2
					c0-0.8,0.2-1.6,0.5-2.2s0.8-1.1,1.4-1.5c0.6-0.4,1.3-0.5,2.1-0.5s1.4,0.2,2,0.5s1,0.8,1.3,1.4s0.4,1.2,0.4,1.8
					c0,0.1,0,0.2,0,0.4c0,0.1,0,0.2,0,0.4h-6.3c0,0.6,0.2,1.1,0.4,1.5s0.6,0.7,0.9,0.9c0.4,0.2,0.8,0.3,1.2,0.3c0.6,0,1-0.1,1.4-0.4
					s0.6-0.6,0.8-1h1.3c-0.2,0.7-0.6,1.3-1.2,1.8C178.8,127.1,178.1,127.4,177.1,127.4z M177.1,120.2c-0.6,0-1.2,0.2-1.7,0.6
					s-0.8,1-0.9,1.7h5c0-0.7-0.3-1.3-0.7-1.7C178.4,120.4,177.8,120.2,177.1,120.2z"/>
				<path class="st1" d="M186.2,127.4c-0.8,0-1.4-0.2-2-0.5c-0.6-0.4-1.1-0.8-1.4-1.5c-0.3-0.6-0.5-1.3-0.5-2.2
					c0-0.8,0.2-1.6,0.5-2.2s0.8-1.1,1.4-1.5c0.6-0.4,1.3-0.5,2.1-0.5s1.4,0.2,2,0.5s1,0.8,1.3,1.4s0.5,1.2,0.5,1.8
					c0,0.1,0,0.2,0,0.4c0,0.1,0,0.2,0,0.4h-6.3c0,0.6,0.2,1.1,0.4,1.5s0.6,0.7,0.9,0.9c0.4,0.2,0.8,0.3,1.2,0.3c0.6,0,1-0.1,1.4-0.4
					s0.6-0.6,0.8-1h1.3c-0.2,0.7-0.6,1.3-1.2,1.8C187.9,127.1,187.2,127.4,186.2,127.4z M186.2,120.2c-0.6,0-1.2,0.2-1.7,0.6
					s-0.8,1-0.9,1.7h5c0-0.7-0.3-1.3-0.7-1.7C187.5,120.4,186.9,120.2,186.2,120.2z"/>
				<path class="st1" d="M191.8,127.2v-7.9h1.2l0.1,1.4c0.3-0.5,0.6-0.9,1.1-1.2c0.5-0.3,1-0.4,1.6-0.4c0.9,0,1.7,0.3,2.2,0.9
					c0.6,0.6,0.8,1.5,0.8,2.6v4.6h-1.3v-4.5c0-1.6-0.7-2.5-2-2.5c-0.7,0-1.2,0.2-1.7,0.7c-0.4,0.5-0.7,1.2-0.7,2.1v4.1L191.8,127.2
					L191.8,127.2z"/>
				<path class="st1" d="M209.4,127.4c-0.6,0-1.2-0.1-1.7-0.4s-0.9-0.6-1.2-1.1l-0.1,1.3h-1.2v-11.5h1.3v4.9c0.3-0.4,0.6-0.7,1.1-1
					s1.1-0.5,1.8-0.5c0.8,0,1.5,0.2,2.1,0.5c0.6,0.4,1,0.9,1.4,1.5c0.3,0.6,0.5,1.3,0.5,2.1s-0.2,1.5-0.5,2.1s-0.8,1.1-1.4,1.5
					C210.9,127.2,210.2,127.4,209.4,127.4z M209.3,126.2c0.5,0,1-0.1,1.4-0.4s0.7-0.6,1-1.1c0.2-0.4,0.4-1,0.4-1.6s-0.1-1.1-0.4-1.6
					c-0.2-0.5-0.5-0.8-1-1.1s-0.9-0.4-1.4-0.4s-1,0.1-1.4,0.4s-0.7,0.6-1,1.1c-0.2,0.4-0.4,1-0.4,1.6s0.1,1.1,0.4,1.6
					c0.2,0.4,0.5,0.8,1,1.1C208.2,126.1,208.7,126.2,209.3,126.2z"/>
				<path class="st1" d="M218.8,127.4c-0.8,0-1.4-0.2-2-0.5c-0.6-0.4-1.1-0.8-1.4-1.5c-0.3-0.6-0.5-1.3-0.5-2.2
					c0-0.8,0.2-1.6,0.5-2.2s0.8-1.1,1.4-1.5c0.6-0.4,1.3-0.5,2.1-0.5s1.4,0.2,2,0.5s1,0.8,1.3,1.4s0.4,1.2,0.4,1.8
					c0,0.1,0,0.2,0,0.4c0,0.1,0,0.2,0,0.4h-6.3c0,0.6,0.2,1.1,0.4,1.5s0.6,0.7,0.9,0.9s0.8,0.3,1.2,0.3c0.6,0,1-0.1,1.4-0.4
					s0.6-0.6,0.8-1h1.3c-0.2,0.7-0.6,1.3-1.2,1.8C220.5,127.1,219.7,127.4,218.8,127.4z M218.8,120.2c-0.6,0-1.2,0.2-1.7,0.6
					s-0.8,1-0.9,1.7h5c0-0.7-0.3-1.3-0.7-1.7C220,120.4,219.4,120.2,218.8,120.2z"/>
				<path class="st1" d="M227.9,127.4c-0.8,0-1.5-0.2-2.1-0.5s-1.1-0.9-1.4-1.5c-0.3-0.6-0.5-1.3-0.5-2.1s0.2-1.5,0.5-2.1
					s0.8-1.1,1.4-1.5s1.3-0.5,2.1-0.5c0.7,0,1.2,0.1,1.7,0.4s0.9,0.6,1.2,1.1v-4.9h1.3v11.5h-1.2l-0.1-1.3c-0.3,0.4-0.6,0.7-1.1,1
					C229.2,127.2,228.6,127.4,227.9,127.4z M228.1,126.2c0.5,0,1-0.1,1.4-0.4c0.4-0.2,0.7-0.6,1-1.1c0.2-0.4,0.3-1,0.3-1.6
					s-0.1-1.1-0.3-1.6s-0.5-0.8-1-1.1s-0.9-0.4-1.4-0.4s-1,0.1-1.4,0.4c-0.4,0.2-0.7,0.6-1,1.1c-0.2,0.4-0.3,1-0.3,1.6
					s0.1,1.1,0.3,1.6s0.6,0.8,1,1.1C227.1,126.1,227.5,126.2,228.1,126.2z"/>
				<path class="st1" d="M241.2,127.4c-0.7,0-1.2-0.1-1.7-0.3c-0.4-0.2-0.8-0.5-1-0.9s-0.3-0.8-0.3-1.2c0-0.8,0.3-1.4,0.9-1.9
					c0.6-0.4,1.5-0.7,2.5-0.7h2.1v-0.1c0-0.7-0.2-1.2-0.5-1.6c-0.4-0.4-0.9-0.5-1.5-0.5c-0.5,0-1,0.1-1.4,0.4s-0.6,0.6-0.7,1.1h-1.4
					c0.1-0.6,0.2-1.1,0.6-1.5c0.3-0.4,0.8-0.7,1.3-0.9c0.5-0.2,1-0.3,1.6-0.3c1.1,0,1.9,0.3,2.5,0.9s0.8,1.4,0.8,2.4v4.9h-1
					l-0.1-1.4c-0.2,0.4-0.5,0.8-1,1.1C242.5,127.2,242,127.4,241.2,127.4z M241.4,126.2c0.5,0,1-0.1,1.3-0.4s0.6-0.6,0.8-1
					s0.3-0.9,0.3-1.3l0,0h-2c-0.8,0-1.3,0.1-1.7,0.4c-0.3,0.3-0.5,0.6-0.5,1s0.2,0.8,0.5,1C240.5,126.1,240.9,126.2,241.4,126.2z"/>
				<path class="st1" d="M247.2,127.2v-7.9h1.2l0.1,1.4c0.3-0.5,0.6-0.9,1.1-1.2c0.5-0.3,1-0.4,1.6-0.4c0.9,0,1.7,0.3,2.2,0.9
					c0.6,0.6,0.8,1.5,0.8,2.6v4.6H253v-4.5c0-1.6-0.7-2.5-2-2.5c-0.7,0-1.2,0.2-1.7,0.7s-0.7,1.2-0.7,2.1v4.1L247.2,127.2
					L247.2,127.2z"/>
				<path class="st1" d="M260,127.4c-0.8,0-1.5-0.2-2.1-0.5s-1-0.9-1.4-1.5c-0.3-0.6-0.5-1.3-0.5-2.1s0.2-1.5,0.5-2.1
					s0.8-1.1,1.4-1.5s1.3-0.5,2.1-0.5c0.7,0,1.2,0.1,1.7,0.4s0.9,0.6,1.2,1.1v-4.9h1.3v11.5H263l-0.1-1.3c-0.3,0.4-0.6,0.7-1.1,1
					C261.3,127.2,260.7,127.4,260,127.4z M260.1,126.2c0.5,0,1-0.1,1.4-0.4s0.7-0.6,1-1.1c0.2-0.4,0.3-1,0.3-1.6s-0.1-1.1-0.3-1.6
					c-0.2-0.5-0.5-0.8-1-1.1s-0.9-0.4-1.4-0.4s-1,0.1-1.4,0.4s-0.7,0.6-1,1.1c-0.2,0.4-0.3,1-0.3,1.6s0.1,1.1,0.3,1.6s0.5,0.8,1,1.1
					S259.6,126.2,260.1,126.2z"/>
				<path class="st2" d="M38.4,137.7c0.1,0,0.3,0,0.5,0c1,0,1.4,0.1,1.4,0.2c0,0.1,0.1,0.2,0.2,0.5c0.2,0.5,0.3,0.8,0.3,1.2
					c0,1.1,0.2,2.9,0.8,5.4c0.1,1,0.3,2,0.6,2.9c0.2,0.9,0.4,1.4,0.5,1.4s0.1-0.1,0.1-0.3c0-0.8,0.6-1.3,1.7-1.7
					c0.5-0.1,0.9-0.2,1.1-0.2c0.4,0,0.8,0.2,1,0.5s0.5,0.9,0.7,1.7c0.2,0.6,0.3,0.9,0.4,0.8c0.1-0.1,0.2-0.7,0.4-1.9
					s0.4-2.1,0.4-2.8c0.1-0.4,0.1-0.9,0.2-1.6c0.1-0.7,0.2-1.4,0.3-2.2c0.2-1.5,0.3-2.3,0.4-2.6c0.1-0.3,0.5-0.6,1-0.8
					s1-0.4,1.4-0.4s0.7,0.2,1,0.5s0.4,0.7,0.4,1.1v0.1v0.1c-0.7,3.8-1.3,7.4-1.7,10.9c-0.3,2.5-0.5,4.2-0.6,5.3s-0.3,2-0.5,2.8
					s-0.4,1.3-0.6,1.4c-0.2,0.2-0.5,0.3-0.8,0.3c-0.1,0-0.4,0-0.7,0c-0.9,0-1.5-0.1-1.7-0.5c-0.1-0.1-0.3-0.6-0.6-1.4
					c-0.3-0.8-0.5-1.4-0.6-1.9c-0.1-0.3-0.2-0.5-0.4-0.5c-0.1,0-0.2,0.1-0.2,0.4c0,0.5-0.2,1.1-0.4,1.8c-0.3,0.7-0.6,1.2-0.9,1.5
					c-0.3,0.3-0.6,0.5-0.9,0.5c-0.2,0-0.4,0-0.5,0c-0.9-0.2-1.5-0.5-1.8-0.9s-0.5-1.2-0.6-2.6c-1-7.2-1.7-12.3-2.2-15.1
					c-0.2-1.1-0.3-2-0.3-2.6c0-0.4,0.1-0.8,0.3-1C37.8,137.9,38.1,137.7,38.4,137.7z"/>
				<path class="st2" d="M61,140.9c0.7-0.7,1.8-1.1,3.3-1.1c0.6,0,1.2,0.1,1.6,0.3c0.6,0.3,1,1.1,1.3,2.4c0.2,1.1,0.4,2.9,0.7,5.4
					s0.4,4.5,0.5,5.9c0,1.3,0.1,2.8,0.3,4.4c0.2,1.6,0.3,2.5,0.4,2.7c0,0,0,0.1,0,0.2c0,0.2-0.1,0.6-0.3,0.9
					c-0.2,0.4-0.4,0.6-0.6,0.6c-0.1,0-0.2,0-0.4,0c-0.4,0-0.9-0.1-1.4-0.3s-0.8-0.4-0.9-0.6s-0.2-1-0.4-2.3s-0.2-2.4-0.2-3.2
					s-0.1-1.2-0.2-1.3s-0.8-0.1-1.9-0.1c-0.9,0-1.4,0-1.5,0.1c0,0.1,0,0.3,0,0.5c0,0.6,0,1.3,0.1,2.3c0.1,1.1,0.1,2,0.1,2.7v0.4
					c0,0.2-0.2,0.4-0.6,0.5c-0.4,0.1-0.7,0.2-1.1,0.2c-0.2,0-0.3,0-0.4,0c-1-0.3-1.5-0.7-1.6-1.2c0,0,0-0.1,0-0.2c0-0.1,0-0.2,0-0.3
					c0-1.2,0.1-3.7,0.4-7.6s0.5-6.1,0.6-6.7c0.2-0.8,0.5-1.6,1-2.6C60.1,142,60.6,141.3,61,140.9z M63.8,145.2
					c-0.2-0.8-0.4-1.2-0.6-1.2c-0.2,0-0.4,0.3-0.7,0.9c-0.5,1.1-0.9,2.7-1,4.6c-0.1,0.8-0.1,1.3-0.1,1.4c0,0.4,0.1,0.6,0.2,0.7
					c0.1,0.1,0.5,0.2,1.1,0.2c0.8,0,1.3-0.1,1.4-0.2c0.1-0.1,0.1-0.5,0.1-1.1C64.3,148.5,64.1,146.8,63.8,145.2z"/>
				<path class="st2" d="M80.3,138.4c0.4-0.3,0.7-0.5,1-0.5c0.2,0,0.6,0.1,1,0.3c0.5,0.3,0.8,0.6,0.8,0.8c0,0.4-0.6,1.6-1.7,3.6
					c-0.3,0.5-0.6,1-0.9,1.5s-0.5,0.9-0.7,1.2s-0.3,0.6-0.5,0.9c-0.2,0.3-0.3,0.5-0.4,0.7c-0.1,0.1-0.2,0.3-0.2,0.4
					c-0.1,0.1-0.1,0.2-0.1,0.3s0,0.1,0,0.2c0,0.3,0.2,0.9,0.7,1.6c0.6,0.9,0.8,1.4,0.8,1.5s0.2,0.4,0.5,0.8c0.3,0.3,0.6,1,1,1.9
					c0.2,0.6,0.6,1.2,1,1.9c1.3,1.9,1.9,3.2,1.9,4s-0.6,1.2-1.7,1.2h-0.1c-0.7,0-1.2-0.1-1.4-0.3c-0.2-0.2-0.5-0.7-0.8-1.5
					c-0.2-0.6-0.5-1.2-0.9-1.9s-0.7-1.2-0.8-1.7c-0.2-0.7-0.6-1.4-1.1-2.3c-0.5-0.9-0.8-1.3-1-1.3c-0.1,0-0.2,0.3-0.2,0.9
					c0,1,0.1,2.7,0.4,5c0.1,0.7,0.1,1.3,0.1,1.6c0,0.5-0.1,0.8-0.3,1c-0.2,0.1-0.6,0.2-1.2,0.3c-0.4,0.1-0.6,0.1-0.7,0.1
					c-0.3,0-0.6-0.2-0.9-0.5c-0.3-0.4-0.5-0.9-0.5-1.6c0-0.1,0-0.3,0-0.5c0-0.3,0-0.5,0-0.7c0.1-1.1,0.1-2.5,0.1-4.2
					c0-2.4,0-4.8-0.1-7.3l-0.1-6.9l0.5-0.2c0.2-0.1,0.3-0.1,0.4-0.1c0.2,0,0.6,0.1,1,0.4l0.9,0.4l0.1,2.8c0.1,1.8,0.1,2.7,0.2,2.7
					s0.6-0.7,1.4-2s1.3-2.3,1.5-3C79.6,139.4,79.9,138.8,80.3,138.4z"/>
				<path class="st2" d="M90.7,139.4c0.3-0.1,0.8-0.1,1.3-0.1c1.5,0,2.5,0.2,2.9,0.5c0.3,0.2,0.4,0.6,0.4,0.9c0,0.4-0.1,0.7-0.4,0.9
					s-0.6,0.4-1.1,0.4c-0.4,0-0.7,0.1-0.8,0.3c-0.1,0.2-0.2,0.7-0.2,1.5c0,0.2,0,0.9,0.1,2.1c0.1,1.4,0.1,2.3,0.2,2.7
					s0.2,0.6,0.3,0.6c0,0,0.2,0,0.6,0c0.3,0,0.6,0,0.8,0c0.7,0,1.2,0.2,1.5,0.5c0.2,0.2,0.3,0.4,0.3,0.6c0,0.4-0.6,0.9-1.8,1.3
					c-0.7,0.2-1.1,0.4-1.3,0.6s-0.2,0.4-0.3,0.9c-0.1,0.5-0.1,0.8-0.1,1.2c0,1.4,0.1,2.4,0.4,3.1c0.1,0.3,0.2,0.5,0.4,0.5
					s0.4,0.1,0.9,0.1c0.6,0,1.1,0.1,1.5,0.4s0.6,0.6,0.6,1c0,0.2-0.2,0.6-0.6,1c-0.7,0.6-1.8,1-3.4,1s-2.7-0.4-3.2-1
					c-0.3-0.4-0.5-2.8-0.5-7.2c-0.1-5.5-0.1-8.8-0.2-9.7l-0.1-3.1l0.6-0.3C89.9,139.7,90.3,139.5,90.7,139.4z"/>
				<path class="st2" d="M103.4,139.2c0.7-0.1,1.4-0.1,2.1-0.1c0.6,0,1.1,0,1.3,0c1.3,0.1,2.1,0.2,2.4,0.5c0.2,0.3,0.4,0.6,0.4,0.9
					c0,0.7-0.6,1.2-1.9,1.5c-0.3,0.1-1.1,0.2-2.1,0.5l-0.9,0.2v2.8c0,1.4,0,2.2,0.1,2.4c0,0.2,0.2,0.4,0.5,0.6
					c0.3,0.2,0.7,0.2,1.3,0.2c0.5,0,0.8,0.1,1.1,0.5c0.2,0.3,0.3,0.6,0.3,0.9c0,0.7-0.6,1.1-1.7,1.4c-0.7,0.2-1.1,0.3-1.2,0.4
					c-0.1,0.1-0.1,0.3-0.1,0.7c0,0.3,0.2,2.6,0.5,6.7l0.1,1.1c0,0.3-0.2,0.6-0.6,0.8c-0.2,0.1-0.6,0.2-0.9,0.2
					c-0.6,0-1.1-0.2-1.7-0.8c-0.5-0.4-0.7-0.9-0.7-1.5v-0.3c0-0.3,0-0.8,0-1.5s0-1.3,0-1.7c0-5.4-0.1-9.4-0.3-12.1
					c-0.1-1.1-0.1-1.9-0.1-2.4c0-0.8,0.1-1.2,0.4-1.4C101.8,139.4,102.4,139.3,103.4,139.2z"/>
				<path class="st2" d="M114.4,136.8c0.3-0.2,0.8-0.4,1.3-0.4c0.6,0,1.1,0.1,1.5,0.5l0.6,0.5v5.1c0.1,6,0.2,10.1,0.6,12.3
					c0.1,0.5,0.2,0.7,0.2,0.7c0.3,0,0.5-0.9,0.6-2.6c0.4-3.6,0.6-7.1,0.6-10.6v-0.9v-0.5c0-1.9,0.2-3,0.7-3.3
					c0.1-0.1,0.4-0.2,0.8-0.2c0.8,0,1.3,0.1,1.6,0.4c0.5,0.4,0.7,1.5,0.7,3.4c0,1.5-0.1,4.4-0.4,8.6c-0.2,3.5-0.6,6-1.1,7.4
					c-0.6,1.5-1.4,2.4-2.7,2.8c-0.5,0.2-0.8,0.2-1,0.2s-0.6-0.1-1.4-0.5c-1.5-0.7-2.4-1.9-2.6-3.5c-0.2-1.4-0.3-5.9-0.5-13.5
					c0-1.1,0-2.3,0-3.6c0-0.9,0-1.4,0.1-1.7C114.1,137.2,114.2,137,114.4,136.8z"/>
				<path class="st2" d="M128.2,138.2c0.2-0.2,0.5-0.4,0.8-0.4c0.2,0,0.5,0,0.6,0c0.6,0.1,1.1,0.3,1.2,0.5c0.3,0.4,0.5,2.9,0.5,7.6
					v2.5v2.2c0,3.7,0,5.7,0.1,6c0.1,0.5,0.6,0.7,1.4,0.7c0.4,0,0.7,0,1,0c0.2,0,0.5,0,0.8,0c0.5,0,0.9,0.1,1.1,0.2
					c0.2,0.2,0.3,0.5,0.3,0.9c0,0.3-0.1,0.5-0.2,0.7c-0.1,0.2-0.4,0.4-0.8,0.7c-0.8,0.4-1.6,0.6-2.4,0.7c-1.2,0.1-1.8,0.1-1.9,0.1
					c-0.1,0-0.1,0-0.3,0c-0.3,0-0.7-0.1-1.1-0.3c-0.4-0.2-0.7-0.4-1-0.7c-0.4-0.5-0.6-1.9-0.6-4.3c0-0.6,0-1.7,0.1-3.3
					c0.1-1.5,0.1-3,0.1-4.8c0-4.1-0.1-6.6-0.2-7.6c-0.1-0.4-0.1-0.6-0.1-0.7C127.8,138.7,127.9,138.5,128.2,138.2z"/>
				<path class="st2" d="M141.7,138.5c0.4-0.2,0.8-0.3,1.3-0.3c0.8,0,1.4,0.5,1.7,1.6c0.2,0.8,0.6,1.7,1,2.6
					c0.4,0.9,0.7,1.6,0.9,2.2c0.3,0.9,0.5,1.5,0.8,1.7c0.1,0.1,0.2,0.2,0.2,0.2c0.1,0,0.2-0.6,0.3-1.8c0.1-1.1,0.1-1.9,0.1-2.3v-0.5
					c0-0.2,0-0.5,0-0.8c0-0.7,0.2-1.2,0.5-1.6c0.3-0.4,0.9-0.6,1.6-0.6c0.5,0,0.9,0.1,1.2,0.4c0.2,0.2,0.4,0.5,0.4,1s0,1-0.1,1.5
					s-0.1,3.9-0.2,10.2c0,4-0.1,6.3-0.1,7.1s-0.1,1.3-0.3,1.5c-0.3,0.3-0.7,0.5-1.3,0.5c-1.2,0-1.9-0.6-2.1-1.8
					c-0.1-0.5-0.3-1.3-0.8-2.5c-0.4-1.1-0.7-2.1-0.8-3c-0.2-1.2-0.6-2.7-1.2-4.6c-0.1-0.2-0.1-0.2-0.1-0.2c-0.1,0-0.2,1.2-0.2,3.5v2
					v2.2c0,2.3-0.1,3.6-0.2,3.9c-0.3,0.8-0.9,1.2-1.8,1.2c-0.5,0-1-0.2-1.3-0.6c-0.2-0.3-0.4-0.5-0.4-0.8c0-0.1,0-0.3,0.1-0.8
					c0.1-0.9,0.2-4.3,0.2-10.1c0-6.5,0.1-9.9,0.2-10.3c0.1-0.2,0.2-0.4,0.5-0.5C141.6,138.5,141.6,138.5,141.7,138.5z"/>
				<path class="st2" d="M157.6,139.4c0.3-0.1,0.8-0.1,1.3-0.1c1.5,0,2.5,0.2,2.9,0.5c0.3,0.2,0.4,0.6,0.4,0.9
					c0,0.4-0.1,0.7-0.4,0.9s-0.6,0.4-1.1,0.4c-0.4,0-0.7,0.1-0.8,0.3s-0.2,0.7-0.2,1.5c0,0.2,0,0.9,0.1,2.1c0.1,1.4,0.1,2.3,0.2,2.7
					c0.1,0.4,0.2,0.6,0.3,0.6c0,0,0.2,0,0.6,0c0.3,0,0.6,0,0.8,0c0.7,0,1.2,0.2,1.5,0.5c0.2,0.2,0.3,0.4,0.3,0.6
					c0,0.4-0.6,0.9-1.8,1.3c-0.7,0.2-1.1,0.4-1.3,0.6s-0.2,0.4-0.3,0.9s-0.1,0.8-0.1,1.2c0,1.4,0.1,2.4,0.4,3.1
					c0.1,0.3,0.2,0.5,0.4,0.5s0.4,0.1,0.9,0.1c0.6,0,1.1,0.1,1.5,0.4s0.6,0.6,0.6,1c0,0.2-0.2,0.6-0.6,1c-0.7,0.6-1.8,1-3.4,1
					c-1.6,0-2.7-0.4-3.2-1c-0.3-0.4-0.4-2.8-0.5-7.2c-0.1-5.5-0.1-8.8-0.2-9.7l-0.1-3.1l0.6-0.3
					C156.8,139.7,157.2,139.5,157.6,139.4z"/>
				<path class="st2" d="M171.4,137.9c0.3-0.2,0.7-0.2,1.2-0.2c0.3,0,0.6,0,0.8,0c0.8,0.1,1.4,0.2,1.7,0.3s0.6,0.4,0.8,0.8
					c0.3,0.4,0.4,0.9,0.4,1.3c0,0.5-0.2,0.9-0.6,1.3c-0.3,0.3-0.7,0.5-1,0.5c-0.4,0-0.7-0.2-1.1-0.7c-0.2-0.4-0.5-0.5-0.8-0.5
					c-0.2,0-0.5,0.2-0.7,0.5s-0.4,0.7-0.4,1.2v0.2c0,1.5,1.2,4.4,3.5,8.5c0.4,0.7,0.8,1.9,1.1,3.7c0,0.1,0,0.3,0,0.6
					c0,1.5-0.3,2.7-1,3.6c-0.3,0.4-0.7,0.7-1.4,1c-0.6,0.3-1.2,0.4-1.7,0.4c-0.1,0-0.1,0-0.2,0c-0.1,0-0.1,0-0.2,0
					c-0.6-0.1-1.4-0.6-2.3-1.4c-0.9-0.9-1.4-1.5-1.4-2c0-0.2,0.1-0.5,0.5-0.8c0.3-0.3,0.6-0.5,0.9-0.5c0.1,0,0.1,0,0.3,0
					c0.3,0,0.8,0.4,1.5,1.3c0.2,0.4,0.5,0.5,0.8,0.5s0.5-0.2,0.6-0.5c0.1-0.1,0.1-0.3,0.1-0.6c0-1.6-0.7-4-2.2-7.1
					c-1.3-2.9-2-5.1-2-6.5c0-0.6,0.1-1.2,0.3-1.7c0.4-1.1,0.8-1.8,1.1-2.2C170.4,138.5,170.8,138.2,171.4,137.9z"/>
				<path class="st2" d="M183.9,137.9c0.3-0.2,0.7-0.2,1.2-0.2c0.3,0,0.6,0,0.8,0c0.8,0.1,1.4,0.2,1.7,0.3s0.6,0.4,0.8,0.8
					c0.3,0.4,0.4,0.9,0.4,1.3c0,0.5-0.2,0.9-0.6,1.3c-0.3,0.3-0.7,0.5-1,0.5c-0.4,0-0.7-0.2-1.1-0.7c-0.2-0.4-0.5-0.5-0.8-0.5
					c-0.2,0-0.5,0.2-0.7,0.5s-0.4,0.7-0.4,1.2v0.2c0,1.5,1.2,4.4,3.5,8.5c0.4,0.7,0.8,1.9,1.1,3.7c0,0.1,0,0.3,0,0.6
					c0,1.5-0.3,2.7-1,3.6c-0.3,0.4-0.7,0.7-1.4,1s-1.2,0.4-1.7,0.4c-0.1,0-0.1,0-0.2,0c-0.1,0-0.1,0-0.2,0c-0.6-0.1-1.4-0.6-2.3-1.4
					c-0.9-0.9-1.4-1.5-1.4-2c0-0.2,0.2-0.5,0.5-0.8s0.6-0.5,0.9-0.5c0.1,0,0.2,0,0.3,0c0.3,0,0.8,0.4,1.5,1.3
					c0.2,0.4,0.5,0.5,0.8,0.5s0.5-0.2,0.6-0.5c0.1-0.1,0.1-0.3,0.1-0.6c0-1.6-0.7-4-2.2-7.1c-1.3-2.9-2-5.1-2-6.5
					c0-0.6,0.1-1.2,0.3-1.7c0.4-1.1,0.8-1.8,1-2.2C182.8,138.5,183.3,138.2,183.9,137.9z"/>
				<path class="st2" d="M193.4,156.1c0.3-0.3,0.6-0.5,0.9-0.5c0.1,0,0.3,0,0.6,0.1c1.1,0.2,1.7,0.7,1.7,1.3c0,0.5-0.4,1-1.1,1.4
					c-0.6,0.4-1.1,0.6-1.4,0.6c-0.6,0-1-0.5-1.1-1.4c0-0.2,0-0.4,0-0.6C193,156.6,193.2,156.3,193.4,156.1z"/>
				<path class="st3" d="M80.7,83.2c24.4,0,44.2-1.7,44.2-3.9c0-2.2-19.8-3.9-44.2-3.9s-44.2,1.7-44.2,3.9
					C36.5,81.5,56.3,83.2,80.7,83.2z"/>
				<path class="st4" d="M52.7,78.9c0.3,0,0.6-0.3,0.6-0.6v-2.9c0-0.6,0.6-1.2,1.4-1.2h57.2c0.8,0,1.4,0.5,1.4,1.2v2.9
					c0,0.3,0.3,0.6,0.6,0.6h2.2c0.3,0,0.6-0.3,0.6-0.6V63c0-0.8-0.8-1.5-1.8-1.5h-1.5h-60h-1.5c-1,0-1.8,0.7-1.8,1.5v15.3
					c0,0.3,0.3,0.6,0.6,0.6H52.7L52.7,78.9z M113.3,66.6v2.7c0,1.2-1.2,2.2-2.6,2.2H55.9c-1.4,0-2.6-1-2.6-2.2v-2.7
					c0-0.8,0.8-1.5,1.8-1.5h56.4C112.5,65,113.3,65.7,113.3,66.6z"/>
				<path class="st4" d="M108.4,47.1V31.9c0-0.9-0.7-1.5-1.5-1.4c-0.6,0.1-1,0.8-1,1.5v0.8c0,0.6-0.5,1.2-1,1.2H61.8
					c-0.6,0-1-0.5-1-1.2V32c0-0.7-0.4-1.3-1-1.5c-0.8-0.1-1.5,0.5-1.5,1.4v15.2H108.4z"/>
				<path class="st4" d="M116.7,55.6H50v8.9h66.7V55.6z"/>
				<path class="st1" d="M116.7,64H50v8.9h66.7V64z"/>
				<path class="st0" d="M81,46.7H63.2v-3.5c0-2.5,2.1-4.6,4.6-4.6h8.6c2.5,0,4.6,2.1,4.6,4.6V46.7L81,46.7z"/>
				<path class="st0" d="M104.7,46.7H87v-3.5c0-2.5,2.1-4.6,4.6-4.6h8.6c2.5,0,4.6,2.1,4.6,4.6L104.7,46.7L104.7,46.7z"/>
				<path class="st5" d="M54.5,47.9L50,55.7h66.8l-4.3-7.8c-0.4-0.8-1.2-1.2-2.1-1.2H56.5C55.7,46.7,54.9,47.1,54.5,47.9z"/>
				<path class="st1" d="M52.9,50.6l-2.9,5h66.8l-3.1-5.4c-0.4-0.8-1.2-1.2-2.1-1.2L55,49.5C54.1,49.4,53.3,49.9,52.9,50.6z"/>
				<path class="st6" d="M154.3,49h-18.1c-1.4,0-2.4-1.1-2.4-2.4c0-1.3,1.1-2.4,2.4-2.4l18.1-0.6c1.4,0,2.5,1.1,2.5,2.4v0.6
					C156.8,47.9,155.7,49,154.3,49z"/>
				<path class="st6" d="M154.3,57.3l-18.1-0.6c-1.3,0-2.4-1.1-2.4-2.4v-0.7c0-1.4,1.1-2.4,2.4-2.4h18.1c1.4,0,2.4,1.1,2.4,2.4v1.3
					C156.8,56.3,155.6,57.4,154.3,57.3z"/>
				<path class="st7" d="M156.3,32.6l-20.7,31.1"/>
				<path class="st8" d="M231.7,0c0,0,0.2,26.9-20.6,39.8C211.2,39.8,208.2,17,231.7,0z"/>
				<path class="st9" d="M214.2,6.6c0,0,3.8,9.8-4.1,32.6C210.1,39.2,198.1,28.3,214.2,6.6z"/>
				<path class="st6" d="M248,77.4c0.4-44.4-42.9-47.4-60.4-39.3c-9.1,4.2-22.8,16-22.1,39.3H248z"/>
				<path d="M193.5,58.5c1.6,0,2.9-1.3,2.9-2.9s-1.3-2.9-2.9-2.9s-2.9,1.3-2.9,2.9S191.9,58.5,193.5,58.5z"/>
				<path d="M217.6,58.5c1.6,0,2.9-1.3,2.9-2.9s-1.3-2.9-2.9-2.9c-1.6,0-2.9,1.3-2.9,2.9S216,58.5,217.6,58.5z"/>
				<path class="st9" d="M187.4,34.4c0,0,3.8-3.1,8.6-0.8C196,33.6,194.6,35.1,187.4,34.4z"/>
				<path class="st10" d="M198.1,36.9c-1.9-3.5-5.5-7-13.6-8.7"/>
				<path class="st11" d="M182.5,26.8c0,0,2.6-6.5,4.1-4C188,25.3,183.4,28.7,182.5,26.8z"/>
				<path class="st11" d="M182.2,28.1c0,0,4.7-5.4,5.1-2.3C187.8,29.1,182.3,30.4,182.2,28.1z"/>
				<path class="st11" d="M182.1,28.6c0,0-1.9-6.4,0.9-6.2C185.9,22.7,184.1,28.9,182.1,28.6z"/>
				<path class="st11" d="M185.3,27.6c0,0-6.9,4.6-6.3,0.9S185.9,25.1,185.3,27.6z"/>
				<path class="st11" d="M182.1,28.4c0,0-4.3,3.5-1.8,4.6C182.9,34,183.9,29,182.1,28.4z"/>
				<path class="st11" d="M182.1,28.6c0,0-0.2,6.8,2.4,4.8C187.2,31.4,183.8,27,182.1,28.6z"/>
				<path class="st2" d="M184.2,28.5c0.8-1.4,0.7-3-0.1-3.5c-0.9-0.5-2.2,0.3-3,1.8c-0.8,1.4-0.7,3,0.1,3.5
					C182.1,30.7,183.4,29.9,184.2,28.5z"/>
				<path d="M207.5,62.2v1.4c0,0.4-0.3,0.6-0.6,0.6h-0.7c-0.4,0-0.7-0.3-0.7-0.6l0.1-1.4c-1.4,0.1-3.3,2.2-3.3,3.3
					c0,1.3,2.9-0.5,4.2-0.5s4,1.6,4,0.3C210.4,63.8,208.9,62.3,207.5,62.2z"/>
				<path class="st0" d="M206.1,64.2h0.7c0.4,0,0.7-0.3,0.7-0.6v-1.4c-0.5,0-0.9,0-1.2,0c-0.2,0-0.5,0-0.8,0l-0.1,1.4
					C205.5,64,205.8,64.2,206.1,64.2z"/>
			</g>
		</g>
	</g>
</g>
</svg>
