<?xml version="1.0" encoding="utf-8"?>
<!-- Generator: Adobe Illustrator 25.1.0, SVG Export Plug-In . SVG Version: 6.00 Build 0)  -->
<svg version="1.1" id="Layer_1" xmlns="http://www.w3.org/2000/svg" xmlns:xlink="http://www.w3.org/1999/xlink" x="0px" y="0px"
	 viewBox="0 0 333.5 271.7" style="enable-background:new 0 0 333.5 271.7;" xml:space="preserve">
<style type="text/css">
	.st0{fill:#FFFFFF;}
	.st1{fill:#808080;}
	.st2{fill:#FF9F1A;}
	.st3{fill:none;stroke:#646464;stroke-width:2.1601;stroke-linecap:round;stroke-linejoin:round;stroke-miterlimit:10;}
	.st4{fill:#FFFFFF;stroke:#FF9F1A;stroke-width:0.6904;stroke-miterlimit:10;}
	.st5{fill:#F4F1EF;}
	.st6{fill:#BFBFBF;}
	.st7{fill:#00CDDC;}
</style>
<g>
	<g>
		<g>
			<g>
				<path class="st0" d="M333.5,197.1c0-174.2-8.8-191.8-63.6-191.8C243,5.3,132.5-0.1,97.4,0.6C62.9,1.3,11.1-6.6,5,20.1
					c-6,26.4-4.4,69.6-4.4,117c0,74.6-4.6,124,11.8,129.3c35.8,11.7,183.9,0.5,227.4-0.7C284.6,264.6,333.5,273.1,333.5,197.1z"/>
				<path class="st1" d="M27.6,51.9V40.7h3.9c0.8,0,1.4,0.1,2,0.4c0.5,0.2,0.9,0.6,1.2,1s0.4,0.9,0.4,1.5c0,0.7-0.2,1.3-0.6,1.7
					s-0.9,0.7-1.4,0.9c0.4,0.1,0.8,0.2,1.1,0.5s0.6,0.6,0.8,1s0.3,0.8,0.3,1.3c0,0.6-0.1,1.1-0.4,1.5c-0.3,0.5-0.7,0.8-1.2,1.1
					s-1.2,0.4-2,0.4L27.6,51.9L27.6,51.9z M29,45.6h2.5c0.7,0,1.3-0.2,1.7-0.5s0.6-0.8,0.6-1.4s-0.2-1-0.6-1.4
					c-0.4-0.3-1-0.5-1.7-0.5H29V45.6L29,45.6z M29,50.8h2.6c0.8,0,1.4-0.2,1.8-0.5c0.4-0.4,0.6-0.9,0.6-1.5s-0.2-1.1-0.7-1.5
					s-1-0.6-1.8-0.6H29C29,46.7,29,50.8,29,50.8z"/>
				<path class="st1" d="M38,55.4l2-4.3h-0.5l-3.1-7.2h1.5l2.6,6.2l2.8-6.2h1.4l-5.2,11.5H38z"/>
				<path class="st1" d="M50.3,51.9V40.4h1.3v11.5H50.3z"/>
				<path class="st1" d="M54.7,42.2c-0.3,0-0.5-0.1-0.7-0.3s-0.3-0.4-0.3-0.7s0.1-0.5,0.3-0.6c0.2-0.2,0.4-0.3,0.7-0.3
					s0.5,0.1,0.7,0.3s0.3,0.4,0.3,0.6c0,0.3-0.1,0.5-0.3,0.7C55.2,42.1,55,42.2,54.7,42.2z M54,51.9v-8h1.3v7.9H54V51.9z"/>
				<path class="st1" d="M57.7,51.9v-8h1.2L59,45c0.3-0.4,0.6-0.8,1-1s0.9-0.4,1.4-0.4c0.6,0,1.2,0.1,1.6,0.4c0.4,0.2,0.8,0.6,1,1.2
					c0.3-0.5,0.7-0.9,1.1-1.1c0.5-0.3,1-0.4,1.6-0.4c0.9,0,1.7,0.3,2.3,0.9c0.6,0.6,0.9,1.4,0.9,2.6v4.6h-1.3v-4.5
					c0-0.8-0.2-1.4-0.5-1.9c-0.3-0.4-0.8-0.6-1.4-0.6s-1.2,0.2-1.6,0.7s-0.6,1.2-0.6,2.1v4.1h-1.3v-4.5c0-0.8-0.2-1.4-0.5-1.9
					c-0.3-0.4-0.8-0.6-1.4-0.6s-1.2,0.2-1.6,0.7s-0.6,1.2-0.6,2.1v4.1L57.7,51.9L57.7,51.9z"/>
				<path class="st1" d="M72.8,42.2c-0.3,0-0.5-0.1-0.7-0.3s-0.3-0.4-0.3-0.7s0.1-0.5,0.3-0.6c0.2-0.2,0.4-0.3,0.7-0.3
					s0.5,0.1,0.7,0.3s0.3,0.4,0.3,0.6c0,0.3-0.1,0.5-0.3,0.7C73.3,42.1,73.1,42.2,72.8,42.2z M72.2,51.9v-8h1.3v7.9h-1.3V51.9z"/>
				<path class="st1" d="M79,51.9c-0.7,0-1.3-0.2-1.7-0.5c-0.4-0.4-0.6-1-0.6-1.9v-4.4h-1.4v-1.2h1.4l0.2-1.9h1.2v1.9h2.3V45h-2.3
					v4.4c0,0.5,0.1,0.8,0.3,1s0.6,0.3,1.1,0.3h0.8v1.2L79,51.9L79,51.9z"/>
				<path class="st1" d="M82.9,42.2c-0.3,0-0.5-0.1-0.7-0.3s-0.3-0.4-0.3-0.7s0.1-0.5,0.3-0.6s0.4-0.3,0.7-0.3
					c0.3,0,0.5,0.1,0.7,0.3s0.3,0.4,0.3,0.6c0,0.3-0.1,0.5-0.3,0.7C83.3,42.1,83.1,42.2,82.9,42.2z M82.2,51.9v-8h1.3v7.9h-1.3V51.9
					z"/>
				<path class="st1" d="M85.9,51.9v-8h1.2l0.1,1.4c0.3-0.5,0.6-0.9,1.1-1.2s1-0.4,1.6-0.4c0.9,0,1.7,0.3,2.2,0.9
					c0.6,0.6,0.8,1.5,0.8,2.6v4.6h-1.3v-4.5c0-1.7-0.7-2.5-2-2.5c-0.7,0-1.2,0.2-1.7,0.7c-0.4,0.5-0.7,1.2-0.7,2.1v4.1L85.9,51.9
					L85.9,51.9z"/>
				<path class="st1" d="M98.1,49.4c-0.4,0-0.9-0.1-1.2-0.2L96.1,50c0.1,0.1,0.3,0.2,0.4,0.2s0.4,0.1,0.8,0.2
					c0.3,0.1,0.8,0.1,1.4,0.1c1.1,0.1,1.8,0.3,2.3,0.7s0.7,1,0.7,1.6c0,0.5-0.1,0.9-0.4,1.3c-0.2,0.4-0.6,0.8-1.2,1
					c-0.5,0.3-1.2,0.4-2,0.4c-0.7,0-1.4-0.1-1.9-0.3c-0.6-0.2-1-0.5-1.3-0.9s-0.5-0.9-0.5-1.4c0-0.3,0.1-0.6,0.2-1
					c0.2-0.4,0.5-0.7,0.9-1c-0.2-0.1-0.4-0.2-0.6-0.3s-0.3-0.2-0.5-0.4v-0.4l1.4-1.3c-0.6-0.5-0.9-1.2-0.9-2.1c0-0.5,0.1-1,0.4-1.4
					c0.2-0.4,0.6-0.8,1.1-1s1-0.4,1.7-0.4c0.5,0,0.9,0.1,1.2,0.2h2.9v1l-1.5,0.1c0.3,0.4,0.5,1,0.5,1.5s-0.1,1-0.4,1.4
					c-0.2,0.4-0.6,0.8-1.1,1C99.4,49.3,98.8,49.4,98.1,49.4z M95.8,52.9c0,0.5,0.2,0.9,0.7,1.2s1,0.4,1.7,0.4s1.2-0.1,1.6-0.4
					s0.6-0.7,0.6-1.1c0-0.3-0.1-0.6-0.4-0.9c-0.3-0.2-0.8-0.4-1.5-0.4c-0.6,0-1.1-0.1-1.5-0.2c-0.4,0.2-0.7,0.5-0.9,0.8
					C95.9,52.4,95.8,52.7,95.8,52.9z M98.1,48.3c0.6,0,1-0.1,1.3-0.4s0.5-0.7,0.5-1.3c0-0.5-0.2-1-0.5-1.3s-0.8-0.4-1.3-0.4
					c-0.6,0-1,0.1-1.4,0.4c-0.3,0.3-0.5,0.7-0.5,1.3c0,0.5,0.2,1,0.5,1.3C97.1,48.1,97.6,48.3,98.1,48.3z"/>
				<path class="st1" d="M112.3,52.1c-0.6,0-1.2-0.1-1.7-0.4s-0.9-0.6-1.2-1.1l-0.1,1.3h-1.2V40.4h1.3v4.9c0.3-0.4,0.6-0.7,1.1-1
					s1.1-0.5,1.8-0.5c0.8,0,1.5,0.2,2.1,0.5c0.6,0.4,1,0.9,1.4,1.5c0.3,0.6,0.5,1.3,0.5,2.1s-0.2,1.5-0.5,2.1s-0.8,1.1-1.4,1.5
					C113.8,51.9,113.1,52.1,112.3,52.1z M112.2,50.9c0.5,0,1-0.1,1.4-0.4c0.4-0.2,0.7-0.6,1-1c0.2-0.5,0.4-1,0.4-1.6
					s-0.1-1.1-0.4-1.6c-0.2-0.4-0.6-0.8-1-1s-0.9-0.4-1.4-0.4s-1,0.1-1.4,0.4s-0.7,0.6-1,1c-0.2,0.5-0.3,1-0.3,1.6s0.1,1.1,0.3,1.6
					c0.2,0.4,0.6,0.8,1,1C111.2,50.8,111.7,50.9,112.2,50.9z"/>
				<path class="st1" d="M121.7,52.1c-0.8,0-1.4-0.2-2-0.5c-0.6-0.4-1.1-0.8-1.4-1.4c-0.3-0.6-0.5-1.4-0.5-2.2s0.2-1.6,0.5-2.2
					s0.8-1.1,1.4-1.5s1.3-0.5,2.1-0.5s1.4,0.2,2,0.5c0.6,0.4,1,0.8,1.3,1.4s0.4,1.2,0.4,1.8c0,0.1,0,0.2,0,0.4c0,0.1,0,0.2,0,0.4
					h-6.3c0,0.6,0.2,1.1,0.4,1.5s0.6,0.7,0.9,0.9c0.4,0.2,0.8,0.3,1.2,0.3c0.6,0,1-0.1,1.4-0.4c0.4-0.2,0.7-0.6,0.8-1h1.3
					c-0.2,0.7-0.6,1.4-1.2,1.8C123.4,51.8,122.6,52.1,121.7,52.1z M121.7,44.9c-0.6,0-1.2,0.2-1.7,0.6s-0.8,1-0.9,1.7h5
					c0-0.7-0.3-1.3-0.7-1.7C122.9,45.1,122.4,44.9,121.7,44.9z"/>
				<path class="st1" d="M130.8,52.1c-0.8,0-1.5-0.2-2.1-0.5c-0.6-0.4-1.1-0.9-1.4-1.5c-0.3-0.6-0.5-1.3-0.5-2.1s0.2-1.5,0.5-2.1
					s0.8-1.1,1.4-1.5c0.6-0.4,1.3-0.5,2.1-0.5c0.7,0,1.2,0.1,1.7,0.4s0.9,0.6,1.2,1.1v-4.9h1.3v11.4h-1.2l-0.1-1.3
					c-0.3,0.4-0.6,0.7-1.1,1C132.2,51.9,131.6,52.1,130.8,52.1z M131,50.9c0.5,0,1-0.1,1.4-0.4c0.4-0.2,0.7-0.6,1-1
					c0.2-0.5,0.3-1,0.3-1.6s-0.1-1.1-0.3-1.6c-0.2-0.4-0.6-0.8-1-1s-0.9-0.4-1.4-0.4s-1,0.1-1.4,0.4s-0.7,0.6-1,1
					c-0.2,0.5-0.3,1-0.3,1.6s0.1,1.1,0.3,1.6c0.2,0.4,0.5,0.8,1,1C130,50.8,130.5,50.9,131,50.9z"/>
				<path class="st1" d="M144.7,51.9c-0.7,0-1.3-0.2-1.7-0.5c-0.4-0.4-0.6-1-0.6-1.9v-4.4H141v-1.2h1.4l0.2-1.9h1.2v1.9h2.3V45h-2.3
					v4.4c0,0.5,0.1,0.8,0.3,1s0.6,0.3,1.1,0.3h0.8v1.2L144.7,51.9L144.7,51.9z"/>
				<path class="st1" d="M151.1,52.1c-0.8,0-1.4-0.2-2-0.5s-1.1-0.8-1.4-1.5c-0.3-0.6-0.5-1.4-0.5-2.2s0.2-1.6,0.5-2.2
					s0.8-1.1,1.4-1.5c0.6-0.3,1.3-0.5,2-0.5c0.8,0,1.4,0.2,2,0.5s1.1,0.8,1.4,1.5c0.3,0.6,0.5,1.4,0.5,2.2s-0.2,1.6-0.5,2.2
					s-0.8,1.1-1.4,1.5C152.5,51.9,151.9,52.1,151.1,52.1z M151.1,50.9c0.5,0,0.9-0.1,1.3-0.3c0.4-0.2,0.7-0.6,1-1
					c0.2-0.5,0.4-1,0.4-1.7s-0.1-1.2-0.4-1.7c-0.2-0.4-0.6-0.8-0.9-1s-0.8-0.3-1.3-0.3s-0.9,0.1-1.3,0.3c-0.4,0.2-0.7,0.6-1,1
					c-0.2,0.4-0.4,1-0.4,1.7s0.1,1.2,0.4,1.7c0.2,0.4,0.6,0.8,0.9,1C150.2,50.8,150.7,50.9,151.1,50.9z"/>
				<path class="st1" d="M164.2,52.1c-0.9,0-1.7-0.2-2.4-0.7c-0.6-0.5-1-1.1-1.1-2h1.4c0.1,0.4,0.3,0.8,0.7,1.1s0.8,0.5,1.5,0.5
					c0.6,0,1-0.1,1.2-0.4c0.3-0.2,0.4-0.5,0.4-0.9c0-0.5-0.2-0.8-0.5-1s-0.8-0.3-1.5-0.4c-0.4-0.1-0.9-0.2-1.3-0.4
					c-0.4-0.2-0.8-0.4-1.1-0.7s-0.4-0.7-0.4-1.2c0-0.7,0.3-1.3,0.8-1.7s1.2-0.7,2.1-0.7c0.8,0,1.5,0.2,2.1,0.6
					c0.5,0.4,0.8,1,0.9,1.8h-1.3c-0.1-0.4-0.2-0.7-0.5-1s-0.7-0.3-1.2-0.3s-0.9,0.1-1.1,0.3c-0.3,0.2-0.4,0.5-0.4,0.8
					s0.2,0.6,0.5,0.8s0.8,0.3,1.4,0.5c0.5,0.1,1,0.2,1.4,0.4c0.4,0.1,0.8,0.4,1.1,0.7s0.4,0.7,0.4,1.3c0,0.7-0.3,1.3-0.8,1.8
					C165.9,51.8,165.2,52.1,164.2,52.1z"/>
				<path class="st1" d="M169.2,51.9V40.4h1.3v11.5H169.2z"/>
				<path class="st1" d="M176.3,52.1c-0.8,0-1.4-0.2-2-0.5s-1.1-0.8-1.4-1.4c-0.3-0.6-0.5-1.4-0.5-2.2s0.2-1.6,0.5-2.2
					s0.8-1.1,1.4-1.5s1.3-0.5,2.1-0.5s1.4,0.2,2,0.5s1,0.8,1.3,1.4s0.4,1.2,0.4,1.8c0,0.1,0,0.2,0,0.4s0,0.2,0,0.4h-6.3
					c0,0.6,0.2,1.1,0.4,1.5s0.6,0.7,0.9,0.9c0.4,0.2,0.8,0.3,1.2,0.3c0.6,0,1-0.1,1.4-0.4c0.4-0.2,0.6-0.6,0.8-1h1.3
					c-0.2,0.7-0.6,1.4-1.2,1.8C178,51.8,177.3,52.1,176.3,52.1z M176.3,44.9c-0.6,0-1.2,0.2-1.7,0.6s-0.8,1-0.9,1.7h5
					c0-0.7-0.3-1.3-0.7-1.7C177.6,45.1,177,44.9,176.3,44.9z"/>
				<path class="st1" d="M185.4,52.1c-0.8,0-1.4-0.2-2-0.5s-1.1-0.8-1.4-1.4c-0.3-0.6-0.5-1.4-0.5-2.2s0.2-1.6,0.5-2.2
					s0.8-1.1,1.4-1.5s1.3-0.5,2.1-0.5s1.4,0.2,2,0.5s1,0.8,1.3,1.4s0.4,1.2,0.4,1.8c0,0.1,0,0.2,0,0.4c0,0.1,0,0.2,0,0.4h-6.3
					c0,0.6,0.2,1.1,0.4,1.5s0.6,0.7,0.9,0.9s0.8,0.3,1.2,0.3c0.5,0,1-0.1,1.4-0.4s0.6-0.6,0.8-1h1.3c-0.2,0.7-0.6,1.4-1.2,1.8
					C187.1,51.8,186.4,52.1,185.4,52.1z M185.4,44.9c-0.6,0-1.2,0.2-1.7,0.6s-0.8,1-0.9,1.7h5c0-0.7-0.3-1.3-0.7-1.7
					C186.7,45.1,186.1,44.9,185.4,44.9z"/>
				<path class="st1" d="M191,55.4V43.9h1.2l0.1,1.3c0.3-0.4,0.6-0.7,1.1-1s1.1-0.5,1.8-0.5c0.8,0,1.5,0.2,2.1,0.5
					c0.6,0.4,1,0.9,1.4,1.5s0.5,1.3,0.5,2.1s-0.2,1.5-0.5,2.1s-0.8,1.1-1.4,1.5c-0.6,0.4-1.3,0.5-2.1,0.5c-0.7,0-1.2-0.1-1.7-0.4
					s-0.9-0.6-1.2-1.1v4.9L191,55.4L191,55.4L191,55.4z M195.1,50.9c0.5,0,1-0.1,1.4-0.4s0.7-0.6,1-1c0.2-0.5,0.3-1,0.3-1.6
					s-0.1-1.1-0.3-1.6c-0.2-0.4-0.6-0.8-1-1s-0.9-0.4-1.4-0.4s-1,0.1-1.4,0.4c-0.4,0.2-0.7,0.6-1,1c-0.2,0.5-0.4,1-0.4,1.6
					s0.1,1.1,0.4,1.6c0.2,0.4,0.6,0.8,1,1C194.1,50.8,194.5,50.9,195.1,50.9z"/>
				<path class="st1" d="M208.1,54.2c-0.6-0.5-1.1-1.2-1.6-2s-0.9-1.6-1.2-2.6c-0.3-0.9-0.4-2-0.4-3.1s0.1-2.1,0.4-3.1
					c0.3-1,0.7-1.8,1.2-2.6s1-1.4,1.6-2h1.4v0.1c-1,1-1.8,2.1-2.4,3.4c-0.6,1.3-0.9,2.7-0.9,4.1c0,1.5,0.3,2.9,0.9,4.1
					c0.6,1.3,1.4,2.4,2.3,3.4V54L208.1,54.2L208.1,54.2z"/>
				<path class="st1" d="M213.2,52.1c-0.7,0-1.2-0.1-1.6-0.3c-0.4-0.2-0.8-0.5-1-0.9s-0.3-0.8-0.3-1.2c0-0.8,0.3-1.4,0.9-1.9
					c0.6-0.4,1.5-0.7,2.5-0.7h2.1V47c0-0.7-0.2-1.2-0.5-1.6s-0.9-0.5-1.5-0.5c-0.5,0-1,0.1-1.3,0.4c-0.4,0.3-0.6,0.6-0.7,1.1h-1.4
					c0-0.6,0.2-1.1,0.6-1.5c0.3-0.4,0.8-0.7,1.3-0.9s1-0.3,1.6-0.3c1.1,0,1.9,0.3,2.5,0.9s0.8,1.4,0.8,2.4v4.9H216l-0.1-1.4
					c-0.2,0.5-0.6,0.8-1,1.1C214.5,51.9,213.9,52.1,213.2,52.1z M213.4,50.9c0.5,0,0.9-0.1,1.3-0.4c0.4-0.3,0.7-0.6,0.8-1
					c0.2-0.4,0.3-0.9,0.3-1.3l0,0h-2c-0.8,0-1.4,0.1-1.7,0.4s-0.5,0.6-0.5,1s0.1,0.8,0.5,1C212.4,50.8,212.8,50.9,213.4,50.9z"/>
				<path class="st1" d="M219.2,51.9v-8h1.2l0.1,1.4c0.3-0.5,0.6-0.9,1.1-1.2s1-0.4,1.6-0.4c0.9,0,1.7,0.3,2.2,0.9
					c0.6,0.6,0.8,1.5,0.8,2.6v4.6h-1.3v-4.5c0-1.7-0.7-2.5-2-2.5c-0.7,0-1.2,0.2-1.7,0.7c-0.4,0.5-0.7,1.2-0.7,2.1v4.1L219.2,51.9
					L219.2,51.9z"/>
				<path class="st1" d="M232,52.1c-0.8,0-1.5-0.2-2.1-0.5c-0.6-0.4-1.1-0.9-1.4-1.5c-0.3-0.6-0.5-1.3-0.5-2.1s0.2-1.5,0.5-2.1
					s0.8-1.1,1.4-1.5c0.6-0.4,1.3-0.5,2.1-0.5c0.6,0,1.2,0.1,1.7,0.4s0.9,0.6,1.2,1.1v-4.9h1.3v11.4H235l-0.1-1.3
					c-0.3,0.4-0.6,0.7-1.1,1S232.7,52.1,232,52.1z M232.1,50.9c0.5,0,1-0.1,1.4-0.4s0.7-0.6,1-1c0.2-0.5,0.3-1,0.3-1.6
					s-0.1-1.1-0.3-1.6c-0.2-0.4-0.5-0.8-1-1s-0.9-0.4-1.4-0.4s-1,0.1-1.4,0.4c-0.4,0.2-0.7,0.6-1,1c-0.2,0.5-0.3,1-0.3,1.6
					s0.1,1.1,0.3,1.6c0.2,0.4,0.6,0.8,1,1C231.1,50.8,231.6,50.9,232.1,50.9z"/>
				<path class="st1" d="M245.7,52.1c-1,0-1.7-0.2-2.4-0.7c-0.6-0.5-1-1.1-1.1-2h1.4c0.1,0.4,0.3,0.8,0.7,1.1s0.8,0.5,1.4,0.5
					s1-0.1,1.2-0.4c0.3-0.2,0.4-0.5,0.4-0.9c0-0.5-0.2-0.8-0.5-1c-0.4-0.2-0.8-0.3-1.5-0.4c-0.4-0.1-0.9-0.2-1.3-0.4
					c-0.4-0.2-0.8-0.4-1.1-0.7s-0.4-0.7-0.4-1.2c0-0.7,0.3-1.3,0.8-1.7s1.2-0.7,2.1-0.7c0.8,0,1.5,0.2,2.1,0.6
					c0.5,0.4,0.9,1,0.9,1.8h-1.3c-0.1-0.4-0.2-0.7-0.5-1c-0.3-0.2-0.7-0.3-1.2-0.3s-0.9,0.1-1.1,0.3c-0.3,0.2-0.4,0.5-0.4,0.8
					s0.2,0.6,0.5,0.8s0.8,0.3,1.4,0.5c0.5,0.1,1,0.2,1.4,0.4c0.4,0.1,0.8,0.4,1.1,0.7s0.4,0.7,0.4,1.3c0,0.7-0.3,1.3-0.8,1.8
					C247.4,51.8,246.6,52.1,245.7,52.1z"/>
				<path class="st1" d="M254.2,52.1c-0.8,0-1.4-0.2-2-0.5c-0.6-0.4-1.1-0.8-1.4-1.4s-0.5-1.4-0.5-2.2s0.2-1.6,0.5-2.2
					s0.8-1.1,1.4-1.5s1.3-0.5,2.1-0.5c0.8,0,1.4,0.2,2,0.5c0.6,0.3,1,0.8,1.3,1.4s0.4,1.2,0.4,1.8c0,0.1,0,0.2,0,0.4
					c0,0.1,0,0.2,0,0.4h-6.3c0,0.6,0.2,1.1,0.4,1.5s0.6,0.7,0.9,0.9c0.4,0.2,0.8,0.3,1.2,0.3c0.5,0,1-0.1,1.4-0.4s0.7-0.6,0.8-1h1.3
					c-0.2,0.7-0.6,1.4-1.2,1.8C255.9,51.8,255.2,52.1,254.2,52.1z M254.2,44.9c-0.6,0-1.2,0.2-1.7,0.6s-0.8,1-0.9,1.7h5
					c0-0.7-0.3-1.3-0.7-1.7C255.4,45.1,254.9,44.9,254.2,44.9z"/>
				<path class="st1" d="M258.6,51.9l2.8-4l-2.8-4h1.5l2.2,3.3l2.2-3.3h1.4l-2.8,4l2.8,4h-1.4l-2.2-3.3l-2.2,3.3H258.6z"/>
				<path class="st1" d="M266.8,54.2v-0.1c1-1,1.8-2.1,2.4-3.4s0.9-2.7,0.9-4.1c0-1.5-0.3-2.9-0.9-4.1c-0.6-1.3-1.4-2.4-2.4-3.4
					v-0.2h1.4c0.6,0.5,1.1,1.2,1.6,2s0.9,1.6,1.2,2.6c0.3,1,0.4,2,0.4,3.1s-0.2,2.1-0.4,3.1c-0.3,0.9-0.7,1.8-1.2,2.6s-1,1.4-1.6,2
					L266.8,54.2L266.8,54.2z"/>
				<path class="st1" d="M272.2,53.8l0.9-3.5h1.4l-1.4,3.5H272.2z"/>
				<path class="st1" d="M28.4,64.2c-0.3,0-0.5-0.1-0.7-0.3c-0.2-0.2-0.3-0.4-0.3-0.7c0-0.3,0.1-0.5,0.3-0.6
					c0.2-0.2,0.4-0.3,0.7-0.3s0.5,0.1,0.7,0.3s0.3,0.4,0.3,0.6c0,0.3-0.1,0.5-0.3,0.7C28.8,64.1,28.6,64.2,28.4,64.2z M27.7,73.9v-8
					H29v7.9h-1.3V73.9z"/>
				<path class="st1" d="M34.5,73.9c-0.7,0-1.3-0.2-1.7-0.5c-0.4-0.4-0.6-1-0.6-1.9v-4.4h-1.4v-1.2h1.4l0.2-1.9h1.2v1.9h2.3V67h-2.3
					v4.4c0,0.5,0.1,0.8,0.3,1s0.6,0.3,1.1,0.3h0.8v1.2H34.5z"/>
				<path class="st1" d="M46,74.1c-0.7,0-1.2-0.1-1.7-0.4s-0.9-0.6-1.2-1.1L43,73.9h-1.2V62.4h1.3v4.9c0.3-0.4,0.6-0.7,1.1-1
					s1.1-0.5,1.8-0.5c0.8,0,1.5,0.2,2.1,0.5c0.6,0.4,1,0.9,1.4,1.5c0.3,0.6,0.5,1.3,0.5,2.1s-0.2,1.5-0.5,2.1s-0.8,1.1-1.4,1.5
					C47.5,73.9,46.8,74.1,46,74.1z M45.9,72.9c0.5,0,1-0.1,1.4-0.4c0.4-0.2,0.7-0.6,1-1c0.2-0.5,0.3-1,0.3-1.6s-0.1-1.1-0.3-1.6
					c-0.2-0.4-0.6-0.8-1-1s-0.9-0.4-1.4-0.4s-1,0.1-1.4,0.4c-0.4,0.2-0.7,0.6-1,1c-0.2,0.5-0.3,1-0.3,1.6s0.1,1.1,0.3,1.6
					c0.2,0.4,0.6,0.8,1,1C44.9,72.8,45.4,72.9,45.9,72.9z"/>
				<path class="st1" d="M51.9,73.9v-8h1.2l0.1,1.5c0.2-0.5,0.6-0.9,1.1-1.2s1.1-0.5,1.9-0.5v1.4h-0.4c-0.5,0-0.9,0.1-1.3,0.2
					c-0.4,0.2-0.7,0.4-0.9,0.8s-0.3,0.9-0.3,1.6v4h-1.4V73.9z"/>
				<path class="st1" d="M60.9,74.1c-0.8,0-1.4-0.2-2-0.5c-0.6-0.4-1.1-0.8-1.4-1.4S57,70.8,57,70c0-0.8,0.2-1.6,0.5-2.2
					s0.8-1.1,1.4-1.5s1.3-0.5,2.1-0.5c0.8,0,1.4,0.2,2,0.5c0.6,0.4,1,0.8,1.3,1.4c0.3,0.6,0.5,1.2,0.5,1.8c0,0.1,0,0.2,0,0.4
					c0,0.1,0,0.2,0,0.4h-6.3c0,0.6,0.2,1.1,0.4,1.5s0.6,0.7,0.9,0.9c0.4,0.2,0.8,0.3,1.2,0.3c0.6,0,1-0.1,1.4-0.4s0.7-0.6,0.8-1h1.3
					c-0.2,0.7-0.6,1.4-1.2,1.8C62.6,73.8,61.9,74.1,60.9,74.1z M60.9,66.9c-0.6,0-1.2,0.2-1.7,0.6s-0.8,1-0.9,1.7h5
					c0-0.7-0.3-1.3-0.7-1.7C62.2,67.1,61.6,66.9,60.9,66.9z"/>
				<path class="st1" d="M69.1,74.1c-0.7,0-1.2-0.1-1.6-0.3c-0.4-0.2-0.8-0.5-1-0.9s-0.3-0.8-0.3-1.2c0-0.8,0.3-1.4,0.9-1.9
					s1.5-0.7,2.5-0.7h2.2V69c0-0.7-0.2-1.2-0.5-1.6s-0.9-0.5-1.5-0.5c-0.5,0-1,0.1-1.3,0.4c-0.4,0.3-0.6,0.6-0.7,1.1h-1.4
					c0.1-0.6,0.2-1.1,0.6-1.5c0.3-0.4,0.8-0.7,1.3-0.9c0.5-0.2,1-0.3,1.6-0.3c1.1,0,1.9,0.3,2.5,0.9s0.8,1.4,0.8,2.4v4.9H72
					l-0.1-1.4c-0.2,0.5-0.5,0.8-1,1.1C70.4,73.9,69.8,74.1,69.1,74.1z M69.3,72.9c0.5,0,1-0.1,1.3-0.4c0.4-0.3,0.7-0.6,0.8-1
					s0.3-0.9,0.3-1.3l0,0h-2c-0.8,0-1.4,0.1-1.7,0.4c-0.3,0.3-0.5,0.6-0.5,1s0.2,0.8,0.5,1C68.3,72.8,68.8,72.9,69.3,72.9z"/>
				<path class="st1" d="M75.1,73.9V62.4h1.3v6.9l3.2-3.3h1.7l-3.5,3.6l4,4.4h-1.7l-3.6-4.1V74h-1.4V73.9z"/>
				<path class="st1" d="M85.8,74.1c-1,0-1.7-0.2-2.4-0.7c-0.6-0.5-1-1.1-1.1-2h1.4c0.1,0.4,0.3,0.8,0.7,1.1
					c0.4,0.3,0.8,0.5,1.4,0.5s1-0.1,1.2-0.4c0.3-0.2,0.4-0.5,0.4-0.9c0-0.5-0.2-0.8-0.5-1c-0.4-0.2-0.8-0.3-1.5-0.4
					c-0.4-0.1-0.9-0.2-1.3-0.4s-0.8-0.4-1.1-0.7s-0.4-0.7-0.4-1.2c0-0.7,0.3-1.3,0.8-1.7c0.5-0.4,1.2-0.7,2.1-0.7
					c0.8,0,1.5,0.2,2.1,0.6c0.5,0.4,0.8,1,0.9,1.8h-1.3c-0.1-0.4-0.2-0.7-0.5-1s-0.7-0.3-1.2-0.3s-0.8,0.1-1.1,0.3
					c-0.3,0.2-0.4,0.5-0.4,0.8s0.2,0.6,0.5,0.8c0.3,0.2,0.8,0.3,1.4,0.5c0.5,0.1,1,0.2,1.4,0.4c0.4,0.1,0.8,0.4,1.1,0.7
					c0.3,0.3,0.4,0.7,0.4,1.3c0,0.7-0.3,1.3-0.8,1.8C87.5,73.8,86.7,74.1,85.8,74.1z"/>
				<path class="st1" d="M98.1,73.9c-0.7,0-1.3-0.2-1.7-0.5c-0.4-0.4-0.6-1-0.6-1.9v-4.4h-1.4v-1.2h1.4L96,64h1.2v1.9h2.3V67h-2.3
					v4.4c0,0.5,0.1,0.8,0.3,1c0.2,0.2,0.6,0.3,1.1,0.3h0.8v1.2H98.1z"/>
				<path class="st1" d="M101.2,73.9V62.4h1.3v4.9c0.3-0.5,0.7-0.9,1.1-1.1c0.5-0.3,1-0.4,1.6-0.4c0.9,0,1.6,0.3,2.2,0.9
					s0.8,1.5,0.8,2.6v4.6h-1.3v-4.5c0-1.7-0.7-2.5-2-2.5c-0.7,0-1.3,0.2-1.7,0.7c-0.5,0.5-0.7,1.2-0.7,2.1v4.1L101.2,73.9
					L101.2,73.9z"/>
				<path class="st1" d="M113.9,74.1c-0.8,0-1.4-0.2-2-0.5s-1.1-0.8-1.4-1.4S110,70.8,110,70c0-0.8,0.2-1.6,0.5-2.2s0.8-1.1,1.4-1.5
					s1.3-0.5,2.1-0.5s1.4,0.2,2,0.5s1,0.8,1.3,1.4s0.5,1.2,0.5,1.8c0,0.1,0,0.2,0,0.4c0,0.1,0,0.2,0,0.4h-6.3c0,0.6,0.2,1.1,0.4,1.5
					s0.6,0.7,0.9,0.9c0.4,0.2,0.8,0.3,1.2,0.3c0.6,0,1-0.1,1.4-0.4s0.6-0.6,0.8-1h1.3c-0.2,0.7-0.6,1.4-1.2,1.8
					C115.6,73.8,114.8,74.1,113.9,74.1z M113.9,66.9c-0.6,0-1.2,0.2-1.7,0.6s-0.8,1-0.9,1.7h5c0-0.7-0.3-1.3-0.7-1.7
					C115.1,67.1,114.6,66.9,113.9,66.9z"/>
				<path class="st1" d="M126.3,74.1c-0.7,0-1.2-0.1-1.7-0.3c-0.4-0.2-0.8-0.5-1-0.9s-0.3-0.8-0.3-1.2c0-0.8,0.3-1.4,0.9-1.9
					s1.5-0.7,2.5-0.7h2.1V69c0-0.7-0.2-1.2-0.5-1.6c-0.3-0.4-0.9-0.5-1.5-0.5c-0.5,0-1,0.1-1.4,0.4s-0.6,0.6-0.7,1.1h-1.4
					c0.1-0.6,0.2-1.1,0.6-1.5c0.3-0.4,0.8-0.7,1.3-0.9c0.5-0.2,1-0.3,1.6-0.3c1.1,0,1.9,0.3,2.5,0.9s0.8,1.4,0.8,2.4v4.9h-1.2
					l-0.1-1.4c-0.2,0.5-0.6,0.8-1,1.1C127.6,73.9,127,74.1,126.3,74.1z M126.5,72.9c0.5,0,0.9-0.1,1.3-0.4c0.4-0.3,0.6-0.6,0.8-1
					s0.3-0.9,0.3-1.3l0,0h-2c-0.8,0-1.3,0.1-1.7,0.4c-0.3,0.3-0.5,0.6-0.5,1s0.1,0.8,0.5,1C125.5,72.8,125.9,72.9,126.5,72.9z"/>
				<path class="st1" d="M135.4,74.1c-0.9,0-1.7-0.2-2.4-0.7c-0.6-0.5-1-1.1-1.1-2h1.4c0.1,0.4,0.3,0.8,0.7,1.1
					c0.4,0.3,0.8,0.5,1.5,0.5c0.6,0,1-0.1,1.2-0.4c0.3-0.2,0.4-0.5,0.4-0.9c0-0.5-0.2-0.8-0.5-1s-0.8-0.3-1.5-0.4
					c-0.4-0.1-0.9-0.2-1.3-0.4c-0.4-0.2-0.8-0.4-1.1-0.7s-0.4-0.7-0.4-1.2c0-0.7,0.3-1.3,0.8-1.7c0.5-0.4,1.2-0.7,2.1-0.7
					c0.8,0,1.5,0.2,2.1,0.6c0.5,0.4,0.8,1,0.9,1.8h-1.4c-0.1-0.4-0.2-0.7-0.5-1c-0.3-0.2-0.7-0.3-1.2-0.3s-0.9,0.1-1.1,0.3
					c-0.3,0.2-0.4,0.5-0.4,0.8s0.2,0.6,0.5,0.8c0.3,0.2,0.8,0.3,1.4,0.5c0.5,0.1,1,0.2,1.4,0.4c0.4,0.1,0.8,0.4,1.1,0.7
					c0.3,0.3,0.4,0.7,0.4,1.3c0,0.7-0.3,1.3-0.8,1.8C137,73.8,136.3,74.1,135.4,74.1z"/>
				<path class="st1" d="M143.4,74.1c-0.9,0-1.7-0.2-2.4-0.7c-0.6-0.5-1-1.1-1.1-2h1.4c0.1,0.4,0.3,0.8,0.7,1.1
					c0.4,0.3,0.8,0.5,1.5,0.5c0.6,0,1-0.1,1.2-0.4c0.3-0.2,0.4-0.5,0.4-0.9c0-0.5-0.2-0.8-0.5-1s-0.8-0.3-1.5-0.4
					c-0.4-0.1-0.9-0.2-1.3-0.4c-0.4-0.2-0.8-0.4-1.1-0.7s-0.4-0.7-0.4-1.2c0-0.7,0.3-1.3,0.8-1.7c0.5-0.4,1.2-0.7,2.1-0.7
					c0.8,0,1.5,0.2,2.1,0.6c0.5,0.4,0.8,1,0.9,1.8h-1.4c-0.1-0.4-0.2-0.7-0.5-1c-0.3-0.2-0.7-0.3-1.2-0.3s-0.9,0.1-1.1,0.3
					c-0.3,0.2-0.4,0.5-0.4,0.8s0.2,0.6,0.5,0.8c0.3,0.2,0.8,0.3,1.4,0.5c0.5,0.1,1,0.2,1.4,0.4c0.4,0.1,0.8,0.4,1.1,0.7
					c0.3,0.3,0.4,0.7,0.4,1.3c0,0.7-0.3,1.3-0.8,1.8C145,73.8,144.3,74.1,143.4,74.1z"/>
				<path class="st1" d="M151.9,74.1c-0.8,0-1.4-0.2-2-0.5s-1.1-0.8-1.4-1.5c-0.3-0.6-0.5-1.4-0.5-2.2s0.2-1.6,0.5-2.2
					s0.8-1.1,1.4-1.5c0.6-0.3,1.3-0.5,2-0.5c0.8,0,1.4,0.2,2,0.5s1.1,0.8,1.4,1.5c0.3,0.6,0.5,1.4,0.5,2.2s-0.2,1.6-0.5,2.2
					c-0.4,0.6-0.8,1.1-1.4,1.5C153.4,73.9,152.7,74.1,151.9,74.1z M151.9,72.9c0.5,0,0.9-0.1,1.3-0.3c0.4-0.2,0.7-0.6,1-1
					c0.2-0.5,0.4-1,0.4-1.7s-0.1-1.2-0.4-1.7c-0.2-0.4-0.6-0.8-0.9-1s-0.8-0.3-1.3-0.3s-0.9,0.1-1.3,0.3c-0.4,0.2-0.7,0.6-1,1
					c-0.2,0.4-0.4,1-0.4,1.7s0.1,1.2,0.4,1.7c0.2,0.4,0.6,0.8,0.9,1C151.1,72.8,151.5,72.9,151.9,72.9z"/>
				<path class="st1" d="M161.4,74.1c-0.8,0-1.4-0.2-2-0.5c-0.6-0.4-1.1-0.8-1.4-1.5s-0.5-1.4-0.5-2.2c0-0.8,0.2-1.6,0.5-2.2
					c0.4-0.6,0.8-1.1,1.4-1.5c0.6-0.4,1.3-0.5,2-0.5c0.9,0,1.7,0.2,2.4,0.7s1.1,1.1,1.2,2h-1.4c-0.1-0.5-0.4-0.9-0.8-1.1
					c-0.4-0.3-0.9-0.4-1.5-0.4c-0.4,0-0.9,0.1-1.3,0.3c-0.4,0.2-0.7,0.6-1,1c-0.2,0.5-0.4,1-0.4,1.7s0.1,1.2,0.4,1.7s0.6,0.8,1,1
					s0.8,0.3,1.3,0.3c0.6,0,1-0.1,1.5-0.4c0.4-0.3,0.7-0.7,0.8-1.2h1.4c-0.2,0.8-0.6,1.5-1.2,2C163.2,73.8,162.4,74.1,161.4,74.1z"
					/>
				<path class="st1" d="M167.7,64.2c-0.3,0-0.5-0.1-0.7-0.3c-0.2-0.2-0.3-0.4-0.3-0.7c0-0.3,0.1-0.5,0.3-0.6
					c0.2-0.2,0.4-0.3,0.7-0.3s0.5,0.1,0.7,0.3s0.3,0.4,0.3,0.6c0,0.3-0.1,0.5-0.3,0.7C168.2,64.1,168,64.2,167.7,64.2z M167,73.9v-8
					h1.3v7.9H167V73.9z"/>
				<path class="st1" d="M173.4,74.1c-0.7,0-1.2-0.1-1.6-0.3c-0.4-0.2-0.8-0.5-1-0.9s-0.3-0.8-0.3-1.2c0-0.8,0.3-1.4,0.9-1.9
					c0.6-0.4,1.5-0.7,2.5-0.7h2.1V69c0-0.7-0.2-1.2-0.5-1.6s-0.8-0.5-1.5-0.5c-0.5,0-1,0.1-1.4,0.4s-0.6,0.6-0.7,1.1h-1.4
					c0.1-0.6,0.2-1.1,0.6-1.5c0.3-0.4,0.8-0.7,1.3-0.9c0.5-0.2,1-0.3,1.6-0.3c1.1,0,1.9,0.3,2.5,0.9s0.8,1.4,0.8,2.4v4.9h-1.2
					l-0.1-1.4c-0.2,0.5-0.6,0.8-1,1.1C174.7,73.9,174.1,74.1,173.4,74.1z M173.6,72.9c0.5,0,0.9-0.1,1.3-0.4c0.4-0.3,0.7-0.6,0.8-1
					c0.2-0.4,0.3-0.9,0.3-1.3l0,0h-2c-0.8,0-1.4,0.1-1.7,0.4s-0.5,0.6-0.5,1s0.1,0.8,0.5,1C172.6,72.8,173,72.9,173.6,72.9z"/>
				<path class="st1" d="M182.3,73.9c-0.7,0-1.3-0.2-1.7-0.5c-0.4-0.4-0.6-1-0.6-1.9v-4.4h-1.4v-1.2h1.4l0.2-1.9h1.2v1.9h2.3V67
					h-2.3v4.4c0,0.5,0.1,0.8,0.3,1s0.6,0.3,1.1,0.3h0.8v1.2H182.3z"/>
				<path class="st1" d="M186.2,64.2c-0.3,0-0.5-0.1-0.7-0.3c-0.2-0.2-0.3-0.4-0.3-0.7c0-0.3,0.1-0.5,0.3-0.6s0.4-0.3,0.7-0.3
					s0.5,0.1,0.7,0.3s0.3,0.4,0.3,0.6c0,0.3-0.1,0.5-0.3,0.7C186.6,64.1,186.4,64.2,186.2,64.2z M185.5,73.9v-8h1.3v7.9h-1.3V73.9z"
					/>
				<path class="st1" d="M192.8,74.1c-0.8,0-1.4-0.2-2-0.5s-1.1-0.8-1.4-1.5c-0.4-0.6-0.5-1.4-0.5-2.2s0.2-1.6,0.5-2.2
					c0.4-0.6,0.8-1.1,1.4-1.5c0.6-0.3,1.3-0.5,2-0.5c0.8,0,1.4,0.2,2,0.5s1.1,0.8,1.4,1.5c0.4,0.6,0.5,1.4,0.5,2.2s-0.2,1.6-0.5,2.2
					c-0.4,0.6-0.8,1.1-1.4,1.5C194.2,73.9,193.5,74.1,192.8,74.1z M192.8,72.9c0.5,0,0.9-0.1,1.3-0.3c0.4-0.2,0.7-0.6,1-1
					c0.2-0.5,0.4-1,0.4-1.7s-0.1-1.2-0.4-1.7c-0.2-0.4-0.6-0.8-1-1s-0.8-0.3-1.3-0.3s-0.9,0.1-1.3,0.3s-0.7,0.6-1,1
					c-0.2,0.4-0.4,1-0.4,1.7s0.1,1.2,0.4,1.7c0.2,0.4,0.6,0.8,1,1C191.9,72.8,192.3,72.9,192.8,72.9z"/>
				<path class="st1" d="M198.6,73.9v-8h1.2l0.1,1.4c0.3-0.5,0.6-0.9,1.1-1.2c0.5-0.3,1-0.4,1.6-0.4c0.9,0,1.7,0.3,2.2,0.9
					c0.6,0.6,0.8,1.5,0.8,2.6v4.6h-1.3v-4.5c0-1.7-0.7-2.5-2-2.5c-0.7,0-1.2,0.2-1.7,0.7c-0.4,0.5-0.7,1.2-0.7,2.1v4.1L198.6,73.9
					L198.6,73.9z"/>
				<path class="st1" d="M216.3,74.1c-0.6,0-1.2-0.1-1.7-0.4s-0.9-0.6-1.2-1.1l-0.1,1.3h-1.2V62.4h1.3v4.9c0.3-0.4,0.6-0.7,1.1-1
					s1.1-0.5,1.8-0.5c0.8,0,1.5,0.2,2.1,0.5c0.6,0.4,1,0.9,1.4,1.5c0.3,0.6,0.5,1.3,0.5,2.1s-0.2,1.5-0.5,2.1s-0.8,1.1-1.4,1.5
					C217.8,73.9,217.1,74.1,216.3,74.1z M216.1,72.9c0.5,0,1-0.1,1.4-0.4c0.4-0.2,0.7-0.6,1-1c0.2-0.5,0.4-1,0.4-1.6
					s-0.1-1.1-0.4-1.6c-0.2-0.4-0.6-0.8-1-1s-0.9-0.4-1.4-0.4s-1,0.1-1.4,0.4s-0.7,0.6-1,1c-0.2,0.5-0.4,1-0.4,1.6s0.1,1.1,0.4,1.6
					c0.2,0.4,0.5,0.8,1,1C215.1,72.8,215.6,72.9,216.1,72.9z"/>
				<path class="st1" d="M225.7,74.1c-0.8,0-1.4-0.2-2-0.5s-1.1-0.8-1.4-1.4c-0.3-0.6-0.5-1.4-0.5-2.2c0-0.8,0.2-1.6,0.5-2.2
					s0.8-1.1,1.4-1.5s1.3-0.5,2.1-0.5s1.4,0.2,2,0.5s1,0.8,1.3,1.4s0.4,1.2,0.4,1.8c0,0.1,0,0.2,0,0.4c0,0.1,0,0.2,0,0.4h-6.3
					c0,0.6,0.2,1.1,0.4,1.5s0.6,0.7,0.9,0.9c0.4,0.2,0.8,0.3,1.2,0.3c0.5,0,1-0.1,1.4-0.4s0.6-0.6,0.8-1h1.3
					c-0.2,0.7-0.6,1.4-1.2,1.8C227.4,73.8,226.6,74.1,225.7,74.1z M225.7,66.9c-0.6,0-1.2,0.2-1.7,0.6s-0.8,1-0.9,1.7h5
					c0-0.7-0.3-1.3-0.7-1.7C226.9,67.1,226.3,66.9,225.7,66.9z"/>
				<path class="st1" d="M234,73.9c-0.7,0-1.3-0.2-1.7-0.5c-0.4-0.4-0.6-1-0.6-1.9v-4.4h-1.4v-1.2h1.4l0.2-1.9h1.2v1.9h2.3V67h-2.3
					v4.4c0,0.5,0.1,0.8,0.3,1s0.6,0.3,1.1,0.3h0.8v1.2H234z"/>
				<path class="st1" d="M238.7,73.9l-2.3-7.9h1.3l1.7,6.2l1.9-6.2h1.5l1.9,6.2l1.7-6.2h1.4l-2.3,7.9h-1.4l-1.9-6.5l-2,6.5H238.7z"
					/>
				<path class="st1" d="M252.4,74.1c-0.8,0-1.4-0.2-2-0.5s-1-0.8-1.4-1.4c-0.3-0.6-0.5-1.4-0.5-2.2c0-0.8,0.2-1.6,0.5-2.2
					c0.3-0.6,0.8-1.1,1.4-1.5s1.3-0.5,2.1-0.5c0.8,0,1.4,0.2,2,0.5c0.6,0.4,1,0.8,1.3,1.4c0.3,0.6,0.5,1.2,0.5,1.8
					c0,0.1,0,0.2,0,0.4c0,0.1,0,0.2,0,0.4H250c0,0.6,0.2,1.1,0.4,1.5s0.6,0.7,0.9,0.9c0.4,0.2,0.8,0.3,1.2,0.3c0.5,0,1-0.1,1.4-0.4
					s0.6-0.6,0.8-1h1.3c-0.2,0.7-0.6,1.4-1.2,1.8C254.1,73.8,253.4,74.1,252.4,74.1z M252.4,66.9c-0.6,0-1.2,0.2-1.7,0.6
					s-0.8,1-0.9,1.7h5c0-0.7-0.3-1.3-0.7-1.7C253.7,67.1,253.1,66.9,252.4,66.9z"/>
				<path class="st1" d="M261.5,74.1c-0.8,0-1.4-0.2-2-0.5s-1-0.8-1.4-1.4c-0.3-0.6-0.5-1.4-0.5-2.2c0-0.8,0.2-1.6,0.5-2.2
					s0.8-1.1,1.4-1.5s1.3-0.5,2.1-0.5c0.8,0,1.4,0.2,2,0.5s1,0.8,1.3,1.4s0.5,1.2,0.5,1.8c0,0.1,0,0.2,0,0.4c0,0.1,0,0.2,0,0.4h-6.3
					c0,0.6,0.2,1.1,0.4,1.5s0.6,0.7,0.9,0.9s0.8,0.3,1.2,0.3c0.6,0,1-0.1,1.4-0.4s0.6-0.6,0.8-1h1.3c-0.2,0.7-0.6,1.4-1.2,1.8
					C263.3,73.8,262.5,74.1,261.5,74.1z M261.5,66.9c-0.6,0-1.2,0.2-1.7,0.6s-0.8,1-0.9,1.7h5c0-0.7-0.3-1.3-0.7-1.7
					C262.8,67.1,262.2,66.9,261.5,66.9z"/>
				<path class="st1" d="M267.1,73.9v-8h1.2l0.1,1.4c0.3-0.5,0.6-0.9,1.1-1.2c0.5-0.3,1-0.4,1.6-0.4c0.9,0,1.7,0.3,2.2,0.9
					c0.6,0.6,0.8,1.5,0.8,2.6v4.6h-1.3v-4.5c0-1.7-0.7-2.5-2-2.5c-0.7,0-1.2,0.2-1.7,0.7s-0.7,1.2-0.7,2.1v4.1L267.1,73.9
					L267.1,73.9z"/>
				<path class="st1" d="M28.4,99.4l2-4.3h-0.5l-3.1-7.2h1.5l2.6,6.2l2.8-6.2h1.4l-5.3,11.5H28.4z"/>
				<path class="st1" d="M39.3,96.1c-0.8,0-1.4-0.2-2-0.5s-1.1-0.8-1.4-1.5c-0.4-0.6-0.5-1.4-0.5-2.2s0.2-1.6,0.5-2.2
					s0.8-1.1,1.4-1.5c0.6-0.3,1.3-0.5,2-0.5c0.8,0,1.4,0.2,2,0.5s1.1,0.8,1.4,1.5c0.3,0.6,0.5,1.4,0.5,2.2s-0.2,1.6-0.5,2.2
					s-0.8,1.1-1.4,1.5S40.1,96.1,39.3,96.1z M39.3,94.9c0.5,0,0.9-0.1,1.3-0.3c0.4-0.2,0.7-0.6,1-1c0.2-0.5,0.4-1,0.4-1.7
					s-0.1-1.2-0.4-1.7c-0.2-0.5-0.6-0.8-0.9-1s-0.9-0.3-1.4-0.3S38.4,89,38,89.2c-0.4,0.2-0.7,0.6-1,1c-0.2,0.4-0.4,1-0.4,1.7
					s0.1,1.2,0.4,1.7c0.2,0.4,0.6,0.8,0.9,1C38.5,94.8,38.9,94.9,39.3,94.9z"/>
				<path class="st1" d="M48.1,96.1c-0.9,0-1.7-0.3-2.2-0.9s-0.8-1.5-0.8-2.6v-4.7h1.3v4.5c0,1.6,0.7,2.5,2,2.5
					c0.7,0,1.3-0.2,1.7-0.7s0.7-1.2,0.7-2.1v-4.2h1.3v7.9h-1.2l-0.1-1.4c-0.2,0.5-0.6,0.9-1.1,1.2C49.2,95.9,48.7,96.1,48.1,96.1z"
					/>
				<path class="st1" d="M54.3,95.9v-8h1.2l0.1,1.5c0.2-0.5,0.6-0.9,1.1-1.2c0.5-0.3,1.1-0.5,1.9-0.5v1.4h-0.4
					c-0.5,0-0.9,0.1-1.3,0.2c-0.4,0.2-0.7,0.4-0.9,0.8s-0.4,0.9-0.4,1.6v4h-1.3L54.3,95.9L54.3,95.9z"/>
				<path class="st1" d="M68.6,96.1c-0.6,0-1.2-0.1-1.7-0.4s-0.9-0.6-1.2-1.1l-0.1,1.3h-1.2V84.4h1.3v4.9c0.3-0.4,0.6-0.7,1.1-1
					s1.1-0.5,1.8-0.5c0.8,0,1.5,0.2,2.1,0.5c0.6,0.4,1,0.9,1.4,1.5c0.3,0.6,0.5,1.3,0.5,2.1s-0.2,1.5-0.5,2.1s-0.8,1.1-1.4,1.5
					C70.1,95.9,69.4,96.1,68.6,96.1z M68.5,94.9c0.5,0,1-0.1,1.4-0.4c0.4-0.2,0.7-0.6,1-1c0.2-0.5,0.3-1,0.3-1.6s-0.1-1.1-0.3-1.6
					c-0.2-0.4-0.6-0.8-1-1s-0.9-0.4-1.4-0.4s-1,0.1-1.4,0.4c-0.4,0.2-0.7,0.6-1,1c-0.2,0.5-0.4,1-0.4,1.6s0.1,1.1,0.4,1.6
					c0.2,0.4,0.5,0.8,1,1C67.5,94.8,67.9,94.9,68.5,94.9z"/>
				<path class="st1" d="M78,96.1c-0.8,0-1.4-0.2-2-0.5c-0.6-0.4-1-0.8-1.4-1.4c-0.3-0.6-0.5-1.4-0.5-2.2c0-0.8,0.2-1.6,0.5-2.2
					s0.8-1.1,1.4-1.5s1.3-0.5,2.1-0.5c0.8,0,1.4,0.2,2,0.5s1,0.8,1.3,1.4s0.4,1.2,0.4,1.8c0,0.1,0,0.2,0,0.4c0,0.1,0,0.2,0,0.4h-6.3
					c0,0.6,0.2,1.1,0.4,1.5s0.6,0.7,0.9,0.9c0.4,0.2,0.8,0.3,1.2,0.3c0.5,0,1-0.1,1.4-0.4s0.6-0.6,0.8-1h1.3
					c-0.2,0.7-0.6,1.4-1.2,1.8C79.7,95.8,78.9,96.1,78,96.1z M78,88.9c-0.6,0-1.2,0.2-1.7,0.6s-0.8,1-0.9,1.7h5
					c0-0.7-0.3-1.3-0.7-1.7C79.2,89.1,78.7,88.9,78,88.9z"/>
				<path class="st1" d="M87.1,96.1c-0.8,0-1.5-0.2-2.1-0.5c-0.6-0.4-1.1-0.9-1.4-1.5s-0.5-1.3-0.5-2.1s0.2-1.5,0.5-2.1
					s0.8-1.1,1.4-1.5s1.3-0.5,2.1-0.5c0.7,0,1.2,0.1,1.7,0.4s0.9,0.6,1.2,1.1v-4.9h1.3v11.4h-1.2L90,94.6c-0.3,0.4-0.6,0.7-1.1,1
					C88.5,95.9,87.9,96.1,87.1,96.1z M87.3,94.9c0.5,0,1-0.1,1.4-0.4c0.4-0.2,0.7-0.6,1-1c0.2-0.5,0.3-1,0.3-1.6s-0.1-1.1-0.3-1.6
					c-0.2-0.4-0.5-0.8-1-1c-0.4-0.2-0.9-0.4-1.4-0.4s-1,0.1-1.4,0.4c-0.4,0.2-0.7,0.6-1,1c-0.2,0.5-0.3,1-0.3,1.6s0.1,1.1,0.3,1.6
					c0.2,0.4,0.6,0.8,1,1C86.3,94.8,86.7,94.9,87.3,94.9z"/>
				<path class="st1" d="M100.5,96.1c-0.7,0-1.2-0.1-1.7-0.3c-0.4-0.2-0.8-0.5-1-0.9s-0.3-0.8-0.3-1.2c0-0.8,0.3-1.4,0.9-1.9
					c0.6-0.4,1.5-0.7,2.5-0.7h2.1V91c0-0.7-0.2-1.2-0.5-1.6s-0.8-0.5-1.5-0.5c-0.5,0-1,0.1-1.4,0.4s-0.6,0.6-0.7,1.1h-1.4
					c0.1-0.6,0.2-1.1,0.6-1.5c0.3-0.4,0.8-0.7,1.3-0.9c0.5-0.2,1-0.3,1.6-0.3c1.1,0,1.9,0.3,2.5,0.9s0.8,1.4,0.8,2.4v4.9h-1.2
					l-0.1-1.4c-0.2,0.5-0.6,0.8-1,1.1C101.8,95.9,101.2,96.1,100.5,96.1z M100.7,94.9c0.5,0,0.9-0.1,1.3-0.4s0.7-0.6,0.8-1
					c0.2-0.4,0.3-0.9,0.3-1.3l0,0h-2c-0.8,0-1.3,0.1-1.7,0.4c-0.3,0.3-0.5,0.6-0.5,1s0.1,0.8,0.5,1C99.7,94.8,100.1,94.9,100.7,94.9
					z"/>
				<path class="st1" d="M106.5,95.9v-8h1.2l0.1,1.4c0.3-0.5,0.6-0.9,1.1-1.2c0.5-0.3,1-0.4,1.6-0.4c0.9,0,1.7,0.3,2.2,0.9
					c0.6,0.6,0.8,1.5,0.8,2.6v4.6h-1.3v-4.5c0-1.7-0.7-2.5-2.1-2.5c-0.7,0-1.2,0.2-1.7,0.7c-0.4,0.5-0.7,1.2-0.7,2.1v4.1L106.5,95.9
					L106.5,95.9z"/>
				<path class="st1" d="M119.2,96.1c-0.8,0-1.5-0.2-2.1-0.5c-0.6-0.4-1.1-0.9-1.4-1.5s-0.5-1.3-0.5-2.1s0.2-1.5,0.5-2.1
					s0.8-1.1,1.4-1.5s1.3-0.5,2.1-0.5c0.6,0,1.2,0.1,1.7,0.4c0.5,0.3,0.9,0.6,1.2,1.1v-4.9h1.3v11.4h-1.2l-0.1-1.3
					c-0.3,0.4-0.6,0.7-1.1,1C120.6,95.9,119.9,96.1,119.2,96.1z M119.4,94.9c0.5,0,1-0.1,1.4-0.4c0.4-0.2,0.7-0.6,1-1
					c0.2-0.5,0.3-1,0.3-1.6s-0.1-1.1-0.3-1.6c-0.2-0.4-0.6-0.8-1-1s-0.9-0.4-1.4-0.4s-1,0.1-1.4,0.4s-0.7,0.6-1,1
					c-0.2,0.5-0.3,1-0.3,1.6s0.1,1.1,0.3,1.6c0.2,0.4,0.6,0.8,1,1C118.4,94.8,118.8,94.9,119.4,94.9z"/>
				<path class="st1" d="M131.5,95.9l-2.3-7.9h1.3l1.7,6.2l1.9-6.2h1.5l1.9,6.2l1.7-6.2h1.4l-2.3,7.9h-1.5l-1.9-6.5l-1.9,6.5H131.5z
					"/>
				<path class="st1" d="M144.3,96.1c-0.7,0-1.2-0.1-1.6-0.3c-0.4-0.2-0.8-0.5-1-0.9s-0.3-0.8-0.3-1.2c0-0.8,0.3-1.4,0.9-1.9
					c0.6-0.4,1.5-0.7,2.5-0.7h2.1V91c0-0.7-0.2-1.2-0.5-1.6s-0.9-0.5-1.5-0.5c-0.5,0-1,0.1-1.3,0.4c-0.4,0.3-0.6,0.6-0.7,1.1h-1.4
					c0-0.6,0.2-1.1,0.6-1.5c0.3-0.4,0.8-0.7,1.3-0.9c0.5-0.2,1-0.3,1.6-0.3c1.1,0,1.9,0.3,2.5,0.9s0.8,1.4,0.8,2.4v4.9h-1.2
					l-0.1-1.4c-0.2,0.5-0.6,0.8-1,1.1C145.6,95.9,145,96.1,144.3,96.1z M144.5,94.9c0.5,0,0.9-0.1,1.3-0.4c0.4-0.3,0.6-0.6,0.8-1
					s0.3-0.9,0.3-1.3l0,0h-2c-0.8,0-1.3,0.1-1.7,0.4c-0.3,0.3-0.5,0.6-0.5,1s0.1,0.8,0.5,1C143.6,94.8,144,94.9,144.5,94.9z"/>
				<path class="st1" d="M150.3,95.9V84.4h1.3v6.9l3.2-3.3h1.6l-3.5,3.6l4,4.4h-1.7l-3.6-4.1V96h-1.3V95.9z"/>
				<path class="st1" d="M161.4,96.1c-0.8,0-1.4-0.2-2-0.5s-1.1-0.8-1.4-1.4c-0.3-0.6-0.5-1.4-0.5-2.2c0-0.8,0.2-1.6,0.5-2.2
					s0.8-1.1,1.4-1.5s1.3-0.5,2.1-0.5s1.4,0.2,2,0.5s1,0.8,1.3,1.4s0.4,1.2,0.4,1.8c0,0.1,0,0.2,0,0.4c0,0.1,0,0.2,0,0.4h-6.4
					c0,0.6,0.2,1.1,0.4,1.5s0.6,0.7,0.9,0.9s0.8,0.3,1.2,0.3c0.5,0,1-0.1,1.4-0.4s0.6-0.6,0.8-1h1.3c-0.2,0.7-0.6,1.4-1.2,1.8
					C163.1,95.8,162.3,96.1,161.4,96.1z M161.4,88.9c-0.6,0-1.2,0.2-1.7,0.6s-0.8,1-0.9,1.7h5c0-0.7-0.3-1.3-0.7-1.7
					C162.6,89.1,162.1,88.9,161.4,88.9z"/>
				<path class="st1" d="M167.4,95.9v-6.8h-1.2v-1.2h1.2v-1.4c0-0.8,0.2-1.3,0.6-1.7c0.4-0.4,0.9-0.5,1.7-0.5h0.8v1.1h-0.7
					c-0.4,0-0.7,0.1-0.9,0.2c-0.2,0.2-0.3,0.4-0.3,0.8v1.3h1.9v1.1h-1.9v6.8L167.4,95.9L167.4,95.9z"/>
				<path class="st1" d="M175.2,96.1c-0.9,0-1.7-0.3-2.2-0.9s-0.8-1.5-0.8-2.6v-4.7h1.3v4.5c0,1.6,0.7,2.5,2,2.5
					c0.7,0,1.3-0.2,1.7-0.7s0.7-1.2,0.7-2.1v-4.2h1.3v7.9H178l-0.1-1.4c-0.2,0.5-0.6,0.9-1.1,1.2C176.3,95.9,175.8,96.1,175.2,96.1z
					"/>
				<path class="st1" d="M181.4,95.9V84.4h1.3v11.5H181.4z"/>
				<path class="st1" d="M185,95.9v-8h1.2l0.1,1.4c0.3-0.5,0.6-0.9,1.1-1.2c0.5-0.3,1-0.4,1.6-0.4c0.9,0,1.7,0.3,2.2,0.9
					c0.6,0.6,0.8,1.5,0.8,2.6v4.6h-1.3v-4.5c0-1.7-0.7-2.5-2.1-2.5c-0.7,0-1.2,0.2-1.7,0.7c-0.4,0.5-0.7,1.2-0.7,2.1v4.1L185,95.9
					L185,95.9z"/>
				<path class="st1" d="M197.7,96.1c-0.8,0-1.4-0.2-2-0.5s-1.1-0.8-1.4-1.4c-0.3-0.6-0.5-1.4-0.5-2.2c0-0.8,0.2-1.6,0.5-2.2
					s0.8-1.1,1.4-1.5s1.3-0.5,2.1-0.5s1.4,0.2,2,0.5s1,0.8,1.3,1.4s0.4,1.2,0.4,1.8c0,0.1,0,0.2,0,0.4c0,0.1,0,0.2,0,0.4h-6.3
					c0,0.6,0.2,1.1,0.4,1.5s0.6,0.7,0.9,0.9s0.8,0.3,1.2,0.3c0.5,0,1-0.1,1.4-0.4s0.6-0.6,0.8-1h1.3c-0.2,0.7-0.6,1.4-1.2,1.8
					C199.4,95.8,198.6,96.1,197.7,96.1z M197.7,88.9c-0.6,0-1.2,0.2-1.7,0.6s-0.8,1-0.9,1.7h5c0-0.7-0.3-1.3-0.7-1.7
					C198.9,89.1,198.4,88.9,197.7,88.9z"/>
				<path class="st1" d="M206.3,96.1c-1,0-1.7-0.2-2.4-0.7c-0.6-0.5-1-1.1-1.1-2h1.4c0.1,0.4,0.3,0.8,0.7,1.1
					c0.4,0.3,0.8,0.5,1.4,0.5c0.6,0,1-0.1,1.2-0.4c0.3-0.2,0.4-0.5,0.4-0.9c0-0.5-0.2-0.8-0.5-1c-0.4-0.2-0.8-0.3-1.5-0.4
					c-0.4-0.1-0.8-0.2-1.3-0.4c-0.4-0.2-0.8-0.4-1.1-0.7c-0.3-0.3-0.4-0.7-0.4-1.2c0-0.7,0.3-1.3,0.8-1.7c0.5-0.4,1.2-0.7,2.1-0.7
					c0.8,0,1.5,0.2,2.1,0.6c0.5,0.4,0.8,1,0.9,1.8h-1.3c0-0.4-0.2-0.7-0.5-1c-0.3-0.2-0.7-0.3-1.2-0.3s-0.8,0.1-1.1,0.3
					c-0.3,0.2-0.4,0.5-0.4,0.8s0.2,0.6,0.5,0.8c0.3,0.2,0.8,0.3,1.4,0.5c0.5,0.1,1,0.2,1.4,0.4c0.4,0.1,0.8,0.4,1.1,0.7
					c0.3,0.3,0.4,0.7,0.4,1.3c0,0.7-0.3,1.3-0.8,1.8C207.9,95.8,207.2,96.1,206.3,96.1z"/>
				<path class="st1" d="M214.3,96.1c-1,0-1.7-0.2-2.4-0.7c-0.6-0.5-1-1.1-1.1-2h1.4c0.1,0.4,0.3,0.8,0.7,1.1
					c0.4,0.3,0.8,0.5,1.4,0.5c0.6,0,1-0.1,1.2-0.4c0.3-0.2,0.4-0.5,0.4-0.9c0-0.5-0.2-0.8-0.5-1c-0.4-0.2-0.8-0.3-1.5-0.4
					c-0.4-0.1-0.8-0.2-1.3-0.4c-0.4-0.2-0.8-0.4-1.1-0.7c-0.3-0.3-0.4-0.7-0.4-1.2c0-0.7,0.3-1.3,0.8-1.7c0.5-0.4,1.2-0.7,2.1-0.7
					c0.8,0,1.5,0.2,2.1,0.6c0.5,0.4,0.8,1,0.9,1.8h-1.3c0-0.4-0.2-0.7-0.5-1c-0.3-0.2-0.7-0.3-1.2-0.3s-0.8,0.1-1.1,0.3
					c-0.3,0.2-0.4,0.5-0.4,0.8s0.2,0.6,0.5,0.8c0.3,0.2,0.8,0.3,1.4,0.5c0.5,0.1,1,0.2,1.4,0.4c0.4,0.1,0.8,0.4,1.1,0.7
					c0.3,0.3,0.4,0.7,0.4,1.3c0,0.7-0.3,1.3-0.8,1.8C215.9,95.8,215.2,96.1,214.3,96.1z"/>
				<path class="st1" d="M219.7,96c-0.3,0-0.5-0.1-0.7-0.3c-0.2-0.2-0.3-0.4-0.3-0.6c0-0.3,0.1-0.5,0.3-0.6s0.4-0.3,0.7-0.3
					s0.5,0.1,0.6,0.3c0.2,0.2,0.3,0.4,0.3,0.6c0,0.3-0.1,0.5-0.3,0.6C220.2,95.9,219.9,96,219.7,96z"/>
				<path class="st1" d="M32.7,124.3c-1.1,0-2.1-0.2-2.9-0.7c-0.8-0.5-1.5-1.2-1.9-2c-0.5-0.9-0.7-1.9-0.7-3s0.2-2.1,0.7-3
					s1.1-1.5,1.9-2c0.8-0.5,1.8-0.7,2.9-0.7c1.1,0,2.1,0.2,2.9,0.7c0.8,0.5,1.5,1.2,1.9,2c0.5,0.9,0.7,1.9,0.7,3s-0.2,2.2-0.7,3
					c-0.5,0.9-1.1,1.5-1.9,2C34.8,124,33.8,124.3,32.7,124.3z M32.7,123.1c0.8,0,1.5-0.2,2.2-0.5c0.6-0.4,1.1-0.9,1.5-1.6
					c0.3-0.7,0.5-1.5,0.5-2.5s-0.2-1.8-0.5-2.5c-0.4-0.7-0.8-1.2-1.5-1.6c-0.6-0.4-1.3-0.5-2.2-0.5s-1.5,0.2-2.2,0.5
					c-0.6,0.4-1.1,0.9-1.5,1.6c-0.3,0.7-0.5,1.5-0.5,2.5s0.2,1.8,0.5,2.5c0.4,0.7,0.8,1.2,1.5,1.6C31.2,122.9,31.9,123.1,32.7,123.1
					z"/>
				<path class="st1" d="M42.4,124.1l-3-7.9h1.4l2.4,6.6l2.4-6.6H47l-3,7.9H42.4z"/>
				<path class="st1" d="M51.6,124.3c-0.8,0-1.4-0.2-2-0.5c-0.6-0.4-1.1-0.8-1.4-1.5c-0.3-0.6-0.5-1.4-0.5-2.2
					c0-0.8,0.2-1.6,0.5-2.2s0.8-1.1,1.4-1.5s1.3-0.5,2.1-0.5s1.4,0.2,2,0.5c0.6,0.4,1,0.8,1.3,1.4s0.5,1.2,0.5,1.8
					c0,0.1,0,0.2,0,0.3c0,0.1,0,0.2,0,0.4h-6.3c0,0.6,0.2,1.1,0.4,1.5s0.6,0.7,0.9,0.9c0.4,0.2,0.8,0.3,1.2,0.3c0.6,0,1-0.1,1.4-0.4
					c0.4-0.2,0.7-0.6,0.8-1h1.3c-0.2,0.7-0.6,1.4-1.2,1.8C53.3,124,52.5,124.3,51.6,124.3z M51.6,117.1c-0.6,0-1.2,0.2-1.7,0.6
					s-0.8,1-0.9,1.7h5c0-0.7-0.3-1.3-0.7-1.7C52.8,117.3,52.3,117.1,51.6,117.1z"/>
				<path class="st1" d="M57.1,124.1v-7.9h1.2l0.1,1.5c0.2-0.5,0.6-0.9,1.1-1.2s1.1-0.5,1.9-0.5v1.4H61c-0.5,0-0.9,0.1-1.3,0.2
					c-0.4,0.2-0.7,0.5-0.9,0.8c-0.2,0.4-0.3,0.9-0.3,1.6v4h-1.4L57.1,124.1L57.1,124.1z"/>
				<path class="st1" d="M70.3,124.1c-0.7,0-1.3-0.2-1.7-0.5c-0.4-0.4-0.6-1-0.6-1.9v-4.4h-1.4v-1.1H68l0.2-1.9h1.2v1.9h2.3v1.1
					h-2.3v4.4c0,0.5,0.1,0.8,0.3,1c0.2,0.2,0.6,0.3,1.1,0.3h0.8v1.1H70.3z"/>
				<path class="st1" d="M74.2,114.4c-0.3,0-0.5-0.1-0.7-0.3c-0.2-0.2-0.3-0.4-0.3-0.7c0-0.3,0.1-0.5,0.3-0.6
					c0.2-0.2,0.4-0.3,0.7-0.3s0.5,0.1,0.7,0.3c0.2,0.2,0.3,0.4,0.3,0.6c0,0.3-0.1,0.5-0.3,0.7C74.7,114.3,74.5,114.4,74.2,114.4z
					 M73.5,124.1v-7.9h1.3v7.9H73.5z"/>
				<path class="st1" d="M77.2,124.1v-7.9h1.2l0.1,1.2c0.3-0.4,0.6-0.8,1-1s0.9-0.4,1.4-0.4c0.6,0,1.2,0.1,1.6,0.4
					c0.4,0.2,0.8,0.6,1,1.2c0.3-0.5,0.7-0.9,1.1-1.1c0.5-0.3,1-0.4,1.6-0.4c0.9,0,1.7,0.3,2.3,0.9c0.6,0.6,0.9,1.5,0.9,2.6v4.6h-1.3
					v-4.5c0-0.8-0.2-1.4-0.5-1.9c-0.3-0.4-0.8-0.6-1.4-0.6s-1.2,0.2-1.6,0.7S84,119.1,84,120v4.1h-1.3v-4.5c0-0.8-0.2-1.4-0.5-1.9
					c-0.3-0.4-0.8-0.6-1.4-0.6s-1.2,0.2-1.6,0.7s-0.6,1.2-0.6,2.1v4.1L77.2,124.1L77.2,124.1z"/>
				<path class="st1" d="M95.1,124.3c-0.8,0-1.4-0.2-2-0.5c-0.6-0.4-1-0.8-1.4-1.5c-0.3-0.6-0.5-1.4-0.5-2.2c0-0.8,0.2-1.6,0.5-2.2
					s0.8-1.1,1.4-1.5s1.3-0.5,2.1-0.5c0.8,0,1.4,0.2,2,0.5s1,0.8,1.3,1.4s0.4,1.2,0.4,1.8c0,0.1,0,0.2,0,0.3c0,0.1,0,0.2,0,0.4h-6.3
					c0,0.6,0.2,1.1,0.4,1.5c0.2,0.4,0.6,0.7,0.9,0.9c0.4,0.2,0.8,0.3,1.2,0.3c0.5,0,1-0.1,1.4-0.4s0.7-0.6,0.8-1h1.3
					c-0.2,0.7-0.6,1.4-1.2,1.8C96.8,124,96,124.3,95.1,124.3z M95.1,117.1c-0.6,0-1.2,0.2-1.7,0.6s-0.8,1-0.9,1.7h5
					c0-0.7-0.3-1.3-0.7-1.7C96.3,117.3,95.8,117.1,95.1,117.1z"/>
				<path class="st1" d="M99.6,126l0.9-3.5h1.4l-1.4,3.5H99.6z"/>
				<path class="st1" d="M108.6,127.6l2-4.3h-0.5l-3.1-7.2h1.5l2.6,6.2l2.8-6.2h1.4l-5.2,11.5H108.6z"/>
				<path class="st1" d="M119.5,124.3c-0.8,0-1.4-0.2-2-0.5s-1.1-0.8-1.4-1.4c-0.4-0.6-0.5-1.4-0.5-2.2s0.2-1.6,0.5-2.2
					s0.8-1.1,1.4-1.5c0.6-0.3,1.3-0.5,2-0.5c0.8,0,1.4,0.2,2,0.5s1.1,0.8,1.4,1.5c0.4,0.6,0.5,1.4,0.5,2.2s-0.2,1.6-0.5,2.2
					c-0.4,0.6-0.8,1.1-1.4,1.4S120.2,124.3,119.5,124.3z M119.5,123.1c0.5,0,0.9-0.1,1.3-0.3c0.4-0.2,0.7-0.6,1-1
					c0.2-0.4,0.4-1,0.4-1.7s-0.1-1.2-0.4-1.7c-0.2-0.4-0.6-0.8-0.9-1c-0.4-0.2-0.8-0.3-1.3-0.3s-0.9,0.1-1.3,0.3
					c-0.4,0.2-0.7,0.6-1,1c-0.2,0.5-0.4,1-0.4,1.7s0.1,1.2,0.4,1.7c0.2,0.5,0.6,0.8,0.9,1C118.6,123,119,123.1,119.5,123.1z"/>
				<path class="st1" d="M128.2,124.3c-0.9,0-1.7-0.3-2.2-0.9c-0.6-0.6-0.8-1.5-0.8-2.6v-4.6h1.3v4.5c0,1.7,0.7,2.5,2,2.5
					c0.7,0,1.3-0.2,1.7-0.7s0.7-1.2,0.7-2.1v-4.1h1.3v7.9H131l-0.1-1.4c-0.2,0.5-0.6,0.9-1.1,1.2
					C129.4,124.1,128.8,124.3,128.2,124.3z"/>
				<path class="st1" d="M30.7,212.6c-0.7,0-1.3-0.2-1.7-0.5s-0.6-1-0.6-1.9v-4.4H27v-1.1h1.4l0.2-1.9h1.2v1.9h2.3v1.1h-2.3v4.4
					c0,0.5,0.1,0.8,0.3,1s0.6,0.3,1.1,0.3H32v1.2L30.7,212.6L30.7,212.6z"/>
				<path class="st1" d="M33.8,212.6v-11.5h1.3v4.9c0.3-0.5,0.6-0.9,1.1-1.1c0.5-0.3,1-0.4,1.6-0.4c0.9,0,1.7,0.3,2.2,0.9
					c0.6,0.6,0.8,1.5,0.8,2.6v4.6h-1.3v-4.5c0-1.7-0.7-2.5-2-2.5c-0.7,0-1.3,0.2-1.7,0.7c-0.5,0.5-0.7,1.2-0.7,2.1v4.1L33.8,212.6
					L33.8,212.6z"/>
				<path class="st1" d="M45.5,212.8c-0.7,0-1.2-0.1-1.7-0.3c-0.4-0.2-0.8-0.5-1-0.9s-0.3-0.8-0.3-1.2c0-0.8,0.3-1.4,0.9-1.9
					c0.6-0.4,1.5-0.7,2.5-0.7H48v-0.1c0-0.7-0.2-1.2-0.5-1.6c-0.4-0.4-0.8-0.5-1.5-0.5c-0.5,0-1,0.1-1.3,0.4s-0.6,0.6-0.7,1.1h-1.4
					c0.1-0.6,0.2-1.1,0.6-1.5c0.3-0.4,0.8-0.7,1.3-0.9s1-0.3,1.6-0.3c1.1,0,1.9,0.3,2.5,0.9s0.8,1.4,0.8,2.4v4.9h-1.2l-0.1-1.4
					c-0.2,0.5-0.5,0.8-1,1.1C46.8,212.6,46.3,212.8,45.5,212.8z M45.7,211.7c0.5,0,1-0.1,1.3-0.4c0.4-0.3,0.7-0.6,0.8-1
					s0.3-0.9,0.3-1.3l0,0h-2c-0.8,0-1.4,0.1-1.7,0.4s-0.5,0.6-0.5,1s0.2,0.8,0.5,1C44.8,211.5,45.2,211.7,45.7,211.7z"/>
				<path class="st1" d="M54.5,212.6c-0.7,0-1.3-0.2-1.7-0.5s-0.6-1-0.6-1.9v-4.4h-1.4v-1.1h1.4l0.2-1.9h1.2v1.9h2.2v1.1h-2.3v4.4
					c0,0.5,0.1,0.8,0.3,1s0.6,0.3,1.1,0.3h0.8v1.2L54.5,212.6L54.5,212.6z"/>
				<path class="st1" d="M66,212.8c-0.6,0-1.2-0.1-1.7-0.4c-0.5-0.3-0.9-0.6-1.2-1.1l-0.1,1.3h-1.2v-11.5h1.3v4.9
					c0.3-0.4,0.6-0.7,1.1-1c0.5-0.3,1.1-0.5,1.8-0.5c0.8,0,1.5,0.2,2.1,0.5c0.6,0.4,1,0.9,1.4,1.5s0.5,1.3,0.5,2.1s-0.2,1.5-0.5,2.1
					s-0.8,1.1-1.4,1.5C67.5,212.6,66.8,212.8,66,212.8z M65.9,211.6c0.5,0,1-0.1,1.4-0.4c0.4-0.2,0.7-0.6,1-1s0.3-1,0.3-1.6
					s-0.1-1.1-0.3-1.6c-0.2-0.4-0.6-0.8-1-1s-0.9-0.4-1.4-0.4s-1,0.1-1.4,0.4c-0.4,0.2-0.7,0.6-1,1c-0.2,0.5-0.4,1-0.4,1.6
					s0.1,1.1,0.4,1.6c0.2,0.5,0.5,0.8,1,1C64.9,211.5,65.3,211.6,65.9,211.6z"/>
				<path class="st1" d="M75.4,212.8c-0.8,0-1.4-0.2-2-0.5s-1-0.8-1.4-1.5c-0.3-0.6-0.5-1.3-0.5-2.2c0-0.8,0.2-1.6,0.5-2.2
					s0.8-1.1,1.4-1.5c0.6-0.3,1.3-0.5,2.1-0.5c0.8,0,1.4,0.2,2,0.5c0.6,0.4,1,0.8,1.3,1.4s0.4,1.2,0.4,1.8c0,0.1,0,0.2,0,0.4
					c0,0.1,0,0.2,0,0.4h-6.4c0,0.6,0.2,1.1,0.4,1.5c0.2,0.4,0.6,0.7,0.9,0.9c0.4,0.2,0.8,0.3,1.2,0.3c0.6,0,1-0.1,1.4-0.4
					s0.7-0.6,0.8-1h1.3c-0.2,0.7-0.6,1.3-1.2,1.8C77.1,212.6,76.3,212.8,75.4,212.8z M75.4,205.6c-0.6,0-1.2,0.2-1.7,0.6
					s-0.8,1-0.9,1.7h5c0-0.7-0.3-1.3-0.7-1.7C76.6,205.8,76,205.6,75.4,205.6z"/>
				<path class="st1" d="M84.5,212.8c-0.8,0-1.5-0.2-2.1-0.5c-0.6-0.4-1.1-0.9-1.4-1.5s-0.5-1.3-0.5-2.1s0.2-1.5,0.5-2.1
					s0.8-1.1,1.4-1.5s1.3-0.5,2.1-0.5c0.7,0,1.2,0.1,1.7,0.4s0.9,0.6,1.2,1.1v-4.9h1.3v11.5h-1.2l-0.1-1.3c-0.3,0.4-0.6,0.7-1.1,1
					C85.9,212.7,85.2,212.8,84.5,212.8z M84.7,211.6c0.5,0,1-0.1,1.4-0.4c0.4-0.2,0.7-0.6,1-1c0.2-0.5,0.3-1,0.3-1.6
					s-0.1-1.1-0.3-1.6c-0.2-0.4-0.5-0.8-1-1c-0.4-0.2-0.9-0.4-1.4-0.4s-1,0.1-1.4,0.4c-0.4,0.2-0.7,0.6-1,1c-0.2,0.5-0.3,1-0.3,1.6
					s0.1,1.1,0.3,1.6c0.2,0.5,0.6,0.8,1,1C83.7,211.5,84.1,211.6,84.7,211.6z"/>
				<path class="st1" d="M96,202.9c-0.3,0-0.5-0.1-0.7-0.3s-0.3-0.4-0.3-0.7s0.1-0.5,0.3-0.6c0.2-0.2,0.4-0.3,0.7-0.3
					s0.5,0.1,0.7,0.3s0.3,0.4,0.3,0.6c0,0.3-0.1,0.5-0.3,0.7S96.3,202.9,96,202.9z M95.4,212.6v-7.9h1.3v7.9H95.4z"/>
				<path class="st1" d="M102.1,212.8c-0.9,0-1.7-0.2-2.4-0.7c-0.6-0.5-1-1.1-1.1-2h1.4c0.1,0.4,0.3,0.8,0.7,1.1
					c0.4,0.3,0.8,0.5,1.5,0.5c0.6,0,1-0.1,1.2-0.4c0.3-0.2,0.4-0.5,0.4-0.9c0-0.5-0.2-0.8-0.5-1s-0.8-0.3-1.5-0.4
					c-0.4-0.1-0.8-0.2-1.3-0.4c-0.4-0.2-0.8-0.4-1.1-0.7c-0.3-0.3-0.4-0.7-0.4-1.2c0-0.7,0.3-1.3,0.8-1.7s1.2-0.7,2.1-0.7
					c0.8,0,1.5,0.2,2.1,0.6c0.5,0.4,0.8,1,0.9,1.8h-1.3c0-0.4-0.2-0.7-0.5-1s-0.7-0.3-1.2-0.3s-0.8,0.1-1.1,0.3
					c-0.3,0.2-0.4,0.5-0.4,0.8s0.2,0.6,0.5,0.8s0.8,0.3,1.4,0.5c0.5,0.1,1,0.2,1.4,0.4c0.4,0.2,0.8,0.4,1.1,0.7s0.4,0.7,0.4,1.3
					c0,0.7-0.3,1.3-0.8,1.8C103.7,212.6,103,212.8,102.1,212.8z"/>
				<path class="st1" d="M113.9,212.8c-0.7,0-1.2-0.1-1.6-0.3c-0.4-0.2-0.8-0.5-1-0.9s-0.3-0.8-0.3-1.2c0-0.8,0.3-1.4,0.9-1.9
					c0.6-0.4,1.5-0.7,2.5-0.7h2.1v-0.1c0-0.7-0.2-1.2-0.5-1.6c-0.4-0.4-0.9-0.5-1.5-0.5c-0.5,0-1,0.1-1.3,0.4
					c-0.4,0.3-0.6,0.6-0.7,1.1h-1.4c0-0.6,0.2-1.1,0.6-1.5c0.3-0.4,0.8-0.7,1.3-0.9s1-0.3,1.6-0.3c1.1,0,1.9,0.3,2.5,0.9
					s0.8,1.4,0.8,2.4v4.9h-1.2l-0.1-1.4c-0.2,0.5-0.6,0.8-1,1.1C115.2,212.6,114.6,212.8,113.9,212.8z M114.1,211.7
					c0.5,0,0.9-0.1,1.3-0.4s0.6-0.6,0.8-1s0.3-0.9,0.3-1.3l0,0h-2c-0.8,0-1.4,0.1-1.7,0.4c-0.3,0.3-0.5,0.6-0.5,1s0.1,0.8,0.5,1
					C113.1,211.5,113.6,211.7,114.1,211.7z"/>
				<path class="st1" d="M124.2,212.6v-7.9h1.2l0.1,1.5c0.2-0.5,0.6-0.9,1.1-1.2s1.1-0.5,1.9-0.5v1.4h-0.4c-0.5,0-0.9,0.1-1.3,0.2
					c-0.4,0.2-0.7,0.5-0.9,0.8c-0.2,0.4-0.3,0.9-0.3,1.6v4h-1.4L124.2,212.6L124.2,212.6z"/>
				<path class="st1" d="M133.2,212.8c-0.8,0-1.4-0.2-2-0.5s-1.1-0.8-1.4-1.5c-0.3-0.6-0.5-1.3-0.5-2.2c0-0.8,0.2-1.6,0.5-2.2
					s0.8-1.1,1.4-1.5c0.6-0.3,1.3-0.5,2.1-0.5s1.4,0.2,2,0.5c0.6,0.4,1,0.8,1.3,1.4s0.5,1.2,0.5,1.8c0,0.1,0,0.2,0,0.4
					c0,0.1,0,0.2,0,0.4h-6.3c0,0.6,0.2,1.1,0.4,1.5s0.6,0.7,0.9,0.9c0.4,0.2,0.8,0.3,1.2,0.3c0.6,0,1-0.1,1.4-0.4s0.6-0.6,0.8-1h1.3
					c-0.2,0.7-0.6,1.3-1.2,1.8C134.9,212.6,134.2,212.8,133.2,212.8z M133.2,205.6c-0.6,0-1.2,0.2-1.7,0.6s-0.8,1-0.9,1.7h5
					c0-0.7-0.3-1.3-0.7-1.7C134.5,205.8,133.9,205.6,133.2,205.6z"/>
				<path class="st1" d="M138.8,212.6v-11.5h1.3v11.5H138.8z"/>
				<path class="st1" d="M145,212.8c-0.7,0-1.2-0.1-1.7-0.3c-0.4-0.2-0.8-0.5-1-0.9s-0.3-0.8-0.3-1.2c0-0.8,0.3-1.4,0.9-1.9
					s1.5-0.7,2.5-0.7h2.1v-0.1c0-0.7-0.2-1.2-0.5-1.6c-0.4-0.4-0.9-0.5-1.5-0.5c-0.5,0-1,0.1-1.3,0.4c-0.4,0.3-0.6,0.6-0.7,1.1h-1.4
					c0.1-0.6,0.2-1.1,0.6-1.5c0.3-0.4,0.8-0.7,1.3-0.9s1-0.3,1.6-0.3c1.1,0,1.9,0.3,2.5,0.9s0.8,1.4,0.8,2.4v4.9h-1.2l-0.1-1.4
					c-0.2,0.5-0.5,0.8-1,1.1C146.3,212.6,145.7,212.8,145,212.8z M145.2,211.7c0.5,0,1-0.1,1.3-0.4c0.4-0.3,0.6-0.6,0.8-1
					s0.3-0.9,0.3-1.3l0,0h-2c-0.8,0-1.3,0.1-1.7,0.4c-0.3,0.3-0.5,0.6-0.5,1s0.1,0.8,0.5,1C144.2,211.5,144.6,211.7,145.2,211.7z"/>
				<path class="st1" d="M150.2,212.6l2.8-4l-2.8-4h1.5l2.2,3.3l2.2-3.3h1.4l-2.8,4l2.8,4h-1.4l-2.2-3.3l-2.2,3.3H150.2z"/>
				<path class="st1" d="M162.2,212.8c-0.8,0-1.4-0.2-2-0.5s-1.1-0.8-1.4-1.5c-0.3-0.6-0.5-1.3-0.5-2.2c0-0.8,0.2-1.6,0.5-2.2
					s0.8-1.1,1.4-1.5c0.6-0.3,1.3-0.5,2.1-0.5s1.4,0.2,2,0.5c0.6,0.4,1,0.8,1.3,1.4s0.4,1.2,0.4,1.8c0,0.1,0,0.2,0,0.4s0,0.2,0,0.4
					h-6.3c0,0.6,0.2,1.1,0.4,1.5s0.6,0.7,0.9,0.9s0.8,0.3,1.2,0.3c0.5,0,1-0.1,1.4-0.4s0.6-0.6,0.8-1h1.3c-0.2,0.7-0.6,1.3-1.2,1.8
					C163.9,212.6,163.1,212.8,162.2,212.8z M162.2,205.6c-0.6,0-1.2,0.2-1.7,0.6s-0.8,1-0.9,1.7h5c0-0.7-0.3-1.3-0.7-1.7
					C163.4,205.8,162.9,205.6,162.2,205.6z"/>
				<path class="st1" d="M171.3,212.8c-0.8,0-1.5-0.2-2.1-0.5s-1.1-0.9-1.4-1.5s-0.5-1.3-0.5-2.1s0.2-1.5,0.5-2.1s0.8-1.1,1.4-1.5
					s1.3-0.5,2.1-0.5c0.6,0,1.2,0.1,1.7,0.4s0.9,0.6,1.2,1.1v-4.9h1.3v11.5h-1.2l-0.1-1.3c-0.3,0.4-0.6,0.7-1.1,1
					C172.6,212.7,172,212.8,171.3,212.8z M171.5,211.6c0.5,0,1-0.1,1.4-0.4s0.7-0.6,1-1c0.2-0.5,0.3-1,0.3-1.6s-0.1-1.1-0.3-1.6
					c-0.2-0.4-0.5-0.8-1-1s-0.9-0.4-1.4-0.4s-1,0.1-1.4,0.4c-0.4,0.2-0.7,0.6-1,1c-0.2,0.5-0.3,1-0.3,1.6s0.1,1.1,0.3,1.6
					s0.6,0.8,1,1C170.5,211.5,170.9,211.6,171.5,211.6z"/>
				<path class="st1" d="M27.6,238.1v-11.5h1.2l0.1,1.3c0.3-0.4,0.6-0.7,1.1-1s1.1-0.5,1.8-0.5c0.8,0,1.5,0.2,2.1,0.5
					c0.6,0.4,1,0.9,1.4,1.5c0.3,0.6,0.5,1.3,0.5,2.1s-0.2,1.5-0.5,2.1s-0.8,1.1-1.4,1.5c-0.6,0.4-1.3,0.5-2.1,0.5
					c-0.6,0-1.2-0.1-1.7-0.4s-0.9-0.6-1.2-1.1v4.8h-1.3C27.6,237.9,27.6,238.1,27.6,238.1z M31.6,233.6c0.5,0,1-0.1,1.4-0.4
					c0.4-0.2,0.7-0.6,1-1c0.2-0.5,0.3-1,0.3-1.6s-0.1-1.1-0.3-1.6c-0.2-0.4-0.6-0.8-1-1s-0.9-0.4-1.4-0.4s-1,0.1-1.4,0.4
					s-0.7,0.6-1,1c-0.2,0.5-0.3,1-0.3,1.6s0.1,1.1,0.3,1.6s0.5,0.8,1,1C30.6,233.5,31.1,233.6,31.6,233.6z"/>
				<path class="st1" d="M37.6,234.6v-11.5h1.3v11.5H37.6z"/>
				<path class="st1" d="M43.8,234.8c-0.7,0-1.2-0.1-1.7-0.3c-0.4-0.2-0.8-0.5-1-0.9s-0.3-0.8-0.3-1.2c0-0.8,0.3-1.4,0.9-1.9
					c0.6-0.4,1.5-0.7,2.5-0.7h2.1v-0.1c0-0.7-0.2-1.2-0.5-1.6c-0.4-0.4-0.8-0.5-1.5-0.5c-0.5,0-1,0.1-1.3,0.4
					c-0.4,0.3-0.6,0.6-0.7,1.1h-1.4c0.1-0.6,0.2-1.1,0.6-1.5c0.3-0.4,0.8-0.7,1.3-0.9s1-0.3,1.6-0.3c1.1,0,1.9,0.3,2.5,0.9
					s0.8,1.4,0.8,2.4v4.9h-1.2l-0.1-1.4c-0.2,0.5-0.5,0.8-1,1.1C45.1,234.6,44.5,234.8,43.8,234.8z M44,233.7c0.5,0,1-0.1,1.3-0.4
					c0.4-0.3,0.7-0.6,0.8-1s0.3-0.9,0.3-1.3l0,0h-2c-0.8,0-1.4,0.1-1.7,0.4s-0.5,0.6-0.5,1s0.2,0.8,0.5,1
					C43,233.5,43.5,233.7,44,233.7z"/>
				<path class="st1" d="M53.5,234.8c-0.8,0-1.4-0.2-2-0.5s-1.1-0.8-1.4-1.5c-0.3-0.6-0.5-1.3-0.5-2.2s0.2-1.6,0.5-2.2
					c0.4-0.6,0.8-1.1,1.4-1.5c0.6-0.3,1.3-0.5,2-0.5c0.9,0,1.7,0.2,2.4,0.7c0.6,0.5,1,1.1,1.2,2h-1.4c-0.1-0.5-0.4-0.9-0.8-1.1
					c-0.4-0.3-0.9-0.4-1.5-0.4c-0.4,0-0.9,0.1-1.3,0.3s-0.7,0.6-1,1c-0.2,0.4-0.4,1-0.4,1.7s0.1,1.2,0.4,1.7s0.6,0.8,1,1
					s0.8,0.3,1.3,0.3c0.6,0,1-0.1,1.5-0.4c0.4-0.3,0.7-0.7,0.8-1.2h1.4c-0.2,0.8-0.6,1.5-1.2,2S54.4,234.8,53.5,234.8z"/>
				<path class="st1" d="M62.5,234.8c-0.8,0-1.4-0.2-2-0.5s-1.1-0.8-1.4-1.5c-0.3-0.6-0.5-1.3-0.5-2.2c0-0.8,0.2-1.6,0.5-2.2
					s0.8-1.1,1.4-1.5c0.6-0.3,1.3-0.5,2.1-0.5c0.8,0,1.4,0.2,2,0.5c0.6,0.4,1,0.8,1.3,1.4s0.5,1.2,0.5,1.8c0,0.1,0,0.2,0,0.4
					s0,0.2,0,0.4h-6.3c0,0.6,0.2,1.1,0.4,1.5c0.2,0.4,0.6,0.7,0.9,0.9c0.4,0.2,0.8,0.3,1.2,0.3c0.6,0,1-0.1,1.4-0.4
					c0.4-0.3,0.7-0.6,0.8-1h1.3c-0.2,0.7-0.6,1.3-1.2,1.8C64.2,234.6,63.4,234.8,62.5,234.8z M62.5,227.6c-0.6,0-1.2,0.2-1.7,0.6
					s-0.8,1-0.9,1.7h5c0-0.7-0.3-1.3-0.7-1.7C63.7,227.8,63.2,227.6,62.5,227.6z"/>
				<path class="st1" d="M72.7,234.6v-6.8h-1.2v-1.1h1.2v-1.4c0-0.8,0.2-1.3,0.6-1.7s0.9-0.5,1.7-0.5h0.8v1.2h-0.6
					c-0.4,0-0.7,0.1-0.9,0.2c-0.2,0.2-0.3,0.5-0.3,0.8v1.3h1.9v1.1H74v6.8L72.7,234.6L72.7,234.6z"/>
				<path class="st1" d="M80.9,234.8c-0.8,0-1.4-0.2-2-0.5s-1.1-0.8-1.4-1.5c-0.4-0.6-0.5-1.4-0.5-2.2s0.2-1.6,0.5-2.2
					s0.8-1.1,1.4-1.4s1.3-0.5,2-0.5c0.8,0,1.4,0.2,2,0.5s1.1,0.8,1.4,1.4c0.4,0.6,0.5,1.4,0.5,2.2s-0.2,1.6-0.5,2.2
					c-0.4,0.6-0.8,1.1-1.4,1.5C82.3,234.6,81.6,234.8,80.9,234.8z M80.9,233.7c0.5,0,0.9-0.1,1.3-0.3s0.7-0.6,1-1
					c0.2-0.5,0.4-1,0.4-1.7s-0.1-1.2-0.4-1.7c-0.2-0.5-0.6-0.8-0.9-1s-0.8-0.3-1.3-0.3s-0.9,0.1-1.3,0.3s-0.7,0.6-1,1
					s-0.4,1-0.4,1.7s0.1,1.2,0.4,1.7c0.2,0.4,0.6,0.8,0.9,1C80,233.5,80.5,233.7,80.9,233.7z"/>
				<path class="st1" d="M86.8,234.6v-7.9H88l0.1,1.5c0.2-0.5,0.6-0.9,1.1-1.2s1.1-0.5,1.9-0.5v1.4h-0.4c-0.5,0-0.9,0.1-1.3,0.2
					c-0.4,0.2-0.7,0.5-0.9,0.8c-0.2,0.4-0.4,0.9-0.4,1.6v4h-1.3V234.6z"/>
				<path class="st1" d="M99.8,234.8c-1,0-1.7-0.2-2.4-0.7c-0.6-0.5-1-1.1-1.1-2h1.4c0.1,0.4,0.3,0.8,0.7,1.1s0.8,0.5,1.4,0.5
					s1-0.1,1.2-0.4c0.3-0.2,0.4-0.5,0.4-0.9c0-0.5-0.2-0.8-0.5-1c-0.4-0.2-0.8-0.3-1.5-0.4c-0.4-0.1-0.9-0.2-1.3-0.4
					s-0.8-0.4-1.1-0.7c-0.3-0.3-0.4-0.7-0.4-1.2c0-0.7,0.3-1.3,0.8-1.7s1.2-0.7,2.1-0.7c0.8,0,1.5,0.2,2.1,0.6
					c0.5,0.4,0.8,1,0.9,1.8h-1.3c-0.1-0.4-0.2-0.7-0.5-1s-0.7-0.3-1.2-0.3s-0.8,0.1-1.1,0.3c-0.3,0.2-0.4,0.5-0.4,0.8
					s0.2,0.6,0.5,0.8s0.8,0.3,1.4,0.5c0.5,0.1,1,0.2,1.4,0.4s0.8,0.4,1.1,0.7c0.3,0.3,0.4,0.7,0.4,1.3c0,0.7-0.3,1.3-0.8,1.8
					C101.5,234.6,100.8,234.8,99.8,234.8z"/>
				<path class="st1" d="M104.8,234.6v-11.5h1.3v11.5H104.8z"/>
				<path class="st1" d="M111.9,234.8c-0.8,0-1.4-0.2-2-0.5s-1.1-0.8-1.4-1.5c-0.3-0.6-0.5-1.3-0.5-2.2c0-0.8,0.2-1.6,0.5-2.2
					s0.8-1.1,1.4-1.5c0.6-0.3,1.3-0.5,2.1-0.5s1.4,0.2,2,0.5c0.6,0.4,1,0.8,1.3,1.4s0.4,1.2,0.4,1.8c0,0.1,0,0.2,0,0.4
					c0,0.1,0,0.2,0,0.4h-6.3c0,0.6,0.2,1.1,0.4,1.5s0.6,0.7,0.9,0.9c0.4,0.2,0.8,0.3,1.2,0.3c0.6,0,1-0.1,1.4-0.4
					c0.4-0.2,0.7-0.6,0.8-1h1.3c-0.2,0.7-0.6,1.3-1.2,1.8C113.6,234.6,112.9,234.8,111.9,234.8z M111.9,227.6
					c-0.6,0-1.2,0.2-1.7,0.6s-0.8,1-0.9,1.7h5c0-0.7-0.3-1.3-0.7-1.7C113.2,227.8,112.6,227.6,111.9,227.6z"/>
				<path class="st1" d="M121,234.8c-0.8,0-1.4-0.2-2-0.5s-1.1-0.8-1.4-1.5c-0.3-0.6-0.5-1.3-0.5-2.2c0-0.8,0.2-1.6,0.5-2.2
					s0.8-1.1,1.4-1.5c0.6-0.3,1.3-0.5,2.1-0.5s1.4,0.2,2,0.5c0.6,0.4,1,0.8,1.3,1.4s0.4,1.2,0.4,1.8c0,0.1,0,0.2,0,0.4
					c0,0.1,0,0.2,0,0.4h-6.3c0,0.6,0.2,1.1,0.4,1.5s0.6,0.7,0.9,0.9c0.4,0.2,0.8,0.3,1.2,0.3c0.6,0,1-0.1,1.4-0.4s0.7-0.6,0.8-1h1.3
					c-0.2,0.7-0.6,1.3-1.2,1.8C122.7,234.6,122,234.8,121,234.8z M121,227.6c-0.6,0-1.2,0.2-1.7,0.6s-0.8,1-0.9,1.7h5
					c0-0.7-0.3-1.3-0.7-1.7C122.3,227.8,121.7,227.6,121,227.6z"/>
				<path class="st1" d="M126.6,238.1v-11.5h1.2l0.1,1.3c0.3-0.4,0.6-0.7,1.1-1s1.1-0.5,1.8-0.5c0.8,0,1.5,0.2,2.1,0.5
					c0.6,0.4,1,0.9,1.4,1.5c0.3,0.6,0.5,1.3,0.5,2.1s-0.2,1.5-0.5,2.1s-0.8,1.1-1.4,1.5c-0.6,0.4-1.3,0.5-2.1,0.5
					c-0.6,0-1.2-0.1-1.7-0.4s-0.9-0.6-1.2-1.1v4.8h-1.3L126.6,238.1L126.6,238.1z M130.7,233.6c0.5,0,1-0.1,1.4-0.4
					c0.4-0.2,0.7-0.6,1-1c0.2-0.5,0.4-1,0.4-1.6s-0.1-1.1-0.4-1.6c-0.2-0.4-0.6-0.8-1-1s-0.9-0.4-1.4-0.4s-1,0.1-1.4,0.4
					s-0.7,0.6-1,1c-0.2,0.5-0.4,1-0.4,1.6s0.1,1.1,0.4,1.6c0.2,0.5,0.5,0.8,1,1C129.7,233.5,130.1,233.6,130.7,233.6z"/>
				<path class="st1" d="M137.4,224.9c-0.3,0-0.5-0.1-0.7-0.3s-0.3-0.4-0.3-0.7s0.1-0.5,0.3-0.6c0.2-0.2,0.4-0.3,0.7-0.3
					s0.5,0.1,0.7,0.3s0.3,0.4,0.3,0.6c0,0.3-0.1,0.5-0.3,0.7S137.7,224.9,137.4,224.9z M136.7,234.6v-7.9h1.3v7.9H136.7z"/>
				<path class="st1" d="M140.4,234.6v-7.9h1.2l0.1,1.4c0.3-0.5,0.6-0.9,1.1-1.2s1-0.4,1.6-0.4c0.9,0,1.7,0.3,2.2,0.9
					s0.8,1.5,0.8,2.6v4.6h-1.3v-4.5c0-1.7-0.7-2.5-2.1-2.5c-0.7,0-1.2,0.2-1.7,0.7c-0.4,0.5-0.7,1.2-0.7,2.1v4.1L140.4,234.6
					L140.4,234.6z"/>
				<path class="st1" d="M152.7,232.1c-0.4,0-0.9-0.1-1.2-0.2l-0.8,0.8c0.1,0.1,0.3,0.2,0.4,0.2c0.2,0.1,0.4,0.1,0.8,0.2
					c0.3,0.1,0.8,0.1,1.4,0.2c1.1,0.1,1.8,0.3,2.3,0.7s0.7,1,0.7,1.6c0,0.5-0.1,0.9-0.4,1.3c-0.3,0.4-0.6,0.8-1.2,1
					c-0.5,0.3-1.2,0.4-2,0.4c-0.7,0-1.4-0.1-1.9-0.3s-1-0.5-1.3-0.8c-0.3-0.4-0.5-0.9-0.5-1.4c0-0.3,0.1-0.6,0.2-1
					c0.2-0.3,0.5-0.7,0.9-1c-0.2-0.1-0.4-0.2-0.6-0.3c-0.2-0.1-0.3-0.2-0.5-0.4v-0.4l1.4-1.3c-0.6-0.5-0.9-1.2-0.9-2.1
					c0-0.5,0.1-1,0.4-1.4c0.2-0.4,0.6-0.8,1.1-1s1-0.4,1.7-0.4c0.5,0,0.9,0.1,1.2,0.2h2.9v1l-1.5,0.1c0.3,0.5,0.5,1,0.5,1.5
					s-0.1,1-0.4,1.4c-0.2,0.4-0.6,0.8-1.1,1C154,232,153.4,232.1,152.7,232.1z M150.4,235.6c0,0.5,0.2,0.9,0.7,1.2s1,0.4,1.7,0.4
					s1.2-0.1,1.6-0.4s0.6-0.7,0.6-1.2c0-0.3-0.1-0.6-0.4-0.9c-0.3-0.2-0.8-0.4-1.5-0.4c-0.6,0-1.1-0.1-1.5-0.2
					c-0.4,0.2-0.7,0.5-0.9,0.8C150.5,235.2,150.4,235.4,150.4,235.6z M152.7,231c0.6,0,1-0.1,1.4-0.4c0.3-0.3,0.5-0.7,0.5-1.3
					c0-0.5-0.2-1-0.5-1.3s-0.8-0.4-1.4-0.4c-0.6,0-1,0.1-1.4,0.4c-0.3,0.3-0.5,0.7-0.5,1.3c0,0.5,0.2,1,0.5,1.3
					C151.7,230.9,152.2,231,152.7,231z"/>
				<path class="st1" d="M158.9,234.7c-0.3,0-0.5-0.1-0.7-0.3s-0.3-0.4-0.3-0.7s0.1-0.5,0.3-0.7s0.4-0.3,0.7-0.3s0.5,0.1,0.6,0.3
					c0.2,0.2,0.3,0.4,0.3,0.7s-0.1,0.5-0.3,0.7C159.4,234.6,159.1,234.7,158.9,234.7z"/>
				<path class="st2" d="M28,136.7c0.4-0.3,1-0.5,1.9-0.5h1c1.5,0.1,2.4,0.1,2.7,0.2c0.2,0.1,0.6,0.1,1.2,0.1c0.6,0,1.1,0.2,1.4,0.4
					c0.3,0.2,0.4,0.6,0.4,1.1s-0.1,0.9-0.3,1.1s-0.5,0.4-1,0.5c-0.6,0.1-0.9,0.2-1,0.3c-0.1,0.1-0.2,2.8-0.2,8c0,3.6,0,6.1,0.1,7.6
					c0.1,1.2,0.1,1.8,0.1,1.9c0,0.6-0.1,1.1-0.4,1.5c-0.3,0.6-0.8,0.8-1.4,0.8c-0.4,0-0.9-0.1-1.3-0.4l-0.8-0.5l0.1-9.6
					c0.1-2.5,0.1-4.9,0.1-7.4c0-1.5-0.1-2.3-0.3-2.4c-0.3-0.2-0.6-0.2-0.6-0.2c-0.1,0-0.3,0-0.5,0c-0.5,0-0.9-0.1-1.3-0.4
					s-0.5-0.6-0.5-1C27.3,137.4,27.6,137,28,136.7z"/>
				<path class="st2" d="M43.6,137.8c0.3-0.1,0.8-0.1,1.3-0.1c1.5,0,2.5,0.2,2.9,0.5c0.3,0.2,0.4,0.6,0.4,0.9c0,0.4-0.1,0.7-0.4,0.9
					s-0.6,0.4-1.1,0.4c-0.4,0-0.7,0.1-0.8,0.3c-0.1,0.2-0.2,0.7-0.2,1.5c0,0.2,0,0.9,0.1,2.1c0.1,1.4,0.1,2.3,0.2,2.7
					s0.2,0.6,0.3,0.7c0,0,0.2,0,0.6,0c0.3,0,0.6,0,0.8,0c0.7,0,1.2,0.2,1.5,0.5c0.2,0.2,0.3,0.4,0.3,0.6c0,0.4-0.6,0.9-1.8,1.3
					c-0.7,0.2-1.1,0.4-1.3,0.6c-0.1,0.1-0.2,0.4-0.3,0.9c-0.1,0.4-0.1,0.8-0.1,1.2c0,1.4,0.1,2.5,0.4,3.1c0.1,0.3,0.2,0.5,0.4,0.5
					s0.4,0.1,0.9,0.1c0.6,0,1.1,0.1,1.5,0.4s0.6,0.6,0.6,0.9c0,0.2-0.2,0.6-0.6,1c-0.7,0.6-1.8,1-3.4,1s-2.7-0.4-3.2-1.1
					c-0.3-0.4-0.5-2.8-0.5-7.2c-0.1-5.5-0.1-8.8-0.2-9.7l-0.1-3.1l0.6-0.3C42.9,138.1,43.3,137.9,43.6,137.8z"/>
				<path class="st2" d="M58.4,138c0.7-0.7,1.8-1.1,3.3-1.1c0.6,0,1.2,0.1,1.6,0.3c0.6,0.3,1,1.1,1.3,2.4c0.2,1.1,0.4,2.9,0.7,5.4
					s0.4,4.5,0.5,5.9c0,1.3,0.1,2.8,0.3,4.4c0.2,1.6,0.3,2.5,0.4,2.7c0,0,0,0.1,0,0.2c0,0.2-0.1,0.6-0.3,0.9
					c-0.2,0.4-0.4,0.6-0.6,0.6c-0.1,0-0.2,0-0.4,0c-0.4,0-0.9-0.1-1.4-0.3c-0.5-0.2-0.8-0.4-0.9-0.6s-0.2-1-0.4-2.3
					c-0.2-1.3-0.2-2.4-0.2-3.2c0-0.8-0.1-1.2-0.2-1.3c-0.1-0.1-0.8-0.1-1.9-0.1c-0.9,0-1.4,0-1.5,0.1c0,0.1,0,0.3,0,0.5
					c0,0.6,0,1.3,0.1,2.3c0.1,1.1,0.1,2,0.1,2.7v0.4c0,0.2-0.2,0.4-0.6,0.5s-0.7,0.2-1.1,0.2c-0.2,0-0.3,0-0.4,0
					c-0.9-0.3-1.5-0.7-1.6-1.2c0,0,0-0.1,0-0.2s0-0.2,0-0.3c0-1.2,0.1-3.7,0.4-7.6s0.5-6.1,0.6-6.7c0.2-0.8,0.5-1.6,1-2.6
					C57.6,139.1,58,138.4,58.4,138z M61.2,142.3c-0.2-0.8-0.4-1.2-0.6-1.2s-0.4,0.3-0.7,0.9c-0.5,1.1-0.9,2.7-1,4.6
					c-0.1,0.8-0.1,1.3-0.1,1.4c0,0.4,0.1,0.6,0.2,0.7s0.5,0.2,1.1,0.2c0.8,0,1.3-0.1,1.4-0.2s0.1-0.4,0.1-1.1
					C61.7,145.6,61.6,143.9,61.2,142.3z"/>
				<path class="st2" d="M74.4,139.3c0.5-0.5,0.9-0.9,1.1-1s0.6-0.2,1-0.2c1.3,0,1.9,0.4,1.9,1.3c0,0.8-0.6,1.4-1.7,2
					c-0.7,0.4-1.3,1.8-1.7,4.2c-0.2,1.1-0.3,2.2-0.3,3.4c0,1.2,0.1,2.4,0.2,3.7c0.1,1.6,0.4,2.7,0.7,3.3c0.3,0.6,0.8,1,1.4,1.1
					c1.1,0.2,1.8,0.5,1.9,1c0,0.1,0,0.1,0,0.2c0,0.3-0.2,0.6-0.5,0.9s-0.7,0.5-1.1,0.6c-0.1,0-0.2,0-0.5,0c-1,0-2-0.2-2.8-0.7
					c-0.3-0.2-0.7-0.7-1.1-1.5s-0.8-1.6-1-2.4c-0.3-1.1-0.5-3.2-0.5-6c0-1.1,0.1-2.2,0.2-3.2c0.2-1.7,0.5-3,0.9-3.9
					C73,141,73.6,140.1,74.4,139.3z"/>
				<path class="st2" d="M84.4,136.8c0.1-0.2,0.3-0.3,0.7-0.3c0.5,0,1,0.2,1.5,0.5c0.3,0.2,0.5,0.4,0.6,0.6s0.1,0.5,0.1,1.1
					c0,4,0.1,6.3,0.1,7c0.1,0.7,0.2,1,0.4,1.1h0.1c0.2,0,0.5-0.1,0.8-0.2c0.2-0.1,0.3-0.4,0.4-0.8s0.1-1.5,0.1-3.1
					c0-2.5,0.1-3.8,0.2-4.1c0.2-0.5,0.8-0.7,1.5-0.7c0.3,0,0.6,0.1,0.8,0.2l0.6,0.3l-0.1,4.4c-0.1,1.8-0.1,4.4-0.1,7.7
					c0,3.7,0.1,6.1,0.2,7.2l0.2,1.9l-0.7,0.3c-0.2,0.1-0.4,0.2-0.7,0.2c-0.2,0-0.5-0.1-0.9-0.2c-0.6-0.2-0.9-0.5-1-0.8
					c-0.1-0.2-0.2-1.8-0.2-4.7c-0.1-2.9-0.2-4.4-0.3-4.5c-0.1-0.1-0.4-0.1-0.8,0l-0.8,0.2l0.1,3.4c0.1,2.4,0.2,3.8,0.4,4.2
					c0.1,0.3,0.2,0.7,0.2,1c0,0.6-0.3,1-0.9,1.1c-0.3,0.1-0.5,0.1-0.6,0.1c-0.8,0-1.4-0.2-1.9-0.7c-0.2-0.2-0.3-0.8-0.3-1.8
					s-0.1-4.1-0.1-9.3C84.2,140.8,84.3,137.1,84.4,136.8z"/>
				<path class="st2" d="M29.2,166.1c0.4-0.2,0.8-0.2,1.1-0.2c0.4,0,0.8,0.2,1.1,0.5c0.3,0.4,0.5,1.1,0.5,2.1c0.1,2,0.5,3.7,1.1,5.3
					c0.2,0.5,0.3,0.9,0.3,1.2c0,0.1,0,0.2,0.1,0.2c0,0.1,0.1,0.1,0.2,0c0.2-0.1,0.2-0.5,0.2-1.3s0-1.2,0.1-1.3
					c0.1-0.1,0.1-0.9,0.2-2.6s0.1-2.8,0.1-3.2c0-0.2,0.3-0.4,0.9-0.7c0.6-0.2,1.1-0.4,1.5-0.4c0.6,0,1.1,0.2,1.3,0.6
					c0.2,0.3,0.4,0.7,0.4,1s-0.1,1.8-0.4,4.4c-0.1,0.5-0.2,2-0.3,4.5c-0.1,1.9-0.5,4.1-1.2,6.7c-0.3,1.3-0.7,2.4-1,3.1
					c-0.4,0.7-0.9,1.4-1.5,2.1c-0.3,0.4-0.6,0.6-0.8,0.6s-0.3,0.2-0.5,0.5c-0.1,0.3-0.5,0.5-1,0.7s-1.1,0.3-1.7,0.3
					c-0.5,0-1-0.2-1.6-0.5s-0.9-0.6-0.9-0.8c0-0.3,0.2-0.7,0.5-1s0.7-0.7,1.2-0.9c0.8-0.4,1.5-0.9,2-1.6s1-1.7,1.4-3
					c0.5-1.5,0.7-2.4,0.7-2.8c0-0.3-0.2-0.6-0.7-0.7c-1.2-0.5-2-1.1-2.4-1.8c-0.2-0.4-0.6-2.2-1.3-5.4c-0.4-1.6-0.5-2.8-0.5-3.7
					C28.2,167.1,28.5,166.4,29.2,166.1z"/>
				<path class="st2" d="M44.6,168.4l0.8-1h5.2l0.8,0.8c0.5,0.5,0.9,1.2,1.1,2s0.4,2.1,0.6,3.8c0.1,0.6,0.1,1.6,0.1,2.8
					c0,2.9-0.3,5.5-0.8,7.8s-1.2,3.9-2.1,4.8c-0.3,0.3-0.7,0.5-1.2,0.7s-1,0.3-1.4,0.3c-0.2,0-0.3,0-0.4-0.1
					c-0.2-0.1-0.5-0.2-0.9-0.2c-0.3,0-0.6-0.2-1-0.7s-0.7-1-0.9-1.7c-0.4-1.1-0.7-2.3-0.8-3.6c-0.1-1.3-0.2-3.4-0.2-6.3v-2
					c0-2.6,0.1-4.4,0.2-5.3S44.1,169,44.6,168.4z M48.5,170.4c-0.2-0.5-0.5-0.8-0.6-0.8c-0.2,0-0.4,0.4-0.7,1.3
					c-0.2,0.7-0.3,2-0.3,3.9c0,1.5,0.1,3.1,0.2,4.8c0.1,1.6,0.3,3.1,0.6,4.5c0.2,1.4,0.5,2.1,0.7,2.1c0.1,0,0.3-0.3,0.4-0.9
					c0.1-0.5,0.3-0.9,0.5-1.3c0.1-0.2,0.2-1.4,0.4-3.7c0.1-1.2,0.1-2.3,0.1-3.3C49.6,173.9,49.2,171.7,48.5,170.4z"/>
				<path class="st2" d="M58.7,167.1c0.3-0.2,0.8-0.4,1.3-0.4c0.6,0,1.1,0.1,1.5,0.5l0.5,0.5v5.1c0.1,6,0.2,10,0.6,12.3
					c0.1,0.5,0.2,0.7,0.2,0.7c0.3,0,0.5-0.9,0.6-2.6c0.4-3.6,0.6-7.1,0.6-10.6v-0.9v-0.6c0-1.9,0.2-3,0.7-3.3
					c0.1-0.1,0.4-0.2,0.8-0.2c0.8,0,1.3,0.1,1.6,0.4c0.5,0.4,0.7,1.5,0.7,3.4c0,1.5-0.1,4.4-0.4,8.6c-0.2,3.5-0.6,6-1.1,7.4
					c-0.5,1.5-1.4,2.4-2.7,2.8c-0.5,0.2-0.8,0.2-1,0.2s-0.6-0.2-1.4-0.5c-1.5-0.7-2.4-1.9-2.6-3.5c-0.2-1.4-0.3-5.9-0.5-13.5
					c0-1.1,0-2.3,0-3.6c0-0.9,0-1.4,0.1-1.7C58.4,167.4,58.6,167.2,58.7,167.1z"/>
				<path class="st2" d="M74.3,167.7c0.5-0.2,1.2-0.2,1.9-0.2c0.8,0,1.5,0.1,1.8,0.2c0.7,0.3,1.3,0.9,1.7,1.7
					c0.2,0.4,0.3,1.1,0.5,2.2c0.1,1.1,0.2,2,0.2,2.9c0,0.4,0,0.7,0,0.8c-0.1,0.7-0.3,1.5-0.6,2.3c-0.3,0.9-0.5,1.3-0.6,1.3
					c-0.2,0-0.3,0.2-0.3,0.5s0.1,0.6,0.3,0.9c0.4,0.6,1.1,1.8,1.9,3.6s1.3,2.8,1.3,3.3c0,0.1,0,0.3,0,0.6c0,0.4-0.1,0.7-0.3,1
					c-0.2,0.3-0.5,0.5-0.8,0.5s-0.5,0-0.8,0c-0.7-0.1-1.1-0.2-1.3-0.3s-0.3-0.3-0.3-0.7c0-0.6-0.3-1.4-0.9-2.6s-1-1.7-1.3-1.7l0,0
					c-0.1,0.1-0.1,0.4-0.1,0.9c0,0.8,0.1,1.8,0.2,2.8c0.1,0.5,0.1,0.8,0.1,0.9c0,1-0.2,1.5-0.6,1.8c-0.2,0.1-0.4,0.1-0.7,0.1
					c-0.9,0-1.5-0.2-1.7-0.6c-0.1-0.2-0.2-2.1-0.3-5.7c0-1.2-0.1-2.4-0.1-3.7c0-1.3,0-2.3,0-2.9s0-1.4-0.1-2.4s-0.2-2-0.3-3.2
					c-0.1-1.3-0.2-2.1-0.2-2.4c0-0.7,0.1-1.1,0.3-1.4C73.5,168,73.8,167.8,74.3,167.7z M77,170.8c-0.1-0.2-0.2-0.3-0.5-0.3
					c-0.2,0-0.3,0.1-0.4,0.3c-0.1,0.2-0.1,0.4,0,0.5c0,0,0.1,0.9,0.2,2.7c0.1,1.8,0.2,2.7,0.3,2.8c0.1,0.1,0.2-0.1,0.4-0.3
					c0.2-0.2,0.2-0.7,0.2-1.4c0-0.5,0-1,0-1.4C77.1,172,77.1,171.1,77,170.8z"/>
				<path class="st2" d="M96.6,167.9c0.2-0.1,0.6-0.2,1.1-0.2c0.9,0,1.9,0.2,2.9,0.7c1,0.4,1.7,0.9,2.1,1.5c0.5,0.7,0.7,1.4,0.7,2.2
					c0,1-0.3,2.2-0.9,3.7l-0.5,1.1l0.7,0.7c0.5,0.5,0.9,1.1,1.3,1.8c0.3,0.7,0.5,1.4,0.5,2s0,1.2,0,1.7c-0.1,1.2-0.1,2-0.2,2.4
					s-0.3,0.9-0.6,1.6c-0.7,1.3-1.3,2.2-1.8,2.7c-0.5,0.4-1.3,0.6-2.3,0.6c-1.1,0-1.8,0-2,0l0,0c-0.5,0-0.8-0.2-1.2-0.7
					c-0.4-0.5-0.6-1-0.7-1.7c0-0.1,0-0.4,0-0.9c0-0.8,0-1.6,0.1-2.4c0.2-1.4,0.2-4.9,0.2-10.7c0-3,0-4.5-0.1-4.7c0,0,0-0.1,0-0.2
					c0-0.2,0.1-0.5,0.3-0.8C96.3,168.2,96.5,168,96.6,167.9z M100.8,180.2c-0.1-0.2-0.4-0.3-0.7-0.3c-0.3,0-0.6,0.1-0.7,0.4
					c-0.2,0.3-0.2,1.8-0.2,4.5c0,1.3,0,2.1,0.1,2.1h0.1c0.1,0,0.3-0.2,0.6-0.6c0.3-0.4,0.5-0.9,0.7-1.5c0.3-0.7,0.4-1.7,0.4-2.9
					C101.1,181,101,180.4,100.8,180.2z M99.9,171.9c-0.1-0.2-0.2-0.4-0.4-0.4c-0.2,0-0.3,0.6-0.3,1.7c0,1,0,1.5,0.1,1.5l0,0
					c0.1-0.1,0.3-0.4,0.4-0.8s0.2-0.8,0.2-1c0-0.1,0-0.3,0-0.5C99.9,172.2,99.9,172,99.9,171.9z"/>
				<path class="st2" d="M110.8,168.4l0.8-1h5.2l0.8,0.8c0.5,0.5,0.9,1.2,1.1,2s0.4,2.1,0.6,3.8c0.1,0.6,0.1,1.6,0.1,2.8
					c0,2.9-0.3,5.5-0.8,7.8s-1.2,3.9-2.1,4.8c-0.3,0.3-0.7,0.5-1.2,0.7s-1,0.3-1.4,0.3c-0.2,0-0.3,0-0.4-0.1
					c-0.2-0.1-0.5-0.2-0.9-0.2c-0.3,0-0.6-0.2-1-0.7s-0.7-1-0.9-1.7c-0.4-1.1-0.7-2.3-0.8-3.6c-0.1-1.3-0.2-3.4-0.2-6.3v-2
					c0-2.6,0.1-4.4,0.2-5.3C110.1,169.7,110.4,169,110.8,168.4z M114.8,170.4c-0.2-0.5-0.5-0.8-0.6-0.8c-0.2,0-0.4,0.4-0.7,1.3
					c-0.2,0.7-0.3,2-0.3,3.9c0,1.5,0.1,3.1,0.2,4.8c0.1,1.6,0.3,3.1,0.6,4.5c0.2,1.4,0.5,2.1,0.7,2.1c0.1,0,0.3-0.3,0.4-0.9
					c0.1-0.5,0.3-0.9,0.5-1.3c0.1-0.2,0.2-1.4,0.4-3.7c0.1-1.2,0.1-2.3,0.1-3.3C115.8,173.9,115.5,171.7,114.8,170.4z"/>
				<path class="st2" d="M125.3,169.2c0.1,0,0.8,0,2.1,0c1.5,0,2.6,0.3,3.3,0.9s1.3,1.7,1.8,3.3c0.5,1.5,0.7,3.2,0.7,5.2
					c0,0.4,0,0.9-0.1,1.4c-0.1,0.4-0.2,1-0.3,1.9c-0.1,0.8-0.2,1.6-0.3,2.2c-0.1,0.7-0.2,1.1-0.4,1.4c-0.1,0.2-0.2,0.5-0.2,0.8
					c0,0.2-0.1,0.6-0.4,1.2c-0.3,0.6-0.5,1-0.7,1.3c-0.3,0.4-0.8,0.8-1.5,1.1s-1.3,0.5-1.9,0.6c-0.5,0.1-0.8,0.1-0.9,0.1
					c-0.3,0-0.7-0.2-1-0.5l-0.6-0.6v-7.1v-2.1c0-3.5,0-5.4-0.1-5.8c-0.2-1.1-0.2-2.1-0.2-2.9C124.5,170.1,124.8,169.3,125.3,169.2z
					 M129.2,174.3c-0.4-1.5-0.8-2.2-1.1-2.2l-0.1,0.1v0.1c0,0.1,0,0.1,0,0.3c0,0.1,0,0.2,0,0.4c0,0.4,0,1.2,0.1,2.4
					c0.1,1.4,0.1,3.4,0.2,5.8c0,2.3,0.1,3.5,0.3,3.5c0.1,0,0.1-0.2,0.3-0.6c0.5-1.8,0.8-3.7,0.8-5.7
					C129.7,176.8,129.6,175.4,129.2,174.3z"/>
				<path class="st2" d="M140.4,166.1c0.4-0.2,0.8-0.2,1.1-0.2c0.4,0,0.8,0.2,1.1,0.5c0.3,0.4,0.5,1.1,0.6,2.1
					c0.1,2,0.5,3.7,1.1,5.3c0.2,0.5,0.3,0.9,0.3,1.2c0,0.1,0,0.2,0.1,0.2c0,0.1,0.1,0.1,0.1,0c0.2-0.1,0.2-0.5,0.2-1.3
					s0-1.2,0.1-1.3c0.1-0.1,0.1-0.9,0.2-2.6s0.1-2.8,0.1-3.2c0-0.2,0.3-0.4,0.9-0.7c0.6-0.2,1.1-0.4,1.5-0.4c0.6,0,1.1,0.2,1.3,0.6
					c0.2,0.3,0.4,0.7,0.4,1s-0.1,1.8-0.4,4.4c-0.1,0.5-0.2,2-0.3,4.5c-0.1,1.9-0.5,4.1-1.2,6.7c-0.3,1.3-0.7,2.4-1,3.1
					c-0.4,0.7-0.9,1.4-1.5,2.1c-0.3,0.4-0.6,0.6-0.8,0.6s-0.3,0.2-0.5,0.5c-0.1,0.3-0.5,0.5-1,0.7s-1.1,0.3-1.7,0.3
					c-0.4,0-1-0.2-1.6-0.5s-0.9-0.6-0.9-0.8c0-0.3,0.2-0.7,0.5-1c0.3-0.4,0.7-0.7,1.2-0.9c0.8-0.4,1.5-0.9,2-1.6s1-1.7,1.4-3
					c0.5-1.5,0.7-2.4,0.7-2.8c0-0.3-0.2-0.6-0.7-0.7c-1.2-0.5-2-1.1-2.4-1.8c-0.2-0.4-0.6-2.2-1.3-5.4c-0.4-1.6-0.6-2.8-0.6-3.7
					C139.4,167.1,139.7,166.4,140.4,166.1z"/>
				<path class="st3" d="M248.1,163.7l-34.7,59.1"/>
				<path class="st3" d="M249.3,163.7l34.7,59.1"/>
				<path class="st3" d="M248.9,153.1v65.4"/>
				<path class="st2" d="M295.8,191.2H191.4c-3.7,0-6.4-4.2-5.7-8.6l10.1-65.9c0.5-3.4,2.9-5.9,5.7-5.9h104.4c3.7,0,6.4,4.2,5.7,8.6
					l-10.1,65.9C301,188.7,298.6,191.2,295.8,191.2z"/>
				<path class="st4" d="M290.9,185.6H186.4c-3.7,0-6.4-4.2-5.7-8.6l10.1-65.9c0.5-3.4,2.9-5.9,5.7-5.9h104.4c3.7,0,6.4,4.2,5.7,8.6
					l-10.1,65.9C296.1,183.1,293.7,185.6,290.9,185.6z"/>
				<path class="st2" d="M233.7,136.2c0.9-0.3,1.6-0.5,2.4-0.8c0.4-0.1,0.8-0.2,1.2-0.2c0.2,0,0.6,0.2,0.6,0.4
					c0.1,0.2-0.1,0.5-0.2,0.7s-0.4,0.3-0.6,0.4c-1.3,0.6-2.6,1.1-4,1.7c-0.9,0.4-1.5,0-1.4-1c0.1-1.9,0.2-3.8,0.3-5.8
					c0-0.2,0-0.4,0-0.5c0-0.6-0.2-0.8-0.8-0.5c-0.2,0.1-0.4,0.2-0.6,0.3c-0.6,0.2-1.3-0.1-1.5-0.6s0.1-1.2,0.6-1.5
					c1-0.5,2.1-0.9,3.1-1.3c0.5-0.2,1.1,0,1.3,0.4c0.2,0.5,0.3,1.1,0.3,1.6c-0.1,1-0.3,1.9-0.4,2.8
					C233.8,133.6,233.8,134.9,233.7,136.2z"/>
				<path class="st2" d="M241.8,130.3c0.9-0.3,1.7-0.6,2.6-0.8c0.4-0.1,0.9-0.2,1.3-0.2c0.2,0,0.6,0.2,0.7,0.4
					c0.1,0.2-0.1,0.6-0.2,0.8c-0.1,0.2-0.4,0.4-0.7,0.5c-1.4,0.6-2.9,1.2-4.3,1.8c-1,0.4-1.6-0.1-1.5-1.1c0.1-2.1,0.2-4.1,0.4-6.2
					c0-0.2,0-0.4,0-0.6c0-0.7-0.2-0.8-0.9-0.6c-0.2,0.1-0.5,0.2-0.7,0.3c-0.7,0.2-1.4-0.1-1.6-0.7s0.1-1.3,0.7-1.6
					c1.1-0.5,2.2-1,3.4-1.4c0.5-0.2,1.2,0,1.4,0.5s0.4,1.2,0.3,1.7c-0.1,1-0.4,2-0.5,3.1C242,127.4,241.9,128.8,241.8,130.3z"/>
				<path class="st2" d="M249.3,123.5c1.2-0.3,2.2-0.6,3.3-0.8c0.5-0.1,1.1-0.2,1.7-0.2c0.3,0,0.7,0.3,0.8,0.6
					c0.1,0.3-0.1,0.7-0.3,0.9c-0.2,0.2-0.5,0.4-0.9,0.5c-1.8,0.6-3.6,1.3-5.5,1.9c-1.2,0.4-2-0.2-1.9-1.5c0.3-2.6,0.6-5.1,0.9-7.7
					c0-0.2,0.1-0.5,0.1-0.7c0.1-0.9-0.2-1.1-1-0.8c-0.3,0.1-0.6,0.2-0.9,0.3c-0.9,0.2-1.7-0.2-1.9-1c-0.2-0.7,0.2-1.6,1-1.9
					c1.4-0.5,2.9-1,4.3-1.5c0.7-0.2,1.5,0,1.7,0.7s0.4,1.5,0.3,2.2c-0.2,1.3-0.6,2.5-0.8,3.8C249.7,120,249.5,121.7,249.3,123.5z"/>
				<path class="st5" d="M245.5,174.3c24,0,43.4-2.3,43.4-5.2c0-2.9-19.4-5.2-43.4-5.2s-43.4,2.3-43.4,5.2
					C202.2,172,221.6,174.3,245.5,174.3z"/>
				<path class="st6" d="M270.1,156.9h-37.9v-6.2c0-3,2.4-5.4,5.4-5.4h27.8c2.6,0,4.6,2.1,4.6,4.6v7H270.1z"/>
				<path class="st6" d="M229.1,155.8c3.2,0,5.8-2.6,5.8-5.8s-2.6-5.8-5.8-5.8s-5.8,2.6-5.8,5.8S225.9,155.8,229.1,155.8z"/>
				<path class="st7" d="M216.3,151.9v8.5h51.1v7.7c0,1,0.8,1.8,1.8,1.8h5c1,0,1.8-0.8,1.8-1.8v-13.5c0-1.5-1.2-2.7-2.7-2.7H216.3
					L216.3,151.9z"/>
				<path class="st7" d="M222.2,169.9h-4.9c-1,0-1.8-0.8-1.8-1.8v-29c0-1,0.8-1.8,1.8-1.8h4.9c1,0,1.8,0.8,1.8,1.8v29
					C224,169.1,223.2,169.9,222.2,169.9z"/>
				<path class="st2" d="M220.1,147.9l-54.9,31.5c-0.6,0.3-0.8,1-0.6,1.7l0.7,1.7c0.3,0.8,1.2,1,1.9,0.6l54.1-33.3
					c0.4-0.3,0.7-0.7,0.6-1.2C222,148,221,147.4,220.1,147.9z"/>
			</g>
		</g>
	</g>
</g>
</svg>
