<svg width="175" height="130" viewBox="0 0 175 130" fill="none" xmlns="http://www.w3.org/2000/svg">
<path d="M167.421 21.8937C167.421 21.8937 128.269 53.6036 98.2161 32.4167C98.2317 32.4167 118.699 5.60089 167.421 21.8937Z" fill="#00A878"/>
<path d="M135.445 6.65002C135.445 6.65002 129.254 34.4196 93.1655 37.8127C93.1655 37.8127 92.9622 25.6791 135.445 6.65002Z" fill="#3CDC82"/>
<path d="M0.756771 130.001H173.973C174.051 128.89 174.129 127.749 174.192 126.545C179.524 26.2085 84.6598 19.2348 46.8362 36.8253C27.0566 46.0193 -3.18351 72.1784 0.272057 124.372C0.381509 126.138 0.553502 128.015 0.756771 130.001Z" fill="#00CDDC"/>
<path d="M69.1644 86.6563C69.1644 89.8461 66.5845 83.7949 63.3791 83.7949C60.1893 83.7949 57.5938 89.8461 57.5938 86.6563C57.5938 83.4666 60.1737 80.871 63.3791 80.871C66.5845 80.871 69.1644 83.4666 69.1644 86.6563Z" fill="black"/>
<path d="M116.792 86.6553C116.792 89.8451 114.212 83.7939 111.006 83.7939C107.817 83.7939 105.221 89.8451 105.221 86.6553C105.221 83.4656 107.801 80.87 111.006 80.87C114.196 80.87 116.792 83.4656 116.792 86.6553Z" fill="black"/>
<path d="M98.4509 99.3977C98.4509 100.977 99.5297 109.921 86.8645 109.921C74.1994 109.921 75.2782 100.977 75.2782 99.3977C75.2782 97.8185 80.4694 99.1475 86.8645 99.1475C93.2597 99.1475 98.4509 97.8185 98.4509 99.3977Z" fill="black"/>
<path d="M87.7402 101.557H85.7544C85.1915 101.557 84.738 101.104 84.738 100.541V99.0867H88.7565V100.541C88.7565 101.104 88.3031 101.557 87.7402 101.557Z" fill="white"/>
<path d="M76.7795 15.8257C76.7795 15.8257 83.1747 17.5769 84.2067 24.9884C84.2067 24.9884 81.4391 24.8164 76.7795 15.8257Z" fill="#28C86E"/>
<path d="M92.1971 19.0931C92.1971 19.0931 92.5723 29.7726 82.1431 29.8195C82.1431 29.8195 82.6903 25.0036 92.1971 19.0931Z" fill="#28C86E"/>
<path d="M82.7835 37.2936C82.377 36.6682 79.8909 23.2994 89.3507 12.3541" stroke="#28C86E" stroke-width="1.2004" stroke-miterlimit="10" stroke-linecap="round"/>
<path d="M89.5384 7.60061C89.5384 7.60061 81.392 1.33055 78.7651 4.72358C76.1383 8.1166 88.0217 10.0711 89.5384 7.60061Z" fill="#FFCF8D"/>
<path d="M89.4446 7.50887C89.4446 7.50887 78.1866 7.3056 79.8284 11.2303C81.4702 15.1705 90.8987 10.1357 89.4446 7.50887Z" fill="#FFCF8D"/>
<path d="M91.2266 8.11682C91.2266 8.11682 80.8287 11.0877 84.1279 14.3712C87.4271 17.6548 93.744 10.2121 91.2266 8.11682Z" fill="#FFCF8D"/>
<path d="M92.103 7.52283C92.103 7.52283 88.6943 -2.73442 85.5515 0.705508C82.4087 4.14544 90.1173 10.134 92.103 7.52283Z" fill="#FFCF8D"/>
<path d="M91.3678 8.74364C91.3678 8.74364 102.11 7.61785 99.4359 3.80265C96.7621 -0.0125449 89.2413 6.24187 91.3678 8.74364Z" fill="#FFCF8D"/>
<path d="M92.0403 9.50826C92.0403 9.50826 96.1526 1.72151 92.5563 1.42442C88.96 1.12734 89.5229 9.55517 92.0403 9.50826Z" fill="#FFCF8D"/>
<path d="M92.0403 8.74318C92.0403 8.74318 101.359 4.39636 103.189 8.28973C105.018 12.1831 92.9784 11.4795 92.0403 8.74318Z" fill="#FFCF8D"/>
<path d="M91.9302 7.96057C91.9302 7.96057 102.969 10.2122 100.499 13.6834C98.0439 17.1702 89.9444 10.2122 91.9302 7.96057Z" fill="#FFCF8D"/>
<path d="M91.5241 7.43115C91.5241 7.43115 98.1226 15.9997 93.5099 16.6721C88.9129 17.36 88.2406 7.60315 91.5241 7.43115Z" fill="#FFCF8D"/>
<path d="M97.1693 8.92777C97.3226 7.5372 94.7192 6.10917 91.3543 5.73816C87.9895 5.36715 85.1375 6.19365 84.9842 7.58422C84.8308 8.97478 87.4343 10.4028 90.7991 10.7738C94.1639 11.1448 97.016 10.3183 97.1693 8.92777Z" fill="#FF9F1A"/>
<path d="M14.6257 50.8963C17.19 43.9695 135.57 33.509 150.769 42.9844L155.6 53.742L12.9526 64.3433C12.9526 64.3433 12.0613 57.8856 14.6257 50.8963Z" fill="#E14504"/>
<path d="M150.769 42.9846C150.675 42.9221 150.565 42.8752 150.472 42.8126C126.564 39.1069 32.8259 47.6285 13.9376 53.0699C12.9212 56.7131 12.7649 60.0279 12.8118 62.1075L154.928 52.2255L150.769 42.9846Z" fill="#F4F1EF"/>
<path d="M144.311 64.0642C144.311 64.0642 140.652 85.642 150.581 84.0627C155.006 83.3591 161.433 71.507 144.311 64.0642Z" fill="white"/>
</svg>
