<?xml version="1.0" encoding="utf-8"?>
<!-- Generator: Adobe Illustrator 25.1.0, SVG Export Plug-In . SVG Version: 6.00 Build 0)  -->
<svg version="1.1" id="Layer_1" xmlns="http://www.w3.org/2000/svg" xmlns:xlink="http://www.w3.org/1999/xlink" x="0px" y="0px"
	 viewBox="0 0 216 201" style="enable-background:new 0 0 216 201;" xml:space="preserve">
<style type="text/css">
	.st0{clip-path:url(#SVGID_2_);}
	.st1{fill:#28C86E;}
	.st2{fill:#32DCD2;}
	.st3{fill:#FFCF8D;}
	.st4{fill:#FF9F1A;}
	.st5{fill:#FFFFFF;}
	.st6{fill-rule:evenodd;clip-rule:evenodd;fill:#808080;}
	.st7{fill-rule:evenodd;clip-rule:evenodd;fill:#DCE3E5;}
</style>
<g>
	<g>
		<defs>
			<rect id="SVGID_1_" x="2" width="212" height="198"/>
		</defs>
		<clipPath id="SVGID_2_">
			<use xlink:href="#SVGID_1_"  style="overflow:visible;"/>
		</clipPath>
		<g class="st0">
			<path class="st1" d="M197.9,126.3c0,0-59.8,8.9-94.8-33.4C103.1,93,152.9,79.4,197.9,126.3z"/>
			<path class="st1" d="M167.3,96.1c0,0-20.3,11.9-73.6,2.7C93.7,98.8,113.5,68.1,167.3,96.1z"/>
			<path class="st2" d="M16.3,198h183.8c0.1-1.2,0.1-2.4,0.2-3.7c5.6-106.5-95-113.9-135.1-95.2c-21,9.7-53.1,37.5-49.4,92.9
				C15.9,193.9,16.1,195.9,16.3,198z"/>
			<path d="M87.6,145.1c0,3.6-2.9,5.3-6.6,5.3c-3.6,0-6.6-1.7-6.6-5.3c0-3.6,2.9-6.6,6.6-6.6C84.7,138.6,87.6,141.5,87.6,145.1z"/>
			<path d="M141.5,145.1c0,3.6-2.9,5.3-6.6,5.3c-3.6,0-6.6-1.7-6.6-5.3c0-3.6,2.9-6.6,6.6-6.6C138.6,138.6,141.5,141.5,141.5,145.1z
				"/>
			<path class="st1" d="M89.6,74.4c0,0-1.3,11,8.7,17.3C98.3,91.7,99.7,87.3,89.6,74.4z"/>
			<path class="st1" d="M104.8,101.9c-0.6,0-1.1-0.2-1.5-0.7c-0.9-0.9-1.7-2.1-2.7-3.4c-4.7-6.4-11.2-15.2-28.1-11.5
				c-1.1,0.3-2.2-0.5-2.4-1.6c-0.3-1.1,0.5-2.2,1.6-2.4c19.5-4.2,27.5,6.6,32.3,13.1c0.9,1.2,1.7,2.3,2.4,3c0.8,0.8,0.7,2.1-0.1,2.9
				C105.8,101.7,105.3,101.9,104.8,101.9z"/>
			<path class="st3" d="M67.2,82.3c0,0-9.2,12.7-2.8,12.5C70.8,94.5,71.7,81.7,67.2,82.3z"/>
			<path class="st3" d="M67.7,80.2c0,0,1.9,16,6.7,10.7C79.2,85.5,70.8,76.2,67.7,80.2z"/>
			<path class="st3" d="M71,80.1c0,0-15,0.1-12.6,6.1C60.9,92.3,73.1,84.1,71,80.1z"/>
			<path class="st3" d="M72,86.6c0,0,0.5-18.5-5.8-13C59.9,79.1,67.8,90.9,72,86.6z"/>
			<path class="st3" d="M68.5,81.4c0,0,2.6-13.1,7.9-9.7C81.7,75.1,71.9,84.1,68.5,81.4z"/>
			<path class="st3" d="M68.3,79.3c0,0,13.5-5.3,10.9,3.2C76.6,90.9,66.2,85,68.3,79.3z"/>
			<path class="st4" d="M72.3,83.5c1.8-3.2,1.7-6.7-0.2-7.8c-1.9-1.1-5,0.7-6.8,3.9c-1.8,3.2-1.7,6.7,0.2,7.8
				C67.5,88.5,70.5,86.7,72.3,83.5z"/>
			<path d="M110.2,168.6l-0.1,1.8c0,0.8-0.7,1.5-1.5,1.5H107c-0.8,0-1.5-0.7-1.5-1.5l0.1-1.7c-2.7,1.3-5.5,5-5.5,7.4
				c0,3,4.3,2.9,7.5,2.9c3.1,0,8.2,0,8.2-3C115.8,171.3,112.9,169.3,110.2,168.6z"/>
			<path class="st5" d="M107.1,172.9h1.6c0.8,0,1.5-0.7,1.5-1.5v-2.8c-1-0.3-2-0.4-2.7-0.4c-0.6,0-1.1,0.2-1.7,0.5l-0.1,2.7
				C105.6,172.2,106.3,172.9,107.1,172.9z"/>
			<path class="st6" d="M86.6,32l-10.7,4.5c-1.2,0.5-1.8,2-1.3,3.2l0.1,0.1c0.7,1.6,2.5,2.1,3.9,1.1L90.1,33L86.6,32z"/>
			<path class="st6" d="M84.9,27.2H73.3c-1.3,0-2.4,1.1-2.4,2.4v0.1c0,1.7,1.5,2.9,3.2,2.5l13.7-2.8L84.9,27.2z"/>
			<path class="st6" d="M117,26.5l11.7,0.1c1.3,0,2.4-1.1,2.4-2.4V24c0-1.7-1.5-2.9-3.1-2.5l-13.8,2.7L117,26.5z"/>
			<path class="st6" d="M112.5,33.5l9.5,6.7c1.1,0.8,2.6,0.5,3.4-0.6l0.1-0.1c1-1.4,0.5-3.2-1.1-3.9L111.5,30L112.5,33.5z"/>
			<path class="st6" d="M166.2,56.4L155.9,51c-1.2-0.6-2.7-0.2-3.2,1.1l-0.1,0.1c-0.8,1.6,0,3.2,1.6,3.7l13.5,3.9L166.2,56.4z"/>
			<path class="st6" d="M168.9,52.1l-7.4-9c-0.9-1-2.4-1.2-3.4-0.3l-0.1,0.1c-1.3,1.1-1.3,3,0.1,4l10.9,8.8L168.9,52.1z"/>
			<path class="st6" d="M189.8,76.5l7.3,9c0.9,1.1,2.4,1.2,3.4,0.3l0.1-0.1c1.3-1.1,1.3-2.9,0-4l-10.8-8.9L189.8,76.5z"/>
			<path class="st6" d="M181.5,77.5l0.8,11.6c0.1,1.3,1.3,2.3,2.6,2.2h0.1c1.7-0.2,2.8-1.7,2.3-3.3l-3.8-13.5L181.5,77.5z"/>
			<path class="st6" d="M15.8,84.5l-6.3,8.4c-0.7,1-0.5,2.3,0.5,3L10,96c1.3,0.9,2.9,0.5,3.5-0.9l5.4-11.4L15.8,84.5z"/>
			<path class="st6" d="M12.3,81.5l-9.1,5.3c-1.1,0.6-1.4,2-0.8,3l0.1,0.1c0.8,1.3,2.4,1.6,3.6,0.5l9.4-8.4L12.3,81.5z"/>
			<path class="st6" d="M37,66.4l9.1-5.2c1.1-0.6,1.4-2,0.8-3L46.8,58c-0.8-1.3-2.4-1.6-3.6-0.6l-9.5,8.4L37,66.4z"/>
			<path class="st6" d="M36.7,73.9l10.4,0.9c1.2,0.1,2.3-0.8,2.3-2v-0.1c0.1-1.6-1.1-2.7-2.6-2.5l-12.6,1.4L36.7,73.9z"/>
			<path class="st7" d="M17.5,87.2c-3,0.6-5-0.4-5.9-3.2c-4.8,5.1-12.7-2.2-7.9-6.8c-2.3-2.3-2.3-4.5,0.2-6.7
				c-1.2-3.3-0.8-5.7,3.2-6.4c-0.4-4.7,1.4-6.6,5.7-5.3c0.8-4.2,2.9-5.5,6.5-3.5c1.4-3.1,3.3-3.6,5.4-1.9l2.9-1.5
				c-0.6-0.6-1.1-1.2-1.4-1.9c-0.2,0.1-0.3,0.2-0.6,0.3c-1.8,0.6-3.5,0.3-4-0.9c-0.5-1.2,0.7-2.6,2.4-3.2c1-0.4,2-0.5,2.7-0.2
				c1.6-1.9,4.9-2.8,8.6-2.1c4.7,0.9,8.1,4,7.5,7c-0.4,2.5-3.5,4.2-7.2,4.2c2.9,2.4,2.4,4.4,0.7,6.2c2.5,0.8,2.9,2.2,1.6,4.2
				c3.1,0.2,2.6,4-0.2,6.1c0.7,1.2-2.9,6.6-4.4,6.6c0.6,2.5-1.1,4.4-3.9,3.1c-0.1,2.9-1.2,4.5-4.5,2.7L20.8,86L17.5,87.2z"/>
			<path class="st7" d="M86.7,35.6c-3.1-1.1-4.6-3.1-3.9-6.4c-7.4,2.2-11-9.2-3.8-10.9c-1-3.5,0.3-5.6,3.9-6.4
				c0.7-3.8,2.4-6,6.6-4.3c2.3-4.7,5-5.6,8.4-1.8c3.1-3.6,5.9-3.6,8.2,0.3c3.1-2.2,5.1-1.7,6.2,1.3l3.6,0.2
				c-0.3-0.9-0.4-1.8-0.3-2.6c-0.2,0-0.4,0-0.7-0.1c-2-0.4-3.5-1.7-3.3-3.1c0.2-1.4,2.1-2.1,4.1-1.8c1.2,0.1,2.2,0.7,2.7,1.3
				c2.6-0.9,6.3,0.1,9.4,2.7c4,3.4,5.5,8.3,3.3,10.9c-1.8,2.2-5.6,2.1-9.2,0c1.4,3.9-0.1,5.5-2.8,6.3c2,2.2,1.6,3.8-0.8,4.9
				c2.8,1.9,0.3,5.3-3.6,5.7c0,1.6-6.4,4.7-7.9,3.9c-0.8,2.7-3.5,3.6-5.5,0.8c-1.7,2.7-3.6,3.7-5.9,0.1l-5-0.6L86.7,35.6z"/>
			<path class="st7" d="M163.5,58.8c-1.1-3.2-0.5-5.6,2.5-7c-6.4-4.4,0.1-14.3,6-9.9c2.1-2.9,4.5-3.4,7.4-1c3.4-1.9,6.1-1.9,7.6,2.4
				c5.1-1.3,7.5,0.4,6.8,5.3c4.8,0.2,6.5,2.2,4.9,6.5c3.6,1,4.6,2.9,3,5.6l2.1,2.9c0.5-0.8,1.2-1.4,1.9-1.9
				c-0.1-0.2-0.3-0.3-0.4-0.6c-1-1.8-0.9-3.8,0.3-4.5c1.2-0.7,3,0.3,4,2.1c0.6,1,0.9,2.1,0.7,2.9c2.3,1.4,3.9,4.9,3.9,9
				c-0.1,5.3-2.9,9.6-6.3,9.5c-2.8,0.1-5.2-3.1-5.9-7.1c-2.1,3.6-4.3,3.4-6.7,1.8c-0.4,2.9-1.9,3.6-4.3,2.5c0.3,3.4-3.9,3.6-6.7,0.8
				c-1.2,1-7.7-2-8-3.6c-2.6,1.1-5-0.4-4.1-3.8c-3.2,0.4-5.1-0.5-3.8-4.5l-2.8-4.2L163.5,58.8z"/>
		</g>
	</g>
	<path class="st3" d="M213.2,201H2.8c-1.5,0-2.8-1.3-2.8-3s1.3-3,2.8-3h210.4c1.5,0,2.8,1.3,2.8,3S214.8,201,213.2,201z"/>
</g>
</svg>
