<svg width="184" height="130" viewBox="0 0 184 130" fill="none" xmlns="http://www.w3.org/2000/svg">
<path d="M30.273 129.984C28.4535 117.209 26.6147 101.337 27.0018 92.8392C18.5432 99.7106 4.83904 113.492 0 129.984H30.273Z" fill="#00CDDC"/>
<path d="M162.186 63.183C162.186 63.183 110.563 78.2421 74.561 45.2786C74.561 45.2786 116.816 27.2967 162.186 63.183Z" fill="#00A878"/>
<path d="M131.506 40.2295C131.506 40.2295 115.092 53.1594 66.9917 51.5335C66.9917 51.5335 80.7539 22.0734 131.506 40.2295Z" fill="#28C86E"/>
<path d="M176.547 129.979C176.392 126.844 176.121 123.379 175.676 119.411C164.798 25.1852 75.2953 36.7408 42.8544 59.0778C27.7373 69.4914 7.12299 91.3445 10.9362 129.999H176.547V129.979Z" fill="#32DCD2"/>
<path d="M64.7858 94.5224C64.8826 95.5482 62.2502 95.045 59.0758 95.5676C55.9014 96.0902 53.9464 97.058 53.2883 96.3805C52.6108 95.7031 54.74 90.6124 57.9144 90.0898C61.0888 89.5672 64.6891 93.4965 64.7858 94.5224Z" fill="black"/>
<path d="M112.17 86.8774C111.957 87.942 109.634 87.4 106.46 87.9227C103.285 88.4259 101.33 89.4131 100.672 88.7356C100.014 88.0581 102.124 82.9675 105.298 82.4449C108.473 81.9222 112.383 85.7935 112.17 86.8774Z" fill="black"/>
<path d="M80.3474 110.921C79.457 108.637 82.7089 107.321 88.206 108.212C93.7031 109.121 90.8191 115.064 86.8124 114.696C82.8056 114.328 81.2571 113.205 80.3474 110.921Z" fill="black"/>
<path d="M87.5664 112.098L85.8824 112.408C85.0501 112.563 84.2565 111.943 84.121 111.014L83.8694 107.937C85.4759 107.666 86.9857 108.033 88.5342 108.227L88.8246 110.124C88.96 111.072 88.3987 111.943 87.5664 112.098Z" fill="white"/>
<path d="M181.599 129.983C181.696 114.304 174.36 99.2065 168.534 90.7866C166.192 100.523 154.307 117.943 148.036 129.983H181.599Z" fill="#00CDDC"/>
<path d="M59.79 30.8443C59.79 30.8443 60.2933 40.6385 70.0295 44.7033C70.0488 44.7033 70.6101 40.6579 59.79 30.8443Z" fill="#28C86E"/>
<path d="M69.9522 50.1415C74.6363 44.7218 64.3776 34.734 45.8538 42.1668" stroke="#28C86E" stroke-width="1.8847" stroke-miterlimit="10" stroke-linecap="round"/>
<path d="M41.3037 41.1395C41.3037 41.1395 35.1291 53.6436 40.7424 52.5015C46.3557 51.3595 45.233 39.9781 41.3037 41.1395Z" fill="#FFCF8D"/>
<path d="M42.7953 38.8943C42.7953 38.8943 40.9177 53.0823 46.2213 49.5401C51.5249 45.998 46.3955 36.0876 42.7953 38.8943Z" fill="#FFCF8D"/>
<path d="M43.3171 38.2351C43.3171 38.2351 31.1808 43.829 35.381 47.797C39.562 51.7457 46.4915 40.6933 43.3171 38.2351Z" fill="#FFCF8D"/>
<path d="M46.1633 44.2355C46.1633 44.2355 43.8405 27.957 39.1564 33.6864C34.4722 39.4159 43.1244 48.5713 46.1633 44.2355Z" fill="#FFCF8D"/>
<path d="M42.3106 40.1908C42.3106 40.1908 41.8267 29.1578 46.8206 31.5193C51.7951 33.9001 45.6786 42.1458 42.3106 40.1908Z" fill="#FFCF8D"/>
<path d="M42.1166 37.0719C42.1166 37.0719 55.5304 35.5621 52.0463 41.098C48.5622 46.6532 39.368 40.827 42.1166 37.0719Z" fill="#FFCF8D"/>
<path d="M45.9909 41.4216C47.0935 38.319 46.4849 35.2698 44.6314 34.6111C42.7779 33.9523 40.3815 35.9335 39.2788 39.036C38.1761 42.1386 38.7848 45.1877 40.6383 45.8465C42.4917 46.5052 44.8882 44.5241 45.9909 41.4216Z" fill="#FF9F1A"/>
<path d="M144.59 35.5621C146.042 35.3492 147.377 35.1363 148.713 34.9814C149.39 34.904 150.107 34.846 150.765 34.9621C151.113 35.0202 151.616 35.4266 151.674 35.7557C151.732 36.0847 151.423 36.588 151.152 36.859C150.881 37.13 150.436 37.2848 150.029 37.3816C147.726 37.9236 145.403 38.4462 143.08 38.9301C141.512 39.2592 140.68 38.4268 141.009 36.859C141.687 33.7427 142.422 30.6457 143.158 27.5487C143.216 27.2583 143.313 26.968 143.371 26.6777C143.584 25.6131 143.313 25.3614 142.229 25.6324C141.841 25.7292 141.474 25.8453 141.087 25.8841C140.003 26.0002 139.054 25.3808 138.899 24.4517C138.725 23.5226 139.345 22.5161 140.351 22.2645C142.151 21.7999 143.971 21.4128 145.81 21.0257C146.661 20.8515 147.571 21.2773 147.745 22.1096C147.919 22.9806 147.977 23.9678 147.764 24.8388C147.397 26.368 146.7 27.8197 146.255 29.3295C145.655 31.3425 145.171 33.3749 144.59 35.5621Z" fill="#FF9F1A"/>
<path d="M159.591 28.2838C161.159 28.0708 162.591 27.8579 164.023 27.7224C164.759 27.645 165.514 27.5869 166.23 27.7224C166.617 27.7999 167.14 28.245 167.198 28.5935C167.256 28.9612 166.927 29.4838 166.617 29.7742C166.307 30.0645 165.823 30.2387 165.398 30.3355C162.901 30.8968 160.404 31.4388 157.907 31.9421C156.223 32.2711 155.313 31.3807 155.7 29.6968C156.455 26.3481 157.287 23.0382 158.1 19.709C158.178 19.3993 158.274 19.0896 158.333 18.7605C158.565 17.6185 158.274 17.3475 157.113 17.6185C156.707 17.7153 156.3 17.8314 155.874 17.8895C154.713 18.0056 153.706 17.3282 153.532 16.3217C153.358 15.3151 154.016 14.2506 155.119 13.9796C157.074 13.515 159.029 13.0892 161.004 12.7021C161.933 12.5085 162.901 12.9924 163.075 13.8828C163.249 14.8312 163.307 15.8958 163.075 16.8249C162.649 18.4702 161.913 20.0187 161.41 21.6446C160.771 23.7544 160.21 25.961 159.591 28.2838Z" fill="#FF9F1A"/>
<path d="M173.682 19.4754C175.656 19.3399 177.456 19.1657 179.276 19.0882C180.185 19.0495 181.153 19.0302 182.024 19.2431C182.489 19.3592 183.108 19.9593 183.166 20.4045C183.224 20.8496 182.76 21.4884 182.353 21.8368C181.947 22.1852 181.347 22.3594 180.785 22.4368C177.63 22.9401 174.475 23.4434 171.301 23.8692C169.172 24.1595 168.107 22.9788 168.707 20.8884C169.907 16.7655 171.204 12.6814 172.443 8.57785C172.559 8.19073 172.694 7.80361 172.811 7.41648C173.198 6.00348 172.849 5.65507 171.378 5.88735C170.856 5.96477 170.352 6.10026 169.83 6.11962C168.359 6.17769 167.159 5.24859 167.023 3.99044C166.888 2.71294 167.797 1.43543 169.191 1.1838C171.669 0.73861 174.146 0.370842 176.624 0.0224319C177.804 -0.132417 178.985 0.525692 179.14 1.64835C179.295 2.84843 179.276 4.18401 178.908 5.30666C178.25 7.3197 177.204 9.2166 176.469 11.2103C175.501 13.9201 174.649 16.6107 173.682 19.4754Z" fill="#FF9F1A"/>
</svg>
