<?xml version="1.0" encoding="utf-8"?>
<!-- Generator: Adobe Illustrator 25.1.0, SVG Export Plug-In . SVG Version: 6.00 Build 0)  -->
<svg version="1.1" id="Layer_1" xmlns="http://www.w3.org/2000/svg" xmlns:xlink="http://www.w3.org/1999/xlink" x="0px" y="0px"
	 viewBox="0 0 253 288" style="enable-background:new 0 0 253 288;" xml:space="preserve">
<style type="text/css">
	.st0{fill:#E9E2DE;}
	.st1{fill:#FFCF8D;}
	.st2{fill:#28C86E;}
	.st3{fill:#FF9F1A;}
	.st4{fill:#FFFFFF;}
	.st5{fill:#00CDDC;}
</style>
<g>
	<path class="st0" d="M126.5,288c50.5,0,91.5-6.3,91.5-14s-41-14-91.5-14S35,266.3,35,274S75.9,288,126.5,288z"/>
	<g>
		<path class="st1" d="M14.5,232.5c-0.9,0-1.7-0.4-2.3-1.1c-1-1.3-0.8-3.1,0.5-4l20.4-15.8c1.3-1,3.1-0.8,4.1,0.5
			c1,1.3,0.8,3.1-0.5,4l-20.4,15.8C15.8,232.3,15.2,232.5,14.5,232.5z"/>
		<path class="st1" d="M244.3,230.1c-0.6,0-1.2-0.2-1.8-0.6l-18.8-14.7c-1.2-1-1.5-2.8-0.5-4c1-1.2,2.8-1.5,4.1-0.5l18.8,14.7
			c1.2,1,1.5,2.8,0.5,4C246.1,229.7,245.2,230.1,244.3,230.1z"/>
		<path class="st1" d="M224,31.7c-0.9,0-1.7-0.4-2.3-1.1c-1-1.3-0.8-3.1,0.5-4l20.4-15.8c1.3-1,3.1-0.8,4.1,0.5c1,1.3,0.8,3.1-0.5,4
			l-20.4,15.8C225.2,31.5,224.6,31.7,224,31.7z"/>
		<path class="st1" d="M33.3,33.1c-0.6,0-1.3-0.2-1.8-0.6L12.7,17.8c-1.3-1-1.5-2.8-0.5-4c1-1.2,2.8-1.5,4.1-0.5L35.1,28
			c1.3,1,1.5,2.8,0.5,4C35,32.7,34.2,33.1,33.3,33.1z"/>
		<path class="st2" d="M202.7,163.2c0,0,9.1,8.2,4.6,21.3C207.3,184.6,202.9,182,202.7,163.2z"/>
		<path class="st2" d="M227.4,183.1c0,0-8.4,17.9-25.7,9.2C201.7,192.4,206.7,184.9,227.4,183.1z"/>
		<path class="st2" d="M196.5,207c-0.9,0-1.7-0.8-1.7-1.6c-0.2-1.8,6.9-26.8,33-37.4c0.9-0.4,1.9,0.1,2.3,1s-0.1,1.9-1,2.3
			c-23.1,9.4-30.6,31.2-30.8,34c0.1,1-0.6,1.7-1.5,1.8C196.6,207,196.6,207,196.5,207z"/>
		<path class="st1" d="M234.8,161.9c0,0-2.8-18.8-10.7-17.7C216.2,145.4,229.6,163.3,234.8,161.9z"/>
		<path class="st1" d="M234.8,161.7c0,0-14.8-14.7-17.7-7.4C214.2,161.6,233.3,167,234.8,161.7z"/>
		<path class="st1" d="M236.4,164.8c0,0-17.7-9.4-17.6-0.8C219,172.6,237,170.8,236.4,164.8z"/>
		<path class="st1" d="M238.3,165.1c0,0,8.7-18,0.1-17.5C229.7,148.2,232.3,166.1,238.3,165.1z"/>
		<path class="st1" d="M235.7,165.8c0,0,15.8,12.3,17.2,3.8C254.3,161.1,236.1,159.8,235.7,165.8z"/>
		<path class="st1" d="M235.7,167.7c0,0,15.6-5.1,11.1-10.1C242.4,152.6,232.2,164.5,235.7,167.7z"/>
		<path class="st1" d="M236.7,166.7c0,0,18.1,6.2,15.5,13.7C249.6,187.9,234.4,171.5,236.7,166.7z"/>
		<path class="st1" d="M237.5,165.5c0,0,11.9,17.2,4.1,18.6C233.8,185.6,232,165.9,237.5,165.5z"/>
		<path class="st1" d="M237.7,164.3c0,0-2.2,19.9-9.3,14.9C221.3,174.1,233,160.3,237.7,164.3z"/>
		<path class="st3" d="M243.3,173.5c2-1.7,0.4-6.9-3.7-11.7c-4-4.8-8.9-7.4-10.9-5.7c-2,1.7-0.4,6.9,3.7,11.7
			C236.4,172.6,241.3,175.2,243.3,173.5z"/>
		<path class="st2" d="M50.2,71.9c0,0-9.1,8.2-4.6,21.3C45.6,93.2,50.1,90.6,50.2,71.9z"/>
		<path class="st2" d="M25.5,91.8c0,0,8.4,17.9,25.7,9.2C51.2,101.1,46.3,93.6,25.5,91.8z"/>
		<path class="st2" d="M56.5,115.6c-0.1,0-0.1,0-0.2,0c-0.9-0.1-1.6-0.9-1.5-1.8c-0.3-2.9-7.9-24.6-30.8-33.9
			c-0.9-0.4-1.3-1.4-1-2.3c0.4-0.9,1.4-1.3,2.3-1c26,10.6,33.2,35.6,33,37.4C58.1,115,57.4,115.6,56.5,115.6z"/>
		<path class="st1" d="M18.2,70.6c0,0,2.8-18.8,10.7-17.7C36.8,54.1,23.4,72,18.2,70.6z"/>
		<path class="st1" d="M18.2,70.4c0,0,14.8-14.7,17.7-7.4C38.7,70.3,19.6,75.7,18.2,70.4z"/>
		<path class="st1" d="M16.6,73.5c0,0,17.7-9.4,17.6-0.8C34,81.3,15.9,79.5,16.6,73.5z"/>
		<path class="st1" d="M14.7,73.8c0,0-8.7-18-0.1-17.5C23.2,56.9,20.7,74.7,14.7,73.8z"/>
		<path class="st1" d="M17.2,74.5c0,0-15.8,12.3-17.2,3.8C-1.2,69.8,16.8,68.4,17.2,74.5z"/>
		<path class="st1" d="M17.3,76.4c0,0-15.6-5.1-11.1-10.1C10.6,61.3,20.7,73.2,17.3,76.4z"/>
		<path class="st1" d="M16.3,75.4c0,0-18.1,6.2-15.5,13.7C3.4,96.6,18.6,80.2,16.3,75.4z"/>
		<path class="st1" d="M15.4,74.2c0,0-11.9,17.2-4.1,18.6C19.2,94.3,21,74.6,15.4,74.2z"/>
		<path class="st1" d="M15.3,73c0,0,2.2,19.9,9.3,14.9C31.6,82.8,19.9,69,15.3,73z"/>
		<path class="st3" d="M20.6,76.4c4-4.8,5.7-10.1,3.7-11.7c-2-1.7-6.9,0.9-10.9,5.7c-4,4.8-5.7,10.1-3.7,11.7
			C11.7,83.8,16.6,81.3,20.6,76.4z"/>
		<path class="st4" d="M213.1,27.9v201.9c0,2.9-2.4,5.2-5.2,5.2H50.6c-2.9,0-5.2-2.3-5.2-5.2V27.9c0-2.9,2.4-5.2,5.2-5.2h157.3
			C210.7,22.7,213.1,25.1,213.1,27.9z"/>
		<path class="st4" d="M204.5,63.4c-0.8,0-1.5-0.6-1.5-1.4V42.7c0-2.1-1.7-3.8-3.8-3.8h-10.6c-0.8,0-1.5-0.6-1.5-1.4
			c0-0.8,0.6-1.4,1.5-1.4h10.6c3.7,0,6.7,3,6.7,6.6v19.2C205.9,62.7,205.3,63.4,204.5,63.4z"/>
		<path class="st5" d="M164.7,11.7h-16.4c-1.6,0-2.9-1.3-2.9-2.9V3.6c0-2-1.6-3.6-3.6-3.6h-12.5h-0.1h-12.5c-2,0-3.6,1.6-3.6,3.6
			v5.3c0,1.6-1.3,2.9-2.9,2.9H93.7c-2,0-3.6,1.6-3.6,3.6v13.3c0,2,1.6,3.6,3.6,3.6h35.4h0.1h35.4c2,0,3.6-1.6,3.6-3.6V15.3
			C168.2,13.3,166.6,11.7,164.7,11.7z"/>
		<path class="st5" d="M106,83.4c-1.6,0.1-2.8,1.4-2.8,3c0.1,1.6,1.4,2.8,3.1,2.7h76.6c1.6,0,2.9-1.2,2.9-2.9c0-1.6-1.2-2.9-2.9-2.9
			c0,0-0.1,0-0.1,0h-76.6C106.2,83.4,106.1,83.4,106,83.4z"/>
		<path class="st5" d="M93.3,78.9v14.8c0,1.5-1.2,2.8-2.8,2.8H75.6c-1.5,0-2.8-1.2-2.8-2.8V78.9c0-1.5,1.2-2.8,2.8-2.8h14.9
			C92,76.1,93.3,77.4,93.3,78.9z"/>
		<path class="st5" d="M106,111.3c-1.6,0.1-2.8,1.4-2.8,3c0.1,1.6,1.4,2.8,3.1,2.7h76.6c1.6,0,2.9-1.2,2.9-2.9
			c0-1.6-1.2-2.9-2.9-2.9c0,0-0.1,0-0.1,0h-76.6C106.2,111.3,106.1,111.3,106,111.3z"/>
		<path class="st5" d="M93.3,106.8v14.8c0,1.5-1.2,2.8-2.8,2.8H75.6c-1.5,0-2.8-1.2-2.8-2.8v-14.8c0-1.5,1.2-2.8,2.8-2.8h14.9
			C92,104.1,93.3,105.3,93.3,106.8z"/>
		<path class="st5" d="M106,140.6c-1.6,0.1-2.8,1.4-2.8,3c0.1,1.6,1.4,2.8,3.1,2.7h76.6c1.6,0,2.9-1.2,2.9-2.9
			c0-1.6-1.2-2.9-2.9-2.9c0,0-0.1,0-0.1,0h-76.6C106.2,140.6,106.1,140.6,106,140.6z"/>
		<path class="st5" d="M93.3,136.1v14.8c0,1.5-1.2,2.8-2.8,2.8H75.6c-1.5,0-2.8-1.2-2.8-2.8v-14.8c0-1.5,1.2-2.8,2.8-2.8h14.9
			C92,133.3,93.3,134.6,93.3,136.1z"/>
		<path class="st5" d="M106,168.5c-1.6,0.1-2.8,1.4-2.8,3c0.1,1.6,1.4,2.8,3.1,2.7h76.6c1.6,0,2.9-1.2,2.9-2.9
			c0-1.6-1.2-2.9-2.9-2.9c0,0-0.1,0-0.1,0h-76.6C106.2,168.5,106.1,168.5,106,168.5z"/>
		<path class="st5" d="M93.3,164v14.8c0,1.5-1.2,2.8-2.8,2.8H75.6c-1.5,0-2.8-1.2-2.8-2.8V164c0-1.5,1.2-2.8,2.8-2.8h14.9
			C92,161.2,93.3,162.5,93.3,164z"/>
		<path class="st4" d="M164.2,24.7c-0.5,0-0.8-0.4-0.8-0.8v-6c0-1.2-1-2.2-2.2-2.2h-6.8c-0.5,0-0.8-0.4-0.8-0.8
			c0-0.5,0.4-0.8,0.8-0.8h6.8c2.1,0,3.9,1.7,3.9,3.8v6C165,24.3,164.7,24.7,164.2,24.7z"/>
	</g>
</g>
</svg>
