<svg width="206" height="198" viewBox="0 0 206 198" fill="none" xmlns="http://www.w3.org/2000/svg">
<path d="M32.2461 0L58.2523 89.1057L112.513 67.5701L94.1194 0H32.2461Z" fill="#FFCF8D"/>
<path d="M116.727 0L96.5195 67.1614L149.681 80.9564L175.483 0H116.727Z" fill="#FFC069"/>
<path d="M46.4749 68.4138C46.4749 68.4138 50.2302 78.4791 40.9058 83.3329C41.0591 83.1285 38.1212 77.6361 46.4749 68.4138Z" fill="#28C86E"/>
<path d="M25.2207 80.0369C25.2207 80.0369 32.6547 89.3102 42.0302 86.9088C42.0047 86.9088 38.8369 80.5478 25.2207 80.0369Z" fill="#28C86E"/>
<path d="M47.0116 106.605C46.7306 106.605 46.4496 106.554 46.1941 106.426C45.1978 105.992 44.7635 104.842 45.1467 103.846C45.8365 101.138 44.8657 84.1241 23.5856 66.1905C22.7426 65.4752 22.6148 64.1979 23.3557 63.3549C24.071 62.5119 25.3483 62.3841 26.1913 63.125C50.818 83.8941 49.8728 103.233 48.8765 105.43C48.5188 106.145 47.778 106.605 47.0116 106.605Z" fill="#28C86E"/>
<path d="M20.1875 56.7128C20.1875 56.7128 27.4427 40.542 34.2124 43.5564C40.9822 46.5709 24.5048 59.2419 20.1875 56.7128Z" fill="#FFCF8D"/>
<path d="M20.2639 56.4826C20.2639 56.4826 37.2011 46.9793 37.9164 54.2856C38.6317 61.5919 20.1873 61.6685 20.2639 56.4826Z" fill="#FFCF8D"/>
<path d="M18.0413 58.8598C18.0413 58.8598 36.2558 54.8745 33.9311 62.564C31.6064 70.2534 15.9209 64.1223 18.0413 58.8598Z" fill="#FFCF8D"/>
<path d="M16.2281 58.6803C16.2281 58.6803 13.0348 40.3125 20.5965 42.9693C28.1582 45.6261 21.3884 61.0306 16.2281 58.6803Z" fill="#FFCF8D"/>
<path d="M18.3487 59.9576C18.3487 59.9576 1.10487 67.0339 2.07563 59.0634C3.0464 51.093 19.5493 54.414 18.3487 59.9576Z" fill="#FFCF8D"/>
<path d="M17.9394 61.669C17.9394 61.669 5.34503 53.2132 10.5565 49.8155C15.7679 46.4179 21.8224 59.6764 17.9394 61.669Z" fill="#FFCF8D"/>
<path d="M17.301 60.4941C17.301 60.4941 -0.377054 61.516 0.00614087 68.8989C0.389336 76.2818 18.1441 65.4246 17.301 60.4941Z" fill="#FFCF8D"/>
<path d="M16.8414 59.2417C16.8414 59.2417 1.92229 71.6828 8.4877 74.9527C15.0787 78.1971 21.7207 61.0044 16.8414 59.2417Z" fill="#FFCF8D"/>
<path d="M17.0453 58.0674C17.0453 58.0674 14.0053 76.4608 21.567 73.7273C29.1032 71.0194 22.1546 55.666 17.0453 58.0674Z" fill="#FFCF8D"/>
<path d="M20.9022 62.5509C25.7124 59.2372 28.5022 54.9404 27.1335 52.9536C25.7648 50.9668 20.7559 52.0424 15.9458 55.3561C11.1357 58.6697 8.34586 62.9666 9.71454 64.9534C11.0832 66.9401 16.0921 65.8645 20.9022 62.5509Z" fill="#FF9F1A"/>
<path d="M158.726 68.4138C158.726 68.4138 154.971 78.4791 164.295 83.3329C164.142 83.1285 167.08 77.6361 158.726 68.4138Z" fill="#28C86E"/>
<path d="M179.981 80.0371C179.981 80.0371 172.547 89.3104 163.172 86.9091C163.197 86.9091 166.365 80.548 179.981 80.0371Z" fill="#28C86E"/>
<path d="M158.267 106.656C157.475 106.656 156.708 106.171 156.351 105.404C155.354 103.207 154.409 83.8432 179.036 63.0996C179.879 62.3843 181.156 62.4865 181.871 63.3295C182.587 64.1725 182.485 65.4498 181.642 66.1651C160.285 84.1753 159.391 101.24 160.08 103.872C160.54 104.893 160.055 106.017 159.033 106.477C158.803 106.605 158.522 106.656 158.267 106.656Z" fill="#28C86E"/>
<path d="M185.013 56.7128C185.013 56.7128 177.758 40.542 170.989 43.5564C164.219 46.5709 180.696 59.2419 185.013 56.7128Z" fill="#FFCF8D"/>
<path d="M184.937 56.4826C184.937 56.4826 168 46.9793 167.285 54.2856C166.595 61.6174 185.014 61.6685 184.937 56.4826Z" fill="#FFCF8D"/>
<path d="M187.16 58.8598C187.16 58.8598 168.946 54.8745 171.27 62.564C173.595 70.2534 189.281 64.1223 187.16 58.8598Z" fill="#FFCF8D"/>
<path d="M188.974 58.6803C188.974 58.6803 192.167 40.3125 184.606 42.9693C177.044 45.6261 183.814 61.0306 188.974 58.6803Z" fill="#FFCF8D"/>
<path d="M186.853 59.9571C186.853 59.9571 204.097 67.0334 203.126 59.063C202.181 51.067 185.653 54.4135 186.853 59.9571Z" fill="#FFCF8D"/>
<path d="M187.262 61.669C187.262 61.669 199.856 53.2132 194.645 49.8155C189.434 46.4179 183.379 59.6764 187.262 61.669Z" fill="#FFCF8D"/>
<path d="M187.9 60.4941C187.9 60.4941 205.578 61.516 205.195 68.8989C204.812 76.2818 187.057 65.4246 187.9 60.4941Z" fill="#FFCF8D"/>
<path d="M188.361 59.2417C188.361 59.2417 203.28 71.6828 196.715 74.9527C190.124 78.1971 183.482 61.0044 188.361 59.2417Z" fill="#FFCF8D"/>
<path d="M188.156 58.0674C188.156 58.0674 191.196 76.4608 183.635 73.7273C176.099 71.0194 183.047 55.666 188.156 58.0674Z" fill="#FFCF8D"/>
<path d="M195.507 64.9473C196.875 62.9605 194.085 58.6636 189.275 55.35C184.465 52.0364 179.456 50.9607 178.088 52.9475C176.719 54.9343 179.509 59.2312 184.319 62.5448C189.129 65.8584 194.138 66.9341 195.507 64.9473Z" fill="#FF9F1A"/>
<path d="M169.94 137.925C172.239 135.115 175.049 131.539 175.049 126.94C175.049 122.342 172.239 118.766 169.94 115.955C168.918 114.678 167.641 113.145 167.385 112.124C167.13 111.102 167.641 109.058 168.152 107.525C168.918 103.949 169.94 99.6058 167.896 95.5184C165.853 91.431 161.765 89.3873 158.7 87.8545C157.167 87.0881 155.379 86.3217 154.612 85.5553C154.101 84.7889 153.59 82.7452 153.08 81.2124C152.313 77.6359 151.291 73.2931 147.715 70.483C144.138 67.6729 139.795 67.6729 136.219 67.6729C134.431 67.6729 132.387 67.6729 131.621 67.1619C130.854 66.9065 129.577 65.1182 128.555 63.8409C126.256 61.0308 123.446 57.4543 119.103 56.4325C118.336 56.177 117.57 56.177 116.548 56.177C113.227 56.177 110.162 57.7098 107.352 58.9871C105.819 59.7535 103.775 60.7753 102.753 60.7753C101.731 60.7753 99.9431 59.7535 98.1549 58.9871C95.6002 57.7098 92.5347 56.177 88.9582 56.177C88.1918 56.177 87.1699 56.177 86.4035 56.4325C81.8052 57.4543 78.9951 61.0308 76.9514 63.8409C75.9295 65.1182 74.6522 66.9065 73.8858 67.1619C73.1194 67.6729 70.8203 67.6729 69.2875 67.6729C65.711 67.6729 61.1127 67.6729 57.7916 70.483C54.2151 73.2931 53.1933 77.6359 52.4269 81.2124C52.1714 82.7452 51.6605 85.0444 50.8941 85.5553C50.3832 86.3217 48.3395 87.0881 46.8067 87.8545C43.4857 89.3873 39.3983 91.431 37.61 95.5184C35.5663 99.6058 36.5882 103.949 37.3545 107.525C37.8655 109.313 38.1209 111.357 38.1209 112.124C37.8655 112.89 36.5882 114.678 35.5663 115.955C33.2671 118.766 30.457 122.342 30.457 126.94C30.457 131.539 33.2671 135.115 35.5663 137.925C36.5882 139.203 37.8655 140.735 38.1209 141.757C38.3764 142.779 37.8655 144.823 37.3545 146.356C36.5882 149.932 35.5663 154.275 37.61 158.362C39.6537 162.45 43.7411 164.494 46.8067 166.026C48.3395 166.793 50.1277 167.559 50.8941 168.325C51.405 169.092 51.916 171.136 52.4269 172.668C53.1933 176.245 54.2151 180.588 57.7916 183.398C61.3681 186.208 65.711 186.208 69.2875 186.208C71.0757 186.208 73.1194 186.208 73.8858 186.719C74.6522 186.974 75.9295 188.763 76.9514 190.04C79.2506 192.85 82.0607 196.426 86.4035 197.448C87.1699 197.704 87.9363 197.704 88.9582 197.704C92.2792 197.704 95.3448 196.171 98.1549 194.894C99.6876 194.127 101.731 193.105 102.753 193.105C103.775 193.105 105.563 194.127 107.352 194.894C109.906 196.171 112.972 197.704 116.548 197.704C117.315 197.704 118.336 197.704 119.103 197.448C123.701 196.426 126.511 192.85 128.555 190.04C129.577 188.763 130.854 186.974 131.621 186.719C132.387 186.208 134.686 186.208 136.219 186.208C139.795 186.208 144.394 186.208 147.715 183.398C151.291 180.588 152.313 176.245 153.08 172.668C153.335 171.136 153.846 168.836 154.612 168.325C155.123 167.559 157.167 166.793 158.7 166.026C162.021 164.494 166.108 162.45 167.896 158.362C169.94 154.275 168.918 149.932 168.152 146.356C167.641 144.567 167.385 142.524 167.385 141.757C167.641 140.991 168.918 139.203 169.94 137.925ZM102.753 171.391C78.2287 171.391 58.3026 151.465 58.3026 126.94C58.3026 102.416 78.2287 82.4897 102.753 82.4897C127.278 82.4897 147.204 102.416 147.204 126.94C147.204 151.465 127.278 171.391 102.753 171.391Z" fill="#FF9F1A"/>
<path d="M105.768 98.6609L112.41 112.149C112.896 113.146 113.841 113.835 114.939 113.989L129.833 116.16C132.592 116.569 133.69 119.941 131.698 121.882L120.917 132.382C120.125 133.148 119.767 134.272 119.946 135.345L122.501 150.162C122.961 152.896 120.1 154.991 117.622 153.713L104.312 146.714C103.341 146.203 102.166 146.203 101.195 146.714L87.8856 153.713C85.4332 155.016 82.5465 152.921 83.0063 150.162L85.5609 135.345C85.7397 134.247 85.3821 133.148 84.5902 132.382L73.8096 121.882C71.817 119.941 72.9155 116.543 75.6745 116.16L90.568 113.989C91.6665 113.835 92.6117 113.146 93.0971 112.149L99.7647 98.6609C100.965 96.1573 104.516 96.1573 105.768 98.6609Z" fill="#FFCF8D"/>
</svg>
