<?xml version="1.0" encoding="utf-8"?>
<!-- Generator: Adobe Illustrator 25.1.0, SVG Export Plug-In . SVG Version: 6.00 Build 0)  -->
<svg version="1.1" id="Layer_1" xmlns="http://www.w3.org/2000/svg" xmlns:xlink="http://www.w3.org/1999/xlink" x="0px" y="0px"
	 viewBox="0 0 299 249" style="enable-background:new 0 0 299 249;" xml:space="preserve">
<style type="text/css">
	.st0{fill:#28C86E;}
	.st1{fill:#FFCF8D;}
	.st2{fill:#FF9F1A;}
	.st3{fill:#80E6ED;}
	.st4{fill:#CCF6F4;}
	.st5{fill:#00CDDC;}
	.st6{fill:#FFFFFF;}
	.st7{fill:#40D9E5;}
	.st8{fill:#DCE3E5;}
	.st9{fill:#E9E2DE;}
</style>
<g>
	<g>
		<g>
			<g>
				<g>
					<path class="st0" d="M261.3,103.7c0,0,6.8,6.2,3.4,16.1C264.8,119.8,261.4,117.8,261.3,103.7z"/>
					<path class="st0" d="M279.8,118.7c0,0-6.3,13.5-19.3,7C260.6,125.7,264.3,120,279.8,118.7z"/>
					<path class="st0" d="M256.7,136.7c-0.7,0-1.2-0.6-1.3-1.2c-0.2-1.4,5.2-20.2,24.7-28.2c0.7-0.3,1.4,0,1.7,0.7
						c0.3,0.7,0,1.4-0.7,1.7c-17.3,7.1-22.9,23.5-23.1,25.6c0.1,0.7-0.4,1.3-1.2,1.4C256.7,136.7,256.7,136.7,256.7,136.7z"/>
					<path class="st1" d="M285.4,102.8c0,0-2.1-14.2-8-13.3C271.4,90.3,281.4,103.8,285.4,102.8z"/>
					<path class="st1" d="M285.3,102.6c0,0-11.1-11.1-13.2-5.6C269.9,102.5,284.3,106.6,285.3,102.6z"/>
					<path class="st1" d="M286.5,104.9c0,0-13.3-7.1-13.2-0.6C273.5,110.8,287,109.5,286.5,104.9z"/>
					<path class="st1" d="M288,105.2c0,0,6.5-13.6,0-13.2C281.5,92.4,283.5,105.9,288,105.2z"/>
					<path class="st1" d="M286.1,105.7c0,0,11.9,9.3,12.9,2.9C299.9,102.1,286.4,101.1,286.1,105.7z"/>
					<path class="st1" d="M286,107.1c0,0,11.7-3.8,8.3-7.6C291,95.7,283.4,104.7,286,107.1z"/>
					<path class="st1" d="M286.8,106.3c0,0,13.5,4.7,11.6,10.3C296.5,122.3,285,110,286.8,106.3z"/>
					<path class="st1" d="M287.4,105.5c0,0,8.9,12.9,3.1,14C284.6,120.6,283.2,105.8,287.4,105.5z"/>
					<path class="st1" d="M287.5,104.5c0,0-1.7,15-7,11.2C275.3,111.9,284,101.5,287.5,104.5z"/>
					<path class="st2" d="M291.7,111.5c1.5-1.2,0.3-5.2-2.7-8.8c-3-3.6-6.7-5.6-8.2-4.3c-1.5,1.2-0.3,5.2,2.7,8.8
						C286.5,110.8,290.2,112.7,291.7,111.5z"/>
					<path class="st0" d="M37.7,38.9c0,0-6.8,6.2-3.4,16.1C34.2,54.9,37.5,53,37.7,38.9z"/>
					<path class="st0" d="M19.2,53.8c0,0,6.3,13.5,19.3,7C38.4,60.8,34.7,55.2,19.2,53.8z"/>
					<path class="st0" d="M42.3,71.8c0,0-0.1,0-0.2,0c-0.7-0.1-1.2-0.7-1.2-1.3c-0.2-2.2-5.9-18.6-23.1-25.6c-0.7-0.3-1-1-0.7-1.7
						c0.3-0.7,1-1,1.7-0.7c19.5,7.9,24.9,26.8,24.7,28.2C43.6,71.3,43,71.8,42.3,71.8z"/>
					<path class="st1" d="M13.6,37.9c0,0,2.1-14.2,8-13.3C27.6,25.4,17.6,38.9,13.6,37.9z"/>
					<path class="st1" d="M13.6,37.7c0,0,11.1-11.1,13.3-5.6C29.1,37.7,14.7,41.7,13.6,37.7z"/>
					<path class="st1" d="M12.4,40c0,0,13.3-7.1,13.2-0.6C25.5,45.9,11.9,44.6,12.4,40z"/>
					<path class="st1" d="M11,40.3c0,0-6.5-13.6,0-13.2S15.5,41,11,40.3z"/>
					<path class="st1" d="M12.9,40.8c0,0-11.9,9.3-12.9,2.9C-0.9,37.3,12.6,36.3,12.9,40.8z"/>
					<path class="st1" d="M13,42.2c0,0-11.7-3.8-8.3-7.6C8,30.9,15.6,39.8,13,42.2z"/>
					<path class="st1" d="M12.2,41.5c0,0-13.5,4.7-11.6,10.3C2.5,57.4,14,45.1,12.2,41.5z"/>
					<path class="st1" d="M11.6,40.6c0,0-8.9,12.9-3.1,14C14.4,55.7,15.8,40.9,11.6,40.6z"/>
					<path class="st1" d="M11.5,39.7c0,0,1.7,15,7,11.2C23.7,47.1,15,36.7,11.5,39.7z"/>
					<path class="st2" d="M15.5,42.3c3-3.6,4.2-7.6,2.7-8.8c-1.5-1.2-5.2,0.7-8.2,4.3c-3,3.6-4.2,7.6-2.7,8.8
						C8.8,47.9,12.5,45.9,15.5,42.3z"/>
					<path class="st3" d="M254.8,202H47.1c-5.6,0-10.1-4.5-10.1-10.1V28.7c0-2.3,1.9-4.2,4.2-4.2h219.5c2.3,0,4.2,1.9,4.2,4.2v163.2
						C264.9,197.5,260.4,202,254.8,202z"/>
					<path class="st4" d="M220.6,189.6h-159c-8.5,0-15.4-6.9-15.4-15.4V23.6h208.1v130.8L220.6,189.6z"/>
					<path class="st5" d="M254.3,154.2h-17.1c-9.2,0-16.7,7.4-16.7,16.7v18.7L254.3,154.2z"/>
					<path class="st6" d="M215,111c1,34.8-24.9,60-59.8,60c-34.9,0-68.2-19.9-68.2-54.7c0-34.8,30.3-71.9,65.9-69.2
						C187.7,49.8,213.8,71.6,215,111z"/>
					<path class="st7" d="M256.4,12.3H45.5c-3.4,0-6.6,2.6-7.9,7c-0.4,1.4-0.6,3-0.6,4.6v4.4h227.9V24c0-1.6-0.2-3.2-0.6-4.6
						C263,14.9,259.7,12.3,256.4,12.3z"/>
					<path class="st4" d="M61.8,25c2.8,0,5.1-2.3,5.1-5.1c0-2.8-2.3-5.1-5.1-5.1c-2.8,0-5.1,2.3-5.1,5.1C56.7,22.7,59,25,61.8,25z"
						/>
					<path class="st4" d="M216.8,25c2.8,0,5.1-2.3,5.1-5.1c0-2.8-2.3-5.1-5.1-5.1c-2.8,0-5.1,2.3-5.1,5.1
						C211.7,22.7,213.9,25,216.8,25z"/>
					<path class="st5" d="M62.5,22.2c-0.4,0-0.9-0.3-1-0.7c-0.7-1.9-1.1-3.8-1.1-5.8C60.4,7.1,67.4,0,76.1,0c7.3,0,13.6,4.9,15.3,12
						c0.2,0.6-0.2,1.2-0.8,1.3s-1.2-0.2-1.3-0.8C87.8,6.4,82.4,2.2,76.1,2.2c-7.5,0-13.6,6.1-13.6,13.6c0,1.7,0.3,3.4,0.9,5
						c0.2,0.6,0,1.2-0.6,1.4C62.7,22.2,62.6,22.2,62.5,22.2z"/>
					<path class="st5" d="M216.8,22.2c-0.4,0-0.9-0.3-1-0.7c-0.7-1.9-1.1-3.8-1.1-5.8c0-8.7,7.1-15.8,15.8-15.8
						c7.3,0,13.6,4.9,15.3,12c0.2,0.6-0.2,1.2-0.8,1.3c-0.6,0.1-1.2-0.2-1.3-0.8c-1.5-6.1-6.9-10.3-13.2-10.3
						c-7.5,0-13.6,6.1-13.6,13.6c0,1.7,0.3,3.4,0.9,5c0.2,0.6,0,1.2-0.6,1.4C217.1,22.2,216.9,22.2,216.8,22.2z"/>
					<path class="st6" d="M243.5,58.5c-0.6,0-1.1-0.5-1.1-1.1V41.6c0-3-2.5-5.5-5.5-5.5h-16.1c-0.6,0-1.1-0.5-1.1-1.1
						s0.5-1.1,1.1-1.1H237c4.2,0,7.7,3.4,7.7,7.6v15.8C244.6,58,244.1,58.5,243.5,58.5z"/>
					<path class="st8" d="M181.9,140.3l-0.9,5.5c-0.4,2.7-3,4.5-5.7,4.1l-0.4-0.1c-2.4-0.4-4.1-2.3-4.1-4.7l1.4-8.7l7.6,1.2
						C181.2,137.8,182.1,139.1,181.9,140.3z"/>
					<path class="st8" d="M135.3,79.3l-1.2,7.6l-7.8-1.2c-1.3-0.2-2.2-1.4-2-2.7l0.9-5.3c0.4-2.7,3-4.5,5.7-4.1l0.4,0.1
						C133.9,74,135.8,76.6,135.3,79.3z"/>
					<path class="st2" d="M174.9,144.8l4.5-27.9l4.8-29.8c0-0.2,0-0.2,0-0.2c0-0.2,0-0.2,0.1-0.4c0.4-2.4-1.3-4.7-3.8-5.1l-49.5-8
						c0.9,1.6,1.1,3.3,0.8,5.1l-9.3,57.7c0,0.2,0,0.2,0,0.2c0,0.2,0,0.2-0.1,0.4c-0.4,2.4,1.3,4.7,3.8,5.1l49.5,8
						C174.9,148.3,174.6,146.6,174.9,144.8z"/>
					<path class="st6" d="M136.7,117.8c2.1,0,3.8-1.7,3.8-3.8c0-2.1-1.7-3.8-3.8-3.8c-2.1,0-3.8,1.7-3.8,3.8
						C132.9,116.1,134.6,117.8,136.7,117.8z"/>
					<path class="st2" d="M136.1,115.8c-0.1,0-0.3-0.1-0.3-0.1l-1-0.8c-0.2-0.1-0.2-0.3-0.1-0.5c0.1-0.2,0.3-0.2,0.5-0.1l0.9,0.8
						l2.1-2.5c0.1-0.2,0.3-0.2,0.5-0.1s0.2,0.3,0.1,0.5l-2.1,2.7C136.4,115.7,136.3,115.8,136.1,115.8
						C136.1,115.8,136.1,115.8,136.1,115.8z"/>
					<path class="st6" d="M141.1,90.5c2.1,0,3.8-1.7,3.8-3.8c0-2.1-1.7-3.8-3.8-3.8s-3.8,1.7-3.8,3.8
						C137.3,88.8,139,90.5,141.1,90.5z"/>
					<path class="st2" d="M140.5,88.5c-0.1,0-0.3-0.1-0.3-0.1l-1-0.8c-0.2-0.1-0.2-0.3-0.1-0.5s0.3-0.2,0.5-0.1l0.9,0.8l2.1-2.5
						c0.1-0.2,0.3-0.2,0.5-0.1c0.2,0.1,0.2,0.3,0.1,0.5l-2.1,2.7C140.8,88.4,140.7,88.5,140.5,88.5
						C140.5,88.5,140.5,88.5,140.5,88.5z"/>
					<path class="st6" d="M138.8,104.4c2.1,0,3.8-1.7,3.8-3.8c0-2.1-1.7-3.8-3.8-3.8c-2.1,0-3.8,1.7-3.8,3.8
						C135,102.7,136.7,104.4,138.8,104.4z"/>
					<path class="st2" d="M138.2,102.4c-0.1,0-0.2-0.1-0.3-0.1l-1-0.8c-0.2-0.1-0.2-0.3-0.1-0.5c0.1-0.2,0.3-0.2,0.5-0.1l0.9,0.8
						l2.1-2.5c0.1-0.2,0.3-0.2,0.5-0.1c0.2,0.1,0.2,0.3,0.1,0.5l-2.1,2.7C138.5,102.3,138.4,102.4,138.2,102.4z"/>
					<path class="st6" d="M134.4,131.9c2.1,0,3.8-1.7,3.8-3.8c0-2.1-1.7-3.8-3.8-3.8c-2.1,0-3.8,1.7-3.8,3.8
						C130.6,130.2,132.3,131.9,134.4,131.9z"/>
					<path class="st6" d="M150.2,86.7l20.2,3.2c1.1,0.2,1.9,1,1.7,2.1c-0.2,1.1-1,1.7-2.1,1.5l-20.4-3.3c-1.1-0.2-1.7-1-1.5-2.1
						C148.3,87.2,149.1,86.5,150.2,86.7z"/>
					<path class="st6" d="M148,100.6l20.2,3.2c1.1,0.2,1.9,1,1.7,2.1c-0.2,1.1-1,1.7-2.1,1.5l-20.4-3.3c-1.1-0.2-1.7-1-1.5-2.1
						C146.1,101.1,146.9,100.5,148,100.6z"/>
					<path class="st6" d="M163,135.1l-20.2-3.2c-1.1-0.2-1.9-1-1.7-2.1c0.2-1.1,1-1.7,2.1-1.5l20.4,3.3c1.1,0.2,1.7,1,1.5,2.1
						C165,134.7,164.1,135.3,163,135.1z"/>
					<path class="st6" d="M165.4,120.3l-20.2-3.2c-1.1-0.2-1.9-1-1.7-2.1c0.2-1.1,1-1.7,2.1-1.5l20.4,3.3c1.1,0.2,1.7,1,1.5,2.1
						C167.3,119.9,166.5,120.5,165.4,120.3z"/>
					<path class="st6" d="M179.8,90.1c-0.1,0-0.1,0-0.2,0c-0.2-0.1-0.3-0.3-0.2-0.6c0,0,0.5-1.3-0.2-2.5c-0.8-1.2-2.5-1.9-5.2-2.1
						c-0.2,0-0.4-0.2-0.4-0.5c0-0.2,0.3-0.4,0.5-0.4c3,0.2,5,1,5.9,2.5c1,1.6,0.3,3.2,0.3,3.3C180.2,90,180,90.1,179.8,90.1z"/>
				</g>
			</g>
			<path class="st9" d="M149.5,249c50.5,0,91.5-6.3,91.5-14s-41-14-91.5-14S58,227.3,58,235S99,249,149.5,249z"/>
		</g>
	</g>
</g>
</svg>
