<svg width="236" height="260" viewBox="0 0 236 260" fill="none" xmlns="http://www.w3.org/2000/svg">
<path d="M117.5 260C158.645 260 192 254.851 192 248.5C192 242.149 158.645 237 117.5 237C76.3548 237 43 242.149 43 248.5C43 254.851 76.3548 260 117.5 260Z" fill="#E9E2DE"/>
<path d="M210.426 29.8473C209.612 29.8473 208.825 29.4939 208.283 28.8143C207.361 27.6182 207.578 25.9329 208.744 25.0087L227.728 10.1394C228.922 9.21518 230.603 9.43264 231.525 10.6015C232.447 11.7976 232.23 13.483 231.064 14.4072L212.08 29.2764C211.592 29.657 210.995 29.8473 210.426 29.8473Z" fill="#FFCF8D"/>
<path d="M32.8968 31.1257C32.3002 31.1257 31.7306 30.9354 31.2153 30.5548L13.7228 16.7457C12.5566 15.8215 12.3397 14.1089 13.2618 12.9401C14.1839 11.7712 15.8924 11.5537 17.0586 12.4779L34.5782 26.287C35.7444 27.2113 35.9614 28.9238 35.0393 30.0927C34.4969 30.7723 33.7104 31.1257 32.8968 31.1257Z" fill="#FFCF8D"/>
<path d="M13.9398 218.689C13.1262 218.689 12.3397 218.336 11.7973 217.656C10.8752 216.46 11.0922 214.775 12.2583 213.85L31.2425 198.981C32.4358 198.057 34.1172 198.274 35.0393 199.443C35.9614 200.639 35.7444 202.325 34.5783 203.249L15.5941 218.118C15.106 218.499 14.5364 218.689 13.9398 218.689Z" fill="#FFCF8D"/>
<path d="M227.945 216.351C227.349 216.351 226.779 216.161 226.264 215.781L208.744 201.971C207.578 201.047 207.361 199.335 208.283 198.166C209.205 196.997 210.914 196.779 212.08 197.704L229.6 211.513C230.766 212.437 230.983 214.15 230.061 215.318C229.545 215.998 228.732 216.351 227.945 216.351Z" fill="#FFCF8D"/>
<path d="M189.136 153.504C189.136 153.504 197.625 161.252 193.421 173.566C193.421 173.566 189.272 171.119 189.136 153.504Z" fill="#28C86E"/>
<path d="M212.161 172.207C212.161 172.207 204.351 189.033 188.187 180.905C188.187 180.905 192.825 173.865 212.161 172.207Z" fill="#28C86E"/>
<path d="M183.332 194.687C182.519 194.687 181.787 193.98 181.705 193.137C181.515 191.452 188.187 167.911 212.46 157.989C213.3 157.636 214.25 158.044 214.575 158.886C214.9 159.729 214.521 160.68 213.68 161.007C192.174 169.814 185.177 190.337 184.933 192.974C185.041 193.871 184.39 194.578 183.495 194.687C183.441 194.687 183.387 194.687 183.332 194.687Z" fill="#28C86E"/>
<path d="M219.023 152.281C219.023 152.281 216.419 134.612 209.042 135.672C201.666 136.732 214.168 153.559 219.023 152.281Z" fill="#FFCF8D"/>
<path d="M219.023 152.063C219.023 152.063 205.218 138.2 202.534 145.104C199.849 152.009 217.667 157.092 219.023 152.063Z" fill="#FFCF8D"/>
<path d="M220.514 154.972C220.514 154.972 203.971 146.11 204.134 154.211C204.269 162.312 221.138 160.653 220.514 154.972Z" fill="#FFCF8D"/>
<path d="M222.304 155.298C222.304 155.298 230.413 138.363 222.358 138.852C214.304 139.341 216.69 156.168 222.304 155.298Z" fill="#FFCF8D"/>
<path d="M219.918 155.951C219.918 155.951 234.698 167.531 235.918 159.539C237.193 151.52 220.27 150.242 219.918 155.951Z" fill="#FFCF8D"/>
<path d="M219.836 157.718C219.836 157.718 234.345 152.961 230.223 148.231C226.128 143.501 216.636 154.728 219.836 157.718Z" fill="#FFCF8D"/>
<path d="M220.785 156.739C220.785 156.739 237.627 162.556 235.24 169.623C232.854 176.691 218.643 161.305 220.785 156.739Z" fill="#FFCF8D"/>
<path d="M221.572 155.652C221.572 155.652 232.637 171.799 225.369 173.185C218.101 174.545 216.392 156.06 221.572 155.652Z" fill="#FFCF8D"/>
<path d="M221.707 154.483C221.707 154.483 219.619 173.158 213.056 168.455C206.466 163.753 217.395 150.759 221.707 154.483Z" fill="#FFCF8D"/>
<path d="M226.943 163.176C228.81 161.622 227.283 156.692 223.533 152.163C219.783 147.635 215.23 145.223 213.362 146.776C211.495 148.33 213.022 153.26 216.772 157.789C220.522 162.317 225.075 164.729 226.943 163.176Z" fill="#FF9F1A"/>
<path d="M46.8636 67.6314C46.8636 67.6314 38.375 75.3786 42.5786 87.6926C42.5786 87.6926 46.728 85.2461 46.8636 67.6314Z" fill="#28C86E"/>
<path d="M23.8387 86.3338C23.8387 86.3338 31.6493 103.16 47.8129 95.0325C47.8129 95.0325 43.1754 87.992 23.8387 86.3338Z" fill="#28C86E"/>
<path d="M52.6945 108.733C52.6403 108.733 52.586 108.733 52.5047 108.733C51.664 108.651 51.0402 107.917 51.0673 107.075C50.769 104.302 43.7177 83.9145 22.3199 75.1615C21.4792 74.8081 21.0995 73.8567 21.4249 73.0412C21.7775 72.1985 22.7267 71.818 23.5403 72.1442C47.8129 82.0661 54.4845 105.634 54.2946 107.292C54.2404 108.108 53.5353 108.733 52.6945 108.733Z" fill="#28C86E"/>
<path d="M16.9772 66.4081C16.9772 66.4081 19.5808 48.739 26.9575 49.7991C34.3342 50.8593 21.8589 67.6857 16.9772 66.4081Z" fill="#FFCF8D"/>
<path d="M16.9772 66.1903C16.9772 66.1903 30.7814 52.3269 33.4663 59.2314C36.1512 66.136 18.3332 71.2192 16.9772 66.1903Z" fill="#FFCF8D"/>
<path d="M15.4855 69.0992C15.4855 69.0992 32.0289 60.2374 31.8661 68.338C31.7034 76.4386 14.8618 74.7805 15.4855 69.0992Z" fill="#FFCF8D"/>
<path d="M13.6958 69.4248C13.6958 69.4248 5.58684 52.4897 13.6415 52.979C21.6962 53.4683 19.3097 70.2947 13.6958 69.4248Z" fill="#FFCF8D"/>
<path d="M16.0823 70.0779C16.0823 70.0779 1.30175 81.658 0.0813379 73.6661C-1.13907 65.6742 15.7297 64.3694 16.0823 70.0779Z" fill="#FFCF8D"/>
<path d="M16.1636 71.8452C16.1636 71.8452 1.65428 67.0881 5.77655 62.3582C9.89882 57.6283 19.3638 68.855 16.1636 71.8452Z" fill="#FFCF8D"/>
<path d="M15.2144 70.8656C15.2144 70.8656 -1.62723 76.6828 0.759349 83.7505C3.14593 90.8181 17.384 75.4324 15.2144 70.8656Z" fill="#FFCF8D"/>
<path d="M14.4279 69.7791C14.4279 69.7791 3.3629 85.926 10.6311 87.3123C17.8993 88.6715 19.635 70.1869 14.4279 69.7791Z" fill="#FFCF8D"/>
<path d="M14.2924 68.6101C14.2924 68.6101 16.3806 87.285 22.9437 82.5823C29.5068 77.8796 18.6045 64.886 14.2924 68.6101Z" fill="#FFCF8D"/>
<path d="M19.2411 71.8937C22.9912 67.3651 24.5176 62.4347 22.6504 60.8813C20.7833 59.328 16.2296 61.7398 12.4795 66.2684C8.72948 70.7969 7.20308 75.7273 9.07023 77.2807C10.9374 78.8341 15.491 76.4222 19.2411 71.8937Z" fill="#FF9F1A"/>
<path d="M198.764 26.2523V216.1C198.764 218.819 196.567 220.993 193.882 220.993H47.1891C44.4771 220.993 42.3075 218.791 42.3075 216.1V26.2523C42.3075 23.534 44.5042 21.3592 47.1891 21.3592H193.882C196.567 21.3592 198.764 23.5612 198.764 26.2523Z" fill="white"/>
<path d="M190.764 59.5807C190.004 59.5807 189.408 58.9826 189.408 58.2215V40.199C189.408 38.2418 187.835 36.665 185.882 36.665H176.01C175.251 36.665 174.654 36.067 174.654 35.3059C174.654 34.5447 175.251 33.9467 176.01 33.9467H185.882C189.326 33.9467 192.12 36.7467 192.12 40.199V58.2215C192.12 58.9555 191.523 59.5807 190.764 59.5807Z" fill="#00CDDC"/>
<path d="M153.609 11.0364H138.286C136.794 11.0364 135.574 9.84034 135.574 8.31808V3.34354C135.574 1.49508 134.082 0 132.238 0H120.549H120.495H108.806C106.962 0 105.47 1.49508 105.47 3.34354V8.31808C105.47 9.84034 104.25 11.0364 102.758 11.0364H87.4355C85.5913 11.0364 84.0997 12.5315 84.0997 14.3799V26.9114C84.0997 28.7599 85.5913 30.255 87.4355 30.255H120.495H120.549H153.609C155.453 30.255 156.945 28.7599 156.945 26.9114V14.3799C156.945 12.5315 155.453 11.0364 153.609 11.0364Z" fill="#BFBFBF"/>
<path d="M98.9344 108.324C97.4428 108.406 96.2766 109.656 96.358 111.179C96.4393 112.701 97.6869 113.843 99.2056 113.761H170.64C172.132 113.788 173.379 112.592 173.379 111.07C173.406 109.575 172.213 108.324 170.694 108.324C170.667 108.324 170.64 108.324 170.613 108.324H99.2056C99.0971 108.324 99.0157 108.324 98.9344 108.324Z" fill="#FF9F1A"/>
<path d="M87.0287 111.043C87.0287 116.317 82.7708 120.584 77.5095 120.584C72.2482 120.584 67.9903 116.317 67.9903 111.043C67.9903 105.77 72.2482 101.502 77.5095 101.502C82.7708 101.502 87.0287 105.77 87.0287 111.043Z" fill="#FF9F1A"/>
<path d="M98.9344 134.585C97.4428 134.667 96.2766 135.917 96.358 137.439C96.4393 138.962 97.6869 140.103 99.2056 140.022H170.64C172.132 140.049 173.379 138.853 173.379 137.331C173.406 135.835 172.213 134.585 170.694 134.585C170.667 134.585 170.64 134.585 170.613 134.585H99.2056C99.0971 134.558 99.0157 134.558 98.9344 134.585Z" fill="#FF9F1A"/>
<path d="M87.0287 137.303C87.0287 142.576 82.7708 146.844 77.5095 146.844C72.2482 146.844 67.9903 142.576 67.9903 137.303C67.9903 132.029 72.2482 127.761 77.5095 127.761C82.7708 127.761 87.0287 132.029 87.0287 137.303Z" fill="#FF9F1A"/>
<path d="M98.9344 162.122C97.4428 162.203 96.2766 163.454 96.358 164.976C96.4393 166.498 97.6869 167.64 99.2056 167.558H170.64C172.132 167.586 173.379 166.389 173.379 164.867C173.406 163.372 172.213 162.122 170.694 162.122C170.667 162.122 170.64 162.122 170.613 162.122H99.2056C99.0971 162.095 99.0157 162.095 98.9344 162.122Z" fill="#FF9F1A"/>
<path d="M87.0287 164.839C87.0287 170.113 82.7708 174.381 77.5095 174.381C72.2482 174.381 67.9903 170.113 67.9903 164.839C67.9903 159.566 72.2482 155.298 77.5095 155.298C82.7708 155.298 87.0287 159.566 87.0287 164.839Z" fill="#FF9F1A"/>
<path d="M98.9344 188.353C97.4428 188.434 96.2766 189.685 96.358 191.207C96.4393 192.729 97.6869 193.871 99.2056 193.789H170.64C172.132 193.816 173.379 192.62 173.379 191.098C173.406 189.603 172.213 188.353 170.694 188.353C170.667 188.353 170.64 188.353 170.613 188.353H99.2056C99.0971 188.353 99.0157 188.353 98.9344 188.353Z" fill="#FF9F1A"/>
<path d="M87.0287 191.071C87.0287 196.345 82.7708 200.613 77.5095 200.613C72.2482 200.613 67.9903 196.345 67.9903 191.071C67.9903 185.798 72.2482 181.53 77.5095 181.53C82.7708 181.53 87.0287 185.798 87.0287 191.071Z" fill="#FF9F1A"/>
<path d="M153.202 23.209C152.768 23.209 152.415 22.8555 152.415 22.4206V16.7394C152.415 15.5977 151.493 14.7007 150.381 14.7007H144.035C143.601 14.7007 143.249 14.3472 143.249 13.9122C143.249 13.4773 143.601 13.124 144.035 13.124H150.381C152.361 13.124 153.988 14.755 153.988 16.7394V22.4206C153.961 22.8555 153.636 23.209 153.202 23.209Z" fill="white"/>
<path d="M75.5839 115.883C75.3399 115.883 75.0958 115.801 74.9059 115.638L72.2753 113.246C72.0041 113.001 71.9769 112.567 72.221 112.268C72.4651 111.996 72.899 111.969 73.1974 112.213L75.5568 114.361L81.6589 106.668C81.903 106.369 82.3369 106.314 82.6081 106.559C82.9064 106.804 82.9606 107.239 82.7166 107.51L76.4247 115.475C76.1806 115.747 75.8823 115.883 75.5839 115.883Z" fill="white"/>
<path d="M75.5839 142.386C75.3399 142.386 75.0958 142.305 74.9059 142.142L72.2753 139.75C72.0041 139.505 71.9769 139.07 72.221 138.771C72.4651 138.499 72.899 138.472 73.1974 138.717L75.5568 140.864L81.6589 133.171C81.903 132.872 82.3369 132.818 82.6081 133.063C82.9064 133.307 82.9606 133.742 82.7166 134.014L76.4247 141.979C76.1806 142.251 75.8823 142.386 75.5839 142.386Z" fill="white"/>
<path d="M75.5839 169.759C75.3399 169.759 75.0958 169.677 74.9059 169.514L72.2753 167.122C72.0041 166.878 71.9769 166.443 72.221 166.144C72.4651 165.872 72.899 165.845 73.1974 166.089L75.5568 168.237L81.6589 160.544C81.903 160.245 82.3369 160.191 82.6081 160.435C82.9064 160.68 82.9606 161.115 82.7166 161.387L76.4247 169.351C76.1806 169.623 75.8823 169.759 75.5839 169.759Z" fill="white"/>
<path d="M75.5839 195.801C75.3399 195.801 75.0958 195.719 74.9059 195.556L72.2753 193.164C72.0041 192.92 71.9769 192.485 72.221 192.186C72.4651 191.914 72.899 191.887 73.1974 192.131L75.5568 194.279L81.6589 186.586C81.903 186.287 82.3369 186.233 82.6081 186.477C82.9064 186.722 82.9606 187.157 82.7166 187.429L76.4247 195.393C76.1806 195.665 75.8823 195.801 75.5839 195.801Z" fill="white"/>
<path d="M112.929 64.1798H161.094C162.586 64.1798 163.806 62.9565 163.806 61.4614C163.806 59.9664 162.586 58.7431 161.094 58.7431H112.929C111.437 58.7431 110.216 59.9664 110.216 61.4614C110.216 62.9565 111.437 64.1798 112.929 64.1798Z" fill="#FF9F1A"/>
<path d="M112.929 74.1013H147.398C148.89 74.1013 150.11 72.8781 150.11 71.383C150.11 69.8879 148.89 68.6647 147.398 68.6647H112.929C111.437 68.6647 110.216 69.8879 110.216 71.383C110.216 72.8781 111.437 74.1013 112.929 74.1013Z" fill="#FF9F1A"/>
<path d="M96.6836 67.0884C96.6836 77.717 88.0864 86.307 77.5096 86.307C66.9056 86.307 58.3356 77.6899 58.3356 67.0884C58.3356 56.4597 66.9327 47.8698 77.5096 47.8698C88.0864 47.8698 96.6836 56.4869 96.6836 67.0884Z" fill="#FF9F1A"/>
<path d="M73.6314 76.7931C73.1433 76.7931 72.6551 76.63 72.2754 76.3038L66.9599 71.4924C66.3903 70.9759 66.3632 70.106 66.8785 69.5352C67.3938 68.9643 68.2616 68.9371 68.8311 69.4536L73.5772 73.7758L85.8355 58.2541C86.2966 57.6561 87.1644 57.5474 87.761 58.0367C88.3577 58.4988 88.4662 59.3686 87.978 59.9667L75.3129 76.0048C74.879 76.5213 74.2552 76.7931 73.6314 76.7931Z" fill="white"/>
</svg>
