<svg width="173" height="130" viewBox="0 0 173 130" fill="none" xmlns="http://www.w3.org/2000/svg">
<path d="M29.4207 130C27.6331 117.637 25.684 101.537 26.0761 93.1177C17.7724 99.8645 4.12881 113.623 0 130H29.4207Z" fill="#00CDDC"/>
<path d="M156.872 10.3099C156.872 10.3099 128.858 52.9359 82.5992 51.2636C82.5992 51.2636 102.055 12.2936 156.872 10.3099Z" fill="#00A878"/>
<path d="M108.641 0C108.641 0 109.702 19.7906 82.1496 56.1888C82.1496 56.1888 66.8337 29.4207 108.641 0Z" fill="#3CDC82"/>
<path d="M167.978 129.999C167.874 126.62 167.586 122.791 167.067 118.305C156.745 28.9353 71.8736 39.9032 41.1035 61.0778C26.5489 71.1 6.59681 92.2976 10.9909 129.987H167.978V129.999Z" fill="#32DCD2"/>
<path d="M77.8477 103.844C77.1211 102.194 79.7506 101.237 84.1678 101.883C88.5849 102.529 88.9771 106.957 82.334 106.738C79.1048 106.646 78.5743 105.493 77.8477 103.844Z" fill="black"/>
<path d="M83.6487 104.696L82.2878 104.927C81.6189 105.042 80.9845 104.593 80.8692 103.924L80.6616 101.698C81.9649 101.513 83.1643 101.779 84.4098 101.905L84.6405 103.278C84.7674 103.947 84.3176 104.581 83.6487 104.696Z" fill="white"/>
<path d="M172.672 130.001C173.318 114.535 166.041 99.4385 160.309 91.1693C157.979 100.869 145.662 118.572 140.034 130.001H172.672Z" fill="#00CDDC"/>
<path d="M73.3377 38.8886C73.3377 38.8886 66.9023 40.5263 65.5183 47.5384C65.5183 47.5384 71.2848 48.5994 73.3377 38.8886Z" fill="#28C86E"/>
<path d="M65.0802 55.1396C65.2647 47.0088 65.8413 39.6277 62.8197 29.9399" stroke="#28C86E" stroke-width="1.6697" stroke-miterlimit="10" stroke-linecap="round"/>
<path d="M64.642 27.5056C64.642 27.5056 51.8519 24.1149 53.9739 29.1202C56.0845 34.114 66.4642 30.9424 64.642 27.5056Z" fill="#FFCF8D"/>
<path d="M67.0064 28.4871C67.0064 28.4871 53.4667 29.3982 57.7454 33.6769C62.0357 37.9441 70.2934 31.3011 67.0064 28.4871Z" fill="#FFCF8D"/>
<path d="M67.7214 28.8327C67.7214 28.8327 60.248 18.6029 57.3417 23.2392C54.4469 27.8754 66.0376 32.2464 67.7214 28.8327Z" fill="#FFCF8D"/>
<path d="M62.6814 32.6157C62.6814 32.6157 77.386 27.4028 71.1697 24.1159C64.9649 20.829 58.0797 30.5975 62.6814 32.6157Z" fill="#FFCF8D"/>
<path d="M66.3716 28.6704C66.3716 28.6704 76.5437 26.1447 75.2751 31.2307C74.0065 36.3053 65.1952 32.1534 66.3716 28.6704Z" fill="#FFCF8D"/>
<path d="M68.5634 27.4947C68.5634 27.4947 72.4962 39.6851 66.6836 37.4938C60.8709 35.3025 64.573 25.6494 68.5634 27.4947Z" fill="#FFCF8D"/>
<path d="M71.2955 29.3745C71.5603 27.5271 69.2704 25.6704 66.1809 25.2275C63.0914 24.7847 60.3721 25.9233 60.1073 27.7707C59.8425 29.6181 62.1324 31.4747 65.2219 31.9176C68.3114 32.3605 71.0307 31.2219 71.2955 29.3745Z" fill="#FF9F1A"/>
<path d="M106.38 86.6581C106.38 89.9335 103.728 91.5366 100.452 91.5366C97.177 91.5366 94.5244 89.922 94.5244 86.6581C94.5244 83.3828 95.0434 88.6995 100.452 88.6995C105.861 88.6995 106.38 83.3828 106.38 86.6581Z" fill="black"/>
<path d="M70.6743 86.6581C70.6743 89.9335 68.0217 91.5366 64.7463 91.5366C61.4709 91.5366 58.8184 89.922 58.8184 86.6581C58.8184 83.3828 59.3373 88.6995 64.7463 88.6995C70.1553 88.6995 70.6743 83.3828 70.6743 86.6581Z" fill="black"/>
</svg>
