<svg width="151" height="113" viewBox="0 0 151 113" fill="none" xmlns="http://www.w3.org/2000/svg">
<path d="M144.956 19.2421C144.956 19.2421 111.068 46.6356 85.0475 28.3392C85.0475 28.3187 102.77 5.1569 144.956 19.2421Z" fill="#28C86E"/>
<path d="M117.276 6.05664C117.276 6.05664 111.928 30.0566 80.6629 32.98C80.6629 32.98 80.4989 22.4928 117.276 6.05664Z" fill="#3CDC82"/>
<path d="M0.655528 112.605H150.611C150.672 111.644 150.734 110.663 150.795 109.621C155.405 22.9425 73.2871 16.9323 40.5261 32.1214C23.4182 40.0533 -2.76605 62.6631 0.245758 107.74C0.348201 109.273 0.471131 110.908 0.655528 112.605Z" fill="#32DCD2"/>
<path d="M59.8874 75.1741C59.8874 77.9339 57.6542 78.5267 54.8882 78.5267C52.1223 78.5267 49.889 77.9339 49.889 75.1741C49.889 72.4143 52.1223 70.186 54.8882 70.186C57.6542 70.186 59.8874 72.4143 59.8874 75.1741Z" fill="black"/>
<path d="M101.11 75.1741C101.11 77.9339 98.8771 78.5267 96.1111 78.5267C93.3452 78.5267 91.1119 77.9339 91.1119 75.1741C91.1119 72.4143 93.3452 70.186 96.1111 70.186C98.8771 70.186 101.11 72.4143 101.11 75.1741Z" fill="black"/>
<path d="M85.2521 86.1928C85.2521 87.5625 80.7651 89.6477 75.2332 89.6477C69.7013 89.6477 65.2144 87.542 65.2144 86.1928C65.2144 84.8436 69.7013 85.9884 75.2332 85.9884C80.7651 85.9884 85.2521 84.8231 85.2521 86.1928Z" fill="black"/>
<path d="M75.5201 88.0533H74.7005C73.9629 88.0533 73.3688 87.4605 73.3688 86.7245V85.9272H76.8313V86.7245C76.8518 87.4605 76.2576 88.0533 75.5201 88.0533Z" fill="white"/>
<path d="M66.4849 13.9883C66.4849 13.9883 72.0167 15.5011 72.9182 21.8997C72.9182 21.8997 70.5006 21.7566 66.4849 13.9883Z" fill="#28C86E"/>
<path d="M79.8226 16.8093C79.8226 16.8093 80.1504 26.0291 71.115 26.0904C71.1355 26.0904 71.6067 21.9201 79.8226 16.8093Z" fill="#28C86E"/>
<path d="M71.6685 32.5297C71.3202 31.9982 69.1689 20.4275 77.3438 10.9829" stroke="#28C86E" stroke-width="0.7931" stroke-miterlimit="10" stroke-linecap="round"/>
<path d="M77.5279 6.87422C77.5279 6.87422 70.4798 1.45686 68.1851 4.40063C65.9109 7.32397 76.2166 9.02073 77.5279 6.87422Z" fill="#FFCF8D"/>
<path d="M77.4462 6.79229C77.4462 6.79229 67.6937 6.6083 69.1279 10.0018C70.5621 13.3953 78.696 9.06145 77.4462 6.79229Z" fill="#FFCF8D"/>
<path d="M78.9824 7.32422C78.9824 7.32422 69.9879 9.87958 72.8358 12.7211C75.6837 15.5627 81.1747 9.14364 78.9824 7.32422Z" fill="#FFCF8D"/>
<path d="M79.7407 6.81289C79.7407 6.81289 76.7903 -2.03889 74.0653 0.925332C71.3404 3.88955 78.0196 9.08206 79.7407 6.81289Z" fill="#FFCF8D"/>
<path d="M79.1056 7.87564C79.1056 7.87564 88.4073 6.89438 86.0921 3.60308C83.7769 0.31177 77.2616 5.70869 79.1056 7.87564Z" fill="#FFCF8D"/>
<path d="M79.6995 8.53032C79.6995 8.53032 83.2645 1.80458 80.1503 1.53882C77.036 1.27307 77.5073 8.5712 79.6995 8.53032Z" fill="#FFCF8D"/>
<path d="M79.6996 7.85559C79.6996 7.85559 87.772 4.09408 89.3497 7.46718C90.9273 10.8403 80.4986 10.2474 79.6996 7.85559Z" fill="#FFCF8D"/>
<path d="M79.597 7.20142C79.597 7.20142 89.1446 9.14349 87.0138 12.1486C84.883 15.1537 77.8759 9.14349 79.597 7.20142Z" fill="#FFCF8D"/>
<path d="M79.2488 6.7312C79.2488 6.7312 84.965 14.1315 80.9698 14.7244C76.9745 15.3172 76.4009 6.89474 79.2488 6.7312Z" fill="#FFCF8D"/>
<path d="M84.1204 8.03638C84.2531 6.83557 81.9992 5.6023 79.086 5.28181C76.1729 4.96132 73.7038 5.67496 73.5711 6.87578C73.4384 8.0766 75.6924 9.30986 78.6055 9.63035C81.5186 9.95084 83.9877 9.2372 84.1204 8.03638Z" fill="#FF9F1A"/>
<path opacity="0.3" d="M112.605 34.0222C130.163 31.2011 144.956 19.242 144.956 19.242C132.171 14.9694 121.64 14.1517 113.158 15.0308C116.354 10.0836 117.255 6.05631 117.255 6.05631C98.1601 14.581 89.0428 21.5112 84.6787 26.1926C81.1547 25.8042 77.6512 25.6202 74.2091 25.5998C80.0688 23.7394 79.823 16.7889 79.823 16.7889C77.6717 18.1381 76.0531 19.4055 74.8238 20.5503L76.9546 12.455C77.2209 12.2505 77.4668 12.0461 77.7127 11.8008C78.1634 13.518 79.2493 14.9285 80.9703 14.6832C82.5479 14.4379 82.5889 13.1296 82.0767 11.6372C83.8387 12.9047 85.99 13.5589 87.0144 12.1074C87.6496 11.2284 87.2398 10.4311 86.3793 9.73605C88.4486 9.59295 90.0262 8.87744 89.3501 7.42599C88.715 6.0972 87.0759 5.89278 85.3344 6.11765C86.3588 5.48392 86.871 4.6662 86.0924 3.56228C85.0066 2.02906 83.0397 2.39704 81.4006 3.41918C81.4621 2.39704 81.1752 1.57931 80.1508 1.49754C79.1264 1.41577 78.4912 2.15171 78.1839 3.17386C77.0775 1.12957 75.5409 -0.730736 74.0657 0.884256C73.0003 2.0495 73.3896 3.56228 74.3526 4.82974C72.1603 3.66449 69.4353 2.72412 68.1855 4.35955C67.0791 5.77012 68.9231 6.89447 71.2383 7.44643C69.6607 7.91662 68.5543 8.67301 69.1075 9.98136C69.5992 11.167 70.9105 11.3919 72.3447 11.1262C72.1808 11.6372 72.2832 12.1687 72.8364 12.7003C73.6559 13.4975 74.6599 13.5589 75.6638 13.1909C74.1477 15.3987 73.1028 17.6679 72.4061 19.8349C70.7671 15.1534 66.4645 13.9677 66.4645 13.9677C69.0051 18.874 70.89 20.7343 71.9554 21.4498C71.6071 22.8604 71.3817 24.2096 71.2793 25.4567C71.2588 25.518 71.2383 25.5793 71.2178 25.6406C59.3755 25.9677 48.4961 28.4004 40.5466 32.1006C23.4182 40.0529 -2.76605 62.6628 0.245755 107.739C0.348198 109.273 0.491617 110.908 0.676013 112.605H150.631C150.693 111.644 150.754 110.663 150.816 109.62C153.028 68.0597 135.285 45.041 112.605 34.0222Z" fill="black"/>
</svg>
