<?xml version="1.0" encoding="utf-8"?>
<!-- Generator: Adobe Illustrator 25.1.0, SVG Export Plug-In . SVG Version: 6.00 Build 0)  -->
<svg version="1.1" id="Layer_1" xmlns="http://www.w3.org/2000/svg" xmlns:xlink="http://www.w3.org/1999/xlink" x="0px" y="0px"
	 viewBox="0 0 288 285" style="enable-background:new 0 0 288 285;" xml:space="preserve">
<style type="text/css">
	.st0{fill:#E9E2DE;}
	.st1{clip-path:url(#SVGID_2_);}
	.st2{fill:#28C86E;}
	.st3{fill:#FFCF8D;}
	.st4{fill:#FF9F1A;}
	.st5{fill:#DCE3E5;}
	.st6{fill:#00A878;}
	.st7{fill:#FFFFFF;}
	.st8{fill:#D64204;}
	.st9{fill:#FFB753;}
	.st10{fill:#00CDDC;}
	.st11{fill:#32DCD2;}
	.st12{fill:none;stroke:#28C86E;stroke-width:0.8735;stroke-linecap:round;stroke-miterlimit:10;}
	.st13{opacity:0.5;enable-background:new    ;}
	.st14{fill:none;stroke:#28C86E;stroke-width:0.8912;stroke-linecap:round;stroke-miterlimit:10;}
	.st15{opacity:0.2;enable-background:new    ;}
	.st16{fill:#3CDC82;}
	.st17{fill:none;stroke:#28C86E;stroke-width:0.44;stroke-linecap:round;stroke-miterlimit:10;}
</style>
<g>
	<path class="st0" d="M144.5,285c50.5,0,91.5-6.3,91.5-14s-41-14-91.5-14S53,263.3,53,271S94,285,144.5,285z"/>
	<g>
		<defs>
			<rect id="SVGID_1_" width="288" height="271"/>
		</defs>
		<clipPath id="SVGID_2_">
			<use xlink:href="#SVGID_1_"  style="overflow:visible;"/>
		</clipPath>
		<g class="st1">
			<path class="st2" d="M234.9,94.5c0,0-8.3,15.2-24.9,3C210,97.5,218.4,90.1,234.9,94.5z"/>
			<path class="st2" d="M206.6,119.9c-1.2,0-2.3-0.8-2.6-2c-0.1-0.3-6.2-26.9,32.8-49.2c1.3-0.7,2.9-0.3,3.6,1
				c0.7,1.3,0.3,2.9-1,3.6c-34.9,20-30.3,43.1-30.3,43.3c0.4,1.4-0.5,2.9-1.9,3.2C207.1,119.9,206.8,119.9,206.6,119.9z"/>
			<path class="st3" d="M244.2,62.6c0,0-6.4-21.5-15.4-18.8C219.8,46.4,238.3,65.1,244.2,62.6z"/>
			<path class="st3" d="M244.1,62.3c0,0-19.6-14.7-21.7-5.7C220.3,65.7,243.3,68.8,244.1,62.3z"/>
			<path class="st3" d="M246.5,65.6c0,0-22.1-8-20.5,2C227.6,77.7,248.3,72.6,246.5,65.6z"/>
			<path class="st3" d="M248.8,65.7c0,0,7-22.5-2.9-20.4C236,47.4,242,67.8,248.8,65.7z"/>
			<path class="st3" d="M245.9,67c0,0,20.4,11.7,20.5,1.5C266.6,58.3,245.4,59.8,245.9,67z"/>
			<path class="st3" d="M246.2,69.2c0,0,17.2-8.5,11.2-13.6C251.4,50.4,241.6,66,246.2,69.2z"/>
			<path class="st3" d="M247.1,67.8c0,0,22,4.2,20.3,13.4C265.7,90.4,245.3,73.8,247.1,67.8z"/>
			<path class="st3" d="M247.9,66.3c0,0,16.7,18,7.9,21.1C247,90.4,241.5,67.7,247.9,66.3z"/>
			<path class="st3" d="M247.9,64.8c0,0,0.8,23.5-8.2,18.9C230.6,79.1,241.9,61,247.9,64.8z"/>
			<path class="st4" d="M255.9,74.6c2-2.3-0.8-8.1-6.2-13c-5.5-4.9-11.6-7.1-13.6-4.9c-2,2.3,0.8,8.1,6.2,13
				C247.8,74.7,253.9,76.9,255.9,74.6z"/>
			<path class="st2" d="M31.7,162.8c0,0,14.5,7.6,19.5-4.4C51.2,158.4,44.7,154.2,31.7,162.8z"/>
			<path class="st2" d="M61.7,183.1c1.2-0.2,2.1-1.2,2.2-2.4c0-0.3,1.4-27.6-40.8-42.9c-1.4-0.5-2.9,0.2-3.4,1.6
				c-0.5,1.4,0.2,2.9,1.6,3.4c37.9,13.7,37.3,37.2,37.3,37.5c-0.1,1.5,1,2.7,2.5,2.9C61.3,183.2,61.5,183.1,61.7,183.1z"/>
			<path class="st5" d="M249.7,184l2.1,18c1,8.9-5.3,16.9-14.2,18l-1.2,0.1c-7.7,0.9-14.9-3.7-17-11.3l-3.4-28.6l25.1-3
				C245.4,176.8,249.2,179.8,249.7,184z"/>
			<path class="st5" d="M48.9,33.3l2.9,25l-25.7,3c-4.2,0.5-8-2.5-8.5-6.7l-2-17.4c-1-8.9,5.3-16.9,14.2-18l1.2-0.1
				C39.8,18.1,47.9,24.4,48.9,33.3z"/>
			<path class="st6" d="M231.6,204.4l-10.8-91.9h0l-11.5-98.1c-0.1-0.6-0.1-0.6-0.1-0.6c-0.1-0.6-0.1-0.6-0.1-1.2
				c-0.9-7.7-8.2-13.5-16.6-12.5L29.9,19.2c4.1,4.3,6.6,9.5,7.3,15.5l22.3,189.9c0.1,0.6,0.1,0.6,0.1,0.6c0.1,0.6,0.1,0.6,0.1,1.2
				c0.9,7.7,8.2,13.5,16.6,12.5l162.6-19.1C234.7,215.5,232.3,210.4,231.6,204.4z"/>
			<path class="st7" d="M84.1,153.9c6.9,0,12.4-5.6,12.4-12.4S90.9,129,84.1,129s-12.4,5.6-12.4,12.4S77.2,153.9,84.1,153.9z"/>
			<path class="st6" d="M83.8,147.7c-0.4,0.1-0.8,0.1-1.2-0.1l-4-1.7c-0.6-0.2-0.8-0.9-0.6-1.5c0.2-0.6,0.9-0.8,1.5-0.6l3.6,1.5
				l4.2-9.8c0.2-0.6,0.9-0.8,1.5-0.6c0.6,0.3,0.8,0.9,0.6,1.5L85,146.6c-0.2,0.4-0.5,0.8-1,1C83.9,147.6,83.8,147.6,83.8,147.7z"/>
			<path class="st7" d="M180.1,135.9l-66.6,7.7c-3.6,0.4-6.8-1.6-7.2-5.2c-0.4-3.6,1.7-6.2,5.3-6.6l67.2-7.7
				c3.6-0.4,6.2,1.7,6.6,5.3C185.8,132.8,183.7,135.4,180.1,135.9z"/>
			<path class="st7" d="M87.5,183.5c6.9,0,12.4-5.6,12.4-12.4c0-6.9-5.6-12.4-12.4-12.4c-6.9,0-12.4,5.6-12.4,12.4
				C75.1,178,80.7,183.5,87.5,183.5z"/>
			<path class="st6" d="M87.2,177.3c-0.4,0.1-0.8,0.1-1.2-0.1l-4-1.7c-0.6-0.2-0.8-0.9-0.6-1.5c0.2-0.6,0.9-0.8,1.5-0.6l3.6,1.5
				l4.2-9.8c0.2-0.6,0.9-0.8,1.5-0.6c0.6,0.2,0.8,0.9,0.6,1.5l-4.4,10.2c-0.2,0.4-0.5,0.8-1,1C87.3,177.3,87.3,177.3,87.2,177.3z"/>
			<path class="st7" d="M183.5,165.5l-66.6,7.7c-3.6,0.4-6.8-1.6-7.2-5.2c-0.4-3.6,1.7-6.2,5.3-6.6l67.2-7.7
				c3.6-0.4,6.2,1.7,6.6,5.3C189.2,162.5,187.1,165.1,183.5,165.5z"/>
			<path class="st7" d="M91.1,214.7c6.9,0,12.4-5.6,12.4-12.4s-5.6-12.4-12.4-12.4c-6.9,0-12.4,5.6-12.4,12.4S84.2,214.7,91.1,214.7
				z"/>
			<path class="st6" d="M90.8,208.5c-0.4,0.1-0.8,0.1-1.2-0.1l-4-1.7c-0.6-0.2-0.8-0.9-0.6-1.5c0.2-0.6,0.9-0.8,1.5-0.6l3.6,1.5
				l4.2-9.8c0.2-0.6,0.9-0.8,1.5-0.6c0.6,0.2,0.8,0.9,0.6,1.5L92,207.5c-0.2,0.4-0.5,0.8-1,1C90.9,208.5,90.9,208.5,90.8,208.5z"/>
			<path class="st7" d="M187.1,196.7l-66.6,7.7c-3.6,0.4-6.8-1.6-7.2-5.2c-0.4-3.6,1.7-6.2,5.3-6.6l67.2-7.7
				c3.6-0.4,6.2,1.7,6.6,5.3C192.8,193.6,190.7,196.3,187.1,196.7z"/>
			<path class="st7" d="M130.7,116.2c26,0,47.1-21.1,47.1-47.1c0-26-21.1-47.1-47.1-47.1S83.6,43,83.6,69.1
				C83.6,95.1,104.7,116.2,130.7,116.2z"/>
			<path class="st7" d="M202.7,27.8c-0.8,0.1-1.5-0.5-1.6-1.3c-0.3-2.7-0.6-5-0.7-5.2c-0.4-3.4-2.2-6.4-4.9-8.6
				c-2.8-2.2-6.4-3.1-10-2.7c0,0,0,0,0,0l-8.1,1h0c-0.8,0.1-1.5-0.5-1.6-1.3c-0.1-0.8,0.5-1.5,1.3-1.6l8.1-1c0,0,0,0,0,0
				c4.4-0.5,8.7,0.7,12.1,3.3c3.4,2.6,5.6,6.4,6.1,10.5c0,0.2,0.3,2.5,0.7,5.1C204.1,26.9,203.5,27.7,202.7,27.8
				C202.7,27.8,202.7,27.8,202.7,27.8z"/>
			<path class="st3" d="M26.6,132.3c0,0,8.9-22.3,18.2-18.6C54.1,117.4,32.6,135.5,26.6,132.3z"/>
			<path class="st3" d="M26.7,132c0,0,22.3-13.8,23.7-4C51.8,137.9,26.9,139,26.7,132z"/>
			<path class="st3" d="M23.8,135.3c0,0,24.4-6.4,21.7,4.1C42.8,150,21.3,142.5,23.8,135.3z"/>
			<path class="st3" d="M21.4,135.2c0,0-5.4-24.6,5-21.5C36.8,116.9,28.5,138.1,21.4,135.2z"/>
			<path class="st3" d="M24.3,136.8c0,0-22.9,10.5-22-0.3C3.1,125.6,25.6,129.2,24.3,136.8z"/>
			<path class="st3" d="M23.8,139.1c0,0-17.5-10.7-10.7-15.6C20,118.6,29,136.2,23.8,139.1z"/>
			<path class="st3" d="M22.9,137.6c0,0-23.8,2.4-22.9,12.4C1,159.9,24.3,144.2,22.9,137.6z"/>
			<path class="st3" d="M22.2,135.9c0,0-19.4,17.7-10.4,21.7C20.9,161.7,28.9,138,22.2,135.9z"/>
			<path class="st3" d="M22.4,134.3c0,0-3,25,7,20.9C39.5,151.1,29.2,130.8,22.4,134.3z"/>
			<path class="st4" d="M27.9,140.2c6.3-4.8,9.8-10.7,7.9-13.3c-2-2.6-8.7-0.9-15,3.9c-6.3,4.8-9.8,10.7-7.9,13.3
				C14.9,146.7,21.6,144.9,27.9,140.2z"/>
			<path class="st8" d="M241.6,221l20.2,16.4l-2.8-11c-0.2-0.7,0.4-1.4,1.1-1.3l11.4,0.5l-20.2-16.4L241.6,221z"/>
			<path class="st4" d="M183.9,268.2c7.9,3,17.2,4.1,20.1,0.5l38.5-47.6c-4.3,1.1-12.3-1.1-17.6-3.5L183.9,268.2z"/>
			<path class="st4" d="M230.4,210.3c7.2,3.1,16.9,4.9,20.3,0.7l35.2-43.6c-7.3,1.5-17-3.5-27.1-11.4l-5.9,7.3
				c2.5,3.4,3.2,4.8,7,7.9l0.2,0.2c0.6,0.5,0.6,1.3,0.2,1.9L230.4,210.3z"/>
			<path class="st9" d="M249.8,163.1l2.6-3.2c0.4-0.6,1.3-0.6,1.9-0.2l0.2,0.2c12.3,10,26.8,13.4,31.6,7.4
				c4.7-5.8,0.9-16.7-8.5-24.3c-9.4-7.6-20.8-9.1-25.5-3.3l-5,6.1C244,149.6,245.4,156.2,249.8,163.1z"/>
			<path class="st9" d="M226.2,206.4c1.7,1.4,3.5,2.6,5.3,3.5l36.4-45c-9.8-8.2-15.6-18-15.7-25.5l-34.5,42.7
				C213,188,216.8,198.8,226.2,206.4z"/>
			<path class="st9" d="M182.7,270.4l43.4-53.7c-1.8-1-3.6-2.2-5.3-3.5c-7.4-6-11.6-14.1-11.4-20.7l-39.7,49.1
				C164.9,247.5,170.9,260.5,182.7,270.4z"/>
			<path class="st8" d="M217.8,216.8c9.4,7.6,19.7,10.4,24.4,4.6l9.6-11.9c-6.4,1.6-15.2-0.8-22.6-6.9c-7.4-6-11.6-14.1-11.4-20.7
				l-8.5,10.6C204.6,198.4,208.4,209.2,217.8,216.8z"/>
			<path class="st10" d="M125.6,79.3l6.7-0.9c0-5-5.1-8.6-7.7-10C125.3,71,125.6,77.5,125.6,79.3z"/>
			<path class="st10" d="M102.3,82.3c-0.2-2.1-0.8-8-0.6-10.6c-2.5,1.8-7.2,6.3-6.1,11.4L102.3,82.3z"/>
			<path class="st6" d="M128.9,62.3c0,0-8.6,6.7-15.5,1.1C113.4,63.4,121.9,56.1,128.9,62.3z"/>
			<path class="st2" d="M122.1,56.9c0,0-0.8,6.8-9.3,8.5C112.8,65.5,115,57,122.1,56.9z"/>
			<path class="st11" d="M99.5,82.7l29.2-3.8c0-0.4,0-0.8-0.1-1.3c-1.3-17.1-17.5-16.2-23.5-12.4c-3.1,2-7.7,7.1-6,15.9
				C99.3,81.6,99.4,82.1,99.5,82.7z"/>
			<path class="st2" d="M108.5,59.1c0,0-0.3,2,1.6,3.2C110.1,62.4,110.4,61.5,108.5,59.1z"/>
			<path class="st12" d="M111.4,63.9c-0.9-1-2.1-3.8-6.4-3.1"/>
			<path class="st3" d="M105.1,60.7c0,0,1.6-2.5,2-1.3C107.5,60.6,105.3,61.6,105.1,60.7z"/>
			<path class="st3" d="M104.8,61.2c0,0,2.4-1.8,2.3-0.4C107.1,62.2,104.7,62.2,104.8,61.2z"/>
			<path class="st3" d="M104.8,61.4c0,0-0.2-3,0.9-2.5C106.8,59.3,105.6,61.7,104.8,61.4z"/>
			<path class="st3" d="M106.2,61.3c0,0-3.2,1.2-2.7-0.3C104.1,59.5,106.6,60.3,106.2,61.3z"/>
			<path class="st3" d="M105,61c0,0-2.1,1-1.1,1.8C104.9,63.5,105.7,61.4,105,61z"/>
			<path class="st3" d="M104.4,61.2c0,0,1.1,2.8,1.8,1.5C106.9,61.5,104.8,60.3,104.4,61.2z"/>
			<path class="st4" d="M105.7,61.5c0.4-0.5,0.5-1.2,0.2-1.5c-0.3-0.3-1,0-1.4,0.5c-0.4,0.5-0.5,1.2-0.2,1.5
				C104.6,62.3,105.3,62.1,105.7,61.5z"/>
			<path d="M110.2,71.2c0.8,0.3-2.3,1.4-2.4,1.2c-0.1-0.2,1.5-0.8,1.4-0.9c-0.1-0.2-1.6-0.3-1.6-0.4C107.6,70.9,109.4,71,110.2,71.2
				z"/>
			<path d="M113.6,70.8c-0.7,0.5,2.6,0.8,2.7,0.6c0.1-0.2-1.6-0.4-1.6-0.5c0.1-0.2,1.5-0.7,1.4-0.8
				C116.1,69.8,114.3,70.3,113.6,70.8z"/>
			<path d="M113.5,73c0,0.2-0.7,0.3-1.5,0.4c-0.8,0.1-1.5,0.2-1.5,0c0-0.2,0.6-0.5,1.5-0.6C112.7,72.6,113.4,72.7,113.5,73z"/>
			<path class="st13" d="M126.3,69.5c-1.1-1.8-2.4-3.2-3.9-4.2c3.7-0.8,6.5-3,6.5-3c-2.6-2.3-5.4-2.7-7.9-2.4c0.9-1.6,1-2.9,1-2.9
				c-4.5,0-7,3.5-8.3,6c-0.9,0-1.8,0.1-2.7,0.2c0,0,0,0,0,0c-0.3-0.4-0.6-0.8-1.1-1.2c-0.1-0.5-0.5-1.3-1.6-2.7c0,0-0.1,0.9,0.3,1.8
				c-0.5-0.2-1-0.4-1.7-0.5c0-0.1-0.1-0.1-0.1-0.1c0.2-0.3,0.3-0.6,0.2-0.9c-0.2-0.5-0.6-0.4-1,0c0-0.3-0.2-0.5-0.4-0.6
				c-0.6-0.2-0.9,0.6-0.9,1.3c-0.5,0-1,0.3-1.3,0.8c-0.2,0.5,0,0.7,0.4,0.7c-0.3,0.3-0.4,0.7,0,1c0.4,0.3,0.9,0.1,1.1-0.3
				c0.4,0.6,0.8,1,1.2,0.4c0.2-0.3,0.2-0.7,0-1c0.4-0.1,0.7-0.3,0.8-0.7c1.8,0.2,2.7,1.3,3.3,2.1c-2.1,0.4-3.9,1.1-5.3,2
				c-2.2,1.4-5,4.2-6,8.8c-2.2,2.3-4.3,5.5-3.5,9.2l3.9-0.5l2.7-0.4l23.4-3l3.1-0.4l3.6-0.5C132.4,74.3,129,71.2,126.3,69.5z"/>
			<path class="st6" d="M166.4,61.5c0,0-9.6,2.7-16.2-3.5C150.2,58,158,54.7,166.4,61.5z"/>
			<path class="st2" d="M160.7,57.2c0,0-3.1,2.4-12,2C148.8,59.2,151.4,53.7,160.7,57.2z"/>
			<path class="st11" d="M138.5,77.6l30-3.9c0-0.3,0-0.7-0.1-1.1c-1.3-17.7-18-16.8-24.1-12.9c-3.2,2.1-7.9,7.3-6.1,16.4
				C138.3,76.6,138.4,77.1,138.5,77.6z"/>
			<path d="M148.2,67.9c0.1,0.6-0.4,0.9-1,1c-0.6,0.1-1.1-0.1-1.2-0.7c-0.1-0.6,0.3-1.1,0.9-1.2C147.5,66.9,148.1,67.3,148.2,67.9z"
				/>
			<path d="M157,66.7c0.1,0.6-0.4,0.9-1,1c-0.6,0.1-1.1-0.1-1.2-0.7c-0.1-0.6,0.3-1.1,0.9-1.2C156.4,65.7,156.9,66.1,157,66.7z"/>
			<path class="st10" d="M161.1,61.9c1.9,1.6,5.9,5.3,6,6.1c0.2,0.8-5.8,1.4-9-0.4c-1.7-0.9-3.1-2.6-3.9-5.2c-0.9-3.1,1-3.2,2.8-2.7
				C158.5,60.1,159.9,60.9,161.1,61.9z"/>
			<path class="st2" d="M147.6,55.2c0,0,0,1.8,1.8,2.7C149.4,57.9,149.5,57.1,147.6,55.2z"/>
			<path class="st14" d="M150.6,59.1c-0.9-0.7-2.2-3.1-5.7-1.9"/>
			<path class="st3" d="M144.1,57c0,0-1.2,2.3-0.2,2.1C145,59,144.8,56.8,144.1,57z"/>
			<path class="st3" d="M144.4,56.6c0,0-0.4,2.6,0.6,2C146,58,145.1,56.1,144.4,56.6z"/>
			<path class="st3" d="M144.5,56.5c0,0-2.3,1-1.5,1.7C143.7,59,145.1,57,144.5,56.5z"/>
			<path class="st3" d="M145,57.6c0,0-0.3-3.1-1.2-2C142.8,56.6,144.4,58.4,145,57.6z"/>
			<path class="st3" d="M144.3,56.9c0,0,0-2.1,0.9-1.6C146.1,55.7,144.9,57.2,144.3,56.9z"/>
			<path class="st3" d="M144.3,56.3c0,0,2.5-0.2,1.8,0.8C145.4,58.1,143.7,56.9,144.3,56.3z"/>
			<path class="st4" d="M145,57.1c0.2-0.6,0.1-1.1-0.2-1.3c-0.3-0.1-0.8,0.2-1,0.8c-0.2,0.6-0.1,1.1,0.2,1.3
				C144.3,58,144.7,57.7,145,57.1z"/>
			<path class="st10" d="M146,61.1c-1.6,0.5-3,1.5-4.1,2.9c-1.6,2.1-3.5,5.9-3.5,6.5c-0.1,0.9,8.7,0.9,10.6-6.9
				C149.7,60.5,147.8,60.5,146,61.1z"/>
			<path d="M153,71.6c0.1,0.5-0.5,0.1-1,0.1c-0.5,0.1-1.1,0.6-1.2,0.1c-0.1-0.5,0.5-1.4,1-1.5C152.3,70.4,152.8,70.5,153,71.6z"/>
			<path class="st7" d="M152.1,71.1l-0.3,0c-0.1,0-0.3-0.1-0.3-0.2l0-0.4c0.1-0.1,0.5-0.1,0.7-0.1l0,0.4
				C152.4,71,152.3,71.1,152.1,71.1z"/>
			<path class="st15" d="M164.3,61.9c1.3-0.2,2.1-0.4,2.1-0.4c-2.4-2-4.8-3.1-6.9-3.7c0.9-0.4,1.3-0.7,1.3-0.7
				c-6.1-2.3-9.3-0.8-10.8,0.6c-0.1,0-0.1,0-0.2,0c-0.2-0.1-0.3-0.3-0.5-0.4c-0.2-0.4-0.6-1.1-1.7-2.1c0,0,0,0.8,0.5,1.5
				c-0.5-0.2-1.2-0.3-1.9-0.2c-0.1-0.2-0.4-0.3-0.8-0.3c0.2-0.4,0.2-0.8-0.2-1c-0.4-0.2-0.6,0-0.7,0.4c-0.2-0.3-0.4-0.4-0.7-0.1
				c-0.4,0.4-0.3,0.9-0.1,1.3c-0.5,0.3-1.1,0.8-0.7,1.3c0.2,0.2,0.4,0.2,0.6,0.1c-0.1,0.5-0.1,0.9,0.4,0.8c0.3,0,0.5-0.2,0.6-0.5
				c0.1,0.1,0.2,0.1,0.4,0c0.4-0.3,0.5-0.7,0.4-1.1c0.2,0,0.3-0.1,0.5-0.1c1.4-0.3,2.4,0.1,3.1,0.6c-1.8,0.4-3.4,1.1-4.6,1.8
				c-3.2,2.1-7.9,7.3-6.1,16.4c0.1,0.4,0.2,0.9,0.3,1.4l30-3.9c0-0.3,0-0.7-0.1-1.1C168,67.8,166.5,64.3,164.3,61.9z"/>
			<path class="st6" d="M141.3,52c0,0-0.6,10-7.7,11.5C133.5,63.5,132.4,56.9,141.3,52z"/>
			<path class="st16" d="M132.9,52.1c0,0,4.4,3.6,1.8,10.3C134.6,62.3,132.5,61.3,132.9,52.1z"/>
			<path class="st10" d="M117,80.4l30.7-4c0-0.2,0-0.4,0-0.6c-1.4-17.9-18.3-17-24.6-13c-3.3,2.1-8.1,7.4-6.2,16.6
				C116.8,79.7,116.9,80.1,117,80.4z"/>
			<path d="M128.1,71.2c0.1,0.6-0.5-0.4-1.1-0.4c-0.6,0.1-0.9,1.2-1,0.6s0.3-1.1,0.9-1.2C127.5,70.2,128,70.6,128.1,71.2z"/>
			<path d="M136.5,70.1c0.1,0.6-0.5-0.4-1.1-0.4c-0.6,0.1-0.9,1.2-1,0.6c-0.1-0.6,0.3-1.1,0.9-1.2C135.9,69.1,136.5,69.5,136.5,70.1
				z"/>
			<path d="M133.6,72.7c0,0.3,0.4,1.8-1.8,2.1c-2.2,0.3-2.3-1.3-2.3-1.6c0-0.3,0.9-0.2,2-0.3C132.7,72.8,133.5,72.5,133.6,72.7z"/>
			<path class="st7" d="M131.5,73.4c-0.2,0-0.4-0.1-0.4-0.3l0-0.1l0.7-0.1l0,0.1C131.9,73.2,131.7,73.4,131.5,73.4z"/>
			<path class="st2" d="M127.8,58.4c0,0,1.2,0.2,1.5,1.5C129.3,59.9,128.9,59.9,127.8,58.4z"/>
			<path class="st2" d="M130.6,58.6c0,0,0.3,1.9-1.5,2.1C129.1,60.8,129.1,59.9,130.6,58.6z"/>
			<path class="st17" d="M129.4,62.1c-0.1-0.1-0.8-2.4,0.6-4.6"/>
			<path class="st3" d="M129.9,56.7c0,0-1.6-0.9-2-0.3C127.5,57.1,129.7,57.1,129.9,56.7z"/>
			<path class="st3" d="M129.9,56.7c0,0-2,0.2-1.6,0.9C128.6,58.2,130.2,57.1,129.9,56.7z"/>
			<path class="st3" d="M130.2,56.7c0,0-1.8,0.8-1.1,1.3C129.8,58.5,130.7,57,130.2,56.7z"/>
			<path class="st3" d="M130.3,56.6c0,0-0.8-1.7-1.3-1.1C128.5,56.2,130,57.1,130.3,56.6z"/>
			<path class="st3" d="M130.2,56.8c0,0,1.9-0.4,1.3-1.1C131,55.2,129.8,56.4,130.2,56.8z"/>
			<path class="st3" d="M130.4,57c0,0,0.5-1.5-0.1-1.4C129.6,55.5,129.9,57,130.4,57z"/>
			<path class="st3" d="M130.4,56.8c0,0,1.6-1,2-0.3C132.7,57.1,130.6,57.3,130.4,56.8z"/>
			<path class="st3" d="M130.3,56.7c0,0,2,0.1,1.7,0.8C131.6,58.2,130,57.1,130.3,56.7z"/>
			<path class="st3" d="M130.2,56.6c0,0,1.4,1.4,0.6,1.6C130,58.4,129.7,56.7,130.2,56.6z"/>
			<path class="st4" d="M130.2,57.2c0.6,0,1.1-0.2,1.1-0.5c0-0.2-0.5-0.4-1.1-0.4c-0.6,0-1.1,0.2-1.1,0.5
				C129.1,57,129.6,57.2,130.2,57.2z"/>
			<path class="st4" d="M168.6,75.1L96,84.5c-0.5,0.1-1-0.3-1.1-0.8c-0.1-0.5,0.3-1,0.8-1.1l72.6-9.4c0.5-0.1,1,0.3,1.1,0.8
				C169.5,74.5,169.1,75,168.6,75.1z"/>
		</g>
	</g>
</g>
</svg>
