<svg width="151" height="103" viewBox="0 0 151 103" fill="none" xmlns="http://www.w3.org/2000/svg">
<path d="M148.009 44.2185C148.009 44.2185 99.2257 51.4348 70.6443 17.0498C70.6443 17.0498 111.273 6.0311 148.009 44.2185Z" fill="#28C86E"/>
<path d="M123.013 19.5645C123.013 19.5645 106.478 29.234 62.9813 21.7518C62.9813 21.7723 79.1672 -3.20897 123.013 19.5645Z" fill="#28C86E"/>
<path d="M0.655528 102.522H150.611C150.672 101.561 150.734 100.58 150.795 99.5371C155.405 12.859 73.2871 6.84881 40.5261 22.0379C23.4182 29.9698 -2.76605 52.5592 0.245758 97.6563C0.348201 99.1691 0.471131 100.805 0.655528 102.522Z" fill="#80E6ED"/>
<path d="M54.397 63.578C54.397 66.5218 51.9999 67.8915 49.0495 67.8915C46.0992 67.8915 43.702 66.5218 43.702 63.578C43.702 60.6343 46.0992 58.2424 49.0495 58.2424C51.9999 58.2424 54.397 60.6343 54.397 63.578Z" fill="black"/>
<path d="M98.4264 63.578C98.4264 66.5218 96.0293 67.8915 93.0789 67.8915C90.1286 67.8915 87.7314 66.5218 87.7314 63.578C87.7314 60.6343 90.1286 58.2424 93.0789 58.2424C96.0293 58.2424 98.4264 60.6343 98.4264 63.578Z" fill="black"/>
<path d="M59.6416 1.90137C59.6416 1.90137 58.5762 10.8145 66.7715 15.9661C66.7715 15.9661 67.9189 12.409 59.6416 1.90137Z" fill="#28C86E"/>
<path d="M72.0781 22.6304C68.2263 18.5418 63.1861 6.11252 45.3202 9.97623" stroke="#28C86E" stroke-width="1.6329" stroke-miterlimit="10" stroke-linecap="round"/>
<path d="M41.3457 8.36153C41.3457 8.36153 33.8469 18.7057 39.092 18.5217C44.337 18.3581 45.0746 7.91178 41.3457 8.36153Z" fill="#FFCF8D"/>
<path d="M43.0462 6.56258C43.0462 6.56258 39.1739 19.0737 44.5214 16.7023C49.8689 14.3309 46.7136 4.57962 43.0462 6.56258Z" fill="#FFCF8D"/>
<path d="M43.5993 6.03101C43.5993 6.03101 31.7775 9.2201 34.9532 13.4313C38.1289 17.6426 46.0989 8.74992 43.5993 6.03101Z" fill="#FFCF8D"/>
<path d="M45.2588 11.8978C45.2588 11.8978 45.648 -3.14818 40.5259 1.30838C35.4038 5.76494 41.8577 15.3322 45.2588 11.8978Z" fill="#FFCF8D"/>
<path d="M42.3906 7.6664C42.3906 7.6664 43.6404 -2.37107 47.7996 0.531821C51.9587 3.43472 45.1361 9.91513 42.3906 7.6664Z" fill="#FFCF8D"/>
<path d="M42.6976 4.82495C42.6976 4.82495 55.0726 5.49957 51.0569 9.97657C47.0412 14.4536 39.6243 7.76873 42.6976 4.82495Z" fill="#FFCF8D"/>
<path d="M45.5485 9.36423C47.0223 6.73256 46.9357 3.88482 45.3551 3.00363C43.7746 2.12245 41.2986 3.5415 39.8248 6.17317C38.3511 8.80484 38.4377 11.6526 40.0182 12.5338C41.5987 13.4149 44.0747 11.9959 45.5485 9.36423Z" fill="#FF9F1A"/>
<path d="M75.6844 84.6137C75.6844 87.026 73.1643 84.6955 70.7671 84.6955C68.37 84.6955 64.887 87.0668 64.887 84.675C64.887 82.2628 68.4315 78.2764 70.8286 78.2764C73.1233 78.256 75.6844 79.3803 75.6844 84.6137Z" fill="black"/>
<path d="M71.9142 81.8335H70.5825C69.9269 81.8335 69.3942 81.302 69.3942 80.6478L69.5581 78.5831C70.2342 78.072 72.1396 78.2151 73.164 78.767L73.1026 80.6478C73.1026 81.302 72.5699 81.8335 71.9142 81.8335Z" fill="white"/>
<path opacity="0.5" d="M137.58 44.8324C143.972 44.7915 148.009 44.1987 148.009 44.1987C137.416 33.1799 126.496 26.2702 116.313 21.9977C120.923 20.7711 122.992 19.5445 122.992 19.5445C94.6566 4.82559 77.8766 10.0794 69.5583 15.6195C69.2714 15.6399 69.0051 15.6399 68.7182 15.6603C68.0216 14.8631 67.2635 14.0454 66.4235 13.2685C65.7679 11.1016 64.0264 7.48317 59.6213 1.90225C59.6213 1.90225 59.1911 5.56153 61.0555 9.56835C58.4945 8.34177 55.3802 7.58538 51.6104 7.60583C51.0777 6.6859 49.6025 6.05216 47.9839 5.62286C49.2542 3.96699 49.7049 1.86136 47.779 0.51213C46.0375 -0.694003 44.8287 0.369029 43.9886 1.98402C43.292 0.471244 42.2061 -0.18293 40.5261 1.26852C38.5387 3.00617 38.2928 5.50021 38.9485 7.70804C36.0391 9.03683 33.1707 11.0811 34.9532 13.4116C35.7113 14.4133 36.7357 14.6586 37.8216 14.4338C36.9406 16.6416 36.7972 18.5632 39.0919 18.4815C40.5056 18.4406 41.571 17.6433 42.3291 16.5189C42.7593 17.0096 43.4559 17.1322 44.5009 16.662C46.6726 15.7012 47.4307 13.5138 47.3283 11.4082C48.1273 11.49 48.9264 11.3673 49.6639 10.9994C56.8144 10.4065 61.2604 12.8597 64.4566 15.967C55.2778 16.8665 46.9595 19.013 40.5261 21.9977C23.4182 29.9704 -2.76605 52.5598 0.245758 97.6569C0.348201 99.1902 0.49162 100.826 0.676016 102.522H150.631C150.693 101.562 150.754 100.58 150.816 99.5377C152.086 75.5377 146.718 57.7319 137.58 44.8324Z" fill="black"/>
</svg>
