<svg width="151" height="113" viewBox="0 0 151 113" fill="none" xmlns="http://www.w3.org/2000/svg">
<path d="M144.956 19.6165C144.956 19.6165 111.068 47.01 85.0475 28.7136C85.0475 28.7136 102.77 5.5313 144.956 19.6165Z" fill="#00A878"/>
<path d="M117.276 6.45142C117.276 6.45142 111.928 30.4514 80.6627 33.3748C80.6627 33.3543 80.4988 22.8671 117.276 6.45142Z" fill="#3CDC82"/>
<path d="M0.655434 113H150.611C150.672 112.039 150.733 111.058 150.795 110.015C155.405 23.3373 73.287 17.3271 40.526 32.5162C23.3976 40.448 -2.78663 63.0579 0.204688 108.135C0.348107 109.668 0.471038 111.283 0.655434 113Z" fill="#00CDDC"/>
<path d="M59.8874 75.5684C59.8874 78.3282 57.6542 73.0948 54.8882 73.0948C52.1223 73.0948 49.889 78.3282 49.889 75.5684C49.889 72.8086 52.1223 70.5803 54.8882 70.5803C57.6542 70.5803 59.8874 72.8086 59.8874 75.5684Z" fill="black"/>
<path d="M101.11 75.5685C101.11 78.3283 98.8771 73.095 96.1111 73.095C93.3452 73.095 91.1119 78.3283 91.1119 75.5685C91.1119 72.8087 93.3452 70.5805 96.1111 70.5805C98.8771 70.56 101.11 72.8087 101.11 75.5685Z" fill="black"/>
<path d="M85.2522 86.5671C85.2522 87.9368 86.1947 95.6642 75.2334 95.6642C64.272 95.6642 65.2145 87.9368 65.2145 86.5671C65.2145 85.1974 69.7015 86.3626 75.2334 86.3626C80.7653 86.3626 85.2522 85.1974 85.2522 86.5671Z" fill="black"/>
<path d="M75.5201 88.4271H74.7005C73.9629 88.4271 73.3688 87.8342 73.3688 87.0983V86.301H76.8313V87.0983C76.8518 87.8342 76.2576 88.4271 75.5201 88.4271Z" fill="white"/>
<path d="M66.4849 14.3628C66.4849 14.3628 72.0168 15.8756 72.9183 22.2742C72.9183 22.2946 70.5006 22.1311 66.4849 14.3628Z" fill="#28C86E"/>
<path d="M79.8227 17.2041C79.8227 17.2041 80.1505 26.4239 71.1151 26.4852C71.1356 26.4648 71.5863 22.2944 79.8227 17.2041Z" fill="#28C86E"/>
<path d="M71.6685 32.9248C71.3202 32.3933 69.1689 20.8226 77.3438 11.3779" stroke="#28C86E" stroke-width="0.7931" stroke-miterlimit="10" stroke-linecap="round"/>
<path d="M77.5279 7.26899C77.5279 7.26899 70.4798 1.85164 68.1851 4.79541C65.9109 7.71874 76.2166 9.39505 77.5279 7.26899Z" fill="#FFCF8D"/>
<path d="M77.4462 7.18706C77.4462 7.18706 67.6937 7.00308 69.1279 10.3966C70.5416 13.7901 78.696 9.45622 77.4462 7.18706Z" fill="#FFCF8D"/>
<path d="M78.9824 7.71899C78.9824 7.71899 69.9879 10.2744 72.8358 13.1159C75.6837 15.9575 81.1746 9.51797 78.9824 7.71899Z" fill="#FFCF8D"/>
<path d="M79.7406 7.20767C79.7406 7.20767 76.7903 -1.64412 74.0653 1.32011C71.3404 4.26389 78.0196 9.45639 79.7406 7.20767Z" fill="#FFCF8D"/>
<path d="M79.1056 8.2502C79.1056 8.2502 88.4074 7.26895 86.0922 3.97765C83.777 0.68635 77.2616 6.1037 79.1056 8.2502Z" fill="#FFCF8D"/>
<path d="M79.6995 8.92508C79.6995 8.92508 83.2645 2.19936 80.1502 1.9336C77.036 1.66784 77.5073 8.96596 79.6995 8.92508Z" fill="#FFCF8D"/>
<path d="M79.6996 8.25036C79.6996 8.25036 87.772 4.48886 89.3496 7.86196C90.9273 11.2146 80.4986 10.6217 79.6996 8.25036Z" fill="#FFCF8D"/>
<path d="M79.597 7.57568C79.597 7.57568 89.1446 9.51776 87.0138 12.5229C84.883 15.5484 77.8759 9.51776 79.597 7.57568Z" fill="#FFCF8D"/>
<path d="M79.2486 7.12598C79.2486 7.12598 84.9649 14.5263 80.9697 15.1191C76.9744 15.6915 76.4007 7.26908 79.2486 7.12598Z" fill="#FFCF8D"/>
<path d="M84.1345 8.42456C84.2672 7.22374 82.0132 5.99047 79.1001 5.66998C76.187 5.34948 73.7178 6.06313 73.5851 7.26395C73.4524 8.46477 75.7064 9.69804 78.6195 10.0185C81.5326 10.339 84.0018 9.62538 84.1345 8.42456Z" fill="#FF9F1A"/>
</svg>
