<?xml version="1.0" encoding="utf-8"?>
<!-- Generator: Adobe Illustrator 25.1.0, SVG Export Plug-In . SVG Version: 6.00 Build 0)  -->
<svg version="1.1" id="Layer_1" xmlns="http://www.w3.org/2000/svg" xmlns:xlink="http://www.w3.org/1999/xlink" x="0px" y="0px"
	 viewBox="0 0 271 136" style="enable-background:new 0 0 271 136;" xml:space="preserve">
<style type="text/css">
	.st0{fill:#F0EDEB;stroke:#FFFFFF;stroke-width:3;}
	.st1{fill:#00CDDC;}
	.st2{fill:#28C86E;}
	.st3{fill:#3CDC82;}
	.st4{fill:#32DCD2;}
	.st5{fill:#FFFFFF;}
	.st6{fill:#FFCF8D;}
	.st7{fill:#FF9F1A;}
	.st8{fill:#FFC069;}
</style>
<g>
	<g>
		<circle class="st0" cx="232" cy="68" r="37.5"/>
		<circle class="st0" cx="39" cy="68" r="37.5"/>
		<circle class="st0" cx="135" cy="68" r="66.5"/>
		<path class="st1" d="M160.7,63.9c0,1.4-4.8,1.4-8.6-0.7c-6.1-3-18.3-15.4-10.9-28.8C146.5,24.9,160.6,64.1,160.7,63.9z"/>
		<path class="st1" d="M113,58.2c0.3,1.2,1.5,4.1,7.3,2.5c4.8-4.8,18.9-18.6,8.7-27.5C121.7,26.8,113.2,58.4,113,58.2z"/>
		<path class="st2" d="M164.4,56.5c0,0-22.8,6.9-32.1-7.8C132.4,48.7,146.1,40.6,164.4,56.5z"/>
		<path class="st3" d="M153.2,44.1c0,0-7.7,11-24,6.1C129.2,50.1,131.3,44.8,153.2,44.1z"/>
		<path class="st4" d="M120.7,50.4c-6.6,3.1-16.8,11.9-15.6,29.4c0.3,4.7,1,13,3.9,17.9c2.9,4.9-1.2,9.7,0.3,14.4
			c2.6,8,9.3-4.5,30.2-6.2c12.5-1,20.4,6.7,20.8-2.1c0.2-3.3-5.4-4.3-3.6-9.5c2.2-6.5,6.2-3.7,6.7-13.7
			C165.2,46.9,133.4,44.5,120.7,50.4z"/>
		<path d="M126.1,69c0,1.1-0.9-1-2.1-1c-1.1,0-2.1,2.2-2.1,1s0.9-2.1,2.1-2.1C125.1,66.9,126.1,67.8,126.1,69z"/>
		<path d="M143.1,69c0,1.1-0.9-1-2.1-1c-1.1,0-2.1,2.2-2.1,1s0.9-2.1,2.1-2.1C142.2,66.9,143.1,67.8,143.1,69z"/>
		<path d="M136.6,73.5c0,0.6-1.6,3.7-3.9,3.7c-2.3,0-4.4-3.1-4.4-3.7c0-0.6,1.9-0.1,4.1-0.1C134.7,73.4,136.6,73,136.6,73.5z"/>
		<path class="st5" d="M132.8,74.3h-0.9c-0.1,0-0.3-0.1-0.3-0.3v-0.6h1.4V74C133.1,74.2,133,74.3,132.8,74.3z"/>
		<path class="st6" d="M137.1,34h-2.8v2.6h2.8V34z"/>
		<path class="st6" d="M130.7,28.7c-1.5-0.6-3.5-2.2-3.5-3.7v-1h2.5v-2h-3.6c-0.6,0-1.1,0.4-1.1,1v2c0,2.7,3,5.2,5.6,5.9V28.7z"/>
		<path class="st6" d="M140.8,28.7c1.5-0.6,3.5-2.2,3.5-3.7v-1h-2.5v-2h3.6c0.6,0,1.1,0.4,1.1,1v2c0,2.7-3,5.2-5.6,5.9V28.7z"/>
		<path class="st7" d="M142.7,20.5c0,0-0.3-0.5-0.6-0.5h-12.6c-0.3,0-0.6,0.5-0.6,0.5l0,7.4c0,1,0.3,6.9,7,6.9c6.7,0,7-5.9,7-6.9
			L142.7,20.5z"/>
		<path class="st6" d="M136.2,24.2l0.6,1.2c0.1,0.1,0.2,0.2,0.4,0.3l1.4,0.2c0.4,0.1,0.6,0.5,0.3,0.8l-1,1c-0.1,0.1-0.2,0.3-0.1,0.4
			l0.2,1.4c0.1,0.4-0.3,0.7-0.7,0.5l-1.2-0.6c-0.1-0.1-0.3-0.1-0.4,0l-1.2,0.6c-0.4,0.2-0.8-0.1-0.7-0.5l0.2-1.4
			c0-0.2,0-0.3-0.1-0.4l-1-1c-0.3-0.3-0.1-0.8,0.3-0.8l1.4-0.2c0.2,0,0.3-0.1,0.4-0.3l0.6-1.2C135.5,23.9,136,23.9,136.2,24.2z"/>
		<path class="st7" d="M141.6,38.6h-11.7c-0.3,0-0.6,0.2-0.6,0.5c0,0,0,0,0,0v2.4c0,0.3,0.3,0.6,0.7,0.6h11.5c0.4,0,0.7-0.3,0.7-0.6
			v-2.4c0-0.1,0-0.2-0.1-0.2C142,38.7,141.8,38.6,141.6,38.6z"/>
		<path class="st7" d="M139.3,38.6v-1.6c0-0.4-0.3-0.7-0.7-0.7l-5.9,0c-0.3,0.1-0.5,0.3-0.5,0.7v1.6L139.3,38.6L139.3,38.6z"/>
		<circle class="st5" cx="232.1" cy="73.5" r="10"/>
		<path class="st6" d="M217.4,48l5.2,17.8l10.8-4.3L229.8,48H217.4z"/>
		<path class="st8" d="M234.3,48l-4,13.4l10.6,2.8l5.2-16.2H234.3z"/>
		<path class="st2" d="M220.3,61.7c0,0,0.8,2-1.1,3C219.2,64.6,218.6,63.5,220.3,61.7z"/>
		<path class="st2" d="M216,64c0,0,1.5,1.9,3.4,1.4C219.4,65.4,218.8,64.1,216,64z"/>
		<path class="st2" d="M220.4,69.3c-0.1,0-0.1,0-0.2,0c-0.2-0.1-0.3-0.3-0.2-0.5c0.1-0.5-0.1-3.9-4.3-7.5c-0.2-0.1-0.2-0.4,0-0.6
			c0.1-0.2,0.4-0.2,0.6,0c4.9,4.1,4.7,8,4.5,8.5C220.7,69.2,220.5,69.3,220.4,69.3z"/>
		<path class="st6" d="M215,59.3c0,0,1.4-3.2,2.8-2.6C219.2,57.3,215.9,59.8,215,59.3z"/>
		<path class="st6" d="M215,59.3c0,0,3.4-1.9,3.5-0.4C218.7,60.3,215,60.3,215,59.3z"/>
		<path class="st6" d="M214.6,59.8c0,0,3.6-0.8,3.2,0.7C217.3,62,214.2,60.8,214.6,59.8z"/>
		<path class="st6" d="M214.2,59.7c0,0-0.6-3.7,0.9-3.1C216.6,57.1,215.3,60.2,214.2,59.7z"/>
		<path class="st6" d="M214.7,60c0,0-3.4,1.4-3.3-0.2C211.6,58.2,214.9,58.9,214.7,60z"/>
		<path class="st6" d="M214.6,60.3c0,0-2.5-1.7-1.5-2.4C214.1,57.3,215.4,59.9,214.6,60.3z"/>
		<path class="st6" d="M214.5,60.1c0,0-3.5,0.2-3.5,1.7C211.1,63.2,214.6,61.1,214.5,60.1z"/>
		<path class="st6" d="M214.4,59.8c0,0-3,2.5-1.7,3.1C214,63.6,215.3,60.2,214.4,59.8z"/>
		<path class="st6" d="M214.4,59.6c0,0-0.6,3.7,0.9,3.1C216.8,62.2,215.4,59.1,214.4,59.6z"/>
		<path class="st7" d="M215.2,60.5c1-0.7,1.5-1.5,1.2-1.9c-0.3-0.4-1.3-0.2-2.2,0.5c-1,0.7-1.5,1.5-1.2,1.9
			C213.2,61.4,214.2,61.2,215.2,60.5z"/>
		<path class="st2" d="M242.7,61.7c0,0-0.8,2,1.1,3C243.8,64.6,244.4,63.5,242.7,61.7z"/>
		<path class="st2" d="M247,64c0,0-1.5,1.9-3.4,1.4C243.6,65.4,244.2,64.1,247,64z"/>
		<path class="st2" d="M242.6,69.3c-0.2,0-0.3-0.1-0.4-0.2c-0.2-0.4-0.4-4.3,4.5-8.5c0.2-0.1,0.4-0.1,0.6,0c0.1,0.2,0.1,0.4,0,0.6
			c-4.3,3.6-4.4,7-4.3,7.5c0.1,0.2,0,0.4-0.2,0.5C242.7,69.3,242.7,69.3,242.6,69.3z"/>
		<path class="st6" d="M248,59.3c0,0-1.5-3.2-2.8-2.6C243.8,57.3,247.1,59.8,248,59.3z"/>
		<path class="st6" d="M248,59.3c0,0-3.4-1.9-3.5-0.4C244.3,60.3,248,60.3,248,59.3z"/>
		<path class="st6" d="M248.4,59.8c0,0-3.6-0.8-3.2,0.7C245.7,62,248.8,60.8,248.4,59.8z"/>
		<path class="st6" d="M248.8,59.7c0,0,0.6-3.7-0.9-3.1C246.4,57.1,247.7,60.2,248.8,59.7z"/>
		<path class="st6" d="M248.3,60c0,0,3.4,1.4,3.3-0.2C251.4,58.2,248.1,58.9,248.3,60z"/>
		<path class="st6" d="M248.4,60.3c0,0,2.5-1.7,1.5-2.4C248.9,57.3,247.6,59.9,248.4,60.3z"/>
		<path class="st6" d="M248.5,60.1c0,0,3.5,0.2,3.5,1.7C251.9,63.2,248.4,61.1,248.5,60.1z"/>
		<path class="st6" d="M248.6,59.8c0,0,3,2.5,1.7,3.1C249,63.6,247.7,60.2,248.6,59.8z"/>
		<path class="st6" d="M248.6,59.6c0,0,0.6,3.7-0.9,3.1C246.2,62.2,247.6,59.1,248.6,59.6z"/>
		<path class="st7" d="M250.1,61c0.3-0.4-0.3-1.3-1.2-1.9c-1-0.7-2-0.9-2.2-0.5c-0.3,0.4,0.3,1.3,1.2,1.9
			C248.8,61.2,249.8,61.4,250.1,61z"/>
		<path class="st7" d="M245,75.6c0.5-0.6,1-1.3,1-2.2s-0.6-1.6-1-2.2c-0.2-0.3-0.5-0.6-0.5-0.8c-0.1-0.2,0.1-0.6,0.2-0.9
			c0.2-0.7,0.4-1.6-0.1-2.4c-0.4-0.8-1.2-1.2-1.8-1.5c-0.3-0.2-0.7-0.3-0.8-0.5c-0.1-0.2-0.2-0.6-0.3-0.9c-0.2-0.7-0.4-1.6-1.1-2.1
			c-0.7-0.6-1.6-0.6-2.3-0.6c-0.4,0-0.8,0-0.9-0.1c-0.2-0.1-0.4-0.4-0.6-0.7c-0.5-0.6-1-1.3-1.9-1.5c-0.2-0.1-0.3-0.1-0.5-0.1
			c-0.7,0-1.3,0.3-1.8,0.6c-0.3,0.2-0.7,0.4-0.9,0.4c-0.2,0-0.6-0.2-0.9-0.4c-0.5-0.3-1.1-0.6-1.8-0.6c-0.2,0-0.4,0-0.5,0.1
			c-0.9,0.2-1.5,0.9-1.9,1.5c-0.2,0.3-0.5,0.6-0.6,0.7c-0.2,0.1-0.6,0.1-0.9,0.1c-0.7,0-1.6,0-2.3,0.6c-0.7,0.6-0.9,1.4-1.1,2.1
			c-0.1,0.3-0.2,0.8-0.3,0.9c-0.1,0.2-0.5,0.3-0.8,0.5c-0.7,0.3-1.5,0.7-1.8,1.5c-0.4,0.8-0.2,1.7-0.1,2.4c0.1,0.4,0.2,0.8,0.2,0.9
			c-0.1,0.2-0.3,0.5-0.5,0.8c-0.5,0.6-1,1.3-1,2.2s0.6,1.6,1,2.2c0.2,0.3,0.5,0.6,0.5,0.8c0.1,0.2-0.1,0.6-0.2,0.9
			c-0.2,0.7-0.4,1.6,0.1,2.4c0.4,0.8,1.2,1.2,1.8,1.5c0.3,0.2,0.7,0.3,0.8,0.5c0.1,0.2,0.2,0.6,0.3,0.9c0.2,0.7,0.4,1.6,1.1,2.1
			c0.7,0.6,1.6,0.6,2.3,0.6c0.4,0,0.8,0,0.9,0.1c0.2,0.1,0.4,0.4,0.6,0.7c0.5,0.6,1,1.3,1.9,1.5c0.2,0.1,0.3,0.1,0.5,0.1
			c0.7,0,1.3-0.3,1.8-0.6c0.3-0.2,0.7-0.4,0.9-0.4c0.2,0,0.6,0.2,0.9,0.4c0.5,0.3,1.1,0.6,1.8,0.6c0.2,0,0.4,0,0.5-0.1
			c0.9-0.2,1.5-0.9,1.9-1.5c0.2-0.3,0.5-0.6,0.6-0.7c0.2-0.1,0.6-0.1,0.9-0.1c0.7,0,1.6,0,2.3-0.6c0.7-0.6,0.9-1.4,1.1-2.1
			c0.1-0.3,0.2-0.8,0.3-0.9c0.1-0.2,0.5-0.3,0.8-0.5c0.7-0.3,1.5-0.7,1.8-1.5c0.4-0.8,0.2-1.7,0.1-2.4c-0.1-0.4-0.2-0.8-0.2-0.9
			C244.5,76.2,244.8,75.8,245,75.6z M231.5,82.2c-4.9,0-8.9-4-8.9-8.9s4-8.9,8.9-8.9s8.9,4,8.9,8.9S236.4,82.2,231.5,82.2z"/>
		<path class="st6" d="M232.1,67.7l1.3,2.7c0.1,0.2,0.3,0.3,0.5,0.4l3,0.4c0.6,0.1,0.8,0.8,0.4,1.1l-2.2,2.1
			c-0.2,0.2-0.2,0.4-0.2,0.6l0.5,3c0.1,0.5-0.5,1-1,0.7l-2.7-1.4c-0.2-0.1-0.4-0.1-0.6,0l-2.7,1.4c-0.5,0.3-1.1-0.2-1-0.7l0.5-3
			c0-0.2,0-0.4-0.2-0.6l-2.2-2.1c-0.4-0.4-0.2-1.1,0.4-1.1l3-0.4c0.2,0,0.4-0.2,0.5-0.4l1.3-2.7C231.2,67.2,231.9,67.2,232.1,67.7z"
			/>
		<circle class="st5" cx="39.1" cy="73.5" r="10"/>
		<path class="st6" d="M24.4,48l5.2,17.8l10.8-4.3L36.8,48H24.4z"/>
		<path class="st8" d="M41.3,48l-4,13.4l10.6,2.8L53.1,48H41.3z"/>
		<path class="st2" d="M27.3,61.7c0,0,0.8,2-1.1,3C26.2,64.6,25.6,63.5,27.3,61.7z"/>
		<path class="st2" d="M23,64c0,0,1.5,1.9,3.4,1.4C26.4,65.4,25.8,64.1,23,64z"/>
		<path class="st2" d="M27.4,69.3c-0.1,0-0.1,0-0.2,0c-0.2-0.1-0.3-0.3-0.2-0.5c0.1-0.5-0.1-3.9-4.3-7.5c-0.2-0.1-0.2-0.4,0-0.6
			c0.1-0.2,0.4-0.2,0.6,0c4.9,4.1,4.7,8,4.5,8.5C27.7,69.2,27.5,69.3,27.4,69.3z"/>
		<path class="st6" d="M22,59.3c0,0,1.4-3.2,2.8-2.6C26.2,57.3,22.9,59.8,22,59.3z"/>
		<path class="st6" d="M22,59.3c0,0,3.4-1.9,3.5-0.4S22,60.3,22,59.3z"/>
		<path class="st6" d="M21.6,59.8c0,0,3.6-0.8,3.2,0.7C24.3,62,21.2,60.8,21.6,59.8z"/>
		<path class="st6" d="M21.2,59.7c0,0-0.6-3.7,0.9-3.1C23.6,57.1,22.3,60.2,21.2,59.7z"/>
		<path class="st6" d="M21.7,60c0,0-3.4,1.4-3.3-0.2C18.6,58.2,21.9,58.9,21.7,60z"/>
		<path class="st6" d="M21.6,60.3c0,0-2.5-1.7-1.5-2.4C21.2,57.3,22.4,59.9,21.6,60.3z"/>
		<path class="st6" d="M21.5,60.1c0,0-3.5,0.2-3.5,1.7C18.1,63.2,21.6,61.1,21.5,60.1z"/>
		<path class="st6" d="M21.4,59.8c0,0-3,2.5-1.7,3.1C21,63.6,22.3,60.2,21.4,59.8z"/>
		<path class="st6" d="M21.4,59.6c0,0-0.6,3.7,0.9,3.1C23.8,62.2,22.4,59.1,21.4,59.6z"/>
		<path class="st7" d="M22.2,60.5c1-0.7,1.5-1.5,1.2-1.9s-1.3-0.2-2.2,0.5c-1,0.7-1.5,1.5-1.2,1.9C20.2,61.4,21.2,61.2,22.2,60.5z"
			/>
		<path class="st2" d="M49.7,61.7c0,0-0.8,2,1.1,3C50.8,64.6,51.4,63.5,49.7,61.7z"/>
		<path class="st2" d="M54,64c0,0-1.5,1.9-3.4,1.4C50.6,65.4,51.2,64.1,54,64z"/>
		<path class="st2" d="M49.6,69.3c-0.2,0-0.3-0.1-0.4-0.2c-0.2-0.4-0.4-4.3,4.5-8.5c0.2-0.1,0.4-0.1,0.6,0c0.1,0.2,0.1,0.4,0,0.6
			c-4.3,3.6-4.4,7-4.3,7.5c0.1,0.2,0,0.4-0.2,0.5C49.7,69.3,49.7,69.3,49.6,69.3z"/>
		<path class="st6" d="M55,59.3c0,0-1.4-3.2-2.8-2.6C50.8,57.3,54.1,59.8,55,59.3z"/>
		<path class="st6" d="M55,59.3c0,0-3.4-1.9-3.5-0.4C51.3,60.3,55,60.3,55,59.3z"/>
		<path class="st6" d="M55.4,59.8c0,0-3.6-0.8-3.2,0.7C52.7,62,55.8,60.8,55.4,59.8z"/>
		<path class="st6" d="M55.8,59.7c0,0,0.6-3.7-0.9-3.1S54.7,60.2,55.8,59.7z"/>
		<path class="st6" d="M55.3,60c0,0,3.4,1.4,3.3-0.2C58.4,58.2,55.1,58.9,55.3,60z"/>
		<path class="st6" d="M55.4,60.3c0,0,2.5-1.7,1.5-2.4C55.8,57.3,54.6,59.9,55.4,60.3z"/>
		<path class="st6" d="M55.5,60.1c0,0,3.5,0.2,3.5,1.7C58.9,63.2,55.4,61.1,55.5,60.1z"/>
		<path class="st6" d="M55.6,59.8c0,0,3,2.5,1.7,3.1C56,63.6,54.7,60.2,55.6,59.8z"/>
		<path class="st6" d="M55.6,59.6c0,0,0.6,3.7-0.9,3.1C53.2,62.2,54.6,59.1,55.6,59.6z"/>
		<path class="st7" d="M57.1,61c0.3-0.4-0.3-1.3-1.2-1.9c-1-0.7-2-0.9-2.2-0.5c-0.3,0.4,0.3,1.3,1.2,1.9
			C55.8,61.2,56.8,61.4,57.1,61z"/>
		<path class="st7" d="M52,75.6c0.5-0.6,1-1.3,1-2.2s-0.6-1.6-1-2.2c-0.2-0.3-0.5-0.6-0.5-0.8c-0.1-0.2,0.1-0.6,0.2-0.9
			c0.2-0.7,0.4-1.6-0.1-2.4c-0.4-0.8-1.2-1.2-1.8-1.5c-0.3-0.2-0.7-0.3-0.8-0.5c-0.1-0.2-0.2-0.6-0.3-0.9c-0.2-0.7-0.4-1.6-1.1-2.1
			c-0.7-0.6-1.6-0.6-2.3-0.6c-0.4,0-0.8,0-0.9-0.1c-0.2-0.1-0.4-0.4-0.6-0.7c-0.5-0.6-1-1.3-1.9-1.5c-0.2-0.1-0.3-0.1-0.5-0.1
			c-0.7,0-1.3,0.3-1.8,0.6c-0.3,0.2-0.7,0.4-0.9,0.4c-0.2,0-0.6-0.2-0.9-0.4c-0.5-0.3-1.1-0.6-1.8-0.6c-0.2,0-0.4,0-0.5,0.1
			c-0.9,0.2-1.5,0.9-1.9,1.5c-0.2,0.3-0.5,0.6-0.6,0.7c-0.2,0.1-0.6,0.1-0.9,0.1c-0.7,0-1.6,0-2.3,0.6c-0.7,0.6-0.9,1.4-1.1,2.1
			c-0.1,0.3-0.2,0.8-0.3,0.9c-0.1,0.2-0.5,0.3-0.8,0.5c-0.7,0.3-1.5,0.7-1.8,1.5c-0.4,0.8-0.2,1.7-0.1,2.4c0.1,0.4,0.2,0.8,0.2,0.9
			c-0.1,0.2-0.3,0.5-0.5,0.8c-0.5,0.6-1,1.3-1,2.2s0.6,1.6,1,2.2c0.2,0.3,0.5,0.6,0.5,0.8c0.1,0.2-0.1,0.6-0.2,0.9
			c-0.2,0.7-0.4,1.6,0.1,2.4c0.4,0.8,1.2,1.2,1.8,1.5c0.3,0.2,0.7,0.3,0.8,0.5c0.1,0.2,0.2,0.6,0.3,0.9c0.2,0.7,0.4,1.6,1.1,2.1
			c0.7,0.6,1.6,0.6,2.3,0.6c0.4,0,0.8,0,0.9,0.1c0.2,0.1,0.4,0.4,0.6,0.7c0.5,0.6,1,1.3,1.9,1.5c0.2,0.1,0.3,0.1,0.5,0.1
			c0.7,0,1.3-0.3,1.8-0.6c0.3-0.2,0.7-0.4,0.9-0.4c0.2,0,0.6,0.2,0.9,0.4c0.5,0.3,1.1,0.6,1.8,0.6c0.2,0,0.4,0,0.5-0.1
			c0.9-0.2,1.5-0.9,1.9-1.5c0.2-0.3,0.5-0.6,0.6-0.7c0.2-0.1,0.6-0.1,0.9-0.1c0.7,0,1.6,0,2.3-0.6c0.7-0.6,0.9-1.4,1.1-2.1
			c0.1-0.3,0.2-0.8,0.3-0.9c0.1-0.2,0.5-0.3,0.8-0.5c0.7-0.3,1.5-0.7,1.8-1.5c0.4-0.8,0.2-1.7,0.1-2.4c-0.1-0.4-0.2-0.8-0.2-0.9
			C51.5,76.2,51.8,75.8,52,75.6z M38.5,82.2c-4.9,0-8.9-4-8.9-8.9s4-8.9,8.9-8.9c4.9,0,8.9,4,8.9,8.9S43.4,82.2,38.5,82.2z"/>
		<path class="st6" d="M39.1,67.7l1.3,2.7c0.1,0.2,0.3,0.3,0.5,0.4l3,0.4c0.6,0.1,0.8,0.8,0.4,1.1l-2.2,2.1C42,74.6,41.9,74.8,42,75
			l0.5,3c0.1,0.5-0.5,1-1,0.7l-2.7-1.4c-0.2-0.1-0.4-0.1-0.6,0l-2.7,1.4c-0.5,0.3-1.1-0.2-1-0.7l0.5-3c0-0.2,0-0.4-0.2-0.6l-2.2-2.1
			c-0.4-0.4-0.2-1.1,0.4-1.1l3-0.4c0.2,0,0.4-0.2,0.5-0.4l1.3-2.7C38.2,67.2,38.9,67.2,39.1,67.7z"/>
	</g>
</g>
</svg>
