<?xml version="1.0" encoding="utf-8"?>
<!-- Generator: Adobe Illustrator 25.1.0, SVG Export Plug-In . SVG Version: 6.00 Build 0)  -->
<svg version="1.1" id="Layer_1" xmlns="http://www.w3.org/2000/svg" xmlns:xlink="http://www.w3.org/1999/xlink" x="0px" y="0px"
	 viewBox="0 0 271 136" style="enable-background:new 0 0 271 136;" xml:space="preserve">
<style type="text/css">
	.st0{fill:#DBD2CE;}
	.st1{fill:#F0EDEB;stroke:#FFFFFF;stroke-width:3;}
	.st2{fill:none;stroke:#F0A282;stroke-width:2;stroke-linecap:round;stroke-miterlimit:10;}
	.st3{fill:#E14504;}
	.st4{fill:#DCE3E5;}
	.st5{fill:#E97443;}
	.st6{fill:none;stroke:#FFFFFF;stroke-width:3.8175;stroke-linecap:round;stroke-miterlimit:10;}
	.st7{fill:none;stroke:#F0A282;stroke-width:1.5;stroke-linecap:round;stroke-miterlimit:10;}
	.st8{fill:#F4F1EF;}
	.st9{fill:#00A878;}
	.st10{fill:#28C86E;}
	.st11{fill:#32DCD2;}
	.st12{fill:#00CDDC;}
	.st13{fill:none;stroke:#28C86E;stroke-width:1.3755;stroke-linecap:round;stroke-miterlimit:10;}
	.st14{fill:#FFCF8D;}
	.st15{fill:#FF9F1A;}
	.st16{fill:#FFFFFF;}
	.st17{fill:#BFBFBF;}
</style>
<g>
	<g>
		<path class="st0" d="M126,64c40.9,0,74-4,74-9s-33.1-9-74-9s-74,4-74,9S85.1,64,126,64z"/>
		<circle class="st1" cx="232" cy="68" r="37.5"/>
		<circle class="st1" cx="39" cy="68" r="37.5"/>
		<circle class="st1" cx="135" cy="68" r="66.5"/>
		<path class="st2" d="M45.9,47L33.7,88.9"/>
		<path class="st3" d="M23.7,80.4c-0.7-0.1-1-1.1-0.4-1.5l3.1-2.4l1.2,1.8l-2.6,1.8C24.7,80.4,24.2,80.5,23.7,80.4z"/>
		<path class="st3" d="M49.4,85.1c0.7,0.1,1.3-0.7,0.9-1.3l-2-3.3l-1.8,1.2l1.8,2.6C48.5,84.8,49,85,49.4,85.1z"/>
		<path class="st3" d="M31.5,49.6l2.4,6.5c0,0.1,0,0.3-0.1,0.3l-1.3,0.5c-0.1,0-0.3,0-0.3-0.1l-2.4-6.5c0-0.1,0-0.3,0.1-0.3l1.3-0.5
			C31.3,49.4,31.5,49.5,31.5,49.6z"/>
		<path class="st3" d="M57,55.4l-4.8,5c-0.1,0.1-0.2,0.1-0.3,0l-1-0.9c-0.1-0.1-0.1-0.2,0-0.3l4.8-5c0.1-0.1,0.2-0.1,0.3,0l1,0.9
			C57.1,55.2,57.1,55.3,57,55.4z"/>
		<path class="st3" d="M39.5,84.3c8.9,0,16.1-7.2,16.1-16.1c0-8.9-7.2-16.1-16.1-16.1c-8.9,0-16.1,7.2-16.1,16.1
			C23.3,77.1,30.6,84.3,39.5,84.3z"/>
		<path class="st4" d="M39.5,82.7c8,0,14.5-6.5,14.5-14.5c0-8-6.5-14.5-14.5-14.5c-8,0-14.5,6.5-14.5,14.5
			C24.9,76.2,31.4,82.7,39.5,82.7z"/>
		<path class="st5" d="M37.9,68.1L37.9,68.1c-0.2-0.5,0-1,0.4-1.2l9.5-4.4c0.4-0.2,0.9,0,1.1,0.4l0,0.1c0.2,0.4,0,0.9-0.4,1.1
			L39,68.5C38.6,68.7,38.1,68.6,37.9,68.1z"/>
		<path class="st5" d="M41.4,73.7L41.4,73.7c-0.5,0.2-1,0-1.2-0.4l-2.4-5.3c-0.2-0.4,0-0.9,0.4-1.1l0.1,0c0.4-0.2,0.9,0,1.1,0.4
			l2.4,5.3C42.1,73,41.9,73.6,41.4,73.7z"/>
		<path class="st6" d="M30.9,58.7c1.1-1.7,4.9-3.1,7.6-2.7"/>
		<path class="st6" d="M48.9,76.3c-1.2,1.5-3.5,3-5.5,3.3"/>
		<path class="st5" d="M35.1,50.3c0.5-0.2,0.6-0.8,0.4-1.2c-1.3-1.9-3.8-2.7-6-1.7c-2.2,0.9-3.3,3.3-2.9,5.5
			c0.1,0.5,0.6,0.7,1.1,0.5L35.1,50.3z"/>
		<path class="st5" d="M57.2,59.8c0.3,0.4,0.9,0.3,1.2-0.1c1.3-1.9,1.2-4.5-0.4-6.2c-1.6-1.7-4.2-2-6.2-0.8
			c-0.4,0.3-0.5,0.9-0.1,1.2L57.2,59.8z"/>
		<path class="st7" d="M57.6,71.1c-0.4,2.1-1.2,4.1-2.3,5.9"/>
		<path class="st7" d="M60.1,71.2c-0.4,2.1-1.2,4.1-2.3,5.9"/>
		<path class="st7" d="M21.5,61.7c-0.7,2-1.1,4.1-1.2,6.2"/>
		<path class="st7" d="M19.2,60.5c-0.7,2-1.1,4.1-1.2,6.2"/>
		<path class="st2" d="M238.9,47l-12.1,41.9"/>
		<path class="st3" d="M216.7,80.4c-0.7-0.1-0.9-1.1-0.4-1.5l3.1-2.4l1.2,1.8l-2.6,1.8C217.7,80.4,217.2,80.5,216.7,80.4z"/>
		<path class="st3" d="M242.4,85.1c0.7,0.1,1.3-0.7,0.9-1.3l-2-3.3l-1.8,1.2l1.8,2.6C241.5,84.8,242,85,242.4,85.1z"/>
		<path class="st3" d="M224.5,49.6l2.4,6.5c0,0.1,0,0.3-0.1,0.3l-1.3,0.5c-0.1,0-0.3,0-0.3-0.1l-2.4-6.5c0-0.1,0-0.3,0.1-0.3
			l1.3-0.5C224.3,49.4,224.5,49.5,224.5,49.6z"/>
		<path class="st3" d="M250,55.4l-4.8,5c-0.1,0.1-0.2,0.1-0.3,0l-1-0.9c-0.1-0.1-0.1-0.2,0-0.3l4.8-5c0.1-0.1,0.2-0.1,0.3,0l1,0.9
			C250.1,55.2,250.1,55.3,250,55.4z"/>
		<path class="st3" d="M232.5,84.3c8.9,0,16.1-7.2,16.1-16.1c0-8.9-7.2-16.1-16.1-16.1s-16.1,7.2-16.1,16.1
			C216.3,77.1,223.6,84.3,232.5,84.3z"/>
		<path class="st4" d="M232.5,82.7c8,0,14.5-6.5,14.5-14.5c0-8-6.5-14.5-14.5-14.5c-8,0-14.5,6.5-14.5,14.5
			C217.9,76.2,224.4,82.7,232.5,82.7z"/>
		<path class="st5" d="M230.9,68.1L230.9,68.1c-0.2-0.5,0-1,0.4-1.2l9.5-4.4c0.4-0.2,0.9,0,1.1,0.4l0,0.1c0.2,0.4,0,0.9-0.4,1.1
			l-9.5,4.4C231.6,68.7,231.1,68.6,230.9,68.1z"/>
		<path class="st5" d="M234.4,73.7L234.4,73.7c-0.5,0.2-1,0-1.2-0.4l-2.4-5.3c-0.2-0.4,0-0.9,0.4-1.1l0.1,0c0.4-0.2,0.9,0,1.1,0.4
			l2.4,5.3C235.1,73,234.9,73.6,234.4,73.7z"/>
		<path class="st6" d="M223.9,58.7c1.1-1.7,4.9-3.1,7.6-2.7"/>
		<path class="st6" d="M241.9,76.3c-1.2,1.5-3.5,3-5.5,3.3"/>
		<path class="st5" d="M228.1,50.3c0.5-0.2,0.6-0.8,0.4-1.2c-1.3-1.9-3.8-2.7-6-1.7c-2.2,0.9-3.3,3.3-2.9,5.5
			c0.1,0.5,0.6,0.7,1.1,0.5L228.1,50.3z"/>
		<path class="st5" d="M250.2,59.8c0.3,0.4,0.9,0.3,1.2-0.1c1.3-1.9,1.2-4.5-0.4-6.2c-1.6-1.7-4.2-2-6.2-0.8
			c-0.4,0.3-0.5,0.9-0.1,1.2L250.2,59.8z"/>
		<path class="st7" d="M250.6,71.1c-0.4,2.1-1.2,4.1-2.3,5.9"/>
		<path class="st7" d="M253.1,71.2c-0.4,2.1-1.2,4.1-2.3,5.9"/>
		<path class="st7" d="M214.5,61.7c-0.7,2-1.1,4.1-1.2,6.2"/>
		<path class="st7" d="M212.2,60.5c-0.7,2-1.1,4.1-1.2,6.2"/>
		<path class="st8" d="M135.1,111c24.4,0,44.1-2.4,44.1-5.3s-19.8-5.3-44.1-5.3c-24.4,0-44.1,2.4-44.1,5.3S110.8,111,135.1,111z"/>
		<path class="st9" d="M132.4,71.3c0,0-12,1.8-19.1-6.7C113.3,64.6,123.4,61.8,132.4,71.3z"/>
		<path class="st10" d="M126.2,65.2c0,0-4.1,2.4-14.8,0.5C111.4,65.7,115.4,59.6,126.2,65.2z"/>
		<path class="st11" d="M105.9,65.8c-4.2,2-10.7,7.6-9.9,18.7c0.2,3,1,7.5,2.8,10.7c1.8,3.1-2.4,6.2-0.4,8.7
			c3.6,4.7,3.9-2.5,17.2-3.6c8-0.6,13.8,7.4,14.8,3.7c0.9-3.6-1.5-4.4-0.4-7.7c1.4-4.1,2.7-4.9,3.1-11.3
			C134.2,63.5,114,62,105.9,65.8z"/>
		<path d="M109.3,76.1c0,0.7-0.6,1.1-1.3,1.1c-0.7,0-1.3-0.3-1.3-1.1c0-0.7,0.6-1.3,1.3-1.3C108.7,74.8,109.3,75.3,109.3,76.1z"/>
		<path d="M120.2,76.1c0,0.7-0.6,1.1-1.3,1.1c-0.7,0-1.3-0.3-1.3-1.1c0-0.7,0.6-1.3,1.3-1.3S120.2,75.3,120.2,76.1z"/>
		<path class="st12" d="M125.9,70.9c2,2.2,6.3,7.3,6.4,8.3c0.1,1-7.2,0.8-10.8-1.8c-1.9-1.4-3.4-3.6-3.9-6.9
			c-0.6-3.9,1.7-3.7,3.8-2.8C123.1,68.4,124.6,69.5,125.9,70.9z"/>
		<path class="st10" d="M110.6,60.8c0,0-0.3,2.2,1.8,3.5C112.4,64.3,112.7,63.4,110.6,60.8z"/>
		<path class="st13" d="M113.7,66c-0.9-1-2.2-4.1-6.6-3.1"/>
		<path class="st14" d="M106.1,62.4c0,0-1.8,2.6-0.6,2.5C106.9,64.9,107,62.3,106.1,62.4z"/>
		<path class="st14" d="M106.5,62c0,0-1,3.1,0.4,2.5C108.2,63.9,107.4,61.5,106.5,62z"/>
		<path class="st14" d="M106.7,61.9c0,0-2.9,0.8-2.1,1.8C105.3,64.7,107.3,62.5,106.7,61.9z"/>
		<path class="st14" d="M107.1,63.3c0,0,0.1-3.7-1.2-2.6C104.7,61.8,106.2,64.1,107.1,63.3z"/>
		<path class="st14" d="M106.4,62.3c0,0,0.3-2.5,1.3-1.8C108.7,61.2,107,62.8,106.4,62.3z"/>
		<path class="st14" d="M106.4,61.5c0,0,3,0.2,2.1,1.3C107.5,63.9,105.7,62.3,106.4,61.5z"/>
		<path class="st15" d="M107.2,62.7c0.4-0.7,0.3-1.4,0-1.6c-0.4-0.2-1,0.1-1.4,0.8c-0.4,0.7-0.3,1.4,0,1.6S106.8,63.3,107.2,62.7z"
			/>
		<path class="st12" d="M107.8,67.6c-2.1,0.4-3.9,1.4-5.4,2.8c-2.3,2.2-5.1,6.5-5.3,7.3c-0.2,1.1,10.4,2.5,13.9-6.6
			C112.4,67.5,110,67.2,107.8,67.6z"/>
		<path d="M114.6,81.3c0,0.6-0.6,0-1.2,0c-0.6,0-1.5,0.6-1.5,0s0.9-1.6,1.5-1.6C114,79.7,114.6,80,114.6,81.3z"/>
		<path class="st16" d="M113.7,80.6h-0.3c-0.2,0-0.3-0.1-0.3-0.3l0-0.5c0.2-0.1,0.6-0.1,0.9,0l0,0.5
			C113.9,80.4,113.8,80.6,113.7,80.6z"/>
		<path class="st17" d="M153.7,71.7c-3.2-2.8-4.9-4.4-4.9-7.4c0-3,1.7-4.6,4.9-7.4c4.8-4.2,11.8-10.4,13.3-28.2h-3.6
			c-0.1,1-0.2,2-0.3,2.9h-41c-0.1-0.9-0.2-1.9-0.3-2.9h-3.6c1.5,17.7,8.5,23.9,13.3,28.1c3.2,2.8,4.9,4.4,4.9,7.4
			c0,3-1.7,4.6-4.9,7.4c-5.1,4.5-12.8,11.2-13.5,31.8h3.6c0-0.9,0.1-1.7,0.1-2.5h41.8c0.1,0.8,0.1,1.7,0.1,2.5h3.6
			C166.4,83,158.8,76.3,153.7,71.7z"/>
		<path class="st15" d="M170.3,31.6h-55.4c-0.9,0-1.7-0.8-1.7-1.7v-2.2c0-0.9,0.8-1.7,1.7-1.7h55.4c0.9,0,1.7,0.8,1.7,1.7v2.2
			C172,30.8,171.2,31.6,170.3,31.6z"/>
		<path class="st16" d="M152.4,52.6c4-3.1,7.3-7.2,9.8-12.1c-6.4-2.9-13.1-4.3-19.9-4.3c-6.6,0-13.2,1.3-19.4,4
			c2.5,5,5.9,9.2,9.9,12.3c4.3,3.8,9.1,8,9.1,16.4v0.2h1.3V69C143.3,60.6,148.2,56.4,152.4,52.6z"/>
		<path class="st16" d="M142.3,68.9c-11.2,0-19.1,26.6-21.7,32.4c-0.1,0.7-0.1,1.5-0.2,2.3h44.2c0-0.2,0-0.3,0-0.5
			C159,87.9,153.5,68.9,142.3,68.9z"/>
		<path class="st15" d="M170.3,106.6h-55.4c-0.9,0-1.7-0.8-1.7-1.7v-2.2c0-0.9,0.8-1.7,1.7-1.7h55.4c0.9,0,1.7,0.8,1.7,1.7v2.2
			C172,105.8,171.2,106.6,170.3,106.6z"/>
	</g>
</g>
</svg>
