<?xml version="1.0" encoding="utf-8"?>
<!-- Generator: Adobe Illustrator 25.1.0, SVG Export Plug-In . SVG Version: 6.00 Build 0)  -->
<svg version="1.1" id="Layer_1" xmlns="http://www.w3.org/2000/svg" xmlns:xlink="http://www.w3.org/1999/xlink" x="0px" y="0px"
	 viewBox="0 0 236 244" style="enable-background:new 0 0 236 244;" xml:space="preserve">
<style type="text/css">
	.st0{fill:#E9E2DE;}
	.st1{fill:#FFCF8D;}
	.st2{fill:#FF9F1A;}
	.st3{fill:#28C86E;}
</style>
<path class="st0" d="M117.5,240c46.7,0,84.5-6.3,84.5-14s-37.8-14-84.5-14S33,218.3,33,226S70.8,240,117.5,240z"/>
<g>
	<g>
		<path class="st1" d="M131.8,158.5h-28.1v26h28.1V158.5z"/>
		<path class="st1" d="M63,105.9c-14.8-5.7-35.1-1.2-35.1-17V62.2c0-1.8,1.5-3.3,3.3-3.3h22V40.6H10.4c-2,0-3.7,1.6-3.7,3.6v44.4
			c0,27.2,29.6,31.8,56.2,38.2V105.9z"/>
		<path class="st1" d="M172.6,105.9c14.8-5.7,35.1-1.2,35.1-17V62.2c0-1.8-1.5-3.3-3.3-3.3h-22V40.6h42.8c2,0,3.7,1.6,3.7,3.6v44.4
			c0,27.2-29.6,31.8-56.2,38.2V105.9L172.6,105.9z"/>
		<path class="st2" d="M175.3,223.7v-23.4c0-2.3-1.8-4.1-4.1-4.1H64.4c-2.3,0-4.1,1.8-4.1,4.1v23.4c0,1.7,1.4,3.2,3.2,3.2h108.6
			C173.8,226.9,175.3,225.5,175.3,223.7z"/>
		<path class="st2" d="M153.7,197v-13c0-1.7-1.4-3.1-3.1-3.1H85c-1.7,0-3.1,1.4-3.1,3.1v13H153.7z"/>
		<path class="st2" d="M51.3,22.4c-1.9,0-3.4,1.5-3.4,3.3v92c0,24.1,19.6,43.6,43.7,43.6H144c24.1,0,43.7-19.5,43.7-43.6v-92
			c0-1.9-1.5-3.3-3.4-3.3H51.3L51.3,22.4z"/>
		<path class="st1" d="M119.5,56l9.4,19c0.3,0.6,0.8,1,1.4,1.1l21,3.1c1.6,0.2,2.2,2.2,1.1,3.3l-15.2,14.8c-0.5,0.4-0.7,1.1-0.5,1.7
			l3.6,20.9c0.3,1.6-1.4,2.8-2.8,2l-18.8-9.9c-0.6-0.3-1.2-0.3-1.8,0l-18.8,9.9c-1.4,0.7-3-0.5-2.8-2l3.6-20.9
			c0.1-0.6-0.1-1.3-0.5-1.7L83.1,82.4c-1.1-1.1-0.5-3,1.1-3.3l21-3.1c0.6-0.1,1.2-0.5,1.4-1.1l9.4-19
			C116.8,54.5,118.8,54.5,119.5,56z"/>
		<path class="st3" d="M85.1,167.4c0,0,12.7,3.3,2.3,19.9C87.6,187,79.6,182.8,85.1,167.4z"/>
		<path class="st3" d="M66.1,185.9c0,0,7,15.9,24.5,5.2C90.7,191.1,82.9,183,66.1,185.9z"/>
		<path class="st3" d="M105.3,219.5C105.3,219.5,105.3,219.5,105.3,219.5c-1.5-0.1-2.6-1.1-2.7-2.5c-0.4-1.3-12.7-36-51.3-48.1
			c-1.4-0.4-2.2-1.9-1.8-3.3c0.4-1.4,1.9-2.2,3.4-1.7c41.1,12.9,55.1,50.3,55.1,53.1C107.9,218.4,106.8,219.5,105.3,219.5z"/>
		<path class="st1" d="M45,157.1c0,0,1.5-26.2,12.5-25.6C68.5,132,52.4,158.3,45,157.1z"/>
		<path class="st1" d="M45,156.8c0,0,18.5-22.1,23.3-12.4C73.2,154.2,47.7,164,45,156.8z"/>
		<path class="st1" d="M43.2,161.2c0,0,23.1-15.2,24-3.3C68.1,169.8,43,169.6,43.2,161.2z"/>
		<path class="st1" d="M40.6,162c0,0-14.2-23.7-2.3-24.1C50.3,137.5,49,162.5,40.6,162z"/>
		<path class="st1" d="M44.2,162.6c0,0-20.2,18.9-23.1,7.4C18.2,158.4,42.9,154.3,44.2,162.6z"/>
		<path class="st1" d="M44.6,165.2c0,0-22-5-16.5-12.5C33.4,145.2,48.9,160.4,44.6,165.2z"/>
		<path class="st1" d="M43,163.9c0,0-24,10.8-19.5,20.8C28,194.7,46.8,170.3,43,163.9z"/>
		<path class="st1" d="M41.7,162.4c0,0-14.1,25.1-3.2,26.2C49.4,189.6,49.4,162.3,41.7,162.4z"/>
		<path class="st1" d="M41.4,160.7c0,0,5.6,27.1,14.6,19.3C65,172.2,47.2,154.6,41.4,160.7z"/>
		<path class="st2" d="M49.1,164.8c4.9-7.1,6.5-14.6,3.6-16.6c-2.9-2-9.3,2.1-14.2,9.3c-4.9,7.1-6.5,14.6-3.6,16.6
			C37.8,176.1,44.2,172,49.1,164.8z"/>
		<path class="st3" d="M150.5,167.4c0,0-12.7,3.3-2.3,19.9C148,187,156,182.8,150.5,167.4z"/>
		<path class="st3" d="M169.5,185.9c0,0-7,15.9-24.5,5.2C145,191.1,152.7,183,169.5,185.9z"/>
		<path class="st3" d="M130.3,219.5c-1.4,0-2.6-1.1-2.7-2.6c-0.1-2.8,14-40.2,55.1-53.1c1.4-0.4,2.9,0.3,3.4,1.7
			c0.4,1.4-0.3,2.9-1.8,3.3C145.7,181,133.4,215.7,133,217C132.9,218.4,131.8,219.5,130.3,219.5
			C130.4,219.5,130.3,219.5,130.3,219.5z"/>
		<path class="st1" d="M190.6,157.1c0,0-1.5-26.2-12.5-25.6C167.1,132,183.2,158.3,190.6,157.1z"/>
		<path class="st1" d="M190.6,156.8c0,0-18.5-22.1-23.3-12.4C162.4,154.2,187.9,164,190.6,156.8z"/>
		<path class="st1" d="M192.4,161.2c0,0-23.1-15.2-24-3.3C167.5,169.8,192.6,169.6,192.4,161.2z"/>
		<path class="st1" d="M195,162c0,0,14.2-23.7,2.3-24.1C185.3,137.5,186.6,162.5,195,162z"/>
		<path class="st1" d="M191.4,162.6c0,0,20.2,18.9,23.1,7.4C217.4,158.4,192.7,154.3,191.4,162.6z"/>
		<path class="st1" d="M191.1,165.2c0,0,22-5,16.5-12.5C202.2,145.2,186.7,160.4,191.1,165.2z"/>
		<path class="st1" d="M192.6,163.9c0,0,24,10.8,19.5,20.8C207.6,194.7,188.8,170.3,192.6,163.9z"/>
		<path class="st1" d="M193.9,162.4c0,0,14.1,25.1,3.2,26.2C186.2,189.6,186.2,162.3,193.9,162.4z"/>
		<path class="st1" d="M194.2,160.7c0,0-5.6,27.1-14.6,19.3C170.6,172.2,188.4,154.6,194.2,160.7z"/>
		<path class="st2" d="M200.7,174.1c2.9-2,1.3-9.4-3.6-16.6c-4.9-7.1-11.3-11.3-14.2-9.3s-1.3,9.4,3.6,16.6
			C191.4,172,197.8,176.1,200.7,174.1z"/>
		<path class="st2" d="M175.3,223.7v-23.4c0-2.3-1.8-4.1-4.1-4.1H64.4c-2.3,0-4.1,1.8-4.1,4.1v23.4c0,1.7,1.4,3.2,3.2,3.2h108.6
			C173.8,226.9,175.3,225.5,175.3,223.7z"/>
		<path class="st1" d="M215.4,19.2c-0.8,0-1.5-0.3-2-1c-0.9-1.1-0.7-2.7,0.4-3.6l18-14.1c1.1-0.9,2.7-0.7,3.6,0.4
			c0.9,1.1,0.7,2.7-0.4,3.6l-18,14.1C216.5,19,215.9,19.2,215.4,19.2z"/>
		<path class="st1" d="M20.6,19.2c0.8,0,1.5-0.3,2-1c0.9-1.1,0.7-2.7-0.4-3.6L4.2,0.6C3-0.3,1.4-0.1,0.5,1C-0.3,2.1-0.1,3.7,1,4.6
			l18,14.1C19.5,19,20.1,19.2,20.6,19.2z"/>
		<path class="st1" d="M20.6,224.8c0.8,0,1.5,0.3,2,1c0.9,1.1,0.7,2.7-0.4,3.6l-18,14.1c-1.1,0.9-2.7,0.7-3.6-0.4
			c-0.9-1.1-0.7-2.7,0.4-3.6l18-14.1C19.5,225,20.1,224.8,20.6,224.8z"/>
		<path class="st1" d="M215.4,224.8c-0.8,0-1.5,0.3-2,1c-0.9,1.1-0.7,2.7,0.4,3.6l18,14.1c1.1,0.9,2.7,0.7,3.6-0.4
			c0.9-1.1,0.7-2.7-0.4-3.6l-18-14.1C216.5,225,215.9,224.8,215.4,224.8z"/>
	</g>
</g>
</svg>
