<svg width="324" height="296" viewBox="0 0 324 296" fill="none" xmlns="http://www.w3.org/2000/svg">
<path d="M322.39 132.42C320.69 30.2063 300.32 32.4651 260.7 18.3848C189.97 -6.75072 -3.05032 -36.2447 0.549683 155.596C1.84968 224.873 -0.560318 267.79 43.4297 284.418C96.2097 304.369 200.27 290.368 249.63 290.766C340.1 291.493 322.82 158.362 322.39 132.42Z" fill="white"/>
<path d="M230.66 138.092C227.31 138.6 214.74 133.147 203.12 138.072C208.3 122.768 225.59 88.4083 259.55 101.792C283.89 111.375 230.02 137.844 230.66 138.092Z" fill="#1EC8BE"/>
<path d="M95.5897 150.819C98.6497 151.058 114.56 141.177 125.65 145.108C118.66 130.53 97.9597 98.2495 69.8697 113.952C49.7397 125.206 96.1197 150.521 95.5897 150.819Z" fill="#1EC8BE"/>
<path d="M237.83 71.1039C237.83 71.1039 193.59 106.747 159.64 82.9353C159.65 82.9353 182.77 52.7846 237.83 71.1039Z" fill="#28C86E"/>
<path d="M201.7 53.9688C201.7 53.9688 194.71 85.1941 153.93 89.0053C153.93 88.9953 153.71 75.3429 201.7 53.9688Z" fill="#3CDC82"/>
<path d="M132.47 86.0599C116.58 93.4035 92.2797 114.33 95.0597 156.043C95.8097 167.228 97.4397 187.03 104.32 198.782C111.2 210.544 113.98 227.062 115.81 238.625C117.64 250.128 129.74 230.405 179.76 226.335C209.74 223.898 220.95 242.774 224.63 228.773C228.15 215.33 218.92 212.404 223.17 199.926C228.44 184.453 233.52 181.726 234.79 157.775C239.07 77.5719 162.86 72.0094 132.47 86.0599Z" fill="#32DCD2"/>
<path d="M145.32 130.211C145.32 132.938 143.1 127.763 140.36 127.763C137.62 127.763 135.4 132.928 135.4 130.211C135.4 127.495 137.62 125.276 140.36 125.276C143.1 125.276 145.32 127.485 145.32 130.211Z" fill="black"/>
<path d="M186.17 130.211C186.17 132.938 183.95 127.763 181.21 127.763C178.47 127.763 176.25 132.928 176.25 130.211C176.25 127.495 178.47 125.276 181.21 125.276C183.95 125.276 186.17 127.485 186.17 130.211Z" fill="black"/>
<path d="M170.44 141.078C170.44 142.421 165.99 146.899 160.5 146.899C155.01 146.899 150.56 142.421 150.56 141.078C150.56 139.734 155.01 140.869 160.5 140.869C165.99 140.869 170.44 139.734 170.44 141.078Z" fill="black"/>
<path d="M161.47 142.928H159.32C158.96 142.928 158.67 142.64 158.67 142.282V140.819H162.11V142.282C162.12 142.64 161.83 142.928 161.47 142.928Z" fill="white"/>
<path d="M149.24 54.2871C149.24 54.2871 158.51 56.8146 160.02 67.5315C160.02 67.5315 156 67.2728 149.24 54.2871Z" fill="#28C86E"/>
<path d="M171.61 59.0038C171.61 59.0038 172.16 74.4175 157.03 74.4971C157.03 74.507 157.82 67.5415 171.61 59.0038Z" fill="#28C86E"/>
<path d="M157.95 85.2937C157.35 84.3881 153.76 65.0737 167.47 49.2919" stroke="#28C86E" stroke-width="2.7238" stroke-miterlimit="10" stroke-linecap="round"/>
<path d="M167.75 42.406C167.75 42.406 155.93 33.3508 152.1 38.2566C148.27 43.1623 165.57 45.9783 167.75 42.406Z" fill="#FFCF8D"/>
<path d="M167.62 42.2766C167.62 42.2766 151.28 41.9781 153.66 47.66C156.04 53.3418 169.73 46.0579 167.62 42.2766Z" fill="#FFCF8D"/>
<path d="M170.2 43.1523C170.2 43.1523 155.12 47.4312 159.9 52.1777C164.69 56.9341 173.87 46.1774 170.2 43.1523Z" fill="#FFCF8D"/>
<path d="M171.47 42.2965C171.47 42.2965 166.52 27.4898 161.96 32.4453C157.4 37.4008 168.6 46.0778 171.47 42.2965Z" fill="#FFCF8D"/>
<path d="M170.41 44.0678C170.41 44.0678 186.01 42.4358 182.12 36.943C178.23 31.4502 167.32 40.4556 170.41 44.0678Z" fill="#FFCF8D"/>
<path d="M171.39 45.1722C171.39 45.1722 177.36 33.9379 172.14 33.4901C166.93 33.0423 167.73 45.2319 171.39 45.1722Z" fill="#FFCF8D"/>
<path d="M171.4 44.0479C171.4 44.0479 184.92 37.7789 187.58 43.3911C190.23 49.0133 172.75 48.0183 171.4 44.0479Z" fill="#FFCF8D"/>
<path d="M171.23 42.9434C171.23 42.9434 187.25 46.1873 183.68 51.2224C180.11 56.2375 168.34 46.1773 171.23 42.9434Z" fill="#FFCF8D"/>
<path d="M170.64 42.1672C170.64 42.1672 180.22 54.526 173.53 55.5211C166.84 56.5162 165.88 42.426 170.64 42.1672Z" fill="#FFCF8D"/>
<path d="M178.824 44.3251C179.047 42.3203 175.266 40.2605 170.38 39.7244C165.494 39.1884 161.353 40.379 161.131 42.3838C160.909 44.3886 164.69 46.4484 169.576 46.9844C174.461 47.5205 178.602 46.3299 178.824 44.3251Z" fill="#FF9F1A"/>
</svg>
