<?xml version="1.0" encoding="utf-8"?>
<!-- Generator: Adobe Illustrator 25.1.0, SVG Export Plug-In . SVG Version: 6.00 Build 0)  -->
<svg version="1.1" id="Layer_1" xmlns="http://www.w3.org/2000/svg" xmlns:xlink="http://www.w3.org/1999/xlink" x="0px" y="0px"
	 viewBox="0 0 322 112.8" style="enable-background:new 0 0 322 112.8;" xml:space="preserve">
<style type="text/css">
	.st0{fill:#00CDDC;}
	.st1{fill:#00A878;}
	.st2{fill:#28C86E;}
	.st3{fill:#32DCD2;}
	.st4{fill:none;stroke:#28C86E;stroke-width:2;stroke-linecap:round;stroke-miterlimit:10;}
	.st5{fill:#FFCF8D;}
	.st6{fill:#FF9F1A;}
	.st7{opacity:0.5;enable-background:new    ;}
	.st8{fill:none;stroke:#28C86E;stroke-width:2.0406;stroke-linecap:round;stroke-miterlimit:10;}
	.st9{fill:#FFFFFF;}
	.st10{opacity:0.2;enable-background:new    ;}
	.st11{fill:#3CDC82;}
	.st12{fill:none;stroke:#28C86E;stroke-width:1.0075;stroke-linecap:round;stroke-miterlimit:10;}
	.st13{clip-path:url(#SVGID_2_);}
</style>
<g>
	<g>
		<g>
			<g>
				<g>
					<path class="st0" d="M134,109.7h28.6c2.9-21-16.6-38.6-26.9-45.8C137,75.1,134.8,102.2,134,109.7z"/>
					<path class="st0" d="M34.6,109.7c0.1-8.9,1-34,3.4-44.4C26.6,71.5,4.3,87.5,6.3,109.7H34.6z"/>
					<path class="st1" d="M157,40.4c0,0-39.7,23.3-65.6-3.6C91.5,36.8,131,10.6,157,40.4z"/>
					<path class="st2" d="M131.3,14.4c0,0-6.9,28-43.6,30.6C87.8,45.1,101.8,10.9,131.3,14.4z"/>
					<path class="st3" d="M23,109.7h124.3c0.2-1.6,0.3-3.4,0.4-5.3c3.8-72.3-64.6-77.3-91.8-64.6c-14.3,6.6-36.1,25.5-33.6,63.1
						C22.4,105,22.6,107.3,23,109.7z"/>
					<path class="st2" d="M73.1,16.1c0,0-2.4,8.3,5.1,14.5C78.2,30.6,79.9,27.4,73.1,16.1z"/>
					<path class="st4" d="M82.6,37.7c-3.3-4.5-6.5-17.1-25.2-16.2"/>
					<path class="st5" d="M58.2,20.8c0,0,8.2-9.5,9.1-4.2C68.2,21.9,58.5,24.7,58.2,20.8z"/>
					<path class="st5" d="M56.8,22.9c0,0,11-6.3,9.8-0.5C65.5,28.2,55.7,27,56.8,22.9z"/>
					<path class="st5" d="M56.5,23.6c0,0,0.6-12.5,5.2-10.1C66.3,15.8,59.5,25.5,56.5,23.6z"/>
					<path class="st5" d="M62.3,24.1c0,0-14.1,3.3-10.9-2.7C54.5,15.4,64.9,20,62.3,24.1z"/>
					<path class="st5" d="M57.7,22c0,0-9.2,3.2-5.6,6.8C55.7,32.4,60.4,24.4,57.7,22z"/>
					<path class="st5" d="M55.1,22.9c0,0,3.2,12.3,6.6,7.4C65.1,25.4,57.3,19.2,55.1,22.9z"/>
					<path class="st6" d="M60.2,24.7c2.1-2.1,2.8-4.8,1.5-6.1c-1.3-1.3-4-0.7-6.1,1.4c-2.1,2.1-2.8,4.8-1.5,6.1
						C55.4,27.3,58.1,26.7,60.2,24.7z"/>
					<path d="M74,67.7c3.4,1.5-10.5,4.6-10.9,3.9c-0.4-0.7,6.7-2.4,6.3-3.2c-0.4-0.8-6.6-1.9-6.5-2.7C63,65,70.7,66.2,74,67.7z"/>
					<path d="M88.1,67.7c-3.4,1.5,10.5,4.6,10.9,3.9c0.4-0.7-6.7-2.4-6.3-3.2c0.4-0.8,6.6-1.9,6.5-2.7C99.1,65,91.5,66.2,88.1,67.7z
						"/>
					<path d="M86.6,76.8c0,1-2.9,0.8-6.5,0.8c-3.6,0-6.5,0.2-6.5-0.8s2.9-1.8,6.5-1.8C83.7,74.9,86.6,75.8,86.6,76.8z"/>
					<path class="st7" d="M142.4,69.1c-3.5-8.1-8.4-14.6-14.2-19.6c15.9-1.5,28.8-9.1,28.8-9.1c-9.6-11-21.1-14.4-31.7-14.2
						c4.6-6.3,6-11.7,6-11.7C112.5,12.2,100,25.2,93.4,35c-3.8-0.4-7.6-0.6-11.2-0.6c0-0.1-0.1-0.1-0.1-0.2c-1-1.7-2.1-3.8-3.7-5.8
						c-0.2-2.1-1.3-5.9-5.3-12.3c0,0-1,3.6,0.4,7.9c-1.9-1.3-4.1-2.3-6.9-3c-0.1-0.3-0.3-0.5-0.5-0.7c0.9-1,1.4-2.2,1.2-3.6
						c-0.4-2.3-2.2-1.8-4.1-0.5c0-1.1-0.5-2.1-1.6-2.7c-2.6-1.3-3.9,1.9-4.6,5.1c-2.2-0.2-4.5,0.5-5.7,2.8c-1,2-0.2,2.9,1.4,3.3
						c-1.4,1.2-2.1,2.6-0.6,4.1c1.7,1.7,3.5,0.8,4.8-0.8c1.2,2.6,2.9,4.8,4.7,2.2c0.9-1.3,1-2.7,0.6-4c1.6-0.3,3.1-1.1,3.9-2.5
						c7.3,2,10.6,6.8,12.8,10.8C70.1,35,61.9,37,55.8,39.8c-9.9,4.6-23.4,15-29.9,33.5c-10.4,8.2-21,20.8-19.7,36.4H23h11.6H134
						h13.3h15.3C165,92.7,152.6,77.9,142.4,69.1z"/>
					<path class="st1" d="M314.3,57.6c0,0-41.6,6.2-66-23.4C248.4,34.2,283,24.6,314.3,57.6z"/>
					<path class="st2" d="M293,36.3c0,0-14.1,8.3-51.2,1.9C241.8,38.2,255.6,16.7,293,36.3z"/>
					<path class="st3" d="M188.9,109.7h127.5c0.1-1.4,0.2-2.9,0.3-4.5c3.9-74.7-66.1-79.9-94-66.8c-14.6,6.8-36.9,26.3-34.4,65.2
						C188.4,105.5,188.6,107.6,188.9,109.7z"/>
					<path d="M234.5,74.2c0,2.5-2,3.7-4.5,3.7c-2.5,0-4.6-1.2-4.6-3.7s2-4.6,4.6-4.6C232.5,69.7,234.5,71.7,234.5,74.2z"/>
					<path d="M272,74.2c0,2.5-2,3.7-4.5,3.7c-2.5,0-4.6-1.2-4.6-3.7c0-2.5,2-4.6,4.6-4.6C270,69.6,272,71.7,272,74.2z"/>
					<path class="st0" d="M291.8,56.3c7,7.7,21.7,25.5,22,28.8c0.3,3.3-25,2.7-37.4-6.3c-6.6-4.8-11.8-12.4-13.6-24
						c-2.2-13.5,5.8-12.8,13.1-9.8C282,47.4,287.3,51.4,291.8,56.3z"/>
					<path class="st2" d="M239,21.1c0,0-0.9,7.7,6.1,12.1C245.1,33.2,246,30.2,239,21.1z"/>
					<path class="st8" d="M249.6,39c-3.3-3.5-7.6-14.2-22.8-10.9"/>
					<path class="st5" d="M223.4,26.7c0,0-6.4,8.9-1.9,8.8C225.9,35.3,226.5,26.3,223.4,26.7z"/>
					<path class="st5" d="M224.8,25.1c0,0-3.3,10.8,1.2,8.7C230.6,31.8,228,23.4,224.8,25.1z"/>
					<path class="st5" d="M225.3,24.7c0,0-10.1,2.8-7.4,6.4C220.6,34.7,227.4,27,225.3,24.7z"/>
					<path class="st5" d="M226.7,29.7c0,0,0.3-13-4-9.1C218.3,24.4,223.8,32.7,226.7,29.7z"/>
					<path class="st5" d="M224.3,26.1c0,0,1.1-8.6,4.6-6.1C232.4,22.4,226.6,28,224.3,26.1z"/>
					<path class="st5" d="M224.5,23.6c0,0,10.5,0.6,7.1,4.4C228.2,31.9,221.9,26.2,224.5,23.6z"/>
					<path class="st6" d="M227,27.5c1.2-2.3,1.2-4.7-0.2-5.5c-1.4-0.7-3.5,0.5-4.7,2.8c-1.2,2.3-1.2,4.7,0.2,5.5
						C223.6,31,225.7,29.8,227,27.5z"/>
					<path class="st0" d="M229.1,44.8c-7.1,1.3-13.6,4.8-18.8,9.9c-8,7.8-17.8,22.8-18.3,25.4c-0.8,3.7,35.8,8.6,48-22.9
						C244.9,44.4,237,43.4,229.1,44.8z"/>
					<path d="M252.7,92.4c0,2.1-2.1,0.1-4.2,0.1c-2.1,0-5,2-5,0c0-2.1,3-5.5,5.1-5.5C250.5,86.9,252.7,87.9,252.7,92.4z"/>
					<path class="st9" d="M249.5,90h-1.1c-0.6,0-1-0.5-1-1l0.1-1.8c0.6-0.4,2.2-0.3,3.1,0.2l0,1.6C250.5,89.5,250,90,249.5,90z"/>
					<path class="st10" d="M305.4,58.1c5.4,0,8.9-0.5,8.9-0.5c-9-9.5-18.3-15.4-27-19.1c3.9-1.1,5.7-2.1,5.7-2.1
						c-24.2-12.7-38.5-8.2-45.6-3.4c-0.2,0-0.5,0-0.7,0c-0.6-0.7-1.2-1.4-2-2.1c-0.6-1.9-2-5-5.8-9.8c0,0-0.4,3.2,1.2,6.6
						c-2.2-1.1-4.8-1.7-8-1.7c-0.4-0.8-1.7-1.3-3.1-1.7c1.1-1.4,1.5-3.2-0.2-4.4c-1.5-1-2.5-0.1-3.2,1.3c-0.6-1.3-1.5-1.9-2.9-0.6
						c-1.7,1.5-1.9,3.6-1.3,5.6c-2.5,1.1-4.9,2.9-3.4,4.9c0.6,0.9,1.5,1.1,2.4,0.9c-0.8,1.9-0.9,3.5,1.1,3.5c1.2,0,2.1-0.7,2.8-1.7
						c0.4,0.4,1,0.5,1.9,0.1c1.9-0.8,2.5-2.7,2.4-4.5c0.7,0.1,1.4,0,2-0.4c6.1-0.5,9.9,1.6,12.6,4.3c-7.8,0.8-14.9,2.6-20.4,5.2
						c-14.6,6.8-36.9,26.3-34.4,65.2c0.1,1.9,0.3,4,0.6,6.1h127.5c0.1-1.4,0.2-2.9,0.3-4.5C317.8,84.5,313.2,69.2,305.4,58.1z"/>
					<path class="st1" d="M214.2,4.3c0,0-8,41.3-38.6,43.8C175.6,48.1,174.3,20,214.2,4.3z"/>
					<path class="st11" d="M179.1,0c0,0,16.3,17.3,1.8,43.8C180.9,43.8,172.4,38.3,179.1,0z"/>
					<path class="st3" d="M97.2,109.7h130.6c0.1-0.8,0.1-1.7,0.2-2.6c4-75.6-67.5-80.8-96-67.6c-14.9,6.9-37.7,26.6-35.1,65.9
						C96.9,106.8,97,108.2,97.2,109.7z"/>
					<path d="M148.7,77.1c0,2.4-2-2.2-4.4-2.2s-4.4,4.6-4.4,2.2c0-2.4,2-4.3,4.4-4.3S148.7,74.7,148.7,77.1z"/>
					<path d="M184.6,77.1c0,2.4-2-2.2-4.4-2.2c-2.4,0-4.4,4.6-4.4,2.2c0-2.4,2-4.3,4.4-4.3C182.7,72.7,184.6,74.7,184.6,77.1z"/>
					<path d="M170.8,86.7c0,1.2,0.8,7.9-8.7,7.9c-9.6,0-8.7-6.7-8.7-7.9c0-1.2,3.9-0.2,8.7-0.2C166.9,86.5,170.8,85.5,170.8,86.7z"
						/>
					<path class="st9" d="M162.6,88.3h-1.2c-0.5,0-0.9-0.4-0.9-0.9v-0.9h3v0.9C163.5,87.9,163.1,88.3,162.6,88.3z"/>
					<path class="st2" d="M154.5,23.8c0,0,4.8,1.3,5.6,6.9C160.1,30.7,158,30.5,154.5,23.8z"/>
					<path class="st2" d="M166.1,26.2c0,0,0.3,8-7.6,8.1C158.5,34.3,158.9,30.7,166.1,26.2z"/>
					<path class="st12" d="M159,39.9c-0.3-0.5-2.2-10.6,4.9-18.8"/>
					<path class="st5" d="M164.1,17.6c0,0-6.1-4.7-8.1-2.2C154,17.9,163,19.4,164.1,17.6z"/>
					<path class="st5" d="M164,17.5c0,0-8.5-0.2-7.2,2.8C158,23.2,165.1,19.5,164,17.5z"/>
					<path class="st5" d="M165.4,17.9c0,0-7.8,2.2-5.4,4.7C162.5,25.1,167.3,19.5,165.4,17.9z"/>
					<path class="st5" d="M166,17.5c0,0-2.6-7.7-4.9-5.1C158.7,15,164.5,19.5,166,17.5z"/>
					<path class="st5" d="M165.5,18.4c0,0,8.1-0.9,6.1-3.7C169.5,11.8,163.9,16.5,165.5,18.4z"/>
					<path class="st5" d="M166,19c0,0,3.1-5.9,0.4-6.1C163.7,12.7,164.1,19,166,19z"/>
					<path class="st5" d="M166,18.4c0,0,7-3.3,8.4-0.3C175.8,21,166.7,20.5,166,18.4z"/>
					<path class="st5" d="M165.9,17.8c0,0,8.3,1.7,6.5,4.3C170.5,24.8,164.4,19.5,165.9,17.8z"/>
					<path class="st5" d="M165.6,17.4c0,0,5,6.5,1.5,7C163.6,24.9,163.1,17.6,165.6,17.4z"/>
					<path class="st6" d="M169.8,18.6c0.1-1-1.8-2.1-4.4-2.4c-2.5-0.3-4.7,0.3-4.8,1.4c-0.1,1,1.8,2.1,4.4,2.4
						C167.6,20.2,169.7,19.6,169.8,18.6z"/>
				</g>
			</g>
			<g>
				<defs>
					<rect id="SVGID_1_" y="106.6" width="322" height="6.2"/>
				</defs>
				<clipPath id="SVGID_2_">
					<use xlink:href="#SVGID_1_"  style="overflow:visible;"/>
				</clipPath>
				<g class="st13">
					<path class="st5" d="M317.8,112.8H4.2c-2.3,0-4.2-1.4-4.2-3.1c0-1.7,1.9-3.1,4.2-3.1h313.7c2.3,0,4.2,1.4,4.2,3.1
						C322,111.4,320.1,112.8,317.8,112.8z"/>
				</g>
			</g>
		</g>
	</g>
</g>
</svg>
