<?xml version="1.0" encoding="utf-8"?>
<!-- Generator: Adobe Illustrator 25.1.0, SVG Export Plug-In . SVG Version: 6.00 Build 0)  -->
<svg version="1.1" id="Layer_1" xmlns="http://www.w3.org/2000/svg" xmlns:xlink="http://www.w3.org/1999/xlink" x="0px" y="0px"
	 viewBox="0 0 289 285" style="enable-background:new 0 0 289 285;" xml:space="preserve">
<style type="text/css">
	.st0{fill:#E9E2DE;}
	.st1{fill:#28C86E;}
	.st2{fill:#FFCF8D;}
	.st3{fill:#FF9F1A;}
	.st4{fill:#DCE3E5;}
	.st5{fill:#00A878;}
	.st6{fill:#FFFFFF;}
	.st7{fill:#D64204;}
	.st8{fill:#FFB753;}
	.st9{fill:#00CDDC;}
	.st10{fill:#3CDC82;}
	.st11{fill:#32DCD2;}
	.st12{fill:none;stroke:#28C86E;stroke-width:0.9646;stroke-linecap:round;stroke-miterlimit:10;}
	.st13{fill:#CCF6F4;}
	.st14{fill:#F8FFFF;}
</style>
<g>
	<path class="st0" d="M144.5,285c50.5,0,91.5-6.3,91.5-14s-41-14-91.5-14S53,263.3,53,271S94,285,144.5,285z"/>
	<g>
		<g>
			<path class="st1" d="M235.7,94.5c0,0-8.4,15.2-24.9,3C210.7,97.5,219.2,90.1,235.7,94.5z"/>
			<path class="st1" d="M207.4,119.9c-1.2,0-2.3-0.8-2.6-2c-0.1-0.3-6.2-26.9,32.9-49.2c1.3-0.7,2.9-0.3,3.7,1
				c0.7,1.3,0.3,2.9-1,3.6c-35.1,20-30.4,43.1-30.4,43.3c0.4,1.4-0.5,2.9-1.9,3.2C207.8,119.9,207.6,119.9,207.4,119.9z"/>
			<path class="st2" d="M245,62.6c0,0-6.4-21.5-15.5-18.8C220.5,46.4,239.2,65.1,245,62.6z"/>
			<path class="st2" d="M245,62.3c0,0-19.7-14.7-21.8-5.7C221,65.7,244.2,68.8,245,62.3z"/>
			<path class="st2" d="M247.3,65.7c0,0-22.2-8-20.6,2C228.4,77.7,249.2,72.6,247.3,65.7z"/>
			<path class="st2" d="M249.7,65.7c0,0,7-22.5-2.9-20.4C236.8,47.4,242.8,67.8,249.7,65.7z"/>
			<path class="st2" d="M246.8,67c0,0,20.5,11.7,20.6,1.5C267.5,58.3,246.2,59.8,246.8,67z"/>
			<path class="st2" d="M247,69.2c0,0,17.2-8.5,11.2-13.6C252.3,50.4,242.5,66,247,69.2z"/>
			<path class="st2" d="M248,67.8c0,0,22.1,4.2,20.4,13.4C266.7,90.4,246.2,73.8,248,67.8z"/>
			<path class="st2" d="M248.8,66.3c0,0,16.7,18,7.9,21.1C247.9,90.4,242.4,67.7,248.8,66.3z"/>
			<path class="st2" d="M248.8,64.8c0,0,0.8,23.5-8.3,18.9C231.4,79.1,242.7,61,248.8,64.8z"/>
			<path class="st3" d="M256.8,74.6c2-2.3-0.8-8.1-6.3-13c-5.5-4.9-11.6-7.1-13.7-4.9c-2,2.3,0.8,8.1,6.3,13
				C248.7,74.7,254.8,76.9,256.8,74.6z"/>
			<path class="st1" d="M31.9,162.8c0,0,14.5,7.6,19.6-4.4C51.4,158.4,44.9,154.2,31.9,162.8z"/>
			<path class="st1" d="M61.9,183.1c1.2-0.2,2.1-1.2,2.2-2.4c0-0.3,1.5-27.6-40.9-42.9c-1.4-0.5-2.9,0.2-3.4,1.6
				c-0.5,1.4,0.2,2.9,1.6,3.4c38,13.7,37.4,37.2,37.4,37.5c-0.1,1.5,1,2.7,2.5,2.9C61.5,183.2,61.7,183.2,61.9,183.1z"/>
			<path class="st4" d="M250.6,184l2.1,18c1,8.9-5.3,16.9-14.2,18l-1.2,0.1c-7.8,0.9-15-3.7-17.1-11.3l-3.4-28.6l25.2-3
				C246.3,176.8,250.1,179.8,250.6,184z"/>
			<path class="st4" d="M49.1,33.3l3,25l-25.8,3c-4.2,0.5-8.1-2.5-8.5-6.7l-2-17.4c-1-8.9,5.3-16.9,14.2-18l1.2-0.1
				C40,18.1,48,24.4,49.1,33.3z"/>
			<path class="st5" d="M232.4,204.4l-10.8-91.9h0L210,14.4c-0.1-0.6-0.1-0.6-0.1-0.6c-0.1-0.6-0.1-0.6-0.1-1.2
				c-0.9-7.7-8.3-13.5-16.6-12.5L30,19.2c4.2,4.3,6.6,9.5,7.3,15.5l22.4,190c0.1,0.6,0.1,0.6,0.1,0.6c0.1,0.6,0.1,0.6,0.1,1.2
				c0.9,7.7,8.3,13.5,16.6,12.5l163.2-19.1C235.6,215.5,233.1,210.4,232.4,204.4z"/>
			<path class="st6" d="M84.4,153.9c6.9,0,12.5-5.6,12.5-12.4S91.3,129,84.4,129c-6.9,0-12.5,5.6-12.5,12.4S77.5,153.9,84.4,153.9z"
				/>
			<path class="st5" d="M84.1,147.7c-0.4,0.1-0.8,0.1-1.2-0.1l-4-1.7c-0.6-0.2-0.8-0.9-0.6-1.5c0.2-0.6,0.9-0.8,1.5-0.6l3.6,1.5
				l4.2-9.8c0.2-0.6,0.9-0.8,1.5-0.6c0.6,0.3,0.8,0.9,0.6,1.5l-4.4,10.2c-0.2,0.4-0.5,0.8-1,1C84.2,147.6,84.1,147.6,84.1,147.7z"/>
			<path class="st6" d="M180.7,135.9l-66.8,7.7c-3.6,0.4-6.9-1.6-7.3-5.2c-0.4-3.6,1.7-6.2,5.3-6.6l67.4-7.7
				c3.6-0.4,6.3,1.7,6.7,5.3C186.4,132.8,184.3,135.4,180.7,135.9z"/>
			<path class="st6" d="M87.8,183.5c6.9,0,12.5-5.6,12.5-12.4c0-6.9-5.6-12.4-12.5-12.4c-6.9,0-12.5,5.6-12.5,12.4
				C75.4,178,80.9,183.5,87.8,183.5z"/>
			<path class="st5" d="M87.5,177.3c-0.4,0.1-0.8,0.1-1.2-0.1l-4-1.7c-0.6-0.2-0.8-0.9-0.6-1.5c0.2-0.6,0.9-0.8,1.5-0.6l3.6,1.5
				l4.2-9.8c0.2-0.6,0.9-0.8,1.5-0.6c0.6,0.2,0.8,0.9,0.6,1.5l-4.4,10.2c-0.2,0.4-0.5,0.8-1,1C87.6,177.3,87.6,177.3,87.5,177.3z"/>
			<path class="st6" d="M184.1,165.5l-66.8,7.7c-3.6,0.4-6.8-1.6-7.3-5.2c-0.4-3.6,1.7-6.2,5.3-6.6l67.4-7.7
				c3.6-0.4,6.3,1.7,6.7,5.3C189.8,162.5,187.7,165.1,184.1,165.5z"/>
			<path class="st6" d="M91.4,214.7c6.9,0,12.5-5.6,12.5-12.4s-5.6-12.4-12.5-12.4c-6.9,0-12.5,5.6-12.5,12.4S84.5,214.7,91.4,214.7
				z"/>
			<path class="st5" d="M91.1,208.5c-0.4,0.1-0.8,0.1-1.2-0.1l-4-1.7c-0.6-0.2-0.8-0.9-0.6-1.5c0.2-0.6,0.9-0.8,1.5-0.6l3.6,1.5
				l4.2-9.8c0.2-0.6,0.9-0.8,1.5-0.6c0.6,0.2,0.8,0.9,0.6,1.5l-4.4,10.2c-0.2,0.4-0.5,0.8-1,1C91.2,208.5,91.2,208.5,91.1,208.5z"/>
			<path class="st6" d="M187.7,196.7l-66.8,7.7c-3.6,0.4-6.8-1.6-7.3-5.2c-0.4-3.6,1.7-6.2,5.3-6.6l67.4-7.7
				c3.6-0.4,6.3,1.7,6.7,5.3C193.5,193.6,191.3,196.3,187.7,196.7z"/>
			<path class="st6" d="M131.2,116.2c26.1,0,47.3-21.1,47.3-47.1c0-26-21.2-47.1-47.3-47.1c-26.1,0-47.3,21.1-47.3,47.1
				C83.9,95.1,105.1,116.2,131.2,116.2z"/>
			<path class="st6" d="M203.4,27.8c-0.8,0.1-1.5-0.5-1.6-1.3c-0.4-2.7-0.6-5-0.7-5.2c-0.4-3.4-2.2-6.4-5-8.6
				c-2.8-2.2-6.4-3.1-10-2.7c0,0,0,0,0,0l-8.2,1h0c-0.8,0.1-1.5-0.5-1.6-1.3c-0.1-0.8,0.5-1.5,1.3-1.6l8.2-1c0,0,0,0,0,0
				c4.4-0.5,8.7,0.7,12.1,3.3c3.4,2.6,5.6,6.4,6.1,10.5c0,0.2,0.3,2.5,0.7,5.1C204.8,26.9,204.2,27.7,203.4,27.8
				C203.4,27.8,203.4,27.8,203.4,27.8z"/>
			<path class="st2" d="M26.7,132.3c0,0,8.9-22.3,18.3-18.6C54.3,117.4,32.7,135.5,26.7,132.3z"/>
			<path class="st2" d="M26.8,132c0,0,22.4-13.8,23.8-4C52,137.9,27,139,26.8,132z"/>
			<path class="st2" d="M23.9,135.3c0,0,24.4-6.4,21.7,4.1C43,150,21.3,142.5,23.9,135.3z"/>
			<path class="st2" d="M21.4,135.2c0,0-5.4-24.6,5-21.5C36.9,116.9,28.6,138.1,21.4,135.2z"/>
			<path class="st2" d="M24.4,136.8c0,0-23,10.5-22.1-0.3C3.1,125.7,25.7,129.2,24.4,136.8z"/>
			<path class="st2" d="M23.9,139.1c0,0-17.6-10.7-10.7-15.6C20.1,118.6,29.1,136.2,23.9,139.1z"/>
			<path class="st2" d="M23,137.6c0,0-23.9,2.4-23,12.4C1,159.9,24.4,144.2,23,137.6z"/>
			<path class="st2" d="M22.3,135.9c0,0-19.5,17.7-10.4,21.7C21,161.7,29,138,22.3,135.9z"/>
			<path class="st2" d="M22.5,134.3c0,0-3.1,25,7,20.9C39.6,151.1,29.3,130.8,22.5,134.3z"/>
			<path class="st3" d="M28,140.2c6.3-4.8,9.9-10.7,7.9-13.3c-2-2.6-8.7-0.9-15,3.9c-6.3,4.8-9.9,10.7-7.9,13.3
				C14.9,146.7,21.6,144.9,28,140.2z"/>
			<path class="st7" d="M242.5,221l20.3,16.4l-2.9-11c-0.2-0.7,0.4-1.4,1.1-1.3l11.4,0.5l-20.3-16.4L242.5,221z"/>
			<path class="st3" d="M184.6,268.3c7.9,3,17.2,4.1,20.1,0.5l38.7-47.6c-4.3,1.1-12.4-1.1-17.7-3.5L184.6,268.3z"/>
			<path class="st3" d="M231.2,210.3c7.2,3.1,16.9,4.9,20.4,0.7l35.4-43.6c-7.3,1.5-17-3.5-27.2-11.4l-5.9,7.3
				c2.5,3.4,3.2,4.8,7,7.9l0.2,0.2c0.6,0.5,0.6,1.3,0.2,1.9L231.2,210.3z"/>
			<path class="st8" d="M250.6,163.1l2.6-3.2c0.5-0.6,1.3-0.6,1.9-0.2l0.2,0.2c12.3,10,26.9,13.4,31.7,7.4
				c4.7-5.8,0.9-16.7-8.6-24.3c-9.4-7.6-20.9-9.1-25.6-3.3l-5,6.1C244.9,149.6,246.2,156.2,250.6,163.1z"/>
			<path class="st8" d="M227,206.4c1.7,1.4,3.5,2.6,5.3,3.5l36.5-45c-9.8-8.2-15.7-18-15.7-25.5l-34.6,42.7
				C213.8,188,217.6,198.8,227,206.4z"/>
			<path class="st8" d="M183.3,270.4l43.5-53.6c-1.8-1-3.6-2.2-5.3-3.5c-7.5-6-11.6-14.1-11.5-20.7l-39.9,49.1
				C165.5,247.5,171.5,260.5,183.3,270.4z"/>
			<path class="st7" d="M218.6,216.8c9.4,7.6,19.8,10.4,24.5,4.6l9.7-11.9c-6.5,1.6-15.2-0.8-22.7-6.9c-7.5-6-11.6-14.1-11.5-20.7
				l-8.6,10.6C205.3,198.4,209.2,209.2,218.6,216.8z"/>
			<path class="st9" d="M117.2,73.2c0.3,1,0.2,3.7-3.1,3c-5.3-0.8-20.9-6.3-14.1-13.9c3-3.3,6.7,0.6,9.6,4.2
				C112.9,70.6,117.1,73.2,117.2,73.2z"/>
			<path class="st9" d="M146.4,68.9c0,1.1,0.8,3.6,3.9,2c4.8-2.3,18.3-11.9,9.6-17.3c-3.8-2.4-6.2,2.5-8,6.7
				C149.7,65.3,146.4,69,146.4,68.9z"/>
			<path class="st1" d="M146.2,41.9c0,0-10.3,10.9-19.8,6.3C126.5,48.2,131.4,39.6,146.2,41.9z"/>
			<path class="st10" d="M136.8,38.7c0,0-0.7,8.8-11.6,11.5C125.2,50.1,124.6,46.4,136.8,38.7z"/>
			<path class="st11" d="M118.6,50c-4.6,3.1-11.1,11-8.2,24.6c0.8,3.6,2.2,10,4.9,13.6c2.7,3.5-1.2,6.9,0.5,10.4
				c2.8,6,3.4-3.8,18.7-7.4c9.2-2.1,20.6,6.7,19.9-0.2c-0.2-2.6-3.5-3.6-2.8-7.9c0.9-5.3,2.9-6.3,2.1-14.2
				C151.1,42.4,127.3,44,118.6,50z"/>
			<path d="M133,66.3c0.1,0.4,0.8,2.8-2.6,3.3c-3.4,0.5-3.8-2-3.9-2.4c-0.1-0.4,1.4-0.3,3.2-0.5C131.6,66.4,133,65.9,133,66.3z"/>
			<path class="st6" d="M129.9,67.4l-0.1,0c-0.3,0-0.5-0.1-0.6-0.4l0-0.2l1.1-0.2l0,0.2C130.4,67.1,130.2,67.3,129.9,67.4z"/>
			<path class="st1" d="M121.5,39.9c0,0,2.6,0.3,3.4,3.1C124.9,43,123.8,43.1,121.5,39.9z"/>
			<path class="st1" d="M128,40.5c0,0,0.7,4.1-3.3,4.7C124.7,45.3,124.6,43.4,128,40.5z"/>
			<path class="st12" d="M125.3,48.1c-0.2-0.2-1.9-5.3,1.1-10"/>
			<path class="st2" d="M126.3,36.2c0,0-3.5-2-4.4-0.5C121.1,37.2,125.8,37.3,126.3,36.2z"/>
			<path class="st2" d="M126.2,36.2c0,0-4.4,0.5-3.5,2C123.6,39.6,126.9,37.1,126.2,36.2z"/>
			<path class="st2" d="M127,36.3c0,0-3.9,1.7-2.4,2.8C126,40.2,128.1,37,127,36.3z"/>
			<path class="st2" d="M127.3,36.1c0,0-1.9-3.8-2.9-2.3C123.3,35.3,126.6,37.2,127.3,36.1z"/>
			<path class="st2" d="M127.1,36.6c0,0,4.1-1,2.9-2.4C128.7,32.9,126.1,35.7,127.1,36.6z"/>
			<path class="st2" d="M127.4,36.8c0,0,1.2-3.2-0.3-3.2C125.7,33.7,126.4,37,127.4,36.8z"/>
			<path class="st2" d="M127.3,36.5c0,0,3.4-2.2,4.3-0.8C132.6,37.1,127.8,37.5,127.3,36.5z"/>
			<path class="st2" d="M127.2,36.2c0,0,4.4,0.3,3.7,1.7C130.1,39.5,126.6,37.2,127.2,36.2z"/>
			<path class="st2" d="M127,36.1c0,0,3.1,3,1.3,3.5C126.6,40.1,125.8,36.3,127,36.1z"/>
			<path class="st3" d="M126.9,37.4c1.3,0,2.4-0.5,2.4-1.1c0-0.5-1.1-1-2.4-0.9c-1.3,0-2.4,0.5-2.4,1.1
				C124.5,37,125.6,37.4,126.9,37.4z"/>
			<path d="M135.9,63.3c0.8,0,1.4-0.6,1.4-1.4s-0.6-1.4-1.4-1.4c-0.8,0-1.4,0.6-1.4,1.4S135.1,63.3,135.9,63.3z"/>
			<path d="M122.6,65.2c0.8,0,1.4-0.6,1.4-1.4c0-0.8-0.6-1.4-1.4-1.4c-0.8,0-1.4,0.6-1.4,1.4C121.2,64.6,121.8,65.2,122.6,65.2z"/>
			<path class="st13" d="M163.5,61l-10-6.7l-1.3,1.9l10,6.7L163.5,61z"/>
			<path class="st3" d="M152.9,51.5l-0.3,0.5c0,0,0,0,0,0l-1.6,2.4c-0.1,0.1-0.2,0.1-0.2,0c-0.1-0.1-0.1-0.2,0-0.2l1.6-2.3
				c-0.4-0.2-0.9-0.2-1.1,0l-2.1,3.2c-0.2,0.3,0.2,0.9,0.6,1.3l-0.3,0.5c-0.2,0.3,0,0.8,0.4,1.1l1,0.6c0.1,0.1,0.2,0.1,0.3,0
				l4.2-6.2c0.1-0.1,0-0.2-0.1-0.3l-1-0.6C153.7,51.2,153.2,51.2,152.9,51.5z"/>
			<path class="st14" d="M150.8,54.4c0.1,0.1,0.2,0,0.2,0l1.6-2.4c-0.1-0.1-0.2-0.1-0.3-0.1l-1.6,2.3
				C150.7,54.3,150.7,54.4,150.8,54.4z"/>
			<path class="st3" d="M164.3,58.5l-4.2,6.2c-0.1,0.1,0,0.2,0.1,0.3l1,0.6c0.4,0.3,1,0.3,1.2,0l0.3-0.5c0.5,0.3,1.2,0.4,1.4,0.1
				l2.1-3.2c0.2-0.2-0.1-0.7-0.4-1l-0.5,0.8c-0.1,0.1-0.2,0.1-0.2,0c-0.1-0.1-0.1-0.2,0-0.2l0.5-0.8l0.3-0.5c0.2-0.3,0-0.8-0.4-1.1
				l-1-0.6C164.5,58.4,164.4,58.4,164.3,58.5z"/>
			<path class="st14" d="M165.2,61.8c0.1,0.1,0.2,0,0.2,0l0.5-0.7c-0.1-0.1-0.2-0.2-0.2-0.2l-0.5,0.8
				C165.1,61.6,165.1,61.7,165.2,61.8z"/>
			<path class="st9" d="M158.8,60c1,0.8,2.5,0.5,3.2-0.5c1.6-2.3,1.4-3.7-2.2-5.8c-1.9-1.1-3.6-0.7-5.2,1.4
				c-0.5,0.6-0.4,1.5,0.2,1.9C156.1,58.1,158.4,59.7,158.8,60z"/>
			<path class="st13" d="M100.2,71.9l7.7-9.2l-1.7-1.4l-7.7,9.2L100.2,71.9z"/>
			<path class="st3" d="M105.9,58.3l0.5,0.4l0,0l2.2,1.8c0.1,0.1,0.2,0,0.2,0c0.1-0.1,0-0.2,0-0.2l-2.2-1.8c0.4-0.3,0.8-0.4,1.1-0.3
				l3,2.5c0.3,0.2,0.1,1-0.2,1.4l0.5,0.4c0.3,0.3,0.3,0.8-0.1,1.2l-0.7,0.9c-0.1,0.1-0.2,0.1-0.3,0.1l-5.8-4.8
				c-0.1-0.1-0.1-0.2,0-0.3l0.7-0.9C105.1,58.2,105.6,58.1,105.9,58.3z"/>
			<path class="st14" d="M108.8,60.5c-0.1,0.1-0.2,0.1-0.2,0l-2.2-1.8c0.1-0.1,0.2-0.2,0.3-0.2l2.2,1.8
				C108.8,60.3,108.9,60.4,108.8,60.5z"/>
			<path class="st3" d="M97,68.2l5.8,4.8c0.1,0.1,0.1,0.2,0,0.3l-0.7,0.9c-0.3,0.4-0.9,0.5-1.2,0.3l-0.5-0.4c-0.4,0.4-1,0.7-1.3,0.5
				l-3-2.5c-0.2-0.2-0.1-0.7,0.1-1.1l0.7,0.6c0.1,0.1,0.2,0,0.2,0c0.1-0.1,0-0.2,0-0.2l-0.7-0.6l-0.5-0.4c-0.3-0.3-0.3-0.8,0.1-1.2
				l0.7-0.9C96.8,68.2,96.9,68.2,97,68.2z"/>
			<path class="st14" d="M97.1,71.6c-0.1,0.1-0.2,0.1-0.2,0l-0.7-0.6c0.1-0.1,0.1-0.2,0.2-0.3l0.7,0.6
				C97.1,71.4,97.1,71.6,97.1,71.6z"/>
			<path class="st9" d="M102.7,68.1c-0.7,1-2.2,1.2-3.2,0.4c-2.2-1.7-2.4-3.2,0.4-6.2c1.5-1.6,3.2-1.7,5.4-0.1
				c0.6,0.4,0.8,1.3,0.4,1.9C104.7,65.6,102.9,67.7,102.7,68.1z"/>
			<path class="st6" d="M139.6,53c0,0,1.8,4.5,3.6,3.1C144,55.6,143.9,52.6,139.6,53z"/>
		</g>
	</g>
</g>
</svg>
