<?xml version="1.0" encoding="utf-8"?>
<!-- Generator: Adobe Illustrator 25.1.0, SVG Export Plug-In . SVG Version: 6.00 Build 0)  -->
<svg version="1.1" id="Layer_1" xmlns="http://www.w3.org/2000/svg" xmlns:xlink="http://www.w3.org/1999/xlink" x="0px" y="0px"
	 viewBox="0 0 336.8 289.9" style="enable-background:new 0 0 336.8 289.9;" xml:space="preserve">
<style type="text/css">
	.st0{fill:#FFFFFF;}
	.st1{fill:#00A878;}
	.st2{fill:#808080;}
	.st3{fill:#32DCD2;}
	.st4{fill:none;stroke:#28C86E;stroke-width:2.3601;stroke-linecap:round;stroke-miterlimit:10;}
	.st5{fill:#FFCF8D;}
	.st6{fill:#FF9F1A;}
	.st7{fill:#00CDDC;}
	.st8{fill:#404040;}
</style>
<g>
	<g>
		<path class="st0" d="M336.8,196.8c0-226.6-22.9-192.5-141.4-196.5C166.6-0.7,123,0.9,87.7,2C53.1,3.1,12.1,8,6.8,33.3
			c-8.2,39.4-6,95.5-6,167.8c0,41.5-8.2,66.1,27.4,80.5c36.2,14.6,206.7,5.8,250.3,4C323.6,283.8,336.8,278.9,336.8,196.8z"/>
		<path class="st1" d="M160,137.3c0.6-0.2,1.2-0.3,2.1-0.3c0.9,0,1.6,0.1,2,0.3c0.8,0.3,1.4,1,1.8,1.8c0.2,0.4,0.4,1.2,0.5,2.4
			c0.2,1.2,0.2,2.2,0.2,3.1c0,0.4,0,0.7-0.1,0.9c-0.1,0.8-0.3,1.6-0.6,2.6s-0.6,1.4-0.7,1.4c-0.2,0-0.4,0.2-0.4,0.6
			c0,0.3,0.1,0.6,0.3,1c0.5,0.7,1.2,2,2.1,3.9c0.9,1.9,1.4,3.1,1.5,3.6c0,0.2,0.1,0.4,0.1,0.6c0,0.4-0.1,0.8-0.3,1
			c-0.2,0.4-0.5,0.6-0.9,0.6c-0.3,0-0.6,0-0.8-0.1c-0.8-0.1-1.2-0.2-1.4-0.3c-0.2-0.1-0.3-0.4-0.3-0.7c0-0.6-0.3-1.5-0.9-2.8
			c-0.6-1.2-1.1-1.9-1.4-1.9h-0.1c-0.1,0.1-0.1,0.4-0.1,1c0,0.9,0.1,1.9,0.3,3c0.1,0.5,0.1,0.8,0.1,1c0,1-0.2,1.7-0.7,1.9
			c-0.2,0.1-0.4,0.1-0.8,0.1c-1,0-1.6-0.2-1.8-0.7c-0.1-0.2-0.3-2.3-0.4-6.2c0-1.2-0.1-2.6-0.1-4s-0.1-2.5-0.1-3.1
			c0-0.7,0-1.5-0.1-2.6s-0.2-2.2-0.3-3.5c-0.1-1.5-0.2-2.3-0.2-2.6c0-0.7,0.1-1.2,0.3-1.5C159.1,137.7,159.5,137.5,160,137.3z
			 M162.9,140.7c-0.1-0.2-0.3-0.4-0.5-0.4s-0.3,0.1-0.5,0.3c-0.1,0.2-0.1,0.4,0,0.6c0,0,0.1,1,0.2,2.9s0.2,2.9,0.3,3
			s0.2-0.1,0.5-0.4c0.2-0.3,0.3-0.8,0.3-1.6c0-0.6,0-1.1-0.1-1.5C163.1,142,163,141,162.9,140.7z"/>
		<path class="st1" d="M175.6,138.2c0.4-0.1,0.8-0.1,1.5-0.1c1.7,0,2.7,0.2,3.1,0.6c0.3,0.3,0.5,0.6,0.5,1s-0.1,0.7-0.5,1
			c-0.3,0.3-0.7,0.4-1.2,0.4s-0.8,0.1-0.9,0.3c-0.2,0.2-0.2,0.8-0.2,1.6c0,0.2,0,1,0.1,2.3c0.1,1.5,0.1,2.5,0.2,2.9
			c0.1,0.4,0.2,0.7,0.3,0.7c0,0,0.2,0,0.6,0c0.4,0,0.7,0,0.9,0c0.7,0,1.3,0.2,1.6,0.6c0.2,0.2,0.3,0.4,0.3,0.6c0,0.5-0.7,0.9-2,1.4
			c-0.8,0.3-1.2,0.5-1.4,0.6s-0.3,0.5-0.3,1c-0.1,0.5-0.1,0.9-0.1,1.3c0,1.5,0.1,2.7,0.4,3.4c0.1,0.3,0.3,0.5,0.4,0.6
			c0.1,0.1,0.5,0.1,1,0.1c0.6,0,1.2,0.2,1.7,0.4c0.5,0.3,0.7,0.6,0.7,1c0,0.3-0.2,0.6-0.7,1.1c-0.7,0.7-2,1-3.7,1
			c-1.8,0-2.9-0.4-3.5-1.1c-0.3-0.4-0.5-3-0.6-7.8c-0.1-6-0.1-9.5-0.2-10.6l-0.1-3.4l0.6-0.4C174.7,138.5,175.2,138.3,175.6,138.2z"
			/>
		<path class="st1" d="M188.2,137.6c0.3-0.1,0.7-0.2,1.2-0.2c1,0,2.1,0.2,3.2,0.7c1.1,0.5,1.9,1,2.3,1.7c0.5,0.7,0.7,1.5,0.7,2.4
			c0,1-0.3,2.4-1,4l-0.5,1.2l0.8,0.8c0.5,0.5,1,1.2,1.4,1.9c0.3,0.8,0.5,1.5,0.5,2.2s0,1.3-0.1,1.8c-0.1,1.3-0.1,2.2-0.2,2.6
			c-0.1,0.4-0.3,1-0.7,1.7c-0.7,1.5-1.4,2.4-1.9,2.9c-0.6,0.5-1.4,0.7-2.5,0.7c-1.2,0-1.9,0-2.2,0h-0.1c-0.5,0-0.9-0.2-1.3-0.8
			s-0.7-1.1-0.8-1.8c0-0.1-0.1-0.5-0.1-1c0-0.9,0.1-1.8,0.1-2.7c0.2-1.5,0.3-5.4,0.3-11.6c0-3.2-0.1-4.9-0.1-5.1
			c0,0-0.1-0.1-0.1-0.2c0-0.2,0.1-0.5,0.3-0.8C187.8,137.9,188,137.7,188.2,137.6z M192.8,150.9c-0.1-0.2-0.4-0.4-0.8-0.4
			c-0.3,0-0.6,0.1-0.8,0.5c-0.2,0.3-0.3,2-0.3,4.9c0,1.5,0.1,2.2,0.1,2.3h0.1c0.1,0,0.4-0.2,0.7-0.7s0.6-1,0.8-1.6
			c0.3-0.8,0.5-1.8,0.5-3.1C193.1,151.9,193,151.2,192.8,150.9z M191.7,142c-0.1-0.3-0.2-0.4-0.4-0.4s-0.3,0.6-0.3,1.8
			c0,1.1,0.1,1.6,0.1,1.6h0.1c0.2-0.1,0.3-0.5,0.4-0.9c0.1-0.5,0.2-0.8,0.2-1.1c0-0.1,0-0.3-0.1-0.5
			C191.7,142.2,191.7,142.1,191.7,142z"/>
		<path class="st1" d="M202.7,138.1l0.8-1.1h5.7l0.9,0.9c0.6,0.6,1,1.3,1.2,2.2s0.4,2.3,0.6,4.1c0.1,0.7,0.1,1.7,0.1,3.1
			c0,3.1-0.3,5.9-0.9,8.5c-0.6,2.5-1.3,4.3-2.3,5.2c-0.3,0.3-0.8,0.6-1.3,0.8c-0.6,0.2-1.1,0.3-1.5,0.3c-0.2,0-0.3,0-0.5-0.1
			c-0.2-0.2-0.6-0.2-1-0.2c-0.3,0-0.7-0.2-1-0.8c-0.4-0.5-0.7-1.1-1-1.8c-0.4-1.2-0.7-2.5-0.9-3.9s-0.2-3.7-0.2-6.8v-2.1
			c0-2.9,0.1-4.8,0.2-5.8C201.9,139.6,202.2,138.8,202.7,138.1z M207,140.3c-0.3-0.6-0.5-0.9-0.7-0.9s-0.5,0.5-0.8,1.4
			c-0.2,0.7-0.4,2.1-0.4,4.2c0,1.7,0.1,3.4,0.2,5.2c0.1,1.7,0.3,3.4,0.6,4.9s0.5,2.3,0.7,2.3c0.1,0,0.3-0.3,0.4-1
			c0.1-0.6,0.3-1,0.5-1.4c0.1-0.2,0.2-1.5,0.4-4c0.1-1.3,0.1-2.5,0.1-3.6C208.2,144.2,207.8,141.8,207,140.3z"/>
		<path class="st1" d="M218,138.1l0.8-1.1h5.7l0.9,0.9c0.6,0.6,1,1.3,1.2,2.2c0.2,0.9,0.4,2.3,0.6,4.1c0.1,0.7,0.1,1.7,0.1,3.1
			c0,3.1-0.3,5.9-0.9,8.5c-0.6,2.5-1.3,4.3-2.3,5.2c-0.3,0.3-0.8,0.6-1.3,0.8c-0.6,0.2-1.1,0.3-1.5,0.3c-0.2,0-0.3,0-0.5-0.1
			c-0.2-0.2-0.6-0.2-1-0.2c-0.3,0-0.7-0.2-1.1-0.8c-0.4-0.5-0.7-1.1-1-1.8c-0.4-1.2-0.7-2.5-0.9-3.9s-0.2-3.7-0.2-6.8v-2.1
			c0-2.9,0.1-4.8,0.2-5.8C217.1,139.6,217.5,138.8,218,138.1z M222.3,140.3c-0.3-0.6-0.5-0.9-0.7-0.9s-0.5,0.5-0.8,1.4
			c-0.2,0.7-0.4,2.1-0.4,4.2c0,1.7,0.1,3.4,0.2,5.2c0.1,1.7,0.3,3.4,0.6,4.9s0.5,2.3,0.7,2.3c0.1,0,0.3-0.3,0.4-1
			c0.2-0.6,0.3-1,0.5-1.4c0.1-0.2,0.2-1.5,0.4-4c0.1-1.3,0.1-2.5,0.1-3.6C223.4,144.2,223.1,141.8,222.3,140.3z"/>
		<path class="st1" d="M233,137c0.4-0.4,1.1-0.5,2.1-0.5h1c1.6,0.1,2.6,0.1,3,0.2c0.2,0.1,0.6,0.1,1.3,0.2s1.2,0.2,1.5,0.4
			c0.3,0.2,0.5,0.6,0.5,1.2s-0.1,1-0.4,1.2c-0.2,0.2-0.6,0.4-1.1,0.5c-0.6,0.1-1,0.2-1.1,0.3c-0.2,0.1-0.2,3.1-0.2,8.7
			c0,3.9,0,6.7,0.1,8.3c0.1,1.3,0.1,2,0.1,2.1c0,0.6-0.1,1.2-0.4,1.7c-0.3,0.6-0.9,0.9-1.6,0.9c-0.5,0-0.9-0.1-1.4-0.4l-0.9-0.5
			l0.1-10.4c0.1-2.7,0.1-5.4,0.1-8c0-1.6-0.1-2.5-0.4-2.6c-0.4-0.2-0.6-0.3-0.7-0.2c-0.1,0-0.3,0-0.5,0c-0.5,0-1-0.2-1.4-0.5
			s-0.6-0.7-0.6-1.1C232.3,137.8,232.5,137.4,233,137z"/>
		<path class="st1" d="M255.7,139.9c0.6-0.6,1-0.9,1.2-1c0.2-0.1,0.6-0.2,1.1-0.2c1.4,0,2.1,0.5,2.1,1.4c0,0.8-0.6,1.5-1.8,2.2
			c-0.8,0.4-1.4,2-1.8,4.6c-0.2,1.2-0.3,2.4-0.3,3.7s0.1,2.6,0.2,4c0.2,1.7,0.4,2.9,0.7,3.6c0.3,0.7,0.9,1.1,1.5,1.2
			c1.2,0.2,1.9,0.6,2.1,1.1c0,0.1,0,0.1,0,0.2c0,0.3-0.2,0.6-0.5,0.9s-0.8,0.5-1.2,0.6c-0.1,0-0.3,0-0.5,0c-1.1,0-2.2-0.3-3.1-0.8
			c-0.3-0.2-0.7-0.8-1.2-1.7c-0.5-0.9-0.8-1.8-1.1-2.6c-0.3-1.2-0.5-3.4-0.5-6.6c0-1.2,0.1-2.4,0.2-3.5c0.2-1.9,0.6-3.3,1-4.3
			C254.2,141.7,254.8,140.8,255.7,139.9z"/>
		<path class="st1" d="M269.1,138.5c0.8-0.8,2-1.2,3.6-1.2c0.7,0,1.3,0.1,1.7,0.4c0.6,0.3,1.1,1.2,1.4,2.6c0.2,1.2,0.5,3.1,0.8,5.9
			s0.5,4.9,0.5,6.4c0,1.4,0.1,3,0.3,4.8c0.2,1.8,0.3,2.8,0.4,2.9c0,0,0,0.1,0,0.2c0,0.3-0.1,0.6-0.4,1c-0.2,0.4-0.5,0.6-0.7,0.7
			c-0.1,0-0.2,0-0.4,0c-0.5,0-1-0.1-1.5-0.3c-0.6-0.2-0.9-0.4-1-0.7c-0.1-0.2-0.3-1.1-0.4-2.5c-0.2-1.4-0.2-2.6-0.2-3.5
			c0-0.8-0.1-1.3-0.3-1.4c-0.2-0.1-0.8-0.1-2.1-0.1c-1,0-1.6,0-1.6,0.1s-0.1,0.3-0.1,0.6c0,0.6,0.1,1.5,0.1,2.5
			c0.1,1.2,0.1,2.2,0.1,2.9v0.4c0,0.2-0.2,0.4-0.7,0.6c-0.4,0.2-0.8,0.2-1.2,0.2c-0.2,0-0.3,0-0.4-0.1c-1-0.3-1.6-0.7-1.7-1.3
			c0,0,0-0.1,0-0.2s0-0.2,0-0.3c0-1.3,0.1-4,0.5-8.2c0.3-4.2,0.5-6.6,0.7-7.3c0.2-0.8,0.5-1.8,1.1-2.9
			C268.2,139.6,268.7,138.8,269.1,138.5z M272.2,143.2c-0.2-0.9-0.4-1.3-0.6-1.3s-0.5,0.3-0.7,1c-0.6,1.2-1,2.9-1.1,5
			c-0.1,0.9-0.1,1.4-0.1,1.5c0,0.4,0.1,0.7,0.2,0.8c0.2,0.1,0.6,0.2,1.2,0.2c0.9,0,1.4-0.1,1.5-0.3c0.1-0.1,0.1-0.5,0.1-1.2
			C272.7,146.7,272.5,144.8,272.2,143.2z"/>
		<path class="st1" d="M293.9,138.3c0.4-0.1,0.8-0.2,1.1-0.2c0.8,0,1.4,0.3,1.7,0.8c0.2,0.3,0.5,1.6,0.7,3.9s0.4,4.7,0.5,7.4
			c0,0.9,0.1,2.1,0.2,3.7s0.1,3,0.2,4.1c0.1,1.2,0.1,2.1,0.1,2.8c0,0.4-0.2,0.7-0.7,1s-0.9,0.4-1.5,0.4c-0.5,0-0.8-0.1-1-0.3
			l-0.6-0.5l-0.1-5.5c-0.2-6.3-0.5-9.5-0.8-9.5c-0.2,0-0.6,0.8-1.1,2.4c-0.3,0.9-0.6,1.5-0.8,1.9c-0.3,0.4-0.7,0.5-1.1,0.5
			c-0.3,0-0.7-0.1-1.2-0.3c-0.5-0.2-0.9-0.7-1.3-1.4c-0.4-0.8-0.5-1.2-0.5-1.3c0-0.1-0.1-0.3-0.2-0.6c-0.2-0.3-0.3-0.6-0.5-0.9
			s-0.3-0.4-0.3-0.3v0.5c0,1.3,0,3.3,0.1,5.9l0.2,6.4l-0.6,1c-0.7,1-1.2,1.5-1.7,1.5c-0.3,0-0.6-0.2-0.9-0.7
			c-0.2-0.4-0.4-0.9-0.5-1.7s-0.1-3-0.2-6.9c-0.2-7.1-0.4-11.1-0.5-12c0-0.1-0.1-0.3-0.1-0.5c0-0.3,0.2-0.7,0.5-1
			c0.4-0.4,0.8-0.5,1.3-0.5s1.1,0.1,1.7,0.4s1.1,0.6,1.4,1.1s1.1,1.8,2.3,4c0.3,0.6,0.6,0.9,0.7,0.9s0.3-0.2,0.5-0.6
			c0.2-0.5,0.4-1.1,0.8-1.8c0.4-0.9,0.6-1.4,0.6-1.5c0-0.3,0.2-0.7,0.6-1.4C293.4,138.7,293.7,138.4,293.9,138.3z"/>
		<path class="st1" d="M303.9,136.5c0.3-0.1,1-0.2,2.2-0.2c1.5,0,2.4,0.1,2.7,0.3c0.5,0.3,1,0.7,1.6,1.3c0.6,0.6,1,1.1,1.2,1.6
			c0.4,0.7,0.6,2.4,0.7,4.9c0.1,1.5,0.1,2.4,0.1,2.6c0,1-0.1,1.9-0.4,2.7c-0.3,1-0.7,1.7-1.1,2.2s-1.1,0.9-1.9,1.1l-1.3,0.5v3.8
			c0,2.2-0.1,3.6-0.2,4.1s-0.6,0.7-1.4,0.7c-0.6,0-1.2-0.2-1.6-0.5l-0.7-0.5v-3.3V157c0-2.6-0.1-5.9-0.2-9.8s-0.3-6.3-0.5-7.3
			c-0.1-0.7-0.1-1.2-0.1-1.6C303,137.4,303.3,136.8,303.9,136.5z M308,140.9c-0.3-0.7-0.6-1-0.7-1s-0.2,0-0.2,0.1c0,1,0,2.2,0,3.5
			c0,4.3,0.2,6.5,0.5,6.5c0.1,0,0.3-0.3,0.6-0.9c0.2-0.6,0.4-1.2,0.4-2c0-0.2,0-0.9-0.1-2.1C308.4,142.8,308.2,141.4,308,140.9z"/>
		<path class="st2" d="M163.6,35.7c-1.1,0-2-0.2-2.8-0.7s-1.4-1.2-1.8-2c-0.4-0.9-0.7-1.9-0.7-3s0.2-2.1,0.7-3
			c0.4-0.9,1.1-1.6,1.9-2c0.8-0.5,1.8-0.7,2.9-0.7c1.3,0,2.3,0.3,3.1,0.9s1.4,1.5,1.6,2.5H167c-0.1-0.7-0.5-1.2-1.1-1.6
			s-1.3-0.6-2.1-0.6s-1.5,0.2-2.1,0.5c-0.6,0.4-1.1,0.9-1.4,1.6c-0.3,0.7-0.5,1.5-0.5,2.4c0,1,0.2,1.8,0.5,2.5s0.8,1.2,1.4,1.6
			c0.6,0.4,1.3,0.6,2.1,0.6c1.2,0,2.1-0.4,2.7-1.1c0.6-0.7,0.9-1.7,1-2.9h-3.2v-1.1h4.6v6h-1.2l-0.1-1.8c-0.4,0.6-0.9,1.1-1.5,1.5
			C165.4,35.5,164.6,35.7,163.6,35.7z"/>
		<path class="st2" d="M174.4,35.7c-0.8,0-1.4-0.2-2-0.5s-1.1-0.8-1.4-1.4c-0.3-0.6-0.5-1.4-0.5-2.2c0-0.8,0.2-1.6,0.5-2.2
			s0.8-1.1,1.4-1.5s1.3-0.5,2.1-0.5s1.4,0.2,2,0.5s1,0.8,1.3,1.4s0.4,1.2,0.4,1.8c0,0.1,0,0.2,0,0.4s0,0.2,0,0.4h-6.3
			c0,0.6,0.2,1.1,0.4,1.5s0.6,0.7,0.9,0.9c0.4,0.2,0.8,0.3,1.2,0.3c0.6,0,1-0.1,1.4-0.4s0.6-0.6,0.8-1h1.3c-0.2,0.7-0.6,1.4-1.2,1.8
			C176.1,35.5,175.3,35.7,174.4,35.7z M174.4,28.5c-0.6,0-1.2,0.2-1.7,0.6s-0.8,1-0.9,1.7h5c0-0.7-0.3-1.3-0.7-1.7
			C175.6,28.7,175.1,28.5,174.4,28.5z"/>
		<path class="st2" d="M182.8,35.5c-0.7,0-1.3-0.2-1.7-0.5c-0.4-0.4-0.6-1-0.6-1.9v-4.4h-1.4v-1.1h1.4l0.2-1.9h1.2v1.9h2.3v1.1h-2.3
			v4.4c0,0.5,0.1,0.8,0.3,1s0.6,0.3,1.1,0.3h0.8v1.2h-1.3V35.5z"/>
		<path class="st2" d="M189,35.5c-0.7,0-1.3-0.2-1.7-0.5c-0.4-0.4-0.6-1-0.6-1.9v-4.4h-1.4v-1.1h1.4l0.2-1.9h1.2v1.9h2.3v1.1H188
			v4.4c0,0.5,0.1,0.8,0.3,1s0.6,0.3,1.1,0.3h0.8v1.2H189V35.5z"/>
		<path class="st2" d="M192.9,25.8c-0.3,0-0.5-0.1-0.7-0.3c-0.2-0.2-0.3-0.4-0.3-0.7s0.1-0.5,0.3-0.6c0.2-0.2,0.4-0.3,0.7-0.3
			s0.5,0.1,0.7,0.3c0.2,0.2,0.3,0.4,0.3,0.6c0,0.3-0.1,0.5-0.3,0.7C193.3,25.7,193.1,25.8,192.9,25.8z M192.2,35.5v-7.9h1.3v7.9
			H192.2z"/>
		<path class="st2" d="M195.9,35.5v-7.9h1.2l0.1,1.4c0.3-0.5,0.6-0.9,1.1-1.2c0.5-0.3,1-0.4,1.6-0.4c0.9,0,1.7,0.3,2.2,0.9
			s0.8,1.5,0.8,2.6v4.6h-1.3V31c0-1.7-0.7-2.5-2.1-2.5c-0.7,0-1.2,0.2-1.7,0.7c-0.4,0.5-0.7,1.2-0.7,2.1v4.1L195.9,35.5L195.9,35.5z
			"/>
		<path class="st2" d="M208.2,33c-0.4,0-0.9-0.1-1.2-0.2l-0.8,0.8c0.1,0.1,0.3,0.2,0.4,0.2c0.2,0.1,0.4,0.1,0.8,0.2
			c0.3,0,0.8,0.1,1.4,0.1c1.1,0.1,1.8,0.3,2.3,0.7c0.5,0.4,0.7,1,0.7,1.6c0,0.5-0.1,0.9-0.4,1.3c-0.2,0.4-0.6,0.8-1.2,1
			c-0.5,0.3-1.2,0.4-2,0.4c-0.7,0-1.4-0.1-1.9-0.3c-0.5-0.2-1-0.5-1.3-0.9s-0.5-0.9-0.5-1.4c0-0.3,0.1-0.6,0.2-1
			c0.2-0.4,0.5-0.7,0.9-1c-0.2-0.1-0.4-0.2-0.6-0.3c-0.2-0.1-0.3-0.2-0.5-0.4v-0.4l1.4-1.3c-0.6-0.5-0.9-1.2-0.9-2.1
			c0-0.5,0.1-1,0.4-1.4c0.2-0.4,0.6-0.8,1.1-1s1-0.4,1.7-0.4c0.5,0,0.9,0.1,1.2,0.2h2.9v1l-1.5,0.1c0.3,0.5,0.5,1,0.5,1.6
			c0,0.5-0.1,1-0.4,1.4c-0.2,0.4-0.6,0.8-1.1,1C209.4,32.9,208.8,33,208.2,33z M205.8,36.5c0,0.5,0.2,0.9,0.7,1.2
			c0.5,0.3,1,0.4,1.7,0.4s1.2-0.1,1.6-0.4s0.6-0.7,0.6-1.1c0-0.3-0.1-0.6-0.4-0.9c-0.3-0.2-0.8-0.4-1.5-0.4c-0.6,0-1.1-0.1-1.5-0.2
			c-0.4,0.2-0.7,0.5-0.9,0.8C205.9,36.1,205.8,36.3,205.8,36.5z M208.2,31.9c0.6,0,1-0.1,1.4-0.4c0.3-0.3,0.5-0.7,0.5-1.3
			c0-0.5-0.2-1-0.5-1.3s-0.8-0.4-1.4-0.4c-0.6,0-1,0.1-1.4,0.4s-0.5,0.7-0.5,1.3c0,0.6,0.2,1,0.5,1.3
			C207.1,31.8,207.6,31.9,208.2,31.9z"/>
		<path class="st2" d="M221.1,35.7c-0.9,0-1.7-0.2-2.4-0.7c-0.6-0.5-1-1.1-1.1-2h1.4c0.1,0.4,0.3,0.8,0.7,1.1
			c0.4,0.3,0.8,0.5,1.4,0.5c0.6,0,1-0.1,1.2-0.4s0.4-0.5,0.4-0.9c0-0.5-0.2-0.8-0.5-1c-0.4-0.2-0.8-0.3-1.5-0.4
			c-0.4-0.1-0.8-0.2-1.3-0.4c-0.4-0.2-0.8-0.4-1.1-0.7c-0.3-0.3-0.4-0.7-0.4-1.2c0-0.7,0.3-1.3,0.8-1.7c0.5-0.4,1.2-0.7,2.1-0.7
			c0.8,0,1.5,0.2,2.1,0.6c0.5,0.4,0.9,1,0.9,1.8h-1.3c0-0.4-0.2-0.7-0.5-1c-0.3-0.2-0.7-0.3-1.2-0.3s-0.8,0.1-1.1,0.3
			c-0.3,0.2-0.4,0.5-0.4,0.8s0.2,0.6,0.5,0.8c0.3,0.2,0.8,0.3,1.4,0.5c0.5,0.1,1,0.2,1.4,0.4c0.4,0.1,0.8,0.4,1.1,0.7
			c0.3,0.3,0.4,0.7,0.4,1.3c0,0.7-0.3,1.3-0.8,1.8C222.8,35.5,222.1,35.7,221.1,35.7z"/>
		<path class="st2" d="M228.9,35.5c-0.7,0-1.3-0.2-1.7-0.5c-0.4-0.4-0.6-1-0.6-1.9v-4.4h-1.4v-1.1h1.4l0.2-1.9h1.2v1.9h2.3v1.1H228
			v4.4c0,0.5,0.1,0.8,0.3,1s0.6,0.3,1.1,0.3h0.8v1.2h-1.3V35.5z"/>
		<path class="st2" d="M234.6,35.7c-0.7,0-1.2-0.1-1.6-0.3c-0.4-0.2-0.8-0.5-1-0.9s-0.3-0.8-0.3-1.2c0-0.8,0.3-1.4,0.9-1.9
			c0.6-0.4,1.5-0.7,2.5-0.7h2.1v-0.1c0-0.7-0.2-1.2-0.5-1.6c-0.4-0.4-0.8-0.5-1.5-0.5c-0.5,0-1,0.1-1.4,0.4s-0.6,0.6-0.7,1.1h-1.4
			c0.1-0.6,0.2-1.1,0.6-1.5c0.3-0.4,0.8-0.7,1.3-0.9c0.5-0.2,1-0.3,1.6-0.3c1.1,0,1.9,0.3,2.5,0.9s0.8,1.4,0.8,2.4v4.9h-1.2
			l-0.1-1.4c-0.2,0.5-0.5,0.8-1,1.1C235.9,35.6,235.3,35.7,234.6,35.7z M234.8,34.6c0.5,0,0.9-0.1,1.3-0.4c0.4-0.3,0.7-0.6,0.8-1
			c0.2-0.4,0.3-0.9,0.3-1.3l0,0h-2c-0.8,0-1.4,0.1-1.7,0.4s-0.5,0.6-0.5,1s0.2,0.8,0.5,1C233.8,34.4,234.2,34.6,234.8,34.6z"/>
		<path class="st2" d="M240.6,35.5v-7.9h1.2l0.1,1.5c0.2-0.5,0.6-0.9,1.1-1.2s1.1-0.5,1.9-0.5v1.4h-0.4c-0.5,0-0.9,0.1-1.3,0.2
			c-0.4,0.2-0.7,0.4-0.9,0.8s-0.3,0.9-0.3,1.6v4h-1.4V35.5z"/>
		<path class="st2" d="M249.5,35.5c-0.7,0-1.3-0.2-1.7-0.5c-0.4-0.4-0.6-1-0.6-1.9v-4.4h-1.4v-1.1h1.4l0.2-1.9h1.2v1.9h2.3v1.1h-2.3
			v4.4c0,0.5,0.1,0.8,0.3,1s0.6,0.3,1.1,0.3h0.8v1.2h-1.3V35.5z"/>
		<path class="st2" d="M255.9,35.7c-0.8,0-1.4-0.2-2-0.5s-1-0.8-1.4-1.4c-0.3-0.6-0.5-1.4-0.5-2.2c0-0.8,0.2-1.6,0.5-2.2
			s0.8-1.1,1.4-1.5s1.3-0.5,2.1-0.5s1.4,0.2,2,0.5s1,0.8,1.3,1.4s0.5,1.2,0.5,1.8c0,0.1,0,0.2,0,0.4c0,0.1,0,0.2,0,0.4h-6.3
			c0,0.6,0.2,1.1,0.4,1.5s0.6,0.7,0.9,0.9c0.4,0.2,0.8,0.3,1.2,0.3c0.5,0,1-0.1,1.4-0.4s0.6-0.6,0.8-1h1.3c-0.2,0.7-0.6,1.4-1.2,1.8
			C257.7,35.5,256.9,35.7,255.9,35.7z M255.9,28.5c-0.6,0-1.2,0.2-1.7,0.6s-0.8,1-0.9,1.7h5c0-0.7-0.3-1.3-0.7-1.7
			C257.2,28.7,256.6,28.5,255.9,28.5z"/>
		<path class="st2" d="M265.1,35.7c-0.8,0-1.5-0.2-2.1-0.5c-0.6-0.4-1.1-0.9-1.4-1.5s-0.5-1.3-0.5-2.1s0.2-1.5,0.5-2.1
			s0.8-1.1,1.4-1.5s1.3-0.5,2.1-0.5c0.6,0,1.2,0.1,1.7,0.4s0.9,0.6,1.2,1.1v-4.9h1.3v11.5h-1.2l-0.1-1.3c-0.3,0.4-0.6,0.7-1.1,1
			S265.8,35.7,265.1,35.7z M265.2,34.5c0.5,0,1-0.1,1.4-0.4c0.4-0.2,0.7-0.6,1-1.1c0.2-0.4,0.3-1,0.3-1.6s-0.1-1.1-0.3-1.6
			c-0.2-0.5-0.5-0.8-1-1.1s-0.9-0.4-1.4-0.4s-1,0.1-1.4,0.4c-0.4,0.2-0.7,0.6-1,1.1c-0.2,0.4-0.3,1-0.3,1.6s0.1,1.1,0.3,1.6
			c0.2,0.5,0.6,0.8,1,1.1C264.2,34.4,264.7,34.5,265.2,34.5z"/>
		<path class="st2" d="M276.6,25.8c-0.3,0-0.5-0.1-0.7-0.3c-0.2-0.2-0.3-0.4-0.3-0.7s0.1-0.5,0.3-0.6c0.2-0.2,0.4-0.3,0.7-0.3
			s0.5,0.1,0.7,0.3c0.2,0.2,0.3,0.4,0.3,0.6c0,0.3-0.1,0.5-0.3,0.7C277.1,25.7,276.8,25.8,276.6,25.8z M275.9,35.5v-7.9h1.3v7.9
			H275.9z"/>
		<path class="st2" d="M282.6,35.7c-1,0-1.7-0.2-2.4-0.7c-0.6-0.5-1-1.1-1.1-2h1.4c0.1,0.4,0.3,0.8,0.7,1.1c0.4,0.3,0.8,0.5,1.5,0.5
			c0.6,0,1-0.1,1.2-0.4s0.4-0.5,0.4-0.9c0-0.5-0.2-0.8-0.5-1c-0.4-0.2-0.8-0.3-1.5-0.4c-0.4-0.1-0.8-0.2-1.3-0.4
			c-0.4-0.2-0.8-0.4-1.1-0.7c-0.3-0.3-0.4-0.7-0.4-1.2c0-0.7,0.3-1.3,0.8-1.7c0.5-0.4,1.2-0.7,2.1-0.7c0.8,0,1.5,0.2,2.1,0.6
			c0.5,0.4,0.9,1,0.9,1.8h-1.3c0-0.4-0.2-0.7-0.5-1s-0.7-0.3-1.2-0.3s-0.9,0.1-1.1,0.3c-0.3,0.2-0.4,0.5-0.4,0.8s0.2,0.6,0.5,0.8
			c0.3,0.2,0.8,0.3,1.4,0.5c0.5,0.1,1,0.2,1.4,0.4c0.4,0.1,0.8,0.4,1.1,0.7c0.3,0.3,0.4,0.7,0.4,1.3c0,0.7-0.3,1.3-0.8,1.8
			C284.3,35.5,283.6,35.7,282.6,35.7z"/>
		<path class="st2" d="M162.3,57.7c-0.8,0-1.4-0.2-2-0.5s-1.1-0.8-1.4-1.5c-0.4-0.6-0.5-1.4-0.5-2.2c0-0.8,0.2-1.6,0.5-2.2
			c0.4-0.6,0.8-1.1,1.4-1.5c0.6-0.3,1.3-0.5,2-0.5s1.4,0.2,2,0.5s1.1,0.8,1.4,1.5c0.4,0.6,0.5,1.4,0.5,2.2c0,0.8-0.2,1.6-0.5,2.2
			c-0.4,0.6-0.8,1.1-1.4,1.5C163.8,57.5,163.1,57.7,162.3,57.7z M162.3,56.6c0.5,0,0.9-0.1,1.3-0.3c0.4-0.2,0.7-0.6,1-1
			c0.2-0.4,0.4-1,0.4-1.7s-0.1-1.2-0.4-1.7c-0.2-0.4-0.6-0.8-1-1s-0.8-0.3-1.3-0.3s-0.9,0.1-1.3,0.3c-0.4,0.2-0.7,0.6-1,1
			c-0.2,0.4-0.4,1-0.4,1.7s0.1,1.2,0.4,1.7c0.2,0.4,0.6,0.8,1,1C161.5,56.4,161.9,56.6,162.3,56.6z"/>
		<path class="st2" d="M168.6,57.5v-6.8h-1.2v-1.1h1.2v-1.4c0-0.8,0.2-1.3,0.6-1.7c0.4-0.4,0.9-0.5,1.7-0.5h0.8v1.1h-0.6
			c-0.4,0-0.7,0.1-0.9,0.2c-0.2,0.2-0.3,0.4-0.3,0.8v1.3h1.9v1.1H170v6.8L168.6,57.5L168.6,57.5z"/>
		<path class="st2" d="M176.7,57.5c-0.7,0-1.3-0.2-1.7-0.5c-0.4-0.4-0.6-1-0.6-1.9v-4.4H173v-1.1h1.4l0.2-1.9h1.2v1.9h2.3v1.1h-2.3
			v4.4c0,0.5,0.1,0.8,0.3,1s0.6,0.3,1.1,0.3h0.8v1.2h-1.3V57.5z"/>
		<path class="st2" d="M183.1,57.7c-0.8,0-1.4-0.2-2-0.5s-1.1-0.8-1.4-1.4c-0.3-0.6-0.5-1.4-0.5-2.2c0-0.8,0.2-1.6,0.5-2.2
			s0.8-1.1,1.4-1.5s1.3-0.5,2.1-0.5s1.4,0.2,2,0.5c0.6,0.4,1,0.8,1.3,1.4s0.4,1.2,0.4,1.8c0,0.1,0,0.2,0,0.4s0,0.2,0,0.4h-6.3
			c0,0.6,0.2,1.1,0.4,1.5s0.6,0.7,0.9,0.9c0.4,0.2,0.8,0.3,1.2,0.3c0.5,0,1-0.1,1.4-0.4s0.6-0.6,0.8-1h1.3c-0.2,0.7-0.6,1.4-1.2,1.8
			C184.8,57.5,184,57.7,183.1,57.7z M183.1,50.5c-0.6,0-1.2,0.2-1.7,0.6s-0.8,1-0.9,1.7h5c0-0.7-0.3-1.3-0.7-1.7
			C184.3,50.7,183.7,50.5,183.1,50.5z"/>
		<path class="st2" d="M188.6,57.5v-7.9h1.2l0.1,1.4c0.3-0.5,0.6-0.9,1.1-1.2c0.5-0.3,1-0.4,1.6-0.4c0.9,0,1.7,0.3,2.2,0.9
			s0.8,1.5,0.8,2.6v4.6h-1.3V53c0-1.7-0.7-2.5-2.1-2.5c-0.7,0-1.2,0.2-1.7,0.7c-0.4,0.5-0.7,1.2-0.7,2.1v4.1L188.6,57.5L188.6,57.5z
			"/>
		<path class="st2" d="M205.1,57.5c-0.7,0-1.3-0.2-1.7-0.5c-0.4-0.4-0.6-1-0.6-1.9v-4.4h-1.4v-1.1h1.4l0.2-1.9h1.2v1.9h2.3v1.1h-2.3
			v4.4c0,0.5,0.1,0.8,0.3,1s0.6,0.3,1.1,0.3h0.8v1.2h-1.3V57.5z"/>
		<path class="st2" d="M208.2,57.5V46h1.3v4.9c0.3-0.5,0.6-0.9,1.1-1.1c0.5-0.3,1-0.4,1.6-0.4c0.9,0,1.6,0.3,2.2,0.9
			c0.6,0.6,0.8,1.5,0.8,2.6v4.6H214V53c0-1.7-0.7-2.5-2-2.5c-0.7,0-1.3,0.2-1.7,0.7c-0.5,0.5-0.7,1.2-0.7,2.1v4.1L208.2,57.5
			L208.2,57.5z"/>
		<path class="st2" d="M220.9,57.7c-0.8,0-1.4-0.2-2-0.5s-1.1-0.8-1.4-1.4c-0.3-0.6-0.5-1.4-0.5-2.2c0-0.8,0.2-1.6,0.5-2.2
			s0.8-1.1,1.4-1.5s1.3-0.5,2.1-0.5s1.4,0.2,2,0.5s1,0.8,1.3,1.4s0.4,1.2,0.4,1.8c0,0.1,0,0.2,0,0.4s0,0.2,0,0.4h-6.3
			c0,0.6,0.2,1.1,0.4,1.5s0.6,0.7,0.9,0.9c0.4,0.2,0.8,0.3,1.2,0.3c0.6,0,1-0.1,1.4-0.4s0.6-0.6,0.8-1h1.3c-0.2,0.7-0.6,1.4-1.2,1.8
			C222.6,57.5,221.8,57.7,220.9,57.7z M220.9,50.5c-0.6,0-1.2,0.2-1.7,0.6s-0.8,1-0.9,1.7h5c0-0.7-0.3-1.3-0.7-1.7
			C222.1,50.7,221.6,50.5,220.9,50.5z"/>
		<path class="st2" d="M230.7,57.5V46h1.3v4.9c0.3-0.5,0.6-0.9,1.1-1.1c0.5-0.3,1-0.4,1.6-0.4c0.9,0,1.7,0.3,2.2,0.9
			s0.8,1.5,0.8,2.6v4.6h-1.3V53c0-1.7-0.7-2.5-2-2.5c-0.7,0-1.3,0.2-1.7,0.7c-0.5,0.5-0.7,1.2-0.7,2.1v4.1L230.7,57.5L230.7,57.5z"
			/>
		<path class="st2" d="M242.5,57.7c-0.7,0-1.2-0.1-1.6-0.3c-0.4-0.2-0.8-0.5-1-0.9s-0.3-0.8-0.3-1.2c0-0.8,0.3-1.4,0.9-1.9
			c0.6-0.4,1.5-0.7,2.5-0.7h2.1v-0.1c0-0.7-0.2-1.2-0.5-1.6c-0.4-0.4-0.8-0.5-1.5-0.5c-0.5,0-1,0.1-1.4,0.4s-0.6,0.6-0.7,1.1h-1.4
			c0.1-0.6,0.2-1.1,0.6-1.5c0.3-0.4,0.8-0.7,1.3-0.9c0.5-0.2,1-0.3,1.6-0.3c1.1,0,1.9,0.3,2.5,0.9s0.8,1.4,0.8,2.4v4.9h-1.2
			l-0.1-1.4c-0.2,0.5-0.5,0.8-1,1.1C243.8,57.5,243.2,57.7,242.5,57.7z M242.7,56.6c0.5,0,1-0.1,1.3-0.4c0.4-0.3,0.6-0.6,0.8-1
			s0.3-0.9,0.3-1.3l0,0h-2c-0.8,0-1.4,0.1-1.7,0.4s-0.5,0.6-0.5,1s0.1,0.8,0.5,1C241.7,56.4,242.1,56.6,242.7,56.6z"/>
		<path class="st2" d="M248.5,57.5v-7.9h1.2l0.1,1.5c0.2-0.5,0.6-0.9,1.1-1.2s1.1-0.5,1.9-0.5v1.4h-0.4c-0.5,0-0.9,0.1-1.3,0.2
			c-0.4,0.2-0.7,0.4-0.9,0.8s-0.4,0.9-0.4,1.6v4h-1.3V57.5z"/>
		<path class="st2" d="M257.6,57.7c-0.8,0-1.5-0.2-2.1-0.5c-0.6-0.4-1-0.9-1.4-1.5c-0.3-0.6-0.5-1.3-0.5-2.1s0.2-1.5,0.5-2.1
			s0.8-1.1,1.4-1.5s1.3-0.5,2.1-0.5c0.6,0,1.2,0.1,1.7,0.4s0.9,0.6,1.2,1.1v-4.9h1.3v11.5h-1.2l-0.1-1.3c-0.3,0.4-0.6,0.7-1.1,1
			S258.3,57.7,257.6,57.7z M257.7,56.5c0.5,0,1-0.1,1.4-0.4s0.7-0.6,1-1.1c0.2-0.4,0.3-1,0.3-1.6s-0.1-1.1-0.3-1.6
			c-0.2-0.5-0.5-0.8-1-1.1s-0.9-0.4-1.4-0.4s-1,0.1-1.4,0.4c-0.4,0.2-0.7,0.6-1,1.1c-0.2,0.4-0.3,1-0.3,1.6s0.1,1.1,0.3,1.6
			s0.5,0.8,1,1.1C256.7,56.4,257.2,56.5,257.7,56.5z"/>
		<path class="st2" d="M267.6,57.7c-0.8,0-1.4-0.2-2-0.5s-1-0.8-1.4-1.4c-0.3-0.6-0.5-1.4-0.5-2.2c0-0.8,0.2-1.6,0.5-2.2
			s0.8-1.1,1.4-1.5s1.3-0.5,2.1-0.5c0.8,0,1.4,0.2,2,0.5c0.6,0.4,1,0.8,1.3,1.4s0.5,1.2,0.5,1.8c0,0.1,0,0.2,0,0.4s0,0.2,0,0.4H265
			c0,0.6,0.2,1.1,0.4,1.5c0.2,0.4,0.6,0.7,0.9,0.9c0.4,0.2,0.8,0.3,1.2,0.3c0.6,0,1-0.1,1.4-0.4s0.6-0.6,0.8-1h1.3
			c-0.2,0.7-0.6,1.4-1.2,1.8C269.3,57.5,268.5,57.7,267.6,57.7z M267.6,50.5c-0.6,0-1.2,0.2-1.7,0.6s-0.8,1-0.9,1.7h5
			c0-0.7-0.3-1.3-0.7-1.7C268.8,50.7,268.3,50.5,267.6,50.5z"/>
		<path class="st2" d="M276.2,57.7c-1,0-1.7-0.2-2.4-0.7c-0.6-0.5-1-1.1-1.1-2h1.4c0.1,0.4,0.3,0.8,0.7,1.1c0.4,0.3,0.8,0.5,1.4,0.5
			s1-0.1,1.2-0.4c0.3-0.2,0.4-0.5,0.4-0.9c0-0.5-0.2-0.8-0.5-1c-0.4-0.2-0.8-0.3-1.5-0.4c-0.4-0.1-0.9-0.2-1.3-0.4s-0.8-0.4-1.1-0.7
			c-0.3-0.3-0.4-0.7-0.4-1.2c0-0.7,0.3-1.3,0.8-1.7c0.5-0.4,1.2-0.7,2.1-0.7c0.8,0,1.5,0.2,2.1,0.6c0.5,0.4,0.9,1,0.9,1.8h-1.3
			c-0.1-0.4-0.2-0.7-0.5-1c-0.3-0.2-0.7-0.3-1.2-0.3s-0.9,0.1-1.1,0.3c-0.3,0.2-0.4,0.5-0.4,0.8s0.2,0.6,0.5,0.8
			c0.3,0.2,0.8,0.3,1.4,0.5c0.5,0.1,1,0.2,1.4,0.4c0.4,0.1,0.8,0.4,1.1,0.7c0.3,0.3,0.4,0.7,0.4,1.3c0,0.7-0.3,1.3-0.8,1.8
			C277.9,57.5,277.1,57.7,276.2,57.7z"/>
		<path class="st2" d="M283.9,57.5c-0.7,0-1.3-0.2-1.7-0.5c-0.4-0.4-0.6-1-0.6-1.9v-4.4h-1.4v-1.1h1.4l0.2-1.9h1.2v1.9h2.3v1.1H283
			v4.4c0,0.5,0.1,0.8,0.3,1c0.2,0.2,0.6,0.3,1.1,0.3h0.8v1.2h-1.3V57.5z"/>
		<path class="st2" d="M158.7,83V71.6h1.2l0.1,1.3c0.3-0.4,0.6-0.7,1.1-1s1.1-0.5,1.8-0.5c0.8,0,1.5,0.2,2.1,0.5
			c0.6,0.4,1,0.9,1.4,1.5c0.3,0.6,0.5,1.3,0.5,2.1c0,0.8-0.2,1.5-0.5,2.1s-0.8,1.1-1.4,1.5c-0.6,0.4-1.3,0.5-2.1,0.5
			c-0.6,0-1.2-0.1-1.7-0.4s-0.9-0.6-1.2-1.1V83H158.7z M162.8,78.5c0.5,0,1-0.1,1.4-0.4c0.4-0.2,0.7-0.6,1-1.1
			c0.2-0.4,0.4-1,0.4-1.6s-0.1-1.1-0.4-1.6c-0.2-0.5-0.6-0.8-1-1.1c-0.4-0.2-0.9-0.4-1.4-0.4s-1,0.1-1.4,0.4s-0.7,0.6-1,1.1
			c-0.2,0.4-0.4,1-0.4,1.6s0.1,1.1,0.4,1.6c0.2,0.5,0.5,0.8,1,1.1S162.3,78.5,162.8,78.5z"/>
		<path class="st2" d="M171.4,79.7c-0.7,0-1.2-0.1-1.6-0.3c-0.4-0.2-0.8-0.5-1-0.9s-0.3-0.8-0.3-1.2c0-0.8,0.3-1.4,0.9-1.9
			c0.6-0.4,1.5-0.7,2.5-0.7h2.1v-0.1c0-0.7-0.2-1.2-0.5-1.6c-0.4-0.4-0.9-0.5-1.5-0.5c-0.5,0-1,0.1-1.4,0.4s-0.6,0.6-0.7,1.1h-1.4
			c0-0.6,0.2-1.1,0.6-1.5c0.3-0.4,0.8-0.7,1.3-0.9c0.5-0.2,1-0.3,1.6-0.3c1.1,0,1.9,0.3,2.5,0.9s0.8,1.4,0.8,2.4v4.9h-1.2l-0.1-1.4
			c-0.2,0.5-0.6,0.8-1,1.1C172.7,79.6,172.1,79.7,171.4,79.7z M171.6,78.6c0.5,0,0.9-0.1,1.3-0.4c0.4-0.3,0.7-0.6,0.8-1
			c0.2-0.4,0.3-0.9,0.3-1.3l0,0h-2c-0.8,0-1.4,0.1-1.7,0.4s-0.5,0.6-0.5,1s0.1,0.8,0.5,1C170.6,78.4,171.1,78.6,171.6,78.6z"/>
		<path class="st2" d="M177.4,79.5v-7.9h1.2l0.1,1.5c0.2-0.5,0.6-0.9,1.1-1.2s1.1-0.5,1.9-0.5v1.4h-0.4c-0.5,0-0.9,0.1-1.3,0.2
			c-0.4,0.2-0.7,0.4-0.9,0.8s-0.4,0.9-0.4,1.6v4h-1.3V79.5z"/>
		<path class="st2" d="M186.4,79.5c-0.7,0-1.3-0.2-1.7-0.5c-0.4-0.4-0.6-1-0.6-1.9v-4.4h-1.4v-1.1h1.4l0.2-1.9h1.2v1.9h2.3v1.1h-2.3
			v4.4c0,0.5,0.1,0.8,0.3,1s0.6,0.3,1.1,0.3h0.8v1.2h-1.3V79.5z"/>
		<path class="st2" d="M189.2,81.4l0.9-3.5h1.4l-1.4,3.5H189.2z"/>
		<path class="st2" d="M200.4,79.7c-0.9,0-1.7-0.2-2.4-0.7c-0.6-0.5-1-1.1-1.1-2h1.4c0.1,0.4,0.3,0.8,0.7,1.1
			c0.4,0.3,0.8,0.5,1.4,0.5c0.6,0,1-0.1,1.2-0.4c0.3-0.2,0.4-0.5,0.4-0.9c0-0.5-0.2-0.8-0.5-1s-0.8-0.3-1.5-0.4
			c-0.4-0.1-0.9-0.2-1.3-0.4c-0.4-0.2-0.8-0.4-1.1-0.7c-0.3-0.3-0.4-0.7-0.4-1.2c0-0.7,0.3-1.3,0.8-1.7s1.2-0.7,2.1-0.7
			c0.8,0,1.5,0.2,2.1,0.6c0.5,0.4,0.9,1,0.9,1.8h-1.3c-0.1-0.4-0.2-0.7-0.5-1c-0.3-0.2-0.7-0.3-1.2-0.3s-0.9,0.1-1.1,0.3
			c-0.3,0.2-0.4,0.5-0.4,0.8s0.2,0.6,0.5,0.8c0.3,0.2,0.8,0.3,1.4,0.5c0.5,0.1,1,0.2,1.4,0.4c0.4,0.1,0.8,0.4,1.1,0.7
			c0.3,0.3,0.4,0.7,0.4,1.3c0,0.7-0.3,1.3-0.8,1.8C202.1,79.5,201.3,79.7,200.4,79.7z"/>
		<path class="st2" d="M209,79.7c-0.8,0-1.4-0.2-2-0.5s-1.1-0.8-1.4-1.5s-0.5-1.4-0.5-2.2c0-0.8,0.2-1.6,0.5-2.2
			c0.4-0.6,0.8-1.1,1.4-1.5c0.6-0.3,1.3-0.5,2-0.5s1.4,0.2,2,0.5s1.1,0.8,1.4,1.5c0.4,0.6,0.5,1.4,0.5,2.2c0,0.8-0.2,1.6-0.5,2.2
			s-0.8,1.1-1.4,1.5C210.4,79.5,209.7,79.7,209,79.7z M209,78.6c0.5,0,0.9-0.1,1.3-0.3c0.4-0.2,0.7-0.6,1-1c0.2-0.4,0.4-1,0.4-1.7
			s-0.1-1.2-0.4-1.7s-0.6-0.8-0.9-1c-0.4-0.2-0.8-0.3-1.3-0.3s-0.9,0.1-1.3,0.3c-0.4,0.2-0.7,0.6-1,1c-0.2,0.4-0.4,1-0.4,1.7
			s0.1,1.2,0.4,1.7c0.2,0.4,0.6,0.8,0.9,1C208.1,78.4,208.5,78.6,209,78.6z"/>
		<path class="st2" d="M222.2,79.5c-0.7,0-1.3-0.2-1.7-0.5c-0.4-0.4-0.6-1-0.6-1.9v-4.4h-1.4v-1.1h1.4l0.2-1.9h1.2v1.9h2.3v1.1h-2.3
			v4.4c0,0.5,0.1,0.8,0.3,1s0.6,0.3,1.1,0.3h0.8v1.2h-1.3V79.5z"/>
		<path class="st2" d="M225.3,79.5v-7.9h1.2l0.1,1.5c0.2-0.5,0.6-0.9,1.1-1.2s1.1-0.5,1.9-0.5v1.4h-0.4c-0.5,0-0.9,0.1-1.3,0.2
			c-0.4,0.2-0.7,0.4-0.9,0.8s-0.4,0.9-0.4,1.6v4h-1.3V79.5z"/>
		<path class="st2" d="M231.9,83l2-4.3h-0.5l-3.2-7.2h1.5l2.6,6.2l2.8-6.2h1.4L233.3,83H231.9z"/>
		<path class="st2" d="M161.4,101.7c-0.7,0-1.2-0.1-1.6-0.3c-0.4-0.2-0.8-0.5-1-0.9s-0.3-0.8-0.3-1.2c0-0.8,0.3-1.4,0.9-1.9
			c0.6-0.4,1.5-0.7,2.5-0.7h2.1v-0.1c0-0.7-0.2-1.2-0.5-1.6c-0.4-0.4-0.8-0.5-1.5-0.5c-0.5,0-1,0.1-1.4,0.4s-0.6,0.6-0.7,1.1h-1.4
			c0.1-0.6,0.2-1.1,0.6-1.5c0.3-0.4,0.8-0.7,1.3-0.9c0.5-0.2,1-0.3,1.6-0.3c1.1,0,1.9,0.3,2.5,0.9s0.8,1.4,0.8,2.4v4.9h-1.2
			l-0.1-1.4c-0.2,0.5-0.6,0.8-1,1.1C162.7,101.6,162.1,101.7,161.4,101.7z M161.6,100.6c0.5,0,0.9-0.1,1.3-0.4
			c0.4-0.3,0.7-0.6,0.8-1c0.2-0.4,0.3-0.9,0.3-1.3l0,0h-2c-0.8,0-1.4,0.1-1.7,0.4s-0.5,0.6-0.5,1s0.2,0.8,0.5,1
			C160.6,100.4,161,100.6,161.6,100.6z"/>
		<path class="st2" d="M167.4,105V93.6h1.2l0.1,1.3c0.3-0.4,0.6-0.7,1.1-1s1.1-0.5,1.8-0.5c0.8,0,1.5,0.2,2.1,0.5
			c0.6,0.4,1,0.9,1.4,1.5c0.3,0.6,0.5,1.3,0.5,2.1c0,0.8-0.2,1.5-0.5,2.1s-0.8,1.1-1.4,1.5c-0.6,0.4-1.3,0.5-2.1,0.5
			c-0.6,0-1.2-0.1-1.7-0.4s-0.9-0.6-1.2-1.1v4.9H167.4z M171.5,100.5c0.5,0,1-0.1,1.4-0.4s0.7-0.6,1-1.1c0.2-0.4,0.3-1,0.3-1.6
			s-0.1-1.1-0.3-1.6s-0.6-0.8-1-1.1s-0.9-0.4-1.4-0.4s-1,0.1-1.4,0.4c-0.4,0.2-0.7,0.6-1,1.1c-0.2,0.4-0.4,1-0.4,1.6
			s0.1,1.1,0.4,1.6c0.2,0.5,0.6,0.8,1,1.1C170.5,100.4,170.9,100.5,171.5,100.5z"/>
		<path class="st2" d="M177.4,105V93.6h1.2l0.1,1.3c0.3-0.4,0.6-0.7,1.1-1s1.1-0.5,1.8-0.5c0.8,0,1.5,0.2,2.1,0.5
			c0.6,0.4,1,0.9,1.4,1.5s0.5,1.3,0.5,2.1c0,0.8-0.2,1.5-0.5,2.1s-0.8,1.1-1.4,1.5c-0.6,0.4-1.3,0.5-2.1,0.5c-0.7,0-1.2-0.1-1.7-0.4
			s-0.9-0.6-1.2-1.1v4.9H177.4z M181.5,100.5c0.5,0,1-0.1,1.4-0.4s0.7-0.6,1-1.1c0.2-0.4,0.4-1,0.4-1.6s-0.1-1.1-0.4-1.6
			c-0.2-0.5-0.5-0.8-1-1.1s-0.9-0.4-1.4-0.4s-1,0.1-1.4,0.4c-0.4,0.2-0.7,0.6-1,1.1c-0.2,0.4-0.4,1-0.4,1.6s0.1,1.1,0.4,1.6
			c0.2,0.5,0.6,0.8,1,1.1C180.5,100.4,181,100.5,181.5,100.5z"/>
		<path class="st2" d="M187.5,101.5v-7.9h1.2l0.1,1.5c0.2-0.5,0.6-0.9,1.1-1.2s1.1-0.5,1.9-0.5v1.4h-0.4c-0.5,0-0.9,0.1-1.3,0.2
			c-0.4,0.2-0.7,0.4-0.9,0.8s-0.3,0.9-0.3,1.6v4h-1.4V101.5z"/>
		<path class="st2" d="M196.6,101.7c-0.8,0-1.4-0.2-2-0.5s-1.1-0.8-1.4-1.5c-0.4-0.6-0.5-1.4-0.5-2.2c0-0.8,0.2-1.6,0.5-2.2
			c0.4-0.6,0.8-1.1,1.4-1.5c0.6-0.3,1.3-0.5,2-0.5c0.8,0,1.4,0.2,2,0.5s1.1,0.8,1.4,1.5c0.4,0.6,0.5,1.4,0.5,2.2
			c0,0.8-0.2,1.6-0.5,2.2c-0.4,0.6-0.8,1.1-1.4,1.5C198,101.5,197.3,101.7,196.6,101.7z M196.6,100.6c0.5,0,0.9-0.1,1.3-0.3
			c0.4-0.2,0.7-0.6,1-1c0.2-0.4,0.4-1,0.4-1.7s-0.1-1.2-0.4-1.7c-0.2-0.4-0.6-0.8-1-1s-0.8-0.3-1.3-0.3s-0.9,0.1-1.3,0.3
			c-0.4,0.2-0.7,0.6-1,1c-0.2,0.4-0.4,1-0.4,1.7s0.1,1.2,0.4,1.7c0.2,0.4,0.6,0.8,1,1C195.7,100.4,196.2,100.6,196.6,100.6z"/>
		<path class="st2" d="M205.1,101.7c-0.7,0-1.2-0.1-1.7-0.3c-0.4-0.2-0.8-0.5-1-0.9s-0.3-0.8-0.3-1.2c0-0.8,0.3-1.4,0.9-1.9
			s1.5-0.7,2.5-0.7h2.1v-0.1c0-0.7-0.2-1.2-0.5-1.6c-0.4-0.4-0.9-0.5-1.5-0.5c-0.5,0-1,0.1-1.4,0.4s-0.6,0.6-0.7,1.1h-1.4
			c0.1-0.6,0.2-1.1,0.6-1.5c0.3-0.4,0.8-0.7,1.3-0.9c0.5-0.2,1-0.3,1.6-0.3c1.1,0,1.9,0.3,2.5,0.9s0.8,1.4,0.8,2.4v4.9h-1.2
			l-0.1-1.4c-0.2,0.5-0.6,0.8-1,1.1C206.4,101.6,205.8,101.7,205.1,101.7z M205.3,100.6c0.5,0,0.9-0.1,1.3-0.4
			c0.4-0.3,0.6-0.6,0.8-1s0.3-0.9,0.3-1.3l0,0h-2c-0.8,0-1.3,0.1-1.7,0.4c-0.3,0.3-0.5,0.6-0.5,1s0.1,0.8,0.5,1
			C204.3,100.4,204.7,100.6,205.3,100.6z"/>
		<path class="st2" d="M214.8,101.7c-0.8,0-1.4-0.2-2-0.5s-1.1-0.8-1.4-1.5s-0.5-1.4-0.5-2.2c0-0.8,0.2-1.6,0.5-2.2s0.8-1.1,1.4-1.5
			s1.3-0.5,2-0.5c0.9,0,1.7,0.2,2.4,0.7s1.1,1.1,1.2,2H217c-0.1-0.5-0.4-0.9-0.8-1.1c-0.4-0.3-0.9-0.4-1.5-0.4
			c-0.5,0-0.9,0.1-1.3,0.3c-0.4,0.2-0.7,0.6-1,1c-0.2,0.5-0.4,1-0.4,1.7s0.1,1.2,0.4,1.7c0.2,0.5,0.6,0.8,1,1s0.8,0.3,1.3,0.3
			s1-0.1,1.5-0.4c0.4-0.3,0.7-0.7,0.8-1.2h1.4c-0.2,0.8-0.6,1.4-1.2,1.9C216.5,101.5,215.7,101.7,214.8,101.7z"/>
		<path class="st2" d="M220.2,101.5V90h1.3v4.9c0.3-0.5,0.6-0.9,1.1-1.1c0.5-0.3,1-0.4,1.6-0.4c0.9,0,1.7,0.3,2.2,0.9
			c0.6,0.6,0.8,1.5,0.8,2.6v4.6H226V97c0-1.7-0.7-2.5-2-2.5c-0.7,0-1.3,0.2-1.7,0.7c-0.5,0.5-0.7,1.2-0.7,2.1v4.1L220.2,101.5
			L220.2,101.5z"/>
		<path class="st2" d="M230.2,91.8c-0.3,0-0.5-0.1-0.7-0.3c-0.2-0.2-0.3-0.4-0.3-0.7s0.1-0.5,0.3-0.6c0.2-0.2,0.4-0.3,0.7-0.3
			s0.5,0.1,0.7,0.3c0.2,0.2,0.3,0.4,0.3,0.6c0,0.3-0.1,0.5-0.3,0.7C230.7,91.7,230.5,91.8,230.2,91.8z M229.5,101.5v-7.9h1.3v7.9
			H229.5z"/>
		<path class="st2" d="M233.2,101.5v-7.9h1.2l0.1,1.4c0.3-0.5,0.6-0.9,1.1-1.2c0.5-0.3,1-0.4,1.6-0.4c0.9,0,1.7,0.3,2.2,0.9
			s0.8,1.5,0.8,2.6v4.6H239V97c0-1.7-0.7-2.5-2-2.5c-0.7,0-1.2,0.2-1.7,0.7s-0.7,1.2-0.7,2.1v4.1L233.2,101.5L233.2,101.5z"/>
		<path class="st2" d="M245.5,99c-0.5,0-0.9-0.1-1.2-0.2l-0.8,0.8c0.1,0.1,0.3,0.2,0.4,0.2s0.4,0.1,0.8,0.2c0.3,0,0.8,0.1,1.4,0.1
			c1.1,0.1,1.8,0.3,2.3,0.7c0.5,0.4,0.7,1,0.7,1.6c0,0.5-0.1,0.9-0.4,1.3c-0.2,0.4-0.6,0.8-1.1,1c-0.5,0.3-1.2,0.4-2,0.4
			c-0.7,0-1.3-0.1-1.9-0.3c-0.5-0.2-1-0.5-1.3-0.9s-0.5-0.9-0.5-1.4c0-0.3,0.1-0.6,0.2-1s0.5-0.7,0.9-1c-0.2-0.1-0.4-0.2-0.6-0.3
			c-0.2-0.1-0.3-0.2-0.5-0.4v-0.4l1.4-1.3c-0.6-0.5-0.9-1.2-0.9-2.1c0-0.5,0.1-1,0.4-1.4c0.2-0.4,0.6-0.8,1.1-1s1-0.4,1.7-0.4
			c0.5,0,0.9,0.1,1.2,0.2h2.9v1l-1.5,0.1c0.3,0.5,0.5,1,0.5,1.6c0,0.5-0.1,1-0.4,1.4c-0.2,0.4-0.6,0.8-1.1,1
			C246.7,98.9,246.2,99,245.5,99z M243.2,102.5c0,0.5,0.2,0.9,0.7,1.2c0.5,0.3,1,0.4,1.7,0.4s1.2-0.1,1.6-0.4s0.6-0.7,0.6-1.1
			c0-0.3-0.1-0.6-0.4-0.9s-0.8-0.4-1.5-0.4c-0.6,0-1.1-0.1-1.5-0.2c-0.4,0.2-0.7,0.5-0.9,0.8C243.2,102.1,243.2,102.3,243.2,102.5z
			 M245.5,97.9c0.6,0,1-0.1,1.4-0.4c0.3-0.3,0.5-0.7,0.5-1.3c0-0.5-0.2-1-0.5-1.3s-0.8-0.4-1.4-0.4c-0.6,0-1,0.1-1.4,0.4
			s-0.5,0.7-0.5,1.3c0,0.6,0.2,1,0.5,1.3C244.5,97.8,244.9,97.9,245.5,97.9z"/>
		<path class="st2" d="M258.6,101.5c-0.7,0-1.3-0.2-1.7-0.5c-0.4-0.4-0.6-1-0.6-1.9v-4.4h-1.4v-1.1h1.4l0.2-1.9h1.2v1.9h2.3v1.1
			h-2.3v4.4c0,0.5,0.1,0.8,0.3,1c0.2,0.2,0.6,0.3,1.1,0.3h0.8v1.2h-1.3V101.5z"/>
		<path class="st2" d="M261.6,101.5V90h1.3v4.9c0.3-0.5,0.6-0.9,1.1-1.1c0.5-0.3,1-0.4,1.6-0.4c0.9,0,1.6,0.3,2.2,0.9
			c0.5,0.6,0.8,1.5,0.8,2.6v4.6h-1.3V97c0-1.7-0.7-2.5-2-2.5c-0.7,0-1.3,0.2-1.7,0.7c-0.5,0.5-0.7,1.2-0.7,2.1v4.1L261.6,101.5
			L261.6,101.5z"/>
		<path class="st2" d="M274.3,101.7c-0.8,0-1.4-0.2-2-0.5c-0.6-0.4-1-0.8-1.4-1.4c-0.3-0.6-0.5-1.4-0.5-2.2c0-0.8,0.2-1.6,0.5-2.2
			s0.8-1.1,1.4-1.5s1.3-0.5,2.1-0.5c0.8,0,1.4,0.2,2,0.5s1,0.8,1.3,1.4s0.4,1.2,0.4,1.8c0,0.1,0,0.2,0,0.4c0,0.1,0,0.2,0,0.4h-6.3
			c0,0.6,0.2,1.1,0.4,1.5c0.2,0.4,0.6,0.7,0.9,0.9c0.4,0.2,0.8,0.3,1.2,0.3c0.5,0,1-0.1,1.4-0.4s0.6-0.6,0.8-1h1.3
			c-0.2,0.7-0.6,1.4-1.2,1.8C276.1,101.5,275.3,101.7,274.3,101.7z M274.3,94.5c-0.6,0-1.2,0.2-1.7,0.6s-0.8,1-0.9,1.7h5
			c0-0.7-0.3-1.3-0.7-1.7C275.6,94.7,275,94.5,274.3,94.5z"/>
		<path class="st2" d="M158.7,123.5v-7.9h1.2l0.1,1.4c0.3-0.5,0.6-0.9,1.1-1.2c0.5-0.3,1-0.4,1.6-0.4c0.9,0,1.7,0.3,2.2,0.9
			c0.6,0.6,0.8,1.5,0.8,2.6v4.6h-1.3V119c0-1.7-0.7-2.5-2-2.5c-0.7,0-1.2,0.2-1.7,0.7c-0.4,0.5-0.7,1.2-0.7,2.1v4.1L158.7,123.5
			L158.7,123.5z"/>
		<path class="st2" d="M171.4,123.7c-0.8,0-1.4-0.2-2-0.5c-0.6-0.4-1-0.8-1.4-1.4c-0.3-0.6-0.5-1.4-0.5-2.2c0-0.8,0.2-1.6,0.5-2.2
			s0.8-1.1,1.4-1.5c0.6-0.4,1.3-0.5,2.1-0.5s1.4,0.2,2,0.5s1,0.8,1.3,1.4s0.4,1.2,0.4,1.8c0,0.1,0,0.2,0,0.4c0,0.1,0,0.2,0,0.4h-6.3
			c0,0.6,0.2,1.1,0.4,1.5s0.6,0.7,0.9,0.9c0.4,0.2,0.8,0.3,1.2,0.3c0.6,0,1-0.1,1.4-0.4s0.7-0.6,0.8-1h1.3c-0.2,0.7-0.6,1.4-1.2,1.8
			C173.2,123.5,172.4,123.7,171.4,123.7z M171.4,116.5c-0.6,0-1.2,0.2-1.7,0.6s-0.8,1-0.9,1.7h5c0-0.7-0.3-1.3-0.7-1.7
			C172.7,116.7,172.1,116.5,171.4,116.5z"/>
		<path class="st2" d="M175.8,123.5l2.8-4l-2.8-4h1.5l2.2,3.3l2.2-3.3h1.4l-2.8,4l2.8,4h-1.4l-2.2-3.3l-2.2,3.3H175.8z"/>
		<path class="st2" d="M187.7,123.5c-0.7,0-1.3-0.2-1.7-0.5c-0.4-0.4-0.6-1-0.6-1.9v-4.4H184v-1.1h1.4l0.2-1.9h1.2v1.9h2.3v1.1h-2.3
			v4.4c0,0.5,0.1,0.8,0.3,1s0.6,0.3,1.1,0.3h0.8v1.2h-1.3V123.5z"/>
		<path class="st2" d="M194.9,123.5v-0.9c0.8-0.6,1.5-1.2,2.2-1.8c0.7-0.6,1.3-1.2,1.8-1.8s0.9-1.2,1.2-1.8c0.3-0.6,0.5-1.1,0.5-1.7
			c0-0.4-0.1-0.8-0.2-1.1s-0.4-0.6-0.6-0.8c-0.3-0.2-0.7-0.3-1.2-0.3s-0.9,0.1-1.2,0.3c-0.3,0.2-0.6,0.5-0.7,0.9
			c-0.2,0.4-0.2,0.8-0.2,1.2H195c0-0.7,0.2-1.4,0.5-1.9s0.7-0.9,1.3-1.2s1.1-0.4,1.8-0.4c1,0,1.8,0.3,2.4,0.8s0.9,1.4,0.9,2.5
			c0,0.7-0.2,1.3-0.5,2s-0.8,1.3-1.3,1.9s-1.1,1.2-1.6,1.7c-0.6,0.5-1.1,1-1.6,1.4h5.4v1.1h-7.4V123.5z"/>
		<path class="st2" d="M210,123.5l-2.3-7.9h1.3l1.7,6.2l1.9-6.2h1.5l1.9,6.2l1.7-6.2h1.4l-2.3,7.9h-1.4l-1.9-6.5l-1.9,6.5H210z"/>
		<path class="st2" d="M223.7,123.7c-0.8,0-1.4-0.2-2-0.5s-1.1-0.8-1.4-1.4c-0.3-0.6-0.5-1.4-0.5-2.2c0-0.8,0.2-1.6,0.5-2.2
			s0.8-1.1,1.4-1.5s1.3-0.5,2.1-0.5s1.4,0.2,2,0.5s1,0.8,1.3,1.4s0.4,1.2,0.4,1.8c0,0.1,0,0.2,0,0.4s0,0.2,0,0.4h-6.3
			c0,0.6,0.2,1.1,0.4,1.5s0.6,0.7,0.9,0.9c0.4,0.2,0.8,0.3,1.2,0.3c0.5,0,1-0.1,1.4-0.4s0.6-0.6,0.8-1h1.3c-0.2,0.7-0.6,1.4-1.2,1.8
			C225.4,123.5,224.7,123.7,223.7,123.7z M223.7,116.5c-0.6,0-1.2,0.2-1.7,0.6s-0.8,1-0.9,1.7h5c0-0.7-0.3-1.3-0.7-1.7
			C225,116.7,224.4,116.5,223.7,116.5z"/>
		<path class="st2" d="M232.8,123.7c-0.8,0-1.4-0.2-2-0.5c-0.6-0.4-1.1-0.8-1.4-1.4c-0.3-0.6-0.5-1.4-0.5-2.2c0-0.8,0.2-1.6,0.5-2.2
			s0.8-1.1,1.4-1.5c0.6-0.4,1.3-0.5,2.1-0.5s1.4,0.2,2,0.5s1,0.8,1.3,1.4s0.4,1.2,0.4,1.8c0,0.1,0,0.2,0,0.4c0,0.1,0,0.2,0,0.4h-6.3
			c0,0.6,0.2,1.1,0.4,1.5s0.6,0.7,0.9,0.9c0.4,0.2,0.8,0.3,1.2,0.3c0.6,0,1-0.1,1.4-0.4s0.7-0.6,0.8-1h1.3c-0.2,0.7-0.6,1.4-1.2,1.8
			C234.5,123.5,233.8,123.7,232.8,123.7z M232.8,116.5c-0.6,0-1.2,0.2-1.7,0.6s-0.8,1-0.9,1.7h5c0-0.7-0.3-1.3-0.7-1.7
			C234.1,116.7,233.5,116.5,232.8,116.5z"/>
		<path class="st2" d="M238.4,123.5V112h1.3v6.9l3.2-3.3h1.6l-3.5,3.6l4,4.4h-1.7l-3.6-4.1v4.1h-1.3V123.5z"/>
		<path class="st2" d="M249,123.7c-0.9,0-1.7-0.2-2.4-0.7c-0.6-0.5-1-1.1-1.1-2h1.4c0.1,0.4,0.3,0.8,0.7,1.1
			c0.4,0.3,0.8,0.5,1.5,0.5c0.6,0,1-0.1,1.2-0.4c0.3-0.2,0.4-0.5,0.4-0.9c0-0.5-0.2-0.8-0.5-1c-0.4-0.2-0.8-0.3-1.5-0.4
			c-0.4-0.1-0.9-0.2-1.3-0.4s-0.8-0.4-1.1-0.7c-0.3-0.3-0.4-0.7-0.4-1.2c0-0.7,0.3-1.3,0.8-1.7c0.5-0.4,1.2-0.7,2.1-0.7
			c0.8,0,1.5,0.2,2.1,0.6c0.5,0.4,0.9,1,0.9,1.8h-1.3c0-0.4-0.2-0.7-0.5-1s-0.7-0.3-1.2-0.3s-0.9,0.1-1.1,0.3
			c-0.3,0.2-0.4,0.5-0.4,0.8s0.2,0.6,0.5,0.8c0.3,0.2,0.8,0.3,1.4,0.5c0.5,0.1,1,0.2,1.4,0.4c0.4,0.1,0.8,0.4,1.1,0.7
			c0.3,0.3,0.4,0.7,0.4,1.3c0,0.7-0.3,1.3-0.8,1.8C250.7,123.5,250,123.7,249,123.7z"/>
		<path class="st2" d="M258.2,123.5V112h1.3v11.5H258.2z"/>
		<path class="st2" d="M262.6,113.8c-0.3,0-0.5-0.1-0.7-0.3c-0.2-0.2-0.3-0.4-0.3-0.7s0.1-0.5,0.3-0.6c0.2-0.2,0.4-0.3,0.7-0.3
			s0.5,0.1,0.7,0.3c0.2,0.2,0.3,0.4,0.3,0.6c0,0.3-0.1,0.5-0.3,0.7C263.1,113.7,262.8,113.8,262.6,113.8z M261.9,123.5v-7.9h1.3v7.9
			H261.9z"/>
		<path class="st2" d="M265.6,123.5V112h1.3v6.9l3.2-3.3h1.6l-3.5,3.6l4,4.4h-1.7l-3.6-4.1v4.1h-1.3V123.5z"/>
		<path class="st2" d="M276.6,123.7c-0.8,0-1.4-0.2-2-0.5s-1.1-0.8-1.4-1.4s-0.5-1.4-0.5-2.2c0-0.8,0.2-1.6,0.5-2.2s0.8-1.1,1.4-1.5
			s1.3-0.5,2.1-0.5c0.8,0,1.4,0.2,2,0.5s1,0.8,1.3,1.4s0.5,1.2,0.5,1.8c0,0.1,0,0.2,0,0.4s0,0.2,0,0.4h-6.3c0,0.6,0.2,1.1,0.4,1.5
			c0.2,0.4,0.6,0.7,0.9,0.9c0.4,0.2,0.8,0.3,1.2,0.3c0.6,0,1-0.1,1.4-0.4s0.6-0.6,0.8-1h1.3c-0.2,0.7-0.6,1.4-1.2,1.8
			C278.4,123.5,277.6,123.7,276.6,123.7z M276.6,116.5c-0.6,0-1.2,0.2-1.7,0.6s-0.8,1-0.9,1.7h5c0-0.7-0.3-1.3-0.7-1.7
			C277.9,116.7,277.3,116.5,276.6,116.5z"/>
		<path class="st2" d="M289.1,123.7c-0.7,0-1.2-0.1-1.6-0.3c-0.4-0.2-0.8-0.5-1-0.9s-0.3-0.8-0.3-1.2c0-0.8,0.3-1.4,0.9-1.9
			c0.6-0.4,1.5-0.7,2.5-0.7h2.1v-0.1c0-0.7-0.2-1.2-0.5-1.6c-0.4-0.4-0.9-0.5-1.5-0.5c-0.5,0-1,0.1-1.4,0.4s-0.6,0.6-0.7,1.1h-1.4
			c0-0.6,0.2-1.1,0.6-1.5c0.3-0.4,0.8-0.7,1.3-0.9c0.5-0.2,1-0.3,1.6-0.3c1.1,0,1.9,0.3,2.5,0.9s0.8,1.4,0.8,2.4v4.9h-1.2l-0.1-1.4
			c-0.2,0.5-0.5,0.8-1,1.1C290.4,123.6,289.8,123.7,289.1,123.7z M289.3,122.6c0.5,0,1-0.1,1.3-0.4c0.4-0.3,0.6-0.6,0.8-1
			c0.2-0.4,0.3-0.9,0.3-1.3l0,0h-2c-0.8,0-1.4,0.1-1.7,0.4c-0.3,0.3-0.5,0.6-0.5,1s0.1,0.8,0.5,1
			C288.3,122.4,288.7,122.6,289.3,122.6z"/>
		<path class="st2" d="M157.8,184.9v-6.8h-1.2V177h1.2v-1.4c0-0.8,0.2-1.3,0.6-1.7c0.4-0.3,0.9-0.5,1.7-0.5h0.8v1.1h-0.6
			c-0.4,0-0.7,0.1-0.9,0.2c-0.2,0.2-0.3,0.5-0.3,0.8v1.3h1.9v1.1h-1.9v6.8L157.8,184.9L157.8,184.9z"/>
		<path class="st2" d="M166,185.1c-0.8,0-1.4-0.2-2-0.5s-1.1-0.8-1.4-1.5c-0.4-0.6-0.5-1.4-0.5-2.2c0-0.8,0.2-1.6,0.5-2.2
			s0.8-1.1,1.4-1.5c0.6-0.3,1.3-0.5,2-0.5c0.8,0,1.4,0.2,2,0.5s1.1,0.8,1.4,1.5c0.4,0.6,0.5,1.4,0.5,2.2c0,0.8-0.2,1.6-0.5,2.2
			c-0.4,0.6-0.8,1.1-1.4,1.5C167.4,185,166.7,185.1,166,185.1z M166,184c0.5,0,0.9-0.1,1.3-0.3c0.4-0.2,0.7-0.6,1-1
			c0.2-0.4,0.4-1,0.4-1.7s-0.1-1.2-0.4-1.7c-0.2-0.4-0.6-0.8-0.9-1c-0.4-0.2-0.8-0.3-1.3-0.3s-0.9,0.1-1.3,0.3c-0.4,0.2-0.7,0.6-1,1
			c-0.2,0.5-0.4,1-0.4,1.7s0.1,1.2,0.4,1.7s0.6,0.8,0.9,1C165.1,183.9,165.6,184,166,184z"/>
		<path class="st2" d="M171.9,184.9V177h1.2l0.1,1.5c0.2-0.5,0.6-0.9,1.1-1.2s1.1-0.5,1.9-0.5v1.4h-0.4c-0.5,0-0.9,0.1-1.3,0.2
			c-0.4,0.2-0.7,0.5-0.9,0.8c-0.2,0.4-0.3,0.9-0.3,1.6v4h-1.4V184.9z"/>
		<path class="st2" d="M182.8,188.5l2-4.3h-0.5l-3.1-7.2h1.5l2.6,6.2l2.8-6.2h1.4l-5.2,11.5H182.8z"/>
		<path class="st2" d="M193.7,185.1c-0.8,0-1.4-0.2-2-0.5s-1.1-0.8-1.4-1.5c-0.3-0.6-0.5-1.4-0.5-2.2c0-0.8,0.2-1.6,0.5-2.2
			s0.8-1.1,1.4-1.5c0.6-0.3,1.3-0.5,2-0.5c0.8,0,1.4,0.2,2,0.5s1.1,0.8,1.4,1.5c0.3,0.6,0.5,1.4,0.5,2.2c0,0.8-0.2,1.6-0.5,2.2
			s-0.8,1.1-1.4,1.5S194.4,185.1,193.7,185.1z M193.7,184c0.5,0,0.9-0.1,1.3-0.3c0.4-0.2,0.7-0.6,1-1c0.2-0.4,0.4-1,0.4-1.7
			s-0.1-1.2-0.4-1.7c-0.2-0.4-0.6-0.8-0.9-1c-0.4-0.2-0.8-0.3-1.3-0.3s-0.9,0.1-1.3,0.3c-0.4,0.2-0.7,0.6-1,1
			c-0.2,0.5-0.4,1-0.4,1.7s0.1,1.2,0.4,1.7s0.6,0.8,0.9,1C192.8,183.9,193.2,184,193.7,184z"/>
		<path class="st2" d="M202.4,185.1c-0.9,0-1.7-0.3-2.2-0.9s-0.8-1.5-0.8-2.6V177h1.3v4.5c0,1.7,0.7,2.5,2,2.5
			c0.7,0,1.3-0.2,1.7-0.7s0.7-1.2,0.7-2.1v-4.1h1.3v7.9h-1.2l-0.1-1.4c-0.2,0.5-0.6,0.9-1.1,1.2C203.5,185,203,185.1,202.4,185.1z"
			/>
		<path class="st2" d="M208.7,184.9V177h1.2l0.1,1.5c0.2-0.5,0.6-0.9,1.1-1.2s1.1-0.5,1.9-0.5v1.4h-0.4c-0.5,0-0.9,0.1-1.3,0.2
			c-0.4,0.2-0.7,0.5-0.9,0.8c-0.2,0.4-0.4,0.9-0.4,1.6v4h-1.3V184.9z"/>
		<path class="st2" d="M220.3,184.9L218,177h1.3l1.7,6.2l1.9-6.2h1.5l1.9,6.2l1.7-6.2h1.4l-2.3,7.9h-1.4l-2-6.5l-1.9,6.5H220.3z"/>
		<path class="st2" d="M234.1,185.1c-0.8,0-1.4-0.2-2-0.5c-0.6-0.4-1-0.8-1.4-1.5c-0.3-0.6-0.5-1.4-0.5-2.2c0-0.8,0.2-1.6,0.5-2.2
			s0.8-1.1,1.4-1.5c0.6-0.3,1.3-0.5,2.1-0.5s1.4,0.2,2,0.5c0.6,0.4,1,0.8,1.3,1.4s0.4,1.2,0.4,1.8c0,0.1,0,0.2,0,0.4
			c0,0.1,0,0.2,0,0.4h-6.3c0,0.6,0.2,1.1,0.4,1.5s0.6,0.7,0.9,0.9c0.4,0.2,0.8,0.3,1.2,0.3c0.6,0,1-0.1,1.4-0.4
			c0.4-0.2,0.7-0.6,0.8-1h1.3c-0.2,0.7-0.6,1.4-1.2,1.8C235.8,184.9,235,185.1,234.1,185.1z M234.1,178c-0.6,0-1.2,0.2-1.7,0.6
			s-0.8,1-0.9,1.7h5c0-0.7-0.3-1.3-0.7-1.7C235.3,178.2,234.7,178,234.1,178z"/>
		<path class="st2" d="M239.6,184.9v-11.5h1.3v11.5H239.6z"/>
		<path class="st2" d="M243.1,184.9v-11.5h1.3v11.5H243.1z"/>
		<path class="st2" d="M250.9,185.1c-0.6,0-1.2-0.1-1.7-0.4s-0.9-0.6-1.2-1.1l-0.1,1.3h-1.2v-11.5h1.3v4.9c0.3-0.4,0.6-0.7,1.1-1
			s1.1-0.5,1.8-0.5c0.8,0,1.5,0.2,2.1,0.5c0.6,0.4,1,0.9,1.4,1.5c0.3,0.6,0.5,1.3,0.5,2.1c0,0.8-0.2,1.5-0.5,2.1s-0.8,1.1-1.4,1.5
			C252.4,185,251.7,185.1,250.9,185.1z M250.8,184c0.5,0,1-0.1,1.4-0.4c0.4-0.2,0.7-0.6,1-1s0.4-1,0.4-1.6s-0.1-1.1-0.4-1.6
			s-0.6-0.8-1-1s-0.9-0.4-1.4-0.4s-1,0.1-1.4,0.4s-0.7,0.6-1,1c-0.2,0.5-0.4,1-0.4,1.6s0.1,1.1,0.4,1.6c0.2,0.5,0.5,0.8,1,1
			S250.3,184,250.8,184z"/>
		<path class="st2" d="M260.3,185.1c-0.8,0-1.4-0.2-2-0.5c-0.6-0.4-1.1-0.8-1.4-1.5c-0.3-0.6-0.5-1.4-0.5-2.2c0-0.8,0.2-1.6,0.5-2.2
			s0.8-1.1,1.4-1.5c0.6-0.3,1.3-0.5,2.1-0.5c0.8,0,1.4,0.2,2,0.5c0.6,0.4,1,0.8,1.3,1.4s0.4,1.2,0.4,1.8c0,0.1,0,0.2,0,0.4
			c0,0.1,0,0.2,0,0.4h-6.3c0,0.6,0.2,1.1,0.4,1.5s0.6,0.7,0.9,0.9c0.4,0.2,0.8,0.3,1.2,0.3c0.5,0,1-0.1,1.4-0.4s0.6-0.6,0.8-1h1.3
			c-0.2,0.7-0.6,1.4-1.2,1.8C262,184.9,261.2,185.1,260.3,185.1z M260.3,178c-0.6,0-1.2,0.2-1.7,0.6s-0.8,1-0.9,1.7h5
			c0-0.7-0.3-1.3-0.7-1.7C261.5,178.2,261,178,260.3,178z"/>
		<path class="st2" d="M266.7,175.3c-0.3,0-0.5-0.1-0.7-0.3c-0.2-0.2-0.3-0.4-0.3-0.7s0.1-0.5,0.3-0.6c0.2-0.2,0.4-0.3,0.7-0.3
			s0.5,0.1,0.7,0.3c0.2,0.2,0.3,0.4,0.3,0.6c0,0.3-0.1,0.5-0.3,0.7C267.1,175.2,266.9,175.3,266.7,175.3z M266,184.9V177h1.3v7.9
			H266z"/>
		<path class="st2" d="M269.7,184.9V177h1.2l0.1,1.4c0.3-0.5,0.6-0.9,1.1-1.2c0.5-0.3,1-0.4,1.6-0.4c0.9,0,1.7,0.3,2.2,0.9
			s0.8,1.5,0.8,2.6v4.6h-1.3v-4.5c0-1.6-0.7-2.5-2.1-2.5c-0.7,0-1.2,0.2-1.7,0.7s-0.7,1.2-0.7,2.1v4.1L269.7,184.9L269.7,184.9z"/>
		<path class="st2" d="M282,182.5c-0.4,0-0.9-0.1-1.2-0.2l-0.8,0.8c0.1,0.1,0.3,0.2,0.4,0.2s0.4,0.1,0.8,0.2c0.3,0,0.8,0.1,1.4,0.2
			c1.1,0.1,1.8,0.3,2.3,0.7s0.7,1,0.7,1.6c0,0.5-0.1,0.9-0.4,1.3c-0.2,0.4-0.6,0.8-1.1,1c-0.5,0.3-1.2,0.4-2,0.4
			c-0.7,0-1.4-0.1-1.9-0.3c-0.5-0.2-1-0.5-1.3-0.9s-0.5-0.9-0.5-1.4c0-0.3,0.1-0.6,0.2-1c0.2-0.4,0.5-0.7,0.9-1
			c-0.2-0.1-0.4-0.2-0.6-0.3c-0.2-0.1-0.3-0.2-0.5-0.4V183l1.4-1.3c-0.6-0.5-0.9-1.2-0.9-2.1c0-0.5,0.1-1,0.4-1.4
			c0.2-0.4,0.6-0.8,1.1-1s1-0.4,1.7-0.4c0.5,0,0.9,0.1,1.2,0.2h2.9v1l-1.5,0.1c0.3,0.5,0.5,1,0.5,1.6c0,0.5-0.1,1-0.4,1.4
			c-0.2,0.4-0.6,0.8-1.1,1C283.2,182.3,282.6,182.5,282,182.5z M279.6,186c0,0.5,0.2,0.9,0.7,1.2c0.4,0.3,1,0.4,1.7,0.4
			s1.2-0.1,1.6-0.4s0.6-0.7,0.6-1.2c0-0.3-0.1-0.6-0.4-0.9s-0.8-0.4-1.5-0.4c-0.6,0-1.1-0.1-1.5-0.2c-0.4,0.2-0.7,0.5-0.9,0.8
			C279.7,185.5,279.6,185.8,279.6,186z M282,181.3c0.6,0,1-0.2,1.4-0.4c0.3-0.3,0.5-0.7,0.5-1.3c0-0.5-0.2-1-0.5-1.3
			s-0.8-0.4-1.4-0.4s-1,0.1-1.4,0.4c-0.3,0.3-0.5,0.7-0.5,1.3c0,0.6,0.2,1,0.5,1.3S281.4,181.3,282,181.3z"/>
		<path class="st2" d="M288.5,185c-0.3,0-0.5-0.1-0.7-0.3c-0.2-0.2-0.3-0.4-0.3-0.6s0.1-0.5,0.3-0.7c0.2-0.2,0.4-0.3,0.7-0.3
			c0.3,0,0.5,0.1,0.7,0.3c0.2,0.2,0.3,0.4,0.3,0.7s-0.1,0.5-0.3,0.6C289,184.9,288.8,185,288.5,185z M287.9,181.8l-0.2-8.1h1.5
			l-0.2,8.1H287.9z"/>
		<path class="st3" d="M141,133c5.7,40.3-45.9,44.1-82.4,32.5c-28.1-8.9-35.2-7.6-36.7-30.3c-2.2-31.9,12.8-42.5,26.7-47.6
			c38.4-13.9,70.1-4.6,76.5,3.9C138.6,109.2,137.8,110.4,141,133z"/>
		<path class="st4" d="M99.5,70.2c0-0.7,0.7-12.7,14.5-18.2"/>
		<path d="M65.6,125.7c2.4,0,4.3-1.9,4.3-4.3s-1.9-4.3-4.3-4.3c-2.4,0-4.3,1.9-4.3,4.3S63.2,125.7,65.6,125.7z"/>
		<path d="M101,125.7c2.4,0,4.3-1.9,4.3-4.3s-1.9-4.3-4.3-4.3s-4.3,1.9-4.3,4.3S98.6,125.7,101,125.7z"/>
		<path d="M86.2,130.8c0,1.2-0.7,0-2.3,0s-3.6,1.2-3.6,0s1.3-1.7,3-1.7S86.2,129.7,86.2,130.8z"/>
		<path class="st5" d="M115.3,51.1c0,0-2.1-9.8-6.2-8.9C105,43.1,112.7,52,115.3,51.1z"/>
		<path class="st5" d="M115,50.5c0,0-9.4-5.6-10-1.5C104.5,53.1,115,53.4,115,50.5z"/>
		<path class="st5" d="M116.3,51.9c0,0,6.3-8.4,1.8-9.1C113.6,42.2,113.1,51.8,116.3,51.9z"/>
		<path class="st5" d="M115.5,51.5c0,0,9,5.5,9.2,0.9C124.8,47.9,115.3,48.3,115.5,51.5z"/>
		<path class="st5" d="M116,51.9c0,0,9.8,2.1,8.9,6.2C124.1,62.3,115.1,54.6,116,51.9z"/>
		<path class="st5" d="M116.4,51.2c0,0,7.2,8.3,3.3,9.5S113.5,51.8,116.4,51.2z"/>
		<path class="st5" d="M116.4,50.6c0,0,0.1,10.6-3.9,8.4C108.4,56.8,113.7,48.8,116.4,50.6z"/>
		<path class="st6" d="M118.9,55c0.8-0.8,0-2.7-1.7-4.4c-1.7-1.6-3.7-2.3-4.4-1.5c-0.8,0.8,0,2.7,1.7,4.4
			C116.2,55.1,118.2,55.8,118.9,55z"/>
		<path class="st1" d="M141.6,89.9c-3.5-4.4-29-4.8-29.1-7.8c0.2-12.1,1.8-23-11-29.3c-3.3-1.9-8.7-6.2-12.9-9.8
			c-3.7-3.1-9.1-3.1-12.7,0c-4.3,3.6-9.7,8-13,9.8c-12.8,6.3-11.2,17.2-11,29.3c-0.2,3-25.6,3.4-29.1,7.8
			C13.9,100.2,150.4,100.2,141.6,89.9z"/>
		<path class="st0" d="M89.9,52.3c-0.1-0.5-0.2-0.7-0.2-0.9c-0.2-0.8,0.2-1.4,1-1.6s1.3,0.2,1.6,0.9c0.4,1,0.7,2,1.1,3
			c2.3,4.8,5.9,6.6,11.1,5.7c0.9-0.1,1.6,0,1.9,0.9c0.2,0.8-0.3,1.5-1.3,1.7c-6.1,1.4-11.8-1.6-14.4-7.8
			C90.3,53.5,90.1,52.7,89.9,52.3z"/>
		<path class="st0" d="M73.7,52.3c0.1-0.5,0.2-0.7,0.2-0.9c0.2-0.8-0.2-1.4-1-1.6s-1.3,0.2-1.6,0.9c-0.4,1-0.7,2-1.2,3
			c-2.3,4.8-5.8,6.6-11.1,5.7c-0.9-0.1-1.6,0-1.9,0.9c-0.2,0.8,0.3,1.5,1.3,1.7c6.1,1.4,11.8-1.6,14.4-7.8
			C73.3,53.5,73.6,52.7,73.7,52.3z"/>
		<path class="st0" d="M112.7,82.2c0-2.6,0-5.2,0-7.8c-1.3,3.2-59,3.5-61,0.1c0,2.6,0,5.1,0,7.7C51.7,86.1,112.7,86.1,112.7,82.2z"
			/>
		<path class="st7" d="M46.2,112.6c-6.4,6.6-19.8,16.3-23.9,22.8c-2.3-9-3.7-25.4,3.6-37.2c3.9-6.3,10.2-11.2,20.2-13.1
			c11.6-2.2,11.5,5.4,9.2,12.4C53.4,103.3,50.2,108.4,46.2,112.6z"/>
		<path class="st8" d="M103,134.4c6.7,0,12.1-5.4,12.1-12.1s-5.4-12.1-12.1-12.1s-12.1,5.4-12.1,12.1
			C90.9,128.9,96.4,134.4,103,134.4z"/>
		<path class="st0" d="M108.4,121.3c-0.2,0.4,0.1,0.9,0.6,0.9h0.8c0.5,0,0.8,0.5,0.6,1l-5.5,11c1.4-0.2,2.7-0.6,3.9-1.3l5.3-10.9
			c0.2-0.4-0.1-1-0.6-1h-1.2c-0.5,0-0.8-0.5-0.6-1l1.9-3.8c-0.5-0.9-1.1-1.7-1.8-2.5L108.4,121.3z"/>
		<path class="st8" d="M63.8,134.4c6.7,0,12.1-5.4,12.1-12.1s-5.4-12.1-12.1-12.1s-12.1,5.4-12.1,12.1
			C51.7,128.9,57.1,134.4,63.8,134.4z"/>
		<path class="st0" d="M67.2,117.8H66c-0.5,0-0.8-0.5-0.6-1l2.9-5.8c-0.9-0.4-1.8-0.6-2.7-0.7l-3.5,7.7c-0.2,0.4,0.1,0.9,0.6,0.9
			h0.8c0.5,0,0.8,0.5,0.6,1l-6.4,12.8c0.8,0.5,1.8,0.9,2.7,1.2l7.4-15.1C68.1,118.3,67.7,117.8,67.2,117.8z"/>
		<path class="st8" d="M94.8,122.7c-8.2-2.9-12.8-2.9-21-0.2c-2.4-0.9-3.5-1.4-5.9-2.3c13.1-3,19.8-3,32.9-0.2
			C98.5,121.1,97.2,121.7,94.8,122.7z"/>
		<path class="st8" d="M116.6,122.6h-1.7c-0.4,0-0.4-0.7-0.4-1.1l-0.4-1.4c0-0.4,0.3-0.8,0.8-0.8h1.7c0.4,0,0.8,0.3,0.8,0.8v1.8
			C117.4,122.2,117,122.6,116.6,122.6z"/>
		<path class="st8" d="M50.4,122.6h1.7c0.4,0,0.4-0.7,0.4-1.1l0.4-1.4c0-0.4-0.3-0.8-0.8-0.8h-1.7c-0.4,0-0.8,0.3-0.8,0.8v1.8
			C49.7,122.2,50,122.6,50.4,122.6z"/>
		<path class="st2" d="M16.9,216.4l4.1-11.2h1.4l4.1,11.2h-1.4l-1-2.9h-4.8l-1,2.9H16.9z M19.7,212.4h4l-2-5.5L19.7,212.4z"/>
		<path class="st2" d="M28.1,216.4v-7.9h1.2l0.1,1.4c0.3-0.5,0.6-0.9,1.1-1.2c0.5-0.3,1-0.4,1.6-0.4c0.9,0,1.7,0.3,2.2,0.9
			s0.8,1.4,0.8,2.6v4.6h-1.3v-4.5c0-1.6-0.7-2.5-2.1-2.5c-0.7,0-1.2,0.2-1.7,0.7s-0.7,1.2-0.7,2.1v4.1L28.1,216.4L28.1,216.4z"/>
		<path class="st2" d="M40.9,216.6c-0.8,0-1.5-0.2-2.1-0.5s-1.1-0.9-1.4-1.5c-0.3-0.6-0.5-1.3-0.5-2.1s0.2-1.5,0.5-2.1
			s0.8-1.1,1.4-1.5s1.3-0.5,2.1-0.5c0.6,0,1.2,0.1,1.7,0.4s0.9,0.6,1.2,1.1V205h1.3v11.5h-1.2l-0.1-1.3c-0.3,0.4-0.6,0.7-1.1,1
			C42.2,216.4,41.6,216.6,40.9,216.6z M41,215.4c0.5,0,1-0.1,1.4-0.4c0.4-0.2,0.7-0.6,1-1c0.2-0.5,0.3-1,0.3-1.6s-0.1-1.1-0.3-1.6
			s-0.6-0.8-1-1s-0.9-0.4-1.4-0.4s-1,0.1-1.4,0.4s-0.7,0.6-1,1s-0.3,1-0.3,1.6s0.1,1.1,0.3,1.6s0.5,0.8,1,1
			C40,215.3,40.5,215.4,41,215.4z"/>
		<path class="st2" d="M52.4,206.7c-0.3,0-0.5-0.1-0.7-0.3c-0.2-0.2-0.3-0.4-0.3-0.7s0.1-0.5,0.3-0.6c0.2-0.2,0.4-0.3,0.7-0.3
			s0.5,0.1,0.7,0.3c0.2,0.2,0.3,0.4,0.3,0.6c0,0.3-0.1,0.5-0.3,0.7C52.8,206.6,52.6,206.7,52.4,206.7z M51.7,216.4v-7.9H53v7.9H51.7
			z"/>
		<path class="st2" d="M55.8,216.4v-6.8h-1.2v-1.1h1.2v-1.4c0-0.8,0.2-1.3,0.6-1.7c0.4-0.3,0.9-0.5,1.7-0.5h0.8v1.1h-0.6
			c-0.4,0-0.7,0.1-0.9,0.2c-0.2,0.2-0.3,0.5-0.3,0.8v1.3H59v1.1h-1.9v6.8L55.8,216.4L55.8,216.4z"/>
		<path class="st2" d="M65.8,219.9l2-4.3h-0.5l-3.1-7.2h1.5l2.6,6.2l2.8-6.2h1.4l-5.2,11.5H65.8z"/>
		<path class="st2" d="M76.7,216.6c-0.8,0-1.4-0.2-2-0.5s-1.1-0.8-1.4-1.4s-0.5-1.4-0.5-2.2c0-0.8,0.2-1.6,0.5-2.2
			c0.4-0.6,0.8-1.1,1.4-1.5c0.6-0.3,1.3-0.5,2-0.5c0.8,0,1.4,0.2,2,0.5s1.1,0.8,1.4,1.5c0.3,0.6,0.5,1.4,0.5,2.2
			c0,0.8-0.2,1.6-0.5,2.2s-0.8,1.1-1.4,1.4S77.4,216.6,76.7,216.6z M76.7,215.4c0.5,0,0.9-0.1,1.3-0.3c0.4-0.2,0.7-0.6,1-1
			c0.2-0.4,0.4-1,0.4-1.7s-0.1-1.2-0.4-1.7c-0.2-0.4-0.6-0.8-0.9-1c-0.4-0.2-0.8-0.3-1.3-0.3s-0.9,0.1-1.3,0.3c-0.4,0.2-0.7,0.6-1,1
			c-0.2,0.5-0.4,1-0.4,1.7s0.1,1.2,0.4,1.7s0.6,0.8,0.9,1C75.8,215.3,76.2,215.4,76.7,215.4z"/>
		<path class="st2" d="M85.4,216.6c-0.9,0-1.7-0.3-2.2-0.9s-0.8-1.5-0.8-2.6v-4.6h1.3v4.5c0,1.7,0.7,2.5,2,2.5
			c0.7,0,1.3-0.2,1.7-0.7c0.4-0.5,0.7-1.2,0.7-2.1v-4.1h1.3v7.9h-1.2l-0.1-1.4c-0.2,0.5-0.6,0.9-1.1,1.2
			C86.6,216.4,86,216.6,85.4,216.6z"/>
		<path class="st2" d="M91.4,207.5l-0.2-3.1h1.3l-0.2,3.1H91.4z"/>
		<path class="st2" d="M94.2,216.4v-7.9h1.2l0.1,1.5c0.2-0.5,0.6-0.9,1.1-1.2s1.1-0.5,1.9-0.5v1.4h-0.4c-0.5,0-0.9,0.1-1.3,0.2
			c-0.4,0.2-0.7,0.5-0.9,0.8c-0.2,0.4-0.3,0.9-0.3,1.6v4h-1.4V216.4z"/>
		<path class="st2" d="M103.3,216.6c-0.8,0-1.4-0.2-2-0.5c-0.6-0.4-1-0.8-1.4-1.5c-0.3-0.6-0.5-1.4-0.5-2.2c0-0.8,0.2-1.6,0.5-2.2
			s0.8-1.1,1.4-1.5c0.6-0.3,1.3-0.5,2.1-0.5c0.8,0,1.4,0.2,2,0.5c0.6,0.4,1,0.8,1.3,1.4s0.4,1.2,0.4,1.8c0,0.1,0,0.2,0,0.3
			c0,0.1,0,0.2,0,0.4h-6.3c0,0.6,0.2,1.1,0.4,1.5s0.6,0.7,0.9,0.9c0.4,0.2,0.8,0.3,1.2,0.3c0.5,0,1-0.1,1.4-0.4s0.7-0.6,0.8-1h1.3
			c-0.2,0.7-0.6,1.4-1.2,1.8C105,216.3,104.2,216.6,103.3,216.6z M103.3,209.4c-0.6,0-1.2,0.2-1.7,0.6s-0.8,1-0.9,1.7h5
			c0-0.7-0.3-1.3-0.7-1.7C104.5,209.6,104,209.4,103.3,209.4z"/>
		<path class="st2" d="M115.7,216.6c-0.7,0-1.2-0.1-1.6-0.3c-0.4-0.2-0.8-0.5-1-0.9s-0.3-0.8-0.3-1.2c0-0.8,0.3-1.4,0.9-1.9
			c0.6-0.4,1.5-0.7,2.5-0.7h2.1v-0.1c0-0.7-0.2-1.2-0.5-1.6s-0.8-0.5-1.5-0.5c-0.5,0-1,0.1-1.4,0.4s-0.6,0.6-0.7,1.1h-1.4
			c0.1-0.6,0.2-1.1,0.6-1.5c0.3-0.4,0.8-0.7,1.3-0.9s1-0.3,1.6-0.3c1.1,0,1.9,0.3,2.5,0.9s0.8,1.4,0.8,2.4v4.9h-1.2l-0.1-1.4
			c-0.2,0.4-0.6,0.8-1,1.1C117,216.4,116.4,216.6,115.7,216.6z M115.9,215.4c0.5,0,0.9-0.1,1.3-0.4s0.7-0.6,0.8-1
			c0.2-0.4,0.3-0.9,0.3-1.3l0,0h-2c-0.8,0-1.4,0.1-1.7,0.4c-0.3,0.3-0.5,0.6-0.5,1s0.2,0.8,0.5,1
			C114.9,215.3,115.4,215.4,115.9,215.4z"/>
		<path class="st2" d="M121.7,216.4v-11.5h1.3v11.5H121.7z"/>
		<path class="st2" d="M125.3,216.4v-7.9h1.2l0.1,1.5c0.2-0.5,0.6-0.9,1.1-1.2s1.1-0.5,1.9-0.5v1.4h-0.4c-0.5,0-0.9,0.1-1.3,0.2
			c-0.4,0.2-0.7,0.5-0.9,0.8c-0.2,0.4-0.4,0.9-0.4,1.6v4h-1.3V216.4z"/>
		<path class="st2" d="M134.3,216.6c-0.8,0-1.4-0.2-2-0.5c-0.6-0.4-1.1-0.8-1.4-1.5c-0.3-0.6-0.5-1.4-0.5-2.2c0-0.8,0.2-1.6,0.5-2.2
			s0.8-1.1,1.4-1.5c0.6-0.3,1.3-0.5,2.1-0.5s1.4,0.2,2,0.5c0.6,0.4,1,0.8,1.3,1.4s0.4,1.2,0.4,1.8c0,0.1,0,0.2,0,0.3
			c0,0.1,0,0.2,0,0.4h-6.3c0,0.6,0.2,1.1,0.4,1.5s0.6,0.7,0.9,0.9c0.4,0.2,0.8,0.3,1.2,0.3c0.6,0,1-0.1,1.4-0.4s0.6-0.6,0.8-1h1.3
			c-0.2,0.7-0.6,1.4-1.2,1.8C136,216.3,135.3,216.6,134.3,216.6z M134.3,209.4c-0.6,0-1.2,0.2-1.7,0.6s-0.8,1-0.9,1.7h5
			c0-0.7-0.3-1.3-0.7-1.7C135.6,209.6,135,209.4,134.3,209.4z"/>
		<path class="st2" d="M142.5,216.6c-0.7,0-1.2-0.1-1.7-0.3c-0.4-0.2-0.8-0.5-1-0.9s-0.3-0.8-0.3-1.2c0-0.8,0.3-1.4,0.9-1.9
			s1.5-0.7,2.5-0.7h2.1v-0.1c0-0.7-0.2-1.2-0.5-1.6s-0.9-0.5-1.5-0.5c-0.5,0-1,0.1-1.3,0.4c-0.4,0.3-0.6,0.6-0.7,1.1h-1.4
			c0.1-0.6,0.2-1.1,0.6-1.5c0.3-0.4,0.8-0.7,1.3-0.9c0.5-0.2,1-0.3,1.6-0.3c1.1,0,1.9,0.3,2.5,0.9s0.8,1.4,0.8,2.4v4.9h-1.2
			l-0.1-1.4c-0.2,0.4-0.6,0.8-1,1.1S143.2,216.6,142.5,216.6z M142.7,215.4c0.5,0,0.9-0.1,1.3-0.4c0.4-0.3,0.6-0.6,0.8-1
			s0.3-0.9,0.3-1.3l0,0h-2c-0.8,0-1.3,0.1-1.7,0.4c-0.3,0.3-0.5,0.6-0.5,1s0.1,0.8,0.5,1C141.7,215.3,142.2,215.4,142.7,215.4z"/>
		<path class="st2" d="M152.1,216.6c-0.8,0-1.5-0.2-2.1-0.5s-1.1-0.9-1.4-1.5c-0.3-0.6-0.5-1.3-0.5-2.1s0.2-1.5,0.5-2.1
			s0.8-1.1,1.4-1.5c0.6-0.4,1.3-0.5,2.1-0.5c0.7,0,1.2,0.1,1.7,0.4s0.9,0.6,1.2,1.1V205h1.3v11.5h-1.2l-0.1-1.3
			c-0.3,0.4-0.6,0.7-1.1,1C153.5,216.4,152.9,216.6,152.1,216.6z M152.3,215.4c0.5,0,1-0.1,1.4-0.4s0.7-0.6,1-1
			c0.2-0.5,0.3-1,0.3-1.6s-0.1-1.1-0.3-1.6s-0.6-0.8-1-1s-0.9-0.4-1.4-0.4s-1,0.1-1.4,0.4c-0.4,0.2-0.7,0.6-1,1s-0.3,1-0.3,1.6
			s0.1,1.1,0.3,1.6s0.6,0.8,1,1C151.3,215.3,151.8,215.4,152.3,215.4z"/>
		<path class="st2" d="M159.4,219.9l2-4.3H161l-3.2-7.2h1.5l2.6,6.2l2.8-6.2h1.4l-5.2,11.5H159.4z"/>
		<path class="st2" d="M175.3,216.6c-0.8,0-1.4-0.2-2-0.5c-0.6-0.4-1.1-0.8-1.4-1.5c-0.3-0.6-0.5-1.4-0.5-2.2c0-0.8,0.2-1.6,0.5-2.2
			s0.8-1.1,1.4-1.5c0.6-0.3,1.3-0.5,2.1-0.5s1.4,0.2,2,0.5c0.6,0.4,1,0.8,1.3,1.4s0.4,1.2,0.4,1.8c0,0.1,0,0.2,0,0.3
			c0,0.1,0,0.2,0,0.4h-6.3c0,0.6,0.2,1.1,0.4,1.5s0.6,0.7,0.9,0.9c0.4,0.2,0.8,0.3,1.2,0.3c0.6,0,1-0.1,1.4-0.4s0.6-0.6,0.8-1h1.3
			c-0.2,0.7-0.6,1.4-1.2,1.8C177,216.3,176.2,216.6,175.3,216.6z M175.3,209.4c-0.6,0-1.2,0.2-1.7,0.6s-0.8,1-0.9,1.7h5
			c0-0.7-0.3-1.3-0.7-1.7C176.5,209.6,176,209.4,175.3,209.4z"/>
		<path class="st2" d="M179.6,216.4l2.8-4l-2.8-4h1.5l2.2,3.3l2.2-3.3h1.4l-2.8,4l2.8,4h-1.4l-2.2-3.3l-2.2,3.3H179.6z"/>
		<path class="st2" d="M191.6,216.6c-0.8,0-1.4-0.2-2-0.5c-0.6-0.4-1.1-0.8-1.4-1.5c-0.3-0.6-0.5-1.4-0.5-2.2c0-0.8,0.2-1.6,0.5-2.2
			s0.8-1.1,1.4-1.5c0.6-0.3,1.3-0.5,2.1-0.5s1.4,0.2,2,0.5c0.6,0.4,1,0.8,1.3,1.4s0.4,1.2,0.4,1.8c0,0.1,0,0.2,0,0.3
			c0,0.1,0,0.2,0,0.4h-6.3c0,0.6,0.2,1.1,0.4,1.5s0.6,0.7,0.9,0.9c0.4,0.2,0.8,0.3,1.2,0.3c0.6,0,1-0.1,1.4-0.4s0.7-0.6,0.8-1h1.3
			c-0.2,0.7-0.6,1.4-1.2,1.8C193.4,216.3,192.6,216.6,191.6,216.6z M191.6,209.4c-0.6,0-1.2,0.2-1.7,0.6s-0.8,1-0.9,1.7h5
			c0-0.7-0.3-1.3-0.7-1.7C192.9,209.6,192.3,209.4,191.6,209.4z"/>
		<path class="st2" d="M197.2,216.4v-7.9h1.2l0.1,1.5c0.2-0.5,0.6-0.9,1.1-1.2s1.1-0.5,1.9-0.5v1.4h-0.4c-0.5,0-0.9,0.1-1.3,0.2
			c-0.4,0.2-0.7,0.5-0.9,0.8c-0.2,0.4-0.4,0.9-0.4,1.6v4h-1.3V216.4z"/>
		<path class="st2" d="M206.3,216.6c-0.8,0-1.4-0.2-2-0.5c-0.6-0.4-1.1-0.8-1.4-1.5c-0.3-0.6-0.5-1.3-0.5-2.2s0.2-1.6,0.5-2.2
			s0.8-1.1,1.4-1.5c0.6-0.3,1.3-0.5,2-0.5c0.9,0,1.7,0.2,2.4,0.7c0.6,0.5,1.1,1.1,1.2,2h-1.4c-0.1-0.5-0.4-0.9-0.8-1.1
			c-0.4-0.3-0.9-0.4-1.5-0.4c-0.5,0-0.9,0.1-1.3,0.3c-0.4,0.2-0.7,0.6-1,1s-0.4,1-0.4,1.7s0.1,1.2,0.4,1.7s0.6,0.8,1,1
			s0.8,0.3,1.3,0.3s1-0.1,1.5-0.4s0.7-0.7,0.8-1.2h1.4c-0.2,0.8-0.6,1.4-1.2,1.9S207.3,216.6,206.3,216.6z"/>
		<path class="st2" d="M212.6,206.7c-0.3,0-0.5-0.1-0.7-0.3c-0.2-0.2-0.3-0.4-0.3-0.7s0.1-0.5,0.3-0.6c0.2-0.2,0.4-0.3,0.7-0.3
			s0.5,0.1,0.7,0.3c0.2,0.2,0.3,0.4,0.3,0.6c0,0.3-0.1,0.5-0.3,0.7C213.1,206.6,212.9,206.7,212.6,206.7z M212,216.4v-7.9h1.3v7.9
			H212z"/>
		<path class="st2" d="M218.7,216.6c-0.9,0-1.7-0.2-2.4-0.7s-1-1.1-1.1-2h1.4c0.1,0.4,0.3,0.8,0.7,1.1c0.4,0.3,0.8,0.5,1.4,0.5
			c0.6,0,1-0.1,1.2-0.4s0.4-0.5,0.4-0.9c0-0.5-0.2-0.8-0.5-1c-0.4-0.2-0.8-0.3-1.5-0.4c-0.4-0.1-0.8-0.2-1.3-0.4
			c-0.4-0.2-0.8-0.4-1.1-0.7c-0.3-0.3-0.4-0.7-0.4-1.2c0-0.7,0.3-1.3,0.8-1.7c0.5-0.4,1.2-0.7,2.1-0.7c0.8,0,1.5,0.2,2.1,0.6
			c0.5,0.4,0.9,1,0.9,1.8h-1.3c0-0.4-0.2-0.7-0.5-0.9c-0.3-0.2-0.7-0.3-1.2-0.3s-0.8,0.1-1.1,0.3c-0.3,0.2-0.4,0.5-0.4,0.8
			s0.2,0.6,0.5,0.8c0.3,0.2,0.8,0.3,1.4,0.5c0.5,0.1,1,0.2,1.4,0.4c0.4,0.1,0.8,0.4,1.1,0.7c0.3,0.3,0.4,0.7,0.4,1.3
			c0,0.7-0.3,1.3-0.8,1.8C220.4,216.3,219.6,216.6,218.7,216.6z"/>
		<path class="st2" d="M224.4,206.7c-0.3,0-0.5-0.1-0.7-0.3c-0.2-0.2-0.3-0.4-0.3-0.7s0.1-0.5,0.3-0.6c0.2-0.2,0.4-0.3,0.7-0.3
			s0.5,0.1,0.7,0.3c0.2,0.2,0.3,0.4,0.3,0.6c0,0.3-0.1,0.5-0.3,0.7C224.9,206.6,224.7,206.7,224.4,206.7z M223.8,216.4v-7.9h1.3v7.9
			H223.8z"/>
		<path class="st2" d="M227.5,216.4v-7.9h1.2l0.1,1.4c0.3-0.5,0.6-0.9,1.1-1.2c0.5-0.3,1-0.4,1.6-0.4c0.9,0,1.7,0.3,2.2,0.9
			c0.6,0.6,0.8,1.4,0.8,2.6v4.6h-1.3v-4.5c0-1.6-0.7-2.5-2.1-2.5c-0.7,0-1.2,0.2-1.7,0.7s-0.7,1.2-0.7,2.1v4.1L227.5,216.4
			L227.5,216.4z"/>
		<path class="st2" d="M239.7,213.9c-0.5,0-0.9-0.1-1.2-0.2l-0.8,0.8c0.1,0.1,0.3,0.2,0.4,0.2s0.4,0.1,0.8,0.2
			c0.3,0,0.8,0.1,1.4,0.2c1.1,0.1,1.8,0.3,2.3,0.7s0.7,1,0.7,1.6c0,0.5-0.1,0.9-0.4,1.3c-0.2,0.4-0.6,0.8-1.1,1
			c-0.5,0.3-1.2,0.4-2,0.4c-0.7,0-1.3-0.1-1.9-0.3c-0.5-0.2-1-0.5-1.3-0.9s-0.5-0.9-0.5-1.4c0-0.3,0.1-0.6,0.2-1
			c0.2-0.4,0.5-0.7,0.9-1c-0.2-0.1-0.4-0.2-0.6-0.3c-0.2-0.1-0.3-0.2-0.5-0.4v-0.4l1.4-1.3c-0.6-0.5-0.9-1.2-0.9-2.1
			c0-0.5,0.1-1,0.4-1.4c0.3-0.4,0.6-0.8,1.1-1s1-0.4,1.7-0.4c0.5,0,0.9,0.1,1.2,0.2h2.9v1l-1.5,0.1c0.3,0.5,0.5,1,0.5,1.6
			c0,0.5-0.1,1-0.4,1.4c-0.2,0.4-0.6,0.8-1.1,1C241,213.8,240.4,213.9,239.7,213.9z M237.4,217.4c0,0.5,0.2,0.9,0.7,1.2
			c0.5,0.3,1,0.4,1.7,0.4s1.2-0.1,1.6-0.4c0.4-0.3,0.6-0.7,0.6-1.2c0-0.3-0.1-0.6-0.4-0.9s-0.8-0.4-1.5-0.4c-0.6,0-1.1-0.1-1.5-0.2
			c-0.4,0.2-0.7,0.5-0.9,0.8C237.5,217,237.4,217.2,237.4,217.4z M239.7,212.8c0.6,0,1-0.2,1.4-0.4c0.3-0.3,0.5-0.7,0.5-1.3
			c0-0.5-0.2-1-0.5-1.3s-0.8-0.4-1.4-0.4c-0.6,0-1,0.1-1.4,0.4c-0.3,0.3-0.5,0.7-0.5,1.3c0,0.6,0.2,1,0.5,1.3
			C238.7,212.6,239.2,212.8,239.7,212.8z"/>
		<path class="st2" d="M249.7,216.4v-7.9h1.2l0.1,1.5c0.2-0.5,0.6-0.9,1.1-1.2s1.1-0.5,1.9-0.5v1.4h-0.4c-0.5,0-0.9,0.1-1.3,0.2
			c-0.4,0.2-0.7,0.5-0.9,0.8c-0.2,0.4-0.4,0.9-0.4,1.6v4h-1.3V216.4z"/>
		<path class="st2" d="M258.8,216.6c-0.8,0-1.4-0.2-2-0.5c-0.6-0.4-1-0.8-1.4-1.5c-0.3-0.6-0.5-1.4-0.5-2.2c0-0.8,0.2-1.6,0.5-2.2
			s0.8-1.1,1.4-1.5c0.6-0.3,1.3-0.5,2.1-0.5c0.8,0,1.4,0.2,2,0.5c0.6,0.4,1,0.8,1.3,1.4s0.5,1.2,0.5,1.8c0,0.1,0,0.2,0,0.3
			c0,0.1,0,0.2,0,0.4h-6.3c0,0.6,0.2,1.1,0.4,1.5s0.6,0.7,0.9,0.9c0.4,0.2,0.8,0.3,1.2,0.3c0.5,0,1-0.1,1.4-0.4s0.6-0.6,0.8-1h1.3
			c-0.2,0.7-0.6,1.4-1.2,1.8C260.5,216.3,259.7,216.6,258.8,216.6z M258.8,209.4c-0.6,0-1.2,0.2-1.7,0.6s-0.8,1-0.9,1.7h5
			c0-0.7-0.3-1.3-0.7-1.7C260,209.6,259.4,209.4,258.8,209.4z"/>
		<path class="st2" d="M267.4,213.9c-0.5,0-0.9-0.1-1.2-0.2l-0.8,0.8c0.1,0.1,0.3,0.2,0.4,0.2c0.2,0.1,0.4,0.1,0.8,0.2
			c0.3,0,0.8,0.1,1.4,0.2c1.1,0.1,1.8,0.3,2.3,0.7c0.5,0.4,0.7,1,0.7,1.6c0,0.5-0.1,0.9-0.4,1.3c-0.2,0.4-0.6,0.8-1.1,1
			c-0.5,0.3-1.2,0.4-2,0.4c-0.7,0-1.4-0.1-1.9-0.3s-1-0.5-1.3-0.9s-0.5-0.9-0.5-1.4c0-0.3,0.1-0.6,0.2-1c0.2-0.4,0.5-0.7,0.9-1
			c-0.2-0.1-0.4-0.2-0.6-0.3c-0.2-0.1-0.3-0.2-0.5-0.4v-0.4l1.4-1.3c-0.6-0.5-0.9-1.2-0.9-2.1c0-0.5,0.1-1,0.4-1.4
			c0.2-0.4,0.6-0.8,1.1-1s1-0.4,1.7-0.4c0.5,0,0.9,0.1,1.2,0.2h2.9v1l-1.5,0.1c0.3,0.5,0.5,1,0.5,1.6c0,0.5-0.1,1-0.4,1.4
			c-0.2,0.4-0.6,0.8-1.1,1C268.6,213.8,268,213.9,267.4,213.9z M265,217.4c0,0.5,0.2,0.9,0.7,1.2c0.5,0.3,1,0.4,1.7,0.4
			s1.2-0.1,1.6-0.4s0.6-0.7,0.6-1.2c0-0.3-0.1-0.6-0.4-0.9s-0.8-0.4-1.5-0.4c-0.6,0-1.1-0.1-1.5-0.2c-0.4,0.2-0.7,0.5-0.9,0.8
			C265.1,216.9,265,217.2,265,217.4z M267.4,212.8c0.6,0,1-0.2,1.4-0.4c0.3-0.3,0.5-0.7,0.5-1.3c0-0.5-0.2-1-0.5-1.3
			s-0.8-0.4-1.4-0.4s-1,0.1-1.4,0.4c-0.3,0.3-0.5,0.7-0.5,1.3c0,0.6,0.2,1,0.5,1.3C266.3,212.6,266.8,212.8,267.4,212.8z"/>
		<path class="st2" d="M276,216.6c-0.9,0-1.7-0.3-2.2-0.9c-0.6-0.6-0.8-1.5-0.8-2.6v-4.6h1.3v4.5c0,1.7,0.7,2.5,2,2.5
			c0.7,0,1.3-0.2,1.7-0.7c0.5-0.5,0.7-1.2,0.7-2.1v-4.1h1.3v7.9h-1.2l-0.1-1.4c-0.2,0.5-0.6,0.9-1.1,1.2
			C277.1,216.4,276.6,216.6,276,216.6z"/>
		<path class="st2" d="M282.2,216.4v-11.5h1.3v11.5H282.2z"/>
		<path class="st2" d="M288.4,216.6c-0.7,0-1.2-0.1-1.7-0.3c-0.4-0.2-0.8-0.5-1-0.9s-0.3-0.8-0.3-1.2c0-0.8,0.3-1.4,0.9-1.9
			s1.5-0.7,2.5-0.7h2.1v-0.1c0-0.7-0.2-1.2-0.5-1.6c-0.4-0.4-0.9-0.5-1.5-0.5c-0.5,0-1,0.1-1.4,0.4s-0.6,0.6-0.7,1.1h-1.4
			c0-0.6,0.2-1.1,0.6-1.5c0.3-0.4,0.8-0.7,1.3-0.9s1-0.3,1.6-0.3c1.1,0,1.9,0.3,2.5,0.9s0.8,1.4,0.8,2.4v4.9H291l-0.1-1.4
			c-0.2,0.4-0.6,0.8-1,1.1C289.7,216.4,289.1,216.6,288.4,216.6z M288.6,215.4c0.5,0,0.9-0.1,1.3-0.4s0.6-0.6,0.8-1
			c0.2-0.4,0.3-0.9,0.3-1.3l0,0h-2c-0.8,0-1.3,0.1-1.7,0.4c-0.3,0.3-0.5,0.6-0.5,1s0.1,0.8,0.5,1
			C287.6,215.3,288.1,215.4,288.6,215.4z"/>
		<path class="st2" d="M294.4,216.4v-7.9h1.2l0.1,1.5c0.2-0.5,0.6-0.9,1.1-1.2s1.1-0.5,1.9-0.5v1.4h-0.4c-0.5,0-0.9,0.1-1.3,0.2
			c-0.4,0.2-0.7,0.5-0.9,0.8c-0.2,0.4-0.4,0.9-0.4,1.6v4h-1.3V216.4z"/>
		<path class="st2" d="M300.2,216.4v-11.5h1.3v11.5H300.2z"/>
		<path class="st2" d="M304.7,219.9l2-4.3h-0.5l-3.2-7.2h1.5l2.6,6.2l2.8-6.2h1.4l-5.2,11.5H304.7z"/>
		<path class="st2" d="M312,216.5c-0.3,0-0.5-0.1-0.7-0.3c-0.2-0.2-0.3-0.4-0.3-0.6c0-0.3,0.1-0.5,0.3-0.7c0.2-0.2,0.4-0.3,0.7-0.3
			c0.3,0,0.5,0.1,0.7,0.3c0.2,0.2,0.3,0.4,0.3,0.7c0,0.3-0.1,0.5-0.3,0.6C312.5,216.4,312.3,216.5,312,216.5z"/>
		<path class="st2" d="M315.1,216.5c-0.3,0-0.5-0.1-0.7-0.3c-0.2-0.2-0.3-0.4-0.3-0.6c0-0.3,0.1-0.5,0.3-0.7
			c0.2-0.2,0.4-0.3,0.7-0.3c0.3,0,0.5,0.1,0.6,0.3c0.2,0.2,0.3,0.4,0.3,0.7c0,0.3-0.1,0.5-0.3,0.6
			C315.6,216.4,315.4,216.5,315.1,216.5z"/>
		<path class="st2" d="M318.3,216.5c-0.3,0-0.5-0.1-0.7-0.3c-0.2-0.2-0.3-0.4-0.3-0.6c0-0.3,0.1-0.5,0.3-0.7
			c0.2-0.2,0.4-0.3,0.7-0.3c0.3,0,0.5,0.1,0.6,0.3c0.2,0.2,0.3,0.4,0.3,0.7c0,0.3-0.1,0.5-0.3,0.6
			C318.7,216.4,318.5,216.5,318.3,216.5z"/>
		<path class="st2" d="M19.1,238.4l-2.3-7.9h1.3l1.7,6.2l1.9-6.2h1.5l1.9,6.2l1.7-6.2H28l-2.3,7.9h-1.4l-1.9-6.5l-2,6.5H19.1z"/>
		<path class="st2" d="M29.5,238.4v-11.5h1.3v4.9c0.3-0.5,0.6-0.9,1.1-1.1c0.5-0.3,1-0.4,1.6-0.4c0.9,0,1.7,0.3,2.2,0.9
			s0.8,1.4,0.8,2.6v4.6h-1.3v-4.5c0-1.6-0.7-2.5-2-2.5c-0.7,0-1.3,0.2-1.7,0.7c-0.5,0.5-0.7,1.2-0.7,2.1v4.1L29.5,238.4L29.5,238.4z
			"/>
		<path class="st2" d="M39.3,241.9l2-4.3h-0.5l-3.1-7.2h1.5l2.6,6.2l2.8-6.2H46l-5.2,11.5H39.3z"/>
		<path class="st2" d="M51.6,238.4v-7.9h1.2l0.1,1.4c0.3-0.5,0.6-0.9,1.1-1.2c0.5-0.3,1-0.4,1.6-0.4c0.9,0,1.7,0.3,2.2,0.9
			c0.6,0.6,0.8,1.4,0.8,2.6v4.6h-1.3v-4.5c0-1.6-0.7-2.5-2.1-2.5c-0.7,0-1.2,0.2-1.7,0.7c-0.4,0.5-0.7,1.2-0.7,2.1v4.1L51.6,238.4
			L51.6,238.4z"/>
		<path class="st2" d="M64.4,238.6c-0.8,0-1.4-0.2-2-0.5s-1.1-0.8-1.4-1.4s-0.5-1.4-0.5-2.2c0-0.8,0.2-1.6,0.5-2.2s0.8-1.1,1.4-1.5
			c0.6-0.3,1.3-0.5,2-0.5c0.8,0,1.4,0.2,2,0.5s1.1,0.8,1.4,1.5c0.3,0.6,0.5,1.4,0.5,2.2c0,0.8-0.2,1.6-0.5,2.2s-0.8,1.1-1.4,1.4
			S65.1,238.6,64.4,238.6z M64.4,237.4c0.5,0,0.9-0.1,1.3-0.3c0.4-0.2,0.7-0.6,1-1c0.2-0.4,0.4-1,0.4-1.7s-0.1-1.2-0.4-1.7
			s-0.6-0.8-1-1s-0.8-0.3-1.3-0.3c-0.5,0-0.9,0.1-1.3,0.3c-0.4,0.2-0.7,0.6-1,1c-0.2,0.5-0.4,1-0.4,1.7s0.1,1.2,0.4,1.7s0.6,0.8,1,1
			C63.5,237.3,63.9,237.4,64.4,237.4z"/>
		<path class="st2" d="M73,238.4c-0.7,0-1.3-0.2-1.7-0.5c-0.4-0.4-0.6-1-0.6-1.9v-4.4h-1.4v-1.1h1.4l0.2-1.9H72v1.9h2.3v1.1H72v4.4
			c0,0.5,0.1,0.8,0.3,1c0.2,0.2,0.6,0.3,1.1,0.3h0.8v1.1H73z"/>
		<path class="st2" d="M83.2,238.6c-0.9,0-1.7-0.3-2.2-0.9s-0.8-1.5-0.8-2.6v-4.6h1.3v4.5c0,1.7,0.7,2.5,2,2.5
			c0.7,0,1.3-0.2,1.7-0.7c0.5-0.5,0.7-1.2,0.7-2.1v-4.1h1.3v7.9H86l-0.1-1.4c-0.2,0.5-0.6,0.9-1.1,1.2
			C84.4,238.4,83.8,238.6,83.2,238.6z"/>
		<path class="st2" d="M92.5,238.6c-0.9,0-1.7-0.2-2.4-0.7c-0.6-0.5-1-1.1-1.1-2h1.4c0.1,0.4,0.3,0.8,0.7,1.1
			c0.4,0.3,0.8,0.5,1.5,0.5c0.6,0,1-0.1,1.2-0.4c0.3-0.2,0.4-0.5,0.4-0.9c0-0.5-0.2-0.8-0.5-1s-0.8-0.3-1.5-0.4
			c-0.4-0.1-0.8-0.2-1.3-0.4c-0.4-0.2-0.8-0.4-1.1-0.7s-0.4-0.7-0.4-1.2c0-0.7,0.3-1.3,0.8-1.7c0.5-0.4,1.2-0.7,2.1-0.7
			c0.8,0,1.5,0.2,2.1,0.6s0.9,1,0.9,1.8H94c0-0.4-0.2-0.7-0.5-0.9c-0.3-0.2-0.7-0.3-1.2-0.3s-0.8,0.1-1.1,0.3s-0.4,0.5-0.4,0.8
			s0.2,0.6,0.5,0.8c0.3,0.2,0.8,0.3,1.4,0.5c0.5,0.1,1,0.2,1.4,0.4c0.4,0.1,0.8,0.4,1.1,0.7c0.3,0.3,0.4,0.7,0.4,1.3
			c0,0.7-0.3,1.3-0.8,1.8C94.2,238.3,93.5,238.6,92.5,238.6z"/>
		<path class="st2" d="M101,238.6c-0.8,0-1.4-0.2-2-0.5c-0.6-0.4-1-0.8-1.4-1.5c-0.3-0.6-0.5-1.4-0.5-2.2c0-0.8,0.2-1.6,0.5-2.2
			s0.8-1.1,1.4-1.5c0.6-0.3,1.3-0.5,2.1-0.5c0.8,0,1.4,0.2,2,0.5c0.6,0.4,1,0.8,1.3,1.4s0.4,1.2,0.4,1.8c0,0.1,0,0.2,0,0.3
			c0,0.1,0,0.2,0,0.4h-6.3c0,0.6,0.2,1.1,0.4,1.5s0.6,0.7,0.9,0.9c0.4,0.2,0.8,0.3,1.2,0.3c0.5,0,1-0.1,1.4-0.4s0.6-0.6,0.8-1h1.3
			c-0.2,0.7-0.6,1.4-1.2,1.8C102.8,238.3,102,238.6,101,238.6z M101,231.4c-0.6,0-1.2,0.2-1.7,0.6s-0.8,1-0.9,1.7h5
			c0-0.7-0.3-1.3-0.7-1.7C102.3,231.6,101.7,231.4,101,231.4z"/>
		<path class="st2" d="M114,238.4c-0.7,0-1.3-0.2-1.7-0.5c-0.4-0.4-0.6-1-0.6-1.9v-4.4h-1.4v-1.1h1.4l0.2-1.9h1.2v1.9h2.3v1.1H113
			v4.4c0,0.5,0.1,0.8,0.3,1s0.6,0.3,1.1,0.3h0.8v1.1H114z"/>
		<path class="st2" d="M117,238.4v-11.5h1.3v4.9c0.3-0.5,0.6-0.9,1.1-1.1c0.5-0.3,1-0.4,1.6-0.4c0.9,0,1.6,0.3,2.2,0.9
			s0.8,1.4,0.8,2.6v4.6h-1.3v-4.5c0-1.6-0.7-2.5-2-2.5c-0.7,0-1.3,0.2-1.7,0.7c-0.5,0.5-0.7,1.2-0.7,2.1v4.1L117,238.4L117,238.4z"
			/>
		<path class="st2" d="M129.7,238.6c-0.8,0-1.4-0.2-2-0.5c-0.6-0.4-1.1-0.8-1.4-1.5c-0.3-0.6-0.5-1.4-0.5-2.2c0-0.8,0.2-1.6,0.5-2.2
			s0.8-1.1,1.4-1.5c0.6-0.3,1.3-0.5,2.1-0.5s1.4,0.2,2,0.5c0.6,0.4,1,0.8,1.3,1.4s0.4,1.2,0.4,1.8c0,0.1,0,0.2,0,0.3
			c0,0.1,0,0.2,0,0.4h-6.3c0,0.6,0.2,1.1,0.4,1.5s0.6,0.7,0.9,0.9c0.4,0.2,0.8,0.3,1.2,0.3c0.5,0,1-0.1,1.4-0.4s0.6-0.6,0.8-1h1.3
			c-0.2,0.7-0.6,1.4-1.2,1.8C131.4,238.3,130.7,238.6,129.7,238.6z M129.7,231.4c-0.6,0-1.2,0.2-1.7,0.6s-0.8,1-0.9,1.7h5
			c0-0.7-0.3-1.3-0.7-1.7C131,231.6,130.4,231.4,129.7,231.4z"/>
		<path class="st2" d="M139.5,238.4v-7.9h1.2l0.1,1.4c0.3-0.5,0.6-0.9,1.1-1.2c0.5-0.3,1-0.4,1.6-0.4c0.9,0,1.7,0.3,2.2,0.9
			c0.6,0.6,0.8,1.4,0.8,2.6v4.6h-1.3v-4.5c0-1.6-0.7-2.5-2-2.5c-0.7,0-1.2,0.2-1.7,0.7c-0.4,0.5-0.7,1.2-0.7,2.1v4.1L139.5,238.4
			L139.5,238.4z"/>
		<path class="st2" d="M152.2,238.6c-0.8,0-1.4-0.2-2-0.5c-0.6-0.4-1.1-0.8-1.4-1.5c-0.3-0.6-0.5-1.4-0.5-2.2c0-0.8,0.2-1.6,0.5-2.2
			s0.8-1.1,1.4-1.5c0.6-0.3,1.3-0.5,2.1-0.5s1.4,0.2,2,0.5c0.6,0.4,1,0.8,1.3,1.4s0.4,1.2,0.4,1.8c0,0.1,0,0.2,0,0.3
			c0,0.1,0,0.2,0,0.4h-6.3c0,0.6,0.2,1.1,0.4,1.5s0.6,0.7,0.9,0.9c0.4,0.2,0.8,0.3,1.2,0.3c0.6,0,1-0.1,1.4-0.4s0.6-0.6,0.8-1h1.3
			c-0.2,0.7-0.6,1.4-1.2,1.8C153.9,238.3,153.2,238.6,152.2,238.6z M152.2,231.4c-0.6,0-1.2,0.2-1.7,0.6s-0.8,1-0.9,1.7h5
			c0-0.7-0.3-1.3-0.7-1.7C153.5,231.6,152.9,231.4,152.2,231.4z"/>
		<path class="st2" d="M156.6,238.4l2.8-4l-2.8-4h1.5l2.2,3.3l2.2-3.3h1.4l-2.8,4l2.8,4h-1.4l-2.2-3.3l-2.2,3.3H156.6z"/>
		<path class="st2" d="M168.5,238.4c-0.7,0-1.3-0.2-1.7-0.5c-0.4-0.4-0.6-1-0.6-1.9v-4.4h-1.4v-1.1h1.4l0.2-1.9h1.2v1.9h2.3v1.1
			h-2.3v4.4c0,0.5,0.1,0.8,0.3,1s0.6,0.3,1.1,0.3h0.8v1.1H168.5z"/>
		<path class="st2" d="M175.7,238.4v-0.9c0.8-0.6,1.5-1.2,2.2-1.8c0.7-0.6,1.3-1.2,1.8-1.8c0.5-0.6,0.9-1.2,1.2-1.8s0.5-1.1,0.5-1.7
			c0-0.4-0.1-0.8-0.2-1.1s-0.3-0.6-0.6-0.8s-0.7-0.3-1.2-0.3s-0.9,0.1-1.2,0.3c-0.3,0.2-0.6,0.5-0.7,0.9c-0.2,0.4-0.2,0.8-0.2,1.2
			H176c0-0.7,0.1-1.4,0.5-1.9c0.3-0.5,0.7-0.9,1.3-1.2c0.5-0.3,1.1-0.4,1.8-0.4c1,0,1.8,0.3,2.4,0.8c0.6,0.6,0.9,1.4,0.9,2.5
			c0,0.7-0.2,1.3-0.5,2c-0.3,0.6-0.8,1.3-1.3,1.9s-1.1,1.2-1.6,1.7s-1.1,1-1.6,1.4h5.4v1.1h-7.6V238.4z"/>
		<path class="st2" d="M190.8,238.4l-2.3-7.9h1.3l1.7,6.2l1.9-6.2h1.5l1.9,6.2l1.7-6.2h1.4l-2.3,7.9h-1.4l-1.9-6.5l-1.9,6.5H190.8z"
			/>
		<path class="st2" d="M204.5,238.6c-0.8,0-1.4-0.2-2-0.5c-0.6-0.4-1.1-0.8-1.4-1.5c-0.3-0.6-0.5-1.4-0.5-2.2c0-0.8,0.2-1.6,0.5-2.2
			s0.8-1.1,1.4-1.5c0.6-0.3,1.3-0.5,2.1-0.5s1.4,0.2,2,0.5c0.6,0.4,1,0.8,1.3,1.4s0.4,1.2,0.4,1.8c0,0.1,0,0.2,0,0.3
			c0,0.1,0,0.2,0,0.4H202c0,0.6,0.2,1.1,0.4,1.5s0.6,0.7,0.9,0.9c0.4,0.2,0.8,0.3,1.2,0.3c0.6,0,1-0.1,1.4-0.4s0.6-0.6,0.8-1h1.3
			c-0.2,0.7-0.6,1.4-1.2,1.8C206.2,238.3,205.5,238.6,204.5,238.6z M204.5,231.4c-0.6,0-1.2,0.2-1.7,0.6s-0.8,1-0.9,1.7h5
			c0-0.7-0.3-1.3-0.7-1.7C205.8,231.6,205.2,231.4,204.5,231.4z"/>
		<path class="st2" d="M213.6,238.6c-0.8,0-1.4-0.2-2-0.5c-0.6-0.4-1.1-0.8-1.4-1.5c-0.3-0.6-0.5-1.4-0.5-2.2c0-0.8,0.2-1.6,0.5-2.2
			s0.8-1.1,1.4-1.5c0.6-0.3,1.3-0.5,2.1-0.5s1.4,0.2,2,0.5c0.6,0.4,1,0.8,1.3,1.4s0.4,1.2,0.4,1.8c0,0.1,0,0.2,0,0.3
			c0,0.1,0,0.2,0,0.4H211c0,0.6,0.2,1.1,0.4,1.5s0.6,0.7,0.9,0.9c0.4,0.2,0.8,0.3,1.2,0.3c0.6,0,1-0.1,1.4-0.4s0.7-0.6,0.8-1h1.3
			c-0.2,0.7-0.6,1.4-1.2,1.8C215.3,238.3,214.6,238.6,213.6,238.6z M213.6,231.4c-0.6,0-1.2,0.2-1.7,0.6s-0.8,1-0.9,1.7h5
			c0-0.7-0.3-1.3-0.7-1.7C214.9,231.6,214.3,231.4,213.6,231.4z"/>
		<path class="st2" d="M219.2,238.4v-11.5h1.3v6.9l3.2-3.3h1.6l-3.5,3.6l4,4.3h-1.7l-3.6-4.1v4.1H219.2z"/>
		<path class="st2" d="M229.8,238.6c-0.9,0-1.7-0.2-2.4-0.7c-0.6-0.5-1-1.1-1.1-2h1.4c0.1,0.4,0.3,0.8,0.7,1.1
			c0.4,0.3,0.8,0.5,1.5,0.5c0.6,0,1-0.1,1.2-0.4c0.3-0.2,0.4-0.5,0.4-0.9c0-0.5-0.2-0.8-0.5-1s-0.8-0.3-1.5-0.4
			c-0.4-0.1-0.9-0.2-1.3-0.4c-0.4-0.2-0.8-0.4-1.1-0.7s-0.4-0.7-0.4-1.2c0-0.7,0.3-1.3,0.8-1.7c0.5-0.4,1.2-0.7,2.1-0.7
			c0.8,0,1.5,0.2,2.1,0.6c0.5,0.4,0.8,1,0.9,1.8h-1.3c-0.1-0.4-0.2-0.7-0.5-0.9c-0.3-0.2-0.7-0.3-1.2-0.3s-0.9,0.1-1.1,0.3
			c-0.3,0.2-0.4,0.5-0.4,0.8s0.2,0.6,0.5,0.8c0.3,0.2,0.8,0.3,1.4,0.5c0.5,0.1,1,0.2,1.4,0.4c0.4,0.1,0.8,0.4,1.1,0.7
			c0.3,0.3,0.4,0.7,0.4,1.3c0,0.7-0.3,1.3-0.8,1.8C231.5,238.3,230.7,238.6,229.8,238.6z"/>
		<path class="st2" d="M242.1,238.4c-0.7,0-1.3-0.2-1.7-0.5c-0.4-0.4-0.6-1-0.6-1.9v-4.4h-1.4v-1.1h1.4l0.2-1.9h1.2v1.9h2.3v1.1
			h-2.3v4.4c0,0.5,0.1,0.8,0.3,1s0.6,0.3,1.1,0.3h0.8v1.1H242.1z"/>
		<path class="st2" d="M248.6,238.6c-0.8,0-1.4-0.2-2-0.5s-1.1-0.8-1.4-1.4c-0.4-0.6-0.5-1.4-0.5-2.2c0-0.8,0.2-1.6,0.5-2.2
			s0.8-1.1,1.4-1.5c0.6-0.3,1.3-0.5,2-0.5c0.8,0,1.4,0.2,2,0.5s1.1,0.8,1.4,1.5c0.4,0.6,0.5,1.4,0.5,2.2c0,0.8-0.2,1.6-0.5,2.2
			s-0.8,1.1-1.4,1.4C250,238.4,249.3,238.6,248.6,238.6z M248.6,237.4c0.5,0,0.9-0.1,1.3-0.3c0.4-0.2,0.7-0.6,1-1
			c0.2-0.4,0.4-1,0.4-1.7s-0.1-1.2-0.4-1.7c-0.2-0.4-0.6-0.8-0.9-1c-0.4-0.2-0.8-0.3-1.3-0.3s-0.9,0.1-1.3,0.3c-0.4,0.2-0.7,0.6-1,1
			c-0.2,0.5-0.4,1-0.4,1.7s0.1,1.2,0.4,1.7c0.2,0.5,0.6,0.8,0.9,1C247.7,237.3,248.1,237.4,248.6,237.4z"/>
		<path class="st2" d="M261.8,238.4c-0.7,0-1.3-0.2-1.7-0.5c-0.4-0.4-0.6-1-0.6-1.9v-4.4h-1.4v-1.1h1.4l0.2-1.9h1.2v1.9h2.3v1.1
			h-2.3v4.4c0,0.5,0.1,0.8,0.3,1c0.2,0.2,0.6,0.3,1.1,0.3h0.8v1.1H261.8z"/>
		<path class="st2" d="M264.9,238.4v-7.9h1.2l0.1,1.5c0.2-0.5,0.6-0.9,1.1-1.2s1.1-0.5,1.9-0.5v1.4h-0.4c-0.5,0-0.9,0.1-1.3,0.2
			c-0.4,0.2-0.7,0.5-0.9,0.8c-0.2,0.4-0.4,0.9-0.4,1.6v4h-1.3V238.4z"/>
		<path class="st2" d="M271.5,241.9l2-4.3H273l-3.1-7.2h1.5l2.6,6.2l2.8-6.2h1.4l-5.2,11.5H271.5z"/>
		<path class="st2" d="M20.5,260.6c-1,0-1.7-0.2-2.4-0.7c-0.6-0.5-1-1.1-1.1-2h1.4c0.1,0.4,0.3,0.8,0.7,1.1c0.4,0.3,0.8,0.5,1.5,0.5
			c0.6,0,1-0.1,1.2-0.4s0.4-0.5,0.4-0.9c0-0.5-0.2-0.8-0.5-1s-0.8-0.3-1.5-0.4c-0.4-0.1-0.8-0.2-1.3-0.4c-0.4-0.2-0.8-0.4-1.1-0.7
			c-0.3-0.3-0.4-0.7-0.4-1.2c0-0.7,0.3-1.3,0.8-1.7s1.2-0.7,2.1-0.7c0.8,0,1.5,0.2,2.1,0.6c0.5,0.4,0.8,1,0.9,1.8H22
			c-0.1-0.4-0.2-0.7-0.5-0.9c-0.3-0.2-0.7-0.3-1.2-0.3s-0.9,0.1-1.1,0.3c-0.3,0.2-0.4,0.5-0.4,0.8s0.2,0.6,0.5,0.8
			c0.3,0.2,0.8,0.3,1.4,0.5c0.5,0.1,1,0.2,1.4,0.4c0.4,0.1,0.8,0.4,1.1,0.7c0.3,0.3,0.4,0.7,0.4,1.3c0,0.7-0.3,1.3-0.8,1.8
			C22.2,260.3,21.5,260.6,20.5,260.6z"/>
		<path class="st2" d="M29.1,260.6c-0.8,0-1.4-0.2-2-0.5s-1.1-0.8-1.4-1.4c-0.4-0.6-0.5-1.4-0.5-2.2c0-0.8,0.2-1.6,0.5-2.2
			c0.4-0.6,0.8-1.1,1.4-1.5c0.6-0.3,1.3-0.5,2-0.5s1.4,0.2,2,0.5s1.1,0.8,1.4,1.5c0.4,0.6,0.5,1.4,0.5,2.2c0,0.8-0.2,1.6-0.5,2.2
			s-0.8,1.1-1.4,1.4S29.8,260.6,29.1,260.6z M29.1,259.4c0.5,0,0.9-0.1,1.3-0.3c0.4-0.2,0.7-0.6,1-1c0.2-0.4,0.4-1,0.4-1.7
			c0-0.7-0.1-1.2-0.4-1.7c-0.2-0.4-0.6-0.8-1-1s-0.8-0.3-1.3-0.3s-0.9,0.1-1.3,0.3c-0.4,0.2-0.7,0.6-1,1c-0.2,0.5-0.4,1-0.4,1.7
			c0,0.7,0.1,1.2,0.4,1.7s0.6,0.8,1,1S28.6,259.4,29.1,259.4z"/>
		<path class="st2" d="M34.9,260.4v-7.9h1.2l0.1,1.2c0.3-0.4,0.6-0.8,1-1s0.9-0.4,1.4-0.4c0.6,0,1.2,0.1,1.6,0.4
			c0.5,0.3,0.8,0.7,1.1,1.2c0.3-0.5,0.7-0.9,1.1-1.1c0.5-0.3,1-0.4,1.6-0.4c1,0,1.7,0.3,2.3,0.9s0.9,1.5,0.9,2.6v4.6h-1.3V256
			c0-0.8-0.2-1.4-0.5-1.9c-0.3-0.4-0.8-0.6-1.4-0.6c-0.6,0-1.2,0.2-1.6,0.7c-0.4,0.5-0.6,1.2-0.6,2.1v4.1h-1.3v-4.5
			c0-0.8-0.2-1.4-0.5-1.9c-0.3-0.4-0.8-0.6-1.4-0.6c-0.6,0-1.1,0.2-1.6,0.7c-0.4,0.5-0.6,1.2-0.6,2.1v4.1L34.9,260.4L34.9,260.4z"/>
		<path class="st2" d="M52.8,260.6c-0.8,0-1.4-0.2-2-0.5c-0.6-0.4-1.1-0.8-1.4-1.5c-0.3-0.6-0.5-1.4-0.5-2.2c0-0.8,0.2-1.6,0.5-2.2
			s0.8-1.1,1.4-1.5c0.6-0.3,1.3-0.5,2.1-0.5s1.4,0.2,2,0.5c0.6,0.4,1,0.8,1.3,1.4s0.5,1.2,0.5,1.8c0,0.1,0,0.2,0,0.3
			c0,0.1,0,0.2,0,0.4h-6.3c0,0.6,0.2,1.1,0.4,1.5s0.6,0.7,0.9,0.9c0.4,0.2,0.8,0.3,1.2,0.3c0.6,0,1-0.1,1.4-0.4s0.7-0.6,0.8-1h1.3
			c-0.2,0.7-0.6,1.4-1.2,1.8C54.5,260.3,53.8,260.6,52.8,260.6z M52.8,253.4c-0.6,0-1.2,0.2-1.7,0.6s-0.8,1-0.9,1.7h5
			c0-0.7-0.3-1.3-0.7-1.7C54.1,253.6,53.5,253.4,52.8,253.4z"/>
		<path class="st2" d="M61.2,260.4c-0.7,0-1.3-0.2-1.7-0.5c-0.4-0.4-0.6-1-0.6-1.9v-4.4h-1.4v-1.1h1.4l0.2-1.9h1.2v1.9h2.3v1.1h-2.3
			v4.4c0,0.5,0.1,0.8,0.3,1s0.6,0.3,1.1,0.3h0.8v1.1H61.2z"/>
		<path class="st2" d="M64.3,260.4v-11.5h1.3v4.9c0.3-0.5,0.7-0.9,1.1-1.1s1-0.4,1.6-0.4c0.9,0,1.7,0.3,2.2,0.9
			c0.6,0.6,0.8,1.4,0.8,2.6v4.6H70v-4.5c0-1.6-0.7-2.5-2-2.5c-0.7,0-1.3,0.2-1.7,0.7c-0.5,0.5-0.7,1.2-0.7,2.1v4.1L64.3,260.4
			L64.3,260.4z"/>
		<path class="st2" d="M74.3,250.7c-0.3,0-0.5-0.1-0.7-0.3c-0.2-0.2-0.3-0.4-0.3-0.7s0.1-0.5,0.3-0.6c0.2-0.2,0.4-0.3,0.7-0.3
			s0.5,0.1,0.7,0.3c0.2,0.2,0.3,0.4,0.3,0.6c0,0.3-0.1,0.5-0.3,0.7C74.7,250.6,74.5,250.7,74.3,250.7z M73.6,260.4v-7.9h1.3v7.9
			H73.6z"/>
		<path class="st2" d="M77.3,260.4v-7.9h1.2l0.1,1.4c0.3-0.5,0.6-0.9,1.1-1.2c0.5-0.3,1-0.4,1.6-0.4c0.9,0,1.7,0.3,2.2,0.9
			c0.6,0.6,0.8,1.4,0.8,2.6v4.6H83v-4.5c0-1.6-0.7-2.5-2.1-2.5c-0.7,0-1.2,0.2-1.7,0.7s-0.7,1.2-0.7,2.1v4.1L77.3,260.4L77.3,260.4z
			"/>
		<path class="st2" d="M89.6,257.9c-0.4,0-0.9-0.1-1.2-0.2l-0.8,0.8c0.1,0.1,0.3,0.2,0.4,0.2s0.4,0.1,0.8,0.2c0.3,0,0.8,0.1,1.4,0.2
			c1.1,0.1,1.8,0.3,2.3,0.7c0.5,0.4,0.7,1,0.7,1.6c0,0.5-0.1,0.9-0.4,1.3c-0.2,0.4-0.6,0.8-1.2,1c-0.5,0.3-1.2,0.4-2,0.4
			c-0.7,0-1.3-0.1-1.9-0.3s-1-0.5-1.3-0.9s-0.5-0.9-0.5-1.4c0-0.3,0.1-0.6,0.2-1c0.2-0.4,0.5-0.7,0.9-1c-0.2-0.1-0.4-0.2-0.6-0.3
			c-0.2-0.1-0.3-0.2-0.5-0.4v-0.4l1.4-1.3c-0.6-0.5-0.9-1.2-0.9-2.1c0-0.5,0.1-1,0.4-1.4c0.2-0.4,0.6-0.8,1.1-1s1-0.4,1.7-0.4
			c0.5,0,0.9,0.1,1.2,0.2h2.9v1l-1.5,0.1c0.3,0.5,0.5,1,0.5,1.6c0,0.5-0.1,1-0.4,1.4c-0.2,0.4-0.6,0.8-1.1,1
			C90.8,257.8,90.2,257.9,89.6,257.9z M87.2,261.4c0,0.5,0.2,0.9,0.7,1.2s1,0.4,1.7,0.4s1.2-0.1,1.6-0.4s0.6-0.7,0.6-1.2
			c0-0.3-0.1-0.6-0.4-0.9c-0.3-0.2-0.8-0.4-1.5-0.4c-0.6,0-1.1-0.1-1.5-0.2c-0.4,0.2-0.7,0.5-0.9,0.8
			C87.3,261,87.2,261.2,87.2,261.4z M89.6,256.8c0.6,0,1-0.2,1.4-0.4c0.3-0.3,0.5-0.7,0.5-1.3c0-0.5-0.2-1-0.5-1.3s-0.8-0.4-1.4-0.4
			s-1,0.1-1.4,0.4c-0.3,0.3-0.5,0.7-0.5,1.3c0,0.6,0.2,1,0.5,1.3C88.5,256.6,89,256.8,89.6,256.8z"/>
		<path class="st2" d="M99.5,260.4v-7.9h1.2l0.1,1.4c0.3-0.5,0.6-0.9,1.1-1.2c0.5-0.3,1-0.4,1.6-0.4c0.9,0,1.7,0.3,2.2,0.9
			s0.8,1.4,0.8,2.6v4.6h-1.3v-4.5c0-1.6-0.7-2.5-2-2.5c-0.7,0-1.2,0.2-1.7,0.7c-0.4,0.5-0.7,1.2-0.7,2.1v4.1L99.5,260.4L99.5,260.4z
			"/>
		<path class="st2" d="M112.2,260.6c-0.8,0-1.4-0.2-2-0.5c-0.6-0.4-1.1-0.8-1.4-1.5c-0.3-0.6-0.5-1.4-0.5-2.2c0-0.8,0.2-1.6,0.5-2.2
			s0.8-1.1,1.4-1.5c0.6-0.3,1.3-0.5,2.1-0.5c0.8,0,1.4,0.2,2,0.5c0.6,0.4,1,0.8,1.3,1.4s0.5,1.2,0.5,1.8c0,0.1,0,0.2,0,0.3
			c0,0.1,0,0.2,0,0.4h-6.3c0,0.6,0.2,1.1,0.4,1.5s0.6,0.7,0.9,0.9c0.4,0.2,0.8,0.3,1.2,0.3c0.6,0,1-0.1,1.4-0.4s0.6-0.6,0.8-1h1.3
			c-0.2,0.7-0.6,1.4-1.2,1.8C113.9,260.3,113.1,260.6,112.2,260.6z M112.2,253.4c-0.6,0-1.2,0.2-1.7,0.6s-0.8,1-0.9,1.7h5
			c0-0.7-0.3-1.3-0.7-1.7C113.4,253.6,112.9,253.4,112.2,253.4z"/>
		<path class="st2" d="M119,260.4l-2.3-7.9h1.3l1.7,6.2l1.9-6.2h1.5l1.9,6.2l1.7-6.2h1.4l-2.3,7.9h-1.4l-1.9-6.5l-2,6.5H119z"/>
		<path class="st2" d="M130.8,257.2l-0.1-2.6h0.5c0.6,0,1.1-0.1,1.7-0.2s0.9-0.4,1.3-0.7c0.3-0.3,0.5-0.9,0.5-1.5
			c0-0.7-0.2-1.2-0.6-1.6c-0.4-0.4-0.9-0.6-1.6-0.6c-0.7,0-1.2,0.2-1.6,0.6c-0.4,0.4-0.6,0.9-0.6,1.5H129c0-0.6,0.2-1.2,0.4-1.7
			c0.3-0.5,0.7-0.9,1.2-1.1c0.5-0.3,1.1-0.4,1.8-0.4s1.3,0.1,1.8,0.4s0.9,0.6,1.2,1.1s0.4,1.1,0.4,1.7c0,0.8-0.2,1.4-0.5,1.9
			s-0.8,0.8-1.4,1.1c-0.6,0.2-1.3,0.3-2,0.3v1.7L130.8,257.2L130.8,257.2z M131.4,260.5c-0.3,0-0.5-0.1-0.7-0.3
			c-0.2-0.2-0.3-0.4-0.3-0.6c0-0.3,0.1-0.5,0.3-0.7s0.4-0.3,0.7-0.3s0.5,0.1,0.7,0.3c0.2,0.2,0.3,0.4,0.3,0.7c0,0.3-0.1,0.5-0.3,0.6
			C131.9,260.4,131.6,260.5,131.4,260.5z"/>
	</g>
</g>
</svg>
