<?xml version="1.0" encoding="utf-8"?>
<!-- Generator: Adobe Illustrator 25.1.0, SVG Export Plug-In . SVG Version: 6.00 Build 0)  -->
<svg version="1.1" id="Layer_1" xmlns="http://www.w3.org/2000/svg" xmlns:xlink="http://www.w3.org/1999/xlink" x="0px" y="0px"
	 viewBox="0 0 333.4 193.1" style="enable-background:new 0 0 333.4 193.1;" xml:space="preserve">
<style type="text/css">
	.st0{fill:#FFFFFF;}
	.st1{fill:#808080;}
	.st2{fill:#00CDDC;}
	.st3{fill:#32DCD2;}
	.st4{fill:#F8D1C0;}
</style>
<g>
	<g>
		<g>
			<path class="st0" d="M333.4,144.7c0-126.3-5-133.1-67.7-142.7c-26.3-4-128.4-1-163.5-0.5C67.7,2,14.6-1.4,8.5,18
				c-6,19.1-8,48.9-8,83.3c0,54.1-6.6,80.3,28.8,87.1c36,7,166.9,4.2,210.4,3.4C284.5,190.9,333.4,199.8,333.4,144.7z"/>
			<path class="st1" d="M24.8,38.8l-3.1-11.2h1.4l2.4,9.6l2.8-9.6h1.5l2.7,9.6l2.5-9.6h1.4l-3.1,11.2h-1.5l-2.7-9.2l-2.7,9.2H24.8z"
				/>
			<path class="st1" d="M40.6,39c-0.8,0-1.4-0.2-2-0.5s-1-0.8-1.4-1.5c-0.3-0.6-0.5-1.3-0.5-2.2c0-0.8,0.2-1.6,0.5-2.2
				c0.3-0.6,0.8-1.1,1.4-1.5s1.3-0.5,2.1-0.5s1.4,0.2,2,0.5c0.6,0.4,1,0.8,1.3,1.4c0.3,0.6,0.4,1.2,0.4,1.8c0,0.1,0,0.2,0,0.4
				c0,0.1,0,0.2,0,0.4h-6.3c0,0.6,0.2,1.1,0.4,1.5s0.6,0.7,0.9,0.9c0.4,0.2,0.8,0.3,1.2,0.3c0.5,0,1-0.1,1.4-0.4
				c0.4-0.3,0.7-0.6,0.8-1h1.3c-0.2,0.7-0.6,1.3-1.2,1.8C42.3,38.8,41.6,39,40.6,39z M40.6,31.8c-0.6,0-1.2,0.2-1.7,0.6
				c-0.5,0.4-0.8,1-0.9,1.7h5c0-0.7-0.3-1.3-0.7-1.7C41.9,32,41.3,31.8,40.6,31.8z"/>
			<path class="st1" d="M50.4,38.8V27.3h1.3v6.9l3.2-3.3h1.6L53,34.5l4,4.3h-1.7l-3.6-4.1v4.1H50.4z"/>
			<path class="st1" d="M58.5,38.8v-7.9h1.2l0.1,1.4c0.3-0.5,0.6-0.9,1.1-1.2s1-0.4,1.6-0.4c0.9,0,1.7,0.3,2.2,0.9
				c0.6,0.6,0.8,1.5,0.8,2.6v4.6h-1.3v-4.5c0-1.6-0.7-2.5-2.1-2.5c-0.7,0-1.2,0.2-1.7,0.7s-0.7,1.2-0.7,2.1v4.1L58.5,38.8L58.5,38.8
				z"/>
			<path class="st1" d="M71.2,39c-0.8,0-1.4-0.2-2-0.5s-1.1-0.8-1.4-1.5c-0.3-0.6-0.5-1.4-0.5-2.2s0.2-1.6,0.5-2.2s0.8-1.1,1.4-1.5
				s1.3-0.5,2-0.5s1.4,0.2,2,0.5s1.1,0.8,1.4,1.5c0.3,0.6,0.5,1.4,0.5,2.2s-0.2,1.6-0.5,2.2c-0.3,0.6-0.8,1.1-1.4,1.5
				C72.6,38.8,72,39,71.2,39z M71.2,37.8c0.5,0,0.9-0.1,1.3-0.3s0.7-0.6,1-1c0.2-0.4,0.4-1,0.4-1.7s-0.1-1.2-0.4-1.7
				c-0.2-0.4-0.6-0.8-0.9-1c-0.4-0.2-0.8-0.3-1.3-0.3s-0.9,0.1-1.3,0.3c-0.4,0.2-0.7,0.6-1,1c-0.2,0.4-0.4,1-0.4,1.7
				s0.1,1.2,0.4,1.7s0.6,0.8,0.9,1C70.4,37.7,70.8,37.8,71.2,37.8z"/>
			<path class="st1" d="M78.4,38.8l-2.3-7.9h1.3l1.7,6.2l1.9-6.2h1.5l1.9,6.2l1.7-6.2h1.4l-2.3,7.9h-1.4l-1.9-6.5l-2,6.5H78.4z"/>
			<path class="st1" d="M93.9,29.1c-0.3,0-0.5-0.1-0.7-0.3s-0.3-0.4-0.3-0.7s0.1-0.5,0.3-0.6c0.2-0.2,0.4-0.3,0.7-0.3
				s0.5,0.1,0.7,0.3s0.3,0.4,0.3,0.6c0,0.3-0.1,0.5-0.3,0.7C94.4,29,94.1,29.1,93.9,29.1z M93.2,38.8v-7.9h1.3v7.9H93.2z"/>
			<path class="st1" d="M100,38.8c-0.7,0-1.3-0.2-1.7-0.5c-0.4-0.3-0.6-1-0.6-1.9V32h-1.4v-1.1h1.4l0.2-1.9h1.2v1.9h2.3V32h-2.3v4.4
				c0,0.5,0.1,0.8,0.3,1c0.2,0.2,0.6,0.3,1.1,0.3h0.8v1.1L100,38.8L100,38.8z"/>
			<path class="st1" d="M111,39c-0.8,0-1.4-0.2-2-0.5c-0.6-0.4-1.1-0.8-1.4-1.5c-0.3-0.6-0.5-1.4-0.5-2.2s0.2-1.6,0.5-2.2
				c0.4-0.6,0.8-1.1,1.4-1.5s1.3-0.5,2-0.5c0.9,0,1.7,0.2,2.4,0.7c0.6,0.5,1,1.1,1.2,2h-1.4c-0.1-0.5-0.4-0.9-0.8-1.1
				c-0.4-0.3-0.9-0.4-1.5-0.4c-0.4,0-0.9,0.1-1.3,0.3c-0.4,0.2-0.7,0.6-1,1c-0.2,0.5-0.4,1-0.4,1.7s0.1,1.2,0.4,1.7s0.6,0.8,1,1
				s0.8,0.3,1.3,0.3c0.6,0,1-0.1,1.5-0.4c0.4-0.3,0.7-0.7,0.8-1.2h1.4c-0.2,0.8-0.6,1.4-1.2,1.9C112.7,38.7,111.9,39,111,39z"/>
			<path class="st1" d="M119.1,39c-0.7,0-1.2-0.1-1.7-0.3c-0.4-0.2-0.8-0.5-1-0.9s-0.3-0.8-0.3-1.2c0-0.8,0.3-1.4,0.9-1.9
				s1.5-0.7,2.5-0.7h2.1v-0.1c0-0.7-0.2-1.2-0.5-1.6c-0.4-0.4-0.9-0.5-1.5-0.5c-0.5,0-1,0.1-1.3,0.4c-0.4,0.3-0.6,0.6-0.7,1.1h-1.4
				c0.1-0.6,0.2-1.1,0.6-1.5c0.3-0.4,0.8-0.7,1.3-0.9s1-0.3,1.6-0.3c1.1,0,1.9,0.3,2.5,0.9c0.6,0.6,0.8,1.4,0.8,2.4v4.9h-1.2
				l-0.1-1.4c-0.2,0.4-0.5,0.8-1,1.1C120.4,38.8,119.8,39,119.1,39z M119.3,37.9c0.5,0,1-0.1,1.3-0.4c0.4-0.3,0.6-0.6,0.8-1
				s0.3-0.9,0.3-1.3l0,0h-2c-0.8,0-1.3,0.1-1.7,0.4c-0.3,0.3-0.5,0.6-0.5,1s0.1,0.8,0.5,1C118.3,37.7,118.7,37.9,119.3,37.9z"/>
			<path class="st1" d="M125.1,38.8v-7.9h1.2l0.1,1.4c0.3-0.5,0.6-0.9,1.1-1.2s1-0.4,1.6-0.4c0.9,0,1.7,0.3,2.2,0.9
				c0.5,0.6,0.8,1.5,0.8,2.6v4.6h-1.3v-4.5c0-1.6-0.7-2.5-2.1-2.5c-0.7,0-1.2,0.2-1.7,0.7c-0.4,0.5-0.7,1.2-0.7,2.1v4.1L125.1,38.8
				L125.1,38.8z"/>
			<path class="st1" d="M142.7,39c-0.6,0-1.2-0.1-1.7-0.4c-0.5-0.3-0.9-0.6-1.2-1.1l-0.1,1.3h-1.2V27.3h1.3v4.9
				c0.3-0.4,0.6-0.7,1.1-1s1.1-0.5,1.8-0.5c0.8,0,1.5,0.2,2.1,0.5c0.6,0.4,1,0.9,1.4,1.5s0.5,1.3,0.5,2.1s-0.2,1.5-0.5,2.1
				s-0.8,1.1-1.4,1.5C144.2,38.8,143.5,39,142.7,39z M142.6,37.8c0.5,0,1-0.1,1.4-0.4c0.4-0.2,0.7-0.6,1-1c0.2-0.5,0.4-1,0.4-1.6
				s-0.1-1.1-0.4-1.6s-0.6-0.8-1-1s-0.9-0.4-1.4-0.4s-1,0.1-1.4,0.4c-0.4,0.3-0.7,0.6-1,1c-0.2,0.5-0.3,1-0.3,1.6s0.1,1.1,0.3,1.6
				c0.2,0.4,0.6,0.8,1,1C141.6,37.7,142.1,37.8,142.6,37.8z"/>
			<path class="st1" d="M152.1,39c-0.8,0-1.4-0.2-2-0.5s-1.1-0.8-1.4-1.5c-0.3-0.6-0.5-1.3-0.5-2.2c0-0.8,0.2-1.6,0.5-2.2
				s0.8-1.1,1.4-1.5s1.3-0.5,2.1-0.5s1.4,0.2,2,0.5c0.6,0.4,1,0.8,1.3,1.4c0.3,0.6,0.4,1.2,0.4,1.8c0,0.1,0,0.2,0,0.4
				c0,0.1,0,0.2,0,0.4h-6.3c0,0.6,0.2,1.1,0.4,1.5s0.6,0.7,0.9,0.9c0.4,0.2,0.8,0.3,1.2,0.3c0.5,0,1-0.1,1.4-0.4
				c0.4-0.3,0.6-0.6,0.8-1h1.3c-0.2,0.7-0.6,1.3-1.2,1.8C153.8,38.8,153.1,39,152.1,39z M152.1,31.8c-0.6,0-1.2,0.2-1.7,0.6
				c-0.5,0.4-0.8,1-0.9,1.7h5c0-0.7-0.3-1.3-0.7-1.7C153.4,32,152.8,31.8,152.1,31.8z"/>
			<path class="st1" d="M22.4,60.8V49.3h1.3v4.9c0.3-0.5,0.7-0.9,1.1-1.1c0.5-0.3,1-0.4,1.6-0.4c0.9,0,1.7,0.3,2.2,0.9
				c0.5,0.6,0.8,1.5,0.8,2.6v4.6h-1.3v-4.5c0-1.6-0.7-2.5-2-2.5c-0.7,0-1.3,0.2-1.7,0.7c-0.5,0.5-0.7,1.2-0.7,2.1v4.1L22.4,60.8
				L22.4,60.8z"/>
			<path class="st1" d="M34.2,61c-0.7,0-1.2-0.1-1.6-0.3c-0.4-0.2-0.8-0.5-1-0.9s-0.3-0.8-0.3-1.2c0-0.8,0.3-1.4,0.9-1.9
				c0.6-0.4,1.5-0.7,2.5-0.7h2.1v-0.1c0-0.7-0.2-1.2-0.5-1.6c-0.4-0.4-0.8-0.5-1.5-0.5c-0.5,0-1,0.1-1.3,0.4
				c-0.4,0.3-0.6,0.6-0.7,1.1h-1.4c0-0.6,0.2-1.1,0.6-1.5c0.3-0.4,0.8-0.7,1.3-0.9s1-0.3,1.6-0.3c1.1,0,1.9,0.3,2.5,0.9
				s0.8,1.4,0.8,2.4v4.9H37l-0.1-1.4c-0.2,0.4-0.6,0.8-1,1.1C35.5,60.8,34.9,61,34.2,61z M34.4,59.9c0.5,0,0.9-0.1,1.3-0.4
				c0.4-0.3,0.6-0.6,0.8-1s0.3-0.9,0.3-1.3l0,0h-2c-0.8,0-1.3,0.1-1.7,0.4c-0.3,0.3-0.5,0.6-0.5,1s0.2,0.8,0.5,1
				C33.4,59.7,33.8,59.9,34.4,59.9z"/>
			<path class="st1" d="M40.2,60.8v-7.9h1.2l0.1,1.5c0.2-0.5,0.6-0.9,1.1-1.2s1.1-0.5,1.9-0.5v1.4h-0.4c-0.5,0-0.9,0.1-1.3,0.2
				c-0.4,0.2-0.7,0.5-0.9,0.8c-0.2,0.4-0.3,0.9-0.3,1.6v4L40.2,60.8L40.2,60.8z"/>
			<path class="st1" d="M49.3,61c-0.8,0-1.5-0.2-2.1-0.5c-0.6-0.4-1.1-0.9-1.4-1.5s-0.5-1.3-0.5-2.1s0.2-1.5,0.5-2.1
				s0.8-1.1,1.4-1.5c0.6-0.4,1.3-0.5,2.1-0.5c0.7,0,1.2,0.1,1.7,0.4c0.5,0.3,0.9,0.6,1.2,1.1v-4.9h1.3v11.5h-1.2l-0.1-1.3
				c-0.3,0.4-0.6,0.7-1.1,1C50.6,60.8,50,61,49.3,61z M49.4,59.8c0.5,0,1-0.1,1.4-0.4c0.4-0.2,0.7-0.6,1-1c0.2-0.5,0.3-1,0.3-1.6
				s-0.1-1.1-0.3-1.6s-0.6-0.8-1-1s-0.9-0.4-1.4-0.4s-1,0.1-1.4,0.4c-0.4,0.2-0.7,0.6-1,1c-0.2,0.5-0.3,1-0.3,1.6s0.1,1.1,0.3,1.6
				c0.2,0.4,0.5,0.8,1,1C48.5,59.7,48.9,59.8,49.4,59.8z"/>
			<path class="st1" d="M63.1,60.8c-0.7,0-1.3-0.2-1.7-0.5s-0.6-1-0.6-1.9V54h-1.4v-1.1h1.4L61,51h1.2v1.9h2.3V54h-2.3v4.4
				c0,0.5,0.1,0.8,0.3,1s0.6,0.3,1.1,0.3h0.8v1.1L63.1,60.8L63.1,60.8z"/>
			<path class="st1" d="M69.6,61c-0.8,0-1.4-0.2-2-0.5s-1.1-0.8-1.4-1.5c-0.4-0.6-0.5-1.4-0.5-2.2s0.2-1.6,0.5-2.2
				c0.4-0.6,0.8-1.1,1.4-1.5s1.3-0.5,2-0.5s1.4,0.2,2,0.5s1.1,0.8,1.4,1.5c0.4,0.6,0.5,1.4,0.5,2.2S73.3,58.4,73,59
				c-0.4,0.6-0.8,1.1-1.4,1.5S70.3,61,69.6,61z M69.6,59.8c0.5,0,0.9-0.1,1.3-0.3s0.7-0.6,1-1c0.2-0.4,0.4-1,0.4-1.7
				s-0.1-1.2-0.4-1.7c-0.2-0.4-0.6-0.8-0.9-1c-0.4-0.2-0.8-0.3-1.3-0.3s-0.9,0.1-1.3,0.3s-0.7,0.6-1,1c-0.2,0.4-0.4,1-0.4,1.7
				s0.1,1.2,0.4,1.7s0.6,0.8,0.9,1C68.7,59.7,69.1,59.8,69.6,59.8z"/>
			<path class="st1" d="M82.8,58.3c-0.5,0-0.9-0.1-1.2-0.2l-0.8,0.8c0.1,0.1,0.3,0.2,0.4,0.2s0.4,0.1,0.8,0.2s0.8,0.1,1.4,0.1
				c1.1,0.1,1.8,0.3,2.3,0.7s0.7,1,0.7,1.6c0,0.5-0.1,0.9-0.4,1.3c-0.2,0.4-0.6,0.8-1.2,1c-0.5,0.3-1.2,0.4-2,0.4
				c-0.7,0-1.3-0.1-1.9-0.3c-0.5-0.2-1-0.5-1.3-0.9s-0.5-0.9-0.5-1.4c0-0.3,0.1-0.6,0.2-1c0.2-0.4,0.5-0.7,0.9-1
				c-0.2-0.1-0.4-0.2-0.6-0.3s-0.3-0.2-0.5-0.4v-0.4l1.4-1.3c-0.6-0.5-0.9-1.2-0.9-2.1c0-0.5,0.1-1,0.4-1.4c0.2-0.4,0.6-0.8,1.1-1
				s1-0.4,1.7-0.4c0.5,0,0.9,0.1,1.2,0.2h2.9v1l-1.5,0.1c0.3,0.4,0.5,1,0.5,1.5s-0.1,1-0.4,1.4c-0.2,0.4-0.6,0.8-1.1,1
				C84,58.2,83.5,58.3,82.8,58.3z M80.5,61.8c0,0.5,0.2,0.9,0.7,1.2s1,0.4,1.7,0.4s1.2-0.1,1.6-0.4s0.6-0.7,0.6-1.1
				c0-0.3-0.1-0.6-0.4-0.9s-0.9-0.5-1.7-0.5c-0.6,0-1.1-0.1-1.5-0.2c-0.4,0.2-0.7,0.5-0.9,0.8C80.5,61.4,80.5,61.6,80.5,61.8z
				 M82.8,57.2c0.6,0,1-0.2,1.3-0.4c0.3-0.3,0.5-0.7,0.5-1.3c0-0.5-0.2-1-0.5-1.3s-0.8-0.4-1.3-0.4c-0.6,0-1,0.1-1.4,0.4
				c-0.3,0.3-0.5,0.7-0.5,1.3s0.2,1,0.5,1.3C81.8,57.1,82.2,57.2,82.8,57.2z"/>
			<path class="st1" d="M91.7,61c-0.8,0-1.4-0.2-2-0.5c-0.6-0.4-1.1-0.8-1.4-1.5c-0.3-0.6-0.5-1.3-0.5-2.2c0-0.8,0.2-1.6,0.5-2.2
				c0.3-0.6,0.8-1.1,1.4-1.5s1.3-0.5,2.1-0.5c0.8,0,1.4,0.2,2,0.5c0.6,0.4,1,0.8,1.3,1.4c0.3,0.6,0.5,1.2,0.5,1.8c0,0.1,0,0.2,0,0.4
				c0,0.1,0,0.2,0,0.4h-6.3c0,0.6,0.2,1.1,0.4,1.5c0.2,0.4,0.6,0.7,0.9,0.9c0.4,0.2,0.8,0.3,1.2,0.3c0.6,0,1-0.1,1.4-0.4
				c0.4-0.3,0.7-0.6,0.8-1h1.3c-0.2,0.7-0.6,1.3-1.2,1.8C93.5,60.8,92.7,61,91.7,61z M91.7,53.8c-0.6,0-1.2,0.2-1.7,0.6
				c-0.5,0.4-0.8,1-0.9,1.7h5c0-0.7-0.3-1.3-0.7-1.7C93,54,92.4,53.8,91.7,53.8z"/>
			<path class="st1" d="M100.1,60.8c-0.7,0-1.3-0.2-1.7-0.5c-0.4-0.3-0.6-1-0.6-1.9V54h-1.4v-1.1h1.4L98,51h1.2v1.9h2.3V54h-2.3v4.4
				c0,0.5,0.1,0.8,0.3,1c0.2,0.2,0.6,0.3,1.1,0.3h0.8v1.1L100.1,60.8L100.1,60.8z"/>
			<path class="st1" d="M110.1,61c-0.7,0-1.2-0.1-1.6-0.3s-0.8-0.5-1-0.9s-0.3-0.8-0.3-1.2c0-0.8,0.3-1.4,0.9-1.9
				c0.6-0.4,1.5-0.7,2.5-0.7h2.1v-0.1c0-0.7-0.2-1.2-0.5-1.6c-0.4-0.4-0.8-0.5-1.5-0.5c-0.5,0-1,0.1-1.4,0.4
				c-0.4,0.3-0.6,0.6-0.7,1.1h-1.4c0.1-0.6,0.2-1.1,0.6-1.5c0.3-0.4,0.8-0.7,1.3-0.9s1-0.3,1.6-0.3c1.1,0,1.9,0.3,2.5,0.9
				s0.8,1.4,0.8,2.4v4.9h-1.2l-0.1-1.4c-0.2,0.4-0.6,0.8-1,1.1C111.4,60.8,110.8,61,110.1,61z M110.3,59.9c0.5,0,0.9-0.1,1.3-0.4
				c0.4-0.3,0.6-0.6,0.8-1s0.3-0.9,0.3-1.3l0,0h-2c-0.8,0-1.3,0.1-1.7,0.4c-0.3,0.3-0.5,0.6-0.5,1s0.2,0.8,0.5,1
				C109.3,59.7,109.7,59.9,110.3,59.9z"/>
			<path class="st1" d="M119.7,61c-0.8,0-1.4-0.2-2-0.5c-0.6-0.4-1.1-0.8-1.4-1.5c-0.4-0.6-0.5-1.4-0.5-2.2s0.2-1.6,0.5-2.2
				c0.3-0.6,0.8-1.1,1.4-1.5s1.3-0.5,2-0.5c0.9,0,1.7,0.2,2.4,0.7c0.6,0.5,1.1,1.1,1.2,2h-1.4c-0.1-0.5-0.4-0.9-0.8-1.1
				c-0.4-0.3-0.9-0.4-1.5-0.4c-0.4,0-0.9,0.1-1.3,0.3s-0.7,0.6-1,1c-0.2,0.5-0.4,1-0.4,1.7s0.1,1.2,0.4,1.7s0.6,0.8,1,1
				s0.8,0.3,1.3,0.3c0.6,0,1-0.1,1.5-0.4c0.4-0.3,0.7-0.7,0.8-1.2h1.4c-0.2,0.8-0.6,1.4-1.2,1.9C121.5,60.7,120.7,61,119.7,61z"/>
			<path class="st1" d="M128.1,60.8c-0.7,0-1.3-0.2-1.7-0.5c-0.4-0.3-0.6-1-0.6-1.9V54h-1.4v-1.1h1.4L126,51h1.2v1.9h2.3V54h-2.3
				v4.4c0,0.5,0.1,0.8,0.3,1c0.2,0.2,0.6,0.3,1.1,0.3h0.8v1.1L128.1,60.8L128.1,60.8z"/>
			<path class="st1" d="M132,51.1c-0.3,0-0.5-0.1-0.7-0.3s-0.3-0.4-0.3-0.7s0.1-0.5,0.3-0.6c0.2-0.2,0.4-0.3,0.7-0.3
				s0.5,0.1,0.7,0.3s0.3,0.4,0.3,0.6c0,0.3-0.1,0.5-0.3,0.7S132.3,51.1,132,51.1z M131.3,60.8v-7.9h1.3v7.9H131.3z"/>
			<path class="st1" d="M137.3,60.8l-3-7.9h1.4l2.4,6.6l2.4-6.6h1.4l-3,7.9H137.3z"/>
			<path class="st1" d="M146.5,61c-0.8,0-1.4-0.2-2-0.5s-1.1-0.8-1.4-1.5c-0.3-0.6-0.5-1.3-0.5-2.2c0-0.8,0.2-1.6,0.5-2.2
				c0.3-0.6,0.8-1.1,1.4-1.5s1.3-0.5,2.1-0.5s1.4,0.2,2,0.5s1,0.8,1.3,1.4c0.3,0.6,0.5,1.2,0.5,1.8c0,0.1,0,0.2,0,0.4
				c0,0.1,0,0.2,0,0.4h-6.3c0,0.6,0.2,1.1,0.4,1.5s0.6,0.7,0.9,0.9c0.4,0.2,0.8,0.3,1.2,0.3c0.6,0,1-0.1,1.4-0.4
				c0.4-0.3,0.6-0.6,0.8-1h1.3c-0.2,0.7-0.6,1.3-1.2,1.8C148.2,60.8,147.5,61,146.5,61z M146.5,53.8c-0.6,0-1.2,0.2-1.7,0.6
				c-0.5,0.4-0.8,1-0.9,1.7h5c0-0.7-0.3-1.3-0.7-1.7C147.8,54,147.2,53.8,146.5,53.8z"/>
			<path class="st1" d="M24,82.8l-2.3-7.9H23l1.7,6.2l1.9-6.2h1.5l1.9,6.2l1.7-6.2h1.4l-2.3,7.9h-1.4l-2-6.5l-2,6.5H24z"/>
			<path class="st1" d="M34.5,82.8V71.3h1.3v4.9c0.3-0.5,0.7-0.9,1.1-1.1c0.5-0.3,1-0.4,1.6-0.4c0.9,0,1.6,0.3,2.2,0.9
				c0.5,0.6,0.8,1.5,0.8,2.6v4.6h-1.3v-4.5c0-1.6-0.7-2.5-2-2.5c-0.7,0-1.3,0.2-1.7,0.7c-0.5,0.5-0.7,1.2-0.7,2.1v4.1L34.5,82.8
				L34.5,82.8z"/>
			<path class="st1" d="M47.2,83c-0.8,0-1.4-0.2-2-0.5c-0.6-0.4-1.1-0.8-1.4-1.5c-0.3-0.6-0.5-1.3-0.5-2.2c0-0.8,0.2-1.6,0.5-2.2
				c0.3-0.6,0.8-1.1,1.4-1.5c0.6-0.4,1.3-0.5,2.1-0.5s1.4,0.2,2,0.5c0.6,0.4,1,0.8,1.3,1.4c0.3,0.6,0.5,1.2,0.5,1.8
				c0,0.1,0,0.2,0,0.4c0,0.1,0,0.2,0,0.4h-6.3c0,0.6,0.2,1.1,0.4,1.5s0.6,0.7,0.9,0.9c0.4,0.2,0.8,0.3,1.2,0.3c0.5,0,1-0.1,1.4-0.4
				c0.4-0.3,0.7-0.6,0.8-1h1.3c-0.2,0.7-0.6,1.3-1.2,1.8C48.9,82.8,48.1,83,47.2,83z M47.2,75.8c-0.6,0-1.2,0.2-1.7,0.6
				c-0.5,0.4-0.8,1-0.9,1.7h5c0-0.7-0.3-1.3-0.7-1.7C48.4,76,47.8,75.8,47.2,75.8z"/>
			<path class="st1" d="M52.7,82.8v-7.9h1.2l0.1,1.4c0.3-0.5,0.6-0.9,1.1-1.2s1-0.4,1.6-0.4c0.9,0,1.7,0.3,2.2,0.9
				c0.6,0.6,0.8,1.5,0.8,2.6v4.6h-1.3v-4.5c0-1.6-0.7-2.5-2.1-2.5c-0.7,0-1.2,0.2-1.7,0.7s-0.7,1.2-0.7,2.1v4.1L52.7,82.8L52.7,82.8
				z"/>
			<path class="st1" d="M67,86.3l2-4.3h-0.5l-3.2-7.2h1.5l2.6,6.2l2.8-6.2h1.4l-5.2,11.5H67z"/>
			<path class="st1" d="M77.9,83c-0.8,0-1.4-0.2-2-0.5s-1.1-0.8-1.4-1.5c-0.3-0.6-0.5-1.4-0.5-2.2s0.2-1.6,0.5-2.2s0.8-1.1,1.4-1.5
				s1.3-0.5,2-0.5s1.4,0.2,2,0.5s1.1,0.8,1.4,1.5c0.3,0.6,0.5,1.4,0.5,2.2s-0.2,1.6-0.5,2.2c-0.3,0.6-0.8,1.1-1.4,1.5
				C79.3,82.8,78.6,83,77.9,83z M77.9,81.8c0.5,0,0.9-0.1,1.3-0.3s0.7-0.6,1-1c0.2-0.4,0.4-1,0.4-1.7s-0.1-1.2-0.4-1.7
				c-0.2-0.4-0.6-0.8-0.9-1c-0.4-0.2-0.8-0.3-1.3-0.3s-0.9,0.1-1.3,0.3s-0.7,0.6-1,1c-0.2,0.4-0.4,1-0.4,1.7s0.1,1.2,0.4,1.7
				s0.6,0.8,0.9,1C77,81.7,77.4,81.8,77.9,81.8z"/>
			<path class="st1" d="M86.6,83c-0.9,0-1.7-0.3-2.2-0.9c-0.6-0.6-0.8-1.5-0.8-2.6v-4.6h1.3v4.5c0,1.7,0.7,2.5,2,2.5
				c0.7,0,1.3-0.2,1.7-0.7c0.5-0.5,0.7-1.2,0.7-2.1V75h1.3v7.9h-1.2l-0.1-1.4c-0.2,0.5-0.6,0.9-1.1,1.2C87.7,82.9,87.2,83,86.6,83z"
				/>
			<path class="st1" d="M92.3,75.2l0.9-3.6h1.5l-1.5,3.6H92.3z"/>
			<path class="st1" d="M96.3,82.8v-7.9h1.2l0.1,1.5c0.2-0.5,0.6-0.9,1.1-1.2s1.1-0.5,1.9-0.5v1.4h-0.4c-0.5,0-0.9,0.1-1.3,0.2
				c-0.4,0.2-0.7,0.5-0.9,0.8c-0.2,0.4-0.3,0.9-0.3,1.6v4L96.3,82.8L96.3,82.8z"/>
			<path class="st1" d="M105.3,83c-0.8,0-1.4-0.2-2-0.5c-0.6-0.4-1-0.8-1.4-1.5c-0.3-0.6-0.5-1.3-0.5-2.2c0-0.8,0.2-1.6,0.5-2.2
				s0.8-1.1,1.4-1.5s1.3-0.5,2.1-0.5c0.8,0,1.4,0.2,2,0.5s1,0.8,1.3,1.4c0.3,0.6,0.5,1.2,0.5,1.8c0,0.1,0,0.2,0,0.4
				c0,0.1,0,0.2,0,0.4h-6.4c0,0.6,0.2,1.1,0.4,1.5c0.2,0.4,0.6,0.7,0.9,0.9c0.4,0.2,0.8,0.3,1.2,0.3c0.5,0,1-0.1,1.4-0.4
				c0.4-0.3,0.6-0.6,0.8-1h1.3c-0.2,0.7-0.6,1.3-1.2,1.8C107.1,82.8,106.3,83,105.3,83z M105.3,75.8c-0.6,0-1.2,0.2-1.7,0.6
				c-0.5,0.4-0.8,1-0.9,1.7h5c0-0.7-0.3-1.3-0.7-1.7C106.6,76,106,75.8,105.3,75.8z"/>
			<path class="st1" d="M118.3,82.8c-0.7,0-1.3-0.2-1.7-0.5c-0.4-0.3-0.6-1-0.6-1.9V76h-1.4v-1.1h1.4l0.2-1.9h1.2v1.9h2.3V76h-2.3
				v4.4c0,0.5,0.1,0.8,0.3,1c0.2,0.2,0.6,0.3,1.1,0.3h0.8v1.1L118.3,82.8L118.3,82.8z"/>
			<path class="st1" d="M122.1,73.1c-0.3,0-0.5-0.1-0.7-0.3s-0.3-0.4-0.3-0.7s0.1-0.5,0.3-0.6c0.2-0.2,0.4-0.3,0.7-0.3
				c0.3,0,0.5,0.1,0.7,0.3s0.3,0.4,0.3,0.6c0,0.3-0.1,0.5-0.3,0.7C122.6,73,122.4,73.1,122.1,73.1z M121.5,82.8v-7.9h1.3v7.9H121.5z
				"/>
			<path class="st1" d="M125.1,82.8v-7.9h1.2l0.1,1.5c0.2-0.5,0.6-0.9,1.1-1.2s1.1-0.5,1.9-0.5v1.4H129c-0.5,0-0.9,0.1-1.3,0.2
				c-0.4,0.2-0.7,0.5-0.9,0.8c-0.2,0.4-0.4,0.9-0.4,1.6v4L125.1,82.8L125.1,82.8z"/>
			<path class="st1" d="M134.2,83c-0.8,0-1.4-0.2-2-0.5c-0.6-0.4-1-0.8-1.4-1.5c-0.3-0.6-0.5-1.3-0.5-2.2c0-0.8,0.2-1.6,0.5-2.2
				s0.8-1.1,1.4-1.5c0.6-0.4,1.3-0.5,2.1-0.5s1.4,0.2,2,0.5s1,0.8,1.3,1.4c0.3,0.6,0.4,1.2,0.4,1.8c0,0.1,0,0.2,0,0.4
				c0,0.1,0,0.2,0,0.4h-6.3c0,0.6,0.2,1.1,0.4,1.5s0.6,0.7,0.9,0.9c0.4,0.2,0.8,0.3,1.2,0.3c0.6,0,1-0.1,1.4-0.4
				c0.4-0.3,0.7-0.6,0.8-1h1.3c-0.2,0.7-0.6,1.3-1.2,1.8C135.9,82.8,135.2,83,134.2,83z M134.2,75.8c-0.6,0-1.2,0.2-1.7,0.6
				c-0.5,0.4-0.8,1-0.9,1.7h5c0-0.7-0.3-1.3-0.7-1.7C135.5,76,134.9,75.8,134.2,75.8z"/>
			<path class="st1" d="M143.3,83c-0.8,0-1.5-0.2-2.1-0.5c-0.6-0.4-1.1-0.9-1.4-1.5c-0.3-0.6-0.5-1.3-0.5-2.1s0.2-1.5,0.5-2.1
				s0.8-1.1,1.4-1.5c0.6-0.4,1.3-0.5,2.1-0.5c0.6,0,1.2,0.1,1.7,0.4c0.5,0.3,0.9,0.6,1.2,1.1v-4.9h1.3v11.5h-1.2l-0.1-1.3
				c-0.3,0.4-0.6,0.7-1.1,1S144.1,83,143.3,83z M143.5,81.8c0.5,0,1-0.1,1.4-0.4c0.4-0.2,0.7-0.6,1-1c0.2-0.5,0.3-1,0.3-1.6
				s-0.1-1.1-0.3-1.6s-0.6-0.8-1-1s-0.9-0.4-1.4-0.4s-1,0.1-1.4,0.4s-0.7,0.6-1,1c-0.2,0.5-0.3,1-0.3,1.6s0.1,1.1,0.3,1.6
				c0.2,0.4,0.6,0.8,1,1C142.5,81.7,143,81.8,143.5,81.8z"/>
			<path class="st1" d="M148.7,84.7l0.9-3.5h1.4l-1.4,3.5H148.7z"/>
			<path class="st1" d="M25.4,105c-1,0-1.7-0.2-2.4-0.7c-0.6-0.5-1-1.1-1.1-1.9h1.4c0.1,0.4,0.3,0.8,0.7,1.1
				c0.4,0.3,0.8,0.5,1.5,0.5c0.6,0,1-0.1,1.2-0.4s0.4-0.5,0.4-0.9c0-0.5-0.2-0.8-0.5-1c-0.4-0.2-0.8-0.3-1.5-0.4
				c-0.4-0.1-0.9-0.2-1.3-0.4s-0.8-0.4-1.1-0.7c-0.3-0.3-0.4-0.7-0.4-1.2c0-0.7,0.3-1.3,0.8-1.7c0.5-0.4,1.2-0.7,2.1-0.7
				c0.8,0,1.5,0.2,2.1,0.6c0.5,0.4,0.8,1,0.9,1.8h-1.3c0-0.4-0.2-0.7-0.5-0.9s-0.7-0.3-1.2-0.3s-0.8,0.1-1.1,0.3
				c-0.3,0.2-0.4,0.5-0.4,0.8s0.2,0.6,0.5,0.8c0.3,0.2,0.8,0.3,1.4,0.5c0.5,0.1,1,0.2,1.4,0.4c0.4,0.2,0.8,0.4,1.1,0.7
				c0.3,0.3,0.4,0.7,0.4,1.3c0,0.7-0.3,1.3-0.8,1.8C27.1,104.8,26.4,105,25.4,105z"/>
			<path class="st1" d="M33.2,104.8c-0.7,0-1.3-0.2-1.7-0.5c-0.4-0.3-0.6-1-0.6-1.9V98h-1.4v-1.1h1.3L31,95h1.2v1.9h2.3V98h-2.3v4.4
				c0,0.5,0.1,0.8,0.3,1s0.6,0.3,1.1,0.3h0.8v1.1H33.2z"/>
			<path class="st1" d="M36.2,104.8v-7.9h1.2l0.1,1.5c0.2-0.5,0.6-0.9,1.1-1.2s1.1-0.5,1.9-0.5v1.4h-0.4c-0.5,0-0.9,0.1-1.3,0.2
				c-0.4,0.2-0.7,0.5-0.9,0.8c-0.2,0.4-0.3,0.9-0.3,1.6v4h-1.4V104.8z"/>
			<path class="st1" d="M45.3,105c-0.8,0-1.4-0.2-2-0.5c-0.6-0.4-1-0.8-1.4-1.5c-0.3-0.6-0.5-1.3-0.5-2.2c0-0.8,0.2-1.6,0.5-2.2
				s0.8-1.1,1.4-1.5c0.6-0.4,1.3-0.5,2.1-0.5s1.4,0.2,2,0.5s1,0.8,1.3,1.4s0.4,1.2,0.4,1.8c0,0.1,0,0.2,0,0.4c0,0.1,0,0.2,0,0.4
				h-6.3c0,0.6,0.2,1.1,0.4,1.5s0.6,0.7,0.9,0.9c0.4,0.2,0.8,0.3,1.2,0.3c0.5,0,1-0.1,1.4-0.4s0.7-0.6,0.8-1h1.3
				c-0.2,0.7-0.6,1.3-1.2,1.8C47,104.8,46.2,105,45.3,105z M45.3,97.8c-0.6,0-1.2,0.2-1.7,0.6s-0.8,1-0.9,1.7h5
				c0-0.7-0.3-1.3-0.7-1.7C46.5,98,46,97.8,45.3,97.8z"/>
			<path class="st1" d="M53.9,105c-1,0-1.7-0.2-2.4-0.7c-0.6-0.5-1-1.1-1.1-1.9h1.4c0.1,0.4,0.3,0.8,0.7,1.1
				c0.3,0.3,0.8,0.5,1.4,0.5c0.6,0,1-0.1,1.2-0.4c0.3-0.2,0.4-0.5,0.4-0.9c0-0.5-0.2-0.8-0.5-1c-0.4-0.2-0.8-0.3-1.5-0.4
				c-0.4-0.1-0.8-0.2-1.3-0.4s-0.8-0.4-1.1-0.7c-0.3-0.3-0.4-0.7-0.4-1.2c0-0.7,0.3-1.3,0.8-1.7c0.5-0.4,1.2-0.7,2.1-0.7
				c0.8,0,1.5,0.2,2.1,0.6c0.5,0.4,0.8,1,0.9,1.8h-1.3c-0.1-0.4-0.2-0.7-0.5-0.9s-0.7-0.3-1.2-0.3s-0.8,0.1-1.1,0.3
				c-0.3,0.2-0.4,0.5-0.4,0.8s0.2,0.6,0.5,0.8c0.3,0.2,0.8,0.3,1.4,0.5c0.5,0.1,1,0.2,1.4,0.4c0.4,0.2,0.8,0.4,1.1,0.7
				c0.3,0.3,0.4,0.7,0.4,1.3c0,0.7-0.3,1.3-0.8,1.8C55.6,104.8,54.8,105,53.9,105z"/>
			<path class="st1" d="M61.9,105c-1,0-1.7-0.2-2.4-0.7c-0.6-0.5-1-1.1-1.1-1.9h1.4c0.1,0.4,0.3,0.8,0.7,1.1
				c0.3,0.3,0.8,0.5,1.4,0.5c0.6,0,1-0.1,1.2-0.4c0.3-0.2,0.4-0.5,0.4-0.9c0-0.5-0.2-0.8-0.5-1c-0.4-0.2-0.8-0.3-1.5-0.4
				c-0.4-0.1-0.8-0.2-1.3-0.4s-0.8-0.4-1.1-0.7c-0.3-0.3-0.4-0.7-0.4-1.2c0-0.7,0.3-1.3,0.8-1.7c0.5-0.4,1.2-0.7,2.1-0.7
				c0.8,0,1.5,0.2,2.1,0.6c0.5,0.4,0.8,1,0.9,1.8h-1.3c-0.1-0.4-0.2-0.7-0.5-0.9s-0.7-0.3-1.2-0.3s-0.8,0.1-1.1,0.3
				c-0.3,0.2-0.4,0.5-0.4,0.8s0.2,0.6,0.5,0.8c0.3,0.2,0.8,0.3,1.4,0.5c0.5,0.1,1,0.2,1.4,0.4c0.4,0.2,0.8,0.4,1.1,0.7
				c0.3,0.3,0.4,0.7,0.4,1.3c0,0.7-0.3,1.3-0.8,1.8C63.6,104.8,62.8,105,61.9,105z"/>
			<path class="st1" d="M70.4,105c-0.8,0-1.4-0.2-2-0.5c-0.6-0.4-1-0.8-1.4-1.5c-0.3-0.6-0.5-1.3-0.5-2.2c0-0.8,0.2-1.6,0.5-2.2
				s0.8-1.1,1.4-1.5s1.3-0.5,2.1-0.5c0.8,0,1.4,0.2,2,0.5s1,0.8,1.3,1.4s0.4,1.2,0.4,1.8c0,0.1,0,0.2,0,0.4c0,0.1,0,0.2,0,0.4h-6.4
				c0,0.6,0.2,1.1,0.4,1.5c0.2,0.4,0.6,0.7,0.9,0.9c0.4,0.2,0.8,0.3,1.2,0.3c0.6,0,1-0.1,1.4-0.4s0.7-0.6,0.8-1h1.3
				c-0.2,0.7-0.6,1.3-1.2,1.8C72.1,104.8,71.3,105,70.4,105z M70.4,97.8c-0.6,0-1.2,0.2-1.7,0.6s-0.8,1-0.9,1.7h5
				c0-0.7-0.3-1.3-0.7-1.7C71.6,98,71.1,97.8,70.4,97.8z"/>
			<path class="st1" d="M79.5,105c-0.8,0-1.5-0.2-2.1-0.5c-0.6-0.4-1.1-0.9-1.4-1.5s-0.5-1.3-0.5-2.1c0-0.8,0.2-1.5,0.5-2.1
				s0.8-1.1,1.4-1.5s1.3-0.5,2.1-0.5c0.7,0,1.2,0.1,1.7,0.4s0.9,0.6,1.2,1.1v-4.9h1.4v11.5h-1.2l-0.1-1.3c-0.3,0.4-0.6,0.7-1.1,1
				C80.9,104.8,80.3,105,79.5,105z M79.7,103.8c0.5,0,1-0.1,1.4-0.4c0.4-0.2,0.7-0.6,1-1c0.2-0.5,0.3-1,0.3-1.6s-0.1-1.1-0.3-1.6
				c-0.2-0.5-0.5-0.8-1-1c-0.4-0.2-0.9-0.4-1.4-0.4s-1,0.1-1.4,0.4c-0.4,0.2-0.7,0.6-1,1c-0.2,0.5-0.3,1-0.3,1.6s0.1,1.1,0.3,1.6
				c0.2,0.4,0.6,0.8,1,1C78.7,103.7,79.2,103.8,79.7,103.8z"/>
			<path class="st1" d="M92.9,105c-0.7,0-1.2-0.1-1.7-0.3c-0.4-0.2-0.8-0.5-1-0.9s-0.3-0.8-0.3-1.2c0-0.8,0.3-1.4,0.9-1.9
				c0.6-0.4,1.5-0.7,2.5-0.7h2.1v-0.1c0-0.7-0.2-1.2-0.5-1.6c-0.4-0.4-0.8-0.5-1.5-0.5c-0.5,0-1,0.1-1.3,0.4
				c-0.4,0.3-0.6,0.6-0.7,1.1H90c0.1-0.6,0.2-1.1,0.6-1.5c0.3-0.4,0.8-0.7,1.3-0.9c0.5-0.2,1-0.3,1.6-0.3c1.1,0,1.9,0.3,2.5,0.9
				s0.8,1.4,0.8,2.4v4.9h-1.2l-0.1-1.4c-0.2,0.4-0.5,0.8-1,1.1C94.2,104.8,93.6,105,92.9,105z M93.1,103.9c0.5,0,1-0.1,1.3-0.4
				c0.4-0.3,0.7-0.6,0.8-1c0.2-0.4,0.3-0.9,0.3-1.3l0,0h-2c-0.8,0-1.3,0.1-1.7,0.4c-0.3,0.3-0.5,0.6-0.5,1s0.2,0.8,0.5,1
				C92.1,103.7,92.5,103.9,93.1,103.9z"/>
			<path class="st1" d="M98.9,104.8v-7.9h1.2l0.1,1.4c0.3-0.5,0.6-0.9,1.1-1.2c0.5-0.3,1-0.4,1.6-0.4c0.9,0,1.7,0.3,2.2,0.9
				c0.6,0.6,0.8,1.5,0.8,2.6v4.6h-1.3v-4.5c0-1.6-0.7-2.5-2.1-2.5c-0.7,0-1.2,0.2-1.7,0.7s-0.7,1.2-0.7,2.1v4.1L98.9,104.8
				L98.9,104.8z"/>
			<path class="st1" d="M111.6,105c-0.8,0-1.5-0.2-2.1-0.5c-0.6-0.4-1.1-0.9-1.4-1.5s-0.5-1.3-0.5-2.1c0-0.8,0.2-1.5,0.5-2.1
				s0.8-1.1,1.4-1.5s1.3-0.5,2.1-0.5c0.6,0,1.2,0.1,1.7,0.4s0.9,0.6,1.2,1.1v-4.9h1.3v11.5h-1.2l-0.1-1.3c-0.3,0.4-0.6,0.7-1.1,1
				C113,104.8,112.4,105,111.6,105z M111.8,103.8c0.5,0,1-0.1,1.4-0.4s0.7-0.6,1-1c0.2-0.5,0.3-1,0.3-1.6s-0.1-1.1-0.3-1.6
				c-0.2-0.5-0.5-0.8-1-1s-0.9-0.4-1.4-0.4s-1,0.1-1.4,0.4s-0.7,0.6-1,1c-0.2,0.5-0.3,1-0.3,1.6s0.1,1.1,0.3,1.6
				c0.2,0.4,0.5,0.8,1,1C110.8,103.7,111.3,103.8,111.8,103.8z"/>
			<path class="st1" d="M25,165.8c-0.7,0-1.2-0.1-1.7-0.3c-0.4-0.2-0.8-0.5-1-0.9s-0.3-0.8-0.3-1.2c0-0.8,0.3-1.4,0.9-1.9
				c0.6-0.4,1.5-0.7,2.5-0.7h2.1v-0.1c0-0.7-0.2-1.2-0.5-1.6c-0.4-0.4-0.8-0.5-1.5-0.5c-0.5,0-1,0.1-1.3,0.4
				c-0.4,0.3-0.6,0.6-0.7,1.1h-1.4c0-0.6,0.2-1.1,0.6-1.5c0.3-0.4,0.8-0.7,1.3-0.9c0.5-0.2,1-0.3,1.6-0.3c1.1,0,1.9,0.3,2.5,0.9
				s0.8,1.4,0.8,2.4v4.9h-1.1l-0.1-1.4c-0.2,0.4-0.5,0.8-1,1.1C26.3,165.7,25.8,165.8,25,165.8z M25.2,164.7c0.5,0,1-0.1,1.3-0.4
				c0.4-0.3,0.7-0.6,0.8-1c0.2-0.4,0.3-0.9,0.3-1.3l0,0h-2c-0.8,0-1.4,0.1-1.7,0.4c-0.3,0.3-0.5,0.6-0.5,1s0.1,0.8,0.5,1
				C24.3,164.6,24.7,164.7,25.2,164.7z"/>
			<path class="st1" d="M35.3,165.7v-11.5h1.3v11.5H35.3z"/>
			<path class="st1" d="M42.5,165.8c-0.8,0-1.4-0.2-2-0.5s-1.1-0.8-1.4-1.4c-0.4-0.6-0.5-1.4-0.5-2.2s0.2-1.6,0.5-2.2
				c0.4-0.6,0.8-1.1,1.4-1.5c0.6-0.3,1.3-0.5,2-0.5s1.4,0.2,2,0.5s1.1,0.8,1.4,1.5c0.3,0.6,0.5,1.4,0.5,2.2s-0.2,1.6-0.5,2.2
				s-0.8,1.1-1.4,1.4C43.9,165.7,43.2,165.8,42.5,165.8z M42.5,164.7c0.5,0,0.9-0.1,1.3-0.3c0.4-0.2,0.7-0.6,1-1
				c0.2-0.4,0.4-1,0.4-1.7s-0.1-1.2-0.4-1.7c-0.2-0.4-0.6-0.8-1-1s-0.8-0.3-1.3-0.3s-0.9,0.1-1.3,0.3c-0.4,0.2-0.7,0.6-1,1
				c-0.2,0.5-0.4,1-0.4,1.7s0.1,1.2,0.4,1.7s0.6,0.8,1,1C41.6,164.6,42,164.7,42.5,164.7z"/>
			<path class="st1" d="M51.1,165.7c-0.7,0-1.3-0.2-1.7-0.5c-0.4-0.4-0.6-1-0.6-1.9v-4.4h-1.4v-1.1h1.4l0.2-1.9h1.2v1.9h2.3v1.1
				h-2.3v4.4c0,0.5,0.1,0.8,0.3,1s0.6,0.3,1.1,0.3h0.8v1.1H51.1z"/>
			<path class="st1" d="M54.6,165.7c-0.3,0-0.5-0.1-0.7-0.3s-0.3-0.4-0.3-0.6c0-0.3,0.1-0.5,0.3-0.6c0.2-0.2,0.4-0.3,0.7-0.3
				s0.5,0.1,0.7,0.3c0.2,0.2,0.3,0.4,0.3,0.6c0,0.3-0.1,0.5-0.3,0.6S54.9,165.7,54.6,165.7z"/>
			<path class="st2" d="M25.3,117.3c0.1-0.1,0.6-0.2,1.3-0.2c1.4,0,2.8,0.2,4.1,0.5c0.7,0.2,1.1,0.4,1.4,0.7
				c0.2,0.2,0.4,0.7,0.4,1.3c0,0.5,0,1.1-0.1,1.8c-0.1,0.4-0.1,1.5-0.1,3c0,4,0.2,8.4,0.7,13.3c0.1,0.9,0.2,1.7,0.2,2.4
				c0,2-0.4,3.2-1.3,3.8c-0.5,0.3-1,0.5-1.5,0.5c-0.4,0-1.1-0.2-2.2-0.5c-1-0.4-1.8-0.7-2.2-0.9c-0.4-0.2-0.6-0.5-0.6-0.9
				c0-0.3,0.2-0.6,0.5-0.9c0.3-0.2,0.7-0.4,1.2-0.4c0.2,0,0.4,0,0.5,0c0.4,0.1,0.7,0.1,0.8,0c0.1,0,0.2-0.2,0.3-0.5
				c0-0.1,0-0.3,0-0.6c0-0.3,0-0.8-0.1-1.4c-0.1-0.8-0.2-3.5-0.3-8c-0.1-4.5-0.2-7-0.2-7.5c-0.1-1.1-0.1-1.8-0.2-2.1
				c-0.1-0.2-0.4-0.4-0.8-0.6c-1.3-0.6-1.9-1.3-1.9-2.2C25,117.8,25.1,117.5,25.3,117.3z"/>
			<path class="st2" d="M38.5,116.3c0.4-0.3,0.9-0.5,1.6-0.5c0.7,0,1.3,0.2,1.8,0.6l0.7,0.6l0.1,6.2c0.1,7.2,0.3,12.1,0.7,14.8
				c0.1,0.5,0.2,0.8,0.3,0.8c0.3,0,0.6-1,0.8-3.1c0.4-4.3,0.7-8.6,0.7-12.8v-1.1v-0.7c0-2.3,0.3-3.6,0.8-4c0.2-0.1,0.5-0.2,1-0.2
				c0.9,0,1.6,0.2,2,0.5c0.5,0.5,0.8,1.9,0.8,4.1c0,1.9-0.2,5.3-0.5,10.4c-0.2,4.2-0.7,7.2-1.3,9c-0.7,1.8-1.7,2.9-3.2,3.4
				c-0.6,0.2-1,0.3-1.2,0.3s-0.8-0.2-1.7-0.6c-1.9-0.9-2.9-2.2-3.1-4.2c-0.2-1.7-0.4-7.1-0.6-16.3c0-1.4,0-2.8,0-4.4
				c0-1,0-1.7,0.1-2C38.2,116.7,38.3,116.5,38.5,116.3z"/>
			<path class="st2" d="M57,118.4c0-0.2,0.2-0.5,0.5-0.7c0.4-0.2,0.8-0.4,1.2-0.6c0.5-0.2,0.8-0.4,0.9-0.5c0.1-0.2,0.3-0.3,0.6-0.3
				s0.8,0.2,1.5,0.7c0.8,0.5,1.2,1,1.3,1.4c0,0.1,0.1,0.2,0.1,0.3c0,0.3-0.5,0.7-1.4,1.1c-1,0.4-1.7,0.9-1.9,1.4
				c-0.5,1-0.8,3.4-0.8,7.3c0,1.3,0,2.3,0.1,2.9c0.4,4.5,0.7,6.9,1,7.4v0.1c0.3,0,0.5-1.2,0.5-3.8c0.1-1.4,0.2-2.3,0.3-2.7
				c0.2-0.6,0.1-1.1-0.2-1.4c-0.4-0.5-0.6-0.9-0.6-1.3c0-0.3,0.1-0.6,0.4-1c0.4-0.4,1.2-0.6,2.3-0.6c0.8,0,1.3,0,1.6,0.1
				s0.5,0.3,0.8,0.5c0.3,0.4,0.5,0.9,0.5,1.4s-0.1,1.2-0.2,2c-0.2,1.2-0.4,2.9-0.5,5c-0.2,2.4-0.4,4-0.8,4.7
				c-0.4,0.9-0.8,1.4-1.1,1.7c-0.3,0.3-0.9,0.6-1.7,0.8c-0.5,0.2-1,0.2-1.5,0.2c-0.6,0-1.2-0.3-1.9-0.8c-0.8-0.6-1.5-2.2-2-4.8
				c-0.1-0.5-0.2-0.9-0.4-1.2c-0.1-0.1-0.1-0.6-0.2-1.4c0-0.4-0.1-2.7-0.2-6.8L55,124l0.7-2.3c0.5-1.5,0.8-2.4,1.1-2.7
				C56.9,118.8,57,118.6,57,118.4z"/>
			<path class="st2" d="M73.2,118.4c0-0.2,0.2-0.5,0.5-0.7c0.4-0.2,0.8-0.4,1.2-0.6c0.5-0.2,0.8-0.4,0.9-0.5
				c0.1-0.2,0.3-0.3,0.6-0.3c0.3,0,0.8,0.2,1.5,0.7c0.8,0.5,1.2,1,1.3,1.4c0,0.1,0.1,0.2,0.1,0.3c0,0.3-0.5,0.7-1.4,1.1
				c-1,0.4-1.7,0.9-1.9,1.4c-0.5,1-0.8,3.4-0.8,7.3c0,1.3,0,2.3,0.1,2.9c0.4,4.5,0.7,6.9,1,7.4l0.1,0.1c0.3,0,0.5-1.2,0.5-3.8
				c0.1-1.4,0.2-2.3,0.3-2.7c0.2-0.6,0.1-1.1-0.2-1.4c-0.4-0.5-0.6-0.9-0.6-1.3c0-0.3,0.1-0.6,0.4-1c0.4-0.4,1.2-0.6,2.3-0.6
				c0.8,0,1.3,0,1.6,0.1c0.3,0.1,0.5,0.3,0.8,0.5c0.3,0.4,0.5,0.9,0.5,1.4s-0.1,1.2-0.2,2c-0.2,1.2-0.4,2.9-0.5,5
				c-0.2,2.4-0.4,4-0.8,4.7c-0.4,0.9-0.8,1.4-1.1,1.7c-0.3,0.3-0.9,0.6-1.6,0.8c-0.5,0.2-1,0.2-1.5,0.2c-0.6,0-1.2-0.3-1.9-0.8
				c-0.8-0.6-1.5-2.2-2-4.8c-0.1-0.5-0.2-0.9-0.4-1.2c-0.1-0.1-0.1-0.6-0.2-1.4c0-0.4-0.1-2.7-0.2-6.8l-0.2-5.5l0.7-2.3
				c0.5-1.5,0.8-2.4,1.1-2.7C73.1,118.8,73.2,118.6,73.2,118.4z"/>
			<path class="st2" d="M87.5,117.5c0.3-0.3,0.6-0.5,1-0.5c0.3,0,0.6,0,0.8,0.1c0.8,0.1,1.3,0.3,1.5,0.6c0.4,0.5,0.6,3.6,0.6,9.2v3
				v2.7c0,4.5,0,6.9,0.2,7.2c0.1,0.6,0.7,0.9,1.7,0.9c0.5,0,0.9,0,1.2,0c0.3,0,0.6,0,1,0c0.6,0,1.1,0.1,1.3,0.3s0.4,0.6,0.4,1.1
				c0,0.4-0.1,0.6-0.2,0.8c-0.1,0.2-0.5,0.5-1,0.8c-0.9,0.5-1.9,0.8-2.9,0.8c-1.4,0.1-2.2,0.1-2.2,0.1c-0.1,0-0.2,0-0.4,0
				c-0.4,0-0.9-0.1-1.4-0.4c-0.5-0.2-0.9-0.5-1.2-0.8c-0.5-0.6-0.8-2.4-0.8-5.2c0-0.7,0.1-2,0.2-4c0.1-1.8,0.1-3.7,0.1-5.7
				c0-4.9-0.1-8-0.2-9.2c-0.1-0.5-0.1-0.8-0.1-0.9C87,118.1,87.1,117.8,87.5,117.5z"/>
			<path class="st2" d="M103,118.1c0.4-0.4,0.9-0.7,1.6-0.7c0.6,0,1.1,0.2,1.5,0.7l0.7,0.7l0.3,11.5c0.2,6.3,0.2,10,0.2,10.9
				c0,0.5,0,0.9,0,1.2s0,0.6-0.1,0.8c0,0.2-0.1,0.4-0.1,0.5c-0.1,0.1-0.1,0.2-0.1,0.2s-0.1,0.1-0.2,0.1c-0.1,0.1-0.2,0.1-0.3,0.2
				c-0.4,0.2-0.7,0.4-0.9,0.4c-0.1,0-0.4-0.1-1-0.2c-0.8-0.3-1.3-0.6-1.4-0.9c-0.1-0.2-0.2-4.2-0.3-12.2c-0.1-8-0.2-12-0.2-12.1
				C102.4,118.8,102.6,118.5,103,118.1z"/>
			<path class="st2" d="M113.7,116.7c0.5-0.2,1-0.4,1.5-0.4c1,0,1.7,0.6,2,1.9c0.3,1,0.7,2,1.2,3.1s0.9,2,1.1,2.6
				c0.3,1.1,0.6,1.8,0.9,2.1c0.1,0.1,0.2,0.2,0.2,0.2c0.1,0,0.3-0.7,0.4-2.2c0.1-1.4,0.1-2.3,0.1-2.7v-0.6c0-0.3,0-0.6,0-1
				c0-0.9,0.2-1.5,0.7-2c0.4-0.5,1-0.8,1.9-0.8c0.6,0,1.1,0.2,1.5,0.5c0.3,0.3,0.5,0.7,0.5,1.2c0,0.6,0,1.2-0.1,1.8
				c-0.1,0.6-0.1,4.7-0.2,12.3c0,4.8-0.1,7.6-0.1,8.6s-0.2,1.6-0.4,1.8c-0.3,0.4-0.9,0.6-1.6,0.6c-1.4,0-2.3-0.7-2.6-2.1
				c-0.1-0.5-0.4-1.6-1-3c-0.5-1.4-0.8-2.6-1-3.6c-0.3-1.4-0.8-3.2-1.5-5.6c-0.1-0.2-0.1-0.3-0.2-0.3c-0.2,0-0.2,1.4-0.2,4.2v2.4
				v2.6c0,2.7-0.1,4.3-0.2,4.7c-0.3,1-1.1,1.5-2.1,1.5c-0.6,0-1.2-0.2-1.6-0.7c-0.3-0.3-0.5-0.7-0.5-1c0-0.1,0-0.4,0.1-0.9
				c0.2-1.1,0.2-5.2,0.2-12.2c0-7.8,0.1-12,0.2-12.4c0.1-0.3,0.2-0.5,0.6-0.6C113.5,116.7,113.6,116.7,113.7,116.7z"/>
			<path class="st2" d="M133,118.4c0-0.2,0.2-0.5,0.5-0.7c0.4-0.2,0.8-0.4,1.2-0.6c0.5-0.2,0.8-0.4,0.9-0.5c0.1-0.2,0.3-0.3,0.6-0.3
				s0.8,0.2,1.5,0.7c0.8,0.5,1.2,1,1.3,1.4c0,0.1,0.1,0.2,0.1,0.3c0,0.3-0.5,0.7-1.4,1.1c-1,0.4-1.7,0.9-1.9,1.4
				c-0.5,1-0.8,3.4-0.8,7.3c0,1.3,0,2.3,0.1,2.9c0.4,4.5,0.7,6.9,1,7.4l0.1,0.1c0.3,0,0.5-1.2,0.5-3.8c0.1-1.4,0.2-2.3,0.3-2.7
				c0.2-0.6,0.1-1.1-0.2-1.4c-0.4-0.5-0.6-0.9-0.6-1.3c0-0.3,0.1-0.6,0.4-1c0.4-0.4,1.1-0.6,2.3-0.6c0.8,0,1.3,0,1.6,0.1
				s0.5,0.3,0.8,0.5c0.3,0.4,0.5,0.9,0.5,1.4s-0.1,1.2-0.2,2c-0.2,1.2-0.4,2.9-0.5,5c-0.2,2.4-0.4,4-0.8,4.7
				c-0.4,0.9-0.8,1.4-1.1,1.7c-0.3,0.3-0.9,0.6-1.6,0.8c-0.5,0.2-1,0.2-1.5,0.2c-0.6,0-1.2-0.3-1.9-0.8c-0.9-0.6-1.5-2.2-2-4.8
				c-0.1-0.5-0.2-0.9-0.4-1.2c-0.1-0.1-0.1-0.6-0.2-1.4c0-0.4-0.1-2.7-0.2-6.8l-0.2-5.5l0.7-2.3c0.5-1.5,0.8-2.4,1.1-2.7
				C132.9,118.8,133,118.6,133,118.4z"/>
			<path class="st2" d="M239.4,51.6l0.1,0.4l0.3,1.3l32.7-7.2l-0.3-1.3l-0.1-0.4l-0.3-1.3l-32.7,7.3L239.4,51.6z"/>
			<path class="st3" d="M209.2,53.4c-0.1,0.1-0.3,0.3-0.4,0.4l2,9.1c0.2,0.1,0.3,0.2,0.5,0.2l8.6,1.2c1.2,0.2,2.5-0.1,3.6-0.7
				c4.4-2.6,16.1-9.7,17.3-10.2l0.1-0.1l-0.8-3.5c0-0.1-0.1-0.1-0.1-0.1c-1.2,0.1-14.8-1.4-19.9-1.9c-1.2-0.1-2.5,0.2-3.5,0.9
				L209.2,53.4z"/>
			<path class="st2" d="M209.3,53.3l2.2,9.9l-1.2-0.1c-0.1,0-0.2-0.1-0.2-0.2l-1.9-8.6c0-0.1,0-0.2,0.1-0.2L209.3,53.3z"/>
			<path class="st3" d="M272,40.9l1.6,7.1c0.1,0.3-0.1,0.6-0.4,0.7l-0.9,0.2c-0.3,0.1-0.6-0.1-0.7-0.4l-1.6-7.1
				c-0.1-0.3,0.1-0.6,0.4-0.7l0.9-0.2C271.6,40.4,271.9,40.6,272,40.9z"/>
			<path class="st2" d="M193.7,85.4l0.3-0.3l1-0.9L171.8,60l-1,0.9l-0.3,0.3l-1,0.9l23.1,24.3L193.7,85.4z"/>
			<path class="st3" d="M210.9,110.4c0.2,0.1,0.4,0.1,0.6,0.1l6.8-6.4c0-0.2,0-0.4-0.1-0.6l-3.4-8c-0.5-1.1-1.4-2.1-2.5-2.7
				c-4.5-2.4-16.7-8.8-17.6-9.5c-0.1,0-0.1,0-0.1,0l-2.6,2.5c0,0-0.1,0.1,0,0.2c0.7,1,6.5,13.4,8.7,18.1c0.5,1.1,1.4,2.1,2.6,2.6
				L210.9,110.4z"/>
			<path class="st2" d="M210.7,110.3l7.4-7l0.5,1.1c0,0.1,0,0.2-0.1,0.3l-6.4,6.1c-0.1,0.1-0.2,0.1-0.3,0L210.7,110.3z"/>
			<path class="st3" d="M167.7,63.1l5.3-5c0.2-0.2,0.6-0.2,0.8,0l0.6,0.7c0.2,0.2,0.2,0.6,0,0.8l-5.3,5c-0.2,0.2-0.6,0.2-0.8,0
				l-0.6-0.7C167.5,63.7,167.5,63.4,167.7,63.1z"/>
			<path class="st4" d="M297.8,118.8l-2.2,14.8l-6.5,3.6l2.9-19.3c0.2-1.2,1.6-2,3.3-1.8C296.9,116.4,298,117.6,297.8,118.8z"/>
			<path class="st4" d="M305.1,114l-2.2,14.8l-6.5,3.6l2.9-19.3c0.2-1.2,1.6-2,3.3-1.8C304.1,111.6,305.3,112.7,305.1,114z"/>
			<path class="st2" d="M291.2,96.2h-0.4h-1.4l0.4,36h1.4h0.4h1.4l-0.4-35.9L291.2,96.2z"/>
			<path class="st3" d="M296,64.1c-0.1-0.2-0.2-0.3-0.4-0.5l-10,0.1c-0.1,0.2-0.3,0.3-0.4,0.5L282,73c-0.5,1.3-0.5,2.6,0,3.9
				c1.8,5.2,6.6,19.1,6.9,20.4c0,0.1,0.1,0.1,0.1,0.1h3.8c0.1,0,0.1,0,0.1-0.1c0.2-1.3,4.7-15.3,6.4-20.5c0.4-1.3,0.4-2.7-0.1-3.9
				L296,64.1z"/>
			<path class="st2" d="M296.1,64.3l-10.9,0.1l0.4-1.2c0-0.1,0.1-0.2,0.2-0.2l9.5-0.1c0.1,0,0.2,0.1,0.2,0.1L296.1,64.3z"/>
			<path class="st3" d="M295.3,132.8l-7.9,0.1c-0.3,0-0.6-0.3-0.6-0.6v-1.1c0-0.3,0.3-0.6,0.6-0.6l7.9-0.1c0.3,0,0.6,0.3,0.6,0.6
				v1.1C295.9,132.5,295.6,132.8,295.3,132.8z"/>
			<path class="st4" d="M313.5,110.6c-0.7,6-1.7,11.5-2.2,14.1c-0.2,1.1-0.6,2-1.3,2.9c-1.6,2.2-5.2,7-9.2,12.8
				c-2.4,3.4-5.6,6.2-9.3,8.1l-11.2,5.7c-1.7,0.6-1.4,4.8-1.9,6.2l-15.7-2.3c1.6-5.4,0.5-19.9,7.1-22.4c1.6-0.5,9.5-6.3,13.7-9.2
				c1.1-0.8,2.6-0.7,3.6,0.2c1.4,1.2,1.3,3.4-0.1,4.5l-4.2,3.2c-1.2,0.9-1,2.9,0.4,3.5c0,0,1.5,0.2,2.1-0.2l18.9-13.8
				c0.4-2.7,1.8-9.5,2.4-14.2c0.2-1.9,2-3.2,3.8-3C312.3,107,313.7,108.7,313.5,110.6z"/>
			<path class="st4" d="M177.9,122.7l2.1,14.8l6.5,3.7l-2.8-19.3c-0.2-1.2-1.6-2.1-3.2-1.8C178.9,120.3,177.7,121.5,177.9,122.7z"/>
			<path class="st4" d="M185.1,127.6l2.1,14.8l6.5,3.7l-2.8-19.3c-0.2-1.2-1.6-2-3.2-1.8C186.1,125.2,185,126.4,185.1,127.6z"/>
			<path class="st4" d="M202.4,163.1c0.8,0.3,1.2,1.5,1.4,2.7h16c-1.1-6.1-0.5-18.9-6.7-21.2c-1.6-0.5-9.5-6.3-13.6-9.3
				c-1.1-0.8-2.6-0.7-3.6,0.2c-1.4,1.2-1.4,3.4,0.1,4.5l4.1,3.3c1.2,1,1,2.9-0.4,3.5c0,0-1.5,0.2-2.1-0.2l-18.8-13.9
				c-0.4-2.7-1.8-9.5-2.3-14.2c-0.2-1.9-1.9-3.2-3.8-3c-1.9,0.2-3.3,1.9-3.1,3.9c0.7,6,1.6,11.5,2.1,14.2c0.2,1.1,0.6,2.1,1.2,2.9
				c1.6,2.2,5.1,7,9.2,12.8c2.4,3.4,5.6,6.2,9.3,8.2L202.4,163.1z"/>
		</g>
	</g>
</g>
</svg>
