<?xml version="1.0" encoding="utf-8"?>
<!-- Generator: Adobe Illustrator 25.1.0, SVG Export Plug-In . SVG Version: 6.00 Build 0)  -->
<svg version="1.1" id="Layer_1" xmlns="http://www.w3.org/2000/svg" xmlns:xlink="http://www.w3.org/1999/xlink" x="0px" y="0px"
	 viewBox="0 0 333.9 291" style="enable-background:new 0 0 333.9 291;" xml:space="preserve">
<style type="text/css">
	.st0{fill:#FFFFFF;}
	.st1{fill:#808080;}
	.st2{fill:#00A878;}
	.st3{fill:#32DCD2;}
	.st4{fill:#00CDDC;}
	.st5{fill:none;stroke:#FFFFFF;stroke-width:1.3058;stroke-linecap:round;stroke-miterlimit:10;}
	.st6{fill:none;stroke:#00A878;stroke-width:1.7274;stroke-linecap:round;stroke-miterlimit:10;}
	.st7{fill:none;stroke:#00A878;stroke-width:1.7274;stroke-miterlimit:10;}
	.st8{fill:#BFF2F6;}
	.st9{fill:none;stroke:#FFFFFF;stroke-width:1.0597;stroke-linecap:round;stroke-miterlimit:10;}
	.st10{fill:none;stroke:#BFBFBF;stroke-width:1.5055;stroke-miterlimit:10;}
	.st11{fill:none;stroke:#BFBFBF;stroke-width:1.5055;stroke-miterlimit:10;stroke-dasharray:3.02,3.02;}
</style>
<g>
	<g>
		<g>
			<path class="st0" d="M333.9,206.9C333.9,60.3,334.7,0,300.3,0C272,0,123.7,0.5,89,1.3C54.9,2.1,8.7,3.4,3.6,22.7
				c-8.1,30.1,0,25.2,0,80.4C3.6,190-3,220.5,32,231.5c22.5,7.1,48-3.1,100.3-4.5c30.5-0.8,39.8,64,109,64
				C285.6,290.9,333.9,295.4,333.9,206.9z"/>
			<path class="st1" d="M33.9,42.9c-0.8,0-1.5-0.1-2.1-0.5c-0.6-0.3-1.1-0.7-1.4-1.2s-0.5-1.1-0.5-1.9h1.4c0,0.4,0.1,0.8,0.3,1.2
				c0.2,0.4,0.5,0.7,0.9,0.9c0.4,0.2,0.9,0.3,1.4,0.3c0.8,0,1.3-0.2,1.8-0.5c0.4-0.4,0.6-0.8,0.6-1.4c0-0.4-0.1-0.8-0.3-1.1
				c-0.2-0.3-0.5-0.5-0.8-0.7s-0.7-0.3-1.1-0.5c-0.4-0.1-0.9-0.3-1.3-0.4c-0.9-0.3-1.5-0.7-1.9-1.1s-0.6-1-0.6-1.7
				c0-0.6,0.1-1.1,0.4-1.6s0.7-0.8,1.2-1.1c0.5-0.3,1.2-0.4,1.9-0.4s1.3,0.1,1.9,0.4c0.5,0.3,0.9,0.6,1.2,1.1s0.4,1,0.5,1.6H36
				c0-0.3-0.1-0.6-0.2-0.9c-0.2-0.3-0.4-0.6-0.7-0.7c-0.3-0.2-0.7-0.3-1.2-0.3c-0.6,0-1.1,0.1-1.5,0.5c-0.4,0.3-0.6,0.8-0.6,1.3
				s0.1,0.9,0.4,1.1c0.3,0.3,0.7,0.5,1.1,0.6c0.5,0.2,1.1,0.4,1.7,0.6c0.5,0.2,1,0.4,1.4,0.7c0.4,0.3,0.8,0.6,1,1s0.4,0.9,0.4,1.5
				c0,0.5-0.1,1-0.4,1.5c-0.3,0.5-0.7,0.9-1.3,1.2C35.4,42.7,34.7,42.9,33.9,42.9z"/>
			<path class="st1" d="M43,42.9c-0.8,0-1.4-0.2-2-0.5s-1-0.8-1.4-1.4c-0.3-0.6-0.5-1.4-0.5-2.2c0-0.8,0.2-1.6,0.5-2.2
				s0.8-1.1,1.4-1.5c0.6-0.3,1.3-0.5,2.1-0.5s1.4,0.2,2,0.5c0.6,0.4,1,0.8,1.3,1.4s0.4,1.2,0.4,1.8c0,0.1,0,0.2,0,0.4
				c0,0.1,0,0.2,0,0.4h-6.3c0,0.6,0.2,1.1,0.4,1.5s0.6,0.7,0.9,0.9c0.4,0.2,0.8,0.3,1.2,0.3c0.6,0,1-0.1,1.4-0.4s0.6-0.6,0.8-1h1.3
				c-0.2,0.7-0.6,1.4-1.2,1.8C44.8,42.6,44,42.9,43,42.9z M43,35.7c-0.6,0-1.2,0.2-1.7,0.6s-0.8,1-0.9,1.7h5c0-0.7-0.3-1.3-0.7-1.7
				C44.3,35.9,43.7,35.7,43,35.7z"/>
			<path class="st1" d="M51.4,42.7c-0.7,0-1.3-0.2-1.7-0.5c-0.4-0.4-0.6-1-0.6-1.9v-4.4h-1.4v-1.1h1.4l0.2-1.9h1.2v1.9h2.3v1.1h-2.3
				v4.4c0,0.5,0.1,0.8,0.3,1s0.6,0.3,1.1,0.3h0.8v1.1H51.4z"/>
			<path class="st1" d="M57.6,42.7c-0.7,0-1.3-0.2-1.7-0.5c-0.4-0.4-0.6-1-0.6-1.9v-4.4h-1.4v-1.1h1.4l0.2-1.9h1.2v1.9H59v1.1h-2.3
				v4.4c0,0.5,0.1,0.8,0.3,1s0.6,0.3,1.1,0.3h0.8v1.1H57.6z"/>
			<path class="st1" d="M61.5,33c-0.3,0-0.5-0.1-0.7-0.3c-0.2-0.2-0.3-0.4-0.3-0.7c0-0.3,0.1-0.5,0.3-0.6c0.2-0.2,0.4-0.3,0.7-0.3
				s0.5,0.1,0.7,0.3c0.2,0.2,0.3,0.4,0.3,0.6c0,0.3-0.1,0.5-0.3,0.7C62,32.9,61.8,33,61.5,33z M60.8,42.7v-7.9h1.3v7.9H60.8z"/>
			<path class="st1" d="M64.5,42.7v-7.9h1.2l0.1,1.4c0.3-0.5,0.6-0.9,1.1-1.2c0.5-0.3,1-0.4,1.6-0.4c0.9,0,1.7,0.3,2.2,0.9
				c0.6,0.6,0.8,1.4,0.8,2.6v4.6h-1.3v-4.5c0-1.6-0.7-2.5-2.1-2.5c-0.7,0-1.2,0.2-1.7,0.7s-0.7,1.2-0.7,2.1v4.1L64.5,42.7L64.5,42.7
				z"/>
			<path class="st1" d="M76.8,40.2c-0.4,0-0.9-0.1-1.2-0.2l-0.8,0.8c0.1,0.1,0.3,0.2,0.4,0.2s0.4,0.1,0.8,0.2
				c0.3,0.1,0.8,0.1,1.4,0.1c1.1,0.1,1.8,0.3,2.3,0.7c0.5,0.4,0.7,1,0.7,1.6c0,0.5-0.1,0.9-0.4,1.3c-0.2,0.4-0.6,0.8-1.2,1
				c-0.5,0.3-1.2,0.4-2,0.4c-0.7,0-1.3-0.1-1.9-0.3s-1-0.5-1.3-0.9s-0.5-0.9-0.5-1.4c0-0.3,0.1-0.6,0.2-1c0.2-0.4,0.5-0.7,0.9-1
				c-0.2-0.1-0.4-0.2-0.6-0.3c-0.2-0.1-0.3-0.2-0.5-0.4v-0.4l1.4-1.3c-0.6-0.5-0.9-1.2-0.9-2.1c0-0.5,0.1-1,0.4-1.4
				c0.2-0.4,0.6-0.8,1.1-1s1-0.4,1.7-0.4c0.5,0,0.9,0.1,1.2,0.2h2.9v1l-1.5,0.1c0.3,0.4,0.5,1,0.5,1.5s-0.1,1-0.4,1.4
				c-0.2,0.4-0.6,0.8-1.1,1C78,40.1,77.5,40.2,76.8,40.2z M74.5,43.7c0,0.5,0.2,0.9,0.7,1.2c0.4,0.3,1,0.4,1.7,0.4s1.2-0.1,1.6-0.4
				s0.6-0.7,0.6-1.1c0-0.3-0.1-0.6-0.4-0.9s-0.8-0.4-1.5-0.4c-0.6,0-1.1-0.1-1.5-0.2c-0.4,0.2-0.7,0.5-0.9,0.8
				C74.5,43.3,74.5,43.5,74.5,43.7z M76.8,39.1c0.6,0,1-0.1,1.4-0.4c0.3-0.3,0.5-0.7,0.5-1.3c0-0.5-0.2-1-0.5-1.3s-0.8-0.4-1.4-0.4
				s-1,0.1-1.4,0.4c-0.3,0.3-0.5,0.7-0.5,1.3c0,0.5,0.2,1,0.5,1.3C75.8,38.9,76.2,39.1,76.8,39.1z"/>
			<path class="st1" d="M89.6,42.9c-0.9,0-1.7-0.3-2.2-0.9c-0.6-0.6-0.8-1.4-0.8-2.6v-4.6h1.3v4.5c0,1.6,0.7,2.5,2,2.5
				c0.7,0,1.3-0.2,1.7-0.7c0.4-0.5,0.7-1.2,0.7-2.1v-4.1h1.3v7.9h-1.2l-0.1-1.4c-0.2,0.5-0.6,0.9-1.1,1.2
				C90.8,42.7,90.2,42.9,89.6,42.9z"/>
			<path class="st1" d="M95.9,42.7v-7.9h1.2l0.1,1.4c0.3-0.5,0.6-0.9,1.1-1.2c0.5-0.3,1-0.4,1.6-0.4c0.9,0,1.7,0.3,2.2,0.9
				c0.6,0.6,0.8,1.4,0.8,2.6v4.6h-1.3v-4.5c0-1.6-0.7-2.5-2.1-2.5c-0.7,0-1.2,0.2-1.7,0.7c-0.4,0.5-0.7,1.2-0.7,2.1v4.1L95.9,42.7
				L95.9,42.7z"/>
			<path class="st1" d="M107.7,42.9c-0.7,0-1.2-0.1-1.7-0.3c-0.4-0.2-0.8-0.5-1-0.9s-0.3-0.8-0.3-1.2c0-0.8,0.3-1.4,0.9-1.9
				c0.6-0.4,1.5-0.7,2.5-0.7h2.1v-0.1c0-0.7-0.2-1.2-0.5-1.6c-0.4-0.4-0.9-0.5-1.5-0.5c-0.5,0-1,0.1-1.4,0.4s-0.6,0.6-0.7,1.1h-1.4
				c0-0.6,0.2-1.1,0.6-1.5c0.3-0.4,0.8-0.7,1.3-0.9c0.5-0.2,1-0.3,1.6-0.3c1.1,0,1.9,0.3,2.5,0.9s0.8,1.4,0.8,2.4v4.9h-1.2l-0.1-1.4
				c-0.2,0.5-0.5,0.8-1,1.1C109,42.7,108.4,42.9,107.7,42.9z M107.9,41.7c0.5,0,0.9-0.1,1.3-0.4s0.6-0.6,0.8-1s0.3-0.9,0.3-1.3l0,0
				h-2c-0.8,0-1.3,0.1-1.7,0.4c-0.3,0.3-0.5,0.6-0.5,1s0.1,0.8,0.5,1C106.9,41.6,107.3,41.7,107.9,41.7z"/>
			<path class="st1" d="M117.4,42.9c-0.8,0-1.4-0.2-2-0.5s-1.1-0.8-1.4-1.5c-0.3-0.6-0.5-1.4-0.5-2.2s0.2-1.6,0.5-2.2
				c0.4-0.6,0.8-1.1,1.4-1.5c0.6-0.3,1.3-0.5,2-0.5c0.9,0,1.7,0.2,2.4,0.7c0.6,0.5,1,1.2,1.2,2h-1.4c-0.1-0.5-0.4-0.9-0.8-1.1
				c-0.4-0.3-0.9-0.4-1.5-0.4c-0.4,0-0.9,0.1-1.3,0.3c-0.4,0.2-0.7,0.6-1,1c-0.2,0.4-0.4,1-0.4,1.7s0.1,1.2,0.4,1.7
				c0.2,0.4,0.6,0.8,1,1s0.8,0.3,1.3,0.3c0.6,0,1-0.1,1.5-0.4s0.7-0.7,0.8-1.2h1.4c-0.2,0.8-0.6,1.5-1.2,2
				C119.1,42.6,118.3,42.9,117.4,42.9z"/>
			<path class="st1" d="M122.8,42.7V31.2h1.3v4.9c0.3-0.5,0.7-0.9,1.1-1.1c0.5-0.3,1-0.4,1.6-0.4c0.9,0,1.6,0.3,2.2,0.9
				c0.6,0.6,0.8,1.4,0.8,2.6v4.6h-1.3v-4.5c0-1.6-0.7-2.5-2-2.5c-0.7,0-1.3,0.2-1.7,0.7c-0.5,0.5-0.7,1.2-0.7,2.1v4.1L122.8,42.7
				L122.8,42.7z"/>
			<path class="st1" d="M132.8,33c-0.3,0-0.5-0.1-0.7-0.3c-0.2-0.2-0.3-0.4-0.3-0.7c0-0.3,0.1-0.5,0.3-0.6c0.2-0.2,0.4-0.3,0.7-0.3
				s0.5,0.1,0.7,0.3c0.2,0.2,0.3,0.4,0.3,0.6c0,0.3-0.1,0.5-0.3,0.7C133.3,32.9,133,33,132.8,33z M132.1,42.7v-7.9h1.3v7.9H132.1z"
				/>
			<path class="st1" d="M139.4,42.9c-0.8,0-1.4-0.2-2-0.5s-1.1-0.8-1.4-1.4c-0.3-0.6-0.5-1.4-0.5-2.2c0-0.8,0.2-1.6,0.5-2.2
				s0.8-1.1,1.4-1.5c0.6-0.3,1.3-0.5,2.1-0.5s1.4,0.2,2,0.5c0.6,0.4,1,0.8,1.3,1.4s0.4,1.2,0.4,1.8c0,0.1,0,0.2,0,0.4
				c0,0.1,0,0.2,0,0.4h-6.3c0,0.6,0.2,1.1,0.4,1.5s0.6,0.7,0.9,0.9c0.4,0.2,0.8,0.3,1.2,0.3c0.6,0,1-0.1,1.4-0.4s0.7-0.6,0.8-1h1.3
				c-0.2,0.7-0.6,1.4-1.2,1.8C141.1,42.6,140.3,42.9,139.4,42.9z M139.4,35.7c-0.6,0-1.2,0.2-1.7,0.6s-0.8,1-0.9,1.7h5
				c0-0.7-0.3-1.3-0.7-1.7C140.6,35.9,140,35.7,139.4,35.7z"/>
			<path class="st1" d="M146.9,42.7l-3-7.9h1.4l2.4,6.6l2.4-6.6h1.4l-3,7.9H146.9z"/>
			<path class="st1" d="M155.2,42.9c-0.7,0-1.2-0.1-1.7-0.3c-0.4-0.2-0.8-0.5-1-0.9s-0.3-0.8-0.3-1.2c0-0.8,0.3-1.4,0.9-1.9
				s1.5-0.7,2.5-0.7h2.1v-0.1c0-0.7-0.2-1.2-0.5-1.6c-0.4-0.4-0.9-0.5-1.5-0.5c-0.5,0-1,0.1-1.3,0.4c-0.4,0.3-0.6,0.6-0.7,1.1h-1.4
				c0.1-0.6,0.2-1.1,0.6-1.5c0.3-0.4,0.8-0.7,1.3-0.9c0.5-0.2,1-0.3,1.6-0.3c1.1,0,1.9,0.3,2.5,0.9s0.8,1.4,0.8,2.4v4.9h-1.2
				l-0.1-1.4c-0.2,0.5-0.5,0.8-1,1.1C156.5,42.7,155.9,42.9,155.2,42.9z M155.4,41.7c0.5,0,1-0.1,1.3-0.4c0.4-0.3,0.6-0.6,0.8-1
				s0.3-0.9,0.3-1.3l0,0h-2c-0.8,0-1.3,0.1-1.7,0.4c-0.3,0.3-0.5,0.6-0.5,1s0.1,0.8,0.5,1C154.4,41.6,154.8,41.7,155.4,41.7z"/>
			<path class="st1" d="M165.4,42.9c-0.6,0-1.2-0.1-1.7-0.4s-0.9-0.6-1.2-1.1l-0.1,1.3h-1.2V31.2h1.3v4.9c0.3-0.4,0.6-0.7,1.1-1
				s1.1-0.5,1.8-0.5c0.8,0,1.5,0.2,2.1,0.5c0.6,0.4,1,0.9,1.4,1.5s0.5,1.3,0.5,2.1c0,0.8-0.2,1.5-0.5,2.1s-0.8,1.1-1.4,1.5
				C166.9,42.7,166.2,42.9,165.4,42.9z M165.3,41.7c0.5,0,1-0.1,1.4-0.4c0.4-0.2,0.7-0.6,1-1c0.2-0.5,0.4-1,0.4-1.6
				s-0.1-1.1-0.4-1.6c-0.2-0.4-0.6-0.8-1-1s-0.9-0.4-1.4-0.4s-1,0.1-1.4,0.4s-0.7,0.6-1,1c-0.2,0.5-0.3,1-0.3,1.6s0.1,1.1,0.3,1.6
				c0.2,0.4,0.6,0.8,1,1S164.7,41.7,165.3,41.7z"/>
			<path class="st1" d="M171.2,42.7V31.2h1.3v11.5H171.2z"/>
			<path class="st1" d="M178.3,42.9c-0.8,0-1.4-0.2-2-0.5s-1.1-0.8-1.4-1.4c-0.3-0.6-0.5-1.4-0.5-2.2c0-0.8,0.2-1.6,0.5-2.2
				s0.8-1.1,1.4-1.5c0.6-0.3,1.3-0.5,2.1-0.5s1.4,0.2,2,0.5c0.6,0.4,1,0.8,1.3,1.4s0.4,1.2,0.4,1.8c0,0.1,0,0.2,0,0.4s0,0.2,0,0.4
				h-6.3c0,0.6,0.2,1.1,0.4,1.5s0.6,0.7,0.9,0.9c0.4,0.2,0.8,0.3,1.2,0.3c0.5,0,1-0.1,1.4-0.4s0.6-0.6,0.8-1h1.3
				c-0.2,0.7-0.6,1.4-1.2,1.8C180.1,42.6,179.3,42.9,178.3,42.9z M178.3,35.7c-0.6,0-1.2,0.2-1.7,0.6s-0.8,1-0.9,1.7h5
				c0-0.7-0.3-1.3-0.7-1.7C179.6,35.9,179,35.7,178.3,35.7z"/>
			<path class="st1" d="M191.3,40.2c-0.4,0-0.9-0.1-1.2-0.2l-0.8,0.8c0.1,0.1,0.3,0.2,0.4,0.2c0.2,0.1,0.4,0.1,0.8,0.2
				c0.3,0.1,0.8,0.1,1.4,0.1c1.1,0.1,1.8,0.3,2.3,0.7c0.5,0.4,0.7,1,0.7,1.6c0,0.5-0.1,0.9-0.4,1.3c-0.2,0.4-0.6,0.8-1.1,1
				c-0.5,0.3-1.2,0.4-2,0.4c-0.7,0-1.3-0.1-1.9-0.3s-1-0.5-1.3-0.9s-0.5-0.9-0.5-1.4c0-0.3,0.1-0.6,0.2-1s0.5-0.7,0.9-1
				c-0.2-0.1-0.4-0.2-0.6-0.3c-0.2-0.1-0.3-0.2-0.5-0.4v-0.4l1.4-1.3c-0.6-0.5-0.9-1.2-0.9-2.1c0-0.5,0.1-1,0.4-1.4
				c0.2-0.4,0.6-0.8,1.1-1s1-0.4,1.7-0.4c0.5,0,0.9,0.1,1.2,0.2h2.9v1l-1.5,0.1c0.3,0.4,0.5,1,0.5,1.5s-0.1,1-0.4,1.4
				c-0.2,0.4-0.6,0.8-1.1,1C192.5,40.1,191.9,40.2,191.3,40.2z M188.9,43.7c0,0.5,0.2,0.9,0.7,1.2s1,0.4,1.7,0.4s1.2-0.1,1.6-0.4
				s0.6-0.7,0.6-1.1c0-0.3-0.1-0.6-0.4-0.9c-0.3-0.2-0.8-0.4-1.5-0.4c-0.6,0-1.1-0.1-1.5-0.2c-0.4,0.2-0.7,0.5-0.9,0.8
				C189,43.3,188.9,43.5,188.9,43.7z M191.3,39.1c0.6,0,1-0.1,1.4-0.4c0.3-0.3,0.5-0.7,0.5-1.3c0-0.5-0.2-1-0.5-1.3
				s-0.8-0.4-1.4-0.4c-0.6,0-1,0.1-1.4,0.4s-0.5,0.7-0.5,1.3c0,0.5,0.2,1,0.5,1.3C190.2,38.9,190.7,39.1,191.3,39.1z"/>
			<path class="st1" d="M200.2,42.9c-0.8,0-1.4-0.2-2-0.5s-1.1-0.8-1.4-1.4c-0.3-0.6-0.5-1.4-0.5-2.2s0.2-1.6,0.5-2.2
				s0.8-1.1,1.4-1.4s1.3-0.5,2-0.5s1.4,0.2,2,0.5s1.1,0.8,1.4,1.4c0.3,0.6,0.5,1.4,0.5,2.2s-0.2,1.6-0.5,2.2s-0.8,1.1-1.4,1.4
				C201.7,42.7,201,42.9,200.2,42.9z M200.2,41.7c0.5,0,0.9-0.1,1.3-0.3c0.4-0.2,0.7-0.6,1-1c0.2-0.5,0.4-1,0.4-1.7
				s-0.1-1.2-0.4-1.7s-0.6-0.8-0.9-1c-0.4-0.2-0.8-0.3-1.3-0.3s-0.9,0.1-1.3,0.3c-0.4,0.2-0.7,0.6-1,1s-0.4,1-0.4,1.7
				s0.1,1.2,0.4,1.7s0.6,0.8,0.9,1C199.4,41.6,199.8,41.7,200.2,41.7z"/>
			<path class="st1" d="M208.7,42.9c-0.7,0-1.2-0.1-1.6-0.3c-0.4-0.2-0.8-0.5-1-0.9s-0.3-0.8-0.3-1.2c0-0.8,0.3-1.4,0.9-1.9
				c0.6-0.4,1.5-0.7,2.5-0.7h2.1v-0.1c0-0.7-0.2-1.2-0.5-1.6c-0.4-0.4-0.9-0.5-1.5-0.5c-0.5,0-1,0.1-1.3,0.4s-0.6,0.6-0.7,1.1h-1.4
				c0-0.6,0.2-1.1,0.6-1.5c0.3-0.4,0.8-0.7,1.3-0.9c0.5-0.2,1-0.3,1.6-0.3c1.1,0,1.9,0.3,2.5,0.9s0.8,1.4,0.8,2.4v4.9h-1.2l-0.1-1.4
				c-0.2,0.5-0.6,0.8-1,1.1C210,42.7,209.5,42.9,208.7,42.9z M208.9,41.7c0.5,0,0.9-0.1,1.3-0.4c0.4-0.3,0.6-0.6,0.8-1
				s0.3-0.9,0.3-1.3l0,0h-2c-0.8,0-1.3,0.1-1.7,0.4c-0.3,0.3-0.5,0.6-0.5,1s0.1,0.8,0.5,1C208,41.6,208.4,41.7,208.9,41.7z"/>
			<path class="st1" d="M214.8,42.7V31.2h1.4v11.5H214.8z"/>
			<path class="st1" d="M221.3,42.9c-1,0-1.7-0.2-2.4-0.7c-0.6-0.5-1-1.1-1.1-2h1.4c0.1,0.4,0.3,0.8,0.7,1.1
				c0.4,0.3,0.8,0.5,1.4,0.5c0.6,0,1-0.1,1.2-0.4c0.3-0.2,0.4-0.5,0.4-0.9c0-0.5-0.2-0.8-0.5-1s-0.8-0.3-1.5-0.4
				c-0.4-0.1-0.8-0.2-1.3-0.4c-0.4-0.2-0.8-0.4-1.1-0.7c-0.3-0.3-0.4-0.7-0.4-1.2c0-0.7,0.3-1.3,0.8-1.7c0.5-0.4,1.2-0.7,2.1-0.7
				c0.8,0,1.5,0.2,2.1,0.6c0.5,0.4,0.8,1,0.9,1.8h-1.3c-0.1-0.4-0.2-0.7-0.5-1c-0.3-0.2-0.7-0.3-1.2-0.3s-0.8,0.1-1.1,0.3
				c-0.3,0.2-0.4,0.5-0.4,0.8s0.2,0.6,0.5,0.8c0.3,0.2,0.8,0.3,1.4,0.5c0.5,0.1,1,0.2,1.4,0.4s0.8,0.4,1.1,0.7
				c0.3,0.3,0.4,0.7,0.4,1.3c0,0.7-0.3,1.3-0.8,1.8C223,42.6,222.3,42.9,221.3,42.9z"/>
			<path class="st1" d="M231.4,33c-0.3,0-0.5-0.1-0.7-0.3c-0.2-0.2-0.3-0.4-0.3-0.7c0-0.3,0.1-0.5,0.3-0.6c0.2-0.2,0.4-0.3,0.7-0.3
				s0.5,0.1,0.7,0.3c0.2,0.2,0.3,0.4,0.3,0.6c0,0.3-0.1,0.5-0.3,0.7C231.8,32.9,231.6,33,231.4,33z M230.7,42.7v-7.9h1.3v7.9H230.7z
				"/>
			<path class="st1" d="M237.4,42.9c-0.9,0-1.7-0.2-2.4-0.7s-1-1.1-1.1-2h1.4c0.1,0.4,0.3,0.8,0.7,1.1c0.3,0.3,0.8,0.5,1.4,0.5
				c0.6,0,1-0.1,1.2-0.4c0.3-0.2,0.4-0.5,0.4-0.9c0-0.5-0.2-0.8-0.5-1s-0.8-0.3-1.5-0.4c-0.4-0.1-0.9-0.2-1.3-0.4
				c-0.4-0.2-0.8-0.4-1.1-0.7c-0.3-0.3-0.4-0.7-0.4-1.2c0-0.7,0.3-1.3,0.8-1.7s1.2-0.7,2.1-0.7c0.8,0,1.5,0.2,2.1,0.6
				c0.5,0.4,0.8,1,0.9,1.8h-1.3c0-0.4-0.2-0.7-0.5-1c-0.3-0.2-0.7-0.3-1.2-0.3s-0.8,0.1-1.1,0.3c-0.3,0.2-0.4,0.5-0.4,0.8
				s0.2,0.6,0.5,0.8c0.3,0.2,0.8,0.3,1.4,0.5c0.5,0.1,1,0.2,1.4,0.4s0.8,0.4,1.1,0.7c0.3,0.3,0.4,0.7,0.4,1.3c0,0.7-0.3,1.3-0.8,1.8
				C239.1,42.6,238.4,42.9,237.4,42.9z"/>
			<path class="st1" d="M246.6,42.7V31.2h1.3v11.5H246.6z"/>
			<path class="st1" d="M251,33c-0.3,0-0.5-0.1-0.7-0.3c-0.2-0.2-0.3-0.4-0.3-0.7c0-0.3,0.1-0.5,0.3-0.6c0.2-0.2,0.4-0.3,0.7-0.3
				s0.5,0.1,0.7,0.3c0.2,0.2,0.3,0.4,0.3,0.6c0,0.3-0.1,0.5-0.3,0.7C251.5,32.9,251.2,33,251,33z M250.3,42.7v-7.9h1.3v7.9H250.3z"
				/>
			<path class="st1" d="M254,42.7V31.2h1.3v6.9l3.2-3.3h1.6l-3.5,3.6l4,4.4h-1.7l-3.6-4.1v4.1H254V42.7z"/>
			<path class="st1" d="M265,42.9c-0.8,0-1.4-0.2-2-0.5s-1.1-0.8-1.4-1.4s-0.5-1.4-0.5-2.2c0-0.8,0.2-1.6,0.5-2.2s0.8-1.1,1.4-1.5
				c0.6-0.3,1.3-0.5,2.1-0.5c0.8,0,1.4,0.2,2,0.5c0.6,0.4,1,0.8,1.3,1.4s0.4,1.2,0.4,1.8c0,0.1,0,0.2,0,0.4c0,0.1,0,0.2,0,0.4h-6.3
				c0,0.6,0.2,1.1,0.4,1.5s0.6,0.7,0.9,0.9c0.4,0.2,0.8,0.3,1.2,0.3c0.5,0,1-0.1,1.4-0.4s0.7-0.6,0.8-1h1.3
				c-0.2,0.7-0.6,1.4-1.2,1.8C266.8,42.6,266,42.9,265,42.9z M265,35.7c-0.6,0-1.2,0.2-1.7,0.6s-0.8,1-0.9,1.7h5
				c0-0.7-0.3-1.3-0.7-1.7C266.3,35.9,265.7,35.7,265,35.7z"/>
			<path class="st1" d="M270.6,42.7V31.2h1.3v11.5H270.6z"/>
			<path class="st1" d="M275,46.2l2-4.3h-0.5l-3.1-7.2h1.5l2.6,6.2l2.8-6.2h1.4l-5.2,11.5H275z"/>
			<path class="st1" d="M33.4,64.7c-0.7,0-1.3-0.2-1.7-0.5c-0.4-0.3-0.6-1-0.6-1.9v-4.4h-1.4v-1.1h1.4l0.2-1.9h1.2v1.9h2.3v1.1h-2.3
				v4.4c0,0.5,0.1,0.8,0.3,1s0.6,0.3,1.1,0.3h0.8v1.1H33.4z"/>
			<path class="st1" d="M39.8,64.9c-0.8,0-1.4-0.2-2-0.5s-1.1-0.8-1.4-1.4c-0.4-0.6-0.5-1.4-0.5-2.2s0.2-1.6,0.5-2.2
				c0.4-0.6,0.8-1.1,1.4-1.4c0.6-0.3,1.3-0.5,2-0.5s1.4,0.2,2,0.5s1.1,0.8,1.4,1.4c0.4,0.6,0.5,1.4,0.5,2.2s-0.2,1.6-0.5,2.2
				s-0.8,1.1-1.4,1.4C41.2,64.7,40.6,64.9,39.8,64.9z M39.8,63.7c0.5,0,0.9-0.1,1.3-0.3c0.4-0.2,0.7-0.6,1-1c0.2-0.5,0.4-1,0.4-1.7
				s-0.1-1.2-0.4-1.7c-0.2-0.4-0.6-0.8-1-1s-0.8-0.3-1.3-0.3s-0.9,0.1-1.3,0.3c-0.4,0.2-0.7,0.6-1,1s-0.4,1-0.4,1.7s0.1,1.2,0.4,1.7
				s0.6,0.8,1,1C38.9,63.6,39.4,63.7,39.8,63.7z"/>
			<path class="st1" d="M49.9,64.7v-7.9h1.2l0.1,1.1c0.3-0.4,0.6-0.8,1-1s0.9-0.4,1.4-0.4c0.6,0,1.2,0.1,1.6,0.4
				c0.5,0.3,0.8,0.6,1.1,1.2c0.3-0.5,0.7-0.9,1.1-1.1c0.5-0.3,1-0.4,1.6-0.4c0.9,0,1.7,0.3,2.3,0.9s0.8,1.4,0.8,2.6v4.6h-1.3v-4.5
				c0-0.8-0.2-1.4-0.5-1.9c-0.3-0.4-0.8-0.6-1.4-0.6c-0.6,0-1.2,0.2-1.6,0.7c-0.4,0.5-0.6,1.2-0.6,2.1v4.1h-1.3v-4.5
				c0-0.8-0.2-1.4-0.5-1.9c-0.3-0.4-0.8-0.6-1.4-0.6c-0.6,0-1.2,0.2-1.6,0.7c-0.4,0.5-0.6,1.2-0.6,2.1v4.1L49.9,64.7L49.9,64.7z"/>
			<path class="st1" d="M66.9,64.9c-0.7,0-1.2-0.1-1.6-0.3c-0.4-0.2-0.8-0.5-1-0.9S64,62.9,64,62.5c0-0.8,0.3-1.4,0.9-1.9
				s1.5-0.7,2.5-0.7h2.1v-0.1c0-0.7-0.2-1.2-0.5-1.6c-0.4-0.4-0.8-0.5-1.5-0.5c-0.5,0-1,0.1-1.3,0.4s-0.6,0.6-0.7,1.1h-1.4
				c0-0.6,0.2-1.1,0.6-1.5c0.3-0.4,0.8-0.7,1.3-0.9c0.5-0.2,1-0.3,1.6-0.3c1.1,0,1.9,0.3,2.5,0.9s0.8,1.4,0.8,2.4v4.9h-1.2l-0.1-1.4
				c-0.2,0.5-0.6,0.8-1,1.1C68.2,64.7,67.6,64.9,66.9,64.9z M67.1,63.7c0.5,0,0.9-0.1,1.3-0.4s0.7-0.6,0.8-1
				c0.2-0.4,0.3-0.9,0.3-1.3l0,0h-2c-0.8,0-1.3,0.1-1.7,0.4c-0.3,0.3-0.5,0.6-0.5,1s0.1,0.8,0.5,1C66.1,63.6,66.5,63.7,67.1,63.7z"
				/>
			<path class="st1" d="M72.9,64.7V53.2h1.3v6.9l3.2-3.3h1.7l-3.5,3.6l4,4.4h-1.7l-3.6-4.1v4.1h-1.4V64.7z"/>
			<path class="st1" d="M83.9,64.9c-0.8,0-1.4-0.2-2-0.5s-1.1-0.8-1.4-1.4S80,61.6,80,60.8c0-0.8,0.2-1.6,0.5-2.2s0.8-1.1,1.4-1.5
				c0.6-0.3,1.3-0.5,2.1-0.5c0.8,0,1.4,0.2,2,0.5c0.6,0.4,1,0.8,1.3,1.4s0.4,1.2,0.4,1.8c0,0.1,0,0.2,0,0.4s0,0.2,0,0.4h-6.3
				c0,0.6,0.2,1.1,0.4,1.5s0.6,0.7,0.9,0.9c0.4,0.2,0.8,0.3,1.2,0.3c0.6,0,1-0.1,1.4-0.4s0.6-0.6,0.8-1h1.3
				c-0.2,0.7-0.6,1.4-1.2,1.8C85.7,64.6,84.9,64.9,83.9,64.9z M83.9,57.7c-0.6,0-1.2,0.2-1.7,0.6s-0.8,1-0.9,1.7h5
				c0-0.7-0.3-1.3-0.7-1.7C85.2,57.9,84.6,57.7,83.9,57.7z"/>
			<path class="st1" d="M94.6,68.2l2-4.3h-0.5l-3.2-7.2h1.5l2.6,6.2l2.8-6.2h1.4L96,68.2H94.6z"/>
			<path class="st1" d="M105.5,64.9c-0.8,0-1.4-0.2-2-0.5s-1.1-0.8-1.4-1.4s-0.5-1.4-0.5-2.2s0.2-1.6,0.5-2.2s0.8-1.1,1.4-1.4
				s1.3-0.5,2-0.5s1.4,0.2,2,0.5s1.1,0.8,1.4,1.4s0.5,1.4,0.5,2.2s-0.2,1.6-0.5,2.2s-0.8,1.1-1.4,1.4S106.2,64.9,105.5,64.9z
				 M105.5,63.7c0.5,0,0.9-0.1,1.3-0.3c0.4-0.2,0.7-0.6,1-1c0.2-0.5,0.4-1,0.4-1.7s-0.1-1.2-0.4-1.7c-0.2-0.4-0.6-0.8-1-1
				s-0.8-0.3-1.3-0.3s-0.9,0.1-1.3,0.3c-0.4,0.2-0.7,0.6-1,1s-0.4,1-0.4,1.7s0.1,1.2,0.4,1.7s0.6,0.8,1,1
				C104.6,63.6,105,63.7,105.5,63.7z"/>
			<path class="st1" d="M114.2,64.9c-0.9,0-1.7-0.3-2.2-0.9c-0.6-0.6-0.8-1.4-0.8-2.6v-4.6h1.3v4.5c0,1.6,0.7,2.5,2,2.5
				c0.7,0,1.3-0.2,1.7-0.7c0.5-0.5,0.7-1.2,0.7-2.1v-4.1h1.3v7.9h-1.1l-0.1-1.4c-0.2,0.5-0.6,0.9-1.1,1.2
				C115.4,64.7,114.8,64.9,114.2,64.9z"/>
			<path class="st1" d="M125.2,64.7v-6.8H124v-1.1h1.2v-1.4c0-0.8,0.2-1.3,0.6-1.7s0.9-0.5,1.7-0.5h0.8v1.1h-0.6
				c-0.4,0-0.7,0.1-0.9,0.2c-0.2,0.2-0.3,0.5-0.3,0.8v1.3h2v1.1h-2v6.8L125.2,64.7L125.2,64.7z"/>
			<path class="st1" d="M133.3,64.9c-0.8,0-1.4-0.2-2-0.5s-1-0.8-1.4-1.4c-0.3-0.6-0.5-1.4-0.5-2.2c0-0.8,0.2-1.6,0.5-2.2
				s0.8-1.1,1.4-1.5c0.6-0.3,1.3-0.5,2.1-0.5s1.4,0.2,2,0.5c0.6,0.4,1,0.8,1.3,1.4s0.4,1.2,0.4,1.8c0,0.1,0,0.2,0,0.4
				c0,0.1,0,0.2,0,0.4h-6.3c0,0.6,0.2,1.1,0.4,1.5s0.6,0.7,0.9,0.9c0.4,0.2,0.8,0.3,1.2,0.3c0.6,0,1-0.1,1.4-0.4s0.7-0.6,0.8-1h1.3
				c-0.2,0.7-0.6,1.4-1.2,1.8C135,64.6,134.2,64.9,133.3,64.9z M133.3,57.7c-0.6,0-1.2,0.2-1.7,0.6s-0.8,1-0.9,1.7h5
				c0-0.7-0.3-1.3-0.7-1.7C134.5,57.9,134,57.7,133.3,57.7z"/>
			<path class="st1" d="M142.4,64.9c-0.8,0-1.4-0.2-2-0.5s-1.1-0.8-1.4-1.4c-0.3-0.6-0.5-1.4-0.5-2.2c0-0.8,0.2-1.6,0.5-2.2
				s0.8-1.1,1.4-1.5c0.6-0.3,1.3-0.5,2.1-0.5s1.4,0.2,2,0.5c0.6,0.4,1,0.8,1.3,1.4s0.5,1.2,0.5,1.8c0,0.1,0,0.2,0,0.4
				c0,0.1,0,0.2,0,0.4H140c0,0.6,0.2,1.1,0.4,1.5s0.6,0.7,0.9,0.9c0.4,0.2,0.8,0.3,1.2,0.3c0.6,0,1-0.1,1.4-0.4s0.6-0.6,0.8-1h1.3
				c-0.2,0.7-0.6,1.4-1.2,1.8C144.1,64.6,143.3,64.9,142.4,64.9z M142.4,57.7c-0.6,0-1.2,0.2-1.7,0.6s-0.8,1-0.9,1.7h5
				c0-0.7-0.3-1.3-0.7-1.7C143.6,57.9,143.1,57.7,142.4,57.7z"/>
			<path class="st1" d="M147.9,64.7V53.2h1.3v11.5H147.9z"/>
			<path class="st1" d="M159.4,64.9c-0.8,0-1.4-0.2-2-0.5s-1.1-0.8-1.4-1.4c-0.3-0.6-0.5-1.4-0.5-2.2s0.2-1.6,0.5-2.2
				s0.8-1.1,1.4-1.4s1.3-0.5,2-0.5s1.4,0.2,2,0.5s1.1,0.8,1.4,1.4c0.3,0.6,0.5,1.4,0.5,2.2s-0.2,1.6-0.5,2.2s-0.8,1.1-1.4,1.4
				C160.8,64.7,160.1,64.9,159.4,64.9z M159.4,63.7c0.5,0,0.9-0.1,1.3-0.3c0.4-0.2,0.7-0.6,1-1c0.2-0.5,0.4-1,0.4-1.7
				s-0.1-1.2-0.4-1.7s-0.6-0.8-0.9-1c-0.4-0.2-0.8-0.3-1.3-0.3s-0.9,0.1-1.3,0.3c-0.4,0.2-0.7,0.6-1,1s-0.4,1-0.4,1.7
				s0.1,1.2,0.4,1.7s0.6,0.8,0.9,1C158.5,63.6,158.9,63.7,159.4,63.7z"/>
			<path class="st1" d="M167.1,64.7l-3-7.9h1.4l2.4,6.6l2.4-6.6h1.4l-3,7.9H167.1z"/>
			<path class="st1" d="M176.3,64.9c-0.8,0-1.4-0.2-2-0.5s-1.1-0.8-1.4-1.4c-0.3-0.6-0.5-1.4-0.5-2.2c0-0.8,0.2-1.6,0.5-2.2
				s0.8-1.1,1.4-1.5c0.6-0.3,1.3-0.5,2.1-0.5s1.4,0.2,2,0.5c0.6,0.4,1,0.8,1.3,1.4s0.4,1.2,0.4,1.8c0,0.1,0,0.2,0,0.4s0,0.2,0,0.4
				h-6.3c0,0.6,0.2,1.1,0.4,1.5s0.6,0.7,0.9,0.9c0.4,0.2,0.8,0.3,1.2,0.3c0.5,0,1-0.1,1.4-0.4s0.6-0.6,0.8-1h1.3
				c-0.2,0.7-0.6,1.4-1.2,1.8C178,64.6,177.2,64.9,176.3,64.9z M176.3,57.7c-0.6,0-1.2,0.2-1.7,0.6s-0.8,1-0.9,1.7h5
				c0-0.7-0.3-1.3-0.7-1.7C177.5,57.9,177,57.7,176.3,57.7z"/>
			<path class="st1" d="M181.8,64.7v-7.9h1.2l0.1,1.5c0.2-0.5,0.6-0.9,1.1-1.2s1.1-0.5,1.9-0.5V58h-0.4c-0.5,0-0.9,0.1-1.3,0.2
				c-0.4,0.2-0.7,0.5-0.9,0.8c-0.2,0.4-0.4,0.9-0.4,1.6v4h-1.3V64.7z"/>
			<path class="st1" d="M189.3,64.7l-2.3-7.9h1.3L190,63l1.9-6.2h1.5l1.9,6.2l1.7-6.2h1.4l-2.3,7.9h-1.4l-1.9-6.5l-1.9,6.5H189.3z"
				/>
			<path class="st1" d="M199.7,64.7V53.2h1.3v4.9c0.3-0.5,0.7-0.9,1.1-1.1c0.5-0.3,1-0.4,1.6-0.4c0.9,0,1.6,0.3,2.2,0.9
				c0.6,0.6,0.8,1.4,0.8,2.6v4.6h-1.3v-4.5c0-1.6-0.7-2.5-2-2.5c-0.7,0-1.3,0.2-1.7,0.7c-0.5,0.5-0.7,1.2-0.7,2.1v4.1L199.7,64.7
				L199.7,64.7z"/>
			<path class="st1" d="M212.4,64.9c-0.8,0-1.4-0.2-2-0.5s-1.1-0.8-1.4-1.4c-0.3-0.6-0.5-1.4-0.5-2.2c0-0.8,0.2-1.6,0.5-2.2
				s0.8-1.1,1.4-1.5c0.6-0.3,1.3-0.5,2.1-0.5s1.4,0.2,2,0.5c0.6,0.4,1,0.8,1.3,1.4s0.5,1.2,0.5,1.8c0,0.1,0,0.2,0,0.4
				c0,0.1,0,0.2,0,0.4H210c0,0.6,0.2,1.1,0.4,1.5s0.6,0.7,0.9,0.9c0.4,0.2,0.8,0.3,1.2,0.3c0.6,0,1-0.1,1.4-0.4s0.6-0.6,0.8-1h1.3
				c-0.2,0.7-0.6,1.4-1.2,1.8C214.1,64.6,213.4,64.9,212.4,64.9z M212.4,57.7c-0.6,0-1.2,0.2-1.7,0.6s-0.8,1-0.9,1.7h5
				c0-0.7-0.3-1.3-0.7-1.7C213.7,57.9,213.1,57.7,212.4,57.7z"/>
			<path class="st1" d="M218,64.7V53.2h1.3v11.5H218z"/>
			<path class="st1" d="M221.5,64.7v-7.9h1.2l0.1,1.1c0.3-0.4,0.6-0.8,1-1s0.9-0.4,1.4-0.4c0.6,0,1.2,0.1,1.6,0.4
				c0.4,0.3,0.8,0.6,1,1.2c0.3-0.5,0.7-0.9,1.1-1.1c0.5-0.3,1-0.4,1.6-0.4c0.9,0,1.7,0.3,2.3,0.9s0.9,1.4,0.9,2.6v4.6h-1.3v-4.5
				c0-0.8-0.2-1.4-0.5-1.9c-0.3-0.4-0.8-0.6-1.4-0.6c-0.6,0-1.2,0.2-1.6,0.7c-0.4,0.5-0.6,1.2-0.6,2.1v4.1H227v-4.5
				c0-0.8-0.2-1.4-0.5-1.9c-0.3-0.4-0.8-0.6-1.4-0.6c-0.6,0-1.1,0.2-1.6,0.7c-0.4,0.5-0.6,1.2-0.6,2.1v4.1L221.5,64.7L221.5,64.7z"
				/>
			<path class="st1" d="M239.4,64.9c-0.8,0-1.4-0.2-2-0.5s-1.1-0.8-1.4-1.4c-0.3-0.6-0.5-1.4-0.5-2.2c0-0.8,0.2-1.6,0.5-2.2
				s0.8-1.1,1.4-1.5c0.6-0.3,1.3-0.5,2.1-0.5s1.4,0.2,2,0.5c0.6,0.4,1,0.8,1.3,1.4s0.4,1.2,0.4,1.8c0,0.1,0,0.2,0,0.4
				c0,0.1,0,0.2,0,0.4h-6.3c0,0.6,0.2,1.1,0.4,1.5s0.6,0.7,0.9,0.9c0.4,0.2,0.8,0.3,1.2,0.3c0.5,0,1-0.1,1.4-0.4s0.6-0.6,0.8-1h1.3
				c-0.2,0.7-0.6,1.4-1.2,1.8C241.1,64.6,240.4,64.9,239.4,64.9z M239.4,57.7c-0.6,0-1.2,0.2-1.7,0.6s-0.8,1-0.9,1.7h5
				c0-0.7-0.3-1.3-0.7-1.7C240.7,57.9,240.1,57.7,239.4,57.7z"/>
			<path class="st1" d="M248.5,64.9c-0.8,0-1.5-0.2-2.1-0.5c-0.6-0.4-1-0.9-1.4-1.5c-0.3-0.6-0.5-1.3-0.5-2.1c0-0.8,0.2-1.5,0.5-2.1
				s0.8-1.1,1.4-1.5c0.6-0.4,1.3-0.5,2.1-0.5c0.6,0,1.2,0.1,1.7,0.4s0.9,0.6,1.2,1.1v-4.9h1.3v11.5h-1.2l-0.1-1.3
				c-0.3,0.4-0.6,0.7-1.1,1C249.9,64.7,249.3,64.9,248.5,64.9z M248.7,63.7c0.5,0,1-0.1,1.4-0.4s0.7-0.6,1-1c0.2-0.5,0.3-1,0.3-1.6
				s-0.1-1.1-0.3-1.6c-0.2-0.4-0.5-0.8-1-1s-0.9-0.4-1.4-0.4s-1,0.1-1.4,0.4s-0.7,0.6-1,1c-0.2,0.5-0.3,1-0.3,1.6s0.1,1.1,0.3,1.6
				c0.2,0.4,0.5,0.8,1,1S248.2,63.7,248.7,63.7z"/>
			<path class="st1" d="M253.9,66.6l0.9-3.5h1.4l-1.4,3.5H253.9z"/>
			<path class="st1" d="M33.4,84.2c-0.4,0-0.9-0.1-1.2-0.2l-0.8,0.8c0.1,0.1,0.3,0.2,0.4,0.2c0.2,0.1,0.4,0.1,0.8,0.2
				c0.3,0.1,0.8,0.1,1.4,0.1c1.1,0.1,1.8,0.3,2.3,0.7c0.5,0.4,0.7,1,0.7,1.6c0,0.5-0.1,0.9-0.4,1.3c-0.2,0.4-0.6,0.8-1.1,1
				c-0.5,0.3-1.2,0.4-2,0.4c-0.7,0-1.3-0.1-1.9-0.3c-0.6-0.2-1-0.5-1.3-0.9s-0.5-0.9-0.5-1.4c0-0.3,0.1-0.6,0.2-1s0.5-0.7,0.9-1
				c-0.2-0.1-0.4-0.2-0.6-0.3c-0.2-0.1-0.3-0.2-0.5-0.4v-0.4l1.4-1.3c-0.6-0.5-0.9-1.2-0.9-2.1c0-0.5,0.1-1,0.4-1.4
				c0.2-0.4,0.6-0.8,1.1-1c0.5-0.2,1-0.4,1.7-0.4c0.5,0,0.9,0.1,1.2,0.2h2.9v1l-1.5,0.1c0.3,0.4,0.5,1,0.5,1.5s-0.1,1-0.4,1.4
				c-0.2,0.4-0.6,0.8-1.1,1C34.6,84.1,34,84.2,33.4,84.2z M31,87.7c0,0.5,0.2,0.9,0.7,1.2c0.5,0.3,1,0.4,1.7,0.4s1.2-0.1,1.6-0.4
				c0.4-0.3,0.6-0.7,0.6-1.1c0-0.3-0.1-0.6-0.4-0.9c-0.3-0.2-0.8-0.4-1.5-0.4c-0.6,0-1.1-0.1-1.5-0.2c-0.4,0.2-0.7,0.5-0.9,0.8
				C31.1,87.3,31,87.5,31,87.7z M33.4,83.1c0.6,0,1-0.1,1.4-0.4c0.3-0.3,0.5-0.7,0.5-1.3c0-0.5-0.2-1-0.5-1.3s-0.8-0.4-1.4-0.4
				c-0.6,0-1,0.1-1.4,0.4c-0.4,0.3-0.5,0.7-0.5,1.3c0,0.5,0.2,1,0.5,1.3C32.3,82.9,32.8,83.1,33.4,83.1z"/>
			<path class="st1" d="M42,86.9c-0.9,0-1.7-0.3-2.2-0.9S39,84.6,39,83.4v-4.6h1.3v4.5c0,1.6,0.7,2.5,2,2.5c0.7,0,1.3-0.2,1.7-0.7
				c0.5-0.5,0.7-1.2,0.7-2.1v-4.1H46v7.9h-1.2l-0.1-1.4c-0.2,0.5-0.6,0.9-1.1,1.2C43.1,86.7,42.6,86.9,42,86.9z"/>
			<path class="st1" d="M49,77c-0.3,0-0.5-0.1-0.7-0.3C48.1,76.5,48,76.3,48,76c0-0.3,0.1-0.5,0.3-0.6c0.2-0.2,0.4-0.3,0.7-0.3
				s0.5,0.1,0.7,0.3c0.2,0.2,0.3,0.4,0.3,0.6c0,0.3-0.1,0.5-0.3,0.7C49.5,76.9,49.3,77,49,77z M48.4,86.7v-7.9h1.3v7.9H48.4z"/>
			<path class="st1" d="M52,86.7V75.2h1.3v11.5H52z"/>
			<path class="st1" d="M58.7,86.7c-0.7,0-1.3-0.2-1.7-0.5c-0.4-0.4-0.6-1-0.6-1.9v-4.4H55v-1.1h1.4l0.2-1.9h1.2v1.9h2.3v1.1h-2.3
				v4.4c0,0.5,0.1,0.8,0.3,1s0.6,0.3,1.1,0.3H60v1.1H58.7z"/>
			<path class="st1" d="M62.6,90.2l2-4.3h-0.5L61,78.7h1.5l2.6,6.2l2.8-6.2h1.4l-5.2,11.5H62.6z"/>
			<path class="st1" d="M68.6,88.6l0.9-3.5h1.4l-1.4,3.5H68.6z"/>
			<path class="st1" d="M79.4,86.9c-0.7,0-1.2-0.1-1.7-0.3c-0.4-0.2-0.8-0.5-1-0.9s-0.3-0.8-0.3-1.2c0-0.8,0.3-1.4,0.9-1.9
				c0.6-0.4,1.5-0.7,2.5-0.7h2.3v-0.1c0-0.7-0.2-1.2-0.5-1.6c-0.4-0.4-0.9-0.5-1.5-0.5c-0.5,0-1,0.1-1.4,0.4s-0.6,0.6-0.7,1.1h-1.4
				c0-0.6,0.2-1.1,0.6-1.5c0.3-0.4,0.8-0.7,1.3-0.9c0.5-0.2,1-0.3,1.6-0.3c1.1,0,1.9,0.3,2.5,0.9s0.8,1.4,0.8,2.4v4.9h-1.2l-0.1-1.4
				c-0.2,0.5-0.6,0.8-1,1.1C80.7,86.7,80.2,86.9,79.4,86.9z M79.6,85.7c0.5,0,1-0.1,1.3-0.4c0.4-0.3,0.7-0.6,0.8-1
				c0.2-0.4,0.3-0.9,0.3-1.3l0,0h-2c-0.8,0-1.3,0.1-1.7,0.4c-0.3,0.3-0.5,0.6-0.5,1s0.2,0.8,0.5,1C78.7,85.6,79.1,85.7,79.6,85.7z"
				/>
			<path class="st1" d="M85.4,86.7v-7.9h1.2l0.1,1.4c0.3-0.5,0.6-0.9,1.1-1.2c0.5-0.3,1-0.4,1.6-0.4c0.9,0,1.7,0.3,2.2,0.9
				c0.6,0.6,0.8,1.4,0.8,2.6v4.6h-1.3v-4.5c0-1.6-0.7-2.5-2.1-2.5c-0.7,0-1.2,0.2-1.7,0.7s-0.7,1.2-0.7,2.1v4.1L85.4,86.7L85.4,86.7
				z"/>
			<path class="st1" d="M98.2,86.9c-0.8,0-1.5-0.2-2.1-0.5c-0.6-0.4-1-0.9-1.4-1.5s-0.5-1.3-0.5-2.1c0-0.8,0.2-1.5,0.5-2.1
				s0.8-1.1,1.4-1.5s1.3-0.5,2.1-0.5c0.7,0,1.2,0.1,1.7,0.4s0.9,0.6,1.2,1.1v-4.9h1.3v11.5h-1.2l-0.1-1.3c-0.3,0.4-0.6,0.7-1.1,1
				C99.5,86.7,98.9,86.9,98.2,86.9z M98.3,85.7c0.5,0,1-0.1,1.4-0.4c0.4-0.2,0.7-0.6,1-1c0.2-0.5,0.3-1,0.3-1.6s-0.1-1.1-0.3-1.6
				c-0.2-0.4-0.6-0.8-1-1s-0.9-0.4-1.4-0.4s-1,0.1-1.4,0.4c-0.4,0.2-0.7,0.6-1,1c-0.2,0.5-0.3,1-0.3,1.6s0.1,1.1,0.3,1.6
				c0.2,0.4,0.6,0.8,1,1C97.4,85.6,97.8,85.7,98.3,85.7z"/>
			<path class="st1" d="M108.9,86.7v-7.9h1.2l0.1,1.5c0.2-0.5,0.6-0.9,1.1-1.2s1.1-0.5,1.9-0.5V80h-0.4c-0.5,0-0.9,0.1-1.3,0.2
				c-0.4,0.2-0.7,0.5-0.9,0.8c-0.2,0.4-0.3,0.9-0.3,1.6v4h-1.4V86.7z"/>
			<path class="st1" d="M118,86.9c-0.8,0-1.4-0.2-2-0.5s-1.1-0.8-1.4-1.4s-0.5-1.4-0.5-2.2c0-0.8,0.2-1.6,0.5-2.2s0.8-1.1,1.4-1.5
				c0.6-0.3,1.3-0.5,2.1-0.5c0.8,0,1.4,0.2,2,0.5c0.6,0.4,1,0.8,1.3,1.4s0.4,1.2,0.4,1.8c0,0.1,0,0.2,0,0.4s0,0.2,0,0.4h-6.3
				c0,0.6,0.2,1.1,0.4,1.5s0.6,0.7,0.9,0.9c0.4,0.2,0.8,0.3,1.2,0.3c0.5,0,1-0.1,1.4-0.4s0.6-0.6,0.8-1h1.3
				c-0.2,0.7-0.6,1.4-1.2,1.8C119.7,86.6,118.9,86.9,118,86.9z M118,79.7c-0.6,0-1.2,0.2-1.7,0.6s-0.8,1-0.9,1.7h5
				c0-0.7-0.3-1.3-0.7-1.7C119.2,79.9,118.6,79.7,118,79.7z"/>
			<path class="st1" d="M127.1,86.9c-0.8,0-1.5-0.2-2.1-0.5c-0.6-0.4-1.1-0.9-1.4-1.5s-0.5-1.3-0.5-2.1c0-0.8,0.2-1.5,0.5-2.1
				s0.8-1.1,1.4-1.5s1.3-0.5,2.1-0.5c0.7,0,1.2,0.1,1.7,0.4s0.9,0.6,1.2,1.1v-4.9h1.3v11.5h-1.2l-0.1-1.3c-0.3,0.4-0.6,0.7-1.1,1
				C128.4,86.7,127.8,86.9,127.1,86.9z M127.2,85.7c0.5,0,1-0.1,1.4-0.4s0.7-0.6,1-1c0.2-0.5,0.3-1,0.3-1.6s-0.1-1.1-0.3-1.6
				c-0.2-0.4-0.5-0.8-1-1s-0.9-0.4-1.4-0.4s-1,0.1-1.4,0.4c-0.4,0.2-0.7,0.6-1,1c-0.2,0.5-0.3,1-0.3,1.6s0.1,1.1,0.3,1.6
				c0.2,0.4,0.6,0.8,1,1C126.2,85.6,126.7,85.7,127.2,85.7z"/>
			<path class="st1" d="M136.4,86.9c-0.9,0-1.7-0.3-2.2-0.9c-0.6-0.6-0.8-1.4-0.8-2.6v-4.6h1.3v4.5c0,1.6,0.7,2.5,2,2.5
				c0.7,0,1.3-0.2,1.7-0.7s0.7-1.2,0.7-2.1v-4.1h1.3v7.9h-1.2l-0.1-1.4c-0.2,0.5-0.6,0.9-1.1,1.2C137.6,86.7,137,86.9,136.4,86.9z"
				/>
			<path class="st1" d="M146.3,86.9c-0.8,0-1.4-0.2-2-0.5s-1.1-0.8-1.4-1.5c-0.4-0.6-0.5-1.4-0.5-2.2s0.2-1.6,0.5-2.2
				s0.8-1.1,1.4-1.5c0.6-0.3,1.3-0.5,2-0.5c0.9,0,1.7,0.2,2.4,0.7s1.1,1.2,1.2,2h-1.4c-0.1-0.5-0.4-0.9-0.8-1.1
				c-0.4-0.3-0.9-0.4-1.5-0.4c-0.4,0-0.9,0.1-1.3,0.3c-0.4,0.2-0.7,0.6-1,1c-0.2,0.4-0.4,1-0.4,1.7s0.1,1.2,0.4,1.7
				c0.2,0.4,0.6,0.8,1,1s0.8,0.3,1.3,0.3c0.6,0,1-0.1,1.5-0.4c0.4-0.3,0.7-0.7,0.8-1.2h1.4c-0.2,0.8-0.6,1.5-1.2,2
				C148.1,86.6,147.3,86.9,146.3,86.9z"/>
			<path class="st1" d="M155.4,86.9c-0.8,0-1.4-0.2-2-0.5s-1-0.8-1.4-1.4c-0.3-0.6-0.5-1.4-0.5-2.2c0-0.8,0.2-1.6,0.5-2.2
				s0.8-1.1,1.4-1.5c0.6-0.3,1.3-0.5,2.1-0.5s1.4,0.2,2,0.5c0.6,0.4,1,0.8,1.3,1.4s0.4,1.2,0.4,1.8c0,0.1,0,0.2,0,0.4
				c0,0.1,0,0.2,0,0.4h-6.3c0,0.6,0.2,1.1,0.4,1.5s0.6,0.7,0.9,0.9c0.4,0.2,0.8,0.3,1.2,0.3c0.6,0,1-0.1,1.4-0.4s0.7-0.6,0.8-1h1.3
				c-0.2,0.7-0.6,1.4-1.2,1.8C157.1,86.6,156.3,86.9,155.4,86.9z M155.4,79.7c-0.6,0-1.2,0.2-1.7,0.6s-0.8,1-0.9,1.7h5
				c0-0.7-0.3-1.3-0.7-1.7C156.6,79.9,156.1,79.7,155.4,79.7z"/>
			<path class="st1" d="M165.2,86.7v-7.9h1.2l0.1,1.1c0.3-0.4,0.6-0.8,1-1s0.9-0.4,1.4-0.4c0.6,0,1.2,0.1,1.6,0.4
				c0.4,0.3,0.8,0.6,1.1,1.2c0.3-0.5,0.7-0.9,1.1-1.1c0.5-0.3,1-0.4,1.6-0.4c0.9,0,1.7,0.3,2.3,0.9s0.8,1.4,0.8,2.6v4.6h-1.3v-4.5
				c0-0.8-0.2-1.4-0.5-1.9c-0.3-0.4-0.8-0.6-1.4-0.6c-0.6,0-1.2,0.2-1.6,0.7c-0.4,0.5-0.6,1.2-0.6,2.1v4.1h-1.3v-4.5
				c0-0.8-0.2-1.4-0.5-1.9c-0.3-0.4-0.8-0.6-1.4-0.6c-0.6,0-1.1,0.2-1.6,0.7c-0.4,0.5-0.6,1.2-0.6,2.1v4.1L165.2,86.7L165.2,86.7z"
				/>
			<path class="st1" d="M183.1,86.9c-0.8,0-1.4-0.2-2-0.5s-1.1-0.8-1.4-1.4c-0.4-0.6-0.5-1.4-0.5-2.2s0.2-1.6,0.5-2.2
				c0.4-0.6,0.8-1.1,1.4-1.4c0.6-0.3,1.3-0.5,2-0.5s1.4,0.2,2,0.5s1.1,0.8,1.4,1.4c0.4,0.6,0.5,1.4,0.5,2.2s-0.2,1.6-0.5,2.2
				c-0.4,0.6-0.8,1.1-1.4,1.4C184.5,86.7,183.8,86.9,183.1,86.9z M183.1,85.7c0.5,0,0.9-0.1,1.3-0.3c0.4-0.2,0.7-0.6,1-1
				c0.2-0.5,0.4-1,0.4-1.7s-0.1-1.2-0.4-1.7c-0.2-0.4-0.6-0.8-1-1s-0.8-0.3-1.3-0.3s-0.9,0.1-1.3,0.3c-0.4,0.2-0.7,0.6-1,1
				s-0.4,1-0.4,1.7s0.1,1.2,0.4,1.7s0.6,0.8,1,1C182.2,85.6,182.6,85.7,183.1,85.7z"/>
			<path class="st1" d="M191.8,86.7c-0.7,0-1.3-0.2-1.7-0.5s-0.6-1-0.6-1.9v-4.4h-1.4v-1.1h1.4l0.2-1.9h1.2v1.9h2.3v1.1h-2.3v4.4
				c0,0.5,0.1,0.8,0.3,1s0.6,0.3,1.1,0.3h0.8v1.1H191.8z"/>
			<path class="st1" d="M195.6,77c-0.3,0-0.5-0.1-0.7-0.3c-0.2-0.2-0.3-0.4-0.3-0.7c0-0.3,0.1-0.5,0.3-0.6c0.2-0.2,0.4-0.3,0.7-0.3
				s0.5,0.1,0.7,0.3c0.2,0.2,0.3,0.4,0.3,0.6c0,0.3-0.1,0.5-0.3,0.7C196.1,76.9,195.9,77,195.6,77z M195,86.7v-7.9h1.3v7.9H195z"/>
			<path class="st1" d="M200.9,86.7l-3-7.9h1.4l2.4,6.6l2.4-6.6h1.4l-3,7.9H200.9z"/>
			<path class="st1" d="M209.2,86.9c-0.7,0-1.2-0.1-1.6-0.3c-0.4-0.2-0.8-0.5-1-0.9s-0.3-0.8-0.3-1.2c0-0.8,0.3-1.4,0.9-1.9
				c0.6-0.4,1.5-0.7,2.5-0.7h2.1v-0.1c0-0.7-0.2-1.2-0.5-1.6c-0.4-0.4-0.8-0.5-1.5-0.5c-0.5,0-1,0.1-1.4,0.4s-0.6,0.6-0.7,1.1h-1.4
				c0.1-0.6,0.2-1.1,0.6-1.5c0.3-0.4,0.8-0.7,1.3-0.9c0.5-0.2,1-0.3,1.6-0.3c1.1,0,1.9,0.3,2.5,0.9s0.8,1.4,0.8,2.4v4.9h-1.2
				l-0.1-1.4c-0.2,0.5-0.6,0.8-1,1.1C210.5,86.7,209.9,86.9,209.2,86.9z M209.4,85.7c0.5,0,0.9-0.1,1.3-0.4c0.4-0.3,0.6-0.6,0.8-1
				s0.3-0.9,0.3-1.3l0,0h-2c-0.8,0-1.4,0.1-1.7,0.4s-0.5,0.6-0.5,1s0.1,0.8,0.5,1C208.4,85.6,208.9,85.7,209.4,85.7z"/>
			<path class="st1" d="M218.1,86.7c-0.7,0-1.3-0.2-1.7-0.5s-0.6-1-0.6-1.9v-4.4h-1.4v-1.1h1.4l0.2-1.9h1.2v1.9h2.3v1.1h-2.3v4.4
				c0,0.5,0.1,0.8,0.3,1s0.6,0.3,1.1,0.3h0.8v1.1H218.1z"/>
			<path class="st1" d="M222,77c-0.3,0-0.5-0.1-0.7-0.3c-0.2-0.2-0.3-0.4-0.3-0.7c0-0.3,0.1-0.5,0.3-0.6c0.2-0.2,0.4-0.3,0.7-0.3
				s0.5,0.1,0.7,0.3c0.2,0.2,0.3,0.4,0.3,0.6c0,0.3-0.1,0.5-0.3,0.7C222.5,76.9,222.3,77,222,77z M221.3,86.7v-7.9h1.3v7.9H221.3z"
				/>
			<path class="st1" d="M228.6,86.9c-0.8,0-1.4-0.2-2-0.5s-1.1-0.8-1.4-1.4c-0.4-0.6-0.5-1.4-0.5-2.2s0.2-1.6,0.5-2.2
				c0.4-0.6,0.8-1.1,1.4-1.4c0.6-0.3,1.3-0.5,2-0.5s1.4,0.2,2,0.5s1.1,0.8,1.4,1.4c0.4,0.6,0.5,1.4,0.5,2.2s-0.2,1.6-0.5,2.2
				c-0.4,0.6-0.8,1.1-1.4,1.4C230.1,86.7,229.4,86.9,228.6,86.9z M228.6,85.7c0.5,0,0.9-0.1,1.3-0.3c0.4-0.2,0.7-0.6,1-1
				c0.2-0.5,0.4-1,0.4-1.7s-0.1-1.2-0.4-1.7c-0.2-0.4-0.6-0.8-0.9-1c-0.4-0.2-0.8-0.3-1.3-0.3s-0.9,0.1-1.3,0.3
				c-0.4,0.2-0.7,0.6-1,1s-0.4,1-0.4,1.7s0.1,1.2,0.4,1.7s0.6,0.8,0.9,1C227.8,85.6,228.2,85.7,228.6,85.7z"/>
			<path class="st1" d="M234.5,86.7v-7.9h1.2l0.1,1.4c0.3-0.5,0.6-0.9,1.1-1.2s1-0.4,1.6-0.4c0.9,0,1.7,0.3,2.2,0.9
				c0.6,0.6,0.8,1.4,0.8,2.6v4.6h-1.3v-4.5c0-1.6-0.7-2.5-2-2.5c-0.7,0-1.2,0.2-1.7,0.7c-0.4,0.5-0.7,1.2-0.7,2.1v4.1L234.5,86.7
				L234.5,86.7z"/>
			<path class="st1" d="M244.1,86.8c-0.3,0-0.5-0.1-0.7-0.3c-0.2-0.2-0.3-0.4-0.3-0.7c0-0.3,0.1-0.5,0.3-0.6
				c0.2-0.2,0.4-0.3,0.7-0.3s0.5,0.1,0.6,0.3c0.2,0.2,0.3,0.4,0.3,0.6c0,0.3-0.1,0.5-0.3,0.7C244.6,86.7,244.4,86.8,244.1,86.8z"/>
			<path class="st1" d="M33.9,108.9c-0.8,0-1.5-0.1-2.1-0.5c-0.6-0.3-1.1-0.7-1.4-1.2s-0.5-1.1-0.5-1.9h1.4c0,0.4,0.1,0.8,0.3,1.2
				c0.2,0.4,0.5,0.7,0.9,0.9c0.4,0.2,0.9,0.3,1.4,0.3c0.8,0,1.3-0.2,1.8-0.5c0.4-0.4,0.6-0.8,0.6-1.4c0-0.4-0.1-0.8-0.3-1.1
				c-0.2-0.3-0.5-0.5-0.8-0.7s-0.7-0.3-1.1-0.5c-0.4-0.1-0.9-0.3-1.3-0.4c-0.9-0.3-1.5-0.7-1.9-1.1s-0.6-1-0.6-1.7
				c0-0.6,0.1-1.1,0.4-1.6s0.7-0.8,1.2-1.1c0.5-0.3,1.2-0.4,1.9-0.4s1.3,0.1,1.9,0.4c0.5,0.3,0.9,0.6,1.2,1.1s0.4,1,0.5,1.6H36
				c0-0.3-0.1-0.6-0.2-0.9c-0.2-0.3-0.4-0.6-0.7-0.7c-0.3-0.2-0.7-0.3-1.2-0.3c-0.6,0-1.1,0.1-1.5,0.5c-0.4,0.3-0.6,0.8-0.6,1.3
				s0.1,0.9,0.4,1.1c0.3,0.3,0.7,0.5,1.1,0.6c0.5,0.2,1.1,0.4,1.7,0.6c0.5,0.2,1,0.4,1.4,0.7c0.4,0.3,0.8,0.6,1,1s0.4,0.9,0.4,1.5
				c0,0.5-0.1,1-0.4,1.5c-0.3,0.5-0.7,0.9-1.3,1.2C35.4,108.7,34.7,108.9,33.9,108.9z"/>
			<path class="st1" d="M43.1,108.9c-0.8,0-1.4-0.2-2-0.5s-1.1-0.8-1.4-1.4c-0.3-0.6-0.5-1.4-0.5-2.2s0.2-1.6,0.5-2.2
				s0.8-1.1,1.4-1.4c0.6-0.3,1.3-0.5,2-0.5s1.4,0.2,2,0.5s1.1,0.8,1.4,1.4c0.4,0.6,0.5,1.4,0.5,2.2s-0.2,1.6-0.5,2.2
				c-0.4,0.6-0.8,1.1-1.4,1.4C44.5,108.7,43.8,108.9,43.1,108.9z M43.1,107.7c0.5,0,0.9-0.1,1.3-0.3c0.4-0.2,0.7-0.6,1-1
				c0.2-0.5,0.4-1,0.4-1.7s-0.1-1.2-0.4-1.7c-0.2-0.4-0.6-0.8-0.9-1c-0.4-0.2-0.8-0.3-1.3-0.3s-0.9,0.1-1.3,0.3
				c-0.4,0.2-0.7,0.6-1,1s-0.4,1-0.4,1.7s0.1,1.2,0.4,1.7s0.6,0.8,1,1C42.2,107.6,42.6,107.7,43.1,107.7z"/>
			<path class="st1" d="M54,99c-0.3,0-0.5-0.1-0.7-0.3C53.1,98.5,53,98.3,53,98c0-0.3,0.1-0.5,0.3-0.6c0.2-0.2,0.4-0.3,0.7-0.3
				s0.5,0.1,0.7,0.3c0.2,0.2,0.3,0.4,0.3,0.6c0,0.3-0.1,0.5-0.3,0.7C54.5,98.9,54.3,99,54,99z M53.3,108.7v-7.9h1.3v7.9H53.3z"/>
			<path class="st1" d="M57.4,108.7v-6.8h-1.2v-1.1h1.2v-1.4c0-0.8,0.2-1.3,0.6-1.7s0.9-0.5,1.7-0.5h0.8v1.1h-0.6
				c-0.4,0-0.7,0.1-0.9,0.2c-0.2,0.2-0.3,0.5-0.3,0.8v1.3h1.9v1.1h-1.9v6.8L57.4,108.7L57.4,108.7z"/>
			<path class="st1" d="M67.4,112.2l2-4.3h-0.5l-3.2-7.2h1.5l2.6,6.2l2.8-6.2h1.5l-5.2,11.5H67.4z"/>
			<path class="st1" d="M78.3,108.9c-0.8,0-1.4-0.2-2-0.5s-1.1-0.8-1.4-1.4c-0.4-0.6-0.5-1.4-0.5-2.2s0.2-1.6,0.5-2.2
				c0.4-0.6,0.8-1.1,1.4-1.4s1.3-0.5,2-0.5s1.4,0.2,2,0.5s1.1,0.8,1.4,1.4c0.4,0.6,0.5,1.4,0.5,2.2s-0.2,1.6-0.5,2.2
				c-0.4,0.6-0.8,1.1-1.4,1.4S79.1,108.9,78.3,108.9z M78.3,107.7c0.5,0,0.9-0.1,1.3-0.3c0.4-0.2,0.7-0.6,1-1c0.2-0.5,0.4-1,0.4-1.7
				s-0.1-1.2-0.4-1.7c-0.2-0.4-0.6-0.8-0.9-1c-0.4-0.2-0.8-0.3-1.3-0.3s-0.9,0.1-1.3,0.3c-0.4,0.2-0.7,0.6-1,1s-0.4,1-0.4,1.7
				s0.1,1.2,0.4,1.7s0.6,0.8,0.9,1C77.5,107.6,77.9,107.7,78.3,107.7z"/>
			<path class="st1" d="M87.1,108.9c-0.9,0-1.7-0.3-2.2-0.9c-0.6-0.6-0.8-1.4-0.8-2.6v-4.6h1.3v4.5c0,1.6,0.7,2.5,2,2.5
				c0.7,0,1.3-0.2,1.7-0.7c0.4-0.5,0.7-1.2,0.7-2.1v-4.1h1.3v7.9h-1.2l-0.1-1.4c-0.2,0.5-0.6,0.9-1.1,1.2
				C88.3,108.7,87.7,108.9,87.1,108.9z"/>
			<path class="st1" d="M92.8,101.1l0.9-3.6h1.5l-1.5,3.6H92.8z"/>
			<path class="st1" d="M96.8,108.7v-7.9H98l0.1,1.5c0.2-0.5,0.6-0.9,1.1-1.2s1.1-0.5,1.9-0.5v1.4h-0.4c-0.5,0-0.9,0.1-1.3,0.2
				c-0.4,0.2-0.7,0.5-0.9,0.8c-0.2,0.4-0.3,0.9-0.3,1.6v4h-1.4V108.7z"/>
			<path class="st1" d="M105.8,108.9c-0.8,0-1.4-0.2-2-0.5s-1-0.8-1.4-1.4c-0.3-0.6-0.5-1.4-0.5-2.2c0-0.8,0.2-1.6,0.5-2.2
				s0.8-1.1,1.4-1.5c0.6-0.3,1.3-0.5,2.1-0.5c0.8,0,1.4,0.2,2,0.5c0.6,0.4,1,0.8,1.3,1.4s0.4,1.2,0.4,1.8c0,0.1,0,0.2,0,0.4
				c0,0.1,0,0.2,0,0.4h-6.3c0,0.6,0.2,1.1,0.4,1.5s0.6,0.7,0.9,0.9c0.4,0.2,0.8,0.3,1.2,0.3c0.5,0,1-0.1,1.4-0.4s0.6-0.6,0.8-1h1.3
				c-0.2,0.7-0.6,1.4-1.2,1.8C107.5,108.6,106.8,108.9,105.8,108.9z M105.8,101.7c-0.6,0-1.2,0.2-1.7,0.6s-0.8,1-0.9,1.7h5
				c0-0.7-0.3-1.3-0.7-1.7C107.1,101.9,106.5,101.7,105.8,101.7z"/>
			<path class="st1" d="M119.3,108.9c-0.8,0-1.4-0.2-2-0.5s-1.1-0.8-1.4-1.5c-0.4-0.6-0.5-1.4-0.5-2.2s0.2-1.6,0.5-2.2
				s0.8-1.1,1.4-1.5c0.6-0.3,1.3-0.5,2-0.5c0.9,0,1.7,0.2,2.4,0.7c0.6,0.5,1.1,1.2,1.2,2h-1.4c-0.1-0.5-0.4-0.9-0.8-1.1
				c-0.4-0.3-0.9-0.4-1.5-0.4c-0.5,0-0.9,0.1-1.3,0.3c-0.4,0.2-0.7,0.6-1,1c-0.2,0.4-0.4,1-0.4,1.7s0.1,1.2,0.4,1.7
				c0.2,0.4,0.6,0.8,1,1s0.8,0.3,1.3,0.3s1-0.1,1.5-0.4s0.7-0.7,0.8-1.2h1.4c-0.2,0.8-0.6,1.5-1.2,2S120.2,108.9,119.3,108.9z"/>
			<path class="st1" d="M127.6,108.9c-0.9,0-1.7-0.3-2.2-0.9c-0.6-0.6-0.8-1.4-0.8-2.6v-4.6h1.3v4.5c0,1.6,0.7,2.5,2,2.5
				c0.7,0,1.3-0.2,1.7-0.7c0.5-0.5,0.7-1.2,0.7-2.1v-4.1h1.3v7.9h-1.2l-0.1-1.4c-0.2,0.5-0.6,0.9-1.1,1.2
				C128.8,108.7,128.2,108.9,127.6,108.9z"/>
			<path class="st1" d="M133.9,108.7v-7.9h1.2l0.1,1.5c0.2-0.5,0.6-0.9,1.1-1.2s1.1-0.5,1.9-0.5v1.4h-0.4c-0.5,0-0.9,0.1-1.3,0.2
				c-0.4,0.2-0.7,0.5-0.9,0.8c-0.2,0.4-0.4,0.9-0.4,1.6v4h-1.3V108.7z"/>
			<path class="st1" d="M139.7,108.7v-7.9h1.2l0.1,1.5c0.2-0.5,0.6-0.9,1.1-1.2s1.1-0.5,1.9-0.5v1.4h-0.4c-0.5,0-0.9,0.1-1.3,0.2
				c-0.4,0.2-0.7,0.5-0.9,0.8c-0.2,0.4-0.4,0.9-0.4,1.6v4h-1.3V108.7z"/>
			<path class="st1" d="M148.8,108.9c-0.8,0-1.4-0.2-2-0.5s-1.1-0.8-1.4-1.4c-0.3-0.6-0.5-1.4-0.5-2.2c0-0.8,0.2-1.6,0.5-2.2
				s0.8-1.1,1.4-1.5c0.6-0.3,1.3-0.5,2.1-0.5s1.4,0.2,2,0.5c0.6,0.4,1,0.8,1.3,1.4s0.4,1.2,0.4,1.8c0,0.1,0,0.2,0,0.4
				c0,0.1,0,0.2,0,0.4h-6.3c0,0.6,0.2,1.1,0.4,1.5s0.6,0.7,0.9,0.9c0.4,0.2,0.8,0.3,1.2,0.3c0.6,0,1-0.1,1.4-0.4s0.7-0.6,0.8-1h1.3
				c-0.2,0.7-0.6,1.4-1.2,1.8C150.5,108.6,149.7,108.9,148.8,108.9z M148.8,101.7c-0.6,0-1.2,0.2-1.7,0.6s-0.8,1-0.9,1.7h5
				c0-0.7-0.3-1.3-0.7-1.7C150,101.9,149.4,101.7,148.8,101.7z"/>
			<path class="st1" d="M154.3,108.7v-7.9h1.2l0.1,1.4c0.3-0.5,0.6-0.9,1.1-1.2c0.5-0.3,1-0.4,1.6-0.4c0.9,0,1.7,0.3,2.2,0.9
				c0.6,0.6,0.8,1.4,0.8,2.6v4.6h-1.2v-4.5c0-1.6-0.7-2.5-2.1-2.5c-0.7,0-1.2,0.2-1.7,0.7c-0.4,0.5-0.7,1.2-0.7,2.1v4.1L154.3,108.7
				L154.3,108.7z"/>
			<path class="st1" d="M166.6,108.7c-0.7,0-1.3-0.2-1.7-0.5c-0.4-0.4-0.6-1-0.6-1.9v-4.4h-1.4v-1.1h1.4l0.2-1.9h1.2v1.9h2.3v1.1
				h-2.3v4.4c0,0.5,0.1,0.8,0.3,1s0.6,0.3,1.1,0.3h0.8v1.1H166.6z"/>
			<path class="st1" d="M169.6,108.7V97.2h1.3v11.5H169.6z"/>
			<path class="st1" d="M174.1,112.2l2-4.3h-0.5l-3.2-7.2h1.5l2.6,6.2l2.8-6.2h1.4l-5.2,11.5H174.1z"/>
			<path class="st1" d="M187.1,99c-0.3,0-0.5-0.1-0.7-0.3c-0.2-0.2-0.3-0.4-0.3-0.7c0-0.3,0.1-0.5,0.3-0.6c0.2-0.2,0.4-0.3,0.7-0.3
				s0.5,0.1,0.7,0.3c0.2,0.2,0.3,0.4,0.3,0.6c0,0.3-0.1,0.5-0.3,0.7C187.6,98.9,187.4,99,187.1,99z M186.5,108.7v-7.9h1.3v7.9H186.5
				z"/>
			<path class="st1" d="M190.1,108.7v-7.9h1.2l0.1,1.4c0.3-0.5,0.6-0.9,1.1-1.2s1-0.4,1.6-0.4c0.9,0,1.7,0.3,2.2,0.9
				c0.6,0.6,0.8,1.4,0.8,2.6v4.6h-1.3v-4.5c0-1.6-0.7-2.5-2.1-2.5c-0.7,0-1.2,0.2-1.7,0.7s-0.7,1.2-0.7,2.1v4.1L190.1,108.7
				L190.1,108.7z"/>
			<path class="st1" d="M201.9,108.9c-0.7,0-1.2-0.1-1.6-0.3c-0.4-0.2-0.8-0.5-1-0.9s-0.3-0.8-0.3-1.2c0-0.8,0.3-1.4,0.9-1.9
				c0.6-0.4,1.5-0.7,2.5-0.7h2.1v-0.1c0-0.7-0.2-1.2-0.5-1.6c-0.4-0.4-0.8-0.5-1.5-0.5c-0.5,0-1,0.1-1.4,0.4s-0.6,0.6-0.7,1.1H199
				c0.1-0.6,0.2-1.1,0.6-1.5c0.3-0.4,0.8-0.7,1.3-0.9c0.5-0.2,1-0.3,1.6-0.3c1.1,0,1.9,0.3,2.5,0.9s0.8,1.4,0.8,2.4v4.9h-1.2
				l-0.1-1.4c-0.2,0.5-0.6,0.8-1,1.1C203.2,108.7,202.7,108.9,201.9,108.9z M202.1,107.7c0.5,0,1-0.1,1.3-0.4c0.4-0.3,0.6-0.6,0.8-1
				s0.3-0.9,0.3-1.3l0,0h-2c-0.8,0-1.4,0.1-1.7,0.4s-0.5,0.6-0.5,1s0.1,0.8,0.5,1C201.2,107.6,201.6,107.7,202.1,107.7z"/>
			<path class="st1" d="M211.6,108.9c-0.8,0-1.4-0.2-2-0.5s-1.1-0.8-1.4-1.5c-0.3-0.6-0.5-1.4-0.5-2.2s0.2-1.6,0.5-2.2
				c0.4-0.6,0.8-1.1,1.4-1.5c0.6-0.3,1.3-0.5,2-0.5c0.9,0,1.7,0.2,2.4,0.7c0.6,0.5,1,1.2,1.2,2h-1.4c-0.1-0.5-0.4-0.9-0.8-1.1
				c-0.4-0.3-0.9-0.4-1.5-0.4c-0.4,0-0.9,0.1-1.3,0.3c-0.4,0.2-0.7,0.6-1,1c-0.2,0.4-0.4,1-0.4,1.7s0.1,1.2,0.4,1.7
				c0.2,0.4,0.6,0.8,1,1s0.8,0.3,1.3,0.3c0.6,0,1-0.1,1.5-0.4s0.7-0.7,0.8-1.2h1.4c-0.2,0.8-0.6,1.5-1.2,2
				C213.3,108.6,212.5,108.9,211.6,108.9z"/>
			<path class="st1" d="M220,108.7c-0.7,0-1.3-0.2-1.7-0.5s-0.6-1-0.6-1.9v-4.4h-1.4v-1.1h1.4l0.2-1.9h1.2v1.9h2.3v1.1h-2.3v4.4
				c0,0.5,0.1,0.8,0.3,1s0.6,0.3,1.1,0.3h0.8v1.1H220z"/>
			<path class="st1" d="M223.9,99c-0.3,0-0.5-0.1-0.7-0.3c-0.2-0.2-0.3-0.4-0.3-0.7c0-0.3,0.1-0.5,0.3-0.6c0.2-0.2,0.4-0.3,0.7-0.3
				s0.5,0.1,0.7,0.3c0.2,0.2,0.3,0.4,0.3,0.6c0,0.3-0.1,0.5-0.3,0.7C224.3,98.9,224.1,99,223.9,99z M223.2,108.7v-7.9h1.3v7.9H223.2
				z"/>
			<path class="st1" d="M229.2,108.7l-3-7.9h1.4l2.4,6.6l2.4-6.6h1.4l-3,7.9H229.2z"/>
			<path class="st1" d="M238.4,108.9c-0.8,0-1.4-0.2-2-0.5s-1.1-0.8-1.4-1.4c-0.3-0.6-0.5-1.4-0.5-2.2c0-0.8,0.2-1.6,0.5-2.2
				s0.8-1.1,1.4-1.5c0.6-0.3,1.3-0.5,2.1-0.5s1.4,0.2,2,0.5c0.6,0.4,1,0.8,1.3,1.4s0.5,1.2,0.5,1.8c0,0.1,0,0.2,0,0.4s0,0.2,0,0.4
				H236c0,0.6,0.2,1.1,0.4,1.5s0.6,0.7,0.9,0.9c0.4,0.2,0.8,0.3,1.2,0.3c0.6,0,1-0.1,1.4-0.4s0.6-0.6,0.8-1h1.3
				c-0.2,0.7-0.6,1.4-1.2,1.8C240.1,108.6,239.3,108.9,238.4,108.9z M238.4,101.7c-0.6,0-1.2,0.2-1.7,0.6s-0.8,1-0.9,1.7h5
				c0-0.7-0.3-1.3-0.7-1.7C239.6,101.9,239,101.7,238.4,101.7z"/>
			<path class="st1" d="M242.8,110.6l0.9-3.5h1.4l-1.4,3.5H242.8z"/>
			<path class="st1" d="M32.9,170.1c-0.7,0-1.2-0.1-1.7-0.3c-0.4-0.2-0.8-0.5-1-0.9s-0.3-0.8-0.3-1.2c0-0.8,0.3-1.4,0.9-1.9
				s1.5-0.7,2.5-0.7h2.1V165c0-0.7-0.2-1.2-0.5-1.6s-0.9-0.5-1.5-0.5c-0.5,0-1,0.1-1.3,0.4c-0.3,0.3-0.6,0.6-0.7,1.1h-1.3
				c0-0.6,0.2-1.1,0.6-1.5c0.3-0.4,0.8-0.7,1.3-0.9c0.5-0.2,1-0.3,1.6-0.3c1.1,0,1.9,0.3,2.5,0.9s0.8,1.4,0.8,2.4v4.9h-1.2l-0.1-1.4
				c-0.2,0.5-0.5,0.8-1,1.1C34.2,169.9,33.6,170.1,32.9,170.1z M33.1,168.9c0.5,0,0.9-0.1,1.3-0.4c0.4-0.3,0.6-0.6,0.8-1
				s0.3-0.9,0.3-1.3l0,0h-2c-0.8,0-1.3,0.1-1.7,0.4c-0.3,0.3-0.5,0.6-0.5,1s0.2,0.8,0.5,1C32.1,168.8,32.5,168.9,33.1,168.9z"/>
			<path class="st1" d="M38.9,169.9V162h1.2l0.1,1.4c0.3-0.5,0.6-0.9,1.1-1.2c0.5-0.3,1-0.4,1.6-0.4c0.9,0,1.7,0.3,2.2,0.9
				c0.6,0.6,0.8,1.4,0.8,2.6v4.6h-1.3v-4.5c0-1.6-0.7-2.5-2.1-2.5c-0.7,0-1.2,0.2-1.7,0.7s-0.7,1.2-0.7,2.1v4.1L38.9,169.9
				L38.9,169.9z"/>
			<path class="st1" d="M51.6,170.1c-0.8,0-1.5-0.2-2.1-0.5c-0.6-0.4-1-0.9-1.4-1.5c-0.3-0.6-0.5-1.3-0.5-2.1s0.2-1.5,0.5-2.1
				s0.8-1.1,1.4-1.5c0.6-0.4,1.3-0.5,2.1-0.5c0.6,0,1.2,0.1,1.7,0.4s0.9,0.6,1.2,1.1v-4.9h1.3V170h-1.2l-0.1-1.3
				c-0.3,0.4-0.6,0.7-1.1,1C53,169.9,52.4,170.1,51.6,170.1z M51.8,168.9c0.5,0,1-0.1,1.4-0.4c0.4-0.2,0.7-0.6,1-1
				c0.2-0.5,0.3-1,0.3-1.6s-0.1-1.1-0.3-1.6s-0.5-0.8-1-1c-0.4-0.2-0.9-0.4-1.4-0.4s-1,0.1-1.4,0.4c-0.4,0.2-0.7,0.6-1,1
				s-0.3,1-0.3,1.6s0.1,1.1,0.3,1.6c0.2,0.4,0.6,0.8,1,1C50.8,168.8,51.3,168.9,51.8,168.9z"/>
			<path class="st1" d="M65.5,167.4c-0.4,0-0.9-0.1-1.2-0.2l-0.8,0.8c0.1,0.1,0.3,0.2,0.4,0.2s0.4,0.1,0.8,0.2s0.8,0.1,1.4,0.1
				c1.1,0.1,1.8,0.3,2.3,0.7c0.5,0.4,0.7,1,0.7,1.6c0,0.5-0.1,0.9-0.4,1.3c-0.2,0.4-0.6,0.8-1.1,1c-0.5,0.3-1.2,0.4-2,0.4
				c-0.7,0-1.3-0.1-1.9-0.3c-0.5-0.2-1-0.5-1.3-0.8s-0.5-0.9-0.5-1.4c0-0.3,0.1-0.6,0.2-1c0.2-0.3,0.5-0.7,0.9-1
				c-0.2-0.1-0.4-0.2-0.6-0.3c-0.2-0.1-0.3-0.2-0.5-0.4v-0.4l1.4-1.3c-0.6-0.5-0.9-1.2-0.9-2.1c0-0.5,0.1-1,0.4-1.4
				c0.2-0.4,0.6-0.8,1.1-1s1-0.4,1.7-0.4c0.5,0,0.9,0.1,1.2,0.2h2.9v1l-1.5,0.1c0.3,0.5,0.5,1,0.5,1.5s-0.1,1-0.4,1.4
				c-0.2,0.4-0.6,0.8-1.1,1C66.7,167.2,66.1,167.4,65.5,167.4z M63.1,170.9c0,0.5,0.2,0.9,0.7,1.2c0.4,0.3,1,0.4,1.7,0.4
				s1.2-0.1,1.6-0.4s0.6-0.7,0.6-1.1c0-0.3-0.1-0.6-0.4-0.9s-0.8-0.4-1.5-0.4c-0.6,0-1.1-0.1-1.5-0.2c-0.4,0.2-0.7,0.5-0.9,0.8
				C63.2,170.4,63.1,170.7,63.1,170.9z M65.5,166.3c0.6,0,1-0.2,1.3-0.4c0.3-0.3,0.5-0.7,0.5-1.3c0-0.5-0.2-1-0.5-1.3
				s-0.8-0.4-1.3-0.4c-0.6,0-1,0.2-1.4,0.4c-0.3,0.3-0.5,0.7-0.5,1.3s0.2,1,0.5,1.3C64.4,166.1,64.9,166.3,65.5,166.3z"/>
			<path class="st1" d="M71.2,169.9V162h1.2l0.1,1.5c0.2-0.5,0.6-0.9,1.1-1.2s1.1-0.5,1.9-0.5v1.4h-0.4c-0.5,0-0.9,0.1-1.3,0.2
				c-0.4,0.2-0.7,0.5-0.9,0.8c-0.2,0.4-0.3,0.9-0.3,1.6v4h-1.4V169.9z"/>
			<path class="st1" d="M79.6,170.1c-0.7,0-1.2-0.1-1.7-0.3c-0.4-0.2-0.8-0.5-1-0.9s-0.3-0.8-0.3-1.2c0-0.8,0.3-1.4,0.9-1.9
				c0.6-0.4,1.5-0.7,2.5-0.7h2.1V165c0-0.7-0.2-1.2-0.5-1.6s-0.8-0.5-1.5-0.5c-0.5,0-1,0.1-1.3,0.4c-0.4,0.3-0.6,0.6-0.7,1.1h-1.4
				c0.1-0.6,0.2-1.1,0.6-1.5c0.3-0.4,0.8-0.7,1.3-0.9c0.5-0.2,1-0.3,1.6-0.3c1.1,0,1.9,0.3,2.5,0.9s0.8,1.4,0.8,2.4v4.9h-1.2
				l-0.1-1.4c-0.2,0.5-0.5,0.8-1,1.1C80.9,169.9,80.3,170.1,79.6,170.1z M79.8,168.9c0.5,0,1-0.1,1.3-0.4c0.4-0.3,0.7-0.6,0.8-1
				c0.2-0.4,0.3-0.9,0.3-1.3l0,0h-2c-0.8,0-1.3,0.1-1.7,0.4c-0.3,0.3-0.5,0.6-0.5,1s0.2,0.8,0.5,1C78.8,168.8,79.3,168.9,79.8,168.9
				z"/>
			<path class="st1" d="M89.2,170.1c-0.8,0-1.5-0.2-2.1-0.5c-0.6-0.4-1.1-0.9-1.4-1.5s-0.5-1.3-0.5-2.1s0.2-1.5,0.5-2.1
				s0.8-1.1,1.4-1.5s1.3-0.5,2.1-0.5c0.7,0,1.2,0.1,1.7,0.4s0.9,0.6,1.2,1.1v-4.9h1.3V170h-1.2l-0.1-1.3c-0.3,0.4-0.6,0.7-1.1,1
				S89.9,170.1,89.2,170.1z M89.4,168.9c0.5,0,1-0.1,1.4-0.4c0.4-0.2,0.7-0.6,1-1c0.2-0.5,0.3-1,0.3-1.6s-0.1-1.1-0.3-1.6
				c-0.2-0.5-0.6-0.8-1-1s-0.9-0.4-1.4-0.4s-1,0.1-1.4,0.4c-0.4,0.2-0.7,0.6-1,1c-0.2,0.5-0.3,1-0.3,1.6s0.1,1.1,0.3,1.6
				c0.2,0.4,0.5,0.8,1,1C88.4,168.8,88.8,168.9,89.4,168.9z"/>
			<path class="st1" d="M98.6,170.1c-0.9,0-1.7-0.3-2.2-0.9c-0.6-0.6-0.8-1.5-0.8-2.6V162h1.3v4.5c0,1.7,0.7,2.5,2,2.5
				c0.7,0,1.3-0.2,1.7-0.7c0.4-0.5,0.7-1.2,0.7-2.1v-4.1h1.3v7.9h-1.2l-0.1-1.4c-0.2,0.5-0.6,0.9-1.1,1.2
				C99.7,169.9,99.2,170.1,98.6,170.1z"/>
			<path class="st1" d="M107.5,170.1c-0.7,0-1.2-0.1-1.7-0.3c-0.4-0.2-0.8-0.5-1-0.9s-0.3-0.8-0.3-1.2c0-0.8,0.3-1.4,0.9-1.9
				c0.6-0.4,1.5-0.7,2.5-0.7h2.1V165c0-0.7-0.2-1.2-0.5-1.6s-0.8-0.5-1.5-0.5c-0.5,0-1,0.1-1.3,0.4c-0.4,0.3-0.6,0.6-0.7,1.1h-1.4
				c0.1-0.6,0.2-1.1,0.6-1.5c0.3-0.4,0.8-0.7,1.3-0.9c0.5-0.2,1-0.3,1.6-0.3c1.1,0,1.9,0.3,2.5,0.9s0.8,1.4,0.8,2.4v4.9h-1.2
				l-0.1-1.4c-0.2,0.5-0.6,0.8-1,1.1C108.8,169.9,108.2,170.1,107.5,170.1z M107.7,168.9c0.5,0,0.9-0.1,1.3-0.4s0.6-0.6,0.8-1
				s0.3-0.9,0.3-1.3l0,0h-2c-0.8,0-1.3,0.1-1.7,0.4c-0.3,0.3-0.5,0.6-0.5,1s0.2,0.8,0.5,1C106.7,168.8,107.1,168.9,107.7,168.9z"/>
			<path class="st1" d="M113.5,169.9v-11.5h1.3v11.5H113.5z"/>
			<path class="st1" d="M117,169.9v-11.5h1.3v11.5H117z"/>
			<path class="st1" d="M121.4,173.4l2-4.3h-0.5l-3.2-7.2h1.5l2.6,6.2l2.8-6.2h1.4l-5.2,11.5H121.4z"/>
			<path class="st1" d="M34.5,192.1c-0.6,0-1.2-0.1-1.7-0.4s-0.9-0.6-1.2-1.1l-0.1,1.3h-1.2v-11.5h1.3v4.9c0.3-0.4,0.6-0.7,1.1-1
				s1.1-0.5,1.8-0.5c0.8,0,1.5,0.2,2.1,0.5c0.6,0.4,1,0.9,1.4,1.5c0.3,0.6,0.5,1.3,0.5,2.1s-0.2,1.5-0.5,2.1s-0.8,1.1-1.4,1.5
				C35.9,191.9,35.3,192.1,34.5,192.1z M34.3,190.9c0.5,0,1-0.1,1.4-0.4s0.7-0.6,1-1c0.2-0.5,0.3-1,0.3-1.6s-0.1-1.1-0.3-1.6
				s-0.5-0.8-1-1s-0.9-0.4-1.4-0.4s-1,0.1-1.4,0.4s-0.7,0.6-1,1c-0.2,0.5-0.3,1-0.3,1.6s0.1,1.1,0.3,1.6c0.2,0.4,0.6,0.8,1,1
				S33.8,190.9,34.3,190.9z"/>
			<path class="st1" d="M43.2,192.1c-0.9,0-1.7-0.3-2.2-0.9c-0.6-0.6-0.8-1.5-0.8-2.6V184h1.3v4.5c0,1.7,0.7,2.5,2,2.5
				c0.7,0,1.3-0.2,1.7-0.7c0.5-0.5,0.7-1.2,0.7-2.1v-4.1h1.3v7.9H46l-0.1-1.4c-0.2,0.5-0.6,0.9-1.1,1.2
				C44.3,191.9,43.8,192.1,43.2,192.1z"/>
			<path class="st1" d="M50.2,182.2c-0.3,0-0.5-0.1-0.7-0.3c-0.2-0.2-0.3-0.4-0.3-0.7s0.1-0.5,0.3-0.6c0.2-0.2,0.4-0.3,0.7-0.3
				s0.5,0.1,0.7,0.3c0.2,0.2,0.3,0.4,0.3,0.6c0,0.3-0.1,0.5-0.3,0.7C50.7,182.1,50.5,182.2,50.2,182.2z M49.6,191.9V184h1.3v7.9
				H49.6z"/>
			<path class="st1" d="M53.3,191.9v-11.5h1.3v11.5H53.3z"/>
			<path class="st1" d="M60.4,192.1c-0.8,0-1.5-0.2-2.1-0.5c-0.6-0.4-1.1-0.9-1.4-1.5c-0.3-0.6-0.5-1.3-0.5-2.1s0.2-1.5,0.5-2.1
				s0.8-1.1,1.4-1.5c0.6-0.4,1.3-0.5,2.1-0.5c0.7,0,1.2,0.1,1.7,0.4s0.9,0.6,1.2,1.1v-4.9h1.3V192h-1.2l-0.1-1.3
				c-0.3,0.4-0.6,0.7-1.1,1C61.7,191.9,61.1,192.1,60.4,192.1z M60.6,190.9c0.5,0,1-0.1,1.4-0.4c0.4-0.2,0.7-0.6,1-1
				c0.2-0.5,0.3-1,0.3-1.6s-0.1-1.1-0.3-1.6s-0.6-0.8-1-1s-0.9-0.4-1.4-0.4s-1,0.1-1.4,0.4c-0.4,0.2-0.7,0.6-1,1
				c-0.2,0.5-0.3,1-0.3,1.6s0.1,1.1,0.3,1.6c0.2,0.4,0.6,0.8,1,1C59.6,190.8,60,190.9,60.6,190.9z"/>
			<path class="st1" d="M74,192.1c-0.9,0-1.7-0.3-2.2-0.9c-0.6-0.6-0.8-1.5-0.8-2.6V184h1.3v4.5c0,1.7,0.7,2.5,2,2.5
				c0.7,0,1.3-0.2,1.7-0.7c0.4-0.5,0.7-1.2,0.7-2.1v-4.1H78v7.9h-1.2l-0.1-1.4c-0.2,0.5-0.6,0.9-1.1,1.2
				C75.1,191.9,74.6,192.1,74,192.1z"/>
			<path class="st1" d="M80.2,195.4v-11.5h1.2l0.1,1.3c0.3-0.4,0.6-0.7,1.1-1s1.1-0.5,1.8-0.5c0.8,0,1.5,0.2,2.1,0.5
				c0.6,0.4,1,0.9,1.4,1.5c0.3,0.6,0.5,1.3,0.5,2.1c0,0.8-0.2,1.5-0.5,2.1s-0.8,1.1-1.4,1.5s-1.3,0.5-2.1,0.5
				c-0.7,0-1.2-0.1-1.7-0.4s-0.9-0.6-1.2-1.1v4.8h-1.3V195.4z M84.3,190.9c0.5,0,1-0.1,1.4-0.4c0.4-0.2,0.7-0.6,1-1
				c0.2-0.5,0.3-1,0.3-1.6s-0.1-1.1-0.3-1.6c-0.2-0.5-0.6-0.8-1-1s-0.9-0.4-1.4-0.4s-1,0.1-1.4,0.4c-0.4,0.2-0.7,0.6-1,1
				c-0.2,0.5-0.4,1-0.4,1.6s0.1,1.1,0.4,1.6c0.2,0.4,0.5,0.8,1,1C83.3,190.8,83.8,190.9,84.3,190.9z"/>
			<path class="st1" d="M90.8,191.9c-0.3,0-0.5-0.1-0.7-0.3c-0.2-0.2-0.3-0.4-0.3-0.6c0-0.3,0.1-0.5,0.3-0.7
				c0.2-0.2,0.4-0.3,0.7-0.3s0.5,0.1,0.7,0.3c0.2,0.2,0.3,0.4,0.3,0.7c0,0.3-0.1,0.5-0.3,0.6C91.2,191.9,91,191.9,90.8,191.9z"/>
			<path class="st2" d="M34,122.1c0.4-0.2,0.8-0.3,1.3-0.3c0.3,0,0.6,0,0.8,0.1c0.9,0.1,1.5,0.2,1.8,0.4c0.3,0.1,0.6,0.5,0.9,0.9
				c0.3,0.5,0.5,1,0.5,1.5s-0.2,1-0.6,1.4c-0.4,0.4-0.7,0.6-1.1,0.6c-0.4,0-0.8-0.3-1.1-0.8c-0.3-0.4-0.6-0.6-0.9-0.6
				c-0.3,0-0.5,0.2-0.8,0.6s-0.4,0.8-0.5,1.3v0.2c0,1.7,1.3,4.8,3.8,9.3c0.4,0.7,0.8,2.1,1.2,4c0,0.1,0,0.3,0,0.6c0,1.7-0.3,3-1,3.9
				c-0.3,0.4-0.8,0.8-1.5,1c-0.7,0.3-1.3,0.5-1.9,0.5c-0.1,0-0.1,0-0.2,0c-0.1,0-0.1,0-0.2,0c-0.7-0.1-1.5-0.7-2.5-1.6
				c-1-0.9-1.5-1.7-1.5-2.2c0-0.2,0.2-0.5,0.5-0.9c0.3-0.3,0.7-0.5,1-0.6c0.1,0,0.2,0,0.3,0c0.3,0,0.9,0.5,1.6,1.5
				c0.3,0.4,0.6,0.6,0.9,0.6c0.3,0,0.5-0.2,0.7-0.5c0.1-0.1,0.1-0.3,0.1-0.7c0-1.8-0.8-4.3-2.4-7.7c-1.5-3.2-2.2-5.5-2.2-7
				c0-0.7,0.1-1.3,0.4-1.9c0.5-1.2,0.9-2,1.1-2.4C32.9,122.8,33.4,122.4,34,122.1z"/>
			<path class="st2" d="M45,121.2c0.4-0.4,1.1-0.5,2.1-0.5h1c1.7,0.1,2.6,0.1,3,0.2c0.2,0.1,0.6,0.1,1.3,0.2c0.7,0,1.2,0.2,1.5,0.4
				s0.5,0.6,0.5,1.2s-0.2,1-0.4,1.2s-0.6,0.4-1.1,0.5c-0.6,0.1-1,0.2-1.1,0.3c-0.2,0.2-0.2,3.1-0.2,8.7c0,3.9,0.1,6.7,0.1,8.3
				c0.1,1.3,0.1,2,0.1,2.1c0,0.6-0.1,1.2-0.4,1.6c-0.3,0.6-0.8,0.9-1.5,0.9c-0.5,0-0.9-0.1-1.4-0.4l-0.9-0.5l0.1-10.4
				c0.1-2.7,0.1-5.4,0.1-8c0-1.6-0.1-2.5-0.4-2.7c-0.4-0.2-0.6-0.3-0.7-0.2c-0.1,0-0.3,0-0.5,0c-0.6,0-1-0.2-1.4-0.5
				s-0.5-0.7-0.5-1.1C44.2,122,44.5,121.6,45,121.2z"/>
			<path class="st2" d="M62.7,125.4c0.8-0.8,2-1.2,3.6-1.2c0.7,0,1.3,0.1,1.7,0.4c0.6,0.3,1.1,1.2,1.4,2.6c0.2,1.2,0.5,3.1,0.8,5.9
				s0.5,4.9,0.6,6.4c0,1.4,0.1,3,0.3,4.8c0.2,1.8,0.3,2.8,0.4,2.9c0,0,0.1,0.1,0.1,0.2c0,0.3-0.1,0.6-0.4,1
				c-0.2,0.4-0.5,0.6-0.7,0.7c-0.1,0-0.2,0-0.4,0c-0.5,0-1-0.1-1.5-0.3c-0.6-0.2-0.9-0.4-1-0.7c-0.1-0.2-0.3-1.1-0.4-2.5
				c-0.2-1.4-0.2-2.6-0.2-3.5c0-0.8-0.1-1.3-0.3-1.4c-0.1-0.1-0.8-0.1-2.1-0.1c-1,0-1.6,0.1-1.6,0.1c0,0.2-0.1,0.3-0.1,0.5
				c0,0.6,0.1,1.5,0.1,2.5c0.1,1.2,0.1,2.2,0.1,2.9v0.4c0,0.2-0.2,0.4-0.7,0.6c-0.4,0.2-0.8,0.2-1.2,0.2c-0.2,0-0.3,0-0.4,0
				c-1-0.3-1.6-0.7-1.7-1.3c0,0,0-0.1,0-0.2s0-0.2,0-0.3c0-1.3,0.2-4,0.5-8.2s0.5-6.6,0.7-7.3c0.2-0.8,0.5-1.8,1.1-2.9
				C61.8,126.5,62.3,125.8,62.7,125.4z M65.9,130.1c-0.2-0.9-0.4-1.3-0.6-1.3s-0.5,0.3-0.7,1c-0.6,1.2-0.9,2.9-1.1,5
				c-0.1,0.9-0.1,1.4-0.1,1.5c0,0.4,0.1,0.7,0.2,0.8c0.2,0.1,0.6,0.2,1.2,0.2c0.9,0,1.4-0.1,1.5-0.3c0.1-0.1,0.1-0.5,0.1-1.2
				C66.4,133.7,66.2,131.8,65.9,130.1z"/>
			<path class="st2" d="M77.6,121.3c0.6-0.2,1.2-0.3,2.1-0.3s1.6,0.1,2,0.3c0.8,0.3,1.4,1,1.8,1.8c0.2,0.4,0.4,1.2,0.5,2.4
				c0.2,1.2,0.2,2.2,0.2,3.1c0,0.4,0,0.7-0.1,0.9c-0.1,0.8-0.3,1.6-0.6,2.6c-0.3,1-0.6,1.4-0.7,1.4c-0.2,0-0.4,0.2-0.4,0.6
				c0,0.3,0.1,0.6,0.3,1c0.5,0.7,1.2,2,2.1,3.9s1.4,3.1,1.5,3.6c0,0.2,0.1,0.4,0.1,0.6c0,0.4-0.1,0.8-0.3,1
				c-0.2,0.4-0.5,0.6-0.9,0.6c-0.3,0-0.6,0-0.8-0.1c-0.8-0.1-1.2-0.2-1.4-0.3c-0.2-0.1-0.3-0.4-0.3-0.7c0-0.6-0.3-1.5-0.9-2.8
				c-0.6-1.2-1.1-1.9-1.4-1.9l0,0c-0.1,0.1-0.1,0.4-0.1,1c0,0.9,0.1,1.9,0.3,3c0.1,0.5,0.1,0.8,0.1,1c0,1-0.2,1.7-0.7,1.9
				c-0.2,0.1-0.4,0.1-0.8,0.1c-1,0-1.6-0.2-1.8-0.7c-0.2-0.2-0.3-2.3-0.4-6.2c0-1.2-0.1-2.6-0.1-4s-0.1-2.5-0.1-3.1
				c0-0.7,0-1.5-0.1-2.6c-0.1-1-0.2-2.2-0.3-3.5c-0.1-1.5-0.2-2.3-0.2-2.6c0-0.7,0.1-1.2,0.3-1.5C76.6,121.6,77,121.4,77.6,121.3z
				 M80.4,124.7c-0.1-0.2-0.3-0.4-0.5-0.4s-0.3,0.1-0.5,0.3c-0.1,0.2-0.1,0.4,0,0.5c0,0,0.1,1,0.2,3s0.2,2.9,0.3,3s0.2-0.1,0.5-0.4
				c0.2-0.3,0.3-0.8,0.3-1.5c0-0.6,0-1.1-0.1-1.5C80.7,126,80.6,125,80.4,124.7z"/>
			<path class="st2" d="M92.1,121.2c0.4-0.4,1.1-0.5,2.1-0.5h1.1c1.6,0.1,2.6,0.1,3,0.2c0.2,0.1,0.6,0.1,1.3,0.2
				c0.7,0,1.2,0.2,1.5,0.4s0.5,0.6,0.5,1.2s-0.2,1-0.4,1.2c-0.2,0.2-0.6,0.4-1.1,0.5c-0.6,0.1-1,0.2-1.1,0.3
				c-0.2,0.2-0.2,3.1-0.2,8.7c0,3.9,0.1,6.7,0.1,8.3c0.1,1.3,0.1,2,0.1,2.1c0,0.6-0.1,1.2-0.4,1.6c-0.3,0.6-0.8,0.9-1.6,0.9
				c-0.5,0-0.9-0.1-1.4-0.4l-0.9-0.5l0.1-10.4c0.1-2.7,0.1-5.4,0.1-8c0-1.6-0.1-2.5-0.4-2.7c-0.4-0.2-0.6-0.3-0.7-0.2
				c-0.1,0-0.3,0-0.5,0c-0.6,0-1-0.2-1.4-0.5s-0.5-0.7-0.5-1.1C91.4,122,91.7,121.6,92.1,121.2z"/>
			<path class="st2" d="M121.3,122.1c0.4-0.2,0.8-0.3,1.3-0.3c0.3,0,0.6,0,0.8,0.1c0.9,0.1,1.5,0.2,1.8,0.4c0.3,0.1,0.6,0.5,0.9,0.9
				c0.3,0.5,0.5,1,0.5,1.5s-0.2,1-0.6,1.4s-0.7,0.6-1.1,0.6s-0.8-0.3-1.1-0.8c-0.3-0.4-0.6-0.6-0.9-0.6s-0.5,0.2-0.8,0.6
				s-0.4,0.8-0.5,1.3v0.2c0,1.7,1.3,4.8,3.8,9.3c0.4,0.7,0.8,2.1,1.2,4c0,0.1,0.1,0.3,0.1,0.6c0,1.7-0.3,3-1.1,3.9
				c-0.3,0.4-0.8,0.8-1.5,1c-0.7,0.3-1.3,0.5-1.9,0.5c-0.1,0-0.1,0-0.2,0s-0.1,0-0.2,0c-0.7-0.1-1.6-0.7-2.5-1.6
				c-1-0.9-1.5-1.7-1.5-2.2c0-0.2,0.2-0.5,0.5-0.9c0.3-0.3,0.7-0.5,1-0.6c0.1,0,0.2,0,0.3,0c0.3,0,0.9,0.5,1.6,1.5
				c0.3,0.4,0.6,0.6,0.9,0.6s0.5-0.2,0.7-0.5c0.1-0.1,0.1-0.3,0.1-0.7c0-1.8-0.8-4.3-2.4-7.7c-1.5-3.2-2.2-5.5-2.2-7
				c0-0.7,0.1-1.3,0.4-1.9c0.5-1.2,0.9-2,1.1-2.4C120.2,122.8,120.6,122.4,121.3,122.1z"/>
			<path class="st2" d="M142.7,123.1c0.4-0.1,0.8-0.2,1.1-0.2c0.8,0,1.4,0.3,1.7,0.8c0.2,0.3,0.5,1.6,0.7,3.9s0.4,4.7,0.5,7.4
				c0,0.9,0.1,2.1,0.2,3.7c0.1,1.6,0.1,3,0.2,4.1c0,1.2,0.1,2.1,0.1,2.8c0,0.4-0.2,0.7-0.7,1s-0.9,0.4-1.5,0.4c-0.5,0-0.8-0.1-1-0.3
				l-0.6-0.5l-0.1-5.5c-0.2-6.3-0.5-9.5-0.8-9.5c-0.2,0-0.6,0.8-1.1,2.4c-0.3,0.9-0.6,1.5-0.9,1.9c-0.3,0.4-0.6,0.5-1.1,0.5
				c-0.3,0-0.7-0.1-1.2-0.3c-0.5-0.2-0.9-0.7-1.3-1.4c-0.4-0.8-0.6-1.2-0.6-1.3c0-0.1-0.1-0.3-0.2-0.6s-0.3-0.6-0.5-0.9
				s-0.3-0.4-0.3-0.3v0.5c0,1.3,0.1,3.3,0.1,5.8l0.2,6.4l-0.6,1c-0.7,1-1.2,1.5-1.7,1.5c-0.3,0-0.6-0.2-0.9-0.7
				c-0.2-0.4-0.4-0.9-0.5-1.7c-0.1-0.8-0.1-3-0.2-6.9c-0.2-7.1-0.3-11.1-0.5-12c0-0.1,0-0.3,0-0.5c0-0.3,0.2-0.7,0.5-1
				c0.4-0.4,0.8-0.6,1.3-0.6s1.1,0.1,1.7,0.4c0.6,0.3,1.1,0.6,1.4,1.1c0.3,0.5,1.1,1.8,2.3,4c0.3,0.6,0.5,0.9,0.7,0.9
				c0.1,0,0.3-0.2,0.5-0.6c0.2-0.5,0.4-1.1,0.8-1.8c0.4-0.9,0.6-1.4,0.6-1.5c0-0.3,0.2-0.7,0.6-1.4
				C142.2,123.6,142.5,123.2,142.7,123.1z"/>
			<path class="st2" d="M155.4,125.4c0.8-0.8,2-1.2,3.6-1.2c0.7,0,1.3,0.1,1.7,0.4c0.6,0.3,1.1,1.2,1.4,2.6c0.2,1.2,0.5,3.1,0.8,5.9
				s0.5,4.9,0.6,6.4c0,1.4,0.1,3,0.3,4.8s0.3,2.8,0.4,2.9c0,0,0.1,0.1,0.1,0.2c0,0.3-0.1,0.6-0.4,1c-0.2,0.4-0.5,0.6-0.7,0.7
				c-0.1,0-0.2,0-0.4,0c-0.5,0-1-0.1-1.5-0.3c-0.5-0.2-0.9-0.4-1-0.7c-0.1-0.2-0.3-1.1-0.4-2.5c-0.2-1.4-0.2-2.6-0.2-3.5
				c0-0.8-0.1-1.3-0.3-1.4s-0.8-0.1-2.1-0.1c-1,0-1.6,0.1-1.6,0.1c0,0.2-0.1,0.3-0.1,0.5c0,0.6,0.1,1.5,0.1,2.5
				c0.1,1.2,0.1,2.2,0.1,2.9v0.4c0,0.2-0.2,0.4-0.7,0.6c-0.4,0.2-0.8,0.2-1.2,0.2c-0.2,0-0.3,0-0.4,0c-1-0.3-1.6-0.7-1.7-1.3
				c0,0,0-0.1,0-0.2s0-0.2,0-0.3c0-1.3,0.1-4,0.5-8.2c0.3-4.2,0.5-6.6,0.7-7.3c0.2-0.8,0.5-1.8,1.1-2.9
				C154.5,126.5,154.9,125.8,155.4,125.4z M158.5,130.1c-0.2-0.9-0.4-1.3-0.6-1.3c-0.2,0-0.5,0.3-0.7,1c-0.6,1.2-0.9,2.9-1.1,5
				c-0.1,0.9-0.1,1.4-0.1,1.5c0,0.4,0.1,0.7,0.2,0.8c0.1,0.1,0.6,0.2,1.2,0.2c0.9,0,1.4-0.1,1.5-0.3c0.1-0.1,0.1-0.5,0.1-1.2
				C159,133.7,158.8,131.8,158.5,130.1z"/>
			<path class="st2" d="M169.2,122.4c0.3-0.3,0.6-0.4,0.9-0.4c0.3,0,0.5,0,0.7,0c0.7,0.1,1.1,0.3,1.3,0.5c0.4,0.5,0.6,3.2,0.6,8.3
				v2.7v2.4c0,4,0.1,6.2,0.1,6.5c0.1,0.5,0.6,0.8,1.5,0.8c0.4,0,0.8,0,1.1-0.1c0.2,0,0.6,0,0.9,0c0.6,0,1,0.1,1.2,0.3
				c0.2,0.2,0.3,0.5,0.3,1c0,0.3-0.1,0.6-0.2,0.8c-0.1,0.2-0.4,0.4-0.9,0.7c-0.8,0.5-1.7,0.7-2.6,0.7c-1.3,0.1-1.9,0.1-2,0.1
				s-0.2,0.1-0.3,0.1c-0.4,0-0.8-0.1-1.2-0.3c-0.5-0.2-0.8-0.5-1.1-0.7c-0.5-0.5-0.7-2.1-0.7-4.7c0-0.6,0.1-1.8,0.1-3.6
				c0.1-1.6,0.1-3.3,0.1-5.2c0-4.5-0.1-7.2-0.2-8.3c-0.1-0.4-0.1-0.7-0.1-0.8C168.7,123,168.9,122.7,169.2,122.4z"/>
			<path class="st2" d="M183.1,122.4c0.3-0.3,0.6-0.4,0.9-0.4c0.3,0,0.5,0,0.7,0c0.7,0.1,1.1,0.3,1.3,0.5c0.4,0.5,0.6,3.2,0.6,8.3
				v2.7v2.4c0,4,0.1,6.2,0.1,6.5c0.1,0.5,0.6,0.8,1.5,0.8c0.4,0,0.8,0,1.1-0.1c0.2,0,0.6,0,0.9,0c0.6,0,1,0.1,1.2,0.3
				c0.2,0.2,0.3,0.5,0.3,1c0,0.3-0.1,0.6-0.2,0.8c-0.1,0.2-0.4,0.4-0.9,0.7c-0.8,0.5-1.7,0.7-2.6,0.7c-1.3,0.1-1.9,0.1-2,0.1
				s-0.2,0.1-0.3,0.1c-0.4,0-0.8-0.1-1.2-0.3c-0.5-0.2-0.8-0.5-1.1-0.7c-0.5-0.5-0.7-2.1-0.7-4.7c0-0.6,0.1-1.8,0.1-3.6
				c0.1-1.6,0.1-3.3,0.1-5.2c0-4.5-0.1-7.2-0.2-8.3c-0.1-0.4-0.1-0.7-0.1-0.8C182.7,123,182.8,122.7,183.1,122.4z"/>
			<path class="st3" d="M304,103.7c1.1-0.2,1.9-1.4,1.5-2.5c-0.3-0.6-0.7-1.1-2-1.1c-2.1-0.1-4.3,2.7-5.2,4.1l-4.1,6.2
				C294.2,110.5,299.2,104.7,304,103.7z"/>
			<path class="st3" d="M290.8,106.9l6.5-3.6c1.5-0.8,4.5-2.8,4.5-4.9c0-1.3-0.4-1.8-1-2.1c-1-0.5-2.3,0.2-2.6,1.3
				C297,102.3,290.8,106.9,290.8,106.9z"/>
			<path class="st4" d="M320.5,116.9c-2.7-7.1-24.1-9.2-28.2-8.1c1.4-4,1-25.5-5.8-28.7c-2.4-1.1-4.5-0.1-6,2.1
				c-0.1,0.1-6.3,9.9-9.6,11.5c-0.1,0-0.9,0.4-1.9,1.5c-2.9,3.4,1.7,6.6,1.2,6.1c0.1,0.1,3.1,2,3.2,2c-0.1,0-4-0.4-7.6,2.8
				c-2.1,1.8-3.5,4.4-3.7,7.2c-0.5,4.9,3.6,8.4,8,8.2c4.2-0.2,8.4-1.2,12.3-3.5c-2.6,3.7-4,7.8-4.5,12c-0.5,4.3,2.5,8.4,6.8,8.6
				c2.9,0.2,6-1,8.2-3.1c3.5-3.3,3.4-7.2,3.4-7.3c0,0.1,1.7,3.2,1.8,3.3c-0.4-0.5,2.3,4.3,6,1.6c1.1-0.8,1.6-1.6,1.6-1.7
				c1.9-3.2,12.2-8.6,12.2-8.7C320.2,121.4,321.4,119.4,320.5,116.9z"/>
			<path class="st5" d="M287.9,105.6c0,0,2.7-16.9-3.8-21.1"/>
			<path class="st5" d="M315.5,115.8c0,0-4.7-4.6-20.6-3.5"/>
			<path class="st2" d="M200,193.1c2.9,0.9,5.8,1.7,8.7,2.7c0.3,0.1,0.7,0.2,1,0.3c1.6,1.3,3.1,3,4.1,5c3.7,7.6-1.2,17.6-1.2,17.6
				s-9.7-3-13.4-10.6c-2.7-5.7-1.3-12.4-0.5-15.4C199.2,192.8,199.6,193,200,193.1z"/>
			<path class="st2" d="M183,187.2c1,0.4,2,0.8,3,1.2c1.4,1.6,2.7,3.6,3.2,5.9c1.7,7.3-4.4,15-4.4,15s-7.8-4.4-9.6-11.7
				c-1.2-4.9,0.7-9.9,2.1-12.6C179.3,185.7,181.2,186.5,183,187.2z"/>
			<path class="st2" d="M173.9,182.4c-2.9-1-5.8-2.1-8.4-3.5c0.6-2.4,1.8-5.2,4.2-7c4.8-3.5,12.2-1.5,12.2-1.5s-0.8,7.1-5.5,10.6
				C175.6,181.6,174.8,182.1,173.9,182.4z"/>
			<path class="st2" d="M202.4,187.5c-1,0.9-2,1.5-3.1,2.1c-1.7,0.8-3.6,1-5.4,0.6c-1.2-0.2-2.4-0.6-3.6-1c-1.5-0.5-2.9-0.9-4.4-1.4
				c0.6-3.4,2.1-8.6,5.9-12c6.2-5.5,16.1-4.6,16.1-4.6S208.6,181.9,202.4,187.5z"/>
			<path class="st2" d="M229,199.6c-5.5,2.2-13.8-0.8-17.3-1.9c-0.6-1.4,5.4-11.9,11-14.1c8.4-3.3,18.6,2.6,18.6,2.6
				S237.5,196.3,229,199.6z"/>
			<path class="st6" d="M140.7,164.7c0,0,79.8,51.5,118.9,32.6"/>
			<path class="st7" d="M241.7,201.9c0,0,2.6,4.9,1.1,10.5"/>
			<path class="st4" d="M245.1,209.7c0,0,9.8-7.7,10.2,13.3c0.5,20.9-6.2,28-12.4,27.9s-7.6-5.8-8.5-28.4
				C233.8,208.9,245.1,209.7,245.1,209.7z"/>
			<path class="st8" d="M243.6,219c0.5,3.8,0.8,7.8,2.5,11.4c1.7,3.5,4.6,5.9,7.9,7.6c0.9-3.9,1.4-8.9,1.2-15.1
				c-0.5-21-10.2-13.3-10.2-13.3s-0.9-0.1-2.2,0.2C242.8,212.9,243.2,216,243.6,219z"/>
			<path class="st3" d="M248.9,208.3c-2.6,0-6.6,0.6-11,3.2c-2.2,1.3-3.6,3.7-3.6,6.2c-0.1,5.1-0.2,14,0.9,16.6
				c1.4,3.3,18.3-10.9,17.5-22.4C252.6,209.9,250.9,208.3,248.9,208.3z"/>
			<path class="st9" d="M236.8,214.6c0,0,5.3-4.6,11.6-3.8"/>
			<path class="st10" d="M245.7,256.7c0,0,0.4,0.4,1.2,1"/>
			<path class="st11" d="M249.3,259.5c7,4.9,23.1,13.9,38.4,5.5c5.6-3.1,9.1-8.1,11.3-13.7c5.9-15.5,4.6-27.5-7.7-47.8
				c-6.4-10.6-37.7-50.3-54-70.3c-8.6-10.6-23.1-3.9-25.8,4.8c-14.9,49,45.9,1.2,58.7-9.2"/>
			<path class="st10" d="M271.4,127.8c0.8-0.6,1.1-1,1.1-1"/>
		</g>
	</g>
</g>
</svg>
