<?xml version="1.0" encoding="utf-8"?>
<!-- Generator: Adobe Illustrator 25.1.0, SVG Export Plug-In . SVG Version: 6.00 Build 0)  -->
<svg version="1.1" id="Layer_1" xmlns="http://www.w3.org/2000/svg" xmlns:xlink="http://www.w3.org/1999/xlink" x="0px" y="0px"
	 viewBox="0 0 327.8 216.9" style="enable-background:new 0 0 327.8 216.9;" xml:space="preserve">
<style type="text/css">
	.st0{fill:#FFFFFF;}
	.st1{fill:#808080;}
	.st2{fill:#00CDDC;}
	.st3{fill:#F4F1EF;}
	.st4{fill:#FF9F1A;}
	.st5{fill:#BFF2F6;}
	.st6{fill:none;stroke:#D64204;stroke-width:1.9102;stroke-linecap:round;stroke-miterlimit:10;}
	.st7{fill:#E14504;}
	.st8{fill:none;stroke:#FF9F1A;stroke-width:2.0954;stroke-linecap:round;stroke-linejoin:round;stroke-miterlimit:10;}
	.st9{fill:#D64204;}
	.st10{fill:#BFBFBF;}
	.st11{fill:#E6E6E6;}
</style>
<g>
	<g>
		<path class="st0" d="M327.8,152.4C327.8,2.9,320.3,1.1,190.1,0c-28-0.2-70.6,0.3-104.9,0.9C51.4,1.5,11.5,12.2,6.4,26.4
			c-8,22.2-5.9,57.7-5.9,98.4c0,64-6.5,79.3,28.2,87.5c35.2,8.2,164.8,3.1,207.3,2.1C279.9,213.3,327.8,217.7,327.8,152.4z"/>
		<path class="st1" d="M19.6,49.2l-3.1-11.3h1.4l2.4,9.6l2.8-9.6h1.5l2.7,9.6l2.4-9.6h1.4L28,49.1h-1.5l-2.7-9.2l-2.7,9.2L19.6,49.2
			z"/>
		<path class="st1" d="M35.4,49.3c-0.8,0-1.4-0.2-2-0.5s-1-0.8-1.4-1.4c-0.3-0.6-0.5-1.4-0.5-2.2s0.2-1.6,0.5-2.2
			c0.3-0.6,0.8-1.1,1.4-1.5s1.3-0.5,2.1-0.5s1.4,0.2,2,0.5s1,0.8,1.3,1.4c0.3,0.6,0.5,1.2,0.5,1.8c0,0.1,0,0.2,0,0.3s0,0.2,0,0.4H33
			c0,0.6,0.2,1.1,0.4,1.5s0.6,0.7,0.9,0.9c0.4,0.2,0.8,0.3,1.2,0.3c0.5,0,1-0.1,1.4-0.4c0.4-0.3,0.7-0.6,0.8-1H39
			c-0.2,0.7-0.6,1.4-1.2,1.8C37.1,49.1,36.3,49.3,35.4,49.3z M35.4,42.1c-0.6,0-1.2,0.2-1.7,0.6c-0.5,0.4-0.8,1-0.9,1.7h5
			c0-0.7-0.3-1.3-0.7-1.7C36.6,42.4,36.1,42.1,35.4,42.1z"/>
		<path class="st1" d="M48.2,49.3c-1,0-1.7-0.2-2.4-0.7s-1-1.1-1.1-1.9h1.4c0.1,0.4,0.3,0.8,0.7,1.1s0.8,0.5,1.5,0.5
			c0.6,0,1-0.1,1.2-0.4c0.3-0.2,0.4-0.5,0.4-0.9c0-0.5-0.2-0.8-0.5-1s-0.8-0.3-1.5-0.4c-0.4-0.1-0.8-0.2-1.3-0.4s-0.8-0.4-1.1-0.7
			s-0.4-0.7-0.4-1.2c0-0.7,0.3-1.3,0.8-1.7s1.2-0.7,2.1-0.7c0.8,0,1.5,0.2,2.1,0.6c0.5,0.4,0.8,1,0.9,1.8h-1.3
			c0-0.4-0.2-0.7-0.5-0.9s-0.7-0.3-1.2-0.3s-0.9,0.1-1.1,0.3c-0.3,0.2-0.4,0.5-0.4,0.8s0.2,0.6,0.5,0.8s0.8,0.3,1.4,0.5
			c0.5,0.1,1,0.2,1.4,0.4c0.4,0.1,0.8,0.4,1.1,0.7s0.4,0.7,0.4,1.3c0,0.7-0.3,1.3-0.8,1.8C49.9,49.1,49.2,49.3,48.2,49.3z"/>
		<path class="st1" d="M56.1,49.3c-0.9,0-1.7-0.3-2.2-0.9c-0.5-0.6-0.8-1.4-0.8-2.6v-4.6h1.3v4.5c0,1.7,0.7,2.5,2,2.5
			c0.7,0,1.3-0.2,1.7-0.7s0.7-1.2,0.7-2.1v-4.1h1.3v7.9h-1.2l-0.1-1.4c-0.2,0.5-0.6,0.9-1.1,1.2C57.2,49.2,56.7,49.3,56.1,49.3z"/>
		<path class="st1" d="M65.5,46.6c-0.5,0-0.9-0.1-1.2-0.2l-0.8,0.8c0.1,0.1,0.3,0.2,0.4,0.2c0.2,0.1,0.4,0.1,0.8,0.2
			s0.8,0.1,1.4,0.2c1.1,0.1,1.8,0.3,2.3,0.7s0.7,1,0.7,1.6c0,0.5-0.1,0.9-0.4,1.3c-0.2,0.4-0.6,0.8-1.2,1c-0.5,0.3-1.2,0.4-2,0.4
			c-0.7,0-1.3-0.1-1.9-0.3c-0.5-0.2-1-0.5-1.3-0.8c-0.3-0.4-0.5-0.9-0.5-1.4c0-0.3,0.1-0.6,0.2-1c0.2-0.3,0.5-0.7,0.9-1
			c-0.2-0.1-0.4-0.2-0.6-0.3c-0.2-0.1-0.3-0.2-0.5-0.4v-0.4l1.4-1.3c-0.6-0.5-0.9-1.2-0.9-2.1c0-0.5,0.1-1,0.4-1.4
			c0.2-0.4,0.6-0.8,1.1-1c0.5-0.2,1-0.4,1.7-0.4c0.5,0,0.9,0.1,1.2,0.2h3v1l-1.5,0.1c0.3,0.5,0.5,1,0.5,1.6c0,0.5-0.1,1-0.4,1.4
			c-0.2,0.4-0.6,0.8-1.1,1S66.1,46.6,65.5,46.6z M63.1,50.2c0,0.5,0.2,0.9,0.7,1.2s1,0.4,1.7,0.4s1.2-0.1,1.6-0.4
			c0.4-0.3,0.6-0.7,0.6-1.1c0-0.3-0.1-0.6-0.4-0.9s-0.8-0.5-1.6-0.6c-0.6,0-1.1-0.1-1.5-0.2c-0.4,0.2-0.7,0.5-0.9,0.8
			C63.2,49.7,63.1,50,63.1,50.2z M65.5,45.5c0.6,0,1-0.1,1.3-0.4c0.3-0.3,0.5-0.7,0.5-1.3c0-0.5-0.2-1-0.5-1.3s-0.8-0.4-1.3-0.4
			c-0.6,0-1,0.1-1.4,0.4c-0.3,0.3-0.5,0.7-0.5,1.3s0.2,1,0.5,1.3C64.4,45.4,64.9,45.5,65.5,45.5z"/>
		<path class="st1" d="M74.3,46.6c-0.4,0-0.9-0.1-1.2-0.2l-0.8,0.8c0.1,0.1,0.3,0.2,0.4,0.2c0.2,0.1,0.4,0.1,0.8,0.2
			c0.3,0.1,0.8,0.1,1.4,0.2c1.1,0.1,1.8,0.3,2.3,0.7s0.7,1,0.7,1.6c0,0.5-0.1,0.9-0.4,1.3c-0.2,0.4-0.6,0.8-1.2,1
			c-0.5,0.3-1.2,0.4-2,0.4c-0.7,0-1.4-0.1-1.9-0.3c-0.6-0.2-1-0.5-1.3-0.8c-0.3-0.4-0.4-0.8-0.4-1.4c0-0.3,0.1-0.6,0.2-1
			c0.2-0.3,0.5-0.7,0.9-1c-0.2-0.1-0.4-0.2-0.6-0.3s-0.3-0.2-0.5-0.4v-0.4l1.4-1.3c-0.6-0.5-0.9-1.2-0.9-2.1c0-0.5,0.1-1,0.4-1.4
			c0.2-0.4,0.6-0.8,1.1-1s1-0.4,1.7-0.4c0.5,0,0.9,0.1,1.2,0.2h2.9v1L77,42.3c0.3,0.5,0.5,1,0.5,1.6c0,0.5-0.1,1-0.4,1.4
			c-0.2,0.4-0.6,0.8-1.1,1C75.5,46.5,75,46.6,74.3,46.6z M72,50.2c0,0.5,0.2,0.9,0.7,1.2c0.4,0.3,1,0.4,1.7,0.4s1.2-0.1,1.6-0.4
			c0.4-0.3,0.6-0.7,0.6-1.1c0-0.3-0.1-0.6-0.4-0.9c-0.3-0.2-0.8-0.4-1.5-0.4c-0.6,0-1.1-0.1-1.5-0.2c-0.4,0.2-0.7,0.5-0.9,0.8
			C72,49.7,72,50,72,50.2z M74.3,45.5c0.6,0,1-0.1,1.3-0.4c0.3-0.3,0.5-0.7,0.5-1.3c0-0.5-0.2-1-0.5-1.3s-0.8-0.4-1.3-0.4
			c-0.6,0-1,0.1-1.4,0.4c-0.3,0.3-0.5,0.7-0.5,1.3s0.2,1,0.5,1.3C73.3,45.4,73.7,45.5,74.3,45.5z"/>
		<path class="st1" d="M83.2,49.3c-0.8,0-1.4-0.2-2-0.5s-1-0.8-1.4-1.4c-0.3-0.6-0.5-1.4-0.5-2.2s0.2-1.6,0.5-2.2
			c0.3-0.6,0.8-1.1,1.4-1.5s1.3-0.5,2.1-0.5c0.8,0,1.4,0.2,2,0.5s1,0.8,1.3,1.4c0.3,0.6,0.4,1.2,0.4,1.8c0,0.1,0,0.2,0,0.3
			s0,0.2,0,0.4h-6.3c0,0.6,0.2,1.1,0.4,1.5c0.2,0.4,0.6,0.7,0.9,0.9c0.4,0.2,0.8,0.3,1.2,0.3c0.5,0,1-0.1,1.4-0.4
			c0.4-0.3,0.6-0.6,0.8-1h1.3c-0.2,0.7-0.6,1.4-1.2,1.8C84.9,49.1,84.2,49.3,83.2,49.3z M83.2,42.1c-0.6,0-1.2,0.2-1.7,0.6
			c-0.5,0.4-0.8,1-0.9,1.7h5c0-0.7-0.3-1.3-0.7-1.7C84.5,42.4,83.9,42.1,83.2,42.1z"/>
		<path class="st1" d="M91.8,49.3c-1,0-1.7-0.2-2.4-0.7s-1-1.1-1.1-1.9h1.4c0.1,0.4,0.3,0.8,0.7,1.1c0.3,0.3,0.8,0.5,1.4,0.5
			s1-0.1,1.2-0.4c0.3-0.2,0.4-0.5,0.4-0.9c0-0.5-0.2-0.8-0.5-1s-0.8-0.3-1.5-0.4c-0.4-0.1-0.8-0.2-1.3-0.4s-0.8-0.4-1.1-0.7
			c-0.1-0.2-0.3-0.6-0.3-1.1c0-0.7,0.3-1.3,0.8-1.7s1.2-0.7,2.1-0.7c0.8,0,1.5,0.2,2.1,0.6c0.5,0.4,0.8,1,0.9,1.8h-1.3
			c0-0.4-0.2-0.7-0.5-0.9s-0.7-0.3-1.2-0.3s-0.8,0.1-1.1,0.3c-0.3,0.2-0.4,0.5-0.4,0.8s0.2,0.6,0.5,0.8s0.8,0.3,1.4,0.5
			c0.5,0.1,1,0.2,1.4,0.4c0.4,0.1,0.8,0.4,1.1,0.7c0.3,0.3,0.4,0.7,0.4,1.3c0,0.7-0.3,1.3-0.8,1.8C93.5,49.1,92.8,49.3,91.8,49.3z"
			/>
		<path class="st1" d="M99.6,49.1c-0.7,0-1.3-0.2-1.7-0.5c-0.4-0.4-0.6-1-0.6-1.9v-4.4h-1.4v-1.1h1.4l0.2-1.9h1.2v1.9h2.3v1.1h-2.3
			v4.4c0,0.5,0.1,0.8,0.3,1c0.2,0.2,0.6,0.3,1.1,0.3h0.8v1.1C100.9,49.1,99.6,49.1,99.6,49.1z"/>
		<path class="st1" d="M20.3,71.1c-0.7,0-1.3-0.2-1.7-0.5s-0.6-1-0.6-1.9v-4.4h-1.4v-1.1H18l0.2-1.9h1.2v1.9h2.3v1.1h-2.3v4.4
			c0,0.5,0.1,0.8,0.3,1c0.2,0.2,0.6,0.3,1.1,0.3h0.8v1.1H20.3z"/>
		<path class="st1" d="M23.4,71.1v-7.9h1.2l0.1,1.5c0.2-0.5,0.6-0.9,1.1-1.2s1.1-0.5,1.9-0.5v1.4h-0.4c-0.5,0-0.9,0.1-1.3,0.2
			c-0.4,0.2-0.7,0.4-0.9,0.8c-0.3,0.5-0.4,1.1-0.4,1.7v4H23.4z"/>
		<path class="st1" d="M31.8,71.3c-0.7,0-1.2-0.1-1.7-0.3c-0.4-0.2-0.8-0.5-1-0.9s-0.3-0.8-0.3-1.2c0-0.8,0.3-1.4,0.9-1.9
			s1.5-0.7,2.5-0.7h2.1v-0.1c0-0.7-0.2-1.2-0.5-1.6s-0.8-0.5-1.5-0.5c-0.5,0-1,0.1-1.4,0.4s-0.6,0.6-0.7,1.1h-1.4
			c0.1-0.6,0.2-1.1,0.6-1.5c0.3-0.4,0.8-0.7,1.3-0.9s1-0.3,1.6-0.3c1.1,0,1.9,0.3,2.5,0.9c0.6,0.6,0.8,1.4,0.8,2.4v4.9h-1.2
			l-0.1-1.4c-0.2,0.4-0.5,0.8-1,1.1C33.1,71.2,32.5,71.3,31.8,71.3z M32,70.2c0.5,0,1-0.1,1.3-0.4c0.4-0.3,0.7-0.6,0.8-1
			c0.2-0.4,0.3-0.9,0.3-1.3l0,0h-2c-0.8,0-1.4,0.1-1.7,0.4c-0.3,0.3-0.5,0.6-0.5,1s0.1,0.8,0.5,1C31,70.1,31.5,70.2,32,70.2z"/>
		<path class="st1" d="M41.5,71.3c-0.8,0-1.4-0.2-2-0.5s-1.1-0.8-1.4-1.5c-0.3-0.6-0.5-1.4-0.5-2.2s0.2-1.6,0.5-2.2s0.8-1.1,1.4-1.5
			c0.6-0.4,1.3-0.5,2-0.5c0.9,0,1.7,0.2,2.4,0.7c0.7,0.5,1.1,1.1,1.2,2h-1.4c-0.1-0.5-0.4-0.9-0.8-1.1c-0.4-0.3-0.9-0.4-1.5-0.4
			c-0.4,0-0.9,0.1-1.3,0.3c-0.4,0.2-0.7,0.6-1,1c-0.2,0.4-0.4,1-0.4,1.7s0.1,1.2,0.4,1.7c0.2,0.4,0.6,0.8,1,1s0.8,0.3,1.3,0.3
			c0.6,0,1-0.1,1.5-0.4c0.4-0.3,0.7-0.7,0.8-1.2h1.4c-0.2,0.8-0.6,1.4-1.2,1.9C43.2,71.1,42.4,71.3,41.5,71.3z"/>
		<path class="st1" d="M47,71.1V59.6h1.3v6.9l3.2-3.3h1.7l-3.5,3.6l4,4.4H52l-3.6-4.1v4.1H47V71.1z"/>
		<path class="st1" d="M55.8,61.4c-0.3,0-0.5-0.1-0.7-0.3s-0.3-0.4-0.3-0.7s0.1-0.5,0.3-0.6c0.2-0.2,0.4-0.3,0.7-0.3
			s0.5,0.1,0.7,0.3s0.3,0.4,0.3,0.6c0,0.3-0.1,0.5-0.3,0.7C56.3,61.4,56.1,61.4,55.8,61.4z M55.2,71.1v-7.9h1.3v7.9H55.2z"/>
		<path class="st1" d="M58.8,71.1v-7.9H60l0.1,1.4c0.3-0.5,0.6-0.9,1.1-1.2s1-0.4,1.6-0.4c0.9,0,1.7,0.3,2.2,0.9
			c0.6,0.6,0.8,1.4,0.8,2.6v4.6h-1.3v-4.5c0-1.6-0.7-2.5-2-2.5c-0.7,0-1.2,0.2-1.7,0.7c-0.4,0.5-0.7,1.2-0.7,2.1V71L58.8,71.1
			L58.8,71.1z"/>
		<path class="st1" d="M71.1,68.6c-0.4,0-0.9-0.1-1.2-0.2l-0.8,0.8c0.1,0.1,0.3,0.2,0.4,0.2c0.2,0.1,0.4,0.1,0.8,0.2
			s0.8,0.1,1.4,0.2c1.1,0.1,1.8,0.3,2.3,0.7s0.7,1,0.7,1.6c0,0.5-0.1,0.9-0.4,1.3s-0.6,0.8-1.1,1c-0.5,0.3-1.2,0.4-2,0.4
			c-0.7,0-1.3-0.1-1.9-0.3c-0.6-0.2-1-0.5-1.3-0.8c-0.3-0.4-0.5-0.9-0.5-1.4c0-0.3,0.1-0.6,0.2-1c0.2-0.3,0.5-0.7,0.9-1
			c-0.2-0.1-0.4-0.2-0.6-0.3s-0.3-0.2-0.5-0.4v-0.4l1.4-1.3c-0.6-0.5-0.9-1.2-0.9-2.1c0-0.5,0.1-1,0.4-1.4c0.2-0.4,0.6-0.8,1.1-1
			s1-0.4,1.7-0.4c0.5,0,0.9,0.1,1.2,0.2h2.9v1l-1.5,0.1c0.3,0.5,0.5,1,0.5,1.6c0,0.5-0.1,1-0.4,1.4c-0.2,0.4-0.6,0.8-1.1,1
			C72.4,68.5,71.8,68.6,71.1,68.6z M68.8,72.2c0,0.5,0.2,0.9,0.7,1.2c0.5,0.3,1,0.4,1.7,0.4s1.2-0.1,1.6-0.4s0.6-0.7,0.6-1.1
			c0-0.3-0.1-0.6-0.4-0.9S72.2,71,71.5,71c-0.6,0-1.1-0.1-1.5-0.2c-0.4,0.2-0.7,0.5-0.9,0.8C68.9,71.7,68.8,72,68.8,72.2z
			 M71.1,67.5c0.6,0,1-0.1,1.3-0.4s0.5-0.7,0.5-1.3c0-0.5-0.2-1-0.5-1.3s-0.8-0.4-1.3-0.4c-0.6,0-1,0.1-1.4,0.4
			c-0.3,0.3-0.5,0.7-0.5,1.3s0.2,1,0.5,1.3C70.1,67.4,70.6,67.5,71.1,67.5z"/>
		<path class="st1" d="M81.9,74.7l2-4.3h-0.5l-3.1-7.2h1.4l2.6,6.2l2.8-6.2h1.4l-5.2,11.5H81.9z"/>
		<path class="st1" d="M92.8,71.3c-0.8,0-1.4-0.2-2-0.5s-1.1-0.8-1.4-1.4c-0.4-0.6-0.5-1.4-0.5-2.2s0.2-1.6,0.5-2.2
			c0.4-0.6,0.8-1.1,1.4-1.4c0.6-0.3,1.3-0.5,2-0.5c0.8,0,1.4,0.2,2,0.5c0.6,0.3,1.1,0.8,1.4,1.4c0.4,0.6,0.5,1.4,0.5,2.2
			s-0.2,1.6-0.5,2.2s-0.8,1.1-1.4,1.4C94.2,71.2,93.6,71.3,92.8,71.3z M92.8,70.2c0.5,0,0.9-0.1,1.3-0.3c0.4-0.2,0.7-0.6,1-1
			s0.4-1,0.4-1.7s-0.1-1.2-0.4-1.7c-0.2-0.4-0.6-0.8-0.9-1c-0.4-0.2-0.8-0.3-1.3-0.3s-0.9,0.1-1.3,0.3c-0.4,0.2-0.7,0.6-1,1
			c-0.2,0.5-0.4,1-0.4,1.7s0.1,1.2,0.4,1.7s0.6,0.8,0.9,1C92,70.1,92.4,70.2,92.8,70.2z"/>
		<path class="st1" d="M101.6,71.3c-0.9,0-1.7-0.3-2.2-0.9c-0.6-0.6-0.8-1.4-0.8-2.6v-4.6h1.3v4.5c0,1.7,0.7,2.5,2,2.5
			c0.7,0,1.3-0.2,1.7-0.7c0.4-0.5,0.7-1.2,0.7-2.1v-4.1h1.3v7.9h-1.2l-0.1-1.4c-0.2,0.5-0.6,0.9-1.1,1.2
			C102.7,71.2,102.2,71.3,101.6,71.3z"/>
		<path class="st1" d="M107.8,71.1v-7.9h1.2l0.1,1.5c0.2-0.5,0.6-0.9,1.1-1.2s1.1-0.5,1.9-0.5v1.4h-0.4c-0.5,0-0.9,0.1-1.3,0.2
			c-0.4,0.2-0.7,0.4-0.9,0.8c-0.2,0.4-0.3,0.9-0.3,1.6v4h-1.4V71.1z"/>
		<path class="st2" d="M19.4,82.8c0.3-0.1,1-0.2,2.2-0.2c1.5,0,2.4,0.1,2.7,0.3c0.5,0.3,1,0.7,1.6,1.3c0.6,0.6,1,1.1,1.2,1.6
			c0.4,0.7,0.6,2.4,0.7,4.9c0.1,1.5,0.1,2.4,0.1,2.6c0,0.9-0.1,1.9-0.4,2.7c-0.3,1-0.7,1.7-1.1,2.2s-1.1,0.9-1.8,1.1l-1.3,0.5v3.8
			c0,2.2-0.1,3.6-0.2,4.1c-0.2,0.5-0.6,0.7-1.4,0.7c-0.6,0-1.2-0.2-1.6-0.6l-0.7-0.5V104v-0.8c0-2.6-0.1-5.9-0.2-9.8
			s-0.3-6.3-0.5-7.3c-0.1-0.7-0.1-1.2-0.1-1.6C18.4,83.7,18.7,83.1,19.4,82.8z M23.4,87.1c-0.3-0.7-0.6-1.1-0.7-1.1s-0.2,0-0.2,0.1
			c0,1,0,2.2,0,3.5c0,4.3,0.2,6.5,0.5,6.5c0.1,0,0.3-0.3,0.6-0.9c0.2-0.6,0.4-1.2,0.4-2c0-0.2,0-0.9-0.1-2.1
			C23.8,89,23.7,87.6,23.4,87.1z"/>
		<path class="st2" d="M33.9,82.3c0.5-0.2,1.2-0.3,2.1-0.3c0.9,0,1.6,0.1,2,0.3c0.8,0.3,1.4,1,1.8,1.8c0.2,0.4,0.4,1.2,0.5,2.4
			c0.2,1.2,0.2,2.2,0.2,3.1c0,0.4,0,0.7,0,0.9c-0.1,0.8-0.3,1.6-0.6,2.6s-0.6,1.4-0.7,1.4c-0.2,0-0.4,0.2-0.4,0.6
			c0,0.3,0.1,0.6,0.3,1c0.5,0.7,1.2,2,2.1,3.9c0.9,1.9,1.4,3.1,1.5,3.6c0,0.1,0,0.4,0,0.6c0,0.4-0.1,0.8-0.3,1.1
			c-0.2,0.4-0.5,0.5-0.9,0.5c-0.3,0-0.6,0-0.8,0c-0.8-0.1-1.2-0.2-1.4-0.3s-0.3-0.4-0.3-0.7c0-0.6-0.3-1.5-0.9-2.8
			c-0.6-1.2-1.1-1.9-1.4-1.9l0,0c-0.1,0.1-0.1,0.4-0.1,1c0,0.9,0.1,1.9,0.3,3c0.1,0.5,0.1,0.8,0.1,1c0,1-0.2,1.7-0.7,1.9
			c-0.2,0.1-0.4,0.1-0.8,0.1c-1,0-1.6-0.2-1.8-0.7c-0.2-0.2-0.3-2.3-0.4-6.2c0-1.2-0.1-2.6-0.1-4s0-2.5,0-3.1c0-0.7,0-1.5-0.1-2.6
			s-0.2-2.2-0.3-3.5c-0.1-1.5-0.2-2.3-0.2-2.6c0-0.7,0.1-1.2,0.3-1.5C33,82.6,33.4,82.4,33.9,82.3z M36.8,85.6
			c-0.1-0.2-0.3-0.4-0.5-0.4s-0.3,0.1-0.5,0.3c-0.1,0.2-0.1,0.4,0,0.6c0,0,0.1,1,0.2,2.9s0.2,2.9,0.3,3s0.2-0.1,0.5-0.4
			c0.2-0.3,0.3-0.8,0.3-1.6c0-0.6,0-1.1,0-1.5C37,87,36.9,86,36.8,85.6z"/>
		<path class="st2" d="M48.8,84.2l0.8-1h5.7l0.9,0.9c0.6,0.6,1,1.3,1.2,2.2c0.2,0.9,0.4,2.3,0.6,4.1c0.1,0.7,0.1,1.7,0.1,3.1
			c0,3.1-0.3,5.9-0.9,8.5c-0.6,2.5-1.3,4.3-2.3,5.2c-0.3,0.3-0.8,0.6-1.3,0.8c-0.6,0.2-1.1,0.3-1.5,0.3c-0.2,0-0.3,0-0.5-0.1
			c-0.2-0.2-0.6-0.2-1-0.2c-0.3,0-0.7-0.2-1.1-0.8c-0.4-0.5-0.7-1.1-1-1.8c-0.4-1.2-0.7-2.5-0.8-3.9s-0.2-3.7-0.2-6.8v-2.1
			c0-2.9,0.1-4.8,0.2-5.8C48,85.6,48.3,84.8,48.8,84.2z M53.1,86.4c-0.3-0.6-0.5-0.9-0.7-0.9s-0.5,0.5-0.8,1.4
			c-0.2,0.7-0.4,2.1-0.4,4.2c0,1.6,0.1,3.4,0.2,5.2c0.1,1.7,0.3,3.4,0.6,4.9s0.5,2.3,0.7,2.3s0.3-0.3,0.4-1c0.1-0.6,0.3-1,0.5-1.4
			c0.1-0.2,0.2-1.5,0.4-4c0.1-1.3,0.1-2.5,0.1-3.6C54.2,90.2,53.9,87.8,53.1,86.4z"/>
		<path class="st2" d="M64.9,85.8c0-0.2,0.2-0.4,0.5-0.6s0.7-0.4,1.1-0.6s0.7-0.3,0.8-0.5c0.1-0.2,0.3-0.3,0.5-0.3s0.7,0.2,1.4,0.6
			c0.7,0.4,1.1,0.8,1.2,1.3c0,0.1,0.1,0.2,0.1,0.3c0,0.3-0.4,0.6-1.3,1s-1.5,0.8-1.7,1.3c-0.6,1-0.8,3.2-0.8,6.6
			c0,1.2,0,2.1,0.1,2.6c0.4,4,0.7,6.2,0.9,6.7v0.1c0.3,0,0.4-1.1,0.4-3.4c0.1-1.2,0.2-2.1,0.3-2.5c0.2-0.6,0.1-1-0.2-1.3
			c-0.4-0.4-0.6-0.8-0.6-1.2c0-0.3,0.1-0.6,0.4-0.9c0.3-0.4,1-0.6,2.1-0.6c0.7,0,1.2,0,1.4,0.1c0.2,0.1,0.5,0.2,0.7,0.5
			c0.3,0.4,0.4,0.8,0.4,1.3s-0.1,1.1-0.2,1.8c-0.2,1.1-0.4,2.6-0.5,4.5c-0.1,2.2-0.4,3.6-0.7,4.2c-0.4,0.8-0.7,1.3-1,1.5
			s-0.8,0.5-1.5,0.7c-0.5,0.2-0.9,0.2-1.3,0.2c-0.6,0-1.1-0.2-1.7-0.7c-0.8-0.6-1.4-2-1.8-4.3c-0.1-0.5-0.2-0.8-0.4-1.1
			c-0.1-0.1-0.1-0.5-0.2-1.3c0-0.4-0.1-2.4-0.2-6.1l-0.2-5l0.7-2.1c0.4-1.3,0.8-2.2,1-2.5C64.8,86.2,64.9,86,64.9,85.8z"/>
		<path class="st2" d="M78.8,82.3c0.6-0.2,1.2-0.3,2.1-0.3s1.6,0.1,2,0.3c0.8,0.3,1.4,1,1.8,1.8c0.2,0.4,0.4,1.2,0.5,2.4
			s0.2,2.2,0.2,3.1c0,0.4,0,0.7-0.1,0.9c-0.1,0.8-0.3,1.6-0.6,2.6c-0.3,1-0.6,1.4-0.7,1.4c-0.2,0-0.4,0.2-0.4,0.6
			c0,0.3,0.1,0.6,0.3,1c0.5,0.7,1.2,2,2.1,3.9s1.4,3.1,1.5,3.6c0,0.1,0,0.4,0,0.6c0,0.4-0.1,0.8-0.3,1.1c-0.2,0.4-0.5,0.5-0.9,0.5
			c-0.3,0-0.6,0-0.8,0c-0.8-0.1-1.2-0.2-1.4-0.3c-0.2-0.1-0.3-0.4-0.3-0.7c0-0.6-0.3-1.5-0.9-2.8c-0.6-1.2-1.1-1.9-1.4-1.9l0,0
			c-0.1,0.1-0.1,0.4-0.1,1c0,0.9,0.1,1.9,0.3,3c0.1,0.5,0.1,0.8,0.1,1c0,1-0.2,1.7-0.7,1.9c-0.2,0.1-0.4,0.1-0.8,0.1
			c-1,0-1.6-0.2-1.8-0.7c-0.2-0.2-0.3-2.3-0.4-6.2c0-1.2-0.1-2.6-0.1-4s-0.1-2.5-0.1-3.1c0-0.7,0-1.5-0.1-2.6s-0.2-2.2-0.3-3.5
			c-0.1-1.5-0.2-2.3-0.2-2.6c0-0.7,0.1-1.2,0.3-1.5C77.9,82.6,78.2,82.4,78.8,82.3z M81.7,85.6c-0.1-0.2-0.3-0.4-0.5-0.4
			s-0.3,0.1-0.5,0.3c-0.1,0.2-0.1,0.4,0,0.6c0,0,0.1,1,0.2,2.9s0.2,2.9,0.3,3s0.2-0.1,0.5-0.4c0.2-0.3,0.3-0.8,0.3-1.6
			c0-0.6,0-1.1-0.1-1.5C81.9,87,81.8,86,81.7,85.6z"/>
		<path class="st2" d="M94.3,84.8c0.4-0.1,0.8-0.1,1.5-0.1c1.7,0,2.7,0.2,3.2,0.6c0.3,0.3,0.5,0.6,0.5,1s-0.2,0.7-0.5,1
			s-0.7,0.4-1.2,0.4S97,87.8,96.9,88c-0.2,0.2-0.2,0.8-0.2,1.6c0,0.2,0,1,0.1,2.3c0.1,1.5,0.1,2.5,0.2,2.9s0.2,0.7,0.3,0.7
			c0,0,0.2,0,0.6,0s0.7,0,0.9,0c0.7,0,1.3,0.2,1.6,0.6c0.2,0.2,0.3,0.4,0.3,0.6c0,0.5-0.7,0.9-2,1.4c-0.8,0.3-1.2,0.5-1.4,0.6
			c-0.2,0.1-0.3,0.5-0.3,1c-0.1,0.5-0.1,0.9-0.1,1.3c0,1.5,0.1,2.7,0.4,3.4c0.1,0.3,0.3,0.5,0.4,0.6c0.2,0.1,0.5,0.1,1,0.1
			c0.6,0,1.2,0.1,1.7,0.4s0.7,0.6,0.7,1c0,0.3-0.2,0.6-0.7,1.1c-0.7,0.7-1.9,1.1-3.7,1.1c-1.8,0-2.9-0.4-3.5-1.1
			c-0.3-0.4-0.5-3-0.6-7.8c-0.1-6-0.1-9.5-0.2-10.6l-0.1-3.4l0.6-0.4C93.5,85.1,93.9,84.9,94.3,84.8z"/>
		<path class="st2" d="M109.4,83.1c0.4-0.2,0.8-0.3,1.3-0.3c0.3,0,0.6,0,0.8,0.1c0.9,0.1,1.5,0.2,1.8,0.4c0.3,0.2,0.6,0.5,0.9,0.9
			c0.3,0.5,0.5,1,0.5,1.5s-0.2,1-0.6,1.4s-0.7,0.5-1.1,0.5s-0.8-0.3-1.1-0.8c-0.3-0.4-0.6-0.6-0.9-0.6s-0.5,0.2-0.8,0.6
			s-0.4,0.8-0.5,1.3v0.2c0,1.7,1.3,4.8,3.8,9.3c0.4,0.7,0.8,2.1,1.2,4c0,0.1,0.1,0.3,0.1,0.6c0,1.7-0.4,3-1.1,3.9
			c-0.3,0.4-0.8,0.8-1.5,1.1c-0.7,0.3-1.3,0.5-1.8,0.5c-0.1,0-0.1,0-0.2,0s-0.1,0-0.2,0c-0.7-0.1-1.6-0.6-2.5-1.6
			c-1-0.9-1.5-1.7-1.5-2.2c0-0.2,0.2-0.5,0.5-0.8s0.7-0.5,1-0.6c0.1,0,0.2-0.1,0.3-0.1c0.3,0,0.9,0.5,1.6,1.5
			c0.3,0.4,0.6,0.6,0.9,0.6s0.5-0.2,0.7-0.6c0.1-0.1,0.1-0.3,0.1-0.7c0-1.8-0.8-4.3-2.4-7.7c-1.5-3.2-2.2-5.5-2.2-7
			c0-0.7,0.1-1.3,0.4-1.9c0.5-1.2,0.9-2,1.1-2.3C108.3,83.8,108.8,83.4,109.4,83.1z"/>
		<path class="st2" d="M123,83.1c0.4-0.2,0.8-0.3,1.3-0.3c0.3,0,0.6,0,0.8,0.1c0.9,0.1,1.5,0.2,1.8,0.4c0.3,0.2,0.6,0.5,0.9,0.9
			c0.3,0.5,0.5,1,0.5,1.5s-0.2,1-0.6,1.4c-0.4,0.4-0.7,0.5-1.1,0.5s-0.8-0.3-1.1-0.8c-0.3-0.4-0.6-0.6-0.9-0.6s-0.5,0.2-0.8,0.6
			s-0.4,0.8-0.5,1.3v0.2c0,1.7,1.3,4.8,3.8,9.3c0.4,0.7,0.8,2.1,1.2,4c0,0.1,0,0.3,0,0.6c0,1.7-0.3,3-1,3.9
			c-0.3,0.4-0.8,0.8-1.5,1.1c-0.7,0.3-1.3,0.5-1.9,0.5c-0.1,0-0.1,0-0.2,0s-0.1,0-0.2,0c-0.7-0.1-1.5-0.6-2.5-1.6
			c-1-0.9-1.5-1.7-1.5-2.2c0-0.2,0.2-0.5,0.5-0.8s0.7-0.5,1-0.6c0.1,0,0.2-0.1,0.3-0.1c0.3,0,0.9,0.5,1.6,1.5
			c0.3,0.4,0.6,0.6,0.9,0.6s0.5-0.2,0.7-0.6c0.1-0.1,0.1-0.3,0.1-0.7c0-1.8-0.8-4.3-2.4-7.7c-1.5-3.2-2.2-5.5-2.2-7
			c0-0.7,0.1-1.3,0.4-1.9c0.5-1.2,0.9-2,1.1-2.3C121.8,83.8,122.3,83.4,123,83.1z"/>
		<path class="st1" d="M21.4,131.6c-0.6,0-1.2-0.1-1.7-0.4c-0.5-0.3-0.9-0.6-1.2-1.1l-0.1,1.3h-1.2v-11.5h1.3v4.9
			c0.3-0.4,0.6-0.7,1.1-1s1.1-0.5,1.8-0.5c0.8,0,1.5,0.2,2.1,0.5c0.6,0.4,1,0.9,1.4,1.5c0.3,0.6,0.5,1.3,0.5,2.1
			c0,0.8-0.2,1.5-0.5,2.1s-0.8,1.1-1.4,1.5C22.9,131.4,22.2,131.6,21.4,131.6z M21.3,130.5c0.5,0,1-0.1,1.4-0.4c0.4-0.2,0.7-0.6,1-1
			c0.2-0.5,0.4-1,0.4-1.6s-0.1-1.1-0.4-1.6c-0.2-0.5-0.6-0.8-1-1.1c-0.4-0.2-0.9-0.4-1.4-0.4s-1,0.1-1.4,0.4s-0.7,0.6-1,1.1
			c-0.2,0.4-0.4,1-0.4,1.6s0.1,1.1,0.4,1.6c0.2,0.4,0.5,0.8,1,1C20.3,130.3,20.7,130.5,21.3,130.5z"/>
		<path class="st1" d="M27.4,135l2-4.3h-0.5l-3.2-7.2h1.5l2.6,6.2l2.8-6.2H34L28.8,135H27.4z"/>
		<path class="st1" d="M42.6,131.6c-0.9,0-1.7-0.3-2.2-0.9c-0.5-0.6-0.8-1.4-0.8-2.6v-4.6h1.3v4.5c0,1.6,0.7,2.5,2,2.5
			c0.7,0,1.3-0.2,1.7-0.7s0.7-1.2,0.7-2.1v-4.1h1.4v7.9h-1.2l-0.1-1.4c-0.2,0.5-0.6,0.9-1.1,1.2C43.8,131.5,43.2,131.6,42.6,131.6z"
			/>
		<path class="st1" d="M51.9,131.6c-0.9,0-1.7-0.2-2.4-0.7c-0.6-0.5-1-1.1-1.1-1.9h1.4c0.1,0.4,0.3,0.8,0.7,1.1s0.8,0.5,1.4,0.5
			c0.6,0,1-0.1,1.2-0.4c0.3-0.2,0.4-0.5,0.4-0.9c0-0.5-0.2-0.8-0.5-1s-0.8-0.3-1.5-0.4c-0.4-0.1-0.8-0.2-1.3-0.4
			c-0.4-0.2-0.8-0.4-1.1-0.7c-0.3-0.3-0.4-0.7-0.4-1.2c0-0.7,0.3-1.3,0.8-1.7c0.5-0.4,1.2-0.7,2.1-0.7c0.8,0,1.5,0.2,2.1,0.6
			s0.8,1,0.9,1.8h-1.3c-0.1-0.4-0.2-0.7-0.5-1c-0.3-0.2-0.7-0.3-1.2-0.3s-0.8,0.1-1.1,0.3c-0.3,0.2-0.4,0.5-0.4,0.8s0.2,0.6,0.5,0.8
			c0.3,0.2,0.8,0.3,1.4,0.5c0.5,0.1,1,0.2,1.4,0.4c0.4,0.2,0.8,0.4,1.1,0.7s0.4,0.7,0.4,1.3c0,0.7-0.3,1.3-0.8,1.8
			C53.6,131.4,52.8,131.6,51.9,131.6z"/>
		<path class="st1" d="M57.7,121.7c-0.3,0-0.5-0.1-0.7-0.3s-0.3-0.4-0.3-0.7s0.1-0.5,0.3-0.6c0.2-0.2,0.4-0.3,0.7-0.3
			s0.5,0.1,0.7,0.3c0.2,0.2,0.3,0.4,0.3,0.6c0,0.3-0.1,0.5-0.3,0.7C58.2,121.7,57.9,121.7,57.7,121.7z M57,131.4v-7.9h1.3v7.9H57z"
			/>
		<path class="st1" d="M60.7,131.4v-7.9h1.2l0.1,1.4c0.3-0.5,0.6-0.9,1.1-1.2c0.5-0.3,1-0.4,1.6-0.4c0.9,0,1.7,0.3,2.2,0.9
			c0.6,0.6,0.8,1.4,0.8,2.6v4.6h-1.3v-4.5c0-1.6-0.7-2.5-2-2.5c-0.7,0-1.2,0.2-1.7,0.7c-0.4,0.5-0.7,1.2-0.7,2.1v4.1L60.7,131.4
			L60.7,131.4z"/>
		<path class="st1" d="M73,128.9c-0.4,0-0.9-0.1-1.2-0.2l-0.8,0.8c0.1,0.1,0.3,0.2,0.4,0.2c0.2,0.1,0.4,0.1,0.8,0.2
			c0.3,0,0.8,0.1,1.4,0.1c1.1,0.1,1.8,0.3,2.3,0.7s0.7,1,0.7,1.6c0,0.5-0.1,0.9-0.4,1.3c-0.2,0.4-0.6,0.8-1.2,1
			c-0.5,0.3-1.2,0.4-2,0.4c-0.7,0-1.3-0.1-1.9-0.3s-1-0.5-1.3-0.9s-0.5-0.9-0.5-1.4c0-0.3,0.1-0.6,0.2-1c0.2-0.4,0.5-0.7,0.9-1
			c-0.2-0.1-0.4-0.2-0.6-0.3s-0.3-0.2-0.5-0.4v-0.4l1.4-1.3c-0.6-0.5-0.9-1.2-0.9-2.1c0-0.5,0.1-1,0.4-1.4c0.2-0.4,0.6-0.8,1.1-1
			s1-0.4,1.7-0.4c0.5,0,0.9,0.1,1.2,0.2h2.9v1l-1.5,0.1c0.3,0.4,0.5,1,0.5,1.6c0,0.5-0.1,1-0.4,1.4c-0.2,0.4-0.6,0.8-1.1,1
			C74.2,128.8,73.7,128.9,73,128.9z M70.6,132.5c0,0.5,0.2,0.9,0.7,1.2c0.4,0.3,1,0.4,1.7,0.4s1.2-0.1,1.6-0.4
			c0.4-0.3,0.6-0.7,0.6-1.2c0-0.3-0.1-0.6-0.4-0.9s-0.8-0.4-1.5-0.4c-0.6,0-1.1-0.1-1.5-0.2c-0.4,0.2-0.7,0.5-0.9,0.8
			C70.7,132,70.6,132.2,70.6,132.5z M73,127.8c0.6,0,1-0.2,1.3-0.4c0.3-0.3,0.5-0.7,0.5-1.3c0-0.5-0.2-1-0.5-1.3s-0.8-0.4-1.3-0.4
			c-0.6,0-1,0.1-1.4,0.4c-0.3,0.3-0.5,0.7-0.5,1.3s0.2,1,0.5,1.3C72,127.7,72.4,127.8,73,127.8z"/>
		<path class="st1" d="M86.1,131.4c-0.7,0-1.3-0.2-1.7-0.5c-0.4-0.3-0.6-1-0.6-1.9v-4.4h-1.4v-1.1h1.3l0.2-1.9h1.2v1.9h2.3v1.1h-2.3
			v4.4c0,0.5,0.1,0.8,0.3,1c0.2,0.2,0.6,0.3,1.1,0.3h0.8v1.1L86.1,131.4L86.1,131.4z"/>
		<path class="st1" d="M89.1,131.4v-11.5h1.3v4.9c0.3-0.5,0.6-0.9,1.1-1.1c0.5-0.3,1-0.4,1.6-0.4c0.9,0,1.7,0.3,2.2,0.9
			c0.6,0.6,0.8,1.4,0.8,2.6v4.6h-1.3v-4.5c0-1.6-0.7-2.5-2-2.5c-0.7,0-1.3,0.2-1.7,0.7c-0.5,0.5-0.7,1.2-0.7,2.1v4.1L89.1,131.4
			L89.1,131.4z"/>
		<path class="st1" d="M101.8,131.6c-0.8,0-1.4-0.2-2-0.5c-0.6-0.4-1.1-0.8-1.4-1.5c-0.3-0.6-0.5-1.3-0.5-2.2c0-0.8,0.2-1.6,0.5-2.2
			s0.8-1.1,1.4-1.5c0.6-0.3,1.3-0.5,2.1-0.5c0.8,0,1.4,0.2,2,0.5c0.6,0.4,1,0.8,1.3,1.4s0.5,1.2,0.5,1.8c0,0.1,0,0.2,0,0.4
			c0,0.1,0,0.2,0,0.4h-6.3c0,0.6,0.2,1.1,0.4,1.5c0.2,0.4,0.6,0.7,0.9,0.9c0.4,0.2,0.8,0.3,1.2,0.3c0.6,0,1-0.1,1.4-0.4
			c0.4-0.3,0.6-0.6,0.8-1h1.3c-0.2,0.7-0.6,1.3-1.2,1.8C103.5,131.4,102.8,131.6,101.8,131.6z M101.8,124.4c-0.6,0-1.2,0.2-1.7,0.6
			s-0.8,1-0.9,1.7h5c0-0.7-0.3-1.3-0.7-1.7C103.1,124.6,102.5,124.4,101.8,124.4z"/>
		<path class="st1" d="M114.6,131.6c-0.9,0-1.7-0.2-2.4-0.7c-0.6-0.5-1-1.1-1.1-1.9h1.4c0.1,0.4,0.3,0.8,0.7,1.1
			c0.3,0.3,0.8,0.5,1.4,0.5s1-0.1,1.2-0.4c0.3-0.2,0.4-0.5,0.4-0.9c0-0.5-0.2-0.8-0.5-1c-0.4-0.2-0.8-0.3-1.5-0.4
			c-0.4-0.1-0.9-0.2-1.3-0.4c-0.4-0.2-0.8-0.4-1.1-0.7c-0.3-0.3-0.4-0.7-0.4-1.2c0-0.7,0.3-1.3,0.8-1.7s1.2-0.7,2.1-0.7
			c0.8,0,1.5,0.2,2.1,0.6c0.5,0.4,0.9,1,0.9,1.8H116c-0.1-0.4-0.2-0.7-0.5-1c-0.3-0.2-0.7-0.3-1.2-0.3s-0.9,0.1-1.1,0.3
			s-0.4,0.5-0.4,0.8s0.2,0.6,0.5,0.8c0.3,0.2,0.8,0.3,1.4,0.5c0.5,0.1,1,0.2,1.4,0.4c0.4,0.2,0.8,0.4,1.1,0.7
			c0.3,0.3,0.4,0.7,0.4,1.3c0,0.7-0.3,1.3-0.8,1.8C116.3,131.4,115.6,131.6,114.6,131.6z"/>
		<path class="st1" d="M122.4,131.4c-0.7,0-1.3-0.2-1.7-0.5c-0.4-0.3-0.6-1-0.6-1.9v-4.4h-1.4v-1.1h1.4l0.2-1.9h1.2v1.9h2.3v1.1
			h-2.3v4.4c0,0.5,0.1,0.8,0.3,1c0.2,0.2,0.6,0.3,1.1,0.3h0.8v1.1L122.4,131.4L122.4,131.4z"/>
		<path class="st1" d="M128.8,131.6c-0.8,0-1.4-0.2-2-0.5c-0.6-0.4-1.1-0.8-1.4-1.5c-0.3-0.6-0.5-1.3-0.5-2.2c0-0.8,0.2-1.6,0.5-2.2
			s0.8-1.1,1.4-1.5c0.6-0.3,1.3-0.5,2.1-0.5s1.4,0.2,2,0.5c0.6,0.4,1,0.8,1.3,1.4s0.4,1.2,0.4,1.8c0,0.1,0,0.2,0,0.4s0,0.2,0,0.4
			h-6.3c0,0.6,0.2,1.1,0.4,1.5c0.2,0.4,0.6,0.7,0.9,0.9s0.8,0.3,1.2,0.3c0.5,0,1-0.1,1.4-0.4c0.4-0.3,0.6-0.6,0.8-1h1.3
			c-0.2,0.7-0.6,1.3-1.2,1.8C130.5,131.4,129.7,131.6,128.8,131.6z M128.8,124.4c-0.6,0-1.2,0.2-1.7,0.6s-0.8,1-0.9,1.7h5
			c0-0.7-0.3-1.3-0.7-1.7C130,124.6,129.5,124.4,128.8,124.4z"/>
		<path class="st1" d="M134.3,135v-11.5h1.2l0.1,1.3c0.3-0.4,0.6-0.7,1.1-1s1.1-0.5,1.8-0.5c0.8,0,1.5,0.2,2.1,0.5
			c0.6,0.4,1,0.9,1.4,1.5s0.5,1.3,0.5,2.1s-0.2,1.5-0.5,2.1s-0.8,1.1-1.4,1.5c-0.6,0.4-1.3,0.5-2.1,0.5c-0.7,0-1.2-0.1-1.7-0.4
			s-0.9-0.6-1.2-1.1v4.8h-1.3V135z M138.4,130.5c0.5,0,1-0.1,1.4-0.4s0.7-0.6,1-1c0.2-0.5,0.3-1,0.3-1.6s-0.1-1.1-0.3-1.6
			s-0.6-0.8-1-1.1s-0.9-0.4-1.4-0.4s-1,0.1-1.4,0.4c-0.4,0.2-0.7,0.6-1,1.1c-0.2,0.4-0.4,1-0.4,1.6s0.1,1.1,0.4,1.6
			c0.2,0.4,0.6,0.8,1,1C137.4,130.3,137.9,130.5,138.4,130.5z"/>
		<path class="st1" d="M20.8,153.6c-0.8,0-1.4-0.2-2-0.5c-0.6-0.4-1.1-0.8-1.4-1.5s-0.5-1.4-0.5-2.2s0.2-1.6,0.5-2.2
			c0.3-0.6,0.8-1.1,1.4-1.5s1.3-0.5,2-0.5c0.9,0,1.7,0.2,2.4,0.7c0.6,0.5,1,1.1,1.2,2H23c-0.1-0.5-0.4-0.9-0.8-1.1
			c-0.4-0.3-0.9-0.4-1.5-0.4c-0.5,0-0.9,0.1-1.3,0.3s-0.7,0.6-1,1c-0.2,0.4-0.4,1-0.4,1.7s0.1,1.2,0.4,1.7s0.6,0.8,1,1
			s0.8,0.3,1.3,0.3s1-0.1,1.5-0.4c0.4-0.3,0.7-0.7,0.8-1.2h1.4c-0.2,0.8-0.6,1.5-1.2,2C22.6,153.4,21.8,153.6,20.8,153.6z"/>
		<path class="st1" d="M29.9,153.6c-0.8,0-1.4-0.2-2-0.5s-1.1-0.8-1.4-1.5c-0.3-0.6-0.5-1.4-0.5-2.2s0.2-1.6,0.5-2.2
			c0.4-0.6,0.8-1.1,1.4-1.4c0.6-0.3,1.3-0.5,2-0.5c0.8,0,1.4,0.2,2,0.5c0.6,0.3,1.1,0.8,1.4,1.4c0.3,0.6,0.5,1.4,0.5,2.2
			s-0.2,1.6-0.5,2.2c-0.3,0.6-0.8,1.1-1.4,1.5C31.3,153.5,30.7,153.6,29.9,153.6z M29.9,152.5c0.5,0,0.9-0.1,1.3-0.3s0.7-0.6,1-1
			c0.2-0.5,0.4-1,0.4-1.7s-0.1-1.2-0.4-1.7c-0.2-0.4-0.6-0.8-0.9-1c-0.4-0.2-0.8-0.3-1.3-0.3s-0.9,0.1-1.3,0.3s-0.7,0.6-1,1
			c-0.2,0.4-0.4,1-0.4,1.7s0.1,1.2,0.4,1.7s0.6,0.8,0.9,1C29,152.4,29.5,152.5,29.9,152.5z"/>
		<path class="st1" d="M38.7,153.6c-0.9,0-1.7-0.3-2.2-0.9c-0.5-0.6-0.8-1.4-0.8-2.6v-4.6H37v4.5c0,1.6,0.7,2.5,2,2.5
			c0.7,0,1.3-0.2,1.7-0.7c0.5-0.5,0.7-1.2,0.7-2.1v-4.1h1.3v7.9h-1.2l-0.1-1.4c-0.2,0.5-0.6,0.9-1.1,1.2
			C39.8,153.5,39.3,153.6,38.7,153.6z"/>
		<path class="st1" d="M44.9,153.4v-7.9h1.2l0.1,1.4c0.3-0.5,0.6-0.9,1.1-1.2s1-0.4,1.6-0.4c0.9,0,1.7,0.3,2.2,0.9
			c0.6,0.6,0.8,1.5,0.8,2.6v4.6h-1.2v-4.5c0-1.6-0.7-2.5-2-2.5c-0.7,0-1.2,0.2-1.7,0.7c-0.4,0.5-0.7,1.2-0.7,2.1v4.1L44.9,153.4
			L44.9,153.4z"/>
		<path class="st1" d="M57.2,153.4c-0.7,0-1.3-0.2-1.7-0.5c-0.4-0.4-0.6-1-0.6-1.9v-4.4h-1.4v-1.1h1.4l0.2-1.9h1.2v1.9h2.3v1.1h-2.3
			v4.4c0,0.5,0.1,0.8,0.3,1s0.6,0.3,1.1,0.3h0.8v1.1L57.2,153.4L57.2,153.4z"/>
		<path class="st1" d="M68.1,153.6c-0.8,0-1.4-0.2-2-0.5s-1.1-0.8-1.4-1.5c-0.3-0.6-0.5-1.4-0.5-2.2s0.2-1.6,0.5-2.2
			c0.4-0.6,0.8-1.1,1.4-1.4c0.6-0.3,1.3-0.5,2-0.5c0.8,0,1.4,0.2,2,0.5s1.1,0.8,1.4,1.4c0.3,0.6,0.5,1.4,0.5,2.2s-0.2,1.6-0.5,2.2
			c-0.3,0.6-0.8,1.1-1.4,1.5S68.9,153.6,68.1,153.6z M68.1,152.5c0.5,0,0.9-0.1,1.3-0.3s0.7-0.6,1-1c0.2-0.5,0.4-1,0.4-1.7
			s-0.1-1.2-0.4-1.7c-0.2-0.5-0.6-0.8-0.9-1c-0.4-0.2-0.8-0.3-1.3-0.3s-0.9,0.1-1.3,0.3s-0.7,0.6-1,1c-0.2,0.4-0.4,1-0.4,1.7
			s0.1,1.2,0.4,1.7c0.2,0.4,0.6,0.8,0.9,1C67.3,152.4,67.7,152.5,68.1,152.5z"/>
		<path class="st1" d="M74,153.4v-7.9h1.2l0.1,1.4c0.3-0.5,0.6-0.9,1.1-1.2s1-0.4,1.6-0.4c0.9,0,1.7,0.3,2.2,0.9
			c0.6,0.6,0.8,1.5,0.8,2.6v4.6h-1.3v-4.5c0-1.6-0.7-2.5-2-2.5c-0.7,0-1.2,0.2-1.7,0.7s-0.7,1.2-0.7,2.1v4.1L74,153.4L74,153.4z"/>
		<path class="st1" d="M88.2,157l2-4.3h-0.5l-3.2-7.2H88l2.6,6.2l2.8-6.2h1.4L89.6,157H88.2z"/>
		<path class="st1" d="M99.1,153.6c-0.8,0-1.4-0.2-2-0.5s-1.1-0.8-1.4-1.5c-0.3-0.6-0.5-1.4-0.5-2.2s0.2-1.6,0.5-2.2
			s0.8-1.1,1.4-1.4c0.6-0.3,1.3-0.5,2-0.5c0.8,0,1.4,0.2,2,0.5s1.1,0.8,1.4,1.4s0.5,1.4,0.5,2.2s-0.2,1.6-0.5,2.2
			c-0.3,0.6-0.8,1.1-1.4,1.5C100.5,153.5,99.9,153.6,99.1,153.6z M99.1,152.5c0.5,0,0.9-0.1,1.3-0.3s0.7-0.6,1-1
			c0.2-0.5,0.4-1,0.4-1.7s-0.1-1.2-0.4-1.7c-0.2-0.5-0.6-0.8-0.9-1c-0.4-0.2-0.8-0.3-1.3-0.3s-0.9,0.1-1.3,0.3s-0.7,0.6-1,1
			c-0.2,0.4-0.4,1-0.4,1.7s0.1,1.2,0.4,1.7c0.2,0.4,0.6,0.8,0.9,1C98.3,152.4,98.7,152.5,99.1,152.5z"/>
		<path class="st1" d="M107.9,153.6c-0.9,0-1.7-0.3-2.2-0.9c-0.6-0.6-0.8-1.4-0.8-2.6v-4.6h1.3v4.5c0,1.6,0.7,2.5,2,2.5
			c0.7,0,1.3-0.2,1.7-0.7c0.4-0.5,0.7-1.2,0.7-2.1v-4.1h1.3v7.9h-1.2l-0.1-1.4c-0.2,0.5-0.6,0.9-1.1,1.2
			C109,153.5,108.5,153.6,107.9,153.6z"/>
		<path class="st1" d="M114.1,153.4v-7.9h1.2l0.1,1.5c0.2-0.5,0.6-0.9,1.1-1.2s1.1-0.5,1.9-0.5v1.4H118c-0.5,0-0.9,0.1-1.3,0.2
			c-0.4,0.2-0.7,0.4-0.9,0.8c-0.2,0.4-0.4,0.9-0.4,1.6v4L114.1,153.4L114.1,153.4z"/>
		<path class="st1" d="M17.2,179v-11.5h1.2l0.1,1.3c0.3-0.4,0.6-0.7,1.1-1s1.1-0.5,1.8-0.5c0.8,0,1.5,0.2,2.1,0.5
			c0.6,0.4,1,0.9,1.4,1.5c0.3,0.6,0.5,1.3,0.5,2.1s-0.2,1.5-0.5,2.1s-0.8,1.1-1.4,1.5s-1.3,0.5-2.1,0.5c-0.7,0-1.2-0.1-1.7-0.4
			c-0.5-0.3-0.9-0.6-1.2-1.1v4.9L17.2,179L17.2,179z M21.3,174.5c0.5,0,1-0.1,1.4-0.4c0.4-0.2,0.7-0.6,1-1c0.2-0.5,0.4-1,0.4-1.6
			s-0.1-1.1-0.4-1.6c-0.2-0.4-0.6-0.8-1-1s-0.9-0.4-1.4-0.4s-1,0.1-1.4,0.4s-0.7,0.6-1,1c-0.2,0.5-0.4,1-0.4,1.6s0.1,1.1,0.4,1.6
			c0.2,0.4,0.5,0.8,1,1C20.3,174.3,20.7,174.5,21.3,174.5z"/>
		<path class="st1" d="M27.2,175.4v-11.5h1.3v4.9c0.3-0.5,0.7-0.9,1.1-1.1c0.5-0.3,1-0.4,1.6-0.4c0.9,0,1.6,0.3,2.2,0.9
			c0.5,0.6,0.8,1.5,0.8,2.6v4.6h-1.3v-4.5c0-1.6-0.7-2.5-2-2.5c-0.7,0-1.3,0.2-1.7,0.7c-0.5,0.5-0.7,1.2-0.7,2.1v4.1L27.2,175.4
			L27.2,175.4z"/>
		<path class="st1" d="M40,175.6c-0.8,0-1.4-0.2-2-0.5s-1.1-0.8-1.4-1.5c-0.3-0.6-0.5-1.4-0.5-2.2s0.2-1.6,0.5-2.2
			c0.4-0.6,0.8-1.1,1.4-1.4c0.6-0.3,1.3-0.5,2-0.5c0.8,0,1.4,0.2,2,0.5s1.1,0.8,1.4,1.4c0.3,0.6,0.5,1.4,0.5,2.2s-0.2,1.6-0.5,2.2
			c-0.3,0.6-0.8,1.1-1.4,1.5C41.4,175.5,40.7,175.6,40,175.6z M40,174.5c0.5,0,0.9-0.1,1.3-0.3c0.4-0.2,0.7-0.6,1-1
			c0.2-0.5,0.4-1,0.4-1.7s-0.1-1.2-0.4-1.7c-0.2-0.5-0.6-0.8-0.9-1c-0.4-0.2-0.8-0.3-1.3-0.3s-0.9,0.1-1.3,0.3c-0.4,0.2-0.7,0.6-1,1
			c-0.2,0.4-0.4,1-0.4,1.7s0.1,1.2,0.4,1.7c0.2,0.4,0.6,0.8,0.9,1C39.1,174.4,39.5,174.5,40,174.5z"/>
		<path class="st1" d="M45.8,175.4v-7.9H47l0.1,1.4c0.3-0.5,0.6-0.9,1.1-1.2s1-0.4,1.6-0.4c0.9,0,1.7,0.3,2.2,0.9
			c0.6,0.6,0.8,1.5,0.8,2.6v4.6h-1.3v-4.5c0-1.6-0.7-2.5-2.1-2.5c-0.7,0-1.2,0.2-1.7,0.7c-0.4,0.5-0.7,1.2-0.7,2.1v4.1L45.8,175.4
			L45.8,175.4z"/>
		<path class="st1" d="M58.6,175.6c-0.8,0-1.4-0.2-2-0.5c-0.6-0.4-1-0.8-1.4-1.4c-0.3-0.6-0.5-1.4-0.5-2.2s0.2-1.6,0.5-2.2
			c0.3-0.6,0.8-1.1,1.4-1.5c0.6-0.4,1.3-0.5,2.1-0.5s1.4,0.2,2,0.5s1,0.8,1.3,1.4c0.3,0.6,0.4,1.2,0.4,1.8c0,0.1,0,0.2,0,0.4
			c0,0.1,0,0.2,0,0.4h-6.3c0,0.6,0.2,1.1,0.4,1.5s0.6,0.7,0.9,0.9c0.4,0.2,0.8,0.3,1.2,0.3c0.5,0,1-0.1,1.4-0.4
			c0.4-0.3,0.6-0.6,0.8-1h1.3c-0.2,0.7-0.6,1.4-1.2,1.8C60.3,175.4,59.5,175.6,58.6,175.6z M58.6,168.4c-0.6,0-1.2,0.2-1.7,0.6
			c-0.5,0.4-0.8,1-0.9,1.7h5c0-0.7-0.3-1.3-0.7-1.7C59.8,168.6,59.2,168.4,58.6,168.4z"/>
		<path class="st1" d="M64.6,175.5c-0.3,0-0.5-0.1-0.7-0.3c-0.2-0.2-0.3-0.4-0.3-0.6c0-0.3,0.1-0.5,0.3-0.6c0.2-0.2,0.4-0.3,0.7-0.3
			s0.5,0.1,0.7,0.3s0.3,0.4,0.3,0.6c0,0.3-0.1,0.5-0.3,0.6C65,175.4,64.8,175.5,64.6,175.5z"/>
		<path class="st3" d="M282.4,45.6l-6.5-2.1l-52.6-17.2l-6.5-2.1c-5.2-1.7-10.7,1.1-12.4,6.3l-2.1,6.5l-35.1,107.3l-0.1,0.3l-2,6.2
			l-3.4,10.2c-2.6,8.1,1.8,16.8,9.8,19.4l27.5,9l17.3,5.7l10.2,3.3c8.1,2.6,16.8-1.8,19.4-9.8l3.3-10.2l35.9-109.5l3.6-10.9
			C290.4,52.9,287.6,47.3,282.4,45.6z"/>
		<path class="st4" d="M275.1,91l-1.9-0.6l4.4-13.4l1.9,0.6c0.6,0.2,0.9,0.8,0.7,1.4l-3.7,11.3C276.2,90.9,275.6,91.2,275.1,91z"/>
		<path class="st4" d="M269.8,106.7l-1.9-0.6l4.4-13.4l1.9,0.6c0.6,0.2,0.9,0.8,0.7,1.4l-3.7,11.3
			C271,106.6,270.4,106.9,269.8,106.7z"/>
		<path class="st5" d="M214.9,191.5l-39.7-13c-13-4.2-20.1-18.2-15.8-31.2l39.5-120.6c2.7-8.3,11.6-12.8,19.9-10.1l56.7,18.6
			c8.3,2.7,12.8,11.6,10.1,19.9l-39.5,120.6C241.9,188.7,227.9,195.8,214.9,191.5z"/>
		<path class="st5" d="M283.8,60.9l3.7-11.2c1.7-5.3-1.1-11-6.5-12.7l-67.6-22.1c-5.3-1.7-11,1.1-12.7,6.5L197,32.6L283.8,60.9z"/>
		<path class="st4" d="M162.3,138.5l-5.7,17.3c-2.7,8.3,1.8,17.3,10.1,20l56.7,18.5c8.3,2.7,17.3-1.8,20-10.1l5.7-17.3L162.3,138.5z
			"/>
		<path class="st5" d="M200.4,177.4c4.6,0,8.4-3.8,8.4-8.4s-3.8-8.4-8.4-8.4c-4.7,0-8.4,3.8-8.4,8.4S195.7,177.4,200.4,177.4z"/>
		<path class="st4" d="M232.7,102.9c18,0,32.6-14.6,32.6-32.6s-14.6-32.6-32.6-32.6s-32.6,14.6-32.6,32.6S214.7,102.9,232.7,102.9z"
			/>
		<path class="st0" d="M242.1,108.9c5.8,0,10.5-4.7,10.5-10.4c0-5.8-4.7-10.4-10.5-10.4s-10.4,4.7-10.4,10.4
			C231.6,104.2,236.3,108.9,242.1,108.9z"/>
		<path class="st6" d="M236.9,98.3l1.9,3.1c0.2,0.3,0.5,0.4,0.8,0.2l7.9-5"/>
		<path class="st4" d="M188.2,127.3c5.4,0,9.7-4.3,9.7-9.7c0-5.4-4.3-9.7-9.7-9.7s-9.7,4.3-9.7,9.7
			C178.5,122.9,182.9,127.3,188.2,127.3z"/>
		<path class="st7" d="M186.7,112.2c0.4-0.1,0.6-0.5,0.6-0.9c-0.1-0.4-0.5-0.6-0.9-0.5s-0.6,0.5-0.6,0.9c0,0.1,0.1,0.2,0.2,0.3"/>
		<path class="st0" d="M186.2,112.8l-1.3,4.5c3.1-0.5,3.9,2.6,7,2.1l1.3-4.5C190.2,115.4,189.3,112.3,186.2,112.8z"/>
		<path class="st7" d="M183.5,122.6l-0.4-0.1c-0.1,0-0.1-0.1-0.1-0.2l3.2-10.8c0,0,0-0.1,0.1,0l0.6,0.2c0,0,0.1,0,0,0.1l-3.2,10.8
			C183.7,122.5,183.6,122.6,183.5,122.6z"/>
		<path class="st8" d="M173.9,127.1l20.1,6.6"/>
		<path class="st8" d="M172.8,130.6l20.1,6.6"/>
		<path class="st4" d="M214.2,135.8c5.4,0,9.7-4.3,9.7-9.7c0-5.4-4.3-9.7-9.7-9.7s-9.7,4.3-9.7,9.7
			C204.5,131.5,208.9,135.8,214.2,135.8z"/>
		<path class="st7" d="M212.7,120.7c0.4-0.1,0.6-0.5,0.6-0.9c-0.1-0.4-0.5-0.7-0.9-0.6s-0.6,0.5-0.6,0.9c0,0.1,0.1,0.2,0.2,0.3"/>
		<path class="st0" d="M212.2,121.3l-1.3,4.5c3.1-0.5,3.9,2.6,7,2.1l1.3-4.5C216.2,124,215.3,120.8,212.2,121.3z"/>
		<path class="st7" d="M209.5,131.1l-0.4-0.1c-0.1,0-0.1-0.1-0.1-0.2l3.2-10.8c0,0,0-0.1,0.1,0l0.6,0.2c0,0,0.1,0,0,0.1l-3.2,10.8
			C209.7,131.1,209.6,131.1,209.5,131.1z"/>
		<path class="st8" d="M199.9,135.6l20.1,6.6"/>
		<path class="st8" d="M198.8,139.1l20.1,6.6"/>
		<path class="st4" d="M240.5,144.4c5.4,0,9.7-4.3,9.7-9.7s-4.3-9.7-9.7-9.7s-9.7,4.3-9.7,9.7S235.2,144.4,240.5,144.4z"/>
		<path class="st7" d="M239,129.3c0.4-0.1,0.6-0.5,0.5-0.9s-0.5-0.6-0.9-0.6c-0.4,0.1-0.6,0.5-0.5,0.9c0,0.1,0.1,0.2,0.2,0.3"/>
		<path class="st0" d="M238.6,129.9l-1.3,4.5c3.1-0.5,3.9,2.6,7,2.1l1.3-4.5C242.5,132.6,241.6,129.4,238.6,129.9z"/>
		<path class="st7" d="M235.8,139.7l-0.4-0.1c-0.1,0-0.1-0.1-0.1-0.2l3.2-10.8c0,0,0,0,0.1,0l0.6,0.2c0,0,0,0,0,0.1l-3.2,10.8
			C236,139.7,235.9,139.7,235.8,139.7z"/>
		<path class="st8" d="M226.3,144.3l20.1,6.6"/>
		<path class="st8" d="M225.1,147.7l20.1,6.6"/>
		<path class="st4" d="M239.3,73.1c-0.3-0.1-0.7-0.1-0.9,0.2l-8.9,7.2l2.8-20.8c0.1-0.4-0.2-0.8-0.5-1c-0.4-0.2-0.8-0.1-1.1,0.2
			l-8.4,8l-8.4-3.1c0,0.4,0.1,0.9,0.2,1.4l7.9,2.9c0.4,0.1,0.8,0,1-0.2l8.1-7.7l-3,20.7c-0.1,0.4,0.1,0.8,0.5,1c0.1,0,0.1,0,0.1,0.1
			c0.3,0.1,0.7,0.1,0.9-0.2l9.3-7.5l10.6,3.9c0.4-0.3,0.7-0.6,1-0.9L239.3,73.1z"/>
		<path class="st9" d="M246.5,76.5c-0.8-0.6-1.6-0.9-2.5-1.3s-1.7-0.7-2.2-1c-0.3-0.2-0.4-0.3-0.5-0.4s-0.1-0.1-0.1-0.1
			c0-0.1,0-0.1,0-0.2l-1.1-8c-0.1-0.4-0.4-0.7-0.8-0.8l-3.5-0.3c-0.7-0.1-1.3-0.6-1.8-1.5s-0.9-2.1-1.1-3.1
			c-0.1-0.4-0.3-0.7-0.8-0.7c-0.3,0-0.5,0.1-0.7,0.2l-8.9,7.5c-0.2,0.2-0.3,0.4-0.3,0.6s0,0.5,0.2,0.6l10.2,11.4l0,0
			c2.5,2.6,4.4,3.5,6.5,3.7l7.3,0.6c0.5,0,0.9-0.3,0.9-0.8l0.3-4.1C247.9,77.9,247.3,77,246.5,76.5z"/>
		<path class="st10" d="M244.7,82.1c-1.5-0.1-3-0.3-4.4-0.8c-1.3-0.5-2.5-1.2-3.6-2c-1.1-0.9-2-2-2.9-3.1c-1-1.2-1.9-2.5-2.9-3.7
			c-0.9-1.1-1.9-2.1-2.8-3c-1.2-1.3-2.5-2.6-3.6-4l-1.8,1.5c-0.2,0.2-0.3,0.4-0.3,0.6s0,0.5,0.2,0.6l10.2,11.4l0,0
			c2.5,2.6,4.4,3.5,6.5,3.7l7.3,0.6c0.5,0,0.9-0.3,1-0.8v-0.6C246.6,82.3,245.6,82.2,244.7,82.1z"/>
		<path class="st0" d="M234.8,63.1c-1.9-0.2-5.4,1.8-7.1,1.7l-7.3-3.5c-1.1-0.7-2.6,2.6-3.2,3c-6.9,3.1-7.6-7.1-5.4,11
			c1.2-0.1,2.4-0.1,3.6-0.2c3.8-0.2,27.2-6.9,23-5.7C239.1,69.2,239,63.2,234.8,63.1z"/>
		<path class="st11" d="M211.6,74.3c-0.1,0,0.1,2.7,0.5,3.1c8.4-1,17.6-2.9,26-5.3c0.6-0.1,1.1-0.7,1-1.4c-0.1-0.9-0.3-2.7-0.5-2.4
			C237.9,69.3,218.5,73.3,211.6,74.3z"/>
	</g>
</g>
</svg>
