<?xml version="1.0" encoding="utf-8"?>
<!-- Generator: Adobe Illustrator 25.1.0, SVG Export Plug-In . SVG Version: 6.00 Build 0)  -->
<svg version="1.1" id="Layer_1" xmlns="http://www.w3.org/2000/svg" xmlns:xlink="http://www.w3.org/1999/xlink" x="0px" y="0px"
	 viewBox="0 0 329.4 253.7" style="enable-background:new 0 0 329.4 253.7;" xml:space="preserve">
<style type="text/css">
	.st0{fill:#FFFFFF;}
	.st1{fill:#808080;}
	.st2{fill:#00CDDC;}
	.st3{fill:#00A878;}
	.st4{fill:#28C86E;}
	.st5{fill:#3CDC82;}
	.st6{fill:#32DCD2;}
	.st7{fill:none;stroke:#28C86E;stroke-width:0.2683;stroke-linecap:round;stroke-miterlimit:10;}
	.st8{fill:#FFCF8D;}
	.st9{fill:#FF9F1A;}
</style>
<g>
	<g>
		<g>
			<path class="st0" d="M1.9,71c0,164-16.7,167.2,48.9,179.7c27.5,5.2,135.9,2.1,172.6,1.5c36.1-0.7,94.4,1.6,100.7-23.6
				c6.3-24.9,5.2-56.5,5.2-101.2c0-70.3-1.7-113.7-38.8-122.6c-37.7-9-145-2.8-190.5-1.7C53.1,4.1,1.9-0.6,1.9,71z"/>
			<path class="st1" d="M31.6,121.1v-11.2h3.9c0.8,0,1.4,0.1,2,0.4s0.9,0.6,1.2,1s0.4,0.9,0.4,1.5c0,0.7-0.2,1.3-0.6,1.7
				c-0.4,0.4-0.9,0.7-1.4,0.9c0.4,0.1,0.8,0.2,1.1,0.5s0.6,0.6,0.8,1s0.3,0.8,0.3,1.3c0,0.6-0.1,1.1-0.4,1.5
				c-0.3,0.5-0.7,0.8-1.2,1.1c-0.5,0.3-1.2,0.4-2,0.4L31.6,121.1L31.6,121.1z M32.9,114.8h2.5c0.7,0,1.3-0.2,1.6-0.5
				c0.4-0.3,0.6-0.8,0.6-1.4s-0.2-1-0.6-1.4c-0.4-0.3-1-0.5-1.7-0.5h-2.5v3.8H32.9z M32.9,120h2.6c0.8,0,1.4-0.2,1.8-0.5
				c0.4-0.4,0.6-0.9,0.6-1.5s-0.2-1.1-0.7-1.5c-0.4-0.4-1-0.6-1.8-0.6h-2.5C32.9,115.9,32.9,120,32.9,120z"/>
			<path class="st1" d="M44.7,121.3c-0.8,0-1.4-0.2-2-0.5s-1.1-0.8-1.4-1.4c-0.3-0.6-0.5-1.3-0.5-2.2c0-0.8,0.2-1.6,0.5-2.2
				s0.8-1.1,1.4-1.5c0.6-0.3,1.3-0.5,2.1-0.5s1.4,0.2,2,0.5c0.6,0.4,1,0.8,1.3,1.4s0.4,1.2,0.4,1.8c0,0.1,0,0.2,0,0.4
				c0,0.1,0,0.2,0,0.4h-6.3c0,0.6,0.2,1.1,0.4,1.5s0.6,0.7,0.9,0.9c0.4,0.2,0.8,0.3,1.2,0.3c0.6,0,1-0.1,1.4-0.4s0.7-0.6,0.8-1h1.3
				c-0.2,0.7-0.6,1.3-1.2,1.8C46.4,121,45.6,121.3,44.7,121.3z M44.7,114.1c-0.6,0-1.2,0.2-1.7,0.6s-0.8,1-0.9,1.7h5
				c0-0.7-0.3-1.3-0.7-1.7C45.9,114.3,45.3,114.1,44.7,114.1z"/>
			<path class="st1" d="M51,111.4c-0.3,0-0.5-0.1-0.7-0.3c-0.2-0.2-0.3-0.4-0.3-0.7s0.1-0.5,0.3-0.6c0.2-0.2,0.4-0.3,0.7-0.3
				s0.5,0.1,0.7,0.3c0.2,0.2,0.3,0.4,0.3,0.6c0,0.3-0.1,0.5-0.3,0.7C51.5,111.3,51.3,111.4,51,111.4z M50.4,121.1v-7.9h1.3v7.9H50.4
				z"/>
			<path class="st1" d="M54,121.1v-7.9h1.2l0.1,1.4c0.3-0.5,0.6-0.9,1.1-1.2c0.5-0.3,1-0.4,1.6-0.4c0.9,0,1.7,0.3,2.2,0.9
				c0.6,0.6,0.8,1.5,0.8,2.6v4.6h-1.3v-4.5c0-1.6-0.7-2.5-2.1-2.5c-0.7,0-1.2,0.2-1.7,0.7c-0.4,0.5-0.7,1.2-0.7,2.1v4.1L54,121.1
				L54,121.1z"/>
			<path class="st1" d="M66.3,118.6c-0.5,0-0.9-0.1-1.2-0.2l-0.8,0.8c0.1,0.1,0.3,0.2,0.4,0.2c0.2,0.1,0.4,0.1,0.8,0.2
				c0.3,0.1,0.8,0.1,1.4,0.2c1.1,0.1,1.8,0.3,2.3,0.7c0.5,0.4,0.7,1,0.7,1.6c0,0.5-0.1,0.9-0.4,1.3c-0.2,0.4-0.6,0.8-1.2,1
				c-0.5,0.3-1.2,0.4-2,0.4c-0.7,0-1.3-0.1-1.9-0.3c-0.5-0.2-1-0.5-1.3-0.8c-0.3-0.4-0.5-0.9-0.5-1.4c0-0.3,0.1-0.6,0.2-1
				c0.2-0.3,0.5-0.7,0.9-1c-0.2-0.1-0.4-0.2-0.6-0.3c-0.2-0.1-0.3-0.2-0.5-0.4v-0.4l1.4-1.3c-0.6-0.5-0.9-1.2-0.9-2.1
				c0-0.5,0.1-1,0.4-1.4c0.2-0.4,0.6-0.8,1.1-1s1-0.4,1.7-0.4c0.5,0,0.9,0.1,1.2,0.2h2.9v1l-1.5,0.1c0.3,0.4,0.5,1,0.5,1.5
				s-0.1,1-0.4,1.4c-0.2,0.4-0.6,0.8-1.1,1C67.6,118.5,67,118.6,66.3,118.6z M64,122.1c0,0.5,0.2,0.9,0.7,1.2c0.4,0.3,1,0.4,1.7,0.4
				s1.2-0.1,1.6-0.4s0.6-0.7,0.6-1.1c0-0.3-0.1-0.6-0.4-0.9s-0.8-0.4-1.5-0.4c-0.6,0-1.1-0.1-1.5-0.2c-0.4,0.2-0.7,0.5-0.9,0.8
				C64.1,121.7,64,121.9,64,122.1z M66.3,117.5c0.6,0,1-0.2,1.3-0.4c0.3-0.3,0.5-0.7,0.5-1.3c0-0.5-0.2-1-0.5-1.3s-0.8-0.4-1.3-0.4
				c-0.6,0-1,0.1-1.4,0.4c-0.3,0.3-0.5,0.7-0.5,1.3s0.2,1,0.5,1.3C65.3,117.3,65.8,117.5,66.3,117.5z"/>
			<path class="st1" d="M78.9,121.3c-0.7,0-1.2-0.1-1.7-0.3c-0.4-0.2-0.8-0.5-1-0.9s-0.3-0.8-0.3-1.2c0-0.8,0.3-1.4,0.9-1.9
				c0.6-0.4,1.5-0.7,2.5-0.7h2.1v-0.1c0-0.7-0.2-1.2-0.5-1.6s-0.8-0.5-1.5-0.5c-0.5,0-1,0.1-1.4,0.4s-0.6,0.6-0.7,1.1h-1.4
				c0.1-0.6,0.2-1.1,0.6-1.5c0.3-0.4,0.8-0.7,1.3-0.9c0.5-0.2,1-0.3,1.6-0.3c1.1,0,1.9,0.3,2.5,0.9s0.8,1.4,0.8,2.4v4.9h-1.2
				l-0.1-1.4c-0.2,0.4-0.6,0.8-1,1.1C80.2,121.1,79.6,121.3,78.9,121.3z M79.1,120.1c0.5,0,0.9-0.1,1.3-0.4s0.7-0.6,0.8-1
				c0.2-0.4,0.3-0.9,0.3-1.3l0,0h-2c-0.8,0-1.3,0.1-1.7,0.4c-0.3,0.3-0.5,0.6-0.5,1s0.1,0.8,0.5,1C78.1,120,78.6,120.1,79.1,120.1z"
				/>
			<path class="st1" d="M88.6,121.3c-0.8,0-1.4-0.2-2-0.5s-1.1-0.8-1.4-1.5c-0.3-0.6-0.5-1.4-0.5-2.2s0.2-1.6,0.5-2.2
				s0.8-1.1,1.4-1.5c0.6-0.3,1.3-0.5,2-0.5c0.9,0,1.7,0.2,2.4,0.7c0.7,0.5,1.1,1.2,1.2,2h-1.4c-0.1-0.5-0.4-0.9-0.8-1.1
				c-0.4-0.3-0.9-0.4-1.5-0.4c-0.5,0-0.9,0.1-1.3,0.3c-0.4,0.2-0.7,0.6-1,1s-0.4,1-0.4,1.7s0.1,1.2,0.4,1.7c0.2,0.4,0.6,0.8,1,1
				s0.8,0.3,1.3,0.3s1-0.1,1.5-0.4c0.4-0.3,0.7-0.7,0.8-1.2h1.4c-0.2,0.8-0.6,1.4-1.2,1.9C90.3,121,89.5,121.3,88.6,121.3z"/>
			<path class="st1" d="M96.9,121.1c-0.7,0-1.3-0.2-1.7-0.5c-0.4-0.3-0.6-1-0.6-1.9v-4.4h-1.4v-1.1h1.4l0.2-1.9H96v1.9h2.3v1.1H96
				v4.4c0,0.5,0.1,0.8,0.3,1c0.2,0.2,0.6,0.3,1.1,0.3h0.8v1.1H96.9z"/>
			<path class="st1" d="M100.8,111.4c-0.3,0-0.5-0.1-0.7-0.3c-0.2-0.2-0.3-0.4-0.3-0.7s0.1-0.5,0.3-0.6c0.2-0.2,0.4-0.3,0.7-0.3
				s0.5,0.1,0.7,0.3c0.2,0.2,0.3,0.4,0.3,0.6c0,0.3-0.1,0.5-0.3,0.7S101.1,111.4,100.8,111.4z M100.2,121.1v-7.9h1.3v7.9H100.2z"/>
			<path class="st1" d="M106.1,121.1l-3-7.9h1.4l2.4,6.6l2.4-6.6h1.4l-3,7.9H106.1z"/>
			<path class="st1" d="M115.3,121.3c-0.8,0-1.4-0.2-2-0.5s-1.1-0.8-1.4-1.4s-0.5-1.3-0.5-2.2c0-0.8,0.2-1.6,0.5-2.2
				s0.8-1.1,1.4-1.5c0.6-0.3,1.3-0.5,2.1-0.5c0.8,0,1.4,0.2,2,0.5c0.6,0.4,1,0.8,1.3,1.4s0.5,1.2,0.5,1.8c0,0.1,0,0.2,0,0.4
				c0,0.1,0,0.2,0,0.4h-6.3c0,0.6,0.2,1.1,0.4,1.5c0.2,0.4,0.6,0.7,0.9,0.9c0.4,0.2,0.8,0.3,1.2,0.3c0.6,0,1-0.1,1.4-0.4
				s0.6-0.6,0.8-1h1.3c-0.2,0.7-0.6,1.3-1.2,1.8C117,121,116.3,121.3,115.3,121.3z M115.3,114.1c-0.6,0-1.2,0.2-1.7,0.6
				s-0.8,1-0.9,1.7h5c0-0.7-0.3-1.3-0.7-1.7C116.6,114.3,116,114.1,115.3,114.1z"/>
			<path class="st1" d="M125.9,111.4c-0.3,0-0.5-0.1-0.7-0.3c-0.2-0.2-0.3-0.4-0.3-0.7s0.1-0.5,0.3-0.6c0.2-0.2,0.4-0.3,0.7-0.3
				s0.5,0.1,0.7,0.3c0.2,0.2,0.3,0.4,0.3,0.6c0,0.3-0.1,0.5-0.3,0.7C126.4,111.3,126.2,111.4,125.9,111.4z M125.2,121.1v-7.9h1.3
				v7.9H125.2z"/>
			<path class="st1" d="M132,121.3c-0.9,0-1.7-0.2-2.4-0.7c-0.6-0.5-1-1.1-1.1-1.9h1.4c0.1,0.4,0.3,0.8,0.7,1.1
				c0.4,0.3,0.8,0.5,1.5,0.5c0.6,0,1-0.1,1.2-0.4c0.3-0.2,0.4-0.5,0.4-0.9c0-0.5-0.2-0.8-0.5-1s-0.8-0.3-1.5-0.4
				c-0.4-0.1-0.9-0.2-1.3-0.4c-0.4-0.2-0.8-0.4-1.1-0.7c-0.3-0.3-0.4-0.7-0.4-1.2c0-0.7,0.3-1.3,0.8-1.7c0.5-0.4,1.2-0.7,2.1-0.7
				c0.8,0,1.5,0.2,2.1,0.6c0.5,0.4,0.8,1,0.9,1.8h-1.3c-0.1-0.4-0.2-0.7-0.5-0.9c-0.3-0.2-0.7-0.3-1.2-0.3s-0.9,0.1-1.1,0.3
				c-0.3,0.2-0.4,0.5-0.4,0.8s0.2,0.6,0.5,0.8c0.3,0.2,0.8,0.3,1.4,0.5c0.5,0.1,1,0.2,1.4,0.4c0.4,0.2,0.8,0.4,1.1,0.7
				c0.3,0.3,0.4,0.7,0.4,1.3c0,0.7-0.3,1.3-0.8,1.8C133.7,121.1,132.9,121.3,132,121.3z"/>
			<path class="st1" d="M143.8,121.3c-0.7,0-1.2-0.1-1.6-0.3c-0.4-0.2-0.8-0.5-1-0.9s-0.3-0.8-0.3-1.2c0-0.8,0.3-1.4,0.9-1.9
				c0.6-0.4,1.5-0.7,2.5-0.7h2.1v-0.1c0-0.7-0.2-1.2-0.5-1.6s-0.8-0.5-1.5-0.5c-0.5,0-1,0.1-1.4,0.4s-0.6,0.6-0.7,1.1H141
				c0.1-0.6,0.2-1.1,0.6-1.5c0.3-0.4,0.8-0.7,1.3-0.9c0.5-0.2,1-0.3,1.6-0.3c1.1,0,1.9,0.3,2.5,0.9s0.8,1.4,0.8,2.4v4.9h-1.2
				l-0.1-1.4c-0.2,0.4-0.6,0.8-1,1.1C145.1,121.1,144.5,121.3,143.8,121.3z M144,120.1c0.5,0,0.9-0.1,1.3-0.4c0.4-0.3,0.7-0.6,0.8-1
				c0.2-0.4,0.3-0.9,0.3-1.3l0,0h-2c-0.8,0-1.4,0.1-1.7,0.4s-0.5,0.6-0.5,1s0.1,0.8,0.5,1C143,120,143.5,120.1,144,120.1z"/>
			<path class="st1" d="M34.1,185.1c-0.7,0-1.2-0.1-1.6-0.3c-0.4-0.2-0.8-0.5-1-0.9s-0.3-0.8-0.3-1.2c0-0.8,0.3-1.4,0.9-1.9
				c0.6-0.4,1.5-0.7,2.5-0.7h2.1V180c0-0.7-0.2-1.2-0.5-1.6c-0.4-0.4-0.8-0.5-1.5-0.5c-0.5,0-1,0.1-1.4,0.4
				c-0.4,0.3-0.6,0.6-0.7,1.1h-1.4c0-0.6,0.2-1.1,0.6-1.5c0.3-0.4,0.8-0.7,1.3-0.9s1-0.3,1.6-0.3c1.1,0,1.9,0.3,2.5,0.9
				S38,179,38,180v4.9h-1.2l-0.1-1.4c-0.2,0.4-0.6,0.8-1,1.1C35.4,185,34.8,185.1,34.1,185.1z M34.3,184c0.5,0,0.9-0.1,1.3-0.4
				c0.4-0.3,0.6-0.6,0.8-1s0.3-0.9,0.3-1.3l0,0h-2c-0.8,0-1.3,0.1-1.7,0.4c-0.3,0.3-0.5,0.6-0.5,1s0.2,0.8,0.5,1
				C33.3,183.9,33.8,184,34.3,184z"/>
			<path class="st1" d="M40.1,184.9V177h1.2l0.1,1.4c0.3-0.5,0.6-0.9,1.1-1.2s1-0.4,1.6-0.4c0.9,0,1.7,0.3,2.2,0.9
				c0.6,0.6,0.8,1.5,0.8,2.6v4.6h-1.3v-4.5c0-1.6-0.7-2.5-2.1-2.5c-0.7,0-1.2,0.2-1.7,0.7s-0.7,1.2-0.7,2.1v4.1L40.1,184.9
				L40.1,184.9z"/>
			<path class="st1" d="M52.9,185.1c-0.8,0-1.5-0.2-2.1-0.5c-0.6-0.4-1.1-0.9-1.4-1.5c-0.3-0.6-0.5-1.3-0.5-2.1s0.2-1.5,0.5-2.1
				s0.8-1.1,1.4-1.5c0.6-0.4,1.3-0.5,2.1-0.5c0.6,0,1.2,0.1,1.7,0.4c0.5,0.3,0.9,0.6,1.2,1.1v-4.9h1.3v11.4h-1.2l-0.1-1.3
				c-0.3,0.4-0.6,0.7-1.1,1C54.2,185,53.6,185.1,52.9,185.1z M53,184c0.5,0,1-0.1,1.4-0.4c0.4-0.2,0.7-0.6,1-1.1
				c0.2-0.4,0.3-1,0.3-1.6s-0.1-1.1-0.3-1.6s-0.6-0.8-1-1.1c-0.4-0.2-0.9-0.4-1.4-0.4s-1,0.1-1.4,0.4c-0.4,0.2-0.7,0.6-1,1.1
				c-0.2,0.4-0.3,1-0.3,1.6s0.1,1.1,0.3,1.6s0.6,0.8,1,1.1C52,183.9,52.5,184,53,184z"/>
			<path class="st1" d="M66.7,184.9c-0.7,0-1.3-0.2-1.7-0.5c-0.4-0.3-0.6-1-0.6-1.9v-4.4H63V177h1.4l0.2-1.9h1.2v1.9h2.3v1.1h-2.3
				v4.4c0,0.5,0.1,0.8,0.3,1c0.2,0.2,0.6,0.3,1.1,0.3H68v1.1L66.7,184.9L66.7,184.9z"/>
			<path class="st1" d="M69.8,184.9v-11.5h1.3v4.9c0.3-0.5,0.7-0.9,1.1-1.1c0.5-0.3,1-0.4,1.6-0.4c0.9,0,1.7,0.3,2.2,0.9
				c0.6,0.6,0.8,1.5,0.8,2.6v4.6h-1.3v-4.5c0-1.6-0.7-2.5-2-2.5c-0.7,0-1.3,0.2-1.7,0.7c-0.5,0.5-0.7,1.2-0.7,2.1v4.1L69.8,184.9
				L69.8,184.9z"/>
			<path class="st1" d="M82.5,185.1c-0.8,0-1.4-0.2-2-0.5c-0.6-0.4-1.1-0.8-1.4-1.5c-0.3-0.6-0.5-1.3-0.5-2.2c0-0.8,0.2-1.6,0.5-2.2
				c0.3-0.6,0.8-1.1,1.4-1.5s1.3-0.5,2.1-0.5c0.8,0,1.4,0.2,2,0.5c0.6,0.4,1,0.8,1.3,1.4c0.3,0.6,0.5,1.2,0.5,1.8c0,0.1,0,0.2,0,0.4
				c0,0.1,0,0.2,0,0.4h-6.3c0,0.6,0.2,1.1,0.4,1.5c0.2,0.4,0.6,0.7,0.9,0.9c0.4,0.2,0.8,0.3,1.2,0.3c0.6,0,1-0.1,1.4-0.4
				c0.4-0.3,0.7-0.6,0.8-1H86c-0.2,0.7-0.6,1.3-1.2,1.8C84.2,184.9,83.4,185.1,82.5,185.1z M82.5,178c-0.6,0-1.2,0.2-1.7,0.6
				c-0.5,0.4-0.8,1-0.9,1.7h5c0-0.7-0.3-1.3-0.7-1.7C83.7,178.2,83.2,178,82.5,178z"/>
			<path class="st1" d="M88,184.9V177h1.2l0.1,1.5c0.2-0.5,0.6-0.9,1.1-1.2s1.1-0.5,1.9-0.5v1.4H92c-0.5,0-0.9,0.1-1.3,0.2
				c-0.4,0.2-0.7,0.5-0.9,0.8c-0.2,0.4-0.3,0.9-0.3,1.6v4L88,184.9L88,184.9z"/>
			<path class="st1" d="M97.1,185.1c-0.8,0-1.4-0.2-2-0.5c-0.6-0.4-1.1-0.8-1.4-1.5c-0.3-0.6-0.5-1.3-0.5-2.2c0-0.8,0.2-1.6,0.5-2.2
				c0.3-0.6,0.8-1.1,1.4-1.5s1.3-0.5,2.1-0.5c0.8,0,1.4,0.2,2,0.5c0.6,0.4,1,0.8,1.3,1.4c0.3,0.6,0.4,1.2,0.4,1.8c0,0.1,0,0.2,0,0.4
				c0,0.1,0,0.2,0,0.4h-6.3c0,0.6,0.2,1.1,0.4,1.5c0.2,0.4,0.6,0.7,0.9,0.9c0.4,0.2,0.8,0.3,1.2,0.3c0.6,0,1-0.1,1.4-0.4
				c0.4-0.3,0.6-0.6,0.8-1h1.3c-0.2,0.7-0.6,1.3-1.2,1.8C98.8,184.9,98,185.1,97.1,185.1z M97.1,178c-0.6,0-1.2,0.2-1.7,0.6
				c-0.5,0.4-0.8,1-0.9,1.7h5c0-0.7-0.3-1.3-0.7-1.7C98.3,178.2,97.8,178,97.1,178z"/>
			<path class="st1" d="M102.1,177.3l0.9-3.6h1.5l-1.5,3.6H102.1z"/>
			<path class="st1" d="M106,184.9v-11.5h1.3v11.5H106z"/>
			<path class="st1" d="M109.6,184.9v-11.5h1.3v11.5H109.6z"/>
			<path class="st1" d="M121.6,185.1c-0.6,0-1.2-0.1-1.7-0.4c-0.5-0.3-0.9-0.6-1.2-1.1l-0.1,1.3h-1.2v-11.5h1.3v4.9
				c0.3-0.4,0.6-0.7,1.1-1s1.1-0.5,1.8-0.5c0.8,0,1.5,0.2,2.1,0.5c0.6,0.4,1,0.9,1.4,1.5s0.5,1.3,0.5,2.1s-0.2,1.5-0.5,2.1
				s-0.8,1.1-1.4,1.5C123.1,185,122.4,185.1,121.6,185.1z M121.5,184c0.5,0,1-0.1,1.4-0.4s0.7-0.6,1-1.1c0.2-0.4,0.3-1,0.3-1.6
				s-0.1-1.1-0.3-1.6c-0.2-0.5-0.6-0.8-1-1.1s-0.9-0.4-1.4-0.4s-1,0.1-1.4,0.4c-0.4,0.2-0.7,0.6-1,1.1c-0.2,0.4-0.4,1-0.4,1.6
				s0.1,1.1,0.4,1.6c0.2,0.5,0.6,0.8,1,1.1C120.5,183.9,120.9,184,121.5,184z"/>
			<path class="st1" d="M131,185.1c-0.8,0-1.4-0.2-2-0.5c-0.6-0.4-1.1-0.8-1.4-1.5c-0.3-0.6-0.5-1.3-0.5-2.2c0-0.8,0.2-1.6,0.5-2.2
				c0.3-0.6,0.8-1.1,1.4-1.5s1.3-0.5,2.1-0.5s1.4,0.2,2,0.5s1,0.8,1.3,1.4c0.3,0.6,0.4,1.2,0.4,1.8c0,0.1,0,0.2,0,0.4
				c0,0.1,0,0.2,0,0.4h-6.3c0,0.6,0.2,1.1,0.4,1.5s0.6,0.7,0.9,0.9c0.4,0.2,0.8,0.3,1.2,0.3c0.6,0,1-0.1,1.4-0.4
				c0.4-0.3,0.6-0.6,0.8-1h1.3c-0.2,0.7-0.6,1.3-1.2,1.8C132.7,184.9,131.9,185.1,131,185.1z M131,178c-0.6,0-1.2,0.2-1.7,0.6
				c-0.5,0.4-0.8,1-0.9,1.7h5c0-0.7-0.3-1.3-0.7-1.7C132.2,178.2,131.7,178,131,178z"/>
			<path class="st1" d="M143.7,185.1c-0.9,0-1.7-0.3-2.2-0.9c-0.5-0.6-0.8-1.5-0.8-2.6V177h1.3v4.5c0,1.7,0.7,2.5,2,2.5
				c0.7,0,1.3-0.2,1.7-0.7s0.7-1.2,0.7-2.1v-4.1h1.3v7.9h-1.2l-0.1-1.4c-0.2,0.5-0.6,0.9-1.1,1.2C144.8,185,144.3,185.1,143.7,185.1
				z"/>
			<path class="st1" d="M149.9,188.5V177h1.2l0.1,1.3c0.3-0.4,0.6-0.7,1.1-1s1.1-0.5,1.8-0.5c0.8,0,1.5,0.2,2.1,0.5
				c0.6,0.4,1,0.9,1.4,1.5c0.3,0.6,0.5,1.3,0.5,2.1s-0.2,1.5-0.5,2.1s-0.8,1.1-1.4,1.5c-0.6,0.4-1.3,0.5-2.1,0.5
				c-0.6,0-1.2-0.1-1.7-0.4c-0.5-0.3-0.9-0.6-1.2-1.1v4.9L149.9,188.5L149.9,188.5z M154,184c0.5,0,1-0.1,1.4-0.4
				c0.4-0.2,0.7-0.6,1-1.1c0.2-0.4,0.4-1,0.4-1.6s-0.1-1.1-0.4-1.6c-0.2-0.5-0.6-0.8-1-1.1c-0.4-0.2-0.9-0.4-1.4-0.4s-1,0.1-1.4,0.4
				s-0.7,0.6-1,1.1c-0.2,0.4-0.3,1-0.3,1.6s0.1,1.1,0.3,1.6s0.6,0.8,1,1.1S153.5,184,154,184z"/>
			<path class="st1" d="M163,185.1c-0.9,0-1.7-0.2-2.4-0.7c-0.6-0.5-1-1.1-1.1-1.9h1.4c0.1,0.4,0.3,0.8,0.7,1.1s0.8,0.5,1.4,0.5
				c0.6,0,1-0.1,1.2-0.4s0.4-0.5,0.4-0.9c0-0.5-0.2-0.8-0.5-1c-0.4-0.2-0.8-0.3-1.5-0.4c-0.4-0.1-0.8-0.2-1.3-0.4
				c-0.4-0.2-0.8-0.4-1.1-0.7s-0.4-0.7-0.4-1.2c0-0.7,0.3-1.3,0.8-1.7s1.2-0.7,2.1-0.7c0.8,0,1.5,0.2,2.1,0.6c0.5,0.4,0.9,1,0.9,1.8
				h-1.3c-0.1-0.4-0.2-0.7-0.5-0.9s-0.7-0.3-1.2-0.3s-0.9,0.1-1.1,0.3c-0.3,0.2-0.4,0.5-0.4,0.8s0.2,0.6,0.5,0.8s0.8,0.3,1.4,0.5
				c0.5,0.1,1,0.2,1.4,0.4s0.8,0.4,1.1,0.7s0.4,0.7,0.4,1.3c0,0.7-0.3,1.3-0.8,1.8C164.7,184.9,163.9,185.1,163,185.1z"/>
			<path class="st1" d="M174.9,185.1c-0.7,0-1.2-0.1-1.7-0.3c-0.4-0.2-0.8-0.5-1-0.9s-0.3-0.8-0.3-1.2c0-0.8,0.3-1.4,0.9-1.9
				s1.5-0.7,2.5-0.7h2.1V180c0-0.7-0.2-1.2-0.5-1.6c-0.4-0.4-0.9-0.5-1.5-0.5c-0.5,0-1,0.1-1.4,0.4c-0.4,0.3-0.6,0.6-0.7,1.1h-1.4
				c0.1-0.6,0.2-1.1,0.6-1.5c0.3-0.4,0.8-0.7,1.3-0.9s1-0.3,1.6-0.3c1.1,0,1.9,0.3,2.5,0.9s0.8,1.4,0.8,2.4v4.9h-1.2l-0.1-1.4
				c-0.2,0.4-0.6,0.8-1,1.1C176.2,185,175.6,185.1,174.9,185.1z M175.1,184c0.5,0,0.9-0.1,1.3-0.4c0.4-0.3,0.6-0.6,0.8-1
				s0.3-0.9,0.3-1.3l0,0h-2c-0.8,0-1.3,0.1-1.7,0.4c-0.3,0.3-0.5,0.6-0.5,1s0.1,0.8,0.5,1C174.1,183.9,174.5,184,175.1,184z"/>
			<path class="st1" d="M180.9,184.9V177h1.2l0.1,1.4c0.3-0.5,0.6-0.9,1.1-1.2s1-0.4,1.6-0.4c0.9,0,1.7,0.3,2.2,0.9
				c0.6,0.6,0.8,1.5,0.8,2.6v4.6h-1.3v-4.5c0-1.6-0.7-2.5-2-2.5c-0.7,0-1.2,0.2-1.7,0.7c-0.4,0.5-0.7,1.2-0.7,2.1v4.1L180.9,184.9
				L180.9,184.9z"/>
			<path class="st1" d="M193.6,185.1c-0.8,0-1.5-0.2-2.1-0.5c-0.6-0.4-1.1-0.9-1.4-1.5s-0.5-1.3-0.5-2.1s0.2-1.5,0.5-2.1
				s0.8-1.1,1.4-1.5c0.6-0.4,1.3-0.5,2.1-0.5c0.6,0,1.2,0.1,1.7,0.4c0.5,0.3,0.9,0.6,1.2,1.1v-4.9h1.3v11.4h-1.2l-0.1-1.3
				c-0.3,0.4-0.6,0.7-1.1,1C194.9,185,194.3,185.1,193.6,185.1z M193.8,184c0.5,0,1-0.1,1.4-0.4c0.4-0.2,0.7-0.6,1-1.1
				c0.2-0.4,0.3-1,0.3-1.6s-0.1-1.1-0.3-1.6s-0.6-0.8-1-1.1c-0.4-0.2-0.9-0.4-1.4-0.4s-1,0.1-1.4,0.4s-0.7,0.6-1,1.1
				c-0.2,0.4-0.3,1-0.3,1.6s0.1,1.1,0.3,1.6s0.6,0.8,1,1.1S193.2,184,193.8,184z"/>
			<path class="st1" d="M207.9,185.1c-0.8,0-1.5-0.2-2.1-0.5c-0.6-0.4-1.1-0.9-1.4-1.5c-0.3-0.6-0.5-1.3-0.5-2.1s0.2-1.5,0.5-2.1
				s0.8-1.1,1.4-1.5c0.6-0.4,1.3-0.5,2.1-0.5c0.7,0,1.2,0.1,1.7,0.4c0.5,0.3,0.9,0.6,1.2,1.1v-4.9h1.3v11.4h-1.2l-0.1-1.3
				c-0.3,0.4-0.6,0.7-1.1,1S208.6,185.1,207.9,185.1z M208.1,184c0.5,0,1-0.1,1.4-0.4s0.7-0.6,1-1.1c0.2-0.4,0.3-1,0.3-1.6
				s-0.1-1.1-0.3-1.6s-0.5-0.8-1-1.1s-0.9-0.4-1.4-0.4s-1,0.1-1.4,0.4c-0.4,0.2-0.7,0.6-1,1.1c-0.2,0.4-0.3,1-0.3,1.6
				s0.1,1.1,0.3,1.6s0.6,0.8,1,1.1C207.1,183.9,207.5,184,208.1,184z"/>
			<path class="st1" d="M218,185.1c-0.8,0-1.4-0.2-2-0.5s-1.1-0.8-1.4-1.5c-0.4-0.6-0.5-1.4-0.5-2.2s0.2-1.6,0.5-2.2
				c0.4-0.6,0.8-1.1,1.4-1.5s1.3-0.5,2-0.5s1.4,0.2,2,0.5s1.1,0.8,1.4,1.5c0.4,0.6,0.5,1.4,0.5,2.2s-0.2,1.6-0.5,2.2
				c-0.3,0.6-0.8,1.1-1.4,1.5C219.4,185,218.7,185.1,218,185.1z M218,184c0.5,0,0.9-0.1,1.3-0.3c0.4-0.2,0.7-0.6,1-1
				c0.2-0.4,0.4-1,0.4-1.7s-0.1-1.2-0.4-1.7c-0.2-0.4-0.6-0.8-0.9-1c-0.4-0.2-0.8-0.3-1.3-0.3s-0.9,0.1-1.3,0.3
				c-0.4,0.2-0.7,0.6-1,1c-0.2,0.4-0.4,1-0.4,1.7s0.1,1.2,0.4,1.7s0.6,0.8,0.9,1C217.1,183.9,217.5,184,218,184z"/>
			<path class="st1" d="M225.1,184.9l-2.3-7.9h1.3l1.7,6.2l1.9-6.2h1.5l1.9,6.2l1.7-6.2h1.4l-2.3,7.9h-1.4l-1.9-6.5l-1.9,6.5H225.1z
				"/>
			<path class="st1" d="M235.6,184.9V177h1.2l0.1,1.4c0.3-0.5,0.6-0.9,1.1-1.2s1-0.4,1.6-0.4c0.9,0,1.7,0.3,2.2,0.9s0.8,1.5,0.8,2.6
				v4.6h-1.3v-4.5c0-1.6-0.7-2.5-2-2.5c-0.7,0-1.2,0.2-1.7,0.7c-0.4,0.5-0.7,1.2-0.7,2.1v4.1L235.6,184.9L235.6,184.9z"/>
			<path class="st1" d="M247.8,185.1c-1,0-1.7-0.2-2.4-0.7c-0.6-0.5-1-1.1-1.1-1.9h1.4c0.1,0.4,0.3,0.8,0.7,1.1s0.8,0.5,1.4,0.5
				c0.6,0,1-0.1,1.2-0.4c0.3-0.2,0.4-0.5,0.4-0.9c0-0.5-0.2-0.8-0.5-1s-0.8-0.3-1.5-0.4c-0.4-0.1-0.9-0.2-1.3-0.4s-0.8-0.4-1.1-0.7
				s-0.4-0.7-0.4-1.2c0-0.7,0.3-1.3,0.8-1.7s1.2-0.7,2.1-0.7c0.8,0,1.5,0.2,2.1,0.6c0.5,0.4,0.8,1,0.9,1.8h-1.3
				c0-0.4-0.2-0.7-0.5-0.9s-0.7-0.3-1.2-0.3s-0.8,0.1-1.1,0.3s-0.4,0.5-0.4,0.8s0.2,0.6,0.5,0.8s0.8,0.3,1.4,0.5
				c0.5,0.1,1,0.2,1.4,0.4s0.8,0.4,1.1,0.7s0.4,0.7,0.4,1.3c0,0.7-0.3,1.3-0.8,1.8C249.5,184.9,248.7,185.1,247.8,185.1z"/>
			<path class="st1" d="M259.6,185.1c-0.7,0-1.2-0.1-1.6-0.3s-0.8-0.5-1-0.9s-0.3-0.8-0.3-1.2c0-0.8,0.3-1.4,0.9-1.9
				s1.5-0.7,2.5-0.7h2.1V180c0-0.7-0.2-1.2-0.5-1.6c-0.4-0.4-0.9-0.5-1.5-0.5c-0.5,0-1,0.1-1.3,0.4c-0.4,0.3-0.6,0.6-0.7,1.1h-1.4
				c0.1-0.6,0.2-1.1,0.6-1.5c0.3-0.4,0.8-0.7,1.3-0.9s1-0.3,1.6-0.3c1.1,0,1.9,0.3,2.5,0.9s0.8,1.4,0.8,2.4v4.9h-1.2l-0.1-1.4
				c-0.2,0.4-0.5,0.8-1,1.1C260.9,185,260.3,185.1,259.6,185.1z M259.8,184c0.5,0,1-0.1,1.3-0.4c0.4-0.3,0.6-0.6,0.8-1
				c0.2-0.4,0.3-0.9,0.3-1.3l0,0h-2c-0.8,0-1.4,0.1-1.7,0.4c-0.3,0.3-0.5,0.6-0.5,1s0.1,0.8,0.5,1C258.8,183.9,259.3,184,259.8,184z
				"/>
			<path class="st1" d="M265.6,184.9v-11.5h1.3v11.5H265.6z"/>
			<path class="st1" d="M272.8,185.1c-0.8,0-1.4-0.2-2-0.5s-1.1-0.8-1.4-1.5c-0.3-0.6-0.5-1.4-0.5-2.2s0.2-1.6,0.5-2.2
				s0.8-1.1,1.4-1.5c0.6-0.3,1.3-0.5,2-0.5s1.4,0.2,2,0.5s1.1,0.8,1.4,1.5c0.3,0.6,0.5,1.4,0.5,2.2s-0.2,1.6-0.5,2.2
				s-0.8,1.1-1.4,1.5S273.5,185.1,272.8,185.1z M272.8,184c0.5,0,0.9-0.1,1.3-0.3s0.7-0.6,1-1c0.2-0.4,0.4-1,0.4-1.7
				s-0.1-1.2-0.4-1.7c-0.2-0.4-0.6-0.8-0.9-1c-0.4-0.2-0.8-0.3-1.3-0.3s-0.9,0.1-1.3,0.3s-0.7,0.6-1,1c-0.2,0.4-0.4,1-0.4,1.7
				s0.1,1.2,0.4,1.7s0.6,0.8,0.9,1C271.9,183.9,272.4,184,272.8,184z"/>
			<path class="st1" d="M278.7,184.9V177h1.2l0.1,1.4c0.3-0.5,0.6-0.9,1.1-1.2s1-0.4,1.6-0.4c0.9,0,1.7,0.3,2.2,0.9s0.8,1.5,0.8,2.6
				v4.6h-1.3v-4.5c0-1.6-0.7-2.5-2-2.5c-0.7,0-1.2,0.2-1.7,0.7s-0.7,1.2-0.7,2.1v4.1L278.7,184.9L278.7,184.9z"/>
			<path class="st1" d="M291,182.5c-0.5,0-0.9-0.1-1.2-0.2l-0.8,0.8c0.1,0.1,0.3,0.2,0.4,0.2c0.2,0.1,0.4,0.1,0.8,0.2
				c0.3,0,0.8,0.1,1.4,0.1c1.1,0.1,1.8,0.3,2.3,0.7s0.7,1,0.7,1.6c0,0.5-0.1,0.9-0.4,1.3c-0.2,0.4-0.6,0.8-1.1,1
				c-0.5,0.3-1.2,0.4-2,0.4c-0.7,0-1.4-0.1-1.9-0.3c-0.6-0.2-1-0.5-1.3-0.9s-0.5-0.9-0.5-1.4c0-0.3,0.1-0.6,0.2-1
				c0.2-0.4,0.5-0.7,0.9-1c-0.2-0.1-0.4-0.2-0.6-0.3s-0.3-0.2-0.5-0.4v-0.4l1.4-1.3c-0.6-0.5-0.9-1.2-0.9-2.1c0-0.5,0.1-1,0.4-1.4
				c0.2-0.4,0.6-0.8,1.1-1s1-0.4,1.7-0.4c0.5,0,0.9,0.1,1.2,0.2h2.9v1l-1.5,0.1c0.3,0.5,0.5,1,0.5,1.6c0,0.5-0.1,1-0.4,1.4
				c-0.2,0.4-0.6,0.8-1.1,1C292.2,182.3,291.6,182.5,291,182.5z M288.6,186c0,0.5,0.2,0.9,0.7,1.2s1,0.4,1.7,0.4s1.2-0.1,1.6-0.4
				c0.4-0.3,0.6-0.7,0.6-1.2c0-0.3-0.1-0.6-0.4-0.9s-0.8-0.4-1.5-0.4c-0.6,0-1.1-0.1-1.5-0.2c-0.4,0.2-0.7,0.5-0.9,0.8
				C288.7,185.5,288.6,185.8,288.6,186z M291,181.4c0.6,0,1-0.2,1.3-0.4c0.3-0.3,0.5-0.7,0.5-1.3c0-0.5-0.2-1-0.5-1.3
				s-0.8-0.4-1.3-0.4c-0.6,0-1,0.1-1.4,0.4c-0.3,0.3-0.5,0.7-0.5,1.3s0.2,1,0.5,1.3C289.9,181.2,290.4,181.4,291,181.4z"/>
			<path class="st1" d="M34.6,206.9c-0.7,0-1.3-0.2-1.7-0.5s-0.6-1-0.6-1.9v-4.4h-1.4V199h1.4l0.2-1.9h1.2v1.9H36v1.1h-2.3v4.4
				c0,0.5,0.1,0.8,0.3,1s0.6,0.3,1.1,0.3h0.8v1.1L34.6,206.9L34.6,206.9z"/>
			<path class="st1" d="M37.7,206.9v-11.5H39v4.9c0.3-0.5,0.7-0.9,1.1-1.1c0.5-0.3,1-0.4,1.6-0.4c0.9,0,1.7,0.3,2.2,0.9
				c0.6,0.6,0.8,1.5,0.8,2.6v4.6h-1.3v-4.5c0-1.6-0.7-2.5-2-2.5c-0.7,0-1.3,0.2-1.7,0.7c-0.5,0.5-0.7,1.2-0.7,2.1v4.1L37.7,206.9
				L37.7,206.9z"/>
			<path class="st1" d="M50.4,207.1c-0.8,0-1.4-0.2-2-0.5c-0.6-0.4-1.1-0.8-1.4-1.5c-0.3-0.6-0.5-1.3-0.5-2.2c0-0.8,0.2-1.6,0.5-2.2
				c0.3-0.6,0.8-1.1,1.4-1.5c0.6-0.4,1.3-0.5,2.1-0.5s1.4,0.2,2,0.5c0.6,0.4,1,0.8,1.3,1.4c0.3,0.6,0.5,1.2,0.5,1.8
				c0,0.1,0,0.2,0,0.4c0,0.1,0,0.2,0,0.4H48c0,0.6,0.2,1.1,0.4,1.5s0.6,0.7,0.9,0.9c0.4,0.2,0.8,0.3,1.2,0.3c0.6,0,1-0.1,1.4-0.4
				c0.4-0.3,0.7-0.6,0.8-1H54c-0.2,0.7-0.6,1.3-1.2,1.8C52.1,206.9,51.3,207.1,50.4,207.1z M50.4,200c-0.6,0-1.2,0.2-1.7,0.6
				c-0.5,0.4-0.8,1-0.9,1.7h5c0-0.7-0.3-1.3-0.7-1.7C51.6,200.2,51.1,200,50.4,200z"/>
			<path class="st1" d="M61.8,206.9l-2.3-7.9h1.3l1.7,6.2l1.9-6.2h1.5l1.9,6.2l1.7-6.2h1.4l-2.3,7.9H67l-2-6.5l-1.9,6.5H61.8z"/>
			<path class="st1" d="M74.6,207.1c-0.7,0-1.2-0.1-1.7-0.3c-0.4-0.2-0.8-0.5-1-0.9s-0.3-0.8-0.3-1.2c0-0.8,0.3-1.4,0.9-1.9
				c0.6-0.4,1.5-0.7,2.5-0.7h2.1V202c0-0.7-0.2-1.2-0.5-1.6c-0.4-0.4-0.9-0.5-1.5-0.5c-0.5,0-1,0.1-1.4,0.4
				c-0.4,0.3-0.6,0.6-0.7,1.1h-1.4c0-0.6,0.2-1.1,0.6-1.5c0.3-0.4,0.8-0.7,1.3-0.9s1-0.3,1.6-0.3c1.1,0,1.9,0.3,2.5,0.9
				c0.6,0.6,0.8,1.4,0.8,2.4v4.9h-1.2l-0.1-1.4c-0.2,0.4-0.6,0.8-1,1.1C75.9,207,75.3,207.1,74.6,207.1z M74.8,206
				c0.5,0,0.9-0.1,1.3-0.4c0.4-0.3,0.7-0.6,0.8-1c0.2-0.4,0.3-0.9,0.3-1.3l0,0h-2c-0.8,0-1.3,0.1-1.7,0.4c-0.3,0.3-0.5,0.6-0.5,1
				s0.1,0.8,0.5,1C73.8,205.9,74.2,206,74.8,206z"/>
			<path class="st1" d="M81.2,210.5l2-4.3h-0.5l-3.2-7.2H81l2.6,6.2l2.8-6.2h1.4l-5.2,11.5H81.2z"/>
			<path class="st1" d="M87.2,208.9l0.9-3.5h1.4l-1.4,3.5H87.2z"/>
			<path class="st1" d="M98,207.1c-0.7,0-1.2-0.1-1.7-0.3c-0.4-0.2-0.8-0.5-1-0.9s-0.3-0.8-0.3-1.2c0-0.8,0.3-1.4,0.9-1.9
				c0.6-0.4,1.5-0.7,2.5-0.7h2.1V202c0-0.7-0.2-1.2-0.5-1.6c-0.4-0.4-0.9-0.5-1.5-0.5c-0.5,0-1,0.1-1.4,0.4
				c-0.4,0.3-0.6,0.6-0.7,1.1H95c0-0.6,0.2-1.1,0.6-1.5c0.3-0.4,0.8-0.7,1.3-0.9s1-0.3,1.6-0.3c1.1,0,1.9,0.3,2.5,0.9
				c0.6,0.6,0.8,1.4,0.8,2.4v4.9h-1.2l-0.1-1.4c-0.2,0.4-0.6,0.8-1,1.1C99.3,207,98.7,207.1,98,207.1z M98.2,206
				c0.5,0,1-0.1,1.3-0.4c0.4-0.3,0.7-0.6,0.8-1c0.2-0.4,0.3-0.9,0.3-1.3l0,0h-2c-0.8,0-1.3,0.1-1.7,0.4c-0.3,0.3-0.5,0.6-0.5,1
				s0.2,0.8,0.5,1C97.2,205.9,97.7,206,98.2,206z"/>
			<path class="st1" d="M104,206.9V199h1.2l0.1,1.4c0.3-0.5,0.6-0.9,1.1-1.2s1-0.4,1.6-0.4c0.9,0,1.7,0.3,2.2,0.9s0.8,1.5,0.8,2.6
				v4.6h-1.3v-4.5c0-1.6-0.7-2.5-2.1-2.5c-0.7,0-1.2,0.2-1.7,0.7s-0.7,1.2-0.7,2.1v4.1L104,206.9L104,206.9z"/>
			<path class="st1" d="M116.8,207.1c-0.8,0-1.5-0.2-2.1-0.5c-0.6-0.4-1.1-0.9-1.4-1.5s-0.5-1.3-0.5-2.1s0.2-1.5,0.5-2.1
				s0.8-1.1,1.4-1.5s1.3-0.5,2.1-0.5c0.7,0,1.2,0.1,1.7,0.4c0.5,0.3,0.9,0.6,1.2,1.1v-4.9h1.3v11.4h-1.2l-0.1-1.3
				c-0.3,0.4-0.6,0.7-1.1,1S117.5,207.1,116.8,207.1z M116.9,206c0.5,0,1-0.1,1.4-0.4s0.7-0.6,1-1.1c0.2-0.4,0.3-1,0.3-1.6
				s-0.1-1.1-0.3-1.6c-0.2-0.5-0.6-0.8-1-1.1s-0.9-0.4-1.4-0.4s-1,0.1-1.4,0.4c-0.4,0.2-0.7,0.6-1,1.1c-0.2,0.4-0.3,1-0.3,1.6
				s0.1,1.1,0.3,1.6c0.2,0.5,0.6,0.8,1,1.1C115.9,205.9,116.4,206,116.9,206z"/>
			<path class="st1" d="M130.6,206.9c-0.7,0-1.3-0.2-1.7-0.5s-0.6-1-0.6-1.9v-4.4h-1.4V199h1.4l0.2-1.9h1.2v1.9h2.3v1.1h-2.3v4.4
				c0,0.5,0.1,0.8,0.3,1s0.6,0.3,1.1,0.3h0.8v1.1L130.6,206.9L130.6,206.9z"/>
			<path class="st1" d="M133.6,206.9v-11.5h1.4v4.9c0.3-0.5,0.6-0.9,1.1-1.1c0.5-0.3,1-0.4,1.6-0.4c0.9,0,1.6,0.3,2.2,0.9
				c0.6,0.6,0.8,1.5,0.8,2.6v4.6h-1.3v-4.5c0-1.6-0.7-2.5-2-2.5c-0.7,0-1.3,0.2-1.7,0.7c-0.5,0.5-0.7,1.2-0.7,2.1v4.1L133.6,206.9
				L133.6,206.9z"/>
			<path class="st1" d="M145.4,207.1c-0.7,0-1.2-0.1-1.7-0.3c-0.4-0.2-0.8-0.5-1-0.9s-0.3-0.8-0.3-1.2c0-0.8,0.3-1.4,0.9-1.9
				s1.5-0.7,2.5-0.7h2.1V202c0-0.7-0.2-1.2-0.5-1.6c-0.4-0.4-0.9-0.5-1.5-0.5c-0.5,0-1,0.1-1.3,0.4c-0.4,0.3-0.6,0.6-0.7,1.1h-1.4
				c0.1-0.6,0.2-1.1,0.6-1.5c0.3-0.4,0.8-0.7,1.3-0.9s1-0.3,1.6-0.3c1.1,0,1.9,0.3,2.5,0.9s0.8,1.4,0.8,2.4v4.9h-1.2l-0.1-1.4
				c-0.2,0.4-0.5,0.8-1,1.1C146.8,207,146.2,207.1,145.4,207.1z M145.6,206c0.5,0,1-0.1,1.3-0.4c0.4-0.3,0.6-0.6,0.8-1
				s0.3-0.9,0.3-1.3l0,0h-2c-0.8,0-1.4,0.1-1.7,0.4c-0.3,0.3-0.5,0.6-0.5,1s0.1,0.8,0.5,1C144.7,205.9,145.1,206,145.6,206z"/>
			<path class="st1" d="M154.4,206.9c-0.7,0-1.3-0.2-1.7-0.5s-0.6-1-0.6-1.9v-4.4h-1.4V199h1.4l0.2-1.9h1.2v1.9h2.3v1.1h-2.3v4.4
				c0,0.5,0.1,0.8,0.3,1s0.6,0.3,1.1,0.3h0.8v1.1L154.4,206.9L154.4,206.9z"/>
			<path class="st1" d="M156.9,199.3l0.9-3.6h1.5l-1.5,3.6H156.9z"/>
			<path class="st1" d="M163.2,207.1c-0.9,0-1.7-0.2-2.4-0.7c-0.6-0.5-1-1.1-1.1-1.9h1.4c0.1,0.4,0.3,0.8,0.7,1.1s0.8,0.5,1.5,0.5
				c0.6,0,1-0.1,1.2-0.4c0.3-0.2,0.4-0.5,0.4-0.9c0-0.5-0.2-0.8-0.5-1s-0.8-0.3-1.5-0.4c-0.4-0.1-0.9-0.2-1.3-0.4
				c-0.4-0.2-0.8-0.4-1.1-0.7s-0.4-0.7-0.4-1.2c0-0.7,0.3-1.3,0.8-1.7s1.2-0.7,2.1-0.7c0.8,0,1.5,0.2,2.1,0.6c0.5,0.4,0.8,1,0.9,1.8
				h-1.3c-0.1-0.4-0.2-0.7-0.5-0.9s-0.7-0.3-1.2-0.3s-0.9,0.1-1.1,0.3c-0.3,0.2-0.4,0.5-0.4,0.8s0.2,0.6,0.5,0.8s0.8,0.3,1.4,0.5
				c0.5,0.1,1,0.2,1.4,0.4s0.8,0.4,1.1,0.7s0.4,0.7,0.4,1.3c0,0.7-0.3,1.3-0.8,1.8C164.9,206.9,164.1,207.1,163.2,207.1z"/>
			<path class="st1" d="M176,207.1c-0.8,0-1.4-0.2-2-0.5s-1.1-0.8-1.4-1.5c-0.3-0.6-0.5-1.4-0.5-2.2s0.2-1.6,0.5-2.2
				c0.3-0.6,0.8-1.1,1.4-1.5s1.3-0.5,2-0.5s1.4,0.2,2,0.5s1.1,0.8,1.4,1.5c0.3,0.6,0.5,1.4,0.5,2.2s-0.2,1.6-0.5,2.2
				c-0.3,0.6-0.8,1.1-1.4,1.5C177.4,207,176.8,207.1,176,207.1z M176,206c0.5,0,0.9-0.1,1.3-0.3c0.4-0.2,0.7-0.6,1-1
				c0.2-0.4,0.4-1,0.4-1.7s-0.1-1.2-0.4-1.7c-0.2-0.4-0.6-0.8-0.9-1c-0.4-0.2-0.8-0.3-1.3-0.3s-0.9,0.1-1.3,0.3
				c-0.4,0.2-0.7,0.6-1,1c-0.2,0.4-0.4,1-0.4,1.7s0.1,1.2,0.4,1.7s0.6,0.8,0.9,1S175.6,206,176,206z"/>
			<path class="st1" d="M181.9,206.9v-11.5h1.3v6.9l3.2-3.3h1.7l-3.5,3.6l4,4.3h-1.7l-3.6-4.1v4.1H181.9z"/>
			<path class="st1" d="M190.4,207c-0.3,0-0.5-0.1-0.7-0.3s-0.3-0.4-0.3-0.6s0.1-0.5,0.3-0.6c0.2-0.2,0.4-0.3,0.7-0.3
				s0.5,0.1,0.6,0.3c0.2,0.2,0.3,0.4,0.3,0.6s-0.1,0.5-0.3,0.6C190.9,206.9,190.6,207,190.4,207z"/>
			<path class="st2" d="M32.1,135.1c0.3-0.3,0.6-0.4,0.9-0.4c0.3,0,0.5,0,0.7,0.1c0.7,0.1,1.1,0.3,1.3,0.5c0.4,0.5,0.5,3.2,0.5,8.3
				v2.7v2.4c0,4,0,6.2,0.1,6.5c0.1,0.5,0.6,0.8,1.5,0.8c0.4,0,0.8,0,1.1,0c0.2,0,0.5,0,0.9,0c0.6,0,1,0.1,1.2,0.3s0.3,0.5,0.3,1
				c0,0.3-0.1,0.6-0.2,0.8c-0.1,0.2-0.4,0.4-0.9,0.7c-0.8,0.5-1.7,0.7-2.6,0.7c-1.3,0.1-2,0.1-2,0.1s-0.2,0-0.3,0
				c-0.4,0-0.8-0.1-1.2-0.3c-0.5-0.2-0.8-0.5-1-0.7c-0.5-0.6-0.7-2.1-0.7-4.7c0-0.6,0.1-1.8,0.1-3.6c0.1-1.6,0.1-3.3,0.1-5.2
				c0-4.5-0.1-7.2-0.2-8.3c-0.1-0.4-0.1-0.7-0.1-0.8C31.7,135.7,31.8,135.4,32.1,135.1z"/>
			<path class="st2" d="M46.1,133.8c0.4-0.4,0.8-0.6,1.4-0.6c0.6,0,1,0.2,1.4,0.6l0.6,0.6l0.3,10.3c0.2,5.7,0.2,9,0.2,9.8
				c0,0.5,0,0.8,0,1.1s0,0.5-0.1,0.7c0,0.2-0.1,0.3-0.1,0.4c-0.1,0.1-0.1,0.2-0.1,0.2s-0.1,0.1-0.2,0.1s-0.2,0.1-0.2,0.1
				c-0.3,0.2-0.6,0.3-0.8,0.3c-0.1,0-0.4-0.1-0.9-0.2c-0.7-0.3-1.1-0.6-1.2-0.8c-0.1-0.1-0.2-3.8-0.3-11s-0.1-10.8-0.2-10.9
				C45.6,134.4,45.7,134.1,46.1,133.8z"/>
			<path class="st2" d="M56.9,136.2c0.8-0.1,1.6-0.1,2.3-0.1s1.2,0,1.5,0.1c1.4,0.1,2.3,0.2,2.6,0.6c0.3,0.3,0.4,0.7,0.4,1
				c0,0.8-0.7,1.3-2.1,1.6c-0.4,0.1-1.1,0.2-2.3,0.5l-1,0.2v3c0,1.5,0,2.4,0.1,2.6c0,0.3,0.2,0.5,0.5,0.6c0.3,0.2,0.8,0.3,1.4,0.3
				c0.6,0,0.9,0.2,1.1,0.5c0.2,0.3,0.4,0.7,0.4,1c0,0.7-0.6,1.2-1.8,1.5c-0.7,0.2-1.2,0.3-1.3,0.5c-0.1,0.1-0.1,0.3-0.1,0.7
				s0.2,2.8,0.5,7.3l0.1,1.2c0,0.4-0.2,0.6-0.6,0.8c-0.3,0.1-0.6,0.2-1,0.2c-0.6,0-1.2-0.3-1.8-0.8c-0.5-0.5-0.8-1-0.8-1.6v-0.4
				c0-0.3,0-0.8,0-1.6s0-1.4,0-1.9c0-5.9-0.1-10.3-0.3-13.1c-0.1-1.2-0.1-2.1-0.1-2.6c0-0.8,0.1-1.3,0.4-1.5
				C55.2,136.5,55.9,136.3,56.9,136.2z"/>
			<path class="st2" d="M70.3,136.5c0.4-0.1,0.8-0.1,1.5-0.1c1.7,0,2.7,0.2,3.2,0.6c0.3,0.3,0.5,0.6,0.5,1s-0.2,0.7-0.5,1
				s-0.7,0.4-1.2,0.4s-0.8,0.1-0.9,0.3s-0.2,0.8-0.2,1.6c0,0.2,0,1,0.1,2.3c0.1,1.5,0.1,2.5,0.2,2.9s0.2,0.7,0.3,0.7
				c0,0,0.2,0,0.6,0s0.7,0,0.9,0c0.7,0,1.3,0.2,1.6,0.6c0.2,0.2,0.3,0.4,0.3,0.6c0,0.5-0.7,0.9-2,1.4c-0.8,0.3-1.2,0.5-1.4,0.6
				s-0.3,0.5-0.3,1c-0.1,0.5-0.1,0.9-0.1,1.3c0,1.5,0.1,2.7,0.4,3.4c0.1,0.3,0.3,0.5,0.4,0.6c0.2,0.1,0.5,0.1,1,0.1
				c0.6,0,1.2,0.1,1.7,0.4c0.5,0.3,0.7,0.6,0.7,1c0,0.3-0.2,0.6-0.7,1.1c-0.7,0.7-2,1.1-3.7,1.1c-1.8,0-2.9-0.4-3.5-1.1
				c-0.3-0.4-0.5-3-0.5-7.8c-0.1-6-0.1-9.5-0.2-10.6l-0.1-3.4l0.6-0.4C69.5,136.8,69.9,136.6,70.3,136.5z"/>
			<path class="st2" d="M82.3,135.1c0.3-0.3,0.6-0.4,0.9-0.4s0.5,0,0.7,0.1c0.7,0.1,1.1,0.3,1.3,0.5c0.4,0.5,0.6,3.2,0.6,8.3v2.7
				v2.4c0,4,0,6.2,0.1,6.5c0.1,0.5,0.6,0.8,1.5,0.8c0.4,0,0.8,0,1.1,0c0.2,0,0.5,0,0.9,0c0.6,0,1,0.1,1.2,0.3s0.3,0.5,0.3,1
				c0,0.3-0.1,0.6-0.2,0.8s-0.4,0.4-0.9,0.7c-0.8,0.5-1.7,0.7-2.6,0.7c-1.3,0.1-2,0.1-2,0.1s-0.2,0-0.3,0c-0.4,0-0.8-0.1-1.2-0.3
				c-0.5-0.2-0.8-0.5-1-0.7c-0.5-0.6-0.7-2.1-0.7-4.7c0-0.6,0.1-1.8,0.1-3.6c0.1-1.6,0.1-3.3,0.1-5.2c0-4.5-0.1-7.2-0.2-8.3
				c-0.1-0.4-0.1-0.7-0.1-0.8C81.8,135.7,82,135.4,82.3,135.1z"/>
			<path class="st2" d="M97.1,135.9l0.8-1.1h5.7l0.9,0.9c0.6,0.6,1,1.3,1.2,2.2s0.4,2.3,0.6,4.1c0.1,0.7,0.1,1.7,0.1,3.1
				c0,3.1-0.3,5.9-0.9,8.5s-1.3,4.3-2.3,5.2c-0.3,0.3-0.8,0.6-1.3,0.8c-0.6,0.2-1.1,0.3-1.5,0.3c-0.2,0-0.3,0-0.5-0.1
				s-0.6-0.2-1-0.2c-0.3,0-0.7-0.2-1.1-0.8c-0.4-0.5-0.7-1.1-1-1.8c-0.4-1.2-0.7-2.5-0.8-3.9c-0.1-1.4-0.2-3.7-0.2-6.8v-2.1
				c0-2.9,0.1-4.8,0.2-5.8C96.2,137.3,96.5,136.5,97.1,135.9z M101.3,138.1c-0.3-0.6-0.5-0.9-0.7-0.9s-0.5,0.5-0.8,1.4
				c-0.2,0.7-0.4,2.1-0.4,4.2c0,1.6,0.1,3.4,0.2,5.2c0.1,1.7,0.3,3.4,0.6,4.9c0.3,1.5,0.5,2.3,0.7,2.3s0.3-0.3,0.4-1
				c0.2-0.6,0.3-1,0.5-1.4c0.1-0.2,0.2-1.5,0.4-4c0.1-1.3,0.1-2.5,0.1-3.6C102.5,141.9,102.1,139.5,101.3,138.1z"/>
			<path class="st2" d="M112.2,135.4c0.5-0.2,0.9-0.3,1.4-0.3c0.9,0,1.5,0.6,1.8,1.7c0.2,0.9,0.6,1.8,1.1,2.8s0.8,1.8,1,2.4
				c0.3,1,0.6,1.6,0.8,1.9c0.1,0.1,0.2,0.2,0.2,0.2c0.1,0,0.2-0.7,0.4-2c0.1-1.2,0.1-2,0.1-2.5v-0.5c0-0.2-0.1-0.6-0.1-0.9
				c0-0.8,0.2-1.4,0.6-1.8c0.4-0.5,0.9-0.7,1.7-0.7c0.6,0,1,0.1,1.3,0.5c0.3,0.2,0.4,0.6,0.4,1.1c0,0.6,0,1.1-0.1,1.6
				s-0.1,4.2-0.2,11.1c0,4.3-0.1,6.9-0.1,7.8c0,0.9-0.2,1.4-0.4,1.6c-0.3,0.3-0.8,0.5-1.5,0.5c-1.3,0-2.1-0.6-2.3-1.9
				c-0.1-0.5-0.4-1.4-0.9-2.7c-0.5-1.2-0.8-2.3-0.9-3.2c-0.2-1.2-0.7-2.9-1.3-5c-0.1-0.2-0.1-0.3-0.1-0.3c-0.2,0-0.2,1.3-0.2,3.8
				v2.2v2.4c0,2.5-0.1,3.9-0.2,4.2c-0.3,0.9-0.9,1.3-1.9,1.3c-0.6,0-1.1-0.2-1.4-0.6c-0.3-0.3-0.4-0.6-0.4-0.9c0-0.1,0-0.3,0.1-0.8
				c0.2-1,0.2-4.7,0.2-11c0-7,0.1-10.8,0.2-11.2c0.1-0.3,0.2-0.4,0.5-0.5C112.1,135.5,112.2,135.5,112.2,135.4z"/>
			<path class="st2" d="M129.6,137.5c0-0.2,0.2-0.4,0.5-0.6c0.3-0.2,0.7-0.4,1.1-0.6c0.4-0.2,0.7-0.3,0.8-0.5s0.3-0.3,0.5-0.3
				s0.7,0.2,1.4,0.6c0.7,0.4,1.1,0.9,1.2,1.3c0,0.1,0.1,0.2,0.1,0.3c0,0.3-0.4,0.6-1.3,1c-0.9,0.4-1.5,0.8-1.7,1.3
				c-0.5,0.9-0.7,3.1-0.7,6.6c0,1.2,0,2.1,0.1,2.6c0.4,4,0.7,6.2,0.9,6.7h0.1c0.3,0,0.4-1.1,0.4-3.4c0.1-1.2,0.1-2.1,0.3-2.5
				c0.1-0.5,0.1-1-0.2-1.3c-0.4-0.4-0.5-0.8-0.5-1.2c0-0.3,0.1-0.6,0.4-0.9c0.3-0.4,1-0.5,2.1-0.5c0.7,0,1.2,0,1.4,0.1
				s0.5,0.2,0.7,0.5c0.3,0.4,0.4,0.8,0.4,1.3s-0.1,1.1-0.2,1.8c-0.2,1.1-0.4,2.6-0.5,4.5c-0.1,2.2-0.4,3.6-0.7,4.2
				c-0.4,0.8-0.7,1.3-1,1.5c-0.3,0.3-0.8,0.5-1.5,0.7c-0.5,0.1-0.9,0.2-1.3,0.2c-0.5,0-1.1-0.2-1.7-0.7c-0.8-0.6-1.4-2-1.8-4.3
				c-0.1-0.5-0.2-0.8-0.4-1.1c-0.1-0.1-0.1-0.5-0.2-1.3c0-0.4-0.1-2.4-0.2-6.1l-0.2-5l0.6-2.1c0.4-1.3,0.8-2.2,1-2.5
				C129.5,137.9,129.6,137.7,129.6,137.5z"/>
			<path class="st2" d="M154.5,134.5c0.3-0.1,1.1-0.2,2.2-0.2c1.5,0,2.4,0.1,2.7,0.3c0.5,0.3,1,0.7,1.6,1.3s1,1.1,1.2,1.6
				c0.4,0.7,0.6,2.4,0.7,4.9c0.1,1.5,0.1,2.4,0.1,2.6c0,1-0.1,1.9-0.4,2.7c-0.3,1-0.7,1.7-1.1,2.2c-0.4,0.5-1.1,0.9-1.9,1.1
				l-1.3,0.5v3.8c0,2.2-0.1,3.6-0.2,4.1c-0.2,0.5-0.6,0.7-1.4,0.7c-0.6,0-1.2-0.2-1.6-0.6l-0.7-0.5v-3.3v-0.8c0-2.6-0.1-5.9-0.2-9.8
				c-0.1-3.9-0.3-6.3-0.5-7.3c-0.1-0.7-0.1-1.3-0.1-1.7C153.6,135.3,153.9,134.8,154.5,134.5z M158.6,138.8c-0.3-0.7-0.6-1-0.7-1
				c-0.1,0-0.1,0-0.2,0.1c0,1,0,2.2,0,3.5c0,4.3,0.2,6.5,0.5,6.5c0.1,0,0.3-0.3,0.6-0.9c0.2-0.5,0.4-1.2,0.4-2c0-0.2,0-0.9-0.1-2.1
				C159,140.7,158.8,139.3,158.6,138.8z"/>
			<path class="st2" d="M169.1,134c0.5-0.2,1.2-0.3,2.1-0.3c0.9,0,1.6,0.1,2,0.3c0.8,0.3,1.4,0.9,1.8,1.8c0.2,0.4,0.4,1.2,0.5,2.3
				c0.2,1.2,0.2,2.2,0.2,3.1c0,0.4,0,0.7-0.1,0.9c-0.1,0.8-0.3,1.6-0.6,2.6s-0.6,1.4-0.7,1.4c-0.2,0-0.4,0.2-0.4,0.6
				c0,0.3,0.1,0.6,0.3,1c0.5,0.7,1.2,2,2.1,3.9c0.9,1.9,1.4,3.1,1.5,3.6c0,0.1,0.1,0.4,0.1,0.6c0,0.4-0.1,0.8-0.3,1.1
				c-0.2,0.4-0.5,0.5-0.9,0.5c-0.3,0-0.6,0-0.8,0c-0.8-0.1-1.2-0.2-1.4-0.3s-0.3-0.4-0.3-0.7c0-0.6-0.3-1.5-0.9-2.8
				c-0.6-1.2-1.1-1.9-1.4-1.9h-0.1c-0.1,0.1-0.1,0.4-0.1,1c0,0.9,0.1,1.9,0.3,3c0.1,0.5,0.1,0.8,0.1,1c0,1-0.2,1.7-0.7,1.9
				c-0.2,0.1-0.4,0.1-0.8,0.1c-1,0-1.6-0.2-1.8-0.7c-0.1-0.2-0.3-2.3-0.4-6.2c0-1.2-0.1-2.6-0.1-4s0-2.5,0-3.1c0-0.7,0-1.5-0.1-2.6
				c-0.1-1-0.2-2.2-0.3-3.5c-0.1-1.5-0.2-2.3-0.2-2.6c0-0.7,0.1-1.2,0.3-1.5C168.2,134.3,168.6,134.1,169.1,134z M172,137.3
				c-0.1-0.2-0.3-0.4-0.5-0.4s-0.3,0.1-0.5,0.3c-0.1,0.2-0.1,0.4,0,0.5c0,0,0.1,1,0.2,3c0.1,1.9,0.2,2.9,0.3,3s0.2-0.1,0.5-0.4
				c0.2-0.3,0.3-0.8,0.3-1.6c0-0.6,0-1.1-0.1-1.5C172.2,138.7,172.1,137.7,172,137.3z"/>
			<path class="st2" d="M184,135.9l0.8-1.1h5.7l0.9,0.9c0.6,0.6,1,1.3,1.2,2.2s0.4,2.3,0.6,4.1c0.1,0.7,0.1,1.7,0.1,3.1
				c0,3.1-0.3,5.9-0.9,8.5c-0.6,2.6-1.3,4.3-2.3,5.2c-0.3,0.3-0.8,0.6-1.3,0.8c-0.6,0.2-1.1,0.3-1.5,0.3c-0.2,0-0.3,0-0.5-0.1
				s-0.6-0.2-1-0.2c-0.3,0-0.7-0.2-1.1-0.8c-0.4-0.5-0.7-1.1-1-1.8c-0.4-1.2-0.7-2.5-0.8-3.9s-0.2-3.7-0.2-6.8v-2.1
				c0-2.9,0.1-4.8,0.2-5.8C183.1,137.3,183.4,136.5,184,135.9z M188.3,138.1c-0.3-0.6-0.5-0.9-0.7-0.9s-0.5,0.5-0.8,1.4
				c-0.2,0.7-0.4,2.1-0.4,4.2c0,1.6,0.1,3.4,0.2,5.2c0.1,1.7,0.3,3.4,0.6,4.9s0.5,2.3,0.7,2.3s0.3-0.3,0.4-1c0.1-0.6,0.3-1,0.5-1.4
				c0.1-0.2,0.2-1.5,0.4-4c0.1-1.3,0.1-2.5,0.1-3.6C189.4,141.9,189,139.5,188.3,138.1z"/>
			<path class="st2" d="M201.1,137.3c0.6-0.6,1-0.9,1.2-1.1c0.2-0.1,0.6-0.2,1.1-0.2c1.4,0,2.1,0.5,2.1,1.4c0,0.8-0.6,1.6-1.8,2.2
				c-0.8,0.4-1.4,2-1.8,4.6c-0.2,1.2-0.3,2.4-0.3,3.7s0.1,2.6,0.2,4c0.2,1.7,0.4,2.9,0.7,3.6s0.8,1.1,1.6,1.2c1.2,0.2,1.9,0.6,2.1,1
				c0,0.1,0,0.1,0,0.2c0,0.3-0.2,0.6-0.5,0.9c-0.3,0.3-0.8,0.5-1.2,0.6c-0.1,0-0.3,0-0.5,0c-1.1,0-2.2-0.3-3.1-0.8
				c-0.3-0.2-0.7-0.8-1.2-1.6c-0.5-0.9-0.8-1.8-1.1-2.6c-0.3-1.2-0.5-3.4-0.5-6.6c0-1.2,0.1-2.4,0.2-3.5c0.2-1.9,0.6-3.3,1-4.3
				C199.6,139.1,200.3,138.2,201.1,137.3z"/>
			<path class="st2" d="M212.9,136.5c0.4-0.1,0.8-0.1,1.5-0.1c1.7,0,2.7,0.2,3.2,0.6c0.3,0.3,0.5,0.6,0.5,1s-0.1,0.7-0.5,1
				c-0.3,0.3-0.7,0.4-1.2,0.4s-0.8,0.1-0.9,0.3s-0.2,0.8-0.2,1.6c0,0.2,0,1,0.1,2.3c0.1,1.5,0.1,2.5,0.2,2.9
				c0.1,0.4,0.2,0.7,0.3,0.7c0,0,0.2,0,0.6,0c0.4,0,0.7,0,0.9,0c0.7,0,1.3,0.2,1.6,0.6c0.2,0.2,0.3,0.4,0.3,0.6c0,0.5-0.7,0.9-2,1.4
				c-0.8,0.3-1.2,0.5-1.4,0.6s-0.3,0.5-0.3,1c-0.1,0.5-0.1,0.9-0.1,1.3c0,1.5,0.1,2.7,0.4,3.4c0.1,0.3,0.3,0.5,0.4,0.6
				c0.2,0.1,0.5,0.1,1,0.1c0.6,0,1.2,0.1,1.6,0.4c0.5,0.3,0.7,0.6,0.7,1c0,0.3-0.2,0.6-0.7,1.1c-0.7,0.7-1.9,1.1-3.7,1.1
				s-2.9-0.4-3.5-1.1c-0.3-0.4-0.5-3-0.6-7.8c-0.1-6-0.1-9.5-0.2-10.6l-0.1-3.4l0.6-0.4C212,136.8,212.5,136.6,212.9,136.5z"/>
			<path class="st2" d="M227.9,134.8c0.4-0.2,0.8-0.3,1.3-0.3c0.3,0,0.6,0,0.8,0.1c0.9,0.1,1.5,0.2,1.8,0.4c0.3,0.1,0.6,0.5,0.9,0.9
				c0.3,0.5,0.5,1,0.5,1.5c0,0.6-0.2,1-0.6,1.4c-0.4,0.4-0.7,0.5-1.1,0.5c-0.4,0-0.8-0.3-1.1-0.8c-0.3-0.4-0.6-0.6-0.9-0.6
				c-0.3,0-0.5,0.2-0.8,0.6c-0.3,0.4-0.4,0.8-0.5,1.3v0.2c0,1.7,1.3,4.8,3.8,9.3c0.4,0.7,0.8,2.1,1.2,4c0,0.1,0,0.3,0,0.6
				c0,1.7-0.3,3-1,3.9c-0.3,0.4-0.8,0.8-1.5,1c-0.7,0.3-1.3,0.5-1.9,0.5c-0.1,0-0.1,0-0.2,0s-0.1,0-0.2,0c-0.7-0.1-1.5-0.6-2.5-1.6
				s-1.5-1.7-1.5-2.2c0-0.2,0.2-0.5,0.5-0.9c0.3-0.3,0.7-0.5,1-0.6c0.1,0,0.2-0.1,0.3-0.1c0.3,0,0.9,0.5,1.6,1.5
				c0.3,0.4,0.6,0.6,0.9,0.6c0.3,0,0.5-0.2,0.7-0.6c0.1-0.1,0.1-0.4,0.1-0.7c0-1.8-0.8-4.3-2.4-7.7c-1.5-3.2-2.2-5.5-2.2-7
				c0-0.7,0.1-1.3,0.4-1.9c0.5-1.2,0.9-2,1.1-2.3C226.8,135.5,227.3,135.1,227.9,134.8z"/>
			<path class="st2" d="M241.5,134.8c0.4-0.2,0.8-0.3,1.3-0.3c0.3,0,0.6,0,0.8,0.1c0.9,0.1,1.5,0.2,1.8,0.4c0.3,0.1,0.6,0.5,0.9,0.9
				c0.3,0.5,0.5,1,0.5,1.5c0,0.6-0.2,1-0.6,1.4c-0.4,0.4-0.7,0.5-1.1,0.5c-0.4,0-0.8-0.3-1.1-0.8c-0.3-0.4-0.6-0.6-0.9-0.6
				c-0.3,0-0.5,0.2-0.8,0.6c-0.3,0.4-0.4,0.8-0.5,1.3v0.2c0,1.7,1.3,4.8,3.8,9.3c0.4,0.7,0.8,2.1,1.2,4c0,0.1,0.1,0.3,0.1,0.6
				c0,1.7-0.4,3-1.1,3.9c-0.3,0.4-0.8,0.8-1.5,1c-0.7,0.3-1.3,0.5-1.9,0.5c-0.1,0-0.1,0-0.2,0s-0.1,0-0.2,0
				c-0.7-0.1-1.6-0.6-2.5-1.6s-1.5-1.7-1.5-2.2c0-0.2,0.2-0.5,0.5-0.9c0.3-0.3,0.7-0.5,1-0.6c0.1,0,0.2-0.1,0.3-0.1
				c0.3,0,0.9,0.5,1.6,1.5c0.3,0.4,0.6,0.6,0.9,0.6c0.3,0,0.5-0.2,0.7-0.6c0.1-0.1,0.1-0.4,0.1-0.7c0-1.8-0.8-4.3-2.4-7.7
				c-1.5-3.2-2.2-5.5-2.2-7c0-0.7,0.1-1.3,0.4-1.9c0.5-1.2,0.9-2,1.1-2.3C240.3,135.5,240.8,135.1,241.5,134.8z"/>
			<path class="st2" d="M253.2,154.3c0.2-0.2,0.5-0.3,0.8-0.3c0.2,0,0.4,0,0.6,0.1c0.8,0.1,1.2,0.2,1.3,0.3s0.2,0.3,0.2,0.7
				c0,0.8-0.3,2-1,3.5c0,0.1-0.1,0.3-0.2,0.6c-0.1,0.3-0.2,0.5-0.3,0.7c-0.4,1.2-1,1.7-1.6,1.7h-0.2c-0.5-0.1-0.8-0.4-1.1-1
				c-0.2-0.4-0.2-0.7-0.2-0.9s0.1-0.9,0.4-2.1C252.2,155.9,252.7,154.8,253.2,154.3z"/>
			<path class="st2" d="M187.1,73.9c-0.5-0.4-1-0.8-1.5-1.1c-4.4-3.1-10-5.2-17.2-5.2c-5.6,0-10.3,1.3-14.1,3.3
				c8.2,11.8,10.7,23.6,10.7,23.6c2.1,0,17.7,0,22.4,0c0,0,1.4-6.6,5.4-14.8C191.2,77.7,189.4,75.7,187.1,73.9z"/>
			<path class="st3" d="M187.4,94.5c0,0,1.4-6.6,5.4-14.8c5.8-11.8,17.2-26.9,37.9-31c0.9-0.2,1.8-0.3,2.8-0.5
				c2.6-0.4,5.4-0.6,8.4-0.6c44.6,0,54.5,46.8,54.5,46.8S189.5,94.5,187.4,94.5z"/>
			<path class="st3" d="M165,94.5c0,0-2.5-11.9-10.7-23.6c-7.2-10.4-18.7-20.6-36.8-22.8c-1.4-0.2-2.8-0.3-4.2-0.3
				c-0.9,0-1.8-0.1-2.8-0.1c-3.3,0-6.5,0.3-9.4,0.8c-1.2,0.2-2.4,0.4-3.6,0.7c-13.2,3.1-22.3,10.6-28.7,18.7
				c0.9,0.1,1.8,0.3,2.7,0.5c1,0.2,2.1,0.5,3,0.9c3.2,1.1,6,2.8,8.3,4.7c0.5,0.4,1.1,0.9,1.6,1.4c8.6,7.9,10.9,19.1,10.9,19.2
				C103.9,94.5,161.5,94.5,165,94.5z M113.4,47.9c0,0,0.5,0.2,1.3,0.7C113.9,48.2,113.5,47.9,113.4,47.9z"/>
			<path class="st2" d="M39.1,65.1c-0.2,0.4-0.2,0.8,0.2,1.1c0.3,0.2,0.6,0.2,1.2-0.2c1.7-1.2,6.3-5.6,2.7-7.2
				c-1.6-0.7-2.2,1.3-2.7,3C40.1,63.3,39.4,64.5,39.1,65.1z"/>
			<path class="st4" d="M21.8,67.4c0,0,5.9-0.4,6.9-4.3C28.8,63.1,24.9,62.5,21.8,67.4z"/>
			<path class="st5" d="M22.3,64c0,0,3.3,2.4,7.6-0.7C29.8,63.3,28.7,62,22.3,64z"/>
			<path class="st6" d="M27.9,63.9c-1.2,1.8-3.4,7.7,3.7,12.5c2,1.4,0.2,3.1,1.3,4.1c1.9,1.8,3.4-6.1,8.5-8.9
				c1.6-0.9,5.5-0.9,5.8-3.5c0.3-1.9-1.1-1.2-2.2-0.5c-2.1,1.3-2,0.2-3.4-2.5C37,56.9,30.2,60.5,27.9,63.9z"/>
			<path d="M37.7,66.5c-0.1-0.1-0.3-0.1-0.5-0.1l0.1,0.2c0,0.1,0,0.1,0,0.2l-0.2,0.1c-0.1,0-0.1,0-0.2,0l-0.1-0.2
				c-0.1,0.1-0.3,0.4-0.3,0.5c0.1,0.2,0.4,0.4,0.9,0.1C37.8,67,37.8,66.6,37.7,66.5z"/>
			<path class="st0" d="M37.1,66.8l0.2-0.1c0.1,0,0.1-0.1,0-0.2l-0.1-0.2c-0.1,0-0.1,0-0.2,0.1c-0.1,0-0.1,0.1-0.2,0.2l0.1,0.2
				C36.9,66.8,37,66.9,37.1,66.8z"/>
			<path class="st4" d="M28.6,59.5c0,0-0.2,0.9,0.6,1.6C29.3,61,29.4,60.7,28.6,59.5z"/>
			<path class="st4" d="M28,61.8c0,0,1.3,0.8,2-0.5C30,61.3,29.4,61,28,61.8z"/>
			<path class="st7" d="M30.9,61.9c0-0.1-1.5-1.3-3.6-0.9"/>
			<path class="st8" d="M26.8,60.6c0,0-0.2-1.4,0.4-1.5C27.8,59,27.2,60.6,26.8,60.6z"/>
			<path class="st8" d="M26.8,60.6c0,0,0.8-1.4,1.1-0.9C28.3,60.1,27,61,26.8,60.6z"/>
			<path class="st8" d="M26.7,60.9c0,0,1.1-1.1,1.3-0.4C28.2,61.1,26.8,61.3,26.7,60.9z"/>
			<path class="st8" d="M26.6,60.9c0,0-1-1.1-0.4-1.3C26.8,59.5,27,60.9,26.6,60.9z"/>
			<path class="st8" d="M26.8,60.9c0,0-0.9,1.3-1.2,0.7C25.3,61,26.6,60.5,26.8,60.9z"/>
			<path class="st8" d="M26.8,61.1c0,0-1.3,0-1-0.5C26,60.1,27,60.8,26.8,61.1z"/>
			<path class="st8" d="M26.7,61c0,0-1.2,0.9-0.8,1.4C26.2,62.9,27,61.3,26.7,61z"/>
			<path class="st8" d="M26.6,60.9c0,0-0.5,1.5,0.1,1.5C27.3,62.3,27.1,60.8,26.6,60.9z"/>
			<path class="st8" d="M26.6,60.8c0,0,0.6,1.4,1,0.9C28,61.2,26.9,60.5,26.6,60.8z"/>
			<path class="st9" d="M27.1,61c0.2-0.4,0.2-0.9,0-1s-0.5,0.2-0.7,0.7c-0.2,0.4-0.2,0.9,0,1C26.6,61.7,26.9,61.4,27.1,61z"/>
			<path d="M34.3,67.2c0.3,0,0.6-0.3,0.6-0.6c0-0.3-0.3-0.6-0.6-0.6s-0.6,0.3-0.6,0.6S34,67.2,34.3,67.2z"/>
			<path d="M38,64.9c0.3,0,0.6-0.3,0.6-0.6c0-0.3-0.3-0.6-0.6-0.6s-0.6,0.3-0.6,0.6C37.5,64.7,37.7,64.9,38,64.9z"/>
			<path class="st2" d="M29.8,70.7c-0.4,0-0.8,0.3-0.8,0.7c0,0.3,0.2,0.7,0.8,0.9c1.9,0.8,8.1,2.3,7.5-1.6c-0.3-1.7-2.3-1.2-4-0.6
				C31.8,70.5,30.4,70.7,29.8,70.7z"/>
			<path class="st0" d="M30,65.3c0,0-0.4,2.4-1.4,2C28.2,67,27.9,65.6,30,65.3z"/>
			<path class="st0" d="M32.7,94.5c0,0,0.2-0.8,0.6-2.2c-0.6,0.9-1,1.4-1,1.5c-0.2,0.4-0.1,0.8,0.2,1c0.1,0.1,0.3,0.1,0.4,0.1
				c0.2,0,0.5-0.1,0.6-0.3c0,0,0-0.1,0.1-0.1C33,94.5,32.7,94.5,32.7,94.5z"/>
			<path class="st0" d="M65.2,70.2L65.2,70.2c0.9-0.1,1.8-0.1,2.6-0.1h0.4c0.5,0,0.8-0.3,0.8-0.7c0-0.4-0.3-0.8-0.7-0.8h-0.4
				c-0.9,0-1.8,0-2.7,0.1c-0.4,0-0.7,0.4-0.7,0.8C64.5,69.9,64.8,70.2,65.2,70.2z"/>
			<path class="st0" d="M71.1,70.2c1,0.1,1.9,0.3,2.9,0.5c0.1,0,0.1,0,0.2,0c0.3,0,0.7-0.2,0.7-0.6c0.1-0.4-0.2-0.8-0.6-0.9
				c-1-0.2-2-0.4-3.1-0.5c-0.4-0.1-0.8,0.2-0.8,0.7C70.4,69.8,70.7,70.2,71.1,70.2z"/>
			<path class="st0" d="M76.3,70.5c-0.1,0.4,0.1,0.8,0.5,1c0.9,0.3,1.8,0.7,2.7,1.1c0.1,0,0.2,0.1,0.3,0.1c0.3,0,0.5-0.1,0.7-0.4
				c-1.2-0.8-2.5-1.5-3.8-2.1C76.5,70.3,76.4,70.4,76.3,70.5z"/>
			<path class="st0" d="M59.2,71.1c0.1,0,0.1,0,0.2,0C59.6,71,59.8,71,60,71c0.6-0.1,1.4-0.3,2.2-0.4c0.4-0.1,0.7-0.4,0.6-0.9
				s-0.4-0.7-0.9-0.6c-0.9,0.1-1.7,0.3-2.3,0.4c-0.2,0.1-0.5,0.1-0.7,0.2c-0.4,0.1-0.7,0.5-0.6,0.9C58.6,70.8,58.9,71.1,59.2,71.1z"
				/>
			<path class="st0" d="M40.3,85.4c0.2,0,0.4-0.1,0.6-0.3c0.6-0.7,1.3-1.5,2-2.2c0.3-0.3,0.3-0.8,0-1.1c-0.3-0.3-0.8-0.3-1.1,0
				c-0.7,0.8-1.4,1.5-2,2.3c-0.3,0.3-0.2,0.8,0.1,1.1C39.9,85.4,40.1,85.4,40.3,85.4z"/>
			<path class="st0" d="M33.6,94.5c0.2-0.3,0.8-1.1,1.6-2.3c0.2-0.3,0.2-0.8-0.2-1.1c-0.3-0.2-0.8-0.2-1.1,0.2
				c-0.3,0.4-0.5,0.7-0.8,1c-0.4,1.3-0.6,2.2-0.6,2.2S33,94.5,33.6,94.5z"/>
			<path class="st0" d="M36.5,90.1c0.2,0,0.5-0.1,0.6-0.3c0.6-0.7,1.2-1.5,1.9-2.3c0.3-0.3,0.2-0.8-0.1-1.1
				c-0.3-0.3-0.8-0.2-1.1,0.1c-0.7,0.8-1.3,1.6-1.9,2.4c-0.3,0.3-0.2,0.8,0.1,1.1C36.1,90,36.3,90.1,36.5,90.1z"/>
			<path class="st0" d="M44.4,81c0.2,0,0.4-0.1,0.5-0.2c0.7-0.7,1.4-1.4,2.2-2.1c0.3-0.3,0.3-0.8,0-1.1s-0.8-0.3-1.1,0
				c-0.8,0.7-1.5,1.4-2.2,2.1c-0.3,0.3-0.3,0.8,0,1.1C44,80.9,44.2,81,44.4,81z"/>
			<path class="st0" d="M53.7,73.4c0.1,0,0.3,0,0.4-0.1c0.9-0.5,1.8-1,2.6-1.3c0.4-0.2,0.5-0.6,0.4-1s-0.6-0.6-1-0.4
				c-0.9,0.4-1.8,0.9-2.8,1.4c-0.4,0.2-0.5,0.7-0.3,1C53.2,73.3,53.5,73.4,53.7,73.4z"/>
			<path class="st0" d="M48.8,76.9c0.2,0,0.3-0.1,0.5-0.2c0.8-0.6,1.6-1.3,2.3-1.8c0.3-0.2,0.4-0.7,0.2-1.1s-0.7-0.4-1.1-0.2
				c-0.8,0.6-1.6,1.2-2.4,1.9c-0.3,0.4-0.3,0.8-0.1,1.2C48.4,76.8,48.6,76.9,48.8,76.9z"/>
			<path class="st0" d="M60.7,71.6c1.6,0,2.8-0.7,2.8-1.6s-1.3-1.6-2.8-1.6c-1.6,0-2.8,0.7-2.8,1.6S59.1,71.6,60.7,71.6z"/>
			<path class="st0" d="M101,50.2c1.6,0,2.8-0.7,2.8-1.6c0-0.9-1.3-1.6-2.8-1.6c-1.6,0-2.8,0.7-2.8,1.6
				C98.2,49.4,99.4,50.2,101,50.2z"/>
			<path class="st0" d="M185,75.4c1.6,0,2.8-0.7,2.8-1.6s-1.3-1.6-2.8-1.6s-2.8,0.7-2.8,1.6S183.4,75.4,185,75.4z"/>
			<path class="st0" d="M233.9,50.4c1.6,0,2.8-0.7,2.8-1.6c0-0.9-1.3-1.6-2.8-1.6c-1.6,0-2.8,0.7-2.8,1.6
				C231.1,49.7,232.4,50.4,233.9,50.4z"/>
			<path class="st2" d="M84.2,77.7c-0.2,0.1-0.3,0.2-0.4,0.2c-0.2,0-0.5-0.1-0.6-0.3c-0.2-0.3-0.1-0.8,0.2-1c0,0,0.5-0.3,1.3-0.9
				c-0.1-0.1-0.2-0.1-0.2-0.2c-0.5-0.5-1-0.9-1.6-1.4c-0.7-0.6-1.5-1.2-2.4-1.7c-0.1,0.3-0.4,0.4-0.7,0.4c-0.1,0-0.2,0-0.3-0.1
				c-0.9-0.4-1.8-0.8-2.7-1.1c-0.4-0.1-0.6-0.6-0.5-1c0.1-0.2,0.2-0.3,0.3-0.4c-0.7-0.3-1.4-0.6-2.1-0.9c-1-0.3-2-0.6-3-0.9
				c-0.9-0.2-1.8-0.4-2.7-0.5c-1.5-0.2-3.1-0.3-4.8-0.3c-21.2,0-28.8,18.4-30.8,24.8c0.2-0.3,0.5-0.6,0.8-1c0.2-0.3,0.7-0.4,1-0.2
				c0.3,0.2,0.4,0.7,0.2,1.1c-0.9,1.2-1.4,2-1.6,2.3c7.5,0,58.3,0,61.8,0c0,0-2.1-10.1-9.6-17.9C84.8,77.3,84.2,77.7,84.2,77.7z
				 M38.9,87.5c-0.7,0.8-1.3,1.6-1.9,2.3c-0.1,0.2-0.4,0.3-0.6,0.3c-0.2,0-0.3-0.1-0.5-0.2c-0.3-0.3-0.4-0.7-0.1-1.1
				c0.6-0.7,1.2-1.5,1.9-2.4c0.3-0.3,0.7-0.4,1.1-0.1C39.1,86.7,39.2,87.1,38.9,87.5z M42.8,83c-0.7,0.8-1.4,1.5-2,2.2
				c-0.1,0.2-0.4,0.3-0.6,0.3c-0.2,0-0.3-0.1-0.5-0.2c-0.3-0.3-0.4-0.8-0.1-1.1c0.6-0.7,1.3-1.5,2-2.3c0.3-0.3,0.8-0.3,1.1,0
				C43.1,82.2,43.1,82.7,42.8,83z M47.1,78.7c-0.7,0.7-1.4,1.4-2.2,2.1C44.7,81,44.6,81,44.4,81s-0.4-0.1-0.5-0.2
				c-0.3-0.3-0.3-0.8,0-1.1c0.7-0.7,1.4-1.4,2.2-2.1c0.3-0.3,0.8-0.3,1.1,0S47.4,78.4,47.1,78.7z M51.7,75c-0.8,0.6-1.6,1.2-2.3,1.8
				c-0.2,0.1-0.4,0.1-0.6,0.1s-0.4-0.1-0.6-0.3c-0.2-0.3-0.2-0.7,0.1-1c0.8-0.7,1.6-1.3,2.4-1.9c0.3-0.2,0.8-0.2,1.1,0.2
				S52,74.7,51.7,75z M56.7,72c-0.8,0.4-1.7,0.8-2.6,1.3c-0.1,0.1-0.2,0.1-0.4,0.1c-0.3,0-0.5-0.1-0.7-0.4c-0.2-0.4-0.1-0.8,0.3-1
				c0.9-0.6,1.9-1,2.8-1.4c0.4-0.2,0.8,0,1,0.4C57.2,71.4,57.1,71.8,56.7,72z M62.3,70.5c-0.8,0.1-1.6,0.3-2.2,0.4
				c-0.2,0-0.4,0.1-0.6,0.1c-0.1,0-0.1,0-0.2,0c-0.3,0-0.7-0.2-0.7-0.6c-0.1-0.4,0.2-0.8,0.5-0.9c0.2-0.1,0.5-0.1,0.7-0.2
				c0.7-0.1,1.4-0.3,2.3-0.4c0.4-0.1,0.8,0.2,0.9,0.6C63,70.1,62.7,70.4,62.3,70.5z M68.2,70.1h-0.4c-0.8,0-1.7,0-2.6,0.1
				c0,0,0,0-0.1,0c-0.4,0-0.7-0.3-0.8-0.7c0-0.4,0.3-0.8,0.7-0.8c0.9-0.1,1.8-0.1,2.7-0.1h0.4c0.4,0,0.8,0.3,0.7,0.8
				C68.9,69.7,68.6,70.1,68.2,70.1z M74.9,70.1c-0.1,0.3-0.4,0.6-0.7,0.6c0,0-0.1,0-0.2,0c-0.9-0.2-1.9-0.4-2.9-0.5
				c-0.4-0.1-0.7-0.4-0.7-0.8c0.1-0.4,0.4-0.7,0.8-0.7c1,0.1,2.1,0.3,3.1,0.5C74.7,69.3,75,69.7,74.9,70.1z"/>
			<path class="st0" d="M88.6,74.3c0.2,0,0.3-0.1,0.5-0.2c0.7-0.6,1.5-1.3,2.3-2c0.3-0.3,0.3-0.8,0.1-1.1s-0.8-0.3-1.1-0.1
				c-0.8,0.7-1.6,1.3-2.3,1.9c-0.3,0.3-0.4,0.7-0.1,1.1C88.2,74.2,88.4,74.3,88.6,74.3z"/>
			<path class="st0" d="M85.8,76.6c0.3-0.2,0.6-0.4,0.9-0.7s0.4-0.7,0.2-1.1s-0.7-0.4-1.1-0.1s-0.8,0.6-1.1,0.8
				C85.1,75.9,85.4,76.3,85.8,76.6z"/>
			<path class="st0" d="M102.3,51c-0.1-0.4-0.5-0.6-0.9-0.5s-0.6,0.5-0.5,0.9c0.2,0.8,0.3,1.7,0.3,2.5v0.2c0,0.4,0.3,0.8,0.7,0.8
				l0,0c0.4,0,0.7-0.3,0.8-0.7v-0.3C102.7,52.9,102.5,52,102.3,51z"/>
			<path class="st0" d="M101.7,56.4c-0.4-0.1-0.8,0.1-0.9,0.5c-0.2,0.9-0.6,1.8-1,2.7c-0.2,0.4,0,0.8,0.3,1c0.1,0.1,0.2,0.1,0.3,0.1
				c0.3,0,0.5-0.2,0.7-0.4c0.5-1,0.8-2,1.1-2.9C102.3,57,102.1,56.5,101.7,56.4z"/>
			<path class="st0" d="M99.3,62c-0.3-0.2-0.8-0.1-1,0.2c-0.5,0.8-1.1,1.6-1.7,2.4c-0.3,0.3-0.2,0.8,0.1,1.1
				c0.1,0.1,0.3,0.2,0.5,0.2s0.4-0.1,0.6-0.3c0.7-0.8,1.3-1.7,1.8-2.5C99.8,62.7,99.7,62.2,99.3,62z"/>
			<path class="st0" d="M94.7,66.8c-0.6,0.7-1.3,1.4-2.1,2.1c-0.3,0.3-0.3,0.8,0,1.1c0.2,0.2,0.3,0.2,0.5,0.2s0.4-0.1,0.5-0.2
				c0.8-0.7,1.5-1.5,2.1-2.2c0.3-0.3,0.3-0.8,0-1.1S94.9,66.5,94.7,66.8z"/>
			<path class="st2" d="M83.1,77.5c0.1,0.2,0.4,0.3,0.6,0.3c0.1,0,0.3,0,0.4-0.1c0,0,0.6-0.4,1.6-1.1c-0.3-0.4-0.7-0.7-1.1-1.1
				c-0.8,0.6-1.3,0.9-1.3,0.9C83,76.7,82.9,77.2,83.1,77.5z"/>
			<path class="st0" d="M162.7,84.8c-0.1,0-0.2,0-0.4-0.1c-0.3-0.2-0.5-0.7-0.3-1c0.5-0.9,1.1-1.7,1.7-2.5c0.3-0.3,0.7-0.4,1-0.1
				s0.4,0.7,0.1,1c-0.6,0.7-1.1,1.5-1.6,2.3C163.2,84.7,162.9,84.8,162.7,84.8z M166.4,80.3c-0.2,0-0.4-0.1-0.6-0.2
				c-0.3-0.3-0.2-0.8,0.1-1c0.8-0.7,1.6-1.3,2.4-1.9c0.3-0.2,0.8-0.1,1,0.2s0.1,0.8-0.2,1c-0.8,0.5-1.6,1.1-2.3,1.7
				C166.7,80.2,166.6,80.3,166.4,80.3z M171.3,77.1c-0.3,0-0.6-0.2-0.7-0.4c-0.2-0.4,0-0.8,0.4-1c0.9-0.4,1.9-0.8,2.8-1.1
				c0.4-0.1,0.8,0.1,0.9,0.5c0.1,0.4-0.1,0.8-0.5,0.9c-0.9,0.3-1.8,0.7-2.7,1C171.5,77,171.4,77.1,171.3,77.1z M176.9,75.2
				c-0.3,0-0.6-0.2-0.7-0.6c-0.1-0.4,0.2-0.8,0.6-0.9c1-0.2,2-0.4,3-0.5c0.4,0,0.8,0.2,0.8,0.7c0.1,0.4-0.2,0.8-0.6,0.8
				c-1,0.1-1.9,0.3-2.9,0.5C177,75.2,177,75.2,176.9,75.2z"/>
			<path class="st0" d="M105.1,52.9c-0.3-0.5-0.7-1.1-1-1.7c-0.2-0.4-0.1-0.8,0.3-1s0.8-0.1,1,0.3c0.3,0.6,0.7,1.1,1,1.6
				c0.2,0.4,0.1,0.8-0.2,1C105.8,53.3,105.3,53.2,105.1,52.9L105.1,52.9z M107,54.3c0.3-0.3,0.8-0.2,1.1,0.1
				c0.6,0.8,1.3,1.5,1.9,2.2c0.3,0.3,0.3,0.8,0,1.1s-0.8,0.3-1.1,0c-0.7-0.7-1.4-1.5-2-2.3l0,0C106.6,55,106.7,54.6,107,54.3z
				 M111.1,58.7c0.3-0.3,0.7-0.4,1.1-0.1c0.8,0.6,1.5,1.2,2.4,1.7c0.3,0.2,0.4,0.7,0.2,1s-0.7,0.4-1,0.2c-0.9-0.6-1.7-1.2-2.5-1.8
				c-0.1,0-0.1-0.1-0.1-0.2C110.8,59.4,110.8,59,111.1,58.7z M116,62.1c0.2-0.4,0.6-0.5,1-0.4c0.9,0.4,1.8,0.8,2.7,1.1
				c0.4,0.1,0.6,0.6,0.5,0.9c-0.1,0.4-0.6,0.6-0.9,0.5c-1-0.3-1.9-0.7-2.9-1.2c-0.1-0.1-0.2-0.2-0.3-0.2
				C115.9,62.7,115.9,62.4,116,62.1z M121.6,64.2c0.1-0.4,0.5-0.7,0.9-0.6c0.9,0.2,1.9,0.3,2.9,0.4c0.4,0,0.7,0.4,0.7,0.8
				s-0.4,0.7-0.8,0.7c-1-0.1-2.1-0.2-3.1-0.5c-0.2,0-0.4-0.2-0.5-0.3C121.6,64.7,121.6,64.4,121.6,64.2z M127.6,65
				c0-0.4,0.3-0.8,0.8-0.8c1,0,1.9-0.1,2.9-0.2c0.4,0,0.8,0.3,0.8,0.7c0,0.4-0.3,0.8-0.7,0.8c-1,0.1-2.1,0.2-3.1,0.2
				c-0.3,0-0.5-0.1-0.6-0.3C127.6,65.3,127.6,65.1,127.6,65z M133.6,64.5c-0.1-0.4,0.2-0.8,0.6-0.9c1-0.2,1.9-0.4,2.9-0.7
				c0.4-0.1,0.8,0.1,0.9,0.5c0.1,0.4-0.1,0.8-0.5,0.9c-1,0.3-2,0.5-3,0.7c-0.3,0.1-0.6-0.1-0.8-0.3
				C133.7,64.7,133.6,64.6,133.6,64.5z M139.4,63c-0.1-0.4,0.1-0.8,0.5-1c1.7-0.6,2.7-1.1,2.7-1.1c0.4-0.2,0.8,0,1,0.3
				c0.2,0.4,0,0.8-0.3,1c0,0-1.1,0.6-2.9,1.2c-0.3,0.1-0.7,0-0.9-0.3C139.5,63.2,139.5,63.1,139.4,63z"/>
			<path class="st0" d="M190.5,86.9c-0.3,0-0.6-0.2-0.7-0.6c-0.1-0.4,0.1-0.8,0.5-0.9c0,0,1.1-0.3,2.9-0.9c0.4-0.1,0.8,0.1,1,0.5
				c0.1,0.4-0.1,0.8-0.5,0.9c-1.8,0.6-2.9,0.9-2.9,0.9C190.6,86.9,190.5,86.9,190.5,86.9z M196.2,85c-0.3,0-0.6-0.2-0.7-0.5
				c-0.1-0.4,0.1-0.8,0.5-1c0.9-0.3,1.8-0.7,2.8-1c0.4-0.2,0.8,0,1,0.4c0.1,0.4,0,0.8-0.4,1c-1,0.4-2,0.8-2.9,1.1
				C196.4,85,196.3,85,196.2,85z M201.9,82.8c-0.3,0-0.6-0.2-0.7-0.5c-0.2-0.4,0-0.8,0.4-1c0.9-0.4,1.8-0.8,2.7-1.2
				c0.4-0.2,0.8,0,1,0.4s0,0.8-0.4,1c-0.9,0.4-1.9,0.9-2.8,1.2C202.1,82.8,202,82.8,201.9,82.8z M207.3,80.3c-0.3,0-0.5-0.1-0.7-0.4
				c-0.2-0.4,0-0.8,0.3-1c0.9-0.4,1.8-0.9,2.6-1.4c0.4-0.2,0.8-0.1,1,0.3s0.1,0.8-0.3,1c-0.9,0.5-1.8,1-2.7,1.4
				C207.6,80.3,207.4,80.3,207.3,80.3z M212.6,77.4c-0.3,0-0.5-0.1-0.6-0.4c-0.2-0.4-0.1-0.8,0.3-1c0.8-0.5,1.7-1,2.5-1.6
				c0.4-0.2,0.8-0.1,1,0.2c0.2,0.3,0.1,0.8-0.2,1c-0.9,0.6-1.7,1.1-2.6,1.6C212.9,77.4,212.8,77.4,212.6,77.4z M217.6,74.1
				c-0.2,0-0.5-0.1-0.6-0.3c-0.2-0.3-0.2-0.8,0.2-1.1c0.8-0.6,1.6-1.2,2.4-1.8c0.3-0.3,0.8-0.2,1.1,0.1c0.3,0.3,0.2,0.8-0.1,1.1
				c-0.8,0.6-1.6,1.2-2.4,1.9C218,74,217.8,74.1,217.6,74.1z M222.3,70.3c-0.2,0-0.4-0.1-0.6-0.2c-0.3-0.3-0.3-0.8,0.1-1.1
				c0.7-0.7,1.5-1.4,2.1-2.1c0.3-0.3,0.8-0.3,1.1,0s0.3,0.8,0,1.1c-0.7,0.7-1.4,1.4-2.2,2.1C222.7,70.2,222.5,70.3,222.3,70.3z
				 M226.5,65.9c-0.2,0-0.3-0.1-0.5-0.2c-0.3-0.3-0.4-0.7-0.1-1.1c0.6-0.8,1.2-1.6,1.8-2.3c0.2-0.3,0.7-0.4,1.1-0.2
				c0.3,0.2,0.4,0.7,0.2,1.1c-0.6,0.8-1.2,1.6-1.9,2.4C226.9,65.8,226.7,65.9,226.5,65.9z M229.9,61c-0.1,0-0.2,0-0.4-0.1
				c-0.4-0.2-0.5-0.7-0.3-1c0.5-0.9,0.9-1.7,1.3-2.6c0.2-0.4,0.6-0.6,1-0.4c0.4,0.2,0.6,0.6,0.4,1c-0.4,0.9-0.9,1.8-1.4,2.8
				C230.4,60.8,230.2,61,229.9,61z M232.4,55.5c-0.1,0-0.2,0-0.2,0c-0.4-0.1-0.6-0.6-0.5-1c0.3-0.9,0.6-1.9,0.8-2.8
				c0.1-0.4,0.5-0.7,0.9-0.6c0.4,0.1,0.7,0.5,0.6,0.9c-0.2,1-0.5,2-0.8,3C233,55.3,232.7,55.5,232.4,55.5z M233.6,49.6
				C233.5,49.6,233.5,49.6,233.6,49.6c-0.5,0-0.8-0.4-0.8-0.8l0,0c0-0.4,0.4-0.7,0.8-0.7c0.4,0,0.7,0.4,0.7,0.8
				C234.3,49.3,234,49.6,233.6,49.6z"/>
			<path class="st0" d="M60.7,71.7c1.6,0,2.8-0.7,2.8-1.6s-1.3-1.6-2.8-1.6c-1.6,0-2.8,0.7-2.8,1.6C57.9,71,59.2,71.7,60.7,71.7z"/>
			<path class="st9" d="M101.6,30.6c0.6-0.3,0.8-1.1,0.5-1.8c-0.3-0.6-1.1-0.8-1.8-0.5c-0.6,0.3-0.8,1.1-0.5,1.8
				c0.1,0.2,0.3,0.4,0.5,0.5"/>
			<path class="st8" d="M101.1,31.8v8.1c4.8-2.4,7.8,2.4,12.6,0v-8.1C108.9,34.2,106,29.5,101.1,31.8z"/>
			<path class="st9" d="M101.1,49.3h-0.2c-0.3,0-0.6-0.2-0.6-0.6V30c0-0.3,0.2-0.5,0.6-0.5h0.2c0.3,0,0.6,0.2,0.6,0.5v18.7
				C101.7,49,101.4,49.3,101.1,49.3z"/>
			<path class="st9" d="M185.6,55.7c0.6-0.3,0.8-1.1,0.5-1.8s-1.1-0.8-1.8-0.5c-0.6,0.4-0.8,1.1-0.5,1.8c0.1,0.2,0.3,0.4,0.5,0.5"/>
			<path class="st8" d="M185.1,57v8.1c4.8-2.4,7.8,2.4,12.6,0V57C192.9,59.4,190,54.6,185.1,57z"/>
			<path class="st9" d="M185.1,74.4h-0.2c-0.3,0-0.5-0.2-0.5-0.5V55.2c0-0.3,0.2-0.6,0.5-0.6h0.2c0.3,0,0.6,0.2,0.6,0.6v18.7
				C185.7,74.2,185.4,74.4,185.1,74.4z"/>
			<path class="st9" d="M234.6,30.7c0.6-0.4,0.8-1.1,0.5-1.8c-0.3-0.6-1.1-0.8-1.7-0.5c-0.6,0.3-0.8,1.1-0.5,1.8
				c0.1,0.2,0.3,0.4,0.5,0.5"/>
			<path class="st8" d="M234.1,31.9V40c4.8-2.4,7.8,2.4,12.6,0v-8.1C241.9,34.3,239,29.5,234.1,31.9z"/>
			<path class="st9" d="M234.1,49.3h-0.2c-0.3,0-0.6-0.2-0.6-0.6V30.1c0-0.3,0.2-0.6,0.6-0.6h0.2c0.3,0,0.5,0.2,0.5,0.6v18.6
				C234.6,49.1,234.4,49.3,234.1,49.3z"/>
			<path class="st9" d="M61.5,51.4c0.6-0.3,0.8-1.1,0.5-1.8s-1.1-0.8-1.8-0.5c-0.6,0.3-0.8,1.1-0.5,1.8c0.1,0.2,0.3,0.4,0.5,0.5"/>
			<path class="st8" d="M61,52.7v8.1c4.8-2.4,7.8,2.4,12.6,0v-8.1C68.8,55.1,65.8,50.3,61,52.7z"/>
			<path class="st9" d="M60.9,70.1h-0.2c-0.3,0-0.5-0.2-0.5-0.6V50.9c0-0.3,0.2-0.6,0.5-0.6h0.2c0.3,0,0.6,0.2,0.6,0.6v18.6
				C61.5,69.9,61.2,70.1,60.9,70.1z"/>
		</g>
	</g>
</g>
</svg>
