<?xml version="1.0" encoding="utf-8"?>
<!-- Generator: Adobe Illustrator 25.1.0, SVG Export Plug-In . SVG Version: 6.00 Build 0)  -->
<svg version="1.1" id="Layer_1" xmlns="http://www.w3.org/2000/svg" xmlns:xlink="http://www.w3.org/1999/xlink" x="0px" y="0px"
	 viewBox="0 0 336.4 273.5" style="enable-background:new 0 0 336.4 273.5;" xml:space="preserve">
<style type="text/css">
	.st0{fill:#FFFFFF;}
	.st1{fill:#808080;}
	.st2{fill:#D64204;}
	.st3{fill:none;stroke:#F0A282;stroke-width:3.9913;stroke-miterlimit:10;}
	.st4{fill:#E14504;}
	.st5{fill:#F4F1EF;}
	.st6{fill:#BFBFBF;}
</style>
<g>
	<g>
		<path class="st0" d="M336.4,209.8c0-150.8,0.6-185-30.6-202.2c-26.1-14.4-178-4.1-212.4-3.4C59.7,4.8,12.9,2.7,7.8,17.1
			c-8,22.4-7.1,74.1-7.1,115.1c0,64.6-7.4,127.9,27.3,136.1c35.2,8.3,163.9,4.4,206.4,3.4C278.2,270.6,336.4,275.6,336.4,209.8z"/>
		<path class="st1" d="M23,104V92.8h1.3V104H23z"/>
		<path class="st1" d="M27,104v-6.8h-1.2V96H27v-1.4c0-0.8,0.2-1.3,0.6-1.7c0.4-0.3,0.9-0.5,1.7-0.5h0.8v1.2h-0.6
			c-0.4,0-0.7,0.1-0.9,0.2c-0.2,0.2-0.3,0.4-0.3,0.8V96h2v1.1h-2v6.8L27,104L27,104z"/>
		<path class="st1" d="M37,107.5l2-4.3h-0.5L35.4,96h1.5l2.6,6.2l2.8-6.2h1.4l-5.2,11.5H37z"/>
		<path class="st1" d="M47.9,104.1c-0.8,0-1.4-0.2-2-0.5s-1.1-0.8-1.4-1.5c-0.3-0.6-0.5-1.4-0.5-2.2c0-0.8,0.2-1.6,0.5-2.2
			s0.8-1.1,1.4-1.4s1.3-0.5,2-0.5s1.4,0.2,2,0.5s1.1,0.8,1.4,1.4c0.3,0.6,0.5,1.4,0.5,2.2c0,0.8-0.2,1.6-0.5,2.2s-0.8,1.1-1.4,1.5
			S48.7,104.1,47.9,104.1z M47.9,103c0.5,0,0.9-0.1,1.3-0.3c0.4-0.2,0.7-0.6,1-1s0.4-1,0.4-1.7s-0.1-1.2-0.4-1.7
			c-0.2-0.5-0.6-0.8-0.9-1C48.8,97.1,48.4,97,48,97c-0.5,0-0.9,0.1-1.3,0.3c-0.4,0.2-0.7,0.6-1,1c-0.2,0.4-0.4,1-0.4,1.7
			s0.1,1.2,0.4,1.7c0.2,0.4,0.6,0.8,0.9,1C47.1,102.9,47.5,103,47.9,103z"/>
		<path class="st1" d="M56.7,104.1c-0.9,0-1.7-0.3-2.2-0.9c-0.6-0.6-0.8-1.4-0.8-2.6V96H55v4.5c0,1.7,0.7,2.5,2,2.5
			c0.7,0,1.3-0.2,1.7-0.7c0.5-0.5,0.7-1.2,0.7-2.1V96h1.3v7.9h-1.2l-0.1-1.4c-0.2,0.5-0.6,0.9-1.1,1.2
			C57.8,104,57.3,104.1,56.7,104.1z"/>
		<path class="st1" d="M67.2,104V92.4h1.3v4.9c0.3-0.5,0.6-0.9,1.1-1.1c0.5-0.3,1-0.4,1.6-0.4c0.9,0,1.7,0.3,2.2,0.9
			c0.6,0.6,0.8,1.5,0.8,2.6v4.6H73v-4.5c0-1.6-0.7-2.5-2-2.5c-0.7,0-1.3,0.2-1.7,0.7c-0.5,0.5-0.7,1.2-0.7,2.1v4.1L67.2,104
			L67.2,104z"/>
		<path class="st1" d="M79,104.1c-0.7,0-1.2-0.1-1.7-0.3c-0.4-0.2-0.8-0.5-1-0.9s-0.3-0.8-0.3-1.2c0-0.8,0.3-1.4,0.9-1.9
			c0.6-0.4,1.5-0.7,2.5-0.7h2.1V99c0-0.7-0.2-1.2-0.5-1.6s-0.8-0.5-1.5-0.5c-0.5,0-1,0.1-1.4,0.4s-0.6,0.6-0.7,1.1H76
			c0.1-0.6,0.2-1.1,0.6-1.5c0.3-0.4,0.8-0.7,1.3-0.9c0.5-0.2,1-0.3,1.6-0.3c1.1,0,1.9,0.3,2.5,0.9s0.8,1.4,0.8,2.4v4.9h-1.2
			l-0.1-1.4c-0.2,0.4-0.6,0.8-1,1.1C80.3,104,79.7,104.1,79,104.1z M79.2,103c0.5,0,0.9-0.1,1.3-0.4s0.7-0.6,0.8-1
			c0.2-0.4,0.3-0.9,0.3-1.3l0,0h-2c-0.8,0-1.3,0.1-1.7,0.4c-0.3,0.3-0.5,0.6-0.5,1s0.1,0.8,0.5,1C78.2,102.9,78.6,103,79.2,103z"/>
		<path class="st1" d="M87,104l-3-8h1.4l2.4,6.6l2.4-6.6h1.4l-3,7.9L87,104L87,104z"/>
		<path class="st1" d="M96.2,104.1c-0.8,0-1.4-0.2-2-0.5s-1-0.8-1.4-1.4c-0.3-0.6-0.5-1.3-0.5-2.2c0-0.8,0.2-1.6,0.5-2.2
			s0.8-1.1,1.4-1.5c0.6-0.3,1.3-0.5,2.1-0.5c0.8,0,1.4,0.2,2,0.5c0.6,0.4,1,0.8,1.3,1.4s0.4,1.2,0.4,1.8c0,0.1,0,0.2,0,0.4
			c0,0.1,0,0.2,0,0.4h-6.3c0,0.6,0.2,1.1,0.4,1.5c0.2,0.4,0.6,0.7,0.9,0.9c0.4,0.2,0.8,0.3,1.2,0.3c0.5,0,1-0.1,1.4-0.4
			s0.7-0.6,0.8-1h1.3c-0.2,0.7-0.6,1.3-1.2,1.8C97.9,103.9,97.1,104.1,96.2,104.1z M96.2,97c-0.6,0-1.2,0.2-1.7,0.6s-0.8,1-0.9,1.7
			h5c0-0.7-0.3-1.3-0.7-1.7C97.4,97.2,96.9,97,96.2,97z"/>
		<path class="st1" d="M108.6,104.1c-0.7,0-1.2-0.1-1.7-0.3c-0.4-0.2-0.8-0.5-1-0.9s-0.3-0.8-0.3-1.2c0-0.8,0.3-1.4,0.9-1.9
			c0.6-0.4,1.5-0.7,2.5-0.7h2.1V99c0-0.7-0.2-1.2-0.5-1.6s-0.9-0.5-1.5-0.5c-0.5,0-1,0.1-1.3,0.4c-0.4,0.3-0.6,0.6-0.7,1.1h-1.4
			c0.1-0.6,0.2-1.1,0.6-1.5c0.3-0.4,0.8-0.7,1.3-0.9c0.5-0.2,1-0.3,1.6-0.3c1.1,0,1.9,0.3,2.5,0.9s0.8,1.4,0.8,2.4v4.9h-1.2
			l-0.1-1.4c-0.2,0.4-0.6,0.8-1,1.1C109.9,104,109.3,104.1,108.6,104.1z M108.8,103c0.5,0,0.9-0.1,1.3-0.4s0.6-0.6,0.8-1
			c0.2-0.4,0.3-0.9,0.3-1.3l0,0h-2c-0.8,0-1.3,0.1-1.7,0.4c-0.3,0.3-0.5,0.6-0.5,1s0.2,0.8,0.5,1C107.8,102.9,108.3,103,108.8,103z"
			/>
		<path class="st1" d="M114.6,104v-8h1.2l0.1,1.4c0.3-0.5,0.6-0.9,1.1-1.2c0.5-0.3,1-0.4,1.6-0.4c0.9,0,1.7,0.3,2.2,0.9
			c0.6,0.6,0.8,1.5,0.8,2.6v4.6h-1.3v-4.5c0-1.6-0.7-2.5-2-2.5c-0.7,0-1.2,0.2-1.7,0.7c-0.4,0.5-0.7,1.2-0.7,2.1v4.1L114.6,104
			L114.6,104z"/>
		<path class="st1" d="M128.8,94.3c-0.3,0-0.5-0.1-0.7-0.3c-0.2-0.2-0.3-0.4-0.3-0.7s0.1-0.5,0.3-0.6c0.2-0.2,0.4-0.3,0.7-0.3
			s0.5,0.1,0.7,0.3c0.2,0.2,0.3,0.4,0.3,0.6c0,0.3-0.1,0.5-0.3,0.7S129.1,94.3,128.8,94.3z M128.2,104v-8h1.3v7.9L128.2,104
			L128.2,104z"/>
		<path class="st1" d="M131.8,104V92.4h1.3V104H131.8z"/>
		<path class="st1" d="M135.4,104V92.4h1.3V104H135.4z"/>
		<path class="st1" d="M138.9,104v-8h1.2l0.1,1.4c0.3-0.5,0.6-0.9,1.1-1.2c0.5-0.3,1-0.4,1.6-0.4c0.9,0,1.7,0.3,2.2,0.9
			c0.6,0.6,0.8,1.5,0.8,2.6v4.6h-1.3v-4.5c0-1.6-0.7-2.5-2.1-2.5c-0.7,0-1.2,0.2-1.7,0.7c-0.4,0.5-0.7,1.2-0.7,2.1v4.1L138.9,104
			L138.9,104z"/>
		<path class="st1" d="M151.7,104.1c-0.8,0-1.4-0.2-2-0.5s-1.1-0.8-1.4-1.4c-0.3-0.6-0.5-1.3-0.5-2.2c0-0.8,0.2-1.6,0.5-2.2
			s0.8-1.1,1.4-1.5c0.6-0.3,1.3-0.5,2.1-0.5s1.4,0.2,2,0.5c0.6,0.4,1,0.8,1.3,1.4s0.4,1.2,0.4,1.8c0,0.1,0,0.2,0,0.4
			c0,0.1,0,0.2,0,0.4h-6.3c0,0.6,0.2,1.1,0.4,1.5s0.6,0.7,0.9,0.9c0.4,0.2,0.8,0.3,1.2,0.3c0.6,0,1-0.1,1.4-0.4s0.6-0.6,0.8-1h1.3
			c-0.2,0.7-0.6,1.3-1.2,1.8C153.4,103.9,152.6,104.1,151.7,104.1z M151.7,97c-0.6,0-1.2,0.2-1.7,0.6s-0.8,1-0.9,1.7h5
			c0-0.7-0.3-1.3-0.7-1.7C152.9,97.2,152.3,97,151.7,97z"/>
		<path class="st1" d="M160.2,104.1c-0.9,0-1.7-0.2-2.4-0.7s-1-1.1-1.1-1.9h1.4c0.1,0.4,0.3,0.8,0.7,1.1c0.3,0.3,0.8,0.5,1.4,0.5
			c0.6,0,1-0.1,1.2-0.4c0.3-0.2,0.4-0.5,0.4-0.9c0-0.5-0.2-0.8-0.5-1c-0.4-0.2-0.8-0.3-1.5-0.4c-0.4-0.1-0.8-0.2-1.3-0.4
			c-0.4-0.2-0.8-0.4-1.1-0.7c-0.3-0.3-0.4-0.7-0.4-1.2c0-0.7,0.3-1.3,0.8-1.7c0.5-0.4,1.2-0.7,2.1-0.7c0.8,0,1.5,0.2,2.1,0.6
			c0.5,0.4,0.9,1,0.9,1.8h-1.3c-0.1-0.4-0.2-0.7-0.5-0.9c-0.3-0.2-0.7-0.3-1.2-0.3s-0.9,0.1-1.1,0.3s-0.4,0.5-0.4,0.8
			s0.2,0.6,0.5,0.8c0.3,0.2,0.8,0.3,1.4,0.5c0.5,0.1,1,0.2,1.4,0.4c0.4,0.2,0.8,0.4,1.1,0.7c0.3,0.3,0.4,0.7,0.4,1.3
			c0,0.7-0.3,1.3-0.8,1.8C161.9,103.9,161.2,104.1,160.2,104.1z"/>
		<path class="st1" d="M168.2,104.1c-0.9,0-1.7-0.2-2.4-0.7s-1-1.1-1.1-1.9h1.4c0.1,0.4,0.3,0.8,0.7,1.1c0.3,0.3,0.8,0.5,1.4,0.5
			c0.6,0,1-0.1,1.2-0.4c0.3-0.2,0.4-0.5,0.4-0.9c0-0.5-0.2-0.8-0.5-1c-0.4-0.2-0.8-0.3-1.5-0.4c-0.4-0.1-0.8-0.2-1.3-0.4
			c-0.4-0.2-0.8-0.4-1.1-0.7c-0.3-0.3-0.4-0.7-0.4-1.2c0-0.7,0.3-1.3,0.8-1.7c0.5-0.4,1.2-0.7,2.1-0.7c0.8,0,1.5,0.2,2.1,0.6
			c0.5,0.4,0.9,1,0.9,1.8h-1.3c-0.1-0.4-0.2-0.7-0.5-0.9c-0.3-0.2-0.7-0.3-1.2-0.3s-0.9,0.1-1.1,0.3s-0.4,0.5-0.4,0.8
			s0.2,0.6,0.5,0.8c0.3,0.2,0.8,0.3,1.4,0.5c0.5,0.1,1,0.2,1.4,0.4c0.4,0.2,0.8,0.4,1.1,0.7c0.3,0.3,0.4,0.7,0.4,1.3
			c0,0.7-0.3,1.3-0.8,1.8C169.9,103.9,169.2,104.1,168.2,104.1z"/>
		<path class="st1" d="M26.5,126.1c-0.8,0-1.4-0.2-2-0.5s-1.1-0.8-1.4-1.5c-0.3-0.6-0.5-1.4-0.5-2.2c0-0.8,0.2-1.6,0.5-2.2
			s0.8-1.1,1.4-1.4s1.3-0.5,2-0.5s1.4,0.2,2,0.5s1.1,0.8,1.4,1.4s0.5,1.4,0.5,2.2c0,0.8-0.2,1.6-0.5,2.2s-0.8,1.1-1.4,1.5
			S27.3,126.1,26.5,126.1z M26.5,125c0.5,0,0.9-0.1,1.3-0.3c0.4-0.2,0.7-0.6,1-1s0.4-1,0.4-1.7s-0.1-1.2-0.4-1.7
			c-0.2-0.5-0.6-0.8-0.9-1c-0.4-0.2-0.8-0.3-1.3-0.3s-0.9,0.1-1.3,0.3c-0.4,0.2-0.7,0.6-1,1c-0.2,0.4-0.4,1-0.4,1.7s0.1,1.2,0.4,1.7
			c0.2,0.4,0.6,0.8,0.9,1C25.6,124.9,26.1,125,26.5,125z"/>
		<path class="st1" d="M32.4,126v-8h1.2l0.1,1.5c0.2-0.5,0.6-0.9,1.1-1.2s1.1-0.5,1.9-0.5v1.4h-0.4c-0.5,0-0.9,0.1-1.3,0.2
			c-0.4,0.2-0.7,0.4-0.9,0.8s-0.4,0.9-0.4,1.6v4h-1.3V126z"/>
		<path class="st1" d="M43.2,116.3c-0.3,0-0.5-0.1-0.7-0.3c-0.2-0.2-0.3-0.4-0.3-0.7s0.1-0.5,0.3-0.6c0.2-0.2,0.4-0.3,0.7-0.3
			s0.5,0.1,0.7,0.3c0.2,0.2,0.3,0.4,0.3,0.6c0,0.3-0.1,0.5-0.3,0.7S43.5,116.3,43.2,116.3z M42.6,126v-8h1.3v7.9L42.6,126L42.6,126z
			"/>
		<path class="st1" d="M46.2,126v-8h1.2l0.1,1.4c0.3-0.5,0.6-0.9,1.1-1.2c0.5-0.3,1-0.4,1.6-0.4c0.9,0,1.7,0.3,2.2,0.9
			c0.6,0.6,0.8,1.5,0.8,2.6v4.6H52v-4.5c0-1.6-0.7-2.5-2-2.5c-0.7,0-1.2,0.2-1.7,0.7c-0.4,0.5-0.7,1.2-0.7,2.1v4.1L46.2,126
			L46.2,126z"/>
		<path class="st1" d="M53.8,129.5v-1.1h0.6c0.4,0,0.7-0.1,0.9-0.2c0.2-0.2,0.3-0.5,0.3-0.8V118h1.3v9.2c0,0.8-0.2,1.3-0.6,1.7
			c-0.4,0.3-0.9,0.5-1.7,0.5h-0.8V129.5z M56.3,116.3c-0.3,0-0.5-0.1-0.7-0.3c-0.2-0.2-0.3-0.4-0.3-0.7s0.1-0.5,0.3-0.6
			s0.4-0.3,0.7-0.3s0.5,0.1,0.6,0.3s0.3,0.4,0.3,0.6c0,0.3-0.1,0.5-0.3,0.7C56.7,116.2,56.5,116.3,56.3,116.3z"/>
		<path class="st1" d="M62.2,126.1c-0.9,0-1.7-0.3-2.2-0.9s-0.8-1.4-0.8-2.6V118h1.3v4.5c0,1.7,0.7,2.5,2,2.5c0.7,0,1.3-0.2,1.7-0.7
			s0.7-1.2,0.7-2.1V118h1.3v7.9H65l-0.1-1.4c-0.2,0.5-0.6,0.9-1.1,1.2C63.3,126,62.8,126.1,62.2,126.1z"/>
		<path class="st1" d="M68.4,126v-8h1.2l0.1,1.5c0.2-0.5,0.6-0.9,1.1-1.2s1.1-0.5,1.9-0.5v1.4h-0.4c-0.5,0-0.9,0.1-1.3,0.2
			c-0.4,0.2-0.7,0.4-0.9,0.8c-0.2,0.4-0.3,0.9-0.3,1.6v4h-1.4V126z"/>
		<path class="st1" d="M75.1,129.5l2-4.3h-0.5l-3.2-7.2h1.5l2.6,6.2l2.8-6.2h1.4l-5.2,11.5H75.1z"/>
		<path class="st1" d="M81.1,127.9l0.9-3.5h1.4l-1.4,3.5H81.1z"/>
		<path class="st1" d="M92.8,126.1c-0.8,0-1.4-0.2-2-0.5s-1.1-0.8-1.4-1.5c-0.3-0.6-0.5-1.4-0.5-2.2c0-0.8,0.2-1.6,0.5-2.2
			s0.8-1.1,1.4-1.4s1.3-0.5,2-0.5c0.8,0,1.4,0.2,2,0.5s1.1,0.8,1.4,1.4s0.5,1.4,0.5,2.2c0,0.8-0.2,1.6-0.5,2.2s-0.8,1.1-1.4,1.5
			C94.3,126,93.6,126.1,92.8,126.1z M92.8,125c0.5,0,0.9-0.1,1.3-0.3c0.4-0.2,0.7-0.6,1-1s0.4-1,0.4-1.7s-0.1-1.2-0.4-1.7
			c-0.2-0.4-0.6-0.8-0.9-1s-0.8-0.3-1.3-0.3s-0.9,0.1-1.3,0.3s-0.7,0.6-1,1c-0.2,0.4-0.4,1-0.4,1.7s0.1,1.2,0.4,1.7s0.6,0.8,0.9,1
			C92,124.9,92.4,125,92.8,125z"/>
		<path class="st1" d="M98.7,126v-8h1.2l0.1,1.5c0.2-0.5,0.6-0.9,1.1-1.2s1.1-0.5,1.9-0.5v1.4h-0.4c-0.5,0-0.9,0.1-1.3,0.2
			c-0.4,0.2-0.7,0.4-0.9,0.8c-0.2,0.4-0.3,0.9-0.3,1.6v4h-1.4V126z"/>
		<path class="st1" d="M112.4,126.1c-0.8,0-1.4-0.2-2-0.5s-1.1-0.8-1.4-1.5c-0.3-0.6-0.5-1.4-0.5-2.2s0.2-1.6,0.5-2.2
			s0.8-1.1,1.4-1.5c0.6-0.3,1.3-0.5,2-0.5c0.9,0,1.7,0.2,2.4,0.7c0.6,0.5,1.1,1.2,1.2,2h-1.4c-0.1-0.5-0.4-0.9-0.8-1.1
			s-0.9-0.4-1.5-0.4c-0.5,0-0.9,0.1-1.3,0.3c-0.4,0.2-0.7,0.6-1,1s-0.4,1-0.4,1.7s0.1,1.2,0.4,1.7c0.2,0.5,0.6,0.8,1,1
			s0.8,0.3,1.3,0.3s1-0.1,1.5-0.4c0.4-0.3,0.7-0.7,0.8-1.2h1.4c-0.2,0.8-0.6,1.4-1.2,1.9S113.3,126.1,112.4,126.1z"/>
		<path class="st1" d="M120.8,126.1c-0.9,0-1.7-0.3-2.2-0.9c-0.6-0.6-0.8-1.4-0.8-2.6V118h1.3v4.5c0,1.7,0.7,2.5,2,2.5
			c0.7,0,1.3-0.2,1.7-0.7c0.4-0.5,0.7-1.2,0.7-2.1V118h1.3v7.9h-1.2l-0.1-1.4c-0.2,0.5-0.6,0.9-1.1,1.2
			C121.9,126,121.4,126.1,120.8,126.1z"/>
		<path class="st1" d="M127,126v-8h1.2l0.1,1.5c0.2-0.5,0.6-0.9,1.1-1.2s1.1-0.5,1.9-0.5v1.4H131c-0.5,0-0.9,0.1-1.3,0.2
			c-0.4,0.2-0.7,0.4-0.9,0.8s-0.4,0.9-0.4,1.6v4H127V126z"/>
		<path class="st1" d="M132.8,126v-8h1.2l0.1,1.5c0.2-0.5,0.6-0.9,1.1-1.2s1.1-0.5,1.9-0.5v1.4h-0.4c-0.5,0-0.9,0.1-1.3,0.2
			c-0.4,0.2-0.7,0.4-0.9,0.8s-0.4,0.9-0.4,1.6v4h-1.3V126z"/>
		<path class="st1" d="M141.9,126.1c-0.8,0-1.4-0.2-2-0.5s-1.1-0.8-1.4-1.4c-0.3-0.6-0.5-1.3-0.5-2.2c0-0.8,0.2-1.6,0.5-2.2
			s0.8-1.1,1.4-1.5c0.6-0.3,1.3-0.5,2.1-0.5s1.4,0.2,2,0.5c0.6,0.4,1,0.8,1.3,1.4s0.4,1.2,0.4,1.8c0,0.1,0,0.2,0,0.4
			c0,0.1,0,0.2,0,0.4h-6.3c0,0.6,0.2,1.1,0.4,1.5s0.6,0.7,0.9,0.9c0.4,0.2,0.8,0.3,1.2,0.3c0.6,0,1-0.1,1.4-0.4s0.7-0.6,0.8-1h1.3
			c-0.2,0.7-0.6,1.3-1.2,1.8C143.6,125.9,142.8,126.1,141.9,126.1z M141.9,119c-0.6,0-1.2,0.2-1.7,0.6s-0.8,1-0.9,1.7h5
			c0-0.7-0.3-1.3-0.7-1.7C143.1,119.2,142.6,119,141.9,119z"/>
		<path class="st1" d="M147.4,126v-8h1.2l0.1,1.4c0.3-0.5,0.6-0.9,1.1-1.2c0.5-0.3,1-0.4,1.6-0.4c0.9,0,1.7,0.3,2.2,0.9
			c0.6,0.6,0.8,1.5,0.8,2.6v4.6h-1.3v-4.5c0-1.6-0.7-2.5-2.1-2.5c-0.7,0-1.2,0.2-1.7,0.7c-0.4,0.5-0.7,1.2-0.7,2.1v4.1L147.4,126
			L147.4,126z"/>
		<path class="st1" d="M159.7,126c-0.7,0-1.3-0.2-1.7-0.5s-0.6-1-0.6-1.9v-4.4H156V118h1.4l0.2-1.9h1.2v1.9h2.3v1.1h-2.3v4.4
			c0,0.5,0.1,0.8,0.3,1s0.6,0.3,1.1,0.3h0.8v1.1L159.7,126L159.7,126z"/>
		<path class="st1" d="M162.8,126v-11.5h1.3V126H162.8z"/>
		<path class="st1" d="M167.2,129.5l2-4.3h-0.5l-3.1-7.2h1.4l2.6,6.2l2.8-6.2h1.4l-5.2,11.5H167.2z"/>
		<path class="st1" d="M26.5,148.1c-0.8,0-1.5-0.2-2.1-0.5c-0.6-0.4-1-0.9-1.4-1.5c-0.3-0.6-0.5-1.3-0.5-2.1s0.2-1.5,0.5-2.1
			s0.8-1.1,1.4-1.5s1.3-0.5,2.1-0.5c0.7,0,1.2,0.1,1.7,0.4s0.9,0.6,1.2,1.1v-4.9h1.3V148h-1.2l-0.1-1.3c-0.3,0.4-0.6,0.7-1.1,1
			S27.2,148.1,26.5,148.1z M26.6,147c0.5,0,1-0.1,1.4-0.4c0.4-0.2,0.7-0.6,1-1c0.2-0.5,0.3-1,0.3-1.6s-0.1-1.1-0.3-1.6
			c-0.2-0.4-0.6-0.8-1-1s-0.9-0.4-1.4-0.4s-1,0.1-1.4,0.4s-0.7,0.6-1,1c-0.2,0.5-0.3,1-0.3,1.6s0.1,1.1,0.3,1.6c0.2,0.4,0.5,0.8,1,1
			C25.6,146.9,26.1,147,26.6,147z"/>
		<path class="st1" d="M36.6,148.1c-0.8,0-1.4-0.2-2-0.5s-1.1-0.8-1.4-1.5c-0.3-0.6-0.5-1.4-0.5-2.2s0.2-1.6,0.5-2.2
			s0.8-1.1,1.4-1.5c0.6-0.3,1.3-0.5,2-0.5s1.4,0.2,2,0.5s1.1,0.8,1.4,1.5c0.3,0.6,0.5,1.4,0.5,2.2s-0.2,1.6-0.5,2.2
			c-0.4,0.6-0.8,1.1-1.4,1.5C38,148,37.3,148.1,36.6,148.1z M36.6,147c0.5,0,0.9-0.1,1.3-0.3c0.4-0.2,0.7-0.6,1-1
			c0.2-0.5,0.4-1,0.4-1.7s-0.1-1.2-0.4-1.7c-0.2-0.5-0.6-0.8-1-1S37,141,36.6,141c-0.5,0-0.9,0.1-1.3,0.3c-0.4,0.2-0.7,0.6-1,1
			c-0.2,0.4-0.4,1-0.4,1.7s0.1,1.2,0.4,1.7c0.2,0.4,0.6,0.8,1,1S36.1,147,36.6,147z"/>
		<path class="st1" d="M42.4,148v-8h1.2l0.1,1.4c0.3-0.5,0.6-0.9,1.1-1.2s1-0.4,1.6-0.4c0.9,0,1.7,0.3,2.2,0.9s0.8,1.5,0.8,2.6v4.6
			h-1.3v-4.5c0-1.7-0.7-2.5-2.1-2.5c-0.7,0-1.2,0.2-1.7,0.7s-0.7,1.2-0.7,2.1v4.1L42.4,148L42.4,148z"/>
		<path class="st1" d="M51,140.3l0.9-3.6h1.5l-1.5,3.6H51z"/>
		<path class="st1" d="M58.1,148c-0.7,0-1.3-0.2-1.7-0.5c-0.4-0.4-0.6-1-0.6-1.9v-4.4h-1.4V140h1.4l0.2-1.9h1.2v1.9h2.3v1.1h-2.3
			v4.4c0,0.5,0.1,0.8,0.3,1s0.6,0.3,1.1,0.3h0.8v1.2H58.1z"/>
		<path class="st1" d="M69,148.1c-0.8,0-1.5-0.2-2.1-0.5c-0.6-0.4-1.1-0.9-1.4-1.5S65,144.8,65,144s0.2-1.5,0.5-2.1s0.8-1.1,1.4-1.5
			s1.3-0.5,2.1-0.5c0.6,0,1.2,0.1,1.7,0.4s0.9,0.6,1.2,1.1v-4.9h1.3V148H72l-0.1-1.3c-0.3,0.4-0.6,0.7-1.1,1S69.7,148.1,69,148.1z
			 M69.1,147c0.5,0,1-0.1,1.4-0.4c0.4-0.2,0.7-0.6,1-1c0.2-0.5,0.3-1,0.3-1.6s-0.1-1.1-0.3-1.6c-0.2-0.4-0.5-0.8-1-1
			c-0.4-0.2-0.9-0.4-1.4-0.4s-1,0.1-1.4,0.4c-0.4,0.2-0.7,0.6-1,1c-0.2,0.5-0.3,1-0.3,1.6s0.1,1.1,0.3,1.6c0.2,0.4,0.6,0.8,1,1
			C68.2,146.9,68.6,147,69.1,147z"/>
		<path class="st1" d="M79.1,148.1c-0.8,0-1.4-0.2-2-0.5s-1.1-0.8-1.4-1.5c-0.3-0.6-0.5-1.4-0.5-2.2s0.2-1.6,0.5-2.2
			s0.8-1.1,1.4-1.5c0.6-0.3,1.3-0.5,2-0.5c0.8,0,1.4,0.2,2,0.5s1.1,0.8,1.4,1.5c0.3,0.6,0.5,1.4,0.5,2.2s-0.2,1.6-0.5,2.2
			c-0.3,0.6-0.8,1.1-1.4,1.5S79.8,148.1,79.1,148.1z M79.1,147c0.5,0,0.9-0.1,1.3-0.3s0.7-0.6,1-1c0.2-0.5,0.4-1,0.4-1.7
			s-0.1-1.2-0.4-1.7s-0.6-0.8-0.9-1c-0.4-0.2-0.8-0.3-1.3-0.3s-0.9,0.1-1.3,0.3s-0.7,0.6-1,1c-0.2,0.4-0.4,1-0.4,1.7
			s0.1,1.2,0.4,1.7c0.2,0.4,0.6,0.8,0.9,1C78.2,146.9,78.6,147,79.1,147z"/>
		<path class="st1" d="M91.8,148.1c-0.7,0-1.2-0.1-1.7-0.3c-0.4-0.2-0.8-0.5-1-0.9s-0.3-0.8-0.3-1.2c0-0.8,0.3-1.4,0.9-1.9
			c0.6-0.4,1.5-0.7,2.5-0.7h2.1V143c0-0.7-0.2-1.2-0.5-1.6c-0.4-0.4-0.9-0.5-1.5-0.5c-0.5,0-1,0.1-1.3,0.4c-0.4,0.3-0.6,0.6-0.7,1.1
			H89c0-0.6,0.2-1.1,0.6-1.5c0.3-0.4,0.8-0.7,1.3-0.9s1-0.3,1.6-0.3c1.1,0,1.9,0.3,2.5,0.9c0.6,0.6,0.8,1.4,0.8,2.4v4.9h-1.2
			l-0.1-1.4c-0.2,0.5-0.6,0.8-1,1.1C93.1,148,92.5,148.1,91.8,148.1z M92,147c0.5,0,0.9-0.1,1.3-0.4c0.4-0.3,0.7-0.6,0.8-1
			c0.2-0.4,0.3-0.9,0.3-1.3l0,0h-2c-0.8,0-1.3,0.1-1.7,0.4c-0.3,0.3-0.5,0.6-0.5,1s0.2,0.8,0.5,1C91,146.9,91.5,147,92,147z"/>
		<path class="st1" d="M97.8,148v-8H99l0.1,1.4c0.3-0.5,0.6-0.9,1.1-1.2s1-0.4,1.6-0.4c0.9,0,1.7,0.3,2.2,0.9
			c0.6,0.6,0.8,1.5,0.8,2.6v4.6h-1.3v-4.5c0-1.7-0.7-2.5-2-2.5c-0.7,0-1.2,0.2-1.7,0.7c-0.4,0.5-0.7,1.2-0.7,2.1v4.1L97.8,148
			L97.8,148z"/>
		<path class="st1" d="M107.6,151.5l2-4.3h-0.5L106,140h1.5l2.6,6.2l2.8-6.2h1.4l-5.2,11.5H107.6z"/>
		<path class="st1" d="M119.9,151.5V140h1.2l0.1,1.3c0.3-0.4,0.6-0.7,1.1-1s1.1-0.5,1.8-0.5c0.8,0,1.5,0.2,2.1,0.5
			c0.6,0.4,1,0.9,1.4,1.5c0.3,0.6,0.5,1.3,0.5,2.1s-0.2,1.5-0.5,2.1s-0.8,1.1-1.4,1.5s-1.3,0.5-2.1,0.5c-0.6,0-1.2-0.1-1.7-0.4
			c-0.5-0.3-0.9-0.6-1.2-1.1v4.9L119.9,151.5L119.9,151.5z M124,147c0.5,0,1-0.1,1.4-0.4c0.4-0.2,0.7-0.6,1-1c0.2-0.5,0.3-1,0.3-1.6
			s-0.1-1.1-0.3-1.6c-0.2-0.4-0.6-0.8-1-1s-0.9-0.4-1.4-0.4s-1,0.1-1.4,0.4s-0.7,0.6-1,1c-0.2,0.5-0.3,1-0.3,1.6s0.1,1.1,0.3,1.6
			c0.2,0.4,0.6,0.8,1,1C123,146.9,123.4,147,124,147z"/>
		<path class="st1" d="M129.9,148v-11.5h1.3v4.9c0.3-0.5,0.7-0.9,1.1-1.1c0.5-0.3,1-0.4,1.6-0.4c0.9,0,1.6,0.3,2.2,0.9
			c0.5,0.6,0.8,1.5,0.8,2.6v4.6h-1.3v-4.5c0-1.7-0.7-2.5-2-2.5c-0.7,0-1.3,0.2-1.7,0.7c-0.5,0.5-0.7,1.2-0.7,2.1v4.1L129.9,148
			L129.9,148z"/>
		<path class="st1" d="M139.7,151.5l2-4.3h-0.5L138,140h1.5l2.6,6.2l2.8-6.2h1.4l-5.2,11.5H139.7z"/>
		<path class="st1" d="M150.3,148.1c-0.9,0-1.7-0.2-2.4-0.7c-0.6-0.5-1-1.1-1.1-2h1.4c0.1,0.4,0.3,0.8,0.7,1.1s0.8,0.5,1.5,0.5
			c0.6,0,1-0.1,1.2-0.4c0.3-0.2,0.4-0.5,0.4-0.9c0-0.5-0.2-0.8-0.5-1s-0.8-0.3-1.5-0.4c-0.4-0.1-0.9-0.2-1.3-0.4
			c-0.4-0.2-0.8-0.4-1.1-0.7s-0.4-0.7-0.4-1.2c0-0.7,0.3-1.3,0.8-1.7s1.2-0.7,2.1-0.7c0.8,0,1.5,0.2,2.1,0.6c0.5,0.4,0.8,1,0.9,1.8
			h-1.3c-0.1-0.4-0.2-0.7-0.5-1s-0.7-0.3-1.2-0.3s-0.9,0.1-1.1,0.3c-0.3,0.2-0.4,0.5-0.4,0.8s0.2,0.6,0.5,0.8s0.8,0.3,1.4,0.5
			c0.5,0.1,1,0.2,1.4,0.4c0.4,0.1,0.8,0.4,1.1,0.7s0.4,0.7,0.4,1.3c0,0.7-0.3,1.3-0.8,1.8C152,147.9,151.2,148.1,150.3,148.1z"/>
		<path class="st1" d="M156.1,138.3c-0.3,0-0.5-0.1-0.7-0.3s-0.3-0.4-0.3-0.7s0.1-0.5,0.3-0.6c0.2-0.2,0.4-0.3,0.7-0.3
			s0.5,0.1,0.7,0.3s0.3,0.4,0.3,0.6c0,0.3-0.1,0.5-0.3,0.7C156.5,138.2,156.3,138.3,156.1,138.3z M155.4,148v-8h1.3v7.9h-1.3V148z"
			/>
		<path class="st1" d="M162.7,148.1c-0.8,0-1.4-0.2-2-0.5c-0.6-0.4-1.1-0.8-1.4-1.5c-0.4-0.6-0.5-1.4-0.5-2.2s0.2-1.6,0.5-2.2
			c0.3-0.6,0.8-1.1,1.4-1.5c0.6-0.4,1.3-0.5,2-0.5c0.9,0,1.7,0.2,2.4,0.7s1.1,1.1,1.2,2h-1.4c-0.1-0.5-0.4-0.9-0.8-1.1
			c-0.4-0.3-0.9-0.4-1.5-0.4c-0.5,0-0.9,0.1-1.3,0.3c-0.4,0.2-0.7,0.6-1,1c-0.2,0.5-0.4,1-0.4,1.7s0.1,1.2,0.4,1.7s0.6,0.8,1,1
			s0.8,0.3,1.3,0.3s1-0.1,1.5-0.4c0.4-0.3,0.7-0.7,0.8-1.2h1.4c-0.2,0.8-0.6,1.5-1.2,2C164.5,147.9,163.7,148.1,162.7,148.1z"/>
		<path class="st1" d="M170.8,148.1c-0.7,0-1.2-0.1-1.6-0.3c-0.4-0.2-0.8-0.5-1-0.9s-0.3-0.8-0.3-1.2c0-0.8,0.3-1.4,0.9-1.9
			c0.6-0.4,1.5-0.7,2.5-0.7h2.1V143c0-0.7-0.2-1.2-0.5-1.6c-0.4-0.4-0.8-0.5-1.5-0.5c-0.5,0-1,0.1-1.4,0.4c-0.4,0.3-0.6,0.6-0.7,1.1
			H168c0.1-0.6,0.2-1.1,0.6-1.5c0.3-0.4,0.8-0.7,1.3-0.9s1-0.3,1.6-0.3c1.1,0,1.9,0.3,2.5,0.9c0.6,0.6,0.8,1.4,0.8,2.4v4.9h-1.2
			l-0.1-1.4c-0.2,0.5-0.6,0.8-1,1.1C172.1,148,171.6,148.1,170.8,148.1z M171,147c0.5,0,0.9-0.1,1.3-0.4c0.4-0.3,0.7-0.6,0.8-1
			c0.2-0.4,0.3-0.9,0.3-1.3l0,0h-2c-0.8,0-1.4,0.1-1.7,0.4c-0.3,0.3-0.5,0.6-0.5,1s0.2,0.8,0.5,1C170.1,146.9,170.5,147,171,147z"/>
		<path class="st1" d="M176.9,148v-11.5h1.3V148H176.9z"/>
		<path class="st1" d="M25.5,170.1c-0.7,0-1.2-0.1-1.7-0.3c-0.4-0.2-0.8-0.5-1-0.9s-0.3-0.8-0.3-1.2c0-0.8,0.3-1.4,0.9-1.9
			c0.6-0.4,1.5-0.7,2.5-0.7H28V165c0-0.7-0.2-1.2-0.5-1.6c-0.4-0.4-0.8-0.5-1.5-0.5c-0.5,0-1,0.1-1.3,0.4c-0.4,0.3-0.6,0.6-0.7,1.1
			h-1.4c0-0.6,0.2-1.1,0.6-1.5c0.3-0.4,0.8-0.7,1.3-0.9s1-0.3,1.6-0.3c1.1,0,1.9,0.3,2.5,0.9s0.8,1.4,0.8,2.4v4.9h-1.2l-0.1-1.4
			c-0.2,0.5-0.5,0.8-1,1.1C26.8,170,26.3,170.1,25.5,170.1z M25.7,169c0.5,0,1-0.1,1.3-0.4c0.4-0.3,0.6-0.6,0.8-1
			c0.2-0.4,0.3-0.9,0.3-1.3l0,0h-2c-0.8,0-1.3,0.1-1.7,0.4c-0.3,0.3-0.5,0.6-0.5,1s0.2,0.8,0.5,1C24.8,168.9,25.2,169,25.7,169z"/>
		<path class="st1" d="M35.2,170.1c-0.8,0-1.4-0.2-2-0.5s-1.1-0.8-1.4-1.5c-0.3-0.6-0.5-1.4-0.5-2.2s0.2-1.6,0.5-2.2
			c0.4-0.6,0.8-1.1,1.4-1.5s1.3-0.5,2-0.5c0.9,0,1.7,0.2,2.4,0.7c0.6,0.5,1,1.1,1.2,2h-1.4c-0.1-0.5-0.4-0.9-0.8-1.1
			c-0.4-0.3-0.9-0.4-1.5-0.4c-0.5,0-0.9,0.1-1.3,0.3c-0.4,0.2-0.7,0.6-1,1c-0.2,0.5-0.4,1-0.4,1.7s0.1,1.2,0.4,1.7
			c0.2,0.5,0.6,0.8,1,1s0.8,0.3,1.3,0.3s1-0.1,1.5-0.4c0.4-0.3,0.7-0.7,0.8-1.2h1.4c-0.2,0.8-0.6,1.5-1.2,2
			C36.9,169.9,36.1,170.1,35.2,170.1z"/>
		<path class="st1" d="M43.6,170c-0.7,0-1.3-0.2-1.7-0.5c-0.4-0.4-0.6-1-0.6-1.9v-4.4h-1.4V162h1.4l0.2-1.9h1.2v1.9H45v1.1h-2.3v4.4
			c0,0.5,0.1,0.8,0.3,1s0.6,0.3,1.1,0.3h0.8v1.2H43.6z"/>
		<path class="st1" d="M47.4,160.3c-0.3,0-0.5-0.1-0.7-0.3s-0.3-0.4-0.3-0.7s0.1-0.5,0.3-0.6c0.2-0.2,0.4-0.3,0.7-0.3
			s0.5,0.1,0.7,0.3s0.3,0.4,0.3,0.6c0,0.3-0.1,0.5-0.3,0.7S47.7,160.3,47.4,160.3z M46.8,170v-8h1.3v7.9h-1.3V170z"/>
		<path class="st1" d="M52.7,170l-3-7.9h1.4l2.4,6.6l2.4-6.6h1.4l-3,7.9H52.7z"/>
		<path class="st1" d="M59.6,160.3c-0.3,0-0.5-0.1-0.7-0.3s-0.3-0.4-0.3-0.7s0.1-0.5,0.3-0.6c0.2-0.2,0.4-0.3,0.7-0.3
			s0.5,0.1,0.7,0.3s0.3,0.4,0.3,0.6c0,0.3-0.1,0.5-0.3,0.7S59.9,160.3,59.6,160.3z M58.9,170v-8h1.3v7.9h-1.3V170z"/>
		<path class="st1" d="M65.8,170c-0.7,0-1.3-0.2-1.7-0.5c-0.4-0.4-0.6-1-0.6-1.9v-4.4H62V162h1.4l0.2-1.9h1.2v1.9h2.3v1.1h-2.3v4.4
			c0,0.5,0.1,0.8,0.3,1c0.2,0.2,0.6,0.3,1.1,0.3H67v1.2H65.8z"/>
		<path class="st1" d="M69.7,173.5l2-4.3h-0.5L68,162h1.5l2.6,6.2l2.8-6.2h1.4l-5.2,11.5H69.7z"/>
		<path class="st1" d="M75.7,171.9l0.9-3.5H78l-1.4,3.5H75.7z"/>
		<path class="st1" d="M87,170c-0.7,0-1.3-0.2-1.7-0.5c-0.4-0.4-0.6-1-0.6-1.9v-4.4h-1.4V162h1.4l0.2-1.9H86v1.9h2.3v1.1H86v4.4
			c0,0.5,0.1,0.8,0.3,1c0.2,0.2,0.6,0.3,1.1,0.3h0.8v1.2H87z"/>
		<path class="st1" d="M92.6,170.1c-0.7,0-1.2-0.1-1.7-0.3c-0.4-0.2-0.8-0.5-1-0.9s-0.3-0.8-0.3-1.2c0-0.8,0.3-1.4,0.9-1.9
			c0.6-0.4,1.5-0.7,2.5-0.7h2.1V165c0-0.7-0.2-1.2-0.5-1.6c-0.4-0.4-0.8-0.5-1.5-0.5c-0.5,0-1,0.1-1.4,0.4c-0.4,0.3-0.6,0.6-0.7,1.1
			h-1.4c0.1-0.6,0.2-1.1,0.6-1.5c0.3-0.4,0.8-0.7,1.3-0.9s1-0.3,1.6-0.3c1.1,0,1.9,0.3,2.5,0.9c0.6,0.6,0.8,1.4,0.8,2.4v4.9h-1.2
			l-0.1-1.4c-0.2,0.5-0.6,0.8-1,1.1C94,170,93.4,170.1,92.6,170.1z M92.9,169c0.5,0,0.9-0.1,1.3-0.4c0.4-0.3,0.7-0.6,0.8-1
			c0.2-0.4,0.3-0.9,0.3-1.3l0,0h-2c-0.8,0-1.3,0.1-1.7,0.4c-0.3,0.3-0.5,0.6-0.5,1s0.1,0.8,0.5,1C91.9,168.9,92.3,169,92.9,169z"/>
		<path class="st1" d="M98.7,170v-11.5h1.3V170H98.7z"/>
		<path class="st1" d="M102.2,170v-11.5h1.3v6.9l3.2-3.3h1.7l-3.5,3.6l4,4.4h-1.7l-3.6-4.1v4.1L102.2,170L102.2,170z"/>
		<path class="st1" d="M117.7,170c-0.7,0-1.3-0.2-1.7-0.5c-0.4-0.4-0.6-1-0.6-1.9v-4.4H114V162h1.4l0.2-1.9h1.2v1.9h2.3v1.1h-2.3
			v4.4c0,0.5,0.1,0.8,0.3,1c0.2,0.2,0.6,0.3,1.1,0.3h0.8v1.2H117.7z"/>
		<path class="st1" d="M124.1,170.1c-0.8,0-1.4-0.2-2-0.5s-1.1-0.8-1.4-1.5c-0.3-0.6-0.5-1.4-0.5-2.2s0.2-1.6,0.5-2.2
			c0.4-0.6,0.8-1.1,1.4-1.5c0.6-0.3,1.3-0.5,2-0.5c0.8,0,1.4,0.2,2,0.5s1.1,0.8,1.4,1.5c0.3,0.6,0.5,1.4,0.5,2.2s-0.2,1.6-0.5,2.2
			c-0.3,0.6-0.8,1.1-1.4,1.5S124.8,170.1,124.1,170.1z M124.1,169c0.5,0,0.9-0.1,1.3-0.3s0.7-0.6,1-1c0.2-0.5,0.4-1,0.4-1.7
			s-0.1-1.2-0.4-1.7s-0.6-0.8-0.9-1s-0.8-0.3-1.3-0.3s-0.9,0.1-1.3,0.3s-0.7,0.6-1,1c-0.2,0.4-0.4,1-0.4,1.7s0.1,1.2,0.4,1.7
			c0.2,0.4,0.6,0.8,0.9,1C123.2,168.9,123.7,169,124.1,169z"/>
		<path class="st1" d="M135.1,173.5l2-4.3h-0.5l-3.2-7.2h1.5l2.6,6.2l2.8-6.2h1.4l-5.2,11.5H135.1z"/>
		<path class="st1" d="M146,170.1c-0.8,0-1.4-0.2-2-0.5s-1.1-0.8-1.4-1.5c-0.4-0.6-0.5-1.4-0.5-2.2s0.2-1.6,0.5-2.2s0.8-1.1,1.4-1.5
			c0.6-0.3,1.3-0.5,2-0.5c0.8,0,1.4,0.2,2,0.5s1.1,0.8,1.4,1.5c0.4,0.6,0.5,1.4,0.5,2.2s-0.2,1.6-0.5,2.2c-0.4,0.6-0.8,1.1-1.4,1.5
			C147.4,170,146.7,170.1,146,170.1z M146,169c0.5,0,0.9-0.1,1.3-0.3c0.4-0.2,0.7-0.6,1-1c0.2-0.5,0.4-1,0.4-1.7s-0.1-1.2-0.4-1.7
			c-0.2-0.4-0.6-0.8-1-1s-0.8-0.3-1.3-0.3s-0.9,0.1-1.3,0.3c-0.4,0.2-0.7,0.6-1,1c-0.2,0.4-0.4,1-0.4,1.7s0.1,1.2,0.4,1.7
			c0.2,0.4,0.6,0.8,1,1C145.1,168.9,145.5,169,146,169z"/>
		<path class="st1" d="M154.7,170.1c-0.9,0-1.7-0.3-2.2-0.9s-0.8-1.5-0.8-2.6V162h1.3v4.5c0,1.6,0.7,2.5,2,2.5
			c0.7,0,1.3-0.2,1.7-0.7s0.7-1.2,0.7-2.1V162h1.3v7.9h-1.2l-0.1-1.4c-0.2,0.5-0.6,0.9-1.1,1.2C155.8,170,155.3,170.1,154.7,170.1z"
			/>
		<path class="st1" d="M161,170v-8h1.2l0.1,1.5c0.2-0.5,0.6-0.9,1.1-1.2s1.1-0.5,1.9-0.5v1.4h-0.4c-0.5,0-0.9,0.1-1.3,0.2
			c-0.4,0.2-0.7,0.4-0.9,0.8c-0.2,0.4-0.3,0.9-0.3,1.6v4H161V170z"/>
		<path class="st1" d="M27.8,192.1c-1,0-2-0.2-2.8-0.7s-1.4-1.2-1.8-2c-0.4-0.9-0.7-1.9-0.7-3s0.2-2.1,0.7-3c0.4-0.9,1.1-1.6,1.9-2
			c0.8-0.5,1.8-0.7,2.9-0.7c1.3,0,2.3,0.3,3.1,0.9c0.8,0.6,1.4,1.5,1.6,2.5h-1.5c-0.2-0.7-0.5-1.2-1.1-1.6c-0.6-0.4-1.3-0.6-2.1-0.6
			c-0.8,0-1.5,0.2-2.1,0.5c-0.6,0.4-1.1,0.9-1.4,1.6c-0.3,0.7-0.5,1.5-0.5,2.4c0,1,0.2,1.8,0.5,2.5s0.8,1.2,1.4,1.6
			c0.6,0.4,1.3,0.5,2,0.5c1.2,0,2.1-0.4,2.7-1c0.6-0.7,0.9-1.7,1-2.9h-3.2V186H33v6h-1.2l-0.1-1.8c-0.4,0.6-0.9,1.1-1.5,1.5
			C29.5,192,28.8,192.1,27.8,192.1z"/>
		<path class="st1" d="M35.1,192v-11.2h3.7c0.9,0,1.6,0.1,2.2,0.4c0.6,0.3,1,0.7,1.3,1.2s0.4,1,0.4,1.7c0,0.6-0.1,1.2-0.4,1.6
			s-0.7,0.9-1.2,1.2c-0.6,0.3-1.3,0.4-2.2,0.4h-2.3v4.7L35.1,192L35.1,192z M36.4,186.1h2.3c0.9,0,1.5-0.2,1.9-0.6
			c0.4-0.4,0.6-0.9,0.6-1.6c0-0.7-0.2-1.2-0.6-1.6c-0.4-0.4-1-0.6-1.9-0.6h-2.3V186.1z"/>
		<path class="st1" d="M52.1,192.1c-0.8,0-1.4-0.2-2-0.5s-1.1-0.8-1.4-1.5s-0.5-1.4-0.5-2.2s0.2-1.6,0.5-2.2s0.8-1.1,1.4-1.5
			c0.6-0.3,1.3-0.5,2-0.5s1.4,0.2,2,0.5s1.1,0.8,1.4,1.5c0.3,0.6,0.5,1.4,0.5,2.2s-0.2,1.6-0.5,2.2s-0.8,1.1-1.4,1.5
			C53.5,192,52.9,192.1,52.1,192.1z M52.1,191c0.5,0,0.9-0.1,1.3-0.3c0.4-0.2,0.7-0.6,1-1c0.2-0.5,0.4-1,0.4-1.7s-0.1-1.2-0.4-1.7
			c-0.2-0.5-0.6-0.8-1-1s-0.8-0.3-1.3-0.3s-0.9,0.1-1.3,0.3c-0.4,0.2-0.7,0.6-1,1c-0.2,0.4-0.4,1-0.4,1.7s0.1,1.2,0.4,1.7
			c0.2,0.4,0.6,0.8,1,1C51.3,190.9,51.7,191,52.1,191z"/>
		<path class="st1" d="M58,192v-8h1.2l0.1,1.5c0.2-0.5,0.6-0.9,1.1-1.2s1.1-0.5,1.9-0.5v1.4h-0.4c-0.5,0-0.9,0.1-1.3,0.2
			c-0.4,0.2-0.7,0.4-0.9,0.8c-0.2,0.4-0.3,0.9-0.3,1.6v4H58V192z"/>
		<path class="st1" d="M70.7,192.1c-0.7,0-1.2-0.1-1.7-0.3c-0.4-0.2-0.8-0.5-1-0.9s-0.3-0.8-0.3-1.2c0-0.8,0.3-1.4,0.9-1.9
			c0.6-0.4,1.5-0.7,2.5-0.7h2.1V187c0-0.7-0.2-1.2-0.5-1.6c-0.4-0.4-0.8-0.5-1.5-0.5c-0.5,0-1,0.1-1.3,0.4c-0.4,0.3-0.6,0.6-0.7,1.1
			h-1.4c0.1-0.6,0.2-1.1,0.6-1.5c0.3-0.4,0.8-0.7,1.3-0.9s1-0.3,1.6-0.3c1.1,0,1.9,0.3,2.5,0.9s0.8,1.4,0.8,2.4v4.9h-1.2l-0.1-1.4
			c-0.2,0.5-0.5,0.8-1,1.1C72,192,71.4,192.1,70.7,192.1z M70.9,191c0.5,0,1-0.1,1.3-0.4c0.4-0.3,0.7-0.6,0.8-1s0.3-0.9,0.3-1.3l0,0
			h-2c-0.8,0-1.4,0.1-1.7,0.4c-0.3,0.3-0.5,0.6-0.5,1s0.2,0.8,0.5,1C69.9,190.9,70.3,191,70.9,191z"/>
		<path class="st1" d="M76.7,192v-8h1.2l0.1,1.4c0.3-0.5,0.6-0.9,1.1-1.2s1-0.4,1.6-0.4c0.9,0,1.7,0.3,2.2,0.9s0.8,1.5,0.8,2.6v4.6
			h-1.3v-4.5c0-1.7-0.7-2.5-2-2.5c-0.7,0-1.2,0.2-1.7,0.7c-0.4,0.5-0.7,1.2-0.7,2.1v4.1L76.7,192L76.7,192z"/>
		<path class="st1" d="M93.6,192.1c-0.8,0-1.4-0.2-2-0.5c-0.6-0.4-1.1-0.8-1.4-1.4c-0.3-0.6-0.5-1.4-0.5-2.2s0.2-1.6,0.5-2.2
			c0.3-0.6,0.8-1.1,1.4-1.5s1.3-0.5,2.1-0.5c0.8,0,1.4,0.2,2,0.5c0.6,0.4,1,0.8,1.3,1.4c0.3,0.6,0.5,1.2,0.5,1.8c0,0.1,0,0.2,0,0.4
			s0,0.2,0,0.4h-6.3c0,0.6,0.2,1.1,0.4,1.5s0.6,0.7,0.9,0.9s0.8,0.3,1.2,0.3c0.6,0,1-0.1,1.4-0.4c0.4-0.2,0.7-0.6,0.8-1h1.3
			c-0.2,0.7-0.6,1.4-1.2,1.8C95.3,191.9,94.6,192.1,93.6,192.1z M93.6,185c-0.6,0-1.2,0.2-1.7,0.6c-0.5,0.4-0.8,1-0.9,1.7h5
			c0-0.7-0.3-1.3-0.7-1.7C94.9,185.2,94.3,185,93.6,185z"/>
		<path class="st1" d="M98,192l2.8-4l-2.8-4h1.5l2.2,3.3l2.2-3.3h1.4l-2.8,4l2.8,4h-1.4l-2.2-3.3l-2.2,3.3H98z"/>
		<path class="st1" d="M110,192.1c-0.8,0-1.4-0.2-2-0.5c-0.6-0.4-1-0.8-1.4-1.4c-0.3-0.6-0.5-1.4-0.5-2.2s0.2-1.6,0.5-2.2
			c0.3-0.6,0.8-1.1,1.4-1.5s1.3-0.5,2.1-0.5c0.8,0,1.4,0.2,2,0.5c0.6,0.4,1,0.8,1.3,1.4c0.3,0.6,0.4,1.2,0.4,1.8c0,0.1,0,0.2,0,0.4
			c0,0.1,0,0.2,0,0.4h-6.3c0,0.6,0.2,1.1,0.4,1.5s0.6,0.7,0.9,0.9c0.4,0.2,0.8,0.3,1.2,0.3c0.6,0,1-0.1,1.4-0.4
			c0.4-0.3,0.7-0.6,0.8-1h1.3c-0.2,0.7-0.6,1.4-1.2,1.8C111.7,191.9,110.9,192.1,110,192.1z M110,185c-0.6,0-1.2,0.2-1.7,0.6
			c-0.5,0.4-0.8,1-0.9,1.7h5c0-0.7-0.3-1.3-0.7-1.7C111.2,185.2,110.7,185,110,185z"/>
		<path class="st1" d="M115.5,192v-8h1.2l0.1,1.5c0.2-0.5,0.6-0.9,1.1-1.2s1.1-0.5,1.9-0.5v1.4h-0.4c-0.5,0-0.9,0.1-1.3,0.2
			c-0.4,0.2-0.7,0.4-0.9,0.8c-0.2,0.4-0.4,0.9-0.4,1.6v4h-1.3V192z"/>
		<path class="st1" d="M124.7,192.1c-0.8,0-1.4-0.2-2-0.5c-0.6-0.4-1.1-0.8-1.4-1.5c-0.4-0.6-0.5-1.4-0.5-2.2s0.2-1.6,0.5-2.2
			c0.3-0.6,0.8-1.1,1.4-1.5s1.3-0.5,2-0.5c0.9,0,1.7,0.2,2.4,0.7c0.6,0.5,1.1,1.1,1.2,2h-1.4c-0.1-0.5-0.4-0.9-0.8-1.1
			c-0.4-0.3-0.9-0.4-1.5-0.4c-0.4,0-0.9,0.1-1.3,0.3s-0.7,0.6-1,1c-0.2,0.5-0.4,1-0.4,1.7s0.1,1.2,0.4,1.7s0.6,0.8,1,1
			s0.8,0.3,1.3,0.3c0.6,0,1-0.1,1.5-0.4c0.4-0.3,0.7-0.7,0.8-1.2h1.4c-0.2,0.8-0.6,1.5-1.2,2C126.4,191.9,125.6,192.1,124.7,192.1z"
			/>
		<path class="st1" d="M131,182.3c-0.3,0-0.5-0.1-0.7-0.3s-0.3-0.4-0.3-0.7s0.1-0.5,0.3-0.6c0.2-0.2,0.4-0.3,0.7-0.3
			s0.5,0.1,0.7,0.3s0.3,0.4,0.3,0.6c0,0.3-0.1,0.5-0.3,0.7S131.2,182.3,131,182.3z M130.3,192v-8h1.3v7.9h-1.3V192z"/>
		<path class="st1" d="M137,192.1c-0.9,0-1.7-0.2-2.4-0.7c-0.6-0.5-1-1.1-1.1-2h1.4c0.1,0.4,0.3,0.8,0.7,1.1s0.8,0.5,1.4,0.5
			c0.6,0,1-0.1,1.2-0.4c0.3-0.2,0.4-0.5,0.4-0.9c0-0.5-0.2-0.8-0.5-1c-0.4-0.2-0.8-0.3-1.5-0.4c-0.4-0.1-0.8-0.2-1.3-0.4
			c-0.4-0.2-0.8-0.4-1.1-0.7s-0.4-0.7-0.4-1.2c0-0.7,0.3-1.3,0.8-1.7s1.2-0.7,2.1-0.7c0.8,0,1.5,0.2,2.1,0.6c0.5,0.4,0.9,1,0.9,1.8
			h-1.3c0-0.4-0.2-0.7-0.5-1c-0.3-0.2-0.7-0.3-1.2-0.3s-0.8,0.1-1.1,0.3s-0.4,0.5-0.4,0.8s0.2,0.6,0.5,0.8s0.8,0.3,1.4,0.5
			c0.5,0.1,1,0.2,1.4,0.4c0.4,0.1,0.8,0.4,1.1,0.7s0.4,0.7,0.4,1.3c0,0.7-0.3,1.3-0.8,1.8C138.7,191.9,138,192.1,137,192.1z"/>
		<path class="st1" d="M145.6,192.1c-0.8,0-1.4-0.2-2-0.5c-0.6-0.4-1-0.8-1.4-1.4c-0.3-0.6-0.5-1.4-0.5-2.2s0.2-1.6,0.5-2.2
			c0.3-0.6,0.8-1.1,1.4-1.5c0.6-0.4,1.3-0.5,2.1-0.5s1.4,0.2,2,0.5s1,0.8,1.3,1.4c0.3,0.6,0.4,1.2,0.4,1.8c0,0.1,0,0.2,0,0.4
			c0,0.1,0,0.2,0,0.4H143c0,0.6,0.2,1.1,0.4,1.5s0.6,0.7,0.9,0.9c0.4,0.2,0.8,0.3,1.2,0.3c0.6,0,1-0.1,1.4-0.4
			c0.4-0.3,0.7-0.6,0.8-1h1.3c-0.2,0.7-0.6,1.4-1.2,1.8C147.3,191.9,146.5,192.1,145.6,192.1z M145.6,185c-0.6,0-1.2,0.2-1.7,0.6
			c-0.5,0.4-0.8,1-0.9,1.7h5c0-0.7-0.3-1.3-0.7-1.7C146.8,185.2,146.2,185,145.6,185z"/>
		<path class="st1" d="M22.9,217.5V206h1.2l0.1,1.3c0.3-0.4,0.6-0.7,1.1-1s1.1-0.5,1.8-0.5c0.8,0,1.5,0.2,2.1,0.5
			c0.6,0.4,1,0.9,1.4,1.5c0.3,0.6,0.5,1.3,0.5,2.1s-0.2,1.5-0.5,2.1s-0.8,1.1-1.4,1.5s-1.3,0.5-2.1,0.5c-0.6,0-1.2-0.1-1.7-0.4
			c-0.5-0.3-0.9-0.6-1.2-1.1v4.9L22.9,217.5L22.9,217.5z M27,213c0.5,0,1-0.1,1.4-0.4s0.7-0.6,1-1c0.2-0.5,0.3-1,0.3-1.6
			s-0.1-1.1-0.3-1.6c-0.2-0.4-0.5-0.8-1-1S27.5,207,27,207s-1,0.1-1.4,0.4s-0.7,0.6-1,1c-0.2,0.5-0.3,1-0.3,1.6s0.1,1.1,0.3,1.6
			c0.2,0.4,0.6,0.8,1,1C26,212.9,26.5,213,27,213z"/>
		<path class="st1" d="M32.9,214v-8h1.2l0.1,1.5c0.2-0.5,0.6-0.9,1.1-1.2s1.1-0.5,1.9-0.5v1.4h-0.4c-0.5,0-0.9,0.1-1.3,0.2
			c-0.4,0.2-0.7,0.4-0.9,0.8c-0.2,0.4-0.4,0.9-0.4,1.6v4h-1.3V214z"/>
		<path class="st1" d="M42.1,214.1c-0.8,0-1.4-0.2-2-0.5s-1.1-0.8-1.4-1.5c-0.3-0.6-0.5-1.4-0.5-2.2s0.2-1.6,0.5-2.2
			s0.8-1.1,1.4-1.5c0.6-0.3,1.3-0.5,2-0.5s1.4,0.2,2,0.5s1.1,0.8,1.4,1.5c0.3,0.6,0.5,1.4,0.5,2.2s-0.2,1.6-0.5,2.2
			s-0.8,1.1-1.4,1.5C43.5,214,42.8,214.1,42.1,214.1z M42.1,213c0.5,0,0.9-0.1,1.3-0.3c0.4-0.2,0.7-0.6,1-1c0.2-0.5,0.4-1,0.4-1.7
			s-0.1-1.2-0.4-1.7c-0.2-0.5-0.6-0.8-0.9-1s-0.8-0.3-1.3-0.3s-0.9,0.1-1.3,0.3c-0.4,0.2-0.7,0.6-1,1c-0.2,0.4-0.4,1-0.4,1.7
			s0.1,1.2,0.4,1.7c0.2,0.4,0.6,0.8,1,1C41.2,212.9,41.6,213,42.1,213z"/>
		<path class="st1" d="M48.3,214v-6.8h-1.2V206h1.2v-1.4c0-0.8,0.2-1.3,0.6-1.7c0.4-0.4,0.9-0.5,1.7-0.5h0.8v1.1h-0.6
			c-0.4,0-0.7,0.1-0.9,0.2c-0.2,0.2-0.3,0.4-0.3,0.8v1.3h1.9v1.1h-1.9v6.8L48.3,214L48.3,214z"/>
		<path class="st1" d="M56.5,214.1c-0.8,0-1.4-0.2-2-0.5c-0.6-0.4-1.1-0.8-1.4-1.4c-0.3-0.6-0.5-1.4-0.5-2.2s0.2-1.6,0.5-2.2
			c0.3-0.6,0.8-1.1,1.4-1.5c0.6-0.4,1.3-0.5,2.1-0.5s1.4,0.2,2,0.5c0.6,0.4,1,0.8,1.3,1.4c0.3,0.6,0.5,1.2,0.5,1.8
			c0,0.1,0,0.2,0,0.4s0,0.2,0,0.4h-6.3c0,0.6,0.2,1.1,0.4,1.5s0.6,0.7,0.9,0.9c0.4,0.2,0.8,0.3,1.2,0.3c0.6,0,1-0.1,1.4-0.4
			c0.4-0.2,0.7-0.6,0.8-1H60c-0.2,0.7-0.6,1.4-1.2,1.8C58.2,213.9,57.4,214.1,56.5,214.1z M56.5,207c-0.6,0-1.2,0.2-1.7,0.6
			c-0.5,0.4-0.8,1-0.9,1.7h5c0-0.7-0.3-1.3-0.7-1.7C57.7,207.2,57.2,207,56.5,207z"/>
		<path class="st1" d="M65.1,214.1c-0.9,0-1.7-0.2-2.4-0.7c-0.6-0.5-1-1.1-1.1-2H63c0.1,0.4,0.3,0.8,0.7,1.1
			c0.3,0.3,0.8,0.5,1.5,0.5c0.6,0,1-0.1,1.2-0.4c0.3-0.2,0.4-0.5,0.4-0.9c0-0.5-0.2-0.8-0.5-1s-0.8-0.3-1.5-0.4
			c-0.4-0.1-0.8-0.2-1.3-0.4s-0.8-0.4-1.1-0.7S62,208.5,62,208c0-0.7,0.3-1.3,0.8-1.7s1.2-0.7,2.1-0.7c0.8,0,1.5,0.2,2.1,0.6
			c0.5,0.4,0.8,1,0.9,1.8h-1.3c-0.1-0.4-0.2-0.7-0.5-1c-0.3-0.2-0.7-0.3-1.2-0.3s-0.9,0.1-1.1,0.3c-0.3,0.2-0.4,0.5-0.4,0.8
			s0.2,0.6,0.5,0.8c0.3,0.2,0.8,0.3,1.4,0.5c0.5,0.1,1,0.2,1.4,0.4c0.4,0.1,0.8,0.4,1.1,0.7c0.3,0.3,0.4,0.7,0.4,1.3
			c0,0.7-0.3,1.3-0.8,1.8C66.7,213.9,66,214.1,65.1,214.1z"/>
		<path class="st1" d="M73.1,214.1c-0.9,0-1.7-0.2-2.4-0.7c-0.6-0.5-1-1.1-1.1-2H71c0.1,0.4,0.3,0.8,0.7,1.1
			c0.3,0.3,0.8,0.5,1.5,0.5c0.6,0,1-0.1,1.2-0.4c0.3-0.2,0.4-0.5,0.4-0.9c0-0.5-0.2-0.8-0.5-1s-0.8-0.3-1.5-0.4
			c-0.4-0.1-0.8-0.2-1.3-0.4s-0.8-0.4-1.1-0.7S70,208.5,70,208c0-0.7,0.3-1.3,0.8-1.7s1.2-0.7,2.1-0.7c0.8,0,1.5,0.2,2.1,0.6
			c0.5,0.4,0.8,1,0.9,1.8h-1.3c-0.1-0.4-0.2-0.7-0.5-1c-0.3-0.2-0.7-0.3-1.2-0.3s-0.9,0.1-1.1,0.3c-0.3,0.2-0.4,0.5-0.4,0.8
			s0.2,0.6,0.5,0.8s0.8,0.3,1.4,0.5c0.5,0.1,1,0.2,1.4,0.4c0.4,0.1,0.8,0.4,1.1,0.7c0.3,0.3,0.4,0.7,0.4,1.3c0,0.7-0.3,1.3-0.8,1.8
			C74.7,213.9,74,214.1,73.1,214.1z"/>
		<path class="st1" d="M78.8,204.3c-0.3,0-0.5-0.1-0.7-0.3s-0.3-0.4-0.3-0.7s0.1-0.5,0.3-0.6c0.2-0.2,0.4-0.3,0.7-0.3
			c0.3,0,0.5,0.1,0.7,0.3s0.3,0.4,0.3,0.6c0,0.3-0.1,0.5-0.3,0.7C79.3,204.2,79.1,204.3,78.8,204.3z M78.2,214v-8h1.3v7.9h-1.3V214z
			"/>
		<path class="st1" d="M85.5,214.1c-0.8,0-1.4-0.2-2-0.5s-1.1-0.8-1.4-1.5s-0.5-1.4-0.5-2.2s0.2-1.6,0.5-2.2s0.8-1.1,1.4-1.5
			c0.6-0.3,1.3-0.5,2-0.5s1.4,0.2,2,0.5s1.1,0.8,1.4,1.5c0.3,0.6,0.5,1.4,0.5,2.2s-0.2,1.6-0.5,2.2s-0.8,1.1-1.4,1.5
			S86.2,214.1,85.5,214.1z M85.5,213c0.5,0,0.9-0.1,1.3-0.3s0.7-0.6,1-1c0.2-0.5,0.4-1,0.4-1.7s-0.1-1.2-0.4-1.7
			c-0.2-0.5-0.6-0.8-1-1S86,207,85.5,207s-0.9,0.1-1.3,0.3s-0.7,0.6-1,1c-0.2,0.4-0.4,1-0.4,1.7s0.1,1.2,0.4,1.7
			c0.2,0.4,0.6,0.8,1,1S85,213,85.5,213z"/>
		<path class="st1" d="M91.3,214v-8h1.2l0.1,1.4c0.3-0.5,0.6-0.9,1.1-1.2s1-0.4,1.6-0.4c0.9,0,1.7,0.3,2.2,0.9
			c0.6,0.6,0.8,1.5,0.8,2.6v4.6H97v-4.5c0-1.7-0.7-2.5-2-2.5c-0.7,0-1.2,0.2-1.7,0.7c-0.4,0.5-0.7,1.2-0.7,2.1v4.1L91.3,214
			L91.3,214z"/>
		<path class="st1" d="M103.1,214.1c-0.7,0-1.2-0.1-1.7-0.3c-0.4-0.2-0.8-0.5-1-0.9s-0.3-0.8-0.3-1.2c0-0.8,0.3-1.4,0.9-1.9
			c0.6-0.4,1.5-0.7,2.5-0.7h2.1V209c0-0.7-0.2-1.2-0.5-1.6c-0.4-0.4-0.9-0.5-1.5-0.5c-0.5,0-1,0.1-1.3,0.4c-0.4,0.3-0.6,0.6-0.7,1.1
			h-1.4c0-0.6,0.2-1.1,0.6-1.5c0.3-0.4,0.8-0.7,1.3-0.9s1-0.3,1.6-0.3c1.1,0,1.9,0.3,2.5,0.9c0.6,0.6,0.8,1.4,0.8,2.4v4.9h-1.2
			l-0.1-1.4c-0.2,0.5-0.6,0.8-1,1.1C104.4,214,103.8,214.1,103.1,214.1z M103.3,213c0.5,0,0.9-0.1,1.3-0.4c0.4-0.3,0.7-0.6,0.8-1
			c0.2-0.4,0.3-0.9,0.3-1.3l0,0h-2c-0.8,0-1.3,0.1-1.7,0.4c-0.3,0.3-0.5,0.6-0.5,1s0.2,0.8,0.5,1C102.3,212.9,102.8,213,103.3,213z"
			/>
		<path class="st1" d="M109.1,214v-11.5h1.3V214H109.1z"/>
		<path class="st1" d="M121.2,214.1c-0.7,0-1.2-0.1-1.7-0.4c-0.5-0.3-0.9-0.6-1.2-1.1l-0.1,1.3H117v-11.5h1.3v4.9
			c0.3-0.4,0.6-0.7,1.1-1s1.1-0.5,1.8-0.5c0.8,0,1.5,0.2,2.1,0.5c0.6,0.4,1,0.9,1.4,1.5c0.3,0.6,0.5,1.3,0.5,2.1s-0.2,1.5-0.5,2.1
			s-0.8,1.1-1.4,1.5C122.6,214,121.9,214.1,121.2,214.1z M121,213c0.5,0,1-0.1,1.4-0.4c0.4-0.2,0.7-0.6,1-1c0.2-0.5,0.4-1,0.4-1.6
			s-0.1-1.1-0.4-1.6c-0.2-0.4-0.6-0.8-1-1s-0.9-0.4-1.4-0.4s-1,0.1-1.4,0.4s-0.7,0.6-1,1c-0.2,0.5-0.3,1-0.3,1.6s0.1,1.1,0.3,1.6
			c0.2,0.4,0.6,0.8,1,1C120,212.9,120.5,213,121,213z"/>
		<path class="st1" d="M130.5,214.1c-0.8,0-1.4-0.2-2-0.5c-0.6-0.4-1.1-0.8-1.4-1.4c-0.3-0.6-0.5-1.4-0.5-2.2s0.2-1.6,0.5-2.2
			c0.3-0.6,0.8-1.1,1.4-1.5c0.6-0.4,1.3-0.5,2.1-0.5s1.4,0.2,2,0.5c0.6,0.4,1,0.8,1.3,1.4c0.3,0.6,0.4,1.2,0.4,1.8
			c0,0.1,0,0.2,0,0.4c0,0.1,0,0.2,0,0.4H128c0,0.6,0.2,1.1,0.4,1.5s0.6,0.7,0.9,0.9s0.8,0.3,1.2,0.3c0.6,0,1-0.1,1.4-0.4
			c0.4-0.2,0.7-0.6,0.8-1h1.3c-0.2,0.7-0.6,1.4-1.2,1.8C132.2,213.9,131.5,214.1,130.5,214.1z M130.5,207c-0.6,0-1.2,0.2-1.7,0.6
			c-0.5,0.4-0.8,1-0.9,1.7h5c0-0.7-0.3-1.3-0.7-1.7C131.8,207.2,131.2,207,130.5,207z"/>
		<path class="st1" d="M136.5,214v-6.8h-1.2V206h1.2v-1.4c0-0.8,0.2-1.3,0.6-1.7c0.4-0.4,0.9-0.5,1.7-0.5h0.8v1.1H139
			c-0.4,0-0.7,0.1-0.9,0.2c-0.2,0.2-0.3,0.4-0.3,0.8v1.3h1.9v1.1h-1.9v6.8L136.5,214L136.5,214z"/>
		<path class="st1" d="M144.7,214.1c-0.8,0-1.4-0.2-2-0.5s-1.1-0.8-1.4-1.5c-0.3-0.6-0.5-1.4-0.5-2.2s0.2-1.6,0.5-2.2
			c0.3-0.6,0.8-1.1,1.4-1.5c0.6-0.3,1.3-0.5,2-0.5s1.4,0.2,2,0.5s1.1,0.8,1.4,1.5c0.3,0.6,0.5,1.4,0.5,2.2s-0.2,1.6-0.5,2.2
			c-0.3,0.6-0.8,1.1-1.4,1.5S145.4,214.1,144.7,214.1z M144.7,213c0.5,0,0.9-0.1,1.3-0.3c0.4-0.2,0.7-0.6,1-1c0.2-0.5,0.4-1,0.4-1.7
			s-0.1-1.2-0.4-1.7c-0.2-0.5-0.6-0.8-0.9-1s-0.8-0.3-1.3-0.3s-0.9,0.1-1.3,0.3c-0.4,0.2-0.7,0.6-1,1c-0.2,0.4-0.4,1-0.4,1.7
			s0.1,1.2,0.4,1.7c0.2,0.4,0.6,0.8,0.9,1C143.8,212.9,144.2,213,144.7,213z"/>
		<path class="st1" d="M150.6,214v-8h1.2l0.1,1.5c0.2-0.5,0.6-0.9,1.1-1.2s1.1-0.5,1.9-0.5v1.4h-0.4c-0.5,0-0.9,0.1-1.3,0.2
			c-0.4,0.2-0.7,0.4-0.9,0.8c-0.2,0.4-0.3,0.9-0.3,1.6v4h-1.4V214z"/>
		<path class="st1" d="M159.6,214.1c-0.8,0-1.4-0.2-2-0.5s-1.1-0.8-1.4-1.4c-0.3-0.6-0.5-1.4-0.5-2.2s0.2-1.6,0.5-2.2
			c0.3-0.6,0.8-1.1,1.4-1.5s1.3-0.5,2.1-0.5s1.4,0.2,2,0.5s1,0.8,1.3,1.4c0.3,0.6,0.4,1.2,0.4,1.8c0,0.1,0,0.2,0,0.4s0,0.2,0,0.4
			h-6.3c0,0.6,0.2,1.1,0.4,1.5s0.6,0.7,0.9,0.9c0.4,0.2,0.8,0.3,1.2,0.3c0.5,0,1-0.1,1.4-0.4c0.4-0.3,0.6-0.6,0.8-1h1.3
			c-0.2,0.7-0.6,1.4-1.2,1.8C161.3,213.9,160.6,214.1,159.6,214.1z M159.6,207c-0.6,0-1.2,0.2-1.7,0.6c-0.5,0.4-0.8,1-0.9,1.7h5
			c0-0.7-0.3-1.3-0.7-1.7C160.9,207.2,160.3,207,159.6,207z"/>
		<path class="st1" d="M26,236c-0.7,0-1.3-0.2-1.7-0.5c-0.4-0.4-0.6-1-0.6-1.9v-4.4h-1.4V228h1.4l0.2-1.9H25v1.9h2.3v1.1H25v4.4
			c0,0.5,0.1,0.8,0.3,1c0.2,0.2,0.6,0.3,1.1,0.3h0.8v1.2H26z"/>
		<path class="st1" d="M29.1,236v-8h1.2l0.1,1.5c0.2-0.5,0.6-0.9,1.1-1.2c0.5-0.3,1.1-0.5,1.9-0.5v1.4H33c-0.5,0-0.9,0.1-1.3,0.2
			c-0.4,0.2-0.7,0.4-0.9,0.8c-0.2,0.4-0.3,0.9-0.3,1.6v4h-1.4V236z"/>
		<path class="st1" d="M35.8,239.5l2-4.3h-0.5l-3.2-7.2h1.5l2.6,6.2L41,228h1.4l-5.2,11.5H35.8z"/>
		<path class="st1" d="M44.6,226.3c-0.3,0-0.5-0.1-0.7-0.3s-0.3-0.4-0.3-0.7s0.1-0.5,0.3-0.6c0.2-0.2,0.4-0.3,0.7-0.3
			s0.5,0.1,0.7,0.3s0.3,0.4,0.3,0.6c0,0.3-0.1,0.5-0.3,0.7S44.9,226.3,44.6,226.3z M43.9,236v-8h1.3v7.9h-1.3V236z"/>
		<path class="st1" d="M47.6,236v-8h1.2l0.1,1.4c0.3-0.5,0.6-0.9,1.1-1.2s1-0.4,1.6-0.4c0.9,0,1.7,0.3,2.2,0.9
			c0.6,0.6,0.8,1.5,0.8,2.6v4.6h-1.3v-4.5c0-1.7-0.7-2.5-2-2.5c-0.7,0-1.2,0.2-1.7,0.7c-0.4,0.5-0.7,1.2-0.7,2.1v4.1L47.6,236
			L47.6,236z"/>
		<path class="st1" d="M59.9,233.5c-0.5,0-0.9-0.1-1.2-0.2l-0.8,0.8c0.1,0.1,0.3,0.2,0.4,0.2s0.4,0.1,0.8,0.2
			c0.3,0.1,0.8,0.1,1.4,0.1c1.1,0.1,1.8,0.3,2.3,0.7s0.7,1,0.7,1.6c0,0.5-0.1,0.9-0.4,1.3s-0.6,0.8-1.1,1c-0.5,0.3-1.2,0.4-2,0.4
			c-0.7,0-1.3-0.1-1.9-0.3c-0.5-0.2-1-0.5-1.3-0.9s-0.5-0.9-0.5-1.4c0-0.3,0.1-0.6,0.2-1s0.5-0.7,0.9-1c-0.2-0.1-0.4-0.2-0.6-0.3
			c-0.2-0.1-0.3-0.2-0.5-0.4v-0.4l1.4-1.3c-0.6-0.5-0.9-1.2-0.9-2.1c0-0.5,0.1-1,0.4-1.4c0.2-0.4,0.6-0.8,1.1-1s1-0.4,1.7-0.4
			c0.5,0,0.9,0.1,1.2,0.2h2.9v1l-1.5,0.1c0.3,0.4,0.5,1,0.5,1.5s-0.1,1-0.4,1.4c-0.2,0.4-0.6,0.8-1.1,1
			C61.1,233.3,60.6,233.5,59.9,233.5z M57.6,237c0,0.5,0.2,0.9,0.7,1.2s1,0.4,1.7,0.4s1.2-0.1,1.6-0.4s0.6-0.7,0.6-1.1
			c0-0.3-0.1-0.6-0.4-0.9s-0.8-0.4-1.5-0.4c-0.6,0-1.1-0.1-1.5-0.2c-0.4,0.2-0.7,0.5-0.9,0.8C57.6,236.5,57.6,236.8,57.6,237z
			 M59.9,232.4c0.6,0,1-0.1,1.3-0.4c0.3-0.3,0.5-0.7,0.5-1.3c0-0.5-0.2-1-0.5-1.3s-0.8-0.4-1.3-0.4c-0.6,0-1,0.1-1.4,0.4
			c-0.3,0.3-0.5,0.7-0.5,1.3c0,0.5,0.2,1,0.5,1.3C58.9,232.2,59.3,232.4,59.9,232.4z"/>
		<path class="st1" d="M73,236c-0.7,0-1.3-0.2-1.7-0.5c-0.4-0.4-0.6-1-0.6-1.9v-4.4h-1.4V228h1.4l0.2-1.9H72v1.9h2.3v1.1H72v4.4
			c0,0.5,0.1,0.8,0.3,1c0.2,0.2,0.6,0.3,1.1,0.3h0.8v1.2H73z"/>
		<path class="st1" d="M76,236v-11.5h1.3v4.9c0.3-0.5,0.6-0.9,1.1-1.1c0.5-0.3,1-0.4,1.6-0.4c0.9,0,1.7,0.3,2.2,0.9
			c0.6,0.6,0.8,1.5,0.8,2.6v4.6h-1.3v-4.5c0-1.7-0.7-2.5-2-2.5c-0.7,0-1.3,0.2-1.7,0.7c-0.5,0.5-0.7,1.2-0.7,2.1v4.1L76,236L76,236z
			"/>
		<path class="st1" d="M86,226.3c-0.3,0-0.5-0.1-0.7-0.3s-0.3-0.4-0.3-0.7s0.1-0.5,0.3-0.6c0.2-0.2,0.4-0.3,0.7-0.3s0.5,0.1,0.7,0.3
			s0.3,0.4,0.3,0.6c0,0.3-0.1,0.5-0.3,0.7C86.5,226.2,86.2,226.3,86,226.3z M85.3,236v-8h1.3v7.9h-1.3V236z"/>
		<path class="st1" d="M92,236.1c-1,0-1.7-0.2-2.4-0.7c-0.6-0.5-1-1.1-1.1-2h1.4c0.1,0.4,0.3,0.8,0.7,1.1c0.3,0.3,0.8,0.5,1.4,0.5
			s1-0.1,1.2-0.4c0.3-0.2,0.4-0.5,0.4-0.9c0-0.5-0.2-0.8-0.5-1c-0.4-0.2-0.8-0.3-1.5-0.4c-0.4-0.1-0.9-0.2-1.3-0.4s-0.8-0.4-1.1-0.7
			s-0.4-0.7-0.4-1.2c0-0.7,0.3-1.3,0.8-1.7s1.2-0.7,2.1-0.7c0.8,0,1.5,0.2,2.1,0.6c0.5,0.4,0.8,1,0.9,1.8h-1.3
			c-0.1-0.4-0.2-0.7-0.5-1c-0.3-0.2-0.7-0.3-1.2-0.3s-0.9,0.1-1.1,0.3c-0.3,0.2-0.4,0.5-0.4,0.8s0.2,0.6,0.5,0.8s0.8,0.3,1.4,0.5
			c0.5,0.1,1,0.2,1.4,0.4c0.4,0.1,0.8,0.4,1.1,0.7c0.3,0.3,0.4,0.7,0.4,1.3c0,0.7-0.3,1.3-0.8,1.8C93.7,235.9,93,236.1,92,236.1z"/>
		<path class="st1" d="M102.8,236l-2.3-7.9h1.3l1.7,6.2l1.9-6.2h1.5l1.9,6.2l1.7-6.2h1.4l-2.3,7.9h-1.4l-1.9-6.5l-2,6.5H102.8z"/>
		<path class="st1" d="M116.6,236.1c-0.8,0-1.4-0.2-2-0.5s-1.1-0.8-1.4-1.5c-0.3-0.6-0.5-1.4-0.5-2.2s0.2-1.6,0.5-2.2
			c0.3-0.6,0.8-1.1,1.4-1.5c0.6-0.3,1.3-0.5,2-0.5c0.8,0,1.4,0.2,2,0.5s1.1,0.8,1.4,1.5c0.3,0.6,0.5,1.4,0.5,2.2s-0.2,1.6-0.5,2.2
			c-0.4,0.6-0.8,1.1-1.4,1.5S117.4,236.1,116.6,236.1z M116.6,235c0.5,0,0.9-0.1,1.3-0.3s0.7-0.6,1-1c0.2-0.5,0.4-1,0.4-1.7
			s-0.1-1.2-0.4-1.7c-0.2-0.4-0.6-0.8-0.9-1c-0.4-0.2-0.8-0.3-1.3-0.3s-0.9,0.1-1.3,0.3s-0.7,0.6-1,1c-0.2,0.4-0.4,1-0.4,1.7
			s0.1,1.2,0.4,1.7c0.2,0.4,0.6,0.8,0.9,1C115.7,234.9,116.2,235,116.6,235z"/>
		<path class="st1" d="M122.5,236v-8h1.2l0.1,1.5c0.2-0.5,0.6-0.9,1.1-1.2s1.1-0.5,1.9-0.5v1.4h-0.4c-0.5,0-0.9,0.1-1.3,0.2
			c-0.4,0.2-0.7,0.4-0.9,0.8c-0.2,0.4-0.3,0.9-0.3,1.6v4h-1.4V236z"/>
		<path class="st1" d="M128.3,236v-11.5h1.3v6.9l3.2-3.3h1.7l-3.5,3.6l4,4.4h-1.7l-3.6-4.1v4.1L128.3,236L128.3,236z"/>
		<path class="st1" d="M139.4,236.1c-0.8,0-1.4-0.2-2-0.5s-1.1-0.8-1.4-1.5c-0.3-0.6-0.5-1.4-0.5-2.2s0.2-1.6,0.5-2.2
			c0.3-0.6,0.8-1.1,1.4-1.5c0.6-0.3,1.3-0.5,2-0.5s1.4,0.2,2,0.5s1.1,0.8,1.4,1.5c0.3,0.6,0.5,1.4,0.5,2.2s-0.2,1.6-0.5,2.2
			c-0.3,0.6-0.8,1.1-1.4,1.5S140.1,236.1,139.4,236.1z M139.4,235c0.5,0,0.9-0.1,1.3-0.3c0.4-0.2,0.7-0.6,1-1c0.2-0.5,0.4-1,0.4-1.7
			s-0.1-1.2-0.4-1.7c-0.2-0.5-0.6-0.8-0.9-1s-0.8-0.3-1.3-0.3s-0.9,0.1-1.3,0.3c-0.4,0.2-0.7,0.6-1,1c-0.2,0.4-0.4,1-0.4,1.7
			s0.1,1.2,0.4,1.7c0.2,0.4,0.6,0.8,0.9,1C138.5,234.9,138.9,235,139.4,235z"/>
		<path class="st1" d="M148.1,236.1c-0.9,0-1.7-0.3-2.2-0.9c-0.5-0.6-0.8-1.5-0.8-2.6V228h1.3v4.5c0,1.6,0.7,2.5,2,2.5
			c0.7,0,1.3-0.2,1.7-0.7s0.7-1.2,0.7-2.1V228h1.3v7.9H151l-0.1-1.4c-0.2,0.5-0.6,0.9-1.1,1.2C149.3,236,148.7,236.1,148.1,236.1z"
			/>
		<path class="st1" d="M157.5,236c-0.7,0-1.3-0.2-1.7-0.5c-0.4-0.4-0.6-1-0.6-1.9v-4.4h-1.4V228h1.4l0.2-1.9h1.2v1.9h2.3v1.1h-2.3
			v4.4c0,0.5,0.1,0.8,0.3,1s0.6,0.3,1.1,0.3h0.8v1.2H157.5z"/>
		<path class="st1" d="M161,236c-0.3,0-0.5-0.1-0.7-0.3s-0.3-0.4-0.3-0.6s0.1-0.5,0.3-0.6c0.2-0.2,0.4-0.3,0.7-0.3s0.5,0.1,0.6,0.3
			c0.2,0.2,0.3,0.4,0.3,0.6s-0.1,0.5-0.3,0.6C161.5,236,161.3,236,161,236z"/>
		<path class="st2" d="M42,33.3c-12.2,0-22,9.9-22,22.1s9.9,22.1,22.1,22.1s22.1-9.9,22.1-22.1C64.1,43.2,54.2,33.3,42,33.3z
			 M44.3,64c0,1-0.8,1.9-1.9,1.9h-0.9c-1,0-1.9-0.8-1.9-1.9v-0.9c0-1,0.8-1.9,1.9-1.9h0.9c1,0,1.9,0.8,1.9,1.9V64z M44.3,55.7
			c0,1-0.8,1.9-1.9,1.9h-0.9c-1,0-1.9-0.8-1.9-1.9V45.1c0-1,0.8-1.9,1.9-1.9h0.9c1,0,1.9,0.8,1.9,1.9V55.7z"/>
		<path class="st2" d="M75.8,49.2V38h1.3v11.2H75.8z"/>
		<path class="st2" d="M79.5,49.2V38h1.6l4,7.8l4-7.8h1.6v11.2h-1.3v-8.8l-3.7,7.2h-1L81,40.4v8.8H79.5z"/>
		<path class="st2" d="M93,49.2V38h3.7c0.9,0,1.6,0.1,2.2,0.4c0.6,0.3,1,0.7,1.3,1.2s0.4,1.1,0.4,1.7s-0.1,1.2-0.4,1.6
			c-0.3,0.5-0.7,0.9-1.2,1.2c-0.6,0.3-1.3,0.4-2.2,0.4h-2.3v4.7C94.5,49.2,93,49.2,93,49.2z M94.4,43.4h2.3c0.9,0,1.5-0.2,1.9-0.6
			c0.4-0.4,0.6-0.9,0.6-1.6c0-0.7-0.2-1.2-0.6-1.6c-0.4-0.4-1-0.6-1.9-0.6h-2.3V43.4z"/>
		<path class="st2" d="M107.4,49.4c-1.1,0-2.1-0.2-2.9-0.7s-1.5-1.2-1.9-2c-0.5-0.9-0.7-1.9-0.7-3s0.2-2.2,0.7-3
			c0.5-0.9,1.1-1.6,1.9-2c0.8-0.5,1.8-0.7,2.9-0.7s2.1,0.2,2.9,0.7s1.5,1.2,1.9,2c0.5,0.9,0.7,1.9,0.7,3s-0.2,2.1-0.7,3
			s-1.1,1.5-1.9,2C109.5,49.1,108.5,49.4,107.4,49.4z M107.4,48.2c0.8,0,1.5-0.2,2.2-0.6c0.6-0.4,1.1-0.9,1.5-1.6
			c0.4-0.7,0.5-1.5,0.5-2.5s-0.2-1.8-0.5-2.5c-0.4-0.7-0.8-1.2-1.5-1.6c-0.6-0.4-1.4-0.6-2.2-0.6s-1.5,0.2-2.2,0.6
			c-0.6,0.4-1.1,0.9-1.5,1.6c-0.3,0.7-0.5,1.5-0.5,2.5s0.2,1.8,0.5,2.5c0.4,0.7,0.8,1.2,1.5,1.6S106.6,48.2,107.4,48.2z"/>
		<path class="st2" d="M114.9,49.2V38h3.6c0.9,0,1.6,0.1,2.1,0.4c0.6,0.3,1,0.7,1.2,1.2c0.3,0.5,0.4,1.1,0.4,1.7
			c0,0.7-0.2,1.3-0.6,1.9c-0.4,0.6-1,1-1.8,1.2l2.4,4.8h-1.6l-2.3-4.6h-0.1H116v4.6L114.9,49.2L114.9,49.2z M116.2,43.5h2.2
			c0.9,0,1.5-0.2,1.9-0.6c0.4-0.4,0.6-1,0.6-1.6c0-0.7-0.2-1.2-0.6-1.6s-1-0.6-1.9-0.6h-2.2V43.5L116.2,43.5z"/>
		<path class="st2" d="M127,49.2V39.1h-3.3V38h8v1.1h-3.3v10.1C128.4,49.2,127,49.2,127,49.2z"/>
		<path class="st2" d="M131.3,49.2l4.1-11.2h1.4l4.1,11.2h-1.4l-1-2.9h-4.8l-1,2.9H131.3z M134.2,45.2h4l-2-5.5L134.2,45.2z"/>
		<path class="st2" d="M142.7,49.2V38h1.3l6,9v-9h1.3v11.2H150l-6-9v9H142.7z"/>
		<path class="st2" d="M156.3,49.2V39.1H153V38h8v1.1h-3.3v10.1C157.7,49.2,156.3,49.2,156.3,49.2z"/>
		<path class="st2" d="M75.8,71.2V60h1.3l6,9v-9h1.3v11.2h-1.3l-6-9v9H75.8z"/>
		<path class="st2" d="M91.9,71.4c-1.1,0-2.1-0.2-2.9-0.7s-1.5-1.2-1.9-2c-0.5-0.9-0.7-1.9-0.7-3s0.2-2.2,0.7-3
			c0.5-0.9,1.1-1.6,1.9-2c0.8-0.5,1.8-0.7,2.9-0.7s2.1,0.2,2.9,0.7s1.5,1.2,1.9,2c0.5,0.9,0.7,1.9,0.7,3s-0.2,2.1-0.7,3
			s-1.1,1.5-1.9,2C94,71.1,93,71.4,91.9,71.4z M91.9,70.2c0.8,0,1.5-0.2,2.2-0.6s1.1-0.9,1.5-1.6c0.3-0.7,0.5-1.5,0.5-2.5
			s-0.2-1.8-0.5-2.5s-0.8-1.2-1.5-1.6c-0.6-0.4-1.3-0.6-2.2-0.6s-1.5,0.2-2.2,0.6c-0.6,0.4-1.1,0.9-1.5,1.6
			c-0.3,0.7-0.5,1.5-0.5,2.5s0.2,1.8,0.5,2.5c0.4,0.7,0.8,1.2,1.5,1.6S91.1,70.2,91.9,70.2z"/>
		<path class="st2" d="M101.4,71.2V61.1h-3.3V60h8v1.1h-3.3v10.1H101.4z"/>
		<path class="st2" d="M107.7,71.2V60h6.9v1.1H109V65h5.1v1.1H109v4h5.6v1.1H107.7L107.7,71.2z"/>
		<path class="st3" d="M309.3,131.3c-13,30-47.9,43.7-77.8,30.7c-47.1-20.4-37.1-63-24.1-93"/>
		<path class="st4" d="M228.1,39.9c2.7,1.9,7.1,6.9,4.7,12.6l-5.6,13l-2.6-1.1l5.6-13c0.9-2,0.6-4.1-0.9-6.3
			c-1.2-1.7-2.8-2.8-2.8-2.8L228.1,39.9z"/>
		<path class="st4" d="M222.2,46.6l0.8,0.3c1.4,0.6,3,0,3.6-1.4l3.3-7.5c0.6-1.4,0-3-1.4-3.6l-0.8-0.3c-1.4-0.6-3,0-3.6,1.4
			l-3.3,7.5C220.1,44.4,220.8,46,222.2,46.6z"/>
		<path class="st4" d="M215.4,34.4l-0.6,2.8c0,0-1.9-0.4-4-0.1c-2.6,0.4-4.3,1.6-5.2,3.6l-5.6,13l-2.6-1.1l5.6-13
			C205.5,33.9,212.2,33.7,215.4,34.4z"/>
		<path class="st4" d="M214.5,43.3l-0.8-0.3c-1.4-0.6-2-2.2-1.4-3.6l3.3-7.5c0.6-1.4,2.2-2,3.6-1.4l0.8,0.3c1.4,0.6,2,2.2,1.4,3.6
			l-3.3,7.5C217.5,43.3,215.9,43.9,214.5,43.3z"/>
		<path class="st4" d="M225.1,62.5c-1.1-0.5-2.4,0-2.9,1.1c0,0.1-0.1,0.2-0.2,0.4c-1.1,2.2-5.2,9.1-14.2,5.2
			c-8.6-3.7-6.9-10.9-5.8-13.8c0.1-0.1,0.1-0.3,0.2-0.4c0.5-1.1,0-2.4-1.2-2.9l-2.7-1.2c-1.1-0.5-2.4,0-2.9,1.2
			c-0.1,0.2-0.2,0.5-0.3,0.7c-3.1,8.1-1.3,18.5,9.7,23.3c12.8,5.5,21-2.9,23.8-8.8c0.1-0.2,0.2-0.4,0.3-0.6c0.5-1.1,0-2.4-1.1-2.9
			L225.1,62.5z"/>
		<path class="st4" d="M318.5,110c6.9,3,10,11,7,17.9s-11,10-17.9,7s-10-11-7-17.8C303.7,110.2,311.7,107,318.5,110z M310.7,128.1
			c3.1,1.4,6.8-0.1,8.1-3.2c1.4-3.1-0.1-6.8-3.2-8.1c-3.1-1.3-6.8,0.1-8.1,3.2C306.1,123.1,307.6,126.7,310.7,128.1z"/>
		<path class="st5" d="M248.8,120.8v63.7h28.6v-55.8l-8.3-7.9C269.1,120.8,248.8,120.8,248.8,120.8z"/>
		<path class="st1" d="M269.5,120.8h-5.3l12,10.3c0.1,0.1,0.3,0.2,0.3,0.3c0.9,1.1,0.7,2.7-0.4,3.6l-11,8.8l3.9,5.7
			c0.6,0.9,0.6,2.1-0.1,3l-22.7,27.6v58.4h36.6c1.1,0,2-0.9,2-2v-34l5.1-5.1v-56.6c0-3-0.7-5.9-1.8-8.5
			C285,125.1,277.4,120.8,269.5,120.8z"/>
		<path class="st1" d="M290.2,142.3h-15.6v57.8h15.6V142.3z"/>
		<path class="st6" d="M259.2,226.2V220c0-1.1,0.9-2.1,2.1-2.1h11.3c1.1,0,2.1,0.9,2.1,2.1v6.1c0,1.1-0.9,2.1-2.1,2.1h-11.3
			C260.1,228.3,259.2,227.3,259.2,226.2z"/>
		<path class="st6" d="M259.2,213.7c0-1.2,1-2.2,2.2-2.2h11c1.2,0,2.2,1,2.2,2.2s-1,2.2-2.2,2.2h-11
			C260.2,215.9,259.2,214.9,259.2,213.7z"/>
		<path class="st5" d="M228.5,120.8l-8.3,7.9v55.8h28.6v-63.7H228.5z"/>
		<path class="st6" d="M228.6,149.6l3.9-5.7l-11-8.8c-1.1-0.9-1.3-2.5-0.4-3.6c0.1-0.1,0.2-0.2,0.3-0.3l12-10.3h-5.3
			c-7.9,0-15.4,4.3-18.7,11.5c-1.2,2.6-1.8,5.5-1.8,8.5v56.6l5.1,5.2v34c0,1.1,0.9,2,2,2h36.6v-58.4l-22.7-27.6
			C228.1,151.7,228,150.5,228.6,149.6z"/>
		<path class="st5" d="M208.5,203.1h13.7c0.5,0,0.9-0.4,0.9-0.9v-5h-15.6v5C207.5,202.7,208,203.1,208.5,203.1z"/>
		<path class="st1" d="M236.4,228.3h-11.3c-1.1,0-2.1-0.9-2.1-2.1V220c0-1.1,0.9-2.1,2.1-2.1h11.3c1.1,0,2.1,0.9,2.1,2.1v6.1
			C238.5,227.3,237.6,228.3,236.4,228.3z"/>
		<path class="st1" d="M236.3,215.9h-11c-1.2,0-2.2-1-2.2-2.2s1-2.2,2.2-2.2h11c1.2,0,2.2,1,2.2,2.2S237.5,215.9,236.3,215.9z"/>
		<path class="st6" d="M241.7,120.8l7.2,61.1l7.2-61.1C256.1,120.8,241.7,120.8,241.7,120.8z"/>
		<path class="st5" d="M289.2,203.1h-13.7c-0.5,0-1-0.4-1-0.9v-5h15.6v5C290.2,202.7,289.7,203.1,289.2,203.1z"/>
		<path class="st4" d="M291.4,110.7h-7.1c-1.5,0-2.8-1.3-2.8-2.8V86.3c0-1.6,1.3-2.8,2.8-2.8h7.1c1.5,0,2.8,1.3,2.8,2.8v21.6
			C294.2,109.4,292.9,110.7,291.4,110.7z"/>
		<path class="st4" d="M301.4,93.6v7.1c0,1.6-1.3,2.8-2.8,2.8H277c-1.5,0-2.8-1.3-2.8-2.8v-7.1c0-1.6,1.3-2.8,2.8-2.8h21.6
			C300.2,90.7,301.4,92,301.4,93.6z"/>
	</g>
</g>
</svg>
