<?xml version="1.0" encoding="utf-8"?>
<!-- Generator: Adobe Illustrator 25.1.0, SVG Export Plug-In . SVG Version: 6.00 Build 0)  -->
<svg version="1.1" id="Layer_1" xmlns="http://www.w3.org/2000/svg" xmlns:xlink="http://www.w3.org/1999/xlink" x="0px" y="0px"
	 viewBox="0 0 336.6 229.1" style="enable-background:new 0 0 336.6 229.1;" xml:space="preserve">
<style type="text/css">
	.st0{fill:#FFFFFF;}
	.st1{fill:#00CDDC;}
	.st2{fill:#808080;}
	.st3{fill:#00A878;}
	.st4{fill:#28C86E;}
	.st5{fill:#32DCD2;}
	.st6{fill:none;stroke:#28C86E;stroke-width:1.4305;stroke-linecap:round;stroke-miterlimit:10;}
	.st7{fill:#FFCF8D;}
	.st8{fill:#FF9F1A;}
	.st9{fill:#BFF2F6;}
</style>
<g>
	<g>
		<g>
			<path class="st0" d="M332.9,165.3c0-145,22-147.8-40.8-158.8c-26.3-4.6-156.6-7-191.7-6.4C65.9,0.7,15.2-2.3,9.1,20
				C3.1,42,0,76,0,115.5c0,62.1,1.5,102,37,109.8c36,8,158.7,1.1,202.2,0.1C284,224.4,332.9,228.7,332.9,165.3z"/>
			<path class="st1" d="M211.2,85.8c-0.1-0.5-0.5-2.2-0.1-2.2c1.4,0.1,3.4,0.1,6,0c2.8-0.1,4.8-0.1,6-0.1c0.3,0.1,0.7,1.4,0.8,2.1
				c0.2,1.1,0.2,1.7,0,1.7c-2.1-0.1-11.5,0.1-11.5,0.1S211.6,87,211.2,85.8z"/>
			<path class="st1" d="M235.6,70.6c0.2-0.1,0.4-0.1,0.7-0.1c0.2,0,0.4-0.1,0.6-0.1c0.1,0,0.2-0.1,0.3-0.1h0.1
				c0.2,0,0.5,0.2,0.9,0.6c0.3,0.4,0.5,0.9,0.6,1.3c0,0.1,0.1,0.5,0.1,1.1c0,1.6-0.3,6-0.8,13.3c-0.1,1.5-0.1,2.3-0.1,2.4
				c0,0.5,0.1,0.8,0.4,0.8h0.2c0.3,0,0.5-0.3,0.6-0.9c0.1-0.5,0.2-1.9,0.3-4c0.1-3.2,0.4-4.9,0.7-5.3c0.4-0.4,1-0.6,1.8-0.6
				c1.1,0,1.9,0.3,2.5,0.8c0.3,0.4,0.5,1.1,0.6,2c0.1,1,0.1,3.4,0.2,7.2c0.1,8.3,0.3,13,0.7,14.2c0.1,0.1,0.1,0.3,0.1,0.5
				c0,1.1-0.6,2-1.9,2.6c-0.5,0.2-0.9,0.4-1.3,0.4c-0.4,0-0.8-0.1-1.1-0.4c-0.6-0.3-1.1-0.7-1.4-1.2c-0.2-0.3-0.4-2-0.6-5.1
				c-0.1-2.4-0.2-3.9-0.4-4.6c-0.1-0.7-0.5-1-0.9-1c-0.3,0-0.6,0-0.8,0.1c-2,0.3-3.2,0.5-3.5,0.5c-0.6,0-1.2-0.3-1.7-0.9
				c-0.5-0.7-0.8-1.6-0.8-2.8c0-0.8,0.1-1.5,0.4-2c0.3-0.9,0.8-5.7,1.4-14.4c0.2-2.4,0.4-3.7,0.6-3.9
				C234.1,70.9,234.7,70.8,235.6,70.6z"/>
			<path class="st1" d="M195.3,70.9c0.8-0.6,1.6-0.9,2.4-0.9c0.6,0,1.1,0.2,1.4,0.6c0.3,0.3,0.5,1.1,0.5,2.4c0.1,1.3,0.1,4.3,0.1,9
				c0,2.9,0,5.2,0,6.8c0,1.6,0,2.7,0.1,3.4c0,0.6,0.1,1.8,0.2,3.3c0.1,1.6,0.2,3.2,0.3,4.9l0.2,5.4l-1.4,1c-0.8,0.5-1.4,0.8-1.9,0.8
				c-0.6,0-1.3-0.3-2-0.9l-0.9-0.7l-0.2-12.1c-0.1-5.4-0.2-10.4-0.2-15.2v-2l0.1-5L195.3,70.9z"/>
			<path class="st1" d="M196.5,165c0.3-0.2,0.7-0.2,1.2-0.2c0.3,0,0.6,0,0.8,0c0.8,0.1,1.4,0.2,1.7,0.3s0.6,0.4,0.8,0.8
				c0.3,0.4,0.4,0.9,0.4,1.3c0,0.5-0.2,0.9-0.6,1.3c-0.3,0.3-0.7,0.5-1,0.5c-0.4,0-0.7-0.2-1.1-0.7c-0.2-0.4-0.5-0.5-0.8-0.5
				c-0.2,0-0.5,0.2-0.7,0.5s-0.4,0.7-0.4,1.2v0.2c0,1.5,1.2,4.4,3.5,8.5c0.4,0.7,0.8,1.9,1.1,3.7c0,0.1,0,0.3,0,0.6
				c0,1.5-0.3,2.7-1,3.6c-0.3,0.4-0.7,0.7-1.4,1c-0.6,0.3-1.2,0.4-1.7,0.4c-0.1,0-0.1,0-0.2,0c-0.1,0-0.1,0-0.2,0
				c-0.6-0.1-1.4-0.6-2.3-1.5c-0.9-0.8-1.4-1.5-1.4-2c0-0.2,0.1-0.5,0.5-0.8c0.3-0.3,0.6-0.5,0.9-0.5c0.1,0,0.2,0,0.3,0
				c0.3,0,0.8,0.5,1.5,1.3c0.2,0.4,0.5,0.5,0.8,0.5s0.5-0.2,0.6-0.5c0.1-0.1,0.1-0.3,0.1-0.6c0-1.6-0.7-4-2.2-7.1
				c-1.3-2.9-2-5.1-2-6.5c0-0.6,0.1-1.2,0.3-1.7c0.5-1.1,0.8-1.8,1.1-2.2C195.5,165.7,195.9,165.3,196.5,165z"/>
			<path class="st1" d="M206.6,164.2c0.4-0.3,1-0.5,1.9-0.5h1c1.5,0.1,2.4,0.1,2.7,0.2c0.2,0.1,0.6,0.1,1.2,0.1
				c0.6,0,1.1,0.2,1.4,0.4c0.3,0.2,0.4,0.6,0.4,1.1s-0.1,0.9-0.3,1.1c-0.2,0.2-0.6,0.4-1.1,0.5c-0.6,0.1-0.9,0.2-1,0.3
				s-0.2,2.8-0.2,8c0,3.6,0,6.1,0.1,7.6c0.1,1.2,0.1,1.8,0.1,1.9c0,0.6-0.1,1.1-0.4,1.5c-0.3,0.6-0.8,0.8-1.4,0.8
				c-0.4,0-0.8-0.1-1.3-0.4l-0.8-0.5l0.1-9.6c0.1-2.5,0.1-4.9,0.1-7.4c0-1.5-0.1-2.3-0.3-2.4c-0.3-0.2-0.6-0.2-0.6-0.2
				c-0.1,0-0.3,0-0.5,0c-0.5,0-0.9-0.1-1.3-0.4c-0.3-0.3-0.5-0.6-0.5-1C205.9,165,206.1,164.6,206.6,164.2z"/>
			<path class="st1" d="M220.9,164.3c0.5-0.2,1.2-0.2,1.9-0.2c0.8,0,1.5,0.1,1.8,0.2c0.7,0.3,1.3,0.9,1.7,1.7
				c0.2,0.4,0.3,1.1,0.5,2.2c0.2,1.1,0.2,2,0.2,2.9c0,0.4,0,0.7,0,0.8c-0.1,0.7-0.3,1.5-0.6,2.4s-0.5,1.3-0.6,1.3
				c-0.2,0-0.3,0.2-0.3,0.6c0,0.3,0.1,0.6,0.3,0.9c0.4,0.6,1.1,1.8,1.9,3.6s1.3,2.8,1.3,3.3c0,0.1,0,0.3,0,0.6c0,0.4-0.1,0.7-0.3,1
				s-0.5,0.5-0.8,0.5s-0.5,0-0.8,0c-0.7-0.1-1.1-0.2-1.3-0.3s-0.3-0.3-0.3-0.7c0-0.6-0.3-1.4-0.9-2.6c-0.6-1.1-1-1.7-1.3-1.7l0,0
				c-0.1,0.1-0.1,0.4-0.1,0.9c0,0.8,0.1,1.8,0.2,2.8c0.1,0.5,0.1,0.8,0.1,0.9c0,0.9-0.2,1.5-0.6,1.8c-0.2,0.1-0.4,0.1-0.7,0.1
				c-0.9,0-1.5-0.2-1.7-0.6c-0.1-0.2-0.2-2.1-0.3-5.7c0-1.1-0.1-2.4-0.1-3.7s0-2.3,0-2.9c0-0.6,0-1.4-0.1-2.4s-0.2-2-0.3-3.2
				c-0.1-1.3-0.2-2.1-0.2-2.4c0-0.7,0.1-1.1,0.3-1.4C220,164.6,220.4,164.4,220.9,164.3z M223.5,167.4c-0.1-0.2-0.2-0.3-0.5-0.3
				c-0.2,0-0.3,0.1-0.4,0.3c-0.1,0.2-0.1,0.4,0,0.5c0,0,0.1,0.9,0.2,2.7c0.1,1.8,0.2,2.7,0.3,2.8s0.2-0.1,0.4-0.3s0.2-0.7,0.2-1.4
				c0-0.5,0-1,0-1.4C223.7,168.6,223.6,167.7,223.5,167.4z"/>
			<path class="st1" d="M235.1,166.6c0.3-0.1,0.8-0.1,1.3-0.1c1.5,0,2.5,0.2,2.9,0.5c0.3,0.2,0.4,0.6,0.4,0.9c0,0.4-0.1,0.7-0.4,0.9
				c-0.3,0.2-0.6,0.4-1.1,0.4c-0.4,0-0.7,0.1-0.8,0.3s-0.2,0.7-0.2,1.5c0,0.2,0,0.9,0.1,2.1c0.1,1.4,0.1,2.3,0.2,2.7
				c0.1,0.4,0.2,0.6,0.3,0.6c0,0,0.2,0,0.6,0c0.3,0,0.6,0,0.8,0c0.7,0,1.2,0.2,1.5,0.5c0.2,0.2,0.3,0.4,0.3,0.6
				c0,0.4-0.6,0.9-1.8,1.3c-0.7,0.2-1.1,0.4-1.3,0.6c-0.1,0.1-0.2,0.4-0.3,0.9s-0.1,0.8-0.1,1.2c0,1.4,0.1,2.4,0.4,3.1
				c0.1,0.3,0.2,0.5,0.4,0.5c0.1,0.1,0.4,0.1,0.9,0.1c0.6,0,1.1,0.1,1.5,0.4c0.4,0.3,0.6,0.6,0.6,0.9c0,0.2-0.2,0.6-0.6,1
				c-0.7,0.6-1.8,1-3.4,1c-1.6,0-2.7-0.4-3.2-1c-0.3-0.4-0.4-2.8-0.5-7.2c-0.1-5.5-0.1-8.8-0.2-9.7l-0.1-3.1l0.6-0.3
				C234.4,166.9,234.8,166.7,235.1,166.6z"/>
			<path class="st1" d="M249,165c0.3-0.2,0.7-0.2,1.2-0.2c0.3,0,0.6,0,0.8,0c0.8,0.1,1.4,0.2,1.7,0.3s0.6,0.4,0.8,0.8
				c0.3,0.4,0.4,0.9,0.4,1.3c0,0.5-0.2,0.9-0.6,1.3c-0.3,0.3-0.7,0.5-1,0.5c-0.4,0-0.7-0.2-1-0.7c-0.2-0.4-0.5-0.5-0.8-0.5
				c-0.2,0-0.5,0.2-0.7,0.5s-0.4,0.7-0.4,1.2v0.2c0,1.5,1.2,4.4,3.5,8.5c0.4,0.7,0.8,1.9,1.1,3.7c0,0.1,0,0.3,0,0.6
				c0,1.5-0.3,2.7-1,3.6c-0.3,0.4-0.7,0.7-1.4,1s-1.2,0.4-1.7,0.4c-0.1,0-0.1,0-0.2,0c-0.1,0-0.1,0-0.2,0c-0.6-0.1-1.4-0.6-2.3-1.5
				c-0.9-0.8-1.4-1.5-1.4-2c0-0.2,0.2-0.5,0.5-0.8s0.6-0.5,0.9-0.5c0.1,0,0.1,0,0.3,0c0.3,0,0.8,0.5,1.5,1.3
				c0.2,0.4,0.5,0.5,0.8,0.5s0.5-0.2,0.6-0.5c0.1-0.1,0.1-0.3,0.1-0.6c0-1.6-0.7-4-2.2-7.1c-1.3-2.9-2-5.1-2-6.5
				c0-0.6,0.1-1.2,0.3-1.7c0.5-1.1,0.8-1.8,1.1-2.2C248,165.7,248.4,165.3,249,165z"/>
			<path class="st1" d="M261.4,165c0.3-0.2,0.7-0.2,1.2-0.2c0.3,0,0.6,0,0.8,0c0.8,0.1,1.4,0.2,1.7,0.3c0.3,0.1,0.6,0.4,0.8,0.8
				c0.3,0.4,0.4,0.9,0.4,1.3c0,0.5-0.2,0.9-0.6,1.3c-0.3,0.3-0.7,0.5-1,0.5c-0.4,0-0.7-0.2-1-0.7c-0.2-0.4-0.5-0.5-0.8-0.5
				c-0.2,0-0.5,0.2-0.7,0.5s-0.4,0.7-0.4,1.2v0.2c0,1.5,1.2,4.4,3.5,8.5c0.4,0.7,0.8,1.9,1.1,3.7c0,0.1,0,0.3,0,0.6
				c0,1.5-0.3,2.7-1,3.6c-0.3,0.4-0.7,0.7-1.4,1s-1.2,0.4-1.7,0.4c-0.1,0-0.1,0-0.2,0s-0.1,0-0.2,0c-0.6-0.1-1.4-0.6-2.3-1.5
				c-0.9-0.8-1.4-1.5-1.4-2c0-0.2,0.1-0.5,0.5-0.8c0.3-0.3,0.6-0.5,0.9-0.5c0.1,0,0.1,0,0.3,0c0.3,0,0.8,0.5,1.5,1.3
				c0.2,0.4,0.5,0.5,0.8,0.5s0.5-0.2,0.6-0.5c0.1-0.1,0.1-0.3,0.1-0.6c0-1.6-0.7-4-2.2-7.1c-1.3-2.9-2-5.1-2-6.5
				c0-0.6,0.1-1.2,0.3-1.7c0.5-1.1,0.8-1.8,1.1-2.2C260.4,165.7,260.8,165.3,261.4,165z"/>
			<path class="st1" d="M271,183.2c0.3-0.3,0.6-0.5,0.9-0.5c0.1,0,0.3,0,0.6,0.1c1.1,0.2,1.7,0.7,1.7,1.3c0,0.5-0.4,1-1,1.4
				s-1.1,0.5-1.4,0.5c-0.6,0-1-0.5-1.1-1.4c0-0.2,0-0.4,0-0.6C270.6,183.8,270.7,183.5,271,183.2z"/>
			<path class="st2" d="M196.1,129c-0.9,0-1.7-0.2-2.4-0.7c-0.6-0.5-1-1.1-1.1-2h1.4c0.1,0.4,0.3,0.8,0.7,1.1
				c0.4,0.3,0.8,0.5,1.5,0.5c0.6,0,1-0.1,1.2-0.4c0.3-0.2,0.4-0.5,0.4-0.9c0-0.5-0.2-0.8-0.5-1s-0.8-0.3-1.5-0.4
				c-0.4-0.1-0.9-0.2-1.3-0.4c-0.4-0.2-0.8-0.4-1.1-0.7s-0.4-0.7-0.4-1.2c0-0.7,0.3-1.3,0.8-1.7c0.5-0.4,1.2-0.7,2.1-0.7
				c0.8,0,1.5,0.2,2.1,0.6c0.5,0.4,0.8,1,0.9,1.8h-1.3c-0.1-0.4-0.2-0.7-0.5-0.9c-0.3-0.2-0.7-0.3-1.2-0.3s-0.9,0.1-1.1,0.3
				c-0.3,0.2-0.4,0.5-0.4,0.8s0.2,0.6,0.5,0.8c0.3,0.2,0.8,0.3,1.4,0.5c0.5,0.1,1,0.2,1.4,0.4c0.4,0.1,0.8,0.4,1.1,0.7
				c0.3,0.3,0.4,0.7,0.4,1.3c0,0.7-0.3,1.3-0.8,1.8C197.7,128.8,197,129,196.1,129z"/>
			<path class="st2" d="M203.8,128.8c-0.7,0-1.3-0.2-1.7-0.5c-0.4-0.4-0.6-1-0.6-1.9V122h-1.4v-1.1h1.4l0.2-1.9h1.2v1.9h2.3v1.1
				h-2.3v4.4c0,0.5,0.1,0.8,0.3,1s0.6,0.3,1.1,0.3h0.8v1.2h-1.3V128.8z"/>
			<path class="st2" d="M209.7,129c-0.9,0-1.7-0.3-2.2-0.9c-0.6-0.6-0.8-1.5-0.8-2.6v-4.6h1.3v4.5c0,1.6,0.7,2.5,2,2.5
				c0.7,0,1.3-0.2,1.7-0.7c0.5-0.5,0.7-1.2,0.7-2.1V121h1.3v7.9h-1.2l-0.1-1.4c-0.2,0.5-0.6,0.9-1.1,1.2
				C210.9,128.9,210.4,129,209.7,129z"/>
			<path class="st2" d="M219.6,129c-0.8,0-1.5-0.2-2.1-0.5s-1.1-0.9-1.4-1.5c-0.3-0.6-0.5-1.3-0.5-2.1c0-0.8,0.2-1.5,0.5-2.1
				s0.8-1.1,1.4-1.5c0.6-0.4,1.3-0.5,2.1-0.5c0.7,0,1.2,0.1,1.7,0.4s0.9,0.6,1.2,1.1v-4.9h1.3v11.5h-1.2l-0.1-1.3
				c-0.3,0.4-0.6,0.7-1.1,1S220.3,129,219.6,129z M219.7,127.9c0.5,0,1-0.1,1.4-0.4s0.7-0.6,1-1.1c0.2-0.4,0.3-1,0.3-1.6
				s-0.1-1.1-0.3-1.6c-0.2-0.4-0.5-0.8-1-1.1s-0.9-0.4-1.4-0.4s-1,0.1-1.4,0.4s-0.7,0.6-1,1.1c-0.2,0.4-0.3,1-0.3,1.6
				s0.1,1.1,0.3,1.6c0.2,0.4,0.5,0.8,1,1.1C218.8,127.7,219.2,127.9,219.7,127.9z"/>
			<path class="st2" d="M229.6,129c-0.8,0-1.4-0.2-2-0.5c-0.6-0.4-1.1-0.8-1.4-1.5c-0.3-0.6-0.5-1.4-0.5-2.2c0-0.8,0.2-1.6,0.5-2.2
				s0.8-1.1,1.4-1.5c0.6-0.4,1.3-0.5,2.1-0.5s1.4,0.2,2,0.5s1,0.8,1.3,1.4s0.5,1.2,0.5,1.8c0,0.1,0,0.2,0,0.4c0,0.1,0,0.2,0,0.4H227
				c0,0.6,0.2,1.1,0.4,1.5s0.6,0.7,0.9,0.9c0.4,0.2,0.8,0.3,1.2,0.3c0.6,0,1-0.1,1.4-0.4s0.6-0.6,0.8-1h1.3
				c-0.2,0.7-0.6,1.4-1.2,1.8C231.3,128.8,230.6,129,229.6,129z M229.6,121.9c-0.6,0-1.2,0.2-1.7,0.6s-0.8,1-0.9,1.7h5
				c0-0.7-0.3-1.3-0.7-1.7C230.9,122.1,230.3,121.9,229.6,121.9z"/>
			<path class="st2" d="M235.1,128.8v-7.9h1.2l0.1,1.4c0.3-0.5,0.6-0.9,1.1-1.2c0.5-0.3,1-0.4,1.6-0.4c0.9,0,1.7,0.3,2.2,0.9
				c0.6,0.6,0.8,1.4,0.8,2.6v4.6h-1.3v-4.5c0-1.7-0.7-2.5-2-2.5c-0.7,0-1.2,0.2-1.7,0.7c-0.4,0.5-0.7,1.2-0.7,2.1v4.1L235.1,128.8
				L235.1,128.8z"/>
			<path class="st2" d="M247.4,128.8c-0.7,0-1.3-0.2-1.7-0.5c-0.4-0.4-0.6-1-0.6-1.9V122h-1.4v-1.1h1.4l0.2-1.9h1.2v1.9h2.3v1.1
				h-2.3v4.4c0,0.5,0.1,0.8,0.3,1s0.6,0.3,1.1,0.3h0.8v1.2h-1.3V128.8z"/>
			<path class="st2" d="M253.5,129c-1,0-1.7-0.2-2.4-0.7c-0.6-0.5-1-1.1-1.1-2h1.4c0.1,0.4,0.3,0.8,0.7,1.1c0.4,0.3,0.8,0.5,1.4,0.5
				c0.6,0,1-0.1,1.2-0.4c0.3-0.2,0.4-0.5,0.4-0.9c0-0.5-0.2-0.8-0.5-1c-0.4-0.2-0.8-0.3-1.5-0.4c-0.4-0.1-0.9-0.2-1.3-0.4
				c-0.4-0.2-0.8-0.4-1.1-0.7s-0.4-0.7-0.4-1.2c0-0.7,0.3-1.3,0.8-1.7s1.2-0.7,2.1-0.7c0.8,0,1.5,0.2,2.1,0.6c0.5,0.4,0.8,1,0.9,1.8
				H255c0-0.4-0.2-0.7-0.5-0.9c-0.3-0.2-0.7-0.3-1.2-0.3s-0.8,0.1-1.1,0.3s-0.4,0.5-0.4,0.8s0.2,0.6,0.5,0.8
				c0.3,0.2,0.8,0.3,1.4,0.5c0.5,0.1,1,0.2,1.4,0.4c0.4,0.1,0.8,0.4,1.1,0.7c0.3,0.3,0.4,0.7,0.4,1.3c0,0.7-0.3,1.3-0.8,1.8
				C255.2,128.8,254.5,129,253.5,129z"/>
			<path class="st2" d="M265.8,129c-0.9,0-1.7-0.2-2.4-0.7c-0.6-0.5-1-1.1-1.1-2h1.4c0.1,0.4,0.3,0.8,0.7,1.1
				c0.4,0.3,0.8,0.5,1.5,0.5c0.6,0,1-0.1,1.2-0.4c0.3-0.2,0.4-0.5,0.4-0.9c0-0.5-0.2-0.8-0.5-1c-0.4-0.2-0.8-0.3-1.5-0.4
				c-0.4-0.1-0.9-0.2-1.3-0.4c-0.4-0.2-0.8-0.4-1.1-0.7c-0.3-0.3-0.4-0.7-0.4-1.2c0-0.7,0.3-1.3,0.8-1.7c0.5-0.4,1.2-0.7,2.1-0.7
				c0.8,0,1.5,0.2,2.1,0.6s0.9,1,0.9,1.8h-1.3c0-0.4-0.2-0.7-0.5-0.9c-0.3-0.2-0.7-0.3-1.2-0.3s-0.9,0.1-1.1,0.3
				c-0.3,0.2-0.4,0.5-0.4,0.8s0.2,0.6,0.5,0.8c0.3,0.2,0.8,0.3,1.4,0.5c0.5,0.1,1,0.2,1.4,0.4c0.4,0.1,0.8,0.4,1.1,0.7
				c0.3,0.3,0.4,0.7,0.4,1.3c0,0.7-0.3,1.3-0.8,1.8C267.5,128.8,266.7,129,265.8,129z"/>
			<path class="st2" d="M273.6,129c-0.9,0-1.7-0.3-2.2-0.9c-0.6-0.6-0.8-1.5-0.8-2.6v-4.6h1.3v4.5c0,1.6,0.7,2.5,2,2.5
				c0.7,0,1.3-0.2,1.7-0.7c0.5-0.5,0.7-1.2,0.7-2.1V121h1.3v7.9h-1.2l-0.1-1.4c-0.2,0.5-0.6,0.9-1.1,1.2
				C274.8,128.9,274.2,129,273.6,129z"/>
			<path class="st2" d="M280.3,128.8V122h-1.2v-1.1h1.2v-1.4c0-0.8,0.2-1.3,0.6-1.7c0.4-0.4,0.9-0.5,1.7-0.5h0.8v1.1h-0.6
				c-0.4,0-0.7,0.1-0.9,0.2c-0.2,0.2-0.3,0.4-0.3,0.8v1.3h1.9v1.1h-1.9v6.8L280.3,128.8L280.3,128.8z"/>
			<path class="st2" d="M285.6,128.8V122h-1.2v-1.1h1.2v-1.4c0-0.8,0.2-1.3,0.6-1.7c0.4-0.4,0.9-0.5,1.7-0.5h0.8v1.1h-0.6
				c-0.4,0-0.7,0.1-0.9,0.2s-0.3,0.4-0.3,0.8v1.3h2v1.1h-2v6.8L285.6,128.8L285.6,128.8z"/>
			<path class="st2" d="M293.8,129c-0.8,0-1.4-0.2-2-0.5c-0.6-0.4-1-0.8-1.4-1.5c-0.3-0.6-0.5-1.4-0.5-2.2c0-0.8,0.2-1.6,0.5-2.2
				s0.8-1.1,1.4-1.5s1.3-0.5,2.1-0.5c0.8,0,1.4,0.2,2,0.5s1,0.8,1.3,1.4s0.5,1.2,0.5,1.8c0,0.1,0,0.2,0,0.4c0,0.1,0,0.2,0,0.4h-6.3
				c0,0.6,0.2,1.1,0.4,1.5c0.2,0.4,0.6,0.7,0.9,0.9c0.4,0.2,0.8,0.3,1.2,0.3c0.5,0,1-0.1,1.4-0.4s0.6-0.6,0.8-1h1.3
				c-0.2,0.7-0.6,1.4-1.2,1.8C295.5,128.8,294.7,129,293.8,129z M293.8,121.9c-0.6,0-1.2,0.2-1.7,0.6s-0.8,1-0.9,1.7h5
				c0-0.7-0.3-1.3-0.7-1.7C295,122.1,294.5,121.9,293.8,121.9z"/>
			<path class="st2" d="M299.3,128.8v-7.9h1.2l0.1,1.5c0.2-0.5,0.6-0.9,1.1-1.2c0.5-0.3,1.1-0.5,1.9-0.5v1.4h-0.4
				c-0.5,0-0.9,0.1-1.3,0.2c-0.4,0.2-0.7,0.4-0.9,0.8c-0.2,0.4-0.3,0.9-0.3,1.6v4L299.3,128.8L299.3,128.8z"/>
			<path class="st2" d="M193.4,150.8V144h-1.2v-1.1h1.2v-1.4c0-0.8,0.2-1.3,0.6-1.7c0.4-0.4,0.9-0.5,1.7-0.5h0.8v1.1h-0.6
				c-0.4,0-0.7,0.1-0.9,0.2s-0.3,0.5-0.3,0.8v1.3h2v1.1h-2v6.8L193.4,150.8L193.4,150.8z"/>
			<path class="st2" d="M198.3,150.8v-7.9h1.2l0.1,1.5c0.2-0.5,0.6-0.9,1.1-1.2s1.1-0.5,1.9-0.5v1.4h-0.4c-0.5,0-0.9,0.1-1.3,0.2
				c-0.4,0.2-0.7,0.4-0.9,0.8c-0.2,0.4-0.4,0.9-0.4,1.6v4L198.3,150.8L198.3,150.8z"/>
			<path class="st2" d="M207.4,151c-0.8,0-1.4-0.2-2-0.5s-1.1-0.8-1.4-1.5c-0.3-0.6-0.5-1.4-0.5-2.2s0.2-1.6,0.5-2.2
				c0.3-0.6,0.8-1.1,1.4-1.4c0.6-0.3,1.3-0.5,2-0.5c0.8,0,1.4,0.2,2,0.5s1.1,0.8,1.4,1.4c0.3,0.6,0.5,1.4,0.5,2.2s-0.2,1.6-0.5,2.2
				c-0.3,0.6-0.8,1.1-1.4,1.5S208.2,151,207.4,151z M207.4,149.9c0.5,0,0.9-0.1,1.3-0.3c0.4-0.2,0.7-0.6,1-1c0.2-0.5,0.4-1,0.4-1.7
				s-0.1-1.2-0.4-1.7c-0.2-0.4-0.6-0.8-0.9-1c-0.4-0.2-0.8-0.3-1.3-0.3s-0.9,0.1-1.3,0.3c-0.4,0.2-0.7,0.6-1,1s-0.4,1-0.4,1.7
				s0.1,1.2,0.4,1.7c0.2,0.4,0.6,0.8,0.9,1C206.6,149.8,207,149.9,207.4,149.9z"/>
			<path class="st2" d="M213.3,150.8v-7.9h1.2l0.1,1.1c0.3-0.4,0.6-0.8,1-1s0.9-0.4,1.4-0.4c0.6,0,1.2,0.1,1.6,0.4
				c0.4,0.3,0.8,0.6,1,1.2c0.3-0.5,0.7-0.9,1.1-1.1c0.5-0.3,1-0.4,1.6-0.4c0.9,0,1.7,0.3,2.3,0.9c0.6,0.6,0.9,1.4,0.9,2.6v4.6h-1.3
				v-4.5c0-0.8-0.2-1.4-0.5-1.9c-0.3-0.4-0.8-0.6-1.4-0.6c-0.6,0-1.2,0.2-1.6,0.7c-0.4,0.5-0.6,1.2-0.6,2.1v4.1h-1.3v-4.5
				c0-0.8-0.2-1.4-0.5-1.9c-0.3-0.4-0.8-0.6-1.4-0.6c-0.6,0-1.1,0.2-1.6,0.7c-0.4,0.5-0.6,1.2-0.6,2.1v4.1L213.3,150.8L213.3,150.8z
				"/>
			<path class="st2" d="M234.9,151c-0.9,0-1.7-0.2-2.4-0.7c-0.6-0.5-1-1.1-1.1-2h1.4c0.1,0.4,0.3,0.8,0.7,1.1s0.8,0.5,1.4,0.5
				c0.6,0,1-0.1,1.2-0.4c0.3-0.2,0.4-0.5,0.4-0.9c0-0.5-0.2-0.8-0.5-1s-0.8-0.3-1.5-0.4c-0.4-0.1-0.9-0.2-1.3-0.4
				c-0.4-0.2-0.8-0.4-1.1-0.7s-0.4-0.7-0.4-1.2c0-0.7,0.3-1.3,0.8-1.7s1.2-0.7,2.1-0.7c0.8,0,1.5,0.2,2.1,0.6c0.5,0.4,0.8,1,0.9,1.8
				h-1.3c-0.1-0.4-0.2-0.7-0.5-1c-0.3-0.2-0.7-0.3-1.2-0.3s-0.8,0.1-1.1,0.3s-0.4,0.5-0.4,0.8s0.2,0.6,0.5,0.8s0.8,0.3,1.4,0.5
				c0.5,0.1,1,0.2,1.4,0.4s0.8,0.4,1.1,0.7s0.4,0.7,0.4,1.3c0,0.7-0.3,1.3-0.8,1.8C236.6,150.8,235.9,151,234.9,151z"/>
			<path class="st2" d="M243.4,151c-0.8,0-1.4-0.2-2-0.5s-1.1-0.8-1.4-1.4c-0.3-0.6-0.5-1.4-0.5-2.2s0.2-1.6,0.5-2.2
				c0.3-0.6,0.8-1.1,1.4-1.5c0.6-0.3,1.3-0.5,2.1-0.5s1.4,0.2,2,0.5c0.6,0.4,1,0.8,1.3,1.4c0.3,0.6,0.4,1.2,0.4,1.8
				c0,0.1,0,0.2,0,0.4c0,0.1,0,0.2,0,0.4h-6.3c0,0.6,0.2,1.1,0.4,1.5s0.6,0.7,0.9,0.9c0.4,0.2,0.8,0.3,1.2,0.3c0.5,0,1-0.1,1.4-0.4
				c0.4-0.3,0.7-0.6,0.8-1h1.3c-0.2,0.7-0.6,1.4-1.2,1.8C245.1,150.8,244.4,151,243.4,151z M243.4,143.9c-0.6,0-1.2,0.2-1.7,0.6
				c-0.5,0.4-0.8,1-0.9,1.7h5c0-0.7-0.3-1.3-0.7-1.7C244.7,144.1,244.1,143.9,243.4,143.9z"/>
			<path class="st2" d="M250.9,150.8l-3-7.9h1.4l2.4,6.6l2.4-6.6h1.4l-3,7.9H250.9z"/>
			<path class="st2" d="M260.2,151c-0.8,0-1.4-0.2-2-0.5s-1.1-0.8-1.4-1.4c-0.3-0.6-0.5-1.4-0.5-2.2s0.2-1.6,0.5-2.2
				c0.3-0.6,0.8-1.1,1.4-1.5c0.6-0.3,1.3-0.5,2.1-0.5c0.8,0,1.4,0.2,2,0.5c0.6,0.4,1,0.8,1.3,1.4c0.3,0.6,0.4,1.2,0.4,1.8
				c0,0.1,0,0.2,0,0.4c0,0.1,0,0.2,0,0.4h-6.3c0,0.6,0.2,1.1,0.4,1.5s0.6,0.7,0.9,0.9c0.4,0.2,0.8,0.3,1.2,0.3c0.5,0,1-0.1,1.4-0.4
				c0.4-0.3,0.7-0.6,0.8-1h1.3c-0.2,0.7-0.6,1.4-1.2,1.8C261.9,150.8,261.1,151,260.2,151z M260.2,143.9c-0.6,0-1.2,0.2-1.7,0.6
				c-0.5,0.4-0.8,1-0.9,1.7h5c0-0.7-0.3-1.3-0.7-1.7C261.4,144.1,260.8,143.9,260.2,143.9z"/>
			<path class="st2" d="M265.7,150.8v-7.9h1.2l0.1,1.5c0.2-0.5,0.6-0.9,1.1-1.2s1.1-0.5,1.9-0.5v1.4h-0.4c-0.5,0-0.9,0.1-1.3,0.2
				c-0.4,0.2-0.7,0.4-0.9,0.8c-0.2,0.4-0.4,0.9-0.4,1.6v4L265.7,150.8L265.7,150.8z"/>
			<path class="st2" d="M274.8,151c-0.8,0-1.4-0.2-2-0.5s-1-0.8-1.4-1.4c-0.3-0.6-0.5-1.4-0.5-2.2s0.2-1.6,0.5-2.2
				c0.3-0.6,0.8-1.1,1.4-1.5c0.6-0.3,1.3-0.5,2.1-0.5c0.8,0,1.4,0.2,2,0.5c0.6,0.4,1,0.8,1.3,1.4c0.3,0.6,0.5,1.2,0.5,1.8
				c0,0.1,0,0.2,0,0.4c0,0.1,0,0.2,0,0.4h-6.3c0,0.6,0.2,1.1,0.4,1.5s0.6,0.7,0.9,0.9c0.4,0.2,0.8,0.3,1.2,0.3c0.5,0,1-0.1,1.4-0.4
				c0.4-0.3,0.6-0.6,0.8-1h1.3c-0.2,0.7-0.6,1.4-1.2,1.8C276.5,150.8,275.7,151,274.8,151z M274.8,143.9c-0.6,0-1.2,0.2-1.7,0.6
				c-0.5,0.4-0.8,1-0.9,1.7h5c0-0.7-0.3-1.3-0.7-1.7C276,144.1,275.4,143.9,274.8,143.9z"/>
			<path class="st3" d="M94.6,46.8c0,0-20.9,3.1-33.1-11.6C61.5,35.2,78.9,30.5,94.6,46.8z"/>
			<path class="st4" d="M83.9,36.3c0,0-7.1,4.2-25.7,0.9C58.2,37.2,65.1,26.5,83.9,36.3z"/>
			<path class="st5" d="M48.6,37.3c-7.3,3.4-18.5,13.1-17.2,32.4c0.3,5.2,1.7,13,4.9,18.5c3.2,5.4-1.6,9.7-0.8,15s8.5,2.9,31.5,1
				c13.8-1.1,22.3,5.7,24-0.8c1.6-6.2-2.6-7.6-0.7-13.4c2.4-7.2,4.8-8.4,5.4-19.5C97.7,33.4,62.6,30.8,48.6,37.3z"/>
			<path d="M54.5,55.1c0,1.3-1,1.9-2.3,1.9C51,57,50,56.4,50,55.1c0-1.3,1-2.3,2.3-2.3C53.5,52.9,54.5,53.9,54.5,55.1z"/>
			<path d="M73.4,55.1c0,1.3-1,1.9-2.3,1.9s-2.3-0.6-2.3-1.9c0-1.3,1-2.3,2.3-2.3C72.3,52.9,73.4,53.9,73.4,55.1z"/>
			<path class="st1" d="M83.2,46.2c3.5,3.8,10.9,12.7,11,14.3s-12.6,1.4-18.8-3.2c-3.3-2.4-5.9-6.2-6.8-11.9
				c-1.1-6.7,2.9-6.4,6.6-4.9C78.3,41.8,81,43.8,83.2,46.2z"/>
			<path class="st4" d="M56.8,28.7c0,0-0.4,3.8,3.1,6C59.8,34.7,60.3,33.2,56.8,28.7z"/>
			<path class="st6" d="M62.1,37.6c-1.6-1.8-3.8-7.1-11.4-5.4"/>
			<path class="st7" d="M48.9,31.5c0,0-3.2,4.4-1,4.4C50.2,35.8,50.6,31.3,48.9,31.5z"/>
			<path class="st7" d="M49.7,30.7c0,0-1.7,5.4,0.6,4.3C52.6,34,51.2,29.9,49.7,30.7z"/>
			<path class="st7" d="M49.9,30.5c0,0-5.1,1.4-3.7,3.2C47.6,35.5,51,31.6,49.9,30.5z"/>
			<path class="st7" d="M50.6,33c0,0,0.2-6.4-2-4.5C46.4,30.4,49.2,34.5,50.6,33z"/>
			<path class="st7" d="M49.4,31.2c0,0,0.5-4.3,2.3-3.1C53.5,29.4,50.6,32.2,49.4,31.2z"/>
			<path class="st7" d="M49.5,30c0,0,5.3,0.3,3.6,2.2C51.4,34.1,48.2,31.2,49.5,30z"/>
			<path class="st8" d="M50.8,31.9c0.6-1.1,0.6-2.3-0.1-2.7c-0.7-0.4-1.7,0.2-2.4,1.4c-0.6,1.1-0.6,2.3,0.1,2.7
				C49.1,33.6,50.1,33,50.8,31.9z"/>
			<path class="st1" d="M51.8,40.5c-3.6,0.6-6.8,2.4-9.4,4.9c-4,3.9-8.9,11.4-9.2,12.6c-0.4,1.8,17.9,4.3,24-11.4
				C59.8,40.3,55.8,39.8,51.8,40.5z"/>
			<path d="M63.6,64.2c0,1-1.1,0-2.1,0s-2.5,1-2.5,0c0-1,1.5-2.7,2.5-2.7C62.5,61.4,63.6,61.9,63.6,64.2z"/>
			<path class="st0" d="M62,63h-0.6c-0.3,0-0.5-0.2-0.5-0.5l0.1-0.9c0.3-0.2,1.1-0.2,1.5,0.1v0.8C62.5,62.7,62.3,63,62,63z"/>
			<path class="st9" d="M166.4,46.8c0,0-20.9,3.1-33.1-11.6C133.4,35.2,150.7,30.5,166.4,46.8z"/>
			<path class="st9" d="M155.8,36.3c0,0-7.1,4.2-25.7,0.9C130.1,37.2,137,26.5,155.8,36.3z"/>
			<path class="st9" d="M120.5,37.3c-7.3,3.4-18.5,13.1-17.2,32.4c0.3,5.2,1.7,13,4.9,18.5c3.2,5.4-1.6,9.7-0.8,15
				c0.8,5.3,8.5,2.9,31.6,1c13.8-1.1,22.3,5.7,24-0.8c1.6-6.2-2.6-7.6-0.7-13.4c2.4-7.2,4.8-8.4,5.4-19.5
				C169.6,33.4,134.5,30.8,120.5,37.3z"/>
			<path class="st9" d="M126.4,55.1c0,1.3-1,1.9-2.3,1.9s-2.3-0.6-2.3-1.9c0-1.3,1-2.3,2.3-2.3C125.4,52.9,126.4,53.9,126.4,55.1z"
				/>
			<path class="st9" d="M145.2,55.1c0,1.3-1,1.9-2.3,1.9s-2.3-0.6-2.3-1.9c0-1.3,1-2.3,2.3-2.3C144.2,52.9,145.2,53.9,145.2,55.1z"
				/>
			<path class="st9" d="M155.1,46.2c3.5,3.8,10.9,12.7,11,14.3s-12.6,1.4-18.8-3.2c-3.3-2.4-5.9-6.2-6.8-11.9
				c-1.1-6.7,2.9-6.4,6.6-4.9C150.2,41.8,152.9,43.8,155.1,46.2z"/>
			<path class="st9" d="M128.7,28.7c0,0-0.4,3.8,3.1,6C131.7,34.7,132.2,33.2,128.7,28.7z"/>
			<path class="st9" d="M134,37.6c-1.6-1.8-3.8-7.1-11.4-5.4L134,37.6z"/>
			<path class="st9" d="M120.8,31.5c0,0-3.2,4.4-1,4.4C122.1,35.8,122.4,31.3,120.8,31.5z"/>
			<path class="st9" d="M121.6,30.7c0,0-1.7,5.4,0.6,4.3C124.5,34,123.1,29.9,121.6,30.7z"/>
			<path class="st9" d="M121.8,30.5c0,0-5.1,1.4-3.7,3.2C119.5,35.5,122.9,31.6,121.8,30.5z"/>
			<path class="st9" d="M122.5,33c0,0,0.2-6.4-2-4.5S121.1,34.5,122.5,33z"/>
			<path class="st9" d="M121.3,31.2c0,0,0.5-4.3,2.3-3.1C125.4,29.4,122.5,32.2,121.3,31.2z"/>
			<path class="st9" d="M121.4,30c0,0,5.3,0.3,3.6,2.2C123.3,34.1,120.1,31.2,121.4,30z"/>
			<path class="st9" d="M122.6,31.9c0.6-1.1,0.6-2.3-0.1-2.7c-0.7-0.4-1.7,0.2-2.4,1.4c-0.6,1.1-0.6,2.3,0.1,2.7
				C120.9,33.6,122,33,122.6,31.9z"/>
			<path class="st9" d="M123.7,40.5c-3.6,0.6-6.8,2.4-9.4,4.9c-4,3.9-8.9,11.4-9.2,12.6c-0.4,1.8,17.9,4.3,24-11.4
				C131.6,40.3,127.6,39.8,123.7,40.5z"/>
			<path class="st9" d="M135.5,64.2c0,1-1.1,0-2.1,0s-2.5,1-2.5,0c0-1,1.5-2.7,2.5-2.7C134.4,61.4,135.5,61.9,135.5,64.2z"/>
			<path class="st9" d="M133.9,63h-0.6c-0.3,0-0.5-0.2-0.5-0.5l0.1-0.9c0.3-0.2,1.1-0.2,1.5,0.1v0.8C134.4,62.7,134.2,63,133.9,63z"
				/>
			<path class="st9" d="M166.4,129.4c0,0-20.9,3.1-33.1-11.6C133.4,117.8,150.7,113.1,166.4,129.4z"/>
			<path class="st9" d="M155.8,118.9c0,0-7.1,4.1-25.7,0.9C130.1,119.8,137,109.1,155.8,118.9z"/>
			<path class="st9" d="M120.5,119.9c-7.3,3.4-18.5,13.1-17.2,32.4c0.3,5.2,1.7,13,4.9,18.5c3.2,5.4-1.6,9.7-0.8,15
				c0.8,5.3,8.5,2.9,31.6,1c13.8-1.1,22.3,5.6,24-0.8c1.6-6.2-2.6-7.6-0.7-13.4c2.4-7.2,4.8-8.4,5.4-19.5
				C169.6,116,134.5,113.4,120.5,119.9z"/>
			<path class="st9" d="M126.4,137.7c0,1.3-1,1.8-2.3,1.8s-2.3-0.6-2.3-1.8c0-1.3,1-2.3,2.3-2.3S126.4,136.5,126.4,137.7z"/>
			<path class="st9" d="M145.2,137.7c0,1.3-1,1.8-2.3,1.8s-2.3-0.6-2.3-1.8c0-1.3,1-2.3,2.3-2.3S145.2,136.5,145.2,137.7z"/>
			<path class="st9" d="M155.1,128.8c3.5,3.8,10.9,12.7,11,14.3s-12.6,1.4-18.8-3.2c-3.3-2.4-5.9-6.2-6.8-11.9
				c-1.1-6.7,2.9-6.4,6.6-4.9C150.2,124.4,152.9,126.4,155.1,128.8z"/>
			<path class="st9" d="M128.7,111.3c0,0-0.4,3.8,3.1,6C131.7,117.3,132.2,115.8,128.7,111.3z"/>
			<path class="st9" d="M134,120.2c-1.6-1.8-3.8-7.1-11.4-5.4L134,120.2z"/>
			<path class="st9" d="M120.8,114.1c0,0-3.2,4.4-1,4.4C122.1,118.3,122.4,113.9,120.8,114.1z"/>
			<path class="st9" d="M121.6,113.3c0,0-1.7,5.4,0.6,4.3C124.5,116.6,123.1,112.4,121.6,113.3z"/>
			<path class="st9" d="M121.8,113.1c0,0-5.1,1.4-3.7,3.2C119.5,118.1,122.9,114.2,121.8,113.1z"/>
			<path class="st9" d="M122.5,115.6c0,0,0.2-6.4-2-4.5S121.1,117.1,122.5,115.6z"/>
			<path class="st9" d="M121.3,113.8c0,0,0.5-4.3,2.3-3.1C125.4,112,122.5,114.7,121.3,113.8z"/>
			<path class="st9" d="M121.4,112.6c0,0,5.3,0.3,3.6,2.2C123.3,116.7,120.1,113.8,121.4,112.6z"/>
			<path class="st9" d="M122.6,114.5c0.6-1.1,0.6-2.3-0.1-2.7c-0.7-0.4-1.7,0.2-2.4,1.4c-0.6,1.1-0.6,2.3,0.1,2.7
				C121,116.2,122,115.6,122.6,114.5z"/>
			<path class="st9" d="M123.7,123.1c-3.6,0.6-6.8,2.4-9.4,4.9c-4,3.9-8.9,11.4-9.2,12.6c-0.4,1.8,17.9,4.3,24-11.4
				C131.6,122.9,127.6,122.4,123.7,123.1z"/>
			<path class="st9" d="M135.5,146.7c0,1-1.1,0-2.1,0s-2.5,1-2.5,0s1.5-2.8,2.5-2.8C134.4,144,135.5,144.5,135.5,146.7z"/>
			<path class="st9" d="M133.9,145.6h-0.6c-0.3,0-0.5-0.2-0.5-0.5l0.1-0.9c0.3-0.2,1.1-0.1,1.5,0.1v0.8
				C134.4,145.3,134.2,145.6,133.9,145.6z"/>
			<path class="st9" d="M90.7,129.4c0,0-20.9,3.1-33.1-11.6C57.6,117.8,75,113.1,90.7,129.4z"/>
			<path class="st9" d="M80,118.9c0,0-7.1,4.1-25.7,0.9C54.3,119.8,61.2,109.1,80,118.9z"/>
			<path class="st9" d="M44.7,119.9c-7.3,3.4-18.5,13.1-17.2,32.4c0.3,5.2,1.7,13,4.9,18.5c3.2,5.4-1.6,9.7-0.8,15
				c0.8,5.3,8.5,2.9,31.5,1c13.8-1.1,22.3,5.6,24-0.8c1.6-6.2-2.6-7.6-0.7-13.4c2.4-7.2,4.8-8.4,5.4-19.5
				C93.8,116,58.7,113.4,44.7,119.9z"/>
			<path class="st9" d="M50.6,137.7c0,1.3-1,1.8-2.3,1.8s-2.3-0.6-2.3-1.8c0-1.3,1-2.3,2.3-2.3S50.6,136.5,50.6,137.7z"/>
			<path class="st9" d="M69.4,137.7c0,1.3-1,1.8-2.3,1.8s-2.3-0.6-2.3-1.8c0-1.3,1-2.3,2.3-2.3S69.4,136.5,69.4,137.7z"/>
			<path class="st9" d="M79.3,128.8c3.5,3.8,10.9,12.7,11,14.3s-12.6,1.4-18.8-3.2c-3.3-2.4-5.9-6.2-6.8-11.9
				c-1.1-6.7,2.9-6.4,6.6-4.9C74.4,124.4,77.1,126.4,79.3,128.8z"/>
			<path class="st9" d="M52.9,111.3c0,0-0.5,3.8,3,6C55.9,117.3,56.4,115.8,52.9,111.3z"/>
			<path class="st9" d="M58.2,120.2c-1.7-1.8-3.8-7.1-11.4-5.4L58.2,120.2z"/>
			<path class="st9" d="M45.1,114.1c0,0-3.2,4.4-1,4.4C46.3,118.4,46.7,113.9,45.1,114.1z"/>
			<path class="st9" d="M45.8,113.3c0,0-1.7,5.4,0.6,4.3C48.7,116.6,47.4,112.4,45.8,113.3z"/>
			<path class="st9" d="M46,113.1c0,0-5.1,1.4-3.7,3.2C43.7,118.1,47.1,114.2,46,113.1z"/>
			<path class="st9" d="M46.7,115.6c0,0,0.2-6.4-2-4.5S45.3,117.1,46.7,115.6z"/>
			<path class="st9" d="M45.5,113.8c0,0,0.5-4.3,2.3-3.1C49.6,111.9,46.7,114.7,45.5,113.8z"/>
			<path class="st9" d="M45.6,112.6c0,0,5.3,0.3,3.6,2.2C47.5,116.7,44.3,113.8,45.6,112.6z"/>
			<path class="st9" d="M46.9,114.5c0.6-1.1,0.6-2.3-0.1-2.7c-0.7-0.4-1.7,0.2-2.4,1.4s-0.6,2.3,0.1,2.7
				C45.2,116.2,46.2,115.6,46.9,114.5z"/>
			<path class="st9" d="M47.9,123.1c-3.6,0.6-6.8,2.4-9.4,4.9c-4,3.9-8.9,11.4-9.2,12.6c-0.4,1.8,17.9,4.3,24-11.4
				C55.9,122.9,51.9,122.4,47.9,123.1z"/>
			<path class="st9" d="M59.7,146.7c0,1-1.1,0-2.1,0s-2.5,1-2.5,0s1.5-2.8,2.5-2.8C58.6,144,59.7,144.5,59.7,146.7z"/>
			<path class="st9" d="M58.1,145.6h-0.6c-0.3,0-0.5-0.2-0.5-0.5l0.1-0.9c0.3-0.2,1.1-0.1,1.5,0.1v0.8
				C58.6,145.3,58.4,145.6,58.1,145.6z"/>
		</g>
	</g>
</g>
</svg>
