<?xml version="1.0" encoding="utf-8"?>
<!-- Generator: Adobe Illustrator 25.1.0, SVG Export Plug-In . SVG Version: 6.00 Build 0)  -->
<svg version="1.1" id="Layer_1" xmlns="http://www.w3.org/2000/svg" xmlns:xlink="http://www.w3.org/1999/xlink" x="0px" y="0px"
	 viewBox="0 0 329.4 270.8" style="enable-background:new 0 0 329.4 270.8;" xml:space="preserve">
<style type="text/css">
	.st0{fill:#FFFFFF;}
	.st1{fill:#808080;}
	.st2{fill:#00CDDC;}
	.st3{fill:#E14504;}
	.st4{fill:#28C86E;}
	.st5{fill:#3CDC82;}
	.st6{fill:#32DCD2;}
	.st7{fill:#FF9F1A;}
	.st8{fill:none;stroke:#28C86E;stroke-width:1.7344;stroke-linecap:round;stroke-miterlimit:10;}
	.st9{fill:#FFCF8D;}
	.st10{fill:#FF9F1A;stroke:#E14504;stroke-width:2.1031;stroke-miterlimit:10;}
</style>
<g>
	<g>
		<g>
			<path class="st0" d="M1.9,75.8c0,175-16.7,178.4,48.9,191.8c27.5,5.6,135.9,2.3,172.6,1.5c36.1-0.7,94.4,1.7,100.7-25.2
				c6.3-26.5,5.2-60.3,5.2-108c0-75-1.7-121.4-38.8-130.8c-37.7-9.6-145.1-3-190.5-1.8C53.1,4.5,1.9-0.6,1.9,75.8z"/>
			<path class="st1" d="M30.8,44.4c-0.8,0-1.5-0.1-2.1-0.5c-0.6-0.3-1.1-0.7-1.4-1.2s-0.5-1.1-0.5-1.9h1.4c0,0.4,0.1,0.8,0.3,1.2
				c0.2,0.4,0.5,0.7,0.9,0.9c0.4,0.2,0.9,0.3,1.4,0.3c0.8,0,1.3-0.2,1.8-0.5c0.4-0.4,0.6-0.8,0.6-1.4c0-0.4-0.1-0.8-0.3-1.1
				c-0.2-0.3-0.4-0.5-0.8-0.7c-0.3-0.2-0.7-0.3-1.1-0.5c-0.4-0.1-0.9-0.3-1.3-0.4c-0.9-0.3-1.5-0.7-1.9-1.1s-0.6-1-0.6-1.7
				c0-0.6,0.1-1.1,0.4-1.6s0.7-0.8,1.2-1.1c0.5-0.3,1.2-0.4,1.9-0.4s1.3,0.1,1.9,0.4c0.5,0.3,0.9,0.6,1.2,1.1s0.5,1,0.5,1.6h-1.4
				c0-0.3-0.1-0.6-0.2-0.9c-0.2-0.3-0.4-0.6-0.7-0.7c-0.3-0.2-0.7-0.3-1.2-0.3c-0.6,0-1.1,0.1-1.5,0.5c-0.4,0.3-0.6,0.8-0.6,1.3
				s0.1,0.9,0.4,1.1s0.7,0.5,1.1,0.6c0.5,0.2,1.1,0.4,1.7,0.6c0.5,0.2,1,0.4,1.4,0.7c0.4,0.3,0.8,0.6,1,1s0.4,0.9,0.4,1.5
				c0,0.5-0.1,1-0.4,1.5s-0.7,0.9-1.3,1.2C32.3,44.3,31.6,44.4,30.8,44.4z"/>
			<path class="st1" d="M36.4,44.2v-7.9h1.2l0.1,1.1c0.3-0.4,0.6-0.8,1-1s0.9-0.4,1.4-0.4c0.6,0,1.2,0.1,1.6,0.4
				c0.4,0.3,0.8,0.6,1,1.2c0.3-0.5,0.7-0.9,1.1-1.1c0.5-0.3,1-0.4,1.6-0.4c1,0,1.7,0.3,2.3,0.9s0.8,1.4,0.8,2.6v4.6h-1.3v-4.5
				c0-0.8-0.2-1.4-0.5-1.9c-0.3-0.4-0.8-0.6-1.4-0.6c-0.6,0-1.2,0.2-1.6,0.7c-0.4,0.5-0.6,1.2-0.6,2.1v4.1h-1.3v-4.5
				c0-0.8-0.2-1.4-0.5-1.9c-0.3-0.4-0.8-0.6-1.4-0.6c-0.6,0-1.1,0.2-1.6,0.7c-0.4,0.5-0.6,1.2-0.6,2.1V44L36.4,44.2L36.4,44.2z"/>
			<path class="st1" d="M53.3,44.4c-0.7,0-1.2-0.1-1.7-0.3c-0.4-0.2-0.8-0.5-1-0.9s-0.3-0.8-0.3-1.2c0-0.8,0.3-1.4,0.9-1.9
				c0.6-0.4,1.5-0.7,2.5-0.7H56v-0.1c0-0.7-0.2-1.2-0.5-1.6c-0.4-0.4-0.8-0.5-1.5-0.5c-0.5,0-1,0.1-1.3,0.4
				c-0.4,0.3-0.6,0.6-0.7,1.1h-1.4c0.1-0.6,0.2-1.1,0.6-1.5c0.3-0.4,0.8-0.7,1.3-0.9c0.5-0.2,1-0.3,1.6-0.3c1.1,0,1.9,0.3,2.5,0.9
				s0.8,1.4,0.8,2.4v4.9h-1.2l-0.1-1.4c-0.2,0.5-0.5,0.8-1,1.1C54.6,44.3,54,44.4,53.3,44.4z M53.5,43.3c0.5,0,1-0.1,1.3-0.4
				c0.4-0.3,0.7-0.6,0.8-1c0.2-0.4,0.3-0.9,0.3-1.3l0,0h-2c-0.8,0-1.4,0.1-1.7,0.4s-0.5,0.6-0.5,1s0.2,0.8,0.5,1
				C52.5,43.2,53,43.3,53.5,43.3z"/>
			<path class="st1" d="M59.3,44.2V32.7h1.3v11.5H59.3z"/>
			<path class="st1" d="M62.9,44.2V32.7h1.3v11.5H62.9z"/>
			<path class="st1" d="M74.3,44.4c-0.8,0-1.4-0.2-2-0.5s-1.1-0.8-1.4-1.5c-0.3-0.6-0.5-1.4-0.5-2.2s0.2-1.6,0.5-2.2
				s0.8-1.1,1.4-1.5c0.6-0.3,1.3-0.5,2-0.5c0.9,0,1.7,0.2,2.4,0.7c0.7,0.5,1.1,1.2,1.2,2h-1.4c-0.1-0.5-0.4-0.9-0.8-1.1
				c-0.4-0.3-0.9-0.4-1.5-0.4c-0.5,0-0.9,0.1-1.3,0.3c-0.4,0.2-0.7,0.6-1,1c-0.2,0.4-0.4,1-0.4,1.7s0.1,1.2,0.4,1.7
				c0.2,0.4,0.6,0.8,1,1s0.8,0.3,1.3,0.3s1-0.1,1.5-0.4c0.4-0.3,0.7-0.7,0.8-1.2h1.4c-0.2,0.8-0.6,1.5-1.2,2
				C76.1,44.2,75.3,44.4,74.3,44.4z"/>
			<path class="st1" d="M79.8,44.2V32.7h1.3v4.9c0.3-0.5,0.7-0.9,1.1-1.1s1-0.4,1.6-0.4c0.9,0,1.7,0.3,2.2,0.9
				c0.6,0.6,0.8,1.4,0.8,2.6v4.6h-1.3v-4.5c0-1.6-0.7-2.5-2-2.5c-0.7,0-1.3,0.2-1.7,0.7c-0.5,0.5-0.7,1.2-0.7,2.1v4.1L79.8,44.2
				L79.8,44.2z"/>
			<path class="st1" d="M91.6,44.4c-0.7,0-1.2-0.1-1.6-0.3c-0.4-0.2-0.8-0.5-1-0.9s-0.3-0.8-0.3-1.2c0-0.8,0.3-1.4,0.9-1.9
				s1.5-0.7,2.5-0.7h2.1v-0.1c0-0.7-0.2-1.2-0.5-1.6c-0.4-0.4-0.8-0.5-1.5-0.5c-0.5,0-1,0.1-1.3,0.4s-0.6,0.6-0.7,1.1h-1.4
				c0-0.6,0.2-1.1,0.6-1.5c0.3-0.4,0.8-0.7,1.3-0.9c0.5-0.2,1-0.3,1.6-0.3c1.1,0,1.9,0.3,2.5,0.9s0.8,1.4,0.8,2.4v4.9h-1.2l-0.1-1.4
				c-0.2,0.5-0.6,0.8-1,1.1C92.9,44.3,92.3,44.4,91.6,44.4z M91.8,43.3c0.5,0,0.9-0.1,1.3-0.4s0.6-0.6,0.8-1
				c0.2-0.4,0.3-0.9,0.3-1.3l0,0h-2c-0.8,0-1.3,0.1-1.7,0.4c-0.3,0.3-0.5,0.6-0.5,1s0.2,0.8,0.5,1C90.8,43.2,91.2,43.3,91.8,43.3z"
				/>
			<path class="st1" d="M97.6,44.2v-7.9h1.2l0.1,1.4c0.3-0.5,0.6-0.9,1.1-1.2c0.5-0.3,1-0.4,1.6-0.4c0.9,0,1.7,0.3,2.2,0.9
				c0.6,0.6,0.8,1.4,0.8,2.6v4.6h-1.3v-4.5c0-1.6-0.7-2.5-2-2.5c-0.7,0-1.2,0.2-1.7,0.7c-0.4,0.5-0.7,1.2-0.7,2.1v4.1L97.6,44.2
				L97.6,44.2z"/>
			<path class="st1" d="M109.9,41.7c-0.4,0-0.9-0.1-1.2-0.2l-0.8,0.8c0.1,0.1,0.3,0.2,0.4,0.2c0.2,0.1,0.4,0.1,0.8,0.2
				c0.3,0,0.8,0.1,1.4,0.1c1.1,0.1,1.8,0.3,2.3,0.7c0.5,0.4,0.7,1,0.7,1.6c0,0.5-0.1,0.9-0.4,1.3c-0.2,0.4-0.6,0.8-1.2,1
				c-0.5,0.3-1.2,0.4-2,0.4c-0.7,0-1.4-0.1-1.9-0.3c-0.5-0.2-1-0.5-1.3-0.8c-0.3-0.4-0.5-0.9-0.5-1.4c0-0.3,0.1-0.6,0.2-1
				c0.2-0.3,0.5-0.7,0.9-1c-0.2-0.1-0.4-0.2-0.6-0.3c-0.2-0.1-0.3-0.2-0.5-0.4v-0.4l1.4-1.3c-0.6-0.5-0.9-1.2-0.9-2.1
				c0-0.5,0.1-1,0.4-1.4c0.2-0.4,0.6-0.8,1.1-1s1-0.4,1.7-0.4c0.5,0,0.9,0.1,1.2,0.2h2.9v1l-1.5,0.1c0.3,0.5,0.5,1,0.5,1.5
				s-0.1,1-0.4,1.4c-0.2,0.4-0.6,0.8-1.1,1C111.1,41.6,110.6,41.7,109.9,41.7z M107.6,45.3c0,0.5,0.2,0.9,0.7,1.2
				c0.4,0.3,1,0.4,1.7,0.4s1.2-0.1,1.6-0.4s0.6-0.7,0.6-1.1c0-0.3-0.1-0.6-0.4-0.9c-0.3-0.2-0.8-0.4-1.5-0.4c-0.6,0-1.1-0.1-1.5-0.2
				c-0.4,0.2-0.7,0.5-0.9,0.8C107.6,44.8,107.6,45.1,107.6,45.3z M109.9,40.6c0.6,0,1-0.1,1.4-0.4c0.3-0.3,0.5-0.7,0.5-1.3
				c0-0.5-0.2-1-0.5-1.3s-0.8-0.4-1.4-0.4s-1,0.1-1.4,0.4c-0.3,0.3-0.5,0.7-0.5,1.3c0,0.5,0.2,1,0.5,1.3
				C108.9,40.5,109.3,40.6,109.9,40.6z"/>
			<path class="st1" d="M118.8,44.4c-0.8,0-1.4-0.2-2-0.5s-1.1-0.8-1.4-1.4s-0.5-1.4-0.5-2.2c0-0.8,0.2-1.6,0.5-2.2s0.8-1.1,1.4-1.5
				c0.6-0.3,1.3-0.5,2.1-0.5c0.8,0,1.4,0.2,2,0.5c0.6,0.4,1,0.8,1.3,1.4s0.4,1.2,0.4,1.8c0,0.1,0,0.2,0,0.4c0,0.1,0,0.2,0,0.4h-6.3
				c0,0.6,0.2,1.1,0.4,1.5s0.6,0.7,0.9,0.9c0.4,0.2,0.8,0.3,1.2,0.3c0.6,0,1-0.1,1.4-0.4s0.7-0.6,0.8-1h1.3
				c-0.2,0.7-0.6,1.4-1.2,1.8C120.5,44.2,119.8,44.4,118.8,44.4z M118.8,37.2c-0.6,0-1.2,0.2-1.7,0.6s-0.8,1-0.9,1.7h5
				c0-0.7-0.3-1.3-0.7-1.7C120.1,37.4,119.5,37.2,118.8,37.2z"/>
			<path class="st1" d="M127.4,44.4c-0.9,0-1.7-0.2-2.4-0.7c-0.6-0.5-1-1.1-1.1-2h1.4c0.1,0.4,0.3,0.8,0.7,1.1
				c0.4,0.3,0.8,0.5,1.4,0.5c0.6,0,1-0.1,1.2-0.4c0.3-0.2,0.4-0.5,0.4-0.9c0-0.5-0.2-0.8-0.5-1s-0.8-0.3-1.5-0.4
				c-0.4-0.1-0.9-0.2-1.3-0.4c-0.4-0.2-0.8-0.4-1.1-0.7s-0.4-0.7-0.4-1.2c0-0.7,0.3-1.3,0.8-1.7c0.5-0.4,1.2-0.7,2.1-0.7
				c0.8,0,1.5,0.2,2.1,0.6c0.5,0.4,0.8,1,0.9,1.8h-1.3c-0.1-0.4-0.2-0.7-0.5-1c-0.3-0.2-0.7-0.3-1.2-0.3s-0.8,0.1-1.1,0.3
				c-0.3,0.2-0.4,0.5-0.4,0.8s0.2,0.6,0.5,0.8c0.3,0.2,0.8,0.3,1.4,0.5c0.5,0.1,1,0.2,1.4,0.4s0.8,0.4,1.1,0.7
				c0.3,0.3,0.4,0.7,0.4,1.3c0,0.7-0.3,1.3-0.8,1.8C129.1,44.2,128.4,44.4,127.4,44.4z"/>
			<path class="st1" d="M137.4,34.5c-0.3,0-0.5-0.1-0.7-0.3c-0.2-0.2-0.3-0.4-0.3-0.7c0-0.3,0.1-0.5,0.3-0.6
				c0.2-0.2,0.4-0.3,0.7-0.3s0.5,0.1,0.7,0.3c0.2,0.2,0.3,0.4,0.3,0.6c0,0.3-0.1,0.5-0.3,0.7C137.9,34.4,137.7,34.5,137.4,34.5z
				 M136.8,44.2v-7.9h1.3v7.9H136.8z"/>
			<path class="st1" d="M140.4,44.2v-7.9h1.2l0.1,1.4c0.3-0.5,0.6-0.9,1.1-1.2c0.5-0.3,1-0.4,1.6-0.4c0.9,0,1.7,0.3,2.2,0.9
				c0.6,0.6,0.8,1.4,0.8,2.6v4.6h-1.3v-4.5c0-1.6-0.7-2.5-2.1-2.5c-0.7,0-1.2,0.2-1.7,0.7c-0.4,0.5-0.7,1.2-0.7,2.1v4.1L140.4,44.2
				L140.4,44.2z"/>
			<path class="st1" d="M155.4,44.2l-2.3-7.9h1.3l1.7,6.2l1.9-6.2h1.5l1.9,6.2l1.7-6.2h1.4l-2.3,7.9h-1.4l-1.9-6.5l-1.9,6.5H155.4z"
				/>
			<path class="st1" d="M165.9,44.2V32.7h1.3v4.9c0.3-0.5,0.7-0.9,1.1-1.1c0.5-0.3,1-0.4,1.6-0.4c0.9,0,1.6,0.3,2.2,0.9
				c0.6,0.6,0.8,1.4,0.8,2.6v4.6h-1.3v-4.5c0-1.6-0.7-2.5-2-2.5c-0.7,0-1.3,0.2-1.7,0.7c-0.5,0.5-0.7,1.2-0.7,2.1v4.1L165.9,44.2
				L165.9,44.2z"/>
			<path class="st1" d="M177.7,44.4c-0.7,0-1.2-0.1-1.6-0.3c-0.4-0.2-0.8-0.5-1-0.9s-0.3-0.8-0.3-1.2c0-0.8,0.3-1.4,0.9-1.9
				c0.6-0.4,1.5-0.7,2.5-0.7h2.1v-0.1c0-0.7-0.2-1.2-0.5-1.6c-0.4-0.4-0.8-0.5-1.5-0.5c-0.5,0-1,0.1-1.4,0.4s-0.6,0.6-0.7,1.1h-1.4
				c0.1-0.6,0.2-1.1,0.6-1.5c0.3-0.4,0.8-0.7,1.3-0.9c0.5-0.2,1-0.3,1.6-0.3c1.1,0,1.9,0.3,2.5,0.9s0.8,1.4,0.8,2.4v4.9h-1.2
				l-0.1-1.4c-0.2,0.5-0.6,0.8-1,1.1C179,44.3,178.4,44.4,177.7,44.4z M177.9,43.3c0.5,0,0.9-0.1,1.3-0.4c0.4-0.3,0.6-0.6,0.8-1
				s0.3-0.9,0.3-1.3l0,0h-2c-0.8,0-1.3,0.1-1.7,0.4c-0.3,0.3-0.5,0.6-0.5,1s0.2,0.8,0.5,1C176.9,43.2,177.3,43.3,177.9,43.3z"/>
			<path class="st1" d="M186.6,44.2c-0.7,0-1.3-0.2-1.7-0.5c-0.4-0.4-0.6-1-0.6-1.9v-4.4h-1.4v-1.1h1.4l0.2-1.9h1.2v1.9h2.3v1.1
				h-2.3v4.4c0,0.5,0.1,0.8,0.3,1s0.6,0.3,1.1,0.3h0.8v1.1H186.6z"/>
			<path class="st1" d="M195.5,44.2l-2.3-7.9h1.3l1.7,6.2l1.9-6.2h1.5l1.9,6.2l1.7-6.2h1.4l-2.3,7.9h-1.4l-1.9-6.5l-1.9,6.5H195.5z"
				/>
			<path class="st1" d="M209.2,44.4c-0.8,0-1.4-0.2-2-0.5s-1.1-0.8-1.4-1.4c-0.3-0.6-0.5-1.4-0.5-2.2c0-0.8,0.2-1.6,0.5-2.2
				s0.8-1.1,1.4-1.5c0.6-0.3,1.3-0.5,2.1-0.5s1.4,0.2,2,0.5c0.6,0.4,1,0.8,1.3,1.4s0.4,1.2,0.4,1.8c0,0.1,0,0.2,0,0.4
				c0,0.1,0,0.2,0,0.4h-6.3c0,0.6,0.2,1.1,0.4,1.5s0.6,0.7,0.9,0.9c0.4,0.2,0.8,0.3,1.2,0.3c0.6,0,1-0.1,1.4-0.4s0.7-0.6,0.8-1h1.3
				c-0.2,0.7-0.6,1.4-1.2,1.8C210.9,44.2,210.2,44.4,209.2,44.4z M209.2,37.2c-0.6,0-1.2,0.2-1.7,0.6s-0.8,1-0.9,1.7h5
				c0-0.7-0.3-1.3-0.7-1.7C210.5,37.4,209.9,37.2,209.2,37.2z"/>
			<path class="st1" d="M222.6,44.4c-0.8,0-1.5-0.2-2.1-0.5c-0.6-0.4-1-0.9-1.4-1.5s-0.5-1.3-0.5-2.1c0-0.8,0.2-1.5,0.5-2.1
				s0.8-1.1,1.4-1.5c0.6-0.4,1.3-0.5,2.1-0.5c0.6,0,1.2,0.1,1.7,0.4s0.9,0.6,1.2,1.1v-4.9h1.3v11.5h-1.2l-0.1-1.3
				c-0.3,0.4-0.6,0.7-1.1,1S223.3,44.4,222.6,44.4z M222.8,43.3c0.5,0,1-0.1,1.4-0.4s0.7-0.6,1-1c0.2-0.5,0.3-1,0.3-1.6
				s-0.1-1.1-0.3-1.6s-0.6-0.8-1-1.1s-0.9-0.4-1.4-0.4s-1,0.1-1.4,0.4c-0.4,0.2-0.7,0.6-1,1.1c-0.2,0.4-0.3,1-0.3,1.6
				s0.1,1.1,0.3,1.6s0.6,0.8,1,1C221.8,43.1,222.2,43.3,222.8,43.3z"/>
			<path class="st1" d="M232.7,44.4c-0.8,0-1.4-0.2-2-0.5s-1.1-0.8-1.4-1.4c-0.3-0.6-0.5-1.4-0.5-2.2s0.2-1.6,0.5-2.2
				s0.8-1.1,1.4-1.4c0.6-0.3,1.3-0.5,2-0.5s1.4,0.2,2,0.5s1.1,0.8,1.4,1.4c0.4,0.6,0.5,1.4,0.5,2.2s-0.2,1.6-0.5,2.2
				c-0.4,0.6-0.8,1.1-1.4,1.4S233.4,44.4,232.7,44.4z M232.7,43.3c0.5,0,0.9-0.1,1.3-0.3c0.4-0.2,0.7-0.6,1-1c0.2-0.5,0.4-1,0.4-1.7
				s-0.1-1.2-0.4-1.7c-0.2-0.4-0.6-0.8-1-1s-0.8-0.3-1.3-0.3s-0.9,0.1-1.3,0.3c-0.4,0.2-0.7,0.6-1,1s-0.4,1-0.4,1.7s0.1,1.2,0.4,1.7
				s0.6,0.8,0.9,1C231.8,43.2,232.2,43.3,232.7,43.3z"/>
			<path class="st1" d="M246.4,44.4c-0.8,0-1.4-0.2-2-0.5s-1.1-0.8-1.4-1.5c-0.4-0.6-0.5-1.4-0.5-2.2s0.2-1.6,0.5-2.2
				s0.8-1.1,1.4-1.5c0.6-0.3,1.3-0.5,2-0.5c0.9,0,1.7,0.2,2.4,0.7s1.1,1.2,1.2,2h-1.4c-0.1-0.5-0.4-0.9-0.8-1.1
				c-0.4-0.3-0.9-0.4-1.5-0.4c-0.4,0-0.9,0.1-1.3,0.3c-0.4,0.2-0.7,0.6-1,1c-0.2,0.4-0.4,1-0.4,1.7s0.1,1.2,0.4,1.7
				c0.2,0.4,0.6,0.8,1,1s0.8,0.3,1.3,0.3c0.6,0,1-0.1,1.5-0.4c0.4-0.3,0.7-0.7,0.8-1.2h1.4c-0.2,0.8-0.6,1.5-1.2,2
				C248.1,44.2,247.4,44.4,246.4,44.4z"/>
			<path class="st1" d="M254.5,44.4c-0.7,0-1.2-0.1-1.6-0.3c-0.4-0.2-0.8-0.5-1-0.9s-0.3-0.8-0.3-1.2c0-0.8,0.3-1.4,0.9-1.9
				s1.5-0.7,2.5-0.7h2.1v-0.1c0-0.7-0.2-1.2-0.5-1.6c-0.4-0.4-0.9-0.5-1.5-0.5c-0.5,0-1,0.1-1.4,0.4s-0.6,0.6-0.7,1.1h-1.4
				c0.1-0.6,0.2-1.1,0.6-1.5c0.3-0.4,0.8-0.7,1.3-0.9c0.5-0.2,1-0.3,1.6-0.3c1.1,0,1.9,0.3,2.5,0.9s0.8,1.4,0.8,2.4v4.9h-1.2
				l-0.1-1.4c-0.2,0.5-0.5,0.8-1,1.1C255.8,44.3,255.3,44.4,254.5,44.4z M254.7,43.3c0.5,0,1-0.1,1.3-0.4c0.3-0.3,0.6-0.6,0.8-1
				c0.2-0.4,0.3-0.9,0.3-1.3l0,0h-2c-0.8,0-1.4,0.1-1.7,0.4s-0.5,0.6-0.5,1s0.1,0.8,0.5,1C253.8,43.2,254.2,43.3,254.7,43.3z"/>
			<path class="st1" d="M260.5,44.2v-7.9h1.2l0.1,1.4c0.3-0.5,0.6-0.9,1.1-1.2c0.5-0.3,1-0.4,1.6-0.4c0.9,0,1.7,0.3,2.2,0.9
				c0.6,0.6,0.8,1.4,0.8,2.6v4.6h-1.3v-4.5c0-1.6-0.7-2.5-2-2.5c-0.7,0-1.2,0.2-1.7,0.7c-0.4,0.5-0.7,1.2-0.7,2.1v4.1L260.5,44.2
				L260.5,44.2z"/>
			<path class="st1" d="M27.9,56.5c-0.3,0-0.5-0.1-0.7-0.3c-0.2-0.2-0.3-0.4-0.3-0.7c0-0.3,0.1-0.5,0.3-0.6c0.2-0.2,0.4-0.3,0.7-0.3
				c0.3,0,0.5,0.1,0.7,0.3c0.2,0.2,0.3,0.4,0.3,0.6c0,0.3-0.1,0.5-0.3,0.7C28.4,56.4,28.2,56.5,27.9,56.5z M27.2,66.2v-7.9h1.3v7.9
				H27.2z"/>
			<path class="st1" d="M30.9,66.2v-7.9h1.2l0.1,1.1c0.3-0.4,0.6-0.8,1-1s0.9-0.4,1.4-0.4c0.6,0,1.2,0.1,1.6,0.4
				c0.4,0.3,0.8,0.6,1,1.2c0.3-0.5,0.7-0.9,1.1-1.1c0.5-0.3,1-0.4,1.6-0.4c1,0,1.7,0.3,2.3,0.9s0.8,1.4,0.8,2.6v4.6h-1.3v-4.5
				c0-0.8-0.2-1.4-0.5-1.9c-0.3-0.4-0.8-0.6-1.4-0.6c-0.6,0-1.2,0.2-1.6,0.7c-0.4,0.5-0.6,1.2-0.6,2.1v4.1h-1.3v-4.5
				c0-0.8-0.2-1.4-0.5-1.9c-0.3-0.4-0.8-0.6-1.4-0.6c-0.6,0-1.2,0.2-1.6,0.7c-0.4,0.5-0.6,1.2-0.6,2.1V66L30.9,66.2L30.9,66.2z"/>
			<path class="st1" d="M45.2,69.8V58.3h1.2l0.1,1.3c0.3-0.4,0.6-0.7,1.1-1s1.1-0.5,1.8-0.5c0.8,0,1.5,0.2,2.1,0.5
				c0.6,0.4,1,0.9,1.4,1.5c0.3,0.6,0.5,1.3,0.5,2.1c0,0.8-0.2,1.5-0.5,2.1c-0.3,0.6-0.8,1.1-1.4,1.5c-0.6,0.4-1.3,0.5-2.1,0.5
				c-0.7,0-1.2-0.1-1.7-0.4s-0.9-0.6-1.2-1.1v4.9h-1.3V69.8z M49.3,65.3c0.5,0,1-0.1,1.4-0.4c0.4-0.2,0.7-0.6,1-1
				c0.2-0.5,0.3-1,0.3-1.6s-0.1-1.1-0.3-1.6s-0.6-0.8-1-1.1c-0.4-0.2-0.9-0.4-1.4-0.4s-1,0.1-1.4,0.4c-0.4,0.2-0.7,0.6-1,1.1
				c-0.2,0.4-0.4,1-0.4,1.6s0.1,1.1,0.4,1.6c0.2,0.5,0.5,0.8,1,1C48.3,65.1,48.8,65.3,49.3,65.3z"/>
			<path class="st1" d="M57.9,66.4c-0.7,0-1.2-0.1-1.7-0.3c-0.4-0.2-0.8-0.5-1-0.9s-0.3-0.8-0.3-1.2c0-0.8,0.3-1.4,0.9-1.9
				c0.6-0.4,1.5-0.7,2.5-0.7h2.1v-0.1c0-0.7-0.2-1.2-0.5-1.6c-0.4-0.4-0.9-0.5-1.5-0.5c-0.5,0-1,0.1-1.3,0.4
				c-0.4,0.3-0.6,0.6-0.7,1.1H55c0-0.6,0.2-1.1,0.6-1.5c0.3-0.4,0.8-0.7,1.3-0.9c0.5-0.2,1-0.3,1.6-0.3c1.1,0,1.9,0.3,2.5,0.9
				s0.8,1.4,0.8,2.4v4.9h-1.2l-0.1-1.4c-0.2,0.5-0.6,0.8-1,1.1C59.2,66.3,58.7,66.4,57.9,66.4z M58.2,65.3c0.5,0,0.9-0.1,1.3-0.4
				c0.4-0.3,0.7-0.6,0.8-1c0.2-0.4,0.3-0.9,0.3-1.3l0,0h-2c-0.8,0-1.3,0.1-1.7,0.4c-0.3,0.3-0.5,0.6-0.5,1c0,0.4,0.1,0.8,0.5,1
				C57.2,65.2,57.6,65.3,58.2,65.3z"/>
			<path class="st1" d="M67.6,66.4c-0.8,0-1.4-0.2-2-0.5s-1.1-0.8-1.4-1.5c-0.3-0.6-0.5-1.4-0.5-2.2s0.2-1.6,0.5-2.2
				c0.3-0.6,0.8-1.1,1.4-1.5c0.6-0.3,1.3-0.5,2-0.5c0.9,0,1.7,0.2,2.4,0.7c0.6,0.5,1,1.2,1.2,2h-1.4c-0.1-0.5-0.4-0.9-0.8-1.1
				c-0.4-0.3-0.9-0.4-1.5-0.4c-0.5,0-0.9,0.1-1.3,0.3c-0.4,0.2-0.7,0.6-1,1c-0.2,0.4-0.4,1-0.4,1.7s0.1,1.2,0.4,1.7
				c0.2,0.4,0.6,0.8,1,1s0.8,0.3,1.3,0.3s1-0.1,1.5-0.4s0.7-0.7,0.8-1.2h1.4c-0.2,0.8-0.6,1.5-1.2,2C69.3,66.2,68.5,66.4,67.6,66.4z
				"/>
			<path class="st1" d="M76,66.2c-0.7,0-1.3-0.2-1.7-0.5c-0.4-0.4-0.6-1-0.6-1.9v-4.4h-1.4v-1.1h1.4l0.2-1.9H75v1.9h2.3v1.1H75v4.4
				c0,0.5,0.1,0.8,0.3,1c0.2,0.2,0.6,0.3,1.1,0.3h0.8v1.1H76z"/>
			<path class="st1" d="M83.3,66.2V54.7h1.3v4.9c0.3-0.5,0.6-0.9,1.1-1.1c0.5-0.3,1-0.4,1.6-0.4c0.9,0,1.7,0.3,2.2,0.9
				c0.6,0.6,0.8,1.4,0.8,2.6v4.6H89v-4.5c0-1.6-0.7-2.5-2-2.5c-0.7,0-1.3,0.2-1.7,0.7c-0.5,0.5-0.7,1.2-0.7,2.1v4.1L83.3,66.2
				L83.3,66.2z"/>
			<path class="st1" d="M96.1,66.4c-0.8,0-1.4-0.2-2-0.5s-1.1-0.8-1.4-1.4c-0.3-0.6-0.5-1.4-0.5-2.2s0.2-1.6,0.5-2.2
				s0.8-1.1,1.4-1.4s1.3-0.5,2-0.5s1.4,0.2,2,0.5s1.1,0.8,1.4,1.4s0.5,1.4,0.5,2.2s-0.2,1.6-0.5,2.2c-0.3,0.6-0.8,1.1-1.4,1.4
				S96.8,66.4,96.1,66.4z M96.1,65.3c0.5,0,0.9-0.1,1.3-0.3c0.4-0.2,0.7-0.6,1-1c0.2-0.5,0.4-1,0.4-1.7s-0.1-1.2-0.4-1.7
				c-0.2-0.4-0.6-0.8-1-1s-0.8-0.3-1.3-0.3s-0.9,0.1-1.3,0.3c-0.4,0.2-0.7,0.6-1,1s-0.4,1-0.4,1.7s0.1,1.2,0.4,1.7
				c0.3,0.5,0.6,0.8,1,1C95.2,65.2,95.6,65.3,96.1,65.3z"/>
			<path class="st1" d="M103.2,66.2l-2.3-7.9h1.3l1.7,6.2l1.9-6.2h1.5l1.9,6.2l1.7-6.2h1.4l-2.3,7.9h-1.4l-1.9-6.5l-2,6.5H103.2z"/>
			<path class="st1" d="M119.5,66.2l-2.3-7.9h1.3l1.7,6.2l1.9-6.2h1.5l1.9,6.2l1.7-6.2h1.4l-2.3,7.9h-1.4l-1.9-6.5l-1.9,6.5H119.5z"
				/>
			<path class="st1" d="M133.2,66.4c-0.8,0-1.4-0.2-2-0.5s-1.1-0.8-1.4-1.4c-0.3-0.6-0.5-1.4-0.5-2.2c0-0.8,0.2-1.6,0.5-2.2
				s0.8-1.1,1.4-1.5c0.6-0.3,1.3-0.5,2.1-0.5s1.4,0.2,2,0.5c0.6,0.4,1,0.8,1.3,1.4s0.4,1.2,0.4,1.8c0,0.1,0,0.2,0,0.4s0,0.2,0,0.4
				h-6.3c0,0.6,0.2,1.1,0.4,1.5c0.2,0.4,0.6,0.7,0.9,0.9c0.4,0.2,0.8,0.3,1.2,0.3c0.5,0,1-0.1,1.4-0.4s0.6-0.6,0.8-1h1.3
				c-0.2,0.7-0.6,1.4-1.2,1.8C134.9,66.2,134.2,66.4,133.2,66.4z M133.2,59.2c-0.6,0-1.2,0.2-1.7,0.6s-0.8,1-0.9,1.7h5
				c0-0.7-0.3-1.3-0.7-1.7C134.5,59.4,133.9,59.2,133.2,59.2z"/>
			<path class="st1" d="M146.1,66.2c-0.7,0-1.3-0.2-1.7-0.5c-0.4-0.4-0.6-1-0.6-1.9v-4.4h-1.4v-1.1h1.4l0.2-1.9h1.2v1.9h2.3v1.1
				h-2.3v4.4c0,0.5,0.1,0.8,0.3,1s0.6,0.3,1.1,0.3h0.8v1.1H146.1z"/>
			<path class="st1" d="M149.2,66.2V54.7h1.3v4.9c0.3-0.5,0.7-0.9,1.1-1.1c0.5-0.3,1-0.4,1.6-0.4c0.9,0,1.6,0.3,2.2,0.9
				c0.5,0.6,0.8,1.4,0.8,2.6v4.6H155v-4.5c0-1.6-0.7-2.5-2-2.5c-0.7,0-1.3,0.2-1.7,0.7c-0.5,0.5-0.7,1.2-0.7,2.1v4.1L149.2,66.2
				L149.2,66.2z"/>
			<path class="st1" d="M159.2,56.5c-0.3,0-0.5-0.1-0.7-0.3c-0.2-0.2-0.3-0.4-0.3-0.7c0-0.3,0.1-0.5,0.3-0.6
				c0.2-0.2,0.4-0.3,0.7-0.3s0.5,0.1,0.7,0.3c0.2,0.2,0.3,0.4,0.3,0.6c0,0.3-0.1,0.5-0.3,0.7C159.6,56.4,159.4,56.5,159.2,56.5z
				 M158.5,66.2v-7.9h1.3v7.9H158.5z"/>
			<path class="st1" d="M162.2,66.2v-7.9h1.2l0.1,1.4c0.3-0.5,0.6-0.9,1.1-1.2c0.5-0.3,1-0.4,1.6-0.4c0.9,0,1.7,0.3,2.2,0.9
				c0.6,0.6,0.8,1.4,0.8,2.6v4.6H168v-4.5c0-1.6-0.7-2.5-2.1-2.5c-0.7,0-1.2,0.2-1.7,0.7s-0.7,1.2-0.7,2.1v4.1L162.2,66.2
				L162.2,66.2z"/>
			<path class="st1" d="M171.3,66.2V54.7h1.3v6.9l3.2-3.3h1.7l-3.5,3.6l4,4.4h-1.7l-3.6-4.1v4.1h-1.4V66.2z"/>
			<path class="st1" d="M186.3,66.4c-0.7,0-1.2-0.1-1.6-0.3c-0.4-0.2-0.8-0.5-1-0.9s-0.3-0.8-0.3-1.2c0-0.8,0.3-1.4,0.9-1.9
				c0.6-0.4,1.5-0.7,2.5-0.7h2.1v-0.1c0-0.7-0.2-1.2-0.5-1.6c-0.4-0.4-0.9-0.5-1.5-0.5c-0.5,0-1,0.1-1.3,0.4s-0.6,0.6-0.7,1.1h-1.4
				c0-0.6,0.2-1.1,0.6-1.5c0.3-0.4,0.8-0.7,1.3-0.9c0.5-0.2,1-0.3,1.6-0.3c1.1,0,1.9,0.3,2.5,0.9s0.8,1.4,0.8,2.4v4.9h-1.2l-0.1-1.4
				c-0.2,0.5-0.6,0.8-1,1.1C187.6,66.3,187,66.4,186.3,66.4z M186.5,65.3c0.5,0,0.9-0.1,1.3-0.4c0.4-0.3,0.6-0.6,0.8-1
				c0.2-0.4,0.3-0.9,0.3-1.3l0,0h-2c-0.8,0-1.3,0.1-1.7,0.4c-0.3,0.3-0.5,0.6-0.5,1c0,0.4,0.1,0.8,0.5,1
				C185.5,65.2,185.9,65.3,186.5,65.3z"/>
			<path class="st1" d="M192.3,66.2v-7.9h1.2l0.1,1.4c0.3-0.5,0.6-0.9,1.1-1.2c0.5-0.3,1-0.4,1.6-0.4c0.9,0,1.7,0.3,2.2,0.9
				c0.6,0.6,0.8,1.4,0.8,2.6v4.6H198v-4.5c0-1.6-0.7-2.5-2.1-2.5c-0.7,0-1.2,0.2-1.7,0.7s-0.7,1.2-0.7,2.1v4.1L192.3,66.2
				L192.3,66.2z"/>
			<path class="st1" d="M205,66.4c-0.8,0-1.5-0.2-2.1-0.5c-0.6-0.4-1.1-0.9-1.4-1.5c-0.3-0.6-0.5-1.3-0.5-2.1c0-0.8,0.2-1.5,0.5-2.1
				s0.8-1.1,1.4-1.5c0.6-0.4,1.3-0.5,2.1-0.5c0.7,0,1.2,0.1,1.7,0.4s0.9,0.6,1.2,1.1v-4.9h1.3v11.5H208l-0.1-1.3
				c-0.3,0.4-0.6,0.7-1.1,1C206.4,66.3,205.8,66.4,205,66.4z M205.2,65.3c0.5,0,1-0.1,1.4-0.4s0.7-0.6,1-1c0.2-0.5,0.3-1,0.3-1.6
				s-0.1-1.1-0.3-1.6s-0.6-0.8-1-1.1s-0.9-0.4-1.4-0.4s-1,0.1-1.4,0.4c-0.4,0.2-0.7,0.6-1,1.1c-0.2,0.4-0.3,1-0.3,1.6
				s0.1,1.1,0.3,1.6c0.2,0.5,0.6,0.8,1,1C204.2,65.1,204.7,65.3,205.2,65.3z"/>
			<path class="st1" d="M216.2,66.2v-6.8H215v-1.1h1.2v-1.4c0-0.8,0.2-1.3,0.6-1.7s0.9-0.5,1.7-0.5h0.8v1.1h-0.6
				c-0.4,0-0.7,0.1-0.9,0.2c-0.2,0.2-0.3,0.5-0.3,0.8v1.4h2v1.1h-2v6.8h-1.3V66.2z"/>
			<path class="st1" d="M224.3,66.4c-0.8,0-1.4-0.2-2-0.5s-1-0.8-1.4-1.4c-0.3-0.6-0.5-1.4-0.5-2.2c0-0.8,0.2-1.6,0.5-2.2
				s0.8-1.1,1.4-1.5c0.6-0.3,1.3-0.5,2.1-0.5s1.4,0.2,2,0.5c0.6,0.4,1,0.8,1.3,1.4s0.4,1.2,0.4,1.8c0,0.1,0,0.2,0,0.4
				c0,0.1,0,0.2,0,0.4h-6.3c0,0.6,0.2,1.1,0.4,1.5c0.2,0.4,0.6,0.7,0.9,0.9c0.4,0.2,0.8,0.3,1.2,0.3c0.6,0,1-0.1,1.4-0.4
				s0.7-0.6,0.8-1h1.3c-0.2,0.7-0.6,1.4-1.2,1.8C226,66.2,225.2,66.4,224.3,66.4z M224.3,59.2c-0.6,0-1.2,0.2-1.7,0.6
				s-0.8,1-0.9,1.7h5c0-0.7-0.3-1.3-0.7-1.7C225.5,59.4,225,59.2,224.3,59.2z"/>
			<path class="st1" d="M233.4,66.4c-0.8,0-1.4-0.2-2-0.5s-1.1-0.8-1.4-1.4c-0.3-0.6-0.5-1.4-0.5-2.2c0-0.8,0.2-1.6,0.5-2.2
				s0.8-1.1,1.4-1.5c0.6-0.3,1.3-0.5,2.1-0.5s1.4,0.2,2,0.5c0.6,0.4,1,0.8,1.3,1.4s0.4,1.2,0.4,1.8c0,0.1,0,0.2,0,0.4
				c0,0.1,0,0.2,0,0.4h-6.3c0,0.6,0.2,1.1,0.4,1.5c0.2,0.4,0.6,0.7,0.9,0.9c0.4,0.2,0.8,0.3,1.2,0.3c0.5,0,1-0.1,1.4-0.4
				s0.7-0.6,0.8-1h1.3c-0.2,0.7-0.6,1.4-1.2,1.8C235.1,66.2,234.4,66.4,233.4,66.4z M233.4,59.2c-0.6,0-1.2,0.2-1.7,0.6
				s-0.8,1-0.9,1.7h5c0-0.7-0.3-1.3-0.7-1.7C234.6,59.4,234.1,59.2,233.4,59.2z"/>
			<path class="st1" d="M239,66.2V54.7h1.3v11.5H239z"/>
			<path class="st1" d="M243,66.3c-0.3,0-0.5-0.1-0.7-0.3c-0.2-0.2-0.3-0.4-0.3-0.7c0-0.3,0.1-0.5,0.3-0.6c0.2-0.2,0.4-0.3,0.7-0.3
				s0.5,0.1,0.6,0.3c0.2,0.2,0.3,0.4,0.3,0.6c0,0.3-0.1,0.5-0.3,0.7C243.4,66.2,243.2,66.3,243,66.3z"/>
			<path class="st1" d="M26.5,88.2L30.6,77H32l4.1,11.2h-1.4l-1-2.9h-4.8l-1,2.9H26.5z M29.3,84.3h4l-2-5.5L29.3,84.3z"/>
			<path class="st1" d="M40.8,88.4c-1,0-1.7-0.2-2.4-0.7c-0.6-0.5-1-1.1-1.1-2h1.4c0.1,0.4,0.3,0.8,0.7,1.1c0.4,0.3,0.8,0.5,1.5,0.5
				c0.6,0,1-0.1,1.2-0.4c0.3-0.2,0.4-0.5,0.4-0.9c0-0.5-0.2-0.8-0.5-1s-0.8-0.3-1.5-0.4c-0.4-0.1-0.8-0.2-1.3-0.4s-0.8-0.4-1.1-0.7
				s-0.4-0.7-0.4-1.2c0-0.7,0.3-1.3,0.8-1.7s1.2-0.7,2.1-0.7c0.8,0,1.5,0.2,2.1,0.6c0.5,0.4,0.9,1,0.9,1.8h-1.3c0-0.4-0.2-0.7-0.5-1
				c-0.3-0.2-0.7-0.3-1.2-0.3s-0.9,0.1-1.1,0.3c-0.3,0.2-0.4,0.5-0.4,0.8s0.2,0.6,0.5,0.8c0.3,0.2,0.8,0.3,1.4,0.5
				c0.5,0.1,1,0.2,1.4,0.4c0.4,0.1,0.8,0.4,1.1,0.7c0.3,0.3,0.4,0.7,0.4,1.3c0,0.7-0.3,1.3-0.8,1.8C42.5,88.2,41.7,88.4,40.8,88.4z"
				/>
			<path class="st1" d="M51.6,88.2l-2.3-7.9h1.3l1.7,6.2l1.9-6.2h1.5l1.9,6.2l1.7-6.2h1.4l-2.3,7.9H57l-1.9-6.5l-1.9,6.5H51.6z"/>
			<path class="st1" d="M65.3,88.4c-0.8,0-1.4-0.2-2-0.5s-1-0.8-1.4-1.4c-0.3-0.6-0.5-1.4-0.5-2.2c0-0.8,0.2-1.6,0.5-2.2
				s0.8-1.1,1.4-1.5c0.6-0.3,1.3-0.5,2.1-0.5c0.8,0,1.4,0.2,2,0.5c0.6,0.4,1,0.8,1.3,1.4s0.4,1.2,0.4,1.8c0,0.1,0,0.2,0,0.4
				c0,0.1,0,0.2,0,0.4h-6.3c0,0.6,0.2,1.1,0.4,1.5s0.6,0.7,0.9,0.9c0.4,0.2,0.8,0.3,1.2,0.3c0.5,0,1-0.1,1.4-0.4s0.6-0.6,0.8-1h1.3
				c-0.2,0.7-0.6,1.4-1.2,1.8C67,88.2,66.2,88.4,65.3,88.4z M65.3,81.2c-0.6,0-1.2,0.2-1.7,0.6c-0.5,0.4-0.8,1-0.9,1.7h5
				c0-0.7-0.3-1.3-0.7-1.7C66.5,81.4,66,81.2,65.3,81.2z"/>
			<path class="st1" d="M79.3,88.4c-0.7,0-1.2-0.1-1.7-0.4s-0.9-0.6-1.2-1.1l-0.1,1.3h-1.2V76.7h1.3v4.9c0.3-0.4,0.6-0.7,1.1-1
				s1.1-0.5,1.8-0.5c0.8,0,1.5,0.2,2.1,0.5c0.6,0.4,1,0.9,1.4,1.5c0.3,0.6,0.5,1.3,0.5,2.1c0,0.8-0.2,1.5-0.5,2.1s-0.8,1.1-1.4,1.5
				C80.8,88.3,80.1,88.4,79.3,88.4z M79.2,87.3c0.5,0,1-0.1,1.4-0.4c0.4-0.2,0.7-0.6,1-1c0.2-0.5,0.3-1,0.3-1.6s-0.1-1.1-0.3-1.6
				c-0.2-0.5-0.6-0.8-1-1.1c-0.4-0.2-0.9-0.4-1.4-0.4s-1,0.1-1.4,0.4c-0.4,0.2-0.7,0.6-1,1.1c-0.2,0.4-0.4,1-0.4,1.6
				s0.1,1.1,0.4,1.6c0.2,0.5,0.5,0.8,1,1C78.2,87.1,78.6,87.3,79.2,87.3z"/>
			<path class="st1" d="M88.7,88.4c-0.8,0-1.4-0.2-2-0.5s-1-0.8-1.4-1.4c-0.3-0.6-0.5-1.4-0.5-2.2c0-0.8,0.2-1.6,0.5-2.2
				s0.8-1.1,1.4-1.5c0.6-0.3,1.3-0.5,2.1-0.5c0.8,0,1.4,0.2,2,0.5c0.6,0.4,1,0.8,1.3,1.4s0.4,1.2,0.4,1.8c0,0.1,0,0.2,0,0.4
				c0,0.1,0,0.2,0,0.4h-6.3c0,0.6,0.2,1.1,0.4,1.5s0.6,0.7,0.9,0.9c0.4,0.2,0.8,0.3,1.2,0.3c0.5,0,1-0.1,1.4-0.4s0.7-0.6,0.8-1h1.3
				c-0.2,0.7-0.6,1.4-1.2,1.8C90.4,88.2,89.6,88.4,88.7,88.4z M88.7,81.2c-0.6,0-1.2,0.2-1.7,0.6s-0.8,1-0.9,1.7h5
				c0-0.7-0.3-1.3-0.7-1.7C89.9,81.4,89.4,81.2,88.7,81.2z"/>
			<path class="st1" d="M97.9,88.4c-0.8,0-1.4-0.2-2-0.5s-1.1-0.8-1.4-1.5C94.2,85.8,94,85,94,84.2s0.2-1.6,0.5-2.2s0.8-1.1,1.4-1.5
				c0.6-0.3,1.3-0.5,2-0.5c0.9,0,1.7,0.2,2.4,0.7c0.7,0.5,1,1.2,1.2,2h-1.4c-0.1-0.5-0.4-0.9-0.8-1.1c-0.4-0.3-0.9-0.4-1.5-0.4
				c-0.4,0-0.9,0.1-1.3,0.3c-0.4,0.2-0.7,0.6-1,1c-0.2,0.4-0.4,1-0.4,1.7s0.1,1.2,0.4,1.7c0.2,0.4,0.6,0.8,1,1s0.8,0.3,1.3,0.3
				c0.6,0,1-0.1,1.5-0.4s0.7-0.7,0.8-1.2h1.4c-0.2,0.8-0.6,1.5-1.2,2S98.8,88.4,97.9,88.4z"/>
			<path class="st1" d="M107,88.4c-0.8,0-1.4-0.2-2-0.5s-1.1-0.8-1.4-1.4s-0.5-1.4-0.5-2.2s0.2-1.6,0.5-2.2s0.8-1.1,1.4-1.4
				s1.3-0.5,2-0.5s1.4,0.2,2,0.5s1.1,0.8,1.4,1.4c0.4,0.6,0.5,1.4,0.5,2.2s-0.2,1.6-0.5,2.2c-0.4,0.6-0.8,1.1-1.4,1.4
				C108.4,88.3,107.7,88.4,107,88.4z M107,87.3c0.5,0,0.9-0.1,1.3-0.3c0.4-0.2,0.7-0.6,1-1c0.2-0.5,0.4-1,0.4-1.7s-0.1-1.2-0.4-1.7
				c-0.2-0.4-0.6-0.8-1-1s-0.8-0.3-1.3-0.3s-0.9,0.1-1.3,0.3c-0.4,0.2-0.7,0.6-1,1c-0.2,0.5-0.4,1-0.4,1.7s0.1,1.2,0.4,1.7
				c0.2,0.4,0.6,0.8,1,1C106.1,87.2,106.5,87.3,107,87.3z"/>
			<path class="st1" d="M112.8,88.2v-7.9h1.2l0.1,1.1c0.3-0.4,0.6-0.8,1-1s0.9-0.4,1.4-0.4c0.6,0,1.2,0.1,1.6,0.4s0.8,0.6,1.1,1.2
				c0.3-0.5,0.7-0.9,1.1-1.1c0.5-0.3,1-0.4,1.6-0.4c0.9,0,1.7,0.3,2.3,0.9c0.6,0.6,0.9,1.4,0.9,2.6v4.6h-1.3v-4.5
				c0-0.8-0.2-1.4-0.5-1.9c-0.3-0.4-0.8-0.6-1.4-0.6s-1.2,0.2-1.6,0.7s-0.6,1.2-0.6,2.1v4.1h-1.3v-4.5c0-0.8-0.2-1.4-0.5-1.9
				c-0.3-0.4-0.8-0.6-1.4-0.6s-1.2,0.2-1.6,0.7s-0.6,1.2-0.6,2.1V88L112.8,88.2L112.8,88.2z"/>
			<path class="st1" d="M130.7,88.4c-0.8,0-1.4-0.2-2-0.5s-1.1-0.8-1.4-1.4c-0.3-0.6-0.5-1.4-0.5-2.2c0-0.8,0.2-1.6,0.5-2.2
				s0.8-1.1,1.4-1.5c0.6-0.3,1.3-0.5,2.1-0.5s1.4,0.2,2,0.5c0.6,0.4,1,0.8,1.3,1.4s0.4,1.2,0.4,1.8c0,0.1,0,0.2,0,0.4s0,0.2,0,0.4
				h-6.3c0,0.6,0.2,1.1,0.4,1.5s0.6,0.7,0.9,0.9c0.4,0.2,0.8,0.3,1.2,0.3c0.5,0,1-0.1,1.4-0.4s0.6-0.6,0.8-1h1.3
				c-0.2,0.7-0.6,1.4-1.2,1.8C132.4,88.2,131.6,88.4,130.7,88.4z M130.7,81.2c-0.6,0-1.2,0.2-1.7,0.6s-0.8,1-0.9,1.7h5
				c0-0.7-0.3-1.3-0.7-1.7C131.9,81.4,131.4,81.2,130.7,81.2z"/>
			<path class="st1" d="M140.5,88.2v-7.9h1.2l0.1,1.1c0.3-0.4,0.6-0.8,1-1s0.9-0.4,1.4-0.4c0.6,0,1.2,0.1,1.6,0.4
				c0.4,0.2,0.8,0.6,1,1.2c0.3-0.5,0.7-0.9,1.1-1.1c0.5-0.3,1-0.4,1.6-0.4c1,0,1.7,0.3,2.3,0.9s0.9,1.4,0.9,2.6v4.6h-1.3v-4.5
				c0-0.8-0.2-1.4-0.5-1.9c-0.3-0.4-0.8-0.6-1.4-0.6c-0.6,0-1.2,0.2-1.6,0.7c-0.4,0.5-0.6,1.2-0.6,2.1v4.1H146v-4.5
				c0-0.8-0.2-1.4-0.5-1.9c-0.3-0.4-0.8-0.6-1.4-0.6c-0.6,0-1.1,0.2-1.6,0.7c-0.4,0.5-0.6,1.2-0.6,2.1V88L140.5,88.2L140.5,88.2z"/>
			<path class="st1" d="M158.4,88.4c-0.8,0-1.4-0.2-2-0.5s-1.1-0.8-1.4-1.4c-0.3-0.6-0.5-1.4-0.5-2.2s0.2-1.6,0.5-2.2
				s0.8-1.1,1.4-1.4c0.6-0.3,1.3-0.5,2-0.5s1.4,0.2,2,0.5s1.1,0.8,1.4,1.4c0.3,0.6,0.5,1.4,0.5,2.2s-0.2,1.6-0.5,2.2
				s-0.8,1.1-1.4,1.4C159.8,88.3,159.2,88.4,158.4,88.4z M158.4,87.3c0.5,0,0.9-0.1,1.3-0.3c0.4-0.2,0.7-0.6,1-1
				c0.2-0.5,0.4-1,0.4-1.7s-0.1-1.2-0.4-1.7s-0.6-0.8-0.9-1c-0.4-0.2-0.8-0.3-1.3-0.3s-0.9,0.1-1.3,0.3c-0.4,0.2-0.7,0.6-1,1
				s-0.4,1-0.4,1.7s0.1,1.2,0.4,1.7s0.6,0.8,0.9,1C157.6,87.2,158,87.3,158.4,87.3z"/>
			<path class="st1" d="M164.3,88.2v-7.9h1.2l0.1,1.5c0.2-0.5,0.6-0.9,1.1-1.2s1.1-0.5,1.9-0.5v1.4h-0.4c-0.5,0-0.9,0.1-1.3,0.2
				c-0.4,0.2-0.7,0.5-0.9,0.8c-0.2,0.4-0.3,0.9-0.3,1.6v4h-1.4V88.2z"/>
			<path class="st1" d="M173.4,88.4c-0.8,0-1.4-0.2-2-0.5s-1.1-0.8-1.4-1.4c-0.3-0.6-0.5-1.4-0.5-2.2c0-0.8,0.2-1.6,0.5-2.2
				s0.8-1.1,1.4-1.5c0.6-0.3,1.3-0.5,2.1-0.5s1.4,0.2,2,0.5c0.6,0.4,1,0.8,1.3,1.4s0.4,1.2,0.4,1.8c0,0.1,0,0.2,0,0.4s0,0.2,0,0.4
				h-6.3c0,0.6,0.2,1.1,0.4,1.5s0.6,0.7,0.9,0.9c0.4,0.2,0.8,0.3,1.2,0.3c0.5,0,1-0.1,1.4-0.4s0.6-0.6,0.8-1h1.3
				c-0.2,0.7-0.6,1.4-1.2,1.8C175.1,88.2,174.3,88.4,173.4,88.4z M173.4,81.2c-0.6,0-1.2,0.2-1.7,0.6s-0.8,1-0.9,1.7h5
				c0-0.7-0.3-1.3-0.7-1.7C174.6,81.4,174,81.2,173.4,81.2z"/>
			<path class="st1" d="M185.8,88.4c-0.7,0-1.2-0.1-1.6-0.3c-0.4-0.2-0.8-0.5-1-0.9s-0.3-0.8-0.3-1.2c0-0.8,0.3-1.4,0.9-1.9
				c0.6-0.4,1.5-0.7,2.5-0.7h2.1v-0.1c0-0.7-0.2-1.2-0.5-1.6c-0.4-0.4-0.8-0.5-1.5-0.5c-0.5,0-1,0.1-1.4,0.4s-0.6,0.6-0.7,1.1H183
				c0.1-0.6,0.2-1.1,0.6-1.5c0.3-0.4,0.8-0.7,1.3-0.9c0.5-0.2,1-0.3,1.6-0.3c1.1,0,1.9,0.3,2.5,0.9s0.8,1.4,0.8,2.4v4.9h-1.2
				l-0.1-1.4c-0.2,0.5-0.6,0.8-1,1.1C187.1,88.3,186.5,88.4,185.8,88.4z M186,87.3c0.5,0,0.9-0.1,1.3-0.4c0.4-0.3,0.7-0.6,0.8-1
				c0.2-0.4,0.3-0.9,0.3-1.3l0,0h-2c-0.8,0-1.4,0.1-1.7,0.4s-0.5,0.6-0.5,1s0.2,0.8,0.5,1C185,87.2,185.4,87.3,186,87.3z"/>
			<path class="st1" d="M195.4,88.4c-0.8,0-1.4-0.2-2-0.5s-1.1-0.8-1.4-1.5c-0.4-0.6-0.5-1.4-0.5-2.2s0.2-1.6,0.5-2.2
				s0.8-1.1,1.4-1.5c0.6-0.3,1.3-0.5,2-0.5c0.9,0,1.7,0.2,2.4,0.7s1.1,1.2,1.2,2h-1.4c-0.1-0.5-0.4-0.9-0.8-1.1
				c-0.4-0.3-0.9-0.4-1.5-0.4c-0.4,0-0.9,0.1-1.3,0.3c-0.4,0.2-0.7,0.6-1,1c-0.2,0.4-0.4,1-0.4,1.7s0.1,1.2,0.4,1.7
				c0.2,0.4,0.6,0.8,1,1s0.8,0.3,1.3,0.3c0.6,0,1-0.1,1.5-0.4s0.7-0.7,0.8-1.2h1.4c-0.2,0.8-0.6,1.5-1.2,2
				C197.2,88.2,196.4,88.4,195.4,88.4z"/>
			<path class="st1" d="M203.8,88.2c-0.7,0-1.3-0.2-1.7-0.5c-0.4-0.4-0.6-1-0.6-1.9v-4.4h-1.4v-1.1h1.4l0.2-1.9h1.2v1.9h2.3v1.1
				h-2.3v4.4c0,0.5,0.1,0.8,0.3,1s0.6,0.3,1.1,0.3h0.8v1.1H203.8z"/>
			<path class="st1" d="M207.7,78.5c-0.3,0-0.5-0.1-0.7-0.3c-0.2-0.2-0.3-0.4-0.3-0.7c0-0.3,0.1-0.5,0.3-0.6
				c0.2-0.2,0.4-0.3,0.7-0.3s0.5,0.1,0.7,0.3c0.2,0.2,0.3,0.4,0.3,0.6c0,0.3-0.1,0.5-0.3,0.7C208.2,78.4,207.9,78.5,207.7,78.5z
				 M207,88.2v-7.9h1.3v7.9H207z"/>
			<path class="st1" d="M213,88.2l-3-7.9h1.4l2.4,6.6l2.4-6.6h1.4l-3,7.9H213z"/>
			<path class="st1" d="M222.2,88.4c-0.8,0-1.4-0.2-2-0.5s-1.1-0.8-1.4-1.4c-0.3-0.6-0.5-1.4-0.5-2.2c0-0.8,0.2-1.6,0.5-2.2
				s0.8-1.1,1.4-1.5c0.6-0.3,1.3-0.5,2.1-0.5s1.4,0.2,2,0.5c0.6,0.4,1,0.8,1.3,1.4s0.5,1.2,0.5,1.8c0,0.1,0,0.2,0,0.4
				c0,0.1,0,0.2,0,0.4h-6.3c0,0.6,0.2,1.1,0.4,1.5s0.6,0.7,0.9,0.9c0.4,0.2,0.8,0.3,1.2,0.3c0.6,0,1-0.1,1.4-0.4s0.6-0.6,0.8-1h1.3
				c-0.2,0.7-0.6,1.4-1.2,1.8C223.9,88.2,223.1,88.4,222.2,88.4z M222.2,81.2c-0.6,0-1.2,0.2-1.7,0.6s-0.8,1-0.9,1.7h5
				c0-0.7-0.3-1.3-0.7-1.7C223.4,81.4,222.9,81.2,222.2,81.2z"/>
			<path class="st1" d="M226.7,90.1l0.9-3.5h1.4l-1.4,3.5H226.7z"/>
			<path class="st1" d="M235.6,78.5c-0.3,0-0.5-0.1-0.7-0.3c-0.2-0.2-0.3-0.4-0.3-0.7c0-0.3,0.1-0.5,0.3-0.6
				c0.2-0.2,0.4-0.3,0.7-0.3s0.5,0.1,0.7,0.3c0.2,0.2,0.3,0.4,0.3,0.6c0,0.3-0.1,0.5-0.3,0.7C236.1,78.4,235.9,78.5,235.6,78.5z
				 M235,88.2v-7.9h1.3v7.9H235z"/>
			<path class="st1" d="M241.8,88.2c-0.7,0-1.3-0.2-1.7-0.5c-0.4-0.4-0.6-1-0.6-1.9v-4.4h-1.4v-1.1h1.4l0.2-1.9h1.2v1.9h2.3v1.1
				h-2.3v4.4c0,0.5,0.1,0.8,0.3,1s0.6,0.3,1.1,0.3h0.8v1.1H241.8z"/>
			<path class="st2" d="M26.9,99.7c0.3-0.1,0.7-0.2,1.2-0.2c1,0,2.1,0.2,3.2,0.7c1.1,0.5,1.9,1,2.3,1.7c0.5,0.7,0.7,1.5,0.7,2.4
				c0,1-0.3,2.4-1,4l-0.5,1.2l0.8,0.8c0.6,0.6,1,1.2,1.4,1.9c0.3,0.8,0.5,1.5,0.5,2.2s0,1.3,0,1.8c-0.1,1.3-0.1,2.2-0.2,2.6
				s-0.3,1-0.7,1.7c-0.7,1.5-1.4,2.4-1.9,2.9c-0.6,0.5-1.4,0.7-2.5,0.7c-1.2,0-2,0-2.2,0.1l0,0c-0.5,0-0.9-0.2-1.3-0.8
				s-0.7-1.1-0.8-1.8c0-0.1,0-0.5,0-1c0-0.9,0-1.8,0.1-2.6c0.2-1.5,0.3-5.4,0.3-11.6c0-3.2-0.1-4.9-0.1-5.1c0,0,0-0.1,0-0.2
				c0-0.2,0.1-0.5,0.3-0.8C26.5,100,26.7,99.8,26.9,99.7z M31.5,113c-0.2-0.2-0.4-0.4-0.8-0.4c-0.3,0-0.6,0.1-0.8,0.5
				c-0.2,0.3-0.3,2-0.3,4.9c0,1.5,0,2.2,0.1,2.3h0.1c0.2,0,0.4-0.2,0.7-0.7c0.3-0.5,0.6-1,0.8-1.6c0.3-0.8,0.5-1.8,0.5-3.1
				C31.8,114,31.7,113.3,31.5,113z M30.4,104.1c-0.1-0.3-0.2-0.4-0.4-0.4c-0.2,0-0.3,0.6-0.3,1.8c0,1.1,0.1,1.6,0.1,1.6l0,0
				c0.1-0.1,0.3-0.5,0.4-0.9c0.1-0.5,0.2-0.8,0.2-1.1c0-0.1,0-0.3,0-0.5C30.4,104.3,30.4,104.2,30.4,104.1z"/>
			<path class="st2" d="M42.1,100.3c0.4-0.1,0.9-0.1,1.5-0.1c1.7,0,2.7,0.2,3.2,0.6c0.3,0.3,0.5,0.6,0.5,1s-0.1,0.7-0.5,1
				c-0.3,0.3-0.7,0.4-1.2,0.4s-0.8,0.1-0.9,0.3s-0.2,0.8-0.2,1.6c0,0.2,0,1,0.1,2.3c0.1,1.5,0.1,2.5,0.2,2.9s0.2,0.7,0.3,0.7
				c0,0,0.2,0,0.6,0c0.4,0,0.7,0,0.9,0c0.7,0,1.3,0.2,1.6,0.6c0.2,0.2,0.3,0.4,0.3,0.6c0,0.5-0.7,0.9-2,1.4
				c-0.8,0.3-1.2,0.5-1.4,0.6c-0.1,0.1-0.3,0.5-0.3,1c-0.1,0.5-0.1,0.9-0.1,1.3c0,1.5,0.1,2.7,0.4,3.4c0.1,0.3,0.3,0.5,0.4,0.6
				c0.2,0.1,0.5,0.1,1,0.1c0.6,0,1.2,0.1,1.7,0.4s0.7,0.6,0.7,1c0,0.3-0.2,0.6-0.7,1.1c-0.7,0.7-2,1.1-3.7,1.1
				c-1.8,0-2.9-0.4-3.5-1.1c-0.3-0.4-0.5-3-0.5-7.8c-0.1-6-0.1-9.5-0.2-10.6l-0.1-3.4l0.6-0.4C41.3,100.6,41.7,100.4,42.1,100.3z"/>
			<path class="st2" d="M56.8,102c0.6-0.6,1-0.9,1.2-1.1c0.2-0.1,0.6-0.2,1.1-0.2c1.4,0,2.1,0.5,2.1,1.4c0,0.8-0.6,1.6-1.8,2.2
				c-0.8,0.4-1.4,2-1.8,4.6c-0.2,1.2-0.3,2.4-0.3,3.7s0.1,2.6,0.2,4c0.1,1.7,0.4,2.9,0.7,3.6s0.8,1.1,1.6,1.2c1.2,0.2,1.9,0.6,2.1,1
				c0,0.1,0.1,0.1,0.1,0.2c0,0.3-0.2,0.6-0.5,0.9c-0.4,0.3-0.8,0.5-1.2,0.6c-0.1,0-0.3,0-0.5,0c-1.1,0-2.1-0.3-3.1-0.8
				c-0.3-0.2-0.7-0.8-1.2-1.6c-0.5-0.9-0.8-1.8-1.1-2.6c-0.3-1.2-0.5-3.4-0.5-6.6c0-1.2,0.1-2.4,0.2-3.5c0.2-1.9,0.6-3.3,1-4.3
				C55.3,103.8,55.9,102.9,56.8,102z"/>
			<path class="st2" d="M67.8,100.2l0.8-1.1h5.7l0.9,0.9c0.6,0.6,1,1.3,1.2,2.2c0.2,0.9,0.4,2.3,0.6,4.1c0.1,0.7,0.1,1.7,0.1,3.1
				c0,3.1-0.3,5.9-0.9,8.5s-1.3,4.3-2.3,5.2c-0.3,0.3-0.8,0.6-1.3,0.8c-0.6,0.2-1.1,0.3-1.5,0.3c-0.2,0-0.3,0-0.5-0.1
				s-0.6-0.2-1-0.2c-0.3,0-0.7-0.2-1-0.8c-0.4-0.5-0.7-1.1-1-1.8c-0.4-1.2-0.7-2.5-0.8-3.9c-0.1-1.4-0.2-3.7-0.2-6.8v-2.1
				c0-2.9,0.1-4.8,0.2-5.8C67,101.7,67.3,100.9,67.8,100.2z M72.1,102.4c-0.3-0.6-0.5-0.9-0.7-0.9s-0.5,0.5-0.8,1.4
				c-0.2,0.7-0.4,2.1-0.4,4.2c0,1.6,0.1,3.4,0.2,5.2c0.1,1.7,0.3,3.4,0.6,4.9c0.3,1.5,0.5,2.3,0.7,2.3s0.3-0.3,0.4-1
				c0.1-0.5,0.3-1,0.5-1.4c0.1-0.2,0.2-1.5,0.4-4c0.1-1.3,0.1-2.5,0.1-3.6C73.3,106.3,72.9,103.8,72.1,102.4z"/>
			<path class="st2" d="M93.3,100.4c0.4-0.1,0.8-0.2,1.1-0.2c0.8,0,1.4,0.3,1.7,0.8c0.2,0.3,0.5,1.6,0.7,3.9s0.4,4.7,0.5,7.4
				c0,0.9,0.1,2.1,0.2,3.7s0.1,3,0.2,4.1c0.1,1.2,0.1,2.1,0.1,2.8c0,0.4-0.2,0.7-0.7,1s-0.9,0.4-1.5,0.4c-0.5,0-0.8-0.1-1-0.3
				l-0.6-0.5l-0.1-5.5c-0.2-6.3-0.5-9.5-0.8-9.5c-0.2,0-0.6,0.8-1.1,2.4c-0.3,0.9-0.6,1.5-0.8,1.9c-0.3,0.4-0.7,0.5-1.1,0.5
				c-0.3,0-0.7-0.1-1.2-0.3c-0.5-0.2-0.9-0.7-1.3-1.4c-0.4-0.8-0.5-1.2-0.5-1.3c0-0.1-0.1-0.3-0.2-0.6c-0.2-0.3-0.3-0.6-0.5-0.9
				s-0.3-0.4-0.3-0.3v0.5c0,1.3,0,3.3,0.1,5.9l0.2,6.4l-0.6,1c-0.7,1-1.2,1.6-1.7,1.6c-0.3,0-0.6-0.2-0.9-0.7
				c-0.2-0.4-0.4-0.9-0.5-1.7c-0.1-0.8-0.1-3.1-0.2-6.9c-0.2-7.1-0.4-11.1-0.5-12c0-0.1-0.1-0.3-0.1-0.5c0-0.3,0.2-0.7,0.5-1
				c0.4-0.4,0.8-0.5,1.3-0.5s1.1,0.1,1.7,0.4s1.1,0.6,1.4,1.1s1.1,1.8,2.3,4c0.3,0.6,0.6,0.9,0.7,0.9c0.2,0,0.3-0.2,0.5-0.6
				c0.2-0.5,0.4-1.1,0.8-1.8c0.4-0.9,0.6-1.4,0.6-1.5c0-0.3,0.2-0.7,0.6-1.4C92.8,100.8,93.1,100.4,93.3,100.4z"/>
			<path class="st2" d="M104.3,100.3c0.4-0.1,0.8-0.1,1.5-0.1c1.7,0,2.7,0.2,3.1,0.6c0.3,0.3,0.5,0.6,0.5,1s-0.2,0.7-0.5,1
				s-0.7,0.4-1.2,0.4s-0.8,0.1-0.9,0.3c-0.2,0.2-0.2,0.8-0.2,1.6c0,0.2,0,1,0.1,2.3c0.1,1.5,0.1,2.5,0.2,2.9s0.2,0.7,0.3,0.7
				c0,0,0.2,0,0.6,0s0.7,0,0.9,0c0.7,0,1.3,0.2,1.6,0.6c0.2,0.2,0.3,0.4,0.3,0.6c0,0.5-0.7,0.9-2,1.4c-0.8,0.3-1.2,0.5-1.4,0.6
				c-0.1,0.1-0.3,0.5-0.3,1c-0.1,0.5-0.1,0.9-0.1,1.3c0,1.5,0.1,2.7,0.4,3.4c0.1,0.3,0.3,0.5,0.4,0.6c0.2,0.1,0.5,0.1,1,0.1
				c0.6,0,1.2,0.1,1.6,0.4c0.5,0.3,0.7,0.6,0.7,1c0,0.3-0.2,0.6-0.7,1.1c-0.7,0.7-1.9,1.1-3.7,1.1c-1.8,0-2.9-0.4-3.5-1.1
				c-0.3-0.4-0.5-3-0.6-7.8c-0.1-6-0.1-9.5-0.2-10.6l-0.1-3.4l0.6-0.4C103.4,100.6,103.9,100.4,104.3,100.3z"/>
			<path class="st2" d="M119.3,99.7c0.4-0.2,0.8-0.3,1.3-0.3c0.3,0,0.6,0,0.8,0.1c0.9,0.1,1.5,0.2,1.8,0.4c0.3,0.1,0.6,0.5,0.9,0.9
				c0.3,0.5,0.5,1,0.5,1.5s-0.2,1-0.6,1.4s-0.7,0.6-1.1,0.6s-0.8-0.3-1.1-0.8c-0.3-0.4-0.6-0.6-0.9-0.6s-0.5,0.2-0.8,0.6
				s-0.4,0.8-0.5,1.3v0.2c0,1.7,1.3,4.8,3.8,9.3c0.4,0.7,0.8,2.1,1.2,4c0,0.1,0.1,0.3,0.1,0.6c0,1.7-0.4,3-1.1,3.9
				c-0.3,0.4-0.8,0.8-1.5,1.1c-0.7,0.3-1.3,0.5-1.8,0.5c-0.1,0-0.1,0-0.2,0s-0.1,0-0.2,0c-0.7-0.1-1.6-0.6-2.5-1.6
				c-1-0.9-1.5-1.7-1.5-2.2c0-0.2,0.2-0.5,0.5-0.9c0.3-0.3,0.7-0.5,1-0.6c0.1,0,0.2,0,0.3,0c0.3,0,0.9,0.5,1.6,1.5
				c0.3,0.4,0.6,0.6,0.9,0.6s0.5-0.2,0.7-0.5c0.1-0.1,0.1-0.4,0.1-0.7c0-1.8-0.8-4.3-2.4-7.7c-1.5-3.2-2.2-5.5-2.2-7
				c0-0.7,0.1-1.3,0.4-1.9c0.5-1.2,0.9-2,1.1-2.4C118.2,100.4,118.7,100.1,119.3,99.7z"/>
			<path class="st3" d="M240.4,157c-13.5,51.7,59.8,25,74.7,37.4c0.9,0.8,0.7,2.3-0.4,2.7l-50.2,28.3c-0.6,0.3-1.4,0.4-2,0.3
				c-12-0.8-91.9-7.5-93.5-15.2c-1.9-8.8-4-22.7-5.6-44.5"/>
			<path class="st2" d="M162.6,185.1c0.4,2.5-0.7,8.7-8.3,6c-12-3.7-46.5-21.6-28.1-37.1c8-6.8,15.4,3.6,20.9,13
				C153.4,177.8,162.5,185.3,162.6,185.1z"/>
			<path class="st2" d="M231.9,185.1c-0.4,2.5,0.7,8.7,8.3,6c12-3.7,46.5-21.6,28.1-37.1c-8-6.8-15.3,3.6-20.9,13
				C241,177.8,232,185.3,231.9,185.1z"/>
			<path class="st4" d="M240.8,122c0,0-27.5,22-48.2,7.9C192.6,130,207.1,111.5,240.8,122z"/>
			<path class="st5" d="M219.9,111.2c0,0-4.5,20.3-30.9,22.8C189,134,188.8,125.1,219.9,111.2z"/>
			<path class="st6" d="M173.6,131.5c-11.7,5.7-29.6,22.1-27.5,54.6c0.6,8.7,1.8,24.2,6.8,33.3c5.1,9.2-5.1,15.8-2.5,24.5
				c4.6,14.8,9.3-7.7,46.1-10.9c22-1.9,45.6,22.6,46.4,6.3c0.3-6.1-7-9.7-3.8-19.4c3.9-12.1,8.8-13.7,9.7-32.4
				C252,124.8,196,120.5,173.6,131.5z"/>
			<path class="st7" d="M239.2,219.9c0.5-1.6,1-3,1.6-4.3l-46.5-9.5l-43.1,9.5c0.5,1.4,1.1,2.7,1.8,3.9c5.1,9.2-5.2,15.8-2.5,24.4
				c4.6,14.8,9.3-7.7,46.1-10.9c22-1.9,45.6,22.6,46.4,6.3C243.3,233.1,236,229.6,239.2,219.9z"/>
			<path d="M201.8,174.4c0,1.1,0.8,6.9-7.2,6.9s-8.2-5.8-8.2-6.9c0-1,3.4-0.2,7.7-0.2C198.3,174.2,201.8,173.4,201.8,174.4z"/>
			<path class="st0" d="M194.7,175.8h-1.4c-0.4,0-0.7-0.3-0.7-0.6v-1h2.7v1C195.3,175.5,195,175.8,194.7,175.8z"/>
			<path class="st4" d="M183.8,108.9c0,0,5.9,1.6,6.9,8.5C190.6,117.4,188.1,117.2,183.8,108.9z"/>
			<path class="st4" d="M198.7,112.6c0,0,0.3,9.9-9.3,9.9C189.4,122.5,189.9,118.1,198.7,112.6z"/>
			<path class="st8" d="M190,129.4c-0.4-0.6-2.7-12.9,6.1-23"/>
			<path class="st9" d="M196.2,102c0,0-7.5-5.8-10-2.7C183.8,102.5,194.8,104.3,196.2,102z"/>
			<path class="st9" d="M196.1,101.9c0,0-10.4-0.2-8.9,3.4C188.8,109,197.5,104.3,196.1,101.9z"/>
			<path class="st9" d="M197.8,102.4c0,0-9.6,2.7-6.6,5.8C194.3,111.3,200.1,104.4,197.8,102.4z"/>
			<path class="st9" d="M198.6,101.9c0,0-3.2-9.5-6.1-6.3C189.6,98.8,196.8,104.3,198.6,101.9z"/>
			<path class="st9" d="M197.9,103c0,0,9.9-1,7.5-4.6C202.9,94.9,196,100.7,197.9,103z"/>
			<path class="st9" d="M198.6,103.7c0,0,3.8-7.2,0.5-7.5C195.7,96,196.2,103.8,198.6,103.7z"/>
			<path class="st9" d="M198.6,103c0,0,8.6-4,10.3-0.4C210.6,106.2,199.4,105.6,198.6,103z"/>
			<path class="st9" d="M198.4,102.3c0,0,10.2,2.1,7.9,5.3C204.1,110.8,196.6,104.4,198.4,102.3z"/>
			<path class="st9" d="M198.1,101.8c0,0,6.1,7.9,1.8,8.5C195.7,111,195,102,198.1,101.8z"/>
			<path class="st7" d="M203.3,103.2c0.1-1.3-2.3-2.6-5.4-2.9c-3.1-0.3-5.8,0.4-5.9,1.7c-0.1,1.3,2.3,2.6,5.4,2.9
				C200.5,105.3,203.2,104.5,203.3,103.2z"/>
			<path d="M210,168.5c1.9,0,3.4-1.5,3.4-3.4s-1.5-3.4-3.4-3.4s-3.4,1.5-3.4,3.4C206.7,167,208.2,168.5,210,168.5z"/>
			<path d="M178.4,168.5c1.9,0,3.4-1.5,3.4-3.4s-1.5-3.4-3.4-3.4s-3.4,1.5-3.4,3.4S176.5,168.5,178.4,168.5z"/>
			<path class="st2" d="M263.8,168.4c2.1,2.1,5.6,2.1,7.6,0c4.5-4.8,4.5-8.2-3.1-14.4c-4.1-3.3-8.1-2.8-12.5,1.5
				c-1.3,1.2-1.3,3.3-0.2,4.6C258.3,163.1,263,167.6,263.8,168.4z"/>
			<path class="st2" d="M130.5,168.4c-2.1,2.1-5.6,2.1-7.6,0c-4.5-4.8-4.5-8.2,3.1-14.4c4.1-3.3,8.1-2.8,12.5,1.5
				c1.3,1.2,1.3,3.3,0.2,4.6C136,163.1,131.2,167.6,130.5,168.4z"/>
			<path class="st3" d="M157.5,153l-0.9,0.7c-0.9,0.7-2.3,0.5-3-0.5c-1.6-2.2-3.7-6.2-1.6-8.5c3.1-3.4,8.9-3.9,8.9-3.9
				s-5.6,5.5-3,9.2C158.6,151,158.4,152.3,157.5,153z"/>
			<path class="st3" d="M237.2,153l1,0.7c0.9,0.7,2.3,0.5,3-0.5c1.5-2.2,3.7-6.2,1.6-8.5c-3.1-3.4-8.9-3.9-8.9-3.9s5.6,5.5,3,9.2
				C236.2,151,236.3,152.3,237.2,153z"/>
			<path class="st7" d="M146.4,204.2l45.4-3.8l-0.5,13.1l-34,3.6c-4.7,0.5-9.1-2.1-10.9-6.5l-1.6-3.7
				C144.2,205.7,145.1,204.3,146.4,204.2z"/>
			<path class="st7" d="M246.7,204.2l-45.4-3.8l0.5,13.1l34,3.6c4.7,0.5,9.1-2.1,10.9-6.5l1.6-3.7
				C248.8,205.7,248,204.3,246.7,204.2z"/>
			<path class="st3" d="M248.9,207c-0.7,0-21.4-3.1-51.6-2.8c-27.1,0.3-51.3,2.8-51.9,2.8c-0.8,0-1.5-0.6-1.5-1.4
				c0-1.5,0-3.1,20.6-4.4c11.4-0.8,26.4-1.2,40.4-1.2c12.4,0,23.1,0.3,30.8,1c12.3,1,14.7,2.5,14.7,4.6
				C250.4,206.4,249.7,207,248.9,207z M146.9,205.6L146.9,205.6L146.9,205.6z"/>
			<path class="st10" d="M205.5,192.8h-18.4c-0.3,0-0.6,0.1-0.8,0.4l-3.4,4.3c-0.3,0.3-0.3,0.8,0,1.2l10.4,14.5
				c0.2,0.3,0.5,0.4,0.8,0.4h4.4c0.3,0,0.6-0.1,0.8-0.4l10.4-14.5c0.2-0.4,0.2-0.8,0-1.2l-3.4-4.3
				C206.1,192.9,205.8,192.8,205.5,192.8z"/>
			<path class="st3" d="M195.6,196c0.3-0.1,0.6-0.1,1-0.1c0.2,0,0.5,0,0.6,0c0.7,0,1.1,0.1,1.4,0.2c0.2,0.1,0.5,0.2,0.7,0.4
				c0.2,0.2,0.3,0.5,0.3,0.7c0,0.3-0.2,0.5-0.5,0.7s-0.6,0.3-0.8,0.3c-0.3,0-0.6-0.1-0.9-0.4c-0.2-0.2-0.4-0.3-0.7-0.3
				c-0.2,0-0.4,0.1-0.6,0.3c-0.2,0.2-0.3,0.4-0.4,0.6v0.1c0,0.8,1,2.3,2.9,4.5c0.3,0.3,0.6,1,0.9,1.9c0,0.1,0,0.2,0,0.3
				c0,0.8-0.3,1.4-0.8,1.9c-0.2,0.2-0.6,0.4-1.1,0.5s-1,0.2-1.4,0.2h-0.1c-0.1,0-0.1,0-0.1,0c-0.5-0.1-1.2-0.3-1.9-0.8
				c-0.8-0.5-1.1-0.8-1.1-1.1c0-0.1,0.1-0.2,0.4-0.4c0.2-0.1,0.5-0.2,0.7-0.3c0.1,0,0.1,0,0.2,0c0.2,0,0.7,0.2,1.2,0.7
				c0.2,0.2,0.4,0.3,0.7,0.3c0.2,0,0.4-0.1,0.5-0.3c0-0.1,0.1-0.2,0.1-0.3c0-0.9-0.6-2.1-1.8-3.7c-1.1-1.5-1.7-2.7-1.7-3.4
				c0-0.3,0.1-0.6,0.3-0.9c0.4-0.6,0.7-1,0.9-1.1C194.8,196.3,195.1,196.2,195.6,196z"/>
			<path class="st7" d="M155,152.5c0.7,0,1.3-0.6,1.3-1.3s-0.6-1.3-1.3-1.3s-1.3,0.6-1.3,1.3S154.3,152.5,155,152.5z"/>
			<path class="st7" d="M239.4,152.5c0.7,0,1.3-0.6,1.3-1.3s-0.6-1.3-1.3-1.3s-1.3,0.6-1.3,1.3S238.7,152.5,239.4,152.5z"/>
			<path class="st2" d="M28.3,133.3c0.4-0.1,0.8-0.1,1.5-0.1c1.7,0,2.7,0.2,3.2,0.5c0.3,0.3,0.5,0.6,0.5,1s-0.2,0.7-0.5,1
				s-0.7,0.4-1.2,0.4c-0.5,0-0.8,0.1-0.9,0.3c-0.1,0.2-0.2,0.8-0.2,1.6c0,0.2,0,1,0.1,2.3c0.1,1.5,0.1,2.5,0.2,2.9
				c0.1,0.4,0.2,0.7,0.3,0.7c0,0,0.2,0,0.6,0c0.4,0,0.7,0,0.9,0c0.7,0,1.3,0.2,1.6,0.5c0.2,0.2,0.3,0.4,0.3,0.6c0,0.5-0.7,0.9-2,1.4
				c-0.8,0.3-1.2,0.5-1.4,0.6s-0.3,0.5-0.3,1c-0.1,0.5-0.1,0.9-0.1,1.3c0,1.5,0.1,2.7,0.4,3.4c0.1,0.3,0.3,0.5,0.4,0.6
				c0.2,0.1,0.5,0.1,1,0.1c0.6,0,1.2,0.1,1.7,0.4s0.7,0.6,0.7,1c0,0.3-0.2,0.6-0.7,1.1c-0.7,0.7-2,1-3.7,1c-1.8,0-2.9-0.4-3.5-1.1
				c-0.3-0.4-0.5-3-0.5-7.8c-0.1-6-0.1-9.5-0.2-10.6l-0.1-3.4l0.6-0.4C27.4,133.6,27.9,133.4,28.3,133.3z"/>
			<path class="st2" d="M43.4,133.5c0.8-0.8,2-1.2,3.6-1.2c0.7,0,1.3,0.1,1.7,0.4c0.6,0.3,1.1,1.2,1.4,2.6c0.2,1.2,0.5,3.1,0.8,5.9
				s0.5,4.9,0.6,6.4c0,1.4,0.1,3,0.3,4.8s0.3,2.8,0.4,2.9c0,0,0.1,0.1,0.1,0.2c0,0.3-0.1,0.6-0.4,1c-0.2,0.4-0.5,0.6-0.7,0.7
				c-0.1,0-0.2,0.1-0.4,0.1c-0.5,0-1-0.1-1.5-0.3c-0.5-0.2-0.9-0.4-1-0.7c-0.1-0.2-0.3-1.1-0.4-2.5c-0.2-1.4-0.2-2.6-0.2-3.5
				c0-0.8-0.1-1.3-0.3-1.4s-0.8-0.1-2.1-0.1c-1,0-1.6,0-1.6,0.1c0,0.2-0.1,0.3-0.1,0.5c0,0.6,0.1,1.5,0.1,2.5
				c0.1,1.2,0.1,2.2,0.1,2.9v0.4c0,0.2-0.2,0.4-0.7,0.6c-0.4,0.2-0.8,0.2-1.2,0.2c-0.2,0-0.3,0-0.4,0c-1-0.3-1.6-0.7-1.7-1.3
				c0,0,0-0.1,0-0.2s0-0.2,0-0.3c0-1.3,0.2-4,0.5-8.2s0.5-6.6,0.7-7.3c0.2-0.8,0.5-1.8,1.1-2.9C42.5,134.6,43,133.9,43.4,133.5z
				 M46.5,138.2c-0.2-0.9-0.4-1.3-0.6-1.3c-0.2,0-0.5,0.3-0.7,1c-0.6,1.2-0.9,2.9-1.1,5c-0.1,0.9-0.1,1.4-0.1,1.5
				c0,0.4,0.1,0.7,0.2,0.8c0.2,0.1,0.6,0.2,1.2,0.2c0.9,0,1.4-0.1,1.5-0.3c0.1-0.1,0.1-0.5,0.1-1.2C47,141.8,46.8,139.9,46.5,138.2z
				"/>
			<path class="st2" d="M60.4,132.7c0.4-0.2,0.8-0.3,1.3-0.3c0.3,0,0.6,0,0.8,0c0.9,0.1,1.5,0.2,1.8,0.4c0.3,0.2,0.6,0.5,0.9,0.9
				c0.3,0.5,0.5,1,0.5,1.5c0,0.6-0.2,1-0.6,1.4s-0.7,0.5-1.1,0.5c-0.4,0-0.8-0.3-1.1-0.8c-0.3-0.4-0.6-0.6-0.9-0.6
				c-0.3,0-0.5,0.2-0.8,0.6s-0.4,0.8-0.5,1.3v0.2c0,1.7,1.3,4.8,3.8,9.3c0.4,0.7,0.8,2.1,1.2,4c0,0.1,0,0.3,0,0.6c0,1.7-0.3,3-1,3.9
				c-0.3,0.4-0.8,0.8-1.5,1c-0.7,0.3-1.3,0.5-1.8,0.5c-0.1,0-0.1,0-0.2,0c-0.1,0-0.1,0-0.2,0c-0.7-0.1-1.5-0.7-2.5-1.6
				s-1.5-1.7-1.5-2.2c0-0.2,0.2-0.5,0.5-0.9c0.3-0.3,0.7-0.5,1-0.6c0.1,0,0.2-0.1,0.3-0.1c0.3,0,0.9,0.5,1.6,1.5
				c0.3,0.4,0.6,0.6,0.9,0.6c0.3,0,0.5-0.2,0.7-0.6c0.1-0.1,0.1-0.3,0.1-0.7c0-1.8-0.8-4.3-2.4-7.7c-1.5-3.2-2.2-5.5-2.2-7
				c0-0.7,0.1-1.3,0.4-1.9c0.5-1.2,0.9-2,1.1-2.4C59.2,133.4,59.7,133,60.4,132.7z"/>
			<path class="st2" d="M70.7,133.4c0.4-0.4,0.8-0.6,1.4-0.6c0.5,0,1,0.2,1.4,0.6l0.6,0.6l0.3,10.3c0.2,5.7,0.2,9,0.2,9.8
				c0,0.5,0,0.8,0,1.1c0,0.3,0,0.5-0.1,0.7c0,0.2-0.1,0.3-0.1,0.4c-0.1,0.1-0.1,0.2-0.1,0.2s-0.1,0.1-0.2,0.1s-0.2,0.1-0.2,0.1
				c-0.3,0.2-0.6,0.3-0.8,0.3c-0.1,0-0.4-0.1-0.9-0.2c-0.7-0.3-1.1-0.6-1.2-0.8c-0.1-0.2-0.2-3.8-0.3-11c-0.1-7.2-0.1-10.8-0.2-10.9
				C70.2,134,70.4,133.7,70.7,133.4z"/>
			<path class="st2" d="M81.2,133.3c0.4-0.1,0.8-0.1,1.5-0.1c1.7,0,2.7,0.2,3.2,0.5c0.3,0.3,0.5,0.6,0.5,1s-0.2,0.7-0.5,1
				s-0.7,0.4-1.2,0.4s-0.8,0.1-0.9,0.3c-0.2,0.2-0.2,0.8-0.2,1.6c0,0.2,0,1,0.1,2.3c0.1,1.5,0.1,2.5,0.2,2.9s0.2,0.7,0.3,0.7
				c0,0,0.2,0,0.6,0s0.7,0,0.9,0c0.7,0,1.3,0.2,1.6,0.5c0.2,0.2,0.3,0.4,0.3,0.6c0,0.5-0.7,0.9-2,1.4c-0.8,0.3-1.2,0.5-1.4,0.6
				c-0.2,0.1-0.3,0.5-0.3,1c-0.1,0.5-0.1,0.9-0.1,1.3c0,1.5,0.1,2.7,0.4,3.4c0.1,0.3,0.3,0.5,0.4,0.6c0.2,0.1,0.5,0.1,1,0.1
				c0.6,0,1.2,0.1,1.7,0.4s0.7,0.6,0.7,1c0,0.3-0.2,0.6-0.7,1.1c-0.7,0.7-2,1-3.7,1c-1.8,0-2.9-0.4-3.5-1.1c-0.3-0.4-0.5-3-0.5-7.8
				c-0.1-6-0.1-9.5-0.2-10.6l-0.1-3.4l0.6-0.4C80.3,133.6,80.8,133.4,81.2,133.3z"/>
			<path class="st2" d="M94.1,132.4c0.6-0.2,1.2-0.3,2.1-0.3s1.6,0.1,2,0.3c0.8,0.3,1.4,1,1.8,1.8c0.2,0.4,0.4,1.2,0.5,2.3
				s0.2,2.2,0.2,3.1c0,0.4,0,0.7-0.1,0.9c-0.1,0.8-0.3,1.6-0.6,2.6c-0.3,1-0.6,1.4-0.7,1.4c-0.2,0-0.4,0.2-0.4,0.6
				c0,0.3,0.1,0.6,0.3,1c0.5,0.7,1.2,2,2.1,3.9s1.4,3.1,1.5,3.6c0,0.1,0,0.4,0,0.6c0,0.4-0.1,0.8-0.3,1.1c-0.2,0.4-0.5,0.5-0.9,0.5
				c-0.3,0-0.6,0-0.8,0c-0.8-0.1-1.2-0.2-1.4-0.3c-0.2-0.1-0.3-0.4-0.3-0.7c0-0.6-0.3-1.5-0.9-2.8c-0.6-1.2-1.1-1.9-1.4-1.9l0,0
				c-0.1,0.1-0.1,0.4-0.1,1c0,0.9,0.1,1.9,0.3,3c0.1,0.5,0.1,0.8,0.1,1c0,1-0.2,1.7-0.7,1.9c-0.2,0.1-0.4,0.1-0.8,0.1
				c-1,0-1.6-0.2-1.8-0.7c-0.2-0.2-0.3-2.3-0.4-6.2c0-1.2-0.1-2.6-0.1-4s-0.1-2.5-0.1-3.1c0-0.7,0-1.5-0.1-2.6s-0.2-2.2-0.3-3.5
				c-0.1-1.5-0.2-2.3-0.2-2.6c0-0.7,0.1-1.2,0.3-1.5C93.2,132.7,93.6,132.5,94.1,132.4z M97,135.8c-0.1-0.2-0.3-0.4-0.5-0.4
				s-0.3,0.1-0.5,0.3c-0.1,0.2-0.1,0.4,0,0.5c0,0,0.1,1,0.2,3c0.1,1.9,0.2,2.9,0.3,3s0.2-0.1,0.5-0.4c0.2-0.3,0.3-0.8,0.3-1.6
				c0-0.6,0-1.1-0.1-1.5C97.2,137.1,97.1,136.1,97,135.8z"/>
			<path class="st2" d="M108.2,154.1c0.3-0.3,0.7-0.5,1-0.5c0.1,0,0.3,0,0.7,0.1c1.2,0.2,1.8,0.7,1.8,1.4c0,0.6-0.4,1.1-1.1,1.5
				c-0.6,0.4-1.1,0.6-1.5,0.6c-0.6,0-1.1-0.5-1.2-1.5c0-0.2,0-0.4,0-0.6C107.7,154.7,107.9,154.4,108.2,154.1z"/>
		</g>
	</g>
</g>
</svg>
