<?xml version="1.0" encoding="utf-8"?>
<!-- Generator: Adobe Illustrator 25.1.0, SVG Export Plug-In . SVG Version: 6.00 Build 0)  -->
<svg version="1.1" id="Layer_1" xmlns="http://www.w3.org/2000/svg" xmlns:xlink="http://www.w3.org/1999/xlink" x="0px" y="0px"
	 viewBox="0 0 331.6 235.5" style="enable-background:new 0 0 331.6 235.5;" xml:space="preserve">
<style type="text/css">
	.st0{fill:#FFFFFF;}
	.st1{fill:#808080;}
	.st2{fill:#D64204;}
	.st3{fill-rule:evenodd;clip-rule:evenodd;fill:#FF9F1A;}
	.st4{fill-rule:evenodd;clip-rule:evenodd;fill:#D64204;}
	.st5{fill:none;stroke:#BFBFBF;stroke-width:0.9513;stroke-miterlimit:10;}
	.st6{fill:none;stroke:#BFBFBF;stroke-width:0.9513;stroke-miterlimit:10;stroke-dasharray:1.91,1.91;}
	.st7{fill:#FF9F1A;}
</style>
<g>
	<g>
		<path class="st0" d="M330.8,168.2c0-156,11-166.1-48-166.1c-28.3,0-162.2-2.6-196.9-2C51.8,0.7,4.9,5.6,4.2,26.5
			C3.4,51,0.5,96.9,0.5,139.4c0,66.8-6.6,82.8,28.4,91.3c35.6,8.6,166.3,3.2,209.3,2.2C282.5,231.7,330.8,236.3,330.8,168.2z"/>
		<path class="st1" d="M19.4,169.6v-11.5h1.3v11.5H19.4z"/>
		<path class="st1" d="M23.8,159.9c-0.3,0-0.5-0.1-0.7-0.3c-0.2-0.2-0.3-0.4-0.3-0.7c0-0.3,0.1-0.5,0.3-0.6c0.2-0.2,0.4-0.3,0.7-0.3
			c0.3,0,0.5,0.1,0.7,0.3c0.2,0.2,0.3,0.4,0.3,0.6c0,0.3-0.1,0.5-0.3,0.7C24.3,159.8,24,159.9,23.8,159.9z M23.1,169.6v-7.9h1.3v7.9
			H23.1z"/>
		<path class="st1" d="M26.8,169.6v-11.5h1.3v6.9l3.2-3.3h1.6l-3.5,3.6l4,4.4h-1.7l-3.6-4.1v4.1h-1.3V169.6z"/>
		<path class="st1" d="M37.8,169.8c-0.8,0-1.4-0.2-2-0.5s-1-0.8-1.4-1.4c-0.3-0.6-0.5-1.4-0.5-2.2c0-0.8,0.2-1.6,0.5-2.2
			s0.8-1.1,1.4-1.5s1.3-0.5,2.1-0.5s1.4,0.2,2,0.5c0.6,0.4,1,0.8,1.3,1.4s0.4,1.2,0.4,1.8c0,0.1,0,0.2,0,0.4c0,0.1,0,0.2,0,0.4h-6.3
			c0,0.6,0.2,1.1,0.4,1.5s0.6,0.7,0.9,0.9s0.8,0.3,1.2,0.3c0.5,0,1-0.1,1.4-0.4s0.7-0.6,0.8-1h1.3c-0.2,0.7-0.6,1.4-1.2,1.8
			C39.6,169.5,38.8,169.8,37.8,169.8z M37.8,162.6c-0.6,0-1.2,0.2-1.7,0.6s-0.8,1-0.9,1.7h5c0-0.7-0.3-1.3-0.7-1.7
			C39.1,162.8,38.5,162.6,37.8,162.6z"/>
		<path class="st1" d="M50.8,167.1c-0.5,0-0.9-0.1-1.2-0.2l-0.8,0.8c0.1,0.1,0.3,0.2,0.4,0.2s0.4,0.1,0.8,0.2
			c0.3,0.1,0.8,0.1,1.4,0.1c1.1,0.1,1.8,0.3,2.3,0.7c0.5,0.4,0.7,1,0.7,1.6c0,0.5-0.1,0.9-0.4,1.3c-0.2,0.4-0.6,0.8-1.2,1
			c-0.5,0.3-1.2,0.4-2,0.4c-0.7,0-1.3-0.1-1.9-0.3c-0.5-0.2-1-0.5-1.3-0.9s-0.5-0.9-0.5-1.4c0-0.3,0.1-0.6,0.2-1
			c0.2-0.4,0.5-0.7,0.9-1c-0.2-0.1-0.4-0.2-0.6-0.3c-0.2-0.1-0.3-0.2-0.5-0.4v-0.4l1.4-1.3c-0.6-0.5-0.9-1.2-0.9-2.1
			c0-0.5,0.1-1,0.4-1.4c0.2-0.4,0.6-0.8,1.1-1s1-0.4,1.7-0.4c0.5,0,0.9,0.1,1.2,0.2h2.9v1l-1.5,0.1c0.3,0.4,0.5,1,0.5,1.5
			s-0.1,1-0.4,1.4c-0.2,0.4-0.6,0.8-1.1,1C52,167,51.4,167.1,50.8,167.1z M48.4,170.6c0,0.5,0.2,0.9,0.7,1.2s1,0.4,1.7,0.4
			s1.2-0.1,1.6-0.4c0.4-0.3,0.6-0.7,0.6-1.1c0-0.3-0.1-0.6-0.4-0.9c-0.3-0.2-0.8-0.4-1.5-0.4c-0.6,0-1.1-0.1-1.5-0.2
			c-0.4,0.2-0.7,0.5-0.9,0.8C48.5,170.2,48.4,170.4,48.4,170.6z M50.8,166c0.6,0,1-0.1,1.3-0.4s0.5-0.7,0.5-1.3c0-0.5-0.2-1-0.5-1.3
			s-0.8-0.4-1.3-0.4c-0.6,0-1,0.1-1.4,0.4c-0.3,0.3-0.5,0.7-0.5,1.3c0,0.5,0.2,1,0.5,1.3C49.7,165.8,50.2,166,50.8,166z"/>
		<path class="st1" d="M59.7,169.8c-0.8,0-1.4-0.2-2-0.5c-0.6-0.4-1-0.8-1.4-1.4c-0.3-0.6-0.5-1.4-0.5-2.2c0-0.8,0.2-1.6,0.5-2.2
			s0.8-1.1,1.4-1.5c0.6-0.4,1.3-0.5,2.1-0.5s1.4,0.2,2,0.5s1,0.8,1.3,1.4s0.4,1.2,0.4,1.8c0,0.1,0,0.2,0,0.4c0,0.1,0,0.2,0,0.4h-6.3
			c0,0.6,0.2,1.1,0.4,1.5s0.6,0.7,0.9,0.9c0.4,0.2,0.8,0.3,1.2,0.3c0.5,0,1-0.1,1.4-0.4s0.7-0.6,0.8-1h1.3c-0.2,0.7-0.6,1.4-1.2,1.8
			C61.4,169.5,60.6,169.8,59.7,169.8z M59.7,162.6c-0.6,0-1.2,0.2-1.7,0.6s-0.8,1-0.9,1.7h5c0-0.7-0.3-1.3-0.7-1.7
			C60.9,162.8,60.4,162.6,59.7,162.6z"/>
		<path class="st1" d="M68.1,169.6c-0.7,0-1.3-0.2-1.7-0.5c-0.4-0.4-0.6-1-0.6-1.9v-4.4h-1.4v-1.1h1.4l0.2-1.9h1.2v1.9h2.3v1.1h-2.3
			v4.4c0,0.5,0.1,0.8,0.3,1c0.2,0.2,0.6,0.3,1.1,0.3h0.8v1.2h-1.3V169.6z"/>
		<path class="st1" d="M79,169.8c-0.8,0-1.4-0.2-2-0.5s-1.1-0.8-1.4-1.5c-0.3-0.6-0.5-1.4-0.5-2.2s0.2-1.6,0.5-2.2s0.8-1.1,1.4-1.5
			c0.6-0.3,1.3-0.5,2-0.5s1.4,0.2,2,0.5s1.1,0.8,1.4,1.5s0.5,1.4,0.5,2.2s-0.2,1.6-0.5,2.2s-0.8,1.1-1.4,1.5
			C80.4,169.6,79.8,169.8,79,169.8z M79,168.6c0.5,0,0.9-0.1,1.3-0.3c0.4-0.2,0.7-0.6,1-1c0.2-0.5,0.4-1,0.4-1.7s-0.1-1.2-0.4-1.7
			c-0.2-0.5-0.6-0.8-0.9-1s-0.8-0.3-1.3-0.3s-0.9,0.1-1.3,0.3c-0.4,0.2-0.7,0.6-1,1c-0.2,0.4-0.4,1-0.4,1.7s0.1,1.2,0.4,1.7
			c0.2,0.4,0.6,0.8,0.9,1C78.1,168.5,78.6,168.6,79,168.6z"/>
		<path class="st1" d="M85.3,169.6v-6.8h-1.2v-1.1h1.2v-1.4c0-0.8,0.2-1.3,0.6-1.7c0.4-0.4,0.9-0.5,1.7-0.5h0.8v1.1h-0.6
			c-0.4,0-0.7,0.1-0.9,0.2c-0.2,0.2-0.3,0.4-0.3,0.8v1.3h2v1.1h-2v6.8L85.3,169.6L85.3,169.6z"/>
		<path class="st1" d="M90.6,169.6v-6.8h-1.2v-1.1h1.2v-1.4c0-0.8,0.2-1.3,0.6-1.7c0.4-0.4,0.9-0.5,1.7-0.5h0.8v1.1h-0.6
			c-0.4,0-0.7,0.1-0.9,0.2c-0.2,0.2-0.3,0.4-0.3,0.8v1.3h2v1.1h-2v6.8L90.6,169.6L90.6,169.6z"/>
		<path class="st1" d="M102.9,169.6c-0.7,0-1.3-0.2-1.7-0.5c-0.4-0.4-0.6-1-0.6-1.9v-4.4h-1.4v-1.1h1.4l0.2-1.9h1.2v1.9h2.3v1.1H102
			v4.4c0,0.5,0.1,0.8,0.3,1c0.2,0.2,0.6,0.3,1.1,0.3h0.8v1.2h-1.3V169.6z"/>
		<path class="st1" d="M106,169.6v-11.5h1.3v4.9c0.3-0.5,0.6-0.9,1.1-1.1c0.5-0.3,1-0.4,1.6-0.4c0.9,0,1.7,0.3,2.2,0.9
			c0.6,0.6,0.8,1.5,0.8,2.6v4.6h-1.3v-4.5c0-1.7-0.7-2.5-2-2.5c-0.7,0-1.3,0.2-1.7,0.7c-0.5,0.5-0.7,1.2-0.7,2.1v4.1L106,169.6
			L106,169.6z"/>
		<path class="st1" d="M118.7,169.8c-0.8,0-1.4-0.2-2-0.5c-0.6-0.4-1.1-0.8-1.4-1.4s-0.5-1.4-0.5-2.2c0-0.8,0.2-1.6,0.5-2.2
			s0.8-1.1,1.4-1.5s1.3-0.5,2.1-0.5c0.8,0,1.4,0.2,2,0.5c0.6,0.4,1,0.8,1.3,1.4s0.4,1.2,0.4,1.8c0,0.1,0,0.2,0,0.4
			c0,0.1,0,0.2,0,0.4h-6.3c0,0.6,0.2,1.1,0.4,1.5s0.6,0.7,0.9,0.9c0.4,0.2,0.8,0.3,1.2,0.3c0.6,0,1-0.1,1.4-0.4
			c0.4-0.2,0.7-0.6,0.8-1h1.3c-0.2,0.7-0.6,1.4-1.2,1.8C120.4,169.5,119.6,169.8,118.7,169.8z M118.7,162.6c-0.6,0-1.2,0.2-1.7,0.6
			s-0.8,1-0.9,1.7h5c0-0.7-0.3-1.3-0.7-1.7C119.9,162.8,119.4,162.6,118.7,162.6z"/>
		<path class="st1" d="M132.7,169.8c-0.6,0-1.2-0.1-1.7-0.4s-0.9-0.6-1.2-1.1l-0.1,1.3h-1.2v-11.5h1.3v4.9c0.3-0.4,0.6-0.7,1.1-1
			s1.1-0.5,1.8-0.5c0.8,0,1.5,0.2,2.1,0.5c0.6,0.4,1,0.9,1.4,1.5c0.3,0.6,0.5,1.3,0.5,2.1s-0.2,1.5-0.5,2.1s-0.8,1.1-1.4,1.5
			C134.2,169.6,133.5,169.8,132.7,169.8z M132.6,168.6c0.5,0,1-0.1,1.4-0.4c0.4-0.2,0.7-0.6,1-1c0.2-0.5,0.4-1,0.4-1.6
			s-0.1-1.1-0.4-1.6c-0.2-0.4-0.6-0.8-1-1s-0.9-0.4-1.4-0.4s-1,0.1-1.4,0.4s-0.7,0.6-1,1c-0.2,0.5-0.4,1-0.4,1.6s0.1,1.1,0.4,1.6
			c0.2,0.4,0.5,0.8,1,1C131.5,168.5,132,168.6,132.6,168.6z"/>
		<path class="st1" d="M141.4,169.8c-0.9,0-1.7-0.3-2.2-0.9c-0.6-0.6-0.8-1.5-0.8-2.6v-4.6h1.3v4.5c0,1.6,0.7,2.5,2,2.5
			c0.7,0,1.3-0.2,1.7-0.7s0.7-1.2,0.7-2.1v-4.1h1.3v7.9h-1.2l-0.1-1.4c-0.2,0.5-0.6,0.9-1.1,1.2C142.6,169.6,142,169.8,141.4,169.8z
			"/>
		<path class="st1" d="M150.7,169.8c-0.9,0-1.7-0.2-2.4-0.7c-0.6-0.5-1-1.1-1.1-2h1.4c0.1,0.4,0.3,0.8,0.7,1.1
			c0.4,0.3,0.8,0.5,1.4,0.5c0.6,0,1-0.1,1.2-0.4c0.3-0.2,0.4-0.5,0.4-0.9c0-0.5-0.2-0.8-0.5-1s-0.8-0.3-1.5-0.4
			c-0.4-0.1-0.9-0.2-1.3-0.4c-0.4-0.2-0.8-0.4-1.1-0.7c-0.3-0.3-0.4-0.7-0.4-1.2c0-0.7,0.3-1.3,0.8-1.7s1.2-0.7,2.1-0.7
			c0.8,0,1.5,0.2,2.1,0.6c0.5,0.4,0.9,1,0.9,1.8h-1.3c-0.1-0.4-0.2-0.7-0.5-1c-0.3-0.2-0.7-0.3-1.2-0.3s-0.9,0.1-1.1,0.3
			c-0.3,0.2-0.4,0.5-0.4,0.8s0.2,0.6,0.5,0.8c0.3,0.2,0.8,0.3,1.4,0.5c0.5,0.1,1,0.2,1.4,0.4c0.4,0.1,0.8,0.4,1.1,0.7
			c0.3,0.3,0.4,0.7,0.4,1.3c0,0.7-0.3,1.3-0.8,1.8C152.4,169.6,151.6,169.8,150.7,169.8z"/>
		<path class="st1" d="M162.5,169.8c-0.7,0-1.2-0.1-1.6-0.3c-0.4-0.2-0.8-0.5-1-0.9s-0.3-0.8-0.3-1.2c0-0.8,0.3-1.4,0.9-1.9
			c0.6-0.4,1.5-0.7,2.5-0.7h2.1v-0.1c0-0.7-0.2-1.2-0.5-1.6c-0.4-0.4-0.8-0.5-1.5-0.5c-0.5,0-1,0.1-1.4,0.4s-0.6,0.6-0.7,1.1h-1.3
			c0.1-0.6,0.2-1.1,0.6-1.5c0.3-0.4,0.8-0.7,1.3-0.9c0.5-0.2,1-0.3,1.6-0.3c1.1,0,1.9,0.3,2.5,0.9s0.8,1.4,0.8,2.4v4.9h-1.2
			l-0.1-1.4c-0.2,0.5-0.6,0.8-1,1.1C163.8,169.6,163.3,169.8,162.5,169.8z M162.7,168.6c0.5,0,0.9-0.1,1.3-0.4
			c0.4-0.3,0.7-0.6,0.8-1c0.2-0.4,0.3-0.9,0.3-1.3l0,0h-2c-0.8,0-1.4,0.1-1.7,0.4s-0.5,0.6-0.5,1s0.2,0.8,0.5,1
			C161.8,168.5,162.2,168.6,162.7,168.6z"/>
		<path class="st1" d="M175.8,169.8c-1,0-1.7-0.2-2.4-0.7c-0.6-0.5-1-1.1-1.1-2h1.4c0.1,0.4,0.3,0.8,0.7,1.1
			c0.4,0.3,0.8,0.5,1.4,0.5c0.6,0,1-0.1,1.2-0.4c0.3-0.2,0.4-0.5,0.4-0.9c0-0.5-0.2-0.8-0.5-1c-0.4-0.2-0.8-0.3-1.5-0.4
			c-0.4-0.1-0.9-0.2-1.3-0.4c-0.4-0.2-0.8-0.4-1.1-0.7c-0.3-0.3-0.4-0.7-0.4-1.2c0-0.7,0.3-1.3,0.8-1.7c0.5-0.4,1.2-0.7,2.1-0.7
			c0.8,0,1.5,0.2,2.1,0.6c0.5,0.4,0.8,1,0.9,1.8h-1.3c-0.1-0.4-0.2-0.7-0.5-1c-0.3-0.2-0.7-0.3-1.2-0.3s-0.8,0.1-1.1,0.3
			c-0.3,0.2-0.4,0.5-0.4,0.8s0.2,0.6,0.5,0.8c0.3,0.2,0.8,0.3,1.4,0.5c0.5,0.1,1,0.2,1.4,0.4c0.4,0.1,0.8,0.4,1.1,0.7
			c0.3,0.3,0.4,0.7,0.4,1.3c0,0.7-0.3,1.3-0.8,1.8C177.5,169.6,176.8,169.8,175.8,169.8z"/>
		<path class="st1" d="M183.6,169.6c-0.7,0-1.3-0.2-1.7-0.5c-0.4-0.4-0.6-1-0.6-1.9v-4.4h-1.4v-1.1h1.4l0.2-1.9h1.2v1.9h2.3v1.1
			h-2.3v4.4c0,0.5,0.1,0.8,0.3,1s0.6,0.3,1.1,0.3h0.8v1.2h-1.3V169.6z"/>
		<path class="st1" d="M190,169.8c-0.8,0-1.4-0.2-2-0.5s-1.1-0.8-1.4-1.5c-0.4-0.6-0.5-1.4-0.5-2.2s0.2-1.6,0.5-2.2
			c0.4-0.6,0.8-1.1,1.4-1.5c0.6-0.3,1.3-0.5,2-0.5s1.4,0.2,2,0.5s1.1,0.8,1.4,1.5c0.4,0.6,0.5,1.4,0.5,2.2s-0.2,1.6-0.5,2.2
			s-0.8,1.1-1.4,1.5C191.4,169.6,190.8,169.8,190,169.8z M190,168.6c0.5,0,0.9-0.1,1.3-0.3c0.4-0.2,0.7-0.6,1-1
			c0.2-0.5,0.4-1,0.4-1.7s-0.1-1.2-0.4-1.7c-0.2-0.5-0.6-0.8-0.9-1s-0.8-0.3-1.3-0.3s-0.9,0.1-1.3,0.3c-0.4,0.2-0.7,0.6-1,1
			c-0.2,0.4-0.4,1-0.4,1.7s0.1,1.2,0.4,1.7c0.2,0.4,0.6,0.8,0.9,1C189.2,168.5,189.6,168.6,190,168.6z"/>
		<path class="st1" d="M195.9,173.1v-11.5h1.2l0.1,1.3c0.3-0.4,0.6-0.7,1.1-1s1.1-0.5,1.8-0.5c0.8,0,1.5,0.2,2.1,0.5
			c0.6,0.4,1,0.9,1.4,1.5s0.5,1.3,0.5,2.1c0,0.8-0.2,1.5-0.5,2.1s-0.8,1.1-1.4,1.5c-0.6,0.4-1.3,0.5-2.1,0.5c-0.6,0-1.2-0.1-1.7-0.4
			s-0.9-0.6-1.2-1.1v4.9h-1.3V173.1z M200,168.6c0.5,0,1-0.1,1.4-0.4s0.7-0.6,1-1c0.2-0.5,0.4-1,0.4-1.6s-0.1-1.1-0.4-1.6
			c-0.2-0.4-0.6-0.8-1-1s-0.9-0.4-1.4-0.4s-1,0.1-1.4,0.4c-0.4,0.2-0.7,0.6-1,1c-0.2,0.5-0.4,1-0.4,1.6s0.1,1.1,0.4,1.6
			c0.2,0.4,0.6,0.8,1,1C199,168.5,199.4,168.6,200,168.6z"/>
		<path class="st1" d="M213.7,169.8c-0.8,0-1.4-0.2-2-0.5c-0.6-0.4-1.1-0.8-1.4-1.4c-0.3-0.6-0.5-1.4-0.5-2.2c0-0.8,0.2-1.6,0.5-2.2
			s0.8-1.1,1.4-1.5c0.6-0.4,1.3-0.5,2.1-0.5s1.4,0.2,2,0.5c0.6,0.4,1,0.8,1.3,1.4s0.4,1.2,0.4,1.8c0,0.1,0,0.2,0,0.4
			c0,0.1,0,0.2,0,0.4h-6.3c0,0.6,0.2,1.1,0.4,1.5s0.6,0.7,0.9,0.9c0.4,0.2,0.8,0.3,1.2,0.3c0.6,0,1-0.1,1.4-0.4s0.7-0.6,0.8-1h1.3
			c-0.2,0.7-0.6,1.4-1.2,1.8C215.4,169.5,214.7,169.8,213.7,169.8z M213.7,162.6c-0.6,0-1.2,0.2-1.7,0.6s-0.8,1-0.9,1.7h5
			c0-0.7-0.3-1.3-0.7-1.7C215,162.8,214.4,162.6,213.7,162.6z"/>
		<path class="st1" d="M221.9,169.8c-0.7,0-1.2-0.1-1.7-0.3c-0.4-0.2-0.8-0.5-1-0.9s-0.3-0.8-0.3-1.2c0-0.8,0.3-1.4,0.9-1.9
			s1.5-0.7,2.5-0.7h2.1v-0.1c0-0.7-0.2-1.2-0.5-1.6c-0.4-0.4-0.9-0.5-1.5-0.5c-0.5,0-1,0.1-1.4,0.4s-0.6,0.6-0.7,1.1h-1.4
			c0.1-0.6,0.2-1.1,0.6-1.5c0.3-0.4,0.8-0.7,1.3-0.9c0.5-0.2,1-0.3,1.6-0.3c1.1,0,1.9,0.3,2.5,0.9s0.8,1.4,0.8,2.4v4.9h-1l-0.1-1.4
			c-0.2,0.5-0.6,0.8-1,1.1S222.6,169.8,221.9,169.8z M222.1,168.6c0.5,0,0.9-0.1,1.3-0.4c0.4-0.3,0.6-0.6,0.8-1s0.3-0.9,0.3-1.3l0,0
			h-2c-0.8,0-1.3,0.1-1.7,0.4c-0.3,0.3-0.5,0.6-0.5,1s0.2,0.8,0.5,1C221.1,168.5,221.6,168.6,222.1,168.6z"/>
		<path class="st1" d="M227.9,169.6v-7.9h1.2l0.1,1.5c0.2-0.5,0.6-0.9,1.1-1.2s1.1-0.5,1.9-0.5v1.4h-0.4c-0.5,0-0.9,0.1-1.3,0.2
			c-0.4,0.2-0.7,0.4-0.9,0.8s-0.3,0.9-0.3,1.6v4h-1.4V169.6z"/>
		<path class="st1" d="M233.7,169.6v-11.5h1.3v11.5H233.7z"/>
		<path class="st1" d="M238.1,173.1l2-4.3h-0.4l-3.1-7.2h1.5l2.6,6.2l2.8-6.2h1.4l-5.2,11.5H238.1z"/>
		<path class="st1" d="M244.1,171.5l0.9-3.5h1.4l-1.4,3.5H244.1z"/>
		<path class="st1" d="M252.3,173.1v-11.5h1.2l0.1,1.3c0.3-0.4,0.6-0.7,1.1-1s1.1-0.5,1.8-0.5c0.8,0,1.5,0.2,2.1,0.5
			c0.6,0.4,1,0.9,1.4,1.5c0.3,0.6,0.5,1.3,0.5,2.1c0,0.8-0.2,1.5-0.5,2.1s-0.8,1.1-1.4,1.5s-1.3,0.5-2.1,0.5c-0.6,0-1.2-0.1-1.7-0.4
			s-0.9-0.6-1.2-1.1v4.9h-1.3V173.1z M256.4,168.6c0.5,0,1-0.1,1.4-0.4s0.7-0.6,1-1c0.2-0.5,0.4-1,0.4-1.6s-0.1-1.1-0.4-1.6
			c-0.2-0.4-0.6-0.8-1-1s-0.9-0.4-1.4-0.4c-0.5,0-1,0.1-1.4,0.4s-0.7,0.6-1,1c-0.2,0.5-0.4,1-0.4,1.6s0.1,1.1,0.4,1.6
			c0.2,0.4,0.5,0.8,1,1C255.4,168.5,255.9,168.6,256.4,168.6z"/>
		<path class="st1" d="M265,169.8c-0.7,0-1.2-0.1-1.6-0.3c-0.4-0.2-0.8-0.5-1-0.9s-0.3-0.8-0.3-1.2c0-0.8,0.3-1.4,0.9-1.9
			c0.6-0.4,1.5-0.7,2.5-0.7h2.1v-0.1c0-0.7-0.2-1.2-0.5-1.6c-0.4-0.4-0.9-0.5-1.5-0.5c-0.5,0-1,0.1-1.4,0.4s-0.6,0.6-0.7,1.1h-1.4
			c0-0.6,0.2-1.1,0.6-1.5c0.3-0.4,0.8-0.7,1.3-0.9c0.5-0.2,1-0.3,1.6-0.3c1.1,0,1.9,0.3,2.5,0.9s0.8,1.4,0.8,2.4v4.9h-1.2l-0.1-1.4
			c-0.2,0.5-0.5,0.8-1,1.1C266.3,169.6,265.7,169.8,265,169.8z M265.2,168.6c0.5,0,1-0.1,1.3-0.4c0.4-0.3,0.6-0.6,0.8-1
			s0.3-0.9,0.3-1.3l0,0h-2c-0.8,0-1.4,0.1-1.7,0.4c-0.3,0.3-0.5,0.6-0.5,1s0.1,0.8,0.5,1C264.2,168.5,264.6,168.6,265.2,168.6z"/>
		<path class="st1" d="M271,169.6v-7.9h1.2l0.1,1.5c0.2-0.5,0.6-0.9,1.1-1.2s1.1-0.5,1.9-0.5v1.4h-0.4c-0.5,0-0.9,0.1-1.3,0.2
			c-0.4,0.2-0.7,0.4-0.9,0.8c-0.2,0.4-0.4,0.9-0.4,1.6v4H271V169.6z"/>
		<path class="st1" d="M276.8,169.6v-11.5h1.3v6.9l3.2-3.3h1.6l-3.5,3.6l4,4.4h-1.7l-3.6-4.1v4.1h-1.3V169.6z"/>
		<path class="st1" d="M20.3,195.1l2-4.3h-0.5l-3.1-7.2h1.5l2.6,6.2l2.8-6.2H27l-5.3,11.5H20.3z"/>
		<path class="st1" d="M31.2,191.8c-0.8,0-1.4-0.2-2-0.5c-0.6-0.3-1.1-0.8-1.4-1.5c-0.3-0.6-0.5-1.4-0.5-2.2s0.2-1.6,0.5-2.2
			s0.8-1.1,1.4-1.5c0.6-0.3,1.3-0.5,2-0.5c0.8,0,1.4,0.2,2,0.5s1.1,0.8,1.4,1.5c0.3,0.6,0.5,1.4,0.5,2.2s-0.2,1.6-0.5,2.2
			c-0.4,0.6-0.8,1.1-1.4,1.5C32.6,191.6,31.9,191.8,31.2,191.8z M31.2,190.6c0.5,0,0.9-0.1,1.3-0.3c0.4-0.2,0.7-0.6,1-1
			c0.2-0.5,0.4-1,0.4-1.7s-0.1-1.2-0.4-1.7c-0.2-0.4-0.6-0.8-1-1s-0.8-0.3-1.3-0.3s-0.9,0.1-1.3,0.3c-0.4,0.2-0.7,0.6-1,1
			c-0.2,0.4-0.4,1-0.4,1.7s0.1,1.2,0.4,1.7c0.2,0.4,0.6,0.8,1,1C30.3,190.5,30.7,190.6,31.2,190.6z"/>
		<path class="st1" d="M39.9,191.8c-0.9,0-1.7-0.3-2.2-0.9s-0.8-1.5-0.8-2.6v-4.6h1.3v4.5c0,1.6,0.7,2.5,2,2.5
			c0.7,0,1.3-0.2,1.7-0.7c0.5-0.5,0.7-1.2,0.7-2.1v-4.1h1.3v7.9h-1.2l-0.1-1.4c-0.2,0.5-0.6,0.9-1.1,1.2
			C41.1,191.6,40.5,191.8,39.9,191.8z"/>
		<path class="st1" d="M46.2,191.6v-7.9h1.2l0.1,1.5c0.2-0.5,0.6-0.9,1.1-1.2s1.1-0.5,1.9-0.5v1.4h-0.4c-0.5,0-0.9,0.1-1.3,0.2
			c-0.4,0.2-0.7,0.4-0.9,0.8s-0.3,0.9-0.3,1.6v4h-1.4V191.6z"/>
		<path class="st1" d="M59.9,191.8c-0.8,0-1.4-0.2-2-0.5s-1.1-0.8-1.4-1.5c-0.3-0.6-0.5-1.4-0.5-2.2c0-0.8,0.2-1.6,0.5-2.2
			s0.8-1.1,1.4-1.5s1.3-0.5,2-0.5c0.9,0,1.7,0.2,2.4,0.7c0.6,0.5,1,1.1,1.2,2h-1.4c-0.1-0.5-0.4-0.9-0.8-1.1
			c-0.4-0.3-0.9-0.4-1.5-0.4c-0.5,0-0.9,0.1-1.3,0.3c-0.4,0.2-0.7,0.6-1,1c-0.2,0.5-0.4,1-0.4,1.7s0.1,1.2,0.4,1.7
			c0.2,0.5,0.6,0.8,1,1s0.8,0.3,1.3,0.3s1-0.1,1.5-0.4c0.4-0.3,0.7-0.7,0.8-1.2h1.4c-0.2,0.8-0.6,1.5-1.2,2
			C61.6,191.5,60.8,191.8,59.9,191.8z"/>
		<path class="st1" d="M68,191.8c-0.7,0-1.2-0.1-1.7-0.3c-0.4-0.2-0.8-0.5-1-0.9s-0.3-0.8-0.3-1.2c0-0.8,0.3-1.4,0.9-1.9
			c0.6-0.4,1.5-0.7,2.5-0.7h2.1v-0.1c0-0.7-0.2-1.2-0.5-1.6c-0.4-0.4-0.9-0.5-1.5-0.5c-0.5,0-1,0.1-1.4,0.4s-0.6,0.6-0.7,1.1H65
			c0-0.6,0.2-1.1,0.6-1.5c0.3-0.4,0.8-0.7,1.3-0.9c0.5-0.2,1-0.3,1.6-0.3c1.1,0,1.9,0.3,2.5,0.9s0.8,1.4,0.8,2.4v4.9h-1.2l-0.1-1.4
			c-0.2,0.5-0.6,0.8-1,1.1C69.3,191.6,68.7,191.8,68,191.8z M68.2,190.6c0.5,0,1-0.1,1.3-0.4c0.4-0.3,0.7-0.6,0.8-1
			c0.2-0.4,0.3-0.9,0.3-1.3l0,0h-2c-0.8,0-1.3,0.1-1.7,0.4c-0.3,0.3-0.5,0.6-0.5,1s0.2,0.8,0.5,1C67.2,190.5,67.6,190.6,68.2,190.6z
			"/>
		<path class="st1" d="M74,191.6v-7.9h1.2l0.1,1.5c0.2-0.5,0.6-0.9,1.1-1.2c0.5-0.3,1.1-0.5,1.9-0.5v1.4h-0.4
			c-0.5,0-0.9,0.1-1.3,0.2c-0.4,0.2-0.7,0.4-0.9,0.8c-0.2,0.4-0.3,0.9-0.3,1.6v4H74V191.6z"/>
		<path class="st1" d="M84.5,191.6v-6.8h-1.2v-1.1h1.2v-1.4c0-0.8,0.2-1.3,0.6-1.7c0.4-0.4,0.9-0.5,1.7-0.5h0.8v1.1H87
			c-0.4,0-0.7,0.1-0.9,0.2c-0.2,0.2-0.3,0.4-0.3,0.8v1.3h1.9v1.1h-1.9v6.8L84.5,191.6L84.5,191.6z"/>
		<path class="st1" d="M92.3,191.8c-0.9,0-1.7-0.3-2.2-0.9s-0.8-1.5-0.8-2.6v-4.6h1.3v4.5c0,1.6,0.7,2.5,2,2.5
			c0.7,0,1.3-0.2,1.7-0.7c0.5-0.5,0.7-1.2,0.7-2.1v-4.1h1.3v7.9h-1.2l-0.1-1.4c-0.2,0.5-0.6,0.9-1.1,1.2
			C93.4,191.6,92.9,191.8,92.3,191.8z"/>
		<path class="st1" d="M98.5,191.6v-7.9h1.2l0.1,1.5c0.2-0.5,0.6-0.9,1.1-1.2s1.1-0.5,1.9-0.5v1.4h-0.4c-0.5,0-0.9,0.1-1.3,0.2
			c-0.4,0.2-0.7,0.4-0.9,0.8c-0.2,0.4-0.3,0.9-0.3,1.6v4h-1.4V191.6z"/>
		<path class="st1" d="M107.5,191.6c-0.7,0-1.3-0.2-1.7-0.5c-0.4-0.4-0.6-1-0.6-1.9v-4.4h-1.4v-1.1h1.4l0.2-1.9h1.2v1.9h2.3v1.1
			h-2.3v4.4c0,0.5,0.1,0.8,0.3,1c0.2,0.2,0.6,0.3,1.1,0.3h0.8v1.2h-1.3V191.6z"/>
		<path class="st1" d="M110.5,191.6v-11.5h1.3v4.9c0.3-0.5,0.7-0.9,1.1-1.1c0.5-0.3,1-0.4,1.6-0.4c0.9,0,1.7,0.3,2.2,0.9
			s0.8,1.5,0.8,2.6v4.6h-1.3v-4.5c0-1.7-0.7-2.5-2-2.5c-0.7,0-1.3,0.2-1.7,0.7c-0.5,0.5-0.7,1.2-0.7,2.1v4.1L110.5,191.6
			L110.5,191.6z"/>
		<path class="st1" d="M123.3,191.8c-0.8,0-1.4-0.2-2-0.5c-0.6-0.4-1-0.8-1.4-1.4c-0.3-0.6-0.5-1.4-0.5-2.2c0-0.8,0.2-1.6,0.5-2.2
			s0.8-1.1,1.4-1.5s1.3-0.5,2.1-0.5c0.8,0,1.4,0.2,2,0.5s1,0.8,1.3,1.4s0.4,1.2,0.4,1.8c0,0.1,0,0.2,0,0.4c0,0.1,0,0.2,0,0.4h-6.4
			c0,0.6,0.2,1.1,0.4,1.5s0.6,0.7,0.9,0.9c0.4,0.2,0.8,0.3,1.2,0.3c0.6,0,1-0.1,1.4-0.4s0.7-0.6,0.8-1h1.3c-0.2,0.7-0.6,1.4-1.2,1.8
			C125,191.5,124.2,191.8,123.3,191.8z M123.3,184.6c-0.6,0-1.2,0.2-1.7,0.6s-0.8,1-0.9,1.7h5c0-0.7-0.3-1.3-0.7-1.7
			C124.5,184.8,123.9,184.6,123.3,184.6z"/>
		<path class="st1" d="M128.8,191.6v-7.9h1.2l0.1,1.5c0.2-0.5,0.6-0.9,1.1-1.2s1.1-0.5,1.9-0.5v1.4h-0.4c-0.5,0-0.9,0.1-1.3,0.2
			c-0.4,0.2-0.7,0.4-0.9,0.8s-0.4,0.9-0.4,1.6v4h-1.3V191.6z"/>
		<path class="st1" d="M141.5,191.8c-0.7,0-1.2-0.1-1.6-0.3c-0.4-0.2-0.8-0.5-1-0.9s-0.3-0.8-0.3-1.2c0-0.8,0.3-1.4,0.9-1.9
			c0.6-0.4,1.5-0.7,2.5-0.7h2.1v-0.1c0-0.7-0.2-1.2-0.5-1.6c-0.4-0.4-0.9-0.5-1.5-0.5c-0.5,0-1,0.1-1.3,0.4
			c-0.4,0.3-0.6,0.6-0.7,1.1h-1.4c0.1-0.6,0.2-1.1,0.6-1.5c0.3-0.4,0.8-0.7,1.3-0.9c0.5-0.2,1-0.3,1.6-0.3c1.1,0,1.9,0.3,2.5,0.9
			s0.8,1.4,0.8,2.4v4.9h-1.2l-0.1-1.4c-0.2,0.5-0.6,0.8-1,1.1C142.8,191.6,142.2,191.8,141.5,191.8z M141.7,190.6
			c0.5,0,0.9-0.1,1.3-0.4c0.4-0.3,0.7-0.6,0.8-1c0.2-0.4,0.3-0.9,0.3-1.3l0,0h-2c-0.8,0-1.4,0.1-1.7,0.4s-0.5,0.6-0.5,1
			s0.1,0.8,0.5,1C140.7,190.5,141.1,190.6,141.7,190.6z"/>
		<path class="st1" d="M148.9,191.6l-2.3-7.9h1.3l1.7,6.2l1.9-6.2h1.5l1.9,6.2l1.7-6.2h1.4l-2.3,7.9h-1.4l-1.9-6.5l-1.9,6.5H148.9z"
			/>
		<path class="st1" d="M161.7,191.8c-0.7,0-1.2-0.1-1.7-0.3c-0.4-0.2-0.8-0.5-1-0.9s-0.3-0.8-0.3-1.2c0-0.8,0.3-1.4,0.9-1.9
			s1.5-0.7,2.5-0.7h2.1v-0.1c0-0.7-0.2-1.2-0.5-1.6c-0.4-0.4-0.9-0.5-1.5-0.5c-0.5,0-1,0.1-1.3,0.4c-0.4,0.3-0.6,0.6-0.7,1.1h-1.4
			c0.1-0.6,0.2-1.1,0.6-1.5c0.3-0.4,0.8-0.7,1.3-0.9c0.5-0.2,1-0.3,1.6-0.3c1.1,0,1.9,0.3,2.5,0.9s0.8,1.4,0.8,2.4v4.9h-1.2
			l-0.1-1.4c-0.2,0.5-0.5,0.8-1,1.1C163.1,191.6,162.5,191.8,161.7,191.8z M162,190.6c0.5,0,1-0.1,1.3-0.4c0.4-0.3,0.6-0.6,0.8-1
			s0.3-0.9,0.3-1.3l0,0h-2c-0.8,0-1.3,0.1-1.7,0.4c-0.3,0.3-0.5,0.6-0.5,1s0.1,0.8,0.5,1C161,190.5,161.4,190.6,162,190.6z"/>
		<path class="st1" d="M168.4,195.1l2-4.3h-0.5l-3.1-7.2h1.5l2.6,6.2l2.8-6.2h1.4l-5.2,11.5H168.4z"/>
		<path class="st1" d="M184.3,191.8c-0.8,0-1.4-0.2-2-0.5s-1.1-0.8-1.4-1.5c-0.4-0.6-0.5-1.4-0.5-2.2s0.2-1.6,0.5-2.2
			c0.4-0.6,0.8-1.1,1.4-1.5c0.6-0.3,1.3-0.5,2-0.5s1.4,0.2,2,0.5s1.1,0.8,1.4,1.5c0.4,0.6,0.5,1.4,0.5,2.2s-0.2,1.6-0.5,2.2
			s-0.8,1.1-1.4,1.5C185.7,191.6,185,191.8,184.3,191.8z M184.3,190.6c0.5,0,0.9-0.1,1.3-0.3c0.4-0.2,0.7-0.6,1-1
			c0.2-0.5,0.4-1,0.4-1.7s-0.1-1.2-0.4-1.7c-0.2-0.5-0.6-0.8-0.9-1s-0.8-0.3-1.3-0.3s-0.9,0.1-1.3,0.3c-0.4,0.2-0.7,0.6-1,1
			c-0.2,0.4-0.4,1-0.4,1.7s0.1,1.2,0.4,1.7c0.2,0.4,0.6,0.8,0.9,1C183.4,190.5,183.8,190.6,184.3,190.6z"/>
		<path class="st1" d="M190.1,191.6v-7.9h1.2l0.1,1.5c0.2-0.5,0.6-0.9,1.1-1.2s1.1-0.5,1.9-0.5v1.4H194c-0.5,0-0.9,0.1-1.3,0.2
			c-0.4,0.2-0.7,0.4-0.9,0.8s-0.4,0.9-0.4,1.6v4h-1.3V191.6z"/>
		<path class="st1" d="M203.8,191.8c-0.8,0-1.5-0.2-2.1-0.5c-0.6-0.4-1.1-0.9-1.4-1.5c-0.3-0.6-0.5-1.3-0.5-2.1s0.2-1.5,0.5-2.1
			s0.8-1.1,1.4-1.5c0.6-0.4,1.3-0.5,2.1-0.5c0.6,0,1.2,0.1,1.7,0.4s0.9,0.6,1.2,1.1v-4.9h1.3v11.5h-1.2l-0.1-1.3
			c-0.3,0.4-0.6,0.7-1.1,1C205.1,191.6,204.5,191.8,203.8,191.8z M203.9,190.6c0.5,0,1-0.1,1.4-0.4c0.4-0.2,0.7-0.6,1-1
			c0.2-0.5,0.3-1,0.3-1.6s-0.1-1.1-0.3-1.6c-0.2-0.4-0.6-0.8-1-1s-0.9-0.4-1.4-0.4s-1,0.1-1.4,0.4s-0.7,0.6-1,1
			c-0.2,0.5-0.3,1-0.3,1.6s0.1,1.1,0.3,1.6c0.2,0.4,0.6,0.8,1,1C202.9,190.5,203.4,190.6,203.9,190.6z"/>
		<path class="st1" d="M213.8,191.8c-0.8,0-1.4-0.2-2-0.5s-1.1-0.8-1.4-1.5c-0.4-0.6-0.5-1.4-0.5-2.2s0.2-1.6,0.5-2.2
			s0.8-1.1,1.4-1.5c0.6-0.3,1.3-0.5,2-0.5c0.8,0,1.4,0.2,2,0.5s1.1,0.8,1.4,1.5s0.5,1.4,0.5,2.2s-0.2,1.6-0.5,2.2
			c-0.4,0.6-0.8,1.1-1.4,1.5C215.3,191.6,214.6,191.8,213.8,191.8z M213.8,190.6c0.5,0,0.9-0.1,1.3-0.3c0.4-0.2,0.7-0.6,1-1
			c0.2-0.5,0.4-1,0.4-1.7s-0.1-1.2-0.4-1.7c-0.2-0.4-0.6-0.8-0.9-1s-0.8-0.3-1.3-0.3s-0.9,0.1-1.3,0.3s-0.7,0.6-1,1
			c-0.2,0.4-0.4,1-0.4,1.7s0.1,1.2,0.4,1.7c0.2,0.4,0.6,0.8,0.9,1C213,190.5,213.4,190.6,213.8,190.6z"/>
		<path class="st1" d="M226.6,191.8c-0.7,0-1.2-0.1-1.6-0.3c-0.4-0.2-0.8-0.5-1-0.9s-0.3-0.8-0.3-1.2c0-0.8,0.3-1.4,0.9-1.9
			c0.6-0.4,1.5-0.7,2.5-0.7h2.1v-0.1c0-0.7-0.2-1.2-0.5-1.6c-0.4-0.4-0.9-0.5-1.5-0.5c-0.5,0-1,0.1-1.3,0.4
			c-0.4,0.3-0.6,0.6-0.7,1.1h-1.4c0-0.6,0.2-1.1,0.6-1.5c0.3-0.4,0.8-0.7,1.3-0.9c0.5-0.2,1-0.3,1.6-0.3c1.1,0,1.9,0.3,2.5,0.9
			s0.8,1.4,0.8,2.4v4.9h-1.2l-0.1-1.4c-0.2,0.5-0.6,0.8-1,1.1C227.9,191.6,227.3,191.8,226.6,191.8z M226.8,190.6
			c0.5,0,0.9-0.1,1.3-0.4c0.4-0.3,0.6-0.6,0.8-1s0.3-0.9,0.3-1.3l0,0h-2c-0.8,0-1.3,0.1-1.7,0.4c-0.3,0.3-0.5,0.6-0.5,1
			s0.1,0.8,0.5,1C225.8,190.5,226.2,190.6,226.8,190.6z"/>
		<path class="st1" d="M236.8,195.1v-11.5h1.2l0.1,1.3c0.3-0.4,0.6-0.7,1.1-1s1.1-0.5,1.8-0.5c0.8,0,1.5,0.2,2.1,0.5
			c0.6,0.4,1,0.9,1.4,1.5c0.3,0.6,0.5,1.3,0.5,2.1c0,0.8-0.2,1.5-0.5,2.1s-0.8,1.1-1.4,1.5c-0.6,0.4-1.3,0.5-2.1,0.5
			c-0.7,0-1.2-0.1-1.7-0.4s-0.9-0.6-1.2-1.1v4.9h-1.3V195.1z M240.9,190.6c0.5,0,1-0.1,1.4-0.4s0.7-0.6,1-1c0.2-0.5,0.4-1,0.4-1.6
			s-0.1-1.1-0.4-1.6c-0.2-0.4-0.6-0.8-1-1s-0.9-0.4-1.4-0.4s-1,0.1-1.4,0.4c-0.4,0.2-0.7,0.6-1,1c-0.2,0.5-0.4,1-0.4,1.6
			s0.1,1.1,0.4,1.6c0.2,0.4,0.6,0.8,1,1C239.9,190.5,240.4,190.6,240.9,190.6z"/>
		<path class="st1" d="M249.8,191.8c-0.9,0-1.7-0.3-2.2-0.9c-0.6-0.6-0.8-1.5-0.8-2.6v-4.6h1.3v4.5c0,1.6,0.7,2.5,2,2.5
			c0.7,0,1.3-0.2,1.7-0.7c0.5-0.5,0.7-1.2,0.7-2.1v-4.1h1.3v7.9h-1.2l-0.1-1.4c-0.2,0.5-0.6,0.9-1.1,1.2
			C250.9,191.6,250.4,191.8,249.8,191.8z"/>
		<path class="st1" d="M259.1,191.8c-1,0-1.7-0.2-2.4-0.7c-0.6-0.5-1-1.1-1.1-2h1.4c0.1,0.4,0.3,0.8,0.7,1.1
			c0.4,0.3,0.8,0.5,1.4,0.5s1-0.1,1.2-0.4c0.3-0.2,0.4-0.5,0.4-0.9c0-0.5-0.2-0.8-0.5-1c-0.4-0.2-0.8-0.3-1.5-0.4
			c-0.4-0.1-0.9-0.2-1.3-0.4c-0.4-0.2-0.8-0.4-1.1-0.7c-0.3-0.3-0.4-0.7-0.4-1.2c0-0.7,0.3-1.3,0.8-1.7c0.5-0.4,1.2-0.7,2.1-0.7
			c0.8,0,1.5,0.2,2.1,0.6c0.5,0.4,0.9,1,0.9,1.8h-1.3c-0.1-0.4-0.2-0.7-0.5-1c-0.3-0.2-0.7-0.3-1.2-0.3s-0.9,0.1-1.1,0.3
			c-0.3,0.2-0.4,0.5-0.4,0.8s0.2,0.6,0.5,0.8c0.3,0.2,0.8,0.3,1.4,0.5c0.5,0.1,1,0.2,1.4,0.4c0.4,0.1,0.8,0.4,1.1,0.7
			c0.3,0.3,0.4,0.7,0.4,1.3c0,0.7-0.3,1.3-0.8,1.8C260.8,191.6,260,191.8,259.1,191.8z"/>
		<path class="st1" d="M264,191.6v-11.5h1.3v4.9c0.3-0.5,0.6-0.9,1.1-1.1c0.5-0.3,1-0.4,1.6-0.4c0.9,0,1.6,0.3,2.2,0.9
			c0.5,0.6,0.8,1.5,0.8,2.6v4.6h-1.3v-4.5c0-1.7-0.7-2.5-2-2.5c-0.7,0-1.3,0.2-1.7,0.7c-0.5,0.5-0.7,1.2-0.7,2.1v4.1L264,191.6
			L264,191.6z"/>
		<path class="st1" d="M280.3,191.8c-0.9,0-1.7-0.3-2.2-0.9c-0.6-0.6-0.8-1.5-0.8-2.6v-4.6h1.3v4.5c0,1.6,0.7,2.5,2,2.5
			c0.7,0,1.3-0.2,1.7-0.7c0.5-0.5,0.7-1.2,0.7-2.1v-4.1h1.3v7.9h-1.2l-0.1-1.4c-0.2,0.5-0.6,0.9-1.1,1.2
			C281.5,191.6,280.9,191.8,280.3,191.8z"/>
		<path class="st1" d="M286.6,195.1v-11.5h1.2l0.1,1.3c0.3-0.4,0.6-0.7,1.1-1s1.1-0.5,1.8-0.5c0.8,0,1.5,0.2,2.1,0.5
			c0.6,0.4,1,0.9,1.4,1.5c0.3,0.6,0.5,1.3,0.5,2.1c0,0.8-0.2,1.5-0.5,2.1s-0.8,1.1-1.4,1.5s-1.3,0.5-2.1,0.5c-0.7,0-1.2-0.1-1.7-0.4
			s-0.9-0.6-1.2-1.1v4.9h-1.3V195.1z M290.7,190.6c0.5,0,1-0.1,1.4-0.4c0.4-0.2,0.7-0.6,1-1c0.2-0.5,0.4-1,0.4-1.6s-0.1-1.1-0.4-1.6
			c-0.2-0.4-0.6-0.8-1-1s-0.9-0.4-1.4-0.4s-1,0.1-1.4,0.4s-0.7,0.6-1,1c-0.2,0.5-0.3,1-0.3,1.6s0.1,1.1,0.3,1.6c0.2,0.4,0.6,0.8,1,1
			C289.7,190.5,290.1,190.6,290.7,190.6z"/>
		<path class="st1" d="M23,213.8c-0.8,0-1.5-0.2-2.1-0.5c-0.6-0.4-1-0.9-1.4-1.5c-0.3-0.6-0.5-1.3-0.5-2.1s0.2-1.5,0.5-2.1
			s0.8-1.1,1.4-1.5s1.3-0.5,2.1-0.5c0.7,0,1.2,0.1,1.7,0.4s0.9,0.6,1.2,1.1v-4.9h1.3v11.5H26l-0.1-1.3c-0.3,0.4-0.6,0.7-1.1,1
			S23.7,213.8,23,213.8z M23.2,212.6c0.5,0,1-0.1,1.4-0.4s0.7-0.6,1-1c0.2-0.5,0.3-1,0.3-1.6s-0.1-1.1-0.3-1.6c-0.2-0.4-0.5-0.8-1-1
			s-0.9-0.4-1.4-0.4s-1,0.1-1.4,0.4s-0.7,0.6-1,1c-0.2,0.5-0.3,1-0.3,1.6s0.1,1.1,0.3,1.6c0.2,0.4,0.5,0.8,1,1
			C22.2,212.5,22.6,212.6,23.2,212.6z"/>
		<path class="st1" d="M32.4,213.8c-0.9,0-1.7-0.3-2.2-0.9c-0.6-0.6-0.8-1.5-0.8-2.6v-4.6h1.3v4.5c0,1.6,0.7,2.5,2,2.5
			c0.7,0,1.3-0.2,1.7-0.7c0.5-0.5,0.7-1.2,0.7-2.1v-4.1h1.3v7.9h-1.2l-0.1-1.4c-0.2,0.5-0.6,0.9-1.1,1.2
			C33.5,213.6,33,213.8,32.4,213.8z"/>
		<path class="st1" d="M38.6,213.6v-7.9h1.2l0.1,1.5c0.2-0.5,0.6-0.9,1.1-1.2s1.1-0.5,1.9-0.5v1.4h-0.4c-0.5,0-0.9,0.1-1.3,0.2
			c-0.4,0.2-0.7,0.4-0.9,0.8s-0.4,0.9-0.4,1.6v4h-1.3V213.6z"/>
		<path class="st1" d="M45.2,203.9c-0.3,0-0.5-0.1-0.7-0.3c-0.2-0.2-0.3-0.4-0.3-0.7c0-0.3,0.1-0.5,0.3-0.6c0.2-0.2,0.4-0.3,0.7-0.3
			s0.5,0.1,0.7,0.3c0.2,0.2,0.3,0.4,0.3,0.6c0,0.3-0.1,0.5-0.3,0.7C45.7,203.8,45.5,203.9,45.2,203.9z M44.6,213.6v-7.9h1.3v7.9
			H44.6z"/>
		<path class="st1" d="M48.2,213.6v-7.9h1.2l0.1,1.4c0.3-0.5,0.6-0.9,1.1-1.2c0.5-0.3,1-0.4,1.6-0.4c0.9,0,1.7,0.3,2.2,0.9
			s0.8,1.5,0.8,2.6v4.6h-1.3v-4.5c0-1.7-0.7-2.5-2.1-2.5c-0.7,0-1.2,0.2-1.7,0.7c-0.4,0.5-0.7,1.2-0.7,2.1v4.1L48.2,213.6
			L48.2,213.6z"/>
		<path class="st1" d="M60.5,211.1c-0.5,0-0.9-0.1-1.2-0.2l-0.8,0.8c0.1,0.1,0.3,0.2,0.4,0.2s0.4,0.1,0.8,0.2
			c0.3,0.1,0.8,0.1,1.4,0.1c1.1,0.1,1.8,0.3,2.3,0.7c0.5,0.4,0.7,1,0.7,1.6c0,0.5-0.1,0.9-0.4,1.3c-0.2,0.4-0.6,0.8-1.2,1
			c-0.5,0.3-1.2,0.4-2,0.4c-0.7,0-1.3-0.1-1.9-0.3c-0.5-0.2-1-0.5-1.3-0.9s-0.5-0.9-0.5-1.4c0-0.3,0.1-0.6,0.2-1
			c0.2-0.4,0.5-0.7,0.9-1c-0.2-0.1-0.4-0.2-0.6-0.3c-0.2-0.1-0.3-0.2-0.5-0.4v-0.4l1.4-1.3c-0.6-0.5-0.9-1.2-0.9-2.1
			c0-0.5,0.1-1,0.4-1.4c0.2-0.4,0.6-0.8,1.1-1s1-0.4,1.7-0.4c0.5,0,0.9,0.1,1.2,0.2h3v1l-1.5,0.1c0.3,0.4,0.5,1,0.5,1.5
			s-0.1,1-0.4,1.4c-0.2,0.4-0.6,0.8-1.1,1C61.8,211,61.2,211.1,60.5,211.1z M58.2,214.6c0,0.5,0.2,0.9,0.7,1.2
			c0.5,0.3,1,0.4,1.7,0.4c0.7,0,1.2-0.1,1.6-0.4s0.6-0.7,0.6-1.1c0-0.3-0.1-0.6-0.4-0.9s-0.8-0.4-1.5-0.4c-0.6,0-1.1-0.1-1.5-0.2
			c-0.4,0.2-0.7,0.5-0.9,0.8C58.3,214.2,58.2,214.4,58.2,214.6z M60.5,210c0.6,0,1-0.1,1.3-0.4c0.3-0.3,0.5-0.7,0.5-1.3
			c0-0.5-0.2-1-0.5-1.3s-0.8-0.4-1.3-0.4c-0.6,0-1,0.1-1.4,0.4c-0.3,0.3-0.5,0.7-0.5,1.3c0,0.5,0.2,1,0.5,1.3
			C59.5,209.8,60,210,60.5,210z"/>
		<path class="st1" d="M73.2,213.6v-10.1h-3.3v-1.1h8v1.1h-3.3v10.1H73.2z"/>
		<path class="st1" d="M82.9,213.6l-4.2-11.2h1.5l3.5,9.8l3.6-9.8h1.4l-4.2,11.2H82.9z"/>
		<path class="st1" d="M97,213.8c-0.7,0-1.2-0.1-1.7-0.3c-0.4-0.2-0.8-0.5-1-0.9s-0.3-0.8-0.3-1.2c0-0.8,0.3-1.4,0.9-1.9
			c0.6-0.4,1.5-0.7,2.5-0.7h2.1v-0.1c0-0.7-0.2-1.2-0.5-1.6c-0.4-0.4-0.9-0.5-1.5-0.5c-0.5,0-1,0.1-1.3,0.4
			c-0.4,0.3-0.6,0.6-0.7,1.1h-1.4c0-0.6,0.2-1.1,0.6-1.5c0.3-0.4,0.8-0.7,1.3-0.9c0.5-0.2,1-0.3,1.6-0.3c1.1,0,1.9,0.3,2.5,0.9
			s0.8,1.4,0.8,2.4v4.9h-1.2l-0.1-1.4c-0.2,0.5-0.6,0.8-1,1.1C98.3,213.6,97.7,213.8,97,213.8z M97.2,212.6c0.5,0,0.9-0.1,1.3-0.4
			s0.7-0.6,0.8-1c0.2-0.4,0.3-0.9,0.3-1.3l0,0h-2c-0.8,0-1.3,0.1-1.7,0.4c-0.3,0.3-0.5,0.6-0.5,1s0.2,0.8,0.5,1
			C96.2,212.5,96.7,212.6,97.2,212.6z"/>
		<path class="st1" d="M106.6,213.8c-0.8,0-1.5-0.2-2.1-0.5c-0.6-0.4-1-0.9-1.4-1.5c-0.3-0.6-0.5-1.3-0.5-2.1s0.2-1.5,0.5-2.1
			s0.8-1.1,1.4-1.5s1.3-0.5,2.1-0.5c0.6,0,1.2,0.1,1.7,0.4s0.9,0.6,1.2,1.1v-4.9h1.3v11.5h-1.1l-0.1-1.3c-0.3,0.4-0.6,0.7-1.1,1
			C107.9,213.6,107.3,213.8,106.6,213.8z M106.8,212.6c0.5,0,1-0.1,1.4-0.4c0.4-0.2,0.7-0.6,1-1c0.2-0.5,0.3-1,0.3-1.6
			s-0.1-1.1-0.3-1.6c-0.2-0.4-0.6-0.8-1-1s-0.9-0.4-1.4-0.4s-1,0.1-1.4,0.4s-0.7,0.6-1,1c-0.2,0.5-0.3,1-0.3,1.6s0.1,1.1,0.3,1.6
			c0.2,0.4,0.6,0.8,1,1C105.8,212.5,106.2,212.6,106.8,212.6z"/>
		<path class="st1" d="M121.5,213.8c-0.7,0-1.2-0.1-1.7-0.4s-0.9-0.6-1.2-1.1l-0.1,1.3h-1.2v-11.5h1.3v4.9c0.3-0.4,0.6-0.7,1.1-1
			s1.1-0.5,1.8-0.5c0.8,0,1.5,0.2,2.1,0.5c0.6,0.4,1,0.9,1.4,1.5c0.3,0.6,0.5,1.3,0.5,2.1s-0.2,1.5-0.5,2.1s-0.8,1.1-1.4,1.5
			C123,213.6,122.3,213.8,121.5,213.8z M121.4,212.6c0.5,0,1-0.1,1.4-0.4s0.7-0.6,1-1c0.2-0.5,0.3-1,0.3-1.6s-0.1-1.1-0.3-1.6
			c-0.2-0.4-0.6-0.8-1-1s-0.9-0.4-1.4-0.4s-1,0.1-1.4,0.4c-0.4,0.2-0.7,0.6-1,1c-0.2,0.5-0.4,1-0.4,1.6s0.1,1.1,0.4,1.6
			c0.2,0.4,0.6,0.8,1,1C120.4,212.5,120.9,212.6,121.4,212.6z"/>
		<path class="st1" d="M127.4,213.6v-7.9h1.2l0.1,1.5c0.2-0.5,0.6-0.9,1.1-1.2s1.1-0.5,1.9-0.5v1.4h-0.4c-0.5,0-0.9,0.1-1.3,0.2
			c-0.4,0.2-0.7,0.4-0.9,0.8s-0.4,0.9-0.4,1.6v4h-1.3V213.6z"/>
		<path class="st1" d="M136.4,213.8c-0.8,0-1.4-0.2-2-0.5c-0.6-0.4-1.1-0.8-1.4-1.4c-0.3-0.6-0.5-1.4-0.5-2.2c0-0.8,0.2-1.6,0.5-2.2
			s0.8-1.1,1.4-1.5c0.6-0.4,1.3-0.5,2.1-0.5s1.4,0.2,2,0.5c0.6,0.4,1,0.8,1.3,1.4s0.4,1.2,0.4,1.8c0,0.1,0,0.2,0,0.4
			c0,0.1,0,0.2,0,0.4h-6.3c0,0.6,0.2,1.1,0.4,1.5s0.6,0.7,0.9,0.9c0.4,0.2,0.8,0.3,1.2,0.3c0.6,0,1-0.1,1.4-0.4s0.7-0.6,0.8-1h1.3
			c-0.2,0.7-0.6,1.4-1.2,1.8C138.1,213.5,137.4,213.8,136.4,213.8z M136.4,206.6c-0.6,0-1.2,0.2-1.7,0.6s-0.8,1-0.9,1.7h5
			c0-0.7-0.3-1.3-0.7-1.7C137.7,206.8,137.1,206.6,136.4,206.6z"/>
		<path class="st1" d="M144.6,213.8c-0.7,0-1.2-0.1-1.6-0.3c-0.4-0.2-0.8-0.5-1-0.9s-0.3-0.8-0.3-1.2c0-0.8,0.3-1.4,0.9-1.9
			c0.6-0.4,1.5-0.7,2.5-0.7h2.1v-0.1c0-0.7-0.2-1.2-0.5-1.6c-0.4-0.4-0.8-0.5-1.5-0.5c-0.5,0-1,0.1-1.4,0.4s-0.6,0.6-0.7,1.1h-1.4
			c0.1-0.6,0.2-1.1,0.6-1.5c0.3-0.4,0.8-0.7,1.3-0.9c0.5-0.2,1-0.3,1.6-0.3c1.1,0,1.9,0.3,2.5,0.9s0.8,1.4,0.8,2.4v4.9h-1.2
			l-0.1-1.4c-0.2,0.5-0.6,0.8-1,1.1C145.9,213.6,145.3,213.8,144.6,213.8z M144.8,212.6c0.5,0,0.9-0.1,1.3-0.4
			c0.4-0.3,0.7-0.6,0.8-1s0.3-0.9,0.3-1.3l0,0h-2c-0.8,0-1.4,0.1-1.7,0.4s-0.5,0.6-0.5,1s0.2,0.8,0.5,1
			C143.8,212.5,144.3,212.6,144.8,212.6z"/>
		<path class="st1" d="M150.6,213.6v-11.5h1.3v6.9l3.2-3.3h1.7l-3.5,3.6l4,4.4h-1.7l-3.6-4.1v4.1h-1.4V213.6z"/>
		<path class="st1" d="M161.3,213.8c-0.9,0-1.7-0.2-2.4-0.7c-0.6-0.5-1-1.1-1.1-2h1.4c0.1,0.4,0.3,0.8,0.7,1.1
			c0.4,0.3,0.8,0.5,1.4,0.5c0.6,0,1-0.1,1.2-0.4c0.3-0.2,0.4-0.5,0.4-0.9c0-0.5-0.2-0.8-0.5-1c-0.4-0.2-0.8-0.3-1.5-0.4
			c-0.4-0.1-0.9-0.2-1.3-0.4c-0.4-0.2-0.8-0.4-1.1-0.7c-0.3-0.3-0.4-0.7-0.4-1.2c0-0.7,0.3-1.3,0.8-1.7s1.2-0.7,2.1-0.7
			c0.8,0,1.5,0.2,2.1,0.6c0.5,0.4,0.9,1,0.9,1.8h-1.3c-0.1-0.4-0.2-0.7-0.5-1c-0.3-0.2-0.7-0.3-1.2-0.3s-0.9,0.1-1.1,0.3
			c-0.3,0.2-0.4,0.5-0.4,0.8s0.2,0.6,0.5,0.8c0.3,0.2,0.8,0.3,1.4,0.5c0.5,0.1,1,0.2,1.4,0.4c0.4,0.1,0.8,0.4,1.1,0.7
			c0.3,0.3,0.4,0.7,0.4,1.3c0,0.7-0.3,1.3-0.8,1.8C162.9,213.6,162.2,213.8,161.3,213.8z"/>
		<path class="st1" d="M166.7,213.7c-0.3,0-0.5-0.1-0.7-0.3c-0.2-0.2-0.3-0.4-0.3-0.6s0.1-0.5,0.3-0.6c0.2-0.2,0.4-0.3,0.7-0.3
			s0.5,0.1,0.7,0.3c0.2,0.2,0.3,0.4,0.3,0.6s-0.1,0.5-0.3,0.6C167.1,213.6,166.9,213.7,166.7,213.7z"/>
		<path class="st1" d="M24.4,37.5c-1.1,0-2-0.2-2.8-0.7s-1.4-1.2-1.8-2s-0.7-1.9-0.7-3c0-1.1,0.2-2.1,0.7-3s1-1.6,1.8-2
			c0.8-0.5,1.7-0.7,2.8-0.7c1.3,0,2.3,0.3,3.1,0.9c0.8,0.6,1.3,1.5,1.5,2.6h-1.5c-0.2-0.7-0.5-1.2-1-1.7c-0.5-0.4-1.2-0.6-2.1-0.6
			c-0.8,0-1.5,0.2-2.1,0.5s-1.1,0.9-1.4,1.6c-0.3,0.7-0.5,1.5-0.5,2.5c0,1,0.2,1.8,0.5,2.5s0.8,1.2,1.4,1.6c0.6,0.4,1.3,0.5,2.1,0.5
			c0.9,0,1.6-0.2,2.1-0.6c0.5-0.4,0.9-1,1-1.6H29c-0.2,1.1-0.7,1.9-1.5,2.5C26.7,37.2,25.7,37.5,24.4,37.5z"/>
		<path class="st1" d="M30.9,37.3V25.8h1.3v4.9c0.3-0.5,0.7-0.9,1.1-1.1c0.5-0.3,1-0.4,1.6-0.4c0.9,0,1.6,0.3,2.2,0.9
			c0.5,0.6,0.8,1.4,0.8,2.6v4.6h-1.2v-4.5c0-1.6-0.7-2.5-2-2.5c-0.7,0-1.3,0.2-1.7,0.7c-0.5,0.5-0.7,1.2-0.7,2.1v4.1L30.9,37.3
			L30.9,37.3z"/>
		<path class="st1" d="M43.7,37.5c-0.8,0-1.4-0.2-2-0.5s-1.1-0.8-1.4-1.4c-0.4-0.6-0.5-1.4-0.5-2.2s0.2-1.6,0.5-2.2
			c0.4-0.6,0.8-1.1,1.4-1.4s1.3-0.5,2-0.5s1.4,0.2,2,0.5s1.1,0.8,1.4,1.4c0.3,0.6,0.5,1.4,0.5,2.2s-0.2,1.6-0.5,2.2
			c-0.3,0.6-0.8,1.1-1.4,1.4C45.1,37.3,44.4,37.5,43.7,37.5z M43.7,36.3c0.5,0,0.9-0.1,1.3-0.3c0.4-0.2,0.7-0.6,1-1
			c0.2-0.5,0.4-1,0.4-1.7s-0.1-1.2-0.4-1.7c-0.2-0.5-0.6-0.8-0.9-1c-0.4-0.2-0.8-0.3-1.3-0.3s-0.9,0.1-1.3,0.3c-0.4,0.2-0.7,0.6-1,1
			s-0.4,1-0.4,1.7s0.1,1.2,0.4,1.7c0.2,0.4,0.6,0.8,0.9,1C42.8,36.2,43.3,36.3,43.7,36.3z"/>
		<path class="st1" d="M53.2,37.5c-0.8,0-1.4-0.2-2-0.5s-1.1-0.8-1.4-1.4c-0.3-0.6-0.5-1.4-0.5-2.2s0.2-1.6,0.5-2.2s0.8-1.1,1.4-1.4
			s1.3-0.5,2-0.5c0.8,0,1.4,0.2,2,0.5s1.1,0.8,1.4,1.4c0.3,0.6,0.5,1.4,0.5,2.2s-0.2,1.6-0.5,2.2c-0.3,0.6-0.8,1.1-1.4,1.4
			C54.6,37.3,53.9,37.5,53.2,37.5z M53.2,36.3c0.5,0,0.9-0.1,1.3-0.3c0.4-0.2,0.7-0.6,1-1c0.2-0.5,0.4-1,0.4-1.7s-0.1-1.2-0.4-1.7
			c-0.3-0.5-0.6-0.8-1-1s-0.8-0.3-1.3-0.3s-0.9,0.1-1.3,0.3c-0.4,0.2-0.7,0.6-1,1s-0.4,1-0.4,1.7s0.1,1.2,0.4,1.7s0.6,0.8,1,1
			C52.3,36.2,52.7,36.3,53.2,36.3z"/>
		<path class="st1" d="M62.1,37.5c-1,0-1.7-0.2-2.4-0.7c-0.6-0.5-1-1.1-1.1-2H60c0.1,0.4,0.3,0.8,0.7,1.1c0.4,0.3,0.8,0.5,1.4,0.5
			s1-0.1,1.2-0.4c0.3-0.2,0.4-0.5,0.4-0.9c0-0.5-0.2-0.8-0.5-1s-0.8-0.3-1.5-0.4c-0.4-0.1-0.8-0.2-1.3-0.4s-0.8-0.4-1.1-0.7
			s-0.4-0.7-0.4-1.2c0-0.7,0.3-1.3,0.8-1.7s1.2-0.7,2.1-0.7c0.8,0,1.5,0.2,2.1,0.6c0.5,0.4,0.9,1,0.9,1.8h-1.3c0-0.4-0.2-0.7-0.5-1
			c-0.3-0.2-0.7-0.3-1.2-0.3s-0.8,0.1-1.1,0.3c-0.3,0.2-0.4,0.5-0.4,0.8s0.2,0.6,0.5,0.8c0.3,0.2,0.8,0.3,1.4,0.5
			c0.5,0.1,1,0.2,1.4,0.4c0.4,0.1,0.8,0.4,1.1,0.7c0.3,0.3,0.4,0.7,0.4,1.3c0,0.7-0.3,1.3-0.8,1.8C63.8,37.3,63,37.5,62.1,37.5z"/>
		<path class="st1" d="M70.6,37.5c-0.8,0-1.4-0.2-2-0.5s-1.1-0.8-1.4-1.4c-0.3-0.6-0.5-1.4-0.5-2.2s0.2-1.6,0.5-2.2s0.8-1.1,1.4-1.5
			c0.6-0.3,1.3-0.5,2.1-0.5c0.8,0,1.4,0.2,2,0.5c0.6,0.4,1,0.8,1.3,1.4c0.3,0.6,0.4,1.2,0.4,1.8c0,0.1,0,0.2,0,0.4
			c0,0.1,0,0.2,0,0.4h-6.3c0,0.6,0.2,1.1,0.4,1.5s0.6,0.7,0.9,0.9c0.4,0.2,0.8,0.3,1.2,0.3c0.6,0,1-0.1,1.4-0.4s0.7-0.6,0.8-1h1.3
			c-0.2,0.7-0.6,1.4-1.2,1.8C72.3,37.3,71.5,37.5,70.6,37.5z M70.6,30.3c-0.6,0-1.2,0.2-1.7,0.6c-0.5,0.4-0.8,1-0.9,1.7h5
			c0-0.7-0.3-1.3-0.7-1.7C71.8,30.5,71.3,30.3,70.6,30.3z"/>
		<path class="st1" d="M83.4,37.5c-1,0-1.7-0.2-2.4-0.7c-0.6-0.5-1-1.1-1.1-2h1.4c0.1,0.4,0.3,0.8,0.7,1.1c0.3,0.3,0.8,0.5,1.4,0.5
			s1-0.1,1.2-0.4c0.3-0.2,0.4-0.5,0.4-0.9c0-0.5-0.2-0.8-0.5-1c-0.4-0.2-0.8-0.3-1.5-0.4c-0.4-0.1-0.9-0.2-1.3-0.4s-0.8-0.4-1.1-0.7
			s-0.4-0.7-0.4-1.2c0-0.7,0.3-1.3,0.8-1.7s1.2-0.7,2.1-0.7c0.8,0,1.5,0.2,2.1,0.6c0.5,0.4,0.8,1,0.9,1.8h-1.3
			c-0.1-0.4-0.2-0.7-0.5-1c-0.3-0.2-0.7-0.3-1.2-0.3s-0.8,0.1-1.1,0.3c-0.3,0.2-0.4,0.5-0.4,0.8s0.2,0.6,0.5,0.8
			c0.3,0.2,0.8,0.3,1.4,0.5c0.5,0.1,1,0.2,1.4,0.4c0.4,0.1,0.8,0.4,1.1,0.7c0.3,0.3,0.4,0.7,0.4,1.3c0,0.7-0.3,1.3-0.8,1.8
			C85.1,37.3,84.4,37.5,83.4,37.5z"/>
		<path class="st1" d="M92,37.5c-0.8,0-1.4-0.2-2-0.5s-1.1-0.8-1.4-1.4c-0.3-0.6-0.5-1.4-0.5-2.2s0.2-1.6,0.5-2.2
			c0.3-0.6,0.8-1.1,1.4-1.4c0.6-0.3,1.3-0.5,2-0.5s1.4,0.2,2,0.5s1.1,0.8,1.4,1.4c0.3,0.6,0.5,1.4,0.5,2.2s-0.2,1.6-0.5,2.2
			c-0.3,0.6-0.8,1.1-1.4,1.4S92.7,37.5,92,37.5z M92,36.3c0.5,0,0.9-0.1,1.3-0.3s0.7-0.6,1-1c0.2-0.5,0.4-1,0.4-1.7
			s-0.1-1.2-0.4-1.7c-0.2-0.5-0.6-0.8-1-1s-0.8-0.3-1.3-0.3s-0.9,0.1-1.3,0.3s-0.7,0.6-1,1s-0.4,1-0.4,1.7s0.1,1.2,0.4,1.7
			c0.2,0.4,0.6,0.8,1,1C91.1,36.2,91.5,36.3,92,36.3z"/>
		<path class="st1" d="M97.8,37.3v-7.9H99l0.1,1.1c0.3-0.4,0.6-0.8,1-1s0.9-0.4,1.4-0.4c0.6,0,1.2,0.1,1.6,0.4
			c0.4,0.3,0.8,0.6,1,1.2c0.3-0.5,0.7-0.9,1.1-1.1c0.5-0.3,1-0.4,1.6-0.4c0.9,0,1.7,0.3,2.3,0.9c0.6,0.6,0.9,1.4,0.9,2.6v4.6h-1.3
			v-4.5c0-0.8-0.2-1.4-0.5-1.9c-0.3-0.4-0.8-0.6-1.4-0.6s-1.2,0.2-1.6,0.7s-0.6,1.2-0.6,2.1v4.1h-1.3v-4.5c0-0.8-0.2-1.4-0.5-1.9
			c-0.3-0.4-0.8-0.6-1.4-0.6s-1.2,0.2-1.6,0.7s-0.6,1.2-0.6,2.1v4.1L97.8,37.3L97.8,37.3z"/>
		<path class="st1" d="M115.7,37.5c-0.8,0-1.4-0.2-2-0.5s-1.1-0.8-1.4-1.4c-0.3-0.6-0.5-1.4-0.5-2.2s0.2-1.6,0.5-2.2
			s0.8-1.1,1.4-1.5c0.6-0.3,1.3-0.5,2.1-0.5c0.8,0,1.4,0.2,2,0.5c0.6,0.4,1,0.8,1.3,1.4c0.3,0.6,0.4,1.2,0.4,1.8c0,0.1,0,0.2,0,0.4
			c0,0.1,0,0.2,0,0.4h-6.3c0,0.6,0.2,1.1,0.4,1.5s0.6,0.7,0.9,0.9c0.4,0.2,0.8,0.3,1.2,0.3c0.6,0,1-0.1,1.4-0.4
			c0.4-0.3,0.7-0.6,0.8-1h1.3c-0.2,0.7-0.6,1.4-1.2,1.8C117.4,37.3,116.7,37.5,115.7,37.5z M115.7,30.3c-0.6,0-1.2,0.2-1.7,0.6
			c-0.5,0.4-0.8,1-0.9,1.7h5c0-0.7-0.3-1.3-0.7-1.7C117,30.5,116.4,30.3,115.7,30.3z"/>
		<path class="st1" d="M124.1,37.3c-0.7,0-1.3-0.2-1.7-0.5c-0.4-0.4-0.6-1-0.6-1.9v-4.4h-1.4v-1.1h1.4l0.2-1.9h1.2v1.9h2.3v1.1h-2.3
			v4.4c0,0.5,0.1,0.8,0.3,1c0.2,0.2,0.6,0.3,1.1,0.3h0.8v1.1L124.1,37.3L124.1,37.3z"/>
		<path class="st1" d="M127.2,37.3V25.8h1.3v4.9c0.3-0.5,0.7-0.9,1.1-1.1c0.5-0.3,1-0.4,1.6-0.4c0.9,0,1.6,0.3,2.2,0.9
			c0.6,0.6,0.8,1.4,0.8,2.6v4.6h-1.3v-4.5c0-1.6-0.7-2.5-2-2.5c-0.7,0-1.3,0.2-1.7,0.7c-0.5,0.5-0.7,1.2-0.7,2.1v4.1L127.2,37.3
			L127.2,37.3z"/>
		<path class="st1" d="M137.2,27.6c-0.3,0-0.5-0.1-0.7-0.3s-0.3-0.4-0.3-0.7s0.1-0.5,0.3-0.6c0.2-0.2,0.4-0.3,0.7-0.3
			s0.5,0.1,0.7,0.3s0.3,0.4,0.3,0.6c0,0.3-0.1,0.5-0.3,0.7C137.6,27.5,137.4,27.6,137.2,27.6z M136.5,37.3v-7.9h1.3v7.9H136.5z"/>
		<path class="st1" d="M140.2,37.3v-7.9h1.2l0.1,1.4c0.3-0.5,0.6-0.9,1.1-1.2s1-0.4,1.6-0.4c0.9,0,1.7,0.3,2.2,0.9
			c0.6,0.6,0.8,1.4,0.8,2.6v4.6h-1.3v-4.5c0-1.6-0.7-2.5-2.1-2.5c-0.7,0-1.2,0.2-1.7,0.7c-0.4,0.5-0.7,1.2-0.7,2.1v4.1L140.2,37.3
			L140.2,37.3z"/>
		<path class="st1" d="M152.5,34.8c-0.4,0-0.9-0.1-1.2-0.2l-0.8,0.8c0.1,0.1,0.3,0.2,0.4,0.2c0.2,0.1,0.4,0.1,0.8,0.2
			c0.3,0.1,0.8,0.1,1.4,0.2c1.1,0.1,1.8,0.3,2.3,0.7s0.7,1,0.7,1.6c0,0.5-0.1,0.9-0.4,1.3c-0.2,0.4-0.6,0.8-1.1,1
			c-0.5,0.3-1.2,0.4-2,0.4c-0.7,0-1.4-0.1-1.9-0.3c-0.6-0.2-1-0.5-1.3-0.8c-0.3-0.4-0.5-0.9-0.5-1.4c0-0.3,0.1-0.6,0.2-1
			c0.2-0.3,0.5-0.7,0.9-1c-0.2-0.1-0.4-0.2-0.6-0.3c-0.2-0.1-0.3-0.2-0.5-0.4v-0.4l1.4-1.3c-0.6-0.5-0.9-1.2-0.9-2.1
			c0-0.5,0.1-1,0.4-1.4c0.2-0.4,0.6-0.8,1.1-1s1-0.4,1.7-0.4c0.5,0,0.9,0.1,1.2,0.2h2.9v1l-1.5,0.1c0.3,0.5,0.5,1,0.5,1.5
			c0,0.5-0.1,1-0.4,1.4c-0.2,0.4-0.6,0.8-1.1,1C153.7,34.7,153.1,34.8,152.5,34.8z M150.1,38.3c0,0.5,0.2,0.9,0.7,1.2s1,0.4,1.7,0.4
			s1.2-0.1,1.6-0.4c0.4-0.3,0.6-0.7,0.6-1.1c0-0.3-0.1-0.6-0.4-0.9c-0.3-0.2-0.8-0.4-1.5-0.4c-0.6,0-1.1-0.1-1.5-0.2
			c-0.4,0.2-0.7,0.5-0.9,0.8C150.2,37.9,150.1,38.1,150.1,38.3z M152.5,33.7c0.6,0,1-0.1,1.4-0.4c0.3-0.3,0.5-0.7,0.5-1.3
			c0-0.5-0.2-1-0.5-1.3s-0.8-0.4-1.4-0.4c-0.6,0-1,0.1-1.4,0.4s-0.5,0.7-0.5,1.3c0,0.5,0.2,1,0.5,1.3
			C151.4,33.6,151.9,33.7,152.5,33.7z"/>
		<path class="st1" d="M20.3,62.8l2-4.3h-0.5l-3.1-7.2h1.5l2.6,6.2l2.8-6.2H27l-5.3,11.5H20.3z"/>
		<path class="st1" d="M31.2,59.5c-0.8,0-1.4-0.2-2-0.5c-0.6-0.3-1.1-0.8-1.4-1.4c-0.3-0.6-0.5-1.4-0.5-2.2s0.2-1.6,0.5-2.2
			c0.3-0.6,0.8-1.1,1.4-1.4c0.6-0.3,1.3-0.5,2-0.5c0.8,0,1.4,0.2,2,0.5s1.1,0.8,1.4,1.4c0.3,0.6,0.5,1.4,0.5,2.2s-0.2,1.6-0.5,2.2
			c-0.4,0.6-0.8,1.1-1.4,1.4C32.6,59.3,31.9,59.5,31.2,59.5z M31.2,58.3c0.5,0,0.9-0.1,1.3-0.3c0.4-0.2,0.7-0.6,1-1
			c0.2-0.5,0.4-1,0.4-1.7s-0.1-1.2-0.4-1.7c-0.2-0.4-0.6-0.8-1-1s-0.8-0.3-1.3-0.3s-0.9,0.1-1.3,0.3c-0.4,0.2-0.7,0.6-1,1
			s-0.4,1-0.4,1.7s0.1,1.2,0.4,1.7s0.6,0.8,1,1C30.3,58.2,30.7,58.3,31.2,58.3z"/>
		<path class="st1" d="M39.9,59.5c-0.9,0-1.7-0.3-2.2-0.9c-0.5-0.6-0.8-1.4-0.8-2.6v-4.6h1.3v4.5c0,1.6,0.7,2.5,2,2.5
			c0.7,0,1.3-0.2,1.7-0.7c0.5-0.5,0.7-1.2,0.7-2.1v-4.1h1.3v7.9h-1.2L42.6,58c-0.2,0.5-0.6,0.9-1.1,1.2
			C41.1,59.4,40.5,59.5,39.9,59.5z"/>
		<path class="st1" d="M54.1,59.5c-0.8,0-1.4-0.2-2-0.5s-1.1-0.8-1.4-1.5c-0.3-0.6-0.5-1.4-0.5-2.2s0.2-1.6,0.5-2.2
			c0.4-0.6,0.8-1.1,1.4-1.5c0.6-0.3,1.3-0.5,2-0.5c0.9,0,1.7,0.2,2.4,0.7s1,1.2,1.2,2h-1.4c-0.1-0.5-0.4-0.9-0.8-1.1
			c-0.4-0.3-0.9-0.4-1.5-0.4c-0.4,0-0.9,0.1-1.3,0.3s-0.7,0.6-1,1c-0.2,0.4-0.4,1-0.4,1.7s0.1,1.2,0.4,1.7c0.2,0.4,0.6,0.8,1,1
			s0.8,0.3,1.3,0.3c0.6,0,1-0.1,1.5-0.4s0.7-0.7,0.8-1.2h1.4c-0.2,0.8-0.6,1.5-1.2,2S55,59.5,54.1,59.5z"/>
		<path class="st1" d="M62.2,59.5c-0.7,0-1.2-0.1-1.7-0.3c-0.4-0.2-0.8-0.5-1-0.9s-0.3-0.8-0.3-1.2c0-0.8,0.3-1.4,0.9-1.9
			c0.6-0.4,1.5-0.7,2.5-0.7h2.1v-0.1c0-0.7-0.2-1.2-0.5-1.6c-0.4-0.4-0.9-0.5-1.5-0.5c-0.5,0-1,0.1-1.3,0.4
			c-0.4,0.3-0.6,0.6-0.7,1.1h-1.4c0-0.6,0.2-1.1,0.6-1.5c0.3-0.4,0.8-0.7,1.3-0.9s1-0.3,1.6-0.3c1.1,0,1.9,0.3,2.5,0.9
			c0.6,0.6,0.8,1.4,0.8,2.4v4.9h-1.2l-0.1-1.4c-0.2,0.5-0.6,0.8-1,1.1C63.5,59.3,62.9,59.5,62.2,59.5z M62.4,58.4
			c0.5,0,0.9-0.1,1.3-0.4c0.4-0.3,0.7-0.6,0.8-1c0.2-0.4,0.3-0.9,0.3-1.3l0,0h-2c-0.8,0-1.3,0.1-1.7,0.4c-0.3,0.3-0.5,0.6-0.5,1
			s0.2,0.8,0.5,1C61.4,58.2,61.8,58.4,62.4,58.4z"/>
		<path class="st1" d="M68.2,59.3v-7.9h1.2l0.1,1.4c0.3-0.5,0.6-0.9,1.1-1.2s1-0.4,1.6-0.4c0.9,0,1.7,0.3,2.2,0.9
			c0.6,0.6,0.8,1.4,0.8,2.6v4.6h-1.3v-4.5c0-1.6-0.7-2.5-2-2.5c-0.7,0-1.2,0.2-1.7,0.7c-0.4,0.5-0.7,1.2-0.7,2.1v4.1L68.2,59.3
			L68.2,59.3z"/>
		<path class="st1" d="M85.2,59.5c-0.8,0-1.5-0.2-2.1-0.5c-0.6-0.4-1.1-0.9-1.4-1.5s-0.5-1.3-0.5-2.1s0.2-1.5,0.5-2.1
			s0.8-1.1,1.4-1.5s1.3-0.5,2.1-0.5c0.7,0,1.2,0.1,1.7,0.4c0.5,0.3,0.9,0.6,1.2,1.1v-4.9h1.3v11.5h-1.2l-0.1-1.3
			c-0.3,0.4-0.6,0.7-1.1,1C86.5,59.3,85.9,59.5,85.2,59.5z M85.3,58.3c0.5,0,1-0.1,1.4-0.4c0.4-0.2,0.7-0.6,1-1
			c0.2-0.5,0.3-1,0.3-1.6s-0.1-1.1-0.3-1.6c-0.2-0.4-0.5-0.8-1-1c-0.4-0.2-0.9-0.4-1.4-0.4s-1,0.1-1.4,0.4c-0.4,0.2-0.7,0.6-1,1
			c-0.2,0.5-0.3,1-0.3,1.6s0.1,1.1,0.3,1.6c0.2,0.5,0.6,0.8,1,1C84.3,58.2,84.8,58.3,85.3,58.3z"/>
		<path class="st1" d="M95.3,59.5c-0.8,0-1.4-0.2-2-0.5s-1.1-0.8-1.4-1.4c-0.4-0.6-0.5-1.4-0.5-2.2s0.2-1.6,0.5-2.2
			c0.4-0.6,0.8-1.1,1.4-1.4c0.6-0.3,1.3-0.5,2-0.5c0.8,0,1.4,0.2,2,0.5s1.1,0.8,1.4,1.4c0.4,0.6,0.5,1.4,0.5,2.2S99,57,98.7,57.6
			c-0.3,0.6-0.8,1.1-1.4,1.4S96,59.5,95.3,59.5z M95.3,58.3c0.5,0,0.9-0.1,1.3-0.3s0.7-0.6,1-1c0.2-0.5,0.4-1,0.4-1.7
			s-0.1-1.2-0.4-1.7c-0.2-0.4-0.6-0.8-0.9-1c-0.4-0.2-0.8-0.3-1.3-0.3s-0.9,0.1-1.3,0.3s-0.7,0.6-1,1s-0.4,1-0.4,1.7
			s0.1,1.2,0.4,1.7s0.6,0.8,0.9,1C94.4,58.2,94.8,58.3,95.3,58.3z"/>
		<path class="st1" d="M108.9,59.5c-0.8,0-1.4-0.2-2-0.5s-1.1-0.8-1.4-1.4c-0.3-0.6-0.5-1.4-0.5-2.2s0.2-1.6,0.5-2.2
			c0.3-0.6,0.8-1.1,1.4-1.5c0.6-0.3,1.3-0.5,2.1-0.5c0.8,0,1.4,0.2,2,0.5c0.6,0.4,1,0.8,1.3,1.4c0.3,0.6,0.5,1.2,0.5,1.8
			c0,0.1,0,0.2,0,0.4c0,0.1,0,0.2,0,0.4h-6.3c0,0.6,0.2,1.1,0.4,1.5s0.6,0.7,0.9,0.9c0.4,0.2,0.8,0.3,1.2,0.3c0.6,0,1-0.1,1.4-0.4
			c0.4-0.3,0.6-0.6,0.8-1h1.3c-0.2,0.7-0.6,1.4-1.2,1.8C110.6,59.3,109.9,59.5,108.9,59.5z M108.9,52.3c-0.6,0-1.2,0.2-1.7,0.6
			c-0.5,0.4-0.8,1-0.9,1.7h5c0-0.7-0.3-1.3-0.7-1.7C110.2,52.5,109.6,52.3,108.9,52.3z"/>
		<path class="st1" d="M117.1,59.5c-0.7,0-1.2-0.1-1.6-0.3s-0.8-0.5-1-0.9s-0.3-0.8-0.3-1.2c0-0.8,0.3-1.4,0.9-1.9
			c0.6-0.4,1.5-0.7,2.5-0.7h2.1v-0.1c0-0.7-0.2-1.2-0.5-1.6c-0.4-0.4-0.8-0.5-1.5-0.5c-0.5,0-1,0.1-1.4,0.4
			c-0.4,0.3-0.6,0.6-0.7,1.1h-1.4c0.1-0.6,0.2-1.1,0.6-1.5c0.3-0.4,0.8-0.7,1.3-0.9s1-0.3,1.6-0.3c1.1,0,1.9,0.3,2.5,0.9
			c0.6,0.6,0.8,1.4,0.8,2.4v4.9h-1.2l-0.1-1.4c-0.2,0.5-0.6,0.8-1,1.1C118.4,59.3,117.8,59.5,117.1,59.5z M117.3,58.4
			c0.5,0,0.9-0.1,1.3-0.4c0.4-0.3,0.7-0.6,0.8-1s0.3-0.9,0.3-1.3l0,0h-2c-0.8,0-1.4,0.1-1.7,0.4c-0.3,0.3-0.5,0.6-0.5,1
			s0.2,0.8,0.5,1C116.3,58.2,116.7,58.4,117.3,58.4z"/>
		<path class="st1" d="M126.8,59.5c-0.8,0-1.4-0.2-2-0.5c-0.6-0.3-1.1-0.8-1.4-1.5c-0.3-0.6-0.5-1.4-0.5-2.2s0.2-1.6,0.5-2.2
			c0.3-0.6,0.8-1.1,1.4-1.5c0.6-0.3,1.3-0.5,2-0.5c0.9,0,1.7,0.2,2.4,0.7c0.6,0.5,1.1,1.2,1.2,2H129c-0.1-0.5-0.4-0.9-0.8-1.1
			c-0.4-0.3-0.9-0.4-1.5-0.4c-0.4,0-0.9,0.1-1.3,0.3s-0.7,0.6-1,1c-0.2,0.4-0.4,1-0.4,1.7s0.1,1.2,0.4,1.7c0.2,0.5,0.6,0.8,1,1
			s0.8,0.3,1.3,0.3c0.6,0,1-0.1,1.5-0.4s0.7-0.7,0.8-1.2h1.4c-0.2,0.8-0.6,1.5-1.2,2C128.5,59.2,127.7,59.5,126.8,59.5z"/>
		<path class="st1" d="M132.2,59.3V47.8h1.3v4.9c0.3-0.5,0.6-0.9,1.1-1.1c0.5-0.3,1-0.4,1.6-0.4c0.9,0,1.7,0.3,2.2,0.9
			c0.6,0.6,0.8,1.4,0.8,2.6v4.6h-1.3v-4.5c0-1.6-0.7-2.5-2-2.5c-0.7,0-1.3,0.2-1.7,0.7c-0.5,0.5-0.7,1.2-0.7,2.1v4.1L132.2,59.3
			L132.2,59.3z"/>
		<path class="st1" d="M149.2,59.5c-0.8,0-1.5-0.2-2.1-0.5c-0.6-0.4-1.1-0.9-1.4-1.5s-0.5-1.3-0.5-2.1s0.2-1.5,0.5-2.1
			s0.8-1.1,1.4-1.5c0.6-0.4,1.3-0.5,2.1-0.5c0.6,0,1.2,0.1,1.7,0.4c0.5,0.3,0.9,0.6,1.2,1.1v-4.9h1.3v11.5h-1.2l-0.1-1.3
			c-0.3,0.4-0.6,0.7-1.1,1C150.6,59.3,149.9,59.5,149.2,59.5z M149.4,58.3c0.5,0,1-0.1,1.4-0.4s0.7-0.6,1-1s0.3-1,0.3-1.6
			s-0.1-1.1-0.3-1.6c-0.2-0.4-0.6-0.8-1-1s-0.9-0.4-1.4-0.4s-1,0.1-1.4,0.4c-0.4,0.2-0.7,0.6-1,1c-0.2,0.5-0.3,1-0.3,1.6
			s0.1,1.1,0.3,1.6s0.6,0.8,1,1C148.4,58.2,148.8,58.3,149.4,58.3z"/>
		<path class="st1" d="M158.3,59.5c-0.7,0-1.2-0.1-1.6-0.3c-0.4-0.2-0.8-0.5-1-0.9s-0.3-0.8-0.3-1.2c0-0.8,0.3-1.4,0.9-1.9
			c0.6-0.4,1.5-0.7,2.5-0.7h2.1v-0.1c0-0.7-0.2-1.2-0.5-1.6c-0.4-0.4-0.8-0.5-1.5-0.5c-0.5,0-1,0.1-1.4,0.4s-0.6,0.6-0.7,1.1h-1.4
			c0.1-0.6,0.2-1.1,0.6-1.5c0.3-0.4,0.8-0.7,1.3-0.9s1-0.3,1.6-0.3c1.1,0,1.9,0.3,2.5,0.9c0.6,0.6,0.8,1.4,0.8,2.4v4.9H161l-0.1-1.4
			c-0.2,0.5-0.6,0.8-1,1.1C159.6,59.3,159,59.5,158.3,59.5z M158.5,58.4c0.5,0,0.9-0.1,1.3-0.4c0.4-0.3,0.6-0.6,0.8-1
			s0.3-0.9,0.3-1.3l0,0h-2c-0.8,0-1.4,0.1-1.7,0.4c-0.3,0.3-0.5,0.6-0.5,1s0.1,0.8,0.5,1C157.5,58.2,158,58.4,158.5,58.4z"/>
		<path class="st1" d="M164.9,62.8l2-4.3h-0.5l-3.1-7.2h1.5l2.6,6.2l2.8-6.2h1.4l-5.2,11.5H164.9z"/>
		<path class="st1" d="M22.6,81.3c-0.7,0-1.3-0.2-1.7-0.5c-0.4-0.4-0.6-1-0.6-1.9v-4.4h-1.4v-1.1h1.4l0.2-1.9h1.2v1.9H24v1.1h-2.3
			v4.4c0,0.5,0.1,0.8,0.3,1s0.6,0.3,1.1,0.3h0.8v1.1L22.6,81.3L22.6,81.3z"/>
		<path class="st1" d="M29,81.5c-0.7,0-1.4-0.2-2-0.5s-1.1-0.8-1.4-1.4c-0.3-0.6-0.5-1.4-0.5-2.2s0.2-1.6,0.5-2.2
			c0.4-0.6,0.8-1.1,1.4-1.4c0.6-0.3,1.3-0.5,2-0.5s1.4,0.2,2,0.5s1.1,0.8,1.4,1.4c0.3,0.6,0.5,1.4,0.5,2.2s-0.2,1.6-0.5,2.2
			c-0.3,0.6-0.8,1.1-1.4,1.4C30.4,81.3,29.7,81.5,29,81.5z M29,80.3c0.5,0,0.9-0.1,1.3-0.3c0.4-0.2,0.7-0.6,1-1
			c0.2-0.5,0.4-1,0.4-1.7s-0.1-1.2-0.4-1.7c-0.2-0.5-0.6-0.8-0.9-1c-0.4-0.2-0.8-0.3-1.3-0.3s-0.9,0.1-1.3,0.3s-0.7,0.6-1,1
			s-0.4,1-0.4,1.7s0.1,1.2,0.4,1.7c0.2,0.4,0.6,0.8,0.9,1C28.1,80.2,28.6,80.3,29,80.3z"/>
		<path class="st1" d="M39.9,71.6c-0.3,0-0.5-0.1-0.7-0.3s-0.3-0.4-0.3-0.7s0.1-0.5,0.3-0.6c0.2-0.2,0.4-0.3,0.7-0.3
			s0.5,0.1,0.7,0.3s0.3,0.4,0.3,0.6c0,0.3-0.1,0.5-0.3,0.7C40.4,71.5,40.2,71.6,39.9,71.6z M39.2,81.3v-7.9h1.3v7.9H39.2z"/>
		<path class="st1" d="M42.9,81.3v-7.9h1.2l0.1,1.4c0.3-0.5,0.6-0.9,1.1-1.2s1-0.4,1.6-0.4c0.9,0,1.7,0.3,2.2,0.9
			c0.6,0.6,0.8,1.4,0.8,2.6v4.6h-1.2v-4.5c0-1.6-0.7-2.5-2-2.5c-0.7,0-1.2,0.2-1.7,0.7c-0.4,0.5-0.7,1.2-0.7,2.1v4.1L42.9,81.3
			L42.9,81.3z"/>
		<path class="st1" d="M55.7,81.5c-0.8,0-1.4-0.2-2-0.5s-1.1-0.8-1.4-1.5c-0.3-0.6-0.5-1.4-0.5-2.2s0.2-1.6,0.5-2.2
			c0.3-0.6,0.8-1.1,1.4-1.5c0.6-0.3,1.3-0.5,2-0.5c0.9,0,1.7,0.2,2.4,0.7s1.1,1.2,1.2,2h-1.4c-0.1-0.5-0.4-0.9-0.8-1.1
			c-0.4-0.3-0.9-0.4-1.5-0.4c-0.4,0-0.9,0.1-1.3,0.3c-0.4,0.2-0.7,0.6-1,1c-0.2,0.4-0.4,1-0.4,1.7s0.1,1.2,0.4,1.7
			c0.2,0.4,0.6,0.8,1,1s0.8,0.3,1.3,0.3c0.6,0,1-0.1,1.5-0.4c0.4-0.3,0.7-0.7,0.8-1.2h1.4c-0.2,0.8-0.6,1.5-1.2,2
			C57.5,81.2,56.7,81.5,55.7,81.5z"/>
		<path class="st1" d="M61.2,81.3v-7.9h1.2l0.1,1.5c0.2-0.5,0.6-0.9,1.1-1.2s1.1-0.5,1.9-0.5v1.4h-0.4c-0.5,0-0.9,0.1-1.3,0.2
			c-0.4,0.2-0.7,0.5-0.9,0.8c-0.2,0.4-0.4,0.9-0.4,1.6v4L61.2,81.3L61.2,81.3z"/>
		<path class="st1" d="M70.3,81.5c-0.8,0-1.4-0.2-2-0.5s-1.1-0.8-1.4-1.4c-0.3-0.6-0.5-1.4-0.5-2.2s0.2-1.6,0.5-2.2
			c0.3-0.6,0.8-1.1,1.4-1.5c0.6-0.3,1.3-0.5,2.1-0.5c0.8,0,1.4,0.2,2,0.5c0.6,0.4,1,0.8,1.3,1.4c0.3,0.6,0.5,1.2,0.5,1.8
			c0,0.1,0,0.2,0,0.4s0,0.2,0,0.4h-6.5c0,0.6,0.2,1.1,0.4,1.5s0.6,0.7,0.9,0.9c0.4,0.2,0.8,0.3,1.2,0.3c0.6,0,1-0.1,1.4-0.4
			c0.4-0.2,0.7-0.6,0.8-1h1.3c-0.2,0.7-0.6,1.4-1.2,1.8C72,81.3,71.2,81.5,70.3,81.5z M70.3,74.3c-0.6,0-1.2,0.2-1.7,0.6
			c-0.5,0.4-0.8,1-0.9,1.7h5c0-0.7-0.3-1.3-0.7-1.7C71.5,74.5,70.9,74.3,70.3,74.3z"/>
		<path class="st1" d="M78.4,81.5c-0.7,0-1.2-0.1-1.7-0.3c-0.4-0.2-0.8-0.5-1-0.9s-0.3-0.8-0.3-1.2c0-0.8,0.3-1.4,0.9-1.9
			c0.6-0.4,1.5-0.7,2.5-0.7h2.1v-0.1c0-0.7-0.2-1.2-0.5-1.6c-0.4-0.4-0.8-0.5-1.5-0.5c-0.5,0-1,0.1-1.3,0.4s-0.6,0.6-0.7,1.1h-1.4
			c0-0.6,0.2-1.1,0.6-1.5c0.3-0.4,0.7-0.7,1.3-0.9s1-0.3,1.6-0.3c1.1,0,1.9,0.3,2.5,0.9c0.6,0.6,0.8,1.4,0.8,2.4v4.9h-1.2L81,79.9
			c-0.2,0.5-0.5,0.8-1,1.1C79.7,81.3,79.2,81.5,78.4,81.5z M78.6,80.4c0.5,0,1-0.1,1.3-0.4c0.4-0.3,0.7-0.6,0.8-1s0.3-0.9,0.3-1.3
			l0,0h-2c-0.8,0-1.4,0.1-1.7,0.4c-0.3,0.3-0.5,0.6-0.5,1s0.2,0.8,0.5,1C77.7,80.2,78.1,80.4,78.6,80.4z"/>
		<path class="st1" d="M87.5,81.5c-1,0-1.7-0.2-2.4-0.7c-0.6-0.5-1-1.1-1.1-2h1.4c0.1,0.4,0.3,0.8,0.7,1.1c0.3,0.3,0.8,0.5,1.4,0.5
			s1-0.1,1.2-0.4c0.3-0.2,0.4-0.5,0.4-0.9c0-0.5-0.2-0.8-0.5-1s-0.8-0.3-1.5-0.4c-0.4-0.1-0.8-0.2-1.3-0.4s-0.8-0.4-1.1-0.7
			s-0.4-0.7-0.4-1.2c0-0.7,0.3-1.3,0.8-1.7s1.2-0.7,2.1-0.7c0.8,0,1.5,0.2,2.1,0.6c0.5,0.4,0.8,1,0.9,1.8h-1.3c0-0.4-0.2-0.7-0.5-1
			c-0.3-0.2-0.7-0.3-1.2-0.3s-0.8,0.1-1.1,0.3c-0.3,0.2-0.4,0.5-0.4,0.8s0.2,0.6,0.5,0.8s0.8,0.3,1.4,0.5c0.5,0.1,1,0.2,1.4,0.4
			c0.4,0.1,0.8,0.4,1.1,0.7c0.3,0.3,0.4,0.7,0.4,1.3c0,0.7-0.3,1.3-0.8,1.8C89.2,81.3,88.4,81.5,87.5,81.5z"/>
		<path class="st1" d="M96,81.5c-0.8,0-1.4-0.2-2-0.5s-1-0.8-1.4-1.4c-0.3-0.6-0.5-1.4-0.5-2.2s0.2-1.6,0.5-2.2s0.8-1.1,1.4-1.5
			c0.6-0.3,1.3-0.5,2.1-0.5c0.8,0,1.4,0.2,2,0.5c0.6,0.4,1,0.8,1.3,1.4c0.3,0.6,0.4,1.2,0.4,1.8c0,0.1,0,0.2,0,0.4
			c0,0.1,0,0.2,0,0.4h-6.3c0,0.6,0.2,1.1,0.4,1.5s0.6,0.7,0.9,0.9c0.4,0.2,0.8,0.3,1.2,0.3c0.5,0,1-0.1,1.4-0.4
			c0.4-0.3,0.7-0.6,0.8-1h1.3c-0.2,0.7-0.6,1.4-1.2,1.8C97.7,81.3,97,81.5,96,81.5z M96,74.3c-0.6,0-1.2,0.2-1.7,0.6
			c-0.5,0.4-0.8,1-0.9,1.7h5c0-0.7-0.3-1.3-0.7-1.7C97.3,74.5,96.7,74.3,96,74.3z"/>
		<path class="st1" d="M106.7,84.8l2-4.3h-0.5l-3.1-7.2h1.5l2.6,6.2l2.8-6.2h1.4l-5.2,11.5H106.7z"/>
		<path class="st1" d="M117.6,81.5c-0.8,0-1.4-0.2-2-0.5s-1.1-0.8-1.4-1.4c-0.3-0.6-0.5-1.4-0.5-2.2s0.2-1.6,0.5-2.2
			c0.4-0.6,0.8-1.1,1.4-1.4s1.3-0.5,2-0.5c0.8,0,1.4,0.2,2,0.5s1.1,0.8,1.4,1.4c0.3,0.6,0.5,1.4,0.5,2.2s-0.2,1.6-0.5,2.2
			c-0.3,0.6-0.8,1.1-1.4,1.4S118.3,81.5,117.6,81.5z M117.6,80.3c0.5,0,0.9-0.1,1.3-0.3s0.7-0.6,1-1c0.2-0.5,0.4-1,0.4-1.7
			s-0.1-1.2-0.4-1.7s-0.6-0.8-0.9-1c-0.4-0.2-0.8-0.3-1.3-0.3s-0.9,0.1-1.3,0.3s-0.7,0.6-1,1s-0.4,1-0.4,1.7s0.1,1.2,0.4,1.7
			s0.6,0.8,0.9,1C116.7,80.2,117.1,80.3,117.6,80.3z"/>
		<path class="st1" d="M126.3,81.5c-0.9,0-1.7-0.3-2.2-0.9c-0.6-0.6-0.8-1.4-0.8-2.6v-4.6h1.3v4.5c0,1.6,0.7,2.5,2,2.5
			c0.7,0,1.3-0.2,1.7-0.7s0.7-1.2,0.7-2.1v-4.1h1.3v7.9h-1.2L129,80c-0.2,0.5-0.6,0.9-1.1,1.2C127.4,81.4,126.9,81.5,126.3,81.5z"/>
		<path class="st1" d="M132.6,81.3v-7.9h1.2l0.1,1.5c0.2-0.5,0.6-0.9,1.1-1.2s1.1-0.5,1.9-0.5v1.4h-0.4c-0.5,0-0.9,0.1-1.3,0.2
			c-0.4,0.2-0.7,0.5-0.9,0.8c-0.2,0.4-0.4,0.9-0.4,1.6v4L132.6,81.3L132.6,81.3z"/>
		<path class="st1" d="M19.4,106.8V95.3h1.2l0.1,1.3c0.3-0.4,0.6-0.7,1.1-1s1.1-0.5,1.8-0.5c0.8,0,1.5,0.2,2.1,0.5
			c0.6,0.4,1,0.9,1.4,1.5c0.3,0.6,0.5,1.3,0.5,2.1c0,0.8-0.2,1.5-0.5,2.1s-0.8,1.1-1.4,1.5s-1.3,0.5-2.1,0.5c-0.6,0-1.2-0.1-1.7-0.4
			s-0.9-0.6-1.2-1.1v4.9h-1.3V106.8z M23.5,102.3c0.5,0,1-0.1,1.4-0.4s0.7-0.6,1-1s0.3-1,0.3-1.6s-0.1-1.1-0.3-1.6
			c-0.2-0.4-0.6-0.8-1-1s-0.9-0.4-1.4-0.4s-1,0.1-1.4,0.4c-0.4,0.2-0.7,0.6-1,1c-0.2,0.5-0.3,1-0.3,1.6s0.1,1.1,0.3,1.6s0.5,0.8,1,1
			C22.5,102.2,23,102.3,23.5,102.3z"/>
		<path class="st1" d="M29.5,103.3V91.8h1.3v4.9c0.3-0.5,0.7-0.9,1.1-1.1c0.5-0.3,1-0.4,1.6-0.4c0.9,0,1.7,0.3,2.2,0.9
			s0.8,1.4,0.8,2.6v4.6h-1.3v-4.5c0-1.6-0.7-2.5-2-2.5c-0.7,0-1.3,0.2-1.7,0.7c-0.5,0.5-0.7,1.2-0.7,2.1v4.1L29.5,103.3L29.5,103.3z
			"/>
		<path class="st1" d="M39.2,106.8l2-4.3h-0.5l-3.2-7.2H39l2.6,6.2l2.8-6.2h1.4l-5.2,11.5H39.2z"/>
		<path class="st1" d="M49.8,103.5c-0.9,0-1.7-0.2-2.4-0.7c-0.6-0.5-1-1.1-1.1-2h1.4c0.1,0.4,0.3,0.8,0.7,1.1
			c0.3,0.3,0.8,0.5,1.4,0.5c0.6,0,1-0.1,1.2-0.4c0.3-0.2,0.4-0.5,0.4-0.9c0-0.5-0.2-0.8-0.5-1s-0.8-0.3-1.5-0.4
			c-0.4-0.1-0.9-0.2-1.3-0.4c-0.4-0.2-0.8-0.4-1.1-0.7c-0.3-0.3-0.4-0.7-0.4-1.2c0-0.7,0.3-1.3,0.8-1.7c0.5-0.4,1.2-0.7,2.1-0.7
			c0.8,0,1.5,0.2,2.1,0.6c0.5,0.4,0.8,1,0.9,1.8h-1.3c-0.1-0.4-0.2-0.7-0.5-1c-0.3-0.2-0.7-0.3-1.2-0.3s-0.8,0.1-1.1,0.3
			c-0.3,0.2-0.4,0.5-0.4,0.8s0.2,0.6,0.5,0.8c0.3,0.2,0.8,0.3,1.4,0.5c0.5,0.1,1,0.2,1.4,0.4s0.8,0.4,1.1,0.7
			c0.3,0.3,0.4,0.7,0.4,1.3c0,0.7-0.3,1.3-0.8,1.8C51.5,103.3,50.8,103.5,49.8,103.5z"/>
		<path class="st1" d="M55.6,93.6c-0.3,0-0.5-0.1-0.7-0.3c-0.2-0.2-0.3-0.4-0.3-0.7c0-0.3,0.1-0.5,0.3-0.6c0.2-0.2,0.4-0.3,0.7-0.3
			s0.5,0.1,0.7,0.3c0.2,0.2,0.3,0.4,0.3,0.6c0,0.3-0.1,0.5-0.3,0.7C56.1,93.5,55.9,93.6,55.6,93.6z M55,103.3v-7.9h1.3v7.9H55z"/>
		<path class="st1" d="M62.3,103.5c-0.8,0-1.4-0.2-2-0.5s-1.1-0.8-1.4-1.5c-0.3-0.6-0.5-1.4-0.5-2.2c0-0.8,0.2-1.6,0.5-2.2
			s0.8-1.1,1.4-1.5c0.6-0.3,1.3-0.5,2-0.5c0.9,0,1.7,0.2,2.4,0.7c0.7,0.5,1.1,1.2,1.2,2h-1.4c-0.1-0.5-0.4-0.9-0.8-1.1
			c-0.4-0.3-0.9-0.4-1.5-0.4c-0.4,0-0.9,0.1-1.3,0.3c-0.4,0.2-0.7,0.6-1,1c-0.2,0.4-0.4,1-0.4,1.7s0.1,1.2,0.4,1.7
			c0.2,0.4,0.6,0.8,1,1s0.8,0.3,1.3,0.3c0.6,0,1-0.1,1.5-0.4c0.4-0.3,0.7-0.7,0.8-1.2h1.4c-0.2,0.8-0.6,1.5-1.2,2
			C64,103.2,63.2,103.5,62.3,103.5z"/>
		<path class="st1" d="M70.4,103.5c-0.7,0-1.2-0.1-1.7-0.3c-0.4-0.2-0.8-0.5-1-0.9s-0.3-0.8-0.3-1.2c0-0.8,0.3-1.4,0.9-1.9
			c0.6-0.4,1.5-0.7,2.5-0.7h2.1v-0.1c0-0.7-0.2-1.2-0.5-1.6c-0.4-0.4-0.9-0.5-1.5-0.5c-0.5,0-1,0.1-1.3,0.4
			c-0.4,0.3-0.6,0.6-0.7,1.1h-1.4c0-0.6,0.2-1.1,0.6-1.5c0.3-0.4,0.8-0.7,1.3-0.9c0.5-0.2,1-0.3,1.6-0.3c1.1,0,1.9,0.3,2.5,0.9
			s0.8,1.4,0.8,2.4v4.9h-1.2l-0.1-1.4c-0.2,0.5-0.6,0.8-1,1.1C71.7,103.3,71.1,103.5,70.4,103.5z M70.6,102.4c0.5,0,0.9-0.1,1.3-0.4
			s0.7-0.6,0.8-1c0.2-0.4,0.3-0.9,0.3-1.3l0,0h-2c-0.8,0-1.3,0.1-1.7,0.4c-0.3,0.3-0.5,0.6-0.5,1s0.2,0.8,0.5,1
			C69.6,102.2,70,102.4,70.6,102.4z"/>
		<path class="st1" d="M76.4,103.3V91.8h1.3v11.5H76.4z"/>
		<path class="st1" d="M86.8,103.5c-0.7,0-1.2-0.1-1.7-0.3c-0.4-0.2-0.8-0.5-1-0.9s-0.3-0.8-0.3-1.2c0-0.8,0.3-1.4,0.9-1.9
			c0.6-0.4,1.5-0.7,2.5-0.7h2.1v-0.1c0-0.7-0.2-1.2-0.5-1.6c-0.4-0.4-0.8-0.5-1.5-0.5c-0.5,0-1,0.1-1.3,0.4
			c-0.4,0.3-0.6,0.6-0.7,1.1h-1.4c0.1-0.6,0.2-1.1,0.6-1.5c0.3-0.4,0.8-0.7,1.3-0.9c0.5-0.2,1-0.3,1.6-0.3c1.1,0,1.9,0.3,2.5,0.9
			s0.8,1.4,0.8,2.4v4.9h-1.2l-0.1-1.4c-0.2,0.5-0.5,0.8-1,1.1C88.1,103.3,87.6,103.5,86.8,103.5z M87,102.4c0.5,0,1-0.1,1.3-0.4
			c0.4-0.3,0.7-0.6,0.8-1c0.2-0.4,0.3-0.9,0.3-1.3l0,0h-2c-0.8,0-1.3,0.1-1.7,0.4c-0.3,0.3-0.5,0.6-0.5,1s0.2,0.8,0.5,1
			C86.1,102.2,86.5,102.4,87,102.4z"/>
		<path class="st1" d="M96.5,103.5c-0.8,0-1.4-0.2-2-0.5s-1.1-0.8-1.4-1.5c-0.3-0.6-0.5-1.4-0.5-2.2c0-0.8,0.2-1.6,0.5-2.2
			s0.8-1.1,1.4-1.5c0.6-0.3,1.3-0.5,2-0.5c0.9,0,1.7,0.2,2.4,0.7c0.6,0.5,1,1.2,1.2,2h-1.4c-0.1-0.5-0.4-0.9-0.8-1.1
			c-0.4-0.3-0.9-0.4-1.5-0.4c-0.5,0-0.9,0.1-1.3,0.3c-0.4,0.2-0.7,0.6-1,1c-0.2,0.4-0.4,1-0.4,1.7s0.1,1.2,0.4,1.7
			c0.2,0.4,0.6,0.8,1,1s0.8,0.3,1.3,0.3s1-0.1,1.5-0.4s0.7-0.7,0.8-1.2h1.4c-0.2,0.8-0.6,1.5-1.2,2
			C98.2,103.2,97.4,103.5,96.5,103.5z"/>
		<path class="st1" d="M104.9,103.3c-0.7,0-1.3-0.2-1.7-0.5c-0.4-0.4-0.6-1-0.6-1.9v-4.4h-1.4v-1.1h1.4l0.2-1.9h1.2v1.9h2.3v1.1H104
			v4.4c0,0.5,0.1,0.8,0.3,1c0.2,0.2,0.6,0.3,1.1,0.3h0.8v1.1H104.9z"/>
		<path class="st1" d="M108.8,93.6c-0.3,0-0.5-0.1-0.7-0.3c-0.2-0.2-0.3-0.4-0.3-0.7c0-0.3,0.1-0.5,0.3-0.6c0.2-0.2,0.4-0.3,0.7-0.3
			c0.3,0,0.5,0.1,0.7,0.3c0.2,0.2,0.3,0.4,0.3,0.6c0,0.3-0.1,0.5-0.3,0.7C109.2,93.5,109,93.6,108.8,93.6z M108.1,103.3v-7.9h1.3
			v7.9H108.1z"/>
		<path class="st1" d="M114.1,103.3l-3-7.9h1.4l2.4,6.6l2.4-6.6h1.4l-3,7.9H114.1z"/>
		<path class="st1" d="M120.9,93.6c-0.3,0-0.5-0.1-0.7-0.3c-0.2-0.2-0.3-0.4-0.3-0.7c0-0.3,0.1-0.5,0.3-0.6c0.2-0.2,0.4-0.3,0.7-0.3
			s0.5,0.1,0.7,0.3c0.2,0.2,0.3,0.4,0.3,0.6c0,0.3-0.1,0.5-0.3,0.7C121.4,93.5,121.2,93.6,120.9,93.6z M120.2,103.3v-7.9h1.3v7.9
			H120.2z"/>
		<path class="st1" d="M127.1,103.3c-0.7,0-1.3-0.2-1.7-0.5c-0.4-0.4-0.6-1-0.6-1.9v-4.4h-1.4v-1.1h1.4l0.2-1.9h1.2v1.9h2.3v1.1
			h-2.3v4.4c0,0.5,0.1,0.8,0.3,1s0.6,0.3,1.1,0.3h0.8v1.1H127.1z"/>
		<path class="st1" d="M131,106.8l2-4.3h-0.5l-3.2-7.2h1.5l2.6,6.2l2.8-6.2h1.4l-5.2,11.5H131z"/>
		<path class="st1" d="M144.1,93.6c-0.3,0-0.5-0.1-0.7-0.3c-0.2-0.2-0.3-0.4-0.3-0.7c0-0.3,0.1-0.5,0.3-0.6c0.2-0.2,0.4-0.3,0.7-0.3
			s0.5,0.1,0.7,0.3c0.2,0.2,0.3,0.4,0.3,0.6c0,0.3-0.1,0.5-0.3,0.7C144.5,93.5,144.3,93.6,144.1,93.6z M143.4,103.3v-7.9h1.3v7.9
			H143.4z"/>
		<path class="st1" d="M147.1,103.3v-7.9h1.2l0.1,1.4c0.3-0.5,0.6-0.9,1.1-1.2c0.5-0.3,1-0.4,1.6-0.4c0.9,0,1.7,0.3,2.2,0.9
			c0.6,0.6,0.8,1.4,0.8,2.6v4.6h-1.3v-4.5c0-1.6-0.7-2.5-2.1-2.5c-0.7,0-1.2,0.2-1.7,0.7c-0.4,0.5-0.7,1.2-0.7,2.1v4.1L147.1,103.3
			L147.1,103.3z"/>
		<path class="st1" d="M163.6,103.3c-0.7,0-1.3-0.2-1.7-0.5c-0.4-0.4-0.6-1-0.6-1.9v-4.4h-1.4v-1.1h1.4l0.2-1.9h1.2v1.9h2.3v1.1
			h-2.3v4.4c0,0.5,0.1,0.8,0.3,1s0.6,0.3,1.1,0.3h0.8v1.1H163.6z"/>
		<path class="st1" d="M166.7,103.3V91.8h1.3v4.9c0.3-0.5,0.7-0.9,1.1-1.1c0.5-0.3,1-0.4,1.6-0.4c0.9,0,1.6,0.3,2.2,0.9
			c0.6,0.6,0.8,1.4,0.8,2.6v4.6h-1.3v-4.5c0-1.6-0.7-2.5-2-2.5c-0.7,0-1.3,0.2-1.7,0.7c-0.5,0.5-0.7,1.2-0.7,2.1v4.1L166.7,103.3
			L166.7,103.3z"/>
		<path class="st1" d="M179.4,103.5c-0.8,0-1.4-0.2-2-0.5s-1.1-0.8-1.4-1.4c-0.3-0.6-0.5-1.4-0.5-2.2c0-0.8,0.2-1.6,0.5-2.2
			s0.8-1.1,1.4-1.5c0.6-0.3,1.3-0.5,2.1-0.5s1.4,0.2,2,0.5c0.6,0.4,1,0.8,1.3,1.4s0.5,1.2,0.5,1.8c0,0.1,0,0.2,0,0.4
			c0,0.1,0,0.2,0,0.4H177c0,0.6,0.2,1.1,0.4,1.5s0.6,0.7,0.9,0.9c0.4,0.2,0.8,0.3,1.2,0.3c0.6,0,1-0.1,1.4-0.4s0.6-0.6,0.8-1h1.3
			c-0.2,0.7-0.6,1.4-1.2,1.8C181.1,103.3,180.3,103.5,179.4,103.5z M179.4,96.3c-0.6,0-1.2,0.2-1.7,0.6s-0.8,1-0.9,1.7h5
			c0-0.7-0.3-1.3-0.7-1.7C180.6,96.5,180.1,96.3,179.4,96.3z"/>
		<path class="st2" d="M21.8,119.1c0.5-0.2,0.9-0.3,1.4-0.3c0.9,0,1.5,0.6,1.8,1.7c0.2,0.9,0.6,1.8,1.1,2.8s0.8,1.8,1,2.3
			c0.3,1,0.6,1.6,0.8,1.9c0.1,0.1,0.2,0.2,0.2,0.2c0.1,0,0.2-0.7,0.4-2c0.1-1.2,0.1-2,0.1-2.5v-0.5c0-0.2-0.1-0.6-0.1-0.9
			c0-0.8,0.2-1.4,0.6-1.8c0.4-0.5,0.9-0.7,1.7-0.7c0.6,0,1,0.1,1.3,0.5c0.3,0.2,0.4,0.6,0.4,1c0,0.6,0,1.1-0.1,1.7
			c-0.1,0.5-0.1,4.2-0.2,11.1c0,4.3-0.1,6.9-0.1,7.8s-0.1,1.4-0.4,1.6c-0.3,0.3-0.8,0.5-1.5,0.5c-1.3,0-2.1-0.6-2.3-1.9
			c-0.1-0.5-0.4-1.4-0.9-2.7c-0.5-1.2-0.8-2.3-0.9-3.2c-0.2-1.2-0.7-2.9-1.3-5c-0.1-0.2-0.1-0.3-0.1-0.3c-0.2,0-0.2,1.3-0.2,3.8v2.2
			v2.4c0,2.5-0.1,3.9-0.2,4.2c-0.3,0.9-1,1.3-1.9,1.3c-0.6,0-1-0.2-1.4-0.6c-0.3-0.3-0.4-0.6-0.4-0.9c0-0.1,0-0.3,0.1-0.8
			c0.1-1,0.2-4.7,0.2-11c0-7,0.1-10.8,0.2-11.2c0.1-0.3,0.2-0.4,0.5-0.5C21.7,119.2,21.7,119.2,21.8,119.1z"/>
		<path class="st2" d="M39.1,120.3c0.4-0.1,0.9-0.1,1.5-0.1c1.7,0,2.7,0.2,3.2,0.6c0.3,0.3,0.5,0.6,0.5,1s-0.2,0.7-0.5,1
			s-0.7,0.4-1.2,0.4s-0.8,0.1-0.9,0.3c-0.1,0.2-0.2,0.8-0.2,1.6c0,0.2,0,1,0.1,2.3c0.1,1.5,0.1,2.5,0.2,2.9c0.1,0.4,0.2,0.7,0.3,0.7
			c0,0,0.2,0,0.6,0c0.4,0,0.7,0,0.9,0c0.7,0,1.3,0.2,1.6,0.5c0.2,0.2,0.3,0.4,0.3,0.6c0,0.5-0.7,0.9-2,1.4c-0.8,0.3-1.2,0.5-1.4,0.6
			c-0.1,0.1-0.3,0.5-0.3,1c-0.1,0.5-0.1,0.9-0.1,1.3c0,1.5,0.1,2.7,0.4,3.4c0.1,0.3,0.3,0.5,0.4,0.6c0.2,0.1,0.5,0.1,1,0.1
			c0.6,0,1.2,0.2,1.7,0.4c0.5,0.3,0.7,0.6,0.7,1c0,0.3-0.2,0.6-0.7,1.1c-0.7,0.7-1.9,1.1-3.7,1.1s-2.9-0.4-3.5-1.1
			c-0.3-0.4-0.5-3-0.5-7.8c-0.1-6-0.1-9.5-0.2-10.6l-0.1-3.4l0.5-0.3C38.2,120.6,38.7,120.4,39.1,120.3z"/>
		<path class="st2" d="M52.1,117.2c0.1,0,0.2-0.1,0.3-0.1s0.2-0.1,0.2-0.1c0.1,0,0.1,0,0.2-0.1h0.1c0.1,0,0.3,0.1,0.7,0.3
			c0.5,0.3,0.8,0.6,0.9,1c0.3,1.2,0.6,2.4,1,3.4c0.4,1.1,0.6,1.6,0.8,1.6c0,0,0,0,0-0.1s0.2-1,0.6-2.7c0.2-1.1,0.4-1.8,0.6-2.2
			c0.1-0.3,0.3-0.6,0.6-0.7c0.4-0.2,0.9-0.3,1.4-0.3c0.7,0,1.2,0.2,1.7,0.5c0.3,0.3,0.5,0.7,0.5,1.1s-0.1,1.1-0.4,2
			c-0.2,0.7-0.6,1.8-1,3.4s-0.8,2.9-1.1,4c-0.4,1.5-0.6,2.5-0.6,2.9c0,0.3,0.1,0.7,0.1,1.1c0.2,1,0.5,1.8,0.7,2.4
			c0.3,0.6,0.5,1.1,0.5,1.6c0,0.2,0.2,1.1,0.7,2.7c0.5,1.3,0.7,2.2,0.7,2.7c0,0.4-0.2,0.8-0.6,1.2c-0.3,0.3-0.7,0.5-1.1,0.5
			c-0.2,0-0.5,0-0.6-0.1c-0.7-0.1-1.2-0.3-1.6-0.7c-0.4-0.4-0.7-1-0.9-1.8c-0.2-0.7-0.3-1.1-0.5-1.1c-0.1,0-0.2,0.4-0.3,1.1
			c-0.2,2.1-1,3.1-2.2,3.1c-0.3,0-0.9-0.2-1.6-0.5c-0.7-0.3-1.1-0.6-1.1-0.9c0-0.5,0.8-3.1,2.4-7.9c0.2-0.5,0.4-1.5,0.7-2.8
			c0.1-0.8,0.2-1.2,0.2-1.4c0-0.4-0.2-1.1-0.5-2c-0.3-0.8-0.6-1.9-1.1-3.5c-0.4-1.5-0.8-2.7-1-3.4c-0.4-1.1-0.6-2-0.7-2.7
			c0-0.1-0.1-0.3-0.1-0.5C50.7,118,51.2,117.6,52.1,117.2z"/>
		<path class="st2" d="M67.3,119.1c0.4-0.4,1.1-0.5,2.1-0.5h1.1c1.6,0.1,2.6,0.1,3,0.2c0.2,0.1,0.6,0.1,1.3,0.2
			c0.7,0.1,1.2,0.2,1.5,0.4c0.3,0.2,0.5,0.6,0.5,1.2s-0.2,1-0.4,1.2c-0.2,0.2-0.6,0.4-1.1,0.5c-0.6,0.1-1,0.2-1.1,0.3
			c-0.2,0.1-0.2,3.1-0.2,8.7c0,3.9,0.1,6.7,0.1,8.3c0.1,1.3,0.1,2,0.1,2.1c0,0.6-0.1,1.2-0.4,1.6c-0.3,0.6-0.8,0.9-1.6,0.9
			c-0.5,0-0.9-0.1-1.4-0.4l-0.9-0.5l0.1-10.4c0.1-2.7,0.1-5.4,0.1-8c0-1.6-0.1-2.5-0.4-2.6c-0.4-0.2-0.6-0.3-0.7-0.2
			c-0.1,0-0.3,0.1-0.5,0.1c-0.6,0-1-0.2-1.4-0.5s-0.5-0.7-0.5-1.1C66.5,119.9,66.8,119.5,67.3,119.1z"/>
		<path class="st2" d="M96,121.3c0.6-0.3,1.1-0.4,1.7-0.4c1.5,0,2.7,0.7,3.3,2c0.2,0.6,0.4,1.6,0.4,3.1c0,2.4-0.2,4.3-0.7,5.8
			c-0.3,0.8-0.6,1.6-0.9,2.2c-0.3,0.7-0.5,1.3-0.7,1.9c0,0.1-0.2,0.6-0.5,1.3c-0.3,0.8-0.5,1.3-0.6,1.5c-0.3,0.9-0.5,1.5-0.5,1.8
			s0.3,0.5,0.8,0.6h1.2h0.2c0.5,0,0.9,0.1,1.4,0.4s0.7,0.6,0.8,0.9c0.1,0.2,0.1,0.4,0.1,0.6c0,0.9-1,1.4-3.1,1.4
			c-0.7,0-1.2,0-1.6-0.1c-1.6-0.1-2.7-0.2-3.3-0.4c-0.6-0.2-1-0.5-1.1-1c0-0.1,0-0.2,0-0.4c0-0.6,0.5-2.2,1.5-4.7
			c2.1-5.1,3.2-8.9,3.2-11.5c0-0.8,0-1.3-0.1-1.5s-0.2-0.3-0.6-0.4c-1.9-0.4-2.8-0.8-2.8-1.2c0-0.1,0.1-0.3,0.3-0.7
			C94.9,122,95.4,121.6,96,121.3z"/>
		<path class="st2" d="M119.5,119.5c0.1,0,0.3,0,0.6,0c1,0,1.6,0.1,1.6,0.2s0.1,0.3,0.3,0.5c0.2,0.5,0.3,0.9,0.3,1.3
			c0,1.2,0.3,3.1,0.8,5.9c0.1,1.1,0.4,2.2,0.6,3.2c0.3,1,0.5,1.5,0.6,1.5s0.1-0.1,0.1-0.4c0-0.8,0.6-1.4,1.9-1.9
			c0.6-0.1,1-0.2,1.2-0.2c0.5,0,0.8,0.2,1.1,0.5c0.3,0.4,0.5,1,0.8,1.9c0.2,0.6,0.3,1,0.4,0.9c0.1-0.1,0.2-0.7,0.5-2
			c0.2-1.3,0.4-2.3,0.5-3c0.1-0.4,0.2-1,0.3-1.8s0.2-1.6,0.3-2.4c0.2-1.6,0.3-2.5,0.5-2.8c0.1-0.3,0.5-0.6,1.1-0.9s1.1-0.4,1.6-0.4
			c0.4,0,0.8,0.2,1.1,0.5s0.5,0.8,0.5,1.2v0.1c0,0.1,0,0.1,0,0.1c-0.8,4.1-1.4,8-1.8,11.9c-0.3,2.7-0.5,4.6-0.7,5.8
			c-0.1,1.2-0.3,2.2-0.6,3c-0.2,0.9-0.4,1.4-0.6,1.6c-0.2,0.2-0.5,0.3-0.9,0.4c-0.2,0-0.4,0-0.7,0c-1,0-1.6-0.2-1.9-0.5
			c-0.1-0.1-0.3-0.6-0.7-1.5c-0.3-0.8-0.5-1.5-0.7-2c-0.1-0.4-0.2-0.6-0.4-0.6c-0.1,0-0.2,0.1-0.2,0.4c0,0.5-0.2,1.2-0.5,1.9
			c-0.3,0.8-0.6,1.3-1,1.6c-0.4,0.3-0.7,0.5-1,0.5c-0.2,0-0.4,0-0.6-0.1c-1-0.2-1.7-0.5-1.9-0.9c-0.3-0.4-0.5-1.3-0.7-2.8
			c-1.1-7.9-1.9-13.4-2.4-16.4c-0.2-1.2-0.4-2.1-0.4-2.8c0-0.5,0.1-0.8,0.3-1.1C118.9,119.7,119.2,119.6,119.5,119.5z"/>
		<path class="st2" d="M142.4,120.3c0.4-0.1,0.8-0.1,1.5-0.1c1.7,0,2.7,0.2,3.2,0.6c0.3,0.3,0.5,0.6,0.5,1s-0.2,0.7-0.5,1
			s-0.7,0.4-1.2,0.4s-0.8,0.1-0.9,0.3c-0.1,0.2-0.2,0.8-0.2,1.6c0,0.2,0,1,0.1,2.3c0.1,1.5,0.1,2.5,0.2,2.9c0.1,0.4,0.2,0.7,0.3,0.7
			c0,0,0.2,0,0.6,0c0.4,0,0.7,0,0.9,0c0.7,0,1.3,0.2,1.6,0.5c0.2,0.2,0.3,0.4,0.3,0.6c0,0.5-0.7,0.9-2,1.4c-0.8,0.3-1.2,0.5-1.4,0.6
			c-0.1,0.1-0.3,0.5-0.3,1c-0.1,0.5-0.1,0.9-0.1,1.3c0,1.5,0.1,2.7,0.4,3.4c0.1,0.3,0.3,0.5,0.4,0.6c0.1,0.1,0.5,0.1,1,0.1
			c0.6,0,1.2,0.2,1.7,0.4c0.5,0.3,0.7,0.6,0.7,1c0,0.3-0.2,0.6-0.7,1.1c-0.7,0.7-1.9,1.1-3.7,1.1s-2.9-0.4-3.5-1.1
			c-0.3-0.4-0.5-3-0.6-7.8c-0.1-6-0.1-9.5-0.2-10.6l-0.1-3.4l0.6-0.4C141.6,120.6,142,120.4,142.4,120.3z"/>
		<path class="st2" d="M155.9,120.3c0.4-0.1,0.9-0.1,1.5-0.1c1.7,0,2.7,0.2,3.1,0.6c0.3,0.3,0.5,0.6,0.5,1s-0.1,0.7-0.5,1
			c-0.3,0.3-0.7,0.4-1.2,0.4s-0.8,0.1-0.9,0.3c-0.2,0.2-0.2,0.8-0.2,1.6c0,0.2,0,1,0.1,2.3c0.1,1.5,0.1,2.5,0.2,2.9
			c0.1,0.4,0.2,0.7,0.3,0.7c0,0,0.2,0,0.6,0c0.4,0,0.7,0,0.9,0c0.7,0,1.3,0.2,1.6,0.5c0.2,0.2,0.3,0.4,0.3,0.6c0,0.5-0.7,0.9-2,1.4
			c-0.8,0.3-1.2,0.5-1.4,0.6c-0.1,0.1-0.3,0.5-0.3,1c-0.1,0.5-0.1,0.9-0.1,1.3c0,1.5,0.1,2.7,0.4,3.4c0.1,0.3,0.3,0.5,0.4,0.6
			c0.2,0.1,0.5,0.1,1,0.1c0.6,0,1.2,0.2,1.6,0.4c0.5,0.3,0.7,0.6,0.7,1c0,0.3-0.2,0.6-0.7,1.1c-0.7,0.7-1.9,1.1-3.7,1.1
			s-2.9-0.4-3.5-1.1c-0.3-0.4-0.5-3-0.6-7.8c-0.1-6-0.1-9.5-0.2-10.6l-0.1-3.4l0.6-0.4C155,120.6,155.5,120.4,155.9,120.3z"/>
		<path class="st2" d="M175.1,119.8c0.4-0.3,0.8-0.5,1.1-0.5c0.2,0,0.6,0.1,1.1,0.4c0.6,0.3,0.9,0.6,0.9,0.9c0,0.4-0.6,1.7-1.8,3.9
			c-0.3,0.6-0.6,1.1-0.9,1.7c-0.3,0.6-0.6,1-0.8,1.3s-0.4,0.6-0.6,1c-0.2,0.3-0.3,0.6-0.4,0.7c-0.1,0.2-0.2,0.3-0.2,0.5
			s-0.1,0.3-0.1,0.4s-0.1,0.2-0.1,0.2c0,0.4,0.3,0.9,0.8,1.7c0.6,1,0.9,1.5,0.9,1.6s0.2,0.4,0.5,0.9c0.3,0.4,0.7,1.1,1.1,2.1
			c0.2,0.7,0.6,1.4,1.1,2.1c1.4,2,2.1,3.5,2.1,4.4s-0.6,1.3-1.9,1.3h-0.1c-0.8,0-1.3-0.1-1.6-0.4c-0.3-0.2-0.6-0.8-0.9-1.7
			c-0.2-0.6-0.6-1.3-1-2s-0.7-1.4-0.9-1.9c-0.3-0.7-0.7-1.6-1.2-2.5c-0.6-0.9-0.9-1.4-1.1-1.4c-0.1,0-0.2,0.3-0.2,1
			c0,1.1,0.1,2.9,0.4,5.4c0.1,0.8,0.1,1.4,0.1,1.8c0,0.5-0.1,0.9-0.3,1s-0.7,0.3-1.4,0.4c-0.4,0.1-0.7,0.1-0.7,0.1
			c-0.3,0-0.6-0.2-1-0.5c-0.4-0.4-0.6-1-0.6-1.7c0-0.1,0-0.3,0-0.6c0-0.3,0-0.6,0-0.8c0.1-1.2,0.1-2.7,0.1-4.5c0-2.6,0-5.2-0.1-7.9
			l-0.1-7.5l0.6-0.3c0.2-0.1,0.3-0.1,0.5-0.1s0.6,0.1,1.1,0.4l1,0.5l0.1,3c0.1,2,0.1,3,0.3,3s0.7-0.7,1.5-2.1s1.4-2.5,1.7-3.2
			C174.3,120.9,174.6,120.3,175.1,119.8z"/>
		<path class="st2" d="M188,119.7c0.4-0.2,0.8-0.3,1.3-0.3c0.3,0,0.6,0,0.8,0.1c0.9,0.1,1.5,0.2,1.8,0.4c0.3,0.1,0.6,0.5,0.9,0.9
			c0.3,0.5,0.5,1,0.5,1.5c0,0.6-0.2,1-0.6,1.4c-0.4,0.4-0.7,0.5-1.1,0.5c-0.4,0-0.8-0.3-1.1-0.8c-0.3-0.4-0.6-0.6-0.9-0.6
			c-0.3,0-0.5,0.2-0.8,0.6s-0.4,0.8-0.5,1.3v0.2c0,1.7,1.3,4.8,3.8,9.3c0.4,0.7,0.8,2.1,1.2,4c0,0.1,0.1,0.3,0.1,0.6
			c0,1.7-0.4,3-1.1,3.9c-0.3,0.4-0.8,0.8-1.5,1.1c-0.7,0.3-1.3,0.5-1.8,0.5c-0.1,0-0.1,0-0.2,0c-0.1,0-0.1,0-0.2,0
			c-0.7-0.1-1.6-0.6-2.5-1.6c-1-0.9-1.5-1.7-1.5-2.2c0-0.2,0.2-0.5,0.5-0.9c0.3-0.3,0.7-0.5,1-0.6c0.1,0,0.2,0,0.3,0
			c0.3,0,0.9,0.5,1.6,1.5c0.3,0.4,0.6,0.6,0.9,0.6c0.3,0,0.5-0.2,0.7-0.5c0.1-0.1,0.1-0.4,0.1-0.7c0-1.8-0.8-4.3-2.4-7.7
			c-1.5-3.2-2.2-5.5-2.2-7c0-0.7,0.1-1.3,0.4-1.9c0.5-1.2,0.9-2,1.1-2.4C186.8,120.4,187.3,120.1,188,119.7z"/>
		<path class="st2" d="M199.7,137c0.2-0.2,0.5-0.3,0.8-0.3c0.2,0,0.4,0,0.6,0c0.8,0.1,1.2,0.2,1.3,0.3c0.1,0.1,0.2,0.3,0.2,0.7
			c0,0.8-0.3,2-1,3.5c0,0.1-0.1,0.3-0.2,0.6c-0.1,0.3-0.2,0.5-0.3,0.7c-0.4,1.2-1,1.7-1.7,1.7h-0.2c-0.5-0.1-0.9-0.4-1.1-1
			c-0.1-0.4-0.2-0.7-0.2-0.9c0-0.2,0.1-0.9,0.4-2.1C198.7,138.6,199.2,137.5,199.7,137z"/>
		<path class="st3" d="M239.5,49.5c4.9,0,8.8,1,8.8,2.2c0,1.4-3.9,2.4-8.8,2.4c-4.9,0-8.8-1-8.8-2.4
			C230.7,50.5,234.6,49.5,239.5,49.5z"/>
		<path class="st4" d="M239.5,52.3c6.7-5.3,13.9-13.9,12.8-22.7c-0.8-6.4-6.3-11.2-12.8-11.2c-6.7,0-12.2,5-12.8,11.7
			C226,38.7,233,47.2,239.5,52.3z M239.5,26.9c2.6,0,4.7,2.1,4.7,4.7c0,2.6-2.1,4.7-4.7,4.7c-2.6,0-4.7-2.1-4.7-4.7
			C234.9,29,237,26.9,239.5,26.9z"/>
		<path class="st3" d="M258.8,143.4c4.9,0,8.8,1,8.8,2.2c0,1.4-3.9,2.4-8.8,2.4c-4.9,0-8.8-1-8.8-2.4
			C250,144.4,253.9,143.4,258.8,143.4z"/>
		<path class="st5" d="M248.8,145.7h-1"/>
		<path class="st6" d="M245.9,145.7l-9.4-0.2c-2.3,0-4.2-2.7-4.2-5.9c0,0,8.2-84.4-37.8-84.4c-22.3,0-31.3,34.9,42.5,34.9
			c38.7,0,32.6-32.6,32.6-32.6c0-3.3-1.9-5.9-4.2-5.9h-13.3"/>
		<path class="st5" d="M251.2,51.5h-1"/>
		<path class="st1" d="M246.8,137.4h-2.1c-0.5,0-1-0.4-1-1v-4.8c0-0.5,0.4-1,1-1h2.1c0.5,0,1,0.4,1,1v4.8
			C247.8,137,247.4,137.4,246.8,137.4z"/>
		<path class="st1" d="M273.4,137.4h-2.1c-0.5,0-1-0.4-1-1v-4.8c0-0.5,0.4-1,1-1h2.1c0.5,0,1,0.4,1,1v4.8
			C274.4,137,273.9,137.4,273.4,137.4z"/>
		<path class="st7" d="M240.7,131.1c0,1.1,0.9,1.9,1.9,1.9h32.7c1.1,0,1.9-0.9,1.9-1.9V97.9c0-2-1.6-3.6-3.6-3.6h-29.3
			c-2,0-3.6,1.6-3.6,3.6L240.7,131.1L240.7,131.1z M246.2,128.9c-2.1,0-3.7-2.4-2.1-4.6c0.1-0.1,0.1-0.1,0.2-0.2
			c2.2-1.6,4.6,0,4.6,2.1C248.9,127.7,247.7,128.9,246.2,128.9z M262.4,99.7h10.4c0.9,0,1.7,0.7,1.7,1.7v12.5c0,0.9-0.7,1.7-1.7,1.7
			h-10.4c-0.9,0-1.7-0.7-1.7-1.7v-12.5C260.7,100.5,261.5,99.7,262.4,99.7z M245.3,99.7h10.4c0.9,0,1.7,0.7,1.7,1.7v12.5
			c0,0.9-0.7,1.7-1.7,1.7h-10.4c-0.9,0-1.7-0.7-1.7-1.7v-12.5C243.7,100.5,244.4,99.7,245.3,99.7z M274.5,128.2c-2.9,2-6-1.1-4-4
			c0-0.1,0.1-0.1,0.2-0.2c2.9-2,6,1.1,4,4C274.6,128.1,274.5,128.2,274.5,128.2z"/>
		<path class="st1" d="M286.1,138h-1.3c-0.4,0-0.7-0.1-0.7-0.5V91.8h2.7v45.7C286.9,137.8,286.5,138,286.1,138z"/>
		<path class="st7" d="M275.4,84.1l4.6-8c0.2-0.4,0.6-0.6,1-0.6h9.2c0.4,0,0.8,0.2,1,0.6l4.6,8c0.2,0.4,0.2,0.8,0,1.2l-4.6,8
			c-0.2,0.4-0.6,0.6-1,0.6H281c-0.4,0-0.8-0.2-1-0.6l-4.6-8C275.1,84.9,275.1,84.4,275.4,84.1z"/>
	</g>
</g>
</svg>
