<?xml version="1.0" encoding="utf-8"?>
<!-- Generator: Adobe Illustrator 25.1.0, SVG Export Plug-In . SVG Version: 6.00 Build 0)  -->
<svg version="1.1" id="Layer_1" xmlns="http://www.w3.org/2000/svg" xmlns:xlink="http://www.w3.org/1999/xlink" x="0px" y="0px"
	 viewBox="0 0 333.5 150.3" style="enable-background:new 0 0 333.5 150.3;" xml:space="preserve">
<style type="text/css">
	.st0{fill:#FFFFFF;}
	.st1{fill:#808080;}
	.st2{fill:#00CDDC;}
	.st3{fill:#F4F1EF;}
	.st4{fill:#28C86E;}
	.st5{fill:#3CDC82;}
	.st6{fill:#32DCD2;}
	.st7{fill:none;stroke:#28C86E;stroke-width:1.8357;stroke-linecap:round;stroke-miterlimit:10;}
	.st8{fill:#FFCF8D;}
	.st9{fill:#FF9F1A;}
</style>
<g>
	<g>
		<path class="st0" d="M333.4,94.4c0-94,4.7-91.5-41.6-94.1c-28.2-1.6-146.5,2.8-181.2,3.2C77.5,4,5.7-10.6,1.8,18.6
			c-0.1,0.8-0.2,1.7-0.2,2.6C1.7,39,0.1,57,0.1,87.9c0,48.6-3.6,54.4,31.4,60.6c35.6,6.2,166.3-6.3,209.3-7.1
			C285.1,140.6,333.4,143.9,333.4,94.4z"/>
		<path class="st1" d="M24.5,29V18.9h-3.3v-1.1h8v1.1h-3.3V29H24.5z"/>
		<path class="st1" d="M30.7,29V17.5H32v4.9c0.3-0.5,0.6-0.9,1.1-1.1c0.5-0.3,1-0.4,1.6-0.4c0.9,0,1.7,0.3,2.2,0.9
			c0.6,0.6,0.8,1.4,0.8,2.6V29h-1.3v-4.5c0-1.6-0.7-2.5-2-2.5c-0.7,0-1.3,0.2-1.7,0.7c-0.5,0.5-0.7,1.2-0.7,2.1V29H30.7L30.7,29z"/>
		<path class="st1" d="M43.5,29.2c-0.8,0-1.4-0.2-2-0.5c-0.6-0.4-1.1-0.8-1.4-1.4c-0.3-0.6-0.5-1.4-0.5-2.2c0-0.8,0.2-1.6,0.5-2.2
			s0.8-1.1,1.4-1.5c0.6-0.4,1.3-0.5,2.1-0.5s1.4,0.2,2,0.5s1,0.8,1.3,1.4s0.5,1.2,0.5,1.8c0,0.1,0,0.2,0,0.3c0,0.1,0,0.2,0,0.4h-6.3
			c0,0.6,0.2,1.1,0.4,1.5s0.6,0.7,0.9,0.9c0.4,0.2,0.8,0.3,1.2,0.3c0.6,0,1-0.1,1.4-0.4s0.7-0.6,0.8-1H47c-0.2,0.7-0.6,1.4-1.2,1.8
			C45.2,29,44.4,29.2,43.5,29.2z M43.5,22c-0.6,0-1.2,0.2-1.7,0.6s-0.8,1-0.9,1.7h5c0-0.7-0.3-1.3-0.7-1.7
			C44.7,22.2,44.1,22,43.5,22z"/>
		<path class="st1" d="M54.2,29l4.4-10h-6.1v-1.2H60v1L55.7,29H54.2z"/>
		<path class="st1" d="M61.1,24.9v-1.1h6.3v1.1H61.1L61.1,24.9z"/>
		<path class="st1" d="M69.4,29v-7.9h1.2l0.1,1.1c0.3-0.4,0.6-0.8,1-1s0.9-0.3,1.4-0.3c0.6,0,1.2,0.1,1.6,0.4
			c0.5,0.3,0.8,0.7,1.1,1.2c0.3-0.5,0.7-0.9,1.1-1.1c0.5-0.3,1-0.4,1.6-0.4c0.9,0,1.7,0.3,2.3,0.9c0.6,0.6,0.8,1.4,0.8,2.6V29h-1.3
			v-4.5c0-0.8-0.2-1.4-0.5-1.9C79.5,22.2,79,22,78.4,22s-1.2,0.2-1.6,0.7s-0.6,1.2-0.6,2.1V29h-1.3v-4.5c0-0.8-0.2-1.4-0.5-1.9
			S73.6,22,73,22s-1.2,0.2-1.6,0.7s-0.6,1.2-0.6,2.1V29H69.4L69.4,29z"/>
		<path class="st1" d="M84.6,19.3c-0.3,0-0.5-0.1-0.7-0.3c-0.2-0.2-0.3-0.4-0.3-0.7c0-0.3,0.1-0.5,0.3-0.6c0.2-0.2,0.4-0.3,0.7-0.3
			c0.3,0,0.5,0.1,0.7,0.3c0.2,0.2,0.3,0.4,0.3,0.6c0,0.3-0.1,0.5-0.3,0.7S84.8,19.3,84.6,19.3z M83.9,29v-7.9h1.3V29H83.9z"/>
		<path class="st1" d="M87.6,29v-7.9h1.2l0.1,1.4c0.3-0.5,0.6-0.9,1.1-1.2c0.5-0.3,1-0.4,1.6-0.4c0.9,0,1.7,0.3,2.2,0.9
			c0.6,0.6,0.8,1.4,0.8,2.6V29h-1.3v-4.5c0-1.6-0.7-2.5-2-2.5c-0.7,0-1.2,0.2-1.7,0.7c-0.4,0.5-0.7,1.2-0.7,2.1V29H87.6L87.6,29z"/>
		<path class="st1" d="M23.4,51l-2.3-7.9h1.3l1.7,6.2l1.9-6.2h1.5l1.9,6.2l1.7-6.2h1.4L30,51h-1.4l-2-6.5l-2,6.5H23.4z"/>
		<path class="st1" d="M37.1,51.2c-0.8,0-1.4-0.2-2-0.5s-1.1-0.8-1.4-1.4s-0.5-1.4-0.5-2.2s0.2-1.6,0.5-2.2c0.4-0.6,0.8-1.1,1.4-1.5
			c0.6-0.3,1.3-0.5,2-0.5c0.8,0,1.4,0.2,2,0.5s1.1,0.8,1.4,1.5c0.3,0.6,0.5,1.4,0.5,2.2s-0.2,1.6-0.5,2.2c-0.3,0.6-0.8,1.1-1.4,1.4
			C38.6,51,37.9,51.2,37.1,51.2z M37.1,50c0.5,0,0.9-0.1,1.3-0.3c0.4-0.2,0.7-0.6,1-1s0.4-1,0.4-1.7s-0.1-1.2-0.4-1.7
			c-0.2-0.4-0.6-0.8-0.9-1C38,44.1,37.6,44,37.2,44c-0.5,0-0.9,0.1-1.3,0.3c-0.4,0.2-0.7,0.6-1,1c-0.2,0.4-0.4,1-0.4,1.7
			s0.1,1.2,0.4,1.7s0.6,0.8,0.9,1C36.3,49.9,36.7,50,37.1,50z"/>
		<path class="st1" d="M43,51v-7.9h1.2l0.1,1.5c0.2-0.5,0.6-0.9,1.1-1.2s1.1-0.5,1.9-0.5v1.4h-0.4c-0.5,0-0.9,0.1-1.3,0.2
			c-0.4,0.2-0.7,0.5-0.9,0.8c-0.2,0.4-0.3,0.9-0.3,1.6v4H43V51z"/>
		<path class="st1" d="M48.8,51V39.5h1.3v6.9l3.2-3.3h1.6l-3.5,3.6l4,4.3h-1.7l-3.6-4.1V51H48.8z"/>
		<path class="st1" d="M59.9,51.2c-0.8,0-1.4-0.2-2-0.5s-1.1-0.8-1.4-1.4C56.1,48.6,56,47.9,56,47s0.2-1.6,0.5-2.2
			c0.3-0.6,0.8-1.1,1.4-1.5c0.6-0.3,1.3-0.5,2-0.5s1.4,0.2,2,0.5s1.1,0.8,1.4,1.5c0.4,0.6,0.5,1.4,0.5,2.2s-0.2,1.6-0.5,2.2
			c-0.4,0.6-0.8,1.1-1.4,1.4C61.3,51,60.7,51.2,59.9,51.2z M59.9,50c0.5,0,0.9-0.1,1.3-0.3c0.4-0.2,0.7-0.6,1-1s0.4-1,0.4-1.7
			s-0.1-1.2-0.4-1.7c-0.2-0.5-0.6-0.8-0.9-1C60.8,44.1,60.4,44,60,44c-0.5,0-0.9,0.1-1.3,0.3c-0.4,0.2-0.7,0.6-1,1
			c-0.2,0.4-0.4,1-0.4,1.7s0.1,1.2,0.4,1.7c0.2,0.4,0.6,0.8,0.9,1C59,49.9,59.5,50,59.9,50z"/>
		<path class="st1" d="M68.7,51.2c-0.9,0-1.7-0.3-2.2-0.9c-0.6-0.6-0.8-1.5-0.8-2.6v-4.6H67v4.5c0,1.6,0.7,2.5,2,2.5
			c0.7,0,1.3-0.2,1.7-0.7c0.4-0.5,0.7-1.2,0.7-2.1v-4.1h1.3V51h-1.2l-0.1-1.4c-0.2,0.5-0.6,0.9-1.1,1.2S69.3,51.2,68.7,51.2z"/>
		<path class="st1" d="M78.1,51c-0.7,0-1.3-0.2-1.7-0.5c-0.4-0.3-0.6-1-0.6-1.9v-4.4h-1.4v-1.1h1.4l0.2-1.9h1.2v1.9h2.3v1.1h-2.3
			v4.4c0,0.5,0.1,0.8,0.3,1c0.2,0.2,0.6,0.3,1.1,0.3h0.8V51H78.1z"/>
		<path class="st1" d="M86.2,41.3c-0.3,0-0.5-0.1-0.7-0.3s-0.3-0.4-0.3-0.7s0.1-0.5,0.3-0.6c0.2-0.2,0.4-0.3,0.7-0.3
			s0.5,0.1,0.7,0.3s0.3,0.4,0.3,0.6c0,0.3-0.1,0.5-0.3,0.7C86.6,41.2,86.4,41.3,86.2,41.3z M85.5,51v-7.9h1.3V51H85.5z"/>
		<path class="st1" d="M92.2,51.2c-1,0-1.7-0.2-2.4-0.7c-0.6-0.5-1-1.1-1.1-2h1.4c0.1,0.4,0.3,0.8,0.7,1.1c0.3,0.3,0.8,0.5,1.4,0.5
			s1-0.1,1.2-0.4c0.3-0.2,0.4-0.5,0.4-0.9c0-0.5-0.2-0.8-0.5-1c-0.4-0.2-0.8-0.3-1.5-0.4c-0.4-0.1-0.9-0.2-1.3-0.4s-0.8-0.4-1.1-0.7
			C89.1,46,89,45.6,89,45.1c0-0.7,0.3-1.3,0.8-1.7s1.2-0.7,2.1-0.7c0.8,0,1.5,0.2,2.1,0.6s0.8,1,0.9,1.8h-1.3
			c-0.1-0.4-0.2-0.7-0.5-0.9C92.9,44.1,92.5,44,92,44s-0.8,0.1-1.1,0.3c-0.3,0.2-0.4,0.5-0.4,0.8s0.2,0.6,0.5,0.8s0.8,0.3,1.4,0.5
			c0.5,0.1,1,0.2,1.4,0.4c0.4,0.1,0.8,0.4,1.1,0.7c0.3,0.3,0.4,0.7,0.4,1.3c0,0.7-0.3,1.3-0.8,1.8C93.9,51,93.2,51.2,92.2,51.2z"/>
		<path class="st1" d="M105.7,51.2c-0.7,0-1.2-0.1-1.7-0.4c-0.5-0.3-0.9-0.6-1.2-1.1l-0.1,1.3h-1.2V39.5h1.3v4.9
			c0.3-0.4,0.6-0.7,1.1-1s1.1-0.5,1.8-0.5c0.8,0,1.5,0.2,2.1,0.5c0.6,0.4,1,0.9,1.4,1.5c0.3,0.6,0.5,1.3,0.5,2.1s-0.2,1.5-0.5,2.1
			s-0.8,1.1-1.4,1.5C107.1,51,106.4,51.2,105.7,51.2z M105.5,50c0.5,0,1-0.1,1.4-0.4c0.4-0.2,0.7-0.6,1-1.1s0.4-1,0.4-1.6
			s-0.1-1.1-0.4-1.6c-0.2-0.4-0.6-0.8-1-1.1c-0.4-0.2-0.9-0.4-1.4-0.4s-1,0.1-1.4,0.4c-0.4,0.2-0.7,0.6-1,1.1
			c-0.2,0.4-0.3,1-0.3,1.6s0.1,1.1,0.3,1.6c0.2,0.4,0.5,0.8,1,1.1C104.5,49.9,105,50,105.5,50z"/>
		<path class="st1" d="M114.1,51.2c-0.7,0-1.2-0.1-1.6-0.3s-0.8-0.5-1-0.9s-0.3-0.8-0.3-1.2c0-0.8,0.3-1.4,0.9-1.9
			c0.6-0.4,1.5-0.7,2.5-0.7h2.1v-0.1c0-0.7-0.2-1.2-0.5-1.6s-0.9-0.5-1.5-0.5c-0.5,0-1,0.1-1.3,0.4c-0.4,0.3-0.6,0.6-0.7,1.1h-1.4
			c0-0.6,0.2-1.1,0.6-1.5c0.3-0.4,0.8-0.7,1.3-0.9s1-0.3,1.6-0.3c1.1,0,1.9,0.3,2.5,0.9c0.6,0.6,0.8,1.4,0.8,2.4V51h-1.2l-0.1-1.4
			c-0.2,0.4-0.6,0.8-1,1.1C115.4,51,114.8,51.2,114.1,51.2z M114.3,50.1c0.5,0,0.9-0.1,1.3-0.4s0.6-0.6,0.8-1
			c0.2-0.4,0.3-0.9,0.3-1.3l0,0h-2c-0.8,0-1.4,0.1-1.7,0.4c-0.3,0.3-0.5,0.6-0.5,1s0.1,0.8,0.5,1C113.3,49.9,113.8,50.1,114.3,50.1z
			"/>
		<path class="st1" d="M123.2,51.2c-0.9,0-1.7-0.2-2.4-0.7c-0.6-0.5-1-1.1-1.1-2h1.4c0.1,0.4,0.3,0.8,0.7,1.1
			c0.3,0.3,0.8,0.5,1.4,0.5s1-0.1,1.2-0.4s0.4-0.5,0.4-0.9c0-0.5-0.2-0.8-0.5-1c-0.4-0.2-0.8-0.3-1.5-0.4c-0.4-0.1-0.9-0.2-1.3-0.4
			s-0.8-0.4-1.1-0.7c-0.3-0.3-0.4-0.7-0.4-1.2c0-0.7,0.3-1.3,0.8-1.7s1.2-0.7,2.1-0.7c0.8,0,1.5,0.2,2.1,0.6c0.5,0.4,0.9,1,0.9,1.8
			h-1.3c-0.1-0.4-0.2-0.7-0.5-0.9s-0.7-0.3-1.2-0.3s-0.9,0.1-1.1,0.3s-0.4,0.5-0.4,0.8s0.2,0.6,0.5,0.8s0.8,0.3,1.4,0.5
			c0.5,0.1,1,0.2,1.4,0.4c0.4,0.1,0.8,0.4,1.1,0.7c0.3,0.3,0.4,0.7,0.4,1.3c0,0.7-0.3,1.3-0.8,1.8C124.8,51,124.1,51.2,123.2,51.2z"
			/>
		<path class="st1" d="M131.7,51.2c-0.8,0-1.4-0.2-2-0.5c-0.6-0.4-1-0.8-1.4-1.4c-0.3-0.6-0.5-1.4-0.5-2.2s0.2-1.6,0.5-2.2
			c0.3-0.6,0.8-1.1,1.4-1.5c0.6-0.4,1.3-0.5,2.1-0.5s1.4,0.2,2,0.5s1,0.8,1.3,1.4c0.3,0.6,0.4,1.2,0.4,1.8c0,0.1,0,0.2,0,0.3
			s0,0.2,0,0.4h-6.3c0,0.6,0.2,1.1,0.4,1.5s0.6,0.7,0.9,0.9c0.4,0.2,0.8,0.3,1.2,0.3c0.6,0,1-0.1,1.4-0.4c0.4-0.3,0.7-0.6,0.8-1h1.3
			c-0.2,0.7-0.6,1.4-1.2,1.8C133.4,51,132.6,51.2,131.7,51.2z M131.7,44c-0.6,0-1.2,0.2-1.7,0.6c-0.5,0.4-0.8,1-0.9,1.7h5
			c0-0.7-0.3-1.3-0.7-1.7C132.9,44.2,132.4,44,131.7,44z"/>
		<path class="st1" d="M140.8,51.2c-0.8,0-1.5-0.2-2.1-0.5c-0.6-0.4-1-0.9-1.4-1.5c-0.3-0.6-0.5-1.3-0.5-2.1s0.2-1.5,0.5-2.1
			s0.8-1.1,1.4-1.5c0.6-0.4,1.3-0.5,2.1-0.5c0.6,0,1.2,0.1,1.7,0.4c0.5,0.3,0.9,0.6,1.2,1.1v-4.9h1.3V51h-1.2l-0.1-1.3
			c-0.3,0.4-0.6,0.7-1.1,1C142.2,51,141.6,51.2,140.8,51.2z M141,50c0.5,0,1-0.1,1.4-0.4c0.4-0.2,0.7-0.6,1-1.1s0.3-1,0.3-1.6
			s-0.1-1.1-0.3-1.6s-0.6-0.8-1-1.1c-0.4-0.2-0.9-0.4-1.4-0.4s-1,0.1-1.4,0.4s-0.7,0.6-1,1.1c-0.2,0.4-0.3,1-0.3,1.6
			s0.1,1.1,0.3,1.6c0.2,0.4,0.6,0.8,1,1.1S140.4,50,141,50z"/>
		<path class="st1" d="M25.4,73.2c-0.8,0-1.4-0.2-2-0.5s-1.1-0.8-1.4-1.4s-0.5-1.4-0.5-2.2s0.2-1.6,0.5-2.2s0.8-1.1,1.4-1.5
			c0.6-0.3,1.3-0.5,2-0.5s1.4,0.2,2,0.5s1.1,0.8,1.4,1.5c0.3,0.6,0.5,1.4,0.5,2.2s-0.2,1.6-0.5,2.2s-0.8,1.1-1.4,1.4
			S26.1,73.2,25.4,73.2z M25.4,72c0.5,0,0.9-0.1,1.3-0.3c0.4-0.2,0.7-0.6,1-1s0.4-1,0.4-1.7s-0.1-1.2-0.4-1.7c-0.2-0.5-0.6-0.8-1-1
			S25.9,66,25.4,66s-0.9,0.1-1.3,0.3c-0.4,0.2-0.7,0.6-1,1c-0.2,0.4-0.4,1-0.4,1.7s0.1,1.2,0.4,1.7c0.2,0.4,0.6,0.8,1,1
			C24.5,71.9,24.9,72,25.4,72z"/>
		<path class="st1" d="M31.2,73v-7.9h1.2l0.1,1.4c0.3-0.5,0.6-0.9,1.1-1.2c0.5-0.3,1-0.4,1.6-0.4c0.9,0,1.7,0.3,2.2,0.9
			c0.6,0.6,0.8,1.4,0.8,2.6V73H37v-4.5c0-1.6-0.7-2.5-2-2.5c-0.7,0-1.2,0.2-1.7,0.7c-0.4,0.5-0.7,1.2-0.7,2.1V73H31.2L31.2,73z"/>
		<path class="st1" d="M44.7,73V61.8H46v4.9h5.8v-4.9h1.3V73h-1.3v-5.1H46V73H44.7z"/>
		<path class="st1" d="M56.3,63.3c-0.3,0-0.5-0.1-0.7-0.3s-0.3-0.4-0.3-0.7s0.1-0.5,0.3-0.6c0.2-0.2,0.4-0.3,0.7-0.3
			s0.5,0.1,0.7,0.3s0.3,0.4,0.3,0.6c0,0.3-0.1,0.5-0.3,0.7S56.6,63.3,56.3,63.3z M55.6,73v-7.9H57V73H55.6z"/>
		<path class="st1" d="M62.5,70.5c-0.4,0-0.9-0.1-1.2-0.2l-0.8,0.8c0.1,0.1,0.3,0.2,0.4,0.2s0.4,0.1,0.8,0.2
			c0.3,0.1,0.8,0.1,1.4,0.1c1.1,0.1,1.8,0.3,2.3,0.7c0.5,0.4,0.7,1,0.7,1.6c0,0.5-0.1,0.9-0.4,1.3c-0.2,0.4-0.6,0.8-1.2,1
			c-0.5,0.3-1.2,0.4-2,0.4c-0.7,0-1.4-0.1-1.9-0.3c-0.6-0.2-1-0.5-1.3-0.9s-0.5-0.9-0.5-1.4c0-0.3,0.1-0.6,0.2-1
			c0.2-0.4,0.5-0.7,0.9-1c-0.2-0.1-0.4-0.2-0.6-0.3s-0.3-0.2-0.5-0.4v-0.4l1.4-1.3c-0.6-0.5-0.9-1.2-0.9-2.1c0-0.5,0.1-1,0.4-1.4
			c0.2-0.4,0.6-0.8,1.1-1s1-0.4,1.7-0.4c0.5,0,0.9,0.1,1.2,0.2h2.9v1L65.1,66c0.3,0.4,0.5,1,0.5,1.6c0,0.5-0.1,1-0.4,1.4
			c-0.2,0.4-0.6,0.8-1.1,1C63.7,70.4,63.1,70.5,62.5,70.5z M60.1,74c0,0.5,0.2,0.9,0.7,1.2c0.4,0.3,1,0.4,1.7,0.4s1.2-0.1,1.6-0.4
			s0.6-0.7,0.6-1.2c0-0.3-0.1-0.6-0.4-0.9c-0.3-0.2-0.8-0.4-1.5-0.4c-0.6,0-1.1-0.1-1.5-0.2c-0.4,0.2-0.7,0.5-0.9,0.8
			S60.1,73.8,60.1,74z M62.5,69.4c0.6,0,1-0.2,1.3-0.4c0.3-0.3,0.5-0.7,0.5-1.3c0-0.5-0.2-1-0.5-1.3C63.5,66.1,63,66,62.5,66
			c-0.6,0-1,0.1-1.4,0.4c-0.3,0.3-0.5,0.7-0.5,1.3s0.2,1,0.5,1.3C61.4,69.3,61.9,69.4,62.5,69.4z"/>
		<path class="st1" d="M68.2,73V61.5h1.3v4.9c0.3-0.5,0.7-0.9,1.1-1.1c0.5-0.3,1-0.4,1.6-0.4c0.9,0,1.6,0.3,2.2,0.9
			c0.5,0.6,0.8,1.4,0.8,2.6V73h-1.3v-4.5c0-1.6-0.7-2.5-2-2.5c-0.7,0-1.3,0.2-1.7,0.7c-0.5,0.5-0.7,1.2-0.7,2.1V73H68.2L68.2,73z"/>
		<path class="st1" d="M81.6,73V61.8H83V73H81.6z"/>
		<path class="st1" d="M85.3,73v-7.9h1.2l0.1,1.4c0.3-0.5,0.6-0.9,1.1-1.2c0.5-0.3,1-0.4,1.6-0.4c0.9,0,1.7,0.3,2.2,0.9
			c0.6,0.6,0.8,1.4,0.8,2.6V73H91v-4.5c0-1.6-0.7-2.5-2.1-2.5c-0.7,0-1.2,0.2-1.7,0.7s-0.7,1.2-0.7,2.1V73H85.3L85.3,73z"/>
		<path class="st1" d="M97.5,73c-0.7,0-1.3-0.2-1.7-0.5c-0.4-0.3-0.6-1-0.6-1.9v-4.4h-1.4v-1.1h1.4l0.2-1.9h1.2v1.9h2.3v1.1h-2.3
			v4.4c0,0.5,0.1,0.8,0.3,1c0.2,0.2,0.6,0.3,1.1,0.3h0.8V73H97.5z"/>
		<path class="st1" d="M103.9,73.2c-0.8,0-1.4-0.2-2-0.5c-0.6-0.4-1.1-0.8-1.4-1.4s-0.5-1.4-0.5-2.2c0-0.8,0.2-1.6,0.5-2.2
			s0.8-1.1,1.4-1.5s1.3-0.5,2.1-0.5c0.8,0,1.4,0.2,2,0.5s1,0.8,1.3,1.4s0.4,1.2,0.4,1.8c0,0.1,0,0.2,0,0.3c0,0.1,0,0.2,0,0.4h-6.3
			c0,0.6,0.2,1.1,0.4,1.5s0.6,0.7,0.9,0.9c0.4,0.2,0.8,0.3,1.2,0.3c0.6,0,1-0.1,1.4-0.4s0.7-0.6,0.8-1h1.3c-0.2,0.7-0.6,1.4-1.2,1.8
			C105.7,73,104.9,73.2,103.9,73.2z M103.9,66c-0.6,0-1.2,0.2-1.7,0.6s-0.8,1-0.9,1.7h5c0-0.7-0.3-1.3-0.7-1.7
			C105.2,66.2,104.6,66,103.9,66z"/>
		<path class="st1" d="M109.5,73v-7.9h1.2l0.1,1.4c0.3-0.5,0.6-0.9,1.1-1.2c0.5-0.3,1-0.4,1.6-0.4c0.9,0,1.7,0.3,2.2,0.9
			c0.6,0.6,0.8,1.4,0.8,2.6V73h-1.3v-4.5c0-1.6-0.7-2.5-2.1-2.5c-0.7,0-1.2,0.2-1.7,0.7c-0.4,0.5-0.7,1.2-0.7,2.1V73H109.5L109.5,73
			z"/>
		<path class="st1" d="M121.7,73.2c-0.9,0-1.7-0.2-2.4-0.7c-0.6-0.5-1-1.1-1.1-2h1.4c0.1,0.4,0.3,0.8,0.7,1.1
			c0.4,0.3,0.8,0.5,1.4,0.5s1-0.1,1.2-0.4s0.4-0.5,0.4-0.9c0-0.5-0.2-0.8-0.5-1c-0.4-0.2-0.8-0.3-1.5-0.4c-0.4-0.1-0.8-0.2-1.3-0.4
			c-0.4-0.2-0.8-0.4-1.1-0.7c-0.3-0.3-0.4-0.7-0.4-1.2c0-0.7,0.3-1.3,0.8-1.7c0.5-0.4,1.2-0.7,2.1-0.7c0.8,0,1.5,0.2,2.1,0.6
			c0.5,0.4,0.9,1,0.9,1.8h-1.3c0-0.4-0.2-0.7-0.5-0.9c-0.3-0.2-0.7-0.3-1.2-0.3s-0.8,0.1-1.1,0.3c-0.3,0.2-0.4,0.5-0.4,0.8
			s0.2,0.6,0.5,0.8c0.3,0.2,0.8,0.3,1.4,0.5c0.5,0.1,1,0.2,1.4,0.4c0.4,0.1,0.8,0.4,1.1,0.7c0.3,0.3,0.4,0.7,0.4,1.3
			c0,0.7-0.3,1.3-0.8,1.8C123.4,73,122.6,73.2,121.7,73.2z"/>
		<path class="st1" d="M127.4,63.3c-0.3,0-0.5-0.1-0.7-0.3s-0.3-0.4-0.3-0.7s0.1-0.5,0.3-0.6c0.2-0.2,0.4-0.3,0.7-0.3
			c0.3,0,0.5,0.1,0.7,0.3s0.3,0.4,0.3,0.6c0,0.3-0.1,0.5-0.3,0.7S127.7,63.3,127.4,63.3z M126.8,73v-7.9h1.3V73H126.8z"/>
		<path class="st1" d="M133.6,73c-0.7,0-1.3-0.2-1.7-0.5s-0.6-1-0.6-1.9v-4.4h-1.4v-1.1h1.4l0.2-1.9h1.2v1.9h2.3v1.1h-2.3v4.4
			c0,0.5,0.1,0.8,0.3,1s0.6,0.3,1.1,0.3h0.8V73H133.6z"/>
		<path class="st1" d="M137.5,76.5l2-4.3H139l-3.1-7.2h1.5l2.6,6.2l2.8-6.2h1.4L139,76.5H137.5z"/>
		<path class="st1" d="M21.9,95V83.8h1.3V95H21.9z"/>
		<path class="st1" d="M25.5,95v-7.9h1.2l0.1,1.4c0.3-0.5,0.6-0.9,1.1-1.2s1-0.4,1.6-0.4c0.9,0,1.7,0.3,2.2,0.9
			c0.6,0.6,0.8,1.4,0.8,2.6V95h-1.3v-4.5c0-1.6-0.7-2.5-2-2.5c-0.7,0-1.2,0.2-1.7,0.7s-0.7,1.2-0.7,2.1V95H25.5L25.5,95z"/>
		<path class="st1" d="M37.8,95c-0.7,0-1.3-0.2-1.7-0.5s-0.6-1-0.6-1.9v-4.4h-1.4v-1.1h1.4l0.2-1.9h1.2v1.9h2.3v1.1h-2.3v4.4
			c0,0.5,0.1,0.8,0.3,1s0.6,0.3,1.1,0.3H39V95H37.8z"/>
		<path class="st1" d="M44.2,95.2c-0.8,0-1.4-0.2-2-0.5c-0.6-0.4-1-0.8-1.4-1.4c-0.3-0.6-0.5-1.4-0.5-2.2c0-0.8,0.2-1.6,0.5-2.2
			s0.8-1.1,1.4-1.5c0.6-0.4,1.3-0.5,2.1-0.5s1.4,0.2,2,0.5s1,0.8,1.3,1.4S48,90,48,90.6c0,0.1,0,0.2,0,0.3c0,0.1,0,0.2,0,0.4h-6.3
			c0,0.6,0.2,1.1,0.4,1.5s0.6,0.7,0.9,0.9c0.4,0.2,0.8,0.3,1.2,0.3c0.6,0,1-0.1,1.4-0.4s0.7-0.6,0.8-1h1.3c-0.2,0.7-0.6,1.4-1.2,1.8
			C45.9,95,45.1,95.2,44.2,95.2z M44.2,88c-0.6,0-1.2,0.2-1.7,0.6s-0.8,1-0.9,1.7h5c0-0.7-0.3-1.3-0.7-1.7
			C45.4,88.2,44.8,88,44.2,88z"/>
		<path class="st1" d="M49.7,95v-7.9h1.2l0.1,1.5c0.2-0.5,0.6-0.9,1.1-1.2s1.1-0.5,1.9-0.5v1.4h-0.4c-0.5,0-0.9,0.1-1.3,0.2
			c-0.4,0.2-0.7,0.5-0.9,0.8c-0.2,0.4-0.4,0.9-0.4,1.6v4L49.7,95L49.7,95z"/>
		<path class="st1" d="M57.8,95l-3-7.9h1.4l2.4,6.6l2.4-6.6h1.4l-3,7.9H57.8z"/>
		<path class="st1" d="M66.1,95.2c-0.7,0-1.2-0.1-1.6-0.3c-0.4-0.2-0.8-0.5-1-0.9s-0.3-0.8-0.3-1.2c0-0.8,0.3-1.4,0.9-1.9
			c0.6-0.4,1.5-0.7,2.5-0.7h2.1v-0.1c0-0.7-0.2-1.2-0.5-1.6S67.4,88,66.7,88c-0.5,0-1,0.1-1.3,0.4s-0.6,0.6-0.7,1.1h-1.4
			c0.1-0.6,0.2-1.1,0.6-1.5c0.3-0.4,0.8-0.7,1.3-0.9c0.5-0.2,1-0.3,1.6-0.3c1.1,0,1.9,0.3,2.5,0.9s0.8,1.4,0.8,2.4V95h-1.2l-0.1-1.4
			c-0.2,0.4-0.5,0.8-1,1.1C67.4,95,66.8,95.2,66.1,95.2z M66.3,94.1c0.5,0,0.9-0.1,1.3-0.4s0.7-0.6,0.8-1c0.2-0.4,0.3-0.9,0.3-1.3
			l0,0h-2c-0.8,0-1.3,0.1-1.7,0.4c-0.3,0.3-0.5,0.6-0.5,1s0.2,0.8,0.5,1C65.3,93.9,65.7,94.1,66.3,94.1z"/>
		<path class="st1" d="M72.1,95V83.5h1.3V95H72.1z"/>
		<path class="st1" d="M82.6,95V84.9h-3.3v-1.1h8v1.1H84V95H82.6z"/>
		<path class="st1" d="M87.9,95v-7.9h1.2l0.1,1.5c0.2-0.5,0.6-0.9,1.1-1.2s1.1-0.5,1.9-0.5v1.4h-0.4c-0.5,0-0.9,0.1-1.3,0.2
			c-0.4,0.2-0.7,0.5-0.9,0.8c-0.2,0.4-0.3,0.9-0.3,1.6v4L87.9,95L87.9,95z"/>
		<path class="st1" d="M96.4,95.2c-0.7,0-1.2-0.1-1.7-0.3c-0.4-0.2-0.8-0.5-1-0.9s-0.3-0.8-0.3-1.2c0-0.8,0.3-1.4,0.9-1.9
			c0.6-0.4,1.5-0.7,2.5-0.7H99v-0.1c0-0.7-0.2-1.2-0.5-1.6S97.7,88,97,88c-0.5,0-1,0.1-1.4,0.4S95,89,94.9,89.5h-1.4
			c0.1-0.6,0.2-1.1,0.6-1.5c0.3-0.4,0.8-0.7,1.3-0.9c0.5-0.2,1-0.3,1.6-0.3c1.1,0,1.9,0.3,2.5,0.9s0.8,1.4,0.8,2.4V95h-1.2L99,93.6
			c-0.2,0.4-0.6,0.8-1,1.1C97.7,95,97.1,95.2,96.4,95.2z M96.6,94.1c0.5,0,0.9-0.1,1.3-0.4s0.7-0.6,0.8-1c0.2-0.4,0.3-0.9,0.3-1.3
			l0,0h-2c-0.8,0-1.3,0.1-1.7,0.4c-0.3,0.3-0.5,0.6-0.5,1s0.1,0.8,0.5,1C95.6,93.9,96,94.1,96.6,94.1z"/>
		<path class="st1" d="M103.2,85.3c-0.3,0-0.5-0.1-0.7-0.3s-0.3-0.4-0.3-0.7c0-0.3,0.1-0.5,0.3-0.6c0.2-0.2,0.4-0.3,0.7-0.3
			c0.3,0,0.5,0.1,0.7,0.3c0.2,0.2,0.3,0.4,0.3,0.6c0,0.3-0.1,0.5-0.3,0.7S103.5,85.3,103.2,85.3z M102.6,95v-7.9h1.3V95H102.6z"/>
		<path class="st1" d="M106.2,95v-7.9h1.2l0.1,1.4c0.3-0.5,0.6-0.9,1.1-1.2c0.5-0.3,1-0.4,1.6-0.4c0.9,0,1.7,0.3,2.2,0.9
			c0.6,0.6,0.8,1.4,0.8,2.6V95H112v-4.5c0-1.6-0.7-2.5-2.1-2.5c-0.7,0-1.2,0.2-1.7,0.7c-0.4,0.5-0.7,1.2-0.7,2.1V95H106.2L106.2,95z
			"/>
		<path class="st1" d="M116.2,85.3c-0.3,0-0.5-0.1-0.7-0.3c-0.2-0.2-0.3-0.4-0.3-0.7c0-0.3,0.1-0.5,0.3-0.6c0.2-0.2,0.4-0.3,0.7-0.3
			c0.3,0,0.5,0.1,0.7,0.3c0.2,0.2,0.3,0.4,0.3,0.6c0,0.3-0.1,0.5-0.3,0.7C116.7,85.2,116.5,85.3,116.2,85.3z M115.5,95v-7.9h1.3V95
			H115.5z"/>
		<path class="st1" d="M119.2,95v-7.9h1.2l0.1,1.4c0.3-0.5,0.6-0.9,1.1-1.2s1-0.4,1.6-0.4c0.9,0,1.7,0.3,2.2,0.9
			c0.6,0.6,0.8,1.4,0.8,2.6V95H125v-4.5c0-1.6-0.7-2.5-2.1-2.5c-0.7,0-1.2,0.2-1.7,0.7s-0.7,1.2-0.7,2.1V95H119.2L119.2,95z"/>
		<path class="st1" d="M131.5,92.5c-0.4,0-0.9-0.1-1.2-0.2l-0.8,0.8c0.1,0.1,0.3,0.2,0.4,0.2c0.2,0.1,0.4,0.1,0.8,0.2
			s0.8,0.1,1.4,0.1c1.1,0.1,1.8,0.3,2.3,0.7c0.5,0.4,0.7,1,0.7,1.6c0,0.5-0.1,0.9-0.4,1.3c-0.2,0.4-0.6,0.8-1.2,1
			c-0.5,0.3-1.2,0.4-2,0.4c-0.7,0-1.4-0.1-1.9-0.3c-0.5-0.2-1-0.5-1.3-0.9s-0.5-0.9-0.5-1.4c0-0.3,0.1-0.6,0.2-1
			c0.2-0.4,0.5-0.7,0.9-1c-0.2-0.1-0.4-0.2-0.6-0.3c-0.2-0.1-0.3-0.2-0.5-0.4v-0.4l1.4-1.3c-0.6-0.5-0.9-1.2-0.9-2.1
			c0-0.5,0.1-1,0.4-1.4c0.2-0.4,0.6-0.8,1.1-1s1-0.4,1.7-0.4c0.5,0,0.9,0.1,1.2,0.2h2.9v1l-1.5,0.1c0.3,0.4,0.5,1,0.5,1.6
			c0,0.5-0.1,1-0.4,1.4c-0.2,0.4-0.6,0.8-1.1,1C132.7,92.4,132.2,92.5,131.5,92.5z M129.2,96c0,0.5,0.2,0.9,0.7,1.2
			c0.4,0.3,1,0.4,1.7,0.4s1.2-0.1,1.6-0.4c0.4-0.3,0.6-0.7,0.6-1.2c0-0.3-0.1-0.6-0.4-0.9c-0.3-0.2-0.8-0.4-1.5-0.4
			c-0.6,0-1.1-0.1-1.5-0.2c-0.4,0.2-0.7,0.5-0.9,0.8C129.2,95.6,129.2,95.8,129.2,96z M131.5,91.4c0.6,0,1-0.2,1.4-0.4
			c0.3-0.3,0.5-0.7,0.5-1.3c0-0.5-0.2-1-0.5-1.3s-0.8-0.4-1.4-0.4c-0.6,0-1,0.1-1.4,0.4c-0.3,0.3-0.5,0.7-0.5,1.3s0.2,1,0.5,1.3
			C130.5,91.3,130.9,91.4,131.5,91.4z"/>
		<path class="st2" d="M30.3,102.6c-3.3,4.5-5.8,10.4-5.8,18.7c0,8.1,2.5,14,5.8,18.6h-3.1c-2.9-3.8-6-9.6-6-18.6s3.1-14.9,6-18.7
			C27.2,102.6,30.3,102.6,30.3,102.6z"/>
		<path class="st2" d="M33.9,105.7c0.2-0.2,0.5-0.2,0.8-0.2c0.7,0,1.2,0.2,1.6,0.6l0.6,0.6c0,1.1,0.1,2.7,0.1,4.9c0,2.2,0,3.8,0,4.9
			l0.7-0.1c0.5-0.1,0.8-0.2,1-0.3c0.2-0.2,0.3-1.6,0.3-4.3c0-2.7,0.1-4.3,0.3-4.6c0.3-0.5,0.9-0.7,1.7-0.7c0.4,0,0.8,0.1,1,0.3
			c0.3,0.2,0.5,0.6,0.5,1s0,0.7,0,1c-0.1,1.3-0.2,4.7-0.2,10.3s0.1,8.7,0.2,9.4c0.1,0.5,0.1,0.9,0.1,1.2c0,0.4-0.1,0.6-0.2,0.8
			c-0.1,0.1-0.4,0.3-0.8,0.4h-0.1c-0.1,0-0.1,0-0.1,0c-0.4,0-0.8-0.1-1.3-0.3s-0.8-0.5-0.9-0.7c0-0.1-0.1-1.7-0.2-5
			c-0.1-3.3-0.2-4.9-0.2-4.9c-0.1-0.1-0.3-0.2-0.5-0.2c-0.1,0-0.3,0-0.6,0.1s-0.4,0.1-0.5,0.1s-0.1,0.5-0.1,1.4
			c0,1.2,0.1,2.6,0.2,4.2c0.1,1.6,0.2,2.6,0.4,2.9c0.1,0.3,0.2,0.7,0.2,1c0,0.6-0.2,1-0.7,1.2c-0.3,0.1-0.6,0.1-0.9,0.1
			c-0.9,0-1.6-0.2-2.1-0.6c-0.2-0.2-0.4-0.9-0.4-2.1c0-1.1-0.1-4.6-0.1-10.2c0-5.1,0-8.4,0.1-9.8C33.7,106.6,33.8,105.8,33.9,105.7z
			"/>
		<path class="st2" d="M47.7,106c0.4-0.3,0.8-0.4,1.3-0.4c0.6,0,1.1,0.2,1.5,0.6c0.3,0.3,0.4,0.8,0.5,1.3c0.1,0.6,0.1,2.5,0.2,5.7
			c0.2,6.2,0.2,9.9,0.3,11.2v4.9l-0.7,0.4c-0.4,0.2-0.7,0.3-0.8,0.3c-0.2,0-0.6-0.1-1-0.3c-0.7-0.3-1.1-0.5-1.2-0.6
			c-0.1-0.1-0.2-2.4-0.2-6.9v-2.1c0-5.6-0.1-9.3-0.2-11.2c-0.1-1.1-0.1-1.7-0.1-1.8C47.2,106.6,47.4,106.2,47.7,106z"/>
		<path class="st2" d="M56.5,106c0.4-0.3,0.8-0.4,1.3-0.4c0.6,0,1.1,0.2,1.5,0.6c0.3,0.3,0.4,0.8,0.5,1.3c0.1,0.6,0.1,2.5,0.2,5.7
			c0.2,6.2,0.2,9.9,0.3,11.2v4.9l-0.7,0.4c-0.4,0.2-0.7,0.3-0.8,0.3c-0.2,0-0.5-0.1-1-0.3c-0.7-0.3-1.1-0.5-1.2-0.6
			c-0.2-0.1-0.2-2.4-0.2-6.9v-2.1c0-5.6-0.1-9.3-0.2-11.2c-0.1-1.1-0.1-1.7-0.1-1.8C56,106.6,56.2,106.2,56.5,106z"/>
		<path class="st2" d="M65.9,104.8c0.5-0.4,1-0.6,1.8-0.6c0.1,0,0.3,0,0.6,0c0.3,0,0.5,0,0.7,0c3.1,0.1,5,0.4,5.7,0.7
			c0.6,0.3,0.8,0.7,0.8,1.3c0,0.2-0.1,0.6-0.2,0.9c-0.2,0.4-0.7,0.7-1.4,0.8c-0.7,0.1-1.1,0.2-1.2,0.4c-0.1,0.1-0.2,3-0.2,8.6
			c0,2.2,0,5.6,0.1,10.2v0.6c0,0.5,0,0.9-0.1,1.1s-0.2,0.4-0.5,0.7c-0.4,0.4-0.8,0.6-1.2,0.6c-0.4,0-0.8-0.2-1.2-0.5
			c-0.4-0.2-0.6-0.5-0.7-0.7s-0.1-0.8-0.2-1.7c0-0.3,0-1.1,0-2.3c0-1.2,0-2.2,0-3c0-0.7,0-1.9,0-3.7c0-1.8,0-3.2,0-4.3v-2.1
			c0-2,0-3.1-0.1-3.3c-0.1-0.3-0.6-0.5-1.4-0.6c-0.9-0.1-1.4-0.3-1.7-0.6c-0.2-0.3-0.4-0.7-0.4-1.1
			C65.1,105.6,65.4,105.1,65.9,104.8z"/>
		<path class="st2" d="M78.8,139.8c3.2-4.5,5.8-10.5,5.8-18.7s-2.5-14-5.8-18.6H82c2.9,3.8,6,9.6,6,18.6s-3.1,14.8-6,18.6
			L78.8,139.8L78.8,139.8z"/>
		<path class="st2" d="M95,125.2c0.2-0.2,0.5-0.3,0.8-0.3c0.2,0,0.4,0,0.6,0.1c0.8,0.1,1.2,0.2,1.3,0.3c0.1,0.1,0.2,0.3,0.2,0.7
			c0,0.8-0.3,2-1,3.5c0,0.1-0.1,0.3-0.2,0.6s-0.2,0.5-0.3,0.7c-0.4,1.2-1,1.7-1.7,1.7h-0.2c-0.5-0.1-0.9-0.4-1.1-1
			c-0.1-0.4-0.2-0.7-0.2-0.9s0.1-0.9,0.4-2.1C94.1,126.8,94.5,125.7,95,125.2z"/>
		<path class="st3" d="M219.5,128.3c39.9,0,72.2-4.7,72.2-10.5s-32.3-10.5-72.2-10.5s-72.2,4.7-72.2,10.5
			C147.3,123.6,179.6,128.3,219.5,128.3z"/>
		<path class="st2" d="M195.6,93.8c0,0,12.9,18.2,7.9,21.3c-4.9,3-22-8.9-19.9-21.3C185.8,81.4,195.6,93.8,195.6,93.8z"/>
		<path class="st2" d="M242,73.7c-1-2.2-3.4-3.5-5.7-2.7c-1.7,0.6-3.2,2.4-3.1,6.2c-0.2,12.1,5.8,48.9,25.4,36.7
			c8.6-5.3,1.3-15.1-5.6-23C247.3,84.5,243.6,77.2,242,73.7z"/>
		<path class="st4" d="M222.8,26.2c0,0,31,25.9,54.6,11.2C277.5,37.4,261.2,16.1,222.8,26.2z"/>
		<path class="st5" d="M241,11.4c0,0,5.4,27.7,41,32C282,43.4,282.5,31.4,241,11.4z"/>
		<path class="st6" d="M282.8,42.4c-6.5-13.2-34-20.1-91.2-6.1c-47.7,11.7-34.2,58-30.9,75.7c2.5,13.1,16.8,1.8,24.3-3.4
			c15.6-10.7,19.4,3.7,40.5,4C290.2,113.7,295.2,67.6,282.8,42.4z"/>
		<path d="M231.3,84.9c1-0.2,1.7-1.6,2.1-2.6h-1.3c-0.4,0-0.8-0.3-0.9-0.8l-0.1-1.4c0-0.5,0.3-0.8,0.8-0.9h1.3
			c-0.5-1.1-1.1-3.1-2-3.1c-1.2,0-3.8,1.2-3.7,4.7S229.9,85.2,231.3,84.9z"/>
		<path class="st0" d="M231.2,80.1l0.1,1.4c0,0.4,0.4,0.8,0.8,0.8h1.3c0.1-0.4,0.2-0.9,0.2-1.4c0-0.6-0.1-1.1-0.4-1.6h-1.3
			C231.6,79.3,231.2,79.7,231.2,80.1z"/>
		<path class="st4" d="M301.1,62.1c0,0-6,2.5-11.2-2.7C289.9,59.4,292.1,57.9,301.1,62.1z"/>
		<path class="st4" d="M286.2,68.6c0,0-6.6-8.1,1.4-14.3C287.6,54.3,290,58.4,286.2,68.6z"/>
		<path class="st7" d="M282.6,48.9c0.7,0.2,10.6,9.1,9.8,23.3"/>
		<path class="st8" d="M295.1,76c0,0,10,0,10.1-4.2C305.2,67.6,294.8,73.1,295.1,76z"/>
		<path class="st8" d="M295.2,76c0,0,8.9-6.6,5.2-8.6C296.8,65.3,292.5,74.8,295.2,76z"/>
		<path class="st8" d="M293.5,76.6c0,0,6.3-8.5,1.8-9.1C290.7,66.9,290.3,76.4,293.5,76.6z"/>
		<path class="st8" d="M293.1,77.5c0,0,8.8,5.9,9.1,1.4C302.7,74.4,293.1,74.3,293.1,77.5z"/>
		<path class="st8" d="M293,76.2c0,0-7.7,7.3-3.3,8.6C294,86.1,296.1,76.8,293,76.2z"/>
		<path class="st8" d="M292,76c0,0,1.4,8.5,4.4,6.6C299.4,80.6,293.9,74.4,292,76z"/>
		<path class="st8" d="M292.5,76.6c0,0-4.6,8.9-8.4,7C280.4,81.6,290.1,75,292.5,76.6z"/>
		<path class="st8" d="M293,77.1c0,0-9.9,4.8-10.1,0.7C282.8,73.6,293.2,74.2,293,77.1z"/>
		<path class="st8" d="M293.7,77.3c0,0-10.2-2.7-7.1-6C289.8,68,296.1,75.2,293.7,77.3z"/>
		<path class="st9" d="M294.8,78.5c2.8-1.7,4.6-4.1,3.8-5.2c-0.7-1.2-3.6-0.7-6.4,1s-4.6,4.1-3.8,5.2
			C289.1,80.6,292,80.2,294.8,78.5z"/>
		<path d="M241.7,67.9c2.1,0,3.8-1.7,3.8-3.8c0-2.1-1.7-3.8-3.8-3.8s-3.8,1.7-3.8,3.8S239.6,67.9,241.7,67.9z"/>
		<path d="M242.6,97.7c2.1,0,3.8-1.7,3.8-3.8c0-2.1-1.7-3.8-3.8-3.8s-3.8,1.7-3.8,3.8S240.5,97.7,242.6,97.7z"/>
		<path class="st2" d="M222,77c-0.4-2.4-2.4-4.2-4.8-4c-1.8,0.2-3.7,1.5-4.6,5.2c-3.3,11.6-6.8,48.7,15.3,42
			c9.6-2.9,5.1-14.3,0.4-23.6C224.4,88.8,222.6,80.9,222,77z"/>
		<path class="st0" d="M263.6,37.8c0,0-2.1,12.7,3.8,11.5C270,48.7,273.8,41.5,263.6,37.8z"/>
	</g>
</g>
</svg>
