<?xml version="1.0" encoding="utf-8"?>
<!-- Generator: Adobe Illustrator 25.1.0, SVG Export Plug-In . SVG Version: 6.00 Build 0)  -->
<svg version="1.1" id="Layer_1" xmlns="http://www.w3.org/2000/svg" xmlns:xlink="http://www.w3.org/1999/xlink" x="0px" y="0px"
	 viewBox="0 0 335.4 147.4" style="enable-background:new 0 0 335.4 147.4;" xml:space="preserve">
<style type="text/css">
	.st0{fill:#FFFFFF;}
	.st1{fill:#E97443;}
	.st2{fill:#808080;}
	.st3{fill:#F4F1EF;}
	.st4{fill:#00CDDC;}
	.st5{fill:#28C86E;}
	.st6{fill:#3CDC82;}
	.st7{fill:#32DCD2;}
	.st8{fill:none;stroke:#28C86E;stroke-width:1.3685;stroke-linecap:round;stroke-miterlimit:10;}
	.st9{fill:#FFCF8D;}
	.st10{fill:#FF9F1A;}
</style>
<g>
	<g>
		<g>
			<path class="st0" d="M332.8,124.6c0-50.4,14.5-114-25.2-120.4C284.4,0.5,41.7-5.9,12.9,12.3C0.1,20.4-13.1,133.8,26,142.7
				c36.5,8.3,169.7,3.2,213.1,2.8C283.9,145.1,332.8,146.6,332.8,124.6z"/>
			<path class="st1" d="M195.4,46.7c0.4-0.1,0.8-0.2,1.1-0.2c0.8,0,1.4,0.3,1.7,0.8c0.2,0.3,0.5,1.6,0.7,3.9s0.4,4.7,0.5,7.4
				c0,0.9,0.1,2.1,0.2,3.7c0.1,1.6,0.1,3,0.2,4.1c0.1,1.2,0.1,2.1,0.1,2.8c0,0.4-0.2,0.7-0.7,1s-1,0.4-1.5,0.4s-0.8-0.1-1-0.3
				l-0.6-0.5l-0.1-5.5c-0.2-6.3-0.5-9.5-0.8-9.5c-0.2,0-0.6,0.8-1.1,2.4c-0.3,0.9-0.6,1.5-0.8,1.9c-0.3,0.4-0.7,0.5-1.1,0.5
				c-0.3,0-0.7-0.1-1.2-0.3c-0.5-0.2-0.9-0.7-1.3-1.4c-0.4-0.8-0.6-1.2-0.6-1.3c0-0.1-0.1-0.3-0.2-0.6c-0.2-0.3-0.3-0.6-0.5-0.9
				s-0.3-0.4-0.3-0.3v0.5c0,1.3,0.1,3.3,0.1,5.8l0.2,6.4l-0.6,1c-0.7,1-1.2,1.6-1.7,1.6c-0.3,0-0.6-0.2-0.9-0.7
				c-0.2-0.4-0.4-0.9-0.5-1.7c-0.1-0.8-0.1-3.1-0.2-6.9c-0.2-7.1-0.4-11.1-0.5-12c0-0.1-0.1-0.3-0.1-0.5c0-0.3,0.2-0.7,0.5-1
				c0.4-0.4,0.8-0.5,1.3-0.5s1.1,0.1,1.7,0.4c0.6,0.3,1.1,0.7,1.4,1.1c0.3,0.5,1.1,1.8,2.3,4c0.3,0.6,0.6,0.9,0.7,0.9
				c0.2,0,0.3-0.2,0.5-0.6c0.1-0.5,0.4-1.1,0.8-1.8c0.4-0.9,0.6-1.4,0.6-1.5c0-0.3,0.2-0.7,0.6-1.4
				C194.9,47.1,195.2,46.8,195.4,46.7z"/>
			<path class="st1" d="M204.9,44.7c0.4-0.4,0.8-0.6,1.4-0.6c0.6,0,1,0.2,1.4,0.6l0.6,0.6l0.3,10.3c0.2,5.7,0.2,9,0.2,9.8
				c0,0.5,0,0.8,0,1.1c0,0.3,0,0.5-0.1,0.7s-0.1,0.3-0.1,0.4c-0.1,0.1-0.1,0.2-0.1,0.2s-0.1,0.1-0.2,0.1s-0.2,0.1-0.2,0.1
				c-0.3,0.2-0.6,0.3-0.8,0.3c-0.1,0-0.4-0.1-0.9-0.2c-0.7-0.3-1.1-0.6-1.2-0.8c-0.1-0.2-0.2-3.8-0.3-11s-0.1-10.8-0.2-10.9
				C204.4,45.3,204.5,45,204.9,44.7z"/>
			<path class="st1" d="M214.5,46.3c0.5-0.2,0.9-0.3,1.4-0.3c0.9,0,1.5,0.6,1.8,1.7c0.2,0.9,0.6,1.8,1.1,2.8s0.8,1.8,1,2.3
				c0.3,1,0.6,1.6,0.8,1.9c0.1,0.1,0.2,0.2,0.2,0.2c0.1,0,0.2-0.7,0.4-2c0.1-1.2,0.1-2,0.1-2.5v-0.5c0-0.2,0-0.5,0-0.9
				c0-0.8,0.2-1.4,0.6-1.8c0.4-0.5,0.9-0.7,1.7-0.7c0.6,0,1,0.2,1.3,0.5c0.3,0.2,0.4,0.6,0.4,1c0,0.6,0,1.1-0.1,1.7
				c-0.1,0.5-0.1,4.2-0.2,11.1c0,4.3-0.1,6.9-0.1,7.8s-0.1,1.4-0.4,1.6c-0.3,0.3-0.8,0.5-1.5,0.5c-1.3,0-2.1-0.6-2.3-1.9
				c-0.1-0.5-0.4-1.4-0.9-2.7c-0.5-1.2-0.8-2.3-0.9-3.2c-0.2-1.2-0.7-2.9-1.3-5c-0.1-0.2-0.1-0.3-0.1-0.3c-0.2,0-0.2,1.3-0.2,3.8
				v2.2V66c0,2.5-0.1,3.9-0.2,4.2c-0.3,0.9-0.9,1.3-1.9,1.3c-0.6,0-1.1-0.2-1.4-0.6c-0.3-0.3-0.4-0.6-0.4-0.9c0-0.1,0-0.3,0.1-0.8
				c0.1-1,0.2-4.7,0.2-11c0-7,0.1-10.8,0.2-11.2c0.1-0.3,0.2-0.4,0.5-0.5C214.4,46.4,214.4,46.3,214.5,46.3z"/>
			<path class="st1" d="M230.6,47.3c0.1,0,0.9,0,2.3,0c1.6,0,2.8,0.4,3.6,1c0.8,0.7,1.5,1.8,1.9,3.5c0.5,1.7,0.7,3.5,0.7,5.7
				c0,0.5,0,1-0.1,1.5s-0.2,1.1-0.3,2.1c-0.1,0.9-0.2,1.7-0.4,2.5c-0.1,0.7-0.3,1.2-0.5,1.5c-0.2,0.2-0.2,0.5-0.2,0.8
				c0,0.2-0.1,0.7-0.5,1.3c-0.3,0.7-0.6,1.1-0.8,1.4c-0.4,0.4-0.9,0.8-1.6,1.2c-0.7,0.3-1.4,0.6-2.1,0.6c-0.6,0.1-0.9,0.1-1,0.1
				c-0.4,0-0.7-0.2-1.1-0.5l-0.6-0.6l0.1-7.7v-2.3c0-3.8-0.1-5.9-0.1-6.3c-0.2-1.2-0.3-2.3-0.3-3.2
				C229.8,48.3,230.1,47.4,230.6,47.3z M234.9,52.9c-0.5-1.6-0.8-2.4-1.1-2.4l-0.1,0.1v0.1c0,0.1,0,0.2,0,0.3s0,0.3,0,0.4
				c0,0.4,0,1.3,0.1,2.6c0.1,1.5,0.2,3.7,0.2,6.4c0,2.5,0.1,3.8,0.3,3.8c0.1,0,0.2-0.2,0.3-0.6c0.6-1.9,0.9-4,0.9-6.2
				C235.5,55.6,235.3,54.1,234.9,52.9z"/>
			<path class="st1" d="M244,60.3c-0.1-0.4-0.2-0.8-0.2-1.4c0-0.5,0.1-1,0.2-1.4l0.2-0.6l3.7-0.3c2-0.1,3.2-0.2,3.5-0.2
				c0.2,0,0.3,0,0.4,0s0.2,0,0.2,0l0.1,0.1c0,0.1,0.1,0.1,0.1,0.1s0,0.1,0,0.2s0,0.2,0,0.2c0.1,0.3,0.1,0.6,0.1,0.8
				c0,0.1,0,0.4-0.1,0.9c-0.1,0.7-0.2,1.1-0.3,1.2c0,0.1-1.4,0.2-3.9,0.3c-2.6,0.1-3.8,0.1-3.9,0.2C244.3,60.8,244.2,60.7,244,60.3z
				"/>
			<path class="st1" d="M259,45.6c0.3-0.1,0.7-0.2,1.2-0.2c1,0,2.1,0.2,3.2,0.7s1.9,1,2.3,1.7c0.5,0.7,0.7,1.5,0.7,2.4
				c0,1-0.3,2.4-1,4l-0.5,1.2l0.8,0.8c0.5,0.5,1,1.2,1.4,1.9c0.3,0.8,0.5,1.5,0.5,2.2s0,1.3-0.1,1.8c-0.1,1.3-0.1,2.2-0.2,2.6
				s-0.3,1-0.7,1.7c-0.7,1.5-1.4,2.4-1.9,2.9c-0.6,0.5-1.4,0.7-2.5,0.7c-1.2,0-2,0-2.2,0h-0.1c-0.5,0-0.9-0.2-1.3-0.8
				s-0.7-1.1-0.8-1.8c0-0.1-0.1-0.5-0.1-1c0-0.9,0.1-1.8,0.1-2.7c0.2-1.5,0.3-5.4,0.3-11.6c0-3.2,0-4.9-0.1-5.1c0,0-0.1-0.1-0.1-0.2
				c0-0.2,0.1-0.5,0.3-0.8C258.5,45.9,258.7,45.7,259,45.6z M263.5,59c-0.1-0.2-0.4-0.4-0.8-0.4c-0.3,0-0.6,0.1-0.8,0.5
				c-0.2,0.3-0.3,2-0.3,4.9c0,1.5,0,2.2,0.1,2.3h0.1c0.1,0,0.4-0.2,0.7-0.7s0.6-1,0.8-1.6c0.3-0.8,0.5-1.8,0.5-3.2
				C263.8,59.9,263.7,59.3,263.5,59z M262.5,50c-0.1-0.3-0.2-0.4-0.4-0.4c-0.2,0-0.3,0.6-0.3,1.8c0,1.1,0,1.6,0.1,1.6l0,0
				c0.1-0.2,0.3-0.5,0.4-0.9c0.1-0.5,0.2-0.8,0.2-1.1c0-0.1,0-0.3,0-0.5C262.5,50.3,262.5,50.1,262.5,50z"/>
			<path class="st1" d="M273.5,45.9l0.8-1h5.7l0.9,0.9c0.6,0.6,1,1.3,1.2,2.2s0.4,2.3,0.6,4.1c0.1,0.7,0.1,1.7,0.1,3.1
				c0,3.1-0.3,5.9-0.9,8.5c-0.6,2.5-1.3,4.3-2.3,5.2c-0.3,0.3-0.8,0.6-1.3,0.8c-0.6,0.2-1.1,0.3-1.5,0.3c-0.2,0-0.3,0-0.5-0.1
				c-0.2-0.2-0.6-0.2-1-0.2c-0.3,0-0.7-0.2-1.1-0.8c-0.4-0.5-0.7-1.1-1-1.8c-0.4-1.2-0.7-2.5-0.9-3.9c-0.1-1.4-0.2-3.7-0.2-6.8v-2.1
				c0-2.9,0.1-4.8,0.2-5.8C272.6,47.4,273,46.6,273.5,45.9z M277.8,48.1c-0.3-0.6-0.5-0.9-0.7-0.9s-0.5,0.5-0.8,1.4
				c-0.2,0.7-0.4,2.1-0.4,4.2c0,1.7,0.1,3.4,0.2,5.2c0.1,1.7,0.3,3.4,0.6,4.9c0.3,1.5,0.5,2.3,0.7,2.3c0.1,0,0.3-0.3,0.4-1
				c0.2-0.5,0.3-1,0.5-1.4c0.1-0.2,0.2-1.5,0.4-4c0.1-1.3,0.1-2.5,0.1-3.6C278.9,52,278.5,49.6,277.8,48.1z"/>
			<path class="st1" d="M288.3,46.5c0.1,0,0.9,0,2.3,0c1.6,0,2.8,0.4,3.6,1c0.8,0.7,1.5,1.8,1.9,3.5c0.5,1.7,0.7,3.5,0.7,5.7
				c0,0.5,0,1-0.1,1.5s-0.2,1.1-0.3,2.1c-0.1,0.9-0.2,1.7-0.4,2.5c-0.1,0.7-0.3,1.2-0.5,1.5c-0.1,0.2-0.2,0.5-0.2,0.8
				c0,0.2-0.2,0.7-0.5,1.3c-0.3,0.7-0.6,1.1-0.8,1.4c-0.4,0.4-0.9,0.8-1.6,1.2c-0.7,0.3-1.4,0.6-2.1,0.6c-0.5,0.1-0.9,0.1-1,0.1
				c-0.4,0-0.7-0.2-1-0.5l-0.6-0.6l0.1-7.7v-2.3c0-3.8-0.1-5.9-0.1-6.3c-0.2-1.2-0.3-2.3-0.3-3.2C287.5,47.5,287.8,46.6,288.3,46.5z
				 M292.6,52.1c-0.5-1.6-0.8-2.4-1.1-2.4l-0.1,0.1l-0.1,0.1c0,0.1,0,0.2,0,0.3c0,0.1,0,0.3,0,0.4c0,0.4,0,1.3,0.1,2.6
				c0.1,1.6,0.2,3.7,0.2,6.4c0,2.5,0.1,3.8,0.3,3.8c0.1,0,0.2-0.2,0.3-0.6c0.6-1.9,0.9-4,0.9-6.2C293.1,54.8,293,53.3,292.6,52.1z"
				/>
			<path class="st1" d="M303.8,44.5c0.5-0.2,0.9-0.3,1.2-0.3c0.5,0,0.9,0.2,1.2,0.5c0.4,0.4,0.6,1.2,0.6,2.3c0.1,2.1,0.5,4,1.2,5.8
				c0.2,0.5,0.3,1,0.3,1.3c0,0.1,0,0.2,0.1,0.3s0.1,0.1,0.2,0c0.2-0.1,0.3-0.6,0.3-1.4s0.1-1.3,0.1-1.4c0.1-0.1,0.1-1,0.2-2.9
				c0.1-1.8,0.1-3,0.1-3.4c0-0.2,0.4-0.5,1-0.7c0.6-0.3,1.2-0.4,1.6-0.4c0.7,0,1.2,0.2,1.5,0.7c0.3,0.4,0.4,0.8,0.4,1.1
				c0,0.4-0.1,1.9-0.4,4.8c-0.1,0.5-0.2,2.2-0.4,4.9c-0.1,2-0.6,4.5-1.3,7.3c-0.4,1.5-0.7,2.6-1.1,3.4s-0.9,1.6-1.6,2.3
				c-0.4,0.4-0.7,0.6-0.9,0.6c-0.2,0-0.4,0.2-0.5,0.5c-0.2,0.3-0.5,0.6-1.1,0.8c-0.6,0.2-1.2,0.3-1.8,0.3c-0.5,0-1.1-0.2-1.7-0.5
				c-0.7-0.3-1-0.7-1-0.9c0-0.3,0.2-0.7,0.5-1.1c0.4-0.4,0.8-0.7,1.3-1c0.9-0.4,1.6-1,2.1-1.8s1-1.9,1.5-3.3c0.5-1.6,0.8-2.6,0.8-3
				c0-0.3-0.2-0.6-0.7-0.8c-1.3-0.6-2.2-1.2-2.6-2c-0.2-0.4-0.7-2.4-1.4-5.9c-0.4-1.7-0.6-3-0.6-4C302.7,45.6,303.1,44.9,303.8,44.5
				z"/>
			<path class="st2" d="M186.8,37.3c-0.8,0-1.4-0.2-2-0.5s-1.1-0.8-1.4-1.5c-0.4-0.6-0.5-1.4-0.5-2.2c0-0.8,0.2-1.6,0.5-2.2
				s0.8-1.1,1.4-1.5c0.6-0.3,1.3-0.5,2-0.5s1.4,0.2,2,0.5s1.1,0.8,1.4,1.5c0.4,0.6,0.5,1.4,0.5,2.2c0,0.8-0.2,1.6-0.5,2.2
				c-0.4,0.6-0.8,1.1-1.4,1.5S187.5,37.3,186.8,37.3z M186.8,36.1c0.5,0,0.9-0.1,1.3-0.3c0.4-0.2,0.7-0.6,1-1s0.4-1,0.4-1.7
				s-0.1-1.2-0.4-1.7c-0.2-0.4-0.6-0.8-0.9-1c-0.4-0.2-0.8-0.3-1.3-0.3s-0.9,0.1-1.3,0.3c-0.4,0.2-0.7,0.6-1,1s-0.4,1-0.4,1.7
				s0.1,1.2,0.4,1.7s0.6,0.8,0.9,1C185.9,36,186.3,36.1,186.8,36.1z"/>
			<path class="st2" d="M192.6,37.1v-7.9h1.2l0.1,1.5c0.2-0.5,0.6-0.9,1.1-1.2s1.1-0.5,1.9-0.5v1.4h-0.4c-0.5,0-0.9,0.1-1.3,0.2
				c-0.4,0.2-0.7,0.5-0.9,0.8S194,32.3,194,33v4h-1.4V37.1z"/>
			<path class="st2" d="M186.7,92c-0.8,0-1.4-0.2-2-0.5s-1.1-0.8-1.4-1.4c-0.3-0.6-0.5-1.4-0.5-2.2c0-0.8,0.2-1.6,0.5-2.2
				s0.8-1.1,1.4-1.5c0.6-0.4,1.3-0.5,2.1-0.5s1.4,0.2,2,0.5s1,0.8,1.3,1.4s0.4,1.2,0.4,1.8c0,0.1,0,0.2,0,0.3s0,0.2,0,0.4h-6.3
				c0,0.6,0.2,1.1,0.4,1.5s0.6,0.7,0.9,0.9c0.4,0.2,0.8,0.3,1.2,0.3c0.5,0,1-0.1,1.4-0.4s0.6-0.6,0.8-1h1.3
				c-0.2,0.7-0.6,1.4-1.2,1.8C188.4,91.7,187.6,92,186.7,92z M186.7,84.8c-0.6,0-1.2,0.2-1.7,0.6s-0.8,1-0.9,1.7h5
				c0-0.7-0.3-1.3-0.7-1.7C187.9,85,187.4,84.8,186.7,84.8z"/>
			<path class="st2" d="M191.1,91.8l2.8-4l-2.8-4h1.5l2.2,3.3l2.2-3.3h1.4l-2.8,4l2.8,4H197l-2.2-3.3l-2.2,3.3H191.1z"/>
			<path class="st2" d="M203.1,92c-0.8,0-1.4-0.2-2-0.5s-1.1-0.8-1.4-1.4c-0.3-0.6-0.5-1.4-0.5-2.2c0-0.8,0.2-1.6,0.5-2.2
				s0.8-1.1,1.4-1.5c0.6-0.4,1.3-0.5,2.1-0.5s1.4,0.2,2,0.5s1,0.8,1.3,1.4s0.5,1.2,0.5,1.8c0,0.1,0,0.2,0,0.3c0,0.1,0,0.2,0,0.4
				h-6.5c0,0.6,0.2,1.1,0.4,1.5s0.6,0.7,0.9,0.9c0.4,0.2,0.8,0.3,1.2,0.3c0.5,0,1-0.1,1.4-0.4s0.6-0.6,0.8-1h1.3
				c-0.2,0.7-0.6,1.4-1.2,1.8C204.8,91.7,204,92,203.1,92z M203.1,84.8c-0.6,0-1.2,0.2-1.7,0.6s-0.8,1-0.9,1.7h5
				c0-0.7-0.3-1.3-0.7-1.7C204.3,85,203.7,84.8,203.1,84.8z"/>
			<path class="st2" d="M208.6,91.8v-7.9h1.2l0.1,1.5c0.2-0.5,0.6-0.9,1.1-1.2s1.1-0.5,1.9-0.5v1.4h-0.4c-0.5,0-0.9,0.1-1.3,0.2
				c-0.4,0.2-0.7,0.4-0.9,0.8S210,87,210,87.7v4h-1.4V91.8z"/>
			<path class="st2" d="M217.8,92c-0.8,0-1.4-0.2-2-0.5s-1.1-0.8-1.4-1.5c-0.4-0.6-0.5-1.4-0.5-2.2c0-0.8,0.2-1.6,0.5-2.2
				s0.8-1.1,1.4-1.5c0.6-0.4,1.3-0.5,2-0.5c0.9,0,1.7,0.2,2.4,0.7s1.1,1.2,1.2,2H220c-0.1-0.5-0.4-0.9-0.8-1.1s-0.9-0.4-1.5-0.4
				c-0.5,0-0.9,0.1-1.3,0.3c-0.4,0.2-0.7,0.6-1,1s-0.4,1-0.4,1.7s0.1,1.2,0.4,1.7s0.6,0.8,1,1s0.8,0.3,1.3,0.3s1-0.1,1.5-0.4
				c0.4-0.3,0.7-0.7,0.8-1.2h1.4c-0.2,0.8-0.6,1.5-1.2,2C219.5,91.7,218.7,92,217.8,92z"/>
			<path class="st2" d="M224,82.1c-0.3,0-0.5-0.1-0.7-0.3c-0.2-0.2-0.3-0.4-0.3-0.7s0.1-0.5,0.3-0.6c0.2-0.2,0.4-0.3,0.7-0.3
				s0.5,0.1,0.7,0.3c0.2,0.2,0.3,0.4,0.3,0.6c0,0.3-0.1,0.5-0.3,0.7C224.5,82,224.3,82.1,224,82.1z M223.4,91.8v-7.9h1.3v7.9H223.4z
				"/>
			<path class="st2" d="M230.1,92c-1,0-1.7-0.2-2.4-0.7c-0.6-0.5-1-1.1-1.1-2h1.4c0.1,0.4,0.3,0.8,0.7,1.1c0.4,0.3,0.8,0.5,1.4,0.5
				c0.6,0,1-0.1,1.2-0.4c0.3-0.2,0.4-0.5,0.4-0.9c0-0.5-0.2-0.8-0.5-1s-0.8-0.3-1.5-0.4c-0.4-0.1-0.8-0.2-1.3-0.4
				c-0.4-0.2-0.8-0.4-1.1-0.7c-0.3-0.3-0.4-0.7-0.4-1.2c0-0.7,0.3-1.3,0.8-1.7c0.5-0.4,1.2-0.7,2.1-0.7c0.8,0,1.5,0.2,2.1,0.6
				c0.5,0.4,0.8,1,0.9,1.8h-1.3c-0.1-0.4-0.2-0.7-0.5-1c-0.3-0.2-0.7-0.3-1.2-0.3s-0.8,0.1-1.1,0.3c-0.3,0.2-0.4,0.5-0.4,0.8
				s0.2,0.6,0.5,0.8c0.3,0.2,0.8,0.3,1.4,0.5c0.5,0.1,1,0.2,1.4,0.4c0.4,0.1,0.8,0.4,1.1,0.7c0.3,0.3,0.4,0.7,0.4,1.3
				c0,0.7-0.3,1.3-0.8,1.8C231.8,91.7,231,92,230.1,92z"/>
			<path class="st2" d="M238.6,92c-0.8,0-1.4-0.2-2-0.5s-1-0.8-1.4-1.4c-0.3-0.6-0.5-1.4-0.5-2.2c0-0.8,0.2-1.6,0.5-2.2
				s0.8-1.1,1.4-1.5c0.6-0.4,1.3-0.5,2.1-0.5s1.4,0.2,2,0.5s1,0.8,1.3,1.4s0.4,1.2,0.4,1.8c0,0.1,0,0.2,0,0.3c0,0.1,0,0.2,0,0.4
				h-6.3c0,0.6,0.2,1.1,0.4,1.5s0.6,0.7,0.9,0.9c0.4,0.2,0.8,0.3,1.2,0.3c0.5,0,1-0.1,1.4-0.4s0.7-0.6,0.8-1h1.3
				c-0.2,0.7-0.6,1.4-1.2,1.8C240.3,91.7,239.6,92,238.6,92z M238.6,84.8c-0.6,0-1.2,0.2-1.7,0.6s-0.8,1-0.9,1.7h5
				c0-0.7-0.3-1.3-0.7-1.7C239.9,85,239.3,84.8,238.6,84.8z"/>
			<path class="st2" d="M247.2,92c-1,0-1.7-0.2-2.4-0.7c-0.6-0.5-1-1.1-1.1-2h1.4c0.1,0.4,0.3,0.8,0.7,1.1c0.4,0.3,0.8,0.5,1.5,0.5
				c0.6,0,1-0.1,1.2-0.4s0.4-0.5,0.4-0.9c0-0.5-0.2-0.8-0.5-1s-0.8-0.3-1.5-0.4c-0.4-0.1-0.9-0.2-1.3-0.4c-0.4-0.2-0.8-0.4-1.1-0.7
				c-0.3-0.3-0.4-0.7-0.4-1.2c0-0.7,0.3-1.3,0.8-1.7c0.5-0.4,1.2-0.7,2.1-0.7c0.8,0,1.5,0.2,2.1,0.6s0.9,1,0.9,1.8h-1.3
				c-0.1-0.4-0.2-0.7-0.5-1c-0.3-0.2-0.7-0.3-1.2-0.3s-0.9,0.1-1.1,0.3c-0.3,0.2-0.4,0.5-0.4,0.8s0.2,0.6,0.5,0.8
				c0.3,0.2,0.8,0.3,1.4,0.5c0.5,0.1,1,0.2,1.4,0.4c0.4,0.1,0.8,0.4,1.1,0.7c0.3,0.3,0.4,0.7,0.4,1.3c0,0.7-0.3,1.3-0.8,1.8
				C248.9,91.7,248.1,92,247.2,92z"/>
			<path class="st2" d="M256.4,91.8V80.3h1.3v11.5H256.4z"/>
			<path class="st2" d="M260.8,82.1c-0.3,0-0.5-0.1-0.7-0.3c-0.2-0.2-0.3-0.4-0.3-0.7s0.1-0.5,0.3-0.6c0.2-0.2,0.4-0.3,0.7-0.3
				c0.3,0,0.5,0.1,0.7,0.3c0.2,0.2,0.3,0.4,0.3,0.6c0,0.3-0.1,0.5-0.3,0.7C261.2,82,261,82.1,260.8,82.1z M260.1,91.8v-7.9h1.3v7.9
				H260.1z"/>
			<path class="st2" d="M263.8,91.8V80.3h1.3v6.9l3.2-3.3h1.6l-3.5,3.6l4,4.3h-1.7l-3.6-4.1v4.1H263.8z"/>
			<path class="st2" d="M274.8,92c-0.8,0-1.4-0.2-2-0.5s-1.1-0.8-1.4-1.4s-0.5-1.4-0.5-2.2c0-0.8,0.2-1.6,0.5-2.2s0.8-1.1,1.4-1.5
				s1.3-0.5,2.1-0.5c0.8,0,1.4,0.2,2,0.5s1,0.8,1.3,1.4s0.4,1.2,0.4,1.8c0,0.1,0,0.2,0,0.3c0,0.1,0,0.2,0,0.4h-6.3
				c0,0.6,0.2,1.1,0.4,1.5c0.2,0.4,0.6,0.7,0.9,0.9c0.4,0.2,0.8,0.3,1.2,0.3c0.6,0,1-0.1,1.4-0.4s0.6-0.6,0.8-1h1.3
				c-0.2,0.7-0.6,1.4-1.2,1.8C276.5,91.7,275.8,92,274.8,92z M274.8,84.8c-0.6,0-1.2,0.2-1.7,0.6s-0.8,1-0.9,1.7h5
				c0-0.7-0.3-1.3-0.7-1.7C276.1,85,275.5,84.8,274.8,84.8z"/>
			<path class="st2" d="M186,113.8v-4.3l-3.6-6.9h1.5l2.8,5.7l2.8-5.7h1.5l-3.6,6.9v4.3H186z"/>
			<path class="st2" d="M194.6,114c-0.8,0-1.4-0.2-2-0.5s-1.1-0.8-1.4-1.5c-0.4-0.6-0.5-1.4-0.5-2.2c0-0.8,0.2-1.6,0.5-2.2
				c0.4-0.6,0.8-1.1,1.4-1.5c0.6-0.3,1.3-0.5,2-0.5s1.4,0.2,2,0.5s1.1,0.8,1.4,1.5c0.4,0.6,0.5,1.4,0.5,2.2c0,0.8-0.2,1.6-0.5,2.2
				c-0.4,0.6-0.8,1.1-1.4,1.5C196,113.8,195.4,114,194.6,114z M194.6,112.8c0.5,0,0.9-0.1,1.3-0.3c0.4-0.2,0.7-0.6,1-1
				s0.4-1,0.4-1.7s-0.1-1.2-0.4-1.7c-0.2-0.4-0.6-0.8-1-1s-0.8-0.3-1.3-0.3s-0.9,0.1-1.3,0.3c-0.4,0.2-0.7,0.6-1,1s-0.4,1-0.4,1.7
				s0.1,1.2,0.4,1.7s0.6,0.8,1,1C193.8,112.7,194.2,112.8,194.6,112.8z"/>
			<path class="st2" d="M203.3,111.3c-0.4,0-0.9-0.1-1.2-0.2l-0.8,0.8c0.1,0.1,0.3,0.2,0.4,0.2c0.2,0.1,0.4,0.1,0.8,0.2
				c0.3,0,0.8,0.1,1.4,0.1c1.1,0.1,1.8,0.3,2.3,0.7c0.5,0.4,0.7,1,0.7,1.6c0,0.5-0.1,0.9-0.4,1.3c-0.2,0.4-0.6,0.8-1.1,1
				c-0.5,0.3-1.2,0.4-2,0.4c-0.7,0-1.3-0.1-1.9-0.3s-1-0.5-1.3-0.8s-0.5-0.9-0.5-1.4c0-0.3,0.1-0.6,0.2-1c0.2-0.3,0.5-0.7,0.9-1
				c-0.2-0.1-0.4-0.2-0.6-0.3s-0.3-0.2-0.5-0.4v-0.4l1.4-1.3c-0.6-0.5-0.9-1.2-0.9-2.1c0-0.5,0.1-1,0.4-1.4c0.2-0.4,0.6-0.8,1.1-1
				s1-0.4,1.7-0.4c0.5,0,0.9,0.1,1.2,0.2h2.9v1l-1.5,0.1c0.3,0.5,0.5,1,0.5,1.5s-0.1,1-0.4,1.4c-0.2,0.4-0.6,0.8-1.1,1
				C204.5,111.1,204,111.3,203.3,111.3z M200.9,114.8c0,0.5,0.2,0.9,0.7,1.2c0.5,0.3,1,0.4,1.7,0.4s1.2-0.1,1.6-0.4
				c0.4-0.3,0.6-0.7,0.6-1.1c0-0.3-0.1-0.6-0.4-0.9c-0.3-0.2-0.8-0.4-1.5-0.4c-0.6,0-1.1-0.1-1.5-0.2c-0.4,0.2-0.7,0.5-0.9,0.8
				C201,114.3,200.9,114.6,200.9,114.8z M203.3,110.2c0.6,0,1-0.2,1.4-0.4c0.3-0.3,0.5-0.7,0.5-1.3c0-0.5-0.2-1-0.5-1.3
				s-0.8-0.4-1.4-0.4c-0.6,0-1,0.2-1.4,0.4c-0.3,0.3-0.5,0.7-0.5,1.3s0.2,1,0.5,1.3C202.2,110,202.7,110.2,203.3,110.2z"/>
			<path class="st2" d="M211.6,114c-0.7,0-1.2-0.1-1.6-0.3c-0.4-0.2-0.8-0.5-1-0.9s-0.3-0.8-0.3-1.2c0-0.8,0.3-1.4,0.9-1.9
				c0.6-0.4,1.5-0.7,2.5-0.7h2.1v-0.1c0-0.7-0.2-1.2-0.5-1.6c-0.4-0.4-0.8-0.5-1.5-0.5c-0.5,0-1,0.1-1.4,0.4s-0.6,0.6-0.7,1.1h-1.4
				c0.1-0.6,0.2-1.1,0.6-1.5c0.3-0.4,0.8-0.7,1.3-0.9c0.5-0.2,1-0.3,1.6-0.3c1.1,0,1.9,0.3,2.5,0.9s0.8,1.4,0.8,2.4v4.9h-1.2
				l-0.1-1.4c-0.2,0.5-0.6,0.8-1,1.1C212.9,113.8,212.3,114,211.6,114z M211.8,112.8c0.5,0,0.9-0.1,1.3-0.4c0.4-0.3,0.7-0.6,0.8-1
				c0.2-0.4,0.3-0.9,0.3-1.3l0,0h-2c-0.8,0-1.4,0.1-1.7,0.4s-0.5,0.6-0.5,1s0.2,0.8,0.5,1C210.8,112.7,211.3,112.8,211.8,112.8z"/>
			<path class="st2" d="M218.1,113.8c-0.3,0-0.5-0.1-0.7-0.3s-0.3-0.4-0.3-0.7s0.1-0.5,0.3-0.6c0.2-0.2,0.4-0.3,0.7-0.3
				s0.5,0.1,0.6,0.3c0.2,0.2,0.3,0.4,0.3,0.6s-0.1,0.5-0.3,0.7S218.4,113.8,218.1,113.8z"/>
			<path class="st3" d="M105.2,131.5c32.1,0,58-4.5,58-10.1s-26-10.1-58-10.1c-32.1,0-58,4.5-58,10.1
				C47.2,127,73.2,131.5,105.2,131.5z"/>
			<path class="st4" d="M120.2,48.9c-0.7,3.9-5,6-8,3.7c-1.1-0.8-1.9-2.2-2-4.2c-0.8-10.1-2.3-42.1,13.9-33.5
				c7.1,3.8,1.9,10.4-0.5,18.9C122,39.5,120.8,45.2,120.2,48.9z"/>
			<path class="st4" d="M126.7,46.6c0.4,4,4.5,6.4,7.7,4.4c1.2-0.8,2.1-2,2.3-4c1.6-10,5.8-41.8-11.1-34.6
				c-7.4,3.2-2.7,10.2-1.1,18.9C125.7,37,126.3,42.8,126.7,46.6z"/>
			<path class="st5" d="M67.8,31.6c0,0,30.1,0,36.6,19.7C104.4,51.2,84.9,55.7,67.8,31.6z"/>
			<path class="st6" d="M71.1,48.7c0,0,16.3-13.3,38.8,1.3C109.9,50,104.5,57.1,71.1,48.7z"/>
			<path class="st7" d="M92.1,44.5c-9.8,4.8-28.4,24.3-11,50.2c6.5,9.6-24.3,19.4-22,26.7c0.7,2.2,3.4,3.9,7.3,3.7
				c18.2-1.1,59.7-22.9,69.4-10.8c3.9,4.9,3.5,10.1,11.5,10.2c10,0.2,1.9-23.9,2.1-39.7C150.1,36.6,110.9,35.2,92.1,44.5z"/>
			<path d="M118.8,80.6c0,0.9,0.7,5.8-6.1,5.8s-6.9-4.9-6.9-5.8s2.9-0.1,6.5-0.1S118.8,79.7,118.8,80.6z"/>
			<path class="st0" d="M112.7,81.8h-0.9c-0.4,0-0.6-0.3-0.6-0.6v-0.7h2.2v0.7C113.3,81.5,113.1,81.8,112.7,81.8z"/>
			<path class="st5" d="M107.7,26.3c0,0-3.8,3-2.3,8.3C105.4,34.6,107.2,33.7,107.7,26.3z"/>
			<path class="st5" d="M98.1,33.7c0,0,2.9,7.2,9.8,4.2C108,37.9,106.2,34.9,98.1,33.7z"/>
			<path class="st8" d="M109.7,43.1c0.1-0.5-2.2-10.2-11.7-14.7"/>
			<path class="st9" d="M96.5,25.2c0,0,3.6-6.6,6.4-5.1C105.6,21.7,98.3,26.5,96.5,25.2z"/>
			<path class="st9" d="M96.6,25.1c0,0,7.5-3.4,7.5-0.3S96.4,27.3,96.6,25.1z"/>
			<path class="st9" d="M95.6,26.1c0,0,7.8-1.1,6.6,2.1C100.9,31.3,94.5,28.2,95.6,26.1z"/>
			<path class="st9" d="M94.8,25.9c0,0-0.7-7.8,2.4-6.5C100.3,20.8,96.9,27.1,94.8,25.9z"/>
			<path class="st9" d="M95.6,26.5c0,0-7.5,2.4-6.8-0.9C89.5,22.3,96.3,24.2,95.6,26.5z"/>
			<path class="st9" d="M95.4,27.2c0,0-5-4-2.7-5.2C95,20.7,97.1,26.5,95.4,27.2z"/>
			<path class="st9" d="M95.2,26.7c0,0-7.5-0.2-7.6,2.9C87.5,32.8,95.4,28.8,95.2,26.7z"/>
			<path class="st9" d="M95,26.2c0,0-6.7,4.7-4.1,6.3C93.6,34.1,97,27.1,95,26.2z"/>
			<path class="st9" d="M95.2,25.7c0,0-1.9,7.7,1.4,6.8C99.8,31.6,97.4,24.9,95.2,25.7z"/>
			<path class="st10" d="M96.6,27.7c2.1-1.2,3.5-2.9,3-3.8s-2.7-0.6-4.8,0.6c-2.1,1.2-3.5,2.9-3,3.8C92.4,29.2,94.5,29,96.6,27.7z"
				/>
			<path d="M124.2,75.6c1.6,0,2.8-1.3,2.8-2.8c0-1.6-1.3-2.8-2.8-2.8c-1.6,0-2.8,1.3-2.8,2.8C121.3,74.3,122.6,75.6,124.2,75.6z"/>
			<path d="M97.5,75.6c1.6,0,2.8-1.3,2.8-2.8c0-1.6-1.3-2.8-2.8-2.8c-1.6,0-2.8,1.3-2.8,2.8S96,75.6,97.5,75.6z"/>
			<path class="st0" d="M97.6,57.6c0,0-7.5,9.6-10.8,5.1C85.4,60.7,87.7,53.7,97.6,57.6z"/>
		</g>
	</g>
</g>
</svg>
