<?xml version="1.0" encoding="utf-8"?>
<!-- Generator: Adobe Illustrator 25.1.0, SVG Export Plug-In . SVG Version: 6.00 Build 0)  -->
<svg version="1.1" id="Layer_1" xmlns="http://www.w3.org/2000/svg" xmlns:xlink="http://www.w3.org/1999/xlink" x="0px" y="0px"
	 viewBox="0 0 337.8 264.8" style="enable-background:new 0 0 337.8 264.8;" xml:space="preserve">
<style type="text/css">
	.st0{fill:#FFFFFF;}
	.st1{fill:#808080;}
	.st2{fill:#E97443;}
	.st3{fill:#FFCF8D;}
	.st4{fill:#E14504;}
	.st5{fill:#DCE3E5;}
	.st6{fill:none;stroke:#FFFFFF;stroke-width:1.4409;stroke-linecap:round;stroke-miterlimit:10;}
	.st7{fill:none;stroke:#F0A282;stroke-width:0.9239;stroke-linecap:round;stroke-miterlimit:10;}
	.st8{fill:#D64204;}
	.st9{fill:none;stroke:#FFFFFF;stroke-width:0.6071;stroke-linecap:round;stroke-miterlimit:10;}
	.st10{fill:none;stroke:#E97443;stroke-width:4;stroke-miterlimit:10;}
</style>
<g>
	<path class="st0" d="M337.6,241.9c0-44.2-2.2-167.3,0.1-214.7C339.1-0.6,316,1,309.7,0.7c-39.1-1.4-203.5-0.3-238.2,0
		C37.4,0.9,9.8,3.6,4.6,9.8c-8.1,9.6-3.1,205.3-3.1,222.9c0,27.7,15.4,26.2,50.4,29.7c35.6,3.6,134.5,2.2,177.4,1.8
		C273.7,263.7,337.6,270.1,337.6,241.9z"/>
	<path class="st1" d="M23.9,54.2L28.1,43h1.4l4.1,11.2h-1.4l-1-2.9h-4.8l-1,2.9H23.9z M26.8,50.2h4l-2-5.5L26.8,50.2z"/>
	<path class="st1" d="M37.9,54.4c-0.9,0-1.7-0.3-2.2-0.9c-0.5-0.6-0.8-1.4-0.8-2.6v-4.6h1.3v4.5c0,1.6,0.7,2.5,2,2.5
		c0.7,0,1.3-0.2,1.7-0.7c0.5-0.5,0.7-1.2,0.7-2.1v-4.1h1.3v7.9h-1.2l-0.1-1.4c-0.2,0.5-0.6,0.9-1.1,1.2C39,54.3,38.5,54.4,37.9,54.4
		z"/>
	<path class="st1" d="M47.2,54.4c-1,0-1.7-0.2-2.4-0.7c-0.6-0.5-1-1.1-1.1-1.9h1.4c0.1,0.4,0.3,0.8,0.7,1.1c0.3,0.3,0.8,0.5,1.4,0.5
		c0.6,0,1-0.1,1.2-0.4c0.3-0.2,0.4-0.5,0.4-0.9c0-0.5-0.2-0.8-0.5-1s-0.8-0.3-1.5-0.4c-0.4-0.1-0.8-0.2-1.3-0.4
		c-0.4-0.2-0.8-0.4-1.1-0.7S44,48.9,44,48.4c0-0.7,0.3-1.3,0.8-1.7S46,46,46.9,46c0.8,0,1.5,0.2,2.1,0.6c0.5,0.4,0.9,1,0.9,1.8h-1.3
		c0-0.4-0.2-0.7-0.5-0.9s-0.7-0.3-1.2-0.3s-0.8,0.1-1.1,0.3s-0.4,0.5-0.4,0.8s0.2,0.6,0.5,0.8s0.8,0.3,1.4,0.5
		c0.5,0.1,1,0.2,1.4,0.4s0.8,0.4,1.1,0.7s0.4,0.7,0.4,1.3c0,0.7-0.3,1.3-0.8,1.8C48.9,54.2,48.1,54.4,47.2,54.4z"/>
	<path class="st1" d="M54.9,54.2c-0.7,0-1.3-0.2-1.7-0.5s-0.6-1-0.6-1.9v-4.4h-1.4v-1.1h1.4l0.2-1.9H54v1.9h2.3v1.1H54v4.4
		c0,0.5,0.1,0.8,0.3,1s0.6,0.3,1.1,0.3h0.8v1.2L54.9,54.2L54.9,54.2z"/>
	<path class="st1" d="M58,54.2v-7.9h1.2l0.1,1.5c0.2-0.5,0.6-0.9,1.1-1.2s1.1-0.5,1.9-0.5v1.4h-0.4c-0.5,0-0.9,0.1-1.3,0.2
		c-0.4,0.2-0.7,0.4-0.9,0.8c-0.2,0.4-0.3,0.9-0.3,1.6v4H58V54.2z"/>
	<path class="st1" d="M66.4,54.4c-0.7,0-1.2-0.1-1.6-0.3s-0.8-0.5-1-0.9s-0.3-0.8-0.3-1.2c0-0.8,0.3-1.4,0.9-1.9
		c0.6-0.4,1.5-0.7,2.5-0.7H69v-0.1c0-0.7-0.2-1.2-0.5-1.6s-0.8-0.5-1.5-0.5c-0.5,0-1,0.1-1.3,0.4s-0.6,0.6-0.7,1.1h-1.4
		c0-0.6,0.2-1.1,0.6-1.5c0.3-0.4,0.8-0.7,1.3-0.9s1-0.3,1.6-0.3c1.1,0,1.9,0.3,2.5,0.9c0.6,0.6,0.8,1.4,0.8,2.4v4.9h-1.2l-0.1-1.4
		c-0.2,0.5-0.6,0.8-1,1.1S67.2,54.4,66.4,54.4z M66.6,53.3c0.5,0,0.9-0.1,1.3-0.4c0.4-0.3,0.6-0.6,0.8-1c0.2-0.4,0.3-0.9,0.3-1.3
		l0,0h-2c-0.8,0-1.3,0.1-1.7,0.4c-0.3,0.3-0.5,0.6-0.5,1s0.2,0.8,0.5,1C65.7,53.1,66.1,53.3,66.6,53.3z"/>
	<path class="st1" d="M72.5,54.2V42.7h1.3v11.5H72.5z"/>
	<path class="st1" d="M76.8,44.5c-0.3,0-0.5-0.1-0.7-0.3s-0.3-0.4-0.3-0.7s0.1-0.5,0.3-0.6c0.2-0.2,0.4-0.3,0.7-0.3
		c0.3,0,0.5,0.1,0.7,0.3s0.3,0.4,0.3,0.6c0,0.3-0.1,0.5-0.3,0.7C77.3,44.4,77.1,44.5,76.8,44.5z M76.1,54.2v-7.9h1.3v7.9H76.1z"/>
	<path class="st1" d="M82.5,54.4c-0.7,0-1.2-0.1-1.7-0.3c-0.4-0.2-0.8-0.5-1-0.9s-0.3-0.8-0.3-1.2c0-0.8,0.3-1.4,0.9-1.9
		c0.6-0.4,1.5-0.7,2.5-0.7H85v-0.1c0-0.7-0.2-1.2-0.5-1.6s-0.8-0.5-1.5-0.5c-0.5,0-1,0.1-1.3,0.4c-0.4,0.3-0.6,0.6-0.7,1.1h-1.4
		c0-0.6,0.2-1.1,0.6-1.5c0.3-0.4,0.8-0.7,1.3-0.9s1-0.3,1.6-0.3c1.1,0,1.9,0.3,2.5,0.9s0.8,1.4,0.8,2.4v4.9h-1.2l-0.1-1.4
		c-0.2,0.5-0.5,0.8-1,1.1C83.8,54.2,83.2,54.4,82.5,54.4z M82.7,53.3c0.5,0,1-0.1,1.3-0.4c0.4-0.3,0.7-0.6,0.8-1
		c0.2-0.4,0.3-0.9,0.3-1.3l0,0h-2c-0.8,0-1.3,0.1-1.7,0.4c-0.3,0.3-0.5,0.6-0.5,1s0.2,0.8,0.5,1C81.7,53.1,82.1,53.3,82.7,53.3z"/>
	<path class="st1" d="M88.5,54.2v-7.9h1.2l0.1,1.4c0.3-0.5,0.6-0.9,1.1-1.2s1-0.4,1.6-0.4c0.9,0,1.7,0.3,2.2,0.9
		c0.6,0.6,0.8,1.4,0.8,2.6v4.6h-1.3v-4.5c0-1.7-0.7-2.5-2.1-2.5c-0.7,0-1.2,0.2-1.7,0.7s-0.7,1.2-0.7,2.1v4.1L88.5,54.2L88.5,54.2z"
		/>
	<path class="st1" d="M105,51.7c-0.5,0-0.9-0.1-1.2-0.2l-0.8,0.8c0.1,0.1,0.3,0.2,0.4,0.2c0.2,0.1,0.4,0.1,0.8,0.2s0.8,0.1,1.4,0.2
		c1.1,0.1,1.8,0.3,2.3,0.7s0.7,1,0.7,1.6c0,0.5-0.1,0.9-0.4,1.3c-0.2,0.4-0.6,0.8-1.2,1c-0.5,0.3-1.2,0.4-2,0.4
		c-0.7,0-1.3-0.1-1.9-0.3c-0.5-0.2-1-0.5-1.3-0.9s-0.5-0.9-0.5-1.4c0-0.3,0.1-0.6,0.2-1c0.2-0.4,0.5-0.7,0.9-1
		c-0.2-0.1-0.4-0.2-0.6-0.3s-0.3-0.2-0.5-0.4v-0.4l1.4-1.3c-0.6-0.5-0.9-1.2-0.9-2.1c0-0.5,0.1-1,0.4-1.4c0.2-0.4,0.6-0.8,1.1-1
		s1-0.4,1.7-0.4c0.5,0,0.9,0.1,1.2,0.2h2.9v1l-1.5,0.1c0.3,0.4,0.5,1,0.5,1.6c0,0.5-0.1,1-0.4,1.4c-0.2,0.4-0.6,0.8-1.1,1
		C106.3,51.6,105.7,51.7,105,51.7z M102.7,55.2c0,0.5,0.2,0.9,0.7,1.2s1,0.4,1.7,0.4s1.2-0.1,1.6-0.4s0.6-0.7,0.6-1.1
		c0-0.3-0.1-0.6-0.4-0.9s-0.8-0.4-1.5-0.4c-0.6,0-1.1-0.1-1.5-0.2c-0.4,0.2-0.7,0.5-0.9,0.8C102.7,54.8,102.7,55,102.7,55.2z
		 M105,50.6c0.6,0,1-0.1,1.3-0.4c0.3-0.3,0.5-0.7,0.5-1.3c0-0.5-0.2-1-0.5-1.3s-0.8-0.4-1.3-0.4c-0.6,0-1,0.2-1.4,0.4
		s-0.5,0.7-0.5,1.3s0.2,1,0.5,1.3C104,50.5,104.4,50.6,105,50.6z"/>
	<path class="st1" d="M113.6,54.4c-0.9,0-1.7-0.3-2.2-0.9c-0.6-0.6-0.8-1.4-0.8-2.6v-4.6h1.3v4.5c0,1.6,0.7,2.5,2,2.5
		c0.7,0,1.3-0.2,1.7-0.7c0.4-0.5,0.7-1.2,0.7-2.1v-4.1h1.3v7.9h-1.2l-0.1-1.4c-0.2,0.5-0.6,0.9-1.1,1.2
		C114.8,54.3,114.2,54.4,113.6,54.4z"/>
	<path class="st1" d="M120.7,44.5c-0.3,0-0.5-0.1-0.7-0.3s-0.3-0.4-0.3-0.7s0.1-0.5,0.3-0.6c0.2-0.2,0.4-0.3,0.7-0.3
		s0.5,0.1,0.7,0.3s0.3,0.4,0.3,0.6c0,0.3-0.1,0.5-0.3,0.7C121.2,44.4,120.9,44.5,120.7,44.5z M120,54.2v-7.9h1.3v7.9H120z"/>
	<path class="st1" d="M127.3,54.4c-0.8,0-1.5-0.2-2.1-0.5c-0.6-0.4-1.1-0.9-1.4-1.5s-0.5-1.3-0.5-2.1s0.2-1.5,0.5-2.1
		s0.8-1.1,1.4-1.5s1.3-0.5,2.1-0.5c0.6,0,1.2,0.1,1.7,0.4c0.5,0.3,0.9,0.6,1.2,1.1v-4.9h1.3v11.5h-1.2l-0.1-1.3
		c-0.3,0.4-0.6,0.7-1.1,1S128,54.4,127.3,54.4z M127.4,53.2c0.5,0,1-0.1,1.4-0.4s0.7-0.6,1-1.1c0.2-0.4,0.3-1,0.3-1.6
		s-0.1-1.1-0.3-1.6c-0.2-0.4-0.6-0.8-1-1.1s-0.9-0.4-1.4-0.4s-1,0.1-1.4,0.4c-0.4,0.2-0.7,0.6-1,1.1s-0.3,1-0.3,1.6s0.1,1.1,0.3,1.6
		s0.6,0.8,1,1.1C126.4,53.1,126.9,53.2,127.4,53.2z"/>
	<path class="st1" d="M137.3,54.4c-0.8,0-1.4-0.2-2-0.5c-0.6-0.4-1.1-0.8-1.4-1.5c-0.3-0.6-0.5-1.3-0.5-2.2c0-0.8,0.2-1.6,0.5-2.2
		s0.8-1.1,1.4-1.5c0.6-0.4,1.3-0.5,2.1-0.5s1.4,0.2,2,0.5s1,0.8,1.3,1.4c0.3,0.6,0.4,1.2,0.4,1.8c0,0.1,0,0.2,0,0.4
		c0,0.1,0,0.2,0,0.4h-6.3c0,0.6,0.2,1.1,0.4,1.5s0.6,0.7,0.9,0.9c0.4,0.2,0.8,0.3,1.2,0.3c0.6,0,1-0.1,1.4-0.4
		c0.4-0.3,0.7-0.6,0.8-1h1.3c-0.2,0.7-0.6,1.3-1.2,1.8C139,54.2,138.2,54.4,137.3,54.4z M137.3,47.2c-0.6,0-1.2,0.2-1.7,0.6
		c-0.5,0.4-0.8,1-0.9,1.7h5c0-0.7-0.3-1.3-0.7-1.7C138.5,47.4,138,47.2,137.3,47.2z"/>
	<path class="st1" d="M142.8,54.2V42.7h1.3v11.5H142.8z"/>
	<path class="st1" d="M147.2,44.5c-0.3,0-0.5-0.1-0.7-0.3s-0.3-0.4-0.3-0.7s0.1-0.5,0.3-0.6c0.2-0.2,0.4-0.3,0.7-0.3
		s0.5,0.1,0.7,0.3s0.3,0.4,0.3,0.6c0,0.3-0.1,0.5-0.3,0.7S147.5,44.5,147.2,44.5z M146.5,54.2v-7.9h1.3v7.9H146.5z"/>
	<path class="st1" d="M150.2,54.2v-7.9h1.2l0.1,1.4c0.3-0.5,0.6-0.9,1.1-1.2s1-0.4,1.6-0.4c0.9,0,1.7,0.3,2.2,0.9
		c0.6,0.6,0.8,1.4,0.8,2.6v4.6h-1.3v-4.5c0-1.7-0.7-2.5-2.1-2.5c-0.7,0-1.2,0.2-1.7,0.7s-0.7,1.2-0.7,2.1v4.1L150.2,54.2L150.2,54.2
		z"/>
	<path class="st1" d="M162.9,54.4c-0.8,0-1.4-0.2-2-0.5c-0.6-0.4-1.1-0.8-1.4-1.5c-0.3-0.6-0.5-1.3-0.5-2.2c0-0.8,0.2-1.6,0.5-2.2
		s0.8-1.1,1.4-1.5c0.6-0.4,1.3-0.5,2.1-0.5s1.4,0.2,2,0.5s1,0.8,1.3,1.4c0.3,0.6,0.4,1.2,0.4,1.8c0,0.1,0,0.2,0,0.4
		c0,0.1,0,0.2,0,0.4h-6.3c0,0.6,0.2,1.1,0.4,1.5s0.6,0.7,0.9,0.9c0.4,0.2,0.8,0.3,1.2,0.3c0.6,0,1-0.1,1.4-0.4
		c0.4-0.3,0.7-0.6,0.8-1h1.3c-0.2,0.7-0.6,1.3-1.2,1.8C164.7,54.2,163.9,54.4,162.9,54.4z M162.9,47.2c-0.6,0-1.2,0.2-1.7,0.6
		c-0.5,0.4-0.8,1-0.9,1.7h5c0-0.7-0.3-1.3-0.7-1.7C164.2,47.4,163.6,47.2,162.9,47.2z"/>
	<path class="st1" d="M171.5,54.4c-0.9,0-1.7-0.2-2.4-0.7c-0.6-0.5-1-1.1-1.1-1.9h1.4c0.1,0.4,0.3,0.8,0.7,1.1s0.8,0.5,1.5,0.5
		c0.6,0,1-0.1,1.2-0.4c0.3-0.2,0.4-0.5,0.4-0.9c0-0.5-0.2-0.8-0.5-1s-0.8-0.3-1.5-0.4c-0.4-0.1-0.9-0.2-1.3-0.4
		c-0.4-0.2-0.8-0.4-1.1-0.7s-0.4-0.7-0.4-1.2c0-0.7,0.3-1.3,0.8-1.7s1.2-0.7,2.1-0.7c0.8,0,1.5,0.2,2.1,0.6c0.5,0.4,0.9,1,0.9,1.8
		H173c-0.1-0.4-0.2-0.7-0.5-0.9s-0.7-0.3-1.2-0.3s-0.9,0.1-1.1,0.3c-0.3,0.2-0.4,0.5-0.4,0.8s0.2,0.6,0.5,0.8s0.8,0.3,1.4,0.5
		c0.5,0.1,1,0.2,1.4,0.4s0.8,0.4,1.1,0.7s0.4,0.7,0.4,1.3c0,0.7-0.3,1.3-0.8,1.8C173.2,54.2,172.5,54.4,171.5,54.4z"/>
	<path class="st1" d="M24.5,76.2v-7.9h1.2l0.1,1.5c0.2-0.5,0.6-0.9,1.1-1.2c0.5-0.3,1.1-0.5,1.9-0.5v1.4h-0.4
		c-0.5,0-0.9,0.1-1.3,0.2c-0.4,0.2-0.7,0.4-0.9,0.8c-0.2,0.5-0.3,1-0.3,1.7v4H24.5z"/>
	<path class="st1" d="M33.6,76.4c-0.8,0-1.4-0.2-2-0.5c-0.6-0.4-1.1-0.8-1.4-1.5c-0.3-0.6-0.5-1.3-0.5-2.2c0-0.8,0.2-1.6,0.5-2.2
		s0.8-1.1,1.4-1.5c0.6-0.4,1.3-0.5,2.1-0.5s1.4,0.2,2,0.5s1,0.8,1.3,1.4s0.4,1.2,0.4,1.8c0,0.1,0,0.2,0,0.4c0,0.1,0,0.2,0,0.4h-6.3
		c0,0.6,0.2,1.1,0.4,1.5c0.2,0.4,0.6,0.7,0.9,0.9c0.4,0.2,0.8,0.3,1.2,0.3c0.6,0,1-0.1,1.4-0.4s0.6-0.6,0.8-1h1.3
		c-0.2,0.7-0.6,1.3-1.2,1.8C35.3,76.2,34.6,76.4,33.6,76.4z M33.6,69.2c-0.6,0-1.2,0.2-1.7,0.6s-0.8,1-0.9,1.7h5
		c0-0.7-0.3-1.3-0.7-1.7C34.9,69.4,34.3,69.2,33.6,69.2z"/>
	<path class="st1" d="M42.8,76.4c-0.8,0-1.4-0.2-2-0.5c-0.6-0.4-1.1-0.8-1.4-1.5c-0.3-0.6-0.5-1.3-0.5-2.2s0.2-1.6,0.5-2.2
		c0.4-0.6,0.8-1.1,1.4-1.5c0.6-0.4,1.3-0.5,2-0.5c0.9,0,1.7,0.2,2.4,0.7c0.6,0.5,1,1.1,1.2,2H45c-0.1-0.5-0.4-0.9-0.8-1.1
		c-0.4-0.3-0.9-0.4-1.5-0.4c-0.5,0-0.9,0.1-1.3,0.3c-0.4,0.2-0.7,0.6-1,1s-0.4,1-0.4,1.7s0.1,1.2,0.4,1.7c0.2,0.4,0.6,0.8,1,1
		s0.8,0.3,1.3,0.3s1-0.1,1.5-0.4c0.4-0.3,0.7-0.7,0.8-1.2h1.4c-0.2,0.8-0.6,1.4-1.2,1.9C44.5,76.1,43.7,76.4,42.8,76.4z"/>
	<path class="st1" d="M51.9,76.4c-0.8,0-1.4-0.2-2-0.5s-1.1-0.8-1.4-1.4c-0.3-0.6-0.5-1.4-0.5-2.2c0-0.8,0.2-1.6,0.5-2.2
		s0.8-1.1,1.4-1.4c0.6-0.3,1.3-0.5,2-0.5s1.4,0.2,2,0.5s1.1,0.8,1.4,1.4c0.3,0.6,0.5,1.4,0.5,2.2c0,0.8-0.2,1.6-0.5,2.2
		s-0.8,1.1-1.4,1.4S52.6,76.4,51.9,76.4z M51.9,75.2c0.5,0,0.9-0.1,1.3-0.3c0.4-0.2,0.7-0.6,1-1c0.2-0.4,0.4-1,0.4-1.7
		s-0.1-1.2-0.4-1.7c-0.2-0.4-0.6-0.8-1-1s-0.8-0.3-1.3-0.3s-0.9,0.1-1.3,0.3c-0.4,0.2-0.7,0.6-1,1s-0.4,1-0.4,1.7s0.1,1.2,0.4,1.7
		c0.2,0.5,0.6,0.8,1,1C51,75.1,51.4,75.2,51.9,75.2z"/>
	<path class="st1" d="M57.7,76.2v-7.9h1.2l0.1,1.1c0.3-0.4,0.6-0.8,1-1s0.9-0.3,1.4-0.3c0.6,0,1.2,0.1,1.6,0.4
		c0.4,0.3,0.8,0.6,1,1.2c0.3-0.5,0.7-0.9,1.1-1.1c0.5-0.3,1-0.4,1.6-0.4c0.9,0,1.7,0.3,2.3,0.9c0.6,0.6,0.9,1.5,0.9,2.6v4.6h-1.3
		v-4.5c0-0.8-0.2-1.4-0.5-1.9s-0.8-0.6-1.4-0.6s-1.2,0.2-1.6,0.7s-0.6,1.2-0.6,2.1v4.1h-1.3v-4.5c0-0.8-0.2-1.4-0.5-1.9
		c-0.3-0.4-0.8-0.6-1.4-0.6c-0.6,0-1.2,0.2-1.6,0.7c-0.4,0.5-0.6,1.2-0.6,2.1v4.1L57.7,76.2L57.7,76.2z"/>
	<path class="st1" d="M72.1,76.2v-7.9h1.2l0.1,1.1c0.3-0.4,0.6-0.8,1-1s0.9-0.3,1.4-0.3c0.6,0,1.2,0.1,1.6,0.4s0.8,0.6,1,1.2
		c0.3-0.5,0.7-0.9,1.1-1.1c0.5-0.3,1-0.4,1.6-0.4c1,0,1.7,0.3,2.3,0.9c0.6,0.6,0.8,1.5,0.8,2.6v4.6h-1.3v-4.5c0-0.8-0.2-1.4-0.5-1.9
		c-0.3-0.4-0.8-0.6-1.4-0.6s-1.2,0.2-1.6,0.7s-0.6,1.2-0.6,2.1v4.1h-1.3v-4.5c0-0.8-0.2-1.4-0.5-1.9c-0.3-0.4-0.8-0.6-1.4-0.6
		s-1.2,0.2-1.6,0.7s-0.6,1.2-0.6,2.1v4.1L72.1,76.2L72.1,76.2z"/>
	<path class="st1" d="M90,76.4c-0.8,0-1.4-0.2-2-0.5c-0.6-0.4-1.1-0.8-1.4-1.5c-0.3-0.6-0.5-1.3-0.5-2.2c0-0.8,0.2-1.6,0.5-2.2
		s0.8-1.1,1.4-1.5s1.3-0.5,2.1-0.5c0.8,0,1.4,0.2,2,0.5s1,0.8,1.3,1.4s0.5,1.2,0.5,1.8c0,0.1,0,0.2,0,0.4s0,0.2,0,0.4h-6.3
		c0,0.6,0.2,1.1,0.4,1.5c0.2,0.4,0.6,0.7,0.9,0.9c0.4,0.2,0.8,0.3,1.2,0.3c0.6,0,1-0.1,1.4-0.4s0.7-0.6,0.8-1h1.3
		c-0.2,0.7-0.6,1.3-1.2,1.8C91.7,76.2,90.9,76.4,90,76.4z M90,69.2c-0.6,0-1.2,0.2-1.7,0.6s-0.8,1-0.9,1.7h5c0-0.7-0.3-1.3-0.7-1.7
		C91.2,69.4,90.6,69.2,90,69.2z"/>
	<path class="st1" d="M95.5,76.2v-7.9h1.2l0.1,1.4c0.3-0.5,0.6-0.9,1.1-1.2c0.5-0.3,1-0.4,1.6-0.4c0.9,0,1.7,0.3,2.2,0.9
		c0.6,0.6,0.8,1.4,0.8,2.6v4.6h-1.3v-4.5c0-1.7-0.7-2.5-2-2.5c-0.7,0-1.2,0.2-1.7,0.7c-0.4,0.5-0.7,1.2-0.7,2.1v4.1L95.5,76.2
		L95.5,76.2z"/>
	<path class="st1" d="M108.2,76.4c-0.8,0-1.5-0.2-2.1-0.5c-0.6-0.4-1-0.9-1.4-1.5c-0.3-0.6-0.5-1.3-0.5-2.1s0.2-1.5,0.5-2.1
		s0.8-1.1,1.4-1.5s1.3-0.5,2.1-0.5c0.7,0,1.2,0.1,1.7,0.4s0.9,0.6,1.2,1.1v-4.9h1.3v11.5h-1.2l-0.1-1.3c-0.3,0.4-0.6,0.7-1.1,1
		C109.6,76.2,109,76.4,108.2,76.4z M108.4,75.2c0.5,0,1-0.1,1.4-0.4s0.7-0.6,1-1.1c0.2-0.4,0.3-1,0.3-1.6s-0.1-1.1-0.3-1.6
		c-0.2-0.4-0.5-0.8-1-1.1s-0.9-0.4-1.4-0.4s-1,0.1-1.4,0.4c-0.4,0.2-0.7,0.6-1,1.1c-0.2,0.4-0.3,1-0.3,1.6s0.1,1.1,0.3,1.6
		c0.2,0.4,0.6,0.8,1,1.1C107.4,75.1,107.9,75.2,108.4,75.2z"/>
	<path class="st1" d="M121.6,76.4c-0.7,0-1.2-0.1-1.6-0.3c-0.4-0.2-0.8-0.5-1-0.9s-0.3-0.8-0.3-1.2c0-0.8,0.3-1.4,0.9-1.9
		c0.6-0.4,1.5-0.7,2.5-0.7h2.1v-0.1c0-0.7-0.2-1.2-0.5-1.6s-0.8-0.5-1.5-0.5c-0.5,0-1,0.1-1.4,0.4s-0.6,0.6-0.7,1.1h-1.4
		c0.1-0.6,0.2-1.1,0.6-1.5c0.3-0.4,0.8-0.7,1.3-0.9c0.5-0.2,1-0.3,1.6-0.3c1.1,0,1.9,0.3,2.5,0.9s0.8,1.4,0.8,2.4v4.9h-1.2l-0.1-1.4
		c-0.2,0.5-0.6,0.8-1,1.1C122.9,76.2,122.3,76.4,121.6,76.4z M121.8,75.3c0.5,0,0.9-0.1,1.3-0.4s0.7-0.6,0.8-1
		c0.2-0.4,0.3-0.9,0.3-1.3l0,0h-2c-0.8,0-1.4,0.1-1.7,0.4c-0.3,0.3-0.5,0.6-0.5,1s0.1,0.8,0.5,1C120.8,75.1,121.2,75.3,121.8,75.3z"
		/>
	<path class="st1" d="M130.5,76.2c-0.7,0-1.3-0.2-1.7-0.5s-0.6-1-0.6-1.9v-4.4h-1.4v-1.1h1.4l0.2-1.9h1.2v1.9h2.3v1.1h-2.3v4.4
		c0,0.5,0.1,0.8,0.3,1s0.6,0.3,1.1,0.3h0.8v1.2L130.5,76.2L130.5,76.2z"/>
	<path class="st1" d="M137.8,76.2V64.7h1.3v11.5H137.8z"/>
	<path class="st1" d="M144.9,76.4c-0.8,0-1.4-0.2-2-0.5c-0.6-0.4-1.1-0.8-1.4-1.5c-0.3-0.6-0.5-1.3-0.5-2.2c0-0.8,0.2-1.6,0.5-2.2
		s0.8-1.1,1.4-1.5c0.6-0.4,1.3-0.5,2.1-0.5s1.4,0.2,2,0.5s1,0.8,1.3,1.4s0.4,1.2,0.4,1.8c0,0.1,0,0.2,0,0.4s0,0.2,0,0.4h-6.3
		c0,0.6,0.2,1.1,0.4,1.5s0.6,0.7,0.9,0.9c0.4,0.2,0.8,0.3,1.2,0.3c0.6,0,1-0.1,1.4-0.4s0.6-0.6,0.8-1h1.3c-0.2,0.7-0.6,1.3-1.2,1.8
		C146.6,76.2,145.9,76.4,144.9,76.4z M144.9,69.2c-0.6,0-1.2,0.2-1.7,0.6s-0.8,1-0.9,1.7h5c0-0.7-0.3-1.3-0.7-1.7
		C146.2,69.4,145.6,69.2,144.9,69.2z"/>
	<path class="st1" d="M153.1,76.4c-0.7,0-1.2-0.1-1.6-0.3c-0.4-0.2-0.8-0.5-1-0.9s-0.3-0.8-0.3-1.2c0-0.8,0.3-1.4,0.9-1.9
		c0.6-0.4,1.5-0.7,2.5-0.7h2.1v-0.1c0-0.7-0.2-1.2-0.5-1.6s-0.8-0.5-1.5-0.5c-0.5,0-1,0.1-1.4,0.4s-0.6,0.6-0.7,1.1h-1.4
		c0.1-0.6,0.2-1.1,0.6-1.5c0.3-0.4,0.8-0.7,1.3-0.9c0.5-0.2,1-0.3,1.6-0.3c1.1,0,1.9,0.3,2.5,0.9s0.8,1.4,0.8,2.4v4.9h-1.1l-0.1-1.4
		c-0.2,0.5-0.6,0.8-1,1.1S153.8,76.4,153.1,76.4z M153.3,75.3c0.5,0,1-0.1,1.3-0.4c0.4-0.3,0.6-0.6,0.8-1s0.3-0.9,0.3-1.3l0,0h-2
		c-0.8,0-1.4,0.1-1.7,0.4s-0.5,0.6-0.5,1s0.1,0.8,0.5,1C152.3,75.1,152.8,75.3,153.3,75.3z"/>
	<path class="st1" d="M162.1,76.4c-0.9,0-1.7-0.2-2.4-0.7c-0.6-0.5-1-1.1-1.1-1.9h1.4c0.1,0.4,0.3,0.8,0.7,1.1
		c0.3,0.3,0.8,0.5,1.4,0.5c0.6,0,1-0.1,1.2-0.4c0.3-0.2,0.4-0.5,0.4-0.9c0-0.5-0.2-0.8-0.5-1s-0.8-0.3-1.5-0.4
		c-0.4-0.1-0.9-0.2-1.3-0.4c-0.4-0.2-0.8-0.4-1.1-0.7c-0.3-0.3-0.4-0.7-0.4-1.2c0-0.7,0.3-1.3,0.8-1.7s1.2-0.7,2.1-0.7
		c0.8,0,1.5,0.2,2.1,0.6s0.9,1,0.9,1.8h-1.3c-0.1-0.4-0.2-0.7-0.5-0.9c-0.3-0.2-0.7-0.3-1.2-0.3s-0.9,0.1-1.1,0.3
		c-0.3,0.2-0.4,0.5-0.4,0.8s0.2,0.6,0.5,0.8c0.3,0.2,0.8,0.3,1.4,0.5c0.5,0.1,1,0.2,1.4,0.4c0.4,0.2,0.8,0.4,1.1,0.7
		c0.3,0.3,0.4,0.7,0.4,1.3c0,0.7-0.3,1.3-0.8,1.8C163.8,76.2,163.1,76.4,162.1,76.4z"/>
	<path class="st1" d="M169.9,76.2c-0.7,0-1.3-0.2-1.7-0.5s-0.6-1-0.6-1.9v-4.4h-1.4v-1.1h1.4l0.2-1.9h1.1v1.9h2.3v1.1h-2.3v4.4
		c0,0.5,0.1,0.8,0.3,1s0.6,0.3,1.1,0.3h0.8v1.2L169.9,76.2L169.9,76.2z"/>
	<path class="st1" d="M28.2,153.6c-0.8,0-1.4-0.2-2-0.5s-1.1-0.8-1.4-1.4c-0.4-0.6-0.5-1.4-0.5-2.2s0.2-1.6,0.5-2.2
		c0.4-0.6,0.8-1.1,1.4-1.4c0.6-0.3,1.3-0.5,2-0.5s1.4,0.2,2,0.5s1.1,0.8,1.4,1.4c0.4,0.6,0.5,1.4,0.5,2.2s-0.2,1.6-0.5,2.2
		c-0.3,0.6-0.8,1.1-1.4,1.4C29.6,153.5,28.9,153.6,28.2,153.6z M28.2,152.5c0.5,0,0.9-0.1,1.3-0.3s0.7-0.6,1-1
		c0.2-0.5,0.4-1,0.4-1.7s-0.1-1.2-0.4-1.7c-0.2-0.4-0.6-0.8-1-1s-0.8-0.3-1.3-0.3s-0.9,0.1-1.3,0.3s-0.7,0.6-1,1s-0.4,1-0.4,1.7
		s0.1,1.2,0.4,1.7c0.2,0.4,0.6,0.8,1,1S27.7,152.5,28.2,152.5z"/>
	<path class="st1" d="M34.5,153.4v-6.8h-1.2v-1.1h1.2v-1.4c0-0.8,0.2-1.3,0.6-1.7c0.4-0.4,0.9-0.5,1.7-0.5h0.8v1.1h-0.7
		c-0.4,0-0.7,0.1-0.9,0.2c-0.2,0.2-0.3,0.5-0.3,0.8v1.3h2v1.1h-2v6.8L34.5,153.4L34.5,153.4z"/>
	<path class="st1" d="M43.6,153.4v-7.9h1.2l0.1,1.1c0.3-0.4,0.6-0.8,1-1s0.9-0.4,1.4-0.4c0.6,0,1.2,0.1,1.6,0.4
		c0.5,0.3,0.8,0.6,1.1,1.2c0.3-0.5,0.7-0.9,1.1-1.1c0.5-0.3,1-0.4,1.6-0.4c0.9,0,1.7,0.3,2.3,0.9c0.6,0.6,0.8,1.4,0.8,2.6v4.6h-1.3
		v-4.5c0-0.8-0.2-1.4-0.5-1.9c-0.3-0.4-0.8-0.6-1.4-0.6c-0.6,0-1.2,0.2-1.6,0.7c-0.4,0.5-0.6,1.2-0.6,2.1v4.1h-1.3v-4.5
		c0-0.8-0.2-1.4-0.5-1.9c-0.3-0.4-0.8-0.6-1.4-0.6c-0.6,0-1.2,0.2-1.6,0.7c-0.4,0.5-0.6,1.2-0.6,2.1v4.1L43.6,153.4L43.6,153.4z"/>
	<path class="st1" d="M61.5,153.6c-0.8,0-1.4-0.2-2-0.5s-1.1-0.8-1.4-1.4c-0.3-0.6-0.5-1.4-0.5-2.2s0.2-1.6,0.5-2.2
		c0.3-0.6,0.8-1.1,1.4-1.4s1.3-0.5,2-0.5s1.4,0.2,2,0.5c0.6,0.3,1.1,0.8,1.4,1.4c0.3,0.6,0.5,1.4,0.5,2.2s-0.2,1.6-0.5,2.2
		c-0.3,0.6-0.8,1.1-1.4,1.4C62.9,153.5,62.3,153.6,61.5,153.6z M61.5,152.5c0.5,0,0.9-0.1,1.3-0.3c0.4-0.2,0.7-0.6,1-1
		c0.2-0.5,0.4-1,0.4-1.7s-0.1-1.2-0.4-1.7c-0.2-0.5-0.6-0.8-0.9-1c-0.4-0.2-0.8-0.3-1.3-0.3s-0.9,0.1-1.3,0.3c-0.4,0.2-0.7,0.6-1,1
		s-0.4,1-0.4,1.7s0.1,1.2,0.4,1.7c0.2,0.4,0.6,0.8,0.9,1C60.7,152.4,61.1,152.5,61.5,152.5z"/>
	<path class="st1" d="M71,153.6c-0.8,0-1.5-0.2-2.1-0.5c-0.6-0.4-1-0.9-1.4-1.5s-0.5-1.3-0.5-2.1s0.2-1.5,0.5-2.1s0.8-1.1,1.4-1.5
		s1.3-0.5,2.1-0.5c0.6,0,1.2,0.1,1.7,0.4c0.5,0.3,0.9,0.6,1.2,1.1V142h1.3v11.5H74l-0.1-1.3c-0.3,0.4-0.6,0.7-1.1,1
		S71.7,153.6,71,153.6z M71.1,152.5c0.5,0,1-0.1,1.4-0.4c0.4-0.2,0.7-0.6,1-1c0.2-0.5,0.3-1,0.3-1.6s-0.1-1.1-0.3-1.6
		c-0.2-0.5-0.6-0.8-1-1.1c-0.4-0.2-0.9-0.4-1.4-0.4s-1,0.1-1.4,0.4c-0.4,0.2-0.7,0.6-1,1.1c-0.2,0.4-0.3,1-0.3,1.6s0.1,1.1,0.3,1.6
		c0.2,0.5,0.6,0.8,1,1S70.6,152.5,71.1,152.5z"/>
	<path class="st1" d="M81,153.6c-0.8,0-1.4-0.2-2-0.5s-1-0.8-1.4-1.4c-0.3-0.6-0.5-1.4-0.5-2.2s0.2-1.6,0.5-2.2s0.8-1.1,1.4-1.5
		c0.6-0.3,1.3-0.5,2.1-0.5c0.8,0,1.4,0.2,2,0.5c0.6,0.4,1,0.8,1.3,1.4c0.3,0.6,0.5,1.2,0.5,1.8c0,0.1,0,0.2,0,0.4s0,0.2,0,0.4h-6.3
		c0,0.6,0.2,1.1,0.4,1.5s0.6,0.7,0.9,0.9c0.4,0.2,0.8,0.3,1.2,0.3c0.6,0,1-0.1,1.4-0.4c0.4-0.3,0.7-0.6,0.8-1h1.3
		c-0.2,0.7-0.6,1.4-1.2,1.8C82.7,153.4,81.9,153.6,81,153.6z M81,146.4c-0.6,0-1.2,0.2-1.7,0.6c-0.5,0.4-0.8,1-0.9,1.7h5
		c0-0.7-0.3-1.3-0.7-1.7C82.2,146.6,81.7,146.4,81,146.4z"/>
	<path class="st1" d="M86.5,153.4v-7.9h1.2l0.2,1.5c0.2-0.5,0.6-0.9,1.1-1.2s1.1-0.5,1.9-0.5v1.4h-0.4c-0.5,0-0.9,0.1-1.3,0.2
		c-0.4,0.2-0.7,0.5-0.9,0.8c-0.2,0.4-0.3,0.9-0.3,1.6v4L86.5,153.4L86.5,153.4z"/>
	<path class="st1" d="M95,153.6c-0.7,0-1.2-0.1-1.7-0.3c-0.4-0.2-0.8-0.5-1-0.9s-0.3-0.8-0.3-1.2c0-0.8,0.3-1.4,0.9-1.9
		c0.6-0.4,1.5-0.7,2.5-0.7h2.1v-0.1c0-0.7-0.2-1.2-0.5-1.6c-0.4-0.4-0.9-0.5-1.5-0.5c-0.5,0-1,0.1-1.4,0.4c-0.4,0.3-0.6,0.6-0.7,1.1
		H92c0-0.6,0.2-1.1,0.6-1.5c0.3-0.4,0.8-0.7,1.3-0.9s1-0.3,1.6-0.3c1.1,0,1.9,0.3,2.5,0.9c0.6,0.6,0.8,1.4,0.8,2.4v4.9h-1.2
		l-0.1-1.4c-0.2,0.4-0.5,0.8-1,1.1C96.3,153.5,95.7,153.6,95,153.6z M95.2,152.5c0.5,0,0.9-0.1,1.3-0.4s0.7-0.6,0.8-1
		c0.2-0.4,0.3-0.9,0.3-1.3l0,0h-2c-0.8,0-1.3,0.1-1.7,0.4c-0.3,0.3-0.5,0.6-0.5,1s0.1,0.8,0.5,1C94.2,152.4,94.6,152.5,95.2,152.5z"
		/>
	<path class="st1" d="M103.9,153.4c-0.7,0-1.3-0.2-1.7-0.5c-0.4-0.4-0.6-1-0.6-1.9v-4.4h-1.4v-1.1h1.4l0.2-1.9h1.2v1.9h2.3v1.1h-2.4
		v4.4c0,0.5,0.1,0.8,0.3,1c0.2,0.2,0.6,0.3,1.1,0.3h0.8v1.1L103.9,153.4L103.9,153.4z"/>
	<path class="st1" d="M110.3,153.6c-0.8,0-1.4-0.2-2-0.5s-1.1-0.8-1.4-1.4c-0.3-0.6-0.5-1.4-0.5-2.2s0.2-1.6,0.5-2.2
		c0.3-0.6,0.8-1.1,1.4-1.5c0.6-0.3,1.3-0.5,2.1-0.5c0.8,0,1.4,0.2,2,0.5c0.6,0.4,1,0.8,1.3,1.4c0.3,0.6,0.4,1.2,0.4,1.8
		c0,0.1,0,0.2,0,0.4s0,0.2,0,0.4h-6.3c0,0.6,0.2,1.1,0.4,1.5s0.6,0.7,0.9,0.9c0.4,0.2,0.8,0.3,1.2,0.3c0.6,0,1-0.1,1.4-0.4
		c0.4-0.3,0.6-0.6,0.8-1h1.3c-0.2,0.7-0.6,1.4-1.2,1.8C112,153.4,111.3,153.6,110.3,153.6z M110.3,146.4c-0.6,0-1.2,0.2-1.7,0.6
		c-0.5,0.4-0.8,1-0.9,1.7h5c0-0.7-0.3-1.3-0.7-1.7C111.5,146.6,111,146.4,110.3,146.4z"/>
	<path class="st1" d="M123.2,153.4c-0.7,0-1.3-0.2-1.7-0.5s-0.6-1-0.6-1.9v-4.4h-1.4v-1.1h1.4l0.2-1.9h1.2v1.9h2.3v1.1h-2.3v4.4
		c0,0.5,0.1,0.8,0.3,1s0.6,0.3,1.1,0.3h0.8v1.1L123.2,153.4L123.2,153.4z"/>
	<path class="st1" d="M129.7,153.6c-0.8,0-1.4-0.2-2-0.5s-1.1-0.8-1.4-1.4c-0.4-0.6-0.5-1.4-0.5-2.2s0.2-1.6,0.5-2.2
		c0.4-0.6,0.8-1.1,1.4-1.4c0.6-0.3,1.3-0.5,2-0.5s1.4,0.2,2,0.5s1.1,0.8,1.4,1.4c0.4,0.6,0.5,1.4,0.5,2.2s-0.2,1.6-0.5,2.2
		c-0.4,0.6-0.8,1.1-1.4,1.4C131.1,153.5,130.4,153.6,129.7,153.6z M129.7,152.5c0.5,0,0.9-0.1,1.3-0.3c0.4-0.2,0.7-0.6,1-1
		c0.2-0.5,0.4-1,0.4-1.7s-0.1-1.2-0.4-1.7c-0.2-0.4-0.6-0.8-0.9-1c-0.4-0.2-0.8-0.3-1.3-0.3s-0.9,0.1-1.3,0.3c-0.4,0.2-0.7,0.6-1,1
		s-0.4,1-0.4,1.7s0.1,1.2,0.4,1.7c0.2,0.4,0.6,0.8,0.9,1C128.8,152.4,129.2,152.5,129.7,152.5z"/>
	<path class="st1" d="M26.8,175.4l-3-7.9h1.4l2.4,6.6l2.4-6.6h1.4l-3,7.9H26.8z"/>
	<path class="st1" d="M33.7,165.7c-0.3,0-0.5-0.1-0.7-0.3s-0.3-0.4-0.3-0.7s0.1-0.5,0.3-0.6c0.2-0.2,0.4-0.3,0.7-0.3
		s0.5,0.1,0.7,0.3s0.3,0.4,0.3,0.6c0,0.3-0.1,0.5-0.3,0.7C34.2,165.6,34,165.7,33.7,165.7z M33,175.4v-7.9h1.3v7.9H33z"/>
	<path class="st1" d="M39.8,172.9c-0.5,0-0.9-0.1-1.2-0.2l-0.8,0.8c0.1,0.1,0.3,0.2,0.4,0.2s0.4,0.1,0.8,0.2c0.3,0,0.8,0.1,1.4,0.1
		c1.1,0.1,1.8,0.3,2.3,0.7s0.7,1,0.7,1.6c0,0.5-0.1,0.9-0.4,1.3c-0.2,0.4-0.6,0.8-1.1,1c-0.5,0.3-1.2,0.4-2,0.4
		c-0.7,0-1.3-0.1-1.9-0.3c-0.5-0.2-1-0.5-1.3-0.8c-0.3-0.4-0.5-0.9-0.5-1.4c0-0.3,0.1-0.6,0.2-1c0.2-0.3,0.5-0.7,0.9-1
		c-0.2-0.1-0.4-0.2-0.6-0.3c-0.2-0.1-0.3-0.2-0.5-0.4v-0.4l1.4-1.3c-0.6-0.5-0.9-1.2-0.9-2.1c0-0.5,0.1-1,0.4-1.4
		c0.2-0.4,0.6-0.8,1.1-1s1-0.4,1.7-0.4c0.5,0,0.9,0.1,1.2,0.2H44v1l-1.5,0.1c0.3,0.5,0.5,1,0.5,1.5s-0.1,1-0.4,1.4
		c-0.2,0.4-0.6,0.8-1.1,1C41.1,172.8,40.5,172.9,39.8,172.9z M37.5,176.5c0,0.5,0.2,0.9,0.7,1.2c0.4,0.3,1,0.4,1.7,0.4
		s1.2-0.1,1.6-0.4c0.4-0.3,0.6-0.7,0.6-1.1c0-0.3-0.1-0.6-0.4-0.9c-0.3-0.2-0.8-0.4-1.5-0.4c-0.6,0-1.1-0.1-1.5-0.2
		c-0.4,0.2-0.7,0.5-0.9,0.8C37.6,176,37.5,176.2,37.5,176.5z M39.8,171.8c0.6,0,1-0.1,1.4-0.4c0.3-0.3,0.5-0.7,0.5-1.3
		c0-0.5-0.2-1-0.5-1.3s-0.8-0.4-1.4-0.4c-0.6,0-1,0.1-1.4,0.4s-0.5,0.7-0.5,1.3c0,0.5,0.2,1,0.5,1.3
		C38.8,171.7,39.3,171.8,39.8,171.8z"/>
	<path class="st1" d="M48.8,175.6c-0.8,0-1.4-0.2-2-0.5s-1.1-0.8-1.4-1.4c-0.4-0.6-0.5-1.4-0.5-2.2s0.2-1.6,0.5-2.2
		c0.4-0.6,0.8-1.1,1.4-1.4c0.6-0.3,1.3-0.5,2-0.5s1.4,0.2,2,0.5s1.1,0.8,1.4,1.4c0.4,0.6,0.5,1.4,0.5,2.2s-0.2,1.6-0.5,2.2
		c-0.3,0.6-0.8,1.1-1.4,1.4S49.6,175.6,48.8,175.6z M48.8,174.5c0.5,0,0.9-0.1,1.3-0.3c0.4-0.2,0.7-0.6,1-1c0.2-0.5,0.4-1,0.4-1.7
		s-0.1-1.2-0.4-1.7c-0.2-0.4-0.6-0.8-0.9-1c-0.4-0.2-0.8-0.3-1.3-0.3s-0.9,0.1-1.3,0.3c-0.4,0.2-0.7,0.6-1,1s-0.4,1-0.4,1.7
		s0.1,1.2,0.4,1.7c0.2,0.4,0.6,0.8,0.9,1C48,174.4,48.4,174.5,48.8,174.5z"/>
	<path class="st1" d="M54.7,175.4v-7.9h1.2L56,169c0.2-0.5,0.6-0.9,1.1-1.2s1.1-0.5,1.9-0.5v1.4h-0.4c-0.5,0-0.9,0.1-1.3,0.2
		c-0.4,0.2-0.7,0.5-0.9,0.8c-0.2,0.4-0.4,0.9-0.4,1.6v4L54.7,175.4L54.7,175.4z"/>
	<path class="st1" d="M63.8,175.6c-0.8,0-1.4-0.2-2-0.5s-1.1-0.8-1.4-1.4c-0.3-0.6-0.5-1.4-0.5-2.2s0.2-1.6,0.5-2.2
		c0.3-0.6,0.8-1.1,1.4-1.4s1.3-0.5,2-0.5c0.8,0,1.4,0.2,2,0.5s1.1,0.8,1.4,1.4c0.3,0.6,0.5,1.4,0.5,2.2s-0.2,1.6-0.5,2.2
		c-0.3,0.6-0.8,1.1-1.4,1.4C65.2,175.5,64.6,175.6,63.8,175.6z M63.8,174.5c0.5,0,0.9-0.1,1.3-0.3s0.7-0.6,1-1
		c0.2-0.5,0.4-1,0.4-1.7s-0.1-1.2-0.4-1.7s-0.6-0.8-0.9-1c-0.4-0.2-0.8-0.3-1.3-0.3c-0.5,0-0.9,0.1-1.3,0.3c-0.4,0.2-0.7,0.6-1,1
		s-0.4,1-0.4,1.7s0.1,1.2,0.4,1.7c0.2,0.4,0.6,0.8,0.9,1C62.9,174.4,63.4,174.5,63.8,174.5z"/>
	<path class="st1" d="M72.6,175.6c-0.9,0-1.7-0.3-2.2-0.9c-0.6-0.6-0.8-1.4-0.8-2.6v-4.6h1.3v4.5c0,1.6,0.7,2.5,2,2.5
		c0.7,0,1.3-0.2,1.7-0.7c0.5-0.5,0.7-1.2,0.7-2.1v-4.1h1.3v7.9h-1.2l-0.1-1.4c-0.2,0.5-0.6,0.9-1.1,1.2
		C73.7,175.5,73.2,175.6,72.6,175.6z"/>
	<path class="st1" d="M81.9,175.6c-1,0-1.7-0.2-2.4-0.7c-0.6-0.5-1-1.1-1.1-2h1.4c0.1,0.4,0.3,0.8,0.7,1.1c0.4,0.3,0.8,0.5,1.5,0.5
		c0.6,0,1-0.1,1.2-0.4c0.3-0.2,0.4-0.5,0.4-0.9c0-0.5-0.2-0.8-0.5-1c-0.4-0.2-0.8-0.3-1.5-0.4c-0.4-0.1-0.9-0.2-1.3-0.4
		s-0.8-0.4-1.1-0.7s-0.4-0.7-0.4-1.2c0-0.7,0.3-1.3,0.8-1.7s1.2-0.7,2.1-0.7c0.8,0,1.5,0.2,2.1,0.6c0.5,0.4,0.8,1,0.9,1.8h-1.3
		c-0.1-0.4-0.2-0.7-0.5-1c-0.3-0.2-0.7-0.3-1.2-0.3s-0.9,0.1-1.1,0.3c-0.3,0.2-0.4,0.5-0.4,0.8s0.2,0.6,0.5,0.8s0.8,0.3,1.4,0.5
		c0.5,0.1,1,0.2,1.4,0.4c0.4,0.1,0.8,0.4,1.1,0.7c0.3,0.3,0.4,0.7,0.4,1.3c0,0.7-0.3,1.3-0.8,1.8C83.6,175.4,82.8,175.6,81.9,175.6z
		"/>
	<path class="st1" d="M93.7,175.6c-0.7,0-1.2-0.1-1.6-0.3s-0.8-0.5-1-0.9s-0.3-0.8-0.3-1.2c0-0.8,0.3-1.4,0.9-1.9s1.5-0.7,2.5-0.7
		h2.1v-0.1c0-0.7-0.2-1.2-0.5-1.6c-0.4-0.4-0.8-0.5-1.5-0.5c-0.5,0-1,0.1-1.3,0.4s-0.6,0.6-0.7,1.1h-1.4c0.1-0.6,0.2-1.1,0.6-1.5
		c0.3-0.4,0.8-0.7,1.3-0.9s1-0.3,1.6-0.3c1.1,0,1.9,0.3,2.5,0.9c0.6,0.6,0.8,1.4,0.8,2.4v4.9h-1.2l-0.1-1.4c-0.2,0.4-0.5,0.8-1,1.1
		C95,175.5,94.4,175.6,93.7,175.6z M93.9,174.5c0.5,0,0.9-0.1,1.3-0.4c0.4-0.3,0.7-0.6,0.8-1c0.2-0.4,0.3-0.9,0.3-1.3l0,0h-2
		c-0.8,0-1.3,0.1-1.7,0.4c-0.3,0.3-0.5,0.6-0.5,1s0.2,0.8,0.5,1C92.9,174.4,93.4,174.5,93.9,174.5z"/>
	<path class="st1" d="M103.4,175.6c-0.8,0-1.4-0.2-2-0.5s-1.1-0.8-1.4-1.5c-0.3-0.6-0.5-1.4-0.5-2.2s0.2-1.6,0.5-2.2
		s0.8-1.1,1.4-1.5c0.6-0.3,1.3-0.5,2-0.5c0.9,0,1.7,0.2,2.4,0.7c0.7,0.5,1.1,1.2,1.2,2h-1.4c-0.1-0.5-0.4-0.9-0.8-1.1
		c-0.4-0.3-0.9-0.4-1.5-0.4c-0.4,0-0.9,0.1-1.3,0.3s-0.7,0.6-1,1c-0.2,0.4-0.4,1-0.4,1.7s0.1,1.2,0.4,1.7c0.2,0.4,0.6,0.8,1,1
		s0.8,0.3,1.3,0.3c0.6,0,1-0.1,1.5-0.4c0.4-0.3,0.7-0.7,0.8-1.2h1.4c-0.2,0.8-0.6,1.5-1.2,2S104.3,175.6,103.4,175.6z"/>
	<path class="st1" d="M111.8,175.4c-0.7,0-1.3-0.2-1.7-0.5s-0.6-1-0.6-1.9v-4.4h-1.4v-1.1h1.4l0.2-1.9h1.2v1.9h2.3v1.1h-2.3v4.4
		c0,0.5,0.1,0.8,0.3,1s0.6,0.3,1.1,0.3h0.8v1.1L111.8,175.4L111.8,175.4z"/>
	<path class="st1" d="M115.6,165.7c-0.3,0-0.5-0.1-0.7-0.3s-0.3-0.4-0.3-0.7s0.1-0.5,0.3-0.6c0.2-0.2,0.4-0.3,0.7-0.3
		c0.3,0,0.5,0.1,0.7,0.3s0.3,0.4,0.3,0.6c0,0.3-0.1,0.5-0.3,0.7C116.1,165.6,115.9,165.7,115.6,165.7z M115,175.4v-7.9h1.3v7.9H115z
		"/>
	<path class="st1" d="M120.9,175.4l-3-7.9h1.4l2.4,6.6l2.4-6.6h1.4l-3,7.9H120.9z"/>
	<path class="st1" d="M127.8,165.7c-0.3,0-0.5-0.1-0.7-0.3s-0.3-0.4-0.3-0.7s0.1-0.5,0.3-0.6c0.2-0.2,0.4-0.3,0.7-0.3
		s0.5,0.1,0.7,0.3c0.2,0.2,0.3,0.4,0.3,0.6c0,0.3-0.1,0.5-0.3,0.7C128.3,165.6,128,165.7,127.8,165.7z M127.1,175.4v-7.9h1.3v7.9
		H127.1z"/>
	<path class="st1" d="M133.9,175.4c-0.7,0-1.3-0.2-1.7-0.5c-0.4-0.4-0.6-1-0.6-1.9v-4.4h-1.4v-1.1h1.4l0.2-1.9h1.2v1.9h2.3v1.1H133
		v4.4c0,0.5,0.1,0.8,0.3,1s0.6,0.3,1.1,0.3h0.8v1.1L133.9,175.4L133.9,175.4z"/>
	<path class="st1" d="M137.8,179l2-4.3h-0.5l-3.2-7.2h1.5l2.6,6.2l2.8-6.2h1.4l-5.2,11.5H137.8z"/>
	<path class="st2" d="M28.3,90.9c0.4-0.5,1.7-0.7,3.9-0.7c1.6,0,2.7,0.1,3.1,0.1c0.4,0.1,0.9,0.4,1.4,0.9c0.7,0.7,1,1.5,1,2.4
		c0,0.7-0.3,2.2-0.9,4.6c-0.6,2.1-0.9,3.8-1.1,5.2c0,0.3-0.1,0.7-0.1,1.1c0,0.5,0.2,0.8,0.6,0.9c1.9,0.6,3.5,2.8,4.7,6.7
		c0.2,0.6,0.3,1.5,0.3,2.7c0,2.2-0.3,4.3-0.8,6.4c-0.3,1.1-0.5,1.8-0.8,2.3c-0.3,0.4-0.7,0.9-1.3,1.4c-0.9,0.8-1.6,1.3-1.9,1.3
		c-0.3,0-0.6,0.2-0.9,0.5c-0.3,0.3-0.8,0.5-1.3,0.5c0,0-0.2,0-0.4,0s-0.4,0-0.5,0c-3.8-0.6-5.7-1.3-5.7-2.4c0-0.2,0.1-0.4,0.2-0.7
		c0.2-0.5,0.7-0.9,1.4-1.3s1.4-0.6,2.1-0.6c2.4-0.1,3.6-1.8,3.6-5.4V116c-0.1-1.6-0.4-2.9-0.8-3.9c-0.4-1-1-1.6-1.6-1.6
		c-0.6-0.1-1.3-0.3-2.1-0.7c-0.8-0.3-1.3-0.7-1.6-1c-0.1-0.1-0.2-0.4-0.2-0.6s0.3-1.4,0.8-3.3c1-3.6,1.5-6.6,1.6-8.9
		c0-0.7-0.3-1.1-1-1.3c-1.7-0.5-2.6-1.3-2.6-2.4C27.7,91.9,27.9,91.4,28.3,90.9z"/>
	<path class="st2" d="M51.2,91.1l1.1-1.3h8.2l1.4,1.4c0.9,0.9,1.6,1.9,1.9,2.8c0.4,1.3,0.6,3.9,0.6,7.8c0,2.8-0.1,5-0.3,6.7
		c0,0.7-0.1,1.4-0.2,2.2c-0.1,0.8-0.1,1.5-0.2,2.1c-0.1,0.6-0.1,1-0.1,1.2c-0.2,2-0.9,4.7-2.1,8c-0.3,0.8-0.9,1.8-1.8,2.9
		s-1.5,1.8-2.1,2c-0.7,0.2-1.6,0.4-2.7,0.4c-0.8,0-1.5-0.1-2.2-0.2c-1.3-0.3-2.4-1.8-3.2-4.5s-1.1-6.5-1.1-11.5v-2.8
		c0-6.2,0.3-10,0.6-11.5c0.1-0.6,0.2-1.2,0.3-2s0.2-1.2,0.3-1.5s0.2-0.6,0.4-1C50.4,92,50.8,91.5,51.2,91.1z M58.2,97.6
		c-0.6-2.7-1.2-4-1.9-4c-0.1,0-0.3,0.1-0.4,0.2c-0.6,0.6-0.9,1.7-1.1,3.1c-0.2,1.4-0.3,3.8-0.3,7.2v2.2c0,9.4,0.4,14.1,1.2,14.1
		c0.3,0,0.7-0.7,1.2-2.2c1.2-3.4,1.8-8.3,1.8-14.8C58.7,101.1,58.5,99.1,58.2,97.6z"/>
	<path class="st2" d="M94.8,94.1c0.6-0.2,1.1-0.3,1.5-0.3c1.1,0,1.9,0.4,2.4,1.1c0.3,0.5,0.7,2.3,1,5.4c0.3,3.2,0.6,6.6,0.7,10.3
		c0,1.2,0.1,2.9,0.2,5.1s0.2,4.1,0.2,5.8c0.1,1.6,0.1,2.9,0.1,3.8c0,0.6-0.3,1-0.9,1.4s-1.3,0.6-2,0.6c-0.6,0-1.1-0.1-1.4-0.4
		l-0.8-0.6l-0.2-7.7c-0.3-8.8-0.7-13.2-1.2-13.2c-0.3,0-0.8,1.1-1.5,3.3c-0.4,1.2-0.8,2.1-1.2,2.6c-0.4,0.5-0.9,0.8-1.5,0.8
		c-0.5,0-1-0.1-1.7-0.4s-1.3-0.9-1.8-2s-0.8-1.7-0.8-1.8c0-0.1-0.1-0.4-0.3-0.9c-0.2-0.4-0.5-0.8-0.7-1.2s-0.4-0.5-0.4-0.5v0.8
		c0,1.8,0.1,4.5,0.2,8.1l0.3,8.9l-0.8,1.3c-0.9,1.4-1.7,2.2-2.4,2.2c-0.4,0-0.8-0.3-1.2-0.9c-0.3-0.5-0.6-1.3-0.6-2.4
		c-0.1-1.1-0.2-4.2-0.3-9.6c-0.2-9.8-0.5-15.4-0.7-16.7c0-0.2-0.1-0.4-0.1-0.7c0-0.5,0.2-0.9,0.7-1.4s1.1-0.8,1.9-0.8
		c0.7,0,1.5,0.2,2.4,0.6c0.8,0.4,1.5,0.9,2,1.6s1.5,2.5,3.2,5.6c0.4,0.8,0.8,1.2,1,1.2s0.4-0.3,0.6-0.9c0.2-0.7,0.6-1.6,1.1-2.6
		c0.6-1.3,0.9-2,0.9-2.1c0-0.4,0.3-1,0.8-1.9C94.1,94.7,94.5,94.2,94.8,94.1z"/>
	<path class="st2" d="M108,94.1c0.5-0.6,1.2-0.8,2-0.8s1.4,0.3,1.9,0.8l0.8,0.8l0.4,14.4c0.2,7.9,0.3,12.5,0.3,13.7
		c0,0.6,0,1.2,0,1.6s0,0.7-0.1,1c0,0.2-0.1,0.5-0.2,0.6s-0.2,0.2-0.2,0.3c0,0-0.1,0.1-0.3,0.2c-0.2,0.1-0.3,0.2-0.4,0.2
		c-0.5,0.3-0.8,0.4-1.1,0.4c-0.1,0-0.6-0.1-1.3-0.3c-1-0.4-1.6-0.8-1.7-1.1c-0.2-0.2-0.3-5.3-0.4-15.3s-0.2-15.1-0.3-15.2
		C107.3,95,107.5,94.6,108,94.1z"/>
	<path class="st2" d="M121.4,92.3c0.6-0.3,1.3-0.5,1.9-0.5c1.3,0,2.1,0.8,2.6,2.4c0.3,1.2,0.8,2.5,1.5,3.9s1.1,2.5,1.4,3.3
		c0.4,1.4,0.8,2.3,1.1,2.6c0.1,0.2,0.2,0.2,0.3,0.2c0.2,0,0.3-0.9,0.5-2.7c0.1-1.7,0.1-2.8,0.1-3.4v-0.8c0-0.3-0.1-0.8-0.1-1.3
		c0-1.1,0.3-1.9,0.8-2.5s1.3-0.9,2.4-0.9c0.8,0,1.4,0.2,1.8,0.6c0.4,0.3,0.6,0.8,0.6,1.5c0,0.8,0,1.6-0.1,2.3s-0.2,5.9-0.2,15.5
		c0,6-0.1,9.6-0.1,10.8c0,1.2-0.2,2-0.5,2.3c-0.4,0.5-1.1,0.7-2,0.7c-1.8,0-2.9-0.9-3.2-2.7c-0.1-0.7-0.5-1.9-1.2-3.8
		c-0.6-1.7-1.1-3.2-1.3-4.5c-0.3-1.7-0.9-4.1-1.8-7c-0.1-0.2-0.2-0.4-0.2-0.4c-0.2,0-0.3,1.8-0.3,5.3v3.1v3.3c0,3.4-0.1,5.4-0.2,5.9
		c-0.4,1.2-1.3,1.8-2.7,1.8c-0.8,0-1.5-0.3-2-0.8c-0.4-0.4-0.6-0.8-0.6-1.2c0-0.1,0-0.5,0.1-1.2c0.2-1.4,0.3-6.5,0.3-15.3
		c0-9.8,0.1-15,0.2-15.6c0.1-0.4,0.3-0.6,0.7-0.7C121.3,92.4,121.3,92.4,121.4,92.3z"/>
	<path class="st2" d="M147.8,93.2c0.5-0.2,1.1-0.4,1.8-0.4c0.5,0,0.8,0,1.1,0.1c1.2,0.1,2.1,0.3,2.5,0.5s0.9,0.6,1.2,1.3
		c0.4,0.7,0.6,1.4,0.6,2c0,0.8-0.3,1.4-0.9,2c-0.5,0.5-1,0.8-1.5,0.8c-0.6,0-1.1-0.4-1.6-1.1c-0.4-0.6-0.8-0.8-1.2-0.8
		s-0.8,0.3-1.1,0.8c-0.4,0.5-0.6,1.1-0.7,1.8v0.3c0,2.3,1.8,6.6,5.4,12.9c0.6,1,1.2,2.9,1.7,5.6c0,0.2,0.1,0.5,0.1,0.9
		c0,2.3-0.5,4.1-1.5,5.4c-0.4,0.6-1.1,1-2.1,1.5c-0.9,0.4-1.8,0.6-2.6,0.6c-0.1,0-0.2,0-0.2,0c-0.1,0-0.2,0-0.2,0
		c-1-0.2-2.1-0.9-3.5-2.2c-1.4-1.3-2.1-2.3-2.1-3.1c0-0.3,0.2-0.7,0.7-1.2c0.5-0.4,0.9-0.7,1.3-0.8c0.1,0,0.2-0.1,0.4-0.1
		c0.5,0,1.2,0.7,2.2,2c0.4,0.6,0.8,0.8,1.3,0.8c0.4,0,0.7-0.2,0.9-0.8c0.1-0.2,0.1-0.5,0.1-0.9c0-2.5-1.1-6-3.3-10.7
		c-2-4.4-3.1-7.7-3.1-9.8c0-0.9,0.2-1.8,0.5-2.6c0.7-1.7,1.2-2.8,1.6-3.3C146.2,94.1,146.8,93.6,147.8,93.2z"/>
	<path class="st3" d="M298.3,47.2l-60-20l-64.9,195.2l60,20L298.3,47.2z"/>
	<path class="st2" d="M255.7,194.8L184,171c-4.7-1.6-7.2-6.6-5.7-11.3l26.3-79.2c1.6-4.7,6.6-7.2,11.3-5.7l71.7,23.8
		c4.7,1.6,7.2,6.6,5.7,11.3L267,189.1C265.4,193.9,260.4,196.4,255.7,194.8z"/>
	<path class="st3" d="M257.2,189l-70.9-23.5c-2-0.7-3.1-2.8-2.4-4.8l25.8-77.5c0.7-2,2.8-3.1,4.8-2.4l70.9,23.6
		c2,0.7,3.1,2.8,2.4,4.8L262,186.7C261.3,188.5,259.1,189.6,257.2,189z"/>
	<path class="st4" d="M215.8,131.4c-0.8,0.1-1.3-0.8-0.9-1.4l2.3-3.4l1.8,1.4l-2,2.6C216.7,131,216.3,131.3,215.8,131.4z"/>
	<path class="st4" d="M242.8,127.5c0.8-0.1,1-1.1,0.4-1.6l-3.1-2.6l-1.4,1.8l2.6,2C241.8,127.4,242.3,127.5,242.8,127.5z"/>
	<path class="st4" d="M225.8,94.3l1,6.3c0.1,0.4-0.2,0.7-0.6,0.8l-0.6,0.1c-0.4,0.1-0.7-0.2-0.8-0.6l-1-6.3
		c-0.1-0.4,0.2-0.7,0.6-0.8l0.6-0.1C225.4,93.7,225.8,93.9,225.8,94.3z"/>
	<path class="st4" d="M227.2,130.9c9.3,0,16.8-7.5,16.8-16.8s-7.5-16.8-16.8-16.8s-16.8,7.5-16.8,16.8
		C210.4,123.3,217.9,130.9,227.2,130.9z"/>
	<path class="st5" d="M227.2,129.2c8.4,0,15.2-6.8,15.2-15.2s-6.8-15.2-15.2-15.2S212,105.6,212,114S218.8,129.2,227.2,129.2z"/>
	<path class="st2" d="M226.5,114l-0.3-0.3c-0.3-0.3-0.2-0.7,0-1l8.2-7.8c0.3-0.3,0.7-0.2,1,0l0.3,0.3c0.3,0.3,0.2,0.7,0,1l-8.2,7.8
		C227.2,114.2,226.8,114.2,226.5,114z"/>
	<path class="st6" d="M215.6,107.5c0.5-2.1,3.8-4.7,6.6-5.2"/>
	<path class="st6" d="M239.3,118.9c-0.7,1.9-2.5,4.2-4.4,5.1"/>
	<path class="st7" d="M246.1,110.9c0.3,2.2,0.2,4.4-0.3,6.6"/>
	<path class="st7" d="M248.7,110.2c0.3,2.2,0.2,4.4-0.3,6.6"/>
	<path class="st7" d="M207.3,113.6c-0.1,2.2,0.2,4.4,0.8,6.5"/>
	<path class="st7" d="M204.6,113.2c-0.1,2.2,0.2,4.4,0.8,6.5"/>
	<path class="st2" d="M227.7,94.3l-5.7,0.8c-0.4,0-0.8-0.2-0.8-0.6l-0.1-0.5c-0.1-0.4,0.2-0.8,0.6-0.8l5.7-0.8
		c0.4-0.1,0.8,0.2,0.8,0.6l0.1,0.5C228.4,93.9,228.1,94.2,227.7,94.3z"/>
	<path class="st8" d="M270.3,107.8c-1.2-2.5-4.2-3.5-6.7-2.4c-2.6,1.2-3.6,4.4-2.3,7l3.7,7.5c0.4,0.9,1.5,1.2,2.4,0.8l7.6-3.8
		c2.5-1.2,3.5-4.3,2.3-6.8C275.9,107.5,272.9,106.5,270.3,107.8z"/>
	<path class="st9" d="M262.7,107.9c0,0,1-1.8,3.6-1.7"/>
	<path class="st10" d="M186.5,140.5l36,12c0.2,0.1,0.4,0,0.5-0.1l7.1-8.4c0.3-0.4,0.9-0.1,0.9,0.3l-1.6,26c0,0.5,0.7,0.7,0.9,0.2
		l16.9-32.7c0.2-0.5,1-0.2,0.9,0.3l-3.2,20.8c0,0.2,0.1,0.5,0.3,0.5l27.6,9.2"/>
</g>
</svg>
