<?xml version="1.0" encoding="utf-8"?>
<!-- Generator: Adobe Illustrator 25.1.0, SVG Export Plug-In . SVG Version: 6.00 Build 0)  -->
<svg version="1.1" id="Layer_1" xmlns="http://www.w3.org/2000/svg" xmlns:xlink="http://www.w3.org/1999/xlink" x="0px" y="0px"
	 viewBox="0 0 332.1 181.6" style="enable-background:new 0 0 332.1 181.6;" xml:space="preserve">
<style type="text/css">
	.st0{fill:#FFFFFF;}
	.st1{fill:#808080;}
	.st2{fill:#E14504;}
	.st3{fill:#FF9F1A;}
	.st4{fill:#F4F1EF;}
	.st5{fill:#BFF2F6;}
	.st6{fill:none;stroke:#D64204;stroke-width:0.7459;stroke-linecap:round;stroke-miterlimit:10;}
	.st7{fill:none;stroke:#FF9F1A;stroke-width:0.8182;stroke-linecap:round;stroke-linejoin:round;stroke-miterlimit:10;}
</style>
<g>
	<g>
		<path class="st0" d="M330.5,127.8c0-122.6,15.7-116.3-50-125.7C253-1.8,145.7,0.8,108.9,1.3C72.8,1.8,14.5-4.9,8.2,13.9
			C1.9,32.5,0,52.1,0,85.6c0,52.5-1.3,86,35.8,92.7c37.7,6.8,151.1,1.1,196.5,0.3C279.3,177.8,330.5,181.4,330.5,127.8z"/>
		<path class="st1" d="M21.4,28.9V17.7h1.3v11.2H21.4z"/>
		<path class="st1" d="M28.1,28.9c-0.7,0-1.3-0.2-1.7-0.5c-0.4-0.3-0.6-1-0.6-1.9v-4.4h-1.4V21h1.4l0.2-1.9h1.2V21h2.3v1.1h-2.3v4.4
			c0,0.5,0.1,0.8,0.3,1s0.6,0.3,1.1,0.3h0.8V29h-1.3V28.9z"/>
		<path class="st1" d="M38.3,29.1c-0.9,0-1.7-0.3-2.2-0.9c-0.6-0.6-0.8-1.4-0.8-2.6V21h1.3v4.5c0,1.6,0.7,2.5,2,2.5
			c0.7,0,1.3-0.2,1.7-0.7c0.5-0.5,0.7-1.2,0.7-2.1v-4.1h1.3V29h-1.2L41,27.6c-0.2,0.5-0.6,0.9-1.1,1.2
			C39.4,28.9,38.9,29.1,38.3,29.1z"/>
		<path class="st1" d="M47.6,29.1c-0.9,0-1.7-0.2-2.4-0.7c-0.6-0.5-1-1.1-1.1-2h1.4c0.1,0.4,0.3,0.8,0.7,1.1S47,28,47.6,28
			c0.6,0,1-0.1,1.2-0.4c0.3-0.2,0.4-0.5,0.4-0.9c0-0.5-0.2-0.8-0.5-1s-0.8-0.3-1.5-0.4c-0.4-0.1-0.8-0.2-1.3-0.4
			c-0.4-0.2-0.8-0.4-1.1-0.7c-0.3-0.3-0.4-0.7-0.4-1.2c0-0.7,0.3-1.3,0.8-1.7c0.5-0.4,1.2-0.7,2.1-0.7c0.8,0,1.5,0.2,2.1,0.6
			c0.5,0.4,0.8,1,0.9,1.8H49c-0.1-0.4-0.2-0.7-0.5-1c-0.3-0.2-0.7-0.3-1.2-0.3s-0.8,0.1-1.1,0.3c-0.3,0.2-0.4,0.5-0.4,0.8
			s0.2,0.6,0.5,0.8c0.3,0.2,0.8,0.3,1.4,0.5c0.5,0.1,1,0.2,1.4,0.4s0.8,0.4,1.1,0.7c0.3,0.3,0.4,0.7,0.4,1.3c0,0.7-0.3,1.3-0.8,1.8
			C49.3,28.9,48.5,29.1,47.6,29.1z"/>
		<path class="st1" d="M56.1,29.1c-0.8,0-1.4-0.2-2-0.5c-0.6-0.4-1.1-0.8-1.4-1.5c-0.3-0.6-0.5-1.3-0.5-2.2c0-0.8,0.2-1.6,0.5-2.2
			s0.8-1.1,1.4-1.5c0.6-0.3,1.3-0.5,2.1-0.5s1.4,0.2,2,0.5c0.6,0.4,1,0.8,1.3,1.4s0.5,1.2,0.5,1.8c0,0.1,0,0.2,0,0.4s0,0.2,0,0.4
			h-6.3c0,0.6,0.2,1.1,0.4,1.5s0.6,0.7,0.9,0.9c0.4,0.2,0.8,0.3,1.2,0.3c0.6,0,1-0.1,1.4-0.4s0.7-0.6,0.8-1h1.3
			c-0.2,0.7-0.6,1.3-1.2,1.8C57.8,28.8,57.1,29.1,56.1,29.1z M56.1,21.9c-0.6,0-1.2,0.2-1.7,0.6s-0.8,1-0.9,1.7h5
			c0-0.7-0.3-1.3-0.7-1.7C57.4,22.1,56.8,21.9,56.1,21.9z"/>
		<path class="st1" d="M64.7,29.1c-1,0-1.7-0.2-2.4-0.7c-0.6-0.5-1-1.1-1.1-2h1.4c0.1,0.4,0.3,0.8,0.7,1.1c0.4,0.3,0.8,0.5,1.5,0.5
			c0.6,0,1-0.1,1.2-0.4c0.3-0.2,0.4-0.5,0.4-0.9c0-0.5-0.2-0.8-0.5-1c-0.4-0.2-0.8-0.3-1.5-0.4c-0.4-0.1-0.9-0.2-1.3-0.4
			c-0.4-0.2-0.8-0.4-1.1-0.7c-0.3-0.3-0.4-0.7-0.4-1.2c0-0.7,0.3-1.3,0.8-1.7c0.5-0.4,1.2-0.7,2.1-0.7c0.8,0,1.5,0.2,2.1,0.6
			c0.5,0.4,0.8,1,0.9,1.8h-1.3c-0.1-0.4-0.2-0.7-0.5-1s-0.7-0.3-1.2-0.3s-0.8,0.1-1.1,0.3c-0.3,0.2-0.4,0.5-0.4,0.8s0.2,0.6,0.5,0.8
			c0.3,0.2,0.8,0.3,1.4,0.5c0.5,0.1,1,0.2,1.4,0.4c0.4,0.2,0.8,0.4,1.1,0.7c0.3,0.3,0.4,0.7,0.4,1.3c0,0.7-0.3,1.3-0.8,1.8
			C66.4,28.9,65.6,29.1,64.7,29.1z"/>
		<path class="st1" d="M78.2,29.1c-0.7,0-1.2-0.1-1.7-0.4s-0.9-0.6-1.2-1.1l-0.1,1.3H74V17.4h1.3v4.9c0.3-0.4,0.6-0.7,1.1-1
			s1.1-0.5,1.8-0.5c0.8,0,1.5,0.2,2.1,0.5c0.6,0.4,1,0.9,1.4,1.5s0.5,1.3,0.5,2.1S82,26.4,81.7,27s-0.8,1.1-1.4,1.5
			C79.6,28.9,78.9,29.1,78.2,29.1z M78,27.9c0.5,0,1-0.1,1.4-0.4c0.4-0.2,0.7-0.6,1-1c0.2-0.5,0.4-1,0.4-1.6s-0.1-1.1-0.4-1.6
			c-0.2-0.4-0.6-0.8-1-1s-0.9-0.4-1.4-0.4s-1,0.1-1.4,0.4c-0.4,0.2-0.7,0.6-1,1c-0.2,0.5-0.3,1-0.3,1.6s0.1,1.1,0.3,1.6
			c0.2,0.5,0.6,0.8,1,1C77,27.8,77.5,27.9,78,27.9z"/>
		<path class="st1" d="M87.6,29.1c-0.8,0-1.4-0.2-2-0.5s-1.1-0.8-1.4-1.5c-0.3-0.6-0.5-1.4-0.5-2.2c0-0.8,0.2-1.6,0.5-2.2
			s0.8-1.1,1.4-1.4s1.3-0.5,2-0.5c0.8,0,1.4,0.2,2,0.5s1.1,0.8,1.4,1.4s0.5,1.4,0.5,2.2c0,0.8-0.2,1.6-0.5,2.2s-0.8,1.1-1.4,1.5
			C89,28.9,88.3,29.1,87.6,29.1z M87.6,27.9c0.5,0,0.9-0.1,1.3-0.3c0.4-0.2,0.7-0.6,1-1c0.2-0.5,0.4-1,0.4-1.7s-0.1-1.2-0.4-1.7
			c-0.2-0.4-0.6-0.8-1-1s-0.8-0.3-1.3-0.3s-0.9,0.1-1.3,0.3c-0.4,0.2-0.7,0.6-1,1c-0.2,0.4-0.4,1-0.4,1.7s0.1,1.2,0.4,1.7
			s0.6,0.8,1,1C86.7,27.8,87.1,27.9,87.6,27.9z"/>
		<path class="st1" d="M97,29.1c-0.8,0-1.5-0.2-2.1-0.5c-0.6-0.4-1.1-0.9-1.4-1.5S93,25.8,93,25s0.2-1.5,0.5-2.1s0.8-1.1,1.4-1.5
			s1.3-0.5,2.1-0.5c0.7,0,1.2,0.1,1.7,0.4s0.9,0.6,1.2,1.1v-4.9h1.3V29H100l-0.1-1.3c-0.3,0.4-0.6,0.7-1.1,1
			C98.4,28.9,97.8,29.1,97,29.1z M97.2,27.9c0.5,0,1-0.1,1.4-0.4c0.4-0.2,0.7-0.6,1-1c0.2-0.5,0.3-1,0.3-1.6s-0.1-1.1-0.3-1.6
			c-0.2-0.4-0.5-0.8-1-1c-0.4-0.2-0.9-0.4-1.4-0.4s-1,0.1-1.4,0.4c-0.4,0.2-0.7,0.6-1,1c-0.2,0.5-0.3,1-0.3,1.6s0.1,1.1,0.3,1.6
			s0.6,0.8,1,1C96.2,27.8,96.7,27.9,97.2,27.9z"/>
		<path class="st1" d="M104.3,32.4l2-4.3h-0.5l-3.2-7.2h1.5l2.6,6.2l2.8-6.2h1.4l-5.2,11.5H104.3z"/>
		<path class="st1" d="M118.2,28.9l-2.3-7.9h1.3l1.7,6.2l1.9-6.2h1.5l1.9,6.2l1.7-6.2h1.4l-2.3,7.9h-1.5l-1.9-6.5l-1.9,6.5H118.2z"
			/>
		<path class="st1" d="M131.9,29.1c-0.8,0-1.4-0.2-2-0.5c-0.6-0.4-1-0.8-1.4-1.5c-0.3-0.6-0.5-1.3-0.5-2.2c0-0.8,0.2-1.6,0.5-2.2
			s0.8-1.1,1.4-1.5c0.6-0.3,1.3-0.5,2.1-0.5s1.4,0.2,2,0.5c0.6,0.4,1,0.8,1.3,1.4s0.4,1.2,0.4,1.8c0,0.1,0,0.2,0,0.4
			c0,0.1,0,0.2,0,0.4h-6.3c0,0.6,0.2,1.1,0.4,1.5s0.6,0.7,0.9,0.9c0.4,0.2,0.8,0.3,1.2,0.3c0.6,0,1-0.1,1.4-0.4s0.7-0.6,0.8-1h1.3
			c-0.2,0.7-0.6,1.3-1.2,1.8C133.7,28.8,132.9,29.1,131.9,29.1z M131.9,21.9c-0.6,0-1.2,0.2-1.7,0.6s-0.8,1-0.9,1.7h5
			c0-0.7-0.3-1.3-0.7-1.7C133.2,22.1,132.6,21.9,131.9,21.9z"/>
		<path class="st1" d="M138.3,19.2c-0.3,0-0.5-0.1-0.7-0.3c-0.2-0.2-0.3-0.4-0.3-0.7c0-0.3,0.1-0.5,0.3-0.6c0.2-0.2,0.4-0.3,0.7-0.3
			s0.5,0.1,0.7,0.3c0.2,0.2,0.3,0.4,0.3,0.6c0,0.3-0.1,0.5-0.3,0.7C138.8,19.1,138.6,19.2,138.3,19.2z M137.6,28.9V21h1.3v7.9H137.6
			z"/>
		<path class="st1" d="M144.4,26.4c-0.4,0-0.9-0.1-1.2-0.2l-0.8,0.8c0.1,0.1,0.3,0.2,0.4,0.2c0.2,0.1,0.4,0.1,0.8,0.2
			c0.3,0.1,0.8,0.1,1.4,0.2c1.1,0.1,1.8,0.3,2.3,0.7c0.5,0.4,0.7,1,0.7,1.6c0,0.5-0.1,0.9-0.4,1.3c-0.2,0.4-0.6,0.8-1.2,1
			c-0.5,0.3-1.2,0.4-2,0.4c-0.7,0-1.4-0.1-1.9-0.3s-1-0.5-1.3-0.9s-0.5-0.9-0.5-1.4c0-0.3,0.1-0.6,0.2-1c0.2-0.4,0.5-0.7,0.9-1
			c-0.2-0.1-0.4-0.2-0.6-0.3c-0.2-0.1-0.3-0.2-0.5-0.4v-0.4l1.4-1.3c-0.6-0.5-0.9-1.2-0.9-2.1c0-0.5,0.1-1,0.4-1.4
			c0.2-0.4,0.6-0.8,1.1-1s1-0.4,1.7-0.4c0.5,0,0.9,0.1,1.2,0.2h2.9v1L147,22c0.3,0.4,0.5,1,0.5,1.5s-0.1,1-0.4,1.4
			c-0.2,0.4-0.6,0.8-1.1,1C145.7,26.3,145.1,26.4,144.4,26.4z M142.1,29.9c0,0.5,0.2,0.9,0.7,1.2s1,0.4,1.7,0.4s1.2-0.1,1.6-0.4
			c0.4-0.3,0.6-0.7,0.6-1.2c0-0.3-0.1-0.6-0.4-0.9s-0.8-0.4-1.5-0.4c-0.6,0-1.1-0.1-1.5-0.2c-0.4,0.2-0.7,0.5-0.9,0.8
			S142.1,29.7,142.1,29.9z M144.4,25.3c0.6,0,1-0.1,1.3-0.4s0.5-0.7,0.5-1.3c0-0.5-0.2-1-0.5-1.3s-0.8-0.4-1.3-0.4
			c-0.6,0-1,0.1-1.4,0.4c-0.3,0.3-0.5,0.7-0.5,1.3c0,0.5,0.2,1,0.5,1.3C143.4,25.1,143.9,25.3,144.4,25.3z"/>
		<path class="st1" d="M150.1,28.9V17.4h1.3v4.9c0.3-0.5,0.7-0.9,1.1-1.1c0.5-0.3,1-0.4,1.6-0.4c0.9,0,1.6,0.3,2.2,0.9
			c0.6,0.6,0.8,1.5,0.8,2.6v4.6h-1.3v-4.5c0-1.7-0.7-2.5-2-2.5c-0.7,0-1.3,0.2-1.7,0.7c-0.5,0.5-0.7,1.2-0.7,2.1v4.1L150.1,28.9
			L150.1,28.9z"/>
		<path class="st1" d="M162.4,28.9c-0.7,0-1.3-0.2-1.7-0.5s-0.6-1-0.6-1.9v-4.4h-1.4V21h1.4l0.2-1.9h1.2V21h2.3v1.1h-2.3v4.4
			c0,0.5,0.1,0.8,0.3,1s0.6,0.3,1.1,0.3h0.8V29h-1.3V28.9z"/>
		<path class="st1" d="M172.4,29.1c-0.7,0-1.2-0.1-1.6-0.3c-0.4-0.2-0.8-0.5-1-0.9s-0.3-0.8-0.3-1.2c0-0.8,0.3-1.4,0.9-1.9
			c0.6-0.4,1.5-0.7,2.5-0.7h2.1V24c0-0.7-0.2-1.2-0.5-1.6c-0.4-0.4-0.9-0.5-1.5-0.5c-0.5,0-1,0.1-1.3,0.4c-0.4,0.3-0.6,0.6-0.7,1.1
			h-1.4c0-0.6,0.2-1.1,0.6-1.5c0.3-0.4,0.8-0.7,1.3-0.9c0.5-0.2,1-0.3,1.6-0.3c1.1,0,1.9,0.3,2.5,0.9s0.8,1.4,0.8,2.4v4.9h-1.2
			l-0.1-1.4c-0.2,0.5-0.6,0.8-1,1.1C173.7,28.9,173.1,29.1,172.4,29.1z M172.6,27.9c0.5,0,0.9-0.1,1.3-0.4c0.4-0.3,0.6-0.6,0.8-1
			s0.3-0.9,0.3-1.3l0,0h-2c-0.8,0-1.4,0.1-1.7,0.4s-0.5,0.6-0.5,1s0.1,0.8,0.5,1C171.6,27.8,172,27.9,172.6,27.9z"/>
		<path class="st1" d="M181.4,29.1c-0.9,0-1.7-0.2-2.4-0.7c-0.6-0.5-1-1.1-1.1-2h1.4c0.1,0.4,0.3,0.8,0.7,1.1
			c0.3,0.3,0.8,0.5,1.4,0.5c0.6,0,1-0.1,1.2-0.4c0.3-0.2,0.4-0.5,0.4-0.9c0-0.5-0.2-0.8-0.5-1c-0.4-0.2-0.8-0.3-1.5-0.4
			c-0.4-0.1-0.9-0.2-1.3-0.4c-0.4-0.2-0.8-0.4-1.1-0.7c-0.3-0.3-0.4-0.7-0.4-1.2c0-0.7,0.3-1.3,0.8-1.7s1.2-0.7,2.1-0.7
			c0.8,0,1.5,0.2,2.1,0.6c0.5,0.4,0.9,1,0.9,1.8h-1.3c-0.1-0.4-0.2-0.7-0.5-1c-0.3-0.2-0.7-0.3-1.2-0.3s-0.9,0.1-1.1,0.3
			c-0.3,0.2-0.4,0.5-0.4,0.8s0.2,0.6,0.5,0.8c0.3,0.2,0.8,0.3,1.4,0.5c0.5,0.1,1,0.2,1.4,0.4c0.4,0.2,0.8,0.4,1.1,0.7
			c0.3,0.3,0.4,0.7,0.4,1.3c0,0.7-0.3,1.3-0.8,1.8C183.1,28.9,182.4,29.1,181.4,29.1z"/>
		<path class="st1" d="M190.6,28.9V21h1.2l0.1,1.5c0.2-0.5,0.6-0.9,1.1-1.2s1.1-0.5,1.9-0.5v1.4h-0.4c-0.5,0-0.9,0.1-1.3,0.2
			c-0.4,0.2-0.7,0.5-0.9,0.8c-0.2,0.4-0.4,0.9-0.4,1.6v4h-1.3V28.9z"/>
		<path class="st1" d="M199.7,29.1c-0.8,0-1.4-0.2-2-0.5c-0.6-0.4-1.1-0.8-1.4-1.5c-0.3-0.6-0.5-1.3-0.5-2.2c0-0.8,0.2-1.6,0.5-2.2
			s0.8-1.1,1.4-1.5c0.6-0.3,1.3-0.5,2.1-0.5s1.4,0.2,2,0.5c0.6,0.4,1,0.8,1.3,1.4s0.5,1.2,0.5,1.8c0,0.1,0,0.2,0,0.4
			c0,0.1,0,0.2,0,0.4h-6.3c0,0.6,0.2,1.1,0.4,1.5s0.6,0.7,0.9,0.9c0.4,0.2,0.8,0.3,1.2,0.3c0.6,0,1-0.1,1.4-0.4s0.6-0.6,0.8-1h1.3
			c-0.2,0.7-0.6,1.3-1.2,1.8C201.4,28.8,200.6,29.1,199.7,29.1z M199.7,21.9c-0.6,0-1.2,0.2-1.7,0.6s-0.8,1-0.9,1.7h5
			c0-0.7-0.3-1.3-0.7-1.7C200.9,22.1,200.4,21.9,199.7,21.9z"/>
		<path class="st1" d="M208.3,29.1c-0.9,0-1.7-0.2-2.4-0.7c-0.6-0.5-1-1.1-1.1-2h1.4c0.1,0.4,0.3,0.8,0.7,1.1
			c0.4,0.3,0.8,0.5,1.4,0.5c0.6,0,1-0.1,1.2-0.4c0.3-0.2,0.4-0.5,0.4-0.9c0-0.5-0.2-0.8-0.5-1s-0.8-0.3-1.5-0.4
			c-0.4-0.1-0.9-0.2-1.3-0.4c-0.4-0.2-0.8-0.4-1.1-0.7c-0.3-0.3-0.4-0.7-0.4-1.2c0-0.7,0.3-1.3,0.8-1.7c0.5-0.4,1.2-0.7,2.1-0.7
			c0.8,0,1.5,0.2,2.1,0.6c0.5,0.4,0.8,1,0.9,1.8h-1.3c-0.1-0.4-0.2-0.7-0.5-1c-0.3-0.2-0.7-0.3-1.2-0.3s-0.8,0.1-1.1,0.3
			c-0.3,0.2-0.4,0.5-0.4,0.8s0.2,0.6,0.5,0.8c0.3,0.2,0.8,0.3,1.4,0.5c0.5,0.1,1,0.2,1.4,0.4s0.8,0.4,1.1,0.7
			c0.3,0.3,0.4,0.7,0.4,1.3c0,0.7-0.3,1.3-0.8,1.8C209.9,28.9,209.2,29.1,208.3,29.1z"/>
		<path class="st1" d="M214,19.2c-0.3,0-0.5-0.1-0.7-0.3c-0.2-0.2-0.3-0.4-0.3-0.7c0-0.3,0.1-0.5,0.3-0.6c0.2-0.2,0.4-0.3,0.7-0.3
			s0.5,0.1,0.7,0.3c0.2,0.2,0.3,0.4,0.3,0.6c0,0.3-0.1,0.5-0.3,0.7C214.5,19.1,214.3,19.2,214,19.2z M213.4,28.9V21h1.3v7.9H213.4z"
			/>
		<path class="st1" d="M220.1,29.1c-0.9,0-1.7-0.2-2.4-0.7s-1-1.1-1.1-2h1.4c0.1,0.4,0.3,0.8,0.7,1.1c0.3,0.3,0.8,0.5,1.4,0.5
			c0.6,0,1-0.1,1.2-0.4c0.3-0.2,0.4-0.5,0.4-0.9c0-0.5-0.2-0.8-0.5-1c-0.4-0.2-0.8-0.3-1.5-0.4c-0.4-0.1-0.9-0.2-1.3-0.4
			c-0.4-0.2-0.8-0.4-1.1-0.7c-0.3-0.3-0.4-0.7-0.4-1.2c0-0.7,0.3-1.3,0.8-1.7s1.2-0.7,2.1-0.7c0.8,0,1.5,0.2,2.1,0.6
			c0.5,0.4,0.9,1,0.9,1.8h-1.3c-0.1-0.4-0.2-0.7-0.5-1c-0.3-0.2-0.7-0.3-1.2-0.3s-0.9,0.1-1.1,0.3c-0.3,0.2-0.4,0.5-0.4,0.8
			s0.2,0.6,0.5,0.8c0.3,0.2,0.8,0.3,1.4,0.5c0.5,0.1,1,0.2,1.4,0.4s0.8,0.4,1.1,0.7c0.3,0.3,0.4,0.7,0.4,1.3c0,0.7-0.3,1.3-0.8,1.8
			C221.8,28.9,221,29.1,220.1,29.1z"/>
		<path class="st1" d="M227.8,28.9c-0.7,0-1.3-0.2-1.7-0.5s-0.6-1-0.6-1.9v-4.4h-1.4V21h1.4l0.2-1.9h1.2V21h2.3v1.1h-2.3v4.4
			c0,0.5,0.1,0.8,0.3,1s0.6,0.3,1.1,0.3h0.8V29h-1.3V28.9z"/>
		<path class="st1" d="M233.5,29.1c-0.7,0-1.2-0.1-1.6-0.3c-0.4-0.2-0.8-0.5-1-0.9s-0.3-0.8-0.3-1.2c0-0.8,0.3-1.4,0.9-1.9
			c0.6-0.4,1.5-0.7,2.5-0.7h2.1V24c0-0.7-0.2-1.2-0.5-1.6c-0.4-0.4-0.9-0.5-1.5-0.5c-0.5,0-1,0.1-1.3,0.4s-0.6,0.6-0.7,1.1h-1.4
			c0-0.6,0.2-1.1,0.6-1.5c0.3-0.4,0.8-0.7,1.3-0.9c0.5-0.2,1-0.3,1.6-0.3c1.1,0,1.9,0.3,2.5,0.9s0.8,1.4,0.8,2.4v4.9h-1.2l-0.1-1.4
			c-0.2,0.5-0.5,0.8-1,1.1C234.8,28.9,234.3,29.1,233.5,29.1z M233.7,27.9c0.5,0,0.9-0.1,1.3-0.4c0.4-0.3,0.6-0.6,0.8-1
			s0.3-0.9,0.3-1.3l0,0h-2c-0.8,0-1.4,0.1-1.7,0.4s-0.5,0.6-0.5,1s0.1,0.8,0.5,1C232.7,27.8,233.2,27.9,233.7,27.9z"/>
		<path class="st1" d="M239.5,28.9V21h1.2l0.1,1.4c0.3-0.5,0.6-0.9,1.1-1.2c0.5-0.3,1-0.4,1.6-0.4c0.9,0,1.7,0.3,2.2,0.9
			c0.6,0.6,0.8,1.5,0.8,2.6v4.6h-1.3v-4.5c0-1.7-0.7-2.5-2-2.5c-0.7,0-1.2,0.2-1.7,0.7c-0.4,0.5-0.7,1.2-0.7,2.1v4.1L239.5,28.9
			L239.5,28.9z"/>
		<path class="st1" d="M252.3,29.1c-0.8,0-1.4-0.2-2-0.5c-0.6-0.4-1.1-0.8-1.4-1.5c-0.4-0.6-0.5-1.3-0.5-2.2s0.2-1.6,0.5-2.2
			s0.8-1.1,1.4-1.5c0.6-0.3,1.3-0.5,2-0.5c0.9,0,1.7,0.2,2.4,0.7c0.6,0.5,1.1,1.1,1.2,2h-1.4c-0.1-0.5-0.4-0.9-0.8-1.1
			c-0.4-0.3-0.9-0.4-1.5-0.4c-0.4,0-0.9,0.1-1.3,0.3c-0.4,0.2-0.7,0.6-1,1c-0.2,0.4-0.4,1-0.4,1.7s0.1,1.2,0.4,1.7
			c0.2,0.5,0.6,0.8,1,1s0.8,0.3,1.3,0.3c0.6,0,1-0.1,1.5-0.4c0.4-0.3,0.7-0.7,0.8-1.2h1.4c-0.2,0.8-0.6,1.5-1.2,2
			S253.3,29.1,252.3,29.1z"/>
		<path class="st1" d="M261.4,29.1c-0.8,0-1.4-0.2-2-0.5c-0.6-0.4-1-0.8-1.4-1.5c-0.3-0.6-0.5-1.3-0.5-2.2c0-0.8,0.2-1.6,0.5-2.2
			s0.8-1.1,1.4-1.5c0.6-0.3,1.3-0.5,2.1-0.5c0.8,0,1.4,0.2,2,0.5c0.6,0.4,1,0.8,1.3,1.4s0.5,1.2,0.5,1.8c0,0.1,0,0.2,0,0.4
			c0,0.1,0,0.2,0,0.4H259c0,0.6,0.2,1.1,0.4,1.5c0.2,0.4,0.6,0.7,0.9,0.9s0.8,0.3,1.2,0.3c0.5,0,1-0.1,1.4-0.4s0.6-0.6,0.8-1h1.3
			c-0.2,0.7-0.6,1.3-1.2,1.8C263.1,28.8,262.3,29.1,261.4,29.1z M261.4,21.9c-0.6,0-1.2,0.2-1.7,0.6s-0.8,1-0.9,1.7h5
			c0-0.7-0.3-1.3-0.7-1.7C262.6,22.1,262.1,21.9,261.4,21.9z"/>
		<path class="st1" d="M265.8,30.8l0.9-3.5h1.4l-1.4,3.5H265.8z"/>
		<path class="st1" d="M24.3,51.1c-1,0-1.7-0.2-2.4-0.7s-1-1.1-1.1-2h1.4c0.1,0.4,0.3,0.8,0.7,1.1c0.4,0.3,0.8,0.5,1.5,0.5
			c0.6,0,1-0.1,1.2-0.4c0.3-0.2,0.4-0.5,0.4-0.9c0-0.5-0.2-0.8-0.5-1c-0.4-0.2-0.8-0.3-1.5-0.4c-0.4-0.1-0.9-0.2-1.3-0.4
			c-0.4-0.2-0.8-0.4-1.1-0.7c-0.3-0.3-0.4-0.7-0.4-1.2c0-0.7,0.3-1.3,0.8-1.7s1.2-0.7,2.1-0.7c0.8,0,1.5,0.2,2.1,0.6
			c0.5,0.4,0.9,1,0.9,1.8h-1.3c0-0.4-0.2-0.7-0.5-1s-0.7-0.3-1.2-0.3S23.3,43.8,23,44c-0.3,0.2-0.4,0.5-0.4,0.8s0.2,0.6,0.5,0.8
			c0.3,0.2,0.8,0.3,1.4,0.5c0.5,0.1,1,0.2,1.4,0.4s0.8,0.4,1.1,0.7c0.3,0.3,0.4,0.7,0.4,1.3c0,0.7-0.3,1.3-0.8,1.8
			C26,50.9,25.2,51.1,24.3,51.1z"/>
		<path class="st1" d="M32.9,51.1c-0.8,0-1.4-0.2-2-0.5c-0.6-0.3-1.1-0.8-1.4-1.5c-0.3-0.6-0.5-1.4-0.5-2.2c0-0.8,0.2-1.6,0.5-2.2
			s0.8-1.1,1.4-1.4c0.6-0.3,1.3-0.5,2-0.5s1.4,0.2,2,0.5s1.1,0.8,1.4,1.4c0.3,0.6,0.5,1.4,0.5,2.2c0,0.8-0.2,1.6-0.5,2.2
			s-0.8,1.1-1.4,1.5C34.3,50.9,33.6,51.1,32.9,51.1z M32.9,49.9c0.5,0,0.9-0.1,1.3-0.3c0.4-0.2,0.7-0.6,1-1c0.2-0.5,0.4-1,0.4-1.7
			s-0.1-1.2-0.4-1.7c-0.2-0.5-0.6-0.8-1-1s-0.8-0.3-1.3-0.3S32,44,31.6,44.2c-0.4,0.2-0.7,0.6-1,1c-0.2,0.4-0.4,1-0.4,1.7
			s0.1,1.2,0.4,1.7c0.2,0.4,0.6,0.8,0.9,1C32,49.8,32.4,49.9,32.9,49.9z"/>
		<path class="st1" d="M45.6,51.1c-0.7,0-1.2-0.1-1.7-0.3c-0.4-0.2-0.8-0.5-1-0.9s-0.3-0.8-0.3-1.2c0-0.8,0.3-1.4,0.9-1.9
			s1.5-0.7,2.5-0.7h2.1V46c0-0.7-0.2-1.2-0.5-1.6c-0.4-0.4-0.8-0.5-1.5-0.5c-0.5,0-1,0.1-1.3,0.4c-0.4,0.3-0.6,0.6-0.7,1.1h-1.4
			c0-0.6,0.2-1.1,0.6-1.5c0.3-0.4,0.8-0.7,1.3-0.9c0.5-0.2,1-0.3,1.6-0.3c1.1,0,1.9,0.3,2.5,0.9s0.8,1.4,0.8,2.4v4.9h-1.2l-0.1-1.4
			c-0.2,0.5-0.6,0.8-1,1.1C46.9,50.9,46.3,51.1,45.6,51.1z M45.8,49.9c0.5,0,0.9-0.1,1.3-0.4c0.4-0.3,0.7-0.6,0.8-1
			c0.2-0.4,0.3-0.9,0.3-1.3l0,0h-2c-0.8,0-1.3,0.1-1.7,0.4c-0.3,0.3-0.5,0.6-0.5,1s0.2,0.8,0.5,1C44.8,49.8,45.3,49.9,45.8,49.9z"/>
		<path class="st1" d="M51.6,50.9V39.4h1.3v11.5H51.6z"/>
		<path class="st1" d="M55.2,50.9V39.4h1.3v11.5H55.2z"/>
		<path class="st1" d="M63.8,54.4l2-4.3h-0.5l-3.2-7.2h1.5l2.6,6.2l2.8-6.2h1.5l-5.2,11.5H63.8z"/>
		<path class="st1" d="M74.7,51.1c-0.8,0-1.4-0.2-2-0.5s-1.1-0.8-1.4-1.5c-0.3-0.6-0.5-1.4-0.5-2.2c0-0.8,0.2-1.6,0.5-2.2
			s0.8-1.1,1.4-1.4s1.3-0.5,2-0.5c0.8,0,1.4,0.2,2,0.5s1.1,0.8,1.4,1.4s0.5,1.4,0.5,2.2c0,0.8-0.2,1.6-0.5,2.2s-0.8,1.1-1.4,1.5
			C76.2,50.9,75.5,51.1,74.7,51.1z M74.7,49.9c0.5,0,0.9-0.1,1.3-0.3c0.4-0.2,0.7-0.6,1-1c0.2-0.5,0.4-1,0.4-1.7s-0.1-1.2-0.4-1.7
			s-0.6-0.8-0.9-1s-0.8-0.3-1.3-0.3s-0.9,0.1-1.3,0.3s-0.7,0.6-1,1c-0.2,0.4-0.4,1-0.4,1.7s0.1,1.2,0.4,1.7s0.6,0.8,0.9,1
			C73.9,49.8,74.3,49.9,74.7,49.9z"/>
		<path class="st1" d="M83.5,51.1c-0.9,0-1.7-0.3-2.2-0.9c-0.6-0.6-0.8-1.4-0.8-2.6V43h1.3v4.5c0,1.6,0.7,2.5,2,2.5
			c0.7,0,1.3-0.2,1.7-0.7c0.5-0.5,0.7-1.2,0.7-2.1v-4.1h1.3V51h-1.2l-0.1-1.4c-0.2,0.5-0.6,0.9-1.1,1.2
			C84.6,50.9,84.1,51.1,83.5,51.1z"/>
		<path class="st1" d="M94,50.9V43h1.2l0.1,1.4c0.3-0.5,0.6-0.9,1.1-1.2c0.5-0.3,1-0.4,1.6-0.4c0.9,0,1.7,0.3,2.2,0.9
			s0.8,1.5,0.8,2.6v4.6h-1.3v-4.5c0-1.7-0.7-2.5-2-2.5c-0.7,0-1.2,0.2-1.7,0.7c-0.4,0.5-0.7,1.2-0.7,2.1v4.1L94,50.9L94,50.9z"/>
		<path class="st1" d="M106.7,51.1c-0.8,0-1.4-0.2-2-0.5c-0.6-0.4-1-0.8-1.4-1.5c-0.3-0.6-0.5-1.3-0.5-2.2c0-0.8,0.2-1.6,0.5-2.2
			s0.8-1.1,1.4-1.5c0.6-0.3,1.3-0.5,2.1-0.5c0.8,0,1.4,0.2,2,0.5c0.6,0.4,1,0.8,1.3,1.4s0.5,1.2,0.5,1.8c0,0.1,0,0.2,0,0.4
			c0,0.1,0,0.2,0,0.4h-6.3c0,0.6,0.2,1.1,0.4,1.5c0.2,0.4,0.6,0.7,0.9,0.9c0.4,0.2,0.8,0.3,1.2,0.3c0.6,0,1-0.1,1.4-0.4
			s0.6-0.6,0.8-1h1.3c-0.2,0.7-0.6,1.3-1.2,1.8C108.4,50.8,107.6,51.1,106.7,51.1z M106.7,43.9c-0.6,0-1.2,0.2-1.7,0.6
			s-0.8,1-0.9,1.7h5c0-0.7-0.3-1.3-0.7-1.7C107.9,44.1,107.4,43.9,106.7,43.9z"/>
		<path class="st1" d="M115.8,51.1c-0.8,0-1.4-0.2-2-0.5c-0.6-0.4-1.1-0.8-1.4-1.5c-0.3-0.6-0.5-1.3-0.5-2.2c0-0.8,0.2-1.6,0.5-2.2
			s0.8-1.1,1.4-1.5c0.6-0.3,1.3-0.5,2.1-0.5c0.8,0,1.4,0.2,2,0.5c0.6,0.4,1,0.8,1.3,1.4s0.4,1.2,0.4,1.8c0,0.1,0,0.2,0,0.4
			s0,0.2,0,0.4h-6.3c0,0.6,0.2,1.1,0.4,1.5c0.2,0.4,0.6,0.7,0.9,0.9s0.8,0.3,1.2,0.3c0.5,0,1-0.1,1.4-0.4c0.4-0.2,0.6-0.6,0.8-1h1.3
			c-0.2,0.7-0.6,1.3-1.2,1.8C117.5,50.8,116.8,51.1,115.8,51.1z M115.8,43.9c-0.6,0-1.2,0.2-1.7,0.6s-0.8,1-0.9,1.7h5
			c0-0.7-0.3-1.3-0.7-1.7C117.1,44.1,116.5,43.9,115.8,43.9z"/>
		<path class="st1" d="M124.9,51.1c-0.8,0-1.5-0.2-2.1-0.5c-0.6-0.4-1.1-0.9-1.4-1.5s-0.5-1.3-0.5-2.1s0.2-1.5,0.5-2.1
			s0.8-1.1,1.4-1.5s1.3-0.5,2.1-0.5c0.6,0,1.2,0.1,1.7,0.4s0.9,0.6,1.2,1.1v-4.9h1.3V51h-1.2l-0.1-1.3c-0.3,0.4-0.6,0.7-1.1,1
			C126.3,50.9,125.7,51.1,124.9,51.1z M125.1,49.9c0.5,0,1-0.1,1.4-0.4c0.4-0.2,0.7-0.6,1-1c0.2-0.5,0.3-1,0.3-1.6s-0.1-1.1-0.3-1.6
			c-0.2-0.4-0.6-0.8-1-1s-0.9-0.4-1.4-0.4s-1,0.1-1.4,0.4s-0.7,0.6-1,1c-0.2,0.5-0.3,1-0.3,1.6s0.1,1.1,0.3,1.6c0.2,0.5,0.5,0.8,1,1
			C124.1,49.8,124.6,49.9,125.1,49.9z"/>
		<path class="st1" d="M136.5,41.2c-0.3,0-0.5-0.1-0.7-0.3c-0.2-0.2-0.3-0.4-0.3-0.7c0-0.3,0.1-0.5,0.3-0.6c0.2-0.2,0.4-0.3,0.7-0.3
			s0.5,0.1,0.7,0.3c0.2,0.2,0.3,0.4,0.3,0.6c0,0.3-0.1,0.5-0.3,0.7C136.9,41.1,136.7,41.2,136.5,41.2z M135.8,50.9V43h1.3v7.9H135.8
			z"/>
		<path class="st1" d="M142.5,51.1c-0.9,0-1.7-0.2-2.4-0.7s-1-1.1-1.1-2h1.4c0.1,0.4,0.3,0.8,0.7,1.1c0.3,0.3,0.8,0.5,1.4,0.5
			c0.6,0,1-0.1,1.2-0.4c0.3-0.2,0.4-0.5,0.4-0.9c0-0.5-0.2-0.8-0.5-1c-0.4-0.2-0.8-0.3-1.5-0.4c-0.4-0.1-0.8-0.2-1.3-0.4
			c-0.4-0.2-0.8-0.4-1.1-0.7c-0.3-0.3-0.4-0.7-0.4-1.2c0-0.7,0.3-1.3,0.8-1.7s1.2-0.7,2.1-0.7c0.8,0,1.5,0.2,2.1,0.6
			c0.5,0.4,0.9,1,0.9,1.8h-1.3c-0.1-0.4-0.2-0.7-0.5-1c-0.3-0.2-0.7-0.3-1.2-0.3s-0.9,0.1-1.1,0.3c-0.3,0.2-0.4,0.5-0.4,0.8
			s0.2,0.6,0.5,0.8c0.3,0.2,0.8,0.3,1.4,0.5c0.5,0.1,1,0.2,1.4,0.4s0.8,0.4,1.1,0.7c0.3,0.3,0.4,0.7,0.4,1.3c0,0.7-0.3,1.3-0.8,1.8
			C144.2,50.9,143.4,51.1,142.5,51.1z"/>
		<path class="st1" d="M154.3,51.1c-0.7,0-1.2-0.1-1.7-0.3c-0.4-0.2-0.8-0.5-1-0.9s-0.3-0.8-0.3-1.2c0-0.8,0.3-1.4,0.9-1.9
			s1.5-0.7,2.5-0.7h2.1V46c0-0.7-0.2-1.2-0.5-1.6c-0.4-0.4-0.9-0.5-1.5-0.5c-0.5,0-1,0.1-1.4,0.4s-0.6,0.6-0.7,1.1h-1.4
			c0.1-0.6,0.2-1.1,0.6-1.5c0.3-0.4,0.8-0.7,1.3-0.9c0.5-0.2,1-0.3,1.6-0.3c1.1,0,1.9,0.3,2.5,0.9s0.8,1.4,0.8,2.4v4.9h-1.2
			l-0.1-1.4c-0.2,0.5-0.6,0.8-1,1.1C155.6,50.9,155.1,51.1,154.3,51.1z M154.5,49.9c0.5,0,0.9-0.1,1.3-0.4c0.4-0.3,0.7-0.6,0.8-1
			c0.2-0.4,0.3-0.9,0.3-1.3l0,0h-2c-0.8,0-1.4,0.1-1.7,0.4s-0.5,0.6-0.5,1s0.2,0.8,0.5,1C153.6,49.8,154,49.9,154.5,49.9z"/>
		<path class="st1" d="M23.9,115c-0.7,0-1.2-0.1-1.7-0.3c-0.4-0.2-0.8-0.5-1-0.9s-0.3-0.8-0.3-1.2c0-0.8,0.3-1.4,0.9-1.9
			s1.5-0.7,2.5-0.7h2.1v-0.1c0-0.7-0.2-1.2-0.5-1.6c-0.4-0.4-0.9-0.5-1.5-0.5c-0.5,0-1,0.1-1.4,0.4s-0.6,0.6-0.7,1.1h-1.4
			c0-0.6,0.2-1.1,0.6-1.5c0.3-0.4,0.8-0.7,1.3-0.9c0.5-0.2,1-0.3,1.6-0.3c1.1,0,1.9,0.3,2.5,0.9s0.8,1.4,0.8,2.4v4.9h-1.2l-0.1-1.4
			c-0.2,0.5-0.5,0.8-1,1.1C25.2,114.9,24.6,115,23.9,115z M24.1,113.9c0.5,0,1-0.1,1.3-0.4s0.6-0.6,0.8-1c0.2-0.4,0.3-0.9,0.3-1.3
			l0,0h-2c-0.8,0-1.3,0.1-1.7,0.4c-0.3,0.3-0.5,0.6-0.5,1s0.2,0.8,0.5,1C23.1,113.8,23.6,113.9,24.1,113.9z"/>
		<path class="st1" d="M29.9,114.8v-7.9h1.2l0.1,1.4c0.3-0.5,0.6-0.9,1.1-1.2c0.5-0.3,1-0.4,1.6-0.4c0.9,0,1.7,0.3,2.2,0.9
			c0.6,0.6,0.8,1.5,0.8,2.6v4.6h-1.3v-4.5c0-1.7-0.7-2.5-2.1-2.5c-0.7,0-1.2,0.2-1.7,0.7c-0.5,0.5-0.7,1.2-0.7,2.1v4.1L29.9,114.8
			L29.9,114.8z"/>
		<path class="st1" d="M42.7,115c-0.8,0-1.5-0.2-2.1-0.5c-0.6-0.4-1-0.9-1.4-1.5c-0.3-0.6-0.5-1.3-0.5-2.1c0-0.8,0.2-1.5,0.5-2.1
			s0.8-1.1,1.4-1.5s1.3-0.5,2.1-0.5c0.6,0,1.2,0.1,1.7,0.4s0.9,0.6,1.2,1.1v-4.9h1.3v11.5h-1.2l-0.1-1.3c-0.3,0.4-0.6,0.7-1.1,1
			C44,114.9,43.4,115,42.7,115z M42.8,113.8c0.5,0,1-0.1,1.4-0.4c0.4-0.2,0.7-0.6,1-1c0.2-0.5,0.3-1,0.3-1.6s-0.1-1.1-0.3-1.6
			s-0.5-0.8-1-1.1c-0.4-0.2-0.9-0.4-1.4-0.4s-1,0.1-1.4,0.4s-0.7,0.6-1,1.1c-0.2,0.4-0.3,1-0.3,1.6s0.1,1.1,0.3,1.6s0.5,0.8,1,1
			C41.8,113.7,42.3,113.8,42.8,113.8z"/>
		<path class="st1" d="M56.5,114.8c-0.7,0-1.3-0.2-1.7-0.5s-0.6-1-0.6-1.9V108h-1.4v-1.1h1.4l0.2-1.9h1.1v1.9h2.3v1.1h-2.3v4.4
			c0,0.5,0.1,0.8,0.3,1s0.6,0.3,1.1,0.3h0.8v1.2h-1.2V114.8z"/>
		<path class="st1" d="M59.6,114.8v-11.5h1.3v4.9c0.3-0.5,0.7-0.9,1.1-1.1c0.5-0.3,1-0.4,1.6-0.4c0.9,0,1.7,0.3,2.2,0.9
			s0.8,1.5,0.8,2.6v4.6h-1.3v-4.5c0-1.7-0.7-2.5-2-2.5c-0.7,0-1.3,0.2-1.7,0.7c-0.5,0.5-0.7,1.2-0.7,2.1v4.1L59.6,114.8L59.6,114.8z
			"/>
		<path class="st1" d="M69.5,105.1c-0.3,0-0.5-0.1-0.7-0.3s-0.3-0.4-0.3-0.7c0-0.3,0.1-0.5,0.3-0.6c0.2-0.2,0.4-0.3,0.7-0.3
			c0.3,0,0.5,0.1,0.7,0.3c0.2,0.2,0.3,0.4,0.3,0.6c0,0.3-0.1,0.5-0.3,0.7S69.8,105.1,69.5,105.1z M68.9,114.8v-7.9h1.3v7.9H68.9z"/>
		<path class="st1" d="M75.6,115c-1,0-1.7-0.2-2.4-0.7c-0.6-0.5-1-1.1-1.1-2h1.4c0.1,0.4,0.3,0.8,0.7,1.1s0.8,0.5,1.4,0.5
			s1-0.1,1.2-0.4c0.3-0.2,0.4-0.5,0.4-0.9c0-0.5-0.2-0.8-0.5-1c-0.4-0.2-0.8-0.3-1.5-0.4c-0.4-0.1-0.9-0.2-1.3-0.4
			c-0.4-0.2-0.8-0.4-1.1-0.7c-0.3-0.3-0.4-0.7-0.4-1.2c0-0.7,0.3-1.3,0.8-1.7c0.5-0.4,1.2-0.7,2.1-0.7c0.8,0,1.5,0.2,2.1,0.6
			c0.5,0.4,0.8,1,0.9,1.8H77c-0.1-0.4-0.2-0.7-0.5-1s-0.7-0.3-1.2-0.3s-0.8,0.1-1.1,0.3c-0.3,0.2-0.4,0.5-0.4,0.8s0.2,0.6,0.5,0.8
			c0.3,0.2,0.8,0.3,1.4,0.5c0.5,0.1,1,0.2,1.4,0.4c0.4,0.2,0.8,0.4,1.1,0.7c0.3,0.3,0.4,0.7,0.4,1.3c0,0.7-0.3,1.3-0.8,1.8
			C77.3,114.8,76.5,115,75.6,115z"/>
		<path class="st2" d="M22.7,66.8c0.4-0.2,0.8-0.3,1.3-0.3c0.3,0,0.6,0,0.8,0c0.9,0.1,1.5,0.2,1.8,0.4c0.3,0.2,0.6,0.5,0.9,0.9
			c0.3,0.5,0.5,1,0.5,1.5s-0.2,1-0.6,1.4s-0.7,0.6-1.1,0.6s-0.8-0.3-1.1-0.8c-0.3-0.4-0.6-0.6-0.9-0.6s-0.5,0.2-0.8,0.6
			s-0.4,0.8-0.5,1.3V72c0,1.7,1.3,4.8,3.8,9.3c0.4,0.7,0.8,2.1,1.2,4c0,0.1,0,0.3,0,0.6c0,1.7-0.3,3-1,3.9c-0.3,0.4-0.8,0.8-1.5,1.1
			c-0.7,0.3-1.3,0.5-1.9,0.5c-0.1,0-0.1,0-0.2,0s-0.1,0-0.2,0c-0.7-0.1-1.5-0.7-2.5-1.6s-1.5-1.7-1.5-2.2c0-0.2,0.2-0.5,0.5-0.9
			s0.7-0.5,1-0.6c0.1,0,0.2,0,0.3,0c0.3,0,0.9,0.5,1.6,1.5c0.3,0.4,0.6,0.6,0.9,0.6s0.5-0.2,0.7-0.5c0.1-0.1,0.1-0.3,0.1-0.7
			c0-1.8-0.8-4.3-2.4-7.7c-1.5-3.2-2.2-5.5-2.2-7c0-0.7,0.1-1.3,0.4-1.9c0.5-1.2,0.9-2,1.1-2.4C21.5,67.5,22,67.1,22.7,66.8z"/>
		<path class="st2" d="M33.6,65.9c0.4-0.4,1.1-0.5,2.1-0.5h1c1.6,0.1,2.6,0.1,3,0.2c0.2,0.1,0.6,0.1,1.3,0.2c0.7,0,1.2,0.2,1.5,0.4
			c0.3,0.2,0.5,0.6,0.5,1.2s-0.2,1-0.4,1.2S42,69,41.5,69.1c-0.6,0.1-1,0.2-1.1,0.3c-0.2,0.1-0.2,3.1-0.2,8.7c0,3.9,0,6.7,0.1,8.3
			c0.1,1.3,0.1,2,0.1,2.1c0,0.6-0.1,1.2-0.4,1.7c-0.3,0.6-0.9,0.9-1.6,0.9c-0.5,0-0.9-0.1-1.4-0.4l-0.9-0.5l0.1-10.4
			c0.1-2.7,0.1-5.4,0.1-8c0-1.6-0.1-2.5-0.4-2.7c-0.4-0.2-0.6-0.3-0.7-0.2c-0.1,0-0.3,0-0.5,0c-0.5,0-1-0.2-1.4-0.5
			s-0.5-0.7-0.5-1.1C32.9,66.7,33.1,66.3,33.6,65.9z"/>
		<path class="st2" d="M48.2,65.6c0.4-0.3,0.8-0.4,1.4-0.4c0.7,0,1.2,0.2,1.6,0.5l0.6,0.5v5.6c0.1,6.5,0.3,10.9,0.6,13.3
			c0.1,0.5,0.2,0.7,0.3,0.7c0.3,0,0.5-0.9,0.7-2.8c0.4-3.9,0.6-7.8,0.6-11.6v-1v-0.6c0-2.1,0.2-3.3,0.7-3.6c0.1-0.1,0.5-0.2,0.9-0.2
			c0.8,0,1.4,0.1,1.8,0.5c0.5,0.5,0.7,1.7,0.7,3.7c0,1.7-0.1,4.8-0.4,9.4c-0.2,3.8-0.6,6.5-1.2,8.1c-0.6,1.6-1.6,2.6-2.9,3
			c-0.5,0.2-0.9,0.3-1.1,0.3c-0.2,0-0.7-0.2-1.5-0.5c-1.7-0.8-2.6-2-2.8-3.8c-0.2-1.5-0.4-6.4-0.5-14.7c0-1.2-0.1-2.5-0.1-4
			c0-0.9,0-1.5,0.1-1.8C47.9,66,48,65.8,48.2,65.6z"/>
		<path class="st2" d="M64.3,66c0.6-0.2,1.2-0.3,2.1-0.3s1.6,0.1,2,0.3c0.8,0.3,1.4,0.9,1.8,1.8c0.2,0.4,0.4,1.2,0.5,2.4
			c0.2,1.2,0.2,2.2,0.2,3.1c0,0.4,0,0.7,0,0.9c-0.1,0.8-0.3,1.6-0.6,2.6c-0.3,1-0.6,1.4-0.7,1.4c-0.2,0-0.4,0.2-0.4,0.6
			c0,0.3,0.1,0.6,0.3,1c0.5,0.7,1.2,2,2.1,3.9s1.4,3.1,1.5,3.6c0,0.2,0,0.4,0,0.6c0,0.4-0.1,0.8-0.3,1c-0.2,0.4-0.5,0.6-0.9,0.6
			c-0.3,0-0.6,0-0.8-0.1c-0.8-0.1-1.2-0.2-1.4-0.3c-0.2-0.1-0.3-0.4-0.3-0.7c0-0.6-0.3-1.5-0.9-2.8c-0.6-1.2-1.1-1.9-1.4-1.9H67
			c-0.1,0.1-0.1,0.4-0.1,1c0,0.9,0.1,1.9,0.3,3c0.1,0.5,0.1,0.8,0.1,1c0,1-0.2,1.7-0.7,1.9c-0.2,0.1-0.4,0.1-0.8,0.1
			c-1,0-1.6-0.2-1.8-0.7c-0.2-0.2-0.3-2.3-0.4-6.2c0-1.2-0.1-2.6-0.1-4s0-2.5,0-3.1c0-0.7,0-1.5-0.1-2.6c-0.1-1-0.2-2.2-0.3-3.5
			c-0.1-1.5-0.2-2.3-0.2-2.6c0-0.7,0.1-1.2,0.3-1.5C63.3,66.3,63.7,66.1,64.3,66z M67.2,69.3c-0.1-0.2-0.3-0.4-0.5-0.4
			s-0.3,0.1-0.5,0.3c-0.1,0.2-0.1,0.4,0,0.6c0,0,0.1,1,0.2,2.9s0.2,2.9,0.3,3c0.1,0.1,0.2-0.1,0.5-0.4c0.2-0.3,0.3-0.8,0.3-1.5
			c0-0.6,0-1.1-0.1-1.5C67.4,70.7,67.3,69.7,67.2,69.3z"/>
		<path class="st2" d="M78.7,68.4c0.2,0,0.9,0,2.3,0c1.6,0,2.8,0.4,3.6,1c0.8,0.7,1.5,1.8,1.9,3.5c0.5,1.7,0.7,3.5,0.7,5.7
			c0,0.5,0,1-0.1,1.5s-0.2,1.1-0.3,2.1c-0.1,0.9-0.2,1.7-0.4,2.5c-0.1,0.7-0.3,1.2-0.5,1.5c-0.2,0.2-0.2,0.5-0.2,0.8
			c0,0.2-0.2,0.7-0.5,1.3c-0.3,0.7-0.6,1.1-0.8,1.4c-0.4,0.4-0.9,0.8-1.6,1.2c-0.7,0.3-1.4,0.6-2.1,0.6c-0.6,0.1-0.9,0.1-1,0.1
			c-0.4,0-0.7-0.2-1.1-0.5L78,90.5l0.1-7.7v-2.3c0-3.8-0.1-5.9-0.1-6.3c-0.2-1.2-0.3-2.3-0.3-3.2C77.8,69.4,78.1,68.5,78.7,68.4z
			 M83,74c-0.5-1.6-0.8-2.4-1.1-2.4l-0.1,0.1l-0.1,0.1c0,0.1,0,0.2,0,0.3s0,0.3,0,0.4c0,0.4,0,1.3,0.1,2.6c0.1,1.5,0.2,3.7,0.2,6.4
			c0,2.5,0.1,3.8,0.3,3.8c0.1,0,0.2-0.2,0.3-0.6c0.6-1.9,0.9-4,0.9-6.2C83.5,76.7,83.3,75.2,83,74z"/>
		<path class="st2" d="M94.2,66.5c0.5-0.2,0.9-0.3,1.2-0.3c0.5,0,0.9,0.2,1.2,0.5c0.4,0.4,0.6,1.2,0.6,2.3c0.1,2.1,0.5,4,1.2,5.8
			c0.2,0.6,0.3,1,0.3,1.3c0,0.1,0,0.2,0.1,0.3c0.1,0.1,0.1,0.1,0.2,0c0.2-0.1,0.3-0.6,0.3-1.4c0-0.9,0.1-1.3,0.1-1.4
			c0.1-0.1,0.1-1,0.2-2.9c0.1-1.8,0.1-3,0.1-3.5c0-0.2,0.4-0.5,1-0.7c0.6-0.3,1.2-0.4,1.6-0.4c0.7,0,1.2,0.2,1.5,0.7
			c0.3,0.4,0.4,0.8,0.4,1.1c0,0.4-0.1,2-0.4,4.8c-0.1,0.6-0.2,2.2-0.4,4.9c-0.1,2-0.6,4.5-1.3,7.3c-0.4,1.5-0.7,2.6-1.1,3.4
			s-0.9,1.6-1.6,2.3c-0.4,0.4-0.7,0.6-0.9,0.6c-0.2,0-0.4,0.2-0.6,0.5s-0.5,0.6-1.1,0.8s-1.2,0.3-1.8,0.3c-0.5,0-1.1-0.2-1.7-0.5
			s-1-0.7-1-0.9c0-0.3,0.2-0.7,0.5-1.1s0.8-0.7,1.3-1c0.9-0.4,1.6-1,2.2-1.8c0.5-0.8,1-1.9,1.5-3.3c0.5-1.6,0.8-2.6,0.8-3
			c0-0.3-0.2-0.6-0.7-0.8c-1.3-0.6-2.2-1.2-2.6-2c-0.2-0.4-0.7-2.4-1.4-5.9c-0.4-1.7-0.6-3.1-0.6-4C93.1,67.5,93.4,66.8,94.2,66.5z"
			/>
		<path class="st2" d="M123.3,69.2c0.6-0.6,1-0.9,1.2-1s0.6-0.2,1.1-0.2c1.4,0,2.1,0.5,2.1,1.4c0,0.8-0.6,1.5-1.8,2.2
			c-0.8,0.4-1.4,2-1.8,4.6c-0.2,1.2-0.3,2.4-0.3,3.7c0,1.3,0.1,2.6,0.2,4c0.1,1.7,0.4,2.9,0.7,3.6c0.3,0.7,0.9,1.1,1.6,1.2
			c1.2,0.2,1.9,0.6,2.1,1c0,0.1,0.1,0.1,0.1,0.2c0,0.3-0.2,0.6-0.5,0.9c-0.3,0.3-0.7,0.5-1.2,0.6c-0.1,0-0.3,0.1-0.5,0.1
			c-1.1,0-2.1-0.3-3.1-0.8c-0.3-0.2-0.7-0.8-1.2-1.6c-0.5-0.9-0.8-1.8-1.1-2.6c-0.3-1.2-0.5-3.4-0.5-6.6c0-1.2,0.1-2.4,0.2-3.5
			c0.2-1.9,0.6-3.3,1-4.3C121.8,71.1,122.5,70.2,123.3,69.2z"/>
		<path class="st2" d="M133.3,67.9c0.1-0.2,0.3-0.4,0.8-0.4s1.1,0.2,1.6,0.5c0.4,0.2,0.6,0.5,0.7,0.6c0.1,0.2,0.1,0.6,0.2,1.2
			c0,4.3,0.1,6.9,0.1,7.6s0.2,1.1,0.4,1.1h0.1c0.3,0,0.6-0.1,0.9-0.3c0.2-0.1,0.3-0.5,0.4-0.9s0.1-1.6,0.1-3.4
			c0-2.7,0.1-4.2,0.3-4.5c0.3-0.5,0.8-0.8,1.7-0.8c0.3,0,0.6,0.1,0.9,0.2l0.6,0.4L142,74c-0.1,2-0.1,4.8-0.1,8.4
			c0,4,0.1,6.7,0.2,7.9l0.2,2l-0.7,0.3c-0.2,0.1-0.5,0.2-0.7,0.2s-0.5-0.1-1-0.3c-0.6-0.3-1-0.6-1.1-0.8c-0.1-0.2-0.2-1.9-0.2-5.1
			c-0.1-3.1-0.2-4.7-0.3-4.9c-0.1-0.1-0.4-0.1-0.9,0l-0.8,0.2l0.1,3.8c0.1,2.6,0.3,4.1,0.5,4.6c0.1,0.4,0.2,0.7,0.2,1
			c0,0.7-0.3,1.1-1,1.2c-0.3,0.1-0.5,0.1-0.7,0.1c-0.8,0-1.5-0.2-2-0.7c-0.2-0.2-0.3-0.9-0.4-2c0-1.1-0.1-4.5-0.1-10.1
			C133.1,72.2,133.1,68.2,133.3,67.9z"/>
		<path class="st2" d="M150.5,70.1c0.8-0.8,2-1.2,3.6-1.2c0.7,0,1.3,0.1,1.7,0.4c0.6,0.3,1.1,1.2,1.4,2.6c0.2,1.2,0.5,3.1,0.8,5.9
			s0.5,4.9,0.6,6.4c0,1.4,0.1,3,0.3,4.8s0.3,2.8,0.4,2.9c0,0,0.1,0.1,0.1,0.2c0,0.3-0.1,0.6-0.4,1c-0.2,0.4-0.5,0.6-0.7,0.7
			c-0.1,0-0.2,0-0.4,0c-0.5,0-1-0.1-1.5-0.3s-0.9-0.4-1-0.7c-0.1-0.2-0.3-1.1-0.4-2.5c-0.2-1.4-0.2-2.6-0.2-3.5
			c0-0.8-0.1-1.3-0.3-1.4s-0.8-0.1-2.1-0.1c-1,0-1.6,0.1-1.6,0.1c0,0.2-0.1,0.3-0.1,0.5c0,0.6,0.1,1.5,0.1,2.5
			c0.1,1.2,0.1,2.2,0.1,2.9v0.4c0,0.2-0.2,0.4-0.7,0.6c-0.4,0.2-0.8,0.2-1.2,0.2c-0.2,0-0.3,0-0.4,0c-1-0.3-1.6-0.7-1.7-1.3
			c0,0,0-0.1,0-0.2s0-0.2,0-0.3c0-1.3,0.1-4,0.5-8.2c0.3-4.2,0.5-6.6,0.7-7.3c0.2-0.8,0.5-1.8,1.1-2.9
			C149.5,71.2,150,70.5,150.5,70.1z M153.6,74.8c-0.2-0.9-0.4-1.3-0.6-1.3c-0.2,0-0.5,0.3-0.7,1c-0.6,1.2-0.9,2.9-1.1,5
			c-0.1,0.9-0.1,1.4-0.1,1.5c0,0.4,0.1,0.7,0.2,0.8c0.1,0.1,0.6,0.2,1.2,0.2c0.9,0,1.4-0.1,1.5-0.3c0.1-0.1,0.1-0.5,0.1-1.2
			C154.1,78.3,153.9,76.5,153.6,74.8z"/>
		<path class="st2" d="M164.3,65.8c0.4-0.4,0.8-0.6,1.4-0.6c0.6,0,1,0.2,1.4,0.6l0.6,0.6l0.3,10.3c0.1,5.7,0.2,9,0.2,9.8
			c0,0.5,0,0.8,0,1.1c0,0.3,0,0.5,0,0.7s-0.1,0.3-0.1,0.4c-0.1,0.1-0.1,0.2-0.1,0.2s-0.1,0.1-0.2,0.1s-0.2,0.1-0.2,0.1
			c-0.3,0.2-0.6,0.3-0.8,0.3c-0.1,0-0.4-0.1-0.9-0.2c-0.7-0.3-1.1-0.6-1.2-0.8c-0.1-0.2-0.2-3.8-0.3-11s-0.1-10.8-0.2-10.9
			C163.8,66.4,163.9,66.1,164.3,65.8z"/>
		<path class="st2" d="M174.2,66c0.6-0.2,1.2-0.3,2.1-0.3c0.9,0,1.6,0.1,2,0.3c0.8,0.3,1.4,0.9,1.8,1.8c0.2,0.4,0.4,1.2,0.5,2.4
			c0.2,1.2,0.2,2.2,0.2,3.1c0,0.4,0,0.7,0,0.9c-0.1,0.8-0.3,1.6-0.6,2.6s-0.6,1.4-0.7,1.4c-0.2,0-0.4,0.2-0.4,0.6
			c0,0.3,0.1,0.6,0.3,1c0.5,0.7,1.2,2,2.1,3.9c0.9,1.9,1.4,3.1,1.5,3.6c0,0.2,0,0.4,0,0.6c0,0.4-0.1,0.8-0.3,1
			c-0.2,0.4-0.5,0.6-0.9,0.6c-0.3,0-0.6,0-0.8-0.1c-0.8-0.1-1.2-0.2-1.4-0.3c-0.2-0.1-0.3-0.4-0.3-0.7c0-0.6-0.3-1.5-0.9-2.8
			c-0.6-1.2-1.1-1.9-1.4-1.9h-0.1c-0.1,0.1-0.1,0.4-0.1,1c0,0.9,0.1,1.9,0.3,3c0.1,0.5,0.1,0.8,0.1,1c0,1-0.2,1.7-0.7,1.9
			c-0.2,0.1-0.4,0.1-0.8,0.1c-1,0-1.6-0.2-1.8-0.7c-0.2-0.2-0.3-2.3-0.4-6.2c0-1.2-0.1-2.6-0.1-4s0-2.5,0-3.1c0-0.7,0-1.5-0.1-2.6
			c-0.1-1-0.2-2.2-0.3-3.5c-0.1-1.5-0.2-2.3-0.2-2.6c0-0.7,0.1-1.2,0.3-1.5C173.3,66.3,173.6,66.1,174.2,66z M177.1,69.3
			c-0.1-0.2-0.3-0.4-0.5-0.4s-0.3,0.1-0.5,0.3c-0.1,0.2-0.1,0.4,0,0.6c0,0,0.1,1,0.2,2.9s0.2,2.9,0.3,3s0.2-0.1,0.5-0.4
			c0.2-0.3,0.3-0.8,0.3-1.5c0-0.6,0-1.1-0.1-1.5C177.3,70.7,177.2,69.7,177.1,69.3z"/>
		<path class="st3" d="M20.1,126.5c0.4-0.4,1.1-0.5,2.1-0.5h1c1.6,0.1,2.6,0.1,3,0.2c0.2,0.1,0.6,0.1,1.3,0.2
			c0.7,0.1,1.2,0.2,1.5,0.4s0.5,0.6,0.5,1.2c0,0.6-0.2,1-0.4,1.2c-0.2,0.2-0.6,0.4-1.1,0.5c-0.6,0.1-1,0.2-1.1,0.3
			c-0.2,0.2-0.2,3.1-0.2,8.7c0,3.9,0,6.7,0.1,8.3c0.1,1.3,0.1,2,0.1,2.1c0,0.6-0.1,1.2-0.4,1.6c-0.3,0.6-0.9,0.9-1.6,0.9
			c-0.5,0-0.9-0.1-1.4-0.4l-0.9-0.5l0.1-10.4c0.1-2.7,0.1-5.4,0.1-8c0-1.6-0.1-2.5-0.4-2.7c-0.4-0.2-0.6-0.3-0.7-0.2
			c-0.1,0-0.3,0-0.5,0c-0.5,0-1-0.2-1.4-0.5s-0.5-0.7-0.5-1.1C19.3,127.3,19.6,126.9,20.1,126.5z"/>
		<path class="st3" d="M34.4,128.6c0.1-0.2,0.4-0.4,0.8-0.4c0.5,0,1.1,0.2,1.7,0.5c0.4,0.2,0.6,0.5,0.7,0.6c0.1,0.2,0.1,0.6,0.2,1.2
			c0,4.3,0.1,6.9,0.1,7.6c0,0.7,0.2,1.1,0.4,1.1h0.1c0.3,0,0.6-0.1,0.9-0.3c0.2-0.2,0.3-0.5,0.4-0.9c0.1-0.4,0.1-1.6,0.1-3.4
			c0-2.7,0.1-4.2,0.3-4.5c0.3-0.5,0.8-0.8,1.7-0.8c0.3,0,0.6,0.1,0.9,0.2l0.6,0.4l-0.1,4.8c-0.1,2-0.1,4.8-0.1,8.4
			c0,4,0.1,6.6,0.2,7.9l0.2,2l-0.7,0.3c-0.2,0.1-0.5,0.2-0.7,0.2s-0.5-0.1-1-0.3c-0.6-0.3-1-0.5-1.1-0.8c-0.1-0.2-0.2-1.9-0.2-5.1
			c-0.1-3.1-0.2-4.7-0.3-4.9c-0.1-0.1-0.4-0.1-0.9-0.1l-0.8,0.2l0.1,3.8c0.1,2.6,0.3,4.1,0.5,4.6c0.1,0.4,0.2,0.7,0.2,1
			c0,0.7-0.3,1.1-1,1.2c-0.3,0.1-0.5,0.1-0.7,0.1c-0.8,0-1.5-0.2-2-0.7c-0.2-0.2-0.3-0.9-0.4-2c0-1.1-0.1-4.5-0.1-10.1
			C34.2,132.9,34.3,128.9,34.4,128.6z"/>
		<path class="st3" d="M48.4,126.4c0.4-0.4,0.8-0.6,1.4-0.6c0.6,0,1,0.2,1.4,0.6l0.6,0.6l0.3,10.3c0.1,5.7,0.2,9,0.2,9.8
			c0,0.5,0,0.8,0,1.1s0,0.5-0.1,0.7c0,0.2-0.1,0.3-0.1,0.4c-0.1,0.1-0.1,0.2-0.1,0.2s-0.1,0.1-0.2,0.1c-0.1,0.1-0.2,0.1-0.2,0.1
			c-0.3,0.2-0.6,0.3-0.8,0.3c-0.1,0-0.4-0.1-0.9-0.2c-0.7-0.3-1.1-0.6-1.2-0.8c-0.1-0.1-0.2-3.8-0.3-11s-0.1-10.8-0.2-10.9
			C47.9,127.1,48,126.8,48.4,126.4z"/>
		<path class="st3" d="M60.4,127.4c0.4-0.2,0.8-0.3,1.3-0.3c0.3,0,0.6,0,0.8,0c0.9,0.1,1.5,0.2,1.8,0.4c0.3,0.1,0.6,0.5,0.9,0.9
			c0.3,0.5,0.5,1,0.5,1.5s-0.2,1-0.6,1.4s-0.7,0.5-1.1,0.5s-0.8-0.3-1.1-0.8c-0.3-0.4-0.6-0.6-0.9-0.6c-0.3,0-0.5,0.2-0.8,0.6
			s-0.4,0.8-0.5,1.3v0.2c0,1.7,1.3,4.8,3.8,9.3c0.4,0.7,0.8,2.1,1.2,4c0,0.1,0.1,0.3,0.1,0.6c0,1.7-0.3,3-1.1,3.9
			c-0.3,0.4-0.8,0.8-1.5,1c-0.7,0.3-1.3,0.5-1.8,0.5c-0.1,0-0.1,0-0.2,0s-0.1,0-0.2,0c-0.7-0.1-1.6-0.7-2.5-1.6S57,148.5,57,148
			c0-0.2,0.2-0.5,0.5-0.8s0.7-0.5,1-0.6c0.1,0,0.2,0,0.3,0c0.3,0,0.9,0.5,1.6,1.5c0.3,0.4,0.6,0.6,0.9,0.6c0.3,0,0.5-0.2,0.7-0.5
			c0.1-0.1,0.1-0.3,0.1-0.7c0-1.8-0.8-4.3-2.4-7.7c-1.5-3.2-2.2-5.5-2.2-7c0-0.7,0.1-1.3,0.4-1.9c0.5-1.2,0.9-2,1.1-2.3
			C59.3,128.1,59.8,127.8,60.4,127.4z"/>
		<path class="st3" d="M85.4,130.7c0.8-0.8,2-1.2,3.6-1.2c0.7,0,1.3,0.1,1.7,0.4c0.6,0.3,1.1,1.2,1.4,2.6c0.2,1.2,0.5,3.1,0.8,5.9
			c0.3,2.8,0.5,4.9,0.5,6.4c0,1.4,0.1,3,0.3,4.8c0.2,1.8,0.3,2.8,0.4,2.9c0,0,0.1,0.1,0.1,0.2c0,0.3-0.1,0.6-0.4,1
			c-0.2,0.4-0.5,0.6-0.7,0.7c-0.1,0-0.2,0-0.4,0c-0.5,0-1-0.1-1.5-0.3s-0.9-0.4-1-0.7c-0.1-0.2-0.3-1.1-0.4-2.5
			c-0.2-1.4-0.2-2.6-0.2-3.5c0-0.8-0.1-1.3-0.3-1.4c-0.2-0.1-0.8-0.1-2.1-0.1c-1,0-1.6,0-1.6,0.1s0,0.3,0,0.5c0,0.6,0,1.5,0.1,2.5
			c0.1,1.2,0.1,2.2,0.1,2.9v0.4c0,0.2-0.2,0.4-0.7,0.6c-0.4,0.2-0.8,0.2-1.2,0.2c-0.2,0-0.3,0-0.4,0c-1-0.3-1.6-0.7-1.7-1.3
			c0,0,0-0.1,0-0.2c0-0.1,0-0.2,0-0.3c0-1.3,0.1-4,0.5-8.2c0.3-4.2,0.5-6.6,0.7-7.3c0.2-0.8,0.5-1.8,1.1-2.9
			C84.5,131.8,85,131.1,85.4,130.7z M88.5,135.4c-0.2-0.9-0.4-1.3-0.6-1.3s-0.5,0.3-0.7,1c-0.6,1.2-0.9,2.9-1.1,5
			c-0.1,0.9-0.1,1.4-0.1,1.5c0,0.4,0.1,0.7,0.2,0.8c0.2,0.1,0.6,0.2,1.2,0.2c0.9,0,1.4-0.1,1.5-0.3c0.1-0.1,0.1-0.5,0.1-1.2
			C89.1,139,88.9,137.1,88.5,135.4z"/>
		<path class="st3" d="M99.8,127.1c0.3-0.1,1-0.2,2.2-0.2c1.5,0,2.4,0.1,2.7,0.3c0.5,0.3,1,0.7,1.6,1.3c0.6,0.6,1,1.1,1.2,1.6
			c0.4,0.7,0.6,2.3,0.7,4.9c0.1,1.5,0.1,2.4,0.1,2.6c0,1-0.1,1.9-0.4,2.7c-0.3,1-0.7,1.7-1.1,2.2s-1.1,0.9-1.8,1.1l-1.3,0.5
			l-0.1,3.8c0,2.2-0.1,3.6-0.2,4.1s-0.6,0.7-1.3,0.7c-0.6,0-1.2-0.2-1.7-0.6l-0.7-0.5v-3.3v-0.8c0-2.6-0.1-5.9-0.2-9.8
			c-0.2-3.9-0.3-6.3-0.5-7.3c-0.1-0.7-0.1-1.2-0.1-1.6C98.8,128,99.2,127.4,99.8,127.1z M103.9,131.4c-0.3-0.7-0.6-1-0.7-1
			s-0.2,0-0.2,0.1c0,1,0,2.2,0,3.5c0,4.3,0.2,6.5,0.5,6.5c0.1,0,0.3-0.3,0.6-0.9c0.2-0.5,0.4-1.2,0.4-2c0-0.2,0-0.9-0.1-2.1
			C104.3,133.3,104.1,132,103.9,131.4z"/>
		<path class="st3" d="M113.9,127.1c0.3-0.1,1.1-0.2,2.2-0.2c1.5,0,2.4,0.1,2.7,0.3c0.5,0.3,1,0.7,1.6,1.3c0.6,0.6,1,1.1,1.2,1.6
			c0.4,0.7,0.6,2.3,0.7,4.9c0.1,1.5,0.1,2.4,0.1,2.6c0,1-0.1,1.9-0.4,2.7c-0.3,1-0.7,1.7-1.1,2.2s-1.1,0.9-1.9,1.1l-1.3,0.5
			l-0.1,3.8c0,2.2-0.1,3.6-0.2,4.1s-0.6,0.7-1.3,0.7c-0.6,0-1.2-0.2-1.7-0.6l-0.7-0.5v-3.3v-0.8c0-2.6-0.1-5.9-0.2-9.8
			c-0.1-3.9-0.3-6.3-0.5-7.3c-0.1-0.7-0.1-1.2-0.1-1.6C113,128,113.3,127.4,113.9,127.1z M118,131.4c-0.3-0.7-0.6-1-0.7-1
			s-0.2,0-0.2,0.1c0,1-0.1,2.2-0.1,3.5c0,4.3,0.2,6.5,0.6,6.5c0.1,0,0.3-0.3,0.6-0.9c0.2-0.5,0.4-1.2,0.4-2c0-0.2,0-0.9-0.1-2.1
			C118.4,133.3,118.2,132,118,131.4z"/>
		<path class="st2" d="M290.7,84l-5.7,0.7l2,15.4l5.7-0.7L290.7,84z"/>
		<path class="st2" d="M235,91.1l-5.7,0.7l2,15.4l5.7-0.7L235,91.1z"/>
		<path class="st3" d="M226.1,116.8c2-0.3,3.9,1.2,4.2,3.2l4.5,35c0.2,1.2,1.3,2.1,2.5,2l2.6-0.3c1.2-0.2,2.1-1.3,2-2.5l-4.5-35
			c-0.3-2,1.2-3.9,3.2-4.2l45-5.8c2.1-0.3,3.9,1.2,4.2,3.2l4.5,35c0.2,1.2,1.3,2.1,2.5,2l2.6-0.3c1.2-0.2,2.1-1.3,2-2.5l-4.5-35
			c-0.3-2,1.2-3.9,3.2-4.2c1.2-0.2,2.1-1.3,2-2.5l-0.7-5.7c-0.2-1.2-1.3-2.1-2.5-2l-73.9,9.5c-1.2,0.2-2.1,1.3-2,2.5l0.7,5.7
			C223.8,116.1,224.9,116.9,226.1,116.8z"/>
		<path class="st3" d="M286.9,54.3c-0.8-6.2-6.5-10.6-12.6-9.8l-39,5c-6.2,0.8-10.5,6.5-9.8,12.6l4,31.1l61.4-7.9L286.9,54.3z"/>
		<path class="st4" d="M209.1,120l-2.2-1.6l-17.3-12.9l-2.1-1.6c-1.7-1.3-4.1-0.9-5.4,0.8l-1.6,2.2l-26.3,35.4l-0.1,0.1l-1.5,2.1
			l-2.5,3.4c-2,2.7-1.4,6.4,1.2,8.4l9.1,6.7l5.7,4.2l3.4,2.5c2.7,2,6.4,1.4,8.4-1.2l2.5-3.4l26.8-36.1l2.7-3.6
			C211.2,123.6,210.8,121.2,209.1,120z"/>
		<path class="st5" d="M160.6,161.5l-2.1-1.5c-7.3-5.5-8.9-15.8-3.4-23.1l22.8-30.8c3.5-4.7,10.1-5.7,14.8-2.2l11.7,8.7
			c4.7,3.5,5.6,10.1,2.2,14.8l-22.8,30.8C178.3,165.5,167.9,167,160.6,161.5z"/>
		<path class="st5" d="M207.7,125.8l2.8-3.7c1.3-1.8,0.9-4.2-0.8-5.5l-22.3-16.5c-1.8-1.3-4.2-0.9-5.5,0.8l-2.8,3.7L207.7,125.8z"/>
		<path class="st3" d="M153.1,139.5l-4.2,5.7c-2,2.7-1.5,6.6,1.3,8.7l18.7,13.9c2.7,2,6.6,1.5,8.6-1.3l4.2-5.7L153.1,139.5z"/>
		<path class="st5" d="M163.5,158.8c1.8,0,3.3-1.5,3.3-3.3s-1.5-3.3-3.3-3.3s-3.3,1.5-3.3,3.3S161.6,158.8,163.5,158.8z"/>
		<path class="st3" d="M187.6,135.6c7,0,12.7-5.7,12.7-12.7c0-7-5.7-12.7-12.7-12.7s-12.7,5.7-12.7,12.7
			C174.9,129.9,180.6,135.6,187.6,135.6z"/>
		<path class="st0" d="M187.6,138.6c2.3,0,4.1-1.8,4.1-4.1s-1.8-4.1-4.1-4.1s-4.1,1.8-4.1,4.1C183.6,136.8,185.4,138.6,187.6,138.6z
			"/>
		<path class="st6" d="M185.8,133.8l0.3,1.4c0,0.1,0.1,0.2,0.3,0.2l3.6-0.9"/>
		<path class="st3" d="M165.3,138.7c2.1,0,3.8-1.7,3.8-3.8s-1.7-3.8-3.8-3.8s-3.8,1.7-3.8,3.8S163.2,138.7,165.3,138.7z"/>
		<path class="st2" d="M165.4,132.8c0.2,0,0.3-0.1,0.3-0.3s-0.1-0.3-0.3-0.3s-0.3,0.1-0.3,0.3c0,0.1,0,0.1,0,0.2"/>
		<path class="st0" d="M165.2,132.9l-1.1,1.5c1.2,0.2,1.1,1.5,2.4,1.6l1.1-1.5C166.3,134.4,166.4,133.1,165.2,132.9z"/>
		<path class="st2" d="M162.9,136.2L162.9,136.2c-0.1,0-0.1-0.1,0-0.2l2.5-3.5h0.1l0.2,0.1c0,0,0,0,0,0.1l-2.5,3.5
			C163,136.2,163,136.2,162.9,136.2z"/>
		<path class="st7" d="M158.9,136.7l6.6,4.9"/>
		<path class="st7" d="M158,137.9l6.6,4.9"/>
		<path class="st3" d="M173.9,145.1c2.1,0,3.8-1.7,3.8-3.8s-1.7-3.8-3.8-3.8s-3.8,1.7-3.8,3.8C170.1,143.4,171.8,145.1,173.9,145.1z
			"/>
		<path class="st2" d="M174,139.1c0.2,0,0.3-0.1,0.3-0.3s-0.1-0.3-0.3-0.3s-0.3,0.1-0.3,0.3c0,0.1,0,0.1,0,0.2"/>
		<path class="st0" d="M173.8,139.3l-1.1,1.5c1.2,0.2,1.1,1.5,2.4,1.6l1.1-1.5C174.9,140.8,175,139.5,173.8,139.3z"/>
		<path class="st2" d="M171.5,142.5L171.5,142.5c-0.1,0-0.1-0.1-0.1-0.2l2.5-3.5c0,0,0,0,0.1,0l0.2,0.1c0,0,0,0,0,0.1l-2.5,3.5
			C171.6,142.6,171.5,142.6,171.5,142.5z"/>
		<path class="st7" d="M167.4,143.1l6.6,4.9"/>
		<path class="st7" d="M166.6,144.2l6.6,4.9"/>
		<path class="st3" d="M182.6,151.5c2.1,0,3.8-1.7,3.8-3.8s-1.7-3.8-3.8-3.8s-3.8,1.7-3.8,3.8S180.5,151.5,182.6,151.5z"/>
		<path class="st2" d="M182.7,145.6c0.2,0,0.3-0.1,0.3-0.3s-0.1-0.3-0.3-0.3s-0.3,0.1-0.3,0.3v0.1"/>
		<path class="st0" d="M182.4,145.7l-1.1,1.5c1.2,0.2,1.1,1.5,2.4,1.6l1.1-1.5C183.6,147.2,183.7,145.9,182.4,145.7z"/>
		<path class="st2" d="M180.2,149L180.2,149c-0.1,0-0.1-0.1-0.1-0.2l2.5-3.5c0,0,0,0,0.1,0l0.2,0.1c0,0,0,0,0,0.1l-2.5,3.5
			C180.3,149,180.2,149,180.2,149z"/>
		<path class="st7" d="M176.1,149.5l6.6,4.9"/>
		<path class="st7" d="M175.3,150.7l6.6,4.9"/>
		<path class="st0" d="M188.3,118.4c0.1-0.1,0.3,0,0.4,0.1s0.1,0.3,0.1,0.4l-3.6,7.4l4.2-1.6c0.1,0,0.3,0,0.4,0.1l3.7,2.9
			c1.8-0.9,2.9-2.8,2.6-4.8c-0.3-2.6-2.7-4.5-5.3-4.2c-0.3-2.6-2.6-4.5-5.2-4.2c-2.1,0.2-3.7,1.7-4.2,3.7l2.7,2.2L188.3,118.4z"/>
		<path class="st0" d="M185.1,126.8c-0.1,0-0.3,0-0.4-0.1l0,0c-0.1-0.1-0.1-0.3-0.1-0.4l3.6-7.3l-3.9,1.8c-0.1,0.1-0.3,0-0.4,0
			l-2.6-2.1c-0.1,0.4-0.1,0.8,0,1.2l0.9,7.7c0.1,0.9,0.9,1.5,1.8,1.5l7.8-0.9c0.4,0,0.7-0.1,1.1-0.2l-3.4-2.7L185.1,126.8z"/>
		<path class="st3" d="M189.7,124.8c-0.1-0.1-0.2-0.1-0.4-0.1l-4.2,1.6l3.6-7.4c0.1-0.1,0-0.3-0.1-0.4c-0.1-0.1-0.3-0.1-0.4-0.1
			l-4.1,1.9l-2.7-2.2c0,0.2-0.1,0.4-0.1,0.5l2.6,2.1c0.1,0.1,0.3,0.1,0.4,0l3.9-1.8l-3.6,7.3c-0.1,0.1-0.1,0.3,0.1,0.4
			c0,0,0,0,0.1,0c0.1,0.1,0.2,0.1,0.4,0.1l4.4-1.6l3.4,2.7c0.2-0.1,0.3-0.1,0.5-0.2L189.7,124.8z"/>
		<path class="st3" d="M183.9,116.6C183.9,116.6,183.8,116.6,183.9,116.6c-0.1-0.1-0.1-0.3,0-0.4c0.1-0.1,1.6-1.4,4-0.4
			c0.1,0.1,0.2,0.2,0.1,0.4s-0.2,0.2-0.4,0.2c-2.1-0.9-3.3,0.2-3.4,0.3C184.1,116.7,184,116.7,183.9,116.6z"/>
	</g>
</g>
</svg>
