<?xml version="1.0" encoding="utf-8"?>
<!-- Generator: Adobe Illustrator 25.1.0, SVG Export Plug-In . SVG Version: 6.00 Build 0)  -->
<svg version="1.1" id="Layer_1" xmlns="http://www.w3.org/2000/svg" xmlns:xlink="http://www.w3.org/1999/xlink" x="0px" y="0px"
	 viewBox="0 0 332.9 149.3" style="enable-background:new 0 0 332.9 149.3;" xml:space="preserve">
<style type="text/css">
	.st0{fill:#FFFFFF;}
	.st1{fill:#808080;}
	.st2{fill:#FF9F1A;}
	.st3{fill:#F4F1EF;}
	.st4{fill:#00CDDC;}
	.st5{fill:#28C86E;}
	.st6{fill:#3CDC82;}
	.st7{fill:#32DCD2;}
	.st8{fill:none;stroke:#28C86E;stroke-width:1.237;stroke-linecap:round;stroke-miterlimit:10;}
	.st9{fill:#FFCF8D;}
	.st10{fill:#CCF6F4;}
	.st11{fill:#F8FFFF;}
</style>
<g>
	<g>
		<g>
			<path class="st0" d="M332.9,107.9c0-96.3-5-99-67.7-106.4c-26.3-3.1-128.8-0.4-164,0C66.7,1.9,15.2,5,9.1,19.8
				C3.1,34.4,0,48.6,0,74.8c0,41.3,10.1,66.2,45.6,71.5c36,5.3,150.1,2.2,193.6,1.6C284,147.1,332.9,149.9,332.9,107.9z"/>
			<path class="st1" d="M32.6,44c-0.8,0-1.4-0.2-2-0.5c-0.6-0.3-1.1-0.8-1.4-1.4c-0.4-0.6-0.5-1.4-0.5-2.2s0.2-1.6,0.5-2.2
				c0.4-0.6,0.8-1.1,1.4-1.4c0.6-0.3,1.3-0.5,2-0.5c0.7,0,1.4,0.2,2,0.5s1.1,0.8,1.4,1.4c0.4,0.6,0.5,1.4,0.5,2.2s-0.2,1.6-0.5,2.2
				c-0.4,0.6-0.8,1.1-1.4,1.4C34,43.8,33.4,44,32.6,44z M32.6,42.8c0.5,0,0.9-0.1,1.3-0.3c0.4-0.2,0.7-0.6,1-1
				c0.2-0.5,0.4-1,0.4-1.7s-0.1-1.2-0.4-1.7c-0.2-0.4-0.6-0.8-1-1s-0.8-0.3-1.3-0.3s-0.9,0.1-1.3,0.3c-0.4,0.2-0.7,0.6-1,1
				c-0.2,0.4-0.4,1-0.4,1.7s0.1,1.2,0.4,1.7s0.6,0.8,1,1C31.8,42.7,32.2,42.8,32.6,42.8z"/>
			<path class="st1" d="M38.5,43.8v-7.9h1.2l0.1,1.5c0.2-0.5,0.6-0.9,1.1-1.2s1.1-0.5,1.9-0.5v1.4h-0.4c-0.5,0-0.9,0.1-1.3,0.2
				c-0.4,0.2-0.7,0.4-0.9,0.8c-0.2,0.4-0.4,0.9-0.4,1.6v4L38.5,43.8L38.5,43.8z"/>
			<path class="st2" d="M31,51.4c0.5-0.2,1.1-0.2,1.9-0.2s1.5,0.1,1.8,0.2c0.7,0.3,1.3,0.9,1.7,1.7c0.2,0.4,0.3,1.1,0.5,2.2
				c0.2,1.1,0.2,2,0.2,2.9c0,0.4,0,0.7,0,0.8c-0.1,0.7-0.3,1.5-0.6,2.3c-0.3,0.9-0.5,1.3-0.6,1.3c-0.2,0-0.3,0.2-0.3,0.5
				s0.1,0.6,0.3,0.9c0.4,0.6,1.1,1.8,1.9,3.6c0.8,1.7,1.3,2.8,1.3,3.3c0,0.1,0,0.3,0,0.6c0,0.4-0.1,0.7-0.3,1
				C38.6,72.8,38.3,73,38,73c-0.3,0-0.5,0-0.8,0c-0.7-0.1-1.1-0.2-1.3-0.3c-0.2-0.1-0.3-0.3-0.3-0.7c0-0.6-0.3-1.4-0.9-2.6
				s-1-1.7-1.3-1.7l0,0c-0.1,0.1-0.1,0.4-0.1,0.9c0,0.8,0.1,1.8,0.2,2.8c0.1,0.5,0.1,0.8,0.1,0.9c0,1-0.2,1.5-0.6,1.8
				c-0.2,0.1-0.4,0.1-0.7,0.1c-0.9,0-1.5-0.2-1.7-0.6c-0.1-0.2-0.2-2.1-0.3-5.7c0-1.1-0.1-2.4-0.1-3.7c0-1.3,0-2.3,0-2.9
				s0-1.4-0.1-2.4c-0.1-1-0.2-2-0.3-3.2c-0.1-1.3-0.2-2.1-0.2-2.4c0-0.7,0.1-1.1,0.3-1.4C30.1,51.7,30.5,51.5,31,51.4z M33.6,54.5
				c-0.1-0.2-0.2-0.3-0.5-0.3c-0.2,0-0.3,0.1-0.4,0.3c-0.1,0.2-0.1,0.4,0,0.5c0,0,0.1,0.9,0.2,2.7c0.1,1.8,0.2,2.7,0.3,2.8
				c0.1,0.1,0.2-0.1,0.4-0.3c0.2-0.2,0.2-0.7,0.2-1.4c0-0.5,0-1,0-1.4C33.8,55.7,33.7,54.8,33.6,54.5z"/>
			<path class="st2" d="M45.3,53.7c0.3-0.1,0.8-0.1,1.3-0.1c1.5,0,2.5,0.2,2.9,0.5c0.3,0.2,0.4,0.6,0.4,0.9c0,0.4-0.1,0.7-0.4,0.9
				s-0.6,0.4-1.1,0.4c-0.4,0-0.7,0.1-0.8,0.3c-0.1,0.2-0.2,0.7-0.2,1.4c0,0.2,0,0.9,0.1,2.1c0.1,1.4,0.1,2.3,0.2,2.7
				c0.1,0.4,0.2,0.6,0.3,0.6c0,0,0.2,0,0.6,0c0.3,0,0.6,0,0.8,0c0.7,0,1.2,0.2,1.5,0.5c0.2,0.2,0.3,0.4,0.3,0.6
				c0,0.4-0.6,0.9-1.8,1.3c-0.7,0.2-1.1,0.4-1.3,0.6c-0.2,0.2-0.2,0.4-0.3,0.9s-0.1,0.8-0.1,1.2c0,1.4,0.1,2.5,0.4,3.2
				c0.1,0.3,0.2,0.5,0.4,0.5c0.1,0.1,0.4,0.1,0.9,0.1c0.6,0,1.1,0.1,1.5,0.4s0.6,0.6,0.6,0.9c0,0.2-0.2,0.6-0.6,1
				c-0.7,0.6-1.8,1-3.4,1s-2.7-0.4-3.2-1.1c-0.3-0.4-0.5-2.8-0.5-7.2c-0.1-5.5-0.1-8.8-0.2-9.7l-0.1-3.1l0.6-0.3
				C44.5,53.9,44.9,53.8,45.3,53.7z"/>
			<path class="st2" d="M59.1,52.1c0.3-0.2,0.7-0.2,1.2-0.2c0.3,0,0.6,0,0.8,0c0.8,0.1,1.4,0.2,1.7,0.3c0.3,0.1,0.6,0.4,0.8,0.8
				c0.3,0.5,0.4,0.9,0.4,1.3c0,0.5-0.2,0.9-0.6,1.3c-0.3,0.3-0.7,0.5-1,0.5c-0.4,0-0.7-0.2-1.1-0.7c-0.2-0.4-0.5-0.5-0.8-0.5
				c-0.2,0-0.5,0.2-0.7,0.5c-0.2,0.4-0.4,0.7-0.4,1.2v0.2c0,1.5,1.2,4.4,3.5,8.5c0.4,0.7,0.8,1.9,1.1,3.7c0,0.1,0,0.3,0,0.6
				c0,1.5-0.3,2.7-1,3.6c-0.3,0.4-0.7,0.7-1.4,1s-1.2,0.4-1.7,0.4c-0.1,0-0.1,0-0.2,0c-0.1,0-0.1,0-0.2,0c-0.6-0.1-1.4-0.6-2.3-1.5
				s-1.4-1.5-1.4-2c0-0.2,0.2-0.5,0.5-0.8c0.3-0.3,0.6-0.5,0.9-0.5c0.1,0,0.2,0,0.3,0c0.3,0,0.8,0.5,1.5,1.3
				c0.2,0.4,0.5,0.6,0.8,0.6c0.3,0,0.5-0.2,0.6-0.5c0.1-0.1,0.1-0.3,0.1-0.6c0-1.6-0.7-4-2.2-7.1c-1.3-2.9-2-5.1-2-6.5
				c0-0.6,0.1-1.2,0.3-1.7c0.5-1.1,0.8-1.8,1.1-2.2C58.1,52.8,58.5,52.4,59.1,52.1z"/>
			<path class="st2" d="M68.6,51.2c0.3-0.4,0.8-0.5,1.3-0.5s0.9,0.2,1.3,0.5l0.5,0.5l0.2,9.5c0.1,5.2,0.2,8.2,0.2,9c0,0.4,0,0.8,0,1
				c0,0.3,0,0.5,0,0.6c0,0.2-0.1,0.3-0.1,0.4s-0.1,0.2-0.1,0.2s-0.1,0.1-0.2,0.1s-0.2,0.1-0.2,0.1c-0.3,0.2-0.6,0.3-0.8,0.3
				c-0.1,0-0.4-0.1-0.8-0.2c-0.7-0.3-1-0.5-1.1-0.7c-0.1-0.1-0.2-3.5-0.2-10.1c-0.1-6.6-0.1-10-0.2-10
				C68.2,51.8,68.3,51.5,68.6,51.2z"/>
			<path class="st2" d="M79.7,52.1c0.3-0.2,0.7-0.2,1.2-0.2c0.3,0,0.6,0,0.8,0c0.8,0.1,1.4,0.2,1.7,0.3c0.3,0.1,0.6,0.4,0.8,0.8
				c0.3,0.5,0.4,0.9,0.4,1.3c0,0.5-0.2,0.9-0.6,1.3c-0.3,0.3-0.7,0.5-1,0.5c-0.4,0-0.7-0.2-1-0.7c-0.2-0.4-0.5-0.5-0.8-0.5
				c-0.2,0-0.5,0.2-0.7,0.5c-0.2,0.4-0.4,0.7-0.4,1.2v0.2c0,1.5,1.2,4.4,3.5,8.5c0.4,0.7,0.8,1.9,1.1,3.7c0,0.1,0,0.3,0,0.6
				c0,1.5-0.3,2.7-1,3.6c-0.3,0.4-0.7,0.7-1.4,1c-0.6,0.3-1.2,0.4-1.7,0.4c-0.1,0-0.1,0-0.2,0s-0.1,0-0.2,0
				c-0.6-0.1-1.4-0.6-2.3-1.5s-1.4-1.5-1.4-2c0-0.2,0.2-0.5,0.5-0.8s0.6-0.5,0.9-0.5c0.1,0,0.2,0,0.3,0c0.3,0,0.8,0.5,1.5,1.3
				c0.2,0.4,0.5,0.6,0.8,0.6s0.5-0.2,0.6-0.5c0.1-0.1,0.1-0.3,0.1-0.6c0-1.6-0.7-4-2.2-7.1c-1.3-2.9-2-5.1-2-6.5
				c0-0.6,0.1-1.2,0.3-1.7c0.4-1.1,0.8-1.8,1-2.2C78.7,52.8,79.1,52.4,79.7,52.1z"/>
			<path class="st2" d="M89.8,51.3c0.4-0.3,1-0.5,1.9-0.5h1c1.5,0.1,2.4,0.1,2.7,0.2c0.2,0.1,0.6,0.1,1.2,0.2c0.6,0,1.1,0.2,1.4,0.4
				c0.3,0.2,0.4,0.6,0.4,1.1s-0.1,0.9-0.3,1.1c-0.2,0.2-0.5,0.4-1,0.5c-0.6,0.1-0.9,0.2-1,0.3c-0.1,0.1-0.2,2.8-0.2,8
				c0,3.6,0,6.1,0.1,7.6c0.1,1.2,0.1,1.8,0.1,1.9c0,0.6-0.1,1.1-0.4,1.5c-0.3,0.6-0.8,0.8-1.4,0.8c-0.4,0-0.8-0.1-1.3-0.4l-0.8-0.5
				l0.1-9.6c0.1-2.5,0.1-4.9,0.1-7.4c0-1.5-0.1-2.3-0.3-2.4c-0.3-0.2-0.6-0.2-0.6-0.2c-0.1,0-0.3,0-0.5,0c-0.5,0-0.9-0.2-1.3-0.4
				c-0.3-0.3-0.5-0.6-0.5-1C89.1,52.1,89.3,51.6,89.8,51.3z"/>
			<path class="st2" d="M106.1,55.1c0.7-0.7,1.8-1.1,3.3-1.1c0.6,0,1.2,0.1,1.6,0.3c0.6,0.3,1,1.1,1.3,2.3c0.2,1.1,0.4,2.9,0.7,5.4
				s0.4,4.5,0.5,5.9c0,1.3,0.1,2.8,0.3,4.4c0.1,1.6,0.3,2.5,0.4,2.7c0,0,0,0.1,0,0.2c0,0.2-0.1,0.6-0.3,0.9
				c-0.2,0.4-0.4,0.6-0.6,0.6c-0.1,0-0.2,0-0.4,0c-0.4,0-0.9-0.1-1.4-0.3c-0.5-0.2-0.8-0.4-0.9-0.6s-0.2-1-0.4-2.3
				c-0.1-1.3-0.2-2.4-0.2-3.2c0-0.8-0.1-1.2-0.2-1.3c-0.1-0.1-0.8-0.1-1.9-0.1c-0.9,0-1.4,0-1.5,0.1c0,0.1,0,0.3,0,0.5
				c0,0.6,0,1.3,0.1,2.3c0.1,1.1,0.1,2,0.1,2.7v0.4c0,0.2-0.2,0.4-0.6,0.5s-0.7,0.2-1.1,0.2c-0.2,0-0.3,0-0.4,0
				c-1-0.3-1.5-0.7-1.6-1.2c0,0,0-0.1,0-0.2s0-0.2,0-0.3c0-1.2,0.1-3.7,0.4-7.6s0.5-6.1,0.6-6.7c0.2-0.8,0.5-1.6,1-2.6
				C105.3,56.2,105.7,55.5,106.1,55.1z M109,59.5c-0.2-0.8-0.4-1.2-0.6-1.2s-0.4,0.3-0.7,0.9c-0.5,1.1-0.9,2.7-1,4.6
				c-0.1,0.8-0.1,1.3-0.1,1.4c0,0.4,0.1,0.6,0.2,0.7s0.5,0.2,1.1,0.2c0.8,0,1.3-0.1,1.4-0.2s0.1-0.4,0.1-1.1
				C109.4,62.7,109.3,61,109,59.5z"/>
			<path class="st2" d="M119.5,52.7c0.4-0.2,0.8-0.3,1.3-0.3c0.8,0,1.4,0.5,1.7,1.6c0.2,0.8,0.6,1.7,1,2.6s0.7,1.6,0.9,2.2
				c0.3,0.9,0.5,1.5,0.8,1.7c0.1,0.1,0.1,0.2,0.2,0.2s0.2-0.6,0.3-1.8c0.1-1.1,0.1-1.9,0.1-2.3v-0.5c0-0.2,0-0.5,0-0.8
				c0-0.7,0.2-1.2,0.5-1.6c0.3-0.4,0.8-0.6,1.5-0.6c0.5,0,0.9,0.1,1.2,0.4c0.2,0.2,0.4,0.5,0.4,1s0,1-0.1,1.5s-0.1,3.9-0.2,10.2
				c0,3.9-0.1,6.3-0.1,7.1c0,0.8-0.1,1.3-0.3,1.5c-0.3,0.3-0.7,0.5-1.3,0.5c-1.2,0-1.9-0.6-2.1-1.8c-0.1-0.5-0.4-1.3-0.8-2.5
				c-0.4-1.1-0.7-2.1-0.8-3c-0.2-1.1-0.6-2.7-1.2-4.6c-0.1-0.2-0.1-0.2-0.1-0.2c-0.1,0-0.2,1.2-0.2,3.5v2v2.2c0,2.3-0.1,3.6-0.2,3.9
				c-0.3,0.8-0.9,1.2-1.8,1.2c-0.5,0-1-0.2-1.3-0.5c-0.2-0.3-0.4-0.6-0.4-0.8c0-0.1,0-0.3,0.1-0.8c0.1-0.9,0.2-4.3,0.2-10.1
				c0-6.5,0.1-9.9,0.2-10.3c0.1-0.2,0.2-0.4,0.5-0.5C119.4,52.8,119.4,52.7,119.5,52.7z"/>
			<path class="st2" d="M136.5,54.4c0.5-0.5,0.9-0.9,1.1-1c0.2-0.1,0.5-0.2,1-0.2c1.3,0,1.9,0.4,1.9,1.3c0,0.8-0.6,1.4-1.7,2
				c-0.7,0.4-1.3,1.8-1.7,4.2c-0.2,1.1-0.3,2.2-0.3,3.4s0.1,2.4,0.2,3.6c0.1,1.6,0.4,2.7,0.7,3.3c0.3,0.6,0.8,1,1.4,1.1
				c1.1,0.2,1.8,0.5,1.9,1c0,0.1,0,0.1,0,0.2c0,0.3-0.2,0.6-0.5,0.9s-0.7,0.5-1.1,0.6c-0.1,0-0.2,0-0.5,0c-1,0-2-0.2-2.8-0.7
				c-0.3-0.2-0.7-0.7-1.1-1.5c-0.4-0.8-0.8-1.6-1-2.4c-0.3-1.2-0.5-3.2-0.5-6.1c0-1.1,0.1-2.2,0.2-3.2c0.2-1.7,0.5-3,0.9-3.9
				C135.1,56.1,135.7,55.2,136.5,54.4z"/>
			<path class="st2" d="M147.2,53.7c0.3-0.1,0.8-0.1,1.3-0.1c1.5,0,2.5,0.2,2.9,0.5c0.3,0.2,0.4,0.6,0.4,0.9c0,0.4-0.1,0.7-0.4,0.9
				s-0.6,0.4-1.1,0.4c-0.4,0-0.7,0.1-0.8,0.3c-0.1,0.2-0.2,0.7-0.2,1.4c0,0.2,0,0.9,0.1,2.1c0.1,1.4,0.1,2.3,0.2,2.7
				s0.2,0.6,0.3,0.6c0,0,0.2,0,0.6,0c0.3,0,0.6,0,0.8,0c0.7,0,1.2,0.2,1.5,0.5c0.2,0.2,0.3,0.4,0.3,0.6c0,0.4-0.6,0.9-1.8,1.3
				c-0.7,0.2-1.1,0.4-1.3,0.6s-0.2,0.4-0.3,0.9s-0.1,0.8-0.1,1.2c0,1.4,0.1,2.5,0.4,3.2c0.1,0.3,0.2,0.5,0.4,0.5
				c0.1,0.1,0.4,0.1,0.9,0.1c0.6,0,1.1,0.1,1.5,0.4s0.6,0.6,0.6,0.9c0,0.2-0.2,0.6-0.6,1c-0.7,0.6-1.8,1-3.4,1
				c-1.6,0-2.7-0.4-3.2-1.1c-0.3-0.4-0.4-2.8-0.5-7.2c-0.1-5.5-0.1-8.8-0.2-9.7l-0.1-3.1l0.6-0.3C146.5,53.9,146.9,53.8,147.2,53.7z
				"/>
			<path class="st1" d="M32.6,95.8c-0.8,0-1.4-0.2-2-0.5c-0.6-0.4-1.1-0.8-1.4-1.5c-0.3-0.6-0.5-1.4-0.5-2.2c0-0.8,0.2-1.6,0.5-2.2
				s0.8-1.1,1.4-1.5c0.6-0.4,1.3-0.5,2.1-0.5c0.8,0,1.4,0.2,2,0.5c0.6,0.4,1,0.8,1.3,1.4c0.3,0.6,0.5,1.2,0.5,1.8c0,0.1,0,0.2,0,0.3
				c0,0.1,0,0.2,0,0.4h-6.3c0,0.6,0.2,1.1,0.4,1.5s0.6,0.7,0.9,0.9c0.4,0.2,0.8,0.3,1.2,0.3c0.5,0,1-0.1,1.4-0.4s0.6-0.6,0.8-1h1.2
				c-0.2,0.7-0.6,1.4-1.2,1.8C34.3,95.6,33.5,95.8,32.6,95.8z M32.6,88.7c-0.6,0-1.2,0.2-1.7,0.6s-0.8,1-0.9,1.7h5
				c0-0.7-0.3-1.3-0.7-1.7C33.8,88.9,33.2,88.7,32.6,88.7z"/>
			<path class="st1" d="M36.9,95.7l2.8-4l-2.8-4h1.5l2.2,3.3l2.2-3.3h1.4l-2.7,4l2.7,4h-1.4l-2.2-3.3l-2.2,3.3H36.9z"/>
			<path class="st1" d="M48.9,95.8c-0.8,0-1.4-0.2-2-0.5c-0.6-0.4-1.1-0.8-1.4-1.5c-0.3-0.6-0.5-1.4-0.5-2.2c0-0.8,0.2-1.6,0.5-2.2
				c0.3-0.6,0.8-1.1,1.4-1.5c0.6-0.4,1.3-0.5,2.1-0.5c0.8,0,1.4,0.2,2,0.5c0.6,0.4,1,0.8,1.3,1.4c0.3,0.6,0.5,1.2,0.5,1.8
				c0,0.1,0,0.2,0,0.3c0,0.1,0,0.2,0,0.4h-6.3c0,0.6,0.2,1.1,0.4,1.5c0.2,0.4,0.6,0.7,0.9,0.9c0.4,0.2,0.8,0.3,1.2,0.3
				c0.6,0,1-0.1,1.4-0.4s0.7-0.6,0.8-1h1.3c-0.2,0.7-0.6,1.4-1.2,1.8C50.6,95.6,49.9,95.8,48.9,95.8z M48.9,88.7
				c-0.6,0-1.2,0.2-1.7,0.6s-0.8,1-0.9,1.7h5c0-0.7-0.3-1.3-0.7-1.7S49.6,88.7,48.9,88.7z"/>
			<path class="st1" d="M54.5,95.7v-7.9h1.2l0.1,1.5c0.2-0.5,0.6-0.9,1.1-1.2s1.1-0.5,1.9-0.5V89h-0.4c-0.5,0-0.9,0.1-1.3,0.2
				c-0.4,0.2-0.7,0.5-0.9,0.8c-0.2,0.4-0.3,0.9-0.3,1.6v4h-1.4V95.7z"/>
			<path class="st1" d="M63.6,95.8c-0.8,0-1.4-0.2-2-0.5s-1.1-0.8-1.4-1.5c-0.3-0.6-0.5-1.3-0.5-2.2c0-0.8,0.2-1.6,0.5-2.2
				c0.3-0.6,0.8-1.1,1.4-1.5c0.6-0.4,1.3-0.5,2-0.5c0.9,0,1.7,0.2,2.4,0.7c0.7,0.5,1.1,1.1,1.2,2h-1.4c-0.1-0.5-0.4-0.9-0.8-1.1
				c-0.4-0.3-0.9-0.4-1.5-0.4c-0.5,0-0.9,0.1-1.3,0.3c-0.4,0.2-0.7,0.6-1,1c-0.3,0.4-0.4,1-0.4,1.7s0.1,1.2,0.4,1.7s0.6,0.8,1,1
				s0.8,0.3,1.3,0.3s1-0.1,1.5-0.4c0.4-0.3,0.7-0.7,0.8-1.2h1.4c-0.2,0.8-0.6,1.4-1.2,1.9C65.4,95.6,64.6,95.8,63.6,95.8z"/>
			<path class="st1" d="M69.9,86c-0.3,0-0.5-0.1-0.7-0.3c-0.2-0.2-0.3-0.4-0.3-0.7s0.1-0.5,0.3-0.6c0.2-0.2,0.4-0.3,0.7-0.3
				s0.5,0.1,0.7,0.3c0.2,0.2,0.3,0.4,0.3,0.6c0,0.3-0.1,0.5-0.3,0.7C70.4,85.9,70.2,86,69.9,86z M69.2,95.7v-7.9h1.3v7.9H69.2z"/>
			<path class="st1" d="M76,95.8c-1,0-1.7-0.2-2.4-0.7c-0.6-0.5-1-1.1-1.1-1.9h1.4c0.1,0.4,0.3,0.8,0.7,1.1c0.4,0.3,0.8,0.5,1.4,0.5
				s1-0.1,1.2-0.4c0.3-0.2,0.4-0.5,0.4-0.9c0-0.5-0.2-0.8-0.5-1s-0.8-0.3-1.5-0.4c-0.4-0.1-0.8-0.2-1.3-0.4s-0.8-0.4-1.1-0.7
				c-0.3-0.3-0.4-0.7-0.4-1.2c0-0.7,0.3-1.3,0.8-1.7c0.5-0.4,1.2-0.7,2.1-0.7c0.8,0,1.5,0.2,2.1,0.6c0.5,0.4,0.9,1,0.9,1.8h-1.3
				c0-0.4-0.2-0.7-0.5-0.9c-0.3-0.2-0.7-0.3-1.2-0.3s-0.8,0.1-1.1,0.3s-0.4,0.5-0.4,0.8s0.2,0.6,0.5,0.8c0.3,0.2,0.8,0.3,1.4,0.5
				c0.5,0.1,1,0.2,1.4,0.4c0.4,0.1,0.8,0.4,1.1,0.7c0.3,0.3,0.4,0.7,0.4,1.3c0,0.7-0.3,1.3-0.8,1.8C77.6,95.6,76.9,95.8,76,95.8z"/>
			<path class="st1" d="M84.5,95.8c-0.8,0-1.4-0.2-2-0.5c-0.6-0.4-1-0.8-1.4-1.5c-0.3-0.6-0.5-1.4-0.5-2.2c0-0.8,0.2-1.6,0.5-2.2
				s0.8-1.1,1.4-1.5s1.3-0.5,2.1-0.5c0.8,0,1.4,0.2,2,0.5s1,0.8,1.3,1.4s0.4,1.2,0.4,1.8c0,0.1,0,0.2,0,0.3c0,0.1,0,0.2,0,0.4H82
				c0,0.6,0.2,1.1,0.4,1.5c0.2,0.4,0.6,0.7,0.9,0.9c0.4,0.2,0.8,0.3,1.2,0.3c0.5,0,1-0.1,1.4-0.4s0.7-0.6,0.8-1H88
				c-0.2,0.7-0.6,1.4-1.2,1.8C86.2,95.6,85.4,95.8,84.5,95.8z M84.5,88.7c-0.6,0-1.2,0.2-1.7,0.6s-0.8,1-0.9,1.7h5
				c0-0.7-0.3-1.3-0.7-1.7C85.7,88.9,85.2,88.7,84.5,88.7z"/>
			<path class="st1" d="M93.1,95.8c-1,0-1.7-0.2-2.4-0.7c-0.6-0.5-1-1.1-1.1-1.9H91c0.1,0.4,0.3,0.8,0.7,1.1
				c0.4,0.3,0.8,0.5,1.4,0.5s1-0.1,1.2-0.4c0.3-0.2,0.4-0.5,0.4-0.9c0-0.5-0.2-0.8-0.5-1c-0.4-0.2-0.8-0.3-1.5-0.4
				c-0.4-0.1-0.9-0.2-1.3-0.4s-0.8-0.4-1.1-0.7c-0.3-0.3-0.4-0.7-0.4-1.2c0-0.7,0.3-1.3,0.8-1.7c0.5-0.4,1.2-0.7,2.1-0.7
				c0.8,0,1.5,0.2,2.1,0.6c0.5,0.4,0.8,1,0.9,1.8h-1.3c-0.1-0.4-0.2-0.7-0.5-0.9c-0.3-0.2-0.7-0.3-1.2-0.3s-0.8,0.1-1.1,0.3
				c-0.3,0.2-0.4,0.5-0.4,0.8s0.2,0.6,0.5,0.8c0.3,0.2,0.8,0.3,1.4,0.5c0.5,0.1,1,0.2,1.4,0.4c0.4,0.1,0.8,0.4,1.1,0.7
				c0.3,0.3,0.4,0.7,0.4,1.3c0,0.7-0.3,1.3-0.8,1.8C94.7,95.6,94,95.8,93.1,95.8z"/>
			<path class="st1" d="M102.3,95.7V84.2h1.3v11.5H102.3z"/>
			<path class="st1" d="M106.6,86c-0.3,0-0.5-0.1-0.7-0.3c-0.2-0.2-0.3-0.4-0.3-0.7s0.1-0.5,0.3-0.6c0.2-0.2,0.4-0.3,0.7-0.3
				s0.5,0.1,0.7,0.3c0.2,0.2,0.3,0.4,0.3,0.6c0,0.3-0.1,0.5-0.3,0.7C107.1,85.9,106.9,86,106.6,86z M106,95.7v-7.9h1.3v7.9H106z"/>
			<path class="st1" d="M109.6,95.7V84.2h1.3v6.9l3.2-3.3h1.6l-3.5,3.6l4,4.4h-1.7l-3.6-4.1v4.1h-1.3V95.7z"/>
			<path class="st1" d="M120.7,95.8c-0.8,0-1.4-0.2-2-0.5s-1.1-0.8-1.4-1.5c-0.3-0.6-0.5-1.4-0.5-2.2c0-0.8,0.2-1.6,0.5-2.2
				s0.8-1.1,1.4-1.5s1.3-0.5,2.1-0.5c0.8,0,1.4,0.2,2,0.5s1,0.8,1.3,1.4s0.4,1.2,0.4,1.8c0,0.1,0,0.2,0,0.3c0,0.1,0,0.2,0,0.4h-6.4
				c0,0.6,0.2,1.1,0.4,1.5c0.2,0.4,0.6,0.7,0.9,0.9c0.4,0.2,0.8,0.3,1.2,0.3c0.5,0,1-0.1,1.4-0.4s0.6-0.6,0.8-1h1.3
				c-0.2,0.7-0.6,1.4-1.2,1.8C122.4,95.6,121.6,95.8,120.7,95.8z M120.7,88.7c-0.6,0-1.2,0.2-1.7,0.6s-0.8,1-0.9,1.7h5
				c0-0.7-0.3-1.3-0.7-1.7C121.9,88.9,121.4,88.7,120.7,88.7z"/>
			<path class="st1" d="M29,117.7v-11.5h1.3v11.5H29z"/>
			<path class="st1" d="M33.4,108c-0.3,0-0.5-0.1-0.7-0.3c-0.2-0.2-0.3-0.4-0.3-0.7s0.1-0.5,0.3-0.6c0.2-0.2,0.4-0.3,0.7-0.3
				c0.3,0,0.5,0.1,0.7,0.3c0.2,0.2,0.3,0.4,0.3,0.6c0,0.3-0.1,0.5-0.3,0.7C33.9,107.9,33.6,108,33.4,108z M32.7,117.7v-7.9H34v7.9
				H32.7z"/>
			<path class="st1" d="M36.8,117.7v-6.8h-1.2v-1.1h1.2v-1.4c0-0.8,0.2-1.3,0.6-1.7c0.4-0.4,0.9-0.5,1.7-0.5h0.8v1.1h-0.6
				c-0.4,0-0.7,0.1-0.9,0.2c-0.2,0.2-0.3,0.5-0.3,0.8v1.3h2v1.1h-2v6.8L36.8,117.7L36.8,117.7z"/>
			<path class="st1" d="M44.8,117.7c-0.7,0-1.3-0.2-1.7-0.5c-0.4-0.4-0.6-1-0.6-1.9v-4.4h-1.4v-1.1h1.4l0.2-1.9h1.2v1.9h2.3v1.1
				h-2.3v4.4c0,0.5,0.1,0.8,0.3,1c0.2,0.2,0.6,0.3,1.1,0.3h0.8v1.1H44.8z"/>
			<path class="st1" d="M48.7,108c-0.3,0-0.5-0.1-0.7-0.3c-0.2-0.2-0.3-0.4-0.3-0.7s0.1-0.5,0.3-0.6c0.2-0.2,0.4-0.3,0.7-0.3
				c0.3,0,0.5,0.1,0.7,0.3c0.2,0.2,0.3,0.4,0.3,0.6c0,0.3-0.1,0.5-0.3,0.7C49.2,107.9,49,108,48.7,108z M48,117.7v-7.9h1.3v7.9H48z"
				/>
			<path class="st1" d="M51.7,117.7v-7.9h1.2l0.1,1.4c0.3-0.5,0.6-0.9,1.1-1.2c0.5-0.3,1-0.4,1.6-0.4c0.9,0,1.7,0.3,2.2,0.9
				c0.6,0.6,0.8,1.4,0.8,2.6v4.6h-1.3v-4.5c0-1.6-0.7-2.5-2.1-2.5c-0.7,0-1.2,0.2-1.7,0.7s-0.7,1.2-0.7,2.1v4.1L51.7,117.7
				L51.7,117.7z"/>
			<path class="st1" d="M64,115.2c-0.4,0-0.9-0.1-1.2-0.2l-0.8,0.8c0.1,0.1,0.3,0.2,0.4,0.2s0.4,0.1,0.8,0.2c0.3,0,0.8,0.1,1.4,0.1
				c1.1,0.1,1.8,0.3,2.3,0.7c0.5,0.4,0.7,1,0.7,1.6c0,0.5-0.1,0.9-0.4,1.3c-0.2,0.4-0.6,0.8-1.2,1c-0.5,0.3-1.2,0.4-2,0.4
				c-0.7,0-1.4-0.1-1.9-0.3c-0.6-0.2-1-0.5-1.3-0.9c-0.3-0.4-0.5-0.9-0.5-1.4c0-0.3,0.1-0.6,0.2-1c0.2-0.4,0.5-0.7,0.9-1
				c-0.2-0.1-0.4-0.2-0.6-0.3c-0.2-0.1-0.3-0.2-0.5-0.4v-0.4l1.4-1.3c-0.6-0.5-0.9-1.2-0.9-2.1c0-0.5,0.1-1,0.4-1.4
				c0.2-0.4,0.6-0.8,1.1-1s1-0.4,1.7-0.4c0.5,0,0.9,0.1,1.2,0.2h2.9v1l-1.5,0.1c0.3,0.5,0.5,1,0.5,1.6c0,0.5-0.1,1-0.4,1.4
				c-0.2,0.4-0.6,0.8-1.1,1C65.3,115,64.7,115.2,64,115.2z M61.7,118.7c0,0.5,0.2,0.9,0.7,1.2c0.4,0.3,1,0.4,1.7,0.4
				s1.2-0.1,1.6-0.4s0.6-0.7,0.6-1.1c0-0.3-0.1-0.6-0.4-0.9s-0.8-0.4-1.5-0.4c-0.6,0-1.1-0.1-1.5-0.2c-0.4,0.2-0.7,0.5-0.9,0.8
				C61.7,118.2,61.7,118.5,61.7,118.7z M64,114.1c0.6,0,1-0.1,1.3-0.4s0.5-0.7,0.5-1.3c0-0.5-0.2-1-0.5-1.3s-0.8-0.4-1.3-0.4
				c-0.6,0-1,0.1-1.4,0.4c-0.3,0.3-0.5,0.7-0.5,1.3c0,0.6,0.2,1,0.5,1.3C63,113.9,63.4,114.1,64,114.1z"/>
			<path class="st1" d="M75.5,117.7l-2.3-7.9h1.3l1.7,6.2l1.9-6.2h1.5l1.9,6.2l1.7-6.2h1.4l-2.3,7.9h-1.4l-2-6.5l-1.9,6.5H75.5z"/>
			<path class="st1" d="M89.3,117.8c-0.8,0-1.4-0.2-2-0.5c-0.6-0.4-1.1-0.8-1.4-1.5c-0.3-0.6-0.5-1.4-0.5-2.2c0-0.8,0.2-1.6,0.5-2.2
				s0.8-1.1,1.4-1.5s1.3-0.5,2.1-0.5c0.8,0,1.4,0.2,2,0.5s1,0.8,1.3,1.4s0.4,1.2,0.4,1.8c0,0.1,0,0.2,0,0.3c0,0.1,0,0.2,0,0.4h-6.3
				c0,0.6,0.2,1.1,0.4,1.5c0.2,0.4,0.6,0.7,0.9,0.9c0.4,0.2,0.8,0.3,1.2,0.3c0.6,0,1-0.1,1.4-0.4s0.7-0.6,0.8-1h1.3
				c-0.2,0.7-0.6,1.4-1.2,1.8C91,117.6,90.2,117.8,89.3,117.8z M89.3,110.7c-0.6,0-1.2,0.2-1.7,0.6s-0.8,1-0.9,1.7h5
				c0-0.7-0.3-1.3-0.7-1.7C90.5,110.9,89.9,110.7,89.3,110.7z"/>
			<path class="st1" d="M95.6,108c-0.3,0-0.5-0.1-0.7-0.3c-0.2-0.2-0.3-0.4-0.3-0.7s0.1-0.5,0.3-0.6c0.2-0.2,0.4-0.3,0.7-0.3
				s0.5,0.1,0.7,0.3c0.2,0.2,0.3,0.4,0.3,0.6c0,0.3-0.1,0.5-0.3,0.7C96.1,107.9,95.9,108,95.6,108z M95,117.7v-7.9h1.3v7.9H95z"/>
			<path class="st1" d="M101.8,115.2c-0.4,0-0.9-0.1-1.2-0.2l-0.8,0.8c0.1,0.1,0.3,0.2,0.4,0.2c0.2,0.1,0.4,0.1,0.8,0.2
				c0.3,0,0.8,0.1,1.4,0.1c1.1,0.1,1.8,0.3,2.3,0.7c0.5,0.4,0.7,1,0.7,1.6c0,0.5-0.1,0.9-0.4,1.3c-0.2,0.4-0.6,0.8-1.1,1
				c-0.5,0.3-1.2,0.4-2,0.4c-0.7,0-1.3-0.1-1.9-0.3c-0.6-0.2-1-0.5-1.3-0.9s-0.5-0.9-0.5-1.4c0-0.3,0.1-0.6,0.2-1
				c0.2-0.4,0.5-0.7,0.9-1c-0.2-0.1-0.4-0.2-0.6-0.3c-0.2-0.1-0.3-0.2-0.5-0.4v-0.4l1.4-1.3c-0.6-0.5-0.9-1.2-0.9-2.1
				c0-0.5,0.1-1,0.4-1.4c0.2-0.4,0.6-0.8,1.1-1s1-0.4,1.7-0.4c0.5,0,0.9,0.1,1.2,0.2h2.9v1l-1.5,0.1c0.3,0.5,0.5,1,0.5,1.6
				c0,0.5-0.1,1-0.4,1.4c-0.2,0.4-0.6,0.8-1.1,1C103,115,102.4,115.2,101.8,115.2z M99.4,118.7c0,0.5,0.2,0.9,0.7,1.2
				c0.4,0.3,1,0.4,1.7,0.4s1.2-0.1,1.6-0.4s0.6-0.7,0.6-1.1c0-0.3-0.1-0.6-0.4-0.9s-0.8-0.4-1.5-0.4c-0.6,0-1.1-0.1-1.5-0.2
				c-0.4,0.2-0.7,0.5-0.9,0.8C99.5,118.2,99.4,118.5,99.4,118.7z M101.8,114.1c0.6,0,1-0.1,1.3-0.4s0.5-0.7,0.5-1.3
				c0-0.5-0.2-1-0.5-1.3s-0.8-0.4-1.3-0.4c-0.6,0-1,0.1-1.4,0.4c-0.3,0.3-0.5,0.7-0.5,1.3c0,0.6,0.2,1,0.5,1.3
				C100.7,113.9,101.2,114.1,101.8,114.1z"/>
			<path class="st1" d="M107.5,117.7v-11.5h1.3v4.9c0.3-0.5,0.6-0.9,1.1-1.1c0.5-0.3,1-0.4,1.6-0.4c0.9,0,1.7,0.3,2.2,0.9
				c0.6,0.6,0.8,1.4,0.8,2.6v4.6h-1.3v-4.5c0-1.6-0.7-2.5-2-2.5c-0.7,0-1.3,0.2-1.7,0.7c-0.5,0.5-0.7,1.2-0.7,2.1v4.1L107.5,117.7
				L107.5,117.7z"/>
			<path class="st1" d="M119.8,117.7c-0.7,0-1.3-0.2-1.7-0.5c-0.4-0.4-0.6-1-0.6-1.9v-4.4h-1.4v-1.1h1.4l0.2-1.9h1.2v1.9h2.3v1.1
				h-2.3v4.4c0,0.5,0.1,0.8,0.3,1c0.2,0.2,0.6,0.3,1.1,0.3h0.8v1.1H119.8z"/>
			<path class="st1" d="M125.9,117.8c-0.9,0-1.7-0.2-2.4-0.7c-0.6-0.5-1-1.1-1.1-1.9h1.4c0.1,0.4,0.3,0.8,0.7,1.1
				c0.4,0.3,0.8,0.5,1.4,0.5c0.6,0,1-0.1,1.2-0.4c0.3-0.2,0.4-0.5,0.4-0.9c0-0.5-0.2-0.8-0.5-1c-0.4-0.2-0.8-0.3-1.5-0.4
				c-0.4-0.1-0.8-0.2-1.3-0.4c-0.4-0.2-0.8-0.4-1.1-0.7c-0.3-0.3-0.4-0.7-0.4-1.2c0-0.7,0.3-1.3,0.8-1.7s1.2-0.7,2.1-0.7
				c0.8,0,1.5,0.2,2.1,0.6c0.5,0.4,0.9,1,0.9,1.8h-1.3c-0.1-0.4-0.2-0.7-0.5-0.9c-0.3-0.2-0.7-0.3-1.2-0.3s-0.9,0.1-1.1,0.3
				s-0.4,0.5-0.4,0.8s0.2,0.6,0.5,0.8c0.3,0.2,0.8,0.3,1.4,0.5c0.5,0.1,1,0.2,1.4,0.4s0.8,0.4,1.1,0.7c0.3,0.3,0.4,0.7,0.4,1.3
				c0,0.7-0.3,1.3-0.8,1.8C127.5,117.6,126.8,117.8,125.9,117.8z"/>
			<path class="st3" d="M244.6,127.5c32.1,0,58.1-4.5,58.1-10.1s-26-10.1-58.1-10.1s-58,4.5-58,10.1S212.6,127.5,244.6,127.5z"/>
			<path class="st4" d="M219.9,75c0.3,1.8-0.5,6.2-5.9,4.3c-8.6-2.6-33.2-15.4-20.1-26.5c5.7-4.8,10.9,2.6,14.9,9.3
				C213.4,69.8,219.9,75.1,219.9,75z"/>
			<path class="st4" d="M269.4,75c-0.3,1.8,0.5,6.2,5.9,4.3c8.6-2.6,33.2-15.4,20.1-26.5c-5.7-4.8-10.9,2.6-14.9,9.3
				C275.9,69.8,269.5,75.1,269.4,75z"/>
			<path class="st5" d="M275.7,30c0,0-19.7,15.7-34.4,5.7C241.4,35.7,251.7,22.5,275.7,30z"/>
			<path class="st6" d="M260.9,22.3c0,0-3.2,14.5-22.1,16.3C238.8,38.6,238.7,32.2,260.9,22.3z"/>
			<path class="st7" d="M227.9,36.7c-8.3,4.1-21.1,15.7-19.6,38.9c0.4,6.2,1.2,17.2,4.9,23.8s-3.7,11.2-1.8,17.4
				c3.3,10.6,6.6-5.5,32.9-7.8c15.7-1.4,32.5,16.1,33.1,4.5c0.2-4.4-5-6.9-2.7-13.8c2.8-8.6,6.2-9.8,6.9-23.1
				C283.8,32,243.8,28.9,227.9,36.7z"/>
			<path d="M247.9,67.4c0,0.8,0.6,4.9-5.1,4.9c-5.7,0-5.9-4.2-5.9-4.9s2.5-0.1,5.5-0.1C245.5,67.2,247.9,66.6,247.9,67.4z"/>
			<path class="st0" d="M242.7,68.4h-0.6c-0.4,0-0.6-0.3-0.6-0.6v-0.5h1.9v0.5C243.3,68.1,243,68.4,242.7,68.4z"/>
			<path class="st5" d="M235.1,20.6c0,0,4.2,1.2,4.9,6C240,26.7,238.2,26.6,235.1,20.6z"/>
			<path class="st5" d="M245.7,23.3c0,0,0.2,7-6.6,7.1C239.1,30.3,239.5,27.2,245.7,23.3z"/>
			<path class="st8" d="M239.5,35.3c-0.3-0.4-1.9-9.2,4.3-16.4"/>
			<path class="st9" d="M244,15.7c0,0-5.4-4.1-7.1-1.9C235.1,16,243,17.3,244,15.7z"/>
			<path class="st9" d="M243.9,15.6c0,0-7.4-0.1-6.3,2.4C238.7,20.7,244.9,17.4,243.9,15.6z"/>
			<path class="st9" d="M245.1,16c0,0-6.8,2-4.7,4.1C242.6,22.3,246.7,17.4,245.1,16z"/>
			<path class="st9" d="M245.7,15.6c0,0-2.2-6.8-4.3-4.5C239.3,13.4,244.4,17.4,245.7,15.6z"/>
			<path class="st9" d="M245.2,16.5c0,0,7.1-0.7,5.3-3.2C248.7,10.7,243.8,14.8,245.2,16.5z"/>
			<path class="st9" d="M245.6,17c0,0,2.7-5.1,0.3-5.3C243.6,11.4,244,17,245.6,17z"/>
			<path class="st9" d="M245.6,16.4c0,0,6.1-2.9,7.4-0.3C254.2,18.7,246.2,18.3,245.6,16.4z"/>
			<path class="st9" d="M245.6,15.9c0,0,7.3,1.5,5.6,3.8C249.6,22,244.2,17.4,245.6,15.9z"/>
			<path class="st9" d="M245.3,15.6c0,0,4.4,5.6,1.3,6.1C243.6,22.1,243.1,15.7,245.3,15.6z"/>
			<path class="st2" d="M249,16.6c0.1-0.9-1.6-1.9-3.8-2.1c-2.2-0.2-4.1,0.3-4.2,1.2c-0.1,0.9,1.6,1.9,3.8,2.1
				C247,18,248.9,17.5,249,16.6z"/>
			<path d="M253.8,63.1c1.3,0,2.4-1.1,2.4-2.4s-1.1-2.4-2.4-2.4s-2.4,1.1-2.4,2.4S252.5,63.1,253.8,63.1z"/>
			<path d="M231.2,63.1c1.3,0,2.4-1.1,2.4-2.4s-1.1-2.4-2.4-2.4c-1.3,0-2.4,1.1-2.4,2.4S229.9,63.1,231.2,63.1z"/>
			<path class="st10" d="M299.8,65.9l-15-13.5l-2.5,2.8l15,13.5L299.8,65.9z"/>
			<path class="st2" d="M284.5,47.6l-0.7,0.7l0,0l-3.2,3.6c-0.1,0.1-0.3,0.1-0.4,0s-0.1-0.3,0-0.4l3.1-3.5c-0.7-0.4-1.5-0.6-1.8-0.2
				l-4.3,4.8c-0.4,0.5,0.1,1.6,0.7,2.2l-0.7,0.7c-0.4,0.5-0.2,1.4,0.4,2l1.5,1.3c0.2,0.1,0.4,0.2,0.5,0l8.5-9.4
				c0.1-0.1,0.1-0.3-0.1-0.5l-1.5-1.3C285.9,47.2,285,47.1,284.5,47.6z"/>
			<path class="st11" d="M280.3,51.9c0.1,0.1,0.3,0.1,0.4,0l3.2-3.6c-0.1-0.1-0.3-0.2-0.5-0.3l-3.1,3.5
				C280.1,51.6,280.1,51.8,280.3,51.9z"/>
			<path class="st2" d="M301.7,61.9l-8.5,9.4c-0.1,0.1-0.1,0.3,0.1,0.5l1.5,1.3c0.7,0.6,1.6,0.7,2,0.2l0.7-0.7
				c0.7,0.6,1.9,1,2.3,0.5l4.3-4.8c0.3-0.4,0.1-1.2-0.4-1.8l-1,1.1c-0.1,0.1-0.3,0.1-0.4,0s-0.1-0.3,0-0.4l1.1-1.2l0.7-0.7
				c0.4-0.5,0.2-1.4-0.4-2l-1.5-1.3C302.1,61.8,301.8,61.8,301.7,61.9z"/>
			<path class="st11" d="M302.4,67.6c0.1,0.1,0.3,0.1,0.4,0l1-1.1c-0.1-0.2-0.2-0.3-0.4-0.4l-1.1,1.2
				C302.3,67.3,302.3,67.5,302.4,67.6z"/>
			<path class="st4" d="M292.2,63.1c1.5,1.5,4,1.5,5.4,0c3.2-3.4,3.2-5.9-2.2-10.3c-2.9-2.4-5.8-2-8.9,1.1c-0.9,0.9-0.9,2.3-0.1,3.3
				C288.2,59.3,291.6,62.5,292.2,63.1z"/>
			<path class="st10" d="M192.1,68.8l15-13.5l-2.5-2.8l-15,13.5L192.1,68.8z"/>
			<path class="st2" d="M204.8,47.6l0.7,0.7l0,0l3.2,3.6c0.1,0.1,0.3,0.1,0.4,0s0.1-0.3,0-0.4l-3.2-3.5c0.7-0.4,1.5-0.6,1.8-0.2
				l4.3,4.8c0.4,0.5-0.1,1.6-0.7,2.2l0.7,0.7c0.4,0.5,0.2,1.4-0.4,2l-1.5,1.3c-0.2,0.1-0.4,0.2-0.5,0l-8.4-9.4
				c-0.1-0.1-0.1-0.3,0.1-0.5l1.5-1.3C203.5,47.2,204.4,47.1,204.8,47.6z"/>
			<path class="st11" d="M209.1,51.9c-0.1,0.1-0.3,0.1-0.4,0l-3.2-3.6c0.1-0.1,0.3-0.2,0.5-0.3l3.1,3.5
				C209.2,51.6,209.2,51.8,209.1,51.9z"/>
			<path class="st2" d="M187.6,61.9l8.4,9.4c0.1,0.1,0.1,0.3-0.1,0.5l-1.5,1.3c-0.7,0.6-1.6,0.7-2,0.2l-0.7-0.7
				c-0.7,0.6-1.9,1-2.3,0.5l-4.3-4.8c-0.3-0.4-0.1-1.2,0.4-1.8l1,1.1c0.1,0.1,0.3,0.1,0.4,0s0.1-0.3,0-0.4l-1.1-1.2l-0.7-0.7
				c-0.4-0.5-0.2-1.4,0.4-2L187,62C187.3,61.8,187.5,61.8,187.6,61.9z"/>
			<path class="st11" d="M187,67.6c-0.1,0.1-0.3,0.1-0.4,0l-1-1.1c0.1-0.2,0.2-0.3,0.4-0.4l1.1,1.2C187.1,67.3,187.1,67.5,187,67.6z
				"/>
			<path class="st4" d="M197.1,63.1c-1.5,1.5-4,1.5-5.4,0c-3.2-3.4-3.2-5.9,2.2-10.3c2.9-2.4,5.8-2,8.9,1.1c0.9,0.9,0.9,2.3,0.1,3.3
				C201,59.3,197.6,62.5,197.1,63.1z"/>
			<path class="st0" d="M262.1,46.9c0,0,2,7.9,5.2,6.1C268.8,52.1,269.2,47.2,262.1,46.9z"/>
		</g>
	</g>
</g>
</svg>
