<?xml version="1.0" encoding="utf-8"?>
<!-- Generator: Adobe Illustrator 25.1.0, SVG Export Plug-In . SVG Version: 6.00 Build 0)  -->
<svg version="1.1" id="Layer_1" xmlns="http://www.w3.org/2000/svg" xmlns:xlink="http://www.w3.org/1999/xlink" x="0px" y="0px"
	 viewBox="0 0 329.4 218" style="enable-background:new 0 0 329.4 218;" xml:space="preserve">
<style type="text/css">
	.st0{fill:#F4F1EF;}
	.st1{fill:#FFFFFF;}
	.st2{fill:#808080;}
	.st3{fill:#00A878;}
	.st4{fill:#00CDDC;}
	.st5{fill:#E14504;}
	.st6{fill:#BFBFBF;}
	.st7{fill:#FF9F1A;}
	.st8{fill:#E6E6E6;}
	.st9{fill:#28C86E;}
	.st10{fill:#3CDC82;}
	.st11{fill:#32DCD2;}
	.st12{fill:none;stroke:#28C86E;stroke-width:0.6925;stroke-linecap:round;stroke-miterlimit:10;}
	.st13{fill:#FFCF8D;}
	.st14{fill:#E97443;}
</style>
<g>
	<g>
		<path class="st0" d="M221.4,192.9c0.2,1,1,1.8-1.4,1.9l-4.7,0.2c-2.4,0.1-4.6-0.6-4.8-1.6s1.5-1.9,3.9-2l4.7-0.2
			C221.6,191,221.2,191.8,221.4,192.9z"/>
		<path class="st1" d="M1.9,61.2c0,140.8-16.7,143.6,48.9,154.3c27.5,4.5,135.9,1.8,172.6,1.2c36.1-0.6,94.4,1.4,100.7-20.3
			c6.3-21.4,5.2-48.5,5.2-86.9c0-60.3-1.7-97.6-38.8-105.3C252.8-3.6,145.4,1.8,100,2.7C53.1,3.8,1.9-0.3,1.9,61.2z"/>
		<path class="st2" d="M32.7,115.8V109h-1.2v-1.1h1.2v-1.5c0-0.8,0.2-1.3,0.6-1.7c0.4-0.3,0.9-0.5,1.7-0.5h0.8v1.2h-0.6
			c-0.4,0-0.7,0.1-0.9,0.2c-0.2,0.2-0.3,0.5-0.3,0.8v1.3h2v1.1h-2v6.8h-1.3V115.8z"/>
		<path class="st2" d="M40.9,116c-0.8,0-1.4-0.2-2-0.5s-1.1-0.8-1.4-1.5c-0.3-0.6-0.5-1.4-0.5-2.2c0-0.8,0.2-1.6,0.5-2.2
			s0.8-1.1,1.4-1.5c0.6-0.3,1.3-0.5,2-0.5s1.4,0.2,2,0.5s1.1,0.8,1.4,1.5c0.3,0.6,0.5,1.4,0.5,2.2c0,0.8-0.2,1.6-0.5,2.2
			s-0.8,1.1-1.4,1.5C42.3,115.8,41.6,116,40.9,116z M40.9,114.8c0.5,0,0.9-0.1,1.3-0.3c0.4-0.2,0.7-0.6,1-1c0.2-0.5,0.4-1,0.4-1.7
			s-0.1-1.2-0.4-1.7c-0.2-0.5-0.6-0.8-0.9-1c-0.4-0.2-0.8-0.3-1.3-0.3s-0.9,0.1-1.3,0.3c-0.4,0.2-0.7,0.6-1,1s-0.4,1-0.4,1.7
			s0.1,1.2,0.4,1.7c0.2,0.5,0.6,0.8,1,1S40.4,114.8,40.9,114.8z"/>
		<path class="st2" d="M46.7,115.8v-7.9h1.2l0.1,1.5c0.2-0.5,0.6-0.9,1.1-1.2s1.1-0.5,1.9-0.5v1.4h-0.4c-0.5,0-0.9,0.1-1.3,0.2
			c-0.4,0.2-0.7,0.4-0.9,0.8s-0.3,0.9-0.3,1.6v4h-1.4V115.8z"/>
		<path class="st2" d="M60.3,116c-0.8,0-1.4-0.2-2-0.5s-1.1-0.8-1.4-1.4c-0.3-0.6-0.5-1.4-0.5-2.2c0-0.8,0.2-1.6,0.5-2.2
			s0.8-1.1,1.4-1.5c0.6-0.4,1.3-0.5,2.1-0.5s1.4,0.2,2,0.5s1,0.8,1.3,1.4s0.4,1.2,0.4,1.8c0,0.1,0,0.2,0,0.3c0,0.1,0,0.2,0,0.4h-6.3
			c0,0.6,0.2,1.1,0.4,1.5s0.6,0.7,0.9,0.9c0.4,0.2,0.8,0.3,1.2,0.3c0.6,0,1-0.1,1.4-0.4s0.7-0.6,0.8-1h1.4c-0.2,0.7-0.6,1.4-1.2,1.8
			C62,115.7,61.3,116,60.3,116z M60.3,108.8c-0.6,0-1.2,0.2-1.7,0.6s-0.8,1-0.9,1.7h5c0-0.7-0.3-1.3-0.7-1.7
			C61.6,109,61,108.8,60.3,108.8z"/>
		<path class="st2" d="M64.7,115.8l2.8-4l-2.8-4h1.5l2.2,3.3l2.2-3.3H72l-2.8,4l2.8,4h-1.4l-2.2-3.3l-2.2,3.3H64.7z"/>
		<path class="st2" d="M76.1,116c-0.7,0-1.2-0.1-1.7-0.3c-0.4-0.2-0.8-0.5-1-0.9s-0.3-0.8-0.3-1.2c0-0.8,0.3-1.4,0.9-1.9
			c0.6-0.4,1.5-0.7,2.5-0.7h2.1v-0.1c0-0.7-0.2-1.2-0.5-1.6s-0.8-0.5-1.5-0.5c-0.5,0-1,0.1-1.4,0.4s-0.6,0.6-0.7,1.1h-1.4
			c0.1-0.6,0.2-1.1,0.6-1.5c0.3-0.4,0.8-0.7,1.3-0.9c0.5-0.2,1-0.3,1.6-0.3c1.1,0,1.9,0.3,2.5,0.9s0.8,1.4,0.8,2.4v4.9h-1.2
			l-0.1-1.4c-0.2,0.5-0.6,0.8-1,1.1C77.4,115.8,76.8,116,76.1,116z M76.3,114.8c0.5,0,0.9-0.1,1.3-0.4s0.7-0.6,0.8-1
			c0.2-0.4,0.3-0.9,0.3-1.3l0,0h-2c-0.8,0-1.3,0.1-1.7,0.4c-0.3,0.3-0.5,0.6-0.5,1s0.1,0.8,0.5,1C75.3,114.7,75.7,114.8,76.3,114.8z
			"/>
		<path class="st2" d="M82.1,115.8v-7.9h1.2l0.1,1.2c0.3-0.4,0.6-0.8,1-1s0.9-0.4,1.4-0.4c0.6,0,1.2,0.1,1.6,0.4s0.8,0.7,1.1,1.2
			c0.3-0.5,0.7-0.9,1.1-1.1c0.5-0.3,1-0.4,1.6-0.4c1,0,1.7,0.3,2.3,0.9c0.6,0.6,0.8,1.4,0.8,2.6v4.6H93v-4.5c0-0.8-0.2-1.4-0.5-1.9
			c-0.3-0.4-0.8-0.6-1.4-0.6s-1.2,0.2-1.6,0.7s-0.6,1.2-0.6,2.1v4.1h-1.3v-4.5c0-0.8-0.2-1.4-0.5-1.9s-0.8-0.6-1.4-0.6
			s-1.2,0.2-1.6,0.7s-0.6,1.2-0.6,2.1v4.1L82.1,115.8L82.1,115.8z"/>
		<path class="st2" d="M96.4,119.3v-11.5h1.2l0.1,1.3c0.3-0.4,0.6-0.7,1.1-1s1.1-0.5,1.8-0.5c0.8,0,1.5,0.2,2.1,0.5
			c0.6,0.4,1,0.9,1.4,1.5c0.3,0.6,0.5,1.3,0.5,2.1c0,0.8-0.2,1.5-0.5,2.1s-0.8,1.1-1.4,1.5s-1.3,0.5-2.1,0.5c-0.7,0-1.2-0.1-1.7-0.4
			s-0.9-0.6-1.2-1.1v4.9h-1.3V119.3z M100.5,114.8c0.5,0,1-0.1,1.4-0.4c0.4-0.2,0.7-0.6,1-1.1c0.2-0.4,0.4-1,0.4-1.6
			s-0.1-1.1-0.4-1.6c-0.2-0.5-0.6-0.8-1-1s-0.9-0.4-1.4-0.4s-1,0.1-1.4,0.4c-0.4,0.2-0.7,0.6-1,1c-0.2,0.5-0.3,1-0.3,1.6
			s0.1,1.1,0.3,1.6c0.2,0.5,0.6,0.8,1,1.1C99.5,114.7,100,114.8,100.5,114.8z"/>
		<path class="st2" d="M106.4,115.8v-11.5h1.3v11.5H106.4z"/>
		<path class="st2" d="M113.6,116c-0.8,0-1.4-0.2-2-0.5s-1.1-0.8-1.4-1.4s-0.5-1.4-0.5-2.2c0-0.8,0.2-1.6,0.5-2.2s0.8-1.1,1.4-1.5
			s1.3-0.5,2.1-0.5c0.8,0,1.4,0.2,2,0.5s1,0.8,1.3,1.4s0.4,1.2,0.4,1.8c0,0.1,0,0.2,0,0.3s0,0.2,0,0.4h-6.3c0,0.6,0.2,1.1,0.4,1.5
			c0.2,0.4,0.6,0.7,0.9,0.9c0.4,0.2,0.8,0.3,1.2,0.3c0.6,0,1-0.1,1.4-0.4c0.4-0.2,0.6-0.6,0.8-1h1.3c-0.2,0.7-0.6,1.4-1.2,1.8
			C115.3,115.7,114.5,116,113.6,116z M113.6,108.8c-0.6,0-1.2,0.2-1.7,0.6s-0.8,1-0.9,1.7h5c0-0.7-0.3-1.3-0.7-1.7
			C114.8,109,114.2,108.8,113.6,108.8z"/>
		<path class="st2" d="M127.6,116c-0.6,0-1.2-0.1-1.7-0.4s-0.9-0.6-1.2-1.1l-0.1,1.3h-1.2v-11.5h1.3v4.9c0.3-0.4,0.6-0.7,1.1-1
			s1.1-0.5,1.8-0.5c0.8,0,1.5,0.2,2.1,0.5c0.6,0.4,1,0.9,1.4,1.5c0.3,0.6,0.5,1.3,0.5,2.1s-0.2,1.5-0.5,2.1s-0.8,1.1-1.4,1.5
			C129,115.8,128.4,116,127.6,116z M127.4,114.8c0.5,0,1-0.1,1.4-0.4s0.7-0.6,1-1.1c0.2-0.4,0.4-1,0.4-1.6s-0.1-1.1-0.4-1.6
			c-0.2-0.5-0.6-0.8-1-1s-0.9-0.4-1.4-0.4s-1,0.1-1.4,0.4c-0.4,0.2-0.7,0.6-1,1c-0.2,0.5-0.4,1-0.4,1.6s0.1,1.1,0.4,1.6
			c0.2,0.5,0.6,0.8,1,1.1C126.4,114.7,126.9,114.8,127.4,114.8z"/>
		<path class="st2" d="M133.6,119.3l2-4.3h-0.5l-3.2-7.2h1.5l2.6,6.2l2.8-6.2h1.4l-5.2,11.5H133.6z"/>
		<path class="st2" d="M148.5,116c-0.7,0-1.2-0.1-1.6-0.3c-0.4-0.2-0.8-0.5-1-0.9s-0.3-0.8-0.3-1.2c0-0.8,0.3-1.4,0.9-1.9
			c0.6-0.4,1.5-0.7,2.5-0.7h2.1v-0.1c0-0.7-0.2-1.2-0.5-1.6s-0.8-0.5-1.5-0.5c-0.5,0-1,0.1-1.4,0.4s-0.6,0.6-0.7,1.1h-1.4
			c0.1-0.6,0.2-1.1,0.6-1.5c0.3-0.4,0.8-0.7,1.3-0.9c0.5-0.2,1-0.3,1.6-0.3c1.1,0,1.9,0.3,2.5,0.9s0.8,1.4,0.8,2.4v4.9h-1.2
			l-0.1-1.4c-0.2,0.5-0.6,0.8-1,1.1C149.8,115.8,149.2,116,148.5,116z M148.7,114.8c0.5,0,0.9-0.1,1.3-0.4c0.4-0.3,0.6-0.6,0.8-1
			s0.3-0.9,0.3-1.3l0,0h-2c-0.8,0-1.4,0.1-1.7,0.4s-0.5,0.6-0.5,1s0.1,0.8,0.5,1C147.7,114.7,148.2,114.8,148.7,114.8z"/>
		<path class="st2" d="M154.5,119.3v-11.5h1.2l0.1,1.3c0.3-0.4,0.6-0.7,1.1-1s1.1-0.5,1.8-0.5c0.8,0,1.5,0.2,2.1,0.5
			c0.6,0.4,1,0.9,1.4,1.5s0.5,1.3,0.5,2.1c0,0.8-0.2,1.5-0.5,2.1s-0.8,1.1-1.4,1.5c-0.6,0.4-1.3,0.5-2.1,0.5c-0.7,0-1.2-0.1-1.7-0.4
			s-0.9-0.6-1.2-1.1v4.9h-1.3V119.3z M158.6,114.8c0.5,0,1-0.1,1.4-0.4s0.7-0.6,1-1.1c0.2-0.4,0.3-1,0.3-1.6s-0.1-1.1-0.3-1.6
			s-0.6-0.8-1-1s-0.9-0.4-1.4-0.4s-1,0.1-1.4,0.4c-0.4,0.2-0.7,0.6-1,1s-0.4,1-0.4,1.6s0.1,1.1,0.4,1.6c0.2,0.5,0.6,0.8,1,1.1
			C157.6,114.7,158.1,114.8,158.6,114.8z"/>
		<path class="st2" d="M164.6,119.3v-11.5h1.2l0.1,1.3c0.3-0.4,0.6-0.7,1.1-1s1.1-0.5,1.8-0.5c0.8,0,1.5,0.2,2.1,0.5
			c0.6,0.4,1,0.9,1.4,1.5s0.5,1.3,0.5,2.1c0,0.8-0.2,1.5-0.5,2.1s-0.8,1.1-1.4,1.5c-0.6,0.4-1.3,0.5-2.1,0.5c-0.6,0-1.2-0.1-1.7-0.4
			s-0.9-0.6-1.2-1.1v4.9h-1.3V119.3z M168.7,114.8c0.5,0,1-0.1,1.4-0.4s0.7-0.6,1-1.1c0.2-0.4,0.4-1,0.4-1.6s-0.1-1.1-0.4-1.6
			c-0.2-0.5-0.6-0.8-1-1s-0.9-0.4-1.4-0.4s-1,0.1-1.4,0.4c-0.4,0.2-0.7,0.6-1,1c-0.2,0.5-0.4,1-0.4,1.6s0.1,1.1,0.4,1.6
			c0.2,0.5,0.6,0.8,1,1.1C167.7,114.7,168.1,114.8,168.7,114.8z"/>
		<path class="st2" d="M174.6,115.8v-7.9h1.2l0.1,1.5c0.2-0.5,0.6-0.9,1.1-1.2s1.1-0.5,1.9-0.5v1.4h-0.4c-0.5,0-0.9,0.1-1.3,0.2
			c-0.4,0.2-0.7,0.4-0.9,0.8s-0.3,0.9-0.3,1.6v4h-1.4V115.8z"/>
		<path class="st2" d="M183.8,116c-0.8,0-1.4-0.2-2-0.5s-1.1-0.8-1.4-1.5c-0.4-0.6-0.5-1.4-0.5-2.2c0-0.8,0.2-1.6,0.5-2.2
			c0.4-0.6,0.8-1.1,1.4-1.5c0.6-0.3,1.3-0.5,2-0.5s1.4,0.2,2,0.5s1.1,0.8,1.4,1.5c0.4,0.6,0.5,1.4,0.5,2.2c0,0.8-0.2,1.6-0.5,2.2
			c-0.4,0.6-0.8,1.1-1.4,1.5C185.2,115.8,184.5,116,183.8,116z M183.8,114.8c0.5,0,0.9-0.1,1.3-0.3s0.7-0.6,1-1s0.4-1,0.4-1.7
			s-0.1-1.2-0.4-1.7c-0.2-0.5-0.6-0.8-1-1s-0.8-0.3-1.3-0.3s-0.9,0.1-1.3,0.3c-0.4,0.2-0.7,0.6-1,1s-0.4,1-0.4,1.7s0.1,1.2,0.4,1.7
			c0.2,0.5,0.6,0.8,1,1C182.9,114.7,183.3,114.8,183.8,114.8z"/>
		<path class="st2" d="M188.5,115.8l2.8-4l-2.8-4h1.5l2.2,3.3l2.2-3.3h1.4l-2.8,4l2.8,4h-1.4l-2.2-3.3l-2.2,3.3H188.5z"/>
		<path class="st2" d="M198,106.1c-0.3,0-0.5-0.1-0.7-0.3c-0.2-0.2-0.3-0.4-0.3-0.7s0.1-0.5,0.3-0.6c0.2-0.2,0.4-0.3,0.7-0.3
			s0.5,0.1,0.7,0.3c0.2,0.2,0.3,0.4,0.3,0.6c0,0.3-0.1,0.5-0.3,0.7C198.5,106,198.3,106.1,198,106.1z M197.4,115.8v-7.9h1.3v7.9
			H197.4z"/>
		<path class="st2" d="M201.1,115.8v-7.9h1.2l0.1,1.2c0.3-0.4,0.6-0.8,1-1s0.9-0.4,1.4-0.4c0.6,0,1.2,0.1,1.6,0.4
			c0.4,0.3,0.8,0.7,1.1,1.2c0.3-0.5,0.7-0.9,1.1-1.1c0.5-0.3,1-0.4,1.6-0.4c0.9,0,1.7,0.3,2.3,0.9s0.8,1.4,0.8,2.6v4.6H212v-4.5
			c0-0.8-0.2-1.4-0.5-1.9s-0.8-0.6-1.4-0.6c-0.6,0-1.2,0.2-1.6,0.7c-0.4,0.5-0.6,1.2-0.6,2.1v4.1h-1.3v-4.5c0-0.8-0.2-1.4-0.5-1.9
			s-0.8-0.6-1.4-0.6c-0.6,0-1.1,0.2-1.6,0.7c-0.4,0.5-0.6,1.2-0.6,2.1v4.1L201.1,115.8L201.1,115.8z"/>
		<path class="st2" d="M218,116c-0.7,0-1.2-0.1-1.6-0.3c-0.4-0.2-0.8-0.5-1-0.9s-0.3-0.8-0.3-1.2c0-0.8,0.3-1.4,0.9-1.9
			c0.6-0.4,1.5-0.7,2.5-0.7h2.1v-0.1c0-0.7-0.2-1.2-0.5-1.6s-0.8-0.5-1.5-0.5c-0.5,0-1,0.1-1.4,0.4s-0.6,0.6-0.7,1.1h-1.4
			c0.1-0.6,0.2-1.1,0.6-1.5c0.3-0.4,0.8-0.7,1.3-0.9c0.5-0.2,1-0.3,1.6-0.3c1.1,0,1.9,0.3,2.5,0.9s0.8,1.4,0.8,2.4v4.9h-1.2
			l-0.1-1.4c-0.2,0.5-0.6,0.8-1,1.1C219.3,115.8,218.7,116,218,116z M218.2,114.8c0.5,0,0.9-0.1,1.3-0.4c0.4-0.3,0.7-0.6,0.8-1
			c0.2-0.4,0.3-0.9,0.3-1.3l0,0h-2c-0.8,0-1.4,0.1-1.7,0.4s-0.5,0.6-0.5,1s0.2,0.8,0.5,1C217.2,114.7,217.7,114.8,218.2,114.8z"/>
		<path class="st2" d="M227,115.8c-0.7,0-1.3-0.2-1.7-0.5c-0.4-0.4-0.6-1-0.6-1.9V109h-1.4v-1.1h1.4l0.2-1.9h1.2v1.9h2.3v1.1h-2.3
			v4.4c0,0.5,0.1,0.8,0.3,1s0.6,0.3,1.1,0.3h0.8v1.2H227V115.8z"/>
		<path class="st2" d="M233.3,116c-0.8,0-1.4-0.2-2-0.5s-1-0.8-1.4-1.4c-0.3-0.6-0.5-1.4-0.5-2.2c0-0.8,0.2-1.6,0.5-2.2
			s0.8-1.1,1.4-1.5c0.6-0.4,1.3-0.5,2.1-0.5s1.4,0.2,2,0.5s1,0.8,1.3,1.4s0.5,1.2,0.5,1.8c0,0.1,0,0.2,0,0.3c0,0.1,0,0.2,0,0.4h-6.3
			c0,0.6,0.2,1.1,0.4,1.5s0.6,0.7,0.9,0.9c0.4,0.2,0.8,0.3,1.2,0.3c0.6,0,1-0.1,1.4-0.4s0.6-0.6,0.8-1h1.3c-0.2,0.7-0.6,1.4-1.2,1.8
			C235.1,115.7,234.3,116,233.3,116z M233.3,108.8c-0.6,0-1.2,0.2-1.7,0.6s-0.8,1-0.9,1.7h5c0-0.7-0.3-1.3-0.7-1.7
			C234.6,109,234,108.8,233.3,108.8z"/>
		<path class="st2" d="M238.9,115.8v-11.5h1.3v11.5H238.9z"/>
		<path class="st2" d="M243.3,119.3l2-4.3h-0.5l-3.1-7.2h1.5l2.6,6.2l2.8-6.2h1.4l-5.2,11.5H243.3z"/>
		<path class="st2" d="M33.4,137.8v-9.7l-1.8,0.4v-0.9l2.3-1h0.9v11.2H33.4L33.4,137.8z"/>
		<path class="st2" d="M41.5,138c-1,0-1.9-0.2-2.6-0.7c-0.7-0.5-1.3-1.2-1.7-2c-0.4-0.9-0.6-1.9-0.6-3c0-1.2,0.2-2.2,0.6-3
			c0.4-0.9,0.9-1.5,1.7-2c0.7-0.5,1.6-0.7,2.6-0.7s1.8,0.2,2.6,0.7c0.7,0.5,1.3,1.2,1.7,2c0.4,0.9,0.6,1.9,0.6,3s-0.2,2.2-0.6,3
			c-0.4,0.9-0.9,1.5-1.7,2C43.3,137.7,42.5,138,41.5,138z M41.5,136.8c0.6,0,1.2-0.2,1.8-0.5c0.5-0.4,0.9-0.9,1.2-1.6
			s0.4-1.5,0.4-2.5s-0.1-1.8-0.4-2.5s-0.7-1.2-1.2-1.6c-0.5-0.4-1.1-0.5-1.8-0.5s-1.2,0.2-1.8,0.5c-0.5,0.4-0.9,0.9-1.2,1.6
			s-0.5,1.5-0.5,2.5s0.2,1.8,0.5,2.5s0.7,1.2,1.2,1.6C40.3,136.6,40.9,136.8,41.5,136.8z"/>
		<path class="st2" d="M50.2,131.8c-0.5,0-0.9-0.1-1.3-0.3c-0.4-0.2-0.7-0.5-0.9-0.9s-0.3-0.9-0.3-1.4s0.1-1,0.3-1.4
			c0.2-0.4,0.5-0.7,0.9-0.9c0.4-0.2,0.8-0.3,1.3-0.3s0.9,0.1,1.3,0.3c0.4,0.2,0.7,0.5,0.9,0.9c0.2,0.4,0.3,0.9,0.3,1.4
			s-0.1,1-0.3,1.4s-0.5,0.7-0.9,0.9C51.2,131.7,50.7,131.8,50.2,131.8z M50.2,130.7c0.4,0,0.7-0.1,1-0.4s0.4-0.7,0.4-1.2
			s-0.1-1-0.4-1.3c-0.3-0.3-0.6-0.4-1-0.4s-0.7,0.1-1,0.4c-0.3,0.3-0.4,0.7-0.4,1.3c0,0.5,0.1,1,0.4,1.2
			C49.5,130.6,49.9,130.7,50.2,130.7z M49.2,137.8l6.5-11.2H57l-6.5,11.2H49.2z M56.2,138c-0.5,0-0.9-0.1-1.3-0.3
			c-0.4-0.2-0.7-0.5-0.9-0.9s-0.3-0.9-0.3-1.4s0.1-1,0.3-1.4s0.5-0.7,0.9-0.9c0.4-0.2,0.8-0.3,1.3-0.3s0.9,0.1,1.3,0.3
			c0.4,0.2,0.7,0.5,0.9,0.9s0.3,0.9,0.3,1.4s-0.1,1-0.3,1.4s-0.5,0.7-0.9,0.9C57.1,137.9,56.7,138,56.2,138z M56.2,136.9
			c0.4,0,0.7-0.1,1-0.4s0.4-0.7,0.4-1.2s-0.1-1-0.4-1.2c-0.3-0.3-0.6-0.4-1-0.4s-0.7,0.1-1,0.4s-0.4,0.7-0.4,1.2s0.1,1,0.4,1.2
			C55.5,136.8,55.8,136.9,56.2,136.9z"/>
		<path class="st2" d="M68.3,138c-0.8,0-1.4-0.2-2-0.5s-1.1-0.8-1.4-1.4s-0.5-1.4-0.5-2.2c0-0.8,0.2-1.6,0.5-2.2s0.8-1.1,1.4-1.5
			s1.3-0.5,2.1-0.5c0.8,0,1.4,0.2,2,0.5s1,0.8,1.3,1.4s0.5,1.2,0.5,1.8c0,0.1,0,0.2,0,0.3s0,0.2,0,0.4h-6.3c0,0.6,0.2,1.1,0.4,1.5
			c0.2,0.4,0.6,0.7,0.9,0.9s0.8,0.3,1.2,0.3c0.6,0,1-0.1,1.4-0.4s0.7-0.6,0.8-1h1.3c-0.2,0.7-0.6,1.4-1.2,1.8
			C70,137.7,69.3,138,68.3,138z M68.3,130.8c-0.6,0-1.2,0.2-1.7,0.6s-0.8,1-0.9,1.7h5c0-0.7-0.3-1.3-0.7-1.7
			C69.6,131,69,130.8,68.3,130.8z"/>
		<path class="st2" d="M76.5,138c-0.7,0-1.2-0.1-1.7-0.3c-0.4-0.2-0.8-0.5-1-0.9s-0.3-0.8-0.3-1.2c0-0.8,0.3-1.4,0.9-1.9
			c0.6-0.4,1.5-0.7,2.5-0.7H79v-0.1c0-0.7-0.2-1.2-0.5-1.6s-0.8-0.5-1.5-0.5c-0.5,0-1,0.1-1.3,0.4c-0.4,0.3-0.6,0.6-0.7,1.1h-1.4
			c0.1-0.6,0.2-1.1,0.6-1.5c0.3-0.4,0.8-0.7,1.3-0.9c0.5-0.2,1-0.3,1.6-0.3c1.1,0,1.9,0.3,2.5,0.9s0.8,1.4,0.8,2.4v4.9h-1.2
			l-0.1-1.4c-0.2,0.5-0.5,0.8-1,1.1C77.8,137.8,77.2,138,76.5,138z M76.7,136.8c0.5,0,1-0.1,1.3-0.4c0.4-0.3,0.7-0.6,0.8-1
			s0.3-0.9,0.3-1.3l0,0h-2c-0.8,0-1.4,0.1-1.7,0.4c-0.3,0.3-0.5,0.6-0.5,1s0.2,0.8,0.5,1C75.7,136.7,76.1,136.8,76.7,136.8z"/>
		<path class="st2" d="M86.2,138c-0.8,0-1.4-0.2-2-0.5s-1.1-0.8-1.4-1.5c-0.3-0.6-0.5-1.4-0.5-2.2c0-0.8,0.2-1.6,0.5-2.2
			s0.8-1.1,1.4-1.5s1.3-0.5,2-0.5c0.9,0,1.7,0.2,2.4,0.7s1.1,1.2,1.2,2h-1.4c-0.1-0.5-0.4-0.9-0.8-1.1c-0.4-0.3-0.9-0.4-1.5-0.4
			c-0.4,0-0.9,0.1-1.3,0.3c-0.4,0.2-0.7,0.6-1,1s-0.4,1-0.4,1.7s0.1,1.2,0.4,1.7c0.2,0.5,0.6,0.8,1,1s0.8,0.3,1.3,0.3
			c0.6,0,1-0.1,1.5-0.4c0.4-0.3,0.7-0.7,0.8-1.2h1.4c-0.2,0.8-0.6,1.5-1.2,2C87.9,137.7,87.1,138,86.2,138z"/>
		<path class="st2" d="M91.6,137.8v-11.5h1.3v4.9c0.3-0.5,0.7-0.9,1.1-1.1c0.5-0.3,1-0.4,1.6-0.4c0.9,0,1.7,0.3,2.2,0.9
			c0.6,0.6,0.8,1.5,0.8,2.6v4.6h-1.3v-4.5c0-1.7-0.7-2.5-2-2.5c-0.7,0-1.3,0.2-1.7,0.7c-0.5,0.5-0.7,1.2-0.7,2.1v4.1L91.6,137.8
			L91.6,137.8z"/>
		<path class="st2" d="M106.6,137.8l-2.3-7.9h1.3l1.7,6.2l1.9-6.2h1.5l1.9,6.2l1.7-6.2h1.4l-2.3,7.9h-1.5l-1.9-6.5l-1.9,6.5H106.6z"
			/>
		<path class="st2" d="M120.4,138c-0.8,0-1.4-0.2-2-0.5s-1.1-0.8-1.4-1.4s-0.5-1.4-0.5-2.2c0-0.8,0.2-1.6,0.5-2.2s0.8-1.1,1.4-1.5
			s1.3-0.5,2.1-0.5c0.8,0,1.4,0.2,2,0.5s1,0.8,1.3,1.4s0.4,1.2,0.4,1.8c0,0.1,0,0.2,0,0.3s0,0.2,0,0.4h-6.3c0,0.6,0.2,1.1,0.4,1.5
			c0.2,0.4,0.6,0.7,0.9,0.9s0.8,0.3,1.2,0.3c0.5,0,1-0.1,1.4-0.4s0.6-0.6,0.8-1h1.3c-0.2,0.7-0.6,1.4-1.2,1.8
			C122.1,137.7,121.3,138,120.4,138z M120.4,130.8c-0.6,0-1.2,0.2-1.7,0.6s-0.8,1-0.9,1.7h5c0-0.7-0.3-1.3-0.7-1.7
			C121.6,131,121,130.8,120.4,130.8z"/>
		<path class="st2" d="M129.5,138c-0.8,0-1.4-0.2-2-0.5c-0.6-0.3-1-0.8-1.4-1.4c-0.3-0.6-0.5-1.4-0.5-2.2c0-0.8,0.2-1.6,0.5-2.2
			s0.8-1.1,1.4-1.5c0.6-0.4,1.3-0.5,2.1-0.5s1.4,0.2,2,0.5s1,0.8,1.3,1.4s0.4,1.2,0.4,1.8c0,0.1,0,0.2,0,0.3c0,0.1,0,0.2,0,0.4h-6.4
			c0,0.6,0.2,1.1,0.4,1.5c0.2,0.4,0.6,0.7,0.9,0.9c0.4,0.2,0.8,0.3,1.2,0.3c0.6,0,1-0.1,1.4-0.4c0.4-0.2,0.7-0.6,0.8-1h1.3
			c-0.2,0.7-0.6,1.4-1.2,1.8C131.2,137.7,130.4,138,129.5,138z M129.5,130.8c-0.6,0-1.2,0.2-1.7,0.6c-0.5,0.4-0.8,1-0.9,1.7h5
			c0-0.7-0.3-1.3-0.7-1.7C130.7,131,130.1,130.8,129.5,130.8z"/>
		<path class="st2" d="M135,137.8v-11.5h1.3v6.9l3.2-3.3h1.6l-3.5,3.6l4,4.3h-1.7l-3.6-4.1v4.1H135z"/>
		<path class="st2" d="M150.2,138c-0.9,0-1.7-0.3-2.2-0.9s-0.8-1.5-0.8-2.6v-4.6h1.3v4.5c0,1.7,0.7,2.5,2,2.5c0.7,0,1.3-0.2,1.7-0.7
			s0.7-1.2,0.7-2.1V130h1.3v7.9H153l-0.1-1.5c-0.2,0.5-0.6,0.9-1.1,1.2C151.3,137.8,150.8,138,150.2,138z"/>
		<path class="st2" d="M156.5,137.8v-7.9h1.2l0.1,1.4c0.3-0.5,0.6-0.9,1.1-1.2c0.5-0.3,1-0.4,1.6-0.4c0.9,0,1.7,0.3,2.2,0.9
			c0.6,0.6,0.8,1.5,0.8,2.6v4.6h-1.3v-4.5c0-1.7-0.7-2.5-2.1-2.5c-0.7,0-1.2,0.2-1.7,0.7c-0.4,0.5-0.7,1.2-0.7,2.1v4.1L156.5,137.8
			L156.5,137.8z"/>
		<path class="st2" d="M168.7,137.8c-0.7,0-1.3-0.2-1.7-0.5c-0.4-0.4-0.6-1-0.6-1.9V131H165v-1.1h1.4l0.2-1.9h1.2v1.9h2.3v1.1h-2.3
			v4.4c0,0.5,0.1,0.8,0.3,1s0.6,0.3,1.1,0.3h0.8v1.2h-1.3V137.8z"/>
		<path class="st2" d="M172.6,128.1c-0.3,0-0.5-0.1-0.7-0.3c-0.2-0.2-0.3-0.4-0.3-0.7s0.1-0.5,0.3-0.6c0.2-0.2,0.4-0.3,0.7-0.3
			s0.5,0.1,0.7,0.3c0.2,0.2,0.3,0.4,0.3,0.6c0,0.3-0.1,0.5-0.3,0.7C173.1,128,172.9,128.1,172.6,128.1z M171.9,137.8v-7.9h1.3v7.9
			H171.9z"/>
		<path class="st2" d="M175.6,137.8v-11.5h1.3v11.5H175.6z"/>
		<path class="st2" d="M184.3,141.3l2-4.3h-0.5l-3.2-7.2h1.5l2.6,6.2l2.8-6.2h1.4l-5.2,11.5H184.3z"/>
		<path class="st2" d="M195.2,138c-0.8,0-1.4-0.2-2-0.5s-1.1-0.8-1.4-1.5c-0.4-0.6-0.5-1.4-0.5-2.2c0-0.8,0.2-1.6,0.5-2.2
			c0.4-0.6,0.8-1.1,1.4-1.5c0.6-0.3,1.3-0.5,2-0.5s1.4,0.2,2,0.5s1.1,0.8,1.4,1.5c0.4,0.6,0.5,1.4,0.5,2.2c0,0.8-0.2,1.6-0.5,2.2
			s-0.8,1.1-1.4,1.5C196.6,137.8,195.9,138,195.2,138z M195.2,136.8c0.5,0,0.9-0.1,1.3-0.3s0.7-0.6,1-1s0.4-1,0.4-1.7
			s-0.1-1.2-0.4-1.7c-0.2-0.5-0.6-0.8-0.9-1c-0.4-0.2-0.8-0.3-1.3-0.3s-0.9,0.1-1.3,0.3c-0.4,0.2-0.7,0.6-1,1s-0.4,1-0.4,1.7
			s0.1,1.2,0.4,1.7c0.2,0.5,0.6,0.8,0.9,1C194.3,136.7,194.7,136.8,195.2,136.8z"/>
		<path class="st2" d="M203.9,138c-0.9,0-1.7-0.3-2.2-0.9s-0.8-1.5-0.8-2.6v-4.6h1.3v4.5c0,1.7,0.7,2.5,2,2.5c0.7,0,1.3-0.2,1.7-0.7
			c0.5-0.5,0.7-1.2,0.7-2.1V130h1.3v7.9h-1.2l-0.1-1.4c-0.2,0.5-0.6,0.9-1.1,1.2C205,137.8,204.5,138,203.9,138z"/>
		<path class="st2" d="M214.4,137.8v-7.9h1.2l0.1,1.5c0.2-0.5,0.6-0.9,1.1-1.2s1.1-0.5,1.9-0.5v1.4h-0.4c-0.5,0-0.9,0.1-1.3,0.2
			c-0.4,0.2-0.7,0.4-0.9,0.8s-0.4,0.9-0.4,1.6v4h-1.3V137.8z"/>
		<path class="st2" d="M223.5,138c-0.8,0-1.4-0.2-2-0.5s-1.1-0.8-1.4-1.4c-0.3-0.6-0.5-1.4-0.5-2.2c0-0.8,0.2-1.6,0.5-2.2
			s0.8-1.1,1.4-1.5c0.6-0.4,1.3-0.5,2.1-0.5s1.4,0.2,2,0.5s1,0.8,1.3,1.4s0.4,1.2,0.4,1.8c0,0.1,0,0.2,0,0.3c0,0.1,0,0.2,0,0.4h-6.4
			c0,0.6,0.2,1.1,0.4,1.5s0.6,0.7,0.9,0.9c0.4,0.2,0.8,0.3,1.2,0.3c0.6,0,1-0.1,1.4-0.4c0.4-0.2,0.7-0.6,0.8-1h1.3
			c-0.2,0.7-0.6,1.4-1.2,1.8C225.2,137.7,224.4,138,223.5,138z M223.5,130.8c-0.6,0-1.2,0.2-1.7,0.6s-0.8,1-0.9,1.7h5
			c0-0.7-0.3-1.3-0.7-1.7C224.7,131,224.2,130.8,223.5,130.8z"/>
		<path class="st2" d="M231.7,138c-0.7,0-1.2-0.1-1.7-0.3c-0.4-0.2-0.8-0.5-1-0.9s-0.3-0.8-0.3-1.2c0-0.8,0.3-1.4,0.9-1.9
			s1.5-0.7,2.5-0.7h2.1v-0.1c0-0.7-0.2-1.2-0.5-1.6s-0.9-0.5-1.5-0.5c-0.5,0-1,0.1-1.3,0.4c-0.4,0.3-0.6,0.6-0.7,1.1h-1.3
			c0.1-0.6,0.2-1.1,0.6-1.5c0.3-0.4,0.8-0.7,1.3-0.9c0.5-0.2,1-0.3,1.6-0.3c1.1,0,1.9,0.3,2.5,0.9s0.8,1.4,0.8,2.4v4.9h-1.2
			l-0.1-1.4c-0.2,0.5-0.6,0.8-1,1.1C233,137.8,232.4,138,231.7,138z M231.9,136.8c0.5,0,0.9-0.1,1.3-0.4c0.4-0.3,0.7-0.6,0.8-1
			s0.3-0.9,0.3-1.3l0,0h-2c-0.8,0-1.4,0.1-1.7,0.4s-0.5,0.6-0.5,1s0.2,0.8,0.5,1C230.9,136.7,231.3,136.8,231.9,136.8z"/>
		<path class="st2" d="M241.3,138c-0.8,0-1.4-0.2-2-0.5s-1.1-0.8-1.4-1.5c-0.4-0.6-0.5-1.4-0.5-2.2c0-0.8,0.2-1.6,0.5-2.2
			c0.4-0.6,0.8-1.1,1.4-1.5c0.6-0.4,1.3-0.5,2-0.5c0.9,0,1.7,0.2,2.4,0.7s1,1.2,1.2,2h-1.4c-0.1-0.5-0.4-0.9-0.8-1.1
			s-0.9-0.4-1.5-0.4c-0.5,0-0.9,0.1-1.3,0.3c-0.4,0.2-0.7,0.6-1,1s-0.4,1-0.4,1.7s0.1,1.2,0.4,1.7c0.2,0.5,0.6,0.8,1,1
			s0.8,0.3,1.3,0.3s1-0.1,1.5-0.4c0.4-0.3,0.7-0.7,0.8-1.2h1.4c-0.2,0.8-0.6,1.5-1.2,2S242.3,138,241.3,138z"/>
		<path class="st2" d="M246.8,137.8v-11.5h1.3v4.9c0.3-0.5,0.7-0.9,1.1-1.1c0.5-0.3,1-0.4,1.6-0.4c0.9,0,1.6,0.3,2.2,0.9
			c0.5,0.6,0.8,1.5,0.8,2.6v4.6h-1.3v-4.5c0-1.7-0.7-2.5-2-2.5c-0.7,0-1.3,0.2-1.7,0.7c-0.5,0.5-0.7,1.2-0.7,2.1v4.1L246.8,137.8
			L246.8,137.8z"/>
		<path class="st2" d="M147.2,28.7l4.1-11.2h1.4l4.1,11.2h-1.4l-1-2.9h-4.8l-1,2.9H147.2z M150,24.8h4l-2-5.5L150,24.8z"/>
		<path class="st2" d="M159.3,19c-0.3,0-0.5-0.1-0.7-0.3c-0.2-0.2-0.3-0.4-0.3-0.7c0-0.3,0.1-0.5,0.3-0.6c0.2-0.2,0.4-0.3,0.7-0.3
			s0.5,0.1,0.7,0.3c0.2,0.2,0.3,0.4,0.3,0.6c0,0.3-0.1,0.5-0.3,0.7C159.7,18.9,159.5,19,159.3,19z M158.6,28.7v-7.9h1.3v7.9H158.6z"
			/>
		<path class="st2" d="M162.3,28.7v-7.9h1.2l0.1,1.1c0.3-0.4,0.6-0.8,1-1s0.9-0.4,1.4-0.4c0.6,0,1.2,0.1,1.6,0.4s0.8,0.6,1.1,1.2
			c0.3-0.5,0.7-0.9,1.1-1.1c0.5-0.3,1-0.4,1.6-0.4c1,0,1.7,0.3,2.3,0.9s0.9,1.4,0.9,2.6v4.6h-1.3v-4.5c0-0.8-0.2-1.4-0.5-1.9
			c-0.3-0.4-0.8-0.6-1.4-0.6c-0.6,0-1.2,0.2-1.6,0.7c-0.4,0.5-0.6,1.2-0.6,2.1v4.1h-1.3v-4.5c0-0.8-0.2-1.4-0.5-1.9
			c-0.3-0.4-0.8-0.6-1.4-0.6c-0.6,0-1.2,0.2-1.6,0.7c-0.4,0.5-0.6,1.2-0.6,2.1v4.1L162.3,28.7L162.3,28.7z"/>
		<path class="st2" d="M184,28.7c-0.7,0-1.3-0.2-1.7-0.5c-0.4-0.4-0.6-1-0.6-1.9v-4.4h-1.4v-1.1h1.4l0.2-1.9h1.2v1.9h2.3v1.1h-2.3
			v4.4c0,0.5,0.1,0.8,0.3,1s0.6,0.3,1.1,0.3h0.8v1.1H184z"/>
		<path class="st2" d="M190.4,28.9c-0.8,0-1.4-0.2-2-0.5s-1.1-0.8-1.4-1.5c-0.4-0.6-0.5-1.4-0.5-2.2s0.2-1.6,0.5-2.2
			s0.8-1.1,1.4-1.4c0.6-0.3,1.3-0.5,2-0.5s1.4,0.2,2,0.5s1.1,0.8,1.4,1.4s0.5,1.4,0.5,2.2s-0.2,1.6-0.5,2.2
			c-0.4,0.6-0.8,1.1-1.4,1.5C191.8,28.7,191.2,28.9,190.4,28.9z M190.4,27.8c0.5,0,0.9-0.1,1.3-0.3c0.4-0.2,0.7-0.6,1-1
			c0.2-0.5,0.4-1,0.4-1.7s-0.1-1.2-0.4-1.7c-0.2-0.5-0.6-0.8-0.9-1c-0.4-0.2-0.8-0.3-1.3-0.3s-0.9,0.1-1.3,0.3c-0.4,0.2-0.7,0.6-1,1
			s-0.4,1-0.4,1.7s0.1,1.2,0.4,1.7c0.2,0.4,0.6,0.8,0.9,1C189.5,27.6,190,27.8,190.4,27.8z"/>
		<path class="st3" d="M149.5,38.1c0.4-0.4,0.8-0.6,1.4-0.6c0.6,0,1,0.2,1.4,0.6l0.6,0.6l0.3,10.3c0.1,5.7,0.2,9,0.2,9.8
			c0,0.5,0,0.8,0,1.1c0,0.3,0,0.5-0.1,0.7c0,0.2-0.1,0.3-0.1,0.4c-0.1,0.1-0.1,0.2-0.1,0.2s-0.1,0.1-0.2,0.1s-0.2,0.1-0.2,0.1
			c-0.3,0.2-0.6,0.3-0.8,0.3c-0.1,0-0.4-0.1-0.9-0.2c-0.7-0.3-1.1-0.6-1.2-0.8c-0.1-0.1-0.2-3.8-0.3-11s-0.1-10.8-0.2-10.9
			C149,38.7,149.2,38.4,149.5,38.1z"/>
		<path class="st3" d="M159.2,36.8c0.5-0.2,0.9-0.3,1.4-0.3c0.9,0,1.5,0.6,1.8,1.7c0.2,0.9,0.6,1.8,1.1,2.8s0.8,1.8,1,2.4
			c0.3,1,0.6,1.6,0.8,1.9c0.1,0.1,0.2,0.2,0.2,0.2c0.1,0,0.2-0.7,0.4-2c0.1-1.2,0.1-2,0.1-2.5v-0.6c0-0.2-0.1-0.6-0.1-0.9
			c0-0.8,0.2-1.4,0.6-1.8c0.4-0.5,0.9-0.7,1.7-0.7c0.6,0,1,0.1,1.3,0.5c0.3,0.2,0.4,0.6,0.4,1.1c0,0.6,0,1.1-0.1,1.6
			s-0.1,4.2-0.2,11.1c0,4.3-0.1,6.9-0.1,7.8s-0.1,1.4-0.4,1.6c-0.3,0.3-0.8,0.5-1.5,0.5c-1.3,0-2.1-0.6-2.3-1.9
			c-0.1-0.5-0.4-1.4-0.9-2.7c-0.5-1.2-0.8-2.3-0.9-3.2c-0.2-1.2-0.7-2.9-1.3-5c-0.1-0.2-0.1-0.3-0.1-0.3c-0.1,0-0.2,1.3-0.2,3.8v2.2
			v2.4c0,2.5-0.1,3.9-0.2,4.2c-0.3,0.9-1,1.3-1.9,1.3c-0.6,0-1-0.2-1.4-0.6c-0.3-0.3-0.4-0.6-0.4-0.9c0-0.1,0-0.3,0.1-0.8
			c0.1-1,0.2-4.7,0.2-11c0-7,0.1-10.8,0.2-11.2c0.1-0.3,0.2-0.4,0.5-0.5C159,36.8,159.1,36.8,159.2,36.8z"/>
		<path class="st3" d="M177.7,39.6c0.6-0.6,1-0.9,1.2-1s0.6-0.2,1.1-0.2c1.4,0,2.1,0.5,2.1,1.4c0,0.8-0.6,1.5-1.8,2.2
			c-0.8,0.4-1.4,2-1.8,4.6c-0.2,1.2-0.3,2.4-0.3,3.7c0,1.3,0.1,2.6,0.2,4c0.2,1.7,0.4,2.9,0.7,3.6s0.8,1.1,1.6,1.2
			c1.2,0.2,1.9,0.6,2.1,1.1c0,0.1,0.1,0.1,0.1,0.2c0,0.3-0.2,0.6-0.5,0.9s-0.8,0.5-1.2,0.6c-0.1,0-0.3,0-0.5,0
			c-1.1,0-2.2-0.3-3.1-0.8c-0.3-0.2-0.7-0.8-1.2-1.7c-0.5-0.9-0.8-1.8-1.1-2.6c-0.3-1.2-0.5-3.4-0.5-6.6c0-1.2,0.1-2.4,0.2-3.5
			c0.2-1.9,0.6-3.3,1-4.3C176.2,41.5,176.8,40.5,177.7,39.6z"/>
		<path class="st3" d="M188.9,37.1c0.5-0.2,1.2-0.3,2.1-0.3c0.9,0,1.6,0.1,2,0.3c0.8,0.3,1.4,0.9,1.8,1.8c0.2,0.4,0.4,1.2,0.5,2.4
			c0.2,1.2,0.2,2.2,0.2,3.1c0,0.4,0,0.7-0.1,0.9c-0.1,0.8-0.3,1.6-0.6,2.6s-0.6,1.4-0.7,1.4c-0.2,0-0.4,0.2-0.4,0.6
			c0,0.3,0.1,0.6,0.3,1c0.5,0.7,1.2,2,2.1,3.9c0.9,1.9,1.4,3.1,1.5,3.6c0,0.2,0.1,0.4,0.1,0.6c0,0.4-0.1,0.8-0.3,1
			c-0.2,0.4-0.5,0.6-0.9,0.6c-0.3,0-0.6,0-0.8-0.1c-0.8-0.1-1.2-0.2-1.4-0.3c-0.2-0.1-0.3-0.4-0.3-0.7c0-0.6-0.3-1.5-0.9-2.8
			c-0.6-1.2-1.1-1.9-1.4-1.9h-0.1c-0.1,0.1-0.1,0.4-0.1,1c0,0.9,0.1,1.9,0.3,3c0.1,0.5,0.1,0.8,0.1,1c0,1-0.2,1.7-0.7,1.9
			c-0.2,0.1-0.4,0.1-0.8,0.1c-1,0-1.6-0.2-1.8-0.7c-0.1-0.2-0.3-2.3-0.4-6.2c0-1.2-0.1-2.6-0.1-4s0-2.5,0-3.1c0-0.7,0-1.5-0.1-2.6
			c-0.1-1-0.2-2.2-0.3-3.5c-0.1-1.5-0.2-2.3-0.2-2.6c0-0.7,0.1-1.2,0.3-1.5C188,37.4,188.3,37.2,188.9,37.1z M191.8,40.4
			c-0.1-0.2-0.3-0.4-0.5-0.4s-0.3,0.1-0.5,0.3c-0.1,0.2-0.1,0.4,0,0.5c0,0,0.1,1,0.2,3s0.2,2.9,0.3,3s0.2-0.1,0.5-0.4
			c0.2-0.3,0.3-0.8,0.3-1.5c0-0.6,0-1.1-0.1-1.5C192,41.8,191.9,40.8,191.8,40.4z"/>
		<path class="st3" d="M204.4,38c0.4-0.1,0.9-0.1,1.5-0.1c1.7,0,2.7,0.2,3.1,0.5c0.3,0.3,0.5,0.6,0.5,1s-0.2,0.7-0.5,1
			s-0.7,0.4-1.2,0.4s-0.8,0.1-0.9,0.3c-0.1,0.2-0.2,0.8-0.2,1.6c0,0.2,0,1,0.1,2.3c0.1,1.5,0.1,2.5,0.2,2.9s0.2,0.7,0.3,0.7
			c0,0,0.2,0,0.6,0c0.4,0,0.7,0,0.9,0c0.7,0,1.3,0.2,1.6,0.5c0.2,0.2,0.3,0.4,0.3,0.6c0,0.5-0.7,0.9-2,1.4c-0.8,0.3-1.2,0.5-1.4,0.6
			s-0.3,0.5-0.3,1c-0.1,0.5-0.1,0.9-0.1,1.3c0,1.5,0.1,2.7,0.4,3.4c0.1,0.3,0.3,0.5,0.4,0.6c0.1,0.1,0.5,0.1,1,0.1
			c0.6,0,1.2,0.2,1.7,0.4c0.5,0.3,0.7,0.6,0.7,1c0,0.3-0.2,0.6-0.7,1.1c-0.7,0.7-1.9,1-3.7,1s-2.9-0.4-3.5-1.1
			c-0.3-0.4-0.5-3-0.6-7.8c-0.1-6-0.1-9.5-0.2-10.6l-0.1-3.4l0.6-0.4C203.6,38.3,204,38.1,204.4,38z"/>
		<path class="st3" d="M219.6,38.2c0.8-0.8,2-1.2,3.6-1.2c0.7,0,1.3,0.1,1.7,0.4c0.6,0.3,1.1,1.2,1.4,2.6c0.2,1.2,0.5,3.1,0.8,5.9
			s0.5,4.9,0.6,6.4c0,1.4,0.1,3,0.3,4.8s0.3,2.8,0.4,2.9c0,0,0.1,0.1,0.1,0.2c0,0.3-0.1,0.6-0.4,1c-0.2,0.4-0.5,0.6-0.7,0.7
			c-0.1,0-0.2,0-0.4,0c-0.5,0-1-0.1-1.5-0.3c-0.5-0.2-0.9-0.4-1-0.7c-0.1-0.2-0.3-1.1-0.4-2.5c-0.2-1.4-0.2-2.6-0.2-3.5
			c0-0.8-0.1-1.3-0.3-1.4c-0.1-0.1-0.8-0.1-2.1-0.1c-1,0-1.6,0-1.6,0.1s-0.1,0.3-0.1,0.5c0,0.6,0.1,1.5,0.1,2.5
			c0.1,1.2,0.1,2.2,0.1,2.9v0.4c0,0.2-0.2,0.4-0.7,0.6c-0.4,0.2-0.8,0.2-1.2,0.2c-0.2,0-0.3,0-0.4-0.1c-1-0.3-1.6-0.7-1.7-1.3
			c0,0,0-0.1,0-0.2s0-0.2,0-0.3c0-1.3,0.1-4,0.5-8.2c0.3-4.2,0.5-6.6,0.7-7.3c0.2-0.8,0.5-1.8,1.1-2.9
			C218.7,39.3,219.1,38.6,219.6,38.2z M222.7,42.9c-0.2-0.9-0.4-1.3-0.6-1.3c-0.2,0-0.5,0.3-0.7,1c-0.6,1.2-0.9,2.9-1.1,5
			c-0.1,0.9-0.1,1.4-0.1,1.5c0,0.4,0.1,0.7,0.2,0.8c0.1,0.1,0.6,0.2,1.2,0.2c0.9,0,1.4-0.1,1.5-0.3c0.1-0.1,0.1-0.5,0.1-1.2
			C223.2,46.5,223,44.6,222.7,42.9z"/>
		<path class="st3" d="M236.5,37.4c0.4-0.2,0.8-0.3,1.3-0.3c0.3,0,0.6,0,0.8,0c0.9,0.1,1.5,0.2,1.8,0.4c0.3,0.2,0.6,0.5,0.9,0.9
			c0.3,0.5,0.5,1,0.5,1.5s-0.2,1-0.6,1.4c-0.4,0.4-0.7,0.6-1.1,0.6c-0.4,0-0.8-0.3-1.1-0.8c-0.3-0.4-0.6-0.6-0.9-0.6
			c-0.3,0-0.5,0.2-0.8,0.6s-0.4,0.8-0.5,1.3v0.2c0,1.7,1.3,4.8,3.8,9.3c0.4,0.7,0.8,2.1,1.2,4c0,0.1,0,0.3,0,0.6c0,1.7-0.4,3-1,3.9
			c-0.3,0.4-0.8,0.8-1.5,1.1c-0.7,0.3-1.3,0.5-1.9,0.5c-0.1,0-0.1,0-0.2,0c-0.1,0-0.1,0-0.2,0c-0.7-0.1-1.5-0.7-2.5-1.6
			s-1.5-1.7-1.5-2.2c0-0.2,0.2-0.5,0.5-0.9c0.3-0.3,0.7-0.5,1-0.6c0.1,0,0.2,0,0.3,0c0.3,0,0.9,0.5,1.6,1.5c0.3,0.4,0.6,0.6,0.9,0.6
			c0.3,0,0.5-0.2,0.7-0.5c0.1-0.1,0.1-0.3,0.1-0.7c0-1.8-0.8-4.3-2.4-7.7c-1.5-3.2-2.2-5.5-2.2-7c0-0.7,0.1-1.3,0.4-1.9
			c0.5-1.2,0.9-2,1.1-2.4C235.4,38.1,235.9,37.7,236.5,37.4z"/>
		<path class="st3" d="M248.4,38c0.4-0.1,0.8-0.1,1.5-0.1c1.7,0,2.7,0.2,3.1,0.5c0.3,0.3,0.5,0.6,0.5,1s-0.1,0.7-0.5,1
			c-0.3,0.3-0.7,0.4-1.2,0.4s-0.8,0.1-0.9,0.3c-0.1,0.2-0.2,0.8-0.2,1.6c0,0.2,0,1,0.1,2.3c0.1,1.5,0.1,2.5,0.2,2.9
			c0.1,0.4,0.2,0.7,0.3,0.7c0,0,0.2,0,0.6,0c0.4,0,0.7,0,0.9,0c0.7,0,1.3,0.2,1.6,0.5c0.2,0.2,0.3,0.4,0.3,0.6c0,0.5-0.7,0.9-2,1.4
			c-0.8,0.3-1.2,0.5-1.4,0.6s-0.3,0.5-0.3,1c-0.1,0.5-0.1,0.9-0.1,1.3c0,1.5,0.1,2.7,0.4,3.4c0.1,0.3,0.3,0.5,0.4,0.6
			c0.1,0.1,0.5,0.1,1,0.1c0.6,0,1.2,0.2,1.6,0.4c0.5,0.3,0.7,0.6,0.7,1c0,0.3-0.2,0.6-0.7,1.1c-0.7,0.7-2,1-3.7,1
			c-1.8,0-2.9-0.4-3.5-1.1c-0.3-0.4-0.5-3-0.5-7.8c-0.1-6-0.1-9.5-0.2-10.6l-0.1-3.4l0.6-0.4C247.6,38.3,248,38.1,248.4,38z"/>
		<path class="st3" d="M151.5,69.1c0.5-0.2,0.9-0.3,1.2-0.3c0.5,0,0.9,0.2,1.2,0.6c0.4,0.4,0.6,1.2,0.6,2.3c0.1,2.1,0.5,4,1.2,5.8
			c0.2,0.5,0.3,1,0.3,1.3c0,0.1,0,0.2,0.1,0.3c0.1,0.1,0.1,0.1,0.2,0c0.2-0.1,0.3-0.6,0.3-1.4s0.1-1.3,0.1-1.4
			c0.1-0.1,0.1-1,0.2-2.9c0.1-1.8,0.1-3,0.1-3.5c0-0.2,0.4-0.5,1-0.7c0.6-0.3,1.2-0.4,1.6-0.4c0.7,0,1.2,0.2,1.5,0.7
			c0.3,0.4,0.4,0.8,0.4,1.1c0,0.4-0.1,2-0.4,4.8c-0.1,0.5-0.2,2.2-0.4,4.9c-0.1,2-0.6,4.5-1.3,7.3c-0.4,1.5-0.7,2.6-1.1,3.4
			c-0.4,0.8-0.9,1.6-1.6,2.3c-0.4,0.4-0.7,0.6-0.9,0.6s-0.4,0.2-0.6,0.5c-0.2,0.3-0.5,0.6-1.1,0.8c-0.6,0.2-1.2,0.3-1.8,0.3
			c-0.5,0-1.1-0.2-1.7-0.5c-0.7-0.3-1-0.6-1-0.9s0.2-0.7,0.5-1.1c0.4-0.4,0.8-0.7,1.3-1c0.9-0.4,1.6-1,2.2-1.8
			c0.5-0.8,1-1.9,1.5-3.3c0.5-1.6,0.8-2.6,0.8-3c0-0.3-0.2-0.6-0.7-0.8c-1.3-0.6-2.2-1.2-2.6-2c-0.2-0.4-0.7-2.4-1.4-5.9
			c-0.4-1.7-0.6-3-0.6-4C150.3,70.2,150.7,69.4,151.5,69.1z"/>
		<path class="st3" d="M167.3,71.6l0.8-1h5.7l0.9,0.9c0.6,0.6,1,1.3,1.2,2.2s0.4,2.3,0.6,4.1c0.1,0.7,0.1,1.7,0.1,3.1
			c0,3.1-0.3,5.9-0.9,8.5c-0.6,2.5-1.3,4.3-2.3,5.2c-0.3,0.3-0.8,0.6-1.3,0.8c-0.6,0.2-1.1,0.3-1.5,0.3c-0.2,0-0.3,0-0.5-0.1
			c-0.2-0.2-0.6-0.2-1-0.2c-0.3,0-0.7-0.2-1-0.8c-0.4-0.5-0.7-1.1-1-1.8c-0.4-1.2-0.7-2.5-0.9-3.9c-0.1-1.4-0.2-3.7-0.2-6.8V80
			c0-2.9,0.1-4.8,0.2-5.8C166.4,73.1,166.8,72.2,167.3,71.6z M171.6,73.8c-0.3-0.6-0.5-0.9-0.7-0.9s-0.5,0.5-0.8,1.4
			c-0.2,0.7-0.4,2.1-0.4,4.2c0,1.6,0.1,3.4,0.2,5.2c0.1,1.7,0.3,3.4,0.6,4.9s0.5,2.3,0.7,2.3c0.1,0,0.3-0.3,0.4-1
			c0.2-0.5,0.3-1,0.5-1.4c0.1-0.2,0.2-1.5,0.4-4c0.1-1.3,0.1-2.5,0.1-3.6C172.7,77.6,172.3,75.2,171.6,73.8z"/>
		<path class="st3" d="M181.8,70.2c0.4-0.3,0.8-0.4,1.4-0.4c0.7,0,1.2,0.2,1.6,0.5l0.6,0.5l0.1,5.6c0.1,6.5,0.3,10.9,0.6,13.3
			c0.1,0.5,0.2,0.7,0.3,0.7c0.3,0,0.5-0.9,0.7-2.8c0.4-3.9,0.6-7.8,0.6-11.6v-1v-0.6c0-2.1,0.2-3.3,0.7-3.6c0.1-0.1,0.5-0.2,0.9-0.2
			c0.8,0,1.4,0.1,1.8,0.5c0.5,0.5,0.7,1.7,0.7,3.7c0,1.7-0.1,4.8-0.4,9.4c-0.2,3.8-0.6,6.5-1.2,8.1c-0.6,1.6-1.6,2.6-2.9,3
			c-0.6,0.2-0.9,0.3-1.1,0.3c-0.2,0-0.7-0.2-1.5-0.5c-1.7-0.8-2.6-2-2.8-3.8c-0.2-1.5-0.4-6.4-0.5-14.7c0-1.2-0.1-2.5-0.1-4
			c0-0.9,0-1.5,0.1-1.8C181.5,70.5,181.6,70.3,181.8,70.2z"/>
		<path class="st3" d="M197.8,70.8c0.6-0.2,1.2-0.3,2.1-0.3c0.9,0,1.6,0.1,2,0.3c0.8,0.3,1.4,1,1.8,1.8c0.2,0.4,0.4,1.2,0.5,2.3
			s0.2,2.2,0.2,3.1c0,0.4,0,0.7-0.1,0.9c-0.1,0.8-0.3,1.6-0.6,2.6c-0.3,0.9-0.6,1.4-0.7,1.4c-0.2,0-0.4,0.2-0.4,0.6
			c0,0.3,0.1,0.6,0.3,1c0.5,0.7,1.2,2,2.1,3.9c0.9,1.9,1.4,3.1,1.5,3.6c0,0.2,0.1,0.4,0.1,0.6c0,0.4-0.1,0.8-0.3,1
			c-0.2,0.4-0.5,0.5-0.9,0.5c-0.3,0-0.6,0-0.8,0c-0.8-0.1-1.2-0.2-1.4-0.3c-0.2-0.1-0.3-0.4-0.3-0.7c0-0.6-0.3-1.5-0.9-2.8
			c-0.6-1.2-1.1-1.9-1.4-1.9h-0.1c-0.1,0.1-0.1,0.4-0.1,1c0,0.9,0.1,1.9,0.3,3c0.1,0.5,0.1,0.8,0.1,1c0,1-0.2,1.7-0.7,1.9
			c-0.2,0.1-0.4,0.1-0.8,0.1c-1,0-1.6-0.2-1.8-0.7c-0.1-0.2-0.3-2.3-0.4-6.2c0-1.2-0.1-2.6-0.1-4s-0.1-2.5-0.1-3.1
			c0-0.7,0-1.5-0.1-2.6c-0.1-1-0.2-2.2-0.3-3.5c-0.1-1.5-0.2-2.3-0.2-2.6c0-0.7,0.1-1.2,0.3-1.5C196.9,71.1,197.3,70.9,197.8,70.8z
			 M200.7,74.2c-0.1-0.2-0.3-0.4-0.5-0.4s-0.3,0.1-0.5,0.3c-0.1,0.2-0.1,0.4,0,0.5c0,0,0.1,1,0.2,3s0.2,2.9,0.3,3s0.2-0.1,0.5-0.4
			c0.2-0.3,0.3-0.8,0.3-1.5c0-0.6,0-1.1-0.1-1.5C200.9,75.5,200.8,74.5,200.7,74.2z"/>
		<path class="st3" d="M224.4,71.1c0.4-0.2,0.8-0.3,1.3-0.3c0.3,0,0.6,0,0.8,0c0.9,0.1,1.5,0.2,1.8,0.4c0.3,0.1,0.6,0.5,0.9,0.9
			c0.3,0.5,0.5,1,0.5,1.5s-0.2,1-0.6,1.4c-0.4,0.4-0.7,0.5-1.1,0.5c-0.4,0-0.8-0.3-1.1-0.8c-0.3-0.4-0.6-0.6-0.9-0.6
			c-0.3,0-0.5,0.2-0.8,0.6s-0.4,0.8-0.5,1.3v0.2c0,1.7,1.3,4.8,3.8,9.3c0.4,0.7,0.8,2.1,1.2,4c0,0.1,0.1,0.3,0.1,0.6
			c0,1.7-0.4,3-1.1,3.9c-0.3,0.4-0.8,0.8-1.5,1c-0.7,0.3-1.3,0.5-1.9,0.5c-0.1,0-0.1,0-0.2,0c-0.1,0-0.1,0-0.2,0
			c-0.7-0.1-1.6-0.6-2.5-1.6c-1-0.9-1.5-1.7-1.5-2.2c0-0.2,0.2-0.5,0.5-0.8s0.7-0.5,1-0.6c0.1,0,0.2,0,0.3,0c0.3,0,0.9,0.5,1.6,1.5
			c0.3,0.4,0.6,0.6,0.9,0.6c0.3,0,0.5-0.2,0.7-0.5c0.1-0.1,0.1-0.4,0.1-0.7c0-1.8-0.8-4.3-2.4-7.7c-1.5-3.2-2.2-5.5-2.2-7
			c0-0.7,0.1-1.3,0.4-1.9c0.5-1.2,0.9-2,1.1-2.3C223.3,71.8,223.7,71.4,224.4,71.1z"/>
		<path class="st3" d="M235.3,70.4c0.4-0.4,1.1-0.5,2.1-0.5h1c1.7,0.1,2.6,0.1,3,0.2c0.2,0.1,0.6,0.1,1.3,0.2c0.7,0,1.2,0.2,1.5,0.4
			c0.3,0.2,0.5,0.6,0.5,1.2s-0.1,1-0.4,1.2c-0.2,0.2-0.6,0.4-1.1,0.5c-0.6,0.1-1,0.2-1.1,0.3c-0.1,0.1-0.2,3.1-0.2,8.7
			c0,3.9,0.1,6.7,0.1,8.3c0.1,1.3,0.1,2,0.1,2.1c0,0.6-0.1,1.2-0.4,1.7c-0.3,0.6-0.9,0.9-1.5,0.9c-0.5,0-0.9-0.1-1.4-0.4l-0.9-0.5
			l0.1-10.4c0.1-2.7,0.1-5.4,0.1-8c0-1.6-0.1-2.5-0.4-2.7c-0.4-0.2-0.6-0.3-0.7-0.2c-0.1,0-0.3,0-0.5,0c-0.5,0-1-0.2-1.4-0.5
			s-0.5-0.7-0.5-1.1C234.6,71.3,234.8,70.8,235.3,70.4z"/>
		<path class="st3" d="M251.4,71.7c0.4-0.1,0.9-0.1,1.5-0.1c1.7,0,2.7,0.2,3.2,0.5c0.3,0.3,0.5,0.6,0.5,1s-0.1,0.7-0.5,1
			c-0.3,0.3-0.7,0.4-1.2,0.4s-0.8,0.1-0.9,0.3c-0.1,0.2-0.2,0.8-0.2,1.6c0,0.2,0,1,0.1,2.3c0.1,1.5,0.1,2.5,0.2,2.9
			c0.1,0.4,0.2,0.7,0.3,0.7c0,0,0.2,0,0.6,0c0.4,0,0.7,0,0.9,0c0.7,0,1.3,0.2,1.6,0.6c0.2,0.2,0.3,0.4,0.3,0.6c0,0.5-0.7,0.9-2,1.4
			c-0.8,0.3-1.2,0.5-1.4,0.6c-0.1,0.1-0.3,0.5-0.3,1c-0.1,0.5-0.1,0.9-0.1,1.3c0,1.5,0.1,2.7,0.4,3.4c0.1,0.3,0.3,0.5,0.4,0.6
			c0.1,0.1,0.5,0.1,1,0.1c0.6,0,1.2,0.1,1.6,0.4c0.5,0.3,0.7,0.6,0.7,1c0,0.3-0.2,0.6-0.7,1.1c-0.7,0.7-1.9,1-3.7,1
			s-2.9-0.4-3.5-1.1c-0.3-0.4-0.5-3-0.6-7.8c-0.1-6-0.1-9.5-0.2-10.6l-0.1-3.4l0.6-0.4C250.6,72,251,71.8,251.4,71.7z"/>
		<path class="st3" d="M263.9,70c0.3-0.2,1-0.2,2.2-0.2c1.5,0,2.4,0.1,2.7,0.3c0.5,0.3,1,0.7,1.6,1.3c0.6,0.6,1,1.1,1.2,1.6
			c0.4,0.7,0.6,2.3,0.7,4.9c0.1,1.5,0.1,2.4,0.1,2.6c0,1-0.1,1.9-0.4,2.7c-0.3,1-0.7,1.7-1.1,2.2s-1.1,0.9-1.8,1.1l-1.3,0.5v3.8
			c0,2.2-0.1,3.6-0.2,4.1c-0.2,0.5-0.6,0.7-1.4,0.7c-0.6,0-1.2-0.2-1.6-0.5l-0.7-0.6v-3.3v-0.8c0-2.6-0.1-5.9-0.2-9.8
			c-0.2-3.9-0.3-6.3-0.5-7.3c-0.1-0.7-0.1-1.2-0.1-1.6C262.9,70.9,263.3,70.3,263.9,70z M268,74.3c-0.3-0.7-0.6-1-0.7-1
			s-0.1,0-0.2,0.1c0,1-0.1,2.2-0.1,3.5c0,4.3,0.2,6.5,0.6,6.5c0.1,0,0.3-0.3,0.6-0.9c0.2-0.5,0.4-1.2,0.4-2c0-0.2,0-0.9-0.1-2.1
			C268.4,76.2,268.2,74.9,268,74.3z"/>
		<path class="st3" d="M280.6,71.1c0.4-0.2,0.8-0.3,1.3-0.3c0.3,0,0.6,0,0.8,0c0.9,0.1,1.5,0.2,1.8,0.4c0.3,0.1,0.6,0.5,0.9,0.9
			c0.3,0.5,0.5,1,0.5,1.5s-0.2,1-0.6,1.4s-0.7,0.5-1.1,0.5s-0.8-0.3-1.1-0.8c-0.3-0.4-0.6-0.6-0.9-0.6s-0.5,0.2-0.8,0.6
			s-0.4,0.8-0.5,1.3v0.2c0,1.7,1.3,4.8,3.8,9.3c0.4,0.7,0.8,2.1,1.2,4c0,0.1,0,0.3,0,0.6c0,1.7-0.4,3-1,3.9c-0.3,0.4-0.8,0.8-1.5,1
			c-0.7,0.3-1.3,0.5-1.8,0.5c-0.1,0-0.1,0-0.2,0s-0.1,0-0.2,0c-0.7-0.1-1.5-0.6-2.5-1.6c-1-0.9-1.5-1.7-1.5-2.2
			c0-0.2,0.2-0.5,0.5-0.8s0.7-0.5,1-0.6c0.1,0,0.2,0,0.3,0c0.3,0,0.9,0.5,1.6,1.5c0.3,0.4,0.6,0.6,0.9,0.6s0.5-0.2,0.7-0.5
			c0.1-0.1,0.1-0.4,0.1-0.7c0-1.8-0.8-4.3-2.4-7.7c-1.5-3.2-2.2-5.5-2.2-7c0-0.7,0.1-1.3,0.4-1.9c0.5-1.2,0.9-2,1.1-2.3
			C279.5,71.8,280,71.4,280.6,71.1z"/>
		<path class="st3" d="M292.4,88.4c0.2-0.2,0.5-0.3,0.8-0.3c0.2,0,0.4,0,0.6,0c0.8,0.1,1.2,0.2,1.3,0.3c0.1,0.1,0.2,0.3,0.2,0.7
			c0,0.8-0.3,2-1,3.5c0,0.1-0.1,0.3-0.2,0.6c-0.1,0.3-0.2,0.5-0.3,0.7c-0.4,1.2-1,1.7-1.7,1.7h-0.2c-0.5-0.1-0.9-0.4-1.1-1
			c-0.1-0.4-0.2-0.7-0.2-0.9c0-0.2,0.1-0.9,0.4-2.1C291.4,90,291.9,88.9,292.4,88.4z"/>
		<path class="st2" d="M38.2,195.5c-1,0-1.7-0.2-2.4-0.7c-0.6-0.5-1-1.1-1.1-2h1.4c0.1,0.4,0.3,0.8,0.7,1.1s0.8,0.5,1.5,0.5
			c0.6,0,1-0.1,1.2-0.4s0.4-0.5,0.4-0.9c0-0.5-0.2-0.8-0.5-1c-0.4-0.2-0.8-0.3-1.5-0.4c-0.4-0.1-0.9-0.2-1.3-0.4s-0.8-0.4-1.1-0.7
			s-0.4-0.7-0.4-1.2c0-0.7,0.3-1.3,0.8-1.7s1.2-0.7,2.1-0.7c0.8,0,1.5,0.2,2.1,0.6s0.8,1,0.9,1.8h-1.3c0-0.4-0.2-0.7-0.5-0.9
			s-0.7-0.3-1.2-0.3s-0.8,0.1-1.1,0.3s-0.4,0.5-0.4,0.8s0.2,0.6,0.5,0.8s0.8,0.3,1.4,0.5c0.5,0.1,1,0.2,1.4,0.4
			c0.4,0.1,0.8,0.4,1.1,0.7s0.4,0.7,0.4,1.3c0,0.7-0.3,1.3-0.8,1.8C39.9,195.3,39.1,195.5,38.2,195.5z"/>
		<path class="st2" d="M46,195.3c-0.7,0-1.3-0.2-1.7-0.5s-0.6-1-0.6-1.9v-4.4h-1.4v-1.1h1.4l0.2-1.9h1.2v1.9h2.3v1.1h-2.3v4.4
			c0,0.5,0.1,0.8,0.3,1s0.6,0.3,1.1,0.3h0.8v1.1L46,195.3L46,195.3z"/>
		<path class="st2" d="M52.3,195.5c-0.8,0-1.4-0.2-2-0.5c-0.6-0.4-1.1-0.8-1.4-1.5c-0.3-0.6-0.5-1.4-0.5-2.2s0.2-1.6,0.5-2.2
			c0.3-0.6,0.8-1.1,1.4-1.5c0.6-0.3,1.3-0.5,2.1-0.5s1.4,0.2,2,0.5s1,0.8,1.3,1.4c0.3,0.6,0.5,1.2,0.5,1.8c0,0.1,0,0.2,0,0.3
			s0,0.2,0,0.4h-6.3c0,0.6,0.2,1.1,0.4,1.5s0.6,0.7,0.9,0.9c0.4,0.2,0.8,0.3,1.2,0.3c0.6,0,1-0.1,1.4-0.4c0.4-0.2,0.7-0.6,0.8-1h1.3
			c-0.2,0.7-0.6,1.4-1.2,1.8C54.1,195.3,53.3,195.5,52.3,195.5z M52.3,188.3c-0.6,0-1.2,0.2-1.7,0.6c-0.5,0.4-0.8,1-0.9,1.7h5
			c0-0.7-0.3-1.3-0.7-1.7C53.6,188.5,53,188.3,52.3,188.3z"/>
		<path class="st2" d="M57.9,198.8v-11.4h1.2l0.1,1.3c0.3-0.4,0.6-0.7,1.1-1s1.1-0.5,1.8-0.5c0.8,0,1.5,0.2,2.1,0.5
			c0.6,0.4,1,0.9,1.4,1.5s0.5,1.3,0.5,2.1s-0.2,1.5-0.5,2.1s-0.8,1.1-1.4,1.5s-1.3,0.5-2.1,0.5c-0.7,0-1.2-0.1-1.7-0.4
			c-0.5-0.3-0.9-0.6-1.2-1.1v4.8h-1.3V198.8z M62,194.3c0.5,0,1-0.1,1.4-0.4c0.4-0.2,0.7-0.6,1-1c0.2-0.5,0.4-1,0.4-1.6
			s-0.1-1.1-0.4-1.6c-0.2-0.5-0.5-0.8-1-1c-0.4-0.2-0.9-0.4-1.4-0.4s-1,0.1-1.4,0.4c-0.4,0.2-0.7,0.6-1,1c-0.2,0.5-0.3,1-0.3,1.6
			s0.1,1.1,0.3,1.6s0.6,0.8,1,1C61,194.2,61.4,194.3,62,194.3z"/>
		<path class="st2" d="M71,195.5c-0.9,0-1.7-0.2-2.4-0.7c-0.6-0.5-1-1.1-1.1-2h1.4c0.1,0.4,0.3,0.8,0.7,1.1c0.4,0.3,0.8,0.5,1.4,0.5
			s1-0.1,1.2-0.4c0.3-0.2,0.4-0.5,0.4-0.9c0-0.5-0.2-0.8-0.5-1s-0.8-0.3-1.5-0.4c-0.4-0.1-0.8-0.2-1.3-0.4s-0.8-0.4-1.1-0.7
			c-0.3-0.3-0.4-0.7-0.4-1.2c0-0.7,0.3-1.3,0.8-1.7s1.2-0.7,2.1-0.7c0.8,0,1.5,0.2,2.1,0.6s0.8,1,0.9,1.8h-1.3
			c-0.1-0.4-0.2-0.7-0.5-0.9s-0.7-0.3-1.2-0.3s-0.8,0.1-1.1,0.3c-0.3,0.2-0.4,0.5-0.4,0.8s0.2,0.6,0.5,0.8s0.8,0.3,1.4,0.5
			c0.5,0.1,1,0.2,1.4,0.4c0.4,0.1,0.8,0.4,1.1,0.7c0.3,0.3,0.4,0.7,0.4,1.3c0,0.7-0.3,1.3-0.8,1.8C72.7,195.3,71.9,195.5,71,195.5z"
			/>
		<path class="st2" d="M75.3,196.8l4-13.7h1.3l-4,13.7H75.3z"/>
		<path class="st2" d="M85,195.5c-0.8,0-1.5-0.2-2.1-0.5c-0.6-0.4-1-0.9-1.4-1.5s-0.5-1.3-0.5-2.1s0.2-1.5,0.5-2.1s0.8-1.1,1.4-1.5
			s1.3-0.5,2.1-0.5c0.7,0,1.2,0.1,1.7,0.4s0.9,0.6,1.2,1.1v-4.9h1.3v11.5H88l-0.1-1.3c-0.3,0.4-0.6,0.7-1.1,1
			C86.4,195.4,85.8,195.5,85,195.5z M85.2,194.3c0.5,0,1-0.1,1.4-0.4c0.4-0.2,0.7-0.6,1-1c0.2-0.5,0.3-1,0.3-1.6s-0.1-1.1-0.3-1.6
			c-0.2-0.5-0.6-0.8-1-1s-0.9-0.4-1.4-0.4s-1,0.1-1.4,0.4c-0.4,0.2-0.7,0.6-1,1c-0.2,0.5-0.3,1-0.3,1.6s0.1,1.1,0.3,1.6
			c0.2,0.5,0.6,0.8,1,1C84.2,194.2,84.7,194.3,85.2,194.3z"/>
		<path class="st2" d="M94.1,195.5c-0.7,0-1.2-0.1-1.7-0.3c-0.4-0.2-0.8-0.5-1-0.9s-0.3-0.8-0.3-1.2c0-0.8,0.3-1.4,0.9-1.9
			c0.6-0.4,1.5-0.7,2.5-0.7h2.1v-0.1c0-0.7-0.2-1.2-0.5-1.6s-0.8-0.5-1.5-0.5c-0.5,0-1,0.1-1.4,0.4c-0.4,0.3-0.6,0.6-0.7,1.1h-1.4
			c0.1-0.6,0.2-1.1,0.6-1.5c0.3-0.4,0.8-0.7,1.3-0.9s1-0.3,1.6-0.3c1.1,0,1.9,0.3,2.5,0.9c0.6,0.6,0.8,1.4,0.8,2.4v4.9h-1l-0.1-1.4
			c-0.2,0.5-0.6,0.8-1,1.1C95.4,195.4,94.8,195.5,94.1,195.5z M94.3,194.4c0.5,0,0.9-0.1,1.3-0.4s0.7-0.6,0.8-1
			c0.2-0.4,0.3-0.9,0.3-1.3l0,0h-2c-0.8,0-1.3,0.1-1.7,0.4c-0.3,0.3-0.5,0.6-0.5,1s0.1,0.8,0.5,1C93.3,194.2,93.8,194.4,94.3,194.4z
			"/>
		<path class="st2" d="M100.8,198.8l2-4.3h-0.5l-3.2-7.2h1.5l2.6,6.2l2.8-6.2h1.4l-5.2,11.5H100.8z"/>
		<path class="st2" d="M108.1,195.4c-0.3,0-0.5-0.1-0.7-0.3s-0.3-0.4-0.3-0.6s0.1-0.5,0.3-0.7s0.4-0.3,0.7-0.3s0.5,0.1,0.6,0.3
			c0.2,0.2,0.3,0.4,0.3,0.7s-0.1,0.5-0.3,0.6C108.6,195.3,108.4,195.4,108.1,195.4z"/>
		<path class="st4" d="M34.8,152.7c0.5-0.4,1-0.5,1.5-0.5c0.4,0,0.7,0.1,0.9,0.4c0.2,0.2,0.3,0.7,0.3,1.5s0.1,2.7,0.1,5.7
			c0,1.9,0,3.3,0,4.3s0,1.7,0,2.1c0,0.4,0.1,1.1,0.1,2.1c0.1,1,0.1,2,0.2,3.1l0.1,3.4l-0.9,0.6c-0.5,0.3-0.9,0.5-1.2,0.5
			c-0.4,0-0.8-0.2-1.3-0.6l-0.6-0.5l-0.1-7.6c-0.1-3.4-0.1-6.6-0.1-9.6v-1.2v-3.1L34.8,152.7z"/>
		<path class="st4" d="M44.4,152.5l0.7-0.8h5.4l0.9,0.9c0.6,0.6,1,1.2,1.2,1.8c0.2,0.8,0.4,2.5,0.4,5.1c0,1.8-0.1,3.3-0.2,4.4
			c0,0.4-0.1,0.9-0.1,1.4s-0.1,1-0.1,1.4s-0.1,0.7-0.1,0.8c-0.2,1.3-0.6,3.1-1.4,5.3c-0.2,0.5-0.6,1.2-1.2,1.9
			c-0.6,0.7-1,1.2-1.3,1.3c-0.5,0.2-1,0.2-1.7,0.2c-0.5,0-1,0-1.5-0.1c-0.9-0.2-1.6-1.2-2.1-2.9s-0.7-4.2-0.7-7.5v-1.8
			c0-4,0.2-6.5,0.4-7.5c0.1-0.4,0.1-0.8,0.2-1.3c0.1-0.5,0.2-0.8,0.2-1c0.1-0.2,0.1-0.4,0.3-0.6C43.9,153.1,44.1,152.8,44.4,152.5z
			 M49,156.8c-0.4-1.7-0.8-2.6-1.2-2.6c-0.1,0-0.2,0.1-0.3,0.1c-0.4,0.4-0.6,1.1-0.8,2c-0.1,0.9-0.2,2.5-0.2,4.7v1.5
			c0,6.1,0.3,9.2,0.8,9.2c0.2,0,0.4-0.5,0.8-1.4c0.8-2.2,1.2-5.4,1.2-9.7C49.3,159.1,49.2,157.8,49,156.8z"/>
		<path class="st4" d="M59.5,171.9c0.2-0.2,0.5-0.3,0.8-0.3c0.2,0,0.4,0,0.6,0c0.8,0.1,1.2,0.2,1.3,0.3c0.2,0.1,0.2,0.3,0.2,0.7
			c0,0.8-0.3,2-1,3.5c0,0.1-0.1,0.3-0.2,0.6s-0.2,0.5-0.3,0.7c-0.4,1.2-1,1.7-1.7,1.7H59c-0.5-0.1-0.8-0.4-1.1-1
			c-0.2-0.4-0.2-0.7-0.2-0.9s0.1-0.9,0.4-2.1C58.5,173.5,59,172.4,59.5,171.9z"/>
		<path class="st4" d="M68.7,152.5l0.7-0.8h5.4l0.9,0.9c0.6,0.6,1,1.2,1.2,1.8c0.2,0.8,0.4,2.5,0.4,5.1c0,1.8-0.1,3.3-0.2,4.4
			c0,0.4-0.1,0.9-0.1,1.4s-0.1,1-0.1,1.4s-0.1,0.7-0.1,0.8c-0.2,1.3-0.6,3.1-1.4,5.3c-0.2,0.5-0.6,1.2-1.2,1.9s-1,1.2-1.3,1.3
			c-0.5,0.2-1,0.2-1.7,0.2c-0.5,0-1,0-1.5-0.1c-0.9-0.2-1.6-1.2-2.1-2.9s-0.7-4.2-0.7-7.5v-1.8c0-4,0.2-6.5,0.4-7.5
			c0.1-0.4,0.1-0.8,0.2-1.3s0.2-0.8,0.2-1c0.1-0.2,0.1-0.4,0.3-0.6C68.2,153.1,68.5,152.8,68.7,152.5z M73.3,156.8
			c-0.4-1.7-0.8-2.6-1.2-2.6c-0.1,0-0.2,0.1-0.3,0.1c-0.4,0.4-0.6,1.1-0.8,2c-0.1,0.9-0.2,2.5-0.2,4.7v1.5c0,6.1,0.3,9.2,0.8,9.2
			c0.2,0,0.4-0.5,0.8-1.4c0.8-2.2,1.2-5.4,1.2-9.7C73.6,159.1,73.5,157.8,73.3,156.8z"/>
		<path class="st4" d="M83.7,152.5l0.7-0.8h5.4l0.9,0.9c0.6,0.6,1,1.2,1.2,1.8c0.2,0.8,0.4,2.5,0.4,5.1c0,1.8-0.1,3.3-0.2,4.4
			c0,0.4-0.1,0.9-0.1,1.4s-0.1,1-0.1,1.4s-0.1,0.7-0.1,0.8c-0.2,1.3-0.6,3.1-1.4,5.3c-0.2,0.5-0.6,1.2-1.2,1.9s-1,1.2-1.3,1.3
			c-0.5,0.2-1,0.2-1.7,0.2c-0.5,0-1,0-1.5-0.1c-0.9-0.2-1.6-1.2-2.1-2.9s-0.7-4.2-0.7-7.5v-1.8c0-4,0.2-6.5,0.4-7.5
			c0.1-0.4,0.1-0.8,0.2-1.3s0.2-0.8,0.2-1c0.1-0.2,0.1-0.4,0.3-0.6C83.2,153.1,83.4,152.8,83.7,152.5z M88.3,156.8
			c-0.4-1.7-0.8-2.6-1.2-2.6c-0.1,0-0.2,0.1-0.3,0.1c-0.4,0.4-0.6,1.1-0.8,2c-0.1,0.9-0.2,2.5-0.2,4.7v1.5c0,6.1,0.3,9.2,0.8,9.2
			c0.2,0,0.4-0.5,0.8-1.4c0.8-2.2,1.2-5.4,1.2-9.7C88.6,159.1,88.5,157.8,88.3,156.8z"/>
		<path class="st4" d="M98.7,152.5l0.7-0.8h5.4l0.9,0.9c0.6,0.6,1,1.2,1.2,1.8c0.2,0.8,0.4,2.5,0.4,5.1c0,1.8-0.1,3.3-0.2,4.4
			c0,0.4-0.1,0.9-0.1,1.4c-0.1,0.5-0.1,1-0.1,1.4c-0.1,0.4-0.1,0.7-0.1,0.8c-0.1,1.3-0.6,3.1-1.4,5.3c-0.2,0.5-0.6,1.2-1.2,1.9
			s-1,1.2-1.4,1.3c-0.5,0.2-1,0.2-1.7,0.2c-0.5,0-1,0-1.5-0.1c-0.9-0.2-1.6-1.2-2.1-2.9s-0.7-4.2-0.7-7.5v-1.8c0-4,0.2-6.5,0.4-7.5
			c0.1-0.4,0.1-0.8,0.2-1.3s0.2-0.8,0.2-1c0.1-0.2,0.1-0.4,0.3-0.6C98.2,153.1,98.4,152.8,98.7,152.5z M103.3,156.8
			c-0.4-1.7-0.8-2.6-1.2-2.6c-0.1,0-0.2,0.1-0.3,0.1c-0.4,0.4-0.6,1.1-0.8,2c-0.1,0.9-0.2,2.5-0.2,4.7v1.5c0,6.1,0.3,9.2,0.8,9.2
			c0.2,0,0.4-0.5,0.8-1.4c0.8-2.2,1.2-5.4,1.2-9.7C103.6,159.1,103.5,157.8,103.3,156.8z"/>
		<path class="st0" d="M282.4,191.6c0.4,1.8-1.9,2.8-8.2,3.1c-6.3,0.2-16.6,0.3-17-1.5c-0.1-0.5,0-1.4,0.5-1.8
			c1.4-1.2,7.8-2.3,12.6-2.5C276.5,188.6,281.9,189.8,282.4,191.6z"/>
		<path class="st0" d="M254.8,192.5c0.2,1,1,1.8-1.4,1.9l-4.7,0.2c-2.4,0.1-4.6-0.6-4.8-1.6s1.5-1.9,3.9-2l4.7-0.2
			C254.9,190.6,254.5,191.5,254.8,192.5z"/>
		<path class="st0" d="M162.1,181c0.4,1.8-1.9,2.8-8.2,3.1c-6.3,0.2-16.6,0.3-17-1.6c-0.1-0.4,0-1.4,0.5-1.8
			c1.4-1.2,7.9-2.3,12.6-2.5C156.2,177.9,161.7,179.2,162.1,181z"/>
		<path class="st0" d="M134.5,181.8c0.2,1,1,1.8-1.4,1.9l-4.7,0.2c-2.4,0.1-4.6-0.6-4.8-1.6c-0.2-1,1.5-1.9,3.9-2l4.7-0.2
			C134.7,180,134.3,180.8,134.5,181.8z"/>
		<path class="st0" d="M199.7,192.4c0.4,1.8-1.9,2.8-8.2,3.1c-6.3,0.2-16.6,0.3-17-1.6c-0.1-0.4,0-1.4,0.5-1.8
			c1.4-1.2,7.8-2.3,12.6-2.5C193.8,189.3,199.2,190.6,199.7,192.4z"/>
		<path class="st0" d="M172.1,193.2c0.2,1,1,1.8-1.4,1.9l-4.7,0.2c-2.4,0.1-4.6-0.6-4.8-1.6s1.5-1.9,3.9-2l4.7-0.2
			C172.2,191.4,171.8,192.2,172.1,193.2z"/>
		<path class="st5" d="M290,178.4c-1.4-1-3.1-1.6-4.7-2.2c-1.6-0.6-3.2-1.1-4.2-1.7c-0.5-0.3-0.8-0.5-1-0.7
			c-0.1-0.2-0.1-0.1-0.1-0.1c0-0.1,0-0.2,0-0.4l-2.7-14.6c-0.1-0.7-0.8-1.3-1.5-1.3l-6.5-0.2c-1.4,0-2.5-1-3.5-2.6s-1.8-3.8-2.2-5.6
			c-0.2-0.6-0.7-1.2-1.5-1.2c-0.5,0-0.9,0.2-1.2,0.4l-15.6,14.5c-0.3,0.3-0.5,0.7-0.5,1.1c0,0.4,0.1,0.9,0.4,1.2l19.7,20.1l0,0
			c4.8,4.6,8.5,6.1,12.2,6.2l13.5,0.5c0.9,0,1.6-0.7,1.7-1.6l0.3-7.5C292.7,180.9,291.4,179.4,290,178.4z"/>
		<path class="st6" d="M287,188.9c-2.7-0.1-5.5-0.4-8.1-1.2c-2.4-0.7-4.8-1.9-6.8-3.4c-2.1-1.6-3.9-3.5-5.6-5.5
			c-1.9-2.1-3.7-4.4-5.7-6.5c-1.7-1.9-3.6-3.6-5.4-5.4c-2.4-2.2-4.9-4.5-7-7.1l-3.1,2.8c-0.3,0.3-0.5,0.7-0.5,1.1
			c0,0.4,0.1,0.9,0.4,1.2l19.7,20.1l0,0c4.8,4.6,8.5,6.1,12.2,6.2l13.5,0.5c0.9,0,1.7-0.7,1.7-1.6v-1.2
			C290.6,189.1,288.8,189,287,188.9z"/>
		<path class="st7" d="M252.7,165.6c-3.5-0.2-9.7,3.8-12.9,3.7l-13.7-5.8c-2-1.1-4.6,4.9-5.7,5.8c-12.5,6.3-14.6-12.5-9,20.6
			c2.2-0.2,4.4-0.4,6.6-0.6c7-0.7,49.4-14.9,41.8-12.3C261.2,176.5,260.6,165.4,252.7,165.6z"/>
		<path class="st8" d="M211.1,188.2c-0.2,0,0.3,4.9,1.2,5.6c15.4-2.6,32.1-6.8,47.4-11.9c1.2-0.3,1.9-1.4,1.7-2.6
			c-0.3-1.7-0.8-4.9-1.2-4.3C259.1,176.8,223.8,185.7,211.1,188.2z"/>
		<path class="st0" d="M84.7,93.9c22.5,0,40.8-2.8,40.8-6.2c0-3.4-18.3-6.1-40.8-6.1s-40.8,2.8-40.8,6.1
			C43.9,91.1,62.2,93.9,84.7,93.9z"/>
		<path class="st4" d="M89.7,38.4c0.7,0.8,0.7,2.1,0,2.9c-0.6,0.6-1.5,0.9-3,0.2c-4.8-2.1-18.1-11.2-9.7-17.2c3.7-2.6,6.2,2.2,8,6.5
			C86.4,34.3,88.6,37.1,89.7,38.4z"/>
		<path class="st9" d="M133.7,37.7c0,0-14.9,2.1-19.1-7.5C114.6,30.2,124,26.6,133.7,37.7z"/>
		<path class="st10" d="M131.2,29.2c0,0-7.4,7.9-19.2,2C112,31.2,114.3,27.2,131.2,29.2z"/>
		<path class="st11" d="M107.1,60.1c-8.1-3.3-16.5-6.2-24.2-10.5c-1.2-0.6-2.3-1.3-3.5-2c0.8-1.4,1.2-4,2.5-7.8
			c7.8-23.8,26.4-18.1,33.6-10.6c3.7,3.8,11.2,17.4-3,33.1C110.7,61.6,108.9,60.8,107.1,60.1z"/>
		<path d="M91.3,40.3c0.3-0.5,1.2,0,1.8,0L92.9,41c-0.1,0.2,0,0.5,0.2,0.6l0.7,0.3c0.2,0.1,0.5,0,0.6-0.3l0.2-0.7
			c0.4,0.4,1.7,0.9,1.5,1.4c-0.2,0.6-1.6,1.9-3.3,1.3C91.1,42.8,91,40.9,91.3,40.3z"/>
		<path class="st1" d="M93.7,41.8L93,41.5c-0.2-0.1-0.3-0.3-0.2-0.6l0.2-0.7c0.2,0,0.5,0,0.7,0.1c0.3,0.1,0.5,0.3,0.7,0.5l-0.2,0.7
			C94.2,41.7,94,41.9,93.7,41.8z"/>
		<path class="st9" d="M111.7,18.2c0,0,1,2.3-0.9,4.4C110.8,22.6,110.2,21.7,111.7,18.2z"/>
		<path class="st9" d="M114.2,23.8c0,0-2.9,2.7-5.3-0.2C108.9,23.5,110.4,22.5,114.2,23.8z"/>
		<path class="st12" d="M107,25.6c0.1-0.3,3.3-4.3,8.5-4.2"/>
		<path class="st13" d="M116.8,20.2c0,0-0.1-3.9-1.6-3.8S115.8,20.4,116.8,20.2z"/>
		<path class="st13" d="M116.8,20.1c0,0-2.5-3.3-3.2-1.8C112.9,19.7,116.4,21.2,116.8,20.1z"/>
		<path class="st13" d="M117.1,20.8c0,0-3.2-2.2-3.4-0.5C113.5,22.1,117.1,22,117.1,20.8z"/>
		<path class="st13" d="M117.5,20.9c0,0,2.1-3.5,0.4-3.5C116.2,17.3,116.3,21,117.5,20.9z"/>
		<path class="st13" d="M116.9,21c0,0,2.8,2.8,3.2,1.1C120.6,20.4,117.2,19.8,116.9,21z"/>
		<path class="st13" d="M116.9,21.4c0,0,3.1-0.7,2.4-1.8C118.5,18.4,116.3,20.7,116.9,21.4z"/>
		<path class="st13" d="M117.1,21.2c0,0,3.3,1.6,2.7,3.1C119.1,25.7,116.5,22.1,117.1,21.2z"/>
		<path class="st13" d="M117.3,21c0,0,1.9,3.7,0.3,3.9C116.1,25,116.2,20.9,117.3,21z"/>
		<path class="st13" d="M117.3,20.7c0,0-0.9,4-2.1,2.8C114,22.4,116.5,19.8,117.3,20.7z"/>
		<path class="st7" d="M118.2,22.7c0.4-0.3,0.3-1.3-0.4-2.4c-0.6-1.1-1.5-1.7-2-1.4c-0.4,0.3-0.3,1.4,0.4,2.4
			C116.9,22.3,117.7,23,118.2,22.7z"/>
		<path d="M101.9,40.1c0.3-0.8-0.1-1.6-0.8-1.8c-0.7-0.3-1.5,0.2-1.8,0.9c-0.3,0.8,0.1,1.6,0.8,1.8
			C100.8,41.3,101.7,40.9,101.9,40.1z"/>
		<path d="M91.7,36.2c0.3-0.8-0.1-1.6-0.8-1.8c-0.7-0.3-1.5,0.2-1.8,0.9c-0.3,0.8,0.1,1.6,0.8,1.8C90.6,37.3,91.4,36.9,91.7,36.2z"
			/>
		<path class="st1" d="M112,37.8c0,0-3.3,5.5-0.4,6.1C112.9,44.2,115.9,41.6,112,37.8z"/>
		<path class="st7" d="M49.5,42.7c5.3,0.2,14,7.1,18.8,7.4c3.2,0.2,11.3-9.9,11.3-9.9c3.2-1.4,4.1,6.9,11.7,12.6
			c12.5,7.9,27-1.5,26.8,7.9c-0.1,4-4.6,10.6-10.2,24.6c-3.3-0.7-6.6-1.2-9.8-1.9c-10.3-2.2-71.8-29.7-60.7-24.7
			C35.1,57.7,37.7,41.2,49.5,42.7z"/>
		<path class="st14" d="M109.8,86.3c-1.4,1.9-3.2,4.2-4.1,4.8c-22.6-6.2-47-14.9-69.3-24.9c-1.7-0.6-2.7-2.4-2.2-4.2
			c0.7-2.5,1.9-7.2,2.4-6.3c1.4,2.6,58.5,22.5,72,27.2C110.2,83.3,110.7,85,109.8,86.3z"/>
		<path class="st4" d="M114,63.8c-0.3,1.3-0.6,2.6-0.8,3.9c-0.7,0.9-1.9,1.6-3.7,2c-4.5,0.8-5.1-4.5-5.3-9c-0.2-3.7-1.2-7.1-1.8-8.7
			c-0.4-1,0-2.1,1-2.5c0.8-0.3,1.8-0.2,3,1.1C108.7,52.9,113.3,59.1,114,63.8z"/>
	</g>
</g>
</svg>
