<?xml version="1.0" encoding="utf-8"?>
<!-- Generator: Adobe Illustrator 25.1.0, SVG Export Plug-In . SVG Version: 6.00 Build 0)  -->
<svg version="1.1" id="Layer_1" xmlns="http://www.w3.org/2000/svg" xmlns:xlink="http://www.w3.org/1999/xlink" x="0px" y="0px"
	 viewBox="0 0 331 209.5" style="enable-background:new 0 0 331 209.5;" xml:space="preserve">
<style type="text/css">
	.st0{fill:#FFFFFF;}
	.st1{fill:#808080;}
	.st2{fill:#FF9F1A;}
	.st3{fill:#844F37;}
	.st4{fill:#D8B693;}
</style>
<g>
	<g>
		<path class="st0" d="M330.9,148.3c0-142,4.7-144.7-41.6-147.9c-28.2-1.9-146.5,3.5-181.2,4.1C74,5,7.3-1.5,5.1,38.5
			c-1.2,22.2-4.6,44.9-4.6,83.6c0,60.8-6.6,75.4,28.4,83.1c35.6,7.8,166.3,2.9,209.3,2C282.6,206.1,330.9,210.3,330.9,148.3z"/>
		<path class="st1" d="M167.1,39.6V28.4h3.9c0.8,0,1.4,0.1,2,0.4s0.9,0.6,1.2,1s0.4,0.9,0.4,1.5c0,0.7-0.2,1.3-0.6,1.7
			c-0.4,0.4-0.9,0.7-1.4,0.9c0.4,0.1,0.8,0.2,1.1,0.5s0.6,0.6,0.8,1s0.3,0.8,0.3,1.3c0,0.6-0.1,1.1-0.4,1.5s-0.7,0.8-1.2,1.1
			c-0.5,0.3-1.2,0.4-2,0.4L167.1,39.6L167.1,39.6z M168.4,33.3h2.5c0.7,0,1.3-0.2,1.7-0.5s0.6-0.8,0.6-1.4c0-0.6-0.2-1-0.6-1.4
			c-0.4-0.3-0.9-0.5-1.7-0.5h-2.4L168.4,33.3L168.4,33.3z M168.4,38.5h2.6c0.8,0,1.4-0.2,1.8-0.5c0.4-0.4,0.6-0.9,0.6-1.5
			s-0.2-1.1-0.7-1.5s-1-0.6-1.8-0.6h-2.5L168.4,38.5L168.4,38.5z"/>
		<path class="st1" d="M180.2,39.8c-0.8,0-1.4-0.2-2-0.5s-1.1-0.8-1.4-1.5c-0.3-0.6-0.5-1.4-0.5-2.2c0-0.8,0.2-1.6,0.5-2.2
			s0.8-1.1,1.4-1.5c0.6-0.4,1.3-0.5,2.1-0.5s1.4,0.2,2,0.5c0.6,0.3,1,0.8,1.3,1.4s0.5,1.2,0.5,1.8c0,0.1,0,0.2,0,0.3
			c0,0.1,0,0.2,0,0.4h-6.3c0,0.6,0.2,1.1,0.4,1.5s0.6,0.7,0.9,0.9c0.4,0.2,0.8,0.3,1.2,0.3c0.6,0,1-0.1,1.4-0.4s0.6-0.6,0.8-1h1.3
			c-0.2,0.7-0.6,1.4-1.2,1.8C181.9,39.6,181.2,39.8,180.2,39.8z M180.2,32.6c-0.6,0-1.2,0.2-1.7,0.6s-0.8,1-0.9,1.7h5
			c0-0.7-0.3-1.3-0.7-1.7C181.5,32.8,180.9,32.6,180.2,32.6z"/>
		<path class="st1" d="M186.6,29.9c-0.3,0-0.5-0.1-0.7-0.3c-0.2-0.2-0.3-0.4-0.3-0.7s0.1-0.5,0.3-0.6c0.2-0.2,0.4-0.3,0.7-0.3
			s0.5,0.1,0.7,0.3c0.2,0.2,0.3,0.4,0.3,0.6c0,0.3-0.1,0.5-0.3,0.7C187,29.8,186.8,29.9,186.6,29.9z M185.9,39.6v-7.9h1.3v7.9H185.9
			z"/>
		<path class="st1" d="M189.6,39.6v-7.9h1.2l0.1,1.4c0.3-0.5,0.6-0.9,1.1-1.2c0.5-0.3,1-0.4,1.6-0.4c0.9,0,1.7,0.3,2.2,0.9
			c0.5,0.6,0.8,1.5,0.8,2.6v4.6h-1.3v-4.5c0-1.6-0.7-2.5-2.1-2.5c-0.7,0-1.2,0.2-1.7,0.7c-0.4,0.5-0.7,1.2-0.7,2.1v4.1L189.6,39.6
			L189.6,39.6z"/>
		<path class="st1" d="M201.9,37.1c-0.4,0-0.9-0.1-1.2-0.2l-0.8,0.8c0.1,0.1,0.3,0.2,0.4,0.2c0.2,0.1,0.4,0.1,0.8,0.2
			c0.3,0,0.8,0.1,1.4,0.1c1.1,0.1,1.8,0.3,2.3,0.7c0.5,0.4,0.7,1,0.7,1.6c0,0.5-0.1,0.9-0.4,1.3c-0.2,0.4-0.6,0.8-1.1,1
			c-0.5,0.3-1.2,0.4-2,0.4c-0.7,0-1.4-0.1-1.9-0.3c-0.6-0.2-1-0.5-1.3-0.9s-0.5-0.9-0.5-1.4c0-0.3,0.1-0.6,0.2-1s0.5-0.7,0.9-1
			c-0.2-0.1-0.4-0.2-0.6-0.3c-0.2-0.1-0.3-0.2-0.5-0.4v-0.4l1.4-1.3c-0.6-0.5-0.9-1.2-0.9-2.1c0-0.5,0.1-1,0.4-1.4
			c0.2-0.4,0.6-0.8,1.1-1s1-0.4,1.7-0.4c0.5,0,0.9,0.1,1.2,0.2h2.9v1l-1.5,0.1c0.3,0.5,0.5,1,0.5,1.6c0,0.5-0.1,1-0.4,1.4
			c-0.2,0.4-0.6,0.8-1.1,1C203.1,37,202.5,37.1,201.9,37.1z M199.5,40.6c0,0.5,0.2,0.9,0.7,1.2c0.4,0.3,1,0.4,1.7,0.4
			s1.2-0.1,1.6-0.4c0.4-0.3,0.6-0.7,0.6-1.1c0-0.3-0.1-0.6-0.4-0.9s-0.8-0.4-1.5-0.4c-0.6,0-1.1-0.1-1.5-0.2
			c-0.4,0.2-0.7,0.5-0.9,0.8C199.6,40.2,199.5,40.4,199.5,40.6z M201.9,36c0.6,0,1-0.2,1.4-0.4c0.3-0.3,0.5-0.7,0.5-1.3
			c0-0.5-0.2-1-0.5-1.3s-0.8-0.4-1.4-0.4c-0.6,0-1,0.1-1.4,0.4c-0.3,0.3-0.5,0.7-0.5,1.3c0,0.6,0.2,1,0.5,1.3
			C200.8,35.9,201.3,36,201.9,36z"/>
		<path class="st1" d="M214.4,39.8c-0.7,0-1.2-0.1-1.6-0.3s-0.8-0.5-1-0.9s-0.3-0.8-0.3-1.2c0-0.8,0.3-1.4,0.9-1.9
			c0.6-0.4,1.5-0.7,2.5-0.7h2.1v-0.1c0-0.7-0.2-1.2-0.5-1.6c-0.4-0.4-0.8-0.5-1.5-0.5c-0.5,0-1,0.1-1.4,0.4s-0.6,0.6-0.7,1.1h-1.4
			c0.1-0.6,0.2-1.1,0.6-1.5c0.3-0.4,0.8-0.7,1.3-0.9c0.5-0.2,1-0.3,1.6-0.3c1.1,0,1.9,0.3,2.5,0.9c0.6,0.6,0.8,1.4,0.8,2.4v4.9h-1.2
			l-0.1-1.4c-0.2,0.4-0.6,0.8-1,1.1C215.7,39.6,215.2,39.8,214.4,39.8z M214.7,38.7c0.5,0,0.9-0.1,1.3-0.4c0.4-0.3,0.7-0.6,0.8-1
			c0.2-0.4,0.3-0.9,0.3-1.3l0,0h-2c-0.8,0-1.4,0.1-1.7,0.4s-0.5,0.6-0.5,1s0.2,0.8,0.5,1C213.7,38.5,214.1,38.7,214.7,38.7z"/>
		<path class="st1" d="M224.1,39.8c-0.8,0-1.4-0.2-2-0.5c-0.6-0.4-1.1-0.8-1.4-1.5c-0.3-0.6-0.5-1.3-0.5-2.2c0-0.8,0.2-1.6,0.5-2.2
			c0.4-0.6,0.8-1.1,1.4-1.5c0.6-0.4,1.3-0.5,2-0.5c0.9,0,1.7,0.2,2.4,0.7c0.6,0.5,1,1.1,1.2,2h-1.4c-0.1-0.5-0.4-0.9-0.8-1.1
			s-0.9-0.4-1.5-0.4c-0.4,0-0.9,0.1-1.3,0.3c-0.4,0.2-0.7,0.6-1,1s-0.4,1-0.4,1.7s0.1,1.2,0.4,1.7s0.6,0.8,1,1s0.8,0.3,1.3,0.3
			c0.6,0,1-0.1,1.5-0.4c0.4-0.3,0.7-0.7,0.8-1.2h1.4c-0.2,0.8-0.6,1.5-1.2,2C225.8,39.5,225,39.8,224.1,39.8z"/>
		<path class="st1" d="M232.5,39.6c-0.7,0-1.3-0.2-1.7-0.5s-0.6-1-0.6-1.9v-4.4h-1.4v-1.1h1.4l0.2-1.9h1.2v1.9h2.3v1.1h-2.3v4.4
			c0,0.5,0.1,0.8,0.3,1s0.6,0.3,1.1,0.3h0.8v1.1H232.5z"/>
		<path class="st1" d="M236.4,29.9c-0.3,0-0.5-0.1-0.7-0.3c-0.2-0.2-0.3-0.4-0.3-0.7s0.1-0.5,0.3-0.6c0.2-0.2,0.4-0.3,0.7-0.3
			s0.5,0.1,0.7,0.3c0.2,0.2,0.3,0.4,0.3,0.6c0,0.3-0.1,0.5-0.3,0.7C236.8,29.8,236.6,29.9,236.4,29.9z M235.7,39.6v-7.9h1.3v7.9
			H235.7z"/>
		<path class="st1" d="M241.6,39.6l-3-7.9h1.4l2.4,6.6l2.4-6.6h1.4l-3,7.9H241.6z"/>
		<path class="st1" d="M250.9,39.8c-0.8,0-1.4-0.2-2-0.5s-1-0.8-1.4-1.5c-0.3-0.6-0.5-1.4-0.5-2.2c0-0.8,0.2-1.6,0.5-2.2
			s0.8-1.1,1.4-1.5c0.6-0.4,1.3-0.5,2.1-0.5s1.4,0.2,2,0.5c0.6,0.3,1,0.8,1.3,1.4s0.5,1.2,0.5,1.8c0,0.1,0,0.2,0,0.3
			c0,0.1,0,0.2,0,0.4h-6.3c0,0.6,0.2,1.1,0.4,1.5s0.6,0.7,0.9,0.9c0.4,0.2,0.8,0.3,1.2,0.3c0.6,0,1-0.1,1.4-0.4s0.6-0.6,0.8-1h1.3
			c-0.2,0.7-0.6,1.4-1.2,1.8C252.6,39.6,251.8,39.8,250.9,39.8z M250.9,32.6c-0.6,0-1.2,0.2-1.7,0.6s-0.8,1-0.9,1.7h5
			c0-0.7-0.3-1.3-0.7-1.7C252.1,32.8,251.5,32.6,250.9,32.6z"/>
		<path class="st1" d="M262.2,39.6l-2.3-7.9h1.3l1.7,6.2l1.9-6.2h1.5l1.9,6.2l1.7-6.2h1.4l-2.3,7.9h-1.4l-2-6.5l-2,6.5H262.2z"/>
		<path class="st1" d="M273.5,29.9c-0.3,0-0.5-0.1-0.7-0.3c-0.2-0.2-0.3-0.4-0.3-0.7s0.1-0.5,0.3-0.6c0.2-0.2,0.4-0.3,0.7-0.3
			c0.3,0,0.5,0.1,0.7,0.3c0.2,0.2,0.3,0.4,0.3,0.6c0,0.3-0.1,0.5-0.3,0.7C274,29.8,273.8,29.9,273.5,29.9z M272.9,39.6v-7.9h1.3v7.9
			H272.9z"/>
		<path class="st1" d="M279.7,39.6c-0.7,0-1.3-0.2-1.7-0.5c-0.4-0.3-0.6-1-0.6-1.9v-4.4H276v-1.1h1.4l0.2-1.9h1.2v1.9h2.3v1.1h-2.3
			v4.4c0,0.5,0.1,0.8,0.3,1c0.2,0.2,0.6,0.3,1.1,0.3h0.8v1.1H279.7z"/>
		<path class="st1" d="M282.7,39.6V28.1h1.3V33c0.3-0.5,0.6-0.9,1.1-1.1c0.5-0.3,1-0.4,1.6-0.4c0.9,0,1.6,0.3,2.2,0.9
			c0.5,0.6,0.8,1.5,0.8,2.6v4.6h-1.3v-4.5c0-1.6-0.7-2.5-2-2.5c-0.7,0-1.3,0.2-1.7,0.7c-0.5,0.5-0.7,1.2-0.7,2.1v4.1L282.7,39.6
			L282.7,39.6z"/>
		<path class="st1" d="M167.5,61.6v-6.8h-1.2v-1.1h1.2v-1.4c0-0.8,0.2-1.3,0.6-1.7c0.4-0.3,0.9-0.5,1.7-0.5h0.8v1.2H170
			c-0.4,0-0.7,0.1-0.9,0.2c-0.2,0.2-0.3,0.4-0.3,0.8v1.3h1.9v1.1h-1.9v6.8L167.5,61.6L167.5,61.6z"/>
		<path class="st1" d="M172.3,61.6v-7.9h1.2l0.1,1.5c0.2-0.5,0.6-0.9,1.1-1.2s1.1-0.5,1.9-0.5v1.4h-0.4c-0.5,0-0.9,0.1-1.3,0.2
			c-0.4,0.2-0.7,0.4-0.9,0.8s-0.4,0.9-0.4,1.6v4h-1.3V61.6z"/>
		<path class="st1" d="M179,51.9c-0.3,0-0.5-0.1-0.7-0.3c-0.2-0.2-0.3-0.4-0.3-0.7s0.1-0.5,0.3-0.6c0.2-0.2,0.4-0.3,0.7-0.3
			s0.5,0.1,0.7,0.3c0.2,0.2,0.3,0.4,0.3,0.6c0,0.3-0.1,0.5-0.3,0.7C179.4,51.8,179.2,51.9,179,51.9z M178.3,61.6v-7.9h1.3v7.9H178.3
			z"/>
		<path class="st1" d="M185.5,61.8c-0.8,0-1.4-0.2-2-0.5s-1.1-0.8-1.4-1.5c-0.3-0.6-0.5-1.4-0.5-2.2c0-0.8,0.2-1.6,0.5-2.2
			s0.8-1.1,1.4-1.5c0.6-0.4,1.3-0.5,2.1-0.5s1.4,0.2,2,0.5s1,0.8,1.3,1.4s0.5,1.2,0.5,1.8c0,0.1,0,0.2,0,0.3c0,0.1,0,0.2,0,0.4h-6.3
			c0,0.6,0.2,1.1,0.4,1.5s0.6,0.7,0.9,0.9c0.4,0.2,0.8,0.3,1.2,0.3c0.6,0,1-0.1,1.4-0.4s0.6-0.6,0.8-1h1.3c-0.2,0.7-0.6,1.4-1.2,1.8
			C187.2,61.6,186.5,61.8,185.5,61.8z M185.5,54.6c-0.6,0-1.2,0.2-1.7,0.6s-0.8,1-0.9,1.7h5c0-0.7-0.3-1.3-0.7-1.7
			C186.8,54.8,186.2,54.6,185.5,54.6z"/>
		<path class="st1" d="M191.1,61.6v-7.9h1.2l0.1,1.4c0.3-0.5,0.6-0.9,1.1-1.2c0.5-0.3,1-0.4,1.6-0.4c0.9,0,1.7,0.3,2.2,0.9
			c0.6,0.6,0.8,1.5,0.8,2.6v4.6h-1.3v-4.5c0-1.6-0.7-2.5-2-2.5c-0.7,0-1.2,0.2-1.7,0.7c-0.4,0.5-0.7,1.2-0.7,2.1v4.1L191.1,61.6
			L191.1,61.6z"/>
		<path class="st1" d="M203.8,61.8c-0.8,0-1.5-0.2-2.1-0.5c-0.6-0.4-1.1-0.9-1.4-1.5s-0.5-1.3-0.5-2.1c0-0.8,0.2-1.5,0.5-2.1
			s0.8-1.1,1.4-1.5c0.6-0.4,1.3-0.5,2.1-0.5c0.6,0,1.2,0.1,1.7,0.4s0.9,0.6,1.2,1.1v-4.9h1.3v11.5h-1.2l-0.1-1.3
			c-0.3,0.4-0.6,0.7-1.1,1C205.2,61.6,204.6,61.8,203.8,61.8z M204,60.6c0.5,0,1-0.1,1.4-0.4c0.4-0.2,0.7-0.6,1-1.1
			c0.2-0.4,0.3-1,0.3-1.6s-0.1-1.1-0.3-1.6s-0.6-0.8-1-1.1c-0.4-0.2-0.9-0.4-1.4-0.4s-1,0.1-1.4,0.4s-0.7,0.6-1,1.1
			c-0.2,0.4-0.3,1-0.3,1.6s0.1,1.1,0.3,1.6s0.6,0.8,1,1.1S203.5,60.6,204,60.6z"/>
		<path class="st1" d="M213.3,61.8c-0.9,0-1.7-0.2-2.4-0.7c-0.6-0.5-1-1.1-1.1-1.9h1.4c0.1,0.4,0.3,0.8,0.7,1.1
			c0.4,0.3,0.8,0.5,1.5,0.5c0.6,0,1-0.1,1.2-0.4c0.3-0.2,0.4-0.5,0.4-0.9c0-0.5-0.2-0.8-0.5-1s-0.8-0.3-1.5-0.4
			c-0.4-0.1-0.9-0.2-1.3-0.4c-0.4-0.2-0.8-0.4-1.1-0.7c-0.3-0.3-0.4-0.7-0.4-1.2c0-0.7,0.3-1.3,0.8-1.7c0.5-0.4,1.2-0.7,2.1-0.7
			c0.8,0,1.5,0.2,2.1,0.6c0.5,0.4,0.8,1,0.9,1.8h-1.3c-0.1-0.4-0.2-0.7-0.5-0.9c-0.3-0.2-0.7-0.3-1.2-0.3s-0.9,0.1-1.1,0.3
			c-0.3,0.2-0.4,0.5-0.4,0.8s0.2,0.6,0.5,0.8c0.3,0.2,0.8,0.3,1.4,0.5c0.5,0.1,1,0.2,1.4,0.4c0.4,0.1,0.8,0.4,1.1,0.7
			s0.4,0.7,0.4,1.3c0,0.7-0.3,1.3-0.8,1.8C215,61.6,214.3,61.8,213.3,61.8z"/>
		<path class="st1" d="M223.3,51.9c-0.3,0-0.5-0.1-0.7-0.3c-0.2-0.2-0.3-0.4-0.3-0.7s0.1-0.5,0.3-0.6c0.2-0.2,0.4-0.3,0.7-0.3
			s0.5,0.1,0.7,0.3c0.2,0.2,0.3,0.4,0.3,0.6c0,0.3-0.1,0.5-0.3,0.7C223.8,51.8,223.6,51.9,223.3,51.9z M222.7,61.6v-7.9h1.3v7.9
			H222.7z"/>
		<path class="st1" d="M229.4,61.8c-0.9,0-1.7-0.2-2.4-0.7c-0.6-0.5-1-1.1-1.1-1.9h1.4c0.1,0.4,0.3,0.8,0.7,1.1
			c0.4,0.3,0.8,0.5,1.4,0.5c0.6,0,1-0.1,1.2-0.4c0.3-0.2,0.4-0.5,0.4-0.9c0-0.5-0.2-0.8-0.5-1s-0.8-0.3-1.5-0.4
			c-0.4-0.1-0.9-0.2-1.3-0.4c-0.4-0.2-0.8-0.4-1.1-0.7c-0.3-0.3-0.4-0.7-0.4-1.2c0-0.7,0.3-1.3,0.8-1.7s1.2-0.7,2.1-0.7
			c0.8,0,1.5,0.2,2.1,0.6c0.5,0.4,0.9,1,0.9,1.8h-1.3c-0.1-0.4-0.2-0.7-0.5-0.9c-0.3-0.2-0.7-0.3-1.2-0.3s-0.9,0.1-1.1,0.3
			c-0.3,0.2-0.4,0.5-0.4,0.8s0.2,0.6,0.5,0.8c0.3,0.2,0.8,0.3,1.4,0.5c0.5,0.1,1,0.2,1.4,0.4c0.4,0.1,0.8,0.4,1.1,0.7
			c0.3,0.3,0.4,0.7,0.4,1.3c0,0.7-0.3,1.3-0.8,1.8C231.1,61.6,230.3,61.8,229.4,61.8z"/>
		<path class="st1" d="M241.2,61.8c-0.7,0-1.2-0.1-1.6-0.3c-0.4-0.2-0.8-0.5-1-0.9s-0.3-0.8-0.3-1.2c0-0.8,0.3-1.4,0.9-1.9
			s1.5-0.7,2.5-0.7h2.1v-0.1c0-0.7-0.2-1.2-0.5-1.6c-0.4-0.4-0.9-0.5-1.5-0.5c-0.5,0-1,0.1-1.3,0.4c-0.4,0.3-0.6,0.6-0.7,1.1h-1.4
			c0.1-0.6,0.2-1.1,0.6-1.5c0.3-0.4,0.8-0.7,1.3-0.9c0.5-0.2,1-0.3,1.6-0.3c1.1,0,1.9,0.3,2.5,0.9s0.8,1.4,0.8,2.4v4.9H244l-0.1-1.4
			c-0.2,0.4-0.5,0.8-1,1.1C242.5,61.6,242,61.8,241.2,61.8z M241.4,60.7c0.5,0,1-0.1,1.3-0.4c0.4-0.3,0.6-0.6,0.8-1s0.3-0.9,0.3-1.3
			l0,0h-2c-0.8,0-1.4,0.1-1.7,0.4s-0.5,0.6-0.5,1s0.1,0.8,0.5,1C240.5,60.5,240.9,60.7,241.4,60.7z"/>
		<path class="st1" d="M254.6,59.1c-0.5,0-0.9-0.1-1.2-0.2l-0.8,0.8c0.1,0.1,0.3,0.2,0.4,0.2c0.2,0.1,0.4,0.1,0.8,0.2
			c0.3,0,0.8,0.1,1.4,0.1c1.1,0.1,1.8,0.3,2.3,0.7c0.5,0.4,0.7,1,0.7,1.6c0,0.5-0.1,0.9-0.4,1.3c-0.2,0.4-0.6,0.8-1.2,1
			c-0.5,0.3-1.2,0.4-2,0.4c-0.7,0-1.4-0.1-1.9-0.3c-0.6-0.2-1-0.5-1.3-0.9s-0.5-0.9-0.5-1.4c0-0.3,0.1-0.6,0.2-1
			c0.2-0.4,0.5-0.7,0.9-1c-0.2-0.1-0.4-0.2-0.6-0.3c-0.2-0.1-0.3-0.2-0.5-0.4v-0.4l1.4-1.3c-0.6-0.5-0.9-1.2-0.9-2.1
			c0-0.5,0.1-1,0.4-1.4c0.2-0.4,0.6-0.8,1.1-1s1-0.4,1.7-0.4c0.5,0,0.9,0.1,1.2,0.2h2.9v1l-1.5,0.1c0.3,0.5,0.5,1,0.5,1.6
			c0,0.5-0.1,1-0.4,1.4c-0.2,0.4-0.6,0.8-1.1,1C255.9,59,255.3,59.1,254.6,59.1z M252.3,62.6c0,0.5,0.2,0.9,0.7,1.2
			c0.4,0.3,1,0.4,1.7,0.4s1.2-0.1,1.6-0.4c0.4-0.3,0.6-0.7,0.6-1.1c0-0.3-0.1-0.6-0.4-0.9s-0.8-0.4-1.5-0.4c-0.6,0-1.1-0.1-1.5-0.2
			c-0.4,0.2-0.7,0.5-0.9,0.8S252.3,62.4,252.3,62.6z M254.6,58c0.6,0,1-0.2,1.3-0.4c0.3-0.3,0.5-0.7,0.5-1.3c0-0.5-0.2-1-0.5-1.3
			s-0.8-0.4-1.3-0.4c-0.6,0-1,0.1-1.4,0.4c-0.3,0.3-0.5,0.7-0.5,1.3c0,0.6,0.2,1,0.5,1.3C253.6,57.9,254,58,254.6,58z"/>
		<path class="st1" d="M260.3,61.6v-7.9h1.2l0.1,1.5c0.2-0.5,0.6-0.9,1.1-1.2s1.1-0.5,1.9-0.5v1.4h-0.4c-0.5,0-0.9,0.1-1.3,0.2
			c-0.4,0.2-0.7,0.4-0.9,0.8c-0.2,0.4-0.4,0.9-0.4,1.6v4h-1.3V61.6z"/>
		<path class="st1" d="M269.4,61.8c-0.8,0-1.4-0.2-2-0.5s-1.1-0.8-1.4-1.5c-0.3-0.6-0.5-1.4-0.5-2.2c0-0.8,0.2-1.6,0.5-2.2
			s0.8-1.1,1.4-1.5s1.3-0.5,2.1-0.5c0.8,0,1.4,0.2,2,0.5s1,0.8,1.3,1.4s0.4,1.2,0.4,1.8c0,0.1,0,0.2,0,0.3c0,0.1,0,0.2,0,0.4h-6.3
			c0,0.6,0.2,1.1,0.4,1.5s0.6,0.7,0.9,0.9c0.4,0.2,0.8,0.3,1.2,0.3c0.5,0,1-0.1,1.4-0.4s0.6-0.6,0.8-1h1.3c-0.2,0.7-0.6,1.4-1.2,1.8
			C271.1,61.6,270.3,61.8,269.4,61.8z M269.4,54.6c-0.6,0-1.2,0.2-1.7,0.6s-0.8,1-0.9,1.7h5c0-0.7-0.3-1.3-0.7-1.7
			C270.6,54.8,270.1,54.6,269.4,54.6z"/>
		<path class="st1" d="M277.6,61.8c-0.7,0-1.2-0.1-1.6-0.3s-0.8-0.5-1-0.9s-0.3-0.8-0.3-1.2c0-0.8,0.3-1.4,0.9-1.9s1.5-0.7,2.5-0.7
			h2.1v-0.1c0-0.7-0.2-1.2-0.5-1.6c-0.4-0.4-0.9-0.5-1.5-0.5c-0.5,0-1,0.1-1.3,0.4c-0.4,0.3-0.6,0.6-0.7,1.1h-1.4
			c0-0.6,0.2-1.1,0.6-1.5c0.3-0.4,0.8-0.7,1.3-0.9c0.5-0.2,1-0.3,1.6-0.3c1.1,0,1.9,0.3,2.5,0.9s0.8,1.4,0.8,2.4v4.9h-1.2l-0.1-1.4
			c-0.2,0.4-0.6,0.8-1,1.1S278.3,61.8,277.6,61.8z M277.8,60.7c0.5,0,0.9-0.1,1.3-0.4s0.6-0.6,0.8-1c0.2-0.4,0.3-0.9,0.3-1.3l0,0h-2
			c-0.8,0-1.3,0.1-1.7,0.4c-0.3,0.3-0.5,0.6-0.5,1s0.1,0.8,0.5,1C276.8,60.5,277.2,60.7,277.8,60.7z"/>
		<path class="st1" d="M286.5,61.6c-0.7,0-1.3-0.2-1.7-0.5c-0.4-0.3-0.6-1-0.6-1.9v-4.4h-1.4v-1.1h1.4l0.2-1.9h1.2v1.9h2.3v1.1h-2.3
			v4.4c0,0.5,0.1,0.8,0.3,1c0.2,0.2,0.6,0.3,1.1,0.3h0.8v1.1H286.5z"/>
		<path class="st1" d="M168.6,83.6l-2.3-7.9h1.3l1.7,6.2l1.9-6.2h1.5l1.9,6.2l1.7-6.2h1.4l-2.3,7.9H174l-1.9-6.5l-1.9,6.5H168.6z"/>
		<path class="st1" d="M181.4,83.8c-0.7,0-1.2-0.1-1.7-0.3c-0.4-0.2-0.8-0.5-1-0.9s-0.3-0.8-0.3-1.2c0-0.8,0.3-1.4,0.9-1.9
			s1.5-0.7,2.5-0.7h2.1v-0.1c0-0.7-0.2-1.2-0.5-1.6c-0.4-0.4-0.9-0.5-1.5-0.5c-0.5,0-1,0.1-1.3,0.4c-0.4,0.3-0.6,0.6-0.7,1.1h-1.4
			c0.1-0.6,0.2-1.1,0.6-1.5c0.3-0.4,0.8-0.7,1.3-0.9c0.5-0.2,1-0.3,1.6-0.3c1.1,0,1.9,0.3,2.5,0.9s0.8,1.4,0.8,2.4v4.9h-1.2
			l-0.1-1.4c-0.2,0.4-0.5,0.8-1,1.1C182.7,83.6,182.2,83.8,181.4,83.8z M181.6,82.7c0.5,0,1-0.1,1.3-0.4c0.4-0.3,0.6-0.6,0.8-1
			s0.3-0.9,0.3-1.3l0,0h-2c-0.8,0-1.4,0.1-1.7,0.4s-0.5,0.6-0.5,1s0.1,0.8,0.5,1C180.7,82.5,181.1,82.7,181.6,82.7z"/>
		<path class="st1" d="M188.1,87.1l2-4.3h-0.5l-3.1-7.2h1.5l2.6,6.2l2.8-6.2h1.4l-5.2,11.5H188.1z"/>
		<path class="st1" d="M203.5,83.6c-0.7,0-1.3-0.2-1.7-0.5s-0.6-1-0.6-1.9v-4.4h-1.4v-1.1h1.4l0.2-1.9h1.2v1.9h2.3v1.1h-2.3v4.4
			c0,0.5,0.1,0.8,0.3,1s0.6,0.3,1.1,0.3h0.8v1.1H203.5z"/>
		<path class="st1" d="M209.9,83.8c-0.8,0-1.4-0.2-2-0.5s-1.1-0.8-1.4-1.4c-0.4-0.6-0.5-1.4-0.5-2.2s0.2-1.6,0.5-2.2
			c0.4-0.6,0.8-1.1,1.4-1.5c0.6-0.3,1.3-0.5,2-0.5c0.8,0,1.4,0.2,2,0.5s1.1,0.8,1.4,1.5c0.4,0.6,0.5,1.4,0.5,2.2s-0.2,1.6-0.5,2.2
			s-0.8,1.1-1.4,1.4C211.3,83.6,210.7,83.8,209.9,83.8z M209.9,82.6c0.5,0,0.9-0.1,1.3-0.3c0.4-0.2,0.7-0.6,1-1
			c0.2-0.4,0.4-1,0.4-1.7s-0.1-1.2-0.4-1.7s-0.6-0.8-0.9-1c-0.4-0.2-0.8-0.3-1.3-0.3s-0.9,0.1-1.3,0.3c-0.4,0.2-0.7,0.6-1,1
			c-0.2,0.4-0.4,1-0.4,1.7s0.1,1.2,0.4,1.7s0.6,0.8,0.9,1C209.1,82.5,209.5,82.6,209.9,82.6z"/>
		<path class="st1" d="M223.1,83.8c-1,0-1.7-0.2-2.4-0.7c-0.6-0.5-1-1.1-1.1-1.9h1.4c0.1,0.4,0.3,0.8,0.7,1.1
			c0.4,0.3,0.8,0.5,1.4,0.5c0.6,0,1-0.1,1.2-0.4c0.3-0.2,0.4-0.5,0.4-0.9c0-0.5-0.2-0.8-0.5-1s-0.8-0.3-1.5-0.4
			c-0.4-0.1-0.8-0.2-1.3-0.4c-0.4-0.2-0.8-0.4-1.1-0.7c-0.3-0.3-0.4-0.7-0.4-1.2c0-0.7,0.3-1.3,0.8-1.7c0.5-0.4,1.2-0.7,2.1-0.7
			c0.8,0,1.5,0.2,2.1,0.6c0.5,0.4,0.8,1,0.9,1.8h-1.3c0-0.4-0.2-0.7-0.5-0.9c-0.3-0.2-0.7-0.3-1.2-0.3s-0.8,0.1-1.1,0.3
			c-0.3,0.2-0.4,0.5-0.4,0.8s0.2,0.6,0.5,0.8c0.3,0.2,0.8,0.3,1.4,0.5c0.5,0.1,1,0.2,1.4,0.4s0.8,0.4,1.1,0.7
			c0.3,0.3,0.4,0.7,0.4,1.3c0,0.7-0.3,1.3-0.8,1.8C224.7,83.6,224,83.8,223.1,83.8z"/>
		<path class="st1" d="M230.8,83.6c-0.7,0-1.3-0.2-1.7-0.5s-0.6-1-0.6-1.9v-4.4h-1.4v-1.1h1.4l0.2-1.9h1.2v1.9h2.3v1.1h-2.3v4.4
			c0,0.5,0.1,0.8,0.3,1s0.6,0.3,1.1,0.3h0.8v1.1H230.8z"/>
		<path class="st1" d="M236.5,83.8c-0.7,0-1.2-0.1-1.6-0.3s-0.8-0.5-1-0.9s-0.3-0.8-0.3-1.2c0-0.8,0.3-1.4,0.9-1.9
			c0.6-0.4,1.5-0.7,2.5-0.7h2.1v-0.1c0-0.7-0.2-1.2-0.5-1.6c-0.4-0.4-0.9-0.5-1.5-0.5c-0.5,0-1,0.1-1.3,0.4
			c-0.4,0.3-0.6,0.6-0.7,1.1h-1.4c0.1-0.6,0.2-1.1,0.6-1.5c0.3-0.4,0.8-0.7,1.3-0.9c0.5-0.2,1-0.3,1.6-0.3c1.1,0,1.9,0.3,2.5,0.9
			s0.8,1.4,0.8,2.4v4.9h-1.2l-0.1-1.4c-0.2,0.4-0.5,0.8-1,1.1S237.2,83.8,236.5,83.8z M236.7,82.7c0.5,0,1-0.1,1.3-0.4
			c0.4-0.3,0.6-0.6,0.8-1s0.3-0.9,0.3-1.3l0,0h-2c-0.8,0-1.4,0.1-1.7,0.4s-0.5,0.6-0.5,1s0.1,0.8,0.5,1
			C235.7,82.5,236.2,82.7,236.7,82.7z"/>
		<path class="st1" d="M242.5,83.6v-7.9h1.2l0.1,1.5c0.2-0.5,0.6-0.9,1.1-1.2s1.1-0.5,1.9-0.5v1.4h-0.4c-0.5,0-0.9,0.1-1.3,0.2
			c-0.4,0.2-0.7,0.4-0.9,0.8s-0.4,0.9-0.4,1.6v4h-1.3V83.6z"/>
		<path class="st1" d="M251.5,83.6c-0.7,0-1.3-0.2-1.7-0.5s-0.6-1-0.6-1.9v-4.4h-1.4v-1.1h1.4l0.2-1.9h1.2v1.9h2.3v1.1h-2.3v4.4
			c0,0.5,0.1,0.8,0.3,1s0.6,0.3,1.1,0.3h0.8v1.1H251.5z"/>
		<path class="st1" d="M261.4,83.8c-0.7,0-1.2-0.1-1.6-0.3s-0.8-0.5-1-0.9s-0.3-0.8-0.3-1.2c0-0.8,0.3-1.4,0.9-1.9s1.5-0.7,2.5-0.7
			h2.1v-0.1c0-0.7-0.2-1.2-0.5-1.6c-0.4-0.4-0.9-0.5-1.5-0.5c-0.5,0-1,0.1-1.4,0.4s-0.6,0.6-0.7,1.1h-1.4c0-0.6,0.2-1.1,0.6-1.5
			c0.3-0.4,0.8-0.7,1.3-0.9c0.5-0.2,1-0.3,1.6-0.3c1.1,0,1.9,0.3,2.5,0.9s0.8,1.4,0.8,2.4v4.9h-1.2l-0.1-1.4c-0.2,0.4-0.6,0.8-1,1.1
			S262.1,83.8,261.4,83.8z M261.6,82.7c0.5,0,0.9-0.1,1.3-0.4s0.7-0.6,0.8-1c0.2-0.4,0.3-0.9,0.3-1.3l0,0h-2c-0.8,0-1.4,0.1-1.7,0.4
			c-0.3,0.3-0.5,0.6-0.5,1s0.2,0.8,0.5,1C260.6,82.5,261.1,82.7,261.6,82.7z"/>
		<path class="st1" d="M267.4,83.6v-7.9h1.2l0.1,1.4c0.3-0.5,0.6-0.9,1.1-1.2c0.5-0.3,1-0.4,1.6-0.4c0.9,0,1.7,0.3,2.2,0.9
			s0.8,1.5,0.8,2.6v4.6h-1.3v-4.5c0-1.6-0.7-2.5-2-2.5c-0.7,0-1.2,0.2-1.7,0.7c-0.4,0.5-0.7,1.2-0.7,2.1v4.1L267.4,83.6L267.4,83.6z
			"/>
		<path class="st1" d="M280.2,83.8c-0.8,0-1.5-0.2-2.1-0.5c-0.6-0.4-1-0.9-1.4-1.5c-0.3-0.6-0.5-1.3-0.5-2.1c0-0.8,0.2-1.5,0.5-2.1
			s0.8-1.1,1.4-1.5s1.3-0.5,2.1-0.5c0.6,0,1.2,0.1,1.7,0.4s0.9,0.6,1.2,1.1v-4.9h1.3v11.5h-1.2l-0.1-1.3c-0.3,0.4-0.6,0.7-1.1,1
			C281.5,83.6,280.9,83.8,280.2,83.8z M280.3,82.6c0.5,0,1-0.1,1.4-0.4s0.7-0.6,1-1.1c0.2-0.4,0.3-1,0.3-1.6s-0.1-1.1-0.3-1.6
			c-0.2-0.5-0.5-0.8-1-1.1s-0.9-0.4-1.4-0.4s-1,0.1-1.4,0.4s-0.7,0.6-1,1.1c-0.2,0.4-0.3,1-0.3,1.6s0.1,1.1,0.3,1.6
			c0.2,0.5,0.5,0.8,1,1.1S279.8,82.6,280.3,82.6z"/>
		<path class="st1" d="M167,105.6v-7.9h1.2l0.1,1.1c0.3-0.4,0.6-0.8,1-1s0.9-0.3,1.4-0.3c0.6,0,1.2,0.1,1.6,0.4
			c0.4,0.3,0.8,0.7,1.1,1.2c0.3-0.5,0.7-0.9,1.1-1.1c0.5-0.3,1-0.4,1.6-0.4c0.9,0,1.7,0.3,2.3,0.9s0.8,1.5,0.8,2.6v4.6h-1.3v-4.5
			c0-0.8-0.2-1.4-0.5-1.9c-0.3-0.4-0.8-0.6-1.4-0.6c-0.6,0-1.2,0.2-1.6,0.7c-0.4,0.5-0.6,1.2-0.6,2.1v4.1h-1.3v-4.5
			c0-0.8-0.2-1.4-0.5-1.9c-0.3-0.4-0.8-0.6-1.4-0.6c-0.6,0-1.1,0.2-1.6,0.7c-0.4,0.5-0.6,1.2-0.6,2.1v4.1L167,105.6L167,105.6z"/>
		<path class="st1" d="M184,105.8c-0.7,0-1.2-0.1-1.6-0.3c-0.4-0.2-0.8-0.5-1-0.9s-0.3-0.8-0.3-1.2c0-0.8,0.3-1.4,0.9-1.9
			c0.6-0.4,1.5-0.7,2.5-0.7h2.1v-0.1c0-0.7-0.2-1.2-0.5-1.6c-0.4-0.4-0.8-0.5-1.5-0.5c-0.5,0-1,0.1-1.4,0.4s-0.6,0.6-0.7,1.1h-1.4
			c0.1-0.6,0.2-1.1,0.6-1.5c0.3-0.4,0.8-0.7,1.3-0.9c0.5-0.2,1-0.3,1.6-0.3c1.1,0,1.9,0.3,2.5,0.9s0.8,1.4,0.8,2.4v4.9h-1.2
			l-0.1-1.4c-0.2,0.4-0.6,0.8-1,1.1C185.3,105.6,184.7,105.8,184,105.8z M184.2,104.7c0.5,0,0.9-0.1,1.3-0.4c0.4-0.3,0.7-0.6,0.8-1
			c0.2-0.4,0.3-0.9,0.3-1.3l0,0h-2c-0.8,0-1.4,0.1-1.7,0.4s-0.5,0.6-0.5,1s0.2,0.8,0.5,1C183.2,104.5,183.6,104.7,184.2,104.7z"/>
		<path class="st1" d="M190.8,95.9c-0.3,0-0.5-0.1-0.7-0.3c-0.2-0.2-0.3-0.4-0.3-0.7s0.1-0.5,0.3-0.6c0.2-0.2,0.4-0.3,0.7-0.3
			s0.5,0.1,0.7,0.3c0.2,0.2,0.3,0.4,0.3,0.6c0,0.3-0.1,0.5-0.3,0.7C191.3,95.8,191.1,95.9,190.8,95.9z M190.1,105.6v-7.9h1.3v7.9
			H190.1z"/>
		<path class="st1" d="M193.8,105.6v-7.9h1.2l0.1,1.4c0.3-0.5,0.6-0.9,1.1-1.2c0.5-0.3,1-0.4,1.6-0.4c0.9,0,1.7,0.3,2.2,0.9
			c0.6,0.6,0.8,1.5,0.8,2.6v4.6h-1.3v-4.5c0-1.6-0.7-2.5-2.1-2.5c-0.7,0-1.2,0.2-1.7,0.7s-0.7,1.2-0.7,2.1v4.1L193.8,105.6
			L193.8,105.6z"/>
		<path class="st1" d="M206.1,105.6c-0.7,0-1.3-0.2-1.7-0.5s-0.6-1-0.6-1.9v-4.4h-1.4v-1.1h1.4l0.2-1.9h1.2v1.9h2.3v1.1h-2.4v4.4
			c0,0.5,0.1,0.8,0.3,1s0.6,0.3,1.1,0.3h0.8v1.1H206.1z"/>
		<path class="st1" d="M211.8,105.8c-0.7,0-1.2-0.1-1.6-0.3c-0.4-0.2-0.8-0.5-1-0.9s-0.3-0.8-0.3-1.2c0-0.8,0.3-1.4,0.9-1.9
			c0.6-0.4,1.5-0.7,2.5-0.7h2.1v-0.1c0-0.7-0.2-1.2-0.5-1.6c-0.4-0.4-0.8-0.5-1.5-0.5c-0.5,0-1,0.1-1.4,0.4s-0.6,0.6-0.7,1.1h-1.4
			c0.1-0.6,0.2-1.1,0.6-1.5c0.3-0.4,0.8-0.7,1.3-0.9c0.5-0.2,1-0.3,1.6-0.3c1.1,0,1.9,0.3,2.5,0.9s0.8,1.4,0.8,2.4v4.9h-1.2
			l-0.1-1.4c-0.2,0.4-0.6,0.8-1,1.1C213.1,105.6,212.5,105.8,211.8,105.8z M212,104.7c0.5,0,0.9-0.1,1.3-0.4c0.4-0.3,0.7-0.6,0.8-1
			c0.2-0.4,0.3-0.9,0.3-1.3l0,0h-2c-0.8,0-1.4,0.1-1.7,0.4s-0.5,0.6-0.5,1s0.2,0.8,0.5,1C211,104.5,211.5,104.7,212,104.7z"/>
		<path class="st1" d="M218.6,95.9c-0.3,0-0.5-0.1-0.7-0.3c-0.2-0.2-0.3-0.4-0.3-0.7s0.1-0.5,0.3-0.6c0.2-0.2,0.4-0.3,0.7-0.3
			s0.5,0.1,0.7,0.3c0.2,0.2,0.3,0.4,0.3,0.6c0,0.3-0.1,0.5-0.3,0.7C219.1,95.8,218.9,95.9,218.6,95.9z M218,105.6v-7.9h1.3v7.9H218z
			"/>
		<path class="st1" d="M221.6,105.6v-7.9h1.2l0.1,1.4c0.3-0.5,0.6-0.9,1.1-1.2c0.5-0.3,1-0.4,1.6-0.4c0.9,0,1.7,0.3,2.2,0.9
			c0.6,0.6,0.8,1.5,0.8,2.6v4.6h-1.3v-4.5c0-1.6-0.7-2.5-2.1-2.5c-0.7,0-1.2,0.2-1.7,0.7s-0.7,1.2-0.7,2.1v4.1L221.6,105.6
			L221.6,105.6z"/>
		<path class="st2" d="M167.3,118.3c0.3-0.1,1.1-0.2,2.2-0.2c1.5,0,2.4,0.1,2.7,0.3c0.5,0.3,1,0.7,1.6,1.3s1,1.1,1.2,1.6
			c0.4,0.7,0.6,2.4,0.7,4.9c0.1,1.5,0.1,2.4,0.1,2.6c0,1-0.1,1.9-0.4,2.7c-0.3,1-0.7,1.7-1.1,2.2c-0.4,0.5-1.1,0.9-1.8,1.1l-1.3,0.5
			l-0.1,3.8c0,2.2-0.1,3.6-0.2,4.1s-0.6,0.7-1.4,0.7c-0.6,0-1.2-0.2-1.6-0.5l-0.7-0.5v-3.3v-0.8c0-2.6-0.1-5.9-0.2-9.8
			c-0.2-3.9-0.3-6.3-0.5-7.3c-0.1-0.7-0.1-1.2-0.1-1.6C166.3,119.2,166.7,118.6,167.3,118.3z M171.4,122.6c-0.3-0.7-0.6-1-0.7-1
			c-0.1,0-0.1,0-0.2,0.1c0,1-0.1,2.2-0.1,3.5c0,4.3,0.2,6.5,0.6,6.5c0.1,0,0.3-0.3,0.6-0.9c0.2-0.6,0.4-1.2,0.4-2
			c0-0.2,0-0.9-0.1-2.1C171.8,124.5,171.6,123.2,171.4,122.6z"/>
		<path class="st2" d="M181.7,119.7l0.8-1h5.7l0.9,0.9c0.6,0.6,1,1.3,1.2,2.2c0.2,0.9,0.4,2.3,0.6,4.1c0.1,0.7,0.1,1.7,0.1,3.1
			c0,3.1-0.3,5.9-0.9,8.5c-0.6,2.5-1.3,4.3-2.3,5.2c-0.3,0.3-0.8,0.6-1.3,0.8c-0.6,0.2-1.1,0.3-1.5,0.3c-0.2,0-0.3,0-0.5-0.1
			c-0.2-0.2-0.6-0.2-1-0.2c-0.3,0-0.7-0.2-1.1-0.8c-0.4-0.5-0.7-1.1-1-1.8c-0.4-1.2-0.7-2.5-0.8-3.9s-0.2-3.7-0.2-6.8V128
			c0-2.9,0.1-4.8,0.2-5.8C180.9,121.2,181.2,120.4,181.7,119.7z M186,121.9c-0.3-0.6-0.5-0.9-0.7-0.9s-0.5,0.5-0.8,1.4
			c-0.2,0.7-0.4,2.1-0.4,4.2c0,1.7,0.1,3.4,0.2,5.2c0.1,1.7,0.3,3.4,0.6,4.9s0.5,2.3,0.7,2.3s0.3-0.3,0.4-1c0.1-0.5,0.3-1,0.5-1.4
			c0.1-0.2,0.2-1.5,0.4-4c0.1-1.3,0.1-2.5,0.1-3.6C187.1,125.8,186.8,123.4,186,121.9z"/>
		<path class="st2" d="M199.3,118.6c0.4-0.2,0.8-0.3,1.3-0.3c0.3,0,0.6,0,0.8,0c0.9,0.1,1.5,0.2,1.8,0.4c0.3,0.2,0.6,0.5,0.9,0.9
			c0.3,0.5,0.5,1,0.5,1.5s-0.2,1-0.6,1.4c-0.4,0.4-0.7,0.5-1.1,0.5c-0.4,0-0.8-0.3-1.1-0.8c-0.3-0.4-0.6-0.6-0.9-0.6
			c-0.3,0-0.5,0.2-0.8,0.6s-0.4,0.8-0.5,1.3v0.2c0,1.7,1.3,4.8,3.8,9.3c0.4,0.7,0.8,2.1,1.2,4c0,0.1,0.1,0.3,0.1,0.6
			c0,1.7-0.4,3-1.1,3.9c-0.3,0.4-0.8,0.8-1.5,1c-0.7,0.3-1.3,0.5-1.8,0.5c-0.1,0-0.1,0-0.2,0c-0.1,0-0.1,0-0.2,0
			c-0.7-0.1-1.6-0.6-2.5-1.6c-1-0.9-1.5-1.7-1.5-2.2c0-0.2,0.2-0.5,0.5-0.8s0.7-0.5,1-0.6c0.1,0,0.2,0,0.3,0c0.3,0,0.9,0.5,1.6,1.5
			c0.3,0.4,0.6,0.6,0.9,0.6c0.3,0,0.5-0.2,0.7-0.5c0.1-0.1,0.1-0.4,0.1-0.7c0-1.8-0.8-4.3-2.4-7.7c-1.5-3.2-2.2-5.5-2.2-7
			c0-0.7,0.1-1.3,0.4-1.9c0.5-1.2,0.9-2,1.1-2.3C198.2,119.3,198.6,119,199.3,118.6z"/>
		<path class="st2" d="M209.7,117.6c0.4-0.4,0.8-0.6,1.4-0.6c0.6,0,1,0.2,1.4,0.6l0.6,0.6l0.3,10.3c0.2,5.7,0.2,9,0.2,9.8
			c0,0.5,0,0.8,0,1.1c0,0.3,0,0.5-0.1,0.7s-0.1,0.3-0.1,0.4c-0.1,0.1-0.1,0.2-0.1,0.2s-0.1,0.1-0.2,0.1c-0.1,0.1-0.2,0.1-0.2,0.1
			c-0.3,0.2-0.6,0.3-0.8,0.3c-0.1,0-0.4-0.1-0.9-0.2c-0.7-0.3-1.1-0.6-1.2-0.8c-0.1-0.1-0.2-3.8-0.3-11c-0.1-7.2-0.1-10.8-0.2-10.9
			C209.2,118.3,209.3,118,209.7,117.6z"/>
		<path class="st2" d="M219.1,117.7c0.4-0.4,1.1-0.5,2.1-0.5h1.1c1.6,0.1,2.6,0.1,3,0.2c0.2,0.1,0.6,0.1,1.3,0.2s1.2,0.2,1.5,0.4
			c0.3,0.2,0.5,0.6,0.5,1.2s-0.2,1-0.4,1.2s-0.6,0.4-1.1,0.5c-0.6,0.1-1,0.2-1.1,0.3c-0.2,0.1-0.2,3.1-0.2,8.7c0,3.9,0,6.7,0.1,8.3
			c0.1,1.3,0.1,2,0.1,2.1c0,0.6-0.1,1.2-0.4,1.7c-0.3,0.6-0.9,0.9-1.6,0.9c-0.5,0-0.9-0.1-1.4-0.4l-0.9-0.5l0.1-10.4
			c0.1-2.7,0.1-5.4,0.1-8.1c0-1.6-0.1-2.5-0.4-2.6c-0.4-0.2-0.6-0.3-0.7-0.2c-0.1,0-0.3,0.1-0.5,0.1c-0.6,0-1-0.2-1.4-0.5
			s-0.6-0.7-0.6-1.1C218.4,118.5,218.7,118.1,219.1,117.7z"/>
		<path class="st2" d="M233.7,117.6c0.4-0.4,0.8-0.6,1.4-0.6c0.6,0,1,0.2,1.4,0.6l0.6,0.6l0.3,10.3c0.1,5.7,0.2,9,0.2,9.8
			c0,0.5,0,0.8,0,1.1c0,0.3,0,0.5,0,0.7s-0.1,0.3-0.1,0.4c-0.1,0.1-0.1,0.2-0.1,0.2s-0.1,0.1-0.2,0.1c-0.1,0.1-0.2,0.1-0.2,0.1
			c-0.3,0.2-0.6,0.3-0.8,0.3c-0.1,0-0.4-0.1-0.9-0.2c-0.7-0.3-1.1-0.6-1.2-0.8c-0.1-0.1-0.2-3.8-0.3-11c-0.1-7.2-0.1-10.8-0.2-10.9
			C233.2,118.3,233.4,118,233.7,117.6z"/>
		<path class="st2" d="M251.6,117c0.4-0.1,0.8-0.2,1.3-0.2c0.8,0,1.3,0.1,1.6,0.5c0.3,0.3,0.5,0.6,0.5,0.9c0,0.4-0.2,1.1-0.6,2.1
			c-0.3,0.8-0.5,1.5-0.6,2c-0.1,0.6-0.3,1.2-0.4,2.1c-0.1,0.8-0.3,1.6-0.5,2.4c-0.6,2.6-1.2,5.3-1.6,8.2c-0.5,2.9-0.7,4.8-0.7,5.7
			c0,0.4-0.2,0.8-0.6,1.3c-0.4,0.5-0.8,0.8-1.2,0.8c-0.1,0-0.3,0-0.5,0c-1,0-1.8-0.3-2.3-0.9c-0.3-0.4-0.6-1.8-0.9-4.4
			c-0.5-5.2-1-8.7-1.3-10.5c-0.1-0.6-0.3-1.7-0.4-3.3c-0.1-1.5-0.3-2.7-0.5-3.4l-0.4-1.8l0.6-0.5c0.4-0.4,0.8-0.6,1.2-0.6
			c0.8,0,1.4,0.6,1.9,1.8s0.8,2.2,0.8,3.2c0,0.5,0.1,1.1,0.2,1.7c0,0.1,0.1,0.4,0.2,1.1c0.1,0.7,0.2,1.3,0.4,1.8
			c0.1,0.5,0.3,0.8,0.4,0.8c0.2,0,0.7-2.1,1.6-6.4c0.3-1.6,0.6-2.7,0.8-3.2C250.7,117.6,251.1,117.2,251.6,117z"/>
		<path class="st2" d="M261.6,120.3c0.4-0.1,0.9-0.1,1.5-0.1c1.7,0,2.7,0.2,3.1,0.6c0.3,0.3,0.5,0.6,0.5,1s-0.1,0.7-0.5,1
			c-0.3,0.3-0.7,0.4-1.2,0.4s-0.8,0.1-0.9,0.3s-0.2,0.8-0.2,1.6c0,0.2,0,1,0.1,2.3c0.1,1.5,0.1,2.5,0.2,2.9s0.2,0.7,0.3,0.7
			c0,0,0.2,0,0.6,0s0.7,0,0.9,0c0.7,0,1.3,0.2,1.6,0.5c0.2,0.2,0.3,0.4,0.3,0.6c0,0.5-0.7,0.9-2,1.4c-0.8,0.3-1.2,0.5-1.4,0.6
			c-0.1,0.1-0.3,0.5-0.3,1c-0.1,0.5-0.1,0.9-0.1,1.3c0,1.5,0.1,2.7,0.4,3.4c0.1,0.3,0.3,0.5,0.4,0.6s0.5,0.1,1,0.1
			c0.6,0,1.2,0.2,1.6,0.4c0.5,0.3,0.7,0.6,0.7,1c0,0.3-0.2,0.6-0.7,1.1c-0.7,0.7-2,1-3.7,1c-1.8,0-2.9-0.4-3.5-1.1
			c-0.3-0.4-0.5-3-0.6-7.8c-0.1-6-0.1-9.5-0.2-10.6l-0.1-3.4l0.6-0.4C260.8,120.6,261.2,120.4,261.6,120.3z"/>
		<path class="st2" d="M166.4,153c0.1-0.2,0.4-0.4,0.8-0.4c0.5,0,1.1,0.2,1.6,0.5c0.4,0.2,0.6,0.4,0.7,0.6c0.1,0.2,0.1,0.6,0.2,1.2
			c0,4.3,0.1,6.9,0.1,7.6c0.1,0.7,0.2,1.1,0.4,1.1h0.1c0.3,0,0.6-0.1,0.9-0.3c0.2-0.2,0.3-0.5,0.4-0.9c0.1-0.4,0.1-1.6,0.1-3.4
			c0-2.7,0.1-4.2,0.3-4.5c0.3-0.5,0.8-0.8,1.7-0.8c0.3,0,0.6,0.1,0.9,0.2l0.6,0.4l-0.1,4.8c-0.1,2-0.1,4.8-0.1,8.4
			c0,4,0.1,6.6,0.2,7.9l0.2,2l-0.7,0.3c-0.2,0.1-0.5,0.2-0.7,0.2s-0.5-0.1-1-0.3c-0.6-0.3-1-0.5-1.1-0.8c-0.1-0.2-0.2-1.9-0.2-5.1
			c-0.1-3.1-0.2-4.7-0.3-4.9c-0.1-0.1-0.4-0.1-0.9,0l-0.8,0.2l0.1,3.8c0.1,2.6,0.3,4.1,0.5,4.6c0.1,0.4,0.2,0.7,0.2,1.1
			c0,0.7-0.3,1.1-1,1.2c-0.3,0.1-0.5,0.1-0.7,0.1c-0.8,0-1.5-0.2-2-0.7c-0.2-0.2-0.3-0.9-0.4-2c0-1.1-0.1-4.5-0.1-10.1
			C166.2,157.3,166.3,153.3,166.4,153z"/>
		<path class="st2" d="M183.6,155.2c0.8-0.8,2-1.2,3.6-1.2c0.7,0,1.3,0.1,1.7,0.4c0.6,0.3,1.1,1.2,1.4,2.6c0.2,1.2,0.5,3.1,0.8,5.9
			s0.5,4.9,0.6,6.4c0,1.4,0.1,3,0.3,4.8s0.3,2.8,0.4,2.9c0,0,0.1,0.1,0.1,0.2c0,0.3-0.1,0.6-0.4,1c-0.2,0.4-0.5,0.6-0.7,0.7
			c-0.1,0-0.2,0-0.4,0c-0.5,0-1-0.1-1.5-0.3c-0.6-0.2-0.9-0.4-1-0.7c-0.1-0.2-0.3-1.1-0.4-2.5c-0.2-1.4-0.2-2.6-0.2-3.5
			c0-0.8-0.1-1.3-0.3-1.4c-0.1-0.1-0.8-0.1-2.1-0.1c-1,0-1.6,0-1.6,0.1s-0.1,0.3-0.1,0.5c0,0.6,0.1,1.5,0.1,2.5
			c0.1,1.2,0.1,2.2,0.1,2.9v0.4c0,0.2-0.2,0.4-0.7,0.6c-0.4,0.2-0.8,0.2-1.2,0.2c-0.2,0-0.3,0-0.4,0c-1-0.3-1.6-0.7-1.7-1.3
			c0,0,0-0.1,0-0.2s0-0.2,0-0.3c0-1.3,0.2-4,0.5-8.2s0.5-6.6,0.7-7.3c0.2-0.8,0.5-1.8,1.1-2.9C182.7,156.3,183.2,155.6,183.6,155.2z
			 M186.7,159.9c-0.2-0.9-0.4-1.3-0.6-1.3c-0.2,0-0.5,0.3-0.7,1c-0.6,1.2-0.9,2.9-1.1,5c-0.1,0.9-0.1,1.4-0.1,1.5
			c0,0.4,0.1,0.7,0.2,0.8c0.2,0.1,0.6,0.2,1.2,0.2c0.9,0,1.4-0.1,1.5-0.3c0.1-0.1,0.1-0.5,0.1-1.2
			C187.2,163.5,187,161.6,186.7,159.9z"/>
		<path class="st2" d="M198.1,152.7c0.3-0.1,0.7-0.2,1.2-0.2c1,0,2.1,0.2,3.2,0.7c1.1,0.5,1.9,1,2.3,1.7c0.5,0.7,0.7,1.5,0.7,2.4
			c0,1-0.3,2.4-1,4l-0.5,1.2l0.8,0.8c0.6,0.5,1,1.2,1.4,1.9c0.3,0.8,0.5,1.5,0.5,2.2s0,1.3,0,1.8c-0.1,1.3-0.1,2.2-0.2,2.6
			s-0.3,1-0.7,1.7c-0.7,1.5-1.4,2.4-1.9,2.9c-0.6,0.5-1.4,0.7-2.5,0.7c-1.2,0-1.9,0-2.2,0.1h-0.1c-0.5,0-0.9-0.2-1.3-0.8
			c-0.4-0.5-0.7-1.1-0.8-1.8c0-0.2,0-0.5,0-1c0-0.9,0-1.8,0.1-2.7c0.2-1.5,0.3-5.4,0.3-11.6c0-3.2-0.1-4.9-0.1-5.1
			c0,0-0.1-0.1-0.1-0.2c0-0.2,0.1-0.5,0.3-0.8C197.7,153,197.9,152.8,198.1,152.7z M202.7,166c-0.2-0.2-0.4-0.4-0.8-0.4
			c-0.3,0-0.6,0.1-0.8,0.5c-0.2,0.3-0.3,2-0.3,4.9c0,1.5,0.1,2.2,0.1,2.3h0.1c0.2,0,0.4-0.2,0.7-0.7s0.6-1,0.8-1.6
			c0.3-0.8,0.5-1.8,0.5-3.2C203,167,202.9,166.3,202.7,166z M201.6,157c-0.1-0.3-0.2-0.4-0.4-0.4s-0.3,0.6-0.3,1.8
			c0,1.1,0.1,1.6,0.1,1.6h0.1c0.1-0.2,0.3-0.5,0.4-0.9c0.1-0.5,0.2-0.8,0.2-1.1c0-0.1,0-0.3-0.1-0.5
			C201.6,157.3,201.6,157.1,201.6,157z"/>
		<path class="st2" d="M211.8,150.9c0.4-0.4,0.8-0.6,1.4-0.6c0.6,0,1,0.2,1.4,0.6l0.6,0.6l0.3,10.3c0.2,5.7,0.2,9,0.2,9.8
			c0,0.5,0,0.8,0,1.1c0,0.3,0,0.5-0.1,0.7s-0.1,0.3-0.1,0.4c-0.1,0.1-0.1,0.2-0.1,0.2s-0.1,0.1-0.2,0.1s-0.2,0.1-0.2,0.1
			c-0.3,0.2-0.6,0.3-0.8,0.3c-0.1,0-0.4-0.1-0.9-0.2c-0.7-0.3-1.1-0.6-1.2-0.8c-0.1-0.1-0.2-3.8-0.3-11s-0.1-10.8-0.2-10.9
			C211.3,151.5,211.4,151.2,211.8,150.9z"/>
		<path class="st2" d="M221.2,151c0.4-0.4,1.1-0.5,2.1-0.5h1.1c1.6,0.1,2.6,0.1,3,0.2c0.2,0.1,0.6,0.1,1.3,0.2s1.2,0.2,1.5,0.4
			c0.3,0.2,0.5,0.6,0.5,1.2s-0.2,1-0.4,1.2s-0.6,0.4-1.1,0.5c-0.6,0.1-1,0.2-1.1,0.3c-0.2,0.2-0.2,3.1-0.2,8.7
			c0,3.9,0.1,6.7,0.1,8.3c0.1,1.3,0.1,2,0.1,2.1c0,0.6-0.1,1.2-0.4,1.7c-0.3,0.6-0.9,0.9-1.6,0.9c-0.5,0-0.9-0.1-1.4-0.4l-0.9-0.5
			l0.1-10.4c0.1-2.7,0.1-5.4,0.1-8.1c0-1.6-0.1-2.5-0.4-2.6c-0.4-0.2-0.6-0.3-0.7-0.2c-0.1,0-0.3,0.1-0.5,0.1c-0.6,0-1-0.2-1.4-0.5
			s-0.6-0.7-0.6-1.1C220.5,151.8,220.8,151.4,221.2,151z"/>
		<path class="st2" d="M239,151.9c0.4-0.2,0.8-0.3,1.3-0.3c0.3,0,0.6,0,0.8,0c0.9,0.1,1.5,0.2,1.8,0.4c0.3,0.1,0.6,0.5,0.9,0.9
			c0.3,0.5,0.5,1,0.5,1.5s-0.2,1-0.6,1.4c-0.4,0.4-0.7,0.5-1.1,0.5c-0.4,0-0.8-0.3-1.1-0.8c-0.3-0.4-0.6-0.6-0.9-0.6
			c-0.3,0-0.5,0.2-0.8,0.6s-0.4,0.8-0.5,1.3v0.2c0,1.7,1.3,4.8,3.8,9.3c0.4,0.7,0.8,2.1,1.2,4c0,0.1,0,0.3,0,0.6c0,1.7-0.3,3-1,3.9
			c-0.3,0.4-0.8,0.8-1.5,1c-0.7,0.3-1.3,0.5-1.9,0.5c-0.1,0-0.1,0-0.2,0c-0.1,0-0.1,0-0.2,0c-0.7-0.1-1.5-0.6-2.5-1.6
			c-1-0.9-1.5-1.7-1.5-2.2c0-0.2,0.2-0.5,0.5-0.8s0.7-0.5,1-0.6c0.1,0,0.2,0,0.3,0c0.3,0,0.9,0.5,1.6,1.5c0.3,0.4,0.6,0.6,0.9,0.6
			c0.3,0,0.5-0.2,0.7-0.5c0.1-0.1,0.1-0.4,0.1-0.7c0-1.8-0.8-4.3-2.4-7.7c-1.5-3.2-2.2-5.5-2.2-7c0-0.7,0.1-1.3,0.4-1.9
			c0.5-1.2,0.9-2,1.1-2.3C237.9,152.6,238.3,152.2,239,151.9z"/>
		<path class="st2" d="M249.4,171.7c0.3-0.3,0.6-0.5,1-0.5c0.1,0,0.3,0,0.7,0.1c1.2,0.2,1.8,0.7,1.8,1.4c0,0.5-0.4,1-1.1,1.5
			c-0.6,0.4-1.1,0.6-1.5,0.6c-0.6,0-1-0.5-1.2-1.5c0-0.2-0.1-0.4-0.1-0.6C249,172.3,249.1,172,249.4,171.7z"/>
		<path class="st3" d="M108.1,129.9l-8.1,5.7l-7-13.8c-1.3-2.1-0.7-4.9,1.5-6.1c1.1-0.6,2.3-0.8,3.5-0.5s2.2,1,2.9,2L108.1,129.9z"
			/>
		<path class="st3" d="M103.8,142.3c-0.3,1.2-1.1,2.3-2.2,3s-2.4,0.9-3.6,0.7c-1.2-0.3-2.1-0.9-2.7-2l-0.2-0.3L85.9,128l-0.6-1
			c-0.6-1-0.7-2.2-0.4-3.4c0.3-1.2,1.1-2.3,2.2-2.9c1.1-0.7,2.4-0.9,3.6-0.7c1.2,0.3,2.1,0.9,2.7,2l2.1,3.5
			c-0.4,0.3,7.7,13.2,7.7,13.2l0.2,0.3C103.9,140,104.1,141.2,103.8,142.3z"/>
		<path class="st3" d="M92.3,147.2c-2.2,1.4-5.1,0.7-6.5-1.6l-8.2-14l-1-1.7c-1.3-2.2-0.6-5.2,1.7-6.6c2.2-1.4,5.1-0.7,6.5,1.6
			l9.2,15.7C95.2,142.8,94.5,145.8,92.3,147.2z"/>
		<path class="st3" d="M83.5,150c-2.2,1.4-5.1,0.7-6.5-1.6l-8.2-14c-1.3-2.3-0.6-5.2,1.7-6.6c1.1-0.7,2.3-0.9,3.6-0.6
			s2.2,1.1,2.9,2.2l8.2,14C86.5,145.6,85.7,148.6,83.5,150z"/>
		<path class="st3" d="M125.4,165.5l-21.7,13.1c-0.3-0.4-11.5-19.1-11.8-19.4c0-0.1-0.1-0.1-0.1-0.1c-11-0.8-16.6-13.6-16.6-13.6
			s22.9-17,30.9-18.6c0.5-0.2,0.6-1.8-0.3-2.6c-2.7-3-3.4,2.4-8.8-3.3c-1.2-1.3-0.9-3.4,0.6-4.3l8.3-4.5c1.9-1,4.2-0.4,5.3,1.4
			l6,9.5c1.9,1.4-2.5,22.1-2.4,24.2c-0.1,0.4,0,0.8,0.2,1.1C115,148.4,125.4,165.5,125.4,165.5z"/>
		<path class="st4" d="M93.2,91L91,87.3l1.8-1.1c2.5-1.5,3.3-4.8,1.8-7.3L87.4,67c-1-1.6-2.5-2.9-4.3-3.5l-19.5-6.9L52.7,38.5
			c-0.2-0.4-0.6-0.7-1.1-0.8c-0.5-0.1-0.9,0-1.3,0.2L25.7,52.8c-0.8,0.5-1.1,1.6-0.6,2.4l12,19.8c-2.4,5.3-2,11.3,1,16.2l10.8,17.9
			l2,3.2c1,1.7,2.7,2.8,4.5,3.3c1.8,0.4,3.8,0.2,5.5-0.8c1.6-1,2.7-2.5,3.2-4.1c0.5,0.2,1,0.4,1.5,0.6c1.8,0.5,3.8,0.2,5.5-0.8
			c1.7-1.1,2.9-2.8,3.3-4.6c0.3,0.1,0.6,0.2,0.9,0.3c1.8,0.4,3.8,0.2,5.5-0.8c1.6-1,2.7-2.5,3.2-4.2c0.4,0.2,0.9,0.4,1.4,0.5
			c1.9,0.5,3.8,0.2,5.5-0.8C94.2,98.9,95.3,94.5,93.2,91z"/>
		<path class="st2" d="M72.4,150.8c-1-0.2-1.9,0.5-2,1.4l-2.9,15.7c-0.2,1,0.5,1.9,1.4,2c1,0.2,1.9-0.5,2-1.4l2.9-15.6
			C73.9,151.9,73.3,150.9,72.4,150.8z"/>
		<path class="st2" d="M42.3,132.4l-13.1,9c-0.8,0.5-1,1.7-0.5,2.4c0.3,0.4,0.7,0.7,1.1,0.7c0.5,0.1,0.9,0,1.3-0.3l13.1-9
			c0.8-0.5,1-1.7,0.4-2.4C44.2,132,43.1,131.8,42.3,132.4z"/>
		<path class="st2" d="M38.1,117.4c-0.2-0.9-1.1-1.6-2.1-1.4l-15.6,3.3c-1,0.2-1.6,1.1-1.4,2.1c0.2,0.7,0.7,1.2,1.4,1.4
			c0.2,0,0.5,0,0.7,0l15.6-3.3C37.7,119.3,38.3,118.4,38.1,117.4z"/>
		<path class="st2" d="M56.8,144.5c-0.8-0.5-1.9-0.3-2.4,0.5l-8.7,13.3c-0.5,0.8-0.3,1.9,0.5,2.4c0.2,0.1,0.4,0.2,0.6,0.2
			c0.7,0.1,1.4-0.2,1.8-0.8l8.7-13.3C57.8,146.2,57.6,145.1,56.8,144.5z"/>
		<path class="st2" d="M140.2,117.8l-15.6-2.9c-1-0.2-1.9,0.5-2,1.4c-0.2,1,0.5,1.9,1.4,2l15.6,2.9c1,0.2,1.9-0.5,2-1.4
			C141.8,118.9,141.2,118,140.2,117.8z"/>
		<path class="st2" d="M116.8,84.8c0.5,0.1,0.9,0,1.3-0.3l13.1-9c0.8-0.5,1-1.6,0.4-2.4s-1.6-1-2.4-0.5l-13.1,9
			c-0.8,0.5-1,1.6-0.4,2.4C115.9,84.5,116.3,84.7,116.8,84.8z"/>
		<path class="st2" d="M122.3,99.5c0.2,0.7,0.7,1.2,1.4,1.4c0.2,0,0.4,0,0.7,0l15.6-3.3c0.9-0.2,1.6-1.1,1.3-2.1
			c-0.2-0.9-1.1-1.6-2.1-1.3l-15.6,3.3C122.7,97.6,122.1,98.6,122.3,99.5z"/>
		<path class="st2" d="M103.6,72.4c0.2,0.1,0.4,0.2,0.6,0.2c0.7,0.1,1.4-0.1,1.8-0.8l8.7-13.3c0.5-0.8,0.3-1.9-0.5-2.4
			s-1.9-0.3-2.4,0.5l-8.7,13.3C102.6,70.8,102.8,71.9,103.6,72.4z"/>
	</g>
</g>
</svg>
