<?xml version="1.0" encoding="utf-8"?>
<!-- Generator: Adobe Illustrator 25.1.0, SVG Export Plug-In . SVG Version: 6.00 Build 0)  -->
<svg version="1.1" id="Layer_1" xmlns="http://www.w3.org/2000/svg" xmlns:xlink="http://www.w3.org/1999/xlink" x="0px" y="0px"
	 viewBox="0 0 323.5 296.6" style="enable-background:new 0 0 323.5 296.6;" xml:space="preserve">
<style type="text/css">
	.st0{fill:#FFFFFF;}
	.st1{fill:#00CDDC;}
	.st2{fill:#28C86E;}
	.st3{fill:#3CDC82;}
	.st4{fill:#32DCD2;}
	.st5{fill:#FFCF8D;}
	.st6{fill:#FF9F1A;}
	.st7{fill:none;stroke:#28C86E;stroke-width:2.937;stroke-linecap:round;stroke-miterlimit:10;}
</style>
<g>
	<g>
		<g>
			<g>
				<path class="st0" d="M321.9,133c-1.7-102.7-22.1-100.5-61.7-114.6C189.5-6.8-3.6-36.5,0,156.3c1.3,69.6-1.1,112.8,42.9,129.5
					c52.8,20,156.8,6,206.2,6.4C339.6,292.9,322.3,159.1,321.9,133z"/>
				<path class="st1" d="M233.4,142.2c0.1,3.7-12.4,3.5-22.2-1.7c-15.7-7.7-47.4-39.9-28.2-74.3C196.6,41.6,233.1,142.9,233.4,142.2
					z"/>
				<path class="st1" d="M110.1,127.5c0.9,3.2,3.8,10.6,18.8,6.3c12.4-12.4,48.7-48.1,22.6-71C132.7,46.5,110.6,127.9,110.1,127.5z"
					/>
				<path class="st2" d="M243.1,123.1c0,0-58.8,17.7-82.9-20C160.2,103,195.6,82.2,243.1,123.1z"/>
				<path class="st3" d="M214,91.1c0,0-19.8,28.5-62,15.6C152,106.8,157.4,93,214,91.1z"/>
				<path class="st4" d="M130.1,107.5c-17.1,8-43.3,30.6-40.3,75.8c0.8,12.1,2.6,33.6,10,46.3c7.4,12.7-3,25.2,0.9,37.2
					c6.7,20.6,24.1-11.7,78-16.1c32.3-2.6,52.6,17.4,53.8-5.4c0.4-8.5-14-11.1-9.4-24.7c5.7-16.8,16-9.5,17.4-35.5
					C245.1,98.3,162.9,92.3,130.1,107.5z"/>
				<path d="M144,155.3c0,3-2.4-2.6-5.3-2.6c-3,0-5.4,5.6-5.4,2.6c0-2.9,2.4-5.4,5.4-5.4C141.6,150,144,152.4,144,155.3z"/>
				<path d="M188,155.3c0,3-2.4-2.6-5.4-2.6c-3,0-5.3,5.6-5.3,2.6c0-2.9,2.4-5.4,5.3-5.4C185.6,150,188,152.4,188,155.3z"/>
				<path d="M171.1,167.1c0,1.5-4.1,9.6-10,9.6c-5.9,0-11.4-8.1-11.4-9.6s4.8-0.2,10.7-0.2C166.3,166.9,171.1,165.7,171.1,167.1z"/>
				<path class="st0" d="M161.4,169.1H159c-0.4,0-0.6-0.3-0.6-0.6v-1.6h3.7v1.6C162.1,168.8,161.8,169.1,161.4,169.1z"/>
				<path class="st5" d="M172.6,65h-7.2v6.7h7.2V65z"/>
				<path class="st5" d="M155.9,51.4c-3.8-1.5-9-5.6-9-9.7v-2.5h6.5V34h-9.2c-1.5,0-2.7,1.1-2.7,2.6v5.1c0,7,7.6,13.5,14.5,15.1
					V51.4z"/>
				<path class="st5" d="M182,51.4c3.8-1.5,9.1-5.6,9.1-9.7v-2.5h-6.5V34h9.2c1.5,0,2.7,1.1,2.7,2.6v5.1c0,7-7.6,13.5-14.5,15.1
					V51.4z"/>
				<path class="st6" d="M186.9,30.2c0,0-0.8-1.3-1.7-1.3h-32.5c-0.8,0-1.7,1.3-1.7,1.3l-0.1,19.1c0,2.6,0.7,17.8,18,17.8
					s18-15.2,18-17.8L186.9,30.2z"/>
				<path class="st5" d="M170.1,39.8l1.6,3.2c0.2,0.4,0.5,0.6,0.9,0.7l3.5,0.5c1,0.1,1.4,1.4,0.7,2.1l-2.6,2.5
					c-0.3,0.3-0.4,0.7-0.4,1.1l0.6,3.5c0.2,1-0.9,1.8-1.8,1.3l-3.1-1.7c-0.4-0.2-0.8-0.2-1.2,0l-3.1,1.7c-0.9,0.5-2-0.3-1.8-1.3
					l0.6-3.5c0.1-0.4-0.1-0.8-0.4-1.1l-2.5-2.5c-0.7-0.7-0.3-2,0.7-2.1l3.5-0.5c0.4-0.1,0.8-0.3,0.9-0.7l1.6-3.2
					C168.3,38.9,169.6,38.9,170.1,39.8z"/>
				<path class="st6" d="M184.1,76.8h-30.2c-0.8,0-1.6,0.5-1.6,1.2c0,0,0,0,0,0v6.2c0,0.9,0.8,1.5,1.7,1.5h29.8c1,0,1.7-0.7,1.7-1.5
					v-6.1c0-0.2-0.1-0.4-0.2-0.6C185.2,77.1,184.6,76.8,184.1,76.8z"/>
				<path class="st6" d="M178.2,77V73c0-1-0.8-1.7-1.8-1.7l-15.3,0c-0.8,0.2-1.4,0.9-1.4,1.7v4.2L178.2,77L178.2,77z"/>
				<path class="st2" d="M174.2,73.9c0,0,6.5,8.1,1.1,18.4C175.2,92.3,171.9,89.6,174.2,73.9z"/>
				<path class="st2" d="M188.7,92.1c0,0-6.7,10-16.2,3.2C172.5,95.3,176.2,91.3,188.7,92.1z"/>
				<path class="st7" d="M168.5,103.9c0.1-1.2,3-15.8,25-21.1"/>
				<path class="st5" d="M198.1,78.8c0,0-0.9-12.3-6-11.9C186.9,67.2,194.7,79.4,198.1,78.8z"/>
				<path class="st5" d="M198.1,78.6c0,0-8.8-10.2-11-5.6C184.9,77.6,196.9,82,198.1,78.6z"/>
				<path class="st5" d="M199,80.7c0,0-10.9-6.9-11.2-1.3C187.4,84.9,199.1,84.6,199,80.7z"/>
				<path class="st5" d="M200.2,81c0,0,6.4-11.2,0.9-11.3C195.5,69.7,196.3,81.3,200.2,81z"/>
				<path class="st5" d="M198.5,81.3c0,0,9.6,8.7,10.8,3.3C210.6,79.2,199.1,77.4,198.5,81.3z"/>
				<path class="st5" d="M198.4,82.6c0,0,10.2-2.5,7.6-6C203.4,73.1,196.3,80.3,198.4,82.6z"/>
				<path class="st5" d="M199.1,81.9c0,0,11.3,4.8,9.3,9.6C206.4,96.3,197.4,85,199.1,81.9z"/>
				<path class="st5" d="M199.7,81.2c0,0,6.8,11.6,1.7,12.2C196.3,94,196.1,81.2,199.7,81.2z"/>
				<path class="st5" d="M199.8,80.4c0,0-2.4,12.7-6.7,9.2C188.9,86,197.1,77.6,199.8,80.4z"/>
				<path class="st6" d="M203,86.6c1.4-1,0.6-4.4-1.8-7.7c-2.4-3.3-5.4-5.2-6.7-4.2c-1.4,1-0.6,4.4,1.8,7.7S201.6,87.6,203,86.6z"/>
			</g>
		</g>
	</g>
</g>
</svg>
