<?xml version="1.0" encoding="utf-8"?>
<!-- Generator: Adobe Illustrator 25.1.0, SVG Export Plug-In . SVG Version: 6.00 Build 0)  -->
<svg version="1.1" id="Layer_1" xmlns="http://www.w3.org/2000/svg" xmlns:xlink="http://www.w3.org/1999/xlink" x="0px" y="0px"
	 viewBox="0 0 339.8 202.3" style="enable-background:new 0 0 339.8 202.3;" xml:space="preserve">
<style type="text/css">
	.st0{fill:#FFFFFF;}
	.st1{fill:#808080;}
	.st2{fill:#00A878;}
	.st3{fill:#F4F1EF;}
	.st4{fill:#00CDDC;}
	.st5{fill:#28C86E;}
	.st6{fill:#3CDC82;}
	.st7{fill:#32DCD2;}
	.st8{fill:none;stroke:#28C86E;stroke-width:1.764;stroke-linecap:round;stroke-miterlimit:10;}
	.st9{fill:#FFCF8D;}
	.st10{fill:#FF9F1A;}
</style>
<g>
	<g>
		<g>
			<path class="st0" d="M14.7,192.9c20.2,13,299.9,12.4,318.1-1.4c10.7-8.1,7-100.8,2.7-158.9c-3-40.9-33.4-25.1-124-29.9
				C182.6,1.2,48.7-5,17.4,8.8C3.2,15-2.8,74.2,1.2,108.3C3.5,127.1-5.5,179.9,14.7,192.9z"/>
			<path class="st1" d="M189.1,68.2V58.1h-3.3V57h8v1.1h-3.3v10.1H189.1z"/>
			<path class="st1" d="M195.4,68.2V56.7h1.3v4.9c0.3-0.5,0.6-0.9,1.1-1.1c0.5-0.3,1-0.4,1.6-0.4c0.9,0,1.7,0.3,2.2,0.9
				c0.6,0.6,0.8,1.4,0.8,2.6v4.6h-1.3v-4.5c0-1.7-0.7-2.5-2-2.5c-0.7,0-1.3,0.2-1.7,0.7c-0.5,0.5-0.7,1.2-0.7,2.1v4.1L195.4,68.2
				L195.4,68.2z"/>
			<path class="st1" d="M205.4,58.5c-0.3,0-0.5-0.1-0.7-0.3s-0.3-0.4-0.3-0.7s0.1-0.5,0.3-0.6c0.2-0.2,0.4-0.3,0.7-0.3
				s0.5,0.1,0.7,0.3s0.3,0.4,0.3,0.6c0,0.3-0.1,0.5-0.3,0.7C205.8,58.5,205.6,58.5,205.4,58.5z M204.7,68.2v-7.9h1.3v7.9H204.7z"/>
			<path class="st1" d="M211.4,68.4c-0.9,0-1.7-0.2-2.4-0.7c-0.6-0.5-1-1.1-1.1-2h1.4c0.1,0.4,0.3,0.8,0.7,1.1
				c0.3,0.3,0.8,0.5,1.4,0.5c0.6,0,1-0.1,1.2-0.4c0.3-0.2,0.4-0.5,0.4-0.9c0-0.5-0.2-0.8-0.5-1c-0.4-0.2-0.8-0.3-1.5-0.4
				c-0.4-0.1-0.9-0.2-1.3-0.4c-0.4-0.2-0.8-0.4-1.1-0.7s-0.4-0.7-0.4-1.2c0-0.7,0.3-1.3,0.8-1.7s1.2-0.7,2.1-0.7
				c0.8,0,1.5,0.2,2.1,0.6c0.5,0.4,0.9,1,0.9,1.8h-1.3c-0.1-0.4-0.2-0.7-0.5-0.9s-0.7-0.3-1.2-0.3s-0.9,0.1-1.1,0.3
				s-0.4,0.5-0.4,0.8s0.2,0.6,0.5,0.8s0.8,0.3,1.4,0.5c0.5,0.1,1,0.2,1.4,0.4c0.4,0.1,0.8,0.4,1.1,0.7s0.4,0.7,0.4,1.3
				c0,0.7-0.3,1.3-0.8,1.8C213.1,68.2,212.4,68.4,211.4,68.4z"/>
			<path class="st1" d="M224.3,68.4c-0.8,0-1.4-0.2-2-0.5c-0.6-0.4-1.1-0.8-1.4-1.5c-0.3-0.6-0.5-1.3-0.5-2.2c0-0.9,0.2-1.6,0.5-2.2
				c0.4-0.6,0.8-1.1,1.4-1.5c0.6-0.4,1.3-0.5,2-0.5c0.9,0,1.7,0.2,2.4,0.7s1.1,1.1,1.2,2h-1.4c-0.1-0.5-0.4-0.9-0.8-1.1
				c-0.4-0.3-0.9-0.4-1.5-0.4c-0.4,0-0.9,0.1-1.3,0.3c-0.4,0.2-0.7,0.6-1,1c-0.2,0.5-0.4,1-0.4,1.7s0.1,1.2,0.4,1.7s0.6,0.8,1,1
				s0.8,0.3,1.3,0.3c0.6,0,1-0.1,1.5-0.4c0.4-0.3,0.7-0.7,0.8-1.2h1.4c-0.2,0.8-0.6,1.4-1.2,1.9C226,68.2,225.2,68.4,224.3,68.4z"/>
			<path class="st1" d="M233.4,68.4c-0.8,0-1.4-0.2-2-0.5s-1.1-0.8-1.4-1.4c-0.3-0.6-0.5-1.4-0.5-2.2c0-0.8,0.2-1.6,0.5-2.2
				c0.4-0.6,0.8-1.1,1.4-1.5c0.6-0.3,1.3-0.5,2-0.5s1.4,0.2,2,0.5s1.1,0.8,1.4,1.5c0.3,0.6,0.5,1.4,0.5,2.2s-0.2,1.6-0.5,2.2
				s-0.8,1.1-1.4,1.4C234.8,68.3,234.1,68.4,233.4,68.4z M233.4,67.3c0.5,0,0.9-0.1,1.3-0.3c0.4-0.2,0.7-0.6,1-1
				c0.2-0.4,0.4-1,0.4-1.7c0-0.7-0.1-1.2-0.4-1.7s-0.6-0.8-0.9-1c-0.4-0.2-0.8-0.3-1.3-0.3s-0.9,0.1-1.3,0.3c-0.4,0.2-0.7,0.6-1,1
				s-0.4,1-0.4,1.7c0,0.7,0.1,1.2,0.4,1.7c0.2,0.4,0.6,0.8,0.9,1C232.5,67.2,232.9,67.3,233.4,67.3z"/>
			<path class="st1" d="M242.1,68.4c-0.9,0-1.7-0.3-2.2-0.9s-0.8-1.5-0.8-2.6v-4.6h1.3v4.5c0,1.6,0.7,2.5,2,2.5
				c0.7,0,1.3-0.2,1.7-0.7s0.7-1.2,0.7-2.1v-4.1h1.3v7.9h-1.2l-0.1-1.4c-0.2,0.5-0.6,0.9-1.1,1.2C243.2,68.3,242.7,68.4,242.1,68.4z
				"/>
			<path class="st1" d="M248.4,68.2V56.7h1.3v11.5H248.4z"/>
			<path class="st1" d="M255.5,68.4c-0.8,0-1.5-0.2-2.1-0.5c-0.6-0.4-1.1-0.9-1.4-1.5c-0.3-0.6-0.5-1.3-0.5-2.1
				c0-0.8,0.2-1.5,0.5-2.1s0.8-1.1,1.4-1.5s1.3-0.5,2.1-0.5c0.6,0,1.2,0.1,1.7,0.4c0.5,0.3,0.9,0.6,1.2,1.1v-4.9h1.3v11.5h-1.2
				l-0.1-1.3c-0.3,0.4-0.6,0.7-1.1,1S256.2,68.4,255.5,68.4z M255.7,67.3c0.5,0,1-0.1,1.4-0.4c0.4-0.2,0.7-0.6,1-1.1
				c0.2-0.4,0.3-1,0.3-1.6c0-0.6-0.1-1.1-0.3-1.6c-0.2-0.4-0.6-0.8-1-1.1c-0.4-0.2-0.9-0.4-1.4-0.4s-1,0.1-1.4,0.4s-0.7,0.6-1,1.1
				c-0.2,0.4-0.3,1-0.3,1.6c0,0.6,0.1,1.1,0.3,1.6c0.2,0.4,0.6,0.8,1,1.1C254.7,67.1,255.1,67.3,255.7,67.3z"/>
			<path class="st1" d="M267,58.5c-0.3,0-0.5-0.1-0.7-0.3s-0.3-0.4-0.3-0.7s0.1-0.5,0.3-0.6c0.2-0.2,0.4-0.3,0.7-0.3
				c0.3,0,0.5,0.1,0.7,0.3s0.3,0.4,0.3,0.6c0,0.3-0.1,0.5-0.3,0.7C267.5,58.5,267.3,58.5,267,58.5z M266.3,68.2v-7.9h1.3v7.9H266.3z
				"/>
			<path class="st1" d="M270,68.2v-7.9h1.2l0.1,1.4c0.3-0.5,0.6-0.9,1.1-1.2s1-0.4,1.6-0.4c0.9,0,1.7,0.3,2.2,0.9
				c0.6,0.6,0.8,1.4,0.8,2.6v4.6h-1.3v-4.5c0-1.7-0.7-2.5-2-2.5c-0.7,0-1.2,0.2-1.7,0.7s-0.7,1.2-0.7,2.1v4.1L270,68.2L270,68.2z"/>
			<path class="st1" d="M282.8,68.4c-0.8,0-1.4-0.2-2-0.5c-0.6-0.4-1.1-0.8-1.4-1.5c-0.4-0.6-0.5-1.3-0.5-2.2c0-0.9,0.2-1.6,0.5-2.2
				c0.4-0.6,0.8-1.1,1.4-1.5s1.3-0.5,2-0.5c0.9,0,1.7,0.2,2.4,0.7c0.6,0.5,1.1,1.1,1.2,2H285c-0.1-0.5-0.4-0.9-0.8-1.1
				c-0.4-0.3-0.9-0.4-1.5-0.4c-0.5,0-0.9,0.1-1.3,0.3s-0.7,0.6-1,1c-0.2,0.5-0.4,1-0.4,1.7s0.1,1.2,0.4,1.7s0.6,0.8,1,1
				s0.8,0.3,1.3,0.3s1-0.1,1.5-0.4c0.4-0.3,0.7-0.7,0.8-1.2h1.4c-0.2,0.8-0.6,1.4-1.2,1.9S283.8,68.4,282.8,68.4z"/>
			<path class="st1" d="M288.3,68.2V56.7h1.3v11.5H288.3z"/>
			<path class="st1" d="M294.7,68.4c-0.9,0-1.7-0.3-2.2-0.9c-0.6-0.6-0.8-1.5-0.8-2.6v-4.6h1.3v4.5c0,1.6,0.7,2.5,2,2.5
				c0.7,0,1.3-0.2,1.7-0.7c0.5-0.5,0.7-1.2,0.7-2.1v-4.1h1.3v7.9h-1.2l-0.1-1.4c-0.2,0.5-0.6,0.9-1.1,1.2S295.4,68.4,294.7,68.4z"/>
			<path class="st1" d="M304.6,68.4c-0.8,0-1.5-0.2-2.1-0.5s-1-0.9-1.4-1.5c-0.3-0.6-0.5-1.3-0.5-2.1c0-0.8,0.2-1.5,0.5-2.1
				s0.8-1.1,1.4-1.5s1.3-0.5,2.1-0.5c0.6,0,1.2,0.1,1.7,0.4c0.5,0.3,0.9,0.6,1.2,1.1v-4.9h1.3v11.5h-1.2l-0.1-1.3
				c-0.3,0.4-0.6,0.7-1.1,1S305.3,68.4,304.6,68.4z M304.7,67.3c0.5,0,1-0.1,1.4-0.4c0.4-0.2,0.7-0.6,1-1.1c0.2-0.4,0.3-1,0.3-1.6
				c0-0.6-0.1-1.1-0.3-1.6c-0.2-0.4-0.6-0.8-1-1.1c-0.4-0.2-0.9-0.4-1.4-0.4s-1,0.1-1.4,0.4s-0.7,0.6-1,1.1c-0.2,0.4-0.3,1-0.3,1.6
				c0,0.6,0.1,1.1,0.3,1.6c0.2,0.4,0.5,0.8,1,1.1C303.8,67.1,304.2,67.3,304.7,67.3z"/>
			<path class="st1" d="M314.6,68.4c-0.8,0-1.4-0.2-2-0.5c-0.6-0.4-1.1-0.8-1.4-1.4s-0.5-1.4-0.5-2.2c0-0.8,0.2-1.6,0.5-2.2
				c0.3-0.6,0.8-1.1,1.4-1.5s1.3-0.5,2.1-0.5c0.8,0,1.4,0.2,2,0.5s1,0.8,1.3,1.4s0.5,1.2,0.5,1.8c0,0.1,0,0.2,0,0.3
				c0,0.1,0,0.2,0,0.4H312c0,0.6,0.2,1.1,0.4,1.5c0.2,0.4,0.6,0.7,0.9,0.9c0.4,0.2,0.8,0.3,1.2,0.3c0.6,0,1-0.1,1.4-0.4
				s0.6-0.6,0.8-1h1.3c-0.2,0.7-0.6,1.4-1.2,1.8C316.3,68.2,315.6,68.4,314.6,68.4z M314.6,61.3c-0.6,0-1.2,0.2-1.7,0.6
				c-0.5,0.4-0.8,1-0.9,1.7h5c0-0.7-0.3-1.3-0.7-1.7C315.9,61.5,315.3,61.3,314.6,61.3z"/>
			<path class="st1" d="M189.1,124.8c-0.7,0-1.2-0.1-1.7-0.3c-0.4-0.2-0.8-0.5-1-0.9s-0.3-0.8-0.3-1.2c0-0.8,0.3-1.4,0.9-1.9
				c0.6-0.4,1.5-0.7,2.5-0.7h2.1v-0.1c0-0.7-0.2-1.2-0.5-1.6s-0.9-0.5-1.5-0.5c-0.5,0-1,0.1-1.3,0.4c-0.4,0.3-0.6,0.6-0.7,1.1h-1.4
				c0.1-0.6,0.2-1.1,0.6-1.5c0.3-0.4,0.8-0.7,1.3-0.9c0.5-0.2,1-0.3,1.6-0.3c1.1,0,1.9,0.3,2.5,0.9s0.8,1.4,0.8,2.4v4.9h-1.2
				l-0.1-1.4c-0.2,0.5-0.5,0.8-1,1.1C190.4,124.6,189.8,124.8,189.1,124.8z M189.3,123.7c0.5,0,1-0.1,1.3-0.4c0.4-0.3,0.6-0.6,0.8-1
				s0.3-0.9,0.3-1.3l0,0h-2c-0.8,0-1.4,0.1-1.7,0.4s-0.5,0.6-0.5,1s0.1,0.8,0.5,1C188.3,123.5,188.7,123.7,189.3,123.7z"/>
			<path class="st1" d="M198.7,124.8c-0.8,0-1.4-0.2-2-0.5c-0.6-0.4-1.1-0.8-1.4-1.5c-0.3-0.6-0.5-1.3-0.5-2.2s0.2-1.6,0.5-2.2
				c0.4-0.6,0.8-1.1,1.4-1.5c0.6-0.4,1.3-0.5,2-0.5c0.9,0,1.7,0.2,2.4,0.7c0.6,0.5,1,1.1,1.2,2H201c-0.1-0.5-0.4-0.9-0.8-1.1
				c-0.4-0.3-0.9-0.4-1.5-0.4c-0.4,0-0.9,0.1-1.3,0.3c-0.4,0.2-0.7,0.6-1,1s-0.4,1-0.4,1.7s0.1,1.2,0.4,1.7s0.6,0.8,1,1
				s0.8,0.3,1.3,0.3c0.6,0,1-0.1,1.5-0.4s0.7-0.7,0.8-1.2h1.4c-0.2,0.8-0.6,1.4-1.2,1.9C200.5,124.5,199.7,124.8,198.7,124.8z"/>
			<path class="st1" d="M207.1,124.6c-0.7,0-1.3-0.2-1.7-0.5c-0.4-0.4-0.6-1-0.6-1.9v-4.4h-1.4v-1.1h1.4l0.2-1.9h1.2v1.9h2.3v1.1
				h-2.3v4.4c0,0.5,0.1,0.8,0.3,1s0.6,0.3,1.1,0.3h0.8v1.2L207.1,124.6L207.1,124.6z"/>
			<path class="st1" d="M211,114.9c-0.3,0-0.5-0.1-0.7-0.3c-0.2-0.2-0.3-0.4-0.3-0.7c0-0.3,0.1-0.5,0.3-0.6c0.2-0.2,0.4-0.3,0.7-0.3
				s0.5,0.1,0.7,0.3s0.3,0.4,0.3,0.6c0,0.3-0.1,0.5-0.3,0.7C211.5,114.8,211.3,114.9,211,114.9z M210.3,124.6v-7.9h1.3v7.9H210.3z"
				/>
			<path class="st1" d="M216.3,124.6l-3-7.9h1.4l2.4,6.6l2.4-6.6h1.4l-3,7.9H216.3z"/>
			<path class="st1" d="M223.2,114.9c-0.3,0-0.5-0.1-0.7-0.3c-0.2-0.2-0.3-0.4-0.3-0.7c0-0.3,0.1-0.5,0.3-0.6
				c0.2-0.2,0.4-0.3,0.7-0.3s0.5,0.1,0.7,0.3c0.2,0.2,0.3,0.4,0.3,0.6c0,0.3-0.1,0.5-0.3,0.7C223.6,114.8,223.4,114.9,223.2,114.9z
				 M222.5,124.6v-7.9h1.3v7.9H222.5z"/>
			<path class="st1" d="M229.3,124.6c-0.7,0-1.3-0.2-1.7-0.5c-0.4-0.4-0.6-1-0.6-1.9v-4.4h-1.4v-1.1h1.4l0.2-1.9h1.2v1.9h2.3v1.1
				h-2.3v4.4c0,0.5,0.1,0.8,0.3,1s0.6,0.3,1.1,0.3h0.8v1.2L229.3,124.6L229.3,124.6z"/>
			<path class="st1" d="M233.2,128.1l2-4.3h-0.5l-3.2-7.2h1.5l2.6,6.2l2.8-6.2h1.4l-5.2,11.5H233.2z"/>
			<path class="st1" d="M245.5,124.6v-11.5h1.3v11.5H245.5z"/>
			<path class="st1" d="M249.9,114.9c-0.3,0-0.5-0.1-0.7-0.3c-0.2-0.2-0.3-0.4-0.3-0.7c0-0.3,0.1-0.5,0.3-0.6
				c0.2-0.2,0.4-0.3,0.7-0.3s0.5,0.1,0.7,0.3s0.3,0.4,0.3,0.6c0,0.3-0.1,0.5-0.3,0.7S250.1,114.9,249.9,114.9z M249.2,124.6v-7.9
				h1.3v7.9H249.2z"/>
			<path class="st1" d="M252.9,124.6v-11.5h1.3v6.9l3.2-3.3h1.6l-3.5,3.6l4,4.4h-1.7l-3.6-4.1v4.1L252.9,124.6L252.9,124.6z"/>
			<path class="st1" d="M263.9,124.8c-0.8,0-1.4-0.2-2-0.5c-0.6-0.4-1.1-0.8-1.4-1.4s-0.5-1.4-0.5-2.2c0-0.8,0.2-1.6,0.5-2.2
				s0.8-1.1,1.4-1.5s1.3-0.5,2.1-0.5c0.8,0,1.4,0.2,2,0.5s1,0.8,1.3,1.4s0.5,1.2,0.5,1.8c0,0.1,0,0.2,0,0.4s0,0.2,0,0.4h-6.3
				c0,0.6,0.2,1.1,0.4,1.5c0.2,0.4,0.6,0.7,0.9,0.9c0.4,0.2,0.8,0.3,1.2,0.3c0.6,0,1-0.1,1.4-0.4s0.6-0.6,0.8-1h1.3
				c-0.2,0.7-0.6,1.4-1.2,1.8C265.6,124.6,264.9,124.8,263.9,124.8z M263.9,117.6c-0.6,0-1.2,0.2-1.7,0.6s-0.8,1-0.9,1.7h5
				c0-0.7-0.3-1.3-0.7-1.7C265.2,117.8,264.6,117.6,263.9,117.6z"/>
			<path class="st1" d="M188,146.6l-2.3-7.9h1.3l1.7,6.2l1.9-6.2h1.5l1.9,6.2l1.7-6.2h1.4l-2.3,7.9h-1.4l-1.9-6.5l-1.9,6.5H188z"/>
			<path class="st1" d="M200.9,146.8c-0.7,0-1.2-0.1-1.6-0.3c-0.4-0.2-0.8-0.5-1-0.9s-0.3-0.8-0.3-1.2c0-0.8,0.3-1.4,0.9-1.9
				c0.6-0.4,1.5-0.7,2.5-0.7h2.1v-0.1c0-0.7-0.2-1.2-0.5-1.6c-0.4-0.4-0.9-0.5-1.5-0.5c-0.5,0-1,0.1-1.3,0.4
				c-0.4,0.3-0.6,0.6-0.7,1.1h-1.4c0-0.6,0.2-1.1,0.6-1.5c0.3-0.4,0.8-0.7,1.3-0.9s1-0.3,1.6-0.3c1.1,0,1.9,0.3,2.5,0.9
				c0.6,0.6,0.8,1.4,0.8,2.4v4.9h-1.2l-0.1-1.4c-0.2,0.5-0.6,0.8-1,1.1C202.2,146.6,201.6,146.8,200.9,146.8z M201.1,145.7
				c0.5,0,0.9-0.1,1.3-0.4c0.4-0.3,0.6-0.6,0.8-1s0.3-0.9,0.3-1.3l0,0h-2c-0.8,0-1.4,0.1-1.7,0.4c-0.3,0.3-0.5,0.6-0.5,1
				s0.1,0.8,0.5,1C200.1,145.5,200.5,145.7,201.1,145.7z"/>
			<path class="st1" d="M206.9,146.6v-11.5h1.3v11.5H206.9z"/>
			<path class="st1" d="M210.4,146.6v-11.5h1.3v6.9l3.2-3.3h1.6l-3.5,3.6l4,4.4h-1.7l-3.6-4.1v4.1L210.4,146.6L210.4,146.6z"/>
			<path class="st1" d="M219.3,136.9c-0.3,0-0.5-0.1-0.7-0.3s-0.3-0.4-0.3-0.7s0.1-0.5,0.3-0.6c0.2-0.2,0.4-0.3,0.7-0.3
				s0.5,0.1,0.7,0.3s0.3,0.4,0.3,0.6c0,0.3-0.1,0.5-0.3,0.7C219.8,136.8,219.6,136.9,219.3,136.9z M218.6,146.6v-7.9h1.3v7.9H218.6z
				"/>
			<path class="st1" d="M222.3,146.6v-7.9h1.2l0.1,1.4c0.3-0.5,0.6-0.9,1.1-1.2s1-0.4,1.6-0.4c0.9,0,1.7,0.3,2.2,0.9
				c0.6,0.6,0.8,1.5,0.8,2.6v4.6H228v-4.5c0-1.6-0.7-2.5-2.1-2.5c-0.7,0-1.2,0.2-1.7,0.7s-0.7,1.2-0.7,2.1v4.1L222.3,146.6
				L222.3,146.6z"/>
			<path class="st1" d="M234.6,144.1c-0.5,0-0.9-0.1-1.2-0.2l-0.8,0.8c0.1,0.1,0.3,0.2,0.4,0.2c0.2,0.1,0.4,0.1,0.8,0.2
				c0.3,0.1,0.8,0.1,1.4,0.2c1.1,0.1,1.8,0.3,2.3,0.7s0.7,1,0.7,1.6c0,0.5-0.1,0.9-0.4,1.3c-0.2,0.4-0.6,0.8-1.1,1
				c-0.5,0.3-1.2,0.4-2,0.4c-0.7,0-1.3-0.1-1.9-0.3s-1-0.5-1.3-0.8c-0.3-0.4-0.5-0.9-0.5-1.4c0-0.3,0.1-0.6,0.2-1
				c0.2-0.3,0.5-0.7,0.9-1c-0.2-0.1-0.4-0.2-0.6-0.3c-0.2-0.1-0.3-0.2-0.5-0.4v-0.4l1.4-1.3c-0.6-0.5-0.9-1.2-0.9-2.1
				c0-0.5,0.1-1,0.4-1.4c0.2-0.4,0.6-0.8,1.1-1s1-0.4,1.7-0.4c0.5,0,0.9,0.1,1.2,0.2h2.9v1l-1.5,0.1c0.3,0.5,0.5,1,0.5,1.5
				s-0.1,1-0.4,1.4c-0.2,0.4-0.6,0.8-1.1,1C235.8,144,235.3,144.1,234.6,144.1z M232.3,147.6c0,0.5,0.2,0.9,0.7,1.2s1,0.4,1.7,0.4
				s1.2-0.1,1.6-0.4c0.4-0.3,0.6-0.7,0.6-1.1c0-0.3-0.1-0.6-0.4-0.9s-0.8-0.4-1.5-0.4c-0.6,0-1.1-0.1-1.5-0.2
				c-0.4,0.2-0.7,0.5-0.9,0.8C232.3,147.2,232.3,147.4,232.3,147.6z M234.6,143c0.6,0,1-0.1,1.3-0.4c0.3-0.3,0.5-0.7,0.5-1.3
				c0-0.5-0.2-1-0.5-1.3s-0.8-0.4-1.3-0.4c-0.6,0-1,0.1-1.4,0.4c-0.3,0.3-0.5,0.7-0.5,1.3c0,0.5,0.2,1,0.5,1.3
				C233.6,142.9,234,143,234.6,143z"/>
			<path class="st1" d="M248.2,146.8c-0.8,0-1.4-0.2-2-0.5s-1.1-0.8-1.4-1.5c-0.4-0.6-0.5-1.4-0.5-2.2s0.2-1.6,0.5-2.2
				c0.3-0.6,0.8-1.1,1.4-1.4s1.3-0.5,2-0.5s1.4,0.2,2,0.5s1.1,0.8,1.4,1.4c0.4,0.6,0.5,1.4,0.5,2.2s-0.2,1.6-0.5,2.2
				c-0.3,0.6-0.8,1.1-1.4,1.5S248.9,146.8,248.2,146.8z M248.2,145.6c0.5,0,0.9-0.1,1.3-0.3c0.4-0.2,0.7-0.6,1-1
				c0.2-0.5,0.4-1,0.4-1.7s-0.1-1.2-0.4-1.7s-0.6-0.8-1-1s-0.8-0.3-1.3-0.3s-0.9,0.1-1.3,0.3c-0.4,0.2-0.7,0.6-1,1s-0.4,1-0.4,1.7
				s0.1,1.2,0.4,1.7s0.6,0.8,1,1C247.3,145.5,247.7,145.6,248.2,145.6z"/>
			<path class="st1" d="M254,146.6v-7.9h1.2l0.1,1.5c0.2-0.5,0.6-0.9,1.1-1.2c0.5-0.3,1.1-0.5,1.9-0.5v1.4h-0.4
				c-0.5,0-0.9,0.1-1.3,0.2c-0.4,0.2-0.7,0.4-0.9,0.8c-0.2,0.4-0.4,0.9-0.4,1.6v4L254,146.6L254,146.6z"/>
			<path class="st1" d="M264.1,146.6v-7.9h1.2l0.1,1.5c0.2-0.5,0.6-0.9,1.1-1.2s1.1-0.5,1.9-0.5v1.4H268c-0.5,0-0.9,0.1-1.3,0.2
				c-0.4,0.2-0.7,0.4-0.9,0.8c-0.2,0.4-0.4,0.9-0.4,1.6v4L264.1,146.6L264.1,146.6z"/>
			<path class="st1" d="M272.8,146.8c-0.9,0-1.7-0.3-2.2-0.9c-0.5-0.6-0.8-1.4-0.8-2.6v-4.6h1.3v4.5c0,1.6,0.7,2.5,2,2.5
				c0.7,0,1.3-0.2,1.7-0.7c0.5-0.5,0.7-1.2,0.7-2.1v-4.1h1.3v7.9h-1.2l-0.1-1.4c-0.2,0.5-0.6,0.9-1.1,1.2
				C273.9,146.7,273.4,146.8,272.8,146.8z"/>
			<path class="st1" d="M279,146.6v-7.9h1.2l0.1,1.4c0.3-0.5,0.6-0.9,1.1-1.2s1-0.4,1.6-0.4c0.9,0,1.7,0.3,2.2,0.9
				c0.6,0.6,0.8,1.5,0.8,2.6v4.6h-1.3v-4.5c0-1.6-0.7-2.5-2-2.5c-0.7,0-1.2,0.2-1.7,0.7c-0.4,0.5-0.7,1.2-0.7,2.1v4.1L279,146.6
				L279,146.6z"/>
			<path class="st1" d="M288.2,146.6v-7.9h1.2l0.1,1.4c0.3-0.5,0.6-0.9,1.1-1.2s1-0.4,1.6-0.4c0.9,0,1.7,0.3,2.2,0.9
				c0.6,0.6,0.8,1.5,0.8,2.6v4.6h-1.3v-4.5c0-1.6-0.7-2.5-2.1-2.5c-0.7,0-1.2,0.2-1.7,0.7s-0.7,1.2-0.7,2.1v4.1L288.2,146.6
				L288.2,146.6z"/>
			<path class="st1" d="M298.1,136.9c-0.3,0-0.5-0.1-0.7-0.3s-0.3-0.4-0.3-0.7s0.1-0.5,0.3-0.6c0.2-0.2,0.4-0.3,0.7-0.3
				c0.3,0,0.5,0.1,0.7,0.3s0.3,0.4,0.3,0.6c0,0.3-0.1,0.5-0.3,0.7C298.6,136.8,298.4,136.9,298.1,136.9z M297.5,146.6v-7.9h1.3v7.9
				H297.5z"/>
			<path class="st1" d="M301.1,146.6v-7.9h1.2l0.1,1.4c0.3-0.5,0.6-0.9,1.1-1.2s1-0.4,1.6-0.4c0.9,0,1.7,0.3,2.2,0.9
				c0.6,0.6,0.8,1.5,0.8,2.6v4.6h-1.3v-4.5c0-1.6-0.7-2.5-2-2.5c-0.7,0-1.2,0.2-1.7,0.7c-0.4,0.5-0.7,1.2-0.7,2.1v4.1L301.1,146.6
				L301.1,146.6z"/>
			<path class="st1" d="M313.4,144.1c-0.4,0-0.9-0.1-1.2-0.2l-0.8,0.8c0.1,0.1,0.3,0.2,0.4,0.2c0.2,0.1,0.4,0.1,0.8,0.2
				c0.3,0.1,0.8,0.1,1.4,0.2c1.1,0.1,1.8,0.3,2.3,0.7s0.7,1,0.7,1.6c0,0.5-0.1,0.9-0.4,1.3c-0.2,0.4-0.6,0.8-1.1,1
				c-0.5,0.3-1.2,0.4-2,0.4c-0.7,0-1.4-0.1-1.9-0.3s-1-0.5-1.3-0.8c-0.3-0.4-0.5-0.9-0.5-1.4c0-0.3,0.1-0.6,0.2-1
				c0.2-0.3,0.5-0.7,0.9-1c-0.2-0.1-0.4-0.2-0.6-0.3s-0.3-0.2-0.5-0.4v-0.4l1.4-1.3c-0.6-0.5-0.9-1.2-0.9-2.1c0-0.5,0.1-1,0.4-1.4
				c0.2-0.4,0.6-0.8,1.1-1s1-0.4,1.7-0.4c0.5,0,0.9,0.1,1.2,0.2h2.9v1l-1.5,0.1c0.3,0.5,0.5,1,0.5,1.5s-0.1,1-0.4,1.4
				c-0.2,0.4-0.6,0.8-1.1,1C314.7,144,314.1,144.1,313.4,144.1z M311.1,147.6c0,0.5,0.2,0.9,0.7,1.2s1,0.4,1.7,0.4s1.2-0.1,1.6-0.4
				c0.4-0.3,0.6-0.7,0.6-1.1c0-0.3-0.1-0.6-0.4-0.9s-0.8-0.4-1.5-0.4c-0.6,0-1.1-0.1-1.5-0.2c-0.4,0.2-0.7,0.5-0.9,0.8
				C311.2,147.2,311.1,147.4,311.1,147.6z M313.4,143c0.6,0,1-0.1,1.4-0.4c0.3-0.3,0.5-0.7,0.5-1.3c0-0.5-0.2-1-0.5-1.3
				s-0.8-0.4-1.4-0.4s-1,0.1-1.4,0.4s-0.5,0.7-0.5,1.3c0,0.5,0.2,1,0.5,1.3C312.4,142.9,312.9,143,313.4,143z"/>
			<path class="st2" d="M191.5,82.4c0.7-0.7,1.8-1.1,3.3-1.1c0.6,0,1.2,0.1,1.6,0.3c0.6,0.3,1,1.1,1.3,2.3c0.2,1.1,0.4,2.9,0.7,5.4
				s0.4,4.5,0.5,5.9c0,1.3,0.1,2.8,0.3,4.4c0.1,1.6,0.3,2.5,0.4,2.7c0,0,0,0.1,0,0.2c0,0.2-0.1,0.6-0.3,0.9
				c-0.2,0.4-0.4,0.6-0.6,0.6c-0.1,0-0.2,0-0.4,0c-0.4,0-0.9-0.1-1.4-0.3c-0.5-0.2-0.8-0.4-0.9-0.6s-0.2-1-0.4-2.3
				c-0.1-1.3-0.2-2.4-0.2-3.2c0-0.8-0.1-1.2-0.2-1.3c-0.1-0.1-0.8-0.1-1.9-0.1c-0.9,0-1.4,0-1.5,0.1c0,0.1,0,0.3,0,0.5
				c0,0.6,0,1.3,0.1,2.3c0.1,1.1,0.1,2,0.1,2.7v0.4c0,0.2-0.2,0.4-0.6,0.5c-0.4,0.1-0.7,0.2-1.1,0.2c-0.2,0-0.3,0-0.4,0
				c-0.9-0.3-1.5-0.7-1.6-1.2c0,0,0-0.1,0-0.2s0-0.2,0-0.3c0-1.2,0.1-3.7,0.4-7.6s0.5-6.1,0.6-6.7c0.2-0.8,0.5-1.6,1-2.6
				C190.6,83.4,191.1,82.7,191.5,82.4z M194.3,86.7c-0.2-0.8-0.4-1.2-0.6-1.2c-0.2,0-0.4,0.3-0.7,0.9c-0.5,1.1-0.9,2.7-1,4.6
				c-0.1,0.8-0.1,1.3-0.1,1.4c0,0.4,0.1,0.6,0.2,0.7c0.1,0.1,0.5,0.2,1.1,0.2c0.8,0,1.3-0.1,1.4-0.2c0.1-0.1,0.1-0.4,0.1-1.1
				C194.8,90,194.6,88.2,194.3,86.7z"/>
			<path class="st2" d="M205.6,80.9c0.3-0.1,0.8-0.1,1.3-0.1c1.5,0,2.5,0.2,2.9,0.5c0.3,0.2,0.4,0.6,0.4,0.9s-0.1,0.7-0.4,0.9
				s-0.6,0.4-1.1,0.4c-0.4,0-0.7,0.1-0.8,0.3c-0.1,0.2-0.2,0.7-0.2,1.4c0,0.2,0,0.9,0.1,2.1c0.1,1.4,0.1,2.3,0.2,2.7
				c0.1,0.4,0.2,0.6,0.3,0.6c0,0,0.2,0,0.5,0s0.6,0,0.8,0c0.7,0,1.2,0.2,1.5,0.5c0.2,0.2,0.3,0.4,0.3,0.6c0,0.4-0.6,0.9-1.8,1.3
				c-0.7,0.2-1.1,0.4-1.3,0.6c-0.1,0.1-0.2,0.4-0.3,0.9c-0.1,0.4-0.1,0.8-0.1,1.2c0,1.4,0.1,2.4,0.4,3.2c0.1,0.3,0.2,0.5,0.4,0.5
				c0.1,0.1,0.4,0.1,0.9,0.1c0.6,0,1.1,0.1,1.5,0.4s0.6,0.6,0.6,0.9c0,0.2-0.2,0.6-0.6,1c-0.7,0.6-1.8,1-3.4,1
				c-1.6,0-2.7-0.4-3.2-1.1c-0.3-0.4-0.4-2.8-0.5-7.2c-0.1-5.5-0.1-8.8-0.2-9.7l-0.1-3.1l0.6-0.3C204.8,81.1,205.2,81,205.6,80.9z"
				/>
			<path class="st2" d="M217.4,78.6c0.5-0.2,1.1-0.2,1.9-0.2c0.8,0,1.5,0.1,1.9,0.2c0.7,0.3,1.3,0.9,1.7,1.7
				c0.2,0.4,0.3,1.1,0.5,2.2c0.1,1.1,0.2,2,0.2,2.9c0,0.4,0,0.7,0,0.8c-0.1,0.7-0.3,1.5-0.6,2.3c-0.3,0.9-0.5,1.3-0.6,1.3
				c-0.2,0-0.3,0.2-0.3,0.6c0,0.3,0.1,0.6,0.3,0.9c0.4,0.6,1.1,1.8,1.9,3.6c0.8,1.7,1.3,2.8,1.3,3.3c0,0.1,0,0.3,0,0.6
				c0,0.4-0.1,0.7-0.3,1s-0.5,0.5-0.8,0.5s-0.5,0-0.8,0c-0.7-0.1-1.1-0.2-1.3-0.3c-0.2-0.1-0.3-0.3-0.3-0.7c0-0.6-0.3-1.4-0.9-2.6
				c-0.6-1.2-1-1.7-1.3-1.7l0,0c-0.1,0.1-0.1,0.4-0.1,0.9c0,0.8,0.1,1.8,0.2,2.8c0.1,0.4,0.1,0.8,0.1,0.9c0,0.9-0.2,1.5-0.6,1.8
				c-0.2,0.1-0.4,0.1-0.7,0.1c-0.9,0-1.5-0.2-1.7-0.6c-0.1-0.2-0.2-2.1-0.3-5.7c0-1.2-0.1-2.4-0.1-3.7c0-1.3,0-2.3,0-2.9
				s0-1.4-0.1-2.4s-0.2-2-0.3-3.2c-0.1-1.3-0.2-2.1-0.2-2.4c0-0.7,0.1-1.1,0.3-1.4C216.6,78.9,216.9,78.7,217.4,78.6z M220.1,81.7
				c-0.1-0.2-0.2-0.3-0.5-0.3c-0.2,0-0.3,0.1-0.4,0.3c-0.1,0.2-0.1,0.4,0,0.5c0,0,0.1,0.9,0.2,2.7s0.2,2.7,0.3,2.8
				c0.1,0.1,0.2-0.1,0.4-0.3c0.2-0.2,0.2-0.7,0.2-1.4c0-0.5,0-1,0-1.4C220.3,82.9,220.2,82,220.1,81.7z"/>
			<path class="st2" d="M231.1,80.3l0.8-1h5.2l0.8,0.8c0.5,0.5,0.9,1.2,1.1,2c0.2,0.8,0.4,2.1,0.5,3.8c0.1,0.6,0.1,1.6,0.1,2.8
				c0,2.9-0.3,5.4-0.8,7.8c-0.5,2.3-1.2,3.9-2.1,4.8c-0.3,0.3-0.7,0.5-1.2,0.7s-1,0.3-1.4,0.3c-0.2,0-0.3,0-0.4-0.1
				c-0.2-0.1-0.5-0.2-0.9-0.2c-0.3,0-0.6-0.2-1-0.7s-0.7-1-0.9-1.7c-0.4-1.1-0.6-2.3-0.8-3.6s-0.2-3.4-0.2-6.3v-2
				c0-2.6,0.1-4.4,0.2-5.3C230.3,81.7,230.6,80.9,231.1,80.3z M235,82.4c-0.2-0.5-0.5-0.8-0.6-0.8c-0.2,0-0.4,0.4-0.7,1.3
				c-0.2,0.7-0.3,2-0.3,3.9c0,1.5,0.1,3.1,0.2,4.8c0.1,1.6,0.3,3.1,0.6,4.5c0.2,1.4,0.5,2.1,0.7,2.1c0.1,0,0.3-0.3,0.4-0.9
				c0.1-0.5,0.3-0.9,0.5-1.3c0.1-0.2,0.2-1.4,0.4-3.7c0.1-1.2,0.1-2.3,0.1-3.3C236.1,85.9,235.7,83.7,235,82.4z"/>
			<path class="st2" d="M245,80c0.2-0.1,0.6-0.2,1.1-0.2c0.9,0,1.9,0.2,2.9,0.7c1,0.4,1.7,0.9,2.1,1.5c0.4,0.7,0.7,1.4,0.7,2.2
				c0,0.9-0.3,2.2-0.9,3.7l-0.5,1.1l0.7,0.7c0.5,0.5,0.9,1.1,1.3,1.8c0.3,0.7,0.5,1.4,0.5,2s0,1.2,0,1.7c-0.1,1.2-0.1,2-0.2,2.4
				c-0.1,0.4-0.3,0.9-0.6,1.6c-0.7,1.3-1.3,2.2-1.8,2.6s-1.3,0.6-2.3,0.6c-1.1,0-1.8,0-2,0l0,0c-0.4,0-0.9-0.2-1.2-0.7
				c-0.4-0.5-0.6-1-0.7-1.7c0-0.1,0-0.4,0-0.9c0-0.8,0-1.6,0.1-2.4c0.2-1.4,0.2-4.9,0.2-10.7c0-3,0-4.5-0.1-4.7c0,0,0-0.1,0-0.2
				c0-0.2,0.1-0.5,0.3-0.8C244.6,80.3,244.8,80.1,245,80z M249.2,92.3c-0.1-0.2-0.4-0.3-0.7-0.3s-0.6,0.1-0.7,0.4
				c-0.2,0.3-0.2,1.8-0.2,4.5c0,1.3,0,2.1,0.1,2.1h0.1c0.1,0,0.3-0.2,0.6-0.6s0.5-0.9,0.7-1.5c0.3-0.7,0.4-1.7,0.4-2.9
				C249.5,93.2,249.4,92.6,249.2,92.3z M248.2,84.1c-0.1-0.2-0.2-0.4-0.4-0.4s-0.3,0.6-0.3,1.7c0,1,0,1.5,0.1,1.5l0,0
				c0.1-0.1,0.3-0.4,0.4-0.8s0.2-0.8,0.2-1c0-0.1,0-0.3,0-0.5C248.2,84.3,248.2,84.2,248.2,84.1z"/>
			<path class="st2" d="M257.6,78.4c0.3-0.4,0.8-0.5,1.3-0.5s0.9,0.2,1.3,0.5l0.6,0.6l0.2,9.5c0.1,5.2,0.2,8.2,0.2,9
				c0,0.4,0,0.8,0,1c0,0.3,0,0.5,0,0.6c0,0.2-0.1,0.3-0.1,0.4c-0.1,0.1-0.1,0.2-0.1,0.2s-0.1,0.1-0.2,0.1s-0.2,0.1-0.2,0.1
				c-0.3,0.2-0.6,0.3-0.8,0.3c-0.1,0-0.4-0.1-0.8-0.2c-0.7-0.3-1.1-0.5-1.1-0.7c-0.1-0.1-0.2-3.5-0.2-10.1c-0.1-6.6-0.1-9.9-0.2-10
				C257.1,79,257.3,78.7,257.6,78.4z"/>
			<path class="st2" d="M268.3,81.6c0.5-0.5,0.9-0.8,1.1-1c0.2-0.1,0.5-0.2,1-0.2c1.3,0,1.9,0.4,1.9,1.3c0,0.8-0.6,1.4-1.7,2
				c-0.7,0.4-1.3,1.8-1.7,4.2c-0.2,1.1-0.3,2.2-0.3,3.4c0,1.2,0.1,2.4,0.2,3.7c0.1,1.6,0.4,2.7,0.7,3.3c0.3,0.6,0.8,1,1.4,1.1
				c1.1,0.2,1.8,0.5,1.9,1c0,0.1,0,0.1,0,0.2c0,0.3-0.2,0.6-0.5,0.9s-0.7,0.5-1.1,0.6c-0.1,0-0.2,0-0.5,0c-1,0-2-0.2-2.8-0.7
				c-0.3-0.2-0.7-0.7-1.1-1.5s-0.8-1.6-1-2.4c-0.3-1.1-0.5-3.2-0.5-6c0-1.1,0.1-2.2,0.2-3.2c0.2-1.7,0.5-3,0.9-3.9
				C266.9,83.3,267.5,82.4,268.3,81.6z"/>
			<path class="st3" d="M79.6,179.3c32.1,0,58-4.5,58-10.1s-26-10.1-58-10.1c-32.1,0-58.1,4.5-58.1,10.1
				C21.5,174.8,47.5,179.3,79.6,179.3z"/>
			<path class="st4" d="M121.3,99.5c-2.4,1.3-3.6,4.2-2.4,6.7c0.9,1.9,3,3.3,7.3,2.9c13.6-1,54.4-11.7,38.7-32.5
				c-6.9-9.1-17.1,0.2-25.3,8.8C132.8,92.4,125.1,97.4,121.3,99.5z"/>
			<path class="st5" d="M15,57.3c0,0,34.9,16.9,53.5-2.2C68.5,55.1,48.4,39,15,57.3z"/>
			<path class="st6" d="M28.5,39.3c0,0,11.4,24.6,45.7,20.3C74.1,59.6,71.8,48.3,28.5,39.3z"/>
			<path class="st7" d="M61.1,56.6c-12.7,6.2-44.1,33-19.2,83.9c7,14.2-8.9,18.5-6,27.9c5,16.1,39-23.7,77.3-23.5
				c12.2,0.1,34.2,12.5,44.4-1.1c7.7-10.3-2.3-10.2-11.1-9.8c-16.5,0.8-11.9-5.1-11.6-25.4C136,46.5,85.4,44.8,61.1,56.6z"/>
			<path d="M108.8,103.1c-0.2-0.9-1.5-1.7-2.5-2v1.2c0,0.4-0.3,0.8-0.8,0.8l-1.3,0.1c-0.4,0-0.8-0.3-0.8-0.8v-1.2
				c-1,0.5-3,1.1-3,1.9c0,1.2,1.1,3.7,4.5,3.5C108.2,106.5,109.1,104.4,108.8,103.1z"/>
			<path class="st0" d="M104.2,103.2l1.3-0.1c0.4,0,0.8-0.4,0.8-0.8v-1.2c-0.4-0.2-0.9-0.2-1.4-0.2c-0.6,0-1.1,0.2-1.5,0.4v1.2
				C103.4,102.9,103.8,103.2,104.2,103.2z"/>
			<path class="st5" d="M79.7,33.8c0,0-4.3,4.5-1.5,11C78.2,44.8,80.4,43.3,79.7,33.8z"/>
			<path class="st5" d="M68.7,44.9c0,0,4.9,8.8,13.3,3.8C82,48.6,79.2,45,68.7,44.9z"/>
			<path class="st8" d="M85.1,54.9c0-0.7-4.5-12.7-17.4-16.9"/>
			<path class="st9" d="M65.3,34.3c0,0,3.5-9,7.3-7.6C76.3,28.2,67.7,35.6,65.3,34.3z"/>
			<path class="st9" d="M65.3,34.2c0,0,9-5.6,9.5-1.7C75.4,36.5,65.4,37,65.3,34.2z"/>
			<path class="st9" d="M64.1,35.6c0,0,9.8-2.7,8.8,1.6C71.8,41.4,63.1,38.5,64.1,35.6z"/>
			<path class="st9" d="M63.2,35.5c0,0-2.2-9.9,2-8.7C69.3,28.1,66,36.6,63.2,35.5z"/>
			<path class="st9" d="M64.3,36.1c0,0-9.2,4.3-8.9-0.1C55.7,31.7,64.8,33.1,64.3,36.1z"/>
			<path class="st9" d="M64.2,37.1c0,0-7.1-4.3-4.3-6.2C62.6,28.8,66.2,35.9,64.2,37.1z"/>
			<path class="st9" d="M63.8,36.5c0,0-9.6,1-9.2,5.1C55,45.5,64.4,39.1,63.8,36.5z"/>
			<path class="st9" d="M63.5,35.8c0,0-7.8,7.2-4.1,8.8C63.1,46.2,66.2,36.6,63.5,35.8z"/>
			<path class="st9" d="M63.6,35.2c0,0-1.2,10.1,2.9,8.4C70.5,41.9,66.3,33.7,63.6,35.2z"/>
			<path class="st10" d="M65.8,37.5c2.5-1.9,3.9-4.3,3.1-5.4c-0.8-1-3.5-0.3-6,1.6c-2.5,1.9-3.9,4.3-3.1,5.4
				C60.6,40.1,63.3,39.4,65.8,37.5z"/>
			<path d="M88.8,96.8c2,0,3.7-1.6,3.7-3.7c0-2-1.6-3.7-3.7-3.7c-2,0-3.7,1.6-3.7,3.7C85.2,95.1,86.8,96.8,88.8,96.8z"/>
			<path d="M117.5,95.9c2,0,3.7-1.6,3.7-3.7s-1.6-3.7-3.7-3.7c-2,0-3.7,1.6-3.7,3.7S115.5,95.9,117.5,95.9z"/>
			<path class="st4" d="M49.9,101.6c-2.4-1.3-5.5-0.7-6.9,1.6c-1.1,1.8-1.2,4.3,1.5,7.7c8.2,10.9,39,39.7,48.2,15.2
				c4-10.7-9.3-14.4-20.9-16.6C62.1,107.5,53.8,103.7,49.9,101.6z"/>
			<path class="st0" d="M68.9,71.7c0,0-9.9,12.8-14.3,6.8C52.7,75.8,55.8,66.5,68.9,71.7z"/>
		</g>
	</g>
</g>
</svg>
