<?xml version="1.0" encoding="utf-8"?>
<!-- Generator: Adobe Illustrator 25.1.0, SVG Export Plug-In . SVG Version: 6.00 Build 0)  -->
<svg version="1.1" id="Layer_1" xmlns="http://www.w3.org/2000/svg" xmlns:xlink="http://www.w3.org/1999/xlink" x="0px" y="0px"
	 viewBox="0 0 330.9 279.4" style="enable-background:new 0 0 330.9 279.4;" xml:space="preserve">
<style type="text/css">
	.st0{fill:#FFFFFF;}
	.st1{fill:#808080;}
	.st2{fill:#00A878;}
	.st3{fill:#F4F1EF;}
	.st4{fill:#EDF1F2;}
	.st5{fill:#00CDDC;}
	.st6{fill:#28C86E;}
	.st7{fill:#3CDC82;}
	.st8{fill:#32DCD2;}
	.st9{fill:none;stroke:#28C86E;stroke-width:1.497;stroke-linecap:round;stroke-miterlimit:10;}
	.st10{fill:#FFCF8D;}
	.st11{fill:#FF9F1A;}
	.st12{fill:none;stroke:#FF9F1A;stroke-width:1.3717;stroke-linecap:round;stroke-linejoin:round;stroke-miterlimit:10;}
	.st13{fill:none;stroke:#FF9F1A;stroke-width:1.2426;stroke-linecap:round;stroke-linejoin:round;stroke-miterlimit:10;}
	.st14{fill:#BFBFBF;}
	.st15{fill:none;stroke:#FF9F1A;stroke-width:1.3717;stroke-miterlimit:10;}
	.st16{fill:none;stroke:#FFFFFF;stroke-width:0.6767;stroke-linecap:round;stroke-miterlimit:10;}
	.st17{fill:none;stroke:#FF9F1A;stroke-width:1.6797;stroke-linecap:round;stroke-miterlimit:10;}
</style>
<g>
	<g>
		<path class="st0" d="M330.8,197.8c0-189.3,4.7-193-41.6-197.3C261-2,142.7,5.2,108,6C73.9,6.7,7.2-1.8,5.1,51.4
			c-1.2,29.7-4.6,59.9-4.6,111.5c0,81.1-6.6,100.5,28.4,110.7c35.6,10.4,166.4,3.9,209.3,2.6C282.5,275,330.8,280.5,330.8,197.8z"/>
		<path class="st1" d="M29,211.2c-0.3,0-0.5-0.1-0.7-0.3s-0.3-0.4-0.3-0.7s0.1-0.5,0.3-0.6c0.2-0.2,0.4-0.3,0.7-0.3
			c0.3,0,0.5,0.1,0.7,0.3s0.3,0.4,0.3,0.6c0,0.3-0.1,0.5-0.3,0.7C29.5,211.1,29.3,211.2,29,211.2z M28.3,220.9V213h1.3v7.9H28.3z"/>
		<path class="st1" d="M35,221.1c-1,0-1.7-0.2-2.4-0.7c-0.6-0.5-1-1.1-1.1-2H33c0.1,0.4,0.3,0.8,0.7,1.1s0.8,0.5,1.4,0.5
			c0.6,0,1-0.1,1.2-0.4c0.3-0.2,0.4-0.5,0.4-0.9c0-0.5-0.2-0.8-0.5-1s-0.8-0.3-1.5-0.4c-0.4-0.1-0.8-0.2-1.3-0.4s-0.8-0.4-1.1-0.7
			s-0.4-0.7-0.4-1.2c0-0.7,0.3-1.3,0.8-1.7s1.2-0.7,2.1-0.7c0.8,0,1.5,0.2,2.1,0.6c0.5,0.4,0.9,1,0.9,1.8h-1.3c0-0.4-0.2-0.7-0.5-1
			s-0.7-0.3-1.2-0.3s-0.8,0.1-1.1,0.3s-0.4,0.5-0.4,0.8s0.2,0.6,0.5,0.8s0.8,0.3,1.4,0.5c0.5,0.1,1,0.2,1.4,0.4
			c0.4,0.1,0.8,0.4,1.1,0.7s0.4,0.7,0.4,1.3c0,0.7-0.3,1.3-0.8,1.8C36.7,220.9,36,221.1,35,221.1z"/>
		<path class="st1" d="M46.9,221.1c-0.7,0-1.2-0.1-1.7-0.3c-0.4-0.2-0.8-0.5-1-0.9s-0.3-0.8-0.3-1.2c0-0.8,0.3-1.4,0.9-1.9
			c0.6-0.4,1.5-0.7,2.5-0.7h2.1V216c0-0.7-0.2-1.2-0.5-1.6c-0.4-0.4-0.8-0.5-1.5-0.5c-0.5,0-1,0.1-1.3,0.4c-0.4,0.3-0.6,0.6-0.7,1.1
			H44c0.1-0.6,0.2-1.1,0.6-1.5c0.3-0.4,0.8-0.7,1.3-0.9s1-0.3,1.6-0.3c1.1,0,1.9,0.3,2.5,0.9c0.6,0.6,0.8,1.4,0.8,2.4v4.9h-1.2
			l-0.1-1.4c-0.2,0.5-0.6,0.8-1,1.1C48.2,220.9,47.6,221.1,46.9,221.1z M47.1,220c0.5,0,1-0.1,1.3-0.4c0.4-0.3,0.7-0.6,0.8-1
			s0.3-0.9,0.3-1.3l0,0h-2c-0.8,0-1.3,0.1-1.7,0.4c-0.3,0.3-0.5,0.6-0.5,1s0.2,0.8,0.5,1C46.1,219.9,46.5,220,47.1,220z"/>
		<path class="st1" d="M60.2,221.1c-0.9,0-1.7-0.2-2.4-0.7c-0.6-0.5-1-1.1-1.1-2h1.4c0.1,0.4,0.3,0.8,0.7,1.1s0.8,0.5,1.4,0.5
			c0.6,0,1-0.1,1.2-0.4c0.3-0.2,0.4-0.5,0.4-0.9c0-0.5-0.2-0.8-0.5-1s-0.8-0.3-1.5-0.4c-0.4-0.1-0.9-0.2-1.3-0.4
			c-0.4-0.2-0.8-0.4-1.1-0.7S57,215.5,57,215c0-0.7,0.3-1.3,0.8-1.7s1.2-0.7,2.1-0.7c0.8,0,1.5,0.2,2.1,0.6c0.5,0.4,0.8,1,0.9,1.8
			h-1.3c-0.1-0.4-0.2-0.7-0.5-1s-0.7-0.3-1.2-0.3s-0.8,0.1-1.1,0.3s-0.4,0.5-0.4,0.8s0.2,0.6,0.5,0.8s0.8,0.3,1.4,0.5
			c0.5,0.1,1,0.2,1.4,0.4c0.4,0.1,0.8,0.4,1.1,0.7s0.4,0.7,0.4,1.3c0,0.7-0.3,1.3-0.8,1.8C61.9,220.9,61.1,221.1,60.2,221.1z"/>
		<path class="st1" d="M68.8,221.1c-0.8,0-1.4-0.2-2-0.5s-1.1-0.8-1.4-1.5c-0.3-0.6-0.5-1.4-0.5-2.2s0.2-1.6,0.5-2.2
			c0.3-0.6,0.8-1.1,1.4-1.5s1.3-0.5,2-0.5c0.9,0,1.7,0.2,2.4,0.7c0.7,0.5,1.1,1.1,1.2,2H71c-0.1-0.5-0.4-0.9-0.8-1.1
			c-0.4-0.3-0.9-0.4-1.5-0.4c-0.5,0-0.9,0.1-1.3,0.3s-0.7,0.6-1,1c-0.2,0.5-0.4,1-0.4,1.7s0.1,1.2,0.4,1.7s0.6,0.8,1,1
			s0.8,0.3,1.3,0.3s1-0.1,1.5-0.4c0.4-0.3,0.7-0.7,0.8-1.2h1.4c-0.2,0.8-0.6,1.4-1.2,1.9C70.5,220.9,69.7,221.1,68.8,221.1z"/>
		<path class="st1" d="M75.1,211.2c-0.3,0-0.5-0.1-0.7-0.3s-0.3-0.4-0.3-0.7s0.1-0.5,0.3-0.6c0.2-0.2,0.4-0.3,0.7-0.3
			s0.5,0.1,0.7,0.3s0.3,0.4,0.3,0.6c0,0.3-0.1,0.5-0.3,0.7C75.6,211.1,75.3,211.2,75.1,211.2z M74.4,220.9V213h1.3v7.9H74.4z"/>
		<path class="st1" d="M81.7,221.1c-0.8,0-1.4-0.2-2-0.5c-0.6-0.4-1-0.8-1.4-1.4c-0.3-0.6-0.5-1.4-0.5-2.2s0.2-1.6,0.5-2.2
			c0.3-0.6,0.8-1.1,1.4-1.5s1.3-0.5,2.1-0.5c0.8,0,1.4,0.2,2,0.5s1,0.8,1.3,1.4c0.3,0.6,0.4,1.2,0.4,1.8c0,0.1,0,0.2,0,0.4
			c0,0.1,0,0.2,0,0.4h-6.3c0,0.6,0.2,1.1,0.4,1.5c0.2,0.4,0.6,0.7,0.9,0.9c0.4,0.2,0.8,0.3,1.2,0.3c0.5,0,1-0.1,1.4-0.4
			c0.4-0.3,0.7-0.6,0.8-1h1.3c-0.2,0.7-0.6,1.4-1.2,1.8C83.4,220.9,82.6,221.1,81.7,221.1z M81.7,213.9c-0.6,0-1.2,0.2-1.7,0.6
			c-0.5,0.4-0.8,1-0.9,1.7h5c0-0.7-0.3-1.3-0.7-1.7C82.9,214.1,82.3,213.9,81.7,213.9z"/>
		<path class="st1" d="M87.2,220.9V213h1.2l0.1,1.4c0.3-0.5,0.6-0.9,1.1-1.2s1-0.4,1.6-0.4c0.9,0,1.7,0.3,2.2,0.9s0.8,1.5,0.8,2.6
			v4.6H93v-4.5c0-1.7-0.7-2.5-2-2.5c-0.7,0-1.2,0.2-1.7,0.7c-0.4,0.5-0.7,1.2-0.7,2.1v4.1L87.2,220.9L87.2,220.9z"/>
		<path class="st1" d="M100,221.1c-0.8,0-1.4-0.2-2-0.5c-0.6-0.4-1.1-0.8-1.4-1.5c-0.3-0.6-0.5-1.4-0.5-2.2s0.2-1.6,0.5-2.2
			c0.4-0.6,0.8-1.1,1.4-1.5s1.3-0.5,2-0.5c0.9,0,1.7,0.2,2.4,0.7s1.1,1.1,1.2,2h-1.4c-0.1-0.5-0.4-0.9-0.8-1.1
			c-0.4-0.3-0.9-0.4-1.5-0.4c-0.4,0-0.9,0.1-1.3,0.3s-0.7,0.6-1,1c-0.2,0.5-0.4,1-0.4,1.7s0.1,1.2,0.4,1.7c0.2,0.5,0.6,0.8,1,1
			s0.8,0.3,1.3,0.3c0.6,0,1-0.1,1.5-0.4c0.4-0.3,0.7-0.7,0.8-1.2h1.4c-0.2,0.8-0.6,1.4-1.2,1.9C101.7,220.9,100.9,221.1,100,221.1z"
			/>
		<path class="st1" d="M109,221.1c-0.8,0-1.4-0.2-2-0.5s-1.1-0.8-1.4-1.4c-0.3-0.6-0.5-1.4-0.5-2.2s0.2-1.6,0.5-2.2
			c0.3-0.6,0.8-1.1,1.4-1.5s1.3-0.5,2.1-0.5c0.8,0,1.4,0.2,2,0.5s1,0.8,1.3,1.4s0.4,1.2,0.4,1.8c0,0.1,0,0.2,0,0.4s0,0.2,0,0.4h-6.3
			c0,0.6,0.2,1.1,0.4,1.5c0.2,0.4,0.6,0.7,0.9,0.9c0.4,0.2,0.8,0.3,1.2,0.3c0.6,0,1-0.1,1.4-0.4c0.4-0.3,0.6-0.6,0.8-1h1.3
			c-0.2,0.7-0.6,1.4-1.2,1.8C110.7,220.9,110,221.1,109,221.1z M109,213.9c-0.6,0-1.2,0.2-1.7,0.6c-0.5,0.4-0.8,1-0.9,1.7h5
			c0-0.7-0.3-1.3-0.7-1.7C110.3,214.1,109.7,213.9,109,213.9z"/>
		<path class="st1" d="M114.4,216.8v-1.1h6.3v1.1H114.4z"/>
		<path class="st1" d="M127,221.1c-0.6,0-1.2-0.1-1.7-0.4c-0.5-0.3-0.9-0.6-1.2-1.1l-0.1,1.3h-1.2v-11.5h1.3v4.9
			c0.3-0.4,0.6-0.7,1.1-1s1.1-0.5,1.8-0.5c0.8,0,1.5,0.2,2.1,0.5c0.6,0.4,1,0.9,1.4,1.5c0.3,0.6,0.5,1.3,0.5,2.1s-0.2,1.5-0.5,2.1
			s-0.8,1.1-1.4,1.5C128.5,220.9,127.8,221.1,127,221.1z M126.9,219.9c0.5,0,1-0.1,1.4-0.4c0.4-0.2,0.7-0.6,1-1
			c0.2-0.5,0.4-1,0.4-1.6s-0.1-1.1-0.4-1.6c-0.2-0.4-0.6-0.8-1-1c-0.4-0.2-0.9-0.4-1.4-0.4s-1,0.1-1.4,0.4s-0.7,0.6-1,1
			c-0.2,0.5-0.4,1-0.4,1.6s0.1,1.1,0.4,1.6c0.2,0.4,0.5,0.8,1,1C125.9,219.8,126.3,219.9,126.9,219.9z"/>
		<path class="st1" d="M135.5,221.1c-0.7,0-1.2-0.1-1.6-0.3c-0.4-0.2-0.8-0.5-1-0.9s-0.3-0.8-0.3-1.2c0-0.8,0.3-1.4,0.9-1.9
			c0.6-0.4,1.5-0.7,2.5-0.7h2.1V216c0-0.7-0.2-1.2-0.5-1.6c-0.4-0.4-0.8-0.5-1.5-0.5c-0.5,0-1,0.1-1.4,0.4c-0.4,0.3-0.6,0.6-0.7,1.1
			h-1.4c0.1-0.6,0.2-1.1,0.6-1.5c0.3-0.4,0.8-0.7,1.3-0.9s1-0.3,1.6-0.3c1.1,0,1.9,0.3,2.5,0.9c0.6,0.6,0.8,1.4,0.8,2.4v4.9h-1.2
			l-0.1-1.4c-0.2,0.5-0.6,0.8-1,1.1C136.8,221,136.2,221.1,135.5,221.1z M135.7,220c0.5,0,0.9-0.1,1.3-0.4c0.4-0.3,0.7-0.6,0.8-1
			c0.2-0.4,0.3-0.9,0.3-1.3l0,0h-2c-0.8,0-1.4,0.1-1.7,0.4c-0.3,0.3-0.5,0.6-0.5,1s0.2,0.8,0.5,1C134.7,219.9,135.1,220,135.7,220z"
			/>
		<path class="st1" d="M145.1,221.1c-0.8,0-1.4-0.2-2-0.5c-0.6-0.4-1.1-0.8-1.4-1.5c-0.4-0.6-0.5-1.4-0.5-2.2s0.2-1.6,0.5-2.2
			c0.3-0.6,0.8-1.1,1.4-1.5c0.6-0.4,1.3-0.5,2-0.5c0.9,0,1.7,0.2,2.4,0.7s1.1,1.1,1.2,2h-1.4c-0.1-0.5-0.4-0.9-0.8-1.1
			c-0.4-0.3-0.9-0.4-1.5-0.4c-0.5,0-0.9,0.1-1.3,0.3c-0.4,0.2-0.7,0.6-1,1c-0.2,0.5-0.4,1-0.4,1.7s0.1,1.2,0.4,1.7s0.6,0.8,1,1
			s0.8,0.3,1.3,0.3s1-0.1,1.5-0.4c0.4-0.3,0.7-0.7,0.8-1.2h1.4c-0.2,0.8-0.6,1.4-1.2,1.9S146.1,221.1,145.1,221.1z"/>
		<path class="st1" d="M150.6,220.9v-11.5h1.3v6.9l3.2-3.3h1.7l-3.5,3.6l4,4.4h-1.7l-3.6-4.1v4.1L150.6,220.9L150.6,220.9z"/>
		<path class="st1" d="M161.7,221.1c-0.8,0-1.4-0.2-2-0.5c-0.6-0.4-1.1-0.8-1.4-1.4c-0.3-0.6-0.5-1.4-0.5-2.2s0.2-1.6,0.5-2.2
			c0.3-0.6,0.8-1.1,1.4-1.5c0.6-0.4,1.3-0.5,2.1-0.5s1.4,0.2,2,0.5c0.6,0.4,1,0.8,1.3,1.4s0.4,1.2,0.4,1.8c0,0.1,0,0.2,0,0.4
			c0,0.1,0,0.2,0,0.4h-6.3c0,0.6,0.2,1.1,0.4,1.5s0.6,0.7,0.9,0.9c0.4,0.2,0.8,0.3,1.2,0.3c0.6,0,1-0.1,1.4-0.4
			c0.4-0.3,0.7-0.6,0.8-1h1.3c-0.2,0.7-0.6,1.4-1.2,1.8C163.4,220.9,162.6,221.1,161.7,221.1z M161.7,213.9c-0.6,0-1.2,0.2-1.7,0.6
			c-0.5,0.4-0.8,1-0.9,1.7h5c0-0.7-0.3-1.3-0.7-1.7C162.9,214.1,162.3,213.9,161.7,213.9z"/>
		<path class="st1" d="M170.8,221.1c-0.8,0-1.5-0.2-2.1-0.5c-0.6-0.4-1.1-0.9-1.4-1.5c-0.3-0.6-0.5-1.3-0.5-2.1s0.2-1.5,0.5-2.1
			s0.8-1.1,1.4-1.5c0.6-0.4,1.3-0.5,2.1-0.5c0.6,0,1.2,0.1,1.7,0.4s0.9,0.6,1.2,1.1v-4.9h1.3V221h-1.2l-0.1-1.3
			c-0.3,0.4-0.6,0.7-1.1,1C172.1,221,171.5,221.1,170.8,221.1z M170.9,219.9c0.5,0,1-0.1,1.4-0.4c0.4-0.2,0.7-0.6,1-1
			c0.2-0.5,0.3-1,0.3-1.6s-0.1-1.1-0.3-1.6c-0.2-0.4-0.6-0.8-1-1s-0.9-0.4-1.4-0.4s-1,0.1-1.4,0.4s-0.7,0.6-1,1
			c-0.2,0.5-0.3,1-0.3,1.6s0.1,1.1,0.3,1.6c0.2,0.4,0.5,0.8,1,1C169.9,219.8,170.4,219.9,170.9,219.9z"/>
		<path class="st1" d="M181.5,224.4V213h1.2l0.1,1.3c0.3-0.4,0.6-0.7,1.1-1s1.1-0.5,1.8-0.5c0.8,0,1.5,0.2,2.1,0.5
			c0.6,0.4,1,0.9,1.4,1.5s0.5,1.3,0.5,2.1s-0.2,1.5-0.5,2.1s-0.8,1.1-1.4,1.5c-0.6,0.4-1.3,0.5-2.1,0.5c-0.6,0-1.2-0.1-1.7-0.4
			c-0.5-0.3-0.9-0.6-1.2-1.1v4.9L181.5,224.4L181.5,224.4z M185.6,219.9c0.5,0,1-0.1,1.4-0.4c0.4-0.2,0.7-0.6,1-1
			c0.2-0.5,0.3-1,0.3-1.6s-0.1-1.1-0.3-1.6c-0.2-0.4-0.6-0.8-1-1s-0.9-0.4-1.4-0.4s-1,0.1-1.4,0.4s-0.7,0.6-1,1
			c-0.2,0.5-0.3,1-0.3,1.6s0.1,1.1,0.3,1.6c0.2,0.4,0.6,0.8,1,1C184.6,219.8,185,219.9,185.6,219.9z"/>
		<path class="st1" d="M191.5,220.9V213h1.2l0.1,1.5c0.2-0.5,0.6-0.9,1.1-1.2s1.1-0.5,1.9-0.5v1.4h-0.4c-0.5,0-0.9,0.1-1.3,0.2
			c-0.4,0.2-0.7,0.4-0.9,0.8c-0.2,0.4-0.4,0.9-0.4,1.6v4L191.5,220.9L191.5,220.9z"/>
		<path class="st1" d="M200.6,221.1c-0.8,0-1.4-0.2-2-0.5s-1.1-0.8-1.4-1.5c-0.3-0.6-0.5-1.4-0.5-2.2s0.2-1.6,0.5-2.2
			c0.3-0.6,0.8-1.1,1.4-1.5c0.6-0.3,1.3-0.5,2-0.5c0.8,0,1.4,0.2,2,0.5s1.1,0.8,1.4,1.5c0.3,0.6,0.5,1.4,0.5,2.2s-0.2,1.6-0.5,2.2
			c-0.3,0.6-0.8,1.1-1.4,1.5C202.1,220.9,201.4,221.1,200.6,221.1z M200.6,220c0.5,0,0.9-0.1,1.3-0.3c0.4-0.2,0.7-0.6,1-1
			c0.2-0.4,0.4-1,0.4-1.7s-0.1-1.2-0.4-1.7s-0.6-0.8-0.9-1c-0.4-0.2-0.8-0.3-1.3-0.3s-0.9,0.1-1.3,0.3c-0.4,0.2-0.7,0.6-1,1
			c-0.2,0.4-0.4,1-0.4,1.7s0.1,1.2,0.4,1.7c0.2,0.4,0.6,0.8,0.9,1C199.8,219.9,200.2,220,200.6,220z"/>
		<path class="st1" d="M209.3,218.4c-0.4,0-0.9-0.1-1.2-0.2l-0.8,0.8c0.1,0.1,0.3,0.2,0.4,0.2c0.2,0.1,0.4,0.1,0.8,0.2
			c0.3,0.1,0.8,0.1,1.4,0.1c1.1,0.1,1.8,0.3,2.3,0.7s0.7,1,0.7,1.6c0,0.5-0.1,0.9-0.4,1.3c-0.2,0.4-0.6,0.8-1.1,1
			c-0.5,0.3-1.2,0.4-2,0.4c-0.7,0-1.3-0.1-1.9-0.3s-1-0.5-1.3-0.9s-0.5-0.9-0.5-1.4c0-0.3,0.1-0.6,0.2-1s0.5-0.7,0.9-1
			c-0.2-0.1-0.4-0.2-0.6-0.3c-0.2-0.1-0.3-0.2-0.5-0.4v-0.4l1.4-1.3c-0.6-0.5-0.9-1.2-0.9-2.1c0-0.5,0.1-1,0.4-1.4
			c0.2-0.4,0.6-0.8,1.1-1s1-0.4,1.7-0.4c0.5,0,0.9,0.1,1.2,0.2h2.9v1L212,214c0.3,0.4,0.5,1,0.5,1.5s-0.1,1-0.4,1.4
			c-0.2,0.4-0.6,0.8-1.1,1C210.5,218.3,210,218.4,209.3,218.4z M207,221.9c0,0.5,0.2,0.9,0.7,1.2c0.4,0.3,1,0.4,1.7,0.4
			s1.2-0.1,1.6-0.4c0.4-0.3,0.6-0.7,0.6-1.1c0-0.3-0.1-0.6-0.4-0.9s-0.8-0.4-1.5-0.4c-0.6,0-1.1-0.1-1.5-0.2
			c-0.4,0.2-0.7,0.5-0.9,0.8C207,221.5,207,221.7,207,221.9z M209.3,217.3c0.6,0,1-0.1,1.4-0.4c0.3-0.3,0.5-0.7,0.5-1.3
			c0-0.5-0.2-1-0.5-1.3s-0.8-0.4-1.4-0.4c-0.6,0-1,0.1-1.4,0.4s-0.5,0.7-0.5,1.3s0.2,1,0.5,1.3C208.3,217.2,208.7,217.3,209.3,217.3
			z"/>
		<path class="st1" d="M215,220.9V213h1.2l0.1,1.5c0.2-0.5,0.6-0.9,1.1-1.2s1.1-0.5,1.9-0.5v1.4h-0.4c-0.5,0-0.9,0.1-1.3,0.2
			c-0.4,0.2-0.7,0.4-0.9,0.8c-0.2,0.4-0.4,0.9-0.4,1.6v4L215,220.9L215,220.9z"/>
		<path class="st1" d="M223.4,221.1c-0.7,0-1.2-0.1-1.7-0.3c-0.4-0.2-0.8-0.5-1-0.9s-0.3-0.8-0.3-1.2c0-0.8,0.3-1.4,0.9-1.9
			s1.5-0.7,2.5-0.7h2.1V216c0-0.7-0.2-1.2-0.5-1.6c-0.4-0.4-0.9-0.5-1.5-0.5c-0.5,0-1,0.1-1.3,0.4c-0.4,0.3-0.6,0.6-0.7,1.1h-1.4
			c0.1-0.6,0.2-1.1,0.6-1.5c0.3-0.4,0.8-0.7,1.3-0.9s1-0.3,1.6-0.3c1.1,0,1.9,0.3,2.5,0.9s0.8,1.4,0.8,2.4v4.9h-1.2l-0.1-1.4
			c-0.2,0.5-0.5,0.8-1,1.1C224.7,221,224.2,221.1,223.4,221.1z M223.6,220c0.5,0,0.9-0.1,1.3-0.4c0.4-0.3,0.6-0.6,0.8-1
			s0.3-0.9,0.3-1.3l0,0h-2c-0.8,0-1.3,0.1-1.7,0.4c-0.3,0.3-0.5,0.6-0.5,1s0.2,0.8,0.5,1C222.7,219.9,223.1,220,223.6,220z"/>
		<path class="st1" d="M229.5,220.9V213h1.2l0.1,1.1c0.3-0.4,0.6-0.8,1-1s0.9-0.4,1.4-0.4c0.6,0,1.2,0.1,1.6,0.4
			c0.4,0.2,0.8,0.6,1,1.2c0.3-0.5,0.7-0.9,1.1-1.1c0.5-0.3,1-0.4,1.6-0.4c1,0,1.7,0.3,2.3,0.9c0.6,0.6,0.8,1.4,0.8,2.6v4.6h-1.3
			v-4.5c0-0.8-0.2-1.4-0.5-1.9c-0.3-0.4-0.8-0.6-1.4-0.6c-0.6,0-1.2,0.2-1.6,0.7c-0.4,0.5-0.6,1.2-0.6,2.1v4.1h-1.3v-4.5
			c0-0.8-0.2-1.4-0.5-1.9c-0.3-0.4-0.8-0.6-1.4-0.6c-0.6,0-1.2,0.2-1.6,0.7c-0.4,0.5-0.6,1.2-0.6,2.1v4.1L229.5,220.9L229.5,220.9z"
			/>
		<path class="st1" d="M251.2,220.9c-0.7,0-1.3-0.2-1.7-0.5c-0.4-0.4-0.6-1-0.6-1.9v-4.4h-1.4V213h1.4l0.2-1.9h1.2v1.9h2.3v1.1h-2.3
			v4.4c0,0.5,0.1,0.8,0.3,1s0.6,0.3,1.1,0.3h0.8v1.2h-1.3V220.9z"/>
		<path class="st1" d="M257.6,221.1c-0.8,0-1.4-0.2-2-0.5s-1.1-0.8-1.4-1.5c-0.4-0.6-0.5-1.4-0.5-2.2s0.2-1.6,0.5-2.2
			c0.3-0.6,0.8-1.1,1.4-1.5c0.6-0.3,1.3-0.5,2-0.5s1.4,0.2,2,0.5s1.1,0.8,1.4,1.5s0.5,1.4,0.5,2.2s-0.2,1.6-0.5,2.2
			c-0.3,0.6-0.8,1.1-1.4,1.5S258.3,221.1,257.6,221.1z M257.6,220c0.5,0,0.9-0.1,1.3-0.3s0.7-0.6,1-1c0.2-0.4,0.4-1,0.4-1.7
			s-0.1-1.2-0.4-1.7c-0.2-0.5-0.6-0.8-1-1s-0.8-0.3-1.3-0.3s-0.9,0.1-1.3,0.3s-0.7,0.6-1,1c-0.2,0.4-0.4,1-0.4,1.7s0.1,1.2,0.4,1.7
			c0.2,0.5,0.6,0.8,0.9,1C256.7,219.9,257.2,220,257.6,220z"/>
		<path class="st1" d="M29,233.2c-0.3,0-0.5-0.1-0.7-0.3s-0.3-0.4-0.3-0.7s0.1-0.5,0.3-0.6c0.2-0.2,0.4-0.3,0.7-0.3
			c0.3,0,0.5,0.1,0.7,0.3s0.3,0.4,0.3,0.6c0,0.3-0.1,0.5-0.3,0.7C29.5,233.1,29.3,233.2,29,233.2z M28.3,242.9V235h1.3v7.9H28.3z"/>
		<path class="st1" d="M32,242.9V235h1.2l0.1,1.1c0.3-0.4,0.6-0.8,1-1s0.9-0.4,1.4-0.4c0.6,0,1.2,0.1,1.6,0.4c0.4,0.3,0.8,0.6,1,1.2
			c0.3-0.5,0.7-0.9,1.1-1.1s1-0.4,1.6-0.4c1,0,1.7,0.3,2.3,0.9c0.6,0.6,0.8,1.4,0.8,2.6v4.6H43v-4.5c0-0.8-0.2-1.4-0.5-1.9
			c-0.3-0.4-0.8-0.6-1.4-0.6c-0.6,0-1.2,0.2-1.6,0.7c-0.4,0.5-0.6,1.2-0.6,2.1v4.1h-1.3v-4.5c0-0.8-0.2-1.4-0.5-1.9
			c-0.3-0.4-0.8-0.6-1.4-0.6c-0.6,0-1.2,0.2-1.6,0.7c-0.4,0.5-0.6,1.2-0.6,2.1v4.1L32,242.9L32,242.9z"/>
		<path class="st1" d="M46.3,246.4V235h1.2l0.1,1.3c0.3-0.4,0.6-0.7,1.1-1s1.1-0.5,1.8-0.5c0.8,0,1.5,0.2,2.1,0.5
			c0.6,0.4,1,0.9,1.4,1.5c0.3,0.6,0.5,1.3,0.5,2.1s-0.2,1.5-0.5,2.1s-0.8,1.1-1.4,1.5c-0.6,0.4-1.3,0.5-2.1,0.5
			c-0.7,0-1.2-0.1-1.7-0.4c-0.5-0.3-0.9-0.6-1.2-1.1v4.9L46.3,246.4L46.3,246.4z M50.4,241.9c0.5,0,1-0.1,1.4-0.4
			c0.4-0.2,0.7-0.6,1-1c0.2-0.5,0.3-1,0.3-1.6s-0.1-1.1-0.3-1.6c-0.2-0.4-0.6-0.8-1-1s-0.9-0.4-1.4-0.4s-1,0.1-1.4,0.4
			c-0.4,0.2-0.7,0.6-1,1c-0.2,0.5-0.3,1-0.3,1.6s0.1,1.1,0.3,1.6c0.2,0.4,0.6,0.8,1,1C49.4,241.8,49.9,241.9,50.4,241.9z"/>
		<path class="st1" d="M56.4,242.9V235h1.2l0.1,1.5c0.2-0.5,0.6-0.9,1.1-1.2s1.1-0.5,1.9-0.5v1.4h-0.4c-0.5,0-0.9,0.1-1.3,0.2
			c-0.4,0.2-0.7,0.4-0.9,0.8c-0.2,0.4-0.3,0.9-0.3,1.6v4L56.4,242.9L56.4,242.9z"/>
		<path class="st1" d="M65.5,243.1c-0.8,0-1.4-0.2-2-0.5c-0.6-0.3-1.1-0.8-1.4-1.5c-0.3-0.6-0.5-1.4-0.5-2.2s0.2-1.6,0.5-2.2
			s0.8-1.1,1.4-1.5c0.6-0.3,1.3-0.5,2-0.5c0.8,0,1.4,0.2,2,0.5s1.1,0.8,1.4,1.5s0.5,1.4,0.5,2.2s-0.2,1.6-0.5,2.2
			c-0.4,0.6-0.8,1.1-1.4,1.5C66.9,242.9,66.2,243.1,65.5,243.1z M65.5,242c0.5,0,0.9-0.1,1.3-0.3s0.7-0.6,1-1c0.2-0.4,0.4-1,0.4-1.7
			s-0.1-1.2-0.4-1.7s-0.6-0.8-0.9-1s-0.8-0.3-1.3-0.3s-0.9,0.1-1.3,0.3c-0.4,0.2-0.7,0.6-1,1c-0.2,0.4-0.4,1-0.4,1.7
			s0.1,1.2,0.4,1.7c0.2,0.4,0.6,0.8,0.9,1C64.6,241.9,65,242,65.5,242z"/>
		<path class="st1" d="M73.2,242.9l-3-7.9h1.4l2.4,6.6l2.4-6.6h1.4l-3,7.9H73.2z"/>
		<path class="st1" d="M82.5,243.1c-0.8,0-1.4-0.2-2-0.5c-0.6-0.4-1.1-0.8-1.4-1.4c-0.3-0.6-0.5-1.4-0.5-2.2s0.2-1.6,0.5-2.2
			c0.3-0.6,0.8-1.1,1.4-1.5s1.3-0.5,2.1-0.5c0.8,0,1.4,0.2,2,0.5c0.6,0.4,1,0.8,1.3,1.4c0.3,0.6,0.5,1.2,0.5,1.8c0,0.1,0,0.2,0,0.4
			s0,0.2,0,0.4h-6.3c0,0.6,0.2,1.1,0.4,1.5c0.2,0.4,0.6,0.7,0.9,0.9c0.4,0.2,0.8,0.3,1.2,0.3c0.6,0,1-0.1,1.4-0.4
			c0.4-0.2,0.7-0.6,0.8-1H86c-0.2,0.7-0.6,1.4-1.2,1.8C84.2,242.9,83.4,243.1,82.5,243.1z M82.5,235.9c-0.6,0-1.2,0.2-1.7,0.6
			c-0.5,0.4-0.8,1-0.9,1.7h5c0-0.7-0.3-1.3-0.7-1.7C83.7,236.1,83.1,235.9,82.5,235.9z"/>
		<path class="st1" d="M92.7,242.9v-6.8h-1.2V235h1.2v-1.4c0-0.8,0.2-1.3,0.6-1.7s0.9-0.5,1.7-0.5h0.8v1.1h-0.6
			c-0.4,0-0.7,0.1-0.9,0.2c-0.2,0.2-0.3,0.4-0.3,0.8v1.3h4.9v7.9h-1.3v-6.8H94v6.8L92.7,242.9L92.7,242.9z M98.3,233.5
			c-0.3,0-0.5-0.1-0.7-0.3s-0.3-0.4-0.3-0.7s0.1-0.5,0.3-0.6c0.2-0.2,0.4-0.3,0.7-0.3c0.3,0,0.5,0.1,0.7,0.3s0.3,0.4,0.3,0.6
			c0,0.3-0.1,0.5-0.3,0.7C98.8,233.4,98.5,233.5,98.3,233.5z"/>
		<path class="st1" d="M104.4,242.9c-0.7,0-1.3-0.2-1.7-0.5c-0.4-0.4-0.6-1-0.6-1.9v-4.4h-1.4V235h1.4l0.2-1.9h1.2v1.9h2.3v1.1h-2.3
			v4.4c0,0.5,0.1,0.8,0.3,1c0.2,0.2,0.6,0.3,1.1,0.3h0.8v1.2h-1.3V242.9z"/>
		<path class="st1" d="M107.5,242.9V235h1.2l0.1,1.4c0.3-0.5,0.6-0.9,1.1-1.2s1-0.4,1.6-0.4c0.9,0,1.7,0.3,2.2,0.9s0.8,1.5,0.8,2.6
			v4.6h-1.3v-4.5c0-1.7-0.7-2.5-2.1-2.5c-0.7,0-1.2,0.2-1.7,0.7c-0.4,0.5-0.7,1.2-0.7,2.1v4.1L107.5,242.9L107.5,242.9z"/>
		<path class="st1" d="M120.2,243.1c-0.8,0-1.4-0.2-2-0.5s-1.1-0.8-1.4-1.4c-0.3-0.6-0.5-1.4-0.5-2.2s0.2-1.6,0.5-2.2
			c0.3-0.6,0.8-1.1,1.4-1.5s1.3-0.5,2.1-0.5c0.8,0,1.4,0.2,2,0.5c0.6,0.4,1,0.8,1.3,1.4s0.4,1.2,0.4,1.8c0,0.1,0,0.2,0,0.4
			s0,0.2,0,0.4h-6.3c0,0.6,0.2,1.1,0.4,1.5c0.2,0.4,0.6,0.7,0.9,0.9c0.4,0.2,0.8,0.3,1.2,0.3c0.5,0,1-0.1,1.4-0.4
			c0.4-0.3,0.6-0.6,0.8-1h1.3c-0.2,0.7-0.6,1.4-1.2,1.8C121.9,242.9,121.2,243.1,120.2,243.1z M120.2,235.9c-0.6,0-1.2,0.2-1.7,0.6
			c-0.5,0.4-0.8,1-0.9,1.7h5c0-0.7-0.3-1.3-0.7-1.7C121.4,236.1,120.9,235.9,120.2,235.9z"/>
		<path class="st1" d="M128.8,243.1c-1,0-1.7-0.2-2.4-0.7c-0.6-0.5-1-1.1-1.1-2h1.4c0.1,0.4,0.3,0.8,0.7,1.1
			c0.4,0.3,0.8,0.5,1.5,0.5c0.6,0,1-0.1,1.2-0.4s0.4-0.5,0.4-0.9c0-0.5-0.2-0.8-0.5-1s-0.8-0.3-1.5-0.4c-0.4-0.1-0.9-0.2-1.3-0.4
			s-0.8-0.4-1.1-0.7c-0.3-0.3-0.4-0.7-0.4-1.2c0-0.7,0.3-1.3,0.8-1.7s1.2-0.7,2.1-0.7c0.8,0,1.5,0.2,2.1,0.6c0.5,0.4,0.9,1,0.9,1.8
			h-1.3c-0.1-0.4-0.2-0.7-0.5-1c-0.3-0.2-0.7-0.3-1.2-0.3s-0.9,0.1-1.1,0.3c-0.3,0.2-0.4,0.5-0.4,0.8s0.2,0.6,0.5,0.8
			s0.8,0.3,1.4,0.5c0.5,0.1,1,0.2,1.4,0.4c0.4,0.1,0.8,0.4,1.1,0.7s0.4,0.7,0.4,1.3c0,0.7-0.3,1.3-0.8,1.8
			C130.5,242.9,129.7,243.1,128.8,243.1z"/>
		<path class="st1" d="M136.8,243.1c-0.9,0-1.7-0.2-2.4-0.7c-0.6-0.5-1-1.1-1.1-2h1.4c0.1,0.4,0.3,0.8,0.7,1.1s0.8,0.5,1.4,0.5
			c0.6,0,1-0.1,1.2-0.4s0.4-0.5,0.4-0.9c0-0.5-0.2-0.8-0.5-1s-0.8-0.3-1.5-0.4c-0.4-0.1-0.9-0.2-1.3-0.4c-0.4-0.2-0.8-0.4-1.1-0.7
			s-0.4-0.7-0.4-1.2c0-0.7,0.3-1.3,0.8-1.7s1.2-0.7,2.1-0.7c0.8,0,1.5,0.2,2.1,0.6c0.5,0.4,0.9,1,0.9,1.8h-1.3
			c-0.1-0.4-0.2-0.7-0.5-1c-0.3-0.2-0.7-0.3-1.2-0.3s-0.9,0.1-1.1,0.3c-0.3,0.2-0.4,0.5-0.4,0.8s0.2,0.6,0.5,0.8s0.8,0.3,1.4,0.5
			c0.5,0.1,1,0.2,1.4,0.4c0.4,0.1,0.8,0.4,1.1,0.7s0.4,0.7,0.4,1.3c0,0.7-0.3,1.3-0.8,1.8C138.5,242.9,137.7,243.1,136.8,243.1z"/>
		<path class="st1" d="M146,242.9v-11.5h1.3v11.5H146z"/>
		<path class="st1" d="M153.1,243.1c-0.8,0-1.4-0.2-2-0.5s-1.1-0.8-1.4-1.4c-0.3-0.6-0.5-1.4-0.5-2.2s0.2-1.6,0.5-2.2
			c0.3-0.6,0.8-1.1,1.4-1.5s1.3-0.5,2.1-0.5s1.4,0.2,2,0.5s1,0.8,1.3,1.4s0.4,1.2,0.4,1.8c0,0.1,0,0.2,0,0.4s0,0.2,0,0.4h-6.3
			c0,0.6,0.2,1.1,0.4,1.5s0.6,0.7,0.9,0.9c0.4,0.2,0.8,0.3,1.2,0.3c0.5,0,1-0.1,1.4-0.4c0.4-0.3,0.6-0.6,0.8-1h1.3
			c-0.2,0.7-0.6,1.4-1.2,1.8C154.8,242.9,154,243.1,153.1,243.1z M153.1,235.9c-0.6,0-1.2,0.2-1.7,0.6c-0.5,0.4-0.8,1-0.9,1.7h5
			c0-0.7-0.3-1.3-0.7-1.7C154.3,236.1,153.8,235.9,153.1,235.9z"/>
		<path class="st1" d="M160.6,242.9l-3-7.9h1.4l2.4,6.6l2.4-6.6h1.4l-3,7.9H160.6z"/>
		<path class="st1" d="M169.8,243.1c-0.8,0-1.4-0.2-2-0.5s-1.1-0.8-1.4-1.4c-0.3-0.6-0.5-1.4-0.5-2.2s0.2-1.6,0.5-2.2
			c0.3-0.6,0.8-1.1,1.4-1.5s1.3-0.5,2.1-0.5s1.4,0.2,2,0.5c0.6,0.4,1,0.8,1.3,1.4s0.4,1.2,0.4,1.8c0,0.1,0,0.2,0,0.4s0,0.2,0,0.4
			h-6.3c0,0.6,0.2,1.1,0.4,1.5s0.6,0.7,0.9,0.9c0.4,0.2,0.8,0.3,1.2,0.3c0.5,0,1-0.1,1.4-0.4c0.4-0.3,0.6-0.6,0.8-1h1.3
			c-0.2,0.7-0.6,1.4-1.2,1.8C171.5,242.9,170.8,243.1,169.8,243.1z M169.8,235.9c-0.6,0-1.2,0.2-1.7,0.6c-0.5,0.4-0.8,1-0.9,1.7h5
			c0-0.7-0.3-1.3-0.7-1.7C171.1,236.1,170.5,235.9,169.8,235.9z"/>
		<path class="st1" d="M175.4,242.9v-11.5h1.3v11.5H175.4z"/>
		<path class="st1" d="M182,243.1c-0.9,0-1.7-0.2-2.4-0.7c-0.6-0.5-1-1.1-1.1-2h1.4c0.1,0.4,0.3,0.8,0.7,1.1s0.8,0.5,1.4,0.5
			c0.6,0,1-0.1,1.2-0.4s0.4-0.5,0.4-0.9c0-0.5-0.2-0.8-0.5-1c-0.4-0.2-0.8-0.3-1.5-0.4c-0.4-0.1-0.9-0.2-1.3-0.4
			c-0.4-0.2-0.8-0.4-1.1-0.7s-0.4-0.7-0.4-1.2c0-0.7,0.3-1.3,0.8-1.7s1.2-0.7,2.1-0.7c0.8,0,1.5,0.2,2.1,0.6c0.5,0.4,0.9,1,0.9,1.8
			h-1.3c-0.1-0.4-0.2-0.7-0.5-1c-0.3-0.2-0.7-0.3-1.2-0.3s-0.9,0.1-1.1,0.3c-0.3,0.2-0.4,0.5-0.4,0.8s0.2,0.6,0.5,0.8
			s0.8,0.3,1.4,0.5c0.5,0.1,1,0.2,1.4,0.4c0.4,0.1,0.8,0.4,1.1,0.7s0.4,0.7,0.4,1.3c0,0.7-0.3,1.3-0.8,1.8
			C183.6,242.9,182.9,243.1,182,243.1z"/>
		<path class="st1" d="M193.8,243.1c-0.7,0-1.2-0.1-1.6-0.3c-0.4-0.2-0.8-0.5-1-0.9s-0.3-0.8-0.3-1.2c0-0.8,0.3-1.4,0.9-1.9
			c0.6-0.4,1.5-0.7,2.5-0.7h2.1V238c0-0.7-0.2-1.2-0.5-1.6c-0.4-0.4-0.8-0.5-1.5-0.5c-0.5,0-1,0.1-1.4,0.4c-0.4,0.3-0.6,0.6-0.7,1.1
			H191c0.1-0.6,0.2-1.1,0.6-1.5c0.3-0.4,0.8-0.7,1.3-0.9s1-0.3,1.6-0.3c1.1,0,1.9,0.3,2.5,0.9s0.8,1.4,0.8,2.4v4.9h-1.2l-0.1-1.4
			c-0.2,0.5-0.6,0.8-1,1.1C195.1,243,194.5,243.1,193.8,243.1z M194,242c0.5,0,0.9-0.1,1.3-0.4c0.4-0.3,0.6-0.6,0.8-1
			s0.3-0.9,0.3-1.3l0,0h-2c-0.8,0-1.3,0.1-1.7,0.4c-0.3,0.3-0.5,0.6-0.5,1s0.2,0.8,0.5,1C193,241.9,193.4,242,194,242z"/>
		<path class="st1" d="M199.8,242.9V235h1.2l0.1,1.4c0.3-0.5,0.6-0.9,1.1-1.2s1-0.4,1.6-0.4c0.9,0,1.7,0.3,2.2,0.9s0.8,1.5,0.8,2.6
			v4.6h-1.3v-4.5c0-1.7-0.7-2.5-2.1-2.5c-0.7,0-1.2,0.2-1.7,0.7c-0.4,0.5-0.7,1.2-0.7,2.1v4.1L199.8,242.9L199.8,242.9z"/>
		<path class="st1" d="M212.6,243.1c-0.8,0-1.5-0.2-2.1-0.5c-0.6-0.4-1.1-0.9-1.4-1.5c-0.3-0.6-0.5-1.3-0.5-2.1s0.2-1.5,0.5-2.1
			s0.8-1.1,1.4-1.5c0.6-0.4,1.3-0.5,2.1-0.5c0.6,0,1.2,0.1,1.7,0.4s0.9,0.6,1.2,1.1v-4.9h1.3V243h-1.2l-0.1-1.3
			c-0.3,0.4-0.6,0.7-1.1,1S213.3,243.1,212.6,243.1z M212.7,241.9c0.5,0,1-0.1,1.4-0.4c0.4-0.2,0.7-0.6,1-1c0.2-0.5,0.3-1,0.3-1.6
			s-0.1-1.1-0.3-1.6c-0.2-0.4-0.6-0.8-1-1s-0.9-0.4-1.4-0.4s-1,0.1-1.4,0.4s-0.7,0.6-1,1c-0.2,0.5-0.3,1-0.3,1.6s0.1,1.1,0.3,1.6
			c0.2,0.4,0.6,0.8,1,1C211.7,241.8,212.2,241.9,212.7,241.9z"/>
		<path class="st1" d="M223.7,242.9v-6.8h-1.2V235h1.2v-1.4c0-0.8,0.2-1.3,0.6-1.7c0.4-0.4,0.9-0.5,1.7-0.5h0.8v1.1h-0.6
			c-0.4,0-0.7,0.1-0.9,0.2c-0.2,0.2-0.3,0.4-0.3,0.8v1.3h4.9v7.9h-1.3v-6.8H225v6.8L223.7,242.9L223.7,242.9z M229.3,233.5
			c-0.3,0-0.5-0.1-0.7-0.3s-0.3-0.4-0.3-0.7s0.1-0.5,0.3-0.6c0.2-0.2,0.4-0.3,0.7-0.3s0.5,0.1,0.7,0.3s0.3,0.4,0.3,0.6
			c0,0.3-0.1,0.5-0.3,0.7S229.6,233.5,229.3,233.5z"/>
		<path class="st1" d="M235.5,240.4c-0.5,0-0.9-0.1-1.2-0.2l-0.8,0.8c0.1,0.1,0.3,0.2,0.4,0.2c0.2,0.1,0.4,0.1,0.8,0.2
			c0.3,0.1,0.8,0.1,1.4,0.1c1.1,0.1,1.8,0.3,2.3,0.7s0.7,1,0.7,1.6c0,0.5-0.1,0.9-0.4,1.3c-0.2,0.4-0.6,0.8-1.1,1
			c-0.5,0.3-1.2,0.4-2,0.4c-0.7,0-1.4-0.1-1.9-0.3c-0.6-0.2-1-0.5-1.3-0.9s-0.5-0.9-0.5-1.4c0-0.3,0.1-0.6,0.2-1s0.5-0.7,0.9-1
			c-0.2-0.1-0.4-0.2-0.6-0.3c-0.2-0.1-0.3-0.2-0.5-0.4v-0.4l1.4-1.3c-0.6-0.5-0.9-1.2-0.9-2.1c0-0.5,0.1-1,0.4-1.4
			c0.2-0.4,0.6-0.8,1.1-1s1-0.4,1.7-0.4c0.5,0,0.9,0.1,1.2,0.2h2.9v1l-1.5,0.1c0.3,0.4,0.5,1,0.5,1.5s-0.1,1-0.4,1.4
			c-0.2,0.4-0.6,0.8-1.1,1C236.7,240.3,236.1,240.4,235.5,240.4z M233.1,243.9c0,0.5,0.2,0.9,0.7,1.2s1,0.4,1.7,0.4s1.2-0.1,1.6-0.4
			s0.6-0.7,0.6-1.1c0-0.3-0.1-0.6-0.4-0.9s-0.8-0.4-1.5-0.4c-0.6,0-1.1-0.1-1.5-0.2c-0.4,0.2-0.7,0.5-0.9,0.8
			C233.2,243.5,233.1,243.7,233.1,243.9z M235.5,239.3c0.6,0,1-0.1,1.3-0.4c0.3-0.3,0.5-0.7,0.5-1.3c0-0.5-0.2-1-0.5-1.3
			s-0.8-0.4-1.3-0.4c-0.6,0-1,0.1-1.4,0.4s-0.5,0.7-0.5,1.3s0.2,1,0.5,1.3C234.4,239.2,234.9,239.3,235.5,239.3z"/>
		<path class="st1" d="M241.2,242.9v-11.5h1.3v4.9c0.3-0.5,0.7-0.9,1.1-1.1c0.5-0.3,1-0.4,1.6-0.4c0.9,0,1.6,0.3,2.2,0.9
			c0.5,0.6,0.8,1.5,0.8,2.6v4.6h-1.3v-4.5c0-1.7-0.7-2.5-2-2.5c-0.7,0-1.3,0.2-1.7,0.7c-0.5,0.5-0.7,1.2-0.7,2.1v4.1L241.2,242.9
			L241.2,242.9z"/>
		<path class="st1" d="M253.4,242.9c-0.7,0-1.3-0.2-1.7-0.5c-0.4-0.4-0.6-1-0.6-1.9v-4.4h-1.4V235h1.4l0.2-1.9h1.2v1.9h2.3v1.1h-2.3
			v4.4c0,0.5,0.1,0.8,0.3,1s0.6,0.3,1.1,0.3h0.8v1.2h-1.3V242.9z"/>
		<path class="st1" d="M263.8,243.1c-0.9,0-1.7-0.2-2.4-0.7c-0.6-0.5-1-1.1-1.1-2h1.4c0.1,0.4,0.3,0.8,0.7,1.1
			c0.4,0.3,0.8,0.5,1.5,0.5c0.6,0,1-0.1,1.2-0.4c0.3-0.2,0.4-0.5,0.4-0.9c0-0.5-0.2-0.8-0.5-1c-0.4-0.2-0.8-0.3-1.5-0.4
			c-0.4-0.1-0.9-0.2-1.3-0.4s-0.8-0.4-1.1-0.7c-0.3-0.3-0.4-0.7-0.4-1.2c0-0.7,0.3-1.3,0.8-1.7s1.2-0.7,2.1-0.7
			c0.8,0,1.5,0.2,2.1,0.6c0.5,0.4,0.9,1,0.9,1.8h-1.3c0-0.4-0.2-0.7-0.5-1s-0.7-0.3-1.2-0.3s-0.9,0.1-1.1,0.3
			c-0.3,0.2-0.4,0.5-0.4,0.8s0.2,0.6,0.5,0.8s0.8,0.3,1.4,0.5c0.5,0.1,1,0.2,1.4,0.4c0.4,0.1,0.8,0.4,1.1,0.7
			c0.3,0.3,0.4,0.7,0.4,1.3c0,0.7-0.3,1.3-0.8,1.8C265.5,242.9,264.7,243.1,263.8,243.1z"/>
		<path class="st1" d="M271.5,242.9c-0.7,0-1.3-0.2-1.7-0.5c-0.4-0.4-0.6-1-0.6-1.9v-4.4h-1.4V235h1.4l0.2-1.9h1.2v1.9h2.3v1.1h-2.3
			v4.4c0,0.5,0.1,0.8,0.3,1c0.2,0.2,0.6,0.3,1.1,0.3h0.8v1.2h-1.3V242.9z"/>
		<path class="st1" d="M274.6,242.9V235h1.2l0.1,1.5c0.2-0.5,0.6-0.9,1.1-1.2s1.1-0.5,1.9-0.5v1.4h-0.4c-0.5,0-0.9,0.1-1.3,0.2
			c-0.4,0.2-0.7,0.4-0.9,0.8c-0.2,0.4-0.3,0.9-0.3,1.6v4L274.6,242.9L274.6,242.9z"/>
		<path class="st1" d="M283.6,243.1c-0.8,0-1.4-0.2-2-0.5s-1-0.8-1.4-1.4c-0.3-0.6-0.5-1.4-0.5-2.2s0.2-1.6,0.5-2.2
			c0.3-0.6,0.8-1.1,1.4-1.5s1.3-0.5,2.1-0.5c0.8,0,1.4,0.2,2,0.5c0.6,0.4,1,0.8,1.3,1.4c0.3,0.6,0.5,1.2,0.5,1.8c0,0.1,0,0.2,0,0.4
			c0,0.1,0,0.2,0,0.4h-6.3c0,0.6,0.2,1.1,0.4,1.5c0.2,0.4,0.6,0.7,0.9,0.9c0.4,0.2,0.8,0.3,1.2,0.3c0.5,0,1-0.1,1.4-0.4
			c0.4-0.3,0.6-0.6,0.8-1h1.3c-0.2,0.7-0.6,1.4-1.2,1.8C285.4,242.9,284.6,243.1,283.6,243.1z M283.6,235.9c-0.6,0-1.2,0.2-1.7,0.6
			c-0.5,0.4-0.8,1-0.9,1.7h5c0-0.7-0.3-1.3-0.7-1.7C284.9,236.1,284.3,235.9,283.6,235.9z"/>
		<path class="st1" d="M292.2,243.1c-1,0-1.7-0.2-2.4-0.7c-0.6-0.5-1-1.1-1.1-2h1.4c0.1,0.4,0.3,0.8,0.7,1.1
			c0.4,0.3,0.8,0.5,1.4,0.5s1-0.1,1.2-0.4c0.3-0.2,0.4-0.5,0.4-0.9c0-0.5-0.2-0.8-0.5-1c-0.4-0.2-0.8-0.3-1.5-0.4
			c-0.4-0.1-0.9-0.2-1.3-0.4s-0.8-0.4-1.1-0.7c-0.3-0.3-0.4-0.7-0.4-1.2c0-0.7,0.3-1.3,0.8-1.7s1.2-0.7,2.1-0.7
			c0.8,0,1.5,0.2,2.1,0.6c0.5,0.4,0.9,1,0.9,1.8h-1.3c0-0.4-0.2-0.7-0.5-1c-0.3-0.2-0.7-0.3-1.2-0.3s-0.8,0.1-1.1,0.3
			c-0.3,0.2-0.4,0.5-0.4,0.8s0.2,0.6,0.5,0.8s0.8,0.3,1.4,0.5c0.5,0.1,1,0.2,1.4,0.4c0.4,0.1,0.8,0.4,1.1,0.7
			c0.3,0.3,0.4,0.7,0.4,1.3c0,0.7-0.3,1.3-0.8,1.8C293.9,242.9,293.2,243.1,292.2,243.1z"/>
		<path class="st1" d="M300.2,243.1c-1,0-1.7-0.2-2.4-0.7c-0.6-0.5-1-1.1-1.1-2h1.4c0.1,0.4,0.3,0.8,0.7,1.1
			c0.4,0.3,0.8,0.5,1.4,0.5s1-0.1,1.2-0.4c0.3-0.2,0.4-0.5,0.4-0.9c0-0.5-0.2-0.8-0.5-1c-0.4-0.2-0.8-0.3-1.5-0.4
			c-0.4-0.1-0.9-0.2-1.3-0.4s-0.8-0.4-1.1-0.7c-0.3-0.3-0.4-0.7-0.4-1.2c0-0.7,0.3-1.3,0.8-1.7s1.2-0.7,2.1-0.7
			c0.8,0,1.5,0.2,2.1,0.6c0.5,0.4,0.9,1,0.9,1.8h-1.3c0-0.4-0.2-0.7-0.5-1c-0.3-0.2-0.7-0.3-1.2-0.3s-0.8,0.1-1.1,0.3
			c-0.3,0.2-0.4,0.5-0.4,0.8s0.2,0.6,0.5,0.8s0.8,0.3,1.4,0.5c0.5,0.1,1,0.2,1.4,0.4c0.4,0.1,0.8,0.4,1.1,0.7
			c0.3,0.3,0.4,0.7,0.4,1.3c0,0.7-0.3,1.3-0.8,1.8C301.9,242.9,301.2,243.1,300.2,243.1z"/>
		<path class="st1" d="M305.6,243c-0.3,0-0.5-0.1-0.7-0.3s-0.3-0.4-0.3-0.6s0.1-0.5,0.3-0.6c0.2-0.2,0.4-0.3,0.7-0.3
			c0.3,0,0.5,0.1,0.6,0.3c0.2,0.2,0.3,0.4,0.3,0.6s-0.1,0.5-0.3,0.6C306.1,242.9,305.9,243,305.6,243z"/>
		<path class="st1" d="M30.9,161.4v-10.1h-3.3v-1.1h8v1.1h-3.3v10.1H30.9z"/>
		<path class="st1" d="M37.1,161.4v-11.5h1.3v4.9c0.3-0.5,0.7-0.9,1.1-1.1c0.5-0.3,1-0.4,1.6-0.4c0.9,0,1.6,0.3,2.2,0.9
			c0.6,0.6,0.8,1.4,0.8,2.6v4.6h-1.3v-4.5c0-1.6-0.7-2.5-2-2.5c-0.7,0-1.3,0.2-1.7,0.7c-0.5,0.5-0.7,1.2-0.7,2.1v4.1L37.1,161.4
			L37.1,161.4z"/>
		<path class="st1" d="M49.9,161.6c-0.8,0-1.4-0.2-2-0.5c-0.6-0.4-1.1-0.8-1.4-1.4c-0.3-0.6-0.5-1.4-0.5-2.2s0.2-1.6,0.5-2.2
			c0.3-0.6,0.8-1.1,1.4-1.5c0.6-0.4,1.3-0.5,2.1-0.5s1.4,0.2,2,0.5c0.6,0.4,1,0.8,1.3,1.4c0.3,0.6,0.4,1.2,0.4,1.8
			c0,0.1,0,0.2,0,0.4c0,0.1,0,0.2,0,0.4h-6.3c0,0.6,0.2,1.1,0.4,1.5s0.6,0.7,0.9,0.9s0.8,0.3,1.2,0.3c0.6,0,1-0.1,1.4-0.4
			s0.7-0.6,0.8-1h1.3c-0.2,0.7-0.6,1.4-1.2,1.8C51.6,161.4,50.8,161.6,49.9,161.6z M49.9,154.5c-0.6,0-1.2,0.2-1.7,0.6
			c-0.5,0.4-0.8,1-0.9,1.7h5c0-0.7-0.3-1.3-0.7-1.7C51.1,154.7,50.5,154.5,49.9,154.5z"/>
		<path class="st2" d="M28.2,173.8c0.2-0.1,0.5-0.1,1-0.1c0.8,0,1.9,0.1,3.3,0.3c0.6,0.1,1.1,0.3,1.6,0.7s0.8,0.9,0.9,1.4
			c0,0.1,0,0.2,0,0.5c0,0.6-0.1,1.4-0.2,2.4c-0.4,2.8-0.9,6-1.3,9.8c-0.5,3.7-0.7,5.9-0.7,6.4c0,0.8-0.1,1.4-0.4,1.6
			s-0.7,0.4-1.4,0.4h-0.2c-1,0-1.5-0.2-1.7-0.5s-0.3-0.7-0.3-1.2c0-0.4,0.1-0.9,0.2-1.3c0.1-0.2,0.2-1.2,0.5-3
			c0.1-0.8,0.1-1.4,0.1-1.8c0-0.5-0.1-0.8-0.2-1c-0.2-0.2-0.5-0.3-1-0.4c-0.5-0.1-0.9-0.3-1.1-0.6s0-0.7,0.5-1.1
			c0.5-0.5,1-0.7,1.4-0.7c0.5,0,0.8-0.1,0.9-0.4c0.1-0.2,0.3-1.4,0.6-3.4c0.3-2,0.4-3.4,0.4-4.2c0-0.1,0-0.1,0-0.2
			c0-0.1,0-0.1,0-0.2c-0.1-0.2-0.2-0.4-0.3-0.5c-0.1-0.1-0.5-0.1-0.9-0.1c-0.8,0-1.4-0.1-1.9-0.4c-0.5-0.2-0.8-0.5-0.8-0.9
			C27.1,174.7,27.5,174.2,28.2,173.8z"/>
		<path class="st2" d="M50,188.3v3H38.8v-3H50z"/>
		<path class="st2" d="M65.2,174.5c0.4-0.2,0.8-0.2,1.1-0.2c0.8,0,1.4,0.3,1.7,0.8c0.2,0.3,0.5,1.6,0.7,3.9c0.2,2.3,0.4,4.7,0.5,7.4
			c0,0.9,0.1,2.1,0.2,3.7s0.1,3,0.2,4.1c0,1.2,0.1,2.1,0.1,2.8c0,0.4-0.2,0.7-0.7,1s-0.9,0.4-1.5,0.4c-0.5,0-0.8-0.1-1-0.3l-0.6-0.5
			l-0.1-5.5c-0.2-6.3-0.5-9.5-0.8-9.5c-0.2,0-0.6,0.8-1.1,2.4c-0.3,0.9-0.6,1.5-0.8,1.9c-0.3,0.4-0.7,0.6-1.1,0.6
			c-0.3,0-0.7-0.1-1.2-0.3s-0.9-0.7-1.3-1.4c-0.4-0.8-0.5-1.2-0.5-1.3s-0.1-0.3-0.2-0.6c-0.2-0.3-0.3-0.6-0.5-0.9
			c-0.2-0.3-0.3-0.4-0.3-0.3v0.6c0,1.3,0.1,3.3,0.1,5.9l0.2,6.4l-0.6,1c-0.7,1-1.2,1.6-1.7,1.6c-0.3,0-0.6-0.2-0.9-0.7
			c-0.2-0.4-0.4-0.9-0.5-1.7s-0.1-3-0.2-6.9c-0.2-7.1-0.3-11.1-0.5-12c0-0.1,0-0.3,0-0.5c0-0.3,0.2-0.7,0.5-1
			c0.4-0.4,0.8-0.5,1.3-0.5s1.1,0.1,1.7,0.4c0.6,0.3,1.1,0.6,1.4,1.1c0.3,0.5,1.1,1.8,2.3,4c0.3,0.6,0.6,0.9,0.7,0.9
			c0.1,0,0.3-0.2,0.5-0.6c0.2-0.5,0.4-1.1,0.8-1.8c0.4-0.9,0.6-1.4,0.6-1.5c0-0.3,0.2-0.7,0.6-1.4C64.7,175,65,174.6,65.2,174.5z"/>
		<path class="st2" d="M74.6,172.5c0.4-0.4,0.8-0.6,1.4-0.6s1,0.2,1.4,0.6l0.6,0.6l0.3,10.3c0.2,5.7,0.2,9,0.2,9.8
			c0,0.5,0,0.8,0,1.1s0,0.5-0.1,0.7c0,0.2-0.1,0.3-0.1,0.4c-0.1,0.1-0.1,0.2-0.1,0.2s-0.1,0.1-0.2,0.1c-0.1,0.1-0.2,0.1-0.2,0.1
			c-0.3,0.2-0.6,0.3-0.8,0.3c-0.1,0-0.4-0.1-0.9-0.2c-0.7-0.3-1.1-0.6-1.2-0.8c-0.1-0.1-0.2-3.8-0.3-11c-0.1-7.2-0.1-10.8-0.2-10.9
			C74.2,173.1,74.3,172.8,74.6,172.5z"/>
		<path class="st2" d="M84.3,174.1c0.5-0.2,0.9-0.3,1.4-0.3c0.9,0,1.5,0.6,1.8,1.7c0.2,0.9,0.6,1.8,1.1,2.8s0.8,1.8,1,2.4
			c0.3,1,0.6,1.6,0.8,1.9c0.1,0.1,0.2,0.2,0.2,0.2c0.1,0,0.2-0.7,0.4-2c0.1-1.2,0.1-2,0.1-2.5v-0.5c0-0.2-0.1-0.6-0.1-0.9
			c0-0.8,0.2-1.4,0.6-1.8c0.4-0.5,0.9-0.7,1.7-0.7c0.6,0,1,0.1,1.3,0.5c0.3,0.2,0.4,0.6,0.4,1.1c0,0.6,0,1.1-0.1,1.6
			s-0.1,4.2-0.2,11.1c0,4.3-0.1,6.9-0.1,7.8c0,0.9-0.2,1.4-0.4,1.6c-0.3,0.3-0.8,0.5-1.5,0.5c-1.3,0-2.1-0.6-2.3-1.9
			c-0.1-0.5-0.4-1.4-0.9-2.7c-0.5-1.2-0.8-2.3-0.9-3.2c-0.2-1.2-0.7-2.9-1.3-5c-0.1-0.2-0.1-0.3-0.1-0.3c-0.2,0-0.2,1.3-0.2,3.8v2.2
			v2.4c0,2.5-0.1,3.9-0.2,4.2c-0.3,0.9-0.9,1.3-1.9,1.3c-0.6,0-1-0.2-1.4-0.6c-0.3-0.3-0.4-0.6-0.4-0.9c0-0.1,0-0.3,0.1-0.8
			c0.2-1,0.2-4.7,0.2-11c0-7,0.1-10.8,0.2-11.2c0.1-0.3,0.2-0.4,0.5-0.5C84.2,174.2,84.2,174.2,84.3,174.1z"/>
		<path class="st2" d="M100.1,172.3c0.4-0.3,0.8-0.4,1.4-0.4c0.7,0,1.2,0.2,1.6,0.5l0.6,0.5v5.6c0.1,6.5,0.3,10.9,0.6,13.3
			c0.1,0.5,0.2,0.7,0.3,0.7c0.3,0,0.5-0.9,0.7-2.8c0.4-3.9,0.6-7.8,0.6-11.6v-1v-0.6c0-2.1,0.2-3.3,0.7-3.6c0.1-0.1,0.5-0.2,0.9-0.2
			c0.8,0,1.4,0.1,1.8,0.5c0.5,0.5,0.7,1.7,0.7,3.7c0,1.7-0.1,4.8-0.4,9.4c-0.2,3.8-0.6,6.5-1.2,8.1s-1.6,2.6-2.9,3
			c-0.5,0.2-0.9,0.3-1.1,0.3s-0.7-0.2-1.5-0.5c-1.7-0.8-2.6-2-2.8-3.8c-0.2-1.5-0.4-6.4-0.5-14.7c0-1.2-0.1-2.5-0.1-4
			c0-0.9,0-1.6,0.1-1.8C99.8,172.7,99.9,172.5,100.1,172.3z"/>
		<path class="st2" d="M115.7,172.6c0.4-0.4,1.1-0.5,2.1-0.5h1.1c1.7,0.1,2.6,0.1,3,0.2c0.2,0.1,0.6,0.1,1.3,0.2
			c0.7,0.1,1.2,0.2,1.5,0.4s0.5,0.6,0.5,1.2c0,0.6-0.1,1-0.4,1.2c-0.2,0.2-0.6,0.4-1.1,0.5c-0.6,0.1-1,0.2-1.1,0.3s-0.2,3.1-0.2,8.7
			c0,3.9,0.1,6.7,0.1,8.3c0.1,1.3,0.1,2,0.1,2.1c0,0.6-0.1,1.2-0.4,1.6c-0.3,0.6-0.8,0.9-1.5,0.9c-0.5,0-0.9-0.1-1.4-0.4l-0.9-0.5
			l0.1-10.4c0.1-2.7,0.1-5.4,0.1-8c0-1.6-0.1-2.5-0.4-2.6c-0.4-0.2-0.6-0.3-0.7-0.2c-0.1,0-0.3,0-0.5,0c-0.5,0-1-0.2-1.4-0.5
			s-0.6-0.7-0.6-1.1C115,173.4,115.2,173,115.7,172.6z"/>
		<path class="st2" d="M131.8,175.2c0.4-0.1,0.9-0.1,1.5-0.1c1.7,0,2.7,0.2,3.1,0.5c0.3,0.3,0.5,0.6,0.5,1s-0.1,0.7-0.5,1
			c-0.3,0.3-0.7,0.4-1.2,0.4s-0.8,0.1-0.9,0.3c-0.2,0.2-0.2,0.8-0.2,1.6c0,0.2,0,1,0.1,2.3c0.1,1.5,0.1,2.5,0.2,2.9s0.2,0.7,0.3,0.7
			c0,0,0.2,0,0.6,0c0.4,0,0.7,0,0.9,0c0.7,0,1.3,0.2,1.6,0.6c0.2,0.2,0.3,0.4,0.3,0.6c0,0.5-0.7,0.9-2,1.4c-0.8,0.3-1.2,0.5-1.4,0.6
			c-0.1,0.1-0.3,0.5-0.3,1c-0.1,0.5-0.1,0.9-0.1,1.3c0,1.5,0.1,2.7,0.4,3.4c0.1,0.3,0.3,0.5,0.4,0.6c0.2,0.1,0.5,0.1,1,0.1
			c0.6,0,1.2,0.1,1.6,0.4c0.5,0.3,0.7,0.6,0.7,1c0,0.3-0.2,0.6-0.7,1.1c-0.7,0.7-1.9,1-3.7,1s-2.9-0.4-3.5-1.1
			c-0.3-0.4-0.5-3-0.6-7.8c-0.1-6-0.1-9.5-0.2-10.6l-0.1-3.4l0.6-0.4C131,175.5,131.4,175.3,131.8,175.2z"/>
		<path class="st2" d="M148.9,173.9c0.1,0,0.3-0.1,0.6-0.1c1,0,1.6,0.1,1.6,0.2c0,0.1,0.1,0.3,0.3,0.6c0.2,0.5,0.3,0.9,0.3,1.3
			c0,1.2,0.3,3.1,0.8,5.9c0.1,1.1,0.4,2.2,0.6,3.2c0.3,1,0.4,1.5,0.6,1.5c0.1,0,0.1-0.1,0.1-0.4c0-0.8,0.6-1.5,1.9-1.9
			c0.6-0.2,1-0.2,1.2-0.2c0.5,0,0.8,0.2,1.1,0.5c0.3,0.4,0.5,1,0.8,1.9c0.2,0.6,0.3,1,0.4,0.9c0.1-0.1,0.2-0.7,0.5-2
			c0.2-1.3,0.4-2.3,0.5-3c0.1-0.4,0.1-1,0.3-1.8c0.1-0.8,0.2-1.5,0.3-2.4c0.2-1.6,0.3-2.5,0.5-2.8c0.1-0.3,0.5-0.6,1-0.9
			c0.6-0.3,1.1-0.4,1.6-0.4c0.4,0,0.8,0.2,1.1,0.5c0.3,0.4,0.5,0.8,0.5,1.2v0.1c0,0.1,0,0.1,0,0.1c-0.8,4.1-1.4,8.1-1.8,11.9
			c-0.3,2.7-0.5,4.6-0.7,5.8s-0.3,2.2-0.6,3c-0.2,0.8-0.4,1.4-0.6,1.5c-0.2,0.2-0.5,0.3-0.9,0.4c-0.1,0-0.4,0.1-0.7,0.1
			c-1,0-1.6-0.2-1.9-0.5c-0.1-0.2-0.3-0.7-0.7-1.5c-0.3-0.8-0.5-1.5-0.7-2c-0.1-0.4-0.2-0.6-0.4-0.6c-0.1,0-0.2,0.1-0.2,0.4
			c0,0.5-0.2,1.2-0.5,1.9c-0.3,0.8-0.7,1.3-1,1.6c-0.4,0.3-0.7,0.5-1,0.5c-0.2,0-0.4,0-0.6,0c-1-0.2-1.6-0.5-1.9-0.9
			c-0.3-0.4-0.5-1.4-0.7-2.8c-1.1-7.9-1.9-13.4-2.4-16.4c-0.2-1.2-0.4-2.1-0.4-2.8c0-0.5,0.1-0.8,0.3-1.1
			C148.3,174.1,148.6,174,148.9,173.9z"/>
		<path class="st2" d="M171.2,175.2l0.8-1h5.7l0.9,0.9c0.6,0.6,1,1.3,1.2,2.2s0.4,2.3,0.6,4.1c0.1,0.7,0.1,1.7,0.1,3.1
			c0,3.1-0.3,5.9-0.9,8.5c-0.6,2.5-1.3,4.3-2.3,5.2c-0.3,0.3-0.8,0.6-1.3,0.8c-0.6,0.2-1.1,0.3-1.5,0.3c-0.2,0-0.3,0-0.5-0.1
			s-0.6-0.2-1-0.2c-0.3,0-0.7-0.2-1.1-0.8c-0.4-0.5-0.7-1.1-1-1.8c-0.4-1.2-0.7-2.5-0.8-3.9s-0.2-3.7-0.2-6.8v-2.1
			c0-2.9,0.1-4.8,0.2-5.8C170.3,176.7,170.7,175.9,171.2,175.2z M175.5,177.4c-0.3-0.6-0.5-0.9-0.7-0.9s-0.5,0.5-0.8,1.4
			c-0.2,0.7-0.4,2.1-0.4,4.2c0,1.6,0.1,3.4,0.2,5.2c0.1,1.7,0.3,3.4,0.6,4.9s0.5,2.3,0.7,2.3s0.3-0.3,0.4-1c0.1-0.5,0.3-1,0.5-1.4
			c0.1-0.2,0.2-1.5,0.4-4c0.1-1.3,0.1-2.5,0.1-3.6C176.6,181.3,176.2,178.8,175.5,177.4z"/>
		<path class="st2" d="M186.6,173.3c0.6-0.2,1.2-0.3,2.1-0.3c0.9,0,1.6,0.1,2,0.3c0.8,0.3,1.4,1,1.8,1.8c0.2,0.4,0.4,1.2,0.5,2.4
			c0.2,1.2,0.2,2.2,0.2,3.1c0,0.4,0,0.7-0.1,0.9c-0.1,0.8-0.3,1.6-0.6,2.6s-0.6,1.4-0.7,1.4c-0.2,0-0.4,0.2-0.4,0.6
			c0,0.3,0.1,0.6,0.3,1c0.5,0.7,1.2,2,2.1,3.9c0.9,1.9,1.4,3.1,1.5,3.6c0,0.1,0.1,0.4,0.1,0.6c0,0.4-0.1,0.8-0.3,1
			c-0.2,0.4-0.5,0.5-0.9,0.5c-0.3,0-0.6,0-0.8,0c-0.8-0.1-1.2-0.2-1.4-0.3s-0.3-0.4-0.3-0.7c0-0.6-0.3-1.5-0.9-2.8
			c-0.6-1.2-1.1-1.9-1.4-1.9l0,0c-0.1,0.1-0.1,0.4-0.1,1c0,0.9,0.1,1.9,0.3,3c0.1,0.5,0.1,0.8,0.1,1c0,1-0.2,1.7-0.7,1.9
			c-0.2,0.1-0.4,0.1-0.8,0.1c-1,0-1.6-0.2-1.8-0.7c-0.2-0.2-0.3-2.3-0.4-6.2c0-1.2-0.1-2.6-0.1-4s-0.1-2.5-0.1-3.1
			c0-0.7,0-1.5-0.1-2.6s-0.2-2.2-0.3-3.5c-0.1-1.5-0.2-2.3-0.2-2.6c0-0.7,0.1-1.2,0.3-1.5C185.7,173.7,186.1,173.5,186.6,173.3z
			 M189.5,176.7c-0.1-0.2-0.3-0.4-0.5-0.4s-0.3,0.1-0.5,0.3c-0.1,0.2-0.1,0.4,0,0.5c0,0,0.1,1,0.2,3s0.2,2.9,0.3,3s0.2-0.1,0.5-0.4
			c0.2-0.3,0.3-0.8,0.3-1.5c0-0.6,0-1.1-0.1-1.5C189.7,178,189.6,177,189.5,176.7z"/>
		<path class="st2" d="M207.9,174.7c0.4-0.3,0.8-0.5,1.1-0.5c0.2,0,0.6,0.1,1.1,0.4c0.6,0.3,0.9,0.6,0.9,0.9c0,0.4-0.6,1.7-1.8,3.9
			c-0.3,0.5-0.6,1.1-0.9,1.7c-0.3,0.6-0.6,1-0.8,1.3s-0.4,0.6-0.6,1c-0.2,0.3-0.3,0.6-0.4,0.7c-0.1,0.2-0.2,0.3-0.2,0.5
			c-0.1,0.2-0.1,0.3-0.1,0.4c0,0.1-0.1,0.2-0.1,0.2c0,0.4,0.3,1,0.8,1.7c0.6,0.9,0.9,1.5,0.9,1.6s0.2,0.4,0.5,0.9
			c0.3,0.4,0.7,1.1,1.1,2.1c0.2,0.7,0.6,1.4,1.1,2.1c1.4,2,2.1,3.5,2.1,4.4s-0.6,1.3-1.9,1.3h-0.1c-0.8,0-1.3-0.1-1.6-0.4
			c-0.3-0.2-0.6-0.8-0.9-1.7c-0.2-0.6-0.6-1.3-1-2s-0.7-1.4-0.9-1.9c-0.3-0.7-0.7-1.6-1.2-2.5c-0.6-0.9-0.9-1.4-1.1-1.4
			c-0.1,0-0.2,0.3-0.2,1c0,1.1,0.1,2.9,0.4,5.4c0.1,0.8,0.1,1.4,0.1,1.8c0,0.5-0.1,0.9-0.3,1s-0.7,0.3-1.4,0.4
			c-0.4,0.1-0.7,0.1-0.7,0.1c-0.3,0-0.6-0.2-1-0.6c-0.4-0.4-0.6-1-0.6-1.7c0-0.1,0-0.3,0-0.6s0-0.6,0-0.8c0.1-1.2,0.1-2.7,0.1-4.5
			c0-2.6,0-5.2-0.1-7.9l-0.1-7.5l0.6-0.3c0.2-0.1,0.3-0.1,0.5-0.1s0.6,0.1,1.1,0.4l1,0.5l0.1,3c0.1,2,0.1,3,0.3,3s0.7-0.7,1.5-2.1
			c0.8-1.4,1.4-2.5,1.7-3.2C207.1,175.8,207.5,175.2,207.9,174.7z"/>
		<path class="st2" d="M218.5,175.2l0.8-1h5.7l0.9,0.9c0.6,0.6,1,1.3,1.2,2.2s0.4,2.3,0.6,4.1c0.1,0.7,0.1,1.7,0.1,3.1
			c0,3.1-0.3,5.9-0.9,8.5c-0.6,2.5-1.3,4.3-2.3,5.2c-0.3,0.3-0.8,0.6-1.3,0.8c-0.6,0.2-1.1,0.3-1.5,0.3c-0.2,0-0.3,0-0.5-0.1
			s-0.6-0.2-1-0.2c-0.3,0-0.7-0.2-1-0.8c-0.4-0.5-0.7-1.1-1-1.8c-0.4-1.2-0.7-2.5-0.9-3.9c-0.1-1.4-0.2-3.7-0.2-6.8v-2.1
			c0-2.9,0.1-4.8,0.2-5.8C217.6,176.7,218,175.9,218.5,175.2z M222.8,177.4c-0.3-0.6-0.5-0.9-0.7-0.9s-0.5,0.5-0.8,1.4
			c-0.2,0.7-0.4,2.1-0.4,4.2c0,1.6,0.1,3.4,0.2,5.2c0.1,1.7,0.3,3.4,0.6,4.9s0.5,2.3,0.7,2.3c0.1,0,0.3-0.3,0.4-1
			c0.1-0.5,0.3-1,0.5-1.4c0.1-0.2,0.2-1.5,0.4-4c0.1-1.3,0.1-2.5,0.1-3.6C223.9,181.3,223.5,178.8,222.8,177.4z"/>
		<path class="st2" d="M233,173c0.4-0.3,0.8-0.4,1.4-0.4c0.7,0,1.2,0.2,1.6,0.5l0.6,0.5l0.1,5.6c0.1,6.5,0.3,10.9,0.6,13.4
			c0.1,0.5,0.2,0.7,0.3,0.7c0.3,0,0.5-0.9,0.7-2.8c0.4-3.9,0.6-7.8,0.6-11.6v-1v-0.6c0-2.1,0.2-3.3,0.7-3.6c0.1-0.1,0.5-0.2,0.9-0.2
			c0.8,0,1.4,0.1,1.8,0.5c0.5,0.5,0.7,1.7,0.7,3.7c0,1.7-0.1,4.8-0.4,9.4c-0.2,3.8-0.6,6.5-1.2,8.1c-0.6,1.6-1.6,2.6-2.9,3
			c-0.5,0.2-0.9,0.3-1.1,0.3c-0.2,0-0.7-0.2-1.5-0.5c-1.7-0.8-2.6-2-2.8-3.8c-0.2-1.5-0.3-6.4-0.5-14.7c0-1.2-0.1-2.5-0.1-4
			c0-0.9,0-1.5,0.1-1.8C232.7,173.3,232.8,173.1,233,173z"/>
		<path class="st2" d="M248.6,173.2c0.4-0.4,1.1-0.6,2.1-0.6h1c1.6,0.1,2.6,0.1,3,0.2c0.2,0.1,0.6,0.1,1.3,0.2
			c0.7,0,1.2,0.2,1.5,0.4s0.5,0.6,0.5,1.2c0,0.6-0.1,1-0.4,1.2c-0.2,0.2-0.6,0.4-1.1,0.5c-0.6,0.1-1,0.2-1.1,0.3s-0.2,3.1-0.2,8.7
			c0,3.9,0,6.7,0.1,8.3c0.1,1.3,0.1,2,0.1,2.1c0,0.6-0.1,1.2-0.4,1.6c-0.3,0.6-0.9,0.9-1.6,0.9c-0.5,0-0.9-0.1-1.4-0.4l-0.9-0.5
			l0.1-10.4c0.1-2.7,0.1-5.4,0.1-8.1c0-1.6-0.1-2.5-0.4-2.6c-0.4-0.2-0.6-0.3-0.7-0.2c-0.1,0-0.3,0.1-0.5,0.1c-0.5,0-1-0.2-1.4-0.5
			s-0.6-0.7-0.6-1.1C247.8,174,248.1,173.6,248.6,173.2z"/>
		<path class="st3" d="M186.2,162.2c57.9,0,104.9-3.9,104.9-8.8c0-4.9-47-8.8-104.9-8.8s-104.9,3.9-104.9,8.8
			C81.3,158.2,128.3,162.2,186.2,162.2z"/>
		<path class="st4" d="M273.1,77.9h-45.4V97h45.4V77.9z"/>
		<path class="st5" d="M164.6,91.2c-2,1.1-3,3.6-2.1,5.7c0.8,1.6,2.5,2.9,6.2,2.4c11.5-0.9,46.2-9.9,32.8-27.6
			c-5.8-7.7-14.5,0.1-21.5,7.4C174.5,85.2,167.9,89.4,164.6,91.2z"/>
		<path class="st6" d="M78.6,55.8c0,0,29.7,14.4,45.4-1.9C124,54,107,40.3,78.6,55.8z"/>
		<path class="st7" d="M90.1,40.6c0,0,9.7,20.8,38.8,17.2C128.8,57.8,126.9,48.2,90.1,40.6z"/>
		<path class="st8" d="M117.8,55.3c-10.8,5.3-37.4,28-16.3,71.2c5.9,12.1-7.5,15.7-5.1,23.7c4.2,13.7,52.4-20.6,69.8-16.2
			c10,2.6,9.4,16.5,23.1,12.3c10.4-3.2,3.4-8.2-2.8-12.2c-11.8-7.6-6.3-17.4-6.1-34.6C181.3,46.7,138.3,45.2,117.8,55.3z"/>
		<path d="M158.2,94.7c-0.2-0.8-1.3-1.4-2.1-1.7v1c0,0.4-0.3,0.7-0.6,0.7l-1.1,0.1c-0.4,0-0.7-0.3-0.7-0.6v-1
			c-0.9,0.4-2.5,0.9-2.6,1.6c0,1,1,3.1,3.8,3C157.7,97.6,158.5,95.8,158.2,94.7z"/>
		<path class="st0" d="M154.3,94.7l1.1-0.1c0.4,0,0.7-0.3,0.6-0.7v-1.1c-0.3-0.1-0.7-0.2-1.2-0.2s-0.9,0.1-1.3,0.3v1
			C153.7,94.5,154,94.8,154.3,94.7z"/>
		<path class="st6" d="M133.6,35.9c0,0-3.6,3.8-1.3,9.3C132.3,45.2,134.1,43.9,133.6,35.9z"/>
		<path class="st6" d="M124.2,45.3c0,0,4.2,7.4,11.3,3.2C135.5,48.4,133.1,45.4,124.2,45.3z"/>
		<path class="st9" d="M138.1,53.8c0-0.6-3.8-10.8-14.8-14.3"/>
		<path class="st10" d="M121.3,36.3c0,0,3-7.6,6.2-6.4S123.3,37.4,121.3,36.3z"/>
		<path class="st10" d="M121.3,36.2c0,0,7.6-4.8,8.1-1.4C129.9,38.2,121.4,38.6,121.3,36.2z"/>
		<path class="st10" d="M120.3,37.4c0,0,8.3-2.3,7.4,1.3C126.9,42.3,119.5,39.8,120.3,37.4z"/>
		<path class="st10" d="M119.5,37.3c0,0-1.9-8.4,1.7-7.4C124.7,31,121.9,38.3,119.5,37.3z"/>
		<path class="st10" d="M120.5,37.9c0,0-7.8,3.7-7.5,0C113.2,34.1,120.9,35.3,120.5,37.9z"/>
		<path class="st10" d="M120.4,38.7c0,0-6-3.6-3.7-5.3C119,31.7,122.1,37.6,120.4,38.7z"/>
		<path class="st10" d="M120,38.1c0,0-8.1,0.9-7.8,4.3C112.6,45.8,120.5,40.4,120,38.1z"/>
		<path class="st10" d="M119.8,37.6c0,0-6.6,6.1-3.5,7.4C119.4,46.4,122.1,38.3,119.8,37.6z"/>
		<path class="st10" d="M119.9,37c0,0-1,8.6,2.4,7.1C125.7,42.7,122.2,35.8,119.9,37z"/>
		<path class="st11" d="M121.7,39c2.1-1.6,3.3-3.7,2.7-4.6c-0.7-0.9-3-0.3-5.1,1.4c-2.1,1.6-3.3,3.7-2.7,4.6
			C117.3,41.3,119.6,40.6,121.7,39z"/>
		<path d="M141.3,89.3c1.7,0,3.1-1.4,3.1-3.1s-1.4-3.1-3.1-3.1c-1.7,0-3.1,1.4-3.1,3.1S139.6,89.3,141.3,89.3z"/>
		<path d="M165.6,88.6c1.7,0,3.1-1.4,3.1-3.1s-1.4-3.1-3.1-3.1c-1.7,0-3.1,1.4-3.1,3.1S163.9,88.6,165.6,88.6z"/>
		<path class="st5" d="M108.3,93.4c-2-1.1-4.6-0.6-5.9,1.3c-1,1.5-1.1,3.7,1.2,6.5c6.9,9.3,33.1,33.7,40.9,12.9
			c3.4-9.1-7.9-12.2-17.8-14.1C118.6,98.5,111.6,95.2,108.3,93.4z"/>
		<path class="st0" d="M128.4,70.7c0,0,0,13.2-5.8,11.5C119.9,81.4,117.3,73.9,128.4,70.7z"/>
		<path class="st11" d="M101.7,79.4l0.4-2.6c0.2-1.1,1-1.9,2-1.9l1.8,0.1c1.1,0.1,1.8,1.2,1.6,2.5l-0.4,2.8c-0.2,1.2-1.2,2-2.2,1.9
			l-1.8-0.3C102.2,81.7,101.5,80.6,101.7,79.4z"/>
		<path class="st11" d="M165.7,67.1l-2-1.7c-0.9-0.7-1.3-1.7-1-2.1l0.6-0.9c0.4-0.6,1.5-0.3,2.4,0.5l2.1,1.8
			c0.9,0.8,1.3,1.8,0.9,2.2l-0.7,0.8C167.7,68.2,166.6,67.9,165.7,67.1z"/>
		<path class="st12" d="M103.8,80.7c0,0-11.7,21.3-25.8,13.7c-9.3-5-6.3-29.7,21.9-22.3"/>
		<path class="st13" d="M166.8,65.3c0,0,22.7,13.6,25.9-12.5c3.3-26.1,46.6-12,42.4,7.4"/>
		<path class="st12" d="M180.4,105c0,0-0.1,8.1,20.3,4.6c28.6-4.9,17.6-28.4,27.3-34.9"/>
		<path class="st14" d="M273.5,80.4h-46.2c-0.3,0-0.6-0.3-0.6-0.6V56.2c0-0.3,0.3-0.6,0.6-0.6h46.2c0.3,0,0.6,0.3,0.6,0.6v23.6
			C274.1,80.2,273.8,80.4,273.5,80.4z"/>
		<path class="st14" d="M273.8,155.3H226c-1.3,0-2.3-1.1-2.3-2.3V96.9c0-1.3,1.1-2.3,2.3-2.3h47.8c1.3,0,2.3,1.1,2.3,2.3V153
			C276.1,154.2,275.1,155.3,273.8,155.3z"/>
		<path class="st11" d="M240.3,54.4h-7.9v2.2h7.9V54.4z"/>
		<path class="st11" d="M269.1,54.4h-7.9v2.2h7.9V54.4z"/>
		<path class="st15" d="M265.5,55.9c0,0,0.5-5.6-2.5-5.6s-5.5,0.4-5.5,5.2"/>
		<path class="st4" d="M236.6,72.2c3.1,0,5.6-2.4,5.6-5.4c0-3-2.5-5.4-5.6-5.4s-5.6,2.4-5.6,5.4C231,69.8,233.5,72.2,236.6,72.2z"/>
		<path class="st11" d="M234.8,63.5c2.2-1.1,4.8-0.2,6.1,1.8l0.5-0.3c-1.4-2.3-4.4-3.3-6.9-2.1c-1.1,0.5-1.9,1.4-2.4,2.3l0.5,0.3
			C233.1,64.7,233.8,64,234.8,63.5z"/>
		<path class="st0" d="M234.8,63.5c-0.9,0.4-1.7,1.2-2.1,2.1l4.1,1.8l4.1-2.1C239.6,63.3,237,62.5,234.8,63.5z"/>
		<path class="st11" d="M236.5,67.9c0.5,0,1-0.4,1-0.9s-0.4-1-1-1s-0.9,0.4-0.9,1C235.5,67.5,235.9,67.9,236.5,67.9z"/>
		<path class="st11" d="M235.7,66.9l2.5-2.6l-1.3,3.4L235.7,66.9z"/>
		<path class="st4" d="M264.5,72.2c3.1,0,5.6-2.4,5.6-5.4c0-3-2.5-5.4-5.6-5.4s-5.6,2.4-5.6,5.4C258.9,69.8,261.4,72.2,264.5,72.2z"
			/>
		<path class="st11" d="M262.6,63.5c2.2-1.1,4.8-0.2,6.1,1.8l0.5-0.3c-1.4-2.3-4.4-3.3-6.9-2.1c-1.1,0.5-1.9,1.4-2.4,2.3l0.5,0.3
			C260.9,64.7,261.6,64,262.6,63.5z"/>
		<path class="st0" d="M262.6,63.5c-0.9,0.4-1.7,1.2-2.1,2.1l4.1,1.8l4.1-2.1C267.4,63.3,264.8,62.5,262.6,63.5z"/>
		<path class="st11" d="M264.3,67.9c0.5,0,1-0.4,1-0.9s-0.4-1-1-1s-1,0.4-1,1C263.3,67.5,263.8,67.9,264.3,67.9z"/>
		<path class="st11" d="M263.5,66.9l2.5-2.6l-1.3,3.4L263.5,66.9z"/>
		<path class="st4" d="M250,72.2c3.1,0,5.6-2.4,5.6-5.4c0-3-2.5-5.4-5.6-5.4s-5.6,2.4-5.6,5.4C244.4,69.8,246.9,72.2,250,72.2z"/>
		<path class="st11" d="M248.1,63.5c2.2-1.1,4.8-0.2,6.1,1.8l0.5-0.3c-1.4-2.3-4.4-3.3-6.9-2.1c-1.1,0.5-1.9,1.4-2.4,2.3l0.5,0.3
			C246.5,64.7,247.2,64,248.1,63.5z"/>
		<path class="st0" d="M248.1,63.5c-1,0.4-1.7,1.2-2.1,2.1l4.1,1.8l4.1-2.1C253,63.3,250.4,62.5,248.1,63.5z"/>
		<path class="st11" d="M250.1,67.9c0.5,0,0.9-0.4,0.9-0.9s-0.4-1-0.9-1s-1,0.4-1,1C249.1,67.5,249.5,67.9,250.1,67.9z"/>
		<path class="st11" d="M249.6,67.6l-1-3.5l2.3,2.8L249.6,67.6z"/>
		<path class="st11" d="M239.3,87.7h-5.4c-0.5,0-0.9-0.4-0.9-0.9v-0.7c0-0.5,0.4-0.9,0.9-0.9h5.4c0.5,0,0.9,0.4,0.9,0.9v0.7
			C240.2,87.3,239.8,87.7,239.3,87.7z"/>
		<path class="st11" d="M249,87.7h-5.4c-0.5,0-0.9-0.4-0.9-0.9v-0.7c0-0.5,0.4-0.9,0.9-0.9h5.4c0.5,0,0.9,0.4,0.9,0.9v0.7
			C249.9,87.3,249.5,87.7,249,87.7z"/>
		<path class="st11" d="M267.3,87.7h-5.4c-0.5,0-0.9-0.4-0.9-0.9v-0.7c0-0.5,0.4-0.9,0.9-0.9h5.4c0.5,0,0.9,0.4,0.9,0.9v0.7
			C268.3,87.3,267.8,87.7,267.3,87.7z"/>
		<path class="st11" d="M239.3,91.4h-5.4c-0.5,0-0.9-0.4-0.9-0.9v-0.7c0-0.5,0.4-0.9,0.9-0.9h5.4c0.5,0,0.9,0.4,0.9,0.9v0.7
			C240.2,91,239.8,91.4,239.3,91.4z"/>
		<path class="st11" d="M249,91.4h-5.4c-0.5,0-0.9-0.4-0.9-0.9v-0.7c0-0.5,0.4-0.9,0.9-0.9h5.4c0.5,0,0.9,0.4,0.9,0.9v0.7
			C249.9,91,249.5,91.4,249,91.4z"/>
		<path class="st11" d="M267.3,91.4h-5.4c-0.5,0-0.9-0.4-0.9-0.9v-0.7c0-0.5,0.4-0.9,0.9-0.9h5.4c0.5,0,0.9,0.4,0.9,0.9v0.7
			C268.3,91,267.8,91.4,267.3,91.4z"/>
		<path class="st0" d="M269.5,149.2h-39.2c-1.3,0-2.3-1.1-2.3-2.3v-44.7c0-1.3,1-2.3,2.3-2.3h39.2c1.3,0,2.3,1.1,2.3,2.3v44.7
			C271.8,148.2,270.8,149.2,269.5,149.2z"/>
		<path class="st11" d="M251.3,106.3c-2.2-2.2-5.7-2.3-8-0.1c-2.3,2.2-2.3,5.9,0,8.2l6.5,6.6c0.8,0.8,2,0.8,2.8,0l6.7-6.6
			c2.2-2.2,2.3-5.8,0.1-8C257.2,104.1,253.6,104.1,251.3,106.3z"/>
		<path class="st16" d="M243.3,109c0,0,0.4-2.2,3.2-3"/>
		<path class="st17" d="M232,136.2h14.7c0.1,0,0.1-0.1,0.2-0.1l1.6-4.6c0.1-0.2,0.3-0.2,0.4,0l2.6,11.4c0,0.2,0.3,0.2,0.4,0
			l2.2-16.5c0-0.2,0.3-0.2,0.4,0l1.3,9.5c0,0.1,0.1,0.2,0.2,0.2h13.4"/>
	</g>
</g>
</svg>
