<?xml version="1.0" encoding="utf-8"?>
<!-- Generator: Adobe Illustrator 25.1.0, SVG Export Plug-In . SVG Version: 6.00 Build 0)  -->
<svg version="1.1" id="Layer_1" xmlns="http://www.w3.org/2000/svg" xmlns:xlink="http://www.w3.org/1999/xlink" x="0px" y="0px"
	 viewBox="0 0 332.9 129.4" style="enable-background:new 0 0 332.9 129.4;" xml:space="preserve">
<style type="text/css">
	.st0{fill:#FFFFFF;}
	.st1{fill:#808080;}
	.st2{fill:#F4F1EF;}
	.st3{fill:#FFE7C6;}
	.st4{fill:#FF9F1A;}
	.st5{fill:#FFCF8D;}
	.st6{fill:none;stroke:#FFFFFF;stroke-width:0.4145;stroke-linecap:round;stroke-miterlimit:10;}
	.st7{fill:#E14504;}
</style>
<g>
	<g>
		<path class="st0" d="M332.9,93.5c0-83.5-5-85.9-67.7-92.2c-26.3-2.7-128.8-0.3-164,0c-34.5,0.3-86,3-92.1,15.8
			C3.1,29.8,0,42.1,0,64.8c0,35.8,10.1,57.4,45.5,62c36,4.6,150.1,1.9,193.6,1.3C284,127.5,332.9,130,332.9,93.5z"/>
		<path class="st1" d="M26.4,35c-0.8,0-1.5-0.1-2.1-0.5c-0.6-0.3-1.1-0.7-1.4-1.2s-0.5-1.1-0.5-1.9h1.4c0,0.4,0.1,0.8,0.3,1.2
			c0.2,0.4,0.5,0.7,0.9,0.9c0.4,0.2,0.9,0.3,1.5,0.3c0.8,0,1.3-0.2,1.8-0.5c0.4-0.4,0.6-0.8,0.6-1.4c0-0.5-0.1-0.8-0.3-1.1
			c-0.2-0.3-0.5-0.5-0.8-0.7s-0.7-0.3-1.1-0.5s-0.9-0.3-1.3-0.4c-0.9-0.3-1.5-0.7-1.9-1.1s-0.6-1-0.6-1.7c0-0.6,0.1-1.1,0.4-1.6
			s0.7-0.8,1.2-1.1c0.5-0.3,1.2-0.4,1.9-0.4s1.3,0.1,1.9,0.4c0.5,0.3,0.9,0.6,1.2,1.1s0.4,1,0.5,1.6h-1.4c0-0.3-0.1-0.6-0.2-0.9
			c-0.2-0.3-0.4-0.6-0.7-0.7c-0.3-0.2-0.7-0.3-1.2-0.3c-0.6,0-1.1,0.1-1.5,0.5s-0.6,0.8-0.6,1.3s0.1,0.9,0.4,1.1
			c0.3,0.3,0.7,0.5,1.1,0.6c0.5,0.2,1.1,0.3,1.7,0.6c0.5,0.2,1,0.4,1.4,0.7c0.4,0.3,0.8,0.6,1,1s0.4,0.9,0.4,1.5
			c0,0.5-0.1,1-0.4,1.5c-0.3,0.5-0.7,0.9-1.3,1.2C27.9,34.9,27.2,35,26.4,35z"/>
		<path class="st1" d="M35.6,35c-0.8,0-1.4-0.2-2-0.5c-0.6-0.4-1.1-0.8-1.4-1.5c-0.3-0.7-0.5-1.3-0.5-2.2s0.2-1.6,0.5-2.2
			c0.3-0.6,0.8-1.1,1.4-1.5c0.6-0.3,1.3-0.5,2-0.5c0.9,0,1.7,0.2,2.4,0.7c0.7,0.5,1,1.1,1.2,2h-1.4c-0.1-0.5-0.4-0.9-0.8-1.1
			c-0.4-0.3-0.9-0.4-1.5-0.4c-0.4,0-0.9,0.1-1.3,0.3c-0.4,0.2-0.7,0.6-1,1c-0.3,0.4-0.4,1-0.4,1.7s0.1,1.2,0.4,1.7
			c0.3,0.5,0.6,0.8,1,1s0.8,0.3,1.3,0.3c0.6,0,1-0.1,1.5-0.4c0.4-0.3,0.7-0.7,0.8-1.2h1.4c-0.2,0.8-0.6,1.5-1.2,2
			C37.3,34.8,36.5,35,35.6,35z"/>
		<path class="st1" d="M41.1,34.8V23.3h1.3v4.9c0.3-0.5,0.7-0.9,1.1-1.1c0.5-0.3,1-0.4,1.6-0.4c0.9,0,1.7,0.3,2.2,0.9
			c0.6,0.6,0.8,1.4,0.8,2.6v4.6h-1.3v-4.5c0-1.6-0.7-2.5-2-2.5c-0.7,0-1.3,0.2-1.7,0.7c-0.5,0.5-0.7,1.2-0.7,2.1v4.1L41.1,34.8
			L41.1,34.8z"/>
		<path class="st1" d="M53.8,35c-0.8,0-1.4-0.2-2-0.5c-0.6-0.4-1.1-0.8-1.4-1.5c-0.3-0.6-0.5-1.4-0.5-2.2c0-0.8,0.2-1.6,0.5-2.2
			c0.3-0.6,0.8-1.1,1.4-1.5c0.6-0.3,1.3-0.5,2.1-0.5c0.8,0,1.4,0.2,2,0.5s1,0.8,1.3,1.4c0.3,0.6,0.4,1.2,0.4,1.8c0,0.1,0,0.2,0,0.3
			c0,0.1,0,0.2,0,0.4h-6.3c0,0.6,0.2,1.1,0.4,1.5c0.2,0.4,0.6,0.7,0.9,0.9c0.4,0.2,0.8,0.3,1.2,0.3c0.6,0,1-0.1,1.4-0.4
			s0.7-0.6,0.8-1h1.3c-0.2,0.7-0.6,1.4-1.2,1.8C55.5,34.8,54.7,35,53.8,35z M53.8,27.8c-0.6,0-1.2,0.2-1.7,0.6s-0.8,1-0.9,1.7h5
			c0-0.7-0.3-1.3-0.7-1.7C55,28,54.5,27.8,53.8,27.8z"/>
		<path class="st1" d="M62.9,35c-0.8,0-1.5-0.2-2.1-0.5c-0.6-0.4-1-0.9-1.4-1.5s-0.5-1.3-0.5-2.1s0.2-1.5,0.5-2.1s0.8-1.1,1.4-1.5
			s1.3-0.5,2.1-0.5c0.7,0,1.2,0.1,1.7,0.4s0.9,0.6,1.2,1.1v-4.9h1.3v11.5h-1.2l-0.1-1.3c-0.3,0.4-0.6,0.7-1.1,1
			C64.3,34.9,63.7,35,62.9,35z M63.1,33.8c0.5,0,1-0.1,1.4-0.4c0.4-0.2,0.7-0.6,1-1c0.2-0.5,0.3-1,0.3-1.6s-0.1-1.1-0.3-1.6
			c-0.2-0.5-0.6-0.8-1-1s-0.9-0.4-1.4-0.4s-1,0.1-1.4,0.4c-0.4,0.2-0.7,0.6-1,1c-0.2,0.5-0.3,1-0.3,1.6s0.1,1.1,0.3,1.6
			c0.2,0.5,0.5,0.8,1,1C62.1,33.7,62.5,33.8,63.1,33.8z"/>
		<path class="st1" d="M72.3,35c-0.9,0-1.7-0.3-2.2-0.9c-0.6-0.6-0.8-1.5-0.8-2.6v-4.6h1.3v4.5c0,1.7,0.7,2.5,2,2.5
			c0.7,0,1.3-0.2,1.7-0.7c0.5-0.5,0.7-1.2,0.7-2.1v-4.2h1.3v7.9h-1.2L75,33.4c-0.2,0.5-0.6,0.9-1.1,1.2C73.4,34.9,72.9,35,72.3,35z"
			/>
		<path class="st1" d="M78.5,34.8V23.3h1.3v11.5H78.5z"/>
		<path class="st1" d="M82.9,25.1c-0.3,0-0.5-0.1-0.7-0.3c-0.2-0.2-0.3-0.4-0.3-0.7s0.1-0.5,0.3-0.6c0.2-0.2,0.4-0.3,0.7-0.3
			s0.5,0.1,0.7,0.3c0.2,0.2,0.3,0.4,0.3,0.6c0,0.3-0.1,0.5-0.3,0.7C83.4,25,83.1,25.1,82.9,25.1z M82.2,34.8v-7.9h1.3v7.9H82.2z"/>
		<path class="st1" d="M85.9,34.8v-7.9h1.2l0.1,1.4c0.3-0.5,0.6-0.9,1.1-1.2c0.5-0.3,1-0.4,1.6-0.4c0.9,0,1.7,0.3,2.2,0.9
			c0.6,0.6,0.8,1.4,0.8,2.6v4.6h-1.3v-4.5c0-1.6-0.7-2.5-2.1-2.5c-0.7,0-1.2,0.2-1.7,0.7c-0.4,0.5-0.7,1.2-0.7,2.1v4.1L85.9,34.8
			L85.9,34.8z"/>
		<path class="st1" d="M98.2,32.3c-0.4,0-0.9-0.1-1.2-0.2l-0.8,0.8c0.1,0.1,0.3,0.2,0.4,0.2s0.4,0.1,0.8,0.2c0.3,0,0.8,0.1,1.4,0.2
			c1.1,0.1,1.8,0.3,2.3,0.7s0.7,1,0.7,1.6c0,0.5-0.1,0.9-0.4,1.3c-0.2,0.4-0.6,0.8-1.2,1c-0.5,0.3-1.2,0.4-2,0.4
			c-0.7,0-1.4-0.1-1.9-0.3c-0.6-0.2-1-0.5-1.3-0.9s-0.5-0.9-0.5-1.4c0-0.3,0.1-0.6,0.2-1c0.2-0.4,0.5-0.7,0.9-1
			c-0.2-0.1-0.4-0.2-0.6-0.3s-0.3-0.2-0.5-0.4v-0.3l1.4-1.3c-0.6-0.5-0.9-1.2-0.9-2.1c0-0.5,0.1-1,0.4-1.4c0.2-0.4,0.6-0.8,1.1-1
			s1-0.4,1.7-0.4c0.5,0,0.9,0.1,1.2,0.2h2.9v1l-1.5,0.1c0.3,0.5,0.5,1,0.5,1.6c0,0.5-0.1,1-0.4,1.4c-0.2,0.4-0.6,0.8-1.1,1
			C99.4,32.2,98.9,32.3,98.2,32.3z M95.9,35.8c0,0.5,0.2,0.9,0.7,1.2c0.4,0.3,1,0.4,1.7,0.4s1.2-0.1,1.6-0.4s0.6-0.7,0.6-1.2
			c0-0.3-0.1-0.6-0.4-0.9s-0.8-0.4-1.5-0.4c-0.6,0-1.1-0.1-1.5-0.2c-0.4,0.2-0.7,0.5-0.9,0.8C95.9,35.4,95.9,35.6,95.9,35.8z
			 M98.2,31.2c0.6,0,1-0.2,1.3-0.4c0.3-0.3,0.5-0.7,0.5-1.3c0-0.5-0.2-1-0.5-1.3s-0.8-0.4-1.3-0.4c-0.6,0-1,0.2-1.4,0.4
			c-0.3,0.3-0.5,0.7-0.5,1.3s0.2,1,0.5,1.3C97.2,31.1,97.6,31.2,98.2,31.2z"/>
		<path class="st1" d="M108.1,38.3V26.9h1.2l0.1,1.3c0.3-0.4,0.6-0.7,1.1-1s1.1-0.5,1.8-0.5c0.8,0,1.5,0.2,2.1,0.5
			c0.6,0.4,1,0.9,1.4,1.5s0.5,1.3,0.5,2.1c0,0.8-0.2,1.5-0.5,2.1s-0.8,1.1-1.4,1.5s-1.3,0.5-2.1,0.5c-0.7,0-1.2-0.1-1.7-0.4
			s-0.9-0.6-1.2-1.1v4.8h-1.3V38.3z M112.2,33.8c0.5,0,1-0.1,1.4-0.4s0.7-0.6,1-1c0.3-0.4,0.3-1,0.3-1.6s-0.1-1.1-0.3-1.6
			c-0.2-0.5-0.6-0.8-1-1s-0.9-0.4-1.4-0.4s-1,0.1-1.4,0.4c-0.4,0.2-0.7,0.6-1,1s-0.3,1-0.3,1.6s0.1,1.1,0.3,1.6c0.2,0.5,0.6,0.8,1,1
			C111.2,33.7,111.7,33.8,112.2,33.8z"/>
		<path class="st1" d="M118.2,34.8V23.3h1.3v4.9c0.3-0.5,0.6-0.9,1.1-1.1c0.5-0.3,1-0.4,1.6-0.4c0.9,0,1.6,0.3,2.2,0.9
			s0.8,1.4,0.8,2.6v4.6h-1.3v-4.5c0-1.6-0.7-2.5-2-2.5c-0.7,0-1.3,0.2-1.7,0.7c-0.5,0.5-0.7,1.2-0.7,2.1v4.1L118.2,34.8L118.2,34.8z
			"/>
		<path class="st1" d="M127.9,38.3l2-4.3h-0.5l-3.2-7.2h1.5l2.6,6.2l2.8-6.2h1.4l-5.2,11.5H127.9z"/>
		<path class="st1" d="M138.6,35c-0.9,0-1.7-0.2-2.4-0.7c-0.6-0.5-1-1.1-1.1-2h1.4c0.1,0.4,0.3,0.8,0.7,1.1c0.3,0.3,0.8,0.5,1.4,0.5
			c0.6,0,1-0.1,1.2-0.4s0.4-0.5,0.4-0.9c0-0.5-0.2-0.8-0.5-1c-0.4-0.2-0.8-0.3-1.5-0.4c-0.4-0.1-0.8-0.2-1.3-0.4
			c-0.4-0.2-0.8-0.4-1.1-0.7c-0.3-0.3-0.4-0.7-0.4-1.2c0-0.7,0.3-1.3,0.8-1.7s1.2-0.7,2.1-0.7c0.8,0,1.5,0.2,2.1,0.6
			c0.5,0.4,0.9,1,0.9,1.8H140c-0.1-0.4-0.2-0.7-0.5-0.9c-0.3-0.2-0.7-0.3-1.2-0.3s-0.9,0.1-1.1,0.3s-0.4,0.5-0.4,0.8
			s0.2,0.6,0.5,0.8c0.3,0.2,0.8,0.3,1.4,0.5c0.5,0.1,1,0.2,1.4,0.4c0.4,0.1,0.8,0.4,1.1,0.7c0.3,0.3,0.4,0.7,0.4,1.3
			c0,0.7-0.3,1.3-0.8,1.8C140.2,34.8,139.5,35,138.6,35z"/>
		<path class="st1" d="M144.3,25.1c-0.3,0-0.5-0.1-0.7-0.3c-0.2-0.2-0.3-0.4-0.3-0.7s0.1-0.5,0.3-0.6c0.2-0.2,0.4-0.3,0.7-0.3
			s0.5,0.1,0.7,0.3c0.2,0.2,0.3,0.4,0.3,0.6c0,0.3-0.1,0.5-0.3,0.7C144.8,25,144.6,25.1,144.3,25.1z M143.7,34.8v-7.9h1.3v7.9H143.7
			z"/>
		<path class="st1" d="M151,35c-0.8,0-1.4-0.2-2-0.5c-0.6-0.4-1.1-0.8-1.4-1.5c-0.3-0.6-0.5-1.3-0.5-2.2s0.2-1.6,0.5-2.2
			c0.4-0.6,0.8-1.1,1.4-1.5c0.6-0.3,1.3-0.5,2-0.5c0.9,0,1.7,0.2,2.4,0.7c0.6,0.5,1,1.1,1.2,2h-1.4c-0.1-0.5-0.4-0.9-0.8-1.1
			c-0.4-0.3-0.9-0.4-1.5-0.4c-0.4,0-0.9,0.1-1.3,0.3c-0.4,0.2-0.7,0.6-1,1s-0.4,1-0.4,1.7s0.1,1.2,0.4,1.7c0.2,0.5,0.6,0.8,1,1
			s0.8,0.3,1.3,0.3c0.6,0,1-0.1,1.5-0.4s0.7-0.7,0.8-1.2h1.4c-0.2,0.8-0.6,1.5-1.2,2C152.7,34.8,151.9,35,151,35z"/>
		<path class="st1" d="M159.1,35c-0.7,0-1.2-0.1-1.6-0.3c-0.4-0.2-0.8-0.5-1-0.9s-0.3-0.8-0.3-1.2c0-0.8,0.3-1.4,0.9-1.9
			c0.6-0.4,1.5-0.7,2.5-0.7h2.1v-0.1c0-0.7-0.2-1.2-0.5-1.6s-0.8-0.5-1.5-0.5c-0.5,0-1,0.1-1.4,0.4s-0.6,0.6-0.7,1.1h-1.4
			c0.1-0.6,0.2-1.1,0.6-1.5c0.3-0.4,0.8-0.7,1.3-0.9c0.5-0.2,1-0.3,1.6-0.3c1.1,0,1.9,0.3,2.5,0.9s0.8,1.4,0.8,2.4v4.9h-1.2
			l-0.1-1.4c-0.2,0.5-0.6,0.8-1,1.1C160.4,34.8,159.8,35,159.1,35z M159.3,33.9c0.5,0,1-0.1,1.3-0.4s0.6-0.6,0.8-1s0.3-0.9,0.3-1.3
			l0,0h-2c-0.8,0-1.3,0.1-1.7,0.4c-0.3,0.3-0.5,0.6-0.5,1s0.1,0.8,0.5,1C158.3,33.7,158.8,33.9,159.3,33.9z"/>
		<path class="st1" d="M165.1,34.8V23.3h1.3v11.5H165.1z"/>
		<path class="st1" d="M25.3,57c-0.7,0-1.2-0.1-1.6-0.3c-0.4-0.2-0.8-0.5-1-0.9s-0.3-0.8-0.3-1.2c0-0.8,0.3-1.4,0.9-1.9
			c0.6-0.4,1.5-0.7,2.5-0.7h2.1v-0.1c0-0.7-0.2-1.2-0.5-1.6s-0.8-0.5-1.5-0.5c-0.5,0-1,0.1-1.4,0.4s-0.6,0.6-0.7,1.1h-1.4
			c0.1-0.6,0.2-1.1,0.6-1.5c0.3-0.4,0.8-0.7,1.3-0.9c0.5-0.2,1-0.3,1.6-0.3c1.1,0,1.9,0.3,2.5,0.9s0.8,1.4,0.8,2.4v4.9H28l-0.1-1.4
			c-0.2,0.5-0.5,0.8-1,1.1C26.6,56.8,26.1,57,25.3,57z M25.5,55.9c0.5,0,1-0.1,1.3-0.4s0.7-0.6,0.8-1c0.2-0.4,0.3-0.9,0.3-1.3l0,0
			h-2c-0.8,0-1.3,0.1-1.7,0.4c-0.3,0.3-0.5,0.6-0.5,1s0.2,0.8,0.5,1C24.6,55.7,25,55.9,25.5,55.9z"/>
		<path class="st1" d="M35,57c-0.8,0-1.4-0.2-2-0.5c-0.6-0.4-1.1-0.8-1.4-1.5s-0.5-1.3-0.5-2.2s0.2-1.6,0.5-2.2s0.8-1.1,1.4-1.5
			c0.6-0.3,1.3-0.5,2-0.5c0.9,0,1.7,0.2,2.4,0.7c0.7,0.5,1,1.1,1.2,2h-1.4c-0.1-0.5-0.4-0.9-0.8-1.1c-0.4-0.3-0.9-0.4-1.5-0.4
			c-0.4,0-0.9,0.1-1.3,0.3c-0.4,0.2-0.7,0.6-1,1c-0.3,0.4-0.4,1-0.4,1.7s0.1,1.2,0.4,1.7c0.2,0.5,0.6,0.8,1,1s0.8,0.3,1.3,0.3
			c0.6,0,1-0.1,1.5-0.4c0.4-0.3,0.7-0.7,0.8-1.2h1.4c-0.2,0.8-0.6,1.5-1.2,2C36.8,56.7,35.9,57,35,57z"/>
		<path class="st1" d="M43.4,56.8c-0.7,0-1.3-0.2-1.7-0.5c-0.4-0.4-0.6-1-0.6-1.9V50h-1.4v-1.1h1.4l0.2-1.9h1.2v1.9h2.3V50h-2.3v4.4
			c0,0.5,0.1,0.8,0.3,1c0.2,0.2,0.6,0.3,1.1,0.3h0.8v1.1H43.4z"/>
		<path class="st1" d="M47.3,47.1c-0.3,0-0.5-0.1-0.7-0.3c-0.2-0.2-0.3-0.4-0.3-0.7s0.1-0.5,0.3-0.6c0.2-0.2,0.4-0.3,0.7-0.3
			c0.3,0,0.5,0.1,0.7,0.3c0.2,0.2,0.3,0.4,0.3,0.6c0,0.3-0.1,0.5-0.3,0.7C47.7,47,47.5,47.1,47.3,47.1z M46.6,56.8v-7.9h1.3v7.9
			H46.6z"/>
		<path class="st1" d="M52.6,56.8l-3-7.9H51l2.4,6.6l2.4-6.6h1.4l-3,7.9H52.6z"/>
		<path class="st1" d="M59.4,47.1c-0.3,0-0.5-0.1-0.7-0.3c-0.2-0.2-0.3-0.4-0.3-0.7s0.1-0.5,0.3-0.6c0.2-0.2,0.4-0.3,0.7-0.3
			s0.5,0.1,0.7,0.3c0.2,0.2,0.3,0.4,0.3,0.6c0,0.3-0.1,0.5-0.3,0.7C59.9,47,59.7,47.1,59.4,47.1z M58.7,56.8v-7.9H60v7.9H58.7z"/>
		<path class="st1" d="M65.6,56.8c-0.7,0-1.3-0.2-1.7-0.5c-0.4-0.4-0.6-1-0.6-1.9V50h-1.4v-1.1h1.4l0.2-1.9h1.2v1.9H67V50h-2.3v4.4
			c0,0.5,0.1,0.8,0.3,1c0.2,0.2,0.6,0.3,1.1,0.3h0.7v1.1H65.6z"/>
		<path class="st1" d="M69.5,60.3l2-4.3H71l-3.2-7.1h1.5l2.6,6.2l2.8-6.2h1.4l-5.2,11.5h-1.4V60.3z"/>
		<path class="st1" d="M82.6,47.1c-0.3,0-0.5-0.1-0.7-0.3c-0.2-0.2-0.3-0.4-0.3-0.7s0.1-0.5,0.3-0.6c0.2-0.2,0.4-0.3,0.7-0.3
			s0.5,0.1,0.7,0.3c0.2,0.2,0.3,0.4,0.3,0.6c0,0.3-0.1,0.5-0.3,0.7C83,47,82.8,47.1,82.6,47.1z M81.9,56.8v-7.9h1.3v7.9H81.9z"/>
		<path class="st1" d="M85.6,56.8v-7.9h1.2l0.1,1.4c0.3-0.5,0.6-0.9,1.1-1.2c0.5-0.3,1-0.4,1.6-0.4c0.9,0,1.7,0.3,2.2,0.9
			c0.6,0.6,0.8,1.4,0.8,2.6v4.6h-1.3v-4.5c0-1.6-0.7-2.5-2-2.5c-0.7,0-1.2,0.2-1.7,0.7c-0.4,0.5-0.7,1.2-0.7,2.1v4.1L85.6,56.8
			L85.6,56.8z"/>
		<path class="st1" d="M97.9,56.8c-0.7,0-1.3-0.2-1.7-0.5c-0.4-0.4-0.6-1-0.6-1.9V50h-1.4v-1.1h1.4l0.2-1.9H97v1.9h2.3V50H97v4.4
			c0,0.5,0.1,0.8,0.3,1s0.6,0.3,1.1,0.3h0.8v1.1H97.9z"/>
		<path class="st1" d="M104.3,57c-0.8,0-1.4-0.2-2-0.5s-1.1-0.8-1.4-1.4s-0.5-1.4-0.5-2.2c0-0.8,0.2-1.6,0.5-2.2
			c0.4-0.6,0.8-1.1,1.4-1.5c0.6-0.3,1.3-0.5,2-0.5c0.8,0,1.4,0.2,2,0.5s1.1,0.8,1.4,1.5c0.4,0.6,0.5,1.4,0.5,2.2
			c0,0.8-0.2,1.6-0.5,2.2s-0.8,1.1-1.4,1.4S105.1,57,104.3,57z M104.3,55.9c0.5,0,0.9-0.1,1.3-0.3c0.4-0.2,0.7-0.6,1-1
			s0.4-1,0.4-1.7s-0.1-1.2-0.4-1.7c-0.2-0.4-0.6-0.8-1-1s-0.8-0.3-1.3-0.3s-0.9,0.1-1.3,0.3c-0.4,0.2-0.7,0.6-1,1
			c-0.2,0.5-0.4,1-0.4,1.7s0.1,1.2,0.4,1.7s0.6,0.8,0.9,1C103.5,55.7,103.9,55.9,104.3,55.9z"/>
		<path class="st1" d="M115.3,60.3l2-4.3h-0.5l-3.2-7.2h1.5l2.6,6.2l2.8-6.2h1.4l-5.2,11.5H115.3z"/>
		<path class="st1" d="M126.2,57c-0.8,0-1.4-0.2-2-0.5s-1.1-0.8-1.4-1.4c-0.4-0.6-0.5-1.4-0.5-2.2c0-0.8,0.2-1.6,0.5-2.2
			c0.4-0.6,0.8-1.1,1.4-1.5c0.6-0.3,1.3-0.5,2-0.5c0.8,0,1.4,0.2,2,0.5s1.1,0.8,1.4,1.5c0.4,0.6,0.5,1.4,0.5,2.2
			c0,0.8-0.2,1.6-0.5,2.2c-0.4,0.6-0.8,1.1-1.4,1.4S126.9,57,126.2,57z M126.2,55.9c0.5,0,0.9-0.1,1.3-0.3s0.7-0.6,1-1
			s0.4-1,0.4-1.7s-0.1-1.2-0.4-1.7c-0.2-0.4-0.6-0.8-1-1s-0.8-0.3-1.3-0.3s-0.9,0.1-1.3,0.3c-0.4,0.2-0.7,0.6-1,1
			c-0.2,0.5-0.4,1-0.4,1.7s0.1,1.2,0.4,1.7s0.6,0.8,1,1C125.3,55.7,125.7,55.9,126.2,55.9z"/>
		<path class="st1" d="M134.9,57c-0.9,0-1.7-0.3-2.2-0.9s-0.8-1.5-0.8-2.6v-4.6h1.3v4.5c0,1.7,0.7,2.5,2,2.5c0.7,0,1.3-0.2,1.7-0.7
			c0.5-0.5,0.7-1.2,0.7-2.1v-4.2h1.3v7.9h-1.2l-0.1-1.4c-0.2,0.5-0.6,0.9-1.1,1.2C136.1,56.9,135.5,57,134.9,57z"/>
		<path class="st1" d="M141.2,56.8v-7.9h1.2l0.1,1.5c0.2-0.5,0.6-0.9,1.1-1.2s1.1-0.5,1.9-0.5v1.4h-0.4c-0.5,0-0.9,0.1-1.3,0.2
			c-0.4,0.2-0.7,0.5-0.9,0.8c-0.2,0.4-0.3,0.9-0.3,1.6v4h-1.4V56.8z"/>
		<path class="st1" d="M24.3,78.8L22,70.9h1.3l1.7,6.2l1.9-6.2h1.5l1.9,6.2l1.7-6.2h1.4l-2.3,7.9h-1.4l-1.9-6.5l-2,6.5H24.3z"/>
		<path class="st1" d="M38,79c-0.8,0-1.4-0.2-2-0.5c-0.6-0.4-1.1-0.8-1.4-1.5c-0.3-0.6-0.5-1.4-0.5-2.2s0.2-1.6,0.5-2.2
			c0.3-0.6,0.8-1.1,1.4-1.5c0.6-0.4,1.3-0.5,2.1-0.5c0.8,0,1.4,0.2,2,0.5s1,0.8,1.3,1.4c0.3,0.6,0.5,1.2,0.5,1.8c0,0.1,0,0.2,0,0.3
			s0,0.2,0,0.4h-6.3c0,0.6,0.2,1.1,0.4,1.5c0.2,0.4,0.6,0.7,0.9,0.9c0.4,0.2,0.8,0.3,1.2,0.3c0.5,0,1-0.1,1.4-0.4
			c0.4-0.3,0.6-0.6,0.8-1h1.3c-0.2,0.7-0.6,1.4-1.2,1.8C39.7,78.8,39,79,38,79z M38,71.8c-0.6,0-1.2,0.2-1.7,0.6
			c-0.5,0.4-0.8,1-0.9,1.7h5c0-0.7-0.3-1.3-0.7-1.7S38.7,71.8,38,71.8z"/>
		<path class="st1" d="M47.1,79c-0.8,0-1.4-0.2-2-0.5c-0.6-0.4-1.1-0.8-1.4-1.5c-0.3-0.6-0.5-1.4-0.5-2.2s0.2-1.6,0.5-2.2
			c0.3-0.6,0.8-1.1,1.4-1.5c0.6-0.3,1.3-0.5,2.1-0.5c0.8,0,1.4,0.2,2,0.5s1,0.8,1.3,1.4c0.3,0.6,0.4,1.2,0.4,1.8c0,0.1,0,0.2,0,0.3
			s0,0.2,0,0.4h-6.3c0,0.6,0.2,1.1,0.4,1.5c0.2,0.4,0.6,0.7,0.9,0.9c0.4,0.2,0.8,0.3,1.2,0.3c0.6,0,1-0.1,1.4-0.4
			c0.4-0.2,0.6-0.6,0.8-1h1.3c-0.2,0.7-0.6,1.4-1.2,1.8C48.8,78.8,48.1,79,47.1,79z M47.1,71.8c-0.6,0-1.2,0.2-1.7,0.6
			c-0.5,0.4-0.8,1-0.9,1.7h5c0-0.7-0.3-1.3-0.7-1.7S47.8,71.8,47.1,71.8z"/>
		<path class="st1" d="M52.7,78.8V67.3H54v6.9l3.2-3.3h1.7l-3.5,3.6l4,4.3h-1.7l-3.6-4.1v4.1H52.7z"/>
		<path class="st1" d="M67.6,79c-0.7,0-1.2-0.1-1.7-0.3c-0.4-0.2-0.8-0.5-1-0.9s-0.3-0.8-0.3-1.2c0-0.8,0.3-1.4,0.9-1.9
			C66.1,74.3,67,74,68,74h2.1v-0.1c0-0.7-0.2-1.2-0.5-1.6s-0.8-0.5-1.5-0.5c-0.5,0-1,0.1-1.3,0.4c-0.4,0.3-0.6,0.6-0.7,1.1h-1.3
			c0.1-0.6,0.2-1.1,0.6-1.5c0.3-0.4,0.8-0.7,1.3-0.9s1-0.3,1.6-0.3c1.1,0,1.9,0.3,2.5,0.9c0.6,0.6,0.8,1.4,0.8,2.4v4.9h-1.2
			l-0.1-1.4c-0.2,0.5-0.5,0.8-1,1.1C68.9,78.8,68.3,79,67.6,79z M67.8,77.9c0.5,0,1-0.1,1.3-0.4c0.4-0.3,0.7-0.6,0.8-1
			c0.2-0.4,0.3-0.9,0.3-1.3l0,0h-2c-0.8,0-1.3,0.1-1.7,0.4c-0.3,0.3-0.5,0.6-0.5,1s0.2,0.8,0.5,1C66.8,77.7,67.3,77.9,67.8,77.9z"/>
		<path class="st1" d="M73.6,78.8V67.3h1.3v4.9c0.3-0.5,0.7-0.9,1.1-1.1c0.5-0.3,1-0.4,1.6-0.4c0.9,0,1.6,0.3,2.2,0.9
			c0.5,0.6,0.8,1.4,0.8,2.6v4.6h-1.3v-4.5c0-1.6-0.7-2.5-2-2.5c-0.7,0-1.3,0.2-1.7,0.7c-0.5,0.5-0.7,1.2-0.7,2.1v4.1L73.6,78.8
			L73.6,78.8z"/>
		<path class="st1" d="M86.3,79c-0.8,0-1.4-0.2-2-0.5c-0.6-0.4-1-0.8-1.4-1.5c-0.3-0.6-0.5-1.4-0.5-2.2s0.2-1.6,0.5-2.2
			s0.8-1.1,1.4-1.5c0.6-0.3,1.3-0.5,2.1-0.5c0.8,0,1.4,0.2,2,0.5s1,0.8,1.3,1.4c0.3,0.6,0.4,1.2,0.4,1.8c0,0.1,0,0.2,0,0.3
			s0,0.2,0,0.4h-6.3c0,0.6,0.2,1.1,0.4,1.5c0.2,0.4,0.6,0.7,0.9,0.9c0.4,0.2,0.8,0.3,1.2,0.3c0.5,0,1-0.1,1.4-0.4
			c0.4-0.3,0.6-0.6,0.8-1h1.3c-0.2,0.7-0.6,1.4-1.2,1.8C88.1,78.8,87.3,79,86.3,79z M86.3,71.8c-0.6,0-1.2,0.2-1.7,0.6
			c-0.5,0.4-0.8,1-0.9,1.7h5c0-0.7-0.3-1.3-0.7-1.7C87.6,72,87,71.8,86.3,71.8z"/>
		<path class="st1" d="M94.5,79c-0.7,0-1.2-0.1-1.7-0.3c-0.4-0.2-0.8-0.5-1-0.9s-0.3-0.8-0.3-1.2c0-0.8,0.3-1.4,0.9-1.9
			c0.6-0.4,1.5-0.7,2.5-0.7H97v-0.1c0-0.7-0.2-1.2-0.5-1.6c-0.4-0.4-0.8-0.5-1.5-0.5c-0.5,0-1,0.1-1.3,0.4c-0.4,0.3-0.6,0.6-0.7,1.1
			h-1.4c0-0.6,0.2-1.1,0.6-1.5c0.3-0.4,0.8-0.7,1.3-0.9s1-0.3,1.6-0.3c1.1,0,1.9,0.3,2.5,0.9c0.6,0.6,0.8,1.4,0.8,2.4v4.9h-1.2
			l-0.1-1.4c-0.2,0.5-0.6,0.8-1,1.1C95.8,78.8,95.2,79,94.5,79z M94.7,77.9c0.5,0,0.9-0.1,1.3-0.4c0.4-0.3,0.7-0.6,0.8-1
			c0.2-0.4,0.3-0.9,0.3-1.3l0,0h-2c-0.8,0-1.3,0.1-1.7,0.4c-0.3,0.3-0.5,0.6-0.5,1s0.2,0.8,0.5,1C93.7,77.7,94.2,77.9,94.7,77.9z"/>
		<path class="st1" d="M104.1,79c-0.8,0-1.5-0.2-2.1-0.5c-0.6-0.4-1-0.9-1.4-1.5s-0.5-1.3-0.5-2.1s0.2-1.5,0.5-2.1s0.8-1.1,1.4-1.5
			s1.3-0.5,2.1-0.5c0.6,0,1.2,0.1,1.7,0.4c0.5,0.3,0.9,0.6,1.2,1.1v-4.9h1.3v11.5h-1.2l-0.1-1.3c-0.3,0.4-0.6,0.7-1.1,1
			C105.5,78.9,104.9,79,104.1,79z M104.3,77.8c0.5,0,1-0.1,1.4-0.4s0.7-0.6,1-1c0.2-0.5,0.3-1,0.3-1.6s-0.1-1.1-0.3-1.6
			c-0.2-0.5-0.5-0.8-1-1s-0.9-0.4-1.4-0.4s-1,0.1-1.4,0.4c-0.4,0.2-0.7,0.6-1,1c-0.2,0.5-0.3,1-0.3,1.6s0.1,1.1,0.3,1.6
			c0.2,0.5,0.6,0.8,1,1C103.3,77.7,103.8,77.8,104.3,77.8z"/>
		<path class="st1" d="M118.4,79c-0.8,0-1.4-0.2-2-0.5s-1.1-0.8-1.4-1.4c-0.4-0.6-0.5-1.4-0.5-2.2s0.2-1.6,0.5-2.2s0.8-1.1,1.4-1.5
			c0.6-0.3,1.3-0.5,2-0.5s1.4,0.2,2,0.5s1.1,0.8,1.4,1.5c0.4,0.6,0.5,1.4,0.5,2.2s-0.2,1.6-0.5,2.2c-0.4,0.6-0.8,1.1-1.4,1.4
			C119.9,78.8,119.2,79,118.4,79z M118.4,77.9c0.5,0,0.9-0.1,1.3-0.3s0.7-0.6,1-1s0.4-1,0.4-1.7s-0.1-1.2-0.4-1.7
			c-0.2-0.4-0.6-0.8-0.9-1c-0.4-0.2-0.8-0.3-1.3-0.3s-0.9,0.1-1.3,0.3s-0.7,0.6-1,1c-0.2,0.5-0.4,1-0.4,1.7s0.1,1.2,0.4,1.7
			c0.2,0.5,0.6,0.8,0.9,1S118,77.9,118.4,77.9z"/>
		<path class="st1" d="M124.7,78.8V72h-1.2v-1.1h1.2v-1.4c0-0.8,0.2-1.3,0.6-1.7c0.4-0.3,0.9-0.5,1.7-0.5h0.8v1.1h-0.6
			c-0.4,0-0.7,0.1-0.9,0.2c-0.2,0.2-0.3,0.5-0.3,0.8v1.3h2v1.1h-2v6.8L124.7,78.8L124.7,78.8z"/>
		<path class="st1" d="M137,78.8c-0.7,0-1.3-0.2-1.7-0.5c-0.4-0.4-0.6-1-0.6-1.9V72h-1.4v-1.1h1.4l0.2-1.9h1.2v1.9h2.3V72h-2.3v4.4
			c0,0.5,0.1,0.8,0.3,1s0.6,0.3,1.1,0.3h0.8v1.1L137,78.8L137,78.8z"/>
		<path class="st1" d="M140.9,69.1c-0.3,0-0.5-0.1-0.7-0.3s-0.3-0.4-0.3-0.7s0.1-0.5,0.3-0.6c0.2-0.2,0.4-0.3,0.7-0.3
			s0.5,0.1,0.7,0.3s0.3,0.4,0.3,0.6c0,0.3-0.1,0.5-0.3,0.7C141.4,69,141.1,69.1,140.9,69.1z M140.2,78.8v-7.9h1.3v7.9H140.2z"/>
		<path class="st1" d="M143.9,78.8v-7.9h1.2l0.1,1.2c0.3-0.4,0.6-0.8,1-1s0.9-0.4,1.4-0.4c0.6,0,1.2,0.1,1.6,0.4
			c0.4,0.3,0.8,0.7,1,1.2c0.3-0.5,0.7-0.9,1.1-1.1c0.5-0.3,1-0.4,1.6-0.4c1,0,1.7,0.3,2.3,0.9c0.6,0.6,0.9,1.5,0.9,2.6v4.6h-1.3
			v-4.5c0-0.8-0.2-1.4-0.5-1.9s-0.8-0.6-1.4-0.6c-0.6,0-1.2,0.2-1.6,0.7c-0.4,0.5-0.6,1.2-0.6,2.1v4.1h-1.3v-4.5
			c0-0.8-0.2-1.4-0.5-1.9c-0.3-0.4-0.8-0.6-1.4-0.6c-0.6,0-1.2,0.2-1.6,0.7c-0.4,0.5-0.6,1.2-0.6,2.1v4.1L143.9,78.8L143.9,78.8z"/>
		<path class="st1" d="M161.8,79c-0.8,0-1.4-0.2-2-0.5c-0.6-0.4-1.1-0.8-1.4-1.5c-0.3-0.6-0.5-1.4-0.5-2.2s0.2-1.6,0.5-2.2
			s0.8-1.1,1.4-1.5c0.6-0.3,1.3-0.5,2.1-0.5s1.4,0.2,2,0.5s1,0.8,1.3,1.4s0.4,1.2,0.4,1.8c0,0.1,0,0.2,0,0.3s0,0.2,0,0.4h-6.3
			c0,0.6,0.2,1.1,0.4,1.5s0.6,0.7,0.9,0.9c0.4,0.2,0.8,0.3,1.2,0.3c0.6,0,1-0.1,1.4-0.4c0.4-0.3,0.7-0.6,0.8-1h1.3
			c-0.2,0.7-0.6,1.4-1.2,1.8C163.5,78.8,162.7,79,161.8,79z M161.8,71.8c-0.6,0-1.2,0.2-1.7,0.6c-0.5,0.4-0.8,1-0.9,1.7h5
			c0-0.7-0.3-1.3-0.7-1.7C163,72,162.4,71.8,161.8,71.8z"/>
		<path class="st1" d="M26.4,101c-0.8,0-1.4-0.2-2-0.5c-0.6-0.4-1.1-0.8-1.4-1.5c-0.3-0.6-0.5-1.3-0.5-2.2s0.2-1.6,0.5-2.2
			c0.4-0.6,0.8-1.1,1.4-1.5c0.6-0.3,1.3-0.5,2-0.5c0.9,0,1.7,0.2,2.4,0.7s1.1,1.1,1.2,2h-1.4c-0.1-0.5-0.4-0.9-0.8-1.1
			c-0.4-0.3-0.9-0.4-1.5-0.4c-0.5,0-0.9,0.1-1.3,0.3s-0.7,0.6-1,1s-0.4,1-0.4,1.7s0.1,1.2,0.4,1.7c0.2,0.5,0.6,0.8,1,1
			s0.8,0.3,1.3,0.3s1-0.1,1.5-0.4s0.7-0.7,0.8-1.2H30c-0.2,0.8-0.6,1.5-1.2,2C28.1,100.8,27.3,101,26.4,101z"/>
		<path class="st1" d="M34.5,101c-0.7,0-1.2-0.1-1.6-0.3c-0.4-0.2-0.8-0.5-1-0.9c-0.2-0.4-0.3-0.8-0.3-1.2c0-0.8,0.3-1.4,0.9-1.9
			C33.1,96.3,34,96,35,96h2.1v-0.1c0-0.7-0.2-1.2-0.5-1.6c-0.3-0.4-0.8-0.5-1.5-0.5c-0.5,0-1,0.1-1.3,0.4c-0.4,0.3-0.6,0.6-0.7,1.1
			h-1.4c0-0.6,0.2-1.1,0.6-1.5c0.3-0.4,0.8-0.7,1.3-0.9s1-0.3,1.6-0.3c1.1,0,1.9,0.3,2.5,0.9c0.6,0.6,0.8,1.4,0.8,2.4v4.9h-1.2
			l-0.1-1.4c-0.2,0.5-0.5,0.8-1,1.1C35.8,100.8,35.2,101,34.5,101z M34.7,99.9c0.5,0,1-0.1,1.3-0.4c0.4-0.3,0.7-0.6,0.8-1
			c0.2-0.4,0.3-0.9,0.3-1.3l0,0h-2c-0.8,0-1.4,0.1-1.7,0.4c-0.3,0.3-0.5,0.6-0.5,1s0.1,0.8,0.5,1C33.7,99.7,34.1,99.9,34.7,99.9z"/>
		<path class="st1" d="M40.5,100.8v-7.9h1.2l0.1,1.4c0.3-0.5,0.6-0.9,1.1-1.2s1-0.4,1.6-0.4c0.9,0,1.7,0.3,2.2,0.9
			c0.6,0.6,0.8,1.4,0.8,2.6v4.6h-1.3v-4.5c0-1.6-0.7-2.5-2-2.5c-0.7,0-1.2,0.2-1.7,0.7c-0.4,0.5-0.7,1.2-0.7,2.1v4.1L40.5,100.8
			L40.5,100.8z"/>
		<path class="st1" d="M53.9,100.8V89.3h1.3v4.9c0.3-0.5,0.6-0.9,1.1-1.1c0.5-0.3,1-0.4,1.6-0.4c0.9,0,1.7,0.3,2.2,0.9
			c0.6,0.6,0.8,1.4,0.8,2.6v4.6h-1.3v-4.5c0-1.6-0.7-2.5-2-2.5c-0.7,0-1.3,0.2-1.7,0.7c-0.5,0.5-0.7,1.2-0.7,2.1v4.1L53.9,100.8
			L53.9,100.8z"/>
		<path class="st1" d="M66.6,101c-0.8,0-1.4-0.2-2-0.5c-0.6-0.4-1-0.8-1.4-1.5c-0.3-0.6-0.5-1.4-0.5-2.2s0.2-1.6,0.5-2.2
			s0.8-1.1,1.4-1.5c0.6-0.3,1.3-0.5,2.1-0.5c0.8,0,1.4,0.2,2,0.5s1,0.8,1.3,1.4s0.4,1.2,0.4,1.8c0,0.1,0,0.2,0,0.3s0,0.2,0,0.4h-6.3
			c0,0.6,0.2,1.1,0.4,1.5c0.2,0.4,0.6,0.7,0.9,0.9c0.4,0.2,0.8,0.3,1.2,0.3c0.5,0,1-0.1,1.4-0.4c0.4-0.3,0.7-0.6,0.8-1h1.3
			c-0.2,0.7-0.6,1.4-1.2,1.8C68.3,100.8,67.5,101,66.6,101z M66.6,93.8c-0.6,0-1.2,0.2-1.7,0.6c-0.5,0.4-0.8,1-0.9,1.7h5
			c0-0.7-0.3-1.3-0.7-1.7C67.8,94,67.3,93.8,66.6,93.8z"/>
		<path class="st1" d="M72.1,100.8V89.3h1.3v11.5H72.1z"/>
		<path class="st1" d="M75.7,104.3V92.9h1.2l0.1,1.3c0.3-0.4,0.6-0.7,1.1-1s1.1-0.5,1.8-0.5c0.8,0,1.5,0.2,2.1,0.5
			c0.6,0.4,1,0.9,1.4,1.5s0.5,1.3,0.5,2.1s-0.2,1.5-0.5,2.1s-0.8,1.1-1.4,1.5s-1.3,0.5-2.1,0.5c-0.6,0-1.2-0.1-1.7-0.4
			c-0.5-0.3-0.9-0.6-1.2-1.1v4.8h-1.3V104.3z M79.8,99.8c0.5,0,1-0.1,1.4-0.4c0.4-0.2,0.7-0.6,1-1c0.2-0.5,0.3-1,0.3-1.6
			s-0.1-1.1-0.3-1.6c-0.2-0.5-0.6-0.8-1-1s-0.9-0.4-1.4-0.4s-1,0.1-1.4,0.4c-0.4,0.2-0.7,0.6-1,1c-0.2,0.5-0.3,1-0.3,1.6
			s0.1,1.1,0.3,1.6c0.2,0.5,0.6,0.8,1,1C78.8,99.7,79.2,99.8,79.8,99.8z"/>
		<path class="st1" d="M93.1,100.8c-0.7,0-1.3-0.2-1.7-0.5c-0.4-0.4-0.6-1-0.6-1.9V94h-1.4v-1.1h1.4L91,91h1.2v1.9h2.3V94h-2.3v4.4
			c0,0.5,0.1,0.8,0.3,1c0.2,0.2,0.6,0.3,1.1,0.3h0.8v1.1L93.1,100.8L93.1,100.8z"/>
		<path class="st1" d="M99.5,101c-0.8,0-1.4-0.2-2-0.5s-1.1-0.8-1.4-1.4c-0.3-0.6-0.5-1.4-0.5-2.2s0.2-1.6,0.5-2.2s0.8-1.1,1.4-1.5
			c0.6-0.3,1.3-0.5,2-0.5c0.8,0,1.4,0.2,2,0.5s1.1,0.8,1.4,1.5s0.5,1.4,0.5,2.2s-0.2,1.6-0.5,2.2c-0.3,0.6-0.8,1.1-1.4,1.4
			C101,100.8,100.3,101,99.5,101z M99.5,99.9c0.5,0,0.9-0.1,1.3-0.3s0.7-0.6,1-1s0.4-1,0.4-1.7s-0.1-1.2-0.4-1.7s-0.6-0.8-0.9-1
			c-0.4-0.2-0.8-0.3-1.3-0.3s-0.9,0.1-1.3,0.3s-0.7,0.6-1,1c-0.2,0.5-0.4,1-0.4,1.7s0.1,1.2,0.4,1.7s0.6,0.8,0.9,1
			C98.7,99.7,99.1,99.9,99.5,99.9z"/>
		<path class="st1" d="M109,101c-0.8,0-1.4-0.2-2-0.5s-1.1-0.8-1.4-1.4s-0.5-1.4-0.5-2.2s0.2-1.6,0.5-2.2c0.3-0.6,0.8-1.1,1.4-1.5
			c0.6-0.3,1.3-0.5,2-0.5s1.4,0.2,2,0.5s1.1,0.8,1.4,1.5c0.3,0.6,0.5,1.4,0.5,2.2s-0.2,1.6-0.5,2.2c-0.3,0.6-0.8,1.1-1.4,1.4
			S109.8,101,109,101z M109,99.9c0.5,0,0.9-0.1,1.3-0.3s0.7-0.6,1-1s0.4-1,0.4-1.7s-0.1-1.2-0.4-1.7c-0.2-0.4-0.6-0.8-0.9-1
			c-0.4-0.2-0.8-0.3-1.3-0.3s-0.9,0.1-1.3,0.3s-0.7,0.6-1,1c-0.2,0.5-0.4,1-0.4,1.7s0.1,1.2,0.4,1.7c0.2,0.5,0.6,0.8,0.9,1
			S108.6,99.9,109,99.9z"/>
		<path class="st1" d="M115.3,100.9c-0.3,0-0.5-0.1-0.7-0.3s-0.3-0.4-0.3-0.6c0-0.3,0.1-0.5,0.3-0.7c0.2-0.2,0.4-0.3,0.7-0.3
			c0.3,0,0.5,0.1,0.6,0.3c0.2,0.2,0.3,0.4,0.3,0.7s-0.1,0.5-0.3,0.6S115.6,100.9,115.3,100.9z"/>
		<path class="st2" d="M281.1,20.3l-13.6,3.3l-1-4.1c-0.4-1.8-2.3-2.9-4.1-2.5s-2.9,2.3-2.5,4.1l1,4.1l-48.7,12l-1-4.1
			c-0.4-1.8-2.3-2.9-4.1-2.5s-2.9,2.3-2.5,4.1l1,4.1L192,42.1c-2.6,0.6-4.2,3.3-3.6,5.9l0.8,3.2l0.5,2l13.7,56
			c1,4.1,5.2,6.7,9.4,5.7l83.3-20.5c4.2-1,6.7-5.2,5.7-9.4l-13.7-56l-0.5-2l-0.8-3.2C286.4,21.3,283.8,19.7,281.1,20.3z"/>
		<path class="st3" d="M292.1,92.8l-82,20.1c-4.5,1.1-9.1-1.6-10.2-6.2l-14.1-57.3l98.4-24.2l14.1,57.3
			C299.4,87.1,296.7,91.7,292.1,92.8z"/>
		<path class="st0" d="M201.4,68.2c3.9,0,7.1-3.2,7.1-7.1s-3.2-7.1-7.1-7.1s-7.1,3.2-7.1,7.1C194.3,65.1,197.5,68.2,201.4,68.2z"/>
		<path class="st4" d="M198.4,58.3c0.2-0.2,0.2-0.5,0-0.8c-0.2-0.2-0.6-0.2-0.8,0s-0.2,0.5,0,0.8c0.1,0.1,0.2,0.1,0.2,0.1"/>
		<path class="st5" d="M198.4,58.9l0.8,3.4c1.8-1.5,3.4,0.2,5.2-1.3l-0.8-3.3C201.8,59.1,200.1,57.4,198.4,58.9z"/>
		<path class="st4" d="M200.2,66H200c-0.1,0-0.2,0-0.2-0.1l-1.9-7.9v-0.1l0.4-0.1h0.1l1.9,7.9C200.3,65.9,200.3,66,200.2,66z"/>
		<path class="st4" d="M206.2,67.7c1.3,0,2.3-1,2.3-2.3s-1-2.3-2.3-2.3s-2.3,1-2.3,2.3C203.9,66.6,204.9,67.7,206.2,67.7z"/>
		<path class="st6" d="M205.2,65.9l0.7,0.4c0.1,0,0.1,0,0.2-0.1l0.9-1.8"/>
		<path class="st0" d="M219.8,63.7c3.9,0,7.1-3.2,7.1-7.1s-3.2-7.1-7.1-7.1s-7.1,3.2-7.1,7.1C212.7,60.5,215.9,63.7,219.8,63.7z"/>
		<path class="st4" d="M216.9,53.8c0.2-0.2,0.2-0.5,0-0.8c-0.2-0.2-0.6-0.2-0.8,0s-0.2,0.6,0,0.8c0.1,0.1,0.2,0.1,0.2,0.2"/>
		<path class="st5" d="M216.8,54.4l0.8,3.3c1.8-1.5,3.4,0.2,5.2-1.3L222,53C220.2,54.6,218.5,52.9,216.8,54.4z"/>
		<path class="st4" d="M218.6,61.5h-0.2c-0.1,0-0.2,0-0.2-0.1l-1.9-7.9v-0.1l0.4-0.1h0.1l1.9,7.9C218.7,61.4,218.7,61.5,218.6,61.5z
			"/>
		<path class="st4" d="M224.6,63.1c1.3,0,2.3-1,2.3-2.3s-1-2.3-2.3-2.3s-2.3,1-2.3,2.3S223.4,63.1,224.6,63.1z"/>
		<path class="st6" d="M223.6,61.4l0.7,0.4c0.1,0,0.1,0,0.2,0l0.9-1.8"/>
		<path class="st0" d="M238.2,59.2c3.9,0,7.1-3.2,7.1-7.1s-3.2-7.1-7.1-7.1s-7.1,3.2-7.1,7.1C231.1,56,234.3,59.2,238.2,59.2z"/>
		<path class="st4" d="M235.3,49.3c0.2-0.2,0.2-0.5,0-0.8c-0.2-0.2-0.5-0.2-0.8,0c-0.2,0.2-0.2,0.5,0,0.8c0.1,0.1,0.1,0.1,0.2,0.2"
			/>
		<path class="st5" d="M235.2,49.8l0.8,3.3c1.8-1.5,3.4,0.2,5.2-1.3l-0.8-3.4C238.6,50,236.9,48.4,235.2,49.8z"/>
		<path class="st4" d="M237,57l-0.2,0.1c-0.1,0-0.2,0-0.2-0.1l-1.9-7.9V49l0.4-0.1h0.1l1.9,7.9C237.1,56.9,237.1,57,237,57z"/>
		<path class="st4" d="M243,58.6c1.3,0,2.3-1,2.3-2.3s-1-2.3-2.3-2.3s-2.3,1-2.3,2.3C240.8,57.6,241.8,58.6,243,58.6z"/>
		<path class="st6" d="M242.1,56.9l0.7,0.4c0.1,0,0.1,0,0.2,0l0.9-1.8"/>
		<path class="st0" d="M257.2,54.5c3.9,0,7.1-3.2,7.1-7.1s-3.2-7.1-7.1-7.1c-3.9,0-7.1,3.2-7.1,7.1
			C250.1,51.3,253.3,54.5,257.2,54.5z"/>
		<path class="st4" d="M254.3,44.6c0.2-0.2,0.2-0.5,0-0.8c-0.2-0.2-0.5-0.2-0.8,0c-0.2,0.2-0.2,0.6,0,0.8c0.1,0.1,0.1,0.1,0.2,0.2"
			/>
		<path class="st5" d="M254.2,45.2l0.8,3.3c1.8-1.5,3.4,0.2,5.2-1.3l-0.8-3.4C257.7,45.4,256,43.7,254.2,45.2z"/>
		<path class="st4" d="M256,52.3h-0.2c-0.1,0-0.2,0-0.2-0.1l-1.9-7.9v-0.1l0.4-0.1h0.1l1.9,7.9C256.2,52.2,256.1,52.3,256,52.3z"/>
		<path class="st4" d="M262,53.9c1.3,0,2.3-1,2.3-2.3s-1-2.3-2.3-2.3s-2.3,1-2.3,2.3C259.8,52.9,260.8,53.9,262,53.9z"/>
		<path class="st6" d="M261.1,52.2l0.7,0.4c0.1,0,0.1,0,0.2,0l0.9-1.8"/>
		<path class="st0" d="M275.6,50c3.9,0,7.1-3.2,7.1-7.1s-3.2-7.1-7.1-7.1s-7.1,3.2-7.1,7.1C268.6,46.8,271.7,50,275.6,50z"/>
		<path class="st4" d="M272.7,40.1c0.2-0.2,0.2-0.5,0-0.8c-0.2-0.2-0.5-0.2-0.8,0c-0.2,0.2-0.2,0.5,0,0.8c0.1,0.1,0.1,0.1,0.2,0.2"
			/>
		<path class="st5" d="M272.6,40.6l0.8,3.3c1.8-1.5,3.4,0.2,5.2-1.3l-0.8-3.4C276.1,40.8,274.4,39.2,272.6,40.6z"/>
		<path class="st4" d="M274.4,47.8l-0.2,0.1c-0.1,0-0.2,0-0.2-0.1l-1.9-7.9v-0.1l0.4-0.1h0.1l1.9,7.9
			C274.6,47.7,274.5,47.8,274.4,47.8z"/>
		<path class="st4" d="M280.5,49.4c1.3,0,2.3-1,2.3-2.3s-1-2.3-2.3-2.3s-2.3,1-2.3,2.3C278.2,48.4,279.2,49.4,280.5,49.4z"/>
		<path class="st6" d="M279.5,47.7l0.7,0.4c0.1,0,0.1,0,0.2,0l0.9-1.8"/>
		<path class="st0" d="M205.8,86.4c3.9,0,7.1-3.2,7.1-7.1c0-3.9-3.2-7.1-7.1-7.1s-7.1,3.2-7.1,7.1S201.9,86.4,205.8,86.4z"/>
		<path class="st4" d="M202.9,76.5c0.2-0.2,0.2-0.5,0-0.8c-0.2-0.2-0.5-0.2-0.8,0c-0.2,0.2-0.2,0.5,0,0.8c0.1,0.1,0.1,0.1,0.2,0.2"
			/>
		<path class="st5" d="M202.8,77l0.8,3.3c1.8-1.5,3.4,0.2,5.2-1.3l-0.8-3.4C206.3,77.2,204.6,75.5,202.8,77z"/>
		<path class="st4" d="M204.6,84.2h-0.2c-0.1,0-0.2,0-0.2-0.1l-1.9-7.9v-0.1l0.4-0.1h0.1l1.9,7.9C204.8,84.1,204.7,84.2,204.6,84.2z
			"/>
		<path class="st4" d="M210.6,85.8c1.3,0,2.3-1,2.3-2.3s-1-2.3-2.3-2.3s-2.3,1-2.3,2.3C208.4,84.8,209.4,85.8,210.6,85.8z"/>
		<path class="st6" d="M209.7,84.1l0.7,0.4c0.1,0,0.1,0,0.2,0l0.9-1.8"/>
		<path class="st0" d="M224.2,81.8c3.9,0,7.1-3.2,7.1-7.1c0-3.9-3.2-7.1-7.1-7.1c-3.9,0-7.1,3.2-7.1,7.1
			C217.2,78.7,220.3,81.8,224.2,81.8z"/>
		<path class="st4" d="M221.3,71.9c0.2-0.2,0.2-0.6,0-0.8s-0.6-0.2-0.8,0s-0.2,0.5,0,0.8c0.1,0.1,0.1,0.1,0.2,0.1"/>
		<path class="st5" d="M221.2,72.5l0.8,3.3c1.8-1.5,3.4,0.2,5.2-1.3l-0.8-3.4C224.7,72.7,223,71,221.2,72.5z"/>
		<path class="st4" d="M223,79.7h-0.2c-0.1,0-0.2,0-0.2-0.1l-1.9-7.9v-0.1l0.4-0.1h0.1l1.9,7.9C223.2,79.5,223.1,79.6,223,79.7z"/>
		<path class="st4" d="M229.1,81.3c1.3,0,2.3-1,2.3-2.3s-1-2.3-2.3-2.3s-2.3,1-2.3,2.3S227.8,81.3,229.1,81.3z"/>
		<path class="st6" d="M228.1,79.6l0.7,0.4c0.1,0,0.1,0,0.2-0.1l0.9-1.8"/>
		<path class="st0" d="M242.6,77.3c3.9,0,7.1-3.2,7.1-7.1c0-3.9-3.2-7.1-7.1-7.1s-7.1,3.2-7.1,7.1C235.6,74.2,238.7,77.3,242.6,77.3
			z"/>
		<path class="st4" d="M239.7,67.4c0.2-0.2,0.2-0.5,0-0.8c-0.2-0.2-0.6-0.2-0.8,0s-0.2,0.6,0,0.8c0.1,0.1,0.1,0.1,0.2,0.2"/>
		<path class="st5" d="M239.6,68l0.8,3.3c1.8-1.5,3.4,0.2,5.2-1.3l-0.8-3.4C243.1,68.2,241.4,66.5,239.6,68z"/>
		<path class="st4" d="M241.5,75.1h-0.2c-0.1,0-0.2,0-0.2-0.1l-1.9-7.9V67l0.4-0.1h0.1l1.9,7.9C241.6,75,241.5,75.1,241.5,75.1z"/>
		<path class="st4" d="M247.5,76.8c1.3,0,2.3-1,2.3-2.3s-1-2.3-2.3-2.3s-2.3,1-2.3,2.3C245.2,75.7,246.2,76.8,247.5,76.8z"/>
		<path class="st6" d="M246.5,75l0.7,0.4c0.1,0,0.1,0,0.2,0l0.9-1.8"/>
		<path class="st0" d="M261.7,72.6c3.9,0,7.1-3.2,7.1-7.1c0-3.9-3.2-7.1-7.1-7.1s-7.1,3.2-7.1,7.1C254.6,69.5,257.8,72.6,261.7,72.6
			z"/>
		<path class="st4" d="M258.7,62.7c0.2-0.2,0.2-0.6,0-0.8c-0.2-0.2-0.5-0.2-0.8,0c-0.2,0.2-0.2,0.5,0,0.8c0.1,0.1,0.1,0.1,0.2,0.1"
			/>
		<path class="st5" d="M258.7,63.3l0.8,3.4c1.8-1.5,3.4,0.2,5.2-1.3l-0.8-3.4C262.1,63.5,260.4,61.8,258.7,63.3z"/>
		<path class="st4" d="M260.5,70.5h-0.2c-0.1,0-0.2,0-0.2-0.1l-1.9-7.9v-0.1l0.4-0.1h0.1l1.9,7.9C260.6,70.4,260.6,70.4,260.5,70.5z
			"/>
		<path class="st0" d="M280.1,68.1c3.9,0,7.1-3.2,7.1-7.1s-3.2-7.1-7.1-7.1S273,57.1,273,61C273,65,276.2,68.1,280.1,68.1z"/>
		<path class="st4" d="M277.2,58.2c0.2-0.2,0.2-0.5,0-0.8c-0.2-0.2-0.6-0.2-0.8,0c-0.2,0.2-0.2,0.5,0,0.8c0.1,0.1,0.1,0.1,0.2,0.2"
			/>
		<path class="st5" d="M277.1,58.8l0.8,3.3c1.8-1.5,3.4,0.2,5.2-1.3l-0.8-3.4C280.5,59,278.8,57.3,277.1,58.8z"/>
		<path class="st4" d="M278.9,65.9h-0.2c-0.1,0-0.2,0-0.2-0.1l-1.9-7.9v-0.1l0.4-0.1h0.1l1.9,7.9C279,65.8,279,65.9,278.9,65.9z"/>
		<path class="st0" d="M210.5,105.5c3.9,0,7.1-3.2,7.1-7.1c0-3.9-3.2-7.1-7.1-7.1s-7.1,3.2-7.1,7.1
			C203.4,102.3,206.6,105.5,210.5,105.5z"/>
		<path class="st4" d="M207.6,95.5c0.2-0.2,0.2-0.6,0-0.8s-0.6-0.2-0.8,0s-0.2,0.5,0,0.8c0.1,0.1,0.2,0.1,0.2,0.2"/>
		<path class="st5" d="M207.5,96.1l0.8,3.4c1.8-1.5,3.4,0.2,5.2-1.3l-0.8-3.3C210.9,96.3,209.2,94.6,207.5,96.1z"/>
		<path class="st4" d="M209.3,103.3h-0.2c-0.1,0-0.2,0-0.2-0.1l-1.9-7.9v-0.1l0.4-0.1h0.1l1.9,7.9
			C209.5,103.2,209.4,103.3,209.3,103.3z"/>
		<path class="st0" d="M228.9,100.9c3.9,0,7.1-3.2,7.1-7.1c0-3.9-3.2-7.1-7.1-7.1s-7.1,3.2-7.1,7.1
			C221.8,97.8,225,100.9,228.9,100.9z"/>
		<path class="st4" d="M226,91c0.2-0.2,0.2-0.5,0-0.8c-0.2-0.2-0.6-0.2-0.8,0s-0.2,0.5,0,0.8c0.1,0.1,0.2,0.1,0.2,0.2"/>
		<path class="st5" d="M225.9,91.6l0.8,3.3c1.8-1.5,3.4,0.2,5.2-1.3l-0.8-3.4C229.4,91.8,227.7,90.1,225.9,91.6z"/>
		<path class="st4" d="M227.7,98.8h-0.2c-0.1,0-0.2,0-0.2-0.1l-1.9-7.9v-0.1l0.4-0.1h0.1l1.9,7.9C227.9,98.6,227.8,98.7,227.7,98.8z
			"/>
		<path class="st0" d="M247.3,96.4c3.9,0,7.1-3.2,7.1-7.1c0-3.9-3.2-7.1-7.1-7.1s-7.1,3.2-7.1,7.1C240.3,93.2,243.4,96.4,247.3,96.4
			z"/>
		<path class="st4" d="M244.4,86.5c0.2-0.2,0.2-0.5,0-0.8c-0.2-0.2-0.6-0.2-0.8,0s-0.2,0.5,0,0.8c0.1,0.1,0.1,0.1,0.2,0.1"/>
		<path class="st5" d="M244.3,87.1l0.8,3.4c1.8-1.5,3.4,0.2,5.2-1.3l-0.8-3.3C247.8,87.3,246.1,85.6,244.3,87.1z"/>
		<path class="st4" d="M246.1,94.2h-0.2c-0.1,0-0.2,0-0.2-0.1l-1.9-7.9v-0.1l0.4-0.1h0.1l1.9,7.9C246.3,94.1,246.2,94.2,246.1,94.2z
			"/>
		<path class="st0" d="M266.4,91.7c3.9,0,7.1-3.2,7.1-7.1c0-3.9-3.2-7.1-7.1-7.1s-7.1,3.2-7.1,7.1C259.3,88.6,262.5,91.7,266.4,91.7
			z"/>
		<path class="st4" d="M263.4,81.8c0.2-0.2,0.2-0.5,0-0.8c-0.2-0.2-0.6-0.2-0.8,0c-0.2,0.2-0.2,0.5,0,0.8c0.1,0.1,0.1,0.1,0.2,0.2"
			/>
		<path class="st5" d="M263.4,82.4l0.8,3.3c1.8-1.5,3.4,0.2,5.2-1.3l-0.8-3.4C266.8,82.6,265.1,80.9,263.4,82.4z"/>
		<path class="st4" d="M265.2,89.6l-0.2,0.1c-0.1,0-0.2,0-0.2-0.1l-1.9-7.9v-0.1l0.4-0.1h0.1l1.9,7.9
			C265.3,89.4,265.3,89.5,265.2,89.6z"/>
		<path class="st0" d="M284.8,87.2c3.9,0,7.1-3.2,7.1-7.1c0-3.9-3.2-7.1-7.1-7.1s-7.1,3.2-7.1,7.1C277.7,84.1,280.9,87.2,284.8,87.2
			z"/>
		<path class="st4" d="M281.9,77.3c0.2-0.2,0.2-0.5,0-0.8c-0.2-0.2-0.5-0.2-0.8,0c-0.2,0.2-0.2,0.5,0,0.8c0.1,0.1,0.1,0.1,0.2,0.1"
			/>
		<path class="st5" d="M281.8,77.9l0.8,3.4c1.8-1.5,3.4,0.2,5.2-1.3l-0.8-3.3C285.2,78.1,283.5,76.4,281.8,77.9z"/>
		<path class="st4" d="M283.6,85h-0.2c-0.1,0-0.2,0-0.2-0.1l-1.9-7.9v-0.1l0.4-0.1h0.1l1.9,7.9C283.7,84.9,283.7,85,283.6,85z"/>
		<path class="st7" d="M284.7,27.3l-98.4,24.2l-1.2-4.8c-0.7-2.9,1.1-5.7,3.9-6.4l88.1-21.6c2.9-0.7,5.7,1,6.4,3.9L284.7,27.3z"/>
		<path class="st3" d="M209.7,39.3l-6.5,1.6l-2-8c-0.4-1.8,0.7-3.6,2.5-4.1c1.8-0.4,3.6,0.7,4.1,2.5L209.7,39.3z"/>
		<path class="st3" d="M264.9,25.8l-6.5,1.6l-2-8c-0.4-1.8,0.7-3.6,2.5-4.1c1.8-0.4,3.6,0.7,4.1,2.5L264.9,25.8z"/>
	</g>
</g>
</svg>
