<?xml version="1.0" encoding="utf-8"?>
<!-- Generator: Adobe Illustrator 25.1.0, SVG Export Plug-In . SVG Version: 6.00 Build 0)  -->
<svg version="1.1" id="Layer_1" xmlns="http://www.w3.org/2000/svg" xmlns:xlink="http://www.w3.org/1999/xlink" x="0px" y="0px"
	 viewBox="0 0 327.8 146.7" style="enable-background:new 0 0 327.8 146.7;" xml:space="preserve">
<style type="text/css">
	.st0{fill:#FFFFFF;}
	.st1{fill:#808080;}
	.st2{fill:#00CDDC;}
	.st3{fill:#D8B693;}
	.st4{fill:none;stroke:#FFFFFF;stroke-width:1.0452;stroke-linecap:round;stroke-miterlimit:10;}
</style>
<g>
	<g>
		<path class="st0" d="M327.8,104.3c0-98.2-1.5-100.2-23.8-100.2C276,4.1,12.9-6.7,5.5,6.8c-5.9,10.6-5,52.6-5,79.4
			c0,42.1-6.5,52.1,28.2,57.5c35.2,5.4,207.9,2,250.4,1.4C323,144.4,327.8,147.2,327.8,104.3z"/>
		<path class="st1" d="M15.7,46.7V35.5H17v11.2H15.7z"/>
		<path class="st1" d="M19.8,46.7v-6.8h-1.2v-1.1h1.2v-1.4c0-0.8,0.2-1.3,0.6-1.7c0.4-0.3,0.9-0.5,1.7-0.5h0.8v1.1h-0.6
			c-0.4,0-0.7,0.1-0.9,0.2c-0.2,0.2-0.3,0.5-0.3,0.8v1.3h2v1.1h-2v6.8L19.8,46.7L19.8,46.7z"/>
		<path class="st1" d="M29.8,50.2l2-4.3h-0.5l-3.1-7.2h1.5l2.6,6.2l2.8-6.2h1.4l-5.2,11.5H29.8z"/>
		<path class="st1" d="M40.7,46.9c-0.8,0-1.4-0.2-2-0.5s-1.1-0.8-1.4-1.4s-0.5-1.4-0.5-2.2c0-0.8,0.2-1.6,0.5-2.2s0.8-1.1,1.4-1.5
			c0.6-0.3,1.3-0.5,2-0.5s1.4,0.2,2,0.5s1.1,0.8,1.4,1.5c0.3,0.6,0.5,1.4,0.5,2.2c0,0.8-0.2,1.6-0.5,2.2s-0.8,1.1-1.4,1.4
			C42.1,46.7,41.4,46.9,40.7,46.9z M40.7,45.7c0.5,0,0.9-0.1,1.3-0.3s0.7-0.6,1-1c0.2-0.4,0.4-1,0.4-1.7S43.3,41.5,43,41
			c-0.2-0.4-0.6-0.8-1-1s-0.8-0.3-1.3-0.3s-0.9,0.1-1.3,0.3c-0.4,0.2-0.7,0.6-1,1c-0.2,0.5-0.4,1-0.4,1.7s0.1,1.2,0.4,1.7
			c0.2,0.5,0.6,0.8,1,1S40.2,45.7,40.7,45.7z"/>
		<path class="st1" d="M49.4,46.9c-0.9,0-1.7-0.3-2.2-0.9s-0.8-1.5-0.8-2.6v-4.6h1.3v4.5c0,1.7,0.7,2.5,2,2.5c0.7,0,1.3-0.2,1.7-0.7
			s0.7-1.2,0.7-2.1v-4.1h1.3v7.9h-1.2l-0.1-1.4c-0.2,0.5-0.6,0.9-1.1,1.2C50.6,46.7,50,46.9,49.4,46.9z"/>
		<path class="st1" d="M60.3,46.7v-6.8h-1.2v-1.1h1.2v-1.4c0-0.8,0.2-1.3,0.6-1.7c0.4-0.3,0.9-0.5,1.7-0.5h0.8v1.1h-0.6
			c-0.4,0-0.7,0.1-0.9,0.2c-0.2,0.2-0.3,0.5-0.3,0.8v1.3h1.9v1.1h-1.9v6.8L60.3,46.7L60.3,46.7z"/>
		<path class="st1" d="M68.5,46.9c-0.8,0-1.4-0.2-2-0.5c-0.6-0.4-1.1-0.8-1.4-1.5c-0.3-0.6-0.5-1.4-0.5-2.2c0-0.8,0.2-1.6,0.5-2.2
			s0.8-1.1,1.4-1.5c0.6-0.3,1.3-0.5,2.1-0.5c0.8,0,1.4,0.2,2,0.5c0.6,0.4,1,0.8,1.3,1.4s0.5,1.2,0.5,1.8c0,0.1,0,0.2,0,0.3
			c0,0.1,0,0.2,0,0.4h-6.5c0,0.6,0.2,1.1,0.4,1.5s0.6,0.7,0.9,0.9c0.4,0.2,0.8,0.3,1.2,0.3c0.6,0,1-0.1,1.4-0.4s0.7-0.6,0.8-1h1.3
			c-0.2,0.7-0.6,1.4-1.2,1.8C70.2,46.6,69.4,46.9,68.5,46.9z M68.5,39.7c-0.6,0-1.2,0.2-1.7,0.6s-0.8,1-0.9,1.7h5
			c0-0.7-0.3-1.3-0.7-1.7C69.7,39.9,69.2,39.7,68.5,39.7z"/>
		<path class="st1" d="M77.6,46.9c-0.8,0-1.4-0.2-2-0.5c-0.6-0.4-1.1-0.8-1.4-1.5c-0.3-0.6-0.5-1.4-0.5-2.2c0-0.8,0.2-1.6,0.5-2.2
			s0.8-1.1,1.4-1.5c0.6-0.3,1.3-0.5,2.1-0.5c0.8,0,1.4,0.2,2,0.5c0.6,0.4,1,0.8,1.3,1.4s0.5,1.2,0.5,1.8c0,0.1,0,0.2,0,0.3
			c0,0.1,0,0.2,0,0.4h-6.3c0,0.6,0.2,1.1,0.4,1.5s0.6,0.7,0.9,0.9c0.4,0.2,0.8,0.3,1.2,0.3c0.6,0,1-0.1,1.4-0.4
			c0.4-0.2,0.7-0.6,0.8-1h1.3C81,44.9,80.6,45.6,80,46C79.3,46.6,78.5,46.9,77.6,46.9z M77.6,39.7c-0.6,0-1.2,0.2-1.7,0.6
			s-0.8,1-0.9,1.7h5c0-0.7-0.3-1.3-0.7-1.7C78.8,39.9,78.3,39.7,77.6,39.7z"/>
		<path class="st1" d="M83.1,46.7V35.2h1.3v11.5H83.1z"/>
		<path class="st1" d="M91.4,46.7v-6.8h-1.2v-1.1h1.2v-1.4c0-0.8,0.2-1.3,0.6-1.7c0.4-0.3,0.9-0.5,1.7-0.5h0.8v1.1h-0.6
			c-0.4,0-0.7,0.1-0.9,0.2c-0.2,0.2-0.3,0.5-0.3,0.8v1.3h4.9v7.9h-1.3v-6.8h-3.6v6.8L91.4,46.7L91.4,46.7z M97,37.2
			c-0.3,0-0.5-0.1-0.7-0.3c-0.2-0.2-0.3-0.4-0.3-0.7c0-0.3,0.1-0.5,0.3-0.6c0.2-0.2,0.4-0.3,0.7-0.3c0.3,0,0.5,0.1,0.7,0.3
			c0.2,0.2,0.3,0.4,0.3,0.6c0,0.3-0.1,0.5-0.3,0.7C97.5,37.1,97.2,37.2,97,37.2z"/>
		<path class="st1" d="M103.1,46.7c-0.7,0-1.3-0.2-1.7-0.5c-0.4-0.4-0.6-1-0.6-1.9v-4.4h-1.4v-1.1h1.4l0.2-1.9h1.2v1.9h2.3v1.1h-2.3
			v4.4c0,0.5,0.1,0.8,0.3,1s0.6,0.3,1.1,0.3h0.8v1.1H103.1z"/>
		<path class="st1" d="M19.2,68.9c-0.8,0-1.4-0.2-2-0.5c-0.6-0.4-1-0.8-1.4-1.5c-0.3-0.6-0.5-1.4-0.5-2.2c0-0.8,0.2-1.6,0.5-2.2
			s0.8-1.1,1.4-1.5c0.6-0.3,1.3-0.5,2.1-0.5c0.8,0,1.4,0.2,2,0.5c0.6,0.4,1,0.8,1.3,1.4s0.5,1.2,0.5,1.8c0,0.1,0,0.2,0,0.3
			c0,0.1,0,0.2,0,0.4h-6.3c0,0.6,0.2,1.1,0.4,1.5s0.6,0.7,0.9,0.9c0.4,0.2,0.8,0.3,1.2,0.3c0.5,0,1-0.1,1.4-0.4s0.7-0.6,0.8-1h1.3
			c-0.2,0.7-0.6,1.4-1.2,1.8C20.9,68.6,20.1,68.9,19.2,68.9z M19.2,61.7c-0.6,0-1.2,0.2-1.7,0.6s-0.8,1-0.9,1.7h5
			c0-0.7-0.3-1.3-0.7-1.7C20.4,61.9,19.9,61.7,19.2,61.7z"/>
		<path class="st1" d="M24.7,68.7v-7.9h1.2l0.1,1.4c0.3-0.5,0.6-0.9,1.1-1.2c0.5-0.3,1-0.4,1.6-0.4c0.9,0,1.7,0.3,2.2,0.9
			c0.6,0.6,0.8,1.4,0.8,2.6v4.6h-1.3v-4.5c0-1.6-0.7-2.5-2-2.5c-0.7,0-1.2,0.2-1.7,0.7c-0.4,0.5-0.7,1.2-0.7,2.1v4.1L24.7,68.7
			L24.7,68.7z"/>
		<path class="st1" d="M37.5,68.9c-0.8,0-1.4-0.2-2-0.5s-1.1-0.8-1.4-1.4c-0.4-0.6-0.5-1.4-0.5-2.2c0-0.8,0.2-1.6,0.5-2.2
			c0.4-0.6,0.8-1.1,1.4-1.5c0.6-0.3,1.3-0.5,2-0.5c0.8,0,1.4,0.2,2,0.5s1.1,0.8,1.4,1.5s0.5,1.4,0.5,2.2c0,0.8-0.2,1.6-0.5,2.2
			s-0.8,1.1-1.4,1.4C38.9,68.7,38.2,68.9,37.5,68.9z M37.5,67.7c0.5,0,0.9-0.1,1.3-0.3c0.4-0.2,0.7-0.6,1-1c0.2-0.4,0.4-1,0.4-1.7
			c0-0.7-0.1-1.2-0.4-1.7s-0.6-0.8-0.9-1c-0.4-0.2-0.8-0.3-1.3-0.3s-0.9,0.1-1.3,0.3c-0.4,0.2-0.7,0.6-1,1c-0.2,0.5-0.4,1-0.4,1.7
			c0,0.7,0.1,1.2,0.4,1.7s0.6,0.8,1,1C36.6,67.6,37.1,67.7,37.5,67.7z"/>
		<path class="st1" d="M46.3,68.9c-0.9,0-1.7-0.3-2.2-0.9c-0.6-0.6-0.8-1.5-0.8-2.6v-4.6h1.3v4.5c0,1.7,0.7,2.5,2,2.5
			c0.7,0,1.3-0.2,1.7-0.7c0.5-0.5,0.7-1.2,0.7-2.1v-4.1h1.3v7.9h-1.2L49,67.4c-0.2,0.5-0.6,0.9-1.1,1.2
			C47.4,68.7,46.9,68.9,46.3,68.9z"/>
		<path class="st1" d="M55.6,66.2c-0.4,0-0.9-0.1-1.2-0.2l-0.8,0.8c0.1,0.1,0.3,0.2,0.4,0.2s0.4,0.1,0.8,0.2c0.3,0,0.8,0.1,1.4,0.2
			c1.1,0.1,1.8,0.3,2.3,0.7s0.7,1,0.7,1.6c0,0.5-0.1,0.9-0.4,1.3c-0.2,0.4-0.6,0.8-1.2,1c-0.5,0.3-1.2,0.4-2,0.4
			c-0.7,0-1.4-0.1-1.9-0.3c-0.6-0.2-1-0.5-1.3-0.9s-0.5-0.9-0.5-1.4c0-0.3,0.1-0.6,0.2-1c0.2-0.4,0.5-0.7,0.9-1
			c-0.2-0.1-0.4-0.2-0.6-0.3c-0.2-0.1-0.3-0.2-0.5-0.4v-0.4l1.4-1.3c-0.6-0.5-0.9-1.2-0.9-2.1c0-0.5,0.1-1,0.4-1.4
			c0.2-0.4,0.6-0.8,1.1-1s1-0.4,1.7-0.4c0.5,0,0.9,0.1,1.2,0.2h2.9v1l-1.5,0.1c0.3,0.5,0.5,1,0.5,1.6c0,0.5-0.1,1-0.4,1.4
			c-0.2,0.4-0.6,0.8-1.1,1C56.9,66.1,56.3,66.2,55.6,66.2z M53.3,69.7c0,0.5,0.2,0.9,0.7,1.2c0.4,0.3,1,0.4,1.7,0.4
			c0.7,0,1.2-0.1,1.6-0.4s0.6-0.7,0.6-1.2c0-0.3-0.1-0.6-0.4-0.9s-0.9-0.4-1.6-0.4c-0.6,0-1.1-0.1-1.5-0.2c-0.4,0.2-0.7,0.5-0.9,0.8
			C53.4,69.2,53.3,69.5,53.3,69.7z M55.6,65.1c0.6,0,1-0.2,1.3-0.4c0.3-0.3,0.5-0.7,0.5-1.3c0-0.5-0.2-1-0.5-1.3s-0.8-0.4-1.3-0.4
			c-0.6,0-1,0.1-1.4,0.4c-0.3,0.3-0.5,0.7-0.5,1.3c0,0.6,0.2,1,0.5,1.3C54.6,64.9,55.1,65.1,55.6,65.1z"/>
		<path class="st1" d="M61.3,68.7V57.2h1.3v4.9c0.3-0.5,0.7-0.9,1.1-1.1s1-0.4,1.6-0.4c0.9,0,1.7,0.3,2.2,0.9
			c0.6,0.6,0.8,1.4,0.8,2.6v4.6H67v-4.5c0-1.6-0.7-2.5-2-2.5c-0.7,0-1.3,0.2-1.7,0.7c-0.5,0.5-0.7,1.2-0.7,2.1v4.1L61.3,68.7
			L61.3,68.7z"/>
		<path class="st1" d="M69.4,70.6l0.9-3.5h1.4l-1.4,3.5H69.4z"/>
		<path class="st1" d="M80.2,68.9c-0.7,0-1.2-0.1-1.7-0.3c-0.4-0.2-0.8-0.5-1-0.9s-0.3-0.8-0.3-1.2c0-0.8,0.3-1.4,0.9-1.9
			c0.6-0.4,1.5-0.7,2.5-0.7h2.3v-0.1c0-0.7-0.2-1.2-0.5-1.6s-0.8-0.5-1.5-0.5c-0.5,0-1,0.1-1.3,0.4c-0.4,0.3-0.6,0.6-0.7,1.1h-1.4
			c0.1-0.6,0.2-1.1,0.6-1.5c0.3-0.4,0.8-0.7,1.3-0.9c0.5-0.2,1-0.3,1.6-0.3c1.1,0,1.9,0.3,2.5,0.9s0.8,1.4,0.8,2.4v4.9h-1.2L83,67.3
			c-0.2,0.4-0.5,0.8-1,1.1C81.5,68.7,80.9,68.9,80.2,68.9z M80.4,67.7c0.5,0,1-0.1,1.3-0.4c0.4-0.3,0.7-0.6,0.8-1
			c0.2-0.4,0.3-0.9,0.3-1.3l0,0h-2c-0.8,0-1.3,0.1-1.7,0.4c-0.3,0.3-0.5,0.6-0.5,1s0.2,0.8,0.5,1C79.4,67.6,79.9,67.7,80.4,67.7z"/>
		<path class="st1" d="M87,59c-0.3,0-0.5-0.1-0.7-0.3C86.1,58.5,86,58.3,86,58s0.1-0.5,0.3-0.6c0.2-0.2,0.4-0.3,0.7-0.3
			s0.5,0.1,0.7,0.3c0.2,0.2,0.3,0.4,0.3,0.6c0,0.3-0.1,0.5-0.3,0.7C87.5,58.9,87.3,59,87,59z M86.4,68.7v-7.9h1.3v7.9H86.4z"/>
		<path class="st1" d="M90.1,68.7v-7.9h1.2l0.1,1.2c0.3-0.4,0.6-0.8,1-1s0.9-0.4,1.4-0.4c0.6,0,1.2,0.1,1.6,0.4
			c0.5,0.2,0.8,0.7,1.1,1.2c0.3-0.5,0.7-0.9,1.1-1.1c0.5-0.3,1-0.4,1.6-0.4c0.9,0,1.7,0.3,2.3,0.9c0.6,0.6,0.8,1.5,0.8,2.6v4.6H101
			v-4.5c0-0.8-0.2-1.4-0.5-1.9c-0.3-0.4-0.8-0.6-1.4-0.6s-1.2,0.2-1.6,0.7s-0.6,1.2-0.6,2.1v4.1h-1.3v-4.5c0-0.8-0.2-1.4-0.5-1.9
			c-0.3-0.4-0.8-0.6-1.4-0.6s-1.2,0.2-1.6,0.7s-0.6,1.2-0.6,2.1v4.1L90.1,68.7L90.1,68.7z"/>
		<path class="st1" d="M111.8,68.7c-0.7,0-1.3-0.2-1.7-0.5c-0.4-0.4-0.6-1-0.6-1.9v-4.4h-1.4v-1.1h1.4l0.2-1.9h1.2v1.9h2.3v1.1h-2.3
			v4.4c0,0.5,0.1,0.8,0.3,1c0.2,0.2,0.6,0.3,1.1,0.3h0.8v1.1H111.8z"/>
		<path class="st1" d="M118.2,68.9c-0.8,0-1.4-0.2-2-0.5s-1.1-0.8-1.4-1.4s-0.5-1.4-0.5-2.2c0-0.8,0.2-1.6,0.5-2.2s0.8-1.1,1.4-1.5
			c0.6-0.3,1.3-0.5,2-0.5s1.4,0.2,2,0.5c0.6,0.3,1.1,0.8,1.4,1.5c0.3,0.6,0.5,1.4,0.5,2.2c0,0.8-0.2,1.6-0.5,2.2s-0.8,1.1-1.4,1.4
			C119.6,68.7,118.9,68.9,118.2,68.9z M118.2,67.7c0.5,0,0.9-0.1,1.3-0.3c0.4-0.2,0.7-0.6,1-1c0.2-0.4,0.4-1,0.4-1.7
			c0-0.7-0.1-1.2-0.4-1.7c-0.2-0.4-0.6-0.8-0.9-1c-0.4-0.2-0.8-0.3-1.3-0.3s-0.9,0.1-1.3,0.3c-0.4,0.2-0.7,0.6-1,1
			c-0.2,0.5-0.4,1-0.4,1.7c0,0.7,0.1,1.2,0.4,1.7c0.2,0.5,0.6,0.8,0.9,1C117.3,67.6,117.8,67.7,118.2,67.7z"/>
		<path class="st1" d="M131.9,68.9c-0.8,0-1.5-0.2-2.1-0.5c-0.6-0.4-1-0.9-1.4-1.5c-0.4-0.6-0.5-1.3-0.5-2.1c0-0.8,0.2-1.5,0.5-2.1
			s0.8-1.1,1.4-1.5s1.3-0.5,2.1-0.5c0.6,0,1.2,0.1,1.7,0.4s0.9,0.6,1.2,1.1v-4.9h1.3v11.5h-1.2l-0.1-1.3c-0.3,0.4-0.6,0.7-1.1,1
			C133.2,68.7,132.6,68.9,131.9,68.9z M132,67.7c0.5,0,1-0.1,1.4-0.4c0.4-0.2,0.7-0.6,1-1s0.3-1,0.3-1.6s-0.1-1.1-0.3-1.6
			s-0.6-0.8-1-1s-0.9-0.4-1.4-0.4s-1,0.1-1.4,0.4s-0.7,0.6-1,1c-0.2,0.5-0.3,1-0.3,1.6s0.1,1.1,0.3,1.6s0.6,0.8,1,1
			S131.5,67.7,132,67.7z"/>
		<path class="st1" d="M142,68.9c-0.8,0-1.4-0.2-2-0.5s-1.1-0.8-1.4-1.4c-0.4-0.6-0.5-1.4-0.5-2.2c0-0.8,0.2-1.6,0.5-2.2
			s0.8-1.1,1.4-1.5c0.6-0.3,1.3-0.5,2-0.5s1.4,0.2,2,0.5s1.1,0.8,1.4,1.5s0.5,1.4,0.5,2.2c0,0.8-0.2,1.6-0.5,2.2
			c-0.4,0.6-0.8,1.1-1.4,1.4C143.4,68.7,142.7,68.9,142,68.9z M142,67.7c0.5,0,0.9-0.1,1.3-0.3c0.4-0.2,0.7-0.6,1-1
			c0.2-0.4,0.4-1,0.4-1.7c0-0.7-0.1-1.2-0.4-1.7c-0.2-0.4-0.6-0.8-1-1s-0.8-0.3-1.3-0.3s-0.9,0.1-1.3,0.3c-0.4,0.2-0.7,0.6-1,1
			c-0.2,0.5-0.4,1-0.4,1.7c0,0.7,0.1,1.2,0.4,1.7c0.2,0.5,0.6,0.8,1,1S141.5,67.7,142,67.7z"/>
		<path class="st1" d="M18.8,90.7c-0.7,0-1.3-0.2-1.7-0.5c-0.4-0.4-0.6-1-0.6-1.9v-4.4h-1.4v-1.1h1.4l0.2-1.9h1.2v1.9h2.3v1.1h-2.3
			v4.4c0,0.5,0.1,0.8,0.3,1s0.6,0.3,1.1,0.3h0.8v1.1H18.8z"/>
		<path class="st1" d="M21.8,90.7V79.2h1.3v4.9c0.3-0.5,0.7-0.9,1.1-1.1c0.5-0.3,1-0.4,1.6-0.4c0.9,0,1.6,0.3,2.2,0.9
			c0.5,0.6,0.8,1.4,0.8,2.6v4.6h-1.3v-4.5c0-1.6-0.7-2.5-2-2.5c-0.7,0-1.3,0.2-1.7,0.7c-0.5,0.5-0.7,1.2-0.7,2.1v4.1L21.8,90.7
			L21.8,90.7z"/>
		<path class="st1" d="M34.5,90.9c-0.8,0-1.4-0.2-2-0.5c-0.6-0.4-1-0.8-1.4-1.5c-0.3-0.6-0.5-1.4-0.5-2.2c0-0.8,0.2-1.6,0.5-2.2
			s0.8-1.1,1.4-1.5c0.6-0.3,1.3-0.5,2.1-0.5s1.4,0.2,2,0.5c0.6,0.4,1,0.8,1.3,1.4s0.5,1.2,0.5,1.8c0,0.1,0,0.2,0,0.3
			c0,0.1,0,0.2,0,0.4h-6.3c0,0.6,0.2,1.1,0.4,1.5s0.6,0.7,0.9,0.9c0.4,0.2,0.8,0.3,1.2,0.3c0.5,0,1-0.1,1.4-0.4
			c0.4-0.2,0.7-0.6,0.8-1h1.3c-0.2,0.7-0.6,1.4-1.2,1.8C36.2,90.6,35.5,90.9,34.5,90.9z M34.5,83.7c-0.6,0-1.2,0.2-1.7,0.6
			s-0.8,1-0.9,1.7h5c0-0.7-0.3-1.3-0.7-1.7C35.8,83.9,35.2,83.7,34.5,83.7z"/>
		<path class="st1" d="M45.3,90.7l4.4-10h-6.1v-1.1h7.5v1l-4.4,10.2h-1.4V90.7z"/>
		<path class="st1" d="M52.1,86.6v-1.1h6.3v1.1H52.1z"/>
		<path class="st1" d="M60.5,90.7v-7.9h1.2l0.1,1.2c0.3-0.4,0.6-0.8,1-1s0.9-0.4,1.4-0.4c0.6,0,1.2,0.1,1.6,0.4s0.8,0.7,1,1.2
			c0.3-0.5,0.7-0.9,1.1-1.1c0.5-0.3,1-0.4,1.6-0.4c1,0,1.7,0.3,2.3,0.9c0.6,0.6,0.8,1.5,0.8,2.6v4.6h-1.3v-4.5
			c0-0.8-0.2-1.4-0.5-1.9c-0.3-0.4-0.8-0.6-1.4-0.6s-1.2,0.2-1.6,0.7s-0.6,1.2-0.6,2.1v4.1h-1.3v-4.5c0-0.8-0.2-1.4-0.5-1.9
			c-0.3-0.4-0.8-0.6-1.4-0.6s-1.1,0.2-1.6,0.7c-0.4,0.5-0.6,1.2-0.6,2.1v4.1L60.5,90.7L60.5,90.7z"/>
		<path class="st1" d="M75.6,81c-0.3,0-0.5-0.1-0.7-0.3c-0.2-0.2-0.3-0.4-0.3-0.7s0.1-0.5,0.3-0.6c0.2-0.2,0.4-0.3,0.7-0.3
			s0.5,0.1,0.7,0.3c0.2,0.2,0.3,0.4,0.3,0.6c0,0.3-0.1,0.5-0.3,0.7C76.1,80.9,75.9,81,75.6,81z M75,90.7v-7.9h1.3v7.9H75z"/>
		<path class="st1" d="M78.6,90.7v-7.9h1.3l0.1,1.4c0.3-0.5,0.6-0.9,1.1-1.2c0.5-0.3,1-0.4,1.6-0.4c0.9,0,1.7,0.3,2.2,0.9
			s0.8,1.4,0.8,2.6v4.6h-1.3v-4.5c0-1.6-0.7-2.5-2-2.5c-0.7,0-1.2,0.2-1.7,0.7c-0.4,0.5-0.7,1.2-0.7,2.1v4.1L78.6,90.7L78.6,90.7z"
			/>
		<path class="st1" d="M90.7,90.9c-0.9,0-1.7-0.3-2.2-0.9s-0.8-1.5-0.8-2.6v-4.6H89v4.5c0,1.7,0.7,2.5,2,2.5c0.7,0,1.3-0.2,1.7-0.7
			c0.4-0.5,0.7-1.2,0.7-2.1v-4.1h1.3v7.9h-1.2l-0.1-1.4c-0.2,0.5-0.6,0.9-1.1,1.2C91.9,90.7,91.3,90.9,90.7,90.9z"/>
		<path class="st1" d="M100.1,90.7c-0.7,0-1.3-0.2-1.7-0.5c-0.4-0.4-0.6-1-0.6-1.9v-4.4h-1.4v-1.1h1.4l0.2-1.9h1.2v1.9h2.3v1.1h-2.3
			v4.4c0,0.5,0.1,0.8,0.3,1c0.2,0.2,0.6,0.3,1.1,0.3h0.8v1.1H100.1z"/>
		<path class="st1" d="M106.5,90.9c-0.8,0-1.4-0.2-2-0.5c-0.6-0.4-1.1-0.8-1.4-1.5c-0.3-0.6-0.5-1.4-0.5-2.2c0-0.8,0.2-1.6,0.5-2.2
			s0.8-1.1,1.4-1.5c0.6-0.3,1.3-0.5,2.1-0.5c0.8,0,1.4,0.2,2,0.5c0.6,0.4,1,0.8,1.3,1.4s0.4,1.2,0.4,1.8c0,0.1,0,0.2,0,0.3
			c0,0.1,0,0.2,0,0.4h-6.4c0,0.6,0.2,1.1,0.4,1.5s0.6,0.7,0.9,0.9c0.4,0.2,0.8,0.3,1.2,0.3c0.6,0,1-0.1,1.4-0.4s0.7-0.6,0.8-1h1.3
			c-0.2,0.7-0.6,1.4-1.2,1.8C108.2,90.6,107.4,90.9,106.5,90.9z M106.5,83.7c-0.6,0-1.2,0.2-1.7,0.6s-0.8,1-0.9,1.7h5
			c0-0.7-0.3-1.3-0.7-1.7C107.7,83.9,107.2,83.7,106.5,83.7z"/>
		<path class="st1" d="M17.2,112.7l-2.3-7.9h1.3l1.7,6.2l1.9-6.2h1.5l1.9,6.2l1.7-6.2h1.4l-2.3,7.9h-1.4l-1.9-6.5l-2,6.5H17.2z"/>
		<path class="st1" d="M31,112.9c-0.8,0-1.4-0.2-2-0.5s-1.1-0.8-1.4-1.4c-0.3-0.6-0.5-1.4-0.5-2.2s0.2-1.6,0.5-2.2
			c0.3-0.6,0.8-1.1,1.4-1.5c0.6-0.3,1.3-0.5,2-0.5c0.8,0,1.4,0.2,2,0.5s1.1,0.8,1.4,1.5c0.3,0.6,0.5,1.4,0.5,2.2s-0.2,1.6-0.5,2.2
			c-0.3,0.6-0.8,1.1-1.4,1.4C32.4,112.7,31.7,112.9,31,112.9z M31,111.7c0.5,0,0.9-0.1,1.3-0.3s0.7-0.6,1-1c0.2-0.4,0.4-1,0.4-1.7
			s-0.1-1.2-0.4-1.7c-0.2-0.4-0.6-0.8-1-1s-0.8-0.3-1.3-0.3s-0.9,0.1-1.3,0.3c-0.4,0.2-0.7,0.6-1,1c-0.2,0.5-0.4,1-0.4,1.7
			s0.1,1.2,0.4,1.7s0.6,0.8,1,1S30.6,111.7,31,111.7z"/>
		<path class="st1" d="M36.9,112.7v-7.9h1.2l0.1,1.5c0.2-0.5,0.6-0.9,1.1-1.2s1.1-0.5,1.9-0.5v1.4h-0.4c-0.5,0-0.9,0.1-1.3,0.2
			c-0.4,0.2-0.7,0.5-0.9,0.8c-0.2,0.4-0.4,0.9-0.4,1.6v4h-1.3V112.7z"/>
		<path class="st1" d="M42.7,112.7v-11.5H44v6.9l3.2-3.3h1.7l-3.5,3.6l4,4.3h-1.7l-3.6-4.1v4.1H42.7z"/>
		<path class="st1" d="M53.8,112.9c-0.8,0-1.4-0.2-2-0.5s-1.1-0.8-1.4-1.4c-0.4-0.6-0.5-1.4-0.5-2.2s0.2-1.6,0.5-2.2
			s0.8-1.1,1.4-1.5c0.6-0.3,1.3-0.5,2-0.5s1.4,0.2,2,0.5s1.1,0.8,1.4,1.5c0.4,0.6,0.5,1.4,0.5,2.2s-0.2,1.6-0.5,2.2
			c-0.4,0.6-0.8,1.1-1.4,1.4C55.2,112.7,54.5,112.9,53.8,112.9z M53.8,111.7c0.5,0,0.9-0.1,1.3-0.3c0.4-0.2,0.7-0.6,1-1
			c0.2-0.4,0.4-1,0.4-1.7s-0.1-1.2-0.4-1.7c-0.2-0.4-0.6-0.8-0.9-1c-0.4-0.2-0.8-0.3-1.3-0.3s-0.9,0.1-1.3,0.3c-0.4,0.2-0.7,0.6-1,1
			c-0.2,0.5-0.4,1-0.4,1.7s0.1,1.2,0.4,1.7c0.2,0.5,0.6,0.8,0.9,1C52.9,111.6,53.3,111.7,53.8,111.7z"/>
		<path class="st1" d="M62.5,112.9c-0.9,0-1.7-0.3-2.2-0.9c-0.5-0.6-0.8-1.5-0.8-2.6v-4.6h1.3v4.5c0,1.7,0.7,2.5,2,2.5
			c0.7,0,1.3-0.2,1.7-0.7c0.4-0.5,0.7-1.2,0.7-2.1v-4.1h1.3v7.9h-1.2l-0.1-1.4c-0.2,0.5-0.6,0.9-1.1,1.2
			C63.7,112.7,63.1,112.9,62.5,112.9z"/>
		<path class="st1" d="M71.9,112.7c-0.7,0-1.3-0.2-1.7-0.5c-0.4-0.4-0.6-1-0.6-1.9v-4.4h-1.4v-1.1h1.4l0.2-1.9h1.1v1.9h2.3v1.1h-2.3
			v4.4c0,0.5,0.1,0.8,0.3,1c0.2,0.2,0.6,0.3,1.1,0.3h0.8v1.1L71.9,112.7L71.9,112.7z"/>
		<path class="st1" d="M240.3,81.7c-0.8,0-1.4-0.2-2-0.5c-0.6-0.4-1-0.8-1.4-1.5c-0.3-0.6-0.5-1.4-0.5-2.2c0-0.8,0.2-1.6,0.5-2.2
			s0.8-1.1,1.4-1.5s1.3-0.5,2.1-0.5s1.4,0.2,2,0.5s1,0.8,1.3,1.4s0.5,1.2,0.5,1.8c0,0.1,0,0.2,0,0.3s0,0.2,0,0.4h-6.3
			c0,0.6,0.2,1.1,0.4,1.5s0.6,0.7,0.9,0.9c0.4,0.2,0.8,0.3,1.2,0.3c0.6,0,1-0.1,1.4-0.4s0.6-0.6,0.8-1h1.3c-0.2,0.7-0.6,1.4-1.2,1.8
			C242,81.4,241.2,81.7,240.3,81.7z M240.3,74.5c-0.6,0-1.2,0.2-1.7,0.6s-0.8,1-0.9,1.7h5c0-0.7-0.3-1.3-0.7-1.7
			C241.5,74.7,240.9,74.5,240.3,74.5z"/>
		<path class="st1" d="M248.4,81.7c-0.7,0-1.2-0.1-1.6-0.3c-0.4-0.2-0.8-0.5-1-0.9s-0.3-0.8-0.3-1.2c0-0.8,0.3-1.4,0.9-1.9
			c0.6-0.4,1.5-0.7,2.5-0.7h2.1v-0.1c0-0.7-0.2-1.2-0.5-1.6c-0.4-0.4-0.9-0.5-1.5-0.5c-0.5,0-1,0.1-1.4,0.4s-0.6,0.6-0.7,1.1h-1.4
			c0-0.6,0.2-1.1,0.6-1.5c0.3-0.4,0.8-0.7,1.3-0.9s1-0.3,1.6-0.3c1.1,0,1.9,0.3,2.5,0.9s0.8,1.4,0.8,2.4v4.9h-1.2l-0.1-1.4
			c-0.2,0.5-0.5,0.8-1,1.1C249.7,81.5,249.2,81.7,248.4,81.7z M248.6,80.6c0.5,0,1-0.1,1.3-0.4s0.6-0.6,0.8-1
			c0.2-0.4,0.3-0.9,0.3-1.3l0,0h-2c-0.8,0-1.4,0.1-1.7,0.4s-0.5,0.6-0.5,1s0.1,0.8,0.5,1C247.7,80.4,248.1,80.6,248.6,80.6z"/>
		<path class="st1" d="M258.1,81.7c-0.8,0-1.4-0.2-2-0.5c-0.6-0.4-1.1-0.8-1.4-1.5c-0.3-0.6-0.5-1.4-0.5-2.2c0-0.8,0.2-1.6,0.5-2.2
			c0.4-0.6,0.8-1.1,1.4-1.5s1.3-0.5,2-0.5c0.9,0,1.7,0.2,2.4,0.7c0.7,0.5,1.1,1.2,1.2,2h-1.4c-0.1-0.5-0.4-0.9-0.8-1.1
			c-0.4-0.3-0.9-0.4-1.5-0.4c-0.4,0-0.9,0.1-1.3,0.3c-0.4,0.2-0.7,0.6-1,1s-0.4,1-0.4,1.7s0.1,1.2,0.4,1.7s0.6,0.8,1,1
			s0.8,0.3,1.3,0.3c0.6,0,1-0.1,1.5-0.4c0.4-0.3,0.7-0.7,0.8-1.2h1.4c-0.2,0.8-0.6,1.5-1.2,2C259.8,81.4,259,81.7,258.1,81.7z"/>
		<path class="st1" d="M263.6,81.5V70h1.3v4.9c0.3-0.5,0.7-0.9,1.1-1.1c0.5-0.3,1-0.4,1.6-0.4c0.9,0,1.6,0.3,2.2,0.9
			c0.5,0.6,0.8,1.4,0.8,2.6v4.6h-1.3V77c0-1.6-0.7-2.5-2-2.5c-0.7,0-1.3,0.2-1.7,0.7c-0.5,0.5-0.7,1.2-0.7,2.1v4.1L263.6,81.5
			L263.6,81.5z"/>
		<path class="st1" d="M278.6,81.5l-2.3-7.9h1.3l1.7,6.2l1.9-6.2h1.5l1.9,6.2l1.7-6.2h1.4l-2.3,7.9H284l-2-6.5l-1.9,6.5H278.6z"/>
		<path class="st1" d="M292.3,81.7c-0.8,0-1.4-0.2-2-0.5c-0.6-0.4-1.1-0.8-1.4-1.5c-0.3-0.6-0.5-1.4-0.5-2.2c0-0.8,0.2-1.6,0.5-2.2
			s0.8-1.1,1.4-1.5s1.3-0.5,2.1-0.5c0.8,0,1.4,0.2,2,0.5s1,0.8,1.3,1.4s0.5,1.2,0.5,1.8c0,0.1,0,0.2,0,0.3s0,0.2,0,0.4h-6.3
			c0,0.6,0.2,1.1,0.4,1.5c0.2,0.4,0.6,0.7,0.9,0.9c0.4,0.2,0.8,0.3,1.2,0.3c0.6,0,1-0.1,1.4-0.4s0.6-0.6,0.8-1h1.3
			c-0.2,0.7-0.6,1.4-1.2,1.8C294,81.4,293.2,81.7,292.3,81.7z M292.3,74.5c-0.6,0-1.2,0.2-1.7,0.6s-0.8,1-0.9,1.7h5
			c0-0.7-0.3-1.3-0.7-1.7C293.5,74.7,293,74.5,292.3,74.5z"/>
		<path class="st1" d="M301.4,81.7c-0.8,0-1.4-0.2-2-0.5c-0.6-0.4-1.1-0.8-1.4-1.5c-0.3-0.6-0.5-1.4-0.5-2.2c0-0.8,0.2-1.6,0.5-2.2
			s0.8-1.1,1.4-1.5s1.3-0.5,2.1-0.5c0.8,0,1.4,0.2,2,0.5s1,0.8,1.3,1.4s0.4,1.2,0.4,1.8c0,0.1,0,0.2,0,0.3c0,0.1,0,0.2,0,0.4h-6.3
			c0,0.6,0.2,1.1,0.4,1.5c0.2,0.4,0.6,0.7,0.9,0.9c0.4,0.2,0.8,0.3,1.2,0.3c0.5,0,1-0.1,1.4-0.4s0.6-0.6,0.8-1h1.3
			c-0.2,0.7-0.6,1.4-1.2,1.8C303.1,81.4,302.3,81.7,301.4,81.7z M301.4,74.5c-0.6,0-1.2,0.2-1.7,0.6s-0.8,1-0.9,1.7h5
			c0-0.7-0.3-1.3-0.7-1.7C302.6,74.7,302.1,74.5,301.4,74.5z"/>
		<path class="st1" d="M306.9,81.5V70h1.3v6.9l3.2-3.3h1.6l-3.5,3.6l4,4.3h-1.6l-3.6-4.1v4.1H306.9z"/>
		<path class="st1" d="M315.5,81.6c-0.3,0-0.5-0.1-0.7-0.3c-0.2-0.2-0.3-0.4-0.3-0.6c0-0.3,0.1-0.5,0.3-0.7c0.2-0.2,0.4-0.3,0.7-0.3
			s0.5,0.1,0.6,0.3c0.2,0.2,0.3,0.4,0.3,0.7c0,0.3-0.1,0.5-0.3,0.6C315.9,81.5,315.7,81.6,315.5,81.6z"/>
		<path class="st2" d="M226.5,37.2c0.3-0.3,1.1-0.5,2.6-0.5c1.1,0,1.7,0,2,0.1s0.6,0.3,0.9,0.6c0.5,0.5,0.7,1,0.7,1.5
			c0,0.4-0.2,1.4-0.6,3c-0.4,1.4-0.6,2.5-0.7,3.4c0,0.2-0.1,0.5-0.1,0.7c0,0.3,0.1,0.5,0.4,0.6c1.2,0.4,2.3,1.9,3.1,4.4
			c0.1,0.4,0.2,1,0.2,1.8c0,1.4-0.2,2.8-0.5,4.2c-0.2,0.7-0.4,1.2-0.5,1.5c-0.2,0.3-0.4,0.6-0.8,0.9c-0.6,0.5-1,0.8-1.2,0.8
			s-0.4,0.1-0.6,0.3c-0.2,0.2-0.5,0.3-0.8,0.3c0,0-0.1,0-0.2,0c-0.1,0-0.2,0-0.3,0c-2.5-0.4-3.7-0.9-3.7-1.5c0-0.1,0.1-0.3,0.1-0.5
			c0.1-0.3,0.5-0.6,0.9-0.8c0.5-0.2,0.9-0.4,1.3-0.4c1.6,0,2.4-1.2,2.4-3.5v-0.6c-0.1-1-0.2-1.9-0.5-2.6s-0.6-1-1.1-1
			c-0.4-0.1-0.9-0.2-1.4-0.4c-0.5-0.2-0.8-0.5-1-0.7c-0.1-0.1-0.1-0.2-0.1-0.4s0.2-0.9,0.5-2.2c0.6-2.4,1-4.3,1-5.8
			c0-0.4-0.2-0.7-0.6-0.8c-1.1-0.3-1.7-0.8-1.7-1.5C226.1,37.8,226.2,37.5,226.5,37.2z"/>
		<path class="st2" d="M245.1,35.8c0.4-0.4,1.1-0.6,2.1-0.6h1c1.6,0.1,2.6,0.1,3,0.2c0.2,0.1,0.6,0.1,1.3,0.2c0.7,0,1.2,0.2,1.5,0.4
			c0.3,0.2,0.5,0.6,0.5,1.2s-0.1,1-0.4,1.2c-0.2,0.2-0.6,0.4-1.1,0.5c-0.6,0.1-1,0.2-1.1,0.3c-0.2,0.2-0.2,3.1-0.2,8.7
			c0,3.9,0,6.7,0.1,8.3c0.1,1.3,0.1,2,0.1,2.1c0,0.6-0.1,1.2-0.4,1.7c-0.3,0.6-0.9,0.9-1.6,0.9c-0.5,0-0.9-0.1-1.4-0.4l-0.9-0.5
			l0.1-10.4c0.1-2.7,0.1-5.4,0.1-8.1c0-1.6-0.1-2.5-0.4-2.6c-0.4-0.2-0.6-0.3-0.7-0.2c-0.1,0-0.3,0-0.5,0c-0.5,0-1-0.2-1.4-0.5
			s-0.5-0.7-0.5-1.1C244.4,36.6,244.6,36.2,245.1,35.8z"/>
		<path class="st2" d="M259.7,37.1c0.4-0.4,0.8-0.6,1.4-0.6c0.5,0,1,0.2,1.4,0.6l0.6,0.6l0.3,10.3c0.1,5.7,0.2,9,0.2,9.8
			c0,0.5,0,0.8,0,1.1c0,0.3,0,0.5-0.1,0.7c0,0.2-0.1,0.3-0.1,0.4c-0.1,0.1-0.1,0.2-0.1,0.2s-0.1,0.1-0.2,0.1
			c-0.1,0.1-0.2,0.1-0.2,0.1c-0.3,0.2-0.6,0.3-0.8,0.3c-0.1,0-0.4-0.1-0.9-0.2c-0.7-0.3-1.1-0.6-1.2-0.8c-0.1-0.1-0.2-3.8-0.3-11
			c-0.1-7.2-0.1-10.8-0.2-10.9C259.2,37.8,259.3,37.5,259.7,37.1z"/>
		<path class="st2" d="M279.6,37.1c0.4-0.1,0.8-0.2,1.1-0.2c0.8,0,1.4,0.3,1.7,0.8c0.2,0.3,0.5,1.6,0.7,3.9s0.4,4.7,0.5,7.4
			c0,0.8,0.1,2.1,0.2,3.7s0.1,3,0.2,4.1c0.1,1.2,0.1,2.1,0.1,2.8c0,0.4-0.2,0.7-0.7,1s-1,0.4-1.5,0.4s-0.8-0.1-1-0.3l-0.6-0.5
			l-0.1-5.5c-0.2-6.3-0.5-9.5-0.8-9.5c-0.2,0-0.6,0.8-1.1,2.4c-0.3,0.9-0.6,1.5-0.9,1.9s-0.6,0.5-1.1,0.5c-0.3,0-0.7-0.1-1.2-0.3
			c-0.5-0.2-1-0.7-1.3-1.4c-0.4-0.8-0.6-1.2-0.6-1.3c0-0.1-0.1-0.3-0.2-0.6c-0.2-0.3-0.3-0.6-0.5-0.9s-0.3-0.4-0.3-0.3v0.5
			c0,1.3,0.1,3.3,0.1,5.8l0.2,6.4l-0.6,1c-0.7,1-1.2,1.5-1.7,1.5c-0.3,0-0.6-0.2-0.9-0.7c-0.2-0.4-0.4-0.9-0.5-1.7
			c-0.1-0.8-0.1-3-0.2-6.9c-0.2-7.1-0.4-11.1-0.5-12c0-0.1-0.1-0.3-0.1-0.5c0-0.3,0.2-0.7,0.5-1c0.4-0.4,0.8-0.6,1.3-0.6
			s1.1,0.1,1.7,0.4s1.1,0.7,1.4,1.1c0.3,0.5,1.1,1.8,2.3,4c0.3,0.6,0.6,0.9,0.7,0.9s0.3-0.2,0.5-0.6c0.1-0.5,0.4-1.1,0.8-1.8
			c0.4-0.9,0.6-1.4,0.6-1.5c0-0.3,0.2-0.7,0.6-1.4C279.1,37.5,279.4,37.2,279.6,37.1z"/>
		<path class="st2" d="M290.6,37c0.4-0.1,0.9-0.1,1.5-0.1c1.7,0,2.7,0.2,3.1,0.5c0.3,0.3,0.5,0.6,0.5,1s-0.1,0.7-0.5,1
			c-0.3,0.3-0.7,0.4-1.2,0.4s-0.8,0.1-0.9,0.3s-0.2,0.8-0.2,1.6c0,0.2,0,1,0.1,2.3c0.1,1.5,0.1,2.5,0.2,2.9s0.2,0.7,0.3,0.7
			c0,0,0.2,0,0.6,0s0.7,0,0.9,0c0.7,0,1.3,0.2,1.6,0.5c0.2,0.2,0.3,0.4,0.3,0.6c0,0.5-0.7,0.9-2,1.4c-0.8,0.3-1.2,0.5-1.4,0.6
			s-0.3,0.5-0.3,1c-0.1,0.5-0.1,0.9-0.1,1.3c0,1.5,0.1,2.7,0.4,3.4c0.1,0.3,0.3,0.5,0.4,0.6s0.5,0.1,1,0.1c0.6,0,1.2,0.2,1.7,0.4
			c0.5,0.3,0.7,0.6,0.7,1c0,0.3-0.2,0.6-0.7,1.1c-0.7,0.7-2,1-3.7,1c-1.8,0-2.9-0.4-3.5-1.1c-0.3-0.4-0.5-3-0.5-7.8
			c-0.1-6-0.1-9.5-0.2-10.6l-0.1-3.4l0.6-0.4C289.8,37.3,290.2,37.1,290.6,37z"/>
		<path class="st2" d="M305.7,36.4c0.4-0.2,0.8-0.3,1.3-0.3c0.3,0,0.6,0,0.8,0c0.9,0.1,1.5,0.2,1.8,0.4c0.3,0.2,0.6,0.5,0.9,0.9
			c0.3,0.5,0.5,1,0.5,1.5s-0.2,1-0.6,1.4s-0.7,0.6-1.1,0.6s-0.8-0.3-1.1-0.8c-0.3-0.4-0.6-0.6-0.9-0.6s-0.5,0.2-0.8,0.6
			s-0.4,0.8-0.5,1.3v0.2c0,1.7,1.3,4.8,3.8,9.3c0.4,0.7,0.8,2.1,1.2,4c0,0.1,0.1,0.3,0.1,0.6c0,1.7-0.4,3-1.1,3.9
			c-0.3,0.4-0.8,0.8-1.5,1c-0.7,0.3-1.3,0.5-1.9,0.5c-0.1,0-0.1,0-0.2,0s-0.1,0-0.2,0c-0.7-0.1-1.6-0.7-2.5-1.6
			c-1-0.9-1.5-1.7-1.5-2.2c0-0.2,0.2-0.5,0.5-0.8s0.7-0.5,1-0.6c0.1,0,0.2,0,0.3,0c0.3,0,0.9,0.5,1.6,1.5c0.3,0.4,0.6,0.6,0.9,0.6
			s0.5-0.2,0.7-0.5c0.1-0.1,0.1-0.3,0.1-0.7c0-1.8-0.8-4.3-2.4-7.7c-1.5-3.2-2.2-5.5-2.2-7c0-0.7,0.1-1.3,0.4-1.9
			c0.5-1.2,0.9-2,1.1-2.3C304.5,37.1,305,36.8,305.7,36.4z"/>
		<path class="st3" d="M154.4,81.4c5.7-6.4,23.1-6.8,30.9-3.2c2-17.4-15.1-36.3-27-28.6c-5.5,3.5-10.4,2.1-13,1.9
			c-7.9-0.7-8.4-4.7-9-10.2c-0.8-7.2-1.1-11.4,12.5-15.7c31.7-10.3,55.9,21.3,70.3,48.8c9,17.2,3.5,31.5-8.4,34.6s-60.4,16-60.4,16
			c-7.4,1.9-31.1,3.9-34.9-11C103.6,68.5,154.4,81.4,154.4,81.4z"/>
		<path class="st4" d="M157,86.4c0,0,15.7-12.2,25.5-0.2"/>
	</g>
</g>
</svg>
