<?xml version="1.0" encoding="utf-8"?>
<!-- Generator: Adobe Illustrator 25.1.0, SVG Export Plug-In . SVG Version: 6.00 Build 0)  -->
<svg version="1.1" id="Layer_1" xmlns="http://www.w3.org/2000/svg" xmlns:xlink="http://www.w3.org/1999/xlink" x="0px" y="0px"
	 viewBox="0 0 340.4 159.2" style="enable-background:new 0 0 340.4 159.2;" xml:space="preserve">
<style type="text/css">
	.st0{fill:#FFFFFF;}
	.st1{fill:#808080;}
	.st2{fill:#00CDDC;}
	.st3{fill:#DCE3E5;}
	.st4{fill:none;stroke:#FFFFFF;stroke-width:1.3964;stroke-linecap:round;stroke-miterlimit:10;}
	.st5{fill:#BFF2F6;}
	.st6{fill:#FF9F1A;}
	.st7{fill:none;stroke:#FFFFFF;stroke-width:1.5081;stroke-linecap:round;stroke-miterlimit:10;}
</style>
<g>
	<g>
		<path class="st0" d="M340.4,109.8c0-49.5-3.1-79.6-4.7-95.9C335.1,7.4,318.4,1.1,305.4,1c-29.7-0.2-81.3-0.7-111.8-0.9
			C165-0.1,121.8,0.3,86.7,0.8C52.3,1.2,12.4,1.9,7.2,12.3c-8.1,16.3-6.7,49.5-6.7,79.4c0,47-6.6,58.2,28.7,64.2
			c35.9,6,208.7,2.2,252,1.4C325.9,156.7,340.4,157.7,340.4,109.8z"/>
		<path class="st1" d="M156.5,31.9l-3.1-11.2h1.4l2.4,9.6l2.8-9.6h1.5l2.7,9.6l2.4-9.6h1.4l-3.1,11.2h-1.5l-2.7-9.2l-2.7,9.2H156.5z
			"/>
		<path class="st1" d="M169.3,31.9V24h1.2l0.1,1.5c0.2-0.5,0.6-0.9,1.1-1.2c0.5-0.3,1.1-0.5,1.9-0.5v1.4h-0.4
			c-0.5,0-0.9,0.1-1.3,0.2c-0.4,0.2-0.7,0.5-0.9,0.8c-0.2,0.4-0.4,0.9-0.4,1.6v4h-1.3V31.9z"/>
		<path class="st1" d="M175.9,22.2c-0.3,0-0.5-0.1-0.7-0.3c-0.2-0.2-0.3-0.4-0.3-0.7s0.1-0.5,0.3-0.6c0.2-0.2,0.4-0.3,0.7-0.3
			s0.5,0.1,0.7,0.3c0.2,0.2,0.3,0.4,0.3,0.6c0,0.3-0.1,0.5-0.3,0.7C176.4,22.1,176.2,22.2,175.9,22.2z M175.2,31.9V24h1.3v7.9H175.2
			z"/>
		<path class="st1" d="M182.1,31.9c-0.7,0-1.3-0.2-1.7-0.5c-0.4-0.4-0.6-1-0.6-1.9v-4.4h-1.4V24h1.4l0.2-1.9h1.2V24h2.3v1.1h-2.3
			v4.4c0,0.5,0.1,0.8,0.3,1s0.6,0.3,1.1,0.3h0.8v1.1H182.1z"/>
		<path class="st1" d="M188.4,32.1c-0.8,0-1.4-0.2-2-0.5c-0.6-0.4-1-0.8-1.4-1.5c-0.3-0.6-0.5-1.4-0.5-2.2c0-0.8,0.2-1.6,0.5-2.2
			s0.8-1.1,1.4-1.5c0.6-0.4,1.3-0.5,2.1-0.5s1.4,0.2,2,0.5s1,0.8,1.3,1.4s0.4,1.2,0.4,1.8c0,0.1,0,0.2,0,0.3c0,0.1,0,0.2,0,0.4h-6.3
			c0,0.6,0.2,1.1,0.4,1.5s0.6,0.7,0.9,0.9c0.4,0.2,0.8,0.3,1.2,0.3c0.6,0,1-0.1,1.4-0.4s0.7-0.6,0.8-1h1.3c-0.2,0.7-0.6,1.4-1.2,1.8
			C190.2,31.8,189.4,32.1,188.4,32.1z M188.4,24.9c-0.6,0-1.2,0.2-1.7,0.6s-0.8,1-0.9,1.7h5c0-0.7-0.3-1.3-0.7-1.7
			C189.7,25.1,189.1,24.9,188.4,24.9z"/>
		<path class="st1" d="M199.1,35.4l2-4.3h-0.5l-3.2-7.2h1.5l2.6,6.2l2.8-6.2h1.4l-5.2,11.5H199.1z"/>
		<path class="st1" d="M210,32.1c-0.8,0-1.4-0.2-2-0.5s-1.1-0.8-1.4-1.4c-0.4-0.6-0.5-1.4-0.5-2.2s0.2-1.6,0.5-2.2
			c0.4-0.6,0.8-1.1,1.4-1.5c0.6-0.3,1.3-0.5,2-0.5s1.4,0.2,2,0.5s1.1,0.8,1.4,1.5c0.4,0.6,0.5,1.4,0.5,2.2s-0.2,1.6-0.5,2.2
			c-0.4,0.6-0.8,1.1-1.4,1.4C211.4,31.9,210.7,32.1,210,32.1z M210,30.9c0.5,0,0.9-0.1,1.3-0.3c0.4-0.2,0.7-0.6,1-1s0.4-1,0.4-1.7
			s-0.1-1.2-0.4-1.7c-0.2-0.4-0.6-0.8-1-1s-0.8-0.3-1.3-0.3s-0.9,0.1-1.3,0.3c-0.4,0.2-0.7,0.6-1,1c-0.2,0.5-0.4,1-0.4,1.7
			s0.1,1.2,0.4,1.7c0.2,0.5,0.6,0.8,1,1C209.1,30.8,209.5,30.9,210,30.9z"/>
		<path class="st1" d="M218.7,32.1c-0.9,0-1.7-0.3-2.2-0.9c-0.6-0.6-0.8-1.5-0.8-2.6V24h1.3v4.5c0,1.6,0.7,2.5,2,2.5
			c0.7,0,1.3-0.2,1.7-0.7c0.5-0.5,0.7-1.2,0.7-2.1v-4.1h1.3V32h-1.2l-0.1-1.4c-0.2,0.5-0.6,0.9-1.1,1.2
			C219.9,31.9,219.3,32.1,218.7,32.1z"/>
		<path class="st1" d="M225,31.9V24h1.2l0.1,1.5c0.2-0.5,0.6-0.9,1.1-1.2c0.5-0.3,1.1-0.5,1.9-0.5v1.4h-0.4c-0.5,0-0.9,0.1-1.3,0.2
			c-0.4,0.2-0.7,0.5-0.9,0.8c-0.2,0.4-0.3,0.9-0.3,1.6v4H225V31.9z"/>
		<path class="st1" d="M238.2,29.4c-0.4,0-0.9-0.1-1.2-0.2l-0.8,0.8c0.1,0.1,0.3,0.2,0.4,0.2c0.2,0.1,0.4,0.1,0.8,0.2
			c0.3,0,0.8,0.1,1.4,0.1c1.1,0.1,1.8,0.3,2.3,0.7c0.5,0.4,0.7,1,0.7,1.6c0,0.5-0.1,0.9-0.4,1.3s-0.6,0.8-1.1,1
			c-0.5,0.3-1.2,0.4-2,0.4c-0.7,0-1.3-0.1-1.9-0.3s-1-0.5-1.3-0.9s-0.5-0.9-0.5-1.4c0-0.3,0.1-0.6,0.2-1c0.2-0.4,0.5-0.7,0.9-1
			c-0.2-0.1-0.4-0.2-0.6-0.3c-0.2-0.1-0.3-0.2-0.5-0.4v-0.4l1.4-1.3c-0.6-0.5-0.9-1.2-0.9-2.1c0-0.5,0.1-1,0.4-1.4
			c0.2-0.4,0.6-0.8,1.1-1s1-0.4,1.7-0.4c0.5,0,0.9,0.1,1.2,0.2h2.9v1l-1.5,0.1c0.3,0.5,0.5,1,0.5,1.6c0,0.5-0.1,1-0.4,1.4
			c-0.2,0.4-0.6,0.8-1.1,1C239.4,29.3,238.8,29.4,238.2,29.4z M235.8,32.9c0,0.5,0.2,0.9,0.7,1.2c0.4,0.3,1,0.4,1.7,0.4
			s1.2-0.1,1.6-0.4c0.4-0.3,0.6-0.7,0.6-1.2c0-0.3-0.1-0.6-0.4-0.9c-0.3-0.3-0.8-0.4-1.5-0.4c-0.6,0-1.1-0.1-1.5-0.2
			c-0.4,0.2-0.7,0.5-0.9,0.8C235.9,32.4,235.8,32.7,235.8,32.9z M238.2,28.3c0.6,0,1-0.1,1.4-0.4c0.3-0.3,0.5-0.7,0.5-1.3
			c0-0.5-0.2-1-0.5-1.3s-0.8-0.4-1.4-0.4c-0.6,0-1,0.2-1.4,0.4c-0.3,0.3-0.5,0.7-0.5,1.3s0.2,1,0.5,1.3
			C237.1,28.1,237.6,28.3,238.2,28.3z"/>
		<path class="st1" d="M247.2,32.1c-0.8,0-1.4-0.2-2-0.5s-1.1-0.8-1.4-1.4c-0.4-0.6-0.5-1.4-0.5-2.2s0.2-1.6,0.5-2.2
			c0.4-0.6,0.8-1.1,1.4-1.5c0.6-0.3,1.3-0.5,2-0.5s1.4,0.2,2,0.5s1.1,0.8,1.4,1.5c0.4,0.6,0.5,1.4,0.5,2.2s-0.2,1.6-0.5,2.2
			s-0.8,1.1-1.4,1.4C248.6,31.9,247.9,32.1,247.2,32.1z M247.2,30.9c0.5,0,0.9-0.1,1.3-0.3c0.4-0.2,0.7-0.6,1-1s0.4-1,0.4-1.7
			s-0.1-1.2-0.4-1.7c-0.2-0.4-0.6-0.8-1-1s-0.8-0.3-1.3-0.3s-0.9,0.1-1.3,0.3c-0.4,0.2-0.7,0.6-1,1c-0.2,0.5-0.4,1-0.4,1.7
			s0.1,1.2,0.4,1.7c0.2,0.5,0.6,0.8,1,1C246.3,30.8,246.7,30.9,247.2,30.9z"/>
		<path class="st1" d="M255.7,32.1c-0.7,0-1.2-0.1-1.7-0.3c-0.4-0.2-0.8-0.5-1-0.9s-0.3-0.8-0.3-1.2c0-0.8,0.3-1.4,0.9-1.9
			s1.5-0.7,2.5-0.7h2.1V27c0-0.7-0.2-1.2-0.5-1.6c-0.4-0.4-0.9-0.5-1.5-0.5c-0.5,0-1,0.1-1.4,0.4s-0.6,0.6-0.7,1.1h-1.4
			c0-0.6,0.2-1.1,0.6-1.5c0.3-0.4,0.8-0.7,1.3-0.9c0.5-0.2,1-0.3,1.6-0.3c1.1,0,1.9,0.3,2.5,0.9s0.8,1.4,0.8,2.4v4.9h-1.2l-0.1-1.4
			c-0.2,0.4-0.6,0.8-1,1.1C257,31.9,256.4,32.1,255.7,32.1z M255.9,30.9c0.5,0,0.9-0.1,1.3-0.4s0.6-0.6,0.8-1
			c0.2-0.4,0.3-0.9,0.3-1.3l0,0h-2c-0.8,0-1.3,0.1-1.7,0.4c-0.3,0.3-0.5,0.6-0.5,1s0.1,0.8,0.5,1C254.9,30.8,255.3,30.9,255.9,30.9z
			"/>
		<path class="st1" d="M261.7,31.9V20.4h1.3v11.5H261.7z"/>
		<path class="st1" d="M268.3,32.1c-1,0-1.7-0.2-2.4-0.7s-1-1.1-1.1-2h1.4c0.1,0.4,0.3,0.8,0.7,1.1s0.8,0.5,1.4,0.5s1-0.1,1.2-0.4
			c0.3-0.2,0.4-0.5,0.4-0.9c0-0.5-0.2-0.8-0.5-1s-0.8-0.3-1.5-0.4c-0.4-0.1-0.9-0.2-1.3-0.4c-0.4-0.2-0.8-0.4-1.1-0.7
			c-0.3-0.3-0.4-0.7-0.4-1.2c0-0.7,0.3-1.3,0.8-1.7s1.2-0.7,2.1-0.7c0.8,0,1.5,0.2,2.1,0.6c0.5,0.4,0.8,1,0.9,1.8h-1.3
			c0-0.4-0.2-0.7-0.5-0.9c-0.3-0.2-0.7-0.3-1.2-0.3s-0.8,0.1-1.1,0.3c-0.3,0.2-0.4,0.5-0.4,0.8s0.2,0.6,0.5,0.8
			c0.3,0.2,0.8,0.3,1.4,0.5c0.5,0.1,1,0.2,1.4,0.4s0.8,0.4,1.1,0.7c0.3,0.3,0.4,0.7,0.4,1.3c0,0.7-0.3,1.3-0.8,1.8
			C270,31.8,269.2,32.1,268.3,32.1z"/>
		<path class="st1" d="M157.7,54.1c-0.8,0-1.5-0.2-2.1-0.5c-0.6-0.4-1-0.9-1.4-1.5s-0.5-1.3-0.5-2.1c0-0.8,0.2-1.5,0.5-2.1
			s0.8-1.1,1.4-1.5c0.6-0.4,1.3-0.5,2.1-0.5c0.6,0,1.2,0.1,1.7,0.4s0.9,0.6,1.2,1.1v-4.9h1.3V54h-1.2l-0.1-1.3
			c-0.3,0.4-0.6,0.7-1.1,1S158.4,54.1,157.7,54.1z M157.8,52.9c0.5,0,1-0.1,1.4-0.4s0.7-0.6,1-1.1c0.2-0.4,0.3-1,0.3-1.6
			s-0.1-1.1-0.3-1.6s-0.6-0.8-1-1.1s-0.9-0.4-1.4-0.4s-1,0.1-1.4,0.4c-0.4,0.2-0.7,0.6-1,1.1c-0.2,0.4-0.3,1-0.3,1.6
			s0.1,1.1,0.3,1.6s0.6,0.8,1,1.1C156.8,52.8,157.3,52.9,157.8,52.9z"/>
		<path class="st1" d="M167.7,54.1c-0.8,0-1.4-0.2-2-0.5s-1.1-0.8-1.4-1.4c-0.3-0.6-0.5-1.4-0.5-2.2s0.2-1.6,0.5-2.2
			s0.8-1.1,1.4-1.5s1.3-0.5,2-0.5s1.4,0.2,2,0.5s1.1,0.8,1.4,1.5c0.3,0.6,0.5,1.4,0.5,2.2s-0.2,1.6-0.5,2.2s-0.8,1.1-1.4,1.4
			C169.2,53.9,168.5,54.1,167.7,54.1z M167.7,52.9c0.5,0,0.9-0.1,1.3-0.3c0.4-0.2,0.7-0.6,1-1s0.4-1,0.4-1.7s-0.1-1.2-0.4-1.7
			c-0.2-0.4-0.6-0.8-0.9-1c-0.4-0.2-0.8-0.3-1.3-0.3s-0.9,0.1-1.3,0.3c-0.4,0.2-0.7,0.6-1,1c-0.2,0.5-0.4,1-0.4,1.7s0.1,1.2,0.4,1.7
			c0.2,0.5,0.6,0.8,0.9,1C166.9,52.8,167.3,52.9,167.7,52.9z"/>
		<path class="st1" d="M174.9,53.9l-2.3-7.9h1.3l1.7,6.2l1.9-6.2h1.5l1.9,6.2l1.7-6.2h1.4l-2.3,7.9h-1.4l-1.9-6.5l-1.9,6.5H174.9z"
			/>
		<path class="st1" d="M185.4,53.9V46h1.2l0.1,1.4c0.3-0.5,0.6-0.9,1.1-1.2c0.5-0.3,1-0.4,1.6-0.4c0.9,0,1.7,0.3,2.2,0.9
			c0.6,0.6,0.8,1.4,0.8,2.6v4.6h-1.3v-4.5c0-1.6-0.7-2.5-2-2.5c-0.7,0-1.2,0.2-1.7,0.7c-0.4,0.5-0.7,1.2-0.7,2.1v4.1L185.4,53.9
			L185.4,53.9z"/>
		<path class="st1" d="M201.4,54.1c-0.7,0-1.2-0.1-1.6-0.3c-0.4-0.2-0.8-0.5-1-0.9s-0.3-0.8-0.3-1.2c0-0.8,0.3-1.4,0.9-1.9
			c0.6-0.4,1.5-0.7,2.5-0.7h2.1V49c0-0.7-0.2-1.2-0.5-1.6c-0.4-0.4-0.8-0.5-1.5-0.5c-0.5,0-1,0.1-1.4,0.4s-0.6,0.6-0.7,1.1h-1.4
			c0.1-0.6,0.2-1.1,0.6-1.5c0.3-0.4,0.8-0.7,1.3-0.9c0.5-0.2,1-0.3,1.6-0.3c1.1,0,1.9,0.3,2.5,0.9s0.8,1.4,0.8,2.4v4.9h-1.2
			l-0.1-1.4c-0.2,0.4-0.6,0.8-1,1.1C202.7,53.9,202.1,54.1,201.4,54.1z M201.6,52.9c0.5,0,0.9-0.1,1.3-0.4c0.4-0.3,0.7-0.6,0.8-1
			c0.2-0.4,0.3-0.9,0.3-1.3l0,0h-2c-0.8,0-1.4,0.1-1.7,0.4s-0.5,0.6-0.5,1s0.2,0.8,0.5,1C200.6,52.8,201,52.9,201.6,52.9z"/>
		<path class="st1" d="M207.4,53.9V46h1.2l0.1,1.4c0.3-0.5,0.6-0.9,1.1-1.2c0.5-0.3,1-0.4,1.6-0.4c0.9,0,1.7,0.3,2.2,0.9
			s0.8,1.4,0.8,2.6v4.6h-1.3v-4.5c0-1.6-0.7-2.5-2.1-2.5c-0.7,0-1.2,0.2-1.7,0.7c-0.4,0.5-0.7,1.2-0.7,2.1v4.1L207.4,53.9
			L207.4,53.9z"/>
		<path class="st1" d="M220.2,54.1c-0.8,0-1.5-0.2-2.1-0.5c-0.6-0.4-1.1-0.9-1.4-1.5s-0.5-1.3-0.5-2.1c0-0.8,0.2-1.5,0.5-2.1
			s0.8-1.1,1.4-1.5s1.3-0.5,2.1-0.5c0.6,0,1.2,0.1,1.7,0.4s0.9,0.6,1.2,1.1v-4.9h1.3V54h-1.2l-0.1-1.3c-0.3,0.4-0.6,0.7-1.1,1
			C221.5,53.9,220.9,54.1,220.2,54.1z M220.3,52.9c0.5,0,1-0.1,1.4-0.4c0.4-0.2,0.7-0.6,1-1.1c0.2-0.4,0.3-1,0.3-1.6
			s-0.1-1.1-0.3-1.6s-0.6-0.8-1-1.1c-0.4-0.2-0.9-0.4-1.4-0.4s-1,0.1-1.4,0.4s-0.7,0.6-1,1.1c-0.2,0.4-0.3,1-0.3,1.6
			s0.1,1.1,0.3,1.6s0.6,0.8,1,1.1C219.3,52.8,219.8,52.9,220.3,52.9z"/>
		<path class="st1" d="M157.1,113.4c-1,0-1.7-0.2-2.4-0.7c-0.6-0.5-1-1.1-1.1-2h1.4c0.1,0.4,0.3,0.8,0.7,1.1
			c0.4,0.3,0.8,0.5,1.4,0.5c0.6,0,1-0.1,1.2-0.4c0.3-0.2,0.4-0.5,0.4-0.9c0-0.5-0.2-0.8-0.5-1s-0.8-0.3-1.5-0.4
			c-0.4-0.1-0.9-0.2-1.3-0.4c-0.4-0.2-0.8-0.4-1.1-0.7c-0.3-0.3-0.4-0.7-0.4-1.2c0-0.7,0.3-1.3,0.8-1.7c0.5-0.4,1.2-0.7,2.1-0.7
			c0.8,0,1.5,0.2,2.1,0.6c0.5,0.4,0.8,1,0.9,1.8h-1.3c-0.1-0.4-0.2-0.7-0.5-1c-0.3-0.2-0.7-0.3-1.2-0.3s-0.8,0.1-1.1,0.3
			c-0.3,0.2-0.4,0.5-0.4,0.8s0.2,0.6,0.5,0.8c0.3,0.2,0.8,0.3,1.4,0.5c0.5,0.1,1,0.2,1.4,0.4s0.8,0.4,1.1,0.7
			c0.3,0.3,0.4,0.7,0.4,1.3c0,0.7-0.3,1.3-0.8,1.8C158.8,113.2,158.1,113.4,157.1,113.4z"/>
		<path class="st1" d="M165.7,113.4c-0.8,0-1.4-0.2-2-0.5s-1.1-0.8-1.4-1.4c-0.3-0.6-0.5-1.4-0.5-2.2s0.2-1.6,0.5-2.2
			s0.8-1.1,1.4-1.4c0.6-0.3,1.3-0.5,2-0.5s1.4,0.2,2,0.5s1.1,0.8,1.4,1.4c0.3,0.6,0.5,1.4,0.5,2.2s-0.2,1.6-0.5,2.2
			s-0.8,1.1-1.4,1.4S166.4,113.4,165.7,113.4z M165.7,112.3c0.5,0,0.9-0.1,1.3-0.3c0.4-0.2,0.7-0.6,1-1c0.2-0.4,0.4-1,0.4-1.7
			s-0.1-1.2-0.4-1.7c-0.2-0.4-0.6-0.8-0.9-1c-0.4-0.2-0.8-0.3-1.3-0.3s-0.9,0.1-1.3,0.3c-0.4,0.2-0.7,0.6-1,1
			c-0.2,0.5-0.4,1-0.4,1.7s0.1,1.2,0.4,1.7c0.2,0.5,0.6,0.8,0.9,1C164.8,112.2,165.3,112.3,165.7,112.3z"/>
		<path class="st1" d="M176.7,116.7l2-4.3h-0.5l-3.2-7.1h1.5l2.6,6.2l2.8-6.2h1.4l-5.2,11.5h-1.4V116.7z"/>
		<path class="st1" d="M187.6,113.4c-0.8,0-1.4-0.2-2-0.5s-1.1-0.8-1.4-1.4c-0.3-0.6-0.5-1.4-0.5-2.2s0.2-1.6,0.5-2.2
			s0.8-1.1,1.4-1.4c0.6-0.3,1.3-0.5,2-0.5s1.4,0.2,2,0.5s1.1,0.8,1.4,1.4c0.3,0.6,0.5,1.4,0.5,2.2s-0.2,1.6-0.5,2.2
			s-0.8,1.1-1.4,1.4C189,113.3,188.3,113.4,187.6,113.4z M187.6,112.3c0.5,0,0.9-0.1,1.3-0.3c0.4-0.2,0.7-0.6,1-1
			c0.2-0.4,0.4-1,0.4-1.7s-0.1-1.2-0.4-1.7c-0.2-0.4-0.6-0.8-0.9-1c-0.4-0.2-0.8-0.3-1.3-0.3s-0.9,0.1-1.3,0.3c-0.4,0.2-0.7,0.6-1,1
			c-0.2,0.5-0.4,1-0.4,1.7s0.1,1.2,0.4,1.7c0.2,0.5,0.6,0.8,0.9,1C186.7,112.2,187.1,112.3,187.6,112.3z"/>
		<path class="st1" d="M196.3,113.4c-0.9,0-1.7-0.3-2.2-0.9c-0.6-0.6-0.8-1.4-0.8-2.6v-4.6h1.3v4.5c0,1.6,0.7,2.5,2,2.5
			c0.7,0,1.3-0.2,1.7-0.7s0.7-1.2,0.7-2.1v-4.2h1.3v7.9h-1.2l-0.1-1.4c-0.2,0.5-0.6,0.9-1.1,1.2
			C197.4,113.3,196.9,113.4,196.3,113.4z"/>
		<path class="st1" d="M210.4,113.4c-0.8,0-1.4-0.2-2-0.5s-1.1-0.8-1.4-1.5c-0.4-0.6-0.5-1.4-0.5-2.2s0.2-1.6,0.5-2.2
			s0.8-1.1,1.4-1.5c0.6-0.3,1.3-0.5,2-0.5c0.9,0,1.7,0.2,2.4,0.7c0.6,0.5,1.1,1.2,1.2,2h-1.4c-0.1-0.5-0.4-0.9-0.8-1.1
			c-0.4-0.3-0.9-0.4-1.5-0.4c-0.4,0-0.9,0.1-1.3,0.3s-0.7,0.6-1,1c-0.2,0.4-0.4,1-0.4,1.7s0.1,1.2,0.4,1.7c0.2,0.4,0.6,0.8,1,1
			s0.8,0.3,1.3,0.3c0.6,0,1-0.1,1.5-0.4s0.7-0.7,0.8-1.2h1.4c-0.2,0.8-0.6,1.5-1.2,2C212.2,113.2,211.4,113.4,210.4,113.4z"/>
		<path class="st1" d="M218.6,113.4c-0.7,0-1.2-0.1-1.7-0.3c-0.4-0.2-0.8-0.5-1-0.9s-0.3-0.8-0.3-1.2c0-0.8,0.3-1.4,0.9-1.9
			c0.6-0.4,1.5-0.7,2.5-0.7h2.1v-0.1c0-0.7-0.2-1.2-0.5-1.6c-0.4-0.4-0.8-0.5-1.5-0.5c-0.5,0-1,0.1-1.4,0.4s-0.6,0.6-0.7,1.1h-1.4
			c0.1-0.6,0.2-1.1,0.6-1.5c0.3-0.4,0.8-0.7,1.3-0.9c0.5-0.2,1-0.3,1.6-0.3c1.1,0,1.9,0.3,2.5,0.9s0.8,1.4,0.8,2.4v4.9h-1.2
			l-0.1-1.4c-0.2,0.5-0.6,0.8-1,1.1C219.9,113.3,219.3,113.4,218.6,113.4z M218.8,112.3c0.5,0,0.9-0.1,1.3-0.4
			c0.4-0.3,0.7-0.6,0.8-1c0.2-0.4,0.3-0.9,0.3-1.3l0,0h-2c-0.8,0-1.4,0.1-1.7,0.4s-0.5,0.6-0.5,1s0.1,0.8,0.5,1
			C217.8,112.2,218.2,112.3,218.8,112.3z"/>
		<path class="st1" d="M224.6,113.2v-7.9h1.2l0.1,1.4c0.3-0.5,0.6-0.9,1.1-1.2c0.5-0.3,1-0.4,1.6-0.4c0.9,0,1.7,0.3,2.2,0.9
			c0.6,0.6,0.8,1.4,0.8,2.6v4.6h-1.3v-4.5c0-1.6-0.7-2.5-2.1-2.5c-0.7,0-1.2,0.2-1.7,0.7c-0.4,0.5-0.7,1.2-0.7,2.1v4.1L224.6,113.2
			L224.6,113.2z"/>
		<path class="st1" d="M241,113.4c-1,0-1.7-0.2-2.4-0.7c-0.6-0.5-1-1.1-1.1-2h1.4c0.1,0.4,0.3,0.8,0.7,1.1c0.4,0.3,0.8,0.5,1.5,0.5
			c0.6,0,1-0.1,1.2-0.4c0.3-0.2,0.4-0.5,0.4-0.9c0-0.5-0.2-0.8-0.5-1s-0.8-0.3-1.5-0.4c-0.4-0.1-0.9-0.2-1.3-0.4
			c-0.4-0.2-0.8-0.4-1.1-0.7c-0.3-0.3-0.4-0.7-0.4-1.2c0-0.7,0.3-1.3,0.8-1.7s1.2-0.7,2.1-0.7c0.8,0,1.5,0.2,2.1,0.6
			c0.5,0.4,0.9,1,0.9,1.8h-1.3c-0.1-0.4-0.2-0.7-0.5-1c-0.3-0.2-0.7-0.3-1.2-0.3s-0.9,0.1-1.1,0.3c-0.3,0.2-0.4,0.5-0.4,0.8
			s0.2,0.6,0.5,0.8c0.3,0.2,0.8,0.3,1.4,0.5c0.5,0.1,1,0.2,1.4,0.4s0.8,0.4,1.1,0.7c0.3,0.3,0.4,0.7,0.4,1.3c0,0.7-0.3,1.3-0.8,1.8
			C242.7,113.2,241.9,113.4,241,113.4z"/>
		<path class="st1" d="M249.5,113.4c-0.8,0-1.4-0.2-2-0.5s-1-0.8-1.4-1.4c-0.3-0.6-0.5-1.4-0.5-2.2c0-0.8,0.2-1.6,0.5-2.2
			s0.8-1.1,1.4-1.5c0.6-0.3,1.3-0.5,2.1-0.5s1.4,0.2,2,0.5c0.6,0.4,1,0.8,1.3,1.4s0.5,1.2,0.5,1.8c0,0.1,0,0.2,0,0.4
			c0,0.1,0,0.2,0,0.4H247c0,0.6,0.2,1.1,0.4,1.5s0.6,0.7,0.9,0.9c0.4,0.2,0.8,0.3,1.2,0.3c0.5,0,1-0.1,1.4-0.4s0.6-0.6,0.8-1h1.3
			c-0.2,0.7-0.6,1.4-1.2,1.8C251.2,113.2,250.5,113.4,249.5,113.4z M249.5,106.2c-0.6,0-1.2,0.2-1.7,0.6s-0.8,1-0.9,1.7h5
			c0-0.7-0.3-1.3-0.7-1.7C250.8,106.4,250.2,106.2,249.5,106.2z"/>
		<path class="st1" d="M258.6,113.4c-0.8,0-1.4-0.2-2-0.5s-1.1-0.8-1.4-1.4c-0.3-0.6-0.5-1.4-0.5-2.2c0-0.8,0.2-1.6,0.5-2.2
			s0.8-1.1,1.4-1.5c0.6-0.3,1.3-0.5,2.1-0.5c0.8,0,1.4,0.2,2,0.5c0.6,0.4,1,0.8,1.3,1.4s0.5,1.2,0.5,1.8c0,0.1,0,0.2,0,0.4
			s0,0.2,0,0.4h-6.3c0,0.6,0.2,1.1,0.4,1.5s0.6,0.7,0.9,0.9c0.4,0.2,0.8,0.3,1.2,0.3c0.6,0,1-0.1,1.4-0.4s0.6-0.6,0.8-1h1.3
			c-0.2,0.7-0.6,1.4-1.2,1.8C260.4,113.2,259.6,113.4,258.6,113.4z M258.6,106.2c-0.6,0-1.2,0.2-1.7,0.6s-0.8,1-0.9,1.7h5
			c0-0.7-0.3-1.3-0.7-1.7C259.9,106.4,259.3,106.2,258.6,106.2z"/>
		<path class="st1" d="M269.3,116.7l2-4.3h-0.5l-3.1-7.2h1.5l2.6,6.2l2.8-6.2h1.4l-5.2,11.5H269.3z"/>
		<path class="st1" d="M280.2,113.4c-0.8,0-1.4-0.2-2-0.5s-1.1-0.8-1.4-1.4s-0.5-1.4-0.5-2.2s0.2-1.6,0.5-2.2
			c0.4-0.6,0.8-1.1,1.4-1.4s1.3-0.5,2-0.5s1.4,0.2,2,0.5s1.1,0.8,1.4,1.4s0.5,1.4,0.5,2.2s-0.2,1.6-0.5,2.2
			c-0.4,0.6-0.8,1.1-1.4,1.4C281.6,113.3,280.9,113.4,280.2,113.4z M280.2,112.3c0.5,0,0.9-0.1,1.3-0.3c0.4-0.2,0.7-0.6,1-1
			c0.2-0.4,0.4-1,0.4-1.7s-0.1-1.2-0.4-1.7c-0.2-0.4-0.6-0.8-0.9-1c-0.4-0.2-0.8-0.3-1.3-0.3s-0.9,0.1-1.3,0.3c-0.4,0.2-0.7,0.6-1,1
			c-0.2,0.5-0.4,1-0.4,1.7s0.1,1.2,0.4,1.7c0.2,0.5,0.6,0.8,0.9,1C279.3,112.2,279.7,112.3,280.2,112.3z"/>
		<path class="st1" d="M288.9,113.4c-0.9,0-1.7-0.3-2.2-0.9s-0.8-1.4-0.8-2.6v-4.6h1.3v4.5c0,1.6,0.7,2.5,2,2.5
			c0.7,0,1.3-0.2,1.7-0.7c0.4-0.5,0.7-1.2,0.7-2.1v-4.2h1.3v7.9h-1.2l-0.1-1.4c-0.2,0.5-0.6,0.9-1.1,1.2
			C290.1,113.3,289.5,113.4,288.9,113.4z"/>
		<path class="st1" d="M295.2,113.2v-7.9h1.2l0.1,1.5c0.2-0.5,0.6-0.9,1.1-1.2s1.1-0.5,1.9-0.5v1.4h-0.4c-0.5,0-0.9,0.1-1.3,0.2
			c-0.4,0.2-0.7,0.5-0.9,0.8c-0.2,0.4-0.4,0.9-0.4,1.6v4L295.2,113.2L295.2,113.2z"/>
		<path class="st1" d="M154.1,138.7v-11.4h1.2l0.1,1.3c0.3-0.4,0.6-0.7,1.1-1s1.1-0.5,1.8-0.5c0.8,0,1.5,0.2,2.1,0.5
			c0.6,0.4,1,0.9,1.4,1.5c0.3,0.6,0.5,1.3,0.5,2.1c0,0.8-0.2,1.5-0.5,2.1s-0.8,1.1-1.4,1.5c-0.6,0.4-1.3,0.5-2.1,0.5
			c-0.6,0-1.2-0.1-1.7-0.4s-0.9-0.6-1.2-1.1v4.9H154.1L154.1,138.7z M158.2,134.3c0.5,0,1-0.1,1.4-0.4s0.7-0.6,1-1
			c0.2-0.5,0.3-1,0.3-1.6s-0.1-1.1-0.3-1.6s-0.6-0.8-1-1s-0.9-0.4-1.4-0.4s-1,0.1-1.4,0.4c-0.4,0.2-0.7,0.6-1,1s-0.3,1-0.3,1.6
			s0.1,1.1,0.3,1.6c0.2,0.4,0.6,0.8,1,1C157.2,134.1,157.6,134.3,158.2,134.3z"/>
		<path class="st1" d="M164.1,135.2v-7.9h1.2l0.1,1.5c0.2-0.5,0.6-0.9,1.1-1.2s1.1-0.5,1.9-0.5v1.4H168c-0.5,0-0.9,0.1-1.3,0.2
			c-0.4,0.2-0.7,0.5-0.9,0.8c-0.2,0.4-0.3,0.9-0.3,1.6v4L164.1,135.2L164.1,135.2z"/>
		<path class="st1" d="M173.2,135.4c-0.8,0-1.4-0.2-2-0.5s-1.1-0.8-1.4-1.5c-0.3-0.6-0.5-1.4-0.5-2.2c0-0.8,0.2-1.6,0.5-2.2
			s0.8-1.1,1.4-1.5c0.6-0.3,1.3-0.5,2-0.5s1.4,0.2,2,0.5s1.1,0.8,1.4,1.5c0.3,0.6,0.5,1.4,0.5,2.2c0,0.8-0.2,1.6-0.5,2.2
			s-0.8,1.1-1.4,1.5C174.7,135.3,174,135.4,173.2,135.4z M173.2,134.3c0.5,0,0.9-0.1,1.3-0.3c0.4-0.2,0.7-0.6,1-1s0.4-1,0.4-1.7
			s-0.1-1.2-0.4-1.7c-0.2-0.5-0.6-0.8-0.9-1c-0.4-0.2-0.8-0.3-1.3-0.3s-0.9,0.1-1.3,0.3c-0.4,0.2-0.7,0.6-1,1s-0.4,1-0.4,1.7
			s0.1,1.2,0.4,1.7c0.2,0.5,0.6,0.8,0.9,1S172.8,134.3,173.2,134.3z"/>
		<path class="st1" d="M181.9,132.7c-0.4,0-0.9-0.1-1.2-0.2l-0.8,0.8c0.1,0.1,0.3,0.2,0.4,0.2c0.2,0.1,0.4,0.1,0.8,0.2
			s0.8,0.1,1.4,0.1c1.1,0.1,1.8,0.3,2.3,0.7c0.5,0.4,0.7,1,0.7,1.6c0,0.5-0.1,0.9-0.4,1.3c-0.2,0.4-0.6,0.8-1.2,1
			c-0.5,0.3-1.2,0.4-2,0.4c-0.7,0-1.3-0.1-1.9-0.3s-1-0.5-1.3-0.8s-0.5-0.9-0.5-1.4c0-0.3,0.1-0.6,0.2-1c0.2-0.3,0.5-0.7,0.9-1
			c-0.2-0.1-0.4-0.2-0.6-0.3s-0.3-0.2-0.5-0.4v-0.4l1.4-1.3c-0.6-0.5-0.9-1.2-0.9-2.1c0-0.5,0.1-1,0.4-1.4c0.2-0.4,0.6-0.8,1.1-1
			s1-0.4,1.7-0.4c0.5,0,0.9,0.1,1.2,0.2h2.9v1l-1.5,0.1c0.3,0.5,0.5,1,0.5,1.5s-0.1,1-0.4,1.4c-0.2,0.4-0.6,0.8-1.1,1
			C183.1,132.6,182.6,132.7,181.9,132.7z M179.6,136.3c0,0.5,0.2,0.9,0.7,1.2c0.4,0.3,1,0.4,1.7,0.4s1.2-0.1,1.6-0.4
			c0.4-0.3,0.6-0.7,0.6-1.1c0-0.3-0.1-0.6-0.4-0.9s-0.8-0.4-1.5-0.4c-0.6,0-1.1-0.1-1.5-0.2c-0.4,0.2-0.7,0.5-0.9,0.8
			C179.6,135.8,179.6,136,179.6,136.3z M181.9,131.6c0.6,0,1-0.2,1.3-0.4c0.3-0.3,0.5-0.7,0.5-1.3c0-0.5-0.2-1-0.5-1.3
			s-0.8-0.4-1.3-0.4c-0.6,0-1,0.2-1.4,0.4c-0.3,0.3-0.5,0.7-0.5,1.3s0.2,1,0.5,1.3C180.9,131.5,181.3,131.6,181.9,131.6z"/>
		<path class="st1" d="M187.6,135.2v-7.9h1.2l0.1,1.5c0.2-0.5,0.6-0.9,1.1-1.2s1.1-0.5,1.9-0.5v1.4h-0.4c-0.5,0-0.9,0.1-1.3,0.2
			c-0.4,0.2-0.7,0.5-0.9,0.8s-0.3,0.9-0.3,1.6v4L187.6,135.2L187.6,135.2z"/>
		<path class="st1" d="M196.7,135.4c-0.8,0-1.4-0.2-2-0.5s-1.1-0.8-1.4-1.5c-0.3-0.6-0.5-1.3-0.5-2.2c0-0.8,0.2-1.6,0.5-2.2
			s0.8-1.1,1.4-1.5c0.6-0.4,1.3-0.5,2.1-0.5s1.4,0.2,2,0.5s1,0.8,1.3,1.4s0.4,1.2,0.4,1.8c0,0.1,0,0.2,0,0.3c0,0.1,0,0.2,0,0.4h-6.3
			c0,0.6,0.2,1.1,0.4,1.5s0.6,0.7,0.9,0.9s0.8,0.3,1.2,0.3c0.6,0,1-0.1,1.4-0.4s0.6-0.6,0.8-1h1.3c-0.2,0.7-0.6,1.3-1.2,1.8
			C198.4,135.2,197.6,135.4,196.7,135.4z M196.7,128.2c-0.6,0-1.2,0.2-1.7,0.6s-0.8,1-0.9,1.7h5c0-0.7-0.3-1.3-0.7-1.7
			C197.9,128.4,197.3,128.2,196.7,128.2z"/>
		<path class="st1" d="M205.2,135.4c-0.9,0-1.7-0.2-2.4-0.7c-0.6-0.5-1-1.1-1.1-1.9h1.4c0.1,0.4,0.3,0.8,0.7,1.1
			c0.3,0.3,0.8,0.5,1.4,0.5c0.6,0,1-0.1,1.2-0.4c0.3-0.2,0.4-0.5,0.4-0.9c0-0.5-0.2-0.8-0.5-1s-0.8-0.3-1.5-0.4
			c-0.4-0.1-0.9-0.2-1.3-0.4c-0.4-0.2-0.8-0.4-1.1-0.7c-0.3-0.3-0.4-0.7-0.4-1.2c0-0.7,0.3-1.3,0.8-1.7s1.2-0.7,2.1-0.7
			c0.8,0,1.5,0.2,2.1,0.6s0.9,1,0.9,1.8h-1.3c-0.1-0.4-0.2-0.7-0.5-1c-0.3-0.2-0.7-0.3-1.2-0.3s-0.9,0.1-1.1,0.3
			c-0.3,0.2-0.4,0.5-0.4,0.8s0.2,0.6,0.5,0.8c0.3,0.2,0.8,0.3,1.4,0.5c0.5,0.1,1,0.2,1.4,0.4c0.4,0.2,0.8,0.4,1.1,0.7
			c0.3,0.3,0.4,0.7,0.4,1.3c0,0.7-0.3,1.3-0.8,1.8C206.9,135.2,206.2,135.4,205.2,135.4z"/>
		<path class="st1" d="M213.2,135.4c-0.9,0-1.7-0.2-2.4-0.7c-0.6-0.5-1-1.1-1.1-1.9h1.4c0.1,0.4,0.3,0.8,0.7,1.1
			c0.3,0.3,0.8,0.5,1.4,0.5c0.6,0,1-0.1,1.2-0.4c0.3-0.2,0.4-0.5,0.4-0.9c0-0.5-0.2-0.8-0.5-1s-0.8-0.3-1.5-0.4
			c-0.4-0.1-0.9-0.2-1.3-0.4c-0.4-0.2-0.8-0.4-1.1-0.7c-0.3-0.3-0.4-0.7-0.4-1.2c0-0.7,0.3-1.3,0.8-1.7s1.2-0.7,2.1-0.7
			c0.8,0,1.5,0.2,2.1,0.6s0.9,1,0.9,1.8h-1.3c-0.1-0.4-0.2-0.7-0.5-1c-0.3-0.2-0.7-0.3-1.2-0.3s-0.9,0.1-1.1,0.3
			c-0.3,0.2-0.4,0.5-0.4,0.8s0.2,0.6,0.5,0.8c0.3,0.2,0.8,0.3,1.4,0.5c0.5,0.1,1,0.2,1.4,0.4c0.4,0.2,0.8,0.4,1.1,0.7
			c0.3,0.3,0.4,0.7,0.4,1.3c0,0.7-0.3,1.3-0.8,1.8C214.9,135.2,214.2,135.4,213.2,135.4z"/>
		<path class="st1" d="M218.7,135.3c-0.3,0-0.5-0.1-0.7-0.3c-0.2-0.2-0.3-0.4-0.3-0.7c0-0.3,0.1-0.5,0.3-0.6
			c0.2-0.2,0.4-0.3,0.7-0.3s0.5,0.1,0.7,0.3c0.2,0.2,0.3,0.4,0.3,0.6c0,0.3-0.1,0.5-0.3,0.7C219.1,135.2,218.9,135.3,218.7,135.3z"
			/>
		<path class="st2" d="M161.8,68.1c0.4-0.3,0.8-0.5,1.1-0.5c0.2,0,0.6,0.1,1.1,0.4c0.6,0.3,0.9,0.6,0.9,0.9c0,0.4-0.6,1.7-1.8,3.9
			c-0.3,0.5-0.6,1.1-0.9,1.7c-0.3,0.6-0.6,1-0.8,1.3s-0.4,0.6-0.6,1c-0.2,0.3-0.3,0.6-0.4,0.7c-0.1,0.2-0.2,0.3-0.2,0.5
			c-0.1,0.1-0.1,0.3-0.1,0.4s-0.1,0.2-0.1,0.2c0,0.4,0.3,1,0.8,1.7c0.6,0.9,0.9,1.5,0.9,1.6s0.2,0.4,0.5,0.9c0.3,0.4,0.7,1,1.1,2.1
			c0.2,0.7,0.6,1.4,1.1,2.1c1.4,2,2.1,3.5,2.1,4.4s-0.6,1.3-1.9,1.3h-0.1c-0.8,0-1.3-0.1-1.6-0.4c-0.3-0.2-0.6-0.8-0.9-1.7
			c-0.2-0.6-0.6-1.3-1-2s-0.7-1.4-0.9-1.9c-0.3-0.7-0.7-1.6-1.2-2.5c-0.6-0.9-0.9-1.4-1.1-1.4c-0.1,0-0.2,0.3-0.2,1
			c0,1.1,0.1,2.9,0.4,5.4c0.1,0.8,0.1,1.4,0.1,1.8c0,0.5-0.1,0.9-0.3,1c-0.2,0.2-0.7,0.3-1.4,0.4c-0.4,0.1-0.7,0.1-0.7,0.1
			c-0.3,0-0.6-0.2-1-0.6s-0.6-1-0.6-1.7c0-0.1,0-0.3,0-0.6c0-0.3,0-0.6,0-0.8c0.1-1.2,0.1-2.7,0.1-4.5c0-2.6,0-5.2-0.1-7.9l-0.1-7.5
			l0.6-0.3c0.2-0.1,0.3-0.1,0.5-0.1s0.6,0.1,1.1,0.4l1,0.5l0.1,3c0.1,2,0.1,3,0.3,3s0.7-0.7,1.5-2.1s1.4-2.5,1.7-3.2
			C161,69.2,161.3,68.6,161.8,68.1z"/>
		<path class="st2" d="M173,69.2c0.4-0.1,0.9-0.1,1.5-0.1c1.7,0,2.7,0.2,3.1,0.5c0.3,0.3,0.5,0.6,0.5,1s-0.2,0.7-0.5,1
			s-0.7,0.4-1.2,0.4s-0.8,0.1-0.9,0.3c-0.1,0.2-0.2,0.8-0.2,1.6c0,0.2,0,1,0.1,2.3c0.1,1.5,0.1,2.5,0.2,2.9s0.2,0.7,0.3,0.7
			c0,0,0.2,0,0.6,0c0.4,0,0.7,0,0.9,0c0.7,0,1.3,0.2,1.6,0.5c0.2,0.2,0.3,0.4,0.3,0.6c0,0.5-0.7,0.9-2,1.4c-0.8,0.3-1.2,0.5-1.4,0.6
			c-0.1,0.1-0.3,0.5-0.3,1c-0.1,0.5-0.1,0.9-0.1,1.3c0,1.5,0.1,2.7,0.4,3.4c0.1,0.3,0.3,0.5,0.4,0.6c0.1,0.1,0.5,0.1,1,0.1
			c0.6,0,1.2,0.1,1.7,0.4s0.7,0.6,0.7,1c0,0.3-0.2,0.6-0.7,1.1c-0.7,0.7-1.9,1-3.7,1s-2.9-0.4-3.5-1.1c-0.3-0.4-0.5-3-0.6-7.8
			c-0.1-6-0.1-9.5-0.2-10.6l-0.1-3.4l0.6-0.4C172.2,69.5,172.6,69.3,173,69.2z"/>
		<path class="st2" d="M186.5,69.2c0.4-0.1,0.9-0.1,1.5-0.1c1.7,0,2.7,0.2,3.2,0.5c0.3,0.3,0.5,0.6,0.5,1s-0.1,0.7-0.5,1
			c-0.3,0.3-0.7,0.4-1.2,0.4s-0.8,0.1-0.9,0.3c-0.1,0.2-0.2,0.8-0.2,1.6c0,0.2,0,1,0.1,2.3c0.1,1.5,0.1,2.5,0.2,2.9s0.2,0.7,0.3,0.7
			c0,0,0.2,0,0.6,0c0.4,0,0.7,0,0.9,0c0.7,0,1.3,0.2,1.6,0.5c0.2,0.2,0.3,0.4,0.3,0.6c0,0.5-0.7,0.9-2,1.4c-0.8,0.3-1.2,0.5-1.4,0.6
			c-0.1,0.1-0.3,0.5-0.3,1c-0.1,0.5-0.1,0.9-0.1,1.3c0,1.5,0.1,2.7,0.4,3.4c0.1,0.3,0.3,0.5,0.4,0.6c0.1,0.1,0.5,0.1,1,0.1
			c0.6,0,1.2,0.1,1.6,0.4c0.5,0.3,0.7,0.6,0.7,1c0,0.3-0.2,0.6-0.7,1.1c-0.7,0.7-1.9,1-3.7,1s-2.9-0.4-3.5-1.1
			c-0.3-0.4-0.5-3-0.5-7.8c-0.1-6-0.1-9.5-0.2-10.6l-0.1-3.4l0.6-0.4C185.6,69.5,186.1,69.3,186.5,69.2z"/>
		<path class="st2" d="M198.9,67.2c0.3-0.2,1.1-0.2,2.2-0.2c1.5,0,2.4,0.1,2.7,0.3c0.5,0.3,1,0.7,1.6,1.3s1,1.1,1.2,1.6
			c0.4,0.7,0.6,2.3,0.7,4.9c0.1,1.5,0.1,2.4,0.1,2.6c0,1-0.1,1.9-0.4,2.7c-0.3,1-0.7,1.7-1.1,2.2c-0.4,0.5-1.1,0.9-1.8,1.1l-1.3,0.5
			l-0.1,3.8c0,2.2-0.1,3.6-0.2,4.1c-0.2,0.5-0.6,0.7-1.4,0.7c-0.6,0-1.2-0.2-1.6-0.5l-0.7-0.6v-3.3v-0.8c0-2.6-0.1-5.9-0.2-9.8
			c-0.2-3.9-0.3-6.3-0.5-7.3c-0.1-0.7-0.1-1.2-0.1-1.6C198,68.1,198.3,67.5,198.9,67.2z M203,71.6c-0.3-0.7-0.6-1.1-0.7-1.1
			c-0.1,0-0.1,0-0.2,0.1c0,1-0.1,2.2-0.1,3.5c0,4.3,0.2,6.5,0.6,6.5c0.1,0,0.3-0.3,0.6-0.9c0.2-0.6,0.4-1.2,0.4-2
			c0-0.2,0-0.9-0.1-2.1C203.4,73.4,203.3,72.1,203,71.6z"/>
		<path class="st2" d="M224.5,66.6c0.4-0.4,1.1-0.6,2.1-0.6h1.1c1.6,0.1,2.6,0.1,3,0.2c0.2,0.1,0.6,0.1,1.3,0.2
			c0.7,0,1.2,0.2,1.5,0.4c0.3,0.2,0.5,0.6,0.5,1.2s-0.2,1-0.4,1.2s-0.6,0.4-1.1,0.5c-0.6,0.1-1,0.2-1.1,0.3
			c-0.2,0.1-0.2,3.1-0.2,8.7c0,3.9,0.1,6.7,0.1,8.3c0.1,1.3,0.1,2,0.1,2.1c0,0.6-0.1,1.2-0.4,1.6c-0.3,0.6-0.9,0.9-1.6,0.9
			c-0.5,0-0.9-0.1-1.4-0.4l-0.9-0.5l0.1-10.4c0.1-2.7,0.1-5.4,0.1-8.1c0-1.6-0.1-2.5-0.4-2.6c-0.4-0.2-0.6-0.3-0.7-0.2
			c-0.1,0-0.3,0-0.5,0c-0.6,0-1-0.2-1.4-0.5s-0.6-0.7-0.6-1.1C223.8,67.5,224,67,224.5,66.6z"/>
		<path class="st2" d="M240.1,66.7c0.5-0.2,1.2-0.3,2.1-0.3c0.9,0,1.6,0.1,2,0.3c0.8,0.3,1.4,0.9,1.8,1.8c0.2,0.4,0.4,1.2,0.5,2.4
			c0.2,1.2,0.2,2.2,0.2,3.1c0,0.4,0,0.7-0.1,0.9c-0.1,0.8-0.3,1.6-0.6,2.6s-0.6,1.4-0.7,1.4c-0.2,0-0.4,0.2-0.4,0.6
			c0,0.3,0.1,0.6,0.3,1c0.5,0.7,1.2,2,2.1,3.9c0.9,1.9,1.4,3.1,1.5,3.6c0,0.1,0,0.4,0,0.6c0,0.4-0.1,0.8-0.3,1
			c-0.2,0.4-0.5,0.6-0.9,0.6c-0.3,0-0.6,0-0.8-0.1c-0.8-0.1-1.2-0.2-1.4-0.3c-0.2-0.1-0.3-0.4-0.3-0.7c0-0.6-0.3-1.5-0.9-2.8
			c-0.6-1.2-1.1-1.9-1.4-1.9h-0.1c-0.1,0.1-0.1,0.4-0.1,1c0,0.9,0.1,1.9,0.3,3c0.1,0.5,0.1,0.8,0.1,1c0,1-0.2,1.7-0.7,1.9
			c-0.2,0.1-0.4,0.1-0.8,0.1c-1,0-1.6-0.2-1.8-0.7c-0.1-0.2-0.3-2.3-0.4-6.2c0-1.2-0.1-2.6-0.1-4s-0.1-2.5-0.1-3.1
			c0-0.7,0-1.5-0.1-2.6c-0.1-1-0.2-2.2-0.3-3.5c-0.1-1.5-0.2-2.3-0.2-2.6c0-0.7,0.1-1.2,0.3-1.5C239.2,67.1,239.5,66.9,240.1,66.7z
			 M243,70.1c-0.1-0.2-0.3-0.4-0.5-0.4s-0.3,0.1-0.5,0.3c-0.1,0.2-0.1,0.4,0,0.5c0,0,0.1,1,0.2,3c0.1,1.9,0.2,2.9,0.3,3
			s0.2-0.1,0.5-0.4c0.2-0.3,0.3-0.8,0.3-1.5c0-0.6,0-1.1,0-1.5C243.2,71.4,243.1,70.4,243,70.1z"/>
		<path class="st2" d="M257.3,70.8c0.8-0.8,2-1.2,3.6-1.2c0.7,0,1.3,0.1,1.7,0.4c0.6,0.3,1.1,1.2,1.4,2.6c0.2,1.2,0.5,3.1,0.8,5.9
			s0.5,4.9,0.5,6.4c0,1.4,0.1,3,0.3,4.8c0.2,1.8,0.3,2.8,0.4,2.9c0,0,0,0.1,0,0.2c0,0.3-0.1,0.6-0.4,1c-0.2,0.4-0.5,0.6-0.7,0.7
			c-0.1,0-0.2,0-0.4,0c-0.5,0-1-0.1-1.5-0.3c-0.6-0.2-0.9-0.4-1-0.7c-0.1-0.2-0.3-1.1-0.4-2.5c-0.2-1.4-0.2-2.6-0.2-3.5
			c0-0.8-0.1-1.3-0.3-1.4c-0.2-0.1-0.8-0.1-2.1-0.1c-1,0-1.6,0.1-1.6,0.1c0,0.1-0.1,0.3-0.1,0.5c0,0.6,0.1,1.5,0.1,2.5
			c0.1,1.2,0.1,2.2,0.1,2.9v0.4c0,0.2-0.2,0.4-0.7,0.6c-0.4,0.2-0.8,0.2-1.2,0.2c-0.2,0-0.3,0-0.4,0c-1-0.3-1.6-0.7-1.7-1.3
			c0,0,0-0.1,0-0.2s0-0.2,0-0.3c0-1.3,0.1-4,0.5-8.2c0.3-4.2,0.5-6.6,0.7-7.3c0.2-0.8,0.5-1.8,1.1-2.9
			C256.4,72,256.9,71.2,257.3,70.8z M260.4,75.5c-0.2-0.9-0.4-1.3-0.6-1.3s-0.5,0.3-0.7,1c-0.6,1.2-1,2.9-1.1,5
			c-0.1,0.9-0.1,1.4-0.1,1.5c0,0.4,0.1,0.7,0.2,0.8c0.2,0.1,0.6,0.2,1.2,0.2c0.9,0,1.4-0.1,1.5-0.3c0.1-0.1,0.1-0.5,0.1-1.2
			C260.9,79.1,260.8,77.2,260.4,75.5z"/>
		<path class="st2" d="M273.9,70c0.6-0.6,1-0.9,1.2-1.1s0.6-0.2,1.1-0.2c1.4,0,2.1,0.5,2.1,1.4c0,0.8-0.6,1.6-1.8,2.2
			c-0.8,0.4-1.4,2-1.8,4.6c-0.2,1.2-0.3,2.4-0.3,3.7s0.1,2.6,0.2,4c0.2,1.7,0.4,2.9,0.7,3.6c0.3,0.7,0.9,1.1,1.5,1.2
			c1.2,0.2,1.9,0.6,2.1,1.1c0,0.1,0.1,0.1,0.1,0.2c0,0.3-0.2,0.6-0.5,0.9c-0.4,0.3-0.8,0.5-1.2,0.6c-0.1,0-0.3,0-0.5,0
			c-1.1,0-2.2-0.3-3.1-0.8c-0.3-0.2-0.7-0.8-1.2-1.6c-0.5-0.9-0.8-1.8-1.1-2.6c-0.3-1.2-0.5-3.4-0.5-6.6c0-1.2,0.1-2.4,0.2-3.5
			c0.2-1.9,0.6-3.3,1-4.3C272.4,71.9,273,70.9,273.9,70z"/>
		<path class="st2" d="M291.3,68.1c0.4-0.3,0.8-0.5,1-0.5s0.6,0.1,1.1,0.4c0.6,0.3,0.9,0.6,0.9,0.9c0,0.4-0.6,1.7-1.8,3.9
			c-0.3,0.5-0.6,1.1-0.9,1.7s-0.6,1-0.8,1.3s-0.4,0.6-0.6,1c-0.2,0.3-0.3,0.6-0.4,0.7c-0.1,0.2-0.2,0.3-0.2,0.5
			c-0.1,0.1-0.1,0.3-0.1,0.4s0,0.2,0,0.2c0,0.4,0.3,1,0.8,1.7c0.6,0.9,0.9,1.5,0.9,1.6s0.2,0.4,0.5,0.9c0.3,0.4,0.7,1,1,2.1
			c0.2,0.7,0.6,1.4,1.1,2.1c1.4,2,2.1,3.5,2.1,4.4s-0.6,1.3-1.9,1.3h-0.1c-0.8,0-1.3-0.1-1.6-0.4c-0.3-0.2-0.6-0.8-0.9-1.7
			c-0.2-0.6-0.6-1.3-1-2s-0.7-1.4-0.9-1.9c-0.3-0.7-0.7-1.6-1.2-2.5s-0.9-1.4-1-1.4s-0.2,0.3-0.2,1c0,1.1,0.1,2.9,0.4,5.4
			c0.1,0.8,0.1,1.4,0.1,1.8c0,0.5-0.1,0.9-0.3,1c-0.2,0.2-0.6,0.3-1.3,0.4c-0.4,0.1-0.7,0.1-0.7,0.1c-0.3,0-0.6-0.2-1-0.6
			s-0.6-1-0.6-1.7c0-0.1,0-0.3,0-0.6c0-0.3,0-0.6,0-0.8c0.1-1.2,0.1-2.7,0.1-4.5c0-2.6,0-5.2-0.1-7.9l-0.1-7.5l0.6-0.3
			c0.2-0.1,0.3-0.1,0.5-0.1s0.6,0.1,1.1,0.4l1,0.5l0.1,3c0.1,2,0.2,3,0.3,3c0.1,0,0.7-0.7,1.5-2.1c0.9-1.4,1.4-2.5,1.7-3.2
			C290.5,69.2,290.9,68.6,291.3,68.1z"/>
		<path class="st3" d="M123,131.2l-2.4,8.4c-1.2,4.2-5.5,6.6-9.6,5.4l-0.6-0.2c-3.6-1-6-4.4-5.5-8.2l3.7-13.4l11.8,3.3
			C122.4,127.2,123.6,129.2,123,131.2z"/>
		<path class="st3" d="M61,27.2l-3.3,11.7l-12-3.4c-2-0.5-3.1-2.6-2.6-4.6l2.3-8.1c1.2-4.2,5.5-6.6,9.6-5.4l0.6,0.2
			C59.7,18.7,62.1,23,61,27.2z"/>
		<path class="st2" d="M111.2,137l12-43L136,48.2c0.1-0.3,0.1-0.3,0.1-0.3c0.1-0.3,0.1-0.3,0.2-0.6c1-3.6-1.2-7.5-5.1-8.6L55.1,17.5
			c1,2.7,1.2,5.4,0.4,8.2l-24.8,88.8c-0.1,0.3-0.1,0.3-0.1,0.3c-0.1,0.3-0.1,0.3-0.2,0.6c-1,3.6,1.2,7.5,5.1,8.6l76.1,21.2
			C110.6,142.5,110.4,139.8,111.2,137z"/>
		<path class="st4" d="M128.8,51.4c0,0,3.9-7-8.2-9.1"/>
		<path class="st0" d="M84.5,98.8c14.2,0,25.7-11.5,25.7-25.7S98.7,47.4,84.5,47.4S58.8,58.9,58.8,73.1S70.3,98.8,84.5,98.8z"/>
		<path class="st2" d="M80,59c1.1-0.3,1.7-1.4,1.4-2.4c-0.3-1.1-1.4-1.7-2.4-1.4c-1.1,0.3-1.7,1.4-1.4,2.4c0.1,0.3,0.3,0.6,0.5,0.9"
			/>
		<path class="st5" d="M78.7,60.7l-3.1,12.1c8.1-1.8,10.7,6.5,18.9,4.8l3.1-12.1C89.5,67.2,86.9,58.9,78.7,60.7z"/>
		<path class="st2" d="M72.8,86.9l-1.7-0.4c-0.1,0-0.2-0.1-0.1-0.2L78.4,57c0,0,0,0,0.1,0l1.9,0.5c0,0,0.1,0,0,0.1L73,86.8
			C73,86.9,72.9,86.9,72.8,86.9z"/>
		<path class="st0" d="M65.6,121.1c4.2,0,7.7-3.4,7.7-7.7c0-4.2-3.4-7.7-7.7-7.7s-7.7,3.4-7.7,7.7C58,117.7,61.4,121.1,65.6,121.1z"
			/>
		<path class="st2" d="M64.3,109.3c0.3-0.1,0.5-0.4,0.4-0.7c-0.1-0.3-0.4-0.5-0.7-0.4c-0.3,0.1-0.5,0.4-0.4,0.7
			c0,0.1,0.1,0.2,0.2,0.3"/>
		<path class="st5" d="M63.9,109.8l-0.9,3.6c2.4-0.5,3.2,1.9,5.6,1.4l0.9-3.6C67.1,111.7,66.3,109.3,63.9,109.8z"/>
		<path class="st2" d="M62,117.6l-0.3-0.1c-0.1,0-0.2-0.1-0.1-0.2l2.2-8.6c0,0,0,0,0.1,0l0.5,0.1c0,0,0,0,0,0.1l-2.2,8.6
			C62.2,117.5,62.1,117.6,62,117.6z"/>
		<path class="st0" d="M47.5,116.6c4.2,0,7.7-3.4,7.7-7.7c0-4.2-3.4-7.7-7.7-7.7s-7.7,3.4-7.7,7.7C39.8,113.1,43.3,116.6,47.5,116.6
			z"/>
		<path class="st2" d="M46.1,104.7c0.3-0.1,0.5-0.4,0.4-0.7s-0.4-0.5-0.7-0.4s-0.5,0.4-0.4,0.7c0,0.1,0.1,0.2,0.2,0.3"/>
		<path class="st5" d="M45.8,105.2l-0.9,3.6c2.4-0.5,3.2,1.9,5.6,1.4l0.9-3.6C49,107.2,48.2,104.7,45.8,105.2z"/>
		<path class="st2" d="M43.9,113l-0.3-0.1c-0.1,0-0.2-0.1-0.1-0.2l2.2-8.6c0,0,0,0,0.1,0l0.5,0.1c0,0,0,0,0,0.1l-2.2,8.6
			C44.1,113,44,113,43.9,113z"/>
		<path class="st0" d="M101.9,130.3c4.2,0,7.7-3.4,7.7-7.7c0-4.2-3.4-7.7-7.7-7.7c-4.2,0-7.7,3.4-7.7,7.7
			C94.3,126.8,97.7,130.3,101.9,130.3z"/>
		<path class="st2" d="M100.6,118.4c0.3-0.1,0.5-0.4,0.4-0.7c-0.1-0.3-0.4-0.5-0.7-0.4c-0.3,0.1-0.5,0.4-0.4,0.7
			c0,0.1,0.1,0.2,0.2,0.3"/>
		<path class="st5" d="M100.2,118.9l-0.9,3.6c2.4-0.5,3.2,1.9,5.6,1.4l0.9-3.6C103.4,120.9,102.6,118.4,100.2,118.9z"/>
		<path class="st2" d="M98.3,126.7l-0.3-0.1c-0.1,0-0.1-0.1-0.1-0.2l2.2-8.6c0,0,0-0.1,0.1,0l0.5,0.1c0,0,0,0,0,0.1l-2.2,8.6
			C98.5,126.7,98.4,126.7,98.3,126.7z"/>
		<path class="st0" d="M83.8,125.7c4.2,0,7.7-3.4,7.7-7.7c0-4.2-3.4-7.7-7.7-7.7c-4.2,0-7.7,3.4-7.7,7.7
			C76.1,122.3,79.6,125.7,83.8,125.7z"/>
		<path class="st2" d="M82.4,113.8c0.3-0.1,0.5-0.4,0.4-0.7c-0.1-0.3-0.4-0.5-0.7-0.4c-0.3,0.1-0.5,0.4-0.4,0.7
			c0,0.1,0.1,0.2,0.2,0.3"/>
		<path class="st5" d="M82.1,114.3l-0.9,3.6c2.4-0.5,3.2,1.9,5.6,1.4l0.9-3.6C85.3,116.3,84.5,113.8,82.1,114.3z"/>
		<path class="st2" d="M80.2,122.1l-0.3-0.1c-0.1,0-0.2-0.1-0.1-0.2l2.2-8.5c0,0,0,0,0.1,0l0.5,0.1c0,0,0,0,0,0.1l-2.2,8.6
			C80.4,122.1,80.3,122.1,80.2,122.1z"/>
		<path class="st6" d="M92.9,103.2c4.6,0,8.2-3.7,8.2-8.2c0-4.6-3.7-8.2-8.2-8.2s-8.2,3.7-8.2,8.2C84.6,99.5,88.3,103.2,92.9,103.2z
			"/>
		<path class="st7" d="M88.8,95.1l1.6,2.4c0.1,0.2,0.4,0.3,0.6,0.1l6.1-4.2"/>
	</g>
</g>
</svg>
