<?xml version="1.0" encoding="utf-8"?>
<!-- Generator: Adobe Illustrator 25.1.0, SVG Export Plug-In . SVG Version: 6.00 Build 0)  -->
<svg version="1.1" id="Layer_1" xmlns="http://www.w3.org/2000/svg" xmlns:xlink="http://www.w3.org/1999/xlink" x="0px" y="0px"
	 viewBox="0 0 333.8 152.2" style="enable-background:new 0 0 333.8 152.2;" xml:space="preserve">
<style type="text/css">
	.st0{fill:#FFFFFF;}
	.st1{fill:#808080;}
	.st2{fill:#D64204;}
	.st3{fill:#F4F1EF;}
	.st4{fill:#6E6E6E;}
	.st5{fill:#BFBFBF;}
	.st6{fill:#FF9F1A;}
</style>
<g>
	<g>
		<g>
			<path class="st0" d="M333.8,107c0-47.3-2.5-79.3-4.1-94.9C329,5.9,318.4,1,305.3,0.9C275.6,0.6,224.1,0.2,193.5,0
				C165-0.1,121.7,0.3,86.7,0.7C52.3,1.1,12.4,1.8,7.2,11.8C-1,27.3,0.5,59.1,0.5,87.6c0,44.9-6.6,55.7,28.7,61.3
				c35.9,5.8,219.5,2.2,262.8,1.5C336.7,149.7,333.8,152.7,333.8,107z"/>
			<path class="st1" d="M202.8,87.5c-0.8,0-1.4-0.2-2-0.5s-1.1-0.8-1.4-1.5c-0.4-0.6-0.5-1.4-0.5-2.2s0.2-1.6,0.5-2.2
				c0.4-0.6,0.8-1.1,1.4-1.4c0.6-0.3,1.3-0.5,2-0.5s1.4,0.2,2,0.5s1.1,0.8,1.4,1.4c0.4,0.6,0.5,1.4,0.5,2.2s-0.2,1.6-0.5,2.2
				c-0.4,0.6-0.8,1.1-1.4,1.5C204.3,87.3,203.6,87.5,202.8,87.5z M202.8,86.3c0.5,0,0.9-0.1,1.3-0.3c0.4-0.2,0.7-0.6,1-1
				s0.4-1,0.4-1.7s-0.1-1.2-0.4-1.7c-0.2-0.4-0.6-0.8-1-1s-0.8-0.3-1.3-0.3s-0.9,0.1-1.3,0.3c-0.4,0.2-0.7,0.6-1,1
				c-0.2,0.5-0.4,1-0.4,1.7s0.1,1.2,0.4,1.7s0.6,0.8,1,1C202,86.2,202.4,86.3,202.8,86.3z"/>
			<path class="st1" d="M209.1,87.3v-6.8h-1.2v-1.1h1.2V78c0-0.8,0.2-1.3,0.6-1.7s0.9-0.5,1.7-0.5h0.8v1.1h-0.6
				c-0.4,0-0.7,0.1-0.9,0.2c-0.2,0.2-0.3,0.5-0.3,0.8v1.3h1.9v1.1h-1.9v6.8L209.1,87.3L209.1,87.3z"/>
			<path class="st1" d="M221.2,87.5c-0.9,0-1.7-0.3-2.2-0.9s-0.8-1.4-0.8-2.6v-4.6h1.3v4.5c0,1.7,0.7,2.5,2,2.5
				c0.7,0,1.3-0.2,1.7-0.7s0.7-1.2,0.7-2.1v-4.1h1.3v7.9H224l-0.1-1.4c-0.2,0.5-0.6,0.9-1.1,1.2C222.3,87.3,221.8,87.5,221.2,87.5z"
				/>
			<path class="st1" d="M227.4,87.3v-7.9h1.2l0.1,1.4c0.3-0.5,0.6-0.9,1.1-1.2c0.5-0.3,1-0.4,1.6-0.4c0.9,0,1.7,0.3,2.2,0.9
				c0.6,0.6,0.8,1.5,0.8,2.6v4.6h-1.3v-4.5c0-1.6-0.7-2.5-2.1-2.5c-0.7,0-1.2,0.2-1.7,0.7c-0.4,0.5-0.7,1.2-0.7,2.1v4.1L227.4,87.3
				L227.4,87.3z"/>
			<path class="st1" d="M237.4,77.6c-0.3,0-0.5-0.1-0.7-0.3c-0.2-0.2-0.3-0.4-0.3-0.7s0.1-0.5,0.3-0.6c0.2-0.2,0.4-0.3,0.7-0.3
				s0.5,0.1,0.7,0.3c0.2,0.2,0.3,0.4,0.3,0.6c0,0.3-0.1,0.5-0.3,0.7C237.9,77.5,237.6,77.6,237.4,77.6z M236.7,87.3v-7.9h1.3v7.9
				H236.7z"/>
			<path class="st1" d="M247.7,87.5c-0.9,0-1.7-0.2-2.4-0.7s-1-1.1-1.1-1.9h1.4c0.1,0.4,0.3,0.8,0.7,1.1c0.4,0.3,0.8,0.5,1.5,0.5
				c0.6,0,1-0.1,1.2-0.4c0.3-0.2,0.4-0.5,0.4-0.9c0-0.5-0.2-0.8-0.5-1s-0.8-0.3-1.5-0.4c-0.4-0.1-0.9-0.2-1.3-0.4s-0.8-0.4-1.1-0.7
				c-0.3-0.3-0.4-0.7-0.4-1.2c0-0.7,0.3-1.3,0.8-1.7c0.5-0.4,1.2-0.7,2.1-0.7c0.8,0,1.5,0.2,2.1,0.6c0.5,0.4,0.9,1,0.9,1.8h-1.3
				c0-0.4-0.2-0.7-0.5-0.9s-0.7-0.3-1.2-0.3s-0.9,0.1-1.1,0.3c-0.3,0.2-0.4,0.5-0.4,0.8s0.2,0.6,0.5,0.8c0.3,0.2,0.8,0.3,1.4,0.5
				c0.5,0.1,1,0.2,1.4,0.4s0.8,0.4,1.1,0.7c0.3,0.3,0.4,0.7,0.4,1.3c0,0.7-0.3,1.3-0.8,1.8C249.4,87.2,248.6,87.5,247.7,87.5z"/>
			<path class="st1" d="M255.4,87.3c-0.7,0-1.3-0.2-1.7-0.5s-0.6-1-0.6-1.9v-4.4h-1.4v-1.1h1.4l0.2-1.9h1.2v1.9h2.3v1.1h-2.3v4.4
				c0,0.5,0.1,0.8,0.3,1s0.6,0.3,1.1,0.3h0.8v1.1H255.4z"/>
			<path class="st1" d="M261.4,87.5c-0.9,0-1.7-0.3-2.2-0.9c-0.6-0.6-0.8-1.4-0.8-2.6v-4.6h1.3v4.5c0,1.7,0.7,2.5,2,2.5
				c0.7,0,1.3-0.2,1.7-0.7c0.4-0.5,0.7-1.2,0.7-2.1v-4.1h1.3v7.9h-1.2l-0.1-1.4c-0.2,0.5-0.6,0.9-1.1,1.2
				C262.5,87.3,262,87.5,261.4,87.5z"/>
			<path class="st1" d="M271.2,87.5c-0.8,0-1.5-0.2-2.1-0.5c-0.6-0.4-1.1-0.9-1.4-1.5s-0.5-1.3-0.5-2.1s0.2-1.5,0.5-2.1
				s0.8-1.1,1.4-1.5s1.3-0.5,2.1-0.5c0.6,0,1.2,0.1,1.7,0.4s0.9,0.6,1.2,1.1v-4.9h1.3v11.5h-1.2l-0.1-1.3c-0.3,0.4-0.6,0.7-1.1,1
				C272.6,87.3,272,87.5,271.2,87.5z M271.4,86.3c0.5,0,1-0.1,1.4-0.4s0.7-0.6,1-1c0.2-0.5,0.3-1,0.3-1.6s-0.1-1.1-0.3-1.6
				c-0.2-0.5-0.5-0.8-1-1.1s-0.9-0.4-1.4-0.4s-1,0.1-1.4,0.4s-0.7,0.6-1,1.1c-0.2,0.4-0.3,1-0.3,1.6s0.1,1.1,0.3,1.6
				c0.2,0.4,0.5,0.8,1,1S270.8,86.3,271.4,86.3z"/>
			<path class="st1" d="M281.2,87.5c-0.8,0-1.4-0.2-2-0.5s-1.1-0.8-1.4-1.4s-0.5-1.4-0.5-2.2c0-0.8,0.2-1.6,0.5-2.2s0.8-1.1,1.4-1.5
				c0.6-0.3,1.3-0.5,2.1-0.5c0.8,0,1.4,0.2,2,0.5c0.6,0.4,1,0.8,1.3,1.4s0.4,1.2,0.4,1.8c0,0.1,0,0.2,0,0.4c0,0.1,0,0.2,0,0.4h-6.3
				c0,0.6,0.2,1.1,0.4,1.5c0.2,0.4,0.6,0.7,0.9,0.9c0.4,0.2,0.8,0.3,1.2,0.3c0.5,0,1-0.1,1.4-0.4s0.6-0.6,0.8-1h1.3
				c-0.2,0.7-0.6,1.4-1.2,1.8C283,87.2,282.2,87.5,281.2,87.5z M281.2,80.3c-0.6,0-1.2,0.2-1.7,0.6s-0.8,1-0.9,1.7h5
				c0-0.7-0.3-1.3-0.7-1.7C282.5,80.5,281.9,80.3,281.2,80.3z"/>
			<path class="st1" d="M286.8,87.3v-7.9h1.2l0.1,1.4c0.3-0.5,0.6-0.9,1.1-1.2c0.5-0.3,1-0.4,1.6-0.4c0.9,0,1.7,0.3,2.2,0.9
				c0.6,0.6,0.8,1.5,0.8,2.6v4.6h-1.3v-4.5c0-1.6-0.7-2.5-2-2.5c-0.7,0-1.2,0.2-1.7,0.7s-0.7,1.2-0.7,2.1v4.1L286.8,87.3L286.8,87.3
				z"/>
			<path class="st1" d="M299.1,87.3c-0.7,0-1.3-0.2-1.7-0.5c-0.4-0.4-0.6-1-0.6-1.9v-4.4h-1.4v-1.1h1.4l0.2-1.9h1.2v1.9h2.3v1.1
				h-2.3v4.4c0,0.5,0.1,0.8,0.3,1c0.2,0.2,0.6,0.3,1.1,0.3h0.8v1.1H299.1z"/>
			<path class="st1" d="M305.2,87.5c-1,0-1.7-0.2-2.4-0.7c-0.6-0.5-1-1.1-1.1-1.9h1.4c0.1,0.4,0.3,0.8,0.7,1.1
				c0.4,0.3,0.8,0.5,1.5,0.5c0.6,0,1-0.1,1.2-0.4c0.3-0.2,0.4-0.5,0.4-0.9c0-0.5-0.2-0.8-0.5-1s-0.8-0.3-1.5-0.4
				c-0.4-0.1-0.8-0.2-1.3-0.4c-0.4-0.2-0.8-0.4-1.1-0.7c-0.3-0.3-0.4-0.7-0.4-1.2c0-0.7,0.3-1.3,0.8-1.7c0.5-0.4,1.2-0.7,2.1-0.7
				c0.8,0,1.5,0.2,2.1,0.6c0.5,0.4,0.9,1,0.9,1.8h-1.3c-0.1-0.4-0.2-0.7-0.5-0.9s-0.7-0.3-1.2-0.3s-0.9,0.1-1.1,0.3
				c-0.3,0.2-0.4,0.5-0.4,0.8s0.2,0.6,0.5,0.8c0.3,0.2,0.8,0.3,1.4,0.5c0.5,0.1,1,0.2,1.4,0.4s0.8,0.4,1.1,0.7
				c0.3,0.3,0.4,0.7,0.4,1.3c0,0.7-0.3,1.3-0.8,1.8C306.8,87.2,306.1,87.5,305.2,87.5z"/>
			<path class="st1" d="M201.9,109.5c-0.7,0-1.2-0.1-1.6-0.3c-0.4-0.2-0.8-0.5-1-0.9s-0.3-0.8-0.3-1.2c0-0.8,0.3-1.4,0.9-1.9
				c0.6-0.4,1.5-0.7,2.5-0.7h2.1v-0.1c0-0.7-0.2-1.2-0.5-1.6s-0.8-0.5-1.5-0.5c-0.5,0-1,0.1-1.4,0.4s-0.6,0.6-0.7,1.1H199
				c0.1-0.6,0.2-1.1,0.6-1.5c0.3-0.4,0.8-0.7,1.3-0.9c0.5-0.2,1-0.3,1.6-0.3c1.1,0,1.9,0.3,2.5,0.9s0.8,1.4,0.8,2.4v4.9h-1.2
				l-0.1-1.4c-0.2,0.4-0.6,0.8-1,1.1C203.2,109.3,202.6,109.5,201.9,109.5z M202.1,108.3c0.5,0,0.9-0.1,1.3-0.4
				c0.4-0.3,0.7-0.6,0.8-1c0.2-0.4,0.3-0.9,0.3-1.3l0,0h-2c-0.8,0-1.4,0.1-1.7,0.4s-0.5,0.6-0.5,1s0.2,0.8,0.5,1
				C201.1,108.2,201.5,108.3,202.1,108.3z"/>
			<path class="st1" d="M207.9,109.3v-7.9h1.2l0.1,1.5c0.2-0.5,0.6-0.9,1.1-1.2s1.1-0.5,1.9-0.5v1.4h-0.4c-0.5,0-0.9,0.1-1.3,0.2
				c-0.4,0.2-0.7,0.4-0.9,0.8s-0.3,0.9-0.3,1.6v4L207.9,109.3L207.9,109.3z"/>
			<path class="st1" d="M217,109.5c-0.8,0-1.4-0.2-2-0.5s-1.1-0.8-1.4-1.4c-0.3-0.6-0.5-1.4-0.5-2.2c0-0.8,0.2-1.6,0.5-2.2
				s0.8-1.1,1.4-1.5c0.6-0.3,1.3-0.5,2.1-0.5s1.4,0.2,2,0.5c0.6,0.4,1,0.8,1.3,1.4s0.4,1.2,0.4,1.8c0,0.1,0,0.2,0,0.4
				c0,0.1,0,0.2,0,0.4h-6.3c0,0.6,0.2,1.1,0.4,1.5s0.6,0.7,0.9,0.9c0.4,0.2,0.8,0.3,1.2,0.3c0.5,0,1-0.1,1.4-0.4s0.6-0.6,0.8-1h1.3
				c-0.2,0.7-0.6,1.4-1.2,1.8C218.7,109.2,217.9,109.5,217,109.5z M217,102.3c-0.6,0-1.2,0.2-1.7,0.6s-0.8,1-0.9,1.7h5
				c0-0.7-0.3-1.3-0.7-1.7C218.2,102.5,217.6,102.3,217,102.3z"/>
			<path class="st1" d="M230.4,109.5c-0.8,0-1.4-0.2-2-0.5s-1.1-0.8-1.4-1.5c-0.3-0.6-0.5-1.4-0.5-2.2s0.2-1.6,0.5-2.2
				c0.4-0.6,0.8-1.1,1.4-1.5c0.6-0.3,1.3-0.5,2-0.5c0.9,0,1.7,0.2,2.4,0.7s1.1,1.1,1.2,2h-1.4c-0.1-0.5-0.4-0.9-0.8-1.1
				c-0.4-0.3-0.9-0.4-1.5-0.4c-0.4,0-0.9,0.1-1.3,0.3c-0.4,0.2-0.7,0.6-1,1s-0.4,1-0.4,1.7s0.1,1.2,0.4,1.7s0.6,0.8,1,1
				s0.8,0.3,1.3,0.3c0.6,0,1-0.1,1.5-0.4c0.4-0.3,0.7-0.7,0.8-1.2h1.4c-0.2,0.8-0.6,1.4-1.2,1.9
				C232.1,109.2,231.3,109.5,230.4,109.5z"/>
			<path class="st1" d="M238.7,109.5c-0.9,0-1.7-0.3-2.2-0.9c-0.6-0.6-0.8-1.4-0.8-2.6v-4.6h1.3v4.5c0,1.7,0.7,2.5,2,2.5
				c0.7,0,1.3-0.2,1.7-0.7c0.5-0.5,0.7-1.2,0.7-2.1v-4.1h1.3v7.9h-1.2l-0.1-1.4c-0.2,0.5-0.6,0.9-1.1,1.2
				C239.9,109.3,239.4,109.5,238.7,109.5z"/>
			<path class="st1" d="M245,109.3v-7.9h1.2l0.1,1.5c0.2-0.5,0.6-0.9,1.1-1.2s1.1-0.5,1.9-0.5v1.4h-0.4c-0.5,0-0.9,0.1-1.3,0.2
				c-0.4,0.2-0.7,0.4-0.9,0.8s-0.4,0.9-0.4,1.6v4L245,109.3L245,109.3z"/>
			<path class="st1" d="M250.8,109.3v-7.9h1.2l0.1,1.5c0.2-0.5,0.6-0.9,1.1-1.2s1.1-0.5,1.9-0.5v1.4h-0.4c-0.5,0-0.9,0.1-1.3,0.2
				c-0.4,0.2-0.7,0.4-0.9,0.8s-0.4,0.9-0.4,1.6v4L250.8,109.3L250.8,109.3z"/>
			<path class="st1" d="M259.9,109.5c-0.8,0-1.4-0.2-2-0.5s-1-0.8-1.4-1.4c-0.3-0.6-0.5-1.4-0.5-2.2c0-0.8,0.2-1.6,0.5-2.2
				s0.8-1.1,1.4-1.5c0.6-0.3,1.3-0.5,2.1-0.5c0.8,0,1.4,0.2,2,0.5c0.6,0.4,1,0.8,1.3,1.4s0.5,1.2,0.5,1.8c0,0.1,0,0.2,0,0.4
				c0,0.1,0,0.2,0,0.4h-6.3c0,0.6,0.2,1.1,0.4,1.5c0.2,0.4,0.6,0.7,0.9,0.9c0.4,0.2,0.8,0.3,1.2,0.3c0.5,0,1-0.1,1.4-0.4
				s0.6-0.6,0.8-1h1.3c-0.2,0.7-0.6,1.4-1.2,1.8C261.6,109.2,260.8,109.5,259.9,109.5z M259.9,102.3c-0.6,0-1.2,0.2-1.7,0.6
				s-0.8,1-0.9,1.7h5c0-0.7-0.3-1.3-0.7-1.7C261.1,102.5,260.6,102.3,259.9,102.3z"/>
			<path class="st1" d="M265.4,109.3v-7.9h1.2l0.1,1.4c0.3-0.5,0.6-0.9,1.1-1.2c0.5-0.3,1-0.4,1.6-0.4c0.9,0,1.7,0.3,2.2,0.9
				c0.6,0.6,0.8,1.5,0.8,2.6v4.6h-1.3v-4.5c0-1.6-0.7-2.5-2.1-2.5c-0.7,0-1.2,0.2-1.7,0.7s-0.7,1.2-0.7,2.1v4.1L265.4,109.3
				L265.4,109.3z"/>
			<path class="st1" d="M277.7,109.3c-0.7,0-1.3-0.2-1.7-0.5s-0.6-1-0.6-1.9v-4.4H274v-1.1h1.4l0.2-1.9h1.2v1.9h2.3v1.1h-2.3v4.4
				c0,0.5,0.1,0.8,0.3,1c0.2,0.2,0.6,0.3,1.1,0.3h0.8v1.1H277.7z"/>
			<path class="st1" d="M280.8,109.3V97.8h1.3v11.5H280.8z"/>
			<path class="st1" d="M285.2,112.8l2-4.3h-0.5l-3.1-7.2h1.5l2.6,6.2l2.8-6.2h1.4l-5.2,11.5H285.2z"/>
			<path class="st1" d="M200,121.6c-0.3,0-0.5-0.1-0.7-0.3c-0.2-0.2-0.3-0.4-0.3-0.7s0.1-0.5,0.3-0.6c0.2-0.2,0.4-0.3,0.7-0.3
				s0.5,0.1,0.7,0.3c0.2,0.2,0.3,0.4,0.3,0.6c0,0.3-0.1,0.5-0.3,0.7C200.5,121.5,200.3,121.6,200,121.6z M199.4,131.3v-7.9h1.3v7.9
				H199.4z"/>
			<path class="st1" d="M203,131.3v-7.9h1.2l0.1,1.4c0.3-0.5,0.6-0.9,1.1-1.2s1-0.4,1.6-0.4c0.9,0,1.7,0.3,2.2,0.9
				c0.6,0.6,0.8,1.5,0.8,2.6v4.6h-1.3v-4.5c0-1.6-0.7-2.5-2.1-2.5c-0.7,0-1.2,0.2-1.7,0.7c-0.4,0.5-0.7,1.2-0.7,2.1v4.1L203,131.3
				L203,131.3z"/>
			<path class="st1" d="M214.8,131.5c-0.7,0-1.2-0.1-1.7-0.3c-0.4-0.2-0.8-0.5-1-0.9s-0.3-0.8-0.3-1.2c0-0.8,0.3-1.4,0.9-1.9
				s1.5-0.7,2.5-0.7h2.1v-0.1c0-0.7-0.2-1.2-0.5-1.6s-0.9-0.5-1.5-0.5c-0.5,0-1,0.1-1.4,0.4s-0.6,0.6-0.7,1.1h-1.4
				c0.1-0.6,0.2-1.1,0.6-1.5c0.3-0.4,0.8-0.7,1.3-0.9c0.5-0.2,1-0.3,1.6-0.3c1.1,0,1.9,0.3,2.5,0.9s0.8,1.4,0.8,2.4v4.9h-1.2
				l-0.1-1.4c-0.2,0.4-0.6,0.8-1,1.1C216.1,131.3,215.6,131.5,214.8,131.5z M215,130.3c0.5,0,0.9-0.1,1.3-0.4c0.4-0.3,0.7-0.6,0.8-1
				c0.2-0.4,0.3-0.9,0.3-1.3l0,0h-2c-0.8,0-1.4,0.1-1.7,0.4s-0.5,0.6-0.5,1s0.2,0.8,0.5,1C214.1,130.2,214.5,130.3,215,130.3z"/>
			<path class="st1" d="M224.5,131.5c-0.8,0-1.4-0.2-2-0.5s-1.1-0.8-1.4-1.5c-0.4-0.6-0.5-1.4-0.5-2.2c0-0.8,0.2-1.6,0.5-2.2
				s0.8-1.1,1.4-1.5c0.6-0.3,1.3-0.5,2-0.5c0.9,0,1.7,0.2,2.4,0.7s1.1,1.1,1.2,2h-1.4c-0.1-0.5-0.4-0.9-0.8-1.1
				c-0.4-0.3-0.9-0.4-1.5-0.4c-0.5,0-0.9,0.1-1.3,0.3c-0.4,0.2-0.7,0.6-1,1s-0.4,1-0.4,1.7c0,0.7,0.1,1.2,0.4,1.7s0.6,0.8,1,1
				s0.8,0.3,1.3,0.3s1-0.1,1.5-0.4c0.4-0.3,0.7-0.7,0.8-1.2h1.4c-0.2,0.8-0.6,1.4-1.2,1.9S225.4,131.5,224.5,131.5z"/>
			<path class="st1" d="M232.9,131.3c-0.7,0-1.3-0.2-1.7-0.5c-0.4-0.4-0.6-1-0.6-1.9v-4.4h-1.4v-1.1h1.4l0.2-1.9h1.2v1.9h2.3v1.1
				H232v4.4c0,0.5,0.1,0.8,0.3,1s0.6,0.3,1.1,0.3h0.8v1.1L232.9,131.3L232.9,131.3z"/>
			<path class="st1" d="M236.8,121.6c-0.3,0-0.5-0.1-0.7-0.3c-0.2-0.2-0.3-0.4-0.3-0.7s0.1-0.5,0.3-0.6c0.2-0.2,0.4-0.3,0.7-0.3
				s0.5,0.1,0.7,0.3c0.2,0.2,0.3,0.4,0.3,0.6c0,0.3-0.1,0.5-0.3,0.7S237,121.6,236.8,121.6z M236.1,131.3v-7.9h1.3v7.9H236.1z"/>
			<path class="st1" d="M242.1,131.3l-3-7.9h1.4l2.4,6.6l2.4-6.6h1.4l-3,7.9H242.1z"/>
			<path class="st1" d="M251.3,131.5c-0.8,0-1.4-0.2-2-0.5s-1.1-0.8-1.4-1.4c-0.3-0.6-0.5-1.4-0.5-2.2c0-0.8,0.2-1.6,0.5-2.2
				s0.8-1.1,1.4-1.5c0.6-0.3,1.3-0.5,2.1-0.5s1.4,0.2,2,0.5c0.6,0.4,1,0.8,1.3,1.4s0.4,1.2,0.4,1.8c0,0.1,0,0.2,0,0.4
				c0,0.1,0,0.2,0,0.4h-6.3c0,0.6,0.2,1.1,0.4,1.5s0.6,0.7,0.9,0.9c0.4,0.2,0.8,0.3,1.2,0.3c0.5,0,1-0.1,1.4-0.4
				c0.4-0.3,0.6-0.6,0.8-1h1.3c-0.2,0.7-0.6,1.4-1.2,1.8C253,131.2,252.2,131.5,251.3,131.5z M251.3,124.3c-0.6,0-1.2,0.2-1.7,0.6
				s-0.8,1-0.9,1.7h5c0-0.7-0.3-1.3-0.7-1.7C252.5,124.5,251.9,124.3,251.3,124.3z"/>
			<path class="st1" d="M257.3,131.4c-0.3,0-0.5-0.1-0.7-0.3s-0.3-0.4-0.3-0.7s0.1-0.5,0.3-0.6c0.2-0.2,0.4-0.3,0.7-0.3
				s0.5,0.1,0.6,0.3s0.3,0.4,0.3,0.6c0,0.3-0.1,0.5-0.3,0.7C257.7,131.3,257.5,131.4,257.3,131.4z"/>
			<path class="st2" d="M205.7,26.7c1-0.3,2.3-0.5,3.9-0.5c1.9,0,3.1,0.2,3.5,0.6c0.4,0.3,0.6,0.8,0.6,1.2c0,0.5-0.3,1-0.9,1.5
				c-0.6,0.5-1.4,0.8-2.4,0.9l-1.9,0.2l0.1,5c0.1,3.4,0.3,5.1,0.7,5.3c0.5,0.3,1.2,0.9,2.1,1.9c0.9,1,1.4,1.8,1.7,2.4
				c0.9,1.8,1.3,4.5,1.3,7.9c0,2,0,3.2-0.1,3.8s-0.3,1.2-0.8,1.9c-1.4,2.4-2.9,3.7-4.5,3.9c-0.9,0.1-1.5,0.1-1.9,0.1
				c-2.1,0-3.6-0.4-4.5-1.1c-0.5-0.5-0.8-1-0.8-1.4s0.3-0.9,0.9-1.4c0.6-0.6,1.5-0.9,2.7-0.9s2-0.3,2.4-0.9c0.4-0.6,0.7-1.9,0.9-3.8
				c0-0.1,0-0.4,0-0.6c0-0.3,0-0.5,0-0.7c0-2.1-0.3-3.8-1-4.9c-0.6-1.2-1.6-1.8-2.8-1.8c-0.6,0-1.1-0.2-1.5-0.6
				c-0.4-0.4-0.5-0.9-0.5-1.4c0-0.4,0.1-0.7,0.1-0.9c0.3-0.9,0.4-2.7,0.4-5.6c0-3,0.2-4.9,0.6-5.8c0.4-0.8,0.5-1.4,0.1-1.8
				c-0.2-0.2-0.3-0.4-0.3-0.7C204.2,27.8,204.7,27.2,205.7,26.7z"/>
			<path class="st2" d="M224.6,26.3l1.1-1.3h8.5l1.4,1.4c1,1,1.6,1.9,1.9,2.9c0.4,1.3,0.6,4,0.6,8.1c0,2.8-0.1,5.1-0.3,6.9
				c0,0.7-0.1,1.4-0.2,2.2c-0.1,0.8-0.1,1.6-0.2,2.2c-0.1,0.7-0.1,1-0.1,1.2c-0.2,2.1-1,4.9-2.2,8.3c-0.3,0.9-0.9,1.9-1.8,3
				c-0.9,1.1-1.6,1.8-2.1,2c-0.7,0.2-1.6,0.4-2.7,0.4c-0.8,0-1.6-0.1-2.3-0.2c-1.4-0.3-2.5-1.8-3.2-4.6c-0.8-2.7-1.1-6.7-1.1-11.8
				v-2.9c0.1-6.3,0.3-10.3,0.6-11.9c0.1-0.6,0.2-1.3,0.4-2c0.1-0.8,0.2-1.3,0.3-1.5c0.1-0.3,0.2-0.6,0.4-1
				C223.9,27.2,224.2,26.7,224.6,26.3z M231.9,33c-0.6-2.7-1.2-4.1-1.9-4.1c-0.1,0-0.3,0.1-0.4,0.2c-0.6,0.7-1,1.7-1.2,3.2
				c-0.2,1.5-0.3,3.9-0.3,7.4V42c0,9.7,0.4,14.5,1.2,14.5c0.3,0,0.7-0.7,1.2-2.2c1.2-3.5,1.9-8.5,1.9-15.2
				C232.3,36.6,232.2,34.6,231.9,33z"/>
			<path class="st2" d="M250.2,27.1c0.1-0.3,0.2-0.6,0.4-1c0.1,0-0.7-0.8-1.2-0.8h-0.6c-0.5,0-1.3-0.1-1.9-0.1c-0.2,0-0.4,0-0.5,0.1
				c-0.7,0.2-4.5,3.1-4.5,5.1c0,0.7,1.5,1.4,2.7,1.4C246.7,31.7,249.5,28.4,250.2,27.1z M247.7,26.4c0.6,0.1,0.4,0.2,0.7,0.2
				c-0.2,1.1-2.7,3.9-4.4,4C244.5,29.1,246.6,27.1,247.7,26.4z"/>
			<path class="st2" d="M254.5,25.1c-0.5,0-1,0.9-1,0.9c-2.6,2.9-10.4,10.6-10.4,13c0,0.2,0.2,0.4,0.4,0.6c0.1,0,0.3,0.1,0.5,0.1
				c0.6,0,0.8-1.2,1.2-1.7c0.9-1.4,2.4-3,3.8-4.7c1.8-2,3.3-4.1,5.3-6c0.5-0.4,1.3-1.5,1.3-1.6C255.6,25.2,255.3,25.1,254.5,25.1z"
				/>
			<path class="st2" d="M252.5,35h-0.1c0.1-0.3,0.6-0.6,0.9-0.8c0-0.1,0.1-0.2,0.1-0.2c0-0.2-0.1-0.1-0.4-0.3l-1.2-0.3
				c-1.2,0-4.3,3.3-4.3,4.3c0,0.6,1.4,1.4,2.4,1.4c1.8,0,4-1.7,4-2.9C253.9,35.5,253.3,35,252.5,35z M249.9,37.8
				c0.1-0.4,1.3-2.3,1.9-2.3c0.2,0,0.5,0.2,0.5,0.4C252.3,36.6,251,37.8,249.9,37.8z"/>
			<path class="st3" d="M99.4,132.4c42.1,0,76.2-3.9,76.2-8.8c0-4.9-34.1-8.8-76.2-8.8s-76.2,3.9-76.2,8.8
				C23.2,128.5,57.3,132.4,99.4,132.4z"/>
			<path class="st4" d="M48.4,112.2v7.4c0,2.3,1.8,4.1,4.1,4.1s4.1-1.8,4.1-4.1v-7.4H48.4z"/>
			<path class="st4" d="M142.2,112.2v7.4c0,2.3,1.8,4.1,4.1,4.1s4.1-1.8,4.1-4.1v-7.4H142.2z"/>
			<path class="st5" d="M49.8,87.7v8.6h99.3v-8.6c0-7.1,4.7-16.5,4.7-16.5v-2.8c-0.1-10.4-8.7-19.4-19.9-20.1
				c-0.5,0-1.1-0.1-1.6-0.1H66.6c-0.5,0-1,0-1.5,0c-11.4,0.7-20,9.8-19.9,20.4v2.6C45.1,71.2,49.8,80.6,49.8,87.7z"/>
			<path class="st4" d="M40.7,110.9h117.5c2.4-1.8,4-4.7,4-7.9V81c0-5.4-4.4-11-9.8-11c-5.4,0-9.8,5.5-9.8,11v7.8H56.3v-8.9
				c0-5.4-4.4-9.8-9.8-9.8s-9.8,5.5-9.8,11v22C36.7,106.3,38.2,109.1,40.7,110.9z"/>
			<path class="st2" d="M122.2,19.4c-12-4.8-16.2-1.1-19.5,3c-2.1,2.7-3.9,8.3-3.4,12.9c0.1,0.5,0.2,0.9,0.2,1.3c0,0.1,0,0.1,0,0.1
				c0.5,2,1.3,3.6,2.8,4.7c0.6,0.6,0.7,1.4,0.2,2.1c-0.6,0.6-1.4,0.7-2.1,0.2c-1-0.8-2.6,7.3-3.2,6.2c-2.8,6.1-5.4,0.7-9,4.5
				c-2.9,3.1-6,6.3-8.9,11c-2.9,4.8-3.6,10.7-1.9,16c1.5,4.3,5.1,10.2,14.7,14c8.3,3.3,19.7,0.5,29-8.8c-0.3,0-0.7-0.2-1-0.3
				c-3-1.2-4.6-3.9-3.6-6.3c0.3-0.7,1.2-1.1,1.9-0.8c0.7,0.3,1.1,1.2,0.8,1.9c-0.3,0.7,0.5,1.9,2,2.5c1.9,0.8,3-0.3,3.4-0.8
				c0.2-0.1,0.3-0.3,0.6-0.4c3.3-4,6.2-8.9,8.5-14.6C139.7,52.1,140.3,26.6,122.2,19.4z"/>
			<path class="st6" d="M122.2,19.4c-12-4.8-19.1-3.3-22.2,2.4c-4,7.2-1.3,10.5-0.7,17.7c0.7,7.2-7.6,11.2-11.2,15
				c-2.9,3.1-6,6.3-8.9,11c-2.9,4.8-3.6,10.7-1.9,16c1.5,4.3,5.2,10.2,14.7,14c26.8,10.8,41-22.2,43.3-28
				C141.5,51.7,140.3,26.6,122.2,19.4z M86.9,72.9c-2.3-0.9-3.5-3.1-2.8-4.9c0.3-0.7,1.2-1.1,1.9-0.8c0.7,0.3,1.1,1.2,0.8,1.9
				c0,0.1,0.2,0.7,1.2,1.1c0.9,0.4,1.5,0.1,1.6,0c0.3-0.7,1.2-1.1,1.9-0.8c0.7,0.3,1.1,1.2,0.8,1.9C91.6,73.1,89.2,73.8,86.9,72.9z
				 M93.9,90.6c-1.8-0.7-2.7-2.8-2-4.6c0.3-0.7,1.2-1.1,1.9-0.8c0.7,0.3,1.1,1.2,0.8,1.9c-0.1,0.3,0.1,0.7,0.3,0.8s0.7-0.1,0.8-0.3
				c0.3-0.7,1.2-1.1,1.9-0.8c0.7,0.3,1.1,1.2,0.8,1.9C97.8,90.5,95.7,91.3,93.9,90.6z M104.1,64.9c-1.8-0.7-2.7-2.8-2-4.6
				c0.3-0.7,1.2-1.1,1.9-0.8c0.7,0.3,1.1,1.2,0.8,1.9c-0.1,0.3,0.1,0.7,0.3,0.8c0.3,0.1,0.7-0.1,0.8-0.3c0.3-0.7,1.2-1.1,1.9-0.8
				c0.7,0.3,1.1,1.2,0.8,1.9C108,64.8,106,65.7,104.1,64.9z M114.4,39.3c-2.5-1-3.7-3.2-3-5c0.3-0.7,1.2-1.1,1.9-0.8
				c0.7,0.3,1.1,1.2,0.8,1.9c0.1,0.1,0.4,0.8,1.3,1.2s1.6,0.2,1.7,0c0.3-0.7,1.2-1.1,1.9-0.8c0.7,0.3,1.1,1.2,0.9,1.9
				C119.2,39.5,116.8,40.2,114.4,39.3z M123.5,57.8c-2.7-1.1-4.2-3.3-3.4-5.2c0.3-0.7,1.2-1.1,1.9-0.8c0.7,0.3,1.1,1.2,0.8,1.9
				c0.1,0.1,0.6,0.9,1.8,1.4c1.2,0.5,2.1,0.3,2.3,0.2c0.3-0.8,1.2-1.1,1.9-0.8s1.1,1.2,0.8,1.9C128.8,58.2,126.2,58.9,123.5,57.8z"
				/>
			<path class="st5" d="M154.4,70.1c-5.6,0-10.2,4.6-10.2,10.3V93H54.6V80.3C54.6,74.7,50,70,44.4,70s-10.2,4.6-10.2,10.3v22.9
				c0,5.6,4.6,10.2,10.2,10.2h110c5.6,0,10.2-4.6,10.2-10.2V80.3C164.6,74.7,160.1,70.1,154.4,70.1z"/>
		</g>
	</g>
</g>
</svg>
