<?xml version="1.0" encoding="utf-8"?>
<!-- Generator: Adobe Illustrator 25.1.0, SVG Export Plug-In . SVG Version: 6.00 Build 0)  -->
<svg version="1.1" id="Layer_1" xmlns="http://www.w3.org/2000/svg" xmlns:xlink="http://www.w3.org/1999/xlink" x="0px" y="0px"
	 viewBox="0 0 332.9 223.2" style="enable-background:new 0 0 332.9 223.2;" xml:space="preserve">
<style type="text/css">
	.st0{fill:#FFFFFF;}
	.st1{fill:#808080;}
	.st2{fill:#00CDDC;}
	.st3{fill:#F4F1EF;}
	.st4{fill:#EDF1F2;}
	.st5{fill:#32DCD2;}
</style>
<g>
	<g>
		<g>
			<path class="st0" d="M332.9,161.3c0-144.1-5-148.1-67.7-159.1c-26.3-4.6-128.8-0.6-164,0c-34.5,0.6-86,5.2-92.1,27.3
				c-6,21.9-9.1,43-9.1,82.3c0,61.7,10.1,99.1,45.6,106.9c36,7.9,150.1,3.3,193.6,2.3C284,220,332.9,224.2,332.9,161.3z"/>
			<path class="st1" d="M187.3,86.9c-0.8,0-1.4-0.2-2-0.5s-1.1-0.8-1.4-1.4c-0.4-0.6-0.5-1.4-0.5-2.2c0-0.8,0.2-1.6,0.5-2.2
				s0.8-1.1,1.4-1.5c0.6-0.3,1.3-0.5,2-0.5s1.4,0.2,2,0.5s1.1,0.8,1.4,1.5c0.4,0.6,0.5,1.4,0.5,2.2c0,0.8-0.2,1.6-0.5,2.2
				c-0.4,0.6-0.8,1.1-1.4,1.4C188.7,86.7,188,86.9,187.3,86.9z M187.3,85.8c0.5,0,0.9-0.1,1.3-0.3c0.4-0.2,0.7-0.6,1-1
				s0.4-1,0.4-1.7s-0.1-1.2-0.4-1.7c-0.2-0.4-0.6-0.8-0.9-1c-0.4-0.2-0.8-0.3-1.3-0.3s-0.9,0.1-1.3,0.3c-0.4,0.2-0.7,0.6-1,1
				c-0.2,0.5-0.4,1-0.4,1.7s0.1,1.2,0.4,1.7s0.6,0.8,0.9,1C186.4,85.7,186.8,85.8,187.3,85.8z"/>
			<path class="st1" d="M193.1,86.7v-7.9h1.2l0.1,1.4c0.3-0.5,0.6-0.9,1.1-1.2s1-0.4,1.6-0.4c0.9,0,1.7,0.3,2.2,0.9
				c0.6,0.6,0.8,1.5,0.8,2.6v4.6h-1.3v-4.5c0-1.6-0.7-2.5-2-2.5c-0.7,0-1.2,0.2-1.7,0.7c-0.4,0.5-0.7,1.2-0.7,2.1v4.1L193.1,86.7
				L193.1,86.7z"/>
			<path class="st1" d="M182.8,160.8v-11.5h1.2l0.1,1.3c0.3-0.4,0.6-0.7,1.1-1s1.1-0.5,1.8-0.5c0.8,0,1.5,0.2,2.1,0.5
				c0.6,0.4,1,0.9,1.4,1.5s0.5,1.3,0.5,2.1c0,0.8-0.2,1.5-0.5,2.1s-0.8,1.1-1.4,1.5c-0.6,0.4-1.3,0.5-2.1,0.5
				c-0.7,0-1.2-0.1-1.7-0.4s-0.9-0.6-1.2-1.1v4.9h-1.3V160.8z M186.9,156.3c0.5,0,1-0.1,1.4-0.4s0.7-0.6,1-1c0.2-0.5,0.3-1,0.3-1.6
				s-0.1-1.1-0.3-1.6s-0.6-0.8-1-1s-0.9-0.4-1.4-0.4s-1,0.1-1.4,0.4c-0.4,0.2-0.7,0.6-1,1s-0.4,1-0.4,1.6s0.1,1.1,0.4,1.6
				c0.2,0.4,0.6,0.8,1,1C185.9,156.2,186.4,156.3,186.9,156.3z"/>
			<path class="st1" d="M196.4,157.5c-0.8,0-1.4-0.2-2-0.5s-1-0.8-1.4-1.4c-0.3-0.6-0.5-1.4-0.5-2.2c0-0.8,0.2-1.6,0.5-2.2
				s0.8-1.1,1.4-1.5c0.6-0.4,1.3-0.5,2.1-0.5s1.4,0.2,2,0.5s1,0.8,1.3,1.4s0.4,1.2,0.4,1.8c0,0.1,0,0.2,0,0.3c0,0.1,0,0.2,0,0.4
				h-6.3c0,0.6,0.2,1.1,0.4,1.5s0.6,0.7,0.9,0.9c0.4,0.2,0.8,0.3,1.2,0.3c0.6,0,1-0.1,1.4-0.4s0.7-0.6,0.8-1h1.3
				c-0.2,0.7-0.6,1.4-1.2,1.8C198.1,157.2,197.4,157.5,196.4,157.5z M196.4,150.3c-0.6,0-1.2,0.2-1.7,0.6s-0.8,1-0.9,1.7h5
				c0-0.7-0.3-1.3-0.7-1.7C197.7,150.5,197.1,150.3,196.4,150.3z"/>
			<path class="st1" d="M201.9,157.3v-7.9h1.2l0.1,1.5c0.2-0.5,0.6-0.9,1.1-1.2s1.1-0.5,1.9-0.5v1.4h-0.4c-0.5,0-0.9,0.1-1.3,0.2
				c-0.4,0.2-0.7,0.5-0.9,0.8c-0.2,0.4-0.3,0.9-0.3,1.6v4h-1.4V157.3z"/>
			<path class="st1" d="M213.6,157.3l-2.3-7.9h1.3l1.7,6.2l1.9-6.2h1.5l1.9,6.2l1.7-6.2h1.4l-2.3,7.9H219l-1.9-6.5l-1.9,6.5H213.6z"
				/>
			<path class="st1" d="M227.3,157.5c-0.8,0-1.4-0.2-2-0.5s-1.1-0.8-1.4-1.4c-0.3-0.6-0.5-1.4-0.5-2.2c0-0.8,0.2-1.6,0.5-2.2
				s0.8-1.1,1.4-1.5c0.6-0.4,1.3-0.5,2.1-0.5s1.4,0.2,2,0.5s1,0.8,1.3,1.4s0.5,1.2,0.5,1.8c0,0.1,0,0.2,0,0.3c0,0.1,0,0.2,0,0.4
				h-6.3c0,0.6,0.2,1.1,0.4,1.5s0.6,0.7,0.9,0.9c0.4,0.2,0.8,0.3,1.2,0.3c0.6,0,1-0.1,1.4-0.4s0.6-0.6,0.8-1h1.3
				c-0.2,0.7-0.6,1.4-1.2,1.8C229,157.2,228.3,157.5,227.3,157.5z M227.3,150.3c-0.6,0-1.2,0.2-1.7,0.6s-0.8,1-0.9,1.7h5
				c0-0.7-0.3-1.3-0.7-1.7C228.6,150.5,228,150.3,227.3,150.3z"/>
			<path class="st1" d="M236.4,157.5c-0.8,0-1.4-0.2-2-0.5s-1.1-0.8-1.4-1.4c-0.3-0.6-0.5-1.4-0.5-2.2c0-0.8,0.2-1.6,0.5-2.2
				s0.8-1.1,1.4-1.5c0.6-0.4,1.3-0.5,2.1-0.5s1.4,0.2,2,0.5s1,0.8,1.3,1.4s0.5,1.2,0.5,1.8c0,0.1,0,0.2,0,0.3s0,0.2,0,0.4H234
				c0,0.6,0.2,1.1,0.4,1.5s0.6,0.7,0.9,0.9c0.4,0.2,0.8,0.3,1.2,0.3c0.6,0,1-0.1,1.4-0.4s0.6-0.6,0.8-1h1.3
				c-0.2,0.7-0.6,1.4-1.2,1.8C238.1,157.2,237.4,157.5,236.4,157.5z M236.4,150.3c-0.6,0-1.2,0.2-1.7,0.6s-0.8,1-0.9,1.7h5
				c0-0.7-0.3-1.3-0.7-1.7C237.7,150.5,237.1,150.3,236.4,150.3z"/>
			<path class="st1" d="M242,157.3v-11.5h1.3v6.9l3.2-3.3h1.6l-3.5,3.6l4,4.3H247l-3.6-4.1v4.1H242z"/>
			<path class="st1" d="M250.5,157.4c-0.3,0-0.5-0.1-0.7-0.3c-0.2-0.2-0.3-0.4-0.3-0.7c0-0.3,0.1-0.5,0.3-0.6
				c0.2-0.2,0.4-0.3,0.7-0.3s0.5,0.1,0.6,0.3s0.3,0.4,0.3,0.6c0,0.3-0.1,0.5-0.3,0.7C251,157.3,250.8,157.4,250.5,157.4z"/>
			<path class="st2" d="M185.5,99.1c0.9-0.3,2.2-0.5,3.6-0.5c1.8,0,2.9,0.2,3.3,0.5c0.4,0.3,0.6,0.7,0.6,1.1c0,0.5-0.3,0.9-0.9,1.4
				c-0.6,0.4-1.3,0.7-2.2,0.8l-1.8,0.2l0.1,4.7c0.1,3.1,0.3,4.8,0.7,5c0.5,0.3,1.2,0.8,2,1.8c0.8,0.9,1.3,1.6,1.6,2.2
				c0.8,1.7,1.2,4.2,1.2,7.4c0,1.8,0,3-0.1,3.5s-0.3,1.1-0.7,1.8c-1.3,2.2-2.7,3.4-4.2,3.6c-0.8,0.1-1.4,0.1-1.8,0.1
				c-2,0-3.4-0.4-4.2-1.1c-0.5-0.5-0.7-0.9-0.7-1.3s0.3-0.8,0.8-1.3s1.4-0.8,2.6-0.8c1.1,0,1.9-0.3,2.3-0.9c0.4-0.6,0.7-1.8,0.8-3.5
				c0-0.1,0-0.3,0-0.6c0-0.3,0-0.5,0-0.6c0-2-0.3-3.5-0.9-4.6s-1.5-1.7-2.6-1.7c-0.6,0-1-0.2-1.4-0.5s-0.5-0.8-0.5-1.3
				c0-0.4,0-0.7,0.1-0.9c0.3-0.8,0.4-2.6,0.4-5.2c0-2.8,0.2-4.6,0.5-5.4c0.4-0.8,0.4-1.3,0.1-1.7c-0.2-0.2-0.3-0.4-0.3-0.7
				C184.1,100.1,184.5,99.5,185.5,99.1z"/>
			<path class="st2" d="M209.2,100.7c0.2,0,1.2-0.1,3.1-0.1c2.2,0,3.8,0.5,4.9,1.4c1.1,0.9,2,2.5,2.6,4.8c0.7,2.2,1,4.8,1,7.7
				c0,0.6,0,1.3-0.1,2c-0.1,0.6-0.3,1.6-0.4,2.8c-0.2,1.2-0.3,2.4-0.5,3.3s-0.4,1.7-0.6,2.1c-0.2,0.3-0.3,0.7-0.3,1.1
				c0,0.3-0.2,0.9-0.6,1.8c-0.4,0.9-0.8,1.5-1.1,1.9c-0.5,0.6-1.2,1.1-2.2,1.6c-0.9,0.5-1.9,0.8-2.8,0.8c-0.8,0.1-1.2,0.1-1.3,0.1
				c-0.5,0-1-0.2-1.4-0.7l-0.9-0.9l0.1-10.5V117c0-5.2-0.1-8-0.2-8.5c-0.2-1.7-0.4-3.1-0.4-4.3C208.1,102,208.4,100.8,209.2,100.7z
				 M215,108.3c-0.6-2.2-1.1-3.3-1.6-3.3l-0.1,0.1l-0.1,0.2c0,0.1,0,0.2,0,0.4s0,0.4,0,0.5c0,0.5,0,1.7,0.1,3.6
				c0.1,2.1,0.2,5,0.3,8.6c0,3.4,0.2,5.2,0.4,5.2c0.1,0,0.2-0.3,0.4-0.9c0.8-2.6,1.2-5.4,1.2-8.5C215.8,111.9,215.5,109.9,215,108.3
				z"/>
			<path class="st2" d="M232.1,102.9c1.1-1.1,2.7-1.6,4.8-1.6c0.9,0,1.7,0.2,2.4,0.5c0.9,0.4,1.5,1.6,1.9,3.5
				c0.3,1.6,0.6,4.3,1.1,8.1c0.4,3.8,0.7,6.7,0.8,8.7c0,1.9,0.2,4.1,0.4,6.5s0.4,3.7,0.5,3.9c0,0,0.1,0.1,0.1,0.2
				c0,0.4-0.2,0.8-0.5,1.4c-0.3,0.5-0.6,0.9-0.9,0.9c-0.1,0-0.3,0.1-0.6,0.1c-0.6,0-1.3-0.1-2-0.4c-0.8-0.3-1.2-0.6-1.4-0.9
				s-0.4-1.5-0.6-3.4c-0.2-2-0.3-3.5-0.3-4.8c0-1.1-0.1-1.8-0.4-1.9c-0.2-0.1-1.1-0.2-2.8-0.2c-1.4,0-2.1,0.1-2.2,0.2
				c0,0.2-0.1,0.5-0.1,0.8c0,0.9,0.1,2,0.2,3.4c0.1,1.6,0.2,3,0.2,4v0.6c0,0.3-0.3,0.6-0.9,0.8c-0.6,0.2-1.1,0.3-1.6,0.3
				c-0.2,0-0.4,0-0.6-0.1c-1.4-0.4-2.2-1-2.4-1.7c0,0,0-0.1,0-0.3c0-0.2,0-0.3,0-0.4c0-1.7,0.2-5.5,0.6-11.2c0.4-5.7,0.7-9,0.9-9.9
				c0.2-1.1,0.7-2.4,1.5-3.9C230.9,104.5,231.6,103.5,232.1,102.9z M236.4,109.3c-0.2-1.2-0.5-1.8-0.9-1.8c-0.3,0-0.6,0.4-1,1.3
				c-0.8,1.7-1.3,3.9-1.5,6.8c-0.1,1.2-0.1,1.9-0.1,2c0,0.6,0.1,0.9,0.3,1.1s0.8,0.2,1.7,0.2c1.2,0,1.9-0.1,2.1-0.4
				c0.1-0.1,0.1-0.7,0.1-1.6C237,114.2,236.8,111.6,236.4,109.3z"/>
			<path class="st2" d="M253.4,98c0.6-0.2,1.2-0.4,1.7-0.4c0.6,0,1.2,0.2,1.7,0.8c0.5,0.5,0.8,1.6,0.8,3.1c0.2,2.9,0.7,5.5,1.6,7.8
				c0.3,0.8,0.4,1.3,0.4,1.7c0,0.2,0,0.3,0.1,0.4s0.1,0.1,0.2,0.1c0.2-0.2,0.4-0.8,0.4-1.9c0-1.2,0.1-1.8,0.2-1.9s0.2-1.4,0.2-3.9
				s0.1-4.1,0.1-4.7c0-0.3,0.5-0.6,1.4-1s1.6-0.6,2.2-0.6c0.9,0,1.6,0.3,2,0.9c0.4,0.5,0.6,1,0.6,1.6c0,0.5-0.2,2.7-0.6,6.5
				c-0.1,0.8-0.2,3-0.5,6.7c-0.2,2.8-0.8,6.1-1.8,10c-0.5,2-1,3.5-1.5,4.6s-1.2,2.1-2.2,3.2c-0.5,0.6-0.9,0.9-1.2,0.9
				c-0.2,0-0.5,0.2-0.8,0.7c-0.2,0.4-0.7,0.8-1.5,1.1c-0.8,0.3-1.6,0.5-2.5,0.5c-0.7,0-1.5-0.2-2.4-0.7s-1.4-0.9-1.4-1.2
				c0-0.5,0.2-1,0.7-1.5c0.5-0.6,1.1-1,1.8-1.3c1.2-0.6,2.2-1.4,2.9-2.4c0.8-1,1.4-2.5,2.1-4.5c0.7-2.2,1.1-3.5,1.1-4.1
				c0-0.5-0.3-0.8-1-1.1c-1.8-0.8-3-1.7-3.6-2.7c-0.3-0.6-0.9-3.3-1.9-8c-0.5-2.3-0.8-4.1-0.8-5.5C251.9,99.5,252.4,98.5,253.4,98z"
				/>
			<path class="st2" d="M278.1,98.4c0.5-0.2,1.1-0.4,1.7-0.4c0.5,0,0.8,0,1.1,0.1c1.2,0.1,2,0.3,2.5,0.5c0.4,0.2,0.8,0.6,1.2,1.2
				c0.4,0.7,0.6,1.3,0.6,2c0,0.8-0.3,1.4-0.9,1.9c-0.5,0.5-1,0.8-1.5,0.8c-0.6,0-1.1-0.3-1.6-1.1c-0.4-0.5-0.8-0.8-1.2-0.8
				c-0.4,0-0.7,0.3-1.1,0.8s-0.6,1.1-0.6,1.7v0.3c0,2.3,1.7,6.5,5.2,12.6c0.6,1,1.1,2.8,1.7,5.5c0,0.2,0.1,0.5,0.1,0.9
				c0,2.3-0.5,4-1.4,5.3c-0.4,0.5-1.1,1-2,1.4s-1.8,0.6-2.5,0.6c-0.1,0-0.2,0-0.2,0c-0.1,0-0.2,0-0.2,0c-1-0.2-2.1-0.9-3.5-2.1
				c-1.4-1.3-2-2.3-2-3c0-0.3,0.2-0.7,0.7-1.2c0.5-0.4,0.9-0.7,1.3-0.8c0.1,0,0.2-0.1,0.4-0.1c0.5,0,1.2,0.7,2.2,2
				c0.4,0.5,0.8,0.8,1.2,0.8c0.4,0,0.7-0.2,0.9-0.8c0.1-0.2,0.1-0.5,0.1-0.9c0-2.4-1.1-5.9-3.2-10.5c-2-4.3-3-7.5-3-9.6
				c0-0.9,0.2-1.8,0.5-2.5c0.7-1.6,1.2-2.7,1.6-3.2C276.5,99.4,277.2,98.9,278.1,98.4z"/>
			<path class="st3" d="M159.2,55.2v106.6c0,3.5-2.8,6.3-6.2,6.3H35.8c-1.5,0-2.8-1.3-2.8-2.8C33,165.2,33,57,33,57l120.7-1.8H159.2
				z"/>
			<path class="st4" d="M159.2,51.8v6.1H36.4V46.7h117.9C157,46.7,159.2,48.9,159.2,51.8z"/>
			<path class="st2" d="M35.9,46.7c-1.6,0-2.8,1.3-2.8,2.8v11.3h118.6V50.6c0-2.2-1.8-3.9-3.9-3.9L35.9,46.7L35.9,46.7z M64.1,55.2
				H41.5c-1.6,0-2.8-1.3-2.8-2.8s1.3-2.8,2.8-2.8h22.6c1.6,0,2.8,1.3,2.8,2.8C66.9,53.9,65.7,55.2,64.1,55.2z M143.2,55.2h-22.6
				c-1.6,0-2.8-1.3-2.8-2.8s1.3-2.8,2.8-2.8h22.6c1.6,0,2.8,1.3,2.8,2.8C146,53.9,144.7,55.2,143.2,55.2z"/>
			<path class="st5" d="M151.7,148V58H33v101.8h106.8C146.4,159.8,151.7,154.6,151.7,148z"/>
			<path class="st2" d="M139.3,159.9H34.8c-5.2,0-9.3-4.7-8.3-10c0.7-4.1,4.6-6.9,8.8-6.9h104.1C135.5,148,135.5,154.9,139.3,159.9z
				"/>
			<path class="st4" d="M54.2,54.3h-4.3c-0.9,0-1.7-0.8-1.7-1.7V42.2c0-1.7,1.4-3,3-3h1.6c1.7,0,3,1.3,3,3v10.4
				C55.8,53.6,55.1,54.3,54.2,54.3z"/>
			<path class="st4" d="M134.9,54.3h-4.3c-0.9,0-1.7-0.8-1.7-1.7V42.2c0-1.7,1.4-3,3-3h1.6c1.7,0,3,1.3,3,3v10.4
				C136.6,53.6,135.8,54.3,134.9,54.3z"/>
			<path class="st4" d="M58.6,82h-9c-1.4,0-2.5-1.1-2.5-2.5v-9c0-1.4,1.1-2.5,2.5-2.5h9c1.4,0,2.5,1.1,2.5,2.5v9
				C61.1,80.9,60,82,58.6,82z"/>
			<path class="st4" d="M77.2,82h-9c-1.4,0-2.5-1.1-2.5-2.5v-9c0-1.4,1.1-2.5,2.5-2.5h9c1.4,0,2.5,1.1,2.5,2.5v9
				C79.7,80.9,78.6,82,77.2,82z"/>
			<path class="st4" d="M95.1,82h-9c-1.4,0-2.5-1.1-2.5-2.5v-9c0-1.4,1.1-2.5,2.5-2.5h9c1.4,0,2.5,1.1,2.5,2.5v9
				C97.6,80.9,96.5,82,95.1,82z"/>
			<path class="st4" d="M112.7,82h-9c-1.4,0-2.5-1.1-2.5-2.5v-9c0-1.4,1.1-2.5,2.5-2.5h9c1.4,0,2.5,1.1,2.5,2.5v9
				C115.2,80.9,114.1,82,112.7,82z"/>
			<path class="st4" d="M131.4,82h-9c-1.4,0-2.5-1.1-2.5-2.5v-9c0-1.4,1.1-2.5,2.5-2.5h9c1.4,0,2.5,1.1,2.5,2.5v9
				C134,80.9,132.8,82,131.4,82z"/>
			<path class="st4" d="M58.6,99.7h-9c-1.4,0-2.5-1.1-2.5-2.5v-9c0-1.4,1.1-2.5,2.5-2.5h9c1.4,0,2.5,1.1,2.5,2.5v9
				C61.1,98.5,60,99.7,58.6,99.7z"/>
			<path class="st4" d="M77.2,99.7h-9c-1.4,0-2.5-1.1-2.5-2.5v-9c0-1.4,1.1-2.5,2.5-2.5h9c1.4,0,2.5,1.1,2.5,2.5v9
				C79.7,98.5,78.6,99.7,77.2,99.7z"/>
			<path class="st4" d="M95.1,99.7h-9c-1.4,0-2.5-1.1-2.5-2.5v-9c0-1.4,1.1-2.5,2.5-2.5h9c1.4,0,2.5,1.1,2.5,2.5v9
				C97.6,98.5,96.5,99.7,95.1,99.7z"/>
			<path class="st4" d="M112.7,99.7h-9c-1.4,0-2.5-1.1-2.5-2.5v-9c0-1.4,1.1-2.5,2.5-2.5h9c1.4,0,2.5,1.1,2.5,2.5v9
				C115.2,98.5,114.1,99.7,112.7,99.7z"/>
			<path class="st4" d="M131.4,99.7h-9c-1.4,0-2.5-1.1-2.5-2.5v-9c0-1.4,1.1-2.5,2.5-2.5h9c1.4,0,2.5,1.1,2.5,2.5v9
				C134,98.5,132.8,99.7,131.4,99.7z"/>
			<path class="st2" d="M61.8,67.4l-1.3-1.1L46.3,82.4l1.3,1.1L61.8,67.4z"/>
			<path class="st2" d="M79.9,67.4l-1.3-1.1L64.4,82.4l1.3,1.1L79.9,67.4z"/>
			<path class="st2" d="M99,67.4l-1.3-1.1L83.5,82.4l1.3,1.1L99,67.4z"/>
			<path class="st2" d="M117.1,67.4l-1.3-1.1l-14.2,16.1l1.3,1.1L117.1,67.4z"/>
			<path class="st2" d="M61.8,84.3l-1.3-1.1L46.3,99.3l1.3,1.1L61.8,84.3z"/>
			<path class="st2" d="M79.9,84.3l-1.3-1.1L64.4,99.3l1.3,1.1L79.9,84.3z"/>
			<path class="st2" d="M99,84.3l-1.3-1.2L83.5,99.2l1.3,1.1L99,84.3z"/>
			<path class="st4" d="M58.6,116.6h-9c-1.4,0-2.5-1.1-2.5-2.5v-9c0-1.4,1.1-2.5,2.5-2.5h9c1.4,0,2.5,1.1,2.5,2.5v9
				C61.1,115.5,60,116.6,58.6,116.6z"/>
			<path class="st4" d="M77.2,116.6h-9c-1.4,0-2.5-1.1-2.5-2.5v-9c0-1.4,1.1-2.5,2.5-2.5h9c1.4,0,2.5,1.1,2.5,2.5v9
				C79.7,115.5,78.6,116.6,77.2,116.6z"/>
			<path class="st4" d="M95.1,116.6h-9c-1.4,0-2.5-1.1-2.5-2.5v-9c0-1.4,1.1-2.5,2.5-2.5h9c1.4,0,2.5,1.1,2.5,2.5v9
				C97.6,115.5,96.5,116.6,95.1,116.6z"/>
			<path class="st4" d="M112.7,116.6h-9c-1.4,0-2.5-1.1-2.5-2.5v-9c0-1.4,1.1-2.5,2.5-2.5h9c1.4,0,2.5,1.1,2.5,2.5v9
				C115.2,115.5,114.1,116.6,112.7,116.6z"/>
			<path class="st4" d="M131.4,116.6h-9c-1.4,0-2.5-1.1-2.5-2.5v-9c0-1.4,1.1-2.5,2.5-2.5h9c1.4,0,2.5,1.1,2.5,2.5v9
				C134,115.5,132.8,116.6,131.4,116.6z"/>
			<path class="st4" d="M58.6,133.5h-9c-1.4,0-2.5-1.1-2.5-2.5v-9c0-1.4,1.1-2.5,2.5-2.5h9c1.4,0,2.5,1.1,2.5,2.5v9
				C61.1,132.3,60,133.5,58.6,133.5z"/>
			<path class="st4" d="M77.2,133.5h-9c-1.4,0-2.5-1.1-2.5-2.5v-9c0-1.4,1.1-2.5,2.5-2.5h9c1.4,0,2.5,1.1,2.5,2.5v9
				C79.7,132.3,78.6,133.5,77.2,133.5z"/>
			<path class="st4" d="M95.1,133.5h-9c-1.4,0-2.5-1.1-2.5-2.5v-9c0-1.4,1.1-2.5,2.5-2.5h9c1.4,0,2.5,1.1,2.5,2.5v9
				C97.6,132.3,96.5,133.5,95.1,133.5z"/>
			<path class="st4" d="M112.7,133.5h-9c-1.4,0-2.5-1.1-2.5-2.5v-9c0-1.4,1.1-2.5,2.5-2.5h9c1.4,0,2.5,1.1,2.5,2.5v9
				C115.2,132.3,114.1,133.5,112.7,133.5z"/>
			<path class="st4" d="M131.4,133.5h-9c-1.4,0-2.5-1.1-2.5-2.5v-9c0-1.4,1.1-2.5,2.5-2.5h9c1.4,0,2.5,1.1,2.5,2.5v9
				C134,132.3,132.8,133.5,131.4,133.5z"/>
			<path class="st2" d="M134.1,67.4l-1.3-1.1l-14.2,16.1l1.3,1.1L134.1,67.4z"/>
		</g>
	</g>
</g>
</svg>
