<?xml version="1.0" encoding="utf-8"?>
<!-- Generator: Adobe Illustrator 25.1.0, SVG Export Plug-In . SVG Version: 6.00 Build 0)  -->
<svg version="1.1" id="Layer_1" xmlns="http://www.w3.org/2000/svg" xmlns:xlink="http://www.w3.org/1999/xlink" x="0px" y="0px"
	 viewBox="0 0 331 197.4" style="enable-background:new 0 0 331 197.4;" xml:space="preserve">
<style type="text/css">
	.st0{fill:#FFFFFF;}
	.st1{fill:#808080;}
	.st2{fill:#FF9F1A;}
	.st3{fill:#F4F1EF;}
	.st4{fill:#00A878;}
	.st5{fill:#28C86E;}
	.st6{fill:#32DCD2;}
	.st7{fill:#00CDDC;}
	.st8{fill:none;stroke:#28C86E;stroke-width:1.3755;stroke-linecap:round;stroke-miterlimit:10;}
	.st9{fill:#FFCF8D;}
	.st10{fill:#BFBFBF;}
</style>
<g>
	<g>
		<path class="st0" d="M330.9,141.2c0-130.5,4.7-133-41.6-136C261,3.4,10.2-13,8.1,23.7c-1.2,20.5-7.6,57.8-7.6,93.4
			c0,55.9-6.6,69.3,28.4,76.3c35.6,7.2,166.4,2.7,209.3,1.8C282.5,194.3,330.9,198.1,330.9,141.2z"/>
		<path class="st1" d="M172.2,40.6V29.4h1.3v11.2H172.2z"/>
		<path class="st1" d="M179,40.6c-0.7,0-1.3-0.2-1.7-0.5c-0.4-0.4-0.6-1-0.6-1.9v-4.4h-1.4v-1.1h1.4l0.2-1.9h1.2v1.9h2.3v1.1h-2.3
			v4.4c0,0.5,0.1,0.8,0.3,1s0.6,0.3,1.1,0.3h0.8v1.1H179z"/>
		<path class="st1" d="M181.5,32.9l0.9-3.6h1.5l-1.5,3.6H181.5z"/>
		<path class="st1" d="M187.8,40.8c-0.9,0-1.7-0.2-2.4-0.7c-0.6-0.5-1-1.1-1.1-1.9h1.4c0.1,0.4,0.3,0.8,0.7,1.1
			c0.3,0.3,0.8,0.5,1.4,0.5c0.6,0,1-0.1,1.2-0.4s0.4-0.5,0.4-0.9c0-0.5-0.2-0.8-0.5-1c-0.4-0.2-0.8-0.3-1.5-0.4
			c-0.4-0.1-0.8-0.2-1.3-0.4c-0.4-0.2-0.8-0.4-1.1-0.7c-0.3-0.3-0.4-0.7-0.4-1.2c0-0.7,0.3-1.3,0.8-1.7s1.2-0.7,2.1-0.7
			c0.8,0,1.5,0.2,2.1,0.6c0.5,0.4,0.9,1,0.9,1.8h-1.3c-0.1-0.4-0.2-0.7-0.5-0.9c-0.3-0.2-0.7-0.3-1.2-0.3s-0.9,0.1-1.1,0.3
			s-0.4,0.5-0.4,0.8s0.2,0.6,0.5,0.8c0.3,0.2,0.8,0.3,1.4,0.5c0.5,0.1,1,0.2,1.4,0.4s0.8,0.4,1.1,0.7c0.3,0.3,0.4,0.7,0.4,1.3
			c0,0.7-0.3,1.3-0.8,1.8C189.5,40.5,188.7,40.8,187.8,40.8z"/>
		<path class="st1" d="M199.6,40.8c-0.7,0-1.2-0.1-1.7-0.3c-0.4-0.2-0.8-0.5-1-0.9s-0.3-0.8-0.3-1.2c0-0.8,0.3-1.4,0.9-1.9
			c0.6-0.4,1.5-0.7,2.5-0.7h2.1v-0.1c0-0.7-0.2-1.2-0.5-1.6c-0.4-0.4-0.8-0.5-1.5-0.5c-0.5,0-1,0.1-1.4,0.4s-0.6,0.6-0.7,1.1h-1.2
			c0.1-0.6,0.2-1.1,0.6-1.5c0.3-0.4,0.8-0.7,1.3-0.9c0.5-0.2,1-0.3,1.6-0.3c1.1,0,1.9,0.3,2.5,0.9s0.8,1.4,0.8,2.4v4.9h-1.2
			l-0.1-1.4c-0.2,0.4-0.6,0.8-1,1.1C200.9,40.6,200.4,40.8,199.6,40.8z M199.8,39.6c0.5,0,0.9-0.1,1.3-0.4c0.4-0.3,0.6-0.6,0.8-1
			s0.3-0.9,0.3-1.3l0,0h-2c-0.8,0-1.3,0.1-1.7,0.4c-0.3,0.3-0.5,0.6-0.5,1s0.2,0.8,0.5,1C198.9,39.5,199.3,39.6,199.8,39.6z"/>
		<path class="st1" d="M205.6,40.6v-7.9h1.2l0.1,1.4c0.3-0.5,0.6-0.9,1.1-1.2c0.5-0.3,1-0.4,1.6-0.4c0.9,0,1.7,0.3,2.2,0.9
			s0.8,1.4,0.8,2.6v4.6h-1.3v-4.5c0-1.6-0.7-2.5-2-2.5c-0.7,0-1.2,0.2-1.7,0.7c-0.4,0.5-0.7,1.2-0.7,2.1v4.1L205.6,40.6L205.6,40.6z
			"/>
		<path class="st1" d="M222.6,40.8c-0.8,0-1.4-0.2-2-0.5s-1.1-0.8-1.4-1.5c-0.3-0.6-0.5-1.4-0.5-2.2c0-0.8,0.2-1.6,0.5-2.2
			s0.8-1.1,1.4-1.5s1.3-0.5,2.1-0.5s1.4,0.2,2,0.5s1,0.8,1.3,1.4s0.5,1.2,0.5,1.8c0,0.1,0,0.2,0,0.3c0,0.1,0,0.2,0,0.4h-6.3
			c0,0.6,0.2,1.1,0.4,1.5s0.6,0.7,0.9,0.9c0.4,0.2,0.8,0.3,1.2,0.3c0.6,0,1-0.1,1.4-0.4s0.6-0.6,0.8-1h1.3c-0.2,0.7-0.6,1.4-1.2,1.8
			C224.3,40.5,223.5,40.8,222.6,40.8z M222.6,33.6c-0.6,0-1.2,0.2-1.7,0.6s-0.8,1-0.9,1.7h5c0-0.7-0.3-1.3-0.7-1.7
			C223.8,33.8,223.3,33.6,222.6,33.6z"/>
		<path class="st1" d="M228.6,40.6v-6.8h-1.2v-1.1h1.2v-1.4c0-0.8,0.2-1.3,0.6-1.7c0.4-0.4,0.9-0.5,1.7-0.5h0.8v1.1h-0.6
			c-0.4,0-0.7,0.1-0.9,0.2c-0.2,0.2-0.3,0.5-0.3,0.8v1.3h2v1.1h-2v6.8L228.6,40.6L228.6,40.6z"/>
		<path class="st1" d="M233.9,40.6v-6.8h-1.2v-1.1h1.2v-1.4c0-0.8,0.2-1.3,0.6-1.7c0.4-0.4,0.9-0.5,1.7-0.5h0.8v1.1h-0.6
			c-0.4,0-0.7,0.1-0.9,0.2c-0.2,0.2-0.3,0.5-0.3,0.8v1.3h4.9v7.9h-1.3v-6.8h-3.6v6.8L233.9,40.6L233.9,40.6z M239.5,31.1
			c-0.3,0-0.5-0.1-0.7-0.3c-0.2-0.2-0.3-0.4-0.3-0.7c0-0.3,0.1-0.5,0.3-0.6c0.2-0.2,0.4-0.3,0.7-0.3s0.5,0.1,0.7,0.3
			c0.2,0.2,0.3,0.4,0.3,0.6c0,0.3-0.1,0.5-0.3,0.7C240,31,239.8,31.1,239.5,31.1z"/>
		<path class="st1" d="M246.2,40.8c-0.8,0-1.4-0.2-2-0.5s-1.1-0.8-1.4-1.5c-0.3-0.6-0.5-1.4-0.5-2.2c0-0.8,0.2-1.6,0.5-2.2
			s0.8-1.1,1.4-1.5s1.3-0.5,2-0.5c0.9,0,1.7,0.2,2.4,0.7c0.6,0.5,1,1.1,1.2,2h-1.4c-0.1-0.5-0.4-0.9-0.8-1.1
			c-0.4-0.3-0.9-0.4-1.5-0.4c-0.4,0-0.9,0.1-1.3,0.3c-0.4,0.2-0.7,0.6-1,1s-0.4,1-0.4,1.7s0.1,1.2,0.4,1.7s0.6,0.8,1,1
			s0.8,0.3,1.3,0.3c0.6,0,1-0.1,1.5-0.4c0.4-0.3,0.7-0.7,0.8-1.2h1.4c-0.2,0.8-0.6,1.4-1.2,1.9C247.9,40.5,247.1,40.8,246.2,40.8z"
			/>
		<path class="st1" d="M252.5,30.9c-0.3,0-0.5-0.1-0.7-0.3c-0.2-0.2-0.3-0.4-0.3-0.7s0.1-0.5,0.3-0.6c0.2-0.2,0.4-0.3,0.7-0.3
			s0.5,0.1,0.7,0.3c0.2,0.2,0.3,0.4,0.3,0.6c0,0.3-0.1,0.5-0.3,0.7C252.9,30.8,252.7,30.9,252.5,30.9z M251.8,40.6v-7.9h1.3v7.9
			H251.8z"/>
		<path class="st1" d="M259,40.8c-0.8,0-1.4-0.2-2-0.5s-1-0.8-1.4-1.5c-0.3-0.6-0.5-1.4-0.5-2.2c0-0.8,0.2-1.6,0.5-2.2
			s0.8-1.1,1.4-1.5s1.3-0.5,2.1-0.5c0.8,0,1.4,0.2,2,0.5s1,0.8,1.3,1.4s0.5,1.2,0.5,1.8c0,0.1,0,0.2,0,0.3c0,0.1,0,0.2,0,0.4h-6.3
			c0,0.6,0.2,1.1,0.4,1.5c0.2,0.4,0.6,0.7,0.9,0.9c0.4,0.2,0.8,0.3,1.2,0.3c0.6,0,1-0.1,1.4-0.4s0.6-0.6,0.8-1h1.3
			c-0.2,0.7-0.6,1.4-1.2,1.8C260.8,40.5,260,40.8,259,40.8z M259,33.6c-0.6,0-1.2,0.2-1.7,0.6s-0.8,1-0.9,1.7h5
			c0-0.7-0.3-1.3-0.7-1.7C260.3,33.8,259.7,33.6,259,33.6z"/>
		<path class="st1" d="M264.6,40.6v-7.9h1.2l0.1,1.4c0.3-0.5,0.6-0.9,1.1-1.2c0.5-0.3,1-0.4,1.6-0.4c0.9,0,1.7,0.3,2.2,0.9
			s0.8,1.4,0.8,2.6v4.6h-1.3v-4.5c0-1.6-0.7-2.5-2-2.5c-0.7,0-1.2,0.2-1.7,0.7s-0.7,1.2-0.7,2.1v4.1L264.6,40.6L264.6,40.6z"/>
		<path class="st1" d="M276.9,40.6c-0.7,0-1.3-0.2-1.7-0.5c-0.4-0.4-0.6-1-0.6-1.9v-4.4h-1.4v-1.1h1.4l0.2-1.9h1.2v1.9h2.3v1.1H276
			v4.4c0,0.5,0.1,0.8,0.3,1c0.2,0.2,0.6,0.3,1.1,0.3h0.8v1.1H276.9z"/>
		<path class="st1" d="M173.7,62.6l-2.3-7.9h1.3l1.7,6.2l1.9-6.2h1.5l1.9,6.2l1.7-6.2h1.4l-2.3,7.9h-1.4l-1.9-6.5l-2,6.5H173.7z"/>
		<path class="st1" d="M186.5,62.8c-0.7,0-1.2-0.1-1.6-0.3c-0.4-0.2-0.8-0.5-1-0.9s-0.3-0.8-0.3-1.2c0-0.8,0.3-1.4,0.9-1.9
			c0.6-0.4,1.5-0.7,2.5-0.7h2.1v-0.1c0-0.7-0.2-1.2-0.5-1.6c-0.4-0.4-0.8-0.5-1.5-0.5c-0.5,0-1,0.1-1.4,0.4s-0.6,0.6-0.7,1.1h-1.4
			c0.1-0.6,0.2-1.1,0.6-1.5c0.3-0.4,0.8-0.7,1.3-0.9c0.5-0.2,1-0.3,1.6-0.3c1.1,0,1.9,0.3,2.5,0.9s0.8,1.4,0.8,2.4v4.9h-1.2
			l-0.1-1.4c-0.2,0.4-0.6,0.8-1,1.1C187.8,62.6,187.3,62.8,186.5,62.8z M186.7,61.6c0.5,0,0.9-0.1,1.3-0.4c0.4-0.3,0.7-0.6,0.8-1
			c0.2-0.4,0.3-0.9,0.3-1.3l0,0h-2c-0.8,0-1.4,0.1-1.7,0.4s-0.5,0.6-0.5,1s0.2,0.8,0.5,1C185.8,61.5,186.2,61.6,186.7,61.6z"/>
		<path class="st1" d="M193.2,66.1l2-4.3h-0.5l-3.2-7.2h1.5l2.6,6.2l2.8-6.2h1.4l-5.2,11.5H193.2z"/>
		<path class="st1" d="M208.6,62.6c-0.7,0-1.3-0.2-1.7-0.5c-0.4-0.4-0.6-1-0.6-1.9v-4.4h-1.4v-1.1h1.4l0.2-1.9h1.2v1.9h2.3v1.1h-2.3
			v4.4c0,0.5,0.1,0.8,0.3,1s0.6,0.3,1.1,0.3h0.8v1.1H208.6z"/>
		<path class="st1" d="M215,62.8c-0.8,0-1.4-0.2-2-0.5s-1.1-0.8-1.4-1.4c-0.3-0.6-0.5-1.4-0.5-2.2s0.2-1.6,0.5-2.2s0.8-1.1,1.4-1.5
			c0.6-0.3,1.3-0.5,2-0.5s1.4,0.2,2,0.5s1.1,0.8,1.4,1.5c0.3,0.6,0.5,1.4,0.5,2.2s-0.2,1.6-0.5,2.2s-0.8,1.1-1.4,1.4
			C216.5,62.6,215.8,62.8,215,62.8z M215,61.6c0.5,0,0.9-0.1,1.3-0.3c0.4-0.2,0.7-0.6,1-1c0.2-0.4,0.4-1,0.4-1.7s-0.1-1.2-0.4-1.7
			c-0.2-0.4-0.6-0.8-0.9-1c-0.4-0.2-0.8-0.3-1.3-0.3s-0.9,0.1-1.3,0.3c-0.4,0.2-0.7,0.6-1,1c-0.2,0.5-0.4,1-0.4,1.7s0.1,1.2,0.4,1.7
			c0.2,0.5,0.6,0.8,0.9,1C214.2,61.5,214.6,61.6,215,61.6z"/>
		<path class="st1" d="M228.7,62.8c-0.8,0-1.4-0.2-2-0.5c-0.6-0.4-1-0.8-1.4-1.5c-0.3-0.6-0.5-1.4-0.5-2.2c0-0.8,0.2-1.6,0.5-2.2
			s0.8-1.1,1.4-1.5c0.6-0.4,1.3-0.5,2.1-0.5s1.4,0.2,2,0.5s1,0.8,1.3,1.4s0.4,1.2,0.4,1.8c0,0.1,0,0.2,0,0.3c0,0.1,0,0.2,0,0.4h-6.3
			c0,0.6,0.2,1.1,0.4,1.5s0.6,0.7,0.9,0.9c0.4,0.2,0.8,0.3,1.2,0.3c0.6,0,1-0.1,1.4-0.4s0.6-0.6,0.8-1h1.3c-0.2,0.7-0.6,1.4-1.2,1.8
			C230.4,62.5,229.6,62.8,228.7,62.8z M228.7,55.6c-0.6,0-1.2,0.2-1.7,0.6s-0.8,1-0.9,1.7h5c0-0.7-0.3-1.3-0.7-1.7
			C229.9,55.8,229.4,55.6,228.7,55.6z"/>
		<path class="st1" d="M233.1,62.6l2.8-4l-2.8-4h1.5l2.2,3.3l2.2-3.3h1.4l-2.8,4l2.8,4H239l-2.2-3.3l-2.2,3.3H233.1z"/>
		<path class="st1" d="M245.1,62.8c-0.8,0-1.4-0.2-2-0.5s-1-0.8-1.4-1.5c-0.3-0.6-0.5-1.4-0.5-2.2c0-0.8,0.2-1.6,0.5-2.2
			s0.8-1.1,1.4-1.5s1.3-0.5,2.1-0.5s1.4,0.2,2,0.5s1,0.8,1.3,1.4s0.5,1.2,0.5,1.8c0,0.1,0,0.2,0,0.3c0,0.1,0,0.2,0,0.4h-6.3
			c0,0.6,0.2,1.1,0.4,1.5s0.6,0.7,0.9,0.9c0.4,0.2,0.8,0.3,1.2,0.3c0.5,0,1-0.1,1.4-0.4s0.6-0.6,0.8-1h1.3c-0.2,0.7-0.6,1.4-1.2,1.8
			C246.8,62.5,246,62.8,245.1,62.8z M245.1,55.6c-0.6,0-1.2,0.2-1.7,0.6s-0.8,1-0.9,1.7h5c0-0.7-0.3-1.3-0.7-1.7
			C246.3,55.8,245.7,55.6,245.1,55.6z"/>
		<path class="st1" d="M250.6,62.6v-7.9h1.2l0.1,1.5c0.2-0.5,0.6-0.9,1.1-1.2s1.1-0.5,1.9-0.5v1.4h-0.4c-0.5,0-0.9,0.1-1.3,0.2
			c-0.4,0.2-0.7,0.5-0.9,0.8c-0.2,0.4-0.4,0.9-0.4,1.6v4h-1.3V62.6z"/>
		<path class="st1" d="M259.8,62.8c-0.8,0-1.4-0.2-2-0.5s-1.1-0.8-1.4-1.5c-0.3-0.6-0.5-1.4-0.5-2.2c0-0.8,0.2-1.6,0.5-2.2
			c0.4-0.6,0.8-1.1,1.4-1.5s1.3-0.5,2-0.5c0.9,0,1.7,0.2,2.4,0.7c0.7,0.5,1.1,1.1,1.2,2H262c-0.1-0.5-0.4-0.9-0.8-1.1
			c-0.4-0.3-0.9-0.4-1.5-0.4c-0.4,0-0.9,0.1-1.3,0.3c-0.4,0.2-0.7,0.6-1,1s-0.4,1-0.4,1.7s0.1,1.2,0.4,1.7s0.6,0.8,1,1
			s0.8,0.3,1.3,0.3c0.6,0,1-0.1,1.5-0.4c0.4-0.3,0.7-0.7,0.8-1.2h1.4c-0.2,0.8-0.6,1.4-1.2,1.9C261.5,62.5,260.7,62.8,259.8,62.8z"
			/>
		<path class="st1" d="M266,52.9c-0.3,0-0.5-0.1-0.7-0.3c-0.2-0.2-0.3-0.4-0.3-0.7s0.1-0.5,0.3-0.6c0.2-0.2,0.4-0.3,0.7-0.3
			c0.3,0,0.5,0.1,0.7,0.3c0.2,0.2,0.3,0.4,0.3,0.6c0,0.3-0.1,0.5-0.3,0.7C266.5,52.8,266.3,52.9,266,52.9z M265.4,62.6v-7.9h1.3v7.9
			H265.4z"/>
		<path class="st1" d="M272.1,62.8c-1,0-1.7-0.2-2.4-0.7c-0.6-0.5-1-1.1-1.1-1.9h1.4c0.1,0.4,0.3,0.8,0.7,1.1s0.8,0.5,1.4,0.5
			s1-0.1,1.2-0.4c0.3-0.2,0.4-0.5,0.4-0.9c0-0.5-0.2-0.8-0.5-1s-0.8-0.3-1.5-0.4c-0.4-0.1-0.9-0.2-1.3-0.4s-0.8-0.4-1.1-0.7
			c-0.3-0.3-0.4-0.7-0.4-1.2c0-0.7,0.3-1.3,0.8-1.7s1.2-0.7,2.1-0.7c0.8,0,1.5,0.2,2.1,0.6c0.5,0.4,0.8,1,0.9,1.8h-1.3
			c0-0.4-0.2-0.7-0.5-0.9c-0.3-0.2-0.7-0.3-1.2-0.3s-0.8,0.1-1.1,0.3s-0.4,0.5-0.4,0.8s0.2,0.6,0.5,0.8c0.3,0.2,0.8,0.3,1.4,0.5
			c0.5,0.1,1,0.2,1.4,0.4s0.8,0.4,1.1,0.7c0.3,0.3,0.4,0.7,0.4,1.3c0,0.7-0.3,1.3-0.8,1.8C273.8,62.5,273,62.8,272.1,62.8z"/>
		<path class="st1" d="M280.6,62.8c-0.8,0-1.4-0.2-2-0.5s-1.1-0.8-1.4-1.5c-0.3-0.6-0.5-1.4-0.5-2.2c0-0.8,0.2-1.6,0.5-2.2
			s0.8-1.1,1.4-1.5s1.3-0.5,2.1-0.5c0.8,0,1.4,0.2,2,0.5s1,0.8,1.3,1.4s0.4,1.2,0.4,1.8c0,0.1,0,0.2,0,0.3c0,0.1,0,0.2,0,0.4h-6.3
			c0,0.6,0.2,1.1,0.4,1.5c0.2,0.4,0.6,0.7,0.9,0.9c0.4,0.2,0.8,0.3,1.2,0.3c0.5,0,1-0.1,1.4-0.4s0.6-0.6,0.8-1h1.3
			c-0.2,0.7-0.6,1.4-1.2,1.8C282.3,62.5,281.6,62.8,280.6,62.8z M280.6,55.6c-0.6,0-1.2,0.2-1.7,0.6s-0.8,1-0.9,1.7h5
			c0-0.7-0.3-1.3-0.7-1.7C281.9,55.8,281.3,55.6,280.6,55.6z"/>
		<path class="st1" d="M285.1,64.5L286,61h1.4l-1.4,3.5H285.1z"/>
		<path class="st1" d="M175.2,84.8c-0.9,0-1.7-0.2-2.4-0.7c-0.6-0.5-1-1.1-1.1-1.9h1.4c0.1,0.4,0.3,0.8,0.7,1.1
			c0.4,0.3,0.8,0.5,1.5,0.5c0.6,0,1-0.1,1.2-0.4c0.3-0.2,0.4-0.5,0.4-0.9c0-0.5-0.2-0.8-0.5-1s-0.8-0.3-1.5-0.4
			c-0.4-0.1-0.9-0.2-1.3-0.4c-0.4-0.2-0.8-0.4-1.1-0.7c-0.3-0.3-0.4-0.7-0.4-1.2c0-0.7,0.3-1.3,0.8-1.7s1.2-0.7,2.1-0.7
			c0.8,0,1.5,0.2,2.1,0.6c0.5,0.4,0.9,1,0.9,1.8h-1.3c-0.1-0.4-0.2-0.7-0.5-0.9c-0.3-0.2-0.7-0.3-1.2-0.3s-0.9,0.1-1.1,0.3
			c-0.3,0.2-0.4,0.5-0.4,0.8s0.2,0.6,0.5,0.8c0.3,0.2,0.8,0.3,1.4,0.5c0.5,0.1,1,0.2,1.4,0.4c0.4,0.1,0.8,0.4,1.1,0.7
			c0.3,0.3,0.4,0.7,0.4,1.3c0,0.7-0.3,1.3-0.8,1.8C176.8,84.5,176.1,84.8,175.2,84.8z"/>
		<path class="st1" d="M183.7,84.8c-0.8,0-1.4-0.2-2-0.5s-1.1-0.8-1.4-1.4c-0.4-0.6-0.5-1.4-0.5-2.2s0.2-1.6,0.5-2.2
			s0.8-1.1,1.4-1.5c0.6-0.3,1.3-0.5,2-0.5s1.4,0.2,2,0.5s1.1,0.8,1.4,1.5c0.4,0.6,0.5,1.4,0.5,2.2s-0.2,1.6-0.5,2.2
			c-0.4,0.6-0.8,1.1-1.4,1.4C185.2,84.6,184.5,84.8,183.7,84.8z M183.7,83.6c0.5,0,0.9-0.1,1.3-0.3c0.4-0.2,0.7-0.6,1-1
			c0.2-0.4,0.4-1,0.4-1.7s-0.1-1.2-0.4-1.7c-0.2-0.4-0.6-0.8-0.9-1c-0.4-0.2-0.8-0.3-1.3-0.3s-0.9,0.1-1.3,0.3c-0.4,0.2-0.7,0.6-1,1
			c-0.2,0.5-0.4,1-0.4,1.7s0.1,1.2,0.4,1.7c0.2,0.5,0.6,0.8,0.9,1C182.9,83.5,183.3,83.6,183.7,83.6z"/>
		<path class="st1" d="M194.7,74.9c-0.3,0-0.5-0.1-0.7-0.3c-0.2-0.2-0.3-0.4-0.3-0.7s0.1-0.5,0.3-0.6c0.2-0.2,0.4-0.3,0.7-0.3
			s0.5,0.1,0.7,0.3c0.2,0.2,0.3,0.4,0.3,0.6c0,0.3-0.1,0.5-0.3,0.7C195.1,74.8,194.9,74.9,194.7,74.9z M194,84.6v-7.9h1.3v7.9H194z"
			/>
		<path class="st1" d="M200.8,84.6c-0.7,0-1.3-0.2-1.7-0.5c-0.4-0.4-0.6-1-0.6-1.9v-4.4h-1.4v-1.1h1.4l0.2-1.9h1.2v1.9h2.3v1.1h-2.4
			v4.4c0,0.5,0.1,0.8,0.3,1s0.6,0.3,1.1,0.3h0.8v1.1H200.8z"/>
		<path class="st1" d="M203.3,76.9l0.9-3.6h1.5l-1.5,3.6H203.3z"/>
		<path class="st1" d="M209.6,84.8c-0.9,0-1.7-0.2-2.4-0.7c-0.6-0.5-1-1.1-1.1-1.9h1.4c0.1,0.4,0.3,0.8,0.7,1.1
			c0.3,0.3,0.8,0.5,1.4,0.5c0.6,0,1-0.1,1.2-0.4s0.4-0.5,0.4-0.9c0-0.5-0.2-0.8-0.5-1c-0.4-0.2-0.8-0.3-1.5-0.4
			c-0.4-0.1-0.9-0.2-1.3-0.4c-0.4-0.2-0.8-0.4-1.1-0.7c-0.3-0.3-0.4-0.7-0.4-1.2c0-0.7,0.3-1.3,0.8-1.7s1.2-0.7,2.1-0.7
			c0.8,0,1.5,0.2,2.1,0.6c0.5,0.4,0.9,1,0.9,1.8H211c-0.1-0.4-0.2-0.7-0.5-0.9c-0.3-0.2-0.7-0.3-1.2-0.3s-0.9,0.1-1.1,0.3
			s-0.4,0.5-0.4,0.8s0.2,0.6,0.5,0.8c0.3,0.2,0.8,0.3,1.4,0.5c0.5,0.1,1,0.2,1.4,0.4c0.4,0.1,0.8,0.4,1.1,0.7
			c0.3,0.3,0.4,0.7,0.4,1.3c0,0.7-0.3,1.3-0.8,1.8C211.3,84.5,210.5,84.8,209.6,84.8z"/>
		<path class="st1" d="M221.9,82.1c-0.4,0-0.9-0.1-1.2-0.2l-0.8,0.8c0.1,0.1,0.3,0.2,0.4,0.2c0.2,0.1,0.4,0.1,0.8,0.2
			c0.3,0,0.8,0.1,1.4,0.1c1.1,0.1,1.8,0.3,2.3,0.7c0.5,0.4,0.7,1,0.7,1.6c0,0.5-0.1,0.9-0.4,1.3c-0.2,0.4-0.6,0.8-1.2,1
			c-0.5,0.3-1.2,0.4-2,0.4c-0.7,0-1.4-0.1-1.9-0.3c-0.5-0.2-1-0.5-1.3-0.9s-0.5-0.9-0.5-1.4c0-0.3,0.1-0.6,0.2-1
			c0.2-0.4,0.5-0.7,0.9-1c-0.2-0.1-0.4-0.2-0.6-0.3c-0.2-0.1-0.3-0.2-0.5-0.4v-0.4l1.4-1.3c-0.6-0.5-0.9-1.2-0.9-2.1
			c0-0.5,0.1-1,0.4-1.4c0.2-0.4,0.6-0.8,1.1-1s1-0.4,1.7-0.4c0.5,0,0.9,0.1,1.2,0.2h2.9v1l-1.5,0.1c0.3,0.5,0.5,1,0.5,1.6
			c0,0.5-0.1,1-0.4,1.4c-0.2,0.4-0.6,0.8-1.1,1C223.2,82,222.6,82.1,221.9,82.1z M219.6,85.6c0,0.5,0.2,0.9,0.7,1.2
			c0.4,0.3,1,0.4,1.7,0.4s1.2-0.1,1.6-0.4s0.6-0.7,0.6-1.1c0-0.3-0.1-0.6-0.4-0.9c-0.3-0.2-0.8-0.4-1.5-0.4c-0.6,0-1.1-0.1-1.5-0.2
			c-0.4,0.2-0.7,0.5-0.9,0.8C219.7,85.1,219.6,85.4,219.6,85.6z M221.9,81c0.6,0,1-0.1,1.4-0.4c0.3-0.3,0.5-0.7,0.5-1.3
			c0-0.5-0.2-1-0.5-1.3s-0.8-0.4-1.4-0.4c-0.6,0-1,0.1-1.4,0.4c-0.3,0.3-0.5,0.7-0.5,1.3c0,0.6,0.2,1,0.5,1.3
			C220.9,80.8,221.4,81,221.9,81z"/>
		<path class="st1" d="M227.6,84.6v-7.9h1.2l0.1,1.5c0.2-0.5,0.6-0.9,1.1-1.2s1.1-0.5,1.9-0.5v1.4h-0.4c-0.5,0-0.9,0.1-1.3,0.2
			c-0.4,0.2-0.7,0.5-0.9,0.8c-0.2,0.4-0.3,0.9-0.3,1.6v4h-1.4V84.6z"/>
		<path class="st1" d="M236.7,84.8c-0.8,0-1.4-0.2-2-0.5c-0.6-0.4-1.1-0.8-1.4-1.5c-0.3-0.6-0.5-1.4-0.5-2.2c0-0.8,0.2-1.6,0.5-2.2
			s0.8-1.1,1.4-1.5c0.6-0.4,1.3-0.5,2.1-0.5s1.4,0.2,2,0.5s1,0.8,1.3,1.4s0.4,1.2,0.4,1.8c0,0.1,0,0.2,0,0.3c0,0.1,0,0.2,0,0.4h-6.3
			c0,0.6,0.2,1.1,0.4,1.5s0.6,0.7,0.9,0.9c0.4,0.2,0.8,0.3,1.2,0.3c0.5,0,1-0.1,1.4-0.4s0.7-0.6,0.8-1h1.3c-0.2,0.7-0.6,1.4-1.2,1.8
			C238.4,84.5,237.7,84.8,236.7,84.8z M236.7,77.6c-0.6,0-1.2,0.2-1.7,0.6s-0.8,1-0.9,1.7h5c0-0.7-0.3-1.3-0.7-1.7
			C238,77.8,237.4,77.6,236.7,77.6z"/>
		<path class="st1" d="M244.9,84.8c-0.7,0-1.2-0.1-1.6-0.3c-0.4-0.2-0.8-0.5-1-0.9s-0.3-0.8-0.3-1.2c0-0.8,0.3-1.4,0.9-1.9
			s1.5-0.7,2.5-0.7h2.1v-0.1c0-0.7-0.2-1.2-0.5-1.6c-0.4-0.4-0.9-0.5-1.5-0.5c-0.5,0-1,0.1-1.4,0.4s-0.6,0.6-0.7,1.1H242
			c0-0.6,0.2-1.1,0.6-1.5c0.3-0.4,0.8-0.7,1.3-0.9c0.5-0.2,1-0.3,1.6-0.3c1.1,0,1.9,0.3,2.5,0.9s0.8,1.4,0.8,2.4v4.9h-1.2l-0.1-1.4
			c-0.2,0.4-0.6,0.8-1,1.1C246.2,84.6,245.6,84.8,244.9,84.8z M245.1,83.6c0.5,0,0.9-0.1,1.3-0.4c0.4-0.3,0.7-0.6,0.8-1
			c0.2-0.4,0.3-0.9,0.3-1.3l0,0h-2c-0.8,0-1.4,0.1-1.7,0.4s-0.5,0.6-0.5,1s0.2,0.8,0.5,1C244.1,83.5,244.5,83.6,245.1,83.6z"/>
		<path class="st1" d="M253.8,84.6c-0.7,0-1.3-0.2-1.7-0.5c-0.4-0.4-0.6-1-0.6-1.9v-4.4h-1.4v-1.1h1.4l0.2-1.9h1.2v1.9h2.3v1.1h-2.4
			v4.4c0,0.5,0.1,0.8,0.3,1s0.6,0.3,1.1,0.3h0.8v1.1H253.8z"/>
		<path class="st1" d="M261.5,84.6v-6.8h-1.2v-1.1h1.2v-1.4c0-0.8,0.2-1.3,0.6-1.7c0.4-0.4,0.9-0.5,1.7-0.5h0.8v1.1H264
			c-0.4,0-0.7,0.1-0.9,0.2c-0.2,0.2-0.3,0.5-0.3,0.8v1.3h2v1.1h-2v6.8L261.5,84.6L261.5,84.6z"/>
		<path class="st1" d="M269.7,84.8c-0.8,0-1.4-0.2-2-0.5s-1.1-0.8-1.4-1.4s-0.5-1.4-0.5-2.2s0.2-1.6,0.5-2.2s0.8-1.1,1.4-1.5
			s1.3-0.5,2-0.5s1.4,0.2,2,0.5s1.1,0.8,1.4,1.5c0.3,0.6,0.5,1.4,0.5,2.2s-0.2,1.6-0.5,2.2s-0.8,1.1-1.4,1.4
			C271.2,84.6,270.5,84.8,269.7,84.8z M269.7,83.6c0.5,0,0.9-0.1,1.3-0.3c0.4-0.2,0.7-0.6,1-1c0.2-0.4,0.4-1,0.4-1.7
			s-0.1-1.2-0.4-1.7c-0.2-0.4-0.6-0.8-0.9-1c-0.4-0.2-0.8-0.3-1.3-0.3s-0.9,0.1-1.3,0.3c-0.4,0.2-0.7,0.6-1,1
			c-0.2,0.5-0.4,1-0.4,1.7s0.1,1.2,0.4,1.7c0.2,0.5,0.6,0.8,0.9,1C268.9,83.5,269.3,83.6,269.7,83.6z"/>
		<path class="st1" d="M275.6,84.6v-7.9h1.2l0.1,1.5c0.2-0.5,0.6-0.9,1.1-1.2s1.1-0.5,1.9-0.5v1.4h-0.4c-0.5,0-0.9,0.1-1.3,0.2
			c-0.4,0.2-0.7,0.5-0.9,0.8c-0.2,0.4-0.4,0.9-0.4,1.6v4h-1.3V84.6z"/>
		<path class="st2" d="M172.9,103.2c0.4-0.4,1.1-0.5,2.1-0.5h1.1c1.6,0.1,2.6,0.1,3,0.2c0.2,0.1,0.6,0.1,1.3,0.2
			c0.7,0,1.2,0.2,1.5,0.4c0.3,0.2,0.5,0.6,0.5,1.2s-0.1,1-0.4,1.2c-0.2,0.2-0.6,0.4-1.1,0.5c-0.6,0.1-1,0.2-1.1,0.3
			c-0.2,0.1-0.2,3.1-0.2,8.7c0,3.9,0.1,6.7,0.1,8.3c0.1,1.3,0.1,2,0.1,2.1c0,0.6-0.1,1.2-0.4,1.7c-0.3,0.6-0.9,0.9-1.6,0.9
			c-0.5,0-0.9-0.1-1.4-0.4l-0.9-0.5l0.1-10.4c0.1-2.7,0.1-5.4,0.1-8c0-1.6-0.1-2.5-0.4-2.6c-0.4-0.2-0.6-0.3-0.7-0.2
			c-0.1,0-0.3,0-0.5,0c-0.6,0-1-0.2-1.4-0.5s-0.5-0.7-0.5-1.1C172.1,104,172.4,103.6,172.9,103.2z"/>
		<path class="st2" d="M187.4,103.1c0.4-0.4,0.8-0.6,1.4-0.6c0.6,0,1,0.2,1.4,0.6l0.6,0.6l0.3,10.3c0.2,5.7,0.2,9,0.2,9.8
			c0,0.5,0,0.8,0,1.1c0,0.3,0,0.5-0.1,0.7c0,0.2-0.1,0.3-0.1,0.4c-0.1,0.1-0.1,0.2-0.1,0.2s-0.1,0.1-0.2,0.1s-0.2,0.1-0.2,0.1
			c-0.3,0.2-0.6,0.3-0.8,0.3c-0.1,0-0.4-0.1-0.9-0.2c-0.7-0.3-1.1-0.6-1.2-0.8c-0.1-0.2-0.2-3.8-0.3-11s-0.1-10.8-0.2-10.9
			C187,103.8,187.1,103.5,187.4,103.1z"/>
		<path class="st2" d="M207.4,105.1c0.4-0.2,0.8-0.2,1.1-0.2c0.8,0,1.4,0.3,1.7,0.8c0.2,0.3,0.5,1.6,0.7,3.9s0.4,4.7,0.5,7.4
			c0,0.8,0.1,2.1,0.2,3.7s0.1,3,0.2,4.1c0.1,1.2,0.1,2.1,0.1,2.8c0,0.4-0.2,0.7-0.7,1s-0.9,0.4-1.5,0.4c-0.5,0-0.8-0.1-1-0.3
			l-0.6-0.5l-0.1-5.5c-0.2-6.3-0.5-9.5-0.8-9.5c-0.2,0-0.6,0.8-1,2.4c-0.3,0.9-0.6,1.5-0.9,1.9c-0.3,0.4-0.6,0.5-1.1,0.5
			c-0.3,0-0.7-0.1-1.2-0.3c-0.5-0.2-1-0.7-1.3-1.4c-0.4-0.8-0.6-1.2-0.6-1.3c0-0.1-0.1-0.3-0.2-0.6s-0.3-0.6-0.5-0.9
			s-0.3-0.4-0.3-0.3v0.5c0,1.3,0.1,3.3,0.1,5.9l0.2,6.3l-0.6,1c-0.7,1-1.2,1.5-1.7,1.5c-0.3,0-0.6-0.2-0.9-0.7
			c-0.2-0.4-0.4-0.9-0.5-1.7c-0.1-0.8-0.1-3-0.2-6.9c-0.2-7.1-0.3-11.1-0.5-12c0-0.1-0.1-0.3-0.1-0.5c0-0.3,0.2-0.7,0.5-1
			c0.4-0.4,0.8-0.5,1.3-0.5s1.1,0.1,1.7,0.4c0.6,0.3,1.1,0.7,1.4,1.1c0.3,0.5,1.1,1.8,2.3,4c0.3,0.6,0.5,0.9,0.7,0.9
			c0.1,0,0.3-0.2,0.5-0.6c0.2-0.5,0.4-1.1,0.8-1.8c0.4-0.9,0.6-1.4,0.6-1.5c0-0.3,0.2-0.7,0.6-1.4
			C206.9,105.6,207.2,105.2,207.4,105.1z"/>
		<path class="st2" d="M218.4,105.8c0.4-0.1,0.8-0.1,1.5-0.1c1.7,0,2.7,0.2,3.2,0.5c0.3,0.3,0.5,0.6,0.5,1s-0.1,0.7-0.5,1
			c-0.3,0.3-0.7,0.4-1.2,0.4s-0.8,0.1-0.9,0.3c-0.1,0.2-0.2,0.8-0.2,1.6c0,0.2,0,1,0.1,2.3c0.1,1.5,0.1,2.5,0.2,2.9s0.2,0.7,0.3,0.7
			c0,0,0.2,0,0.6,0c0.4,0,0.7,0,0.9,0c0.7,0,1.3,0.2,1.6,0.6c0.2,0.2,0.3,0.4,0.3,0.6c0,0.5-0.7,0.9-2,1.4c-0.8,0.3-1.2,0.5-1.4,0.6
			s-0.3,0.5-0.3,1c-0.1,0.5-0.1,0.9-0.1,1.3c0,1.5,0.1,2.7,0.4,3.4c0.1,0.3,0.3,0.5,0.4,0.6c0.1,0.1,0.5,0.1,1,0.1
			c0.6,0,1.2,0.1,1.7,0.4s0.7,0.6,0.7,1c0,0.3-0.2,0.6-0.7,1.1c-0.7,0.7-2,1-3.7,1c-1.8,0-2.9-0.4-3.5-1.1c-0.3-0.4-0.5-3-0.5-7.8
			c-0.1-6-0.1-9.5-0.2-10.6l-0.1-3.4l0.6-0.4C217.5,106.1,218,105.9,218.4,105.8z"/>
		<path class="st2" d="M240.2,118.9v3h-11.3v-3H240.2z"/>
		<path class="st2" d="M244.9,103.8c0.3-0.2,1-0.2,2.2-0.2c1.5,0,2.4,0.1,2.7,0.3c0.5,0.3,1,0.7,1.6,1.3c0.6,0.6,1,1.1,1.2,1.6
			c0.4,0.7,0.6,2.4,0.7,4.9c0.1,1.5,0.1,2.4,0.1,2.6c0,1-0.1,1.9-0.4,2.7c-0.3,1-0.7,1.7-1.1,2.2c-0.4,0.5-1.1,0.9-1.9,1.1l-1.3,0.5
			l-0.1,3.8c0,2.2-0.1,3.6-0.2,4.1c-0.2,0.5-0.6,0.7-1.3,0.7c-0.6,0-1.2-0.2-1.7-0.5l-0.7-0.5v-3.3v-0.8c0-2.6-0.1-5.9-0.2-9.8
			c-0.1-3.9-0.3-6.3-0.5-7.3c-0.1-0.7-0.1-1.2-0.1-1.7C243.9,104.7,244.2,104.1,244.9,103.8z M248.9,108.1c-0.3-0.7-0.6-1-0.7-1
			c-0.1,0-0.1,0-0.2,0.1c0,1,0,2.2,0,3.5c0,4.3,0.2,6.5,0.5,6.5c0.1,0,0.3-0.3,0.6-0.9c0.2-0.5,0.4-1.2,0.4-2c0-0.2,0-0.9-0.1-2.1
			C249.3,110,249.2,108.7,248.9,108.1z"/>
		<path class="st2" d="M259.3,105.2l0.8-1h5.7l0.9,0.9c0.6,0.6,1,1.3,1.2,2.2s0.4,2.3,0.6,4.1c0.1,0.7,0.1,1.7,0.1,3.1
			c0,3.1-0.3,5.9-0.9,8.5c-0.6,2.5-1.3,4.3-2.3,5.2c-0.3,0.3-0.8,0.6-1.3,0.8c-0.6,0.2-1.1,0.3-1.5,0.3c-0.2,0-0.3,0-0.5-0.1
			c-0.2-0.2-0.6-0.2-1-0.2c-0.3,0-0.7-0.2-1.1-0.8c-0.4-0.5-0.7-1.1-1-1.8c-0.4-1.2-0.7-2.5-0.9-3.9c-0.1-1.4-0.2-3.7-0.2-6.8v-2.3
			c0-2.9,0.1-4.8,0.2-5.8C258.4,106.7,258.7,105.8,259.3,105.2z M263.6,107.4c-0.3-0.6-0.5-0.9-0.7-0.9s-0.5,0.5-0.8,1.4
			c-0.2,0.7-0.4,2.1-0.4,4.2c0,1.6,0.1,3.4,0.2,5.2c0.1,1.7,0.3,3.4,0.6,4.9c0.3,1.5,0.5,2.3,0.7,2.3c0.1,0,0.3-0.3,0.4-1
			c0.2-0.5,0.3-1,0.5-1.4c0.1-0.2,0.2-1.5,0.4-4c0.1-1.3,0.1-2.5,0.1-3.6C264.7,111.2,264.3,108.8,263.6,107.4z"/>
		<path class="st2" d="M274.5,105.2l0.8-1h5.7l0.9,0.9c0.6,0.6,1,1.3,1.2,2.2c0.2,0.9,0.4,2.3,0.6,4.1c0.1,0.7,0.1,1.7,0.1,3.1
			c0,3.1-0.3,5.9-0.9,8.5c-0.6,2.5-1.3,4.3-2.3,5.2c-0.3,0.3-0.8,0.6-1.3,0.8c-0.6,0.2-1.1,0.3-1.5,0.3c-0.2,0-0.3,0-0.5-0.1
			c-0.2-0.2-0.6-0.2-1-0.2c-0.3,0-0.7-0.2-1-0.8c-0.4-0.5-0.7-1.1-1-1.8c-0.4-1.2-0.7-2.5-0.8-3.9c-0.1-1.4-0.2-3.7-0.2-6.8v-2.3
			c0-2.9,0.1-4.8,0.2-5.8C273.7,106.7,274,105.8,274.5,105.2z M278.8,107.4c-0.3-0.6-0.5-0.9-0.7-0.9s-0.5,0.5-0.8,1.4
			c-0.2,0.7-0.4,2.1-0.4,4.2c0,1.6,0.1,3.4,0.2,5.2c0.1,1.7,0.3,3.4,0.6,4.9c0.3,1.5,0.5,2.3,0.7,2.3c0.1,0,0.3-0.3,0.4-1
			c0.1-0.5,0.3-1,0.5-1.4c0.1-0.2,0.2-1.5,0.4-4c0.1-1.3,0.1-2.5,0.1-3.6C280,111.2,279.6,108.8,278.8,107.4z"/>
		<path class="st2" d="M290,103.3c0.5-0.2,1.2-0.3,2.1-0.3s1.6,0.1,2,0.3c0.8,0.3,1.4,1,1.8,1.8c0.2,0.4,0.4,1.2,0.5,2.3
			c0.2,1.2,0.2,2.2,0.2,3.1c0,0.4,0,0.7-0.1,0.9c-0.1,0.8-0.3,1.6-0.6,2.6c-0.3,1-0.6,1.4-0.7,1.4c-0.2,0-0.4,0.2-0.4,0.6
			c0,0.3,0.1,0.6,0.3,1c0.5,0.7,1.2,2,2.1,3.9s1.4,3.1,1.5,3.6c0,0.1,0,0.4,0,0.6c0,0.4-0.1,0.8-0.3,1c-0.2,0.4-0.5,0.5-0.9,0.5
			c-0.3,0-0.6,0-0.8,0c-0.8-0.1-1.2-0.2-1.4-0.3c-0.2-0.1-0.3-0.4-0.3-0.7c0-0.6-0.3-1.5-0.9-2.8c-0.6-1.2-1.1-1.9-1.4-1.9l0,0
			c-0.1,0.1-0.1,0.4-0.1,1c0,0.9,0.1,1.9,0.3,3c0.1,0.5,0.1,0.8,0.1,1c0,1-0.2,1.7-0.7,1.9c-0.2,0.1-0.4,0.1-0.8,0.1
			c-1,0-1.6-0.2-1.8-0.7c-0.1-0.2-0.3-2.3-0.4-6.2c0-1.2-0.1-2.6-0.1-4s-0.1-2.5-0.1-3.1c0-0.7,0-1.5-0.1-2.6s-0.2-2.2-0.3-3.5
			c-0.1-1.5-0.2-2.3-0.2-2.6c0-0.7,0.1-1.2,0.3-1.5C289.1,103.7,289.4,103.4,290,103.3z M292.9,106.7c-0.1-0.2-0.3-0.4-0.5-0.4
			s-0.3,0.1-0.5,0.3c-0.1,0.2-0.1,0.4,0,0.6c0,0,0.1,1,0.2,2.9s0.2,2.9,0.3,3s0.2-0.1,0.5-0.4c0.2-0.3,0.3-0.8,0.3-1.6
			c0-0.6,0-1.1-0.1-1.5C293.1,108,293,107,292.9,106.7z"/>
		<path class="st2" d="M175.5,142.6c0.4-0.2,0.8-0.3,1.3-0.3c0.3,0,0.6,0,0.8,0.1c0.9,0.1,1.5,0.2,1.8,0.4c0.3,0.1,0.6,0.5,0.9,0.9
			c0.3,0.5,0.5,1,0.5,1.5s-0.2,1-0.6,1.4c-0.4,0.4-0.7,0.5-1.1,0.5c-0.4,0-0.8-0.3-1.1-0.8c-0.3-0.4-0.6-0.6-0.9-0.6
			c-0.3,0-0.5,0.2-0.8,0.6s-0.4,0.8-0.5,1.3v0.2c0,1.7,1.3,4.8,3.8,9.3c0.4,0.7,0.8,2.1,1.2,4c0,0.1,0,0.3,0,0.6c0,1.7-0.3,3-1,3.9
			c-0.3,0.4-0.8,0.8-1.5,1c-0.7,0.3-1.3,0.5-1.9,0.5c-0.1,0-0.1,0-0.2,0s-0.1,0-0.2,0c-0.7-0.1-1.5-0.6-2.5-1.6s-1.5-1.7-1.5-2.2
			c0-0.2,0.2-0.5,0.5-0.8s0.7-0.5,1-0.6c0.1,0,0.2,0,0.3,0c0.3,0,0.9,0.5,1.6,1.5c0.3,0.4,0.6,0.6,0.9,0.6c0.3,0,0.5-0.2,0.7-0.5
			c0.1-0.1,0.1-0.4,0.1-0.7c0-1.8-0.8-4.3-2.4-7.7c-1.5-3.2-2.2-5.5-2.2-7c0-0.7,0.1-1.3,0.4-1.9c0.5-1.2,0.9-2,1.1-2.3
			C174.3,143.3,174.8,143,175.5,142.6z"/>
		<path class="st2" d="M186.4,141.7c0.4-0.4,1.1-0.5,2.1-0.5h1.1c1.6,0.1,2.6,0.1,3,0.2c0.2,0.1,0.6,0.1,1.3,0.2s1.2,0.2,1.5,0.4
			c0.3,0.2,0.5,0.6,0.5,1.2s-0.2,1-0.4,1.2s-0.6,0.4-1.1,0.5c-0.6,0.1-1,0.2-1.1,0.3c-0.2,0.2-0.2,3.1-0.2,8.7
			c0,3.9,0.1,6.7,0.1,8.3c0.1,1.3,0.1,2,0.1,2.1c0,0.6-0.1,1.2-0.4,1.6c-0.3,0.6-0.9,0.9-1.6,0.9c-0.5,0-0.9-0.1-1.4-0.4l-0.9-0.5
			l0.1-10.4c0.1-2.7,0.1-5.4,0.1-8c0-1.6-0.1-2.5-0.4-2.7c-0.4-0.2-0.6-0.3-0.7-0.2c-0.1,0-0.3,0-0.5,0c-0.6,0-1-0.2-1.4-0.5
			s-0.5-0.7-0.5-1.1C185.7,142.6,185.9,142.1,186.4,141.7z"/>
		<path class="st2" d="M201,141.5c0.4-0.3,0.8-0.4,1.4-0.4c0.7,0,1.2,0.2,1.6,0.5l0.6,0.5l0.1,5.6c0.1,6.5,0.3,10.9,0.6,13.3
			c0.1,0.5,0.2,0.7,0.3,0.7c0.3,0,0.5-0.9,0.7-2.8c0.4-3.9,0.6-7.8,0.6-11.6v-1v-0.6c0-2.1,0.2-3.3,0.7-3.6c0.1-0.1,0.5-0.2,0.9-0.2
			c0.8,0,1.4,0.1,1.8,0.5c0.5,0.5,0.7,1.7,0.7,3.7c0,1.7-0.1,4.8-0.4,9.4c-0.2,3.8-0.6,6.5-1.2,8.1c-0.6,1.6-1.6,2.6-2.9,3
			c-0.6,0.2-0.9,0.3-1.1,0.3c-0.2,0-0.7-0.2-1.5-0.5c-1.7-0.8-2.6-2-2.8-3.8c-0.2-1.5-0.4-6.4-0.5-14.7c0-1.2-0.1-2.5-0.1-4
			c0-0.9,0-1.5,0.1-1.8C200.7,141.9,200.8,141.7,201,141.5z"/>
		<path class="st2" d="M216.4,144.3c0.2,0,0.9,0,2.3,0c1.6,0,2.8,0.4,3.6,1c0.8,0.7,1.5,1.8,1.9,3.5c0.5,1.6,0.7,3.5,0.7,5.7
			c0,0.5,0,1-0.1,1.5s-0.2,1.1-0.3,2.1c-0.1,0.9-0.2,1.7-0.4,2.5c-0.1,0.7-0.3,1.2-0.5,1.5c-0.1,0.2-0.2,0.5-0.2,0.8
			c0,0.2-0.1,0.7-0.5,1.3c-0.3,0.7-0.6,1.1-0.8,1.4c-0.4,0.4-0.9,0.8-1.6,1.2c-0.7,0.4-1.4,0.6-2.1,0.6c-0.6,0.1-0.9,0.1-1,0.1
			c-0.4,0-0.7-0.2-1.1-0.5l-0.6-0.6l0.1-7.7v-2.3c0-3.8-0.1-5.9-0.1-6.3c-0.2-1.2-0.3-2.3-0.3-3.2
			C215.6,145.2,215.9,144.4,216.4,144.3z M220.7,149.9c-0.5-1.6-0.8-2.4-1.1-2.4l-0.1,0.1l-0.1,0.1c0,0.1,0,0.2,0,0.3s0,0.3,0,0.4
			c0,0.4,0,1.3,0.1,2.6c0.1,1.5,0.2,3.7,0.2,6.3c0,2.5,0.1,3.8,0.3,3.8c0.1,0,0.2-0.2,0.3-0.6c0.6-1.9,0.9-4,0.9-6.2
			C221.3,152.5,221.1,151.1,220.7,149.9z"/>
		<path class="st2" d="M231.6,144.3c0.4-0.1,0.8-0.1,1.5-0.1c1.7,0,2.7,0.2,3.2,0.6c0.3,0.3,0.5,0.6,0.5,1s-0.1,0.7-0.5,1
			c-0.3,0.3-0.7,0.4-1.2,0.4s-0.8,0.1-0.9,0.3c-0.1,0.2-0.2,0.8-0.2,1.6c0,0.2,0,1,0.1,2.3c0.1,1.5,0.1,2.5,0.2,2.9
			c0.1,0.4,0.2,0.7,0.3,0.7c0,0,0.2,0,0.6,0c0.4,0,0.7,0,0.9,0c0.7,0,1.3,0.2,1.6,0.5c0.2,0.2,0.3,0.4,0.3,0.6c0,0.5-0.7,0.9-2,1.4
			c-0.8,0.3-1.2,0.5-1.4,0.6c-0.1,0.1-0.3,0.5-0.3,1c-0.1,0.5-0.1,0.9-0.1,1.3c0,1.5,0.1,2.7,0.4,3.4c0.1,0.3,0.3,0.5,0.4,0.6
			c0.1,0.1,0.5,0.1,1,0.1c0.6,0,1.2,0.2,1.6,0.4c0.5,0.3,0.7,0.6,0.7,1c0,0.3-0.2,0.6-0.7,1.1c-0.7,0.7-2,1.1-3.7,1.1
			c-1.8,0-2.9-0.4-3.5-1.1c-0.3-0.4-0.5-3-0.6-7.8c-0.1-6-0.1-9.5-0.2-10.6l-0.1-3.4l0.6-0.4C230.8,144.6,231.2,144.4,231.6,144.3z"
			/>
		<path class="st2" d="M244.3,143.3c0.5-0.2,0.9-0.3,1.4-0.3c0.9,0,1.5,0.6,1.8,1.7c0.2,0.9,0.6,1.8,1.1,2.8s0.8,1.8,1,2.4
			c0.3,1,0.6,1.6,0.8,1.9c0.1,0.1,0.2,0.2,0.2,0.2c0.1,0,0.2-0.7,0.4-2c0.1-1.2,0.1-2,0.1-2.5V147c0-0.2-0.1-0.6-0.1-0.9
			c0-0.8,0.2-1.4,0.6-1.8c0.4-0.5,0.9-0.7,1.7-0.7c0.6,0,1,0.1,1.3,0.5c0.3,0.2,0.4,0.6,0.4,1.1c0,0.6,0,1.1-0.1,1.6
			s-0.1,4.2-0.2,11.1c0,4.3-0.1,6.9-0.1,7.8s-0.1,1.4-0.4,1.6c-0.3,0.3-0.8,0.5-1.5,0.5c-1.3,0-2.1-0.6-2.3-1.9
			c-0.1-0.5-0.4-1.4-0.9-2.7c-0.5-1.2-0.8-2.3-0.9-3.2c-0.2-1.2-0.7-2.9-1.3-5c-0.1-0.2-0.1-0.3-0.1-0.3c-0.1,0-0.2,1.3-0.2,3.8v2.2
			v2.4c0,2.5-0.1,3.9-0.2,4.2c-0.3,0.9-0.9,1.3-1.9,1.3c-0.6,0-1.1-0.2-1.4-0.6c-0.3-0.3-0.4-0.6-0.4-0.9c0-0.1,0-0.3,0.1-0.8
			c0.2-1,0.2-4.7,0.2-11c0-7,0.1-10.8,0.2-11.2c0.1-0.3,0.2-0.4,0.5-0.5C244.1,143.3,244.2,143.3,244.3,143.3z"/>
		<path class="st2" d="M260.6,141.7c0.4-0.4,1.1-0.5,2.1-0.5h1c1.6,0.1,2.6,0.1,3,0.2c0.2,0.1,0.6,0.1,1.3,0.2
			c0.7,0.1,1.2,0.2,1.5,0.4s0.5,0.6,0.5,1.2s-0.1,1-0.4,1.2c-0.2,0.2-0.6,0.4-1.1,0.5c-0.6,0.1-1,0.2-1.1,0.3
			c-0.1,0.2-0.2,3.1-0.2,8.7c0,3.9,0,6.7,0.1,8.3c0.1,1.3,0.1,2,0.1,2.1c0,0.6-0.1,1.2-0.4,1.6c-0.3,0.6-0.9,0.9-1.6,0.9
			c-0.5,0-0.9-0.1-1.4-0.4l-0.9-0.5l0.1-10.4c0.1-2.7,0.1-5.4,0.1-8c0-1.6-0.1-2.5-0.4-2.7c-0.4-0.2-0.6-0.3-0.7-0.2
			c-0.1,0-0.3,0-0.5,0c-0.5,0-1-0.2-1.4-0.5s-0.6-0.7-0.6-1.1C259.9,142.6,260.1,142.1,260.6,141.7z"/>
		<path class="st2" d="M278.3,142.6c0.4-0.2,0.8-0.3,1.3-0.3c0.3,0,0.6,0,0.8,0.1c0.9,0.1,1.5,0.2,1.8,0.4c0.3,0.1,0.6,0.5,0.9,0.9
			c0.3,0.5,0.5,1,0.5,1.5s-0.2,1-0.6,1.4s-0.7,0.5-1.1,0.5s-0.8-0.3-1.1-0.8c-0.3-0.4-0.6-0.6-0.9-0.6s-0.5,0.2-0.8,0.6
			s-0.4,0.8-0.5,1.3v0.2c0,1.7,1.3,4.8,3.8,9.3c0.4,0.7,0.8,2.1,1.2,4c0,0.1,0.1,0.3,0.1,0.6c0,1.7-0.4,3-1.1,3.9
			c-0.3,0.4-0.8,0.8-1.5,1c-0.7,0.3-1.3,0.5-1.9,0.5c-0.1,0-0.1,0-0.2,0s-0.1,0-0.2,0c-0.7-0.1-1.6-0.6-2.5-1.6s-1.5-1.7-1.5-2.2
			c0-0.2,0.2-0.5,0.5-0.8s0.7-0.5,1-0.6c0.1,0,0.2,0,0.3,0c0.3,0,0.9,0.5,1.6,1.5c0.3,0.4,0.6,0.6,0.9,0.6s0.5-0.2,0.7-0.5
			c0.1-0.1,0.1-0.4,0.1-0.7c0-1.8-0.8-4.3-2.4-7.7c-1.5-3.2-2.2-5.5-2.2-7c0-0.7,0.1-1.3,0.4-1.9c0.5-1.2,0.9-2,1.1-2.3
			C277.2,143.3,277.7,143,278.3,142.6z"/>
		<path class="st2" d="M288.7,144.3c0.4-0.3,0.8-0.4,1.3-0.3c0.8,0.1,1.2,0.5,1.4,1c0.1,0.6,0.3,2.5,0.4,5.9
			c0.1,1.2,0.1,2.8,0.1,4.7c0,1.1,0,1.7-0.1,1.8c-0.1,0.5-0.5,0.8-1,0.8c-0.2,0-0.4-0.1-0.6-0.1c-0.5-0.2-0.9-0.7-1.1-1.3
			s-0.3-2.1-0.4-4.2c-0.1-2.7-0.3-4.7-0.4-5.9c-0.1-0.7-0.1-1.1-0.1-1.4C288.3,144.9,288.4,144.6,288.7,144.3z M289.9,163.8
			c0.6-0.2,1-0.3,1.3-0.3c0.4,0,0.7,0.1,1,0.5c0.4,0.3,0.6,0.8,0.6,1.3s-0.2,0.8-0.5,1c-0.2,0.1-0.4,0.1-0.8,0.1
			c-0.8,0-1.5-0.2-1.9-0.6c-0.2-0.2-0.4-0.6-0.4-1c0-0.3,0-0.5,0.1-0.6C289.3,164,289.5,163.9,289.9,163.8z"/>
		<path class="st3" d="M93.8,175.1c40.6,0,73.6-3.9,73.6-8.8s-33-8.8-73.6-8.8s-73.6,3.9-73.6,8.8C20.2,171.2,53.2,175.1,93.8,175.1
			z"/>
		<path class="st4" d="M89.3,108.9c0,0-20.1,3-31.8-11.2C57.5,97.7,74.2,93.1,89.3,108.9z"/>
		<path class="st5" d="M79,98.7c0,0-6.8,4-24.7,0.9C54.3,99.6,61,89.3,79,98.7z"/>
		<path class="st6" d="M45.1,99.7c-7,3.3-17.8,12.6-16.6,31.2c0.3,5,1.7,12.5,4.7,17.8c3,5.2-3.9,10.3-0.7,14.4
			c6.1,7.8,6.5-4.2,28.7-6c13.3-1.1,23.1,12.4,24.7,6.1c1.6-6-2.5-7.3-0.7-12.8c2.3-6.9,4.6-8.1,5.2-18.8
			C92.3,96,58.6,93.5,45.1,99.7z"/>
		<path d="M50.8,116.9c0,1.2-1,1.8-2.2,1.8s-2.2-0.6-2.2-1.8c0-1.2,1-2.2,2.2-2.2S50.8,115.6,50.8,116.9z"/>
		<path d="M68.9,116.9c0,1.2-1,1.8-2.2,1.8s-2.2-0.6-2.2-1.8c0-1.2,1-2.2,2.2-2.2S68.9,115.6,68.9,116.9z"/>
		<path class="st7" d="M78.4,108.3c3.3,3.7,10.5,12.2,10.6,13.8c0.1,1.6-12.1,1.3-18-3c-3.2-2.3-5.7-5.9-6.6-11.5
			c-1-6.4,2.8-6.1,6.3-4.7C73.7,104,76.3,105.9,78.4,108.3z"/>
		<path class="st5" d="M53,91.5c0,0-0.4,3.7,2.9,5.8C55.9,97.2,56.4,95.8,53,91.5z"/>
		<path class="st8" d="M58.1,100c-1.6-1.7-3.6-6.8-11-5.2"/>
		<path class="st9" d="M45.4,94.1c0,0-3.1,4.3-0.9,4.2C46.7,98.2,47,93.9,45.4,94.1z"/>
		<path class="st9" d="M46.1,93.4c0,0-1.6,5.2,0.6,4.2C48.9,96.6,47.7,92.6,46.1,93.4z"/>
		<path class="st9" d="M46.4,93.2c0,0-4.9,1.3-3.6,3C44.1,97.9,47.4,94.3,46.4,93.2z"/>
		<path class="st9" d="M47.1,95.6c0,0,0.2-6.2-1.9-4.4C43,93,45.7,97,47.1,95.6z"/>
		<path class="st9" d="M45.9,93.8c0,0,0.5-4.1,2.2-2.9S47,94.8,45.9,93.8z"/>
		<path class="st9" d="M46,92.7c0,0,5.1,0.3,3.4,2.1C47.8,96.6,44.7,93.9,46,92.7z"/>
		<path class="st2" d="M47.2,94.5c0.6-1.1,0.6-2.3-0.1-2.6c-0.7-0.4-1.7,0.2-2.3,1.3c-0.6,1.1-0.6,2.3,0.1,2.6S46.6,95.6,47.2,94.5z
			"/>
		<path class="st7" d="M48.2,102.8c-3.4,0.6-6.5,2.3-9,4.7c-3.9,3.7-8.6,10.9-8.8,12.2c-0.4,1.8,17.3,4.1,23.1-11
			C55.8,102.6,52,102.1,48.2,102.8z"/>
		<path d="M59.6,125.5c0,1-1,0-2,0s-2.4,1-2.4,0s1.5-2.6,2.5-2.6C58.5,122.9,59.6,123.4,59.6,125.5z"/>
		<path class="st0" d="M58,124.4h-0.6c-0.3,0-0.5-0.2-0.5-0.5l0.1-0.8c0.3-0.2,1.1-0.2,1.5,0.1v0.8C58.5,124.2,58.3,124.4,58,124.4z
			"/>
		<path class="st10" d="M124.7,109.6c-5.3-4.7-8.1-7.4-8.1-12.4s2.8-7.7,8.1-12.4c8-7.1,19.7-17.4,22.2-46.9h-6
			c-0.1,1.7-0.3,3.3-0.5,4.8H72.1c-0.2-1.5-0.4-3.1-0.5-4.8h-6C68,67.5,79.7,77.8,87.8,84.8c5.3,4.7,8.1,7.4,8.1,12.4
			s-2.8,7.7-8.1,12.4c-8.6,7.5-21.3,18.7-22.5,53h6c0-1.5,0.1-2.9,0.2-4.2h69.6c0.1,1.4,0.2,2.8,0.2,4.2h6
			C146,128.4,133.3,117.2,124.7,109.6z"/>
		<path class="st2" d="M152.4,42.7H60.1c-1.6,0-2.9-1.3-2.9-2.9v-3.6c0-1.6,1.3-2.9,2.9-2.9h92.4c1.6,0,2.9,1.3,2.9,2.9v3.6
			C155.3,41.5,154,42.7,152.4,42.7z"/>
		<path class="st3" d="M122.7,77.7c6.6-5.1,12.2-12,16.3-20.1c-10.6-4.8-21.9-7.2-33.2-7.1c-11-0.1-21.9,2.2-32.3,6.7
			c4.1,8.3,9.8,15.4,16.5,20.6c7.1,6.3,15.2,13.4,15.2,27.4v0.3h2.2v-0.3C107.5,91.1,115.6,84,122.7,77.7z"/>
		<path class="st3" d="M105.8,104.8c-18.7,0-31.9,44.4-36.1,53.9c-0.1,1.2-0.2,2.5-0.3,3.8h73.7c0-0.3,0-0.6-0.1-0.9
			C133.6,136.6,124.5,104.8,105.8,104.8z"/>
		<path class="st2" d="M152.4,167.8H60.1c-1.6,0-2.9-1.3-2.9-2.9v-3.6c0-1.6,1.3-2.9,2.9-2.9h92.4c1.6,0,2.9,1.3,2.9,2.9v3.6
			C155.3,166.5,154,167.8,152.4,167.8z"/>
	</g>
</g>
</svg>
