<?xml version="1.0" encoding="utf-8"?>
<!-- Generator: Adobe Illustrator 25.1.0, SVG Export Plug-In . SVG Version: 6.00 Build 0)  -->
<svg version="1.1" id="Layer_1" xmlns="http://www.w3.org/2000/svg" xmlns:xlink="http://www.w3.org/1999/xlink" x="0px" y="0px"
	 viewBox="0 0 338.1 253.5" style="enable-background:new 0 0 338.1 253.5;" xml:space="preserve">
<style type="text/css">
	.st0{fill:#FFFFFF;}
	.st1{fill:#808080;}
	.st2{fill:#E97443;}
	.st3{fill:#D64204;}
	.st4{fill:#F4F1EF;}
	.st5{fill:#FFE7C6;}
	.st6{fill:#BFBFBF;}
	.st7{fill:#6E6E6E;}
	.st8{fill:#3CDC82;}
	.st9{fill:#00A878;}
	.st10{fill:#9DEDC0;}
	.st11{fill:#E14504;}
</style>
<g>
	<g>
		<g>
			<path class="st0" d="M2.7,35.2c0,76.4-14.9,198.7,24.7,208.9c38.5,9.9,82.4,13.2,150.3,3.8c63.7-8.8,124.1,3,152.1-26.6
				c9.2-9.7,19-200-20.1-213.4C273.1-4.7,164.1,1.4,120.7,2C75.8,2.5,2.7,1.9,2.7,35.2z"/>
			<path class="st1" d="M32.3,95.8c-0.3,0-0.5-0.1-0.7-0.3c-0.2-0.2-0.3-0.4-0.3-0.7c0-0.3,0.1-0.5,0.3-0.6c0.2-0.2,0.4-0.3,0.7-0.3
				s0.5,0.1,0.7,0.3c0.2,0.2,0.3,0.4,0.3,0.6c0,0.3-0.1,0.5-0.3,0.7S32.6,95.8,32.3,95.8z M31.6,105.5v-7.9h1.3v7.9H31.6z"/>
			<path class="st1" d="M38.4,105.7c-1,0-1.7-0.2-2.4-0.7c-0.6-0.5-1-1.1-1.1-2h1.4c0.1,0.4,0.3,0.8,0.7,1.1
				c0.3,0.3,0.8,0.5,1.5,0.5c0.6,0,1-0.1,1.2-0.4s0.4-0.5,0.4-0.9c0-0.5-0.2-0.8-0.5-1s-0.8-0.3-1.5-0.4c-0.4-0.1-0.8-0.2-1.3-0.4
				c-0.4-0.2-0.8-0.4-1.1-0.7c-0.3-0.3-0.4-0.7-0.4-1.2c0-0.7,0.3-1.3,0.8-1.7s1.2-0.7,2.1-0.7c0.8,0,1.5,0.2,2.1,0.6
				c0.5,0.4,0.8,1,0.9,1.8h-1.3c0-0.4-0.2-0.7-0.5-0.9c-0.3-0.2-0.7-0.3-1.2-0.3s-0.9,0.1-1.1,0.3c-0.3,0.2-0.4,0.5-0.4,0.8
				s0.2,0.6,0.5,0.8c0.3,0.2,0.8,0.3,1.4,0.5c0.5,0.1,1,0.2,1.4,0.4c0.4,0.1,0.8,0.4,1.1,0.7c0.3,0.3,0.4,0.7,0.4,1.3
				c0,0.7-0.3,1.3-0.8,1.8C40,105.5,39.3,105.7,38.4,105.7z"/>
			<path class="st1" d="M51.8,105.7c-0.7,0-1.2-0.1-1.7-0.4s-0.9-0.6-1.2-1.1l-0.1,1.3h-1.2V94h1.3v4.9c0.3-0.4,0.6-0.7,1.1-1
				s1.1-0.5,1.8-0.5c0.8,0,1.5,0.2,2.1,0.5c0.6,0.4,1,0.9,1.4,1.5c0.3,0.6,0.5,1.3,0.5,2.1c0,0.8-0.2,1.5-0.5,2.1s-0.8,1.1-1.4,1.5
				C53.3,105.5,52.6,105.7,51.8,105.7z M51.7,104.5c0.5,0,1-0.1,1.4-0.4c0.4-0.2,0.7-0.6,1-1.1c0.2-0.4,0.3-1,0.3-1.6
				s-0.1-1.1-0.3-1.6c-0.2-0.4-0.6-0.8-1-1.1c-0.4-0.2-0.9-0.4-1.4-0.4s-1,0.1-1.4,0.4c-0.4,0.2-0.7,0.6-1,1.1
				c-0.2,0.4-0.3,1-0.3,1.6s0.1,1.1,0.3,1.6c0.2,0.4,0.6,0.8,1,1.1C50.6,104.4,51.1,104.5,51.7,104.5z"/>
			<path class="st1" d="M61.2,105.7c-0.8,0-1.4-0.2-2-0.5c-0.6-0.4-1.1-0.8-1.4-1.4c-0.3-0.6-0.5-1.4-0.5-2.2c0-0.8,0.2-1.6,0.5-2.2
				s0.8-1.1,1.4-1.5c0.6-0.4,1.3-0.5,2.1-0.5s1.4,0.2,2,0.5s1,0.8,1.3,1.4s0.5,1.2,0.5,1.8c0,0.1,0,0.2,0,0.3c0,0.1,0,0.2,0,0.4
				h-6.3c0,0.6,0.2,1.1,0.4,1.5s0.6,0.7,0.9,0.9c0.4,0.2,0.8,0.3,1.2,0.3c0.6,0,1-0.1,1.4-0.4s0.6-0.6,0.8-1h1.3
				c-0.2,0.7-0.6,1.4-1.2,1.8C62.9,105.5,62.1,105.7,61.2,105.7z M61.2,98.5c-0.6,0-1.2,0.2-1.7,0.6s-0.8,1-0.9,1.7h5
				c0-0.7-0.3-1.3-0.7-1.7C62.4,98.7,61.8,98.5,61.2,98.5z"/>
			<path class="st1" d="M69.6,105.5c-0.7,0-1.3-0.2-1.7-0.5c-0.4-0.4-0.6-1-0.6-1.9v-4.4h-1.4v-1.1h1.4l0.2-1.9h1.2v1.9h2.2v1.1
				h-2.3v4.4c0,0.5,0.1,0.8,0.3,1c0.2,0.2,0.6,0.3,1.1,0.3h0.8v1.2L69.6,105.5L69.6,105.5z"/>
			<path class="st1" d="M75.8,105.5c-0.7,0-1.3-0.2-1.7-0.5c-0.4-0.4-0.6-1-0.6-1.9v-4.4h-1.4v-1.1h1.4l0.2-1.9h1.2v1.9h2.3v1.1
				h-2.3v4.4c0,0.5,0.1,0.8,0.3,1c0.2,0.2,0.6,0.3,1.1,0.3h0.8v1.2L75.8,105.5L75.8,105.5z"/>
			<path class="st1" d="M82.2,105.7c-0.8,0-1.4-0.2-2-0.5c-0.6-0.4-1-0.8-1.4-1.4c-0.3-0.6-0.5-1.4-0.5-2.2c0-0.8,0.2-1.6,0.5-2.2
				s0.8-1.1,1.4-1.5s1.3-0.5,2.1-0.5c0.8,0,1.4,0.2,2,0.5s1,0.8,1.3,1.4s0.4,1.2,0.4,1.8c0,0.1,0,0.2,0,0.3c0,0.1,0,0.2,0,0.4h-6.3
				c0,0.6,0.2,1.1,0.4,1.5s0.6,0.7,0.9,0.9c0.4,0.2,0.8,0.3,1.2,0.3c0.5,0,1-0.1,1.4-0.4s0.7-0.6,0.8-1h1.3
				c-0.2,0.7-0.6,1.4-1.2,1.8C83.9,105.5,83.1,105.7,82.2,105.7z M82.2,98.5c-0.6,0-1.2,0.2-1.7,0.6s-0.8,1-0.9,1.7h5
				c0-0.7-0.3-1.3-0.7-1.7C83.4,98.7,82.8,98.5,82.2,98.5z"/>
			<path class="st1" d="M87.7,105.5v-7.9h1.2l0.1,1.5c0.2-0.5,0.6-0.9,1.1-1.2c0.5-0.3,1.1-0.5,1.9-0.5v1.4h-0.4
				c-0.5,0-0.9,0.1-1.3,0.2c-0.4,0.2-0.7,0.4-0.9,0.8c-0.2,0.4-0.3,0.9-0.3,1.6v4L87.7,105.5L87.7,105.5z"/>
			<path class="st1" d="M100.9,105.5c-0.7,0-1.3-0.2-1.7-0.5c-0.4-0.4-0.6-1-0.6-1.9v-4.4h-1.4v-1.1h1.4l0.2-1.9h1.2v1.9h2.3v1.1
				h-2.4v4.4c0,0.5,0.1,0.8,0.3,1c0.2,0.2,0.6,0.3,1.1,0.3h0.8v1.2L100.9,105.5L100.9,105.5z"/>
			<path class="st1" d="M103.9,105.5V94h1.3v4.9c0.3-0.5,0.6-0.9,1.1-1.1c0.5-0.3,1-0.4,1.6-0.4c0.9,0,1.7,0.3,2.2,0.9
				s0.8,1.4,0.8,2.6v4.6h-1.3V101c0-1.7-0.7-2.5-2-2.5c-0.7,0-1.3,0.2-1.7,0.7c-0.5,0.5-0.7,1.2-0.7,2.1v4.1L103.9,105.5
				L103.9,105.5z"/>
			<path class="st1" d="M115.7,105.7c-0.7,0-1.2-0.1-1.7-0.3c-0.4-0.2-0.8-0.5-1-0.9s-0.3-0.8-0.3-1.2c0-0.8,0.3-1.4,0.9-1.9
				c0.6-0.4,1.5-0.7,2.5-0.7h2.1v-0.1c0-0.7-0.2-1.2-0.5-1.6c-0.4-0.4-0.8-0.5-1.5-0.5c-0.5,0-1,0.1-1.4,0.4s-0.6,0.6-0.7,1.1h-1.2
				c0.1-0.6,0.2-1.1,0.6-1.5c0.3-0.4,0.8-0.7,1.3-0.9c0.5-0.2,1-0.3,1.6-0.3c1.1,0,1.9,0.3,2.5,0.9s0.8,1.4,0.8,2.4v4.9h-1.2
				l-0.1-1.4c-0.2,0.4-0.6,0.8-1,1.1C117,105.5,116.5,105.7,115.7,105.7z M115.9,104.6c0.5,0,0.9-0.1,1.3-0.4s0.6-0.6,0.8-1
				c0.2-0.4,0.3-0.9,0.3-1.3l0,0h-2c-0.8,0-1.3,0.1-1.7,0.4c-0.3,0.3-0.5,0.6-0.5,1s0.2,0.8,0.5,1
				C115,104.4,115.4,104.6,115.9,104.6z"/>
			<path class="st1" d="M121.7,105.5v-7.9h1.2L123,99c0.3-0.5,0.6-0.9,1.1-1.2c0.5-0.3,1-0.4,1.6-0.4c0.9,0,1.7,0.3,2.2,0.9
				c0.5,0.6,0.8,1.4,0.8,2.6v4.6h-1.3V101c0-1.7-0.7-2.5-2-2.5c-0.7,0-1.2,0.2-1.7,0.7c-0.4,0.5-0.7,1.2-0.7,2.1v4.1L121.7,105.5
				L121.7,105.5z"/>
			<path class="st1" d="M31.6,46V34.8h3.9c0.8,0,1.4,0.1,2,0.4s0.9,0.6,1.2,1s0.4,0.9,0.4,1.4c0,0.7-0.2,1.3-0.6,1.7
				c-0.4,0.4-0.9,0.7-1.4,0.9c0.4,0.1,0.8,0.2,1.1,0.5s0.6,0.6,0.8,1s0.3,0.8,0.3,1.3c0,0.6-0.1,1.1-0.4,1.5
				c-0.3,0.5-0.7,0.8-1.2,1.1s-1.2,0.4-2,0.4L31.6,46L31.6,46z M32.9,39.7h2.5c0.7,0,1.3-0.2,1.7-0.5s0.6-0.8,0.6-1.4
				c0-0.6-0.2-1-0.6-1.4c-0.4-0.3-0.9-0.5-1.7-0.5h-2.5V39.7L32.9,39.7z M32.9,44.9h2.6c0.8,0,1.4-0.2,1.8-0.5
				c0.4-0.4,0.6-0.9,0.6-1.5s-0.2-1.1-0.7-1.5c-0.4-0.4-1-0.6-1.8-0.6h-2.5V44.9z"/>
			<path class="st1" d="M44,46.2c-0.9,0-1.7-0.3-2.2-0.9c-0.5-0.6-0.8-1.4-0.8-2.6v-4.6h1.3v4.5c0,1.6,0.7,2.5,2,2.5
				c0.7,0,1.3-0.2,1.7-0.7c0.5-0.5,0.7-1.2,0.7-2.1v-4.1H48V46h-1.2l-0.1-1.4c-0.2,0.5-0.6,0.9-1.1,1.2C45.2,46.1,44.6,46.2,44,46.2
				z"/>
			<path class="st1" d="M53.4,46c-0.7,0-1.3-0.2-1.7-0.5s-0.6-1-0.6-1.9v-4.4h-1.4v-1.1h1.4l0.2-1.9h1.2v1.9h2.3v1.1h-2.3v4.4
				c0,0.5,0.1,0.8,0.3,1s0.6,0.3,1.1,0.3h0.8V46H53.4z"/>
			<path class="st1" d="M60.7,46v-7.9h1.2l0.1,1.5c0.2-0.5,0.6-0.9,1.1-1.2s1.1-0.5,1.9-0.5v1.4h-0.4c-0.5,0-0.9,0.1-1.3,0.2
				c-0.4,0.2-0.7,0.4-0.9,0.8s-0.3,0.9-0.3,1.6v4h-1.4V46z"/>
			<path class="st1" d="M69.8,46.2c-0.8,0-1.4-0.2-2-0.5c-0.6-0.4-1-0.8-1.4-1.5c-0.3-0.6-0.5-1.3-0.5-2.2c0-0.8,0.2-1.6,0.5-2.2
				s0.8-1.1,1.4-1.5c0.6-0.3,1.3-0.5,2.1-0.5c0.8,0,1.4,0.2,2,0.5c0.6,0.4,1,0.8,1.3,1.4c0.3,0.6,0.4,1.2,0.4,1.8c0,0.1,0,0.2,0,0.4
				c0,0.1,0,0.2,0,0.4h-6.3c0,0.6,0.2,1.1,0.4,1.5c0.2,0.4,0.6,0.7,0.9,0.9c0.4,0.2,0.8,0.3,1.2,0.3c0.5,0,1-0.1,1.4-0.4
				c0.4-0.3,0.7-0.6,0.8-1h1.3c-0.2,0.7-0.6,1.3-1.2,1.8C71.5,46,70.7,46.2,69.8,46.2z M69.8,39c-0.6,0-1.2,0.2-1.7,0.6
				c-0.5,0.4-0.8,1-0.9,1.7h5c0-0.7-0.3-1.3-0.7-1.7C71,39.2,70.5,39,69.8,39z"/>
			<path class="st1" d="M78.4,46.2c-0.9,0-1.7-0.2-2.4-0.7c-0.6-0.5-1-1.1-1.1-1.9h1.4c0.1,0.4,0.3,0.8,0.7,1.1
				c0.4,0.3,0.8,0.5,1.5,0.5c0.6,0,1-0.1,1.2-0.4c0.3-0.2,0.4-0.5,0.4-0.9c0-0.5-0.2-0.8-0.5-1s-0.8-0.3-1.5-0.4
				c-0.4-0.1-0.8-0.2-1.3-0.4c-0.4-0.2-0.8-0.4-1.1-0.7c-0.3-0.3-0.4-0.7-0.4-1.2c0-0.7,0.3-1.3,0.8-1.7s1.2-0.7,2.1-0.7
				c0.8,0,1.5,0.2,2.1,0.6s0.9,1,0.9,1.8h-1.3c0-0.4-0.2-0.7-0.5-1c-0.3-0.2-0.7-0.3-1.2-0.3s-0.8,0.1-1.1,0.3s-0.4,0.5-0.4,0.8
				s0.2,0.6,0.5,0.8s0.8,0.3,1.4,0.5c0.5,0.1,1,0.2,1.4,0.4s0.8,0.4,1.1,0.7c0.3,0.3,0.4,0.7,0.4,1.3c0,0.7-0.3,1.3-0.8,1.8
				C80,46,79.3,46.2,78.4,46.2z"/>
			<path class="st1" d="M86.9,46.2c-0.8,0-1.4-0.2-2-0.5c-0.6-0.4-1-0.8-1.4-1.5C83.2,43.6,83,42.9,83,42c0-0.8,0.2-1.6,0.5-2.2
				s0.8-1.1,1.4-1.5c0.6-0.3,1.3-0.5,2.1-0.5c0.8,0,1.4,0.2,2,0.5c0.6,0.4,1,0.8,1.3,1.4c0.3,0.6,0.4,1.2,0.4,1.8c0,0.1,0,0.2,0,0.4
				c0,0.1,0,0.2,0,0.4h-6.3c0,0.6,0.2,1.1,0.4,1.5c0.2,0.4,0.6,0.7,0.9,0.9c0.4,0.2,0.8,0.3,1.2,0.3c0.5,0,1-0.1,1.4-0.4
				c0.4-0.3,0.7-0.6,0.8-1h1.3c-0.2,0.7-0.6,1.3-1.2,1.8C88.6,46,87.8,46.2,86.9,46.2z M86.9,39c-0.6,0-1.2,0.2-1.7,0.6
				c-0.5,0.4-0.8,1-0.9,1.7h5c0-0.7-0.3-1.3-0.7-1.7C88.1,39.2,87.6,39,86.9,39z"/>
			<path class="st1" d="M95.1,46.2c-0.7,0-1.2-0.1-1.7-0.3c-0.4-0.2-0.8-0.5-1-0.9s-0.3-0.8-0.3-1.2c0-0.8,0.3-1.4,0.9-1.9
				c0.6-0.4,1.5-0.7,2.5-0.7h2.1v-0.1c0-0.7-0.2-1.2-0.5-1.6S96.3,39,95.7,39c-0.5,0-1,0.1-1.4,0.4c-0.4,0.3-0.6,0.6-0.7,1.1h-1.4
				c0.1-0.6,0.2-1.1,0.6-1.5c0.3-0.4,0.8-0.7,1.3-0.9s1-0.3,1.6-0.3c1.1,0,1.9,0.3,2.5,0.9c0.6,0.6,0.8,1.4,0.8,2.4V46h-1.2
				l-0.1-1.4c-0.2,0.4-0.6,0.8-1,1.1C96.4,46.1,95.8,46.2,95.1,46.2z M95.3,45.1c0.5,0,0.9-0.1,1.3-0.4s0.7-0.6,0.8-1
				c0.2-0.4,0.3-0.9,0.3-1.3l0,0h-2c-0.8,0-1.3,0.1-1.7,0.4c-0.3,0.3-0.5,0.6-0.5,1s0.1,0.8,0.5,1C94.3,45,94.7,45.1,95.3,45.1z"/>
			<path class="st1" d="M101.1,46v-7.9h1.2l0.1,1.5c0.2-0.5,0.6-0.9,1.1-1.2s1.1-0.5,1.9-0.5v1.4H105c-0.5,0-0.9,0.1-1.3,0.2
				c-0.4,0.2-0.7,0.4-0.9,0.8c-0.2,0.4-0.4,0.9-0.4,1.6v4h-1.3V46z"/>
			<path class="st1" d="M110.2,46.2c-0.8,0-1.4-0.2-2-0.5c-0.6-0.4-1.1-0.8-1.4-1.5c-0.3-0.6-0.5-1.4-0.5-2.2s0.2-1.6,0.5-2.2
				s0.8-1.1,1.4-1.5c0.6-0.3,1.3-0.5,2-0.5c0.9,0,1.7,0.2,2.4,0.7c0.7,0.5,1.1,1.2,1.2,2h-1.4c-0.1-0.5-0.4-0.9-0.8-1.1
				c-0.4-0.3-0.9-0.4-1.5-0.4c-0.5,0-0.9,0.1-1.3,0.3s-0.7,0.6-1,1s-0.4,1-0.4,1.7s0.1,1.2,0.4,1.7c0.2,0.4,0.6,0.8,1,1
				s0.8,0.3,1.3,0.3c0.6,0,1-0.1,1.5-0.4s0.7-0.7,0.8-1.2h1.4c-0.2,0.8-0.6,1.4-1.2,1.9C112,46,111.2,46.2,110.2,46.2z"/>
			<path class="st1" d="M115.7,46V34.5h1.3v4.9c0.3-0.5,0.6-0.9,1.1-1.1c0.5-0.3,1-0.4,1.6-0.4c0.9,0,1.7,0.3,2.2,0.9
				c0.6,0.6,0.8,1.4,0.8,2.6V46h-1.3v-4.5c0-1.6-0.7-2.5-2-2.5c-0.7,0-1.3,0.2-1.7,0.7c-0.5,0.5-0.7,1.2-0.7,2.1V46H115.7L115.7,46z
				"/>
			<path class="st1" d="M132.1,46.2c-0.9,0-1.7-0.2-2.4-0.7c-0.6-0.5-1-1.1-1.1-1.9h1.4c0.1,0.4,0.3,0.8,0.7,1.1s0.8,0.5,1.5,0.5
				c0.6,0,1-0.1,1.2-0.4c0.3-0.2,0.4-0.5,0.4-0.9c0-0.5-0.2-0.8-0.5-1s-0.8-0.3-1.5-0.4c-0.4-0.1-0.9-0.2-1.3-0.4
				c-0.4-0.2-0.8-0.4-1.1-0.7s-0.4-0.7-0.4-1.2c0-0.7,0.3-1.3,0.8-1.7s1.2-0.7,2.1-0.7c0.8,0,1.5,0.2,2.1,0.6c0.5,0.4,0.8,1,0.9,1.8
				h-1.3c-0.1-0.4-0.2-0.7-0.5-1c-0.3-0.2-0.7-0.3-1.2-0.3s-0.9,0.1-1.1,0.3c-0.3,0.2-0.4,0.5-0.4,0.8s0.2,0.6,0.5,0.8
				s0.8,0.3,1.4,0.5c0.5,0.1,1,0.2,1.4,0.4s0.8,0.4,1.1,0.7s0.4,0.7,0.4,1.3c0,0.7-0.3,1.3-0.8,1.8C133.8,46,133.1,46.2,132.1,46.2z
				"/>
			<path class="st1" d="M137.1,46V34.5h1.3v4.9c0.3-0.5,0.6-0.9,1.1-1.1c0.5-0.3,1-0.4,1.6-0.4c0.9,0,1.7,0.3,2.2,0.9
				c0.6,0.6,0.8,1.4,0.8,2.6V46h-1.2v-4.5c0-1.6-0.7-2.5-2-2.5c-0.7,0-1.3,0.2-1.7,0.7c-0.5,0.5-0.7,1.2-0.7,2.1V46H137.1L137.1,46z
				"/>
			<path class="st1" d="M149.9,46.2c-0.8,0-1.4-0.2-2-0.5s-1.1-0.8-1.4-1.4c-0.3-0.6-0.5-1.4-0.5-2.2s0.2-1.6,0.5-2.2
				c0.3-0.6,0.8-1.1,1.4-1.4c0.6-0.3,1.3-0.5,2-0.5s1.4,0.2,2,0.5s1.1,0.8,1.4,1.4c0.3,0.6,0.5,1.4,0.5,2.2s-0.2,1.6-0.5,2.2
				c-0.3,0.6-0.8,1.1-1.4,1.4S150.6,46.2,149.9,46.2z M149.9,45.1c0.5,0,0.9-0.1,1.3-0.3c0.4-0.2,0.7-0.6,1-1s0.4-1,0.4-1.7
				s-0.1-1.2-0.4-1.7c-0.2-0.4-0.6-0.8-0.9-1c-0.4-0.2-0.8-0.3-1.3-0.3s-0.9,0.1-1.3,0.3c-0.4,0.2-0.7,0.6-1,1s-0.4,1-0.4,1.7
				s0.1,1.2,0.4,1.7s0.6,0.8,0.9,1C149,45,149.4,45.1,149.9,45.1z"/>
			<path class="st1" d="M157,46l-2.3-7.9h1.3l1.7,6.2l1.9-6.2h1.5l1.9,6.2l1.7-6.2h1.4l-2.3,7.9h-1.4l-1.9-6.5l-1.9,6.5H157z"/>
			<path class="st1" d="M170.5,46.2c-0.9,0-1.7-0.2-2.4-0.7c-0.6-0.5-1-1.1-1.1-1.9h1.4c0.1,0.4,0.3,0.8,0.7,1.1s0.8,0.5,1.5,0.5
				c0.6,0,1-0.1,1.2-0.4c0.3-0.2,0.4-0.5,0.4-0.9c0-0.5-0.2-0.8-0.5-1s-0.8-0.3-1.5-0.4c-0.4-0.1-0.9-0.2-1.3-0.4
				c-0.4-0.2-0.8-0.4-1.1-0.7s-0.4-0.7-0.4-1.2c0-0.7,0.3-1.3,0.8-1.7s1.2-0.7,2.1-0.7c0.8,0,1.5,0.2,2.1,0.6c0.5,0.4,0.9,1,0.9,1.8
				H172c-0.1-0.4-0.2-0.7-0.5-1c-0.3-0.2-0.7-0.3-1.2-0.3s-0.9,0.1-1.1,0.3c-0.3,0.2-0.4,0.5-0.4,0.8s0.2,0.6,0.5,0.8
				s0.8,0.3,1.4,0.5c0.5,0.1,1,0.2,1.4,0.4s0.8,0.4,1.1,0.7s0.4,0.7,0.4,1.3c0,0.7-0.3,1.3-0.8,1.8C172.2,46,171.5,46.2,170.5,46.2z
				"/>
			<path class="st1" d="M182.8,46c-0.7,0-1.3-0.2-1.7-0.5s-0.6-1-0.6-1.9v-4.4h-1.4v-1.1h1.4l0.2-1.9h1.2v1.9h2.3v1.1h-2.3v4.4
				c0,0.5,0.1,0.8,0.3,1s0.6,0.3,1.1,0.3h0.8V46H182.8z"/>
			<path class="st1" d="M185.9,46V34.5h1.3v4.9c0.3-0.5,0.7-0.9,1.1-1.1c0.5-0.3,1-0.4,1.6-0.4c0.9,0,1.6,0.3,2.2,0.9
				c0.6,0.6,0.8,1.4,0.8,2.6V46h-1.3v-4.5c0-1.6-0.7-2.5-2-2.5c-0.7,0-1.3,0.2-1.7,0.7c-0.5,0.5-0.7,1.2-0.7,2.1V46H185.9L185.9,46z
				"/>
			<path class="st1" d="M197.7,46.2c-0.7,0-1.2-0.1-1.6-0.3c-0.4-0.2-0.8-0.5-1-0.9s-0.3-0.8-0.3-1.2c0-0.8,0.3-1.4,0.9-1.9
				c0.6-0.4,1.5-0.7,2.5-0.7h2.1v-0.1c0-0.7-0.2-1.2-0.5-1.6S199,39,198.3,39c-0.5,0-1,0.1-1.4,0.4c-0.4,0.3-0.6,0.6-0.7,1.1h-1.3
				c0.1-0.6,0.2-1.1,0.6-1.5c0.3-0.4,0.8-0.7,1.3-0.9s1-0.3,1.6-0.3c1.1,0,1.9,0.3,2.5,0.9c0.6,0.6,0.8,1.4,0.8,2.4V46h-1.2
				l-0.1-1.4c-0.2,0.4-0.6,0.8-1,1.1C199,46.1,198.4,46.2,197.7,46.2z M197.9,45.1c0.5,0,0.9-0.1,1.3-0.4c0.4-0.3,0.6-0.6,0.8-1
				s0.3-0.9,0.3-1.3l0,0h-2c-0.8,0-1.3,0.1-1.7,0.4c-0.3,0.3-0.5,0.6-0.5,1s0.2,0.8,0.5,1C196.9,45,197.3,45.1,197.9,45.1z"/>
			<path class="st1" d="M206.6,46c-0.7,0-1.3-0.2-1.7-0.5s-0.6-1-0.6-1.9v-4.4h-1.4v-1.1h1.4l0.2-1.9h1.2v1.9h2.3v1.1h-2.3v4.4
				c0,0.5,0.1,0.8,0.3,1s0.6,0.3,1.1,0.3h0.8V46H206.6z"/>
			<path class="st1" d="M35.1,166.6c-0.7,0-1.2-0.1-1.6-0.3c-0.4-0.2-0.8-0.5-1-0.9s-0.3-0.8-0.3-1.2c0-0.8,0.3-1.4,0.9-1.9
				c0.6-0.4,1.5-0.7,2.5-0.7h2.1v-0.1c0-0.7-0.2-1.2-0.5-1.6c-0.4-0.4-0.8-0.5-1.5-0.5c-0.5,0-1,0.1-1.4,0.4
				c-0.4,0.3-0.6,0.6-0.7,1.1h-1.4c0.1-0.6,0.2-1.1,0.6-1.5c0.3-0.4,0.8-0.7,1.3-0.9s1-0.3,1.6-0.3c1.1,0,1.9,0.3,2.5,0.9
				c0.6,0.6,0.8,1.4,0.8,2.4v4.9h-1.1l-0.1-1.4c-0.2,0.4-0.5,0.8-1,1.1C36.4,166.5,35.8,166.6,35.1,166.6z M35.3,165.5
				c0.5,0,1-0.1,1.3-0.4c0.4-0.3,0.6-0.6,0.8-1s0.3-0.9,0.3-1.3l0,0h-2c-0.8,0-1.3,0.1-1.7,0.4c-0.3,0.3-0.5,0.6-0.5,1
				s0.2,0.8,0.5,1C34.3,165.4,34.8,165.5,35.3,165.5z"/>
			<path class="st1" d="M41.1,166.4v-7.9h1.2l0.1,1.4c0.3-0.5,0.6-0.9,1.1-1.2s1-0.4,1.6-0.4c0.9,0,1.7,0.3,2.2,0.9s0.8,1.4,0.8,2.6
				v4.6h-1.2v-4.5c0-1.6-0.7-2.5-2-2.5c-0.7,0-1.2,0.2-1.7,0.7s-0.7,1.2-0.7,2.1v4.1L41.1,166.4L41.1,166.4z"/>
			<path class="st1" d="M53.9,166.6c-0.8,0-1.5-0.2-2.1-0.5c-0.6-0.4-1.1-0.9-1.4-1.5s-0.5-1.3-0.5-2.1s0.2-1.5,0.5-2.1
				s0.8-1.1,1.4-1.5c0.6-0.4,1.3-0.5,2.1-0.5c0.7,0,1.2,0.1,1.7,0.4c0.5,0.3,0.9,0.6,1.2,1.1V155h1.3v11.5h-1.2l-0.1-1.3
				c-0.3,0.4-0.6,0.7-1.1,1C55.2,166.5,54.6,166.6,53.9,166.6z M54,165.5c0.5,0,1-0.1,1.4-0.4c0.4-0.2,0.7-0.6,1-1s0.3-1,0.3-1.6
				s-0.1-1.1-0.3-1.6s-0.6-0.8-1-1.1c-0.4-0.2-0.9-0.4-1.4-0.4s-1,0.1-1.4,0.4c-0.4,0.2-0.7,0.6-1,1.1c-0.2,0.4-0.3,1-0.3,1.6
				s0.1,1.1,0.3,1.6s0.5,0.8,1,1C53,165.3,53.5,165.5,54,165.5z"/>
			<path class="st1" d="M68.1,166.6c-0.8,0-1.4-0.2-2-0.5c-0.6-0.4-1-0.8-1.4-1.5c-0.3-0.6-0.5-1.4-0.5-2.2s0.2-1.6,0.5-2.2
				s0.8-1.1,1.4-1.5s1.3-0.5,2.1-0.5c0.8,0,1.4,0.2,2,0.5c0.6,0.4,1,0.8,1.3,1.4c0.3,0.6,0.4,1.2,0.4,1.8c0,0.1,0,0.2,0,0.3
				s0,0.2,0,0.4h-6.3c0,0.6,0.2,1.1,0.4,1.5c0.2,0.4,0.6,0.7,0.9,0.9c0.4,0.2,0.8,0.3,1.2,0.3c0.5,0,1-0.1,1.4-0.4
				c0.4-0.3,0.6-0.6,0.8-1h1.3c-0.2,0.7-0.6,1.4-1.2,1.8C69.8,166.4,69.1,166.6,68.1,166.6z M68.1,159.4c-0.6,0-1.2,0.2-1.7,0.6
				c-0.5,0.4-0.8,1-0.9,1.7h5c0-0.7-0.3-1.3-0.7-1.7C69.4,159.6,68.8,159.4,68.1,159.4z"/>
			<path class="st1" d="M75.6,166.4l-3-7.9H74l2.4,6.6l2.4-6.6h1.4l-3,7.9H75.6z"/>
			<path class="st1" d="M84.9,166.6c-0.8,0-1.4-0.2-2-0.5c-0.6-0.4-1.1-0.8-1.4-1.5c-0.3-0.6-0.5-1.4-0.5-2.2s0.2-1.6,0.5-2.2
				c0.3-0.6,0.8-1.1,1.4-1.5s1.3-0.5,2.1-0.5c0.8,0,1.4,0.2,2,0.5c0.6,0.4,1,0.8,1.3,1.4c0.3,0.6,0.5,1.2,0.5,1.8c0,0.1,0,0.2,0,0.3
				s0,0.2,0,0.4h-6.3c0,0.6,0.2,1.1,0.4,1.5c0.2,0.4,0.6,0.7,0.9,0.9c0.4,0.2,0.8,0.3,1.2,0.3c0.6,0,1-0.1,1.4-0.4
				c0.4-0.3,0.7-0.6,0.8-1h1.3c-0.2,0.7-0.6,1.4-1.2,1.8C86.6,166.4,85.8,166.6,84.9,166.6z M84.9,159.4c-0.6,0-1.2,0.2-1.7,0.6
				c-0.5,0.4-0.8,1-0.9,1.7h5c0-0.7-0.3-1.3-0.7-1.7C86.1,159.6,85.5,159.4,84.9,159.4z"/>
			<path class="st1" d="M90.4,166.4v-7.9h1.2l0.1,1.5c0.2-0.5,0.6-0.9,1.1-1.2s1.1-0.5,1.9-0.5v1.4h-0.4c-0.5,0-0.9,0.1-1.3,0.2
				c-0.4,0.2-0.7,0.5-0.9,0.8c-0.2,0.4-0.4,0.9-0.4,1.6v4L90.4,166.4L90.4,166.4z"/>
			<path class="st1" d="M97.1,169.9l2-4.3h-0.5l-3.2-7.2h1.5l2.6,6.2l2.8-6.2h1.4l-5.2,11.5H97.1z"/>
			<path class="st1" d="M109.3,166.4v-7.9h1.2l0.1,1.2c0.3-0.4,0.6-0.8,1-1s0.9-0.4,1.4-0.4c0.6,0,1.2,0.1,1.6,0.4
				c0.4,0.3,0.8,0.6,1.1,1.2c0.3-0.5,0.7-0.9,1.1-1.1c0.5-0.3,1-0.4,1.6-0.4c0.9,0,1.7,0.3,2.3,0.9c0.6,0.6,0.9,1.5,0.9,2.6v4.6
				h-1.3V162c0-0.8-0.2-1.4-0.5-1.9c-0.3-0.4-0.8-0.6-1.4-0.6s-1.2,0.2-1.6,0.7s-0.6,1.2-0.6,2.1v4.1h-1.3v-4.5
				c0-0.8-0.2-1.4-0.5-1.9c-0.3-0.4-0.8-0.6-1.4-0.6s-1.2,0.2-1.6,0.7s-0.6,1.2-0.6,2.1v4.1L109.3,166.4L109.3,166.4z"/>
			<path class="st1" d="M124.5,156.7c-0.3,0-0.5-0.1-0.7-0.3s-0.3-0.4-0.3-0.7s0.1-0.5,0.3-0.6c0.2-0.2,0.4-0.3,0.7-0.3
				c0.3,0,0.5,0.1,0.7,0.3s0.3,0.4,0.3,0.6c0,0.3-0.1,0.5-0.3,0.7C125,156.6,124.7,156.7,124.5,156.7z M123.8,166.4v-7.9h1.3v7.9
				H123.8z"/>
			<path class="st1" d="M127.5,166.4v-7.9h1.2l0.1,1.4c0.3-0.5,0.6-0.9,1.1-1.2s1-0.4,1.6-0.4c0.9,0,1.7,0.3,2.2,0.9
				s0.8,1.4,0.8,2.6v4.6h-1.3v-4.5c0-1.6-0.7-2.5-2.1-2.5c-0.7,0-1.2,0.2-1.7,0.7c-0.4,0.5-0.7,1.2-0.7,2.1v4.1L127.5,166.4
				L127.5,166.4z"/>
			<path class="st1" d="M139.5,166.6c-0.9,0-1.7-0.3-2.2-0.9c-0.6-0.6-0.8-1.5-0.8-2.6v-4.6h1.3v4.5c0,1.7,0.7,2.5,2,2.5
				c0.7,0,1.3-0.2,1.7-0.7s0.7-1.2,0.7-2.1v-4.1h1.3v7.9h-1.2l-0.1-1.4c-0.2,0.5-0.6,0.9-1.1,1.2
				C140.7,166.5,140.1,166.6,139.5,166.6z"/>
			<path class="st1" d="M148.9,166.4c-0.7,0-1.3-0.2-1.7-0.5s-0.6-1-0.6-1.9v-4.4h-1.4v-1.1h1.4l0.2-1.9h1.2v1.9h2.3v1.1h-2.4v4.4
				c0,0.5,0.1,0.8,0.3,1s0.6,0.3,1.1,0.3h0.8v1.1L148.9,166.4L148.9,166.4z"/>
			<path class="st1" d="M155.3,166.6c-0.8,0-1.4-0.2-2-0.5c-0.6-0.4-1-0.8-1.4-1.5c-0.3-0.6-0.5-1.4-0.5-2.2s0.2-1.6,0.5-2.2
				s0.8-1.1,1.4-1.5c0.6-0.4,1.3-0.5,2.1-0.5s1.4,0.2,2,0.5s1,0.8,1.3,1.4c0.3,0.6,0.4,1.2,0.4,1.8c0,0.1,0,0.2,0,0.3s0,0.2,0,0.4
				h-6.3c0,0.6,0.2,1.1,0.4,1.5s0.6,0.7,0.9,0.9c0.4,0.2,0.8,0.3,1.2,0.3c0.6,0,1-0.1,1.4-0.4c0.4-0.3,0.7-0.6,0.8-1h1.3
				c-0.2,0.7-0.6,1.4-1.2,1.8C157,166.4,156.3,166.6,155.3,166.6z M155.3,159.4c-0.6,0-1.2,0.2-1.7,0.6c-0.5,0.4-0.8,1-0.9,1.7h5
				c0-0.7-0.3-1.3-0.7-1.7C156.6,159.6,156,159.4,155.3,159.4z"/>
			<path class="st1" d="M168.7,166.6c-0.8,0-1.4-0.2-2-0.5s-1.1-0.8-1.4-1.4c-0.3-0.6-0.5-1.4-0.5-2.2s0.2-1.6,0.5-2.2
				c0.3-0.6,0.8-1.1,1.4-1.5c0.6-0.3,1.3-0.5,2-0.5s1.4,0.2,2,0.5s1.1,0.8,1.4,1.5c0.3,0.6,0.5,1.4,0.5,2.2s-0.2,1.6-0.5,2.2
				c-0.3,0.6-0.8,1.1-1.4,1.4C170.1,166.4,169.5,166.6,168.7,166.6z M168.7,165.5c0.5,0,0.9-0.1,1.3-0.3c0.4-0.2,0.7-0.6,1-1
				c0.2-0.4,0.4-1,0.4-1.7s-0.1-1.2-0.4-1.7c-0.2-0.4-0.6-0.8-0.9-1c-0.4-0.2-0.8-0.3-1.3-0.3s-0.9,0.1-1.3,0.3
				c-0.4,0.2-0.7,0.6-1,1c-0.2,0.5-0.4,1-0.4,1.7s0.1,1.2,0.4,1.7s0.6,0.8,0.9,1C167.8,165.4,168.3,165.5,168.7,165.5z"/>
			<path class="st1" d="M175,166.4v-6.8h-1.2v-1.1h1.2v-1.4c0-0.8,0.2-1.3,0.6-1.7c0.4-0.4,0.9-0.5,1.7-0.5h0.8v1.1h-0.6
				c-0.4,0-0.7,0.1-0.9,0.2c-0.2,0.2-0.3,0.5-0.3,0.8v1.3h1.9v1.1h-1.9v6.8L175,166.4L175,166.4z"/>
			<path class="st1" d="M184.1,169.9v-11.5h1.2l0.1,1.3c0.3-0.4,0.6-0.7,1.1-1s1.1-0.5,1.8-0.5c0.8,0,1.5,0.2,2.1,0.5
				c0.6,0.4,1,0.9,1.4,1.5c0.3,0.6,0.5,1.3,0.5,2.1s-0.2,1.5-0.5,2.1s-0.8,1.1-1.4,1.5c-0.6,0.4-1.3,0.5-2.1,0.5
				c-0.6,0-1.2-0.1-1.7-0.4c-0.5-0.3-0.9-0.6-1.2-1.1v4.9L184.1,169.9L184.1,169.9z M188.2,165.5c0.5,0,1-0.1,1.4-0.4
				c0.4-0.2,0.7-0.6,1-1s0.4-1,0.4-1.6s-0.1-1.1-0.4-1.6c-0.2-0.5-0.6-0.8-1-1.1c-0.4-0.2-0.9-0.4-1.4-0.4s-1,0.1-1.4,0.4
				s-0.7,0.6-1,1.1c-0.2,0.4-0.4,1-0.4,1.6s0.1,1.1,0.4,1.6c0.2,0.5,0.5,0.8,1,1C187.2,165.3,187.7,165.5,188.2,165.5z"/>
			<path class="st1" d="M194.2,166.4v-11.5h1.3v4.9c0.3-0.5,0.7-0.9,1.1-1.1c0.5-0.3,1-0.4,1.6-0.4c0.9,0,1.6,0.3,2.2,0.9
				c0.5,0.6,0.8,1.4,0.8,2.6v4.6h-1.3v-4.5c0-1.6-0.7-2.5-2-2.5c-0.7,0-1.3,0.2-1.7,0.7c-0.5,0.5-0.7,1.2-0.7,2.1v4.1L194.2,166.4
				L194.2,166.4z"/>
			<path class="st1" d="M204,169.9l2-4.3h-0.5l-3.1-7.2h1.5l2.6,6.2l2.8-6.2h1.4l-5.2,11.5H204z"/>
			<path class="st1" d="M214.6,166.6c-0.9,0-1.7-0.2-2.4-0.7c-0.6-0.5-1-1.1-1.1-1.9h1.4c0.1,0.4,0.3,0.8,0.7,1.1s0.8,0.5,1.4,0.5
				c0.6,0,1-0.1,1.2-0.4c0.3-0.2,0.4-0.5,0.4-0.9c0-0.5-0.2-0.8-0.5-1s-0.8-0.3-1.5-0.4c-0.4-0.1-0.9-0.2-1.3-0.4
				c-0.4-0.2-0.8-0.4-1.1-0.7s-0.4-0.7-0.4-1.2c0-0.7,0.3-1.3,0.8-1.7s1.2-0.7,2.1-0.7c0.8,0,1.5,0.2,2.1,0.6c0.5,0.4,0.8,1,0.9,1.8
				H216c-0.1-0.4-0.2-0.7-0.5-0.9s-0.7-0.3-1.2-0.3s-0.8,0.1-1.1,0.3s-0.4,0.5-0.4,0.8s0.2,0.6,0.5,0.8s0.8,0.3,1.4,0.5
				c0.5,0.1,1,0.2,1.4,0.4s0.8,0.4,1.1,0.7s0.4,0.7,0.4,1.3c0,0.7-0.3,1.3-0.8,1.8C216.3,166.4,215.5,166.6,214.6,166.6z"/>
			<path class="st1" d="M220.3,156.7c-0.3,0-0.5-0.1-0.7-0.3s-0.3-0.4-0.3-0.7s0.1-0.5,0.3-0.6c0.2-0.2,0.4-0.3,0.7-0.3
				s0.5,0.1,0.7,0.3s0.3,0.4,0.3,0.6c0,0.3-0.1,0.5-0.3,0.7C220.8,156.6,220.6,156.7,220.3,156.7z M219.7,166.4v-7.9h1.3v7.9H219.7z
				"/>
			<path class="st1" d="M227,166.6c-0.8,0-1.4-0.2-2-0.5c-0.6-0.4-1.1-0.8-1.4-1.5c-0.4-0.6-0.5-1.4-0.5-2.2s0.2-1.6,0.5-2.2
				c0.3-0.6,0.8-1.1,1.4-1.5c0.6-0.4,1.3-0.5,2-0.5c0.9,0,1.7,0.2,2.4,0.7c0.6,0.5,1.1,1.1,1.2,2h-1.4c-0.1-0.5-0.4-0.9-0.8-1.1
				c-0.4-0.3-0.9-0.4-1.5-0.4c-0.5,0-0.9,0.1-1.3,0.3c-0.4,0.2-0.7,0.6-1,1s-0.4,1-0.4,1.7s0.1,1.2,0.4,1.7s0.6,0.8,1,1
				s0.8,0.3,1.3,0.3s1-0.1,1.5-0.4c0.4-0.3,0.7-0.7,0.8-1.2h1.4c-0.2,0.8-0.6,1.4-1.2,1.9C228.7,166.4,227.9,166.6,227,166.6z"/>
			<path class="st1" d="M235.1,166.6c-0.7,0-1.2-0.1-1.7-0.3c-0.4-0.2-0.8-0.5-1-0.9s-0.3-0.8-0.3-1.2c0-0.8,0.3-1.4,0.9-1.9
				s1.5-0.7,2.5-0.7h2.1v-0.1c0-0.7-0.2-1.2-0.5-1.6c-0.4-0.4-0.9-0.5-1.5-0.5c-0.5,0-1,0.1-1.4,0.4c-0.4,0.3-0.6,0.6-0.7,1.1h-1.4
				c0.1-0.6,0.2-1.1,0.6-1.5c0.3-0.4,0.8-0.7,1.3-0.9s1-0.3,1.6-0.3c1.1,0,1.9,0.3,2.5,0.9c0.6,0.6,0.8,1.4,0.8,2.4v4.9h-1l-0.1-1.4
				c-0.2,0.4-0.6,0.8-1,1.1C236.4,166.5,235.8,166.6,235.1,166.6z M235.3,165.5c0.5,0,0.9-0.1,1.3-0.4c0.4-0.3,0.7-0.6,0.8-1
				c0.2-0.4,0.3-0.9,0.3-1.3l0,0h-2c-0.8,0-1.4,0.1-1.7,0.4c-0.3,0.3-0.5,0.6-0.5,1s0.2,0.8,0.5,1
				C234.3,165.4,234.8,165.5,235.3,165.5z"/>
			<path class="st1" d="M241.1,166.4v-11.5h1.3v11.5H241.1z"/>
			<path class="st1" d="M251.6,166.6c-0.7,0-1.2-0.1-1.6-0.3c-0.4-0.2-0.8-0.5-1-0.9s-0.3-0.8-0.3-1.2c0-0.8,0.3-1.4,0.9-1.9
				s1.5-0.7,2.5-0.7h2.1v-0.1c0-0.7-0.2-1.2-0.5-1.6c-0.4-0.4-0.9-0.5-1.5-0.5c-0.5,0-1,0.1-1.3,0.4c-0.4,0.3-0.6,0.6-0.7,1.1h-1.4
				c0.1-0.6,0.2-1.1,0.6-1.5c0.3-0.4,0.8-0.7,1.3-0.9s1-0.3,1.6-0.3c1.1,0,1.9,0.3,2.5,0.9s0.8,1.4,0.8,2.4v4.9h-1.2l-0.1-1.4
				c-0.2,0.4-0.5,0.8-1,1.1C252.9,166.5,252.3,166.6,251.6,166.6z M251.8,165.5c0.5,0,1-0.1,1.3-0.4s0.6-0.6,0.8-1s0.3-0.9,0.3-1.3
				l0,0h-2c-0.8,0-1.4,0.1-1.7,0.4c-0.3,0.3-0.5,0.6-0.5,1s0.1,0.8,0.5,1C250.8,165.4,251.2,165.5,251.8,165.5z"/>
			<path class="st1" d="M261.2,166.6c-0.8,0-1.4-0.2-2-0.5s-1.1-0.8-1.4-1.5c-0.3-0.6-0.5-1.4-0.5-2.2s0.2-1.6,0.5-2.2
				c0.4-0.6,0.8-1.1,1.4-1.5s1.3-0.5,2-0.5c0.9,0,1.7,0.2,2.4,0.7c0.6,0.5,1,1.1,1.2,2h-1.4c-0.1-0.5-0.4-0.9-0.8-1.1
				c-0.4-0.3-0.9-0.4-1.5-0.4c-0.4,0-0.9,0.1-1.3,0.3s-0.7,0.6-1,1s-0.4,1-0.4,1.7s0.1,1.2,0.4,1.7s0.6,0.8,1,1s0.8,0.3,1.3,0.3
				c0.6,0,1-0.1,1.5-0.4c0.4-0.3,0.7-0.7,0.8-1.2h1.4c-0.2,0.8-0.6,1.4-1.2,1.9C263,166.4,262.2,166.6,261.2,166.6z"/>
			<path class="st1" d="M269.6,166.4c-0.7,0-1.3-0.2-1.7-0.5s-0.6-1-0.6-1.9v-4.4h-1.4v-1.1h1.4l0.2-1.9h1.2v1.9h2.3v1.1h-2.3v4.4
				c0,0.5,0.1,0.8,0.3,1c0.2,0.2,0.6,0.3,1.1,0.3h0.8v1.1L269.6,166.4L269.6,166.4z"/>
			<path class="st1" d="M273.5,156.7c-0.3,0-0.5-0.1-0.7-0.3s-0.3-0.4-0.3-0.7s0.1-0.5,0.3-0.6c0.2-0.2,0.4-0.3,0.7-0.3
				c0.3,0,0.5,0.1,0.7,0.3s0.3,0.4,0.3,0.6c0,0.3-0.1,0.5-0.3,0.7C274,156.6,273.7,156.7,273.5,156.7z M272.8,166.4v-7.9h1.3v7.9
				H272.8z"/>
			<path class="st1" d="M278.8,166.4l-3-7.9h1.4l2.4,6.6l2.4-6.6h1.4l-3,7.9H278.8z"/>
			<path class="st1" d="M285.6,156.7c-0.3,0-0.5-0.1-0.7-0.3s-0.3-0.4-0.3-0.7s0.1-0.5,0.3-0.6c0.2-0.2,0.4-0.3,0.7-0.3
				c0.3,0,0.5,0.1,0.7,0.3s0.3,0.4,0.3,0.6c0,0.3-0.1,0.5-0.3,0.7C286.1,156.6,285.9,156.7,285.6,156.7z M285,166.4v-7.9h1.3v7.9
				H285z"/>
			<path class="st1" d="M291.8,166.4c-0.7,0-1.3-0.2-1.7-0.5c-0.4-0.4-0.6-1-0.6-1.9v-4.4h-1.4v-1.1h1.4l0.2-1.9h1.2v1.9h2.3v1.1
				h-2.3v4.4c0,0.5,0.1,0.8,0.3,1c0.2,0.2,0.6,0.3,1.1,0.3h0.8v1.1L291.8,166.4L291.8,166.4z"/>
			<path class="st1" d="M295.7,169.9l2-4.3h-0.5l-3.1-7.2h1.5l2.6,6.2l2.8-6.2h1.4l-5.2,11.5H295.7z"/>
			<path class="st1" d="M36.1,188.6c-0.8,0-1.4-0.2-2-0.5s-1.1-0.8-1.4-1.5c-0.3-0.6-0.5-1.4-0.5-2.2s0.2-1.6,0.5-2.2
				c0.4-0.6,0.8-1.1,1.4-1.5s1.3-0.5,2-0.5c0.9,0,1.7,0.2,2.4,0.7s1.1,1.1,1.2,2h-1.4c-0.1-0.5-0.4-0.9-0.8-1.1
				c-0.4-0.3-0.9-0.4-1.5-0.4c-0.5,0-0.9,0.1-1.3,0.3c-0.4,0.2-0.7,0.6-1,1s-0.4,1-0.4,1.7s0.1,1.2,0.4,1.7s0.6,0.8,1,1
				s0.8,0.3,1.3,0.3s1-0.1,1.5-0.4c0.4-0.3,0.7-0.7,0.8-1.2h1.4c-0.2,0.8-0.6,1.4-1.2,1.9C37.9,188.4,37.1,188.6,36.1,188.6z"/>
			<path class="st1" d="M45.2,188.6c-0.8,0-1.4-0.2-2-0.5s-1.1-0.8-1.4-1.4c-0.4-0.6-0.5-1.4-0.5-2.2s0.2-1.6,0.5-2.2
				c0.4-0.6,0.8-1.1,1.4-1.5c0.6-0.3,1.3-0.5,2-0.5s1.4,0.2,2,0.5s1.1,0.8,1.4,1.5c0.3,0.6,0.5,1.4,0.5,2.2s-0.2,1.6-0.5,2.2
				s-0.8,1.1-1.4,1.4C46.6,188.4,46,188.6,45.2,188.6z M45.2,187.5c0.5,0,0.9-0.1,1.3-0.3c0.4-0.2,0.7-0.6,1-1
				c0.2-0.4,0.4-1,0.4-1.7s-0.1-1.2-0.4-1.7c-0.2-0.4-0.6-0.8-1-1s-0.8-0.3-1.3-0.3s-0.9,0.1-1.3,0.3c-0.4,0.2-0.7,0.6-1,1
				c-0.2,0.5-0.4,1-0.4,1.7s0.1,1.2,0.4,1.7s0.6,0.8,1,1S44.8,187.5,45.2,187.5z"/>
			<path class="st1" d="M54,188.6c-0.9,0-1.7-0.3-2.2-0.9c-0.6-0.6-0.8-1.5-0.8-2.6v-4.6h1.3v4.5c0,1.7,0.7,2.5,2,2.5
				c0.7,0,1.3-0.2,1.7-0.7s0.7-1.2,0.7-2.1v-4.1H58v7.9h-1.2l-0.1-1.4c-0.2,0.5-0.6,0.9-1.1,1.2C55.1,188.5,54.6,188.6,54,188.6z"/>
			<path class="st1" d="M60.2,188.4v-7.9h1.2l0.1,1.4c0.3-0.5,0.6-0.9,1.1-1.2s1-0.4,1.6-0.4c0.9,0,1.7,0.3,2.2,0.9
				c0.6,0.6,0.8,1.4,0.8,2.6v4.6h-1.3v-4.5c0-1.6-0.7-2.5-2-2.5c-0.7,0-1.2,0.2-1.7,0.7c-0.4,0.5-0.7,1.2-0.7,2.1v4.1L60.2,188.4
				L60.2,188.4z"/>
			<path class="st1" d="M72.5,188.4c-0.7,0-1.3-0.2-1.7-0.5c-0.4-0.4-0.6-1-0.6-1.9v-4.4h-1.4v-1.1h1.4l0.2-1.9h1.2v1.9h2.3v1.1
				h-2.3v4.4c0,0.5,0.1,0.8,0.3,1c0.2,0.2,0.6,0.3,1.1,0.3h0.8v1.1L72.5,188.4L72.5,188.4z"/>
			<path class="st1" d="M78.6,188.6c-0.9,0-1.7-0.2-2.4-0.7c-0.6-0.5-1-1.1-1.1-1.9h1.4c0.1,0.4,0.3,0.8,0.7,1.1
				c0.4,0.3,0.8,0.5,1.5,0.5c0.6,0,1-0.1,1.2-0.4c0.3-0.2,0.4-0.5,0.4-0.9c0-0.5-0.2-0.8-0.5-1s-0.8-0.3-1.5-0.4
				c-0.4-0.1-0.8-0.2-1.3-0.4s-0.8-0.4-1.1-0.7c-0.3-0.3-0.4-0.7-0.4-1.2c0-0.7,0.3-1.3,0.8-1.7s1.2-0.7,2.1-0.7
				c0.8,0,1.5,0.2,2.1,0.6c0.5,0.4,0.9,1,0.9,1.8h-1.3c0-0.4-0.2-0.7-0.5-0.9s-0.7-0.3-1.2-0.3s-0.8,0.1-1.1,0.3s-0.4,0.5-0.4,0.8
				s0.2,0.6,0.5,0.8s0.8,0.3,1.4,0.5c0.5,0.1,1,0.2,1.4,0.4c0.4,0.1,0.8,0.4,1.1,0.7c0.3,0.3,0.4,0.7,0.4,1.3c0,0.7-0.3,1.3-0.8,1.8
				C80.3,188.4,79.5,188.6,78.6,188.6z"/>
			<path class="st1" d="M84.5,188.5c-0.3,0-0.5-0.1-0.7-0.3s-0.3-0.4-0.3-0.6c0-0.3,0.1-0.5,0.3-0.6c0.2-0.2,0.4-0.3,0.7-0.3
				c0.3,0,0.5,0.1,0.6,0.3c0.2,0.2,0.3,0.4,0.3,0.6c0,0.3-0.1,0.5-0.3,0.6C84.9,188.4,84.7,188.5,84.5,188.5z M83.8,185.3l-0.2-8.1
				h1.5l-0.2,8.1H83.8z"/>
			<path class="st1" d="M91.8,188.4v-11.2h6.9v1.1h-5.6v3.9h5.1v1.1h-5.1v4h5.6v1.1L91.8,188.4L91.8,188.4z"/>
			<path class="st1" d="M103.1,188.4l-3-7.9h1.4l2.4,6.6l2.4-6.6h1.4l-3,7.9H103.1z"/>
			<path class="st1" d="M112.3,188.6c-0.8,0-1.4-0.2-2-0.5c-0.6-0.4-1-0.8-1.4-1.5c-0.3-0.6-0.5-1.4-0.5-2.2s0.2-1.6,0.5-2.2
				c0.3-0.6,0.8-1.1,1.4-1.5s1.3-0.5,2.1-0.5c0.8,0,1.4,0.2,2,0.5s1,0.8,1.3,1.4c0.3,0.6,0.4,1.2,0.4,1.8c0,0.1,0,0.2,0,0.3
				s0,0.2,0,0.4h-6.3c0,0.6,0.2,1.1,0.4,1.5c0.2,0.4,0.6,0.7,0.9,0.9c0.4,0.2,0.8,0.3,1.2,0.3c0.6,0,1-0.1,1.4-0.4
				c0.4-0.3,0.6-0.6,0.8-1h1.3c-0.2,0.7-0.6,1.4-1.2,1.8C114,188.4,113.2,188.6,112.3,188.6z M112.3,181.4c-0.6,0-1.2,0.2-1.7,0.6
				c-0.5,0.4-0.8,1-0.9,1.7h5c0-0.7-0.3-1.3-0.7-1.7C113.5,181.6,113,181.4,112.3,181.4z"/>
			<path class="st1" d="M117.8,188.4v-7.9h1.2l0.1,1.4c0.3-0.5,0.6-0.9,1.1-1.2s1-0.4,1.6-0.4c0.9,0,1.7,0.3,2.2,0.9
				c0.6,0.6,0.8,1.4,0.8,2.6v4.6h-1.3v-4.5c0-1.6-0.7-2.5-2.1-2.5c-0.7,0-1.2,0.2-1.7,0.7s-0.7,1.2-0.7,2.1v4.1L117.8,188.4
				L117.8,188.4z"/>
			<path class="st1" d="M129.7,191.9v-1.2h0.6c0.4,0,0.7-0.1,0.9-0.2c0.2-0.2,0.3-0.4,0.3-0.8v-9.2h1.3v9.2c0,0.8-0.2,1.3-0.6,1.7
				c-0.4,0.3-0.9,0.5-1.7,0.5H129.7z M132.1,178.7c-0.3,0-0.5-0.1-0.7-0.3s-0.3-0.4-0.3-0.7s0.1-0.5,0.3-0.6
				c0.2-0.2,0.4-0.3,0.7-0.3s0.5,0.1,0.7,0.3s0.3,0.4,0.3,0.6c0,0.3-0.1,0.5-0.3,0.7C132.6,178.6,132.4,178.7,132.1,178.7z"/>
			<path class="st1" d="M138,188.6c-0.9,0-1.7-0.3-2.2-0.9c-0.6-0.6-0.8-1.5-0.8-2.6v-4.6h1.3v4.5c0,1.7,0.7,2.5,2,2.5
				c0.7,0,1.3-0.2,1.7-0.7s0.7-1.2,0.7-2.1v-4.1h1.3v7.9h-1.2l-0.1-1.4c-0.2,0.5-0.6,0.9-1.1,1.2C139.1,188.5,138.6,188.6,138,188.6
				z"/>
			<path class="st1" d="M147.3,188.6c-1,0-1.7-0.2-2.4-0.7c-0.6-0.5-1-1.1-1.1-1.9h1.4c0.1,0.4,0.3,0.8,0.7,1.1s0.8,0.5,1.4,0.5
				c0.6,0,1-0.1,1.2-0.4c0.3-0.2,0.4-0.5,0.4-0.9c0-0.5-0.2-0.8-0.5-1s-0.8-0.3-1.5-0.4c-0.4-0.1-0.9-0.2-1.3-0.4
				c-0.4-0.2-0.8-0.4-1.1-0.7s-0.4-0.7-0.4-1.2c0-0.7,0.3-1.3,0.8-1.7s1.2-0.7,2.1-0.7c0.8,0,1.5,0.2,2.1,0.6c0.5,0.4,0.8,1,0.9,1.8
				h-1.3c-0.1-0.4-0.2-0.7-0.5-0.9s-0.7-0.3-1.2-0.3s-0.8,0.1-1.1,0.3s-0.4,0.5-0.4,0.8s0.2,0.6,0.5,0.8s0.8,0.3,1.4,0.5
				c0.5,0.1,1,0.2,1.4,0.4s0.8,0.4,1.1,0.7s0.4,0.7,0.4,1.3c0,0.7-0.3,1.3-0.8,1.8C149,188.4,148.2,188.6,147.3,188.6z"/>
			<path class="st1" d="M155,188.4c-0.7,0-1.3-0.2-1.7-0.5s-0.6-1-0.6-1.9v-4.4h-1.4v-1.1h1.4l0.2-1.9h1.2v1.9h2.3v1.1h-2.3v4.4
				c0,0.5,0.1,0.8,0.3,1s0.6,0.3,1.1,0.3h0.8v1.1L155,188.4L155,188.4z"/>
			<path class="st1" d="M165,188.6c-0.7,0-1.2-0.1-1.6-0.3c-0.4-0.2-0.8-0.5-1-0.9s-0.3-0.8-0.3-1.2c0-0.8,0.3-1.4,0.9-1.9
				c0.6-0.4,1.5-0.7,2.5-0.7h2.1v-0.1c0-0.7-0.2-1.2-0.5-1.6c-0.4-0.4-0.8-0.5-1.5-0.5c-0.5,0-1,0.1-1.4,0.4
				c-0.4,0.3-0.6,0.6-0.7,1.1h-1.4c0.1-0.6,0.2-1.1,0.6-1.5c0.3-0.4,0.8-0.7,1.3-0.9s1-0.3,1.6-0.3c1.1,0,1.9,0.3,2.5,0.9
				c0.6,0.6,0.8,1.4,0.8,2.4v4.9h-1.2l-0.1-1.4c-0.2,0.4-0.6,0.8-1,1.1C166.3,188.5,165.7,188.6,165,188.6z M165.2,187.5
				c0.5,0,0.9-0.1,1.3-0.4c0.4-0.3,0.7-0.6,0.8-1c0.2-0.4,0.3-0.9,0.3-1.3l0,0h-2c-0.8,0-1.4,0.1-1.7,0.4c-0.3,0.3-0.5,0.6-0.5,1
				s0.1,0.8,0.5,1C164.2,187.4,164.6,187.5,165.2,187.5z"/>
			<path class="st1" d="M175.7,188.4v-6.8h-1.2v-1.1h1.2v-1.4c0-0.8,0.2-1.3,0.6-1.7s0.9-0.5,1.7-0.5h0.8v1.1h-0.6
				c-0.4,0-0.7,0.1-0.9,0.2c-0.2,0.2-0.3,0.5-0.3,0.8v1.3h1.9v1.1H177v6.8L175.7,188.4L175.7,188.4z"/>
			<path class="st1" d="M183.8,188.6c-0.8,0-1.4-0.2-2-0.5c-0.6-0.4-1.1-0.8-1.4-1.5c-0.3-0.6-0.5-1.4-0.5-2.2s0.2-1.6,0.5-2.2
				s0.8-1.1,1.4-1.5c0.6-0.4,1.3-0.5,2.1-0.5s1.4,0.2,2,0.5c0.6,0.4,1,0.8,1.3,1.4s0.4,1.2,0.4,1.8c0,0.1,0,0.2,0,0.3s0,0.2,0,0.4
				h-6.3c0,0.6,0.2,1.1,0.4,1.5s0.6,0.7,0.9,0.9c0.4,0.2,0.8,0.3,1.2,0.3c0.6,0,1-0.1,1.4-0.4c0.4-0.3,0.7-0.6,0.8-1h1.3
				c-0.2,0.7-0.6,1.4-1.2,1.8C185.5,188.4,184.7,188.6,183.8,188.6z M183.8,181.4c-0.6,0-1.2,0.2-1.7,0.6c-0.5,0.4-0.8,1-0.9,1.7h5
				c0-0.7-0.3-1.3-0.7-1.7C185,181.6,184.5,181.4,183.8,181.4z"/>
			<path class="st1" d="M190.6,188.4l-2.3-7.9h1.3l1.7,6.2l1.9-6.2h1.5l1.9,6.2l1.7-6.2h1.4l-2.3,7.9h-1.5l-1.9-6.5l-1.9,6.5H190.6z
				"/>
			<path class="st1" d="M205.3,188.4v-7.9h1.2l0.1,1.2c0.3-0.4,0.6-0.8,1-1s0.9-0.4,1.4-0.4c0.6,0,1.2,0.1,1.6,0.4
				c0.4,0.3,0.8,0.6,1,1.2c0.3-0.5,0.7-0.9,1.1-1.1c0.5-0.3,1-0.4,1.6-0.4c0.9,0,1.7,0.3,2.3,0.9c0.6,0.6,0.9,1.5,0.9,2.6v4.6h-1.3
				V184c0-0.8-0.2-1.4-0.5-1.9c-0.3-0.4-0.8-0.6-1.4-0.6c-0.6,0-1.2,0.2-1.6,0.7c-0.4,0.5-0.6,1.2-0.6,2.1v4.1h-1.3v-4.5
				c0-0.8-0.2-1.4-0.5-1.9c-0.3-0.4-0.8-0.6-1.4-0.6c-0.6,0-1.1,0.2-1.6,0.7c-0.4,0.5-0.6,1.2-0.6,2.1v4.1L205.3,188.4L205.3,188.4z
				"/>
			<path class="st1" d="M220.5,178.7c-0.3,0-0.5-0.1-0.7-0.3s-0.3-0.4-0.3-0.7s0.1-0.5,0.3-0.6c0.2-0.2,0.4-0.3,0.7-0.3
				s0.5,0.1,0.7,0.3s0.3,0.4,0.3,0.6c0,0.3-0.1,0.5-0.3,0.7C220.9,178.6,220.7,178.7,220.5,178.7z M219.8,188.4v-7.9h1.3v7.9H219.8z
				"/>
			<path class="st1" d="M223.5,188.4v-7.9h1.2l0.1,1.4c0.3-0.5,0.6-0.9,1.1-1.2s1-0.4,1.6-0.4c0.9,0,1.7,0.3,2.2,0.9
				s0.8,1.4,0.8,2.6v4.6h-1.3v-4.5c0-1.6-0.7-2.5-2.1-2.5c-0.7,0-1.2,0.2-1.7,0.7c-0.4,0.5-0.7,1.2-0.7,2.1v4.1L223.5,188.4
				L223.5,188.4z"/>
			<path class="st1" d="M235.5,188.6c-0.9,0-1.7-0.3-2.2-0.9c-0.5-0.6-0.8-1.5-0.8-2.6v-4.6h1.3v4.5c0,1.7,0.7,2.5,2,2.5
				c0.7,0,1.3-0.2,1.7-0.7s0.7-1.2,0.7-2.1v-4.1h1.3v7.9h-1.2l-0.1-1.4c-0.2,0.5-0.6,0.9-1.1,1.2
				C236.7,188.5,236.1,188.6,235.5,188.6z"/>
			<path class="st1" d="M244.9,188.4c-0.7,0-1.3-0.2-1.7-0.5s-0.6-1-0.6-1.9v-4.4h-1.4v-1.1h1.4l0.2-1.9h1.2v1.9h2.3v1.1h-2.4v4.4
				c0,0.5,0.1,0.8,0.3,1s0.6,0.3,1.1,0.3h0.8v1.1L244.9,188.4L244.9,188.4z"/>
			<path class="st1" d="M251.3,188.6c-0.8,0-1.4-0.2-2-0.5s-1.1-0.8-1.4-1.5c-0.3-0.6-0.5-1.4-0.5-2.2s0.2-1.6,0.5-2.2
				s0.8-1.1,1.4-1.5s1.3-0.5,2.1-0.5s1.4,0.2,2,0.5s1,0.8,1.3,1.4s0.5,1.2,0.5,1.8c0,0.1,0,0.2,0,0.3s0,0.2,0,0.4h-6.3
				c0,0.6,0.2,1.1,0.4,1.5s0.6,0.7,0.9,0.9c0.4,0.2,0.8,0.3,1.2,0.3c0.6,0,1-0.1,1.4-0.4c0.4-0.3,0.6-0.6,0.8-1h1.3
				c-0.2,0.7-0.6,1.4-1.2,1.8C253,188.4,252.2,188.6,251.3,188.6z M251.3,181.4c-0.6,0-1.2,0.2-1.7,0.6c-0.5,0.4-0.8,1-0.9,1.7h5
				c0-0.7-0.3-1.3-0.7-1.7C252.5,181.6,252,181.4,251.3,181.4z"/>
			<path class="st1" d="M259.9,188.6c-1,0-1.7-0.2-2.4-0.7c-0.6-0.5-1-1.1-1.1-1.9h1.4c0.1,0.4,0.3,0.8,0.7,1.1s0.8,0.5,1.4,0.5
				s1-0.1,1.2-0.4c0.3-0.2,0.4-0.5,0.4-0.9c0-0.5-0.2-0.8-0.5-1s-0.8-0.3-1.5-0.4c-0.4-0.1-0.9-0.2-1.3-0.4s-0.8-0.4-1.1-0.7
				c-0.3-0.3-0.4-0.7-0.4-1.2c0-0.7,0.3-1.3,0.8-1.7s1.2-0.7,2.1-0.7c0.8,0,1.5,0.2,2.1,0.6c0.5,0.4,0.9,1,0.9,1.8h-1.3
				c0-0.4-0.2-0.7-0.5-0.9s-0.7-0.3-1.2-0.3s-0.8,0.1-1.1,0.3s-0.4,0.5-0.4,0.8s0.2,0.6,0.5,0.8s0.8,0.3,1.4,0.5
				c0.5,0.1,1,0.2,1.4,0.4s0.8,0.4,1.1,0.7c0.3,0.3,0.4,0.7,0.4,1.3c0,0.7-0.3,1.3-0.8,1.8C261.6,188.4,260.8,188.6,259.9,188.6z"/>
			<path class="st1" d="M272.7,188.6c-0.8,0-1.4-0.2-2-0.5s-1.1-0.8-1.4-1.4c-0.4-0.6-0.5-1.4-0.5-2.2s0.2-1.6,0.5-2.2
				c0.4-0.6,0.8-1.1,1.4-1.5s1.3-0.5,2-0.5s1.4,0.2,2,0.5s1.1,0.8,1.4,1.5c0.4,0.6,0.5,1.4,0.5,2.2s-0.2,1.6-0.5,2.2
				c-0.3,0.6-0.8,1.1-1.4,1.4C274.1,188.4,273.4,188.6,272.7,188.6z M272.7,187.5c0.5,0,0.9-0.1,1.3-0.3s0.7-0.6,1-1
				c0.2-0.4,0.4-1,0.4-1.7s-0.1-1.2-0.4-1.7c-0.2-0.4-0.6-0.8-1-1s-0.8-0.3-1.3-0.3s-0.9,0.1-1.3,0.3s-0.7,0.6-1,1
				c-0.2,0.5-0.4,1-0.4,1.7s0.1,1.2,0.4,1.7s0.6,0.8,1,1S272.2,187.5,272.7,187.5z"/>
			<path class="st1" d="M279,188.4v-6.8h-1.2v-1.1h1.2v-1.4c0-0.8,0.2-1.3,0.6-1.7s0.9-0.5,1.7-0.5h0.8v1.1h-0.6
				c-0.4,0-0.7,0.1-0.9,0.2c-0.2,0.2-0.3,0.5-0.3,0.8v1.3h2v1.1h-2v6.8L279,188.4L279,188.4z"/>
			<path class="st1" d="M35.1,210.6c-0.7,0-1.2-0.1-1.6-0.3c-0.4-0.2-0.8-0.5-1-0.9s-0.3-0.8-0.3-1.2c0-0.8,0.3-1.4,0.9-1.9
				c0.6-0.4,1.5-0.7,2.5-0.7h2.1v-0.1c0-0.7-0.2-1.2-0.5-1.6c-0.4-0.4-0.8-0.5-1.5-0.5c-0.5,0-1,0.1-1.4,0.4
				c-0.4,0.3-0.6,0.6-0.7,1.1h-1.4c0.1-0.6,0.2-1.1,0.6-1.5c0.3-0.4,0.8-0.7,1.3-0.9s1-0.3,1.6-0.3c1.1,0,1.9,0.3,2.5,0.9
				c0.6,0.6,0.8,1.4,0.8,2.4v4.9h-1.1l-0.1-1.4c-0.2,0.4-0.5,0.8-1,1.1C36.4,210.5,35.8,210.6,35.1,210.6z M35.3,209.5
				c0.5,0,1-0.1,1.3-0.4c0.4-0.3,0.6-0.6,0.8-1s0.3-0.9,0.3-1.3l0,0h-2c-0.8,0-1.3,0.1-1.7,0.4c-0.3,0.3-0.5,0.6-0.5,1
				s0.2,0.8,0.5,1C34.3,209.4,34.8,209.5,35.3,209.5z"/>
			<path class="st1" d="M44.8,210.6c-0.8,0-1.4-0.2-2-0.5c-0.6-0.4-1.1-0.8-1.4-1.5c-0.3-0.6-0.5-1.4-0.5-2.2s0.2-1.6,0.5-2.2
				s0.8-1.1,1.4-1.5c0.6-0.4,1.3-0.5,2-0.5c0.9,0,1.7,0.2,2.4,0.7s1.1,1.1,1.2,2H47c-0.1-0.5-0.4-0.9-0.8-1.1
				c-0.4-0.3-0.9-0.4-1.5-0.4c-0.5,0-0.9,0.1-1.3,0.3c-0.4,0.2-0.7,0.6-1,1s-0.4,1-0.4,1.7s0.1,1.2,0.4,1.7s0.6,0.8,1,1
				s0.8,0.3,1.3,0.3s1-0.1,1.5-0.4c0.4-0.3,0.7-0.7,0.8-1.2h1.4c-0.2,0.8-0.6,1.4-1.2,1.9S45.7,210.6,44.8,210.6z"/>
			<path class="st1" d="M53.2,210.4c-0.7,0-1.3-0.2-1.7-0.5c-0.4-0.4-0.6-1-0.6-1.9v-4.4h-1.4v-1.1h1.4l0.2-1.9h1.2v1.9h2.3v1.1
				h-2.3v4.4c0,0.5,0.1,0.8,0.3,1s0.6,0.3,1.1,0.3h0.8v1.1L53.2,210.4L53.2,210.4z"/>
			<path class="st1" d="M57,200.7c-0.3,0-0.5-0.1-0.7-0.3S56,200,56,199.7s0.1-0.5,0.3-0.6c0.2-0.2,0.4-0.3,0.7-0.3s0.5,0.1,0.7,0.3
				s0.3,0.4,0.3,0.6c0,0.3-0.1,0.5-0.3,0.7C57.5,200.6,57.3,200.7,57,200.7z M56.4,210.4v-7.9h1.3v7.9H56.4z"/>
			<path class="st1" d="M62.3,210.4l-3-7.9h1.4l2.4,6.6l2.4-6.6h1.4l-3,7.9H62.3z"/>
			<path class="st1" d="M69.2,200.7c-0.3,0-0.5-0.1-0.7-0.3s-0.3-0.4-0.3-0.7s0.1-0.5,0.3-0.6c0.2-0.2,0.4-0.3,0.7-0.3
				s0.5,0.1,0.7,0.3s0.3,0.4,0.3,0.6c0,0.3-0.1,0.5-0.3,0.7C69.7,200.6,69.4,200.7,69.2,200.7z M68.5,210.4v-7.9h1.4v7.9H68.5z"/>
			<path class="st1" d="M75.3,210.4c-0.7,0-1.3-0.2-1.7-0.5c-0.4-0.4-0.6-1-0.6-1.9v-4.4h-1.4v-1.1H73l0.2-1.9h1.2v1.9h2.3v1.1h-2.3
				v4.4c0,0.5,0.1,0.8,0.3,1c0.2,0.2,0.6,0.3,1.1,0.3h0.8v1.1L75.3,210.4L75.3,210.4z"/>
			<path class="st1" d="M79.3,213.9l2-4.3h-0.5l-3.2-7.2h1.5l2.6,6.2l2.8-6.2h1.4l-5.2,11.5H79.3z"/>
			<path class="st1" d="M95.2,210.6c-0.8,0-1.4-0.2-2-0.5c-0.6-0.4-1.1-0.8-1.4-1.5c-0.3-0.6-0.5-1.4-0.5-2.2s0.2-1.6,0.5-2.2
				c0.4-0.6,0.8-1.1,1.4-1.5s1.3-0.5,2-0.5c0.9,0,1.7,0.2,2.4,0.7c0.7,0.5,1,1.1,1.2,2h-1.4c-0.1-0.5-0.4-0.9-0.8-1.1
				c-0.4-0.3-0.9-0.4-1.5-0.4c-0.5,0-0.9,0.1-1.3,0.3s-0.7,0.6-1,1s-0.4,1-0.4,1.7s0.1,1.2,0.4,1.7s0.6,0.8,1,1s0.8,0.3,1.3,0.3
				s1-0.1,1.5-0.4c0.4-0.3,0.7-0.7,0.8-1.2h1.4c-0.2,0.8-0.6,1.4-1.2,1.9C96.9,210.4,96.1,210.6,95.2,210.6z"/>
			<path class="st1" d="M103.3,210.6c-0.7,0-1.2-0.1-1.6-0.3s-0.8-0.5-1-0.9s-0.3-0.8-0.3-1.2c0-0.8,0.3-1.4,0.9-1.9
				s1.5-0.7,2.5-0.7h2.1v-0.1c0-0.7-0.2-1.2-0.5-1.6c-0.4-0.4-0.8-0.5-1.5-0.5c-0.5,0-1,0.1-1.3,0.4c-0.4,0.3-0.6,0.6-0.7,1.1h-1.4
				c0.1-0.6,0.2-1.1,0.6-1.5c0.3-0.4,0.8-0.7,1.3-0.9s1-0.3,1.6-0.3c1.1,0,1.9,0.3,2.5,0.9s0.8,1.4,0.8,2.4v4.9h-1.2L106,209
				c-0.2,0.4-0.5,0.8-1,1.1C104.6,210.5,104,210.6,103.3,210.6z M103.5,209.5c0.5,0,1-0.1,1.3-0.4c0.4-0.3,0.6-0.6,0.8-1
				c0.2-0.4,0.3-0.9,0.3-1.3l0,0h-2c-0.8,0-1.3,0.1-1.7,0.4c-0.3,0.3-0.5,0.6-0.5,1s0.2,0.8,0.5,1
				C102.5,209.4,102.9,209.5,103.5,209.5z"/>
			<path class="st1" d="M109.3,210.4v-7.9h1.2l0.1,1.4c0.3-0.5,0.6-0.9,1.1-1.2s1-0.4,1.6-0.4c0.9,0,1.7,0.3,2.2,0.9
				c0.6,0.6,0.8,1.4,0.8,2.6v4.6H115v-4.5c0-1.6-0.7-2.5-2-2.5c-0.7,0-1.2,0.2-1.7,0.7c-0.4,0.5-0.7,1.2-0.7,2.1v4.1L109.3,210.4
				L109.3,210.4z"/>
			<path class="st1" d="M122.7,210.4v-7.9h1.2l0.1,1.5c0.2-0.5,0.6-0.9,1.1-1.2s1.1-0.5,1.9-0.5v1.4h-0.4c-0.5,0-0.9,0.1-1.3,0.2
				c-0.4,0.2-0.7,0.5-0.9,0.8c-0.2,0.4-0.4,0.9-0.4,1.6v4L122.7,210.4L122.7,210.4z"/>
			<path class="st1" d="M131.8,210.6c-0.8,0-1.4-0.2-2-0.5s-1.1-0.8-1.4-1.5c-0.3-0.6-0.5-1.4-0.5-2.2s0.2-1.6,0.5-2.2
				c0.3-0.6,0.8-1.1,1.4-1.5s1.3-0.5,2.1-0.5s1.4,0.2,2,0.5s1,0.8,1.3,1.4c0.3,0.6,0.5,1.2,0.5,1.8c0,0.1,0,0.2,0,0.3s0,0.2,0,0.4
				h-6.3c0,0.6,0.2,1.1,0.4,1.5s0.6,0.7,0.9,0.9c0.4,0.2,0.8,0.3,1.2,0.3c0.6,0,1-0.1,1.4-0.4c0.4-0.3,0.6-0.6,0.8-1h1.3
				c-0.2,0.7-0.6,1.4-1.2,1.8C133.5,210.4,132.7,210.6,131.8,210.6z M131.8,203.4c-0.6,0-1.2,0.2-1.7,0.6c-0.5,0.4-0.8,1-0.9,1.7h5
				c0-0.7-0.3-1.3-0.7-1.7C133,203.6,132.4,203.4,131.8,203.4z"/>
			<path class="st1" d="M140.9,210.6c-0.8,0-1.5-0.2-2.1-0.5c-0.6-0.4-1-0.9-1.4-1.5s-0.5-1.3-0.5-2.1s0.2-1.5,0.5-2.1
				s0.8-1.1,1.4-1.5c0.6-0.4,1.3-0.5,2.1-0.5c0.6,0,1.2,0.1,1.7,0.4c0.5,0.3,0.9,0.6,1.2,1.1V199h1.3v11.5h-1.2l-0.1-1.3
				c-0.3,0.4-0.6,0.7-1.1,1S141.6,210.6,140.9,210.6z M141,209.5c0.5,0,1-0.1,1.4-0.4s0.7-0.6,1-1c0.2-0.5,0.3-1,0.3-1.6
				s-0.1-1.1-0.3-1.6s-0.6-0.8-1-1.1s-0.9-0.4-1.4-0.4s-1,0.1-1.4,0.4c-0.4,0.2-0.7,0.6-1,1.1c-0.2,0.4-0.3,1-0.3,1.6
				s0.1,1.1,0.3,1.6s0.6,0.8,1,1C140.1,209.3,140.5,209.5,141,209.5z"/>
			<path class="st1" d="M150.2,210.6c-0.9,0-1.7-0.3-2.2-0.9c-0.6-0.6-0.8-1.5-0.8-2.6v-4.6h1.3v4.5c0,1.7,0.7,2.5,2,2.5
				c0.7,0,1.3-0.2,1.7-0.7s0.7-1.2,0.7-2.1v-4.1h1.3v7.9H153l-0.1-1.4c-0.2,0.5-0.6,0.9-1.1,1.2
				C151.4,210.5,150.9,210.6,150.2,210.6z"/>
			<path class="st1" d="M160.2,210.6c-0.8,0-1.4-0.2-2-0.5c-0.6-0.4-1.1-0.8-1.4-1.5c-0.3-0.6-0.5-1.4-0.5-2.2s0.2-1.6,0.5-2.2
				c0.4-0.6,0.8-1.1,1.4-1.5c0.6-0.4,1.3-0.5,2-0.5c0.9,0,1.7,0.2,2.4,0.7c0.6,0.5,1,1.1,1.2,2h-1.4c-0.1-0.5-0.4-0.9-0.8-1.1
				c-0.4-0.3-0.9-0.4-1.5-0.4c-0.4,0-0.9,0.1-1.3,0.3c-0.4,0.2-0.7,0.6-1,1s-0.4,1-0.4,1.7s0.1,1.2,0.4,1.7s0.6,0.8,1,1
				s0.8,0.3,1.3,0.3c0.6,0,1-0.1,1.5-0.4c0.4-0.3,0.7-0.7,0.8-1.2h1.4c-0.2,0.8-0.6,1.4-1.2,1.9
				C161.9,210.4,161.1,210.6,160.2,210.6z"/>
			<path class="st1" d="M169.2,210.6c-0.8,0-1.4-0.2-2-0.5c-0.6-0.4-1.1-0.8-1.4-1.5c-0.3-0.6-0.5-1.4-0.5-2.2s0.2-1.6,0.5-2.2
				s0.8-1.1,1.4-1.5c0.6-0.4,1.3-0.5,2.1-0.5s1.4,0.2,2,0.5c0.6,0.4,1,0.8,1.3,1.4s0.4,1.2,0.4,1.8c0,0.1,0,0.2,0,0.3s0,0.2,0,0.4
				h-6.3c0,0.6,0.2,1.1,0.4,1.5s0.6,0.7,0.9,0.9c0.4,0.2,0.8,0.3,1.2,0.3c0.6,0,1-0.1,1.4-0.4c0.4-0.3,0.7-0.6,0.8-1h1.3
				c-0.2,0.7-0.6,1.4-1.2,1.8C170.9,210.4,170.1,210.6,169.2,210.6z M169.2,203.4c-0.6,0-1.2,0.2-1.7,0.6c-0.5,0.4-0.8,1-0.9,1.7h5
				c0-0.7-0.3-1.3-0.7-1.7C170.4,203.6,169.9,203.4,169.2,203.4z"/>
			<path class="st1" d="M182,210.6c-1,0-1.7-0.2-2.4-0.7c-0.6-0.5-1-1.1-1.1-1.9h1.4c0.1,0.4,0.3,0.8,0.7,1.1s0.8,0.5,1.4,0.5
				c0.6,0,1-0.1,1.2-0.4c0.3-0.2,0.4-0.5,0.4-0.9c0-0.5-0.2-0.8-0.5-1s-0.8-0.3-1.5-0.4c-0.4-0.1-0.8-0.2-1.3-0.4
				c-0.4-0.2-0.8-0.4-1.1-0.7s-0.4-0.7-0.4-1.2c0-0.7,0.3-1.3,0.8-1.7s1.2-0.7,2.1-0.7c0.8,0,1.5,0.2,2.1,0.6c0.5,0.4,0.8,1,0.9,1.8
				h-1.3c-0.1-0.4-0.2-0.7-0.5-0.9s-0.7-0.3-1.2-0.3s-0.8,0.1-1.1,0.3s-0.4,0.5-0.4,0.8s0.2,0.6,0.5,0.8s0.8,0.3,1.4,0.5
				c0.5,0.1,1,0.2,1.4,0.4s0.8,0.4,1.1,0.7s0.4,0.7,0.4,1.3c0,0.7-0.3,1.3-0.8,1.8C183.7,210.4,182.9,210.6,182,210.6z"/>
			<path class="st1" d="M189.8,210.4c-0.7,0-1.3-0.2-1.7-0.5s-0.6-1-0.6-1.9v-4.4h-1.4v-1.1h1.4l0.2-1.9h1.2v1.9h2.3v1.1h-2.3v4.4
				c0,0.5,0.1,0.8,0.3,1s0.6,0.3,1.1,0.3h0.8v1.1L189.8,210.4L189.8,210.4z"/>
			<path class="st1" d="M192.8,210.4v-7.9h1.2l0.1,1.5c0.2-0.5,0.6-0.9,1.1-1.2s1.1-0.5,1.9-0.5v1.4h-0.4c-0.5,0-0.9,0.1-1.3,0.2
				c-0.4,0.2-0.7,0.5-0.9,0.8c-0.2,0.4-0.4,0.9-0.4,1.6v4L192.8,210.4L192.8,210.4z"/>
			<path class="st1" d="M201.9,210.6c-0.8,0-1.4-0.2-2-0.5s-1.1-0.8-1.4-1.5c-0.3-0.6-0.5-1.4-0.5-2.2s0.2-1.6,0.5-2.2
				c0.3-0.6,0.8-1.1,1.4-1.5s1.3-0.5,2.1-0.5s1.4,0.2,2,0.5s1,0.8,1.3,1.4c0.3,0.6,0.5,1.2,0.5,1.8c0,0.1,0,0.2,0,0.3s0,0.2,0,0.4
				h-6.3c0,0.6,0.2,1.1,0.4,1.5s0.6,0.7,0.9,0.9c0.4,0.2,0.8,0.3,1.2,0.3c0.6,0,1-0.1,1.4-0.4c0.4-0.3,0.6-0.6,0.8-1h1.3
				c-0.2,0.7-0.6,1.4-1.2,1.8C203.6,210.4,202.8,210.6,201.9,210.6z M201.9,203.4c-0.6,0-1.2,0.2-1.7,0.6c-0.5,0.4-0.8,1-0.9,1.7h5
				c0-0.7-0.3-1.3-0.7-1.7C203.1,203.6,202.6,203.4,201.9,203.4z"/>
			<path class="st1" d="M210.5,210.6c-0.9,0-1.7-0.2-2.4-0.7c-0.6-0.5-1-1.1-1.1-1.9h1.4c0.1,0.4,0.3,0.8,0.7,1.1s0.8,0.5,1.5,0.5
				c0.6,0,1-0.1,1.2-0.4c0.3-0.2,0.4-0.5,0.4-0.9c0-0.5-0.2-0.8-0.5-1s-0.8-0.3-1.5-0.4c-0.4-0.1-0.9-0.2-1.3-0.4
				c-0.4-0.2-0.8-0.4-1.1-0.7s-0.4-0.7-0.4-1.2c0-0.7,0.3-1.3,0.8-1.7s1.2-0.7,2.1-0.7c0.8,0,1.5,0.2,2.1,0.6c0.5,0.4,0.8,1,0.9,1.8
				h-1.4c-0.1-0.4-0.2-0.7-0.5-0.9s-0.7-0.3-1.2-0.3s-0.9,0.1-1.1,0.3c-0.3,0.2-0.4,0.5-0.4,0.8s0.2,0.6,0.5,0.8s0.8,0.3,1.4,0.5
				c0.5,0.1,1,0.2,1.4,0.4s0.8,0.4,1.1,0.7s0.4,0.7,0.4,1.3c0,0.7-0.3,1.3-0.8,1.8C212.1,210.4,211.4,210.6,210.5,210.6z"/>
			<path class="st1" d="M218.5,210.6c-0.9,0-1.7-0.2-2.4-0.7c-0.6-0.5-1-1.1-1.1-1.9h1.4c0.1,0.4,0.3,0.8,0.7,1.1s0.8,0.5,1.5,0.5
				c0.6,0,1-0.1,1.2-0.4c0.3-0.2,0.4-0.5,0.4-0.9c0-0.5-0.2-0.8-0.5-1s-0.8-0.3-1.5-0.4c-0.4-0.1-0.9-0.2-1.3-0.4
				c-0.4-0.2-0.8-0.4-1.1-0.7s-0.4-0.7-0.4-1.2c0-0.7,0.3-1.3,0.8-1.7s1.2-0.7,2.1-0.7c0.8,0,1.5,0.2,2.1,0.6c0.5,0.4,0.8,1,0.9,1.8
				h-1.4c-0.1-0.4-0.2-0.7-0.5-0.9s-0.7-0.3-1.2-0.3s-0.9,0.1-1.1,0.3c-0.3,0.2-0.4,0.5-0.4,0.8s0.2,0.6,0.5,0.8s0.8,0.3,1.4,0.5
				c0.5,0.1,1,0.2,1.4,0.4s0.8,0.4,1.1,0.7s0.4,0.7,0.4,1.3c0,0.7-0.3,1.3-0.8,1.8C220.1,210.4,219.4,210.6,218.5,210.6z"/>
			<path class="st1" d="M223.9,210.5c-0.3,0-0.5-0.1-0.7-0.3s-0.3-0.4-0.3-0.6c0-0.3,0.1-0.5,0.3-0.6c0.2-0.2,0.4-0.3,0.7-0.3
				s0.5,0.1,0.6,0.3c0.2,0.2,0.3,0.4,0.3,0.6c0,0.3-0.1,0.5-0.3,0.6C224.4,210.4,224.1,210.5,223.9,210.5z"/>
			<path class="st2" d="M36.1,57.7c0.3-0.2,0.8-0.2,1.7-0.2c1,0,1.8,0.1,2.2,0.3s0.7,0.5,1,0.9s0.5,0.8,0.5,1.2
				c0,0.1,0.1,0.3,0.1,0.4c0,0.3-0.2,0.7-0.6,1.2c-0.5,0.5-1,0.8-1.3,0.8c-0.4,0-0.8-0.2-1-0.7c-0.3-0.5-0.6-0.7-1-0.7
				c-0.3,0-0.6,0.2-0.9,0.6c-0.3,0.4-0.4,0.9-0.4,1.3c0,0.5,0.2,1.4,0.5,2.5c0.3,1.2,0.7,1.9,0.9,2.4c0.4,0.5,0.8,1.3,1.4,2.4
				c0.6,1.2,1,1.9,1.1,2c0.1,0.2,0.2,0.4,0.2,0.7c0,0.5,0.1,1,0.4,1.6c0.2,0.6,0.4,1.2,0.5,1.9c0,0.1,0,0.4,0,0.7
				c0,1.7-0.3,2.9-1,3.8c-0.3,0.4-0.8,0.8-1.4,1.1c-0.7,0.3-1.3,0.5-1.8,0.5c-0.7,0-1.5-0.4-2.5-1.1s-1.6-1.5-1.9-2.2
				c-0.2-0.5-0.2-0.9,0-1.2c0.4-0.5,0.9-0.8,1.6-0.8c0.1,0,0.3,0,0.4,0.1c0.2,0.1,0.5,0.5,0.9,1.1s0.8,0.9,1.2,0.9
				c0.3,0,0.5-0.1,0.6-0.4c0.1-0.2,0.1-0.5,0.1-0.9c0-1.1-0.2-2.1-0.6-3.1c-0.3-0.7-0.4-1.1-0.4-1.4c0-0.2-0.3-1-1-2.5
				c-0.5-1.2-1-2.3-1.5-3.4c-0.8-2.1-1.1-3.7-1.1-4.6c0-1.2,0.4-2.2,1-3.2C34.8,58.7,35.5,58,36.1,57.7z"/>
			<path class="st2" d="M47.5,58.4l0.8-1.1H54l0.9,0.9c0.6,0.6,1,1.3,1.2,2.2s0.4,2.3,0.6,4.1c0.1,0.7,0.1,1.7,0.1,3.1
				c0,3.1-0.3,5.9-0.9,8.5c-0.6,2.6-1.3,4.3-2.3,5.2c-0.3,0.3-0.8,0.6-1.3,0.8c-0.6,0.2-1.1,0.3-1.5,0.3c-0.2,0-0.3,0-0.5-0.1
				s-0.6-0.2-1-0.2c-0.3,0-0.7-0.2-1-0.8c-0.4-0.5-0.7-1.1-1-1.8c-0.4-1.2-0.7-2.5-0.8-3.9s-0.2-3.7-0.2-6.8v-2.1
				c0-2.9,0.1-4.8,0.2-5.8C46.7,59.9,47,59.1,47.5,58.4z M51.8,60.6c-0.3-0.6-0.5-0.9-0.7-0.9s-0.5,0.5-0.8,1.4
				c-0.2,0.7-0.4,2.1-0.4,4.2c0,1.7,0.1,3.4,0.2,5.2c0.1,1.7,0.3,3.4,0.6,4.9s0.5,2.3,0.7,2.3s0.3-0.3,0.4-1c0.2-0.6,0.3-1,0.5-1.4
				c0.1-0.2,0.2-1.5,0.4-4c0.2-1.2,0.2-2.3,0.2-3.4C53,64.5,52.6,62.1,51.8,60.6z"/>
			<path class="st2" d="M73,58.6c0.4-0.2,0.8-0.2,1.1-0.2c0.8,0,1.4,0.3,1.7,0.8c0.2,0.3,0.5,1.6,0.7,3.9s0.4,4.7,0.5,7.4
				c0,0.8,0.1,2.1,0.2,3.7s0.1,3,0.2,4.1c0.1,1.2,0.1,2.1,0.1,2.8c0,0.4-0.2,0.7-0.7,1s-1,0.4-1.5,0.4s-0.8-0.1-1-0.3l-0.6-0.5
				l-0.1-5.5c-0.2-6.3-0.5-9.5-0.8-9.5c-0.2,0-0.6,0.8-1,2.4C71.5,70,71.2,70.6,71,71c-0.3,0.4-0.7,0.6-1.1,0.6
				c-0.3,0-0.7-0.1-1.2-0.3c-0.5-0.2-1-0.7-1.3-1.4c-0.4-0.8-0.6-1.2-0.6-1.3c0-0.1-0.1-0.3-0.2-0.6c-0.2-0.3-0.3-0.6-0.5-0.9
				s-0.3-0.4-0.3-0.3v0.6c0,1.3,0,3.3,0.1,5.9l0.2,6.4l-0.6,1c-0.7,1-1.2,1.6-1.7,1.6c-0.3,0-0.6-0.2-0.9-0.7
				c-0.2-0.4-0.4-0.9-0.5-1.7c-0.1-0.8-0.1-3.1-0.2-6.9c-0.2-7.1-0.3-11.1-0.5-12c0-0.1-0.1-0.3-0.1-0.5c0-0.3,0.2-0.7,0.5-1
				c0.4-0.4,0.8-0.5,1.3-0.5s1.1,0.1,1.7,0.4c0.6,0.3,1.1,0.7,1.4,1.1c0.3,0.5,1.1,1.8,2.3,4c0.3,0.6,0.5,0.9,0.7,0.9
				s0.3-0.2,0.5-0.6c0.2-0.5,0.4-1.1,0.8-1.8c0.4-0.9,0.6-1.4,0.6-1.5c0-0.3,0.2-0.7,0.6-1.4C72.5,59,72.8,58.7,73,58.6z"/>
			<path class="st2" d="M84,58.5c0.4-0.1,0.9-0.1,1.5-0.1c1.7,0,2.7,0.2,3.2,0.6c0.3,0.3,0.5,0.6,0.5,1s-0.1,0.7-0.5,1
				c-0.3,0.3-0.7,0.4-1.2,0.4s-0.8,0.1-0.9,0.3c-0.2,0.2-0.2,0.8-0.2,1.6c0,0.2,0,1,0.1,2.3c0.1,1.5,0.1,2.5,0.2,2.9
				s0.2,0.7,0.3,0.7c0,0,0.2,0,0.6,0s0.7,0,0.9,0c0.7,0,1.3,0.2,1.6,0.6c0.2,0.2,0.3,0.4,0.3,0.6c0,0.5-0.7,0.9-2,1.4
				c-0.8,0.3-1.2,0.5-1.4,0.6c-0.1,0.1-0.3,0.5-0.3,1c-0.1,0.5-0.1,0.9-0.1,1.3c0,1.5,0.1,2.7,0.4,3.4c0.1,0.3,0.3,0.5,0.4,0.6
				c0.2,0.1,0.5,0.1,1,0.1c0.6,0,1.2,0.1,1.7,0.4s0.7,0.6,0.7,1c0,0.3-0.2,0.6-0.7,1.1c-0.7,0.7-2,1.1-3.7,1.1
				c-1.8,0-2.9-0.4-3.5-1.1c-0.3-0.4-0.5-3-0.5-7.8c-0.1-6-0.1-9.5-0.2-10.6l-0.1-3.4l0.6-0.4C83.1,58.8,83.6,58.6,84,58.5z"/>
			<path class="st2" d="M96.5,57.3c0.4-0.4,1.1-0.6,2.1-0.6h1c1.7,0.1,2.6,0.1,3,0.2c0.2,0.1,0.6,0.1,1.3,0.2
				c0.7,0.1,1.2,0.2,1.5,0.4s0.5,0.6,0.5,1.2c0,0.6-0.2,1-0.4,1.2c-0.2,0.2-0.6,0.4-1.1,0.5c-0.6,0.1-1,0.2-1.1,0.3
				s-0.2,3.1-0.2,8.7c0,3.9,0,6.7,0.1,8.3c0.1,1.3,0.1,2,0.1,2.1c0,0.6-0.1,1.2-0.4,1.6c-0.3,0.6-0.8,0.9-1.6,0.9
				c-0.5,0-0.9-0.1-1.4-0.4L99,81.4L99.1,71c0.1-2.7,0.1-5.4,0.1-8c0-1.6-0.1-2.5-0.4-2.7c-0.4-0.2-0.6-0.3-0.7-0.2
				c-0.1,0-0.3,0.1-0.5,0.1c-0.6,0-1-0.2-1.4-0.5s-0.6-0.7-0.6-1.1C95.7,58.1,96,57.7,96.5,57.3z"/>
			<path class="st2" d="M110.8,57.4c0.1-0.2,0.4-0.4,0.8-0.4c0.5,0,1.1,0.2,1.6,0.5c0.4,0.2,0.6,0.4,0.7,0.6
				c0.1,0.2,0.1,0.6,0.2,1.2c0,4.3,0.1,6.9,0.1,7.6c0.1,0.7,0.2,1.1,0.4,1.1h0.1c0.3,0,0.6-0.1,0.9-0.3c0.2-0.1,0.3-0.4,0.4-0.9
				s0.1-1.6,0.1-3.4c0-2.7,0.1-4.2,0.3-4.5c0.3-0.5,0.8-0.8,1.7-0.8c0.3,0,0.6,0.1,0.9,0.2l0.6,0.4l-0.1,4.8c-0.1,2-0.1,4.7-0.1,8.4
				c0,4,0.1,6.7,0.2,7.9l0.2,2l-0.7,0.3c-0.2,0.1-0.5,0.2-0.7,0.2s-0.5-0.1-1-0.3c-0.6-0.3-1-0.6-1.1-0.8c-0.1-0.2-0.2-1.9-0.2-5.1
				c-0.1-3.1-0.2-4.7-0.3-4.9c-0.1-0.1-0.4-0.1-0.9-0.1l-0.8,0.2l0.1,3.8c0.1,2.6,0.3,4.1,0.5,4.6c0.1,0.4,0.2,0.7,0.2,1
				c0,0.7-0.3,1.1-1,1.2c-0.3,0.1-0.5,0.1-0.7,0.1c-0.9,0-1.5-0.2-2-0.7c-0.2-0.2-0.3-0.9-0.4-2s-0.1-4.5-0.1-10.1
				C110.6,61.7,110.6,57.7,110.8,57.4z"/>
			<path class="st2" d="M124.8,58.6c0.4-0.4,0.8-0.6,1.4-0.6s1,0.2,1.4,0.6l0.6,0.6l0.3,10.3c0.1,5.7,0.2,9,0.2,9.8
				c0,0.5,0,0.8,0,1.1c0,0.3,0,0.5-0.1,0.7c0,0.2-0.1,0.3-0.1,0.4c-0.1,0.1-0.1,0.2-0.1,0.2s-0.1,0.1-0.2,0.1s-0.2,0.1-0.2,0.1
				c-0.3,0.2-0.6,0.3-0.8,0.3c-0.1,0-0.4-0.1-0.9-0.2c-0.7-0.3-1.1-0.6-1.2-0.8c-0.1-0.1-0.2-3.8-0.3-11c-0.1-7.2-0.1-10.8-0.2-10.9
				C124.3,59.3,124.4,59,124.8,58.6z"/>
			<path class="st2" d="M134.4,57.3c0.5-0.2,0.9-0.3,1.4-0.3c0.9,0,1.5,0.6,1.8,1.7c0.2,0.9,0.6,1.8,1.1,2.8s0.8,1.8,1,2.3
				c0.3,1,0.6,1.6,0.8,1.9c0.1,0.1,0.2,0.2,0.2,0.2c0.1,0,0.2-0.7,0.4-2c0.1-1.2,0.1-2,0.1-2.5V61c0-0.2-0.1-0.6-0.1-0.9
				c0-0.8,0.2-1.4,0.6-1.8c0.4-0.5,0.9-0.7,1.7-0.7c0.6,0,1,0.2,1.3,0.5c0.3,0.2,0.4,0.6,0.4,1.1c0,0.6,0,1.1-0.1,1.6
				s-0.1,4.2-0.1,11.1c0,4.3-0.1,6.9-0.1,7.8s-0.1,1.4-0.4,1.6c-0.3,0.3-0.8,0.5-1.5,0.5c-1.3,0-2.1-0.6-2.3-1.9
				c-0.1-0.5-0.4-1.4-0.9-2.7c-0.5-1.2-0.8-2.3-0.9-3.2c-0.2-1.2-0.7-2.9-1.3-5c-0.1-0.2-0.1-0.3-0.1-0.3c-0.1,0-0.2,1.3-0.2,3.8
				v2.2v2.4c0,2.5-0.1,3.9-0.2,4.2c-0.3,0.9-0.9,1.3-1.9,1.3c-0.6,0-1-0.2-1.4-0.6c-0.3-0.3-0.4-0.6-0.4-0.9c0-0.1,0-0.3,0.1-0.8
				c0.1-1,0.2-4.7,0.2-11c0-7,0.1-10.8,0.2-11.2c0.1-0.3,0.2-0.4,0.5-0.5C134.3,57.4,134.3,57.4,134.4,57.3z"/>
			<path class="st2" d="M151.8,58.8c0-0.2,0.2-0.4,0.5-0.6c0.3-0.2,0.7-0.4,1.1-0.6c0.4-0.2,0.7-0.3,0.8-0.5s0.3-0.3,0.5-0.3
				s0.7,0.2,1.4,0.6c0.7,0.4,1.1,0.8,1.2,1.3c0,0.1,0,0.2,0,0.3c0,0.3-0.4,0.6-1.3,1c-0.9,0.4-1.5,0.8-1.7,1.3
				c-0.5,0.9-0.7,3.1-0.7,6.6c0,1.2,0,2.1,0.1,2.6c0.4,4,0.7,6.2,0.9,6.7l0.1,0.1c0.3,0,0.4-1.1,0.4-3.4c0.1-1.2,0.2-2.1,0.3-2.5
				c0.2-0.6,0.1-1-0.2-1.3c-0.4-0.4-0.6-0.8-0.6-1.2c0-0.3,0.1-0.6,0.4-0.9c0.3-0.4,1-0.6,2.1-0.6c0.7,0,1.2,0,1.4,0.1
				s0.5,0.2,0.7,0.5c0.3,0.4,0.4,0.8,0.4,1.3s-0.1,1.1-0.2,1.8c-0.2,1.1-0.4,2.6-0.5,4.5c-0.2,2.2-0.4,3.6-0.7,4.2
				c-0.4,0.8-0.7,1.3-1,1.5c-0.3,0.3-0.8,0.5-1.5,0.7c-0.5,0.2-0.9,0.2-1.3,0.2c-0.6,0-1.1-0.2-1.7-0.7c-0.8-0.6-1.4-2-1.8-4.3
				c-0.1-0.5-0.2-0.8-0.4-1.1c-0.1-0.1-0.1-0.5-0.2-1.3c0-0.4-0.1-2.4-0.2-6.1l-0.2-5l0.6-2.1c0.4-1.3,0.8-2.2,1-2.5
				C151.7,59.2,151.8,59,151.8,58.8z"/>
			<path class="st3" d="M33.9,118c0.5-0.2,0.9-0.3,1.4-0.3c0.9,0,1.5,0.6,1.8,1.7c0.2,0.9,0.6,1.8,1.1,2.8s0.8,1.8,1,2.4
				c0.3,1,0.6,1.6,0.8,1.9c0.1,0.1,0.2,0.2,0.2,0.2c0.1,0,0.2-0.7,0.4-2c0.1-1.2,0.1-2,0.1-2.5v-0.6c0-0.2-0.1-0.6-0.1-0.9
				c0-0.8,0.2-1.4,0.6-1.8c0.4-0.5,0.9-0.7,1.7-0.7c0.6,0,1,0.2,1.3,0.5c0.3,0.2,0.4,0.6,0.4,1.1c0,0.6,0,1.1-0.1,1.6
				s-0.1,4.2-0.2,11.1c0,4.3-0.1,6.9-0.1,7.8c0,0.9-0.2,1.4-0.4,1.6c-0.3,0.3-0.8,0.5-1.5,0.5c-1.3,0-2.1-0.6-2.3-1.9
				c-0.1-0.5-0.4-1.4-0.9-2.7c-0.5-1.2-0.8-2.3-0.9-3.2c-0.2-1.2-0.7-2.9-1.3-5c-0.1-0.2-0.1-0.3-0.1-0.3c-0.1,0-0.2,1.3-0.2,3.8
				v2.2v2.4c0,2.5-0.1,3.9-0.2,4.2c-0.3,0.9-0.9,1.3-1.9,1.3c-0.6,0-1-0.2-1.4-0.6c-0.3-0.3-0.4-0.6-0.4-0.9c0-0.1,0-0.3,0.1-0.8
				c0.2-1,0.2-4.7,0.2-11c0-7,0.1-10.8,0.2-11.2c0.1-0.3,0.2-0.4,0.5-0.5C33.7,118.1,33.8,118,33.9,118z"/>
			<path class="st3" d="M50.5,119.1l0.8-1.1h5.6l1,1c0.6,0.6,1,1.3,1.2,2.2c0.2,0.9,0.4,2.3,0.6,4.1c0.1,0.7,0.1,1.7,0.1,3.1
				c0,3.1-0.3,5.9-0.9,8.5c-0.6,2.6-1.3,4.3-2.3,5.2c-0.3,0.3-0.8,0.6-1.3,0.8c-0.6,0.2-1.1,0.3-1.5,0.3c-0.2,0-0.3,0-0.5-0.1
				s-0.6-0.2-1-0.2c-0.3,0-0.7-0.2-1.1-0.8c-0.4-0.5-0.7-1.1-1-1.8c-0.4-1.2-0.7-2.5-0.8-3.9s-0.2-3.7-0.2-6.8v-2.2
				c0-2.9,0.1-4.8,0.2-5.8C49.6,120.5,49.9,119.7,50.5,119.1z M54.8,121.3c-0.3-0.6-0.5-0.9-0.7-0.9s-0.5,0.5-0.8,1.4
				c-0.2,0.7-0.4,2.1-0.4,4.2c0,1.6,0.1,3.4,0.2,5.2c0.1,1.7,0.3,3.4,0.6,4.9s0.5,2.3,0.7,2.3s0.3-0.3,0.4-1c0.2-0.6,0.3-1,0.5-1.4
				c0.1-0.2,0.2-1.5,0.4-4c0.1-1.3,0.1-2.5,0.1-3.6C55.9,125.1,55.5,122.7,54.8,121.3z"/>
			<path class="st3" d="M65.5,117.9c0.4-0.4,1.1-0.6,2.1-0.6h1c1.7,0.1,2.6,0.1,3,0.2c0.2,0.1,0.6,0.1,1.3,0.2
				c0.7,0.1,1.2,0.2,1.5,0.4s0.5,0.6,0.5,1.2s-0.2,1-0.4,1.2c-0.2,0.2-0.6,0.4-1.1,0.5c-0.6,0.1-1,0.2-1.1,0.3
				c-0.1,0.2-0.2,3.1-0.2,8.7c0,3.9,0,6.7,0.1,8.3c0.1,1.3,0.1,2,0.1,2.1c0,0.6-0.1,1.2-0.4,1.6c-0.3,0.6-0.8,0.9-1.6,0.9
				c-0.5,0-0.9-0.1-1.4-0.4L68,142l0.1-10.4c0.1-2.7,0.1-5.4,0.1-8c0-1.6-0.1-2.5-0.4-2.7c-0.4-0.2-0.6-0.3-0.7-0.2
				c-0.1,0-0.3,0.1-0.5,0.1c-0.6,0-1-0.2-1.4-0.5s-0.6-0.7-0.6-1.1C64.7,118.8,65,118.3,65.5,117.9z"/>
			<path class="st3" d="M79.8,118.1c0.1-0.2,0.3-0.4,0.8-0.4s1.1,0.2,1.7,0.5c0.4,0.2,0.6,0.4,0.7,0.6s0.1,0.6,0.2,1.2
				c0,4.3,0.1,6.9,0.1,7.6c0,0.7,0.2,1.1,0.4,1.1h0.1c0.3,0,0.6-0.1,0.9-0.3c0.2-0.1,0.3-0.4,0.4-0.9s0.1-1.6,0.1-3.4
				c0-2.7,0.1-4.2,0.3-4.5c0.3-0.5,0.8-0.8,1.7-0.8c0.3,0,0.6,0.1,0.9,0.2l0.6,0.4l-0.1,4.8c-0.1,1.9-0.1,4.8-0.1,8.4
				c0,4,0.1,6.6,0.2,7.9l0.2,2l-0.7,0.3c-0.2,0.1-0.5,0.2-0.7,0.2s-0.5-0.1-1-0.3c-0.6-0.3-1-0.6-1.1-0.8s-0.2-1.9-0.2-5.1
				c-0.1-3.1-0.2-4.7-0.3-4.9c-0.1-0.1-0.4-0.1-0.9,0l-0.8,0.2l0.1,3.8c0.1,2.6,0.3,4.1,0.5,4.6c0.1,0.4,0.2,0.7,0.2,1
				c0,0.7-0.3,1.1-1,1.2c-0.3,0.1-0.5,0.1-0.7,0.1c-0.8,0-1.5-0.2-2-0.7c-0.2-0.2-0.3-0.9-0.4-2c0-1.1-0.1-4.5-0.1-10.1
				C79.6,122.4,79.6,118.4,79.8,118.1z"/>
			<path class="st3" d="M93.8,119.3c0.4-0.4,0.8-0.6,1.4-0.6s1,0.2,1.4,0.6l0.6,0.6l0.3,10.3c0.2,5.7,0.2,9,0.2,9.8
				c0,0.5,0,0.8,0,1.1s0,0.5,0,0.7s-0.1,0.3-0.1,0.4c-0.1,0.1-0.1,0.2-0.1,0.2s-0.1,0.1-0.2,0.1c-0.1,0.1-0.2,0.1-0.2,0.1
				c-0.3,0.2-0.6,0.3-0.8,0.3c-0.1,0-0.4-0.1-0.9-0.2c-0.7-0.3-1.1-0.6-1.2-0.8c-0.1-0.1-0.2-3.8-0.3-11c-0.1-7.2-0.1-10.8-0.2-10.9
				C93.3,119.9,93.4,119.6,93.8,119.3z"/>
			<path class="st3" d="M103.4,118c0.5-0.2,0.9-0.3,1.4-0.3c0.9,0,1.5,0.6,1.8,1.7c0.2,0.9,0.6,1.8,1.1,2.8s0.8,1.8,1,2.4
				c0.3,1,0.6,1.6,0.8,1.9c0.1,0.1,0.2,0.2,0.2,0.2c0.1,0,0.2-0.7,0.4-2c0.1-1.2,0.1-2,0.1-2.5v-0.6c0-0.2-0.1-0.6-0.1-0.9
				c0-0.8,0.2-1.4,0.6-1.8c0.4-0.5,0.9-0.7,1.7-0.7c0.6,0,1,0.2,1.3,0.5c0.3,0.2,0.4,0.6,0.4,1.1c0,0.6,0,1.1-0.1,1.6
				s-0.1,4.2-0.2,11.1c0,4.3-0.1,6.9-0.1,7.8s-0.1,1.4-0.4,1.6c-0.3,0.3-0.8,0.5-1.5,0.5c-1.3,0-2.1-0.6-2.3-1.9
				c-0.1-0.5-0.4-1.4-0.9-2.7c-0.5-1.2-0.8-2.3-0.9-3.2c-0.2-1.2-0.7-2.9-1.3-5c-0.1-0.2-0.1-0.3-0.1-0.3c-0.1,0-0.2,1.3-0.2,3.8
				v2.2v2.4c0,2.5-0.1,3.9-0.2,4.2c-0.3,0.9-1,1.3-1.9,1.3c-0.6,0-1.1-0.2-1.4-0.6c-0.3-0.3-0.4-0.6-0.4-0.9c0-0.1,0-0.3,0.1-0.8
				c0.2-1,0.2-4.7,0.2-11c0-7,0.1-10.8,0.2-11.2c0.1-0.3,0.2-0.4,0.5-0.5C103.3,118.1,103.3,118,103.4,118z"/>
			<path class="st3" d="M120.8,119.5c0-0.2,0.2-0.4,0.5-0.6s0.7-0.4,1.1-0.6s0.7-0.3,0.8-0.5c0.1-0.2,0.3-0.3,0.5-0.3
				s0.7,0.2,1.4,0.6c0.7,0.4,1.1,0.9,1.2,1.3c0,0.1,0,0.2,0,0.3c0,0.3-0.4,0.6-1.3,1s-1.5,0.8-1.7,1.3c-0.5,0.9-0.7,3.1-0.7,6.6
				c0,1.2,0,2.1,0.1,2.6c0.4,4,0.7,6.2,0.9,6.7l0.1,0.1c0.3,0,0.4-1.1,0.4-3.4c0.1-1.2,0.2-2.1,0.3-2.5c0.2-0.6,0.1-1-0.2-1.3
				c-0.4-0.4-0.6-0.8-0.6-1.2c0-0.3,0.1-0.6,0.4-0.9c0.3-0.4,1-0.5,2.1-0.5c0.7,0,1.2,0,1.4,0.1c0.2,0.1,0.5,0.2,0.7,0.5
				c0.3,0.4,0.4,0.8,0.4,1.3s-0.1,1.1-0.2,1.8c-0.2,1.1-0.4,2.6-0.5,4.5c-0.2,2.2-0.4,3.6-0.7,4.2c-0.4,0.8-0.7,1.3-1,1.5
				c-0.3,0.3-0.8,0.5-1.5,0.7c-0.5,0.2-0.9,0.2-1.3,0.2c-0.6,0-1.1-0.2-1.7-0.7c-0.8-0.6-1.4-2-1.8-4.3c-0.1-0.5-0.2-0.8-0.4-1
				c-0.1-0.1-0.1-0.5-0.2-1.3c0-0.4-0.1-2.4-0.2-6.1l-0.2-5l0.6-2.1c0.4-1.3,0.8-2.2,1-2.5C120.7,119.9,120.8,119.7,120.8,119.5z"/>
			<path class="st4" d="M241.3,146c40.2,0,72.8-5.1,72.8-11.5c0-6.3-32.6-11.5-72.8-11.5s-72.8,5.1-72.8,11.5
				C168.5,140.8,201.1,146,241.3,146z"/>
			<path class="st5" d="M307.8,74.8l-22.4-41.1l-23.8,41.1H307.8z"/>
			<path class="st6" d="M246.8,59.1v71h-5v-71c0-1.1,0.9-2,2-2h0.9C245.8,57.1,246.8,58,246.8,59.1z"/>
			<path class="st7" d="M257.1,133.9H231v-4.1c0-2,1.6-3.6,3.6-3.6h19c2,0,3.6,1.6,3.6,3.6v4.1H257.1z"/>
			<path class="st2" d="M268,138.4h-47.9c-0.8,0-1.4-0.6-1.4-1.4v-2.7c0-2,1.6-3.6,3.6-3.6h43.5c2,0,3.6,1.6,3.6,3.6v2.7
				C269.4,137.8,268.8,138.4,268,138.4z"/>
			<path class="st5" d="M221.6,112.9l-22.4-41.1l-23.8,41.1H221.6z"/>
			<path class="st6" d="M286.4,36.4L200,75.1c-1.3,0.8-3,0.3-3.8-1.1c-0.8-1.3-0.3-3,1.1-3.8l86.4-38.7c1.3-0.8,3-0.3,3.8,1.1
				C288.3,33.9,287.8,35.6,286.4,36.4z"/>
			<path class="st2" d="M250.9,45.3c4.5,4.8,4.3,12.3-0.5,16.8s-12.3,4.3-16.8-0.5s-4.3-12.3,0.5-16.8S246.4,40.5,250.9,45.3z"/>
			<path class="st2" d="M174.9,111.5c1.4,19.2,45.9,19.2,47.3,0H174.9z"/>
			<path class="st2" d="M261,73.5c1.4,19.2,45.9,19.2,47.3,0H261z"/>
			<path class="st8" d="M209.4,117.6c-0.3-1.2-1.5-2.1-2.8-2.1c-1.1,0-2.1,0.7-2.5,1.6c-0.1,0.1-0.2,0.1-0.3,0
				c-0.5-0.9-1.5-1.6-2.6-1.6s-2,0.6-2.5,1.5c-0.1,0.1-0.2,0.1-0.3,0c-0.5-0.9-1.4-1.5-2.5-1.5c-1,0-1.9,0.5-2.4,1.4
				c-0.1,0.1-0.2,0.1-0.3,0c-0.5-0.8-1.4-1.3-2.4-1.3c-1.3,0-2.5,0.9-2.8,2.2c-0.1,0.5-0.9,0.7-1.2,0.9c-0.1,0.1-0.2,0.2-0.2,0.3
				c0,0.2,0.1,0.3,0.2,0.3c0.4,0.1,1,0.3,1.1,0.6c0.3,0.8,1.5,1.4,2.7,1.4s2.3-0.6,2.7-1.4c0.4,0.8,1.4,1.3,2.7,1.3
				c1.2,0,2.2-0.5,2.6-1.3c0.4,0.8,1.5,1.2,2.7,1.2c1.1,0,2.1-0.5,2.5-1.2c0.5,0.7,1.5,1.1,2.6,1.1c1.3,0,2.4-0.6,2.7-1.5
				c0.1-0.3,0.8-0.7,1.1-0.8c0.1,0,0.2-0.1,0.2-0.2v-0.2c0-0.1,0-0.3-0.2-0.4C210,118,209.5,118,209.4,117.6z"/>
			<path class="st9" d="M190.8,120.8c1.5,0,2.7-0.8,2.7-1.8s-1.2-1.7-2.7-1.7s-2.7,0.8-2.7,1.8C188.1,120,189.3,120.8,190.8,120.8z"
				/>
			<path class="st10" d="M196.1,121c1.5,0,2.7-0.8,2.7-1.8s-1.2-1.7-2.7-1.7s-2.7,0.8-2.7,1.8C193.4,120.2,194.6,121,196.1,121z"/>
			<path class="st9" d="M201.4,120.7c1.5,0,2.7-0.8,2.7-1.8s-1.2-1.7-2.7-1.7s-2.7,0.8-2.7,1.8C198.8,119.9,200,120.7,201.4,120.7z"
				/>
			<path class="st10" d="M206.6,120.6c1.5,0,2.7-0.8,2.7-1.8s-1.2-1.7-2.7-1.7s-2.7,0.8-2.7,1.8S205.1,120.7,206.6,120.6z"/>
			<path class="st11" d="M261.4,73.5H261c1.4,19.2,45.9,19.2,47.3,0h-0.4C303.6,89.7,265.8,89.7,261.4,73.5z"/>
			<path class="st11" d="M175.2,111.5h-0.4c1.4,19.2,45.9,19.2,47.3,0h-0.4C217.3,127.8,179.5,127.8,175.2,111.5z"/>
		</g>
	</g>
</g>
</svg>
