<?xml version="1.0" encoding="utf-8"?>
<!-- Generator: Adobe Illustrator 25.1.0, SVG Export Plug-In . SVG Version: 6.00 Build 0)  -->
<svg version="1.1" id="Layer_1" xmlns="http://www.w3.org/2000/svg" xmlns:xlink="http://www.w3.org/1999/xlink" x="0px" y="0px"
	 viewBox="0 0 329 391.9" style="enable-background:new 0 0 329 391.9;" xml:space="preserve">
<style type="text/css">
	.st0{fill:#FFFFFF;}
	.st1{fill:#F1F1F1;}
	.st2{fill:#DCE3E5;}
	.st3{fill:#FF9F1A;}
	.st4{fill:#808080;}
	.st5{fill:#00A878;}
</style>
<g>
	<path class="st0" d="M328,296.7c0-216.5,11.3-244.1-42.6-244.1c-26.4,0-154.8-0.9-189.3,0c-33.9,0.9-84.7-9-90.7,24.3
		c-5.9,32.9-4.3,86.5-4.3,145.5c0,92.7-6,153.7,10,160.3c35.1,14.5,182.1,8,224.7,6.5C279.9,387.6,328,391.2,328,296.7z"/>
	<path class="st1" d="M163.5,108.3c27.9,0,50.5-3.6,50.5-8s-22.6-8-50.5-8s-50.5,3.6-50.5,8S135.6,108.3,163.5,108.3z"/>
	<path class="st2" d="M198.3,91.8l-1.9,6.7c-1,3.3-4.4,5.2-7.7,4.3l-0.4-0.1c-2.9-0.8-4.7-3.5-4.4-6.6l3.1-10.7l9.4,2.7
		C197.8,88.6,198.7,90.2,198.3,91.8z"/>
	<path class="st2" d="M149.5,8.1l-2.7,9.3l-9.6-2.8c-1.6-0.5-2.5-2.1-2-3.7l1.9-6.5c1-3.3,4.4-5.2,7.7-4.3l0.4,0.1
		C148.6,1.3,150.5,4.8,149.5,8.1z"/>
	<path class="st3" d="M188.8,96.3l9.9-34.3l10.6-36.5c0.1-0.2,0.1-0.2,0.1-0.2c0.1-0.2,0.1-0.2,0.1-0.4c0.8-2.9-0.9-6-4-6.9
		L144.9,0.3c0.8,2.2,0.9,4.4,0.3,6.6l-20.5,70.8c-0.1,0.2-0.1,0.2-0.1,0.2c-0.1,0.2-0.1,0.2-0.1,0.4c-0.8,2.9,0.9,6,4,6.9l60.7,17.6
		C188.2,100.7,188.2,98.5,188.8,96.3z"/>
	<path class="st0" d="M145.2,56.6c2.6,0.3,5-1.5,5.3-4.2c0.3-2.6-1.5-5-4.2-5.3c-2.6-0.3-5,1.5-5.3,4.2
		C140.7,53.8,142.6,56.2,145.2,56.6z"/>
	<path class="st3" d="M144.8,54c-0.2,0-0.3-0.1-0.4-0.2l-1.2-1.2c-0.2-0.2-0.2-0.4,0-0.6c0.2-0.2,0.4-0.2,0.6,0l1,1.1l3-2.9
		c0.2-0.2,0.4-0.2,0.6,0c0.2,0.2,0.2,0.4,0,0.6l-3.1,3C145.2,53.9,145,54,144.8,54z"/>
	<path class="st0" d="M154.9,23.1c2.6,0.3,5-1.5,5.3-4.2c0.3-2.6-1.5-5-4.2-5.3c-2.6-0.3-5,1.5-5.3,4.2
		C150.4,20.3,152.3,22.7,154.9,23.1z"/>
	<path class="st3" d="M154.5,20.5c-0.2,0-0.3-0.1-0.4-0.2l-1.2-1.2c-0.2-0.2-0.2-0.4,0-0.6c0.2-0.2,0.4-0.2,0.6,0l1,1.1l3-2.9
		c0.2-0.2,0.4-0.2,0.6,0c0.2,0.2,0.2,0.4,0,0.6l-3.1,3C154.9,20.4,154.7,20.5,154.5,20.5z"/>
	<path class="st0" d="M150,40.1c2.6,0.3,5-1.5,5.3-4.2c0.3-2.6-1.5-5-4.2-5.3c-2.6-0.3-5,1.5-5.3,4.2
		C145.5,37.3,147.4,39.7,150,40.1z"/>
	<path class="st3" d="M149.5,37.5c-0.2,0-0.3-0.1-0.4-0.2L148,36c-0.2-0.2-0.2-0.4,0-0.6c0.2-0.2,0.4-0.2,0.6,0l1,1.1l3-2.9
		c0.2-0.2,0.4-0.2,0.6,0c0.2,0.2,0.2,0.4,0,0.6l-3.1,3C150,37.4,149.8,37.5,149.5,37.5C149.6,37.5,149.6,37.5,149.5,37.5z"/>
	<path class="st0" d="M140.2,73.9c2.6,0.3,5-1.5,5.3-4.2c0.3-2.6-1.5-5-4.2-5.3c-2.6-0.3-5,1.5-5.3,4.2
		C135.7,71.2,137.5,73.6,140.2,73.9z"/>
	<path class="st3" d="M139.7,71.3c-0.2,0-0.3-0.1-0.4-0.2l-1.2-1.2c-0.2-0.2-0.2-0.4,0-0.6c0.2-0.2,0.4-0.2,0.6,0l1,1.1l3-2.9
		c0.2-0.2,0.4-0.2,0.6,0c0.2,0.2,0.2,0.4,0,0.6l-3.1,3C140.1,71.3,139.9,71.3,139.7,71.3z"/>
	<path class="st0" d="M167,19.8l24.8,7.2c1.3,0.4,2.2,1.6,1.8,2.9c-0.4,1.3-1.5,2-2.9,1.6l-25-7.3c-1.3-0.4-2-1.5-1.6-2.9
		C164.5,20,165.6,19.4,167,19.8z"/>
	<path class="st0" d="M162,36.8l24.8,7.2c1.3,0.4,2.2,1.6,1.8,2.9c-0.4,1.3-1.5,2-2.9,1.6l-25.1-7.3c-1.3-0.4-2-1.5-1.6-2.9
		C159.5,37.1,160.7,36.4,162,36.8z"/>
	<path class="st0" d="M175.5,82.3l-24.8-7.2c-1.3-0.4-2.2-1.6-1.8-2.9c0.4-1.3,1.5-2,2.9-1.6l25,7.3c1.3,0.4,2,1.5,1.6,2.9
		C178,82.1,176.8,82.7,175.5,82.3z"/>
	<path class="st0" d="M180.8,64.2L155.9,57c-1.3-0.4-2.2-1.6-1.8-2.9c0.4-1.3,1.5-2,2.9-1.6l25,7.3c1.3,0.4,2,1.5,1.6,2.9
		C183.2,63.9,182.1,64.6,180.8,64.2z"/>
	<path class="st0" d="M203.5,28.6c-0.1,0-0.1,0-0.2-0.1c-0.3-0.2-0.4-0.5-0.2-0.8c0,0,0.9-1.6,0.1-3.2c-0.7-1.6-2.9-2.8-6.2-3.4
		c-0.3-0.1-0.5-0.3-0.4-0.7c0.1-0.3,0.4-0.5,0.7-0.4c3.7,0.7,6.1,2.1,7,4c1,2.1-0.1,4.1-0.2,4.2C203.9,28.5,203.7,28.6,203.5,28.6z"
		/>
	<path class="st4" d="M31.7,339.4c-0.7,0-1.3-0.2-1.7-0.5s-0.6-1-0.6-1.9v-4.4H28v-1.1h1.4l0.2-1.9h1.2v1.9h2.3v1.1h-2.3v4.4
		c0,0.5,0.1,0.8,0.3,1s0.6,0.3,1.1,0.3h0.8v1.1H31.7z"/>
	<path class="st4" d="M34.8,339.4v-11.5h1.3v4.9c0.3-0.5,0.6-0.9,1.1-1.1s1-0.4,1.6-0.4c0.9,0,1.7,0.3,2.2,0.9
		c0.6,0.6,0.8,1.4,0.8,2.6v4.6h-1.3v-4.5c0-1.6-0.7-2.5-2-2.5c-0.7,0-1.3,0.2-1.7,0.7c-0.5,0.5-0.7,1.2-0.7,2.1v4.1L34.8,339.4
		L34.8,339.4z"/>
	<path class="st4" d="M46.6,339.6c-0.7,0-1.2-0.1-1.6-0.3c-0.4-0.2-0.8-0.5-1-0.9c-0.2-0.4-0.3-0.8-0.3-1.2c0-0.8,0.3-1.4,0.9-1.9
		s1.5-0.7,2.5-0.7h2.1v-0.1c0-0.7-0.2-1.2-0.5-1.6c-0.4-0.4-0.8-0.5-1.5-0.5c-0.5,0-1,0.1-1.3,0.4c-0.4,0.3-0.6,0.6-0.7,1.1h-1.4
		c0.1-0.6,0.2-1.1,0.6-1.5c0.3-0.4,0.8-0.7,1.3-0.9c0.5-0.2,1-0.3,1.6-0.3c1.1,0,1.9,0.3,2.5,0.9s0.8,1.4,0.8,2.4v4.9h-1.2l-0.1-1.4
		c-0.2,0.4-0.5,0.8-1,1.1C47.9,339.4,47.3,339.6,46.6,339.6z M46.8,338.4c0.5,0,1-0.1,1.3-0.4c0.4-0.3,0.7-0.6,0.8-1
		s0.3-0.9,0.3-1.3v0h-2c-0.8,0-1.4,0.1-1.7,0.4c-0.3,0.3-0.5,0.6-0.5,1c0,0.4,0.2,0.8,0.5,1C45.8,338.3,46.2,338.4,46.8,338.4z"/>
	<path class="st4" d="M55.5,339.4c-0.7,0-1.3-0.2-1.7-0.5c-0.4-0.4-0.6-1-0.6-1.9v-4.4h-1.4v-1.1h1.4l0.2-1.9h1.2v1.9h2.3v1.1h-2.3
		v4.4c0,0.5,0.1,0.8,0.3,1c0.2,0.2,0.6,0.3,1.1,0.3h0.8v1.1H55.5z"/>
	<path class="st4" d="M63.6,342.9l2-4.3h-0.5l-3.2-7.2h1.5l2.6,6.2l2.8-6.2h1.4L65,342.9L63.6,342.9L63.6,342.9z"/>
	<path class="st4" d="M74.5,339.6c-0.8,0-1.4-0.2-2-0.5c-0.6-0.3-1.1-0.8-1.4-1.5s-0.5-1.4-0.5-2.2s0.2-1.6,0.5-2.2s0.8-1.1,1.4-1.4
		c0.6-0.3,1.3-0.5,2-0.5c0.8,0,1.4,0.2,2,0.5c0.6,0.3,1.1,0.8,1.4,1.4c0.3,0.6,0.5,1.4,0.5,2.2s-0.2,1.6-0.5,2.2s-0.8,1.1-1.4,1.5
		C76,339.4,75.3,339.6,74.5,339.6z M74.5,338.4c0.5,0,0.9-0.1,1.3-0.3c0.4-0.2,0.7-0.6,1-1s0.4-1,0.4-1.7s-0.1-1.2-0.4-1.7
		s-0.6-0.8-1-1c-0.4-0.2-0.8-0.3-1.3-0.3c-0.5,0-0.9,0.1-1.3,0.3c-0.4,0.2-0.7,0.6-1,1c-0.2,0.5-0.4,1-0.4,1.7s0.1,1.2,0.4,1.7
		s0.6,0.8,1,1C73.7,338.3,74.1,338.4,74.5,338.4z"/>
	<path class="st4" d="M83.3,339.6c-0.9,0-1.7-0.3-2.2-0.9c-0.5-0.6-0.8-1.5-0.8-2.6v-4.6h1.3v4.5c0,1.6,0.7,2.5,2,2.5
		c0.7,0,1.3-0.2,1.7-0.7c0.4-0.5,0.7-1.2,0.7-2.1v-4.1h1.3v7.9h-1.2L86,338c-0.2,0.5-0.6,0.9-1.1,1.2
		C84.4,339.4,83.9,339.6,83.3,339.6z"/>
	<path class="st4" d="M97.4,339.6c-0.8,0-1.4-0.2-2-0.5s-1.1-0.8-1.4-1.5c-0.4-0.6-0.5-1.4-0.5-2.2c0-0.8,0.2-1.6,0.5-2.2
		c0.3-0.6,0.8-1.1,1.4-1.5s1.3-0.5,2-0.5c0.9,0,1.7,0.2,2.4,0.7s1.1,1.1,1.2,2h-1.4c-0.1-0.5-0.4-0.9-0.8-1.1
		c-0.4-0.3-0.9-0.4-1.5-0.4c-0.4,0-0.9,0.1-1.3,0.3c-0.4,0.2-0.7,0.6-1,1c-0.2,0.4-0.4,1-0.4,1.7c0,0.7,0.1,1.2,0.4,1.7s0.6,0.8,1,1
		c0.4,0.2,0.8,0.3,1.3,0.3c0.6,0,1-0.1,1.5-0.4c0.4-0.3,0.7-0.7,0.8-1.2h1.4c-0.2,0.8-0.6,1.5-1.2,2S98.4,339.6,97.4,339.6z"/>
	<path class="st4" d="M105.5,339.6c-0.7,0-1.2-0.1-1.7-0.3c-0.4-0.2-0.8-0.5-1-0.9c-0.2-0.4-0.3-0.8-0.3-1.2c0-0.8,0.3-1.4,0.9-1.9
		c0.6-0.4,1.5-0.7,2.5-0.7h2.1v-0.1c0-0.7-0.2-1.2-0.5-1.6c-0.4-0.4-0.9-0.5-1.5-0.5c-0.5,0-1,0.1-1.3,0.4c-0.4,0.3-0.6,0.6-0.7,1.1
		h-1.4c0-0.6,0.2-1.1,0.6-1.5c0.3-0.4,0.8-0.7,1.3-0.9c0.5-0.2,1-0.3,1.6-0.3c1.1,0,1.9,0.3,2.5,0.9s0.8,1.4,0.8,2.4v4.9h-1.2
		l-0.1-1.4c-0.2,0.4-0.5,0.8-1,1.1C106.9,339.4,106.3,339.6,105.5,339.6z M105.8,338.4c0.5,0,1-0.1,1.3-0.4c0.4-0.3,0.6-0.6,0.8-1
		s0.3-0.9,0.3-1.3v0h-2c-0.8,0-1.3,0.1-1.7,0.4c-0.3,0.3-0.5,0.6-0.5,1c0,0.4,0.2,0.8,0.5,1C104.8,338.3,105.2,338.4,105.8,338.4z"
		/>
	<path class="st4" d="M111.6,339.4v-7.9h1.2l0.1,1.4c0.3-0.5,0.6-0.9,1.1-1.2c0.5-0.3,1-0.4,1.6-0.4c0.9,0,1.7,0.3,2.2,0.9
		c0.6,0.6,0.8,1.4,0.8,2.6v4.6h-1.3v-4.5c0-1.6-0.7-2.5-2.1-2.5c-0.7,0-1.2,0.2-1.7,0.7c-0.5,0.5-0.7,1.2-0.7,2.1v4.1L111.6,339.4
		L111.6,339.4z"/>
	<path class="st4" d="M128.6,339.6c-0.8,0-1.5-0.2-2.1-0.5c-0.6-0.4-1.1-0.9-1.4-1.5c-0.3-0.6-0.5-1.3-0.5-2.1s0.2-1.5,0.5-2.1
		c0.3-0.6,0.8-1.1,1.4-1.5c0.6-0.4,1.3-0.5,2.1-0.5c0.6,0,1.2,0.1,1.7,0.4s0.9,0.6,1.2,1.1v-4.9h1.3v11.5h-1.2l-0.1-1.3
		c-0.3,0.4-0.6,0.7-1.1,1C129.9,339.4,129.3,339.6,128.6,339.6z M128.7,338.4c0.5,0,1-0.1,1.4-0.4c0.4-0.2,0.7-0.6,1-1
		c0.2-0.5,0.3-1,0.3-1.6s-0.1-1.1-0.3-1.6c-0.2-0.4-0.6-0.8-1-1c-0.4-0.2-0.9-0.4-1.4-0.4c-0.5,0-1,0.1-1.4,0.4s-0.7,0.6-1,1
		c-0.2,0.5-0.3,1-0.3,1.6s0.1,1.1,0.3,1.6c0.2,0.5,0.6,0.8,1,1.1C127.7,338.3,128.2,338.4,128.7,338.4z"/>
	<path class="st4" d="M138.6,339.6c-0.8,0-1.4-0.2-2-0.5c-0.6-0.3-1.1-0.8-1.4-1.5c-0.3-0.6-0.5-1.4-0.5-2.2s0.2-1.6,0.5-2.2
		c0.3-0.6,0.8-1.1,1.4-1.4c0.6-0.3,1.3-0.5,2-0.5c0.8,0,1.4,0.2,2,0.5c0.6,0.3,1.1,0.8,1.4,1.4c0.3,0.6,0.5,1.4,0.5,2.2
		s-0.2,1.6-0.5,2.2c-0.4,0.6-0.8,1.1-1.4,1.5S139.4,339.6,138.6,339.6z M138.6,338.4c0.5,0,0.9-0.1,1.3-0.3c0.4-0.2,0.7-0.6,1-1
		s0.4-1,0.4-1.7s-0.1-1.2-0.4-1.7c-0.2-0.4-0.6-0.8-0.9-1c-0.4-0.2-0.8-0.3-1.3-0.3c-0.5,0-0.9,0.1-1.3,0.3c-0.4,0.2-0.7,0.6-1,1
		c-0.2,0.5-0.4,1-0.4,1.7s0.1,1.2,0.4,1.7s0.6,0.8,0.9,1C137.8,338.3,138.2,338.4,138.6,338.4z"/>
	<path class="st4" d="M151.4,339.6c-0.7,0-1.2-0.1-1.6-0.3c-0.4-0.2-0.8-0.5-1-0.9c-0.2-0.4-0.3-0.8-0.3-1.2c0-0.8,0.3-1.4,0.9-1.9
		c0.6-0.4,1.5-0.7,2.5-0.7h2.1v-0.1c0-0.7-0.2-1.2-0.5-1.6c-0.4-0.4-0.9-0.5-1.5-0.5c-0.5,0-1,0.1-1.3,0.4c-0.4,0.3-0.6,0.6-0.7,1.1
		h-1.4c0-0.6,0.2-1.1,0.6-1.5c0.3-0.4,0.8-0.7,1.3-0.9c0.5-0.2,1-0.3,1.6-0.3c1.1,0,1.9,0.3,2.5,0.9c0.6,0.6,0.8,1.4,0.8,2.4v4.9
		h-1.2l-0.1-1.4c-0.2,0.4-0.6,0.8-1,1.1C152.7,339.4,152.1,339.6,151.4,339.6z M151.6,338.4c0.5,0,0.9-0.1,1.3-0.4
		c0.4-0.3,0.6-0.6,0.8-1s0.3-0.9,0.3-1.3v0h-2c-0.8,0-1.4,0.1-1.7,0.4c-0.3,0.3-0.5,0.6-0.5,1c0,0.4,0.1,0.8,0.5,1
		C150.6,338.3,151,338.4,151.6,338.4z"/>
	<path class="st4" d="M157.4,339.4v-7.9h1.2l0.1,1.4c0.3-0.5,0.6-0.9,1.1-1.2c0.5-0.3,1-0.4,1.6-0.4c0.9,0,1.7,0.3,2.2,0.9
		c0.6,0.6,0.8,1.4,0.8,2.6v4.6h-1.3v-4.5c0-1.6-0.7-2.5-2-2.5c-0.7,0-1.2,0.2-1.7,0.7c-0.4,0.5-0.7,1.2-0.7,2.1v4.1L157.4,339.4
		L157.4,339.4z"/>
	<path class="st4" d="M167.1,342.9l2-4.3h-0.5l-3.2-7.2h1.5l2.6,6.2l2.8-6.2h1.4l-5.2,11.5H167.1z"/>
	<path class="st4" d="M176.8,339.4l-2.3-7.9h1.3l1.7,6.2l1.9-6.2h1.5l1.9,6.2l1.7-6.2h1.4l-2.3,7.9H182l-1.9-6.5l-2,6.5H176.8z"/>
	<path class="st4" d="M187.2,339.4v-11.5h1.3v4.9c0.3-0.5,0.7-0.9,1.1-1.1c0.5-0.3,1-0.4,1.6-0.4c0.9,0,1.6,0.3,2.2,0.9
		c0.6,0.6,0.8,1.4,0.8,2.6v4.6H193v-4.5c0-1.6-0.7-2.5-2-2.5c-0.7,0-1.3,0.2-1.7,0.7c-0.5,0.5-0.7,1.2-0.7,2.1v4.1L187.2,339.4
		L187.2,339.4z"/>
	<path class="st4" d="M200,339.6c-0.8,0-1.4-0.2-2-0.5s-1.1-0.8-1.4-1.4c-0.3-0.6-0.5-1.4-0.5-2.2c0-0.8,0.2-1.6,0.5-2.2
		c0.3-0.6,0.8-1.1,1.4-1.5s1.3-0.5,2.1-0.5c0.8,0,1.4,0.2,2,0.5s1,0.8,1.3,1.4c0.3,0.6,0.5,1.2,0.5,1.8c0,0.1,0,0.2,0,0.4
		c0,0.1,0,0.2,0,0.4h-6.3c0,0.6,0.2,1.1,0.4,1.5s0.6,0.7,0.9,0.9c0.4,0.2,0.8,0.3,1.2,0.3c0.6,0,1-0.1,1.4-0.4s0.6-0.6,0.8-1h1.3
		c-0.2,0.7-0.6,1.4-1.2,1.8C201.7,339.3,200.9,339.6,200,339.6z M200,332.4c-0.6,0-1.2,0.2-1.7,0.6c-0.5,0.4-0.8,1-0.9,1.7h5
		c0-0.7-0.3-1.3-0.7-1.7C201.2,332.6,200.6,332.4,200,332.4z"/>
	<path class="st4" d="M205.5,339.4v-7.9h1.2l0.1,1.5c0.2-0.5,0.6-0.9,1.1-1.2c0.5-0.3,1.1-0.5,1.9-0.5v1.4h-0.4
		c-0.5,0-0.9,0.1-1.3,0.2c-0.4,0.2-0.7,0.5-0.9,0.8c-0.2,0.4-0.3,0.9-0.3,1.6v4H205.5z"/>
	<path class="st4" d="M214.6,339.6c-0.8,0-1.4-0.2-2-0.5s-1.1-0.8-1.4-1.4c-0.3-0.6-0.5-1.4-0.5-2.2c0-0.8,0.2-1.6,0.5-2.2
		c0.3-0.6,0.8-1.1,1.4-1.5s1.3-0.5,2.1-0.5c0.8,0,1.4,0.2,2,0.5c0.6,0.4,1,0.8,1.3,1.4c0.3,0.6,0.4,1.2,0.4,1.8c0,0.1,0,0.2,0,0.4
		s0,0.2,0,0.4H212c0,0.6,0.2,1.1,0.4,1.5s0.6,0.7,0.9,0.9s0.8,0.3,1.2,0.3c0.5,0,1-0.1,1.4-0.4c0.4-0.3,0.6-0.6,0.8-1h1.3
		c-0.2,0.7-0.6,1.4-1.2,1.8C216.3,339.3,215.5,339.6,214.6,339.6z M214.6,332.4c-0.6,0-1.2,0.2-1.7,0.6c-0.5,0.4-0.8,1-0.9,1.7h5
		c0-0.7-0.3-1.3-0.7-1.7C215.8,332.6,215.2,332.4,214.6,332.4z"/>
	<path class="st4" d="M220.6,339.4c-0.3,0-0.5-0.1-0.7-0.3c-0.2-0.2-0.3-0.4-0.3-0.7c0-0.3,0.1-0.5,0.3-0.6c0.2-0.2,0.4-0.3,0.7-0.3
		c0.3,0,0.5,0.1,0.6,0.3c0.2,0.2,0.3,0.4,0.3,0.6c0,0.3-0.1,0.5-0.3,0.7C221,339.4,220.8,339.4,220.6,339.4z"/>
	<path class="st4" d="M28.7,279.4v-11.2h3.7c0.9,0,1.6,0.1,2.2,0.4c0.6,0.3,1,0.7,1.3,1.2c0.3,0.5,0.4,1.1,0.4,1.7
		c0,0.6-0.1,1.2-0.4,1.6c-0.3,0.5-0.7,0.9-1.2,1.2c-0.6,0.3-1.3,0.4-2.2,0.4H30v4.7H28.7z M30,273.6h2.3c0.9,0,1.5-0.2,1.9-0.6
		c0.4-0.4,0.6-0.9,0.6-1.6c0-0.7-0.2-1.2-0.6-1.6c-0.4-0.4-1-0.6-1.9-0.6H30V273.6z"/>
	<path class="st4" d="M37.8,279.4v-11.5h1.3v11.5H37.8z"/>
	<path class="st4" d="M44.3,279.6c-0.9,0-1.7-0.3-2.2-0.9c-0.6-0.6-0.8-1.5-0.8-2.6v-4.6h1.3v4.5c0,1.6,0.7,2.5,2,2.5
		c0.7,0,1.3-0.2,1.7-0.7c0.4-0.5,0.7-1.2,0.7-2.1v-4.1h1.3v7.9h-1.2L47,278c-0.2,0.5-0.6,0.9-1.1,1.2
		C45.4,279.5,44.9,279.6,44.3,279.6z"/>
	<path class="st4" d="M53.6,279.6c-0.9,0-1.7-0.2-2.4-0.7c-0.6-0.5-1-1.1-1.1-2h1.4c0.1,0.4,0.3,0.8,0.7,1.1
		c0.4,0.3,0.8,0.5,1.4,0.5c0.6,0,1-0.1,1.2-0.4c0.3-0.2,0.4-0.5,0.4-0.9c0-0.5-0.2-0.8-0.5-1s-0.8-0.3-1.5-0.4
		c-0.4-0.1-0.9-0.2-1.3-0.4c-0.4-0.2-0.8-0.4-1.1-0.7c-0.3-0.3-0.4-0.7-0.4-1.2c0-0.7,0.3-1.3,0.8-1.7c0.5-0.4,1.2-0.7,2.1-0.7
		c0.8,0,1.5,0.2,2.1,0.6c0.5,0.4,0.8,1,0.9,1.8h-1.3c-0.1-0.4-0.2-0.7-0.5-0.9c-0.3-0.2-0.7-0.3-1.2-0.3c-0.5,0-0.8,0.1-1.1,0.3
		c-0.3,0.2-0.4,0.5-0.4,0.8c0,0.3,0.2,0.6,0.5,0.8c0.3,0.2,0.8,0.3,1.4,0.5c0.5,0.1,1,0.2,1.4,0.4s0.8,0.4,1.1,0.7
		c0.3,0.3,0.4,0.7,0.4,1.3c0,0.7-0.3,1.3-0.8,1.8C55.3,279.4,54.5,279.6,53.6,279.6z"/>
	<path class="st4" d="M65.4,279.6c-0.7,0-1.2-0.1-1.6-0.3c-0.4-0.2-0.8-0.5-1-0.9c-0.2-0.4-0.3-0.8-0.3-1.2c0-0.8,0.3-1.4,0.9-1.9
		s1.5-0.7,2.5-0.7h2.1v-0.1c0-0.7-0.2-1.2-0.5-1.6c-0.4-0.4-0.8-0.5-1.5-0.5c-0.5,0-1,0.1-1.3,0.4c-0.4,0.3-0.6,0.6-0.7,1.1h-1.4
		c0-0.6,0.2-1.1,0.6-1.5c0.3-0.4,0.8-0.7,1.3-0.9c0.5-0.2,1-0.3,1.6-0.3c1.1,0,1.9,0.3,2.5,0.9c0.6,0.6,0.8,1.4,0.8,2.4v4.9h-1.2
		l-0.1-1.4c-0.2,0.4-0.6,0.8-1,1.1C66.7,279.5,66.2,279.6,65.4,279.6z M65.6,278.5c0.5,0,0.9-0.1,1.3-0.4c0.4-0.3,0.6-0.6,0.8-1
		c0.2-0.4,0.3-0.9,0.3-1.3v0h-2c-0.8,0-1.3,0.1-1.7,0.4c-0.3,0.3-0.5,0.6-0.5,1c0,0.4,0.2,0.8,0.5,1
		C64.7,278.4,65.1,278.5,65.6,278.5z"/>
	<path class="st4" d="M32.2,236.3c-0.8,0-1.5-0.2-1.9-0.6c-0.5-0.4-0.7-1.1-0.7-2.1v-4.9h-1.5v-1.3h1.5l0.2-2.1h1.3v2.1h2.6v1.3
		h-2.6v4.9c0,0.6,0.1,1,0.3,1.1c0.2,0.2,0.6,0.3,1.2,0.3h0.9v1.3L32.2,236.3L32.2,236.3z"/>
	<path class="st4" d="M39.5,236.5c-0.8,0-1.6-0.2-2.3-0.6c-0.7-0.4-1.2-0.9-1.6-1.6c-0.4-0.7-0.6-1.5-0.6-2.5c0-0.9,0.2-1.8,0.6-2.5
		c0.4-0.7,0.9-1.2,1.6-1.6c0.7-0.4,1.4-0.6,2.3-0.6s1.6,0.2,2.3,0.6c0.7,0.4,1.2,0.9,1.6,1.6c0.4,0.7,0.6,1.5,0.6,2.5
		c0,1-0.2,1.8-0.6,2.5c-0.4,0.7-0.9,1.2-1.6,1.6C41.1,236.3,40.3,236.5,39.5,236.5z M39.5,235.2c0.5,0,1-0.1,1.4-0.4
		s0.8-0.6,1.1-1.1c0.3-0.5,0.4-1.1,0.4-1.9c0-0.7-0.1-1.4-0.4-1.9c-0.3-0.5-0.6-0.9-1.1-1.1c-0.4-0.2-0.9-0.4-1.4-0.4
		c-0.5,0-1,0.1-1.4,0.4c-0.4,0.2-0.8,0.6-1.1,1.1s-0.4,1.1-0.4,1.9c0,0.7,0.1,1.4,0.4,1.9c0.3,0.5,0.6,0.9,1.1,1.1
		C38.5,235.1,39,235.2,39.5,235.2z"/>
	<path class="st4" d="M54.4,233.5c-0.5,0-1-0.1-1.4-0.2l-0.9,0.9c0.1,0.1,0.3,0.2,0.5,0.2c0.2,0.1,0.5,0.1,0.9,0.2
		c0.4,0.1,0.9,0.1,1.6,0.2c1.2,0.1,2.1,0.4,2.6,0.8c0.5,0.5,0.8,1.1,0.8,1.8c0,0.5-0.1,1-0.4,1.5s-0.7,0.9-1.3,1.1
		c-0.6,0.3-1.3,0.5-2.2,0.5c-0.8,0-1.5-0.1-2.1-0.3s-1.1-0.5-1.5-1c-0.3-0.4-0.5-1-0.5-1.6c0-0.3,0.1-0.7,0.3-1.1
		c0.2-0.4,0.5-0.8,1-1.1c-0.3-0.1-0.5-0.2-0.7-0.3c-0.2-0.1-0.4-0.3-0.5-0.4v-0.4l1.5-1.5c-0.7-0.6-1.1-1.4-1.1-2.4
		c0-0.6,0.1-1.1,0.4-1.6c0.3-0.5,0.7-0.9,1.2-1.1s1.2-0.4,1.9-0.4c0.5,0,1,0.1,1.4,0.2h3.3v1.1l-1.7,0.1c0.3,0.5,0.5,1.1,0.5,1.8
		c0,0.6-0.1,1.1-0.4,1.6s-0.7,0.9-1.2,1.1C55.8,233.3,55.1,233.5,54.4,233.5z M51.7,237.4c0,0.6,0.2,1,0.8,1.3
		c0.5,0.3,1.1,0.4,1.9,0.4c0.7,0,1.3-0.2,1.8-0.5c0.4-0.3,0.7-0.8,0.7-1.3c0-0.4-0.2-0.7-0.5-1s-0.9-0.5-1.7-0.5
		c-0.7-0.1-1.2-0.1-1.7-0.2c-0.5,0.3-0.8,0.5-1,0.8C51.8,236.9,51.7,237.2,51.7,237.4z M54.4,232.2c0.6,0,1.1-0.2,1.5-0.5
		c0.4-0.3,0.6-0.8,0.6-1.4c0-0.6-0.2-1.1-0.6-1.4c-0.4-0.3-0.9-0.5-1.5-0.5c-0.6,0-1.2,0.2-1.5,0.5c-0.4,0.3-0.6,0.8-0.6,1.4
		c0,0.6,0.2,1.1,0.6,1.4C53.2,232.1,53.7,232.2,54.4,232.2z"/>
	<path class="st4" d="M64.4,236.5c-0.9,0-1.6-0.2-2.3-0.6c-0.7-0.4-1.2-0.9-1.6-1.6c-0.4-0.7-0.6-1.5-0.6-2.5c0-0.9,0.2-1.8,0.6-2.5
		c0.4-0.7,0.9-1.2,1.6-1.6c0.7-0.4,1.4-0.6,2.3-0.6c0.9,0,1.6,0.2,2.2,0.6c0.6,0.4,1.1,0.9,1.5,1.5c0.3,0.6,0.5,1.3,0.5,2
		c0,0.1,0,0.3,0,0.4c0,0.1,0,0.3,0,0.5h-7.1c0,0.7,0.2,1.2,0.5,1.7c0.3,0.5,0.6,0.8,1.1,1c0.4,0.2,0.9,0.3,1.4,0.3
		c0.6,0,1.2-0.1,1.6-0.4c0.4-0.3,0.7-0.7,0.9-1.2h1.5c-0.2,0.8-0.7,1.5-1.4,2.1C66.4,236.2,65.5,236.5,64.4,236.5z M64.4,228.4
		c-0.7,0-1.4,0.2-1.9,0.7c-0.6,0.4-0.9,1.1-1,1.9h5.6c0-0.8-0.3-1.4-0.8-1.9C65.8,228.6,65.2,228.4,64.4,228.4z"/>
	<path class="st4" d="M73.9,236.3c-0.8,0-1.5-0.2-1.9-0.6c-0.5-0.4-0.7-1.1-0.7-2.1v-4.9h-1.6v-1.3h1.6l0.2-2.1h1.3v2.1h2.6v1.3
		h-2.6v4.9c0,0.6,0.1,1,0.3,1.1c0.2,0.2,0.6,0.3,1.2,0.3h0.9v1.3L73.9,236.3L73.9,236.3z"/>
	<path class="st4" d="M83.1,240.2l2.2-4.8h-0.5l-3.6-8.1h1.6l3,7l3.1-7h1.6l-5.8,12.9L83.1,240.2L83.1,240.2z"/>
	<path class="st4" d="M95.3,236.5c-0.8,0-1.6-0.2-2.3-0.6c-0.7-0.4-1.2-0.9-1.6-1.6c-0.4-0.7-0.6-1.5-0.6-2.5c0-0.9,0.2-1.8,0.6-2.5
		c0.4-0.7,0.9-1.2,1.6-1.6c0.7-0.4,1.4-0.6,2.3-0.6c0.8,0,1.6,0.2,2.3,0.6c0.7,0.4,1.2,0.9,1.6,1.6c0.4,0.7,0.6,1.5,0.6,2.5
		c0,1-0.2,1.8-0.6,2.5c-0.4,0.7-0.9,1.2-1.6,1.6S96.2,236.5,95.3,236.5z M95.3,235.2c0.5,0,1-0.1,1.4-0.4c0.4-0.2,0.8-0.6,1.1-1.1
		s0.4-1.1,0.4-1.9c0-0.7-0.1-1.4-0.4-1.9c-0.3-0.5-0.6-0.9-1.1-1.1s-0.9-0.4-1.4-0.4c-0.5,0-1,0.1-1.4,0.4c-0.4,0.2-0.8,0.6-1.1,1.1
		c-0.3,0.5-0.4,1.1-0.4,1.9c0,0.7,0.1,1.4,0.4,1.9c0.3,0.5,0.6,0.9,1.1,1.1C94.3,235.1,94.8,235.2,95.3,235.2z"/>
	<path class="st4" d="M105.2,236.5c-1.1,0-1.9-0.3-2.5-1c-0.6-0.6-0.9-1.6-0.9-3v-5.2h1.5v5.1c0,1.9,0.8,2.8,2.3,2.8
		c0.8,0,1.4-0.3,1.9-0.8c0.5-0.6,0.8-1.4,0.8-2.4v-4.6h1.5v8.9h-1.4l-0.1-1.6c-0.3,0.6-0.7,1-1.2,1.3
		C106.5,236.3,105.9,236.5,105.2,236.5z"/>
	<path class="st4" d="M120.5,233.5c-0.5,0-1-0.1-1.4-0.2l-0.9,0.9c0.1,0.1,0.3,0.2,0.5,0.2c0.2,0.1,0.5,0.1,0.9,0.2
		c0.4,0.1,0.9,0.1,1.6,0.2c1.2,0.1,2.1,0.4,2.6,0.8c0.5,0.5,0.8,1.1,0.8,1.8c0,0.5-0.1,1-0.4,1.5s-0.7,0.9-1.3,1.1
		c-0.6,0.3-1.3,0.5-2.2,0.5c-0.8,0-1.5-0.1-2.1-0.3c-0.6-0.2-1.1-0.5-1.5-1c-0.3-0.4-0.5-1-0.5-1.6c0-0.3,0.1-0.7,0.3-1.1
		c0.2-0.4,0.5-0.8,1-1.1c-0.3-0.1-0.5-0.2-0.7-0.3c-0.2-0.1-0.4-0.3-0.5-0.4v-0.4l1.5-1.5c-0.7-0.6-1.1-1.4-1.1-2.4
		c0-0.6,0.1-1.1,0.4-1.6c0.3-0.5,0.7-0.9,1.2-1.1s1.2-0.4,1.9-0.4c0.5,0,1,0.1,1.4,0.2h3.3v1.1l-1.7,0.1c0.4,0.5,0.5,1.1,0.5,1.8
		c0,0.6-0.1,1.1-0.4,1.6s-0.7,0.9-1.2,1.1C121.9,233.3,121.3,233.5,120.5,233.5z M117.9,237.4c0,0.6,0.2,1,0.8,1.3
		c0.5,0.3,1.1,0.4,1.9,0.4c0.7,0,1.3-0.2,1.8-0.5c0.4-0.3,0.7-0.8,0.7-1.3c0-0.4-0.2-0.7-0.5-1s-0.9-0.5-1.7-0.5
		c-0.7-0.1-1.2-0.1-1.7-0.2c-0.5,0.3-0.8,0.5-1,0.8C118,236.9,117.9,237.2,117.9,237.4z M120.5,232.2c0.6,0,1.1-0.2,1.5-0.5
		c0.4-0.3,0.6-0.8,0.6-1.4c0-0.6-0.2-1.1-0.6-1.4c-0.4-0.3-0.9-0.5-1.5-0.5c-0.6,0-1.2,0.2-1.5,0.5c-0.4,0.3-0.6,0.8-0.6,1.4
		c0,0.6,0.2,1.1,0.6,1.4C119.3,232.1,119.9,232.2,120.5,232.2z"/>
	<path class="st4" d="M130.6,236.5c-0.8,0-1.6-0.2-2.3-0.6c-0.7-0.4-1.2-0.9-1.6-1.6c-0.4-0.7-0.6-1.5-0.6-2.5
		c0-0.9,0.2-1.8,0.6-2.5c0.4-0.7,0.9-1.2,1.6-1.6c0.7-0.4,1.4-0.6,2.3-0.6s1.6,0.2,2.3,0.6c0.7,0.4,1.2,0.9,1.6,1.6
		c0.4,0.7,0.6,1.5,0.6,2.5c0,1-0.2,1.8-0.6,2.5c-0.4,0.7-0.9,1.2-1.6,1.6C132.2,236.3,131.5,236.5,130.6,236.5z M130.6,235.2
		c0.5,0,1-0.1,1.4-0.4c0.4-0.2,0.8-0.6,1.1-1.1s0.4-1.1,0.4-1.9c0-0.7-0.1-1.4-0.4-1.9c-0.3-0.5-0.6-0.9-1.1-1.1s-0.9-0.4-1.4-0.4
		c-0.5,0-1,0.1-1.4,0.4s-0.8,0.6-1.1,1.1c-0.3,0.5-0.4,1.1-0.4,1.9c0,0.7,0.1,1.4,0.4,1.9c0.3,0.5,0.6,0.9,1.1,1.1
		C129.6,235.1,130.1,235.2,130.6,235.2z"/>
	<path class="st4" d="M138.1,225.4c-0.3,0-0.6-0.1-0.8-0.3c-0.2-0.2-0.3-0.4-0.3-0.8c0-0.3,0.1-0.5,0.3-0.7s0.4-0.3,0.8-0.3
		c0.3,0,0.5,0.1,0.7,0.3c0.2,0.2,0.3,0.4,0.3,0.7c0,0.3-0.1,0.6-0.3,0.8C138.7,225.3,138.4,225.4,138.1,225.4z M137.4,236.3v-8.9
		h1.5v8.9H137.4z"/>
	<path class="st4" d="M141.5,236.3v-8.9h1.4l0.1,1.6c0.3-0.6,0.7-1,1.2-1.3c0.5-0.3,1.1-0.5,1.8-0.5c1.1,0,1.9,0.3,2.5,1
		c0.6,0.6,0.9,1.6,0.9,3v5.2H148v-5.1c0-1.9-0.8-2.8-2.3-2.8c-0.8,0-1.4,0.3-1.9,0.8c-0.5,0.6-0.8,1.4-0.8,2.4v4.6H141.5z"/>
	<path class="st4" d="M155.3,233.5c-0.5,0-1-0.1-1.4-0.2l-0.9,0.9c0.1,0.1,0.3,0.2,0.5,0.2c0.2,0.1,0.5,0.1,0.8,0.2
		c0.4,0.1,0.9,0.1,1.6,0.2c1.2,0.1,2.1,0.4,2.6,0.8c0.5,0.5,0.8,1.1,0.8,1.8c0,0.5-0.1,1-0.4,1.5s-0.7,0.9-1.3,1.1
		c-0.6,0.3-1.3,0.5-2.2,0.5c-0.8,0-1.5-0.1-2.1-0.3c-0.6-0.2-1.1-0.5-1.5-1c-0.4-0.4-0.5-1-0.5-1.6c0-0.3,0.1-0.7,0.3-1.1
		c0.2-0.4,0.5-0.8,1-1.1c-0.3-0.1-0.5-0.2-0.7-0.3c-0.2-0.1-0.4-0.3-0.5-0.4v-0.4l1.5-1.5c-0.7-0.6-1.1-1.4-1.1-2.4
		c0-0.6,0.1-1.1,0.4-1.6c0.3-0.5,0.7-0.9,1.2-1.1s1.2-0.4,1.9-0.4c0.5,0,1,0.1,1.4,0.2h3.3v1.1l-1.7,0.1c0.4,0.5,0.5,1.1,0.5,1.8
		c0,0.6-0.1,1.1-0.4,1.6s-0.7,0.9-1.2,1.1C156.7,233.3,156.1,233.5,155.3,233.5z M152.7,237.4c0,0.6,0.2,1,0.8,1.3
		c0.5,0.3,1.1,0.4,1.9,0.4c0.7,0,1.3-0.2,1.8-0.5c0.4-0.3,0.7-0.8,0.7-1.3c0-0.4-0.2-0.7-0.5-1s-0.9-0.5-1.7-0.5
		c-0.7-0.1-1.2-0.1-1.7-0.2c-0.5,0.3-0.8,0.5-1,0.8C152.8,236.9,152.7,237.2,152.7,237.4z M155.3,232.2c0.6,0,1.1-0.2,1.5-0.5
		c0.4-0.3,0.6-0.8,0.6-1.4c0-0.6-0.2-1.1-0.6-1.4c-0.4-0.3-0.9-0.5-1.5-0.5c-0.6,0-1.2,0.2-1.5,0.5c-0.4,0.3-0.6,0.8-0.6,1.4
		c0,0.6,0.2,1.1,0.6,1.4C154.2,232.1,154.7,232.2,155.3,232.2z"/>
	<path class="st4" d="M162.3,236.4c-0.3,0-0.6-0.1-0.8-0.3c-0.2-0.2-0.3-0.4-0.3-0.7c0-0.3,0.1-0.5,0.3-0.7s0.4-0.3,0.8-0.3
		c0.3,0,0.5,0.1,0.7,0.3s0.3,0.4,0.3,0.7c0,0.3-0.1,0.5-0.3,0.7C162.8,236.3,162.6,236.4,162.3,236.4z"/>
	<path class="st4" d="M28.8,148.8v-12.6h1.5l6.7,10.1v-10.1h1.5v12.6H37l-6.7-10.1v10.1H28.8z"/>
	<path class="st4" d="M45.2,149c-0.8,0-1.6-0.2-2.3-0.6c-0.7-0.4-1.2-0.9-1.6-1.6s-0.6-1.5-0.6-2.5c0-1,0.2-1.8,0.6-2.5
		c0.4-0.7,0.9-1.2,1.6-1.6c0.7-0.4,1.4-0.6,2.3-0.6c0.8,0,1.6,0.2,2.3,0.6c0.7,0.4,1.2,0.9,1.6,1.6c0.4,0.7,0.6,1.5,0.6,2.5
		s-0.2,1.8-0.6,2.5c-0.4,0.7-0.9,1.2-1.6,1.6S46,149,45.2,149z M45.2,147.7c0.5,0,1-0.1,1.4-0.4c0.4-0.2,0.8-0.6,1.1-1.1
		c0.3-0.5,0.4-1.1,0.4-1.9s-0.1-1.4-0.4-1.9c-0.3-0.5-0.6-0.9-1.1-1.1s-0.9-0.4-1.4-0.4c-0.5,0-1,0.1-1.4,0.4s-0.8,0.6-1.1,1.1
		c-0.3,0.5-0.4,1.1-0.4,1.9s0.1,1.4,0.4,1.9c0.3,0.5,0.6,0.9,1.1,1.1C44.2,147.6,44.7,147.7,45.2,147.7z"/>
	<path class="st4" d="M53.2,148.8l-2.6-8.9h1.5l1.9,7l2.1-7h1.7l2.1,7l1.9-7h1.5l-2.6,8.9h-1.6l-2.2-7.4l-2.2,7.4H53.2z"/>
	<path class="st4" d="M73.3,148.8c-0.8,0-1.5-0.2-1.9-0.6c-0.5-0.4-0.7-1.1-0.7-2.1v-4.9h-1.5v-1.3h1.5l0.2-2.1h1.3v2.1h2.6v1.3
		h-2.6v4.9c0,0.6,0.1,1,0.3,1.1c0.2,0.2,0.6,0.3,1.2,0.3h0.9v1.3H73.3z"/>
	<path class="st4" d="M76.7,148.8v-13h1.5v5.6c0.3-0.5,0.7-1,1.3-1.3c0.6-0.3,1.2-0.5,1.8-0.5c1,0,1.9,0.3,2.5,1
		c0.6,0.6,0.9,1.6,0.9,3v5.2h-1.5v-5.1c0-1.9-0.8-2.8-2.2-2.8c-0.8,0-1.4,0.3-2,0.8c-0.5,0.6-0.8,1.3-0.8,2.4v4.6L76.7,148.8
		L76.7,148.8z"/>
	<path class="st4" d="M90,149c-0.7,0-1.4-0.1-1.8-0.4s-0.9-0.6-1.1-1c-0.2-0.4-0.4-0.9-0.4-1.4c0-0.9,0.3-1.6,1-2.1
		c0.7-0.5,1.6-0.7,2.8-0.7H93v-0.1c0-0.8-0.2-1.4-0.6-1.8c-0.4-0.4-1-0.6-1.6-0.6c-0.6,0-1.1,0.1-1.5,0.4c-0.4,0.3-0.7,0.7-0.8,1.3
		h-1.6c0.1-0.6,0.3-1.2,0.7-1.6c0.4-0.4,0.9-0.8,1.4-1c0.6-0.2,1.2-0.4,1.8-0.4c1.2,0,2.2,0.3,2.8,1c0.6,0.7,0.9,1.5,0.9,2.7v5.5
		h-1.3l-0.1-1.6c-0.2,0.5-0.6,0.9-1.1,1.3C91.4,148.9,90.8,149,90,149z M90.2,147.8c0.6,0,1.1-0.1,1.5-0.4c0.4-0.3,0.7-0.7,0.9-1.2
		c0.2-0.5,0.3-1,0.3-1.5v0h-2.3c-0.9,0-1.5,0.1-1.9,0.5c-0.4,0.3-0.6,0.7-0.6,1.1c0,0.5,0.2,0.8,0.5,1.1
		C89.1,147.6,89.6,147.8,90.2,147.8z"/>
	<path class="st4" d="M100,148.8c-0.8,0-1.5-0.2-1.9-0.6c-0.5-0.4-0.7-1.1-0.7-2.1v-4.9h-1.5v-1.3h1.5l0.2-2.1h1.3v2.1h2.6v1.3h-2.6
		v4.9c0,0.6,0.1,1,0.3,1.1c0.2,0.2,0.6,0.3,1.2,0.3h0.9v1.3H100z"/>
	<path class="st4" d="M110.1,148.8l-2.6-8.9h1.5l1.9,7l2.1-7h1.7l2.1,7l1.9-7h1.5l-2.6,8.9H116l-2.2-7.4l-2.2,7.4H110.1z"/>
	<path class="st4" d="M125.5,149c-0.9,0-1.6-0.2-2.3-0.6c-0.7-0.4-1.2-0.9-1.6-1.6c-0.4-0.7-0.6-1.5-0.6-2.5c0-0.9,0.2-1.8,0.6-2.5
		c0.4-0.7,0.9-1.2,1.6-1.6c0.7-0.4,1.4-0.6,2.3-0.6c0.9,0,1.6,0.2,2.2,0.6c0.6,0.4,1.1,0.9,1.4,1.5c0.3,0.6,0.5,1.3,0.5,2.1
		c0,0.1,0,0.3,0,0.4c0,0.1,0,0.3,0,0.4h-7.1c0,0.7,0.2,1.2,0.5,1.7c0.3,0.5,0.6,0.8,1.1,1c0.4,0.2,0.9,0.3,1.4,0.3
		c0.6,0,1.1-0.1,1.6-0.4c0.4-0.3,0.7-0.7,0.9-1.2h1.5c-0.2,0.8-0.7,1.5-1.4,2.1C127.4,148.8,126.6,149,125.5,149z M125.5,140.9
		c-0.7,0-1.4,0.2-1.9,0.7s-0.9,1.1-1,1.9h5.6c0-0.8-0.3-1.4-0.8-1.9C126.9,141.2,126.3,140.9,125.5,140.9z"/>
	<path class="st4" d="M131.1,140.2l1-4h1.7l-1.7,4H131.1z"/>
	<path class="st4" d="M138.1,148.8l-3.4-8.9h1.6l2.7,7.5l2.7-7.5h1.5l-3.4,8.9H138.1z"/>
	<path class="st4" d="M148.5,149c-0.9,0-1.6-0.2-2.3-0.6c-0.7-0.4-1.2-0.9-1.6-1.6c-0.4-0.7-0.6-1.5-0.6-2.5c0-0.9,0.2-1.8,0.6-2.5
		c0.4-0.7,0.9-1.2,1.6-1.6c0.7-0.4,1.4-0.6,2.3-0.6c0.9,0,1.6,0.2,2.2,0.6c0.6,0.4,1.1,0.9,1.4,1.5c0.3,0.6,0.5,1.3,0.5,2.1
		c0,0.1,0,0.3,0,0.4c0,0.1,0,0.3,0,0.4h-7.1c0,0.7,0.2,1.2,0.5,1.7c0.3,0.5,0.6,0.8,1.1,1c0.4,0.2,0.9,0.3,1.4,0.3
		c0.6,0,1.1-0.1,1.6-0.4c0.4-0.3,0.7-0.7,0.9-1.2h1.5c-0.2,0.8-0.7,1.5-1.4,2.1C150.4,148.8,149.6,149,148.5,149z M148.5,140.9
		c-0.7,0-1.4,0.2-1.9,0.7s-0.9,1.1-1,1.9h5.6c0-0.8-0.3-1.4-0.8-1.9C149.9,141.2,149.3,140.9,148.5,140.9z"/>
	<path class="st4" d="M163.6,149c-0.9,0-1.6-0.2-2.3-0.6c-0.7-0.4-1.2-0.9-1.6-1.6c-0.4-0.7-0.6-1.5-0.6-2.5s0.2-1.8,0.6-2.5
		s0.9-1.2,1.6-1.6c0.7-0.4,1.4-0.6,2.3-0.6c1.1,0,1.9,0.3,2.7,0.8c0.7,0.5,1.2,1.3,1.4,2.2h-1.5c-0.1-0.6-0.4-1-0.9-1.3
		s-1-0.5-1.6-0.5c-0.5,0-1,0.1-1.4,0.4s-0.8,0.6-1.1,1.1s-0.4,1.1-0.4,1.9c0,0.7,0.1,1.4,0.4,1.9c0.3,0.5,0.6,0.9,1.1,1.1
		c0.4,0.3,0.9,0.4,1.4,0.4c0.6,0,1.2-0.1,1.6-0.5c0.5-0.3,0.8-0.7,0.9-1.3h1.5c-0.2,0.9-0.6,1.6-1.4,2.2S164.7,149,163.6,149z"/>
	<path class="st4" d="M173.8,149c-0.8,0-1.6-0.2-2.3-0.6c-0.7-0.4-1.2-0.9-1.6-1.6s-0.6-1.5-0.6-2.5c0-1,0.2-1.8,0.6-2.5
		c0.4-0.7,0.9-1.2,1.6-1.6c0.7-0.4,1.4-0.6,2.3-0.6c0.8,0,1.6,0.2,2.3,0.6c0.7,0.4,1.2,0.9,1.6,1.6c0.4,0.7,0.6,1.5,0.6,2.5
		s-0.2,1.8-0.6,2.5c-0.4,0.7-0.9,1.2-1.6,1.6C175.4,148.8,174.7,149,173.8,149z M173.8,147.7c0.5,0,1-0.1,1.4-0.4s0.8-0.6,1.1-1.1
		s0.4-1.1,0.4-1.9s-0.1-1.4-0.4-1.9c-0.3-0.5-0.6-0.9-1.1-1.1s-0.9-0.4-1.4-0.4c-0.5,0-1,0.1-1.4,0.4s-0.8,0.6-1.1,1.1
		s-0.4,1.1-0.4,1.9s0.1,1.4,0.4,1.9c0.3,0.5,0.6,0.9,1.1,1.1S173.3,147.7,173.8,147.7z"/>
	<path class="st4" d="M182.5,148.8l-3.4-8.9h1.6l2.7,7.5l2.7-7.5h1.6l-3.4,8.9H182.5z"/>
	<path class="st4" d="M192.9,149c-0.9,0-1.6-0.2-2.3-0.6c-0.7-0.4-1.2-0.9-1.6-1.6c-0.4-0.7-0.6-1.5-0.6-2.5c0-0.9,0.2-1.8,0.6-2.5
		c0.4-0.7,0.9-1.2,1.6-1.6c0.7-0.4,1.4-0.6,2.3-0.6c0.9,0,1.6,0.2,2.2,0.6c0.6,0.4,1.1,0.9,1.5,1.5c0.3,0.6,0.5,1.3,0.5,2.1
		c0,0.1,0,0.3,0,0.4c0,0.1,0,0.3,0,0.4H190c0,0.7,0.2,1.2,0.5,1.7s0.6,0.8,1.1,1c0.4,0.2,0.9,0.3,1.4,0.3c0.6,0,1.2-0.1,1.6-0.4
		c0.4-0.3,0.7-0.7,0.9-1.2h1.5c-0.2,0.8-0.7,1.5-1.4,2.1C194.8,148.8,194,149,192.9,149z M192.9,140.9c-0.7,0-1.4,0.2-1.9,0.7
		c-0.6,0.4-0.9,1.1-1,1.9h5.6c0-0.8-0.3-1.4-0.8-1.9C194.3,141.2,193.7,140.9,192.9,140.9z"/>
	<path class="st4" d="M199.1,148.8v-8.9h1.4l0.1,1.7c0.3-0.6,0.7-1.1,1.3-1.4c0.6-0.4,1.3-0.5,2.1-0.5v1.6h-0.4
		c-0.5,0-1,0.1-1.5,0.3c-0.4,0.2-0.8,0.5-1.1,1c-0.3,0.4-0.4,1.1-0.4,1.8v4.5L199.1,148.8L199.1,148.8z"/>
	<path class="st4" d="M209.3,149c-0.8,0-1.6-0.2-2.3-0.6c-0.7-0.4-1.2-0.9-1.6-1.6c-0.4-0.7-0.6-1.5-0.6-2.5c0-0.9,0.2-1.8,0.6-2.5
		s0.9-1.2,1.6-1.6c0.7-0.4,1.4-0.6,2.3-0.6c0.9,0,1.6,0.2,2.2,0.6c0.6,0.4,1.1,0.9,1.4,1.5c0.3,0.6,0.5,1.3,0.5,2.1
		c0,0.1,0,0.3,0,0.4c0,0.1,0,0.3,0,0.4h-7.1c0,0.7,0.2,1.2,0.5,1.7s0.6,0.8,1.1,1c0.4,0.2,0.9,0.3,1.4,0.3c0.6,0,1.1-0.1,1.6-0.4
		c0.4-0.3,0.7-0.7,0.9-1.2h1.5c-0.2,0.8-0.7,1.5-1.4,2.1C211.3,148.8,210.4,149,209.3,149z M209.3,140.9c-0.7,0-1.4,0.2-1.9,0.7
		s-0.9,1.1-1,1.9h5.6c0-0.8-0.3-1.4-0.8-1.9S210.1,140.9,209.3,140.9z"/>
	<path class="st4" d="M219.6,149c-0.9,0-1.7-0.2-2.3-0.6c-0.7-0.4-1.2-1-1.5-1.7c-0.4-0.7-0.6-1.5-0.6-2.4c0-0.9,0.2-1.7,0.6-2.4
		c0.4-0.7,0.9-1.2,1.6-1.7c0.7-0.4,1.4-0.6,2.3-0.6c0.7,0,1.4,0.2,1.9,0.5s1,0.7,1.3,1.3v-5.5h1.5v13H223l-0.1-1.5
		c-0.3,0.4-0.7,0.8-1.2,1.2C221.1,148.9,220.4,149,219.6,149z M219.8,147.7c0.6,0,1.1-0.1,1.6-0.4c0.5-0.3,0.8-0.7,1.1-1.2
		c0.3-0.5,0.4-1.1,0.4-1.8s-0.1-1.3-0.4-1.8c-0.3-0.5-0.6-0.9-1.1-1.2c-0.5-0.3-1-0.4-1.6-0.4c-0.6,0-1.1,0.1-1.6,0.4
		c-0.5,0.3-0.8,0.7-1.1,1.2c-0.3,0.5-0.4,1.1-0.4,1.8s0.1,1.3,0.4,1.8c0.3,0.5,0.6,0.9,1.1,1.2C218.7,147.6,219.2,147.7,219.8,147.7
		z"/>
	<path class="st4" d="M233.4,148.8l-2.6-8.9h1.5l1.9,7l2.1-7h1.7l2.1,7l1.9-7h1.5l-2.6,8.9h-1.5l-2.2-7.4l-2.2,7.4H233.4z"/>
	<path class="st4" d="M245.2,148.8v-13h1.5v5.6c0.3-0.5,0.7-1,1.3-1.3c0.5-0.3,1.1-0.5,1.8-0.5c1,0,1.9,0.3,2.5,1
		c0.6,0.6,0.9,1.6,0.9,3v5.2h-1.5v-5.1c0-1.9-0.8-2.8-2.2-2.8c-0.8,0-1.4,0.3-2,0.8s-0.8,1.3-0.8,2.4v4.6L245.2,148.8L245.2,148.8z"
		/>
	<path class="st4" d="M256.2,152.8l2.2-4.8h-0.5l-3.5-8.1h1.6l3,6.9l3.1-6.9h1.6l-5.9,12.9L256.2,152.8L256.2,152.8z"/>
	<path class="st4" d="M28.7,176.8v-12.9h1.4l0.1,1.5c0.3-0.4,0.7-0.8,1.2-1.2c0.5-0.4,1.2-0.5,2-0.5c0.9,0,1.7,0.2,2.3,0.6
		c0.7,0.4,1.2,1,1.5,1.7c0.4,0.7,0.5,1.5,0.5,2.4c0,0.9-0.2,1.7-0.5,2.4c-0.4,0.7-0.9,1.2-1.5,1.7c-0.7,0.4-1.4,0.6-2.3,0.6
		c-0.7,0-1.4-0.2-2-0.5s-1-0.7-1.3-1.3v5.5L28.7,176.8L28.7,176.8z M33.3,171.7c0.6,0,1.1-0.1,1.6-0.4c0.5-0.3,0.8-0.7,1.1-1.2
		c0.3-0.5,0.4-1.1,0.4-1.8s-0.1-1.3-0.4-1.8c-0.3-0.5-0.6-0.9-1.1-1.2c-0.5-0.3-1-0.4-1.6-0.4s-1.1,0.1-1.6,0.4
		c-0.5,0.3-0.8,0.7-1.1,1.2c-0.3,0.5-0.4,1.1-0.4,1.8s0.1,1.3,0.4,1.8c0.3,0.5,0.6,0.9,1.1,1.2C32.2,171.6,32.7,171.7,33.3,171.7z"
		/>
	<path class="st4" d="M40,172.8v-13h1.5v5.6c0.3-0.5,0.7-1,1.3-1.3c0.6-0.3,1.2-0.5,1.8-0.5c1,0,1.9,0.3,2.5,1
		c0.6,0.6,0.9,1.6,0.9,3v5.2h-1.5v-5.1c0-1.9-0.8-2.8-2.2-2.8c-0.8,0-1.4,0.3-2,0.8s-0.8,1.3-0.8,2.4v4.6L40,172.8L40,172.8z"/>
	<path class="st4" d="M51,176.8l2.2-4.8h-0.5l-3.5-8.1h1.6l2.9,6.9l3.1-6.9h1.6l-5.8,12.9H51z"/>
	<path class="st4" d="M62.9,173c-1.1,0-2-0.3-2.7-0.8c-0.7-0.5-1.1-1.3-1.2-2.2h1.5c0.1,0.5,0.3,0.9,0.8,1.2s1,0.5,1.6,0.5
		c0.6,0,1.1-0.1,1.4-0.4c0.3-0.3,0.5-0.6,0.5-1c0-0.5-0.2-0.9-0.6-1.1c-0.4-0.2-0.9-0.3-1.7-0.5c-0.5-0.1-1-0.2-1.4-0.4
		c-0.5-0.2-0.9-0.4-1.2-0.8c-0.3-0.3-0.5-0.8-0.5-1.3c0-0.8,0.3-1.4,0.9-1.9s1.4-0.8,2.4-0.8c1,0,1.7,0.2,2.3,0.7s1,1.2,1.1,2h-1.5
		c-0.1-0.5-0.2-0.8-0.6-1.1c-0.3-0.3-0.8-0.4-1.3-0.4c-0.5,0-1,0.1-1.2,0.3c-0.3,0.2-0.4,0.5-0.4,0.9c0,0.4,0.2,0.6,0.6,0.9
		c0.4,0.2,0.9,0.4,1.5,0.5c0.6,0.1,1.1,0.3,1.6,0.4c0.5,0.2,0.9,0.4,1.2,0.8c0.3,0.3,0.5,0.8,0.5,1.5c0,0.8-0.3,1.5-0.9,2
		C64.8,172.8,64,173,62.9,173z"/>
	<path class="st4" d="M69.4,161.9c-0.3,0-0.5-0.1-0.8-0.3c-0.2-0.2-0.3-0.5-0.3-0.8c0-0.3,0.1-0.5,0.3-0.7c0.2-0.2,0.5-0.3,0.8-0.3
		c0.3,0,0.5,0.1,0.7,0.3c0.2,0.2,0.3,0.4,0.3,0.7c0,0.3-0.1,0.5-0.3,0.8C70,161.8,69.7,161.9,69.4,161.9z M68.7,172.8v-8.9h1.5v8.9
		H68.7z"/>
	<path class="st4" d="M76.9,173c-0.9,0-1.6-0.2-2.3-0.6c-0.7-0.4-1.2-0.9-1.6-1.6c-0.4-0.7-0.6-1.5-0.6-2.5s0.2-1.8,0.6-2.5
		s0.9-1.2,1.6-1.6c0.7-0.4,1.4-0.6,2.3-0.6c1.1,0,1.9,0.3,2.7,0.8c0.7,0.5,1.2,1.3,1.4,2.2h-1.5c-0.1-0.6-0.4-1-0.9-1.3
		s-1-0.5-1.6-0.5c-0.5,0-1,0.1-1.4,0.4s-0.8,0.6-1.1,1.1c-0.3,0.5-0.4,1.1-0.4,1.9c0,0.7,0.1,1.4,0.4,1.9c0.3,0.5,0.6,0.9,1.1,1.1
		c0.4,0.3,0.9,0.4,1.4,0.4c0.6,0,1.2-0.1,1.6-0.5c0.5-0.3,0.8-0.7,0.9-1.3H81c-0.2,0.9-0.6,1.6-1.4,2.2C78.9,172.7,78,173,76.9,173z
		"/>
	<path class="st4" d="M86.1,173c-0.7,0-1.4-0.1-1.8-0.4s-0.9-0.6-1.1-1c-0.2-0.4-0.4-0.9-0.4-1.4c0-0.9,0.3-1.6,1-2.1
		c0.7-0.5,1.6-0.7,2.8-0.7H89v-0.1c0-0.8-0.2-1.4-0.6-1.8c-0.4-0.4-0.9-0.6-1.6-0.6c-0.6,0-1.1,0.1-1.5,0.4
		c-0.4,0.3-0.7,0.7-0.8,1.3h-1.6c0.1-0.6,0.3-1.2,0.7-1.6c0.4-0.4,0.8-0.8,1.4-1c0.6-0.2,1.2-0.4,1.8-0.4c1.2,0,2.2,0.3,2.8,1
		c0.6,0.7,0.9,1.5,0.9,2.7v5.5h-1.4l-0.1-1.6c-0.2,0.5-0.6,0.9-1.1,1.3C87.5,172.9,86.9,173,86.1,173z M86.3,171.8
		c0.6,0,1.1-0.1,1.5-0.4c0.4-0.3,0.7-0.7,0.9-1.2c0.2-0.5,0.3-1,0.3-1.5v0h-2.3c-0.9,0-1.5,0.1-1.9,0.5c-0.4,0.3-0.6,0.7-0.6,1.1
		c0,0.5,0.2,0.8,0.5,1.1C85.2,171.6,85.7,171.8,86.3,171.8z"/>
	<path class="st4" d="M92.8,172.8v-13h1.5v13H92.8z"/>
	<path class="st4" d="M104.6,173c-0.7,0-1.4-0.1-1.8-0.4s-0.9-0.6-1.1-1c-0.2-0.4-0.4-0.9-0.4-1.4c0-0.9,0.3-1.6,1-2.1
		c0.7-0.5,1.6-0.7,2.8-0.7h2.4v-0.1c0-0.8-0.2-1.4-0.6-1.8s-0.9-0.6-1.6-0.6c-0.6,0-1.1,0.1-1.5,0.4c-0.4,0.3-0.7,0.7-0.8,1.3h-1.6
		c0.1-0.6,0.3-1.2,0.7-1.6c0.4-0.4,0.9-0.8,1.4-1c0.6-0.2,1.2-0.4,1.8-0.4c1.2,0,2.2,0.3,2.8,1c0.6,0.7,1,1.5,1,2.7v5.5h-1.4
		l-0.1-1.6c-0.2,0.5-0.6,0.9-1.1,1.3C106,172.9,105.4,173,104.6,173z M104.8,171.8c0.6,0,1.1-0.1,1.5-0.4c0.4-0.3,0.7-0.7,0.9-1.2
		s0.3-1,0.3-1.5v0h-2.3c-0.9,0-1.5,0.1-1.9,0.5c-0.4,0.3-0.5,0.7-0.5,1.1c0,0.5,0.2,0.8,0.5,1.1
		C103.7,171.6,104.2,171.8,104.8,171.8z"/>
	<path class="st4" d="M115.4,173c-0.9,0-1.6-0.2-2.3-0.6c-0.7-0.4-1.2-0.9-1.6-1.6c-0.4-0.7-0.6-1.5-0.6-2.5s0.2-1.8,0.6-2.5
		s0.9-1.2,1.6-1.6c0.7-0.4,1.4-0.6,2.3-0.6c1.1,0,1.9,0.3,2.7,0.8c0.7,0.5,1.2,1.3,1.4,2.2h-1.6c-0.1-0.6-0.4-1-0.9-1.3
		s-1-0.5-1.6-0.5c-0.5,0-1,0.1-1.4,0.4s-0.8,0.6-1.1,1.1s-0.4,1.1-0.4,1.9c0,0.7,0.1,1.4,0.4,1.9c0.3,0.5,0.6,0.9,1.1,1.1
		c0.4,0.3,0.9,0.4,1.4,0.4c0.6,0,1.2-0.1,1.6-0.5c0.5-0.3,0.8-0.7,0.9-1.3h1.6c-0.2,0.9-0.6,1.6-1.4,2.2
		C117.4,172.7,116.5,173,115.4,173z"/>
	<path class="st4" d="M124.9,172.8c-0.8,0-1.5-0.2-1.9-0.6c-0.5-0.4-0.7-1.1-0.7-2.1v-4.9h-1.6v-1.3h1.6l0.2-2.1h1.3v2.1h2.6v1.3
		h-2.6v4.9c0,0.6,0.1,0.9,0.3,1.1c0.2,0.2,0.6,0.3,1.2,0.3h0.9v1.3L124.9,172.8L124.9,172.8z"/>
	<path class="st4" d="M129.2,161.9c-0.3,0-0.6-0.1-0.8-0.3s-0.3-0.5-0.3-0.8c0-0.3,0.1-0.5,0.3-0.7s0.4-0.3,0.8-0.3
		c0.3,0,0.5,0.1,0.7,0.3c0.2,0.2,0.3,0.4,0.3,0.7c0,0.3-0.1,0.5-0.3,0.8C129.8,161.8,129.5,161.9,129.2,161.9z M128.5,172.8v-8.9
		h1.5v8.9H128.5z"/>
	<path class="st4" d="M135.2,172.8l-3.4-8.9h1.6l2.7,7.5l2.7-7.5h1.6l-3.4,8.9H135.2z"/>
	<path class="st4" d="M142.9,161.9c-0.3,0-0.5-0.1-0.8-0.3c-0.2-0.2-0.3-0.5-0.3-0.8c0-0.3,0.1-0.5,0.3-0.7c0.2-0.2,0.5-0.3,0.8-0.3
		c0.3,0,0.5,0.1,0.7,0.3c0.2,0.2,0.3,0.4,0.3,0.7c0,0.3-0.1,0.5-0.3,0.8S143.2,161.9,142.9,161.9z M142.1,172.8v-8.9h1.5v8.9H142.1z
		"/>
	<path class="st4" d="M149.8,172.8c-0.8,0-1.5-0.2-1.9-0.6c-0.5-0.4-0.7-1.1-0.7-2.1v-4.9h-1.6v-1.3h1.6l0.2-2.1h1.3v2.1h2.6v1.3
		h-2.6v4.9c0,0.6,0.1,0.9,0.3,1.1c0.2,0.2,0.6,0.3,1.2,0.3h0.9v1.3L149.8,172.8L149.8,172.8z"/>
	<path class="st4" d="M154.2,176.8l2.2-4.8h-0.5l-3.6-8.1h1.6l3,6.9l3.1-6.9h1.6l-5.9,12.9L154.2,176.8L154.2,176.8z"/>
	<path class="st4" d="M168,172.8v-8.9h1.4l0.1,1.3c0.3-0.5,0.7-0.8,1.2-1.1c0.5-0.3,1-0.4,1.6-0.4c0.7,0,1.3,0.1,1.8,0.4
		c0.5,0.3,0.9,0.7,1.2,1.3c0.3-0.5,0.7-1,1.3-1.3s1.1-0.5,1.8-0.5c1.1,0,1.9,0.3,2.6,1c0.6,0.6,0.9,1.6,0.9,3v5.2h-1.5v-5
		c0-0.9-0.2-1.6-0.6-2.1s-0.9-0.7-1.6-0.7c-0.7,0-1.3,0.3-1.8,0.8s-0.7,1.3-0.7,2.4v4.6h-1.5v-5.1c0-0.9-0.2-1.6-0.6-2.1
		s-0.9-0.7-1.6-0.7c-0.7,0-1.3,0.3-1.8,0.8s-0.7,1.3-0.7,2.4v4.6L168,172.8L168,172.8z"/>
	<path class="st4" d="M187.1,173c-0.7,0-1.4-0.1-1.9-0.4c-0.5-0.2-0.9-0.6-1.1-1c-0.2-0.4-0.4-0.9-0.4-1.4c0-0.9,0.3-1.6,1-2.1
		c0.7-0.5,1.6-0.7,2.8-0.7h2.4v-0.1c0-0.8-0.2-1.4-0.6-1.8c-0.4-0.4-0.9-0.6-1.6-0.6c-0.6,0-1.1,0.1-1.5,0.4
		c-0.4,0.3-0.7,0.7-0.8,1.3H184c0.1-0.6,0.3-1.2,0.7-1.6c0.4-0.4,0.8-0.8,1.4-1c0.6-0.2,1.2-0.4,1.8-0.4c1.2,0,2.2,0.3,2.8,1
		c0.6,0.7,0.9,1.5,0.9,2.7v5.5h-1.4l-0.1-1.6c-0.2,0.5-0.6,0.9-1.1,1.3C188.6,172.9,187.9,173,187.1,173z M187.3,171.8
		c0.6,0,1.1-0.1,1.5-0.4c0.4-0.3,0.7-0.7,0.9-1.2s0.3-1,0.3-1.5v0h-2.3c-0.9,0-1.5,0.1-1.9,0.5c-0.4,0.3-0.5,0.7-0.5,1.1
		c0,0.5,0.2,0.8,0.5,1.1C186.2,171.6,186.7,171.8,187.3,171.8z"/>
	<path class="st4" d="M197.2,172.8c-0.8,0-1.5-0.2-1.9-0.6c-0.5-0.4-0.7-1.1-0.7-2.1v-4.9H193v-1.3h1.6l0.2-2.1h1.3v2.1h2.6v1.3H196
		v4.9c0,0.6,0.1,0.9,0.3,1.1c0.2,0.2,0.6,0.3,1.2,0.3h0.9v1.3L197.2,172.8L197.2,172.8z"/>
	<path class="st4" d="M204.1,172.8c-0.8,0-1.5-0.2-1.9-0.6c-0.5-0.4-0.7-1.1-0.7-2.1v-4.9h-1.6v-1.3h1.6l0.2-2.1h1.3v2.1h2.6v1.3
		H203v4.9c0,0.6,0.1,0.9,0.3,1.1c0.2,0.2,0.6,0.3,1.2,0.3h0.9v1.3L204.1,172.8L204.1,172.8z"/>
	<path class="st4" d="M211.3,173c-0.9,0-1.6-0.2-2.3-0.6c-0.7-0.4-1.2-0.9-1.6-1.6c-0.4-0.7-0.6-1.5-0.6-2.5c0-0.9,0.2-1.8,0.6-2.5
		c0.4-0.7,0.9-1.2,1.6-1.6c0.7-0.4,1.4-0.6,2.3-0.6c0.9,0,1.6,0.2,2.2,0.6c0.6,0.4,1.1,0.9,1.4,1.5c0.3,0.6,0.5,1.3,0.5,2.1
		c0,0.1,0,0.3,0,0.4c0,0.1,0,0.3,0,0.4h-7.1c0,0.7,0.2,1.2,0.5,1.7s0.6,0.8,1.1,1c0.4,0.2,0.9,0.3,1.4,0.3c0.6,0,1.2-0.1,1.6-0.4
		c0.4-0.3,0.7-0.7,0.9-1.2h1.5c-0.2,0.8-0.7,1.5-1.4,2.1C213.2,172.8,212.4,173,211.3,173z M211.3,164.9c-0.7,0-1.4,0.2-1.9,0.7
		c-0.6,0.4-0.9,1.1-1,1.9h5.6c0-0.8-0.3-1.4-0.8-1.9C212.7,165.2,212.1,164.9,211.3,164.9z"/>
	<path class="st4" d="M217.5,172.8v-8.9h1.4l0.1,1.7c0.3-0.6,0.7-1.1,1.3-1.4c0.6-0.4,1.3-0.5,2.1-0.5v1.6H222c-0.5,0-1,0.1-1.5,0.3
		c-0.4,0.2-0.8,0.5-1.1,1c-0.3,0.4-0.4,1.1-0.4,1.8v4.5L217.5,172.8L217.5,172.8z"/>
	<path class="st4" d="M227.5,173c-1.1,0-2-0.3-2.7-0.8s-1.1-1.3-1.2-2.2h1.5c0.1,0.5,0.4,0.9,0.8,1.2c0.4,0.3,1,0.5,1.6,0.5
		c0.6,0,1.1-0.1,1.4-0.4c0.3-0.3,0.5-0.6,0.5-1c0-0.5-0.2-0.9-0.6-1.1c-0.4-0.2-0.9-0.3-1.7-0.5c-0.5-0.1-1-0.2-1.4-0.4
		c-0.5-0.2-0.9-0.4-1.2-0.8c-0.3-0.3-0.5-0.8-0.5-1.3c0-0.8,0.3-1.4,0.9-1.9s1.4-0.8,2.4-0.8c0.9,0,1.7,0.2,2.3,0.7s1,1.2,1.1,2
		h-1.5c-0.1-0.5-0.2-0.8-0.6-1.1s-0.8-0.4-1.3-0.4c-0.5,0-1,0.1-1.2,0.3c-0.3,0.2-0.4,0.5-0.4,0.9c0,0.4,0.2,0.6,0.6,0.9
		c0.4,0.2,0.9,0.4,1.5,0.5c0.6,0.1,1.1,0.3,1.6,0.4c0.5,0.2,0.9,0.4,1.2,0.8c0.3,0.3,0.5,0.8,0.5,1.5c0,0.8-0.3,1.5-0.9,2
		C229.4,172.8,228.6,173,227.5,173z"/>
	<path class="st4" d="M231.9,175l1-4h1.6l-1.6,4H231.9z"/>
	<path class="st4" d="M241.1,172.8v-8.9h1.4l0.1,1.6c0.3-0.6,0.7-1,1.2-1.3c0.5-0.3,1.1-0.5,1.8-0.5c1.1,0,1.9,0.3,2.5,1
		c0.6,0.6,0.9,1.6,0.9,3v5.2h-1.5v-5.1c0-1.9-0.8-2.8-2.3-2.8c-0.8,0-1.4,0.3-1.9,0.8s-0.8,1.3-0.8,2.4v4.6L241.1,172.8L241.1,172.8
		z"/>
	<path class="st4" d="M255.4,173c-0.9,0-1.6-0.2-2.3-0.6c-0.7-0.4-1.2-0.9-1.6-1.6c-0.4-0.7-0.6-1.5-0.6-2.5c0-0.9,0.2-1.8,0.6-2.5
		s0.9-1.2,1.6-1.6c0.7-0.4,1.4-0.6,2.3-0.6c0.9,0,1.6,0.2,2.2,0.6c0.6,0.4,1.1,0.9,1.4,1.5c0.3,0.6,0.5,1.3,0.5,2.1
		c0,0.1,0,0.3,0,0.4c0,0.1,0,0.3,0,0.4h-7.1c0,0.7,0.2,1.2,0.5,1.7c0.3,0.5,0.6,0.8,1.1,1c0.4,0.2,0.9,0.3,1.4,0.3
		c0.6,0,1.2-0.1,1.6-0.4c0.4-0.3,0.7-0.7,0.9-1.2h1.5c-0.2,0.8-0.7,1.5-1.4,2.1C257.3,172.8,256.4,173,255.4,173z M255.4,164.9
		c-0.7,0-1.4,0.2-1.9,0.7s-0.9,1.1-1,1.9h5.6c0-0.8-0.3-1.4-0.8-1.9S256.1,164.9,255.4,164.9z"/>
	<path class="st4" d="M260.3,172.8l3.1-4.5l-3.1-4.5h1.6l2.5,3.7l2.5-3.7h1.6l-3.1,4.5l3.1,4.5h-1.6l-2.5-3.7l-2.5,3.7H260.3z"/>
	<path class="st4" d="M273.7,172.8c-0.8,0-1.5-0.2-1.9-0.6c-0.5-0.4-0.7-1.1-0.7-2.1v-4.9h-1.6v-1.3h1.6l0.2-2.1h1.3v2.1h2.6v1.3
		h-2.6v4.9c0,0.6,0.1,0.9,0.3,1.1c0.2,0.2,0.6,0.3,1.2,0.3h0.9v1.3L273.7,172.8L273.7,172.8z"/>
	<path class="st4" d="M284.8,173c-0.7,0-1.4-0.1-1.9-0.4s-0.9-0.6-1.1-1c-0.2-0.4-0.4-0.9-0.4-1.4c0-0.9,0.4-1.6,1-2.1
		c0.7-0.5,1.6-0.7,2.8-0.7h2.4v-0.1c0-0.8-0.2-1.4-0.6-1.8s-1-0.6-1.6-0.6c-0.6,0-1.1,0.1-1.5,0.4c-0.4,0.3-0.7,0.7-0.8,1.3h-1.6
		c0.1-0.6,0.3-1.2,0.7-1.6c0.4-0.4,0.9-0.8,1.4-1c0.6-0.2,1.2-0.4,1.8-0.4c1.2,0,2.2,0.3,2.8,1c0.6,0.7,0.9,1.5,0.9,2.7v5.5H288
		l-0.1-1.6c-0.2,0.5-0.6,0.9-1.1,1.3C286.3,172.9,285.7,173,284.8,173z M285.1,171.8c0.6,0,1.1-0.1,1.5-0.4c0.4-0.3,0.7-0.7,1-1.2
		s0.3-1,0.3-1.5v0h-2.3c-0.9,0-1.5,0.1-1.9,0.5c-0.4,0.3-0.6,0.7-0.6,1.1c0,0.5,0.2,0.8,0.5,1.1C284,171.6,284.5,171.8,285.1,171.8z
		"/>
	<path class="st4" d="M291.6,172.8v-8.9h1.4l0.1,1.7c0.3-0.6,0.7-1.1,1.3-1.4c0.6-0.4,1.3-0.5,2.1-0.5v1.6h-0.4
		c-0.5,0-1,0.1-1.5,0.3c-0.4,0.2-0.8,0.5-1.1,1c-0.3,0.4-0.4,1.1-0.4,1.8v4.5L291.6,172.8L291.6,172.8z"/>
	<path class="st4" d="M301.8,173c-0.9,0-1.6-0.2-2.3-0.6c-0.7-0.4-1.2-0.9-1.6-1.6c-0.4-0.7-0.6-1.5-0.6-2.5c0-0.9,0.2-1.8,0.6-2.5
		c0.4-0.7,0.9-1.2,1.6-1.6c0.7-0.4,1.4-0.6,2.3-0.6c0.9,0,1.6,0.2,2.2,0.6c0.6,0.4,1.1,0.9,1.5,1.5c0.3,0.6,0.5,1.3,0.5,2.1
		c0,0.1,0,0.3,0,0.4c0,0.1,0,0.3,0,0.4h-7.1c0,0.7,0.2,1.2,0.5,1.7c0.3,0.5,0.6,0.8,1.1,1c0.4,0.2,0.9,0.3,1.4,0.3
		c0.6,0,1.1-0.1,1.6-0.4c0.4-0.3,0.7-0.7,0.9-1.2h1.5c-0.2,0.8-0.7,1.5-1.4,2.1C303.7,172.8,302.9,173,301.8,173z M301.8,164.9
		c-0.7,0-1.4,0.2-1.9,0.7s-0.9,1.1-1,1.9h5.6c0-0.8-0.3-1.4-0.8-1.9C303.2,165.2,302.6,164.9,301.8,164.9z"/>
	<path class="st5" d="M31.8,187.9c0.8-0.1,1.6-0.1,2.3-0.1c0.7,0,1.2,0,1.5,0c1.4,0.1,2.3,0.2,2.6,0.5c0.3,0.3,0.4,0.7,0.4,1
		c0,0.8-0.7,1.3-2.1,1.6c-0.4,0.1-1.1,0.2-2.3,0.5l-1,0.2v3c0,1.5,0,2.4,0.1,2.6c0,0.3,0.2,0.5,0.5,0.6c0.3,0.2,0.8,0.3,1.4,0.3
		c0.6,0,0.9,0.2,1.1,0.5c0.2,0.3,0.4,0.7,0.4,1c0,0.7-0.6,1.2-1.8,1.5c-0.7,0.2-1.2,0.3-1.3,0.5c-0.1,0.1-0.1,0.3-0.1,0.7
		c0,0.4,0.2,2.8,0.5,7.3L34,211c0,0.4-0.2,0.6-0.6,0.8c-0.3,0.1-0.6,0.2-1,0.2c-0.6,0-1.2-0.3-1.8-0.8c-0.5-0.5-0.8-1-0.8-1.6v-0.4
		c0-0.3,0-0.8,0-1.6c0-0.8,0-1.4,0-1.9c0-5.9-0.1-10.3-0.3-13.1c-0.1-1.2-0.1-2.1-0.1-2.6c0-0.8,0.1-1.3,0.4-1.5
		C30.1,188.2,30.7,188,31.8,187.9z"/>
	<path class="st5" d="M44.5,188l0.8-1.1H51l0.9,0.9c0.6,0.6,1,1.3,1.2,2.2s0.4,2.3,0.6,4.1c0.1,0.7,0.1,1.7,0.1,3.1
		c0,3.1-0.3,5.9-0.9,8.5c-0.6,2.6-1.3,4.3-2.3,5.2c-0.3,0.3-0.8,0.6-1.3,0.8c-0.6,0.2-1.1,0.3-1.5,0.3c-0.2,0-0.3,0-0.5-0.1
		c-0.2-0.1-0.6-0.2-1-0.2c-0.3,0-0.7-0.2-1.1-0.8c-0.4-0.5-0.7-1.1-1-1.8c-0.4-1.2-0.7-2.5-0.8-3.9c-0.1-1.4-0.2-3.7-0.2-6.8v-2.1
		c0-2.9,0.1-4.8,0.2-5.8C43.7,189.5,44,188.7,44.5,188z M48.8,190.2c-0.3-0.6-0.5-0.9-0.7-0.9c-0.2,0-0.5,0.5-0.8,1.4
		c-0.2,0.7-0.4,2.1-0.4,4.2c0,1.7,0.1,3.4,0.2,5.2c0.1,1.7,0.3,3.4,0.6,4.9c0.3,1.5,0.5,2.3,0.7,2.3c0.1,0,0.3-0.3,0.4-1
		c0.2-0.5,0.3-1,0.5-1.4c0.1-0.2,0.2-1.5,0.4-4c0.1-1.3,0.1-2.5,0.1-3.6C50,194,49.6,191.6,48.8,190.2z"/>
	<path class="st5" d="M59,186.6c0.4-0.3,0.8-0.4,1.4-0.4c0.7,0,1.2,0.2,1.6,0.5l0.6,0.5l0.1,5.6c0.1,6.5,0.3,10.9,0.6,13.4
		c0.1,0.5,0.2,0.7,0.3,0.7c0.3,0,0.5-0.9,0.7-2.8c0.4-3.9,0.6-7.8,0.6-11.6v-1v-0.6c0-2.1,0.2-3.3,0.7-3.6c0.2-0.1,0.5-0.2,0.9-0.2
		c0.8,0,1.4,0.2,1.8,0.5c0.5,0.5,0.7,1.7,0.7,3.7c0,1.7-0.1,4.8-0.4,9.4c-0.2,3.8-0.6,6.5-1.2,8.1c-0.6,1.6-1.6,2.6-2.9,3
		c-0.6,0.2-0.9,0.3-1.1,0.3c-0.2,0-0.7-0.2-1.5-0.5c-1.7-0.8-2.6-2-2.8-3.8c-0.2-1.5-0.3-6.4-0.5-14.7c0-1.2-0.1-2.5-0.1-4
		c0-0.9,0-1.6,0.1-1.8C58.7,187,58.8,186.7,59,186.6z"/>
	<path class="st5" d="M75.1,187.2c0.5-0.2,1.2-0.3,2.1-0.3c0.9,0,1.6,0.1,2,0.3c0.8,0.3,1.4,1,1.8,1.8c0.2,0.4,0.4,1.2,0.5,2.4
		c0.2,1.2,0.2,2.2,0.2,3.1c0,0.4,0,0.7-0.1,0.9c-0.1,0.8-0.3,1.6-0.6,2.6c-0.3,1-0.6,1.4-0.7,1.4c-0.2,0-0.4,0.2-0.4,0.6
		c0,0.3,0.1,0.6,0.3,1c0.5,0.7,1.2,2,2.1,3.9c0.9,1.9,1.4,3.1,1.5,3.6c0,0.1,0.1,0.4,0.1,0.6c0,0.4-0.1,0.8-0.3,1
		c-0.2,0.4-0.5,0.5-0.9,0.5c-0.3,0-0.6,0-0.8,0c-0.8-0.1-1.2-0.2-1.4-0.3c-0.2-0.1-0.3-0.4-0.3-0.7c0-0.6-0.3-1.5-0.9-2.8
		c-0.6-1.2-1.1-1.9-1.4-1.9h0c-0.1,0.1-0.1,0.4-0.1,1c0,0.9,0.1,1.9,0.3,3c0.1,0.5,0.1,0.8,0.1,1c0,1-0.2,1.7-0.7,1.9
		c-0.2,0.1-0.4,0.1-0.8,0.1c-1,0-1.6-0.2-1.8-0.7c-0.1-0.2-0.3-2.3-0.4-6.2c0-1.2-0.1-2.6-0.1-4c0-1.4,0-2.5,0-3.1
		c0-0.7,0-1.5-0.1-2.6c-0.1-1.1-0.2-2.2-0.3-3.5c-0.1-1.5-0.2-2.3-0.2-2.6c0-0.7,0.1-1.2,0.3-1.5C74.1,187.6,74.5,187.3,75.1,187.2z
		 M77.9,190.6c-0.1-0.2-0.3-0.4-0.5-0.4c-0.2,0-0.3,0.1-0.5,0.3c-0.1,0.2-0.1,0.4,0,0.5c0,0,0.1,1,0.3,3c0.1,1.9,0.2,2.9,0.3,3
		s0.2-0.1,0.5-0.4c0.2-0.3,0.3-0.8,0.3-1.6c0-0.6,0-1.1,0-1.5C78.2,191.9,78.1,190.9,77.9,190.6z"/>
	<path class="st5" d="M99.6,187.5c0.4-0.2,0.8-0.3,1.3-0.3c0.3,0,0.6,0,0.8,0c0.9,0.1,1.5,0.2,1.8,0.4c0.3,0.2,0.6,0.5,0.9,0.9
		c0.3,0.5,0.5,1,0.5,1.5c0,0.5-0.2,1-0.6,1.4c-0.4,0.4-0.7,0.6-1.1,0.6c-0.4,0-0.8-0.3-1.1-0.8c-0.3-0.4-0.6-0.6-0.9-0.6
		c-0.3,0-0.5,0.2-0.8,0.6c-0.3,0.4-0.4,0.8-0.5,1.3v0.2c0,1.7,1.3,4.8,3.8,9.3c0.4,0.7,0.8,2.1,1.2,4c0,0.1,0.1,0.3,0.1,0.6
		c0,1.7-0.4,3-1.1,3.9c-0.3,0.4-0.8,0.8-1.5,1c-0.7,0.3-1.3,0.5-1.9,0.5c-0.1,0-0.1,0-0.2,0c-0.1,0-0.1,0-0.2,0
		c-0.7-0.1-1.6-0.6-2.5-1.6c-1-0.9-1.5-1.7-1.5-2.2c0-0.2,0.2-0.5,0.5-0.8c0.3-0.3,0.7-0.5,1-0.6c0.1,0,0.2-0.1,0.3-0.1
		c0.3,0,0.9,0.5,1.6,1.5c0.3,0.4,0.6,0.6,0.9,0.6c0.3,0,0.5-0.2,0.7-0.6c0.1-0.1,0.1-0.3,0.1-0.7c0-1.8-0.8-4.3-2.4-7.7
		c-1.5-3.2-2.2-5.5-2.2-7c0-0.7,0.1-1.3,0.4-1.9c0.5-1.2,0.9-2,1.1-2.3C98.5,188.2,99,187.8,99.6,187.5z"/>
	<path class="st5" d="M110,188.2c0.4-0.4,0.8-0.6,1.4-0.6c0.6,0,1,0.2,1.4,0.6l0.6,0.6l0.3,10.3c0.1,5.7,0.2,9,0.2,9.8
		c0,0.5,0,0.8,0,1.1c0,0.3,0,0.5,0,0.7c0,0.2-0.1,0.3-0.1,0.4c-0.1,0.1-0.1,0.2-0.1,0.2s-0.1,0.1-0.2,0.1s-0.2,0.1-0.2,0.1
		c-0.3,0.2-0.6,0.3-0.8,0.3c-0.1,0-0.4-0.1-0.9-0.2c-0.7-0.3-1.1-0.6-1.2-0.8c-0.1-0.1-0.2-3.8-0.3-11c-0.1-7.2-0.1-10.8-0.2-10.9
		C109.5,188.9,109.6,188.6,110,188.2z"/>
	<path class="st5" d="M129.9,188.1c0.4-0.1,0.8-0.2,1.1-0.2c0.8,0,1.4,0.3,1.7,0.8c0.2,0.3,0.5,1.6,0.7,3.9c0.2,2.3,0.4,4.7,0.5,7.4
		c0,0.8,0.1,2.1,0.2,3.7c0.1,1.6,0.1,3,0.2,4.1c0.1,1.2,0.1,2.1,0.1,2.8c0,0.4-0.2,0.7-0.7,1c-0.5,0.3-0.9,0.4-1.5,0.4
		c-0.5,0-0.8-0.1-1-0.3l-0.6-0.5l-0.1-5.5c-0.2-6.3-0.5-9.5-0.8-9.5c-0.2,0-0.6,0.8-1.1,2.4c-0.3,0.9-0.6,1.5-0.8,1.9
		c-0.3,0.4-0.6,0.5-1.1,0.5c-0.3,0-0.7-0.1-1.2-0.3c-0.5-0.2-0.9-0.7-1.3-1.4c-0.4-0.8-0.6-1.2-0.6-1.3c0-0.1-0.1-0.3-0.2-0.6
		s-0.3-0.6-0.5-0.9c-0.2-0.3-0.3-0.4-0.3-0.3v0.5c0,1.3,0,3.3,0.1,5.9l0.2,6.4l-0.6,1c-0.7,1-1.2,1.5-1.7,1.5
		c-0.3,0-0.6-0.2-0.9-0.7c-0.2-0.4-0.4-0.9-0.5-1.7c-0.1-0.8-0.1-3-0.2-6.9c-0.2-7.1-0.4-11.1-0.5-12c0-0.1-0.1-0.3-0.1-0.5
		c0-0.3,0.2-0.7,0.5-1c0.4-0.4,0.8-0.6,1.3-0.6c0.5,0,1.1,0.1,1.7,0.4c0.6,0.3,1.1,0.7,1.4,1.1c0.3,0.5,1.1,1.8,2.3,4.1
		c0.3,0.6,0.6,0.9,0.7,0.9c0.2,0,0.3-0.2,0.5-0.6c0.1-0.5,0.4-1.1,0.8-1.8c0.4-0.9,0.6-1.4,0.6-1.5c0-0.3,0.2-0.7,0.6-1.4
		S129.7,188.2,129.9,188.1z"/>
	<path class="st5" d="M139.9,186.4c0.3-0.1,1.1-0.2,2.2-0.2c1.5,0,2.4,0.1,2.7,0.3c0.5,0.3,1,0.7,1.6,1.3c0.6,0.6,1,1.1,1.2,1.6
		c0.4,0.7,0.6,2.4,0.7,4.9c0.1,1.5,0.1,2.4,0.1,2.6c0,1-0.1,1.9-0.4,2.7c-0.3,1-0.7,1.7-1.1,2.2c-0.4,0.5-1.1,0.9-1.8,1.1l-1.3,0.5
		l-0.1,3.8c0,2.2-0.1,3.6-0.2,4.1s-0.6,0.7-1.4,0.7c-0.6,0-1.2-0.2-1.6-0.6l-0.7-0.5v-3.3v-0.8c0-2.6-0.1-5.9-0.2-9.8
		c-0.2-3.9-0.3-6.3-0.5-7.3c-0.1-0.7-0.1-1.2-0.1-1.7C139,187.3,139.3,186.7,139.9,186.4z M144,190.8c-0.3-0.7-0.6-1-0.7-1
		c-0.1,0-0.1,0-0.2,0.1c0,1-0.1,2.2-0.1,3.5c0,4.3,0.2,6.5,0.6,6.5c0.1,0,0.3-0.3,0.6-0.9c0.2-0.5,0.4-1.2,0.4-2
		c0-0.2,0-0.9-0.1-2.1C144.4,192.6,144.3,191.3,144,190.8z"/>
	<path class="st5" d="M153.5,187.6c0.3-0.3,0.6-0.4,0.9-0.4c0.3,0,0.5,0,0.7,0c0.7,0.1,1.1,0.3,1.3,0.5c0.4,0.5,0.5,3.2,0.5,8.3v2.7
		v2.4c0,4,0.1,6.2,0.1,6.5c0.1,0.5,0.6,0.8,1.5,0.8c0.4,0,0.8,0,1.1-0.1c0.2,0,0.6,0,0.9,0c0.6,0,1,0.1,1.2,0.3
		c0.2,0.2,0.3,0.5,0.3,1c0,0.3-0.1,0.6-0.2,0.8c-0.1,0.2-0.4,0.4-0.9,0.7c-0.8,0.5-1.7,0.7-2.7,0.7c-1.3,0.1-1.9,0.1-2,0.1
		s-0.2,0-0.3,0c-0.4,0-0.8-0.1-1.2-0.3c-0.5-0.2-0.8-0.5-1.1-0.7c-0.5-0.6-0.7-2.1-0.7-4.7c0-0.6,0.1-1.8,0.1-3.6
		c0.1-1.6,0.1-3.3,0.1-5.2c0-4.4-0.1-7.2-0.2-8.3c-0.1-0.4-0.1-0.7-0.1-0.8C153.1,188.2,153.2,188,153.5,187.6z"/>
	<path class="st5" d="M169,188.1c0.4-0.1,0.9-0.1,1.5-0.1c1.7,0,2.7,0.2,3.1,0.6c0.3,0.3,0.5,0.6,0.5,1c0,0.4-0.2,0.7-0.5,1
		c-0.3,0.3-0.7,0.4-1.2,0.4c-0.5,0-0.8,0.1-0.9,0.3c-0.2,0.2-0.2,0.8-0.2,1.6c0,0.2,0,1,0.1,2.3c0.1,1.5,0.1,2.5,0.2,2.9
		s0.2,0.7,0.3,0.7c0,0,0.2,0,0.6,0c0.4,0,0.7,0,0.9,0c0.7,0,1.3,0.2,1.6,0.5c0.2,0.2,0.3,0.4,0.3,0.6c0,0.5-0.7,0.9-2,1.4
		c-0.8,0.3-1.2,0.5-1.4,0.6c-0.1,0.1-0.3,0.5-0.3,1c-0.1,0.5-0.1,0.9-0.1,1.3c0,1.5,0.1,2.7,0.4,3.4c0.1,0.3,0.3,0.5,0.4,0.6
		c0.1,0.1,0.5,0.1,1,0.1c0.6,0,1.2,0.2,1.6,0.4c0.5,0.3,0.7,0.6,0.7,1c0,0.3-0.2,0.6-0.7,1.1c-0.7,0.7-1.9,1.1-3.7,1.1
		c-1.8,0-2.9-0.4-3.5-1.1c-0.3-0.4-0.5-3-0.6-7.8c-0.1-6-0.1-9.5-0.2-10.6l-0.1-3.4l0.6-0.4C168.1,188.4,168.6,188.2,169,188.1z"/>
	<path class="st5" d="M189.3,186.9c0.4-0.4,1.1-0.6,2.1-0.6h1.1c1.7,0.1,2.6,0.1,3,0.2c0.2,0.1,0.6,0.1,1.3,0.2
		c0.7,0,1.2,0.2,1.5,0.4c0.3,0.2,0.5,0.6,0.5,1.2c0,0.6-0.1,1-0.4,1.2c-0.2,0.2-0.6,0.4-1.1,0.5c-0.6,0.1-1,0.2-1.1,0.3
		c-0.1,0.1-0.2,3.1-0.2,8.7c0,3.9,0.1,6.7,0.1,8.3c0.1,1.3,0.1,2,0.1,2.1c0,0.6-0.1,1.2-0.4,1.6c-0.3,0.6-0.8,0.9-1.5,0.9
		c-0.5,0-0.9-0.1-1.4-0.4l-0.9-0.5l0.1-10.4c0.1-2.7,0.1-5.4,0.1-8.1c0-1.6-0.1-2.5-0.4-2.6c-0.4-0.2-0.6-0.3-0.7-0.2
		c-0.1,0-0.3,0-0.5,0c-0.6,0-1-0.2-1.4-0.5c-0.4-0.3-0.6-0.7-0.6-1.1C188.5,187.7,188.8,187.3,189.3,186.9z"/>
	<path class="st5" d="M203.9,188.2c0.4-0.4,0.8-0.6,1.4-0.6c0.6,0,1,0.2,1.4,0.6l0.6,0.6l0.3,10.3c0.2,5.7,0.2,9,0.2,9.8
		c0,0.5,0,0.8,0,1.1c0,0.3,0,0.5-0.1,0.7c0,0.2-0.1,0.3-0.1,0.4c-0.1,0.1-0.1,0.2-0.1,0.2s-0.1,0.1-0.2,0.1s-0.2,0.1-0.2,0.1
		c-0.3,0.2-0.6,0.3-0.8,0.3c-0.1,0-0.4-0.1-0.9-0.2c-0.7-0.3-1.1-0.6-1.2-0.8c-0.1-0.1-0.2-3.8-0.3-11c-0.1-7.2-0.1-10.8-0.2-10.9
		C203.4,188.9,203.5,188.6,203.9,188.2z"/>
	<path class="st5" d="M213.3,186.4c0.3-0.1,1-0.2,2.2-0.2c1.5,0,2.4,0.1,2.7,0.3c0.5,0.3,1,0.7,1.6,1.3c0.6,0.6,1,1.1,1.2,1.6
		c0.4,0.7,0.6,2.4,0.7,4.9c0.1,1.5,0.1,2.4,0.1,2.6c0,1-0.1,1.9-0.4,2.7c-0.3,1-0.7,1.7-1.1,2.2c-0.4,0.5-1.1,0.9-1.9,1.1l-1.3,0.5
		l-0.1,3.8c0,2.2-0.1,3.6-0.2,4.1s-0.6,0.7-1.3,0.7c-0.6,0-1.2-0.2-1.7-0.6l-0.7-0.5v-3.3v-0.8c0-2.6-0.1-5.9-0.2-9.8
		c-0.1-3.9-0.3-6.3-0.5-7.3c-0.1-0.7-0.1-1.2-0.1-1.7C212.4,187.3,212.7,186.7,213.3,186.4z M217.4,190.8c-0.3-0.7-0.6-1-0.7-1
		c-0.1,0-0.2,0-0.2,0.1c0,1-0.1,2.2-0.1,3.5c0,4.3,0.2,6.5,0.6,6.5c0.1,0,0.3-0.3,0.6-0.9c0.2-0.5,0.4-1.2,0.4-2
		c0-0.2,0-0.9-0.1-2.1C217.8,192.6,217.6,191.3,217.4,190.8z"/>
	<path class="st5" d="M230,187.5c0.4-0.2,0.8-0.3,1.3-0.3c0.3,0,0.6,0,0.8,0c0.9,0.1,1.5,0.2,1.8,0.4c0.3,0.2,0.6,0.5,0.9,0.9
		c0.3,0.5,0.5,1,0.5,1.5c0,0.5-0.2,1-0.6,1.4c-0.4,0.4-0.7,0.6-1.1,0.6c-0.4,0-0.8-0.3-1.1-0.8c-0.3-0.4-0.6-0.6-0.9-0.6
		c-0.3,0-0.5,0.2-0.8,0.6c-0.3,0.4-0.4,0.8-0.5,1.3v0.2c0,1.7,1.3,4.8,3.8,9.3c0.4,0.7,0.8,2.1,1.2,4c0,0.1,0,0.3,0,0.6
		c0,1.7-0.4,3-1,3.9c-0.3,0.4-0.8,0.8-1.5,1c-0.7,0.3-1.3,0.5-1.9,0.5c-0.1,0-0.1,0-0.2,0c-0.1,0-0.1,0-0.2,0
		c-0.7-0.1-1.5-0.6-2.5-1.6c-1-0.9-1.5-1.7-1.5-2.2c0-0.2,0.2-0.5,0.5-0.8c0.3-0.3,0.7-0.5,1-0.6c0.1,0,0.2-0.1,0.3-0.1
		c0.3,0,0.9,0.5,1.6,1.5c0.3,0.4,0.6,0.6,0.9,0.6c0.3,0,0.5-0.2,0.7-0.6c0.1-0.1,0.1-0.3,0.1-0.7c0-1.8-0.8-4.3-2.4-7.7
		c-1.5-3.2-2.2-5.5-2.2-7c0-0.7,0.1-1.3,0.4-1.9c0.5-1.2,0.9-2,1.1-2.3C228.9,188.2,229.4,187.8,230,187.5z"/>
	<path class="st5" d="M32.3,292.2c0.4-0.2,0.8-0.3,1.3-0.3c0.3,0,0.6,0,0.8,0.1c0.9,0.1,1.5,0.2,1.8,0.4c0.3,0.1,0.6,0.5,0.9,0.9
		c0.3,0.5,0.5,1,0.5,1.5c0,0.6-0.2,1-0.6,1.4c-0.4,0.4-0.7,0.5-1.1,0.5c-0.4,0-0.8-0.3-1.1-0.8c-0.3-0.4-0.6-0.6-0.9-0.6
		c-0.3,0-0.5,0.2-0.8,0.6c-0.3,0.4-0.4,0.8-0.5,1.3v0.2c0,1.7,1.3,4.8,3.8,9.3c0.4,0.7,0.8,2.1,1.2,4c0,0.1,0,0.3,0,0.6
		c0,1.7-0.4,3-1,3.9c-0.3,0.4-0.8,0.8-1.5,1.1c-0.7,0.3-1.3,0.5-1.8,0.5c-0.1,0-0.1,0-0.2,0c-0.1,0-0.1,0-0.2,0
		c-0.7-0.1-1.5-0.6-2.5-1.6c-1-0.9-1.5-1.7-1.5-2.2c0-0.2,0.2-0.5,0.5-0.9c0.3-0.3,0.7-0.5,1-0.6c0.1,0,0.2,0,0.3,0
		c0.3,0,0.9,0.5,1.6,1.5c0.3,0.4,0.6,0.6,0.9,0.6c0.3,0,0.5-0.2,0.7-0.5c0.1-0.1,0.1-0.4,0.1-0.7c0-1.8-0.8-4.3-2.4-7.7
		c-1.5-3.2-2.2-5.5-2.2-7c0-0.7,0.1-1.3,0.4-1.9c0.5-1.2,0.9-2,1.1-2.4C31.1,292.9,31.6,292.5,32.3,292.2z"/>
	<path class="st5" d="M42.7,291.3c0.4-0.3,0.8-0.4,1.4-0.4c0.7,0,1.2,0.2,1.6,0.5l0.6,0.5l0.1,5.6c0.1,6.5,0.3,10.9,0.6,13.4
		c0.1,0.5,0.2,0.7,0.3,0.7c0.3,0,0.5-0.9,0.7-2.8c0.4-3.9,0.6-7.8,0.6-11.6v-1v-0.6c0-2.1,0.2-3.3,0.7-3.6c0.2-0.1,0.5-0.2,0.9-0.2
		c0.8,0,1.4,0.1,1.8,0.5c0.5,0.5,0.7,1.7,0.7,3.7c0,1.7-0.1,4.8-0.4,9.4c-0.2,3.8-0.6,6.5-1.2,8.1c-0.6,1.6-1.6,2.6-2.9,3
		c-0.6,0.2-0.9,0.3-1.1,0.3c-0.2,0-0.7-0.2-1.5-0.5c-1.7-0.8-2.6-2-2.8-3.8c-0.2-1.5-0.3-6.4-0.5-14.7c0-1.2,0-2.5,0-4
		c0-0.9,0-1.6,0.1-1.8C42.4,291.6,42.5,291.4,42.7,291.3z"/>
	<path class="st5" d="M58.3,291.1c0.3-0.1,1.1-0.2,2.2-0.2c1.5,0,2.4,0.1,2.7,0.3c0.5,0.3,1,0.7,1.6,1.3c0.6,0.6,1,1.1,1.2,1.6
		c0.4,0.7,0.6,2.4,0.7,4.9c0.1,1.5,0.1,2.4,0.1,2.6c0,1-0.1,1.9-0.4,2.7c-0.3,1-0.7,1.7-1.1,2.2c-0.4,0.5-1.1,0.9-1.9,1.1l-1.3,0.5
		l0,3.8c0,2.2-0.1,3.6-0.2,4.1c-0.2,0.5-0.6,0.7-1.4,0.7c-0.6,0-1.2-0.2-1.6-0.5l-0.7-0.5v-3.3v-0.8c0-2.6-0.1-5.9-0.2-9.8
		c-0.1-3.9-0.3-6.3-0.5-7.3c-0.1-0.7-0.1-1.2-0.1-1.7C57.3,292,57.6,291.4,58.3,291.1z M62.3,295.4c-0.3-0.7-0.6-1-0.7-1
		c-0.1,0-0.1,0-0.2,0.1c0,1,0,2.2,0,3.5c0,4.3,0.2,6.5,0.5,6.5c0.1,0,0.3-0.3,0.6-0.9c0.2-0.5,0.4-1.2,0.4-2c0-0.2,0-0.9-0.1-2.1
		C62.8,297.3,62.6,296,62.3,295.4z"/>
	<path class="st5" d="M73.4,292.8c0.4-0.1,0.9-0.1,1.5-0.1c1.7,0,2.7,0.2,3.2,0.6c0.3,0.3,0.5,0.6,0.5,1c0,0.4-0.2,0.7-0.5,1
		c-0.3,0.3-0.7,0.4-1.2,0.4c-0.5,0-0.8,0.1-0.9,0.3c-0.2,0.2-0.2,0.8-0.2,1.6c0,0.2,0,1,0.1,2.3c0.1,1.5,0.1,2.5,0.2,2.9
		c0.1,0.4,0.2,0.7,0.3,0.7c0,0,0.2,0,0.6,0c0.4,0,0.7,0,0.9,0c0.7,0,1.3,0.2,1.6,0.5c0.2,0.2,0.3,0.4,0.3,0.6c0,0.5-0.7,0.9-2,1.4
		c-0.8,0.3-1.2,0.5-1.4,0.6c-0.1,0.1-0.3,0.5-0.3,1c-0.1,0.5-0.1,0.9-0.1,1.3c0,1.5,0.1,2.7,0.4,3.4c0.1,0.3,0.3,0.5,0.4,0.6
		c0.2,0.1,0.5,0.1,1,0.1c0.6,0,1.2,0.2,1.7,0.4c0.5,0.3,0.7,0.6,0.7,1c0,0.3-0.2,0.6-0.7,1.1c-0.7,0.7-1.9,1.1-3.7,1.1
		c-1.8,0-2.9-0.4-3.5-1.1c-0.3-0.4-0.5-3-0.6-7.8c-0.1-6-0.1-9.5-0.2-10.6l-0.1-3.4l0.6-0.4C72.5,293.1,73,292.9,73.4,292.8z"/>
	<path class="st5" d="M86.3,291.9c0.6-0.2,1.2-0.3,2.1-0.3c0.9,0,1.6,0.1,2,0.3c0.8,0.3,1.4,1,1.8,1.8c0.2,0.4,0.4,1.2,0.5,2.4
		c0.2,1.2,0.2,2.2,0.2,3.1c0,0.4,0,0.7,0,0.9c-0.1,0.8-0.3,1.6-0.6,2.6c-0.3,1-0.6,1.4-0.7,1.4c-0.2,0-0.4,0.2-0.4,0.6
		c0,0.3,0.1,0.6,0.3,1c0.5,0.7,1.2,2,2.1,3.9c0.9,1.9,1.4,3.1,1.5,3.6c0,0.1,0,0.4,0,0.6c0,0.4-0.1,0.8-0.3,1.1
		c-0.2,0.4-0.5,0.5-0.9,0.5c-0.3,0-0.6,0-0.8,0c-0.8-0.1-1.2-0.2-1.4-0.3c-0.2-0.1-0.3-0.4-0.3-0.7c0-0.6-0.3-1.5-0.9-2.8
		c-0.6-1.2-1.1-1.9-1.4-1.9h0c-0.1,0.1-0.1,0.4-0.1,1c0,0.9,0.1,1.9,0.3,3c0.1,0.5,0.1,0.8,0.1,1c0,1-0.2,1.7-0.7,1.9
		c-0.2,0.1-0.4,0.1-0.8,0.1c-1,0-1.6-0.2-1.8-0.7c-0.2-0.2-0.3-2.3-0.4-6.2c0-1.2-0.1-2.6-0.1-4c0-1.4-0.1-2.5-0.1-3.1
		c0-0.7,0-1.5-0.1-2.6c-0.1-1-0.2-2.2-0.3-3.5c-0.1-1.5-0.2-2.3-0.2-2.6c0-0.7,0.1-1.2,0.3-1.5C85.4,292.3,85.8,292,86.3,291.9z
		 M89.2,295.3c-0.1-0.2-0.3-0.4-0.5-0.4c-0.2,0-0.3,0.1-0.5,0.3c-0.1,0.2-0.1,0.4,0,0.6c0,0,0.1,1,0.2,2.9c0.1,1.9,0.2,2.9,0.3,3
		s0.2-0.1,0.5-0.4c0.2-0.3,0.3-0.8,0.3-1.6c0-0.6,0-1.1-0.1-1.5C89.4,296.6,89.3,295.6,89.2,295.3z"/>
	<path class="st5" d="M113.3,290.8c0.1,0,0.3,0,0.6,0c0.8,0,1.8,0.1,3.1,0.4c1.3,0.2,2.1,0.5,2.5,0.8c0.2,0.2,0.6,0.7,1.1,1.6
		c0.4,0.9,0.7,2.3,0.8,4.2c0,0.4,0.1,0.9,0.1,1.3c0,0.5,0.1,0.8,0.1,1.1c0,0.3,0,0.5,0,0.7c0,0.3-0.1,1.7-0.3,4.2l-0.3,3.9l1.4,2.1
		c1.3,1.9,1.9,3.1,1.9,3.5c0,0.2-0.1,0.4-0.4,0.7c-0.2,0.2-0.6,0.4-1.1,0.4c-0.5,0-0.8-0.1-1.1-0.3c-0.2-0.2-0.5-0.6-0.9-1.2
		c-0.3-0.6-0.6-0.9-0.7-0.9c-0.1,0-0.3,0.4-0.7,1.2c-0.6,1.2-1.5,2-2.8,2.2c0,0-0.1,0-0.1,0c-0.1,0-0.1,0-0.2,0
		c-0.6,0-1.2-0.2-1.9-0.6c-0.7-0.4-1.2-0.9-1.5-1.4c-1-1.5-1.4-5.6-1.5-12.2v-2.4c0-3,0.1-5.1,0.4-6.1
		C112.2,292,112.8,291,113.3,290.8z M117.9,295.3c-0.1-0.4-0.4-0.8-0.8-1.3c-0.5-0.5-0.9-0.7-1.3-0.7c-0.2,0-0.4,0.1-0.5,0.2
		c-0.1,0.2-0.4,0.9-0.6,2.2c-0.2,1.1-0.4,2.2-0.4,3.2c0,0.3,0,1.1,0.1,2.6c0.3,5.3,0.6,8.8,1.1,10.6c0.1,0.4,0.2,0.6,0.3,0.7
		c0.1,0.1,0.2,0,0.4-0.1c0.3-0.1,0.6-0.5,0.9-1.2c0.3-0.6,0.4-1.2,0.4-1.7c0,0,0-0.1,0-0.2c0-0.1,0-0.1,0-0.2
		c-0.1-0.5-0.4-1-0.8-1.7c-0.4-0.7-0.6-1.3-0.6-1.8c0-0.7,0.5-1.1,1.5-1.1c0.3,0,0.5-0.1,0.6-0.5c0.1-0.3,0.2-1.2,0.4-2.6
		c0-0.2,0.1-0.6,0.1-1.1C118.4,298.8,118.2,296.9,117.9,295.3z"/>
	<path class="st5" d="M129.7,291.3c0.4-0.3,0.8-0.4,1.4-0.4c0.7,0,1.2,0.2,1.6,0.5l0.6,0.5l0.1,5.6c0.1,6.5,0.3,10.9,0.6,13.3
		c0.1,0.5,0.2,0.7,0.3,0.7c0.3,0,0.5-0.9,0.7-2.8c0.4-3.9,0.6-7.8,0.6-11.6v-1v-0.6c0-2.1,0.2-3.3,0.7-3.6c0.1-0.1,0.5-0.2,0.9-0.2
		c0.8,0,1.4,0.1,1.8,0.5c0.5,0.5,0.7,1.7,0.7,3.7c0,1.7-0.1,4.8-0.4,9.4c-0.2,3.8-0.6,6.5-1.2,8.1c-0.6,1.6-1.6,2.6-2.9,3
		c-0.6,0.2-0.9,0.3-1.1,0.3c-0.2,0-0.7-0.2-1.5-0.5c-1.7-0.8-2.6-2-2.8-3.8c-0.2-1.5-0.4-6.4-0.5-14.7c0-1.2-0.1-2.5-0.1-4
		c0-0.9,0-1.6,0.1-1.8C129.4,291.6,129.5,291.4,129.7,291.3z"/>
	<path class="st5" d="M144.7,292.9c0.4-0.4,0.8-0.6,1.4-0.6c0.6,0,1,0.2,1.4,0.6l0.6,0.6l0.3,10.3c0.1,5.7,0.2,9,0.2,9.8
		c0,0.5,0,0.8,0,1.1c0,0.3,0,0.5-0.1,0.7c0,0.2-0.1,0.3-0.1,0.4c-0.1,0.1-0.1,0.2-0.1,0.2s-0.1,0.1-0.2,0.1s-0.2,0.1-0.2,0.1
		c-0.3,0.2-0.6,0.3-0.8,0.3c-0.1,0-0.4-0.1-0.9-0.2c-0.7-0.3-1.1-0.6-1.2-0.8c-0.1-0.1-0.2-3.8-0.3-11c-0.1-7.2-0.1-10.8-0.2-10.9
		C144.2,293.5,144.4,293.3,144.7,292.9z"/>
	<path class="st5" d="M156.4,294.4c0.6-0.6,1-0.9,1.2-1.1c0.2-0.1,0.6-0.2,1.1-0.2c1.4,0,2.1,0.5,2.1,1.4c0,0.8-0.6,1.6-1.8,2.2
		c-0.8,0.4-1.4,2-1.8,4.6c-0.2,1.2-0.3,2.4-0.3,3.7s0.1,2.6,0.2,4c0.1,1.7,0.4,2.9,0.7,3.6s0.9,1.1,1.6,1.2c1.2,0.2,1.9,0.6,2.1,1
		c0,0.1,0.1,0.1,0.1,0.2c0,0.3-0.2,0.6-0.5,0.9c-0.4,0.3-0.8,0.5-1.2,0.6c-0.1,0-0.3,0-0.5,0c-1.1,0-2.1-0.3-3.1-0.8
		c-0.3-0.2-0.7-0.8-1.2-1.6c-0.5-0.9-0.8-1.8-1.1-2.6c-0.3-1.2-0.5-3.4-0.5-6.6c0-1.2,0.1-2.4,0.2-3.5c0.2-1.9,0.6-3.3,1-4.3
		C154.9,296.3,155.5,295.4,156.4,294.4z"/>
	<path class="st5" d="M173.9,292.3c0.4-0.3,0.8-0.5,1.1-0.5c0.2,0,0.6,0.1,1.1,0.4c0.6,0.3,0.9,0.6,0.9,0.9c0,0.4-0.6,1.7-1.8,3.9
		c-0.3,0.6-0.6,1.1-0.9,1.7c-0.3,0.6-0.6,1-0.8,1.3c-0.2,0.3-0.4,0.6-0.6,1c-0.2,0.3-0.3,0.6-0.4,0.7c-0.1,0.2-0.2,0.3-0.2,0.5
		s-0.1,0.3-0.1,0.4c0,0.1-0.1,0.2-0.1,0.2c0,0.4,0.3,0.9,0.8,1.7c0.6,1,0.9,1.5,0.9,1.6s0.2,0.4,0.5,0.9c0.3,0.4,0.7,1,1.1,2.1
		c0.2,0.7,0.6,1.4,1.1,2.1c1.4,2,2.1,3.5,2.1,4.4c0,0.8-0.6,1.3-1.9,1.3h-0.1c-0.8,0-1.3-0.2-1.6-0.4c-0.3-0.2-0.6-0.8-0.9-1.7
		c-0.2-0.6-0.6-1.3-1-2c-0.4-0.7-0.7-1.3-0.9-1.9c-0.3-0.7-0.7-1.6-1.2-2.5c-0.6-0.9-0.9-1.4-1.1-1.4c-0.1,0-0.2,0.3-0.2,1
		c0,1.1,0.1,2.9,0.4,5.4c0.1,0.8,0.1,1.4,0.1,1.8c0,0.5-0.1,0.9-0.3,1c-0.2,0.2-0.7,0.3-1.4,0.4c-0.4,0.1-0.7,0.1-0.7,0.1
		c-0.3,0-0.6-0.2-1-0.6c-0.4-0.4-0.6-1-0.6-1.7c0-0.1,0-0.3,0-0.6c0-0.3,0-0.6,0-0.8c0.1-1.2,0.1-2.7,0.1-4.5c0-2.6,0-5.2-0.1-7.9
		l-0.1-7.5l0.5-0.3c0.2-0.1,0.3-0.1,0.5-0.1c0.2,0,0.6,0.1,1.1,0.4l1,0.5l0.1,3c0.1,2,0.2,3,0.3,3c0.2,0,0.7-0.7,1.5-2.1
		c0.8-1.4,1.4-2.5,1.7-3.2C173,293.3,173.4,292.7,173.9,292.3z"/>
	<path class="st5" d="M195.9,292c0.1,0,0.3,0,0.6,0c1,0,1.6,0.1,1.6,0.2c0,0.1,0.1,0.3,0.3,0.5c0.2,0.5,0.3,0.9,0.3,1.3
		c0,1.2,0.3,3.1,0.8,5.9c0.1,1.1,0.4,2.2,0.6,3.2c0.3,1,0.4,1.5,0.6,1.5c0.1,0,0.1-0.1,0.1-0.4c0-0.8,0.6-1.4,1.9-1.9
		c0.6-0.1,1-0.2,1.2-0.2c0.5,0,0.8,0.2,1.1,0.5c0.3,0.4,0.5,1,0.8,1.9c0.2,0.6,0.3,1,0.4,0.9c0.1-0.1,0.2-0.7,0.5-2
		c0.2-1.3,0.4-2.3,0.5-3c0.1-0.4,0.1-1,0.3-1.8c0.1-0.8,0.2-1.6,0.3-2.4c0.2-1.6,0.3-2.5,0.5-2.8c0.1-0.3,0.5-0.6,1-0.9
		c0.6-0.3,1.1-0.4,1.6-0.4c0.4,0,0.8,0.2,1.1,0.5c0.3,0.3,0.5,0.8,0.5,1.2c0,0,0,0.1,0,0.1c0,0.1,0,0.1,0,0.1
		c-0.8,4.1-1.4,8-1.8,11.9c-0.3,2.7-0.5,4.6-0.7,5.8c-0.2,1.2-0.3,2.2-0.6,3c-0.2,0.9-0.4,1.4-0.6,1.6c-0.2,0.2-0.5,0.3-0.9,0.4
		c-0.1,0-0.4,0-0.7,0c-1,0-1.6-0.2-1.9-0.5c-0.1-0.1-0.3-0.6-0.7-1.5c-0.3-0.8-0.5-1.5-0.7-2c-0.1-0.4-0.2-0.6-0.4-0.6
		c-0.1,0-0.2,0.1-0.2,0.4c0,0.5-0.2,1.2-0.5,1.9c-0.3,0.8-0.7,1.3-1,1.6c-0.4,0.3-0.7,0.5-1,0.5c-0.2,0-0.4,0-0.6-0.1
		c-1-0.2-1.6-0.5-1.9-0.9c-0.3-0.4-0.5-1.3-0.7-2.8c-1.1-7.9-1.9-13.4-2.4-16.4c-0.2-1.2-0.4-2.1-0.4-2.8c0-0.5,0.1-0.8,0.3-1.1
		C195.3,292.2,195.6,292,195.9,292z"/>
	<path class="st5" d="M218.2,292.7l0.8-1.1h5.7l0.9,0.9c0.6,0.6,1,1.3,1.2,2.2c0.2,0.9,0.4,2.3,0.6,4.1c0.1,0.7,0.1,1.7,0.1,3.1
		c0,3.1-0.3,5.9-0.9,8.5c-0.6,2.6-1.3,4.3-2.3,5.2c-0.3,0.3-0.8,0.6-1.3,0.8c-0.6,0.2-1.1,0.3-1.5,0.3c-0.2,0-0.3,0-0.5-0.1
		c-0.2-0.1-0.6-0.2-1-0.2c-0.3,0-0.7-0.2-1.1-0.8c-0.4-0.5-0.7-1.1-1-1.8c-0.4-1.2-0.7-2.5-0.8-3.9c-0.1-1.4-0.2-3.7-0.2-6.8v-2.1
		c0-2.9,0.1-4.8,0.2-5.8C217.3,294.2,217.6,293.3,218.2,292.7z M222.5,294.9c-0.3-0.6-0.5-0.9-0.7-0.9c-0.2,0-0.5,0.5-0.8,1.4
		c-0.2,0.7-0.4,2.1-0.4,4.2c0,1.7,0.1,3.4,0.2,5.2c0.1,1.7,0.3,3.4,0.6,4.9c0.3,1.5,0.5,2.3,0.7,2.3c0.2,0,0.3-0.3,0.4-1
		c0.1-0.5,0.3-1,0.5-1.4c0.1-0.2,0.2-1.5,0.4-4c0.1-1.3,0.1-2.5,0.1-3.6C223.6,298.7,223.2,296.3,222.5,294.9z"/>
	<path class="st5" d="M233.6,291.9c0.6-0.2,1.2-0.3,2.1-0.3c0.9,0,1.6,0.1,2,0.3c0.8,0.3,1.4,1,1.8,1.8c0.2,0.4,0.4,1.2,0.5,2.4
		c0.2,1.2,0.2,2.2,0.2,3.1c0,0.4,0,0.7,0,0.9c-0.1,0.8-0.3,1.6-0.6,2.6c-0.3,1-0.6,1.4-0.7,1.4c-0.2,0-0.4,0.2-0.4,0.6
		c0,0.3,0.1,0.6,0.3,1c0.5,0.7,1.2,2,2.1,3.9c0.9,1.9,1.4,3.1,1.5,3.6c0,0.1,0,0.4,0,0.6c0,0.4-0.1,0.8-0.3,1.1
		c-0.2,0.4-0.5,0.5-0.9,0.5c-0.3,0-0.6,0-0.8,0c-0.8-0.1-1.2-0.2-1.4-0.3c-0.2-0.1-0.3-0.4-0.3-0.7c0-0.6-0.3-1.5-0.9-2.8
		c-0.6-1.2-1.1-1.9-1.4-1.9h-0.1c-0.1,0.1-0.1,0.4-0.1,1c0,0.9,0.1,1.9,0.3,3c0.1,0.5,0.1,0.8,0.1,1c0,1-0.2,1.7-0.7,1.9
		c-0.2,0.1-0.4,0.1-0.8,0.1c-1,0-1.6-0.2-1.8-0.7c-0.2-0.2-0.3-2.3-0.4-6.2c0-1.2-0.1-2.6-0.1-4c0-1.4-0.1-2.5-0.1-3.1
		c0-0.7,0-1.5-0.1-2.6c-0.1-1-0.2-2.2-0.3-3.5c-0.1-1.5-0.2-2.3-0.2-2.6c0-0.7,0.1-1.2,0.3-1.5C232.7,292.3,233.1,292,233.6,291.9z
		 M236.5,295.3c-0.1-0.2-0.3-0.4-0.5-0.4c-0.2,0-0.3,0.1-0.5,0.3c-0.1,0.2-0.1,0.4,0,0.6c0,0,0.1,1,0.2,2.9c0.1,1.9,0.2,2.9,0.3,3
		c0.1,0.1,0.2-0.1,0.5-0.4c0.2-0.3,0.3-0.8,0.3-1.6c0-0.6,0-1.1,0-1.5C236.7,296.6,236.6,295.6,236.5,295.3z"/>
	<path class="st5" d="M254.9,292.3c0.4-0.3,0.8-0.5,1-0.5c0.2,0,0.6,0.1,1.1,0.4c0.6,0.3,0.9,0.6,0.9,0.9c0,0.4-0.6,1.7-1.8,3.9
		c-0.3,0.5-0.6,1.1-0.9,1.7c-0.3,0.6-0.6,1-0.8,1.3c-0.2,0.3-0.4,0.6-0.6,1s-0.3,0.6-0.4,0.7c-0.1,0.2-0.2,0.3-0.2,0.5
		s-0.1,0.3-0.1,0.4c0,0.1,0,0.2,0,0.2c0,0.4,0.3,1,0.8,1.7c0.6,1,0.9,1.5,0.9,1.6s0.2,0.4,0.5,0.9c0.3,0.4,0.7,1.1,1,2.1
		c0.2,0.7,0.6,1.4,1,2.1c1.4,2,2.1,3.5,2.1,4.4c0,0.9-0.6,1.3-1.9,1.3h-0.1c-0.8,0-1.3-0.1-1.5-0.4c-0.3-0.2-0.6-0.8-0.9-1.7
		c-0.2-0.6-0.6-1.3-1-2c-0.4-0.7-0.7-1.4-0.9-1.9c-0.3-0.7-0.7-1.6-1.2-2.5c-0.5-0.9-0.9-1.4-1-1.4c-0.1,0-0.2,0.3-0.2,1
		c0,1.1,0.1,2.9,0.4,5.4c0.1,0.8,0.1,1.4,0.1,1.8c0,0.6-0.1,0.9-0.3,1.1c-0.2,0.1-0.6,0.3-1.4,0.4c-0.4,0.1-0.7,0.1-0.7,0.1
		c-0.3,0-0.6-0.2-1-0.5c-0.4-0.4-0.5-1-0.5-1.7c0-0.1,0-0.3,0-0.6c0-0.3,0-0.6,0-0.8c0.1-1.2,0.1-2.7,0.1-4.5c0-2.6,0-5.2-0.1-7.9
		l-0.1-7.5l0.5-0.3c0.2-0.1,0.3-0.1,0.5-0.1c0.2,0,0.6,0.1,1.1,0.4l1,0.5l0.1,3c0.1,2,0.1,3,0.3,3c0.1,0,0.7-0.7,1.5-2.1
		c0.9-1.4,1.4-2.5,1.7-3.2C254.1,293.3,254.5,292.7,254.9,292.3z"/>
	<path class="st5" d="M265.5,292.7l0.8-1.1h5.7l0.9,0.9c0.6,0.6,1,1.3,1.2,2.2c0.2,0.9,0.4,2.3,0.6,4.1c0.1,0.7,0.1,1.7,0.1,3.1
		c0,3.1-0.3,5.9-0.9,8.5c-0.6,2.6-1.3,4.3-2.3,5.2c-0.3,0.3-0.8,0.6-1.3,0.8c-0.6,0.2-1.1,0.3-1.5,0.3c-0.2,0-0.3,0-0.5-0.1
		c-0.2-0.1-0.6-0.2-1-0.2c-0.3,0-0.7-0.2-1-0.8c-0.4-0.5-0.7-1.1-1-1.8c-0.4-1.2-0.7-2.5-0.8-3.9c-0.1-1.4-0.2-3.7-0.2-6.8v-2.1
		c0-2.9,0.1-4.8,0.2-5.8C264.6,294.2,265,293.3,265.5,292.7z M269.8,294.9c-0.3-0.6-0.5-0.9-0.7-0.9c-0.2,0-0.5,0.5-0.8,1.4
		c-0.2,0.7-0.4,2.1-0.4,4.2c0,1.7,0.1,3.4,0.2,5.2c0.1,1.7,0.3,3.4,0.6,4.9c0.3,1.5,0.5,2.3,0.7,2.3c0.1,0,0.3-0.3,0.4-1
		c0.1-0.5,0.3-1,0.5-1.4c0.1-0.2,0.2-1.5,0.4-4c0.1-1.3,0.1-2.5,0.1-3.6C270.9,298.7,270.5,296.3,269.8,294.9z"/>
	<path class="st5" d="M280,291.3c0.4-0.3,0.8-0.4,1.4-0.4c0.7,0,1.2,0.2,1.6,0.5l0.6,0.5l0.1,5.6c0.1,6.5,0.3,10.9,0.6,13.4
		c0.1,0.5,0.2,0.7,0.3,0.7c0.3,0,0.5-0.9,0.7-2.8c0.4-3.9,0.6-7.8,0.6-11.6v-1v-0.6c0-2.1,0.2-3.3,0.7-3.6c0.2-0.1,0.5-0.2,0.9-0.2
		c0.8,0,1.4,0.1,1.8,0.5c0.5,0.5,0.7,1.7,0.7,3.7c0,1.7-0.1,4.8-0.4,9.4c-0.2,3.8-0.6,6.5-1.2,8.1c-0.6,1.6-1.6,2.6-2.9,3
		c-0.6,0.2-0.9,0.3-1.1,0.3c-0.2,0-0.7-0.2-1.5-0.5c-1.7-0.8-2.6-2-2.8-3.8c-0.2-1.5-0.3-6.4-0.5-14.7c0-1.2,0-2.5,0-4
		c0-0.9,0-1.6,0.1-1.8C279.7,291.6,279.8,291.4,280,291.3z"/>
	<path class="st5" d="M295.6,291.6c0.4-0.4,1.1-0.6,2.1-0.6h1c1.6,0.1,2.6,0.1,3,0.2c0.2,0.1,0.6,0.1,1.3,0.2c0.7,0,1.2,0.2,1.5,0.4
		c0.3,0.2,0.5,0.6,0.5,1.2c0,0.6-0.1,1-0.4,1.2c-0.2,0.2-0.6,0.4-1.1,0.5c-0.6,0.1-1,0.2-1.1,0.3c-0.1,0.2-0.2,3.1-0.2,8.7
		c0,3.9,0.1,6.7,0.1,8.3c0.1,1.3,0.1,2,0.1,2.1c0,0.6-0.1,1.2-0.4,1.6c-0.3,0.6-0.9,0.9-1.6,0.9c-0.5,0-0.9-0.1-1.4-0.4l-0.9-0.5
		l0.1-10.4c0.1-2.7,0.1-5.4,0.1-8.1c0-1.6-0.1-2.5-0.4-2.6c-0.4-0.2-0.6-0.3-0.7-0.2c-0.1,0-0.3,0.1-0.5,0.1c-0.5,0-1-0.2-1.4-0.5
		c-0.4-0.3-0.5-0.7-0.5-1.1C294.8,292.4,295.1,291.9,295.6,291.6z"/>
</g>
</svg>
