<?xml version="1.0" encoding="utf-8"?>
<!-- Generator: Adobe Illustrator 25.1.0, SVG Export Plug-In . SVG Version: 6.00 Build 0)  -->
<svg version="1.1" id="Layer_1" xmlns="http://www.w3.org/2000/svg" xmlns:xlink="http://www.w3.org/1999/xlink" x="0px" y="0px"
	 viewBox="0 0 327.9 155.6" style="enable-background:new 0 0 327.9 155.6;" xml:space="preserve">
<style type="text/css">
	.st0{fill:#FFFFFF;}
	.st1{fill:#808080;}
	.st2{fill:#FF9F1A;}
	.st3{fill:#FFCF8D;}
	.st4{fill:#FFE7C6;}
</style>
<g>
	<g>
		<path class="st0" d="M327.9,109.5c0-107.2-7.6-108.6-137.7-109.4c-28-0.2-70.6,0.2-104.9,0.7C51.5,1.2,11.6,8.9,6.4,19.1
			c-8,15.9-5.9,41.4-5.9,70.6c0,45.9-6.5,56.9,28.2,62.7c35.2,5.9,164.8,2.2,207.3,1.5C280,153.2,327.9,156.3,327.9,109.5z"/>
		<path class="st1" d="M25.5,47.2V37.1h-3.3V36h8v1.1h-3.3v10.1H25.5z"/>
		<path class="st1" d="M33.2,47.4c-0.7,0-1.2-0.1-1.6-0.3s-0.8-0.5-1-0.9s-0.3-0.8-0.3-1.2c0-0.8,0.3-1.4,0.9-1.9
			c0.6-0.4,1.5-0.7,2.5-0.7h2.1v-0.1c0-0.7-0.2-1.2-0.5-1.6c-0.4-0.4-0.8-0.5-1.5-0.5c-0.5,0-1,0.1-1.3,0.4
			c-0.4,0.3-0.6,0.6-0.7,1.1h-1.4c0-0.6,0.2-1.1,0.6-1.5c0.3-0.4,0.8-0.7,1.3-0.9c0.5-0.2,1-0.3,1.6-0.3c1.1,0,1.9,0.3,2.5,0.9
			c0.6,0.6,0.8,1.4,0.8,2.4v4.8H36l-0.1-1.4c-0.2,0.4-0.5,0.8-1,1.1C34.5,47.2,34,47.4,33.2,47.4z M33.4,46.2c0.5,0,1-0.1,1.3-0.4
			c0.4-0.3,0.7-0.6,0.8-1c0.2-0.4,0.3-0.9,0.3-1.3l0,0h-2c-0.8,0-1.4,0.1-1.7,0.4c-0.3,0.3-0.5,0.6-0.5,1s0.1,0.8,0.5,1
			C32.5,46.1,32.9,46.2,33.4,46.2z"/>
		<path class="st1" d="M39.2,47.2V35.6h1.3v6.9l3.2-3.3h1.6l-3.5,3.6l4,4.4h-1.7l-3.5-4.1v4.1H39.2z"/>
		<path class="st1" d="M50.3,47.4c-0.8,0-1.4-0.2-2-0.5c-0.6-0.4-1.1-0.8-1.4-1.4c-0.3-0.6-0.5-1.4-0.5-2.2s0.2-1.6,0.5-2.2
			c0.3-0.6,0.8-1.1,1.4-1.5c0.6-0.4,1.3-0.5,2.1-0.5s1.4,0.2,2,0.5c0.6,0.4,1,0.8,1.3,1.4c0.3,0.6,0.5,1.2,0.5,1.8
			c0,0.1,0,0.2,0,0.3s0,0.2,0,0.4h-6.3c0,0.6,0.2,1.1,0.4,1.5s0.6,0.7,0.9,0.9c0.4,0.2,0.8,0.3,1.2,0.3c0.6,0,1-0.1,1.4-0.4
			c0.4-0.3,0.7-0.6,0.8-1h1.3c-0.2,0.7-0.6,1.4-1.2,1.8C52,47.1,51.2,47.4,50.3,47.4z M50.3,40.2c-0.6,0-1.2,0.2-1.7,0.6
			c-0.5,0.4-0.8,1-0.9,1.7h5c0-0.7-0.3-1.3-0.7-1.7C51.5,40.4,51,40.2,50.3,40.2z"/>
		<path class="st1" d="M62.7,47.4c-0.7,0-1.2-0.1-1.7-0.3c-0.4-0.2-0.8-0.5-1-0.9s-0.3-0.8-0.3-1.2c0-0.8,0.3-1.4,0.9-1.9
			c0.6-0.4,1.5-0.7,2.5-0.7h2.1v-0.1c0-0.7-0.2-1.2-0.5-1.6s-0.8-0.5-1.5-0.5c-0.5,0-1,0.1-1.4,0.4c-0.4,0.3-0.6,0.6-0.7,1.1h-1.4
			c0.1-0.6,0.2-1.1,0.6-1.5c0.3-0.4,0.8-0.7,1.3-0.9s1-0.3,1.6-0.3c1.1,0,1.9,0.3,2.5,0.9c0.6,0.6,0.8,1.4,0.8,2.4v4.8h-1.2
			l-0.1-1.4c-0.2,0.4-0.6,0.8-1,1.1C64,47.2,63.4,47.4,62.7,47.4z M62.9,46.2c0.5,0,0.9-0.1,1.3-0.4c0.4-0.3,0.7-0.6,0.8-1
			c0.2-0.4,0.3-0.9,0.3-1.3l0,0h-2c-0.8,0-1.3,0.1-1.7,0.4c-0.3,0.3-0.5,0.6-0.5,1s0.1,0.8,0.5,1C61.9,46.1,62.4,46.2,62.9,46.2z"/>
		<path class="st1" d="M73,47.2v-7.9h1.2l0.1,1.1c0.3-0.4,0.6-0.8,1-1s0.9-0.3,1.4-0.3c0.6,0,1.2,0.1,1.6,0.4
			c0.5,0.2,0.8,0.6,1.1,1.2c0.3-0.5,0.7-0.9,1.1-1.1c0.5-0.3,1-0.4,1.6-0.4c0.9,0,1.7,0.3,2.3,0.9c0.6,0.6,0.8,1.5,0.8,2.6v4.6h-1.3
			v-4.5c0-0.8-0.2-1.4-0.5-1.9c-0.3-0.4-0.8-0.6-1.4-0.6s-1.2,0.2-1.6,0.7s-0.6,1.2-0.6,2.1v4h-1.3v-4.5c0-0.8-0.2-1.4-0.5-1.9
			s-0.8-0.6-1.4-0.6s-1.2,0.2-1.6,0.7s-0.6,1.2-0.6,2.1v4.2L73,47.2L73,47.2z"/>
		<path class="st1" d="M90.9,47.4c-0.8,0-1.4-0.2-2-0.5s-1.1-0.8-1.4-1.4c-0.3-0.6-0.5-1.4-0.5-2.2s0.2-1.6,0.5-2.2
			c0.3-0.6,0.8-1.1,1.4-1.4c0.6-0.3,1.3-0.5,2-0.5s1.4,0.2,2,0.5s1.1,0.8,1.4,1.4c0.3,0.6,0.5,1.4,0.5,2.2s-0.2,1.6-0.5,2.2
			c-0.3,0.6-0.8,1.1-1.4,1.4C92.3,47.2,91.7,47.4,90.9,47.4z M90.9,46.2c0.5,0,0.9-0.1,1.3-0.3s0.7-0.6,1-1c0.2-0.4,0.4-1,0.4-1.7
			s-0.1-1.2-0.4-1.7c-0.2-0.4-0.6-0.8-0.9-1c-0.4-0.2-0.8-0.3-1.3-0.3s-0.9,0.1-1.3,0.3s-0.7,0.6-1,1s-0.4,1-0.4,1.7
			s0.1,1.2,0.4,1.7c0.2,0.5,0.6,0.8,0.9,1C90,46.1,90.5,46.2,90.9,46.2z"/>
		<path class="st1" d="M96.8,47.2v-7.9H98l0.1,1.1c0.3-0.4,0.6-0.8,1-1s0.9-0.3,1.4-0.3c0.6,0,1.2,0.1,1.6,0.4
			c0.4,0.3,0.8,0.6,1.1,1.2c0.3-0.5,0.7-0.9,1.1-1.1c0.5-0.3,1-0.4,1.6-0.4c1,0,1.7,0.3,2.3,0.9c0.6,0.6,0.9,1.5,0.9,2.6v4.6h-1.3
			v-4.5c0-0.8-0.2-1.4-0.5-1.9c-0.3-0.4-0.8-0.6-1.4-0.6s-1.2,0.2-1.6,0.7s-0.6,1.2-0.6,2.1v4h-1.3v-4.5c0-0.8-0.2-1.4-0.5-1.9
			s-0.8-0.6-1.4-0.6s-1.2,0.2-1.6,0.7c-0.6,0.6-0.8,1.3-0.8,2.2v4.1L96.8,47.2L96.8,47.2z"/>
		<path class="st1" d="M114.7,47.4c-0.8,0-1.4-0.2-2-0.5c-0.6-0.4-1-0.8-1.4-1.4c-0.3-0.6-0.5-1.4-0.5-2.2s0.2-1.6,0.5-2.2
			c0.3-0.6,0.8-1.1,1.4-1.5s1.3-0.5,2.1-0.5c0.8,0,1.4,0.2,2,0.5s1,0.8,1.3,1.4c0.3,0.6,0.4,1.2,0.4,1.8c0,0.1,0,0.2,0,0.3
			s0,0.2,0,0.4h-6.4c0,0.6,0.2,1.1,0.4,1.5c0.2,0.4,0.6,0.7,0.9,0.9c0.4,0.2,0.8,0.3,1.2,0.3c0.6,0,1-0.1,1.4-0.4
			c0.4-0.3,0.7-0.6,0.8-1h1.3c-0.2,0.7-0.6,1.4-1.2,1.8C116.4,47.1,115.6,47.4,114.7,47.4z M114.7,40.2c-0.6,0-1.2,0.2-1.7,0.6
			c-0.5,0.4-0.8,1-0.9,1.7h5c0-0.7-0.3-1.3-0.7-1.7C115.9,40.4,115.3,40.2,114.7,40.2z"/>
		<path class="st1" d="M120.2,47.2v-7.9h1.2l0.1,1.4c0.3-0.5,0.6-0.9,1.1-1.2s1-0.4,1.6-0.4c0.9,0,1.7,0.3,2.2,0.9
			c0.6,0.6,0.8,1.4,0.8,2.6v4.6h-1.3v-4.5c0-1.7-0.7-2.5-2.1-2.5c-0.7,0-1.2,0.2-1.7,0.7s-0.7,1.2-0.7,2.1v4.1L120.2,47.2
			L120.2,47.2z"/>
		<path class="st1" d="M132.5,47.2c-0.7,0-1.3-0.2-1.7-0.5s-0.6-1-0.6-1.9v-4.4h-1.4v-1.1h1.4l0.2-1.9h1.2v1.9h2.3v1.1h-2.3v4.4
			c0,0.5,0.1,0.8,0.3,1s0.6,0.3,1.1,0.3h0.8v1.2L132.5,47.2L132.5,47.2z"/>
		<path class="st1" d="M142.9,47.2c-0.7,0-1.3-0.2-1.7-0.5s-0.6-1-0.6-1.9v-4.4h-1.4v-1.1h1.4l0.2-1.9h1.2v1.9h2.3v1.1H142v4.4
			c0,0.5,0.1,0.8,0.3,1s0.6,0.3,1.1,0.3h0.8v1.2L142.9,47.2L142.9,47.2z"/>
		<path class="st1" d="M149.4,47.4c-0.8,0-1.4-0.2-2-0.5s-1.1-0.8-1.4-1.4c-0.4-0.6-0.5-1.4-0.5-2.2s0.2-1.6,0.5-2.2
			c0.3-0.6,0.8-1.1,1.4-1.4c0.6-0.3,1.3-0.5,2-0.5s1.4,0.2,2,0.5s1.1,0.8,1.4,1.4c0.4,0.6,0.5,1.4,0.5,2.2s-0.2,1.6-0.5,2.2
			c-0.4,0.6-0.8,1.1-1.4,1.4C150.8,47.2,150.1,47.4,149.4,47.4z M149.4,46.2c0.5,0,0.9-0.1,1.3-0.3c0.4-0.2,0.7-0.6,1-1
			c0.2-0.4,0.4-1,0.4-1.7s-0.1-1.2-0.4-1.7c-0.2-0.4-0.6-0.8-0.9-1c-0.4-0.2-0.8-0.3-1.3-0.3s-0.9,0.1-1.3,0.3c-0.4,0.2-0.7,0.6-1,1
			s-0.4,1-0.4,1.7s0.1,1.2,0.4,1.7c0.2,0.5,0.6,0.8,0.9,1C148.5,46.1,148.9,46.2,149.4,46.2z"/>
		<path class="st1" d="M25.5,107.3c-0.7,0-1.2-0.1-1.7-0.3c-0.4-0.2-0.8-0.5-1-0.9s-0.3-0.8-0.3-1.2c0-0.8,0.3-1.4,0.9-1.9
			c0.6-0.4,1.5-0.7,2.5-0.7h2.2v-0.1c0-0.7-0.2-1.2-0.5-1.6c-0.4-0.4-0.8-0.5-1.5-0.5c-0.5,0-1,0.1-1.3,0.4
			c-0.4,0.3-0.6,0.6-0.7,1.1h-1.4c0-0.6,0.2-1.1,0.6-1.5c0.3-0.4,0.8-0.7,1.3-0.9c0.5-0.2,1-0.3,1.6-0.3c1.1,0,1.9,0.3,2.5,0.9
			s0.8,1.4,0.8,2.4v4.9h-1.2l-0.1-1.4c-0.2,0.4-0.5,0.8-1,1.1C26.8,107.2,26.2,107.3,25.5,107.3z M25.7,106.2c0.5,0,1-0.1,1.3-0.4
			c0.4-0.3,0.7-0.6,0.8-1c0.2-0.4,0.3-0.9,0.3-1.3l0,0h-2c-0.8,0-1.3,0.1-1.7,0.4c-0.3,0.3-0.5,0.6-0.5,1s0.2,0.8,0.5,1
			C24.7,106,25.1,106.2,25.7,106.2z"/>
		<path class="st1" d="M31.5,107.1v-7.9h1.2l0.1,1.5c0.2-0.5,0.6-0.9,1.1-1.2c0.5-0.3,1.1-0.5,1.9-0.5v1.4h-0.4
			c-0.5,0-0.9,0.1-1.3,0.2c-0.4,0.2-0.7,0.4-0.9,0.8s-0.3,0.9-0.3,1.6v4L31.5,107.1L31.5,107.1z"/>
		<path class="st1" d="M40.5,107.3c-0.8,0-1.4-0.2-2-0.5s-1-0.8-1.4-1.4c-0.3-0.6-0.5-1.4-0.5-2.2c0-0.8,0.2-1.6,0.5-2.2
			s0.8-1.1,1.4-1.5c0.6-0.3,1.3-0.5,2.1-0.5s1.4,0.2,2,0.5c0.6,0.4,1,0.8,1.3,1.4s0.5,1.2,0.5,1.8c0,0.1,0,0.2,0,0.4
			c0,0.1,0,0.2,0,0.4h-6.3c0,0.6,0.2,1.1,0.4,1.5s0.6,0.7,0.9,0.9c0.4,0.2,0.8,0.3,1.2,0.3c0.5,0,1-0.1,1.4-0.4s0.7-0.6,0.8-1h1.3
			c-0.2,0.7-0.6,1.4-1.2,1.8C42.3,107.1,41.5,107.3,40.5,107.3z M40.5,100.1c-0.6,0-1.2,0.2-1.7,0.6s-0.8,1-0.9,1.7h5
			c0-0.7-0.3-1.3-0.7-1.7C41.8,100.3,41.2,100.1,40.5,100.1z"/>
		<path class="st1" d="M48.7,107.3c-0.7,0-1.2-0.1-1.7-0.3c-0.4-0.2-0.8-0.5-1-0.9s-0.3-0.8-0.3-1.2c0-0.8,0.3-1.4,0.9-1.9
			s1.5-0.7,2.5-0.7h2.1v-0.1c0-0.7-0.2-1.2-0.5-1.6c-0.4-0.4-0.8-0.5-1.5-0.5c-0.5,0-1,0.1-1.3,0.4c-0.4,0.3-0.6,0.6-0.7,1.1h-1.4
			c0-0.6,0.2-1.1,0.6-1.5c0.3-0.4,0.8-0.7,1.3-0.9c0.5-0.2,1-0.3,1.6-0.3c1.1,0,1.9,0.3,2.5,0.9s0.8,1.4,0.8,2.4v4.9h-1.2l-0.1-1.4
			c-0.2,0.4-0.6,0.8-1,1.1C50,107.2,49.4,107.3,48.7,107.3z M48.9,106.2c0.5,0,0.9-0.1,1.3-0.4c0.4-0.3,0.6-0.6,0.8-1
			s0.3-0.9,0.3-1.3l0,0h-2c-0.8,0-1.3,0.1-1.7,0.4s-0.5,0.6-0.5,1s0.2,0.8,0.5,1C47.9,106,48.4,106.2,48.9,106.2z"/>
		<path class="st1" d="M57.8,107.3c-0.9,0-1.7-0.2-2.4-0.7c-0.6-0.5-1-1.1-1.1-1.9h1.4c0.1,0.4,0.3,0.8,0.7,1.1
			c0.3,0.3,0.8,0.5,1.4,0.5c0.6,0,1-0.1,1.2-0.4c0.3-0.2,0.4-0.5,0.4-0.9c0-0.5-0.2-0.8-0.5-1s-0.8-0.3-1.5-0.4
			c-0.4-0.1-0.9-0.2-1.3-0.4c-0.4-0.2-0.8-0.4-1.1-0.7c-0.3-0.3-0.4-0.7-0.4-1.2c0-0.7,0.3-1.3,0.8-1.7c0.5-0.4,1.2-0.7,2.1-0.7
			c0.8,0,1.5,0.2,2.1,0.6c0.5,0.4,0.8,1,0.9,1.8h-1.3c-0.1-0.4-0.2-0.7-0.5-0.9s-0.7-0.3-1.2-0.3s-0.8,0.1-1.1,0.3
			c-0.3,0.2-0.4,0.5-0.4,0.8s0.2,0.6,0.5,0.8c0.3,0.2,0.8,0.3,1.4,0.5c0.5,0.1,1,0.2,1.4,0.4s0.8,0.4,1.1,0.7
			c0.3,0.3,0.4,0.7,0.4,1.3c0,0.7-0.3,1.3-0.8,1.8C59.5,107.1,58.7,107.3,57.8,107.3z"/>
		<path class="st1" d="M70.6,107.3c-0.8,0-1.4-0.2-2-0.5s-1.1-0.8-1.4-1.5c-0.3-0.6-0.5-1.4-0.5-2.2s0.2-1.6,0.5-2.2
			s0.8-1.1,1.4-1.4s1.3-0.5,2-0.5c0.8,0,1.4,0.2,2,0.5s1.1,0.8,1.4,1.4s0.5,1.4,0.5,2.2s-0.2,1.6-0.5,2.2s-0.8,1.1-1.4,1.5
			C72,107.1,71.3,107.3,70.6,107.3z M70.6,106.2c0.5,0,0.9-0.1,1.3-0.3c0.4-0.2,0.7-0.6,1-1c0.2-0.5,0.4-1,0.4-1.7s-0.1-1.2-0.4-1.7
			s-0.6-0.8-0.9-1c-0.4-0.2-0.8-0.3-1.3-0.3s-0.9,0.1-1.3,0.3c-0.4,0.2-0.7,0.6-1,1s-0.4,1-0.4,1.7s0.1,1.2,0.4,1.7
			c0.2,0.4,0.6,0.8,0.9,1C69.7,106,70.1,106.2,70.6,106.2z"/>
		<path class="st1" d="M76.9,107.1v-6.8h-1.2v-1.1h1.2v-1.4c0-0.8,0.2-1.3,0.6-1.7c0.4-0.4,0.9-0.5,1.7-0.5H80v1.1h-0.6
			c-0.4,0-0.7,0.1-0.9,0.2s-0.3,0.4-0.3,0.8V99h2v1.1h-2v6.8L76.9,107.1L76.9,107.1z"/>
		<path class="st1" d="M86.9,110.6l2-4.3h-0.5l-3.2-7.2h1.5l2.6,6.2l2.8-6.2h1.4l-5.2,11.5H86.9L86.9,110.6z"/>
		<path class="st1" d="M97.8,107.3c-0.8,0-1.4-0.2-2-0.5s-1.1-0.8-1.4-1.5c-0.3-0.6-0.5-1.4-0.5-2.2s0.2-1.6,0.5-2.2
			s0.8-1.1,1.4-1.4s1.3-0.5,2-0.5s1.4,0.2,2,0.5s1.1,0.8,1.4,1.4s0.5,1.4,0.5,2.2s-0.2,1.6-0.5,2.2s-0.8,1.1-1.4,1.5
			C99.2,107.1,98.5,107.3,97.8,107.3z M97.8,106.2c0.5,0,0.9-0.1,1.3-0.3c0.4-0.2,0.7-0.6,1-1c0.2-0.5,0.4-1,0.4-1.7
			s-0.1-1.2-0.4-1.7c-0.2-0.4-0.6-0.8-0.9-1c-0.4-0.2-0.8-0.3-1.3-0.3s-0.9,0.1-1.3,0.3c-0.4,0.2-0.7,0.6-1,1s-0.4,1-0.4,1.7
			s0.1,1.2,0.4,1.7c0.2,0.4,0.6,0.8,0.9,1C96.9,106,97.3,106.2,97.8,106.2z"/>
		<path class="st1" d="M106.5,107.3c-0.9,0-1.7-0.3-2.2-0.9c-0.6-0.6-0.8-1.4-0.8-2.6v-4.6h1.3v4.5c0,1.7,0.7,2.5,2,2.5
			c0.7,0,1.3-0.2,1.7-0.7c0.4-0.5,0.7-1.2,0.7-2.1v-4.1h1.3v7.9h-1.2l-0.1-1.4c-0.2,0.5-0.6,0.9-1.1,1.2
			C107.7,107.2,107.1,107.3,106.5,107.3z"/>
		<path class="st1" d="M112.8,107.1v-7.9h1.2l0.1,1.5c0.2-0.5,0.6-0.9,1.1-1.2c0.5-0.3,1.1-0.5,1.9-0.5v1.4h-0.4
			c-0.5,0-0.9,0.1-1.3,0.2c-0.4,0.2-0.7,0.4-0.9,0.8s-0.4,0.9-0.4,1.6v4L112.8,107.1L112.8,107.1z"/>
		<path class="st1" d="M126.4,107.3c-0.8,0-1.5-0.2-2.1-0.5c-0.6-0.4-1.1-0.9-1.4-1.5s-0.5-1.3-0.5-2.1s0.2-1.5,0.5-2.1
			s0.8-1.1,1.4-1.5s1.3-0.5,2.1-0.5c0.6,0,1.2,0.1,1.7,0.4s0.9,0.6,1.2,1.1v-4.9h1.3v11.4h-1.2l-0.1-1.3c-0.3,0.4-0.6,0.7-1.1,1
			C127.8,107.2,127.2,107.3,126.4,107.3z M126.6,106.1c0.5,0,1-0.1,1.4-0.4c0.4-0.2,0.7-0.6,1-1.1c0.2-0.4,0.3-1,0.3-1.6
			s-0.1-1.1-0.3-1.6s-0.6-0.8-1-1.1c-0.4-0.2-0.9-0.4-1.4-0.4s-1,0.1-1.4,0.4s-0.7,0.6-1,1.1c-0.2,0.4-0.3,1-0.3,1.6
			s0.1,1.1,0.3,1.6c0.2,0.5,0.6,0.8,1,1.1S126.1,106.1,126.6,106.1z"/>
		<path class="st1" d="M135.5,107.3c-0.7,0-1.2-0.1-1.6-0.3c-0.4-0.2-0.8-0.5-1-0.9s-0.3-0.8-0.3-1.2c0-0.8,0.3-1.4,0.9-1.9
			c0.6-0.4,1.5-0.7,2.5-0.7h2.1v-0.1c0-0.7-0.2-1.2-0.5-1.6s-0.9-0.5-1.5-0.5c-0.5,0-1,0.1-1.4,0.4s-0.6,0.6-0.7,1.1h-1.4
			c0-0.6,0.2-1.1,0.6-1.5c0.3-0.4,0.8-0.7,1.3-0.9c0.5-0.2,1-0.3,1.6-0.3c1.1,0,1.9,0.3,2.5,0.9s0.8,1.4,0.8,2.4v4.9h-1.2l-0.1-1.4
			c-0.2,0.4-0.6,0.8-1,1.1C136.8,107.2,136.2,107.3,135.5,107.3z M135.7,106.2c0.5,0,0.9-0.1,1.3-0.4c0.4-0.3,0.7-0.6,0.8-1
			c0.2-0.4,0.3-0.9,0.3-1.3l0,0h-2c-0.8,0-1.4,0.1-1.7,0.4s-0.5,0.6-0.5,1s0.1,0.8,0.5,1C134.7,106,135.2,106.2,135.7,106.2z"/>
		<path class="st1" d="M142.2,110.6l2-4.3h-0.5l-3.2-7.2h1.5l2.6,6.2l2.8-6.2h1.4l-5.2,11.5H142.2z"/>
		<path class="st1" d="M157.6,107.1c-0.7,0-1.3-0.2-1.7-0.5c-0.4-0.4-0.6-1-0.6-1.9v-4.4h-1.4v-1.1h1.4l0.2-1.9h1.2v1.9h2.3v1.1
			h-2.3v4.4c0,0.5,0.1,0.8,0.3,1s0.6,0.3,1.1,0.3h0.8v1.2L157.6,107.1L157.6,107.1z"/>
		<path class="st1" d="M160.6,107.1V95.6h1.3v4.9c0.3-0.5,0.7-0.9,1.1-1.1c0.5-0.3,1-0.4,1.6-0.4c0.9,0,1.6,0.3,2.2,0.9
			c0.5,0.6,0.8,1.4,0.8,2.6v4.6h-1.3v-4.5c0-1.7-0.7-2.5-2-2.5c-0.7,0-1.3,0.2-1.7,0.7c-0.5,0.5-0.7,1.2-0.7,2.1v4.1L160.6,107.1
			L160.6,107.1z"/>
		<path class="st1" d="M172.4,107.3c-0.7,0-1.2-0.1-1.7-0.3c-0.4-0.2-0.8-0.5-1-0.9s-0.3-0.8-0.3-1.2c0-0.8,0.3-1.4,0.9-1.9
			c0.6-0.4,1.5-0.7,2.5-0.7h2.1v-0.1c0-0.7-0.2-1.2-0.5-1.6c-0.4-0.4-0.8-0.5-1.5-0.5c-0.5,0-1,0.1-1.4,0.4s-0.6,0.6-0.7,1.1h-1.4
			c0.1-0.6,0.2-1.1,0.6-1.5c0.3-0.4,0.8-0.7,1.3-0.9c0.5-0.2,1-0.3,1.6-0.3c1.1,0,1.9,0.3,2.5,0.9s0.8,1.4,0.8,2.4v4.9H175l-0.1-1.4
			c-0.2,0.4-0.6,0.8-1,1.1C173.7,107.2,173.1,107.3,172.4,107.3z M172.6,106.2c0.5,0,0.9-0.1,1.3-0.4c0.4-0.3,0.6-0.6,0.8-1
			s0.3-0.9,0.3-1.3l0,0h-2c-0.8,0-1.3,0.1-1.7,0.4c-0.3,0.3-0.5,0.6-0.5,1s0.2,0.8,0.5,1C171.6,106,172.1,106.2,172.6,106.2z"/>
		<path class="st1" d="M181.3,107.1c-0.7,0-1.3-0.2-1.7-0.5c-0.4-0.4-0.6-1-0.6-1.9v-4.4h-1.4v-1.1h1.4l0.2-1.9h1.2v1.9h2.3v1.1
			h-2.3v4.4c0,0.5,0.1,0.8,0.3,1s0.6,0.3,1.1,0.3h0.8v1.2L181.3,107.1L181.3,107.1z"/>
		<path class="st1" d="M23.7,132.6l2-4.3h-0.5l-3.2-7.2h1.5l2.6,6.2l2.8-6.2h1.4l-5.2,11.5H23.7z"/>
		<path class="st1" d="M34.6,129.3c-0.8,0-1.4-0.2-2-0.5s-1.1-0.8-1.4-1.5c-0.4-0.6-0.5-1.4-0.5-2.2s0.2-1.6,0.5-2.2
			c0.4-0.6,0.8-1.1,1.4-1.4s1.3-0.5,2-0.5c0.8,0,1.4,0.2,2,0.5s1.1,0.8,1.4,1.4c0.4,0.6,0.5,1.4,0.5,2.2s-0.2,1.6-0.5,2.2
			s-0.8,1.1-1.4,1.5C36,129.1,35.3,129.3,34.6,129.3z M34.6,128.2c0.5,0,0.9-0.1,1.3-0.3c0.4-0.2,0.7-0.6,1-1c0.2-0.5,0.4-1,0.4-1.7
			s-0.1-1.2-0.4-1.7c-0.2-0.4-0.6-0.8-1-1s-0.8-0.3-1.3-0.3s-0.9,0.1-1.3,0.3c-0.4,0.2-0.7,0.6-1,1c-0.3,0.4-0.4,1-0.4,1.7
			s0.1,1.2,0.4,1.7c0.2,0.4,0.6,0.8,1,1C33.7,128,34.1,128.2,34.6,128.2z"/>
		<path class="st1" d="M43.3,129.3c-0.9,0-1.7-0.3-2.2-0.9c-0.5-0.6-0.8-1.4-0.8-2.6v-4.6h1.3v4.5c0,1.7,0.7,2.5,2,2.5
			c0.7,0,1.3-0.2,1.7-0.7s0.7-1.2,0.7-2.1v-4.1h1.3v7.9h-1.2l-0.1-1.4c-0.2,0.5-0.6,0.9-1.1,1.2C44.5,129.2,43.9,129.3,43.3,129.3z"
			/>
		<path class="st1" d="M57.5,129.3c-0.8,0-1.4-0.2-2-0.5s-1.1-0.8-1.4-1.5c-0.3-0.6-0.5-1.4-0.5-2.2s0.2-1.6,0.5-2.2
			s0.8-1.1,1.4-1.5c0.6-0.3,1.3-0.5,2-0.5c0.9,0,1.7,0.2,2.4,0.7c0.6,0.5,1,1.1,1.2,2h-1.4c-0.1-0.5-0.4-0.9-0.8-1.1
			c-0.4-0.3-0.9-0.4-1.5-0.4c-0.5,0-0.9,0.1-1.3,0.3c-0.4,0.2-0.7,0.6-1,1s-0.4,1-0.4,1.7s0.1,1.2,0.4,1.7s0.6,0.8,1,1
			s0.8,0.3,1.3,0.3s1-0.1,1.5-0.4c0.4-0.3,0.7-0.7,0.8-1.2h1.4c-0.2,0.8-0.6,1.4-1.2,1.9C59.2,129.1,58.4,129.3,57.5,129.3z"/>
		<path class="st1" d="M66.6,129.3c-0.8,0-1.4-0.2-2-0.5s-1.1-0.8-1.4-1.5c-0.3-0.6-0.5-1.4-0.5-2.2s0.2-1.6,0.5-2.2
			s0.8-1.1,1.4-1.4c0.6-0.3,1.3-0.5,2-0.5s1.4,0.2,2,0.5s1.1,0.8,1.4,1.4s0.5,1.4,0.5,2.2s-0.2,1.6-0.5,2.2
			c-0.4,0.6-0.8,1.1-1.4,1.5C68,129.1,67.3,129.3,66.6,129.3z M66.6,128.2c0.5,0,0.9-0.1,1.3-0.3s0.7-0.6,1-1c0.2-0.5,0.4-1,0.4-1.7
			s-0.1-1.2-0.4-1.7c-0.2-0.4-0.6-0.8-0.9-1c-0.4-0.2-0.8-0.3-1.3-0.3s-0.9,0.1-1.3,0.3c-0.4,0.2-0.7,0.6-1,1s-0.4,1-0.4,1.7
			s0.1,1.2,0.4,1.7c0.2,0.4,0.6,0.8,0.9,1S66.1,128.2,66.6,128.2z"/>
		<path class="st1" d="M75.3,129.3c-0.9,0-1.7-0.3-2.2-0.9c-0.5-0.6-0.8-1.4-0.8-2.6v-4.6h1.3v4.5c0,1.7,0.7,2.5,2,2.5
			c0.7,0,1.3-0.2,1.7-0.7c0.5-0.5,0.7-1.2,0.7-2.1v-4.1h1.3v7.9h-1.2l-0.1-1.4c-0.2,0.5-0.6,0.9-1.1,1.2
			C76.5,129.2,75.9,129.3,75.3,129.3z"/>
		<path class="st1" d="M81.6,129.1v-11.5h1.3v11.5H81.6z"/>
		<path class="st1" d="M88.7,129.3c-0.8,0-1.5-0.2-2.1-0.5c-0.6-0.4-1.1-0.9-1.4-1.5s-0.5-1.3-0.5-2.1s0.2-1.5,0.5-2.1
			s0.8-1.1,1.4-1.5s1.3-0.5,2.1-0.5c0.7,0,1.2,0.1,1.7,0.4s0.9,0.6,1.2,1.1v-4.9h1.3v11.4h-1.2l-0.1-1.3c-0.3,0.4-0.6,0.7-1.1,1
			C90,129.2,89.4,129.3,88.7,129.3z M88.9,128.1c0.5,0,1-0.1,1.4-0.4c0.4-0.2,0.7-0.6,1-1.1c0.2-0.4,0.3-1,0.3-1.6s-0.1-1.1-0.3-1.6
			c-0.2-0.4-0.6-0.8-1-1.1c-0.4-0.2-0.9-0.4-1.4-0.4s-1,0.1-1.4,0.4c-0.4,0.2-0.7,0.6-1,1.1c-0.2,0.4-0.3,1-0.3,1.6s0.1,1.1,0.3,1.6
			c0.2,0.5,0.5,0.8,1,1.1C87.9,128,88.3,128.1,88.9,128.1z"/>
		<path class="st1" d="M103.6,129.3c-0.7,0-1.2-0.1-1.7-0.4c-0.5-0.3-0.9-0.6-1.2-1.1l-0.1,1.3h-1.2v-11.5h1.3v4.9
			c0.3-0.4,0.6-0.7,1.1-1s1.1-0.5,1.8-0.5c0.8,0,1.5,0.2,2.1,0.5c0.6,0.4,1,0.9,1.4,1.5c0.3,0.6,0.5,1.3,0.5,2.1
			c0,0.8-0.2,1.5-0.5,2.1s-0.8,1.1-1.4,1.5C105.1,129.1,104.4,129.3,103.6,129.3z M103.5,128.1c0.5,0,1-0.1,1.4-0.4
			c0.4-0.2,0.7-0.6,1-1.1c0.2-0.4,0.3-1,0.3-1.6s-0.1-1.1-0.3-1.6c-0.2-0.4-0.6-0.8-1-1.1c-0.4-0.2-0.9-0.4-1.4-0.4s-1,0.1-1.4,0.4
			s-0.7,0.6-1,1.1c-0.2,0.4-0.3,1-0.3,1.6s0.1,1.1,0.3,1.6c0.2,0.5,0.5,0.8,1,1.1S103,128.1,103.5,128.1z"/>
		<path class="st1" d="M113,129.3c-0.8,0-1.4-0.2-2-0.5s-1.1-0.8-1.4-1.4s-0.5-1.4-0.5-2.2c0-0.8,0.2-1.6,0.5-2.2s0.8-1.1,1.4-1.5
			c0.6-0.3,1.3-0.5,2.1-0.5c0.8,0,1.4,0.2,2,0.5c0.6,0.4,1,0.8,1.3,1.4s0.4,1.2,0.4,1.8c0,0.1,0,0.2,0,0.4c0,0.1,0,0.2,0,0.4h-6.3
			c0,0.6,0.2,1.1,0.4,1.5c0.2,0.4,0.6,0.7,0.9,0.9s0.8,0.3,1.2,0.3c0.6,0,1-0.1,1.4-0.4c0.4-0.3,0.6-0.6,0.8-1h1.3
			c-0.2,0.7-0.6,1.4-1.2,1.8C114.7,129.1,114,129.3,113,129.3z M113,122.1c-0.6,0-1.2,0.2-1.7,0.6s-0.8,1-0.9,1.7h5
			c0-0.7-0.3-1.3-0.7-1.7C114.3,122.3,113.7,122.1,113,122.1z"/>
		<path class="st1" d="M122.8,129.1v-7.9h1.2l0.1,1.1c0.3-0.4,0.6-0.8,1-1s0.9-0.4,1.4-0.4c0.6,0,1.2,0.1,1.6,0.4
			c0.4,0.3,0.8,0.6,1,1.2c0.3-0.5,0.7-0.9,1.1-1.1c0.5-0.3,1-0.4,1.6-0.4c1,0,1.7,0.3,2.3,0.9s0.9,1.4,0.9,2.6v4.6h-1.3v-4.5
			c0-0.8-0.2-1.4-0.5-1.9c-0.3-0.4-0.8-0.6-1.4-0.6c-0.6,0-1.2,0.2-1.6,0.7c-0.4,0.5-0.6,1.2-0.6,2.1v4.1h-1.3v-4.5
			c0-0.8-0.2-1.4-0.5-1.9c-0.3-0.4-0.8-0.6-1.4-0.6s-1.2,0.2-1.6,0.7s-0.6,1.2-0.6,2.1v4.1L122.8,129.1L122.8,129.1z"/>
		<path class="st1" d="M140.7,129.3c-0.8,0-1.4-0.2-2-0.5s-1.1-0.8-1.4-1.5c-0.3-0.6-0.5-1.4-0.5-2.2s0.2-1.6,0.5-2.2
			s0.8-1.1,1.4-1.4s1.3-0.5,2-0.5s1.4,0.2,2,0.5s1.1,0.8,1.4,1.4c0.3,0.6,0.5,1.4,0.5,2.2s-0.2,1.6-0.5,2.2s-0.8,1.1-1.4,1.5
			C142.2,129.1,141.5,129.3,140.7,129.3z M140.7,128.2c0.5,0,0.9-0.1,1.3-0.3c0.4-0.2,0.7-0.6,1-1c0.2-0.5,0.4-1,0.4-1.7
			s-0.1-1.2-0.4-1.7c-0.2-0.4-0.6-0.8-0.9-1c-0.4-0.2-0.8-0.3-1.3-0.3s-0.9,0.1-1.3,0.3c-0.4,0.2-0.7,0.6-1,1s-0.4,1-0.4,1.7
			s0.1,1.2,0.4,1.7c0.2,0.4,0.6,0.8,0.9,1C139.9,128,140.3,128.2,140.7,128.2z"/>
		<path class="st1" d="M146.6,129.1v-7.9h1.2l0.1,1.5c0.2-0.5,0.6-0.9,1.1-1.2c0.5-0.3,1.1-0.5,1.9-0.5v1.4h-0.4
			c-0.5,0-0.9,0.1-1.3,0.2c-0.4,0.2-0.7,0.4-0.9,0.8s-0.3,0.9-0.3,1.6v4h-1.4V129.1z"/>
		<path class="st1" d="M155.7,129.3c-0.8,0-1.4-0.2-2-0.5s-1.1-0.8-1.4-1.4c-0.3-0.6-0.5-1.4-0.5-2.2c0-0.8,0.2-1.6,0.5-2.2
			s0.8-1.1,1.4-1.5c0.6-0.3,1.3-0.5,2.1-0.5s1.4,0.2,2,0.5c0.6,0.4,1,0.8,1.3,1.4s0.4,1.2,0.4,1.8c0,0.1,0,0.2,0,0.4
			c0,0.1,0,0.2,0,0.4h-6.4c0,0.6,0.2,1.1,0.4,1.5s0.6,0.7,0.9,0.9c0.4,0.2,0.8,0.3,1.2,0.3c0.5,0,1-0.1,1.4-0.4
			c0.4-0.3,0.6-0.6,0.8-1h1.3c-0.2,0.7-0.6,1.4-1.2,1.8C157.4,129.1,156.6,129.3,155.7,129.3z M155.7,122.1c-0.6,0-1.2,0.2-1.7,0.6
			s-0.8,1-0.9,1.7h5c0-0.7-0.3-1.3-0.7-1.7C156.9,122.3,156.3,122.1,155.7,122.1z"/>
		<path class="st1" d="M168.1,129.3c-0.7,0-1.2-0.1-1.6-0.3c-0.4-0.2-0.8-0.5-1-0.9c-0.2-0.4-0.3-0.8-0.3-1.2c0-0.8,0.3-1.4,0.9-1.9
			c0.6-0.4,1.5-0.7,2.5-0.7h2.1v-0.1c0-0.7-0.2-1.2-0.5-1.6s-0.8-0.5-1.5-0.5c-0.5,0-1,0.1-1.4,0.4s-0.6,0.6-0.7,1.1h-1.4
			c0.1-0.6,0.2-1.1,0.6-1.5c0.3-0.4,0.8-0.7,1.3-0.9c0.5-0.2,1-0.3,1.6-0.3c1.1,0,1.9,0.3,2.5,0.9s0.8,1.4,0.8,2.4v4.9h-1.2
			l-0.1-1.4c-0.2,0.4-0.6,0.8-1,1.1C169.4,129.2,168.8,129.3,168.1,129.3z M168.3,128.2c0.5,0,0.9-0.1,1.3-0.4
			c0.4-0.3,0.7-0.6,0.8-1c0.2-0.4,0.3-0.9,0.3-1.3l0,0h-2c-0.8,0-1.4,0.1-1.7,0.4s-0.5,0.6-0.5,1s0.2,0.8,0.5,1
			C167.3,128,167.7,128.2,168.3,128.2z"/>
		<path class="st1" d="M177.7,129.3c-0.8,0-1.4-0.2-2-0.5s-1.1-0.8-1.4-1.5c-0.3-0.6-0.5-1.4-0.5-2.2s0.2-1.6,0.5-2.2
			s0.8-1.1,1.4-1.5c0.6-0.3,1.3-0.5,2-0.5c0.9,0,1.7,0.2,2.4,0.7s1.1,1.1,1.2,2h-1.4c-0.1-0.5-0.4-0.9-0.8-1.1
			c-0.4-0.3-0.9-0.4-1.5-0.4c-0.5,0-0.9,0.1-1.3,0.3c-0.4,0.2-0.7,0.6-1,1s-0.4,1-0.4,1.7s0.1,1.2,0.4,1.7s0.6,0.8,1,1
			s0.8,0.3,1.3,0.3s1-0.1,1.5-0.4c0.4-0.3,0.7-0.7,0.8-1.2h1.4c-0.2,0.8-0.6,1.4-1.2,1.9C179.5,129.1,178.7,129.3,177.7,129.3z"/>
		<path class="st1" d="M186.1,129.1c-0.7,0-1.3-0.2-1.7-0.5c-0.4-0.4-0.6-1-0.6-1.9v-4.4h-1.4v-1.1h1.4l0.2-1.9h1.2v1.9h2.3v1.1
			h-2.4v4.4c0,0.5,0.1,0.8,0.3,1s0.6,0.3,1.1,0.3h0.8v1.2h-1.2V129.1z"/>
		<path class="st1" d="M190,119.4c-0.3,0-0.5-0.1-0.7-0.3c-0.2-0.2-0.3-0.4-0.3-0.7c0-0.3,0.1-0.5,0.3-0.6c0.2-0.2,0.4-0.3,0.7-0.3
			s0.5,0.1,0.7,0.3c0.2,0.2,0.3,0.4,0.3,0.6c0,0.3-0.1,0.5-0.3,0.7S190.3,119.4,190,119.4z M189.3,129.1v-7.9h1.3v7.9H189.3z"/>
		<path class="st1" d="M195.3,129.1l-3-7.9h1.4l2.4,6.6l2.4-6.6h1.4l-3,7.9H195.3z"/>
		<path class="st1" d="M204.5,129.3c-0.8,0-1.4-0.2-2-0.5s-1.1-0.8-1.4-1.4c-0.3-0.6-0.5-1.4-0.5-2.2c0-0.8,0.2-1.6,0.5-2.2
			s0.8-1.1,1.4-1.5c0.6-0.3,1.3-0.5,2.1-0.5s1.4,0.2,2,0.5c0.6,0.4,1,0.8,1.3,1.4s0.4,1.2,0.4,1.8c0,0.1,0,0.2,0,0.4
			c0,0.1,0,0.2,0,0.4H202c0,0.6,0.2,1.1,0.4,1.5s0.6,0.7,0.9,0.9c0.4,0.2,0.8,0.3,1.2,0.3c0.6,0,1-0.1,1.4-0.4
			c0.4-0.3,0.6-0.6,0.8-1h1.3c-0.2,0.7-0.6,1.4-1.2,1.8C206.2,129.1,205.4,129.3,204.5,129.3z M204.5,122.1c-0.6,0-1.2,0.2-1.7,0.6
			s-0.8,1-0.9,1.7h5c0-0.7-0.3-1.3-0.7-1.7C205.7,122.3,205.2,122.1,204.5,122.1z"/>
		<path class="st1" d="M210.5,129.2c-0.3,0-0.5-0.1-0.7-0.3s-0.3-0.4-0.3-0.6c0-0.3,0.1-0.5,0.3-0.7s0.4-0.3,0.7-0.3
			s0.5,0.1,0.6,0.3c0.2,0.2,0.3,0.4,0.3,0.7c0,0.3-0.1,0.5-0.3,0.6C211,129.1,210.8,129.2,210.5,129.2z"/>
		<path class="st2" d="M34.2,59.2c0.4-0.1,0.6-0.1,0.8-0.1c0.5,0,1,0.1,1.4,0.4c0.4,0.3,0.6,0.6,0.6,1c0,0.2-0.2,0.9-0.5,1.9
			c-0.3,0.9-0.7,2.5-1.1,4.9c-0.5,2.2-0.7,3.3-0.8,3.5c-0.3,0.4-0.8,3.3-1.6,8.6c-0.4,3.1-0.8,4.9-1.2,5.3c-0.4,0.5-1,0.7-1.7,0.7
			c-0.3,0-0.6-0.1-0.9-0.1c-0.8-0.2-1.3-0.6-1.5-1.2c-0.2-0.5-0.4-1.9-0.6-4.1c-0.5-5.3-1-8.8-1.3-10.5c-0.1-0.5-0.2-1.6-0.5-3.4
			c-0.2-1.8-0.4-3.1-0.5-3.7c-0.1-0.5-0.2-0.8-0.2-1.1c0-0.2,0.2-0.5,0.5-0.9c0.4-0.4,0.7-0.6,1.1-0.6c0.5,0,0.9,0.3,1.5,0.8
			c0.4,0.4,0.7,1.1,1,1.9s0.4,1.6,0.4,2.3c0,0.4,0,0.8,0.1,1.3c0.1,0.4,0.2,1,0.3,1.5s0.2,1,0.3,1.3c0.2,0.9,0.3,1.4,0.5,1.4
			s0.7-2.2,1.6-6.5c0.3-1.8,0.6-3,0.9-3.5C32.9,59.7,33.4,59.4,34.2,59.2z"/>
		<path class="st2" d="M42.2,61.5c0.4-0.4,0.8-0.6,1.4-0.6c0.5,0,1,0.2,1.4,0.6l0.6,0.6l0.3,10.3c0.2,5.7,0.2,9,0.2,9.8
			c0,0.5,0,0.8,0,1.1c0,0.3,0,0.5,0,0.7S46,84.3,46,84.4c-0.1,0.1-0.1,0.2-0.1,0.2s-0.1,0.1-0.2,0.1s-0.2,0.1-0.2,0.1
			c-0.3,0.2-0.6,0.3-0.8,0.3c-0.1,0-0.4-0.1-0.9-0.2c-0.7-0.3-1.1-0.6-1.2-0.8c-0.1-0.1-0.2-3.8-0.3-11s-0.1-10.8-0.2-10.9
			C41.7,62.2,41.8,61.9,42.2,61.5z"/>
		<path class="st2" d="M54.2,60.8c0.4-0.2,0.8-0.3,1.3-0.3c0.3,0,0.6,0,0.8,0c0.9,0.1,1.5,0.2,1.8,0.4c0.3,0.1,0.6,0.5,0.9,0.9
			c0.3,0.5,0.5,1,0.5,1.5c0,0.6-0.2,1-0.6,1.4c-0.4,0.4-0.7,0.6-1.1,0.6c-0.4,0-0.8-0.3-1.1-0.8c-0.3-0.4-0.6-0.6-0.9-0.6
			c-0.3,0-0.5,0.2-0.8,0.6s-0.4,0.8-0.5,1.3V66c0,1.7,1.3,4.8,3.8,9.3c0.4,0.7,0.8,2.1,1.2,4c0,0.1,0.1,0.3,0.1,0.6
			c0,1.7-0.3,3-1.1,3.9c-0.3,0.4-0.8,0.8-1.5,1c-0.7,0.3-1.3,0.5-1.8,0.5c-0.1,0-0.1,0-0.2,0c-0.1,0-0.1,0-0.2,0
			c-0.7-0.1-1.6-0.7-2.5-1.6c-1-0.9-1.5-1.7-1.5-2.2c0-0.2,0.2-0.5,0.5-0.9c0.3-0.3,0.7-0.5,1-0.6c0.1,0,0.2-0.1,0.3-0.1
			c0.3,0,0.9,0.5,1.6,1.5c0.3,0.4,0.6,0.6,0.9,0.6c0.3,0,0.5-0.2,0.7-0.6c0.1-0.1,0.1-0.4,0.1-0.7c0-1.8-0.8-4.3-2.4-7.7
			c-1.5-3.2-2.2-5.5-2.2-7c0-0.7,0.1-1.3,0.4-1.9c0.5-1.2,0.9-2,1.1-2.4C53.1,61.5,53.6,61.2,54.2,60.8z"/>
		<path class="st2" d="M64.6,59.9c0.4-0.3,0.8-0.4,1.4-0.4c0.7,0,1.2,0.2,1.6,0.5l0.6,0.5v5.6c0.1,6.5,0.3,10.9,0.6,13.3
			c0.1,0.5,0.2,0.7,0.3,0.7c0.3,0,0.5-0.9,0.7-2.8c0.4-3.9,0.6-7.8,0.6-11.6v-1v-0.6c0-2.1,0.2-3.3,0.7-3.6c0.2-0.1,0.5-0.2,0.9-0.2
			c0.8,0,1.4,0.1,1.8,0.5c0.5,0.5,0.7,1.7,0.7,3.7c0,1.7-0.1,4.8-0.4,9.4c-0.2,3.8-0.6,6.5-1.2,8.1s-1.6,2.6-2.9,3
			c-0.5,0.2-0.9,0.3-1.1,0.3s-0.7-0.2-1.5-0.5c-1.7-0.8-2.6-2-2.8-3.8c-0.2-1.5-0.3-6.4-0.5-14.7c0-1.2,0-2.5,0-4
			c0-0.9,0-1.6,0.1-1.8C64.3,60.3,64.5,60.1,64.6,59.9z"/>
		<path class="st2" d="M82.9,61.6c0.8-0.8,2-1.2,3.6-1.2c0.7,0,1.3,0.1,1.7,0.4c0.6,0.3,1.1,1.2,1.4,2.6c0.2,1.2,0.5,3.1,0.8,5.9
			c0.3,2.8,0.5,4.9,0.6,6.4c0,1.4,0.1,3,0.3,4.8c0.2,1.8,0.3,2.8,0.4,2.9c0,0,0.1,0.1,0.1,0.2c0,0.3-0.1,0.6-0.4,1
			c-0.2,0.4-0.5,0.6-0.7,0.7c-0.1,0-0.2,0.1-0.4,0.1c-0.5,0-1-0.1-1.5-0.3c-0.5-0.2-0.9-0.4-1-0.7c-0.1-0.2-0.3-1.1-0.4-2.5
			c-0.2-1.4-0.2-2.6-0.2-3.5c0-0.8-0.1-1.3-0.3-1.4c-0.2-0.1-0.8-0.1-2.1-0.1c-1,0-1.6,0.1-1.6,0.1c0,0.1-0.1,0.3-0.1,0.6
			c0,0.6,0.1,1.5,0.1,2.5c0.1,1.2,0.1,2.2,0.1,2.9v0.4c0,0.2-0.2,0.4-0.7,0.6c-0.4,0.2-0.8,0.2-1.2,0.2c-0.2,0-0.3,0-0.4-0.1
			c-1-0.3-1.6-0.7-1.7-1.3c0,0,0-0.1,0-0.2s0-0.2,0-0.3c0-1.3,0.2-4,0.5-8.2s0.5-6.6,0.7-7.3c0.2-0.8,0.5-1.8,1.1-2.9
			C82,62.8,82.5,62,82.9,61.6z M86,66.4c-0.2-0.9-0.4-1.3-0.6-1.3s-0.5,0.3-0.7,1c-0.6,1.2-0.9,2.9-1.1,5c-0.1,0.9-0.1,1.4-0.1,1.5
			c0,0.4,0.1,0.7,0.2,0.8c0.2,0.1,0.6,0.2,1.2,0.2c0.9,0,1.4-0.1,1.5-0.3c0.1-0.1,0.1-0.5,0.1-1.2C86.5,69.9,86.3,68,86,66.4z"/>
		<path class="st2" d="M96.7,61c0.3-0.3,0.6-0.4,0.9-0.4s0.5,0,0.7,0c0.7,0.1,1.1,0.3,1.3,0.5c0.4,0.5,0.6,3.2,0.6,8.3v2.7v2.4
			c0,4,0,6.2,0.1,6.5c0.1,0.5,0.6,0.8,1.5,0.8c0.4,0,0.8,0,1.1-0.1c0.2,0,0.5-0.1,0.9-0.1c0.6,0,1,0.1,1.2,0.3
			c0.2,0.2,0.3,0.5,0.3,1c0,0.3-0.1,0.6-0.2,0.8c-0.1,0.2-0.4,0.4-0.9,0.7c-0.8,0.5-1.7,0.7-2.6,0.7c-1.3,0.1-2,0.1-2,0.1
			c-0.1,0-0.2,0.1-0.3,0.1c-0.4,0-0.8-0.1-1.2-0.3c-0.5-0.2-0.8-0.5-1-0.7c-0.5-0.5-0.7-2.1-0.7-4.7c0-0.6,0.1-1.8,0.1-3.6
			c0.1-1.6,0.1-3.3,0.1-5.2c0-4.4-0.1-7.2-0.2-8.3c-0.1-0.4-0.1-0.7-0.1-0.8C96.2,61.5,96.4,61.3,96.7,61z"/>
		<path class="st2" d="M110.6,61.5c0.4-0.4,0.8-0.6,1.4-0.6c0.5,0,1,0.2,1.4,0.6l0.6,0.6l0.3,10.3c0.1,5.7,0.2,9,0.2,9.8
			c0,0.5,0,0.8,0,1.1c0,0.3,0,0.5,0,0.7s-0.1,0.3-0.1,0.4c-0.1,0.1-0.1,0.2-0.1,0.2s-0.1,0.1-0.2,0.1s-0.2,0.1-0.2,0.1
			c-0.3,0.2-0.6,0.3-0.8,0.3c-0.1,0-0.4-0.1-0.9-0.2c-0.7-0.3-1.1-0.6-1.2-0.8c-0.1-0.1-0.2-3.8-0.3-11c-0.1-7.2-0.1-10.8-0.2-10.9
			C110.2,62.2,110.3,61.9,110.6,61.5z"/>
		<path class="st2" d="M122.7,60.8c0.4-0.2,0.8-0.3,1.3-0.3c0.3,0,0.6,0,0.8,0c0.9,0.1,1.5,0.2,1.8,0.4c0.3,0.1,0.6,0.5,0.9,0.9
			c0.3,0.5,0.5,1,0.5,1.5c0,0.6-0.2,1-0.6,1.4s-0.7,0.6-1.1,0.6s-0.8-0.3-1.1-0.8c-0.3-0.4-0.6-0.6-0.9-0.6s-0.5,0.2-0.8,0.6
			s-0.4,0.8-0.5,1.3V66c0,1.7,1.3,4.8,3.8,9.3c0.4,0.7,0.8,2.1,1.2,4c0,0.1,0.1,0.3,0.1,0.6c0,1.7-0.4,3-1.1,3.9
			c-0.3,0.4-0.8,0.8-1.5,1c-0.7,0.3-1.3,0.5-1.8,0.5c-0.1,0-0.1,0-0.2,0s-0.1,0-0.2,0c-0.7-0.1-1.6-0.7-2.5-1.6
			c-1-0.9-1.5-1.7-1.5-2.2c0-0.2,0.2-0.5,0.5-0.9c0.3-0.3,0.7-0.5,1-0.6c0.1,0,0.2-0.1,0.3-0.1c0.3,0,0.9,0.5,1.6,1.5
			c0.3,0.4,0.6,0.6,0.9,0.6s0.5-0.2,0.7-0.6c0.1-0.1,0.1-0.4,0.1-0.7c0-1.8-0.8-4.3-2.4-7.7c-1.5-3.2-2.2-5.5-2.2-7
			c0-0.7,0.1-1.3,0.4-1.9c0.5-1.2,0.9-2,1.1-2.4C121.6,61.5,122,61.2,122.7,60.8z"/>
		<path class="st2" d="M134.6,61.4c0.4-0.1,0.9-0.1,1.5-0.1c1.7,0,2.7,0.2,3.1,0.6c0.3,0.3,0.5,0.6,0.5,1s-0.2,0.7-0.5,1
			s-0.7,0.4-1.2,0.4s-0.8,0.1-0.9,0.3c-0.1,0.2-0.2,0.8-0.2,1.6c0,0.2,0,1,0.1,2.3c0.1,1.5,0.1,2.5,0.2,2.9s0.2,0.7,0.3,0.7
			c0,0,0.2,0,0.6,0c0.4,0,0.7,0,0.9,0c0.7,0,1.3,0.2,1.6,0.6c0.2,0.2,0.3,0.4,0.3,0.6c0,0.5-0.7,0.9-2,1.4c-0.8,0.3-1.2,0.5-1.4,0.6
			c-0.1,0.1-0.3,0.5-0.3,1c-0.1,0.5-0.1,0.9-0.1,1.3c0,1.5,0.1,2.7,0.4,3.4c0.1,0.3,0.3,0.5,0.4,0.6c0.2,0.1,0.5,0.1,1,0.1
			c0.6,0,1.2,0.1,1.6,0.4c0.5,0.3,0.7,0.6,0.7,1c0,0.3-0.2,0.6-0.7,1.1c-0.7,0.7-1.9,1.1-3.7,1.1s-2.9-0.4-3.5-1.1
			c-0.3-0.4-0.5-3-0.5-7.8c-0.1-6-0.1-9.5-0.2-10.6l-0.1-3.4l0.6-0.4C133.8,61.7,134.2,61.5,134.6,61.4z"/>
		<path class="st3" d="M273.1,118.9c4.4,0,8-3.6,8-8s-3.6-8-8-8s-8,3.6-8,8C265,115.3,268.6,118.9,273.1,118.9z"/>
		<path class="st3" d="M251.5,102.8c4.7,0,8.6-3.8,8.6-8.6s-3.8-8.6-8.6-8.6c-4.7,0-8.6,3.8-8.6,8.6S246.8,102.8,251.5,102.8z"/>
		<path class="st4" d="M293.4,129.1c2.4,0,4.3-1.9,4.3-4.3s-1.9-4.3-4.3-4.3s-4.3,1.9-4.3,4.3C289.1,127.1,291,129.1,293.4,129.1z"
			/>
		<path class="st2" d="M278,18.4h-73.7c-8.3,0-15,6.7-15,15v46.4c0,8,6.3,15.1,13.6,15.1h73.7c9.4,0,16.3-6.4,16.3-15V33.3
			C293,25,286.3,18.4,278,18.4z"/>
		<path class="st0" d="M222.5,44.3c0.2-0.5,0.7-0.7,1.2-0.7c0.5,0.1,0.9,0.4,1.1,0.9l5.6,25.6l7.4-12.2c0.2-0.4,0.6-0.6,1-0.6h15
			c2.7-5.6,1.7-12.6-3-17.3c-5.9-6-15.6-6-21.5-0.1c-5.9-5.9-15.3-6-21.3-0.3c-4.8,4.6-5.8,11.7-3.1,17.5h11.2L222.5,44.3z"/>
		<path class="st0" d="M231.3,71.5c-0.2,0.4-0.6,0.6-1.1,0.6c-0.1,0-0.1,0-0.2,0c-0.5-0.1-0.9-0.4-1-0.9l-5.6-25.5l-6.1,12.4
			c-0.2,0.4-0.6,0.7-1.1,0.7h-10.6c0.6,1.1,1.4,2.1,2.3,3l17.5,17.6c2,2.1,5.4,2.1,7.4,0l17.9-17.8c0.9-0.8,1.6-1.8,2.2-2.7h-14
			L231.3,71.5z"/>
		<path class="st2" d="M238.8,57.3c-0.4,0-0.8,0.2-1,0.6l-7.4,12.2l-5.6-25.6c-0.1-0.5-0.5-0.9-1.1-0.9c-0.5-0.1-1,0.2-1.2,0.7
			l-6.4,13h-11.2c0.2,0.5,0.5,1,0.8,1.5h10.5c0.5,0,0.9-0.3,1.1-0.7l6.2-12.4l5.6,25.4c0.1,0.5,0.5,0.9,1,1c0.1,0,0.1,0,0.2,0
			c0.4,0,0.8-0.2,1.1-0.6l7.7-12.7h14c0.3-0.5,0.6-1,0.8-1.5H238.8z"/>
		<path class="st2" d="M207.9,48.4c0,0-0.1,0-0.2,0c-0.5-0.1-0.8-0.6-0.7-1c0.1-0.3,1.2-6.6,9.3-8.8c0.5-0.1,1,0.2,1.1,0.6
			c0.1,0.5-0.1,1-0.6,1.1c-6.9,1.9-7.9,7.2-8,7.4C208.7,48.1,208.3,48.4,207.9,48.4z"/>
		<path class="st0" d="M263.8,42.6c-0.6,0.1-1.2,0-1.7-0.3c-0.5-0.4-0.8-0.9-0.8-1.5v-1.4c0-0.8,0.2-1.4,0.7-2s1.1-0.9,1.8-1.1
			c3.1-0.6,6.1-0.9,9-0.9c3.7,0,6.6,0.7,8.7,2.2s3.1,3.4,3.1,5.8c0,1.1-0.1,2.1-0.4,3s-0.8,1.7-1.4,2.4c-0.7,0.7-1.2,1.3-1.7,1.7
			s-1.2,0.9-2.1,1.5c-0.8,0.6-1.4,1-1.7,1.2c-0.4,0.3-0.8,0.7-1.3,1.2s-0.9,1.1-1.2,1.6c-0.9,1.6-1.9,2.5-3.2,2.5h-2
			c-0.7,0-1.3-0.3-1.8-0.8s-0.6-1.1-0.5-1.8c0.3-1,0.8-2,1.5-3s1.3-1.7,1.9-2.1s1.3-1.1,2.4-1.8c0.8-0.6,1.4-1.1,1.8-1.5
			s0.8-0.8,1.2-1.4c0.4-0.6,0.6-1.1,0.6-1.7c0-2-1.6-3-4.9-3C269.2,41.6,266.6,41.9,263.8,42.6z M269.2,62.3h2.7
			c0.7,0,1.3,0.3,1.8,0.8s0.8,1.1,0.8,1.8v1.6c0,0.7-0.3,1.3-0.8,1.8s-1.1,0.8-1.8,0.8h-2.7c-0.7,0-1.3-0.3-1.8-0.8
			s-0.8-1.1-0.8-1.8v-1.6c0-0.7,0.2-1.3,0.8-1.8C267.9,62.6,268.5,62.3,269.2,62.3z"/>
	</g>
</g>
</svg>
