<?xml version="1.0" encoding="utf-8"?>
<!-- Generator: Adobe Illustrator 25.1.0, SVG Export Plug-In . SVG Version: 6.00 Build 0)  -->
<svg version="1.1" id="Layer_1" xmlns="http://www.w3.org/2000/svg" xmlns:xlink="http://www.w3.org/1999/xlink" x="0px" y="0px"
	 viewBox="0 0 328 107.3" style="enable-background:new 0 0 328 107.3;" xml:space="preserve">
<style type="text/css">
	.st0{fill:#FFFFFF;}
	.st1{fill:#808080;}
	.st2{fill:#BFF2F6;}
	.st3{fill:#FFE7C6;}
	.st4{fill:#E97443;}
	.st5{fill:#E14504;}
	.st6{fill:#DCE3E5;}
	.st7{fill:none;stroke:#FFFFFF;stroke-width:1.4409;stroke-linecap:round;stroke-miterlimit:10;}
	.st8{fill:none;stroke:#F0A282;stroke-width:0.9239;stroke-linecap:round;stroke-miterlimit:10;}
</style>
<g>
	<g>
		<path class="st0" d="M328,75.4C328,1.5,320.5,0.6,190.3,0c-28-0.1-70.6,0.2-104.9,0.5c-33.7,0.3-74.9,0.6-80,7.6
			c-8,11-4.7,33.5-4.7,53.7c0,31.7-6.5,39.2,28.2,43.2c35.2,4.1,164.8,1.5,207.3,1C280.1,105.5,328,107.6,328,75.4z"/>
		<path class="st1" d="M18.1,35.2v-6.8h-1.2v-1.2h1.2v-1.4c0-0.8,0.2-1.3,0.6-1.7c0.4-0.4,0.9-0.5,1.7-0.5h0.8v1.1h-0.6
			c-0.4,0-0.7,0.1-0.9,0.2c-0.2,0.2-0.3,0.5-0.3,0.8V27h1.9v1.1h-1.9v6.8L18.1,35.2L18.1,35.2z"/>
		<path class="st1" d="M26.3,35.4c-0.8,0-1.4-0.2-2-0.5s-1.1-0.8-1.4-1.4s-0.5-1.4-0.5-2.2c0-0.8,0.2-1.6,0.5-2.2
			c0.4-0.6,0.8-1.1,1.4-1.4s1.3-0.5,2-0.5c0.8,0,1.4,0.2,2,0.5c0.6,0.3,1.1,0.8,1.4,1.4c0.3,0.6,0.5,1.4,0.5,2.2
			c0,0.8-0.2,1.6-0.5,2.2s-0.8,1.1-1.4,1.4S27,35.4,26.3,35.4z M26.3,34.2c0.5,0,0.9-0.1,1.3-0.3c0.4-0.2,0.7-0.6,1-1
			c0.2-0.5,0.4-1,0.4-1.7s-0.1-1.2-0.4-1.7c-0.2-0.4-0.6-0.8-0.9-1c-0.4-0.2-0.8-0.3-1.3-0.3s-0.9,0.1-1.3,0.3c-0.4,0.2-0.7,0.6-1,1
			c-0.2,0.5-0.4,1-0.4,1.7s0.1,1.2,0.4,1.7s0.6,0.8,0.9,1C25.4,34.1,25.8,34.2,26.3,34.2z"/>
		<path class="st1" d="M32.2,35.2V23.7h1.3v11.5H32.2z"/>
		<path class="st1" d="M35.7,35.2V23.7H37v11.5H35.7z"/>
		<path class="st1" d="M42.9,35.4c-0.8,0-1.4-0.2-2-0.5s-1.1-0.8-1.4-1.4c-0.3-0.6-0.5-1.4-0.5-2.2c0-0.8,0.2-1.6,0.5-2.2
			s0.8-1.1,1.4-1.4c0.6-0.3,1.3-0.5,2-0.5s1.4,0.2,2,0.5s1.1,0.8,1.4,1.4c0.3,0.6,0.5,1.4,0.5,2.2c0,0.8-0.2,1.6-0.5,2.2
			s-0.8,1.1-1.4,1.4S43.6,35.4,42.9,35.4z M42.9,34.2c0.5,0,0.9-0.1,1.3-0.3c0.4-0.2,0.7-0.6,1-1c0.2-0.5,0.4-1,0.4-1.7
			s-0.1-1.2-0.4-1.7c-0.2-0.4-0.6-0.8-1-1s-0.8-0.3-1.3-0.3s-0.9,0.1-1.3,0.3c-0.4,0.2-0.7,0.6-1,1c-0.2,0.4-0.4,1-0.4,1.7
			s0.1,1.2,0.4,1.7c0.2,0.4,0.6,0.8,1,1C42,34.1,42.4,34.2,42.9,34.2z"/>
		<path class="st1" d="M50,35.2l-2.3-7.9H49l1.7,6.2l1.9-6.2h1.5l1.9,6.2l1.7-6.2h1.4l-2.3,7.9h-1.4l-1.9-6.5l-2,6.5H50z"/>
		<path class="st1" d="M63.8,35.4c-0.8,0-1.4-0.2-2-0.5c-0.6-0.4-1-0.8-1.4-1.5c-0.3-0.6-0.5-1.4-0.5-2.2c0-0.8,0.2-1.6,0.5-2.2
			s0.8-1.1,1.4-1.5c0.6-0.3,1.3-0.5,2.1-0.5c0.8,0,1.4,0.2,2,0.5c0.6,0.4,1,0.8,1.3,1.4s0.4,1.2,0.4,1.8c0,0.1,0,0.2,0,0.4
			c0,0.1,0,0.2,0,0.4h-6.3c0,0.6,0.2,1.1,0.4,1.5s0.6,0.7,0.9,0.9c0.4,0.2,0.8,0.3,1.2,0.3c0.6,0,1-0.1,1.4-0.4s0.7-0.6,0.8-1h1.3
			c-0.2,0.7-0.6,1.4-1.2,1.8C65.5,35.1,64.7,35.4,63.8,35.4z M63.8,28.2c-0.6,0-1.2,0.2-1.7,0.6s-0.8,1-0.9,1.7h5
			c0-0.7-0.3-1.3-0.7-1.7C65,28.4,64.4,28.2,63.8,28.2z"/>
		<path class="st1" d="M72.9,35.4c-0.8,0-1.5-0.2-2.1-0.5c-0.6-0.4-1-0.9-1.4-1.5s-0.5-1.4-0.5-2.2c0-0.8,0.2-1.5,0.5-2.1
			s0.8-1.1,1.4-1.5s1.3-0.5,2.1-0.5c0.7,0,1.2,0.1,1.7,0.4s0.9,0.6,1.2,1.1v-4.9h1.3v11.5h-1.2l-0.1-1.3c-0.3,0.4-0.6,0.7-1.1,1
			S73.6,35.4,72.9,35.4z M73,34.2c0.5,0,1-0.1,1.4-0.4c0.4-0.2,0.7-0.6,1-1c0.2-0.5,0.3-1,0.3-1.6s-0.1-1.1-0.3-1.6
			c-0.2-0.4-0.5-0.8-1-1c-0.4-0.2-0.9-0.4-1.4-0.4s-1,0.1-1.4,0.4c-0.4,0.2-0.7,0.6-1,1c-0.2,0.5-0.3,1-0.3,1.6s0.1,1.1,0.3,1.6
			c0.2,0.4,0.6,0.8,1,1C72,34.1,72.5,34.2,73,34.2z"/>
		<path class="st1" d="M87.8,35.4c-0.7,0-1.2-0.1-1.7-0.4s-0.9-0.6-1.2-1.1l-0.1,1.3h-1.2V23.7h1.3v4.9c0.3-0.4,0.6-0.7,1.1-1
			s1.1-0.5,1.8-0.5c0.8,0,1.5,0.2,2.1,0.5c0.6,0.4,1,0.9,1.4,1.5s0.5,1.3,0.5,2.1c0,0.8-0.2,1.5-0.5,2.1s-0.8,1.1-1.4,1.5
			S88.6,35.4,87.8,35.4z M87.7,34.2c0.5,0,1-0.1,1.4-0.4c0.4-0.2,0.7-0.6,1-1c0.2-0.5,0.3-1,0.3-1.6s-0.1-1.1-0.3-1.6
			c-0.2-0.4-0.6-0.8-1-1s-0.9-0.4-1.4-0.4s-1,0.1-1.4,0.4c-0.4,0.2-0.7,0.6-1,1c-0.2,0.5-0.4,1-0.4,1.6s0.1,1.1,0.4,1.6
			c0.2,0.4,0.5,0.8,1,1C86.7,34.1,87.1,34.2,87.7,34.2z"/>
		<path class="st1" d="M93.8,38.7l2-4.3h-0.5l-3.2-7.2h1.5l2.6,6.2l2.8-6.2h1.4l-5.2,11.5H93.8z"/>
		<path class="st1" d="M108.8,35.4c-0.7,0-1.2-0.1-1.6-0.3c-0.4-0.2-0.8-0.5-1-0.9s-0.3-0.8-0.3-1.2c0-0.8,0.3-1.4,0.9-1.9
			c0.6-0.4,1.5-0.7,2.5-0.7h2.1v-0.1c0-0.7-0.2-1.2-0.5-1.6c-0.4-0.4-0.9-0.5-1.5-0.5c-0.5,0-1,0.1-1.3,0.4
			c-0.4,0.3-0.6,0.6-0.7,1.1H106c0-0.6,0.2-1.1,0.6-1.5c0.3-0.4,0.8-0.7,1.3-0.9c0.5-0.2,1-0.3,1.6-0.3c1.1,0,1.9,0.3,2.5,0.9
			s0.8,1.4,0.8,2.4v4.9h-1.2l-0.1-1.4c-0.2,0.5-0.6,0.8-1,1.1C110.1,35.2,109.5,35.4,108.8,35.4z M109,34.2c0.5,0,0.9-0.1,1.3-0.4
			s0.6-0.6,0.8-1s0.3-0.9,0.3-1.3l0,0h-2c-0.8,0-1.4,0.1-1.7,0.4c-0.3,0.3-0.5,0.6-0.5,1s0.1,0.8,0.5,1
			C108,34.1,108.4,34.2,109,34.2z"/>
		<path class="st1" d="M17.7,57.2v-8h1.2l0.1,1.5c0.2-0.5,0.6-0.9,1.1-1.2S21.2,49,22,49v1.4h-0.4c-0.5,0-0.9,0.1-1.3,0.2
			c-0.4,0.2-0.7,0.5-0.9,0.8c-0.2,0.4-0.3,0.9-0.3,1.6v4h-1.4V57.2z"/>
		<path class="st1" d="M26.7,57.4c-0.8,0-1.4-0.2-2-0.5c-0.6-0.4-1.1-0.8-1.4-1.5c-0.3-0.6-0.5-1.4-0.5-2.2c0-0.8,0.2-1.6,0.5-2.2
			s0.8-1.1,1.4-1.5c0.6-0.3,1.3-0.5,2.1-0.5c0.8,0,1.4,0.2,2,0.5c0.6,0.4,1,0.8,1.3,1.4s0.5,1.2,0.5,1.8c0,0.1,0,0.2,0,0.4
			c0,0.1,0,0.2,0,0.4h-6.3c0,0.6,0.2,1.1,0.4,1.5s0.6,0.7,0.9,0.9c0.4,0.2,0.8,0.3,1.2,0.3c0.6,0,1-0.1,1.4-0.4s0.6-0.6,0.8-1h1.3
			c-0.2,0.7-0.6,1.4-1.2,1.8C28.5,57.1,27.7,57.4,26.7,57.4z M26.7,50.2c-0.6,0-1.2,0.2-1.7,0.6s-0.8,1-0.9,1.7h5
			c0-0.7-0.3-1.3-0.7-1.7C28,50.4,27.4,50.2,26.7,50.2z"/>
		<path class="st1" d="M35.9,57.4c-0.8,0-1.4-0.2-2-0.5c-0.6-0.4-1.1-0.8-1.4-1.5s-0.6-1.4-0.6-2.2s0.2-1.6,0.5-2.2s0.8-1.1,1.4-1.5
			c0.6-0.3,1.3-0.5,2-0.5c0.9,0,1.7,0.2,2.4,0.7c0.6,0.5,1.1,1.2,1.2,2H38c-0.1-0.5-0.4-0.9-0.8-1.1c-0.4-0.3-0.9-0.4-1.5-0.4
			c-0.4,0-0.9,0.1-1.3,0.3c-0.4,0.2-0.7,0.6-1,1c-0.2,0.4-0.4,1-0.4,1.7s0.1,1.2,0.4,1.7c0.2,0.4,0.6,0.8,1,1s0.8,0.3,1.3,0.3
			c0.6,0,1-0.1,1.5-0.4c0.4-0.3,0.7-0.7,0.8-1.2h1.4c-0.2,0.8-0.6,1.5-1.2,2C37.7,57.1,36.9,57.4,35.9,57.4z"/>
		<path class="st1" d="M45,57.4c-0.8,0-1.4-0.2-2-0.5s-1.1-0.8-1.4-1.4c-0.3-0.6-0.5-1.4-0.5-2.2s0.2-1.6,0.5-2.2s0.8-1.1,1.4-1.4
			c0.6-0.3,1.3-0.5,2-0.5s1.4,0.2,2,0.5s1.1,0.8,1.4,1.4c0.3,0.6,0.5,1.4,0.5,2.2s-0.2,1.6-0.5,2.2s-0.8,1.1-1.4,1.4
			S45.8,57.4,45,57.4z M45,56.2c0.5,0,0.9-0.1,1.3-0.3c0.4-0.2,0.7-0.6,1-1c0.2-0.5,0.4-1,0.4-1.7s-0.1-1.2-0.4-1.7
			c-0.2-0.4-0.6-0.8-1-1s-0.8-0.3-1.3-0.3s-0.9,0.1-1.3,0.3c-0.4,0.2-0.7,0.6-1,1c-0.2,0.5-0.4,1-0.4,1.7s0.1,1.2,0.4,1.7
			c0.2,0.4,0.6,0.8,1,1C44.2,56.1,44.6,56.2,45,56.2z"/>
		<path class="st1" d="M52.8,57.2l-3-7.9h1.4l2.4,6.6l2.3-6.7h1.4l-3,7.9h-1.5V57.2z"/>
		<path class="st1" d="M62,57.4c-0.8,0-1.4-0.2-2-0.5c-0.6-0.4-1-0.8-1.4-1.5c-0.3-0.6-0.5-1.4-0.5-2.2c0-0.8,0.2-1.6,0.5-2.2
			s0.8-1.1,1.4-1.5c0.6-0.3,1.3-0.5,2.1-0.5c0.8,0,1.4,0.2,2,0.5c0.6,0.4,1,0.8,1.3,1.4s0.4,1.2,0.4,1.8c0,0.1,0,0.2,0,0.4
			c0,0.1,0,0.2,0,0.4h-6.3c0,0.6,0.2,1.1,0.4,1.5c0.3,0.4,0.6,0.7,0.9,0.9c0.4,0.2,0.8,0.3,1.2,0.3c0.6,0,1-0.1,1.4-0.4
			s0.7-0.6,0.8-1h1.3c-0.2,0.7-0.6,1.4-1.2,1.8C63.7,57.1,62.9,57.4,62,57.4z M62,50.2c-0.6,0-1.2,0.2-1.7,0.6s-0.8,1-0.9,1.7h5
			c0-0.7-0.3-1.3-0.7-1.7C63.2,50.4,62.6,50.2,62,50.2z"/>
		<path class="st1" d="M67.5,57.2v-8h1.2l0.1,1.5c0.2-0.5,0.6-0.9,1.1-1.2S71,49,71.8,49v1.4h-0.4c-0.5,0-0.9,0.1-1.3,0.2
			c-0.4,0.2-0.7,0.5-0.9,0.8c-0.2,0.4-0.3,0.9-0.3,1.6v4h-1.4V57.2z"/>
		<path class="st1" d="M74.2,60.7l2-4.3h-0.5l-3.2-7.2H74l2.6,6.2l2.8-6.2h1.4l-5.2,11.5H74.2z"/>
		<path class="st1" d="M86.5,60.7V49.2h1.2l0.1,1.3c0.3-0.4,0.6-0.7,1.1-1S90,49,90.7,49c0.8,0,1.5,0.2,2.1,0.5
			c0.6,0.4,1,0.9,1.4,1.5c0.3,0.6,0.5,1.3,0.5,2.1c0,0.8-0.2,1.5-0.5,2.1s-0.8,1.1-1.4,1.5s-1.3,0.5-2.1,0.5c-0.6,0-1.2-0.1-1.7-0.4
			s-0.9-0.6-1.2-1.1v4.8h-1.3V60.7z M90.6,56.2c0.5,0,1-0.1,1.4-0.4c0.4-0.2,0.7-0.6,1-1c0.2-0.5,0.3-1,0.3-1.6s-0.1-1.1-0.3-1.6
			c-0.2-0.4-0.6-0.8-1-1s-0.9-0.4-1.4-0.4s-1,0.1-1.4,0.4s-0.7,0.6-1,1c-0.2,0.5-0.3,1-0.3,1.6s0.1,1.1,0.3,1.6c0.2,0.4,0.5,0.8,1,1
			C89.5,56.1,90,56.2,90.6,56.2z"/>
		<path class="st1" d="M100.1,57.4c-0.8,0-1.4-0.2-2-0.5c-0.6-0.4-1.1-0.8-1.4-1.5c-0.3-0.6-0.5-1.4-0.5-2.2c0-0.8,0.2-1.6,0.5-2.2
			s0.8-1.1,1.4-1.5c0.6-0.3,1.3-0.5,2.1-0.5c0.8,0,1.4,0.2,2,0.5c0.6,0.4,1,0.8,1.3,1.4s0.4,1.2,0.4,1.8c0,0.1,0,0.2,0,0.4
			c0,0.1,0,0.2,0,0.4h-6.3c0,0.6,0.2,1.1,0.4,1.5s0.6,0.7,0.9,0.9c0.4,0.2,0.8,0.3,1.2,0.3c0.6,0,1-0.1,1.4-0.4s0.7-0.6,0.8-1h1.3
			c-0.2,0.7-0.6,1.4-1.2,1.8C101.8,57.1,101,57.4,100.1,57.4z M100.1,50.2c-0.6,0-1.2,0.2-1.7,0.6s-0.8,1-0.9,1.7h5
			c0-0.7-0.3-1.3-0.7-1.7C101.3,50.4,100.7,50.2,100.1,50.2z"/>
		<path class="st1" d="M105.6,57.2v-8h1.2l0.1,1.5c0.2-0.5,0.6-0.9,1.1-1.2s1.1-0.5,1.9-0.5v1.4h-0.4c-0.5,0-0.9,0.1-1.3,0.2
			c-0.4,0.2-0.7,0.5-0.9,0.8c-0.2,0.4-0.4,0.9-0.4,1.6v4h-1.3V57.2z"/>
		<path class="st1" d="M112.2,47.5c-0.3,0-0.5-0.1-0.7-0.3c-0.2-0.2-0.3-0.4-0.3-0.7c0-0.3,0.1-0.5,0.3-0.6c0.2-0.2,0.4-0.3,0.7-0.3
			s0.5,0.1,0.7,0.3c0.2,0.2,0.3,0.4,0.3,0.6c0,0.3-0.1,0.5-0.3,0.7C112.7,47.4,112.5,47.5,112.2,47.5z M111.6,57.2v-8h1.3v7.9h-1.3
			V57.2z"/>
		<path class="st1" d="M118.9,57.4c-0.8,0-1.4-0.2-2-0.5s-1.1-0.8-1.4-1.4c-0.4-0.6-0.5-1.4-0.5-2.2s0.2-1.6,0.5-2.2
			c0.4-0.6,0.8-1.1,1.4-1.4s1.3-0.5,2-0.5c0.8,0,1.4,0.2,2,0.5s1.1,0.8,1.4,1.4c0.4,0.6,0.5,1.4,0.5,2.2s-0.2,1.6-0.5,2.2
			c-0.4,0.6-0.8,1.1-1.4,1.4S119.6,57.4,118.9,57.4z M118.9,56.2c0.5,0,0.9-0.1,1.3-0.3c0.4-0.2,0.7-0.6,1-1c0.2-0.5,0.4-1,0.4-1.7
			s-0.1-1.2-0.4-1.7c-0.2-0.4-0.6-0.8-1-1s-0.8-0.3-1.3-0.3s-0.9,0.1-1.3,0.3c-0.4,0.2-0.7,0.6-1,1c-0.2,0.5-0.4,1-0.4,1.7
			s0.1,1.2,0.4,1.7s0.6,0.8,1,1C118,56.1,118.4,56.2,118.9,56.2z"/>
		<path class="st1" d="M128.3,57.4c-0.8,0-1.5-0.2-2.1-0.5c-0.6-0.4-1.1-0.9-1.4-1.5s-0.5-1.3-0.5-2.1c0-0.8,0.2-1.5,0.5-2.1
			s0.8-1.1,1.4-1.5c0.6-0.4,1.3-0.5,2.1-0.5c0.6,0,1.2,0.1,1.7,0.4s0.9,0.6,1.2,1.1v-4.9h1.3v11.4h-1.2l-0.1-1.3
			c-0.3,0.4-0.6,0.7-1.1,1C129.6,57.2,129,57.4,128.3,57.4z M128.5,56.2c0.5,0,1-0.1,1.4-0.4c0.4-0.2,0.7-0.6,1-1
			c0.2-0.5,0.3-1,0.3-1.6s-0.1-1.1-0.3-1.6c-0.2-0.4-0.6-0.8-1-1s-0.9-0.4-1.4-0.4s-1,0.1-1.4,0.4s-0.7,0.6-1,1
			c-0.2,0.5-0.3,1-0.3,1.6s0.1,1.1,0.3,1.6c0.2,0.4,0.6,0.8,1,1S127.9,56.2,128.5,56.2z"/>
		<path class="st1" d="M20.5,81.5c-0.6-0.6-1.1-1.2-1.6-2s-0.9-1.6-1.2-2.6c-0.3-1-0.4-2-0.4-3.1s0.2-2.1,0.4-3.1
			c0.3-1,0.7-1.8,1.2-2.6c0.5-0.8,1-1.4,1.6-2h1.4v0.1c-1,1-1.8,2.1-2.4,3.4s-0.9,2.7-0.9,4.1c0,1.5,0.3,2.9,0.9,4.1
			c0.6,1.3,1.4,2.4,2.4,3.4v0.1L20.5,81.5L20.5,81.5z"/>
		<path class="st1" d="M24.8,79.2v-9.7L23,69.9V69l2.3-1h0.9v11.2H24.8L24.8,79.2z"/>
		<path class="st1" d="M32.9,79.4c-1,0-1.8-0.2-2.6-0.7c-0.7-0.5-1.3-1.2-1.7-2c-0.4-0.9-0.6-1.9-0.6-3s0.2-2.2,0.6-3
			c0.4-0.9,0.9-1.5,1.7-2c0.7-0.5,1.6-0.7,2.6-0.7s1.8,0.2,2.6,0.7c0.7,0.5,1.3,1.2,1.7,2c0.4,0.9,0.6,1.9,0.6,3s-0.2,2.2-0.6,3
			c-0.4,0.9-0.9,1.6-1.7,2S33.9,79.4,32.9,79.4z M32.9,78.2c0.7,0,1.2-0.2,1.8-0.6s0.9-0.9,1.2-1.6s0.4-1.5,0.4-2.5
			s-0.1-1.8-0.4-2.5c-0.3-0.7-0.7-1.2-1.2-1.6s-1.1-0.5-1.8-0.5s-1.2,0.2-1.8,0.5s-0.9,0.9-1.2,1.6s-0.4,1.5-0.4,2.5
			s0.1,1.8,0.4,2.5s0.7,1.2,1.2,1.6C31.7,78,32.2,78.2,32.9,78.2z"/>
		<path class="st1" d="M46.8,79.4c-0.9,0-1.7-0.2-2.4-0.7c-0.6-0.5-1-1.1-1.1-2h1.4c0.1,0.4,0.3,0.8,0.7,1.1
			c0.4,0.3,0.8,0.5,1.4,0.5c0.6,0,1-0.1,1.2-0.4c0.3-0.2,0.4-0.5,0.4-0.9c0-0.5-0.2-0.8-0.5-1s-0.8-0.3-1.5-0.4
			c-0.4-0.1-0.9-0.2-1.3-0.4c-0.4-0.2-0.8-0.4-1.1-0.7c-0.3-0.3-0.4-0.7-0.4-1.2c0-0.7,0.3-1.3,0.8-1.7c0.5-0.4,1.2-0.7,2.1-0.7
			c0.8,0,1.5,0.2,2.1,0.6c0.5,0.4,0.8,1,0.9,1.8h-1.3c-0.1-0.4-0.2-0.7-0.5-1C47.4,72.1,47,72,46.5,72s-0.8,0.1-1.1,0.3
			c-0.3,0.2-0.4,0.5-0.4,0.8s0.2,0.6,0.5,0.8c0.3,0.2,0.8,0.3,1.4,0.5c0.5,0.1,1,0.2,1.4,0.4s0.8,0.4,1.1,0.7s0.4,0.7,0.4,1.3
			c0,0.7-0.3,1.3-0.8,1.8C48.5,79.1,47.8,79.4,46.8,79.4z"/>
		<path class="st1" d="M55.4,79.4c-0.8,0-1.4-0.2-2-0.5c-0.6-0.4-1.1-0.8-1.4-1.5c-0.3-0.6-0.5-1.4-0.5-2.2c0-0.8,0.2-1.6,0.5-2.2
			s0.8-1.1,1.4-1.5c0.6-0.3,1.3-0.5,2.1-0.5s1.4,0.2,2,0.5c0.6,0.4,1,0.8,1.3,1.4s0.5,1.2,0.5,1.8c0,0.1,0,0.2,0,0.4s0,0.2,0,0.4H53
			c0,0.6,0.2,1.1,0.4,1.5s0.6,0.7,0.9,0.9c0.4,0.2,0.8,0.3,1.2,0.3c0.6,0,1-0.1,1.4-0.4s0.7-0.6,0.8-1h1.2c-0.2,0.7-0.6,1.4-1.2,1.8
			C57.1,79.1,56.3,79.4,55.4,79.4z M55.4,72.2c-0.6,0-1.2,0.2-1.7,0.6s-0.8,1-0.9,1.7h5c0-0.7-0.3-1.3-0.7-1.7
			C56.6,72.4,56,72.2,55.4,72.2z"/>
		<path class="st1" d="M64.5,79.4c-0.8,0-1.4-0.2-2-0.5c-0.6-0.4-1.1-0.8-1.4-1.5c-0.3-0.6-0.5-1.4-0.5-2.2s0.2-1.6,0.5-2.2
			s0.8-1.1,1.4-1.5c0.6-0.3,1.3-0.5,2-0.5c0.9,0,1.7,0.2,2.4,0.7c0.7,0.5,1.1,1.2,1.2,2h-1.4c-0.1-0.5-0.4-0.9-0.8-1.1
			c-0.4-0.3-0.9-0.4-1.5-0.4c-0.5,0-0.9,0.1-1.3,0.3c-0.4,0.2-0.7,0.6-1,1c-0.2,0.4-0.4,1-0.4,1.7s0.1,1.2,0.4,1.7
			c0.2,0.4,0.6,0.8,1,1s0.8,0.3,1.3,0.3s1-0.1,1.5-0.4c0.4-0.3,0.7-0.7,0.8-1.2h1.4c-0.2,0.8-0.6,1.5-1.2,2S65.5,79.4,64.5,79.4z"/>
		<path class="st1" d="M73.6,79.4c-0.8,0-1.4-0.2-2-0.5s-1.1-0.8-1.4-1.4s-0.5-1.4-0.5-2.2s0.2-1.6,0.5-2.2s0.8-1.1,1.4-1.4
			s1.3-0.5,2-0.5c0.8,0,1.4,0.2,2,0.5s1.1,0.8,1.4,1.4s0.5,1.4,0.5,2.2s-0.2,1.6-0.5,2.2s-0.8,1.1-1.4,1.4S74.4,79.4,73.6,79.4z
			 M73.6,78.2c0.5,0,0.9-0.1,1.3-0.3c0.4-0.2,0.7-0.6,1-1c0.2-0.5,0.4-1,0.4-1.7s-0.1-1.2-0.4-1.7c-0.2-0.4-0.6-0.8-1-1
			s-0.8-0.3-1.3-0.3s-0.9,0.1-1.3,0.3c-0.4,0.2-0.7,0.6-1,1c-0.2,0.5-0.4,1-0.4,1.7s0.1,1.2,0.4,1.7s0.6,0.8,1,1
			C72.8,78.1,73.2,78.2,73.6,78.2z"/>
		<path class="st1" d="M79.5,79.2v-8h1.2l0.1,1.4c0.3-0.5,0.6-0.9,1.1-1.2c0.5-0.3,1-0.4,1.6-0.4c0.9,0,1.7,0.3,2.2,0.9
			c0.6,0.6,0.8,1.4,0.8,2.6v4.6h-1.3v-4.5c0-1.6-0.7-2.5-2.1-2.5c-0.7,0-1.2,0.2-1.7,0.7c-0.4,0.5-0.7,1.2-0.7,2.1V79L79.5,79.2
			L79.5,79.2z"/>
		<path class="st1" d="M92.2,79.4c-0.8,0-1.5-0.2-2.1-0.5c-0.6-0.4-1-0.9-1.4-1.5s-0.5-1.3-0.5-2.1c0-0.8,0.2-1.5,0.5-2.1
			s0.8-1.1,1.4-1.5s1.3-0.5,2.1-0.5c0.7,0,1.2,0.1,1.7,0.4s0.9,0.6,1.2,1.1v-4.9h1.3v11.4h-1.2l-0.1-1.3c-0.3,0.4-0.6,0.7-1.1,1
			C93.6,79.2,93,79.4,92.2,79.4z M92.4,78.2c0.5,0,1-0.1,1.4-0.4c0.4-0.2,0.7-0.6,1-1c0.2-0.5,0.3-1,0.3-1.6s-0.1-1.1-0.3-1.6
			c-0.2-0.4-0.6-0.8-1-1s-0.9-0.4-1.4-0.4s-1,0.1-1.4,0.4c-0.4,0.2-0.7,0.6-1,1c-0.2,0.5-0.3,1-0.3,1.6s0.1,1.1,0.3,1.6
			c0.2,0.4,0.5,0.8,1,1C91.4,78.1,91.9,78.2,92.4,78.2z"/>
		<path class="st1" d="M101.7,79.4c-0.9,0-1.7-0.2-2.4-0.7c-0.6-0.5-1-1.1-1.1-2h1.4c0.1,0.4,0.3,0.8,0.7,1.1
			c0.4,0.3,0.8,0.5,1.4,0.5s1-0.1,1.2-0.4c0.3-0.2,0.4-0.5,0.4-0.9c0-0.5-0.2-0.8-0.5-1s-0.8-0.3-1.5-0.4c-0.4-0.1-0.8-0.2-1.3-0.4
			c-0.4-0.2-0.8-0.4-1.1-0.7c-0.3-0.3-0.4-0.7-0.4-1.2c0-0.7,0.3-1.3,0.8-1.7c0.5-0.4,1.2-0.7,2.1-0.7c0.8,0,1.5,0.2,2.1,0.6
			c0.5,0.4,0.9,1,0.9,1.8h-1.3c0-0.4-0.2-0.7-0.5-1c-0.3-0.2-0.7-0.3-1.2-0.3s-0.8,0.1-1.1,0.3c-0.3,0.2-0.4,0.5-0.4,0.8
			s0.2,0.6,0.5,0.8c0.3,0.2,0.8,0.3,1.4,0.5c0.5,0.1,1,0.2,1.4,0.4s0.8,0.4,1.1,0.7c0.3,0.3,0.4,0.7,0.4,1.3c0,0.7-0.3,1.3-0.8,1.8
			C103.4,79.1,102.7,79.4,101.7,79.4z"/>
		<path class="st1" d="M106.1,81.5v-0.1c1-1,1.8-2.1,2.4-3.4s0.9-2.7,0.9-4.1c0-1.5-0.3-2.9-0.9-4.2c-0.6-1.3-1.4-2.4-2.4-3.4v-0.1
			h1.4c0.6,0.5,1.1,1.2,1.6,2s0.9,1.6,1.2,2.6c0.3,1,0.4,2,0.4,3.1s-0.2,2.1-0.4,3.1c-0.3,0.9-0.7,1.8-1.2,2.6s-1,1.4-1.6,2
			L106.1,81.5L106.1,81.5z"/>
		<path class="st1" d="M113,79.2c-0.3,0-0.5-0.1-0.7-0.3c-0.2-0.2-0.3-0.4-0.3-0.6c0-0.3,0.1-0.5,0.3-0.7c0.2-0.2,0.4-0.3,0.7-0.3
			c0.3,0,0.5,0.1,0.7,0.3c0.2,0.2,0.3,0.4,0.3,0.7c0,0.3-0.1,0.5-0.3,0.6C113.5,79.2,113.3,79.2,113,79.2z"/>
		<path class="st2" d="M291,23.4C195.7,70.3,190.6,57,191.1,50.5s32.4-2.8,31.6-10.5c-0.4-3.9,21.3-7.9,25.6-6.5
			c7.6,2.6,18.5-4.3,24.5-8.8c3.4-2.6,16.9-7.9,20.3-7.6C295.4,17.3,296.1,20.8,291,23.4z"/>
		<path class="st3" d="M202.7,74.1l-14.9-34.5l-29.5,12.7l14.9,34.5L202.7,74.1z"/>
		<path class="st4" d="M151.9,55c-5.4,2.8-4.9,8.3-4,10.8l8.3,19.3c1.1,2.5,4.9,6.6,10.7,4.5l11.9-5.1l-15-34.7L151.9,55z"/>
		<path class="st3" d="M208.4,43.1l-4,1.7l5.9,13.6l4-1.7L208.4,43.1z"/>
		<path class="st4" d="M207.8,71.9c5.4-2.8,5.1-8.4,4-10.8l-8.3-19.3c-1.1-2.5-4.9-6.6-10.7-4.5l-9.4,4.1l15,34.7L207.8,71.9z"/>
		<path class="st4" d="M238,51.6l-19.3,1.8c-0.8,0.1-1.3,0.8-1.2,1.5l0.5,5l0,0c0.2,1.9,2,3.1,3.9,3l14.9-1.4
			c1.9-0.2,3.4-1.8,3.2-3.6l0,0l-0.5-5C239.4,52.1,238.8,51.5,238,51.6z"/>
		<path class="st4" d="M210.1,77.5c-0.9,0-1.7-0.2-2.6-0.5c-1.7-0.7-3.1-2-3.8-3.7l-2.5-5.7l2-0.9l2.4,5.7c0.5,1.2,1.4,2.1,2.6,2.5
			c1.2,0.5,2.5,0.5,3.7,0l7.4-3.2c2.3-1,3.3-3.7,2.4-6l-3.8-8.9l2-0.9l3.8,8.9c1.5,3.4-0.1,7.3-3.5,8.8l-7.4,3.2
			C212,77.3,211,77.5,210.1,77.5z"/>
		<path class="st5" d="M266.5,52.1c-0.5,0.6-1.5,0.4-1.6-0.4l-0.7-4l2.3-0.3l0.4,3.3C267,51.2,266.9,51.7,266.5,52.1z"/>
		<path class="st5" d="M283.5,30.8c0.5-0.6,0-1.5-0.8-1.5l-4,0.3l0.3,2.3l3.3-0.4C282.7,31.4,283.2,31.2,283.5,30.8z"/>
		<path class="st5" d="M248.4,18.3l5.1,3.9c0.3,0.2,0.4,0.6,0.1,1l-0.4,0.5c-0.2,0.3-0.6,0.3-0.9,0.1l-5.1-3.9
			c-0.3-0.2-0.3-0.6-0.1-1l0.4-0.5C247.7,18.1,248.1,18,248.4,18.3z"/>
		<path class="st5" d="M263,48.5c9.3,0,16.8-7.5,16.8-16.8s-7.5-16.8-16.8-16.8s-16.8,7.5-16.8,16.8C246.1,40.9,253.7,48.5,263,48.5
			z"/>
		<path class="st6" d="M263,46.8c8.4,0,15.2-6.8,15.2-15.2s-6.8-15.2-15.2-15.2s-15.2,6.8-15.2,15.2S254.6,46.8,263,46.8z"/>
		<path class="st4" d="M263.1,31.6l-0.4,0.2c-0.3,0.2-0.7,0.1-1-0.2l-6.1-9.5c-0.2-0.3-0.1-0.7,0.2-1l0.4-0.2
			c0.3-0.2,0.7-0.1,0.9,0.2l6.1,9.5C263.5,31,263.4,31.4,263.1,31.6z"/>
		<path class="st7" d="M250,34.8c-1.1-1.9-0.5-6,1.2-8.3"/>
		<path class="st7" d="M275.2,26.9c0.8,1.9,1,4.8,0.3,6.8"/>
		<path class="st8" d="M274.5,16.4c1.7,1.4,3.2,3.1,4.3,5"/>
		<path class="st8" d="M275.9,14.1c1.7,1.4,3.2,3.1,4.3,5"/>
		<path class="st8" d="M248.2,45c1.5,1.7,3.2,3.1,5.1,4.2"/>
		<path class="st8" d="M245.9,46.5c1.5,1.7,3.2,3.1,5.1,4.2"/>
		<path class="st4" d="M249.8,16.9l-3.6,4.5c-0.2,0.3-0.7,0.4-1,0.1l-0.4-0.3c-0.3-0.2-0.4-0.7-0.1-1l3.6-4.5c0.2-0.3,0.7-0.4,1-0.1
			l0.4,0.3C250,16.2,250,16.6,249.8,16.9z"/>
	</g>
</g>
</svg>
