<?xml version="1.0" encoding="utf-8"?>
<!-- Generator: Adobe Illustrator 25.1.0, SVG Export Plug-In . SVG Version: 6.00 Build 0)  -->
<svg version="1.1" id="Layer_1" xmlns="http://www.w3.org/2000/svg" xmlns:xlink="http://www.w3.org/1999/xlink" x="0px" y="0px"
	 viewBox="0 0 330.9 250.5" style="enable-background:new 0 0 330.9 250.5;" xml:space="preserve">
<style type="text/css">
	.st0{fill:#FFFFFF;}
	.st1{fill:#808080;}
	.st2{fill:#00CDDC;}
	.st3{fill:#00A878;}
	.st4{fill:#3CDC82;}
	.st5{fill:#28C86E;}
	.st6{fill:none;stroke:#28C86E;stroke-width:1.2004;stroke-linecap:round;stroke-miterlimit:10;}
	.st7{fill:#FFCF8D;}
	.st8{fill:#FF9F1A;}
	.st9{fill:#E14504;}
	.st10{fill:#F4F1EF;}
	.st11{fill:#32DCD2;}
</style>
<g>
	<g>
		<path class="st0" d="M330.8,177.3c0-169.7,4.7-173-41.6-176.8C261-1.8,142.7,4.7,108,5.4C73.9,6,7.1-1.7,5,46.1
			C3.8,72.7,0.5,99.8,0.5,146c0,72.7-6.6,90.1,28.4,99.3c35.6,9.4,166.3,3.5,209.3,2.4C282.5,246.4,330.8,251.4,330.8,177.3z"/>
		<path class="st1" d="M27,106.4V95.2h6.8v1.1h-5.5v3.9H33v1.1h-4.7v5.1C28.3,106.4,27,106.4,27,106.4z"/>
		<path class="st1" d="M36.3,96.7c-0.3,0-0.5-0.1-0.7-0.3c-0.2-0.2-0.3-0.4-0.3-0.7s0.1-0.5,0.3-0.6c0.2-0.2,0.4-0.3,0.7-0.3
			s0.5,0.1,0.7,0.3c0.2,0.2,0.3,0.4,0.3,0.6c0,0.3-0.1,0.5-0.3,0.7S36.5,96.7,36.3,96.7z M35.6,106.4v-7.9h1.3v7.9H35.6z"/>
		<path class="st1" d="M39.3,106.4v-7.9h1.2l0.1,1.4c0.3-0.5,0.6-0.9,1.1-1.2c0.5-0.3,1-0.4,1.6-0.4c0.9,0,1.7,0.3,2.2,0.9
			c0.6,0.6,0.8,1.4,0.8,2.6v4.6H45v-4.5c0-1.6-0.7-2.5-2.1-2.5c-0.7,0-1.2,0.2-1.7,0.7s-0.7,1.2-0.7,2.1v4.1L39.3,106.4L39.3,106.4z
			"/>
		<path class="st1" d="M52,106.6c-0.8,0-1.5-0.2-2.1-0.5c-0.6-0.4-1.1-0.9-1.4-1.5s-0.5-1.3-0.5-2.1s0.2-1.5,0.5-2.1
			s0.8-1.1,1.4-1.5c0.6-0.4,1.3-0.5,2.1-0.5c0.7,0,1.2,0.1,1.7,0.4s0.9,0.6,1.2,1.1V95h1.3v11.5H55l-0.1-1.3c-0.3,0.4-0.6,0.7-1.1,1
			C53.4,106.4,52.8,106.6,52,106.6z M52.2,105.4c0.5,0,1-0.1,1.4-0.4c0.4-0.2,0.7-0.6,1-1c0.2-0.5,0.3-1,0.3-1.6s-0.1-1.1-0.3-1.6
			s-0.6-0.8-1-1.1c-0.4-0.2-0.9-0.4-1.4-0.4s-1,0.1-1.4,0.4c-0.4,0.2-0.7,0.6-1,1.1c-0.2,0.4-0.3,1-0.3,1.6s0.1,1.1,0.3,1.6
			c0.2,0.4,0.6,0.8,1,1C51.2,105.3,51.6,105.4,52.2,105.4z"/>
		<path class="st1" d="M65.4,106.6c-0.7,0-1.2-0.1-1.6-0.3c-0.4-0.2-0.8-0.5-1-0.9c-0.2-0.4-0.3-0.8-0.3-1.2c0-0.8,0.3-1.4,0.9-1.9
			s1.5-0.7,2.5-0.7H68v-0.1c0-0.7-0.2-1.2-0.5-1.6s-0.8-0.5-1.5-0.5c-0.5,0-1,0.1-1.3,0.4c-0.4,0.3-0.6,0.6-0.7,1.1h-1.4
			c0.1-0.6,0.2-1.1,0.6-1.5c0.3-0.4,0.8-0.7,1.3-0.9c0.5-0.2,1-0.3,1.6-0.3c1.1,0,1.9,0.3,2.5,0.9s0.8,1.4,0.8,2.4v4.9h-1.2
			l-0.1-1.4c-0.2,0.4-0.5,0.8-1,1.1C66.7,106.4,66.1,106.6,65.4,106.6z M65.6,105.4c0.5,0,1-0.1,1.3-0.4c0.4-0.3,0.7-0.6,0.8-1
			c0.2-0.4,0.3-0.9,0.3-1.3l0,0h-2c-0.8,0-1.4,0.1-1.7,0.4c-0.3,0.3-0.5,0.6-0.5,1s0.2,0.8,0.5,1C64.6,105.3,65,105.4,65.6,105.4z"
			/>
		<path class="st1" d="M71.4,106.4v-7.9h1.2l0.1,1.4c0.3-0.5,0.6-0.9,1.1-1.2c0.5-0.3,1-0.4,1.6-0.4c0.9,0,1.7,0.3,2.2,0.9
			c0.6,0.6,0.8,1.4,0.8,2.6v4.6h-1.3v-4.5c0-1.6-0.7-2.5-2-2.5c-0.7,0-1.2,0.2-1.7,0.7c-0.4,0.5-0.7,1.2-0.7,2.1v4.1L71.4,106.4
			L71.4,106.4z"/>
		<path class="st1" d="M30.1,170.4l-2.3-7.9h1.3l1.7,6.2l1.9-6.2h1.5l1.9,6.2l1.7-6.2H39l-2.3,7.9h-1.4l-2-6.5l-1.9,6.5H30.1
			L30.1,170.4z"/>
		<path class="st1" d="M40.5,170.4v-11.5h1.3v4.9c0.3-0.5,0.7-0.9,1.1-1.1c0.5-0.3,1-0.4,1.6-0.4c0.9,0,1.7,0.3,2.2,0.9
			c0.5,0.6,0.8,1.4,0.8,2.6v4.6h-1.3v-4.5c0-1.6-0.7-2.5-2-2.5c-0.7,0-1.3,0.2-1.7,0.7c-0.5,0.5-0.7,1.2-0.7,2.1v4.1L40.5,170.4
			L40.5,170.4z"/>
		<path class="st1" d="M53.3,170.6c-0.8,0-1.4-0.2-2-0.5s-1.1-0.8-1.4-1.4c-0.4-0.6-0.5-1.4-0.5-2.2s0.2-1.6,0.5-2.2
			c0.4-0.6,0.8-1.1,1.4-1.4s1.3-0.5,2-0.5s1.4,0.2,2,0.5s1.1,0.8,1.4,1.4c0.4,0.6,0.5,1.4,0.5,2.2s-0.2,1.6-0.5,2.2
			c-0.4,0.6-0.8,1.1-1.4,1.4S54,170.6,53.3,170.6z M53.3,169.5c0.5,0,0.9-0.1,1.3-0.3c0.4-0.2,0.7-0.6,1-1c0.2-0.5,0.4-1,0.4-1.7
			s-0.1-1.2-0.4-1.7c-0.2-0.5-0.6-0.8-0.9-1c-0.4-0.2-0.8-0.3-1.3-0.3s-0.9,0.1-1.3,0.3c-0.4,0.2-0.7,0.6-1,1s-0.4,1-0.4,1.7
			s0.1,1.2,0.4,1.7c0.2,0.4,0.6,0.8,0.9,1C52.4,169.3,52.8,169.5,53.3,169.5z"/>
		<path class="st1" d="M65,170.4l-2.3-7.9H64l1.7,6.2l1.9-6.2h1.5l1.9,6.2l1.7-6.2h1.4l-2.3,7.9h-1.4l-1.9-6.5l-2,6.5H65z"/>
		<path class="st1" d="M76.3,160.7c-0.3,0-0.5-0.1-0.7-0.3s-0.3-0.4-0.3-0.7s0.1-0.5,0.3-0.6c0.2-0.2,0.4-0.3,0.7-0.3
			s0.5,0.1,0.7,0.3s0.3,0.4,0.3,0.6c0,0.3-0.1,0.5-0.3,0.7C76.7,160.6,76.5,160.7,76.3,160.7z M75.6,170.4v-7.9h1.3v7.9H75.6z"/>
		<path class="st1" d="M79.3,170.4v-11.5h1.3v11.5H79.3z"/>
		<path class="st1" d="M82.8,170.4v-11.5h1.3v11.5H82.8z"/>
		<path class="st1" d="M94.2,170.6c-0.8,0-1.4-0.2-2-0.5s-1.1-0.8-1.4-1.4c-0.3-0.6-0.5-1.4-0.5-2.2s0.2-1.6,0.5-2.2
			s0.8-1.1,1.4-1.5c0.6-0.3,1.3-0.5,2.1-0.5c0.8,0,1.4,0.2,2,0.5c0.6,0.4,1,0.8,1.3,1.4c0.3,0.6,0.4,1.2,0.4,1.8c0,0.1,0,0.2,0,0.4
			c0,0.1,0,0.2,0,0.4h-6.3c0,0.6,0.2,1.1,0.4,1.5s0.6,0.7,0.9,0.9c0.4,0.2,0.8,0.3,1.2,0.3c0.6,0,1-0.1,1.4-0.4
			c0.4-0.3,0.7-0.6,0.8-1h1.3c-0.2,0.7-0.6,1.4-1.2,1.8C95.9,170.4,95.1,170.6,94.2,170.6z M94.2,163.4c-0.6,0-1.2,0.2-1.7,0.6
			c-0.5,0.4-0.8,1-0.9,1.7h5c0-0.7-0.3-1.3-0.7-1.7C95.4,163.6,94.8,163.4,94.2,163.4z"/>
		<path class="st1" d="M99.7,170.4v-7.9h1.2l0.1,1.4c0.3-0.5,0.6-0.9,1.1-1.2s1-0.4,1.6-0.4c0.9,0,1.7,0.3,2.3,0.9
			c0.6,0.6,0.8,1.4,0.8,2.6v4.6h-1.3v-4.5c0-1.6-0.7-2.5-2.1-2.5c-0.7,0-1.2,0.2-1.7,0.7c-0.4,0.5-0.7,1.2-0.7,2.1v4.1L99.7,170.4
			L99.7,170.4z"/>
		<path class="st1" d="M112.5,170.6c-0.8,0-1.4-0.2-2-0.5s-1.1-0.8-1.4-1.5s-0.5-1.4-0.5-2.2s0.2-1.6,0.5-2.2
			c0.3-0.6,0.8-1.1,1.4-1.5c0.6-0.3,1.3-0.5,2-0.5c0.9,0,1.7,0.2,2.4,0.7c0.6,0.5,1.1,1.2,1.2,2h-1.4c-0.1-0.5-0.4-0.9-0.8-1.1
			c-0.4-0.3-0.9-0.4-1.5-0.4c-0.5,0-0.9,0.1-1.3,0.3s-0.7,0.6-1,1c-0.2,0.4-0.4,1-0.4,1.7s0.1,1.2,0.4,1.7c0.2,0.4,0.6,0.8,1,1
			s0.8,0.3,1.3,0.3s1-0.1,1.5-0.4s0.7-0.7,0.8-1.2h1.4c-0.2,0.8-0.6,1.5-1.2,2C114.2,170.4,113.4,170.6,112.5,170.6z"/>
		<path class="st1" d="M121.6,170.6c-0.8,0-1.4-0.2-2-0.5s-1.1-0.8-1.4-1.4c-0.4-0.6-0.5-1.4-0.5-2.2s0.2-1.6,0.5-2.2
			c0.4-0.6,0.8-1.1,1.4-1.4c0.6-0.3,1.3-0.5,2-0.5s1.4,0.2,2,0.5s1.1,0.8,1.4,1.4c0.4,0.6,0.5,1.4,0.5,2.2s-0.2,1.6-0.5,2.2
			c-0.4,0.6-0.8,1.1-1.4,1.4S122.4,170.6,121.6,170.6z M121.6,169.5c0.5,0,0.9-0.1,1.3-0.3s0.7-0.6,1-1c0.2-0.5,0.4-1,0.4-1.7
			s-0.1-1.2-0.4-1.7c-0.2-0.5-0.6-0.8-1-1s-0.8-0.3-1.3-0.3s-0.9,0.1-1.3,0.3s-0.7,0.6-1,1s-0.4,1-0.4,1.7s0.1,1.2,0.4,1.7
			c0.2,0.4,0.6,0.8,1,1C120.7,169.3,121.1,169.5,121.6,169.5z"/>
		<path class="st1" d="M130.4,170.6c-0.9,0-1.7-0.3-2.2-0.9c-0.6-0.6-0.8-1.4-0.8-2.6v-4.6h1.3v4.5c0,1.6,0.7,2.5,2,2.5
			c0.7,0,1.3-0.2,1.7-0.7c0.5-0.5,0.7-1.2,0.7-2.1v-4.1h1.3v7.9h-1.2l-0.1-1.4c-0.2,0.5-0.6,0.9-1.1,1.2
			C131.5,170.5,131,170.6,130.4,170.6z"/>
		<path class="st1" d="M136.6,170.4v-7.9h1.2l0.1,1.5c0.2-0.5,0.6-0.9,1.1-1.2s1.1-0.5,1.9-0.5v1.4h-0.4c-0.5,0-0.9,0.1-1.3,0.2
			c-0.4,0.2-0.7,0.5-0.9,0.8c-0.2,0.4-0.3,0.9-0.3,1.6v4L136.6,170.4L136.6,170.4z"/>
		<path class="st1" d="M145.1,170.6c-0.7,0-1.2-0.1-1.6-0.3c-0.4-0.2-0.8-0.5-1-0.9s-0.3-0.8-0.3-1.2c0-0.8,0.3-1.4,0.9-1.9
			c0.6-0.4,1.5-0.7,2.5-0.7h2.1v-0.1c0-0.7-0.2-1.2-0.5-1.6c-0.4-0.4-0.8-0.5-1.5-0.5c-0.5,0-1,0.1-1.4,0.4s-0.6,0.6-0.7,1.1h-1.4
			c0.1-0.6,0.2-1.1,0.6-1.5c0.3-0.4,0.8-0.7,1.3-0.9s1-0.3,1.6-0.3c1.1,0,1.9,0.3,2.5,0.9c0.6,0.6,0.8,1.4,0.8,2.4v4.9h-1.2
			l-0.1-1.4c-0.2,0.5-0.6,0.8-1,1.1C146.4,170.5,145.8,170.6,145.1,170.6z M145.3,169.5c0.5,0,1-0.1,1.3-0.4c0.4-0.3,0.6-0.6,0.8-1
			s0.3-0.9,0.3-1.3l0,0h-2c-0.8,0-1.3,0.1-1.7,0.4c-0.3,0.3-0.5,0.6-0.5,1s0.1,0.8,0.5,1C144.3,169.3,144.7,169.5,145.3,169.5z"/>
		<path class="st1" d="M154.2,167.9c-0.5,0-0.9-0.1-1.2-0.2l-0.8,0.8c0.1,0.1,0.3,0.2,0.4,0.2c0.2,0.1,0.4,0.1,0.8,0.2
			c0.3,0.1,0.8,0.1,1.4,0.1c1.1,0.1,1.8,0.3,2.3,0.7s0.7,1,0.7,1.6c0,0.5-0.1,0.9-0.4,1.3c-0.2,0.4-0.6,0.8-1.1,1
			c-0.5,0.3-1.2,0.4-2,0.4c-0.7,0-1.3-0.1-1.9-0.3s-1-0.5-1.3-0.9s-0.5-0.9-0.5-1.4c0-0.3,0.1-0.6,0.2-1s0.5-0.7,0.9-1
			c-0.2-0.1-0.4-0.2-0.6-0.3c-0.2-0.1-0.3-0.2-0.5-0.4v-0.4l1.4-1.3c-0.6-0.5-0.9-1.2-0.9-2.1c0-0.5,0.1-1,0.4-1.4
			c0.2-0.4,0.6-0.8,1.1-1s1-0.4,1.7-0.4c0.5,0,0.9,0.1,1.2,0.2h2.9v1l-1.5,0.1c0.3,0.4,0.5,1,0.5,1.5s-0.1,1-0.4,1.4
			c-0.2,0.4-0.6,0.8-1.1,1C155.4,167.8,154.9,167.9,154.2,167.9z M151.9,171.4c0,0.5,0.2,0.9,0.7,1.2s1,0.4,1.7,0.4s1.2-0.1,1.6-0.4
			c0.4-0.3,0.6-0.7,0.6-1.1c0-0.3-0.1-0.6-0.4-0.9s-0.8-0.4-1.5-0.4c-0.6,0-1.1-0.1-1.5-0.2c-0.4,0.2-0.7,0.5-0.9,0.8
			C151.9,171,151.9,171.2,151.9,171.4z M154.2,166.8c0.6,0,1-0.1,1.3-0.4c0.3-0.3,0.5-0.7,0.5-1.3c0-0.5-0.2-1-0.5-1.3
			s-0.8-0.4-1.3-0.4c-0.6,0-1,0.1-1.4,0.4s-0.5,0.7-0.5,1.3c0,0.5,0.2,1,0.5,1.3C153.2,166.7,153.6,166.8,154.2,166.8z"/>
		<path class="st1" d="M163.1,170.6c-0.8,0-1.4-0.2-2-0.5s-1.1-0.8-1.4-1.4c-0.3-0.6-0.5-1.4-0.5-2.2s0.2-1.6,0.5-2.2
			s0.8-1.1,1.4-1.5c0.6-0.3,1.3-0.5,2.1-0.5s1.4,0.2,2,0.5c0.6,0.4,1,0.8,1.3,1.4c0.3,0.6,0.4,1.2,0.4,1.8c0,0.1,0,0.2,0,0.4
			c0,0.1,0,0.2,0,0.4h-6.3c0,0.6,0.2,1.1,0.4,1.5s0.6,0.7,0.9,0.9c0.4,0.2,0.8,0.3,1.2,0.3c0.6,0,1-0.1,1.4-0.4
			c0.4-0.3,0.7-0.6,0.8-1h1.3c-0.2,0.7-0.6,1.4-1.2,1.8C164.9,170.4,164.1,170.6,163.1,170.6z M163.1,163.4c-0.6,0-1.2,0.2-1.7,0.6
			c-0.5,0.4-0.8,1-0.9,1.7h5c0-0.7-0.3-1.3-0.7-1.7C164.4,163.6,163.8,163.4,163.1,163.4z"/>
		<path class="st1" d="M175.6,170.6c-0.7,0-1.2-0.1-1.7-0.3c-0.4-0.2-0.8-0.5-1-0.9s-0.3-0.8-0.3-1.2c0-0.8,0.3-1.4,0.9-1.9
			c0.6-0.4,1.5-0.7,2.5-0.7h2.1v-0.1c0-0.7-0.2-1.2-0.5-1.6c-0.4-0.4-0.8-0.5-1.5-0.5c-0.5,0-1,0.1-1.4,0.4
			c-0.4,0.3-0.6,0.6-0.7,1.1h-1.4c0.1-0.6,0.2-1.1,0.6-1.5c0.3-0.4,0.8-0.7,1.3-0.9s1-0.3,1.6-0.3c1.1,0,1.9,0.3,2.5,0.9
			c0.6,0.6,0.8,1.4,0.8,2.4v4.9h-1.2l-0.1-1.4c-0.2,0.5-0.6,0.8-1,1.1C176.9,170.5,176.3,170.6,175.6,170.6z M175.8,169.5
			c0.5,0,0.9-0.1,1.3-0.4c0.4-0.3,0.6-0.6,0.8-1s0.3-0.9,0.3-1.3l0,0h-2c-0.8,0-1.3,0.1-1.7,0.4c-0.3,0.3-0.5,0.6-0.5,1
			s0.2,0.8,0.5,1C174.8,169.3,175.2,169.5,175.8,169.5z"/>
		<path class="st1" d="M181.6,170.4v-7.9h1.2l0.1,1.4c0.3-0.5,0.6-0.9,1.1-1.2s1-0.4,1.6-0.4c0.9,0,1.7,0.3,2.2,0.9
			c0.6,0.6,0.8,1.4,0.8,2.6v4.6h-1.3v-4.5c0-1.6-0.7-2.5-2.1-2.5c-0.7,0-1.2,0.2-1.7,0.7c-0.4,0.5-0.7,1.2-0.7,2.1v4.1L181.6,170.4
			L181.6,170.4z"/>
		<path class="st1" d="M194.3,170.6c-0.8,0-1.5-0.2-2.1-0.5c-0.6-0.4-1.1-0.9-1.4-1.5s-0.5-1.3-0.5-2.1s0.2-1.5,0.5-2.1
			s0.8-1.1,1.4-1.5c0.6-0.4,1.3-0.5,2.1-0.5c0.6,0,1.2,0.1,1.7,0.4c0.5,0.3,0.9,0.6,1.2,1.1V159h1.3v11.5h-1.2l-0.1-1.3
			c-0.3,0.4-0.6,0.7-1.1,1C195.7,170.5,195.1,170.6,194.3,170.6z M194.5,169.4c0.5,0,1-0.1,1.4-0.4c0.4-0.2,0.7-0.6,1-1
			c0.2-0.5,0.3-1,0.3-1.6s-0.1-1.1-0.3-1.6c-0.2-0.4-0.6-0.8-1-1s-0.9-0.4-1.4-0.4s-1,0.1-1.4,0.4s-0.7,0.6-1,1
			c-0.2,0.5-0.3,1-0.3,1.6s0.1,1.1,0.3,1.6c0.2,0.4,0.6,0.8,1,1S194,169.4,194.5,169.4z"/>
		<path class="st1" d="M208.1,170.6c-0.9,0-1.7-0.2-2.4-0.7c-0.6-0.5-1-1.1-1.1-2h1.4c0.1,0.4,0.3,0.8,0.7,1.1s0.8,0.5,1.4,0.5
			c0.6,0,1-0.1,1.2-0.4c0.3-0.2,0.4-0.5,0.4-0.9c0-0.5-0.2-0.8-0.5-1c-0.4-0.2-0.8-0.3-1.5-0.4c-0.4-0.1-0.9-0.2-1.3-0.4
			c-0.4-0.2-0.8-0.4-1.1-0.7s-0.4-0.7-0.4-1.2c0-0.7,0.3-1.3,0.8-1.7s1.2-0.7,2.1-0.7c0.8,0,1.5,0.2,2.1,0.6c0.5,0.4,0.9,1,0.9,1.8
			h-1.3c-0.1-0.4-0.2-0.7-0.5-1c-0.3-0.2-0.7-0.3-1.2-0.3s-0.9,0.1-1.1,0.3c-0.3,0.2-0.4,0.5-0.4,0.8s0.2,0.6,0.5,0.8
			s0.8,0.3,1.4,0.5c0.5,0.1,1,0.2,1.4,0.4c0.4,0.1,0.8,0.4,1.1,0.7s0.4,0.7,0.4,1.3c0,0.7-0.3,1.3-0.8,1.8
			C209.8,170.4,209,170.6,208.1,170.6z"/>
		<path class="st1" d="M215.9,170.6c-0.9,0-1.7-0.3-2.2-0.9c-0.5-0.6-0.8-1.4-0.8-2.6v-4.6h1.3v4.5c0,1.6,0.7,2.5,2,2.5
			c0.7,0,1.3-0.2,1.7-0.7s0.7-1.2,0.7-2.1v-4.1h1.3v7.9h-1.2l-0.1-1.4c-0.2,0.5-0.6,0.9-1.1,1.2
			C217.1,170.5,216.5,170.6,215.9,170.6z"/>
		<path class="st1" d="M222.2,173.9v-11.5h1.2l0.1,1.3c0.3-0.4,0.6-0.7,1.1-1s1.1-0.5,1.8-0.5c0.8,0,1.5,0.2,2.1,0.5
			c0.6,0.4,1,0.9,1.4,1.5s0.5,1.3,0.5,2.1s-0.2,1.5-0.5,2.1s-0.8,1.1-1.4,1.5c-0.6,0.4-1.3,0.5-2.1,0.5c-0.6,0-1.2-0.1-1.7-0.4
			c-0.5-0.3-0.9-0.6-1.2-1.1v4.9L222.2,173.9L222.2,173.9z M226.3,169.4c0.5,0,1-0.1,1.4-0.4c0.4-0.2,0.7-0.6,1-1
			c0.2-0.5,0.4-1,0.4-1.6s-0.1-1.1-0.4-1.6c-0.2-0.4-0.6-0.8-1-1s-0.9-0.4-1.4-0.4s-1,0.1-1.4,0.4s-0.7,0.6-1,1
			c-0.2,0.5-0.3,1-0.3,1.6s0.1,1.1,0.3,1.6c0.2,0.4,0.6,0.8,1,1S225.7,169.4,226.3,169.4z"/>
		<path class="st1" d="M232.2,173.9v-11.5h1.2l0.1,1.3c0.3-0.4,0.6-0.7,1.1-1s1.1-0.5,1.8-0.5c0.8,0,1.5,0.2,2.1,0.5
			c0.6,0.4,1,0.9,1.4,1.5c0.3,0.6,0.5,1.3,0.5,2.1s-0.2,1.5-0.5,2.1s-0.8,1.1-1.4,1.5c-0.6,0.4-1.3,0.5-2.1,0.5
			c-0.6,0-1.2-0.1-1.7-0.4c-0.5-0.3-0.9-0.6-1.2-1.1v4.9L232.2,173.9L232.2,173.9z M236.3,169.4c0.5,0,1-0.1,1.4-0.4s0.7-0.6,1-1
			c0.2-0.5,0.4-1,0.4-1.6s-0.1-1.1-0.4-1.6c-0.2-0.4-0.6-0.8-1-1s-0.9-0.4-1.4-0.4s-1,0.1-1.4,0.4s-0.7,0.6-1,1
			c-0.2,0.5-0.4,1-0.4,1.6s0.1,1.1,0.4,1.6c0.2,0.4,0.5,0.8,1,1S235.8,169.4,236.3,169.4z"/>
		<path class="st1" d="M245.9,170.6c-0.8,0-1.4-0.2-2-0.5s-1.1-0.8-1.4-1.4c-0.4-0.6-0.5-1.4-0.5-2.2s0.2-1.6,0.5-2.2
			s0.8-1.1,1.4-1.4c0.6-0.3,1.3-0.5,2-0.5s1.4,0.2,2,0.5s1.1,0.8,1.4,1.4c0.4,0.6,0.5,1.4,0.5,2.2s-0.2,1.6-0.5,2.2
			c-0.4,0.6-0.8,1.1-1.4,1.4S246.6,170.6,245.9,170.6z M245.9,169.5c0.5,0,0.9-0.1,1.3-0.3c0.4-0.2,0.7-0.6,1-1
			c0.2-0.5,0.4-1,0.4-1.7s-0.1-1.2-0.4-1.7c-0.2-0.5-0.6-0.8-1-1s-0.8-0.3-1.3-0.3s-0.9,0.1-1.3,0.3c-0.4,0.2-0.7,0.6-1,1
			s-0.4,1-0.4,1.7s0.1,1.2,0.4,1.7c0.2,0.4,0.6,0.8,1,1C245,169.3,245.4,169.5,245.9,169.5z"/>
		<path class="st1" d="M251.7,170.4v-7.9h1.2l0.1,1.5c0.2-0.5,0.6-0.9,1.1-1.2s1.1-0.5,1.9-0.5v1.4h-0.4c-0.5,0-0.9,0.1-1.3,0.2
			c-0.4,0.2-0.7,0.5-0.9,0.8c-0.2,0.4-0.4,0.9-0.4,1.6v4L251.7,170.4L251.7,170.4z"/>
		<path class="st1" d="M260.7,170.4c-0.7,0-1.3-0.2-1.7-0.5s-0.6-1-0.6-1.9v-4.4H257v-1.1h1.4l0.2-1.9h1.2v1.9h2.3v1.1h-2.3v4.4
			c0,0.5,0.1,0.8,0.3,1c0.2,0.2,0.6,0.3,1.1,0.3h0.8v1.1L260.7,170.4L260.7,170.4z"/>
		<path class="st1" d="M29.3,195.9l2-4.3h-0.5l-3.2-7.2h1.5l2.6,6.2l2.8-6.2h1.4l-5.2,11.5H29.3z"/>
		<path class="st1" d="M40.2,192.6c-0.8,0-1.4-0.2-2-0.5s-1.1-0.8-1.4-1.4c-0.4-0.6-0.5-1.4-0.5-2.2s0.2-1.6,0.5-2.2
			c0.4-0.6,0.8-1.1,1.4-1.4c0.6-0.3,1.3-0.5,2-0.5s1.4,0.2,2,0.5s1.1,0.8,1.4,1.4c0.3,0.6,0.5,1.4,0.5,2.2s-0.2,1.6-0.5,2.2
			c-0.4,0.6-0.8,1.1-1.4,1.4S41,192.6,40.2,192.6z M40.2,191.5c0.5,0,0.9-0.1,1.3-0.3c0.4-0.2,0.7-0.6,1-1c0.2-0.5,0.4-1,0.4-1.7
			s-0.1-1.2-0.4-1.7c-0.2-0.5-0.6-0.8-0.9-1c-0.4-0.2-0.8-0.3-1.3-0.3s-0.9,0.1-1.3,0.3c-0.4,0.2-0.7,0.6-1,1s-0.4,1-0.4,1.7
			s0.1,1.2,0.4,1.7c0.2,0.4,0.6,0.8,1,1C39.3,191.3,39.8,191.5,40.2,191.5z"/>
		<path class="st1" d="M49,192.6c-0.9,0-1.7-0.3-2.2-0.9c-0.6-0.6-0.8-1.4-0.8-2.6v-4.6h1.3v4.5c0,1.6,0.7,2.5,2,2.5
			c0.7,0,1.3-0.2,1.7-0.7s0.7-1.2,0.7-2.1v-4.1H53v7.9h-1.2l-0.1-1.4c-0.2,0.5-0.6,0.9-1.1,1.2C50.1,192.5,49.6,192.6,49,192.6z"/>
		<path class="st1" d="M54.2,194.3l0.9-3.5h1.4l-1.4,3.5H54.2z"/>
		<path class="st1" d="M65.9,192.6c-0.8,0-1.4-0.2-2-0.5c-0.6-0.3-1-0.8-1.4-1.4c-0.3-0.6-0.5-1.4-0.5-2.2s0.2-1.6,0.5-2.2
			s0.8-1.1,1.4-1.5c0.6-0.3,1.3-0.5,2.1-0.5c0.8,0,1.4,0.2,2,0.5c0.6,0.4,1,0.8,1.3,1.4c0.3,0.6,0.4,1.2,0.4,1.8c0,0.1,0,0.2,0,0.4
			c0,0.1,0,0.2,0,0.4h-6.3c0,0.6,0.2,1.1,0.4,1.5s0.6,0.7,0.9,0.9c0.4,0.2,0.8,0.3,1.2,0.3c0.5,0,1-0.1,1.4-0.4
			c0.4-0.3,0.7-0.6,0.8-1h1.3c-0.2,0.7-0.6,1.4-1.2,1.8C67.6,192.4,66.8,192.6,65.9,192.6z M65.9,185.4c-0.6,0-1.2,0.2-1.7,0.6
			c-0.5,0.4-0.8,1-0.9,1.7h5c0-0.7-0.3-1.3-0.7-1.7C67.1,185.6,66.6,185.4,65.9,185.4z"/>
		<path class="st1" d="M74.5,192.6c-1,0-1.7-0.2-2.4-0.7c-0.6-0.5-1-1.1-1.1-2h1.4c0.1,0.4,0.3,0.8,0.7,1.1c0.4,0.3,0.8,0.5,1.4,0.5
			s1-0.1,1.2-0.4c0.3-0.2,0.4-0.5,0.4-0.9c0-0.5-0.2-0.8-0.5-1s-0.8-0.3-1.5-0.4c-0.4-0.1-0.8-0.2-1.3-0.4s-0.8-0.4-1.1-0.7
			s-0.4-0.7-0.4-1.2c0-0.7,0.3-1.3,0.8-1.7s1.2-0.7,2.1-0.7c0.8,0,1.5,0.2,2.1,0.6c0.5,0.4,0.8,1,0.9,1.8h-1.3
			c-0.1-0.4-0.2-0.7-0.5-1c-0.3-0.2-0.7-0.3-1.2-0.3s-0.9,0.1-1.1,0.3c-0.3,0.2-0.4,0.5-0.4,0.8s0.2,0.6,0.5,0.8s0.8,0.3,1.4,0.5
			c0.5,0.1,1,0.2,1.4,0.4s0.8,0.4,1.1,0.7c0.3,0.3,0.4,0.7,0.4,1.3c0,0.7-0.3,1.3-0.8,1.8C76.1,192.4,75.4,192.6,74.5,192.6z"/>
		<path class="st1" d="M79.4,195.9v-11.5h1.2l0.1,1.3c0.3-0.4,0.6-0.7,1.1-1s1.1-0.5,1.8-0.5c0.8,0,1.5,0.2,2.1,0.5
			c0.6,0.4,1,0.9,1.4,1.5s0.5,1.3,0.5,2.1s-0.2,1.5-0.5,2.1s-0.8,1.1-1.4,1.5s-1.3,0.5-2.1,0.5c-0.7,0-1.2-0.1-1.7-0.4
			c-0.5-0.3-0.9-0.6-1.2-1.1v4.9L79.4,195.9L79.4,195.9z M83.5,191.4c0.5,0,1-0.1,1.4-0.4c0.4-0.2,0.7-0.6,1-1
			c0.2-0.5,0.4-1,0.4-1.6s-0.1-1.1-0.4-1.6c-0.2-0.4-0.6-0.8-1-1s-0.9-0.4-1.4-0.4s-1,0.1-1.4,0.4c-0.4,0.2-0.7,0.6-1,1
			c-0.2,0.5-0.3,1-0.3,1.6s0.1,1.1,0.3,1.6c0.2,0.4,0.6,0.8,1,1C82.5,191.3,83,191.4,83.5,191.4z"/>
		<path class="st1" d="M93,192.6c-0.8,0-1.4-0.2-2-0.5s-1.1-0.8-1.4-1.4c-0.3-0.6-0.5-1.4-0.5-2.2s0.2-1.6,0.5-2.2
			c0.3-0.6,0.8-1.1,1.4-1.5c0.6-0.3,1.3-0.5,2.1-0.5c0.8,0,1.4,0.2,2,0.5c0.6,0.4,1,0.8,1.3,1.4c0.3,0.6,0.5,1.2,0.5,1.8
			c0,0.1,0,0.2,0,0.4s0,0.2,0,0.4h-6.3c0,0.6,0.2,1.1,0.4,1.5s0.6,0.7,0.9,0.9c0.4,0.2,0.8,0.3,1.2,0.3c0.6,0,1-0.1,1.4-0.4
			c0.4-0.2,0.6-0.6,0.8-1h1.3c-0.2,0.7-0.6,1.4-1.2,1.8C94.7,192.4,94,192.6,93,192.6z M93,185.4c-0.6,0-1.2,0.2-1.7,0.6
			c-0.5,0.4-0.8,1-0.9,1.7h5c0-0.7-0.3-1.3-0.7-1.7C94.3,185.6,93.7,185.4,93,185.4z"/>
		<path class="st1" d="M102.2,192.6c-0.8,0-1.4-0.2-2-0.5s-1.1-0.8-1.4-1.5s-0.5-1.4-0.5-2.2s0.2-1.6,0.5-2.2s0.8-1.1,1.4-1.5
			c0.6-0.3,1.3-0.5,2-0.5c0.9,0,1.7,0.2,2.4,0.7c0.7,0.5,1.1,1.2,1.2,2h-1.4c-0.1-0.5-0.4-0.9-0.8-1.1c-0.4-0.3-0.9-0.4-1.5-0.4
			c-0.5,0-0.9,0.1-1.3,0.3s-0.7,0.6-1,1c-0.2,0.4-0.4,1-0.4,1.7s0.1,1.2,0.4,1.7c0.2,0.4,0.6,0.8,1,1s0.8,0.3,1.3,0.3s1-0.1,1.5-0.4
			s0.7-0.7,0.8-1.2h1.4c-0.2,0.8-0.6,1.5-1.2,2C103.9,192.4,103.2,192.6,102.2,192.6z"/>
		<path class="st1" d="M108.5,182.7c-0.3,0-0.5-0.1-0.7-0.3s-0.3-0.4-0.3-0.7s0.1-0.5,0.3-0.6c0.2-0.2,0.4-0.3,0.7-0.3
			s0.5,0.1,0.7,0.3s0.3,0.4,0.3,0.6c0,0.3-0.1,0.5-0.3,0.7C109,182.6,108.8,182.7,108.5,182.7z M107.8,192.4v-7.9h1.3v7.9H107.8z"/>
		<path class="st1" d="M114.1,192.6c-0.7,0-1.2-0.1-1.6-0.3s-0.8-0.5-1-0.9s-0.3-0.8-0.3-1.2c0-0.8,0.3-1.4,0.9-1.9
			c0.6-0.4,1.5-0.7,2.5-0.7h2.1v-0.1c0-0.7-0.2-1.2-0.5-1.6c-0.4-0.4-0.9-0.5-1.5-0.5c-0.5,0-1,0.1-1.3,0.4s-0.6,0.6-0.7,1.1h-1.4
			c0-0.6,0.2-1.1,0.6-1.5c0.3-0.4,0.8-0.7,1.3-0.9s1-0.3,1.6-0.3c1.1,0,1.9,0.3,2.5,0.9c0.6,0.6,0.8,1.4,0.8,2.4v4.9h-1.2l-0.1-1.4
			c-0.2,0.5-0.6,0.8-1,1.1C115.4,192.5,114.9,192.6,114.1,192.6z M114.4,191.5c0.5,0,0.9-0.1,1.3-0.4c0.4-0.3,0.7-0.6,0.8-1
			c0.2-0.4,0.3-0.9,0.3-1.3l0,0h-2c-0.8,0-1.4,0.1-1.7,0.4c-0.3,0.3-0.5,0.6-0.5,1s0.1,0.8,0.5,1
			C113.4,191.3,113.8,191.5,114.4,191.5z"/>
		<path class="st1" d="M120.2,192.4v-11.5h1.3v11.5H120.2z"/>
		<path class="st1" d="M123.7,192.4v-11.5h1.3v11.5H123.7z"/>
		<path class="st1" d="M128.1,195.9l2-4.3h-0.5l-3.1-7.2h1.5l2.6,6.2l2.8-6.2h1.4l-5.2,11.5H128.1z"/>
		<path class="st1" d="M142,192.4l-2.3-7.9h1.3l1.7,6.2l1.9-6.2h1.5l1.9,6.2l1.7-6.2h1.4l-2.3,7.9h-1.4l-1.9-6.5l-2,6.5H142z"/>
		<path class="st1" d="M152.5,192.4v-11.5h1.3v4.9c0.3-0.5,0.6-0.9,1.1-1.1c0.5-0.3,1-0.4,1.6-0.4c0.9,0,1.7,0.3,2.2,0.9
			c0.6,0.6,0.8,1.4,0.8,2.6v4.6h-1.3v-4.5c0-1.6-0.7-2.5-2-2.5c-0.7,0-1.3,0.2-1.7,0.7c-0.5,0.5-0.7,1.2-0.7,2.1v4.1L152.5,192.4
			L152.5,192.4z"/>
		<path class="st1" d="M165.2,192.6c-0.8,0-1.4-0.2-2-0.5s-1.1-0.8-1.4-1.4c-0.3-0.6-0.5-1.4-0.5-2.2s0.2-1.6,0.5-2.2
			s0.8-1.1,1.4-1.5c0.6-0.3,1.3-0.5,2.1-0.5s1.4,0.2,2,0.5c0.6,0.4,1,0.8,1.3,1.4c0.3,0.6,0.4,1.2,0.4,1.8c0,0.1,0,0.2,0,0.4
			c0,0.1,0,0.2,0,0.4h-6.3c0,0.6,0.2,1.1,0.4,1.5s0.6,0.7,0.9,0.9c0.4,0.2,0.8,0.3,1.2,0.3c0.6,0,1-0.1,1.4-0.4
			c0.4-0.3,0.6-0.6,0.8-1h1.3c-0.2,0.7-0.6,1.4-1.2,1.8C166.9,192.4,166.1,192.6,165.2,192.6z M165.2,185.4c-0.6,0-1.2,0.2-1.7,0.6
			c-0.5,0.4-0.8,1-0.9,1.7h5c0-0.7-0.3-1.3-0.7-1.7C166.4,185.6,165.9,185.4,165.2,185.4z"/>
		<path class="st1" d="M170.7,192.4v-7.9h1.2l0.1,1.4c0.3-0.5,0.6-0.9,1.1-1.2s1-0.4,1.6-0.4c0.9,0,1.7,0.3,2.2,0.9
			c0.6,0.6,0.8,1.4,0.8,2.6v4.6h-1.3v-4.5c0-1.6-0.7-2.5-2.1-2.5c-0.7,0-1.2,0.2-1.7,0.7c-0.4,0.5-0.7,1.2-0.7,2.1v4.1L170.7,192.4
			L170.7,192.4z"/>
		<path class="st1" d="M185,195.9l2-4.3h-0.5l-3.1-7.2h1.5l2.6,6.2l2.8-6.2h1.4l-5.2,11.5H185z"/>
		<path class="st1" d="M195.9,192.6c-0.8,0-1.4-0.2-2-0.5s-1.1-0.8-1.4-1.4c-0.3-0.6-0.5-1.4-0.5-2.2s0.2-1.6,0.5-2.2
			c0.3-0.6,0.8-1.1,1.4-1.4c0.6-0.3,1.3-0.5,2-0.5s1.4,0.2,2,0.5s1.1,0.8,1.4,1.4c0.3,0.6,0.5,1.4,0.5,2.2s-0.2,1.6-0.5,2.2
			c-0.4,0.6-0.8,1.1-1.4,1.4S196.6,192.6,195.9,192.6z M195.9,191.5c0.5,0,0.9-0.1,1.3-0.3c0.4-0.2,0.7-0.6,1-1
			c0.2-0.5,0.4-1,0.4-1.7s-0.1-1.2-0.4-1.7c-0.2-0.5-0.6-0.8-0.9-1c-0.4-0.2-0.8-0.3-1.3-0.3s-0.9,0.1-1.3,0.3c-0.4,0.2-0.7,0.6-1,1
			s-0.4,1-0.4,1.7s0.1,1.2,0.4,1.7c0.2,0.4,0.6,0.8,0.9,1C195,191.3,195.4,191.5,195.9,191.5z"/>
		<path class="st1" d="M204.6,192.6c-0.9,0-1.7-0.3-2.2-0.9c-0.6-0.6-0.8-1.4-0.8-2.6v-4.6h1.3v4.5c0,1.6,0.7,2.5,2,2.5
			c0.7,0,1.3-0.2,1.7-0.7s0.7-1.2,0.7-2.1v-4.1h1.3v7.9h-1.2l-0.1-1.4c-0.2,0.5-0.6,0.9-1.1,1.2
			C205.8,192.5,205.2,192.6,204.6,192.6z"/>
		<path class="st1" d="M210.3,184.8l0.9-3.6h1.5l-1.5,3.6H210.3z"/>
		<path class="st1" d="M214.3,192.4v-7.9h1.2l0.1,1.5c0.2-0.5,0.6-0.9,1.1-1.2s1.1-0.5,1.9-0.5v1.4h-0.4c-0.5,0-0.9,0.1-1.3,0.2
			c-0.4,0.2-0.7,0.5-0.9,0.8c-0.2,0.4-0.4,0.9-0.4,1.6v4L214.3,192.4L214.3,192.4z"/>
		<path class="st1" d="M223.4,192.6c-0.8,0-1.4-0.2-2-0.5s-1.1-0.8-1.4-1.4c-0.3-0.6-0.5-1.4-0.5-2.2s0.2-1.6,0.5-2.2
			c0.3-0.6,0.8-1.1,1.4-1.5c0.6-0.3,1.3-0.5,2.1-0.5s1.4,0.2,2,0.5c0.6,0.4,1,0.8,1.3,1.4c0.3,0.6,0.5,1.2,0.5,1.8
			c0,0.1,0,0.2,0,0.4c0,0.1,0,0.2,0,0.4H221c0,0.6,0.2,1.1,0.4,1.5s0.6,0.7,0.9,0.9c0.4,0.2,0.8,0.3,1.2,0.3c0.6,0,1-0.1,1.4-0.4
			s0.6-0.6,0.8-1h1.3c-0.2,0.7-0.6,1.4-1.2,1.8C225.1,192.4,224.3,192.6,223.4,192.6z M223.4,185.4c-0.6,0-1.2,0.2-1.7,0.6
			c-0.5,0.4-0.8,1-0.9,1.7h5c0-0.7-0.3-1.3-0.7-1.7C224.6,185.6,224,185.4,223.4,185.4z"/>
		<path class="st1" d="M28.5,214.4v-11.5h1.3v11.5H28.5z"/>
		<path class="st1" d="M34.6,214.6c-0.7,0-1.2-0.1-1.6-0.3c-0.4-0.2-0.8-0.5-1-0.9s-0.3-0.8-0.3-1.2c0-0.8,0.3-1.4,0.9-1.9
			c0.6-0.4,1.5-0.7,2.5-0.7h2.1v-0.1c0-0.7-0.2-1.2-0.5-1.6c-0.4-0.4-0.8-0.5-1.5-0.5c-0.5,0-1,0.1-1.3,0.4
			c-0.4,0.3-0.6,0.6-0.7,1.1h-1.4c0-0.6,0.2-1.1,0.6-1.5c0.3-0.4,0.8-0.7,1.3-0.9s1-0.3,1.6-0.3c1.1,0,1.9,0.3,2.5,0.9
			c0.6,0.6,0.8,1.4,0.8,2.4v4.9h-1.2l-0.1-1.4c-0.2,0.5-0.6,0.8-1,1.1C36,214.5,35.4,214.6,34.6,214.6z M34.9,213.5
			c0.5,0,0.9-0.1,1.3-0.4c0.4-0.3,0.6-0.6,0.8-1s0.3-0.9,0.3-1.3l0,0h-2c-0.8,0-1.3,0.1-1.7,0.4c-0.3,0.3-0.5,0.6-0.5,1
			s0.2,0.8,0.5,1C33.9,213.3,34.3,213.5,34.9,213.5z"/>
		<path class="st1" d="M44.3,214.6c-0.8,0-1.4-0.2-2-0.5s-1.1-0.8-1.4-1.5s-0.5-1.4-0.5-2.2s0.2-1.6,0.5-2.2
			c0.4-0.6,0.8-1.1,1.4-1.5c0.6-0.3,1.3-0.5,2-0.5c0.9,0,1.7,0.2,2.4,0.7s1.1,1.2,1.2,2h-1.4c-0.1-0.5-0.4-0.9-0.8-1.1
			c-0.4-0.3-0.9-0.4-1.5-0.4c-0.4,0-0.9,0.1-1.3,0.3c-0.4,0.2-0.7,0.6-1,1c-0.2,0.4-0.4,1-0.4,1.7s0.1,1.2,0.4,1.7
			c0.2,0.5,0.6,0.8,1,1s0.8,0.3,1.3,0.3c0.6,0,1-0.1,1.5-0.4c0.4-0.3,0.7-0.7,0.8-1.2h1.4c-0.2,0.8-0.6,1.5-1.2,2
			C46,214.4,45.2,214.6,44.3,214.6z"/>
		<path class="st1" d="M49.8,214.4v-11.5h1.3v6.9l3.2-3.3H56l-3.5,3.6l4,4.4h-1.7l-3.6-4.1v4.1L49.8,214.4L49.8,214.4z"/>
		<path class="st1" d="M58.7,204.7c-0.3,0-0.5-0.1-0.7-0.3s-0.3-0.4-0.3-0.7s0.1-0.5,0.3-0.6c0.2-0.2,0.4-0.3,0.7-0.3
			s0.5,0.1,0.7,0.3s0.3,0.4,0.3,0.6c0,0.3-0.1,0.5-0.3,0.7C59.1,204.6,58.9,204.7,58.7,204.7z M58,214.4v-7.9h1.3v7.9H58z"/>
		<path class="st1" d="M61.7,214.4v-7.9h1.2l0.1,1.4c0.3-0.5,0.6-0.9,1.1-1.2c0.5-0.3,1-0.4,1.6-0.4c0.9,0,1.7,0.3,2.2,0.9
			c0.6,0.6,0.8,1.4,0.8,2.6v4.6h-1.3v-4.5c0-1.6-0.7-2.5-2.1-2.5c-0.7,0-1.2,0.2-1.7,0.7c-0.5,0.5-0.7,1.2-0.7,2.1v4.1L61.7,214.4
			L61.7,214.4z"/>
		<path class="st1" d="M74,211.9c-0.5,0-0.9-0.1-1.2-0.2l-0.8,0.8c0.1,0.1,0.3,0.2,0.4,0.2s0.4,0.1,0.8,0.2c0.3,0.1,0.8,0.1,1.4,0.1
			c1.1,0.1,1.8,0.3,2.3,0.7s0.7,1,0.7,1.6c0,0.5-0.1,0.9-0.4,1.3c-0.2,0.4-0.6,0.8-1.1,1c-0.5,0.3-1.2,0.4-2,0.4
			c-0.7,0-1.3-0.1-1.9-0.3c-0.5-0.2-1-0.5-1.3-0.9s-0.5-0.9-0.5-1.4c0-0.3,0.1-0.6,0.2-1c0.2-0.4,0.5-0.7,0.9-1
			c-0.2-0.1-0.4-0.2-0.6-0.3s-0.3-0.2-0.5-0.4v-0.4l1.4-1.3c-0.6-0.5-0.9-1.2-0.9-2.1c0-0.5,0.1-1,0.4-1.4c0.2-0.4,0.6-0.8,1.1-1
			s1-0.4,1.7-0.4c0.5,0,0.9,0.1,1.2,0.2h2.9v1l-1.5,0.1c0.3,0.4,0.5,1,0.5,1.5s-0.1,1-0.4,1.4c-0.2,0.4-0.6,0.8-1.1,1
			C75.2,211.8,74.6,211.9,74,211.9z M71.6,215.4c0,0.5,0.2,0.9,0.7,1.2s1,0.4,1.7,0.4s1.2-0.1,1.6-0.4c0.4-0.3,0.6-0.7,0.6-1.1
			c0-0.3-0.1-0.6-0.4-0.9c-0.3-0.2-0.8-0.4-1.5-0.4c-0.6,0-1.1-0.1-1.5-0.2c-0.4,0.2-0.7,0.5-0.9,0.8
			C71.7,215,71.6,215.2,71.6,215.4z M74,210.8c0.6,0,1-0.1,1.3-0.4c0.3-0.3,0.5-0.7,0.5-1.3c0-0.5-0.2-1-0.5-1.3s-0.8-0.4-1.3-0.4
			c-0.6,0-1,0.1-1.4,0.4c-0.3,0.3-0.5,0.7-0.5,1.3c0,0.5,0.2,1,0.5,1.3C72.9,210.7,73.4,210.8,74,210.8z"/>
		<path class="st1" d="M83.9,214.4v-7.9h1.2l0.1,1.1c0.3-0.4,0.6-0.8,1-1s0.9-0.4,1.4-0.4c0.6,0,1.2,0.1,1.6,0.4
			c0.4,0.3,0.8,0.6,1,1.2c0.3-0.5,0.7-0.9,1.1-1.1c0.5-0.3,1-0.4,1.6-0.4c1,0,1.7,0.3,2.3,0.9c0.6,0.6,0.8,1.4,0.8,2.6v4.6h-1.3
			v-4.5c0-0.8-0.2-1.4-0.5-1.9c-0.3-0.4-0.8-0.6-1.4-0.6s-1.2,0.2-1.6,0.7s-0.6,1.2-0.6,2.1v4.1h-1.3v-4.5c0-0.8-0.2-1.4-0.5-1.9
			c-0.3-0.4-0.8-0.6-1.4-0.6s-1.2,0.2-1.6,0.7s-0.6,1.2-0.6,2.1v4.1L83.9,214.4L83.9,214.4z"/>
		<path class="st1" d="M101.8,214.6c-0.8,0-1.4-0.2-2-0.5s-1.1-0.8-1.4-1.4c-0.3-0.6-0.5-1.4-0.5-2.2s0.2-1.6,0.5-2.2
			s0.8-1.1,1.4-1.4s1.3-0.5,2-0.5s1.4,0.2,2,0.5s1.1,0.8,1.4,1.4c0.4,0.6,0.5,1.4,0.5,2.2s-0.2,1.6-0.5,2.2
			c-0.4,0.6-0.8,1.1-1.4,1.4C103.2,214.4,102.6,214.6,101.8,214.6z M101.8,213.5c0.5,0,0.9-0.1,1.3-0.3s0.7-0.6,1-1
			c0.2-0.5,0.4-1,0.4-1.7s-0.1-1.2-0.4-1.7c-0.2-0.5-0.6-0.8-0.9-1c-0.4-0.2-0.8-0.3-1.3-0.3s-0.9,0.1-1.3,0.3s-0.7,0.6-1,1
			s-0.4,1-0.4,1.7s0.1,1.2,0.4,1.7c0.2,0.4,0.6,0.8,0.9,1C101,213.3,101.4,213.5,101.8,213.5z"/>
		<path class="st1" d="M110.5,214.4c-0.7,0-1.3-0.2-1.7-0.5c-0.4-0.4-0.6-1-0.6-1.9v-4.4h-1.4v-1.1h1.4l0.2-1.9h1.2v1.9h2.3v1.1
			h-2.3v4.4c0,0.5,0.1,0.8,0.3,1c0.2,0.2,0.6,0.3,1.1,0.3h0.8v1.1L110.5,214.4L110.5,214.4z"/>
		<path class="st1" d="M114.4,204.7c-0.3,0-0.5-0.1-0.7-0.3s-0.3-0.4-0.3-0.7s0.1-0.5,0.3-0.6c0.2-0.2,0.4-0.3,0.7-0.3
			c0.3,0,0.5,0.1,0.7,0.3s0.3,0.4,0.3,0.6c0,0.3-0.1,0.5-0.3,0.7C114.8,204.6,114.6,204.7,114.4,204.7z M113.7,214.4v-7.9h1.3v7.9
			H113.7z"/>
		<path class="st1" d="M119.7,214.4l-3-7.9h1.4l2.4,6.6l2.4-6.6h1.4l-3,7.9H119.7z"/>
		<path class="st1" d="M127.9,214.6c-0.7,0-1.2-0.1-1.6-0.3s-0.8-0.5-1-0.9s-0.3-0.8-0.3-1.2c0-0.8,0.3-1.4,0.9-1.9
			c0.6-0.4,1.5-0.7,2.5-0.7h2.1v-0.1c0-0.7-0.2-1.2-0.5-1.6c-0.4-0.4-0.8-0.5-1.5-0.5c-0.5,0-1,0.1-1.4,0.4s-0.6,0.6-0.7,1.1H125
			c0.1-0.6,0.2-1.1,0.6-1.5c0.3-0.4,0.8-0.7,1.3-0.9s1-0.3,1.6-0.3c1.1,0,1.9,0.3,2.5,0.9c0.6,0.6,0.8,1.4,0.8,2.4v4.9h-1.2
			l-0.1-1.4c-0.2,0.5-0.6,0.8-1,1.1C129.3,214.5,128.7,214.6,127.9,214.6z M128.2,213.5c0.5,0,0.9-0.1,1.3-0.4
			c0.4-0.3,0.7-0.6,0.8-1c0.2-0.4,0.3-0.9,0.3-1.3l0,0h-2c-0.8,0-1.4,0.1-1.7,0.4c-0.3,0.3-0.5,0.6-0.5,1s0.2,0.8,0.5,1
			C127.2,213.3,127.6,213.5,128.2,213.5z"/>
		<path class="st1" d="M136.9,214.4c-0.7,0-1.3-0.2-1.7-0.5s-0.6-1-0.6-1.9v-4.4h-1.4v-1.1h1.4l0.2-1.9h1.2v1.9h2.3v1.1H136v4.4
			c0,0.5,0.1,0.8,0.3,1s0.6,0.3,1.1,0.3h0.8v1.1L136.9,214.4L136.9,214.4z"/>
		<path class="st1" d="M140.8,204.7c-0.3,0-0.5-0.1-0.7-0.3s-0.3-0.4-0.3-0.7s0.1-0.5,0.3-0.6c0.2-0.2,0.4-0.3,0.7-0.3
			s0.5,0.1,0.7,0.3s0.3,0.4,0.3,0.6c0,0.3-0.1,0.5-0.3,0.7C141.2,204.6,141,204.7,140.8,204.7z M140.1,214.4v-7.9h1.3v7.9H140.1z"/>
		<path class="st1" d="M147.4,214.6c-0.8,0-1.4-0.2-2-0.5s-1.1-0.8-1.4-1.4c-0.4-0.6-0.5-1.4-0.5-2.2s0.2-1.6,0.5-2.2
			c0.4-0.6,0.8-1.1,1.4-1.4c0.6-0.3,1.3-0.5,2-0.5s1.4,0.2,2,0.5s1.1,0.8,1.4,1.4c0.4,0.6,0.5,1.4,0.5,2.2s-0.2,1.6-0.5,2.2
			c-0.4,0.6-0.8,1.1-1.4,1.4S148.1,214.6,147.4,214.6z M147.4,213.5c0.5,0,0.9-0.1,1.3-0.3c0.4-0.2,0.7-0.6,1-1
			c0.2-0.5,0.4-1,0.4-1.7s-0.1-1.2-0.4-1.7c-0.2-0.5-0.6-0.8-1-1s-0.8-0.3-1.3-0.3s-0.9,0.1-1.3,0.3c-0.4,0.2-0.7,0.6-1,1
			s-0.4,1-0.4,1.7s0.1,1.2,0.4,1.7c0.2,0.4,0.6,0.8,1,1C146.5,213.3,146.9,213.5,147.4,213.5z"/>
		<path class="st1" d="M153.2,214.4v-7.9h1.2l0.1,1.4c0.3-0.5,0.6-0.9,1.1-1.2s1-0.4,1.6-0.4c0.9,0,1.7,0.3,2.2,0.9
			c0.6,0.6,0.8,1.4,0.8,2.6v4.6H159v-4.5c0-1.6-0.7-2.5-2-2.5c-0.7,0-1.2,0.2-1.7,0.7c-0.4,0.5-0.7,1.2-0.7,2.1v4.1L153.2,214.4
			L153.2,214.4z"/>
		<path class="st1" d="M162.9,214.5c-0.3,0-0.5-0.1-0.7-0.3s-0.3-0.4-0.3-0.7s0.1-0.5,0.3-0.6c0.2-0.2,0.4-0.3,0.7-0.3
			s0.5,0.1,0.6,0.3c0.2,0.2,0.3,0.4,0.3,0.6c0,0.3-0.1,0.5-0.3,0.7S163.1,214.5,162.9,214.5z"/>
		<path class="st2" d="M29,123.5c0.4-0.1,0.8-0.1,1.5-0.1c1.7,0,2.7,0.2,3.2,0.6c0.3,0.3,0.5,0.6,0.5,1s-0.2,0.7-0.5,1
			s-0.7,0.4-1.2,0.4s-0.8,0.1-0.9,0.3c-0.1,0.2-0.2,0.8-0.2,1.6c0,0.2,0,1,0.1,2.3c0.1,1.5,0.1,2.5,0.2,2.9c0.1,0.4,0.2,0.7,0.3,0.7
			c0,0,0.2,0,0.6,0c0.4,0,0.7,0,0.9,0c0.7,0,1.3,0.2,1.6,0.5c0.2,0.2,0.3,0.4,0.3,0.6c0,0.5-0.7,0.9-2,1.4c-0.8,0.3-1.2,0.5-1.4,0.6
			c-0.1,0.1-0.3,0.5-0.3,1c-0.1,0.5-0.1,0.9-0.1,1.3c0,1.5,0.1,2.7,0.4,3.4c0.1,0.3,0.3,0.5,0.4,0.6c0.2,0.1,0.5,0.1,1,0.1
			c0.6,0,1.2,0.1,1.6,0.4c0.5,0.3,0.7,0.6,0.7,1c0,0.3-0.2,0.6-0.7,1.1c-0.7,0.7-2,1.1-3.7,1.1c-1.8,0-2.9-0.4-3.5-1.1
			c-0.3-0.4-0.5-3-0.6-7.8c-0.1-6-0.1-9.5-0.2-10.6l-0.1-3.4l0.6-0.4C28.2,123.8,28.7,123.6,29,123.5z"/>
		<path class="st2" d="M42.1,120.4c0.1,0,0.2-0.1,0.3-0.1s0.2-0.1,0.2-0.1c0.1,0,0.1,0,0.2-0.1h0.1c0.1,0,0.3,0.1,0.7,0.3
			c0.5,0.3,0.8,0.6,0.9,1c0.3,1.2,0.6,2.4,1,3.4c0.4,1.1,0.6,1.6,0.8,1.6c0,0,0,0,0-0.1c0-0.2,0.2-1.1,0.6-2.7
			c0.2-1.1,0.4-1.8,0.6-2.2s0.3-0.6,0.6-0.7c0.4-0.2,0.9-0.3,1.4-0.3c0.7,0,1.2,0.2,1.7,0.5c0.3,0.3,0.5,0.7,0.5,1.1s-0.1,1.1-0.4,2
			c-0.2,0.7-0.5,1.8-1,3.4c-0.5,1.6-0.8,2.9-1.1,4c-0.4,1.5-0.6,2.5-0.6,2.9c0,0.3,0.1,0.7,0.1,1.1c0.2,1,0.5,1.8,0.7,2.4
			c0.3,0.6,0.5,1.1,0.5,1.5c0,0.2,0.2,1.1,0.7,2.7c0.5,1.3,0.7,2.2,0.7,2.7c0,0.4-0.2,0.8-0.6,1.2c-0.3,0.3-0.7,0.5-1.1,0.5
			c-0.2,0-0.5,0-0.6-0.1c-0.7-0.1-1.2-0.3-1.5-0.7c-0.4-0.4-0.7-1-0.9-1.8c-0.2-0.7-0.3-1.1-0.5-1.1c-0.1,0-0.2,0.4-0.3,1.1
			c-0.2,2.1-1,3.1-2.2,3.1c-0.3,0-0.9-0.2-1.6-0.5c-0.7-0.4-1.1-0.6-1.1-0.9c0-0.5,0.8-3.1,2.4-7.9c0.2-0.5,0.4-1.5,0.7-2.8
			c0.1-0.8,0.2-1.2,0.2-1.4c0-0.4-0.2-1.1-0.5-2c-0.3-0.8-0.6-1.9-1-3.5c-0.4-1.6-0.8-2.7-1-3.4c-0.4-1.1-0.6-2-0.7-2.7
			c0-0.1,0-0.3,0-0.5C40.7,121.2,41.1,120.7,42.1,120.4z"/>
		<path class="st2" d="M58.2,123.5c0.4-0.1,0.8-0.1,1.5-0.1c1.7,0,2.7,0.2,3.2,0.6c0.3,0.3,0.5,0.6,0.5,1s-0.2,0.7-0.5,1
			c-0.3,0.3-0.7,0.4-1.2,0.4s-0.8,0.1-0.9,0.3s-0.2,0.8-0.2,1.6c0,0.2,0,1,0.1,2.3c0.1,1.5,0.1,2.5,0.2,2.9c0.1,0.4,0.2,0.7,0.3,0.7
			c0,0,0.2,0,0.6,0c0.4,0,0.7,0,0.9,0c0.7,0,1.3,0.2,1.6,0.5c0.2,0.2,0.3,0.4,0.3,0.6c0,0.5-0.7,0.9-2,1.4c-0.8,0.3-1.2,0.5-1.4,0.6
			s-0.3,0.5-0.3,1c-0.1,0.5-0.1,0.9-0.1,1.3c0,1.5,0.1,2.7,0.4,3.4c0.1,0.3,0.3,0.5,0.4,0.6c0.2,0.1,0.5,0.1,1,0.1
			c0.6,0,1.2,0.1,1.7,0.4c0.5,0.3,0.7,0.6,0.7,1c0,0.3-0.2,0.6-0.7,1.1c-0.7,0.7-2,1.1-3.7,1.1c-1.8,0-2.9-0.4-3.5-1.1
			c-0.3-0.4-0.5-3-0.6-7.8c-0.1-6-0.1-9.5-0.2-10.6l-0.1-3.4l0.6-0.4C57.4,123.8,57.8,123.6,58.2,123.5z"/>
		<path class="st2" d="M71.2,122.6c0.6-0.2,1.2-0.3,2.1-0.3s1.6,0.1,2,0.3c0.8,0.3,1.4,0.9,1.8,1.8c0.2,0.4,0.4,1.2,0.5,2.4
			c0.2,1.2,0.2,2.2,0.2,3.1c0,0.4,0,0.7-0.1,0.9c-0.1,0.8-0.3,1.6-0.6,2.6c-0.3,0.9-0.6,1.4-0.7,1.4c-0.2,0-0.4,0.2-0.4,0.6
			c0,0.3,0.1,0.6,0.3,1c0.5,0.7,1.2,2,2.1,3.9s1.4,3.1,1.5,3.6c0,0.2,0.1,0.4,0.1,0.6c0,0.4-0.1,0.8-0.3,1c-0.2,0.4-0.5,0.6-0.9,0.6
			c-0.3,0-0.6,0-0.8-0.1c-0.8-0.1-1.2-0.2-1.4-0.3c-0.2-0.1-0.3-0.4-0.3-0.7c0-0.6-0.3-1.5-0.9-2.8c-0.6-1.2-1.1-1.9-1.4-1.9h-0.1
			c-0.1,0.1-0.1,0.4-0.1,1c0,0.9,0.1,1.9,0.3,3c0.1,0.5,0.1,0.8,0.1,1c0,1-0.2,1.7-0.7,1.9c-0.2,0.1-0.4,0.1-0.8,0.1
			c-1,0-1.6-0.2-1.8-0.7c-0.2-0.2-0.3-2.3-0.4-6.2c0-1.2-0.1-2.6-0.1-4s-0.1-2.5-0.1-3.1c0-0.7,0-1.5-0.1-2.6
			c-0.1-1-0.2-2.2-0.3-3.5c-0.1-1.5-0.2-2.3-0.2-2.6c0-0.7,0.1-1.2,0.3-1.5C70.2,123,70.6,122.8,71.2,122.6z M74,126
			c-0.1-0.2-0.3-0.4-0.5-0.4s-0.3,0.1-0.5,0.3c-0.1,0.2-0.1,0.4,0,0.6c0,0,0.1,1,0.2,2.9c0.1,1.9,0.2,2.9,0.3,3
			c0.1,0.1,0.2-0.1,0.5-0.4c0.2-0.3,0.3-0.8,0.3-1.6c0-0.6,0-1.1,0-1.5C74.2,127.3,74.2,126.3,74,126z"/>
		<path class="st2" d="M87.9,125.2c0.6-0.6,1-0.9,1.2-1.1c0.2-0.1,0.6-0.2,1.1-0.2c1.4,0,2.1,0.5,2.1,1.4c0,0.8-0.6,1.6-1.8,2.2
			c-0.8,0.4-1.4,1.9-1.8,4.6c-0.2,1.2-0.3,2.4-0.3,3.7s0.1,2.6,0.2,4c0.2,1.7,0.4,2.9,0.7,3.6c0.3,0.7,0.8,1.1,1.5,1.2
			c1.2,0.2,1.9,0.6,2.1,1c0,0.1,0,0.1,0,0.2c0,0.3-0.2,0.6-0.5,0.9c-0.3,0.3-0.8,0.5-1.2,0.6c-0.1,0-0.3,0-0.5,0
			c-1.1,0-2.2-0.3-3.1-0.8c-0.3-0.2-0.7-0.8-1.2-1.6c-0.5-0.9-0.8-1.8-1.1-2.6c-0.3-1.2-0.5-3.4-0.5-6.6c0-1.2,0.1-2.4,0.2-3.5
			c0.2-1.9,0.6-3.3,1-4.3C86.4,127,87,126.1,87.9,125.2z"/>
		<path class="st2" d="M98.1,123.6c0.4-0.4,0.8-0.6,1.4-0.6c0.5,0,1,0.2,1.4,0.6l0.6,0.6l0.3,10.3c0.2,5.7,0.2,9,0.2,9.8
			c0,0.5,0,0.8,0,1.1s0,0.5-0.1,0.7s-0.1,0.3-0.1,0.4c-0.1,0.1-0.1,0.2-0.1,0.2s-0.1,0.1-0.2,0.1s-0.2,0.1-0.2,0.1
			c-0.3,0.2-0.6,0.3-0.8,0.3c-0.1,0-0.4-0.1-0.9-0.2c-0.7-0.3-1.1-0.6-1.2-0.8c-0.1-0.1-0.2-3.8-0.3-11c-0.1-7.2-0.1-10.8-0.2-10.9
			C97.6,124.3,97.8,124,98.1,123.6z"/>
		<path class="st2" d="M110.2,122.9c0.4-0.2,0.8-0.3,1.3-0.3c0.3,0,0.6,0,0.8,0.1c0.9,0.1,1.5,0.2,1.8,0.4c0.3,0.1,0.6,0.5,0.9,0.9
			c0.3,0.5,0.5,1,0.5,1.5c0,0.6-0.2,1-0.6,1.4s-0.7,0.6-1.1,0.6s-0.8-0.3-1.1-0.8c-0.3-0.4-0.6-0.6-0.9-0.6s-0.5,0.2-0.8,0.6
			s-0.4,0.8-0.5,1.3v0.2c0,1.7,1.3,4.8,3.8,9.3c0.4,0.7,0.8,2.1,1.2,4c0,0.1,0,0.3,0,0.6c0,1.7-0.3,3-1,3.9
			c-0.3,0.4-0.8,0.8-1.5,1.1s-1.3,0.5-1.9,0.5c-0.1,0-0.1,0-0.2,0s-0.1,0-0.2,0c-0.7-0.1-1.5-0.6-2.5-1.6s-1.5-1.7-1.5-2.2
			c0-0.2,0.2-0.5,0.5-0.9s0.7-0.5,1-0.6c0.1,0,0.2,0,0.3,0c0.3,0,0.9,0.5,1.6,1.5c0.3,0.4,0.6,0.6,0.9,0.6s0.5-0.2,0.7-0.5
			c0.1-0.1,0.1-0.4,0.1-0.7c0-1.8-0.8-4.3-2.4-7.7c-1.5-3.2-2.2-5.5-2.2-7c0-0.7,0.1-1.3,0.4-1.9c0.5-1.2,0.9-2,1.1-2.4
			C109.1,123.6,109.5,123.2,110.2,122.9z"/>
		<path class="st2" d="M122.1,123.5c0.4-0.1,0.8-0.1,1.5-0.1c1.7,0,2.7,0.2,3.2,0.6c0.3,0.3,0.5,0.6,0.5,1s-0.2,0.7-0.5,1
			s-0.7,0.4-1.2,0.4s-0.8,0.1-0.9,0.3c-0.2,0.2-0.2,0.8-0.2,1.6c0,0.2,0,1,0.1,2.3c0.1,1.5,0.1,2.5,0.2,2.9s0.2,0.7,0.3,0.7
			c0,0,0.2,0,0.6,0s0.7,0,0.9,0c0.7,0,1.3,0.2,1.6,0.5c0.2,0.2,0.3,0.4,0.3,0.6c0,0.5-0.7,0.9-2,1.4c-0.8,0.3-1.2,0.5-1.4,0.6
			c-0.1,0.1-0.3,0.5-0.3,1c-0.1,0.5-0.1,0.9-0.1,1.3c0,1.5,0.1,2.7,0.4,3.4c0.1,0.3,0.3,0.5,0.4,0.6s0.5,0.1,1,0.1
			c0.6,0,1.2,0.1,1.6,0.4c0.5,0.3,0.7,0.6,0.7,1c0,0.3-0.2,0.6-0.7,1.1c-0.7,0.7-1.9,1.1-3.7,1.1c-1.8,0-2.9-0.4-3.5-1.1
			c-0.3-0.4-0.5-3-0.6-7.8c-0.1-6-0.1-9.5-0.2-10.6l-0.1-3.4l0.6-0.4C121.2,123.8,121.7,123.6,122.1,123.5z"/>
		<path class="st2" d="M146.1,122.9c0.3-0.1,0.7-0.2,1.2-0.2c1,0,2.1,0.2,3.2,0.7c1.1,0.5,1.9,1,2.3,1.7c0.5,0.7,0.7,1.5,0.7,2.4
			c0,1-0.3,2.4-1,4l-0.5,1.2l0.8,0.8c0.6,0.6,1,1.2,1.4,1.9c0.3,0.8,0.5,1.5,0.5,2.2s0,1.3-0.1,1.8c-0.1,1.3-0.1,2.2-0.2,2.6
			c-0.1,0.4-0.3,1-0.7,1.7c-0.7,1.5-1.4,2.4-1.9,2.9c-0.6,0.5-1.4,0.7-2.5,0.7c-1.2,0-1.9,0-2.2,0.1l0,0c-0.5,0-0.9-0.2-1.3-0.8
			c-0.4-0.5-0.7-1.1-0.8-1.8c0-0.1-0.1-0.5-0.1-1c0-0.9,0.1-1.8,0.1-2.6c0.2-1.5,0.3-5.4,0.3-11.6c0-3.2-0.1-4.9-0.1-5.1
			c0,0-0.1-0.1-0.1-0.2c0-0.2,0.1-0.5,0.3-0.8C145.7,123.2,145.9,123,146.1,122.9z M150.7,136.2c-0.1-0.2-0.4-0.4-0.8-0.4
			c-0.3,0-0.6,0.1-0.8,0.5c-0.2,0.3-0.3,2-0.3,4.9c0,1.5,0.1,2.2,0.1,2.3h0.1c0.1,0,0.4-0.2,0.7-0.7s0.6-1,0.8-1.6
			c0.3-0.8,0.5-1.8,0.5-3.1C151,137.2,150.9,136.5,150.7,136.2z M149.6,127.3c-0.1-0.3-0.2-0.4-0.4-0.4s-0.3,0.6-0.3,1.8
			c0,1.1,0.1,1.6,0.1,1.6h0.1c0.1-0.1,0.3-0.5,0.4-0.9c0.1-0.5,0.2-0.8,0.2-1.1c0-0.1,0-0.3-0.1-0.5
			C149.7,127.5,149.6,127.4,149.6,127.3z"/>
		<path class="st2" d="M159.9,122c0.4-0.3,0.8-0.4,1.4-0.4c0.7,0,1.2,0.2,1.6,0.5l0.6,0.5l0.1,5.6c0.1,6.5,0.3,10.9,0.6,13.3
			c0.1,0.5,0.2,0.7,0.3,0.7c0.3,0,0.5-0.9,0.7-2.8c0.4-3.9,0.6-7.8,0.6-11.6v-1v-0.6c0-2.1,0.2-3.3,0.7-3.6c0.1-0.1,0.5-0.2,0.9-0.2
			c0.8,0,1.4,0.1,1.8,0.5c0.5,0.5,0.7,1.7,0.7,3.7c0,1.7-0.1,4.8-0.4,9.4c-0.2,3.8-0.6,6.5-1.2,8.1c-0.6,1.6-1.6,2.6-2.9,3
			c-0.5,0.2-0.9,0.3-1.1,0.3c-0.2,0-0.7-0.2-1.5-0.5c-1.7-0.8-2.6-2-2.8-3.8c-0.2-1.5-0.4-6.4-0.5-14.7c0-1.2-0.1-2.5-0.1-4
			c0-0.9,0-1.6,0.1-1.8C159.6,122.4,159.7,122.2,159.9,122z"/>
		<path class="st2" d="M175.3,124.3c0.1,0,0.9,0,2.3,0c1.6,0,2.8,0.4,3.6,1c0.8,0.7,1.5,1.8,1.9,3.5c0.5,1.7,0.7,3.5,0.7,5.7
			c0,0.5,0,1-0.1,1.5s-0.2,1.1-0.3,2.1c-0.1,0.9-0.2,1.7-0.4,2.5c-0.1,0.7-0.3,1.2-0.5,1.5c-0.1,0.2-0.2,0.5-0.2,0.8
			c0,0.2-0.2,0.6-0.5,1.3s-0.6,1.1-0.8,1.4c-0.4,0.4-0.9,0.8-1.6,1.2c-0.7,0.4-1.4,0.6-2.1,0.6c-0.6,0.1-0.9,0.1-1,0.1
			c-0.4,0-0.7-0.2-1.1-0.5l-0.6-0.6l0.1-7.7v-2.3c0-3.8-0.1-5.9-0.1-6.3c-0.2-1.2-0.3-2.3-0.3-3.2
			C174.5,125.2,174.8,124.4,175.3,124.3z M179.6,129.9c-0.5-1.6-0.8-2.4-1.1-2.4l-0.1,0.1l-0.1,0.1c0,0.1,0,0.2,0,0.3
			c0,0.1,0,0.3,0,0.4c0,0.4,0,1.3,0.1,2.6c0.1,1.6,0.2,3.7,0.2,6.3c0,2.5,0.1,3.8,0.3,3.8c0.1,0,0.2-0.2,0.3-0.6
			c0.6-1.9,0.9-4,0.9-6.2C180.1,132.6,180,131.1,179.6,129.9z"/>
		<path class="st2" d="M189.3,124.3c0.1,0,0.9,0,2.3,0c1.6,0,2.8,0.4,3.6,1c0.8,0.7,1.5,1.8,1.9,3.5c0.5,1.7,0.7,3.5,0.7,5.7
			c0,0.5,0,1-0.1,1.5s-0.2,1.1-0.3,2.1c-0.1,0.9-0.2,1.7-0.4,2.5c-0.1,0.7-0.3,1.2-0.5,1.5c-0.1,0.2-0.2,0.5-0.2,0.8
			c0,0.2-0.2,0.6-0.5,1.3s-0.6,1.1-0.8,1.4c-0.4,0.4-0.9,0.8-1.6,1.2c-0.7,0.4-1.4,0.6-2.1,0.6c-0.5,0.1-0.9,0.1-1,0.1
			c-0.4,0-0.7-0.2-1.1-0.5l-0.6-0.6l0.1-7.7v-2.3c0-3.8-0.1-5.9-0.1-6.3c-0.2-1.2-0.3-2.3-0.3-3.2
			C188.5,125.2,188.8,124.4,189.3,124.3z M193.6,129.9c-0.5-1.6-0.8-2.4-1.1-2.4l-0.1,0.1v0.1c0,0.1,0,0.2,0,0.3c0,0.1,0,0.3,0,0.4
			c0,0.4,0,1.3,0.1,2.6c0.1,1.6,0.2,3.7,0.2,6.3c0,2.5,0.1,3.8,0.3,3.8c0.1,0,0.2-0.2,0.3-0.6c0.6-1.9,0.9-4,0.9-6.2
			C194.2,132.6,194,131.1,193.6,129.9z"/>
		<path class="st2" d="M204.8,120.9c0.5-0.2,0.9-0.3,1.2-0.3c0.5,0,0.9,0.2,1.2,0.6c0.4,0.4,0.6,1.2,0.6,2.3
			c0.1,2.1,0.5,4.1,1.2,5.8c0.2,0.5,0.3,1,0.3,1.3c0,0.1,0,0.2,0.1,0.3c0,0.1,0.1,0.1,0.2,0.1c0.2-0.1,0.3-0.6,0.3-1.4
			c0-0.9,0.1-1.3,0.1-1.4c0.1-0.1,0.1-1,0.2-2.9c0.1-1.8,0.1-3,0.1-3.4c0-0.2,0.4-0.5,1-0.7c0.6-0.3,1.2-0.4,1.6-0.4
			c0.7,0,1.2,0.2,1.5,0.7c0.3,0.4,0.4,0.8,0.4,1.1c0,0.4-0.1,2-0.4,4.8c-0.1,0.6-0.2,2.2-0.4,4.9c-0.1,2-0.6,4.5-1.3,7.3
			c-0.4,1.5-0.7,2.6-1.1,3.4c-0.4,0.8-0.9,1.6-1.6,2.3c-0.4,0.4-0.7,0.6-0.9,0.6s-0.4,0.2-0.5,0.5c-0.2,0.3-0.5,0.6-1.1,0.8
			s-1.2,0.3-1.8,0.3c-0.5,0-1.1-0.2-1.7-0.5c-0.7-0.4-1-0.6-1-0.9c0-0.3,0.2-0.7,0.5-1.1c0.4-0.4,0.8-0.7,1.3-1
			c0.9-0.4,1.6-1,2.1-1.8c0.6-0.8,1.1-1.9,1.5-3.3c0.5-1.6,0.8-2.6,0.8-3c0-0.3-0.2-0.6-0.7-0.8c-1.3-0.6-2.2-1.2-2.6-2
			c-0.2-0.4-0.7-2.4-1.4-5.9c-0.4-1.7-0.6-3.1-0.6-4C203.7,122,204.1,121.2,204.8,120.9z"/>
		<path class="st3" d="M307.3,39.5c0,0-25,20.3-44.3,6.7C263.1,46.3,276.1,29.1,307.3,39.5z"/>
		<path class="st4" d="M286.9,29.8c0,0-4,17.8-27,19.9C259.8,49.7,259.7,42,286.9,29.8z"/>
		<path class="st2" d="M200.7,108.7h110.8c0-0.7,0.1-1.4,0.1-2.2c3.4-64.2-57.3-68.6-81.5-57.4c-12.7,5.9-32,22.6-29.8,56
			C200.5,106.2,200.6,107.4,200.7,108.7z"/>
		<path d="M244.5,81c0,2-1.6-1.8-3.7-1.8c-2,0-3.7,3.9-3.7,1.8c0-2,1.6-3.7,3.7-3.7C242.8,77.3,244.5,78.9,244.5,81z"/>
		<path d="M274.9,81c0,2-1.6-1.8-3.7-1.8c-2,0-3.7,3.9-3.7,1.8c0-2,1.6-3.7,3.7-3.7S274.9,78.9,274.9,81z"/>
		<path d="M263.2,89.1c0,1,0.7,6.7-7.4,6.7s-7.4-5.7-7.4-6.7s3.3-0.2,7.4-0.2C259.9,88.9,263.2,88.1,263.2,89.1z"/>
		<path class="st0" d="M256.4,90.5h-1.3c-0.4,0-0.6-0.3-0.6-0.7v-0.9h2.6v0.9C257,90.2,256.7,90.5,256.4,90.5z"/>
		<path class="st5" d="M249.3,35.7c0,0,4.1,1.1,4.8,5.9C254.1,41.5,252.3,41.4,249.3,35.7z"/>
		<path class="st5" d="M259.2,37.8c0,0,0.2,6.8-6.4,6.9C252.8,44.6,253.1,41.5,259.2,37.8z"/>
		<path class="st6" d="M253.2,49.4c-0.3-0.4-1.9-8.9,4.2-15.9"/>
		<path class="st7" d="M257.5,30.4c0,0-5.2-4-6.9-1.8C248.9,30.7,256.5,32,257.5,30.4z"/>
		<path class="st7" d="M257.4,30.3c0,0-7.2-0.1-6.1,2.4C252.3,35.2,258.4,32,257.4,30.3z"/>
		<path class="st7" d="M258.6,30.7c0,0-6.6,1.9-4.5,4C256.1,36.8,260.2,32.1,258.6,30.7z"/>
		<path class="st7" d="M259.1,30.4c0,0-2.2-6.6-4.2-4.4C252.9,28.2,257.9,32,259.1,30.4z"/>
		<path class="st7" d="M258.7,31.1c0,0,6.9-0.7,5.2-3.2C262.1,25.5,257.3,29.5,258.7,31.1z"/>
		<path class="st7" d="M259.1,31.6c0,0,2.6-5,0.3-5.2C257.1,26.3,257.5,31.6,259.1,31.6z"/>
		<path class="st7" d="M259.1,31.1c0,0,6-2.8,7.1-0.3C267.4,33.3,259.7,32.9,259.1,31.1z"/>
		<path class="st7" d="M259,30.6c0,0,7.1,1.4,5.5,3.7C262.9,36.5,257.8,32.1,259,30.6z"/>
		<path class="st7" d="M258.8,30.3c0,0,4.2,5.5,1.3,5.9C257.1,36.6,256.7,30.4,258.8,30.3z"/>
		<path class="st8" d="M262.4,31.2c0.1-0.9-1.6-1.8-3.7-2c-2.2-0.2-4,0.3-4.1,1.2c-0.1,0.9,1.6,1.8,3.7,2
			C260.5,32.7,262.3,32.1,262.4,31.2z"/>
		<path class="st9" d="M209.6,58.1c1.6-4.4,77.4-11.1,87.1-5.1l3.1,6.9l-91.2,6.8C208.5,66.7,207.9,62.6,209.6,58.1z"/>
		<path class="st10" d="M296.7,53c-0.1,0-0.1-0.1-0.2-0.1c-15.3-2.4-75.2,3.1-87.3,6.6c-0.6,2.3-0.8,4.4-0.7,5.8l90.9-6.3L296.7,53z
			"/>
		<path class="st0" d="M292.5,66.5c0,0-2.3,13.8,4,12.8C299.4,78.9,303.5,71.3,292.5,66.5z"/>
		<path class="st5" d="M201.3,50.8c0,0-28.7,29.3-52.6-1.2C148.2,50.1,148.3,28.2,201.3,50.8z"/>
		<path class="st11" d="M93.3,108.7h110.8c0.1-0.7,0.1-1.4,0.1-2.2c3.4-64.2-57.3-68.6-81.4-57.4c-12.6,5.9-32,22.6-29.8,56
			C93.1,106.2,93.2,107.4,93.3,108.7z"/>
		<path d="M137.1,81c0,2-1.6,2.5-3.7,2.5s-3.7-0.4-3.7-2.5c0-2,1.6-3.7,3.7-3.7S137.1,78.9,137.1,81z"/>
		<path d="M167.5,81c0,2-1.7,2.5-3.7,2.5c-2.1,0-3.7-0.4-3.7-2.5c0-2,1.7-3.7,3.7-3.7C165.9,77.3,167.5,78.9,167.5,81z"/>
		<path d="M155.8,89.1c0,1-3.3,2.6-7.4,2.6c-4.1,0-7.4-1.6-7.4-2.6s3.3-0.2,7.4-0.2S155.8,88.1,155.8,89.1z"/>
		<path class="st0" d="M148.9,90.5h-1.3c-0.4,0-0.6-0.3-0.6-0.7v-0.9h2.6v0.9C149.6,90.2,149.3,90.5,148.9,90.5z"/>
		<path class="st5" d="M137.1,39.3c0,0,3.9-0.4,4.6,4.4C141.7,43.7,140.1,45,137.1,39.3z"/>
		<path class="st6" d="M137.8,48.5c3-3.8,7.6-9.2,7.5-12.9"/>
		<path class="st7" d="M146.5,32.9c0,0-6.6,1.9-4.5,4S148.1,34.2,146.5,32.9z"/>
		<path class="st7" d="M146,33.3c0,0-6.5-2.4-6,0.6C140.5,36.9,146.6,35.4,146,33.3z"/>
		<path class="st7" d="M146.6,33.2c0,0,4.9,4.8,5.7,2C153.1,32.3,147,31.1,146.6,33.2z"/>
		<path class="st7" d="M147,32.8c0,0,7.1,1.4,5.5,3.7C150.9,38.7,145.7,34.2,147,32.8z"/>
		<path class="st7" d="M146.7,32.4c0,0,4.2,5.5,1.3,5.9C145,38.8,144.6,32.5,146.7,32.4z"/>
		<path class="st8" d="M150.3,33.4c0.1-0.9-1.6-1.8-3.7-2c-2.2-0.2-4,0.3-4.1,1.2c-0.1,0.9,1.6,1.8,3.7,2
			C148.4,34.8,150.2,34.3,150.3,33.4z"/>
		<path class="st8" d="M104,58.8c2.7-4.3,83.1,1.1,92.2,9.1l3.2,7.4l-99.1-8.8C100.4,66.5,101.4,63.1,104,58.8z"/>
		<path class="st10" d="M196.3,68.1c-12.9-5.5-83.1-9.9-93.2-7.8c-1.1,1.9-1.8,3.5-2.2,4.6l98.1,9.2L196.3,68.1z"/>
		<path class="st0" d="M107.8,78.1c0,0-1,11.5-5.9,11.5C99.7,89.5,98,83.5,107.8,78.1z"/>
	</g>
</g>
</svg>
