<?xml version="1.0" encoding="utf-8"?>
<!-- Generator: Adobe Illustrator 25.1.0, SVG Export Plug-In . SVG Version: 6.00 Build 0)  -->
<svg version="1.1" id="Layer_1" xmlns="http://www.w3.org/2000/svg" xmlns:xlink="http://www.w3.org/1999/xlink" x="0px" y="0px"
	 viewBox="0 0 328.5 265.5" style="enable-background:new 0 0 328.5 265.5;" xml:space="preserve">
<style type="text/css">
	.st0{fill:#FFFFFF;}
	.st1{fill:#808080;}
	.st2{fill:#FF9F1A;}
	.st3{fill:#F4F1EF;}
	.st4{fill:#6E6E6E;}
	.st5{fill:#E14504;}
	.st6{fill:#FFCF8D;}
	.st7{fill:#D64204;}
	.st8{fill:none;stroke:#D64204;stroke-width:0.3577;stroke-miterlimit:10;}
</style>
<g>
	<g>
		<path class="st0" d="M327.8,238.9c0-81.9,5.3-213.3-12.6-229.1c-19.8-17.5-195.7-6.3-230-5.5C51.4,5,11.5-1.6,6.4,15.6
			c-8,26.9-5.9,89.3-5.9,138.6c0,77.5-6.5,96,28.2,105.8c35.2,10,164.8,3.7,207.3,2.5C279.9,261.3,327.8,268.7,327.8,238.9z"/>
		<path class="st1" d="M27.6,37.7V26.5h6.8v1.1h-5.5v3.9h4.7v1.1h-4.7v5.1H27.6z"/>
		<path class="st1" d="M36.9,28c-0.3,0-0.5-0.1-0.7-0.3c-0.2-0.2-0.3-0.4-0.3-0.7c0-0.3,0.1-0.5,0.3-0.6c0.2-0.2,0.4-0.3,0.7-0.3
			s0.5,0.1,0.7,0.3c0.2,0.2,0.3,0.4,0.3,0.6c0,0.3-0.1,0.5-0.3,0.7C37.4,27.9,37.2,28,36.9,28z M36.3,37.7v-7.9h1.3v7.9H36.3z"/>
		<path class="st1" d="M39.9,37.7v-7.9h1.2l0.1,1.4c0.3-0.5,0.6-0.9,1.1-1.2c0.5-0.3,1-0.4,1.6-0.4c0.9,0,1.7,0.3,2.2,0.9
			c0.6,0.6,0.8,1.5,0.8,2.6v4.6h-1.3v-4.5c0-1.6-0.7-2.5-2.1-2.5c-0.7,0-1.2,0.2-1.7,0.7s-0.7,1.2-0.7,2.1v4.1L39.9,37.7L39.9,37.7z
			"/>
		<path class="st1" d="M52.7,37.8c-0.8,0-1.5-0.2-2.1-0.5c-0.6-0.4-1-0.9-1.4-1.5s-0.5-1.3-0.5-2.1s0.2-1.5,0.5-2.1s0.8-1.1,1.4-1.5
			c0.6-0.4,1.3-0.5,2.1-0.5c0.7,0,1.2,0.1,1.7,0.4s0.9,0.6,1.2,1.1v-5h1.3v11.5h-1.2l-0.1-1.3c-0.3,0.4-0.6,0.7-1.1,1
			C54,37.7,53.4,37.8,52.7,37.8z M52.8,36.7c0.5,0,1-0.1,1.4-0.4c0.4-0.2,0.7-0.6,1-1.1c0.2-0.4,0.3-1,0.3-1.6s-0.1-1.1-0.3-1.6
			c-0.2-0.4-0.6-0.8-1-1s-0.9-0.4-1.4-0.4s-1,0.1-1.4,0.4c-0.4,0.2-0.7,0.6-1,1c-0.2,0.5-0.3,1-0.3,1.6s0.1,1.1,0.3,1.6
			s0.5,0.8,1,1.1C51.8,36.6,52.3,36.7,52.8,36.7z"/>
		<path class="st1" d="M66,37.8c-0.7,0-1.2-0.1-1.7-0.3c-0.4-0.2-0.8-0.5-1-0.9S63,35.8,63,35.4c0-0.8,0.3-1.4,0.9-1.9
			c0.6-0.4,1.5-0.7,2.5-0.7h2.1v-0.1c0-0.7-0.2-1.2-0.5-1.6s-0.8-0.5-1.5-0.5c-0.5,0-1,0.1-1.3,0.4c-0.4,0.3-0.6,0.6-0.7,1.1h-1.4
			c0.1-0.6,0.2-1.1,0.6-1.5c0.3-0.4,0.8-0.7,1.3-0.9c0.5-0.2,1-0.3,1.6-0.3c1.1,0,1.9,0.3,2.5,0.9s0.8,1.4,0.8,2.4v4.9h-1.2
			l-0.1-1.4c-0.2,0.4-0.5,0.8-1,1.1C67.3,37.7,66.7,37.8,66,37.8z M66.2,36.7c0.5,0,0.9-0.1,1.3-0.4c0.4-0.3,0.6-0.6,0.8-1
			c0.2-0.4,0.3-0.9,0.3-1.3l0,0h-2c-0.8,0-1.3,0.1-1.7,0.4c-0.3,0.3-0.5,0.6-0.5,1s0.2,0.8,0.5,1C65.2,36.6,65.7,36.7,66.2,36.7z"/>
		<path class="st1" d="M72,37.7v-7.9h1.2l0.1,1.4c0.3-0.5,0.6-0.9,1.1-1.2c0.5-0.3,1-0.4,1.6-0.4c0.9,0,1.7,0.3,2.2,0.9
			c0.6,0.6,0.8,1.5,0.8,2.6v4.6h-1.3v-4.5c0-1.6-0.7-2.5-2-2.5c-0.7,0-1.2,0.2-1.7,0.7c-0.4,0.5-0.7,1.2-0.7,2.1v4.1L72,37.7
			L72,37.7z"/>
		<path class="st1" d="M30.2,59.8c-0.7,0-1.2-0.1-1.7-0.3c-0.4-0.2-0.8-0.5-1-0.9s-0.3-0.8-0.3-1.2c0-0.8,0.3-1.4,0.9-1.9
			s1.5-0.7,2.5-0.7h2.1v-0.1c0-0.7-0.2-1.2-0.5-1.6c-0.3-0.4-0.9-0.5-1.5-0.5c-0.5,0-1,0.1-1.3,0.4c-0.4,0.3-0.6,0.6-0.7,1.1h-1.4
			c0-0.6,0.2-1.1,0.6-1.5c0.3-0.4,0.8-0.7,1.3-0.9s1-0.3,1.6-0.3c1.1,0,1.9,0.3,2.5,0.9c0.6,0.6,0.8,1.4,0.8,2.4v4.9h-1.2l-0.1-1.4
			c-0.2,0.4-0.5,0.8-1,1.1C31.5,59.7,30.9,59.8,30.2,59.8z M30.4,58.7c0.5,0,1-0.1,1.3-0.4s0.7-0.6,0.8-1c0.2-0.4,0.3-0.9,0.3-1.3
			l0,0h-2c-0.8,0-1.4,0.1-1.7,0.4c-0.3,0.3-0.5,0.6-0.5,1s0.1,0.8,0.5,1C29.4,58.6,29.9,58.7,30.4,58.7z"/>
		<path class="st1" d="M39.9,59.8c-0.8,0-1.4-0.2-2-0.5s-1.1-0.8-1.4-1.5c-0.3-0.6-0.5-1.4-0.5-2.2s0.2-1.6,0.5-2.2
			c0.3-0.6,0.8-1.1,1.4-1.5c0.6-0.3,1.3-0.5,2-0.5c0.9,0,1.7,0.2,2.4,0.7s1,1.2,1.2,2h-1.4c-0.1-0.5-0.4-0.9-0.8-1.1
			c-0.4-0.3-0.9-0.4-1.5-0.4c-0.4,0-0.9,0.1-1.3,0.3c-0.4,0.2-0.7,0.6-1,1s-0.4,1-0.4,1.7s0.1,1.2,0.4,1.7c0.2,0.5,0.6,0.8,1,1
			s0.8,0.3,1.3,0.3c0.6,0,1-0.1,1.5-0.4c0.4-0.3,0.7-0.7,0.8-1.2h1.4c-0.2,0.8-0.6,1.4-1.2,1.9C41.6,59.6,40.8,59.8,39.9,59.8z"/>
		<path class="st1" d="M48.3,59.7c-0.7,0-1.3-0.2-1.7-0.5c-0.4-0.4-0.6-1-0.6-1.9v-4.4h-1.4v-1.1H46l0.2-1.9h1.2v1.9h2.3v1.1h-2.3
			v4.4c0,0.5,0.1,0.8,0.3,1s0.6,0.3,1.1,0.3h0.8v1.1C49.6,59.7,48.3,59.7,48.3,59.7z"/>
		<path class="st1" d="M52.1,50c-0.3,0-0.5-0.1-0.7-0.3s-0.3-0.4-0.3-0.7s0.1-0.5,0.3-0.6c0.2-0.2,0.4-0.3,0.7-0.3s0.5,0.1,0.7,0.3
			s0.3,0.4,0.3,0.6c0,0.3-0.1,0.5-0.3,0.7C52.6,49.9,52.4,50,52.1,50z M51.5,59.7v-7.9h1.3v7.9H51.5z"/>
		<path class="st1" d="M57.4,59.7l-3-7.9h1.4l2.4,6.6l2.4-6.6H62l-3,7.9H57.4z"/>
		<path class="st1" d="M64.3,50c-0.3,0-0.5-0.1-0.7-0.3s-0.3-0.4-0.3-0.7s0.1-0.5,0.3-0.6c0.2-0.2,0.4-0.3,0.7-0.3
			c0.3,0,0.5,0.1,0.7,0.3s0.3,0.4,0.3,0.6c0,0.3-0.1,0.5-0.3,0.7C64.8,49.9,64.5,50,64.3,50z M63.6,59.7v-7.9h1.3v7.9H63.6z"/>
		<path class="st1" d="M70.4,59.7c-0.7,0-1.3-0.2-1.7-0.5c-0.4-0.4-0.6-1-0.6-1.9v-4.4h-1.4v-1.1h1.4l0.2-1.9h1.2v1.9h2.3v1.1h-2.3
			v4.4c0,0.5,0.1,0.8,0.3,1c0.2,0.2,0.6,0.3,1.1,0.3h0.8v1.1C71.7,59.7,70.4,59.7,70.4,59.7z"/>
		<path class="st1" d="M74.3,63.2l2-4.3h-0.5l-3.2-7.2h1.5l2.6,6.2l2.8-6.2h1.4l-5.2,11.5H74.3z"/>
		<path class="st1" d="M89.8,59.7c-0.7,0-1.3-0.2-1.7-0.5c-0.4-0.4-0.6-1-0.6-1.9v-4.4h-1.4v-1.1h1.4l0.2-1.9h1.2v1.9h2.2v1.1h-2.3
			v4.4c0,0.5,0.1,0.8,0.3,1c0.2,0.2,0.6,0.3,1.1,0.3H91v1.1C91,59.7,89.8,59.7,89.8,59.7z"/>
		<path class="st1" d="M92.8,59.7V48.1h1.3v5c0.3-0.5,0.7-0.9,1.1-1.1c0.5-0.3,1-0.4,1.6-0.4c0.9,0,1.6,0.3,2.2,0.9
			c0.5,0.6,0.8,1.5,0.8,2.6v4.6h-1.3v-4.5c0-1.6-0.7-2.5-2-2.5c-0.7,0-1.3,0.2-1.7,0.7c-0.5,0.5-0.7,1.2-0.7,2.1v4.1L92.8,59.7
			L92.8,59.7z"/>
		<path class="st1" d="M104.6,59.8c-0.7,0-1.2-0.1-1.7-0.3c-0.4-0.2-0.8-0.5-1-0.9s-0.3-0.8-0.3-1.2c0-0.8,0.3-1.4,0.9-1.9
			c0.6-0.4,1.5-0.7,2.5-0.7h2.1v-0.1c0-0.7-0.2-1.2-0.5-1.6s-0.8-0.5-1.5-0.5c-0.5,0-1,0.1-1.4,0.4c-0.4,0.3-0.6,0.6-0.7,1.1h-1.4
			c0-0.6,0.2-1.1,0.6-1.5c0.3-0.4,0.8-0.7,1.3-0.9s1-0.3,1.6-0.3c1.1,0,1.9,0.3,2.5,0.9c0.6,0.6,0.8,1.4,0.8,2.4v4.9h-1.2l-0.1-1.4
			c-0.2,0.4-0.6,0.8-1,1.1C105.9,59.7,105.3,59.8,104.6,59.8z M104.8,58.7c0.5,0,0.9-0.1,1.3-0.4c0.4-0.3,0.7-0.6,0.8-1
			c0.2-0.4,0.3-0.9,0.3-1.3l0,0h-2c-0.8,0-1.3,0.1-1.7,0.4c-0.3,0.3-0.5,0.6-0.5,1s0.1,0.8,0.5,1C103.8,58.6,104.3,58.7,104.8,58.7z
			"/>
		<path class="st1" d="M113.5,59.7c-0.7,0-1.3-0.2-1.7-0.5c-0.4-0.4-0.6-1-0.6-1.9v-4.4h-1.4v-1.1h1.4l0.2-1.9h1.2v1.9h2.3v1.1h-2.3
			v4.4c0,0.5,0.1,0.8,0.3,1c0.2,0.2,0.6,0.3,1.1,0.3h0.8v1.1C114.8,59.7,113.5,59.7,113.5,59.7z"/>
		<path class="st1" d="M121.7,63.2l2-4.3h-0.5l-3.1-7.2h1.5l2.6,6.2l2.8-6.2h1.4l-5.3,11.5H121.7z"/>
		<path class="st1" d="M132.6,59.8c-0.8,0-1.4-0.2-2-0.5s-1.1-0.8-1.4-1.5c-0.4-0.6-0.5-1.4-0.5-2.2s0.2-1.6,0.5-2.2
			c0.4-0.6,0.8-1.1,1.4-1.4c0.6-0.3,1.3-0.5,2-0.5c0.8,0,1.4,0.2,2,0.5s1.1,0.8,1.4,1.4c0.4,0.6,0.5,1.4,0.5,2.2s-0.2,1.6-0.5,2.2
			c-0.4,0.6-0.8,1.1-1.4,1.5C134,59.7,133.3,59.8,132.6,59.8z M132.6,58.7c0.5,0,0.9-0.1,1.3-0.3c0.4-0.2,0.7-0.6,1-1s0.4-1,0.4-1.7
			s-0.1-1.2-0.4-1.7c-0.2-0.4-0.6-0.8-1-1s-0.8-0.3-1.3-0.3s-0.9,0.1-1.3,0.3c-0.4,0.2-0.7,0.6-1,1c-0.2,0.5-0.4,1-0.4,1.7
			s0.1,1.2,0.4,1.7s0.6,0.8,1,1C131.7,58.6,132.1,58.7,132.6,58.7z"/>
		<path class="st1" d="M141.3,59.8c-0.9,0-1.7-0.3-2.2-0.9c-0.6-0.6-0.8-1.4-0.8-2.6v-4.6h1.3v4.5c0,1.7,0.7,2.5,2,2.5
			c0.7,0,1.3-0.2,1.7-0.7c0.5-0.5,0.7-1.2,0.7-2.1v-4.1h1.3v7.9h-1.2l-0.1-1.4c-0.2,0.5-0.6,0.9-1.1,1.2S141.9,59.8,141.3,59.8z"/>
		<path class="st1" d="M30.2,123c-0.7,0-1.2-0.1-1.7-0.3c-0.4-0.2-0.8-0.5-1-0.9s-0.3-0.8-0.3-1.2c0-0.8,0.3-1.4,0.9-1.9
			s1.5-0.7,2.5-0.7h2.1v-0.1c0-0.7-0.2-1.2-0.5-1.6c-0.3-0.4-0.9-0.5-1.5-0.5c-0.5,0-1,0.1-1.3,0.4c-0.4,0.3-0.6,0.6-0.7,1.1h-1.4
			c0-0.6,0.2-1.1,0.6-1.5c0.3-0.4,0.8-0.7,1.3-0.9c0.5-0.2,1-0.3,1.6-0.3c1.1,0,1.9,0.3,2.5,0.9s0.8,1.4,0.8,2.4v4.9h-1.2l-0.1-1.4
			c-0.2,0.4-0.5,0.8-1,1.1C31.5,122.9,30.9,123,30.2,123z M30.4,121.9c0.5,0,1-0.1,1.3-0.4c0.4-0.3,0.7-0.6,0.8-1
			c0.2-0.4,0.3-0.9,0.3-1.3l0,0h-2c-0.8,0-1.4,0.1-1.7,0.4s-0.5,0.6-0.5,1s0.1,0.8,0.5,1C29.4,121.8,29.9,121.9,30.4,121.9z"/>
		<path class="st1" d="M36.2,122.8v-7.9h1.2l0.1,1.4c0.3-0.5,0.6-0.9,1.1-1.2s1-0.4,1.6-0.4c0.9,0,1.7,0.3,2.2,0.9
			c0.6,0.6,0.8,1.4,0.8,2.6v4.6h-1.3v-4.5c0-1.6-0.7-2.5-2.1-2.5c-0.7,0-1.2,0.2-1.7,0.7s-0.7,1.2-0.7,2.1v4.1L36.2,122.8
			L36.2,122.8z"/>
		<path class="st1" d="M49,123c-0.8,0-1.5-0.2-2.1-0.5c-0.6-0.4-1-0.9-1.4-1.5c-0.3-0.6-0.5-1.3-0.5-2.1s0.2-1.5,0.5-2.1
			s0.8-1.1,1.4-1.5c0.6-0.4,1.3-0.5,2.1-0.5c0.7,0,1.2,0.1,1.7,0.4s0.9,0.6,1.2,1.1v-4.9h1.3v11.5H52l-0.1-1.3
			c-0.3,0.4-0.6,0.7-1.1,1C50.3,122.9,49.7,123,49,123z M49.1,121.9c0.5,0,1-0.1,1.4-0.4c0.4-0.2,0.7-0.6,1-1c0.2-0.5,0.3-1,0.3-1.6
			s-0.1-1.1-0.3-1.6s-0.6-0.8-1-1.1c-0.4-0.2-0.9-0.4-1.4-0.4s-1,0.1-1.4,0.4c-0.4,0.2-0.7,0.6-1,1.1c-0.2,0.4-0.3,1-0.3,1.6
			s0.1,1.1,0.3,1.6c0.2,0.4,0.5,0.8,1,1C48.1,121.7,48.6,121.9,49.1,121.9z"/>
		<path class="st1" d="M62.8,122.8c-0.7,0-1.3-0.2-1.7-0.5c-0.4-0.4-0.6-1-0.6-1.9V116h-1.4v-1.1h1.4l0.2-1.9h1.2v1.9h2.3v1.1h-2.3
			v4.4c0,0.5,0.1,0.8,0.3,1c0.2,0.2,0.6,0.3,1.1,0.3h0.8v1.1H62.8z"/>
		<path class="st1" d="M65.9,122.8v-11.5h1.3v4.9c0.3-0.5,0.7-0.9,1.1-1.1c0.5-0.3,1-0.4,1.6-0.4c0.9,0,1.7,0.3,2.2,0.9
			s0.8,1.4,0.8,2.6v4.6h-1.3v-4.5c0-1.6-0.7-2.5-2-2.5c-0.7,0-1.3,0.2-1.7,0.7c-0.5,0.5-0.7,1.2-0.7,2.1v4.1L65.9,122.8L65.9,122.8z
			"/>
		<path class="st1" d="M77.6,123c-0.7,0-1.2-0.1-1.7-0.3c-0.4-0.2-0.8-0.5-1-0.9s-0.3-0.8-0.3-1.2c0-0.8,0.3-1.4,0.9-1.9
			c0.6-0.4,1.5-0.7,2.5-0.7h2.1v-0.1c0-0.7-0.2-1.2-0.5-1.6c-0.4-0.4-0.9-0.5-1.5-0.5c-0.5,0-1,0.1-1.3,0.4
			c-0.4,0.3-0.6,0.6-0.7,1.1h-1.4c0-0.6,0.2-1.1,0.6-1.5c0.3-0.4,0.8-0.7,1.3-0.9c0.5-0.2,1-0.3,1.6-0.3c1.1,0,1.9,0.3,2.5,0.9
			s0.8,1.4,0.8,2.4v4.9h-1.2l-0.1-1.4c-0.2,0.4-0.6,0.8-1,1.1C78.9,122.9,78.4,123,77.6,123z M77.9,121.9c0.5,0,0.9-0.1,1.3-0.4
			s0.7-0.6,0.8-1c0.2-0.4,0.3-0.9,0.3-1.3l0,0h-2c-0.8,0-1.3,0.1-1.7,0.4s-0.5,0.6-0.5,1s0.2,0.8,0.5,1
			C76.9,121.8,77.3,121.9,77.9,121.9z"/>
		<path class="st1" d="M86.6,122.8c-0.7,0-1.3-0.2-1.7-0.5c-0.4-0.4-0.6-1-0.6-1.9V116h-1.4v-1.1h1.4l0.2-1.9h1.2v1.9H88v1.1h-2.3
			v4.4c0,0.5,0.1,0.8,0.3,1c0.2,0.2,0.6,0.3,1.1,0.3h0.8v1.1H86.6z"/>
		<path class="st1" d="M94.7,126.4l2-4.3h-0.5l-3.2-7.2h1.5l2.6,6.2l2.8-6.2h1.4l-5.2,11.5H94.7z"/>
		<path class="st1" d="M105.6,123c-0.8,0-1.4-0.2-2-0.5s-1.1-0.8-1.4-1.4s-0.5-1.4-0.5-2.2s0.2-1.6,0.5-2.2s0.8-1.1,1.4-1.4
			s1.3-0.5,2-0.5c0.8,0,1.4,0.2,2,0.5s1.1,0.8,1.4,1.4s0.5,1.4,0.5,2.2s-0.2,1.6-0.5,2.2s-0.8,1.1-1.4,1.4
			C107,122.9,106.4,123,105.6,123z M105.6,121.9c0.5,0,0.9-0.1,1.3-0.3c0.4-0.2,0.7-0.6,1-1s0.4-1,0.4-1.7s-0.1-1.2-0.4-1.7
			s-0.6-0.8-0.9-1c-0.4-0.2-0.8-0.3-1.3-0.3s-0.9,0.1-1.3,0.3c-0.4,0.2-0.7,0.6-1,1c-0.2,0.5-0.4,1-0.4,1.7s0.1,1.2,0.4,1.7
			s0.6,0.8,0.9,1C104.8,121.8,105.2,121.9,105.6,121.9z"/>
		<path class="st1" d="M114.4,123c-0.9,0-1.7-0.3-2.2-0.9s-0.8-1.4-0.8-2.6v-4.6h1.3v4.5c0,1.7,0.7,2.5,2,2.5c0.7,0,1.3-0.2,1.7-0.7
			c0.4-0.5,0.7-1.2,0.7-2.1V115h1.3v7.9h-1.2l-0.1-1.4c-0.2,0.5-0.6,0.9-1.1,1.2C115.5,122.9,115,123,114.4,123z"/>
		<path class="st1" d="M128.5,123c-0.8,0-1.4-0.2-2-0.5s-1.1-0.8-1.4-1.5c-0.4-0.6-0.5-1.4-0.5-2.2s0.2-1.6,0.5-2.2
			c0.4-0.6,0.8-1.1,1.4-1.5s1.3-0.5,2-0.5c0.9,0,1.7,0.2,2.4,0.7s1.1,1.1,1.2,2h-1.4c-0.1-0.5-0.4-0.9-0.8-1.1
			c-0.4-0.3-0.9-0.4-1.5-0.4c-0.4,0-0.9,0.1-1.3,0.3c-0.4,0.2-0.7,0.6-1,1c-0.2,0.4-0.4,1-0.4,1.7s0.1,1.2,0.4,1.7s0.6,0.8,1,1
			s0.8,0.3,1.3,0.3c0.6,0,1-0.1,1.5-0.4c0.4-0.3,0.7-0.7,0.8-1.2h1.4c-0.2,0.8-0.6,1.4-1.2,1.9C130.3,122.8,129.5,123,128.5,123z"/>
		<path class="st1" d="M136.6,123c-0.7,0-1.2-0.1-1.6-0.3c-0.4-0.2-0.8-0.5-1-0.9s-0.3-0.8-0.3-1.2c0-0.8,0.3-1.4,0.9-1.9
			c0.6-0.4,1.5-0.7,2.5-0.7h2.1v-0.1c0-0.7-0.2-1.2-0.5-1.6s-0.8-0.5-1.5-0.5c-0.5,0-1,0.1-1.4,0.4s-0.6,0.6-0.7,1.1h-1.4
			c0.1-0.6,0.2-1.1,0.6-1.5c0.3-0.4,0.8-0.7,1.3-0.9c0.5-0.2,1-0.3,1.6-0.3c1.1,0,1.9,0.3,2.5,0.9s0.8,1.4,0.8,2.4v4.9h-1.2
			l-0.1-1.4c-0.2,0.4-0.6,0.8-1,1.1C137.9,122.9,137.4,123,136.6,123z M136.8,121.9c0.5,0,0.9-0.1,1.3-0.4c0.4-0.3,0.6-0.6,0.8-1
			s0.3-0.9,0.3-1.3l0,0h-2c-0.8,0-1.3,0.1-1.7,0.4s-0.5,0.6-0.5,1s0.2,0.8,0.5,1C135.9,121.8,136.3,121.9,136.8,121.9z"/>
		<path class="st1" d="M142.7,122.8v-7.9h1.2l0.1,1.4c0.3-0.5,0.6-0.9,1.1-1.2c0.5-0.3,1-0.4,1.6-0.4c0.9,0,1.7,0.3,2.2,0.9
			c0.6,0.6,0.8,1.4,0.8,2.6v4.6h-1.3v-4.5c0-1.6-0.7-2.5-2.1-2.5c-0.7,0-1.2,0.2-1.7,0.7c-0.4,0.5-0.7,1.2-0.7,2.1v4.1L142.7,122.8
			L142.7,122.8z"/>
		<path class="st1" d="M156,122.8v-7.9h1.2l0.1,1.2c0.3-0.4,0.6-0.8,1-1s0.9-0.4,1.4-0.4c0.6,0,1.2,0.1,1.6,0.4
			c0.4,0.3,0.8,0.6,1,1.2c0.3-0.5,0.7-0.9,1.1-1.1c0.5-0.3,1-0.4,1.6-0.4c1,0,1.7,0.3,2.3,0.9s0.9,1.4,0.9,2.6v4.6h-1.3v-4.5
			c0-0.8-0.2-1.4-0.5-1.9s-0.8-0.6-1.4-0.6c-0.6,0-1.2,0.2-1.6,0.7c-0.4,0.5-0.6,1.2-0.6,2.1v4.1h-1.3v-4.5c0-0.8-0.2-1.4-0.5-1.9
			c-0.3-0.4-0.8-0.6-1.4-0.6c-0.6,0-1.1,0.2-1.6,0.7c-0.4,0.5-0.6,1.2-0.6,2.1v4.1L156,122.8L156,122.8z"/>
		<path class="st1" d="M173,123c-0.7,0-1.2-0.1-1.7-0.3c-0.4-0.2-0.8-0.5-1-0.9s-0.3-0.8-0.3-1.2c0-0.8,0.3-1.4,0.9-1.9
			s1.5-0.7,2.5-0.7h2.1v-0.1c0-0.7-0.2-1.2-0.5-1.6s-0.9-0.5-1.5-0.5c-0.5,0-1,0.1-1.3,0.4c-0.4,0.3-0.6,0.6-0.7,1.1h-1.4
			c0.1-0.6,0.2-1.1,0.6-1.5c0.3-0.4,0.8-0.7,1.3-0.9c0.5-0.2,1-0.3,1.6-0.3c1.1,0,1.9,0.3,2.5,0.9s0.8,1.4,0.8,2.4v4.9h-1.2
			l-0.1-1.4c-0.2,0.4-0.5,0.8-1,1.1C174.3,122.9,173.7,123,173,123z M173.2,121.9c0.5,0,0.9-0.1,1.3-0.4c0.4-0.3,0.7-0.6,0.8-1
			c0.2-0.4,0.3-0.9,0.3-1.3l0,0h-2c-0.8,0-1.4,0.1-1.7,0.4s-0.5,0.6-0.5,1s0.2,0.8,0.5,1C172.2,121.8,172.7,121.9,173.2,121.9z"/>
		<path class="st1" d="M179,122.8v-11.5h1.3v6.9l3.2-3.3h1.7l-3.5,3.6l4,4.4H184l-3.6-4.1v4.1L179,122.8L179,122.8z"/>
		<path class="st1" d="M190.1,123c-0.8,0-1.4-0.2-2-0.5s-1.1-0.8-1.4-1.4c-0.3-0.6-0.5-1.4-0.5-2.2c0-0.8,0.2-1.6,0.5-2.2
			s0.8-1.1,1.4-1.5c0.6-0.4,1.3-0.5,2.1-0.5s1.4,0.2,2,0.5c0.6,0.4,1,0.8,1.3,1.4s0.4,1.2,0.4,1.8c0,0.1,0,0.2,0,0.3
			c0,0.1,0,0.2,0,0.4h-6.3c0,0.6,0.2,1.1,0.4,1.5s0.6,0.7,0.9,0.9c0.4,0.2,0.8,0.3,1.2,0.3c0.6,0,1-0.1,1.4-0.4s0.7-0.6,0.8-1h1.3
			c-0.2,0.7-0.6,1.4-1.2,1.8C191.8,122.8,191,123,190.1,123z M190.1,115.9c-0.6,0-1.2,0.2-1.7,0.6s-0.8,1-0.9,1.7h5
			c0-0.7-0.3-1.3-0.7-1.7C191.3,116.1,190.7,115.9,190.1,115.9z"/>
		<path class="st1" d="M199.8,126.4v-11.5h1.2l0.1,1.3c0.3-0.4,0.6-0.7,1.1-1s1.1-0.5,1.8-0.5c0.8,0,1.5,0.2,2.1,0.5
			c0.6,0.4,1,0.9,1.4,1.5c0.3,0.6,0.5,1.3,0.5,2.1c0,0.8-0.2,1.5-0.5,2.1s-0.8,1.1-1.4,1.5c-0.6,0.4-1.3,0.5-2.1,0.5
			c-0.6,0-1.2-0.1-1.7-0.4s-0.9-0.6-1.2-1.1v4.9L199.8,126.4L199.8,126.4z M203.9,121.9c0.5,0,1-0.1,1.4-0.4c0.4-0.2,0.7-0.6,1-1
			c0.2-0.5,0.4-1,0.4-1.6s-0.1-1.1-0.4-1.6c-0.2-0.5-0.6-0.8-1-1.1c-0.4-0.2-0.9-0.4-1.4-0.4s-1,0.1-1.4,0.4s-0.7,0.6-1,1.1
			c-0.2,0.4-0.3,1-0.3,1.6s0.1,1.1,0.3,1.6c0.2,0.4,0.6,0.8,1,1S203.4,121.9,203.9,121.9z"/>
		<path class="st1" d="M212.5,123c-0.7,0-1.2-0.1-1.7-0.3c-0.4-0.2-0.8-0.5-1-0.9s-0.3-0.8-0.3-1.2c0-0.8,0.3-1.4,0.9-1.9
			s1.5-0.7,2.5-0.7h2.1v-0.1c0-0.7-0.2-1.2-0.5-1.6s-0.9-0.5-1.5-0.5c-0.5,0-1,0.1-1.3,0.4c-0.4,0.3-0.6,0.6-0.7,1.1h-1.4
			c0.1-0.6,0.2-1.1,0.6-1.5c0.3-0.4,0.8-0.7,1.3-0.9c0.5-0.2,1-0.3,1.6-0.3c1.1,0,1.9,0.3,2.5,0.9s0.8,1.4,0.8,2.4v4.9h-1.2
			l-0.1-1.4c-0.2,0.4-0.5,0.8-1,1.1C213.8,122.9,213.3,123,212.5,123z M212.7,121.9c0.5,0,1-0.1,1.3-0.4c0.4-0.3,0.6-0.6,0.8-1
			s0.3-0.9,0.3-1.3l0,0h-2c-0.8,0-1.4,0.1-1.7,0.4s-0.5,0.6-0.5,1s0.1,0.8,0.5,1C211.8,121.8,212.2,121.9,212.7,121.9z"/>
		<path class="st1" d="M218.6,122.8v-7.9h1.2l0.1,1.5c0.2-0.5,0.6-0.9,1.1-1.2s1.1-0.5,1.9-0.5v1.4h-0.4c-0.5,0-0.9,0.1-1.3,0.2
			c-0.4,0.2-0.7,0.4-0.9,0.8s-0.4,0.9-0.4,1.6v4L218.6,122.8L218.6,122.8z"/>
		<path class="st1" d="M227.5,122.8c-0.7,0-1.3-0.2-1.7-0.5s-0.6-1-0.6-1.9V116h-1.4v-1.1h1.4l0.2-1.9h1.2v1.9h2.3v1.1h-2.3v4.4
			c0,0.5,0.1,0.8,0.3,1s0.6,0.3,1.1,0.3h0.8v1.1H227.5z"/>
		<path class="st1" d="M238.4,123c-0.8,0-1.4-0.2-2-0.5s-1.1-0.8-1.4-1.4c-0.4-0.6-0.5-1.4-0.5-2.2s0.2-1.6,0.5-2.2s0.8-1.1,1.4-1.4
			c0.6-0.3,1.3-0.5,2-0.5s1.4,0.2,2,0.5s1.1,0.8,1.4,1.4c0.4,0.6,0.5,1.4,0.5,2.2s-0.2,1.6-0.5,2.2c-0.4,0.6-0.8,1.1-1.4,1.4
			C239.8,122.9,239.2,123,238.4,123z M238.4,121.9c0.5,0,0.9-0.1,1.3-0.3c0.4-0.2,0.7-0.6,1-1s0.4-1,0.4-1.7s-0.1-1.2-0.4-1.7
			c-0.2-0.4-0.6-0.8-1-1s-0.8-0.3-1.3-0.3s-0.9,0.1-1.3,0.3c-0.4,0.2-0.7,0.6-1,1c-0.2,0.5-0.4,1-0.4,1.7s0.1,1.2,0.4,1.7
			c0.2,0.4,0.6,0.8,1,1S238,121.9,238.4,121.9z"/>
		<path class="st1" d="M244.7,122.8V116h-1.2v-1.1h1.2v-1.4c0-0.8,0.2-1.3,0.6-1.7c0.4-0.4,0.9-0.5,1.7-0.5h0.8v1.1h-0.6
			c-0.4,0-0.7,0.1-0.9,0.2c-0.2,0.2-0.3,0.5-0.3,0.8v1.3h1.9v1.1H246v6.8L244.7,122.8L244.7,122.8z"/>
		<path class="st1" d="M254.7,126.4l2-4.3h-0.5l-3.1-7.2h1.5l2.6,6.2l2.8-6.2h1.4l-5.2,11.5H254.7z"/>
		<path class="st1" d="M265.6,123c-0.8,0-1.4-0.2-2-0.5s-1.1-0.8-1.4-1.4c-0.4-0.6-0.5-1.4-0.5-2.2s0.2-1.6,0.5-2.2s0.8-1.1,1.4-1.4
			s1.3-0.5,2-0.5c0.8,0,1.4,0.2,2,0.5s1.1,0.8,1.4,1.4c0.4,0.6,0.5,1.4,0.5,2.2s-0.2,1.6-0.5,2.2c-0.4,0.6-0.8,1.1-1.4,1.4
			C267,122.9,266.3,123,265.6,123z M265.6,121.9c0.5,0,0.9-0.1,1.3-0.3c0.4-0.2,0.7-0.6,1-1s0.4-1,0.4-1.7s-0.1-1.2-0.4-1.7
			s-0.6-0.8-1-1s-0.8-0.3-1.3-0.3s-0.9,0.1-1.3,0.3c-0.4,0.2-0.7,0.6-1,1c-0.2,0.5-0.4,1-0.4,1.7s0.1,1.2,0.4,1.7s0.6,0.8,1,1
			S265.1,121.9,265.6,121.9z"/>
		<path class="st1" d="M274.3,123c-0.9,0-1.7-0.3-2.2-0.9c-0.6-0.6-0.8-1.4-0.8-2.6v-4.6h1.3v4.5c0,1.7,0.7,2.5,2,2.5
			c0.7,0,1.3-0.2,1.7-0.7c0.5-0.5,0.7-1.2,0.7-2.1V115h1.3v7.9h-1.2l-0.1-1.4c-0.2,0.5-0.6,0.9-1.1,1.2
			C275.5,122.9,275,123,274.3,123z"/>
		<path class="st1" d="M280.6,122.8v-7.9h1.2l0.1,1.5c0.2-0.5,0.6-0.9,1.1-1.2s1.1-0.5,1.9-0.5v1.4h-0.4c-0.5,0-0.9,0.1-1.3,0.2
			c-0.4,0.2-0.7,0.4-0.9,0.8c-0.2,0.4-0.4,0.9-0.4,1.6v4L280.6,122.8L280.6,122.8z"/>
		<path class="st1" d="M31.2,145c-0.8,0-1.5-0.2-2.1-0.5c-0.6-0.4-1-0.9-1.4-1.5c-0.3-0.6-0.5-1.3-0.5-2.1s0.2-1.5,0.5-2.1
			s0.8-1.1,1.4-1.5c0.6-0.4,1.3-0.5,2.1-0.5c0.7,0,1.2,0.1,1.7,0.4c0.5,0.3,0.9,0.6,1.2,1.1v-4.9h1.3v11.5h-1.2l-0.1-1.3
			c-0.3,0.4-0.6,0.7-1.1,1S31.9,145,31.2,145z M31.3,143.9c0.5,0,1-0.1,1.4-0.4c0.4-0.2,0.7-0.6,1-1c0.2-0.5,0.3-1,0.3-1.6
			s-0.1-1.1-0.3-1.6c-0.2-0.4-0.5-0.8-1-1s-0.9-0.4-1.4-0.4s-1,0.1-1.4,0.4s-0.7,0.6-1,1c-0.2,0.5-0.3,1-0.3,1.6s0.1,1.1,0.3,1.6
			c0.2,0.4,0.6,0.8,1,1S30.8,143.9,31.3,143.9z"/>
		<path class="st1" d="M40.3,145c-0.7,0-1.2-0.1-1.7-0.3c-0.4-0.2-0.8-0.5-1-0.9s-0.3-0.8-0.3-1.2c0-0.8,0.3-1.4,0.9-1.9
			c0.6-0.4,1.5-0.7,2.5-0.7h2.1v-0.1c0-0.7-0.2-1.2-0.5-1.6c-0.4-0.4-0.8-0.5-1.5-0.5c-0.5,0-1,0.1-1.4,0.4
			c-0.4,0.3-0.6,0.6-0.7,1.1h-1.4c0-0.6,0.2-1.1,0.6-1.5c0.3-0.4,0.8-0.7,1.3-0.9s1-0.3,1.6-0.3c1.1,0,1.9,0.3,2.5,0.9
			c0.6,0.6,0.8,1.4,0.8,2.4v4.9h-1.2l-0.1-1.4c-0.2,0.5-0.6,0.8-1,1.1C41.6,144.9,41,145,40.3,145z M40.5,143.9
			c0.5,0,0.9-0.1,1.3-0.4s0.7-0.6,0.8-1c0.2-0.4,0.3-0.9,0.3-1.3l0,0h-2c-0.8,0-1.3,0.1-1.7,0.4c-0.3,0.3-0.5,0.6-0.5,1
			s0.2,0.8,0.5,1C39.5,143.8,39.9,143.9,40.5,143.9z"/>
		<path class="st1" d="M47.1,135.2c-0.3,0-0.5-0.1-0.7-0.3s-0.3-0.4-0.3-0.7s0.1-0.5,0.3-0.6c0.2-0.2,0.4-0.3,0.7-0.3
			s0.5,0.1,0.7,0.3s0.3,0.4,0.3,0.6c0,0.3-0.1,0.5-0.3,0.7S47.3,135.2,47.1,135.2z M46.4,144.8v-7.9h1.3v7.9H46.4z"/>
		<path class="st1" d="M50.1,144.8v-11.5h1.3v11.5H50.1z"/>
		<path class="st1" d="M54.5,148.4l2-4.3H56l-3.2-7.2h1.5l2.6,6.2l2.8-6.2h1.4l-5.2,11.5H54.5z"/>
		<path class="st1" d="M66.8,144.8v-7.9H68l0.1,1.5c0.2-0.5,0.6-0.9,1.1-1.2s1.1-0.5,1.9-0.5v1.4h-0.4c-0.5,0-0.9,0.1-1.3,0.2
			c-0.4,0.2-0.7,0.5-0.9,0.8c-0.2,0.4-0.3,0.9-0.3,1.6v4L66.8,144.8L66.8,144.8z"/>
		<path class="st1" d="M75.9,145c-0.8,0-1.4-0.2-2-0.5s-1.1-0.8-1.4-1.4c-0.3-0.6-0.5-1.4-0.5-2.2s0.2-1.6,0.5-2.2
			c0.3-0.6,0.8-1.1,1.4-1.4c0.6-0.3,1.3-0.5,2-0.5s1.4,0.2,2,0.5s1.1,0.8,1.4,1.4c0.3,0.6,0.5,1.4,0.5,2.2s-0.2,1.6-0.5,2.2
			c-0.3,0.6-0.8,1.1-1.4,1.4S76.6,145,75.9,145z M75.9,143.9c0.5,0,0.9-0.1,1.3-0.3s0.7-0.6,1-1s0.4-1,0.4-1.7s-0.1-1.2-0.4-1.7
			c-0.2-0.4-0.6-0.8-1-1s-0.8-0.3-1.3-0.3s-0.9,0.1-1.3,0.3s-0.7,0.6-1,1c-0.2,0.5-0.4,1-0.4,1.7s0.1,1.2,0.4,1.7
			c0.2,0.5,0.6,0.8,1,1S75.5,143.9,75.9,143.9z"/>
		<path class="st1" d="M84.7,145c-0.9,0-1.7-0.3-2.2-0.9c-0.6-0.6-0.8-1.4-0.8-2.6v-4.6H83v4.5c0,1.6,0.7,2.5,2,2.5
			c0.7,0,1.3-0.2,1.7-0.7c0.4-0.5,0.7-1.2,0.7-2.1V137h1.3v7.9h-1.2l-0.1-1.4c-0.2,0.5-0.6,0.9-1.1,1.2
			C85.8,144.9,85.3,145,84.7,145z"/>
		<path class="st1" d="M94,144.8c-0.7,0-1.3-0.2-1.7-0.5c-0.4-0.4-0.6-1-0.6-1.9V138h-1.4v-1.1h1.4l0.2-1.9h1.2v1.9h2.3v1.1h-2.3
			v4.4c0,0.5,0.1,0.8,0.3,1c0.2,0.2,0.6,0.3,1.1,0.3h0.8v1.1L94,144.8L94,144.8z"/>
		<path class="st1" d="M97.9,135.2c-0.3,0-0.5-0.1-0.7-0.3s-0.3-0.4-0.3-0.7s0.1-0.5,0.3-0.6c0.2-0.2,0.4-0.3,0.7-0.3
			s0.5,0.1,0.7,0.3s0.3,0.4,0.3,0.6c0,0.3-0.1,0.5-0.3,0.7S98.2,135.2,97.9,135.2z M97.2,144.8v-7.9h1.3v7.9H97.2z"/>
		<path class="st1" d="M100.9,144.8v-7.9h1.2l0.1,1.4c0.3-0.5,0.6-0.9,1.1-1.2s1-0.4,1.6-0.4c0.9,0,1.7,0.3,2.2,0.9
			c0.6,0.6,0.8,1.4,0.8,2.6v4.6h-1.3v-4.5c0-1.6-0.7-2.5-2.1-2.5c-0.7,0-1.2,0.2-1.7,0.7c-0.4,0.5-0.7,1.2-0.7,2.1v4.1L100.9,144.8
			L100.9,144.8z"/>
		<path class="st1" d="M113.6,145c-0.8,0-1.4-0.2-2-0.5c-0.6-0.4-1.1-0.8-1.4-1.5c-0.3-0.6-0.5-1.4-0.5-2.2s0.2-1.6,0.5-2.2
			c0.3-0.6,0.8-1.1,1.4-1.5s1.3-0.5,2.1-0.5c0.8,0,1.4,0.2,2,0.5s1,0.8,1.3,1.4c0.3,0.6,0.5,1.2,0.5,1.8c0,0.1,0,0.2,0,0.4
			c0,0.1,0,0.2,0,0.4h-6.4c0,0.6,0.2,1.1,0.4,1.5s0.6,0.7,0.9,0.9c0.4,0.2,0.8,0.3,1.2,0.3c0.6,0,1-0.1,1.4-0.4
			c0.4-0.3,0.6-0.6,0.8-1h1.3c-0.2,0.7-0.6,1.4-1.2,1.8C115.4,144.8,114.6,145,113.6,145z M113.6,137.9c-0.6,0-1.2,0.2-1.7,0.6
			c-0.5,0.4-0.8,1-0.9,1.7h5c0-0.7-0.3-1.3-0.7-1.7C114.9,138.1,114.3,137.9,113.6,137.9z"/>
		<path class="st1" d="M119.6,144.9c-0.3,0-0.5-0.1-0.7-0.3s-0.3-0.4-0.3-0.6c0-0.3,0.1-0.5,0.3-0.7c0.2-0.2,0.4-0.3,0.7-0.3
			c0.3,0,0.5,0.1,0.6,0.3c0.2,0.2,0.3,0.4,0.3,0.7s-0.1,0.5-0.3,0.6C120.1,144.8,119.9,144.9,119.6,144.9z"/>
		<path class="st1" d="M129.4,144.8v-4.3l-3.6-6.9h1.5l2.8,5.7l2.8-5.7h1.5l-3.6,6.9v4.3H129.4z"/>
		<path class="st1" d="M138,145c-0.8,0-1.4-0.2-2-0.5s-1.1-0.8-1.4-1.4c-0.4-0.6-0.5-1.4-0.5-2.2s0.2-1.6,0.5-2.2
			c0.4-0.6,0.8-1.1,1.4-1.4c0.6-0.3,1.3-0.5,2-0.5c0.8,0,1.4,0.2,2,0.5s1.1,0.8,1.4,1.4c0.4,0.6,0.5,1.4,0.5,2.2s-0.2,1.6-0.5,2.2
			c-0.4,0.6-0.8,1.1-1.4,1.4C139.4,144.9,138.8,145,138,145z M138,143.9c0.5,0,0.9-0.1,1.3-0.3c0.4-0.2,0.7-0.6,1-1s0.4-1,0.4-1.7
			s-0.1-1.2-0.4-1.7c-0.2-0.4-0.6-0.8-0.9-1c-0.4-0.2-0.8-0.3-1.3-0.3s-0.9,0.1-1.3,0.3c-0.4,0.2-0.7,0.6-1,1
			c-0.2,0.5-0.4,1-0.4,1.7s0.1,1.2,0.4,1.7s0.6,0.8,0.9,1C137.2,143.8,137.6,143.9,138,143.9z"/>
		<path class="st1" d="M146.8,145c-0.9,0-1.7-0.3-2.2-0.9c-0.6-0.6-0.8-1.4-0.8-2.6v-4.6h1.3v4.5c0,1.6,0.7,2.5,2,2.5
			c0.7,0,1.3-0.2,1.7-0.7s0.7-1.2,0.7-2.1V137h1.3v7.9h-1.2l-0.1-1.4c-0.2,0.5-0.6,0.9-1.1,1.2C147.9,144.9,147.4,145,146.8,145z"/>
		<path class="st1" d="M160.9,145c-0.8,0-1.4-0.2-2-0.5c-0.6-0.4-1.1-0.8-1.4-1.5c-0.3-0.6-0.5-1.4-0.5-2.2s0.2-1.6,0.5-2.2
			c0.4-0.6,0.8-1.1,1.4-1.5c0.6-0.4,1.3-0.5,2-0.5c0.9,0,1.7,0.2,2.4,0.7c0.6,0.5,1,1.2,1.2,2h-1.4c-0.1-0.5-0.4-0.9-0.8-1.1
			c-0.4-0.3-0.9-0.4-1.5-0.4c-0.4,0-0.9,0.1-1.3,0.3c-0.4,0.2-0.7,0.6-1,1c-0.2,0.4-0.4,1-0.4,1.7s0.1,1.2,0.4,1.7s0.6,0.8,1,1
			s0.8,0.3,1.3,0.3c0.6,0,1-0.1,1.5-0.4c0.4-0.3,0.7-0.7,0.8-1.2h1.4c-0.2,0.8-0.6,1.5-1.2,2C162.7,144.8,161.9,145,160.9,145z"/>
		<path class="st1" d="M170,145c-0.8,0-1.4-0.2-2-0.5s-1.1-0.8-1.4-1.4c-0.4-0.6-0.5-1.4-0.5-2.2s0.2-1.6,0.5-2.2
			c0.4-0.6,0.8-1.1,1.4-1.4c0.6-0.3,1.3-0.5,2-0.5s1.4,0.2,2,0.5s1.1,0.8,1.4,1.4c0.4,0.6,0.5,1.4,0.5,2.2s-0.2,1.6-0.5,2.2
			c-0.4,0.6-0.8,1.1-1.4,1.4C171.4,144.9,170.8,145,170,145z M170,143.9c0.5,0,0.9-0.1,1.3-0.3c0.4-0.2,0.7-0.6,1-1s0.4-1,0.4-1.7
			s-0.1-1.2-0.4-1.7c-0.2-0.4-0.6-0.8-0.9-1c-0.4-0.2-0.8-0.3-1.3-0.3s-0.9,0.1-1.3,0.3c-0.4,0.2-0.7,0.6-1,1
			c-0.2,0.5-0.4,1-0.4,1.7s0.1,1.2,0.4,1.7c0.2,0.5,0.6,0.8,0.9,1C169.1,143.8,169.6,143.9,170,143.9z"/>
		<path class="st1" d="M178.8,145c-0.9,0-1.7-0.3-2.2-0.9c-0.5-0.6-0.8-1.4-0.8-2.6v-4.6h1.3v4.5c0,1.6,0.7,2.5,2,2.5
			c0.7,0,1.3-0.2,1.7-0.7s0.7-1.2,0.7-2.1V137h1.3v7.9h-1.2l-0.1-1.4c-0.2,0.5-0.6,0.9-1.1,1.2C179.9,144.9,179.4,145,178.8,145z"/>
		<path class="st1" d="M185,144.8v-11.5h1.3v11.5H185z"/>
		<path class="st1" d="M192.2,145c-0.8,0-1.5-0.2-2.1-0.5c-0.6-0.4-1.1-0.9-1.4-1.5s-0.5-1.3-0.5-2.1s0.2-1.5,0.5-2.1
			s0.8-1.1,1.4-1.5c0.6-0.4,1.3-0.5,2.1-0.5c0.7,0,1.2,0.1,1.7,0.4c0.5,0.3,0.9,0.6,1.2,1.1v-4.9h1.3v11.5h-1.2l-0.1-1.3
			c-0.3,0.4-0.6,0.7-1.1,1C193.5,144.9,192.9,145,192.2,145z M192.3,143.9c0.5,0,1-0.1,1.4-0.4s0.7-0.6,1-1c0.2-0.5,0.3-1,0.3-1.6
			s-0.1-1.1-0.3-1.6c-0.2-0.4-0.6-0.8-1-1s-0.9-0.4-1.4-0.4s-1,0.1-1.4,0.4c-0.4,0.2-0.7,0.6-1,1c-0.2,0.5-0.3,1-0.3,1.6
			s0.1,1.1,0.3,1.6c0.2,0.4,0.6,0.8,1,1S191.8,143.9,192.3,143.9z"/>
		<path class="st1" d="M206,142.4c-0.4,0-0.9-0.1-1.2-0.2L204,143c0.1,0.1,0.3,0.2,0.4,0.2c0.2,0.1,0.4,0.1,0.8,0.2
			c0.3,0.1,0.8,0.1,1.4,0.1c1.1,0.1,1.8,0.3,2.3,0.7s0.7,1,0.7,1.6c0,0.5-0.1,0.9-0.4,1.3s-0.6,0.8-1.1,1c-0.5,0.3-1.2,0.4-2,0.4
			c-0.7,0-1.3-0.1-1.9-0.3s-1-0.5-1.3-0.9s-0.5-0.9-0.5-1.4c0-0.3,0.1-0.6,0.2-1s0.5-0.7,0.9-1c-0.2-0.1-0.4-0.2-0.6-0.3
			c-0.2-0.1-0.3-0.2-0.5-0.4v-0.4l1.4-1.3c-0.6-0.5-0.9-1.2-0.9-2.1c0-0.5,0.1-1,0.4-1.4c0.2-0.4,0.6-0.8,1.1-1s1-0.4,1.7-0.4
			c0.5,0,0.9,0.1,1.2,0.2h2.9v1l-1.5,0.1c0.3,0.4,0.5,1,0.5,1.5s-0.1,1-0.4,1.4c-0.2,0.4-0.6,0.8-1.1,1
			C207.2,142.2,206.7,142.4,206,142.4z M203.7,145.9c0,0.5,0.2,0.9,0.7,1.2s1,0.4,1.7,0.4s1.2-0.1,1.6-0.4c0.4-0.3,0.6-0.7,0.6-1.1
			c0-0.3-0.1-0.6-0.4-0.9c-0.3-0.2-0.8-0.4-1.5-0.4c-0.6,0-1.1-0.1-1.5-0.2c-0.4,0.2-0.7,0.5-0.9,0.8
			C203.7,145.4,203.7,145.7,203.7,145.9z M206,141.2c0.6,0,1-0.1,1.4-0.4c0.3-0.3,0.5-0.7,0.5-1.3c0-0.5-0.2-1-0.5-1.3
			s-0.8-0.4-1.4-0.4c-0.6,0-1,0.2-1.4,0.4c-0.3,0.3-0.5,0.7-0.5,1.3s0.2,1,0.5,1.3C205,141.1,205.4,141.2,206,141.2z"/>
		<path class="st1" d="M215,145c-0.8,0-1.4-0.2-2-0.5s-1.1-0.8-1.4-1.4c-0.3-0.6-0.5-1.4-0.5-2.2s0.2-1.6,0.5-2.2
			c0.3-0.6,0.8-1.1,1.4-1.4c0.6-0.3,1.3-0.5,2-0.5c0.8,0,1.4,0.2,2,0.5s1.1,0.8,1.4,1.4c0.3,0.6,0.5,1.4,0.5,2.2s-0.2,1.6-0.5,2.2
			c-0.3,0.6-0.8,1.1-1.4,1.4C216.4,144.9,215.7,145,215,145z M215,143.9c0.5,0,0.9-0.1,1.3-0.3c0.4-0.2,0.7-0.6,1-1s0.4-1,0.4-1.7
			s-0.1-1.2-0.4-1.7s-0.6-0.8-0.9-1c-0.4-0.2-0.8-0.3-1.3-0.3s-0.9,0.1-1.3,0.3c-0.4,0.2-0.7,0.6-1,1c-0.2,0.5-0.4,1-0.4,1.7
			s0.1,1.2,0.4,1.7s0.6,0.8,0.9,1C214.1,143.8,214.5,143.9,215,143.9z"/>
		<path class="st1" d="M225.5,144.8V138h-1.2v-1.1h1.2v-1.4c0-0.8,0.2-1.3,0.6-1.7s0.9-0.5,1.7-0.5h0.8v1.1H228
			c-0.4,0-0.7,0.1-0.9,0.2s-0.3,0.5-0.3,0.8v1.3h1.9v1.1h-1.9v6.8L225.5,144.8L225.5,144.8z"/>
		<path class="st1" d="M233.7,145c-0.7,0-1.4-0.2-2-0.5s-1.1-0.8-1.4-1.4c-0.3-0.6-0.5-1.4-0.5-2.2s0.2-1.6,0.5-2.2
			c0.4-0.6,0.8-1.1,1.4-1.4c0.6-0.3,1.3-0.5,2-0.5s1.4,0.2,2,0.5s1.1,0.8,1.4,1.4c0.4,0.6,0.5,1.4,0.5,2.2s-0.2,1.6-0.5,2.2
			c-0.4,0.6-0.8,1.1-1.4,1.4S234.5,145,233.7,145z M233.7,143.9c0.5,0,0.9-0.1,1.3-0.3c0.4-0.2,0.7-0.6,1-1s0.4-1,0.4-1.7
			s-0.1-1.2-0.4-1.7c-0.2-0.4-0.6-0.8-0.9-1c-0.4-0.2-0.8-0.3-1.3-0.3s-0.9,0.1-1.3,0.3c-0.4,0.2-0.7,0.6-1,1
			c-0.2,0.5-0.4,1-0.4,1.7s0.1,1.2,0.4,1.7c0.2,0.5,0.6,0.8,0.9,1C232.8,143.8,233.3,143.9,233.7,143.9z"/>
		<path class="st1" d="M239.6,144.8v-7.9h1.2l0.1,1.5c0.2-0.5,0.6-0.9,1.1-1.2s1.1-0.5,1.9-0.5v1.4h-0.4c-0.5,0-0.9,0.1-1.3,0.2
			c-0.4,0.2-0.7,0.5-0.9,0.8c-0.2,0.4-0.4,0.9-0.4,1.6v4L239.6,144.8L239.6,144.8z"/>
		<path class="st1" d="M252.2,145c-0.7,0-1.2-0.1-1.6-0.3s-0.8-0.5-1-0.9s-0.3-0.8-0.3-1.2c0-0.8,0.3-1.4,0.9-1.9
			c0.6-0.4,1.5-0.7,2.5-0.7h2.1v-0.1c0-0.7-0.2-1.2-0.5-1.6c-0.4-0.4-0.9-0.5-1.5-0.5c-0.5,0-1,0.1-1.3,0.4
			c-0.4,0.3-0.6,0.6-0.7,1.1h-1.4c0.1-0.6,0.2-1.1,0.6-1.5c0.3-0.4,0.8-0.7,1.3-0.9s1-0.3,1.6-0.3c1.1,0,1.9,0.3,2.5,0.9
			c0.6,0.6,0.8,1.4,0.8,2.4v4.9H255l-0.1-1.4c-0.2,0.5-0.5,0.8-1,1.1C253.6,144.9,253,145,252.2,145z M252.5,143.9
			c0.5,0,1-0.1,1.3-0.4s0.6-0.6,0.8-1s0.3-0.9,0.3-1.3l0,0h-2c-0.8,0-1.4,0.1-1.7,0.4c-0.3,0.3-0.5,0.6-0.5,1s0.1,0.8,0.5,1
			C251.5,143.8,251.9,143.9,252.5,143.9z"/>
		<path class="st1" d="M29.2,166.8l-2.3-7.9h1.3l1.7,6.2l1.9-6.2h1.5l1.8,6.2l1.7-6.2h1.3l-2.3,7.9h-1.4l-2-6.5l-2,6.5H29.2z"/>
		<path class="st1" d="M42,167c-0.7,0-1.2-0.1-1.6-0.3c-0.4-0.2-0.8-0.5-1-0.9s-0.3-0.8-0.3-1.2c0-0.8,0.3-1.4,0.9-1.9
			c0.6-0.4,1.5-0.7,2.5-0.7h2.1v-0.1c0-0.7-0.2-1.2-0.5-1.6c-0.4-0.4-0.8-0.5-1.5-0.5c-0.5,0-1,0.1-1.3,0.4
			c-0.4,0.3-0.6,0.6-0.7,1.1h-1.4c0.1-0.6,0.2-1.1,0.6-1.5c0.3-0.4,0.8-0.7,1.3-0.9s1-0.3,1.6-0.3c1.1,0,1.9,0.3,2.5,0.9
			s0.8,1.4,0.8,2.4v4.9h-1.2l-0.1-1.4c-0.2,0.5-0.5,0.8-1,1.1C43.3,166.9,42.7,167,42,167z M42.2,165.9c0.5,0,1-0.1,1.3-0.4
			c0.4-0.3,0.6-0.6,0.8-1s0.3-0.9,0.3-1.3l0,0h-2c-0.8,0-1.3,0.1-1.7,0.4c-0.3,0.3-0.5,0.6-0.5,1s0.2,0.8,0.5,1
			C41.2,165.8,41.6,165.9,42.2,165.9z"/>
		<path class="st1" d="M48,166.8v-11.5h1.3v11.5H48z"/>
		<path class="st1" d="M51.5,166.8v-11.5h1.3v6.9l3.2-3.3h1.7l-3.5,3.6l4,4.4h-1.7l-3.6-4.1v4.1L51.5,166.8L51.5,166.8z"/>
		<path class="st1" d="M65.5,166.8l-2.3-7.9h1.3l1.7,6.2l1.9-6.2h1.5l1.9,6.2l1.7-6.2h1.4l-2.3,7.9h-1.4l-1.9-6.5l-1.9,6.5H65.5z"/>
		<path class="st1" d="M76.7,157.2c-0.3,0-0.5-0.1-0.7-0.3s-0.3-0.4-0.3-0.7s0.1-0.5,0.3-0.6c0.2-0.2,0.4-0.3,0.7-0.3
			s0.5,0.1,0.7,0.3s0.3,0.4,0.3,0.6c0,0.3-0.1,0.5-0.3,0.7C77.2,157.1,77,157.2,76.7,157.2z M76.1,166.8v-7.9h1.3v7.9H76.1z"/>
		<path class="st1" d="M82.9,166.8c-0.7,0-1.3-0.2-1.7-0.5c-0.4-0.4-0.6-1-0.6-1.9V160h-1.4v-1.1h1.4l0.2-1.9H82v1.9h2.3v1.1H82v4.4
			c0,0.5,0.1,0.8,0.3,1c0.2,0.2,0.6,0.3,1.1,0.3h0.7v1.1L82.9,166.8L82.9,166.8z"/>
		<path class="st1" d="M85.9,166.8v-11.5h1.3v4.9c0.3-0.5,0.7-0.9,1.1-1.1s1-0.4,1.6-0.4c0.9,0,1.7,0.3,2.2,0.9
			c0.6,0.6,0.8,1.4,0.8,2.6v4.6h-1.3v-4.5c0-1.6-0.7-2.5-2-2.5c-0.7,0-1.3,0.2-1.7,0.7c-0.5,0.5-0.7,1.2-0.7,2.1v4.1L85.9,166.8
			L85.9,166.8z"/>
		<path class="st1" d="M102,167c-0.7,0-1.2-0.1-1.7-0.3c-0.4-0.2-0.8-0.5-1-0.9S99,165,99,164.6c0-0.8,0.3-1.4,0.9-1.9
			c0.6-0.4,1.5-0.7,2.5-0.7h2.1v-0.1c0-0.7-0.2-1.2-0.5-1.6c-0.4-0.4-0.9-0.5-1.5-0.5c-0.5,0-1,0.1-1.3,0.4
			c-0.4,0.3-0.6,0.6-0.7,1.1h-1.4c0-0.6,0.2-1.1,0.6-1.5c0.3-0.4,0.8-0.7,1.3-0.9s1-0.3,1.6-0.3c1.1,0,1.9,0.3,2.5,0.9
			c0.6,0.6,0.8,1.4,0.8,2.4v4.9h-1.2l-0.1-1.4c-0.2,0.5-0.6,0.8-1,1.1C103.3,166.9,102.7,167,102,167z M102.2,165.9
			c0.5,0,0.9-0.1,1.3-0.4c0.4-0.3,0.7-0.6,0.8-1c0.2-0.4,0.3-0.9,0.3-1.3l0,0h-2c-0.8,0-1.3,0.1-1.7,0.4c-0.3,0.3-0.5,0.6-0.5,1
			s0.2,0.8,0.5,1C101.2,165.8,101.6,165.9,102.2,165.9z"/>
		<path class="st1" d="M112.7,166.8V160h-1.2v-1.1h1.2v-1.4c0-0.8,0.2-1.3,0.6-1.7s0.9-0.5,1.7-0.5h0.8v1.1h-0.7
			c-0.4,0-0.7,0.1-0.9,0.2c-0.2,0.2-0.3,0.5-0.3,0.8v1.3h1.9v1.1h-1.9v6.8L112.7,166.8L112.7,166.8z"/>
		<path class="st1" d="M117.5,166.8v-7.9h1.2l0.1,1.5c0.2-0.5,0.6-0.9,1.1-1.2s1.1-0.5,1.9-0.5v1.4h-0.4c-0.5,0-0.9,0.1-1.3,0.2
			c-0.4,0.2-0.7,0.5-0.9,0.8c-0.2,0.4-0.3,0.9-0.3,1.6v4L117.5,166.8L117.5,166.8z"/>
		<path class="st1" d="M124.2,157.2c-0.3,0-0.5-0.1-0.7-0.3s-0.3-0.4-0.3-0.7s0.1-0.5,0.3-0.6c0.2-0.2,0.4-0.3,0.7-0.3
			s0.5,0.1,0.7,0.3s0.3,0.4,0.3,0.6c0,0.3-0.1,0.5-0.3,0.7S124.4,157.2,124.2,157.2z M123.5,166.8v-7.9h1.3v7.9H123.5z"/>
		<path class="st1" d="M130.7,167c-0.8,0-1.4-0.2-2-0.5c-0.6-0.4-1.1-0.8-1.4-1.5c-0.3-0.6-0.5-1.4-0.5-2.2s0.2-1.6,0.5-2.2
			s0.8-1.1,1.4-1.5c0.6-0.4,1.3-0.5,2.1-0.5s1.4,0.2,2,0.5s1,0.8,1.3,1.4c0.3,0.6,0.4,1.2,0.4,1.8c0,0.1,0,0.2,0,0.4
			c0,0.1,0,0.2,0,0.4h-6.3c0,0.6,0.2,1.1,0.4,1.5s0.6,0.7,0.9,0.9c0.4,0.2,0.8,0.3,1.2,0.3c0.6,0,1-0.1,1.4-0.4
			c0.4-0.3,0.7-0.6,0.8-1h1.3c-0.2,0.7-0.6,1.4-1.2,1.8C132.5,166.8,131.7,167,130.7,167z M130.7,159.9c-0.6,0-1.2,0.2-1.7,0.6
			c-0.5,0.4-0.8,1-0.9,1.7h5c0-0.7-0.3-1.3-0.7-1.7C132,160.1,131.4,159.9,130.7,159.9z"/>
		<path class="st1" d="M136.3,166.8v-7.9h1.2l0.1,1.4c0.3-0.5,0.6-0.9,1.1-1.2s1-0.4,1.6-0.4c0.9,0,1.7,0.3,2.2,0.9
			c0.6,0.6,0.8,1.4,0.8,2.6v4.6h-1.2v-4.5c0-1.6-0.7-2.5-2.1-2.5c-0.7,0-1.2,0.2-1.7,0.7c-0.4,0.5-0.7,1.2-0.7,2.1v4.1L136.3,166.8
			L136.3,166.8z"/>
		<path class="st1" d="M149,167c-0.8,0-1.5-0.2-2.1-0.5c-0.6-0.4-1-0.9-1.4-1.5s-0.5-1.3-0.5-2.1s0.2-1.5,0.5-2.1s0.8-1.1,1.4-1.5
			c0.6-0.4,1.3-0.5,2.1-0.5c0.6,0,1.2,0.1,1.7,0.4c0.5,0.3,0.9,0.6,1.2,1.1v-4.9h1.3v11.5h-1.1l-0.1-1.3c-0.3,0.4-0.6,0.7-1.1,1
			S149.8,167,149,167z M149.2,165.9c0.5,0,1-0.1,1.4-0.4s0.7-0.6,1-1c0.2-0.5,0.3-1,0.3-1.6s-0.1-1.1-0.3-1.6c-0.2-0.4-0.6-0.8-1-1
			s-0.9-0.4-1.4-0.4s-1,0.1-1.4,0.4c-0.4,0.2-0.7,0.6-1,1c-0.2,0.5-0.3,1-0.3,1.6s0.1,1.1,0.3,1.6c0.2,0.4,0.6,0.8,1,1
			S148.7,165.9,149.2,165.9z"/>
		<path class="st1" d="M154.4,168.8l0.9-3.5h1.4l-1.4,3.5H154.4z"/>
		<path class="st1" d="M162.6,166.8v-7.9h1.2l0.1,1.5c0.2-0.5,0.6-0.9,1.1-1.2s1.1-0.5,1.9-0.5v1.4h-0.4c-0.5,0-0.9,0.1-1.3,0.2
			c-0.4,0.2-0.7,0.5-0.9,0.8c-0.2,0.4-0.3,0.9-0.3,1.6v4L162.6,166.8L162.6,166.8z"/>
		<path class="st1" d="M169.2,157.2c-0.3,0-0.5-0.1-0.7-0.3s-0.3-0.4-0.3-0.7s0.1-0.5,0.3-0.6c0.2-0.2,0.4-0.3,0.7-0.3
			s0.5,0.1,0.7,0.3s0.3,0.4,0.3,0.6c0,0.3-0.1,0.5-0.3,0.7S169.4,157.2,169.2,157.2z M168.5,166.8v-7.9h1.3v7.9H168.5z"/>
		<path class="st1" d="M175.8,167c-0.8,0-1.5-0.2-2.1-0.5c-0.6-0.4-1.1-0.9-1.4-1.5s-0.5-1.3-0.5-2.1s0.2-1.5,0.5-2.1
			s0.8-1.1,1.4-1.5c0.6-0.4,1.3-0.5,2.1-0.5c0.7,0,1.2,0.1,1.7,0.4c0.5,0.3,0.9,0.6,1.2,1.1v-4.9h1.3v11.5h-1.2l-0.1-1.3
			c-0.3,0.4-0.6,0.7-1.1,1C177.1,166.9,176.5,167,175.8,167z M175.9,165.9c0.5,0,1-0.1,1.4-0.4c0.4-0.2,0.7-0.6,1-1
			c0.2-0.5,0.3-1,0.3-1.6s-0.1-1.1-0.3-1.6c-0.2-0.4-0.6-0.8-1-1s-0.9-0.4-1.4-0.4s-1,0.1-1.4,0.4s-0.7,0.6-1,1
			c-0.2,0.5-0.3,1-0.3,1.6s0.1,1.1,0.3,1.6c0.2,0.4,0.5,0.8,1,1S175.4,165.9,175.9,165.9z"/>
		<path class="st1" d="M185.8,167c-0.8,0-1.4-0.2-2-0.5c-0.6-0.4-1.1-0.8-1.4-1.5c-0.3-0.6-0.5-1.4-0.5-2.2s0.2-1.6,0.5-2.2
			c0.3-0.6,0.8-1.1,1.4-1.5c0.6-0.4,1.3-0.5,2.1-0.5s1.4,0.2,2,0.5s1,0.8,1.3,1.4c0.3,0.6,0.5,1.2,0.5,1.8c0,0.1,0,0.2,0,0.4
			c0,0.1,0,0.2,0,0.4h-6.3c0,0.6,0.2,1.1,0.4,1.5s0.6,0.7,0.9,0.9c0.4,0.2,0.8,0.3,1.2,0.3c0.6,0,1-0.1,1.4-0.4
			c0.4-0.3,0.6-0.6,0.8-1h1.3c-0.2,0.7-0.6,1.4-1.2,1.8C187.5,166.8,186.8,167,185.8,167z M185.8,159.9c-0.6,0-1.2,0.2-1.7,0.6
			c-0.5,0.4-0.8,1-0.9,1.7h5c0-0.7-0.3-1.3-0.7-1.7C187.1,160.1,186.5,159.9,185.8,159.9z"/>
		<path class="st1" d="M198.2,167c-0.7,0-1.2-0.1-1.6-0.3c-0.4-0.2-0.8-0.5-1-0.9s-0.3-0.8-0.3-1.2c0-0.8,0.3-1.4,0.9-1.9
			c0.6-0.4,1.5-0.7,2.5-0.7h2.1v-0.1c0-0.7-0.2-1.2-0.5-1.6c-0.4-0.4-0.9-0.5-1.5-0.5c-0.5,0-1,0.1-1.3,0.4s-0.6,0.6-0.7,1.1h-1.4
			c0-0.6,0.2-1.1,0.6-1.5c0.3-0.4,0.8-0.7,1.3-0.9s1-0.3,1.6-0.3c1.1,0,1.9,0.3,2.5,0.9c0.6,0.6,0.8,1.4,0.8,2.4v4.9H201l-0.1-1.4
			c-0.2,0.5-0.6,0.8-1,1.1C199.5,166.9,199,167,198.2,167z M198.4,165.9c0.5,0,0.9-0.1,1.3-0.4s0.7-0.6,0.8-1
			c0.2-0.4,0.3-0.9,0.3-1.3l0,0h-2c-0.8,0-1.4,0.1-1.7,0.4c-0.3,0.3-0.5,0.6-0.5,1s0.1,0.8,0.5,1
			C197.5,165.8,197.9,165.9,198.4,165.9z"/>
		<path class="st1" d="M212.7,167c-0.7,0-1.2-0.1-1.7-0.4c-0.5-0.3-0.9-0.6-1.2-1.1l-0.1,1.3h-1.2v-11.5h1.3v4.9
			c0.3-0.4,0.6-0.7,1.1-1s1.1-0.5,1.8-0.5c0.8,0,1.5,0.2,2.1,0.5c0.6,0.4,1,0.9,1.4,1.5c0.3,0.6,0.5,1.3,0.5,2.1s-0.2,1.5-0.5,2.1
			s-0.8,1.1-1.4,1.5C214.2,166.9,213.5,167,212.7,167z M212.6,165.9c0.5,0,1-0.1,1.4-0.4c0.4-0.2,0.7-0.6,1-1c0.2-0.5,0.4-1,0.4-1.6
			s-0.1-1.1-0.4-1.6c-0.2-0.4-0.6-0.8-1-1s-0.9-0.4-1.4-0.4s-1,0.1-1.4,0.4s-0.7,0.6-1,1c-0.2,0.5-0.3,1-0.3,1.6s0.1,1.1,0.3,1.6
			c0.2,0.4,0.6,0.8,1,1S212.1,165.9,212.6,165.9z"/>
		<path class="st1" d="M219.4,157.2c-0.3,0-0.5-0.1-0.7-0.3s-0.3-0.4-0.3-0.7s0.1-0.5,0.3-0.6c0.2-0.2,0.4-0.3,0.7-0.3
			s0.5,0.1,0.7,0.3s0.3,0.4,0.3,0.6c0,0.3-0.1,0.5-0.3,0.7C219.8,157.1,219.6,157.2,219.4,157.2z M218.7,166.8v-7.9h1.3v7.9H218.7z"
			/>
		<path class="st1" d="M222.4,166.8v-11.5h1.3v6.9l3.2-3.3h1.6l-3.5,3.6l4,4.4h-1.7l-3.6-4.1v4.1L222.4,166.8L222.4,166.8z"/>
		<path class="st1" d="M233.4,167c-0.8,0-1.4-0.2-2-0.5c-0.6-0.4-1.1-0.8-1.4-1.5c-0.3-0.6-0.5-1.4-0.5-2.2s0.2-1.6,0.5-2.2
			s0.8-1.1,1.4-1.5c0.6-0.4,1.3-0.5,2.1-0.5s1.4,0.2,2,0.5s1,0.8,1.3,1.4c0.3,0.6,0.4,1.2,0.4,1.8c0,0.1,0,0.2,0,0.4
			c0,0.1,0,0.2,0,0.4h-6.3c0,0.6,0.2,1.1,0.4,1.5s0.6,0.7,0.9,0.9c0.4,0.2,0.8,0.3,1.2,0.3c0.5,0,1-0.1,1.4-0.4
			c0.4-0.3,0.6-0.6,0.8-1h1.3c-0.2,0.7-0.6,1.4-1.2,1.8C235.1,166.8,234.4,167,233.4,167z M233.4,159.9c-0.6,0-1.2,0.2-1.7,0.6
			c-0.5,0.4-0.8,1-0.9,1.7h5c0-0.7-0.3-1.3-0.7-1.7C234.7,160.1,234.1,159.9,233.4,159.9z"/>
		<path class="st1" d="M237.9,168.8l0.9-3.5h1.4l-1.4,3.5H237.9z"/>
		<path class="st1" d="M31.2,189c-0.8,0-1.5-0.2-2.1-0.5c-0.6-0.4-1-0.9-1.4-1.5c-0.3-0.6-0.5-1.3-0.5-2.1s0.2-1.5,0.5-2.1
			s0.8-1.1,1.4-1.5c0.6-0.4,1.3-0.5,2.1-0.5c0.7,0,1.2,0.1,1.7,0.4c0.5,0.3,0.9,0.6,1.2,1.1v-4.9h1.3v11.5h-1.2l-0.1-1.3
			c-0.3,0.4-0.6,0.7-1.1,1S31.9,189,31.2,189z M31.3,187.9c0.5,0,1-0.1,1.4-0.4c0.4-0.2,0.7-0.6,1-1c0.2-0.5,0.3-1,0.3-1.6
			s-0.1-1.1-0.3-1.6c-0.2-0.4-0.5-0.8-1-1s-0.9-0.4-1.4-0.4s-1,0.1-1.4,0.4s-0.7,0.6-1,1c-0.2,0.5-0.3,1-0.3,1.6s0.1,1.1,0.3,1.6
			c0.2,0.4,0.6,0.8,1,1S30.8,187.9,31.3,187.9z"/>
		<path class="st1" d="M40.3,189c-0.7,0-1.2-0.1-1.7-0.3c-0.4-0.2-0.8-0.5-1-0.9s-0.3-0.8-0.3-1.2c0-0.8,0.3-1.4,0.9-1.9
			c0.6-0.4,1.5-0.7,2.5-0.7h2.1v-0.1c0-0.7-0.2-1.2-0.5-1.6c-0.4-0.4-0.8-0.5-1.5-0.5c-0.5,0-1,0.1-1.4,0.4
			c-0.4,0.3-0.6,0.6-0.7,1.1h-1.4c0-0.6,0.2-1.1,0.6-1.5c0.3-0.4,0.8-0.7,1.3-0.9s1-0.3,1.6-0.3c1.1,0,1.9,0.3,2.5,0.9
			c0.6,0.6,0.8,1.4,0.8,2.4v4.9h-1.2l-0.1-1.4c-0.2,0.5-0.6,0.8-1,1.1C41.6,188.9,41,189,40.3,189z M40.5,187.9
			c0.5,0,0.9-0.1,1.3-0.4s0.7-0.6,0.8-1c0.2-0.4,0.3-0.9,0.3-1.3l0,0h-2c-0.8,0-1.3,0.1-1.7,0.4c-0.3,0.3-0.5,0.6-0.5,1
			s0.2,0.8,0.5,1C39.5,187.8,39.9,187.9,40.5,187.9z"/>
		<path class="st1" d="M46.3,188.8v-7.9h1.2l0.1,1.4c0.3-0.5,0.6-0.9,1.1-1.2s1-0.4,1.6-0.4c0.9,0,1.7,0.3,2.2,0.9
			c0.6,0.6,0.8,1.4,0.8,2.6v4.6H52v-4.5c0-1.6-0.7-2.5-2-2.5c-0.7,0-1.2,0.2-1.7,0.7c-0.4,0.5-0.7,1.2-0.7,2.1v4.1L46.3,188.8
			L46.3,188.8z"/>
		<path class="st1" d="M59.1,189c-0.8,0-1.4-0.2-2-0.5c-0.6-0.4-1.1-0.8-1.4-1.5c-0.3-0.6-0.5-1.4-0.5-2.2s0.2-1.6,0.5-2.2
			s0.8-1.1,1.4-1.5c0.6-0.4,1.3-0.5,2-0.5c0.9,0,1.7,0.2,2.4,0.7c0.7,0.5,1.1,1.2,1.2,2h-1.4c-0.1-0.5-0.4-0.9-0.8-1.1
			c-0.4-0.3-0.9-0.4-1.5-0.4c-0.4,0-0.9,0.1-1.3,0.3c-0.4,0.2-0.7,0.6-1,1c-0.2,0.4-0.4,1-0.4,1.7s0.1,1.2,0.4,1.7
			c0.2,0.4,0.6,0.8,1,1s0.8,0.3,1.3,0.3c0.6,0,1-0.1,1.5-0.4c0.4-0.3,0.7-0.7,0.8-1.2h1.4c-0.2,0.8-0.6,1.5-1.2,2S60,189,59.1,189z"
			/>
		<path class="st1" d="M68.1,189c-0.8,0-1.4-0.2-2-0.5c-0.6-0.4-1-0.8-1.4-1.5c-0.3-0.6-0.5-1.4-0.5-2.2s0.2-1.6,0.5-2.2
			s0.8-1.1,1.4-1.5s1.3-0.5,2.1-0.5c0.8,0,1.4,0.2,2,0.5s1,0.8,1.3,1.4c0.3,0.6,0.4,1.2,0.4,1.8c0,0.1,0,0.2,0,0.4
			c0,0.1,0,0.2,0,0.4h-6.3c0,0.6,0.2,1.1,0.4,1.5s0.6,0.7,0.9,0.9c0.4,0.2,0.8,0.3,1.2,0.3c0.5,0,1-0.1,1.4-0.4
			c0.4-0.3,0.7-0.6,0.8-1h1.3c-0.2,0.7-0.6,1.4-1.2,1.8C69.8,188.8,69,189,68.1,189z M68.1,181.9c-0.6,0-1.2,0.2-1.7,0.6
			c-0.5,0.4-0.8,1-0.9,1.7h5c0-0.7-0.3-1.3-0.7-1.7C69.3,182.1,68.8,181.9,68.1,181.9z"/>
		<path class="st1" d="M72.6,190.8l0.9-3.5h1.4l-1.4,3.5H72.6z"/>
		<path class="st1" d="M84.3,189c-0.8,0-1.4-0.2-2-0.5s-1.1-0.8-1.4-1.4c-0.3-0.6-0.5-1.4-0.5-2.2s0.2-1.6,0.5-2.2
			c0.3-0.6,0.8-1.1,1.4-1.4s1.3-0.5,2-0.5s1.4,0.2,2,0.5s1.1,0.8,1.4,1.4c0.3,0.6,0.5,1.4,0.5,2.2s-0.2,1.6-0.5,2.2
			c-0.3,0.6-0.8,1.1-1.4,1.4C85.8,188.9,85.1,189,84.3,189z M84.3,187.9c0.5,0,0.9-0.1,1.3-0.3s0.7-0.6,1-1s0.4-1,0.4-1.7
			s-0.1-1.2-0.4-1.7c-0.2-0.4-0.6-0.8-0.9-1c-0.4-0.2-0.8-0.3-1.3-0.3s-0.9,0.1-1.3,0.3s-0.7,0.6-1,1c-0.2,0.5-0.4,1-0.4,1.7
			s0.1,1.2,0.4,1.7c0.2,0.5,0.6,0.8,0.9,1C83.5,187.8,83.9,187.9,84.3,187.9z"/>
		<path class="st1" d="M90.2,188.8v-7.9h1.2l0.1,1.5c0.2-0.5,0.6-0.9,1.1-1.2s1.1-0.5,1.9-0.5v1.4h-0.4c-0.5,0-0.9,0.1-1.3,0.2
			c-0.4,0.2-0.7,0.5-0.9,0.8c-0.2,0.4-0.3,0.9-0.3,1.6v4L90.2,188.8L90.2,188.8z"/>
		<path class="st1" d="M100.3,192.4v-11.5h1.2l0.1,1.3c0.3-0.4,0.6-0.7,1.1-1s1.1-0.5,1.8-0.5c0.8,0,1.5,0.2,2.1,0.5
			c0.6,0.4,1,0.9,1.4,1.5s0.5,1.3,0.5,2.1s-0.2,1.5-0.5,2.1s-0.8,1.1-1.4,1.5s-1.3,0.5-2.1,0.5c-0.7,0-1.2-0.1-1.7-0.4
			c-0.5-0.3-0.9-0.6-1.2-1.1v4.8h-1.3V192.4z M104.3,187.9c0.5,0,1-0.1,1.4-0.4s0.7-0.6,1-1c0.2-0.5,0.4-1,0.4-1.6s-0.1-1.1-0.4-1.6
			c-0.2-0.4-0.6-0.8-1-1s-0.9-0.4-1.4-0.4s-1,0.1-1.4,0.4c-0.4,0.2-0.7,0.6-1,1c-0.2,0.5-0.3,1-0.3,1.6s0.1,1.1,0.3,1.6
			c0.2,0.4,0.6,0.8,1,1S103.8,187.9,104.3,187.9z"/>
		<path class="st1" d="M110.3,188.8v-11.5h1.3v11.5H110.3z"/>
		<path class="st1" d="M116.5,189c-0.7,0-1.2-0.1-1.6-0.3s-0.8-0.5-1-0.9s-0.3-0.8-0.3-1.2c0-0.8,0.3-1.4,0.9-1.9
			c0.6-0.4,1.5-0.7,2.5-0.7h2.1v-0.1c0-0.7-0.2-1.2-0.5-1.6c-0.4-0.4-0.9-0.5-1.5-0.5c-0.5,0-1,0.1-1.3,0.4s-0.6,0.6-0.7,1.1h-1.4
			c0-0.6,0.2-1.1,0.6-1.5c0.3-0.4,0.8-0.7,1.3-0.9s1-0.3,1.6-0.3c1.1,0,1.9,0.3,2.5,0.9c0.6,0.6,0.8,1.4,0.8,2.4v4.9h-1.2l-0.1-1.4
			c-0.2,0.5-0.6,0.8-1,1.1C117.8,188.9,117.2,189,116.5,189z M116.7,187.9c0.5,0,0.9-0.1,1.3-0.4s0.7-0.6,0.8-1
			c0.2-0.4,0.3-0.9,0.3-1.3l0,0h-2c-0.8,0-1.4,0.1-1.7,0.4c-0.3,0.3-0.5,0.6-0.5,1s0.1,0.8,0.5,1
			C115.7,187.8,116.1,187.9,116.7,187.9z"/>
		<path class="st1" d="M123.1,192.4l2-4.3h-0.5l-3.2-7.2h1.5l2.6,6.2l2.8-6.2h1.4l-5.2,11.5H123.1z"/>
		<path class="st1" d="M138.4,189c-1,0-1.7-0.2-2.4-0.7c-0.6-0.5-1-1.1-1.1-2h1.4c0.1,0.4,0.3,0.8,0.7,1.1s0.8,0.5,1.4,0.5
			c0.6,0,1-0.1,1.2-0.4c0.3-0.2,0.4-0.5,0.4-0.9c0-0.5-0.2-0.8-0.5-1s-0.8-0.3-1.5-0.4c-0.4-0.1-0.8-0.2-1.3-0.4
			c-0.4-0.2-0.8-0.4-1.1-0.7s-0.4-0.7-0.4-1.2c0-0.7,0.3-1.3,0.8-1.7s1.2-0.7,2.1-0.7c0.8,0,1.5,0.2,2.1,0.6c0.5,0.4,0.8,1,0.9,1.8
			h-1.3c-0.1-0.4-0.2-0.7-0.5-1c-0.3-0.2-0.7-0.3-1.2-0.3s-0.8,0.1-1.1,0.3s-0.4,0.5-0.4,0.8s0.2,0.6,0.5,0.8s0.8,0.3,1.4,0.5
			c0.5,0.1,1,0.2,1.4,0.4s0.8,0.4,1.1,0.7s0.4,0.7,0.4,1.3c0,0.7-0.3,1.3-0.8,1.8C140.1,188.8,139.4,189,138.4,189z"/>
		<path class="st1" d="M143.4,192.4v-11.5h1.2l0.1,1.3c0.3-0.4,0.6-0.7,1.1-1s1.1-0.5,1.8-0.5c0.8,0,1.5,0.2,2.1,0.5
			c0.6,0.4,1,0.9,1.4,1.5s0.5,1.3,0.5,2.1s-0.2,1.5-0.5,2.1s-0.8,1.1-1.4,1.5c-0.6,0.4-1.3,0.5-2.1,0.5c-0.6,0-1.2-0.1-1.7-0.4
			c-0.5-0.3-0.9-0.6-1.2-1.1v4.8h-1.3V192.4z M147.5,187.9c0.5,0,1-0.1,1.4-0.4s0.7-0.6,1-1c0.2-0.5,0.3-1,0.3-1.6s-0.1-1.1-0.3-1.6
			c-0.2-0.4-0.6-0.8-1-1s-0.9-0.4-1.4-0.4s-1,0.1-1.4,0.4c-0.4,0.2-0.7,0.6-1,1c-0.2,0.5-0.4,1-0.4,1.6s0.1,1.1,0.4,1.6
			c0.2,0.4,0.6,0.8,1,1S147,187.9,147.5,187.9z"/>
		<path class="st1" d="M157.1,189c-0.8,0-1.4-0.2-2-0.5s-1.1-0.8-1.4-1.4c-0.4-0.6-0.5-1.4-0.5-2.2s0.2-1.6,0.5-2.2
			c0.4-0.6,0.8-1.1,1.4-1.4s1.3-0.5,2-0.5c0.8,0,1.4,0.2,2,0.5s1.1,0.8,1.4,1.4c0.4,0.6,0.5,1.4,0.5,2.2s-0.2,1.6-0.5,2.2
			c-0.3,0.6-0.8,1.1-1.4,1.4C158.5,188.9,157.8,189,157.1,189z M157.1,187.9c0.5,0,0.9-0.1,1.3-0.3c0.4-0.2,0.7-0.6,1-1
			s0.4-1,0.4-1.7s-0.1-1.2-0.4-1.7s-0.6-0.8-0.9-1c-0.4-0.2-0.8-0.3-1.3-0.3s-0.9,0.1-1.3,0.3c-0.4,0.2-0.7,0.6-1,1
			c-0.2,0.5-0.4,1-0.4,1.7s0.1,1.2,0.4,1.7s0.6,0.8,0.9,1C156.2,187.8,156.6,187.9,157.1,187.9z"/>
		<path class="st1" d="M162.9,188.8v-7.9h1.2l0.1,1.5c0.2-0.5,0.6-0.9,1.1-1.2s1.1-0.5,1.9-0.5v1.4h-0.4c-0.5,0-0.9,0.1-1.3,0.2
			c-0.4,0.2-0.7,0.5-0.9,0.8c-0.2,0.4-0.4,0.9-0.4,1.6v4L162.9,188.8L162.9,188.8z"/>
		<path class="st1" d="M171.9,188.8c-0.7,0-1.3-0.2-1.7-0.5s-0.6-1-0.6-1.9V182h-1.4v-1.1h1.4l0.2-1.9h1.2v1.9h2.3v1.1H171v4.4
			c0,0.5,0.1,0.8,0.3,1s0.6,0.3,1.1,0.3h0.8v1.1L171.9,188.8L171.9,188.8z"/>
		<path class="st1" d="M180,179.2c-0.3,0-0.5-0.1-0.7-0.3s-0.3-0.4-0.3-0.7s0.1-0.5,0.3-0.6c0.2-0.2,0.4-0.3,0.7-0.3
			s0.5,0.1,0.7,0.3s0.3,0.4,0.3,0.6c0,0.3-0.1,0.5-0.3,0.7S180.2,179.2,180,179.2z M179.3,188.8v-7.9h1.3v7.9H179.3z"/>
		<path class="st1" d="M183,188.8v-7.9h1.2l0.1,1.4c0.3-0.5,0.6-0.9,1.1-1.2s1-0.4,1.6-0.4c0.9,0,1.7,0.3,2.2,0.9
			c0.6,0.6,0.8,1.4,0.8,2.6v4.6h-1.3v-4.5c0-1.6-0.7-2.5-2.1-2.5c-0.7,0-1.2,0.2-1.7,0.7c-0.4,0.5-0.7,1.2-0.7,2.1v4.1L183,188.8
			L183,188.8z"/>
		<path class="st1" d="M199,189c-0.7,0-1.2-0.1-1.6-0.3c-0.4-0.2-0.8-0.5-1-0.9s-0.3-0.8-0.3-1.2c0-0.8,0.3-1.4,0.9-1.9
			c0.6-0.4,1.5-0.7,2.5-0.7h2.1v-0.1c0-0.7-0.2-1.2-0.5-1.6c-0.4-0.4-0.9-0.5-1.5-0.5c-0.5,0-1,0.1-1.4,0.4s-0.6,0.6-0.7,1.1h-1.4
			c0-0.6,0.2-1.1,0.6-1.5c0.3-0.4,0.8-0.7,1.3-0.9s1-0.3,1.6-0.3c1.1,0,1.9,0.3,2.5,0.9c0.6,0.6,0.8,1.4,0.8,2.4v4.9h-1.2l-0.1-1.4
			c-0.2,0.5-0.6,0.8-1,1.1C200.3,188.9,199.7,189,199,189z M199.2,187.9c0.5,0,0.9-0.1,1.3-0.4c0.4-0.3,0.7-0.6,0.8-1
			c0.2-0.4,0.3-0.9,0.3-1.3l0,0h-2c-0.8,0-1.4,0.1-1.7,0.4c-0.3,0.3-0.5,0.6-0.5,1s0.1,0.8,0.5,1
			C198.2,187.8,198.7,187.9,199.2,187.9z"/>
		<path class="st1" d="M209.3,192.4v-11.5h1.2l0.1,1.3c0.3-0.4,0.6-0.7,1.1-1s1.1-0.5,1.8-0.5c0.8,0,1.5,0.2,2.1,0.5
			c0.6,0.4,1,0.9,1.4,1.5s0.5,1.3,0.5,2.1s-0.2,1.5-0.5,2.1s-0.8,1.1-1.4,1.5c-0.6,0.4-1.3,0.5-2.1,0.5c-0.6,0-1.2-0.1-1.7-0.4
			c-0.5-0.3-0.9-0.6-1.2-1.1v4.8h-1.3V192.4z M213.4,187.9c0.5,0,1-0.1,1.4-0.4c0.4-0.2,0.7-0.6,1-1c0.2-0.5,0.4-1,0.4-1.6
			s-0.1-1.1-0.4-1.6c-0.2-0.4-0.6-0.8-1-1s-0.9-0.4-1.4-0.4s-1,0.1-1.4,0.4s-0.7,0.6-1,1c-0.2,0.5-0.3,1-0.3,1.6s0.1,1.1,0.3,1.6
			c0.2,0.4,0.6,0.8,1,1S212.8,187.9,213.4,187.9z"/>
		<path class="st1" d="M222,189c-0.7,0-1.2-0.1-1.6-0.3c-0.4-0.2-0.8-0.5-1-0.9s-0.3-0.8-0.3-1.2c0-0.8,0.3-1.4,0.9-1.9
			c0.6-0.4,1.5-0.7,2.5-0.7h2.1v-0.1c0-0.7-0.2-1.2-0.5-1.6c-0.4-0.4-0.8-0.5-1.5-0.5c-0.5,0-1,0.1-1.4,0.4s-0.6,0.6-0.7,1.1h-1.4
			c0.1-0.6,0.2-1.1,0.6-1.5c0.3-0.4,0.8-0.7,1.3-0.9s1-0.3,1.6-0.3c1.1,0,1.9,0.3,2.5,0.9s0.8,1.4,0.8,2.4v4.9h-1.2l-0.1-1.4
			c-0.2,0.5-0.6,0.8-1,1.1C223.3,188.9,222.7,189,222,189z M222.2,187.9c0.5,0,0.9-0.1,1.3-0.4s0.6-0.6,0.8-1s0.3-0.9,0.3-1.3l0,0
			h-2c-0.8,0-1.4,0.1-1.7,0.4c-0.3,0.3-0.5,0.6-0.5,1s0.1,0.8,0.5,1C221.2,187.8,221.6,187.9,222.2,187.9z"/>
		<path class="st1" d="M228,188.8v-7.9h1.2l0.1,1.5c0.2-0.5,0.6-0.9,1.1-1.2s1.1-0.5,1.9-0.5v1.4h-0.4c-0.5,0-0.9,0.1-1.3,0.2
			c-0.4,0.2-0.7,0.5-0.9,0.8c-0.2,0.4-0.4,0.9-0.4,1.6v4L228,188.8L228,188.8z"/>
		<path class="st1" d="M233.8,188.8v-11.5h1.3v6.9l3.2-3.3h1.6l-3.5,3.6l4,4.4h-1.7l-3.6-4.1v4.1L233.8,188.8L233.8,188.8z"/>
		<path class="st1" d="M242.3,188.9c-0.3,0-0.5-0.1-0.7-0.3s-0.3-0.4-0.3-0.6c0-0.3,0.1-0.5,0.3-0.7s0.4-0.3,0.7-0.3
			s0.5,0.1,0.6,0.3c0.2,0.2,0.3,0.4,0.3,0.7s-0.1,0.5-0.3,0.6C242.8,188.8,242.6,188.9,242.3,188.9z"/>
		<path class="st1" d="M31.2,219.8c-0.8,0-1.5-0.1-2.1-0.5c-0.6-0.3-1.1-0.7-1.4-1.2c-0.3-0.5-0.5-1.1-0.5-1.9h1.4
			c0,0.4,0.1,0.8,0.3,1.2s0.5,0.7,0.9,0.9s0.9,0.3,1.5,0.3c0.8,0,1.3-0.2,1.8-0.5c0.4-0.4,0.6-0.8,0.6-1.4c0-0.4-0.1-0.8-0.3-1.1
			s-0.5-0.5-0.8-0.7s-0.7-0.3-1.1-0.5c-0.4-0.1-0.9-0.3-1.3-0.4c-0.9-0.3-1.5-0.7-1.9-1.1c-0.4-0.4-0.6-1-0.6-1.7
			c0-0.6,0.1-1.1,0.4-1.6c0.3-0.5,0.7-0.8,1.2-1.1s1.2-0.4,1.9-0.4s1.3,0.1,1.9,0.4c0.5,0.3,0.9,0.6,1.2,1.1s0.4,1,0.5,1.6h-1.4
			c0-0.3-0.1-0.6-0.2-0.9c-0.2-0.3-0.4-0.6-0.7-0.7c-0.3-0.2-0.7-0.3-1.2-0.3c-0.6,0-1.1,0.1-1.5,0.5c-0.4,0.3-0.6,0.8-0.6,1.3
			s0.1,0.9,0.4,1.1c0.3,0.3,0.7,0.5,1.1,0.6c0.5,0.2,1.1,0.4,1.7,0.6c0.5,0.2,1,0.4,1.4,0.7s0.8,0.6,1,1s0.4,0.9,0.4,1.5
			c0,0.5-0.1,1-0.4,1.5c-0.3,0.5-0.7,0.9-1.3,1.2C32.8,219.6,32.1,219.8,31.2,219.8z"/>
		<path class="st1" d="M39.9,219.6c-0.7,0-1.3-0.2-1.7-0.5s-0.6-1-0.6-1.9v-4.4h-1.4v-1.1h1.4l0.2-1.9H39v1.9h2.3v1.1H39v4.4
			c0,0.5,0.1,0.8,0.3,1s0.6,0.3,1.1,0.3h0.8v1.1L39.9,219.6L39.9,219.6z"/>
		<path class="st1" d="M45.9,219.8c-0.9,0-1.7-0.3-2.2-0.9c-0.5-0.6-0.8-1.4-0.8-2.6v-4.6h1.3v4.5c0,1.6,0.7,2.5,2,2.5
			c0.7,0,1.3-0.2,1.7-0.7s0.7-1.2,0.7-2.1v-4.1h1.3v7.9h-1.2l-0.1-1.4c-0.2,0.5-0.6,0.9-1.1,1.2C47.1,219.6,46.5,219.8,45.9,219.8z"
			/>
		<path class="st1" d="M55.8,219.8c-0.8,0-1.5-0.2-2.1-0.5c-0.6-0.4-1-0.9-1.4-1.5s-0.5-1.3-0.5-2.1s0.2-1.5,0.5-2.1
			s0.8-1.1,1.4-1.5c0.6-0.4,1.3-0.5,2.1-0.5c0.7,0,1.2,0.1,1.7,0.4c0.5,0.3,0.9,0.6,1.2,1.1v-5H60v11.5h-1.2l-0.1-1.3
			c-0.3,0.4-0.6,0.7-1.1,1C57.1,219.6,56.5,219.8,55.8,219.8z M55.9,218.6c0.5,0,1-0.1,1.4-0.4c0.4-0.2,0.7-0.6,1-1
			c0.2-0.5,0.3-1,0.3-1.6s-0.1-1.1-0.3-1.6c-0.2-0.4-0.6-0.8-1-1s-0.9-0.4-1.4-0.4s-1,0.1-1.4,0.4c-0.4,0.2-0.7,0.6-1,1
			c-0.2,0.5-0.3,1-0.3,1.6s0.1,1.1,0.3,1.6c0.2,0.4,0.5,0.8,1,1C54.9,218.5,55.4,218.6,55.9,218.6z"/>
		<path class="st1" d="M63,209.9c-0.3,0-0.5-0.1-0.7-0.3s-0.3-0.4-0.3-0.7s0.1-0.5,0.3-0.6c0.2-0.2,0.4-0.3,0.7-0.3
			c0.3,0,0.5,0.1,0.7,0.3s0.3,0.4,0.3,0.6c0,0.3-0.1,0.5-0.3,0.7C63.5,209.8,63.3,209.9,63,209.9z M62.3,219.6v-7.9h1.3v7.9H62.3z"
			/>
		<path class="st1" d="M69.6,219.8c-0.8,0-1.4-0.2-2-0.5c-0.6-0.4-1.1-0.8-1.4-1.5c-0.3-0.6-0.5-1.4-0.5-2.2s0.2-1.6,0.5-2.2
			s0.8-1.1,1.4-1.5s1.3-0.5,2.1-0.5c0.8,0,1.4,0.2,2,0.5s1,0.8,1.3,1.4c0.3,0.6,0.4,1.2,0.4,1.8c0,0.1,0,0.2,0,0.4
			c0,0.1,0,0.2,0,0.4h-6.3c0,0.6,0.2,1.1,0.4,1.5s0.6,0.7,0.9,0.9c0.4,0.2,0.8,0.3,1.2,0.3c0.6,0,1-0.1,1.4-0.4
			c0.4-0.3,0.7-0.6,0.8-1h1.3c-0.2,0.7-0.6,1.4-1.2,1.8C71.3,219.5,70.5,219.8,69.6,219.8z M69.6,212.6c-0.6,0-1.2,0.2-1.7,0.6
			c-0.5,0.4-0.8,1-0.9,1.7h5c0-0.7-0.3-1.3-0.7-1.7C70.8,212.8,70.3,212.6,69.6,212.6z"/>
		<path class="st1" d="M78.2,219.8c-1,0-1.7-0.2-2.4-0.7s-1-1.1-1.1-2h1.4c0.1,0.4,0.3,0.8,0.7,1.1c0.4,0.3,0.8,0.5,1.4,0.5
			s1-0.1,1.2-0.4c0.3-0.2,0.4-0.5,0.4-0.9c0-0.5-0.2-0.8-0.5-1c-0.4-0.2-0.8-0.3-1.5-0.4c-0.4-0.1-0.8-0.2-1.3-0.4
			c-0.4-0.2-0.8-0.4-1.1-0.7s-0.4-0.7-0.4-1.2c0-0.7,0.3-1.3,0.8-1.7s1.2-0.7,2.1-0.7c0.8,0,1.5,0.2,2.1,0.6c0.5,0.4,0.8,1,0.9,1.8
			h-1.3c-0.1-0.4-0.2-0.7-0.5-1c-0.3-0.2-0.7-0.3-1.2-0.3s-0.8,0.1-1.1,0.3c-0.3,0.2-0.4,0.5-0.4,0.8s0.2,0.6,0.5,0.8
			s0.8,0.3,1.4,0.5c0.5,0.1,1,0.2,1.4,0.4c0.4,0.1,0.8,0.4,1.1,0.7s0.4,0.7,0.4,1.3c0,0.7-0.3,1.3-0.8,1.8
			C79.9,219.6,79.1,219.8,78.2,219.8z"/>
		<path class="st1" d="M90.4,219.8c-0.9,0-1.7-0.2-2.4-0.7c-0.6-0.5-1-1.1-1.1-2h1.4c0.1,0.4,0.3,0.8,0.7,1.1
			c0.4,0.3,0.8,0.5,1.4,0.5s1-0.1,1.2-0.4c0.3-0.2,0.4-0.5,0.4-0.9c0-0.5-0.2-0.8-0.5-1s-0.8-0.3-1.5-0.4c-0.4-0.1-0.8-0.2-1.3-0.4
			c-0.4-0.2-0.8-0.4-1.1-0.7c-0.3-0.3-0.4-0.7-0.4-1.2c0-0.7,0.3-1.3,0.8-1.7s1.2-0.7,2.1-0.7c0.8,0,1.5,0.2,2.1,0.6
			c0.5,0.4,0.8,1,0.9,1.8h-1.3c-0.1-0.4-0.2-0.7-0.5-1c-0.3-0.2-0.7-0.3-1.2-0.3s-0.8,0.1-1.1,0.3c-0.3,0.2-0.4,0.5-0.4,0.8
			s0.2,0.6,0.5,0.8s0.8,0.3,1.4,0.5c0.5,0.1,1,0.2,1.4,0.4s0.8,0.4,1.1,0.7c0.3,0.3,0.4,0.7,0.4,1.3c0,0.7-0.3,1.3-0.8,1.8
			C92.1,219.6,91.3,219.8,90.4,219.8z"/>
		<path class="st1" d="M95.4,219.6v-11.5h1.3v4.9c0.3-0.5,0.6-0.9,1.1-1.1c0.5-0.3,1-0.4,1.6-0.4c0.9,0,1.7,0.3,2.2,0.9
			c0.6,0.6,0.8,1.4,0.8,2.6v4.6h-1.3v-4.5c0-1.6-0.7-2.5-2-2.5c-0.7,0-1.3,0.2-1.7,0.7c-0.5,0.5-0.7,1.2-0.7,2.1v4.1L95.4,219.6
			L95.4,219.6z"/>
		<path class="st1" d="M108.1,219.8c-0.8,0-1.4-0.2-2-0.5s-1.1-0.8-1.4-1.4c-0.3-0.6-0.5-1.4-0.5-2.2s0.2-1.6,0.5-2.2
			c0.3-0.6,0.8-1.1,1.4-1.4c0.6-0.3,1.3-0.5,2-0.5s1.4,0.2,2,0.5s1.1,0.8,1.4,1.4c0.4,0.6,0.5,1.4,0.5,2.2s-0.2,1.6-0.5,2.2
			c-0.4,0.6-0.8,1.1-1.4,1.4C109.6,219.6,108.9,219.8,108.1,219.8z M108.1,218.6c0.5,0,0.9-0.1,1.3-0.3s0.7-0.6,1-1s0.4-1,0.4-1.7
			s-0.1-1.2-0.4-1.7c-0.2-0.4-0.6-0.8-0.9-1c-0.4-0.2-0.8-0.3-1.3-0.3s-0.9,0.1-1.3,0.3s-0.7,0.6-1,1c-0.2,0.5-0.4,1-0.4,1.7
			s0.1,1.2,0.4,1.7c0.2,0.5,0.6,0.8,0.9,1C107.3,218.5,107.7,218.6,108.1,218.6z"/>
		<path class="st1" d="M115.3,219.6l-2.3-7.9h1.3l1.7,6.2l1.9-6.2h1.5l1.9,6.2l1.7-6.2h1.4l-2.3,7.9h-1.4l-1.9-6.5l-1.9,6.5H115.3z"
			/>
		<path class="st1" d="M133.1,219.6c-0.7,0-1.3-0.2-1.7-0.5s-0.6-1-0.6-1.9v-4.4h-1.4v-1.1h1.4l0.2-1.9h1.2v1.9h2.3v1.1h-2.3v4.4
			c0,0.5,0.1,0.8,0.3,1s0.6,0.3,1.1,0.3h0.8v1.1L133.1,219.6L133.1,219.6z"/>
		<path class="st1" d="M136.2,219.6v-11.5h1.3v4.9c0.3-0.5,0.7-0.9,1.1-1.1c0.5-0.3,1-0.4,1.6-0.4c0.9,0,1.7,0.3,2.2,0.9
			c0.5,0.6,0.8,1.4,0.8,2.6v4.6h-1.3v-4.5c0-1.6-0.7-2.5-2-2.5c-0.7,0-1.3,0.2-1.7,0.7c-0.5,0.5-0.7,1.2-0.7,2.1v4.1L136.2,219.6
			L136.2,219.6z"/>
		<path class="st1" d="M148,219.8c-0.7,0-1.2-0.1-1.7-0.3c-0.4-0.2-0.8-0.5-1-0.9s-0.3-0.8-0.3-1.2c0-0.8,0.3-1.4,0.9-1.9
			c0.6-0.4,1.5-0.7,2.5-0.7h2.1v-0.1c0-0.7-0.2-1.2-0.5-1.6c-0.4-0.4-0.9-0.5-1.5-0.5c-0.5,0-1,0.1-1.4,0.4
			c-0.4,0.3-0.6,0.6-0.7,1.1H145c0.1-0.6,0.2-1.1,0.6-1.5c0.3-0.4,0.8-0.7,1.3-0.9s1-0.3,1.6-0.3c1.1,0,1.9,0.3,2.5,0.9
			s0.8,1.4,0.8,2.4v4.9h-1.2l-0.1-1.4c-0.2,0.5-0.6,0.8-1,1.1C149.3,219.6,148.7,219.8,148,219.8z M148.2,218.7
			c0.5,0,0.9-0.1,1.3-0.4c0.4-0.3,0.6-0.6,0.8-1s0.3-0.9,0.3-1.3l0,0h-2c-0.8,0-1.3,0.1-1.7,0.4c-0.3,0.3-0.5,0.6-0.5,1
			s0.1,0.8,0.5,1C147.2,218.5,147.6,218.7,148.2,218.7z"/>
		<path class="st1" d="M156.9,219.6c-0.7,0-1.3-0.2-1.7-0.5c-0.4-0.4-0.6-1-0.6-1.9v-4.4h-1.4v-1.1h1.4l0.2-1.9h1.2v1.9h2.3v1.1H156
			v4.4c0,0.5,0.1,0.8,0.3,1s0.6,0.3,1.1,0.3h0.8v1.1L156.9,219.6L156.9,219.6z"/>
		<path class="st1" d="M165.8,219.6l-2.3-7.9h1.3l1.7,6.2l1.9-6.2h1.5l1.9,6.2l1.7-6.2h1.4l-2.3,7.9h-1.5l-2-6.5l-1.9,6.5H165.8z"/>
		<path class="st1" d="M179.5,219.8c-0.8,0-1.4-0.2-2-0.5c-0.6-0.4-1.1-0.8-1.4-1.5c-0.3-0.6-0.5-1.4-0.5-2.2s0.2-1.6,0.5-2.2
			c0.3-0.6,0.8-1.1,1.4-1.5c0.6-0.4,1.3-0.5,2.1-0.5s1.4,0.2,2,0.5s1,0.8,1.3,1.4c0.3,0.6,0.5,1.2,0.5,1.8c0,0.1,0,0.2,0,0.4
			c0,0.1,0,0.2,0,0.4h-6.3c0,0.6,0.2,1.1,0.4,1.5s0.6,0.7,0.9,0.9c0.4,0.2,0.8,0.3,1.2,0.3c0.6,0,1-0.1,1.4-0.4
			c0.4-0.3,0.6-0.6,0.8-1h1.3c-0.2,0.7-0.6,1.4-1.2,1.8C181.2,219.5,180.5,219.8,179.5,219.8z M179.5,212.6c-0.6,0-1.2,0.2-1.7,0.6
			c-0.5,0.4-0.8,1-0.9,1.7h5c0-0.7-0.3-1.3-0.7-1.7C180.8,212.8,180.2,212.6,179.5,212.6z"/>
		<path class="st1" d="M184.5,212l0.9-3.6h1.5l-1.5,3.6H184.5z"/>
		<path class="st1" d="M188.5,219.6v-7.9h1.2l0.1,1.5c0.2-0.5,0.6-0.9,1.1-1.2s1.1-0.5,1.9-0.5v1.4h-0.4c-0.5,0-0.9,0.1-1.3,0.2
			c-0.4,0.2-0.7,0.5-0.9,0.8c-0.2,0.4-0.4,0.9-0.4,1.6v4L188.5,219.6L188.5,219.6z"/>
		<path class="st1" d="M197.5,219.8c-0.8,0-1.4-0.2-2-0.5c-0.6-0.4-1-0.8-1.4-1.5c-0.3-0.6-0.5-1.4-0.5-2.2s0.2-1.6,0.5-2.2
			s0.8-1.1,1.4-1.5c0.6-0.4,1.3-0.5,2.1-0.5s1.4,0.2,2,0.5s1,0.8,1.3,1.4c0.3,0.6,0.4,1.2,0.4,1.8c0,0.1,0,0.2,0,0.4
			c0,0.1,0,0.2,0,0.4H195c0,0.6,0.2,1.1,0.4,1.5s0.6,0.7,0.9,0.9c0.4,0.2,0.8,0.3,1.2,0.3c0.6,0,1-0.1,1.4-0.4
			c0.4-0.3,0.7-0.6,0.8-1h1.3c-0.2,0.7-0.6,1.4-1.2,1.8C199.3,219.5,198.5,219.8,197.5,219.8z M197.5,212.6c-0.6,0-1.2,0.2-1.7,0.6
			c-0.5,0.4-0.8,1-0.9,1.7h5c0-0.7-0.3-1.3-0.7-1.7C198.8,212.8,198.2,212.6,197.5,212.6z"/>
		<path class="st1" d="M207.3,219.6v-7.9h1.2l0.1,1.1c0.3-0.4,0.6-0.8,1-1s0.9-0.4,1.4-0.4c0.6,0,1.2,0.1,1.6,0.4
			c0.4,0.3,0.8,0.6,1,1.2c0.3-0.5,0.7-0.9,1.1-1.1c0.5-0.3,1-0.4,1.6-0.4c1,0,1.7,0.3,2.3,0.9s0.9,1.5,0.9,2.6v4.6h-1.3v-4.5
			c0-0.8-0.2-1.4-0.5-1.9c-0.3-0.4-0.8-0.6-1.4-0.6c-0.6,0-1.2,0.2-1.6,0.7c-0.4,0.5-0.6,1.2-0.6,2.1v4.1h-1.3v-4.4
			c0-0.8-0.2-1.4-0.5-1.9c-0.3-0.4-0.8-0.6-1.4-0.6c-0.6,0-1.1,0.2-1.6,0.7c-0.4,0.5-0.6,1.2-0.6,2.1v4.1L207.3,219.6L207.3,219.6z"
			/>
		<path class="st1" d="M225.3,219.8c-0.8,0-1.4-0.2-2-0.5s-1.1-0.8-1.4-1.4c-0.4-0.6-0.5-1.4-0.5-2.2s0.2-1.6,0.5-2.2
			c0.4-0.6,0.8-1.1,1.4-1.4c0.6-0.3,1.3-0.5,2-0.5s1.4,0.2,2,0.5s1.1,0.8,1.4,1.4c0.4,0.6,0.5,1.4,0.5,2.2s-0.2,1.6-0.5,2.2
			c-0.4,0.6-0.8,1.1-1.4,1.4C226.7,219.6,226,219.8,225.3,219.8z M225.3,218.6c0.5,0,0.9-0.1,1.3-0.3c0.4-0.2,0.7-0.6,1-1
			s0.4-1,0.4-1.7s-0.1-1.2-0.4-1.7c-0.2-0.4-0.6-0.8-0.9-1c-0.4-0.2-0.8-0.3-1.3-0.3s-0.9,0.1-1.3,0.3c-0.4,0.2-0.7,0.6-1,1
			c-0.2,0.5-0.4,1-0.4,1.7s0.1,1.2,0.4,1.7c0.2,0.5,0.6,0.8,0.9,1C224.4,218.5,224.8,218.6,225.3,218.6z"/>
		<path class="st1" d="M231.1,219.6v-7.9h1.2l0.1,1.5c0.2-0.5,0.6-0.9,1.1-1.2s1.1-0.5,1.9-0.5v1.4h-0.3c-0.5,0-0.9,0.1-1.3,0.2
			c-0.4,0.2-0.7,0.5-0.9,0.8c-0.2,0.4-0.4,0.9-0.4,1.6v4L231.1,219.6L231.1,219.6z"/>
		<path class="st1" d="M240.2,219.8c-0.8,0-1.4-0.2-2-0.5c-0.6-0.4-1.1-0.8-1.4-1.5c-0.3-0.6-0.5-1.4-0.5-2.2s0.2-1.6,0.5-2.2
			c0.3-0.6,0.8-1.1,1.4-1.5c0.6-0.4,1.3-0.5,2.1-0.5s1.4,0.2,2,0.5s1,0.8,1.3,1.4c0.3,0.6,0.4,1.2,0.4,1.8c0,0.1,0,0.2,0,0.4
			c0,0.1,0,0.2,0,0.4h-6.3c0,0.6,0.2,1.1,0.4,1.5s0.6,0.7,0.9,0.9c0.4,0.2,0.8,0.3,1.2,0.3c0.6,0,1-0.1,1.4-0.4
			c0.4-0.3,0.6-0.6,0.8-1h1.3c-0.2,0.7-0.6,1.4-1.2,1.8C241.9,219.5,241.1,219.8,240.2,219.8z M240.2,212.6c-0.6,0-1.2,0.2-1.7,0.6
			c-0.5,0.4-0.8,1-0.9,1.7h5c0-0.7-0.3-1.3-0.7-1.7C241.4,212.8,240.9,212.6,240.2,212.6z"/>
		<path class="st1" d="M250,219.6v-11.5h1.3v11.5H250z"/>
		<path class="st1" d="M254.3,209.9c-0.3,0-0.5-0.1-0.7-0.3s-0.3-0.4-0.3-0.7s0.1-0.5,0.3-0.6c0.2-0.2,0.4-0.3,0.7-0.3
			c0.3,0,0.5,0.1,0.7,0.3s0.3,0.4,0.3,0.6c0,0.3-0.1,0.5-0.3,0.7C254.8,209.8,254.6,209.9,254.3,209.9z M253.7,219.6v-7.9h1.3v7.9
			H253.7z"/>
		<path class="st1" d="M257.3,219.6v-11.5h1.3v6.9l3.2-3.3h1.7l-3.5,3.6l4,4.4h-1.7l-3.6-4.1v4.1L257.3,219.6L257.3,219.6z"/>
		<path class="st1" d="M268.4,219.8c-0.8,0-1.4-0.2-2-0.5c-0.6-0.4-1-0.8-1.4-1.5c-0.3-0.6-0.5-1.4-0.5-2.2s0.2-1.6,0.5-2.2
			c0.3-0.6,0.8-1.1,1.4-1.5s1.3-0.5,2.1-0.5c0.8,0,1.4,0.2,2,0.5s1,0.8,1.3,1.4c0.3,0.6,0.5,1.2,0.5,1.8c0,0.1,0,0.2,0,0.4
			s0,0.2,0,0.4H266c0,0.6,0.2,1.1,0.4,1.5s0.6,0.7,0.9,0.9c0.4,0.2,0.8,0.3,1.2,0.3c0.6,0,1-0.1,1.4-0.4c0.4-0.3,0.6-0.6,0.8-1h1.3
			c-0.2,0.7-0.6,1.4-1.2,1.8C270.1,219.5,269.3,219.8,268.4,219.8z M268.4,212.6c-0.6,0-1.2,0.2-1.7,0.6c-0.5,0.4-0.8,1-0.9,1.7h5
			c0-0.7-0.3-1.3-0.7-1.7C269.6,212.8,269.1,212.6,268.4,212.6z"/>
		<path class="st1" d="M273.9,219.6v-11.5h1.3v11.5H273.9z"/>
		<path class="st1" d="M278.3,223.1l2-4.3h-0.5l-3.2-7.2h1.5l2.6,6.2l2.8-6.2h1.4l-5.2,11.5H278.3z"/>
		<path class="st1" d="M30.7,241.6c-0.7,0-1.3-0.2-1.7-0.5s-0.6-1-0.6-1.9v-4.4H27v-1.1h1.4l0.2-1.9h1.2v1.9h2.3v1.1h-2.3v4.4
			c0,0.5,0.1,0.8,0.3,1s0.6,0.3,1.1,0.3H32v1.1L30.7,241.6L30.7,241.6z"/>
		<path class="st1" d="M37.1,241.8c-0.8,0-1.4-0.2-2-0.5s-1.1-0.8-1.4-1.4c-0.4-0.6-0.5-1.4-0.5-2.2s0.2-1.6,0.5-2.2
			c0.4-0.6,0.8-1.1,1.4-1.4c0.6-0.3,1.3-0.5,2-0.5c0.8,0,1.4,0.2,2,0.5s1.1,0.8,1.4,1.4c0.4,0.6,0.5,1.4,0.5,2.2s-0.2,1.6-0.5,2.2
			c-0.3,0.6-0.8,1.1-1.4,1.4S37.9,241.8,37.1,241.8z M37.1,240.6c0.5,0,0.9-0.1,1.3-0.3c0.4-0.2,0.7-0.6,1-1s0.4-1,0.4-1.7
			s-0.1-1.2-0.4-1.7c-0.2-0.4-0.6-0.8-1-1s-0.8-0.3-1.3-0.3s-0.9,0.1-1.3,0.3c-0.4,0.2-0.7,0.6-1,1c-0.2,0.5-0.4,1-0.4,1.7
			s0.1,1.2,0.4,1.7s0.6,0.8,1,1C36.3,240.5,36.7,240.6,37.1,240.6z"/>
		<path class="st1" d="M50.3,241.8c-1,0-1.7-0.2-2.4-0.7s-1-1.1-1.1-2h1.4c0.1,0.4,0.3,0.8,0.7,1.1s0.8,0.5,1.4,0.5
			c0.6,0,1-0.1,1.2-0.4c0.3-0.2,0.4-0.5,0.4-0.9c0-0.5-0.2-0.8-0.5-1s-0.8-0.3-1.5-0.4c-0.4-0.1-0.8-0.2-1.3-0.4
			c-0.4-0.2-0.8-0.4-1.1-0.7s-0.4-0.7-0.4-1.2c0-0.7,0.3-1.3,0.8-1.7s1.2-0.7,2.1-0.7c0.8,0,1.5,0.2,2.1,0.6c0.5,0.4,0.8,1,0.9,1.8
			h-1.3c-0.1-0.4-0.2-0.7-0.5-1c-0.3-0.2-0.7-0.3-1.2-0.3s-0.8,0.1-1.1,0.3s-0.4,0.5-0.4,0.8s0.2,0.6,0.5,0.8s0.8,0.3,1.4,0.5
			c0.5,0.1,1,0.2,1.4,0.4c0.4,0.1,0.8,0.4,1.1,0.7s0.4,0.7,0.4,1.3c0,0.7-0.3,1.3-0.8,1.8C52,241.6,51.2,241.8,50.3,241.8z"/>
		<path class="st1" d="M58,241.6c-0.7,0-1.3-0.2-1.7-0.5c-0.4-0.4-0.6-1-0.6-1.9v-4.4h-1.4v-1.1h1.4l0.2-1.9h1.2v1.9h2.3v1.1h-2.3
			v4.4c0,0.5,0.1,0.8,0.3,1s0.6,0.3,1.1,0.3h0.8v1.1L58,241.6L58,241.6z"/>
		<path class="st1" d="M61.9,231.9c-0.3,0-0.5-0.1-0.7-0.3s-0.3-0.4-0.3-0.7s0.1-0.5,0.3-0.6c0.2-0.2,0.4-0.3,0.7-0.3
			c0.3,0,0.5,0.1,0.7,0.3s0.3,0.4,0.3,0.6c0,0.3-0.1,0.5-0.3,0.7C62.4,231.8,62.2,231.9,61.9,231.9z M61.2,241.6v-7.9h1.3v7.9H61.2z
			"/>
		<path class="st1" d="M68.6,241.8c-0.8,0-1.4-0.2-2-0.5c-0.6-0.4-1.1-0.8-1.4-1.5c-0.3-0.6-0.5-1.4-0.5-2.2s0.2-1.6,0.5-2.2
			s0.8-1.1,1.4-1.5s1.3-0.5,2-0.5c0.9,0,1.7,0.2,2.4,0.7c0.7,0.5,1.1,1.2,1.2,2h-1.4c-0.1-0.5-0.4-0.9-0.8-1.1
			c-0.4-0.3-0.9-0.4-1.5-0.4c-0.5,0-0.9,0.1-1.3,0.3s-0.7,0.6-1,1c-0.2,0.4-0.4,1-0.4,1.7s0.1,1.2,0.4,1.7s0.6,0.8,1,1
			s0.8,0.3,1.3,0.3s1-0.1,1.5-0.4c0.4-0.3,0.7-0.7,0.8-1.2h1.4c-0.2,0.8-0.6,1.5-1.2,2C70.3,241.5,69.5,241.8,68.6,241.8z"/>
		<path class="st1" d="M74,241.6v-11.5h1.3v6.9l3.2-3.3h1.7l-3.5,3.6l4,4.4H79l-3.6-4.1v4.1L74,241.6L74,241.6z"/>
		<path class="st1" d="M87.9,241.6l-2.3-7.9h1.3l1.7,6.2l1.9-6.2H92l1.9,6.2l1.7-6.2H97l-2.3,7.9h-1.4l-1.9-6.5l-2,6.5H87.9z"/>
		<path class="st1" d="M99.2,231.9c-0.3,0-0.5-0.1-0.7-0.3s-0.3-0.4-0.3-0.7s0.1-0.5,0.3-0.6c0.2-0.2,0.4-0.3,0.7-0.3
			c0.3,0,0.5,0.1,0.7,0.3s0.3,0.4,0.3,0.6c0,0.3-0.1,0.5-0.3,0.7C99.7,231.8,99.5,231.9,99.2,231.9z M98.5,241.6v-7.9h1.3v7.9H98.5z
			"/>
		<path class="st1" d="M105.4,241.6c-0.7,0-1.3-0.2-1.7-0.5c-0.4-0.4-0.6-1-0.6-1.9v-4.4h-1.4v-1.1h1.4l0.2-1.9h1.2v1.9h2.3v1.1
			h-2.3v4.4c0,0.5,0.1,0.8,0.3,1c0.2,0.2,0.6,0.3,1.1,0.3h0.8v1.1L105.4,241.6L105.4,241.6z"/>
		<path class="st1" d="M108.4,241.6v-11.5h1.3v4.9c0.3-0.5,0.6-0.9,1.1-1.1c0.5-0.3,1-0.4,1.6-0.4c0.9,0,1.7,0.3,2.2,0.9
			c0.6,0.6,0.8,1.4,0.8,2.6v4.6h-1.3v-4.5c0-1.6-0.7-2.5-2-2.5c-0.7,0-1.3,0.2-1.7,0.7c-0.5,0.5-0.7,1.2-0.7,2.1v4.1L108.4,241.6
			L108.4,241.6z"/>
		<path class="st1" d="M125.4,241.8c-0.8,0-1.4-0.2-2-0.5c-0.6-0.4-1-0.8-1.4-1.5c-0.3-0.6-0.5-1.4-0.5-2.2s0.2-1.6,0.5-2.2
			c0.3-0.6,0.8-1.1,1.4-1.5s1.3-0.5,2.1-0.5s1.4,0.2,2,0.5s1,0.8,1.3,1.4c0.3,0.6,0.4,1.2,0.4,1.8c0,0.1,0,0.2,0,0.4
			c0,0.1,0,0.2,0,0.4h-6.3c0,0.6,0.2,1.1,0.4,1.5s0.6,0.7,0.9,0.9c0.4,0.2,0.8,0.3,1.2,0.3c0.6,0,1-0.1,1.4-0.4
			c0.4-0.3,0.7-0.6,0.8-1h1.3c-0.2,0.7-0.6,1.4-1.2,1.8C127.1,241.5,126.3,241.8,125.4,241.8z M125.4,234.6c-0.6,0-1.2,0.2-1.7,0.6
			c-0.5,0.4-0.8,1-0.9,1.7h5c0-0.7-0.3-1.3-0.7-1.7C126.6,234.8,126,234.6,125.4,234.6z"/>
		<path class="st1" d="M129.7,241.6l2.8-4l-2.8-4h1.5l2.2,3.3l2.2-3.3h1.4l-2.8,4l2.8,4h-1.4l-2.2-3.3l-2.2,3.3H129.7z"/>
		<path class="st1" d="M141.7,241.8c-0.8,0-1.4-0.2-2-0.5c-0.6-0.4-1-0.8-1.4-1.5c-0.3-0.6-0.5-1.4-0.5-2.2s0.2-1.6,0.5-2.2
			s0.8-1.1,1.4-1.5c0.6-0.4,1.3-0.5,2.1-0.5s1.4,0.2,2,0.5s1,0.8,1.3,1.4c0.3,0.6,0.4,1.2,0.4,1.8c0,0.1,0,0.2,0,0.4
			c0,0.1,0,0.2,0,0.4h-6.3c0,0.6,0.2,1.1,0.4,1.5s0.6,0.7,0.9,0.9c0.4,0.2,0.8,0.3,1.2,0.3c0.6,0,1-0.1,1.4-0.4
			c0.4-0.3,0.6-0.6,0.8-1h1.3c-0.2,0.7-0.6,1.4-1.2,1.8C143.4,241.5,142.7,241.8,141.7,241.8z M141.7,234.6c-0.6,0-1.2,0.2-1.7,0.6
			c-0.5,0.4-0.8,1-0.9,1.7h5c0-0.7-0.3-1.3-0.7-1.7C143,234.8,142.4,234.6,141.7,234.6z"/>
		<path class="st1" d="M147.3,241.6v-7.9h1.2l0.1,1.5c0.2-0.5,0.6-0.9,1.1-1.2s1.1-0.5,1.9-0.5v1.4h-0.4c-0.5,0-0.9,0.1-1.3,0.2
			c-0.4,0.2-0.7,0.5-0.9,0.8c-0.2,0.4-0.4,0.9-0.4,1.6v4L147.3,241.6L147.3,241.6z"/>
		<path class="st1" d="M156.4,241.8c-0.8,0-1.4-0.2-2-0.5c-0.6-0.4-1.1-0.8-1.4-1.5c-0.3-0.6-0.5-1.4-0.5-2.2s0.2-1.6,0.5-2.2
			c0.4-0.6,0.8-1.1,1.4-1.5c0.6-0.4,1.3-0.5,2-0.5c0.9,0,1.7,0.2,2.4,0.7c0.6,0.5,1,1.2,1.2,2h-1.4c-0.1-0.5-0.4-0.9-0.8-1.1
			c-0.4-0.3-0.9-0.4-1.5-0.4c-0.4,0-0.9,0.1-1.3,0.3c-0.4,0.2-0.7,0.6-1,1c-0.2,0.4-0.4,1-0.4,1.7s0.1,1.2,0.4,1.7
			c0.2,0.4,0.6,0.8,1,1s0.8,0.3,1.3,0.3c0.6,0,1-0.1,1.5-0.4c0.4-0.3,0.7-0.7,0.8-1.2h1.4c-0.2,0.8-0.6,1.5-1.2,2
			C158.2,241.5,157.4,241.8,156.4,241.8z"/>
		<path class="st1" d="M162.7,231.9c-0.3,0-0.5-0.1-0.7-0.3s-0.3-0.4-0.3-0.7s0.1-0.5,0.3-0.6c0.2-0.2,0.4-0.3,0.7-0.3
			s0.5,0.1,0.7,0.3s0.3,0.4,0.3,0.6c0,0.3-0.1,0.5-0.3,0.7S163,231.9,162.7,231.9z M162,241.6v-7.9h1.3v7.9H162z"/>
		<path class="st1" d="M168.8,241.8c-0.9,0-1.7-0.2-2.4-0.7c-0.6-0.5-1-1.1-1.1-2h1.4c0.1,0.4,0.3,0.8,0.7,1.1s0.8,0.5,1.4,0.5
			c0.6,0,1-0.1,1.2-0.4c0.3-0.2,0.4-0.5,0.4-0.9c0-0.5-0.2-0.8-0.5-1c-0.4-0.2-0.8-0.3-1.5-0.4c-0.4-0.1-0.9-0.2-1.3-0.4
			c-0.4-0.2-0.8-0.4-1.1-0.7s-0.4-0.7-0.4-1.2c0-0.7,0.3-1.3,0.8-1.7s1.2-0.7,2.1-0.7c0.8,0,1.5,0.2,2.1,0.6c0.5,0.4,0.9,1,0.9,1.8
			h-1.3c-0.1-0.4-0.2-0.7-0.5-1c-0.3-0.2-0.7-0.3-1.2-0.3s-0.9,0.1-1.1,0.3c-0.3,0.2-0.4,0.5-0.4,0.8s0.2,0.6,0.5,0.8
			s0.8,0.3,1.4,0.5c0.5,0.1,1,0.2,1.4,0.4c0.4,0.1,0.8,0.4,1.1,0.7s0.4,0.7,0.4,1.3c0,0.7-0.3,1.3-0.8,1.8
			C170.4,241.6,169.7,241.8,168.8,241.8z"/>
		<path class="st1" d="M177.3,241.8c-0.8,0-1.4-0.2-2-0.5c-0.6-0.4-1-0.8-1.4-1.5c-0.3-0.6-0.5-1.4-0.5-2.2s0.2-1.6,0.5-2.2
			s0.8-1.1,1.4-1.5c0.6-0.4,1.3-0.5,2.1-0.5s1.4,0.2,2,0.5s1,0.8,1.3,1.4c0.3,0.6,0.4,1.2,0.4,1.8c0,0.1,0,0.2,0,0.4
			c0,0.1,0,0.2,0,0.4h-6.3c0,0.6,0.2,1.1,0.4,1.5s0.6,0.7,0.9,0.9c0.4,0.2,0.8,0.3,1.2,0.3c0.6,0,1-0.1,1.4-0.4
			c0.4-0.3,0.7-0.6,0.8-1h1.3c-0.2,0.7-0.6,1.4-1.2,1.8C179,241.5,178.2,241.8,177.3,241.8z M177.3,234.6c-0.6,0-1.2,0.2-1.7,0.6
			c-0.5,0.4-0.8,1-0.9,1.7h5c0-0.7-0.3-1.3-0.7-1.7C178.5,234.8,178,234.6,177.3,234.6z"/>
		<path class="st1" d="M188.7,241.6l-2.3-7.9h1.3l1.7,6.2l1.9-6.2h1.5l1.9,6.2l1.7-6.2h1.4l-2.3,7.9h-1.4l-1.9-6.5l-1.9,6.5H188.7z"
			/>
		<path class="st1" d="M202.4,241.8c-0.8,0-1.4-0.2-2-0.5c-0.6-0.4-1.1-0.8-1.4-1.5c-0.3-0.6-0.5-1.4-0.5-2.2s0.2-1.6,0.5-2.2
			c0.3-0.6,0.8-1.1,1.4-1.5c0.6-0.4,1.3-0.5,2.1-0.5s1.4,0.2,2,0.5s1,0.8,1.3,1.4c0.3,0.6,0.5,1.2,0.5,1.8c0,0.1,0,0.2,0,0.4
			c0,0.1,0,0.2,0,0.4H200c0,0.6,0.2,1.1,0.4,1.5s0.6,0.7,0.9,0.9c0.4,0.2,0.8,0.3,1.2,0.3c0.6,0,1-0.1,1.4-0.4
			c0.4-0.3,0.6-0.6,0.8-1h1.3c-0.2,0.7-0.6,1.4-1.2,1.8C204.1,241.5,203.3,241.8,202.4,241.8z M202.4,234.6c-0.6,0-1.2,0.2-1.7,0.6
			c-0.5,0.4-0.8,1-0.9,1.7h5c0-0.7-0.3-1.3-0.7-1.7C203.6,234.8,203.1,234.6,202.4,234.6z"/>
		<path class="st1" d="M215.7,241.8c-0.8,0-1.4-0.2-2-0.5c-0.6-0.4-1-0.8-1.4-1.5c-0.3-0.6-0.5-1.4-0.5-2.2s0.2-1.6,0.5-2.2
			s0.8-1.1,1.4-1.5c0.6-0.4,1.3-0.5,2.1-0.5s1.4,0.2,2,0.5s1,0.8,1.3,1.4c0.3,0.6,0.4,1.2,0.4,1.8c0,0.1,0,0.2,0,0.4
			c0,0.1,0,0.2,0,0.4h-6.3c0,0.6,0.2,1.1,0.4,1.5s0.6,0.7,0.9,0.9c0.4,0.2,0.8,0.3,1.2,0.3c0.6,0,1-0.1,1.4-0.4
			c0.4-0.3,0.6-0.6,0.8-1h1.3c-0.2,0.7-0.6,1.4-1.2,1.8C217.4,241.5,216.7,241.8,215.7,241.8z M215.7,234.6c-0.6,0-1.2,0.2-1.7,0.6
			c-0.5,0.4-0.8,1-0.9,1.7h5c0-0.7-0.3-1.3-0.7-1.7C217,234.8,216.4,234.6,215.7,234.6z"/>
		<path class="st1" d="M221.3,241.6v-7.9h1.2l0.1,1.4c0.3-0.5,0.6-0.9,1.1-1.2s1-0.4,1.6-0.4c0.9,0,1.7,0.3,2.2,0.9
			c0.6,0.6,0.8,1.4,0.8,2.6v4.6h-1.2v-4.5c0-1.6-0.7-2.5-2.1-2.5c-0.7,0-1.2,0.2-1.7,0.7s-0.7,1.2-0.7,2.1v4.1L221.3,241.6
			L221.3,241.6z"/>
		<path class="st1" d="M228.9,245.1V244h0.6c0.4,0,0.7-0.1,0.9-0.2c0.2-0.2,0.3-0.4,0.3-0.8v-9.2h1.3v9.2c0,0.8-0.2,1.3-0.6,1.7
			c-0.4,0.4-0.9,0.5-1.7,0.5L228.9,245.1L228.9,245.1z M231.3,231.9c-0.3,0-0.5-0.1-0.7-0.3s-0.3-0.4-0.3-0.7s0.1-0.5,0.3-0.6
			c0.2-0.2,0.4-0.3,0.7-0.3s0.5,0.1,0.6,0.3c0.2,0.2,0.3,0.4,0.3,0.6c0,0.3-0.1,0.5-0.3,0.7C231.8,231.8,231.6,231.9,231.3,231.9z"
			/>
		<path class="st1" d="M237.9,241.8c-0.8,0-1.4-0.2-2-0.5s-1.1-0.8-1.4-1.4c-0.4-0.6-0.5-1.4-0.5-2.2s0.2-1.6,0.5-2.2
			c0.3-0.6,0.8-1.1,1.4-1.4s1.3-0.5,2-0.5c0.8,0,1.4,0.2,2,0.5s1.1,0.8,1.4,1.4c0.4,0.6,0.5,1.4,0.5,2.2s-0.2,1.6-0.5,2.2
			c-0.3,0.6-0.8,1.1-1.4,1.4S238.7,241.8,237.9,241.8z M237.9,240.6c0.5,0,0.9-0.1,1.3-0.3c0.4-0.2,0.7-0.6,1-1s0.4-1,0.4-1.7
			s-0.1-1.2-0.4-1.7c-0.2-0.4-0.6-0.8-1-1s-0.8-0.3-1.3-0.3s-0.9,0.1-1.3,0.3c-0.4,0.2-0.7,0.6-1,1c-0.2,0.5-0.4,1-0.4,1.7
			s0.1,1.2,0.4,1.7s0.6,0.8,1,1S237.5,240.6,237.9,240.6z"/>
		<path class="st1" d="M244,245.1l2-4.3h-0.5l-3.1-7.2h1.5l2.6,6.2l2.8-6.2h1.4l-5.2,11.5H244z"/>
		<path class="st1" d="M251.4,241.7c-0.3,0-0.5-0.1-0.7-0.3s-0.3-0.4-0.3-0.6c0-0.3,0.1-0.5,0.3-0.7c0.2-0.2,0.4-0.3,0.7-0.3
			c0.3,0,0.5,0.1,0.6,0.3c0.2,0.2,0.3,0.4,0.3,0.7s-0.1,0.5-0.3,0.6C251.8,241.6,251.6,241.7,251.4,241.7z"/>
		<path class="st2" d="M29.5,74.9c0.4-0.1,0.8-0.1,1.5-0.1c1.7,0,2.7,0.2,3.1,0.6c0.3,0.3,0.5,0.6,0.5,1s-0.2,0.7-0.5,1
			s-0.7,0.4-1.2,0.4s-0.8,0.1-0.9,0.3c-0.2,0.2-0.2,0.8-0.2,1.6c0,0.2,0,1,0.1,2.3c0.1,1.5,0.1,2.5,0.2,2.9c0.1,0.4,0.2,0.7,0.3,0.7
			c0,0,0.2,0,0.6,0c0.4,0,0.7,0,0.9,0c0.7,0,1.3,0.2,1.6,0.6c0.2,0.2,0.3,0.4,0.3,0.6c0,0.5-0.7,0.9-2,1.4c-0.8,0.3-1.2,0.5-1.4,0.6
			s-0.3,0.5-0.3,1c0,0.5,0,0.9,0,1.3c0,1.5,0.1,2.7,0.4,3.4c0.1,0.3,0.3,0.5,0.4,0.6c0.1,0.1,0.5,0.1,1,0.1c0.6,0,1.2,0.1,1.6,0.4
			c0.5,0.3,0.7,0.6,0.7,1c0,0.3-0.2,0.6-0.7,1.1c-0.7,0.7-1.9,1.1-3.7,1.1c-1.8,0-2.9-0.4-3.5-1.1c-0.3-0.4-0.5-3-0.5-7.8
			c-0.1-6-0.1-9.5-0.2-10.6l-0.1-3.4l0.6-0.4C28.7,75.2,29.1,75,29.5,74.9z"/>
		<path class="st2" d="M42.2,73.8c0.5-0.2,0.9-0.3,1.4-0.3c0.9,0,1.5,0.6,1.8,1.7c0.2,0.9,0.6,1.8,1.1,2.8s0.8,1.8,1,2.4
			c0.3,1,0.6,1.6,0.8,1.9c0.1,0.1,0.2,0.2,0.2,0.2c0.1,0,0.2-0.7,0.4-2c0.1-1.2,0.1-2,0.1-2.5v-0.6c0-0.2-0.1-0.6-0.1-0.9
			c0-0.8,0.2-1.4,0.6-1.8c0.4-0.5,0.9-0.7,1.7-0.7c0.6,0,1,0.2,1.3,0.5c0.3,0.2,0.4,0.6,0.4,1.1c0,0.6,0,1.1-0.1,1.6
			s-0.1,4.2-0.2,11.1c0,4.3-0.1,6.9-0.1,7.8s-0.2,1.4-0.4,1.6c-0.3,0.3-0.8,0.5-1.5,0.5c-1.3,0-2.1-0.6-2.3-1.9
			c-0.1-0.5-0.4-1.4-0.9-2.7c-0.5-1.2-0.8-2.3-0.9-3.2c-0.2-1.2-0.7-2.9-1.3-5c-0.1-0.2-0.1-0.3-0.1-0.3c-0.2,0-0.2,1.3-0.2,3.8v2.2
			v2.4c0,2.5-0.1,3.9-0.2,4.2c-0.3,0.9-0.9,1.3-1.9,1.3c-0.6,0-1-0.2-1.4-0.6c-0.3-0.3-0.4-0.6-0.4-0.9c0-0.1,0-0.3,0.1-0.8
			c0.2-1,0.2-4.7,0.2-11c0-7,0.1-10.8,0.2-11.2c0.1-0.3,0.2-0.4,0.5-0.5C42,73.9,42.1,73.9,42.2,73.8z"/>
		<path class="st2" d="M58.1,72.1c0.1-0.1,0.5-0.2,1.2-0.2c1.3,0,2.5,0.1,3.7,0.5c0.6,0.2,1,0.4,1.2,0.6s0.3,0.6,0.3,1.2
			c0,0.4,0,1-0.1,1.7c-0.1,0.4-0.1,1.3-0.1,2.7c0,3.6,0.2,7.6,0.6,12c0.1,0.8,0.1,1.5,0.1,2.1c0,1.8-0.4,2.9-1.2,3.4
			c-0.5,0.3-0.9,0.5-1.4,0.5c-0.4,0-1-0.2-1.9-0.5s-1.6-0.6-1.9-0.9c-0.3-0.2-0.5-0.5-0.5-0.8s0.1-0.6,0.4-0.8s0.7-0.3,1.1-0.3
			c0.2,0,0.3,0,0.4,0c0.4,0.1,0.6,0.1,0.7,0s0.2-0.2,0.2-0.5c0-0.1,0.1-0.3,0.1-0.6c0-0.3,0-0.7-0.1-1.3c-0.1-0.7-0.2-3.1-0.3-7.2
			c-0.1-4.1-0.2-6.3-0.2-6.7c-0.1-1-0.1-1.7-0.2-1.9c-0.1-0.2-0.3-0.4-0.7-0.5c-1.2-0.5-1.7-1.2-1.7-2
			C57.8,72.5,57.9,72.3,58.1,72.1z"/>
		<path class="st2" d="M70.8,74.3l0.8-1.1h5.7l0.9,0.9c0.6,0.6,1,1.3,1.2,2.2s0.4,2.3,0.6,4.1c0.1,0.7,0.1,1.7,0.1,3.1
			c0,3.1-0.3,5.9-0.9,8.5s-1.3,4.3-2.3,5.2c-0.3,0.3-0.8,0.6-1.3,0.8c-0.6,0.2-1.1,0.3-1.5,0.3c-0.2,0-0.3,0-0.5-0.1
			C73.4,98,73,98,72.6,98c-0.3,0-0.7-0.2-1.1-0.8c-0.4-0.5-0.7-1.1-1-1.8c-0.4-1.2-0.7-2.5-0.8-3.9c-0.1-1.4-0.2-3.7-0.2-6.8v-2.2
			c0-2.9,0.1-4.8,0.2-5.8C69.9,75.8,70.3,74.9,70.8,74.3z M75.1,76.5c-0.3-0.6-0.5-0.9-0.7-0.9s-0.5,0.5-0.8,1.4
			c-0.2,0.7-0.4,2.1-0.4,4.2c0,1.6,0.1,3.4,0.2,5.2c0.1,1.7,0.3,3.4,0.6,4.9c0.3,1.5,0.5,2.3,0.7,2.3s0.3-0.3,0.4-1
			c0.2-0.6,0.3-1,0.5-1.4c0.1-0.2,0.2-1.5,0.4-4c0.1-1.3,0.1-2.5,0.1-3.6C76.2,80.3,75.8,77.9,75.1,76.5z"/>
		<path class="st2" d="M87.1,72.9c0.5-0.2,0.9-0.3,1.2-0.3c0.5,0,0.9,0.2,1.2,0.6c0.4,0.4,0.6,1.2,0.6,2.3c0.1,2.1,0.5,4.1,1.2,5.8
			c0.2,0.6,0.3,1,0.3,1.3c0,0.1,0,0.2,0.1,0.3c0.1,0.1,0.1,0.1,0.2,0.1c0.2-0.1,0.3-0.6,0.3-1.4c0-0.9,0.1-1.3,0.1-1.4
			c0.1-0.1,0.1-1,0.2-2.9c0.1-1.8,0.1-3,0.1-3.5c0-0.2,0.4-0.5,1-0.7s1.2-0.4,1.6-0.4c0.7,0,1.2,0.2,1.5,0.7
			c0.3,0.4,0.4,0.8,0.4,1.1c0,0.4-0.1,1.9-0.4,4.8c-0.1,0.6-0.2,2.2-0.4,4.9c-0.1,2-0.6,4.5-1.3,7.3c-0.4,1.5-0.7,2.6-1.1,3.4
			s-0.9,1.6-1.6,2.3c-0.4,0.4-0.7,0.6-0.9,0.6c-0.2,0-0.4,0.2-0.6,0.5s-0.5,0.6-1.1,0.8s-1.2,0.3-1.8,0.3c-0.5,0-1.1-0.2-1.7-0.5
			s-1-0.6-1-0.9s0.2-0.7,0.5-1.1c0.4-0.4,0.8-0.7,1.3-1c0.9-0.4,1.6-1,2.2-1.8c0.5-0.8,1-1.9,1.5-3.3c0.5-1.6,0.8-2.6,0.8-3
			c0-0.3-0.2-0.6-0.7-0.8c-1.3-0.6-2.2-1.2-2.6-2c-0.2-0.4-0.7-2.4-1.4-5.9c-0.4-1.7-0.6-3.1-0.6-4C86,74,86.3,73.2,87.1,72.9z"/>
		<path class="st3" d="M231.8,99.1c48.6,0,88-4,88-8.9s-39.4-8.9-88-8.9s-88,4-88,8.9S183.1,99.1,231.8,99.1z"/>
		<path class="st4" d="M253.9,13.7l-0.1,0.4c-0.3,0.8,0.1,1.7,0.9,2l14.1,5.1l0.7-1.9c0.3-0.8-0.1-1.6-0.9-1.9l-12.8-4.6
			C255.1,12.4,254.2,12.9,253.9,13.7z"/>
		<path class="st5" d="M229.1,74.6L229.1,74.6c-0.6-0.3-1.2-0.7-1.7-1.1c-0.1,0.1-2.8,5.6-3.1,6.2c-0.1,0.2-0.2,0.2-0.4,0.2
			s-0.5,0-0.7,0c-0.4,0-0.9,0-1.3,0c-0.2,0-0.4,0.1-0.5,0.2s-0.1,0.1-0.2,0.2c-0.4,0.4-0.4,1,0,1.4c0.1,0.1,0.1,0.1,0.2,0.2
			c0.2,0.1,0.3,0.2,0.5,0.2c1.7,0,3.4,0,5.1,0c0.5,0,1-0.5,1-1.1c0-0.5-0.3-0.8-0.7-1c-0.1-0.1-0.2-0.1-0.3-0.1s-0.2,0-0.3,0
			c-0.2,0-0.3-0.1-0.2-0.3C226.8,79.3,228.8,75.1,229.1,74.6z"/>
		<path class="st4" d="M227.4,80c-0.1,0-0.2,0-0.3-0.1c-0.1,0-0.2,0-0.3,0s-0.2,0-0.2-0.1h-2.4c-0.1,0.1-0.2,0.1-0.3,0.1
			c-0.2,0-0.5,0-0.7,0c-0.4,0-0.9,0-1.3,0c-0.2,0-0.4,0.1-0.5,0.2s-0.1,0.1-0.2,0.2c-0.4,0.4-0.4,1,0,1.4c0.1,0.1,0.1,0.1,0.2,0.2
			c0.2,0.1,0.3,0.2,0.5,0.2c1.7,0,3.4,0,5.1,0c0.5,0,1-0.5,1-1.1C228.1,80.5,227.7,80.2,227.4,80z"/>
		<path class="st4" d="M164,71.3l24.1-5.9l-15.6-19.3l0.2-0.4l15.7,19.4l24.2-5.7l0.1,0.3l-24.1,5.9l15.6,19.3l-0.2,0.2l-15.7-19.4
			l-24.2,5.9L164,71.3z"/>
		<path class="st4" d="M262.8,81.3l19.4-15.7l-5.9-24.2l0.3-0.1l5.9,24.1l19.3-15.6L302,50l-19.4,15.7l5.9,24.2l-0.3,0.1l-5.9-24.1
			L263,81.5L262.8,81.3z"/>
		<path class="st6" d="M161.6,65.6c0,14.8,12,26.8,26.8,26.8s26.8-12,26.8-26.8s-12-26.8-26.8-26.8S161.6,50.8,161.6,65.6z
			 M165,65.6c0-12.9,10.5-23.4,23.4-23.4s23.4,10.5,23.4,23.4S201.3,89,188.4,89S165,78.5,165,65.6z"/>
		<path class="st6" d="M255.6,65.7c0,14.8,12,26.8,26.8,26.8s26.8-12,26.8-26.8s-12-26.8-26.8-26.8
			C267.6,38.9,255.6,50.9,255.6,65.7z M259,65.7c0-12.9,10.5-23.4,23.4-23.4s23.4,10.5,23.4,23.4s-10.5,23.4-23.4,23.4
			S259,78.6,259,65.7z"/>
		<path class="st7" d="M272.3,46.5c-1.8-2.7-2.8-3.1-2.8-6.3V30.1c0.1-1.1,0.1-6.8,0-10.1c0-1.3-1.1-2-2.4-2c-0.4,0-0.8,0-1.3,0
			c0,0-0.1,6.1-0.2,9.7c0,1.4-1.1,2.5-2.5,2.6c-7,0.6-35.1,2.7-45,3.5c-1.9,0.1-3.7-1.2-4-3.1l-0.3-1.8c0-0.1,0.1-0.2,0.2-0.2
			c1.5,0.1,11.6,0.2,11.7-2.2c0.1-1.7-19-1.2-19-1.2c-0.5-0.1-0.8,0.6-0.4,0.9l2.8,2.3c0.2,0.2,0.6,0.3,0.9,0.3l1,0.1
			c0.1,0,0.2,0.1,0.2,0.1l0.8,3.7c0.3,1.5-0.1,3.1-1.1,4.2c-5,5.7-19.6,22.4-23.8,27.4c-0.6,0.7-0.2,3,0.8,3.1
			c6.8,0.8,35.3,5.1,39.3,3.1c9.6-4.9,30.3-23.1,36-28.2c0.8-0.7,2-0.5,2.6,0.3c1.2,1.7,3,4.4,3.9,5.6l12.4,18.5l1.4-1.6L272.3,46.5
			z M220.3,68.2c-8.8-0.4-22.1-1.6-29.8-2.3c-0.7-0.1-1.1-0.9-0.6-1.5c5.9-6.7,17.8-19.3,21.6-23.3c0.6-0.6,1.6-0.4,1.9,0.4
			c1.6,4.4,6.1,16.3,8.6,24.6C222.3,67.1,221.4,68.2,220.3,68.2z M264,37.2c0,0-35,33.1-38.3,30.5c-1.8-1.4-7.6-22.1-9.3-28.6
			c-0.2-1,0.4-1.9,1.4-2l45.1-4.2C265.2,33,265.3,35.7,264,37.2z"/>
		<path class="st4" d="M225.6,26.5c0.1-1.7-19-1.2-19-1.2c-0.5-0.1-0.8,0.6-0.4,0.9l2.8,2.3c0.2,0.2,0.6,0.3,0.9,0.3l1,0.1
			c0.1,0,0.1,0,0.1,0.1c0.5,0,2.6,0,2.6,0c0-0.1,0.1-0.2,0.2-0.2C215.3,28.8,225.5,28.9,225.6,26.5z"/>
		<path class="st5" d="M238.6,64.8c0.1,0.1,0.2,0.1,0.2,0.2c0.2,0.1,0.1,0.3,0,0.4c-0.3,0.2-6.1,3.1-6.7,3.5
			c0.2,0.5,0.4,2.1,0.4,2.1c0.7-0.4,7.6-4,8.2-4.3c0.2-0.1,0.8-0.4,0.9-0.4L238.6,64.8z"/>
		<path class="st4" d="M238,64c-0.1,0-0.3,0-0.4,0.1c-0.2,0.1-0.6,0.4-0.6,0.9c-0.1,0.5,0.4,1.1,0.9,1.2c1.7,0.2,3.4,0.3,5,0.5
			c0.2,0,0.7-0.3,0.8-0.3c0.4-0.3,0.5-0.9,0.1-1.3c-0.1-0.1-0.5-0.4-0.7-0.5C242.8,64.5,238.8,64.1,238,64z"/>
		<path class="st4" d="M282.4,69.5c2.1,0,3.8-1.7,3.8-3.8s-1.7-3.8-3.8-3.8c-2.1,0-3.8,1.7-3.8,3.8S280.3,69.5,282.4,69.5z"/>
		<path class="st4" d="M188.4,69.9c2.4,0,4.3-1.9,4.3-4.3s-1.9-4.3-4.3-4.3c-2.4,0-4.3,1.9-4.3,4.3C184,68,186,69.9,188.4,69.9z"/>
		<path class="st4" d="M226.9,75.6c3.3,0,6-2.7,6-6s-2.7-6-6-6s-6,2.7-6,6S223.6,75.6,226.9,75.6z"/>
		<path class="st8" d="M224.4,76.4c7,1.3,9.7-2,10.3-5.2c0.7-3.3-1.4-7.9-5.9-8.4l-39.7-3.5c-3-0.3-5.7,1.8-6.3,4.7
			c-0.7,3.3,1.6,6.6,5,7.1L224.4,76.4z"/>
		<path class="st4" d="M253,19.1v0.4c0,0.9,0.7,1.6,1.6,1.6h15v-2c0-0.8-0.6-1.5-1.5-1.5h-13.5C253.7,17.6,253,18.3,253,19.1z"/>
	</g>
</g>
</svg>
