<?xml version="1.0" encoding="utf-8"?>
<!-- Generator: Adobe Illustrator 25.1.0, SVG Export Plug-In . SVG Version: 6.00 Build 0)  -->
<svg version="1.1" id="Layer_1" xmlns="http://www.w3.org/2000/svg" xmlns:xlink="http://www.w3.org/1999/xlink" x="0px" y="0px"
	 viewBox="0 0 330.8 201" style="enable-background:new 0 0 330.8 201;" xml:space="preserve">
<style type="text/css">
	.st0{fill:#FFFFFF;}
	.st1{fill:#808080;}
	.st2{fill:#FF9F1A;}
	.st3{fill:none;stroke:#FFFFFF;stroke-width:1.7772;stroke-linecap:round;stroke-miterlimit:10;}
	.st4{fill:#D64204;}
</style>
<g>
	<g>
		<g>
			<path class="st0" d="M330.8,141.2C330.8,2.7,323.2,1,191.8,0c-28.3-0.2-71.2,0.3-105.9,0.9c-34.1,0.6-66.8,1.4-72,14.6
				C5.8,36,0.5,77.9,0.5,115.7c0,59.3-6.6,73.5,28.4,81c35.6,7.6,166.4,2.9,209.3,1.9C282.5,197.7,330.8,201.7,330.8,141.2z"/>
			<path class="st1" d="M178.6,47.8V37.7h-3.3v-1.1h8v1.1H180v10.1H178.6z"/>
			<path class="st1" d="M184.9,47.8V36.3h1.3v4.9c0.3-0.5,0.6-0.9,1.1-1.1c0.5-0.3,1-0.4,1.6-0.4c0.9,0,1.6,0.3,2.2,0.9
				c0.6,0.6,0.8,1.5,0.8,2.6v4.6h-1.3v-4.5c0-1.7-0.7-2.5-2-2.5c-0.7,0-1.3,0.2-1.7,0.7c-0.5,0.5-0.7,1.2-0.7,2.1v4.1L184.9,47.8
				L184.9,47.8z"/>
			<path class="st1" d="M194.9,38.1c-0.3,0-0.5-0.1-0.7-0.3c-0.2-0.2-0.3-0.4-0.3-0.7s0.1-0.5,0.3-0.6c0.2-0.2,0.4-0.3,0.7-0.3
				s0.5,0.1,0.7,0.3c0.2,0.2,0.3,0.4,0.3,0.6c0,0.3-0.1,0.5-0.3,0.7S195.1,38.1,194.9,38.1z M194.2,47.8v-7.9h1.3v7.9H194.2z"/>
			<path class="st1" d="M200.9,48c-0.9,0-1.7-0.2-2.4-0.7c-0.6-0.5-1-1.1-1.1-1.9h1.4c0.1,0.4,0.3,0.8,0.7,1.1
				c0.4,0.3,0.8,0.5,1.4,0.5c0.6,0,1-0.1,1.2-0.4s0.4-0.5,0.4-0.9c0-0.5-0.2-0.8-0.5-1c-0.4-0.2-0.8-0.3-1.5-0.4
				c-0.4-0.1-0.8-0.2-1.3-0.4c-0.4-0.2-0.8-0.4-1.1-0.7c-0.3-0.3-0.4-0.7-0.4-1.2c0-0.7,0.3-1.3,0.8-1.7c0.5-0.4,1.2-0.7,2.1-0.7
				c0.8,0,1.5,0.2,2.1,0.6c0.5,0.4,0.9,1,0.9,1.8h-1.3c0-0.4-0.2-0.7-0.5-1c-0.3-0.2-0.7-0.3-1.2-0.3s-0.8,0.1-1.1,0.3
				c-0.3,0.2-0.4,0.5-0.4,0.8s0.2,0.6,0.5,0.8s0.8,0.3,1.4,0.5c0.5,0.1,1,0.2,1.4,0.4c0.4,0.2,0.8,0.4,1.1,0.7
				c0.3,0.3,0.4,0.7,0.4,1.3c0,0.7-0.3,1.3-0.8,1.8C202.6,47.8,201.9,48,200.9,48z"/>
			<path class="st1" d="M213.3,47.8c-0.7,0-1.3-0.2-1.7-0.5s-0.6-1-0.6-1.9V41h-1.5v-1.1h1.4l0.2-1.9h1.2v1.9h2.3V41h-2.3v4.4
				c0,0.5,0.1,0.8,0.3,1s0.6,0.3,1.1,0.3h0.8v1.2h-1.2V47.8z"/>
			<path class="st1" d="M217.9,47.8l-2.3-7.9h1.3l1.7,6.2l1.9-6.2h1.5l1.9,6.2l1.7-6.2h1.4l-2.3,7.9h-1.4l-1.9-6.5l-2,6.5H217.9z"/>
			<path class="st1" d="M231.7,48c-0.8,0-1.4-0.2-2-0.5s-1.1-0.8-1.4-1.5c-0.4-0.6-0.5-1.4-0.5-2.2c0-0.8,0.2-1.6,0.5-2.2
				c0.4-0.6,0.8-1.1,1.4-1.5c0.6-0.3,1.3-0.5,2-0.5s1.4,0.2,2,0.5s1.1,0.8,1.4,1.5c0.4,0.6,0.5,1.4,0.5,2.2c0,0.8-0.2,1.6-0.5,2.2
				c-0.4,0.6-0.8,1.1-1.4,1.5C233.1,47.8,232.4,48,231.7,48z M231.7,46.8c0.5,0,0.9-0.1,1.3-0.3c0.4-0.2,0.7-0.6,1-1s0.4-1,0.4-1.7
				s-0.1-1.2-0.4-1.7s-0.6-0.8-0.9-1c-0.4-0.2-0.8-0.3-1.3-0.3s-0.9,0.1-1.3,0.3c-0.4,0.2-0.7,0.6-1,1s-0.4,1-0.4,1.7
				s0.1,1.2,0.4,1.7s0.6,0.8,0.9,1C230.8,46.7,231.2,46.8,231.7,46.8z"/>
			<path class="st1" d="M237.4,43.7v-1.1h6.3v1.1H237.4z"/>
			<path class="st1" d="M247.4,47.8l-2.3-7.9h1.3l1.7,6.2l1.9-6.2h1.5l1.9,6.2l1.7-6.2h1.4l-2.3,7.9h-1.4l-2-6.5l-1.9,6.5H247.4z"/>
			<path class="st1" d="M261.1,48c-0.8,0-1.4-0.2-2-0.5s-1.1-0.8-1.4-1.5c-0.3-0.6-0.5-1.3-0.5-2.2c0-0.8,0.2-1.6,0.5-2.2
				s0.8-1.1,1.4-1.5s1.3-0.5,2.1-0.5c0.8,0,1.4,0.2,2,0.5s1,0.8,1.3,1.4s0.4,1.2,0.4,1.8c0,0.1,0,0.2,0,0.3c0,0.1,0,0.2,0,0.4h-6.4
				c0,0.6,0.2,1.1,0.4,1.5c0.2,0.4,0.6,0.7,0.9,0.9c0.4,0.2,0.8,0.3,1.2,0.3c0.6,0,1-0.1,1.4-0.4s0.6-0.6,0.8-1h1.3
				c-0.2,0.7-0.6,1.3-1.2,1.8C262.8,47.8,262,48,261.1,48z M261.1,40.8c-0.6,0-1.2,0.2-1.7,0.6s-0.8,1-0.9,1.7h5
				c0-0.7-0.3-1.3-0.7-1.7C262.3,41,261.8,40.8,261.1,40.8z"/>
			<path class="st1" d="M270.2,48c-0.8,0-1.4-0.2-2-0.5s-1.1-0.8-1.4-1.5c-0.3-0.6-0.5-1.3-0.5-2.2c0-0.8,0.2-1.6,0.5-2.2
				s0.8-1.1,1.4-1.5s1.3-0.5,2.1-0.5c0.8,0,1.4,0.2,2,0.5s1,0.8,1.3,1.4s0.4,1.2,0.4,1.8c0,0.1,0,0.2,0,0.3c0,0.1,0,0.2,0,0.4h-6.3
				c0,0.6,0.2,1.1,0.4,1.5c0.2,0.4,0.6,0.7,0.9,0.9c0.4,0.2,0.8,0.3,1.2,0.3c0.5,0,1-0.1,1.4-0.4s0.7-0.6,0.8-1h1.3
				c-0.2,0.7-0.6,1.3-1.2,1.8C271.9,47.8,271.1,48,270.2,48z M270.2,40.8c-0.6,0-1.2,0.2-1.7,0.6s-0.8,1-0.9,1.7h5
				c0-0.7-0.3-1.3-0.7-1.7C271.4,41,270.9,40.8,270.2,40.8z"/>
			<path class="st1" d="M275.7,47.8V36.3h1.3v6.9l3.2-3.3h1.6l-3.5,3.6l4,4.3h-1.7l-3.6-4.1v4.1H275.7z"/>
			<path class="st1" d="M175.9,73.3V61.8h1.2l0.1,1.3c0.3-0.4,0.6-0.7,1.1-1s1.1-0.5,1.8-0.5c0.8,0,1.5,0.2,2.1,0.5
				c0.6,0.4,1,0.9,1.4,1.5c0.3,0.6,0.5,1.3,0.5,2.1c0,0.8-0.2,1.5-0.5,2.1s-0.8,1.1-1.4,1.5c-0.6,0.4-1.3,0.5-2.1,0.5
				c-0.6,0-1.2-0.1-1.7-0.4s-0.9-0.6-1.2-1.1v4.9h-1.3V73.3z M180,68.8c0.5,0,1-0.1,1.4-0.4c0.4-0.2,0.7-0.6,1-1.1
				c0.2-0.4,0.4-1,0.4-1.6s-0.1-1.1-0.4-1.6c-0.2-0.5-0.6-0.8-1-1.1c-0.4-0.2-0.9-0.4-1.4-0.4s-1,0.1-1.4,0.4s-0.7,0.6-1,1.1
				c-0.2,0.4-0.3,1-0.3,1.6s0.1,1.1,0.3,1.6s0.6,0.8,1,1.1C179,68.7,179.5,68.8,180,68.8z"/>
			<path class="st1" d="M186,69.8v-7.9h1.2l0.1,1.5c0.2-0.5,0.6-0.9,1.1-1.2s1.1-0.5,1.9-0.5v1.4h-0.4c-0.5,0-0.9,0.1-1.3,0.2
				c-0.4,0.2-0.7,0.4-0.9,0.8c-0.2,0.4-0.3,0.9-0.3,1.6v4H186V69.8z"/>
			<path class="st1" d="M195.1,70c-0.8,0-1.4-0.2-2-0.5s-1.1-0.8-1.4-1.5c-0.3-0.6-0.5-1.4-0.5-2.2c0-0.8,0.2-1.6,0.5-2.2
				c0.3-0.6,0.8-1.1,1.4-1.5c0.6-0.3,1.3-0.5,2-0.5s1.4,0.2,2,0.5s1.1,0.8,1.4,1.5c0.3,0.6,0.5,1.4,0.5,2.2c0,0.8-0.2,1.6-0.5,2.2
				c-0.4,0.6-0.8,1.1-1.4,1.5C196.5,69.8,195.9,70,195.1,70z M195.1,68.8c0.5,0,0.9-0.1,1.3-0.3c0.4-0.2,0.7-0.6,1-1s0.4-1,0.4-1.7
				s-0.1-1.2-0.4-1.7c-0.2-0.4-0.6-0.8-0.9-1c-0.4-0.2-0.8-0.3-1.3-0.3s-0.9,0.1-1.3,0.3c-0.4,0.2-0.7,0.6-1,1
				c-0.3,0.4-0.4,1-0.4,1.7s0.1,1.2,0.4,1.7s0.6,0.8,0.9,1C194.2,68.7,194.7,68.8,195.1,68.8z"/>
			<path class="st1" d="M203.8,67.3c-0.4,0-0.9-0.1-1.2-0.2l-0.8,0.8c0.1,0.1,0.3,0.2,0.4,0.2c0.2,0.1,0.4,0.1,0.8,0.2
				c0.3,0,0.8,0.1,1.4,0.1c1.1,0.1,1.8,0.3,2.3,0.7c0.5,0.4,0.7,1,0.7,1.6c0,0.5-0.1,0.9-0.4,1.3c-0.2,0.4-0.6,0.8-1.1,1
				c-0.5,0.3-1.2,0.4-2,0.4c-0.7,0-1.3-0.1-1.9-0.3s-1-0.5-1.3-0.8s-0.5-0.9-0.5-1.4c0-0.3,0.1-0.6,0.2-1c0.2-0.3,0.5-0.7,0.9-1
				c-0.2-0.1-0.4-0.2-0.6-0.3s-0.3-0.2-0.5-0.4v-0.4l1.4-1.3c-0.6-0.5-0.9-1.2-0.9-2.1c0-0.5,0.1-1,0.4-1.4c0.2-0.4,0.6-0.8,1.1-1
				s1-0.4,1.7-0.4c0.5,0,0.9,0.1,1.2,0.2h2.9v1l-1.5,0.1c0.3,0.5,0.5,1,0.5,1.5c0,0.5-0.1,1-0.4,1.4c-0.2,0.4-0.6,0.8-1.1,1
				C205,67.2,204.4,67.3,203.8,67.3z M201.4,70.8c0,0.5,0.2,0.9,0.7,1.2c0.4,0.3,1,0.4,1.7,0.4s1.2-0.1,1.6-0.4
				c0.4-0.3,0.6-0.7,0.6-1.1c0-0.3-0.1-0.6-0.4-0.9s-0.8-0.4-1.5-0.4c-0.6,0-1.1-0.1-1.5-0.2c-0.4,0.2-0.7,0.5-0.9,0.8
				C201.5,70.4,201.4,70.6,201.4,70.8z M203.8,66.2c0.6,0,1-0.2,1.3-0.4c0.3-0.3,0.5-0.7,0.5-1.3c0-0.5-0.2-1-0.5-1.3
				s-0.8-0.4-1.3-0.4c-0.6,0-1,0.2-1.4,0.4c-0.3,0.3-0.5,0.7-0.5,1.3c0,0.6,0.2,1,0.5,1.3C202.7,66.1,203.2,66.2,203.8,66.2z"/>
			<path class="st1" d="M209.5,69.8v-7.9h1.2l0.1,1.5c0.2-0.5,0.6-0.9,1.1-1.2s1.1-0.5,1.9-0.5v1.4h-0.4c-0.5,0-0.9,0.1-1.3,0.2
				c-0.4,0.2-0.7,0.4-0.9,0.8c-0.2,0.4-0.3,0.9-0.3,1.6v4h-1.4V69.8z"/>
			<path class="st1" d="M217.9,70c-0.7,0-1.2-0.1-1.6-0.3c-0.4-0.2-0.8-0.5-1-0.9S215,68,215,67.6c0-0.8,0.3-1.4,0.9-1.9
				c0.6-0.4,1.5-0.7,2.5-0.7h2.1v-0.1c0-0.7-0.2-1.2-0.5-1.6c-0.4-0.4-0.9-0.5-1.5-0.5c-0.5,0-1,0.1-1.4,0.4s-0.6,0.6-0.7,1.1H215
				c0-0.6,0.2-1.1,0.6-1.5c0.3-0.4,0.8-0.7,1.3-0.9c0.5-0.2,1-0.3,1.6-0.3c1.1,0,1.9,0.3,2.5,0.9s0.8,1.4,0.8,2.4v4.9h-1.2l-0.1-1.4
				c-0.2,0.5-0.6,0.8-1,1.1C219.2,69.8,218.6,70,217.9,70z M218.1,68.9c0.5,0,0.9-0.1,1.3-0.4c0.4-0.3,0.7-0.6,0.8-1
				c0.2-0.4,0.3-0.9,0.3-1.3l0,0h-2c-0.8,0-1.4,0.1-1.7,0.4s-0.5,0.6-0.5,1s0.1,0.8,0.5,1C217.1,68.7,217.6,68.9,218.1,68.9z"/>
			<path class="st1" d="M223.9,69.8v-7.9h1.2l0.1,1.2c0.3-0.4,0.6-0.8,1-1s0.9-0.3,1.4-0.3c0.6,0,1.2,0.1,1.6,0.4
				c0.4,0.3,0.8,0.7,1.1,1.2c0.3-0.5,0.7-0.9,1.1-1.1c0.5-0.3,1-0.4,1.6-0.4c0.9,0,1.7,0.3,2.3,0.9s0.9,1.5,0.9,2.6V70h-1.3v-4.7
				c0-0.8-0.2-1.4-0.5-1.9c-0.3-0.4-0.8-0.6-1.4-0.6c-0.6,0-1.2,0.2-1.6,0.7c-0.4,0.5-0.6,1.2-0.6,2.1v4.1h-1.3v-4.4
				c0-0.8-0.2-1.4-0.5-1.9s-0.8-0.6-1.4-0.6c-0.6,0-1.2,0.2-1.6,0.7c-0.4,0.5-0.6,1.2-0.6,2.1v4.1L223.9,69.8L223.9,69.8z"/>
			<path class="st1" d="M244.1,69.8l-2.3-7.9h1.3l1.7,6.2l1.9-6.2h1.5l1.9,6.2l1.7-6.2h1.4l-2.3,7.9h-1.4l-1.9-6.5l-2,6.5H244.1z"/>
			<path class="st1" d="M255.4,60.1c-0.3,0-0.5-0.1-0.7-0.3c-0.2-0.2-0.3-0.4-0.3-0.7s0.1-0.5,0.3-0.6c0.2-0.2,0.4-0.3,0.7-0.3
				s0.5,0.1,0.7,0.3s0.3,0.4,0.3,0.6c0,0.3-0.1,0.5-0.3,0.7S255.6,60.1,255.4,60.1z M254.7,69.8v-7.9h1.3v7.9H254.7z"/>
			<path class="st1" d="M258.4,69.8V58.3h1.3v11.5H258.4z"/>
			<path class="st1" d="M261.9,69.8V58.3h1.3v11.5H261.9z"/>
			<path class="st1" d="M272.9,67.3c-0.4,0-0.9-0.1-1.2-0.2l-0.8,0.8c0.1,0.1,0.3,0.2,0.4,0.2c0.2,0.1,0.4,0.1,0.8,0.2
				c0.3,0,0.8,0.1,1.4,0.1c1.1,0.1,1.8,0.3,2.3,0.7c0.5,0.4,0.7,1,0.7,1.6c0,0.5-0.1,0.9-0.4,1.3c-0.2,0.4-0.6,0.8-1.1,1
				c-0.5,0.3-1.2,0.4-2,0.4c-0.7,0-1.4-0.1-1.9-0.3c-0.6-0.2-1-0.5-1.3-0.8s-0.5-0.9-0.5-1.4c0-0.3,0.1-0.6,0.2-1
				c0.2-0.3,0.5-0.7,0.9-1c-0.2-0.1-0.4-0.2-0.6-0.3c-0.2-0.1-0.3-0.2-0.5-0.4v-0.4l1.4-1.3c-0.6-0.5-0.9-1.2-0.9-2.1
				c0-0.5,0.1-1,0.4-1.4c0.2-0.4,0.6-0.8,1.1-1s1-0.4,1.7-0.4c0.5,0,0.9,0.1,1.2,0.2h2.9v1l-1.5,0.1c0.3,0.5,0.5,1,0.5,1.5
				c0,0.5-0.1,1-0.4,1.4c-0.2,0.4-0.6,0.8-1.1,1C274.1,67.2,273.5,67.3,272.9,67.3z M270.5,70.8c0,0.5,0.2,0.9,0.7,1.2
				c0.5,0.3,1,0.4,1.7,0.4s1.2-0.1,1.6-0.4s0.6-0.7,0.6-1.1c0-0.3-0.1-0.6-0.4-0.9c-0.3-0.2-0.8-0.4-1.5-0.4c-0.6,0-1.1-0.1-1.5-0.2
				c-0.4,0.2-0.7,0.5-0.9,0.8C270.6,70.4,270.5,70.6,270.5,70.8z M272.9,66.2c0.6,0,1-0.2,1.4-0.4c0.3-0.3,0.5-0.7,0.5-1.3
				c0-0.5-0.2-1-0.5-1.3s-0.8-0.4-1.4-0.4s-1,0.2-1.4,0.4s-0.5,0.7-0.5,1.3c0,0.6,0.2,1,0.5,1.3S272.3,66.2,272.9,66.2z"/>
			<path class="st1" d="M279.4,60.1c-0.3,0-0.5-0.1-0.7-0.3c-0.2-0.2-0.3-0.4-0.3-0.7s0.1-0.5,0.3-0.6c0.2-0.2,0.4-0.3,0.7-0.3
				s0.5,0.1,0.7,0.3s0.3,0.4,0.3,0.6c0,0.3-0.1,0.5-0.3,0.7S279.6,60.1,279.4,60.1z M278.7,69.8v-7.9h1.3v7.9H278.7z"/>
			<path class="st1" d="M284.7,69.8l-3-7.9h1.4l2.4,6.6l2.4-6.6h1.4l-3,7.9H284.7z"/>
			<path class="st1" d="M293.9,70c-0.8,0-1.4-0.2-2-0.5s-1-0.8-1.4-1.5c-0.3-0.6-0.5-1.3-0.5-2.2c0-0.8,0.2-1.6,0.5-2.2
				c0.3-0.6,0.8-1.1,1.4-1.5s1.3-0.5,2.1-0.5c0.8,0,1.4,0.2,2,0.5s1,0.8,1.3,1.4c0.3,0.6,0.4,1.2,0.4,1.8c0,0.1,0,0.2,0,0.3
				c0,0.1,0,0.2,0,0.4h-6.3c0,0.6,0.2,1.1,0.4,1.5c0.2,0.4,0.6,0.7,0.9,0.9c0.4,0.2,0.8,0.3,1.2,0.3c0.5,0,1-0.1,1.4-0.4
				s0.7-0.6,0.8-1h1.3c-0.2,0.7-0.6,1.3-1.2,1.8C295.6,69.8,294.8,70,293.9,70z M293.9,62.8c-0.6,0-1.2,0.2-1.7,0.6s-0.8,1-0.9,1.7
				h5c0-0.7-0.3-1.3-0.7-1.7C295.1,63,294.6,62.8,293.9,62.8z"/>
			<path class="st1" d="M176.8,95.3l2-4.3h-0.5l-3.2-7.2h1.5l2.6,6.2l2.8-6.2h1.4l-5.2,11.5H176.8z"/>
			<path class="st1" d="M187.7,92c-0.8,0-1.4-0.2-2-0.5s-1.1-0.8-1.4-1.5c-0.4-0.6-0.5-1.4-0.5-2.2c0-0.8,0.2-1.6,0.5-2.2
				s0.8-1.1,1.4-1.5c0.6-0.3,1.3-0.5,2-0.5s1.4,0.2,2,0.5s1.1,0.8,1.4,1.5c0.4,0.6,0.5,1.4,0.5,2.2c0,0.8-0.2,1.6-0.5,2.2
				c-0.4,0.6-0.8,1.1-1.4,1.5C189.1,91.8,188.5,92,187.7,92z M187.7,90.8c0.5,0,0.9-0.1,1.3-0.3c0.4-0.2,0.7-0.6,1-1s0.4-1,0.4-1.7
				s-0.1-1.2-0.4-1.7c-0.2-0.4-0.6-0.8-1-1s-0.8-0.3-1.3-0.3s-0.9,0.1-1.3,0.3c-0.4,0.2-0.7,0.6-1,1s-0.4,1-0.4,1.7s0.1,1.2,0.4,1.7
				s0.6,0.8,1,1C186.8,90.7,187.3,90.8,187.7,90.8z"/>
			<path class="st1" d="M196.5,92c-0.9,0-1.7-0.3-2.2-0.9s-0.8-1.5-0.8-2.6v-4.6h1.3v4.5c0,1.7,0.7,2.5,2,2.5c0.7,0,1.3-0.2,1.7-0.7
				s0.7-1.2,0.7-2.1V84h1.3v7.9h-1.2l-0.1-1.4c-0.2,0.5-0.6,0.9-1.1,1.2C197.6,91.9,197.1,92,196.5,92z"/>
			<path class="st1" d="M210,92c-0.9,0-1.7-0.2-2.4-0.7c-0.6-0.5-1-1.1-1.1-1.9h1.4c0.1,0.4,0.3,0.8,0.7,1.1
				c0.4,0.3,0.8,0.5,1.4,0.5c0.6,0,1-0.1,1.2-0.4c0.3-0.2,0.4-0.5,0.4-0.9c0-0.5-0.2-0.8-0.5-1s-0.8-0.3-1.5-0.4
				c-0.4-0.1-0.9-0.2-1.3-0.4c-0.4-0.2-0.8-0.4-1.1-0.7c-0.3-0.3-0.4-0.7-0.4-1.2c0-0.7,0.3-1.3,0.8-1.7s1.2-0.7,2.1-0.7
				c0.8,0,1.5,0.2,2.1,0.6s0.9,1,0.9,1.8h-1.2c-0.1-0.4-0.2-0.7-0.5-1c-0.3-0.2-0.7-0.3-1.2-0.3s-0.9,0.1-1.1,0.3
				c-0.3,0.2-0.4,0.5-0.4,0.8s0.2,0.6,0.5,0.8s0.8,0.3,1.4,0.5c0.5,0.1,1,0.2,1.4,0.4c0.4,0.2,0.8,0.4,1.1,0.7
				c0.3,0.3,0.4,0.7,0.4,1.3c0,0.7-0.3,1.3-0.8,1.8C211.7,91.8,210.9,92,210,92z"/>
			<path class="st1" d="M215.8,82.1c-0.3,0-0.5-0.1-0.7-0.3c-0.2-0.2-0.3-0.4-0.3-0.7s0.1-0.5,0.3-0.6c0.2-0.2,0.4-0.3,0.7-0.3
				s0.5,0.1,0.7,0.3c0.2,0.2,0.3,0.4,0.3,0.6c0,0.3-0.1,0.5-0.3,0.7C216.2,82,216,82.1,215.8,82.1z M215.1,91.8v-7.9h1.3v7.9H215.1z
				"/>
			<path class="st1" d="M218.8,91.8v-7.9h1.2l0.1,1.2c0.3-0.4,0.6-0.8,1-1s0.9-0.3,1.4-0.3c0.6,0,1.2,0.1,1.6,0.4
				c0.5,0.3,0.8,0.7,1.1,1.2c0.3-0.5,0.7-0.9,1.1-1.1c0.5-0.3,1-0.4,1.6-0.4c0.9,0,1.7,0.3,2.3,0.9s0.9,1.5,0.9,2.6V92h-1.3v-4.7
				c0-0.8-0.2-1.4-0.5-1.9s-0.8-0.6-1.4-0.6c-0.6,0-1.2,0.2-1.6,0.7c-0.4,0.5-0.6,1.2-0.6,2.1v4.1h-1.3v-4.4c0-0.8-0.2-1.4-0.5-1.9
				s-0.8-0.6-1.4-0.6c-0.6,0-1.1,0.2-1.6,0.7c-0.4,0.5-0.6,1.2-0.6,2.1v4.1L218.8,91.8L218.8,91.8z"/>
			<path class="st1" d="M233.1,95.3V83.8h1.2l0.1,1.3c0.3-0.4,0.6-0.7,1.1-1s1.1-0.5,1.8-0.5c0.8,0,1.5,0.2,2.1,0.5
				c0.6,0.4,1,0.9,1.4,1.5c0.3,0.6,0.5,1.3,0.5,2.1c0,0.8-0.2,1.5-0.5,2.1s-0.8,1.1-1.4,1.5c-0.6,0.4-1.3,0.5-2.1,0.5
				c-0.6,0-1.2-0.1-1.7-0.4s-0.9-0.6-1.2-1.1v4.9h-1.3V95.3z M237.2,90.8c0.5,0,1-0.1,1.4-0.4c0.4-0.2,0.7-0.6,1-1.1
				c0.2-0.4,0.4-1,0.4-1.6s-0.1-1.1-0.4-1.6c-0.2-0.5-0.6-0.8-1-1.1c-0.4-0.2-0.9-0.4-1.4-0.4s-1,0.1-1.4,0.4s-0.7,0.6-1,1.1
				c-0.2,0.4-0.3,1-0.3,1.6s0.1,1.1,0.3,1.6s0.6,0.8,1,1.1S236.7,90.8,237.2,90.8z"/>
			<path class="st1" d="M243.1,91.8V80.3h1.3v11.5H243.1z"/>
			<path class="st1" d="M250.3,92c-0.8,0-1.4-0.2-2-0.5s-1-0.8-1.4-1.5c-0.3-0.6-0.5-1.3-0.5-2.2c0-0.8,0.2-1.6,0.5-2.2
				s0.8-1.1,1.4-1.5c0.6-0.4,1.3-0.5,2.1-0.5s1.4,0.2,2,0.5s1,0.8,1.3,1.4s0.5,1.2,0.5,1.8c0,0.1,0,0.2,0,0.3s0,0.2,0,0.4h-6.3
				c0,0.6,0.2,1.1,0.4,1.5s0.6,0.7,0.9,0.9c0.4,0.2,0.8,0.3,1.2,0.3c0.6,0,1-0.1,1.4-0.4s0.6-0.6,0.8-1h1.3
				c-0.2,0.7-0.6,1.3-1.2,1.8C252,91.8,251.2,92,250.3,92z M250.3,84.8c-0.6,0-1.2,0.2-1.7,0.6s-0.8,1-0.9,1.7h5
				c0-0.7-0.3-1.3-0.7-1.7C251.5,85,250.9,84.8,250.3,84.8z"/>
			<path class="st1" d="M262.7,92c-0.7,0-1.2-0.1-1.6-0.3c-0.4-0.2-0.8-0.5-1-0.9s-0.3-0.8-0.3-1.2c0-0.8,0.3-1.4,0.9-1.9
				c0.6-0.4,1.5-0.7,2.5-0.7h2.1v-0.1c0-0.7-0.2-1.2-0.5-1.6c-0.4-0.4-0.8-0.5-1.5-0.5c-0.5,0-1,0.1-1.4,0.4s-0.6,0.6-0.7,1.1h-1.4
				c0.1-0.6,0.2-1.1,0.6-1.5c0.3-0.4,0.8-0.7,1.3-0.9c0.5-0.2,1-0.3,1.6-0.3c1.1,0,1.9,0.3,2.5,0.9s0.8,1.4,0.8,2.4v4.9h-1.1
				l-0.1-1.4c-0.2,0.5-0.5,0.8-1,1.1C264,91.8,263.4,92,262.7,92z M262.9,90.9c0.5,0,0.9-0.1,1.3-0.4s0.6-0.6,0.8-1s0.3-0.9,0.3-1.3
				l0,0h-2c-0.8,0-1.4,0.1-1.7,0.4c-0.3,0.3-0.5,0.6-0.5,1s0.1,0.8,0.5,1C261.9,90.7,262.3,90.9,262.9,90.9z"/>
			<path class="st1" d="M268.7,91.8v-7.9h1.2l0.1,1.4c0.3-0.5,0.6-0.9,1.1-1.2c0.5-0.3,1-0.4,1.6-0.4c0.9,0,1.7,0.3,2.2,0.9
				s0.8,1.5,0.8,2.6v4.6h-1.2v-4.5c0-1.7-0.7-2.5-2.1-2.5c-0.7,0-1.2,0.2-1.7,0.7s-0.7,1.2-0.7,2.1v4.1L268.7,91.8L268.7,91.8z"/>
			<path class="st1" d="M281.4,92c-0.8,0-1.5-0.2-2.1-0.5c-0.6-0.4-1.1-0.9-1.4-1.5s-0.5-1.3-0.5-2.1c0-0.8,0.2-1.5,0.5-2.1
				s0.8-1.1,1.4-1.5s1.3-0.5,2.1-0.5c0.6,0,1.2,0.1,1.7,0.4s0.9,0.6,1.2,1.1v-5h1.3v11.5h-1.1l-0.1-1.3c-0.3,0.4-0.6,0.7-1.1,1
				S282.2,92,281.4,92z M281.6,90.8c0.5,0,1-0.1,1.4-0.4s0.7-0.6,1-1.1c0.2-0.4,0.3-1,0.3-1.6s-0.1-1.1-0.3-1.6
				c-0.2-0.5-0.6-0.8-1-1.1s-0.9-0.4-1.4-0.4s-1,0.1-1.4,0.4c-0.4,0.2-0.7,0.6-1,1.1c-0.2,0.4-0.3,1-0.3,1.6s0.1,1.1,0.3,1.6
				c0.2,0.5,0.6,0.8,1,1.1C280.6,90.7,281.1,90.8,281.6,90.8z"/>
			<path class="st1" d="M179,114c-1,0-1.7-0.2-2.4-0.7c-0.6-0.5-1-1.1-1.1-1.9h1.4c0.1,0.4,0.3,0.8,0.7,1.1c0.4,0.3,0.8,0.5,1.4,0.5
				c0.6,0,1-0.1,1.2-0.4c0.3-0.2,0.4-0.5,0.4-0.9c0-0.5-0.2-0.8-0.5-1c-0.4-0.2-0.8-0.3-1.5-0.4c-0.4-0.1-0.8-0.2-1.3-0.4
				c-0.4-0.2-0.8-0.4-1.1-0.7c-0.3-0.3-0.4-0.7-0.4-1.2c0-0.7,0.3-1.3,0.8-1.7c0.5-0.4,1.2-0.7,2.1-0.7c0.8,0,1.5,0.2,2.1,0.6
				c0.5,0.4,0.8,1,0.9,1.8h-1.2c-0.1-0.4-0.2-0.7-0.5-1c-0.3-0.2-0.7-0.3-1.2-0.3s-0.8,0.1-1.1,0.3c-0.3,0.2-0.4,0.5-0.4,0.8
				s0.2,0.6,0.5,0.8s0.8,0.3,1.4,0.5c0.5,0.1,1,0.2,1.4,0.4c0.4,0.2,0.8,0.4,1.1,0.7c0.3,0.3,0.4,0.7,0.4,1.3c0,0.7-0.3,1.3-0.8,1.8
				C180.7,113.8,179.9,114,179,114z"/>
			<path class="st1" d="M187.6,114c-0.8,0-1.4-0.2-2-0.5s-1.1-0.8-1.4-1.5c-0.4-0.6-0.5-1.4-0.5-2.2c0-0.8,0.2-1.6,0.5-2.2
				s0.8-1.1,1.4-1.5c0.6-0.4,1.3-0.5,2-0.5c0.9,0,1.7,0.2,2.4,0.7s1.1,1.2,1.2,2h-1.4c-0.1-0.5-0.4-0.9-0.8-1.1
				c-0.4-0.3-0.9-0.4-1.5-0.4c-0.4,0-0.9,0.1-1.3,0.3c-0.4,0.2-0.7,0.6-1,1s-0.4,1-0.4,1.7s0.1,1.2,0.4,1.7s0.6,0.8,1,1
				s0.8,0.3,1.3,0.3c0.6,0,1-0.1,1.5-0.4c0.4-0.3,0.7-0.7,0.8-1.2h1.4c-0.2,0.8-0.6,1.5-1.2,2C189.3,113.7,188.5,114,187.6,114z"/>
			<path class="st1" d="M193.9,104.1c-0.3,0-0.5-0.1-0.7-0.3c-0.2-0.2-0.3-0.4-0.3-0.7s0.1-0.5,0.3-0.6c0.2-0.2,0.4-0.3,0.7-0.3
				s0.5,0.1,0.7,0.3s0.3,0.4,0.3,0.6c0,0.3-0.1,0.5-0.3,0.7S194.1,104.1,193.9,104.1z M193.2,113.8v-7.9h1.3v7.9H193.2z"/>
			<path class="st1" d="M200.5,114c-0.8,0-1.4-0.2-2-0.5s-1.1-0.8-1.4-1.5c-0.3-0.6-0.5-1.3-0.5-2.2c0-0.8,0.2-1.6,0.5-2.2
				s0.8-1.1,1.4-1.5c0.6-0.4,1.3-0.5,2.1-0.5s1.4,0.2,2,0.5s1,0.8,1.3,1.4s0.4,1.2,0.4,1.8c0,0.1,0,0.2,0,0.3s0,0.2,0,0.4H198
				c0,0.6,0.2,1.1,0.4,1.5s0.6,0.7,0.9,0.9c0.4,0.2,0.8,0.3,1.2,0.3c0.5,0,1-0.1,1.4-0.4s0.6-0.6,0.8-1h1.3
				c-0.2,0.7-0.6,1.3-1.2,1.8C202.2,113.8,201.4,114,200.5,114z M200.5,106.8c-0.6,0-1.2,0.2-1.7,0.6s-0.8,1-0.9,1.7h5
				c0-0.7-0.3-1.3-0.7-1.7C201.7,107,201.1,106.8,200.5,106.8z"/>
			<path class="st1" d="M206,113.8v-7.9h1.2l0.1,1.4c0.3-0.5,0.6-0.9,1.1-1.2c0.5-0.3,1-0.4,1.6-0.4c0.9,0,1.7,0.3,2.2,0.9
				s0.8,1.5,0.8,2.6v4.6h-1.3v-4.5c0-1.7-0.7-2.5-2.1-2.5c-0.7,0-1.2,0.2-1.7,0.7c-0.4,0.5-0.7,1.2-0.7,2.1v4.1L206,113.8L206,113.8
				z"/>
			<path class="st1" d="M218.8,114c-0.8,0-1.4-0.2-2-0.5s-1.1-0.8-1.4-1.5c-0.3-0.6-0.5-1.4-0.5-2.2c0-0.8,0.2-1.6,0.5-2.2
				c0.4-0.6,0.8-1.1,1.4-1.5c0.6-0.4,1.3-0.5,2-0.5c0.9,0,1.7,0.2,2.4,0.7s1.1,1.2,1.2,2H221c-0.1-0.5-0.4-0.9-0.8-1.1
				c-0.4-0.3-0.9-0.4-1.5-0.4c-0.4,0-0.9,0.1-1.3,0.3c-0.4,0.2-0.7,0.6-1,1s-0.4,1-0.4,1.7s0.1,1.2,0.4,1.7s0.6,0.8,1,1
				s0.8,0.3,1.3,0.3c0.6,0,1-0.1,1.5-0.4c0.4-0.3,0.7-0.7,0.8-1.2h1.4c-0.2,0.8-0.6,1.5-1.2,2C220.5,113.7,219.7,114,218.8,114z"/>
			<path class="st1" d="M227.8,114c-0.8,0-1.4-0.2-2-0.5s-1.1-0.8-1.4-1.5c-0.3-0.6-0.5-1.3-0.5-2.2c0-0.8,0.2-1.6,0.5-2.2
				s0.8-1.1,1.4-1.5c0.6-0.4,1.3-0.5,2.1-0.5s1.4,0.2,2,0.5s1,0.8,1.3,1.4s0.4,1.2,0.4,1.8c0,0.1,0,0.2,0,0.3c0,0.1,0,0.2,0,0.4
				h-6.3c0,0.6,0.2,1.1,0.4,1.5s0.6,0.7,0.9,0.9c0.4,0.2,0.8,0.3,1.2,0.3c0.6,0,1-0.1,1.4-0.4s0.7-0.6,0.8-1h1.3
				c-0.2,0.7-0.6,1.3-1.2,1.8C229.5,113.8,228.8,114,227.8,114z M227.8,106.8c-0.6,0-1.2,0.2-1.7,0.6s-0.8,1-0.9,1.7h5
				c0-0.7-0.3-1.3-0.7-1.7C229.1,107,228.5,106.8,227.8,106.8z"/>
			<path class="st1" d="M233.2,109.7v-1.1h6.3v1.1H233.2z"/>
			<path class="st1" d="M245.8,114c-0.6,0-1.2-0.1-1.7-0.4s-0.9-0.6-1.2-1.1l-0.1,1.3h-1.2v-11.5h1.3v4.9c0.3-0.4,0.6-0.7,1.1-1
				s1.1-0.5,1.8-0.5c0.8,0,1.5,0.2,2.1,0.5c0.6,0.4,1,0.9,1.4,1.5c0.3,0.6,0.5,1.3,0.5,2.1s-0.2,1.5-0.5,2.1s-0.8,1.1-1.4,1.5
				C247.3,113.8,246.6,114,245.8,114z M245.7,112.8c0.5,0,1-0.1,1.4-0.4s0.7-0.6,1-1.1c0.2-0.4,0.4-1,0.4-1.6s-0.1-1.1-0.4-1.6
				c-0.2-0.5-0.5-0.8-1-1.1s-0.9-0.4-1.4-0.4s-1,0.1-1.4,0.4s-0.7,0.6-1,1.1c-0.2,0.4-0.4,1-0.4,1.6s0.1,1.1,0.4,1.6
				c0.2,0.5,0.5,0.8,1,1.1C244.7,112.7,245.1,112.8,245.7,112.8z"/>
			<path class="st1" d="M254.3,114c-0.7,0-1.2-0.1-1.6-0.3c-0.4-0.2-0.8-0.5-1-0.9s-0.3-0.8-0.3-1.2c0-0.8,0.3-1.4,0.9-1.9
				s1.5-0.7,2.5-0.7h2.1v-0.1c0-0.7-0.2-1.2-0.5-1.6c-0.4-0.4-0.9-0.5-1.5-0.5c-0.5,0-1,0.1-1.4,0.4s-0.6,0.6-0.7,1.1h-1.3
				c0-0.6,0.2-1.1,0.6-1.5c0.3-0.4,0.8-0.7,1.3-0.9c0.5-0.2,1-0.3,1.6-0.3c1.1,0,1.9,0.3,2.5,0.9s0.8,1.4,0.8,2.4v4.9h-1.2l-0.1-1.4
				c-0.2,0.5-0.6,0.8-1,1.1C255.6,113.8,255,114,254.3,114z M254.5,112.9c0.5,0,0.9-0.1,1.3-0.4s0.7-0.6,0.8-1
				c0.2-0.4,0.3-0.9,0.3-1.3l0,0h-2c-0.8,0-1.4,0.1-1.7,0.4s-0.5,0.6-0.5,1s0.2,0.8,0.5,1C253.5,112.7,253.9,112.9,254.5,112.9z"/>
			<path class="st1" d="M263.9,114c-0.8,0-1.4-0.2-2-0.5s-1.1-0.8-1.4-1.5c-0.4-0.6-0.5-1.4-0.5-2.2c0-0.8,0.2-1.6,0.5-2.2
				s0.8-1.1,1.4-1.5s1.3-0.5,2-0.5c0.9,0,1.7,0.2,2.4,0.7s1,1.2,1.2,2h-1.4c-0.1-0.5-0.4-0.9-0.8-1.1c-0.4-0.3-0.9-0.4-1.5-0.4
				c-0.5,0-0.9,0.1-1.3,0.3c-0.4,0.2-0.7,0.6-1,1s-0.4,1-0.4,1.7s0.1,1.2,0.4,1.7s0.6,0.8,1,1s0.8,0.3,1.3,0.3s1-0.1,1.5-0.4
				c0.4-0.3,0.7-0.7,0.8-1.2h1.4c-0.2,0.8-0.6,1.5-1.2,2C265.7,113.7,264.9,114,263.9,114z"/>
			<path class="st1" d="M269.4,113.8v-11.5h1.3v6.9l3.2-3.3h1.7l-3.5,3.6l4,4.3h-1.7l-3.6-4.1v4.1H269.4z"/>
			<path class="st1" d="M280.5,114c-0.8,0-1.4-0.2-2-0.5s-1-0.8-1.4-1.5c-0.3-0.6-0.5-1.3-0.5-2.2c0-0.8,0.2-1.6,0.5-2.2
				s0.8-1.1,1.4-1.5s1.3-0.5,2.1-0.5c0.8,0,1.4,0.2,2,0.5s1,0.8,1.3,1.4s0.5,1.2,0.5,1.8c0,0.1,0,0.2,0,0.3s0,0.2,0,0.4h-6.3
				c0,0.6,0.2,1.1,0.4,1.5c0.2,0.4,0.6,0.7,0.9,0.9c0.4,0.2,0.8,0.3,1.2,0.3c0.6,0,1-0.1,1.4-0.4s0.6-0.6,0.8-1h1.3
				c-0.2,0.7-0.6,1.3-1.2,1.8C282.2,113.8,281.4,114,280.5,114z M280.5,106.8c-0.6,0-1.2,0.2-1.7,0.6s-0.8,1-0.9,1.7h5
				c0-0.7-0.3-1.3-0.7-1.7C281.7,107,281.1,106.8,280.5,106.8z"/>
			<path class="st1" d="M289.6,114c-0.8,0-1.5-0.2-2.1-0.5c-0.6-0.4-1-0.9-1.4-1.5c-0.3-0.6-0.5-1.3-0.5-2.1c0-0.8,0.2-1.5,0.5-2.1
				s0.8-1.1,1.4-1.5s1.3-0.5,2.1-0.5c0.6,0,1.2,0.1,1.7,0.4s0.9,0.6,1.2,1.1v-5h1.3v11.5h-1.2l-0.1-1.3c-0.3,0.4-0.6,0.7-1.1,1
				S290.3,114,289.6,114z M289.7,112.8c0.5,0,1-0.1,1.4-0.4s0.7-0.6,1-1.1c0.2-0.4,0.3-1,0.3-1.6s-0.1-1.1-0.3-1.6
				c-0.2-0.5-0.5-0.8-1-1.1s-0.9-0.4-1.4-0.4s-1,0.1-1.4,0.4s-0.7,0.6-1,1.1c-0.2,0.4-0.3,1-0.3,1.6s0.1,1.1,0.3,1.6
				c0.2,0.5,0.5,0.8,1,1.1S289.2,112.8,289.7,112.8z"/>
			<path class="st1" d="M179.1,135.8c-0.7,0-1.3-0.2-1.7-0.5s-0.6-1-0.6-1.9V129h-1.4v-1.1h1.4l0.2-1.9h1.2v1.9h2.3v1.1h-2.3v4.4
				c0,0.5,0.1,0.8,0.3,1s0.6,0.3,1.1,0.3h0.8v1.2h-1.3V135.8z"/>
			<path class="st1" d="M183,126.1c-0.3,0-0.5-0.1-0.7-0.3c-0.2-0.2-0.3-0.4-0.3-0.7s0.1-0.5,0.3-0.6c0.2-0.2,0.4-0.3,0.7-0.3
				s0.5,0.1,0.7,0.3s0.3,0.4,0.3,0.6c0,0.3-0.1,0.5-0.3,0.7C183.4,126,183.2,126.1,183,126.1z M182.3,135.8v-7.9h1.3v7.9H182.3z"/>
			<path class="st1" d="M186,139.3v-11.5h1.2l0.1,1.3c0.3-0.4,0.6-0.7,1.1-1c0.5-0.3,1.1-0.5,1.8-0.5c0.8,0,1.5,0.2,2.1,0.5
				c0.6,0.4,1,0.9,1.4,1.5s0.5,1.3,0.5,2.1c0,0.8-0.2,1.5-0.5,2.1s-0.8,1.1-1.4,1.5c-0.6,0.4-1.3,0.5-2.1,0.5
				c-0.6,0-1.2-0.1-1.7-0.4s-0.9-0.6-1.2-1.1v4.9L186,139.3L186,139.3z M190.1,134.8c0.5,0,1-0.1,1.4-0.4s0.7-0.6,1-1.1
				c0.2-0.4,0.4-1,0.4-1.6s-0.1-1.1-0.4-1.6c-0.2-0.5-0.5-0.8-1-1.1s-0.9-0.4-1.4-0.4s-1,0.1-1.4,0.4c-0.4,0.2-0.7,0.6-1,1.1
				c-0.2,0.4-0.4,1-0.4,1.6s0.1,1.1,0.4,1.6c0.2,0.5,0.6,0.8,1,1.1C189.1,134.7,189.5,134.8,190.1,134.8z"/>
			<path class="st1" d="M199,136c-0.9,0-1.7-0.2-2.4-0.7c-0.6-0.5-1-1.1-1.1-1.9h1.4c0.1,0.4,0.3,0.8,0.7,1.1
				c0.4,0.3,0.8,0.5,1.5,0.5c0.6,0,1-0.1,1.2-0.4c0.3-0.2,0.4-0.5,0.4-0.9c0-0.5-0.2-0.8-0.5-1s-0.8-0.3-1.5-0.4
				c-0.4-0.1-0.9-0.2-1.3-0.4c-0.4-0.2-0.8-0.4-1.1-0.7c-0.3-0.3-0.4-0.7-0.4-1.2c0-0.7,0.3-1.3,0.8-1.7c0.5-0.4,1.2-0.7,2.1-0.7
				c0.8,0,1.5,0.2,2.1,0.6c0.5,0.4,0.8,1,0.9,1.8h-1.3c-0.1-0.4-0.2-0.7-0.5-1c-0.3-0.2-0.7-0.3-1.2-0.3s-0.9,0.1-1.1,0.3
				c-0.3,0.2-0.4,0.5-0.4,0.8s0.2,0.6,0.5,0.8c0.3,0.2,0.8,0.3,1.4,0.5c0.5,0.1,1,0.2,1.4,0.4c0.4,0.2,0.8,0.4,1.1,0.7
				c0.3,0.3,0.4,0.7,0.4,1.3c0,0.7-0.3,1.3-0.8,1.8C200.7,135.8,200,136,199,136z"/>
			<path class="st1" d="M211.4,135.8c-0.7,0-1.3-0.2-1.7-0.5s-0.6-1-0.6-1.9V129h-1.4v-1.1h1.4l0.2-1.9h1.2v1.9h2.3v1.1h-2.3v4.4
				c0,0.5,0.1,0.8,0.3,1s0.6,0.3,1.1,0.3h0.8v1.2h-1.3V135.8z"/>
			<path class="st1" d="M217.8,136c-0.8,0-1.4-0.2-2-0.5s-1.1-0.8-1.4-1.5c-0.3-0.6-0.5-1.4-0.5-2.2c0-0.8,0.2-1.6,0.5-2.2
				s0.8-1.1,1.4-1.5c0.6-0.3,1.3-0.5,2-0.5s1.4,0.2,2,0.5c0.6,0.3,1.1,0.8,1.4,1.5c0.3,0.6,0.5,1.4,0.5,2.2c0,0.8-0.2,1.6-0.5,2.2
				s-0.8,1.1-1.4,1.5C219.3,135.8,218.6,136,217.8,136z M217.8,134.8c0.5,0,0.9-0.1,1.3-0.3c0.4-0.2,0.7-0.6,1-1s0.4-1,0.4-1.7
				s-0.1-1.2-0.4-1.7c-0.2-0.4-0.6-0.8-0.9-1c-0.4-0.2-0.8-0.3-1.3-0.3s-0.9,0.1-1.3,0.3c-0.4,0.2-0.7,0.6-1,1s-0.4,1-0.4,1.7
				s0.1,1.2,0.4,1.7s0.6,0.8,0.9,1C217,134.7,217.4,134.8,217.8,134.8z"/>
			<path class="st1" d="M231.1,133.3c-0.5,0-0.9-0.1-1.2-0.2l-0.8,0.8c0.1,0.1,0.3,0.2,0.4,0.2c0.2,0.1,0.4,0.1,0.8,0.2
				c0.3,0,0.8,0.1,1.4,0.1c1.1,0.1,1.8,0.3,2.3,0.7c0.5,0.4,0.7,1,0.7,1.6c0,0.5-0.1,0.9-0.4,1.3c-0.2,0.4-0.6,0.8-1.2,1
				c-0.5,0.3-1.2,0.4-2,0.4c-0.7,0-1.3-0.1-1.9-0.3s-1-0.5-1.3-0.8s-0.5-0.9-0.5-1.4c0-0.3,0.1-0.6,0.2-1c0.2-0.3,0.5-0.7,0.9-1
				c-0.2-0.1-0.4-0.2-0.6-0.3s-0.3-0.2-0.5-0.4v-0.4l1.4-1.3c-0.6-0.5-0.9-1.2-0.9-2.1c0-0.5,0.1-1,0.4-1.4c0.2-0.4,0.6-0.8,1.1-1
				c0.5-0.2,1-0.4,1.7-0.4c0.5,0,0.9,0.1,1.2,0.2h2.9v1l-1.5,0.1c0.3,0.5,0.5,1,0.5,1.5s-0.1,1-0.4,1.4c-0.2,0.4-0.6,0.8-1.1,1
				C232.3,133.2,231.7,133.3,231.1,133.3z M228.7,136.8c0,0.5,0.2,0.9,0.7,1.2s1,0.4,1.7,0.4s1.2-0.1,1.6-0.4
				c0.4-0.3,0.6-0.7,0.6-1.1c0-0.3-0.1-0.6-0.4-0.9s-0.8-0.4-1.5-0.4c-0.6,0-1.1-0.1-1.5-0.2c-0.4,0.2-0.7,0.5-0.9,0.8
				C228.8,136.4,228.7,136.6,228.7,136.8z M231.1,132.2c0.6,0,1-0.2,1.3-0.4c0.3-0.3,0.5-0.7,0.5-1.3c0-0.5-0.2-1-0.5-1.3
				s-0.8-0.4-1.3-0.4c-0.6,0-1,0.2-1.4,0.4s-0.5,0.7-0.5,1.3s0.2,1,0.5,1.3C230,132.1,230.5,132.2,231.1,132.2z"/>
			<path class="st1" d="M240,136c-0.8,0-1.4-0.2-2-0.5s-1-0.8-1.4-1.5c-0.3-0.6-0.5-1.3-0.5-2.2c0-0.8,0.2-1.6,0.5-2.2
				s0.8-1.1,1.4-1.5c0.6-0.4,1.3-0.5,2.1-0.5s1.4,0.2,2,0.5c0.6,0.3,1,0.8,1.3,1.4s0.5,1.2,0.5,1.8c0,0.1,0,0.2,0,0.3
				c0,0.1,0,0.2,0,0.4h-6.3c0,0.6,0.2,1.1,0.4,1.5s0.6,0.7,0.9,0.9c0.4,0.2,0.8,0.3,1.2,0.3c0.5,0,1-0.1,1.4-0.4s0.6-0.6,0.8-1h1.3
				c-0.2,0.7-0.6,1.3-1.2,1.8C241.7,135.8,240.9,136,240,136z M240,128.8c-0.6,0-1.2,0.2-1.7,0.6s-0.8,1-0.9,1.7h5
				c0-0.7-0.3-1.3-0.7-1.7C241.2,129,240.7,128.8,240,128.8z"/>
			<path class="st1" d="M248.4,135.8c-0.7,0-1.3-0.2-1.7-0.5s-0.6-1-0.6-1.9V129h-1.4v-1.1h1.4l0.2-1.9h1.2v1.9h2.3v1.1h-2.3v4.4
				c0,0.5,0.1,0.8,0.3,1s0.6,0.3,1.1,0.3h0.8v1.2h-1.3V135.8z"/>
			<path class="st1" d="M256.6,139.3l2-4.3h-0.5l-3.1-7.2h1.5l2.6,6.2l2.8-6.2h1.4l-5.2,11.5H256.6z"/>
			<path class="st1" d="M267.5,136c-0.8,0-1.4-0.2-2-0.5s-1.1-0.8-1.4-1.5c-0.4-0.6-0.5-1.4-0.5-2.2c0-0.8,0.2-1.6,0.5-2.2
				s0.8-1.1,1.4-1.5c0.6-0.3,1.3-0.5,2-0.5s1.4,0.2,2,0.5c0.6,0.3,1.1,0.8,1.4,1.5c0.4,0.6,0.5,1.4,0.5,2.2c0,0.8-0.2,1.6-0.5,2.2
				c-0.4,0.6-0.8,1.1-1.4,1.5C268.9,135.8,268.2,136,267.5,136z M267.5,134.8c0.5,0,0.9-0.1,1.3-0.3c0.4-0.2,0.7-0.6,1-1
				s0.4-1,0.4-1.7s-0.1-1.2-0.4-1.7s-0.6-0.8-1-1s-0.8-0.3-1.3-0.3s-0.9,0.1-1.3,0.3c-0.4,0.2-0.7,0.6-1,1s-0.4,1-0.4,1.7
				s0.1,1.2,0.4,1.7s0.6,0.8,1,1C266.6,134.7,267,134.8,267.5,134.8z"/>
			<path class="st1" d="M276.2,136c-0.9,0-1.7-0.3-2.2-0.9c-0.6-0.6-0.8-1.5-0.8-2.6v-4.6h1.3v4.5c0,1.7,0.7,2.5,2,2.5
				c0.7,0,1.3-0.2,1.7-0.7c0.5-0.5,0.7-1.2,0.7-2.1V128h1.3v7.9H279l-0.1-1.4c-0.2,0.5-0.6,0.9-1.1,1.2
				C277.4,135.9,276.8,136,276.2,136z"/>
			<path class="st2" d="M179.2,148.4c0.3-0.2,0.7-0.2,1.2-0.2c0.3,0,0.6,0,0.8,0c0.8,0.1,1.4,0.2,1.7,0.3s0.6,0.4,0.8,0.8
				c0.3,0.5,0.4,0.9,0.4,1.3c0,0.5-0.2,0.9-0.6,1.3c-0.3,0.3-0.7,0.5-1,0.5c-0.4,0-0.7-0.2-1.1-0.7c-0.2-0.4-0.5-0.5-0.8-0.5
				c-0.2,0-0.5,0.2-0.7,0.5s-0.4,0.7-0.4,1.2v0.2c0,1.5,1.2,4.4,3.5,8.5c0.4,0.7,0.8,1.9,1.1,3.7c0,0.1,0,0.3,0,0.6
				c0,1.5-0.3,2.7-1,3.6c-0.3,0.4-0.7,0.7-1.4,1c-0.6,0.3-1.2,0.4-1.7,0.4c-0.1,0-0.1,0-0.2,0c-0.1,0-0.1,0-0.2,0
				c-0.6-0.1-1.4-0.6-2.3-1.5c-0.9-0.8-1.4-1.5-1.4-2c0-0.2,0.1-0.5,0.5-0.8c0.3-0.3,0.6-0.5,0.9-0.5c0.1,0,0.2,0,0.3,0
				c0.3,0,0.8,0.5,1.5,1.3c0.2,0.4,0.5,0.5,0.8,0.5s0.5-0.2,0.6-0.5c0.1-0.1,0.1-0.3,0.1-0.6c0-1.6-0.7-4-2.2-7.1
				c-1.3-2.9-2-5.1-2-6.5c0-0.6,0.1-1.2,0.3-1.7c0.5-1.1,0.8-1.8,1.1-2.2C178.2,149.1,178.6,148.8,179.2,148.4z"/>
			<path class="st2" d="M189.3,147.9c0.4-0.3,1-0.5,1.9-0.5h1c1.5,0.1,2.4,0.1,2.7,0.2c0.2,0.1,0.6,0.1,1.2,0.1
				c0.6,0,1.1,0.2,1.4,0.4c0.3,0.2,0.4,0.6,0.4,1.1s-0.1,0.9-0.3,1.1c-0.2,0.2-0.5,0.4-1,0.5c-0.6,0.1-0.9,0.2-1,0.3s-0.2,2.8-0.2,8
				c0,3.6,0,6.1,0.1,7.6c0.1,1.2,0.1,1.8,0.1,1.9c0,0.6-0.1,1.1-0.4,1.5c-0.3,0.6-0.8,0.8-1.4,0.8c-0.4,0-0.8-0.1-1.3-0.4l-0.8-0.5
				l0.1-9.6c0.1-2.5,0.1-4.9,0.1-7.4c0-1.5-0.1-2.3-0.3-2.4c-0.3-0.2-0.6-0.2-0.6-0.2c-0.1,0-0.3,0-0.5,0c-0.5,0-0.9-0.1-1.3-0.4
				c-0.3-0.3-0.5-0.6-0.5-1C188.6,148.6,188.8,148.2,189.3,147.9z"/>
			<path class="st2" d="M205.6,149.2c0.7-0.7,1.8-1.1,3.3-1.1c0.6,0,1.2,0.1,1.6,0.3c0.6,0.3,1,1.1,1.3,2.3c0.2,1.1,0.4,2.9,0.7,5.4
				c0.3,2.6,0.4,4.5,0.5,5.9c0,1.3,0.1,2.8,0.3,4.4c0.2,1.6,0.3,2.5,0.4,2.7c0,0,0,0.1,0,0.2c0,0.2-0.1,0.6-0.3,0.9
				c-0.2,0.4-0.4,0.6-0.6,0.6c-0.1,0-0.2,0-0.4,0c-0.4,0-0.9-0.1-1.4-0.3s-0.8-0.4-0.9-0.6c-0.1-0.2-0.2-1-0.4-2.3s-0.2-2.4-0.2-3.2
				s-0.1-1.2-0.2-1.3c-0.1-0.1-0.8-0.1-1.9-0.1c-0.9,0-1.4,0-1.5,0.1c0,0.1,0,0.3,0,0.5c0,0.6,0,1.3,0.1,2.3c0.1,1.1,0.1,2,0.1,2.7
				v0.4c0,0.2-0.2,0.4-0.6,0.5c-0.4,0.1-0.7,0.2-1.1,0.2c-0.2,0-0.3,0-0.4,0c-0.9-0.3-1.5-0.7-1.6-1.2c0,0,0-0.1,0-0.2
				c0-0.1,0-0.2,0-0.3c0-1.2,0.1-3.7,0.4-7.6s0.5-6.1,0.6-6.7c0.2-0.8,0.5-1.6,1-2.6C204.8,150.2,205.2,149.6,205.6,149.2z
				 M208.5,153.5c-0.2-0.8-0.4-1.2-0.6-1.2c-0.2,0-0.4,0.3-0.7,0.9c-0.5,1.1-0.9,2.7-1,4.6c-0.1,0.8-0.1,1.3-0.1,1.4
				c0,0.4,0.1,0.6,0.2,0.7c0.1,0.1,0.5,0.2,1.1,0.2c0.8,0,1.3-0.1,1.4-0.2c0.1-0.1,0.1-0.5,0.1-1.1
				C208.9,156.8,208.8,155.1,208.5,153.5z"/>
			<path class="st2" d="M219.2,148.2c0.5-0.2,1.1-0.2,1.9-0.2c0.8,0,1.5,0.1,1.9,0.2c0.7,0.3,1.3,0.9,1.7,1.7
				c0.2,0.4,0.3,1.1,0.5,2.2c0.1,1.1,0.2,2,0.2,2.9c0,0.4,0,0.7,0,0.8c-0.1,0.7-0.3,1.5-0.6,2.4s-0.5,1.3-0.6,1.3
				c-0.2,0-0.3,0.2-0.3,0.5s0.1,0.6,0.3,0.9c0.4,0.6,1.1,1.8,1.9,3.6c0.8,1.7,1.3,2.8,1.3,3.3c0,0.1,0,0.3,0,0.6
				c0,0.4-0.1,0.7-0.3,1s-0.5,0.5-0.8,0.5s-0.5,0-0.8,0c-0.7-0.1-1.1-0.2-1.3-0.3s-0.3-0.3-0.3-0.7c0-0.6-0.3-1.4-0.9-2.6
				c-0.6-1.2-1-1.7-1.3-1.7l0,0c-0.1,0.1-0.1,0.4-0.1,0.9c0,0.8,0.1,1.8,0.2,2.8c0.1,0.5,0.1,0.8,0.1,0.9c0,0.9-0.2,1.5-0.6,1.8
				c-0.2,0.1-0.4,0.1-0.7,0.1c-0.9,0-1.5-0.2-1.7-0.6c-0.1-0.2-0.2-2.1-0.3-5.7c0-1.1-0.1-2.4-0.1-3.7s0-2.3,0-2.9
				c0-0.6,0-1.4-0.1-2.4s-0.2-2-0.3-3.2c-0.1-1.3-0.2-2.1-0.2-2.3c0-0.7,0.1-1.1,0.3-1.4C218.4,148.5,218.7,148.3,219.2,148.2z
				 M221.9,151.3c-0.1-0.2-0.2-0.3-0.5-0.3c-0.2,0-0.3,0.1-0.4,0.3c-0.1,0.2-0.1,0.4,0,0.5c0,0,0.1,0.9,0.2,2.7
				c0.1,1.8,0.2,2.7,0.3,2.8s0.2-0.1,0.4-0.3s0.2-0.7,0.2-1.4c0-0.5,0-1,0-1.4C222.1,152.5,222,151.6,221.9,151.3z"/>
			<path class="st2" d="M232.6,147.9c0.4-0.3,1-0.5,1.9-0.5h1c1.5,0.1,2.4,0.1,2.7,0.2c0.2,0.1,0.6,0.1,1.2,0.1
				c0.6,0,1.1,0.2,1.4,0.4c0.3,0.2,0.4,0.6,0.4,1.1s-0.1,0.9-0.3,1.1c-0.2,0.2-0.6,0.4-1.1,0.5c-0.6,0.1-0.9,0.2-1,0.3
				s-0.2,2.8-0.2,8c0,3.6,0,6.1,0.1,7.6c0.1,1.2,0.1,1.8,0.1,1.9c0,0.6-0.1,1.1-0.4,1.5c-0.3,0.6-0.8,0.8-1.4,0.8
				c-0.4,0-0.8-0.1-1.3-0.4l-0.8-0.5l0.1-9.6c0.1-2.5,0.1-4.9,0.1-7.4c0-1.5-0.1-2.3-0.3-2.4c-0.3-0.2-0.6-0.2-0.6-0.2
				c-0.1,0-0.3,0-0.5,0c-0.5,0-0.9-0.1-1.3-0.4c-0.3-0.3-0.5-0.6-0.5-1C231.9,148.6,232.2,148.2,232.6,147.9z"/>
			<path class="st2" d="M247.4,149c0.3-0.1,0.8-0.1,1.3-0.1c1.5,0,2.5,0.2,2.9,0.5c0.3,0.2,0.4,0.6,0.4,0.9c0,0.4-0.1,0.7-0.4,0.9
				c-0.3,0.2-0.6,0.4-1.1,0.4c-0.4,0-0.7,0.1-0.8,0.3s-0.2,0.7-0.2,1.5c0,0.2,0,0.9,0.1,2.1c0.1,1.4,0.1,2.3,0.2,2.7
				c0.1,0.4,0.2,0.6,0.3,0.6c0,0,0.2,0,0.6,0s0.6,0,0.8,0c0.7,0,1.2,0.2,1.5,0.5c0.2,0.2,0.3,0.4,0.3,0.6c0,0.4-0.6,0.9-1.8,1.3
				c-0.7,0.2-1.1,0.4-1.3,0.6c-0.1,0.1-0.2,0.4-0.3,0.9s-0.1,0.8-0.1,1.2c0,1.4,0.1,2.5,0.4,3.2c0.1,0.3,0.2,0.5,0.4,0.5
				c0.1,0.1,0.4,0.1,0.9,0.1c0.6,0,1.1,0.1,1.5,0.4c0.4,0.3,0.6,0.6,0.6,0.9c0,0.2-0.2,0.6-0.6,1c-0.7,0.6-1.8,1-3.4,1
				c-1.6,0-2.7-0.4-3.2-1c-0.3-0.4-0.5-2.8-0.5-7.2c-0.1-5.5-0.1-8.8-0.2-9.7l-0.1-3.1l0.6-0.3C246.6,149.3,247,149.1,247.4,149z"/>
			<path class="st2" d="M258.7,149.7c0.1,0,0.8,0,2.1,0c1.5,0,2.6,0.3,3.3,1c0.7,0.6,1.3,1.7,1.8,3.2c0.4,1.5,0.7,3.2,0.7,5.2
				c0,0.4,0,0.9-0.1,1.4c-0.1,0.4-0.2,1.1-0.3,1.9c-0.1,0.8-0.2,1.6-0.3,2.2c-0.1,0.7-0.2,1.1-0.4,1.4c-0.1,0.2-0.2,0.5-0.2,0.8
				c0,0.2-0.1,0.6-0.4,1.2c-0.3,0.6-0.5,1-0.7,1.3c-0.3,0.4-0.8,0.8-1.5,1.1c-0.6,0.3-1.3,0.5-1.9,0.6c-0.5,0.1-0.8,0.1-0.9,0.1
				c-0.3,0-0.7-0.1-1-0.5l-0.6-0.6v-7.1v-2.1c0-3.5,0-5.4-0.1-5.8c-0.2-1.1-0.2-2.1-0.2-2.9C257.9,150.6,258.2,149.8,258.7,149.7z
				 M262.6,154.8c-0.4-1.5-0.8-2.2-1.1-2.2l-0.1,0.1v0.1c0,0.1,0,0.2,0,0.3s0,0.2,0,0.4c0,0.4,0,1.2,0.1,2.4
				c0.1,1.4,0.2,3.4,0.2,5.8c0,2.3,0.1,3.5,0.3,3.5c0.1,0,0.2-0.2,0.3-0.6c0.5-1.8,0.8-3.7,0.8-5.7
				C263.1,157.3,263,155.9,262.6,154.8z"/>
			<path class="st2" d="M271.3,168.1c0.3-0.3,0.6-0.5,0.9-0.5c0.1,0,0.3,0,0.6,0.1c1.1,0.2,1.7,0.7,1.7,1.3c0,0.5-0.3,1-1,1.4
				c-0.6,0.4-1,0.5-1.4,0.5c-0.6,0-1-0.5-1.1-1.4c0-0.2,0-0.4,0-0.6C270.9,168.7,271,168.4,271.3,168.1z"/>
			<path class="st2" d="M141.5,47.2c0,0-9.1,18.1-40.3,8.2C84,49.9,68.9,42.6,42.4,53.3l-0.1,65.1c12.2-15.2,25.6-10.5,44.3-4.7
				c24.2,7.4,52.3,4.3,55-2.5C141.7,110.5,141.5,47.2,141.5,47.2z"/>
			<path class="st3" d="M93.9,110c12.6,3.9,25.7,4,36.2,0.1"/>
			<path class="st3" d="M88.2,57.4c-6.2-2.2-9.1-3.5-16.1-3.4"/>
			<path class="st4" d="M42.5,167.5h-2.7c-2,0-3.6-1.6-3.6-3.6l0.4-120.1c0-2,1.6-3.6,3.7-3.6H43c2,0,3.6,1.6,3.6,3.6l-0.4,120.1
				C46.1,165.9,44.5,167.5,42.5,167.5z"/>
			<path class="st2" d="M46.5,46.4h-9.9v-8.2c0-0.9,0.8-1.7,1.7-1.7h6.5c0.9,0,1.7,0.8,1.7,1.7V46.4z"/>
			<path class="st2" d="M51.6,169.3H31.1c-1.3,0-2.4-1.1-2.4-2.4v-5.2c0-1.3,1.1-2.4,2.4-2.4h20.5c1.3,0,2.4,1.1,2.4,2.4v5.2
				C53.9,168.2,52.9,169.3,51.6,169.3z"/>
			<path class="st4" d="M142.5,167.5h-2.7c-2,0-3.6-1.6-3.6-3.6l0.4-120.1c0-2,1.6-3.6,3.6-3.6h2.7c2,0,3.6,1.6,3.6,3.6l-0.4,120.1
				C146.1,165.9,144.5,167.5,142.5,167.5z"/>
			<path class="st2" d="M146.5,46.4h-9.9v-8.2c0-0.9,0.8-1.7,1.7-1.7h6.5c0.9,0,1.7,0.8,1.7,1.7V46.4z"/>
			<path class="st2" d="M151.5,169.3H131c-1.3,0-2.4-1.1-2.4-2.4v-5.2c0-1.3,1.1-2.4,2.4-2.4h20.5c1.3,0,2.4,1.1,2.4,2.4v5.2
				C153.9,168.2,152.8,169.3,151.5,169.3z"/>
			<path class="st0" d="M56.6,59.9c0.4-0.2,0.8-0.3,1.4-0.3c0.4,0,0.7,0,0.9,0c0.9,0.1,1.6,0.2,1.9,0.4c0.3,0.2,0.7,0.5,1,1
				s0.5,1,0.5,1.6s-0.2,1.1-0.7,1.5c-0.4,0.4-0.8,0.6-1.2,0.6c-0.5,0-0.9-0.3-1.2-0.8c-0.3-0.4-0.6-0.6-0.9-0.6
				c-0.3,0-0.6,0.2-0.8,0.6c-0.3,0.4-0.4,0.8-0.5,1.3v0.2c0,1.8,1.4,5.1,4.1,9.9c0.4,0.8,0.9,2.2,1.3,4.3c0,0.1,0,0.4,0,0.7
				c0,1.8-0.4,3.2-1.1,4.1c-0.3,0.4-0.9,0.8-1.6,1.1c-0.7,0.3-1.4,0.5-2,0.5c-0.1,0-0.1,0-0.2,0c-0.1,0-0.1,0-0.2,0
				c-0.8-0.1-1.7-0.7-2.7-1.7c-1.1-1-1.6-1.8-1.6-2.4c0-0.3,0.2-0.6,0.5-0.9c0.4-0.3,0.7-0.5,1-0.6c0.1,0,0.2,0,0.3,0
				c0.4,0,0.9,0.5,1.7,1.6c0.3,0.4,0.6,0.6,1,0.6c0.3,0,0.6-0.2,0.7-0.6c0.1-0.1,0.1-0.4,0.1-0.7c0-1.9-0.8-4.6-2.5-8.2
				c-1.6-3.4-2.3-5.9-2.3-7.5c0-0.7,0.1-1.4,0.4-2c0.5-1.3,0.9-2.1,1.2-2.5C55.3,60.6,55.8,60.3,56.6,59.9z"/>
			<path class="st0" d="M68.7,69.4c0.4-0.4,1.2-0.6,2.2-0.6H72c1.8,0.1,2.8,0.1,3.2,0.2c0.2,0.1,0.7,0.1,1.4,0.2s1.2,0.2,1.6,0.4
				c0.3,0.2,0.5,0.7,0.5,1.2c0,0.6-0.2,1.1-0.4,1.3c-0.2,0.3-0.6,0.4-1.2,0.5c-0.7,0.1-1.1,0.2-1.2,0.3c-0.2,0.2-0.2,3.3-0.2,9.3
				c0,4.2,0.1,7.1,0.2,8.9c0.1,1.4,0.1,2.1,0.1,2.2c0,0.7-0.2,1.3-0.4,1.8c-0.4,0.7-0.9,1-1.7,1c-0.5,0-1-0.2-1.5-0.4l-0.9-0.5
				l0.2-11.1c0.1-2.9,0.1-5.7,0.1-8.6c0-1.7-0.1-2.7-0.4-2.8c-0.4-0.2-0.6-0.3-0.7-0.2c-0.1,0-0.3,0.1-0.5,0.1
				c-0.6,0-1.1-0.2-1.5-0.5s-0.6-0.7-0.6-1.2C67.9,70.3,68.2,69.8,68.7,69.4z"/>
			<path class="st0" d="M88.3,75.7c0.8-0.8,2.1-1.3,3.8-1.3c0.8,0,1.4,0.1,1.9,0.4c0.7,0.3,1.2,1.2,1.5,2.7c0.2,1.2,0.5,3.3,0.8,6.3
				s0.5,5.2,0.6,6.8c0,1.5,0.1,3.2,0.3,5.1c0.2,1.9,0.3,2.9,0.4,3.1c0,0,0,0.1,0,0.2c0,0.3-0.1,0.7-0.4,1.1s-0.5,0.7-0.7,0.7
				c-0.1,0-0.2,0.1-0.4,0.1c-0.5,0-1-0.1-1.6-0.3c-0.6-0.2-0.9-0.5-1.1-0.7s-0.3-1.2-0.5-2.7s-0.3-2.8-0.3-3.8
				c0-0.9-0.1-1.4-0.3-1.5c-0.2-0.1-0.9-0.2-2.2-0.2c-1.1,0-1.7,0-1.7,0.2s-0.1,0.4-0.1,0.6c0,0.7,0.1,1.6,0.2,2.6
				c0.1,1.3,0.2,2.3,0.2,3.1v0.4c0,0.2-0.3,0.4-0.7,0.6c-0.4,0.2-0.8,0.3-1.2,0.3c-0.2,0-0.3,0-0.4,0c-1.1-0.3-1.7-0.8-1.8-1.4
				c0,0,0-0.1,0-0.2s0-0.2,0-0.3c0-1.4,0.2-4.3,0.5-8.8s0.6-7.1,0.7-7.8c0.2-0.9,0.6-1.9,1.1-3C87.4,76.9,87.9,76.1,88.3,75.7z
				 M91.6,80.7c-0.2-0.9-0.4-1.4-0.7-1.4c-0.2,0-0.5,0.3-0.8,1c-0.6,1.3-1,3.1-1.2,5.4c-0.1,1-0.1,1.5-0.1,1.6
				c0,0.5,0.1,0.7,0.2,0.8c0.2,0.1,0.6,0.2,1.3,0.2c1,0,1.5-0.1,1.6-0.3c0.1-0.1,0.1-0.5,0.1-1.3C92.2,84.5,92,82.5,91.6,80.7z"/>
			<path class="st0" d="M106.1,80.6c0.6-0.2,1.3-0.3,2.2-0.3c1,0,1.7,0.1,2.1,0.3c0.8,0.4,1.5,1,1.9,2c0.2,0.4,0.4,1.3,0.6,2.5
				s0.3,2.4,0.3,3.3c0,0.5,0,0.8-0.1,1c-0.1,0.8-0.3,1.7-0.7,2.7c-0.3,1-0.6,1.5-0.8,1.5c-0.3,0-0.4,0.2-0.4,0.6
				c0,0.3,0.1,0.7,0.3,1.1c0.5,0.8,1.2,2.1,2.2,4.1s1.5,3.3,1.6,3.8c0,0.2,0.1,0.4,0.1,0.7c0,0.4-0.1,0.8-0.3,1.1
				c-0.3,0.4-0.6,0.6-0.9,0.6s-0.6,0-0.9,0c-0.8-0.1-1.3-0.2-1.5-0.3c-0.2-0.1-0.3-0.4-0.3-0.8c0-0.6-0.3-1.6-1-3
				c-0.7-1.3-1.2-2-1.5-2h-0.1c-0.1,0.1-0.2,0.4-0.2,1.1c0,1,0.1,2,0.3,3.2c0.1,0.5,0.1,0.9,0.1,1.1c0,1.1-0.2,1.8-0.7,2
				c-0.2,0.1-0.5,0.2-0.8,0.2c-1,0-1.7-0.2-1.9-0.7c-0.2-0.3-0.3-2.4-0.4-6.6c0-1.3-0.1-2.8-0.1-4.3s-0.1-2.6-0.1-3.3s0-1.6-0.1-2.7
				s-0.2-2.4-0.3-3.7c-0.1-1.6-0.2-2.5-0.2-2.7c0-0.8,0.1-1.3,0.3-1.6C105.1,81,105.5,80.8,106.1,80.6z M109.2,84.2
				c-0.1-0.3-0.3-0.4-0.5-0.4s-0.4,0.1-0.5,0.3c-0.1,0.2-0.1,0.4,0,0.6c0,0,0.1,1.1,0.3,3.1c0.2,2.1,0.2,3.1,0.3,3.2
				c0.1,0.1,0.2-0.1,0.5-0.4c0.2-0.3,0.3-0.8,0.3-1.7c0-0.6,0-1.1-0.1-1.6C109.4,85.7,109.3,84.6,109.2,84.2z"/>
			<path class="st0" d="M119.8,70.4c0.4-0.4,1.2-0.6,2.2-0.6h1.1c1.8,0.1,2.8,0.1,3.2,0.2c0.2,0.1,0.6,0.1,1.4,0.2
				c0.7,0,1.2,0.2,1.6,0.4c0.3,0.2,0.5,0.7,0.5,1.2c0,0.6-0.2,1.1-0.4,1.3s-0.6,0.4-1.2,0.5c-0.7,0.1-1.1,0.2-1.2,0.3
				c-0.2,0.2-0.2,3.3-0.2,9.3c0,4.2,0.1,7.1,0.2,8.9c0.1,1.4,0.1,2.1,0.1,2.2c0,0.7-0.1,1.3-0.4,1.8c-0.4,0.7-0.9,1-1.7,1
				c-0.5,0-1-0.1-1.5-0.4l-0.9-0.5l0.1-11.1c0.1-2.9,0.1-5.7,0.1-8.6c0-1.7-0.1-2.7-0.4-2.8c-0.4-0.2-0.6-0.3-0.7-0.2
				c-0.1,0-0.3,0-0.5,0c-0.6,0-1.1-0.2-1.5-0.5s-0.6-0.7-0.6-1.2C119,71.3,119.2,70.8,119.8,70.4z"/>
		</g>
	</g>
</g>
</svg>
