<?xml version="1.0" encoding="utf-8"?>
<!-- Generator: Adobe Illustrator 25.1.0, SVG Export Plug-In . SVG Version: 6.00 Build 0)  -->
<svg version="1.1" id="Layer_1" xmlns="http://www.w3.org/2000/svg" xmlns:xlink="http://www.w3.org/1999/xlink" x="0px" y="0px"
	 viewBox="0 0 292 326" style="enable-background:new 0 0 292 326;" xml:space="preserve">
<style type="text/css">
	.st0{fill:#E9E2DE;}
	.st1{fill:#FFCF8D;}
	.st2{fill:#28C86E;}
	.st3{fill:#FF9F1A;}
	.st4{fill:#FFFFFF;}
	.st5{fill:#00CDDC;}
	.st6{fill:#FFE7C6;}
</style>
<g>
	<path class="st0" d="M146.5,326c50.5,0,91.5-6.3,91.5-14s-41-14-91.5-14S55,304.3,55,312S95.9,326,146.5,326z"/>
	<path class="st1" d="M260.3,36.7c-1,0-2-0.4-2.7-1.3c-1.1-1.5-0.9-3.5,0.6-4.7l23.5-18.3c1.5-1.1,3.6-0.9,4.7,0.6
		c1.1,1.5,0.9,3.5-0.6,4.7L262.4,36C261.8,36.5,261,36.7,260.3,36.7z"/>
	<path class="st1" d="M40.7,38.3c-0.7,0-1.4-0.2-2.1-0.7L17,20.6c-1.4-1.1-1.7-3.2-0.6-4.7c1.1-1.4,3.3-1.7,4.7-0.6l21.7,17
		c1.4,1.1,1.7,3.2,0.6,4.7C42.7,37.9,41.7,38.3,40.7,38.3z"/>
	<path class="st1" d="M17.2,269.2c-1,0-2-0.4-2.7-1.3c-1.1-1.5-0.9-3.5,0.6-4.7l23.5-18.3c1.5-1.1,3.6-0.9,4.7,0.6
		c1.1,1.5,0.9,3.5-0.6,4.7l-23.5,18.3C18.7,268.9,18,269.2,17.2,269.2z"/>
	<path class="st1" d="M282,266.3c-0.7,0-1.4-0.2-2.1-0.7l-21.7-17c-1.4-1.1-1.7-3.2-0.6-4.7c1.1-1.4,3.3-1.7,4.7-0.6l21.7,17
		c1.4,1.1,1.7,3.2,0.6,4.7C284,265.8,283,266.3,282,266.3z"/>
	<path class="st2" d="M234,188.9c0,0,10.5,9.5,5.3,24.7C239.3,213.6,234.2,210.6,234,188.9z"/>
	<path class="st2" d="M262.5,211.9c0,0-9.7,20.7-29.7,10.7C232.8,222.7,238.6,214,262.5,211.9z"/>
	<path class="st2" d="M226.8,239.6c-1,0-1.9-0.9-2-1.9c-0.2-2.1,8-31,38.1-43.3c1-0.4,2.2,0.1,2.6,1.1c0.4,1-0.1,2.2-1.1,2.6
		c-26.6,10.8-35.3,36.1-35.6,39.3c0.1,1.1-0.7,2-1.8,2.1C226.9,239.6,226.9,239.6,226.8,239.6z"/>
	<path class="st1" d="M271,187.4c0,0-3.2-21.7-12.3-20.4C249.5,168.3,265,189,271,187.4z"/>
	<path class="st1" d="M271,187.2c0,0-17.1-17.1-20.4-8.6C247.2,187.1,269.3,193.3,271,187.2z"/>
	<path class="st1" d="M272.8,190.7c0,0-20.5-10.9-20.3-0.9C252.7,199.8,273.6,197.7,272.8,190.7z"/>
	<path class="st1" d="M275,191.1c0,0,10-20.8,0.1-20.2C265.1,171.5,268.1,192.2,275,191.1z"/>
	<path class="st1" d="M272.1,191.9c0,0,18.3,14.3,19.8,4.4C293.5,186.5,272.5,184.9,272.1,191.9z"/>
	<path class="st1" d="M272,194.1c0,0,18-5.9,12.9-11.7C279.8,176.6,268,190.4,272,194.1z"/>
	<path class="st1" d="M273.2,192.9c0,0,20.8,7.2,17.9,15.9C288.1,217.5,270.5,198.5,273.2,192.9z"/>
	<path class="st1" d="M274.1,191.6c0,0,13.7,19.9,4.7,21.6C269.8,214.8,267.7,192.1,274.1,191.6z"/>
	<path class="st1" d="M274.3,190.1c0,0-2.6,23-10.7,17.2C255.4,201.5,269,185.5,274.3,190.1z"/>
	<path class="st3" d="M280.8,200.8c2.3-1.9,0.4-8-4.2-13.6c-4.6-5.6-10.3-8.5-12.6-6.6c-2.3,1.9-0.4,8,4.2,13.6
		C272.8,199.8,278.5,202.7,280.8,200.8z"/>
	<path class="st2" d="M58,83.2c0,0-10.5,9.5-5.3,24.7C52.7,107.9,57.8,104.9,58,83.2z"/>
	<path class="st2" d="M29.5,106.3c0,0,9.7,20.7,29.7,10.7C59.1,117,53.4,108.3,29.5,106.3z"/>
	<path class="st2" d="M65.2,133.8c-0.1,0-0.1,0-0.2,0c-1-0.1-1.8-1-1.8-2c-0.4-3.4-9.1-28.5-35.6-39.3c-1-0.4-1.5-1.6-1.1-2.6
		c0.4-1,1.6-1.5,2.6-1.1c30,12.2,38.3,41.2,38.1,43.3C67.1,133.1,66.2,133.8,65.2,133.8z"/>
	<path class="st1" d="M21,81.7c0,0,3.2-21.7,12.3-20.4C42.5,62.6,27,83.3,21,81.7z"/>
	<path class="st1" d="M21,81.5c0,0,17.1-17.1,20.4-8.6S22.7,87.7,21,81.5z"/>
	<path class="st1" d="M19.1,85c0,0,20.5-10.9,20.3-0.9C39.2,94.1,18.4,92,19.1,85z"/>
	<path class="st1" d="M16.9,85.4c0,0-10-20.8-0.1-20.2C26.8,65.8,23.9,86.5,16.9,85.4z"/>
	<path class="st1" d="M19.9,86.2c0,0-18.3,14.3-19.8,4.4C-1.4,80.8,19.4,79.2,19.9,86.2z"/>
	<path class="st1" d="M20,88.4c0,0-18-5.9-12.9-11.7C12.2,70.9,23.9,84.7,20,88.4z"/>
	<path class="st1" d="M18.8,87.2c0,0-20.8,7.2-17.9,15.9C3.9,111.8,21.5,92.8,18.8,87.2z"/>
	<path class="st1" d="M17.8,85.9c0,0-13.7,19.9-4.7,21.6C22.1,109.1,24.3,86.4,17.8,85.9z"/>
	<path class="st1" d="M17.7,84.4c0,0,2.6,23,10.7,17.2C36.5,95.9,23,79.9,17.7,84.4z"/>
	<path class="st3" d="M23.8,88.5c4.6-5.6,6.5-11.6,4.2-13.6c-2.3-1.9-7.9,1.1-12.6,6.6c-4.6,5.6-6.5,11.6-4.2,13.6
		C13.5,97,19.1,94.1,23.8,88.5z"/>
	<path class="st4" d="M245.9,32.3V266c0,3.3-2.7,6-6,6H58.4c-3.4,0-6-2.7-6-6V32.3c0-3.3,2.7-6,6-6h181.5
		C243.2,26.3,245.9,29,245.9,32.3z"/>
	<path class="st5" d="M236,73.3c-0.9,0-1.7-0.7-1.7-1.7V49.5c0-2.4-1.9-4.3-4.4-4.3h-12.2c-0.9,0-1.7-0.7-1.7-1.7
		c0-0.9,0.7-1.7,1.7-1.7H230c4.3,0,7.7,3.4,7.7,7.7v22.2C237.7,72.6,236.9,73.3,236,73.3z"/>
	<path class="st5" d="M190,13.6h-19c-1.8,0-3.4-1.5-3.4-3.3V4.1c0-2.3-1.8-4.1-4.1-4.1h-14.5h-0.1h-14.5c-2.3,0-4.1,1.8-4.1,4.1v6.1
		c0,1.9-1.5,3.3-3.4,3.3h-19c-2.3,0-4.1,1.8-4.1,4.1v15.4c0,2.3,1.8,4.1,4.1,4.1h40.9h0.1H190c2.3,0,4.1-1.8,4.1-4.1V17.7
		C194.2,15.4,192.3,13.6,190,13.6z"/>
	<path class="st3" d="M122.4,133.3c-1.8,0.1-3.3,1.6-3.2,3.5c0.1,1.9,1.6,3.3,3.5,3.2h88.4c1.8,0,3.4-1.4,3.4-3.3
		c0-1.8-1.4-3.4-3.3-3.4c0,0-0.1,0-0.1,0h-88.4C122.6,133.3,122.5,133.3,122.4,133.3z"/>
	<path class="st3" d="M107.7,136.7c0,6.5-5.3,11.7-11.8,11.7c-6.5,0-11.8-5.3-11.8-11.7c0-6.5,5.3-11.7,11.8-11.7
		C102.4,124.9,107.7,130.2,107.7,136.7z"/>
	<path class="st3" d="M122.4,165.6c-1.8,0.1-3.3,1.6-3.2,3.5c0.1,1.9,1.6,3.3,3.5,3.2h88.4c1.8,0,3.4-1.4,3.4-3.3
		c0-1.8-1.4-3.4-3.3-3.4c0,0-0.1,0-0.1,0h-88.4C122.6,165.6,122.5,165.6,122.4,165.6z"/>
	<path class="st3" d="M107.7,169c0,6.5-5.3,11.7-11.8,11.7c-6.5,0-11.8-5.3-11.8-11.7c0-6.5,5.3-11.7,11.8-11.7
		C102.4,157.2,107.7,162.5,107.7,169z"/>
	<path class="st3" d="M122.4,199.5c-1.8,0.1-3.3,1.6-3.2,3.5c0.1,1.9,1.6,3.3,3.5,3.2h88.4c1.8,0,3.4-1.4,3.4-3.3
		c0-1.8-1.4-3.4-3.3-3.4c0,0-0.1,0-0.1,0h-88.4C122.6,199.5,122.5,199.5,122.4,199.5z"/>
	<path class="st3" d="M107.7,202.9c0,6.5-5.3,11.7-11.8,11.7c-6.5,0-11.8-5.3-11.8-11.7c0-6.5,5.3-11.7,11.8-11.7
		C102.4,191.1,107.7,196.4,107.7,202.9z"/>
	<path class="st3" d="M122.4,231.8c-1.8,0.1-3.3,1.6-3.2,3.5c0.1,1.9,1.6,3.3,3.5,3.2h88.4c1.8,0,3.4-1.4,3.4-3.3
		c0-1.8-1.4-3.4-3.3-3.4c0,0-0.1,0-0.1,0h-88.4C122.6,231.8,122.5,231.8,122.4,231.8z"/>
	<path class="st3" d="M107.7,235.2c0,6.5-5.3,11.7-11.8,11.7c-6.5,0-11.8-5.3-11.8-11.7c0-6.5,5.3-11.7,11.8-11.7
		C102.4,223.4,107.7,228.7,107.7,235.2z"/>
	<path class="st4" d="M189.5,28.6c-0.5,0-1-0.4-1-1v-7c0-1.4-1.1-2.5-2.5-2.5h-7.9c-0.5,0-1-0.4-1-1s0.4-1,1-1h7.9
		c2.4,0,4.5,2,4.5,4.4v7C190.5,28.1,190.1,28.6,189.5,28.6z"/>
	<path class="st4" d="M93.5,142.6c-0.3,0-0.6-0.1-0.8-0.3l-3.3-2.9c-0.3-0.3-0.4-0.8-0.1-1.2c0.3-0.3,0.8-0.4,1.2-0.1l2.9,2.6
		l7.6-9.5c0.3-0.4,0.8-0.4,1.2-0.1c0.4,0.3,0.4,0.8,0.1,1.2l-7.8,9.8C94.2,142.5,93.9,142.6,93.5,142.6z"/>
	<path class="st4" d="M93.5,175.2c-0.3,0-0.6-0.1-0.8-0.3l-3.3-2.9c-0.3-0.3-0.4-0.8-0.1-1.2c0.3-0.3,0.8-0.4,1.2-0.1l2.9,2.6
		l7.6-9.5c0.3-0.4,0.8-0.4,1.2-0.1c0.4,0.3,0.4,0.8,0.1,1.2l-7.8,9.8C94.2,175.1,93.9,175.2,93.5,175.2z"/>
	<path class="st4" d="M93.5,208.9c-0.3,0-0.6-0.1-0.8-0.3l-3.3-2.9c-0.3-0.3-0.4-0.8-0.1-1.2c0.3-0.3,0.8-0.4,1.2-0.1l2.9,2.6
		l7.6-9.5c0.3-0.4,0.8-0.4,1.2-0.1c0.4,0.3,0.4,0.8,0.1,1.2l-7.8,9.8C94.2,208.8,93.9,208.9,93.5,208.9z"/>
	<path class="st4" d="M93.5,241c-0.3,0-0.6-0.1-0.8-0.3l-3.3-2.9c-0.3-0.3-0.4-0.8-0.1-1.2c0.3-0.3,0.8-0.4,1.2-0.1l2.9,2.6l7.6-9.5
		c0.3-0.4,0.8-0.4,1.2-0.1c0.4,0.3,0.4,0.8,0.1,1.2l-7.8,9.8C94.2,240.8,93.9,241,93.5,241z"/>
	<path class="st3" d="M139.7,79h59.6c1.8,0,3.4-1.5,3.4-3.3c0-1.8-1.5-3.3-3.4-3.3h-59.6c-1.8,0-3.4,1.5-3.4,3.3
		C136.3,77.5,137.9,79,139.7,79z"/>
	<path class="st3" d="M139.7,91.2h42.6c1.8,0,3.4-1.5,3.4-3.3s-1.5-3.3-3.4-3.3h-42.6c-1.8,0-3.4,1.5-3.4,3.3S137.9,91.2,139.7,91.2
		z"/>
	<path class="st3" d="M95.6,109.3c16.1,0,29.2-13,29.2-29.1s-13.1-29.1-29.2-29.1c-16.1,0-29.2,13-29.2,29.1S79.5,109.3,95.6,109.3z
		"/>
	<path class="st1" d="M95.5,66.6l-13.1,5.6l-4.1-15.4c4.1-3,8.9-5,14.2-5.6l4.4,15.3L95.5,66.6z"/>
	<path class="st6" d="M113.1,56.8l-5.5,15.3L98,66.5l-2-1.9l4-13.2C104.9,52.2,109.3,54.1,113.1,56.8z"/>
	<path class="st4" d="M116.4,85.2c0.7-0.9,1.6-2,1.6-3.4c0-1.4-0.9-2.5-1.6-3.4c-0.3-0.4-0.7-0.9-0.8-1.2c-0.1-0.3,0.1-0.9,0.2-1.4
		c0.2-1.1,0.6-2.4-0.1-3.7c-0.6-1.3-1.9-1.9-2.9-2.4c-0.5-0.2-1-0.5-1.3-0.7c-0.2-0.2-0.3-0.9-0.5-1.3c-0.2-1.1-0.6-2.4-1.7-3.3
		c-1.1-0.9-2.5-0.9-3.6-0.9c-0.6,0-1.2,0-1.4-0.2c-0.2-0.1-0.6-0.6-0.9-1c-0.7-0.9-1.6-2-2.9-2.3c-0.2-0.1-0.5-0.1-0.8-0.1
		c-1,0-2,0.5-2.9,0.9c-0.5,0.2-1.1,0.6-1.4,0.6c-0.3,0-0.9-0.3-1.4-0.6c-0.8-0.4-1.7-0.9-2.9-0.9c-0.2,0-0.6,0-0.8,0.1
		c-1.4,0.3-2.3,1.4-2.9,2.3c-0.3,0.4-0.7,0.9-0.9,1c-0.2,0.2-0.9,0.2-1.4,0.2c-1.1,0-2.6,0-3.6,0.9c-1.1,0.9-1.4,2.2-1.7,3.3
		c-0.1,0.5-0.2,1.2-0.5,1.3c-0.2,0.2-0.8,0.5-1.3,0.7c-1,0.5-2.3,1.1-2.9,2.4c-0.6,1.3-0.3,2.6-0.1,3.7c0.2,0.6,0.2,1.2,0.2,1.4
		c-0.1,0.2-0.5,0.8-0.8,1.2c-0.7,0.9-1.6,2-1.6,3.4c0,1.4,0.9,2.5,1.6,3.4c0.3,0.4,0.7,0.9,0.8,1.2c0.1,0.3-0.1,0.9-0.2,1.4
		c-0.2,1.1-0.6,2.4,0.1,3.7c0.6,1.3,1.9,1.9,2.9,2.4c0.5,0.2,1,0.5,1.3,0.7c0.2,0.2,0.3,0.9,0.5,1.3c0.2,1.1,0.6,2.4,1.7,3.3
		c1.1,0.9,2.4,0.9,3.6,0.9c0.6,0,1.2,0,1.4,0.2c0.2,0.1,0.6,0.6,0.9,1c0.7,0.9,1.6,2,2.9,2.3c0.2,0.1,0.5,0.1,0.8,0.1
		c1,0,2-0.5,2.9-0.9c0.5-0.2,1.1-0.6,1.4-0.6c0.3,0,0.9,0.3,1.4,0.6c0.8,0.4,1.7,0.9,2.9,0.9c0.2,0,0.6,0,0.8-0.1
		c1.4-0.3,2.3-1.4,2.9-2.3c0.3-0.4,0.7-0.9,0.9-1c0.2-0.2,0.9-0.2,1.4-0.2c1.1,0,2.6,0,3.6-0.9c1.1-0.9,1.4-2.2,1.7-3.3
		c0.1-0.5,0.2-1.2,0.5-1.3c0.2-0.2,0.8-0.5,1.3-0.7c1-0.5,2.3-1.1,2.9-2.4c0.6-1.3,0.3-2.6,0.1-3.7c-0.2-0.6-0.2-1.2-0.2-1.4
		C115.7,86.1,116.1,85.6,116.4,85.2z M95.6,95.5c-7.6,0-13.8-6.2-13.8-13.8C81.8,74.2,88,68,95.6,68c7.6,0,13.8,6.2,13.8,13.8
		C109.4,89.4,103.2,95.5,95.6,95.5z"/>
	<path class="st6" d="M96.5,73.1l2.1,4.2c0.2,0.3,0.4,0.5,0.8,0.6l4.6,0.7c0.8,0.1,1.2,1.2,0.6,1.8l-3.4,3.2
		c-0.2,0.2-0.4,0.6-0.3,0.9l0.8,4.6c0.1,0.8-0.7,1.5-1.5,1.1L96,87.9c-0.3-0.2-0.7-0.2-1,0l-4.1,2.2c-0.8,0.4-1.6-0.2-1.5-1.1
		l0.8-4.6c0.1-0.3-0.1-0.7-0.3-0.9l-3.4-3.2c-0.6-0.6-0.3-1.6,0.6-1.8l4.6-0.7c0.3,0,0.6-0.3,0.8-0.6l2.1-4.2
		C95,72.3,96.1,72.3,96.5,73.1z"/>
</g>
</svg>
