<?xml version="1.0" encoding="utf-8"?>
<!-- Generator: Adobe Illustrator 25.1.0, SVG Export Plug-In . SVG Version: 6.00 Build 0)  -->
<svg version="1.1" id="Layer_1" xmlns="http://www.w3.org/2000/svg" xmlns:xlink="http://www.w3.org/1999/xlink" x="0px" y="0px"
	 viewBox="0 0 151 348" style="enable-background:new 0 0 151 348;" xml:space="preserve">
<style type="text/css">
	.st0{clip-path:url(#SVGID_2_);}
	.st1{fill:#28C86E;}
	.st2{fill:#80E6ED;}
	.st3{fill:none;stroke:#28C86E;stroke-width:1.6329;stroke-linecap:round;stroke-miterlimit:10;}
	.st4{fill:#FFCF8D;}
	.st5{fill:#FF9F1A;}
	.st6{fill:#FFFFFF;}
	.st7{opacity:0.5;enable-background:new    ;}
	.st8{fill:#3CDC82;}
	.st9{fill:#32DCD2;}
	.st10{fill:none;stroke:#28C86E;stroke-width:0.7931;stroke-linecap:round;stroke-miterlimit:10;}
	.st11{opacity:0.3;enable-background:new    ;}
	.st12{fill:#00A878;}
	.st13{fill:#00CDDC;}
</style>
<g>
	<g>
		<g>
			<g>
				<defs>
					<rect id="SVGID_1_" width="151" height="348"/>
				</defs>
				<clipPath id="SVGID_2_">
					<use xlink:href="#SVGID_1_"  style="overflow:visible;"/>
				</clipPath>
				<g class="st0">
					<path class="st1" d="M148,44.2c0,0-48.8,7.2-77.4-27.2C70.6,17,111.3,6,148,44.2z"/>
					<path class="st1" d="M123,19.6c0,0-16.5,9.7-60,2.2C63,21.8,79.2-3.2,123,19.6z"/>
					<path class="st2" d="M0.7,102.5h150c0.1-1,0.1-1.9,0.2-3C155.4,12.9,73.3,6.8,40.5,22C23.4,30-2.8,52.6,0.2,97.7
						C0.3,99.2,0.5,100.8,0.7,102.5z"/>
					<path d="M54.4,63.6c0,2.9-2.4,4.3-5.3,4.3c-2.9,0-5.3-1.4-5.3-4.3c0-2.9,2.4-5.3,5.3-5.3C52,58.2,54.4,60.6,54.4,63.6z"/>
					<path d="M98.4,63.6c0,2.9-2.4,4.3-5.3,4.3c-2.9,0-5.3-1.4-5.3-4.3c0-2.9,2.4-5.3,5.3-5.3C96,58.2,98.4,60.6,98.4,63.6z"/>
					<path class="st1" d="M59.6,1.9c0,0-1.1,8.9,7.1,14.1C66.8,16,67.9,12.4,59.6,1.9z"/>
					<path class="st3" d="M72.1,22.6C68.2,18.5,63.2,6.1,45.3,10"/>
					<path class="st4" d="M41.3,8.4c0,0-7.5,10.3-2.3,10.2C44.3,18.4,45.1,7.9,41.3,8.4z"/>
					<path class="st4" d="M43,6.6c0,0-3.9,12.5,1.5,10.1C49.9,14.3,46.7,4.6,43,6.6z"/>
					<path class="st4" d="M43.6,6c0,0-11.8,3.2-8.6,7.4C38.1,17.6,46.1,8.7,43.6,6z"/>
					<path class="st4" d="M45.3,11.9c0,0,0.4-15-4.7-10.6C35.4,5.8,41.9,15.3,45.3,11.9z"/>
					<path class="st4" d="M42.4,7.7c0,0,1.2-10,5.4-7.1C52,3.4,45.1,9.9,42.4,7.7z"/>
					<path class="st4" d="M42.7,4.8c0,0,12.4,0.7,8.4,5.2C47,14.5,39.6,7.8,42.7,4.8z"/>
					<path class="st5" d="M45.5,9.4C47,6.7,46.9,3.9,45.4,3c-1.6-0.9-4.1,0.5-5.5,3.2c-1.5,2.6-1.4,5.5,0.2,6.4
						C41.6,13.4,44.1,12,45.5,9.4z"/>
					<path d="M75.7,84.6c0,2.4-2.5,0.1-4.9,0.1s-5.9,2.4-5.9,0c0-2.4,3.5-6.4,5.9-6.4C73.1,78.3,75.7,79.4,75.7,84.6z"/>
					<path class="st6" d="M71.9,81.8h-1.3c-0.7,0-1.2-0.5-1.2-1.2l0.2-2.1c0.7-0.5,2.6-0.4,3.6,0.2l-0.1,1.9
						C73.1,81.3,72.6,81.8,71.9,81.8z"/>
					<path class="st7" d="M137.6,44.8c6.4,0,10.4-0.6,10.4-0.6c-10.6-11-21.5-17.9-31.7-22.2c4.6-1.2,6.7-2.5,6.7-2.5
						c-28.3-14.7-45.1-9.5-53.4-3.9c-0.3,0-0.6,0-0.8,0c-0.7-0.8-1.5-1.6-2.3-2.4c-0.7-2.2-2.4-5.8-6.8-11.4c0,0-0.4,3.7,1.4,7.7
						c-2.6-1.2-5.7-2-9.4-2c-0.5-0.9-2-1.6-3.6-2c1.3-1.7,1.7-3.8-0.2-5.1C46-0.7,44.8,0.4,44,2c-0.7-1.5-1.8-2.2-3.5-0.7
						c-2,1.7-2.2,4.2-1.6,6.4c-2.9,1.3-5.8,3.4-4,5.7c0.8,1,1.8,1.2,2.9,1c-0.9,2.2-1,4.1,1.3,4c1.4,0,2.5-0.8,3.2-2
						c0.4,0.5,1.1,0.6,2.2,0.1c2.2-1,2.9-3.1,2.8-5.3c0.8,0.1,1.6,0,2.3-0.4c7.1-0.6,11.6,1.9,14.8,5c-9.2,0.9-17.5,3-23.9,6
						C23.4,30-2.8,52.6,0.2,97.7c0.1,1.5,0.2,3.2,0.4,4.9h150c0.1-1,0.1-1.9,0.2-3C152.1,75.5,146.7,57.7,137.6,44.8z"/>
					<path class="st1" d="M145,130.2c0,0-33.9,27.4-59.9,9.1C85,139.3,102.8,116.2,145,130.2z"/>
					<path class="st8" d="M117.3,117.1c0,0-5.3,24-36.6,26.9C80.7,144,80.5,133.5,117.3,117.1z"/>
					<path class="st9" d="M0.7,223.6h150c0.1-1,0.1-1.9,0.2-3c4.6-86.7-77.5-92.7-110.3-77.5c-17.1,7.9-43.3,30.5-40.3,75.6
						C0.3,220.3,0.5,221.9,0.7,223.6z"/>
					<path d="M59.9,186.2c0,2.8-2.2,3.4-5,3.4s-5-0.6-5-3.4c0-2.8,2.2-5,5-5S59.9,183.4,59.9,186.2z"/>
					<path d="M101.1,186.2c0,2.8-2.2,3.4-5,3.4c-2.8,0-5-0.6-5-3.4c0-2.8,2.2-5,5-5C98.9,181.2,101.1,183.4,101.1,186.2z"/>
					<path d="M85.3,197.2c0,1.4-4.5,3.5-10,3.5s-10-2.1-10-3.5s4.5-0.2,10-0.2S85.3,195.8,85.3,197.2z"/>
					<path class="st6" d="M75.5,199.1h-0.8c-0.7,0-1.3-0.6-1.3-1.3v-0.8h3.5v0.8C76.9,198.5,76.3,199.1,75.5,199.1z"/>
					<path class="st1" d="M66.5,125c0,0,5.5,1.5,6.4,7.9C72.9,132.9,70.5,132.8,66.5,125z"/>
					<path class="st1" d="M79.8,127.8c0,0,0.3,9.2-8.7,9.3C71.1,137.1,71.6,132.9,79.8,127.8z"/>
					<path class="st10" d="M71.7,143.5c-0.3-0.5-2.5-12.1,5.7-21.5"/>
					<path class="st4" d="M77.5,117.9c0,0-7-5.4-9.3-2.5C65.9,118.3,76.2,120,77.5,117.9z"/>
					<path class="st4" d="M77.4,117.8c0,0-9.8-0.2-8.3,3.2C70.6,124.4,78.7,120.1,77.4,117.8z"/>
					<path class="st4" d="M79,118.3c0,0-9,2.6-6.1,5.4C75.7,126.6,81.2,120.1,79,118.3z"/>
					<path class="st4" d="M79.7,117.8c0,0-3-8.9-5.7-5.9C71.3,114.9,78,120.1,79.7,117.8z"/>
					<path class="st4" d="M79.1,118.9c0,0,9.3-1,7-4.3S77.3,116.7,79.1,118.9z"/>
					<path class="st4" d="M79.7,119.5c0,0,3.6-6.7,0.5-7C77,112.3,77.5,119.6,79.7,119.5z"/>
					<path class="st4" d="M79.7,118.9c0,0,8.1-3.8,9.7-0.4C90.9,121.8,80.5,121.2,79.7,118.9z"/>
					<path class="st4" d="M79.6,118.2c0,0,9.5,1.9,7.4,4.9C84.9,126.2,77.9,120.1,79.6,118.2z"/>
					<path class="st4" d="M79.2,117.7c0,0,5.7,7.4,1.7,8C77,126.3,76.4,117.9,79.2,117.7z"/>
					<path class="st5" d="M84.1,119c0.1-1.2-2.1-2.4-5-2.8c-2.9-0.3-5.4,0.4-5.5,1.6c-0.1,1.2,2.1,2.4,5,2.8
						C81.5,121,84,120.2,84.1,119z"/>
					<path class="st11" d="M112.6,145c17.6-2.8,32.4-14.8,32.4-14.8c-12.8-4.3-23.3-5.1-31.8-4.2c3.2-4.9,4.1-9,4.1-9
						c-19.1,8.5-28.2,15.5-32.6,20.1c-3.5-0.4-7-0.6-10.5-0.6c5.9-1.9,5.6-8.8,5.6-8.8c-2.2,1.3-3.8,2.6-5,3.8l2.1-8.1
						c0.3-0.2,0.5-0.4,0.8-0.7c0.4,1.7,1.5,3.1,3.3,2.9c1.6-0.2,1.6-1.6,1.1-3c1.8,1.3,3.9,1.9,4.9,0.5c0.6-0.9,0.2-1.7-0.6-2.4
						c2.1-0.1,3.6-0.9,3-2.3c-0.6-1.3-2.3-1.5-4-1.3c1-0.6,1.5-1.5,0.8-2.6c-1.1-1.5-3.1-1.2-4.7-0.1c0.1-1-0.2-1.8-1.2-1.9
						c-1-0.1-1.7,0.7-2,1.7c-1.1-2-2.6-3.9-4.1-2.3c-1.1,1.2-0.7,2.7,0.3,3.9c-2.2-1.2-4.9-2.1-6.2-0.5c-1.1,1.4,0.7,2.5,3.1,3.1
						c-1.6,0.5-2.7,1.2-2.1,2.5c0.5,1.2,1.8,1.4,3.2,1.1c-0.2,0.5-0.1,1,0.5,1.6c0.8,0.8,1.8,0.9,2.8,0.5c-1.5,2.2-2.6,4.5-3.3,6.6
						c-1.6-4.7-5.9-5.9-5.9-5.9c2.5,4.9,4.4,6.8,5.5,7.5c-0.3,1.4-0.6,2.8-0.7,4c0,0.1,0,0.1-0.1,0.2c-11.8,0.3-22.7,2.8-30.7,6.5
						c-17.1,8-43.3,30.6-40.3,75.6c0.1,1.5,0.2,3.2,0.4,4.9h150c0.1-1,0.1-1.9,0.2-3C153,179.1,135.3,156,112.6,145z"/>
					<path class="st12" d="M145,254.6c0,0-33.9,27.4-59.9,9.1C85,263.7,102.8,240.5,145,254.6z"/>
					<path class="st8" d="M117.3,241.5c0,0-5.3,24-36.6,26.9C80.7,268.4,80.5,257.9,117.3,241.5z"/>
					<path class="st13" d="M0.7,348h150c0.1-1,0.1-1.9,0.2-3c4.6-86.7-77.5-92.7-110.3-77.5c-17.1,7.9-43.3,30.5-40.3,75.6
						C0.3,344.7,0.5,346.3,0.7,348z"/>
					<path d="M59.9,310.6c0,2.8-2.2-2.5-5-2.5s-5,5.2-5,2.5c0-2.8,2.2-5,5-5S59.9,307.8,59.9,310.6z"/>
					<path d="M101.1,310.6c0,2.8-2.2-2.5-5-2.5c-2.8,0-5,5.2-5,2.5s2.2-5,5-5C98.9,305.6,101.1,307.8,101.1,310.6z"/>
					<path d="M85.3,321.6c0,1.4,0.9,9.1-10,9.1c-11,0-10-7.7-10-9.1c0-1.4,4.5-0.2,10-0.2C80.8,321.4,85.3,320.2,85.3,321.6z"/>
					<path class="st6" d="M75.5,323.4h-0.8c-0.7,0-1.3-0.6-1.3-1.3v-0.8h3.5v0.8C76.9,322.8,76.3,323.4,75.5,323.4z"/>
					<path class="st1" d="M66.5,249.4c0,0,5.5,1.5,6.4,7.9C72.9,257.3,70.5,257.1,66.5,249.4z"/>
					<path class="st1" d="M79.8,252.2c0,0,0.3,9.2-8.7,9.3C71.1,261.5,71.6,257.3,79.8,252.2z"/>
					<path class="st10" d="M71.7,267.9c-0.3-0.5-2.5-12.1,5.7-21.5"/>
					<path class="st4" d="M77.5,242.3c0,0-7-5.4-9.3-2.5C65.9,242.7,76.2,244.4,77.5,242.3z"/>
					<path class="st4" d="M77.4,242.2c0,0-9.8-0.2-8.3,3.2C70.5,248.8,78.7,244.5,77.4,242.2z"/>
					<path class="st4" d="M79,242.7c0,0-9,2.6-6.1,5.4C75.7,251,81.2,244.5,79,242.7z"/>
					<path class="st4" d="M79.7,242.2c0,0-3-8.9-5.7-5.9C71.3,239.3,78,244.5,79.7,242.2z"/>
					<path class="st4" d="M79.1,243.2c0,0,9.3-1,7-4.3C83.8,235.7,77.3,241.1,79.1,243.2z"/>
					<path class="st4" d="M79.7,243.9c0,0,3.6-6.7,0.4-7C77,236.7,77.5,244,79.7,243.9z"/>
					<path class="st4" d="M79.7,243.3c0,0,8.1-3.8,9.7-0.4C90.9,246.2,80.5,245.6,79.7,243.3z"/>
					<path class="st4" d="M79.6,242.6c0,0,9.5,1.9,7.4,4.9C84.9,250.5,77.9,244.5,79.6,242.6z"/>
					<path class="st4" d="M79.2,242.1c0,0,5.7,7.4,1.7,8C77,250.7,76.4,242.3,79.2,242.1z"/>
					<path class="st5" d="M84.1,243.4c0.1-1.2-2.1-2.4-5-2.8c-2.9-0.3-5.4,0.4-5.5,1.6c-0.1,1.2,2.1,2.4,5,2.8
						C81.5,245.3,84,244.6,84.1,243.4z"/>
				</g>
			</g>
		</g>
	</g>
</g>
</svg>
