<?xml version="1.0" encoding="utf-8"?>
<!-- Generator: Adobe Illustrator 25.1.0, SVG Export Plug-In . SVG Version: 6.00 Build 0)  -->
<svg version="1.1" id="Layer_1" xmlns="http://www.w3.org/2000/svg" xmlns:xlink="http://www.w3.org/1999/xlink" x="0px" y="0px"
	 viewBox="0 0 290 282" style="enable-background:new 0 0 290 282;" xml:space="preserve">
<style type="text/css">
	.st0{fill:#E9E2DE;}
	.st1{fill:#28C86E;}
	.st2{fill:#FFCF8D;}
	.st3{fill:#FF9F1A;}
	.st4{fill:#DCE3E5;}
	.st5{fill:#00A878;}
	.st6{fill:#FFFFFF;}
	.st7{fill:#D64204;}
	.st8{fill:#FFB753;}
	.st9{fill:#3CDC82;}
	.st10{fill:#00CDDC;}
	.st11{fill:none;stroke:#28C86E;stroke-width:1.5601;stroke-linecap:round;stroke-miterlimit:10;}
	.st12{fill-rule:evenodd;clip-rule:evenodd;fill:#808080;}
	.st13{fill-rule:evenodd;clip-rule:evenodd;fill:#DCE3E5;}
</style>
<g>
	<path class="st0" d="M144.5,282c50.5,0,91.5-6.3,91.5-14s-41-14-91.5-14S53,260.3,53,268S94,282,144.5,282z"/>
	<g>
		<g>
			<g>
				<path class="st1" d="M236.5,94.8c0,0-8.4,15.3-25,3C211.5,97.9,219.9,90.5,236.5,94.8z"/>
				<path class="st1" d="M208.1,120.4c-1.2,0-2.3-0.8-2.6-2c-0.1-0.3-6.2-27,33-49.4c1.3-0.7,2.9-0.3,3.7,1c0.7,1.3,0.3,2.9-1,3.7
					c-35.2,20.1-30.5,43.3-30.5,43.5c0.4,1.4-0.5,2.9-2,3.2C208.5,120.4,208.3,120.4,208.1,120.4z"/>
				<path class="st2" d="M245.9,62.8c0,0-6.5-21.5-15.5-18.9C221.3,46.6,240,65.3,245.9,62.8z"/>
				<path class="st2" d="M245.8,62.5c0,0-19.8-14.8-21.9-5.7C221.8,65.9,245,69.1,245.8,62.5z"/>
				<path class="st2" d="M248.2,65.9c0,0-22.3-8-20.7,2C229.2,78,250,72.8,248.2,65.9z"/>
				<path class="st2" d="M250.5,66c0,0,7.1-22.6-2.9-20.5C237.6,47.6,243.6,68.1,250.5,66z"/>
				<path class="st2" d="M247.7,67.2c0,0,20.6,11.7,20.7,1.6C268.4,58.6,247.1,60,247.7,67.2z"/>
				<path class="st2" d="M247.9,69.4c0,0,17.3-8.6,11.3-13.7C253.2,50.6,243.3,66.3,247.9,69.4z"/>
				<path class="st2" d="M248.9,68.1c0,0,22.1,4.2,20.4,13.4C267.6,90.7,247,74.1,248.9,68.1z"/>
				<path class="st2" d="M249.7,66.5c0,0,16.8,18.1,7.9,21.1C248.7,90.7,243.2,68,249.7,66.5z"/>
				<path class="st2" d="M249.6,65.1c0,0,0.8,23.6-8.3,19S243.5,61.2,249.6,65.1z"/>
				<path class="st3" d="M257.7,74.9c2.1-2.3-0.8-8.1-6.3-13.1c-5.5-5-11.7-7.1-13.7-4.9c-2.1,2.3,0.8,8.1,6.3,13.1
					C249.5,75,255.7,77.2,257.7,74.9z"/>
				<path class="st1" d="M32,163.4c0,0,14.6,7.6,19.6-4.4C51.6,159,45.1,154.8,32,163.4z"/>
				<path class="st1" d="M62.1,183.8c1.2-0.2,2.1-1.2,2.2-2.5c0-0.3,1.5-27.7-41.1-43c-1.4-0.5-2.9,0.2-3.4,1.6
					c-0.5,1.4,0.2,2.9,1.6,3.4C59.6,157.1,59,180.7,59,181c-0.1,1.5,1,2.8,2.5,2.9C61.7,183.8,61.9,183.8,62.1,183.8z"/>
				<path class="st4" d="M251.5,184.7l2.1,18.1c1.1,8.9-5.3,17-14.3,18.1l-1.2,0.1c-7.8,0.9-15-3.7-17.1-11.3l-3.4-28.7l25.3-3
					C247.1,177.4,251,180.5,251.5,184.7z"/>
				<path class="st4" d="M49.3,33.4l3,25.1l-25.9,3c-4.2,0.5-8.1-2.5-8.6-6.8l-2.1-17.5c-1.1-8.9,5.3-17,14.3-18.1l1.2-0.1
					C40.1,18.1,48.2,24.5,49.3,33.4z"/>
				<path class="st5" d="M233.2,205.2l-10.9-92.2h0l-11.6-98.4c-0.1-0.6-0.1-0.6-0.1-0.6c-0.1-0.6-0.1-0.6-0.1-1.2
					c-0.9-7.8-8.3-13.6-16.7-12.6L30.2,19.3c4.2,4.4,6.6,9.5,7.3,15.5l22.5,190.7c0.1,0.6,0.1,0.6,0.1,0.6c0.1,0.6,0.1,0.6,0.1,1.2
					c0.9,7.8,8.3,13.6,16.7,12.6l163.7-19.2C236.4,216.3,233.9,211.1,233.2,205.2z"/>
				<path class="st6" d="M84.7,154.5c6.9,0,12.5-5.6,12.5-12.5c0-6.9-5.6-12.5-12.5-12.5c-6.9,0-12.5,5.6-12.5,12.5
					C72.2,148.9,77.8,154.5,84.7,154.5z"/>
				<path class="st5" d="M84.4,148.2c-0.4,0.1-0.8,0.1-1.2-0.1l-4-1.7c-0.6-0.2-0.9-0.9-0.6-1.5c0.2-0.6,0.9-0.8,1.5-0.6l3.6,1.5
					l4.2-9.8c0.2-0.6,0.9-0.8,1.5-0.6c0.6,0.3,0.9,0.9,0.6,1.5l-4.4,10.3c-0.2,0.4-0.5,0.8-1,1C84.5,148.2,84.4,148.2,84.4,148.2z"
					/>
				<path class="st6" d="M181.3,136.4l-67,7.7c-3.6,0.4-6.9-1.6-7.3-5.2c-0.4-3.6,1.7-6.3,5.3-6.7l67.6-7.8c3.6-0.4,6.3,1.7,6.7,5.3
					C187.1,133.3,184.9,135.9,181.3,136.4z"/>
				<path class="st6" d="M88.1,184.2c6.9,0,12.5-5.6,12.5-12.5c0-6.9-5.6-12.5-12.5-12.5c-6.9,0-12.5,5.6-12.5,12.5
					C75.6,178.6,81.2,184.2,88.1,184.2z"/>
				<path class="st5" d="M87.8,178c-0.4,0.1-0.8,0.1-1.2-0.1l-4-1.7c-0.6-0.2-0.9-0.9-0.6-1.5c0.2-0.6,0.9-0.9,1.5-0.6l3.6,1.5
					l4.2-9.8c0.2-0.6,0.9-0.8,1.5-0.6c0.6,0.2,0.9,0.9,0.6,1.5L89,176.9c-0.2,0.4-0.5,0.8-1,1C87.9,177.9,87.9,178,87.8,178z"/>
				<path class="st6" d="M184.8,166.1l-67,7.7c-3.6,0.4-6.9-1.6-7.3-5.2c-0.4-3.6,1.7-6.3,5.3-6.7l67.6-7.8c3.6-0.4,6.3,1.7,6.7,5.3
					C190.5,163.1,188.4,165.7,184.8,166.1z"/>
				<path class="st6" d="M91.7,215.5c6.9,0,12.5-5.6,12.5-12.5c0-6.9-5.6-12.5-12.5-12.5c-6.9,0-12.5,5.6-12.5,12.5
					C79.2,209.9,84.8,215.5,91.7,215.5z"/>
				<path class="st5" d="M91.4,209.3c-0.4,0.1-0.8,0.1-1.2-0.1l-4-1.7c-0.6-0.2-0.9-0.9-0.6-1.5c0.2-0.6,0.9-0.9,1.5-0.6l3.6,1.5
					l4.2-9.8c0.2-0.6,0.9-0.8,1.5-0.6c0.6,0.2,0.9,0.9,0.6,1.5l-4.4,10.3c-0.2,0.4-0.5,0.8-1,1C91.6,209.2,91.5,209.2,91.4,209.3z"
					/>
				<path class="st6" d="M188.4,197.4l-67,7.7c-3.6,0.4-6.9-1.6-7.3-5.2c-0.4-3.6,1.7-6.3,5.3-6.7l67.6-7.8c3.6-0.4,6.3,1.7,6.7,5.3
					C194.1,194.3,192,197,188.4,197.4z"/>
				<path class="st6" d="M131.6,116.6c26.2,0,47.4-21.2,47.4-47.3c0-26.1-21.2-47.3-47.4-47.3c-26.2,0-47.4,21.2-47.4,47.3
					C84.2,95.4,105.4,116.6,131.6,116.6z"/>
				<path class="st6" d="M204.1,27.9c-0.8,0.1-1.5-0.5-1.6-1.3c-0.4-2.7-0.6-5-0.7-5.2c-0.4-3.4-2.2-6.5-5-8.6
					c-2.8-2.2-6.4-3.1-10.1-2.7c0,0,0,0,0,0l-8.2,1h0c-0.8,0.1-1.5-0.5-1.6-1.3c-0.1-0.8,0.5-1.5,1.3-1.6l8.2-1c0,0,0,0,0,0
					c4.4-0.5,8.7,0.7,12.2,3.3c3.4,2.6,5.6,6.4,6.1,10.6c0,0.2,0.3,2.5,0.7,5.2C205.5,27,204.9,27.8,204.1,27.9
					C204.1,27.9,204.1,27.9,204.1,27.9z"/>
				<path class="st2" d="M26.8,132.8c0,0,8.9-22.4,18.3-18.7C54.5,117.8,32.8,136,26.8,132.8z"/>
				<path class="st2" d="M26.9,132.5c0,0,22.5-13.9,23.9-4C52.1,138.4,27.1,139.5,26.9,132.5z"/>
				<path class="st2" d="M24,135.8c0,0,24.5-6.4,21.8,4.1C43.1,150.5,21.4,143.1,24,135.8z"/>
				<path class="st2" d="M21.5,135.7c0,0-5.4-24.7,5.1-21.6C37,117.3,28.7,138.6,21.5,135.7z"/>
				<path class="st2" d="M24.5,137.3c0,0-23.1,10.6-22.2-0.3C3.1,126.1,25.8,129.7,24.5,137.3z"/>
				<path class="st2" d="M24,139.6c0,0-17.6-10.8-10.7-15.7C20.2,119,29.2,136.7,24,139.6z"/>
				<path class="st2" d="M23.1,138.1c0,0-24,2.4-23.1,12.4C1,160.5,24.5,144.7,23.1,138.1z"/>
				<path class="st2" d="M22.4,136.4c0,0-19.6,17.7-10.4,21.8C21.1,162.3,29.1,138.5,22.4,136.4z"/>
				<path class="st2" d="M22.6,134.8c0,0-3.1,25.1,7.1,21C39.8,151.7,29.4,131.3,22.6,134.8z"/>
				<path class="st3" d="M28.1,140.7c6.4-4.8,9.9-10.8,7.9-13.4c-2-2.6-8.7-0.9-15.1,3.9C14.6,136,11,142,13,144.6
					C15,147.2,21.7,145.4,28.1,140.7z"/>
				<path class="st7" d="M243.3,221.8l20.3,16.4l-2.9-11.1c-0.2-0.7,0.4-1.4,1.1-1.3l11.5,0.5L253,209.8L243.3,221.8z"/>
				<path class="st3" d="M185.2,269.2c7.9,3,17.3,4.1,20.2,0.5l38.8-47.8c-4.3,1.1-12.4-1.1-17.7-3.5L185.2,269.2z"/>
				<path class="st3" d="M232,211.1c7.3,3.2,17,4.9,20.4,0.7l35.5-43.7c-7.4,1.5-17.1-3.5-27.3-11.5l-5.9,7.3
					c2.5,3.4,3.2,4.8,7.1,7.9l0.2,0.2c0.6,0.5,0.7,1.3,0.2,1.9L232,211.1z"/>
				<path class="st8" d="M251.5,163.7l2.6-3.2c0.5-0.6,1.3-0.7,1.9-0.2l0.2,0.2c12.4,10,27,13.5,31.8,7.5c4.7-5.8,0.9-16.7-8.6-24.4
					c-9.5-7.6-21-9.1-25.7-3.3l-5,6.2C245.7,150.1,247.1,156.8,251.5,163.7z"/>
				<path class="st8" d="M227.8,207.2c1.7,1.4,3.5,2.6,5.3,3.6l36.6-45.1c-9.9-8.2-15.7-18.1-15.8-25.6l-34.8,42.9
					C214.5,188.7,218.3,199.6,227.8,207.2z"/>
				<path class="st8" d="M183.9,271.4l43.7-53.8c-1.8-1-3.6-2.2-5.3-3.6c-7.5-6-11.7-14.1-11.5-20.8l-40,49.3
					C166,248.4,172.1,261.5,183.9,271.4z"/>
				<path class="st7" d="M219.3,217.6c9.4,7.6,19.9,10.5,24.6,4.7l9.7-11.9c-6.5,1.6-15.3-0.9-22.8-6.9c-7.5-6-11.7-14.1-11.5-20.8
					l-8.6,10.6C206,199.1,209.9,210,219.3,217.6z"/>
				<path class="st5" d="M157.8,66.8c0,0-16.7,5.7-29-4.6C128.9,62.2,142.5,55.8,157.8,66.8z"/>
				<path class="st9" d="M147.5,59.8c0,0-5.2,4.5-21,4.6C126.5,64.4,130.6,54.6,147.5,59.8z"/>
				<path class="st10" d="M109.4,96.8l52.8-9.6c0-0.3-0.1-0.7-0.1-1.1c-3.9-30.8-33.2-27.7-43.8-20.2c-5.5,3.9-13.3,13.5-9.3,29.2
					C109.1,95.7,109.3,96.3,109.4,96.8z"/>
				<path d="M127.2,78c0.2,1-0.6,1.7-1.6,1.9c-1,0.2-2-0.1-2.2-1.2c-0.2-1,0.5-2,1.5-2.2C126,76.3,127,76.9,127.2,78z"/>
				<path d="M142.6,75.2c0.2,1-0.6,1.7-1.6,1.9c-1,0.2-2-0.1-2.2-1.2c-0.2-1,0.5-2,1.5-2.2C141.5,73.4,142.5,74.1,142.6,75.2z"/>
				<path class="st1" d="M124,57.6c0,0,0.2,3.2,3.4,4.5C127.4,62.1,127.6,60.8,124,57.6z"/>
				<path class="st11" d="M129.7,64.1c-1.6-1.2-4.2-5.2-10.2-2.7"/>
				<path class="st2" d="M118,61.1c0,0-2,4.1-0.1,3.7C119.7,64.4,119.3,60.7,118,61.1z"/>
				<path class="st2" d="M118,60.4c0,0,1.4,4.5,2.5,2.7S118.7,59.1,118,60.4z"/>
				<path class="st2" d="M119,60.2c0,0-4.3,0.8-3.3,2.4C116.7,64.2,119.8,61.3,119,60.2z"/>
				<path class="st2" d="M119.6,62c0,0-0.8-5.3-2.3-3.4C115.8,60.5,118.6,63.5,119.6,62z"/>
				<path class="st2" d="M118.3,60.7c0,0,0.1-3.9,1.8-3.2C121.8,58.2,119.5,61.3,118.3,60.7z"/>
				<path class="st2" d="M118.2,60.1c0,0,3.6-2.2,3.3,0.3C121.2,63,117.9,61.9,118.2,60.1z"/>
				<path class="st3" d="M119.5,61.1c0.3-1,0.1-2-0.5-2.2c-0.6-0.2-1.4,0.4-1.7,1.5c-0.4,1-0.1,2,0.5,2.2
					C118.4,62.8,119.2,62.2,119.5,61.1z"/>
				<path d="M134.9,83.5l0.1,0.5c0,0.2-0.1,0.5-0.3,0.5l-0.5,0.1c-0.2,0-0.5-0.1-0.5-0.3l0-0.5c-0.7,0.5-1.3,1.7-1.2,2.4
					c0.2,0.8,1.4,0.6,2.3,0.4c0.9-0.2,2.4-0.4,2.2-1.3C136.6,84,135.7,83.6,134.9,83.5z"/>
				<path class="st6" d="M134.2,84.9l0.5-0.1c0.2,0,0.4-0.3,0.3-0.5l-0.1-0.8c-0.3,0-0.6,0-0.8,0c-0.2,0-0.3,0.1-0.5,0.2l0.1,0.8
					C133.7,84.8,134,84.9,134.2,84.9z"/>
				<path class="st12" d="M120.9,45.6l-2.8,1.9c-0.3,0.2-0.4,0.7-0.2,1l0,0c0.3,0.4,0.8,0.5,1.2,0.1l2.9-2.9L120.9,45.6z"/>
				<path class="st12" d="M120.2,44.4l-3.3,0.6c-0.4,0.1-0.6,0.4-0.6,0.8l0,0c0.1,0.5,0.6,0.7,1,0.6l3.8-1.5L120.2,44.4z"/>
				<path class="st12" d="M129.4,42.5l3.4-0.6c0.4-0.1,0.6-0.4,0.6-0.8l0,0c-0.1-0.5-0.6-0.8-1-0.6l-3.8,1.5L129.4,42.5z"/>
				<path class="st12" d="M128.5,44.7l3.1,1.4c0.4,0.2,0.8,0,0.9-0.4l0,0c0.2-0.5,0-0.9-0.5-1.1l-4-0.9L128.5,44.7z"/>
				<path class="st12" d="M145.1,48.5l-3.2-1c-0.4-0.1-0.8,0.1-0.9,0.5l0,0c-0.1,0.5,0.2,0.9,0.7,1l4.1,0.4L145.1,48.5z"/>
				<path class="st12" d="M145.6,47.1l-2.6-2.2c-0.3-0.3-0.7-0.2-1,0.1l0,0c-0.3,0.4-0.2,0.9,0.2,1.2l3.6,2L145.6,47.1z"/>
				<path class="st12" d="M152.9,53l2.6,2.2c0.3,0.3,0.7,0.2,1-0.1l0,0c0.3-0.4,0.2-0.9-0.2-1.2l-3.6-2L152.9,53z"/>
				<path class="st12" d="M150.6,53.7l0.9,3.3c0.1,0.4,0.5,0.6,0.9,0.5l0,0c0.5-0.1,0.7-0.6,0.5-1.1l-1.8-3.7L150.6,53.7z"/>
				<path class="st12" d="M103.4,64.4l-1.4,2.7c-0.2,0.3,0,0.7,0.3,0.8l0,0c0.4,0.2,0.8,0,1-0.4l1-3.6L103.4,64.4z"/>
				<path class="st12" d="M102.2,63.7l-2.3,2c-0.3,0.2-0.3,0.6-0.1,0.9l0,0c0.3,0.3,0.8,0.3,1.1,0l2.3-2.9L102.2,63.7z"/>
				<path class="st12" d="M108.5,58.1l2.3-2c0.3-0.2,0.3-0.6,0.1-0.9l0,0c-0.3-0.3-0.8-0.3-1.1,0l-2.3,2.9L108.5,58.1z"/>
				<path class="st12" d="M108.8,60.2l3.1-0.3c0.4,0,0.6-0.3,0.6-0.7l0,0c-0.1-0.5-0.5-0.7-0.9-0.6l-3.5,1.1L108.8,60.2z"/>
				<path class="st13" d="M104,65.1c-0.8,0.3-1.5,0.2-1.9-0.6c-1.1,1.7-3.8,0-2.6-1.5c-0.8-0.5-0.9-1.2-0.3-1.9
					c-0.5-0.9-0.5-1.6,0.6-2c-0.4-1.3,0.1-2,1.4-1.8c0-1.2,0.6-1.7,1.7-1.3c0.2-0.9,0.7-1.2,1.5-0.8l0.8-0.6
					c-0.2-0.1-0.4-0.3-0.5-0.5c0,0-0.1,0.1-0.1,0.1c-0.5,0.3-1,0.3-1.2,0s0.1-0.8,0.5-1.1c0.3-0.2,0.5-0.2,0.8-0.2
					c0.4-0.6,1.3-1.1,2.3-1.1c1.4,0,2.5,0.7,2.5,1.6c0,0.7-0.8,1.4-1.8,1.6c1,0.5,0.9,1.1,0.5,1.7c0.8,0.1,1,0.5,0.7,1.1
					c0.9-0.1,1,1,0.2,1.7c0.3,0.3-0.5,2-0.9,2.1c0.3,0.7-0.1,1.3-1,1.1c0.1,0.8-0.1,1.4-1.2,1l-1.1,0.7L104,65.1z"/>
				<path class="st13" d="M121.2,46.7c-1-0.2-1.5-0.7-1.5-1.6c-2,1-3.6-2.1-1.7-2.9c-0.5-0.9-0.2-1.6,0.8-2c0-1.1,0.4-1.8,1.7-1.6
					c0.4-1.5,1.2-1.9,2.3-1c0.7-1.2,1.5-1.3,2.4-0.3c0.8-0.8,1.4-0.8,1.8,0l1.1-0.1c-0.1-0.2-0.2-0.5-0.2-0.7c-0.1,0-0.1,0-0.2,0
					c-0.6,0-1.1-0.3-1.1-0.7c0-0.4,0.5-0.7,1.1-0.7c0.3,0,0.7,0.1,0.9,0.2c0.7-0.4,1.8-0.3,2.8,0.3c1.3,0.8,2,2.1,1.5,2.9
					c-0.4,0.7-1.5,0.9-2.7,0.5c0.6,1,0.3,1.6-0.5,2c0.7,0.5,0.6,1,0,1.5c0.9,0.4,0.4,1.5-0.7,1.8c0.1,0.5-1.6,1.7-2.1,1.5
					c-0.1,0.8-0.8,1.2-1.5,0.5c-0.4,0.9-0.9,1.2-1.7,0.3l-1.5,0.1L121.2,46.7z"/>
				<path class="st13" d="M144.4,49.3c-0.5-0.8-0.4-1.6,0.3-2.1c-2.1-0.9-0.7-4.1,1.2-3.1c0.4-1,1.1-1.2,2.1-0.7
					c0.9-0.7,1.7-0.9,2.3,0.3c1.4-0.6,2.2-0.3,2.2,1.2c1.4-0.2,2,0.3,1.8,1.6c1.1,0.1,1.5,0.6,1.2,1.4l0.8,0.7
					c0.1-0.3,0.3-0.5,0.4-0.6c0,0-0.1-0.1-0.1-0.1c-0.4-0.5-0.5-1-0.2-1.3c0.3-0.3,0.9-0.1,1.3,0.4c0.2,0.2,0.4,0.6,0.4,0.8
					c0.7,0.3,1.4,1.2,1.6,2.4c0.3,1.5-0.3,2.9-1.3,3c-0.8,0.2-1.6-0.6-2.1-1.7c-0.4,1.1-1.1,1.2-1.8,0.9c0,0.9-0.4,1.1-1.1,0.9
					c0.3,1-0.9,1.2-1.9,0.6c-0.3,0.3-2.3-0.2-2.5-0.6c-0.7,0.4-1.5,0.2-1.4-0.9c-0.9,0.3-1.5,0.1-1.3-1.1l-1-1.1L144.4,49.3z"/>
				<path class="st3" d="M166,88l-60.3,10.5c-0.6,0.1-1.2-0.3-1.3-0.9v0c-0.1-0.6,0.3-1.2,0.9-1.3l60.3-10.5
					c0.6-0.1,1.2,0.3,1.3,0.9v0C167,87.3,166.6,87.9,166,88z"/>
			</g>
		</g>
	</g>
</g>
</svg>
