<?xml version="1.0" encoding="utf-8"?>
<!-- Generator: Adobe Illustrator 25.1.0, SVG Export Plug-In . SVG Version: 6.00 Build 0)  -->
<svg version="1.1" id="Layer_1" xmlns="http://www.w3.org/2000/svg" xmlns:xlink="http://www.w3.org/1999/xlink" x="0px" y="0px"
	 viewBox="0 0 301 279" style="enable-background:new 0 0 301 279;" xml:space="preserve">
<style type="text/css">
	.st0{fill:#E9E2DE;}
	.st1{clip-path:url(#SVGID_2_);}
	.st2{fill:#FFCF8D;}
	.st3{fill:#28C86E;}
	.st4{fill:#FF9F1A;}
	.st5{fill:#80E6ED;}
	.st6{fill:#CCF6F4;}
	.st7{fill:#00CDDC;}
	.st8{fill:#FFFFFF;}
	.st9{fill:#40D9E5;}
</style>
<g>
	<g>
		<g>
			<path class="st0" d="M150.5,279c50.5,0,91.5-6.3,91.5-14s-41-14-91.5-14S59,257.3,59,265S100,279,150.5,279z"/>
			<g>
				<defs>
					<rect id="SVGID_1_" width="301" height="231"/>
				</defs>
				<clipPath id="SVGID_2_">
					<use xlink:href="#SVGID_1_"  style="overflow:visible;"/>
				</clipPath>
				<g class="st1">
					<path class="st2" d="M294.5,231c-0.5,0-0.9-0.2-1.4-0.5l-14.2-11.2c-0.9-0.7-1.1-2.1-0.4-3.1c0.7-0.9,2.1-1.1,3.1-0.4
						l14.2,11.2c0.9,0.7,1.1,2.1,0.4,3.1C295.8,230.7,295.1,231,294.5,231z"/>
					<path class="st2" d="M279.1,16.4c-0.7,0-1.3-0.3-1.7-0.8c-0.7-1-0.6-2.3,0.4-3.1l15.4-12c1-0.7,2.3-0.6,3.1,0.4
						c0.7,1,0.6,2.3-0.4,3.1l-15.4,12C280.1,16.3,279.6,16.4,279.1,16.4z"/>
					<path class="st3" d="M263.1,114.2c0,0,6.9,6.3,3.5,16.2C266.5,130.4,263.2,128.4,263.1,114.2z"/>
					<path class="st3" d="M281.7,129.3c0,0-6.3,13.6-19.4,7C262.3,136.4,266.1,130.7,281.7,129.3z"/>
					<path class="st3" d="M258.4,147.5c-0.7,0-1.2-0.6-1.3-1.3c-0.2-1.4,5.2-20.4,24.9-28.4c0.7-0.3,1.4,0,1.7,0.7
						c0.3,0.7,0,1.5-0.7,1.7c-17.4,7.1-23.1,23.7-23.3,25.9c0.1,0.7-0.4,1.3-1.2,1.4C258.5,147.5,258.4,147.5,258.4,147.5z"/>
					<path class="st2" d="M287.3,113.2c0,0-2.1-14.3-8.1-13.4C273.2,100.7,283.3,114.3,287.3,113.2z"/>
					<path class="st2" d="M287.2,113.1c0,0-11.2-11.2-13.3-5.6C271.7,113,286.2,117.1,287.2,113.1z"/>
					<path class="st2" d="M288.5,115.4c0,0-13.4-7.2-13.3-0.6C275.3,121.3,289,120,288.5,115.4z"/>
					<path class="st2" d="M289.9,115.7c0,0,6.6-13.7,0-13.3S285.4,116.4,289.9,115.7z"/>
					<path class="st2" d="M288,116.2c0,0,12,9.4,12.9,2.9C301.9,112.6,288.3,111.6,288,116.2z"/>
					<path class="st2" d="M287.9,117.6c0,0,11.7-3.8,8.4-7.7S285.3,115.2,287.9,117.6z"/>
					<path class="st2" d="M288.7,116.8c0,0,13.6,4.7,11.7,10.4C298.4,133,286.9,120.5,288.7,116.8z"/>
					<path class="st2" d="M289.3,116c0,0,9,13.1,3.1,14.2C286.5,131.2,285.1,116.3,289.3,116z"/>
					<path class="st2" d="M289.4,115c0,0-1.7,15.1-7,11.3C277.1,122.5,286,112,289.4,115z"/>
					<path class="st4" d="M293.6,122c1.5-1.3,0.3-5.2-2.8-8.9c-3-3.7-6.7-5.6-8.2-4.4c-1.5,1.3-0.3,5.2,2.8,8.9
						C288.5,121.3,292.1,123.3,293.6,122z"/>
					<path class="st2" d="M11,230.2c-0.7,0-1.3-0.3-1.7-0.8c-0.7-1-0.6-2.3,0.4-3.1l15.4-12c1-0.7,2.3-0.6,3.1,0.4
						c0.7,1,0.6,2.3-0.4,3.1l-15.4,12C11.9,230.1,11.5,230.2,11,230.2z"/>
					<path class="st2" d="M25.1,15.6c-0.5,0-0.9-0.2-1.4-0.5L9.6,3.9C8.7,3.2,8.5,1.8,9.2,0.9c0.7-0.9,2.1-1.1,3.1-0.4l14.2,11.2
						c0.9,0.7,1.1,2.1,0.4,3.1C26.4,15.3,25.8,15.6,25.1,15.6z"/>
					<path class="st3" d="M37.9,48.7c0,0-6.9,6.3-3.5,16.2C34.4,64.9,37.8,63,37.9,48.7z"/>
					<path class="st3" d="M19.3,63.8c0,0,6.3,13.6,19.4,7C38.7,70.9,34.9,65.2,19.3,63.8z"/>
					<path class="st3" d="M42.6,82c0,0-0.1,0-0.2,0c-0.7-0.1-1.2-0.7-1.2-1.3c-0.2-2.2-5.9-18.7-23.3-25.8c-0.7-0.3-1-1.1-0.7-1.7
						c0.3-0.7,1.1-1,1.7-0.7c19.6,8,25,27.1,24.9,28.4C43.9,81.5,43.3,82,42.6,82z"/>
					<path class="st2" d="M13.7,47.7c0,0,2.1-14.3,8.1-13.4C27.8,35.2,17.7,48.8,13.7,47.7z"/>
					<path class="st2" d="M13.7,47.6c0,0,11.2-11.2,13.3-5.6C29.2,47.5,14.8,51.6,13.7,47.6z"/>
					<path class="st2" d="M12.5,49.9c0,0,13.4-7.2,13.3-0.6C25.6,55.8,12,54.5,12.5,49.9z"/>
					<path class="st2" d="M11.1,50.2c0,0-6.6-13.7,0-13.3C17.6,37.3,15.6,50.9,11.1,50.2z"/>
					<path class="st2" d="M13,50.7c0,0-12,9.4-12.9,2.9C-0.9,47.1,12.7,46.1,13,50.7z"/>
					<path class="st2" d="M13.1,52.1c0,0-11.7-3.8-8.4-7.7C8,40.6,15.7,49.7,13.1,52.1z"/>
					<path class="st2" d="M12.3,51.4c0,0-13.6,4.7-11.7,10.4S14.1,55,12.3,51.4z"/>
					<path class="st2" d="M11.7,50.5c0,0-9,13.1-3.1,14.2S15.9,50.8,11.7,50.5z"/>
					<path class="st2" d="M11.6,49.5c0,0,1.7,15.1,7,11.3C23.9,57,15,46.5,11.6,49.5z"/>
					<path class="st4" d="M15.6,52.2c3-3.7,4.3-7.6,2.8-8.9c-1.5-1.3-5.2,0.7-8.2,4.4c-3,3.7-4.3,7.6-2.8,8.9
						C8.9,57.8,12.5,55.8,15.6,52.2z"/>
					<path class="st5" d="M256.5,213.4H47.4c-5.6,0-10.1-4.6-10.1-10.2V38.5c0-2.3,1.9-4.2,4.2-4.2h221c2.3,0,4.2,1.9,4.2,4.2v164.8
						C266.6,208.9,262.1,213.4,256.5,213.4z"/>
					<path class="st6" d="M222.1,200.9H62c-8.6,0-15.5-6.9-15.5-15.5V33.3h209.5v132.1L222.1,200.9z"/>
					<path class="st7" d="M256,165.2h-17.2c-9.3,0-16.8,7.5-16.8,16.8v18.9L256,165.2z"/>
					<path class="st8" d="M205.9,125.5c0.9,29.5-21,50.9-50.5,50.9s-57.6-16.8-57.6-46.4c0-29.5,25.6-60.9,55.6-58.7
						C182.9,73.6,205,92.1,205.9,125.5z"/>
					<path class="st7" d="M141.5,151.9c-1.4,0-2.8-0.5-4-1.4l-15.5-14c-1.6-1.5-1.8-4-0.3-5.7c1.5-1.6,4-1.8,5.7-0.3l13.8,12.6
						L177,97.9c1.4-1.7,3.9-2,5.6-0.7s2,3.9,0.7,5.6l-36.9,46.7C145.1,151.2,143.3,151.9,141.5,151.9z"/>
					<path class="st9" d="M258.1,21.9H45.8c-3.4,0-6.6,2.6-7.9,7.1c-0.4,1.4-0.6,3-0.6,4.7v4.4h229.4v-4.4c0-1.6-0.2-3.2-0.6-4.7
						C264.7,24.6,261.4,21.9,258.1,21.9z"/>
					<path class="st6" d="M62.2,34.7c2.8,0,5.1-2.3,5.1-5.1s-2.3-5.1-5.1-5.1c-2.8,0-5.1,2.3-5.1,5.1S59.4,34.7,62.2,34.7z"/>
					<path class="st6" d="M218.2,34.7c2.8,0,5.1-2.3,5.1-5.1s-2.3-5.1-5.1-5.1c-2.8,0-5.1,2.3-5.1,5.1S215.4,34.7,218.2,34.7z"/>
					<path class="st7" d="M62.9,31.9c-0.4,0-0.9-0.3-1-0.7c-0.7-1.9-1.1-3.8-1.1-5.8c0-8.8,7.1-15.9,15.9-15.9
						c7.3,0,13.7,5,15.4,12.1c0.2,0.6-0.2,1.2-0.8,1.3c-0.6,0.1-1.2-0.2-1.3-0.8c-1.5-6.2-7-10.4-13.3-10.4
						c-7.5,0-13.7,6.2-13.7,13.7c0,1.7,0.3,3.4,0.9,5c0.2,0.6,0,1.2-0.6,1.4C63.2,31.9,63,31.9,62.9,31.9z"/>
					<path class="st7" d="M218.3,31.9c-0.4,0-0.9-0.3-1-0.7c-0.7-1.9-1.1-3.8-1.1-5.8c0-8.8,7.1-15.9,15.9-15.9
						c7.3,0,13.7,5,15.4,12.1c0.2,0.6-0.2,1.2-0.8,1.3c-0.6,0.1-1.2-0.2-1.3-0.8c-1.5-6.2-7-10.4-13.3-10.4
						c-7.5,0-13.7,6.2-13.7,13.7c0,1.7,0.3,3.4,0.9,5c0.2,0.6,0,1.2-0.6,1.4C218.5,31.9,218.4,31.9,218.3,31.9z"/>
					<path class="st8" d="M245.2,68.5c-0.6,0-1.1-0.5-1.1-1.1V51.5c0-3-2.5-5.5-5.5-5.5h-16.2c-0.6,0-1.1-0.5-1.1-1.1
						c0-0.6,0.5-1.1,1.1-1.1h16.2c4.2,0,7.7,3.5,7.7,7.7v15.9C246.3,68,245.8,68.5,245.2,68.5z"/>
				</g>
			</g>
		</g>
	</g>
</g>
</svg>
