<?xml version="1.0" encoding="utf-8"?>
<!-- Generator: Adobe Illustrator 25.1.0, SVG Export Plug-In . SVG Version: 6.00 Build 0)  -->
<svg version="1.1" id="Layer_1" xmlns="http://www.w3.org/2000/svg" xmlns:xlink="http://www.w3.org/1999/xlink" x="0px" y="0px"
	 viewBox="0 0 205.2 244" style="enable-background:new 0 0 205.2 244;" xml:space="preserve">
<style type="text/css">
	.st0{fill:#E9E2DE;}
	.st1{fill:#FFCF8D;}
	.st2{fill:#FFC069;}
	.st3{fill:#28C86E;}
	.st4{fill:#FF9F1A;}
</style>
<g>
	<path class="st0" d="M103.5,244c50.5,0,91.5-6.3,91.5-14s-41-14-91.5-14S12,222.3,12,230S53,244,103.5,244z"/>
	<path class="st1" d="M32.2,0l26,89.1l54.3-21.5L94.1,0H32.2z"/>
	<path class="st2" d="M116.7,0L96.5,67.2L149.7,81l25.8-81H116.7z"/>
	<path class="st3" d="M46.5,68.4c0,0,3.8,10.1-5.6,14.9C41.1,83.1,38.1,77.6,46.5,68.4z"/>
	<path class="st3" d="M25.2,80c0,0,7.4,9.3,16.8,6.9C42,86.9,38.8,80.5,25.2,80z"/>
	<path class="st3" d="M47,106.6c-0.3,0-0.6-0.1-0.8-0.2c-1-0.4-1.4-1.6-1-2.6c0.7-2.7-0.3-19.7-21.6-37.7c-0.8-0.7-1-2-0.2-2.8
		c0.7-0.8,2-1,2.8-0.2c24.6,20.8,23.7,40.1,22.7,42.3C48.5,106.1,47.8,106.6,47,106.6z"/>
	<path class="st1" d="M20.2,56.7c0,0,7.3-16.2,14-13.2C41,46.6,24.5,59.2,20.2,56.7z"/>
	<path class="st1" d="M20.3,56.5c0,0,16.9-9.5,17.7-2.2C38.6,61.6,20.2,61.7,20.3,56.5z"/>
	<path class="st1" d="M18,58.9c0,0,18.2-4,15.9,3.7C31.6,70.3,15.9,64.1,18,58.9z"/>
	<path class="st1" d="M16.2,58.7c0,0-3.2-18.4,4.4-15.7C28.2,45.6,21.4,61,16.2,58.7z"/>
	<path class="st1" d="M18.3,60c0,0-17.2,7.1-16.3-0.9C3,51.1,19.5,54.4,18.3,60z"/>
	<path class="st1" d="M17.9,61.7c0,0-12.6-8.5-7.4-11.9C15.8,46.4,21.8,59.7,17.9,61.7z"/>
	<path class="st1" d="M17.3,60.5c0,0-17.7,1-17.3,8.4C0.4,76.3,18.1,65.4,17.3,60.5z"/>
	<path class="st1" d="M16.8,59.2c0,0-14.9,12.4-8.4,15.7C15.1,78.2,21.7,61,16.8,59.2z"/>
	<path class="st1" d="M17,58.1c0,0-3,18.4,4.5,15.7C29.1,71,22.2,55.7,17,58.1z"/>
	<path class="st4" d="M20.9,62.5c4.8-3.3,7.6-7.6,6.2-9.6c-1.4-2-6.4-0.9-11.2,2.4C11.1,58.7,8.3,63,9.7,65
		C11.1,66.9,16.1,65.9,20.9,62.5z"/>
	<path class="st3" d="M158.7,68.4c0,0-3.8,10.1,5.6,14.9C164.1,83.1,167.1,77.6,158.7,68.4z"/>
	<path class="st3" d="M180,80c0,0-7.4,9.3-16.8,6.9C163.2,86.9,166.4,80.5,180,80z"/>
	<path class="st3" d="M158.3,106.7c-0.8,0-1.6-0.5-1.9-1.3c-1-2.2-1.9-21.6,22.7-42.3c0.8-0.7,2.1-0.6,2.8,0.2
		c0.7,0.8,0.6,2.1-0.2,2.8c-21.4,18-22.3,35.1-21.6,37.7c0.5,1,0,2.1-1,2.6C158.8,106.6,158.5,106.7,158.3,106.7z"/>
	<path class="st1" d="M185,56.7c0,0-7.3-16.2-14-13.2C164.2,46.6,180.7,59.2,185,56.7z"/>
	<path class="st1" d="M184.9,56.5c0,0-16.9-9.5-17.7-2.2C166.6,61.6,185,61.7,184.9,56.5z"/>
	<path class="st1" d="M187.2,58.9c0,0-18.2-4-15.9,3.7C173.6,70.3,189.3,64.1,187.2,58.9z"/>
	<path class="st1" d="M189,58.7c0,0,3.2-18.4-4.4-15.7C177,45.6,183.8,61,189,58.7z"/>
	<path class="st1" d="M186.9,60c0,0,17.2,7.1,16.3-0.9C202.2,51.1,185.7,54.4,186.9,60z"/>
	<path class="st1" d="M187.3,61.7c0,0,12.6-8.5,7.4-11.9C189.4,46.4,183.4,59.7,187.3,61.7z"/>
	<path class="st1" d="M187.9,60.5c0,0,17.7,1,17.3,8.4C204.8,76.3,187.1,65.4,187.9,60.5z"/>
	<path class="st1" d="M188.4,59.2c0,0,14.9,12.4,8.4,15.7C190.1,78.2,183.5,61,188.4,59.2z"/>
	<path class="st1" d="M188.2,58.1c0,0,3,18.4-4.5,15.7C176.1,71,183,55.7,188.2,58.1z"/>
	<path class="st4" d="M195.5,64.9c1.4-2-1.4-6.3-6.2-9.6c-4.8-3.3-9.8-4.4-11.2-2.4c-1.4,2,1.4,6.3,6.2,9.6
		C189.1,65.9,194.1,66.9,195.5,64.9z"/>
	<path class="st4" d="M169.9,137.9c2.3-2.8,5.1-6.4,5.1-11c0-4.6-2.8-8.2-5.1-11c-1-1.3-2.3-2.8-2.6-3.8c-0.3-1,0.3-3.1,0.8-4.6
		c0.8-3.6,1.8-7.9-0.3-12c-2-4.1-6.1-6.1-9.2-7.7c-1.5-0.8-3.3-1.5-4.1-2.3c-0.5-0.8-1-2.8-1.5-4.3c-0.8-3.6-1.8-7.9-5.4-10.7
		c-3.6-2.8-7.9-2.8-11.5-2.8c-1.8,0-3.8,0-4.6-0.5c-0.8-0.3-2-2-3.1-3.3c-2.3-2.8-5.1-6.4-9.5-7.4c-0.8-0.3-1.5-0.3-2.6-0.3
		c-3.3,0-6.4,1.5-9.2,2.8c-1.5,0.8-3.6,1.8-4.6,1.8c-1,0-2.8-1-4.6-1.8c-2.6-1.3-5.6-2.8-9.2-2.8c-0.8,0-1.8,0-2.6,0.3
		c-4.6,1-7.4,4.6-9.5,7.4c-1,1.3-2.3,3.1-3.1,3.3c-0.8,0.5-3.1,0.5-4.6,0.5c-3.6,0-8.2,0-11.5,2.8c-3.6,2.8-4.6,7.2-5.4,10.7
		c-0.3,1.5-0.8,3.8-1.5,4.3c-0.5,0.8-2.6,1.5-4.1,2.3c-3.3,1.5-7.4,3.6-9.2,7.7c-2,4.1-1,8.4-0.3,12c0.5,1.8,0.8,3.8,0.8,4.6
		c-0.3,0.8-1.5,2.6-2.6,3.8c-2.3,2.8-5.1,6.4-5.1,11c0,4.6,2.8,8.2,5.1,11c1,1.3,2.3,2.8,2.6,3.8c0.3,1-0.3,3.1-0.8,4.6
		c-0.8,3.6-1.8,7.9,0.3,12c2,4.1,6.1,6.1,9.2,7.7c1.5,0.8,3.3,1.5,4.1,2.3c0.5,0.8,1,2.8,1.5,4.3c0.8,3.6,1.8,7.9,5.4,10.7
		c3.6,2.8,7.9,2.8,11.5,2.8c1.8,0,3.8,0,4.6,0.5c0.8,0.3,2,2,3.1,3.3c2.3,2.8,5.1,6.4,9.5,7.4c0.8,0.3,1.5,0.3,2.6,0.3
		c3.3,0,6.4-1.5,9.2-2.8c1.5-0.8,3.6-1.8,4.6-1.8c1,0,2.8,1,4.6,1.8c2.6,1.3,5.6,2.8,9.2,2.8c0.8,0,1.8,0,2.6-0.3
		c4.6-1,7.4-4.6,9.5-7.4c1-1.3,2.3-3.1,3.1-3.3c0.8-0.5,3.1-0.5,4.6-0.5c3.6,0,8.2,0,11.5-2.8c3.6-2.8,4.6-7.2,5.4-10.7
		c0.3-1.5,0.8-3.8,1.5-4.3c0.5-0.8,2.6-1.5,4.1-2.3c3.3-1.5,7.4-3.6,9.2-7.7c2-4.1,1-8.4,0.3-12c-0.5-1.8-0.8-3.8-0.8-4.6
		C167.6,141,168.9,139.2,169.9,137.9z M102.8,171.4c-24.5,0-44.5-19.9-44.5-44.4c0-24.5,19.9-44.5,44.5-44.5
		c24.5,0,44.5,19.9,44.5,44.5C147.2,151.5,127.3,171.4,102.8,171.4z"/>
	<path class="st1" d="M105.8,98.7l6.6,13.5c0.5,1,1.4,1.7,2.5,1.8l14.9,2.2c2.8,0.4,3.9,3.8,1.9,5.7l-10.8,10.5
		c-0.8,0.8-1.2,1.9-1,3l2.6,14.8c0.5,2.7-2.4,4.8-4.9,3.6l-13.3-7c-1-0.5-2.1-0.5-3.1,0l-13.3,7c-2.5,1.3-5.3-0.8-4.9-3.6l2.6-14.8
		c0.2-1.1-0.2-2.2-1-3l-10.8-10.5c-2-1.9-0.9-5.3,1.9-5.7l14.9-2.2c1.1-0.2,2-0.8,2.5-1.8l6.7-13.5C101,96.2,104.5,96.2,105.8,98.7z
		"/>
</g>
</svg>
