<?xml version="1.0" encoding="utf-8"?>
<!-- Generator: Adobe Illustrator 25.1.0, SVG Export Plug-In . SVG Version: 6.00 Build 0)  -->
<svg version="1.1" id="Layer_1" xmlns="http://www.w3.org/2000/svg" xmlns:xlink="http://www.w3.org/1999/xlink" x="0px" y="0px"
	 viewBox="0 0 215 212" style="enable-background:new 0 0 215 212;" xml:space="preserve">
<style type="text/css">
	.st0{fill:#E9E2DE;}
	.st1{fill:#00CDDC;}
	.st2{fill:#28C86E;}
	.st3{fill:#3CDC82;}
	.st4{fill:#32DCD2;}
	.st5{fill:#FFFFFF;}
	.st6{fill:none;stroke:#28C86E;stroke-width:1.237;stroke-linecap:round;stroke-miterlimit:10;}
	.st7{fill:#FFCF8D;}
	.st8{fill:#FF9F1A;}
	.st9{fill:#CCF6F4;}
	.st10{fill:#F8FFFF;}
</style>
<g>
	<path class="st0" d="M107.5,212c50.5,0,91.5-6.3,91.5-14s-41-14-91.5-14S16,190.3,16,198S57,212,107.5,212z"/>
	<g>
		<g>
			<path class="st1" d="M62.9,115.9c0.6,3.2-0.9,11.1-10.7,7.8C36.8,118.9-7.5,95.9,16.1,76c10.3-8.7,19.7,4.7,26.9,16.8
				C51.2,106.5,62.9,116.2,62.9,115.9z"/>
			<path class="st1" d="M152.1,115.9c-0.6,3.2,0.9,11.1,10.7,7.8c15.4-4.8,59.8-27.8,36.2-47.8c-10.3-8.7-19.7,4.7-26.9,16.8
				C163.8,106.5,152.2,116.2,152.1,115.9z"/>
			<path class="st2" d="M163.5,34.8c0,0-35.4,28.3-61.9,10.2C101.6,45,120.2,21.3,163.5,34.8z"/>
			<path class="st3" d="M136.7,20.9c0,0-5.8,26.1-39.8,29.3C96.9,50.3,96.7,38.8,136.7,20.9z"/>
			<path class="st4" d="M77.2,47c-15,7.4-38,28.4-35.4,70.2c0.7,11.2,2.3,31.1,8.8,42.9c6.5,11.8-7,15.7-3.6,26.9
				c5.9,19.1,12.4-5.4,59.6-9.5c28.3-2.5,58.7,29.1,59.7,8c0.4-7.9-8.9-12.4-4.9-24.9c5-15.5,11.3-17.7,12.5-41.7
				C177.9,38.5,105.9,32.9,77.2,47z"/>
			<path d="M113.4,102.2c0,1.4,1.1,8.9-9.3,8.9s-10.5-7.5-10.5-8.9c0-1.4,4.4-0.2,9.9-0.2C108.9,102,113.4,100.8,113.4,102.2z"/>
			<path class="st5" d="M103.9,104.1h-1.1c-0.6,0-1.2-0.5-1.2-1.2v-0.9h3.4v0.9C105.1,103.5,104.6,104.1,103.9,104.1z"/>
			<path class="st2" d="M90.2,17.9c0,0,7.6,2.1,8.8,10.9C99,28.8,95.8,28.6,90.2,17.9z"/>
			<path class="st2" d="M109.4,22.7c0,0,0.5,12.7-11.9,12.7C97.5,35.5,98.1,29.7,109.4,22.7z"/>
			<path class="st6" d="M98.2,44.3c-0.5-0.7-3.4-16.6,7.8-29.6"/>
			<path class="st7" d="M106.2,9c0,0-9.7-7.4-12.8-3.4C90.3,9.7,104.4,12,106.2,9z"/>
			<path class="st7" d="M106.1,8.9c0,0-13.4-0.3-11.4,4.4C96.7,18,107.8,12,106.1,8.9z"/>
			<path class="st7" d="M108.2,9.7c0,0-12.3,3.5-8.4,7.4C103.7,21,111.2,12.1,108.2,9.7z"/>
			<path class="st7" d="M109.3,8.9c0,0-4.1-12.2-7.8-8.1C97.8,4.9,106.9,12,109.3,8.9z"/>
			<path class="st7" d="M108.4,10.4c0,0,12.8-1.3,9.6-5.9C114.8,0,105.9,7.4,108.4,10.4z"/>
			<path class="st7" d="M109.2,11.3c0,0,4.9-9.3,0.6-9.6C105.6,1.3,106.2,11.4,109.2,11.3z"/>
			<path class="st7" d="M109.2,10.4c0,0,11.1-5.2,13.2-0.5C124.6,14.5,110.3,13.7,109.2,10.4z"/>
			<path class="st7" d="M109.1,9.5c0,0,13.1,2.7,10.2,6.8C116.4,20.4,106.7,12.1,109.1,9.5z"/>
			<path class="st7" d="M108.6,8.8c0,0,7.8,10.2,2.4,11C105.5,20.6,104.7,9.1,108.6,8.8z"/>
			<path class="st8" d="M115.3,10.6c0.2-1.7-2.9-3.4-6.9-3.8c-4-0.4-7.4,0.5-7.6,2.2c-0.2,1.7,2.9,3.4,6.9,3.8
				C111.7,13.3,115.1,12.3,115.3,10.6z"/>
			<path d="M124,94.6c2.4,0,4.3-1.9,4.3-4.3c0-2.4-1.9-4.3-4.3-4.3c-2.4,0-4.3,1.9-4.3,4.3C119.6,92.6,121.6,94.6,124,94.6z"/>
			<path d="M83.3,94.6c2.4,0,4.3-1.9,4.3-4.3c0-2.4-1.9-4.3-4.3-4.3c-2.4,0-4.3,1.9-4.3,4.3C78.9,92.6,80.9,94.6,83.3,94.6z"/>
			<path class="st9" d="M206.9,99.7l-27-24.4l-4.6,5.1l27,24.4L206.9,99.7z"/>
			<path class="st8" d="M179.4,66.5l-1.2,1.3l0,0l-5.8,6.4c-0.2,0.2-0.5,0.2-0.7,0s-0.2-0.5,0-0.7l5.7-6.3c-1.2-0.6-2.7-1-3.3-0.3
				l-7.8,8.7c-0.7,0.8,0.2,2.9,1.3,4.1l-1.2,1.3c-0.8,0.9-0.4,2.5,0.7,3.5l2.6,2.4c0.3,0.3,0.7,0.3,0.9,0.1l15.2-16.9
				c0.2-0.2,0.1-0.6-0.2-0.9l-2.6-2.4C181.7,65.8,180.1,65.6,179.4,66.5z"/>
			<path class="st10" d="M171.6,74.3c0.2,0.2,0.5,0.2,0.7,0l5.8-6.4c-0.3-0.2-0.5-0.4-0.9-0.6l-5.7,6.3
				C171.4,73.8,171.4,74.1,171.6,74.3z"/>
			<path class="st8" d="M210.3,92.4l-15.2,16.9c-0.2,0.2-0.1,0.6,0.2,0.9l2.6,2.4c1.2,1.1,2.8,1.2,3.6,0.4l1.2-1.3
				c1.2,1,3.4,1.7,4.2,0.9l7.8-8.7c0.6-0.6,0.1-2.1-0.7-3.3l-1.8,2c-0.2,0.2-0.5,0.2-0.7,0c-0.2-0.2-0.2-0.5,0-0.7l1.9-2.1l1.2-1.3
				c0.8-0.9,0.5-2.5-0.7-3.5l-2.6-2.4C210.9,92.3,210.5,92.2,210.3,92.4z"/>
			<path class="st10" d="M211.5,102.6c0.2,0.2,0.5,0.2,0.7,0l1.8-2c-0.2-0.3-0.4-0.6-0.6-0.8l-1.9,2.1
				C211.3,102.1,211.3,102.5,211.5,102.6z"/>
			<path class="st1" d="M193.1,94.5c2.7,2.8,7.2,2.7,9.8-0.1c5.8-6.1,5.8-10.5-4-18.5c-5.3-4.3-10.4-3.6-16.1,1.9
				c-1.6,1.6-1.7,4.2-0.2,5.9C186,87.7,192.1,93.5,193.1,94.5z"/>
			<path class="st9" d="M12.7,104.8l27-24.4l-4.6-5.1l-27,24.4L12.7,104.8z"/>
			<path class="st8" d="M35.7,66.5l1.2,1.3l0,0l5.8,6.4c0.2,0.2,0.5,0.2,0.7,0c0.2-0.2,0.2-0.5,0-0.7l-5.7-6.3
				c1.2-0.6,2.7-1,3.3-0.3l7.8,8.7c0.7,0.8-0.2,2.9-1.3,4.1l1.2,1.3c0.8,0.9,0.4,2.5-0.7,3.5l-2.6,2.4c-0.3,0.3-0.7,0.3-0.9,0.1
				L29.3,70.1c-0.2-0.2-0.1-0.6,0.2-0.9l2.6-2.4C33.3,65.8,34.9,65.6,35.7,66.5z"/>
			<path class="st10" d="M43.4,74.3c-0.2,0.2-0.5,0.2-0.7,0l-5.8-6.4c0.3-0.2,0.5-0.4,0.9-0.6l5.7,6.3
				C43.6,73.8,43.6,74.1,43.4,74.3z"/>
			<path class="st8" d="M4.7,92.4l15.2,16.9c0.2,0.2,0.1,0.6-0.2,0.9l-2.6,2.4c-1.2,1.1-2.8,1.2-3.6,0.4l-1.2-1.4
				c-1.2,1-3.4,1.7-4.2,0.9l-7.8-8.7c-0.6-0.6-0.1-2.1,0.7-3.3l1.8,2c0.2,0.2,0.5,0.2,0.7,0c0.2-0.2,0.2-0.5,0-0.7l-1.9-2.1
				l-1.2-1.3C-0.4,97.6,0,96,1.2,94.9l2.6-2.4C4.1,92.3,4.5,92.2,4.7,92.4z"/>
			<path class="st10" d="M3.5,102.6c-0.2,0.2-0.5,0.2-0.7,0l-1.8-2c0.2-0.3,0.4-0.6,0.6-0.8l1.9,2.1C3.8,102.1,3.7,102.5,3.5,102.6z
				"/>
			<path class="st1" d="M21.7,94.5c-2.7,2.8-7.2,2.7-9.8-0.1c-5.8-6.1-5.8-10.5,4-18.5c5.3-4.3,10.4-3.6,16.1,1.9
				c1.6,1.6,1.7,4.2,0.2,5.9C28.8,87.7,22.7,93.5,21.7,94.5z"/>
			<path class="st5" d="M138.9,65.3c0,0,3.5,14.3,9.4,10.9C150.9,74.7,151.8,65.9,138.9,65.3z"/>
		</g>
	</g>
</g>
</svg>
