<?xml version="1.0" encoding="utf-8"?>
<!-- Generator: Adobe Illustrator 25.1.0, SVG Export Plug-In . SVG Version: 6.00 Build 0)  -->
<svg version="1.1" id="Layer_1" xmlns="http://www.w3.org/2000/svg" xmlns:xlink="http://www.w3.org/1999/xlink" x="0px" y="0px"
	 viewBox="0 0 265 292" style="enable-background:new 0 0 265 292;" xml:space="preserve">
<style type="text/css">
	.st0{fill:#E9E2DE;}
	.st1{fill:#FFCF8D;}
	.st2{fill:#28C86E;}
	.st3{fill:#FF9F1A;}
	.st4{fill:#FFFFFF;}
	.st5{fill:#00CDDC;}
	.st6{fill:#FFE7C6;}
</style>
<g>
	<path class="st0" d="M132.5,292c50.5,0,91.5-6.3,91.5-14s-41-14-91.5-14S41,270.3,41,278S81.9,292,132.5,292z"/>
	<path class="st1" d="M236.3,33.4c-0.9,0-1.8-0.4-2.4-1.2c-1-1.3-0.8-3.2,0.5-4.3l21.3-16.6c1.3-1,3.2-0.8,4.3,0.5
		c1,1.3,0.8,3.2-0.5,4.3l-21.3,16.6C237.6,33.1,236.9,33.4,236.3,33.4z"/>
	<path class="st1" d="M36.9,34.8c-0.7,0-1.3-0.2-1.9-0.6L15.4,18.7c-1.3-1-1.6-2.9-0.5-4.3c1-1.3,3-1.6,4.3-0.5l19.7,15.4
		c1.3,1,1.6,2.9,0.5,4.3C38.7,34.4,37.8,34.8,36.9,34.8z"/>
	<path class="st1" d="M15.6,244.4c-0.9,0-1.8-0.4-2.4-1.2c-1-1.3-0.8-3.2,0.5-4.3l21.3-16.6c1.3-1,3.2-0.8,4.3,0.5
		c1,1.3,0.8,3.2-0.5,4.3l-21.3,16.6C16.9,244.2,16.3,244.4,15.6,244.4z"/>
	<path class="st1" d="M255.9,241.8c-0.7,0-1.3-0.2-1.9-0.6l-19.7-15.4c-1.3-1-1.6-2.9-0.5-4.3c1-1.3,3-1.5,4.3-0.5l19.7,15.4
		c1.3,1,1.6,2.9,0.5,4.3C257.7,241.4,256.8,241.8,255.9,241.8z"/>
	<path class="st2" d="M212.4,171.6c0,0,9.5,8.7,4.8,22.4C217.2,194,212.5,191.2,212.4,171.6z"/>
	<path class="st2" d="M238.2,192.5c0,0-8.8,18.8-26.9,9.7C211.3,202.2,216.5,194.3,238.2,192.5z"/>
	<path class="st2" d="M205.8,217.6c-0.9,0-1.7-0.8-1.8-1.7c-0.2-1.9,7.3-28.2,34.5-39.3c0.9-0.4,2,0.1,2.4,1c0.4,0.9-0.1,2-1,2.4
		c-24.1,9.8-32,32.8-32.3,35.7c0.1,1-0.6,1.8-1.6,1.9C206,217.6,205.9,217.6,205.8,217.6z"/>
	<path class="st1" d="M245.9,170.2c0,0-2.9-19.7-11.2-18.6C226.4,152.8,240.5,171.6,245.9,170.2z"/>
	<path class="st1" d="M245.9,170c0,0-15.5-15.5-18.5-7.8C224.4,169.9,244.4,175.6,245.9,170z"/>
	<path class="st1" d="M247.6,173.2c0,0-18.6-9.9-18.4-0.9C229.4,181.4,248.3,179.6,247.6,173.2z"/>
	<path class="st1" d="M249.6,173.6c0,0,9.1-18.9,0.1-18.4C240.6,155.7,243.3,174.5,249.6,173.6z"/>
	<path class="st1" d="M246.9,174.3c0,0,16.6,12.9,18,4C266.3,169.3,247.3,167.9,246.9,174.3z"/>
	<path class="st1" d="M246.8,176.3c0,0,16.3-5.3,11.7-10.6C253.9,160.4,243.2,172.9,246.8,176.3z"/>
	<path class="st1" d="M247.9,175.2c0,0,18.9,6.5,16.2,14.4C261.4,197.5,245.5,180.3,247.9,175.2z"/>
	<path class="st1" d="M248.8,174c0,0,12.4,18,4.3,19.6C244.9,195.1,243,174.4,248.8,174z"/>
	<path class="st1" d="M248.9,172.7c0,0-2.3,20.9-9.7,15.6C231.8,183,244.1,168.5,248.9,172.7z"/>
	<path class="st3" d="M254.8,182.4c2.1-1.7,0.4-7.2-3.8-12.3c-4.2-5.1-9.3-7.8-11.4-6c-2.1,1.7-0.4,7.2,3.8,12.3
		C247.6,181.4,252.7,184.1,254.8,182.4z"/>
	<path class="st2" d="M52.6,75.6c0,0-9.5,8.7-4.8,22.4C47.8,98,52.4,95.3,52.6,75.6z"/>
	<path class="st2" d="M26.7,96.5c0,0,8.8,18.8,26.9,9.7C53.7,106.2,48.5,98.3,26.7,96.5z"/>
	<path class="st2" d="M59.1,121.5c-0.1,0-0.1,0-0.2,0c-0.9-0.1-1.6-0.9-1.6-1.9C57,116.6,49.1,93.8,25,84c-0.9-0.4-1.4-1.5-1-2.4
		c0.4-0.9,1.5-1.4,2.4-1c27.3,11.1,34.7,37.4,34.5,39.3C60.9,120.8,60.1,121.5,59.1,121.5z"/>
	<path class="st1" d="M19,74.2c0,0,2.9-19.7,11.2-18.6C38.5,56.8,24.5,75.6,19,74.2z"/>
	<path class="st1" d="M19,74c0,0,15.5-15.5,18.5-7.8C40.6,73.9,20.6,79.6,19,74z"/>
	<path class="st1" d="M17.4,77.2c0,0,18.6-9.9,18.4-0.9C35.6,85.4,16.7,83.6,17.4,77.2z"/>
	<path class="st1" d="M15.4,77.6c0,0-9.1-18.9-0.1-18.4C24.3,59.8,21.7,78.6,15.4,77.6z"/>
	<path class="st1" d="M18,78.3c0,0-16.6,12.9-18,4C-1.3,73.4,17.6,71.9,18,78.3z"/>
	<path class="st1" d="M18.1,80.3c0,0-16.3-5.3-11.7-10.6C11.1,64.4,21.7,77,18.1,80.3z"/>
	<path class="st1" d="M17.1,79.2c0,0-18.9,6.5-16.2,14.4C3.5,101.5,19.5,84.3,17.1,79.2z"/>
	<path class="st1" d="M16.2,78c0,0-12.4,18-4.3,19.6C20.1,99.1,22,78.4,16.2,78z"/>
	<path class="st1" d="M16,76.7c0,0,2.3,20.9,9.7,15.6C33.1,87,20.9,72.5,16,76.7z"/>
	<path class="st3" d="M21.6,80.4c4.2-5.1,5.9-10.6,3.8-12.3s-7.2,1-11.4,6c-4.2,5.1-5.9,10.6-3.8,12.3
		C12.3,88.1,17.4,85.4,21.6,80.4z"/>
	<path class="st4" d="M223.2,29.3v212.2c0,3-2.5,5.5-5.5,5.5H53c-3,0-5.5-2.5-5.5-5.5V29.3c0-3,2.5-5.5,5.5-5.5h164.7
		C220.7,23.9,223.2,26.3,223.2,29.3z"/>
	<path class="st5" d="M214.2,66.6c-0.9,0-1.5-0.7-1.5-1.5V44.9c0-2.2-1.8-3.9-4-3.9h-11.1c-0.9,0-1.5-0.7-1.5-1.5
		c0-0.9,0.7-1.5,1.5-1.5h11.1c3.9,0,7,3.1,7,7v20.1C215.7,65.9,215,66.6,214.2,66.6z"/>
	<path class="st5" d="M172.5,12.3h-17.2c-1.7,0-3-1.3-3-3V3.7c0-2.1-1.7-3.7-3.7-3.7h-13.1h-0.1h-13.1c-2.1,0-3.7,1.7-3.7,3.7v5.6
		c0,1.7-1.4,3-3,3H98.2c-2.1,0-3.7,1.7-3.7,3.7v14c0,2.1,1.7,3.7,3.7,3.7h37.1h0.1h37.1c2.1,0,3.7-1.7,3.7-3.7v-14
		C176.2,14,174.5,12.3,172.5,12.3z"/>
	<path class="st3" d="M111.1,121.1c-1.7,0.1-3,1.5-2.9,3.2c0.1,1.7,1.5,3,3.2,2.9h80.2c1.7,0,3.1-1.3,3.1-3c0-1.7-1.3-3.1-3-3.1
		c0,0-0.1,0-0.1,0h-80.2C111.3,121.1,111.2,121.1,111.1,121.1z"/>
	<path class="st3" d="M97.7,124.1c0,5.9-4.8,10.7-10.7,10.7c-5.9,0-10.7-4.8-10.7-10.7c0-5.9,4.8-10.7,10.7-10.7
		C92.9,113.4,97.7,118.2,97.7,124.1z"/>
	<path class="st3" d="M111.1,150.4c-1.7,0.1-3,1.5-2.9,3.2c0.1,1.7,1.5,3,3.2,2.9h80.2c1.7,0,3.1-1.3,3.1-3c0-1.7-1.3-3.1-3-3.1
		c0,0-0.1,0-0.1,0h-80.2C111.3,150.4,111.2,150.4,111.1,150.4z"/>
	<path class="st3" d="M97.7,153.5c0,5.9-4.8,10.7-10.7,10.7c-5.9,0-10.7-4.8-10.7-10.7c0-5.9,4.8-10.7,10.7-10.7
		C92.9,142.8,97.7,147.6,97.7,153.5z"/>
	<path class="st3" d="M111.1,181.2c-1.7,0.1-3,1.5-2.9,3.2c0.1,1.7,1.5,3,3.2,2.9h80.2c1.7,0,3.1-1.3,3.1-3c0-1.7-1.3-3.1-3-3.1
		c0,0-0.1,0-0.1,0h-80.2C111.3,181.2,111.2,181.2,111.1,181.2z"/>
	<path class="st3" d="M97.7,184.2c0,5.9-4.8,10.7-10.7,10.7c-5.9,0-10.7-4.8-10.7-10.7c0-5.9,4.8-10.7,10.7-10.7
		C92.9,173.6,97.7,178.3,97.7,184.2z"/>
	<path class="st3" d="M111.1,210.5c-1.7,0.1-3,1.5-2.9,3.2c0.1,1.7,1.5,3,3.2,2.9h80.2c1.7,0,3.1-1.3,3.1-3c0-1.7-1.3-3.1-3-3.1
		c0,0-0.1,0-0.1,0h-80.2C111.3,210.5,111.2,210.5,111.1,210.5z"/>
	<path class="st3" d="M97.7,213.5c0,5.9-4.8,10.7-10.7,10.7c-5.9,0-10.7-4.8-10.7-10.7c0-5.9,4.8-10.7,10.7-10.7
		C92.9,202.9,97.7,207.7,97.7,213.5z"/>
	<path class="st4" d="M172,25.9c-0.5,0-0.9-0.4-0.9-0.9v-6.3c0-1.3-1-2.3-2.3-2.3h-7.1c-0.5,0-0.9-0.4-0.9-0.9
		c0-0.5,0.4-0.9,0.9-0.9h7.1c2.2,0,4.1,1.8,4.1,4v6.3C172.9,25.5,172.5,25.9,172,25.9z"/>
	<path class="st4" d="M84.9,129.5c-0.3,0-0.5-0.1-0.8-0.3l-3-2.7c-0.3-0.3-0.3-0.8-0.1-1.1c0.3-0.3,0.8-0.3,1.1-0.1l2.6,2.4l6.9-8.6
		c0.3-0.3,0.8-0.4,1.1-0.1c0.3,0.3,0.4,0.8,0.1,1.1l-7.1,8.9C85.5,129.4,85.2,129.5,84.9,129.5z"/>
	<path class="st4" d="M84.9,159.1c-0.3,0-0.5-0.1-0.8-0.3l-3-2.7c-0.3-0.3-0.3-0.8-0.1-1.1c0.3-0.3,0.8-0.3,1.1-0.1l2.6,2.4l6.9-8.6
		c0.3-0.3,0.8-0.4,1.1-0.1c0.3,0.3,0.4,0.8,0.1,1.1l-7.1,8.9C85.5,159,85.2,159.1,84.9,159.1z"/>
	<path class="st4" d="M84.9,189.7c-0.3,0-0.5-0.1-0.8-0.3l-3-2.7c-0.3-0.3-0.3-0.8-0.1-1.1c0.3-0.3,0.8-0.3,1.1-0.1l2.6,2.4l6.9-8.6
		c0.3-0.3,0.8-0.4,1.1-0.1c0.3,0.3,0.4,0.8,0.1,1.1l-7.1,8.9C85.5,189.6,85.2,189.7,84.9,189.7z"/>
	<path class="st4" d="M84.9,218.8c-0.3,0-0.5-0.1-0.8-0.3l-3-2.7c-0.3-0.3-0.3-0.8-0.1-1.1c0.3-0.3,0.8-0.3,1.1-0.1l2.6,2.4l6.9-8.6
		c0.3-0.3,0.8-0.4,1.1-0.1c0.3,0.3,0.4,0.8,0.1,1.1l-7.1,8.9C85.5,218.7,85.2,218.8,84.9,218.8z"/>
	<path class="st3" d="M132.9,71.7H187c1.7,0,3-1.4,3-3c0-1.7-1.4-3-3-3h-54.1c-1.7,0-3,1.4-3,3C129.8,70.4,131.2,71.7,132.9,71.7z"
		/>
	<path class="st3" d="M132.9,82.8h38.7c1.7,0,3-1.4,3-3c0-1.7-1.4-3-3-3h-38.7c-1.7,0-3,1.4-3,3C129.8,81.5,131.2,82.8,132.9,82.8z"
		/>
	<path class="st3" d="M86.8,99.3c14.6,0,26.5-11.8,26.5-26.4s-11.9-26.4-26.5-26.4S60.3,58.2,60.3,72.8S72.2,99.3,86.8,99.3z"/>
	<path class="st1" d="M86.7,60.5l-11.9,5.1l-3.7-14c3.7-2.7,8-4.5,12.9-5l4,13.9L86.7,60.5z"/>
	<path class="st6" d="M102.6,51.6l-5,13.9l-8.7-5.1l-1.8-1.7l3.7-12C95.2,47.4,99.2,49.1,102.6,51.6z"/>
	<path class="st4" d="M105.7,77.4c0.6-0.8,1.4-1.8,1.4-3.1c0-1.3-0.8-2.3-1.4-3.1c-0.3-0.4-0.6-0.8-0.7-1.1
		c-0.1-0.3,0.1-0.8,0.2-1.3c0.2-1,0.5-2.2-0.1-3.4c-0.6-1.2-1.7-1.7-2.6-2.2c-0.4-0.2-0.9-0.4-1.2-0.6c-0.2-0.2-0.3-0.8-0.4-1.2
		c-0.2-1-0.5-2.2-1.5-3c-1-0.8-2.2-0.8-3.2-0.8c-0.5,0-1.1,0-1.3-0.2c-0.2-0.1-0.6-0.6-0.9-0.9c-0.6-0.8-1.4-1.8-2.6-2.1
		c-0.2-0.1-0.4-0.1-0.7-0.1c-0.9,0-1.8,0.4-2.6,0.8c-0.4,0.2-1,0.5-1.3,0.5c-0.3,0-0.8-0.3-1.3-0.5c-0.7-0.4-1.6-0.8-2.6-0.8
		c-0.2,0-0.5,0-0.7,0.1c-1.3,0.3-2.1,1.3-2.6,2.1c-0.3,0.4-0.6,0.9-0.9,0.9c-0.2,0.2-0.9,0.2-1.3,0.2c-1,0-2.3,0-3.2,0.8
		c-1,0.8-1.3,2-1.5,3c-0.1,0.4-0.2,1.1-0.4,1.2c-0.2,0.2-0.7,0.4-1.2,0.6c-0.9,0.4-2.1,1-2.6,2.2c-0.6,1.2-0.3,2.4-0.1,3.4
		c0.2,0.5,0.2,1.1,0.2,1.3c-0.1,0.2-0.4,0.7-0.7,1.1c-0.6,0.8-1.4,1.8-1.4,3.1c0,1.3,0.8,2.3,1.4,3.1c0.3,0.4,0.6,0.8,0.7,1.1
		c0.1,0.3-0.1,0.9-0.2,1.3c-0.2,1-0.5,2.2,0.1,3.4c0.6,1.2,1.7,1.7,2.6,2.2c0.4,0.2,0.9,0.4,1.2,0.6c0.2,0.2,0.3,0.8,0.4,1.2
		c0.2,1,0.5,2.2,1.5,3c1,0.8,2.2,0.8,3.2,0.8c0.5,0,1.1,0,1.3,0.2c0.2,0.1,0.6,0.6,0.9,0.9c0.6,0.8,1.4,1.8,2.6,2.1
		c0.2,0.1,0.4,0.1,0.7,0.1c0.9,0,1.8-0.4,2.6-0.8c0.4-0.2,1-0.5,1.3-0.5c0.3,0,0.8,0.3,1.3,0.5c0.7,0.4,1.6,0.8,2.6,0.8
		c0.2,0,0.5,0,0.7-0.1c1.3-0.3,2.1-1.3,2.6-2.1c0.3-0.4,0.6-0.9,0.9-0.9c0.2-0.2,0.9-0.2,1.3-0.2c1,0,2.3,0,3.2-0.8
		c1-0.8,1.3-2,1.5-3c0.1-0.4,0.2-1.1,0.4-1.2c0.2-0.2,0.7-0.4,1.2-0.6c0.9-0.4,2.1-1,2.6-2.2c0.6-1.2,0.3-2.4,0.1-3.4
		c-0.2-0.5-0.2-1.1-0.2-1.3C105,78.2,105.4,77.7,105.7,77.4z M86.8,86.8c-6.9,0-12.5-5.6-12.5-12.5c0-6.9,5.6-12.5,12.5-12.5
		c6.9,0,12.5,5.6,12.5,12.5C99.3,81.2,93.7,86.8,86.8,86.8z"/>
	<path class="st6" d="M87.6,66.4l1.9,3.8c0.2,0.3,0.4,0.5,0.7,0.5l4.2,0.6c0.8,0.1,1.1,1.1,0.5,1.6l-3,2.9c-0.2,0.2-0.3,0.5-0.3,0.8
		l0.7,4.2c0.1,0.8-0.7,1.4-1.4,1l-3.7-2c-0.3-0.2-0.6-0.2-0.9,0l-3.7,2c-0.7,0.4-1.5-0.2-1.4-1l0.7-4.2c0.1-0.3-0.1-0.6-0.3-0.8
		l-3-2.9c-0.5-0.5-0.2-1.5,0.5-1.6l4.2-0.6c0.3,0,0.6-0.2,0.7-0.5l1.9-3.8C86.3,65.7,87.3,65.7,87.6,66.4z"/>
</g>
</svg>
