<?xml version="1.0" encoding="utf-8"?>
<!-- Generator: Adobe Illustrator 25.1.0, SVG Export Plug-In . SVG Version: 6.00 Build 0)  -->
<svg version="1.1" id="Layer_1" xmlns="http://www.w3.org/2000/svg" xmlns:xlink="http://www.w3.org/1999/xlink" x="0px" y="0px"
	 viewBox="0 0 283 202" style="enable-background:new 0 0 283 202;" xml:space="preserve">
<style type="text/css">
	.st0{fill:#E9E2DE;}
	.st1{clip-path:url(#SVGID_2_);}
	.st2{fill:#00A878;}
	.st3{fill:#6DE5A1;}
	.st4{fill:#00CDDC;}
	.st5{fill:#28C86E;}
	.st6{fill:#3CDC82;}
	.st7{fill:#32DCD2;}
	.st8{fill:none;stroke:#28C86E;stroke-width:2.7238;stroke-linecap:round;stroke-miterlimit:10;}
	.st9{fill:#FFCF8D;}
	.st10{fill:#FF9F1A;}
</style>
<g>
	<path class="st0" d="M141.5,202c78.1,0,141.5-6.3,141.5-14s-63.4-14-141.5-14S0,180.3,0,188S63.4,202,141.5,202z"/>
	<g>
		<defs>
			<rect id="SVGID_1_" x="21" width="244" height="188"/>
		</defs>
		<clipPath id="SVGID_2_">
			<use xlink:href="#SVGID_1_"  style="overflow:visible;"/>
		</clipPath>
		<g class="st1">
			<path class="st2" d="M265,155.7L265,155.7L265,155.7L265,155.7z"/>
			<path class="st2" d="M265,155.7c-49-5.5-106.1,8.2-122,22.3c-15.9-14.1-73-27.8-122-22.3c-1.4,19,66.9,34.2,113.1,32.1
				c5.9-0.3,11.9-0.3,17.8,0C198.1,189.9,266.4,174.7,265,155.7z"/>
			<path class="st2" d="M21,155.7L21,155.7L21,155.7L21,155.7z"/>
			<path class="st3" d="M131.1,177.8c19.8-53.1-38.2-119.3-83-116.7C30,101.3,73.3,177.4,131.1,177.8z"/>
			<path class="st3" d="M127.7,175.1C167.1,134.3,140.2,50.5,98.1,35C65.4,64.6,74.8,151.7,127.7,175.1z"/>
			<path class="st3" d="M153.8,177.8c-19.8-53.1,38.2-119.3,83-116.7C254.9,101.3,211.6,177.4,153.8,177.8z"/>
			<path class="st3" d="M157.2,175.1C117.8,134.3,144.6,50.5,186.8,35C219.4,64.6,210.1,151.7,157.2,175.1z"/>
			<path class="st3" d="M141.6,0c-57.1,40.7-46.2,148.9,0.1,177.4C188,148.9,198.7,40.7,141.6,0z"/>
			<path class="st3" d="M142.4,179.3c19.5,0,35.3-9.6,35.3-21.5c0-11.9-15.8-21.5-35.3-21.5s-35.3,9.6-35.3,21.5
				C107.1,169.6,122.9,179.3,142.4,179.3z"/>
			<path class="st4" d="M183.5,144.5c0.4,2,3.1,3.3,5.8,2.8c13.9-2.8,36.2-10.5,30-28.8C214.6,104.6,179.8,124,183.5,144.5z"/>
			<path class="st4" d="M101.4,144.7c-0.4,2-3.1,3.3-5.8,2.8c-13.9-2.8-36.2-10.5-30-28.8C70.3,104.8,105.1,124.2,101.4,144.7z"/>
			<path class="st5" d="M198.9,89.8c0,0-36.6,1.3-51.5-27.4C147.5,62.5,189,55.5,198.9,89.8z"/>
			<path class="st6" d="M186,59.9c0,0-15.1,16.6-44.7,4.7C141.3,64.6,150,51.4,186,59.9z"/>
			<path class="st7" d="M116.9,66.7c-12.4,5.7-31.3,22.1-29.1,54.7c0.6,8.7,1.9,24.2,7.2,33.4c5.3,9.2-10.4,15.4-2,19.1
				c9.1,4.1,33.5,7.7,52.8,6.9c23.5-1,48.7-2.8,45.6-13.7c-1.2-4.3-6.7,0.9-3.4-8.9c4.1-12.1,7.5-16.8,8.5-35.5
				C199.8,60.1,140.5,55.7,116.9,66.7z"/>
			<path d="M126.5,100c0,1.7-0.5-1.2-4.5-1.2c-4,0-4.5,2.9-4.5,1.2c0-1.7,2-3.1,4.5-3.1C124.5,96.9,126.5,98.3,126.5,100z"/>
			<path d="M160.2,100c0,1.7-0.5-1.2-4.5-1.2c-4,0-4.5,2.9-4.5,1.2c0-1.7,2-3.1,4.5-3.1S160.2,98.3,160.2,100z"/>
			<path d="M144.2,111c0,0.8-2.3,1.8-5.3,1.8c-3,0-5.4-1-5.4-1.8c0-0.8,2.5,0.3,5.5,0.3C141.9,111.3,144.2,110.2,144.2,111z"/>
			<path class="st5" d="M132.4,52.7c0,0-1.1,4.5,2.2,7.4C134.7,60.2,135.4,58.4,132.4,52.7z"/>
			<path class="st5" d="M145,55.7c0,0-7.9-3.7-11.3,4.1C133.7,59.8,137.5,61,145,55.7z"/>
			<path class="st8" d="M140.1,66.9c-0.4-0.7-5-13.7-23.8-6.7"/>
			<path class="st9" d="M114,59.4c0,0-7.4-9-3.6-12.1C114.1,44.2,116.7,57.6,114,59.4z"/>
			<path class="st9" d="M113.9,59.3c0,0-0.7-12.7,3.8-11C122.2,50,116.9,60.9,113.9,59.3z"/>
			<path class="st9" d="M114.6,61.3c0,0,3-11.8,6.8-8.2C125.2,56.6,117.1,64.1,114.6,61.3z"/>
			<path class="st9" d="M114,62.3c0,0-11.7-3.5-7.9-7.1C109.8,51.5,116.8,60,114,62.3z"/>
			<path class="st9" d="M115.3,61.4c0,0-0.9,12.2-5.3,9.3C105.7,67.8,112.4,59.1,115.3,61.4z"/>
			<path class="st9" d="M116.2,62.2c0,0-8.6,4.9-9.1,0.9C106.6,59,116.2,59.3,116.2,62.2z"/>
			<path class="st9" d="M115.3,62.2c0,0-4.6,10.7-0.1,12.6C119.7,76.7,118.5,63.1,115.3,62.2z"/>
			<path class="st9" d="M114.5,62.1c0,0,2.9,12.4,6.8,9.5C125.1,68.7,116.9,59.8,114.5,62.1z"/>
			<path class="st9" d="M113.8,61.7c0,0,9.9,7.1,10.5,1.9C125,58.3,113.9,57.9,113.8,61.7z"/>
			<path class="st10" d="M115.7,68c1.6-0.2,2.4-3.5,1.8-7.3c-0.5-3.8-2.2-6.7-3.8-6.4c-1.6,0.2-2.4,3.5-1.8,7.3
				C112.5,65.3,114.2,68.2,115.7,68z"/>
		</g>
	</g>
</g>
</svg>
