<svg width="24" height="24" viewBox="0 0 24 24" fill="none" xmlns="http://www.w3.org/2000/svg">
<path d="M14.3614 17.7537L16.9261 15.189C17.2687 14.8464 17.8077 14.7987 18.2052 15.0759L21.756 17.5524C22.2665 17.9085 22.3312 18.6395 21.891 19.0797L21.5047 19.466C20.7945 20.1762 19.7753 20.4839 18.8192 20.1761C16.7542 19.5114 12.9973 17.968 9.88236 14.8531C6.76739 11.7381 5.22401 7.98119 4.55931 5.91624C4.25153 4.96009 4.5592 3.94094 5.26946 3.23068L5.65572 2.84442C6.09589 2.40425 6.82694 2.46889 7.18304 2.97947L9.65949 6.53021C9.9367 6.92768 9.88904 7.46671 9.54638 7.80937L6.98174 10.374" stroke="#D64204" stroke-width="2" stroke-linecap="round"/>
</svg>