<?xml version="1.0" encoding="utf-8"?>
<!-- Generator: Adobe Illustrator 25.1.0, SVG Export Plug-In . SVG Version: 6.00 Build 0)  -->
<svg version="1.1" id="Layer_1" xmlns="http://www.w3.org/2000/svg" xmlns:xlink="http://www.w3.org/1999/xlink" x="0px" y="0px"
	 viewBox="0 0 328.2 262.5" style="enable-background:new 0 0 328.2 262.5;" xml:space="preserve">
<style type="text/css">
	.st0{fill:#FFFFFF;}
	.st1{fill:#00CDDC;}
	.st2{fill:#808080;}
	.st3{fill:#3CDC82;}
	.st4{fill:#32DCD2;}
	.st5{fill:#F8D1C0;}
	.st6{fill:#40D9E5;}
	.st7{fill:none;stroke:#FFFFFF;stroke-width:0.2774;stroke-linecap:round;stroke-miterlimit:10;}
	.st8{fill:#CCF6F4;}
</style>
<g>
	<g>
		<path class="st0" d="M328.1,188.4c0-170.2,2.2-170.3-26.6-180.1c-26.5-9-158.2-8.7-194.9-8C70.4,1,12.1-1.4,5.8,24.8
			c-6.3,25.8-5.2,58.7-5.2,105c0,72.9-5.1,120.1,13.3,126.1c36.9,12.1,170.6,4.1,216.1,3C276.9,257.7,328.1,262.7,328.1,188.4z"/>
		<path class="st1" d="M28.3,142.7c0.2-0.1,0.8-0.2,1.6-0.2c1,0,1.6,0.1,2,0.3c0.3,0.2,0.6,0.4,0.9,0.8c0.3,0.4,0.4,0.7,0.5,1.1
			c0,0.1,0,0.2,0,0.4c0,0.3-0.2,0.6-0.5,1.1c-0.5,0.5-0.9,0.8-1.2,0.8c-0.4,0-0.7-0.2-1-0.6s-0.6-0.6-0.9-0.6
			c-0.2,0-0.5,0.2-0.8,0.6s-0.4,0.8-0.4,1.2c0,0.5,0.2,1.2,0.5,2.3c0.3,1.1,0.6,1.8,0.9,2.2c0.3,0.5,0.8,1.2,1.3,2.2
			c0.6,1.1,0.9,1.8,1,1.8c0.1,0.1,0.2,0.4,0.2,0.6c0,0.4,0.1,0.9,0.3,1.4s0.4,1.1,0.5,1.8c0,0.1,0,0.3,0,0.7c0,1.5-0.3,2.7-0.9,3.4
			c-0.2,0.4-0.7,0.7-1.3,1s-1.2,0.5-1.7,0.5c-0.6,0-1.4-0.3-2.3-1c-0.9-0.7-1.4-1.4-1.7-2.1c-0.2-0.5-0.2-0.8,0-1.1
			c0.4-0.5,0.8-0.8,1.4-0.8c0.1,0,0.3,0,0.4,0.1c0.2,0.1,0.4,0.5,0.8,1c0.4,0.6,0.8,0.8,1.1,0.8c0.2,0,0.4-0.1,0.5-0.4
			c0.1-0.2,0.1-0.4,0.1-0.8c0-1-0.2-1.9-0.6-2.9c-0.2-0.6-0.4-1-0.4-1.3c0-0.1-0.3-0.9-1-2.3c-0.5-1.1-1-2.1-1.4-3.1
			c-0.7-2-1-3.4-1-4.2c0-1.1,0.3-2.1,1-2.9C27.1,143.6,27.7,143,28.3,142.7z"/>
		<path class="st1" d="M39.6,142.5c0.1,0,0.3,0,0.5,0c1,0,1.4,0.1,1.4,0.2s0.1,0.2,0.2,0.5c0.2,0.5,0.3,0.8,0.3,1.2
			c0,1.1,0.2,2.9,0.8,5.4c0.1,1,0.3,2,0.6,2.9s0.4,1.4,0.5,1.4s0.1-0.1,0.1-0.3c0-0.8,0.6-1.3,1.7-1.7c0.5-0.1,0.9-0.2,1.1-0.2
			c0.4,0,0.8,0.2,1,0.5s0.5,0.9,0.7,1.7c0.2,0.6,0.3,0.9,0.4,0.8s0.2-0.7,0.4-1.9c0.2-1.2,0.4-2.1,0.4-2.8c0.1-0.4,0.1-0.9,0.2-1.6
			s0.2-1.4,0.3-2.2c0.2-1.5,0.3-2.3,0.4-2.6c0.1-0.3,0.5-0.6,1-0.8c0.5-0.2,1-0.4,1.4-0.4s0.7,0.2,1,0.5s0.4,0.7,0.4,1.1v0.1
			c0,0.1,0,0.1,0,0.1c-0.7,3.8-1.3,7.4-1.7,10.9c-0.3,2.5-0.5,4.2-0.6,5.3c-0.1,1.1-0.3,2-0.5,2.8s-0.4,1.3-0.6,1.4
			c-0.2,0.2-0.5,0.3-0.8,0.3c-0.1,0-0.4,0-0.7,0c-0.9,0-1.5-0.1-1.7-0.5c-0.1-0.1-0.3-0.6-0.6-1.4s-0.5-1.4-0.6-1.9
			c-0.1-0.3-0.2-0.5-0.4-0.6c-0.1,0-0.2,0.1-0.2,0.4c0,0.5-0.2,1.1-0.4,1.8c-0.3,0.7-0.6,1.2-0.9,1.5s-0.6,0.5-0.9,0.5
			c-0.2,0-0.4,0-0.5,0c-0.9-0.2-1.5-0.5-1.8-0.9s-0.5-1.2-0.7-2.6c-1-7.2-1.7-12.3-2.2-15.1c-0.2-1.1-0.3-2-0.3-2.6
			c0-0.4,0.1-0.8,0.3-1C39,142.7,39.3,142.6,39.6,142.5z"/>
		<path class="st1" d="M60.1,141.8c0.3-0.4,0.8-0.6,1.3-0.6s0.9,0.2,1.3,0.6l0.6,0.5l0.2,9.5c0.1,5.2,0.2,8.2,0.2,9c0,0.4,0,0.8,0,1
			c0,0.3,0,0.5,0,0.7s-0.1,0.3-0.1,0.4c-0.1,0.1-0.1,0.2-0.1,0.2s-0.1,0.1-0.2,0.1c-0.1,0.1-0.2,0.1-0.2,0.1
			c-0.3,0.2-0.6,0.3-0.8,0.3c-0.1,0-0.4-0.1-0.8-0.2c-0.7-0.3-1.1-0.5-1.1-0.7c-0.1-0.1-0.2-3.5-0.2-10.1c-0.1-6.6-0.1-9.9-0.2-10
			C59.7,142.4,59.8,142.1,60.1,141.8z"/>
		<path class="st1" d="M69.7,141.9c0.4-0.3,1-0.5,1.9-0.5h1c1.5,0.1,2.4,0.1,2.7,0.2c0.2,0.1,0.6,0.1,1.2,0.1s1.1,0.2,1.4,0.4
			s0.4,0.6,0.4,1.1s-0.1,0.9-0.3,1.1c-0.2,0.2-0.5,0.4-1,0.5c-0.6,0.1-0.9,0.2-1,0.3c-0.1,0.1-0.2,2.8-0.2,8c0,3.6,0,6.1,0.1,7.6
			c0.1,1.2,0.1,1.8,0.1,1.9c0,0.6-0.1,1.1-0.4,1.5c-0.3,0.6-0.8,0.8-1.4,0.8c-0.4,0-0.9-0.1-1.3-0.4l-0.8-0.5v-9.4
			c0.1-2.5,0.1-4.9,0.1-7.4c0-1.5-0.1-2.3-0.3-2.4c-0.3-0.2-0.6-0.2-0.6-0.2c-0.1,0-0.3,0-0.5,0c-0.5,0-0.9-0.1-1.3-0.4
			c-0.3-0.3-0.5-0.6-0.5-1C69,142.7,69.2,142.2,69.7,141.9z"/>
		<path class="st1" d="M86.4,145c0.5-0.5,0.9-0.9,1.1-1s0.6-0.2,1-0.2c1.3,0,1.9,0.4,1.9,1.3c0,0.8-0.6,1.4-1.7,2
			c-0.7,0.4-1.3,1.8-1.7,4.2c-0.2,1.1-0.3,2.2-0.3,3.4s0.1,2.4,0.2,3.6c0.1,1.6,0.4,2.7,0.7,3.3c0.3,0.6,0.8,1,1.4,1.1
			c1.1,0.2,1.8,0.5,1.9,1c0,0.1,0,0.1,0,0.2c0,0.3-0.2,0.6-0.5,0.9s-0.7,0.5-1.1,0.6c-0.1,0-0.2,0-0.5,0c-1,0-2-0.2-2.8-0.7
			c-0.3-0.2-0.7-0.7-1.1-1.5s-0.8-1.6-1-2.4c-0.3-1.1-0.5-3.2-0.5-6c0-1.1,0.1-2.2,0.2-3.2c0.2-1.7,0.5-3,0.9-3.9
			C85,146.7,85.6,145.8,86.4,145z"/>
		<path class="st1" d="M96.4,143.8c0.1-0.2,0.3-0.3,0.7-0.3c0.5,0,1,0.1,1.5,0.5c0.3,0.2,0.5,0.4,0.6,0.6c0.1,0.1,0.1,0.5,0.2,1.1
			c0,4,0.1,6.3,0.1,7s0.2,1,0.4,1h0.1c0.2,0,0.5-0.1,0.8-0.2c0.2-0.1,0.3-0.4,0.4-0.8c0-0.4,0.1-1.5,0.1-3.1c0-2.5,0.1-3.8,0.2-4.1
			c0.2-0.5,0.8-0.7,1.5-0.7c0.3,0,0.6,0.1,0.8,0.2l0.6,0.3l-0.1,4.4c-0.1,1.8-0.1,4.4-0.1,7.7c0,3.7,0.1,6.1,0.2,7.2l0.2,1.9
			l-0.7,0.3c-0.2,0.1-0.4,0.2-0.7,0.2c-0.2,0-0.5-0.1-0.9-0.2c-0.6-0.2-0.9-0.5-1-0.8c-0.1-0.2-0.2-1.8-0.2-4.7
			c-0.1-2.9-0.2-4.4-0.3-4.5c-0.1-0.1-0.4-0.1-0.8,0l-0.8,0.2l0.1,3.4c0.1,2.4,0.2,3.8,0.4,4.2c0.1,0.3,0.2,0.7,0.2,1
			c0,0.6-0.3,1-0.9,1.1c-0.3,0.1-0.5,0.1-0.6,0.1c-0.8,0-1.4-0.2-1.8-0.7c-0.2-0.2-0.3-0.8-0.3-1.8s-0.1-4.1-0.1-9.3
			C96.2,147.7,96.3,144.1,96.4,143.8z"/>
		<path class="st1" d="M35.6,195.9c0.4-0.1,0.7-0.2,1-0.2c0.7,0,1.2,0.2,1.5,0.8c0.2,0.3,0.4,1.5,0.7,3.6c0.2,2.1,0.4,4.4,0.5,6.8
			c0,0.8,0.1,1.9,0.2,3.4s0.1,2.7,0.2,3.8c0,1.1,0.1,1.9,0.1,2.5c0,0.4-0.2,0.7-0.6,0.9c-0.4,0.2-0.9,0.4-1.3,0.4s-0.7-0.1-0.9-0.2
			l-0.5-0.4l-0.1-5.1c-0.2-5.8-0.4-8.7-0.8-8.7c-0.2,0-0.5,0.7-1,2.2c-0.2,0.8-0.5,1.4-0.8,1.7c-0.3,0.3-0.6,0.5-1,0.5
			c-0.3,0-0.7-0.1-1.1-0.2c-0.5-0.2-0.9-0.6-1.2-1.3c-0.3-0.7-0.5-1.1-0.5-1.2s-0.1-0.3-0.2-0.6c-0.1-0.3-0.3-0.6-0.5-0.8
			c-0.2-0.2-0.3-0.3-0.3-0.3v0.5c0,1.2,0,3,0.1,5.4l0.2,5.8l-0.6,0.9c-0.6,1-1.1,1.4-1.5,1.4c-0.3,0-0.5-0.2-0.8-0.6
			c-0.2-0.3-0.4-0.8-0.4-1.5c-0.1-0.7-0.1-2.8-0.2-6.3c-0.2-6.5-0.3-10.2-0.5-11.1c0-0.1,0-0.3,0-0.5c0-0.3,0.2-0.6,0.5-0.9
			s0.7-0.5,1.2-0.5s1,0.1,1.6,0.4c0.6,0.2,1,0.6,1.3,1s1,1.7,2.1,3.7c0.3,0.5,0.5,0.8,0.7,0.8c0.1,0,0.3-0.2,0.4-0.6
			c0.1-0.5,0.4-1,0.7-1.7c0.4-0.8,0.6-1.3,0.6-1.4c0-0.2,0.2-0.7,0.5-1.3C35.1,196.3,35.4,196,35.6,195.9z"/>
		<path class="st1" d="M45.1,194.1c0.3-0.4,0.8-0.6,1.3-0.6s0.9,0.2,1.3,0.6l0.6,0.5l0.2,9.5c0.1,5.2,0.2,8.2,0.2,9c0,0.4,0,0.8,0,1
			c0,0.3,0,0.5,0,0.7s-0.1,0.3-0.1,0.4s-0.1,0.2-0.1,0.2s-0.1,0.1-0.2,0.1c-0.1,0.1-0.2,0.1-0.2,0.1c-0.3,0.2-0.6,0.3-0.8,0.3
			c-0.1,0-0.4-0.1-0.8-0.2c-0.7-0.3-1.1-0.5-1.1-0.7c-0.1-0.1-0.2-3.5-0.2-10.1c-0.1-6.6-0.1-9.9-0.2-10
			C44.7,194.6,44.8,194.4,45.1,194.1z"/>
		<path class="st1" d="M54.8,195.6c0.4-0.2,0.8-0.3,1.3-0.3c0.8,0,1.4,0.5,1.7,1.6c0.2,0.8,0.6,1.7,1,2.6s0.7,1.6,0.9,2.2
			c0.3,0.9,0.5,1.5,0.8,1.7c0.1,0.1,0.2,0.2,0.2,0.2c0.1,0,0.2-0.6,0.3-1.8c0.1-1.1,0.1-1.9,0.1-2.3V199c0-0.2,0-0.5,0-0.8
			c0-0.7,0.2-1.2,0.6-1.6c0.3-0.4,0.8-0.6,1.5-0.6c0.5,0,0.9,0.1,1.2,0.4c0.2,0.2,0.4,0.5,0.4,1s0,1-0.1,1.5s-0.1,3.9-0.2,10.2
			c0,3.9-0.1,6.3-0.1,7.1c0,0.8-0.1,1.3-0.3,1.5c-0.3,0.3-0.7,0.5-1.3,0.5c-1.2,0-1.9-0.6-2.1-1.8c-0.1-0.5-0.3-1.3-0.8-2.5
			c-0.4-1.1-0.7-2.1-0.8-3c-0.2-1.1-0.6-2.7-1.2-4.6c-0.1-0.2-0.1-0.2-0.1-0.2c-0.1,0-0.2,1.2-0.2,3.5v2v2.2c0,2.3-0.1,3.6-0.2,3.9
			c-0.3,0.8-0.9,1.2-1.8,1.2c-0.5,0-1-0.2-1.3-0.5c-0.2-0.3-0.4-0.6-0.4-0.8c0-0.1,0-0.3,0.1-0.8c0.1-0.9,0.2-4.3,0.2-10.1
			c0-6.5,0.1-9.9,0.2-10.3c0.1-0.2,0.2-0.4,0.5-0.5C54.7,195.6,54.8,195.6,54.8,195.6z"/>
		<path class="st1" d="M70.5,196.5c0.1,0,0.8,0,2.1,0c1.5,0,2.5,0.3,3.3,1c0.7,0.6,1.3,1.7,1.8,3.3c0.5,1.5,0.7,3.2,0.7,5.2
			c0,0.4,0,0.9-0.1,1.4c-0.1,0.4-0.2,1.1-0.3,1.9s-0.2,1.6-0.3,2.2c-0.1,0.7-0.2,1.1-0.4,1.4c-0.1,0.2-0.2,0.5-0.2,0.8
			c0,0.2-0.1,0.6-0.4,1.2s-0.5,1-0.7,1.3c-0.3,0.4-0.8,0.8-1.5,1.1c-0.6,0.3-1.3,0.5-1.9,0.6c-0.5,0.1-0.8,0.1-0.9,0.1
			c-0.3,0-0.7-0.1-1-0.5l-0.6-0.6v-7.1v-2.1c0-3.5,0-5.4-0.1-5.8c-0.2-1.1-0.2-2.1-0.2-2.9C69.8,197.4,70,196.6,70.5,196.5z
			 M74.4,201.6c-0.4-1.5-0.8-2.2-1-2.2l-0.1,0.1v0.1c0,0.1,0,0.2,0,0.3c0,0.1,0,0.2,0,0.4c0,0.4,0,1.2,0.1,2.4
			c0.1,1.4,0.2,3.4,0.2,5.8c0,2.3,0.1,3.5,0.3,3.5c0.1,0,0.2-0.2,0.3-0.6c0.5-1.8,0.8-3.7,0.8-5.7C75,204.1,74.8,202.7,74.4,201.6z"
			/>
		<path class="st1" d="M96,196l0.8-1h5.2l0.8,0.8c0.5,0.5,0.9,1.2,1.1,2s0.4,2.1,0.6,3.8c0.1,0.6,0.1,1.6,0.1,2.8
			c0,2.9-0.3,5.5-0.8,7.8s-1.2,3.9-2.1,4.8c-0.3,0.3-0.7,0.5-1.2,0.7s-1,0.3-1.4,0.3c-0.2,0-0.3,0-0.4-0.1c-0.2-0.1-0.5-0.2-0.9-0.2
			c-0.3,0-0.6-0.2-1-0.7s-0.7-1-0.9-1.7c-0.4-1.1-0.6-2.3-0.8-3.6c-0.1-1.3-0.2-3.4-0.2-6.3v-2c0-2.6,0.1-4.4,0.2-5.3
			C95.2,197.3,95.5,196.6,96,196z M99.9,198c-0.2-0.5-0.5-0.8-0.6-0.8c-0.2,0-0.4,0.4-0.7,1.3c-0.2,0.7-0.3,2-0.3,3.9
			c0,1.5,0.1,3.1,0.2,4.8c0.1,1.6,0.3,3.1,0.6,4.5c0.2,1.4,0.5,2.1,0.7,2.1c0.1,0,0.3-0.3,0.4-0.9c0.1-0.5,0.3-0.9,0.5-1.3
			c0.1-0.2,0.2-1.4,0.4-3.7c0.1-1.2,0.1-2.3,0.1-3.3C101,201.5,100.7,199.3,99.9,198z"/>
		<path class="st1" d="M111.9,196.3c0.7-0.1,1.4-0.1,2.1-0.1c0.6,0,1.1,0,1.3,0c1.3,0.1,2.1,0.2,2.4,0.5c0.2,0.3,0.4,0.6,0.4,0.9
			c0,0.7-0.6,1.2-1.9,1.5c-0.3,0.1-1.1,0.2-2.1,0.5l-0.9,0.2v2.8c0,1.4,0,2.2,0.1,2.4c0,0.2,0.2,0.4,0.5,0.6s0.7,0.2,1.3,0.2
			c0.5,0,0.9,0.1,1.1,0.5c0.2,0.3,0.3,0.6,0.3,0.9c0,0.7-0.6,1.1-1.7,1.4c-0.7,0.2-1.1,0.3-1.2,0.4s-0.1,0.3-0.1,0.7
			c0,0.3,0.2,2.6,0.5,6.7l0.1,1.1c0,0.3-0.2,0.6-0.6,0.8c-0.2,0.1-0.6,0.2-0.9,0.2c-0.6,0-1.1-0.2-1.7-0.8c-0.5-0.5-0.7-1-0.7-1.5
			v-0.3c0-0.3,0-0.8,0-1.5s0-1.3,0-1.7c0-5.4-0.1-9.4-0.3-12c-0.1-1.1-0.1-1.9-0.1-2.4c0-0.8,0.1-1.2,0.4-1.4
			C110.3,196.5,110.9,196.4,111.9,196.3z"/>
		<path class="st1" d="M125.4,196.3c0.7-0.1,1.4-0.1,2.1-0.1c0.6,0,1.1,0,1.3,0c1.3,0.1,2.1,0.2,2.3,0.5s0.4,0.6,0.4,0.9
			c0,0.7-0.6,1.2-1.9,1.5c-0.3,0.1-1,0.2-2.1,0.5l-0.9,0.2v2.8c0,1.4,0,2.2,0.1,2.4c0,0.2,0.2,0.4,0.5,0.6s0.7,0.2,1.3,0.2
			c0.5,0,0.9,0.1,1.1,0.5c0.2,0.3,0.3,0.6,0.3,0.9c0,0.7-0.6,1.1-1.7,1.4c-0.7,0.2-1.1,0.3-1.2,0.4c-0.1,0.1-0.1,0.3-0.1,0.7
			c0,0.3,0.2,2.6,0.5,6.7l0.1,1.1c0,0.3-0.2,0.6-0.6,0.8c-0.2,0.1-0.6,0.2-0.9,0.2c-0.6,0-1.1-0.2-1.7-0.8c-0.5-0.5-0.7-1-0.7-1.5
			v-0.3c0-0.3,0-0.8,0-1.5s0-1.3,0-1.7c0-5.4-0.1-9.4-0.3-12c-0.1-1.1-0.1-1.9-0.1-2.4c0-0.8,0.1-1.2,0.4-1.4
			C123.9,196.5,124.5,196.4,125.4,196.3z"/>
		<path class="st2" d="M28.4,130.5c-0.7,0-1.2-0.1-1.7-0.3c-0.4-0.2-0.8-0.5-1-0.9s-0.3-0.8-0.3-1.2c0-0.8,0.3-1.4,0.9-1.9
			c0.6-0.4,1.5-0.7,2.5-0.7h2.3v-0.1c0-0.7-0.2-1.2-0.5-1.6c-0.4-0.4-0.8-0.5-1.5-0.5c-0.5,0-1,0.1-1.3,0.4s-0.6,0.6-0.7,1.1h-1.4
			c0-0.6,0.2-1.1,0.6-1.5c0.3-0.4,0.8-0.7,1.3-0.9c0.5-0.2,1-0.3,1.6-0.3c1.1,0,1.9,0.3,2.5,0.9c0.6,0.6,0.8,1.4,0.8,2.4v4.9h-1.2
			l-0.1-1.4c-0.2,0.5-0.5,0.8-1,1.1C29.7,130.4,29.1,130.5,28.4,130.5z M28.6,129.4c0.5,0,1-0.1,1.3-0.4c0.4-0.3,0.7-0.6,0.8-1
			c0.2-0.4,0.3-0.9,0.3-1.3l0,0h-2c-0.8,0-1.3,0.1-1.7,0.4c-0.3,0.3-0.5,0.6-0.5,1c0,0.4,0.2,0.8,0.5,1
			C27.6,129.3,28.1,129.4,28.6,129.4z"/>
		<path class="st2" d="M34.4,130.3v-7.9h1.2l0.1,1.4c0.3-0.5,0.6-0.9,1.1-1.2c0.5-0.3,1-0.4,1.6-0.4c0.9,0,1.7,0.3,2.2,0.9
			c0.6,0.6,0.8,1.5,0.8,2.6v4.6h-1.3v-4.5c0-1.6-0.7-2.5-2-2.5c-0.7,0-1.3,0.2-1.7,0.7s-0.7,1.2-0.7,2.1v4.1L34.4,130.3L34.4,130.3z
			"/>
		<path class="st2" d="M47.2,130.5c-0.8,0-1.5-0.2-2.1-0.5c-0.6-0.4-1.1-0.9-1.4-1.5c-0.3-0.6-0.5-1.3-0.5-2.1
			c0-0.8,0.2-1.5,0.5-2.1s0.8-1.1,1.4-1.5s1.3-0.5,2.1-0.5c0.7,0,1.2,0.1,1.7,0.4s0.9,0.6,1.2,1.1v-4.9h1.3v11.5h-1.2l-0.1-1.3
			c-0.3,0.4-0.6,0.7-1.1,1S47.9,130.5,47.2,130.5z M47.3,129.4c0.5,0,1-0.1,1.4-0.4c0.4-0.2,0.7-0.6,1-1.1c0.2-0.4,0.3-1,0.3-1.6
			s-0.1-1.1-0.3-1.6s-0.5-0.8-1-1.1c-0.4-0.2-0.9-0.4-1.4-0.4s-1,0.1-1.4,0.4c-0.4,0.2-0.7,0.6-1,1.1c-0.2,0.4-0.3,1-0.3,1.6
			s0.1,1.1,0.3,1.6c0.2,0.5,0.6,0.8,1,1.1C46.3,129.2,46.8,129.4,47.3,129.4z"/>
		<path class="st2" d="M26.6,187.6l2-4.3h-0.5l-3.2-7.2h1.5l2.6,6.2l2.8-6.2h1.4L28,187.6H26.6z"/>
		<path class="st2" d="M37.5,184.2c-0.8,0-1.4-0.2-2-0.5s-1.1-0.8-1.4-1.4c-0.4-0.6-0.5-1.4-0.5-2.2s0.2-1.6,0.5-2.2
			s0.8-1.1,1.4-1.4c0.6-0.3,1.3-0.5,2-0.5s1.4,0.2,2,0.5s1.1,0.8,1.4,1.4s0.5,1.4,0.5,2.2s-0.2,1.6-0.5,2.2s-0.8,1.1-1.4,1.4
			C38.9,184.1,38.3,184.2,37.5,184.2z M37.5,183.1c0.5,0,0.9-0.1,1.3-0.3c0.4-0.2,0.7-0.6,1-1c0.2-0.5,0.4-1,0.4-1.7
			s-0.1-1.2-0.4-1.7c-0.2-0.5-0.6-0.8-0.9-1c-0.4-0.2-0.8-0.3-1.3-0.3s-0.9,0.1-1.3,0.3c-0.4,0.2-0.7,0.6-1,1s-0.4,1-0.4,1.7
			s0.1,1.2,0.4,1.7c0.2,0.4,0.6,0.8,1,1C36.7,183,37.1,183.1,37.5,183.1z"/>
		<path class="st2" d="M46.3,184.2c-0.9,0-1.7-0.3-2.2-0.9c-0.6-0.6-0.8-1.4-0.8-2.6v-4.6h1.3v4.5c0,1.6,0.7,2.5,2,2.5
			c0.7,0,1.3-0.2,1.7-0.7c0.5-0.5,0.7-1.2,0.7-2.1v-4.1h1.3v7.9h-1.2l-0.1-1.4c-0.2,0.5-0.6,0.9-1.1,1.2
			C47.4,184.1,46.9,184.2,46.3,184.2z"/>
		<path class="st2" d="M52.5,184v-7.9h1.2l0.1,1.5c0.2-0.5,0.6-0.9,1.1-1.2s1.1-0.5,1.9-0.5v1.4h-0.4c-0.5,0-0.9,0.1-1.3,0.2
			c-0.4,0.2-0.7,0.5-0.9,0.8c-0.2,0.4-0.3,0.9-0.3,1.6v4h-1.4C52.5,183.9,52.5,184,52.5,184z"/>
		<path class="st2" d="M26.2,236.9v-6.8H25V229h1.2v-1.4c0-0.8,0.2-1.3,0.6-1.7c0.4-0.4,0.9-0.5,1.7-0.5h0.8v1.1h-0.6
			c-0.4,0-0.7,0.1-0.9,0.2c-0.2,0.2-0.3,0.5-0.3,0.8v1.3h2v1.1h-2v6.8h-1.3V236.9z"/>
		<path class="st2" d="M31.1,236.9V229h1.2l0.1,1.5c0.2-0.5,0.6-0.9,1.1-1.2c0.5-0.3,1.1-0.5,1.9-0.5v1.4H35c-0.5,0-0.9,0.1-1.3,0.2
			c-0.4,0.2-0.7,0.5-0.9,0.8c-0.2,0.4-0.3,0.9-0.3,1.6v4h-1.4C31.1,236.8,31.1,236.9,31.1,236.9z"/>
		<path class="st2" d="M40.2,237.1c-0.8,0-1.4-0.2-2-0.5s-1.1-0.8-1.4-1.4c-0.3-0.6-0.5-1.4-0.5-2.2s0.2-1.6,0.5-2.2
			s0.8-1.1,1.4-1.5s1.3-0.5,2-0.5c0.8,0,1.4,0.2,2,0.5s1.1,0.8,1.4,1.5c0.3,0.6,0.5,1.4,0.5,2.2s-0.2,1.6-0.5,2.2s-0.8,1.1-1.4,1.4
			S41,237.1,40.2,237.1z M40.2,236c0.5,0,0.9-0.1,1.3-0.3c0.4-0.2,0.7-0.6,1-1s0.4-1,0.4-1.7s-0.1-1.2-0.4-1.7s-0.6-0.8-0.9-1
			c-0.4-0.2-0.8-0.3-1.3-0.3s-0.9,0.1-1.3,0.3c-0.4,0.2-0.7,0.6-1,1c-0.2,0.5-0.4,1-0.4,1.7s0.1,1.2,0.4,1.7s0.6,0.8,0.9,1
			C39.3,235.8,39.8,236,40.2,236z"/>
		<path class="st2" d="M46.1,236.9V229h1.2l0.1,1.1c0.3-0.4,0.6-0.8,1-1s0.9-0.4,1.4-0.4c0.6,0,1.2,0.1,1.6,0.4s0.8,0.6,1,1.2
			c0.3-0.5,0.7-0.9,1.1-1.1c0.5-0.3,1-0.4,1.6-0.4c0.9,0,1.7,0.3,2.3,0.9s0.8,1.5,0.8,2.6v4.6h-1.3v-4.5c0-0.8-0.2-1.4-0.5-1.9
			c-0.3-0.4-0.8-0.6-1.4-0.6s-1.2,0.2-1.6,0.7s-0.6,1.2-0.6,2.1v4.1h-1.3v-4.5c0-0.8-0.2-1.4-0.5-1.9c-0.3-0.4-0.8-0.6-1.4-0.6
			s-1.2,0.2-1.6,0.7s-0.6,1.2-0.6,2.1v4.1L46.1,236.9L46.1,236.9z"/>
		<path class="st2" d="M67.8,236.9c-0.7,0-1.3-0.2-1.7-0.5c-0.4-0.4-0.6-1-0.6-1.9v-4.4h-1.4V229h1.4l0.2-1.9h1.2v1.9h2.2v1.1h-2.3
			v4.4c0,0.5,0.1,0.8,0.3,1c0.2,0.2,0.6,0.3,1.1,0.3H69v1.1H67.8z"/>
		<path class="st2" d="M70.8,236.9v-11.5h1.3v4.9c0.3-0.5,0.7-0.9,1.1-1.1c0.5-0.3,1-0.4,1.6-0.4c0.9,0,1.6,0.3,2.2,0.9
			c0.5,0.6,0.8,1.4,0.8,2.6v4.6h-1.3v-4.5c0-1.6-0.7-2.5-2-2.5c-0.7,0-1.3,0.2-1.7,0.7c-0.5,0.5-0.7,1.2-0.7,2.1v4.1L70.8,236.9
			L70.8,236.9z"/>
		<path class="st2" d="M83.5,237.1c-0.8,0-1.4-0.2-2-0.5c-0.6-0.4-1-0.8-1.4-1.5c-0.3-0.6-0.5-1.4-0.5-2.2c0-0.8,0.2-1.6,0.5-2.2
			s0.8-1.1,1.4-1.5s1.3-0.5,2.1-0.5c0.8,0,1.4,0.2,2,0.5s1,0.8,1.3,1.4s0.4,1.2,0.4,1.8c0,0.1,0,0.2,0,0.3c0,0.1,0,0.2,0,0.4H81
			c0,0.6,0.2,1.1,0.4,1.5s0.6,0.7,0.9,0.9c0.4,0.2,0.8,0.3,1.2,0.3c0.5,0,1-0.1,1.4-0.4s0.7-0.6,0.8-1H87c-0.2,0.7-0.6,1.4-1.2,1.8
			C85.3,236.9,84.5,237.1,83.5,237.1z M83.5,229.9c-0.6,0-1.2,0.2-1.7,0.6s-0.8,1-0.9,1.7h5c0-0.7-0.3-1.3-0.7-1.7
			C84.8,230.1,84.2,229.9,83.5,229.9z"/>
		<path class="st2" d="M96.9,237.1c-0.8,0-1.5-0.2-2.1-0.5c-0.6-0.4-1.1-0.9-1.4-1.5s-0.5-1.3-0.5-2.1c0-0.8,0.2-1.5,0.5-2.1
			s0.8-1.1,1.4-1.5s1.3-0.5,2.1-0.5c0.7,0,1.2,0.1,1.7,0.4s0.9,0.6,1.2,1.1v-4.9h1.3V237h-1.2l-0.1-1.3c-0.3,0.4-0.6,0.7-1.1,1
			C98.3,237,97.6,237.1,96.9,237.1z M97.1,235.9c0.5,0,1-0.1,1.4-0.4c0.4-0.2,0.7-0.6,1-1.1c0.2-0.4,0.3-1,0.3-1.6s-0.1-1.1-0.3-1.6
			c-0.2-0.5-0.5-0.8-1-1.1c-0.4-0.2-0.9-0.4-1.4-0.4s-1,0.1-1.4,0.4c-0.4,0.2-0.7,0.6-1,1.1c-0.2,0.4-0.3,1-0.3,1.6s0.1,1.1,0.3,1.6
			c0.2,0.5,0.6,0.8,1,1.1S96.5,235.9,97.1,235.9z"/>
		<path class="st2" d="M106,237.1c-0.7,0-1.2-0.1-1.7-0.3c-0.4-0.2-0.8-0.5-1-0.9s-0.3-0.8-0.3-1.2c0-0.8,0.3-1.4,0.9-1.9
			c0.6-0.4,1.5-0.7,2.5-0.7h2.1V232c0-0.7-0.2-1.2-0.5-1.6c-0.4-0.4-0.9-0.5-1.5-0.5c-0.5,0-1,0.1-1.3,0.4c-0.4,0.3-0.6,0.6-0.7,1.1
			h-1.4c0.1-0.6,0.2-1.1,0.6-1.5c0.3-0.4,0.8-0.7,1.3-0.9c0.5-0.2,1-0.3,1.6-0.3c1.1,0,1.9,0.3,2.5,0.9s0.8,1.4,0.8,2.4v4.9h-1.2
			l-0.1-1.4c-0.2,0.5-0.5,0.8-1,1.1C107.3,237,106.7,237.1,106,237.1z M106.2,236c0.5,0,0.9-0.1,1.3-0.4s0.7-0.6,0.8-1
			s0.3-0.9,0.3-1.3l0,0h-2c-0.8,0-1.4,0.1-1.7,0.4s-0.5,0.6-0.5,1s0.2,0.8,0.5,1C105.2,235.8,105.7,236,106.2,236z"/>
		<path class="st2" d="M112.7,240.4l2-4.3h-0.5l-3.1-7.2h1.5l2.6,6.2l2.8-6.2h1.4l-5.2,11.5H112.7z"/>
		<path class="st2" d="M120,237c-0.3,0-0.5-0.1-0.7-0.3c-0.2-0.2-0.3-0.4-0.3-0.6c0-0.3,0.1-0.5,0.3-0.7s0.4-0.3,0.7-0.3
			s0.5,0.1,0.6,0.3c0.2,0.2,0.3,0.4,0.3,0.7c0,0.3-0.1,0.5-0.3,0.6S120.3,237,120,237z"/>
		<path class="st3" d="M196.6,23.7c0.5-0.2,1.1-0.2,1.9-0.2c0.8,0,1.5,0.1,1.9,0.2c0.7,0.3,1.3,0.9,1.7,1.7c0.2,0.4,0.3,1.1,0.5,2.2
			s0.2,2,0.2,2.9c0,0.4,0,0.7,0,0.8c-0.1,0.7-0.3,1.5-0.6,2.4s-0.5,1.3-0.7,1.3s-0.3,0.2-0.3,0.6c0,0.3,0.1,0.6,0.3,0.9
			c0.4,0.6,1.1,1.8,1.9,3.6c0.8,1.7,1.3,2.8,1.3,3.3c0,0.1,0,0.3,0,0.6c0,0.4-0.1,0.7-0.3,1s-0.5,0.5-0.8,0.5s-0.5,0-0.8,0
			c-0.7-0.1-1.1-0.2-1.3-0.3s-0.3-0.3-0.3-0.7c0-0.6-0.3-1.4-0.9-2.6c-0.6-1.1-1-1.7-1.3-1.7l0,0c-0.1,0.1-0.1,0.4-0.1,0.9
			c0,0.8,0.1,1.8,0.2,2.8c0.1,0.4,0.1,0.8,0.1,0.9c0,1-0.2,1.5-0.6,1.8c-0.2,0.1-0.4,0.1-0.7,0.1c-0.9,0-1.5-0.2-1.7-0.6
			c-0.1-0.2-0.2-2.1-0.3-5.7c0-1.2-0.1-2.4-0.1-3.7s0-2.3,0-2.9s0-1.4-0.1-2.4s-0.2-2-0.3-3.2c-0.1-1.3-0.2-2.1-0.2-2.4
			c0-0.7,0.1-1.1,0.3-1.4C195.7,24.1,196.1,23.9,196.6,23.7z M199.2,26.8c-0.1-0.2-0.2-0.3-0.5-0.3c-0.2,0-0.3,0.1-0.4,0.3
			c-0.1,0.2-0.1,0.4,0,0.5c0,0,0.1,0.9,0.2,2.7c0.1,1.8,0.2,2.7,0.3,2.8s0.2-0.1,0.4-0.3s0.2-0.7,0.2-1.4c0-0.5,0-1,0-1.4
			C199.4,28.1,199.3,27.1,199.2,26.8z"/>
		<path class="st3" d="M211.7,26c0.3-0.1,0.8-0.1,1.3-0.1c1.5,0,2.5,0.2,2.9,0.5c0.3,0.2,0.4,0.6,0.4,0.9c0,0.4-0.1,0.7-0.4,0.9
			s-0.6,0.4-1.1,0.4c-0.4,0-0.7,0.1-0.8,0.3s-0.2,0.7-0.2,1.4c0,0.2,0,0.9,0.1,2.1c0.1,1.4,0.1,2.3,0.2,2.7c0.1,0.4,0.2,0.6,0.3,0.6
			c0,0,0.2,0,0.6,0c0.3,0,0.6,0,0.8,0c0.7,0,1.2,0.2,1.5,0.5c0.2,0.2,0.3,0.4,0.3,0.6c0,0.4-0.6,0.9-1.8,1.3
			c-0.7,0.2-1.1,0.4-1.3,0.6s-0.2,0.4-0.3,0.9s-0.1,0.8-0.1,1.2c0,1.4,0.1,2.5,0.4,3.2c0.1,0.3,0.2,0.5,0.4,0.5
			c0.1,0.1,0.4,0.1,0.9,0.1c0.6,0,1.1,0.1,1.5,0.4s0.6,0.6,0.6,0.9c0,0.2-0.2,0.6-0.6,1c-0.7,0.6-1.8,1-3.4,1
			c-1.6,0-2.7-0.4-3.2-1.1c-0.3-0.4-0.5-2.8-0.5-7.2c-0.1-5.5-0.1-8.8-0.2-9.7l-0.1-3.1l0.6-0.3C210.9,26.3,211.3,26.1,211.7,26z"/>
		<path class="st3" d="M223.5,24.8c0.2-0.2,0.5-0.4,0.8-0.4c0.2,0,0.5,0,0.6,0c0.6,0.1,1,0.3,1.2,0.5c0.3,0.4,0.5,3,0.5,7.6V35v2.2
			c0,3.7,0,5.7,0.1,6c0.1,0.5,0.6,0.7,1.4,0.7c0.4,0,0.7,0,1,0c0.2,0,0.5,0,0.8,0c0.5,0,0.9,0.1,1.1,0.2c0.2,0.2,0.3,0.5,0.3,0.9
			c0,0.3-0.1,0.5-0.2,0.7c-0.1,0.1-0.4,0.4-0.8,0.6c-0.8,0.4-1.6,0.6-2.4,0.7c-1.2,0.1-1.8,0.1-1.9,0.1s-0.1,0-0.3,0
			c-0.3,0-0.7-0.1-1.1-0.3c-0.4-0.2-0.7-0.4-1-0.7c-0.4-0.5-0.6-1.9-0.6-4.3c0-0.6,0-1.7,0.1-3.3c0.1-1.5,0.1-3,0.1-4.8
			c0-4.1-0.1-6.6-0.2-7.6c-0.1-0.4-0.1-0.6-0.1-0.7C223.1,25.3,223.2,25.1,223.5,24.8z"/>
		<path class="st3" d="M240.1,27.5c0.7-0.7,1.8-1.1,3.3-1.1c0.6,0,1.2,0.1,1.6,0.3c0.6,0.3,1,1.1,1.3,2.4c0.2,1.1,0.4,2.9,0.7,5.4
			s0.4,4.5,0.5,5.9c0,1.3,0.1,2.8,0.3,4.4c0.1,1.6,0.3,2.5,0.4,2.7c0,0,0,0.1,0,0.2c0,0.2-0.1,0.6-0.3,0.9c-0.2,0.4-0.4,0.6-0.6,0.6
			c-0.1,0-0.2,0-0.4,0c-0.4,0-0.9-0.1-1.4-0.3s-0.8-0.4-0.9-0.6s-0.2-1-0.4-2.3s-0.2-2.4-0.2-3.2s-0.1-1.2-0.2-1.3
			c-0.1-0.1-0.8-0.1-1.9-0.1c-0.9,0-1.4,0-1.5,0.1c0,0.1,0,0.3,0,0.5c0,0.6,0,1.3,0.1,2.3c0.1,1.1,0.1,2,0.1,2.7v0.4
			c0,0.2-0.2,0.4-0.6,0.5s-0.7,0.2-1.1,0.2c-0.2,0-0.3,0-0.4,0c-1-0.3-1.5-0.7-1.6-1.2c0,0,0-0.1,0-0.2s0-0.2,0-0.3
			c0-1.2,0.1-3.7,0.4-7.6s0.5-6.1,0.6-6.7c0.2-0.8,0.5-1.6,1-2.6C239.3,28.6,239.7,27.9,240.1,27.5z M243,31.8
			c-0.2-0.8-0.4-1.2-0.6-1.2s-0.4,0.3-0.7,0.9c-0.5,1.1-0.9,2.7-1,4.6c-0.1,0.8-0.1,1.3-0.1,1.4c0,0.4,0.1,0.6,0.2,0.7
			s0.5,0.2,1.1,0.2c0.8,0,1.3-0.1,1.4-0.2s0.1-0.5,0.1-1.1C243.4,35.1,243.3,33.4,243,31.8z"/>
		<path class="st3" d="M254.6,23.3c0.1,0,0.2-0.1,0.3-0.1c0.1,0,0.2-0.1,0.2-0.1s0.1,0,0.2-0.1h0.1c0.1,0,0.3,0.1,0.7,0.3
			c0.4,0.2,0.7,0.6,0.8,0.9c0.2,1.1,0.5,2.2,0.9,3.2c0.3,1,0.6,1.5,0.7,1.5c0,0,0,0,0-0.1s0.2-1,0.6-2.5c0.2-1,0.4-1.7,0.5-2
			s0.3-0.5,0.6-0.7c0.4-0.2,0.8-0.2,1.3-0.2c0.6,0,1.2,0.1,1.5,0.5c0.3,0.3,0.5,0.6,0.5,1s-0.1,1-0.4,1.8c-0.2,0.6-0.5,1.7-0.9,3.1
			c-0.4,1.5-0.8,2.7-1,3.6c-0.4,1.4-0.6,2.3-0.6,2.7c0,0.3,0,0.6,0.1,1c0.2,1,0.5,1.7,0.7,2.2c0.3,0.6,0.4,1,0.4,1.4
			c0,0.2,0.2,1,0.7,2.5c0.4,1.2,0.6,2,0.6,2.5c0,0.4-0.2,0.8-0.6,1.1c-0.3,0.3-0.6,0.4-1,0.4c-0.2,0-0.4,0-0.6,0
			c-0.6-0.1-1.1-0.3-1.4-0.6c-0.3-0.4-0.6-0.9-0.8-1.6c-0.2-0.6-0.3-1-0.5-1c-0.1,0-0.2,0.3-0.3,1c-0.2,1.9-0.9,2.9-2.1,2.9
			c-0.3,0-0.8-0.2-1.5-0.5s-1-0.6-1-0.8c0-0.5,0.7-2.9,2.2-7.2c0.2-0.5,0.4-1.3,0.6-2.6c0.1-0.7,0.2-1.1,0.2-1.3
			c0-0.4-0.1-1-0.4-1.9c-0.2-0.7-0.6-1.8-1-3.2s-0.7-2.5-0.9-3.1c-0.3-1-0.6-1.9-0.7-2.5c0-0.1,0-0.3,0-0.5
			C253.3,24.1,253.8,23.6,254.6,23.3z"/>
		<path class="st3" d="M196.3,77.9c0.2-0.1,0.6-0.2,1.1-0.2c0.9,0,1.9,0.2,2.9,0.6s1.7,0.9,2.1,1.5c0.4,0.7,0.7,1.4,0.7,2.2
			c0,1-0.3,2.2-0.9,3.7l-0.5,1.1l0.7,0.7c0.5,0.5,0.9,1.1,1.3,1.8c0.3,0.7,0.5,1.4,0.5,2s0,1.2,0,1.7c-0.1,1.2-0.1,2-0.2,2.4
			s-0.3,0.9-0.6,1.6c-0.7,1.3-1.3,2.2-1.8,2.6s-1.3,0.6-2.3,0.6c-1.1,0-1.8,0-2,0l0,0c-0.5,0-0.9-0.2-1.2-0.7
			c-0.4-0.5-0.6-1-0.7-1.7c0-0.1,0-0.4,0-0.9c0-0.8,0-1.6,0.1-2.4c0.2-1.4,0.2-4.9,0.2-10.7c0-3,0-4.5-0.1-4.7c0,0,0-0.1,0-0.2
			c0-0.2,0.1-0.5,0.3-0.8C195.9,78.2,196.1,78,196.3,77.9z M200.5,90.2c-0.1-0.2-0.4-0.3-0.7-0.3s-0.5,0.1-0.7,0.4s-0.2,1.8-0.2,4.5
			c0,1.3,0,2.1,0.1,2.1h0.1c0.1,0,0.3-0.2,0.6-0.6s0.5-0.9,0.7-1.5c0.3-0.7,0.4-1.7,0.4-2.9C200.8,91,200.7,90.5,200.5,90.2z
			 M199.5,81.9c-0.1-0.2-0.2-0.4-0.4-0.4s-0.3,0.6-0.3,1.7c0,1,0,1.5,0.1,1.5l0,0c0.1-0.1,0.3-0.4,0.4-0.8c0.1-0.4,0.2-0.8,0.2-1
			c0-0.1,0-0.3,0-0.5S199.5,82,199.5,81.9z"/>
		<path class="st3" d="M210.5,78.2l0.8-1h5.2l0.8,0.8c0.5,0.5,0.9,1.2,1.1,2c0.2,0.8,0.4,2.1,0.6,3.8c0.1,0.6,0.1,1.6,0.1,2.8
			c0,2.9-0.3,5.5-0.8,7.8s-1.2,3.9-2.1,4.8c-0.3,0.3-0.7,0.5-1.2,0.7s-1,0.3-1.4,0.3c-0.2,0-0.3,0-0.4-0.1c-0.2-0.1-0.5-0.2-0.9-0.2
			c-0.3,0-0.6-0.2-1-0.7s-0.7-1-0.9-1.7c-0.4-1.1-0.7-2.3-0.8-3.6s-0.2-3.4-0.2-6.3v-2c0-2.6,0.1-4.4,0.2-5.3
			C209.7,79.5,210,78.8,210.5,78.2z M214.4,80.2c-0.2-0.5-0.5-0.8-0.6-0.8c-0.2,0-0.4,0.4-0.7,1.3c-0.2,0.7-0.3,2-0.3,3.9
			c0,1.5,0.1,3.1,0.2,4.8c0.1,1.6,0.3,3.1,0.6,4.5c0.2,1.4,0.5,2.1,0.7,2.1c0.1,0,0.3-0.3,0.4-0.9c0.1-0.5,0.3-0.9,0.5-1.3
			c0.1-0.2,0.2-1.4,0.4-3.7c0.1-1.2,0.1-2.3,0.1-3.3C215.5,83.7,215.1,81.5,214.4,80.2z"/>
		<path class="st3" d="M224.9,78.7c0.1,0,0.8,0,2.1,0c1.5,0,2.5,0.3,3.3,0.9c0.7,0.6,1.3,1.7,1.8,3.3c0.5,1.5,0.7,3.2,0.7,5.2
			c0,0.4,0,0.9-0.1,1.4c-0.1,0.4-0.2,1-0.3,1.9c-0.1,0.8-0.2,1.6-0.3,2.2c-0.1,0.7-0.2,1.1-0.4,1.4c-0.1,0.2-0.2,0.5-0.2,0.8
			c0,0.2-0.1,0.6-0.4,1.2s-0.5,1-0.7,1.3c-0.3,0.4-0.8,0.8-1.5,1.1c-0.6,0.3-1.3,0.5-1.9,0.6c-0.5,0.1-0.8,0.1-0.9,0.1
			c-0.3,0-0.7-0.2-1-0.5l-0.6-0.6v-7.1v-2.1c0-3.5,0-5.4-0.1-5.8c-0.2-1.2-0.2-2.1-0.2-2.9C224.2,79.6,224.4,78.8,224.9,78.7z
			 M228.9,83.8c-0.4-1.5-0.8-2.2-1.1-2.2l-0.1,0.1v0.1c0,0.1,0,0.1,0,0.3c0,0.1,0,0.2,0,0.4c0,0.4,0,1.2,0.1,2.4
			c0.1,1.4,0.1,3.4,0.2,5.8c0,2.3,0.1,3.5,0.3,3.5c0.1,0,0.1-0.2,0.3-0.6c0.5-1.8,0.8-3.7,0.8-5.7C229.4,86.3,229.2,85,228.9,83.8z"
			/>
		<path class="st3" d="M240,76.9c0.4-0.2,0.8-0.2,1.1-0.2c0.4,0,0.8,0.2,1.1,0.5c0.3,0.4,0.5,1.1,0.5,2.1c0.1,2,0.5,3.7,1.1,5.3
			c0.2,0.5,0.3,0.9,0.3,1.2c0,0.1,0,0.2,0.1,0.2c0,0.1,0.1,0.1,0.1,0c0.2-0.1,0.2-0.5,0.2-1.3s0-1.2,0.1-1.3s0.1-0.9,0.2-2.6
			s0.1-2.8,0.1-3.2c0-0.2,0.3-0.4,0.9-0.7c0.6-0.2,1.1-0.4,1.5-0.4c0.6,0,1.1,0.2,1.3,0.6c0.2,0.3,0.4,0.7,0.4,1s-0.1,1.8-0.4,4.4
			c-0.1,0.5-0.2,2-0.3,4.5c-0.1,1.9-0.5,4.1-1.2,6.7c-0.3,1.3-0.7,2.4-1,3.1s-0.8,1.4-1.5,2.1c-0.3,0.4-0.6,0.6-0.8,0.6
			s-0.3,0.1-0.5,0.5c-0.1,0.3-0.5,0.5-1,0.7s-1.1,0.3-1.7,0.3c-0.5,0-1-0.2-1.6-0.5s-0.9-0.6-0.9-0.8c0-0.3,0.2-0.6,0.5-1
			s0.7-0.7,1.2-0.9c0.8-0.4,1.5-0.9,2-1.6s1-1.7,1.4-3c0.5-1.5,0.7-2.4,0.7-2.8c0-0.3-0.2-0.6-0.7-0.7c-1.2-0.5-2-1.1-2.4-1.8
			c-0.2-0.4-0.6-2.2-1.3-5.4c-0.4-1.6-0.5-2.8-0.5-3.7C239,77.9,239.3,77.2,240,76.9z"/>
		<path class="st4" d="M152,67.7c-3.6,5.7-8.3,10.7-13.5,14.6c-5.6-1.4-11.3-1.8-17-1.5c4.5-4.1,8.4-8.7,11.6-14
			C139.3,66,145.6,66.2,152,67.7z"/>
		<path class="st4" d="M118,50.8c-3.6,2.1-6.9,4.5-9.9,7.2c0.6-5.9,0.4-11.7-0.6-17.4c2.7-3,5.9-5.6,9.5-7.8
			C118.3,38.8,118.6,44.8,118,50.8z"/>
		<path class="st4" d="M74.5,58.1c-3-2.7-6.3-5.3-9.9-7.2c-0.8-6-0.4-12,0.9-18c3.6,2.3,6.8,4.8,9.6,7.8
			C74.1,46.5,73.9,52.3,74.5,58.1z"/>
		<path class="st4" d="M61,80.8c-5.7-0.3-11.4,0.1-17,1.5c-5.4-3.9-9.9-8.9-13.5-14.6c6.3-1.5,12.8-1.6,18.9-0.9
			C52.6,72,56.5,76.7,61,80.8z"/>
		<path class="st3" d="M88,94c-0.6,0.3-1.2,0.6-1.6,1.1c-18.5,11.7-42.4,11.1-60.3-1.5c5.3-3.8,11.1-6.5,17.3-8
			c0.6-0.2,1.2-0.3,1.8-0.5c0.8-0.1,1.5-0.3,2.1-0.5c5.9-1,11.9-1.2,17.9-0.4c5.1,3.8,11,6.6,17.1,8.4c1.2,0.3,2.4,0.8,3.8,0.9
			C86.7,93.7,87.3,93.8,88,94z"/>
		<path class="st3" d="M87.4,90.5c-0.2,0-0.3,0-0.4-0.1c-0.2,0-0.3,0-0.5-0.1c-1.3-0.3-2.6-0.6-3.9-1.1c-0.8-0.1-1.3-0.4-2.1-0.6
			c-1.7-0.6-3.3-1.3-5-2.1c-2.1-1.1-4.2-2.1-6.3-3.5c-1.1-0.6-2.1-1.4-3-2.1c-5.1-3.8-9.6-8.6-13.1-13.8c-0.4-0.6-0.8-1.2-1.1-1.8
			s-0.6-1-0.9-1.6c-2.9-4.8-5-10.7-6-16.7c5.9,1,11.4,3,16.5,5.7c0.6,0.3,1,0.6,1.7,0.9c0.6,0.3,1.2,0.8,1.8,1.1
			c3.8,2.4,7.1,5.1,10.1,8.3c0.9,4.8,2.3,9.5,4.2,14c0.5,1.2,1.1,2.4,1.7,3.5c1.1,2,2.1,3.9,3.3,5.9c0.3,0.5,0.6,0.9,0.9,1.5
			l0.2,0.2C86.1,88.7,86.9,89.6,87.4,90.5z"/>
		<path class="st3" d="M137.4,46.9c-1.1,6.2-3.2,11.9-6,17.1c-0.3,0.6-0.6,1-0.9,1.6s-0.8,1.2-1.1,1.8c-3.5,5.4-8,10.1-13.1,13.8
			c-1.1,0.8-1.9,1.4-3,2.1c-1.9,1.2-4.1,2.4-6.3,3.5c-1.6,0.8-3.3,1.5-5,2.1c-0.8,0.3-1.4,0.4-2.1,0.6c-1.3,0.5-2.6,0.8-3.9,1.1
			c-0.2,0-0.3,0-0.4,0.1c-0.2,0-0.3,0-0.5,0.1c0.8-0.9,1.4-1.8,2-2.7l0.2-0.1c0.3-0.5,0.6-0.9,0.9-1.5c1.2-2,2.4-3.9,3.3-5.9
			c0.6-1.2,1.2-2.3,1.6-3.5c1.8-5,3.3-9.6,4.2-14.4c3-3.2,6.3-6,10.1-8.3c0.6-0.3,1.2-0.8,1.8-1c0.6-0.3,1.1-0.6,1.7-0.9
			C125.9,49.9,131.5,47.8,137.4,46.9z"/>
		<path class="st3" d="M156.3,93.5c-17.9,12.6-41.8,13.1-60.3,1.5c-0.6-0.3-1.1-0.8-1.7-1c0.6-0.2,1.2-0.3,1.9-0.5
			c1.2-0.3,2.6-0.6,3.8-0.9c6.2-1.8,12-4.7,17.1-8.4c5.9-0.9,12-0.8,17.9,0.5c0.8,0.1,1.5,0.3,2.1,0.4c0.6,0.2,1.2,0.3,1.8,0.5
			C145,87.2,150.9,89.8,156.3,93.5z"/>
		<path class="st3" d="M104.4,61.5c-0.1,0.9-0.3,2-0.6,2.9c-0.3,1.2-0.6,2.4-0.9,3.6c-1.6,5.9-4.2,11.4-7.5,16.7
			c-0.4,0.8-1.1,1.5-1.5,2.3c-0.3,0.6-0.6,0.9-0.9,1.4c-0.2,0.1-0.3,0.3-0.3,0.5c-0.2,0.1-0.3,0.4-0.5,0.6s-0.3,0.5-0.4,0.6
			c0,0,0,0.1-0.2,0.1c0,0.2-0.2,0.2-0.2,0.3s-0.2,0.1-0.2,0.3c0-0.1-0.1-0.1-0.1-0.3s-0.2-0.1-0.2-0.3c0,0,0-0.1-0.2-0.1
			c-0.2-0.1-0.3-0.4-0.4-0.6c-0.2-0.1-0.3-0.4-0.5-0.6s-0.3-0.3-0.3-0.5L88.6,87c-0.6-0.8-1.1-1.5-1.5-2.3c-3.5-5.3-5.9-11-7.5-16.7
			c-0.3-1.2-0.6-2.4-0.9-3.6c-0.2-0.9-0.5-2-0.6-2.9c-1-6-1-12.2-0.3-18.2c0.2-0.6,0.2-1.4,0.3-2c0.2-0.6,0.3-1.2,0.3-1.8
			c1.9-9.5,6.2-18.8,12.8-26.9C97.8,20.7,102,30,104,39.5c0.2,0.6,0.3,1.2,0.3,1.8c0.1,0.6,0.1,1.4,0.3,2
			C105.6,49.3,105.5,55.5,104.4,61.5z"/>
		<path class="st5" d="M259.4,176.9c0.7-3.8,0.9-7.4,0.7-10.7c0,0-1.4-33.8-38.2-33.8s-37.3,33.8-37.3,33.8
			c-0.8,10.2,2.6,23,12.2,38.1h0.4c-0.2,2.9-0.8,18.7-1.1,24.8c0,0.6,0.4,1.1,1,1.1h32.3c0.6-2.7,0.5-8.6,4.3-8.7
			c4.3-0.3,17.7,3.8,20-0.6c1.3-2.5,5.7-17.1,5.2-20c-0.7-4.7,2.7-2.5,4.7-5.2c1.6-2.3-0.9-5.1-2-6.9
			C259.6,185.3,258.6,181,259.4,176.9z"/>
		<path class="st1" d="M233.1,156.4h-1.3c-0.2,0-0.4-0.1-0.4-0.4c-0.1-0.6-0.3-1.2-0.5-1.7c-0.1-0.2,0-0.4,0.2-0.5l1.1-0.6
			c0.4-0.2,0.5-0.7,0.3-1.1l-2.1-3.6c-0.2-0.4-0.7-0.5-1.1-0.3l-1.1,0.6c-0.2,0.1-0.4,0.1-0.6-0.1c-0.4-0.4-0.8-0.9-1.3-1.3
			c-0.2-0.1-0.2-0.4-0.1-0.6l0.6-1.1c0.2-0.4,0.1-0.9-0.3-1.1l-3.6-2.1c-0.4-0.2-0.9-0.1-1.1,0.3l-0.6,1.1c-0.1,0.2-0.3,0.3-0.5,0.2
			c-0.6-0.2-1.1-0.3-1.7-0.5c-0.2,0-0.4-0.2-0.4-0.4v-1.3c0-0.5-0.4-0.8-0.8-0.8h-2.1h-2.1c-0.4,0-0.8,0.4-0.8,0.8v1.3
			c0,0.2-0.2,0.4-0.4,0.4c-0.6,0.1-1.2,0.3-1.7,0.5c-0.2,0.1-0.4,0-0.5-0.2l-0.6-1.1c-0.2-0.4-0.7-0.5-1.1-0.3l-3.6,2.1
			c-0.4,0.2-0.5,0.7-0.3,1.1l0.6,1.1c0.1,0.2,0.1,0.4-0.1,0.6c-0.4,0.4-0.9,0.8-1.3,1.3c-0.1,0.2-0.4,0.2-0.6,0.1l-1.1-0.6
			c-0.4-0.2-0.9-0.1-1.1,0.3l-2.1,3.6c-0.2,0.4-0.1,0.9,0.3,1.1l1.1,0.6c0.2,0.1,0.3,0.3,0.2,0.5c-0.2,0.6-0.3,1.1-0.5,1.7
			c0,0.2-0.2,0.4-0.4,0.4h-1.3c-0.5,0-0.8,0.4-0.8,0.8v2.1v2.1c0,0.5,0.4,0.8,0.8,0.8h1.3c0.2,0,0.4,0.1,0.4,0.4
			c0,0.1,0,0.2,0.1,0.3c0.1,0.4,0.2,0.8,0.3,1.2c0,0.1,0.1,0.2,0.1,0.2c0.1,0.2,0,0.4-0.2,0.5l-1.1,0.6c-0.4,0.2-0.5,0.7-0.3,1.1
			l2.1,3.6c0.2,0.4,0.7,0.5,1.1,0.3l1.1-0.6c0.2-0.1,0.4-0.1,0.6,0.1c0.4,0.5,0.8,0.9,1.3,1.3c0.2,0.1,0.2,0.4,0.1,0.6l-0.6,1.1
			c-0.2,0.4-0.1,0.9,0.3,1.1l1.1,0.7l2.5,1.4c0.4,0.2,0.9,0.1,1.1-0.3l0.6-1.1c0.1-0.2,0.3-0.3,0.5-0.2c0.6,0.2,1.1,0.3,1.7,0.5
			c0.2,0,0.4,0.2,0.4,0.4v1.3c0,0.5,0.4,0.8,0.8,0.8h2.1h2.1c0.4,0,0.8-0.4,0.8-0.8v-1.3c0-0.2,0.1-0.4,0.4-0.4
			c0.6-0.1,1.2-0.3,1.7-0.5c0.2-0.1,0.4,0,0.5,0.2l0.6,1.1c0.2,0.4,0.7,0.5,1.1,0.3l3.6-2.1c0.4-0.2,0.5-0.7,0.3-1.1l-0.6-1.1
			c-0.1-0.2-0.1-0.4,0.1-0.6c0.5-0.4,0.9-0.8,1.3-1.3c0.1-0.2,0.4-0.2,0.6-0.1l1.1,0.6c0.4,0.2,0.9,0.1,1.1-0.3l2.1-3.6
			c0.2-0.4,0.1-0.9-0.3-1.1l-1.1-0.6c-0.2-0.1-0.3-0.3-0.2-0.5c0.2-0.6,0.3-1.1,0.5-1.7c0-0.2,0.2-0.4,0.4-0.4h1.3
			c0.5,0,0.8-0.4,0.8-0.8v-2.1v-2.1C233.9,156.7,233.6,156.4,233.1,156.4z M215.7,172.6c-7.4,0-13.4-6-13.4-13.4s6-13.4,13.4-13.4
			s13.4,6,13.4,13.4S223.1,172.6,215.7,172.6z"/>
		<path class="st6" d="M246.3,180.8h-0.7c-0.1,0-0.2-0.1-0.3-0.2c-0.1-0.3-0.2-0.7-0.3-1c0-0.1,0-0.2,0.1-0.3l0.6-0.4
			c0.2-0.1,0.3-0.4,0.2-0.7l-1.2-2.1c-0.1-0.2-0.4-0.3-0.6-0.2l-0.6,0.4c-0.1,0.1-0.2,0-0.3,0c-0.2-0.3-0.5-0.5-0.7-0.7
			c-0.1-0.1-0.1-0.2,0-0.3l0.4-0.6c0.1-0.2,0-0.5-0.2-0.7l-2.1-1.2c-0.2-0.1-0.5,0-0.7,0.2l-0.4,0.6c-0.1,0.1-0.2,0.2-0.3,0.1
			c-0.3-0.1-0.7-0.2-1-0.3c-0.1,0-0.2-0.1-0.2-0.3v-0.7c0-0.3-0.2-0.5-0.5-0.5h-1.4h-1.2c-0.3,0-0.5,0.2-0.5,0.5v0.7
			c0,0.1-0.1,0.2-0.2,0.3c-0.4,0.1-0.7,0.2-1,0.3c-0.1,0-0.2,0-0.3-0.1l-0.4-0.6c-0.1-0.2-0.4-0.3-0.7-0.2l-2.1,1.2
			c-0.2,0.1-0.3,0.4-0.2,0.7l0.4,0.6c0.1,0.1,0,0.2-0.1,0.3c-0.3,0.2-0.5,0.5-0.7,0.7c-0.1,0.1-0.2,0.1-0.3,0l-0.6-0.4
			c-0.2-0.1-0.5-0.1-0.7,0.2l-1.2,2.1c-0.1,0.2-0.1,0.5,0.2,0.7l0.6,0.4c0.1,0.1,0.2,0.2,0.1,0.3c-0.1,0.3-0.2,0.7-0.3,1
			c0,0.1-0.1,0.2-0.3,0.2h-0.7c-0.3,0-0.5,0.2-0.5,0.5v1.2v1.2c0,0.3,0.2,0.5,0.5,0.5h0.7c0.1,0,0.2,0.1,0.3,0.2c0,0.1,0,0.1,0,0.2
			c0.1,0.2,0.1,0.5,0.2,0.7c0,0,0,0.1,0.1,0.1c0,0.1,0,0.2-0.1,0.3l-0.6,0.4c-0.2,0.1-0.3,0.4-0.2,0.7l1.2,2.1
			c0.1,0.2,0.4,0.3,0.7,0.2l0.6-0.4c0.1-0.1,0.2,0,0.3,0c0.2,0.3,0.5,0.5,0.7,0.7c0.1,0.1,0.1,0.2,0.1,0.3l-0.4,0.6
			c-0.1,0.2-0.1,0.5,0.2,0.6l0.7,0.4l1.5,0.8c0.2,0.1,0.5,0,0.7-0.2l0.4-0.6c0.1-0.1,0.2-0.2,0.3-0.1c0.3,0.1,0.7,0.2,1,0.3
			c0.1,0,0.2,0.1,0.2,0.3v0.7c0,0.3,0.2,0.5,0.5,0.5h1.2h1.2c0.3,0,0.5-0.2,0.5-0.5v-0.7c0-0.1,0.1-0.2,0.2-0.3
			c0.4-0.1,0.7-0.2,1-0.3c0.1,0,0.2,0,0.3,0.1l0.4,0.6c0.1,0.2,0.4,0.3,0.7,0.2l2.1-1.2c0.2-0.1,0.3-0.4,0.2-0.6l-0.4-0.6
			c-0.1-0.1,0-0.2,0-0.3c0.3-0.2,0.5-0.5,0.7-0.7c0.1-0.1,0.2-0.1,0.3,0l0.6,0.4c0.2,0.1,0.5,0,0.6-0.2l1.2-2.1
			c0.1-0.2,0-0.5-0.2-0.7l-0.6-0.4c-0.1-0.1-0.2-0.2-0.1-0.3c0.1-0.3,0.2-0.7,0.3-1c0-0.1,0.1-0.2,0.3-0.2h0.7
			c0.3,0,0.5-0.2,0.5-0.5v-1.2v-1.2C246.8,181,246.6,180.8,246.3,180.8z M236.1,190.4c-4.3,0-7.9-3.5-7.9-7.9c0-4.3,3.5-7.9,7.9-7.9
			c4.3,0,7.9,3.5,7.9,7.9C244,186.8,240.5,190.4,236.1,190.4z"/>
		<path class="st1" d="M188.9,199.1h-25.3c-1.6,0-2.9-1.3-2.9-2.9v-37.8c0-1.6,1.3-2.9,2.9-2.9h25.3c1.6,0,2.9,1.3,2.9,2.9v37.8
			C191.9,197.7,190.5,199.1,188.9,199.1z"/>
		<path class="st0" d="M185.7,195.3h-18.8c-1.6,0-2.8-1.3-2.8-2.8v-30.4c0-1.6,1.3-2.8,2.8-2.8h18.8c1.6,0,2.8,1.3,2.8,2.8v30.4
			C188.5,194,187.2,195.3,185.7,195.3z"/>
		<path class="st1" d="M186.1,162.9c0.7,0,1.3-0.6,1.3-1.3c0-0.7-0.6-1.3-1.3-1.3s-1.3,0.6-1.3,1.3
			C184.8,162.3,185.4,162.9,186.1,162.9z"/>
		<path class="st7" d="M185.5,162.2l1.2-1.2"/>
		<path class="st1" d="M186.1,194.1c0.7,0,1.3-0.6,1.3-1.3s-0.6-1.3-1.3-1.3s-1.3,0.6-1.3,1.3S185.4,194.1,186.1,194.1z"/>
		<path class="st7" d="M185.5,193.4l1.2-1.2"/>
		<path class="st1" d="M166.4,162.9c0.7,0,1.3-0.6,1.3-1.3c0-0.7-0.6-1.3-1.3-1.3s-1.3,0.6-1.3,1.3
			C165.1,162.3,165.7,162.9,166.4,162.9z"/>
		<path class="st7" d="M165.8,162.2l1.2-1.2"/>
		<path class="st1" d="M166.4,194.1c0.7,0,1.3-0.6,1.3-1.3s-0.6-1.3-1.3-1.3s-1.3,0.6-1.3,1.3S165.7,194.1,166.4,194.1z"/>
		<path class="st7" d="M165.8,193.4l1.2-1.2"/>
		<path class="st8" d="M181.7,175.5v-9.4c0-0.9-0.7-1.6-1.6-1.6h-7.9c-0.9,0-1.6,0.7-1.6,1.6v9.4H181.7z"/>
		<path class="st1" d="M170.8,177.1v11.3c0,0.9,0.7,1.6,1.6,1.6h7.8c0.9,0,1.6-0.7,1.6-1.6v-11.3H170.8z"/>
		<path class="st2" d="M195.1,71.1l2-4.3h-0.5l-3.2-7.2h1.5l2.6,6.2l2.8-6.2h1.4l-5.2,11.5H195.1z"/>
		<path class="st2" d="M206,67.7c-0.8,0-1.4-0.2-2-0.5s-1.1-0.8-1.4-1.5c-0.4-0.6-0.5-1.4-0.5-2.2s0.2-1.6,0.5-2.2
			c0.4-0.6,0.8-1.1,1.4-1.5c0.6-0.3,1.3-0.5,2-0.5s1.4,0.2,2,0.5s1.1,0.8,1.4,1.5c0.4,0.6,0.5,1.4,0.5,2.2s-0.2,1.6-0.5,2.2
			s-0.8,1.1-1.4,1.5S206.7,67.7,206,67.7z M206,66.6c0.5,0,0.9-0.1,1.3-0.3c0.4-0.2,0.7-0.6,1-1c0.2-0.5,0.4-1,0.4-1.7
			s-0.1-1.2-0.4-1.7c-0.2-0.5-0.6-0.8-0.9-1s-0.8-0.3-1.3-0.3s-0.9,0.1-1.3,0.3c-0.4,0.2-0.7,0.6-1,1c-0.2,0.4-0.4,1-0.4,1.7
			s0.1,1.2,0.4,1.7c0.2,0.4,0.6,0.8,0.9,1C205.1,66.5,205.6,66.6,206,66.6z"/>
		<path class="st2" d="M214.8,67.7c-0.9,0-1.7-0.3-2.2-0.9s-0.8-1.5-0.8-2.6v-4.6h1.3v4.5c0,1.6,0.7,2.5,2,2.5
			c0.7,0,1.3-0.2,1.7-0.7c0.5-0.5,0.7-1.2,0.7-2.1v-4.2h1.3v7.9h-1.2l-0.1-1.4c-0.2,0.5-0.6,0.9-1.1,1.2S215.4,67.7,214.8,67.7z"/>
		<path class="st2" d="M221,67.6v-8h1.2l0.1,1.5c0.2-0.5,0.6-0.9,1.1-1.2s1.1-0.5,1.9-0.5v1.4h-0.4c-0.5,0-0.9,0.1-1.3,0.2
			c-0.4,0.2-0.7,0.4-0.9,0.8s-0.4,0.9-0.4,1.6v4H221L221,67.6L221,67.6z"/>
	</g>
</g>
</svg>
