<?xml version="1.0" encoding="utf-8"?>
<!-- Generator: Adobe Illustrator 25.1.0, SVG Export Plug-In . SVG Version: 6.00 Build 0)  -->
<svg version="1.1" id="Layer_1" xmlns="http://www.w3.org/2000/svg" xmlns:xlink="http://www.w3.org/1999/xlink" x="0px" y="0px"
	 viewBox="0 0 330.8 268.8" style="enable-background:new 0 0 330.8 268.8;" xml:space="preserve">
<style type="text/css">
	.st0{fill:#FFFFFF;}
	.st1{fill:#808080;}
	.st2{fill:#E14504;}
	.st3{fill:none;stroke:#F0A282;stroke-width:2;stroke-linecap:round;stroke-miterlimit:10;}
	.st4{fill:#DCE3E5;}
	.st5{fill:#E97443;}
	.st6{fill:none;stroke:#FFFFFF;stroke-width:1.109;stroke-linecap:round;stroke-miterlimit:10;}
	.st7{fill:none;stroke:#F0A282;stroke-width:1.0208;stroke-linecap:round;stroke-miterlimit:10;}
	.st8{fill:none;stroke:#FFFFFF;stroke-width:3.8175;stroke-linecap:round;stroke-miterlimit:10;}
	.st9{fill:none;stroke:#F0A282;stroke-width:2.4479;stroke-linecap:round;stroke-miterlimit:10;}
	.st10{fill:none;stroke:#F0A282;stroke-width:1.7777;stroke-linecap:round;stroke-miterlimit:10;}
	.st11{fill:none;stroke:#FFFFFF;stroke-width:0.7124;stroke-linecap:round;stroke-miterlimit:10;}
	.st12{fill:none;stroke:#F0A282;stroke-width:1.5062;stroke-linecap:round;stroke-miterlimit:10;}
</style>
<g>
	<g>
		<path class="st0" d="M330.8,189c0-185.2-7.6-187.5-139-188.9c-28.3-0.3-71.2,0.4-105.9,1.2C51.8,2,19.1,3.2,13.9,20.8
			c-8.1,27.5-13.4,83.5-13.4,134c0,79.3-6.6,98.3,28.4,108.3c35.6,10.2,166.3,3.8,209.3,2.6C282.5,264.5,330.8,269.9,330.8,189z"/>
		<path class="st1" d="M32.4,160.6c-1.1,0-2.1-0.2-2.9-0.7s-1.5-1.2-1.9-2c-0.5-0.9-0.7-1.9-0.7-3s0.2-2.1,0.7-3s1.1-1.5,1.9-2
			s1.8-0.7,2.9-0.7c1.1,0,2.1,0.2,2.9,0.7c0.8,0.5,1.5,1.2,1.9,2s0.7,1.9,0.7,3s-0.2,2.2-0.7,3s-1.1,1.5-1.9,2
			C34.4,160.4,33.5,160.6,32.4,160.6z M32.4,159.4c0.8,0,1.5-0.2,2.2-0.5c0.6-0.4,1.1-0.9,1.5-1.6c0.3-0.7,0.5-1.5,0.5-2.5
			s-0.2-1.8-0.5-2.5s-0.8-1.2-1.5-1.6c-0.6-0.4-1.4-0.6-2.2-0.6s-1.5,0.2-2.2,0.6c-0.6,0.4-1.1,0.9-1.5,1.6s-0.5,1.5-0.5,2.5
			s0.2,1.8,0.5,2.5s0.8,1.2,1.5,1.6C30.8,159.3,31.5,159.4,32.4,159.4z"/>
		<path class="st1" d="M39.7,160.4v-7.9H41l0.1,1.4c0.3-0.5,0.6-0.9,1.1-1.2s1-0.4,1.6-0.4c0.9,0,1.7,0.3,2.2,0.9
			c0.6,0.6,0.8,1.5,0.8,2.6v4.6h-1.3v-4.5c0-1.6-0.7-2.5-2-2.5c-0.7,0-1.2,0.2-1.7,0.7s-0.7,1.2-0.7,2.1v4.1L39.7,160.4L39.7,160.4z
			"/>
		<path class="st1" d="M52.5,160.6c-0.8,0-1.4-0.2-2-0.5c-0.6-0.4-1.1-0.8-1.4-1.5c-0.3-0.6-0.5-1.4-0.5-2.2s0.2-1.6,0.5-2.2
			s0.8-1.1,1.4-1.5s1.3-0.5,2.1-0.5s1.4,0.2,2,0.5s1,0.8,1.3,1.4s0.4,1.2,0.4,1.8c0,0.1,0,0.2,0,0.3s0,0.2,0,0.4H50
			c0,0.6,0.2,1.1,0.4,1.5s0.6,0.7,0.9,0.9c0.4,0.2,0.8,0.3,1.2,0.3c0.6,0,1-0.1,1.4-0.4s0.7-0.6,0.8-1H56c-0.2,0.7-0.6,1.4-1.2,1.8
			C54.2,160.4,53.4,160.6,52.5,160.6z M52.5,153.4c-0.6,0-1.2,0.2-1.7,0.6s-0.8,1-0.9,1.7h5c0-0.7-0.3-1.3-0.7-1.7
			C53.7,153.6,53.1,153.4,52.5,153.4z"/>
		<path class="st1" d="M65.8,160.6c-0.8,0-1.4-0.2-2-0.5c-0.6-0.3-1.1-0.8-1.4-1.4s-0.5-1.4-0.5-2.2s0.2-1.6,0.5-2.2
			s0.8-1.1,1.4-1.5s1.3-0.5,2-0.5c0.8,0,1.4,0.2,2,0.5s1.1,0.8,1.4,1.5c0.3,0.6,0.5,1.4,0.5,2.2s-0.2,1.6-0.5,2.2s-0.8,1.1-1.4,1.4
			C67.3,160.5,66.6,160.6,65.8,160.6z M65.8,159.5c0.5,0,0.9-0.1,1.3-0.3s0.7-0.6,1-1c0.2-0.4,0.4-1,0.4-1.7s-0.1-1.2-0.4-1.7
			s-0.6-0.8-0.9-1s-0.8-0.3-1.3-0.3s-0.9,0.1-1.3,0.3s-0.7,0.6-1,1c-0.2,0.4-0.4,1-0.4,1.7s0.1,1.2,0.4,1.7s0.6,0.8,0.9,1
			S65.4,159.5,65.8,159.5z"/>
		<path class="st1" d="M72.1,160.4v-6.8h-1.2v-1.1h1.2v-1.4c0-0.8,0.2-1.3,0.6-1.7c0.4-0.3,0.9-0.5,1.7-0.5h0.8v1.2h-0.6
			c-0.4,0-0.7,0.1-0.9,0.2c-0.2,0.2-0.3,0.4-0.3,0.8v1.3h2v1.1h-2v6.8L72.1,160.4L72.1,160.4z"/>
		<path class="st1" d="M84.4,160.4c-0.7,0-1.3-0.2-1.7-0.5c-0.4-0.3-0.6-1-0.6-1.9v-4.4h-1.4v-1.1h1.4l0.2-1.9h1.2v1.9h2.3v1.1h-2.3
			v4.4c0,0.5,0.1,0.8,0.3,1c0.2,0.2,0.6,0.3,1.1,0.3h0.8v1.1L84.4,160.4L84.4,160.4z"/>
		<path class="st1" d="M87.5,160.4v-11.5h1.3v4.9c0.3-0.5,0.7-0.9,1.1-1.1c0.5-0.3,1-0.4,1.6-0.4c0.9,0,1.6,0.3,2.2,0.9
			c0.5,0.6,0.8,1.5,0.8,2.6v4.6h-1.3v-4.5c0-1.6-0.7-2.5-2-2.5c-0.7,0-1.3,0.2-1.7,0.7c-0.5,0.5-0.7,1.2-0.7,2.1v4.1L87.5,160.4
			L87.5,160.4z"/>
		<path class="st1" d="M100.2,160.6c-0.8,0-1.4-0.2-2-0.5c-0.6-0.4-1-0.8-1.4-1.5c-0.3-0.6-0.5-1.4-0.5-2.2s0.2-1.6,0.5-2.2
			s0.8-1.1,1.4-1.5s1.3-0.5,2.1-0.5c0.8,0,1.4,0.2,2,0.5s1,0.8,1.3,1.4s0.4,1.2,0.4,1.8c0,0.1,0,0.2,0,0.3s0,0.2,0,0.4h-6.3
			c0,0.6,0.2,1.1,0.4,1.5s0.6,0.7,0.9,0.9c0.4,0.2,0.8,0.3,1.2,0.3c0.5,0,1-0.1,1.4-0.4s0.7-0.6,0.8-1h1.3c-0.2,0.7-0.6,1.4-1.2,1.8
			C101.9,160.4,101.1,160.6,100.2,160.6z M100.2,153.4c-0.6,0-1.2,0.2-1.7,0.6s-0.8,1-0.9,1.7h5c0-0.7-0.3-1.3-0.7-1.7
			C101.4,153.6,100.9,153.4,100.2,153.4z"/>
		<path class="st1" d="M114.2,160.6c-0.6,0-1.2-0.1-1.7-0.4s-0.9-0.6-1.2-1.1l-0.1,1.3H110v-11.5h1.3v4.9c0.3-0.4,0.6-0.7,1.1-1
			s1.1-0.5,1.8-0.5c0.8,0,1.5,0.2,2.1,0.5c0.6,0.4,1,0.9,1.4,1.5s0.5,1.3,0.5,2.1s-0.2,1.5-0.5,2.1s-0.8,1.1-1.4,1.5
			C115.7,160.5,115,160.6,114.2,160.6z M114.1,159.5c0.5,0,1-0.1,1.4-0.4s0.7-0.6,1-1.1c0.2-0.4,0.4-1,0.4-1.6s-0.1-1.1-0.4-1.6
			c-0.2-0.5-0.5-0.8-1-1.1s-0.9-0.4-1.4-0.4s-1,0.1-1.4,0.4c-0.4,0.2-0.7,0.6-1,1.1c-0.2,0.4-0.4,1-0.4,1.6s0.1,1.1,0.4,1.6
			c0.2,0.5,0.6,0.8,1,1.1C113.1,159.3,113.5,159.5,114.1,159.5z"/>
		<path class="st1" d="M123.6,160.6c-0.8,0-1.4-0.2-2-0.5c-0.6-0.4-1.1-0.8-1.4-1.5c-0.3-0.6-0.5-1.4-0.5-2.2s0.2-1.6,0.5-2.2
			s0.8-1.1,1.4-1.5s1.3-0.5,2.1-0.5s1.4,0.2,2,0.5s1,0.8,1.3,1.4s0.5,1.2,0.5,1.8c0,0.1,0,0.2,0,0.3s0,0.2,0,0.4H121
			c0,0.6,0.2,1.1,0.4,1.5s0.6,0.7,0.9,0.9c0.4,0.2,0.8,0.3,1.2,0.3c0.5,0,1-0.1,1.4-0.4s0.6-0.6,0.8-1h1.3c-0.2,0.7-0.6,1.4-1.2,1.8
			C125.3,160.4,124.5,160.6,123.6,160.6z M123.6,153.4c-0.6,0-1.2,0.2-1.7,0.6s-0.8,1-0.9,1.7h5c0-0.7-0.3-1.3-0.7-1.7
			C124.8,153.6,124.2,153.4,123.6,153.4z"/>
		<path class="st1" d="M132.2,160.6c-0.9,0-1.7-0.2-2.4-0.7c-0.6-0.5-1-1.1-1.1-2h1.4c0.1,0.4,0.3,0.8,0.7,1.1s0.8,0.5,1.4,0.5
			c0.6,0,1-0.1,1.2-0.4c0.3-0.2,0.4-0.5,0.4-0.9c0-0.5-0.2-0.8-0.5-1s-0.8-0.3-1.5-0.4c-0.4-0.1-0.9-0.2-1.3-0.4
			c-0.4-0.2-0.8-0.4-1.1-0.7s-0.4-0.7-0.4-1.2c0-0.7,0.3-1.3,0.8-1.7s1.2-0.7,2.1-0.7c0.8,0,1.5,0.2,2.1,0.6c0.5,0.4,0.8,1,0.9,1.8
			h-1.3c-0.1-0.4-0.2-0.7-0.5-0.9s-0.7-0.3-1.2-0.3s-0.8,0.1-1.1,0.3s-0.4,0.5-0.4,0.8s0.2,0.6,0.5,0.8s0.8,0.3,1.4,0.5
			c0.5,0.1,1,0.2,1.4,0.4s0.8,0.4,1.1,0.7s0.4,0.7,0.4,1.3c0,0.7-0.3,1.3-0.8,1.8C133.8,160.4,133.1,160.6,132.2,160.6z"/>
		<path class="st1" d="M139.9,160.4c-0.7,0-1.3-0.2-1.7-0.5s-0.6-1-0.6-1.9v-4.4h-1.4v-1.1h1.4l0.2-1.9h1.2v1.9h2.3v1.1H139v4.4
			c0,0.5,0.1,0.8,0.3,1s0.6,0.3,1.1,0.3h0.8v1.1L139.9,160.4L139.9,160.4z"/>
		<path class="st1" d="M150.3,160.4c-0.7,0-1.3-0.2-1.7-0.5s-0.6-1-0.6-1.9v-4.4h-1.4v-1.1h1.4l0.2-1.9h1.2v1.9h2.3v1.1h-2.3v4.4
			c0,0.5,0.1,0.8,0.3,1s0.6,0.3,1.1,0.3h0.8v1.1L150.3,160.4L150.3,160.4z"/>
		<path class="st1" d="M153.4,160.4v-11.5h1.3v4.9c0.3-0.5,0.7-0.9,1.1-1.1c0.5-0.3,1-0.4,1.6-0.4c0.9,0,1.6,0.3,2.2,0.9
			c0.6,0.6,0.8,1.5,0.8,2.6v4.6h-1.3v-4.5c0-1.6-0.7-2.5-2-2.5c-0.7,0-1.3,0.2-1.7,0.7c-0.5,0.5-0.7,1.2-0.7,2.1v4.1L153.4,160.4
			L153.4,160.4z"/>
		<path class="st1" d="M163.4,150.7c-0.3,0-0.5-0.1-0.7-0.3s-0.3-0.4-0.3-0.7s0.1-0.5,0.3-0.6c0.2-0.2,0.4-0.3,0.7-0.3
			s0.5,0.1,0.7,0.3s0.3,0.4,0.3,0.6c0,0.3-0.1,0.5-0.3,0.7C163.8,150.6,163.6,150.7,163.4,150.7z M162.7,160.4v-7.9h1.3v7.9H162.7z"
			/>
		<path class="st1" d="M166.4,160.4v-7.9h1.2l0.1,1.4c0.3-0.5,0.6-0.9,1.1-1.2s1-0.4,1.6-0.4c0.9,0,1.7,0.3,2.2,0.9s0.8,1.5,0.8,2.6
			v4.6h-1.3v-4.5c0-1.6-0.7-2.5-2.1-2.5c-0.7,0-1.2,0.2-1.7,0.7c-0.4,0.5-0.7,1.2-0.7,2.1v4.1L166.4,160.4L166.4,160.4z"/>
		<path class="st1" d="M178.6,157.9c-0.4,0-0.9-0.1-1.2-0.2l-0.8,0.8c0.1,0.1,0.3,0.2,0.4,0.2c0.2,0.1,0.4,0.1,0.8,0.2
			c0.3,0,0.8,0.1,1.4,0.1c1.1,0.1,1.8,0.3,2.3,0.7s0.7,1,0.7,1.6c0,0.5-0.1,0.9-0.4,1.3s-0.6,0.8-1.1,1c-0.5,0.3-1.2,0.4-2,0.4
			c-0.7,0-1.3-0.1-1.9-0.3s-1-0.5-1.3-0.9s-0.5-0.9-0.5-1.4c0-0.3,0.1-0.6,0.2-1c0.2-0.4,0.5-0.7,0.9-1c-0.2-0.1-0.4-0.2-0.6-0.3
			c-0.2-0.1-0.3-0.2-0.5-0.4v-0.4l1.4-1.3c-0.6-0.5-0.9-1.2-0.9-2.1c0-0.5,0.1-1,0.4-1.4c0.2-0.4,0.6-0.8,1.1-1s1-0.4,1.7-0.4
			c0.5,0,0.9,0.1,1.2,0.2h2.9v1l-1.5,0.1c0.3,0.5,0.5,1,0.5,1.6c0,0.5-0.1,1-0.4,1.4c-0.2,0.4-0.6,0.8-1.1,1
			C179.9,157.8,179.3,157.9,178.6,157.9z M176.3,161.5c0,0.5,0.2,0.9,0.7,1.2c0.4,0.3,1,0.4,1.7,0.4s1.2-0.1,1.6-0.4
			c0.4-0.3,0.6-0.7,0.6-1.2c0-0.3-0.1-0.6-0.4-0.9s-0.8-0.4-1.5-0.4c-0.6,0-1.1-0.1-1.5-0.2c-0.4,0.2-0.7,0.5-0.9,0.8
			C176.4,161,176.3,161.2,176.3,161.5z M178.6,156.8c0.6,0,1-0.2,1.4-0.4c0.3-0.3,0.5-0.7,0.5-1.3c0-0.5-0.2-1-0.5-1.3
			s-0.8-0.4-1.4-0.4c-0.6,0-1,0.1-1.4,0.4c-0.3,0.3-0.5,0.7-0.5,1.3s0.2,1,0.5,1.3C177.6,156.7,178.1,156.8,178.6,156.8z"/>
		<path class="st1" d="M187.4,160.6c-0.9,0-1.7-0.2-2.4-0.7c-0.6-0.5-1-1.1-1.1-2h1.4c0.1,0.4,0.3,0.8,0.7,1.1
			c0.3,0.3,0.8,0.5,1.4,0.5c0.6,0,1-0.1,1.2-0.4c0.3-0.2,0.4-0.5,0.4-0.9c0-0.5-0.2-0.8-0.5-1s-0.8-0.3-1.5-0.4
			c-0.4-0.1-0.9-0.2-1.3-0.4c-0.4-0.2-0.8-0.4-1.1-0.7s-0.4-0.7-0.4-1.2c0-0.7,0.3-1.3,0.8-1.7s1.2-0.7,2.1-0.7
			c0.8,0,1.5,0.2,2.1,0.6c0.5,0.4,0.9,1,0.9,1.8h-1.3c-0.1-0.4-0.2-0.7-0.5-0.9s-0.7-0.3-1.2-0.3s-0.9,0.1-1.1,0.3
			c-0.3,0.2-0.4,0.5-0.4,0.8s0.2,0.6,0.5,0.8s0.8,0.3,1.4,0.5c0.5,0.1,1,0.2,1.4,0.4c0.4,0.1,0.8,0.4,1.1,0.7s0.4,0.7,0.4,1.3
			c0,0.7-0.3,1.3-0.8,1.8C189.1,160.4,188.3,160.6,187.4,160.6z"/>
		<path class="st1" d="M28.1,186l2-4.3h-0.5l-3.2-7.2h1.5l2.6,6.2l2.8-6.2h1.4L29.5,186H28.1z"/>
		<path class="st1" d="M39,182.6c-0.8,0-1.4-0.2-2-0.5s-1.1-0.8-1.4-1.4c-0.4-0.6-0.5-1.4-0.5-2.2s0.2-1.6,0.5-2.2
			c0.4-0.6,0.8-1.1,1.4-1.5s1.3-0.5,2-0.5c0.8,0,1.4,0.2,2,0.5s1.1,0.8,1.4,1.5c0.4,0.6,0.5,1.4,0.5,2.2s-0.2,1.6-0.5,2.2
			c-0.4,0.6-0.8,1.1-1.4,1.4S39.7,182.6,39,182.6z M39,181.5c0.5,0,0.9-0.1,1.3-0.3c0.4-0.2,0.7-0.6,1-1c0.2-0.4,0.4-1,0.4-1.7
			s-0.1-1.2-0.4-1.7s-0.6-0.8-1-1s-0.8-0.3-1.3-0.3s-0.9,0.1-1.3,0.3c-0.4,0.2-0.7,0.6-1,1c-0.2,0.4-0.4,1-0.4,1.7s0.1,1.2,0.4,1.7
			s0.6,0.8,1,1C38.1,181.4,38.5,181.5,39,181.5z"/>
		<path class="st1" d="M47.7,182.6c-0.9,0-1.7-0.3-2.2-0.9c-0.6-0.6-0.8-1.5-0.8-2.6v-4.6H46v4.5c0,1.6,0.7,2.5,2,2.5
			c0.7,0,1.3-0.2,1.7-0.7c0.5-0.5,0.7-1.2,0.7-2.1v-4.1h1.3v7.9h-1.2l-0.1-1.4c-0.2,0.5-0.6,0.9-1.1,1.2
			C48.8,182.5,48.3,182.6,47.7,182.6z"/>
		<path class="st1" d="M61.8,182.6c-0.8,0-1.4-0.2-2-0.5c-0.6-0.4-1.1-0.8-1.4-1.5c-0.3-0.6-0.5-1.3-0.5-2.2c0-0.8,0.2-1.6,0.5-2.2
			s0.8-1.1,1.4-1.5s1.3-0.5,2-0.5c0.9,0,1.7,0.2,2.4,0.7c0.7,0.5,1.1,1.1,1.2,2H64c-0.1-0.5-0.4-0.9-0.8-1.1
			c-0.4-0.3-0.9-0.4-1.5-0.4c-0.5,0-0.9,0.1-1.3,0.3c-0.4,0.2-0.7,0.6-1,1s-0.4,1-0.4,1.7s0.1,1.2,0.4,1.7s0.6,0.8,1,1
			s0.8,0.3,1.3,0.3s1-0.1,1.5-0.4c0.4-0.3,0.7-0.7,0.8-1.2h1.4c-0.2,0.8-0.6,1.5-1.2,2C63.6,182.4,62.8,182.6,61.8,182.6z"/>
		<path class="st1" d="M70,182.6c-0.7,0-1.2-0.1-1.7-0.3c-0.4-0.2-0.8-0.5-1-0.9s-0.3-0.8-0.3-1.2c0-0.8,0.3-1.4,0.9-1.9
			c0.6-0.4,1.5-0.7,2.5-0.7h2.1v-0.1c0-0.7-0.2-1.2-0.5-1.6c-0.4-0.4-0.9-0.5-1.5-0.5c-0.5,0-1,0.1-1.4,0.4s-0.6,0.6-0.7,1.1H67
			c0-0.6,0.2-1.1,0.6-1.5c0.3-0.4,0.8-0.7,1.3-0.9s1-0.3,1.6-0.3c1.1,0,1.9,0.3,2.5,0.9s0.8,1.4,0.8,2.4v4.9h-1.2l-0.1-1.4
			c-0.2,0.4-0.6,0.8-1,1.1C71.3,182.5,70.7,182.6,70,182.6z M70.2,181.5c0.5,0,1-0.1,1.3-0.4c0.4-0.3,0.7-0.6,0.8-1
			c0.2-0.4,0.3-0.9,0.3-1.3l0,0h-2c-0.8,0-1.3,0.1-1.7,0.4c-0.3,0.3-0.5,0.6-0.5,1s0.2,0.8,0.5,1C69.2,181.4,69.6,181.5,70.2,181.5z
			"/>
		<path class="st1" d="M76,182.4v-7.9h1.2l0.1,1.4c0.3-0.5,0.6-0.9,1.1-1.2s1-0.4,1.6-0.4c0.9,0,1.7,0.3,2.2,0.9
			c0.6,0.6,0.8,1.5,0.8,2.6v4.6h-1.3v-4.5c0-1.6-0.7-2.5-2.1-2.5c-0.7,0-1.2,0.2-1.7,0.7s-0.7,1.2-0.7,2.1v4.1L76,182.4L76,182.4z"
			/>
		<path class="st1" d="M93,182.6c-0.8,0-1.5-0.2-2.1-0.5c-0.6-0.4-1.1-0.9-1.4-1.5s-0.5-1.3-0.5-2.1s0.2-1.5,0.5-2.1
			s0.8-1.1,1.4-1.5s1.3-0.5,2.1-0.5c0.7,0,1.2,0.1,1.7,0.4s0.9,0.6,1.2,1.1V171h1.3v11.5H96l-0.1-1.3c-0.3,0.4-0.6,0.7-1.1,1
			S93.7,182.6,93,182.6z M93.1,181.5c0.5,0,1-0.1,1.4-0.4c0.4-0.2,0.7-0.6,1-1.1c0.2-0.4,0.3-1,0.3-1.6s-0.1-1.1-0.3-1.6
			c-0.2-0.5-0.6-0.8-1-1.1c-0.4-0.2-0.9-0.4-1.4-0.4s-1,0.1-1.4,0.4c-0.4,0.2-0.7,0.6-1,1.1c-0.2,0.4-0.3,1-0.3,1.6s0.1,1.1,0.3,1.6
			c0.2,0.5,0.5,0.8,1,1.1C92.1,181.3,92.6,181.5,93.1,181.5z"/>
		<path class="st1" d="M103,182.6c-0.8,0-1.4-0.2-2-0.5s-1.1-0.8-1.4-1.4s-0.5-1.4-0.5-2.2s0.2-1.6,0.5-2.2s0.8-1.1,1.4-1.5
			s1.3-0.5,2-0.5c0.8,0,1.4,0.2,2,0.5s1.1,0.8,1.4,1.5c0.3,0.6,0.5,1.4,0.5,2.2s-0.2,1.6-0.5,2.2s-0.8,1.1-1.4,1.4
			C104.5,182.5,103.8,182.6,103,182.6z M103,181.5c0.5,0,0.9-0.1,1.3-0.3s0.7-0.6,1-1c0.2-0.4,0.4-1,0.4-1.7s-0.1-1.2-0.4-1.7
			s-0.6-0.8-1-1s-0.8-0.3-1.3-0.3s-0.9,0.1-1.3,0.3s-0.7,0.6-1,1c-0.2,0.4-0.4,1-0.4,1.7s0.1,1.2,0.4,1.7s0.6,0.8,1,1
			C102.2,181.4,102.6,181.5,103,181.5z"/>
		<path class="st1" d="M116.3,182.4c-0.7,0-1.3-0.2-1.7-0.5s-0.6-1-0.6-1.9v-4.4h-1.4v-1.1h1.4l0.2-1.9h1.2v1.9h2.3v1.1h-2.3v4.4
			c0,0.5,0.1,0.8,0.3,1s0.6,0.3,1.1,0.3h0.8v1.1L116.3,182.4L116.3,182.4z"/>
		<path class="st1" d="M122.7,182.6c-0.8,0-1.4-0.2-2-0.5s-1.1-0.8-1.4-1.4s-0.5-1.4-0.5-2.2s0.2-1.6,0.5-2.2
			c0.4-0.6,0.8-1.1,1.4-1.5s1.3-0.5,2-0.5s1.4,0.2,2,0.5s1.1,0.8,1.4,1.5c0.4,0.6,0.5,1.4,0.5,2.2s-0.2,1.6-0.5,2.2
			s-0.8,1.1-1.4,1.4C124.1,182.5,123.5,182.6,122.7,182.6z M122.7,181.5c0.5,0,0.9-0.1,1.3-0.3s0.7-0.6,1-1c0.2-0.4,0.4-1,0.4-1.7
			s-0.1-1.2-0.4-1.7c-0.2-0.5-0.6-0.8-0.9-1c-0.4-0.2-0.8-0.3-1.3-0.3s-0.9,0.1-1.3,0.3s-0.7,0.6-1,1c-0.2,0.4-0.4,1-0.4,1.7
			s0.1,1.2,0.4,1.7c0.2,0.5,0.6,0.8,0.9,1S122.3,181.5,122.7,181.5z"/>
		<path class="st1" d="M133.6,172.7c-0.3,0-0.5-0.1-0.7-0.3s-0.3-0.4-0.3-0.7s0.1-0.5,0.3-0.6c0.2-0.2,0.4-0.3,0.7-0.3
			s0.5,0.1,0.7,0.3s0.3,0.4,0.3,0.6c0,0.3-0.1,0.5-0.3,0.7C134.1,172.6,133.9,172.7,133.6,172.7z M133,182.4v-7.9h1.3v7.9H133z"/>
		<path class="st1" d="M136.6,182.4v-7.9h1.2l0.1,1.1c0.3-0.4,0.6-0.8,1-1s0.9-0.3,1.4-0.3c0.6,0,1.2,0.1,1.6,0.4
			c0.5,0.3,0.8,0.7,1.1,1.2c0.3-0.5,0.7-0.9,1.1-1.1c0.5-0.3,1-0.4,1.6-0.4c0.9,0,1.7,0.3,2.3,0.9s0.8,1.5,0.8,2.6v4.6h-1.3V178
			c0-0.8-0.2-1.4-0.5-1.9c-0.3-0.4-0.8-0.6-1.4-0.6c-0.6,0-1.2,0.2-1.6,0.7c-0.4,0.5-0.6,1.2-0.6,2.1v4.1h-1.3v-4.5
			c0-0.8-0.2-1.4-0.5-1.9c-0.3-0.4-0.8-0.6-1.4-0.6c-0.6,0-1.1,0.2-1.6,0.7c-0.4,0.5-0.6,1.2-0.6,2.1v4.1L136.6,182.4L136.6,182.4z"
			/>
		<path class="st1" d="M151,186v-11.5h1.2l0.1,1.3c0.3-0.4,0.6-0.7,1.1-1s1.1-0.5,1.8-0.5c0.8,0,1.5,0.2,2.1,0.5
			c0.6,0.4,1,0.9,1.4,1.5s0.5,1.3,0.5,2.1s-0.2,1.5-0.5,2.1s-0.8,1.1-1.4,1.5c-0.6,0.4-1.3,0.5-2.1,0.5c-0.7,0-1.2-0.1-1.7-0.4
			s-0.9-0.6-1.2-1.1v4.8L151,186L151,186z M155.1,181.5c0.5,0,1-0.1,1.4-0.4c0.4-0.2,0.7-0.6,1-1.1c0.2-0.4,0.4-1,0.4-1.6
			s-0.1-1.1-0.4-1.6c-0.2-0.5-0.6-0.8-1-1.1c-0.4-0.2-0.9-0.4-1.4-0.4s-1,0.1-1.4,0.4s-0.7,0.6-1,1.1c-0.2,0.4-0.3,1-0.3,1.6
			s0.1,1.1,0.3,1.6s0.6,0.8,1,1.1S154.5,181.5,155.1,181.5z"/>
		<path class="st1" d="M161,182.4v-7.9h1.2l0.1,1.5c0.2-0.5,0.6-0.9,1.1-1.2s1.1-0.5,1.9-0.5v1.4h-0.4c-0.5,0-0.9,0.1-1.3,0.2
			c-0.4,0.2-0.7,0.5-0.9,0.8c-0.2,0.4-0.3,0.9-0.3,1.6v4L161,182.4L161,182.4z"/>
		<path class="st1" d="M170.1,182.6c-0.8,0-1.4-0.2-2-0.5s-1.1-0.8-1.4-1.4c-0.3-0.6-0.5-1.4-0.5-2.2s0.2-1.6,0.5-2.2
			s0.8-1.1,1.4-1.5c0.6-0.3,1.3-0.5,2-0.5c0.8,0,1.4,0.2,2,0.5s1.1,0.8,1.4,1.5c0.3,0.6,0.5,1.4,0.5,2.2s-0.2,1.6-0.5,2.2
			c-0.4,0.6-0.8,1.1-1.4,1.4C171.6,182.5,170.9,182.6,170.1,182.6z M170.1,181.5c0.5,0,0.9-0.1,1.3-0.3s0.7-0.6,1-1
			c0.2-0.4,0.4-1,0.4-1.7s-0.1-1.2-0.4-1.7c-0.2-0.4-0.6-0.8-0.9-1c-0.4-0.2-0.8-0.3-1.3-0.3s-0.9,0.1-1.3,0.3c-0.4,0.2-0.7,0.6-1,1
			c-0.2,0.4-0.4,1-0.4,1.7s0.1,1.2,0.4,1.7s0.6,0.8,0.9,1S169.7,181.5,170.1,181.5z"/>
		<path class="st1" d="M177.9,182.4l-3-7.9h1.4l2.4,6.6l2.4-6.6h1.4l-3,7.9H177.9z"/>
		<path class="st1" d="M187.1,182.6c-0.8,0-1.4-0.2-2-0.5c-0.6-0.4-1.1-0.8-1.4-1.5c-0.3-0.6-0.5-1.4-0.5-2.2s0.2-1.6,0.5-2.2
			s0.8-1.1,1.4-1.5c0.6-0.4,1.3-0.5,2.1-0.5s1.4,0.2,2,0.5s1,0.8,1.3,1.4s0.5,1.2,0.5,1.8c0,0.1,0,0.2,0,0.3s0,0.2,0,0.4h-6.3
			c0,0.6,0.2,1.1,0.4,1.5s0.6,0.7,0.9,0.9c0.4,0.2,0.8,0.3,1.2,0.3c0.6,0,1-0.1,1.4-0.4s0.6-0.6,0.8-1h1.3c-0.2,0.7-0.6,1.4-1.2,1.8
			C188.8,182.4,188,182.6,187.1,182.6z M187.1,175.4c-0.6,0-1.2,0.2-1.7,0.6s-0.8,1-0.9,1.7h5c0-0.7-0.3-1.3-0.7-1.7
			C188.3,175.6,187.8,175.4,187.1,175.4z"/>
		<path class="st1" d="M28.1,208l2-4.3h-0.5l-3.2-7.2h1.5l2.6,6.2l2.8-6.2h1.4L29.5,208H28.1z"/>
		<path class="st1" d="M39,204.6c-0.8,0-1.4-0.2-2-0.5s-1.1-0.8-1.4-1.4c-0.4-0.6-0.5-1.4-0.5-2.2s0.2-1.6,0.5-2.2
			c0.4-0.6,0.8-1.1,1.4-1.5s1.3-0.5,2-0.5c0.8,0,1.4,0.2,2,0.5s1.1,0.8,1.4,1.5c0.4,0.6,0.5,1.4,0.5,2.2s-0.2,1.6-0.5,2.2
			c-0.4,0.6-0.8,1.1-1.4,1.4S39.7,204.6,39,204.6z M39,203.5c0.5,0,0.9-0.1,1.3-0.3c0.4-0.2,0.7-0.6,1-1c0.2-0.4,0.4-1,0.4-1.7
			s-0.1-1.2-0.4-1.7s-0.6-0.8-1-1s-0.8-0.3-1.3-0.3s-0.9,0.1-1.3,0.3c-0.4,0.2-0.7,0.6-1,1c-0.2,0.4-0.4,1-0.4,1.7s0.1,1.2,0.4,1.7
			s0.6,0.8,1,1C38.1,203.4,38.5,203.5,39,203.5z"/>
		<path class="st1" d="M47.7,204.6c-0.9,0-1.7-0.3-2.2-0.9c-0.6-0.6-0.8-1.5-0.8-2.6v-4.6H46v4.5c0,1.6,0.7,2.5,2,2.5
			c0.7,0,1.3-0.2,1.7-0.7c0.5-0.5,0.7-1.2,0.7-2.1v-4.1h1.3v7.9h-1.2l-0.1-1.4c-0.2,0.5-0.6,0.9-1.1,1.2
			C48.8,204.5,48.3,204.6,47.7,204.6z"/>
		<path class="st1" d="M54,204.4v-7.9h1.2l0.1,1.5c0.2-0.5,0.6-0.9,1.1-1.2s1.1-0.5,1.9-0.5v1.4h-0.4c-0.5,0-0.9,0.1-1.3,0.2
			c-0.4,0.2-0.7,0.5-0.9,0.8c-0.2,0.4-0.4,0.9-0.4,1.6v4L54,204.4L54,204.4z"/>
		<path class="st1" d="M67.1,204.6c-1,0-1.7-0.2-2.4-0.7s-1-1.1-1.1-2H65c0.1,0.4,0.3,0.8,0.7,1.1c0.3,0.3,0.8,0.5,1.4,0.5
			s1-0.1,1.2-0.4c0.3-0.2,0.4-0.5,0.4-0.9c0-0.5-0.2-0.8-0.5-1s-0.8-0.3-1.5-0.4c-0.4-0.1-0.8-0.2-1.3-0.4c-0.4-0.2-0.8-0.4-1.1-0.7
			c-0.3-0.3-0.4-0.7-0.4-1.2c0-0.7,0.3-1.3,0.8-1.7s1.2-0.7,2.1-0.7c0.8,0,1.5,0.2,2.1,0.6c0.5,0.4,0.8,1,0.9,1.8h-1.3
			c0-0.4-0.2-0.7-0.5-0.9s-0.7-0.3-1.2-0.3s-0.8,0.1-1.1,0.3c-0.3,0.2-0.4,0.5-0.4,0.8s0.2,0.6,0.5,0.8s0.8,0.3,1.4,0.5
			c0.5,0.1,1,0.2,1.4,0.4c0.4,0.1,0.8,0.4,1.1,0.7c0.3,0.3,0.4,0.7,0.4,1.3c0,0.7-0.3,1.3-0.8,1.8C68.7,204.4,68,204.6,67.1,204.6z"
			/>
		<path class="st1" d="M72,204.4v-11.5h1.3v11.5H72z"/>
		<path class="st1" d="M79.1,204.6c-0.8,0-1.4-0.2-2-0.5c-0.6-0.4-1.1-0.8-1.4-1.5c-0.3-0.6-0.5-1.4-0.5-2.2s0.2-1.6,0.5-2.2
			s0.8-1.1,1.4-1.5s1.3-0.5,2.1-0.5c0.8,0,1.4,0.2,2,0.5s1,0.8,1.3,1.4s0.5,1.2,0.5,1.8c0,0.1,0,0.2,0,0.3s0,0.2,0,0.4h-6.3
			c0,0.6,0.2,1.1,0.4,1.5s0.6,0.7,0.9,0.9c0.4,0.2,0.8,0.3,1.2,0.3c0.6,0,1-0.1,1.4-0.4s0.7-0.6,0.8-1h1.3c-0.2,0.7-0.6,1.4-1.2,1.8
			C80.8,204.4,80.1,204.6,79.1,204.6z M79.1,197.4c-0.6,0-1.2,0.2-1.7,0.6s-0.8,1-0.9,1.7h5c0-0.7-0.3-1.3-0.7-1.7
			C80.4,197.6,79.8,197.4,79.1,197.4z"/>
		<path class="st1" d="M88.2,204.6c-0.8,0-1.4-0.2-2-0.5c-0.6-0.4-1.1-0.8-1.4-1.5c-0.3-0.6-0.5-1.4-0.5-2.2s0.2-1.6,0.5-2.2
			s0.8-1.1,1.4-1.5s1.3-0.5,2.1-0.5c0.8,0,1.4,0.2,2,0.5s1,0.8,1.3,1.4s0.5,1.2,0.5,1.8c0,0.1,0,0.2,0,0.3s0,0.2,0,0.4h-6.3
			c0,0.6,0.2,1.1,0.4,1.5s0.6,0.7,0.9,0.9c0.4,0.2,0.8,0.3,1.2,0.3c0.6,0,1-0.1,1.4-0.4s0.7-0.6,0.8-1h1.3c-0.2,0.7-0.6,1.4-1.2,1.8
			C89.9,204.4,89.2,204.6,88.2,204.6z M88.2,197.4c-0.6,0-1.2,0.2-1.7,0.6s-0.8,1-0.9,1.7h5c0-0.7-0.3-1.3-0.7-1.7
			C89.5,197.6,88.9,197.4,88.2,197.4z"/>
		<path class="st1" d="M93.8,208v-11.5H95l0.1,1.3c0.3-0.4,0.6-0.7,1.1-1s1.1-0.5,1.8-0.5c0.8,0,1.5,0.2,2.1,0.5
			c0.6,0.4,1,0.9,1.4,1.5s0.5,1.3,0.5,2.1s-0.2,1.5-0.5,2.1s-0.8,1.1-1.4,1.5s-1.3,0.5-2.1,0.5c-0.6,0-1.2-0.1-1.7-0.4
			s-0.9-0.6-1.2-1.1v4.8L93.8,208L93.8,208z M97.9,203.5c0.5,0,1-0.1,1.4-0.4c0.4-0.2,0.7-0.6,1-1.1c0.2-0.4,0.3-1,0.3-1.6
			s-0.1-1.1-0.3-1.6c-0.2-0.5-0.6-0.8-1-1.1c-0.4-0.2-0.9-0.4-1.4-0.4s-1,0.1-1.4,0.4c-0.4,0.2-0.7,0.6-1,1.1
			c-0.2,0.4-0.3,1-0.3,1.6s0.1,1.1,0.3,1.6c0.2,0.5,0.6,0.8,1,1.1C96.9,203.3,97.3,203.5,97.9,203.5z"/>
		<path class="st1" d="M108.9,194.7c-0.3,0-0.5-0.1-0.7-0.3s-0.3-0.4-0.3-0.7s0.1-0.5,0.3-0.6c0.2-0.2,0.4-0.3,0.7-0.3
			s0.5,0.1,0.7,0.3s0.3,0.4,0.3,0.6c0,0.3-0.1,0.5-0.3,0.7C109.4,194.6,109.1,194.7,108.9,194.7z M108.2,204.4v-7.9h1.3v7.9H108.2z"
			/>
		<path class="st1" d="M114.9,204.6c-0.9,0-1.7-0.2-2.4-0.7c-0.6-0.5-1-1.1-1.1-2h1.4c0.1,0.4,0.3,0.8,0.7,1.1
			c0.3,0.3,0.8,0.5,1.4,0.5s1-0.1,1.2-0.4c0.3-0.2,0.4-0.5,0.4-0.9c0-0.5-0.2-0.8-0.5-1c-0.4-0.2-0.8-0.3-1.5-0.4
			c-0.4-0.1-0.9-0.2-1.3-0.4s-0.8-0.4-1.1-0.7c-0.3-0.3-0.4-0.7-0.4-1.2c0-0.7,0.3-1.3,0.8-1.7s1.2-0.7,2.1-0.7
			c0.8,0,1.5,0.2,2.1,0.6c0.5,0.4,0.9,1,0.9,1.8h-1.3c-0.1-0.4-0.2-0.7-0.5-0.9s-0.7-0.3-1.2-0.3s-0.9,0.1-1.1,0.3
			c-0.3,0.2-0.4,0.5-0.4,0.8s0.2,0.6,0.5,0.8s0.8,0.3,1.4,0.5c0.5,0.1,1,0.2,1.4,0.4c0.4,0.1,0.8,0.4,1.1,0.7
			c0.3,0.3,0.4,0.7,0.4,1.3c0,0.7-0.3,1.3-0.8,1.8C116.6,204.4,115.9,204.6,114.9,204.6z"/>
		<path class="st2" d="M34.9,217.8c0.4-0.3,0.7-0.5,1-0.5c0.2,0,0.6,0.1,1,0.3c0.5,0.3,0.8,0.6,0.8,0.8c0,0.4-0.6,1.6-1.7,3.6
			c-0.3,0.5-0.6,1-0.9,1.5c-0.3,0.5-0.5,0.9-0.7,1.2s-0.3,0.6-0.5,0.9s-0.3,0.5-0.4,0.7c-0.1,0.1-0.2,0.3-0.2,0.4
			c-0.1,0.1-0.1,0.2-0.1,0.3s0,0.1,0,0.2c0,0.3,0.2,0.9,0.7,1.6c0.6,0.9,0.8,1.4,0.8,1.5s0.2,0.4,0.5,0.8c0.3,0.3,0.6,1,1,1.9
			c0.2,0.6,0.6,1.2,1,1.9c1.3,1.9,1.9,3.2,1.9,4s-0.6,1.2-1.7,1.2h-0.1c-0.7,0-1.2-0.1-1.4-0.3s-0.5-0.7-0.8-1.6
			c-0.2-0.6-0.5-1.2-0.9-1.9s-0.7-1.2-0.8-1.7c-0.2-0.7-0.6-1.4-1.1-2.3c-0.5-0.9-0.8-1.3-1-1.3c-0.1,0-0.2,0.3-0.2,0.9
			c0,1,0.1,2.7,0.4,5c0.1,0.7,0.1,1.3,0.1,1.6c0,0.5-0.1,0.8-0.3,1c-0.2,0.1-0.6,0.2-1.2,0.3c-0.4,0.1-0.6,0.1-0.7,0.1
			c-0.3,0-0.6-0.2-0.9-0.5c-0.3-0.4-0.5-0.9-0.5-1.5c0-0.1,0-0.3,0-0.6s0-0.5,0-0.7c0.1-1.1,0.1-2.5,0.1-4.2c0-2.4,0-4.8-0.1-7.3
			l-0.1-6.9l0.5-0.2c0.2-0.1,0.3-0.1,0.4-0.1c0.2,0,0.6,0.1,1,0.4l0.9,0.4l0.1,2.8c0.1,1.8,0.1,2.7,0.2,2.7s0.6-0.6,1.4-2
			c0.8-1.3,1.3-2.3,1.5-3C34.1,218.8,34.5,218.2,34.9,217.8z"/>
		<path class="st2" d="M45.2,218.3c0.3-0.1,0.8-0.1,1.3-0.1c1.5,0,2.5,0.2,2.9,0.5c0.3,0.2,0.4,0.6,0.4,0.9c0,0.4-0.1,0.7-0.4,0.9
			s-0.6,0.4-1.1,0.4c-0.4,0-0.7,0.1-0.8,0.3s-0.2,0.7-0.2,1.4c0,0.2,0,0.9,0.1,2.1c0.1,1.4,0.1,2.3,0.2,2.7s0.2,0.6,0.3,0.6
			c0,0,0.2,0,0.6,0c0.3,0,0.6,0,0.8,0c0.7,0,1.2,0.2,1.5,0.5c0.2,0.2,0.3,0.4,0.3,0.6c0,0.4-0.6,0.9-1.8,1.3
			c-0.7,0.2-1.1,0.4-1.3,0.6s-0.2,0.4-0.3,0.9s-0.1,0.8-0.1,1.2c0,1.4,0.1,2.5,0.4,3.2c0.1,0.3,0.2,0.5,0.4,0.5
			c0.1,0.1,0.4,0.1,0.9,0.1c0.6,0,1.1,0.1,1.5,0.4s0.6,0.6,0.6,0.9c0,0.2-0.2,0.6-0.6,1c-0.7,0.6-1.8,1-3.4,1s-2.7-0.4-3.2-1.1
			c-0.3-0.4-0.4-2.8-0.5-7.2c-0.1-5.5-0.1-8.8-0.2-9.7l-0.1-3.1l0.6-0.3C44.4,218.6,44.8,218.4,45.2,218.3z"/>
		<path class="st2" d="M57.6,218.3c0.3-0.1,0.8-0.1,1.3-0.1c1.5,0,2.5,0.2,2.9,0.5c0.3,0.2,0.4,0.6,0.4,0.9c0,0.4-0.1,0.7-0.4,0.9
			c-0.3,0.2-0.6,0.4-1.1,0.4c-0.4,0-0.7,0.1-0.8,0.3s-0.2,0.7-0.2,1.4c0,0.2,0,0.9,0.1,2.1c0.1,1.4,0.1,2.3,0.2,2.7s0.2,0.6,0.3,0.6
			c0,0,0.2,0,0.6,0c0.3,0,0.6,0,0.8,0c0.7,0,1.2,0.2,1.5,0.5c0.2,0.2,0.3,0.4,0.3,0.6c0,0.4-0.6,0.9-1.8,1.3
			c-0.7,0.2-1.1,0.4-1.3,0.6s-0.2,0.4-0.3,0.9s-0.1,0.8-0.1,1.2c0,1.4,0.1,2.5,0.4,3.2c0.1,0.3,0.2,0.5,0.4,0.5
			c0.1,0.1,0.4,0.1,0.9,0.1c0.6,0,1.1,0.1,1.5,0.4s0.6,0.6,0.6,0.9c0,0.2-0.2,0.6-0.6,1c-0.7,0.6-1.8,1-3.4,1s-2.7-0.4-3.2-1.1
			c-0.3-0.4-0.4-2.8-0.5-7.2c-0.1-5.5-0.1-8.8-0.2-9.7l-0.1-3.1l0.6-0.3C56.8,218.6,57.2,218.4,57.6,218.3z"/>
		<path class="st2" d="M69,216.7c0.3-0.1,1-0.2,2.1-0.2c1.3,0,2.2,0.1,2.5,0.3c0.5,0.2,0.9,0.6,1.5,1.2c0.5,0.5,0.9,1,1.1,1.4
			c0.3,0.6,0.5,2.2,0.6,4.5c0.1,1.4,0.1,2.2,0.1,2.4c0,0.9-0.1,1.7-0.4,2.5c-0.3,0.9-0.6,1.6-1,2c-0.4,0.5-1,0.8-1.7,1l-1.2,0.4v3.4
			c0,2-0.1,3.3-0.2,3.7s-0.6,0.7-1.2,0.7s-1.1-0.2-1.5-0.5l-0.6-0.5v-3v-0.7c0-2.4-0.1-5.4-0.2-9s-0.3-5.8-0.4-6.7
			c-0.1-0.6-0.1-1.1-0.1-1.5C68.1,217.5,68.4,217,69,216.7z M72.8,220.7c-0.3-0.6-0.5-1-0.7-1c-0.1,0-0.1,0-0.2,0.1c0,0.9,0,2,0,3.2
			c0,4,0.2,6,0.5,6c0.1,0,0.3-0.3,0.6-0.8c0.2-0.5,0.3-1.1,0.3-1.8c0-0.2,0-0.8-0.1-1.9C73.1,222.4,73,221.2,72.8,220.7z"/>
		<path class="st2" d="M92,218.4c0.3-0.4,0.8-0.5,1.3-0.5s0.9,0.2,1.3,0.5l0.6,0.6l0.2,9.5c0.1,5.2,0.2,8.2,0.2,9c0,0.4,0,0.8,0,1
			c0,0.3,0,0.5,0,0.6c0,0.2-0.1,0.3-0.1,0.4c-0.1,0.1-0.1,0.2-0.1,0.2s-0.1,0.1-0.2,0.1c-0.1,0.1-0.2,0.1-0.2,0.1
			c-0.3,0.2-0.6,0.3-0.8,0.3c-0.1,0-0.4-0.1-0.8-0.2c-0.7-0.3-1.1-0.5-1.1-0.7c-0.1-0.1-0.2-3.5-0.2-10.1c-0.1-6.6-0.1-9.9-0.2-10
			C91.6,219,91.7,218.7,92,218.4z"/>
		<path class="st2" d="M100.7,217.1c0.4-0.3,1-0.5,1.9-0.5h1c1.5,0.1,2.4,0.1,2.7,0.2c0.2,0.1,0.6,0.1,1.2,0.1s1.1,0.2,1.4,0.4
			s0.4,0.6,0.4,1.1s-0.1,0.9-0.3,1.1s-0.6,0.4-1.1,0.5c-0.6,0.1-0.9,0.2-1,0.3s-0.2,2.8-0.2,8c0,3.6,0,6.1,0.1,7.6
			c0.1,1.2,0.1,1.8,0.1,1.9c0,0.6-0.1,1.1-0.4,1.5c-0.3,0.6-0.8,0.8-1.4,0.8c-0.4,0-0.8-0.1-1.3-0.4l-0.8-0.5l0.1-9.6
			c0.1-2.5,0.1-4.9,0.1-7.4c0-1.5-0.1-2.3-0.3-2.4c-0.3-0.2-0.6-0.2-0.6-0.2c-0.1,0-0.3,0-0.5,0c-0.5,0-0.9-0.1-1.3-0.4
			c-0.3-0.3-0.5-0.6-0.5-1C100,217.9,100.2,217.5,100.7,217.1z"/>
		<path class="st2" d="M125.5,217.5c0.5-0.2,1.2-0.2,1.9-0.2c0.8,0,1.5,0.1,1.8,0.2c0.7,0.3,1.3,0.9,1.7,1.7
			c0.2,0.4,0.3,1.1,0.5,2.2s0.2,2,0.2,2.9c0,0.4,0,0.7,0,0.8c-0.1,0.7-0.3,1.5-0.6,2.4s-0.5,1.3-0.7,1.3s-0.3,0.2-0.3,0.5
			s0.1,0.6,0.3,0.9c0.5,0.6,1.1,1.8,1.9,3.6c0.8,1.7,1.3,2.8,1.3,3.3c0,0.1,0,0.3,0,0.6c0,0.4-0.1,0.7-0.3,1s-0.5,0.5-0.8,0.5
			s-0.5,0-0.8,0c-0.7-0.1-1.1-0.2-1.3-0.3s-0.3-0.3-0.3-0.7c0-0.6-0.3-1.4-0.9-2.6c-0.6-1.1-1-1.7-1.3-1.7l0,0
			c-0.1,0.1-0.1,0.4-0.1,0.9c0,0.8,0.1,1.8,0.2,2.8c0.1,0.4,0.1,0.8,0.1,0.9c0,1-0.2,1.5-0.6,1.8c-0.2,0.1-0.4,0.1-0.7,0.1
			c-0.9,0-1.5-0.2-1.7-0.6c-0.1-0.2-0.2-2.1-0.3-5.7c0-1.1-0.1-2.4-0.1-3.7s0-2.3,0-2.9s0-1.4-0.1-2.4s-0.2-2-0.3-3.2
			c-0.1-1.3-0.2-2.1-0.2-2.4c0-0.7,0.1-1.1,0.3-1.4C124.7,217.8,125,217.6,125.5,217.5z M128.2,220.6c-0.1-0.2-0.2-0.3-0.5-0.3
			c-0.2,0-0.3,0.1-0.4,0.3s-0.1,0.4,0,0.5c0,0,0.1,0.9,0.2,2.7s0.2,2.7,0.3,2.8c0.1,0.1,0.2-0.1,0.4-0.3c0.2-0.2,0.2-0.7,0.2-1.4
			c0-0.5,0-1,0-1.4C128.4,221.8,128.3,220.9,128.2,220.6z"/>
		<path class="st2" d="M139.8,218.3c0.3-0.1,0.8-0.1,1.3-0.1c1.5,0,2.5,0.2,2.9,0.5c0.3,0.2,0.4,0.6,0.4,0.9c0,0.4-0.1,0.7-0.4,0.9
			s-0.6,0.4-1.1,0.4c-0.4,0-0.7,0.1-0.8,0.3s-0.2,0.7-0.2,1.4c0,0.2,0,0.9,0.1,2.1c0.1,1.4,0.1,2.3,0.2,2.7c0.1,0.4,0.2,0.6,0.3,0.6
			c0,0,0.2,0,0.6,0c0.3,0,0.6,0,0.8,0c0.7,0,1.2,0.2,1.5,0.5c0.2,0.2,0.3,0.4,0.3,0.6c0,0.4-0.6,0.9-1.8,1.3
			c-0.7,0.2-1.1,0.4-1.3,0.6s-0.2,0.4-0.3,0.9s-0.1,0.8-0.1,1.2c0,1.4,0.1,2.5,0.4,3.2c0.1,0.3,0.2,0.5,0.4,0.5
			c0.1,0.1,0.4,0.1,0.9,0.1c0.6,0,1.1,0.1,1.5,0.4s0.6,0.6,0.6,0.9c0,0.2-0.2,0.6-0.6,1c-0.7,0.6-1.8,1-3.4,1
			c-1.6,0-2.7-0.4-3.2-1.1c-0.3-0.4-0.4-2.8-0.5-7.2c-0.1-5.5-0.1-8.8-0.2-9.7l-0.1-3.1l0.6-0.3C139,218.6,139.4,218.4,139.8,218.3z
			"/>
		<path class="st2" d="M152.3,218.6c0-0.2,0.1-0.4,0.4-0.6c0.3-0.2,0.6-0.4,1-0.5c0.4-0.2,0.6-0.3,0.7-0.4c0.1-0.2,0.3-0.2,0.5-0.2
			s0.6,0.2,1.3,0.6c0.6,0.4,1,0.8,1.1,1.2c0,0.1,0,0.2,0,0.2c0,0.3-0.4,0.6-1.2,0.9c-0.8,0.4-1.4,0.8-1.6,1.2
			c-0.4,0.8-0.6,2.9-0.6,6c0,1.1,0,1.9,0.1,2.4c0.3,3.7,0.6,5.7,0.8,6.1l0,0c0.2,0,0.4-1,0.4-3.1c0.1-1.1,0.1-1.9,0.2-2.3
			c0.1-0.5,0.1-0.9-0.2-1.2c-0.3-0.4-0.5-0.8-0.5-1.1c0-0.2,0.1-0.5,0.3-0.8c0.3-0.3,0.9-0.5,1.9-0.5c0.6,0,1.1,0,1.3,0.1
			s0.4,0.2,0.6,0.4c0.2,0.3,0.4,0.7,0.4,1.2s-0.1,1-0.2,1.6c-0.2,1-0.3,2.4-0.4,4.1c-0.1,2-0.4,3.3-0.7,3.9
			c-0.4,0.7-0.7,1.2-0.9,1.4c-0.3,0.2-0.7,0.5-1.4,0.7c-0.4,0.1-0.8,0.2-1.2,0.2c-0.5,0-1-0.2-1.6-0.7c-0.7-0.5-1.3-1.9-1.7-4
			c-0.1-0.5-0.2-0.8-0.3-1c-0.1-0.1-0.1-0.5-0.2-1.2c0-0.4-0.1-2.2-0.2-5.6l-0.2-4.6l0.6-1.9c0.4-1.2,0.7-2,0.9-2.3
			C152.2,218.9,152.3,218.7,152.3,218.6z"/>
		<path class="st2" d="M164.1,216.9c0.3-0.2,0.8-0.4,1.3-0.4c0.6,0,1.1,0.1,1.5,0.5l0.6,0.5v5.1c0.1,6,0.2,10.1,0.6,12.3
			c0.1,0.5,0.2,0.7,0.2,0.7c0.3,0,0.5-0.9,0.6-2.6c0.4-3.6,0.6-7.1,0.6-10.6v-0.9V221c0-1.9,0.2-3,0.7-3.3c0.1-0.1,0.4-0.2,0.8-0.2
			c0.8,0,1.3,0.1,1.6,0.4c0.5,0.4,0.7,1.5,0.7,3.4c0,1.5-0.1,4.4-0.4,8.6c-0.2,3.5-0.6,6-1.1,7.4c-0.6,1.5-1.4,2.4-2.7,2.8
			c-0.5,0.2-0.8,0.2-1,0.2s-0.6-0.1-1.4-0.5c-1.5-0.7-2.4-1.9-2.6-3.5c-0.2-1.4-0.3-5.9-0.5-13.5c0-1.1,0-2.3,0-3.6
			c0-0.9,0-1.4,0.1-1.7C163.9,217.2,164,217,164.1,216.9z"/>
		<path class="st2" d="M178,217.9c0.2-0.2,0.5-0.4,0.8-0.4c0.2,0,0.5,0,0.6,0c0.6,0.1,1.1,0.3,1.2,0.5c0.3,0.4,0.5,2.9,0.5,7.6v2.5
			v2.2c0,3.7,0,5.7,0.1,6c0.1,0.5,0.6,0.7,1.4,0.7c0.4,0,0.7,0,1,0c0.2,0,0.5,0,0.8,0c0.5,0,0.9,0.1,1.1,0.2
			c0.2,0.2,0.3,0.5,0.3,0.9c0,0.3-0.1,0.5-0.2,0.7s-0.4,0.4-0.8,0.6c-0.8,0.4-1.6,0.6-2.4,0.7c-1.2,0.1-1.8,0.1-1.9,0.1
			c-0.1,0-0.1,0-0.3,0c-0.3,0-0.7-0.1-1.1-0.3c-0.4-0.2-0.7-0.4-1-0.7c-0.4-0.5-0.6-1.9-0.6-4.3c0-0.6,0-1.7,0.1-3.3
			c0.1-1.5,0.1-3,0.1-4.8c0-4.1-0.1-6.6-0.2-7.6c-0.1-0.4-0.1-0.6-0.1-0.7C177.6,218.4,177.7,218.1,178,217.9z"/>
		<path class="st2" d="M193.7,218.5c0.7-0.7,1.8-1.1,3.3-1.1c0.6,0,1.2,0.1,1.6,0.3c0.6,0.3,1,1.1,1.3,2.4c0.2,1.1,0.4,2.9,0.7,5.4
			c0.3,2.6,0.4,4.5,0.5,5.9c0,1.3,0.1,2.8,0.3,4.4s0.3,2.5,0.4,2.7c0,0,0,0.1,0,0.2c0,0.2-0.1,0.6-0.3,0.9c-0.2,0.4-0.4,0.6-0.6,0.6
			c-0.1,0-0.2,0-0.4,0c-0.4,0-0.9-0.1-1.4-0.3s-0.8-0.4-0.9-0.6s-0.2-1-0.4-2.3c-0.1-1.3-0.2-2.4-0.2-3.2s-0.1-1.2-0.2-1.3
			c-0.1-0.1-0.8-0.1-1.9-0.1c-0.9,0-1.4,0-1.5,0.1c0,0.1,0,0.3,0,0.5c0,0.6,0,1.3,0.1,2.3c0.1,1.1,0.1,2,0.1,2.7v0.4
			c0,0.2-0.2,0.4-0.6,0.5c-0.4,0.2-0.7,0.2-1.1,0.2c-0.2,0-0.3,0-0.4,0c-0.9-0.3-1.5-0.7-1.6-1.2c0,0,0-0.1,0-0.2s0-0.2,0-0.3
			c0-1.2,0.1-3.7,0.4-7.6c0.3-3.9,0.5-6.1,0.6-6.7c0.2-0.8,0.5-1.6,1-2.6C192.9,219.5,193.3,218.9,193.7,218.5z M196.6,222.8
			c-0.2-0.8-0.4-1.2-0.6-1.2c-0.2,0-0.4,0.3-0.7,0.9c-0.5,1.1-0.9,2.7-1,4.6c-0.1,0.8-0.1,1.3-0.1,1.4c0,0.4,0.1,0.6,0.2,0.7
			c0.1,0.1,0.5,0.2,1.1,0.2c0.8,0,1.3-0.1,1.4-0.2c0.1-0.1,0.1-0.4,0.1-1.1C197,226.1,196.9,224.4,196.6,222.8z"/>
		<path class="st2" d="M207.3,217.5c0.5-0.2,1.1-0.2,1.9-0.2c0.8,0,1.5,0.1,1.9,0.2c0.7,0.3,1.3,0.9,1.7,1.7
			c0.2,0.4,0.3,1.1,0.5,2.2c0.1,1.1,0.2,2,0.2,2.9c0,0.4,0,0.7,0,0.8c-0.1,0.7-0.3,1.5-0.6,2.4s-0.5,1.3-0.6,1.3
			c-0.2,0-0.3,0.2-0.3,0.5s0.1,0.6,0.3,0.9c0.4,0.6,1.1,1.8,1.9,3.6c0.8,1.7,1.3,2.8,1.3,3.3c0,0.1,0,0.3,0,0.6c0,0.4-0.1,0.7-0.3,1
			s-0.5,0.5-0.8,0.5s-0.5,0-0.8,0c-0.7-0.1-1.1-0.2-1.3-0.3s-0.3-0.3-0.3-0.7c0-0.6-0.3-1.4-0.9-2.6c-0.6-1.1-1-1.7-1.3-1.7l0,0
			c-0.1,0.1-0.1,0.4-0.1,0.9c0,0.8,0.1,1.8,0.2,2.8c0.1,0.4,0.1,0.8,0.1,0.9c0,1-0.2,1.5-0.6,1.8c-0.2,0.1-0.4,0.1-0.7,0.1
			c-0.9,0-1.5-0.2-1.7-0.6c-0.1-0.2-0.2-2.1-0.3-5.7c0-1.1-0.1-2.4-0.1-3.7s0-2.3,0-2.9s0-1.4-0.1-2.4s-0.2-2-0.3-3.2
			c-0.1-1.3-0.2-2.1-0.2-2.4c0-0.7,0.1-1.1,0.3-1.4C206.5,217.8,206.8,217.6,207.3,217.5z M210,220.6c-0.1-0.2-0.2-0.3-0.5-0.3
			c-0.2,0-0.3,0.1-0.4,0.3c-0.1,0.2-0.1,0.4,0,0.5c0,0,0.1,0.9,0.2,2.7c0.1,1.8,0.2,2.7,0.3,2.8s0.2-0.1,0.4-0.3s0.2-0.7,0.2-1.4
			c0-0.5,0-1,0-1.4C210.2,221.8,210.1,220.9,210,220.6z"/>
		<path class="st2" d="M220.3,237.4c0.3-0.3,0.6-0.5,0.9-0.5c0.1,0,0.3,0,0.6,0.1c1.1,0.2,1.7,0.7,1.7,1.3c0,0.5-0.3,1-1.1,1.4
			c-0.6,0.4-1,0.6-1.4,0.6c-0.6,0-1-0.5-1.1-1.4c0-0.2,0-0.4,0-0.6C219.8,238,220,237.7,220.3,237.4z"/>
		<path class="st3" d="M288.4,147.7l-18.1,62.5"/>
		<path class="st2" d="M260.7,201.1c-1.1-0.1-1.6-1.4-0.8-2.1l4-4l2.1,2.4l-3.4,3.1C262.1,200.9,261.4,201.2,260.7,201.1z"/>
		<path class="st2" d="M298.8,203.1c1.1,0,1.7-1.2,1-2l-3.6-4.4l-2.4,2.1l3.1,3.4C297.4,202.7,298.1,203,298.8,203.1z"/>
		<path class="st2" d="M266.2,155.3l4.4,8.3c0.2,0.3,0,0.8-0.3,1l-1.2,0.6c-0.3,0.2-0.8,0.1-1-0.3l-4.4-8.3c-0.2-0.3,0-0.8,0.3-1
			l1.2-0.6C265.6,154.8,266,155,266.2,155.3z"/>
		<path class="st2" d="M303.9,158.9l-5.5,7.6c-0.2,0.3-0.7,0.4-1,0.2l-1.1-0.8c-0.3-0.2-0.4-0.7-0.2-1l5.5-7.6
			c0.2-0.3,0.7-0.4,1-0.2l1.1,0.8C304.1,158.1,304.1,158.6,303.9,158.9z"/>
		<path class="st2" d="M281.1,204c13,0,23.6-10.5,23.6-23.6c0-13-10.5-23.6-23.6-23.6s-23.6,10.5-23.6,23.6
			C257.6,193.4,268.1,204,281.1,204z"/>
		<path class="st4" d="M281.1,201.6c11.7,0,21.2-9.5,21.2-21.2s-9.5-21.2-21.2-21.2s-21.2,9.5-21.2,21.2S269.4,201.6,281.1,201.6z"
			/>
		<path class="st5" d="M278.8,180.2l-0.2-1.2c-0.1-0.4,0.2-0.7,0.6-0.8l16.1-2.7c0.4-0.1,0.7,0.2,0.8,0.6l0.2,1.2
			c0.1,0.4-0.2,0.7-0.6,0.8l-16.1,2.7C279.2,180.9,278.9,180.6,278.8,180.2z"/>
		<path class="st5" d="M284,188.3l-1.1,0.5c-0.4,0.1-0.8,0-0.9-0.4l-3.8-8.8c-0.1-0.4,0-0.8,0.4-0.9l1.1-0.5c0.4-0.1,0.8,0,0.9,0.4
			l3.8,8.8C284.5,187.7,284.3,188.1,284,188.3z"/>
		<path class="st6" d="M266.9,168.3c1.2-2.7,6.5-5.4,10.4-5.4"/>
		<path class="st6" d="M296.4,190.5c-1.5,2.5-4.6,5-7.4,5.9"/>
		<path class="st5" d="M271.2,154.5c0.6-0.4,0.8-1.2,0.4-1.8c-2.2-2.6-6-3.4-9-1.7c-3.1,1.7-4.4,5.3-3.4,8.5c0.2,0.7,1,1,1.7,0.6
			L271.2,154.5z"/>
		<path class="st5" d="M305.5,164.3c0.6,0.4,1.4,0.3,1.8-0.4c1.6-3,0.8-6.8-1.9-9c-2.8-2.2-6.6-2-9.2,0.2c-0.5,0.5-0.5,1.3,0.1,1.8
			L305.5,164.3z"/>
		<path class="st7" d="M307.2,185.2c-0.4,2.4-1.1,4.8-2.2,6.9"/>
		<path class="st7" d="M310.2,185.2c-0.4,2.4-1.1,4.8-2.2,6.9"/>
		<path class="st7" d="M256.8,167.2c-1.1,2.2-1.9,4.5-2.2,6.9"/>
		<path class="st7" d="M254.4,165.5c-1.1,2.2-1.9,4.5-2.2,6.9"/>
		<path class="st3" d="M229,18.3l-33.5,115.8"/>
		<path class="st2" d="M167.8,110.8c-2-0.4-2.6-3-1-4.2l8.5-6.5l3.4,5l-7.2,5C170.5,110.8,169.1,111.1,167.8,110.8z"/>
		<path class="st2" d="M238.9,123.9c2,0.4,3.5-1.8,2.4-3.6l-5.7-9.1l-5,3.5l5,7.2C236.4,122.9,237.6,123.6,238.9,123.9z"/>
		<path class="st2" d="M189.3,25.5l6.8,17.9c0.1,0.4-0.1,0.7-0.4,0.9l-3.6,1.3c-0.4,0.1-0.7-0.1-0.9-0.4l-6.8-17.9
			c-0.1-0.4,0.1-0.7,0.4-0.9l3.6-1.3C188.8,25,189.2,25.1,189.3,25.5z"/>
		<path class="st2" d="M259.9,41.7l-13.2,13.9c-0.3,0.3-0.7,0.3-1,0l-2.8-2.6c-0.3-0.3-0.3-0.7,0-0.9l13.2-14c0.3-0.3,0.7-0.3,0.9,0
			l2.8,2.6C260.1,41,260.1,41.4,259.9,41.7z"/>
		<path class="st2" d="M211.3,121.6c24.6,0,44.6-20,44.6-44.6s-20-44.6-44.6-44.6s-44.6,20-44.6,44.6
			C166.7,101.6,186.7,121.6,211.3,121.6z"/>
		<path class="st4" d="M211.3,117.2c22.2,0,40.2-18,40.2-40.2s-18-40.2-40.2-40.2s-40.2,18-40.2,40.2S189.1,117.2,211.3,117.2z"/>
		<path class="st5" d="M206.9,76.8l-0.1-0.1c-0.5-1.2,0-2.6,1.2-3.1l26.3-12.1c1.2-0.5,2.6,0,3.1,1.2l0.1,0.2c0.5,1.2,0,2.6-1.2,3.1
			L210,78C208.8,78.5,207.4,78,206.9,76.8z"/>
		<path class="st5" d="M216.8,92.4l-0.1,0.1c-1.2,0.5-2.6,0-3.1-1.2l-6.7-14.6c-0.5-1.2,0-2.6,1.2-3.1l0.2-0.1
			c1.2-0.5,2.6,0,3.1,1.2l6.7,14.6C218.5,90.4,218,91.8,216.8,92.4z"/>
		<path class="st8" d="M187.6,50.6c3-4.8,13.6-8.6,20.9-7.5"/>
		<path class="st8" d="M237.5,99.5c-3.4,4.3-9.8,8.4-15.4,9.2"/>
		<path class="st5" d="M199.1,27.5c1.2-0.5,1.8-2.1,1-3.2c-3.6-5.3-10.5-7.4-16.6-4.8s-9.2,9.1-7.9,15.3c0.3,1.3,1.8,2.1,3,1.5
			L199.1,27.5z"/>
		<path class="st5" d="M260.5,53.9c0.9,1,2.6,0.9,3.4-0.2c3.7-5.2,3.4-12.4-1.1-17.2s-11.7-5.6-17.1-2.2c-1.1,0.7-1.3,2.4-0.4,3.4
			L260.5,53.9z"/>
		<path class="st9" d="M261.4,85c-1.2,5.8-3.4,11.3-6.2,16.3"/>
		<path class="st9" d="M268.5,85.5c-1.2,5.8-3.4,11.3-6.2,16.3"/>
		<path class="st9" d="M161.5,59.1c-2,5.5-3.2,11.3-3.4,17.1"/>
		<path class="st9" d="M155.3,55.7c-2,5.5-3.2,11.3-3.4,17.1"/>
		<path class="st10" d="M106.5,61.6l-18,60.2"/>
		<path class="st2" d="M80.6,106.8c-0.8-0.1-1.2-1.1-0.6-1.6l3.1-2.9l1.6,1.8l-2.6,2.2C81.6,106.6,81.1,106.8,80.6,106.8z"/>
		<path class="st2" d="M109,108.9c0.8,0.1,1.3-0.9,0.8-1.5l-2.6-3.3l-1.8,1.6l2.2,2.6C108,108.6,108.5,108.8,109,108.9z"/>
		<path class="st2" d="M85.4,72.3l3.4,6.8c0.1,0.1,0,0.2-0.1,0.3l-1.4,0.7c-0.1,0.1-0.2,0-0.3-0.1l-3.4-6.8c-0.1-0.1,0-0.2,0.1-0.3
			l1.4-0.7C85.2,72.2,85.3,72.2,85.4,72.3z"/>
		<path class="st2" d="M113.8,75.7l-4.6,6.1c-0.1,0.1-0.2,0.1-0.3,0l-1.3-1c-0.1-0.1-0.1-0.2,0-0.3l4.6-6.1c0.1-0.1,0.2-0.1,0.3,0
			l1.2,0.9C113.9,75.5,113.9,75.6,113.8,75.7z"/>
		<path class="st2" d="M96.2,109.2c9.7,0,17.6-7.9,17.6-17.6S105.9,74,96.2,74s-17.6,7.9-17.6,17.6S86.5,109.2,96.2,109.2z"/>
		<path class="st4" d="M96.2,107.5c8.8,0,15.9-7.1,15.9-15.9S105,75.7,96.2,75.7s-15.9,7.1-15.9,15.9
			C80.3,100.4,87.4,107.5,96.2,107.5z"/>
		<path class="st5" d="M97.1,91.3l-0.4,1.4c0,0.1-0.2,0.2-0.3,0.2l-12.5-3.1c-0.1,0-0.2-0.2-0.2-0.3l0.4-1.4c0-0.1,0.1-0.2,0.3-0.2
			L96.9,91C97.1,91.1,97.2,91.2,97.1,91.3z"/>
		<path class="st5" d="M101.2,97.2l-1.2,0.9c-0.1,0.1-0.2,0.1-0.3,0L95,91.9c-0.1-0.1-0.1-0.2,0-0.3l1.2-0.9c0.1-0.1,0.2-0.1,0.3,0
			l4.7,6.2C101.3,97,101.3,97.1,101.2,97.2z"/>
		<path class="st11" d="M85.8,82.3c1-2,5-4,7.9-3.8"/>
		<path class="st11" d="M107.5,99.4c-1.2,1.8-3.5,3.7-5.6,4.3"/>
		<path class="st5" d="M89.7,72c0.5-0.3,0.6-1,0.2-1.4c-1.8-2-4.8-2.5-7.2-1.1c-2.4,1.4-3.4,4.3-2.5,6.9c0.2,0.5,0.9,0.8,1.3,0.5
			L89.7,72z"/>
		<path class="st5" d="M115.7,79.5c0.5,0.3,1.1,0.1,1.4-0.4c1-2.5,0.2-5.4-2.2-7c-2.3-1.5-5.4-1.1-7.3,0.8c-0.4,0.4-0.3,1.1,0.2,1.4
			L115.7,79.5z"/>
		<path class="st12" d="M120.4,93.5c-0.8,3.6-2.1,6.9-3.8,10"/>
		<path class="st12" d="M124.8,93.7c-0.8,3.6-2.1,6.9-3.8,10"/>
		<path class="st12" d="M75.6,83.2c-1.3,3.4-1.9,7-2.1,10.5"/>
		<path class="st12" d="M71.8,81.1c-1.3,3.4-1.9,7-2.1,10.5"/>
	</g>
</g>
</svg>
