<?xml version="1.0" encoding="utf-8"?>
<!-- Generator: Adobe Illustrator 25.1.0, SVG Export Plug-In . SVG Version: 6.00 Build 0)  -->
<svg version="1.1" id="Layer_1" xmlns="http://www.w3.org/2000/svg" xmlns:xlink="http://www.w3.org/1999/xlink" x="0px" y="0px"
	 viewBox="0 0 332.6 193.5" style="enable-background:new 0 0 332.6 193.5;" xml:space="preserve">
<style type="text/css">
	.st0{fill:#FFFFFF;}
	.st1{fill:#FF9F1A;}
	.st2{fill:#808080;}
	.st3{fill:#D8B693;}
	.st4{fill:#E14504;}
	.st5{fill:#DCE3E5;}
	.st6{fill:#E97443;}
	.st7{fill:none;stroke:#FFFFFF;stroke-width:3.0784;stroke-linecap:round;stroke-miterlimit:10;}
</style>
<g>
	<g>
		<path class="st0" d="M332.5,136.7c-1.6-34.9,1.5-90.4-24.5-115.4C279-6.5,125.1,1.2,90.6,0.4C74.1,0,22.9,0.5,13.9,21.5
			C0.5,52.5,1.4,81.2,0.3,117.1c-1.1,35.2-0.9,68.8,38.7,70c73.2,2.3,156.9,9.7,226.1,4.7C298.5,189.5,335.2,195.3,332.5,136.7z"/>
		<path class="st1" d="M171.4,47.7c0.2-0.2,0.5-0.4,0.8-0.4c0.2,0,0.5,0,0.6,0c0.6,0.1,1.1,0.3,1.2,0.5c0.3,0.4,0.5,3,0.5,7.6v2.5
			v2.2c0,3.7,0,5.7,0.1,6c0.1,0.5,0.6,0.7,1.4,0.7c0.4,0,0.7,0,1,0c0.2,0,0.5,0,0.8,0c0.5,0,0.9,0.1,1.1,0.2
			c0.2,0.2,0.3,0.5,0.3,0.9c0,0.3-0.1,0.5-0.2,0.7c-0.1,0.1-0.4,0.4-0.8,0.6c-0.8,0.4-1.6,0.6-2.4,0.7C174.6,70,174,70,174,70
			s-0.2,0-0.3,0c-0.3,0-0.7-0.1-1.1-0.3c-0.4-0.2-0.7-0.4-1-0.7c-0.4-0.5-0.6-1.9-0.6-4.3c0-0.6,0-1.7,0.1-3.3
			c0.1-1.5,0.1-3,0.1-4.8c0-4.1-0.1-6.6-0.2-7.6c-0.1-0.4-0.1-0.6-0.1-0.7C171,48.2,171.1,47.9,171.4,47.7z"/>
		<path class="st1" d="M185,46.4c0.3-0.4,0.8-0.6,1.3-0.6s0.9,0.2,1.3,0.6l0.6,0.6l0.2,9.5c0.1,5.2,0.2,8.2,0.2,9c0,0.4,0,0.8,0,1
			c0,0.3,0,0.5,0,0.6s-0.1,0.3-0.1,0.4c-0.1,0.1-0.1,0.2-0.1,0.2s-0.1,0.1-0.2,0.1s-0.2,0.1-0.2,0.1c-0.3,0.2-0.6,0.3-0.8,0.3
			c-0.1,0-0.4-0.1-0.8-0.2c-0.7-0.3-1.1-0.5-1.1-0.7c-0.1-0.1-0.2-3.5-0.2-10.1c-0.1-6.6-0.1-9.9-0.2-10
			C184.6,47,184.7,46.8,185,46.4z"/>
		<path class="st1" d="M204.2,48.3c0.4-0.1,0.7-0.2,1-0.2c0.7,0,1.2,0.2,1.6,0.8c0.2,0.3,0.4,1.5,0.7,3.6c0.2,2.1,0.4,4.3,0.5,6.8
			c0,0.8,0.1,1.9,0.1,3.4c0.1,1.5,0.1,2.7,0.2,3.8c0,1.1,0.1,1.9,0.1,2.5c0,0.4-0.2,0.7-0.6,0.9s-0.9,0.4-1.3,0.4
			c-0.4,0-0.7-0.1-0.9-0.2l-0.6-0.4l-0.1-5.1c-0.2-5.8-0.4-8.7-0.8-8.7c-0.2,0-0.5,0.7-1,2.2c-0.2,0.8-0.5,1.4-0.8,1.7
			s-0.6,0.5-1,0.5c-0.3,0-0.7-0.1-1.1-0.2c-0.5-0.2-0.9-0.6-1.2-1.3s-0.5-1.1-0.5-1.2c0-0.1-0.1-0.3-0.2-0.6
			c-0.1-0.3-0.3-0.6-0.5-0.8s-0.3-0.3-0.3-0.3v0.5c0,1.2,0,3,0.1,5.4l0.2,5.8l-0.6,0.9c-0.6,0.9-1.1,1.4-1.6,1.4
			c-0.3,0-0.6-0.2-0.8-0.6c-0.2-0.3-0.4-0.8-0.4-1.5c-0.1-0.7-0.1-2.8-0.2-6.3c-0.2-6.5-0.3-10.2-0.5-11.1c0-0.1,0-0.3,0-0.5
			c0-0.3,0.1-0.6,0.5-0.9c0.3-0.3,0.7-0.5,1.2-0.5c0.4,0,1,0.1,1.6,0.4c0.6,0.2,1,0.6,1.3,1s1,1.7,2.1,3.7c0.3,0.5,0.5,0.8,0.7,0.8
			c0.1,0,0.3-0.2,0.4-0.6c0.1-0.5,0.4-1,0.7-1.7c0.4-0.8,0.6-1.3,0.6-1.4c0-0.2,0.2-0.7,0.6-1.3S204,48.4,204.2,48.3z"/>
		<path class="st1" d="M213.7,46.4c0.3-0.4,0.8-0.6,1.3-0.6s0.9,0.2,1.3,0.6l0.5,0.6l0.2,9.5c0.1,5.2,0.2,8.2,0.2,9c0,0.4,0,0.8,0,1
			c0,0.3,0,0.5,0,0.6s-0.1,0.3-0.1,0.4c-0.1,0.1-0.1,0.2-0.1,0.2s-0.1,0.1-0.2,0.1c-0.1,0.1-0.2,0.1-0.2,0.1
			c-0.3,0.2-0.6,0.3-0.8,0.3c-0.1,0-0.4-0.1-0.8-0.2c-0.7-0.3-1.1-0.5-1.1-0.7c-0.1-0.1-0.2-3.5-0.2-10.1c-0.1-6.6-0.1-9.9-0.2-10
			C213.3,47,213.4,46.8,213.7,46.4z"/>
		<path class="st1" d="M223.3,46.5c0.4-0.3,1-0.5,1.9-0.5h1c1.5,0.1,2.4,0.1,2.7,0.2c0.2,0.1,0.6,0.1,1.2,0.1c0.6,0,1.1,0.2,1.4,0.4
			c0.3,0.2,0.4,0.6,0.4,1.1s-0.1,0.9-0.3,1.1c-0.2,0.2-0.5,0.4-1,0.5c-0.6,0.1-0.9,0.2-1,0.3s-0.2,2.8-0.2,8c0,3.6,0,6.1,0.1,7.6
			c0.1,1.2,0.1,1.8,0.1,1.9c0,0.6-0.1,1.1-0.4,1.5c-0.3,0.6-0.8,0.8-1.4,0.8c-0.4,0-0.9-0.1-1.3-0.4l-0.8-0.5l0.1-9.6
			c0.1-2.5,0.1-4.9,0.1-7.4c0-1.5-0.1-2.3-0.3-2.4C225.3,49,225,49,225,49c-0.1,0-0.3,0-0.5,0c-0.5,0-0.9-0.1-1.3-0.4
			c-0.3-0.3-0.5-0.6-0.5-1C222.6,47.3,222.8,46.9,223.3,46.5z"/>
		<path class="st2" d="M175.1,36.3c-0.8,0-1.5-0.2-2.1-0.5s-1.1-0.7-1.4-1.2c-0.3-0.5-0.5-1.1-0.5-1.9h1.4c0,0.4,0.1,0.8,0.3,1.2
			s0.5,0.7,0.9,0.9s0.9,0.3,1.4,0.3c0.8,0,1.3-0.2,1.8-0.5s0.6-0.8,0.6-1.4c0-0.4-0.1-0.8-0.3-1.1s-0.4-0.5-0.8-0.7
			c-0.3-0.2-0.7-0.3-1.1-0.5c-0.4-0.1-0.9-0.3-1.3-0.4c-0.9-0.3-1.5-0.7-1.9-1.1s-0.6-1-0.6-1.7c0-0.6,0.1-1.1,0.4-1.6
			c0.3-0.5,0.7-0.8,1.2-1.1s1.1-0.4,1.9-0.4c0.7,0,1.3,0.1,1.9,0.4c0.5,0.3,0.9,0.6,1.2,1.1s0.4,1,0.5,1.6h-1.4
			c0-0.3-0.1-0.6-0.2-0.9s-0.4-0.6-0.7-0.7c-0.3-0.2-0.7-0.3-1.2-0.3c-0.6,0-1.1,0.1-1.5,0.5c-0.4,0.3-0.6,0.8-0.6,1.3
			s0.1,0.8,0.4,1.1c0.3,0.3,0.6,0.5,1.1,0.6c0.5,0.2,1.1,0.3,1.7,0.6c0.5,0.2,1,0.4,1.4,0.7s0.8,0.6,1,1c0.2,0.4,0.4,0.9,0.4,1.6
			c0,0.5-0.1,1-0.4,1.5c-0.3,0.5-0.7,0.9-1.3,1.2C176.7,36.2,176,36.3,175.1,36.3z"/>
		<path class="st2" d="M184.3,36.3c-0.8,0-1.4-0.2-2-0.5s-1.1-0.8-1.4-1.4c-0.3-0.6-0.5-1.4-0.5-2.2s0.2-1.6,0.5-2.2
			s0.8-1.1,1.4-1.5c0.6-0.4,1.3-0.5,2.1-0.5s1.4,0.2,2,0.5s1,0.8,1.3,1.4s0.4,1.2,0.4,1.8c0,0.1,0,0.2,0,0.3c0,0.1,0,0.2,0,0.4h-6.3
			c0,0.6,0.2,1.1,0.4,1.5s0.6,0.7,0.9,0.9c0.4,0.2,0.8,0.3,1.2,0.3c0.5,0,1-0.1,1.4-0.4c0.4-0.3,0.6-0.6,0.8-1h1.3
			c-0.2,0.7-0.6,1.4-1.2,1.8C186,36.1,185.2,36.3,184.3,36.3z M184.3,29.2c-0.6,0-1.2,0.2-1.7,0.6s-0.8,1-0.9,1.7h5
			c0-0.7-0.3-1.3-0.7-1.7C185.5,29.4,185,29.2,184.3,29.2z"/>
		<path class="st2" d="M192.7,36.2c-0.7,0-1.3-0.2-1.7-0.5c-0.4-0.4-0.6-1-0.6-1.9v-4.4H189v-1.1h1.4l0.2-1.9h1.2v1.9h2.3v1.1h-2.3
			v4.4c0,0.5,0.1,0.8,0.3,1s0.6,0.3,1.1,0.3h0.8v1.2L192.7,36.2L192.7,36.2z"/>
		<path class="st2" d="M202.6,36.3c-0.7,0-1.2-0.1-1.6-0.3c-0.4-0.2-0.8-0.5-1-0.9s-0.3-0.8-0.3-1.2c0-0.8,0.3-1.4,0.9-1.9
			c0.6-0.4,1.5-0.7,2.5-0.7h2.1v-0.1c0-0.7-0.2-1.2-0.5-1.6c-0.4-0.4-0.9-0.5-1.5-0.5c-0.5,0-1,0.1-1.3,0.4
			c-0.4,0.3-0.6,0.6-0.7,1.1h-1.4c0.1-0.6,0.2-1.1,0.6-1.5c0.3-0.4,0.8-0.7,1.3-0.9s1-0.3,1.6-0.3c1.1,0,1.9,0.3,2.5,0.9
			s0.8,1.4,0.8,2.4v4.9h-1.2l-0.1-1.4c-0.2,0.4-0.5,0.8-1,1.1C203.9,36.2,203.3,36.3,202.6,36.3z M202.8,35.2c0.5,0,1-0.1,1.3-0.4
			s0.6-0.6,0.8-1s0.3-0.9,0.3-1.3l0,0h-2c-0.8,0-1.4,0.1-1.7,0.4c-0.3,0.3-0.5,0.6-0.5,1s0.1,0.8,0.5,1
			C201.8,35.1,202.3,35.2,202.8,35.2z"/>
		<path class="st2" d="M175.1,92.5c-0.8,0-1.4-0.2-2-0.5s-1.1-0.8-1.4-1.4c-0.4-0.6-0.5-1.4-0.5-2.2s0.2-1.6,0.5-2.2
			c0.4-0.6,0.8-1.1,1.4-1.4c0.6-0.3,1.3-0.5,2-0.5s1.4,0.2,2,0.5s1.1,0.8,1.4,1.4c0.4,0.6,0.5,1.4,0.5,2.2s-0.2,1.6-0.5,2.2
			c-0.4,0.6-0.8,1.1-1.4,1.4C176.5,92.3,175.8,92.5,175.1,92.5z M175.1,91.3c0.5,0,0.9-0.1,1.3-0.3c0.4-0.2,0.7-0.6,1-1
			c0.2-0.5,0.4-1,0.4-1.7s-0.1-1.2-0.4-1.7c-0.2-0.4-0.6-0.8-0.9-1c-0.4-0.2-0.8-0.3-1.3-0.3s-0.9,0.1-1.3,0.3c-0.4,0.2-0.7,0.6-1,1
			s-0.4,1-0.4,1.7s0.1,1.2,0.4,1.7c0.2,0.4,0.6,0.8,0.9,1C174.2,91.2,174.6,91.3,175.1,91.3z"/>
		<path class="st2" d="M180.9,92.3v-7.9h1.2l0.1,1.4c0.3-0.5,0.6-0.9,1.1-1.2s1-0.4,1.6-0.4c0.9,0,1.7,0.3,2.2,0.9
			c0.6,0.6,0.8,1.4,0.8,2.6v4.6h-1.3v-4.5c0-1.7-0.7-2.5-2.1-2.5c-0.7,0-1.2,0.2-1.7,0.7s-0.7,1.2-0.7,2.1v4.1L180.9,92.3
			L180.9,92.3z"/>
		<path class="st2" d="M194.3,92.3V80.8h1.3v4.9c0.3-0.5,0.6-0.9,1.1-1.1c0.5-0.3,1-0.4,1.6-0.4c0.9,0,1.7,0.3,2.2,0.9
			c0.6,0.6,0.8,1.4,0.8,2.6v4.6H200v-4.5c0-1.7-0.7-2.5-2-2.5c-0.7,0-1.3,0.2-1.7,0.7c-0.5,0.5-0.7,1.2-0.7,2.1v4.1L194.3,92.3
			L194.3,92.3z"/>
		<path class="st2" d="M207.1,92.5c-0.8,0-1.4-0.2-2-0.5s-1.1-0.8-1.4-1.4c-0.3-0.6-0.5-1.4-0.5-2.2s0.2-1.6,0.5-2.2
			s0.8-1.1,1.4-1.4c0.6-0.3,1.3-0.5,2-0.5s1.4,0.2,2,0.5s1.1,0.8,1.4,1.4c0.3,0.6,0.5,1.4,0.5,2.2s-0.2,1.6-0.5,2.2
			s-0.8,1.1-1.4,1.4C208.5,92.3,207.8,92.5,207.1,92.5z M207.1,91.3c0.5,0,0.9-0.1,1.3-0.3c0.4-0.2,0.7-0.6,1-1
			c0.2-0.5,0.4-1,0.4-1.7s-0.1-1.2-0.4-1.7c-0.2-0.4-0.6-0.8-0.9-1c-0.4-0.2-0.8-0.3-1.3-0.3s-0.9,0.1-1.3,0.3c-0.4,0.2-0.7,0.6-1,1
			s-0.4,1-0.4,1.7s0.1,1.2,0.4,1.7c0.2,0.4,0.6,0.8,0.9,1C206.2,91.2,206.7,91.3,207.1,91.3z"/>
		<path class="st2" d="M214.3,92.3l-2.3-7.9h1.3l1.7,6.2l1.9-6.2h1.5l1.9,6.2l1.7-6.2h1.4l-2.3,7.9h-1.4l-1.9-6.5l-1.9,6.5H214.3z"
			/>
		<path class="st2" d="M229,92.3V80.8h1.3v11.5H229z"/>
		<path class="st2" d="M235.1,92.5c-0.7,0-1.2-0.1-1.6-0.3c-0.4-0.2-0.8-0.5-1-0.9s-0.3-0.8-0.3-1.2c0-0.8,0.3-1.4,0.9-1.9
			c0.6-0.4,1.5-0.7,2.5-0.7h2.1v-0.1c0-0.7-0.2-1.2-0.5-1.6s-0.9-0.5-1.5-0.5c-0.5,0-1,0.1-1.3,0.4c-0.4,0.3-0.6,0.6-0.7,1.1h-1.4
			c0-0.6,0.2-1.1,0.6-1.5c0.3-0.4,0.8-0.7,1.3-0.9s1-0.3,1.6-0.3c1.1,0,1.9,0.3,2.5,0.9s0.8,1.4,0.8,2.4v4.9h-1.2l-0.1-1.4
			c-0.2,0.4-0.6,0.8-1,1.1C236.5,92.3,235.9,92.5,235.1,92.5z M235.3,91.3c0.5,0,0.9-0.1,1.3-0.4c0.4-0.3,0.6-0.6,0.8-1
			s0.3-0.9,0.3-1.3l0,0h-2c-0.8,0-1.3,0.1-1.7,0.4c-0.3,0.3-0.5,0.6-0.5,1s0.1,0.8,0.5,1C234.4,91.2,234.8,91.3,235.3,91.3z"/>
		<path class="st2" d="M244.1,92.3c-0.7,0-1.3-0.2-1.7-0.5c-0.4-0.4-0.6-1-0.6-1.9v-4.4h-1.4v-1.1h1.4l0.2-1.9h1.2v1.9h2.3v1.1h-2.3
			v4.4c0,0.5,0.1,0.8,0.3,1s0.6,0.3,1.1,0.3h0.8v1.2L244.1,92.3L244.1,92.3z"/>
		<path class="st2" d="M250.5,92.5c-0.8,0-1.4-0.2-2-0.5c-0.6-0.4-1-0.8-1.4-1.4c-0.3-0.6-0.5-1.4-0.5-2.2s0.2-1.6,0.5-2.2
			s0.8-1.1,1.4-1.5s1.3-0.5,2.1-0.5s1.4,0.2,2,0.5s1,0.8,1.3,1.4s0.4,1.2,0.4,1.8c0,0.1,0,0.2,0,0.3s0,0.2,0,0.4h-6.4
			c0,0.6,0.2,1.1,0.4,1.5s0.6,0.7,0.9,0.9c0.4,0.2,0.8,0.3,1.2,0.3c0.5,0,1-0.1,1.4-0.4s0.6-0.6,0.8-1h1.3c-0.2,0.7-0.6,1.4-1.2,1.8
			C252.2,92.2,251.4,92.5,250.5,92.5z M250.5,85.3c-0.6,0-1.2,0.2-1.7,0.6s-0.8,1-0.9,1.7h5c0-0.7-0.3-1.3-0.7-1.7
			C251.7,85.5,251.1,85.3,250.5,85.3z"/>
		<path class="st2" d="M261.1,95.8l2-4.3h-0.5l-3.1-7.2h1.5l2.6,6.2l2.8-6.2h1.4l-5.2,11.5H261.1z"/>
		<path class="st2" d="M272,92.5c-0.8,0-1.4-0.2-2-0.5s-1.1-0.8-1.4-1.4c-0.4-0.6-0.5-1.4-0.5-2.2s0.2-1.6,0.5-2.2
			c0.4-0.6,0.8-1.1,1.4-1.4s1.3-0.5,2-0.5c0.8,0,1.4,0.2,2,0.5s1.1,0.8,1.4,1.4c0.4,0.6,0.5,1.4,0.5,2.2s-0.2,1.6-0.5,2.2
			s-0.8,1.1-1.4,1.4S272.8,92.5,272,92.5z M272,91.3c0.5,0,0.9-0.1,1.3-0.3s0.7-0.6,1-1c0.2-0.5,0.4-1,0.4-1.7s-0.1-1.2-0.4-1.7
			c-0.2-0.4-0.6-0.8-0.9-1c-0.4-0.2-0.8-0.3-1.3-0.3s-0.9,0.1-1.3,0.3s-0.7,0.6-1,1s-0.4,1-0.4,1.7s0.1,1.2,0.4,1.7s0.6,0.8,0.9,1
			C271.1,91.2,271.6,91.3,272,91.3z"/>
		<path class="st2" d="M280.8,92.5c-0.9,0-1.7-0.3-2.2-0.9s-0.8-1.4-0.8-2.6v-4.6h1.3v4.5c0,1.6,0.7,2.5,2,2.5
			c0.7,0,1.3-0.2,1.7-0.7c0.4-0.5,0.7-1.2,0.7-2.1v-4.1h1.3v7.9h-1.2l-0.1-1.4c-0.2,0.5-0.6,0.9-1.1,1.2
			C281.9,92.3,281.4,92.5,280.8,92.5z"/>
		<path class="st2" d="M286.4,84.7l0.9-3.6h1.5l-1.5,3.6H286.4z"/>
		<path class="st2" d="M290.4,92.3V80.8h1.3v11.5H290.4z"/>
		<path class="st2" d="M294,92.3V80.8h1.3v11.5H294z"/>
		<path class="st2" d="M175.1,114.5c-0.8,0-1.4-0.2-2-0.5c-0.6-0.4-1.1-0.8-1.4-1.5c-0.4-0.6-0.5-1.3-0.5-2.2s0.2-1.6,0.5-2.2
			c0.4-0.6,0.8-1.1,1.4-1.5c0.6-0.4,1.3-0.5,2-0.5c0.9,0,1.7,0.2,2.4,0.7s1.1,1.1,1.2,2h-1.4c-0.1-0.5-0.4-0.9-0.8-1.1
			c-0.4-0.3-0.9-0.4-1.5-0.4c-0.4,0-0.9,0.1-1.3,0.3c-0.4,0.2-0.7,0.6-1,1c-0.2,0.4-0.4,1-0.4,1.7s0.1,1.2,0.4,1.7
			c0.2,0.4,0.6,0.8,1,1s0.8,0.3,1.3,0.3c0.6,0,1-0.1,1.5-0.4c0.4-0.3,0.7-0.7,0.8-1.2h1.4c-0.2,0.8-0.6,1.5-1.2,2
			C176.8,114.2,176,114.5,175.1,114.5z"/>
		<path class="st2" d="M184.2,114.5c-0.8,0-1.4-0.2-2-0.5s-1.1-0.8-1.4-1.4s-0.5-1.4-0.5-2.2s0.2-1.6,0.5-2.2
			c0.4-0.6,0.8-1.1,1.4-1.4c0.6-0.3,1.3-0.5,2-0.5c0.8,0,1.4,0.2,2,0.5s1.1,0.8,1.4,1.4c0.4,0.6,0.5,1.4,0.5,2.2s-0.2,1.6-0.5,2.2
			s-0.8,1.1-1.4,1.4S185,114.5,184.2,114.5z M184.2,113.3c0.5,0,0.9-0.1,1.3-0.3c0.4-0.2,0.7-0.6,1-1c0.2-0.5,0.4-1,0.4-1.7
			s-0.1-1.2-0.4-1.7c-0.2-0.4-0.6-0.8-0.9-1c-0.4-0.2-0.8-0.3-1.3-0.3s-0.9,0.1-1.3,0.3c-0.4,0.2-0.7,0.6-1,1s-0.4,1-0.4,1.7
			s0.1,1.2,0.4,1.7s0.6,0.8,0.9,1S183.8,113.3,184.2,113.3z"/>
		<path class="st2" d="M190.1,114.3v-7.9h1.2l0.1,1.1c0.3-0.4,0.6-0.8,1-1s0.9-0.4,1.4-0.4c0.6,0,1.2,0.1,1.6,0.4
			c0.4,0.3,0.8,0.6,1.1,1.2c0.3-0.5,0.7-0.9,1.1-1.1c0.5-0.3,1-0.4,1.6-0.4c0.9,0,1.7,0.3,2.3,0.9s0.8,1.4,0.8,2.6v4.6H201v-4.5
			c0-0.8-0.2-1.4-0.5-1.9c-0.3-0.4-0.8-0.6-1.4-0.6c-0.6,0-1.2,0.2-1.6,0.7c-0.4,0.5-0.6,1.2-0.6,2.1v4.1h-1.3v-4.5
			c0-0.8-0.2-1.4-0.5-1.9s-0.8-0.6-1.4-0.6c-0.6,0-1.1,0.2-1.6,0.7c-0.4,0.5-0.6,1.2-0.6,2.1v4.1L190.1,114.3L190.1,114.3z"/>
		<path class="st2" d="M204.4,117.8v-11.5h1.2l0.1,1.3c0.3-0.4,0.6-0.7,1.1-1s1.1-0.5,1.8-0.5c0.8,0,1.5,0.2,2.1,0.5
			c0.6,0.4,1,0.9,1.4,1.5c0.3,0.6,0.5,1.3,0.5,2.1s-0.2,1.5-0.5,2.1s-0.8,1.1-1.4,1.5c-0.6,0.4-1.3,0.5-2.1,0.5
			c-0.6,0-1.2-0.1-1.7-0.4s-0.9-0.6-1.2-1.1v4.9L204.4,117.8L204.4,117.8z M208.5,113.3c0.5,0,1-0.1,1.4-0.4c0.4-0.2,0.7-0.6,1-1.1
			s0.3-1,0.3-1.6s-0.1-1.1-0.3-1.6c-0.2-0.4-0.6-0.8-1-1.1c-0.4-0.2-0.9-0.4-1.4-0.4s-1,0.1-1.4,0.4s-0.7,0.6-1,1.1s-0.3,1-0.3,1.6
			s0.1,1.1,0.3,1.6s0.6,0.8,1,1.1S207.9,113.3,208.5,113.3z"/>
		<path class="st2" d="M214.4,114.3v-11.5h1.3v11.5H214.4z"/>
		<path class="st2" d="M221.5,114.5c-0.8,0-1.4-0.2-2-0.5c-0.6-0.4-1.1-0.8-1.4-1.4c-0.3-0.6-0.5-1.4-0.5-2.2s0.2-1.6,0.5-2.2
			s0.8-1.1,1.4-1.5c0.6-0.4,1.3-0.5,2.1-0.5s1.4,0.2,2,0.5s1,0.8,1.3,1.4s0.4,1.2,0.4,1.8c0,0.1,0,0.2,0,0.3s0,0.2,0,0.4H219
			c0,0.6,0.2,1.1,0.4,1.5s0.6,0.7,0.9,0.9c0.4,0.2,0.8,0.3,1.2,0.3c0.6,0,1-0.1,1.4-0.4s0.7-0.6,0.8-1h1.3c-0.2,0.7-0.6,1.4-1.2,1.8
			C223.3,114.2,222.5,114.5,221.5,114.5z M221.5,107.3c-0.6,0-1.2,0.2-1.7,0.6s-0.8,1-0.9,1.7h5c0-0.7-0.3-1.3-0.7-1.7
			C222.8,107.5,222.2,107.3,221.5,107.3z"/>
		<path class="st2" d="M230,114.3c-0.7,0-1.3-0.2-1.7-0.5c-0.4-0.4-0.6-1-0.6-1.9v-4.4h-1.4v-1.1h1.4l0.2-1.9h1.2v1.9h2.3v1.1h-2.3
			v4.4c0,0.5,0.1,0.8,0.3,1s0.6,0.3,1.1,0.3h0.8v1.2L230,114.3L230,114.3z"/>
		<path class="st2" d="M236.3,114.5c-0.8,0-1.4-0.2-2-0.5c-0.6-0.4-1-0.8-1.4-1.4c-0.3-0.6-0.5-1.4-0.5-2.2s0.2-1.6,0.5-2.2
			s0.8-1.1,1.4-1.5c0.6-0.4,1.3-0.5,2.1-0.5s1.4,0.2,2,0.5s1,0.8,1.3,1.4s0.5,1.2,0.5,1.8c0,0.1,0,0.2,0,0.3s0,0.2,0,0.4h-6.3
			c0,0.6,0.2,1.1,0.4,1.5s0.6,0.7,0.9,0.9c0.4,0.2,0.8,0.3,1.2,0.3c0.6,0,1-0.1,1.4-0.4s0.6-0.6,0.8-1h1.3c-0.2,0.7-0.6,1.4-1.2,1.8
			C238,114.2,237.3,114.5,236.3,114.5z M236.3,107.3c-0.6,0-1.2,0.2-1.7,0.6s-0.8,1-0.9,1.7h5c0-0.7-0.3-1.3-0.7-1.7
			C237.6,107.5,237,107.3,236.3,107.3z"/>
		<path class="st2" d="M246.1,114.3v-7.9h1.2l0.1,1.1c0.3-0.4,0.6-0.8,1-1s0.9-0.4,1.4-0.4c0.6,0,1.2,0.1,1.6,0.4
			c0.5,0.3,0.8,0.6,1.1,1.2c0.3-0.5,0.7-0.9,1.1-1.1s1-0.4,1.6-0.4c0.9,0,1.7,0.3,2.3,0.9s0.9,1.4,0.9,2.6v4.6h-1.3v-4.5
			c0-0.8-0.2-1.4-0.5-1.9c-0.3-0.4-0.8-0.6-1.4-0.6s-1.2,0.2-1.6,0.7s-0.6,1.2-0.6,2.1v4.1h-1.3v-4.5c0-0.8-0.2-1.4-0.5-1.9
			c-0.3-0.4-0.8-0.6-1.4-0.6s-1.2,0.2-1.6,0.7s-0.6,1.2-0.6,2.1v4.1L246.1,114.3L246.1,114.3z"/>
		<path class="st2" d="M264,114.5c-0.8,0-1.4-0.2-2-0.5s-1-0.8-1.4-1.4c-0.3-0.6-0.5-1.4-0.5-2.2s0.2-1.6,0.5-2.2s0.8-1.1,1.4-1.5
			s1.3-0.5,2.1-0.5c0.8,0,1.4,0.2,2,0.5s1,0.8,1.3,1.4s0.5,1.2,0.5,1.8c0,0.1,0,0.2,0,0.3s0,0.2,0,0.4h-6.3c0,0.6,0.2,1.1,0.4,1.5
			s0.6,0.7,0.9,0.9c0.4,0.2,0.8,0.3,1.2,0.3c0.6,0,1-0.1,1.4-0.4s0.6-0.6,0.8-1h1.3c-0.2,0.7-0.6,1.4-1.2,1.8
			C265.7,114.2,264.9,114.5,264,114.5z M264,107.3c-0.6,0-1.2,0.2-1.7,0.6s-0.8,1-0.9,1.7h5c0-0.7-0.3-1.3-0.7-1.7
			C265.3,107.5,264.7,107.3,264,107.3z"/>
		<path class="st2" d="M269.5,114.3v-7.9h1.2l0.1,1.4c0.3-0.5,0.6-0.9,1.1-1.2s1-0.4,1.6-0.4c0.9,0,1.7,0.3,2.2,0.9
			c0.6,0.6,0.8,1.4,0.8,2.6v4.6h-1.3v-4.5c0-1.7-0.7-2.5-2.1-2.5c-0.7,0-1.2,0.2-1.7,0.7s-0.7,1.2-0.7,2.1v4.1L269.5,114.3
			L269.5,114.3z"/>
		<path class="st2" d="M281.8,114.3c-0.7,0-1.3-0.2-1.7-0.5c-0.4-0.4-0.6-1-0.6-1.9v-4.4h-1.4v-1.1h1.4l0.2-1.9h1.2v1.9h2.3v1.1
			h-2.3v4.4c0,0.5,0.1,0.8,0.3,1c0.2,0.2,0.6,0.3,1.1,0.3h0.8v1.2L281.8,114.3L281.8,114.3z"/>
		<path class="st2" d="M287.5,114.5c-0.7,0-1.2-0.1-1.6-0.3s-0.8-0.5-1-0.9s-0.3-0.8-0.3-1.2c0-0.8,0.3-1.4,0.9-1.9
			c0.6-0.4,1.5-0.7,2.5-0.7h2.1v-0.1c0-0.7-0.2-1.2-0.5-1.6c-0.4-0.4-0.8-0.5-1.5-0.5c-0.5,0-1,0.1-1.4,0.4s-0.6,0.6-0.7,1.1h-1.4
			c0.1-0.6,0.2-1.1,0.6-1.5c0.3-0.4,0.8-0.7,1.3-0.9s1-0.3,1.6-0.3c1.1,0,1.9,0.3,2.5,0.9s0.8,1.4,0.8,2.4v4.9h-1.2l-0.1-1.4
			c-0.2,0.4-0.5,0.8-1,1.1C288.8,114.3,288.3,114.5,287.5,114.5z M287.7,113.3c0.5,0,1-0.1,1.3-0.4c0.4-0.3,0.6-0.6,0.8-1
			c0.2-0.4,0.3-0.9,0.3-1.3l0,0h-2c-0.8,0-1.4,0.1-1.7,0.4c-0.3,0.3-0.5,0.6-0.5,1s0.1,0.8,0.5,1
			C286.8,113.2,287.2,113.3,287.7,113.3z"/>
		<path class="st2" d="M293.5,114.3v-11.5h1.3v11.5H293.5z"/>
		<path class="st2" d="M297.1,114.3v-11.5h1.3v11.5H297.1z"/>
		<path class="st2" d="M301.5,117.8l2-4.3H303l-3.1-7.2h1.5l2.6,6.2l2.8-6.2h1.4l-5.2,11.5H301.5z"/>
		<path class="st2" d="M175.1,136.5c-0.8,0-1.4-0.2-2-0.5s-1.1-0.8-1.4-1.4c-0.4-0.6-0.5-1.4-0.5-2.2s0.2-1.6,0.5-2.2
			c0.4-0.6,0.8-1.1,1.4-1.4c0.6-0.3,1.3-0.5,2-0.5s1.4,0.2,2,0.5s1.1,0.8,1.4,1.4c0.4,0.6,0.5,1.4,0.5,2.2s-0.2,1.6-0.5,2.2
			c-0.4,0.6-0.8,1.1-1.4,1.4C176.5,136.3,175.8,136.5,175.1,136.5z M175.1,135.3c0.5,0,0.9-0.1,1.3-0.3c0.4-0.2,0.7-0.6,1-1
			c0.2-0.5,0.4-1,0.4-1.7s-0.1-1.2-0.4-1.7c-0.2-0.4-0.6-0.8-0.9-1c-0.4-0.2-0.8-0.3-1.3-0.3s-0.9,0.1-1.3,0.3c-0.4,0.2-0.7,0.6-1,1
			s-0.4,1-0.4,1.7s0.1,1.2,0.4,1.7c0.2,0.4,0.6,0.8,0.9,1C174.2,135.2,174.6,135.3,175.1,135.3z"/>
		<path class="st2" d="M180.9,136.3v-7.9h1.2l0.1,1.5c0.2-0.5,0.6-0.9,1.1-1.2s1.1-0.5,1.9-0.5v1.4h-0.3c-0.5,0-0.9,0.1-1.3,0.2
			c-0.4,0.2-0.7,0.4-0.9,0.8c-0.2,0.4-0.4,0.9-0.4,1.6v4L180.9,136.3L180.9,136.3z"/>
		<path class="st2" d="M191,139.8v-11.5h1.2l0.1,1.3c0.3-0.4,0.6-0.7,1.1-1s1.1-0.5,1.8-0.5c0.8,0,1.5,0.2,2.1,0.5
			c0.6,0.4,1,0.9,1.4,1.5c0.3,0.6,0.5,1.3,0.5,2.1s-0.2,1.5-0.5,2.1s-0.8,1.1-1.4,1.5c-0.6,0.4-1.3,0.5-2.1,0.5
			c-0.6,0-1.2-0.1-1.7-0.4c-0.5-0.3-0.9-0.6-1.2-1.1v4.8H191V139.8z M195.1,135.3c0.5,0,1-0.1,1.4-0.4s0.7-0.6,1-1.1s0.3-1,0.3-1.6
			s-0.1-1.1-0.3-1.6s-0.6-0.8-1-1.1c-0.4-0.2-0.9-0.4-1.4-0.4s-1,0.1-1.4,0.4c-0.4,0.2-0.7,0.6-1,1.1c-0.2,0.4-0.3,1-0.3,1.6
			s0.1,1.1,0.3,1.6s0.6,0.8,1,1.1S194.5,135.3,195.1,135.3z"/>
		<path class="st2" d="M201,136.3v-11.5h1.3v4.9c0.3-0.5,0.6-0.9,1.1-1.1s1-0.4,1.6-0.4c0.9,0,1.6,0.3,2.2,0.9
			c0.6,0.6,0.8,1.4,0.8,2.6v4.6h-1.3v-4.5c0-1.7-0.7-2.5-2-2.5c-0.7,0-1.3,0.2-1.7,0.7c-0.5,0.5-0.7,1.2-0.7,2.1v4.1L201,136.3
			L201,136.3z"/>
		<path class="st2" d="M210.8,139.8l2-4.3h-0.5l-3.1-7.2h1.5l2.6,6.2l2.8-6.2h1.4l-5.2,11.5H210.8z"/>
		<path class="st2" d="M221.4,136.5c-0.9,0-1.7-0.2-2.4-0.7c-0.6-0.5-1-1.1-1.1-1.9h1.4c0.1,0.4,0.3,0.8,0.7,1.1s0.8,0.5,1.4,0.5
			c0.6,0,1-0.1,1.2-0.4c0.3-0.2,0.4-0.5,0.4-0.9c0-0.5-0.2-0.8-0.5-1s-0.8-0.3-1.5-0.4c-0.4-0.1-0.9-0.2-1.3-0.4
			c-0.4-0.2-0.8-0.4-1.1-0.7s-0.4-0.7-0.4-1.2c0-0.7,0.3-1.3,0.8-1.7s1.2-0.7,2.1-0.7c0.8,0,1.5,0.2,2.1,0.6c0.5,0.4,0.8,1,0.9,1.8
			h-1.2c-0.1-0.4-0.2-0.7-0.5-0.9s-0.7-0.3-1.2-0.3s-0.8,0.1-1.1,0.3s-0.4,0.5-0.4,0.8s0.2,0.6,0.5,0.8s0.8,0.3,1.4,0.5
			c0.5,0.1,1,0.2,1.4,0.4c0.4,0.1,0.8,0.4,1.1,0.7s0.4,0.7,0.4,1.3c0,0.7-0.3,1.3-0.8,1.8C223.1,136.2,222.4,136.5,221.4,136.5z"/>
		<path class="st2" d="M230,136.5c-0.8,0-1.4-0.2-2-0.5c-0.6-0.4-1.1-0.8-1.4-1.5c-0.3-0.6-0.5-1.3-0.5-2.2s0.2-1.6,0.5-2.2
			c0.4-0.6,0.8-1.1,1.4-1.5c0.6-0.4,1.3-0.5,2-0.5c0.9,0,1.7,0.2,2.4,0.7s1.1,1.1,1.2,2h-1.4c-0.1-0.5-0.4-0.9-0.8-1.1
			c-0.4-0.3-0.9-0.4-1.5-0.4c-0.4,0-0.9,0.1-1.3,0.3c-0.4,0.2-0.7,0.6-1,1c-0.2,0.4-0.4,1-0.4,1.7s0.1,1.2,0.4,1.7
			c0.2,0.4,0.6,0.8,1,1s0.8,0.3,1.3,0.3c0.6,0,1-0.1,1.5-0.4c0.4-0.3,0.7-0.7,0.8-1.2h1.4c-0.2,0.8-0.6,1.5-1.2,2
			C231.8,136.2,231,136.5,230,136.5z"/>
		<path class="st2" d="M236.3,126.6c-0.3,0-0.5-0.1-0.7-0.3s-0.3-0.4-0.3-0.7s0.1-0.5,0.3-0.6c0.2-0.2,0.4-0.3,0.7-0.3
			s0.5,0.1,0.7,0.3s0.3,0.4,0.3,0.6c0,0.3-0.1,0.5-0.3,0.7S236.6,126.6,236.3,126.6z M235.6,136.3v-7.9h1.3v7.9H235.6z"/>
		<path class="st2" d="M242,136.5c-0.7,0-1.2-0.1-1.6-0.3s-0.8-0.5-1-0.9s-0.3-0.8-0.3-1.2c0-0.8,0.3-1.4,0.9-1.9s1.5-0.7,2.5-0.7
			h2.1v-0.1c0-0.7-0.2-1.2-0.5-1.6c-0.4-0.4-0.9-0.5-1.5-0.5c-0.5,0-1,0.1-1.4,0.4c-0.4,0.3-0.6,0.6-0.7,1.1h-1.4
			c0.1-0.6,0.2-1.1,0.6-1.5c0.3-0.4,0.8-0.7,1.3-0.9s1-0.3,1.6-0.3c1.1,0,1.9,0.3,2.5,0.9s0.8,1.4,0.8,2.4v4.9h-1.2l-0.1-1.4
			c-0.2,0.4-0.5,0.8-1,1.1C243.3,136.3,242.7,136.5,242,136.5z M242.2,135.3c0.5,0,1-0.1,1.3-0.4c0.4-0.3,0.6-0.6,0.8-1
			s0.3-0.9,0.3-1.3l0,0h-2c-0.8,0-1.4,0.1-1.7,0.4c-0.3,0.3-0.5,0.6-0.5,1s0.1,0.8,0.5,1C241.2,135.2,241.6,135.3,242.2,135.3z"/>
		<path class="st2" d="M248,136.3v-11.5h1.3v11.5H248z"/>
		<path class="st2" d="M251.5,136.3v-11.5h1.3v11.5H251.5z"/>
		<path class="st2" d="M255.9,139.8l2-4.3h-0.5l-3.1-7.2h1.5l2.6,6.2l2.8-6.2h1.4l-5.2,11.5H255.9z"/>
		<path class="st2" d="M175.1,158.5c-0.8,0-1.4-0.2-2-0.5s-1.1-0.8-1.4-1.5c-0.4-0.6-0.5-1.4-0.5-2.2s0.2-1.6,0.5-2.2
			s0.8-1.1,1.4-1.5c0.6-0.3,1.3-0.5,2-0.5c0.9,0,1.7,0.2,2.4,0.7s1.1,1.2,1.2,2h-1.4c-0.1-0.5-0.4-0.9-0.8-1.1
			c-0.4-0.3-0.9-0.4-1.5-0.4c-0.4,0-0.9,0.1-1.3,0.3c-0.4,0.2-0.7,0.6-1,1c-0.2,0.4-0.4,1-0.4,1.7s0.1,1.2,0.4,1.7
			c0.2,0.4,0.6,0.8,1,1s0.8,0.3,1.3,0.3c0.6,0,1-0.1,1.5-0.4c0.4-0.3,0.7-0.7,0.8-1.2h1.4c-0.2,0.8-0.6,1.5-1.2,2
			C176.8,158.2,176,158.5,175.1,158.5z"/>
		<path class="st2" d="M180.6,158.3v-11.5h1.3v4.9c0.3-0.5,0.6-0.9,1.1-1.1s1-0.4,1.6-0.4c0.9,0,1.6,0.3,2.2,0.9
			c0.6,0.6,0.8,1.4,0.8,2.6v4.6h-1.3v-4.5c0-1.6-0.7-2.5-2-2.5c-0.7,0-1.3,0.2-1.7,0.7c-0.5,0.5-0.7,1.2-0.7,2.1v4.1L180.6,158.3
			L180.6,158.3z"/>
		<path class="st2" d="M192.4,158.5c-0.7,0-1.2-0.1-1.6-0.3c-0.4-0.2-0.8-0.5-1-0.9s-0.3-0.8-0.3-1.2c0-0.8,0.3-1.4,0.9-1.9
			c0.6-0.4,1.5-0.7,2.5-0.7h2.1v-0.1c0-0.7-0.2-1.2-0.5-1.6c-0.4-0.4-0.8-0.5-1.5-0.5c-0.5,0-1,0.1-1.4,0.4s-0.6,0.6-0.7,1.1h-1.4
			c0.1-0.6,0.2-1.1,0.6-1.5c0.3-0.4,0.8-0.7,1.3-0.9s1-0.3,1.6-0.3c1.1,0,1.9,0.3,2.5,0.9s0.8,1.4,0.8,2.4v4.9h-1.2l-0.1-1.4
			c-0.2,0.5-0.6,0.8-1,1.1C193.7,158.3,193.1,158.5,192.4,158.5z M192.6,157.3c0.5,0,0.9-0.1,1.3-0.4c0.4-0.3,0.7-0.6,0.8-1
			c0.2-0.4,0.3-0.9,0.3-1.3l0,0h-2c-0.8,0-1.4,0.1-1.7,0.4s-0.5,0.6-0.5,1s0.2,0.8,0.5,1C191.6,157.2,192,157.3,192.6,157.3z"/>
		<path class="st2" d="M198.4,158.3v-11.5h1.3v11.5H198.4z"/>
		<path class="st2" d="M202,158.3v-11.5h1.3v11.5H202z"/>
		<path class="st2" d="M209.1,158.5c-0.8,0-1.4-0.2-2-0.5s-1-0.8-1.4-1.4c-0.3-0.6-0.5-1.4-0.5-2.2s0.2-1.6,0.5-2.2s0.8-1.1,1.4-1.5
			c0.6-0.3,1.3-0.5,2.1-0.5s1.4,0.2,2,0.5c0.6,0.4,1,0.8,1.3,1.4s0.4,1.2,0.4,1.8c0,0.1,0,0.2,0,0.4c0,0.1,0,0.2,0,0.4h-6.3
			c0,0.6,0.2,1.1,0.4,1.5s0.6,0.7,0.9,0.9c0.4,0.2,0.8,0.3,1.2,0.3c0.6,0,1-0.1,1.4-0.4s0.7-0.6,0.8-1h1.3c-0.2,0.7-0.6,1.4-1.2,1.8
			C210.8,158.2,210,158.5,209.1,158.5z M209.1,151.3c-0.6,0-1.2,0.2-1.7,0.6s-0.8,1-0.9,1.7h5c0-0.7-0.3-1.3-0.7-1.7
			C210.3,151.5,209.7,151.3,209.1,151.3z"/>
		<path class="st2" d="M214.6,158.3v-7.9h1.2l0.1,1.4c0.3-0.5,0.6-0.9,1.1-1.2s1-0.4,1.6-0.4c0.9,0,1.7,0.3,2.2,0.9
			c0.6,0.6,0.8,1.4,0.8,2.6v4.6h-1.3v-4.5c0-1.6-0.7-2.5-2.1-2.5c-0.7,0-1.2,0.2-1.7,0.7c-0.4,0.5-0.7,1.2-0.7,2.1v4.1L214.6,158.3
			L214.6,158.3z"/>
		<path class="st2" d="M226.9,155.8c-0.5,0-0.9-0.1-1.2-0.2l-0.8,0.8c0.1,0.1,0.3,0.2,0.4,0.2c0.2,0.1,0.4,0.1,0.8,0.2
			c0.3,0,0.8,0.1,1.4,0.1c1.1,0.1,1.8,0.3,2.3,0.7s0.7,1,0.7,1.6c0,0.5-0.1,0.9-0.4,1.3s-0.6,0.8-1.1,1c-0.5,0.3-1.2,0.4-2,0.4
			c-0.7,0-1.3-0.1-1.9-0.3c-0.6-0.2-1-0.5-1.3-0.8s-0.5-0.9-0.5-1.4c0-0.3,0.1-0.6,0.2-1c0.2-0.3,0.5-0.7,0.9-1
			c-0.2-0.1-0.4-0.2-0.6-0.3c-0.2-0.1-0.3-0.2-0.5-0.4v-0.4l1.4-1.3c-0.6-0.5-0.9-1.2-0.9-2.1c0-0.5,0.1-1,0.4-1.4
			c0.2-0.4,0.6-0.8,1.1-1s1-0.4,1.7-0.4c0.5,0,0.9,0.1,1.2,0.2h2.9v1l-1.5,0.1c0.3,0.5,0.5,1,0.5,1.5s-0.1,1-0.4,1.4
			c-0.2,0.4-0.6,0.8-1.1,1C228.1,155.7,227.6,155.8,226.9,155.8z M224.5,159.3c0,0.5,0.2,0.9,0.7,1.2c0.4,0.3,1,0.4,1.7,0.4
			s1.2-0.1,1.6-0.4c0.4-0.3,0.6-0.7,0.6-1.1c0-0.3-0.1-0.6-0.4-0.9s-0.8-0.4-1.5-0.4c-0.6,0-1.1-0.1-1.5-0.2
			c-0.4,0.2-0.7,0.5-0.9,0.8C224.6,158.9,224.5,159.1,224.5,159.3z M226.9,154.7c0.6,0,1-0.1,1.3-0.4s0.5-0.7,0.5-1.3
			c0-0.5-0.2-1-0.5-1.3s-0.8-0.4-1.3-0.4c-0.6,0-1,0.1-1.4,0.4c-0.3,0.3-0.5,0.7-0.5,1.3c0,0.5,0.2,1,0.5,1.3
			C225.9,154.5,226.3,154.7,226.9,154.7z"/>
		<path class="st2" d="M233.4,148.6c-0.3,0-0.5-0.1-0.7-0.3s-0.3-0.4-0.3-0.7s0.1-0.5,0.3-0.6c0.2-0.2,0.4-0.3,0.7-0.3
			s0.5,0.1,0.7,0.3s0.3,0.4,0.3,0.6c0,0.3-0.1,0.5-0.3,0.7S233.7,148.6,233.4,148.6z M232.7,158.3v-7.9h1.3v7.9H232.7z"/>
		<path class="st2" d="M236.4,158.3v-7.9h1.2l0.1,1.4c0.3-0.5,0.6-0.9,1.1-1.2s1-0.4,1.6-0.4c0.9,0,1.7,0.3,2.2,0.9
			c0.6,0.6,0.8,1.4,0.8,2.6v4.6h-1.3v-4.5c0-1.6-0.7-2.5-2.1-2.5c-0.7,0-1.2,0.2-1.7,0.7s-0.7,1.2-0.7,2.1v4.1L236.4,158.3
			L236.4,158.3z"/>
		<path class="st2" d="M248.7,155.8c-0.4,0-0.9-0.1-1.2-0.2l-0.8,0.8c0.1,0.1,0.3,0.2,0.4,0.2c0.2,0.1,0.4,0.1,0.8,0.2
			c0.3,0,0.8,0.1,1.4,0.1c1.1,0.1,1.8,0.3,2.3,0.7s0.7,1,0.7,1.6c0,0.5-0.1,0.9-0.4,1.3s-0.6,0.8-1.1,1c-0.5,0.3-1.2,0.4-2,0.4
			c-0.7,0-1.4-0.1-1.9-0.3c-0.6-0.2-1-0.5-1.3-0.8s-0.5-0.9-0.5-1.4c0-0.3,0.1-0.6,0.2-1c0.2-0.3,0.5-0.7,0.9-1
			c-0.2-0.1-0.4-0.2-0.6-0.3c-0.2-0.1-0.3-0.2-0.5-0.4v-0.4l1.4-1.3c-0.6-0.5-0.9-1.2-0.9-2.1c0-0.5,0.1-1,0.4-1.4
			c0.2-0.4,0.6-0.8,1.1-1s1-0.4,1.7-0.4c0.5,0,0.9,0.1,1.2,0.2h2.9v1l-1.5,0.1c0.3,0.5,0.5,1,0.5,1.5s-0.1,1-0.4,1.4
			c-0.2,0.4-0.6,0.8-1.1,1C249.9,155.7,249.4,155.8,248.7,155.8z M246.4,159.3c0,0.5,0.2,0.9,0.7,1.2c0.4,0.3,1,0.4,1.7,0.4
			s1.2-0.1,1.6-0.4s0.6-0.7,0.6-1.1c0-0.3-0.1-0.6-0.4-0.9s-0.8-0.4-1.5-0.4c-0.6,0-1.1-0.1-1.5-0.2c-0.4,0.2-0.7,0.5-0.9,0.8
			C246.4,158.9,246.4,159.1,246.4,159.3z M248.7,154.7c0.6,0,1-0.1,1.4-0.4c0.3-0.3,0.5-0.7,0.5-1.3c0-0.5-0.2-1-0.5-1.3
			s-0.8-0.4-1.4-0.4s-1,0.1-1.4,0.4s-0.5,0.7-0.5,1.3c0,0.5,0.2,1,0.5,1.3C247.7,154.5,248.1,154.7,248.7,154.7z"/>
		<path class="st2" d="M261.8,158.3c-0.7,0-1.3-0.2-1.7-0.5s-0.6-1-0.6-1.9v-4.4h-1.4v-1.1h1.4l0.2-1.9h1.2v1.9h2.3v1.1h-2.3v4.4
			c0,0.5,0.1,0.8,0.3,1s0.6,0.3,1.1,0.3h0.8v1.1L261.8,158.3L261.8,158.3z"/>
		<path class="st2" d="M267.5,158.5c-0.7,0-1.2-0.1-1.6-0.3s-0.8-0.5-1-0.9s-0.3-0.8-0.3-1.2c0-0.8,0.3-1.4,0.9-1.9s1.5-0.7,2.5-0.7
			h2.1v-0.1c0-0.7-0.2-1.2-0.5-1.6c-0.4-0.4-0.9-0.5-1.5-0.5c-0.5,0-1,0.1-1.4,0.4s-0.6,0.6-0.7,1.1h-1.4c0.1-0.6,0.2-1.1,0.6-1.5
			c0.3-0.4,0.8-0.7,1.3-0.9s1-0.3,1.6-0.3c1.1,0,1.9,0.3,2.5,0.9s0.8,1.4,0.8,2.4v4.9h-1.2l-0.1-1.4c-0.2,0.5-0.5,0.8-1,1.1
			C268.8,158.3,268.2,158.5,267.5,158.5z M267.7,157.3c0.5,0,1-0.1,1.3-0.4c0.4-0.3,0.6-0.6,0.8-1s0.3-0.9,0.3-1.3l0,0h-2
			c-0.8,0-1.4,0.1-1.7,0.4c-0.3,0.3-0.5,0.6-0.5,1s0.1,0.8,0.5,1C266.7,157.2,267.1,157.3,267.7,157.3z"/>
		<path class="st2" d="M276.5,158.5c-0.9,0-1.7-0.2-2.4-0.7s-1-1.1-1.1-2h1.4c0.1,0.4,0.3,0.8,0.7,1.1c0.4,0.3,0.8,0.5,1.5,0.5
			c0.6,0,1-0.1,1.2-0.4c0.3-0.2,0.4-0.5,0.4-0.9c0-0.5-0.2-0.8-0.5-1s-0.8-0.3-1.5-0.4c-0.4-0.1-0.9-0.2-1.3-0.4s-0.8-0.4-1.1-0.7
			c-0.3-0.3-0.4-0.7-0.4-1.2c0-0.7,0.3-1.3,0.8-1.7s1.2-0.7,2.1-0.7c0.8,0,1.5,0.2,2.1,0.6c0.5,0.4,0.8,1,0.9,1.8H278
			c0-0.4-0.2-0.7-0.5-1c-0.3-0.2-0.7-0.3-1.2-0.3s-0.9,0.1-1.1,0.3c-0.3,0.2-0.4,0.5-0.4,0.8s0.2,0.6,0.5,0.8s0.8,0.3,1.4,0.5
			c0.5,0.1,1,0.2,1.4,0.4s0.8,0.4,1.1,0.7c0.3,0.3,0.4,0.7,0.4,1.3c0,0.7-0.3,1.3-0.8,1.8C278.2,158.2,277.5,158.5,276.5,158.5z"/>
		<path class="st2" d="M281.5,158.3v-11.5h1.3v6.9l3.2-3.3h1.6l-3.5,3.6l4,4.4h-1.7l-3.6-4.1v4.1L281.5,158.3L281.5,158.3z"/>
		<path class="st2" d="M292.1,158.5c-1,0-1.7-0.2-2.4-0.7s-1-1.1-1.1-2h1.4c0.1,0.4,0.3,0.8,0.7,1.1c0.4,0.3,0.8,0.5,1.4,0.5
			s1-0.1,1.2-0.4c0.3-0.2,0.4-0.5,0.4-0.9c0-0.5-0.2-0.8-0.5-1s-0.8-0.3-1.5-0.4c-0.4-0.1-0.9-0.2-1.3-0.4s-0.8-0.4-1.1-0.7
			s-0.4-0.7-0.4-1.2c0-0.7,0.3-1.3,0.8-1.7s1.2-0.7,2.1-0.7c0.8,0,1.5,0.2,2.1,0.6c0.5,0.4,0.9,1,0.9,1.8h-1.3c0-0.4-0.2-0.7-0.5-1
			c-0.3-0.2-0.7-0.3-1.2-0.3s-0.8,0.1-1.1,0.3c-0.3,0.2-0.4,0.5-0.4,0.8s0.2,0.6,0.5,0.8s0.8,0.3,1.4,0.5c0.5,0.1,1,0.2,1.4,0.4
			s0.8,0.4,1.1,0.7c0.3,0.3,0.4,0.7,0.4,1.3c0,0.7-0.3,1.3-0.8,1.8C293.8,158.2,293.1,158.5,292.1,158.5z"/>
		<path class="st2" d="M297.5,158.4c-0.3,0-0.5-0.1-0.7-0.3s-0.3-0.4-0.3-0.7s0.1-0.5,0.3-0.6c0.2-0.2,0.4-0.3,0.7-0.3
			c0.3,0,0.5,0.1,0.6,0.3c0.2,0.2,0.3,0.4,0.3,0.6c0,0.3-0.1,0.5-0.3,0.7C298,158.3,297.8,158.4,297.5,158.4z"/>
		<path class="st3" d="M147.1,147.1l-36.8,16.5c-2.9,1.3-6.3,0-7.6-2.9L51.3,45.6c-1.3-2.9,0-6.3,2.9-7.6L91,21.5
			c2.9-1.3,6.3,0,7.6,2.9L150,139.5C151.3,142.4,150,145.8,147.1,147.1z"/>
		<path class="st1" d="M130.3,60.2L144.5,92c1.2,2.6,0,5.6-2.6,6.8l-64.1,28.7c-2.6,1.2-5.6,0-6.8-2.6L56.8,93.1
			c-1.2-2.6,0-5.6,2.6-6.8l64.1-28.7C126.1,56.5,129.2,57.6,130.3,60.2z"/>
		<path class="st4" d="M100.8,128.7c19.9,0,36-16.1,36-36s-16.1-36-36-36s-36,16.1-36,36S80.9,128.7,100.8,128.7z"/>
		<path class="st5" d="M100.8,125.2c17.9,0,32.5-14.5,32.5-32.4s-14.5-32.5-32.5-32.5S68.4,74.8,68.4,92.8S82.9,125.2,100.8,125.2z"
			/>
		<path class="st6" d="M99.9,93.4l-2.2-1.3c-0.3-0.2-0.5-0.6-0.3-0.9l12.7-22.4c0.2-0.3,0.6-0.4,0.9-0.3l2.2,1.3
			c0.3,0.2,0.4,0.6,0.3,0.9l-12.6,22.5C100.7,93.5,100.3,93.6,99.9,93.4z"/>
		<path class="st7" d="M72.9,86.7c-0.3-4.6,4.8-12,10.2-14.8"/>
		<path class="st7" d="M128.6,95.1c-0.2,4.4-2.5,10.1-5.7,13.3"/>
		<path class="st3" d="M68.5,137c-0.6-1.3-1.8-2.3-3.2-2.8c-0.1,0-0.3-0.1-0.4-0.1c1.7-1.5,2.3-4,1.3-6.1c-0.6-1.3-1.8-2.3-3.2-2.8
			c-0.1,0-0.3-0.1-0.4-0.1c1.7-1.5,2.3-4,1.3-6.1c-0.6-1.3-1.8-2.3-3.2-2.8c-0.1,0-0.2,0-0.2-0.1l17.7-10.4c2.4-1.4,3.3-4.3,2.2-6.8
			c-1.2-2.6-4.3-3.7-6.9-2.5c-0.2,0.1-0.3,0.1-0.4,0.2l-26.2,15.5l-4.4-1.3c-6.1-1.8-12.5,1.6-14.4,7.7c-1.7,5.5-4.9,10.5-9.2,14.3
			c-0.3,0.2-0.3,0.6-0.2,1l14.2,23.7c0.2,0.3,0.6,0.5,1,0.3c3.3-1.7,6.8-2.9,10.5-3.7c4.6-1,9.1-2.7,13.1-5.2l8.7-5.2
			C68.6,142.4,69.6,139.5,68.5,137z"/>
	</g>
</g>
</svg>
