<?xml version="1.0" encoding="utf-8"?>
<!-- Generator: Adobe Illustrator 25.1.0, SVG Export Plug-In . SVG Version: 6.00 Build 0)  -->
<svg version="1.1" id="Layer_1" xmlns="http://www.w3.org/2000/svg" xmlns:xlink="http://www.w3.org/1999/xlink" x="0px" y="0px"
	 viewBox="0 0 334.7 316.6" style="enable-background:new 0 0 334.7 316.6;" xml:space="preserve">
<style type="text/css">
	.st0{fill:#FFFFFF;}
	.st1{fill:#808080;}
	.st2{fill:#BFBFBF;}
	.st3{fill:#00CDDC;}
	.st4{fill:#00A878;}
	.st5{fill:#3CDC82;}
	.st6{fill:#32DCD2;}
	.st7{fill:#28C86E;}
	.st8{fill:none;stroke:#28C86E;stroke-width:1.851;stroke-linecap:round;stroke-miterlimit:10;}
	.st9{fill:#FFCF8D;}
	.st10{fill:#FF9F1A;}
</style>
<g>
	<g>
		<path class="st0" d="M1.1,94c0,218.2-19.8,220.8,111.6,222.5c28.3,0.4,124.5-0.5,159.2-1.4c34.1-0.9,54.1-2.2,59.2-23
			c8.1-32.4,0.3-98.4,0.3-157.8c0-93.5,6.6-115.8-28.4-127.6c-35.6-12-166.4-4.5-209.3-3C49.4,5.1,1.1-1.2,1.1,94z"/>
		<path class="st1" d="M35.3,233.5v-11.2h3.9c0.8,0,1.4,0.1,2,0.4s0.9,0.6,1.2,1s0.4,0.9,0.4,1.4c0,0.7-0.2,1.3-0.6,1.7
			c-0.4,0.4-0.9,0.7-1.4,0.9c0.4,0.1,0.8,0.2,1.1,0.5s0.6,0.6,0.8,1s0.3,0.8,0.3,1.3c0,0.6-0.1,1.1-0.4,1.5
			c-0.3,0.5-0.7,0.8-1.2,1.1s-1.2,0.4-2,0.4L35.3,233.5L35.3,233.5z M36.7,227.2h2.5c0.7,0,1.3-0.2,1.7-0.5s0.6-0.8,0.6-1.4
			s-0.2-1-0.6-1.4s-1-0.5-1.7-0.5h-2.5V227.2L36.7,227.2z M36.7,232.3h2.6c0.8,0,1.4-0.2,1.8-0.5c0.4-0.4,0.6-0.9,0.6-1.5
			s-0.2-1.1-0.7-1.5c-0.4-0.4-1-0.6-1.8-0.6h-2.5C36.7,228.2,36.7,232.3,36.7,232.3z"/>
		<path class="st1" d="M47.8,233.7c-0.9,0-1.7-0.3-2.2-0.9s-0.8-1.5-0.8-2.6v-4.6H46v4.5c0,1.6,0.7,2.5,2,2.5c0.7,0,1.3-0.2,1.7-0.7
			c0.5-0.5,0.7-1.2,0.7-2.1v-4.1h1.3v7.9h-1.2l-0.1-1.4c-0.2,0.5-0.6,0.9-1.1,1.2C48.9,233.5,48.4,233.7,47.8,233.7z"/>
		<path class="st1" d="M57.2,233.5c-0.7,0-1.3-0.2-1.7-0.5s-0.6-1-0.6-1.9v-4.4h-1.4v-1.1h1.4l0.2-1.9h1.2v1.9h2.3v1.1h-2.3v4.4
			c0,0.5,0.1,0.8,0.3,1s0.6,0.3,1.1,0.3h0.8v1.2h-1.3V233.5z"/>
		<path class="st1" d="M64.4,233.5v-7.9h1.2l0.1,1.1c0.3-0.4,0.6-0.8,1-1s0.9-0.3,1.4-0.3c0.6,0,1.2,0.1,1.6,0.4
			c0.5,0.3,0.8,0.6,1.1,1.2c0.3-0.5,0.7-0.9,1.1-1.1c0.5-0.3,1-0.4,1.6-0.4c0.9,0,1.7,0.3,2.3,0.9s0.8,1.5,0.8,2.6v4.6h-1.3v-4.5
			c0-0.8-0.2-1.4-0.5-1.9c-0.3-0.4-0.8-0.6-1.4-0.6s-1.2,0.2-1.6,0.7s-0.6,1.2-0.6,2.1v4.1h-1.3V229c0-0.8-0.2-1.4-0.5-1.9
			s-0.8-0.6-1.4-0.6s-1.2,0.2-1.6,0.7s-0.6,1.2-0.6,2.1v4.1L64.4,233.5L64.4,233.5z"/>
		<path class="st1" d="M82.3,233.7c-0.8,0-1.4-0.2-2-0.5s-1.1-0.8-1.4-1.5c-0.3-0.6-0.5-1.3-0.5-2.2c0-0.8,0.2-1.6,0.5-2.2
			s0.8-1.1,1.4-1.5s1.3-0.5,2.1-0.5c0.8,0,1.4,0.2,2,0.5s1,0.8,1.3,1.4s0.4,1.2,0.4,1.8c0,0.1,0,0.2,0,0.3s0,0.2,0,0.4h-6.3
			c0,0.6,0.2,1.1,0.4,1.5c0.2,0.4,0.6,0.7,0.9,0.9c0.4,0.2,0.8,0.3,1.2,0.3c0.6,0,1-0.1,1.4-0.4s0.6-0.6,0.8-1h1.3
			c-0.2,0.7-0.6,1.3-1.2,1.8C84.1,233.4,83.3,233.7,82.3,233.7z M82.3,226.5c-0.6,0-1.2,0.2-1.7,0.6s-0.8,1-0.9,1.7h5
			c0-0.7-0.3-1.3-0.7-1.7C83.6,226.7,83,226.5,82.3,226.5z"/>
		<path class="st1" d="M87.9,233.5v-7.9h1.2l0.1,1.4c0.3-0.5,0.6-0.9,1.1-1.2s1-0.4,1.6-0.4c0.9,0,1.7,0.3,2.2,0.9
			c0.6,0.6,0.8,1.5,0.8,2.6v4.6h-1.3V229c0-1.7-0.7-2.5-2.1-2.5c-0.7,0-1.2,0.2-1.7,0.7s-0.7,1.2-0.7,2.1v4.1L87.9,233.5L87.9,233.5
			z"/>
		<path class="st1" d="M100.2,233.5c-0.7,0-1.3-0.2-1.7-0.5c-0.4-0.3-0.6-1-0.6-1.9v-4.4h-1.4v-1.1h1.4l0.2-1.9h1.2v1.9h2.3v1.1
			h-2.3v4.4c0,0.5,0.1,0.8,0.3,1c0.2,0.2,0.6,0.3,1.1,0.3h0.8v1.2h-1.3V233.5z"/>
		<path class="st1" d="M105.9,233.7c-0.7,0-1.2-0.1-1.7-0.3c-0.4-0.2-0.8-0.5-1-0.9s-0.3-0.8-0.3-1.2c0-0.8,0.3-1.4,0.9-1.9
			c0.6-0.4,1.5-0.7,2.5-0.7h2.1v-0.1c0-0.7-0.2-1.2-0.5-1.6c-0.4-0.4-0.8-0.5-1.5-0.5c-0.5,0-1,0.1-1.3,0.4
			c-0.4,0.3-0.6,0.6-0.7,1.1H103c0.1-0.6,0.2-1.1,0.6-1.5c0.3-0.4,0.8-0.7,1.3-0.9s1-0.3,1.6-0.3c1.1,0,1.9,0.3,2.5,0.9
			s0.8,1.4,0.8,2.4v4.9h-1.2l-0.1-1.4c-0.2,0.5-0.6,0.8-1,1.1C107.2,233.5,106.6,233.7,105.9,233.7z M106.1,232.5
			c0.5,0,0.9-0.1,1.3-0.4s0.6-0.6,0.8-1s0.3-0.9,0.3-1.3l0,0h-2c-0.8,0-1.3,0.1-1.7,0.4c-0.3,0.3-0.5,0.6-0.5,1s0.2,0.8,0.5,1
			C105.1,232.4,105.5,232.5,106.1,232.5z"/>
		<path class="st1" d="M111.9,233.5V222h1.3v11.5H111.9z"/>
		<path class="st1" d="M115.4,233.5V222h1.3v11.5H115.4z"/>
		<path class="st1" d="M119.8,237l2-4.3h-0.5l-3.2-7.2h1.5l2.6,6.2l2.8-6.2h1.4l-5.2,11.5H119.8z"/>
		<path class="st1" d="M135.8,233.7c-0.8,0-1.4-0.2-2-0.5s-1.1-0.8-1.4-1.5c-0.3-0.6-0.5-1.3-0.5-2.2c0-0.8,0.2-1.6,0.5-2.2
			s0.8-1.1,1.4-1.5c0.6-0.4,1.3-0.5,2-0.5c0.9,0,1.7,0.2,2.4,0.7s1.1,1.2,1.2,2H138c-0.1-0.5-0.4-0.9-0.8-1.1
			c-0.4-0.3-0.9-0.4-1.5-0.4c-0.5,0-0.9,0.1-1.3,0.3c-0.4,0.2-0.7,0.6-1,1s-0.4,1-0.4,1.7s0.1,1.2,0.4,1.7s0.6,0.8,1,1
			s0.8,0.3,1.3,0.3s1-0.1,1.5-0.4c0.4-0.3,0.7-0.7,0.8-1.2h1.4c-0.2,0.8-0.6,1.5-1.2,2C137.5,233.4,136.7,233.7,135.8,233.7z"/>
		<path class="st1" d="M141.2,233.5V222h1.3v4.9c0.3-0.5,0.6-0.9,1.1-1.1c0.5-0.3,1-0.4,1.6-0.4c0.9,0,1.7,0.3,2.2,0.9
			c0.6,0.6,0.8,1.5,0.8,2.6v4.6H147V229c0-1.7-0.7-2.5-2-2.5c-0.7,0-1.3,0.2-1.7,0.7c-0.5,0.5-0.7,1.2-0.7,2.1v4.1L141.2,233.5
			L141.2,233.5z"/>
		<path class="st1" d="M153,233.7c-0.7,0-1.2-0.1-1.6-0.3c-0.4-0.2-0.8-0.5-1-0.9s-0.3-0.8-0.3-1.2c0-0.8,0.3-1.4,0.9-1.9
			c0.6-0.4,1.5-0.7,2.5-0.7h2.1v-0.1c0-0.7-0.2-1.2-0.5-1.6c-0.4-0.4-0.9-0.5-1.5-0.5c-0.5,0-1,0.1-1.3,0.4s-0.6,0.6-0.7,1.1h-1.4
			c0-0.6,0.2-1.1,0.6-1.5c0.3-0.4,0.8-0.7,1.3-0.9s1-0.3,1.6-0.3c1.1,0,1.9,0.3,2.5,0.9s0.8,1.4,0.8,2.4v4.9h-1.2l-0.1-1.4
			c-0.2,0.5-0.6,0.8-1,1.1C154.3,233.5,153.8,233.7,153,233.7z M153.2,232.5c0.5,0,0.9-0.1,1.3-0.4c0.4-0.3,0.6-0.6,0.8-1
			s0.3-0.9,0.3-1.3l0,0h-2c-0.8,0-1.3,0.1-1.7,0.4c-0.3,0.3-0.5,0.6-0.5,1s0.1,0.8,0.5,1C152.2,232.4,152.7,232.5,153.2,232.5z"/>
		<path class="st1" d="M159,233.5V222h1.3v11.5H159z"/>
		<path class="st1" d="M162.6,233.5V222h1.3v11.5H162.6z"/>
		<path class="st1" d="M169.7,233.7c-0.8,0-1.4-0.2-2-0.5s-1.1-0.8-1.4-1.5c-0.3-0.6-0.5-1.3-0.5-2.2c0-0.8,0.2-1.6,0.5-2.2
			s0.8-1.1,1.4-1.5c0.6-0.4,1.3-0.5,2.1-0.5s1.4,0.2,2,0.5s1,0.8,1.3,1.4s0.4,1.2,0.4,1.8c0,0.1,0,0.2,0,0.3s0,0.2,0,0.4h-6.3
			c0,0.6,0.2,1.1,0.4,1.5s0.6,0.7,0.9,0.9s0.8,0.3,1.2,0.3c0.5,0,1-0.1,1.4-0.4c0.4-0.2,0.6-0.6,0.8-1h1.3c-0.2,0.7-0.6,1.3-1.2,1.8
			C171.4,233.4,170.6,233.7,169.7,233.7z M169.7,226.5c-0.6,0-1.2,0.2-1.7,0.6s-0.8,1-0.9,1.7h5c0-0.7-0.3-1.3-0.7-1.7
			C170.9,226.7,170.4,226.5,169.7,226.5z"/>
		<path class="st1" d="M175.2,233.5v-7.9h1.2l0.1,1.4c0.3-0.5,0.6-0.9,1.1-1.2s1-0.4,1.6-0.4c0.9,0,1.7,0.3,2.2,0.9s0.8,1.5,0.8,2.6
			v4.6H181V229c0-1.7-0.7-2.5-2.1-2.5c-0.7,0-1.2,0.2-1.7,0.7c-0.4,0.5-0.7,1.2-0.7,2.1v4.1L175.2,233.5L175.2,233.5z"/>
		<path class="st1" d="M187.5,231c-0.4,0-0.9-0.1-1.2-0.2l-0.8,0.8c0.1,0.1,0.3,0.2,0.4,0.2c0.2,0.1,0.4,0.1,0.8,0.2
			c0.3,0,0.8,0.1,1.4,0.1c1.1,0.1,1.8,0.3,2.3,0.7s0.7,1,0.7,1.6c0,0.5-0.1,0.9-0.4,1.3c-0.2,0.4-0.6,0.8-1.1,1
			c-0.5,0.3-1.2,0.4-2,0.4c-0.7,0-1.3-0.1-1.9-0.3s-1-0.5-1.3-0.8s-0.5-0.9-0.5-1.4c0-0.3,0.1-0.6,0.2-1c0.2-0.3,0.5-0.7,0.9-1
			c-0.2-0.1-0.4-0.2-0.6-0.3s-0.3-0.2-0.5-0.4v-0.4l1.4-1.3c-0.6-0.5-0.9-1.2-0.9-2.1c0-0.5,0.1-1,0.4-1.4c0.2-0.4,0.6-0.8,1.1-1
			s1-0.4,1.7-0.4c0.5,0,0.9,0.1,1.2,0.2h2.9v1l-1.5,0.1c0.3,0.5,0.5,1,0.5,1.5s-0.1,1-0.4,1.4c-0.2,0.4-0.6,0.8-1.1,1
			C188.8,230.8,188.2,231,187.5,231z M185.2,234.5c0,0.5,0.2,0.9,0.7,1.2s1,0.4,1.7,0.4s1.2-0.1,1.6-0.4s0.6-0.7,0.6-1.1
			c0-0.3-0.1-0.6-0.4-0.9c-0.3-0.2-0.8-0.4-1.5-0.4c-0.6,0-1.1-0.1-1.5-0.2c-0.4,0.2-0.7,0.5-0.9,0.8
			C185.3,234,185.2,234.3,185.2,234.5z M187.5,229.9c0.6,0,1-0.1,1.4-0.4c0.3-0.3,0.5-0.7,0.5-1.3c0-0.5-0.2-1-0.5-1.3
			s-0.8-0.4-1.4-0.4c-0.6,0-1,0.2-1.4,0.4s-0.5,0.7-0.5,1.3s0.2,1,0.5,1.3C186.5,229.7,187,229.9,187.5,229.9z"/>
		<path class="st1" d="M194.1,223.8c-0.3,0-0.5-0.1-0.7-0.3s-0.3-0.4-0.3-0.7s0.1-0.5,0.3-0.6c0.2-0.2,0.4-0.3,0.7-0.3
			s0.5,0.1,0.7,0.3s0.3,0.4,0.3,0.6c0,0.3-0.1,0.5-0.3,0.7C194.5,223.7,194.3,223.8,194.1,223.8z M193.4,233.5v-7.9h1.3v7.9H193.4z"
			/>
		<path class="st1" d="M197.1,233.5v-7.9h1.2l0.1,1.4c0.3-0.5,0.6-0.9,1.1-1.2s1-0.4,1.6-0.4c0.9,0,1.7,0.3,2.2,0.9s0.8,1.5,0.8,2.6
			v4.6h-1.3V229c0-1.7-0.7-2.5-2.1-2.5c-0.7,0-1.2,0.2-1.7,0.7c-0.4,0.5-0.7,1.2-0.7,2.1v4.1L197.1,233.5L197.1,233.5z"/>
		<path class="st1" d="M209.4,231c-0.5,0-0.9-0.1-1.2-0.2l-0.8,0.8c0.1,0.1,0.3,0.2,0.4,0.2c0.2,0.1,0.4,0.1,0.8,0.2
			c0.3,0,0.8,0.1,1.4,0.1c1.1,0.1,1.8,0.3,2.3,0.7s0.7,1,0.7,1.6c0,0.5-0.1,0.9-0.4,1.3c-0.2,0.4-0.6,0.8-1.1,1
			c-0.5,0.3-1.2,0.4-2,0.4c-0.7,0-1.3-0.1-1.9-0.3s-1-0.5-1.3-0.8s-0.5-0.9-0.5-1.4c0-0.3,0.1-0.6,0.2-1c0.2-0.3,0.5-0.7,0.9-1
			c-0.2-0.1-0.4-0.2-0.6-0.3s-0.3-0.2-0.5-0.4v-0.4l1.4-1.3c-0.6-0.5-0.9-1.2-0.9-2.1c0-0.5,0.1-1,0.4-1.4c0.2-0.4,0.6-0.8,1.1-1
			s1-0.4,1.7-0.4c0.5,0,0.9,0.1,1.2,0.2h2.9v1l-1.5,0.1c0.3,0.5,0.5,1,0.5,1.5s-0.1,1-0.4,1.4c-0.2,0.4-0.6,0.8-1.1,1
			C210.6,230.8,210,231,209.4,231z M207,234.5c0,0.5,0.2,0.9,0.7,1.2s1,0.4,1.7,0.4s1.2-0.1,1.6-0.4c0.4-0.3,0.6-0.7,0.6-1.1
			c0-0.3-0.1-0.6-0.4-0.9s-0.8-0.4-1.5-0.4c-0.6,0-1.1-0.1-1.5-0.2c-0.4,0.2-0.7,0.5-0.9,0.8C207.1,234,207,234.3,207,234.5z
			 M209.4,229.9c0.6,0,1-0.1,1.3-0.4s0.5-0.7,0.5-1.3c0-0.5-0.2-1-0.5-1.3s-0.8-0.4-1.3-0.4c-0.6,0-1,0.2-1.4,0.4
			c-0.3,0.3-0.5,0.7-0.5,1.3s0.2,1,0.5,1.3C208.3,229.7,208.8,229.9,209.4,229.9z"/>
		<path class="st1" d="M221.9,233.7c-0.7,0-1.2-0.1-1.6-0.3c-0.4-0.2-0.8-0.5-1-0.9s-0.3-0.8-0.3-1.2c0-0.8,0.3-1.4,0.9-1.9
			c0.6-0.4,1.5-0.7,2.5-0.7h2.1v-0.1c0-0.7-0.2-1.2-0.5-1.6c-0.4-0.4-0.9-0.5-1.5-0.5c-0.5,0-1,0.1-1.4,0.4s-0.6,0.6-0.7,1.1H219
			c0-0.6,0.2-1.1,0.6-1.5c0.3-0.4,0.8-0.7,1.3-0.9s1-0.3,1.6-0.3c1.1,0,1.9,0.3,2.5,0.9s0.8,1.4,0.8,2.4v4.9h-1.2l-0.1-1.4
			c-0.2,0.5-0.6,0.8-1,1.1C223.2,233.5,222.6,233.7,221.9,233.7z M222.1,232.5c0.5,0,0.9-0.1,1.3-0.4c0.4-0.3,0.7-0.6,0.8-1
			c0.2-0.4,0.3-0.9,0.3-1.3l0,0h-2c-0.8,0-1.4,0.1-1.7,0.4s-0.5,0.6-0.5,1s0.1,0.8,0.5,1C221.1,232.4,221.6,232.5,222.1,232.5z"/>
		<path class="st1" d="M231.6,233.7c-0.8,0-1.4-0.2-2-0.5s-1.1-0.8-1.4-1.5c-0.3-0.6-0.5-1.3-0.5-2.2c0-0.8,0.2-1.6,0.5-2.2
			c0.4-0.6,0.8-1.1,1.4-1.5c0.6-0.4,1.3-0.5,2-0.5c0.9,0,1.7,0.2,2.4,0.7c0.6,0.5,1,1.2,1.2,2h-1.4c-0.1-0.5-0.4-0.9-0.8-1.1
			c-0.4-0.3-0.9-0.4-1.5-0.4c-0.4,0-0.9,0.1-1.3,0.3s-0.7,0.6-1,1s-0.4,1-0.4,1.7s0.1,1.2,0.4,1.7s0.6,0.8,1,1s0.8,0.3,1.3,0.3
			c0.6,0,1-0.1,1.5-0.4c0.4-0.3,0.7-0.7,0.8-1.2h1.4c-0.2,0.8-0.6,1.5-1.2,2C233.3,233.4,232.5,233.7,231.6,233.7z"/>
		<path class="st1" d="M240,233.5c-0.7,0-1.3-0.2-1.7-0.5s-0.6-1-0.6-1.9v-4.4h-1.4v-1.1h1.4l0.2-1.9h1.2v1.9h2.3v1.1H239v4.4
			c0,0.5,0.1,0.8,0.3,1s0.6,0.3,1.1,0.3h0.8v1.2H240V233.5z"/>
		<path class="st1" d="M243.8,223.8c-0.3,0-0.5-0.1-0.7-0.3s-0.3-0.4-0.3-0.7s0.1-0.5,0.3-0.6c0.2-0.2,0.4-0.3,0.7-0.3
			s0.5,0.1,0.7,0.3s0.3,0.4,0.3,0.6c0,0.3-0.1,0.5-0.3,0.7S244.1,223.8,243.8,223.8z M243.2,233.5v-7.9h1.3v7.9H243.2z"/>
		<path class="st1" d="M249.1,233.5l-3-7.9h1.4l2.4,6.6l2.4-6.6h1.4l-3,7.9H249.1z"/>
		<path class="st1" d="M256,223.8c-0.3,0-0.5-0.1-0.7-0.3s-0.3-0.4-0.3-0.7s0.1-0.5,0.3-0.6c0.2-0.2,0.4-0.3,0.7-0.3
			c0.3,0,0.5,0.1,0.7,0.3s0.3,0.4,0.3,0.6c0,0.3-0.1,0.5-0.3,0.7C256.5,223.7,256.3,223.8,256,223.8z M255.3,233.5v-7.9h1.3v7.9
			H255.3z"/>
		<path class="st1" d="M262.1,233.5c-0.7,0-1.3-0.2-1.7-0.5c-0.4-0.3-0.6-1-0.6-1.9v-4.4h-1.4v-1.1h1.4l0.2-1.9h1.2v1.9h2.3v1.1
			h-2.3v4.4c0,0.5,0.1,0.8,0.3,1c0.2,0.2,0.6,0.3,1.1,0.3h0.8v1.2h-1.3V233.5z"/>
		<path class="st1" d="M266.1,237l2-4.3h-0.5l-3.1-7.2h1.5l2.6,6.2l2.8-6.2h1.4l-5.2,11.5H266.1z"/>
		<path class="st1" d="M276.8,237v-1.2h0.6c0.4,0,0.7-0.1,0.9-0.2c0.2-0.2,0.3-0.5,0.3-0.8v-9.2h1.3v9.2c0,0.8-0.2,1.3-0.6,1.7
			c-0.4,0.3-0.9,0.5-1.7,0.5H276.8z M279.2,223.8c-0.3,0-0.5-0.1-0.7-0.3s-0.3-0.4-0.3-0.7s0.1-0.5,0.3-0.6s0.4-0.3,0.7-0.3
			s0.5,0.1,0.6,0.3s0.3,0.4,0.3,0.6c0,0.3-0.1,0.5-0.3,0.7C279.7,223.7,279.5,223.8,279.2,223.8z"/>
		<path class="st1" d="M285.1,233.7c-0.9,0-1.7-0.3-2.2-0.9s-0.8-1.5-0.8-2.6v-4.6h1.3v4.5c0,1.6,0.7,2.5,2,2.5
			c0.7,0,1.3-0.2,1.7-0.7c0.5-0.5,0.7-1.2,0.7-2.1v-4.1h1.3v7.9h-1.2l-0.1-1.4c-0.2,0.5-0.6,0.9-1.1,1.2
			C286.3,233.5,285.7,233.7,285.1,233.7z"/>
		<path class="st1" d="M294.4,233.7c-0.9,0-1.7-0.2-2.4-0.7c-0.6-0.5-1-1.1-1.1-1.9h1.4c0.1,0.4,0.3,0.8,0.7,1.1
			c0.4,0.3,0.8,0.5,1.5,0.5c0.6,0,1-0.1,1.2-0.4c0.3-0.2,0.4-0.5,0.4-0.9c0-0.5-0.2-0.8-0.5-1s-0.8-0.3-1.5-0.4
			c-0.4-0.1-0.9-0.2-1.3-0.4s-0.8-0.4-1.1-0.7c-0.3-0.3-0.4-0.7-0.4-1.2c0-0.7,0.3-1.3,0.8-1.7s1.2-0.7,2.1-0.7
			c0.8,0,1.5,0.2,2.1,0.6c0.5,0.4,0.8,1,0.9,1.8h-1.3c0-0.4-0.2-0.7-0.5-1s-0.7-0.3-1.2-0.3s-0.9,0.1-1.1,0.3s-0.4,0.5-0.4,0.8
			s0.2,0.6,0.5,0.8s0.8,0.3,1.4,0.5c0.5,0.1,1,0.2,1.4,0.4s0.8,0.4,1.1,0.7s0.4,0.7,0.4,1.3c0,0.7-0.3,1.3-0.8,1.8
			C296.1,233.4,295.3,233.7,294.4,233.7z"/>
		<path class="st1" d="M302.1,233.5c-0.7,0-1.3-0.2-1.7-0.5c-0.4-0.3-0.6-1-0.6-1.9v-4.4h-1.4v-1.1h1.4l0.2-1.9h1.2v1.9h2.3v1.1
			h-2.3v4.4c0,0.5,0.1,0.8,0.3,1c0.2,0.2,0.6,0.3,1.1,0.3h0.8v1.2h-1.3V233.5z"/>
		<path class="st1" d="M39.5,255.7c-0.6,0-1.2-0.1-1.7-0.4s-0.9-0.6-1.2-1.1l-0.1,1.3h-1.2V244h1.3v4.9c0.3-0.4,0.6-0.7,1.1-1
			s1.1-0.5,1.8-0.5c0.8,0,1.5,0.2,2.1,0.5c0.6,0.4,1,0.9,1.4,1.5c0.3,0.6,0.5,1.3,0.5,2.1s-0.2,1.5-0.5,2.1s-0.8,1.1-1.4,1.5
			C40.9,255.5,40.3,255.7,39.5,255.7z M39.3,254.5c0.5,0,1-0.1,1.4-0.4s0.7-0.6,1-1.1c0.2-0.4,0.3-1,0.3-1.6s-0.1-1.1-0.3-1.6
			s-0.6-0.8-1-1.1c-0.4-0.2-0.9-0.4-1.4-0.4s-1,0.1-1.4,0.4c-0.4,0.2-0.7,0.6-1,1.1c-0.2,0.4-0.3,1-0.3,1.6s0.1,1.1,0.3,1.6
			s0.5,0.8,1,1.1C38.3,254.4,38.8,254.5,39.3,254.5z"/>
		<path class="st1" d="M48.8,255.7c-0.8,0-1.4-0.2-2-0.5s-1.1-0.8-1.4-1.5c-0.3-0.6-0.5-1.3-0.5-2.2c0-0.8,0.2-1.6,0.5-2.2
			s0.8-1.1,1.4-1.5s1.3-0.5,2.1-0.5s1.4,0.2,2,0.5s1,0.8,1.3,1.4s0.5,1.2,0.5,1.8c0,0.1,0,0.2,0,0.3s0,0.2,0,0.4h-6.3
			c0,0.6,0.2,1.1,0.4,1.5s0.6,0.7,0.9,0.9s0.8,0.3,1.2,0.3c0.6,0,1-0.1,1.4-0.4c0.4-0.2,0.7-0.6,0.8-1h1.3c-0.2,0.7-0.6,1.3-1.2,1.8
			C50.6,255.4,49.8,255.7,48.8,255.7z M48.8,248.5c-0.6,0-1.2,0.2-1.7,0.6s-0.8,1-0.9,1.7h5c0-0.7-0.3-1.3-0.7-1.7
			C50.1,248.7,49.5,248.5,48.8,248.5z"/>
		<path class="st1" d="M54.8,255.5v-6.8h-1.2v-1.1h1.2v-1.4c0-0.8,0.2-1.3,0.6-1.7s0.9-0.5,1.7-0.5h0.8v1.2h-0.6
			c-0.4,0-0.7,0.1-0.9,0.2s-0.3,0.5-0.3,0.8v1.3h2v1.1h-2v6.8L54.8,255.5L54.8,255.5z"/>
		<path class="st1" d="M63,255.7c-0.8,0-1.4-0.2-2-0.5s-1.1-0.8-1.4-1.5c-0.3-0.6-0.5-1.4-0.5-2.2s0.2-1.6,0.5-2.2s0.8-1.1,1.4-1.5
			c0.6-0.3,1.3-0.5,2-0.5s1.4,0.2,2,0.5s1.1,0.8,1.4,1.5c0.3,0.6,0.5,1.4,0.5,2.2s-0.2,1.6-0.5,2.2s-0.8,1.1-1.4,1.5
			S63.8,255.7,63,255.7z M63,254.5c0.5,0,0.9-0.1,1.3-0.3c0.4-0.2,0.7-0.6,1-1s0.4-1,0.4-1.7s-0.1-1.2-0.4-1.7c-0.2-0.5-0.6-0.8-1-1
			c-0.4-0.2-0.8-0.3-1.3-0.3s-0.9,0.1-1.3,0.3s-0.7,0.6-1,1s-0.4,1-0.4,1.7s0.1,1.2,0.4,1.7c0.2,0.5,0.6,0.8,1,1
			C62.2,254.4,62.6,254.5,63,254.5z"/>
		<path class="st1" d="M68.9,255.5v-7.9h1.2l0.1,1.5c0.2-0.5,0.6-0.9,1.1-1.2s1.1-0.5,1.9-0.5v1.4h-0.4c-0.5,0-0.9,0.1-1.3,0.2
			c-0.4,0.2-0.7,0.5-0.9,0.8c-0.2,0.4-0.3,0.9-0.3,1.6v4h-1.4L68.9,255.5L68.9,255.5z"/>
		<path class="st1" d="M77.9,255.7c-0.8,0-1.4-0.2-2-0.5s-1-0.8-1.4-1.5c-0.3-0.6-0.5-1.3-0.5-2.2c0-0.8,0.2-1.6,0.5-2.2
			s0.8-1.1,1.4-1.5s1.3-0.5,2.1-0.5c0.8,0,1.4,0.2,2,0.5s1,0.8,1.3,1.4s0.4,1.2,0.4,1.8c0,0.1,0,0.2,0,0.3s0,0.2,0,0.4h-6.3
			c0,0.6,0.2,1.1,0.4,1.5c0.2,0.4,0.6,0.7,0.9,0.9c0.4,0.2,0.8,0.3,1.2,0.3c0.5,0,1-0.1,1.4-0.4s0.7-0.6,0.8-1h1.3
			c-0.2,0.7-0.6,1.3-1.2,1.8C79.7,255.4,78.9,255.7,77.9,255.7z M77.9,248.5c-0.6,0-1.2,0.2-1.7,0.6s-0.8,1-0.9,1.7h5
			c0-0.7-0.3-1.3-0.7-1.7C79.2,248.7,78.6,248.5,77.9,248.5z"/>
		<path class="st1" d="M92,255.7c-0.7,0-1.2-0.1-1.7-0.4s-0.9-0.6-1.2-1.1l-0.1,1.3h-1.2V244h1.3v4.9c0.3-0.4,0.6-0.7,1.1-1
			s1.1-0.5,1.8-0.5c0.8,0,1.5,0.2,2.1,0.5c0.6,0.4,1,0.9,1.4,1.5s0.5,1.3,0.5,2.1s-0.2,1.5-0.5,2.1s-0.8,1.1-1.4,1.5
			C93.4,255.5,92.8,255.7,92,255.7z M91.8,254.5c0.5,0,1-0.1,1.4-0.4c0.4-0.2,0.7-0.6,1-1.1c0.2-0.4,0.3-1,0.3-1.6s-0.1-1.1-0.3-1.6
			c-0.2-0.5-0.6-0.8-1-1.1c-0.4-0.2-0.9-0.4-1.4-0.4s-1,0.1-1.4,0.4c-0.4,0.2-0.7,0.6-1,1.1c-0.2,0.4-0.4,1-0.4,1.6s0.1,1.1,0.4,1.6
			c0.2,0.5,0.5,0.8,1,1.1C90.8,254.4,91.3,254.5,91.8,254.5z"/>
		<path class="st1" d="M101.3,255.7c-0.8,0-1.4-0.2-2-0.5s-1-0.8-1.4-1.5c-0.3-0.6-0.5-1.3-0.5-2.2c0-0.8,0.2-1.6,0.5-2.2
			s0.8-1.1,1.4-1.5s1.3-0.5,2.1-0.5c0.8,0,1.4,0.2,2,0.5s1,0.8,1.3,1.4s0.4,1.2,0.4,1.8c0,0.1,0,0.2,0,0.3s0,0.2,0,0.4h-6.3
			c0,0.6,0.2,1.1,0.4,1.5c0.2,0.4,0.6,0.7,0.9,0.9c0.4,0.2,0.8,0.3,1.2,0.3c0.5,0,1-0.1,1.4-0.4s0.7-0.6,0.8-1h1.3
			c-0.2,0.7-0.6,1.3-1.2,1.8C103,255.4,102.3,255.7,101.3,255.7z M101.3,248.5c-0.6,0-1.2,0.2-1.7,0.6s-0.8,1-0.9,1.7h5
			c0-0.7-0.3-1.3-0.7-1.7C102.6,248.7,102,248.5,101.3,248.5z"/>
		<path class="st1" d="M110.5,255.7c-0.8,0-1.5-0.2-2.1-0.5c-0.6-0.4-1-0.9-1.4-1.5c-0.3-0.6-0.5-1.3-0.5-2.1s0.2-1.5,0.5-2.1
			s0.8-1.1,1.4-1.5s1.3-0.5,2.1-0.5c0.6,0,1.2,0.1,1.7,0.4s0.9,0.6,1.2,1.1v-4.9h1.3v11.5h-1.2l-0.1-1.3c-0.3,0.4-0.6,0.7-1.1,1
			S111.2,255.7,110.5,255.7z M110.6,254.5c0.5,0,1-0.1,1.4-0.4s0.7-0.6,1-1.1c0.2-0.4,0.3-1,0.3-1.6s-0.1-1.1-0.3-1.6
			s-0.6-0.8-1-1.1s-0.9-0.4-1.4-0.4s-1,0.1-1.4,0.4c-0.4,0.2-0.7,0.6-1,1.1c-0.2,0.4-0.3,1-0.3,1.6s0.1,1.1,0.3,1.6s0.6,0.8,1,1.1
			S110.1,254.5,110.6,254.5z"/>
		<path class="st1" d="M124.8,255.7c-0.8,0-1.4-0.2-2-0.5s-1.1-0.8-1.4-1.5c-0.3-0.6-0.5-1.3-0.5-2.2c0-0.8,0.2-1.6,0.5-2.2
			c0.4-0.6,0.8-1.1,1.4-1.5s1.3-0.5,2-0.5c0.9,0,1.7,0.2,2.4,0.7s1.1,1.2,1.2,2H127c-0.1-0.5-0.4-0.9-0.8-1.1
			c-0.4-0.3-0.9-0.4-1.5-0.4c-0.4,0-0.9,0.1-1.3,0.3s-0.7,0.6-1,1s-0.4,1-0.4,1.7s0.1,1.2,0.4,1.7s0.6,0.8,1,1s0.8,0.3,1.3,0.3
			c0.6,0,1-0.1,1.5-0.4c0.4-0.3,0.7-0.7,0.8-1.2h1.4c-0.2,0.8-0.6,1.5-1.2,2C126.5,255.4,125.7,255.7,124.8,255.7z"/>
		<path class="st1" d="M132.9,255.7c-0.7,0-1.2-0.1-1.7-0.3c-0.4-0.2-0.8-0.5-1-0.9s-0.3-0.8-0.3-1.2c0-0.8,0.3-1.4,0.9-1.9
			s1.5-0.7,2.5-0.7h2.1v-0.1c0-0.7-0.2-1.2-0.5-1.6c-0.4-0.4-0.9-0.5-1.5-0.5c-0.5,0-1,0.1-1.3,0.4c-0.4,0.3-0.6,0.6-0.7,1.1H130
			c0.1-0.6,0.2-1.1,0.6-1.5c0.3-0.4,0.8-0.7,1.3-0.9s1-0.3,1.6-0.3c1.1,0,1.9,0.3,2.5,0.9s0.8,1.4,0.8,2.4v4.9h-1.2l-0.1-1.4
			c-0.2,0.5-0.5,0.8-1,1.1C134.2,255.5,133.6,255.7,132.9,255.7z M133.1,254.5c0.5,0,1-0.1,1.3-0.4c0.4-0.3,0.6-0.6,0.8-1
			s0.3-0.9,0.3-1.3l0,0h-2c-0.8,0-1.3,0.1-1.7,0.4c-0.3,0.3-0.5,0.6-0.5,1s0.1,0.8,0.5,1C132.1,254.4,132.6,254.5,133.1,254.5z"/>
		<path class="st1" d="M138.9,255.5v-7.9h1.2l0.1,1.4c0.3-0.5,0.6-0.9,1.1-1.2s1-0.4,1.6-0.4c0.9,0,1.7,0.3,2.2,0.9
			c0.6,0.6,0.8,1.5,0.8,2.6v4.6h-1.3V251c0-1.7-0.7-2.5-2.1-2.5c-0.7,0-1.2,0.2-1.7,0.7s-0.7,1.2-0.7,2.1v4.1L138.9,255.5
			L138.9,255.5z"/>
		<path class="st1" d="M153.1,245.8c-0.3,0-0.5-0.1-0.7-0.3s-0.3-0.4-0.3-0.7s0.1-0.5,0.3-0.6c0.2-0.2,0.4-0.3,0.7-0.3
			s0.5,0.1,0.7,0.3s0.3,0.4,0.3,0.6c0,0.3-0.1,0.5-0.3,0.7S153.4,245.8,153.1,245.8z M152.5,255.5v-7.9h1.3v7.9H152.5z"/>
		<path class="st1" d="M156.1,255.5v-7.9h1.2l0.1,1.4c0.3-0.5,0.6-0.9,1.1-1.2s1-0.4,1.6-0.4c0.9,0,1.7,0.3,2.2,0.9
			c0.6,0.6,0.8,1.5,0.8,2.6v4.6h-1.3V251c0-1.7-0.7-2.5-2-2.5c-0.7,0-1.2,0.2-1.7,0.7c-0.4,0.5-0.7,1.2-0.7,2.1v4.1L156.1,255.5
			L156.1,255.5z"/>
		<path class="st1" d="M168.4,255.5c-0.7,0-1.3-0.2-1.7-0.5s-0.6-1-0.6-1.9v-4.4h-1.4v-1.1h1.4l0.2-1.9h1.2v1.9h2.3v1.1h-2.3v4.4
			c0,0.5,0.1,0.8,0.3,1s0.6,0.3,1.1,0.3h0.8v1.2h-1.3V255.5z"/>
		<path class="st1" d="M174.8,255.7c-0.8,0-1.4-0.2-2-0.5s-1.1-0.8-1.4-1.5c-0.3-0.6-0.5-1.3-0.5-2.2c0-0.8,0.2-1.6,0.5-2.2
			s0.8-1.1,1.4-1.5c0.6-0.4,1.3-0.5,2.1-0.5s1.4,0.2,2,0.5s1,0.8,1.3,1.4s0.5,1.2,0.5,1.8c0,0.1,0,0.2,0,0.3s0,0.2,0,0.4h-6.3
			c0,0.6,0.2,1.1,0.4,1.5s0.6,0.7,0.9,0.9c0.4,0.2,0.8,0.3,1.2,0.3c0.6,0,1-0.1,1.4-0.4s0.6-0.6,0.8-1h1.3c-0.2,0.7-0.6,1.3-1.2,1.8
			C176.5,255.4,175.8,255.7,174.8,255.7z M174.8,248.5c-0.6,0-1.2,0.2-1.7,0.6s-0.8,1-0.9,1.7h5c0-0.7-0.3-1.3-0.7-1.7
			C176.1,248.7,175.5,248.5,174.8,248.5z"/>
		<path class="st1" d="M180.4,255.5v-7.9h1.2l0.1,1.5c0.2-0.5,0.6-0.9,1.1-1.2s1.1-0.5,1.9-0.5v1.4h-0.4c-0.5,0-0.9,0.1-1.3,0.2
			c-0.4,0.2-0.7,0.5-0.9,0.8c-0.2,0.4-0.4,0.9-0.4,1.6v4h-1.3L180.4,255.5L180.4,255.5z"/>
		<path class="st1" d="M186.6,255.5v-6.8h-1.2v-1.1h1.2v-1.4c0-0.8,0.2-1.3,0.6-1.7c0.4-0.4,0.9-0.5,1.7-0.5h0.8v1.2h-0.6
			c-0.4,0-0.7,0.1-0.9,0.2s-0.3,0.5-0.3,0.8v1.3h1.9v1.1H188v6.8L186.6,255.5L186.6,255.5z"/>
		<path class="st1" d="M194.8,255.7c-0.8,0-1.4-0.2-2-0.5s-1.1-0.8-1.4-1.5c-0.3-0.6-0.5-1.3-0.5-2.2c0-0.8,0.2-1.6,0.5-2.2
			s0.8-1.1,1.4-1.5c0.6-0.4,1.3-0.5,2.1-0.5s1.4,0.2,2,0.5s1,0.8,1.3,1.4s0.4,1.2,0.4,1.8c0,0.1,0,0.2,0,0.3s0,0.2,0,0.4h-6.3
			c0,0.6,0.2,1.1,0.4,1.5s0.6,0.7,0.9,0.9c0.4,0.2,0.8,0.3,1.2,0.3c0.6,0,1-0.1,1.4-0.4s0.6-0.6,0.8-1h1.3c-0.2,0.7-0.6,1.3-1.2,1.8
			C196.5,255.4,195.7,255.7,194.8,255.7z M194.8,248.5c-0.6,0-1.2,0.2-1.7,0.6s-0.8,1-0.9,1.7h5c0-0.7-0.3-1.3-0.7-1.7
			C196,248.7,195.4,248.5,194.8,248.5z"/>
		<path class="st1" d="M200.3,255.5v-7.9h1.2l0.1,1.5c0.2-0.5,0.6-0.9,1.1-1.2s1.1-0.5,1.9-0.5v1.4h-0.4c-0.5,0-0.9,0.1-1.3,0.2
			c-0.4,0.2-0.7,0.5-0.9,0.8c-0.2,0.4-0.4,0.9-0.4,1.6v4h-1.3L200.3,255.5L200.3,255.5z"/>
		<path class="st1" d="M209.4,255.7c-0.8,0-1.4-0.2-2-0.5s-1.1-0.8-1.4-1.5c-0.3-0.6-0.5-1.3-0.5-2.2c0-0.8,0.2-1.6,0.5-2.2
			s0.8-1.1,1.4-1.5c0.6-0.4,1.3-0.5,2.1-0.5s1.4,0.2,2,0.5s1,0.8,1.3,1.4s0.5,1.2,0.5,1.8c0,0.1,0,0.2,0,0.3s0,0.2,0,0.4H207
			c0,0.6,0.2,1.1,0.4,1.5s0.6,0.7,0.9,0.9c0.4,0.2,0.8,0.3,1.2,0.3c0.6,0,1-0.1,1.4-0.4s0.6-0.6,0.8-1h1.3c-0.2,0.7-0.6,1.3-1.2,1.8
			C211.1,255.4,210.3,255.7,209.4,255.7z M209.4,248.5c-0.6,0-1.2,0.2-1.7,0.6s-0.8,1-0.9,1.7h5c0-0.7-0.3-1.3-0.7-1.7
			C210.6,248.7,210,248.5,209.4,248.5z"/>
		<path class="st1" d="M220.7,255.5l-2.3-7.9h1.3l1.7,6.2l1.9-6.2h1.5l1.9,6.2l1.7-6.2h1.4l-2.3,7.9H226l-1.9-6.5l-1.9,6.5H220.7z"
			/>
		<path class="st1" d="M232,245.8c-0.3,0-0.5-0.1-0.7-0.3s-0.3-0.4-0.3-0.7s0.1-0.5,0.3-0.6c0.2-0.2,0.4-0.3,0.7-0.3
			s0.5,0.1,0.7,0.3s0.3,0.4,0.3,0.6c0,0.3-0.1,0.5-0.3,0.7S232.3,245.8,232,245.8z M231.4,255.5v-7.9h1.3v7.9H231.4z"/>
		<path class="st1" d="M238.2,255.5c-0.7,0-1.3-0.2-1.7-0.5s-0.6-1-0.6-1.9v-4.4h-1.4v-1.1h1.4l0.2-1.9h1.2v1.9h2.3v1.1h-2.3v4.4
			c0,0.5,0.1,0.8,0.3,1s0.6,0.3,1.1,0.3h0.8v1.2h-1.3V255.5z"/>
		<path class="st1" d="M241.2,255.5V244h1.3v4.9c0.3-0.5,0.6-0.9,1.1-1.1c0.5-0.3,1-0.4,1.6-0.4c0.9,0,1.7,0.3,2.2,0.9
			s0.8,1.5,0.8,2.6v4.6H247V251c0-1.7-0.7-2.5-2-2.5c-0.7,0-1.3,0.2-1.7,0.7c-0.5,0.5-0.7,1.2-0.7,2.1v4.1L241.2,255.5L241.2,255.5z
			"/>
		<path class="st1" d="M257.6,255.7c-0.9,0-1.7-0.2-2.4-0.7c-0.6-0.5-1-1.1-1.1-1.9h1.4c0.1,0.4,0.3,0.8,0.7,1.1
			c0.4,0.3,0.8,0.5,1.5,0.5c0.6,0,1-0.1,1.2-0.4c0.3-0.2,0.4-0.5,0.4-0.9c0-0.5-0.2-0.8-0.5-1s-0.8-0.3-1.5-0.4
			c-0.4-0.1-0.9-0.2-1.3-0.4s-0.8-0.4-1.1-0.7c-0.3-0.3-0.4-0.7-0.4-1.2c0-0.7,0.3-1.3,0.8-1.7s1.2-0.7,2.1-0.7
			c0.8,0,1.5,0.2,2.1,0.6c0.5,0.4,0.8,1,0.9,1.8h-1.3c0-0.4-0.2-0.7-0.5-1s-0.7-0.3-1.2-0.3s-0.9,0.1-1.1,0.3s-0.4,0.5-0.4,0.8
			s0.2,0.6,0.5,0.8s0.8,0.3,1.4,0.5c0.5,0.1,1,0.2,1.4,0.4s0.8,0.4,1.1,0.7c0.3,0.3,0.4,0.7,0.4,1.3c0,0.7-0.3,1.3-0.8,1.8
			C259.3,255.4,258.6,255.7,257.6,255.7z"/>
		<path class="st1" d="M262.6,255.5V244h1.3v11.5H262.6z"/>
		<path class="st1" d="M269.7,255.7c-0.8,0-1.4-0.2-2-0.5s-1-0.8-1.4-1.5c-0.3-0.6-0.5-1.3-0.5-2.2c0-0.8,0.2-1.6,0.5-2.2
			s0.8-1.1,1.4-1.5s1.3-0.5,2.1-0.5c0.8,0,1.4,0.2,2,0.5s1,0.8,1.3,1.4s0.5,1.2,0.5,1.8c0,0.1,0,0.2,0,0.3s0,0.2,0,0.4h-6.3
			c0,0.6,0.2,1.1,0.4,1.5c0.2,0.4,0.6,0.7,0.9,0.9c0.4,0.2,0.8,0.3,1.2,0.3c0.5,0,1-0.1,1.4-0.4s0.6-0.6,0.8-1h1.3
			c-0.2,0.7-0.6,1.3-1.2,1.8C271.4,255.4,270.7,255.7,269.7,255.7z M269.7,248.5c-0.6,0-1.2,0.2-1.7,0.6s-0.8,1-0.9,1.7h5
			c0-0.7-0.3-1.3-0.7-1.7C271,248.7,270.4,248.5,269.7,248.5z"/>
		<path class="st1" d="M278.8,255.7c-0.8,0-1.4-0.2-2-0.5s-1-0.8-1.4-1.5c-0.3-0.6-0.5-1.3-0.5-2.2c0-0.8,0.2-1.6,0.5-2.2
			s0.8-1.1,1.4-1.5s1.3-0.5,2.1-0.5c0.8,0,1.4,0.2,2,0.5s1,0.8,1.3,1.4s0.5,1.2,0.5,1.8c0,0.1,0,0.2,0,0.3s0,0.2,0,0.4h-6.3
			c0,0.6,0.2,1.1,0.4,1.5c0.2,0.4,0.6,0.7,0.9,0.9s0.8,0.3,1.2,0.3c0.6,0,1-0.1,1.4-0.4s0.6-0.6,0.8-1h1.3c-0.2,0.7-0.6,1.3-1.2,1.8
			C280.5,255.4,279.8,255.7,278.8,255.7z M278.8,248.5c-0.6,0-1.2,0.2-1.7,0.6s-0.8,1-0.9,1.7h5c0-0.7-0.3-1.3-0.7-1.7
			C280.1,248.7,279.5,248.5,278.8,248.5z"/>
		<path class="st1" d="M284.4,259v-11.5h1.2l0.1,1.3c0.3-0.4,0.6-0.7,1.1-1s1.1-0.5,1.8-0.5c0.8,0,1.5,0.2,2.1,0.5
			c0.6,0.4,1,0.9,1.4,1.5c0.3,0.6,0.5,1.3,0.5,2.1s-0.2,1.5-0.5,2.1s-0.8,1.1-1.4,1.5s-1.3,0.5-2.1,0.5c-0.6,0-1.2-0.1-1.7-0.4
			s-0.9-0.6-1.2-1.1v4.9h-1.3V259z M288.5,254.5c0.5,0,1-0.1,1.4-0.4s0.7-0.6,1-1.1c0.2-0.4,0.4-1,0.4-1.6s-0.1-1.1-0.4-1.6
			c-0.2-0.5-0.5-0.8-1-1.1s-0.9-0.4-1.4-0.4s-1,0.1-1.4,0.4c-0.4,0.2-0.7,0.6-1,1.1c-0.2,0.4-0.4,1-0.4,1.6s0.1,1.1,0.4,1.6
			c0.2,0.5,0.6,0.8,1,1.1S287.9,254.5,288.5,254.5z"/>
		<path class="st1" d="M39.5,277.7c-0.6,0-1.2-0.1-1.7-0.4s-0.9-0.6-1.2-1.1l-0.1,1.3h-1.2V266h1.3v4.9c0.3-0.4,0.6-0.7,1.1-1
			s1.1-0.5,1.8-0.5c0.8,0,1.5,0.2,2.1,0.5c0.6,0.4,1,0.9,1.4,1.5c0.3,0.6,0.5,1.3,0.5,2.1s-0.2,1.5-0.5,2.1s-0.8,1.1-1.4,1.5
			C40.9,277.5,40.3,277.7,39.5,277.7z M39.3,276.5c0.5,0,1-0.1,1.4-0.4s0.7-0.6,1-1.1c0.2-0.4,0.3-1,0.3-1.6s-0.1-1.1-0.3-1.6
			s-0.6-0.8-1-1.1c-0.4-0.2-0.9-0.4-1.4-0.4s-1,0.1-1.4,0.4c-0.4,0.2-0.7,0.6-1,1.1c-0.2,0.4-0.3,1-0.3,1.6s0.1,1.1,0.3,1.6
			s0.5,0.8,1,1.1C38.3,276.4,38.8,276.5,39.3,276.5z"/>
		<path class="st1" d="M48.8,277.7c-0.8,0-1.4-0.2-2-0.5s-1.1-0.8-1.4-1.5c-0.3-0.6-0.5-1.3-0.5-2.2c0-0.8,0.2-1.6,0.5-2.2
			s0.8-1.1,1.4-1.5s1.3-0.5,2.1-0.5s1.4,0.2,2,0.5s1,0.8,1.3,1.4s0.5,1.2,0.5,1.8c0,0.1,0,0.2,0,0.3s0,0.2,0,0.4h-6.3
			c0,0.6,0.2,1.1,0.4,1.5s0.6,0.7,0.9,0.9s0.8,0.3,1.2,0.3c0.6,0,1-0.1,1.4-0.4c0.4-0.2,0.7-0.6,0.8-1h1.3c-0.2,0.7-0.6,1.3-1.2,1.8
			C50.6,277.4,49.8,277.7,48.8,277.7z M48.8,270.5c-0.6,0-1.2,0.2-1.7,0.6s-0.8,1-0.9,1.7h5c0-0.7-0.3-1.3-0.7-1.7
			C50.1,270.7,49.5,270.5,48.8,270.5z"/>
		<path class="st1" d="M58,277.7c-0.8,0-1.4-0.2-2-0.5s-1.1-0.8-1.4-1.5c-0.3-0.6-0.5-1.3-0.5-2.2c0-0.8,0.2-1.6,0.5-2.2
			s0.8-1.1,1.4-1.5s1.3-0.5,2-0.5c0.9,0,1.7,0.2,2.4,0.7s1.1,1.2,1.2,2h-1.4c-0.1-0.5-0.4-0.9-0.8-1.1c-0.4-0.3-0.9-0.4-1.5-0.4
			c-0.4,0-0.9,0.1-1.3,0.3s-0.7,0.6-1,1s-0.4,1-0.4,1.7s0.1,1.2,0.4,1.7s0.6,0.8,1,1s0.8,0.3,1.3,0.3c0.6,0,1-0.1,1.5-0.4
			c0.4-0.3,0.7-0.7,0.8-1.2h1.4c-0.2,0.8-0.6,1.5-1.2,2S59,277.7,58,277.7z"/>
		<path class="st1" d="M66.2,277.7c-0.7,0-1.2-0.1-1.7-0.3c-0.4-0.2-0.8-0.5-1-0.9s-0.3-0.8-0.3-1.2c0-0.8,0.3-1.4,0.9-1.9
			c0.6-0.4,1.5-0.7,2.5-0.7h2.1v-0.1c0-0.7-0.2-1.2-0.5-1.6c-0.4-0.4-0.8-0.5-1.5-0.5c-0.5,0-1,0.1-1.4,0.4s-0.6,0.6-0.7,1.1h-1.4
			c0.1-0.6,0.2-1.1,0.6-1.5c0.3-0.4,0.8-0.7,1.3-0.9s1-0.3,1.6-0.3c1.1,0,1.9,0.3,2.5,0.9s0.8,1.4,0.8,2.4v4.9h-1.2l-0.1-1.4
			c-0.2,0.5-0.6,0.8-1,1.1S66.9,277.7,66.2,277.7z M66.4,276.5c0.5,0,0.9-0.1,1.3-0.4s0.7-0.6,0.8-1c0.2-0.4,0.3-0.9,0.3-1.3l0,0h-2
			c-0.8,0-1.3,0.1-1.7,0.4c-0.3,0.3-0.5,0.6-0.5,1s0.1,0.8,0.5,1C65.4,276.4,65.8,276.5,66.4,276.5z"/>
		<path class="st1" d="M75.1,277.7c-0.9,0-1.7-0.3-2.2-0.9c-0.6-0.6-0.8-1.5-0.8-2.6v-4.6h1.3v4.5c0,1.6,0.7,2.5,2,2.5
			c0.7,0,1.3-0.2,1.7-0.7c0.4-0.5,0.7-1.2,0.7-2.1v-4.1h1.3v7.9h-1.2l-0.1-1.4c-0.2,0.5-0.6,0.9-1.1,1.2
			C76.2,277.5,75.7,277.7,75.1,277.7z"/>
		<path class="st1" d="M84.4,277.7c-0.9,0-1.7-0.2-2.4-0.7c-0.6-0.5-1-1.1-1.1-1.9h1.4c0.1,0.4,0.3,0.8,0.7,1.1
			c0.4,0.3,0.8,0.5,1.4,0.5s1-0.1,1.2-0.4c0.3-0.2,0.4-0.5,0.4-0.9c0-0.5-0.2-0.8-0.5-1s-0.8-0.3-1.5-0.4c-0.4-0.1-0.9-0.2-1.3-0.4
			s-0.8-0.4-1.1-0.7c-0.3-0.3-0.4-0.7-0.4-1.2c0-0.7,0.3-1.3,0.8-1.7s1.2-0.7,2.1-0.7c0.8,0,1.5,0.2,2.1,0.6c0.5,0.4,0.8,1,0.9,1.8
			h-1.3c-0.1-0.4-0.2-0.7-0.5-1s-0.7-0.3-1.2-0.3s-0.8,0.1-1.1,0.3c-0.3,0.2-0.4,0.5-0.4,0.8s0.2,0.6,0.5,0.8s0.8,0.3,1.4,0.5
			c0.5,0.1,1,0.2,1.4,0.4s0.8,0.4,1.1,0.7c0.3,0.3,0.4,0.7,0.4,1.3c0,0.7-0.3,1.3-0.8,1.8C86,277.4,85.3,277.7,84.4,277.7z"/>
		<path class="st1" d="M92.9,277.7c-0.8,0-1.4-0.2-2-0.5s-1.1-0.8-1.4-1.5c-0.3-0.6-0.5-1.3-0.5-2.2c0-0.8,0.2-1.6,0.5-2.2
			s0.8-1.1,1.4-1.5s1.3-0.5,2.1-0.5c0.8,0,1.4,0.2,2,0.5s1,0.8,1.3,1.4s0.5,1.2,0.5,1.8c0,0.1,0,0.2,0,0.3s0,0.2,0,0.4h-6.3
			c0,0.6,0.2,1.1,0.4,1.5c0.2,0.4,0.6,0.7,0.9,0.9c0.4,0.2,0.8,0.3,1.2,0.3c0.6,0,1-0.1,1.4-0.4c0.4-0.2,0.7-0.6,0.8-1h1.3
			c-0.2,0.7-0.6,1.3-1.2,1.8C94.6,277.4,93.8,277.7,92.9,277.7z M92.9,270.5c-0.6,0-1.2,0.2-1.7,0.6s-0.8,1-0.9,1.7h5
			c0-0.7-0.3-1.3-0.7-1.7C94.1,270.7,93.6,270.5,92.9,270.5z"/>
		<path class="st1" d="M105.8,277.5c-0.7,0-1.3-0.2-1.7-0.5c-0.4-0.3-0.6-1-0.6-1.9v-4.4h-1.4v-1.1h1.4l0.2-1.9h1.2v1.9h2.3v1.1
			h-2.3v4.4c0,0.5,0.1,0.8,0.3,1c0.2,0.2,0.6,0.3,1.1,0.3h0.8v1.2h-1.3V277.5z"/>
		<path class="st1" d="M108.9,277.5V266h1.3v4.9c0.3-0.5,0.6-0.9,1.1-1.1c0.5-0.3,1-0.4,1.6-0.4c0.9,0,1.7,0.3,2.2,0.9
			c0.6,0.6,0.8,1.5,0.8,2.6v4.6h-1.3V273c0-1.7-0.7-2.5-2-2.5c-0.7,0-1.3,0.2-1.7,0.7c-0.5,0.5-0.7,1.2-0.7,2.1v4.1L108.9,277.5
			L108.9,277.5z"/>
		<path class="st1" d="M121.6,277.7c-0.8,0-1.4-0.2-2-0.5s-1.1-0.8-1.4-1.5c-0.3-0.6-0.5-1.3-0.5-2.2c0-0.8,0.2-1.6,0.5-2.2
			s0.8-1.1,1.4-1.5s1.3-0.5,2.1-0.5s1.4,0.2,2,0.5s1,0.8,1.3,1.4s0.4,1.2,0.4,1.8c0,0.1,0,0.2,0,0.3s0,0.2,0,0.4H119
			c0,0.6,0.2,1.1,0.4,1.5s0.6,0.7,0.9,0.9s0.8,0.3,1.2,0.3c0.5,0,1-0.1,1.4-0.4c0.4-0.2,0.6-0.6,0.8-1h1.3c-0.2,0.7-0.6,1.3-1.2,1.8
			C123.3,277.4,122.5,277.7,121.6,277.7z M121.6,270.5c-0.6,0-1.2,0.2-1.7,0.6s-0.8,1-0.9,1.7h5c0-0.7-0.3-1.3-0.7-1.7
			C122.8,270.7,122.2,270.5,121.6,270.5z"/>
		<path class="st1" d="M135.6,277.7c-0.6,0-1.2-0.1-1.7-0.4s-0.9-0.6-1.2-1.1l-0.1,1.3h-1.2V266h1.3v4.9c0.3-0.4,0.6-0.7,1.1-1
			s1.1-0.5,1.8-0.5c0.8,0,1.5,0.2,2.1,0.5c0.6,0.4,1,0.9,1.4,1.5s0.5,1.3,0.5,2.1s-0.2,1.5-0.5,2.1s-0.8,1.1-1.4,1.5
			C137.1,277.5,136.4,277.7,135.6,277.7z M135.4,276.5c0.5,0,1-0.1,1.4-0.4c0.4-0.2,0.7-0.6,1-1.1c0.2-0.4,0.4-1,0.4-1.6
			s-0.1-1.1-0.4-1.6c-0.2-0.5-0.6-0.8-1-1.1c-0.4-0.2-0.9-0.4-1.4-0.4s-1,0.1-1.4,0.4s-0.7,0.6-1,1.1c-0.2,0.4-0.4,1-0.4,1.6
			s0.1,1.1,0.4,1.6c0.2,0.5,0.5,0.8,1,1.1C134.4,276.4,134.9,276.5,135.4,276.5z"/>
		<path class="st1" d="M141.4,277.5v-7.9h1.2l0.1,1.5c0.2-0.5,0.6-0.9,1.1-1.2s1.1-0.5,1.9-0.5v1.4h-0.4c-0.5,0-0.9,0.1-1.3,0.2
			c-0.4,0.2-0.7,0.5-0.9,0.8c-0.2,0.4-0.3,0.9-0.3,1.6v4h-1.4L141.4,277.5L141.4,277.5z"/>
		<path class="st1" d="M149.8,277.7c-0.7,0-1.2-0.1-1.6-0.3c-0.4-0.2-0.8-0.5-1-0.9s-0.3-0.8-0.3-1.2c0-0.8,0.3-1.4,0.9-1.9
			c0.6-0.4,1.5-0.7,2.5-0.7h2.1v-0.1c0-0.7-0.2-1.2-0.5-1.6c-0.4-0.4-0.8-0.5-1.5-0.5c-0.5,0-1,0.1-1.4,0.4s-0.6,0.6-0.7,1.1h-1.4
			c0.1-0.6,0.2-1.1,0.6-1.5c0.3-0.4,0.8-0.7,1.3-0.9s1-0.3,1.6-0.3c1.1,0,1.9,0.3,2.5,0.9s0.8,1.4,0.8,2.4v4.9h-1.2l-0.1-1.4
			c-0.2,0.5-0.6,0.8-1,1.1C151.1,277.5,150.6,277.7,149.8,277.7z M150.1,276.5c0.5,0,0.9-0.1,1.3-0.4c0.4-0.3,0.7-0.6,0.8-1
			c0.2-0.4,0.3-0.9,0.3-1.3l0,0h-2c-0.8,0-1.4,0.1-1.7,0.4s-0.5,0.6-0.5,1s0.2,0.8,0.5,1C149.1,276.4,149.5,276.5,150.1,276.5z"/>
		<path class="st1" d="M156.7,267.8c-0.3,0-0.5-0.1-0.7-0.3s-0.3-0.4-0.3-0.7s0.1-0.5,0.3-0.6s0.4-0.3,0.7-0.3s0.5,0.1,0.7,0.3
			s0.3,0.4,0.3,0.6c0,0.3-0.1,0.5-0.3,0.7C157.1,267.7,156.9,267.8,156.7,267.8z M156,277.5v-7.9h1.3v7.9H156z"/>
		<path class="st1" d="M159.7,277.5v-7.9h1.2l0.1,1.4c0.3-0.5,0.6-0.9,1.1-1.2s1-0.4,1.6-0.4c0.9,0,1.7,0.3,2.2,0.9
			c0.6,0.6,0.8,1.5,0.8,2.6v4.6h-1.3V273c0-1.7-0.7-2.5-2.1-2.5c-0.7,0-1.2,0.2-1.7,0.7s-0.7,1.2-0.7,2.1v4.1L159.7,277.5
			L159.7,277.5z"/>
		<path class="st1" d="M173.9,267.8c-0.3,0-0.5-0.1-0.7-0.3s-0.3-0.4-0.3-0.7s0.1-0.5,0.3-0.6s0.4-0.3,0.7-0.3s0.5,0.1,0.7,0.3
			s0.3,0.4,0.3,0.6c0,0.3-0.1,0.5-0.3,0.7S174.1,267.8,173.9,267.8z M173.2,277.5v-7.9h1.3v7.9H173.2z"/>
		<path class="st1" d="M179.9,277.7c-0.9,0-1.7-0.2-2.4-0.7c-0.6-0.5-1-1.1-1.1-1.9h1.4c0.1,0.4,0.3,0.8,0.7,1.1s0.8,0.5,1.5,0.5
			c0.6,0,1-0.1,1.2-0.4c0.3-0.2,0.4-0.5,0.4-0.9c0-0.5-0.2-0.8-0.5-1s-0.8-0.3-1.5-0.4c-0.4-0.1-0.9-0.2-1.3-0.4
			c-0.4-0.2-0.8-0.4-1.1-0.7s-0.4-0.7-0.4-1.2c0-0.7,0.3-1.3,0.8-1.7s1.2-0.7,2.1-0.7c0.8,0,1.5,0.2,2.1,0.6c0.5,0.4,0.8,1,0.9,1.8
			h-1.3c-0.1-0.4-0.2-0.7-0.5-1s-0.7-0.3-1.2-0.3s-0.9,0.1-1.1,0.3c-0.3,0.2-0.4,0.5-0.4,0.8s0.2,0.6,0.5,0.8s0.8,0.3,1.4,0.5
			c0.5,0.1,1,0.2,1.4,0.4s0.8,0.4,1.1,0.7s0.4,0.7,0.4,1.3c0,0.7-0.3,1.3-0.8,1.8C181.6,277.4,180.9,277.7,179.9,277.7z"/>
		<path class="st1" d="M192.2,277.7c-0.9,0-1.7-0.2-2.4-0.7c-0.6-0.5-1-1.1-1.1-1.9h1.4c0.1,0.4,0.3,0.8,0.7,1.1s0.8,0.5,1.4,0.5
			c0.6,0,1-0.1,1.2-0.4c0.3-0.2,0.4-0.5,0.4-0.9c0-0.5-0.2-0.8-0.5-1c-0.4-0.2-0.8-0.3-1.5-0.4c-0.4-0.1-0.8-0.2-1.3-0.4
			c-0.4-0.2-0.8-0.4-1.1-0.7s-0.4-0.7-0.4-1.2c0-0.7,0.3-1.3,0.8-1.7s1.2-0.7,2.1-0.7c0.8,0,1.5,0.2,2.1,0.6c0.5,0.4,0.9,1,0.9,1.8
			h-1.3c0-0.4-0.2-0.7-0.5-1c-0.3-0.2-0.7-0.3-1.2-0.3s-0.8,0.1-1.1,0.3s-0.4,0.5-0.4,0.8s0.2,0.6,0.5,0.8s0.8,0.3,1.4,0.5
			c0.5,0.1,1,0.2,1.4,0.4s0.8,0.4,1.1,0.7s0.4,0.7,0.4,1.3c0,0.7-0.3,1.3-0.8,1.8C193.9,277.4,193.1,277.7,192.2,277.7z"/>
		<path class="st1" d="M197.9,267.8c-0.3,0-0.5-0.1-0.7-0.3s-0.3-0.4-0.3-0.7s0.1-0.5,0.3-0.6c0.2-0.2,0.4-0.3,0.7-0.3
			s0.5,0.1,0.7,0.3s0.3,0.4,0.3,0.6c0,0.3-0.1,0.5-0.3,0.7S198.2,267.8,197.9,267.8z M197.3,277.5v-7.9h1.3v7.9H197.3z"/>
		<path class="st1" d="M201,277.5v-7.9h1.2l0.1,1.1c0.3-0.4,0.6-0.8,1-1s0.9-0.3,1.4-0.3c0.6,0,1.2,0.1,1.6,0.4s0.8,0.6,1.1,1.2
			c0.3-0.5,0.7-0.9,1.1-1.1c0.5-0.3,1-0.4,1.6-0.4c0.9,0,1.7,0.3,2.3,0.9s0.9,1.5,0.9,2.6v4.6H212v-4.5c0-0.8-0.2-1.4-0.5-1.9
			c-0.3-0.4-0.8-0.6-1.4-0.6c-0.6,0-1.2,0.2-1.6,0.7c-0.4,0.5-0.6,1.2-0.6,2.1v4.1h-1.3V273c0-0.8-0.2-1.4-0.5-1.9s-0.8-0.6-1.4-0.6
			c-0.6,0-1.2,0.2-1.6,0.7c-0.4,0.5-0.6,1.2-0.6,2.1v4.1L201,277.5L201,277.5z"/>
		<path class="st1" d="M215.3,281v-11.5h1.2l0.1,1.3c0.3-0.4,0.6-0.7,1.1-1s1.1-0.5,1.8-0.5c0.8,0,1.5,0.2,2.1,0.5
			c0.6,0.4,1,0.9,1.4,1.5c0.3,0.6,0.5,1.3,0.5,2.1s-0.2,1.5-0.5,2.1s-0.8,1.1-1.4,1.5c-0.6,0.4-1.3,0.5-2.1,0.5
			c-0.6,0-1.2-0.1-1.7-0.4s-0.9-0.6-1.2-1.1v4.9h-1.3L215.3,281L215.3,281z M219.4,276.5c0.5,0,1-0.1,1.4-0.4c0.4-0.2,0.7-0.6,1-1.1
			c0.2-0.4,0.4-1,0.4-1.6s-0.1-1.1-0.4-1.6c-0.2-0.5-0.6-0.8-1-1.1c-0.4-0.2-0.9-0.4-1.4-0.4s-1,0.1-1.4,0.4s-0.7,0.6-1,1.1
			c-0.2,0.4-0.3,1-0.3,1.6s0.1,1.1,0.3,1.6s0.6,0.8,1,1.1S218.8,276.5,219.4,276.5z"/>
		<path class="st1" d="M225.3,277.5V266h1.3v11.5H225.3z"/>
		<path class="st1" d="M229.8,281l2-4.3h-0.5l-3.1-7.2h1.5l2.6,6.2l2.8-6.2h1.4l-5.2,11.5H229.8z"/>
		<path class="st1" d="M245.1,277.5c-0.7,0-1.3-0.2-1.7-0.5s-0.6-1-0.6-1.9v-4.4h-1.4v-1.1h1.4l0.2-1.9h1.2v1.9h2.3v1.1h-2.3v4.4
			c0,0.5,0.1,0.8,0.3,1s0.6,0.3,1.1,0.3h0.8v1.2h-1.3V277.5z"/>
		<path class="st1" d="M251.6,277.7c-0.8,0-1.4-0.2-2-0.5s-1.1-0.8-1.4-1.5s-0.5-1.4-0.5-2.2s0.2-1.6,0.5-2.2s0.8-1.1,1.4-1.5
			c0.6-0.3,1.3-0.5,2-0.5s1.4,0.2,2,0.5s1.1,0.8,1.4,1.5c0.4,0.6,0.5,1.4,0.5,2.2s-0.2,1.6-0.5,2.2s-0.8,1.1-1.4,1.5
			S252.4,277.7,251.6,277.7z M251.6,276.5c0.5,0,0.9-0.1,1.3-0.3s0.7-0.6,1-1s0.4-1,0.4-1.7s-0.1-1.2-0.4-1.7c-0.2-0.5-0.6-0.8-1-1
			s-0.8-0.3-1.3-0.3s-0.9,0.1-1.3,0.3s-0.7,0.6-1,1s-0.4,1-0.4,1.7s0.1,1.2,0.4,1.7c0.2,0.5,0.6,0.8,1,1S251.1,276.5,251.6,276.5z"
			/>
		<path class="st1" d="M261.1,277.7c-0.8,0-1.4-0.2-2-0.5s-1.1-0.8-1.4-1.5s-0.5-1.4-0.5-2.2s0.2-1.6,0.5-2.2s0.8-1.1,1.4-1.5
			c0.6-0.3,1.3-0.5,2-0.5c0.8,0,1.4,0.2,2,0.5s1.1,0.8,1.4,1.5c0.4,0.6,0.5,1.4,0.5,2.2s-0.2,1.6-0.5,2.2s-0.8,1.1-1.4,1.5
			S261.8,277.7,261.1,277.7z M261.1,276.5c0.5,0,0.9-0.1,1.3-0.3s0.7-0.6,1-1s0.4-1,0.4-1.7s-0.1-1.2-0.4-1.7c-0.2-0.4-0.6-0.8-1-1
			s-0.8-0.3-1.3-0.3s-0.9,0.1-1.3,0.3s-0.7,0.6-1,1s-0.4,1-0.4,1.7s0.1,1.2,0.4,1.7s0.6,0.8,1,1S260.6,276.5,261.1,276.5z"/>
		<path class="st1" d="M273.8,277.7c-0.7,0-1.2-0.1-1.6-0.3s-0.8-0.5-1-0.9s-0.3-0.8-0.3-1.2c0-0.8,0.3-1.4,0.9-1.9s1.5-0.7,2.5-0.7
			h2.1v-0.1c0-0.7-0.2-1.2-0.5-1.6c-0.4-0.4-0.9-0.5-1.5-0.5c-0.5,0-1,0.1-1.4,0.4s-0.6,0.6-0.7,1.1H271c0.1-0.6,0.2-1.1,0.6-1.5
			c0.3-0.4,0.8-0.7,1.3-0.9s1-0.3,1.6-0.3c1.1,0,1.9,0.3,2.5,0.9s0.8,1.4,0.8,2.4v4.9h-1.2l-0.1-1.4c-0.2,0.5-0.5,0.8-1,1.1
			C275.1,277.5,274.5,277.7,273.8,277.7z M274,276.5c0.5,0,1-0.1,1.3-0.4c0.4-0.3,0.6-0.6,0.8-1s0.3-0.9,0.3-1.3l0,0h-2
			c-0.8,0-1.4,0.1-1.7,0.4c-0.3,0.3-0.5,0.6-0.5,1s0.1,0.8,0.5,1C273,276.4,273.5,276.5,274,276.5z"/>
		<path class="st1" d="M283.5,277.7c-0.8,0-1.4-0.2-2-0.5s-1.1-0.8-1.4-1.5c-0.4-0.6-0.5-1.3-0.5-2.2c0-0.8,0.2-1.6,0.5-2.2
			s0.8-1.1,1.4-1.5s1.3-0.5,2-0.5c0.9,0,1.7,0.2,2.4,0.7s1,1.2,1.2,2h-1.4c-0.1-0.5-0.4-0.9-0.8-1.1c-0.4-0.3-0.9-0.4-1.5-0.4
			c-0.5,0-0.9,0.1-1.3,0.3s-0.7,0.6-1,1s-0.4,1-0.4,1.7s0.1,1.2,0.4,1.7s0.6,0.8,1,1s0.8,0.3,1.3,0.3s1-0.1,1.5-0.4
			c0.4-0.3,0.7-0.7,0.8-1.2h1.4c-0.2,0.8-0.6,1.5-1.2,2C285.2,277.4,284.4,277.7,283.5,277.7z"/>
		<path class="st1" d="M291.9,277.5c-0.7,0-1.3-0.2-1.7-0.5c-0.4-0.3-0.6-1-0.6-1.9v-4.4h-1.4v-1.1h1.4l0.2-1.9h1.2v1.9h2.3v1.1H291
			v4.4c0,0.5,0.1,0.8,0.3,1c0.2,0.2,0.6,0.3,1.1,0.3h0.8v1.2h-1.3V277.5z"/>
		<path class="st1" d="M295.7,267.8c-0.3,0-0.5-0.1-0.7-0.3s-0.3-0.4-0.3-0.7s0.1-0.5,0.3-0.6c0.2-0.2,0.4-0.3,0.7-0.3
			c0.3,0,0.5,0.1,0.7,0.3s0.3,0.4,0.3,0.6c0,0.3-0.1,0.5-0.3,0.7C296.2,267.7,296,267.8,295.7,267.8z M295.1,277.5v-7.9h1.3v7.9
			H295.1z"/>
		<path class="st1" d="M301,277.5l-3-7.9h1.4l2.4,6.6l2.4-6.6h1.4l-3,7.9H301z"/>
		<path class="st1" d="M310.2,277.7c-0.8,0-1.4-0.2-2-0.5s-1-0.8-1.4-1.5c-0.3-0.6-0.5-1.3-0.5-2.2c0-0.8,0.2-1.6,0.5-2.2
			s0.8-1.1,1.4-1.5s1.3-0.5,2.1-0.5c0.8,0,1.4,0.2,2,0.5s1,0.8,1.3,1.4s0.5,1.2,0.5,1.8c0,0.1,0,0.2,0,0.3s0,0.2,0,0.4h-6.3
			c0,0.6,0.2,1.1,0.4,1.5c0.2,0.4,0.6,0.7,0.9,0.9s0.8,0.3,1.2,0.3c0.6,0,1-0.1,1.4-0.4s0.6-0.6,0.8-1h1.3c-0.2,0.7-0.6,1.3-1.2,1.8
			C312,277.4,311.2,277.7,310.2,277.7z M310.2,270.5c-0.6,0-1.2,0.2-1.7,0.6s-0.8,1-0.9,1.7h5c0-0.7-0.3-1.3-0.7-1.7
			C311.5,270.7,310.9,270.5,310.2,270.5z"/>
		<path class="st1" d="M316.2,277.5c-0.3,0-0.5-0.1-0.7-0.3s-0.3-0.4-0.3-0.7s0.1-0.5,0.3-0.6c0.2-0.2,0.4-0.3,0.7-0.3
			c0.3,0,0.5,0.1,0.7,0.3s0.3,0.4,0.3,0.6s-0.1,0.5-0.3,0.7C316.7,277.5,316.5,277.5,316.2,277.5z"/>
		<path class="st2" d="M157.6,79c4.3,0,7.9-3.5,7.9-7.9c0-4.3-3.5-7.9-7.9-7.9c-4.3,0-7.9,3.5-7.9,7.9C149.8,75.4,153.3,79,157.6,79
			z"/>
		<path class="st2" d="M150.7,84.7c4.3,0,7.9-3.5,7.9-7.9c0-4.3-3.5-7.9-7.9-7.9c-4.3,0-7.9,3.5-7.9,7.9
			C142.8,81.1,146.3,84.7,150.7,84.7z"/>
		<path class="st2" d="M162.5,88.7c4.3,0,7.9-3.5,7.9-7.9c0-4.3-3.5-7.9-7.9-7.9c-4.3,0-7.9,3.5-7.9,7.9S158.1,88.7,162.5,88.7z"/>
		<path class="st2" d="M166.4,76.9c4.3,0,7.9-3.5,7.9-7.9c0-4.3-3.5-7.9-7.9-7.9s-7.9,3.5-7.9,7.9S162,76.9,166.4,76.9z"/>
		<path class="st2" d="M166.4,68.2c4.3,0,7.9-3.5,7.9-7.9c0-4.3-3.5-7.9-7.9-7.9s-7.9,3.5-7.9,7.9S162,68.2,166.4,68.2z"/>
		<path class="st2" d="M183.5,75.2c6.2,0,11.3-5.1,11.3-11.3c0-6.2-5.1-11.3-11.3-11.3s-11.3,5.1-11.3,11.3S177.2,75.2,183.5,75.2z"
			/>
		<path class="st2" d="M174,78.3c4.3,0,7.9-3.5,7.9-7.9c0-4.3-3.5-7.9-7.9-7.9c-4.3,0-7.9,3.5-7.9,7.9
			C166.2,74.7,169.7,78.3,174,78.3z"/>
		<path class="st2" d="M179.6,84c4.3,0,7.9-3.5,7.9-7.9c0-4.3-3.5-7.9-7.9-7.9s-7.9,3.5-7.9,7.9C171.7,80.5,175.3,84,179.6,84z"/>
		<path class="st2" d="M171.8,87.3c4.3,0,7.9-3.5,7.9-7.9c0-4.3-3.5-7.9-7.9-7.9c-4.3,0-7.9,3.5-7.9,7.9
			C163.9,83.8,167.5,87.3,171.8,87.3z"/>
		<path class="st2" d="M187.1,93c4.3,0,7.9-3.5,7.9-7.9c0-4.3-3.5-7.9-7.9-7.9c-4.3,0-7.9,3.5-7.9,7.9C179.3,89.5,182.8,93,187.1,93
			z"/>
		<path class="st2" d="M172.5,93.7c4.3,0,7.9-3.5,7.9-7.9c0-4.3-3.5-7.9-7.9-7.9c-4.3,0-7.9,3.5-7.9,7.9S168.2,93.7,172.5,93.7z"/>
		<path class="st2" d="M163.2,93.3c8.2,0,14.8-6.6,14.8-14.8s-6.6-14.8-14.8-14.8s-14.8,6.6-14.8,14.8S155,93.3,163.2,93.3z"/>
		<path class="st2" d="M182.8,85.4c4.3,0,7.9-3.5,7.9-7.9c0-4.3-3.5-7.9-7.9-7.9c-4.3,0-7.9,3.5-7.9,7.9
			C174.9,81.8,178.5,85.4,182.8,85.4z"/>
		<path class="st2" d="M188.3,90.6c8.3,0,14.9-6.7,14.9-14.9c0-8.3-6.7-15-14.9-15s-14.9,6.7-14.9,15
			C173.4,83.9,180.1,90.6,188.3,90.6z"/>
		<path class="st2" d="M240.7,63.5c5.1,0,9.3-4.2,9.3-9.3c0-5.1-4.2-9.3-9.3-9.3s-9.3,4.2-9.3,9.3C231.3,59.3,235.5,63.5,240.7,63.5
			z"/>
		<path class="st2" d="M232.4,70.2c5.1,0,9.3-4.2,9.3-9.3s-4.2-9.3-9.3-9.3s-9.3,4.2-9.3,9.3S227.3,70.2,232.4,70.2z"/>
		<path class="st2" d="M246.4,75c5.1,0,9.3-4.2,9.3-9.3s-4.2-9.3-9.3-9.3s-9.3,4.2-9.3,9.3S241.3,75,246.4,75z"/>
		<path class="st2" d="M251,61c5.1,0,9.3-4.2,9.3-9.3s-4.2-9.3-9.3-9.3c-5.1,0-9.3,4.2-9.3,9.3S245.9,61,251,61z"/>
		<path class="st2" d="M251,50.8c5.1,0,9.3-4.2,9.3-9.3s-4.2-9.3-9.3-9.3c-5.1,0-9.3,4.2-9.3,9.3S245.9,50.8,251,50.8z"/>
		<path class="st2" d="M271.3,59c7.4,0,13.4-6,13.4-13.4s-6-13.4-13.4-13.4s-13.4,6-13.4,13.4S263.9,59,271.3,59z"/>
		<path class="st2" d="M260.1,62.6c5.1,0,9.3-4.2,9.3-9.3s-4.2-9.3-9.3-9.3s-9.3,4.2-9.3,9.3S255,62.6,260.1,62.6z"/>
		<path class="st2" d="M266.7,69.4c5.1,0,9.3-4.2,9.3-9.3s-4.2-9.3-9.3-9.3s-9.3,4.2-9.3,9.3S261.6,69.4,266.7,69.4z"/>
		<path class="st2" d="M257.5,73.4c5.1,0,9.3-4.2,9.3-9.3s-4.2-9.3-9.3-9.3s-9.3,4.2-9.3,9.3S252.3,73.4,257.5,73.4z"/>
		<path class="st2" d="M256.9,49.4c7,0,12.7-5.7,12.7-12.7S263.9,24,256.9,24s-12.7,5.7-12.7,12.7S249.9,49.4,256.9,49.4z"/>
		<path class="st2" d="M262.6,49.8c5.1,0,9.3-4.2,9.3-9.3s-4.2-9.3-9.3-9.3s-9.3,4.2-9.3,9.3S257.4,49.8,262.6,49.8z"/>
		<path class="st2" d="M268,74.8c9.7,0,17.6-7.9,17.6-17.6s-7.9-17.6-17.6-17.6s-17.6,7.9-17.6,17.6C250.5,67,258.3,74.8,268,74.8z"
			/>
		<path class="st2" d="M270.5,71.1c5.1,0,9.3-4.2,9.3-9.3s-4.2-9.3-9.3-9.3s-9.3,4.2-9.3,9.3S265.4,71.1,270.5,71.1z"/>
		<path class="st2" d="M241.6,67.3c9.8,0,17.7-7.9,17.7-17.7s-7.9-17.7-17.7-17.7s-17.7,7.9-17.7,17.7S231.8,67.3,241.6,67.3z"/>
		<path class="st2" d="M251.9,140.3c5.4,0,9.8-4.4,9.8-9.8c0-5.4-4.4-9.8-9.8-9.8s-9.8,4.4-9.8,9.8
			C242.2,135.9,246.5,140.3,251.9,140.3z"/>
		<path class="st2" d="M253.3,132.4c5.4,0,9.8-4.4,9.8-9.8s-4.4-9.8-9.8-9.8s-9.8,4.4-9.8,9.8C243.5,128,247.9,132.4,253.3,132.4z"
			/>
		<path class="st2" d="M258,152.4c5.4,0,9.8-4.4,9.8-9.8s-4.4-9.8-9.8-9.8s-9.8,4.4-9.8,9.8C248.2,148,252.6,152.4,258,152.4z"/>
		<path class="st2" d="M262.8,137.7c5.4,0,9.8-4.4,9.8-9.8c0-5.4-4.4-9.8-9.8-9.8s-9.8,4.4-9.8,9.8
			C253,133.3,257.4,137.7,262.8,137.7z"/>
		<path class="st2" d="M262.8,127c5.4,0,9.8-4.4,9.8-9.8s-4.4-9.8-9.8-9.8s-9.8,4.4-9.8,9.8S257.4,127,262.8,127z"/>
		<path class="st2" d="M284,135.6c7.7,0,14-6.3,14-14s-6.3-14-14-14s-14,6.3-14,14C270,129.4,276.2,135.6,284,135.6z"/>
		<path class="st2" d="M272.3,139.4c5.4,0,9.8-4.4,9.8-9.8c0-5.4-4.4-9.8-9.8-9.8s-9.8,4.4-9.8,9.8
			C262.5,135.1,266.9,139.4,272.3,139.4z"/>
		<path class="st2" d="M279.2,146.5c5.4,0,9.8-4.4,9.8-9.8s-4.4-9.8-9.8-9.8s-9.8,4.4-9.8,9.8C269.4,142.2,273.8,146.5,279.2,146.5z
			"/>
		<path class="st2" d="M269.5,150.7c5.4,0,9.8-4.4,9.8-9.8s-4.4-9.8-9.8-9.8s-9.8,4.4-9.8,9.8C259.8,146.3,264.1,150.7,269.5,150.7z
			"/>
		<path class="st2" d="M268.9,125.6c7.4,0,13.3-6,13.3-13.3c0-7.4-6-13.3-13.3-13.3c-7.4,0-13.3,6-13.3,13.3
			C255.6,119.7,261.6,125.6,268.9,125.6z"/>
		<path class="st2" d="M274.9,126c5.4,0,9.8-4.4,9.8-9.8s-4.4-9.8-9.8-9.8s-9.8,4.4-9.8,9.8S269.5,126,274.9,126z"/>
		<path class="st2" d="M280.6,152.2c10.2,0,18.4-8.2,18.4-18.4c0-10.2-8.2-18.4-18.4-18.4c-10.2,0-18.4,8.2-18.4,18.4
			S270.4,152.2,280.6,152.2z"/>
		<path class="st2" d="M251.6,123.4c5.4,0,9.8-4.4,9.8-9.8s-4.4-9.8-9.8-9.8s-9.8,4.4-9.8,9.8C241.9,119.1,246.2,123.4,251.6,123.4z
			"/>
		<path class="st2" d="M270.3,153.5c10.2,0,18.5-8.3,18.5-18.5s-8.3-18.5-18.5-18.5s-18.5,8.3-18.5,18.5S260.1,153.5,270.3,153.5z"
			/>
		<path class="st2" d="M88.9,108c5,0,9.1-4.1,9.1-9.1s-4.1-9.1-9.1-9.1s-9.1,4.1-9.1,9.1S83.9,108,88.9,108z"/>
		<path class="st2" d="M97.1,105.1c5,0,9.1-4.1,9.1-9.1s-4.1-9.1-9.1-9.1S88,91,88,96S92.1,105.1,97.1,105.1z"/>
		<path class="st2" d="M99.7,115.6c5,0,9.1-4.1,9.1-9.1s-4.1-9.1-9.1-9.1s-9.1,4.1-9.1,9.1S94.7,115.6,99.7,115.6z"/>
		<path class="st2" d="M113.1,107.2c5,0,9.1-4.1,9.1-9.1s-4.1-9.1-9.1-9.1s-9.1,4.1-9.1,9.1S108.1,107.2,113.1,107.2z"/>
		<path class="st2" d="M110.4,99.9c6.3,0,11.4-5.1,11.4-11.4s-5.1-11.4-11.4-11.4S99,82.2,99,88.5S104.1,99.9,110.4,99.9z"/>
		<path class="st2" d="M123.3,107.7c5,0,9.1-4.1,9.1-9.1s-4.1-9.1-9.1-9.1s-9.1,4.1-9.1,9.1S118.3,107.7,123.3,107.7z"/>
		<path class="st2" d="M126.4,102.7c5,0,9.1-4.1,9.1-9.1s-4.1-9.1-9.1-9.1s-9.1,4.1-9.1,9.1S121.3,102.7,126.4,102.7z"/>
		<path class="st2" d="M114.6,111.4c5,0,9.1-4.1,9.1-9.1s-4.1-9.1-9.1-9.1s-9.1,4.1-9.1,9.1S109.5,111.4,114.6,111.4z"/>
		<path class="st2" d="M117.3,119.9c7.2,0,13.1-5.9,13.1-13.1s-5.9-13.1-13.1-13.1s-13.1,5.9-13.1,13.1
			C104.2,114.1,110.1,119.9,117.3,119.9z"/>
		<path class="st2" d="M119.3,117.2c8.1,0,14.7-6.6,14.7-14.7s-6.6-14.7-14.7-14.7s-14.7,6.6-14.7,14.7S111.2,117.2,119.3,117.2z"/>
		<path class="st2" d="M47,72.9c4.8,0,8.7-3.9,8.7-8.7c0-4.8-3.9-8.7-8.7-8.7s-8.7,3.9-8.7,8.7C38.3,69,42.2,72.9,47,72.9z"/>
		<path class="st2" d="M54.8,70.1c4.8,0,8.7-3.9,8.7-8.7s-3.9-8.7-8.7-8.7s-8.7,3.9-8.7,8.7S50,70.1,54.8,70.1z"/>
		<path class="st2" d="M58.7,79c4.8,0,8.7-3.9,8.7-8.7c0-4.8-3.9-8.7-8.7-8.7S50,65.5,50,70.3S53.9,79,58.7,79z"/>
		<path class="st2" d="M70,72.1c4.8,0,8.7-3.9,8.7-8.7c0-4.8-3.9-8.7-8.7-8.7s-8.7,3.9-8.7,8.7S65.2,72.1,70,72.1z"/>
		<path class="st2" d="M68.7,68c6,0,10.8-4.9,10.8-10.8s-4.9-10.8-10.8-10.8s-10.8,4.9-10.8,10.8S62.7,68,68.7,68z"/>
		<path class="st2" d="M83.5,67.8c4.8,0,8.7-3.9,8.7-8.7c0-4.8-3.9-8.7-8.7-8.7c-4.8,0-8.7,3.9-8.7,8.7
			C74.9,63.9,78.7,67.8,83.5,67.8z"/>
		<path class="st2" d="M74.5,60.5c4.8,0,8.7-3.9,8.7-8.7c0-4.8-3.9-8.7-8.7-8.7s-8.7,3.9-8.7,8.7C65.8,56.7,69.7,60.5,74.5,60.5z"/>
		<path class="st2" d="M71.4,76.1c4.8,0,8.7-3.9,8.7-8.7c0-4.8-3.9-8.7-8.7-8.7c-4.8,0-8.7,3.9-8.7,8.7S66.6,76.1,71.4,76.1z"/>
		<path class="st2" d="M76.5,79.7c6.8,0,12.4-5.6,12.4-12.4s-5.6-12.4-12.4-12.4s-12.4,5.6-12.4,12.4S69.7,79.7,76.5,79.7z"/>
		<path class="st2" d="M61.7,71.9c7.7,0,13.9-6.2,13.9-13.9s-6.2-13.9-13.9-13.9S47.8,50.3,47.8,58S54,71.9,61.7,71.9z"/>
		<path class="st2" d="M46.5,111.4c2.3,0,4.2-1.9,4.2-4.2s-1.9-4.2-4.2-4.2s-4.2,1.9-4.2,4.2S44.2,111.4,46.5,111.4z"/>
		<path class="st2" d="M49.1,108.4c2.3,0,4.2-1.9,4.2-4.2s-1.9-4.2-4.2-4.2s-4.2,1.9-4.2,4.2S46.8,108.4,49.1,108.4z"/>
		<path class="st2" d="M52.8,111.2c2.3,0,4.2-1.9,4.2-4.2c0-2.3-1.9-4.2-4.2-4.2s-4.2,1.9-4.2,4.2C48.7,109.3,50.5,111.2,52.8,111.2
			z"/>
		<path class="st2" d="M56,105.6c2.3,0,4.2-1.9,4.2-4.2s-1.9-4.2-4.2-4.2s-4.2,1.9-4.2,4.2S53.7,105.6,56,105.6z"/>
		<path class="st2" d="M53.9,104.3c2.9,0,5.2-2.4,5.2-5.2c0-2.9-2.4-5.2-5.2-5.2c-2.9,0-5.2,2.4-5.2,5.2
			C48.6,101.9,51,104.3,53.9,104.3z"/>
		<path class="st2" d="M55.1,99.6c2.3,0,4.2-1.9,4.2-4.2s-1.9-4.2-4.2-4.2s-4.2,1.9-4.2,4.2S52.8,99.6,55.1,99.6z"/>
		<path class="st2" d="M57.5,106.9c2.3,0,4.2-1.9,4.2-4.2s-1.9-4.2-4.2-4.2s-4.2,1.9-4.2,4.2S55.2,106.9,57.5,106.9z"/>
		<path class="st2" d="M51.2,107.8c3.7,0,6.8-3,6.8-6.8c0-3.7-3-6.8-6.8-6.8c-3.7,0-6.8,3-6.8,6.8S47.5,107.8,51.2,107.8z"/>
		<path class="st2" d="M77.3,154.2c1,0,1.9-0.8,1.9-1.9s-0.8-1.9-1.9-1.9c-1,0-1.8,0.8-1.8,1.9S76.3,154.2,77.3,154.2z"/>
		<path class="st2" d="M79.8,155.6c1,0,1.8-0.8,1.8-1.9c0-1-0.8-1.8-1.8-1.8s-1.9,0.8-1.9,1.8C77.9,154.8,78.8,155.6,79.8,155.6z"/>
		<path class="st2" d="M80.8,155.2c1.3,0,2.3-1,2.3-2.3s-1-2.3-2.3-2.3s-2.3,1-2.3,2.3C78.5,154.1,79.6,155.2,80.8,155.2z"/>
		<path class="st2" d="M82.4,155.2c1,0,1.8-0.8,1.8-1.8s-0.8-1.9-1.8-1.9s-1.9,0.8-1.9,1.9C80.6,154.4,81.4,155.2,82.4,155.2z"/>
		<path class="st2" d="M79.2,156.3c1,0,1.9-0.8,1.9-1.9s-0.8-1.9-1.9-1.9c-1,0-1.8,0.8-1.8,1.9S78.2,156.3,79.2,156.3z"/>
		<path class="st2" d="M79.9,154.6c1.6,0,3-1.3,3-3c0-1.6-1.3-3-3-3c-1.6,0-3,1.3-3,3C77,153.3,78.3,154.6,79.9,154.6z"/>
		<path class="st2" d="M110.6,144.7c1,0,1.8-0.8,1.8-1.9s-0.8-1.9-1.8-1.9s-1.9,0.8-1.9,1.9S109.6,144.7,110.6,144.7z"/>
		<path class="st2" d="M113.1,146c1,0,1.9-0.8,1.9-1.9s-0.8-1.8-1.9-1.8s-1.8,0.8-1.8,1.8S112.1,146,113.1,146z"/>
		<path class="st2" d="M114.1,145.6c1.3,0,2.3-1,2.3-2.3s-1-2.3-2.3-2.3s-2.3,1-2.3,2.3S112.9,145.6,114.1,145.6z"/>
		<path class="st2" d="M115.7,145.7c1,0,1.8-0.8,1.8-1.9c0-1-0.8-1.8-1.8-1.8s-1.9,0.8-1.9,1.8C113.9,144.8,114.7,145.7,115.7,145.7
			z"/>
		<path class="st2" d="M112.5,146.7c1,0,1.9-0.8,1.9-1.9s-0.8-1.9-1.9-1.9s-1.9,0.8-1.9,1.9S111.5,146.7,112.5,146.7z"/>
		<path class="st2" d="M113.2,145.1c1.6,0,3-1.3,3-3c0-1.6-1.3-3-3-3s-3,1.3-3,3C110.3,143.7,111.6,145.1,113.2,145.1z"/>
		<path class="st2" d="M231.4,133c1,0,1.9-0.8,1.9-1.8s-0.8-1.9-1.9-1.9s-1.8,0.8-1.8,1.9S230.4,133,231.4,133z"/>
		<path class="st2" d="M233.9,134.4c1,0,1.8-0.8,1.8-1.9s-0.8-1.9-1.8-1.9s-1.9,0.8-1.9,1.9S232.9,134.4,233.9,134.4z"/>
		<path class="st2" d="M234.9,134c1.3,0,2.3-1,2.3-2.3s-1-2.3-2.3-2.3s-2.3,1-2.3,2.3S233.6,134,234.9,134z"/>
		<path class="st2" d="M233.3,135.1c1,0,1.9-0.8,1.9-1.9s-0.8-1.9-1.9-1.9c-1,0-1.8,0.8-1.8,1.9S232.3,135.1,233.3,135.1z"/>
		<path class="st2" d="M234,133.4c1.6,0,3-1.3,3-3c0-1.6-1.3-3-3-3s-3,1.3-3,3C231.1,132.1,232.4,133.4,234,133.4z"/>
		<path class="st2" d="M233.9,83.2c1,0,1.8-0.8,1.8-1.9s-0.8-1.9-1.8-1.9s-1.9,0.8-1.9,1.9S232.9,83.2,233.9,83.2z"/>
		<path class="st2" d="M234.9,82.8c1.3,0,2.3-1,2.3-2.3s-1-2.3-2.3-2.3s-2.3,1-2.3,2.3S233.6,82.8,234.9,82.8z"/>
		<path class="st2" d="M236.5,82.8c1,0,1.9-0.8,1.9-1.9s-0.8-1.9-1.9-1.9s-1.9,0.8-1.9,1.9S235.5,82.8,236.5,82.8z"/>
		<path class="st2" d="M233.3,83.9c1,0,1.9-0.8,1.9-1.9c0-1-0.8-1.8-1.9-1.8c-1,0-1.8,0.8-1.8,1.8C231.4,83.1,232.3,83.9,233.3,83.9
			z"/>
		<path class="st2" d="M234,82.2c1.6,0,3-1.3,3-3c0-1.6-1.3-3-3-3s-3,1.3-3,3C231.1,80.9,232.4,82.2,234,82.2z"/>
		<path class="st2" d="M163.8,101.4c1,0,1.9-0.8,1.9-1.9c0-1-0.8-1.8-1.9-1.8s-1.9,0.8-1.9,1.8C161.9,100.6,162.8,101.4,163.8,101.4
			z"/>
		<path class="st2" d="M166.2,102.8c1,0,1.8-0.8,1.8-1.9s-0.8-1.8-1.8-1.8s-1.9,0.8-1.9,1.8S165.2,102.8,166.2,102.8z"/>
		<path class="st2" d="M167.3,102.3c1.3,0,2.3-1,2.3-2.3s-1-2.3-2.3-2.3s-2.3,1-2.3,2.3S166,102.3,167.3,102.3z"/>
		<path class="st2" d="M168.9,102.4c1,0,1.9-0.8,1.9-1.9c0-1-0.8-1.8-1.9-1.8s-1.9,0.8-1.9,1.8C167,101.6,167.8,102.4,168.9,102.4z"
			/>
		<path class="st2" d="M165.6,103.5c1,0,1.9-0.8,1.9-1.8s-0.8-1.9-1.9-1.9c-1,0-1.8,0.8-1.8,1.9
			C163.8,102.6,164.6,103.5,165.6,103.5z"/>
		<path class="st2" d="M59.5,133.5c1.4,0,2.6-1.2,2.6-2.6s-1.2-2.6-2.6-2.6s-2.6,1.2-2.6,2.6C56.9,132.4,58.1,133.5,59.5,133.5z"/>
		<path class="st2" d="M61.8,135.2c1.4,0,2.6-1.2,2.6-2.6s-1.2-2.6-2.6-2.6s-2.6,1.2-2.6,2.6S60.4,135.2,61.8,135.2z"/>
		<path class="st2" d="M63.7,131.8c1.4,0,2.6-1.2,2.6-2.6c0-1.4-1.2-2.6-2.6-2.6c-1.4,0-2.6,1.2-2.6,2.6
			C61.1,130.6,62.3,131.8,63.7,131.8z"/>
		<path class="st2" d="M62.4,131c1.8,0,3.2-1.4,3.2-3.2c0-1.8-1.4-3.2-3.2-3.2c-1.8,0-3.2,1.4-3.2,3.2C59.2,129.6,60.6,131,62.4,131
			z"/>
		<path class="st2" d="M60.8,133.2c2.3,0,4.1-1.9,4.1-4.1c0-2.3-1.9-4.1-4.1-4.1c-2.3,0-4.1,1.9-4.1,4.1
			C56.6,131.3,58.5,133.2,60.8,133.2z"/>
		<path class="st2" d="M101.5,131.5c1.4,0,2.6-1.2,2.6-2.6c0-1.4-1.2-2.6-2.6-2.6s-2.6,1.2-2.6,2.6
			C98.9,130.3,100.1,131.5,101.5,131.5z"/>
		<path class="st2" d="M99.5,127.4c1.4,0,2.6-1.2,2.6-2.6s-1.2-2.6-2.6-2.6s-2.6,1.2-2.6,2.6S98.1,127.4,99.5,127.4z"/>
		<path class="st2" d="M99.5,131.9c2.3,0,4.1-1.9,4.1-4.1c0-2.3-1.9-4.1-4.1-4.1c-2.3,0-4.1,1.9-4.1,4.1
			C95.4,130.1,97.3,131.9,99.5,131.9z"/>
		<path class="st3" d="M118.9,206.9c-1.7-11.9-3.6-27.4-3.2-35.5c-8,6.5-21.1,19.7-25.1,35.5H118.9z"/>
		<path class="st4" d="M241.4,91.8c0,0-26.9,41-71.4,39.4C170,131.2,188.7,93.8,241.4,91.8z"/>
		<path class="st5" d="M195,81.9c0,0,1,19-25.5,54C169.6,135.9,154.8,110.2,195,81.9z"/>
		<path class="st6" d="M252,206.9c-0.1-3.2-0.4-6.9-0.9-11.2c-9.9-85.9-91.5-75.4-121.1-55c-14,9.6-33.2,30-28.9,66.2H252z"/>
		<path d="M165.4,181.7c-0.7-1.6,1.8-2.5,6.1-1.9c4.2,0.6,4.6,4.9-1.8,4.7C166.6,184.4,166.1,183.3,165.4,181.7z"/>
		<path class="st0" d="M171,182.6l-1.3,0.2c-0.6,0.1-1.2-0.3-1.4-1l-0.2-2.1c1.2-0.2,2.4,0.1,3.6,0.2l0.2,1.3
			C172.1,181.9,171.6,182.5,171,182.6z"/>
		<path class="st3" d="M256.6,206.9c0.6-14.9-6.4-29.4-11.9-37.3c-2.2,9.3-14.1,26.3-19.5,37.3H256.6z"/>
		<path class="st7" d="M161.1,119.3c0,0-6.2,1.6-7.5,8.3C153.6,127.6,159.1,128.7,161.1,119.3z"/>
		<path class="st8" d="M153.1,134.9c0.2-7.8,0.7-14.9-2.2-24.2"/>
		<path class="st9" d="M152.7,108.4c0,0-12.3-3.3-10.3,1.6C144.5,114.7,154.5,111.7,152.7,108.4z"/>
		<path class="st9" d="M155,109.3c0,0-13,0.9-8.9,5C150.2,118.4,158.1,112,155,109.3z"/>
		<path class="st9" d="M155.7,109.7c0,0-7.2-9.8-10-5.4S154.1,112.9,155.7,109.7z"/>
		<path class="st9" d="M150.8,113.3c0,0,14.1-5,8.2-8.2C153,102,146.4,111.3,150.8,113.3z"/>
		<path class="st9" d="M154.4,109.5c0,0,9.8-2.4,8.6,2.5S153.2,112.8,154.4,109.5z"/>
		<path class="st9" d="M156.5,108.4c0,0,3.8,11.7-1.8,9.6C149.1,115.9,152.6,106.6,156.5,108.4z"/>
		<path class="st10" d="M159.1,110.2c0.3-1.8-1.9-3.6-4.9-4s-5.6,0.7-5.8,2.4c-0.3,1.8,1.9,3.6,4.9,4S158.9,111.9,159.1,110.2z"/>
		<path d="M155.9,164.2c0,3.1,0.6,1.7-5.7,1.7s-5.7,1.4-5.7-1.7s2.6-5.7,5.7-5.7S155.9,161.1,155.9,164.2z"/>
		<path d="M192.8,165.2c0,3.1-2.6,4.7-5.7,4.7s-5.7-1.5-5.7-4.7s0.5,2,5.7,2S192.8,162.1,192.8,165.2z"/>
	</g>
</g>
</svg>
