<?xml version="1.0" encoding="utf-8"?>
<!-- Generator: Adobe Illustrator 25.1.0, SVG Export Plug-In . SVG Version: 6.00 Build 0)  -->
<svg version="1.1" id="Layer_1" xmlns="http://www.w3.org/2000/svg" xmlns:xlink="http://www.w3.org/1999/xlink" x="0px" y="0px"
	 viewBox="0 0 330.9 213.7" style="enable-background:new 0 0 330.9 213.7;" xml:space="preserve">
<style type="text/css">
	.st0{fill:#FFFFFF;}
	.st1{fill:#E97443;}
	.st2{fill:#DCE3E5;}
	.st3{fill:none;stroke:#FFFFFF;stroke-width:1.6936;stroke-linecap:round;stroke-miterlimit:10;}
	.st4{fill:#808080;}
	.st5{fill:#F4F1EF;}
	.st6{fill:none;stroke:#3CDC82;stroke-width:3.0152;stroke-miterlimit:10;}
	.st7{fill:#3CDC82;}
	.st8{fill:#32DCD2;}
	.st9{fill:none;stroke:#00A878;stroke-linecap:round;stroke-miterlimit:10;}
</style>
<g>
	<g>
		<path class="st0" d="M330.8,151.3c0-144.8,4.7-147.6-41.6-150.9C261-1.6,142.7,4,108,4.5C73.9,5.1,7.2-1.5,5.1,39.3
			C3.9,62,0.5,85.1,0.5,124.5c0,62-6.6,76.9,28.4,84.7c35.6,8,166.4,3,209.3,2C282.5,210.3,330.8,214.6,330.8,151.3z"/>
		<path class="st1" d="M184.6,69.4c10.9,0,19.8-8.9,19.8-19.8s-8.9-19.8-19.8-19.8c-10.9,0-19.8,8.9-19.8,19.8
			C164.8,60.6,173.6,69.4,184.6,69.4z"/>
		<path class="st2" d="M184.6,67.5c9.9,0,17.9-8,17.9-17.9s-8-17.8-17.9-17.8s-17.8,8-17.8,17.8C166.7,59.5,174.7,67.5,184.6,67.5z"
			/>
		<path class="st1" d="M185.1,53.8h-0.3c-0.5,0-0.9-0.4-0.9-0.9V39.8c0-0.5,0.4-0.9,0.9-0.9h0.3c0.5,0,0.9,0.4,0.9,0.9v13.1
			C186,53.3,185.6,53.8,185.1,53.8z"/>
		<path class="st1" d="M180.7,45.4l0.3-0.1c0.5-0.2,1-0.1,1.3,0.4l3.4,6.5c0.2,0.5,0.1,1-0.4,1.3l-0.3,0.1c-0.5,0.2-1,0.1-1.3-0.4
			l-3.4-6.5C180.1,46.2,180.3,45.7,180.7,45.4z"/>
		<path class="st3" d="M171.9,40.4c0.9-2.4,4.8-5,8.4-5.6"/>
		<path class="st3" d="M198,57.1c-1.1,2.2-3.5,4.5-5.8,5.4"/>
		<path class="st4" d="M31.7,166c-0.8,0-1.5-0.1-2.1-0.5c-0.6-0.3-1.1-0.7-1.4-1.2s-0.5-1.1-0.5-1.9h1.4c0,0.4,0.1,0.8,0.3,1.2
			s0.5,0.7,0.9,0.9s0.9,0.3,1.5,0.3c0.8,0,1.3-0.2,1.8-0.5c0.4-0.4,0.6-0.8,0.6-1.4c0-0.4-0.1-0.8-0.3-1.1s-0.5-0.5-0.8-0.7
			s-0.7-0.3-1.1-0.5c-0.4-0.1-0.9-0.3-1.3-0.4c-0.9-0.3-1.5-0.7-1.9-1.1s-0.6-1-0.6-1.7c0-0.6,0.1-1.1,0.4-1.6s0.7-0.8,1.2-1.1
			s1.1-0.4,1.9-0.4c0.7,0,1.3,0.1,1.9,0.4c0.5,0.3,0.9,0.6,1.2,1.1s0.4,1,0.5,1.6h-1.4c0-0.3-0.1-0.6-0.2-0.9
			c-0.2-0.3-0.4-0.6-0.7-0.7c-0.3-0.2-0.7-0.3-1.2-0.3c-0.6,0-1.1,0.1-1.5,0.5s-0.6,0.8-0.6,1.3s0.1,0.9,0.4,1.1
			c0.3,0.3,0.6,0.5,1.1,0.6c0.5,0.2,1.1,0.4,1.7,0.6c0.5,0.2,1,0.4,1.4,0.7s0.8,0.6,1,1s0.4,0.9,0.4,1.5c0,0.5-0.1,1-0.4,1.5
			c-0.3,0.5-0.7,0.9-1.3,1.2C33.2,165.9,32.5,166,31.7,166z"/>
		<path class="st4" d="M40.9,166c-0.8,0-1.4-0.2-2-0.5s-1.1-0.8-1.4-1.4c-0.4-0.6-0.5-1.4-0.5-2.2s0.2-1.6,0.5-2.2
			c0.4-0.6,0.8-1.1,1.4-1.5c0.6-0.3,1.3-0.5,2-0.5c0.8,0,1.4,0.2,2,0.5s1.1,0.8,1.4,1.5c0.3,0.6,0.5,1.4,0.5,2.2s-0.2,1.6-0.5,2.2
			s-0.8,1.1-1.4,1.4S41.6,166,40.9,166z M40.9,164.9c0.5,0,0.9-0.1,1.3-0.3c0.4-0.2,0.7-0.6,1-1s0.4-1,0.4-1.7s-0.1-1.2-0.4-1.7
			c-0.2-0.4-0.6-0.8-1-1s-0.8-0.3-1.3-0.3s-0.9,0.1-1.3,0.3c-0.4,0.2-0.7,0.6-1,1c-0.2,0.5-0.4,1-0.4,1.7s0.1,1.2,0.4,1.7
			s0.6,0.8,1,1C40,164.7,40.4,164.9,40.9,164.9z"/>
		<path class="st4" d="M46.7,165.8v-7.9h1.2L48,159c0.3-0.4,0.6-0.8,1-1s0.9-0.4,1.4-0.4c0.6,0,1.2,0.1,1.6,0.4
			c0.5,0.3,0.8,0.6,1.1,1.2c0.3-0.5,0.7-0.9,1.1-1.1c0.5-0.3,1-0.4,1.6-0.4c0.9,0,1.7,0.3,2.3,0.9s0.8,1.5,0.8,2.6v4.6h-1.3v-4.5
			c0-0.8-0.2-1.4-0.5-1.9c-0.3-0.4-0.8-0.6-1.4-0.6s-1.2,0.2-1.6,0.7s-0.6,1.2-0.6,2.1v4.1h-1.3v-4.5c0-0.8-0.2-1.4-0.5-1.9
			c-0.3-0.4-0.8-0.6-1.4-0.6s-1.2,0.2-1.6,0.7s-0.6,1.2-0.6,2.1v4.1L46.7,165.8L46.7,165.8z"/>
		<path class="st4" d="M64.6,166c-0.8,0-1.4-0.2-2-0.5c-0.6-0.4-1-0.8-1.4-1.5c-0.3-0.6-0.5-1.4-0.5-2.2s0.2-1.6,0.5-2.2
			s0.8-1.1,1.4-1.5c0.6-0.4,1.3-0.5,2.1-0.5c0.8,0,1.4,0.2,2,0.5s1,0.8,1.3,1.4s0.4,1.2,0.4,1.8c0,0.1,0,0.2,0,0.3s0,0.2,0,0.4h-6.3
			c0,0.6,0.2,1.1,0.4,1.5s0.6,0.7,0.9,0.9c0.4,0.2,0.8,0.3,1.2,0.3c0.5,0,1-0.1,1.4-0.4s0.6-0.6,0.8-1h1.3c-0.2,0.7-0.6,1.4-1.2,1.8
			C66.3,165.8,65.6,166,64.6,166z M64.6,158.8c-0.6,0-1.2,0.2-1.7,0.6c-0.5,0.4-0.8,1-0.9,1.7h5c0-0.7-0.3-1.3-0.7-1.7
			C65.9,159,65.3,158.8,64.6,158.8z"/>
		<path class="st4" d="M74.4,169.3v-11.5h1.2l0.1,1.3c0.3-0.4,0.6-0.7,1.1-1s1.1-0.5,1.8-0.5c0.8,0,1.5,0.2,2.1,0.5
			c0.6,0.4,1,0.9,1.4,1.5c0.3,0.6,0.5,1.3,0.5,2.1s-0.2,1.5-0.5,2.1s-0.8,1.1-1.4,1.5s-1.3,0.5-2.1,0.5c-0.7,0-1.2-0.1-1.7-0.4
			s-0.9-0.6-1.2-1.1v4.8h-1.3V169.3z M78.5,164.8c0.5,0,1-0.1,1.4-0.4c0.4-0.2,0.7-0.6,1-1.1c0.2-0.4,0.3-1,0.3-1.6
			s-0.1-1.1-0.3-1.6c-0.2-0.5-0.6-0.8-1-1.1c-0.4-0.2-0.9-0.4-1.4-0.4s-1,0.1-1.4,0.4c-0.4,0.2-0.7,0.6-1,1.1
			c-0.2,0.4-0.4,1-0.4,1.6s0.1,1.1,0.4,1.6c0.2,0.5,0.5,0.8,1,1.1C77.5,164.7,78,164.8,78.5,164.8z"/>
		<path class="st4" d="M88,166c-0.8,0-1.4-0.2-2-0.5c-0.6-0.4-1-0.8-1.4-1.5c-0.3-0.6-0.5-1.4-0.5-2.2s0.2-1.6,0.5-2.2
			s0.8-1.1,1.4-1.5s1.3-0.5,2.1-0.5c0.8,0,1.4,0.2,2,0.5s1,0.8,1.3,1.4s0.4,1.2,0.4,1.8c0,0.1,0,0.2,0,0.3s0,0.2,0,0.4h-6.3
			c0,0.6,0.2,1.1,0.4,1.5s0.6,0.7,0.9,0.9c0.4,0.2,0.8,0.3,1.2,0.3c0.5,0,1-0.1,1.4-0.4s0.7-0.6,0.8-1h1.3c-0.2,0.7-0.6,1.4-1.2,1.8
			C89.7,165.8,89,166,88,166z M88,158.8c-0.6,0-1.2,0.2-1.7,0.6s-0.8,1-0.9,1.7h5c0-0.7-0.3-1.3-0.7-1.7
			C89.3,159,88.7,158.8,88,158.8z"/>
		<path class="st4" d="M97.2,166c-0.8,0-1.4-0.2-2-0.5s-1.1-0.8-1.4-1.4s-0.5-1.4-0.5-2.2s0.2-1.6,0.5-2.2c0.4-0.6,0.8-1.1,1.4-1.5
			c0.6-0.3,1.3-0.5,2-0.5c0.8,0,1.4,0.2,2,0.5s1.1,0.8,1.4,1.5c0.3,0.6,0.5,1.4,0.5,2.2s-0.2,1.6-0.5,2.2s-0.8,1.1-1.4,1.4
			S97.9,166,97.2,166z M97.2,164.9c0.5,0,0.9-0.1,1.3-0.3s0.7-0.6,1-1s0.4-1,0.4-1.7s-0.1-1.2-0.4-1.7c-0.2-0.4-0.6-0.8-0.9-1
			c-0.4-0.2-0.8-0.3-1.3-0.3s-0.9,0.1-1.3,0.3s-0.7,0.6-1,1c-0.2,0.5-0.4,1-0.4,1.7s0.1,1.2,0.4,1.7s0.6,0.8,0.9,1
			C96.3,164.7,96.7,164.9,97.2,164.9z"/>
		<path class="st4" d="M103,169.3v-11.5h1.2l0.1,1.3c0.3-0.4,0.6-0.7,1.1-1s1.1-0.5,1.8-0.5c0.8,0,1.5,0.2,2.1,0.5
			c0.6,0.4,1,0.9,1.4,1.5s0.5,1.3,0.5,2.1s-0.2,1.5-0.5,2.1s-0.8,1.1-1.4,1.5s-1.3,0.5-2.1,0.5c-0.7,0-1.2-0.1-1.7-0.4
			s-0.9-0.6-1.2-1.1v4.8H103V169.3z M107.1,164.8c0.5,0,1-0.1,1.4-0.4c0.4-0.2,0.7-0.6,1-1.1c0.2-0.4,0.4-1,0.4-1.6
			s-0.1-1.1-0.4-1.6c-0.2-0.5-0.6-0.8-1-1.1c-0.4-0.2-0.9-0.4-1.4-0.4s-1,0.1-1.4,0.4c-0.4,0.2-0.7,0.6-1,1.1
			c-0.2,0.4-0.3,1-0.3,1.6s0.1,1.1,0.3,1.6c0.2,0.5,0.6,0.8,1,1.1S106.6,164.8,107.1,164.8z"/>
		<path class="st4" d="M113.1,165.8v-11.5h1.3v11.5H113.1z"/>
		<path class="st4" d="M120.2,166c-0.8,0-1.4-0.2-2-0.5c-0.6-0.4-1.1-0.8-1.4-1.5c-0.3-0.6-0.5-1.4-0.5-2.2s0.2-1.6,0.5-2.2
			s0.8-1.1,1.4-1.5s1.3-0.5,2.1-0.5s1.4,0.2,2,0.5s1,0.8,1.3,1.4s0.4,1.2,0.4,1.8c0,0.1,0,0.2,0,0.3s0,0.2,0,0.4h-6.3
			c0,0.6,0.2,1.1,0.4,1.5s0.6,0.7,0.9,0.9c0.4,0.2,0.8,0.3,1.2,0.3c0.6,0,1-0.1,1.4-0.4s0.7-0.6,0.8-1h1.3c-0.2,0.7-0.6,1.4-1.2,1.8
			C121.9,165.8,121.1,166,120.2,166z M120.2,158.8c-0.6,0-1.2,0.2-1.7,0.6s-0.8,1-0.9,1.7h5c0-0.7-0.3-1.3-0.7-1.7
			C121.4,159,120.9,158.8,120.2,158.8z"/>
		<path class="st4" d="M133.1,165.8c-0.7,0-1.3-0.2-1.7-0.5c-0.4-0.4-0.6-1-0.6-1.9V159h-1.4v-1.1h1.4l0.2-1.9h1.2v1.9h2.3v1.1h-2.3
			v4.4c0,0.5,0.1,0.8,0.3,1s0.6,0.3,1.1,0.3h0.8v1.1H133.1z"/>
		<path class="st4" d="M136.2,165.8v-11.5h1.3v4.9c0.3-0.5,0.6-0.9,1.1-1.1c0.5-0.3,1-0.4,1.6-0.4c0.9,0,1.7,0.3,2.2,0.9
			c0.6,0.6,0.8,1.4,0.8,2.6v4.6h-1.3v-4.5c0-1.6-0.7-2.5-2-2.5c-0.7,0-1.3,0.2-1.7,0.7c-0.5,0.5-0.7,1.2-0.7,2.1v4.1L136.2,165.8
			L136.2,165.8z"/>
		<path class="st4" d="M146.1,156.1c-0.3,0-0.5-0.1-0.7-0.3s-0.3-0.4-0.3-0.7s0.1-0.5,0.3-0.6c0.2-0.2,0.4-0.3,0.7-0.3
			s0.5,0.1,0.7,0.3s0.3,0.4,0.3,0.6c0,0.3-0.1,0.5-0.3,0.7S146.4,156.1,146.1,156.1z M145.5,165.8v-7.9h1.3v7.9H145.5z"/>
		<path class="st4" d="M149.1,165.8v-7.9h1.2l0.1,1.4c0.3-0.5,0.6-0.9,1.1-1.2s1-0.4,1.6-0.4c0.9,0,1.7,0.3,2.2,0.9
			c0.6,0.6,0.8,1.4,0.8,2.6v4.6h-1.2v-4.5c0-1.6-0.7-2.5-2.1-2.5c-0.7,0-1.2,0.2-1.7,0.7c-0.4,0.5-0.7,1.2-0.7,2.1v4.1L149.1,165.8
			L149.1,165.8z"/>
		<path class="st4" d="M158.3,165.8v-11.5h1.3v6.9l3.2-3.3h1.7l-3.5,3.6l4,4.4h-1.7l-3.6-4.1v4.1L158.3,165.8L158.3,165.8z"/>
		<path class="st4" d="M170.6,165.8v-7.9h1.2l0.1,1.4c0.3-0.5,0.6-0.9,1.1-1.2s1-0.4,1.6-0.4c0.9,0,1.7,0.3,2.2,0.9
			c0.6,0.6,0.8,1.4,0.8,2.6v4.6h-1.3v-4.5c0-1.6-0.7-2.5-2.1-2.5c-0.7,0-1.2,0.2-1.7,0.7c-0.4,0.5-0.7,1.2-0.7,2.1v4.1L170.6,165.8
			L170.6,165.8z"/>
		<path class="st4" d="M183.4,166c-0.8,0-1.4-0.2-2-0.5s-1.1-0.8-1.4-1.4c-0.4-0.6-0.5-1.4-0.5-2.2s0.2-1.6,0.5-2.2
			c0.4-0.6,0.8-1.1,1.4-1.5c0.6-0.3,1.3-0.5,2-0.5s1.4,0.2,2,0.5s1.1,0.8,1.4,1.5c0.4,0.6,0.5,1.4,0.5,2.2s-0.2,1.6-0.5,2.2
			c-0.4,0.6-0.8,1.1-1.4,1.4C184.8,165.8,184.1,166,183.4,166z M183.4,164.9c0.5,0,0.9-0.1,1.3-0.3c0.4-0.2,0.7-0.6,1-1
			s0.4-1,0.4-1.7s-0.1-1.2-0.4-1.7c-0.2-0.4-0.6-0.8-1-1s-0.8-0.3-1.3-0.3s-0.9,0.1-1.3,0.3c-0.4,0.2-0.7,0.6-1,1
			c-0.2,0.5-0.4,1-0.4,1.7s0.1,1.2,0.4,1.7c0.2,0.5,0.6,0.8,1,1C182.5,164.7,182.9,164.9,183.4,164.9z"/>
		<path class="st4" d="M192,165.8c-0.7,0-1.3-0.2-1.7-0.5s-0.6-1-0.6-1.9V159h-1.4v-1.1h1.4l0.2-1.9h1.2v1.9h2.3v1.1h-2.3v4.4
			c0,0.5,0.1,0.8,0.3,1s0.6,0.3,1.1,0.3h0.8v1.1H192z"/>
		<path class="st4" d="M195.1,165.8v-11.5h1.3v4.9c0.3-0.5,0.6-0.9,1.1-1.1s1-0.4,1.6-0.4c0.9,0,1.6,0.3,2.2,0.9
			c0.6,0.6,0.8,1.4,0.8,2.6v4.6h-1.2v-4.5c0-1.6-0.7-2.5-2-2.5c-0.7,0-1.3,0.2-1.7,0.7c-0.5,0.5-0.7,1.2-0.7,2.1v4.1L195.1,165.8
			L195.1,165.8z"/>
		<path class="st4" d="M205.1,156.1c-0.3,0-0.5-0.1-0.7-0.3s-0.3-0.4-0.3-0.7s0.1-0.5,0.3-0.6c0.2-0.2,0.4-0.3,0.7-0.3
			s0.5,0.1,0.7,0.3s0.3,0.4,0.3,0.6c0,0.3-0.1,0.5-0.3,0.7C205.5,156,205.3,156.1,205.1,156.1z M204.4,165.8v-7.9h1.3v7.9H204.4z"/>
		<path class="st4" d="M208.1,165.8v-7.9h1.2l0.1,1.4c0.3-0.5,0.6-0.9,1.1-1.2s1-0.4,1.6-0.4c0.9,0,1.7,0.3,2.2,0.9
			c0.6,0.6,0.8,1.4,0.8,2.6v4.6h-1.3v-4.5c0-1.6-0.7-2.5-2.1-2.5c-0.7,0-1.2,0.2-1.7,0.7c-0.4,0.5-0.7,1.2-0.7,2.1v4.1L208.1,165.8
			L208.1,165.8z"/>
		<path class="st4" d="M220.3,163.3c-0.4,0-0.9-0.1-1.2-0.2l-0.8,0.8c0.1,0.1,0.3,0.2,0.4,0.2c0.2,0.1,0.4,0.1,0.8,0.2
			c0.3,0,0.8,0.1,1.4,0.1c1.1,0.1,1.8,0.3,2.3,0.7s0.7,1,0.7,1.6c0,0.5-0.1,0.9-0.4,1.3c-0.2,0.4-0.6,0.8-1.1,1
			c-0.5,0.3-1.2,0.4-2,0.4c-0.7,0-1.4-0.1-1.9-0.3c-0.6-0.2-1-0.5-1.3-0.9s-0.5-0.9-0.5-1.4c0-0.3,0.1-0.6,0.2-1
			c0.2-0.4,0.5-0.7,0.9-1c-0.2-0.1-0.4-0.2-0.6-0.3c-0.2-0.1-0.3-0.2-0.5-0.4v-0.4l1.4-1.3c-0.6-0.5-0.9-1.2-0.9-2.1
			c0-0.5,0.1-1,0.4-1.4c0.2-0.4,0.6-0.8,1.1-1s1-0.4,1.7-0.4c0.5,0,0.9,0.1,1.2,0.2h2.9v1l-1.5,0.1c0.3,0.5,0.5,1,0.5,1.6
			c0,0.5-0.1,1-0.4,1.4c-0.2,0.4-0.6,0.8-1.1,1C221.6,163.2,221,163.3,220.3,163.3z M218,166.8c0,0.5,0.2,0.9,0.7,1.2s1,0.4,1.7,0.4
			s1.2-0.1,1.6-0.4c0.4-0.3,0.6-0.7,0.6-1.2c0-0.3-0.1-0.6-0.4-0.9s-0.8-0.4-1.5-0.4c-0.6,0-1.1-0.1-1.5-0.2
			c-0.4,0.2-0.7,0.5-0.9,0.8C218.1,166.4,218,166.6,218,166.8z M220.3,162.2c0.6,0,1-0.1,1.4-0.4c0.3-0.3,0.5-0.7,0.5-1.3
			c0-0.5-0.2-1-0.5-1.3s-0.8-0.4-1.4-0.4c-0.6,0-1,0.2-1.4,0.4c-0.3,0.3-0.5,0.7-0.5,1.3s0.2,1,0.5,1.3
			C219.3,162.1,219.8,162.2,220.3,162.2z"/>
		<path class="st4" d="M233.9,166c-0.8,0-1.4-0.2-2-0.5s-1.1-0.8-1.4-1.4c-0.3-0.6-0.5-1.4-0.5-2.2s0.2-1.6,0.5-2.2s0.8-1.1,1.4-1.5
			s1.3-0.5,2-0.5s1.4,0.2,2,0.5s1.1,0.8,1.4,1.5c0.4,0.6,0.5,1.4,0.5,2.2s-0.2,1.6-0.5,2.2c-0.4,0.6-0.8,1.1-1.4,1.4
			S234.7,166,233.9,166z M233.9,164.9c0.5,0,0.9-0.1,1.3-0.3c0.4-0.2,0.7-0.6,1-1s0.4-1,0.4-1.7s-0.1-1.2-0.4-1.7
			c-0.2-0.4-0.6-0.8-1-1s-0.8-0.3-1.3-0.3s-0.9,0.1-1.3,0.3c-0.4,0.2-0.7,0.6-1,1c-0.2,0.5-0.4,1-0.4,1.7s0.1,1.2,0.4,1.7
			c0.2,0.5,0.6,0.8,0.9,1C233,164.7,233.5,164.9,233.9,164.9z"/>
		<path class="st4" d="M240.2,165.8V159H239v-1.1h1.2v-1.4c0-0.8,0.2-1.3,0.6-1.7c0.4-0.4,0.9-0.5,1.7-0.5h0.8v1.1h-0.6
			c-0.4,0-0.7,0.1-0.9,0.2c-0.2,0.2-0.3,0.5-0.3,0.8v1.3h1.9v1.1h-1.9v6.8L240.2,165.8L240.2,165.8z"/>
		<path class="st4" d="M31.1,188c-1,0-1.7-0.2-2.4-0.7c-0.6-0.5-1-1.1-1.1-2H29c0.1,0.4,0.3,0.8,0.7,1.1c0.4,0.3,0.8,0.5,1.5,0.5
			c0.6,0,1-0.1,1.2-0.4c0.3-0.2,0.4-0.5,0.4-0.9c0-0.5-0.2-0.8-0.5-1c-0.4-0.2-0.8-0.3-1.5-0.4c-0.4-0.1-0.8-0.2-1.3-0.4
			c-0.4-0.2-0.8-0.4-1.1-0.7c-0.3-0.3-0.4-0.7-0.4-1.2c0-0.7,0.3-1.3,0.8-1.7s1.2-0.7,2.1-0.7c0.8,0,1.5,0.2,2.1,0.6
			c0.5,0.4,0.8,1,0.9,1.8h-1.3c0-0.4-0.2-0.7-0.5-0.9c-0.3-0.2-0.7-0.3-1.2-0.3s-0.8,0.1-1.1,0.3c-0.3,0.2-0.4,0.5-0.4,0.8
			s0.2,0.6,0.5,0.8s0.8,0.3,1.4,0.5c0.5,0.1,1,0.2,1.4,0.4c0.4,0.1,0.8,0.4,1.1,0.7s0.4,0.7,0.4,1.3c0,0.7-0.3,1.3-0.8,1.8
			C32.7,187.8,32,188,31.1,188z"/>
		<path class="st4" d="M38.8,187.8c-0.7,0-1.3-0.2-1.7-0.5s-0.6-1-0.6-1.9V181h-1.4v-1.1h1.4l0.2-1.9h1.2v1.9h2.3v1.1h-2.3v4.4
			c0,0.5,0.1,0.8,0.3,1s0.6,0.3,1.1,0.3h0.8v1.1H38.8z"/>
		<path class="st4" d="M44.5,188c-0.7,0-1.2-0.1-1.6-0.3c-0.4-0.2-0.8-0.5-1-0.9s-0.3-0.8-0.3-1.2c0-0.8,0.3-1.4,0.9-1.9
			c0.6-0.4,1.5-0.7,2.5-0.7h2.1v-0.1c0-0.7-0.2-1.2-0.5-1.6c-0.4-0.4-0.8-0.5-1.5-0.5c-0.5,0-1,0.1-1.3,0.4
			c-0.4,0.3-0.6,0.6-0.7,1.1h-1.4c0-0.6,0.2-1.1,0.6-1.5c0.3-0.4,0.8-0.7,1.3-0.9s1-0.3,1.6-0.3c1.1,0,1.9,0.3,2.5,0.9
			s0.8,1.4,0.8,2.4v4.9h-1.2l-0.1-1.4c-0.2,0.5-0.5,0.8-1,1.1C45.8,187.8,45.2,188,44.5,188z M44.7,186.9c0.5,0,1-0.1,1.3-0.4
			c0.4-0.3,0.7-0.6,0.8-1c0.2-0.4,0.3-0.9,0.3-1.3l0,0h-2c-0.8,0-1.4,0.1-1.7,0.4c-0.3,0.3-0.5,0.6-0.5,1s0.2,0.8,0.5,1
			C43.7,186.7,44.1,186.9,44.7,186.9z"/>
		<path class="st4" d="M50.5,187.8v-7.9h1.2l0.1,1.5c0.2-0.5,0.6-0.9,1.1-1.2s1.1-0.5,1.9-0.5v1.4h-0.4c-0.5,0-0.9,0.1-1.3,0.2
			c-0.4,0.2-0.7,0.5-0.9,0.8c-0.2,0.4-0.3,0.9-0.3,1.6v4L50.5,187.8C50.5,187.7,50.5,187.8,50.5,187.8z"/>
		<path class="st4" d="M59.5,187.8c-0.7,0-1.3-0.2-1.7-0.5c-0.4-0.4-0.6-1-0.6-1.9V181h-1.4v-1.1h1.4l0.2-1.9h1.2v1.9h2.3v1.1h-2.3
			v4.4c0,0.5,0.1,0.8,0.3,1s0.6,0.3,1.1,0.3h0.8v1.1H59.5z"/>
		<path class="st4" d="M63.3,178.1c-0.3,0-0.5-0.1-0.7-0.3s-0.3-0.4-0.3-0.7s0.1-0.5,0.3-0.6c0.2-0.2,0.4-0.3,0.7-0.3
			s0.5,0.1,0.7,0.3c0.2,0.2,0.3,0.4,0.3,0.6c0,0.3-0.1,0.5-0.3,0.7C63.8,178,63.6,178.1,63.3,178.1z M62.7,187.8v-7.9H64v7.9H62.7z"
			/>
		<path class="st4" d="M66.3,187.8v-7.9h1.2l0.1,1.4c0.3-0.5,0.6-0.9,1.1-1.2s1-0.4,1.6-0.4c0.9,0,1.7,0.3,2.2,0.9
			c0.6,0.6,0.8,1.4,0.8,2.6v4.6H72v-4.5c0-1.6-0.7-2.5-2.1-2.5c-0.7,0-1.2,0.2-1.7,0.7s-0.7,1.2-0.7,2.1v4.1L66.3,187.8L66.3,187.8z
			"/>
		<path class="st4" d="M78.6,185.3c-0.5,0-0.9-0.1-1.2-0.2l-0.8,0.8c0.1,0.1,0.3,0.2,0.4,0.2s0.4,0.1,0.8,0.2c0.3,0,0.8,0.1,1.4,0.1
			c1.1,0.1,1.8,0.3,2.3,0.7s0.7,1,0.7,1.6c0,0.5-0.1,0.9-0.4,1.3c-0.2,0.4-0.6,0.8-1.2,1c-0.5,0.3-1.2,0.4-2,0.4
			c-0.7,0-1.3-0.1-1.9-0.3c-0.5-0.2-1-0.5-1.3-0.9s-0.5-0.9-0.5-1.4c0-0.3,0.1-0.6,0.2-1c0.2-0.4,0.5-0.7,0.9-1
			c-0.2-0.1-0.4-0.2-0.6-0.3s-0.3-0.2-0.5-0.4v-0.4l1.4-1.3c-0.6-0.5-0.9-1.2-0.9-2.1c0-0.5,0.1-1,0.4-1.4c0.2-0.4,0.6-0.8,1.1-1
			s1-0.4,1.7-0.4c0.5,0,0.9,0.1,1.2,0.2h2.9v1l-1.5,0.1c0.3,0.5,0.5,1,0.5,1.6c0,0.5-0.1,1-0.4,1.4c-0.2,0.4-0.6,0.8-1.1,1
			C79.9,185.2,79.3,185.3,78.6,185.3z M76.3,188.8c0,0.5,0.2,0.9,0.7,1.2s1,0.4,1.7,0.4s1.2-0.1,1.6-0.4s0.6-0.7,0.6-1.2
			c0-0.3-0.1-0.6-0.4-0.9s-0.8-0.4-1.5-0.4c-0.6,0-1.1-0.1-1.5-0.2c-0.4,0.2-0.7,0.5-0.9,0.8C76.4,188.4,76.3,188.6,76.3,188.8z
			 M78.6,184.2c0.6,0,1-0.1,1.3-0.4s0.5-0.7,0.5-1.3c0-0.5-0.2-1-0.5-1.3s-0.8-0.4-1.3-0.4c-0.6,0-1,0.2-1.4,0.4
			c-0.3,0.3-0.5,0.7-0.5,1.3s0.2,1,0.5,1.3C77.6,184.1,78.1,184.2,78.6,184.2z"/>
		<path class="st4" d="M91.2,188c-0.7,0-1.2-0.1-1.7-0.3c-0.4-0.2-0.8-0.5-1-0.9s-0.3-0.8-0.3-1.2c0-0.8,0.3-1.4,0.9-1.9
			c0.6-0.4,1.5-0.7,2.5-0.7h2.1v-0.1c0-0.7-0.2-1.2-0.5-1.6c-0.4-0.4-0.9-0.5-1.5-0.5c-0.5,0-1,0.1-1.3,0.4
			c-0.4,0.3-0.6,0.6-0.7,1.1h-1.4c0-0.6,0.2-1.1,0.6-1.5c0.3-0.4,0.8-0.7,1.3-0.9s1-0.3,1.6-0.3c1.1,0,1.9,0.3,2.5,0.9
			s0.8,1.4,0.8,2.4v4.9h-1.2l-0.1-1.4c-0.2,0.5-0.6,0.8-1,1.1C92.5,187.8,91.9,188,91.2,188z M91.4,186.9c0.5,0,0.9-0.1,1.3-0.4
			s0.7-0.6,0.8-1c0.2-0.4,0.3-0.9,0.3-1.3l0,0h-2c-0.8,0-1.3,0.1-1.7,0.4c-0.3,0.3-0.5,0.6-0.5,1s0.2,0.8,0.5,1
			C90.4,186.7,90.9,186.9,91.4,186.9z"/>
		<path class="st4" d="M97.2,187.8v-7.9h1.2l0.1,1.4c0.3-0.5,0.6-0.9,1.1-1.2s1-0.4,1.6-0.4c0.9,0,1.7,0.3,2.2,0.9
			c0.6,0.6,0.8,1.4,0.8,2.6v4.6h-1.3v-4.5c0-1.6-0.7-2.5-2-2.5c-0.7,0-1.2,0.2-1.7,0.7c-0.4,0.5-0.7,1.2-0.7,2.1v4.1L97.2,187.8
			L97.2,187.8z"/>
		<path class="st4" d="M113.3,188c-0.7,0-1.2-0.1-1.7-0.3c-0.4-0.2-0.8-0.5-1-0.9s-0.3-0.8-0.3-1.2c0-0.8,0.3-1.4,0.9-1.9
			c0.6-0.4,1.5-0.7,2.5-0.7h2.1v-0.1c0-0.7-0.2-1.2-0.5-1.6c-0.4-0.4-0.9-0.5-1.5-0.5c-0.5,0-1,0.1-1.4,0.4s-0.6,0.6-0.7,1.1h-1.4
			c0.1-0.6,0.2-1.1,0.6-1.5c0.3-0.4,0.8-0.7,1.3-0.9s1-0.3,1.6-0.3c1.1,0,1.9,0.3,2.5,0.9s0.8,1.4,0.8,2.4v4.9h-1.2l-0.1-1.4
			c-0.2,0.5-0.6,0.8-1,1.1C114.5,187.8,114,188,113.3,188z M113.5,186.9c0.5,0,0.9-0.1,1.3-0.4c0.4-0.3,0.6-0.6,0.8-1
			s0.3-0.9,0.3-1.3l0,0h-2c-0.8,0-1.3,0.1-1.7,0.4c-0.3,0.3-0.5,0.6-0.5,1s0.1,0.8,0.5,1C112.5,186.7,112.9,186.9,113.5,186.9z"/>
		<path class="st4" d="M122.3,188c-0.9,0-1.7-0.2-2.4-0.7c-0.6-0.5-1-1.1-1.1-2h1.4c0.1,0.4,0.3,0.8,0.7,1.1
			c0.4,0.3,0.8,0.5,1.4,0.5s1-0.1,1.2-0.4c0.3-0.2,0.4-0.5,0.4-0.9c0-0.5-0.2-0.8-0.5-1s-0.8-0.3-1.5-0.4c-0.4-0.1-0.9-0.2-1.3-0.4
			s-0.8-0.4-1.1-0.7c-0.3-0.3-0.4-0.7-0.4-1.2c0-0.7,0.3-1.3,0.8-1.7s1.2-0.7,2.1-0.7c0.8,0,1.5,0.2,2.1,0.6c0.5,0.4,0.8,1,0.9,1.8
			h-1.3c-0.1-0.4-0.2-0.7-0.5-0.9s-0.7-0.3-1.2-0.3s-0.8,0.1-1.1,0.3c-0.3,0.2-0.4,0.5-0.4,0.8s0.2,0.6,0.5,0.8s0.8,0.3,1.4,0.5
			c0.5,0.1,1,0.2,1.4,0.4s0.8,0.4,1.1,0.7c0.3,0.3,0.4,0.7,0.4,1.3c0,0.7-0.3,1.3-0.8,1.8C124,187.8,123.2,188,122.3,188z"/>
		<path class="st4" d="M130.3,188c-0.9,0-1.7-0.2-2.4-0.7c-0.6-0.5-1-1.1-1.1-2h1.4c0.1,0.4,0.3,0.8,0.7,1.1s0.8,0.5,1.4,0.5
			c0.6,0,1-0.1,1.2-0.4c0.3-0.2,0.4-0.5,0.4-0.9c0-0.5-0.2-0.8-0.5-1s-0.8-0.3-1.5-0.4c-0.4-0.1-0.9-0.2-1.3-0.4
			c-0.4-0.2-0.8-0.4-1.1-0.7s-0.4-0.7-0.4-1.2c0-0.7,0.3-1.3,0.8-1.7s1.2-0.7,2.1-0.7c0.8,0,1.5,0.2,2.1,0.6c0.5,0.4,0.8,1,0.9,1.8
			h-1.3c-0.1-0.4-0.2-0.7-0.5-0.9s-0.7-0.3-1.2-0.3s-0.8,0.1-1.1,0.3s-0.4,0.5-0.4,0.8s0.2,0.6,0.5,0.8s0.8,0.3,1.4,0.5
			c0.5,0.1,1,0.2,1.4,0.4s0.8,0.4,1.1,0.7s0.4,0.7,0.4,1.3c0,0.7-0.3,1.3-0.8,1.8C132,187.8,131.2,188,130.3,188z"/>
		<path class="st4" d="M136.1,178.1c-0.3,0-0.5-0.1-0.7-0.3s-0.3-0.4-0.3-0.7s0.1-0.5,0.3-0.6c0.2-0.2,0.4-0.3,0.7-0.3
			s0.5,0.1,0.7,0.3s0.3,0.4,0.3,0.6c0,0.3-0.1,0.5-0.3,0.7S136.3,178.1,136.1,178.1z M135.4,187.8v-7.9h1.3v7.9H135.4z"/>
		<path class="st4" d="M142.2,185.3c-0.4,0-0.9-0.1-1.2-0.2l-0.8,0.8c0.1,0.1,0.3,0.2,0.4,0.2c0.2,0.1,0.4,0.1,0.8,0.2
			c0.3,0,0.8,0.1,1.4,0.1c1.1,0.1,1.8,0.3,2.3,0.7s0.7,1,0.7,1.6c0,0.5-0.1,0.9-0.4,1.3c-0.2,0.4-0.6,0.8-1.2,1
			c-0.5,0.3-1.2,0.4-2,0.4c-0.7,0-1.4-0.1-1.9-0.3s-1-0.5-1.3-0.9s-0.5-0.9-0.5-1.4c0-0.3,0.1-0.6,0.2-1c0.2-0.4,0.5-0.7,0.9-1
			c-0.2-0.1-0.4-0.2-0.6-0.3c-0.2-0.1-0.3-0.2-0.5-0.4v-0.4l1.4-1.3c-0.6-0.5-0.9-1.2-0.9-2.1c0-0.5,0.1-1,0.4-1.4
			c0.2-0.4,0.6-0.8,1.1-1s1-0.4,1.7-0.4c0.5,0,0.9,0.1,1.2,0.2h2.9v1l-1.5,0.1c0.3,0.5,0.5,1,0.5,1.6c0,0.5-0.1,1-0.4,1.4
			c-0.2,0.4-0.6,0.8-1.1,1C143.5,185.2,142.9,185.3,142.2,185.3z M139.9,188.8c0,0.5,0.2,0.9,0.7,1.2c0.4,0.3,1,0.4,1.7,0.4
			s1.2-0.1,1.6-0.4c0.4-0.3,0.6-0.7,0.6-1.2c0-0.3-0.1-0.6-0.4-0.9s-0.8-0.4-1.5-0.4c-0.6,0-1.1-0.1-1.5-0.2
			c-0.4,0.2-0.7,0.5-0.9,0.8C140,188.4,139.9,188.6,139.9,188.8z M142.2,184.2c0.6,0,1-0.1,1.3-0.4s0.5-0.7,0.5-1.3
			c0-0.5-0.2-1-0.5-1.3s-0.8-0.4-1.3-0.4c-0.6,0-1,0.2-1.4,0.4c-0.3,0.3-0.5,0.7-0.5,1.3s0.2,1,0.5,1.3
			C141.2,184.1,141.7,184.2,142.2,184.2z"/>
		<path class="st4" d="M147.9,187.8v-7.9h1.2l0.1,1.4c0.3-0.5,0.6-0.9,1.1-1.2s1-0.4,1.6-0.4c0.9,0,1.7,0.3,2.2,0.9
			c0.6,0.6,0.8,1.4,0.8,2.6v4.6h-1.3v-4.5c0-1.6-0.7-2.5-2.1-2.5c-0.7,0-1.2,0.2-1.7,0.7c-0.4,0.5-0.7,1.2-0.7,2.1v4.1L147.9,187.8
			L147.9,187.8z"/>
		<path class="st4" d="M157.1,187.8v-7.9h1.2l0.1,1.1c0.3-0.4,0.6-0.8,1-1s0.9-0.4,1.4-0.4c0.6,0,1.2,0.1,1.6,0.4
			c0.4,0.3,0.8,0.6,1,1.2c0.3-0.5,0.7-0.9,1.1-1.1c0.5-0.3,1-0.4,1.6-0.4c0.9,0,1.7,0.3,2.3,0.9s0.9,1.5,0.9,2.6v4.6H168v-4.5
			c0-0.8-0.2-1.4-0.5-1.9c-0.3-0.4-0.8-0.6-1.4-0.6c-0.6,0-1.2,0.2-1.6,0.7c-0.4,0.5-0.6,1.2-0.6,2.1v4.1h-1.3v-4.5
			c0-0.8-0.2-1.4-0.5-1.9c-0.3-0.4-0.8-0.6-1.4-0.6c-0.6,0-1.2,0.2-1.6,0.7c-0.4,0.5-0.6,1.2-0.6,2.1v4.1L157.1,187.8L157.1,187.8z"
			/>
		<path class="st4" d="M175,188c-0.8,0-1.4-0.2-2-0.5c-0.6-0.4-1-0.8-1.4-1.5c-0.3-0.6-0.5-1.4-0.5-2.2s0.2-1.6,0.5-2.2
			s0.8-1.1,1.4-1.5c0.6-0.4,1.3-0.5,2.1-0.5s1.4,0.2,2,0.5s1,0.8,1.3,1.4s0.4,1.2,0.4,1.8c0,0.1,0,0.2,0,0.3s0,0.2,0,0.4h-6.3
			c0,0.6,0.2,1.1,0.4,1.5s0.6,0.7,0.9,0.9c0.4,0.2,0.8,0.3,1.2,0.3c0.6,0,1-0.1,1.4-0.4s0.7-0.6,0.8-1h1.3c-0.2,0.7-0.6,1.4-1.2,1.8
			C176.7,187.8,175.9,188,175,188z M175,180.8c-0.6,0-1.2,0.2-1.7,0.6s-0.8,1-0.9,1.7h5c0-0.7-0.3-1.3-0.7-1.7
			C176.2,181,175.6,180.8,175,180.8z"/>
		<path class="st4" d="M180.5,187.8v-7.9h1.2l0.1,1.4c0.3-0.5,0.6-0.9,1.1-1.2s1-0.4,1.6-0.4c0.9,0,1.7,0.3,2.2,0.9
			c0.6,0.6,0.8,1.4,0.8,2.6v4.6h-1.3v-4.5c0-1.6-0.7-2.5-2.1-2.5c-0.7,0-1.2,0.2-1.7,0.7s-0.7,1.2-0.7,2.1v4.1L180.5,187.8
			L180.5,187.8z"/>
		<path class="st4" d="M192.8,187.8c-0.7,0-1.3-0.2-1.7-0.5s-0.6-1-0.6-1.9V181h-1.4v-1.1h1.4l0.2-1.9h1.2v1.9h2.3v1.1h-2.3v4.4
			c0,0.5,0.1,0.8,0.3,1s0.6,0.3,1.1,0.3h0.8v1.1H192.8z"/>
		<path class="st4" d="M202.7,188c-0.7,0-1.2-0.1-1.7-0.3c-0.4-0.2-0.8-0.5-1-0.9s-0.3-0.8-0.3-1.2c0-0.8,0.3-1.4,0.9-1.9
			c0.6-0.4,1.5-0.7,2.5-0.7h2.1v-0.1c0-0.7-0.2-1.2-0.5-1.6c-0.4-0.4-0.8-0.5-1.5-0.5c-0.5,0-1,0.1-1.4,0.4s-0.6,0.6-0.7,1.1h-1.2
			c0.1-0.6,0.2-1.1,0.6-1.5c0.3-0.4,0.8-0.7,1.3-0.9s1-0.3,1.6-0.3c1.1,0,1.9,0.3,2.5,0.9s0.8,1.4,0.8,2.4v4.9h-1.2l-0.1-1.4
			c-0.2,0.5-0.6,0.8-1,1.1C204,187.8,203.5,188,202.7,188z M202.9,186.9c0.5,0,0.9-0.1,1.3-0.4c0.4-0.3,0.6-0.6,0.8-1
			s0.3-0.9,0.3-1.3l0,0h-2c-0.8,0-1.3,0.1-1.7,0.4c-0.3,0.3-0.5,0.6-0.5,1s0.2,0.8,0.5,1C201.9,186.7,202.4,186.9,202.9,186.9z"/>
		<path class="st4" d="M211.7,187.8c-0.7,0-1.3-0.2-1.7-0.5c-0.4-0.4-0.6-1-0.6-1.9V181h-1.5v-1.1h1.4l0.2-1.9h1.2v1.9h2.3v1.1h-2.3
			v4.4c0,0.5,0.1,0.8,0.3,1s0.6,0.3,1.1,0.3h0.8v1.1H211.7z"/>
		<path class="st4" d="M220.1,187.8v-9.7l-1.8,0.4v-0.9l2.3-1h0.9v11.2H220.1L220.1,187.8z"/>
		<path class="st4" d="M225,187.8v-9.7l-1.8,0.4v-0.9l2.3-1h0.9v11.2H225L225,187.8z"/>
		<path class="st4" d="M228.6,191.3v-11.5h1.2l0.1,1.3c0.3-0.4,0.6-0.7,1.1-1s1.1-0.5,1.8-0.5c0.8,0,1.5,0.2,2.1,0.5
			c0.6,0.4,1,0.9,1.4,1.5c0.3,0.6,0.5,1.3,0.5,2.1s-0.2,1.5-0.5,2.1s-0.8,1.1-1.4,1.5s-1.3,0.5-2.1,0.5c-0.7,0-1.2-0.1-1.7-0.4
			s-0.9-0.6-1.2-1.1v4.8h-1.3L228.6,191.3L228.6,191.3z M232.7,186.8c0.5,0,1-0.1,1.4-0.4c0.4-0.2,0.7-0.6,1-1.1
			c0.2-0.4,0.3-1,0.3-1.6s-0.1-1.1-0.3-1.6s-0.6-0.8-1-1.1c-0.4-0.2-0.9-0.4-1.4-0.4s-1,0.1-1.4,0.4s-0.7,0.6-1,1.1
			c-0.2,0.4-0.3,1-0.3,1.6s0.1,1.1,0.3,1.6s0.6,0.8,1,1.1C231.7,186.7,232.2,186.8,232.7,186.8z"/>
		<path class="st4" d="M238.7,187.8v-7.9h1.2l0.1,1.1c0.3-0.4,0.6-0.8,1-1s0.9-0.4,1.4-0.4c0.6,0,1.2,0.1,1.6,0.4s0.8,0.6,1,1.2
			c0.3-0.5,0.7-0.9,1.1-1.1c0.5-0.3,1-0.4,1.6-0.4c1,0,1.7,0.3,2.3,0.9s0.8,1.5,0.8,2.6v4.6h-1.3v-4.5c0-0.8-0.2-1.4-0.5-1.9
			c-0.3-0.4-0.8-0.6-1.4-0.6s-1.2,0.2-1.6,0.7s-0.6,1.2-0.6,2.1v4.1h-1.3v-4.5c0-0.8-0.2-1.4-0.5-1.9c-0.3-0.4-0.8-0.6-1.4-0.6
			s-1.1,0.2-1.6,0.7c-0.4,0.5-0.6,1.2-0.6,2.1v4.1L238.7,187.8L238.7,187.8z"/>
		<path class="st4" d="M253.9,187.9c-0.3,0-0.5-0.1-0.7-0.3s-0.3-0.4-0.3-0.6c0-0.3,0.1-0.5,0.3-0.7s0.4-0.3,0.7-0.3
			s0.5,0.1,0.6,0.3c0.2,0.2,0.3,0.4,0.3,0.7s-0.1,0.5-0.3,0.6C254.4,187.8,254.1,187.9,253.9,187.9z M253.3,184.7l-0.2-8.1h1.5
			l-0.2,8.1H253.3z"/>
		<path class="st5" d="M98.6,65.9l-16.5,61h110.2l-64.2-72.5L98.6,65.9z"/>
		<path class="st6" d="M62.8,122L43.9,77.3l35-39.4l32.7,13.3"/>
		<path class="st7" d="M122,62.3c1.2,2.9-1.4,6.7-5.8,8.5s-8.9,0.8-10.1-2.1"/>
		<path class="st8" d="M45.5,82.6c2.8,0,5.1-2.3,5.1-5.1s-2.3-5.1-5.1-5.1s-5.1,2.3-5.1,5.1S42.7,82.6,45.5,82.6z"/>
		<path class="st8" d="M79.1,43.9c2.8,0,5.1-2.3,5.1-5.1s-2.3-5.1-5.1-5.1c-2.8,0-5.1,2.3-5.1,5.1C74,41.6,76.3,43.9,79.1,43.9z"/>
		<path class="st8" d="M96.3,73.3c-4-9.9,0.8-21.2,10.8-25.1s21.2,0.9,25.1,10.8L96.3,73.3z"/>
		<path class="st8" d="M75.1,126.9H46.6c-1.7,0-3-1.4-3-3l0,0c0-2.7,2.2-4.9,4.9-4.9h24.9c2.7,0,4.9,2.2,4.9,4.9l0,0
			C78.1,125.5,76.8,126.9,75.1,126.9z"/>
		<path class="st0" d="M170.3,123.9l-76.6-0.3c-0.7,0-2.3-1-2.4-1.5l-0.1-13.4l75.8-2.1c1.4,0,2.6,1.1,2.7,2.5L170.3,123.9z"/>
		<path class="st8" d="M169.9,123.2l-76.4-0.1c-0.7,0-1.4-0.4-1.4-0.9v-1.4l0,0l-0.3-12.1l0,0c-1,0-1.9,0.9-1.9,1.9l0.1,10.3l0,0
			l0.1,2.3c0,0.7,0.9,1.2,1.9,1.2l77.9,0.1c0.6,0,1-0.3,1-0.6C170.9,123.5,170.5,123.2,169.9,123.2z"/>
		<path class="st9" d="M95.1,116.2l69.4-1.2"/>
		<path class="st9" d="M94.7,112.2L164,110"/>
		<path class="st9" d="M95.1,120.3l69,0.3"/>
		<path class="st1" d="M204.8,135.3H21.6v-0.7c0-5.6,4.5-10.1,10.1-10.1h163.9c5.1,0,9.2,4.1,9.2,9.2V135.3L204.8,135.3z"/>
	</g>
</g>
</svg>
