<?xml version="1.0" encoding="utf-8"?>
<!-- Generator: Adobe Illustrator 25.1.0, SVG Export Plug-In . SVG Version: 6.00 Build 0)  -->
<svg version="1.1" id="Layer_1" xmlns="http://www.w3.org/2000/svg" xmlns:xlink="http://www.w3.org/1999/xlink" x="0px" y="0px"
	 viewBox="0 0 325.3 151.6" style="enable-background:new 0 0 325.3 151.6;" xml:space="preserve">
<style type="text/css">
	.st0{fill:#FFFFFF;}
	.st1{fill:#808080;}
	.st2{fill:#00CDDC;}
	.st3{fill:#FF9F1A;}
	.st4{fill:none;stroke:#F0A282;stroke-width:0.8134;stroke-linecap:round;stroke-miterlimit:10;}
	.st5{fill:#E14504;}
	.st6{fill:#DCE3E5;}
	.st7{fill:#E97443;}
	.st8{fill:none;stroke:#FFFFFF;stroke-width:1.5525;stroke-linecap:round;stroke-miterlimit:10;}
	.st9{fill:none;stroke:#F0A282;stroke-width:0.9955;stroke-linecap:round;stroke-miterlimit:10;}
</style>
<g>
	<g>
		<path class="st0" d="M323.7,108.9c0-98.5,15.5-97.5-49.4-105C247.1,0.8,141.1-0.3,104.8,0C69.1,0.4,11.6-0.9,5.3,14.2
			c-6.2,15-5.2,34-5.2,60.8c0,42.2,1.7,68.3,38.3,73.7c37.2,5.4,143.3,1.7,188.2,1C273.1,149,323.7,151.9,323.7,108.9z"/>
		<path class="st1" d="M197,30c-1.1,0-2.1-0.2-2.9-0.7s-1.5-1.2-1.9-2c-0.5-0.9-0.7-1.9-0.7-3s0.2-2.2,0.7-3c0.5-0.9,1.1-1.5,1.9-2
			s1.8-0.7,2.9-0.7c1.1,0,2.1,0.2,2.9,0.7c0.8,0.5,1.5,1.2,1.9,2s0.7,1.9,0.7,3s-0.2,2.1-0.7,3s-1.1,1.6-1.9,2S198.1,30,197,30z
			 M197,28.8c0.8,0,1.5-0.2,2.2-0.5c0.6-0.4,1.1-0.9,1.5-1.6c0.3-0.7,0.5-1.5,0.5-2.5s-0.2-1.8-0.5-2.5c-0.4-0.7-0.8-1.2-1.5-1.6
			c-0.6-0.4-1.3-0.5-2.2-0.5c-0.8,0-1.5,0.2-2.2,0.5s-1.1,0.9-1.5,1.6c-0.3,0.7-0.5,1.5-0.5,2.5s0.2,1.8,0.5,2.5
			c0.4,0.7,0.8,1.2,1.5,1.6S196.2,28.8,197,28.8z"/>
		<path class="st1" d="M206.7,29.8l-3-7.9h1.4l2.4,6.6l2.4-6.6h1.4l-3,7.9H206.7z"/>
		<path class="st1" d="M215.9,30c-0.8,0-1.4-0.2-2-0.5s-1.1-0.8-1.4-1.4c-0.3-0.6-0.5-1.4-0.5-2.2s0.2-1.6,0.5-2.2s0.8-1.1,1.4-1.5
			s1.3-0.5,2.1-0.5s1.4,0.2,2,0.5s1,0.8,1.3,1.4s0.5,1.2,0.5,1.8c0,0.1,0,0.2,0,0.3s0,0.2,0,0.4h-6.3c0,0.6,0.2,1.1,0.4,1.5
			s0.6,0.7,0.9,0.9c0.4,0.2,0.8,0.3,1.2,0.3c0.6,0,1-0.1,1.4-0.4s0.6-0.6,0.8-1h1.3c-0.2,0.7-0.6,1.4-1.2,1.8
			C217.6,29.7,216.8,30,215.9,30z M215.9,22.8c-0.6,0-1.2,0.2-1.7,0.6s-0.8,1-0.9,1.7h5c0-0.7-0.3-1.3-0.7-1.7
			C217.1,23,216.6,22.8,215.9,22.8z"/>
		<path class="st1" d="M221.4,29.8v-7.9h1.2l0.1,1.5c0.2-0.5,0.6-0.9,1.1-1.2s1.1-0.5,1.9-0.5v1.4h-0.4c-0.5,0-0.9,0.1-1.3,0.2
			c-0.4,0.2-0.7,0.4-0.9,0.8s-0.3,0.9-0.3,1.6v4h-1.4L221.4,29.8L221.4,29.8z"/>
		<path class="st1" d="M234.6,29.8c-0.7,0-1.3-0.2-1.7-0.5c-0.4-0.4-0.6-1-0.6-1.9V23h-1.4v-1.1h1.4l0.2-1.9h1.2v1.9h2.3V23h-2.3
			v4.4c0,0.5,0.1,0.8,0.3,1s0.6,0.3,1.1,0.3h0.8v1.1H234.6L234.6,29.8z"/>
		<path class="st1" d="M238.5,20.1c-0.3,0-0.5-0.1-0.7-0.3s-0.3-0.4-0.3-0.7s0.1-0.5,0.3-0.6c0.2-0.2,0.4-0.3,0.7-0.3
			s0.5,0.1,0.7,0.3s0.3,0.4,0.3,0.6c0,0.3-0.1,0.5-0.3,0.7S238.7,20.1,238.5,20.1z M237.8,29.8v-7.9h1.3v7.9H237.8z"/>
		<path class="st1" d="M241.5,29.8v-7.9h1.2l0.1,1.2c0.3-0.4,0.6-0.8,1-1s0.9-0.4,1.4-0.4c0.6,0,1.2,0.1,1.6,0.4
			c0.5,0.3,0.8,0.7,1,1.2c0.3-0.5,0.7-0.9,1.1-1.1c0.5-0.3,1-0.4,1.6-0.4c1,0,1.7,0.3,2.3,0.9s0.8,1.4,0.8,2.6v4.6h-1.3v-4.6
			c0-0.8-0.2-1.4-0.5-1.9s-0.8-0.6-1.4-0.6s-1.2,0.2-1.6,0.7s-0.6,1.2-0.6,2.1v4.1h-1.3v-4.4c0-0.8-0.2-1.4-0.5-1.9
			c-0.3-0.4-0.8-0.6-1.4-0.6s-1.1,0.2-1.6,0.7c-0.4,0.5-0.6,1.2-0.6,2.1v4.1L241.5,29.8L241.5,29.8z"/>
		<path class="st1" d="M259.4,30c-0.8,0-1.4-0.2-2-0.5s-1.1-0.8-1.4-1.4s-0.5-1.4-0.5-2.2s0.2-1.6,0.5-2.2s0.8-1.1,1.4-1.5
			s1.3-0.5,2.1-0.5c0.8,0,1.4,0.2,2,0.5s1,0.8,1.3,1.4s0.5,1.2,0.5,1.8c0,0.1,0,0.2,0,0.3s0,0.2,0,0.4H257c0,0.6,0.2,1.1,0.4,1.5
			c0.2,0.4,0.6,0.7,0.9,0.9c0.4,0.2,0.8,0.3,1.2,0.3c0.6,0,1-0.1,1.4-0.4s0.6-0.6,0.8-1h1.3c-0.2,0.7-0.6,1.4-1.2,1.8
			C261.1,29.7,260.3,30,259.4,30z M259.4,22.8c-0.6,0-1.2,0.2-1.7,0.6s-0.8,1-0.9,1.7h5c0-0.7-0.3-1.3-0.7-1.7
			C260.6,23,260.1,22.8,259.4,22.8z"/>
		<path class="st1" d="M272.3,29.8c-0.7,0-1.3-0.2-1.7-0.5c-0.4-0.4-0.6-1-0.6-1.9V23h-1.4v-1.1h1.4l0.2-1.9h1.2v1.9h2.3V23h-2.3
			v4.4c0,0.5,0.1,0.8,0.3,1c0.2,0.2,0.6,0.3,1.1,0.3h0.8v1.1H272.3L272.3,29.8z"/>
		<path class="st1" d="M275.3,29.8V18.3h1.3v4.9c0.3-0.5,0.7-0.9,1.1-1.1c0.5-0.3,1-0.4,1.6-0.4c0.9,0,1.6,0.3,2.2,0.9
			c0.5,0.6,0.8,1.5,0.8,2.6v4.6H281v-4.5c0-1.6-0.7-2.5-2-2.5c-0.7,0-1.3,0.2-1.7,0.7c-0.5,0.5-0.7,1.2-0.7,2.1v4.1L275.3,29.8
			L275.3,29.8z"/>
		<path class="st1" d="M285.3,20.1c-0.3,0-0.5-0.1-0.7-0.3s-0.3-0.4-0.3-0.7s0.1-0.5,0.3-0.6c0.2-0.2,0.4-0.3,0.7-0.3
			s0.5,0.1,0.7,0.3s0.3,0.4,0.3,0.6c0,0.3-0.1,0.5-0.3,0.7C285.8,20,285.6,20.1,285.3,20.1z M284.6,29.8v-7.9h1.3v7.9H284.6z"/>
		<path class="st1" d="M291.4,30c-1,0-1.7-0.2-2.4-0.7c-0.6-0.5-1-1.1-1.1-2h1.4c0.1,0.4,0.3,0.8,0.7,1.1c0.4,0.3,0.8,0.5,1.4,0.5
			s1-0.1,1.2-0.4c0.3-0.2,0.4-0.5,0.4-0.9c0-0.5-0.2-0.8-0.5-1c-0.4-0.2-0.8-0.3-1.5-0.4c-0.4-0.1-0.9-0.2-1.3-0.4s-0.8-0.4-1.1-0.7
			c-0.3-0.3-0.4-0.7-0.4-1.2c0-0.7,0.3-1.3,0.8-1.7s1.2-0.7,2.1-0.7c0.8,0,1.5,0.2,2.1,0.6c0.5,0.4,0.9,1,0.9,1.8h-1.3
			c-0.1-0.4-0.2-0.7-0.5-1c-0.3-0.2-0.7-0.3-1.2-0.3s-0.9,0.1-1.1,0.3c-0.3,0.2-0.4,0.5-0.4,0.8s0.2,0.6,0.5,0.8s0.8,0.3,1.4,0.5
			c0.5,0.1,1,0.2,1.4,0.4c0.4,0.1,0.8,0.4,1.1,0.7c0.3,0.3,0.4,0.7,0.4,1.3c0,0.7-0.3,1.3-0.8,1.8C293.1,29.8,292.3,30,291.4,30z"/>
		<path class="st2" d="M194.2,42c0.5-0.2,1.1-0.2,1.9-0.2c0.8,0,1.5,0.1,1.9,0.2c0.7,0.3,1.3,0.9,1.7,1.7c0.2,0.4,0.3,1.1,0.5,2.2
			s0.2,2,0.2,2.9c0,0.4,0,0.7,0,0.8c-0.1,0.7-0.3,1.5-0.6,2.3c-0.3,0.9-0.5,1.3-0.7,1.3s-0.3,0.2-0.3,0.5s0.1,0.6,0.3,0.9
			c0.4,0.6,1.1,1.8,1.9,3.6c0.8,1.7,1.3,2.8,1.3,3.3c0,0.1,0,0.3,0,0.6c0,0.4-0.1,0.7-0.3,1s-0.5,0.5-0.8,0.5s-0.5,0-0.8,0
			c-0.7-0.1-1.1-0.2-1.3-0.3s-0.3-0.3-0.3-0.7c0-0.6-0.3-1.4-0.9-2.6c-0.6-1.1-1-1.7-1.3-1.7l0,0c-0.1,0.1-0.1,0.4-0.1,0.9
			c0,0.8,0.1,1.8,0.2,2.8c0.1,0.4,0.1,0.8,0.1,0.9c0,1-0.2,1.5-0.6,1.8c-0.2,0.1-0.4,0.1-0.7,0.1c-0.9,0-1.5-0.2-1.7-0.6
			c-0.1-0.2-0.2-2.1-0.3-5.7c0-1.1-0.1-2.4-0.1-3.7s0-2.3,0-2.9s0-1.4-0.1-2.4s-0.2-2-0.3-3.2c-0.1-1.3-0.2-2.1-0.2-2.4
			c0-0.7,0.1-1.1,0.3-1.4C193.3,42.3,193.7,42.1,194.2,42z M196.8,45.1c-0.1-0.2-0.2-0.3-0.5-0.3c-0.2,0-0.3,0.1-0.4,0.3
			c-0.1,0.2-0.1,0.4,0,0.5c0,0,0.1,0.9,0.2,2.7c0.1,1.8,0.2,2.7,0.3,2.8s0.2-0.1,0.4-0.3s0.2-0.7,0.2-1.4c0-0.5,0-1,0-1.4
			C197,46.3,196.9,45.4,196.8,45.1z"/>
		<path class="st2" d="M208.7,43.7l0.8-1h5.2l0.8,0.8c0.5,0.5,0.9,1.2,1.1,2c0.2,0.8,0.4,2.1,0.6,3.8c0.1,0.6,0.1,1.6,0.1,2.8
			c0,2.9-0.3,5.4-0.8,7.8s-1.2,3.9-2.1,4.8c-0.3,0.3-0.7,0.5-1.2,0.7s-1,0.3-1.4,0.3c-0.2,0-0.3,0-0.4-0.1c-0.2-0.1-0.5-0.2-0.9-0.2
			c-0.3,0-0.6-0.2-1-0.7s-0.7-1-0.9-1.7c-0.4-1.1-0.6-2.3-0.8-3.6c-0.1-1.3-0.2-3.4-0.2-6.3v-2c0-2.6,0.1-4.4,0.2-5.3
			C207.9,45.1,208.2,44.3,208.7,43.7z M212.6,45.7c-0.2-0.5-0.5-0.8-0.6-0.8c-0.2,0-0.4,0.4-0.7,1.3c-0.2,0.7-0.3,2-0.3,3.9
			c0,1.5,0.1,3.1,0.2,4.8c0.1,1.6,0.3,3.1,0.6,4.5c0.2,1.4,0.5,2.1,0.7,2.1c0.1,0,0.3-0.3,0.4-0.9c0.1-0.5,0.3-0.9,0.5-1.3
			c0.1-0.2,0.2-1.4,0.4-3.7c0.1-1.2,0.1-2.3,0.1-3.3C213.7,49.3,213.3,47.1,212.6,45.7z"/>
		<path class="st2" d="M222.8,41.7c0.3-0.2,0.8-0.4,1.3-0.4c0.6,0,1.1,0.2,1.5,0.5l0.6,0.5v5.1c0.1,6,0.2,10,0.6,12.3
			c0.1,0.4,0.2,0.7,0.2,0.7c0.3,0,0.5-0.9,0.6-2.6c0.4-3.6,0.6-7.1,0.6-10.6v-0.9v-0.5c0-1.9,0.2-3,0.7-3.3c0.1-0.1,0.4-0.2,0.8-0.2
			c0.8,0,1.3,0.1,1.6,0.4c0.4,0.4,0.7,1.6,0.7,3.4c0,1.5-0.1,4.4-0.4,8.6c-0.2,3.5-0.6,6-1.1,7.4c-0.5,1.5-1.4,2.4-2.7,2.8
			c-0.5,0.2-0.8,0.2-1,0.2s-0.6-0.1-1.4-0.5c-1.5-0.7-2.4-1.9-2.6-3.5c-0.2-1.4-0.3-5.9-0.5-13.5c0-1.1,0-2.3,0-3.7
			c0-0.9,0-1.4,0.1-1.7C222.6,42,222.7,41.8,222.8,41.7z"/>
		<path class="st2" d="M238,41.9c0.4-0.3,1-0.5,1.9-0.5h1c1.5,0.1,2.4,0.1,2.7,0.2c0.2,0.1,0.6,0.1,1.2,0.1s1.1,0.2,1.4,0.4
			s0.4,0.6,0.4,1.1s-0.1,0.9-0.3,1.1s-0.6,0.4-1.1,0.5c-0.6,0.1-0.9,0.2-1,0.3s-0.2,2.8-0.2,8c0,3.6,0,6.1,0.1,7.6
			c0.1,1.2,0.1,1.8,0.1,1.9c0,0.6-0.1,1.1-0.4,1.5c-0.3,0.6-0.8,0.8-1.4,0.8c-0.4,0-0.9-0.1-1.3-0.4l-0.8-0.5l0.1-9.6
			c0.1-2.5,0.1-4.9,0.1-7.4c0-1.5-0.1-2.3-0.3-2.4c-0.3-0.2-0.5-0.2-0.6-0.2s-0.3,0-0.5,0c-0.5,0-0.9-0.1-1.3-0.4
			c-0.3-0.3-0.5-0.6-0.5-1C237.3,42.6,237.5,42.2,238,41.9z"/>
		<path class="st2" d="M252.2,41.8c0.3-0.4,0.8-0.5,1.3-0.5s0.9,0.2,1.3,0.5l0.6,0.5l0.2,9.5c0.1,5.2,0.2,8.2,0.2,9c0,0.4,0,0.8,0,1
			c0,0.3,0,0.5,0,0.6c0,0.2-0.1,0.3-0.1,0.4c-0.1,0.1-0.1,0.2-0.1,0.2s-0.1,0.1-0.2,0.1c-0.1,0.1-0.2,0.1-0.2,0.1
			c-0.3,0.2-0.6,0.3-0.8,0.3c-0.1,0-0.4-0.1-0.8-0.2c-0.7-0.3-1-0.5-1.1-0.7c-0.1-0.1-0.2-3.5-0.2-10.1c-0.1-6.6-0.1-10-0.2-10
			C251.8,42.4,251.9,42.1,252.2,41.8z"/>
		<path class="st2" d="M261.9,43.3c0.4-0.2,0.8-0.3,1.3-0.3c0.8,0,1.4,0.5,1.7,1.6c0.2,0.8,0.5,1.7,1,2.6c0.4,0.9,0.7,1.6,0.9,2.2
			c0.3,0.9,0.5,1.5,0.8,1.7c0.1,0.1,0.1,0.2,0.2,0.2s0.2-0.6,0.3-1.8c0.1-1.1,0.1-1.9,0.1-2.3v-0.5c0-0.2,0-0.5,0-0.8
			c0-0.7,0.2-1.2,0.5-1.6s0.9-0.6,1.6-0.6c0.5,0,0.9,0.1,1.2,0.4c0.2,0.2,0.4,0.5,0.4,1s0,1-0.1,1.5s-0.1,3.9-0.2,10.2
			c0,4-0.1,6.3-0.1,7.1c0,0.8-0.1,1.3-0.3,1.5c-0.3,0.3-0.7,0.5-1.3,0.5c-1.2,0-1.9-0.6-2.1-1.8c-0.1-0.5-0.4-1.3-0.8-2.5
			c-0.4-1.1-0.7-2.1-0.8-3c-0.2-1.1-0.6-2.7-1.2-4.6c-0.1-0.2-0.1-0.2-0.1-0.2c-0.1,0-0.2,1.2-0.2,3.5v2v2.2c0,2.3-0.1,3.6-0.2,3.9
			c-0.3,0.8-0.9,1.2-1.8,1.2c-0.5,0-1-0.2-1.3-0.5c-0.2-0.3-0.4-0.6-0.4-0.8c0-0.1,0-0.3,0.1-0.8c0.1-0.9,0.2-4.3,0.2-10.1
			c0-6.5,0.1-9.9,0.2-10.3c0.1-0.2,0.2-0.4,0.5-0.5C261.8,43.4,261.9,43.3,261.9,43.3z"/>
		<path class="st2" d="M278.7,44.3c0.3-0.1,0.8-0.1,1.3-0.1c1.5,0,2.5,0.2,2.9,0.5c0.3,0.2,0.4,0.6,0.4,0.9s-0.1,0.7-0.4,0.9
			s-0.6,0.4-1.1,0.4c-0.4,0-0.7,0.1-0.8,0.3c-0.1,0.2-0.2,0.7-0.2,1.5c0,0.2,0,0.9,0.1,2.1c0.1,1.4,0.1,2.3,0.2,2.7s0.2,0.6,0.3,0.6
			c0,0,0.2,0,0.5,0s0.6,0,0.8,0c0.7,0,1.2,0.2,1.5,0.5c0.2,0.2,0.3,0.4,0.3,0.6c0,0.4-0.6,0.9-1.8,1.3c-0.7,0.2-1.1,0.4-1.3,0.6
			c-0.1,0.1-0.2,0.4-0.3,0.9c-0.1,0.5-0.1,0.8-0.1,1.2c0,1.4,0.1,2.5,0.4,3.2c0.1,0.3,0.2,0.5,0.4,0.5c0.1,0.1,0.4,0.1,0.9,0.1
			c0.6,0,1.1,0.1,1.5,0.4s0.6,0.6,0.6,1c0,0.2-0.2,0.6-0.6,1c-0.7,0.6-1.8,1-3.4,1s-2.7-0.3-3.2-1c-0.3-0.4-0.5-2.8-0.5-7.2
			c-0.1-5.5-0.1-8.8-0.2-9.7l-0.1-3.1l0.6-0.3C277.9,44.5,278.3,44.3,278.7,44.3z"/>
		<path class="st1" d="M193.5,87.1l-2.3-7.9h1.3l1.7,6.2l1.9-6.2h1.5l1.9,6.2l1.7-6.2h1.4l-2.3,7.9h-1.6l-1.9-6.5l-2,6.5H193.5z"/>
		<path class="st1" d="M204.7,77.3c-0.3,0-0.5-0.1-0.7-0.3s-0.3-0.4-0.3-0.7s0.1-0.5,0.3-0.6c0.2-0.2,0.4-0.3,0.7-0.3
			s0.5,0.1,0.7,0.3s0.3,0.4,0.3,0.6c0,0.3-0.1,0.5-0.3,0.7C205.2,77.3,205,77.3,204.7,77.3z M204.1,87.1v-7.9h1.3v7.9H204.1z"/>
		<path class="st1" d="M207.7,87.1V75.6h1.3v11.5H207.7z"/>
		<path class="st1" d="M211.3,87.1V75.6h1.3v11.5H211.3z"/>
		<path class="st1" d="M222.7,87.2c-0.8,0-1.4-0.2-2-0.5s-1.1-0.8-1.4-1.5c-0.3-0.6-0.5-1.4-0.5-2.2s0.2-1.6,0.5-2.2
			s0.8-1.1,1.4-1.5c0.6-0.4,1.3-0.5,2-0.5c0.9,0,1.7,0.2,2.4,0.7c0.6,0.5,1.1,1.2,1.2,2h-1.4c-0.1-0.5-0.4-0.9-0.8-1.1
			c-0.4-0.3-0.9-0.4-1.5-0.4c-0.4,0-0.9,0.1-1.3,0.3s-0.7,0.6-1,1s-0.4,1-0.4,1.7s0.1,1.2,0.4,1.7c0.2,0.5,0.6,0.8,1,1
			s0.8,0.3,1.3,0.3c0.6,0,1-0.1,1.5-0.4c0.4-0.3,0.7-0.7,0.8-1.2h1.4c-0.2,0.8-0.6,1.5-1.2,2C224.5,87,223.7,87.2,222.7,87.2z"/>
		<path class="st1" d="M231.1,87.2c-0.9,0-1.7-0.3-2.2-0.9s-0.8-1.5-0.8-2.6v-4.6h1.3v4.5c0,1.7,0.7,2.5,2,2.5
			c0.7,0,1.3-0.2,1.7-0.7s0.7-1.2,0.7-2.1v-4.1h1.3v7.9h-1.2l-0.1-1.4c-0.2,0.5-0.6,0.9-1.1,1.2C232.2,87.1,231.7,87.2,231.1,87.2z"
			/>
		<path class="st1" d="M240.9,87.2c-0.8,0-1.4-0.2-2-0.5s-1.1-0.8-1.4-1.5c-0.3-0.6-0.5-1.3-0.5-2.2c0-0.8,0.2-1.6,0.5-2.2
			s0.8-1.1,1.4-1.5s1.3-0.5,2.1-0.5s1.4,0.2,2,0.5s1,0.8,1.3,1.4s0.4,1.2,0.4,1.8c0,0.1,0,0.2,0,0.3s0,0.2,0,0.4h-6.3
			c0,0.6,0.2,1.1,0.4,1.5s0.6,0.7,0.9,0.9s0.8,0.3,1.2,0.3c0.5,0,1-0.1,1.4-0.4s0.7-0.6,0.8-1h1.3c-0.2,0.7-0.6,1.3-1.2,1.8
			C242.6,87,241.9,87.2,240.9,87.2z M240.9,80.1c-0.6,0-1.2,0.2-1.7,0.6s-0.8,1-0.9,1.7h5c0-0.7-0.3-1.3-0.7-1.7
			C242.2,80.3,241.6,80.1,240.9,80.1z"/>
		<path class="st1" d="M251.6,90.6l2-4.3h-0.5l-3.1-7.2h1.5l2.6,6.2l2.8-6.2h1.4l-5.2,11.5H251.6z"/>
		<path class="st1" d="M262.5,87.2c-0.8,0-1.4-0.2-2-0.5s-1.1-0.8-1.4-1.5c-0.4-0.6-0.5-1.4-0.5-2.2s0.2-1.6,0.5-2.2
			s0.8-1.1,1.4-1.5c0.6-0.3,1.3-0.5,2-0.5c0.8,0,1.4,0.2,2,0.5s1.1,0.8,1.4,1.5s0.5,1.4,0.5,2.2s-0.2,1.6-0.5,2.2
			c-0.4,0.6-0.8,1.1-1.4,1.5S263.2,87.2,262.5,87.2z M262.5,86.1c0.5,0,0.9-0.1,1.3-0.3s0.7-0.6,1-1s0.4-1,0.4-1.7s-0.1-1.2-0.4-1.7
			s-0.6-0.8-1-1s-0.8-0.3-1.3-0.3s-0.9,0.1-1.3,0.3s-0.7,0.6-1,1s-0.4,1-0.4,1.7s0.1,1.2,0.4,1.7s0.6,0.8,1,1S262,86.1,262.5,86.1z"
			/>
		<path class="st1" d="M271.2,87.2c-0.9,0-1.7-0.3-2.2-0.9s-0.8-1.5-0.8-2.6v-4.6h1.3v4.5c0,1.7,0.7,2.5,2,2.5
			c0.7,0,1.3-0.2,1.7-0.7s0.7-1.2,0.7-2.1v-4.1h1.3v7.9H274l-0.1-1.4c-0.2,0.5-0.6,0.9-1.1,1.2C272.4,87.1,271.8,87.2,271.2,87.2z"
			/>
		<path class="st1" d="M277.5,87.1v-7.9h1.2l0.1,1.5c0.2-0.5,0.6-0.9,1.1-1.2s1.1-0.5,1.9-0.5v1.4h-0.4c-0.5,0-0.9,0.1-1.3,0.2
			c-0.4,0.2-0.7,0.4-0.9,0.8c-0.2,0.4-0.4,0.9-0.4,1.6v4h-1.3L277.5,87.1L277.5,87.1z"/>
		<path class="st1" d="M196.1,109.2c-0.6,0-1.2-0.1-1.7-0.4c-0.5-0.3-0.9-0.6-1.2-1.1l-0.1,1.3h-1.2V97.5h1.3v4.9
			c0.3-0.4,0.6-0.7,1.1-1s1.1-0.5,1.8-0.5c0.8,0,1.5,0.2,2.1,0.5c0.6,0.4,1,0.9,1.4,1.5c0.3,0.6,0.5,1.3,0.5,2.1s-0.2,1.5-0.5,2.1
			s-0.8,1.1-1.4,1.5C197.6,109.1,196.9,109.2,196.1,109.2z M195.9,108.1c0.5,0,1-0.1,1.4-0.4c0.4-0.2,0.7-0.6,1-1
			c0.2-0.5,0.4-1,0.4-1.6s-0.1-1.1-0.4-1.6c-0.2-0.5-0.6-0.8-1-1s-0.9-0.4-1.4-0.4s-1,0.1-1.4,0.4s-0.7,0.6-1,1
			c-0.2,0.5-0.3,1-0.3,1.6s0.1,1.1,0.3,1.6c0.2,0.4,0.6,0.8,1,1S195.4,108.1,195.9,108.1z"/>
		<path class="st1" d="M205.5,109.2c-0.8,0-1.4-0.2-2-0.5s-1.1-0.8-1.4-1.5c-0.3-0.6-0.5-1.4-0.5-2.2s0.2-1.6,0.5-2.2
			c0.3-0.6,0.8-1.1,1.4-1.5c0.6-0.3,1.3-0.5,2-0.5s1.4,0.2,2,0.5s1.1,0.8,1.4,1.5c0.3,0.6,0.5,1.4,0.5,2.2s-0.2,1.6-0.5,2.2
			c-0.3,0.6-0.8,1.1-1.4,1.5C206.9,109.1,206.3,109.2,205.5,109.2z M205.5,108.1c0.5,0,0.9-0.1,1.3-0.3c0.4-0.2,0.7-0.6,1-1
			s0.4-1,0.4-1.7s-0.1-1.2-0.4-1.7c-0.2-0.5-0.6-0.8-0.9-1c-0.4-0.2-0.8-0.3-1.3-0.3s-0.9,0.1-1.3,0.3c-0.4,0.2-0.7,0.6-1,1
			s-0.4,1-0.4,1.7s0.1,1.2,0.4,1.7c0.2,0.5,0.6,0.8,0.9,1C204.6,108,205.1,108.1,205.5,108.1z"/>
		<path class="st1" d="M215,109.2c-0.8,0-1.5-0.2-2.1-0.5c-0.6-0.4-1.1-0.9-1.4-1.5c-0.3-0.6-0.5-1.3-0.5-2.1s0.2-1.5,0.5-2.1
			s0.8-1.1,1.4-1.5c0.6-0.4,1.3-0.5,2.1-0.5c0.7,0,1.2,0.1,1.7,0.4c0.5,0.3,0.9,0.6,1.2,1.1v-4.9h1.3v11.5H218l-0.1-1.3
			c-0.3,0.4-0.6,0.7-1.1,1C216.3,109.1,215.7,109.2,215,109.2z M215.1,108.1c0.5,0,1-0.1,1.4-0.4s0.7-0.6,1-1c0.2-0.5,0.3-1,0.3-1.6
			s-0.1-1.1-0.3-1.6s-0.5-0.8-1-1s-0.9-0.4-1.4-0.4s-1,0.1-1.4,0.4c-0.4,0.2-0.7,0.6-1,1s-0.3,1-0.3,1.6s0.1,1.1,0.3,1.6
			c0.2,0.4,0.6,0.8,1,1S214.6,108.1,215.1,108.1z"/>
		<path class="st1" d="M222.3,112.6l2-4.3h-0.5l-3.1-7.2h1.5l2.6,6.2l2.8-6.2h1.4l-5.2,11.5H222.3z"/>
		<path class="st1" d="M237.7,109.1c-0.7,0-1.3-0.2-1.7-0.5s-0.6-1-0.6-1.9v-4.4H234v-1.1h1.4l0.2-1.9h1.2v1.9h2.3v1.1h-2.4v4.4
			c0,0.5,0.1,0.8,0.3,1s0.6,0.3,1.1,0.3h0.8v1.2h-1.2L237.7,109.1L237.7,109.1z"/>
		<path class="st1" d="M240.7,109.1V97.6h1.3v4.9c0.3-0.5,0.6-0.9,1.1-1.1c0.5-0.3,1-0.4,1.6-0.4c0.9,0,1.6,0.3,2.2,0.9
			c0.6,0.6,0.8,1.5,0.8,2.6v4.6h-1.3v-4.5c0-1.7-0.7-2.5-2-2.5c-0.7,0-1.3,0.2-1.7,0.7c-0.5,0.5-0.7,1.2-0.7,2.1v4.1L240.7,109.1
			L240.7,109.1z"/>
		<path class="st1" d="M252.5,109.2c-0.7,0-1.2-0.1-1.6-0.3s-0.8-0.5-1-0.9s-0.3-0.8-0.3-1.2c0-0.8,0.3-1.4,0.9-1.9s1.5-0.7,2.5-0.7
			h2.1v-0.1c0-0.7-0.2-1.2-0.5-1.6c-0.4-0.4-0.9-0.5-1.5-0.5c-0.5,0-1,0.1-1.4,0.4s-0.6,0.6-0.7,1.1h-1.3c0-0.6,0.2-1.1,0.6-1.5
			c0.3-0.4,0.8-0.7,1.3-0.9s1-0.3,1.6-0.3c1.1,0,1.9,0.3,2.5,0.9c0.6,0.6,0.8,1.4,0.8,2.4v4.9h-1.2l-0.1-1.4c-0.2,0.5-0.6,0.8-1,1.1
			C253.8,109.1,253.3,109.2,252.5,109.2z M252.7,108.1c0.5,0,0.9-0.1,1.3-0.4c0.4-0.3,0.7-0.6,0.8-1s0.3-0.9,0.3-1.3l0,0h-2
			c-0.8,0-1.4,0.1-1.7,0.4c-0.3,0.3-0.5,0.6-0.5,1s0.2,0.8,0.5,1C251.8,108,252.2,108.1,252.7,108.1z"/>
		<path class="st1" d="M261.5,109.1c-0.7,0-1.3-0.2-1.7-0.5c-0.4-0.3-0.6-1-0.6-1.9v-4.4h-1.5v-1.1h1.4l0.2-1.9h1.2v1.9h2.3v1.1
			h-2.3v4.4c0,0.5,0.1,0.8,0.3,1c0.2,0.2,0.6,0.3,1.1,0.3h0.8v1.2h-1.2L261.5,109.1L261.5,109.1z"/>
		<path class="st1" d="M269.6,99.3c-0.3,0-0.5-0.1-0.7-0.3s-0.3-0.4-0.3-0.7s0.1-0.5,0.3-0.6c0.2-0.2,0.4-0.3,0.7-0.3
			s0.5,0.1,0.7,0.3s0.3,0.4,0.3,0.6c0,0.3-0.1,0.5-0.3,0.7C270.1,99.3,269.8,99.3,269.6,99.3z M268.9,109.1v-7.9h1.3v7.9H268.9z"/>
		<path class="st1" d="M275.7,109.1c-0.7,0-1.3-0.2-1.7-0.5c-0.4-0.3-0.6-1-0.6-1.9v-4.4H272v-1.1h1.4l0.2-1.9h1.2v1.9h2.3v1.1h-2.4
			v4.4c0,0.5,0.1,0.8,0.3,1c0.2,0.2,0.6,0.3,1.1,0.3h0.8v1.2h-1.2L275.7,109.1L275.7,109.1z"/>
		<path class="st1" d="M278.2,101.4l0.9-3.6h1.5l-1.5,3.6H278.2z"/>
		<path class="st1" d="M284.5,109.2c-0.9,0-1.7-0.2-2.4-0.7c-0.6-0.5-1-1.1-1.1-1.9h1.4c0.1,0.4,0.3,0.8,0.7,1.1
			c0.4,0.3,0.8,0.5,1.5,0.5c0.6,0,1-0.1,1.2-0.4c0.3-0.2,0.4-0.5,0.4-0.9c0-0.5-0.2-0.8-0.5-1c-0.4-0.2-0.8-0.3-1.5-0.4
			c-0.4-0.1-0.8-0.2-1.3-0.4c-0.4-0.2-0.8-0.4-1.1-0.7c-0.3-0.3-0.4-0.7-0.4-1.2c0-0.7,0.3-1.3,0.8-1.7s1.2-0.7,2.1-0.7
			c0.8,0,1.5,0.2,2.1,0.6s0.9,1,0.9,1.8H286c0-0.4-0.2-0.7-0.5-1c-0.3-0.2-0.7-0.3-1.2-0.3s-0.9,0.1-1.1,0.3
			c-0.3,0.2-0.4,0.5-0.4,0.8s0.2,0.6,0.5,0.8s0.8,0.3,1.4,0.5c0.5,0.1,1,0.2,1.4,0.4s0.8,0.4,1.1,0.7c0.3,0.3,0.4,0.7,0.4,1.3
			c0,0.7-0.3,1.3-0.8,1.8C286.2,109,285.5,109.2,284.5,109.2z"/>
		<path class="st1" d="M195,131.1c-0.7,0-1.3-0.2-1.7-0.5s-0.6-1-0.6-1.9v-4.4h-1.4v-1.1h1.4l0.2-1.9h1.2v1.9h2.3v1.1h-2.3v4.4
			c0,0.5,0.1,0.8,0.3,1s0.6,0.3,1.1,0.3h0.8v1.2H195V131.1z"/>
		<path class="st1" d="M198.8,121.3c-0.3,0-0.5-0.1-0.7-0.3s-0.3-0.4-0.3-0.7s0.1-0.5,0.3-0.6c0.2-0.2,0.4-0.3,0.7-0.3
			s0.5,0.1,0.7,0.3s0.3,0.4,0.3,0.6c0,0.3-0.1,0.5-0.3,0.7C199.3,121.3,199.1,121.3,198.8,121.3z M198.2,131.1v-7.9h1.3v7.9H198.2z"
			/>
		<path class="st1" d="M201.9,131.1v-7.9h1.2l0.1,1.2c0.3-0.4,0.6-0.8,1-1s0.9-0.3,1.4-0.3c0.6,0,1.2,0.1,1.6,0.4
			c0.4,0.3,0.8,0.7,1.1,1.2c0.3-0.5,0.7-0.9,1.1-1.1c0.5-0.3,1-0.4,1.6-0.4c0.9,0,1.7,0.3,2.3,0.9c0.6,0.6,0.8,1.5,0.8,2.6v4.6h-1.3
			v-4.5c0-0.8-0.2-1.4-0.5-1.9s-0.8-0.6-1.4-0.6c-0.6,0-1.2,0.2-1.6,0.7c-0.4,0.5-0.6,1.2-0.6,2.1v4.1h-1.3v-4.5
			c0-0.8-0.2-1.4-0.5-1.9s-0.8-0.6-1.4-0.6c-0.6,0-1.1,0.2-1.6,0.7c-0.4,0.5-0.6,1.2-0.6,2.1v4.1L201.9,131.1L201.9,131.1z"/>
		<path class="st1" d="M219.8,131.2c-0.8,0-1.4-0.2-2-0.5s-1.1-0.8-1.4-1.5c-0.3-0.6-0.5-1.3-0.5-2.2c0-0.8,0.2-1.6,0.5-2.2
			c0.3-0.6,0.8-1.1,1.4-1.5c0.6-0.4,1.3-0.5,2.1-0.5s1.4,0.2,2,0.5s1,0.8,1.3,1.4c0.3,0.6,0.5,1.2,0.5,1.8c0,0.1,0,0.2,0,0.3
			s0,0.2,0,0.4h-6.3c0,0.6,0.2,1.1,0.4,1.5s0.6,0.7,0.9,0.9c0.4,0.2,0.8,0.3,1.2,0.3c0.6,0,1-0.1,1.4-0.4c0.4-0.3,0.6-0.6,0.8-1h1.3
			c-0.2,0.7-0.6,1.3-1.2,1.8C221.5,131,220.7,131.2,219.8,131.2z M219.8,124.1c-0.6,0-1.2,0.2-1.7,0.6c-0.5,0.4-0.8,1-0.9,1.7h5
			c0-0.7-0.3-1.3-0.7-1.7C221,124.3,220.4,124.1,219.8,124.1z"/>
		<path class="st1" d="M230,131.1v-6.8h-1.2v-1.1h1.2v-1.4c0-0.8,0.2-1.3,0.6-1.7c0.4-0.3,0.9-0.5,1.7-0.5h0.8v1.2h-0.6
			c-0.4,0-0.7,0.1-0.9,0.2c-0.2,0.2-0.3,0.5-0.3,0.8v1.3h2v1.1h-2v6.8L230,131.1L230,131.1z"/>
		<path class="st1" d="M238.2,131.2c-0.8,0-1.4-0.2-2-0.5s-1.1-0.8-1.4-1.5c-0.4-0.6-0.5-1.4-0.5-2.2s0.2-1.6,0.5-2.2
			c0.4-0.6,0.8-1.1,1.4-1.5c0.6-0.3,1.3-0.5,2-0.5s1.4,0.2,2,0.5s1.1,0.8,1.4,1.5c0.4,0.6,0.5,1.4,0.5,2.2s-0.2,1.6-0.5,2.2
			s-0.8,1.1-1.4,1.5C239.6,131.1,238.9,131.2,238.2,131.2z M238.2,130.1c0.5,0,0.9-0.1,1.3-0.3s0.7-0.6,1-1s0.4-1,0.4-1.7
			s-0.1-1.2-0.4-1.7c-0.2-0.5-0.6-0.8-1-1s-0.8-0.3-1.3-0.3s-0.9,0.1-1.3,0.3s-0.7,0.6-1,1s-0.4,1-0.4,1.7s0.1,1.2,0.4,1.7
			c0.2,0.5,0.6,0.8,1,1S237.7,130.1,238.2,130.1z"/>
		<path class="st1" d="M244,131.1v-7.9h1.2l0.1,1.5c0.2-0.5,0.6-0.9,1.1-1.2s1.1-0.5,1.9-0.5v1.4h-0.4c-0.5,0-0.9,0.1-1.3,0.2
			c-0.4,0.2-0.7,0.4-0.9,0.8c-0.2,0.4-0.4,0.9-0.4,1.6v4H244L244,131.1L244,131.1z"/>
		<path class="st1" d="M257.1,131.2c-1,0-1.7-0.2-2.4-0.7c-0.6-0.5-1-1.1-1.1-1.9h1.4c0.1,0.4,0.3,0.8,0.7,1.1
			c0.4,0.3,0.8,0.5,1.5,0.5c0.6,0,1-0.1,1.2-0.4s0.4-0.5,0.4-0.9c0-0.5-0.2-0.8-0.5-1c-0.4-0.2-0.8-0.3-1.5-0.4
			c-0.4-0.1-0.8-0.2-1.3-0.4c-0.4-0.2-0.8-0.4-1.1-0.7c-0.3-0.3-0.4-0.7-0.4-1.2c0-0.7,0.3-1.3,0.8-1.7s1.2-0.7,2.1-0.7
			c0.8,0,1.5,0.2,2.1,0.6s0.9,1,0.9,1.8h-1.3c0-0.4-0.2-0.7-0.5-1c-0.3-0.2-0.7-0.3-1.2-0.3s-0.9,0.1-1.1,0.3
			c-0.3,0.2-0.4,0.5-0.4,0.8s0.2,0.6,0.5,0.8s0.8,0.3,1.4,0.5c0.5,0.1,1,0.2,1.4,0.4s0.8,0.4,1.1,0.7s0.4,0.7,0.4,1.3
			c0,0.7-0.3,1.3-0.8,1.8C258.8,131,258,131.2,257.1,131.2z"/>
		<path class="st1" d="M262.1,131.1v-11.5h1.3v11.5H262.1z"/>
		<path class="st1" d="M269.2,131.2c-0.8,0-1.4-0.2-2-0.5s-1.1-0.8-1.4-1.5c-0.3-0.6-0.5-1.3-0.5-2.2c0-0.8,0.2-1.6,0.5-2.2
			c0.3-0.6,0.8-1.1,1.4-1.5s1.3-0.5,2.1-0.5c0.8,0,1.4,0.2,2,0.5s1,0.8,1.3,1.4c0.3,0.6,0.4,1.2,0.4,1.8c0,0.1,0,0.2,0,0.3
			s0,0.2,0,0.4h-6.3c0,0.6,0.2,1.1,0.4,1.5c0.2,0.4,0.6,0.7,0.9,0.9s0.8,0.3,1.2,0.3c0.5,0,1-0.1,1.4-0.4c0.4-0.3,0.7-0.6,0.8-1h1.3
			c-0.2,0.7-0.6,1.3-1.2,1.8C270.9,131,270.1,131.2,269.2,131.2z M269.2,124.1c-0.6,0-1.2,0.2-1.7,0.6c-0.5,0.4-0.8,1-0.9,1.7h5
			c0-0.7-0.3-1.3-0.7-1.7C270.4,124.3,269.8,124.1,269.2,124.1z"/>
		<path class="st1" d="M278.3,131.2c-0.8,0-1.4-0.2-2-0.5s-1-0.8-1.4-1.5c-0.3-0.6-0.5-1.3-0.5-2.2c0-0.8,0.2-1.6,0.5-2.2
			c0.3-0.6,0.8-1.1,1.4-1.5s1.3-0.5,2.1-0.5c0.8,0,1.4,0.2,2,0.5s1,0.8,1.3,1.4c0.3,0.6,0.5,1.2,0.5,1.8c0,0.1,0,0.2,0,0.3
			s0,0.2,0,0.4h-6.5c0,0.6,0.2,1.1,0.4,1.5c0.2,0.4,0.6,0.7,0.9,0.9c0.4,0.2,0.8,0.3,1.2,0.3c0.5,0,1-0.1,1.4-0.4
			c0.4-0.3,0.6-0.6,0.8-1h1.3c-0.2,0.7-0.6,1.3-1.2,1.8C280,131,279.2,131.2,278.3,131.2z M278.3,124.1c-0.6,0-1.2,0.2-1.7,0.6
			c-0.5,0.4-0.8,1-0.9,1.7h5c0-0.7-0.3-1.3-0.7-1.7C279.5,124.3,278.9,124.1,278.3,124.1z"/>
		<path class="st1" d="M283.8,134.6v-11.5h1.2l0.1,1.3c0.3-0.4,0.6-0.7,1.1-1s1.1-0.5,1.8-0.5c0.8,0,1.5,0.2,2.1,0.5
			c0.6,0.4,1,0.9,1.4,1.5c0.3,0.6,0.5,1.3,0.5,2.1s-0.2,1.5-0.5,2.1s-0.8,1.1-1.4,1.5s-1.3,0.5-2.1,0.5c-0.6,0-1.2-0.1-1.7-0.4
			c-0.5-0.3-0.9-0.6-1.2-1.1v4.9h-1.3V134.6z M287.9,130.1c0.5,0,1-0.1,1.4-0.4s0.7-0.6,1-1c0.2-0.5,0.4-1,0.4-1.6s-0.1-1.1-0.4-1.6
			c-0.2-0.5-0.6-0.8-1-1s-0.9-0.4-1.4-0.4s-1,0.1-1.4,0.4c-0.4,0.2-0.7,0.6-1,1c-0.2,0.5-0.4,1-0.4,1.6s0.1,1.1,0.4,1.6
			c0.2,0.4,0.6,0.8,1,1S287.4,130.1,287.9,130.1z"/>
		<path class="st1" d="M294.3,131.1c-0.3,0-0.5-0.1-0.7-0.3s-0.3-0.4-0.3-0.7s0.1-0.5,0.3-0.6c0.2-0.2,0.4-0.3,0.7-0.3
			s0.5,0.1,0.6,0.3c0.2,0.2,0.3,0.4,0.3,0.6s-0.1,0.5-0.3,0.7C294.8,131,294.6,131.1,294.3,131.1z"/>
		<path class="st3" d="M79.1,29.6c17.1-6.2,36.3-1.6,48.7,11.7h-8.4c-1.1,0-2.1,0.9-2.1,2.1s0.9,2.1,2.1,2.1h12.4
			c1.1,0,2.1-0.9,2.1-2.1V31c0-1.1-0.9-2.1-2.1-2.1s-2.1,0.9-2.1,2.1v6.3c-13.6-13.7-33.9-18.2-52-11.6c-1.1,0.4-1.7,1.5-1.3,2.6
			c0.4,1.1,1.5,1.7,2.6,1.3C79,29.6,79,29.6,79.1,29.6z"/>
		<path class="st3" d="M49.2,72.3c0-14.5,6.9-28.1,18.6-36.6v7.7c0,1.1,0.9,2.1,2.1,2.1s2.1-0.9,2.1-2.1V31c0-1.1-0.9-2.1-2.1-2.1
			H57.5c-1.1,0-2.1,0.9-2.1,2.1c0,1.2,0.9,2.1,2.1,2.1h6.9C47.3,46.3,40.7,69,48.1,89.3c0.3,0.8,1.1,1.4,1.9,1.4
			c0.2,0,0.5,0,0.7-0.1c1.1-0.4,1.6-1.6,1.2-2.6C50.1,82.8,49.2,77.5,49.2,72.3z"/>
		<path class="st3" d="M110.1,114.9c-17.1,6.2-36.3,1.6-48.7-11.7h8.4c1.1,0,2.1-0.9,2.1-2.1c0-1.1-0.9-2.1-2.1-2.1H57.5
			c-1.1,0-2.1,0.9-2.1,2.1v12.4c0,1.1,0.9,2.1,2.1,2.1s2.1-0.9,2.1-2.1v-6.3c13.6,13.7,33.9,18.2,52,11.6c1.1-0.4,1.7-1.5,1.3-2.6
			s-1.5-1.7-2.6-1.3C110.2,114.9,110.2,114.9,110.1,114.9z"/>
		<path class="st3" d="M131.8,111.5h-6.9c17.1-13.2,23.7-35.9,16.3-56.1c-0.4-1.1-1.6-1.6-2.7-1.2c-1,0.4-1.5,1.5-1.2,2.6
			c6.9,19,0.4,40.2-15.8,52.2v-7.7c0-1.1-0.9-2.1-2.1-2.1s-2.1,0.9-2.1,2.1v12.4c0,1.1,0.9,2.1,2.1,2.1h12.4c1.1,0,2.1-0.9,2.1-2.1
			C133.8,112.4,132.9,111.5,131.8,111.5z"/>
		<path class="st4" d="M101.6,50.4L88,97.5"/>
		<path class="st5" d="M76.7,88.1c-0.8-0.2-1.1-1.2-0.4-1.7l3.5-2.7l1.4,2l-2.9,2C77.8,88,77.3,88.2,76.7,88.1z"/>
		<path class="st5" d="M105.6,93.4c0.8,0.1,1.4-0.8,1-1.5l-2.3-3.7l-2,1.4l2,2.9C104.6,93,105.1,93.3,105.6,93.4z"/>
		<path class="st5" d="M85.6,53.7l2.5,6.5c0.1,0.4-0.1,0.7-0.4,0.9L87,61.4c-0.3,0.1-0.7,0-0.9-0.4l-2.5-6.5c-0.1-0.3,0-0.7,0.4-0.9
			l0.7-0.3C85.1,53.2,85.5,53.4,85.6,53.7z"/>
		<path class="st5" d="M113.9,60.2l-4.8,5.1c-0.3,0.3-0.7,0.3-0.9,0l-0.5-0.5c-0.3-0.3-0.3-0.7,0-1l4.8-5.1c0.3-0.3,0.7-0.3,1,0
			l0.5,0.5C114.1,59.5,114.1,60,113.9,60.2z"/>
		<path class="st5" d="M94.4,92.4c10,0,18.2-8.1,18.2-18.2c0-10-8.1-18.1-18.2-18.1s-18.1,8.1-18.1,18.1
			C76.3,84.3,84.4,92.4,94.4,92.4z"/>
		<path class="st6" d="M94.4,90.6c9,0,16.4-7.3,16.4-16.4c0-9-7.3-16.4-16.4-16.4S78,65.1,78,74.2S85.4,90.6,94.4,90.6z"/>
		<path class="st7" d="M92.6,74.2c-0.2-0.5,0-1.1,0.5-1.3l10.6-4.9c0.5-0.2,1.1,0,1.3,0.5s0,1.1-0.5,1.3l-10.6,4.9
			C93.4,74.9,92.8,74.7,92.6,74.2z"/>
		<path class="st7" d="M96.6,80.6c-0.5,0.2-1.1,0-1.3-0.5l-2.7-5.9c-0.2-0.5,0-1.1,0.5-1.3s1.1,0,1.3,0.5l2.7,5.9
			C97.3,79.8,97.1,80.3,96.6,80.6z"/>
		<path class="st8" d="M84.8,63.6c1.2-2,5.5-3.5,8.5-3"/>
		<path class="st8" d="M105.1,83.5c-1.4,1.8-4,3.4-6.2,3.8"/>
		<path class="st7" d="M89.4,54.2c0.5-0.2,0.7-0.9,0.4-1.3c-1.4-2.1-4.3-3-6.7-2c-2.5,1.1-3.8,3.7-3.2,6.2c0.1,0.5,0.7,0.8,1.2,0.6
			L89.4,54.2z"/>
		<path class="st7" d="M114.4,64.9c0.4,0.4,1,0.4,1.4-0.1c1.5-2.1,1.4-5-0.5-7c-1.8-2-4.8-2.3-7-0.9c-0.5,0.3-0.5,1-0.2,1.4
			L114.4,64.9z"/>
		<path class="st9" d="M114.8,77.6c-0.5,2.3-1.4,4.6-2.5,6.6"/>
		<path class="st9" d="M117.6,77.7c-0.5,2.3-1.4,4.6-2.5,6.6"/>
		<path class="st9" d="M74.2,67c-0.8,2.2-1.3,4.6-1.4,6.9"/>
		<path class="st9" d="M71.6,65.6c-0.8,2.2-1.3,4.6-1.4,7"/>
	</g>
</g>
</svg>
