<?xml version="1.0" encoding="utf-8"?>
<!-- Generator: Adobe Illustrator 25.1.0, SVG Export Plug-In . SVG Version: 6.00 Build 0)  -->
<svg version="1.1" id="Layer_1" xmlns="http://www.w3.org/2000/svg" xmlns:xlink="http://www.w3.org/1999/xlink" x="0px" y="0px"
	 viewBox="0 0 328 386" style="enable-background:new 0 0 328 386;" xml:space="preserve">
<style type="text/css">
	.st0{fill:#FFFFFF;}
	.st1{fill:#404040;}
	.st2{fill:#DCE3E5;}
	.st3{fill:#E14504;}
	.st4{fill:#D64204;}
	.st5{fill:#F4F1EF;}
</style>
<g>
	<g>
		<path class="st0" d="M328,286.5c0-230.8-7.5-233.6-137.8-235.4c-28.1-0.4-70.6,0.5-105,1.5C51.4,53.5,11.5,70,6.4,92
			c-8,34.3-5.9,89-5.9,151.9c0,98.9-6.5,122.5,28.2,135c35.3,12.7,164.9,4.8,207.5,3.2C280.1,380.5,328,387.2,328,286.5z"/>
		<path class="st1" d="M21.3,163v-12.6h3.9c2.2,0,3.9,0.6,4.9,1.7c1.1,1.1,1.6,2.7,1.6,4.6c0,1.9-0.5,3.5-1.6,4.6
			c-1,1.1-2.7,1.7-4.9,1.7H21.3z M22.8,161.7h2.3c1.2,0,2.2-0.2,2.9-0.6c0.7-0.4,1.3-1,1.6-1.7c0.3-0.8,0.5-1.6,0.5-2.7
			c0-1.1-0.2-2-0.5-2.7c-0.3-0.8-0.8-1.3-1.6-1.7c-0.7-0.4-1.7-0.6-2.9-0.6h-2.3V161.7z M34.7,152.1c-0.3,0-0.6-0.1-0.8-0.3
			c-0.2-0.2-0.3-0.5-0.3-0.8c0-0.3,0.1-0.5,0.3-0.7c0.2-0.2,0.5-0.3,0.8-0.3c0.3,0,0.5,0.1,0.7,0.3c0.2,0.2,0.3,0.4,0.3,0.7
			c0,0.3-0.1,0.6-0.3,0.8C35.2,152,35,152.1,34.7,152.1z M33.9,163v-8.9h1.5v8.9H33.9z M41.5,163.2c-1.1,0-2-0.3-2.7-0.8
			s-1.1-1.3-1.2-2.2h1.5c0.1,0.5,0.3,0.9,0.7,1.2c0.4,0.3,1,0.5,1.6,0.5c0.6,0,1.1-0.1,1.4-0.4c0.3-0.3,0.5-0.6,0.5-1
			c0-0.5-0.2-0.9-0.6-1.1c-0.4-0.2-0.9-0.3-1.6-0.5c-0.5-0.1-1-0.2-1.4-0.4s-0.9-0.4-1.2-0.8c-0.3-0.3-0.5-0.8-0.5-1.3
			c0-0.8,0.3-1.4,0.9-1.9c0.6-0.5,1.4-0.8,2.4-0.8c0.9,0,1.7,0.2,2.3,0.7c0.6,0.5,1,1.1,1.1,2h-1.5c-0.1-0.5-0.3-0.8-0.6-1.1
			c-0.3-0.3-0.8-0.4-1.3-0.4c-0.5,0-1,0.1-1.3,0.3c-0.3,0.2-0.4,0.5-0.4,0.9c0,0.4,0.2,0.6,0.6,0.8c0.4,0.2,0.9,0.4,1.5,0.5
			c0.6,0.1,1.1,0.3,1.6,0.5c0.5,0.2,0.9,0.4,1.2,0.8c0.3,0.3,0.5,0.8,0.5,1.5c0,0.8-0.3,1.5-0.9,2C43.4,163,42.6,163.2,41.5,163.2z
			 M51.2,163.2c-0.9,0-1.6-0.2-2.3-0.6c-0.7-0.4-1.2-0.9-1.6-1.6c-0.4-0.7-0.6-1.5-0.6-2.5c0-0.9,0.2-1.8,0.6-2.4
			c0.4-0.7,0.9-1.3,1.6-1.6c0.7-0.4,1.5-0.6,2.3-0.6c1.1,0,1.9,0.3,2.7,0.8c0.7,0.6,1.2,1.3,1.4,2.2h-1.5c-0.1-0.6-0.4-1-0.9-1.3
			c-0.5-0.3-1-0.5-1.6-0.5c-0.5,0-1,0.1-1.4,0.4c-0.4,0.3-0.8,0.6-1.1,1.1s-0.4,1.1-0.4,1.9c0,0.7,0.1,1.4,0.4,1.9s0.6,0.9,1.1,1.2
			c0.4,0.3,0.9,0.4,1.4,0.4c0.6,0,1.2-0.1,1.6-0.4c0.5-0.3,0.8-0.8,0.9-1.3h1.5c-0.2,0.9-0.6,1.6-1.4,2.2
			C53.1,162.9,52.2,163.2,51.2,163.2z M61.4,163.2c-0.8,0-1.6-0.2-2.3-0.6c-0.7-0.4-1.2-0.9-1.6-1.6c-0.4-0.7-0.6-1.5-0.6-2.5
			s0.2-1.8,0.6-2.5c0.4-0.7,0.9-1.3,1.6-1.6c0.7-0.4,1.4-0.6,2.3-0.6s1.6,0.2,2.3,0.6c0.7,0.4,1.2,0.9,1.6,1.6
			c0.4,0.7,0.6,1.5,0.6,2.5s-0.2,1.8-0.6,2.5c-0.4,0.7-0.9,1.2-1.6,1.6C63,163,62.3,163.2,61.4,163.2z M61.4,161.9
			c0.5,0,1-0.1,1.4-0.4c0.4-0.3,0.8-0.6,1.1-1.1s0.4-1.1,0.4-1.9c0-0.7-0.1-1.4-0.4-1.9c-0.3-0.5-0.6-0.9-1.1-1.1
			c-0.4-0.3-0.9-0.4-1.4-0.4c-0.5,0-1,0.1-1.4,0.4c-0.4,0.3-0.8,0.6-1.1,1.1c-0.3,0.5-0.4,1.1-0.4,1.9c0,0.7,0.1,1.4,0.4,1.9
			c0.3,0.5,0.6,0.9,1.1,1.1C60.4,161.8,60.9,161.9,61.4,161.9z M70.1,163l-3.4-8.9h1.6l2.7,7.5l2.7-7.5h1.5l-3.4,8.9H70.1z
			 M80.5,163.2c-0.9,0-1.6-0.2-2.3-0.6c-0.7-0.4-1.2-0.9-1.6-1.6c-0.4-0.7-0.6-1.5-0.6-2.5c0-0.9,0.2-1.8,0.6-2.4
			c0.4-0.7,0.9-1.3,1.5-1.6c0.7-0.4,1.4-0.6,2.3-0.6c0.9,0,1.6,0.2,2.2,0.6c0.6,0.4,1.1,0.9,1.5,1.5c0.3,0.6,0.5,1.3,0.5,2.1
			c0,0.1,0,0.3,0,0.4c0,0.1,0,0.3,0,0.4h-7.1c0,0.7,0.2,1.3,0.5,1.7c0.3,0.4,0.6,0.8,1.1,1c0.4,0.2,0.9,0.3,1.4,0.3
			c0.6,0,1.1-0.1,1.6-0.4c0.4-0.3,0.7-0.7,0.9-1.2h1.5c-0.2,0.8-0.7,1.5-1.4,2.1C82.4,162.9,81.5,163.2,80.5,163.2z M80.5,155.1
			c-0.7,0-1.4,0.2-1.9,0.7c-0.6,0.4-0.9,1.1-1,1.9h5.6c0-0.8-0.3-1.4-0.8-1.9C81.9,155.4,81.2,155.1,80.5,155.1z M86.7,163v-8.9h1.4
			l0.1,1.7c0.3-0.6,0.7-1.1,1.3-1.4c0.6-0.3,1.3-0.5,2.1-0.5v1.6h-0.4c-0.5,0-1,0.1-1.5,0.3c-0.4,0.2-0.8,0.5-1.1,0.9
			s-0.4,1.1-0.4,1.8v4.5H86.7z M101.6,163c-0.8,0-1.5-0.2-1.9-0.6s-0.7-1.1-0.7-2.1v-4.9h-1.5v-1.3h1.5l0.2-2.1h1.3v2.1h2.6v1.3
			h-2.6v4.9c0,0.6,0.1,0.9,0.3,1.2c0.2,0.2,0.6,0.3,1.2,0.3h0.9v1.3H101.6z M105,163v-13h1.5v5.6c0.3-0.6,0.7-1,1.3-1.3
			c0.6-0.3,1.2-0.5,1.8-0.5c1,0,1.9,0.3,2.5,1c0.6,0.6,0.9,1.6,0.9,3v5.2h-1.5v-5.1c0-1.9-0.8-2.8-2.2-2.8c-0.8,0-1.4,0.3-2,0.8
			c-0.5,0.6-0.8,1.3-0.8,2.4v4.6H105z M119.3,163.2c-0.9,0-1.6-0.2-2.3-0.6c-0.7-0.4-1.2-0.9-1.6-1.6c-0.4-0.7-0.6-1.5-0.6-2.5
			c0-0.9,0.2-1.8,0.6-2.4c0.4-0.7,0.9-1.3,1.5-1.6c0.7-0.4,1.4-0.6,2.3-0.6c0.9,0,1.6,0.2,2.2,0.6c0.6,0.4,1.1,0.9,1.5,1.5
			c0.3,0.6,0.5,1.3,0.5,2.1c0,0.1,0,0.3,0,0.4c0,0.1,0,0.3,0,0.4h-7.1c0,0.7,0.2,1.3,0.5,1.7c0.3,0.4,0.6,0.8,1.1,1
			c0.4,0.2,0.9,0.3,1.4,0.3c0.6,0,1.1-0.1,1.6-0.4c0.4-0.3,0.7-0.7,0.9-1.2h1.5c-0.2,0.8-0.7,1.5-1.4,2.1
			C121.2,162.9,120.4,163.2,119.3,163.2z M119.3,155.1c-0.7,0-1.4,0.2-1.9,0.7c-0.6,0.4-0.9,1.1-1,1.9h5.6c0-0.8-0.3-1.4-0.8-1.9
			S120.1,155.1,119.3,155.1z M130.3,163v-13h1.5v5.6c0.3-0.6,0.7-1,1.3-1.3c0.6-0.3,1.2-0.5,1.8-0.5c1,0,1.9,0.3,2.5,1
			c0.6,0.6,0.9,1.6,0.9,3v5.2h-1.5v-5.1c0-1.9-0.8-2.8-2.2-2.8c-0.8,0-1.4,0.3-2,0.8c-0.5,0.6-0.8,1.3-0.8,2.4v4.6H130.3z
			 M143.6,163.2c-0.7,0-1.4-0.1-1.9-0.4c-0.5-0.3-0.9-0.6-1.1-1c-0.2-0.4-0.4-0.9-0.4-1.4c0-0.9,0.3-1.6,1-2.1
			c0.7-0.5,1.6-0.7,2.8-0.7h2.4v-0.1c0-0.8-0.2-1.4-0.6-1.8c-0.4-0.4-1-0.6-1.6-0.6c-0.6,0-1.1,0.1-1.5,0.5
			c-0.4,0.3-0.7,0.7-0.8,1.3h-1.5c0.1-0.6,0.3-1.2,0.6-1.6c0.4-0.4,0.9-0.8,1.4-1c0.6-0.2,1.2-0.4,1.8-0.4c1.2,0,2.2,0.3,2.8,1
			c0.6,0.7,1,1.5,1,2.6v5.5h-1.4l-0.1-1.6c-0.3,0.5-0.6,0.9-1.1,1.3C145,163,144.4,163.2,143.6,163.2z M143.8,161.9
			c0.6,0,1.1-0.1,1.5-0.4c0.4-0.3,0.7-0.7,1-1.2c0.2-0.5,0.3-1,0.3-1.5v0h-2.3c-0.9,0-1.5,0.2-1.9,0.5c-0.4,0.3-0.5,0.7-0.5,1.1
			c0,0.5,0.2,0.8,0.5,1.1C142.7,161.8,143.2,161.9,143.8,161.9z M155.1,163.2c-0.7,0-1.4-0.1-2-0.5c-0.6-0.3-1-0.7-1.3-1.3l-0.1,1.5
			h-1.4v-13h1.5v5.5c0.3-0.4,0.7-0.8,1.2-1.2c0.5-0.3,1.2-0.5,2.1-0.5c0.9,0,1.7,0.2,2.3,0.6c0.7,0.4,1.2,1,1.5,1.7
			c0.4,0.7,0.6,1.5,0.6,2.4c0,0.9-0.2,1.7-0.6,2.4c-0.4,0.7-0.9,1.2-1.5,1.7C156.8,163,156,163.2,155.1,163.2z M154.9,161.9
			c0.6,0,1.1-0.1,1.6-0.4c0.5-0.3,0.8-0.7,1.1-1.2c0.3-0.5,0.4-1.1,0.4-1.8s-0.1-1.3-0.4-1.8c-0.3-0.5-0.6-0.9-1.1-1.2
			c-0.5-0.3-1-0.4-1.6-0.4s-1.1,0.1-1.6,0.4c-0.5,0.3-0.8,0.7-1.1,1.2c-0.3,0.5-0.4,1.1-0.4,1.8s0.1,1.3,0.4,1.8
			c0.3,0.5,0.6,0.9,1.1,1.2C153.8,161.8,154.3,161.9,154.9,161.9z M162.6,152.1c-0.3,0-0.6-0.1-0.8-0.3c-0.2-0.2-0.3-0.5-0.3-0.8
			c0-0.3,0.1-0.5,0.3-0.7c0.2-0.2,0.5-0.3,0.8-0.3c0.3,0,0.5,0.1,0.7,0.3c0.2,0.2,0.3,0.4,0.3,0.7c0,0.3-0.1,0.6-0.3,0.8
			C163.1,152,162.8,152.1,162.6,152.1z M161.8,163v-8.9h1.5v8.9H161.8z M169.5,163c-0.8,0-1.5-0.2-1.9-0.6s-0.7-1.1-0.7-2.1v-4.9
			h-1.5v-1.3h1.5l0.2-2.1h1.3v2.1h2.6v1.3h-2.6v4.9c0,0.6,0.1,0.9,0.3,1.2c0.2,0.2,0.6,0.3,1.2,0.3h0.9v1.3H169.5z M176.3,163.2
			c-1.1,0-2-0.3-2.7-0.8c-0.7-0.5-1.1-1.3-1.2-2.2h1.5c0.1,0.5,0.3,0.9,0.7,1.2c0.4,0.3,1,0.5,1.6,0.5c0.6,0,1.1-0.1,1.4-0.4
			c0.3-0.3,0.4-0.6,0.4-1c0-0.5-0.2-0.9-0.6-1.1c-0.4-0.2-0.9-0.3-1.6-0.5c-0.5-0.1-1-0.2-1.4-0.4s-0.9-0.4-1.2-0.8
			c-0.3-0.3-0.5-0.8-0.5-1.3c0-0.8,0.3-1.4,0.9-1.9c0.6-0.5,1.4-0.8,2.4-0.8c0.9,0,1.7,0.2,2.3,0.7c0.6,0.5,1,1.1,1.1,2H178
			c-0.1-0.5-0.3-0.8-0.6-1.1c-0.3-0.3-0.8-0.4-1.3-0.4c-0.5,0-1,0.1-1.3,0.3c-0.3,0.2-0.4,0.5-0.4,0.9c0,0.4,0.2,0.6,0.6,0.8
			c0.4,0.2,0.9,0.4,1.5,0.5c0.6,0.1,1.1,0.3,1.6,0.5c0.5,0.2,0.9,0.4,1.2,0.8c0.3,0.3,0.5,0.8,0.5,1.5c0,0.8-0.3,1.5-0.9,2
			C178.2,163,177.4,163.2,176.3,163.2z M190.2,163c-0.8,0-1.5-0.2-1.9-0.6s-0.7-1.1-0.7-2.1v-4.9H186v-1.3h1.5l0.2-2.1h1.3v2.1h2.6
			v1.3h-2.6v4.9c0,0.6,0.1,0.9,0.3,1.2c0.2,0.2,0.6,0.3,1.2,0.3h0.9v1.3H190.2z M193.6,163v-13h1.5v5.6c0.3-0.6,0.7-1,1.3-1.3
			c0.6-0.3,1.2-0.5,1.8-0.5c1,0,1.9,0.3,2.5,1c0.6,0.6,0.9,1.6,0.9,3v5.2h-1.5v-5.1c0-1.9-0.8-2.8-2.2-2.8c-0.8,0-1.4,0.3-2,0.8
			c-0.5,0.6-0.8,1.3-0.8,2.4v4.6H193.6z M206.9,163.2c-0.7,0-1.4-0.1-1.9-0.4c-0.5-0.3-0.9-0.6-1.1-1c-0.2-0.4-0.4-0.9-0.4-1.4
			c0-0.9,0.3-1.6,1-2.1c0.7-0.5,1.6-0.7,2.8-0.7h2.4v-0.1c0-0.8-0.2-1.4-0.6-1.8c-0.4-0.4-1-0.6-1.6-0.6c-0.6,0-1.1,0.1-1.5,0.5
			c-0.4,0.3-0.7,0.7-0.8,1.3h-1.5c0.1-0.6,0.3-1.2,0.6-1.6c0.4-0.4,0.9-0.8,1.4-1c0.6-0.2,1.2-0.4,1.8-0.4c1.2,0,2.2,0.3,2.8,1
			c0.6,0.7,1,1.5,1,2.6v5.5h-1.4l-0.1-1.6c-0.3,0.5-0.6,0.9-1.1,1.3C208.4,163,207.7,163.2,206.9,163.2z M207.1,161.9
			c0.6,0,1.1-0.1,1.5-0.4c0.4-0.3,0.7-0.7,1-1.2c0.2-0.5,0.3-1,0.3-1.5v0h-2.3c-0.9,0-1.5,0.2-1.9,0.5c-0.4,0.3-0.5,0.7-0.5,1.1
			c0,0.5,0.2,0.8,0.5,1.1C206,161.8,206.5,161.9,207.1,161.9z M217,163c-0.8,0-1.5-0.2-1.9-0.6s-0.7-1.1-0.7-2.1v-4.9h-1.5v-1.3h1.5
			l0.2-2.1h1.3v2.1h2.6v1.3h-2.6v4.9c0,0.6,0.1,0.9,0.3,1.2c0.2,0.2,0.6,0.3,1.2,0.3h0.9v1.3H217z M229.3,163.2
			c-0.9,0-1.6-0.2-2.3-0.6c-0.7-0.4-1.2-0.9-1.6-1.6c-0.4-0.7-0.6-1.5-0.6-2.5c0-0.9,0.2-1.8,0.6-2.4c0.4-0.7,0.9-1.3,1.6-1.6
			c0.7-0.4,1.5-0.6,2.3-0.6c1.1,0,1.9,0.3,2.7,0.8c0.7,0.6,1.2,1.3,1.4,2.2h-1.5c-0.1-0.6-0.4-1-0.9-1.3c-0.5-0.3-1-0.5-1.6-0.5
			c-0.5,0-1,0.1-1.4,0.4c-0.4,0.3-0.8,0.6-1.1,1.1s-0.4,1.1-0.4,1.9c0,0.7,0.1,1.4,0.4,1.9s0.6,0.9,1.1,1.2c0.4,0.3,0.9,0.4,1.4,0.4
			c0.6,0,1.2-0.1,1.6-0.4c0.5-0.3,0.8-0.8,0.9-1.3h1.5c-0.2,0.9-0.6,1.6-1.4,2.2C231.2,162.9,230.3,163.2,229.3,163.2z M238.4,163.2
			c-0.7,0-1.4-0.1-1.9-0.4c-0.5-0.3-0.9-0.6-1.1-1c-0.2-0.4-0.4-0.9-0.4-1.4c0-0.9,0.3-1.6,1-2.1c0.7-0.5,1.6-0.7,2.8-0.7h2.4v-0.1
			c0-0.8-0.2-1.4-0.6-1.8c-0.4-0.4-1-0.6-1.6-0.6c-0.6,0-1.1,0.1-1.5,0.5c-0.4,0.3-0.7,0.7-0.8,1.3h-1.5c0.1-0.6,0.3-1.2,0.6-1.6
			c0.4-0.4,0.9-0.8,1.4-1c0.6-0.2,1.2-0.4,1.8-0.4c1.2,0,2.2,0.3,2.8,1c0.6,0.7,1,1.5,1,2.6v5.5h-1.4l-0.1-1.6
			c-0.3,0.5-0.6,0.9-1.1,1.3C239.8,163,239.2,163.2,238.4,163.2z M238.6,161.9c0.6,0,1.1-0.1,1.5-0.4c0.4-0.3,0.7-0.7,1-1.2
			c0.2-0.5,0.3-1,0.3-1.5v0h-2.3c-0.9,0-1.5,0.2-1.9,0.5c-0.4,0.3-0.5,0.7-0.5,1.1c0,0.5,0.2,0.8,0.5,1.1
			C237.5,161.8,238,161.9,238.6,161.9z M245.2,163v-8.9h1.4l0.1,1.6c0.3-0.6,0.7-1,1.2-1.3c0.5-0.3,1.2-0.5,1.8-0.5
			c1.1,0,1.9,0.3,2.5,1c0.6,0.6,1,1.6,1,3v5.2h-1.5v-5.1c0-1.9-0.8-2.8-2.3-2.8c-0.8,0-1.4,0.3-1.9,0.8c-0.5,0.6-0.8,1.3-0.8,2.4
			v4.6H245.2z M21.2,191v-12.9h1.4l0.1,1.5c0.3-0.4,0.7-0.8,1.2-1.2c0.5-0.3,1.2-0.5,2.1-0.5c0.9,0,1.7,0.2,2.3,0.6
			c0.7,0.4,1.2,1,1.5,1.7c0.4,0.7,0.6,1.5,0.6,2.4c0,0.9-0.2,1.7-0.6,2.4c-0.4,0.7-0.9,1.2-1.5,1.7c-0.7,0.4-1.4,0.6-2.3,0.6
			c-0.7,0-1.4-0.1-2-0.5c-0.6-0.3-1-0.7-1.3-1.3v5.5H21.2z M25.8,185.9c0.6,0,1.1-0.1,1.6-0.4c0.5-0.3,0.8-0.7,1.1-1.2
			s0.4-1.1,0.4-1.8s-0.1-1.3-0.4-1.8s-0.6-0.9-1.1-1.2c-0.5-0.3-1-0.4-1.6-0.4c-0.6,0-1.1,0.1-1.6,0.4c-0.5,0.3-0.8,0.7-1.1,1.2
			s-0.4,1.1-0.4,1.8s0.1,1.3,0.4,1.8s0.6,0.9,1.1,1.2C24.7,185.8,25.2,185.9,25.8,185.9z M32.5,187v-8.9h1.4l0.1,1.7
			c0.3-0.6,0.7-1.1,1.3-1.4c0.6-0.3,1.3-0.5,2.1-0.5v1.6H37c-0.5,0-1,0.1-1.5,0.3c-0.4,0.2-0.8,0.5-1.1,0.9s-0.4,1.1-0.4,1.8v4.5
			H32.5z M42.8,187.2c-0.8,0-1.6-0.2-2.3-0.6c-0.7-0.4-1.2-0.9-1.6-1.6c-0.4-0.7-0.6-1.5-0.6-2.5s0.2-1.8,0.6-2.5
			c0.4-0.7,0.9-1.3,1.6-1.6c0.7-0.4,1.4-0.6,2.3-0.6c0.8,0,1.6,0.2,2.3,0.6c0.7,0.4,1.2,0.9,1.6,1.6c0.4,0.7,0.6,1.5,0.6,2.5
			s-0.2,1.8-0.6,2.5c-0.4,0.7-0.9,1.2-1.6,1.6C44.4,187,43.7,187.2,42.8,187.2z M42.8,185.9c0.5,0,1-0.1,1.4-0.4
			c0.4-0.3,0.8-0.6,1.1-1.1s0.4-1.1,0.4-1.9c0-0.7-0.1-1.4-0.4-1.9c-0.3-0.5-0.6-0.9-1.1-1.1c-0.4-0.3-0.9-0.4-1.4-0.4
			c-0.5,0-1,0.1-1.4,0.4c-0.4,0.3-0.8,0.6-1.1,1.1s-0.4,1.1-0.4,1.9c0,0.7,0.1,1.4,0.4,1.9s0.6,0.9,1.1,1.1
			C41.8,185.8,42.3,185.9,42.8,185.9z M49.4,187v-8.9h1.4l0.1,1.3c0.3-0.5,0.7-0.9,1.2-1.1c0.5-0.3,1-0.4,1.6-0.4
			c0.7,0,1.3,0.1,1.8,0.4c0.5,0.3,0.9,0.7,1.2,1.3c0.3-0.5,0.7-1,1.3-1.3c0.6-0.3,1.1-0.5,1.8-0.5c1.1,0,1.9,0.3,2.6,1
			c0.6,0.6,1,1.6,1,3v5.2h-1.5v-5.1c0-0.9-0.2-1.6-0.6-2.1c-0.4-0.5-0.9-0.7-1.6-0.7c-0.7,0-1.3,0.3-1.8,0.8
			c-0.5,0.6-0.7,1.3-0.7,2.4v4.6h-1.5v-5.1c0-0.9-0.2-1.6-0.6-2.1c-0.4-0.5-0.9-0.7-1.6-0.7c-0.7,0-1.3,0.3-1.8,0.8
			c-0.5,0.6-0.7,1.3-0.7,2.4v4.6H49.4z M69.6,187.2c-0.8,0-1.6-0.2-2.3-0.6c-0.7-0.4-1.2-0.9-1.6-1.6c-0.4-0.7-0.6-1.5-0.6-2.5
			s0.2-1.8,0.6-2.5c0.4-0.7,0.9-1.3,1.6-1.6c0.7-0.4,1.4-0.6,2.3-0.6c0.8,0,1.6,0.2,2.3,0.6c0.7,0.4,1.2,0.9,1.6,1.6
			c0.4,0.7,0.6,1.5,0.6,2.5s-0.2,1.8-0.6,2.5c-0.4,0.7-0.9,1.2-1.6,1.6C71.2,187,70.4,187.2,69.6,187.2z M69.6,185.9
			c0.5,0,1-0.1,1.4-0.4c0.4-0.3,0.8-0.6,1.1-1.1s0.4-1.1,0.4-1.9c0-0.7-0.1-1.4-0.4-1.9c-0.3-0.5-0.6-0.9-1.1-1.1
			c-0.4-0.3-0.9-0.4-1.4-0.4c-0.5,0-1,0.1-1.4,0.4c-0.4,0.3-0.8,0.6-1.1,1.1s-0.4,1.1-0.4,1.9c0,0.7,0.1,1.4,0.4,1.9
			s0.6,0.9,1.1,1.1C68.6,185.8,69.1,185.9,69.6,185.9z M79.3,187c-0.8,0-1.5-0.2-1.9-0.6c-0.5-0.4-0.7-1.1-0.7-2.1v-4.9h-1.5v-1.3
			h1.5l0.2-2.1h1.3v2.1h2.6v1.3h-2.6v4.9c0,0.6,0.1,0.9,0.3,1.2c0.2,0.2,0.6,0.3,1.2,0.3h0.9v1.3H79.3z M86.5,187.2
			c-0.9,0-1.6-0.2-2.3-0.6c-0.7-0.4-1.2-0.9-1.6-1.6c-0.4-0.7-0.6-1.5-0.6-2.5c0-0.9,0.2-1.8,0.6-2.4c0.4-0.7,0.9-1.3,1.5-1.6
			c0.7-0.4,1.4-0.6,2.3-0.6c0.9,0,1.6,0.2,2.2,0.6c0.6,0.4,1.1,0.9,1.5,1.5c0.3,0.6,0.5,1.3,0.5,2.1c0,0.1,0,0.3,0,0.4
			c0,0.1,0,0.3,0,0.4h-7.1c0,0.7,0.2,1.3,0.5,1.7c0.3,0.4,0.6,0.8,1.1,1c0.4,0.2,0.9,0.3,1.4,0.3c0.6,0,1.1-0.1,1.6-0.4
			c0.4-0.3,0.7-0.7,0.9-1.2h1.5c-0.2,0.8-0.7,1.5-1.4,2.1C88.5,186.9,87.6,187.2,86.5,187.2z M86.5,179.1c-0.7,0-1.4,0.2-1.9,0.7
			c-0.6,0.4-0.9,1.1-1,1.9h5.6c0-0.8-0.3-1.4-0.8-1.9S87.3,179.1,86.5,179.1z M102.3,187.2c-0.7,0-1.4-0.1-2-0.5
			c-0.6-0.3-1-0.7-1.3-1.3l-0.1,1.5h-1.4v-13H99v5.5c0.3-0.4,0.7-0.8,1.2-1.2c0.5-0.3,1.2-0.5,2.1-0.5c0.9,0,1.7,0.2,2.3,0.6
			c0.7,0.4,1.2,1,1.5,1.7c0.4,0.7,0.6,1.5,0.6,2.4c0,0.9-0.2,1.7-0.6,2.4c-0.4,0.7-0.9,1.2-1.5,1.7C104,187,103.2,187.2,102.3,187.2
			z M102.1,185.9c0.6,0,1.1-0.1,1.6-0.4c0.5-0.3,0.8-0.7,1.1-1.2c0.3-0.5,0.4-1.1,0.4-1.8s-0.1-1.3-0.4-1.8
			c-0.3-0.5-0.6-0.9-1.1-1.2c-0.5-0.3-1-0.4-1.6-0.4s-1.1,0.1-1.6,0.4c-0.5,0.3-0.8,0.7-1.1,1.2s-0.4,1.1-0.4,1.8s0.1,1.3,0.4,1.8
			s0.6,0.9,1.1,1.2C101,185.8,101.5,185.9,102.1,185.9z M112.8,187.2c-0.9,0-1.6-0.2-2.3-0.6c-0.7-0.4-1.2-0.9-1.6-1.6
			c-0.4-0.7-0.6-1.5-0.6-2.5c0-0.9,0.2-1.8,0.6-2.4c0.4-0.7,0.9-1.3,1.5-1.6c0.7-0.4,1.4-0.6,2.3-0.6c0.9,0,1.6,0.2,2.2,0.6
			c0.6,0.4,1.1,0.9,1.5,1.5c0.3,0.6,0.5,1.3,0.5,2.1c0,0.1,0,0.3,0,0.4c0,0.1,0,0.3,0,0.4h-7.1c0,0.7,0.2,1.3,0.5,1.7
			c0.3,0.4,0.6,0.8,1.1,1c0.4,0.2,0.9,0.3,1.4,0.3c0.6,0,1.1-0.1,1.6-0.4c0.4-0.3,0.7-0.7,0.9-1.2h1.5c-0.2,0.8-0.7,1.5-1.4,2.1
			C114.8,186.9,113.9,187.2,112.8,187.2z M112.8,179.1c-0.7,0-1.4,0.2-1.9,0.7c-0.6,0.4-0.9,1.1-1,1.9h5.6c0-0.8-0.3-1.4-0.8-1.9
			C114.2,179.4,113.6,179.1,112.8,179.1z M122.3,187c-0.8,0-1.5-0.2-1.9-0.6c-0.5-0.4-0.7-1.1-0.7-2.1v-4.9h-1.5v-1.3h1.5l0.2-2.1
			h1.3v2.1h2.6v1.3h-2.6v4.9c0,0.6,0.1,0.9,0.3,1.2c0.2,0.2,0.6,0.3,1.2,0.3h0.9v1.3H122.3z M129.3,187c-0.8,0-1.5-0.2-1.9-0.6
			c-0.5-0.4-0.7-1.1-0.7-2.1v-4.9h-1.5v-1.3h1.5l0.2-2.1h1.3v2.1h2.6v1.3h-2.6v4.9c0,0.6,0.1,0.9,0.3,1.2c0.2,0.2,0.6,0.3,1.2,0.3
			h0.9v1.3H129.3z M136.5,187.2c-0.9,0-1.6-0.2-2.3-0.6c-0.7-0.4-1.2-0.9-1.6-1.6c-0.4-0.7-0.6-1.5-0.6-2.5c0-0.9,0.2-1.8,0.6-2.4
			c0.4-0.7,0.9-1.3,1.5-1.6c0.7-0.4,1.4-0.6,2.3-0.6c0.9,0,1.6,0.2,2.2,0.6c0.6,0.4,1.1,0.9,1.5,1.5c0.3,0.6,0.5,1.3,0.5,2.1
			c0,0.1,0,0.3,0,0.4c0,0.1,0,0.3,0,0.4h-7.1c0,0.7,0.2,1.3,0.5,1.7c0.3,0.4,0.6,0.8,1.1,1c0.4,0.2,0.9,0.3,1.4,0.3
			c0.6,0,1.1-0.1,1.6-0.4c0.4-0.3,0.7-0.7,0.9-1.2h1.5c-0.2,0.8-0.7,1.5-1.4,2.1C138.4,186.9,137.5,187.2,136.5,187.2z M136.5,179.1
			c-0.7,0-1.4,0.2-1.9,0.7c-0.6,0.4-0.9,1.1-1,1.9h5.6c0-0.8-0.3-1.4-0.8-1.9C137.9,179.4,137.2,179.1,136.5,179.1z M142.7,187v-8.9
			h1.4l0.1,1.7c0.3-0.6,0.7-1.1,1.3-1.4c0.6-0.3,1.3-0.5,2.1-0.5v1.6h-0.4c-0.5,0-1,0.1-1.5,0.3c-0.4,0.2-0.8,0.5-1.1,0.9
			c-0.3,0.4-0.4,1.1-0.4,1.8v4.5H142.7z M157.4,187.2c-1.1,0-2-0.3-2.7-0.8c-0.7-0.5-1.1-1.3-1.2-2.2h1.5c0.1,0.5,0.3,0.9,0.7,1.2
			c0.4,0.3,1,0.5,1.6,0.5c0.6,0,1.1-0.1,1.4-0.4c0.3-0.3,0.4-0.6,0.4-1c0-0.5-0.2-0.9-0.6-1.1c-0.4-0.2-0.9-0.3-1.6-0.5
			c-0.5-0.1-1-0.2-1.4-0.4c-0.5-0.2-0.9-0.4-1.2-0.8c-0.3-0.3-0.5-0.8-0.5-1.3c0-0.8,0.3-1.4,0.9-1.9c0.6-0.5,1.4-0.8,2.4-0.8
			c0.9,0,1.7,0.2,2.3,0.7c0.6,0.5,1,1.1,1.1,2h-1.5c-0.1-0.5-0.3-0.8-0.6-1.1c-0.3-0.3-0.8-0.4-1.3-0.4c-0.5,0-1,0.1-1.3,0.3
			c-0.3,0.2-0.4,0.5-0.4,0.9c0,0.4,0.2,0.6,0.6,0.8c0.4,0.2,0.9,0.4,1.5,0.5c0.6,0.1,1.1,0.3,1.6,0.5c0.5,0.2,0.9,0.4,1.2,0.8
			c0.3,0.3,0.5,0.8,0.5,1.5c0,0.8-0.3,1.5-0.9,2C159.3,187,158.5,187.2,157.4,187.2z M163,187v-13h1.5v13H163z M171,187.2
			c-0.9,0-1.6-0.2-2.3-0.6c-0.7-0.4-1.2-0.9-1.6-1.6c-0.4-0.7-0.6-1.5-0.6-2.5c0-0.9,0.2-1.8,0.6-2.4c0.4-0.7,0.9-1.3,1.5-1.6
			c0.7-0.4,1.4-0.6,2.3-0.6c0.9,0,1.6,0.2,2.2,0.6c0.6,0.4,1.1,0.9,1.5,1.5c0.3,0.6,0.5,1.3,0.5,2.1c0,0.1,0,0.3,0,0.4
			c0,0.1,0,0.3,0,0.4h-7.1c0,0.7,0.2,1.3,0.5,1.7c0.3,0.4,0.6,0.8,1.1,1c0.4,0.2,0.9,0.3,1.4,0.3c0.6,0,1.1-0.1,1.6-0.4
			c0.4-0.3,0.7-0.7,0.9-1.2h1.5c-0.2,0.8-0.7,1.5-1.4,2.1C172.9,186.9,172.1,187.2,171,187.2z M171,179.1c-0.7,0-1.4,0.2-1.9,0.7
			c-0.6,0.4-0.9,1.1-1,1.9h5.6c0-0.8-0.3-1.4-0.8-1.9C172.4,179.4,171.8,179.1,171,179.1z M181.3,187.2c-0.9,0-1.6-0.2-2.3-0.6
			c-0.7-0.4-1.2-0.9-1.6-1.6c-0.4-0.7-0.6-1.5-0.6-2.5c0-0.9,0.2-1.8,0.6-2.4c0.4-0.7,0.9-1.3,1.5-1.6c0.7-0.4,1.4-0.6,2.3-0.6
			c0.9,0,1.6,0.2,2.2,0.6c0.6,0.4,1.1,0.9,1.5,1.5c0.3,0.6,0.5,1.3,0.5,2.1c0,0.1,0,0.3,0,0.4c0,0.1,0,0.3,0,0.4h-7.1
			c0,0.7,0.2,1.3,0.5,1.7c0.3,0.4,0.6,0.8,1.1,1c0.4,0.2,0.9,0.3,1.4,0.3c0.6,0,1.1-0.1,1.6-0.4c0.4-0.3,0.7-0.7,0.9-1.2h1.5
			c-0.2,0.8-0.7,1.5-1.4,2.1C183.2,186.9,182.3,187.2,181.3,187.2z M181.3,179.1c-0.7,0-1.4,0.2-1.9,0.7c-0.6,0.4-0.9,1.1-1,1.9h5.6
			c0-0.8-0.3-1.4-0.8-1.9C182.7,179.4,182,179.1,181.3,179.1z M187.5,191v-12.9h1.4l0.1,1.5c0.3-0.4,0.7-0.8,1.2-1.2
			c0.5-0.3,1.2-0.5,2.1-0.5c0.9,0,1.7,0.2,2.3,0.6c0.7,0.4,1.2,1,1.5,1.7c0.4,0.7,0.6,1.5,0.6,2.4c0,0.9-0.2,1.7-0.6,2.4
			c-0.4,0.7-0.9,1.2-1.5,1.7c-0.7,0.4-1.4,0.6-2.3,0.6c-0.7,0-1.4-0.1-2-0.5c-0.6-0.3-1-0.7-1.3-1.3v5.5H187.5z M192.1,185.9
			c0.6,0,1.1-0.1,1.6-0.4c0.5-0.3,0.8-0.7,1.1-1.2c0.3-0.5,0.4-1.1,0.4-1.8s-0.1-1.3-0.4-1.8c-0.3-0.5-0.6-0.9-1.1-1.2
			c-0.5-0.3-1-0.4-1.6-0.4c-0.6,0-1.1,0.1-1.6,0.4c-0.5,0.3-0.8,0.7-1.1,1.2c-0.3,0.5-0.4,1.1-0.4,1.8s0.1,1.3,0.4,1.8
			c0.3,0.5,0.6,0.9,1.1,1.2C191,185.8,191.5,185.9,192.1,185.9z M210.9,191v-5.4c-0.3,0.4-0.7,0.8-1.2,1.2c-0.5,0.3-1.2,0.5-2,0.5
			c-0.9,0-1.7-0.2-2.3-0.6c-0.7-0.4-1.2-1-1.5-1.7c-0.4-0.7-0.5-1.5-0.5-2.4s0.2-1.7,0.6-2.4c0.4-0.7,0.9-1.3,1.5-1.7
			c0.7-0.4,1.4-0.6,2.3-0.6c0.7,0,1.4,0.2,1.9,0.5c0.6,0.3,1,0.7,1.3,1.3l0.1-1.5h1.4V191H210.9z M207.8,185.9
			c0.6,0,1.1-0.1,1.6-0.4c0.5-0.3,0.8-0.7,1.1-1.2c0.3-0.5,0.4-1.1,0.4-1.8s-0.1-1.3-0.4-1.8c-0.3-0.5-0.6-0.9-1.1-1.2
			c-0.5-0.3-1-0.4-1.6-0.4c-0.6,0-1.1,0.1-1.6,0.4c-0.5,0.3-0.8,0.7-1.1,1.2c-0.3,0.5-0.4,1.1-0.4,1.8s0.1,1.3,0.4,1.8
			c0.3,0.5,0.6,0.9,1.1,1.2C206.7,185.8,207.2,185.9,207.8,185.9z M218.1,187.2c-1.1,0-1.9-0.3-2.5-1c-0.6-0.6-0.9-1.6-0.9-3v-5.2
			h1.5v5.1c0,1.9,0.8,2.8,2.3,2.8c0.8,0,1.4-0.3,1.9-0.8c0.5-0.6,0.8-1.4,0.8-2.4v-4.6h1.5v8.9h-1.4l-0.1-1.6
			c-0.3,0.6-0.7,1-1.2,1.3C219.4,187.1,218.8,187.2,218.1,187.2z M228.1,187.2c-0.7,0-1.4-0.1-1.9-0.4c-0.5-0.3-0.9-0.6-1.1-1
			c-0.2-0.4-0.4-0.9-0.4-1.4c0-0.9,0.3-1.6,1-2.1c0.7-0.5,1.6-0.7,2.8-0.7h2.4v-0.1c0-0.8-0.2-1.4-0.6-1.8c-0.4-0.4-1-0.6-1.6-0.6
			c-0.6,0-1.1,0.1-1.5,0.5c-0.4,0.3-0.7,0.7-0.8,1.3H225c0.1-0.6,0.3-1.2,0.6-1.6c0.4-0.4,0.9-0.8,1.4-1c0.6-0.2,1.2-0.4,1.8-0.4
			c1.2,0,2.2,0.3,2.8,1c0.6,0.7,1,1.5,1,2.6v5.5h-1.3l-0.1-1.6c-0.3,0.5-0.6,0.9-1.1,1.3C229.6,187,229,187.2,228.1,187.2z
			 M228.4,185.9c0.6,0,1.1-0.1,1.5-0.4c0.4-0.3,0.7-0.7,1-1.2c0.2-0.5,0.3-1,0.3-1.5v0h-2.3c-0.9,0-1.5,0.2-1.9,0.5
			c-0.4,0.3-0.5,0.7-0.5,1.1c0,0.5,0.2,0.8,0.5,1.1C227.3,185.8,227.7,185.9,228.4,185.9z M234.9,187v-13h1.5v13H234.9z
			 M239.8,176.1c-0.3,0-0.6-0.1-0.8-0.3c-0.2-0.2-0.3-0.5-0.3-0.8c0-0.3,0.1-0.5,0.3-0.7c0.2-0.2,0.5-0.3,0.8-0.3
			c0.3,0,0.5,0.1,0.7,0.3c0.2,0.2,0.3,0.4,0.3,0.7c0,0.3-0.1,0.6-0.3,0.8C240.3,176,240.1,176.1,239.8,176.1z M239.1,187v-8.9h1.5
			v8.9H239.1z M246.7,187c-0.8,0-1.5-0.2-1.9-0.6c-0.5-0.4-0.7-1.1-0.7-2.1v-4.9h-1.5v-1.3h1.5l0.2-2.1h1.3v2.1h2.6v1.3h-2.6v4.9
			c0,0.6,0.1,0.9,0.3,1.2c0.2,0.2,0.6,0.3,1.2,0.3h0.9v1.3H246.7z M251.1,191l2.2-4.8h-0.5l-3.5-8.1h1.6l3,6.9l3.1-6.9h1.6
			l-5.8,12.9H251.1z M259.4,187.1c-0.3,0-0.6-0.1-0.8-0.3c-0.2-0.2-0.3-0.5-0.3-0.7s0.1-0.5,0.3-0.7c0.2-0.2,0.5-0.3,0.8-0.3
			c0.3,0,0.5,0.1,0.7,0.3c0.2,0.2,0.3,0.4,0.3,0.7s-0.1,0.5-0.3,0.7C259.9,187,259.7,187.1,259.4,187.1z"/>
		<path class="st1" d="M26,227.2c-1,0-2-0.2-2.8-0.7c-0.8-0.5-1.4-1.2-1.8-2c-0.4-0.9-0.7-1.9-0.7-3c0-1.1,0.2-2.1,0.7-3
			c0.4-0.9,1.1-1.6,1.9-2c0.8-0.5,1.8-0.7,2.9-0.7c1.3,0,2.3,0.3,3.1,0.9c0.8,0.6,1.4,1.4,1.6,2.5h-1.6c-0.1-0.7-0.5-1.2-1.1-1.6
			c-0.6-0.4-1.3-0.6-2.1-0.6c-0.8,0-1.5,0.2-2.1,0.6c-0.6,0.4-1.1,0.9-1.4,1.6c-0.3,0.7-0.5,1.5-0.5,2.4c0,0.9,0.2,1.8,0.5,2.4
			c0.3,0.7,0.8,1.2,1.4,1.6c0.6,0.4,1.3,0.5,2,0.5c1.2,0,2.1-0.3,2.7-1c0.6-0.7,1-1.7,1-2.9h-3.2V221h4.6v6h-1.2l-0.1-1.8
			c-0.4,0.7-0.9,1.2-1.5,1.5S27,227.2,26,227.2z M36.8,227.2c-0.7,0-1.4-0.2-2-0.5c-0.6-0.3-1.1-0.8-1.4-1.4
			c-0.3-0.6-0.5-1.4-0.5-2.2c0-0.8,0.2-1.6,0.5-2.2c0.4-0.6,0.8-1.1,1.4-1.5c0.6-0.3,1.3-0.5,2-0.5c0.7,0,1.4,0.2,2,0.5
			c0.6,0.3,1.1,0.8,1.4,1.5c0.4,0.6,0.5,1.3,0.5,2.2c0,0.8-0.2,1.6-0.5,2.2c-0.4,0.6-0.8,1.1-1.4,1.4
			C38.2,227,37.6,227.2,36.8,227.2z M36.8,226c0.5,0,0.9-0.1,1.3-0.3c0.4-0.2,0.7-0.6,1-1c0.2-0.4,0.4-1,0.4-1.7
			c0-0.7-0.1-1.2-0.4-1.7c-0.2-0.4-0.5-0.8-0.9-1c-0.4-0.2-0.8-0.3-1.3-0.3c-0.5,0-0.9,0.1-1.3,0.3c-0.4,0.2-0.7,0.6-1,1
			c-0.2,0.4-0.4,1-0.4,1.7c0,0.7,0.1,1.2,0.4,1.7c0.2,0.4,0.6,0.8,0.9,1C36,225.9,36.4,226,36.8,226z M46.3,227.2
			c-0.7,0-1.4-0.2-2-0.5c-0.6-0.3-1.1-0.8-1.4-1.4c-0.3-0.6-0.5-1.4-0.5-2.2c0-0.8,0.2-1.6,0.5-2.2c0.4-0.6,0.8-1.1,1.4-1.5
			c0.6-0.3,1.3-0.5,2-0.5c0.7,0,1.4,0.2,2,0.5c0.6,0.3,1.1,0.8,1.4,1.5c0.4,0.6,0.5,1.3,0.5,2.2c0,0.8-0.2,1.6-0.5,2.2
			c-0.4,0.6-0.8,1.1-1.4,1.4C47.7,227,47,227.2,46.3,227.2z M46.3,226c0.5,0,0.9-0.1,1.3-0.3c0.4-0.2,0.7-0.6,1-1
			c0.2-0.4,0.4-1,0.4-1.7c0-0.7-0.1-1.2-0.4-1.7c-0.2-0.4-0.5-0.8-0.9-1c-0.4-0.2-0.8-0.3-1.3-0.3c-0.5,0-0.9,0.1-1.3,0.3
			c-0.4,0.2-0.7,0.6-1,1c-0.2,0.4-0.4,1-0.4,1.7c0,0.7,0.1,1.2,0.4,1.7c0.2,0.4,0.6,0.8,0.9,1C45.4,225.9,45.9,226,46.3,226z
			 M55.8,227.2c-0.8,0-1.5-0.2-2.1-0.5c-0.6-0.4-1-0.9-1.4-1.5c-0.3-0.6-0.5-1.3-0.5-2.1c0-0.8,0.2-1.5,0.5-2.1
			c0.3-0.6,0.8-1.1,1.4-1.5c0.6-0.4,1.3-0.5,2.1-0.5c0.7,0,1.2,0.1,1.7,0.4c0.5,0.3,0.9,0.6,1.2,1.1v-4.9H60V227h-1.2l-0.1-1.3
			c-0.3,0.4-0.6,0.7-1.1,1C57.1,227,56.5,227.2,55.8,227.2z M55.9,226c0.5,0,1-0.1,1.4-0.4c0.4-0.3,0.7-0.6,1-1.1
			c0.2-0.4,0.4-1,0.4-1.6c0-0.6-0.1-1.1-0.4-1.6c-0.2-0.4-0.5-0.8-1-1c-0.4-0.3-0.9-0.4-1.4-0.4c-0.5,0-1,0.1-1.4,0.4
			c-0.4,0.2-0.7,0.6-1,1c-0.2,0.4-0.3,1-0.3,1.6c0,0.6,0.1,1.1,0.3,1.6c0.2,0.4,0.6,0.8,1,1.1C54.9,225.9,55.4,226,55.9,226z
			 M69.5,227.2c-0.9,0-1.7-0.2-2.4-0.7c-0.6-0.5-1-1.1-1.1-2h1.4c0.1,0.4,0.3,0.8,0.7,1.1c0.4,0.3,0.8,0.4,1.5,0.4
			c0.6,0,1-0.1,1.2-0.4c0.3-0.2,0.4-0.5,0.4-0.9c0-0.5-0.2-0.8-0.5-1c-0.3-0.2-0.8-0.3-1.5-0.4c-0.4-0.1-0.9-0.2-1.3-0.4
			c-0.4-0.2-0.8-0.4-1.1-0.7c-0.3-0.3-0.4-0.7-0.4-1.2c0-0.7,0.3-1.3,0.8-1.7c0.5-0.4,1.2-0.7,2.1-0.7c0.8,0,1.5,0.2,2.1,0.6
			c0.5,0.4,0.9,1,0.9,1.8h-1.3c-0.1-0.4-0.2-0.7-0.5-0.9c-0.3-0.2-0.7-0.4-1.2-0.4c-0.5,0-0.9,0.1-1.1,0.3c-0.3,0.2-0.4,0.5-0.4,0.8
			c0,0.3,0.2,0.6,0.5,0.8c0.3,0.2,0.8,0.3,1.4,0.5c0.5,0.1,1,0.2,1.4,0.4c0.4,0.1,0.8,0.4,1.1,0.7c0.3,0.3,0.4,0.7,0.4,1.3
			c0,0.7-0.3,1.3-0.8,1.8C71.2,227,70.4,227.2,69.5,227.2z M74.4,227v-11.5h1.3V227H74.4z M81.5,227.2c-0.8,0-1.4-0.2-2-0.5
			c-0.6-0.4-1.1-0.8-1.4-1.5c-0.3-0.6-0.5-1.3-0.5-2.2c0-0.8,0.2-1.6,0.5-2.2c0.3-0.6,0.8-1.1,1.4-1.5c0.6-0.4,1.3-0.5,2.1-0.5
			c0.8,0,1.4,0.2,2,0.5c0.6,0.3,1,0.8,1.3,1.4c0.3,0.6,0.4,1.2,0.4,1.8c0,0.1,0,0.2,0,0.4c0,0.1,0,0.3,0,0.4H79
			c0,0.6,0.2,1.1,0.4,1.5c0.3,0.4,0.6,0.7,0.9,0.9c0.4,0.2,0.8,0.3,1.2,0.3c0.6,0,1-0.1,1.4-0.4c0.4-0.3,0.6-0.6,0.8-1h1.3
			c-0.2,0.7-0.6,1.3-1.2,1.8C83.3,227,82.5,227.2,81.5,227.2z M81.5,220c-0.6,0-1.2,0.2-1.7,0.6c-0.5,0.4-0.8,0.9-0.8,1.7h5
			c0-0.7-0.3-1.3-0.7-1.7C82.8,220.2,82.2,220,81.5,220z M90.7,227.2c-0.8,0-1.4-0.2-2-0.5c-0.6-0.4-1.1-0.8-1.4-1.5
			c-0.3-0.6-0.5-1.3-0.5-2.2c0-0.8,0.2-1.6,0.5-2.2c0.3-0.6,0.8-1.1,1.4-1.5c0.6-0.4,1.3-0.5,2.1-0.5c0.8,0,1.4,0.2,2,0.5
			c0.6,0.3,1,0.8,1.3,1.4c0.3,0.6,0.4,1.2,0.4,1.8c0,0.1,0,0.2,0,0.4c0,0.1,0,0.3,0,0.4h-6.3c0,0.6,0.2,1.1,0.4,1.5
			c0.3,0.4,0.6,0.7,0.9,0.9c0.4,0.2,0.8,0.3,1.2,0.3c0.6,0,1-0.1,1.4-0.4c0.4-0.3,0.6-0.6,0.8-1h1.3c-0.2,0.7-0.6,1.3-1.2,1.8
			C92.4,227,91.6,227.2,90.7,227.2z M90.7,220c-0.6,0-1.2,0.2-1.7,0.6c-0.5,0.4-0.8,0.9-0.8,1.7h5c0-0.7-0.3-1.3-0.7-1.7
			C91.9,220.2,91.3,220,90.7,220z M96.2,230.5v-11.5h1.2l0.1,1.3c0.3-0.4,0.6-0.7,1.1-1c0.5-0.3,1.1-0.5,1.8-0.5
			c0.8,0,1.5,0.2,2.1,0.5c0.6,0.4,1,0.9,1.4,1.5c0.3,0.6,0.5,1.3,0.5,2.1c0,0.8-0.2,1.5-0.5,2.1c-0.3,0.6-0.8,1.1-1.4,1.5
			c-0.6,0.4-1.3,0.5-2.1,0.5c-0.7,0-1.2-0.1-1.7-0.4c-0.5-0.3-0.9-0.6-1.2-1.1v4.8H96.2z M100.3,226c0.5,0,1-0.1,1.4-0.4
			c0.4-0.3,0.7-0.6,1-1.1c0.2-0.4,0.4-1,0.4-1.6c0-0.6-0.1-1.1-0.4-1.6c-0.2-0.4-0.6-0.8-1-1c-0.4-0.3-0.9-0.4-1.4-0.4
			c-0.5,0-1,0.1-1.4,0.4c-0.4,0.2-0.7,0.6-1,1c-0.2,0.4-0.4,1-0.4,1.6c0,0.6,0.1,1.1,0.4,1.6c0.2,0.4,0.6,0.8,1,1.1
			C99.3,225.9,99.8,226,100.3,226z M111.3,217.3c-0.3,0-0.5-0.1-0.7-0.3c-0.2-0.2-0.3-0.4-0.3-0.7c0-0.3,0.1-0.5,0.3-0.6
			c0.2-0.2,0.4-0.3,0.7-0.3c0.3,0,0.5,0.1,0.7,0.3c0.2,0.2,0.3,0.4,0.3,0.6c0,0.3-0.1,0.5-0.3,0.7
			C111.8,217.2,111.6,217.3,111.3,217.3z M110.6,227v-7.9h1.3v7.9H110.6z M117.3,227.2c-0.9,0-1.7-0.2-2.4-0.7c-0.6-0.5-1-1.1-1.1-2
			h1.4c0.1,0.4,0.3,0.8,0.7,1.1c0.4,0.3,0.8,0.4,1.5,0.4c0.6,0,1-0.1,1.2-0.4c0.3-0.2,0.4-0.5,0.4-0.9c0-0.5-0.2-0.8-0.5-1
			c-0.3-0.2-0.8-0.3-1.5-0.4c-0.4-0.1-0.9-0.2-1.3-0.4c-0.4-0.2-0.8-0.4-1.1-0.7c-0.3-0.3-0.4-0.7-0.4-1.2c0-0.7,0.3-1.3,0.8-1.7
			c0.5-0.4,1.2-0.7,2.1-0.7c0.8,0,1.5,0.2,2.1,0.6c0.5,0.4,0.9,1,0.9,1.8h-1.3c-0.1-0.4-0.2-0.7-0.5-0.9c-0.3-0.2-0.7-0.4-1.2-0.4
			c-0.5,0-0.9,0.1-1.1,0.3c-0.3,0.2-0.4,0.5-0.4,0.8c0,0.3,0.2,0.6,0.5,0.8c0.3,0.2,0.8,0.3,1.4,0.5c0.5,0.1,1,0.2,1.4,0.4
			c0.4,0.1,0.8,0.4,1.1,0.7c0.3,0.3,0.4,0.7,0.4,1.3c0,0.7-0.3,1.3-0.8,1.8C119,227,118.3,227.2,117.3,227.2z M129.2,227.2
			c-0.7,0-1.2-0.1-1.6-0.3c-0.4-0.2-0.8-0.5-1-0.9c-0.2-0.4-0.3-0.8-0.3-1.2c0-0.8,0.3-1.4,0.9-1.9c0.6-0.4,1.5-0.7,2.5-0.7h2.1
			v-0.1c0-0.7-0.2-1.2-0.5-1.6c-0.4-0.4-0.8-0.5-1.5-0.5c-0.5,0-1,0.1-1.4,0.4c-0.4,0.3-0.6,0.6-0.7,1.1h-1.4
			c0.1-0.6,0.2-1.1,0.6-1.5c0.3-0.4,0.8-0.7,1.3-0.9c0.5-0.2,1-0.3,1.6-0.3c1.1,0,1.9,0.3,2.5,0.9c0.6,0.6,0.8,1.4,0.8,2.4v4.9H132
			l-0.1-1.4c-0.2,0.4-0.6,0.8-1,1.2C130.5,227,129.9,227.2,129.2,227.2z M129.4,226.1c0.5,0,0.9-0.1,1.3-0.4c0.4-0.3,0.7-0.6,0.8-1
			s0.3-0.9,0.3-1.3v0h-2c-0.8,0-1.4,0.1-1.7,0.4c-0.3,0.3-0.5,0.6-0.5,1c0,0.4,0.1,0.8,0.4,1C128.4,225.9,128.8,226.1,129.4,226.1z
			 M135.2,227v-11.5h1.3V227H135.2z M138.7,227v-11.5h1.3V227H138.7z M149.2,227.2c-0.7,0-1.2-0.1-1.6-0.3c-0.4-0.2-0.8-0.5-1-0.9
			c-0.2-0.4-0.3-0.8-0.3-1.2c0-0.8,0.3-1.4,0.9-1.9c0.6-0.4,1.5-0.7,2.5-0.7h2.1v-0.1c0-0.7-0.2-1.2-0.5-1.6
			c-0.4-0.4-0.8-0.5-1.5-0.5c-0.5,0-1,0.1-1.4,0.4c-0.4,0.3-0.6,0.6-0.7,1.1h-1.4c0.1-0.6,0.2-1.1,0.6-1.5c0.3-0.4,0.8-0.7,1.3-0.9
			c0.5-0.2,1-0.3,1.6-0.3c1.1,0,1.9,0.3,2.5,0.9c0.6,0.6,0.8,1.4,0.8,2.4v4.9H152l-0.1-1.4c-0.2,0.4-0.6,0.8-1,1.2
			C150.5,227,149.9,227.2,149.2,227.2z M149.4,226.1c0.5,0,0.9-0.1,1.3-0.4c0.4-0.3,0.7-0.6,0.8-1s0.3-0.9,0.3-1.3v0h-2
			c-0.8,0-1.3,0.1-1.7,0.4c-0.3,0.3-0.5,0.6-0.5,1c0,0.4,0.1,0.8,0.4,1C148.4,225.9,148.8,226.1,149.4,226.1z M159.4,227.2
			c-0.7,0-1.2-0.1-1.7-0.4c-0.5-0.3-0.9-0.6-1.2-1.1l-0.1,1.3h-1.2v-11.5h1.3v4.9c0.3-0.4,0.6-0.7,1.1-1c0.5-0.3,1.1-0.5,1.8-0.5
			c0.8,0,1.5,0.2,2.1,0.5c0.6,0.4,1,0.9,1.4,1.5c0.3,0.6,0.5,1.3,0.5,2.1c0,0.8-0.2,1.5-0.5,2.1c-0.3,0.6-0.8,1.1-1.4,1.5
			C160.9,227,160.2,227.2,159.4,227.2z M159.3,226c0.5,0,1-0.1,1.4-0.4c0.4-0.3,0.7-0.6,1-1.1s0.4-1,0.4-1.6c0-0.6-0.1-1.1-0.4-1.6
			s-0.6-0.8-1-1c-0.4-0.3-0.9-0.4-1.4-0.4s-1,0.1-1.4,0.4c-0.4,0.2-0.7,0.6-1,1s-0.4,1-0.4,1.6c0,0.6,0.1,1.1,0.4,1.6s0.6,0.8,1,1.1
			C158.3,225.9,158.7,226,159.3,226z M168.8,227.2c-0.7,0-1.4-0.2-2-0.5s-1.1-0.8-1.4-1.4c-0.3-0.6-0.5-1.4-0.5-2.2
			c0-0.8,0.2-1.6,0.5-2.2c0.4-0.6,0.8-1.1,1.4-1.5c0.6-0.3,1.3-0.5,2-0.5s1.4,0.2,2,0.5s1.1,0.8,1.4,1.5c0.4,0.6,0.5,1.3,0.5,2.2
			c0,0.8-0.2,1.6-0.5,2.2c-0.4,0.6-0.8,1.1-1.4,1.4C170.3,227,169.6,227.2,168.8,227.2z M168.8,226c0.5,0,0.9-0.1,1.3-0.3
			s0.7-0.6,1-1c0.2-0.4,0.4-1,0.4-1.7c0-0.7-0.1-1.2-0.4-1.7c-0.2-0.4-0.5-0.8-0.9-1c-0.4-0.2-0.8-0.3-1.3-0.3
			c-0.5,0-0.9,0.1-1.3,0.3c-0.4,0.2-0.7,0.6-1,1c-0.2,0.4-0.4,1-0.4,1.7c0,0.7,0.1,1.2,0.4,1.7c0.2,0.4,0.6,0.8,0.9,1
			C168,225.9,168.4,226,168.8,226z M177.6,227.2c-0.9,0-1.7-0.3-2.2-0.8c-0.6-0.6-0.8-1.5-0.8-2.6v-4.6h1.3v4.5c0,1.7,0.7,2.5,2,2.5
			c0.7,0,1.3-0.2,1.7-0.7c0.5-0.5,0.7-1.2,0.7-2.1v-4.1h1.3v7.9h-1.2l-0.1-1.4c-0.2,0.5-0.6,0.9-1.1,1.2
			C178.7,227,178.2,227.2,177.6,227.2z M187,227c-0.7,0-1.3-0.2-1.7-0.5c-0.4-0.4-0.6-1-0.6-1.9v-4.4h-1.4v-1.1h1.4l0.2-1.9h1.2v1.9
			h2.3v1.1H186v4.4c0,0.5,0.1,0.8,0.3,1c0.2,0.2,0.6,0.3,1.1,0.3h0.8v1.2H187z M194.3,227v-7.9h1.2l0.1,1.5c0.2-0.5,0.6-0.9,1.1-1.2
			c0.5-0.3,1.1-0.5,1.9-0.5v1.4h-0.4c-0.5,0-0.9,0.1-1.3,0.3c-0.4,0.2-0.7,0.4-0.9,0.8c-0.2,0.4-0.4,0.9-0.4,1.6v4H194.3z
			 M203.4,227.2c-0.7,0-1.4-0.2-2-0.5c-0.6-0.3-1.1-0.8-1.4-1.4c-0.3-0.6-0.5-1.4-0.5-2.2c0-0.8,0.2-1.6,0.5-2.2
			c0.4-0.6,0.8-1.1,1.4-1.5c0.6-0.3,1.3-0.5,2-0.5c0.7,0,1.4,0.2,2,0.5c0.6,0.3,1.1,0.8,1.4,1.5c0.4,0.6,0.5,1.3,0.5,2.2
			c0,0.8-0.2,1.6-0.5,2.2c-0.4,0.6-0.8,1.1-1.4,1.4C204.8,227,204.2,227.2,203.4,227.2z M203.4,226c0.5,0,0.9-0.1,1.3-0.3
			c0.4-0.2,0.7-0.6,1-1c0.2-0.4,0.4-1,0.4-1.7c0-0.7-0.1-1.2-0.4-1.7c-0.2-0.4-0.5-0.8-0.9-1c-0.4-0.2-0.8-0.3-1.3-0.3
			c-0.5,0-0.9,0.1-1.3,0.3c-0.4,0.2-0.7,0.6-1,1c-0.2,0.4-0.4,1-0.4,1.7c0,0.7,0.1,1.2,0.4,1.7c0.2,0.4,0.6,0.8,0.9,1
			C202.5,225.9,203,226,203.4,226z M212.2,227.2c-0.9,0-1.7-0.3-2.2-0.8c-0.6-0.6-0.8-1.5-0.8-2.6v-4.6h1.3v4.5c0,1.7,0.7,2.5,2,2.5
			c0.7,0,1.3-0.2,1.7-0.7c0.5-0.5,0.7-1.2,0.7-2.1v-4.1h1.3v7.9H215l-0.1-1.4c-0.2,0.5-0.6,0.9-1.1,1.2
			C213.3,227,212.8,227.2,212.2,227.2z M221.6,227c-0.7,0-1.3-0.2-1.7-0.5c-0.4-0.4-0.6-1-0.6-1.9v-4.4h-1.4v-1.1h1.4l0.2-1.9h1.2
			v1.9h2.3v1.1h-2.3v4.4c0,0.5,0.1,0.8,0.3,1c0.2,0.2,0.6,0.3,1.1,0.3h0.8v1.2H221.6z M225.4,217.3c-0.3,0-0.5-0.1-0.7-0.3
			c-0.2-0.2-0.3-0.4-0.3-0.7c0-0.3,0.1-0.5,0.3-0.6c0.2-0.2,0.4-0.3,0.7-0.3c0.3,0,0.5,0.1,0.7,0.3c0.2,0.2,0.3,0.4,0.3,0.6
			c0,0.3-0.1,0.5-0.3,0.7C225.9,217.2,225.7,217.3,225.4,217.3z M224.7,227v-7.9h1.3v7.9H224.7z M228.4,227v-7.9h1.2l0.1,1.4
			c0.3-0.5,0.6-0.9,1.1-1.2c0.5-0.3,1-0.4,1.6-0.4c0.9,0,1.7,0.3,2.2,0.9c0.6,0.6,0.8,1.4,0.8,2.6v4.6h-1.3v-4.5
			c0-1.7-0.7-2.5-2-2.5c-0.7,0-1.3,0.3-1.7,0.8c-0.4,0.5-0.7,1.2-0.7,2.1v4.1H228.4z M241.2,227.2c-0.8,0-1.4-0.2-2-0.5
			c-0.6-0.4-1.1-0.8-1.4-1.5c-0.3-0.6-0.5-1.3-0.5-2.2c0-0.8,0.2-1.6,0.5-2.2c0.3-0.6,0.8-1.1,1.4-1.5c0.6-0.4,1.3-0.5,2.1-0.5
			c0.8,0,1.4,0.2,2,0.5c0.6,0.3,1,0.8,1.3,1.4c0.3,0.6,0.4,1.2,0.4,1.8c0,0.1,0,0.2,0,0.4c0,0.1,0,0.3,0,0.4h-6.3
			c0,0.6,0.2,1.1,0.4,1.5c0.3,0.4,0.6,0.7,0.9,0.9c0.4,0.2,0.8,0.3,1.2,0.3c0.6,0,1-0.1,1.4-0.4c0.4-0.3,0.6-0.6,0.8-1h1.3
			c-0.2,0.7-0.6,1.3-1.2,1.8C242.9,227,242.1,227.2,241.2,227.2z M241.2,220c-0.6,0-1.2,0.2-1.7,0.6c-0.5,0.4-0.8,0.9-0.8,1.7h5
			c0-0.7-0.3-1.3-0.7-1.7C242.4,220.2,241.8,220,241.2,220z M247.2,227.1c-0.3,0-0.5-0.1-0.7-0.3c-0.2-0.2-0.3-0.4-0.3-0.7
			s0.1-0.5,0.3-0.6c0.2-0.2,0.4-0.3,0.7-0.3c0.3,0,0.5,0.1,0.6,0.3c0.2,0.2,0.3,0.4,0.3,0.6s-0.1,0.5-0.3,0.7
			C247.6,227,247.4,227.1,247.2,227.1z M24.8,251.2c-0.8,0-1.5-0.1-2.1-0.4c-0.6-0.3-1.1-0.7-1.4-1.2s-0.5-1.2-0.5-1.9h1.4
			c0,0.4,0.1,0.8,0.3,1.2c0.2,0.4,0.5,0.7,0.9,0.9c0.4,0.2,0.9,0.3,1.5,0.3c0.8,0,1.3-0.2,1.8-0.5s0.6-0.8,0.6-1.4
			c0-0.4-0.1-0.8-0.3-1.1c-0.2-0.3-0.5-0.5-0.8-0.7c-0.3-0.2-0.7-0.3-1.1-0.4c-0.4-0.1-0.9-0.3-1.3-0.4c-0.9-0.3-1.5-0.7-1.9-1.1
			c-0.4-0.4-0.6-1-0.6-1.7c0-0.6,0.1-1.1,0.4-1.6c0.3-0.5,0.7-0.8,1.2-1.1c0.5-0.3,1.2-0.4,1.9-0.4c0.7,0,1.3,0.1,1.9,0.4
			c0.5,0.3,0.9,0.6,1.2,1.1c0.3,0.5,0.5,1,0.5,1.6h-1.4c0-0.3-0.1-0.6-0.2-0.9c-0.2-0.3-0.4-0.6-0.7-0.8c-0.3-0.2-0.7-0.3-1.2-0.3
			c-0.6,0-1.1,0.1-1.5,0.5c-0.4,0.3-0.6,0.8-0.6,1.3c0,0.5,0.1,0.8,0.4,1.1c0.3,0.3,0.7,0.5,1.2,0.6c0.5,0.2,1.1,0.3,1.7,0.6
			c0.5,0.2,1,0.4,1.4,0.7c0.4,0.3,0.8,0.6,1,1c0.2,0.4,0.4,0.9,0.4,1.6c0,0.5-0.1,1-0.4,1.5c-0.3,0.5-0.7,0.9-1.3,1.2
			C26.3,251,25.6,251.2,24.8,251.2z M31.2,241.3c-0.3,0-0.5-0.1-0.7-0.3c-0.2-0.2-0.3-0.4-0.3-0.7c0-0.3,0.1-0.5,0.3-0.6
			c0.2-0.2,0.4-0.3,0.7-0.3c0.3,0,0.5,0.1,0.7,0.3c0.2,0.2,0.3,0.4,0.3,0.6c0,0.3-0.1,0.5-0.3,0.7C31.6,241.2,31.4,241.3,31.2,241.3
			z M30.5,251v-7.9h1.3v7.9H30.5z M34.2,251v-7.9h1.2l0.1,1.2c0.3-0.4,0.6-0.8,1-1c0.4-0.2,0.9-0.4,1.4-0.4c0.6,0,1.2,0.1,1.6,0.4
			c0.5,0.3,0.8,0.6,1.1,1.2c0.3-0.5,0.7-0.9,1.1-1.1c0.5-0.3,1-0.4,1.6-0.4c0.9,0,1.7,0.3,2.3,0.9c0.6,0.6,0.8,1.4,0.8,2.6v4.6h-1.3
			v-4.5c0-0.8-0.2-1.4-0.5-1.9c-0.3-0.4-0.8-0.6-1.4-0.6c-0.6,0-1.2,0.3-1.6,0.8c-0.4,0.5-0.6,1.2-0.6,2.1v4.1h-1.3v-4.5
			c0-0.8-0.2-1.4-0.5-1.9c-0.3-0.4-0.8-0.6-1.4-0.6c-0.6,0-1.2,0.3-1.6,0.8c-0.4,0.5-0.6,1.2-0.6,2.1v4.1H34.2z M48.5,254.5v-11.5
			h1.2l0.1,1.3c0.3-0.4,0.6-0.7,1.1-1c0.5-0.3,1.1-0.5,1.8-0.5c0.8,0,1.5,0.2,2.1,0.5c0.6,0.4,1,0.9,1.4,1.5
			c0.3,0.6,0.5,1.3,0.5,2.1c0,0.8-0.2,1.5-0.5,2.1c-0.3,0.6-0.8,1.1-1.4,1.5c-0.6,0.4-1.3,0.5-2.1,0.5c-0.7,0-1.2-0.1-1.7-0.4
			c-0.5-0.3-0.9-0.6-1.2-1.1v4.8H48.5z M52.6,250c0.5,0,1-0.1,1.4-0.4c0.4-0.3,0.7-0.6,1-1.1c0.2-0.4,0.4-1,0.4-1.6
			c0-0.6-0.1-1.1-0.4-1.6c-0.2-0.4-0.6-0.8-1-1c-0.4-0.3-0.9-0.4-1.4-0.4c-0.5,0-1,0.1-1.4,0.4c-0.4,0.2-0.7,0.6-1,1
			c-0.2,0.4-0.4,1-0.4,1.6c0,0.6,0.1,1.1,0.4,1.6c0.2,0.4,0.6,0.8,1,1.1C51.6,249.9,52.1,250,52.6,250z M58.5,251v-11.5h1.3V251
			H58.5z M65.7,251.2c-0.8,0-1.4-0.2-2-0.5c-0.6-0.4-1.1-0.8-1.4-1.5c-0.3-0.6-0.5-1.3-0.5-2.2c0-0.8,0.2-1.6,0.5-2.2
			c0.3-0.6,0.8-1.1,1.4-1.5c0.6-0.4,1.3-0.5,2.1-0.5c0.8,0,1.4,0.2,2,0.5c0.6,0.3,1,0.8,1.3,1.4c0.3,0.6,0.4,1.2,0.4,1.8
			c0,0.1,0,0.2,0,0.4c0,0.1,0,0.3,0,0.4h-6.3c0,0.6,0.2,1.1,0.4,1.5c0.3,0.4,0.6,0.7,0.9,0.9c0.4,0.2,0.8,0.3,1.2,0.3
			c0.6,0,1-0.1,1.4-0.4c0.4-0.3,0.6-0.6,0.8-1h1.3c-0.2,0.7-0.6,1.3-1.2,1.8C67.4,251,66.6,251.2,65.7,251.2z M65.7,244
			c-0.6,0-1.2,0.2-1.7,0.6c-0.5,0.4-0.8,0.9-0.8,1.7h5c0-0.7-0.3-1.3-0.7-1.7C66.9,244.2,66.3,244,65.7,244z M79.1,251.2
			c-0.8,0-1.4-0.2-2-0.5c-0.6-0.4-1.1-0.8-1.4-1.5c-0.3-0.6-0.5-1.4-0.5-2.2s0.2-1.6,0.5-2.2c0.4-0.6,0.8-1.1,1.4-1.5
			c0.6-0.4,1.3-0.5,2-0.5c0.9,0,1.7,0.2,2.4,0.7c0.7,0.5,1.1,1.1,1.2,2h-1.4c-0.1-0.5-0.4-0.9-0.8-1.1c-0.4-0.3-0.9-0.4-1.5-0.4
			c-0.4,0-0.9,0.1-1.3,0.3c-0.4,0.2-0.7,0.6-1,1c-0.2,0.4-0.4,1-0.4,1.7c0,0.7,0.1,1.2,0.4,1.7c0.2,0.4,0.6,0.8,1,1
			c0.4,0.2,0.8,0.3,1.3,0.3c0.6,0,1-0.1,1.5-0.4c0.4-0.3,0.7-0.7,0.8-1.2h1.4c-0.2,0.8-0.6,1.5-1.2,2
			C80.8,250.9,80,251.2,79.1,251.2z M84.6,251v-11.5h1.3v4.9c0.3-0.5,0.6-0.9,1.1-1.1c0.5-0.3,1-0.4,1.6-0.4c0.9,0,1.7,0.3,2.2,0.9
			c0.6,0.6,0.8,1.4,0.8,2.6v4.6h-1.3v-4.5c0-1.7-0.7-2.5-2-2.5c-0.7,0-1.3,0.3-1.7,0.8c-0.5,0.5-0.7,1.2-0.7,2.1v4.1H84.6z
			 M96.4,251.2c-0.7,0-1.2-0.1-1.6-0.3c-0.4-0.2-0.8-0.5-1-0.9c-0.2-0.4-0.3-0.8-0.3-1.2c0-0.8,0.3-1.4,0.9-1.9
			c0.6-0.4,1.5-0.7,2.5-0.7H99v-0.1c0-0.7-0.2-1.2-0.5-1.6c-0.4-0.4-0.8-0.5-1.5-0.5c-0.5,0-1,0.1-1.4,0.4c-0.4,0.3-0.6,0.6-0.7,1.1
			h-1.4c0.1-0.6,0.2-1.1,0.6-1.5c0.3-0.4,0.8-0.7,1.3-0.9c0.5-0.2,1-0.3,1.6-0.3c1.1,0,1.9,0.3,2.5,0.9c0.6,0.6,0.8,1.4,0.8,2.4v4.9
			h-1.2l-0.1-1.4c-0.2,0.4-0.6,0.8-1,1.2C97.7,251,97.1,251.2,96.4,251.2z M96.6,250.1c0.5,0,1-0.1,1.3-0.4c0.4-0.3,0.7-0.6,0.8-1
			s0.3-0.9,0.3-1.3v0h-2c-0.8,0-1.3,0.1-1.7,0.4c-0.3,0.3-0.5,0.6-0.5,1c0,0.4,0.2,0.8,0.4,1C95.6,249.9,96,250.1,96.6,250.1z
			 M102.4,251v-7.9h1.2l0.1,1.4c0.3-0.5,0.6-0.9,1.1-1.2c0.5-0.3,1-0.4,1.6-0.4c0.9,0,1.7,0.3,2.2,0.9c0.6,0.6,0.8,1.4,0.8,2.6v4.6
			h-1.3v-4.5c0-1.7-0.7-2.5-2-2.5c-0.7,0-1.3,0.3-1.7,0.8c-0.4,0.5-0.7,1.2-0.7,2.1v4.1H102.4z M114.7,248.5c-0.4,0-0.9-0.1-1.2-0.2
			l-0.8,0.8c0.1,0.1,0.3,0.2,0.4,0.2c0.2,0.1,0.4,0.1,0.8,0.2c0.3,0,0.8,0.1,1.4,0.1c1.1,0.1,1.8,0.3,2.3,0.7c0.5,0.4,0.7,1,0.7,1.6
			c0,0.5-0.1,0.9-0.4,1.3c-0.2,0.4-0.6,0.8-1.2,1c-0.5,0.3-1.2,0.4-2,0.4c-0.7,0-1.3-0.1-1.9-0.3c-0.6-0.2-1-0.5-1.3-0.8
			c-0.3-0.4-0.5-0.8-0.5-1.4c0-0.3,0.1-0.6,0.2-1c0.2-0.3,0.5-0.7,0.9-1c-0.2-0.1-0.4-0.2-0.6-0.3c-0.2-0.1-0.3-0.2-0.4-0.4v-0.4
			l1.4-1.3c-0.6-0.5-0.9-1.2-0.9-2.1c0-0.5,0.1-1,0.4-1.4c0.2-0.4,0.6-0.8,1.1-1c0.5-0.3,1-0.4,1.7-0.4c0.5,0,0.9,0.1,1.2,0.2h2.9v1
			l-1.5,0.1c0.3,0.4,0.5,1,0.5,1.6c0,0.5-0.1,1-0.4,1.4c-0.2,0.4-0.6,0.8-1.1,1C115.9,248.4,115.3,248.5,114.7,248.5z M114.7,247.4
			c0.6,0,1-0.1,1.3-0.4c0.3-0.3,0.5-0.7,0.5-1.3c0-0.5-0.2-1-0.5-1.2c-0.3-0.3-0.8-0.4-1.3-0.4c-0.6,0-1,0.1-1.4,0.4
			c-0.3,0.3-0.5,0.7-0.5,1.2c0,0.6,0.2,1,0.5,1.3C113.6,247.3,114.1,247.4,114.7,247.4z M112.3,252c0,0.5,0.2,0.9,0.7,1.2
			c0.4,0.3,1,0.4,1.7,0.4c0.7,0,1.2-0.1,1.6-0.4c0.4-0.3,0.6-0.7,0.6-1.2c0-0.3-0.1-0.6-0.4-0.9c-0.3-0.2-0.8-0.4-1.5-0.4
			c-0.6,0-1.1-0.1-1.5-0.2c-0.4,0.2-0.7,0.5-0.9,0.8C112.4,251.6,112.3,251.8,112.3,252z M123.6,251.2c-0.8,0-1.4-0.2-2-0.5
			c-0.6-0.4-1.1-0.8-1.4-1.5c-0.3-0.6-0.5-1.3-0.5-2.2c0-0.8,0.2-1.6,0.5-2.2c0.3-0.6,0.8-1.1,1.4-1.5c0.6-0.4,1.3-0.5,2.1-0.5
			c0.8,0,1.4,0.2,2,0.5c0.6,0.3,1,0.8,1.3,1.4c0.3,0.6,0.4,1.2,0.4,1.8c0,0.1,0,0.2,0,0.4c0,0.1,0,0.3,0,0.4H121
			c0,0.6,0.2,1.1,0.4,1.5c0.3,0.4,0.6,0.7,0.9,0.9c0.4,0.2,0.8,0.3,1.2,0.3c0.6,0,1-0.1,1.4-0.4c0.4-0.3,0.6-0.6,0.8-1h1.3
			c-0.2,0.7-0.6,1.3-1.2,1.8C125.3,251,124.5,251.2,123.6,251.2z M123.6,244c-0.6,0-1.2,0.2-1.7,0.6c-0.5,0.4-0.8,0.9-0.8,1.7h5
			c0-0.7-0.3-1.3-0.7-1.7C124.8,244.2,124.3,244,123.6,244z M132.2,251.2c-0.9,0-1.7-0.2-2.4-0.7c-0.6-0.5-1-1.1-1.1-2h1.4
			c0.1,0.4,0.3,0.8,0.7,1.1c0.4,0.3,0.8,0.4,1.5,0.4c0.6,0,1-0.1,1.2-0.4c0.3-0.2,0.4-0.5,0.4-0.9c0-0.5-0.2-0.8-0.5-1
			c-0.3-0.2-0.8-0.3-1.5-0.4c-0.4-0.1-0.9-0.2-1.3-0.4c-0.4-0.2-0.8-0.4-1.1-0.7c-0.3-0.3-0.4-0.7-0.4-1.2c0-0.7,0.3-1.3,0.8-1.7
			c0.5-0.4,1.2-0.7,2.1-0.7c0.8,0,1.5,0.2,2.1,0.6c0.5,0.4,0.9,1,0.9,1.8h-1.3c-0.1-0.4-0.2-0.7-0.5-0.9c-0.3-0.2-0.7-0.4-1.2-0.4
			c-0.5,0-0.9,0.1-1.1,0.3c-0.3,0.2-0.4,0.5-0.4,0.8c0,0.3,0.2,0.6,0.5,0.8c0.3,0.2,0.8,0.3,1.4,0.5c0.5,0.1,1,0.2,1.4,0.4
			c0.4,0.1,0.8,0.4,1.1,0.7c0.3,0.3,0.4,0.7,0.4,1.3c0,0.7-0.3,1.3-0.8,1.8C133.9,251,133.1,251.2,132.2,251.2z M136.1,252.9
			l0.9-3.5h1.4l-1.4,3.5H136.1z M147.9,251.2c-0.8,0-1.4-0.2-2-0.5c-0.6-0.4-1.1-0.8-1.4-1.5c-0.3-0.6-0.5-1.4-0.5-2.2
			s0.2-1.6,0.5-2.2c0.4-0.6,0.8-1.1,1.4-1.5c0.6-0.4,1.3-0.5,2-0.5c0.9,0,1.7,0.2,2.4,0.7c0.7,0.5,1.1,1.1,1.2,2h-1.4
			c-0.1-0.5-0.4-0.9-0.8-1.1c-0.4-0.3-0.9-0.4-1.5-0.4c-0.4,0-0.9,0.1-1.3,0.3c-0.4,0.2-0.7,0.6-1,1c-0.2,0.4-0.4,1-0.4,1.7
			c0,0.7,0.1,1.2,0.4,1.7c0.2,0.4,0.6,0.8,1,1c0.4,0.2,0.8,0.3,1.3,0.3c0.6,0,1-0.1,1.5-0.4c0.4-0.3,0.7-0.7,0.8-1.2h1.4
			c-0.2,0.8-0.6,1.5-1.2,2S148.8,251.2,147.9,251.2z M157,251.2c-0.7,0-1.4-0.2-2-0.5s-1.1-0.8-1.4-1.4c-0.3-0.6-0.5-1.4-0.5-2.2
			c0-0.8,0.2-1.6,0.5-2.2c0.4-0.6,0.8-1.1,1.4-1.5c0.6-0.3,1.3-0.5,2-0.5s1.4,0.2,2,0.5s1.1,0.8,1.4,1.5c0.4,0.6,0.5,1.3,0.5,2.2
			c0,0.8-0.2,1.6-0.5,2.2c-0.4,0.6-0.8,1.1-1.4,1.4C158.4,251,157.7,251.2,157,251.2z M157,250c0.5,0,0.9-0.1,1.3-0.3s0.7-0.6,1-1
			c0.2-0.4,0.4-1,0.4-1.7c0-0.7-0.1-1.2-0.4-1.7c-0.2-0.4-0.5-0.8-0.9-1c-0.4-0.2-0.8-0.3-1.3-0.3c-0.5,0-0.9,0.1-1.3,0.3
			c-0.4,0.2-0.7,0.6-1,1c-0.2,0.4-0.4,1-0.4,1.7c0,0.7,0.1,1.2,0.4,1.7c0.2,0.4,0.6,0.8,0.9,1C156.1,249.9,156.5,250,157,250z
			 M162.8,251v-7.9h1.2l0.1,1.4c0.3-0.5,0.6-0.9,1.1-1.2c0.5-0.3,1-0.4,1.6-0.4c0.9,0,1.7,0.3,2.2,0.9c0.6,0.6,0.8,1.4,0.8,2.6v4.6
			h-1.3v-4.5c0-1.7-0.7-2.5-2-2.5c-0.7,0-1.3,0.3-1.7,0.8c-0.4,0.5-0.7,1.2-0.7,2.1v4.1H162.8z M175,251.2c-0.9,0-1.7-0.2-2.4-0.7
			c-0.6-0.5-1-1.1-1.1-2h1.4c0.1,0.4,0.3,0.8,0.7,1.1c0.4,0.3,0.8,0.4,1.5,0.4c0.6,0,1-0.1,1.2-0.4c0.3-0.2,0.4-0.5,0.4-0.9
			c0-0.5-0.2-0.8-0.5-1c-0.3-0.2-0.8-0.3-1.5-0.4c-0.4-0.1-0.9-0.2-1.3-0.4c-0.4-0.2-0.8-0.4-1.1-0.7c-0.3-0.3-0.4-0.7-0.4-1.2
			c0-0.7,0.3-1.3,0.8-1.7c0.5-0.4,1.2-0.7,2.1-0.7c0.8,0,1.5,0.2,2.1,0.6c0.5,0.4,0.9,1,0.9,1.8h-1.3c-0.1-0.4-0.2-0.7-0.5-0.9
			c-0.3-0.2-0.7-0.4-1.2-0.4c-0.5,0-0.9,0.1-1.1,0.3c-0.3,0.2-0.4,0.5-0.4,0.8c0,0.3,0.2,0.6,0.5,0.8c0.3,0.2,0.8,0.3,1.4,0.5
			c0.5,0.1,1,0.2,1.4,0.4c0.4,0.1,0.8,0.4,1.1,0.7c0.3,0.3,0.4,0.7,0.4,1.3c0,0.7-0.3,1.3-0.8,1.8C176.7,251,176,251.2,175,251.2z
			 M180.8,241.3c-0.3,0-0.5-0.1-0.7-0.3c-0.2-0.2-0.3-0.4-0.3-0.7c0-0.3,0.1-0.5,0.3-0.6c0.2-0.2,0.4-0.3,0.7-0.3
			c0.3,0,0.5,0.1,0.7,0.3c0.2,0.2,0.3,0.4,0.3,0.6c0,0.3-0.1,0.5-0.3,0.7C181.3,241.2,181.1,241.3,180.8,241.3z M180.1,251v-7.9h1.3
			v7.9H180.1z M186.8,251.2c-0.9,0-1.7-0.2-2.4-0.7c-0.6-0.5-1-1.1-1.1-2h1.4c0.1,0.4,0.3,0.8,0.7,1.1c0.4,0.3,0.8,0.4,1.5,0.4
			c0.6,0,1-0.1,1.2-0.4c0.3-0.2,0.4-0.5,0.4-0.9c0-0.5-0.2-0.8-0.5-1c-0.3-0.2-0.8-0.3-1.5-0.4c-0.4-0.1-0.9-0.2-1.3-0.4
			c-0.4-0.2-0.8-0.4-1.1-0.7c-0.3-0.3-0.4-0.7-0.4-1.2c0-0.7,0.3-1.3,0.8-1.7c0.5-0.4,1.2-0.7,2.1-0.7c0.8,0,1.5,0.2,2.1,0.6
			c0.5,0.4,0.9,1,0.9,1.8h-1.3c-0.1-0.4-0.2-0.7-0.5-0.9c-0.3-0.2-0.7-0.4-1.2-0.4c-0.5,0-0.9,0.1-1.1,0.3c-0.3,0.2-0.4,0.5-0.4,0.8
			c0,0.3,0.2,0.6,0.5,0.8c0.3,0.2,0.8,0.3,1.4,0.5c0.5,0.1,1,0.2,1.4,0.4c0.4,0.1,0.8,0.4,1.1,0.7c0.3,0.3,0.4,0.7,0.4,1.3
			c0,0.7-0.3,1.3-0.8,1.8C188.5,251,187.8,251.2,186.8,251.2z M194.6,251c-0.7,0-1.3-0.2-1.7-0.5c-0.4-0.4-0.6-1-0.6-1.9v-4.4h-1.4
			v-1.1h1.4l0.2-1.9h1.2v1.9h2.3v1.1h-2.3v4.4c0,0.5,0.1,0.8,0.3,1c0.2,0.2,0.6,0.3,1.1,0.3h0.8v1.2H194.6z M201,251.2
			c-0.8,0-1.4-0.2-2-0.5c-0.6-0.4-1.1-0.8-1.4-1.5c-0.3-0.6-0.5-1.3-0.5-2.2c0-0.8,0.2-1.6,0.5-2.2c0.3-0.6,0.8-1.1,1.4-1.5
			c0.6-0.4,1.3-0.5,2.1-0.5c0.8,0,1.4,0.2,2,0.5c0.6,0.3,1,0.8,1.3,1.4c0.3,0.6,0.4,1.2,0.4,1.8c0,0.1,0,0.2,0,0.4
			c0,0.1,0,0.3,0,0.4h-6.3c0,0.6,0.2,1.1,0.4,1.5c0.3,0.4,0.6,0.7,0.9,0.9c0.4,0.2,0.8,0.3,1.2,0.3c0.6,0,1-0.1,1.4-0.4
			c0.4-0.3,0.6-0.6,0.8-1h1.3c-0.2,0.7-0.6,1.3-1.2,1.8C202.7,251,201.9,251.2,201,251.2z M201,244c-0.6,0-1.2,0.2-1.7,0.6
			c-0.5,0.4-0.8,0.9-0.8,1.7h5c0-0.7-0.3-1.3-0.7-1.7C202.2,244.2,201.7,244,201,244z M206.5,251v-7.9h1.2l0.1,1.4
			c0.3-0.5,0.6-0.9,1.1-1.2c0.5-0.3,1-0.4,1.6-0.4c0.9,0,1.7,0.3,2.2,0.9c0.6,0.6,0.8,1.4,0.8,2.6v4.6h-1.3v-4.5
			c0-1.7-0.7-2.5-2-2.5c-0.7,0-1.3,0.3-1.7,0.8c-0.4,0.5-0.7,1.2-0.7,2.1v4.1H206.5z M218.8,251c-0.7,0-1.3-0.2-1.7-0.5
			c-0.4-0.4-0.6-1-0.6-1.9v-4.4h-1.4v-1.1h1.4l0.2-1.9h1.2v1.9h2.3v1.1h-2.3v4.4c0,0.5,0.1,0.8,0.3,1c0.2,0.2,0.6,0.3,1.1,0.3h0.8
			v1.2H218.8z M221.9,251v-11.5h1.3V251H221.9z M226.3,254.5l2-4.3h-0.5l-3.2-7.2h1.5l2.6,6.2l2.8-6.2h1.4l-5.2,11.5H226.3z
			 M23.7,275.2c-0.7,0-1.2-0.1-1.6-0.3c-0.4-0.2-0.8-0.5-1-0.9c-0.2-0.4-0.3-0.8-0.3-1.2c0-0.8,0.3-1.4,0.9-1.9
			c0.6-0.4,1.5-0.7,2.5-0.7h2.1v-0.1c0-0.7-0.2-1.2-0.5-1.6c-0.4-0.4-0.8-0.5-1.5-0.5c-0.5,0-1,0.1-1.4,0.4
			c-0.4,0.3-0.6,0.6-0.7,1.1H21c0.1-0.6,0.2-1.1,0.6-1.5c0.3-0.4,0.8-0.7,1.3-0.9c0.5-0.2,1-0.3,1.6-0.3c1.1,0,1.9,0.3,2.5,0.9
			c0.6,0.6,0.8,1.4,0.8,2.4v4.9h-1.2l-0.1-1.4c-0.2,0.4-0.6,0.8-1,1.2C25,275,24.5,275.2,23.7,275.2z M24,274.1
			c0.5,0,0.9-0.1,1.3-0.4c0.4-0.3,0.7-0.6,0.8-1s0.3-0.9,0.3-1.3v0h-2c-0.8,0-1.3,0.1-1.7,0.4c-0.3,0.3-0.5,0.6-0.5,1
			c0,0.4,0.1,0.8,0.4,1C23,273.9,23.4,274.1,24,274.1z M29.8,278.5v-11.5H31l0.1,1.3c0.3-0.4,0.6-0.7,1.1-1c0.5-0.3,1.1-0.5,1.8-0.5
			c0.8,0,1.5,0.2,2.1,0.5c0.6,0.4,1,0.9,1.4,1.5c0.3,0.6,0.5,1.3,0.5,2.1c0,0.8-0.2,1.5-0.5,2.1c-0.3,0.6-0.8,1.1-1.4,1.5
			c-0.6,0.4-1.3,0.5-2.1,0.5c-0.7,0-1.2-0.1-1.7-0.4c-0.5-0.3-0.9-0.6-1.2-1.1v4.8H29.8z M33.9,274c0.5,0,1-0.1,1.4-0.4
			c0.4-0.3,0.7-0.6,1-1.1c0.2-0.4,0.4-1,0.4-1.6c0-0.6-0.1-1.1-0.4-1.6c-0.2-0.4-0.6-0.8-1-1c-0.4-0.3-0.9-0.4-1.4-0.4
			c-0.5,0-1,0.1-1.4,0.4c-0.4,0.2-0.7,0.6-1,1c-0.2,0.4-0.4,1-0.4,1.6c0,0.6,0.1,1.1,0.4,1.6c0.2,0.4,0.6,0.8,1,1.1
			C32.9,273.9,33.3,274,33.9,274z M39.8,278.5v-11.5H41l0.1,1.3c0.3-0.4,0.6-0.7,1.1-1c0.5-0.3,1.1-0.5,1.8-0.5
			c0.8,0,1.5,0.2,2.1,0.5c0.6,0.4,1,0.9,1.4,1.5c0.3,0.6,0.5,1.3,0.5,2.1c0,0.8-0.2,1.5-0.5,2.1c-0.3,0.6-0.8,1.1-1.4,1.5
			c-0.6,0.4-1.3,0.5-2.1,0.5c-0.7,0-1.2-0.1-1.7-0.4c-0.5-0.3-0.9-0.6-1.2-1.1v4.8H39.8z M43.9,274c0.5,0,1-0.1,1.4-0.4
			c0.4-0.3,0.7-0.6,1-1.1c0.2-0.4,0.4-1,0.4-1.6c0-0.6-0.1-1.1-0.4-1.6c-0.2-0.4-0.6-0.8-1-1c-0.4-0.3-0.9-0.4-1.4-0.4
			c-0.5,0-1,0.1-1.4,0.4c-0.4,0.2-0.7,0.6-1,1c-0.2,0.4-0.4,1-0.4,1.6c0,0.6,0.1,1.1,0.4,1.6c0.2,0.4,0.6,0.8,1,1.1
			C42.9,273.9,43.4,274,43.9,274z M49.9,275v-11.5h1.3V275H49.9z M54.2,265.3c-0.3,0-0.5-0.1-0.7-0.3c-0.2-0.2-0.3-0.4-0.3-0.7
			c0-0.3,0.1-0.5,0.3-0.6c0.2-0.2,0.4-0.3,0.7-0.3c0.3,0,0.5,0.1,0.7,0.3c0.2,0.2,0.3,0.4,0.3,0.6c0,0.3-0.1,0.5-0.3,0.7
			C54.7,265.2,54.5,265.3,54.2,265.3z M53.5,275v-7.9h1.3v7.9H53.5z M60.8,275.2c-0.8,0-1.4-0.2-2-0.5c-0.6-0.4-1.1-0.8-1.4-1.5
			c-0.3-0.6-0.5-1.3-0.5-2.2c0-0.8,0.2-1.6,0.5-2.2c0.3-0.6,0.8-1.1,1.4-1.5c0.6-0.4,1.3-0.5,2.1-0.5c0.8,0,1.4,0.2,2,0.5
			c0.6,0.3,1,0.8,1.3,1.4s0.4,1.2,0.4,1.8c0,0.1,0,0.2,0,0.4c0,0.1,0,0.3,0,0.4h-6.3c0,0.6,0.2,1.1,0.4,1.5c0.3,0.4,0.6,0.7,0.9,0.9
			c0.4,0.2,0.8,0.3,1.2,0.3c0.6,0,1-0.1,1.4-0.4c0.4-0.3,0.6-0.6,0.8-1h1.3c-0.2,0.7-0.6,1.3-1.2,1.8
			C62.5,275,61.7,275.2,60.8,275.2z M60.8,268c-0.6,0-1.2,0.2-1.7,0.6c-0.5,0.4-0.8,0.9-0.8,1.7h5c0-0.7-0.3-1.3-0.7-1.7
			C62,268.2,61.5,268,60.8,268z M69.9,275.2c-0.8,0-1.5-0.2-2.1-0.5c-0.6-0.4-1-0.9-1.4-1.5c-0.3-0.6-0.5-1.3-0.5-2.1
			c0-0.8,0.2-1.5,0.5-2.1c0.3-0.6,0.8-1.1,1.4-1.5c0.6-0.4,1.3-0.5,2.1-0.5c0.7,0,1.2,0.1,1.7,0.4c0.5,0.3,0.9,0.6,1.2,1.1v-4.9h1.3
			V275H73l-0.1-1.3c-0.3,0.4-0.6,0.7-1.1,1C71.3,275,70.7,275.2,69.9,275.2z M70.1,274c0.5,0,1-0.1,1.4-0.4c0.4-0.3,0.7-0.6,1-1.1
			c0.2-0.4,0.4-1,0.4-1.6c0-0.6-0.1-1.1-0.4-1.6c-0.2-0.4-0.5-0.8-1-1c-0.4-0.3-0.9-0.4-1.4-0.4c-0.5,0-1,0.1-1.4,0.4
			c-0.4,0.2-0.7,0.6-1,1c-0.2,0.4-0.3,1-0.3,1.6c0,0.6,0.1,1.1,0.3,1.6c0.2,0.4,0.6,0.8,1,1.1C69.1,273.9,69.6,274,70.1,274z
			 M75.3,276.9l0.9-3.5h1.4l-1.4,3.5H75.3z M87.1,275.2c-0.8,0-1.4-0.2-2-0.5c-0.6-0.4-1.1-0.8-1.4-1.5c-0.3-0.6-0.5-1.4-0.5-2.2
			s0.2-1.6,0.5-2.2c0.4-0.6,0.8-1.1,1.4-1.5c0.6-0.4,1.3-0.5,2-0.5c0.9,0,1.7,0.2,2.4,0.7c0.7,0.5,1.1,1.1,1.2,2h-1.4
			c-0.1-0.5-0.4-0.9-0.8-1.1c-0.4-0.3-0.9-0.4-1.5-0.4c-0.4,0-0.9,0.1-1.3,0.3c-0.4,0.2-0.7,0.6-1,1c-0.2,0.4-0.4,1-0.4,1.7
			c0,0.7,0.1,1.2,0.4,1.7c0.2,0.4,0.6,0.8,1,1c0.4,0.2,0.8,0.3,1.3,0.3c0.6,0,1-0.1,1.5-0.4c0.4-0.3,0.7-0.7,0.8-1.2h1.4
			c-0.2,0.8-0.6,1.5-1.2,2C88.8,274.9,88,275.2,87.1,275.2z M95.2,275.2c-0.7,0-1.2-0.1-1.6-0.3c-0.4-0.2-0.8-0.5-1-0.9
			c-0.2-0.4-0.3-0.8-0.3-1.2c0-0.8,0.3-1.4,0.9-1.9c0.6-0.4,1.5-0.7,2.5-0.7h2.1v-0.1c0-0.7-0.2-1.2-0.5-1.6
			c-0.4-0.4-0.8-0.5-1.5-0.5c-0.5,0-1,0.1-1.4,0.4c-0.4,0.3-0.6,0.6-0.7,1.1h-1.4c0.1-0.6,0.2-1.1,0.6-1.5c0.3-0.4,0.8-0.7,1.3-0.9
			c0.5-0.2,1-0.3,1.6-0.3c1.1,0,1.9,0.3,2.5,0.9c0.6,0.6,0.8,1.4,0.8,2.4v4.9H98l-0.1-1.4c-0.2,0.4-0.6,0.8-1,1.2
			C96.5,275,96,275.2,95.2,275.2z M95.4,274.1c0.5,0,1-0.1,1.3-0.4c0.4-0.3,0.7-0.6,0.8-1s0.3-0.9,0.3-1.3v0h-2
			c-0.8,0-1.3,0.1-1.7,0.4c-0.3,0.3-0.5,0.6-0.5,1c0,0.4,0.2,0.8,0.4,1C94.4,273.9,94.9,274.1,95.4,274.1z M101.2,275v-7.9h1.2
			l0.1,1.4c0.3-0.5,0.6-0.9,1.1-1.2c0.5-0.3,1-0.4,1.6-0.4c0.9,0,1.7,0.3,2.2,0.9c0.6,0.6,0.8,1.4,0.8,2.6v4.6H107v-4.5
			c0-1.7-0.7-2.5-2-2.5c-0.7,0-1.3,0.3-1.7,0.8c-0.4,0.5-0.7,1.2-0.7,2.1v4.1H101.2z M114.6,275v-11.5h1.3v4.9
			c0.3-0.5,0.6-0.9,1.1-1.1c0.5-0.3,1-0.4,1.6-0.4c0.9,0,1.7,0.3,2.2,0.9c0.6,0.6,0.8,1.4,0.8,2.6v4.6h-1.3v-4.5
			c0-1.7-0.7-2.5-2-2.5c-0.7,0-1.3,0.3-1.7,0.8c-0.5,0.5-0.7,1.2-0.7,2.1v4.1H114.6z M127.4,275.2c-0.8,0-1.4-0.2-2-0.5
			c-0.6-0.4-1.1-0.8-1.4-1.5c-0.3-0.6-0.5-1.3-0.5-2.2c0-0.8,0.2-1.6,0.5-2.2c0.3-0.6,0.8-1.1,1.4-1.5c0.6-0.4,1.3-0.5,2.1-0.5
			c0.8,0,1.4,0.2,2,0.5c0.6,0.3,1,0.8,1.3,1.4c0.3,0.6,0.4,1.2,0.4,1.8c0,0.1,0,0.2,0,0.4c0,0.1,0,0.3,0,0.4h-6.3
			c0,0.6,0.2,1.1,0.4,1.5c0.3,0.4,0.6,0.7,0.9,0.9c0.4,0.2,0.8,0.3,1.2,0.3c0.6,0,1-0.1,1.4-0.4c0.4-0.3,0.6-0.6,0.8-1h1.3
			c-0.2,0.7-0.6,1.3-1.2,1.8C129.1,275,128.3,275.2,127.4,275.2z M127.4,268c-0.6,0-1.2,0.2-1.7,0.6c-0.5,0.4-0.8,0.9-0.8,1.7h5
			c0-0.7-0.3-1.3-0.7-1.7C128.6,268.2,128,268,127.4,268z M132.9,275v-11.5h1.3V275H132.9z M136.4,278.5v-11.5h1.2l0.1,1.3
			c0.3-0.4,0.6-0.7,1.1-1c0.5-0.3,1.1-0.5,1.8-0.5c0.8,0,1.5,0.2,2.1,0.5c0.6,0.4,1,0.9,1.4,1.5c0.3,0.6,0.5,1.3,0.5,2.1
			c0,0.8-0.2,1.5-0.5,2.1c-0.3,0.6-0.8,1.1-1.4,1.5c-0.6,0.4-1.3,0.5-2.1,0.5c-0.7,0-1.2-0.1-1.7-0.4c-0.5-0.3-0.9-0.6-1.2-1.1v4.8
			H136.4z M140.5,274c0.5,0,1-0.1,1.4-0.4c0.4-0.3,0.7-0.6,1-1.1c0.2-0.4,0.4-1,0.4-1.6c0-0.6-0.1-1.1-0.4-1.6c-0.2-0.4-0.6-0.8-1-1
			c-0.4-0.3-0.9-0.4-1.4-0.4c-0.5,0-1,0.1-1.4,0.4c-0.4,0.2-0.7,0.6-1,1c-0.2,0.4-0.4,1-0.4,1.6c0,0.6,0.1,1.1,0.4,1.6
			c0.2,0.4,0.6,0.8,1,1.1C139.5,273.9,140,274,140.5,274z M154.4,275.2c-0.8,0-1.4-0.2-2-0.5c-0.6-0.4-1.1-0.8-1.4-1.5
			c-0.3-0.6-0.5-1.4-0.5-2.2s0.2-1.6,0.5-2.2c0.4-0.6,0.8-1.1,1.4-1.5c0.6-0.4,1.3-0.5,2-0.5c0.9,0,1.7,0.2,2.4,0.7
			c0.7,0.5,1.1,1.1,1.2,2h-1.4c-0.1-0.5-0.4-0.9-0.8-1.1c-0.4-0.3-0.9-0.4-1.5-0.4c-0.4,0-0.9,0.1-1.3,0.3c-0.4,0.2-0.7,0.6-1,1
			c-0.2,0.4-0.4,1-0.4,1.7c0,0.7,0.1,1.2,0.4,1.7c0.2,0.4,0.6,0.8,1,1c0.4,0.2,0.8,0.3,1.3,0.3c0.6,0,1-0.1,1.5-0.4
			c0.4-0.3,0.7-0.7,0.8-1.2h1.4c-0.2,0.8-0.6,1.5-1.2,2S155.3,275.2,154.4,275.2z M162.7,275.2c-0.9,0-1.7-0.3-2.2-0.8
			c-0.6-0.6-0.8-1.5-0.8-2.6v-4.6h1.3v4.5c0,1.7,0.7,2.5,2,2.5c0.7,0,1.3-0.2,1.7-0.7c0.5-0.5,0.7-1.2,0.7-2.1v-4.1h1.3v7.9h-1.2
			l-0.1-1.4c-0.2,0.5-0.6,0.9-1.1,1.2C163.9,275,163.4,275.2,162.7,275.2z M172.6,275.2c-0.8,0-1.4-0.2-2-0.5
			c-0.6-0.4-1.1-0.8-1.4-1.5c-0.3-0.6-0.5-1.3-0.5-2.2c0-0.8,0.2-1.6,0.5-2.2c0.3-0.6,0.8-1.1,1.4-1.5c0.6-0.4,1.3-0.5,2.1-0.5
			c0.8,0,1.4,0.2,2,0.5c0.6,0.3,1,0.8,1.3,1.4c0.3,0.6,0.4,1.2,0.4,1.8c0,0.1,0,0.2,0,0.4c0,0.1,0,0.3,0,0.4H170
			c0,0.6,0.2,1.1,0.4,1.5c0.3,0.4,0.6,0.7,0.9,0.9c0.4,0.2,0.8,0.3,1.2,0.3c0.6,0,1-0.1,1.4-0.4c0.4-0.3,0.6-0.6,0.8-1h1.3
			c-0.2,0.7-0.6,1.3-1.2,1.8C174.3,275,173.5,275.2,172.6,275.2z M172.6,268c-0.6,0-1.2,0.2-1.7,0.6c-0.5,0.4-0.8,0.9-0.8,1.7h5
			c0-0.7-0.3-1.3-0.7-1.7C173.8,268.2,173.2,268,172.6,268z M183.2,278.5l2-4.3h-0.5l-3.2-7.2h1.5l2.6,6.2l2.8-6.2h1.4l-5.2,11.5
			H183.2z M194.1,275.2c-0.7,0-1.4-0.2-2-0.5c-0.6-0.3-1.1-0.8-1.4-1.4c-0.3-0.6-0.5-1.4-0.5-2.2c0-0.8,0.2-1.6,0.5-2.2
			c0.4-0.6,0.8-1.1,1.4-1.5c0.6-0.3,1.3-0.5,2-0.5c0.7,0,1.4,0.2,2,0.5c0.6,0.3,1.1,0.8,1.4,1.5c0.4,0.6,0.5,1.3,0.5,2.2
			c0,0.8-0.2,1.6-0.5,2.2c-0.4,0.6-0.8,1.1-1.4,1.4C195.5,275,194.9,275.2,194.1,275.2z M194.1,274c0.5,0,0.9-0.1,1.3-0.3
			c0.4-0.2,0.7-0.6,1-1c0.2-0.4,0.4-1,0.4-1.7c0-0.7-0.1-1.2-0.4-1.7c-0.2-0.4-0.6-0.8-0.9-1c-0.4-0.2-0.8-0.3-1.3-0.3
			c-0.5,0-0.9,0.1-1.3,0.3c-0.4,0.2-0.7,0.6-1,1c-0.2,0.4-0.4,1-0.4,1.7c0,0.7,0.1,1.2,0.4,1.7c0.2,0.4,0.6,0.8,0.9,1
			C193.2,273.9,193.7,274,194.1,274z M202.9,275.2c-0.9,0-1.7-0.3-2.2-0.8c-0.6-0.6-0.8-1.5-0.8-2.6v-4.6h1.3v4.5
			c0,1.7,0.7,2.5,2,2.5c0.7,0,1.3-0.2,1.7-0.7c0.5-0.5,0.7-1.2,0.7-2.1v-4.1h1.3v7.9h-1.2l-0.1-1.4c-0.2,0.5-0.6,0.9-1.1,1.2
			C204,275,203.5,275.2,202.9,275.2z M209.1,275v-7.9h1.2l0.1,1.5c0.2-0.5,0.6-0.9,1.1-1.2c0.5-0.3,1.1-0.5,1.9-0.5v1.4h-0.4
			c-0.5,0-0.9,0.1-1.3,0.3c-0.4,0.2-0.7,0.4-0.9,0.8c-0.2,0.4-0.4,0.9-0.4,1.6v4H209.1z M223.4,275.2c-0.7,0-1.2-0.1-1.7-0.4
			c-0.5-0.3-0.9-0.6-1.2-1.1l-0.1,1.3h-1.2v-11.5h1.3v4.9c0.3-0.4,0.6-0.7,1.1-1c0.5-0.3,1.1-0.5,1.8-0.5c0.8,0,1.5,0.2,2.1,0.5
			c0.6,0.4,1,0.9,1.4,1.5c0.3,0.6,0.5,1.3,0.5,2.1c0,0.8-0.2,1.5-0.5,2.1c-0.3,0.6-0.8,1.1-1.4,1.5
			C224.9,275,224.2,275.2,223.4,275.2z M223.3,274c0.5,0,1-0.1,1.4-0.4c0.4-0.3,0.7-0.6,1-1.1c0.2-0.4,0.4-1,0.4-1.6
			c0-0.6-0.1-1.1-0.4-1.6c-0.2-0.4-0.6-0.8-1-1c-0.4-0.3-0.9-0.4-1.4-0.4c-0.5,0-1,0.1-1.4,0.4c-0.4,0.2-0.7,0.6-1,1
			c-0.2,0.4-0.4,1-0.4,1.6c0,0.6,0.1,1.1,0.4,1.6c0.2,0.4,0.6,0.8,1,1.1C222.3,273.9,222.7,274,223.3,274z M232.8,275.2
			c-0.7,0-1.4-0.2-2-0.5c-0.6-0.3-1.1-0.8-1.4-1.4c-0.3-0.6-0.5-1.4-0.5-2.2c0-0.8,0.2-1.6,0.5-2.2c0.4-0.6,0.8-1.1,1.4-1.5
			c0.6-0.3,1.3-0.5,2-0.5c0.7,0,1.4,0.2,2,0.5c0.6,0.3,1.1,0.8,1.4,1.5c0.4,0.6,0.5,1.3,0.5,2.2c0,0.8-0.2,1.6-0.5,2.2
			c-0.4,0.6-0.8,1.1-1.4,1.4C234.2,275,233.6,275.2,232.8,275.2z M232.8,274c0.5,0,0.9-0.1,1.3-0.3c0.4-0.2,0.7-0.6,1-1
			c0.2-0.4,0.4-1,0.4-1.7c0-0.7-0.1-1.2-0.4-1.7c-0.2-0.4-0.5-0.8-0.9-1c-0.4-0.2-0.8-0.3-1.3-0.3c-0.5,0-0.9,0.1-1.3,0.3
			c-0.4,0.2-0.7,0.6-1,1c-0.2,0.4-0.4,1-0.4,1.7c0,0.7,0.1,1.2,0.4,1.7c0.2,0.4,0.6,0.8,0.9,1C232,273.9,232.4,274,232.8,274z
			 M242.3,275.2c-0.8,0-1.5-0.2-2.1-0.5c-0.6-0.4-1-0.9-1.4-1.5c-0.3-0.6-0.5-1.3-0.5-2.1c0-0.8,0.2-1.5,0.5-2.1
			c0.3-0.6,0.8-1.1,1.4-1.5c0.6-0.4,1.3-0.5,2.1-0.5c0.7,0,1.2,0.1,1.7,0.4s0.9,0.6,1.2,1.1v-4.9h1.3V275h-1.2l-0.1-1.3
			c-0.3,0.4-0.6,0.7-1.1,1S243,275.2,242.3,275.2z M242.4,274c0.5,0,1-0.1,1.4-0.4c0.4-0.3,0.7-0.6,1-1.1c0.2-0.4,0.4-1,0.4-1.6
			c0-0.6-0.1-1.1-0.4-1.6c-0.2-0.4-0.5-0.8-1-1c-0.4-0.3-0.9-0.4-1.4-0.4c-0.5,0-1,0.1-1.4,0.4c-0.4,0.2-0.7,0.6-1,1
			c-0.2,0.4-0.3,1-0.3,1.6c0,0.6,0.1,1.1,0.3,1.6c0.2,0.4,0.6,0.8,1,1.1C241.4,273.9,241.9,274,242.4,274z M249.6,278.5l2-4.3h-0.5
			l-3.2-7.2h1.5l2.6,6.2l2.8-6.2h1.4l-5.2,11.5H249.6z M21.5,299v-6.8h-1.2v-1.1h1.2v-1.4c0-0.8,0.2-1.3,0.6-1.7s0.9-0.5,1.7-0.5
			h0.8v1.2H24c-0.4,0-0.7,0.1-0.9,0.3c-0.2,0.2-0.3,0.4-0.3,0.8v1.3h2v1.1h-2v6.8H21.5z M29.7,299.2c-0.7,0-1.4-0.2-2-0.5
			c-0.6-0.3-1.1-0.8-1.4-1.4c-0.3-0.6-0.5-1.4-0.5-2.2c0-0.8,0.2-1.6,0.5-2.2c0.4-0.6,0.8-1.1,1.4-1.5c0.6-0.3,1.3-0.5,2-0.5
			c0.7,0,1.4,0.2,2,0.5c0.6,0.3,1.1,0.8,1.4,1.5c0.4,0.6,0.5,1.3,0.5,2.2c0,0.8-0.2,1.6-0.5,2.2c-0.4,0.6-0.8,1.1-1.4,1.4
			C31.2,299,30.5,299.2,29.7,299.2z M29.7,298c0.5,0,0.9-0.1,1.3-0.3c0.4-0.2,0.7-0.6,1-1c0.2-0.4,0.4-1,0.4-1.7
			c0-0.7-0.1-1.2-0.4-1.7c-0.2-0.4-0.5-0.8-0.9-1c-0.4-0.2-0.8-0.3-1.3-0.3c-0.5,0-0.9,0.1-1.3,0.3c-0.4,0.2-0.7,0.6-1,1
			c-0.2,0.4-0.4,1-0.4,1.7c0,0.7,0.1,1.2,0.4,1.7c0.2,0.4,0.6,0.8,0.9,1C28.9,297.9,29.3,298,29.7,298z M35.6,299v-7.9h1.2l0.1,1.5
			c0.2-0.5,0.6-0.9,1.1-1.2c0.5-0.3,1.1-0.5,1.9-0.5v1.4h-0.4c-0.5,0-0.9,0.1-1.3,0.3c-0.4,0.2-0.7,0.4-0.9,0.8
			c-0.2,0.4-0.4,0.9-0.4,1.6v4H35.6z M48.7,299.2c-0.9,0-1.7-0.2-2.4-0.7c-0.6-0.5-1-1.1-1.1-2h1.4c0.1,0.4,0.3,0.8,0.7,1.1
			c0.4,0.3,0.8,0.4,1.5,0.4c0.6,0,1-0.1,1.2-0.4c0.3-0.2,0.4-0.5,0.4-0.9c0-0.5-0.2-0.8-0.5-1c-0.3-0.2-0.8-0.3-1.5-0.4
			c-0.4-0.1-0.9-0.2-1.3-0.4c-0.4-0.2-0.8-0.4-1.1-0.7c-0.3-0.3-0.4-0.7-0.4-1.2c0-0.7,0.3-1.3,0.8-1.7c0.5-0.4,1.2-0.7,2.1-0.7
			c0.8,0,1.5,0.2,2.1,0.6c0.5,0.4,0.9,1,0.9,1.8h-1.3c-0.1-0.4-0.2-0.7-0.5-0.9c-0.3-0.2-0.7-0.4-1.2-0.4c-0.5,0-0.9,0.1-1.1,0.3
			c-0.3,0.2-0.4,0.5-0.4,0.8c0,0.3,0.2,0.6,0.5,0.8c0.3,0.2,0.8,0.3,1.4,0.5c0.5,0.1,1,0.2,1.4,0.4c0.4,0.1,0.8,0.4,1.1,0.7
			c0.3,0.3,0.4,0.7,0.4,1.3c0,0.7-0.3,1.3-0.8,1.8C50.4,299,49.6,299.2,48.7,299.2z M53.6,299v-11.5H55V299H53.6z M60.8,299.2
			c-0.8,0-1.4-0.2-2-0.5c-0.6-0.4-1.1-0.8-1.4-1.5c-0.3-0.6-0.5-1.3-0.5-2.2c0-0.8,0.2-1.6,0.5-2.2c0.3-0.6,0.8-1.1,1.4-1.5
			c0.6-0.4,1.3-0.5,2.1-0.5c0.8,0,1.4,0.2,2,0.5c0.6,0.3,1,0.8,1.3,1.4c0.3,0.6,0.4,1.2,0.4,1.8c0,0.1,0,0.2,0,0.4
			c0,0.1,0,0.3,0,0.4h-6.3c0,0.6,0.2,1.1,0.4,1.5c0.3,0.4,0.6,0.7,0.9,0.9c0.4,0.2,0.8,0.3,1.2,0.3c0.6,0,1-0.1,1.4-0.4
			c0.4-0.3,0.6-0.6,0.8-1h1.3c-0.2,0.7-0.6,1.3-1.2,1.8C62.5,299,61.7,299.2,60.8,299.2z M60.8,292c-0.6,0-1.2,0.2-1.7,0.6
			c-0.5,0.4-0.8,0.9-0.8,1.7h5c0-0.7-0.3-1.3-0.7-1.7C62,292.2,61.4,292,60.8,292z M69.9,299.2c-0.8,0-1.4-0.2-2-0.5
			c-0.6-0.4-1.1-0.8-1.4-1.5c-0.3-0.6-0.5-1.3-0.5-2.2c0-0.8,0.2-1.6,0.5-2.2c0.3-0.6,0.8-1.1,1.4-1.5c0.6-0.4,1.3-0.5,2.1-0.5
			c0.8,0,1.4,0.2,2,0.5c0.6,0.3,1,0.8,1.3,1.4s0.4,1.2,0.4,1.8c0,0.1,0,0.2,0,0.4c0,0.1,0,0.3,0,0.4h-6.3c0,0.6,0.2,1.1,0.4,1.5
			c0.3,0.4,0.6,0.7,0.9,0.9c0.4,0.2,0.8,0.3,1.2,0.3c0.6,0,1-0.1,1.4-0.4c0.4-0.3,0.6-0.6,0.8-1h1.3c-0.2,0.7-0.6,1.3-1.2,1.8
			C71.6,299,70.8,299.2,69.9,299.2z M69.9,292c-0.6,0-1.2,0.2-1.7,0.6c-0.5,0.4-0.8,0.9-0.8,1.7h5c0-0.7-0.3-1.3-0.7-1.7
			C71.1,292.2,70.5,292,69.9,292z M75.4,302.5v-11.5h1.2l0.1,1.3c0.3-0.4,0.6-0.7,1.1-1c0.5-0.3,1.1-0.5,1.8-0.5
			c0.8,0,1.5,0.2,2.1,0.5c0.6,0.4,1,0.9,1.4,1.5c0.3,0.6,0.5,1.3,0.5,2.1c0,0.8-0.2,1.5-0.5,2.1c-0.3,0.6-0.8,1.1-1.4,1.5
			c-0.6,0.4-1.3,0.5-2.1,0.5c-0.7,0-1.2-0.1-1.7-0.4c-0.5-0.3-0.9-0.6-1.2-1.1v4.8H75.4z M79.5,298c0.5,0,1-0.1,1.4-0.4
			c0.4-0.3,0.7-0.6,1-1.1s0.4-1,0.4-1.6c0-0.6-0.1-1.1-0.4-1.6s-0.6-0.8-1-1c-0.4-0.3-0.9-0.4-1.4-0.4c-0.5,0-1,0.1-1.4,0.4
			c-0.4,0.2-0.7,0.6-1,1s-0.4,1-0.4,1.6c0,0.6,0.1,1.1,0.4,1.6s0.6,0.8,1,1.1C78.5,297.9,79,298,79.5,298z M85.9,299.1
			c-0.3,0-0.5-0.1-0.7-0.3c-0.2-0.2-0.3-0.4-0.3-0.7s0.1-0.5,0.3-0.6c0.2-0.2,0.4-0.3,0.7-0.3c0.3,0,0.5,0.1,0.6,0.3
			c0.2,0.2,0.3,0.4,0.3,0.6s-0.1,0.5-0.3,0.7C86.4,299,86.2,299.1,85.9,299.1z M92.9,299v-11.2h1.6l4,7.8l4-7.8h1.6V299h-1.3v-8.8
			l-3.7,7.2h-1l-3.7-7.2v8.8H92.9z M109,299.2c-0.7,0-1.2-0.1-1.6-0.3c-0.4-0.2-0.8-0.5-1-0.9c-0.2-0.4-0.3-0.8-0.3-1.2
			c0-0.8,0.3-1.4,0.9-1.9c0.6-0.4,1.5-0.7,2.5-0.7h2.1v-0.1c0-0.7-0.2-1.2-0.5-1.6c-0.4-0.4-0.8-0.5-1.5-0.5c-0.5,0-1,0.1-1.4,0.4
			c-0.4,0.3-0.6,0.6-0.7,1.1h-1.4c0.1-0.6,0.2-1.1,0.6-1.5c0.3-0.4,0.8-0.7,1.3-0.9c0.5-0.2,1-0.3,1.6-0.3c1.1,0,1.9,0.3,2.5,0.9
			c0.6,0.6,0.8,1.4,0.8,2.4v4.9h-1.2l-0.1-1.4c-0.2,0.4-0.6,0.8-1,1.2C110.3,299,109.7,299.2,109,299.2z M109.2,298.1
			c0.5,0,0.9-0.1,1.3-0.4c0.4-0.3,0.7-0.6,0.8-1s0.3-0.9,0.3-1.3v0h-2c-0.8,0-1.3,0.1-1.7,0.4c-0.3,0.3-0.5,0.6-0.5,1
			c0,0.4,0.1,0.8,0.4,1C108.2,297.9,108.6,298.1,109.2,298.1z M115,299v-11.5h1.3v6.9l3.2-3.3h1.6l-3.5,3.6l4,4.4H120l-3.6-4.1v4.1
			H115z M123.9,289.3c-0.3,0-0.5-0.1-0.7-0.3c-0.2-0.2-0.3-0.4-0.3-0.7c0-0.3,0.1-0.5,0.3-0.6c0.2-0.2,0.4-0.3,0.7-0.3
			c0.3,0,0.5,0.1,0.7,0.3c0.2,0.2,0.3,0.4,0.3,0.6c0,0.3-0.1,0.5-0.3,0.7C124.4,289.2,124.1,289.3,123.9,289.3z M123.2,299v-7.9h1.3
			v7.9H123.2z M126.9,299v-7.9h1.2l0.1,1.4c0.3-0.5,0.6-0.9,1.1-1.2c0.5-0.3,1-0.4,1.6-0.4c0.9,0,1.7,0.3,2.2,0.9
			c0.6,0.6,0.8,1.4,0.8,2.6v4.6h-1.3v-4.5c0-1.7-0.7-2.5-2-2.5c-0.7,0-1.3,0.3-1.7,0.8c-0.4,0.5-0.7,1.2-0.7,2.1v4.1H126.9z
			 M139.2,296.5c-0.4,0-0.9-0.1-1.2-0.2l-0.8,0.8c0.1,0.1,0.3,0.2,0.4,0.2c0.2,0.1,0.4,0.1,0.8,0.2c0.3,0,0.8,0.1,1.4,0.1
			c1.1,0.1,1.8,0.3,2.3,0.7c0.5,0.4,0.7,1,0.7,1.6c0,0.5-0.1,0.9-0.4,1.3c-0.2,0.4-0.6,0.8-1.2,1c-0.5,0.3-1.2,0.4-2,0.4
			c-0.7,0-1.3-0.1-1.9-0.3c-0.6-0.2-1-0.5-1.3-0.8c-0.3-0.4-0.5-0.8-0.5-1.4c0-0.3,0.1-0.6,0.2-1c0.2-0.3,0.5-0.7,0.9-1
			c-0.2-0.1-0.4-0.2-0.6-0.3c-0.2-0.1-0.3-0.2-0.4-0.4v-0.4l1.4-1.3c-0.6-0.5-0.9-1.2-0.9-2.1c0-0.5,0.1-1,0.4-1.4
			c0.2-0.4,0.6-0.8,1.1-1c0.5-0.3,1-0.4,1.7-0.4c0.5,0,0.9,0.1,1.2,0.2h2.9v1l-1.5,0.1c0.3,0.4,0.5,1,0.5,1.6c0,0.5-0.1,1-0.4,1.4
			c-0.2,0.4-0.6,0.8-1.1,1C140.4,296.4,139.9,296.5,139.2,296.5z M139.2,295.4c0.6,0,1-0.1,1.3-0.4c0.3-0.3,0.5-0.7,0.5-1.3
			c0-0.5-0.2-1-0.5-1.2c-0.3-0.3-0.8-0.4-1.3-0.4c-0.6,0-1,0.1-1.4,0.4c-0.3,0.3-0.5,0.7-0.5,1.2c0,0.6,0.2,1,0.5,1.3
			C138.2,295.3,138.6,295.4,139.2,295.4z M136.9,300c0,0.5,0.2,0.9,0.7,1.2c0.4,0.3,1,0.4,1.7,0.4c0.7,0,1.2-0.1,1.6-0.4
			c0.4-0.3,0.6-0.7,0.6-1.2c0-0.3-0.1-0.6-0.4-0.9c-0.3-0.2-0.8-0.4-1.5-0.4c-0.6,0-1.1-0.1-1.5-0.2c-0.4,0.2-0.7,0.5-0.9,0.8
			C136.9,299.6,136.9,299.8,136.9,300z M149.9,289.3c-0.3,0-0.5-0.1-0.7-0.3c-0.2-0.2-0.3-0.4-0.3-0.7c0-0.3,0.1-0.5,0.3-0.6
			c0.2-0.2,0.4-0.3,0.7-0.3c0.3,0,0.5,0.1,0.7,0.3c0.2,0.2,0.3,0.4,0.3,0.6c0,0.3-0.1,0.5-0.3,0.7
			C150.4,289.2,150.2,289.3,149.9,289.3z M149.3,299v-7.9h1.3v7.9H149.3z M156.1,299c-0.7,0-1.3-0.2-1.7-0.5c-0.4-0.4-0.6-1-0.6-1.9
			v-4.4h-1.4v-1.1h1.4l0.2-1.9h1.2v1.9h2.3v1.1h-2.3v4.4c0,0.5,0.1,0.8,0.3,1c0.2,0.2,0.6,0.3,1.1,0.3h0.8v1.2H156.1z M166.9,299.2
			c-0.8,0-1.4-0.2-2-0.5c-0.6-0.4-1.1-0.8-1.4-1.5c-0.3-0.6-0.5-1.3-0.5-2.2c0-0.8,0.2-1.6,0.5-2.2c0.3-0.6,0.8-1.1,1.4-1.5
			c0.6-0.4,1.3-0.5,2.1-0.5c0.8,0,1.4,0.2,2,0.5c0.6,0.3,1,0.8,1.3,1.4c0.3,0.6,0.4,1.2,0.4,1.8c0,0.1,0,0.2,0,0.4
			c0,0.1,0,0.3,0,0.4h-6.3c0,0.6,0.2,1.1,0.4,1.5c0.3,0.4,0.6,0.7,0.9,0.9c0.4,0.2,0.8,0.3,1.2,0.3c0.6,0,1-0.1,1.4-0.4
			c0.4-0.3,0.6-0.6,0.8-1h1.3c-0.2,0.7-0.6,1.3-1.2,1.8C168.6,299,167.9,299.2,166.9,299.2z M166.9,292c-0.6,0-1.2,0.2-1.7,0.6
			c-0.5,0.4-0.8,0.9-0.8,1.7h5c0-0.7-0.3-1.3-0.7-1.7C168.2,292.2,167.6,292,166.9,292z M175.1,299.2c-0.7,0-1.2-0.1-1.6-0.3
			c-0.4-0.2-0.8-0.5-1-0.9c-0.2-0.4-0.3-0.8-0.3-1.2c0-0.8,0.3-1.4,0.9-1.9c0.6-0.4,1.5-0.7,2.5-0.7h2.1v-0.1c0-0.7-0.2-1.2-0.5-1.6
			c-0.4-0.4-0.8-0.5-1.5-0.5c-0.5,0-1,0.1-1.4,0.4c-0.4,0.3-0.6,0.6-0.7,1.1h-1.4c0.1-0.6,0.2-1.1,0.6-1.5c0.3-0.4,0.8-0.7,1.3-0.9
			c0.5-0.2,1-0.3,1.6-0.3c1.1,0,1.9,0.3,2.5,0.9c0.6,0.6,0.8,1.4,0.8,2.4v4.9h-1.2l-0.1-1.4c-0.2,0.4-0.6,0.8-1,1.2
			C176.4,299,175.8,299.2,175.1,299.2z M175.3,298.1c0.5,0,0.9-0.1,1.3-0.4c0.4-0.3,0.7-0.6,0.8-1s0.3-0.9,0.3-1.3v0h-2
			c-0.8,0-1.3,0.1-1.7,0.4c-0.3,0.3-0.5,0.6-0.5,1c0,0.4,0.1,0.8,0.4,1C174.3,297.9,174.8,298.1,175.3,298.1z M184.2,299.2
			c-0.9,0-1.7-0.2-2.4-0.7c-0.6-0.5-1-1.1-1.1-2h1.4c0.1,0.4,0.3,0.8,0.7,1.1c0.4,0.3,0.8,0.4,1.5,0.4c0.6,0,1-0.1,1.2-0.4
			c0.3-0.2,0.4-0.5,0.4-0.9c0-0.5-0.2-0.8-0.5-1c-0.3-0.2-0.8-0.3-1.5-0.4c-0.4-0.1-0.9-0.2-1.3-0.4c-0.4-0.2-0.8-0.4-1.1-0.7
			c-0.3-0.3-0.4-0.7-0.4-1.2c0-0.7,0.3-1.3,0.8-1.7c0.5-0.4,1.2-0.7,2.1-0.7c0.8,0,1.5,0.2,2.1,0.6c0.5,0.4,0.9,1,0.9,1.8h-1.3
			c-0.1-0.4-0.2-0.7-0.5-0.9c-0.3-0.2-0.7-0.4-1.2-0.4c-0.5,0-0.9,0.1-1.1,0.3c-0.3,0.2-0.4,0.5-0.4,0.8c0,0.3,0.2,0.6,0.5,0.8
			c0.3,0.2,0.8,0.3,1.4,0.5c0.5,0.1,1,0.2,1.4,0.4c0.4,0.1,0.8,0.4,1.1,0.7c0.3,0.3,0.4,0.7,0.4,1.3c0,0.7-0.3,1.3-0.8,1.8
			C185.9,299,185.1,299.2,184.2,299.2z M190,289.3c-0.3,0-0.5-0.1-0.7-0.3c-0.2-0.2-0.3-0.4-0.3-0.7c0-0.3,0.1-0.5,0.3-0.6
			c0.2-0.2,0.4-0.3,0.7-0.3c0.3,0,0.5,0.1,0.7,0.3c0.2,0.2,0.3,0.4,0.3,0.6c0,0.3-0.1,0.5-0.3,0.7
			C190.4,289.2,190.2,289.3,190,289.3z M189.3,299v-7.9h1.3v7.9H189.3z M196.5,299.2c-0.8,0-1.4-0.2-2-0.5c-0.6-0.4-1.1-0.8-1.4-1.5
			c-0.3-0.6-0.5-1.3-0.5-2.2c0-0.8,0.2-1.6,0.5-2.2c0.3-0.6,0.8-1.1,1.4-1.5c0.6-0.4,1.3-0.5,2.1-0.5c0.8,0,1.4,0.2,2,0.5
			c0.6,0.3,1,0.8,1.3,1.4c0.3,0.6,0.4,1.2,0.4,1.8c0,0.1,0,0.2,0,0.4c0,0.1,0,0.3,0,0.4H194c0,0.6,0.2,1.1,0.4,1.5
			c0.3,0.4,0.6,0.7,0.9,0.9c0.4,0.2,0.8,0.3,1.2,0.3c0.6,0,1-0.1,1.4-0.4c0.4-0.3,0.6-0.6,0.8-1h1.3c-0.2,0.7-0.6,1.3-1.2,1.8
			C198.2,299,197.5,299.2,196.5,299.2z M196.5,292c-0.6,0-1.2,0.2-1.7,0.6c-0.5,0.4-0.8,0.9-0.8,1.7h5c0-0.7-0.3-1.3-0.7-1.7
			C197.8,292.2,197.2,292,196.5,292z M202.1,299v-7.9h1.2l0.1,1.5c0.2-0.5,0.6-0.9,1.1-1.2c0.5-0.3,1.1-0.5,1.9-0.5v1.4H206
			c-0.5,0-0.9,0.1-1.3,0.3c-0.4,0.2-0.7,0.4-0.9,0.8c-0.2,0.4-0.4,0.9-0.4,1.6v4H202.1z M215.3,299c-0.7,0-1.3-0.2-1.7-0.5
			c-0.4-0.4-0.6-1-0.6-1.9v-4.4h-1.4v-1.1h1.4l0.2-1.9h1.2v1.9h2.3v1.1h-2.3v4.4c0,0.5,0.1,0.8,0.3,1c0.2,0.2,0.6,0.3,1.1,0.3h0.8
			v1.2H215.3z M221.7,299.2c-0.7,0-1.4-0.2-2-0.5c-0.6-0.3-1.1-0.8-1.4-1.4c-0.3-0.6-0.5-1.4-0.5-2.2c0-0.8,0.2-1.6,0.5-2.2
			c0.4-0.6,0.8-1.1,1.4-1.5c0.6-0.3,1.3-0.5,2-0.5c0.7,0,1.4,0.2,2,0.5c0.6,0.3,1.1,0.8,1.4,1.5c0.4,0.6,0.5,1.3,0.5,2.2
			c0,0.8-0.2,1.6-0.5,2.2c-0.4,0.6-0.8,1.1-1.4,1.4C223.1,299,222.5,299.2,221.7,299.2z M221.7,298c0.5,0,0.9-0.1,1.3-0.3
			c0.4-0.2,0.7-0.6,1-1c0.2-0.4,0.4-1,0.4-1.7c0-0.7-0.1-1.2-0.4-1.7c-0.2-0.4-0.5-0.8-0.9-1c-0.4-0.2-0.8-0.3-1.3-0.3
			c-0.5,0-0.9,0.1-1.3,0.3c-0.4,0.2-0.7,0.6-1,1c-0.2,0.4-0.4,1-0.4,1.7c0,0.7,0.1,1.2,0.4,1.7c0.2,0.4,0.6,0.8,0.9,1
			C220.8,297.9,221.3,298,221.7,298z M231.8,299v-7.9h1.2l0.1,1.4c0.3-0.5,0.6-0.9,1.1-1.2c0.5-0.3,1-0.4,1.6-0.4
			c0.9,0,1.7,0.3,2.2,0.9c0.6,0.6,0.8,1.4,0.8,2.6v4.6h-1.3v-4.5c0-1.7-0.7-2.5-2-2.5c-0.7,0-1.3,0.3-1.7,0.8
			c-0.4,0.5-0.7,1.2-0.7,2.1v4.1H231.8z M244.6,299.2c-0.7,0-1.4-0.2-2-0.5c-0.6-0.3-1.1-0.8-1.4-1.4c-0.3-0.6-0.5-1.4-0.5-2.2
			c0-0.8,0.2-1.6,0.5-2.2c0.4-0.6,0.8-1.1,1.4-1.5c0.6-0.3,1.3-0.5,2-0.5c0.7,0,1.4,0.2,2,0.5c0.6,0.3,1.1,0.8,1.4,1.5
			c0.4,0.6,0.5,1.3,0.5,2.2c0,0.8-0.2,1.6-0.5,2.2c-0.4,0.6-0.8,1.1-1.4,1.4C246,299,245.3,299.2,244.6,299.2z M244.6,298
			c0.5,0,0.9-0.1,1.3-0.3c0.4-0.2,0.7-0.6,1-1c0.2-0.4,0.4-1,0.4-1.7c0-0.7-0.1-1.2-0.4-1.7c-0.2-0.4-0.5-0.8-0.9-1
			c-0.4-0.2-0.8-0.3-1.3-0.3c-0.5,0-0.9,0.1-1.3,0.3c-0.4,0.2-0.7,0.6-1,1c-0.2,0.4-0.4,1-0.4,1.7c0,0.7,0.1,1.2,0.4,1.7
			c0.2,0.4,0.6,0.8,0.9,1C243.7,297.9,244.1,298,244.6,298z M254,299.2c-0.8,0-1.5-0.2-2.1-0.5c-0.6-0.4-1-0.9-1.4-1.5
			c-0.3-0.6-0.5-1.3-0.5-2.1c0-0.8,0.2-1.5,0.5-2.1c0.3-0.6,0.8-1.1,1.4-1.5c0.6-0.4,1.3-0.5,2.1-0.5c0.7,0,1.2,0.1,1.7,0.4
			c0.5,0.3,0.9,0.6,1.2,1.1v-4.9h1.3V299h-1.2l-0.1-1.3c-0.3,0.4-0.6,0.7-1.1,1C255.3,299,254.7,299.2,254,299.2z M254.2,298
			c0.5,0,1-0.1,1.4-0.4c0.4-0.3,0.7-0.6,1-1.1c0.2-0.4,0.4-1,0.4-1.6c0-0.6-0.1-1.1-0.4-1.6c-0.2-0.4-0.5-0.8-1-1
			c-0.4-0.3-0.9-0.4-1.4-0.4c-0.5,0-1,0.1-1.4,0.4c-0.4,0.2-0.7,0.6-1,1c-0.2,0.4-0.3,1-0.3,1.6c0,0.6,0.1,1.1,0.3,1.6
			c0.2,0.4,0.6,0.8,1,1.1C253.2,297.9,253.6,298,254.2,298z M24.7,323.2c-0.7,0-1.4-0.2-2-0.5c-0.6-0.3-1.1-0.8-1.4-1.4
			c-0.3-0.6-0.5-1.4-0.5-2.2c0-0.8,0.2-1.6,0.5-2.2c0.4-0.6,0.8-1.1,1.4-1.5c0.6-0.3,1.3-0.5,2-0.5s1.4,0.2,2,0.5
			c0.6,0.3,1.1,0.8,1.4,1.5c0.4,0.6,0.5,1.3,0.5,2.2c0,0.8-0.2,1.6-0.5,2.2c-0.4,0.6-0.8,1.1-1.4,1.4
			C26.1,323,25.5,323.2,24.7,323.2z M24.7,322c0.5,0,0.9-0.1,1.3-0.3s0.7-0.6,1-1c0.2-0.4,0.4-1,0.4-1.7c0-0.7-0.1-1.2-0.4-1.7
			c-0.2-0.4-0.5-0.8-0.9-1c-0.4-0.2-0.8-0.3-1.3-0.3c-0.5,0-0.9,0.1-1.3,0.3c-0.4,0.2-0.7,0.6-1,1s-0.4,1-0.4,1.7
			c0,0.7,0.1,1.2,0.4,1.7c0.2,0.4,0.6,0.8,0.9,1C23.9,321.9,24.3,322,24.7,322z M31,323v-6.8h-1.2v-1.1H31v-1.4
			c0-0.8,0.2-1.3,0.6-1.7c0.4-0.4,0.9-0.5,1.7-0.5h0.8v1.2h-0.6c-0.4,0-0.7,0.1-0.9,0.3c-0.2,0.2-0.3,0.4-0.3,0.8v1.3h2v1.1h-2v6.8
			H31z M36.3,323v-6.8h-1.2v-1.1h1.2v-1.4c0-0.8,0.2-1.3,0.6-1.7c0.4-0.4,0.9-0.5,1.7-0.5h0.8v1.2h-0.6c-0.4,0-0.7,0.1-0.9,0.3
			c-0.2,0.2-0.3,0.4-0.3,0.8v1.3h2v1.1h-2v6.8H36.3z M45.3,318.9v-1.1h6.3v1.1H45.3z M60.5,323.2c-0.7,0-1.2-0.1-1.6-0.3
			c-0.4-0.2-0.8-0.5-1-0.9c-0.2-0.4-0.3-0.8-0.3-1.2c0-0.8,0.3-1.4,0.9-1.9c0.6-0.4,1.5-0.7,2.5-0.7h2.1v-0.1c0-0.7-0.2-1.2-0.5-1.6
			c-0.4-0.4-0.8-0.5-1.5-0.5c-0.5,0-1,0.1-1.4,0.4c-0.4,0.3-0.6,0.6-0.7,1.1h-1.4c0.1-0.6,0.2-1.1,0.6-1.5c0.3-0.4,0.8-0.7,1.3-0.9
			c0.5-0.2,1-0.3,1.6-0.3c1.1,0,1.9,0.3,2.5,0.9c0.6,0.6,0.8,1.4,0.8,2.4v4.9h-1.2l-0.1-1.4c-0.2,0.4-0.6,0.8-1,1.2
			C61.8,323,61.3,323.2,60.5,323.2z M60.7,322.1c0.5,0,0.9-0.1,1.3-0.4c0.4-0.3,0.7-0.6,0.8-1c0.2-0.4,0.3-0.9,0.3-1.3v0h-2
			c-0.8,0-1.3,0.1-1.7,0.4c-0.3,0.3-0.5,0.6-0.5,1c0,0.4,0.1,0.8,0.4,1C59.8,321.9,60.2,322.1,60.7,322.1z M66.6,323v-7.9h1.2
			l0.1,1.4c0.3-0.5,0.6-0.9,1.1-1.2c0.5-0.3,1-0.4,1.6-0.4c0.9,0,1.7,0.3,2.2,0.9c0.6,0.6,0.8,1.4,0.8,2.6v4.6h-1.3v-4.5
			c0-1.7-0.7-2.5-2-2.5c-0.7,0-1.3,0.3-1.7,0.8c-0.4,0.5-0.7,1.2-0.7,2.1v4.1H66.6z M79.3,323.2c-0.8,0-1.5-0.2-2.1-0.5
			c-0.6-0.4-1-0.9-1.4-1.5c-0.3-0.6-0.5-1.3-0.5-2.1c0-0.8,0.2-1.5,0.5-2.1c0.3-0.6,0.8-1.1,1.4-1.5c0.6-0.4,1.3-0.5,2.1-0.5
			c0.7,0,1.2,0.1,1.7,0.4c0.5,0.3,0.9,0.6,1.2,1.1v-4.9h1.3V323h-1.2l-0.1-1.3c-0.3,0.4-0.6,0.7-1.1,1C80.6,323,80,323.2,79.3,323.2
			z M79.5,322c0.5,0,1-0.1,1.4-0.4c0.4-0.3,0.7-0.6,1-1.1c0.2-0.4,0.4-1,0.4-1.6c0-0.6-0.1-1.1-0.4-1.6c-0.2-0.4-0.5-0.8-1-1
			c-0.4-0.3-0.9-0.4-1.4-0.4c-0.5,0-1,0.1-1.4,0.4c-0.4,0.2-0.7,0.6-1,1c-0.2,0.4-0.3,1-0.3,1.6c0,0.6,0.1,1.1,0.3,1.6
			c0.2,0.4,0.6,0.8,1,1.1C78.5,321.9,78.9,322,79.5,322z M93,323.2c-1,0-1.7-0.2-2.4-0.7c-0.6-0.5-1-1.1-1.1-2h1.4
			c0.1,0.4,0.3,0.8,0.7,1.1c0.4,0.3,0.8,0.4,1.5,0.4c0.6,0,1-0.1,1.2-0.4c0.3-0.2,0.4-0.5,0.4-0.9c0-0.5-0.2-0.8-0.5-1
			c-0.3-0.2-0.8-0.3-1.5-0.4c-0.4-0.1-0.9-0.2-1.3-0.4c-0.4-0.2-0.8-0.4-1.1-0.7c-0.3-0.3-0.4-0.7-0.4-1.2c0-0.7,0.3-1.3,0.8-1.7
			c0.5-0.4,1.2-0.7,2.1-0.7c0.8,0,1.5,0.2,2.1,0.6c0.5,0.4,0.9,1,0.9,1.8h-1.3c-0.1-0.4-0.2-0.7-0.5-0.9c-0.3-0.2-0.7-0.4-1.2-0.4
			c-0.5,0-0.9,0.1-1.1,0.3c-0.3,0.2-0.4,0.5-0.4,0.8c0,0.3,0.2,0.6,0.5,0.8c0.3,0.2,0.8,0.3,1.4,0.5c0.5,0.1,1,0.2,1.4,0.4
			c0.4,0.1,0.8,0.4,1.1,0.7c0.3,0.3,0.4,0.7,0.4,1.3c0,0.7-0.3,1.3-0.8,1.8C94.7,323,94,323.2,93,323.2z M98,323v-11.5h1.3V323H98z
			 M105.1,323.2c-0.8,0-1.4-0.2-2-0.5c-0.6-0.4-1.1-0.8-1.4-1.5c-0.3-0.6-0.5-1.3-0.5-2.2c0-0.8,0.2-1.6,0.5-2.2
			c0.3-0.6,0.8-1.1,1.4-1.5c0.6-0.4,1.3-0.5,2.1-0.5c0.8,0,1.4,0.2,2,0.5c0.6,0.3,1,0.8,1.3,1.4c0.3,0.6,0.4,1.2,0.4,1.8
			c0,0.1,0,0.2,0,0.4c0,0.1,0,0.3,0,0.4h-6.3c0,0.6,0.2,1.1,0.4,1.5c0.3,0.4,0.6,0.7,0.9,0.9c0.4,0.2,0.8,0.3,1.2,0.3
			c0.6,0,1-0.1,1.4-0.4c0.4-0.3,0.6-0.6,0.8-1h1.3c-0.2,0.7-0.6,1.3-1.2,1.8C106.8,323,106,323.2,105.1,323.2z M105.1,316
			c-0.6,0-1.2,0.2-1.7,0.6c-0.5,0.4-0.8,0.9-0.8,1.7h5c0-0.7-0.3-1.3-0.7-1.7C106.3,316.2,105.8,316,105.1,316z M114.2,323.2
			c-0.8,0-1.4-0.2-2-0.5c-0.6-0.4-1.1-0.8-1.4-1.5c-0.3-0.6-0.5-1.3-0.5-2.2c0-0.8,0.2-1.6,0.5-2.2c0.3-0.6,0.8-1.1,1.4-1.5
			c0.6-0.4,1.3-0.5,2.1-0.5c0.8,0,1.4,0.2,2,0.5c0.6,0.3,1,0.8,1.3,1.4c0.3,0.6,0.4,1.2,0.4,1.8c0,0.1,0,0.2,0,0.4
			c0,0.1,0,0.3,0,0.4h-6.3c0,0.6,0.2,1.1,0.4,1.5c0.3,0.4,0.6,0.7,0.9,0.9c0.4,0.2,0.8,0.3,1.2,0.3c0.6,0,1-0.1,1.4-0.4
			c0.4-0.3,0.6-0.6,0.8-1h1.3c-0.2,0.7-0.6,1.3-1.2,1.8C115.9,323,115.2,323.2,114.2,323.2z M114.2,316c-0.6,0-1.2,0.2-1.7,0.6
			c-0.5,0.4-0.8,0.9-0.8,1.7h5c0-0.7-0.3-1.3-0.7-1.7S114.9,316,114.2,316z M119.8,326.5v-11.5h1.2l0.1,1.3c0.3-0.4,0.6-0.7,1.1-1
			c0.5-0.3,1.1-0.5,1.8-0.5c0.8,0,1.5,0.2,2.1,0.5c0.6,0.4,1,0.9,1.4,1.5c0.3,0.6,0.5,1.3,0.5,2.1c0,0.8-0.2,1.5-0.5,2.1
			c-0.3,0.6-0.8,1.1-1.4,1.5c-0.6,0.4-1.3,0.5-2.1,0.5c-0.6,0-1.2-0.1-1.7-0.4c-0.5-0.3-0.9-0.6-1.2-1.1v4.8H119.8z M123.9,322
			c0.5,0,1-0.1,1.4-0.4c0.4-0.3,0.7-0.6,1-1.1c0.2-0.4,0.4-1,0.4-1.6c0-0.6-0.1-1.1-0.4-1.6c-0.2-0.4-0.6-0.8-1-1
			c-0.4-0.3-0.9-0.4-1.4-0.4c-0.5,0-1,0.1-1.4,0.4c-0.4,0.2-0.7,0.6-1,1c-0.2,0.4-0.4,1-0.4,1.6c0,0.6,0.1,1.1,0.4,1.6
			c0.2,0.4,0.6,0.8,1,1.1C122.9,321.9,123.3,322,123.9,322z M134,323v-7.9h1.2l0.1,1.5c0.2-0.5,0.6-0.9,1.1-1.2
			c0.5-0.3,1.1-0.5,1.9-0.5v1.4H138c-0.5,0-0.9,0.1-1.3,0.3c-0.4,0.2-0.7,0.4-0.9,0.8c-0.2,0.4-0.4,0.9-0.4,1.6v4H134z M140.7,313.3
			c-0.3,0-0.5-0.1-0.7-0.3c-0.2-0.2-0.3-0.4-0.3-0.7c0-0.3,0.1-0.5,0.3-0.6c0.2-0.2,0.4-0.3,0.7-0.3c0.3,0,0.5,0.1,0.7,0.3
			c0.2,0.2,0.3,0.4,0.3,0.6c0,0.3-0.1,0.5-0.3,0.7C141.1,313.2,140.9,313.3,140.7,313.3z M140,323v-7.9h1.3v7.9H140z M146.8,320.5
			c-0.4,0-0.9-0.1-1.2-0.2l-0.8,0.8c0.1,0.1,0.3,0.2,0.4,0.2c0.2,0.1,0.4,0.1,0.8,0.2c0.3,0,0.8,0.1,1.4,0.1
			c1.1,0.1,1.8,0.3,2.3,0.7c0.5,0.4,0.7,1,0.7,1.6c0,0.5-0.1,0.9-0.4,1.3c-0.2,0.4-0.6,0.8-1.2,1c-0.5,0.3-1.2,0.4-2,0.4
			c-0.7,0-1.3-0.1-1.9-0.3c-0.6-0.2-1-0.5-1.3-0.8c-0.3-0.4-0.5-0.8-0.5-1.4c0-0.3,0.1-0.6,0.2-1c0.2-0.3,0.5-0.7,0.9-1
			c-0.2-0.1-0.4-0.2-0.6-0.3c-0.2-0.1-0.3-0.2-0.4-0.4v-0.4l1.4-1.3c-0.6-0.5-0.9-1.2-0.9-2.1c0-0.5,0.1-1,0.4-1.4
			c0.2-0.4,0.6-0.8,1.1-1c0.5-0.3,1-0.4,1.7-0.4c0.5,0,0.9,0.1,1.2,0.2h2.9v1l-1.5,0.1c0.3,0.4,0.5,1,0.5,1.6c0,0.5-0.1,1-0.4,1.4
			c-0.2,0.4-0.6,0.8-1.1,1C148.1,320.4,147.5,320.5,146.8,320.5z M146.8,319.4c0.6,0,1-0.1,1.3-0.4c0.3-0.3,0.5-0.7,0.5-1.3
			c0-0.5-0.2-1-0.5-1.2c-0.3-0.3-0.8-0.4-1.3-0.4c-0.6,0-1,0.1-1.4,0.4c-0.3,0.3-0.5,0.7-0.5,1.2c0,0.6,0.2,1,0.5,1.3
			C145.8,319.3,146.2,319.4,146.8,319.4z M144.5,324c0,0.5,0.2,0.9,0.7,1.2c0.4,0.3,1,0.4,1.7,0.4c0.7,0,1.2-0.1,1.6-0.4
			c0.4-0.3,0.6-0.7,0.6-1.2c0-0.3-0.1-0.6-0.4-0.9c-0.3-0.2-0.8-0.4-1.5-0.4c-0.6,0-1.1-0.1-1.5-0.2c-0.4,0.2-0.7,0.5-0.9,0.8
			C144.6,323.6,144.5,323.8,144.5,324z M152.5,323v-11.5h1.3v4.9c0.3-0.5,0.6-0.9,1.1-1.1c0.5-0.3,1-0.4,1.6-0.4
			c0.9,0,1.7,0.3,2.2,0.9c0.6,0.6,0.8,1.4,0.8,2.6v4.6h-1.3v-4.5c0-1.7-0.7-2.5-2-2.5c-0.7,0-1.3,0.3-1.7,0.8
			c-0.5,0.5-0.7,1.2-0.7,2.1v4.1H152.5z M164.8,323c-0.7,0-1.3-0.2-1.7-0.5c-0.4-0.4-0.6-1-0.6-1.9v-4.4h-1.4v-1.1h1.4l0.2-1.9h1.2
			v1.9h2.3v1.1h-2.3v4.4c0,0.5,0.1,0.8,0.3,1c0.2,0.2,0.6,0.3,1.1,0.3h0.8v1.2H164.8z M175.2,323c-0.7,0-1.3-0.2-1.7-0.5
			c-0.4-0.4-0.6-1-0.6-1.9v-4.4h-1.4v-1.1h1.4l0.2-1.9h1.2v1.9h2.3v1.1h-2.3v4.4c0,0.5,0.1,0.8,0.3,1c0.2,0.2,0.6,0.3,1.1,0.3h0.8
			v1.2H175.2z M178.3,323v-11.5h1.3v4.9c0.3-0.5,0.6-0.9,1.1-1.1c0.5-0.3,1-0.4,1.6-0.4c0.9,0,1.7,0.3,2.2,0.9
			c0.6,0.6,0.8,1.4,0.8,2.6v4.6h-1.3v-4.5c0-1.7-0.7-2.5-2-2.5c-0.7,0-1.3,0.3-1.7,0.8c-0.5,0.5-0.7,1.2-0.7,2.1v4.1H178.3z
			 M187.4,323v-7.9h1.2l0.1,1.5c0.2-0.5,0.6-0.9,1.1-1.2c0.5-0.3,1.1-0.5,1.9-0.5v1.4h-0.4c-0.5,0-0.9,0.1-1.3,0.3
			c-0.4,0.2-0.7,0.4-0.9,0.8c-0.2,0.4-0.4,0.9-0.4,1.6v4H187.4z M196.6,323.2c-0.7,0-1.4-0.2-2-0.5c-0.6-0.3-1.1-0.8-1.4-1.4
			c-0.3-0.6-0.5-1.4-0.5-2.2c0-0.8,0.2-1.6,0.5-2.2c0.4-0.6,0.8-1.1,1.4-1.5c0.6-0.3,1.3-0.5,2-0.5c0.7,0,1.4,0.2,2,0.5
			c0.6,0.3,1.1,0.8,1.4,1.5c0.4,0.6,0.5,1.3,0.5,2.2c0,0.8-0.2,1.6-0.5,2.2c-0.4,0.6-0.8,1.1-1.4,1.4
			C198,323,197.3,323.2,196.6,323.2z M196.6,322c0.5,0,0.9-0.1,1.3-0.3c0.4-0.2,0.7-0.6,1-1c0.2-0.4,0.4-1,0.4-1.7
			c0-0.7-0.1-1.2-0.4-1.7c-0.2-0.4-0.6-0.8-0.9-1c-0.4-0.2-0.8-0.3-1.3-0.3c-0.5,0-0.9,0.1-1.3,0.3c-0.4,0.2-0.7,0.6-1,1
			c-0.2,0.4-0.4,1-0.4,1.7c0,0.7,0.1,1.2,0.4,1.7c0.2,0.4,0.6,0.8,0.9,1C195.7,321.9,196.1,322,196.6,322z M205.3,323.2
			c-0.9,0-1.7-0.3-2.2-0.8c-0.6-0.6-0.8-1.5-0.8-2.6v-4.6h1.3v4.5c0,1.7,0.7,2.5,2,2.5c0.7,0,1.3-0.2,1.7-0.7
			c0.5-0.5,0.7-1.2,0.7-2.1v-4.1h1.3v7.9h-1.2l-0.1-1.4c-0.2,0.5-0.6,0.9-1.1,1.2C206.5,323,205.9,323.2,205.3,323.2z M214.7,320.5
			c-0.4,0-0.9-0.1-1.2-0.2l-0.8,0.8c0.1,0.1,0.3,0.2,0.4,0.2c0.2,0.1,0.4,0.1,0.8,0.2c0.3,0,0.8,0.1,1.4,0.1
			c1.1,0.1,1.8,0.3,2.3,0.7c0.5,0.4,0.7,1,0.7,1.6c0,0.5-0.1,0.9-0.4,1.3c-0.2,0.4-0.6,0.8-1.2,1c-0.5,0.3-1.2,0.4-2,0.4
			c-0.7,0-1.4-0.1-1.9-0.3c-0.6-0.2-1-0.5-1.3-0.8c-0.3-0.4-0.5-0.8-0.5-1.4c0-0.3,0.1-0.6,0.2-1c0.2-0.3,0.5-0.7,0.9-1
			c-0.2-0.1-0.4-0.2-0.6-0.3c-0.2-0.1-0.3-0.2-0.4-0.4v-0.4l1.4-1.3c-0.6-0.5-0.9-1.2-0.9-2.1c0-0.5,0.1-1,0.4-1.4
			c0.2-0.4,0.6-0.8,1.1-1c0.5-0.3,1-0.4,1.7-0.4c0.5,0,0.9,0.1,1.2,0.2h2.9v1l-1.5,0.1c0.3,0.4,0.5,1,0.5,1.6c0,0.5-0.1,1-0.4,1.4
			c-0.2,0.4-0.6,0.8-1.1,1C215.9,320.4,215.4,320.5,214.7,320.5z M214.7,319.4c0.6,0,1-0.1,1.3-0.4c0.3-0.3,0.5-0.7,0.5-1.3
			c0-0.5-0.2-1-0.5-1.2c-0.3-0.3-0.8-0.4-1.3-0.4c-0.6,0-1,0.1-1.4,0.4c-0.3,0.3-0.5,0.7-0.5,1.2c0,0.6,0.2,1,0.5,1.3
			C213.7,319.3,214.1,319.4,214.7,319.4z M212.4,324c0,0.5,0.2,0.9,0.7,1.2c0.4,0.3,1,0.4,1.7,0.4c0.7,0,1.2-0.1,1.6-0.4
			c0.4-0.3,0.6-0.7,0.6-1.2c0-0.3-0.1-0.6-0.4-0.9c-0.3-0.2-0.8-0.4-1.5-0.4c-0.6,0-1.1-0.1-1.5-0.2c-0.4,0.2-0.7,0.5-0.9,0.8
			C212.4,323.6,212.4,323.8,212.4,324z M220.4,323v-11.5h1.3v4.9c0.3-0.5,0.6-0.9,1.1-1.1c0.5-0.3,1-0.4,1.6-0.4
			c0.9,0,1.7,0.3,2.2,0.9c0.6,0.6,0.8,1.4,0.8,2.6v4.6h-1.3v-4.5c0-1.7-0.7-2.5-2-2.5c-0.7,0-1.3,0.3-1.7,0.8
			c-0.5,0.5-0.7,1.2-0.7,2.1v4.1H220.4z M230,323.1c-0.3,0-0.5-0.1-0.7-0.3c-0.2-0.2-0.3-0.4-0.3-0.7s0.1-0.5,0.3-0.6
			c0.2-0.2,0.4-0.3,0.7-0.3c0.3,0,0.5,0.1,0.6,0.3c0.2,0.2,0.3,0.4,0.3,0.6s-0.1,0.5-0.3,0.7C230.5,323,230.3,323.1,230,323.1z"/>
		<path class="st2" d="M193.4,87.8l-1.2,7.2c-0.6,3.5-3.9,6-7.4,5.4l-0.5-0.1c-3.1-0.5-5.4-3.1-5.3-6.2l1.8-11.4l10,1.6
			C192.6,84.5,193.7,86.1,193.4,87.8z"/>
		<path class="st2" d="M132.4,7.6l-1.6,10l-10.3-1.6c-1.7-0.3-2.8-1.8-2.6-3.5l1.1-6.9c0.6-3.5,3.9-6,7.4-5.4l0.5,0.1
			C130.5,0.7,133,4.1,132.4,7.6z"/>
		<path class="st3" d="M184.2,93.7l5.9-36.6l6.3-39.1c0-0.2,0-0.2,0-0.2c0-0.2,0-0.2,0.1-0.5c0.5-3.1-1.7-6.1-5-6.7L126.6,0.1
			c1.1,2.1,1.5,4.4,1.1,6.8l-12.2,75.8c0,0.2,0,0.2,0,0.2c0,0.2,0,0.2-0.1,0.5c-0.5,3.1,1.7,6.1,5,6.7l64.9,10.4
			C184.2,98.3,183.8,96,184.2,93.7z"/>
		<path class="st0" d="M134.1,58.2c2.8,0,5-2.2,5-5c0-2.8-2.2-5-5-5c-2.8,0-5,2.2-5,5C129.2,56,131.4,58.2,134.1,58.2z"/>
		<path class="st4" d="M133.3,55.6c-0.2,0-0.3-0.1-0.5-0.2l-1.3-1.1c-0.2-0.2-0.2-0.4-0.1-0.6c0.2-0.2,0.4-0.2,0.6-0.1l1.2,1
			l2.7-3.3c0.2-0.2,0.4-0.2,0.6-0.1c0.2,0.2,0.2,0.4,0.1,0.6l-2.8,3.5C133.8,55.5,133.5,55.6,133.3,55.6z"/>
		<path class="st0" d="M139.9,22.3c2.8,0,5-2.2,5-5c0-2.8-2.2-5-5-5c-2.8,0-5,2.2-5,5C134.9,20.1,137.1,22.3,139.9,22.3z"/>
		<path class="st4" d="M139.1,19.7c-0.2,0-0.3-0.1-0.5-0.2l-1.3-1.1c-0.2-0.2-0.2-0.4-0.1-0.6c0.2-0.2,0.4-0.2,0.6-0.1l1.2,1
			l2.7-3.3c0.2-0.2,0.4-0.2,0.6-0.1c0.2,0.2,0.2,0.4,0.1,0.6l-2.8,3.5C139.5,19.6,139.3,19.7,139.1,19.7z"/>
		<path class="st0" d="M137,40.5c2.8,0,5-2.2,5-5c0-2.8-2.2-5-5-5c-2.8,0-5,2.2-5,5C132,38.3,134.2,40.5,137,40.5z"/>
		<path class="st4" d="M136.2,37.9c-0.2,0-0.3-0.1-0.5-0.2l-1.3-1.1c-0.2-0.2-0.2-0.4-0.1-0.6c0.2-0.2,0.4-0.2,0.6-0.1l1.2,1
			l2.7-3.3c0.2-0.2,0.4-0.2,0.6-0.1c0.2,0.2,0.2,0.4,0.1,0.6l-2.8,3.5C136.6,37.8,136.5,37.9,136.2,37.9
			C136.2,37.9,136.2,37.9,136.2,37.9z"/>
		<path class="st0" d="M131.2,76.7c2.8,0,5-2.2,5-5c0-2.8-2.2-5-5-5s-5,2.2-5,5C126.2,74.5,128.4,76.7,131.2,76.7z"/>
		<path class="st4" d="M130.4,74.1c-0.2,0-0.3-0.1-0.5-0.2l-1.3-1.1c-0.2-0.2-0.2-0.4-0.1-0.6c0.2-0.2,0.4-0.2,0.6-0.1l1.2,1
			l2.7-3.3c0.2-0.2,0.4-0.2,0.6-0.1c0.2,0.2,0.2,0.4,0.1,0.6l-2.8,3.5C130.8,74,130.6,74.1,130.4,74.1z"/>
		<path class="st0" d="M151.9,17.4l26.6,4.3c1.4,0.2,2.5,1.4,2.2,2.8c-0.2,1.4-1.3,2.2-2.8,2l-26.8-4.3c-1.4-0.2-2.2-1.3-2-2.8
			C149.4,18,150.5,17.2,151.9,17.4z"/>
		<path class="st0" d="M149,35.6l26.6,4.3c1.4,0.2,2.5,1.4,2.2,2.8c-0.2,1.4-1.3,2.2-2.8,2l-26.8-4.3c-1.4-0.2-2.2-1.3-2-2.8
			C146.5,36.2,147.6,35.4,149,35.6z"/>
		<path class="st0" d="M168.7,80.9l-26.6-4.3c-1.4-0.2-2.5-1.4-2.2-2.8c0.2-1.4,1.3-2.2,2.8-2l26.8,4.3c1.4,0.2,2.2,1.3,2,2.8
			C171.2,80.4,170.1,81.2,168.7,80.9z"/>
		<path class="st0" d="M171.8,61.5l-26.6-4.3c-1.4-0.2-2.5-1.4-2.2-2.8c0.2-1.4,1.3-2.2,2.8-2l26.8,4.3c1.4,0.2,2.2,1.3,2,2.8
			C174.4,60.9,173.3,61.8,171.8,61.5z"/>
		<path class="st0" d="M190.8,21.9c-0.1,0-0.2,0-0.2,0c-0.3-0.1-0.4-0.5-0.3-0.8c0,0,0.7-1.7-0.3-3.3c-1-1.5-3.3-2.5-6.8-2.7
			c-0.3,0-0.6-0.3-0.5-0.6c0-0.3,0.3-0.6,0.6-0.5c4,0.2,6.6,1.3,7.8,3.3c1.3,2.1,0.4,4.2,0.4,4.3C191.2,21.7,191,21.9,190.8,21.9z"
			/>
		<path class="st5" d="M156.5,125c29.5,0,53.5-4,53.5-9s-24-9-53.5-9s-53.5,4-53.5,9S127,125,156.5,125z"/>
	</g>
</g>
</svg>
