<?xml version="1.0" encoding="utf-8"?>
<!-- Generator: Adobe Illustrator 25.1.0, SVG Export Plug-In . SVG Version: 6.00 Build 0)  -->
<svg version="1.1" id="Layer_1" xmlns="http://www.w3.org/2000/svg" xmlns:xlink="http://www.w3.org/1999/xlink" x="0px" y="0px"
	 viewBox="0 0 328.8 243.6" style="enable-background:new 0 0 328.8 243.6;" xml:space="preserve">
<style type="text/css">
	.st0{fill:#FFFFFF;}
	.st1{fill:#808080;}
	.st2{fill:#32DCD2;}
	.st3{fill:#00CDDC;}
	.st4{fill:#28C86E;}
	.st5{fill:none;stroke:#28C86E;stroke-width:2.7353;stroke-linecap:round;stroke-miterlimit:10;}
	.st6{fill:#FFCF8D;}
	.st7{fill:#FF9F1A;}
	.st8{fill:#D64204;}
</style>
<g>
	<g>
		<path class="st0" d="M328.7,153.3c0-172.4,4-145.6-28.3-148.9c-27.9-2.9-157.6-5-194.4-4.3C69.9,0.8,11.6-1.6,5.3,24.9
			C-1,51,0.1,62.8,0.1,109.7c0,73.8,1.7,119.5,38.8,128.8c37.7,9.5,200.6,3,246,1.8C331.8,239.1,328.7,228.5,328.7,153.3z"/>
		<path class="st1" d="M32.9,38.5V27.3h1.3v11.2H32.9z"/>
		<path class="st1" d="M39.7,38.5c-0.7,0-1.3-0.2-1.7-0.5c-0.4-0.4-0.6-1-0.6-1.9v-4.4H36v-1.1h1.4l0.2-1.9h1.2v1.9h2.3v1.1h-2.3
			v4.4c0,0.5,0.1,0.8,0.3,1s0.6,0.3,1.1,0.3H41v1.1H39.7z"/>
		<path class="st1" d="M47.8,28.8c-0.3,0-0.5-0.1-0.7-0.3c-0.2-0.2-0.3-0.4-0.3-0.7s0.1-0.5,0.3-0.6c0.2-0.2,0.4-0.3,0.7-0.3
			s0.5,0.1,0.7,0.3c0.2,0.2,0.3,0.4,0.3,0.6c0,0.3-0.1,0.5-0.3,0.7S48.1,28.8,47.8,28.8z M47.2,38.5v-7.9h1.3v7.9H47.2z"/>
		<path class="st1" d="M53.9,38.7c-1,0-1.7-0.2-2.4-0.7c-0.6-0.5-1-1.1-1.1-1.9h1.4c0.1,0.4,0.3,0.8,0.7,1.1
			c0.4,0.3,0.8,0.5,1.5,0.5c0.6,0,1-0.1,1.2-0.4c0.3-0.2,0.4-0.5,0.4-0.9c0-0.5-0.2-0.8-0.5-1s-0.8-0.3-1.5-0.4
			c-0.4-0.1-0.8-0.2-1.3-0.4s-0.8-0.4-1.1-0.7c-0.3-0.3-0.4-0.7-0.4-1.2c0-0.7,0.3-1.3,0.8-1.7c0.5-0.4,1.2-0.7,2.1-0.7
			c0.8,0,1.5,0.2,2.1,0.6c0.5,0.4,0.8,1,0.9,1.8h-1.3c0-0.4-0.2-0.7-0.5-0.9c-0.3-0.2-0.7-0.3-1.2-0.3s-0.9,0.1-1.1,0.3
			s-0.5,0.5-0.5,0.8s0.2,0.6,0.5,0.8c0.3,0.2,0.8,0.3,1.4,0.5c0.5,0.1,1,0.2,1.4,0.4c0.4,0.1,0.8,0.4,1.1,0.7
			c0.3,0.3,0.4,0.7,0.4,1.3c0,0.7-0.3,1.3-0.8,1.8C55.5,38.5,54.8,38.7,53.9,38.7z"/>
		<path class="st1" d="M67.3,38.7c-0.7,0-1.2-0.1-1.7-0.4s-0.9-0.6-1.2-1.1l-0.1,1.3h-1.2V27h1.3v4.9c0.3-0.4,0.6-0.7,1.1-1
			s1.1-0.5,1.8-0.5c0.8,0,1.5,0.2,2.1,0.5c0.6,0.4,1,0.9,1.4,1.5s0.5,1.3,0.5,2.1c0,0.8-0.2,1.5-0.5,2.1s-0.8,1.1-1.4,1.5
			C68.8,38.5,68.1,38.7,67.3,38.7z M67.2,37.5c0.5,0,1-0.1,1.4-0.4c0.4-0.2,0.7-0.6,1-1.1c0.2-0.4,0.3-1,0.3-1.6s-0.1-1.1-0.3-1.6
			c-0.2-0.5-0.6-0.8-1-1.1c-0.4-0.2-0.9-0.4-1.4-0.4s-1,0.1-1.4,0.4c-0.4,0.2-0.7,0.6-1,1.1c-0.2,0.4-0.3,1-0.3,1.6s0.1,1.1,0.3,1.6
			c0.2,0.5,0.6,0.8,1,1.1C66.2,37.4,66.6,37.5,67.2,37.5z"/>
		<path class="st1" d="M76.7,38.7c-0.8,0-1.4-0.2-2-0.5c-0.6-0.4-1-0.8-1.4-1.5c-0.3-0.6-0.5-1.4-0.5-2.2c0-0.8,0.2-1.6,0.5-2.2
			s0.8-1.1,1.4-1.5s1.3-0.5,2.1-0.5c0.8,0,1.4,0.2,2,0.5c0.6,0.4,1,0.8,1.3,1.4s0.4,1.2,0.4,1.8c0,0.1,0,0.2,0,0.3
			c0,0.1,0,0.2,0,0.4h-6.4c0,0.6,0.2,1.1,0.4,1.5c0.2,0.4,0.6,0.7,0.9,0.9c0.4,0.2,0.8,0.3,1.2,0.3c0.5,0,1-0.1,1.4-0.4
			s0.6-0.6,0.8-1h1.3c-0.2,0.7-0.6,1.4-1.2,1.8C78.4,38.5,77.6,38.7,76.7,38.7z M76.7,31.5c-0.6,0-1.2,0.2-1.7,0.6s-0.8,1-0.9,1.7h5
			c0-0.7-0.3-1.3-0.7-1.7C77.9,31.7,77.4,31.5,76.7,31.5z"/>
		<path class="st1" d="M85.3,38.7c-1,0-1.7-0.2-2.4-0.7c-0.6-0.5-1-1.1-1.1-1.9h1.4c0.1,0.4,0.3,0.8,0.7,1.1
			c0.3,0.3,0.8,0.5,1.4,0.5s1-0.1,1.2-0.4c0.3-0.2,0.4-0.5,0.4-0.9c0-0.5-0.2-0.8-0.5-1s-0.8-0.3-1.5-0.4c-0.4-0.1-0.8-0.2-1.3-0.4
			s-0.8-0.4-1.1-0.7c-0.3-0.3-0.4-0.7-0.4-1.2c0-0.7,0.3-1.3,0.8-1.7c0.5-0.4,1.2-0.7,2.1-0.7c0.8,0,1.5,0.2,2.1,0.6
			c0.5,0.4,0.9,1,0.9,1.8h-1.3c0-0.4-0.2-0.7-0.5-0.9c-0.3-0.2-0.7-0.3-1.2-0.3s-0.8,0.1-1.1,0.3s-0.4,0.5-0.4,0.8s0.2,0.6,0.5,0.8
			c0.3,0.2,0.8,0.3,1.4,0.5c0.5,0.1,1,0.2,1.4,0.4c0.4,0.1,0.8,0.4,1.1,0.7c0.3,0.3,0.4,0.7,0.4,1.3c0,0.7-0.3,1.3-0.8,1.8
			C86.9,38.5,86.2,38.7,85.3,38.7z"/>
		<path class="st1" d="M93,38.5c-0.7,0-1.3-0.2-1.7-0.5c-0.4-0.4-0.6-1-0.6-1.9v-4.4h-1.4v-1.1h1.4l0.2-1.9h1.2v1.9h2.3v1.1h-2.3
			v4.4c0,0.5,0.1,0.8,0.3,1c0.2,0.2,0.6,0.3,1.1,0.3h0.8v1.1H93z"/>
		<path class="st1" d="M103.4,38.5c-0.7,0-1.3-0.2-1.7-0.5c-0.4-0.4-0.6-1-0.6-1.9v-4.4h-1.4v-1.1h1.4l0.2-1.9h1.2v1.9h2.3v1.1h-2.3
			v4.4c0,0.5,0.1,0.8,0.3,1c0.2,0.2,0.6,0.3,1.1,0.3h0.8v1.1H103.4z"/>
		<path class="st1" d="M109.9,38.7c-0.8,0-1.4-0.2-2-0.5s-1.1-0.8-1.4-1.4c-0.4-0.6-0.5-1.4-0.5-2.2s0.2-1.6,0.5-2.2
			c0.4-0.6,0.8-1.1,1.4-1.5c0.6-0.3,1.3-0.5,2-0.5s1.4,0.2,2,0.5s1.1,0.8,1.4,1.5c0.4,0.6,0.5,1.4,0.5,2.2s-0.2,1.6-0.5,2.2
			c-0.4,0.6-0.8,1.1-1.4,1.4C111.3,38.5,110.6,38.7,109.9,38.7z M109.9,37.5c0.5,0,0.9-0.1,1.3-0.3c0.4-0.2,0.7-0.6,1-1
			c0.2-0.4,0.4-1,0.4-1.7s-0.1-1.2-0.4-1.7c-0.2-0.4-0.6-0.8-0.9-1c-0.4-0.2-0.8-0.3-1.3-0.3s-0.9,0.1-1.3,0.3c-0.4,0.2-0.7,0.6-1,1
			c-0.2,0.5-0.4,1-0.4,1.7s0.1,1.2,0.4,1.7c0.2,0.5,0.6,0.8,0.9,1C109,37.4,109.4,37.5,109.9,37.5z"/>
		<path class="st1" d="M122.6,38.7c-0.7,0-1.2-0.1-1.7-0.3c-0.4-0.2-0.8-0.5-1-0.9s-0.3-0.8-0.3-1.2c0-0.8,0.3-1.4,0.9-1.9
			s1.5-0.7,2.5-0.7h2.1v-0.1c0-0.7-0.2-1.2-0.5-1.6c-0.4-0.4-0.9-0.5-1.5-0.5c-0.5,0-1,0.1-1.3,0.4c-0.4,0.3-0.6,0.6-0.7,1.1h-1.4
			c0.1-0.6,0.2-1.1,0.6-1.5c0.3-0.4,0.8-0.7,1.3-0.9c0.5-0.2,1-0.3,1.6-0.3c1.1,0,1.9,0.3,2.5,0.9s0.8,1.4,0.8,2.4v4.9h-1.2
			l-0.1-1.4c-0.2,0.4-0.6,0.8-1,1.1C123.9,38.5,123.3,38.7,122.6,38.7z M122.8,37.6c0.5,0,0.9-0.1,1.3-0.4s0.6-0.6,0.8-1
			s0.3-0.9,0.3-1.3l0,0h-2c-0.8,0-1.3,0.1-1.7,0.4c-0.3,0.3-0.5,0.6-0.5,1s0.1,0.8,0.5,1C121.9,37.4,122.3,37.6,122.8,37.6z"/>
		<path class="st1" d="M130.6,38.5l-3-7.9h1.4l2.4,6.6l2.4-6.6h1.4l-3,7.9H130.6z"/>
		<path class="st1" d="M139.9,38.7c-0.8,0-1.4-0.2-2-0.5s-1.1-0.8-1.4-1.4c-0.4-0.6-0.5-1.4-0.5-2.2s0.2-1.6,0.5-2.2
			c0.4-0.6,0.8-1.1,1.4-1.5c0.6-0.3,1.3-0.5,2-0.5c0.8,0,1.4,0.2,2,0.5s1.1,0.8,1.4,1.5c0.4,0.6,0.5,1.4,0.5,2.2s-0.2,1.6-0.5,2.2
			c-0.4,0.6-0.8,1.1-1.4,1.4C141.3,38.5,140.6,38.7,139.9,38.7z M139.9,37.5c0.5,0,0.9-0.1,1.3-0.3c0.4-0.2,0.7-0.6,1-1
			c0.2-0.4,0.4-1,0.4-1.7s-0.1-1.2-0.4-1.7c-0.2-0.4-0.6-0.8-0.9-1c-0.4-0.2-0.8-0.3-1.3-0.3s-0.9,0.1-1.3,0.3c-0.4,0.2-0.7,0.6-1,1
			c-0.2,0.5-0.4,1-0.4,1.7s0.1,1.2,0.4,1.7s0.6,0.8,0.9,1C139,37.4,139.4,37.5,139.9,37.5z"/>
		<path class="st1" d="M146.6,28.8c-0.3,0-0.5-0.1-0.7-0.3c-0.2-0.2-0.3-0.4-0.3-0.7s0.1-0.5,0.3-0.6c0.2-0.2,0.4-0.3,0.7-0.3
			s0.5,0.1,0.7,0.3c0.2,0.2,0.3,0.4,0.3,0.6c0,0.3-0.1,0.5-0.3,0.7C147,28.7,146.8,28.8,146.6,28.8z M145.9,38.5v-7.9h1.3v7.9H145.9
			z"/>
		<path class="st1" d="M153.2,38.7c-0.8,0-1.5-0.2-2.1-0.5c-0.6-0.4-1.1-0.9-1.4-1.5s-0.5-1.3-0.5-2.1c0-0.8,0.2-1.5,0.5-2.1
			s0.8-1.1,1.4-1.5c0.6-0.4,1.3-0.5,2.1-0.5c0.7,0,1.2,0.1,1.7,0.4s0.9,0.6,1.2,1.1v-4.9h1.3v11.5h-1.2l-0.1-1.3
			c-0.3,0.4-0.6,0.7-1.1,1C154.5,38.5,153.9,38.7,153.2,38.7z M153.3,37.5c0.5,0,1-0.1,1.4-0.4c0.4-0.2,0.7-0.6,1-1.1
			c0.2-0.4,0.3-1,0.3-1.6s-0.1-1.1-0.3-1.6s-0.6-0.8-1-1.1c-0.4-0.2-0.9-0.4-1.4-0.4s-1,0.1-1.4,0.4s-0.7,0.6-1,1.1
			c-0.2,0.4-0.3,1-0.3,1.6s0.1,1.1,0.3,1.6s0.5,0.8,1,1.1C152.3,37.4,152.8,37.5,153.3,37.5z"/>
		<path class="st1" d="M36,60.5c-0.7,0-1.3-0.2-1.7-0.5c-0.4-0.4-0.6-1-0.6-1.9v-4.4h-1.4v-1.1h1.4l0.2-1.9h1.2v1.9h2.3v1.1h-2.3
			v4.4c0,0.5,0.1,0.8,0.3,1s0.6,0.3,1.1,0.3h0.8v1.1H36z"/>
		<path class="st1" d="M41.7,60.7c-0.7,0-1.2-0.1-1.7-0.3c-0.4-0.2-0.8-0.5-1-0.9s-0.3-0.8-0.3-1.2c0-0.8,0.3-1.4,0.9-1.9
			c0.6-0.4,1.5-0.7,2.5-0.7h2.1v-0.1c0-0.7-0.2-1.2-0.5-1.6c-0.4-0.4-0.9-0.5-1.5-0.5c-0.5,0-1,0.1-1.3,0.4
			c-0.4,0.3-0.6,0.6-0.7,1.1h-1.4c0.1-0.6,0.2-1.1,0.6-1.5c0.3-0.4,0.8-0.7,1.3-0.9c0.5-0.2,1-0.3,1.6-0.3c1.1,0,1.9,0.3,2.5,0.9
			s0.8,1.4,0.8,2.4v4.9h-1.2l-0.1-1.4c-0.2,0.4-0.6,0.8-1,1.1C43,60.5,42.4,60.7,41.7,60.7z M41.9,59.6c0.5,0,0.9-0.1,1.3-0.4
			s0.7-0.6,0.8-1c0.2-0.4,0.3-0.9,0.3-1.3l0,0h-2c-0.8,0-1.4,0.1-1.7,0.4s-0.5,0.6-0.5,1s0.1,0.8,0.5,1
			C40.9,59.4,41.4,59.6,41.9,59.6z"/>
		<path class="st1" d="M47.7,60.5V49H49v6.9l3.2-3.3h1.7l-3.5,3.6l4,4.4h-1.7l-3.6-4.1v4.1h-1.4V60.5z"/>
		<path class="st1" d="M56.6,50.8c-0.3,0-0.5-0.1-0.7-0.3c-0.2-0.2-0.3-0.4-0.3-0.7s0.1-0.5,0.3-0.6c0.2-0.2,0.4-0.3,0.7-0.3
			s0.5,0.1,0.7,0.3c0.2,0.2,0.3,0.4,0.3,0.6c0,0.3-0.1,0.5-0.3,0.7S56.9,50.8,56.6,50.8z M55.9,60.5v-7.9h1.3v7.9H55.9z"/>
		<path class="st1" d="M59.6,60.5v-7.9h1.2l0.1,1.4c0.3-0.5,0.6-0.9,1.1-1.2c0.5-0.3,1-0.4,1.6-0.4c0.9,0,1.7,0.3,2.2,0.9
			c0.6,0.6,0.8,1.4,0.8,2.6v4.6h-1.3V56c0-1.6-0.7-2.5-2-2.5c-0.7,0-1.2,0.2-1.7,0.7c-0.4,0.5-0.7,1.2-0.7,2.1v4.1L59.6,60.5
			L59.6,60.5z"/>
		<path class="st1" d="M71.9,58c-0.5,0-0.9-0.1-1.2-0.2l-0.8,0.8c0.1,0.1,0.3,0.2,0.4,0.2s0.4,0.1,0.8,0.2c0.3,0,0.8,0.1,1.4,0.1
			c1.1,0.1,1.8,0.3,2.3,0.7c0.5,0.4,0.7,1,0.7,1.6c0,0.5-0.1,0.9-0.4,1.3c-0.2,0.4-0.6,0.8-1.1,1c-0.5,0.3-1.2,0.4-2,0.4
			c-0.7,0-1.3-0.1-1.9-0.3c-0.6-0.2-1-0.5-1.3-0.9s-0.5-0.9-0.5-1.4c0-0.3,0.1-0.6,0.2-1c0.2-0.4,0.5-0.7,0.9-1
			c-0.2-0.1-0.4-0.2-0.6-0.3c-0.2-0.1-0.3-0.2-0.5-0.4v-0.2l1.4-1.3c-0.6-0.5-0.9-1.2-0.9-2.1c0-0.5,0.1-1,0.4-1.4
			c0.2-0.4,0.6-0.8,1.1-1s1-0.4,1.7-0.4c0.5,0,0.9,0.1,1.2,0.2h2.9v1l-1.5,0.1c0.3,0.5,0.5,1,0.5,1.6c0,0.5-0.1,1-0.4,1.4
			c-0.2,0.4-0.6,0.8-1.1,1C73.1,57.9,72.6,58,71.9,58z M69.5,61.5c0,0.5,0.2,0.9,0.7,1.2c0.4,0.3,1,0.4,1.7,0.4s1.2-0.1,1.6-0.4
			s0.6-0.7,0.6-1.1c0-0.3-0.1-0.6-0.4-0.9s-0.8-0.4-1.5-0.4c-0.6,0-1.1-0.1-1.5-0.2c-0.4,0.2-0.7,0.5-0.9,0.8
			C69.6,61.1,69.5,61.3,69.5,61.5z M71.9,56.9c0.6,0,1-0.1,1.3-0.4s0.5-0.7,0.5-1.3c0-0.5-0.2-1-0.5-1.3s-0.8-0.4-1.3-0.4
			c-0.6,0-1,0.1-1.4,0.4c-0.3,0.3-0.5,0.7-0.5,1.3c0,0.6,0.2,1,0.5,1.3C70.9,56.7,71.3,56.9,71.9,56.9z"/>
		<path class="st1" d="M81.8,60.5v-7.9H83l0.1,1.4c0.3-0.5,0.6-0.9,1.1-1.2c0.5-0.3,1-0.4,1.6-0.4c0.9,0,1.7,0.3,2.2,0.9
			s0.8,1.4,0.8,2.6v4.6h-1.3V56c0-1.6-0.7-2.5-2.1-2.5c-0.7,0-1.2,0.2-1.7,0.7c-0.4,0.5-0.7,1.2-0.7,2.1v4.1L81.8,60.5L81.8,60.5z"
			/>
		<path class="st1" d="M93.6,60.7c-0.7,0-1.2-0.1-1.7-0.3c-0.4-0.2-0.8-0.5-1-0.9s-0.3-0.8-0.3-1.2c0-0.8,0.3-1.4,0.9-1.9
			c0.6-0.4,1.5-0.7,2.5-0.7h2.1v-0.1c0-0.7-0.2-1.2-0.5-1.6c-0.4-0.4-0.9-0.5-1.5-0.5c-0.5,0-1,0.1-1.4,0.4S92.1,54.5,92,55h-1.4
			c0-0.6,0.2-1.1,0.6-1.5c0.3-0.4,0.8-0.7,1.3-0.9c0.5-0.2,1-0.3,1.6-0.3c1.1,0,1.9,0.3,2.5,0.9s0.8,1.4,0.8,2.4v4.9h-1.2l-0.1-1.4
			c-0.2,0.4-0.6,0.8-1,1.1C94.9,60.5,94.3,60.7,93.6,60.7z M93.8,59.6c0.5,0,0.9-0.1,1.3-0.4s0.7-0.6,0.8-1c0.2-0.4,0.3-0.9,0.3-1.3
			l0,0h-2c-0.8,0-1.3,0.1-1.7,0.4c-0.3,0.3-0.5,0.6-0.5,1s0.1,0.8,0.5,1C92.8,59.4,93.3,59.6,93.8,59.6z"/>
		<path class="st1" d="M99.6,64V52.6h1.2l0.1,1.3c0.3-0.4,0.6-0.7,1.1-1s1.1-0.5,1.8-0.5c0.8,0,1.5,0.2,2.1,0.5
			c0.6,0.4,1,0.9,1.4,1.5c0.3,0.6,0.5,1.3,0.5,2.1s-0.2,1.5-0.5,2.1s-0.8,1.1-1.4,1.5s-1.3,0.5-2.1,0.5c-0.7,0-1.2-0.1-1.7-0.4
			s-0.9-0.6-1.2-1.1V64H99.6z M103.7,59.5c0.5,0,1-0.1,1.4-0.4c0.4-0.2,0.7-0.6,1-1.1c0.2-0.4,0.3-1,0.3-1.6s-0.1-1.1-0.3-1.6
			s-0.6-0.8-1-1.1c-0.4-0.2-0.9-0.4-1.4-0.4s-1,0.1-1.4,0.4c-0.4,0.2-0.7,0.6-1,1.1c-0.2,0.4-0.3,1-0.3,1.6s0.1,1.1,0.3,1.6
			c0.2,0.5,0.6,0.8,1,1.1C102.7,59.4,103.2,59.5,103.7,59.5z"/>
		<path class="st1" d="M112.7,60.7c-0.9,0-1.7-0.2-2.4-0.7c-0.6-0.5-1-1.1-1.1-1.9h1.4c0.1,0.4,0.3,0.8,0.7,1.1
			c0.3,0.3,0.8,0.5,1.4,0.5s1-0.1,1.2-0.4c0.3-0.2,0.4-0.5,0.4-0.9c0-0.5-0.2-0.8-0.5-1c-0.4-0.2-0.8-0.3-1.5-0.4
			c-0.4-0.1-0.8-0.2-1.3-0.4c-0.4-0.2-0.8-0.4-1.1-0.7c-0.3-0.3-0.4-0.7-0.4-1.2c0-0.7,0.3-1.3,0.8-1.7s1.2-0.7,2.1-0.7
			c0.8,0,1.5,0.2,2.1,0.6c0.5,0.4,0.9,1,0.9,1.8h-1.3c-0.1-0.4-0.2-0.7-0.5-0.9c-0.3-0.2-0.7-0.3-1.2-0.3s-0.9,0.1-1.1,0.3
			s-0.4,0.5-0.4,0.8s0.2,0.6,0.5,0.8c0.3,0.2,0.8,0.3,1.4,0.5c0.5,0.1,1,0.2,1.4,0.4s0.8,0.4,1.1,0.7c0.3,0.3,0.4,0.7,0.4,1.3
			c0,0.7-0.3,1.3-0.8,1.8C114.4,60.5,113.7,60.7,112.7,60.7z"/>
		<path class="st1" d="M36.5,82.7c-0.8,0-1.5-0.2-2.1-0.5s-1-0.9-1.4-1.5c-0.3-0.6-0.5-1.3-0.5-2.1s0.2-1.5,0.5-2.1s0.8-1.1,1.4-1.5
			s1.3-0.5,2.1-0.5c0.6,0,1.2,0.1,1.7,0.4s0.9,0.6,1.2,1.1v-4.9h1.3v11.5h-1.2l-0.1-1.3c-0.3,0.4-0.6,0.7-1.1,1
			C37.8,82.5,37.2,82.7,36.5,82.7z M36.6,81.5c0.5,0,1-0.1,1.4-0.4s0.7-0.6,1-1s0.3-1,0.3-1.6s-0.1-1.1-0.3-1.6
			c-0.2-0.4-0.5-0.8-1-1s-0.9-0.4-1.4-0.4s-1,0.1-1.4,0.4s-0.7,0.6-1,1c-0.2,0.5-0.3,1-0.3,1.6s0.1,1.1,0.3,1.6s0.5,0.8,1,1
			C35.6,81.4,36.1,81.5,36.6,81.5z"/>
		<path class="st1" d="M45.8,82.7c-0.9,0-1.7-0.3-2.2-0.9s-0.8-1.4-0.8-2.6v-4.6h1.3v4.5c0,1.6,0.7,2.5,2,2.5c0.7,0,1.3-0.2,1.7-0.7
			s0.7-1.2,0.7-2.1v-4.2h1.3v7.9h-1.2l-0.1-1.4c-0.2,0.5-0.6,0.9-1.1,1.2C47,82.6,46.4,82.7,45.8,82.7z"/>
		<path class="st1" d="M52.1,82.5v-7.9h1.2l0.1,1.5c0.2-0.5,0.6-0.9,1.1-1.2s1.1-0.5,1.9-0.5v1.4H56c-0.5,0-0.9,0.1-1.3,0.2
			c-0.4,0.2-0.7,0.5-0.9,0.8c-0.2,0.4-0.4,0.9-0.4,1.6v4h-1.3V82.5z"/>
		<path class="st1" d="M58.7,72.8c-0.3,0-0.5-0.1-0.7-0.3c-0.2-0.2-0.3-0.4-0.3-0.7s0.1-0.5,0.3-0.6c0.2-0.2,0.4-0.3,0.7-0.3
			s0.5,0.1,0.7,0.3c0.2,0.2,0.3,0.4,0.3,0.6c0,0.3-0.1,0.5-0.3,0.7S58.9,72.8,58.7,72.8z M58,82.5v-7.9h1.3v7.9H58z"/>
		<path class="st1" d="M61.7,82.5v-7.9h1.2L63,76c0.3-0.5,0.6-0.9,1.1-1.2c0.5-0.3,1-0.4,1.6-0.4c0.9,0,1.7,0.3,2.2,0.9
			c0.6,0.6,0.8,1.5,0.8,2.6v4.6h-1.3V78c0-1.7-0.7-2.5-2.1-2.5c-0.7,0-1.2,0.2-1.7,0.7c-0.5,0.5-0.7,1.2-0.7,2.1v4.1L61.7,82.5
			L61.7,82.5z"/>
		<path class="st1" d="M74,80c-0.4,0-0.9-0.1-1.2-0.2L72,80.6c0.1,0.1,0.3,0.2,0.4,0.2s0.4,0.1,0.8,0.2c0.3,0.1,0.8,0.1,1.4,0.2
			c1.1,0.1,1.8,0.3,2.3,0.7s0.7,1,0.7,1.6c0,0.5-0.1,0.9-0.4,1.3c-0.2,0.4-0.6,0.8-1.1,1c-0.5,0.3-1.2,0.4-2,0.4
			c-0.7,0-1.3-0.1-1.9-0.3c-0.5-0.2-1-0.5-1.3-0.9s-0.5-0.9-0.5-1.4c0-0.3,0.1-0.6,0.2-1c0.2-0.4,0.5-0.7,0.9-1
			c-0.2-0.1-0.4-0.2-0.6-0.3s-0.3-0.2-0.5-0.4v-0.3l1.4-1.3c-0.6-0.5-0.9-1.2-0.9-2.1c0-0.5,0.1-1,0.4-1.4c0.2-0.4,0.6-0.8,1.1-1
			s1-0.4,1.7-0.4c0.5,0,0.9,0.1,1.2,0.2h2.9v1l-1.5,0.1c0.3,0.4,0.5,1,0.5,1.5s-0.1,1-0.4,1.4c-0.2,0.4-0.6,0.8-1.1,1
			C75.2,79.9,74.7,80,74,80z M71.7,83.5c0,0.5,0.2,0.9,0.7,1.2s1,0.4,1.7,0.4s1.2-0.1,1.6-0.4s0.6-0.7,0.6-1.2
			c0-0.3-0.1-0.6-0.4-0.9c-0.3-0.2-0.8-0.4-1.5-0.4c-0.6,0-1.1-0.1-1.5-0.2c-0.4,0.2-0.7,0.5-0.9,0.8C71.7,83.1,71.7,83.3,71.7,83.5
			z M74,78.9c0.6,0,1-0.1,1.4-0.4c0.3-0.3,0.5-0.7,0.5-1.3c0-0.5-0.2-1-0.5-1.3s-0.8-0.4-1.4-0.4s-1,0.1-1.4,0.4
			c-0.3,0.3-0.5,0.7-0.5,1.3c0,0.5,0.2,1,0.5,1.3C73,78.8,73.4,78.9,74,78.9z"/>
		<path class="st1" d="M87,82.5c-0.7,0-1.3-0.2-1.7-0.5c-0.4-0.3-0.6-1-0.6-1.9v-4.4h-1.4v-1.1h1.4l0.2-1.9h1.2v1.9h2.3v1.1h-2.3
			v4.4c0,0.5,0.1,0.8,0.3,1c0.2,0.2,0.6,0.3,1.1,0.3h0.8v1.2L87,82.5L87,82.5z"/>
		<path class="st1" d="M90.1,82.5V71h1.3v4.9c0.3-0.5,0.7-0.9,1.1-1.1c0.5-0.3,1-0.4,1.6-0.4c0.9,0,1.7,0.3,2.2,0.9s0.8,1.5,0.8,2.6
			v4.6h-1.3V78c0-1.7-0.7-2.5-2-2.5c-0.7,0-1.3,0.2-1.7,0.7c-0.5,0.5-0.7,1.2-0.7,2.1v4.1L90.1,82.5L90.1,82.5z"/>
		<path class="st1" d="M102.8,82.7c-0.8,0-1.4-0.2-2-0.5c-0.6-0.4-1-0.8-1.4-1.5c-0.3-0.6-0.5-1.3-0.5-2.2c0-0.8,0.2-1.6,0.5-2.2
			s0.8-1.1,1.4-1.5c0.6-0.3,1.3-0.5,2.1-0.5c0.8,0,1.4,0.2,2,0.5c0.6,0.4,1,0.8,1.3,1.4s0.4,1.2,0.4,1.8c0,0.1,0,0.2,0,0.4
			c0,0.1,0,0.2,0,0.4h-6.3c0,0.6,0.2,1.1,0.4,1.5c0.2,0.4,0.6,0.7,0.9,0.9c0.4,0.2,0.8,0.3,1.2,0.3c0.5,0,1-0.1,1.4-0.4
			s0.6-0.6,0.8-1h1.3c-0.2,0.7-0.6,1.3-1.2,1.8C104.5,82.4,103.8,82.7,102.8,82.7z M102.8,75.5c-0.6,0-1.2,0.2-1.7,0.6
			s-0.8,1-0.9,1.7h5c0-0.7-0.3-1.3-0.7-1.7C104.1,75.7,103.5,75.5,102.8,75.5z"/>
		<path class="st1" d="M116.2,82.7c-0.8,0-1.5-0.2-2.1-0.5s-1.1-0.9-1.4-1.5s-0.5-1.3-0.5-2.1s0.2-1.5,0.5-2.1s0.8-1.1,1.4-1.5
			s1.3-0.5,2.1-0.5c0.7,0,1.2,0.1,1.7,0.4s0.9,0.6,1.2,1.1v-4.9h1.3v11.5h-1.2l-0.1-1.3c-0.3,0.4-0.6,0.7-1.1,1
			C117.5,82.5,116.9,82.7,116.2,82.7z M116.3,81.5c0.5,0,1-0.1,1.4-0.4s0.7-0.6,1-1c0.2-0.5,0.3-1,0.3-1.6s-0.1-1.1-0.3-1.6
			c-0.2-0.4-0.6-0.8-1-1s-0.9-0.4-1.4-0.4s-1,0.1-1.4,0.4c-0.4,0.2-0.7,0.6-1,1c-0.2,0.5-0.3,1-0.3,1.6s0.1,1.1,0.3,1.6s0.6,0.8,1,1
			C115.4,81.4,115.8,81.5,116.3,81.5z"/>
		<path class="st1" d="M125.3,82.7c-0.7,0-1.2-0.1-1.7-0.3c-0.4-0.2-0.8-0.5-1-0.9s-0.3-0.8-0.3-1.2c0-0.8,0.3-1.4,0.9-1.9
			s1.5-0.7,2.5-0.7h2.1v-0.1c0-0.7-0.2-1.2-0.5-1.6c-0.4-0.4-0.9-0.5-1.5-0.5c-0.5,0-1,0.1-1.3,0.4c-0.4,0.3-0.6,0.6-0.7,1.1h-1.4
			c0.1-0.6,0.2-1.1,0.6-1.5c0.3-0.4,0.8-0.7,1.3-0.9s1-0.3,1.6-0.3c1.1,0,1.9,0.3,2.5,0.9c0.6,0.6,0.8,1.4,0.8,2.4v4.9h-1.1
			l-0.1-1.4c-0.2,0.5-0.5,0.8-1,1.1C126.6,82.5,126,82.7,125.3,82.7z M125.5,81.6c0.5,0,1-0.1,1.3-0.4s0.6-0.6,0.8-1
			s0.3-0.9,0.3-1.3l0,0h-2c-0.8,0-1.4,0.1-1.7,0.4c-0.3,0.3-0.5,0.6-0.5,1s0.1,0.8,0.5,1C124.5,81.4,125,81.6,125.5,81.6z"/>
		<path class="st1" d="M131.9,86l2-4.3h-0.5l-3.1-7.2h1.5l2.6,6.2l2.8-6.2h1.4L133.4,86H131.9z"/>
		<path class="st1" d="M139.3,82.6c-0.3,0-0.5-0.1-0.7-0.3s-0.3-0.4-0.3-0.6s0.1-0.5,0.3-0.7s0.4-0.3,0.7-0.3s0.5,0.1,0.6,0.3
			c0.2,0.2,0.3,0.4,0.3,0.7s-0.1,0.5-0.3,0.6C139.8,82.5,139.5,82.6,139.3,82.6z"/>
		<path class="st1" d="M146.3,82.5V71.3h1.3v11.2H146.3z"/>
		<path class="st1" d="M150.3,82.5v-6.8h-1.2v-1.1h1.2v-1.4c0-0.8,0.2-1.3,0.6-1.7s0.9-0.5,1.7-0.5h0.8v1.1h-0.6
			c-0.4,0-0.7,0.1-0.9,0.2c-0.2,0.2-0.3,0.5-0.3,0.8v1.3h1.9v1.1h-1.9v6.8L150.3,82.5L150.3,82.5z"/>
		<path class="st1" d="M33.7,108l2-4.3h-0.5l-3.1-7.1h1.5l2.6,6.2l2.8-6.2h1.4L35.1,108H33.7z"/>
		<path class="st1" d="M44.6,104.7c-0.8,0-1.4-0.2-2-0.5s-1.1-0.8-1.4-1.5c-0.4-0.6-0.5-1.4-0.5-2.2s0.2-1.6,0.5-2.2
			s0.8-1.1,1.4-1.4c0.6-0.3,1.3-0.5,2-0.5c0.8,0,1.4,0.2,2,0.5s1.1,0.8,1.4,1.4c0.3,0.6,0.5,1.4,0.5,2.2s-0.2,1.6-0.5,2.2
			s-0.8,1.1-1.4,1.5C46,104.5,45.4,104.7,44.6,104.7z M44.6,103.5c0.5,0,0.9-0.1,1.3-0.3s0.7-0.6,1-1c0.2-0.5,0.4-1,0.4-1.7
			s-0.1-1.2-0.4-1.7c-0.2-0.4-0.6-0.8-1-1s-0.8-0.3-1.3-0.3s-0.9,0.1-1.3,0.3s-0.7,0.6-1,1c-0.2,0.4-0.4,1-0.4,1.7s0.1,1.2,0.4,1.7
			s0.6,0.8,1,1C43.8,103.4,44.2,103.5,44.6,103.5z"/>
		<path class="st1" d="M53.4,104.7c-0.9,0-1.7-0.3-2.2-0.9s-0.8-1.4-0.8-2.6v-4.6h1.3v4.5c0,1.6,0.7,2.5,2,2.5
			c0.7,0,1.3-0.2,1.7-0.7s0.7-1.2,0.7-2.1v-4.2h1.3v7.9h-1.2l-0.1-1.4c-0.2,0.5-0.6,0.9-1.1,1.2S54,104.7,53.4,104.7z"/>
		<path class="st1" d="M67.5,104.7c-0.8,0-1.4-0.2-2-0.5c-0.6-0.4-1.1-0.8-1.4-1.5c-0.3-0.6-0.5-1.3-0.5-2.2s0.2-1.6,0.5-2.2
			c0.3-0.6,0.8-1.1,1.4-1.5c0.6-0.3,1.3-0.5,2-0.5c0.9,0,1.7,0.2,2.4,0.7s1,1.1,1.2,2h-1.4c-0.1-0.5-0.4-0.9-0.8-1.1
			c-0.4-0.3-0.9-0.4-1.5-0.4c-0.4,0-0.9,0.1-1.3,0.3s-0.7,0.6-1,1c-0.2,0.4-0.4,1-0.4,1.7s0.1,1.2,0.4,1.7s0.6,0.8,1,1
			s0.8,0.3,1.3,0.3c0.6,0,1-0.1,1.5-0.4c0.4-0.3,0.7-0.7,0.8-1.2h1.4c-0.2,0.8-0.6,1.5-1.2,2S68.5,104.7,67.5,104.7z"/>
		<path class="st1" d="M75.6,104.7c-0.7,0-1.2-0.1-1.7-0.3c-0.4-0.2-0.8-0.5-1-0.9s-0.3-0.8-0.3-1.2c0-0.8,0.3-1.4,0.9-1.9
			c0.6-0.4,1.5-0.7,2.5-0.7h2.1v-0.1c0-0.7-0.2-1.2-0.5-1.6c-0.4-0.4-0.8-0.5-1.5-0.5c-0.5,0-1,0.1-1.3,0.4s-0.6,0.6-0.7,1.1h-1.4
			c0.1-0.6,0.2-1.1,0.6-1.5c0.3-0.4,0.8-0.7,1.3-0.9s1-0.3,1.6-0.3c1.1,0,1.9,0.3,2.5,0.9s0.8,1.4,0.8,2.4v4.9h-1.2l-0.1-1.4
			c-0.2,0.5-0.5,0.8-1,1.1C76.9,104.5,76.4,104.7,75.6,104.7z M75.8,103.6c0.5,0,1-0.1,1.3-0.4c0.4-0.3,0.7-0.6,0.8-1
			c0.2-0.4,0.3-0.9,0.3-1.3l0,0h-2c-0.8,0-1.4,0.1-1.7,0.4s-0.5,0.6-0.5,1s0.2,0.8,0.5,1C74.9,103.4,75.3,103.6,75.8,103.6z"/>
		<path class="st1" d="M81.7,104.5v-7.9h1.2L83,98c0.3-0.5,0.6-0.9,1.1-1.2s1-0.4,1.6-0.4c0.9,0,1.7,0.3,2.2,0.9
			c0.6,0.6,0.8,1.5,0.8,2.6v4.6h-1.3V100c0-1.7-0.7-2.5-2.1-2.5c-0.7,0-1.2,0.2-1.7,0.7s-0.7,1.2-0.7,2.1v4.1L81.7,104.5L81.7,104.5
			z"/>
		<path class="st1" d="M89.7,95.6l-0.2-3.1h1.3l-0.2,3.1H89.7z"/>
		<path class="st1" d="M95.7,104.5c-0.7,0-1.3-0.2-1.7-0.5c-0.4-0.3-0.6-1-0.6-1.9v-4.4H92v-1.1h1.4l0.2-1.9h1.2v1.9h2.3v1.1h-2.3
			v4.4c0,0.5,0.1,0.8,0.3,1c0.2,0.2,0.6,0.3,1.1,0.3H97v1.2L95.7,104.5L95.7,104.5z"/>
		<path class="st1" d="M102.9,104.5v-7.9h1.2l0.1,1.1c0.3-0.4,0.6-0.8,1-1s0.9-0.3,1.4-0.3c0.6,0,1.2,0.1,1.6,0.4s0.8,0.6,1,1.2
			c0.3-0.5,0.7-0.9,1.1-1.1c0.5-0.3,1-0.4,1.6-0.4c1,0,1.7,0.3,2.3,0.9c0.6,0.6,0.9,1.5,0.9,2.6v4.6h-1.3v-4.5
			c0-0.8-0.2-1.4-0.5-1.9c-0.3-0.4-0.8-0.6-1.4-0.6s-1.2,0.2-1.6,0.7s-0.6,1.2-0.6,2.1v4.1h-1.3V100c0-0.8-0.2-1.4-0.5-1.9
			c-0.3-0.4-0.8-0.6-1.4-0.6s-1.2,0.2-1.6,0.7s-0.6,1.2-0.6,2.1v4.1L102.9,104.5L102.9,104.5z"/>
		<path class="st1" d="M119.9,104.7c-0.7,0-1.2-0.1-1.7-0.3c-0.4-0.2-0.8-0.5-1-0.9s-0.3-0.8-0.3-1.2c0-0.8,0.3-1.4,0.9-1.9
			s1.5-0.7,2.5-0.7h2.1v-0.1c0-0.7-0.2-1.2-0.5-1.6c-0.4-0.4-0.9-0.5-1.5-0.5c-0.5,0-1,0.1-1.3,0.4c-0.4,0.3-0.6,0.6-0.7,1.1h-1.3
			c0.1-0.6,0.2-1.1,0.6-1.5c0.3-0.4,0.8-0.7,1.3-0.9s1-0.3,1.6-0.3c1.1,0,1.9,0.3,2.5,0.9s0.8,1.4,0.8,2.4v4.9h-1.2l-0.1-1.4
			c-0.2,0.5-0.5,0.8-1,1.1C121.2,104.5,120.6,104.7,119.9,104.7z M120.1,103.6c0.5,0,1-0.1,1.3-0.4s0.6-0.6,0.8-1s0.3-0.9,0.3-1.3
			l0,0h-2c-0.8,0-1.3,0.1-1.7,0.4c-0.3,0.3-0.5,0.6-0.5,1s0.1,0.8,0.5,1C119.1,103.4,119.5,103.6,120.1,103.6z"/>
		<path class="st1" d="M125.9,104.5V93h1.3v6.9l3.2-3.3h1.6l-3.5,3.6l4,4.4h-1.7l-3.6-4.1v4.1h-1.3V104.5z"/>
		<path class="st1" d="M137,104.7c-0.8,0-1.4-0.2-2-0.5c-0.6-0.4-1.1-0.8-1.4-1.5c-0.3-0.6-0.5-1.3-0.5-2.2c0-0.8,0.2-1.6,0.5-2.2
			s0.8-1.1,1.4-1.5c0.6-0.3,1.3-0.5,2.1-0.5s1.4,0.2,2,0.5c0.6,0.4,1,0.8,1.3,1.4s0.4,1.2,0.4,1.8c0,0.1,0,0.2,0,0.4
			c0,0.1,0,0.2,0,0.4h-6.3c0,0.6,0.2,1.1,0.4,1.5s0.6,0.7,0.9,0.9c0.4,0.2,0.8,0.3,1.2,0.3c0.6,0,1-0.1,1.4-0.4s0.7-0.6,0.8-1h1.3
			c-0.2,0.7-0.6,1.3-1.2,1.8C138.7,104.4,137.9,104.7,137,104.7z M137,97.5c-0.6,0-1.2,0.2-1.7,0.6s-0.8,1-0.9,1.7h5
			c0-0.7-0.3-1.3-0.7-1.7C138.2,97.7,137.6,97.5,137,97.5z"/>
		<path class="st1" d="M147.6,94.8c-0.3,0-0.5-0.1-0.7-0.3s-0.3-0.4-0.3-0.7s0.1-0.5,0.3-0.6c0.2-0.2,0.4-0.3,0.7-0.3
			s0.5,0.1,0.7,0.3s0.3,0.4,0.3,0.6c0,0.3-0.1,0.5-0.3,0.7C148,94.7,147.8,94.8,147.6,94.8z M146.9,104.5v-7.9h1.3v7.9H146.9z"/>
		<path class="st1" d="M153.7,104.5c-0.7,0-1.3-0.2-1.7-0.5s-0.6-1-0.6-1.9v-4.4H150v-1.1h1.4l0.2-1.9h1.2v1.9h2.3v1.1h-2.3v4.4
			c0,0.5,0.1,0.8,0.3,1s0.6,0.3,1.1,0.3h0.8v1.2L153.7,104.5L153.7,104.5z"/>
		<path class="st1" d="M36,126.5c-0.7,0-1.3-0.2-1.7-0.5s-0.6-1-0.6-1.9v-4.4h-1.4v-1.1h1.4l0.2-1.9h1.2v1.9h2.3v1.1h-2.3v4.4
			c0,0.5,0.1,0.8,0.3,1s0.6,0.3,1.1,0.3h0.8v1.2L36,126.5L36,126.5z"/>
		<path class="st1" d="M39.1,126.5V115h1.3v4.9c0.3-0.5,0.7-0.9,1.1-1.1s1-0.4,1.6-0.4c0.9,0,1.7,0.3,2.2,0.9
			c0.6,0.6,0.8,1.5,0.8,2.6v4.6h-1.3V122c0-1.7-0.7-2.5-2-2.5c-0.7,0-1.3,0.2-1.7,0.7c-0.5,0.5-0.7,1.2-0.7,2.1v4.1L39.1,126.5
			L39.1,126.5z"/>
		<path class="st1" d="M48.2,126.5v-7.9h1.2l0.1,1.5c0.2-0.5,0.6-0.9,1.1-1.2s1.1-0.5,1.9-0.5v1.4h-0.4c-0.5,0-0.9,0.1-1.3,0.2
			c-0.4,0.2-0.7,0.5-0.9,0.8c-0.2,0.4-0.3,0.9-0.3,1.6v4h-1.4V126.5z"/>
		<path class="st1" d="M57.3,126.7c-0.8,0-1.4-0.2-2-0.5s-1.1-0.8-1.4-1.5c-0.3-0.6-0.5-1.4-0.5-2.2s0.2-1.6,0.5-2.2
			s0.8-1.1,1.4-1.4c0.6-0.3,1.3-0.5,2-0.5c0.8,0,1.4,0.2,2,0.5s1.1,0.8,1.4,1.4c0.3,0.6,0.5,1.4,0.5,2.2s-0.2,1.6-0.5,2.2
			s-0.8,1.1-1.4,1.5C58.8,126.5,58.1,126.7,57.3,126.7z M57.3,125.5c0.5,0,0.9-0.1,1.3-0.3s0.7-0.6,1-1c0.2-0.5,0.4-1,0.4-1.7
			s-0.1-1.2-0.4-1.7c-0.2-0.4-0.6-0.8-1-1s-0.8-0.3-1.3-0.3s-0.9,0.1-1.3,0.3s-0.7,0.6-1,1c-0.2,0.4-0.4,1-0.4,1.7s0.1,1.2,0.4,1.7
			s0.6,0.8,1,1C56.5,125.4,56.9,125.5,57.3,125.5z"/>
		<path class="st1" d="M66.1,126.7c-0.9,0-1.7-0.3-2.2-0.9c-0.5-0.6-0.8-1.4-0.8-2.6v-4.6h1.3v4.5c0,1.6,0.7,2.5,2,2.5
			c0.7,0,1.3-0.2,1.7-0.7s0.7-1.2,0.7-2.1v-4.2h1.3v7.9h-1.2l-0.1-1.4c-0.2,0.5-0.6,0.9-1.1,1.2C67.2,126.6,66.7,126.7,66.1,126.7z"
			/>
		<path class="st1" d="M75.5,124c-0.5,0-0.9-0.1-1.2-0.2l-0.8,0.8c0.1,0.1,0.3,0.2,0.4,0.2s0.4,0.1,0.8,0.2c0.3,0.1,0.8,0.1,1.4,0.2
			c1.1,0.1,1.8,0.3,2.3,0.7s0.7,1,0.7,1.6c0,0.5-0.1,0.9-0.4,1.3c-0.2,0.4-0.6,0.8-1.2,1c-0.5,0.3-1.2,0.4-2,0.4
			c-0.7,0-1.3-0.1-1.9-0.3c-0.5-0.2-1-0.5-1.3-0.9s-0.5-0.9-0.5-1.4c0-0.3,0.1-0.6,0.2-1c0.2-0.4,0.5-0.7,0.9-1
			c-0.2-0.1-0.4-0.2-0.6-0.3s-0.3-0.2-0.5-0.4v-0.3l1.4-1.3c-0.6-0.5-0.9-1.2-0.9-2.1c0-0.5,0.1-1,0.4-1.4c0.2-0.4,0.6-0.8,1.1-1
			s1-0.4,1.7-0.4c0.5,0,0.9,0.1,1.2,0.2h2.9v1l-1.5,0.1c0.3,0.4,0.5,1,0.5,1.5s-0.1,1-0.4,1.4c-0.2,0.4-0.6,0.8-1.1,1
			C76.7,123.9,76.1,124,75.5,124z M73.1,127.5c0,0.5,0.2,0.9,0.7,1.2s1,0.4,1.7,0.4s1.2-0.1,1.6-0.4s0.6-0.7,0.6-1.2
			c0-0.3-0.1-0.6-0.4-0.9s-0.8-0.4-1.5-0.4c-0.6,0-1.1-0.1-1.5-0.2c-0.4,0.2-0.7,0.5-0.9,0.8C73.2,127.1,73.1,127.3,73.1,127.5z
			 M75.5,122.9c0.6,0,1-0.1,1.3-0.4s0.5-0.7,0.5-1.3c0-0.5-0.2-1-0.5-1.3s-0.8-0.4-1.3-0.4c-0.6,0-1,0.1-1.4,0.4
			c-0.3,0.3-0.5,0.7-0.5,1.3c0,0.5,0.2,1,0.5,1.3S74.9,122.9,75.5,122.9z"/>
		<path class="st1" d="M81.2,126.5V115h1.3v4.9c0.3-0.5,0.6-0.9,1.1-1.1c0.5-0.3,1-0.4,1.6-0.4c0.9,0,1.7,0.3,2.2,0.9
			c0.6,0.6,0.8,1.5,0.8,2.6v4.6h-1.3V122c0-1.7-0.7-2.5-2-2.5c-0.7,0-1.3,0.2-1.7,0.7c-0.5,0.5-0.7,1.2-0.7,2.1v4.1L81.2,126.5
			L81.2,126.5z"/>
		<path class="st1" d="M97.7,126.5c-0.7,0-1.3-0.2-1.7-0.5c-0.4-0.3-0.6-1-0.6-1.9v-4.4H94v-1.1h1.4l0.2-1.9h1.2v1.9h2.3v1.1h-2.3
			v4.4c0,0.5,0.1,0.8,0.3,1c0.2,0.2,0.6,0.3,1.1,0.3H99v1.2L97.7,126.5L97.7,126.5z"/>
		<path class="st1" d="M100.8,126.5V115h1.3v4.9c0.3-0.5,0.7-0.9,1.1-1.1c0.5-0.3,1-0.4,1.6-0.4c0.9,0,1.7,0.3,2.2,0.9
			c0.6,0.6,0.8,1.5,0.8,2.6v4.6h-1.3V122c0-1.7-0.7-2.5-2-2.5c-0.7,0-1.3,0.2-1.7,0.7c-0.5,0.5-0.7,1.2-0.7,2.1v4.1L100.8,126.5
			L100.8,126.5z"/>
		<path class="st1" d="M113.5,126.7c-0.8,0-1.4-0.2-2-0.5c-0.6-0.4-1.1-0.8-1.4-1.5c-0.3-0.6-0.5-1.3-0.5-2.2c0-0.8,0.2-1.6,0.5-2.2
			s0.8-1.1,1.4-1.5c0.6-0.3,1.3-0.5,2.1-0.5s1.4,0.2,2,0.5c0.6,0.4,1,0.8,1.3,1.4s0.4,1.2,0.4,1.8c0,0.1,0,0.2,0,0.4
			c0,0.1,0,0.2,0,0.4H111c0,0.6,0.2,1.1,0.4,1.5s0.6,0.7,0.9,0.9c0.4,0.2,0.8,0.3,1.2,0.3c0.6,0,1-0.1,1.4-0.4s0.7-0.6,0.8-1h1.3
			c-0.2,0.7-0.6,1.3-1.2,1.8C115.2,126.4,114.4,126.7,113.5,126.7z M113.5,119.5c-0.6,0-1.2,0.2-1.7,0.6s-0.8,1-0.9,1.7h5
			c0-0.7-0.3-1.3-0.7-1.7C114.7,119.7,114.1,119.5,113.5,119.5z"/>
		<path class="st1" d="M126.8,126.7c-0.8,0-1.5-0.2-2.1-0.5s-1.1-0.9-1.4-1.5s-0.5-1.3-0.5-2.1s0.2-1.5,0.5-2.1s0.8-1.1,1.4-1.5
			s1.3-0.5,2.1-0.5c0.7,0,1.2,0.1,1.7,0.4s0.9,0.6,1.2,1.1v-4.9h1.3v11.5h-1.2l-0.1-1.3c-0.3,0.4-0.6,0.7-1.1,1
			S127.6,126.7,126.8,126.7z M127,125.5c0.5,0,1-0.1,1.4-0.4c0.4-0.2,0.7-0.6,1-1c0.2-0.5,0.3-1,0.3-1.6s-0.1-1.1-0.3-1.6
			c-0.2-0.4-0.6-0.8-1-1s-0.9-0.4-1.4-0.4s-1,0.1-1.4,0.4c-0.4,0.2-0.7,0.6-1,1c-0.2,0.5-0.3,1-0.3,1.6s0.1,1.1,0.3,1.6s0.6,0.8,1,1
			C126,125.4,126.5,125.5,127,125.5z"/>
		<path class="st1" d="M135.9,126.7c-0.7,0-1.2-0.1-1.7-0.3c-0.4-0.2-0.8-0.5-1-0.9s-0.3-0.8-0.3-1.2c0-0.8,0.3-1.4,0.9-1.9
			s1.5-0.7,2.5-0.7h2.1v-0.1c0-0.7-0.2-1.2-0.5-1.6c-0.4-0.4-0.9-0.5-1.5-0.5c-0.5,0-1,0.1-1.3,0.4c-0.4,0.3-0.6,0.6-0.7,1.1h-1.3
			c0.1-0.6,0.2-1.1,0.6-1.5c0.3-0.4,0.8-0.7,1.3-0.9s1-0.3,1.6-0.3c1.1,0,1.9,0.3,2.5,0.9s0.8,1.4,0.8,2.4v4.9h-1.2l-0.1-1.4
			c-0.2,0.5-0.5,0.8-1,1.1C137.2,126.5,136.7,126.7,135.9,126.7z M136.1,125.6c0.5,0,1-0.1,1.3-0.4s0.6-0.6,0.8-1s0.3-0.9,0.3-1.3
			l0,0h-2c-0.8,0-1.4,0.1-1.7,0.4s-0.5,0.6-0.5,1s0.1,0.8,0.5,1C135.2,125.4,135.6,125.6,136.1,125.6z"/>
		<path class="st1" d="M142.6,130l2-4.3h-0.5l-3.1-7.2h1.5l2.6,6.2l2.8-6.2h1.4l-5.2,11.5H142.6z"/>
		<path class="st1" d="M34.5,148.5l-2.4-7.9h1.3l1.7,6.2l1.9-6.2h1.5l1.9,6.2l1.7-6.2h1.4l-2.3,7.9h-1.4l-2-6.5l-2,6.5H34.5z"/>
		<path class="st1" d="M45.7,138.8c-0.3,0-0.5-0.1-0.7-0.3s-0.3-0.4-0.3-0.7s0.1-0.5,0.3-0.6c0.2-0.2,0.4-0.3,0.7-0.3
			s0.5,0.1,0.7,0.3s0.3,0.4,0.3,0.6c0,0.3-0.1,0.5-0.3,0.7S46,138.8,45.7,138.8z M45.1,148.5v-7.9h1.3v7.9H45.1z"/>
		<path class="st1" d="M51.9,148.5c-0.7,0-1.3-0.2-1.7-0.5s-0.6-1-0.6-1.9v-4.4h-1.4v-1.1h1.4l0.2-1.9H51v1.9h2.3v1.1H51v4.4
			c0,0.5,0.1,0.8,0.3,1s0.6,0.3,1.1,0.3h0.7v1.2L51.9,148.5L51.9,148.5z"/>
		<path class="st1" d="M54.9,148.5V137h1.3v4.9c0.3-0.5,0.7-0.9,1.1-1.1s1-0.4,1.6-0.4c0.9,0,1.7,0.3,2.2,0.9
			c0.6,0.6,0.8,1.5,0.8,2.6v4.6h-1.3V144c0-1.7-0.7-2.5-2-2.5c-0.7,0-1.3,0.2-1.7,0.7c-0.5,0.5-0.7,1.2-0.7,2.1v4.1L54.9,148.5
			L54.9,148.5z"/>
		<path class="st1" d="M67.7,148.7c-0.8,0-1.4-0.2-2-0.5s-1.1-0.8-1.4-1.5c-0.3-0.7-0.5-1.4-0.5-2.2s0.2-1.6,0.5-2.2
			c0.3-0.6,0.8-1.1,1.4-1.4s1.3-0.5,2-0.5s1.4,0.2,2,0.5s1.1,0.8,1.4,1.4s0.5,1.4,0.5,2.2s-0.2,1.6-0.5,2.2s-0.8,1.1-1.4,1.5
			C69.1,148.5,68.5,148.7,67.7,148.7z M67.7,147.5c0.5,0,0.9-0.1,1.3-0.3s0.7-0.6,1-1c0.2-0.5,0.4-1,0.4-1.7s-0.1-1.2-0.4-1.7
			c-0.2-0.5-0.6-0.8-0.9-1c-0.4-0.2-0.8-0.3-1.3-0.3s-0.9,0.1-1.3,0.3s-0.7,0.6-1,1c-0.2,0.4-0.4,1-0.4,1.7s0.1,1.2,0.4,1.7
			c0.2,0.4,0.6,0.8,0.9,1C66.9,147.4,67.3,147.5,67.7,147.5z"/>
		<path class="st1" d="M76.5,148.7c-0.9,0-1.7-0.3-2.2-0.9c-0.6-0.6-0.8-1.4-0.8-2.6v-4.6h1.3v4.5c0,1.6,0.7,2.5,2,2.5
			c0.7,0,1.3-0.2,1.7-0.7c0.5-0.5,0.7-1.2,0.7-2.1v-4.2h1.3v7.9h-1.2l-0.1-1.4c-0.2,0.5-0.6,0.9-1.1,1.2
			C77.6,148.6,77.1,148.7,76.5,148.7z"/>
		<path class="st1" d="M85.9,148.5c-0.7,0-1.3-0.2-1.7-0.5c-0.4-0.3-0.6-1-0.6-1.9v-4.4h-1.5v-1.1h1.4l0.2-1.9h1.2v1.9h2.3v1.1h-2.3
			v4.4c0,0.5,0.1,0.8,0.3,1s0.6,0.3,1.1,0.3h0.8v1.2L85.9,148.5L85.9,148.5z"/>
		<path class="st1" d="M95.8,148.7c-0.7,0-1.2-0.1-1.7-0.3c-0.4-0.2-0.8-0.5-1-0.9s-0.3-0.8-0.3-1.2c0-0.8,0.3-1.4,0.9-1.9
			c0.6-0.4,1.5-0.7,2.5-0.7h2.1v-0.1c0-0.7-0.2-1.2-0.5-1.6c-0.4-0.4-0.9-0.5-1.5-0.5c-0.5,0-1,0.1-1.3,0.4
			c-0.4,0.3-0.6,0.6-0.7,1.1h-1.4c0-0.6,0.2-1.1,0.6-1.5c0.3-0.4,0.8-0.7,1.3-0.9s1-0.3,1.6-0.3c1.1,0,1.9,0.3,2.5,0.9
			s0.8,1.4,0.8,2.4v4.9h-1.2l-0.1-1.4c-0.2,0.5-0.6,0.8-1,1.1C97.1,148.5,96.5,148.7,95.8,148.7z M96,147.6c0.5,0,0.9-0.1,1.3-0.4
			s0.7-0.6,0.8-1c0.2-0.4,0.3-0.9,0.3-1.3l0,0h-2c-0.8,0-1.3,0.1-1.7,0.4c-0.3,0.3-0.5,0.6-0.5,1s0.1,0.8,0.5,1
			C95,147.4,95.4,147.6,96,147.6z"/>
		<path class="st1" d="M106,148.5v-7.9h1.2l0.1,1.4c0.3-0.5,0.6-0.9,1.1-1.2s1-0.4,1.6-0.4c0.9,0,1.7,0.3,2.2,0.9s0.8,1.5,0.8,2.6
			v4.6h-1.3V144c0-1.7-0.7-2.5-2.1-2.5c-0.7,0-1.2,0.2-1.7,0.7c-0.4,0.5-0.7,1.2-0.7,2.1v4.1L106,148.5L106,148.5z"/>
		<path class="st1" d="M117.8,148.7c-0.7,0-1.2-0.1-1.7-0.3c-0.4-0.2-0.8-0.5-1-0.9s-0.3-0.8-0.3-1.2c0-0.8,0.3-1.4,0.9-1.9
			s1.5-0.7,2.5-0.7h2.1v-0.1c0-0.7-0.2-1.2-0.5-1.6c-0.4-0.4-0.9-0.5-1.5-0.5c-0.5,0-1,0.1-1.4,0.4s-0.6,0.6-0.7,1.1h-1.4
			c0.1-0.6,0.2-1.1,0.6-1.5c0.3-0.4,0.8-0.7,1.3-0.9s1-0.3,1.6-0.3c1.1,0,1.9,0.3,2.5,0.9s0.8,1.4,0.8,2.4v4.9h-1.2l-0.1-1.4
			c-0.2,0.5-0.6,0.8-1,1.1C119.1,148.5,118.6,148.7,117.8,148.7z M118,147.6c0.5,0,0.9-0.1,1.3-0.4s0.7-0.6,0.8-1
			c0.2-0.4,0.3-0.9,0.3-1.3l0,0h-2c-0.8,0-1.4,0.1-1.7,0.4c-0.3,0.3-0.5,0.6-0.5,1s0.2,0.8,0.5,1C117.1,147.4,117.5,147.6,118,147.6
			z"/>
		<path class="st1" d="M123.9,152v-11.4h1.2l0.1,1.3c0.3-0.4,0.6-0.7,1.1-1s1.1-0.5,1.8-0.5c0.8,0,1.5,0.2,2.1,0.5
			c0.6,0.4,1,0.9,1.4,1.5s0.5,1.3,0.5,2.1s-0.2,1.5-0.5,2.1s-0.8,1.1-1.4,1.5c-0.6,0.4-1.3,0.5-2.1,0.5c-0.6,0-1.2-0.1-1.7-0.4
			s-0.9-0.6-1.2-1.1v4.8h-1.3V152z M128,147.5c0.5,0,1-0.1,1.4-0.4c0.4-0.2,0.7-0.6,1-1s0.4-1,0.4-1.6s-0.1-1.1-0.4-1.6
			c-0.2-0.4-0.6-0.8-1-1s-0.9-0.4-1.4-0.4s-1,0.1-1.4,0.4s-0.7,0.6-1,1c-0.2,0.5-0.3,1-0.3,1.6s0.1,1.1,0.3,1.6s0.6,0.8,1,1
			C127,147.4,127.4,147.5,128,147.5z"/>
		<path class="st1" d="M132.8,150.4l0.9-3.5h1.4l-1.4,3.5H132.8z"/>
		<path class="st1" d="M32.9,170.5v-7.9h1.2l0.1,1.1c0.3-0.4,0.6-0.8,1-1s0.9-0.3,1.4-0.3c0.6,0,1.2,0.1,1.6,0.4
			c0.5,0.3,0.8,0.6,1,1.2c0.3-0.5,0.7-0.9,1.1-1.1c0.5-0.3,1-0.4,1.6-0.4c0.9,0,1.7,0.3,2.3,0.9s0.8,1.5,0.8,2.6v4.6h-1.3v-4.5
			c0-0.8-0.2-1.4-0.5-1.9c-0.3-0.4-0.8-0.6-1.4-0.6s-1.2,0.2-1.6,0.7c-0.4,0.5-0.6,1.2-0.6,2.1v4.1h-1.3V166c0-0.8-0.2-1.4-0.5-1.9
			c-0.3-0.4-0.8-0.6-1.4-0.6c-0.6,0-1.1,0.2-1.6,0.7c-0.4,0.5-0.6,1.2-0.6,2.1v4.1L32.9,170.5L32.9,170.5z"/>
		<path class="st1" d="M49.8,170.7c-0.7,0-1.2-0.1-1.7-0.3c-0.4-0.2-0.8-0.5-1-0.9s-0.3-0.8-0.3-1.2c0-0.8,0.3-1.4,0.9-1.9
			c0.6-0.4,1.5-0.7,2.5-0.7h2.1v-0.1c0-0.7-0.2-1.2-0.5-1.6c-0.4-0.4-0.8-0.5-1.5-0.5c-0.5,0-1,0.1-1.4,0.4s-0.6,0.6-0.7,1.1h-1.4
			c0.1-0.6,0.2-1.1,0.6-1.5c0.3-0.4,0.8-0.7,1.3-0.9s1-0.3,1.6-0.3c1.1,0,1.9,0.3,2.5,0.9s0.8,1.4,0.8,2.4v4.9h-1.2l-0.1-1.4
			c-0.2,0.5-0.6,0.8-1,1.1C51.1,170.5,50.5,170.7,49.8,170.7z M50,169.6c0.5,0,0.9-0.1,1.3-0.4s0.7-0.6,0.8-1
			c0.2-0.4,0.3-0.9,0.3-1.3l0,0h-2c-0.8,0-1.3,0.1-1.7,0.4s-0.5,0.6-0.5,1s0.1,0.8,0.5,1C49,169.4,49.5,169.6,50,169.6z"/>
		<path class="st1" d="M55.8,170.5V159h1.3v6.9l3.2-3.3h1.8l-3.5,3.6l4,4.4h-1.7l-3.6-4.1v4.1h-1.5V170.5z"/>
		<path class="st1" d="M66.9,170.7c-0.8,0-1.4-0.2-2-0.5c-0.6-0.4-1.1-0.8-1.4-1.5c-0.3-0.6-0.5-1.3-0.5-2.2c0-0.8,0.2-1.6,0.5-2.2
			s0.8-1.1,1.4-1.5c0.6-0.3,1.3-0.5,2.1-0.5c0.8,0,1.4,0.2,2,0.5c0.6,0.4,1,0.8,1.3,1.4s0.4,1.2,0.4,1.8c0,0.1,0,0.2,0,0.4
			c0,0.1,0,0.2,0,0.4h-6.3c0,0.6,0.2,1.1,0.4,1.5c0.2,0.4,0.6,0.7,0.9,0.9c0.4,0.2,0.8,0.3,1.2,0.3c0.6,0,1-0.1,1.4-0.4
			s0.7-0.6,0.8-1h1.3c-0.2,0.7-0.6,1.3-1.2,1.8C68.6,170.4,67.8,170.7,66.9,170.7z M66.9,163.5c-0.6,0-1.2,0.2-1.7,0.6
			s-0.8,1-0.9,1.7h5c0-0.7-0.3-1.3-0.7-1.7C68.1,163.7,67.6,163.5,66.9,163.5z"/>
		<path class="st1" d="M79.7,170.7c-0.9,0-1.7-0.2-2.4-0.7c-0.6-0.5-1-1.1-1.1-2h1.4c0.1,0.4,0.3,0.8,0.7,1.1s0.8,0.5,1.4,0.5
			s1-0.1,1.2-0.4c0.3-0.2,0.4-0.5,0.4-0.9c0-0.5-0.2-0.8-0.5-1s-0.8-0.3-1.5-0.4c-0.4-0.1-0.9-0.2-1.3-0.4s-0.8-0.4-1.1-0.7
			c-0.3-0.3-0.4-0.7-0.4-1.2c0-0.7,0.3-1.3,0.8-1.7s1.2-0.7,2.1-0.7c0.8,0,1.5,0.2,2.1,0.6c0.5,0.4,0.8,1,0.9,1.8h-1.3
			c-0.1-0.4-0.2-0.7-0.5-1s-0.7-0.3-1.2-0.3s-0.8,0.1-1.1,0.3c-0.3,0.2-0.4,0.5-0.4,0.8s0.2,0.6,0.5,0.8s0.8,0.3,1.4,0.5
			c0.5,0.1,1,0.2,1.4,0.4s0.8,0.4,1.1,0.7c0.3,0.3,0.4,0.7,0.4,1.3c0,0.7-0.3,1.3-0.8,1.8C81.4,170.5,80.7,170.7,79.7,170.7z"/>
		<path class="st1" d="M87.6,170.7c-0.9,0-1.7-0.3-2.2-0.9c-0.6-0.6-0.8-1.4-0.8-2.6v-4.6h1.3v4.5c0,1.6,0.7,2.5,2,2.5
			c0.7,0,1.3-0.2,1.7-0.7c0.5-0.5,0.7-1.2,0.7-2.1v-4.2h1.3v7.9h-1.2l-0.1-1.4c-0.2,0.5-0.6,0.9-1.1,1.2
			C88.7,170.6,88.2,170.7,87.6,170.7z"/>
		<path class="st1" d="M93.8,170.5v-7.9H95l0.1,1.5c0.2-0.5,0.6-0.9,1.1-1.2s1.1-0.5,1.9-0.5v1.4h-0.4c-0.5,0-0.9,0.1-1.3,0.2
			c-0.4,0.2-0.7,0.5-0.9,0.8c-0.2,0.4-0.3,0.9-0.3,1.6v4h-1.4L93.8,170.5L93.8,170.5z"/>
		<path class="st1" d="M102.9,170.7c-0.8,0-1.4-0.2-2-0.5c-0.6-0.4-1-0.8-1.4-1.5c-0.3-0.6-0.5-1.3-0.5-2.2c0-0.8,0.2-1.6,0.5-2.2
			s0.8-1.1,1.4-1.5c0.6-0.3,1.3-0.5,2.1-0.5c0.8,0,1.4,0.2,2,0.5c0.6,0.4,1,0.8,1.3,1.4s0.4,1.2,0.4,1.8c0,0.1,0,0.2,0,0.4
			c0,0.1,0,0.2,0,0.4h-6.3c0,0.6,0.2,1.1,0.4,1.5c0.2,0.4,0.6,0.7,0.9,0.9c0.4,0.2,0.8,0.3,1.2,0.3c0.5,0,1-0.1,1.4-0.4
			s0.7-0.6,0.8-1h1.3c-0.2,0.7-0.6,1.3-1.2,1.8S103.8,170.7,102.9,170.7z M102.9,163.5c-0.6,0-1.2,0.2-1.7,0.6s-0.8,1-0.9,1.7h5
			c0-0.7-0.3-1.3-0.7-1.7C104.1,163.7,103.6,163.5,102.9,163.5z"/>
		<path class="st1" d="M113.5,160.8c-0.3,0-0.5-0.1-0.7-0.3s-0.3-0.4-0.3-0.7s0.1-0.5,0.3-0.6c0.2-0.2,0.4-0.3,0.7-0.3
			s0.5,0.1,0.7,0.3s0.3,0.4,0.3,0.6c0,0.3-0.1,0.5-0.3,0.7C114,160.7,113.7,160.8,113.5,160.8z M112.8,170.5v-7.9h1.3v7.9H112.8z"/>
		<path class="st1" d="M119.6,170.5c-0.7,0-1.3-0.2-1.7-0.5s-0.6-1-0.6-1.9v-4.4h-1.4v-1.1h1.4l0.2-1.9h1.2v1.9h2.3v1.1h-2.3v4.4
			c0,0.5,0.1,0.8,0.3,1s0.6,0.3,1.1,0.3h0.8v1.2L119.6,170.5L119.6,170.5z"/>
		<path class="st1" d="M127.7,160.8c-0.3,0-0.5-0.1-0.7-0.3s-0.3-0.4-0.3-0.7s0.1-0.5,0.3-0.6c0.2-0.2,0.4-0.3,0.7-0.3
			s0.5,0.1,0.7,0.3s0.3,0.4,0.3,0.6c0,0.3-0.1,0.5-0.3,0.7S128,160.8,127.7,160.8z M127.1,170.5v-7.9h1.3v7.9H127.1z"/>
		<path class="st1" d="M133.8,170.7c-0.9,0-1.7-0.2-2.4-0.7c-0.6-0.5-1-1.1-1.1-2h1.4c0.1,0.4,0.3,0.8,0.7,1.1s0.8,0.5,1.5,0.5
			c0.6,0,1-0.1,1.2-0.4c0.3-0.2,0.4-0.5,0.4-0.9c0-0.5-0.2-0.8-0.5-1s-0.8-0.3-1.5-0.4c-0.4-0.1-0.9-0.2-1.3-0.4
			c-0.4-0.2-0.8-0.4-1.1-0.7s-0.4-0.7-0.4-1.2c0-0.7,0.3-1.3,0.8-1.7s1.2-0.7,2.1-0.7c0.8,0,1.5,0.2,2.1,0.6c0.5,0.4,0.8,1,0.9,1.8
			h-1.3c-0.1-0.4-0.2-0.7-0.5-1s-0.7-0.3-1.2-0.3s-0.9,0.1-1.1,0.3c-0.3,0.2-0.4,0.5-0.4,0.8s0.2,0.6,0.5,0.8s0.8,0.3,1.4,0.5
			c0.5,0.1,1,0.2,1.4,0.4s0.8,0.4,1.1,0.7s0.4,0.7,0.4,1.3c0,0.7-0.3,1.3-0.8,1.8C135.5,170.5,134.7,170.7,133.8,170.7z"/>
		<path class="st1" d="M143.4,170.5v-6.8h-1.2v-1.1h1.2v-1.4c0-0.8,0.2-1.3,0.6-1.7c0.4-0.4,0.9-0.5,1.7-0.5h0.8v1.2h-0.6
			c-0.4,0-0.7,0.1-0.9,0.2c-0.2,0.2-0.3,0.4-0.3,0.8v1.3h1.9v1.1h-1.9v6.8L143.4,170.5L143.4,170.5z"/>
		<path class="st1" d="M151.6,170.7c-0.8,0-1.4-0.2-2-0.5s-1.1-0.8-1.4-1.5c-0.4-0.6-0.5-1.4-0.5-2.2s0.2-1.6,0.5-2.2
			s0.8-1.1,1.4-1.4c0.6-0.3,1.3-0.5,2-0.5c0.8,0,1.4,0.2,2,0.5s1.1,0.8,1.4,1.4c0.4,0.6,0.5,1.4,0.5,2.2s-0.2,1.6-0.5,2.2
			c-0.4,0.6-0.8,1.1-1.4,1.5C153,170.5,152.4,170.7,151.6,170.7z M151.6,169.5c0.5,0,0.9-0.1,1.3-0.3c0.4-0.2,0.7-0.6,1-1
			c0.2-0.5,0.4-1,0.4-1.7s-0.1-1.2-0.4-1.7c-0.2-0.4-0.6-0.8-0.9-1s-0.8-0.3-1.3-0.3s-0.9,0.1-1.3,0.3s-0.7,0.6-1,1
			c-0.2,0.4-0.4,1-0.4,1.7s0.1,1.2,0.4,1.7s0.6,0.8,0.9,1C150.7,169.4,151.2,169.5,151.6,169.5z"/>
		<path class="st1" d="M157.5,170.5v-7.9h1.2l0.1,1.5c0.2-0.5,0.6-0.9,1.1-1.2s1.1-0.5,1.9-0.5v1.4h-0.4c-0.5,0-0.9,0.1-1.3,0.2
			c-0.4,0.2-0.7,0.5-0.9,0.8c-0.2,0.4-0.4,0.9-0.4,1.6v4h-1.3L157.5,170.5L157.5,170.5z"/>
		<path class="st1" d="M32.9,192.5V181h1.3v11.5H32.9z"/>
		<path class="st1" d="M40,192.7c-0.8,0-1.4-0.2-2-0.5c-0.6-0.4-1-0.8-1.4-1.5c-0.3-0.6-0.5-1.3-0.5-2.2c0-0.8,0.2-1.6,0.5-2.2
			s0.8-1.1,1.4-1.5c0.6-0.3,1.3-0.5,2.1-0.5s1.4,0.2,2,0.5c0.6,0.4,1,0.8,1.3,1.4s0.5,1.2,0.5,1.8c0,0.1,0,0.2,0,0.4s0,0.2,0,0.4
			h-6.3c0,0.6,0.2,1.1,0.4,1.5s0.6,0.7,0.9,0.9c0.4,0.2,0.8,0.3,1.2,0.3c0.5,0,1-0.1,1.4-0.4s0.7-0.6,0.8-1h1.3
			c-0.2,0.7-0.6,1.3-1.2,1.8C41.7,192.4,40.9,192.7,40,192.7z M40,185.5c-0.6,0-1.2,0.2-1.7,0.6s-0.8,1-0.9,1.7h5
			c0-0.7-0.3-1.3-0.7-1.7C41.2,185.7,40.6,185.5,40,185.5z"/>
		<path class="st1" d="M48.6,192.7c-0.9,0-1.7-0.2-2.4-0.7c-0.6-0.5-1-1.1-1.1-2h1.4c0.1,0.4,0.3,0.8,0.7,1.1s0.8,0.5,1.5,0.5
			c0.6,0,1-0.1,1.2-0.4c0.3-0.2,0.4-0.5,0.4-0.9c0-0.5-0.2-0.8-0.5-1s-0.8-0.3-1.5-0.4c-0.4-0.1-0.9-0.2-1.3-0.4s-0.8-0.4-1.1-0.7
			c-0.3-0.3-0.4-0.7-0.4-1.2c0-0.7,0.3-1.3,0.8-1.7s1.2-0.7,2.1-0.7c0.8,0,1.5,0.2,2.1,0.6c0.5,0.4,0.8,1,0.9,1.8h-1.3
			c-0.1-0.4-0.2-0.7-0.5-1c-0.3-0.2-0.7-0.3-1.2-0.3s-0.9,0.1-1.1,0.3c-0.3,0.2-0.4,0.5-0.4,0.8s0.2,0.6,0.5,0.8s0.8,0.3,1.4,0.5
			c0.5,0.1,1,0.2,1.4,0.4s0.8,0.4,1.1,0.7c0.3,0.3,0.4,0.7,0.4,1.3c0,0.7-0.3,1.3-0.8,1.8C50.2,192.5,49.5,192.7,48.6,192.7z"/>
		<path class="st1" d="M56.6,192.7c-0.9,0-1.7-0.2-2.4-0.7c-0.6-0.5-1-1.1-1.1-2h1.4c0.1,0.4,0.3,0.8,0.7,1.1s0.8,0.5,1.5,0.5
			c0.6,0,1-0.1,1.2-0.4c0.3-0.2,0.4-0.5,0.4-0.9c0-0.5-0.2-0.8-0.5-1s-0.8-0.3-1.5-0.4c-0.4-0.1-0.9-0.2-1.3-0.4s-0.8-0.4-1.1-0.7
			c-0.3-0.3-0.4-0.7-0.4-1.2c0-0.7,0.3-1.3,0.8-1.7s1.2-0.7,2.1-0.7c0.8,0,1.5,0.2,2.1,0.6c0.5,0.4,0.8,1,0.9,1.8h-1.3
			c-0.1-0.4-0.2-0.7-0.5-1c-0.3-0.2-0.7-0.3-1.2-0.3s-0.9,0.1-1.1,0.3c-0.3,0.2-0.4,0.5-0.4,0.8s0.2,0.6,0.5,0.8s0.8,0.3,1.4,0.5
			c0.5,0.1,1,0.2,1.4,0.4s0.8,0.4,1.1,0.7c0.3,0.3,0.4,0.7,0.4,1.3c0,0.7-0.3,1.3-0.8,1.8C58.2,192.5,57.5,192.7,56.6,192.7z"/>
		<path class="st1" d="M68.9,192.5c-0.7,0-1.3-0.2-1.7-0.5c-0.4-0.3-0.6-1-0.6-1.9v-4.4h-1.4v-1.1h1.4l0.2-1.9H68v1.9h2.3v1.1H68
			v4.4c0,0.5,0.1,0.8,0.3,1c0.2,0.2,0.6,0.3,1.1,0.3h0.7v1.2L68.9,192.5L68.9,192.5z"/>
		<path class="st1" d="M71.9,192.5V181h1.3v4.9c0.3-0.5,0.6-0.9,1.1-1.1c0.5-0.3,1-0.4,1.6-0.4c0.9,0,1.7,0.3,2.2,0.9
			c0.6,0.6,0.8,1.5,0.8,2.6v4.6h-1.3V188c0-1.7-0.7-2.5-2-2.5c-0.7,0-1.3,0.2-1.7,0.7c-0.5,0.5-0.7,1.2-0.7,2.1v4.1L71.9,192.5
			L71.9,192.5z"/>
		<path class="st1" d="M83.7,192.7c-0.7,0-1.2-0.1-1.7-0.3c-0.4-0.2-0.8-0.5-1-0.9c-0.2-0.4-0.3-0.8-0.3-1.2c0-0.8,0.3-1.4,0.9-1.9
			c0.6-0.4,1.5-0.7,2.5-0.7h2.1v-0.1c0-0.7-0.2-1.2-0.5-1.6c-0.4-0.4-0.8-0.5-1.5-0.5c-0.5,0-1,0.1-1.3,0.4
			c-0.4,0.3-0.6,0.6-0.7,1.1h-1.4c0.1-0.6,0.2-1.1,0.6-1.5c0.3-0.4,0.8-0.7,1.3-0.9s1-0.3,1.6-0.3c1.1,0,1.9,0.3,2.5,0.9
			s0.8,1.4,0.8,2.4v4.9h-1.2l-0.1-1.4c-0.2,0.5-0.5,0.8-1,1.1C85,192.5,84.5,192.7,83.7,192.7z M83.9,191.6c0.5,0,1-0.1,1.3-0.4
			c0.4-0.3,0.7-0.6,0.8-1c0.2-0.4,0.3-0.9,0.3-1.3l0,0h-2c-0.8,0-1.3,0.1-1.7,0.4c-0.3,0.3-0.5,0.6-0.5,1s0.2,0.8,0.5,1
			C83,191.4,83.4,191.6,83.9,191.6z"/>
		<path class="st1" d="M89.8,192.5v-7.9H91l0.1,1.4c0.3-0.5,0.6-0.9,1.1-1.2s1-0.4,1.6-0.4c0.9,0,1.7,0.3,2.2,0.9
			c0.6,0.6,0.8,1.5,0.8,2.6v4.6h-1.3V188c0-1.7-0.7-2.5-2.1-2.5c-0.7,0-1.2,0.2-1.7,0.7s-0.7,1.2-0.7,2.1v4.1L89.8,192.5L89.8,192.5
			z"/>
		<path class="st1" d="M105.8,192.7c-0.7,0-1.2-0.1-1.7-0.3c-0.4-0.2-0.8-0.5-1-0.9c-0.2-0.4-0.3-0.8-0.3-1.2c0-0.8,0.3-1.4,0.9-1.9
			c0.6-0.4,1.5-0.7,2.5-0.7h2.1v-0.1c0-0.7-0.2-1.2-0.5-1.6c-0.4-0.4-0.9-0.5-1.5-0.5c-0.5,0-1,0.1-1.3,0.4s-0.6,0.6-0.7,1.1h-1.4
			c0-0.6,0.2-1.1,0.6-1.5c0.3-0.4,0.8-0.7,1.3-0.9s1-0.3,1.6-0.3c1.1,0,1.9,0.3,2.5,0.9s0.8,1.4,0.8,2.4v4.9h-1.2l-0.1-1.4
			c-0.2,0.5-0.5,0.8-1,1.1C107.1,192.5,106.5,192.7,105.8,192.7z M106,191.6c0.5,0,1-0.1,1.3-0.4s0.6-0.6,0.8-1s0.3-0.9,0.3-1.3l0,0
			h-2c-0.8,0-1.4,0.1-1.7,0.4s-0.5,0.6-0.5,1s0.1,0.8,0.5,1C105,191.4,105.4,191.6,106,191.6z"/>
		<path class="st1" d="M111.8,192.5v-7.9h1.2l0.1,1.4c0.3-0.5,0.6-0.9,1.1-1.2s1-0.4,1.6-0.4c0.9,0,1.7,0.3,2.2,0.9s0.8,1.5,0.8,2.6
			v4.6h-1.3V188c0-1.7-0.7-2.5-2.1-2.5c-0.7,0-1.2,0.2-1.7,0.7c-0.4,0.5-0.7,1.2-0.7,2.1v4.1L111.8,192.5L111.8,192.5z"/>
		<path class="st1" d="M125.2,192.5V181h1.3v4.9c0.3-0.5,0.6-0.9,1.1-1.1s1-0.4,1.6-0.4c0.9,0,1.7,0.3,2.2,0.9
			c0.6,0.6,0.8,1.5,0.8,2.6v4.6h-1.3V188c0-1.7-0.7-2.5-2-2.5c-0.7,0-1.3,0.2-1.7,0.7c-0.5,0.5-0.7,1.2-0.7,2.1v4.1L125.2,192.5
			L125.2,192.5z"/>
		<path class="st1" d="M138,192.7c-0.8,0-1.4-0.2-2-0.5s-1.1-0.8-1.4-1.5c-0.3-0.6-0.5-1.4-0.5-2.2s0.2-1.6,0.5-2.2
			c0.4-0.6,0.8-1.1,1.4-1.4c0.6-0.3,1.3-0.5,2-0.5c0.8,0,1.4,0.2,2,0.5s1.1,0.8,1.4,1.4c0.3,0.6,0.5,1.4,0.5,2.2s-0.2,1.6-0.5,2.2
			s-0.8,1.1-1.4,1.5C139.4,192.5,138.7,192.7,138,192.7z M138,191.5c0.5,0,0.9-0.1,1.3-0.3c0.4-0.2,0.7-0.6,1-1
			c0.2-0.5,0.4-1,0.4-1.7s-0.1-1.2-0.4-1.7s-0.6-0.8-0.9-1s-0.8-0.3-1.3-0.3s-0.9,0.1-1.3,0.3s-0.7,0.6-1,1c-0.2,0.4-0.4,1-0.4,1.7
			s0.1,1.2,0.4,1.7s0.6,0.8,0.9,1C137.1,191.4,137.5,191.5,138,191.5z"/>
		<path class="st1" d="M146.7,192.7c-0.9,0-1.7-0.3-2.2-0.9c-0.6-0.6-0.8-1.4-0.8-2.6v-4.6h1.3v4.5c0,1.6,0.7,2.5,2,2.5
			c0.7,0,1.3-0.2,1.7-0.7s0.7-1.2,0.7-2.1v-4.2h1.3v7.9h-1.2l-0.1-1.4c-0.2,0.5-0.6,0.9-1.1,1.2
			C147.9,192.6,147.3,192.7,146.7,192.7z"/>
		<path class="st1" d="M153,192.5v-7.9h1.2l0.1,1.5c0.2-0.5,0.6-0.9,1.1-1.2s1.1-0.5,1.9-0.5v1.4h-0.4c-0.5,0-0.9,0.1-1.3,0.2
			c-0.4,0.2-0.7,0.5-0.9,0.8c-0.2,0.4-0.4,0.9-0.4,1.6v4L153,192.5L153,192.5L153,192.5z"/>
		<path class="st1" d="M35.5,214.7c-0.7,0-1.2-0.1-1.7-0.3c-0.4-0.2-0.8-0.5-1-0.9s-0.3-0.8-0.3-1.2c0-0.8,0.3-1.4,0.9-1.9
			s1.5-0.7,2.5-0.7H38v-0.1c0-0.7-0.2-1.2-0.5-1.6c-0.4-0.4-0.9-0.5-1.5-0.5c-0.5,0-1,0.1-1.3,0.4s-0.6,0.6-0.7,1.1h-1.4
			c0-0.6,0.2-1.1,0.6-1.5c0.3-0.4,0.8-0.7,1.3-0.9s1-0.3,1.6-0.3c1.1,0,1.9,0.3,2.5,0.9c0.6,0.6,0.8,1.4,0.8,2.4v4.9h-1.2l-0.1-1.4
			c-0.2,0.5-0.5,0.8-1,1.1C36.8,214.5,36.2,214.7,35.5,214.7z M35.7,213.6c0.5,0,1-0.1,1.3-0.4s0.7-0.6,0.8-1s0.3-0.9,0.3-1.3l0,0
			h-2c-0.8,0-1.4,0.1-1.7,0.4c-0.3,0.3-0.5,0.6-0.5,1s0.2,0.8,0.5,1C34.7,213.4,35.2,213.6,35.7,213.6z"/>
		<path class="st1" d="M41.5,214.5v-7.9h1.2l0.1,1.4c0.3-0.5,0.6-0.9,1.1-1.2s1-0.4,1.6-0.4c0.9,0,1.7,0.3,2.2,0.9
			c0.6,0.6,0.8,1.5,0.8,2.6v4.6h-1.3V210c0-1.7-0.7-2.5-2-2.5c-0.7,0-1.2,0.2-1.7,0.7c-0.4,0.5-0.7,1.2-0.7,2.1v4.1L41.5,214.5
			L41.5,214.5z"/>
		<path class="st1" d="M54.3,214.7c-0.8,0-1.5-0.2-2.1-0.5c-0.6-0.4-1-0.9-1.4-1.5s-0.5-1.3-0.5-2.1s0.2-1.5,0.5-2.1
			s0.8-1.1,1.4-1.5s1.3-0.5,2.1-0.5c0.6,0,1.2,0.1,1.7,0.4c0.5,0.3,0.9,0.6,1.2,1.1v-4.9h1.3v11.5h-1.2l-0.1-1.3
			c-0.3,0.4-0.6,0.7-1.1,1C55.6,214.5,55,214.7,54.3,214.7z M54.4,213.5c0.5,0,1-0.1,1.4-0.4c0.4-0.2,0.7-0.6,1-1
			c0.2-0.5,0.3-1,0.3-1.6s-0.1-1.1-0.3-1.6c-0.2-0.4-0.6-0.8-1-1s-0.9-0.4-1.4-0.4s-1,0.1-1.4,0.4c-0.4,0.2-0.7,0.6-1,1
			c-0.2,0.5-0.3,1-0.3,1.6s0.1,1.1,0.3,1.6s0.6,0.8,1,1C53.4,213.4,53.9,213.5,54.4,213.5z"/>
		<path class="st1" d="M69.2,214.7c-0.7,0-1.2-0.1-1.7-0.4s-0.9-0.6-1.2-1.1l-0.1,1.3H65V203h1.3v4.9c0.3-0.4,0.6-0.7,1.1-1
			s1.1-0.5,1.8-0.5c0.8,0,1.5,0.2,2.1,0.5c0.6,0.4,1,0.9,1.4,1.5s0.5,1.3,0.5,2.1s-0.2,1.5-0.5,2.1s-0.8,1.1-1.4,1.5
			C70.7,214.5,70,214.7,69.2,214.7z M69,213.5c0.5,0,1-0.1,1.4-0.4c0.4-0.2,0.7-0.6,1-1s0.3-1,0.3-1.6s-0.1-1.1-0.3-1.6
			c-0.2-0.4-0.6-0.8-1-1s-0.9-0.4-1.4-0.4s-1,0.1-1.4,0.4c-0.4,0.2-0.7,0.6-1,1c-0.2,0.5-0.3,1-0.3,1.6s0.1,1.1,0.3,1.6
			c0.2,0.5,0.5,0.8,1,1C68,213.4,68.5,213.5,69,213.5z"/>
		<path class="st1" d="M78.6,214.7c-0.8,0-1.4-0.2-2-0.5c-0.6-0.4-1.1-0.8-1.4-1.5c-0.3-0.6-0.5-1.3-0.5-2.2c0-0.8,0.2-1.6,0.5-2.2
			s0.8-1.1,1.4-1.5c0.6-0.3,1.3-0.5,2.1-0.5c0.8,0,1.4,0.2,2,0.5c0.6,0.4,1,0.8,1.3,1.4c0.3,0.6,0.4,1.2,0.4,1.8c0,0.1,0,0.2,0,0.4
			c0,0.1,0,0.2,0,0.4h-6.3c0,0.6,0.2,1.1,0.4,1.5c0.2,0.4,0.6,0.7,0.9,0.9c0.4,0.2,0.8,0.3,1.2,0.3c0.5,0,1-0.1,1.4-0.4
			c0.4-0.3,0.7-0.6,0.8-1h1.3c-0.2,0.7-0.6,1.3-1.2,1.8C80.3,214.4,79.5,214.7,78.6,214.7z M78.6,207.5c-0.6,0-1.2,0.2-1.7,0.6
			c-0.5,0.4-0.8,1-0.9,1.7h5c0-0.7-0.3-1.3-0.7-1.7C79.8,207.7,79.3,207.5,78.6,207.5z"/>
		<path class="st1" d="M84.5,214.5v-6.8h-1.2v-1.1h1.2v-1.4c0-0.8,0.2-1.3,0.6-1.7s0.9-0.5,1.7-0.5h0.8v1.2H87
			c-0.4,0-0.7,0.1-0.9,0.2c-0.2,0.2-0.3,0.4-0.3,0.8v1.3h1.9v1.1h-1.9v6.8L84.5,214.5L84.5,214.5z"/>
		<path class="st1" d="M92.7,214.7c-0.8,0-1.4-0.2-2-0.5s-1.1-0.8-1.4-1.5c-0.4-0.6-0.5-1.4-0.5-2.2s0.2-1.6,0.5-2.2
			c0.4-0.6,0.8-1.1,1.4-1.4c0.6-0.3,1.3-0.5,2-0.5s1.4,0.2,2,0.5s1.1,0.8,1.4,1.4c0.4,0.6,0.5,1.4,0.5,2.2s-0.2,1.6-0.5,2.2
			s-0.8,1.1-1.4,1.5C94.2,214.5,93.5,214.7,92.7,214.7z M92.7,213.5c0.5,0,0.9-0.1,1.3-0.3s0.7-0.6,1-1c0.2-0.5,0.4-1,0.4-1.7
			s-0.1-1.2-0.4-1.7c-0.2-0.5-0.6-0.8-0.9-1c-0.4-0.2-0.8-0.3-1.3-0.3s-0.9,0.1-1.3,0.3s-0.7,0.6-1,1c-0.2,0.4-0.4,1-0.4,1.7
			s0.1,1.2,0.4,1.7c0.2,0.4,0.6,0.8,0.9,1C91.9,213.4,92.3,213.5,92.7,213.5z"/>
		<path class="st1" d="M98.6,214.5v-7.9h1.2l0.1,1.5c0.2-0.5,0.6-0.9,1.1-1.2s1.1-0.5,1.9-0.5v1.4h-0.4c-0.5,0-0.9,0.1-1.3,0.2
			c-0.4,0.2-0.7,0.5-0.9,0.8c-0.2,0.4-0.4,0.9-0.4,1.6v4h-1.3L98.6,214.5L98.6,214.5z"/>
		<path class="st1" d="M107.7,214.7c-0.8,0-1.4-0.2-2-0.5c-0.6-0.4-1-0.8-1.4-1.5c-0.3-0.6-0.5-1.3-0.5-2.2c0-0.8,0.2-1.6,0.5-2.2
			c0.3-0.6,0.8-1.1,1.4-1.5c0.6-0.3,1.3-0.5,2.1-0.5s1.4,0.2,2,0.5c0.6,0.4,1,0.8,1.3,1.4c0.3,0.6,0.4,1.2,0.4,1.8
			c0,0.1,0,0.2,0,0.4c0,0.1,0,0.2,0,0.4h-6.4c0,0.6,0.2,1.1,0.4,1.5s0.6,0.7,0.9,0.9c0.4,0.2,0.8,0.3,1.2,0.3c0.6,0,1-0.1,1.4-0.4
			c0.4-0.3,0.7-0.6,0.8-1h1.3c-0.2,0.7-0.6,1.3-1.2,1.8C109.4,214.4,108.6,214.7,107.7,214.7z M107.7,207.5c-0.6,0-1.2,0.2-1.7,0.6
			c-0.5,0.4-0.8,1-0.9,1.7h5c0-0.7-0.3-1.3-0.7-1.7C108.9,207.7,108.3,207.5,107.7,207.5z"/>
		<path class="st1" d="M121,214.7c-0.7,0-1.4-0.1-1.9-0.4c-0.6-0.3-1-0.7-1.4-1.2s-0.5-1.2-0.6-2h1.4c0,0.6,0.2,1.2,0.7,1.7
			c0.4,0.5,1.1,0.7,1.8,0.7c0.8,0,1.4-0.2,1.8-0.7c0.4-0.4,0.6-1,0.6-1.6c0-0.5-0.1-1-0.4-1.3c-0.2-0.3-0.6-0.6-1-0.7
			c-0.4-0.2-0.9-0.2-1.4-0.2h-0.8v-1.1h0.8c0.7,0,1.3-0.2,1.7-0.5s0.6-0.8,0.6-1.4c0-0.5-0.2-0.9-0.5-1.2s-0.8-0.5-1.4-0.5
			s-1.1,0.2-1.5,0.5c-0.4,0.4-0.6,0.8-0.6,1.4h-1.4c0-0.6,0.2-1.1,0.5-1.6s0.7-0.8,1.2-1.1s1.1-0.4,1.8-0.4s1.3,0.1,1.8,0.4
			c0.5,0.3,0.9,0.6,1.1,1s0.4,0.9,0.4,1.4c0,0.6-0.1,1.1-0.5,1.5c-0.3,0.5-0.8,0.8-1.4,0.9c0.7,0.1,1.2,0.4,1.6,0.9s0.7,1.1,0.7,1.9
			c0,0.6-0.1,1.2-0.4,1.7s-0.7,0.9-1.3,1.2C122.5,214.5,121.8,214.7,121,214.7z"/>
		<path class="st1" d="M126.8,218v-11.4h1.2l0.1,1.3c0.3-0.4,0.6-0.7,1.1-1s1.1-0.5,1.8-0.5c0.8,0,1.5,0.2,2.1,0.5
			c0.6,0.4,1,0.9,1.4,1.5s0.5,1.3,0.5,2.1s-0.2,1.5-0.5,2.1s-0.8,1.1-1.4,1.5c-0.6,0.4-1.3,0.5-2.1,0.5c-0.7,0-1.2-0.1-1.7-0.4
			s-0.9-0.6-1.2-1.1v4.8h-1.3L126.8,218L126.8,218z M130.9,213.5c0.5,0,1-0.1,1.4-0.4s0.7-0.6,1-1c0.2-0.5,0.3-1,0.3-1.6
			s-0.1-1.1-0.3-1.6c-0.2-0.4-0.6-0.8-1-1s-0.9-0.4-1.4-0.4s-1,0.1-1.4,0.4c-0.4,0.2-0.7,0.6-1,1c-0.2,0.5-0.4,1-0.4,1.6
			s0.1,1.1,0.4,1.6s0.6,0.8,1,1C129.9,213.4,130.4,213.5,130.9,213.5z"/>
		<path class="st1" d="M136.9,214.5v-7.9h1.2l0.1,1.1c0.3-0.4,0.6-0.8,1-1s0.9-0.3,1.4-0.3c0.6,0,1.2,0.1,1.6,0.4
			c0.4,0.3,0.8,0.6,1.1,1.2c0.3-0.5,0.7-0.9,1.1-1.1c0.5-0.3,1-0.4,1.6-0.4c0.9,0,1.7,0.3,2.3,0.9c0.6,0.6,0.9,1.5,0.9,2.6v4.6h-1.3
			v-4.5c0-0.8-0.2-1.4-0.5-1.9c-0.3-0.4-0.8-0.6-1.4-0.6c-0.6,0-1.2,0.2-1.6,0.7c-0.4,0.5-0.6,1.2-0.6,2.1v4.1h-1.3V210
			c0-0.8-0.2-1.4-0.5-1.9c-0.3-0.4-0.8-0.6-1.4-0.6c-0.6,0-1.2,0.2-1.6,0.7c-0.4,0.5-0.6,1.2-0.6,2.1v4.1L136.9,214.5L136.9,214.5z"
			/>
		<path class="st1" d="M151.7,214.6c-0.3,0-0.5-0.1-0.7-0.3s-0.3-0.4-0.3-0.6s0.1-0.5,0.3-0.7s0.4-0.3,0.7-0.3s0.5,0.1,0.6,0.3
			c0.2,0.2,0.3,0.4,0.3,0.7s-0.1,0.5-0.3,0.6C152.2,214.5,151.9,214.6,151.7,214.6z"/>
		<path class="st2" d="M190.9,52c0.5-0.2,1-0.4,1.5-0.4c1.4,0,2.3,0.6,2.9,1.8c0.2,0.5,0.3,1.4,0.3,2.8c0,2.1-0.2,3.8-0.6,5.1
			c-0.3,0.7-0.5,1.4-0.8,2c-0.2,0.6-0.4,1.1-0.6,1.6c0,0.1-0.2,0.5-0.4,1.2s-0.4,1.1-0.5,1.4c-0.3,0.8-0.5,1.3-0.5,1.6
			c0,0.3,0.2,0.5,0.7,0.5h1.1h0.2c0.4,0,0.8,0.1,1.2,0.4c0.4,0.2,0.6,0.5,0.7,0.8c0.1,0.2,0.1,0.4,0.1,0.5c0,0.8-0.9,1.2-2.8,1.2
			c-0.6,0-1.1,0-1.4,0c-1.4-0.1-2.4-0.2-3-0.4c-0.5-0.2-0.9-0.5-1-0.9c0-0.1,0-0.2,0-0.4c0-0.6,0.4-2,1.3-4.1
			c1.9-4.5,2.8-7.9,2.8-10.2c0-0.7,0-1.2-0.1-1.3s-0.2-0.3-0.5-0.3c-1.6-0.3-2.5-0.7-2.5-1.1c0-0.1,0.1-0.3,0.3-0.6
			C189.8,52.6,190.3,52.2,190.9,52z"/>
		<path class="st2" d="M202.7,51.2l0.6-0.7h4.8l0.8,0.8c0.5,0.5,0.9,1.1,1.1,1.6c0.2,0.7,0.3,2.2,0.3,4.6c0,1.6-0.1,2.9-0.2,3.9
			c0,0.4-0.1,0.8-0.1,1.3s-0.1,0.9-0.1,1.2c0,0.4-0.1,0.6-0.1,0.7c-0.1,1.2-0.5,2.8-1.2,4.7c-0.2,0.5-0.5,1.1-1,1.7s-0.9,1-1.2,1.1
			c-0.4,0.1-0.9,0.2-1.5,0.2c-0.5,0-0.9,0-1.3-0.1c-0.8-0.2-1.4-1-1.8-2.6c-0.4-1.5-0.6-3.8-0.6-6.7v-1.6c0-3.6,0.1-5.8,0.4-6.7
			c0.1-0.3,0.1-0.7,0.2-1.1c0.1-0.4,0.1-0.7,0.2-0.9c0-0.2,0.1-0.3,0.2-0.6C202.3,51.7,202.5,51.5,202.7,51.2z M206.8,55
			c-0.3-1.5-0.7-2.3-1.1-2.3c-0.1,0-0.2,0-0.2,0.1c-0.3,0.4-0.6,1-0.7,1.8c-0.1,0.8-0.2,2.2-0.2,4.2v1.3c0,5.4,0.2,8.2,0.7,8.2
			c0.2,0,0.4-0.4,0.7-1.3c0.7-1.9,1.1-4.8,1.1-8.6C207.1,57,207,55.9,206.8,55z"/>
		<path class="st2" d="M232,51.2c0.4-0.1,0.7-0.2,1-0.2c0.7,0,1.2,0.2,1.5,0.7c0.2,0.3,0.4,1.4,0.6,3.5c0.2,2,0.4,4.2,0.5,6.6
			c0,0.8,0.1,1.8,0.1,3.2c0.1,1.4,0.1,2.6,0.2,3.7c0,1,0.1,1.9,0.1,2.5c0,0.4-0.2,0.7-0.6,0.9s-0.8,0.4-1.3,0.4
			c-0.4,0-0.7-0.1-0.9-0.2l-0.5-0.4l-0.1-4.9c-0.2-5.6-0.4-8.4-0.7-8.4c-0.2,0-0.5,0.7-0.9,2.1c-0.2,0.8-0.5,1.3-0.8,1.7
			c-0.3,0.3-0.6,0.5-0.9,0.5c-0.3,0-0.7-0.1-1.1-0.2c-0.5-0.2-0.8-0.6-1.1-1.3c-0.3-0.7-0.5-1.1-0.5-1.1c0-0.1-0.1-0.3-0.2-0.5
			c-0.2-0.3-0.3-0.5-0.5-0.8c-0.2-0.2-0.3-0.3-0.3-0.3v0.5c0,1.2,0,2.9,0.1,5.2l0.2,5.6l-0.5,0.8c-0.6,0.9-1.1,1.4-1.5,1.4
			c-0.3,0-0.5-0.2-0.8-0.6c-0.2-0.3-0.4-0.8-0.4-1.5c-0.1-0.7-0.1-2.7-0.2-6.1c-0.2-6.3-0.3-9.8-0.5-10.7c0-0.1,0-0.3,0-0.5
			c0-0.3,0.1-0.6,0.4-0.9c0.3-0.3,0.7-0.5,1.2-0.5c0.4,0,0.9,0.1,1.5,0.4c0.5,0.2,1,0.6,1.3,1s1,1.6,2,3.6c0.3,0.5,0.5,0.8,0.6,0.8
			s0.3-0.2,0.4-0.6c0.1-0.5,0.4-1,0.7-1.6c0.4-0.8,0.6-1.3,0.6-1.3c0-0.2,0.2-0.7,0.5-1.2C231.5,51.7,231.8,51.3,232,51.2z"/>
		<path class="st2" d="M241.2,49.5c0.3-0.3,0.7-0.5,1.3-0.5c0.5,0,0.9,0.2,1.2,0.5l0.5,0.5l0.2,9.2c0.1,5.1,0.2,8,0.2,8.7
			c0,0.4,0,0.7,0,1s0,0.5,0,0.6s0,0.3-0.1,0.4s-0.1,0.2-0.1,0.2s-0.1,0.1-0.2,0.1s-0.2,0.1-0.2,0.1c-0.3,0.2-0.5,0.3-0.7,0.3
			c-0.1,0-0.4-0.1-0.8-0.2c-0.6-0.3-1-0.5-1.1-0.7c-0.1-0.1-0.2-3.4-0.2-9.8s-0.1-9.6-0.2-9.7C240.7,50,240.9,49.8,241.2,49.5z"/>
		<path class="st2" d="M250.6,50.9c0.4-0.2,0.8-0.3,1.2-0.3c0.8,0,1.4,0.5,1.6,1.5c0.2,0.8,0.5,1.6,1,2.5c0.4,0.9,0.7,1.6,0.9,2.1
			c0.3,0.9,0.5,1.4,0.7,1.7c0.1,0.1,0.1,0.2,0.2,0.2s0.2-0.6,0.3-1.8c0.1-1.1,0.1-1.8,0.1-2.2v-0.5c0-0.2,0-0.5,0-0.8
			c0-0.7,0.2-1.2,0.5-1.6s0.8-0.6,1.5-0.6c0.5,0,0.9,0.1,1.2,0.4c0.2,0.2,0.4,0.5,0.4,0.9c0,0.5,0,1-0.1,1.5s-0.1,3.8-0.2,9.9
			c0,3.8,0,6.1-0.1,6.9c0,0.8-0.1,1.2-0.3,1.4c-0.3,0.3-0.7,0.4-1.3,0.4c-1.2,0-1.8-0.6-2.1-1.7c-0.1-0.4-0.3-1.2-0.8-2.4
			c-0.4-1.1-0.7-2-0.8-2.9c-0.2-1.1-0.6-2.6-1.2-4.5c0-0.2-0.1-0.2-0.1-0.2c-0.1,0-0.2,1.1-0.2,3.4v1.9v2.1c0,2.2,0,3.4-0.2,3.7
			c-0.3,0.8-0.8,1.2-1.7,1.2c-0.5,0-0.9-0.2-1.3-0.5c-0.2-0.3-0.4-0.5-0.4-0.8c0,0,0-0.3,0.1-0.7c0.1-0.9,0.2-4.1,0.2-9.8
			c0-6.2,0.1-9.6,0.2-9.9c0.1-0.2,0.2-0.4,0.5-0.4C250.5,51,250.5,51,250.6,50.9z"/>
		<path class="st2" d="M265.4,49.3c0.3-0.2,0.7-0.4,1.3-0.4s1.1,0.1,1.4,0.5l0.5,0.4v5c0,5.8,0.2,9.7,0.6,11.9
			c0.1,0.4,0.2,0.6,0.2,0.6c0.3,0,0.5-0.8,0.6-2.5c0.3-3.5,0.5-6.9,0.5-10.3v-0.9v-0.5c0-1.8,0.2-2.9,0.6-3.2
			c0.1-0.1,0.4-0.2,0.8-0.2c0.7,0,1.3,0.1,1.6,0.4c0.4,0.4,0.7,1.5,0.7,3.3c0,1.5-0.1,4.3-0.4,8.3c-0.2,3.4-0.5,5.8-1.1,7.2
			c-0.5,1.4-1.4,2.3-2.6,2.7c-0.5,0.2-0.8,0.2-1,0.2s-0.6-0.1-1.3-0.4c-1.5-0.7-2.3-1.8-2.5-3.4c-0.2-1.4-0.3-5.7-0.5-13.1
			c0-1.1,0-2.3,0-3.5c0-0.8,0-1.4,0.1-1.6C265.1,49.7,265.2,49.5,265.4,49.3z"/>
		<path class="st2" d="M280.1,49.5c0.4-0.3,1-0.5,1.9-0.5h0.9c1.5,0,2.3,0.1,2.6,0.2c0.2,0.1,0.5,0.1,1.1,0.1s1,0.2,1.3,0.4
			c0.3,0.2,0.4,0.5,0.4,1s-0.1,0.9-0.3,1.1s-0.5,0.4-1,0.4c-0.6,0.1-0.9,0.2-1,0.3c-0.1,0.1-0.2,2.7-0.2,7.8c0,3.5,0,5.9,0.1,7.4
			c0,1.1,0.1,1.8,0.1,1.8c0,0.6-0.1,1.1-0.4,1.5c-0.3,0.5-0.8,0.8-1.4,0.8c-0.4,0-0.8-0.1-1.3-0.4l-0.8-0.5l0.1-9.2
			c0.1-2.4,0.1-4.8,0.1-7.1c0-1.4-0.1-2.2-0.3-2.3c-0.3-0.2-0.5-0.2-0.6-0.2s-0.3,0-0.5,0c-0.5,0-0.9-0.1-1.2-0.4s-0.5-0.6-0.5-1
			C279.4,50.3,279.6,49.9,280.1,49.5z"/>
		<path class="st2" d="M295.2,51.8c0.3-0.1,0.8-0.1,1.3-0.1c1.5,0,2.4,0.2,2.8,0.5c0.3,0.2,0.4,0.5,0.4,0.9c0,0.3-0.1,0.6-0.4,0.9
			c-0.3,0.2-0.6,0.4-1.1,0.4c-0.4,0-0.7,0.1-0.8,0.3c-0.1,0.2-0.2,0.7-0.2,1.4c0,0.2,0,0.9,0.1,2c0,1.3,0.1,2.2,0.2,2.6
			s0.2,0.6,0.3,0.6c0,0,0.2,0,0.5,0s0.6,0,0.8,0c0.7,0,1.1,0.2,1.4,0.5c0.2,0.2,0.3,0.4,0.3,0.6c0,0.4-0.6,0.8-1.8,1.3
			c-0.7,0.2-1.1,0.4-1.2,0.5s-0.2,0.4-0.3,0.9c0,0.4-0.1,0.8-0.1,1.1c0,1.4,0.1,2.4,0.4,3c0.1,0.3,0.2,0.4,0.4,0.5
			c0.1,0.1,0.4,0.1,0.9,0.1c0.6,0,1.1,0.1,1.5,0.4s0.6,0.6,0.6,0.9c0,0.2-0.2,0.6-0.6,1c-0.6,0.6-1.7,0.9-3.2,0.9
			c-1.6,0-2.6-0.3-3.1-1c-0.3-0.4-0.4-2.7-0.5-6.9c0-5.3-0.1-8.5-0.2-9.4l-0.1-3l0.6-0.3C294.4,52.1,294.8,51.9,295.2,51.8z"/>
		<path class="st2" d="M309.4,50.4c0.3-0.2,0.7-0.2,1.1-0.2c0.3,0,0.5,0,0.7,0c0.8,0.1,1.3,0.2,1.6,0.3c0.3,0.1,0.6,0.4,0.8,0.8
			c0.3,0.4,0.4,0.9,0.4,1.3c0,0.5-0.2,0.9-0.6,1.3c-0.3,0.3-0.6,0.5-1,0.5s-0.7-0.2-1-0.7c-0.2-0.4-0.5-0.5-0.8-0.5
			c-0.2,0-0.5,0.2-0.7,0.5s-0.4,0.7-0.4,1.1V55c0,1.5,1.1,4.2,3.4,8.2c0.4,0.7,0.7,1.8,1.1,3.6c0,0.1,0,0.3,0,0.6
			c0,1.5-0.3,2.6-0.9,3.5c-0.3,0.3-0.7,0.7-1.3,0.9c-0.6,0.3-1.2,0.4-1.6,0.4c-0.1,0-0.1,0-0.2,0s-0.1,0-0.2,0
			c-0.6-0.1-1.4-0.6-2.2-1.4c-0.9-0.8-1.3-1.5-1.3-2c0-0.2,0.1-0.5,0.5-0.8c0.3-0.3,0.6-0.5,0.8-0.5c0.1,0,0.2,0,0.3,0
			c0.3,0,0.8,0.4,1.4,1.3c0.2,0.4,0.5,0.5,0.8,0.5s0.5-0.2,0.6-0.5c0-0.1,0.1-0.3,0.1-0.6c0-1.6-0.7-3.8-2.1-6.8
			c-1.3-2.8-2-4.9-2-6.2c0-0.6,0.1-1.1,0.3-1.7c0.4-1.1,0.8-1.8,1-2.1C308.3,51,308.8,50.6,309.4,50.4z"/>
		<path class="st1" d="M188.8,38.8l4.1-11.2h1.4l4.1,11.2h-1.3l-1-2.9h-4.8l-1,2.9H188.8z M191.7,34.9h4l-2-5.5L191.7,34.9z"/>
		<path class="st1" d="M204.3,39c-0.6,0-1.2-0.1-1.7-0.4s-0.9-0.6-1.2-1.1l-0.1,1.3h-1.2V27.3h1.3v4.9c0.3-0.4,0.6-0.7,1.1-1
			s1.1-0.5,1.8-0.5c0.8,0,1.5,0.2,2.1,0.5c0.6,0.4,1,0.9,1.4,1.5s0.5,1.3,0.5,2.1c0,0.8-0.2,1.5-0.5,2.1s-0.8,1.1-1.4,1.5
			C205.8,38.9,205.1,39,204.3,39z M204.2,37.9c0.5,0,1-0.1,1.4-0.4c0.4-0.2,0.7-0.6,1-1.1c0.2-0.4,0.4-1,0.4-1.6s-0.1-1.1-0.4-1.6
			c-0.2-0.5-0.6-0.8-1-1.1c-0.4-0.2-0.9-0.4-1.4-0.4s-1,0.1-1.4,0.4s-0.7,0.6-1,1.1c-0.2,0.4-0.4,1-0.4,1.6s0.1,1.1,0.4,1.6
			c0.2,0.5,0.5,0.8,1,1.1S203.7,37.9,204.2,37.9z"/>
		<path class="st1" d="M213.7,39c-0.8,0-1.4-0.2-2-0.5s-1.1-0.8-1.4-1.4c-0.4-0.6-0.5-1.4-0.5-2.2s0.2-1.6,0.5-2.2
			c0.4-0.6,0.8-1.1,1.4-1.4c0.6-0.3,1.3-0.5,2-0.5s1.4,0.2,2,0.5s1.1,0.8,1.4,1.4c0.4,0.6,0.5,1.4,0.5,2.2s-0.2,1.6-0.5,2.2
			c-0.4,0.6-0.8,1.1-1.4,1.4C215.2,38.9,214.5,39,213.7,39z M213.7,37.9c0.5,0,0.9-0.1,1.3-0.3c0.4-0.2,0.7-0.6,1-1
			c0.2-0.4,0.4-1,0.4-1.7s-0.1-1.2-0.4-1.7c-0.2-0.4-0.6-0.8-0.9-1c-0.4-0.2-0.8-0.3-1.3-0.3s-0.9,0.1-1.3,0.3c-0.4,0.2-0.7,0.6-1,1
			c-0.2,0.5-0.4,1-0.4,1.7s0.1,1.2,0.4,1.7c0.2,0.5,0.6,0.8,0.9,1S213.3,37.9,213.7,37.9z"/>
		<path class="st1" d="M222.5,39c-0.9,0-1.7-0.3-2.2-0.9c-0.6-0.6-0.8-1.4-0.8-2.6v-4.6h1.3v4.5c0,1.6,0.7,2.5,2,2.5
			c0.7,0,1.3-0.2,1.7-0.7s0.7-1.2,0.7-2.1V31h1.3v7.9h-1.2l-0.1-1.4c-0.2,0.5-0.6,0.9-1.1,1.2C223.6,38.9,223.1,39,222.5,39z"/>
		<path class="st1" d="M231.9,38.8c-0.7,0-1.3-0.2-1.7-0.5c-0.4-0.4-0.6-1-0.6-1.9V32h-1.4v-1.1h1.4l0.2-1.9h1.2v1.9h2.3V32H231v4.4
			c0,0.5,0.1,0.8,0.3,1s0.6,0.3,1.1,0.3h0.8v1.1H231.9z"/>
		<path class="st1" d="M191.4,85c-0.3,0-0.5-0.1-0.7-0.3s-0.3-0.4-0.3-0.7s0.1-0.5,0.3-0.6c0.2-0.2,0.4-0.3,0.7-0.3s0.5,0.1,0.7,0.3
			s0.3,0.4,0.3,0.6c0,0.3-0.1,0.5-0.3,0.7C191.8,84.9,191.6,85,191.4,85z M190.7,94.7v-7.9h1.3v7.9H190.7z"/>
		<path class="st1" d="M197.4,94.9c-0.9,0-1.7-0.2-2.4-0.7c-0.6-0.5-1-1.1-1.1-1.9h1.4c0.1,0.4,0.3,0.8,0.7,1.1
			c0.3,0.3,0.8,0.5,1.4,0.5c0.6,0,1-0.1,1.2-0.4s0.4-0.5,0.4-0.9c0-0.5-0.2-0.8-0.5-1c-0.4-0.2-0.8-0.3-1.5-0.4
			c-0.4-0.1-0.9-0.2-1.3-0.4c-0.4-0.2-0.8-0.4-1.1-0.7s-0.4-0.7-0.4-1.2c0-0.7,0.3-1.3,0.8-1.7s1.2-0.7,2.1-0.7
			c0.8,0,1.5,0.2,2.1,0.6c0.5,0.4,0.9,1,0.9,1.8h-1.3c-0.1-0.4-0.2-0.7-0.5-1c-0.3-0.2-0.7-0.3-1.2-0.3s-0.9,0.1-1.1,0.3
			s-0.4,0.5-0.4,0.8s0.2,0.6,0.5,0.8s0.8,0.3,1.4,0.5c0.5,0.1,1,0.2,1.4,0.4s0.8,0.4,1.1,0.7s0.4,0.7,0.4,1.3c0,0.7-0.3,1.3-0.8,1.8
			C199.1,94.7,198.3,94.9,197.4,94.9z"/>
		<path class="st1" d="M210.9,94.9c-0.6,0-1.2-0.1-1.7-0.4s-0.9-0.6-1.2-1.1l-0.1,1.3h-1.2V83.2h1.3v4.9c0.3-0.4,0.6-0.7,1.1-1
			s1.1-0.5,1.8-0.5c0.8,0,1.5,0.2,2.1,0.5c0.6,0.4,1,0.9,1.4,1.5s0.5,1.3,0.5,2.1s-0.2,1.5-0.5,2.1s-0.8,1.1-1.4,1.5
			C212.3,94.7,211.6,94.9,210.9,94.9z M210.7,93.8c0.5,0,1-0.1,1.4-0.4c0.4-0.2,0.7-0.6,1-1.1c0.2-0.4,0.4-1,0.4-1.6
			s-0.1-1.1-0.4-1.6c-0.2-0.5-0.6-0.8-1-1.1c-0.4-0.2-0.9-0.4-1.4-0.4s-1,0.1-1.4,0.4s-0.7,0.6-1,1.1c-0.2,0.4-0.4,1-0.4,1.6
			s0.1,1.1,0.4,1.6c0.2,0.5,0.5,0.8,1,1.1C209.7,93.6,210.2,93.8,210.7,93.8z"/>
		<path class="st1" d="M220.2,94.9c-0.8,0-1.4-0.2-2-0.5s-1.1-0.8-1.4-1.5c-0.3-0.6-0.5-1.3-0.5-2.2c0-0.8,0.2-1.6,0.5-2.2
			s0.8-1.1,1.4-1.5c0.6-0.4,1.3-0.5,2.1-0.5s1.4,0.2,2,0.5s1,0.8,1.3,1.4s0.4,1.2,0.4,1.8c0,0.1,0,0.2,0,0.3s0,0.2,0,0.4h-6.3
			c0,0.6,0.2,1.1,0.4,1.5s0.6,0.7,0.9,0.9s0.8,0.3,1.2,0.3c0.5,0,1-0.1,1.4-0.4s0.6-0.6,0.8-1h1.3c-0.2,0.7-0.6,1.3-1.2,1.8
			C221.9,94.7,221.2,94.9,220.2,94.9z M220.2,87.7c-0.6,0-1.2,0.2-1.7,0.6s-0.8,1-0.9,1.7h5c0-0.7-0.3-1.3-0.7-1.7
			C221.5,87.9,220.9,87.7,220.2,87.7z"/>
		<path class="st1" d="M228.8,94.9c-0.9,0-1.7-0.2-2.4-0.7c-0.6-0.5-1-1.1-1.1-1.9h1.4c0.1,0.4,0.3,0.8,0.7,1.1
			c0.3,0.3,0.8,0.5,1.4,0.5c0.6,0,1-0.1,1.2-0.4s0.4-0.5,0.4-0.9c0-0.5-0.2-0.8-0.5-1c-0.4-0.2-0.8-0.3-1.5-0.4
			c-0.4-0.1-0.9-0.2-1.3-0.4c-0.4-0.2-0.8-0.4-1.1-0.7s-0.4-0.7-0.4-1.2c0-0.7,0.3-1.3,0.8-1.7s1.2-0.7,2.1-0.7
			c0.8,0,1.5,0.2,2.1,0.6c0.5,0.4,0.9,1,0.9,1.8h-1.3c-0.1-0.4-0.2-0.7-0.5-1c-0.3-0.2-0.7-0.3-1.2-0.3s-0.9,0.1-1.1,0.3
			s-0.4,0.5-0.4,0.8s0.2,0.6,0.5,0.8s0.8,0.3,1.4,0.5c0.5,0.1,1,0.2,1.4,0.4s0.8,0.4,1.1,0.7s0.4,0.7,0.4,1.3c0,0.7-0.3,1.3-0.8,1.8
			C230.5,94.7,229.7,94.9,228.8,94.9z"/>
		<path class="st1" d="M236.6,94.7c-0.7,0-1.3-0.2-1.7-0.5s-0.6-1-0.6-1.9v-4.4h-1.4v-1.1h1.4l0.2-1.9h1.2v1.9h2.3v1.1h-2.3v4.4
			c0,0.5,0.1,0.8,0.3,1s0.6,0.3,1.1,0.3h0.8v1.2L236.6,94.7L236.6,94.7z"/>
		<path class="st1" d="M240.1,94.8c-0.3,0-0.5-0.1-0.7-0.3s-0.3-0.4-0.3-0.7s0.1-0.5,0.3-0.6c0.2-0.2,0.4-0.3,0.7-0.3
			s0.5,0.1,0.6,0.3c0.2,0.2,0.3,0.4,0.3,0.6s-0.1,0.5-0.3,0.7C240.6,94.7,240.3,94.8,240.1,94.8z"/>
		<path class="st3" d="M199.4,213c-1.2-8.7-2.2-18.4-1.9-23.9c-5.7,4.6-14.4,13.3-18.9,23.9H199.4z"/>
		<path class="st4" d="M275.8,149.6c0,0-12.3,9.7-48.4,8.5C227.4,158.1,237.8,136,275.8,149.6z"/>
		<path class="st2" d="M309.3,213c-0.1-1.3-0.2-2.6-0.4-4c-8.2-70.7-75.3-62-99.6-45.2c-10.8,7.5-25.4,22.7-24.2,49.2H309.3z"/>
		<path d="M225.8,190.3c0.1,0.8-1.9,0.4-4.3,0.8c-2.4,0.4-3.8,1.1-4.3,0.6s1.7-1.9,4.1-2.3C223.6,189,225.7,189.6,225.8,190.3z"/>
		<path d="M261.3,184.6c-0.2,0.8-1.9,0.4-4.3,0.8c-2.4,0.4-3.9,1.1-4.3,0.6c-0.5-0.5,1.7-1.9,4.1-2.3
			C259.1,183.3,261.5,183.8,261.3,184.6z"/>
		<path d="M237.3,198.3c-0.8-1.7,2-2.7,6.6-2s2.2,5.2-1.2,4.9C239.3,200.9,238,200,237.3,198.3z"/>
		<path class="st0" d="M243.3,199.2l-1.4,0.2c-0.7,0.1-1.4-0.3-1.5-1l-0.2-2.3c1.4-0.2,2.6,0.1,3.9,0.2l0.2,1.4
			C244.5,198.4,244,199.1,243.3,199.2z"/>
		<path class="st3" d="M313.2,213c-1-10.3-5.8-19.9-9.6-25.5c-1.5,6.3-8.4,16.9-13.2,25.5H313.2z"/>
		<path class="st4" d="M208.3,134.4c0,0-0.8,7.3,5.9,11.5C214.2,145.9,215.2,143,208.3,134.4z"/>
		<path class="st5" d="M220.6,151.5c0.2-3.6-9.8-10-20.1-7.3"/>
		<path class="st6" d="M197.2,142.9c0,0-6.1,8.5-1.8,8.3C199.7,151.1,200.2,142.5,197.2,142.9z"/>
		<path class="st6" d="M198.6,141.4c0,0-3.1,10.3,1.2,8.3C204.2,147.8,201.6,139.8,198.6,141.4z"/>
		<path class="st6" d="M199,141c0,0-9.6,2.7-7,6.1C194.6,150.6,201.1,143.2,199,141z"/>
		<path class="st6" d="M200.4,145.8c0,0,0.2-12.3-3.9-8.7C192.3,140.8,197.6,148.6,200.4,145.8z"/>
		<path class="st6" d="M198,142.4c0,0,1-8.2,4.4-5.9C205.8,138.8,200.3,144.2,198,142.4z"/>
		<path class="st6" d="M198.3,140c0,0,10.1,0.5,6.9,4.2S195.8,142.5,198.3,140z"/>
		<path class="st7" d="M200.6,143.7c1.2-2.2,1.1-4.5-0.2-5.2s-3.3,0.5-4.5,2.6c-1.2,2.2-1.1,4.5,0.2,5.2
			C197.4,147.1,199.4,145.9,200.6,143.7z"/>
		<path class="st7" d="M262.6,148.2c-6.2-15.3-18.2-25.1-29.8-22.9s-19.3,15.7-19.5,32.2L262.6,148.2z"/>
		<path class="st8" d="M255.6,147.2l-85.9,16.2c1.9,10.3,11.8,17.1,22,15.2l98.3-18.5c10.2-1.9,17-11.8,15-22.1L255.6,147.2z"/>
		<path class="st3" d="M270.5,122.7c1.1-0.2,2.1-0.4,3.1-0.5c0.5-0.1,1.1-0.1,1.6-0.1c0.3,0,0.7,0.3,0.7,0.6
			c0.1,0.2-0.2,0.6-0.4,0.9c-0.2,0.2-0.5,0.3-0.9,0.4c-1.8,0.5-3.5,0.9-5.3,1.4c-1.2,0.3-1.9-0.3-1.6-1.5c0.4-2.4,0.9-4.8,1.4-7.2
			c0-0.2,0.1-0.4,0.1-0.7c0.1-0.8-0.1-1-0.9-0.8c-0.3,0.1-0.6,0.2-0.9,0.2c-0.8,0.1-1.6-0.3-1.7-1s0.3-1.5,1.1-1.7
			c1.4-0.4,2.8-0.7,4.1-1.1c0.6-0.2,1.4,0.1,1.5,0.8c0.2,0.7,0.2,1.4,0.1,2.1c-0.2,1.2-0.7,2.3-1,3.5
			C271.2,119.5,270.9,121,270.5,122.7z"/>
		<path class="st3" d="M281.8,116.8c1.2-0.2,2.3-0.4,3.4-0.5c0.6-0.1,1.1-0.1,1.7,0c0.3,0,0.7,0.4,0.8,0.6s-0.2,0.7-0.4,0.9
			c-0.2,0.2-0.6,0.4-0.9,0.5c-1.9,0.5-3.8,1-5.7,1.4c-1.3,0.3-2-0.4-1.7-1.7c0.5-2.6,1.1-5.1,1.6-7.7c0.1-0.2,0.1-0.5,0.1-0.7
			c0.2-0.9-0.1-1.1-1-0.8c-0.3,0.1-0.6,0.2-0.9,0.2c-0.9,0.1-1.7-0.4-1.8-1.1c-0.2-0.8,0.3-1.6,1.2-1.8c1.5-0.4,3-0.8,4.5-1.1
			c0.7-0.2,1.5,0.2,1.6,0.8c0.2,0.7,0.2,1.5,0.1,2.2c-0.3,1.3-0.8,2.5-1.2,3.7C282.6,113.3,282.2,115,281.8,116.8z"/>
		<path class="st3" d="M292.4,109.7c1.5-0.2,2.9-0.3,4.3-0.4c0.7,0,1.4-0.1,2.1,0.1c0.4,0.1,0.8,0.5,0.9,0.9c0,0.4-0.3,0.9-0.6,1.1
			c-0.3,0.3-0.8,0.4-1.2,0.5c-2.4,0.5-4.8,0.9-7.2,1.3c-1.6,0.3-2.5-0.6-2-2.2c0.8-3.2,1.7-6.3,2.6-9.5c0.1-0.3,0.2-0.6,0.2-0.9
			c0.3-1.1,0-1.4-1.1-1.1c-0.4,0.1-0.8,0.2-1.2,0.2c-1.1,0.1-2.1-0.6-2.2-1.6s0.5-2,1.6-2.2c1.9-0.4,3.8-0.7,5.7-1.1
			c0.9-0.2,1.8,0.3,2,1.2c0.1,0.9,0.2,1.9-0.1,2.8c-0.5,1.6-1.2,3-1.7,4.6C293.6,105.4,293,107.5,292.4,109.7z"/>
	</g>
</g>
</svg>
