<?xml version="1.0" encoding="utf-8"?>
<!-- Generator: Adobe Illustrator 25.1.0, SVG Export Plug-In . SVG Version: 6.00 Build 0)  -->
<svg version="1.1" id="Layer_1" xmlns="http://www.w3.org/2000/svg" xmlns:xlink="http://www.w3.org/1999/xlink" x="0px" y="0px"
	 viewBox="0 0 330.1 337.9" style="enable-background:new 0 0 330.1 337.9;" xml:space="preserve">
<style type="text/css">
	.st0{fill:#FFFFFF;}
	.st1{fill:#00A878;}
	.st2{fill:#808080;}
	.st3{fill:#F4F1EF;}
	.st4{fill:none;stroke:#FF9F1A;stroke-width:5.0894;stroke-linecap:round;stroke-miterlimit:10;}
	.st5{fill:#FFB753;}
	.st6{fill-rule:evenodd;clip-rule:evenodd;fill:#00A878;}
</style>
<g>
	<g>
		<path class="st0" d="M2,25.4c0,220.3-9.2,296.2,11.7,305c26.2,11,173.1,6.9,209.8,6c36.1-0.9,94.4,2.1,100.7-31.7
			c6.3-33.4,5.2-75.9,5.2-135.9c0-94.4,6.7-147.6-21.2-155.9C270.3,1.6,168.5-1.1,123,0.4C76.1,2,2-4.4,2,25.4z"/>
		<path class="st1" d="M23,123.4c0.1,0,0.3,0,0.5,0c1,0,1.4,0.1,1.4,0.2s0.1,0.2,0.2,0.5c0.2,0.4,0.3,0.8,0.3,1.2
			c0,1.1,0.2,2.9,0.8,5.4c0.1,1,0.3,2,0.6,2.9c0.2,0.9,0.4,1.4,0.5,1.4s0.1-0.1,0.1-0.3c0-0.8,0.6-1.3,1.7-1.7
			c0.5-0.1,0.9-0.2,1.1-0.2c0.4,0,0.8,0.2,1,0.5s0.5,0.9,0.7,1.7c0.2,0.6,0.3,0.9,0.4,0.8c0.1-0.1,0.2-0.7,0.4-1.9
			c0.2-1.2,0.4-2.1,0.4-2.8c0.1-0.4,0.1-0.9,0.2-1.6c0.1-0.7,0.2-1.4,0.3-2.2c0.2-1.5,0.3-2.3,0.4-2.6c0.1-0.3,0.5-0.6,1-0.8
			c0.5-0.2,1-0.4,1.4-0.4s0.7,0.2,1,0.5s0.4,0.7,0.4,1.1v0.1c0,0.1,0,0.1,0,0.1c-0.7,3.8-1.3,7.4-1.7,10.9c-0.3,2.5-0.5,4.2-0.6,5.3
			c-0.1,1.1-0.3,2-0.5,2.8s-0.4,1.3-0.6,1.4c-0.2,0.2-0.5,0.3-0.8,0.3c-0.1,0-0.4,0-0.7,0c-0.9,0-1.5-0.2-1.7-0.5
			c-0.1-0.1-0.3-0.6-0.6-1.4s-0.5-1.4-0.6-1.9c-0.1-0.3-0.2-0.5-0.4-0.5c-0.1,0-0.2,0.1-0.2,0.4c0,0.5-0.2,1.1-0.4,1.8
			c-0.3,0.7-0.6,1.2-0.9,1.5c-0.3,0.3-0.6,0.5-0.9,0.5c-0.2,0-0.4,0-0.5,0c-0.9-0.2-1.5-0.5-1.8-0.9s-0.5-1.2-0.6-2.6
			c-1-7.2-1.7-12.3-2.2-15.1c-0.2-1.1-0.3-2-0.3-2.6c0-0.4,0.1-0.8,0.3-1C22.5,123.6,22.7,123.5,23,123.4z"/>
		<path class="st1" d="M43.5,122.7c0.3-0.4,0.8-0.6,1.3-0.6s0.9,0.2,1.3,0.6l0.6,0.5l0.2,9.5c0.1,5.2,0.2,8.2,0.2,9c0,0.4,0,0.8,0,1
			c0,0.3,0,0.5,0,0.7s-0.1,0.3-0.1,0.4s-0.1,0.2-0.1,0.2s-0.1,0.1-0.2,0.1c-0.1,0.1-0.2,0.1-0.2,0.1c-0.3,0.2-0.6,0.3-0.8,0.3
			c-0.1,0-0.4-0.1-0.8-0.2c-0.7-0.3-1.1-0.5-1.1-0.7c-0.1-0.1-0.2-3.5-0.2-10.1c-0.1-6.6-0.1-9.9-0.2-10
			C43.1,123.3,43.2,123,43.5,122.7z"/>
		<path class="st1" d="M53.2,124.2c0.4-0.2,0.8-0.3,1.3-0.3c0.8,0,1.4,0.5,1.7,1.6c0.2,0.8,0.6,1.7,1,2.6c0.4,0.9,0.7,1.6,0.9,2.2
			c0.3,0.9,0.5,1.5,0.8,1.7c0.1,0.1,0.2,0.2,0.2,0.2c0.1,0,0.2-0.6,0.3-1.8c0.1-1.1,0.1-1.9,0.1-2.3v-0.5c0-0.2,0-0.5,0-0.8
			c0-0.7,0.2-1.2,0.6-1.6c0.3-0.4,0.8-0.6,1.5-0.6c0.5,0,0.9,0.1,1.2,0.4c0.2,0.2,0.4,0.5,0.4,1s0,1-0.1,1.5s-0.1,3.9-0.2,10.2
			c0,3.9-0.1,6.3-0.1,7.1c0,0.8-0.1,1.3-0.3,1.5c-0.3,0.3-0.7,0.5-1.3,0.5c-1.2,0-1.9-0.6-2.1-1.8c-0.1-0.5-0.3-1.3-0.8-2.5
			c-0.4-1.1-0.7-2.1-0.8-3c-0.2-1.1-0.6-2.7-1.2-4.6c-0.1-0.2-0.1-0.2-0.1-0.2c-0.1,0-0.2,1.2-0.2,3.5v2v2.2c0,2.3-0.1,3.6-0.2,3.9
			c-0.3,0.8-0.9,1.2-1.8,1.2c-0.5,0-1-0.2-1.3-0.6c-0.2-0.3-0.4-0.5-0.4-0.8c0-0.1,0-0.3,0.1-0.8c0.1-0.9,0.2-4.3,0.2-10.1
			c0-6.5,0.1-9.9,0.2-10.3c0.1-0.2,0.2-0.4,0.5-0.5C53.1,124.3,53.2,124.2,53.2,124.2z"/>
		<path class="st1" d="M68.9,125.1c0.1,0,0.8,0,2.1,0c1.5,0,2.6,0.3,3.3,1c0.7,0.6,1.3,1.7,1.8,3.3c0.5,1.5,0.7,3.2,0.7,5.2
			c0,0.4,0,0.9-0.1,1.4c-0.1,0.4-0.2,1.1-0.3,1.9s-0.2,1.6-0.3,2.2c-0.1,0.7-0.2,1.1-0.4,1.4c-0.1,0.2-0.2,0.5-0.2,0.8
			c0,0.2-0.1,0.6-0.4,1.2s-0.5,1-0.7,1.3c-0.3,0.4-0.8,0.8-1.5,1.1c-0.6,0.3-1.3,0.5-1.9,0.6c-0.5,0.1-0.8,0.1-0.9,0.1
			c-0.3,0-0.7-0.1-1-0.5l-0.6-0.6v-7.1v-2.1c0-3.5,0-5.4-0.1-5.8c-0.2-1.1-0.2-2.1-0.2-2.9C68.2,126,68.4,125.2,68.9,125.1z
			 M72.8,130.3c-0.4-1.5-0.8-2.2-1-2.2l-0.1,0.1v0.1c0,0.1,0,0.2,0,0.3c0,0.1,0,0.2,0,0.4c0,0.4,0,1.2,0.1,2.4
			c0.1,1.4,0.2,3.4,0.2,5.8c0,2.3,0.1,3.5,0.3,3.5c0.1,0,0.2-0.2,0.3-0.6c0.5-1.8,0.8-3.7,0.8-5.7C73.4,132.7,73.2,131.4,72.8,130.3
			z"/>
		<path class="st1" d="M92.4,125.1c0.1,0,0.8,0,2.1,0c1.5,0,2.5,0.3,3.3,1c0.7,0.6,1.3,1.7,1.8,3.3c0.5,1.5,0.7,3.2,0.7,5.2
			c0,0.4,0,0.9-0.1,1.4c-0.1,0.4-0.2,1.1-0.3,1.9s-0.2,1.6-0.3,2.2c-0.1,0.7-0.2,1.1-0.4,1.4c-0.1,0.2-0.2,0.5-0.2,0.8
			c0,0.2-0.1,0.6-0.4,1.2s-0.5,1-0.7,1.3c-0.3,0.4-0.8,0.8-1.5,1.1c-0.6,0.3-1.3,0.5-1.9,0.6c-0.5,0.1-0.8,0.1-0.9,0.1
			c-0.3,0-0.7-0.1-1-0.5l-0.6-0.6v-7.1v-2.1c0-3.5,0-5.4-0.1-5.8c-0.2-1.1-0.2-2.1-0.2-2.9C91.6,126,91.9,125.2,92.4,125.1z
			 M96.3,130.3c-0.4-1.5-0.8-2.2-1.1-2.2l-0.1,0.1v0.1c0,0.1,0,0.2,0,0.3c0,0.1,0,0.2,0,0.4c0,0.4,0,1.2,0.1,2.4
			c0.1,1.4,0.2,3.4,0.2,5.8c0,2.3,0.1,3.5,0.3,3.5c0.1,0,0.2-0.2,0.3-0.6c0.5-1.8,0.8-3.7,0.8-5.7C96.8,132.7,96.7,131.4,96.3,130.3
			z"/>
		<path class="st1" d="M106.5,124.6l0.8-1h5.2l0.8,0.8c0.5,0.5,0.9,1.2,1.1,2s0.4,2.1,0.6,3.8c0.1,0.6,0.1,1.6,0.1,2.8
			c0,2.9-0.3,5.5-0.8,7.8s-1.2,3.9-2.1,4.8c-0.3,0.3-0.7,0.5-1.2,0.7s-1,0.3-1.4,0.3c-0.2,0-0.3,0-0.4-0.1c-0.2-0.1-0.5-0.2-0.9-0.2
			c-0.3,0-0.6-0.2-1-0.7s-0.7-1-0.9-1.7c-0.4-1.1-0.7-2.3-0.8-3.6c-0.1-1.3-0.2-3.4-0.2-6.3v-2c0-2.6,0.1-4.4,0.2-5.3
			C105.8,126,106.1,125.2,106.5,124.6z M110.5,126.6c-0.2-0.5-0.5-0.8-0.6-0.8c-0.2,0-0.4,0.4-0.7,1.3c-0.2,0.7-0.3,2-0.3,3.9
			c0,1.5,0.1,3.1,0.2,4.8c0.1,1.6,0.3,3.1,0.6,4.5c0.2,1.4,0.5,2.1,0.7,2.1c0.1,0,0.3-0.3,0.4-0.9c0.1-0.5,0.3-0.9,0.5-1.3
			c0.1-0.2,0.2-1.4,0.4-3.7c0.1-1.2,0.1-2.3,0.1-3.3C111.5,130.2,111.2,128,110.5,126.6z"/>
		<path class="st1" d="M121.5,123.4c0.1,0,0.3,0,0.5,0c1,0,1.4,0.1,1.4,0.2s0.1,0.2,0.2,0.5c0.2,0.4,0.3,0.8,0.3,1.2
			c0,1.1,0.2,2.9,0.8,5.4c0.1,1,0.3,2,0.6,2.9c0.2,0.9,0.4,1.4,0.5,1.4s0.1-0.1,0.1-0.3c0-0.8,0.6-1.3,1.7-1.7
			c0.5-0.1,0.9-0.2,1.1-0.2c0.4,0,0.8,0.2,1,0.5s0.5,0.9,0.7,1.7c0.2,0.6,0.3,0.9,0.4,0.8c0.1-0.1,0.2-0.7,0.4-1.9s0.4-2.1,0.4-2.8
			c0.1-0.4,0.1-0.9,0.2-1.6c0.1-0.7,0.2-1.4,0.3-2.2c0.2-1.5,0.3-2.3,0.4-2.6c0.1-0.3,0.5-0.6,1-0.8c0.5-0.2,1-0.4,1.4-0.4
			s0.7,0.2,1,0.5s0.4,0.7,0.4,1.1v0.1v0.1c-0.7,3.8-1.3,7.4-1.7,10.9c-0.3,2.5-0.5,4.2-0.6,5.3c-0.1,1.1-0.3,2-0.5,2.8
			s-0.4,1.3-0.6,1.4c-0.2,0.2-0.5,0.3-0.8,0.3c-0.1,0-0.4,0-0.7,0c-0.9,0-1.5-0.2-1.7-0.5c-0.1-0.1-0.3-0.6-0.6-1.4
			s-0.5-1.4-0.6-1.9c-0.1-0.3-0.2-0.5-0.4-0.5c-0.1,0-0.2,0.1-0.2,0.4c0,0.5-0.1,1.1-0.4,1.8c-0.3,0.7-0.6,1.2-0.9,1.5
			c-0.3,0.3-0.6,0.5-0.9,0.5c-0.2,0-0.4,0-0.5,0c-0.9-0.2-1.5-0.5-1.8-0.9s-0.5-1.2-0.7-2.6c-1-7.2-1.7-12.3-2.2-15.1
			c-0.2-1.1-0.3-2-0.3-2.6c0-0.4,0.1-0.8,0.3-1C120.9,123.6,121.2,123.5,121.5,123.4z"/>
		<path class="st1" d="M142.7,124.2c0.4-0.2,0.8-0.3,1.3-0.3c0.8,0,1.4,0.5,1.7,1.6c0.2,0.8,0.5,1.7,1,2.6c0.4,0.9,0.7,1.6,0.9,2.2
			c0.3,0.9,0.5,1.5,0.8,1.7c0.1,0.1,0.1,0.2,0.2,0.2c0.1,0,0.2-0.6,0.3-1.8c0.1-1.1,0.1-1.9,0.1-2.3v-0.5c0-0.2,0-0.5,0-0.8
			c0-0.7,0.2-1.2,0.6-1.6c0.3-0.4,0.9-0.6,1.6-0.6c0.5,0,0.9,0.1,1.2,0.4c0.2,0.2,0.4,0.5,0.4,1s0,1-0.1,1.5s-0.1,3.9-0.2,10.2
			c0,3.9-0.1,6.3-0.1,7.1c0,0.8-0.1,1.3-0.3,1.5c-0.3,0.3-0.7,0.5-1.3,0.5c-1.2,0-1.9-0.6-2.1-1.8c-0.1-0.5-0.4-1.3-0.8-2.5
			c-0.4-1.1-0.7-2.1-0.8-3c-0.2-1.1-0.6-2.7-1.2-4.6c-0.1-0.2-0.1-0.2-0.1-0.2c-0.1,0-0.2,1.2-0.2,3.5v2v2.2c0,2.3-0.1,3.6-0.2,3.9
			c-0.3,0.8-0.9,1.2-1.8,1.2c-0.5,0-1-0.2-1.3-0.6c-0.2-0.3-0.4-0.5-0.4-0.8c0-0.1,0-0.3,0.1-0.8c0.1-0.9,0.2-4.3,0.2-10.1
			c0-6.5,0.1-9.9,0.2-10.3c0.1-0.2,0.2-0.4,0.5-0.5C142.5,124.3,142.6,124.2,142.7,124.2z"/>
		<path class="st1" d="M23.1,158.9c0.5-0.2,1.1-0.2,1.9-0.2c0.8,0,1.5,0.1,1.8,0.2c0.7,0.3,1.3,0.9,1.7,1.7c0.2,0.4,0.3,1.1,0.5,2.2
			s0.2,2,0.2,2.9c0,0.4,0,0.7,0,0.8c-0.1,0.7-0.3,1.5-0.6,2.3c-0.3,0.9-0.5,1.3-0.6,1.3c-0.2,0-0.3,0.2-0.3,0.5s0.1,0.6,0.3,0.9
			c0.4,0.6,1.1,1.8,1.9,3.6c0.8,1.7,1.3,2.8,1.3,3.3c0,0.1,0,0.3,0,0.6c0,0.4-0.1,0.7-0.3,1s-0.5,0.5-0.8,0.5s-0.5,0-0.8,0
			c-0.7-0.1-1.1-0.2-1.3-0.3c-0.2-0.1-0.3-0.3-0.3-0.7c0-0.6-0.3-1.4-0.9-2.6c-0.6-1.2-1-1.7-1.3-1.7l0,0c-0.1,0.1-0.1,0.4-0.1,0.9
			c0,0.8,0.1,1.8,0.2,2.8c0.1,0.4,0.1,0.8,0.1,0.9c0,1-0.2,1.5-0.6,1.8c-0.2,0.1-0.4,0.1-0.7,0.1c-0.9,0-1.5-0.2-1.7-0.6
			c-0.1-0.2-0.2-2.1-0.3-5.7c0-1.1-0.1-2.4-0.1-3.7c0-1.3,0-2.3,0-2.9s0-1.4-0.1-2.4s-0.2-2-0.3-3.2c-0.1-1.3-0.2-2.1-0.2-2.4
			c0-0.7,0.1-1.1,0.3-1.4C22.3,159.3,22.6,159.1,23.1,158.9z M25.8,162c-0.1-0.2-0.2-0.3-0.5-0.3c-0.2,0-0.3,0.1-0.4,0.3
			c-0.1,0.2-0.1,0.4,0,0.5c0,0,0.1,0.9,0.2,2.7c0.1,1.8,0.2,2.7,0.3,2.8c0.1,0.1,0.2-0.1,0.4-0.3c0.2-0.2,0.2-0.7,0.2-1.4
			c0-0.5,0-1,0-1.4C26,163.3,25.9,162.3,25.8,162z"/>
		<path class="st1" d="M37.6,160.7l0.8-1h5.2l0.8,0.8c0.5,0.5,0.9,1.2,1.1,2s0.4,2.1,0.6,3.8c0.1,0.6,0.1,1.6,0.1,2.8
			c0,2.9-0.3,5.4-0.8,7.8c-0.5,2.3-1.2,3.9-2.1,4.8c-0.3,0.3-0.7,0.5-1.2,0.7s-1,0.3-1.4,0.3c-0.2,0-0.3,0-0.4-0.1
			c-0.2-0.1-0.5-0.2-0.9-0.2c-0.3,0-0.6-0.2-1-0.7s-0.7-1-0.9-1.7c-0.4-1.1-0.7-2.3-0.8-3.6c-0.1-1.3-0.2-3.4-0.2-6.3v-2
			c0-2.6,0.1-4.4,0.2-5.3S37.1,161.3,37.6,160.7z M41.6,162.7c-0.2-0.5-0.5-0.8-0.6-0.8c-0.2,0-0.4,0.4-0.7,1.3
			c-0.2,0.7-0.3,2-0.3,3.9c0,1.5,0.1,3.1,0.2,4.8c0.1,1.6,0.3,3.1,0.5,4.5s0.5,2.1,0.7,2.1c0.1,0,0.3-0.3,0.4-0.9
			c0.1-0.5,0.3-0.9,0.5-1.3c0.1-0.2,0.2-1.4,0.4-3.7c0.1-1.2,0.1-2.3,0.1-3.3C42.6,166.2,42.3,164,41.6,162.7z"/>
		<path class="st1" d="M51.8,158.6c0.3-0.2,0.8-0.4,1.3-0.4c0.6,0,1.1,0.2,1.5,0.5l0.5,0.5v5.1c0.1,6,0.2,10,0.6,12.3
			c0.1,0.4,0.2,0.7,0.2,0.7c0.3,0,0.5-0.9,0.6-2.6c0.4-3.6,0.6-7.1,0.6-10.6v-0.9v-0.5c0-1.9,0.2-3,0.7-3.3c0.1-0.1,0.4-0.2,0.8-0.2
			c0.8,0,1.3,0.1,1.6,0.4c0.4,0.4,0.7,1.5,0.7,3.4c0,1.5-0.1,4.4-0.4,8.6c-0.2,3.5-0.6,6-1.1,7.4c-0.6,1.5-1.4,2.4-2.7,2.8
			c-0.5,0.2-0.8,0.2-1,0.2s-0.6-0.1-1.4-0.5c-1.5-0.7-2.4-1.9-2.6-3.5c-0.2-1.4-0.3-5.9-0.5-13.5c0-1.1,0-2.3,0-3.6
			c0-0.9,0-1.4,0.1-1.7C51.5,159,51.6,158.8,51.8,158.6z"/>
		<path class="st1" d="M66.9,158.8c0.4-0.3,1-0.5,1.9-0.5h1c1.5,0.1,2.4,0.1,2.7,0.2c0.2,0.1,0.6,0.1,1.2,0.1s1.1,0.2,1.4,0.4
			c0.3,0.2,0.4,0.6,0.4,1.1s-0.1,0.9-0.3,1.1c-0.2,0.2-0.5,0.4-1,0.5c-0.6,0.1-0.9,0.2-1,0.3c-0.1,0.1-0.2,2.8-0.2,8
			c0,3.6,0,6.1,0.1,7.6c0.1,1.2,0.1,1.8,0.1,1.9c0,0.6-0.1,1.1-0.4,1.5c-0.3,0.6-0.8,0.8-1.4,0.8c-0.4,0-0.8-0.1-1.3-0.4l-0.8-0.5
			l0.1-9.6c0.1-2.5,0.1-4.9,0.1-7.4c0-1.5-0.1-2.3-0.3-2.4c-0.3-0.2-0.5-0.2-0.6-0.2s-0.3,0-0.5,0c-0.5,0-0.9-0.1-1.3-0.4
			s-0.5-0.6-0.5-1C66.3,159.6,66.5,159.2,66.9,158.8z"/>
		<path class="st1" d="M81.2,158.8c0.3-0.4,0.8-0.5,1.3-0.5s0.9,0.2,1.3,0.5l0.5,0.5l0.2,9.5c0.1,5.2,0.2,8.2,0.2,9c0,0.4,0,0.8,0,1
			c0,0.3,0,0.5,0,0.6s-0.1,0.3-0.1,0.4s-0.1,0.2-0.1,0.2s-0.1,0.1-0.2,0.1c-0.1,0.1-0.2,0.1-0.2,0.1c-0.3,0.2-0.6,0.3-0.8,0.3
			c-0.1,0-0.4-0.1-0.8-0.2c-0.7-0.3-1.1-0.5-1.1-0.7c-0.1-0.1-0.2-3.5-0.2-10.1c-0.1-6.6-0.1-10-0.2-10
			C80.7,159.4,80.8,159.1,81.2,158.8z"/>
		<path class="st1" d="M90.9,160.3c0.4-0.2,0.8-0.3,1.3-0.3c0.8,0,1.4,0.5,1.7,1.6c0.2,0.8,0.6,1.7,1,2.6s0.7,1.6,0.9,2.2
			c0.3,0.9,0.5,1.5,0.8,1.7c0.1,0.1,0.2,0.2,0.2,0.2c0.1,0,0.2-0.6,0.3-1.8c0.1-1.1,0.1-1.9,0.1-2.3v-0.5c0-0.2,0-0.5,0-0.8
			c0-0.7,0.2-1.2,0.5-1.6s0.8-0.6,1.6-0.6c0.5,0,0.9,0.1,1.2,0.4c0.2,0.2,0.4,0.6,0.4,1c0,0.5,0,1-0.1,1.5s-0.1,3.9-0.2,10.2
			c0,4-0.1,6.3-0.1,7.1c0,0.8-0.1,1.3-0.3,1.5c-0.3,0.3-0.7,0.5-1.3,0.5c-1.2,0-1.9-0.6-2.1-1.8c-0.1-0.4-0.3-1.3-0.8-2.5
			c-0.4-1.1-0.7-2.1-0.8-3c-0.2-1.1-0.6-2.7-1.2-4.6c-0.1-0.2-0.1-0.2-0.1-0.2c-0.1,0-0.2,1.2-0.2,3.5v2v2.2c0,2.3-0.1,3.6-0.2,3.9
			c-0.3,0.8-0.9,1.2-1.8,1.2c-0.5,0-1-0.2-1.3-0.5c-0.2-0.3-0.4-0.5-0.4-0.8c0-0.1,0-0.3,0.1-0.8c0.1-0.9,0.2-4.3,0.2-10.1
			c0-6.5,0.1-9.9,0.2-10.3c0.1-0.2,0.2-0.4,0.5-0.5C90.8,160.3,90.8,160.3,90.9,160.3z"/>
		<path class="st1" d="M107.6,161.2c0.3-0.1,0.8-0.1,1.3-0.1c1.5,0,2.5,0.2,2.9,0.5c0.3,0.2,0.4,0.6,0.4,0.9c0,0.4-0.1,0.7-0.4,0.9
			s-0.6,0.4-1.1,0.4c-0.4,0-0.7,0.1-0.8,0.3c-0.1,0.2-0.2,0.7-0.2,1.4c0,0.2,0,0.9,0.1,2.1c0.1,1.4,0.1,2.3,0.2,2.7
			c0.1,0.4,0.2,0.6,0.3,0.7c0,0,0.2,0,0.6,0s0.6,0,0.8,0c0.7,0,1.2,0.2,1.5,0.5c0.2,0.2,0.3,0.4,0.3,0.6c0,0.4-0.6,0.8-1.8,1.3
			c-0.7,0.2-1.1,0.4-1.3,0.6s-0.2,0.4-0.3,0.9c-0.1,0.4-0.1,0.8-0.1,1.2c0,1.4,0.1,2.5,0.4,3.1c0.1,0.3,0.2,0.5,0.4,0.5
			c0.1,0.1,0.4,0.1,0.9,0.1c0.6,0,1.1,0.1,1.5,0.4s0.6,0.6,0.6,1c0,0.2-0.2,0.6-0.6,1c-0.7,0.6-1.8,1-3.4,1s-2.7-0.4-3.2-1.1
			c-0.3-0.4-0.4-2.8-0.5-7.2c-0.1-5.5-0.1-8.8-0.2-9.7l-0.1-3.1l0.6-0.3C106.8,161.5,107.2,161.3,107.6,161.2z"/>
		<path class="st1" d="M119.4,177.9c0.3-0.3,0.6-0.5,0.9-0.5c0.1,0,0.3,0,0.6,0.1c1.1,0.2,1.7,0.7,1.7,1.3c0,0.5-0.3,1-1,1.4
			c-0.6,0.4-1.1,0.5-1.4,0.5c-0.6,0-1-0.5-1.1-1.4c0-0.2,0-0.4,0-0.6C119,178.4,119.1,178.1,119.4,177.9z"/>
		<path class="st2" d="M25.8,211.2V200h1.3v11.2H25.8z"/>
		<path class="st2" d="M32.5,211.2c-0.7,0-1.3-0.2-1.7-0.5s-0.6-1-0.6-1.9v-4.4h-1.4v-1.1h1.4l0.2-1.9h1.1v1.9h2.3v1.1h-2.3v4.4
			c0,0.5,0.1,0.8,0.3,1s0.6,0.3,1.1,0.3h0.8v1.2L32.5,211.2L32.5,211.2z"/>
		<path class="st2" d="M39.8,211.2v-7.9H41l0.1,1.1c0.3-0.4,0.6-0.8,1-1s0.9-0.3,1.4-0.3c0.6,0,1.2,0.1,1.6,0.4
			c0.4,0.3,0.8,0.6,1,1.2c0.3-0.5,0.7-0.9,1.1-1.1c0.5-0.3,1-0.4,1.6-0.4c1,0,1.7,0.3,2.3,0.9s0.8,1.5,0.8,2.6v4.6h-1.3v-4.5
			c0-0.8-0.2-1.4-0.5-1.9c-0.3-0.4-0.8-0.6-1.4-0.6s-1.2,0.2-1.6,0.7s-0.6,1.2-0.6,2.1v4.1h-1.3v-4.5c0-0.8-0.2-1.4-0.5-1.9
			c-0.3-0.4-0.8-0.6-1.4-0.6s-1.1,0.2-1.6,0.7c-0.4,0.5-0.6,1.2-0.6,2.1v4.1L39.8,211.2L39.8,211.2z"/>
		<path class="st2" d="M55,201.5c-0.3,0-0.5-0.1-0.7-0.3s-0.3-0.4-0.3-0.7s0.1-0.5,0.3-0.6c0.2-0.2,0.4-0.3,0.7-0.3s0.5,0.1,0.7,0.3
			s0.3,0.4,0.3,0.6c0,0.3-0.1,0.5-0.3,0.7S55.2,201.5,55,201.5z M54.3,211.2v-7.9h1.3v7.9H54.3z"/>
		<path class="st2" d="M61.1,208.7c-0.4,0-0.9-0.1-1.2-0.2l-0.8,0.8c0.1,0.1,0.3,0.2,0.4,0.2s0.4,0.1,0.8,0.2s0.8,0.1,1.4,0.2
			c1.1,0.1,1.8,0.3,2.3,0.7c0.5,0.4,0.7,1,0.7,1.6c0,0.5-0.1,0.9-0.4,1.3c-0.2,0.4-0.6,0.8-1.1,1c-0.5,0.3-1.2,0.4-2,0.4
			c-0.7,0-1.3-0.1-1.9-0.3s-1-0.5-1.3-0.9s-0.5-0.9-0.5-1.4c0-0.3,0.1-0.6,0.2-1c0.2-0.4,0.5-0.7,0.9-1c-0.2-0.1-0.4-0.2-0.6-0.3
			s-0.3-0.2-0.5-0.4v-0.4l1.4-1.3c-0.6-0.5-0.9-1.2-0.9-2.1c0-0.5,0.1-1,0.4-1.4c0.2-0.4,0.6-0.8,1.1-1s1-0.4,1.7-0.4
			c0.5,0,0.9,0.1,1.2,0.2h2.9v1l-1.5,0.1c0.3,0.4,0.5,1,0.5,1.5s-0.1,1-0.4,1.4c-0.2,0.4-0.6,0.8-1.1,1
			C62.3,208.5,61.8,208.7,61.1,208.7z M58.8,212.2c0,0.5,0.2,0.9,0.7,1.2c0.4,0.3,1,0.4,1.7,0.4s1.2-0.1,1.6-0.4s0.6-0.7,0.6-1.2
			c0-0.3-0.1-0.6-0.4-0.9s-0.8-0.4-1.5-0.4c-0.6,0-1.1-0.1-1.5-0.2c-0.4,0.2-0.7,0.5-0.9,0.8C58.8,211.7,58.8,212,58.8,212.2z
			 M61.1,207.5c0.6,0,1-0.1,1.3-0.4s0.5-0.7,0.5-1.3c0-0.5-0.2-1-0.5-1.3s-0.8-0.4-1.3-0.4c-0.6,0-1,0.1-1.4,0.4
			c-0.3,0.3-0.5,0.7-0.5,1.3c0,0.5,0.2,1,0.5,1.3C60.1,207.4,60.5,207.5,61.1,207.5z"/>
		<path class="st2" d="M66.8,211.2v-11.5h1.3v4.9c0.3-0.5,0.7-0.9,1.1-1.1s1-0.4,1.6-0.4c0.9,0,1.7,0.3,2.2,0.9
			c0.6,0.6,0.8,1.5,0.8,2.6v4.6h-1.3v-4.5c0-1.7-0.7-2.5-2-2.5c-0.7,0-1.3,0.2-1.7,0.7c-0.5,0.5-0.7,1.2-0.7,2.1v4.1L66.8,211.2
			L66.8,211.2z"/>
		<path class="st2" d="M79.1,211.2c-0.7,0-1.3-0.2-1.7-0.5c-0.4-0.3-0.6-1-0.6-1.9v-4.4h-1.4v-1.1h1.4l0.2-1.9h1.2v1.9h2.3v1.1h-2.3
			v4.4c0,0.5,0.1,0.8,0.3,1c0.2,0.2,0.6,0.3,1.1,0.3h0.8v1.2L79.1,211.2L79.1,211.2z"/>
		<path class="st2" d="M90.6,211.3c-0.7,0-1.2-0.1-1.7-0.4s-0.9-0.6-1.2-1.1l-0.1,1.3h-1.2v-11.5h1.3v4.9c0.3-0.4,0.6-0.7,1.1-1
			s1.1-0.5,1.8-0.5c0.8,0,1.5,0.2,2.1,0.5c0.6,0.4,1,0.9,1.4,1.5c0.3,0.6,0.5,1.3,0.5,2.1s-0.2,1.5-0.5,2.1s-0.8,1.1-1.4,1.5
			C92.1,211.2,91.4,211.3,90.6,211.3z M90.5,210.2c0.5,0,1-0.1,1.4-0.4c0.4-0.2,0.7-0.6,1-1c0.2-0.5,0.3-1,0.3-1.6s-0.1-1.1-0.3-1.6
			c-0.2-0.5-0.5-0.8-1-1c-0.4-0.2-0.9-0.4-1.4-0.4s-1,0.1-1.4,0.4c-0.4,0.2-0.7,0.6-1,1c-0.2,0.5-0.3,1-0.3,1.6s0.1,1.1,0.3,1.6
			c0.2,0.5,0.6,0.8,1,1S89.9,210.2,90.5,210.2z"/>
		<path class="st2" d="M100,211.3c-0.8,0-1.4-0.2-2-0.5c-0.6-0.4-1.1-0.8-1.4-1.5c-0.3-0.6-0.5-1.3-0.5-2.2c0-0.8,0.2-1.6,0.5-2.2
			s0.8-1.1,1.4-1.5c0.6-0.3,1.3-0.5,2.1-0.5s1.4,0.2,2,0.5c0.6,0.4,1,0.8,1.3,1.4s0.4,1.2,0.4,1.8c0,0.1,0,0.2,0,0.4
			c0,0.1,0,0.2,0,0.4h-6.3c0,0.6,0.2,1.1,0.4,1.5s0.6,0.7,0.9,0.9c0.4,0.2,0.8,0.3,1.2,0.3c0.6,0,1-0.1,1.4-0.4s0.6-0.6,0.8-1h1.3
			c-0.2,0.7-0.6,1.3-1.2,1.8C101.7,211.1,100.9,211.3,100,211.3z M100,204.2c-0.6,0-1.2,0.2-1.7,0.6s-0.8,1-0.9,1.7h5
			c0-0.7-0.3-1.3-0.7-1.7C101.2,204.4,100.7,204.2,100,204.2z"/>
		<path class="st2" d="M112.9,208.7c-0.4,0-0.9-0.1-1.2-0.2l-0.8,0.8c0.1,0.1,0.3,0.2,0.4,0.2c0.2,0.1,0.4,0.1,0.8,0.2
			s0.8,0.1,1.4,0.2c1.1,0.1,1.8,0.3,2.3,0.7s0.7,1,0.7,1.6c0,0.5-0.1,0.9-0.4,1.3c-0.2,0.4-0.6,0.8-1.2,1c-0.5,0.3-1.2,0.4-2,0.4
			c-0.7,0-1.3-0.1-1.9-0.3s-1-0.5-1.3-0.9s-0.5-0.9-0.5-1.4c0-0.3,0.1-0.6,0.2-1c0.2-0.4,0.5-0.7,0.9-1c-0.2-0.1-0.4-0.2-0.6-0.3
			c-0.2-0.1-0.3-0.2-0.5-0.4v-0.4l1.4-1.3c-0.6-0.5-0.9-1.2-0.9-2.1c0-0.5,0.1-1,0.4-1.4c0.2-0.4,0.6-0.8,1.1-1s1-0.4,1.7-0.4
			c0.5,0,0.9,0.1,1.2,0.2h2.9v1l-1.5,0.1c0.3,0.4,0.5,1,0.5,1.5s-0.1,1-0.4,1.4c-0.2,0.4-0.6,0.8-1.1,1
			C114.1,208.5,113.6,208.7,112.9,208.7z M110.6,212.2c0,0.5,0.2,0.9,0.7,1.2s1,0.4,1.7,0.4s1.2-0.1,1.6-0.4s0.6-0.7,0.6-1.2
			c0-0.3-0.1-0.6-0.4-0.9s-0.8-0.4-1.5-0.4c-0.6,0-1.1-0.1-1.5-0.2c-0.4,0.2-0.7,0.5-0.9,0.8C110.6,211.7,110.6,212,110.6,212.2z
			 M112.9,207.5c0.6,0,1-0.1,1.3-0.4s0.5-0.7,0.5-1.3c0-0.5-0.2-1-0.5-1.3s-0.8-0.4-1.3-0.4c-0.6,0-1,0.1-1.4,0.4
			c-0.3,0.3-0.5,0.7-0.5,1.3c0,0.5,0.2,1,0.5,1.3C111.9,207.4,112.3,207.5,112.9,207.5z"/>
		<path class="st2" d="M121.9,211.3c-0.8,0-1.4-0.2-2-0.5c-0.6-0.4-1.1-0.8-1.4-1.5c-0.3-0.6-0.5-1.3-0.5-2.2c0-0.8,0.2-1.6,0.5-2.2
			c0.3-0.6,0.8-1.1,1.4-1.5c0.6-0.3,1.3-0.5,2.1-0.5s1.4,0.2,2,0.5c0.6,0.4,1,0.8,1.3,1.4s0.5,1.2,0.5,1.8c0,0.1,0,0.2,0,0.4
			c0,0.1,0,0.2,0,0.4h-6.3c0,0.6,0.2,1.1,0.4,1.5s0.6,0.7,0.9,0.9c0.4,0.2,0.8,0.3,1.2,0.3c0.6,0,1-0.1,1.4-0.4s0.6-0.6,0.8-1h1.3
			c-0.2,0.7-0.6,1.3-1.2,1.8C123.6,211.1,122.8,211.3,121.9,211.3z M121.9,204.2c-0.6,0-1.2,0.2-1.7,0.6s-0.8,1-0.9,1.7h5
			c0-0.7-0.3-1.3-0.7-1.7C123.1,204.4,122.5,204.2,121.9,204.2z"/>
		<path class="st2" d="M130.3,211.2c-0.7,0-1.3-0.2-1.7-0.5s-0.6-1-0.6-1.9v-4.4h-1.4v-1.1h1.4l0.2-1.9h1.2v1.9h2.3v1.1h-2.3v4.4
			c0,0.5,0.1,0.8,0.3,1s0.6,0.3,1.1,0.3h0.8v1.2L130.3,211.2L130.3,211.2z"/>
		<path class="st2" d="M136.4,211.2c-0.7,0-1.3-0.2-1.7-0.5s-0.6-1-0.6-1.9v-4.4h-1.4v-1.1h1.4l0.2-1.9h1.2v1.9h2.3v1.1h-2.3v4.4
			c0,0.5,0.1,0.8,0.3,1s0.6,0.3,1.1,0.3h0.8v1.2L136.4,211.2L136.4,211.2z"/>
		<path class="st2" d="M140.3,201.5c-0.3,0-0.5-0.1-0.7-0.3s-0.3-0.4-0.3-0.7s0.1-0.5,0.3-0.6c0.2-0.2,0.4-0.3,0.7-0.3
			s0.5,0.1,0.7,0.3s0.3,0.4,0.3,0.6c0,0.3-0.1,0.5-0.3,0.7S140.6,201.5,140.3,201.5z M139.6,211.2v-7.9h1.3v7.9H139.6z"/>
		<path class="st2" d="M143.3,211.2v-7.9h1.2l0.1,1.4c0.3-0.5,0.6-0.9,1.1-1.2s1-0.4,1.6-0.4c0.9,0,1.7,0.3,2.2,0.9s0.8,1.5,0.8,2.6
			v4.6H149v-4.5c0-1.7-0.7-2.5-2.1-2.5c-0.7,0-1.2,0.2-1.7,0.7c-0.4,0.5-0.7,1.2-0.7,2.1v4.1L143.3,211.2L143.3,211.2z"/>
		<path class="st2" d="M155.6,208.7c-0.4,0-0.9-0.1-1.2-0.2l-0.8,0.8c0.1,0.1,0.3,0.2,0.4,0.2c0.2,0.1,0.4,0.1,0.8,0.2
			c0.3,0,0.8,0.1,1.4,0.2c1.1,0.1,1.8,0.3,2.3,0.7s0.7,1,0.7,1.6c0,0.5-0.1,0.9-0.4,1.3c-0.2,0.4-0.6,0.8-1.1,1
			c-0.5,0.3-1.2,0.4-2,0.4c-0.7,0-1.4-0.1-1.9-0.3c-0.6-0.2-1-0.5-1.3-0.9s-0.5-0.9-0.5-1.4c0-0.3,0.1-0.6,0.2-1
			c0.2-0.4,0.5-0.7,0.9-1c-0.2-0.1-0.4-0.2-0.6-0.3c-0.2-0.1-0.3-0.2-0.5-0.4v-0.4l1.4-1.3c-0.6-0.5-0.9-1.2-0.9-2.1
			c0-0.5,0.1-1,0.4-1.4c0.2-0.4,0.6-0.8,1.1-1s1-0.4,1.7-0.4c0.5,0,0.9,0.1,1.2,0.2h2.9v1l-1.5,0.1c0.3,0.4,0.5,1,0.5,1.5
			s-0.1,1-0.4,1.4c-0.2,0.4-0.6,0.8-1.1,1C156.9,208.5,156.3,208.7,155.6,208.7z M153.3,212.2c0,0.5,0.2,0.9,0.7,1.2s1,0.4,1.7,0.4
			s1.2-0.1,1.6-0.4c0.4-0.3,0.6-0.7,0.6-1.2c0-0.3-0.1-0.6-0.4-0.9s-0.8-0.4-1.5-0.4c-0.6,0-1.1-0.1-1.5-0.2
			c-0.4,0.2-0.7,0.5-0.9,0.8C153.4,211.7,153.3,212,153.3,212.2z M155.6,207.5c0.6,0,1-0.1,1.4-0.4c0.3-0.3,0.5-0.7,0.5-1.3
			c0-0.5-0.2-1-0.5-1.3s-0.8-0.4-1.4-0.4c-0.6,0-1,0.1-1.4,0.4c-0.3,0.3-0.5,0.7-0.5,1.3c0,0.5,0.2,1,0.5,1.3
			C154.6,207.4,155,207.5,155.6,207.5z"/>
		<path class="st2" d="M169.2,211.3c-0.8,0-1.4-0.2-2-0.5s-1.1-0.8-1.4-1.5c-0.3-0.6-0.5-1.4-0.5-2.2s0.2-1.6,0.5-2.2
			s0.8-1.1,1.4-1.5c0.6-0.3,1.3-0.5,2-0.5c0.8,0,1.4,0.2,2,0.5s1.1,0.8,1.4,1.5c0.3,0.6,0.5,1.4,0.5,2.2s-0.2,1.6-0.5,2.2
			s-0.8,1.1-1.4,1.5S169.9,211.3,169.2,211.3z M169.2,210.2c0.5,0,0.9-0.1,1.3-0.3c0.4-0.2,0.7-0.6,1-1c0.2-0.5,0.4-1,0.4-1.7
			s-0.1-1.2-0.4-1.7s-0.6-0.8-0.9-1c-0.4-0.2-0.8-0.3-1.3-0.3s-0.9,0.1-1.3,0.3c-0.4,0.2-0.7,0.6-1,1c-0.2,0.4-0.4,1-0.4,1.7
			s0.1,1.2,0.4,1.7s0.6,0.8,0.9,1C168.3,210.1,168.7,210.2,169.2,210.2z"/>
		<path class="st2" d="M177.9,211.3c-0.9,0-1.7-0.3-2.2-0.9s-0.8-1.5-0.8-2.6v-4.6h1.3v4.5c0,1.7,0.7,2.5,2,2.5
			c0.7,0,1.3-0.2,1.7-0.7s0.7-1.2,0.7-2.1v-4.1h1.3v7.9h-1.2l-0.1-1.4c-0.2,0.5-0.6,0.9-1.1,1.2
			C179.1,211.2,178.5,211.3,177.9,211.3z"/>
		<path class="st2" d="M187.3,211.2c-0.7,0-1.3-0.2-1.7-0.5s-0.6-1-0.6-1.9v-4.4h-1.4v-1.1h1.4l0.2-1.9h1.2v1.9h2.3v1.1h-2.3v4.4
			c0,0.5,0.1,0.8,0.3,1s0.6,0.3,1.1,0.3h0.8v1.2L187.3,211.2L187.3,211.2z"/>
		<path class="st2" d="M195.5,214.7l2-4.3H197l-3.1-7.2h1.5l2.6,6.2l2.8-6.2h1.4l-5.2,11.5H195.5z"/>
		<path class="st2" d="M206.4,211.3c-0.8,0-1.4-0.2-2-0.5s-1.1-0.8-1.4-1.5c-0.3-0.6-0.5-1.4-0.5-2.2s0.2-1.6,0.5-2.2
			s0.8-1.1,1.4-1.5c0.6-0.3,1.3-0.5,2-0.5c0.8,0,1.4,0.2,2,0.5s1.1,0.8,1.4,1.5c0.3,0.6,0.5,1.4,0.5,2.2s-0.2,1.6-0.5,2.2
			c-0.4,0.6-0.8,1.1-1.4,1.5S207.1,211.3,206.4,211.3z M206.4,210.2c0.5,0,0.9-0.1,1.3-0.3c0.4-0.2,0.7-0.6,1-1
			c0.2-0.5,0.4-1,0.4-1.7s-0.1-1.2-0.4-1.7c-0.2-0.4-0.6-0.8-0.9-1c-0.4-0.2-0.8-0.3-1.3-0.3s-0.9,0.1-1.3,0.3c-0.4,0.2-0.7,0.6-1,1
			c-0.2,0.4-0.4,1-0.4,1.7s0.1,1.2,0.4,1.7s0.6,0.8,0.9,1C205.5,210.1,205.9,210.2,206.4,210.2z"/>
		<path class="st2" d="M215.1,211.3c-0.9,0-1.7-0.3-2.2-0.9c-0.6-0.6-0.8-1.5-0.8-2.6v-4.6h1.3v4.5c0,1.7,0.7,2.5,2,2.5
			c0.7,0,1.3-0.2,1.7-0.7s0.7-1.2,0.7-2.1v-4.1h1.3v7.9h-1.2l-0.1-1.4c-0.2,0.5-0.6,0.9-1.1,1.2
			C216.3,211.2,215.7,211.3,215.1,211.3z"/>
		<path class="st2" d="M221.4,211.2v-7.9h1.2l0.1,1.5c0.2-0.5,0.6-0.9,1.1-1.2s1.1-0.5,1.9-0.5v1.4h-0.4c-0.5,0-0.9,0.1-1.3,0.2
			c-0.4,0.2-0.7,0.5-0.9,0.8c-0.2,0.4-0.4,0.9-0.4,1.6v4h-1.3L221.4,211.2L221.4,211.2z"/>
		<path class="st2" d="M29.3,233.3c-0.8,0-1.4-0.2-2-0.5c-0.6-0.4-1.1-0.8-1.4-1.5c-0.3-0.6-0.5-1.3-0.5-2.2s0.2-1.6,0.5-2.2
			c0.4-0.6,0.8-1.1,1.4-1.5c0.6-0.3,1.3-0.5,2-0.5c0.9,0,1.7,0.2,2.4,0.7s1,1.1,1.2,2h-1.4c-0.1-0.5-0.4-0.9-0.8-1.1
			c-0.4-0.3-0.9-0.4-1.5-0.4c-0.5,0-0.9,0.1-1.3,0.3c-0.4,0.2-0.7,0.6-1,1c-0.2,0.5-0.4,1-0.4,1.7s0.1,1.2,0.4,1.7
			c0.2,0.5,0.6,0.8,1,1s0.8,0.3,1.3,0.3s1-0.1,1.5-0.4c0.4-0.3,0.7-0.7,0.8-1.2h1.4c-0.2,0.8-0.6,1.4-1.2,1.9
			C31.1,233.1,30.3,233.3,29.3,233.3z"/>
		<path class="st2" d="M34.8,233.2v-11.5h1.3v11.5H34.8z"/>
		<path class="st2" d="M42,233.3c-0.8,0-1.4-0.2-2-0.5s-1.1-0.8-1.4-1.5s-0.5-1.4-0.5-2.2s0.2-1.6,0.5-2.2s0.8-1.1,1.4-1.5
			c0.6-0.3,1.3-0.5,2-0.5c0.8,0,1.4,0.2,2,0.5s1.1,0.8,1.4,1.5c0.3,0.6,0.5,1.4,0.5,2.2s-0.2,1.6-0.5,2.2s-0.8,1.1-1.4,1.5
			S42.7,233.3,42,233.3z M42,232.2c0.5,0,0.9-0.1,1.3-0.3s0.7-0.6,1-1c0.2-0.5,0.4-1,0.4-1.7s-0.1-1.2-0.4-1.7s-0.6-0.8-1-1
			s-0.8-0.3-1.3-0.3s-0.9,0.1-1.3,0.3s-0.7,0.6-1,1c-0.2,0.4-0.4,1-0.4,1.7s0.1,1.2,0.4,1.7s0.6,0.8,1,1
			C41.1,232.1,41.5,232.2,42,232.2z"/>
		<path class="st2" d="M50.6,233.2c-0.7,0-1.3-0.2-1.7-0.5s-0.6-1-0.6-1.9v-4.4h-1.4v-1.1h1.4l0.2-1.9h1.2v1.9H52v1.1h-2.3v4.4
			c0,0.5,0.1,0.8,0.3,1s0.6,0.3,1.1,0.3h0.8v1.2L50.6,233.2L50.6,233.2z"/>
		<path class="st2" d="M53.7,233.2v-11.5H55v4.9c0.3-0.5,0.7-0.9,1.1-1.1s1-0.4,1.6-0.4c0.9,0,1.7,0.3,2.2,0.9
			c0.6,0.6,0.8,1.5,0.8,2.6v4.6h-1.2v-4.5c0-1.7-0.7-2.5-2-2.5c-0.7,0-1.3,0.2-1.7,0.7c-0.5,0.5-0.7,1.2-0.7,2.1v4.1L53.7,233.2
			L53.7,233.2z"/>
		<path class="st2" d="M66.4,233.3c-0.8,0-1.4-0.2-2-0.5c-0.6-0.4-1.1-0.8-1.4-1.5c-0.3-0.6-0.5-1.3-0.5-2.2c0-0.8,0.2-1.6,0.5-2.2
			s0.8-1.1,1.4-1.5c0.6-0.3,1.3-0.5,2.1-0.5c0.8,0,1.4,0.2,2,0.5c0.6,0.4,1,0.8,1.3,1.4s0.5,1.2,0.5,1.8c0,0.1,0,0.2,0,0.4
			c0,0.1,0,0.2,0,0.4H64c0,0.6,0.2,1.1,0.4,1.5s0.6,0.7,0.9,0.9c0.4,0.2,0.8,0.3,1.2,0.3c0.6,0,1-0.1,1.4-0.4s0.7-0.6,0.8-1H70
			c-0.2,0.7-0.6,1.3-1.2,1.8C68.1,233.1,67.4,233.3,66.4,233.3z M66.4,226.2c-0.6,0-1.2,0.2-1.7,0.6s-0.8,1-0.9,1.7h5
			c0-0.7-0.3-1.3-0.7-1.7C67.7,226.4,67.1,226.2,66.4,226.2z"/>
		<path class="st2" d="M75,233.3c-0.9,0-1.7-0.2-2.4-0.7c-0.6-0.5-1-1.1-1.1-2h1.4c0.1,0.4,0.3,0.8,0.7,1.1c0.4,0.3,0.8,0.5,1.5,0.5
			c0.6,0,1-0.1,1.2-0.4c0.3-0.2,0.4-0.5,0.4-0.9c0-0.5-0.2-0.8-0.5-1s-0.8-0.3-1.5-0.4c-0.4-0.1-0.8-0.2-1.3-0.4
			c-0.4-0.2-0.8-0.4-1.1-0.7s-0.4-0.7-0.4-1.2c0-0.7,0.3-1.3,0.8-1.7s1.2-0.7,2.1-0.7c0.8,0,1.5,0.2,2.1,0.6c0.5,0.4,0.8,1,0.9,1.8
			h-1.3c0-0.4-0.2-0.7-0.5-0.9s-0.7-0.3-1.2-0.3s-0.8,0.1-1.1,0.3c-0.3,0.2-0.4,0.5-0.4,0.8s0.2,0.6,0.5,0.8s0.8,0.3,1.4,0.5
			c0.5,0.1,1,0.2,1.4,0.4s0.8,0.4,1.1,0.7c0.3,0.3,0.4,0.7,0.4,1.3c0,0.7-0.3,1.3-0.8,1.8C76.7,233.1,75.9,233.3,75,233.3z"/>
		<path class="st2" d="M84.6,233.2v-6.8h-1.2v-1.1h1.2v-1.4c0-0.8,0.2-1.3,0.6-1.7s0.9-0.5,1.7-0.5h0.8v1.2h-0.6
			c-0.4,0-0.7,0.1-0.9,0.2c-0.2,0.2-0.3,0.4-0.3,0.8v1.3h1.9v1.1h-1.9v6.8L84.6,233.2L84.6,233.2z"/>
		<path class="st2" d="M92.8,233.3c-0.8,0-1.4-0.2-2-0.5s-1.1-0.8-1.4-1.5c-0.3-0.6-0.5-1.4-0.5-2.2s0.2-1.6,0.5-2.2
			s0.8-1.1,1.4-1.5c0.6-0.3,1.3-0.5,2-0.5c0.8,0,1.4,0.2,2,0.5s1.1,0.8,1.4,1.5c0.3,0.6,0.5,1.4,0.5,2.2s-0.2,1.6-0.5,2.2
			s-0.8,1.1-1.4,1.5S93.6,233.3,92.8,233.3z M92.8,232.2c0.5,0,0.9-0.1,1.3-0.3s0.7-0.6,1-1c0.2-0.5,0.4-1,0.4-1.7s-0.1-1.2-0.4-1.7
			s-0.6-0.8-0.9-1c-0.4-0.2-0.8-0.3-1.3-0.3s-0.9,0.1-1.3,0.3s-0.7,0.6-1,1c-0.2,0.4-0.4,1-0.4,1.7s0.1,1.2,0.4,1.7s0.6,0.8,0.9,1
			C91.9,232.1,92.4,232.2,92.8,232.2z"/>
		<path class="st2" d="M98.7,233.2v-7.9h1.2l0.1,1.5c0.2-0.5,0.6-0.9,1.1-1.2s1.1-0.5,1.9-0.5v1.4h-0.4c-0.5,0-0.9,0.1-1.3,0.2
			c-0.4,0.2-0.7,0.5-0.9,0.8c-0.2,0.4-0.4,0.9-0.4,1.6v4h-1.3C98.7,233.1,98.7,233.2,98.7,233.2z"/>
		<path class="st2" d="M111.9,233.2c-0.7,0-1.3-0.2-1.7-0.5s-0.6-1-0.6-1.9v-4.4h-1.4v-1.1h1.4l0.2-1.9h1.2v1.9h2.3v1.1H111v4.4
			c0,0.5,0.1,0.8,0.3,1s0.6,0.3,1.1,0.3h0.8v1.2L111.9,233.2L111.9,233.2z"/>
		<path class="st2" d="M118.3,233.3c-0.8,0-1.4-0.2-2-0.5s-1.1-0.8-1.4-1.5c-0.4-0.6-0.5-1.4-0.5-2.2s0.2-1.6,0.5-2.2
			c0.4-0.6,0.8-1.1,1.4-1.5c0.6-0.3,1.3-0.5,2-0.5c0.8,0,1.4,0.2,2,0.5s1.1,0.8,1.4,1.5c0.4,0.6,0.5,1.4,0.5,2.2s-0.2,1.6-0.5,2.2
			s-0.8,1.1-1.4,1.5S119.1,233.3,118.3,233.3z M118.3,232.2c0.5,0,0.9-0.1,1.3-0.3c0.4-0.2,0.7-0.6,1-1c0.2-0.5,0.4-1,0.4-1.7
			s-0.1-1.2-0.4-1.7c-0.2-0.4-0.6-0.8-0.9-1c-0.4-0.2-0.8-0.3-1.3-0.3s-0.9,0.1-1.3,0.3c-0.4,0.2-0.7,0.6-1,1
			c-0.2,0.4-0.4,1-0.4,1.7s0.1,1.2,0.4,1.7s0.6,0.8,0.9,1C117.4,232.1,117.9,232.2,118.3,232.2z"/>
		<path class="st2" d="M124.2,233.2v-7.9h1.2l0.1,1.1c0.3-0.4,0.6-0.8,1-1s0.9-0.3,1.4-0.3c0.6,0,1.2,0.1,1.6,0.4
			c0.4,0.3,0.8,0.6,1.1,1.2c0.3-0.5,0.7-0.9,1.1-1.1c0.5-0.3,1-0.4,1.6-0.4c0.9,0,1.7,0.3,2.3,0.9s0.8,1.5,0.8,2.6v4.6h-1.3v-4.5
			c0-0.8-0.2-1.4-0.5-1.9c-0.3-0.4-0.8-0.6-1.4-0.6c-0.6,0-1.2,0.2-1.6,0.7c-0.4,0.5-0.6,1.2-0.6,2.1v4.1h-1.3v-4.5
			c0-0.8-0.2-1.4-0.5-1.9c-0.3-0.4-0.8-0.6-1.4-0.6c-0.6,0-1.2,0.2-1.6,0.7c-0.4,0.5-0.6,1.2-0.6,2.1v4.1L124.2,233.2L124.2,233.2z"
			/>
		<path class="st2" d="M142.1,233.3c-0.8,0-1.4-0.2-2-0.5s-1.1-0.8-1.4-1.5c-0.4-0.6-0.5-1.4-0.5-2.2s0.2-1.6,0.5-2.2
			c0.4-0.6,0.8-1.1,1.4-1.5c0.6-0.3,1.3-0.5,2-0.5s1.4,0.2,2,0.5s1.1,0.8,1.4,1.5c0.4,0.6,0.5,1.4,0.5,2.2s-0.2,1.6-0.5,2.2
			c-0.4,0.6-0.8,1.1-1.4,1.5C143.5,233.2,142.8,233.3,142.1,233.3z M142.1,232.2c0.5,0,0.9-0.1,1.3-0.3c0.4-0.2,0.7-0.6,1-1
			c0.2-0.5,0.4-1,0.4-1.7s-0.1-1.2-0.4-1.7c-0.2-0.5-0.6-0.8-1-1s-0.8-0.3-1.3-0.3s-0.9,0.1-1.3,0.3c-0.4,0.2-0.7,0.6-1,1
			c-0.2,0.4-0.4,1-0.4,1.7s0.1,1.2,0.4,1.7c0.2,0.4,0.6,0.8,1,1C141.2,232.1,141.6,232.2,142.1,232.2z"/>
		<path class="st2" d="M147.9,233.2v-7.9h1.2l0.1,1.5c0.2-0.5,0.6-0.9,1.1-1.2s1.1-0.5,1.9-0.5v1.4h-0.4c-0.5,0-0.9,0.1-1.3,0.2
			c-0.4,0.2-0.7,0.5-0.9,0.8c-0.2,0.4-0.3,0.9-0.3,1.6v4h-1.4L147.9,233.2L147.9,233.2z"/>
		<path class="st2" d="M153.8,233.2v-7.9h1.2l0.1,1.5c0.2-0.5,0.6-0.9,1.1-1.2s1.1-0.5,1.9-0.5v1.4h-0.4c-0.5,0-0.9,0.1-1.3,0.2
			c-0.4,0.2-0.7,0.5-0.9,0.8c-0.2,0.4-0.4,0.9-0.4,1.6v4h-1.3L153.8,233.2L153.8,233.2z"/>
		<path class="st2" d="M162.9,233.3c-0.8,0-1.4-0.2-2-0.5s-1.1-0.8-1.4-1.5c-0.4-0.6-0.5-1.4-0.5-2.2s0.2-1.6,0.5-2.2
			c0.4-0.6,0.8-1.1,1.4-1.5c0.6-0.3,1.3-0.5,2-0.5s1.4,0.2,2,0.5s1.1,0.8,1.4,1.5c0.4,0.6,0.5,1.4,0.5,2.2s-0.2,1.6-0.5,2.2
			c-0.4,0.6-0.8,1.1-1.4,1.5S163.6,233.3,162.9,233.3z M162.9,232.2c0.5,0,0.9-0.1,1.3-0.3c0.4-0.2,0.7-0.6,1-1
			c0.2-0.5,0.4-1,0.4-1.7s-0.1-1.2-0.4-1.7c-0.2-0.5-0.6-0.8-1-1s-0.8-0.3-1.3-0.3s-0.9,0.1-1.3,0.3c-0.4,0.2-0.7,0.6-1,1
			c-0.2,0.4-0.4,1-0.4,1.7s0.1,1.2,0.4,1.7c0.2,0.4,0.6,0.8,1,1S162.4,232.2,162.9,232.2z"/>
		<path class="st2" d="M170,233.2l-2.3-7.9h1.3l1.7,6.2l1.9-6.2h1.5l1.9,6.2l1.7-6.2h1.4l-2.3,7.9h-1.4l-1.9-6.5l-2,6.5H170z"/>
		<path class="st2" d="M178.9,235.1l0.9-3.5h1.4l-1.4,3.5H178.9z"/>
		<path class="st2" d="M187.1,233.2v-7.9h1.2l0.1,1.5c0.2-0.5,0.6-0.9,1.1-1.2s1.1-0.5,1.9-0.5v1.4H191c-0.5,0-0.9,0.1-1.3,0.2
			c-0.4,0.2-0.7,0.5-0.9,0.8c-0.2,0.4-0.4,0.9-0.4,1.6v4h-1.3L187.1,233.2L187.1,233.2z"/>
		<path class="st2" d="M196.2,233.3c-0.8,0-1.4-0.2-2-0.5c-0.6-0.4-1.1-0.8-1.4-1.5c-0.3-0.6-0.5-1.3-0.5-2.2c0-0.8,0.2-1.6,0.5-2.2
			s0.8-1.1,1.4-1.5c0.6-0.3,1.3-0.5,2.1-0.5s1.4,0.2,2,0.5c0.6,0.4,1,0.8,1.3,1.4s0.4,1.2,0.4,1.8c0,0.1,0,0.2,0,0.4
			c0,0.1,0,0.2,0,0.4h-6.3c0,0.6,0.2,1.1,0.4,1.5s0.6,0.7,0.9,0.9c0.4,0.2,0.8,0.3,1.2,0.3c0.6,0,1-0.1,1.4-0.4s0.6-0.6,0.8-1h1.3
			c-0.2,0.7-0.6,1.3-1.2,1.8C197.9,233.1,197.1,233.3,196.2,233.3z M196.2,226.2c-0.6,0-1.2,0.2-1.7,0.6s-0.8,1-0.9,1.7h5
			c0-0.7-0.3-1.3-0.7-1.7C197.4,226.4,196.9,226.2,196.2,226.2z"/>
		<path class="st2" d="M204.4,233.3c-0.7,0-1.2-0.1-1.7-0.3c-0.4-0.2-0.8-0.5-1-0.9s-0.3-0.8-0.3-1.2c0-0.8,0.3-1.4,0.9-1.9
			s1.5-0.7,2.5-0.7h2.1v-0.1c0-0.7-0.2-1.2-0.5-1.6s-0.9-0.5-1.5-0.5c-0.5,0-1,0.1-1.4,0.4s-0.6,0.6-0.7,1.1h-1.4
			c0.1-0.6,0.2-1.1,0.6-1.5c0.3-0.4,0.8-0.7,1.3-0.9s1-0.3,1.6-0.3c1.1,0,1.9,0.3,2.5,0.9s0.8,1.4,0.8,2.4v4.9H207l-0.1-1.4
			c-0.2,0.4-0.6,0.8-1,1.1C205.7,233.2,205.1,233.3,204.4,233.3z M204.6,232.2c0.5,0,0.9-0.1,1.3-0.4c0.4-0.3,0.6-0.6,0.8-1
			s0.3-0.9,0.3-1.3l0,0h-2c-0.8,0-1.3,0.1-1.7,0.4c-0.3,0.3-0.5,0.6-0.5,1s0.1,0.8,0.5,1C203.6,232.1,204,232.2,204.6,232.2z"/>
		<path class="st2" d="M214,233.3c-0.8,0-1.5-0.2-2.1-0.5c-0.6-0.4-1-0.9-1.4-1.5s-0.5-1.3-0.5-2.1s0.2-1.5,0.5-2.1s0.8-1.1,1.4-1.5
			s1.3-0.5,2.1-0.5c0.6,0,1.2,0.1,1.7,0.4s0.9,0.6,1.2,1.1v-4.9h1.3v11.5H217l-0.1-1.3c-0.3,0.4-0.6,0.7-1.1,1
			C215.3,233.2,214.7,233.3,214,233.3z M214.1,232.2c0.5,0,1-0.1,1.4-0.4s0.7-0.6,1-1c0.2-0.5,0.3-1,0.3-1.6s-0.1-1.1-0.3-1.6
			s-0.6-0.8-1-1s-0.9-0.4-1.4-0.4s-1,0.1-1.4,0.4c-0.4,0.2-0.7,0.6-1,1s-0.3,1-0.3,1.6s0.1,1.1,0.3,1.6s0.6,0.8,1,1
			S213.6,232.2,214.1,232.2z"/>
		<path class="st2" d="M221.2,223.5c-0.3,0-0.5-0.1-0.7-0.3s-0.3-0.4-0.3-0.7s0.1-0.5,0.3-0.6c0.2-0.2,0.4-0.3,0.7-0.3
			s0.5,0.1,0.7,0.3s0.3,0.4,0.3,0.6c0,0.3-0.1,0.5-0.3,0.7S221.5,223.5,221.2,223.5z M220.6,233.2v-7.9h1.3v7.9H220.6z"/>
		<path class="st2" d="M224.2,233.2v-7.9h1.2l0.1,1.4c0.3-0.5,0.6-0.9,1.1-1.2s1-0.4,1.6-0.4c0.9,0,1.7,0.3,2.2,0.9s0.8,1.5,0.8,2.6
			v4.6h-1.3v-4.5c0-1.7-0.7-2.5-2-2.5c-0.7,0-1.2,0.2-1.7,0.7c-0.4,0.5-0.7,1.2-0.7,2.1v4.1L224.2,233.2L224.2,233.2z"/>
		<path class="st2" d="M236.5,230.7c-0.5,0-0.9-0.1-1.2-0.2l-0.8,0.8c0.1,0.1,0.3,0.2,0.4,0.2s0.4,0.1,0.8,0.2
			c0.3,0,0.8,0.1,1.4,0.2c1.1,0.1,1.8,0.3,2.3,0.7s0.7,1,0.7,1.6c0,0.5-0.1,0.9-0.4,1.3c-0.2,0.4-0.6,0.8-1.1,1
			c-0.5,0.3-1.2,0.4-2,0.4c-0.7,0-1.3-0.1-1.9-0.3c-0.5-0.2-1-0.5-1.3-0.9s-0.5-0.9-0.5-1.4c0-0.3,0.1-0.6,0.2-1
			c0.2-0.4,0.5-0.7,0.9-1c-0.2-0.1-0.4-0.2-0.6-0.3s-0.3-0.2-0.5-0.4v-0.4l1.4-1.3c-0.6-0.5-0.9-1.2-0.9-2.1c0-0.5,0.1-1,0.4-1.4
			c0.2-0.4,0.6-0.8,1.1-1s1-0.4,1.7-0.4c0.5,0,0.9,0.1,1.2,0.2h2.9v1l-1.5,0.1c0.3,0.4,0.5,1,0.5,1.5s-0.1,1-0.4,1.4
			c-0.2,0.4-0.6,0.8-1.1,1C237.8,230.5,237.2,230.7,236.5,230.7z M234.2,234.2c0,0.5,0.2,0.9,0.7,1.2s1,0.4,1.7,0.4s1.2-0.1,1.6-0.4
			c0.4-0.3,0.6-0.7,0.6-1.2c0-0.3-0.1-0.6-0.4-0.9s-0.8-0.4-1.5-0.4c-0.6,0-1.1-0.1-1.5-0.2c-0.4,0.2-0.7,0.5-0.9,0.8
			C234.3,233.7,234.2,234,234.2,234.2z M236.5,229.5c0.6,0,1-0.1,1.4-0.4c0.3-0.3,0.5-0.7,0.5-1.3c0-0.5-0.2-1-0.5-1.3
			s-0.8-0.4-1.4-0.4s-1,0.1-1.4,0.4c-0.3,0.3-0.5,0.7-0.5,1.3c0,0.5,0.2,1,0.5,1.3C235.5,229.4,236,229.5,236.5,229.5z"/>
		<path class="st2" d="M241.1,235.1l0.9-3.5h1.4l-1.4,3.5H241.1z"/>
		<path class="st2" d="M32.2,258.7v-4.8c-0.3,0.4-0.6,0.7-1.1,1s-1.1,0.5-1.8,0.5c-0.8,0-1.5-0.2-2.1-0.5s-1-0.9-1.4-1.5
			c-0.3-0.6-0.5-1.3-0.5-2.1s0.2-1.5,0.5-2.1s0.8-1.1,1.4-1.5s1.3-0.5,2.1-0.5c0.7,0,1.2,0.1,1.7,0.4s0.9,0.6,1.2,1.1l0.1-1.3h1.2
			v11.5h-1.3C32.2,258.9,32.2,258.7,32.2,258.7z M29.4,254.2c0.5,0,1-0.1,1.4-0.4c0.4-0.2,0.7-0.6,1-1s0.3-1,0.3-1.6
			s-0.1-1.1-0.3-1.6s-0.6-0.8-1-1s-0.9-0.4-1.4-0.4s-1,0.1-1.4,0.4s-0.7,0.6-1,1s-0.3,1-0.3,1.6s0.1,1.1,0.3,1.6s0.5,0.8,1,1
			S28.9,254.2,29.4,254.2z"/>
		<path class="st2" d="M38.6,255.3c-0.9,0-1.7-0.3-2.2-0.9s-0.8-1.5-0.8-2.6v-4.6h1.3v4.5c0,1.7,0.7,2.5,2,2.5
			c0.7,0,1.3-0.2,1.7-0.7s0.7-1.2,0.7-2.1v-4.1h1.3v7.9h-1.2l-0.1-1.4c-0.2,0.5-0.6,0.9-1.1,1.2C39.8,255.2,39.2,255.3,38.6,255.3z"
			/>
		<path class="st2" d="M45.7,245.5c-0.3,0-0.5-0.1-0.7-0.3s-0.3-0.4-0.3-0.7s0.1-0.5,0.3-0.6c0.2-0.2,0.4-0.3,0.7-0.3
			s0.5,0.1,0.7,0.3s0.3,0.4,0.3,0.6c0,0.3-0.1,0.5-0.3,0.7C46.2,245.4,45.9,245.5,45.7,245.5z M45,255.2v-7.9h1.3v7.9H45z"/>
		<path class="st2" d="M52.3,255.3c-0.8,0-1.4-0.2-2-0.5c-0.6-0.4-1.1-0.8-1.4-1.5c-0.3-0.6-0.5-1.3-0.5-2.2c0-0.8,0.2-1.6,0.5-2.2
			s0.8-1.1,1.4-1.5c0.6-0.3,1.3-0.5,2.1-0.5s1.4,0.2,2,0.5c0.6,0.4,1,0.8,1.3,1.4c0.3,0.6,0.5,1.2,0.5,1.8c0,0.1,0,0.2,0,0.4
			c0,0.1,0,0.2,0,0.4h-6.3c0,0.6,0.2,1.1,0.4,1.5s0.6,0.7,0.9,0.9c0.4,0.2,0.8,0.3,1.2,0.3c0.6,0,1-0.1,1.4-0.4s0.6-0.6,0.8-1h1.3
			c-0.2,0.7-0.6,1.3-1.2,1.8C54,255.1,53.2,255.3,52.3,255.3z M52.3,248.2c-0.6,0-1.2,0.2-1.7,0.6s-0.8,1-0.9,1.7h5
			c0-0.7-0.3-1.3-0.7-1.7C53.5,248.4,52.9,248.2,52.3,248.2z"/>
		<path class="st2" d="M60.7,255.2c-0.7,0-1.3-0.2-1.7-0.5c-0.4-0.3-0.6-1-0.6-1.9v-4.4H57v-1.1h1.4l0.2-1.9h1.2v1.9h2.3v1.1h-2.3
			v4.4c0,0.5,0.1,0.8,0.3,1c0.2,0.2,0.6,0.3,1.1,0.3H62v1.2L60.7,255.2L60.7,255.2z"/>
		<path class="st2" d="M68,255.2v-7.9h1.2l0.1,1.1c0.3-0.4,0.6-0.8,1-1s0.9-0.3,1.4-0.3c0.6,0,1.2,0.1,1.6,0.4s0.8,0.6,1,1.2
			c0.3-0.5,0.7-0.9,1.1-1.1c0.5-0.3,1-0.4,1.6-0.4c0.9,0,1.7,0.3,2.3,0.9c0.6,0.6,0.8,1.5,0.8,2.6v4.6h-1.3v-4.5
			c0-0.8-0.2-1.4-0.5-1.9c-0.3-0.4-0.8-0.6-1.4-0.6s-1.2,0.2-1.6,0.7s-0.6,1.2-0.6,2.1v4.1h-1.3v-4.5c0-0.8-0.2-1.4-0.5-1.9
			c-0.3-0.4-0.8-0.6-1.4-0.6s-1.2,0.2-1.6,0.7s-0.6,1.2-0.6,2.1v4.1L68,255.2L68,255.2z"/>
		<path class="st2" d="M85.2,255.3c-0.9,0-1.7-0.3-2.2-0.9c-0.6-0.6-0.8-1.5-0.8-2.6v-4.6h1.3v4.5c0,1.7,0.7,2.5,2,2.5
			c0.7,0,1.3-0.2,1.7-0.7c0.5-0.5,0.7-1.2,0.7-2.1v-4.1h1.3v7.9H88l-0.1-1.4c-0.2,0.5-0.6,0.9-1.1,1.2
			C86.3,255.2,85.8,255.3,85.2,255.3z"/>
		<path class="st2" d="M94.5,255.3c-1,0-1.7-0.2-2.4-0.7s-1-1.1-1.1-2h1.4c0.1,0.4,0.3,0.8,0.7,1.1c0.4,0.3,0.8,0.5,1.4,0.5
			s1-0.1,1.2-0.4s0.4-0.5,0.4-0.9c0-0.5-0.2-0.8-0.5-1s-0.8-0.3-1.5-0.4c-0.4-0.1-0.8-0.2-1.3-0.4c-0.4-0.2-0.8-0.4-1.1-0.7
			s-0.4-0.7-0.4-1.2c0-0.7,0.3-1.3,0.8-1.7s1.2-0.7,2.1-0.7c0.8,0,1.5,0.2,2.1,0.6c0.5,0.4,0.9,1,0.9,1.8h-1.3
			c0-0.4-0.2-0.7-0.5-0.9s-0.7-0.3-1.2-0.3s-0.8,0.1-1.1,0.3c-0.3,0.2-0.4,0.5-0.4,0.8s0.2,0.6,0.5,0.8s0.8,0.3,1.4,0.5
			c0.5,0.1,1,0.2,1.4,0.4s0.8,0.4,1.1,0.7c0.3,0.3,0.4,0.7,0.4,1.3c0,0.7-0.3,1.3-0.8,1.8C96.2,255.1,95.4,255.3,94.5,255.3z"/>
		<path class="st2" d="M100.3,245.5c-0.3,0-0.5-0.1-0.7-0.3s-0.3-0.4-0.3-0.7s0.1-0.5,0.3-0.6c0.2-0.2,0.4-0.3,0.7-0.3
			c0.3,0,0.5,0.1,0.7,0.3s0.3,0.4,0.3,0.6c0,0.3-0.1,0.5-0.3,0.7C100.7,245.4,100.5,245.5,100.3,245.5z M99.6,255.2v-7.9h1.3v7.9
			H99.6z"/>
		<path class="st2" d="M106.9,255.3c-0.8,0-1.4-0.2-2-0.5c-0.6-0.4-1.1-0.8-1.4-1.5c-0.3-0.6-0.5-1.3-0.5-2.2s0.2-1.6,0.5-2.2
			c0.4-0.6,0.8-1.1,1.4-1.5c0.6-0.3,1.3-0.5,2-0.5c0.9,0,1.7,0.2,2.4,0.7s1.1,1.1,1.2,2h-1.4c-0.1-0.5-0.4-0.9-0.8-1.1
			c-0.4-0.3-0.9-0.4-1.5-0.4c-0.4,0-0.9,0.1-1.3,0.3c-0.4,0.2-0.7,0.6-1,1c-0.2,0.5-0.4,1-0.4,1.7s0.1,1.2,0.4,1.7
			c0.2,0.5,0.6,0.8,1,1s0.8,0.3,1.3,0.3c0.6,0,1-0.1,1.5-0.4c0.4-0.3,0.7-0.7,0.8-1.2h1.4c-0.2,0.8-0.6,1.4-1.2,1.9
			C108.6,255.1,107.9,255.3,106.9,255.3z"/>
		<path class="st2" d="M111.3,257.1l0.9-3.5h1.4l-1.4,3.5H111.3z"/>
		<path class="st2" d="M119.5,255.2v-7.9h1.2l0.1,1.1c0.3-0.4,0.6-0.8,1-1s0.9-0.3,1.4-0.3c0.6,0,1.2,0.1,1.6,0.4
			c0.5,0.3,0.8,0.6,1.1,1.2c0.3-0.5,0.7-0.9,1.1-1.1c0.5-0.3,1-0.4,1.6-0.4c0.9,0,1.7,0.3,2.3,0.9s0.8,1.5,0.8,2.6v4.6h-1.3v-4.5
			c0-0.8-0.2-1.4-0.5-1.9c-0.3-0.4-0.8-0.6-1.4-0.6c-0.6,0-1.2,0.2-1.6,0.7c-0.4,0.5-0.6,1.2-0.6,2.1v4.1H125v-4.5
			c0-0.8-0.2-1.4-0.5-1.9c-0.3-0.4-0.8-0.6-1.4-0.6c-0.6,0-1.1,0.2-1.6,0.7c-0.4,0.5-0.6,1.2-0.6,2.1v4.1L119.5,255.2L119.5,255.2z"
			/>
		<path class="st2" d="M137.4,255.3c-0.8,0-1.4-0.2-2-0.5c-0.6-0.4-1.1-0.8-1.4-1.5c-0.3-0.6-0.5-1.3-0.5-2.2c0-0.8,0.2-1.6,0.5-2.2
			s0.8-1.1,1.4-1.5c0.6-0.3,1.3-0.5,2.1-0.5s1.4,0.2,2,0.5c0.6,0.4,1,0.8,1.3,1.4s0.5,1.2,0.5,1.8c0,0.1,0,0.2,0,0.4
			c0,0.1,0,0.2,0,0.4H135c0,0.6,0.2,1.1,0.4,1.5s0.6,0.7,0.9,0.9c0.4,0.2,0.8,0.3,1.2,0.3c0.6,0,1-0.1,1.4-0.4s0.6-0.6,0.8-1h1.3
			c-0.2,0.7-0.6,1.3-1.2,1.8C139.1,255.1,138.3,255.3,137.4,255.3z M137.4,248.2c-0.6,0-1.2,0.2-1.7,0.6s-0.8,1-0.9,1.7h5
			c0-0.7-0.3-1.3-0.7-1.7C138.6,248.4,138,248.2,137.4,248.2z"/>
		<path class="st2" d="M146.5,255.3c-0.8,0-1.5-0.2-2.1-0.5c-0.6-0.4-1-0.9-1.4-1.5s-0.5-1.3-0.5-2.1s0.2-1.5,0.5-2.1
			s0.8-1.1,1.4-1.5s1.3-0.5,2.1-0.5c0.6,0,1.2,0.1,1.7,0.4s0.9,0.6,1.2,1.1v-4.9h1.3v11.5h-1.2l-0.1-1.3c-0.3,0.4-0.6,0.7-1.1,1
			C147.8,255.2,147.2,255.3,146.5,255.3z M146.6,254.2c0.5,0,1-0.1,1.4-0.4s0.7-0.6,1-1c0.2-0.5,0.3-1,0.3-1.6s-0.1-1.1-0.3-1.6
			s-0.6-0.8-1-1s-0.9-0.4-1.4-0.4s-1,0.1-1.4,0.4c-0.4,0.2-0.7,0.6-1,1s-0.3,1-0.3,1.6s0.1,1.1,0.3,1.6s0.6,0.8,1,1
			S146.1,254.2,146.6,254.2z"/>
		<path class="st2" d="M153.8,245.5c-0.3,0-0.5-0.1-0.7-0.3s-0.3-0.4-0.3-0.7s0.1-0.5,0.3-0.6c0.2-0.2,0.4-0.3,0.7-0.3
			s0.5,0.1,0.7,0.3s0.3,0.4,0.3,0.6c0,0.3-0.1,0.5-0.3,0.7C154.2,245.4,154,245.5,153.8,245.5z M153.1,255.2v-7.9h1.3v7.9H153.1z"/>
		<path class="st2" d="M159.9,255.2c-0.7,0-1.3-0.2-1.7-0.5s-0.6-1-0.6-1.9v-4.4h-1.4v-1.1h1.4l0.2-1.9h1.2v1.9h2.3v1.1H159v4.4
			c0,0.5,0.1,0.8,0.3,1s0.6,0.3,1.1,0.3h0.8v1.2L159.9,255.2L159.9,255.2z"/>
		<path class="st2" d="M165.6,255.3c-0.7,0-1.2-0.1-1.7-0.3c-0.4-0.2-0.8-0.5-1-0.9s-0.3-0.8-0.3-1.2c0-0.8,0.3-1.4,0.9-1.9
			s1.5-0.7,2.5-0.7h2.1v-0.1c0-0.7-0.2-1.2-0.5-1.6s-0.9-0.5-1.5-0.5c-0.5,0-1,0.1-1.4,0.4s-0.6,0.6-0.7,1.1h-1.4
			c0.1-0.6,0.2-1.1,0.6-1.5c0.3-0.4,0.8-0.7,1.3-0.9s1-0.3,1.6-0.3c1.1,0,1.9,0.3,2.5,0.9s0.8,1.4,0.8,2.4v4.9h-1.2l-0.1-1.4
			c-0.2,0.4-0.6,0.8-1,1.1C166.9,255.2,166.3,255.3,165.6,255.3z M165.8,254.2c0.5,0,0.9-0.1,1.3-0.4c0.4-0.3,0.6-0.6,0.8-1
			s0.3-0.9,0.3-1.3l0,0h-2c-0.8,0-1.3,0.1-1.7,0.4c-0.3,0.3-0.5,0.6-0.5,1s0.1,0.8,0.5,1C164.8,254.1,165.3,254.2,165.8,254.2z"/>
		<path class="st2" d="M174.5,255.2c-0.7,0-1.3-0.2-1.7-0.5s-0.6-1-0.6-1.9v-4.4h-1.4v-1.1h1.4l0.2-1.9h1.2v1.9h2.3v1.1h-2.3v4.4
			c0,0.5,0.1,0.8,0.3,1s0.6,0.3,1.1,0.3h0.8v1.2L174.5,255.2L174.5,255.2z"/>
		<path class="st2" d="M178.4,245.5c-0.3,0-0.5-0.1-0.7-0.3s-0.3-0.4-0.3-0.7s0.1-0.5,0.3-0.6c0.2-0.2,0.4-0.3,0.7-0.3
			s0.5,0.1,0.7,0.3s0.3,0.4,0.3,0.6c0,0.3-0.1,0.5-0.3,0.7S178.7,245.5,178.4,245.5z M177.7,255.2v-7.9h1.3v7.9H177.7z"/>
		<path class="st2" d="M185,255.3c-0.8,0-1.4-0.2-2-0.5s-1.1-0.8-1.4-1.5c-0.4-0.6-0.5-1.4-0.5-2.2s0.2-1.6,0.5-2.2
			c0.4-0.6,0.8-1.1,1.4-1.5c0.6-0.3,1.3-0.5,2-0.5c0.8,0,1.4,0.2,2,0.5s1.1,0.8,1.4,1.5c0.4,0.6,0.5,1.4,0.5,2.2s-0.2,1.6-0.5,2.2
			s-0.8,1.1-1.4,1.5S185.8,255.3,185,255.3z M185,254.2c0.5,0,0.9-0.1,1.3-0.3c0.4-0.2,0.7-0.6,1-1c0.2-0.5,0.4-1,0.4-1.7
			s-0.1-1.2-0.4-1.7c-0.2-0.4-0.6-0.8-0.9-1c-0.4-0.2-0.8-0.3-1.3-0.3s-0.9,0.1-1.3,0.3c-0.4,0.2-0.7,0.6-1,1
			c-0.2,0.4-0.4,1-0.4,1.7s0.1,1.2,0.4,1.7s0.6,0.8,0.9,1C184.2,254.1,184.6,254.2,185,254.2z"/>
		<path class="st2" d="M190.9,255.2v-7.9h1.2l0.1,1.4c0.3-0.5,0.6-0.9,1.1-1.2s1-0.4,1.6-0.4c0.9,0,1.7,0.3,2.2,0.9s0.8,1.5,0.8,2.6
			v4.6h-1.3v-4.5c0-1.7-0.7-2.5-2.1-2.5c-0.7,0-1.2,0.2-1.7,0.7c-0.4,0.5-0.7,1.2-0.7,2.1v4.1L190.9,255.2L190.9,255.2z"/>
		<path class="st2" d="M199,257.1l0.9-3.5h1.4l-1.4,3.5H199z"/>
		<path class="st2" d="M28.7,277.3c-1,0-1.7-0.2-2.4-0.7c-0.6-0.5-1-1.1-1.1-2h1.4c0.1,0.4,0.3,0.8,0.7,1.1s0.8,0.5,1.5,0.5
			c0.6,0,1-0.1,1.2-0.4c0.3-0.2,0.4-0.5,0.4-0.9c0-0.5-0.2-0.8-0.5-1s-0.8-0.3-1.5-0.4c-0.4-0.1-0.8-0.2-1.3-0.4
			c-0.4-0.2-0.8-0.4-1.1-0.7s-0.4-0.7-0.4-1.2c0-0.7,0.3-1.3,0.8-1.7s1.2-0.7,2.1-0.7c0.8,0,1.5,0.2,2.1,0.6c0.5,0.4,0.8,1,0.9,1.8
			h-1.3c0-0.4-0.2-0.7-0.5-0.9S29,270,28.5,270s-0.9,0.1-1.1,0.3c-0.3,0.2-0.4,0.5-0.4,0.8s0.2,0.6,0.5,0.8s0.8,0.3,1.4,0.5
			c0.5,0.1,1,0.2,1.4,0.4s0.8,0.4,1.1,0.7s0.4,0.7,0.4,1.3c0,0.7-0.3,1.3-0.8,1.8C30.4,277.1,29.7,277.3,28.7,277.3z"/>
		<path class="st2" d="M36.5,277.2c-0.7,0-1.3-0.2-1.7-0.5s-0.6-1-0.6-1.9v-4.4h-1.4v-1.1h1.4l0.2-1.9h1.1v1.9h2.3v1.1h-2.3v4.4
			c0,0.5,0.1,0.8,0.3,1s0.6,0.3,1.1,0.3h0.8v1.2L36.5,277.2L36.5,277.2z"/>
		<path class="st2" d="M39.5,277.2v-7.9h1.2l0.1,1.5c0.2-0.5,0.6-0.9,1.1-1.2s1.1-0.5,1.9-0.5v1.4h-0.3c-0.5,0-0.9,0.1-1.3,0.2
			c-0.4,0.2-0.7,0.5-0.9,0.8c-0.2,0.4-0.3,0.9-0.3,1.6v4h-1.5V277.2z"/>
		<path class="st2" d="M48.6,277.3c-0.8,0-1.4-0.2-2-0.5c-0.6-0.4-1.1-0.8-1.4-1.5c-0.3-0.6-0.5-1.3-0.5-2.2c0-0.8,0.2-1.6,0.5-2.2
			s0.8-1.1,1.4-1.5c0.6-0.3,1.3-0.5,2.1-0.5s1.4,0.2,2,0.5c0.6,0.4,1,0.8,1.3,1.4s0.4,1.2,0.4,1.8c0,0.1,0,0.2,0,0.4
			c0,0.1,0,0.2,0,0.4h-6.3c0,0.6,0.2,1.1,0.4,1.5s0.6,0.7,0.9,0.9c0.4,0.2,0.8,0.3,1.2,0.3c0.6,0,1-0.1,1.4-0.4s0.6-0.6,0.8-1h1.3
			c-0.2,0.7-0.6,1.3-1.2,1.8C50.3,277.1,49.5,277.3,48.6,277.3z M48.6,270.2c-0.6,0-1.2,0.2-1.7,0.6s-0.8,1-0.9,1.7h5
			c0-0.7-0.3-1.3-0.7-1.7C49.8,270.4,49.3,270.2,48.6,270.2z"/>
		<path class="st2" d="M57,277.2c-0.7,0-1.3-0.2-1.7-0.5c-0.4-0.3-0.6-1-0.6-1.9v-4.4h-1.4v-1.1h1.4l0.2-1.9h1.2v1.9h2.3v1.1h-2.3
			v4.4c0,0.5,0.1,0.8,0.3,1c0.2,0.2,0.6,0.3,1.1,0.3h0.8v1.2L57,277.2L57,277.2z"/>
		<path class="st2" d="M63.5,277.3c-0.8,0-1.4-0.2-2-0.5c-0.6-0.4-1.1-0.8-1.4-1.5c-0.3-0.6-0.5-1.3-0.5-2.2s0.2-1.6,0.5-2.2
			s0.8-1.1,1.4-1.5c0.6-0.3,1.3-0.5,2-0.5c0.9,0,1.7,0.2,2.4,0.7s1.1,1.1,1.2,2h-1.4c-0.1-0.5-0.4-0.9-0.8-1.1
			c-0.4-0.3-0.9-0.4-1.5-0.4c-0.4,0-0.9,0.1-1.3,0.3s-0.7,0.6-1,1c-0.2,0.5-0.4,1-0.4,1.7s0.1,1.2,0.4,1.7s0.6,0.8,1,1
			s0.8,0.3,1.3,0.3c0.6,0,1-0.1,1.5-0.4s0.7-0.7,0.8-1.2h1.4c-0.2,0.8-0.6,1.4-1.2,1.9S64.4,277.3,63.5,277.3z"/>
		<path class="st2" d="M68.9,277.2v-11.5h1.3v4.9c0.3-0.5,0.7-0.9,1.1-1.1s1-0.4,1.6-0.4c0.9,0,1.7,0.3,2.2,0.9
			c0.6,0.6,0.8,1.5,0.8,2.6v4.6h-1.3v-4.5c0-1.7-0.7-2.5-2-2.5c-0.7,0-1.3,0.2-1.7,0.7c-0.5,0.5-0.7,1.2-0.7,2.1v4.1L68.9,277.2
			L68.9,277.2z"/>
		<path class="st2" d="M78.9,267.5c-0.3,0-0.5-0.1-0.7-0.3s-0.3-0.4-0.3-0.7s0.1-0.5,0.3-0.6c0.2-0.2,0.4-0.3,0.7-0.3
			c0.3,0,0.5,0.1,0.7,0.3s0.3,0.4,0.3,0.6c0,0.3-0.1,0.5-0.3,0.7S79.2,267.5,78.9,267.5z M78.2,277.2v-7.9h1.3v7.9H78.2z"/>
		<path class="st2" d="M81.9,277.2v-7.9h1.2l0.1,1.4c0.3-0.5,0.6-0.9,1.1-1.2s1-0.4,1.6-0.4c0.9,0,1.7,0.3,2.2,0.9
			c0.6,0.6,0.8,1.5,0.8,2.6v4.6h-1.3v-4.5c0-1.7-0.7-2.5-2-2.5c-0.7,0-1.2,0.2-1.7,0.7c-0.4,0.5-0.7,1.2-0.7,2.1v4.1L81.9,277.2
			L81.9,277.2z"/>
		<path class="st2" d="M94.2,274.7c-0.4,0-0.9-0.1-1.2-0.2l-0.8,0.8c0.1,0.1,0.3,0.2,0.4,0.2s0.4,0.1,0.8,0.2c0.3,0,0.8,0.1,1.4,0.2
			c1.1,0.1,1.8,0.3,2.3,0.7s0.7,1,0.7,1.6c0,0.5-0.1,0.9-0.4,1.3c-0.2,0.4-0.6,0.8-1.2,1c-0.5,0.3-1.2,0.4-2,0.4
			c-0.7,0-1.4-0.1-1.9-0.3c-0.6-0.2-1-0.5-1.3-0.9s-0.5-0.9-0.5-1.4c0-0.3,0.1-0.6,0.2-1c0.2-0.4,0.5-0.7,0.9-1
			c-0.2-0.1-0.4-0.2-0.6-0.3s-0.3-0.2-0.5-0.4v-0.4l1.4-1.3c-0.6-0.5-0.9-1.2-0.9-2.1c0-0.5,0.1-1,0.4-1.4c0.2-0.4,0.6-0.8,1.1-1
			s1-0.4,1.7-0.4c0.5,0,0.9,0.1,1.2,0.2h2.9v1l-1.5,0.1c0.3,0.4,0.5,1,0.5,1.5s-0.1,1-0.4,1.4c-0.2,0.4-0.6,0.8-1.1,1
			C95.4,274.5,94.9,274.7,94.2,274.7z M91.9,278.2c0,0.5,0.2,0.9,0.7,1.2c0.4,0.3,1,0.4,1.7,0.4s1.2-0.1,1.6-0.4s0.6-0.7,0.6-1.2
			c0-0.3-0.1-0.6-0.4-0.9s-0.8-0.4-1.5-0.4c-0.6,0-1.1-0.1-1.5-0.2c-0.4,0.2-0.7,0.5-0.9,0.8C91.9,277.7,91.9,278,91.9,278.2z
			 M94.2,273.5c0.6,0,1-0.1,1.3-0.4s0.5-0.7,0.5-1.3c0-0.5-0.2-1-0.5-1.3s-0.8-0.4-1.3-0.4c-0.6,0-1,0.1-1.4,0.4
			c-0.3,0.3-0.5,0.7-0.5,1.3c0,0.5,0.2,1,0.5,1.3C93.2,273.4,93.6,273.5,94.2,273.5z"/>
		<path class="st2" d="M98.8,279.1l0.9-3.5h1.4l-1.4,3.5H98.8z"/>
		<path class="st2" d="M105.4,280.7v-1.1h0.6c0.4,0,0.7-0.1,0.9-0.2c0.2-0.2,0.3-0.5,0.3-0.8v-9.2h1.3v9.2c0,0.8-0.2,1.3-0.6,1.7
			c-0.4,0.3-0.9,0.5-1.7,0.5h-0.8C105.4,280.8,105.4,280.7,105.4,280.7z M107.9,267.5c-0.3,0-0.5-0.1-0.7-0.3s-0.3-0.4-0.3-0.7
			s0.1-0.5,0.3-0.6c0.2-0.2,0.4-0.3,0.7-0.3s0.5,0.1,0.7,0.3s0.3,0.4,0.3,0.6c0,0.3-0.1,0.5-0.3,0.7
			C108.3,267.4,108.1,267.5,107.9,267.5z"/>
		<path class="st2" d="M114.5,277.3c-0.8,0-1.4-0.2-2-0.5s-1.1-0.8-1.4-1.5c-0.3-0.6-0.5-1.4-0.5-2.2s0.2-1.6,0.5-2.2
			s0.8-1.1,1.4-1.5c0.6-0.3,1.3-0.5,2-0.5c0.8,0,1.4,0.2,2,0.5s1.1,0.8,1.4,1.5c0.3,0.6,0.5,1.4,0.5,2.2s-0.2,1.6-0.5,2.2
			s-0.8,1.1-1.4,1.5S115.2,277.3,114.5,277.3z M114.5,276.2c0.5,0,0.9-0.1,1.3-0.3c0.4-0.2,0.7-0.6,1-1c0.2-0.5,0.4-1,0.4-1.7
			s-0.1-1.2-0.4-1.7c-0.2-0.4-0.6-0.8-0.9-1c-0.4-0.2-0.8-0.3-1.3-0.3s-0.9,0.1-1.3,0.3c-0.4,0.2-0.7,0.6-1,1
			c-0.2,0.4-0.4,1-0.4,1.7s0.1,1.2,0.4,1.7s0.6,0.8,0.9,1C113.6,276.1,114,276.2,114.5,276.2z"/>
		<path class="st2" d="M123.2,277.3c-0.9,0-1.7-0.3-2.2-0.9c-0.6-0.6-0.8-1.5-0.8-2.6v-4.6h1.3v4.5c0,1.7,0.7,2.5,2,2.5
			c0.7,0,1.3-0.2,1.7-0.7s0.7-1.2,0.7-2.1v-4.1h1.3v7.9H126l-0.1-1.4c-0.2,0.5-0.6,0.9-1.1,1.2C124.4,277.2,123.8,277.3,123.2,277.3
			z"/>
		<path class="st2" d="M129.5,277.2v-7.9h1.2l0.1,1.5c0.2-0.5,0.6-0.9,1.1-1.2s1.1-0.5,1.9-0.5v1.4h-0.4c-0.5,0-0.9,0.1-1.3,0.2
			c-0.4,0.2-0.7,0.5-0.9,0.8c-0.2,0.4-0.4,0.9-0.4,1.6v4h-1.3L129.5,277.2L129.5,277.2z"/>
		<path class="st2" d="M135.3,277.2v-7.9h1.2l0.1,1.4c0.3-0.5,0.6-0.9,1.1-1.2s1-0.4,1.6-0.4c0.9,0,1.7,0.3,2.2,0.9s0.8,1.5,0.8,2.6
			v4.6H141v-4.5c0-1.7-0.7-2.5-2.1-2.5c-0.7,0-1.2,0.2-1.7,0.7c-0.4,0.5-0.7,1.2-0.7,2.1v4.1L135.3,277.2L135.3,277.2z"/>
		<path class="st2" d="M147.1,277.3c-0.7,0-1.2-0.1-1.6-0.3c-0.4-0.2-0.8-0.5-1-0.9s-0.3-0.8-0.3-1.2c0-0.8,0.3-1.4,0.9-1.9
			c0.6-0.4,1.5-0.7,2.5-0.7h2.1v-0.1c0-0.7-0.2-1.2-0.5-1.6s-0.8-0.5-1.5-0.5c-0.5,0-1,0.1-1.4,0.4s-0.6,0.6-0.7,1.1h-1.4
			c0.1-0.6,0.2-1.1,0.6-1.5c0.3-0.4,0.8-0.7,1.3-0.9s1-0.3,1.6-0.3c1.1,0,1.9,0.3,2.5,0.9s0.8,1.4,0.8,2.4v4.9h-1.2l-0.1-1.4
			c-0.2,0.4-0.6,0.8-1,1.1C148.4,277.2,147.8,277.3,147.1,277.3z M147.3,276.2c0.5,0,0.9-0.1,1.3-0.4c0.4-0.3,0.7-0.6,0.8-1
			c0.2-0.4,0.3-0.9,0.3-1.3l0,0h-2c-0.8,0-1.4,0.1-1.7,0.4s-0.5,0.6-0.5,1s0.2,0.8,0.5,1C146.3,276.1,146.7,276.2,147.3,276.2z"/>
		<path class="st2" d="M153.1,277.2v-11.5h1.3v11.5H153.1z"/>
		<path class="st2" d="M157.5,267.5c-0.3,0-0.5-0.1-0.7-0.3s-0.3-0.4-0.3-0.7s0.1-0.5,0.3-0.6c0.2-0.2,0.4-0.3,0.7-0.3
			s0.5,0.1,0.7,0.3s0.3,0.4,0.3,0.6c0,0.3-0.1,0.5-0.3,0.7C157.9,267.4,157.7,267.5,157.5,267.5z M156.8,277.2v-7.9h1.3v7.9H156.8z"
			/>
		<path class="st2" d="M160.5,277.2v-7.9h1.2l0.1,1.4c0.3-0.5,0.6-0.9,1.1-1.2s1-0.4,1.6-0.4c0.9,0,1.7,0.3,2.2,0.9
			c0.6,0.6,0.8,1.5,0.8,2.6v4.6h-1.3v-4.5c0-1.7-0.7-2.5-2-2.5c-0.7,0-1.2,0.2-1.7,0.7c-0.4,0.5-0.7,1.2-0.7,2.1v4.1L160.5,277.2
			L160.5,277.2z"/>
		<path class="st2" d="M172.8,274.7c-0.4,0-0.9-0.1-1.2-0.2l-0.8,0.8c0.1,0.1,0.3,0.2,0.4,0.2c0.2,0.1,0.4,0.1,0.8,0.2
			s0.8,0.1,1.4,0.2c1.1,0.1,1.8,0.3,2.3,0.7s0.7,1,0.7,1.6c0,0.5-0.1,0.9-0.4,1.3c-0.2,0.4-0.6,0.8-1.1,1c-0.5,0.3-1.2,0.4-2,0.4
			c-0.7,0-1.3-0.1-1.9-0.3s-1-0.5-1.3-0.9s-0.5-0.9-0.5-1.4c0-0.3,0.1-0.6,0.2-1c0.2-0.4,0.5-0.7,0.9-1c-0.2-0.1-0.4-0.2-0.6-0.3
			c-0.2-0.1-0.3-0.2-0.5-0.4v-0.4l1.4-1.3c-0.6-0.5-0.9-1.2-0.9-2.1c0-0.5,0.1-1,0.4-1.4c0.2-0.4,0.6-0.8,1.1-1s1-0.4,1.7-0.4
			c0.5,0,0.9,0.1,1.2,0.2h2.9v1l-1.5,0.1c0.3,0.4,0.5,1,0.5,1.5s-0.1,1-0.4,1.4c-0.2,0.4-0.6,0.8-1.1,1
			C174,274.5,173.4,274.7,172.8,274.7z M170.4,278.2c0,0.5,0.2,0.9,0.7,1.2c0.4,0.3,1,0.4,1.7,0.4s1.2-0.1,1.6-0.4
			c0.4-0.3,0.6-0.7,0.6-1.2c0-0.3-0.1-0.6-0.4-0.9s-0.8-0.4-1.5-0.4c-0.6,0-1.1-0.1-1.5-0.2c-0.4,0.2-0.7,0.5-0.9,0.8
			C170.5,277.7,170.4,278,170.4,278.2z M172.8,273.5c0.6,0,1-0.1,1.3-0.4s0.5-0.7,0.5-1.3c0-0.5-0.2-1-0.5-1.3s-0.8-0.4-1.3-0.4
			c-0.6,0-1,0.1-1.4,0.4c-0.3,0.3-0.5,0.7-0.5,1.3c0,0.5,0.2,1,0.5,1.3S172.2,273.5,172.8,273.5z"/>
		<path class="st2" d="M185.3,277.3c-0.7,0-1.2-0.1-1.6-0.3c-0.4-0.2-0.8-0.5-1-0.9s-0.3-0.8-0.3-1.2c0-0.8,0.3-1.4,0.9-1.9
			c0.6-0.4,1.5-0.7,2.5-0.7h2.1v-0.1c0-0.7-0.2-1.2-0.5-1.6s-0.8-0.5-1.5-0.5c-0.5,0-1,0.1-1.4,0.4s-0.6,0.6-0.7,1.1h-1.4
			c0.1-0.6,0.2-1.1,0.6-1.5c0.3-0.4,0.8-0.7,1.3-0.9s1-0.3,1.6-0.3c1.1,0,1.9,0.3,2.5,0.9s0.8,1.4,0.8,2.4v4.9H188l-0.1-1.4
			c-0.2,0.4-0.6,0.8-1,1.1C186.6,277.2,186.1,277.3,185.3,277.3z M185.6,276.2c0.5,0,0.9-0.1,1.3-0.4c0.4-0.3,0.7-0.6,0.8-1
			c0.2-0.4,0.3-0.9,0.3-1.3l0,0h-2c-0.8,0-1.4,0.1-1.7,0.4s-0.5,0.6-0.5,1s0.2,0.8,0.5,1C184.6,276.1,185,276.2,185.6,276.2z"/>
		<path class="st2" d="M195.6,277.3c-0.7,0-1.2-0.1-1.7-0.4s-0.9-0.6-1.2-1.1l-0.1,1.3h-1.2v-11.5h1.3v4.9c0.3-0.4,0.6-0.7,1.1-1
			s1.1-0.5,1.8-0.5c0.8,0,1.5,0.2,2.1,0.5c0.6,0.4,1,0.9,1.4,1.5c0.3,0.6,0.5,1.3,0.5,2.1s-0.2,1.5-0.5,2.1s-0.8,1.1-1.4,1.5
			C197.1,277.2,196.4,277.3,195.6,277.3z M195.4,276.2c0.5,0,1-0.1,1.4-0.4s0.7-0.6,1-1c0.2-0.5,0.3-1,0.3-1.6s-0.1-1.1-0.3-1.6
			s-0.6-0.8-1-1s-0.9-0.4-1.4-0.4s-1,0.1-1.4,0.4c-0.4,0.2-0.7,0.6-1,1s-0.4,1-0.4,1.6s0.1,1.1,0.4,1.6s0.6,0.8,1,1
			S194.9,276.2,195.4,276.2z"/>
		<path class="st2" d="M205,277.3c-0.8,0-1.4-0.2-2-0.5s-1.1-0.8-1.4-1.5c-0.4-0.6-0.5-1.4-0.5-2.2s0.2-1.6,0.5-2.2
			c0.4-0.6,0.8-1.1,1.4-1.5c0.6-0.3,1.3-0.5,2-0.5s1.4,0.2,2,0.5s1.1,0.8,1.4,1.5c0.4,0.6,0.5,1.4,0.5,2.2s-0.2,1.6-0.5,2.2
			s-0.8,1.1-1.4,1.5S205.8,277.3,205,277.3z M205,276.2c0.5,0,0.9-0.1,1.3-0.3c0.4-0.2,0.7-0.6,1-1c0.2-0.5,0.4-1,0.4-1.7
			s-0.1-1.2-0.4-1.7c-0.2-0.5-0.6-0.8-0.9-1c-0.4-0.2-0.8-0.3-1.3-0.3s-0.9,0.1-1.3,0.3c-0.4,0.2-0.7,0.6-1,1
			c-0.2,0.4-0.4,1-0.4,1.7s0.1,1.2,0.4,1.7c0.2,0.4,0.6,0.8,0.9,1C204.2,276.1,204.6,276.2,205,276.2z"/>
		<path class="st2" d="M213.8,277.3c-0.9,0-1.7-0.3-2.2-0.9s-0.8-1.5-0.8-2.6v-4.6h1.3v4.5c0,1.7,0.7,2.5,2,2.5
			c0.7,0,1.3-0.2,1.7-0.7c0.5-0.5,0.7-1.2,0.7-2.1v-4.1h1.3v7.9h-1.2l-0.1-1.4c-0.2,0.5-0.6,0.9-1.1,1.2
			C214.9,277.2,214.4,277.3,213.8,277.3z"/>
		<path class="st2" d="M223.2,277.2c-0.7,0-1.3-0.2-1.7-0.5s-0.6-1-0.6-1.9v-4.4h-1.4v-1.1h1.4l0.2-1.9h1.2v1.9h2.3v1.1h-2.3v4.4
			c0,0.5,0.1,0.8,0.3,1s0.6,0.3,1.1,0.3h0.8v1.2L223.2,277.2L223.2,277.2z"/>
		<path class="st2" d="M233.6,277.2c-0.7,0-1.3-0.2-1.7-0.5s-0.6-1-0.6-1.9v-4.4h-1.4v-1.1h1.4l0.2-1.9h1.2v1.9h2.3v1.1h-2.3v4.4
			c0,0.5,0.1,0.8,0.3,1s0.6,0.3,1.1,0.3h0.8v1.2L233.6,277.2L233.6,277.2z"/>
		<path class="st2" d="M236.6,277.2v-11.5h1.3v4.9c0.3-0.5,0.7-0.9,1.1-1.1s1-0.4,1.6-0.4c0.9,0,1.6,0.3,2.2,0.9
			c0.5,0.6,0.8,1.5,0.8,2.6v4.6h-1.3v-4.5c0-1.7-0.7-2.5-2-2.5c-0.7,0-1.3,0.2-1.7,0.7c-0.5,0.5-0.7,1.2-0.7,2.1v4.1L236.6,277.2
			L236.6,277.2z"/>
		<path class="st2" d="M249.4,277.3c-0.8,0-1.4-0.2-2-0.5c-0.6-0.4-1.1-0.8-1.4-1.5c-0.3-0.6-0.5-1.3-0.5-2.2c0-0.8,0.2-1.6,0.5-2.2
			s0.8-1.1,1.4-1.5c0.6-0.3,1.3-0.5,2.1-0.5c0.8,0,1.4,0.2,2,0.5c0.6,0.4,1,0.8,1.3,1.4s0.5,1.2,0.5,1.8c0,0.1,0,0.2,0,0.4
			c0,0.1,0,0.2,0,0.4H247c0,0.6,0.2,1.1,0.4,1.5s0.6,0.7,0.9,0.9c0.4,0.2,0.8,0.3,1.2,0.3c0.6,0,1-0.1,1.4-0.4s0.6-0.6,0.8-1h1.3
			c-0.2,0.7-0.6,1.3-1.2,1.8C251.1,277.1,250.3,277.3,249.4,277.3z M249.4,270.2c-0.6,0-1.2,0.2-1.7,0.6s-0.8,1-0.9,1.7h5
			c0-0.7-0.3-1.3-0.7-1.7C250.6,270.4,250,270.2,249.4,270.2z"/>
		<path class="st2" d="M29.3,299.3c-0.8,0-1.5-0.2-2.1-0.5s-1-0.9-1.4-1.5c-0.3-0.6-0.5-1.3-0.5-2.1s0.2-1.5,0.5-2.1
			s0.8-1.1,1.4-1.5s1.3-0.5,2.1-0.5c0.7,0,1.2,0.1,1.7,0.4s0.9,0.6,1.2,1.1v-4.9h1.3v11.5h-1.2l-0.1-1.3c-0.3,0.4-0.6,0.7-1.1,1
			C30.6,299.2,30,299.3,29.3,299.3z M29.4,298.2c0.5,0,1-0.1,1.4-0.4c0.4-0.2,0.7-0.6,1-1s0.3-1,0.3-1.6s-0.1-1.1-0.3-1.6
			s-0.6-0.8-1-1s-0.9-0.4-1.4-0.4s-1,0.1-1.4,0.4s-0.7,0.6-1,1s-0.3,1-0.3,1.6s0.1,1.1,0.3,1.6s0.5,0.8,1,1S28.9,298.2,29.4,298.2z"
			/>
		<path class="st2" d="M38.4,299.3c-0.7,0-1.2-0.1-1.7-0.3c-0.4-0.2-0.8-0.5-1-0.9s-0.3-0.8-0.3-1.2c0-0.8,0.3-1.4,0.9-1.9
			c0.6-0.4,1.5-0.7,2.5-0.7h2.1v-0.1c0-0.7-0.2-1.2-0.5-1.6c-0.4-0.4-0.9-0.5-1.5-0.5c-0.5,0-1,0.1-1.3,0.4
			c-0.4,0.3-0.6,0.6-0.7,1.1h-1.4c0-0.6,0.2-1.1,0.6-1.5c0.3-0.4,0.8-0.7,1.3-0.9s1-0.3,1.6-0.3c1.1,0,1.9,0.3,2.5,0.9
			s0.8,1.4,0.8,2.4v4.9h-1.2l-0.1-1.4c-0.2,0.4-0.6,0.8-1,1.1C39.7,299.2,39.1,299.3,38.4,299.3z M38.6,298.2c0.5,0,0.9-0.1,1.3-0.4
			c0.4-0.3,0.7-0.6,0.8-1c0.2-0.4,0.3-0.9,0.3-1.3l0,0h-2c-0.8,0-1.3,0.1-1.7,0.4s-0.5,0.6-0.5,1s0.2,0.8,0.5,1
			C37.6,298.1,38,298.2,38.6,298.2z"/>
		<path class="st2" d="M45,302.7l2-4.3h-0.5l-3.1-7.2h1.5l2.6,6.2l2.8-6.2h1.4l-5.2,11.5H45z"/>
		<path class="st2" d="M51,301.1l0.9-3.5h1.4l-1.4,3.5H51z"/>
		<path class="st2" d="M62.8,299.3c-0.8,0-1.4-0.2-2-0.5s-1.1-0.8-1.4-1.5c-0.3-0.6-0.5-1.4-0.5-2.2s0.2-1.6,0.5-2.2
			c0.4-0.6,0.8-1.1,1.4-1.5c0.6-0.3,1.3-0.5,2-0.5s1.4,0.2,2,0.5s1.1,0.8,1.4,1.5c0.3,0.6,0.5,1.4,0.5,2.2s-0.2,1.6-0.5,2.2
			s-0.8,1.1-1.4,1.5S63.5,299.3,62.8,299.3z M62.8,298.2c0.5,0,0.9-0.1,1.3-0.3c0.4-0.2,0.7-0.6,1-1c0.2-0.5,0.4-1,0.4-1.7
			s-0.1-1.2-0.4-1.7c-0.2-0.5-0.6-0.8-0.9-1c-0.4-0.2-0.8-0.3-1.3-0.3s-0.9,0.1-1.3,0.3s-0.7,0.6-1,1c-0.2,0.4-0.4,1-0.4,1.7
			s0.1,1.2,0.4,1.7c0.2,0.4,0.6,0.8,0.9,1C61.9,298.1,62.3,298.2,62.8,298.2z"/>
		<path class="st2" d="M68.6,299.2v-7.9h1.2l0.1,1.5c0.2-0.5,0.6-0.9,1.1-1.2s1.1-0.5,1.9-0.5v1.4h-0.4c-0.5,0-0.9,0.1-1.3,0.2
			c-0.4,0.2-0.7,0.5-0.9,0.8c-0.2,0.4-0.3,0.9-0.3,1.6v4h-1.4V299.2z"/>
		<path class="st2" d="M81.3,299.3c-0.7,0-1.2-0.1-1.6-0.3s-0.8-0.5-1-0.9s-0.3-0.8-0.3-1.2c0-0.8,0.3-1.4,0.9-1.9s1.5-0.7,2.5-0.7
			h2.1v-0.1c0-0.7-0.2-1.2-0.5-1.6s-0.8-0.5-1.5-0.5c-0.5,0-1,0.1-1.3,0.4c-0.4,0.3-0.6,0.6-0.7,1.1h-1.4c0.1-0.6,0.2-1.1,0.6-1.5
			c0.3-0.4,0.8-0.7,1.3-0.9s1-0.3,1.6-0.3c1.1,0,1.9,0.3,2.5,0.9s0.8,1.4,0.8,2.4v4.9h-1.2l-0.1-1.4c-0.2,0.4-0.5,0.8-1,1.1
			C82.6,299.2,82,299.3,81.3,299.3z M81.5,298.2c0.5,0,1-0.1,1.3-0.4c0.4-0.3,0.7-0.6,0.8-1s0.3-0.9,0.3-1.3l0,0h-2
			c-0.8,0-1.4,0.1-1.7,0.4c-0.3,0.3-0.5,0.6-0.5,1s0.2,0.8,0.5,1C80.5,298.1,81,298.2,81.5,298.2z"/>
		<path class="st2" d="M95.2,299.3c-0.8,0-1.4-0.2-2-0.5c-0.6-0.4-1.1-0.8-1.4-1.5c-0.3-0.6-0.5-1.3-0.5-2.2s0.2-1.6,0.5-2.2
			s0.8-1.1,1.4-1.5c0.6-0.3,1.3-0.5,2-0.5c0.9,0,1.7,0.2,2.4,0.7s1.1,1.1,1.2,2h-1.4c-0.1-0.5-0.4-0.9-0.8-1.1
			c-0.4-0.3-0.9-0.4-1.5-0.4c-0.4,0-0.9,0.1-1.3,0.3s-0.7,0.6-1,1c-0.2,0.5-0.4,1-0.4,1.7s0.1,1.2,0.4,1.7c0.2,0.5,0.6,0.8,1,1
			s0.8,0.3,1.3,0.3c0.6,0,1-0.1,1.5-0.4c0.4-0.3,0.7-0.7,0.8-1.2h1.4c-0.2,0.8-0.6,1.4-1.2,1.9S96.2,299.3,95.2,299.3z"/>
		<path class="st2" d="M103.6,299.3c-0.9,0-1.7-0.3-2.2-0.9s-0.8-1.5-0.8-2.6v-4.6h1.3v4.5c0,1.7,0.7,2.5,2,2.5
			c0.7,0,1.3-0.2,1.7-0.7s0.7-1.2,0.7-2.1v-4.1h1.3v7.9h-1.2l-0.1-1.4c-0.2,0.5-0.6,0.9-1.1,1.2
			C104.7,299.2,104.2,299.3,103.6,299.3z"/>
		<path class="st2" d="M109.8,302.7v-11.5h1.2l0.1,1.3c0.3-0.4,0.6-0.7,1.1-1s1.1-0.5,1.8-0.5c0.8,0,1.5,0.2,2.1,0.5
			c0.6,0.4,1,0.9,1.4,1.5c0.3,0.6,0.5,1.3,0.5,2.1s-0.2,1.5-0.5,2.1s-0.8,1.1-1.4,1.5s-1.3,0.5-2.1,0.5c-0.6,0-1.2-0.1-1.7-0.4
			s-0.9-0.6-1.2-1.1v4.8h-1.3V302.7z M113.9,298.2c0.5,0,1-0.1,1.4-0.4c0.4-0.2,0.7-0.6,1-1s0.4-1,0.4-1.6s-0.1-1.1-0.4-1.6
			s-0.6-0.8-1-1s-0.9-0.4-1.4-0.4s-1,0.1-1.4,0.4s-0.7,0.6-1,1c-0.2,0.5-0.4,1-0.4,1.6s0.1,1.1,0.4,1.6c0.2,0.5,0.5,0.8,1,1
			C112.9,298,113.4,298.2,113.9,298.2z"/>
		<path class="st2" d="M127.7,299.3c-0.8,0-1.4-0.2-2-0.5s-1.1-0.8-1.4-1.5c-0.4-0.6-0.5-1.4-0.5-2.2s0.2-1.6,0.5-2.2
			c0.4-0.6,0.8-1.1,1.4-1.5c0.6-0.3,1.3-0.5,2-0.5s1.4,0.2,2,0.5s1.1,0.8,1.4,1.5c0.4,0.6,0.5,1.4,0.5,2.2s-0.2,1.6-0.5,2.2
			c-0.4,0.6-0.8,1.1-1.4,1.5C129.2,299.2,128.5,299.3,127.7,299.3z M127.7,298.2c0.5,0,0.9-0.1,1.3-0.3c0.4-0.2,0.7-0.6,1-1
			c0.2-0.5,0.4-1,0.4-1.7s-0.1-1.2-0.4-1.7c-0.2-0.5-0.6-0.8-1-1s-0.8-0.3-1.3-0.3s-0.9,0.1-1.3,0.3c-0.4,0.2-0.7,0.6-1,1
			c-0.2,0.4-0.4,1-0.4,1.7s0.1,1.2,0.4,1.7c0.2,0.4,0.6,0.8,1,1C126.9,298.1,127.3,298.2,127.7,298.2z"/>
		<path class="st2" d="M134,299.2v-6.8h-1.2v-1.1h1.2v-1.4c0-0.8,0.2-1.3,0.6-1.7c0.4-0.4,0.9-0.5,1.7-0.5h0.8v1.2h-0.6
			c-0.4,0-0.7,0.1-0.9,0.2c-0.2,0.2-0.3,0.4-0.3,0.8v1.3h1.9v1.1h-1.9v6.8L134,299.2L134,299.2z"/>
		<path class="st2" d="M146.8,299.3c-0.8,0-1.4-0.2-2-0.5c-0.6-0.4-1.1-0.8-1.4-1.5c-0.4-0.6-0.5-1.3-0.5-2.2s0.2-1.6,0.5-2.2
			s0.8-1.1,1.4-1.5c0.6-0.3,1.3-0.5,2-0.5c0.9,0,1.7,0.2,2.4,0.7s1.1,1.1,1.2,2H149c-0.1-0.5-0.4-0.9-0.8-1.1
			c-0.4-0.3-0.9-0.4-1.5-0.4c-0.4,0-0.9,0.1-1.3,0.3c-0.4,0.2-0.7,0.6-1,1c-0.2,0.5-0.4,1-0.4,1.7s0.1,1.2,0.4,1.7s0.6,0.8,1,1
			s0.8,0.3,1.3,0.3c0.6,0,1-0.1,1.5-0.4s0.7-0.7,0.8-1.2h1.4c-0.2,0.8-0.6,1.4-1.2,1.9C148.6,299.1,147.7,299.3,146.8,299.3z"/>
		<path class="st2" d="M154.9,299.3c-0.7,0-1.2-0.1-1.6-0.3c-0.4-0.2-0.8-0.5-1-0.9s-0.3-0.8-0.3-1.2c0-0.8,0.3-1.4,0.9-1.9
			c0.6-0.4,1.5-0.7,2.5-0.7h2.1v-0.1c0-0.7-0.2-1.2-0.5-1.6s-0.8-0.5-1.5-0.5c-0.5,0-1,0.1-1.4,0.4s-0.6,0.6-0.7,1.1H152
			c0.1-0.6,0.2-1.1,0.6-1.5c0.3-0.4,0.8-0.7,1.3-0.9s1-0.3,1.6-0.3c1.1,0,1.9,0.3,2.5,0.9s0.8,1.4,0.8,2.4v4.9h-1.2l-0.1-1.4
			c-0.2,0.4-0.6,0.8-1,1.1C156.2,299.2,155.6,299.3,154.9,299.3z M155.1,298.2c0.5,0,0.9-0.1,1.3-0.4c0.4-0.3,0.6-0.6,0.8-1
			s0.3-0.9,0.3-1.3l0,0h-2c-0.8,0-1.3,0.1-1.7,0.4c-0.3,0.3-0.5,0.6-0.5,1s0.2,0.8,0.5,1C154.1,298.1,154.6,298.2,155.1,298.2z"/>
		<path class="st2" d="M161.4,299.2v-6.8h-1.2v-1.1h1.2v-1.4c0-0.8,0.2-1.3,0.6-1.7c0.4-0.4,0.9-0.5,1.7-0.5h0.8v1.2h-0.6
			c-0.4,0-0.7,0.1-0.9,0.2c-0.2,0.2-0.3,0.4-0.3,0.8v1.3h1.9v1.1h-1.9v6.8L161.4,299.2L161.4,299.2z"/>
		<path class="st2" d="M166.7,299.2v-6.8h-1.2v-1.1h1.2v-1.4c0-0.8,0.2-1.3,0.6-1.7c0.4-0.4,0.9-0.5,1.7-0.5h0.8v1.2h-0.6
			c-0.4,0-0.7,0.1-0.9,0.2c-0.2,0.2-0.3,0.4-0.3,0.8v1.3h1.9v1.1H168v6.8L166.7,299.2L166.7,299.2z"/>
		<path class="st2" d="M174.9,299.3c-0.8,0-1.4-0.2-2-0.5c-0.6-0.4-1.1-0.8-1.4-1.5c-0.3-0.6-0.5-1.3-0.5-2.2c0-0.8,0.2-1.6,0.5-2.2
			s0.8-1.1,1.4-1.5c0.6-0.3,1.3-0.5,2.1-0.5s1.4,0.2,2,0.5c0.6,0.4,1,0.8,1.3,1.4s0.4,1.2,0.4,1.8c0,0.1,0,0.2,0,0.4
			c0,0.1,0,0.2,0,0.4h-6.3c0,0.6,0.2,1.1,0.4,1.5s0.6,0.7,0.9,0.9c0.4,0.2,0.8,0.3,1.2,0.3c0.5,0,1-0.1,1.4-0.4s0.6-0.6,0.8-1h1.3
			c-0.2,0.7-0.6,1.3-1.2,1.8C176.6,299.1,175.8,299.3,174.9,299.3z M174.9,292.2c-0.6,0-1.2,0.2-1.7,0.6s-0.8,1-0.9,1.7h5
			c0-0.7-0.3-1.3-0.7-1.7C176.1,292.4,175.5,292.2,174.9,292.2z"/>
		<path class="st2" d="M181.2,289.5c-0.3,0-0.5-0.1-0.7-0.3s-0.3-0.4-0.3-0.7s0.1-0.5,0.3-0.6c0.2-0.2,0.4-0.3,0.7-0.3
			s0.5,0.1,0.7,0.3s0.3,0.4,0.3,0.6c0,0.3-0.1,0.5-0.3,0.7S181.5,289.5,181.2,289.5z M180.5,299.2v-7.9h1.3v7.9H180.5z"/>
		<path class="st2" d="M184.2,299.2v-7.9h1.2l0.1,1.4c0.3-0.5,0.6-0.9,1.1-1.2s1-0.4,1.6-0.4c0.9,0,1.7,0.3,2.2,0.9
			c0.6,0.6,0.8,1.5,0.8,2.6v4.6h-1.3v-4.5c0-1.7-0.7-2.5-2.1-2.5c-0.7,0-1.2,0.2-1.7,0.7s-0.7,1.2-0.7,2.1v4.1L184.2,299.2
			L184.2,299.2z"/>
		<path class="st2" d="M196.9,299.3c-0.8,0-1.4-0.2-2-0.5c-0.6-0.4-1.1-0.8-1.4-1.5c-0.3-0.6-0.5-1.3-0.5-2.2c0-0.8,0.2-1.6,0.5-2.2
			s0.8-1.1,1.4-1.5c0.6-0.3,1.3-0.5,2.1-0.5s1.4,0.2,2,0.5c0.6,0.4,1,0.8,1.3,1.4s0.4,1.2,0.4,1.8c0,0.1,0,0.2,0,0.4
			c0,0.1,0,0.2,0,0.4h-6.3c0,0.6,0.2,1.1,0.4,1.5s0.6,0.7,0.9,0.9c0.4,0.2,0.8,0.3,1.2,0.3c0.6,0,1-0.1,1.4-0.4s0.6-0.6,0.8-1h1.3
			c-0.2,0.7-0.6,1.3-1.2,1.8C198.6,299.1,197.9,299.3,196.9,299.3z M196.9,292.2c-0.6,0-1.2,0.2-1.7,0.6s-0.8,1-0.9,1.7h5
			c0-0.7-0.3-1.3-0.7-1.7C198.2,292.4,197.6,292.2,196.9,292.2z"/>
		<path class="st2" d="M202.3,295.1V294h6.3v1.1H202.3z"/>
		<path class="st2" d="M211.1,299.2v-6.8h-1.2v-1.1h1.2v-1.4c0-0.8,0.2-1.3,0.6-1.7c0.4-0.4,0.9-0.5,1.7-0.5h0.8v1.2h-0.6
			c-0.4,0-0.7,0.1-0.9,0.2c-0.2,0.2-0.3,0.4-0.3,0.8v1.3h1.9v1.1h-1.9v6.8L211.1,299.2L211.1,299.2z"/>
		<path class="st2" d="M216,299.2v-7.9h1.2l0.1,1.5c0.2-0.5,0.6-0.9,1.1-1.2s1.1-0.5,1.9-0.5v1.4h-0.4c-0.5,0-0.9,0.1-1.3,0.2
			c-0.4,0.2-0.7,0.5-0.9,0.8c-0.2,0.4-0.3,0.9-0.3,1.6v4H216L216,299.2L216,299.2z"/>
		<path class="st2" d="M225.1,299.3c-0.8,0-1.4-0.2-2-0.5c-0.6-0.4-1.1-0.8-1.4-1.5c-0.3-0.6-0.5-1.3-0.5-2.2c0-0.8,0.2-1.6,0.5-2.2
			s0.8-1.1,1.4-1.5c0.6-0.3,1.3-0.5,2.1-0.5s1.4,0.2,2,0.5c0.6,0.4,1,0.8,1.3,1.4s0.4,1.2,0.4,1.8c0,0.1,0,0.2,0,0.4
			c0,0.1,0,0.2,0,0.4h-6.4c0,0.6,0.2,1.1,0.4,1.5s0.6,0.7,0.9,0.9c0.4,0.2,0.8,0.3,1.2,0.3c0.5,0,1-0.1,1.4-0.4s0.6-0.6,0.8-1h1.3
			c-0.2,0.7-0.6,1.3-1.2,1.8C226.8,299.1,226,299.3,225.1,299.3z M225.1,292.2c-0.6,0-1.2,0.2-1.7,0.6s-0.8,1-0.9,1.7h5
			c0-0.7-0.3-1.3-0.7-1.7C226.3,292.4,225.7,292.2,225.1,292.2z"/>
		<path class="st2" d="M234.2,299.3c-0.8,0-1.4-0.2-2-0.5c-0.6-0.4-1-0.8-1.4-1.5c-0.3-0.6-0.5-1.3-0.5-2.2c0-0.8,0.2-1.6,0.5-2.2
			s0.8-1.1,1.4-1.5c0.6-0.3,1.3-0.5,2.1-0.5s1.4,0.2,2,0.5c0.6,0.4,1,0.8,1.3,1.4s0.5,1.2,0.5,1.8c0,0.1,0,0.2,0,0.4
			c0,0.1,0,0.2,0,0.4h-6.3c0,0.6,0.2,1.1,0.4,1.5s0.6,0.7,0.9,0.9c0.4,0.2,0.8,0.3,1.2,0.3c0.5,0,1-0.1,1.4-0.4s0.6-0.6,0.8-1h1.3
			c-0.2,0.7-0.6,1.3-1.2,1.8C235.9,299.1,235.1,299.3,234.2,299.3z M234.2,292.2c-0.6,0-1.2,0.2-1.7,0.6s-0.8,1-0.9,1.7h5
			c0-0.7-0.3-1.3-0.7-1.7C235.4,292.4,234.9,292.2,234.2,292.2z"/>
		<path class="st2" d="M247.1,299.2c-0.7,0-1.3-0.2-1.7-0.5s-0.6-1-0.6-1.9v-4.4h-1.4v-1.1h1.4l0.2-1.9h1.2v1.9h2.3v1.1h-2.3v4.4
			c0,0.5,0.1,0.8,0.3,1c0.2,0.2,0.6,0.3,1.1,0.3h0.8v1.2L247.1,299.2L247.1,299.2z"/>
		<path class="st2" d="M253.5,299.3c-0.8,0-1.4-0.2-2-0.5c-0.6-0.4-1-0.8-1.4-1.5c-0.3-0.6-0.5-1.3-0.5-2.2c0-0.8,0.2-1.6,0.5-2.2
			s0.8-1.1,1.4-1.5c0.6-0.3,1.3-0.5,2.1-0.5c0.8,0,1.4,0.2,2,0.5c0.6,0.4,1,0.8,1.3,1.4s0.5,1.2,0.5,1.8c0,0.1,0,0.2,0,0.4
			c0,0.1,0,0.2,0,0.4h-6.3c0,0.6,0.2,1.1,0.4,1.5s0.6,0.7,0.9,0.9c0.4,0.2,0.8,0.3,1.2,0.3c0.6,0,1-0.1,1.4-0.4s0.6-0.6,0.8-1h1.3
			c-0.2,0.7-0.6,1.3-1.2,1.8C255.2,299.1,254.4,299.3,253.5,299.3z M253.5,292.2c-0.6,0-1.2,0.2-1.7,0.6s-0.8,1-0.9,1.7h5
			c0-0.7-0.3-1.3-0.7-1.7C254.7,292.4,254.2,292.2,253.5,292.2z"/>
		<path class="st2" d="M261.7,299.3c-0.7,0-1.2-0.1-1.6-0.3s-0.8-0.5-1-0.9s-0.3-0.8-0.3-1.2c0-0.8,0.3-1.4,0.9-1.9
			c0.6-0.4,1.5-0.7,2.5-0.7h2.1v-0.1c0-0.7-0.2-1.2-0.5-1.6c-0.4-0.4-0.8-0.5-1.5-0.5c-0.5,0-1,0.1-1.4,0.4s-0.6,0.6-0.7,1.1h-1.4
			c0.1-0.6,0.2-1.1,0.6-1.5c0.3-0.4,0.8-0.7,1.3-0.9s1-0.3,1.6-0.3c1.1,0,1.9,0.3,2.5,0.9s0.8,1.4,0.8,2.4v4.9h-1.1l-0.1-1.4
			c-0.2,0.4-0.5,0.8-1,1.1C263,299.2,262.4,299.3,261.7,299.3z M261.9,298.2c0.5,0,1-0.1,1.3-0.4s0.6-0.6,0.8-1s0.3-0.9,0.3-1.3l0,0
			h-2c-0.8,0-1.4,0.1-1.7,0.4s-0.5,0.6-0.5,1s0.1,0.8,0.5,1C260.9,298.1,261.3,298.2,261.9,298.2z"/>
		<path class="st2" d="M268.1,299.2c-0.3,0-0.5-0.1-0.7-0.3s-0.3-0.4-0.3-0.6s0.1-0.5,0.3-0.7c0.2-0.2,0.4-0.3,0.7-0.3
			c0.3,0,0.5,0.1,0.6,0.3c0.2,0.2,0.3,0.4,0.3,0.7s-0.1,0.5-0.3,0.6C268.6,299.2,268.4,299.2,268.1,299.2z"/>
		<path class="st2" d="M25,62.9V52.8h-3.3v-1.1h8v1.1h-3.3v10.1H25z"/>
		<path class="st2" d="M31.3,62.9V51.4h1.3v4.9c0.3-0.5,0.7-0.9,1.1-1.1c0.5-0.3,1-0.4,1.6-0.4c0.9,0,1.7,0.3,2.2,0.9
			s0.8,1.5,0.8,2.6v4.6H37v-4.5c0-1.7-0.7-2.5-2-2.5c-0.7,0-1.3,0.2-1.7,0.7c-0.5,0.5-0.7,1.2-0.7,2.1v4.1L31.3,62.9L31.3,62.9z"/>
		<path class="st2" d="M44,63.1c-0.8,0-1.4-0.2-2-0.5c-0.6-0.4-1-0.8-1.4-1.4c-0.3-0.6-0.5-1.4-0.5-2.2c0-0.8,0.2-1.6,0.5-2.2
			s0.8-1.1,1.4-1.5s1.3-0.5,2.1-0.5s1.4,0.2,2,0.5s1,0.8,1.3,1.4s0.4,1.2,0.4,1.8c0,0.1,0,0.2,0,0.4c0,0.1,0,0.2,0,0.4h-6.3
			c0,0.6,0.2,1.1,0.4,1.5s0.6,0.7,0.9,0.9c0.4,0.2,0.8,0.3,1.2,0.3c0.5,0,1-0.1,1.4-0.4s0.7-0.6,0.8-1h1.3c-0.2,0.7-0.6,1.4-1.2,1.8
			C45.7,62.9,44.9,63.1,44,63.1z M44,55.9c-0.6,0-1.2,0.2-1.7,0.6s-0.8,1-0.9,1.7h5c0-0.7-0.3-1.3-0.7-1.7
			C45.2,56.1,44.6,55.9,44,55.9z"/>
		<path class="st2" d="M49.5,62.9V55h1.2l0.1,1.4c0.3-0.5,0.6-0.9,1.1-1.2c0.5-0.3,1-0.4,1.6-0.4c0.9,0,1.7,0.3,2.2,0.9
			s0.8,1.5,0.8,2.6v4.6h-1.3v-4.5c0-1.7-0.7-2.5-2-2.5c-0.7,0-1.2,0.2-1.7,0.7c-0.4,0.5-0.7,1.2-0.7,2.1v4.1L49.5,62.9L49.5,62.9z"
			/>
		<path class="st2" d="M66,62.9c-0.7,0-1.3-0.2-1.7-0.5c-0.4-0.4-0.6-1-0.6-1.9v-4.4h-1.4V55h1.4l0.2-1.9h1.2V55h2.3v1.1h-2.3v4.4
			c0,0.5,0.1,0.8,0.3,1c0.2,0.2,0.6,0.3,1.1,0.3h0.8V63H66V62.9z"/>
		<path class="st2" d="M69.1,62.9V51.4h1.3v4.9c0.3-0.5,0.7-0.9,1.1-1.1c0.5-0.3,1-0.4,1.6-0.4c0.9,0,1.7,0.3,2.2,0.9
			c0.6,0.6,0.8,1.5,0.8,2.6v4.6h-1.3v-4.5c0-1.7-0.7-2.5-2-2.5c-0.7,0-1.3,0.2-1.7,0.7c-0.5,0.5-0.7,1.2-0.7,2.1v4.1L69.1,62.9
			L69.1,62.9z"/>
		<path class="st2" d="M79.1,53.2c-0.3,0-0.5-0.1-0.7-0.3c-0.2-0.2-0.3-0.4-0.3-0.7c0-0.3,0.1-0.5,0.3-0.6c0.2-0.2,0.4-0.3,0.7-0.3
			c0.3,0,0.5,0.1,0.7,0.3c0.2,0.2,0.3,0.4,0.3,0.6c0,0.3-0.1,0.5-0.3,0.7C79.5,53.1,79.3,53.2,79.1,53.2z M78.4,62.9V55h1.3v7.9
			H78.4z"/>
		<path class="st2" d="M82.1,62.9V55h1.2l0.1,1.4c0.3-0.5,0.6-0.9,1.1-1.2c0.5-0.3,1-0.4,1.6-0.4c0.9,0,1.7,0.3,2.2,0.9
			c0.6,0.6,0.8,1.5,0.8,2.6v4.6h-1.3v-4.5c0-1.7-0.7-2.5-2-2.5c-0.7,0-1.2,0.2-1.7,0.7c-0.4,0.5-0.7,1.2-0.7,2.1v4.1L82.1,62.9
			L82.1,62.9z"/>
		<path class="st2" d="M91.2,62.9V51.4h1.3v6.9l3.2-3.3h1.6l-3.5,3.6l4,4.4h-1.7l-3.6-4.1V63h-1.3V62.9z"/>
		<path class="st2" d="M106.2,63.1c-0.7,0-1.2-0.1-1.7-0.3c-0.4-0.2-0.8-0.5-1-0.9s-0.3-0.8-0.3-1.2c0-0.8,0.3-1.4,0.9-1.9
			s1.5-0.7,2.5-0.7h2.1V58c0-0.7-0.2-1.2-0.5-1.6c-0.4-0.4-0.9-0.5-1.5-0.5c-0.5,0-1,0.1-1.3,0.4c-0.4,0.3-0.6,0.6-0.7,1.1h-1.4
			c0.1-0.6,0.2-1.1,0.6-1.5c0.3-0.4,0.8-0.7,1.3-0.9c0.5-0.2,1-0.3,1.6-0.3c1.1,0,1.9,0.3,2.5,0.9s0.8,1.4,0.8,2.4v4.9h-1.2
			l-0.1-1.4c-0.2,0.5-0.5,0.8-1,1.1C107.5,62.9,106.9,63.1,106.2,63.1z M106.4,62c0.5,0,0.9-0.1,1.3-0.4s0.7-0.6,0.8-1
			c0.2-0.4,0.3-0.9,0.3-1.3l0,0h-2c-0.8,0-1.4,0.1-1.7,0.4s-0.5,0.6-0.5,1s0.2,0.8,0.5,1C105.4,61.9,105.8,62,106.4,62z"/>
		<path class="st2" d="M116.4,63.1c-0.7,0-1.2-0.1-1.7-0.4s-0.9-0.6-1.2-1.1l-0.1,1.3h-1.2V51.4h1.3v4.9c0.3-0.4,0.6-0.7,1.1-1
			s1.1-0.5,1.8-0.5c0.8,0,1.5,0.2,2.1,0.5c0.6,0.4,1,0.9,1.4,1.5c0.3,0.6,0.5,1.3,0.5,2.1s-0.2,1.5-0.5,2.1s-0.8,1.1-1.4,1.5
			C117.9,62.9,117.2,63.1,116.4,63.1z M116.3,61.9c0.5,0,1-0.1,1.4-0.4c0.4-0.2,0.7-0.6,1-1c0.2-0.5,0.4-1,0.4-1.6s-0.1-1.1-0.4-1.6
			c-0.2-0.4-0.6-0.8-1-1s-0.9-0.4-1.4-0.4s-1,0.1-1.4,0.4s-0.7,0.6-1,1c-0.2,0.5-0.3,1-0.3,1.6s0.1,1.1,0.3,1.6c0.2,0.4,0.6,0.8,1,1
			C115.3,61.8,115.7,61.9,116.3,61.9z"/>
		<path class="st2" d="M125.8,63.1c-0.8,0-1.4-0.2-2-0.5s-1.1-0.8-1.4-1.5c-0.3-0.6-0.5-1.4-0.5-2.2c0-0.8,0.2-1.6,0.5-2.2
			s0.8-1.1,1.4-1.5c0.6-0.3,1.3-0.5,2-0.5s1.4,0.2,2,0.5s1.1,0.8,1.4,1.5c0.3,0.6,0.5,1.4,0.5,2.2c0,0.8-0.2,1.6-0.5,2.2
			s-0.8,1.1-1.4,1.5S126.6,63.1,125.8,63.1z M125.8,62c0.5,0,0.9-0.1,1.3-0.3c0.4-0.2,0.7-0.6,1-1c0.2-0.4,0.4-1,0.4-1.7
			s-0.1-1.2-0.4-1.7c-0.2-0.5-0.6-0.8-0.9-1s-0.8-0.3-1.3-0.3s-0.9,0.1-1.3,0.3c-0.4,0.2-0.7,0.6-1,1c-0.2,0.4-0.4,1-0.4,1.7
			s0.1,1.2,0.4,1.7c0.2,0.5,0.6,0.8,0.9,1C125,61.9,125.4,62,125.8,62z"/>
		<path class="st2" d="M134.6,63.1c-0.9,0-1.7-0.3-2.2-0.9c-0.6-0.6-0.8-1.5-0.8-2.6V55h1.3v4.5c0,1.6,0.7,2.5,2,2.5
			c0.7,0,1.3-0.2,1.7-0.7s0.7-1.2,0.7-2.1V55h1.3v7.9h-1.2l-0.1-1.4c-0.2,0.5-0.6,0.9-1.1,1.2C135.7,63,135.2,63.1,134.6,63.1z"/>
		<path class="st2" d="M144,62.9c-0.7,0-1.3-0.2-1.7-0.5c-0.4-0.4-0.6-1-0.6-1.9v-4.4h-1.4V55h1.4l0.2-1.9h1.2V55h2.3v1.1h-2.3v4.4
			c0,0.5,0.1,0.8,0.3,1s0.6,0.3,1.1,0.3h0.8V63H144V62.9z"/>
		<path class="st2" d="M152.9,62.9l-2.3-7.9h1.3l1.7,6.2l1.9-6.2h1.5l1.9,6.2l1.7-6.2h1.4l-2.3,7.9h-1.4l-1.9-6.5l-1.9,6.5H152.9z"
			/>
		<path class="st2" d="M163.3,62.9V51.4h1.3v4.9c0.3-0.5,0.7-0.9,1.1-1.1c0.5-0.3,1-0.4,1.6-0.4c0.9,0,1.7,0.3,2.2,0.9
			s0.8,1.5,0.8,2.6v4.6H169v-4.5c0-1.7-0.7-2.5-2-2.5c-0.7,0-1.3,0.2-1.7,0.7c-0.5,0.5-0.7,1.2-0.7,2.1v4.1L163.3,62.9L163.3,62.9z"
			/>
		<path class="st2" d="M175.1,63.1c-0.7,0-1.2-0.1-1.7-0.3c-0.4-0.2-0.8-0.5-1-0.9s-0.3-0.8-0.3-1.2c0-0.8,0.3-1.4,0.9-1.9
			s1.5-0.7,2.5-0.7h2.1V58c0-0.7-0.2-1.2-0.5-1.6c-0.4-0.4-0.9-0.5-1.5-0.5c-0.5,0-1,0.1-1.4,0.4s-0.6,0.6-0.7,1.1h-1.4
			c0.1-0.6,0.2-1.1,0.6-1.5c0.3-0.4,0.8-0.7,1.3-0.9c0.5-0.2,1-0.3,1.6-0.3c1.1,0,1.9,0.3,2.5,0.9s0.8,1.4,0.8,2.4v4.9h-1.2
			l-0.1-1.4c-0.2,0.5-0.6,0.8-1,1.1C176.4,63,175.9,63.1,175.1,63.1z M175.3,62c0.5,0,0.9-0.1,1.3-0.4c0.4-0.3,0.6-0.6,0.8-1
			s0.3-0.9,0.3-1.3l0,0h-2c-0.8,0-1.3,0.1-1.7,0.4c-0.3,0.3-0.5,0.6-0.5,1s0.1,0.8,0.5,1C174.4,61.9,174.8,62,175.3,62z"/>
		<path class="st2" d="M184.1,62.9c-0.7,0-1.3-0.2-1.7-0.5c-0.4-0.4-0.6-1-0.6-1.9v-4.4h-1.4V55h1.4l0.2-1.9h1.2V55h2.3v1.1h-2.3
			v4.4c0,0.5,0.1,0.8,0.3,1s0.6,0.3,1.1,0.3h0.8V63h-1.3V62.9z"/>
		<path class="st2" d="M23.2,88.4l2-4.3h-0.5L21.5,77H23l2.6,6.2l2.8-6.2h1.4l-5.3,11.4H23.2z"/>
		<path class="st2" d="M34,85.1c-0.8,0-1.4-0.2-2-0.5s-1.1-0.8-1.4-1.5c-0.4-0.6-0.5-1.4-0.5-2.2c0-0.8,0.2-1.6,0.5-2.2
			c0.4-0.6,0.8-1.1,1.4-1.5c0.6-0.3,1.3-0.5,2-0.5s1.4,0.2,2,0.5s1.1,0.8,1.4,1.5c0.3,0.6,0.5,1.4,0.5,2.2c0,0.8-0.2,1.6-0.5,2.2
			s-0.8,1.1-1.4,1.5S34.8,85.1,34,85.1z M34,84c0.5,0,0.9-0.1,1.3-0.3c0.4-0.2,0.7-0.6,1-1c0.2-0.4,0.4-1,0.4-1.7s-0.1-1.2-0.4-1.7
			c-0.2-0.5-0.6-0.8-1-1S34.5,78,34,78s-0.9,0.1-1.3,0.3c-0.4,0.2-0.7,0.6-1,1c-0.2,0.4-0.4,1-0.4,1.7s0.1,1.2,0.4,1.7
			c0.2,0.5,0.6,0.8,1,1C33.2,83.9,33.6,84,34,84z"/>
		<path class="st2" d="M42.8,85.1c-0.9,0-1.7-0.3-2.2-0.9s-0.8-1.5-0.8-2.6V77h1.3v4.5c0,1.6,0.7,2.5,2,2.5c0.7,0,1.3-0.2,1.7-0.7
			s0.7-1.2,0.7-2.1V77h1.3v7.9h-1.2l-0.1-1.4c-0.2,0.5-0.6,0.9-1.1,1.2C43.9,85,43.4,85.1,42.8,85.1z"/>
		<path class="st2" d="M53.7,84.9v-6.8h-1.2V77h1.2v-1.4c0-0.8,0.2-1.3,0.6-1.7c0.4-0.4,0.9-0.5,1.7-0.5h0.8v1.1h-0.6
			c-0.4,0-0.7,0.1-0.9,0.2c-0.2,0.2-0.3,0.4-0.3,0.8v1.3h4.9v7.9h-1.3v-6.8H55v6.8L53.7,84.9L53.7,84.9z M59.3,75.5
			c-0.3,0-0.5-0.1-0.7-0.3c-0.2-0.2-0.3-0.4-0.3-0.7c0-0.3,0.1-0.5,0.3-0.6c0.2-0.2,0.4-0.3,0.7-0.3c0.3,0,0.5,0.1,0.7,0.3
			c0.2,0.2,0.3,0.4,0.3,0.6c0,0.3-0.1,0.5-0.3,0.7C59.8,75.4,59.6,75.5,59.3,75.5z"/>
		<path class="st2" d="M62.4,84.9V77h1.2l0.1,1.4c0.3-0.5,0.6-0.9,1.1-1.2c0.5-0.3,1-0.4,1.6-0.4c0.9,0,1.7,0.3,2.2,0.9
			c0.6,0.6,0.8,1.5,0.8,2.6v4.6h-1.3v-4.5c0-1.7-0.7-2.5-2.1-2.5c-0.7,0-1.2,0.2-1.7,0.7c-0.5,0.5-0.7,1.2-0.7,2.1v4.1L62.4,84.9
			L62.4,84.9z"/>
		<path class="st2" d="M75.1,85.1c-0.8,0-1.5-0.2-2.1-0.5c-0.6-0.4-1.1-0.9-1.4-1.5s-0.5-1.3-0.5-2.1s0.2-1.5,0.5-2.1
			s0.8-1.1,1.4-1.5s1.3-0.5,2.1-0.5c0.7,0,1.2,0.1,1.7,0.4s0.9,0.6,1.2,1.1v-4.9h1.3V85h-1.2L78,83.7c-0.3,0.4-0.6,0.7-1.1,1
			S75.8,85.1,75.1,85.1z M75.3,83.9c0.5,0,1-0.1,1.4-0.4c0.4-0.2,0.7-0.6,1-1c0.2-0.5,0.3-1,0.3-1.6s-0.1-1.1-0.3-1.6
			c-0.2-0.4-0.6-0.8-1-1s-0.9-0.4-1.4-0.4s-1,0.1-1.4,0.4c-0.4,0.2-0.7,0.6-1,1c-0.2,0.5-0.3,1-0.3,1.6s0.1,1.1,0.3,1.6
			c0.2,0.4,0.5,0.8,1,1C74.3,83.8,74.7,83.9,75.3,83.9z"/>
		<path class="st2" d="M85.8,84.9V77H87l0.1,1.5c0.2-0.5,0.6-0.9,1.1-1.2s1.1-0.5,1.9-0.5v1.4h-0.4c-0.5,0-0.9,0.1-1.3,0.2
			c-0.4,0.2-0.7,0.4-0.9,0.8c-0.2,0.4-0.3,0.9-0.3,1.6v4h-1.4L85.8,84.9L85.8,84.9z"/>
		<path class="st2" d="M94.9,85.1c-0.8,0-1.4-0.2-2-0.5c-0.6-0.4-1.1-0.8-1.4-1.4S91,81.8,91,81c0-0.8,0.2-1.6,0.5-2.2
			s0.8-1.1,1.4-1.5s1.3-0.5,2.1-0.5c0.8,0,1.4,0.2,2,0.5c0.6,0.4,1,0.8,1.3,1.4s0.5,1.2,0.5,1.8c0,0.1,0,0.2,0,0.4s0,0.2,0,0.4h-6.3
			c0,0.6,0.2,1.1,0.4,1.5c0.2,0.4,0.6,0.7,0.9,0.9c0.4,0.2,0.8,0.3,1.2,0.3c0.6,0,1-0.1,1.4-0.4s0.7-0.6,0.8-1h1.3
			c-0.2,0.7-0.6,1.4-1.2,1.8C96.6,84.9,95.8,85.1,94.9,85.1z M94.9,77.9c-0.6,0-1.2,0.2-1.7,0.6s-0.8,1-0.9,1.7h5
			c0-0.7-0.3-1.3-0.7-1.7C96.1,78.1,95.6,77.9,94.9,77.9z"/>
		<path class="st2" d="M100.4,84.9V73.4h1.3v11.5H100.4z"/>
		<path class="st2" d="M106.6,85.1c-0.7,0-1.2-0.1-1.7-0.3c-0.4-0.2-0.8-0.5-1-0.9s-0.3-0.8-0.3-1.2c0-0.8,0.3-1.4,0.9-1.9
			s1.5-0.7,2.5-0.7h2.1V80c0-0.7-0.2-1.2-0.5-1.6c-0.4-0.4-0.9-0.5-1.5-0.5c-0.5,0-1,0.1-1.4,0.4s-0.6,0.6-0.7,1.1h-1.4
			c0.1-0.6,0.2-1.1,0.6-1.5c0.3-0.4,0.8-0.7,1.3-0.9c0.5-0.2,1-0.3,1.6-0.3c1.1,0,1.9,0.3,2.5,0.9s0.8,1.4,0.8,2.4v4.9h-1.2
			l-0.1-1.4c-0.2,0.5-0.6,0.8-1,1.1C107.9,85,107.3,85.1,106.6,85.1z M106.8,84c0.5,0,0.9-0.1,1.3-0.4s0.6-0.6,0.8-1
			s0.3-0.9,0.3-1.3l0,0h-2c-0.8,0-1.3,0.1-1.7,0.4c-0.3,0.3-0.5,0.6-0.5,1s0.1,0.8,0.5,1C105.8,83.9,106.3,84,106.8,84z"/>
		<path class="st2" d="M111.8,84.9l2.8-4l-2.8-4h1.5l2.2,3.3l2.2-3.3h1.4l-2.8,4l2.8,4h-1.4l-2.2-3.3l-2.2,3.3H111.8z"/>
		<path class="st2" d="M121.4,75.2c-0.3,0-0.5-0.1-0.7-0.3c-0.2-0.2-0.3-0.4-0.3-0.7c0-0.3,0.1-0.5,0.3-0.6c0.2-0.2,0.4-0.3,0.7-0.3
			s0.5,0.1,0.7,0.3c0.2,0.2,0.3,0.4,0.3,0.6c0,0.3-0.1,0.5-0.3,0.7S121.7,75.2,121.4,75.2z M120.7,84.9V77h1.3v7.9H120.7z"/>
		<path class="st2" d="M124.4,84.9V77h1.2l0.1,1.4c0.3-0.5,0.6-0.9,1.1-1.2c0.5-0.3,1-0.4,1.6-0.4c0.9,0,1.7,0.3,2.2,0.9
			s0.8,1.5,0.8,2.6v4.6h-1.3v-4.5c0-1.7-0.7-2.5-2.1-2.5c-0.7,0-1.2,0.2-1.7,0.7c-0.4,0.5-0.7,1.2-0.7,2.1v4.1L124.4,84.9
			L124.4,84.9z"/>
		<path class="st2" d="M136.7,82.4c-0.4,0-0.9-0.1-1.2-0.2l-0.8,0.8c0.1,0.1,0.3,0.2,0.4,0.2c0.2,0.1,0.4,0.1,0.8,0.2
			c0.3,0.1,0.8,0.1,1.4,0.1c1.1,0.1,1.8,0.3,2.3,0.7c0.5,0.4,0.7,1,0.7,1.6c0,0.5-0.1,0.9-0.4,1.3c-0.2,0.4-0.6,0.8-1.1,1
			c-0.5,0.3-1.2,0.4-2,0.4c-0.7,0-1.4-0.1-1.9-0.3c-0.6-0.2-1-0.5-1.3-0.9s-0.5-0.9-0.5-1.4c0-0.3,0.1-0.6,0.2-1s0.5-0.7,0.9-1
			c-0.2-0.1-0.4-0.2-0.6-0.3c-0.2-0.1-0.3-0.2-0.5-0.4V83l1.4-1.3c-0.6-0.5-0.9-1.2-0.9-2.1c0-0.5,0.1-1,0.4-1.4
			c0.2-0.4,0.6-0.8,1.1-1s1-0.4,1.7-0.4c0.5,0,0.9,0.1,1.2,0.2h2.9v1l-1.5,0.1c0.3,0.4,0.5,1,0.5,1.5s-0.1,1-0.4,1.4
			c-0.2,0.4-0.6,0.8-1.1,1C137.9,82.3,137.4,82.4,136.7,82.4z M134.4,85.9c0,0.5,0.2,0.9,0.7,1.2s1,0.4,1.7,0.4s1.2-0.1,1.6-0.4
			c0.4-0.3,0.6-0.7,0.6-1.1c0-0.3-0.1-0.6-0.4-0.9s-0.8-0.4-1.5-0.4c-0.6,0-1.1-0.1-1.5-0.2c-0.4,0.2-0.7,0.5-0.9,0.8
			C134.4,85.5,134.4,85.7,134.4,85.9z M136.7,81.3c0.6,0,1-0.1,1.4-0.4c0.3-0.3,0.5-0.7,0.5-1.3c0-0.5-0.2-1-0.5-1.3
			s-0.8-0.4-1.4-0.4c-0.6,0-1,0.1-1.4,0.4s-0.5,0.7-0.5,1.3c0,0.6,0.2,1,0.5,1.3C135.7,81.2,136.1,81.3,136.7,81.3z"/>
		<path class="st2" d="M149.3,85.1c-0.7,0-1.2-0.1-1.6-0.3c-0.4-0.2-0.8-0.5-1-0.9s-0.3-0.8-0.3-1.2c0-0.8,0.3-1.4,0.9-1.9
			c0.6-0.4,1.5-0.7,2.5-0.7h2.1V80c0-0.7-0.2-1.2-0.5-1.6c-0.4-0.4-0.9-0.5-1.5-0.5c-0.5,0-1,0.1-1.3,0.4c-0.4,0.3-0.6,0.6-0.7,1.1
			h-1.4c0-0.6,0.2-1.1,0.6-1.5c0.3-0.4,0.8-0.7,1.3-0.9c0.5-0.2,1-0.3,1.6-0.3c1.1,0,1.9,0.3,2.5,0.9s0.8,1.4,0.8,2.4v4.9h-1.2
			l-0.1-1.4c-0.2,0.5-0.6,0.8-1,1.1C150.6,85,150,85.1,149.3,85.1z M149.5,84c0.5,0,0.9-0.1,1.3-0.4c0.4-0.3,0.6-0.6,0.8-1
			s0.3-0.9,0.3-1.3l0,0h-2c-0.8,0-1.3,0.1-1.7,0.4c-0.3,0.3-0.5,0.6-0.5,1s0.1,0.8,0.5,1C148.5,83.9,148.9,84,149.5,84z"/>
		<path class="st2" d="M155.3,84.9V77h1.2l0.1,1.4c0.3-0.5,0.6-0.9,1.1-1.2c0.5-0.3,1-0.4,1.6-0.4c0.9,0,1.7,0.3,2.2,0.9
			c0.6,0.6,0.8,1.5,0.8,2.6v4.6H161v-4.5c0-1.7-0.7-2.5-2.1-2.5c-0.7,0-1.2,0.2-1.7,0.7s-0.7,1.2-0.7,2.1v4.1L155.3,84.9L155.3,84.9
			z"/>
		<path class="st2" d="M168,85.1c-0.8,0-1.5-0.2-2.1-0.5c-0.6-0.4-1.1-0.9-1.4-1.5c-0.3-0.6-0.5-1.3-0.5-2.1s0.2-1.5,0.5-2.1
			s0.8-1.1,1.4-1.5c0.6-0.4,1.3-0.5,2.1-0.5c0.7,0,1.2,0.1,1.7,0.4s0.9,0.6,1.2,1.1v-4.9h1.3V85H171l-0.1-1.3
			c-0.3,0.4-0.6,0.7-1.1,1C169.4,85,168.8,85.1,168,85.1z M168.2,83.9c0.5,0,1-0.1,1.4-0.4s0.7-0.6,1-1c0.2-0.5,0.3-1,0.3-1.6
			s-0.1-1.1-0.3-1.6c-0.2-0.4-0.6-0.8-1-1s-0.9-0.4-1.4-0.4s-1,0.1-1.4,0.4c-0.4,0.2-0.7,0.6-1,1c-0.2,0.5-0.3,1-0.3,1.6
			s0.1,1.1,0.3,1.6c0.2,0.4,0.6,0.8,1,1C167.2,83.8,167.7,83.9,168.2,83.9z"/>
		<path class="st2" d="M22.3,106.9V99h1.2l0.1,1.1c0.3-0.4,0.6-0.8,1-1s0.9-0.4,1.4-0.4c0.6,0,1.2,0.1,1.6,0.4s0.8,0.6,1,1.2
			c0.3-0.5,0.7-0.9,1.1-1.1s1-0.4,1.6-0.4c1,0,1.7,0.3,2.3,0.9s0.8,1.4,0.8,2.6v4.6h-1.3v-4.5c0-0.8-0.2-1.4-0.5-1.9
			c-0.3-0.4-0.8-0.6-1.4-0.6c-0.6,0-1.2,0.2-1.6,0.7c-0.4,0.5-0.6,1.2-0.6,2.1v4.1h-1.3v-4.5c0-0.8-0.2-1.4-0.5-1.9
			c-0.3-0.4-0.8-0.6-1.4-0.6c-0.6,0-1.2,0.2-1.6,0.7c-0.4,0.5-0.6,1.2-0.6,2.1v4.1L22.3,106.9L22.3,106.9z"/>
		<path class="st2" d="M39.3,107.1c-0.7,0-1.2-0.1-1.7-0.3c-0.4-0.2-0.8-0.5-1-0.9s-0.3-0.8-0.3-1.2c0-0.8,0.3-1.4,0.9-1.9
			c0.6-0.4,1.5-0.7,2.5-0.7h2.1V102c0-0.7-0.2-1.2-0.5-1.6c-0.4-0.4-0.8-0.5-1.5-0.5c-0.5,0-1,0.1-1.3,0.4c-0.4,0.3-0.6,0.6-0.7,1.1
			h-1.3c0.1-0.6,0.2-1.1,0.6-1.5c0.3-0.4,0.8-0.7,1.3-0.9c0.5-0.2,1-0.3,1.6-0.3c1.1,0,1.9,0.3,2.5,0.9s0.8,1.4,0.8,2.4v4.9h-1.2
			l-0.1-1.4c-0.2,0.5-0.5,0.8-1,1.1C40.6,106.9,40,107.1,39.3,107.1z M39.4,106c0.5,0,1-0.1,1.3-0.4c0.4-0.3,0.7-0.6,0.8-1
			c0.2-0.4,0.3-0.9,0.3-1.3l0,0h-2c-0.8,0-1.4,0.1-1.7,0.4s-0.5,0.6-0.5,1s0.2,0.8,0.5,1C38.5,105.9,38.9,106,39.4,106z"/>
		<path class="st2" d="M45.3,106.9V95.4h1.3v6.9l3.2-3.3h1.7l-3.5,3.6l4,4.4h-1.7l-3.6-4.1v4.1h-1.4V106.9z"/>
		<path class="st2" d="M56.3,107.1c-0.8,0-1.4-0.2-2-0.5c-0.6-0.4-1.1-0.8-1.4-1.4s-0.5-1.4-0.5-2.2c0-0.8,0.2-1.6,0.5-2.2
			s0.8-1.1,1.4-1.5c0.6-0.4,1.3-0.5,2.1-0.5c0.8,0,1.4,0.2,2,0.5c0.6,0.4,1,0.8,1.3,1.4s0.4,1.2,0.4,1.8c0,0.1,0,0.2,0,0.4
			c0,0.1,0,0.2,0,0.4h-6.3c0,0.6,0.2,1.1,0.4,1.5s0.6,0.7,0.9,0.9c0.4,0.2,0.8,0.3,1.2,0.3c0.6,0,1-0.1,1.4-0.4s0.7-0.6,0.8-1h1.3
			c-0.2,0.7-0.6,1.4-1.2,1.8C58,106.9,57.3,107.1,56.3,107.1z M56.3,99.9c-0.6,0-1.2,0.2-1.7,0.6s-0.8,1-0.9,1.7h5
			c0-0.7-0.3-1.3-0.7-1.7C57.6,100.1,57,99.9,56.3,99.9z"/>
		<path class="st2" d="M69.2,106.9c-0.7,0-1.3-0.2-1.7-0.5c-0.4-0.4-0.6-1-0.6-1.9v-4.4h-1.4V99h1.4l0.2-1.9h1.2V99h2.3v1.1h-2.3
			v4.4c0,0.5,0.1,0.8,0.3,1c0.2,0.2,0.6,0.3,1.1,0.3h0.8v1.2h-1.3V106.9z"/>
		<path class="st2" d="M72.3,106.9V95.4h1.3v4.9c0.3-0.5,0.6-0.9,1.1-1.1c0.5-0.3,1-0.4,1.6-0.4c0.9,0,1.7,0.3,2.2,0.9
			c0.6,0.6,0.8,1.5,0.8,2.6v4.6H78v-4.5c0-1.7-0.7-2.5-2-2.5c-0.7,0-1.3,0.2-1.7,0.7c-0.5,0.5-0.7,1.2-0.7,2.1v4.1L72.3,106.9
			L72.3,106.9z"/>
		<path class="st2" d="M82.3,97.2c-0.3,0-0.5-0.1-0.7-0.3c-0.2-0.2-0.3-0.4-0.3-0.7c0-0.3,0.1-0.5,0.3-0.6c0.2-0.2,0.4-0.3,0.7-0.3
			s0.5,0.1,0.7,0.3c0.2,0.2,0.3,0.4,0.3,0.6c0,0.3-0.1,0.5-0.3,0.7C82.7,97.1,82.5,97.2,82.3,97.2z M81.6,106.9V99h1.3v7.9H81.6z"/>
		<path class="st2" d="M88.3,107.1c-1,0-1.7-0.2-2.4-0.7c-0.6-0.5-1-1.1-1.1-2h1.4c0.1,0.4,0.3,0.8,0.7,1.1c0.4,0.3,0.8,0.5,1.4,0.5
			s1-0.1,1.2-0.4s0.4-0.5,0.4-0.9c0-0.5-0.2-0.8-0.5-1s-0.8-0.3-1.5-0.4c-0.4-0.1-0.8-0.2-1.3-0.4s-0.8-0.4-1.1-0.7
			c-0.3-0.3-0.4-0.7-0.4-1.2c0-0.7,0.3-1.3,0.8-1.7c0.5-0.4,1.2-0.7,2.1-0.7c0.8,0,1.5,0.2,2.1,0.6c0.5,0.4,0.8,1,0.9,1.8h-1.3
			c0-0.4-0.2-0.7-0.5-1s-0.7-0.3-1.2-0.3s-0.8,0.1-1.1,0.3c-0.3,0.2-0.4,0.5-0.4,0.8s0.2,0.6,0.5,0.8c0.3,0.2,0.8,0.3,1.4,0.5
			c0.5,0.1,1,0.2,1.4,0.4c0.4,0.1,0.8,0.4,1.1,0.7c0.3,0.3,0.4,0.7,0.4,1.3c0,0.7-0.3,1.3-0.8,1.8C90,106.9,89.2,107.1,88.3,107.1z"
			/>
		<path class="st2" d="M97.5,110.4V99h1.2l0.1,1.3c0.3-0.4,0.6-0.7,1.1-1s1.1-0.5,1.8-0.5c0.8,0,1.5,0.2,2.1,0.5
			c0.6,0.4,1,0.9,1.4,1.5s0.5,1.3,0.5,2.1c0,0.8-0.2,1.5-0.5,2.1s-0.8,1.1-1.4,1.5s-1.3,0.5-2.1,0.5c-0.6,0-1.2-0.1-1.7-0.4
			s-0.9-0.6-1.2-1.1v4.9H97.5z M101.6,105.9c0.5,0,1-0.1,1.4-0.4c0.4-0.2,0.7-0.6,1-1c0.2-0.5,0.4-1,0.4-1.6s-0.1-1.1-0.4-1.6
			c-0.2-0.4-0.6-0.8-1-1s-0.9-0.4-1.4-0.4s-1,0.1-1.4,0.4s-0.7,0.6-1,1c-0.2,0.5-0.4,1-0.4,1.6s0.1,1.1,0.4,1.6c0.2,0.4,0.5,0.8,1,1
			C100.6,105.8,101.1,105.9,101.6,105.9z"/>
		<path class="st2" d="M110.2,107.1c-0.7,0-1.2-0.1-1.7-0.3c-0.4-0.2-0.8-0.5-1-0.9s-0.3-0.8-0.3-1.2c0-0.8,0.3-1.4,0.9-1.9
			s1.5-0.7,2.5-0.7h2.1V102c0-0.7-0.2-1.2-0.5-1.6c-0.4-0.4-0.9-0.5-1.5-0.5c-0.5,0-1,0.1-1.3,0.4c-0.4,0.3-0.6,0.6-0.7,1.1h-1.4
			c0.1-0.6,0.2-1.1,0.6-1.5c0.3-0.4,0.8-0.7,1.3-0.9c0.5-0.2,1-0.3,1.6-0.3c1.1,0,1.9,0.3,2.5,0.9s0.8,1.4,0.8,2.4v4.9h-1.2
			l-0.1-1.4c-0.2,0.5-0.5,0.8-1,1.1C111.5,107,110.9,107.1,110.2,107.1z M110.4,106c0.5,0,1-0.1,1.3-0.4c0.4-0.3,0.6-0.6,0.8-1
			s0.3-0.9,0.3-1.3l0,0h-2c-0.8,0-1.4,0.1-1.7,0.4s-0.5,0.6-0.5,1s0.1,0.8,0.5,1C109.4,105.9,109.8,106,110.4,106z"/>
		<path class="st2" d="M116.2,106.9V99h1.2l0.1,1.5c0.2-0.5,0.6-0.9,1.1-1.2c0.5-0.3,1.1-0.5,1.9-0.5v1.4h-0.4
			c-0.5,0-0.9,0.1-1.3,0.2c-0.4,0.2-0.7,0.4-0.9,0.8s-0.3,0.9-0.3,1.6v4h-1.4C116.2,106.8,116.2,106.9,116.2,106.9z"/>
		<path class="st2" d="M125.1,106.9c-0.7,0-1.3-0.2-1.7-0.5c-0.4-0.4-0.6-1-0.6-1.9v-4.4h-1.4V99h1.4l0.2-1.9h1.2V99h2.3v1.1h-2.3
			v4.4c0,0.5,0.1,0.8,0.3,1s0.6,0.3,1.1,0.3h0.8v1.2h-1.3V106.9z"/>
		<path class="st2" d="M136.1,107.1c-0.8,0-1.4-0.2-2-0.5s-1.1-0.8-1.4-1.5c-0.3-0.6-0.5-1.4-0.5-2.2c0-0.8,0.2-1.6,0.5-2.2
			s0.8-1.1,1.4-1.5c0.6-0.3,1.3-0.5,2-0.5c0.8,0,1.4,0.2,2,0.5s1.1,0.8,1.4,1.5c0.3,0.6,0.5,1.4,0.5,2.2c0,0.8-0.2,1.6-0.5,2.2
			s-0.8,1.1-1.4,1.5C137.5,106.9,136.8,107.1,136.1,107.1z M136.1,106c0.5,0,0.9-0.1,1.3-0.3c0.4-0.2,0.7-0.6,1-1
			c0.2-0.4,0.4-1,0.4-1.7s-0.1-1.2-0.4-1.7c-0.2-0.4-0.6-0.8-0.9-1s-0.8-0.3-1.3-0.3s-0.9,0.1-1.3,0.3c-0.4,0.2-0.7,0.6-1,1
			c-0.2,0.4-0.4,1-0.4,1.7s0.1,1.2,0.4,1.7c0.2,0.4,0.6,0.8,0.9,1C135.2,105.9,135.6,106,136.1,106z"/>
		<path class="st2" d="M142.4,106.9v-6.8h-1.2V99h1.2v-1.4c0-0.8,0.2-1.3,0.6-1.7c0.4-0.4,0.9-0.5,1.7-0.5h0.8v1.1h-0.6
			c-0.4,0-0.7,0.1-0.9,0.2c-0.2,0.2-0.3,0.4-0.3,0.8v1.3h1.9v1.1h-1.9v6.8L142.4,106.9L142.4,106.9z"/>
		<path class="st2" d="M152.4,110.4l2-4.3h-0.5l-3.1-7.2h1.5l2.6,6.2l2.8-6.2h1.4l-5.2,11.5H152.4z"/>
		<path class="st2" d="M163.2,107.1c-0.8,0-1.4-0.2-2-0.5s-1.1-0.8-1.4-1.5c-0.4-0.6-0.5-1.4-0.5-2.2c0-0.8,0.2-1.6,0.5-2.2
			c0.4-0.6,0.8-1.1,1.4-1.5c0.6-0.3,1.3-0.5,2-0.5s1.4,0.2,2,0.5s1.1,0.8,1.4,1.5c0.4,0.6,0.5,1.4,0.5,2.2c0,0.8-0.2,1.6-0.5,2.2
			c-0.4,0.6-0.8,1.1-1.4,1.5C164.7,106.9,164,107.1,163.2,107.1z M163.2,106c0.5,0,0.9-0.1,1.3-0.3c0.4-0.2,0.7-0.6,1-1
			c0.2-0.4,0.4-1,0.4-1.7s-0.1-1.2-0.4-1.7c-0.2-0.5-0.6-0.8-1-1s-0.8-0.3-1.3-0.3s-0.9,0.1-1.3,0.3s-0.7,0.6-1,1
			c-0.2,0.4-0.4,1-0.4,1.7s0.1,1.2,0.4,1.7c0.2,0.5,0.6,0.8,1,1C162.4,105.9,162.8,106,163.2,106z"/>
		<path class="st2" d="M172,107.1c-0.9,0-1.7-0.3-2.2-0.9s-0.8-1.5-0.8-2.6V99h1.3v4.5c0,1.6,0.7,2.5,2,2.5c0.7,0,1.3-0.2,1.7-0.7
			s0.7-1.2,0.7-2.1V99h1.3v7.9h-1.2l-0.1-1.4c-0.2,0.5-0.6,0.9-1.1,1.2C173.1,107,172.6,107.1,172,107.1z"/>
		<path class="st2" d="M178.3,106.9V99h1.2l0.1,1.5c0.2-0.5,0.6-0.9,1.1-1.2s1.1-0.5,1.9-0.5v1.4h-0.4c-0.5,0-0.9,0.1-1.3,0.2
			c-0.4,0.2-0.7,0.4-0.9,0.8s-0.3,0.9-0.3,1.6v4h-1.4L178.3,106.9L178.3,106.9z"/>
		<path class="st3" d="M235.8,186.3c32.1,0,58-4.5,58-10.1s-26-10.1-58-10.1s-58.1,4.5-58.1,10.1S203.7,186.3,235.8,186.3z"/>
		<path class="st4" d="M222.4,156.8l-15,15"/>
		<path class="st4" d="M246.9,156.8l15,15"/>
		<path class="st5" d="M243.2,88.8l-3.5,1.5l27.7,63.1l3.5-1.5L243.2,88.8z"/>
		<path class="st6" d="M290.9,70.3l-3,4.5c-1,1.6-2.9,2.5-4.8,2.5l-7.5-0.4c-1.9-0.1-3.7,0.8-4.8,2.4l-4.1,6.2
			c-1.1,1.6-2.9,2.5-4.8,2.4l-7.4-0.4c-1.9-0.1-3.8,0.8-4.8,2.4l-4.3,6.6c0,0-5.3,2-6.2,2l-5.9-0.3c-1.9-0.1-3.8,0.8-4.8,2.5l-4,6.2
			c-1.1,1.6-2.9,2.5-4.8,2.4l-7.5-0.4c-1.9-0.1-3.8,0.8-4.8,2.4l-4,6.2c-1.1,1.6-2.9,2.5-4.8,2.5l-5.5-0.3c-4.3-0.2-6.7-5.1-4.1-8.6
			l34.6-46.7c1-1.4,2.6-2.2,4.3-2.2l58.2-0.5C290.6,61.9,293.2,66.7,290.9,70.3z"/>
		<path class="st6" d="M285.4,156.2l22.3-29.5c1.1-1.4,0.8-3.5-0.6-4.5l-6.2-4.7c-1.4-1.1-3.4-0.8-4.5,0.6l-21.6,28.5
			c-0.6,0.8-1.6,1.3-2.6,1.3H190c-1.8,0-3.2,1.5-3.2,3.2v7.7c0,1.8,1.4,3.2,3.2,3.2h83.7C278.3,162,282.7,159.9,285.4,156.2z"/>
	</g>
</g>
</svg>
