<?xml version="1.0" encoding="utf-8"?>
<!-- Generator: Adobe Illustrator 25.1.0, SVG Export Plug-In . SVG Version: 6.00 Build 0)  -->
<svg version="1.1" id="Layer_1" xmlns="http://www.w3.org/2000/svg" xmlns:xlink="http://www.w3.org/1999/xlink" x="0px" y="0px"
	 viewBox="0 0 183.1 130" style="enable-background:new 0 0 183.1 130;" xml:space="preserve">
<style type="text/css">
	.st0{fill:#00CDDC;}
	.st1{fill:#00A878;}
	.st2{fill:#28C86E;}
	.st3{fill:#32DCD2;}
	.st4{fill:#FFFFFF;}
	.st5{fill:none;stroke:#28C86E;stroke-width:1.8847;stroke-linecap:round;stroke-miterlimit:10;}
	.st6{fill:#FFCF8D;}
	.st7{fill:#FF9F1A;}
</style>
<g>
	<g>
		<path class="st0" d="M30.3,130c-1.8-12.8-3.7-28.6-3.3-37.1C18.5,99.8,4.8,113.6,0,130H30.3z"/>
		<path class="st1" d="M162.2,63.2c0,0-51.6,15.1-87.6-17.9C74.6,45.3,116.8,27.3,162.2,63.2z"/>
		<path class="st2" d="M131.5,40.2c0,0-16.4,12.9-64.5,11.3C67,51.5,80.8,22.1,131.5,40.2z"/>
		<path class="st3" d="M176.5,130c-0.2-3.1-0.4-6.6-0.9-10.6C164.8,25.2,75.3,36.7,42.9,59.1C27.7,69.5,7.1,91.3,10.9,130H176.5
			L176.5,130z"/>
		<path d="M64.8,94.5c0.1,1-2.5,0.5-5.7,1S54,97,53.3,96.3c-0.7-0.7,1.5-5.8,4.6-6.3C61.1,89.6,64.7,93.5,64.8,94.5z"/>
		<path d="M112.2,86.9c-0.2,1.1-2.5,0.5-5.7,1s-5.1,1.5-5.8,0.8s1.5-5.8,4.6-6.3C108.5,81.9,112.4,85.8,112.2,86.9z"/>
		<path d="M80.3,110.9c-0.9-2.3,2.4-3.6,7.9-2.7s2.6,6.9-1.4,6.5S81.3,113.2,80.3,110.9z"/>
		<path class="st4" d="M87.6,112.1l-1.7,0.3c-0.8,0.2-1.6-0.5-1.8-1.4l-0.3-3.1c1.6-0.3,3.1,0.1,4.7,0.3l0.3,1.9
			C89,111.1,88.4,111.9,87.6,112.1z"/>
		<path class="st0" d="M181.6,130c0.1-15.7-7.2-30.8-13.1-39.2c-2.3,9.7-14.2,27.2-20.5,39.2H181.6z"/>
		<path class="st2" d="M59.8,30.8c0,0,0.5,9.8,10.2,13.9C70,44.7,70.6,40.7,59.8,30.8z"/>
		<path class="st5" d="M70,50.1c4.7-5.4-5.6-15.4-24.1-8"/>
		<path class="st6" d="M41.3,41.1c0,0-6.2,12.5-0.6,11.4C46.4,51.4,45.2,40,41.3,41.1z"/>
		<path class="st6" d="M42.8,38.9c0,0-1.9,14.2,3.4,10.6C51.5,46,46.4,36.1,42.8,38.9z"/>
		<path class="st6" d="M43.3,38.2c0,0-12.1,5.6-7.9,9.6C39.6,51.7,46.5,40.7,43.3,38.2z"/>
		<path class="st6" d="M46.2,44.2c0,0-2.3-16.3-7-10.6C34.5,39.4,43.1,48.6,46.2,44.2z"/>
		<path class="st6" d="M42.3,40.2c0,0-0.5-11,4.5-8.7C51.8,33.9,45.7,42.1,42.3,40.2z"/>
		<path class="st6" d="M42.1,37.1c0,0,13.4-1.5,9.9,4C48.6,46.7,39.4,40.8,42.1,37.1z"/>
		<path class="st7" d="M46,41.4c1.1-3.1,0.5-6.2-1.4-6.8c-1.9-0.7-4.2,1.3-5.4,4.4c-1.1,3.1-0.5,6.2,1.4,6.8
			C42.5,46.5,44.9,44.5,46,41.4z"/>
		<path class="st7" d="M144.6,35.6c1.5-0.2,2.8-0.4,4.1-0.6c0.7-0.1,1.4-0.1,2.1,0c0.3,0.1,0.9,0.5,0.9,0.8c0.1,0.3-0.3,0.8-0.5,1.1
			c-0.3,0.3-0.7,0.4-1.1,0.5c-2.3,0.5-4.6,1.1-6.9,1.5c-1.6,0.3-2.4-0.5-2.1-2.1c0.7-3.1,1.4-6.2,2.1-9.3c0.1-0.3,0.2-0.6,0.2-0.9
			c0.2-1.1-0.1-1.3-1.1-1c-0.4,0.1-0.8,0.2-1.1,0.3c-1.1,0.1-2-0.5-2.2-1.4s0.4-1.9,1.5-2.2c1.8-0.5,3.6-0.9,5.5-1.2
			c0.9-0.2,1.8,0.3,1.9,1.1c0.2,0.9,0.2,1.9,0,2.7c-0.4,1.5-1.1,3-1.5,4.5C145.7,31.3,145.2,33.4,144.6,35.6z"/>
		<path class="st7" d="M159.6,28.3c1.6-0.2,3-0.4,4.4-0.6c0.7-0.1,1.5-0.1,2.2,0c0.4,0.1,0.9,0.5,1,0.9s-0.3,0.9-0.6,1.2
			c-0.3,0.3-0.8,0.5-1.2,0.6c-2.5,0.6-5,1.1-7.5,1.6c-1.7,0.3-2.6-0.6-2.2-2.2c0.8-3.3,1.6-6.7,2.4-10c0.1-0.3,0.2-0.6,0.2-0.9
			c0.2-1.1-0.1-1.4-1.2-1.1c-0.4,0.1-0.8,0.2-1.2,0.3c-1.2,0.1-2.2-0.6-2.3-1.6c-0.2-1,0.5-2.1,1.6-2.3c2-0.5,3.9-0.9,5.9-1.3
			c0.9-0.2,1.9,0.3,2.1,1.2c0.2,0.9,0.2,2,0,2.9c-0.4,1.6-1.2,3.2-1.7,4.8C160.8,23.8,160.2,26,159.6,28.3z"/>
		<path class="st7" d="M173.7,19.5c2-0.1,3.8-0.3,5.6-0.4c0.9,0,1.9-0.1,2.7,0.2c0.5,0.1,1.1,0.7,1.1,1.2c0.1,0.4-0.4,1.1-0.8,1.4
			c-0.4,0.3-1,0.5-1.6,0.6c-3.2,0.5-6.3,1-9.5,1.4c-2.1,0.3-3.2-0.9-2.6-3c1.2-4.1,2.5-8.2,3.7-12.3c0.1-0.4,0.3-0.8,0.4-1.2
			c0.4-1.4,0-1.8-1.4-1.5c-0.5,0.1-1,0.2-1.5,0.2c-1.5,0.1-2.7-0.9-2.8-2.1c-0.1-1.3,0.8-2.6,2.2-2.8c2.5-0.4,5-0.8,7.4-1.2
			c1.2-0.2,2.4,0.5,2.5,1.6c0.2,1.2,0.1,2.5-0.2,3.7c-0.7,2-1.7,3.9-2.4,5.9C175.5,13.9,174.6,16.6,173.7,19.5z"/>
	</g>
</g>
</svg>
