<?xml version="1.0" encoding="utf-8"?>
<!-- Generator: Adobe Illustrator 25.1.0, SVG Export Plug-In . SVG Version: 6.00 Build 0)  -->
<svg version="1.1" id="Layer_1" xmlns="http://www.w3.org/2000/svg" xmlns:xlink="http://www.w3.org/1999/xlink" x="0px" y="0px"
	 viewBox="0 0 328.9 396.9" style="enable-background:new 0 0 328.9 396.9;" xml:space="preserve">
<style type="text/css">
	.st0{fill:#FFFFFF;}
	.st1{fill:#808080;}
	.st2{fill:#00CDDC;}
	.st3{fill:#FF9F1A;}
	.st4{fill:#E14504;}
	.st5{fill:none;stroke:#FFFFFF;stroke-width:3.0067;stroke-linecap:round;stroke-miterlimit:10;}
	.st6{fill:#CCF6F4;}
	.st7{fill:#F8D1C0;}
	.st8{fill:none;stroke:#F8FFFF;stroke-width:2;stroke-linecap:round;stroke-miterlimit:10;}
	.st9{fill:#D64204;}
	.st10{fill:none;stroke:#FFFFFF;stroke-width:1.1158;stroke-linecap:round;stroke-miterlimit:10;}
	.st11{fill:#E97443;}
	.st12{fill:#FFB753;}
	.st13{fill:none;stroke:#FFFFFF;stroke-width:0.6711;stroke-linecap:round;stroke-miterlimit:10;}
</style>
<g>
	<g>
		<path class="st0" d="M328.9,286.8C328.9,30.7,324,23.4,262,3.9c-26-8.2-127.3-1-162,0c-34.1,1-85,9.2-91,48.6
			C3.1,91.4,0,129,0,198.8c0,109.7,10,176.1,45,190c35.6,14.1,148.3,5.9,191.3,4.2C280.6,391.2,328.9,398.7,328.9,286.8z"/>
		<path class="st1" d="M34.7,53.3c-0.8,0-1.5-0.2-2.1-0.5s-1.1-0.7-1.4-1.2s-0.5-1.1-0.5-1.9h1.4c0,0.4,0.1,0.8,0.3,1.2
			s0.5,0.7,0.9,0.9s0.9,0.3,1.5,0.3c0.8,0,1.3-0.2,1.8-0.5c0.4-0.4,0.6-0.8,0.6-1.4c0-0.5-0.1-0.8-0.3-1.1s-0.5-0.5-0.8-0.7
			s-0.7-0.3-1.1-0.5c-0.4-0.1-0.9-0.3-1.3-0.4c-0.9-0.3-1.5-0.7-1.9-1.1s-0.6-1-0.6-1.7c0-0.6,0.1-1.1,0.4-1.6s0.7-0.8,1.2-1.1
			s1.2-0.4,1.9-0.4s1.3,0.1,1.9,0.4c0.5,0.3,0.9,0.6,1.2,1.1s0.5,1,0.5,1.6h-1.4c0-0.3-0.1-0.6-0.2-0.9c-0.2-0.3-0.4-0.5-0.7-0.7
			s-0.7-0.3-1.2-0.3c-0.6,0-1.1,0.1-1.5,0.5c-0.4,0.3-0.6,0.8-0.6,1.3s0.1,0.9,0.4,1.1c0.3,0.2,0.7,0.5,1.1,0.6
			c0.5,0.2,1.1,0.4,1.7,0.6c0.5,0.2,1,0.4,1.4,0.7s0.8,0.6,1,1s0.4,0.9,0.4,1.6c0,0.5-0.1,1-0.4,1.5s-0.7,0.9-1.3,1.2
			C36.3,53.1,35.6,53.3,34.7,53.3z"/>
		<path class="st1" d="M40.3,53.1V41.6h1.3v11.5H40.3z"/>
		<path class="st1" d="M47.4,53.3c-0.8,0-1.4-0.2-2-0.5c-0.6-0.4-1-0.8-1.4-1.4c-0.3-0.6-0.5-1.4-0.5-2.2s0.2-1.6,0.5-2.2
			s0.8-1.1,1.4-1.5c0.6-0.4,1.3-0.5,2.1-0.5s1.4,0.2,2,0.5s1,0.8,1.3,1.4s0.4,1.2,0.4,1.8c0,0.1,0,0.2,0,0.4c0,0.1,0,0.2,0,0.4h-6.3
			c0,0.6,0.2,1.1,0.4,1.5s0.6,0.7,0.9,0.9c0.4,0.2,0.8,0.3,1.2,0.3c0.5,0,1-0.1,1.4-0.4s0.7-0.6,0.8-1H51c-0.2,0.7-0.6,1.4-1.2,1.8
			C49.2,53,48.4,53.3,47.4,53.3z M47.4,46.1c-0.6,0-1.2,0.2-1.7,0.6s-0.8,1-0.9,1.7h5c0-0.7-0.3-1.3-0.7-1.7
			C48.7,46.3,48.1,46.1,47.4,46.1z"/>
		<path class="st1" d="M56.5,53.3c-0.8,0-1.4-0.2-2-0.5c-0.6-0.4-1-0.8-1.4-1.4c-0.3-0.6-0.5-1.4-0.5-2.2s0.2-1.6,0.5-2.2
			s0.8-1.1,1.4-1.5s1.3-0.5,2.1-0.5s1.4,0.2,2,0.5s1,0.8,1.3,1.4s0.4,1.2,0.4,1.8c0,0.1,0,0.2,0,0.4c0,0.1,0,0.2,0,0.4H54
			c0,0.6,0.2,1.1,0.4,1.5s0.6,0.7,0.9,0.9c0.4,0.2,0.8,0.3,1.2,0.3c0.5,0,1-0.1,1.4-0.4s0.7-0.6,0.8-1H60c-0.2,0.7-0.6,1.4-1.2,1.8
			C58.2,53,57.5,53.3,56.5,53.3z M56.5,46.1c-0.6,0-1.2,0.2-1.7,0.6s-0.8,1-0.9,1.7h5c0-0.7-0.3-1.3-0.7-1.7
			C57.8,46.3,57.2,46.1,56.5,46.1z"/>
		<path class="st1" d="M62.1,56.6V45.1h1.2l0.1,1.3c0.3-0.4,0.6-0.7,1.1-1c0.5-0.3,1.1-0.5,1.8-0.5c0.8,0,1.5,0.2,2.1,0.5
			c0.6,0.4,1,0.9,1.4,1.5s0.5,1.3,0.5,2.1s-0.2,1.5-0.5,2.1s-0.8,1.1-1.4,1.5s-1.3,0.5-2.1,0.5c-0.7,0-1.2-0.1-1.7-0.4
			s-0.9-0.6-1.2-1.1v4.8h-1.3C62.1,56.4,62.1,56.6,62.1,56.6z M66.2,52.1c0.5,0,1-0.1,1.4-0.4c0.4-0.2,0.7-0.6,1-1
			c0.2-0.5,0.3-1,0.3-1.6s-0.1-1.1-0.3-1.6c-0.2-0.4-0.6-0.8-1-1s-0.9-0.4-1.4-0.4s-1,0.1-1.4,0.4c-0.4,0.2-0.7,0.6-1,1
			c-0.2,0.5-0.4,1-0.4,1.6s0.1,1.1,0.4,1.6c0.2,0.4,0.5,0.8,1,1C65.2,51.9,65.6,52.1,66.2,52.1z"/>
		<path class="st1" d="M76.4,53.1V41.6h1.3v4.9c0.3-0.5,0.7-0.9,1.1-1.1c0.5-0.3,1-0.4,1.6-0.4c0.9,0,1.6,0.3,2.2,0.9
			c0.5,0.6,0.8,1.4,0.8,2.6v4.6h-1.3v-4.5c0-1.6-0.7-2.5-2-2.5c-0.7,0-1.3,0.2-1.7,0.7c-0.5,0.5-0.7,1.2-0.7,2.1V53L76.4,53.1
			L76.4,53.1z"/>
		<path class="st1" d="M88.2,53.3c-0.7,0-1.2-0.1-1.7-0.3c-0.4-0.2-0.8-0.5-1-0.9s-0.3-0.8-0.3-1.2c0-0.8,0.3-1.4,0.9-1.9
			c0.6-0.4,1.5-0.7,2.5-0.7h2.1v-0.1c0-0.7-0.2-1.2-0.5-1.6c-0.4-0.4-0.8-0.5-1.5-0.5c-0.5,0-1,0.1-1.4,0.4s-0.6,0.6-0.7,1.1h-1.4
			c0.1-0.6,0.2-1.1,0.6-1.5c0.3-0.4,0.8-0.7,1.3-0.9s1-0.3,1.6-0.3c1.1,0,1.9,0.3,2.5,0.9s0.8,1.4,0.8,2.4v4.9h-1.2l-0.1-1.4
			c-0.2,0.5-0.6,0.8-1,1.1C89.5,53.1,88.9,53.3,88.2,53.3z M88.4,52.1c0.5,0,0.9-0.1,1.3-0.4s0.7-0.6,0.8-1c0.2-0.4,0.3-0.9,0.3-1.3
			l0,0h-2c-0.8,0-1.3,0.1-1.7,0.4c-0.3,0.3-0.5,0.6-0.5,1s0.1,0.8,0.5,1C87.4,52,87.8,52.1,88.4,52.1z"/>
		<path class="st1" d="M97.2,53.3c-0.9,0-1.7-0.2-2.4-0.7c-0.6-0.5-1-1.1-1.1-2h1.4c0.1,0.4,0.3,0.8,0.7,1.1
			c0.3,0.3,0.8,0.5,1.5,0.5c0.6,0,1-0.1,1.2-0.4c0.3-0.2,0.4-0.5,0.4-0.9c0-0.5-0.2-0.8-0.5-1s-0.8-0.3-1.5-0.4
			c-0.4-0.1-0.8-0.2-1.3-0.4s-0.8-0.4-1.1-0.7c-0.3-0.3-0.4-0.7-0.4-1.2c0-0.7,0.3-1.3,0.8-1.7s1.2-0.7,2.1-0.7
			c0.8,0,1.5,0.2,2.1,0.6c0.5,0.4,0.8,1,0.9,1.8h-1.3c-0.1-0.4-0.2-0.7-0.5-1c-0.3-0.2-0.7-0.3-1.2-0.3s-0.9,0.1-1.1,0.3
			c-0.3,0.2-0.4,0.5-0.4,0.8s0.2,0.6,0.5,0.8s0.8,0.3,1.4,0.5c0.5,0.1,1,0.2,1.4,0.4c0.4,0.1,0.8,0.4,1.1,0.7
			c0.3,0.3,0.4,0.7,0.4,1.3c0,0.7-0.3,1.3-0.8,1.8C98.9,53,98.2,53.3,97.2,53.3z"/>
		<path class="st1" d="M106.4,53.1V41.6h1.3v11.5H106.4z"/>
		<path class="st1" d="M113.6,53.3c-0.8,0-1.4-0.2-2-0.5s-1.1-0.8-1.4-1.5c-0.4-0.6-0.5-1.4-0.5-2.2s0.2-1.6,0.5-2.2
			c0.4-0.6,0.8-1.1,1.4-1.4c0.6-0.3,1.3-0.5,2-0.5s1.4,0.2,2,0.5s1.1,0.8,1.4,1.4c0.4,0.6,0.5,1.4,0.5,2.2s-0.2,1.6-0.5,2.2
			s-0.8,1.1-1.4,1.5C115,53.1,114.3,53.3,113.6,53.3z M113.6,52.1c0.5,0,0.9-0.1,1.3-0.3s0.7-0.6,1-1s0.4-1,0.4-1.7
			s-0.1-1.2-0.4-1.7s-0.6-0.8-0.9-1c-0.4-0.2-0.8-0.3-1.3-0.3s-0.9,0.1-1.3,0.3s-0.7,0.6-1,1c-0.2,0.5-0.4,1-0.4,1.7
			s0.1,1.2,0.4,1.7s0.6,0.8,0.9,1C112.7,52,113.1,52.1,113.6,52.1z"/>
		<path class="st1" d="M122.2,53.1c-0.7,0-1.3-0.2-1.7-0.5c-0.4-0.4-0.6-1-0.6-1.9v-4.4h-1.4v-1.1h1.4l0.2-1.9h1.2v1.9h2.3v1.1h-2.3
			v4.4c0,0.5,0.1,0.8,0.3,1s0.6,0.3,1.1,0.3h0.8v1.1H122.2z"/>
		<path class="st1" d="M128.4,53.3c-1,0-1.7-0.2-2.4-0.7c-0.6-0.5-1-1.1-1.1-2h1.4c0.1,0.4,0.3,0.8,0.7,1.1c0.4,0.3,0.8,0.5,1.4,0.5
			c0.6,0,1-0.1,1.2-0.4c0.3-0.2,0.4-0.5,0.4-0.9c0-0.5-0.2-0.8-0.5-1c-0.4-0.2-0.8-0.3-1.5-0.4c-0.4-0.1-0.8-0.2-1.3-0.4
			c-0.4-0.2-0.8-0.4-1.1-0.7c-0.3-0.3-0.4-0.7-0.4-1.2c0-0.7,0.3-1.3,0.8-1.7s1.2-0.7,2.1-0.7c0.8,0,1.5,0.2,2.1,0.6
			c0.5,0.4,0.8,1,0.9,1.8h-1.3c-0.1-0.4-0.2-0.7-0.5-1c-0.3-0.2-0.7-0.3-1.2-0.3s-0.8,0.1-1.1,0.3c-0.3,0.2-0.4,0.5-0.4,0.8
			s0.2,0.6,0.5,0.8s0.8,0.3,1.4,0.5c0.5,0.1,1,0.2,1.4,0.4c0.4,0.1,0.8,0.4,1.1,0.7s0.4,0.7,0.4,1.3c0,0.7-0.3,1.3-0.8,1.8
			C130,53,129.3,53.3,128.4,53.3z"/>
		<path class="st1" d="M141.2,53.3c-0.8,0-1.4-0.2-2-0.5s-1.1-0.8-1.4-1.5c-0.4-0.6-0.5-1.4-0.5-2.2s0.2-1.6,0.5-2.2
			c0.4-0.6,0.8-1.1,1.4-1.4c0.6-0.3,1.3-0.5,2-0.5s1.4,0.2,2,0.5s1.1,0.8,1.4,1.4c0.4,0.6,0.5,1.4,0.5,2.2s-0.2,1.6-0.5,2.2
			s-0.8,1.1-1.4,1.5C142.6,53.1,141.9,53.3,141.2,53.3z M141.2,52.1c0.5,0,0.9-0.1,1.3-0.3c0.4-0.2,0.7-0.6,1-1s0.4-1,0.4-1.7
			s-0.1-1.2-0.4-1.7c-0.2-0.4-0.6-0.8-0.9-1c-0.4-0.2-0.8-0.3-1.3-0.3s-0.9,0.1-1.3,0.3c-0.4,0.2-0.7,0.6-1,1
			c-0.2,0.5-0.4,1-0.4,1.7s0.1,1.2,0.4,1.7s0.6,0.8,0.9,1C140.3,52,140.7,52.1,141.2,52.1z"/>
		<path class="st1" d="M147.4,53.1v-6.8h-1.2v-1.1h1.2v-1.4c0-0.8,0.2-1.3,0.6-1.7c0.4-0.4,0.9-0.5,1.7-0.5h0.8v1.1h-0.6
			c-0.4,0-0.7,0.1-0.9,0.2c-0.2,0.2-0.3,0.5-0.3,0.8V45h1.9v1.1h-1.9v6.8L147.4,53.1L147.4,53.1z"/>
		<path class="st1" d="M156.6,56.6V45.1h1.2l0.1,1.3c0.3-0.4,0.6-0.7,1.1-1s1.1-0.5,1.8-0.5c0.8,0,1.5,0.2,2.1,0.5
			c0.6,0.4,1,0.9,1.4,1.5c0.3,0.6,0.5,1.3,0.5,2.1s-0.2,1.5-0.5,2.1s-0.8,1.1-1.4,1.5c-0.6,0.4-1.3,0.5-2.1,0.5
			c-0.6,0-1.2-0.1-1.7-0.4s-0.9-0.6-1.2-1.1v4.8h-1.3L156.6,56.6L156.6,56.6z M160.7,52.1c0.5,0,1-0.1,1.4-0.4s0.7-0.6,1-1
			c0.2-0.5,0.3-1,0.3-1.6s-0.1-1.1-0.3-1.6c-0.2-0.4-0.6-0.8-1-1s-0.9-0.4-1.4-0.4s-1,0.1-1.4,0.4c-0.4,0.2-0.7,0.6-1,1
			c-0.2,0.5-0.3,1-0.3,1.6s0.1,1.1,0.3,1.6c0.2,0.4,0.6,0.8,1,1S160.1,52.1,160.7,52.1z"/>
		<path class="st1" d="M166.6,53.1V41.6h1.3v4.9c0.3-0.5,0.6-0.9,1.1-1.1s1-0.4,1.6-0.4c0.9,0,1.6,0.3,2.2,0.9
			c0.6,0.6,0.8,1.4,0.8,2.6v4.6h-1.3v-4.5c0-1.6-0.7-2.5-2-2.5c-0.7,0-1.3,0.2-1.7,0.7c-0.5,0.5-0.7,1.2-0.7,2.1V53L166.6,53.1
			L166.6,53.1z"/>
		<path class="st1" d="M176.4,56.6l2-4.3h-0.5l-3.1-7.2h1.5l2.6,6.2l2.8-6.2h1.4l-5.2,11.5H176.4z"/>
		<path class="st1" d="M187,53.3c-0.9,0-1.7-0.2-2.4-0.7c-0.6-0.5-1-1.1-1.1-2h1.4c0.1,0.4,0.3,0.8,0.7,1.1s0.8,0.5,1.4,0.5
			c0.6,0,1-0.1,1.2-0.4c0.3-0.2,0.4-0.5,0.4-0.9c0-0.5-0.2-0.8-0.5-1s-0.8-0.3-1.5-0.4c-0.4-0.1-0.9-0.2-1.3-0.4
			c-0.4-0.2-0.8-0.4-1.1-0.7s-0.4-0.7-0.4-1.2c0-0.7,0.3-1.3,0.8-1.7s1.2-0.7,2.1-0.7c0.8,0,1.5,0.2,2.1,0.6c0.5,0.4,0.8,1,0.9,1.8
			h-1.3c-0.1-0.4-0.2-0.7-0.5-1c-0.3-0.2-0.7-0.3-1.2-0.3s-0.8,0.1-1.1,0.3s-0.4,0.5-0.4,0.8s0.2,0.6,0.5,0.8s0.8,0.3,1.4,0.5
			c0.5,0.1,1,0.2,1.4,0.4c0.4,0.1,0.8,0.4,1.1,0.7s0.4,0.7,0.4,1.3c0,0.7-0.3,1.3-0.8,1.8C188.7,53,188,53.3,187,53.3z"/>
		<path class="st1" d="M192.8,43.4c-0.3,0-0.5-0.1-0.7-0.3s-0.3-0.4-0.3-0.7s0.1-0.5,0.3-0.6c0.2-0.2,0.4-0.3,0.7-0.3
			s0.5,0.1,0.7,0.3s0.3,0.4,0.3,0.6c0,0.3-0.1,0.5-0.3,0.7S193.1,43.4,192.8,43.4z M192.1,53.1v-7.9h1.3v7.9H192.1z"/>
		<path class="st1" d="M199.4,53.3c-0.8,0-1.4-0.2-2-0.5c-0.6-0.4-1.1-0.8-1.4-1.5c-0.4-0.6-0.5-1.4-0.5-2.2s0.2-1.6,0.5-2.2
			s0.8-1.1,1.4-1.5c0.6-0.4,1.3-0.5,2-0.5c0.9,0,1.7,0.2,2.4,0.7c0.6,0.5,1.1,1.1,1.2,2h-1.4c-0.1-0.5-0.4-0.9-0.8-1.1
			c-0.4-0.3-0.9-0.4-1.5-0.4c-0.4,0-0.9,0.1-1.3,0.3c-0.4,0.2-0.7,0.6-1,1c-0.2,0.4-0.4,1-0.4,1.7s0.1,1.2,0.4,1.7s0.6,0.8,1,1
			s0.8,0.3,1.3,0.3c0.6,0,1-0.1,1.5-0.4s0.7-0.7,0.8-1.2h1.4c-0.2,0.8-0.6,1.5-1.2,2C201.2,53,200.4,53.3,199.4,53.3z"/>
		<path class="st1" d="M207.6,53.3c-0.7,0-1.2-0.1-1.6-0.3c-0.4-0.2-0.8-0.5-1-0.9s-0.3-0.8-0.3-1.2c0-0.8,0.3-1.4,0.9-1.9
			c0.6-0.4,1.5-0.7,2.5-0.7h2.1v-0.1c0-0.7-0.2-1.2-0.5-1.6c-0.4-0.4-0.8-0.5-1.5-0.5c-0.5,0-1,0.1-1.4,0.4s-0.6,0.6-0.7,1.1h-1.4
			c0.1-0.6,0.2-1.1,0.6-1.5c0.3-0.4,0.8-0.7,1.3-0.9s1-0.3,1.6-0.3c1.1,0,1.9,0.3,2.5,0.9s0.8,1.4,0.8,2.4v4.9h-1.2l-0.1-1.4
			c-0.2,0.5-0.6,0.8-1,1.1C208.9,53.1,208.3,53.3,207.6,53.3z M207.8,52.1c0.5,0,0.9-0.1,1.3-0.4c0.4-0.3,0.7-0.6,0.8-1
			c0.2-0.4,0.3-0.9,0.3-1.3l0,0h-2c-0.8,0-1.4,0.1-1.7,0.4s-0.5,0.6-0.5,1s0.1,0.8,0.5,1C206.8,52,207.2,52.1,207.8,52.1z"/>
		<path class="st1" d="M213.6,53.1V41.6h1.3v11.5H213.6z"/>
		<path class="st1" d="M221.4,53.1V41.6h1.3v4.9c0.3-0.5,0.6-0.9,1.1-1.1c0.5-0.3,1-0.4,1.6-0.4c0.9,0,1.7,0.3,2.2,0.9
			c0.6,0.6,0.8,1.4,0.8,2.6v4.6h-1.3v-4.5c0-1.6-0.7-2.5-2-2.5c-0.7,0-1.3,0.2-1.7,0.7c-0.5,0.5-0.7,1.2-0.7,2.1V53L221.4,53.1
			L221.4,53.1z"/>
		<path class="st1" d="M234.1,53.3c-0.8,0-1.4-0.2-2-0.5c-0.6-0.4-1.1-0.8-1.4-1.4c-0.3-0.6-0.5-1.4-0.5-2.2s0.2-1.6,0.5-2.2
			s0.8-1.1,1.4-1.5c0.6-0.4,1.3-0.5,2.1-0.5s1.4,0.2,2,0.5s1,0.8,1.3,1.4s0.4,1.2,0.4,1.8c0,0.1,0,0.2,0,0.4c0,0.1,0,0.2,0,0.4h-6.3
			c0,0.6,0.2,1.1,0.4,1.5s0.6,0.7,0.9,0.9c0.4,0.2,0.8,0.3,1.2,0.3c0.6,0,1-0.1,1.4-0.4s0.7-0.6,0.8-1h1.3c-0.2,0.7-0.6,1.4-1.2,1.8
			C235.8,53,235,53.3,234.1,53.3z M234.1,46.1c-0.6,0-1.2,0.2-1.7,0.6s-0.8,1-0.9,1.7h5c0-0.7-0.3-1.3-0.7-1.7
			C235.3,46.3,234.8,46.1,234.1,46.1z"/>
		<path class="st1" d="M242.3,53.3c-0.7,0-1.2-0.1-1.7-0.3c-0.4-0.2-0.8-0.5-1-0.9s-0.3-0.8-0.3-1.2c0-0.8,0.3-1.4,0.9-1.9
			s1.5-0.7,2.5-0.7h2.1v-0.1c0-0.7-0.2-1.2-0.5-1.6c-0.4-0.4-0.9-0.5-1.5-0.5c-0.5,0-1,0.1-1.4,0.4s-0.6,0.6-0.7,1.1h-1.4
			c0-0.6,0.2-1.1,0.6-1.5c0.3-0.4,0.8-0.7,1.3-0.9s1-0.3,1.6-0.3c1.1,0,1.9,0.3,2.5,0.9s0.8,1.4,0.8,2.4v4.9H245l-0.1-1.4
			c-0.2,0.5-0.5,0.8-1,1.1C243.6,53.1,243,53.3,242.3,53.3z M242.5,52.1c0.5,0,1-0.1,1.3-0.4s0.6-0.6,0.8-1s0.3-0.9,0.3-1.3l0,0h-2
			c-0.8,0-1.4,0.1-1.7,0.4c-0.3,0.3-0.5,0.6-0.5,1s0.1,0.8,0.5,1C241.5,52,241.9,52.1,242.5,52.1z"/>
		<path class="st1" d="M248.3,53.1V41.6h1.3v11.5H248.3z"/>
		<path class="st1" d="M255,53.1c-0.7,0-1.3-0.2-1.7-0.5c-0.4-0.4-0.6-1-0.6-1.9v-4.4h-1.4v-1.1h1.4l0.2-1.9h1.2v1.9h2.3v1.1H254
			v4.4c0,0.5,0.1,0.8,0.3,1s0.6,0.3,1.1,0.3h0.8v1.1H255z"/>
		<path class="st1" d="M258,53.1V41.6h1.3v4.9c0.3-0.5,0.7-0.9,1.1-1.1s1-0.4,1.6-0.4c0.9,0,1.6,0.3,2.2,0.9
			c0.5,0.6,0.8,1.4,0.8,2.6v4.6h-1.3v-4.5c0-1.6-0.7-2.5-2-2.5c-0.7,0-1.3,0.2-1.7,0.7c-0.5,0.5-0.7,1.2-0.7,2.1V53L258,53.1
			L258,53.1z"/>
		<path class="st1" d="M35.3,75.3c-0.7,0-1.2-0.1-1.7-0.4s-0.9-0.6-1.2-1.1l-0.1,1.3h-1.2V63.6h1.3v4.9c0.3-0.4,0.6-0.7,1.1-1
			s1.1-0.5,1.8-0.5c0.8,0,1.5,0.2,2.1,0.5c0.6,0.4,1,0.9,1.4,1.5c0.3,0.6,0.5,1.3,0.5,2.1s-0.2,1.5-0.5,2.1s-0.8,1.1-1.4,1.5
			C36.8,75.1,36.1,75.3,35.3,75.3z M35.2,74.1c0.5,0,1-0.1,1.4-0.4s0.7-0.6,1-1c0.2-0.5,0.4-1,0.4-1.6s-0.1-1.1-0.4-1.6
			c-0.2-0.4-0.5-0.8-1-1s-0.9-0.4-1.4-0.4s-1,0.1-1.4,0.4s-0.7,0.6-1,1c-0.2,0.5-0.4,1-0.4,1.6s0.1,1.1,0.4,1.6c0.2,0.4,0.5,0.8,1,1
			S34.6,74.1,35.2,74.1z"/>
		<path class="st1" d="M44.7,75.3c-0.8,0-1.4-0.2-2-0.5s-1-0.8-1.4-1.4c-0.3-0.6-0.5-1.4-0.5-2.2s0.2-1.6,0.5-2.2s0.8-1.1,1.4-1.5
			S44,67,44.8,67s1.4,0.2,2,0.5s1,0.8,1.3,1.4s0.4,1.2,0.4,1.8c0,0.1,0,0.2,0,0.4c0,0.1,0,0.2,0,0.4h-6.3c0,0.6,0.2,1.1,0.4,1.5
			s0.6,0.7,0.9,0.9c0.4,0.2,0.8,0.3,1.2,0.3c0.6,0,1-0.1,1.4-0.4s0.7-0.6,0.8-1h1.3c-0.2,0.7-0.6,1.4-1.2,1.8
			C46.4,75,45.6,75.3,44.7,75.3z M44.7,68.1c-0.6,0-1.2,0.2-1.7,0.6s-0.8,1-0.9,1.7h5c0-0.7-0.3-1.3-0.7-1.7
			C45.9,68.3,45.4,68.1,44.7,68.1z"/>
		<path class="st1" d="M50.2,75.1v-7.9h1.2l0.1,1.4c0.3-0.5,0.6-0.9,1.1-1.2s1-0.4,1.6-0.4c0.9,0,1.7,0.3,2.2,0.9
			c0.6,0.6,0.8,1.4,0.8,2.6v4.6H56v-4.5c0-1.6-0.7-2.5-2.1-2.5c-0.7,0-1.2,0.2-1.7,0.7c-0.4,0.5-0.7,1.2-0.7,2.1V75L50.2,75.1
			L50.2,75.1z"/>
		<path class="st1" d="M62.9,75.3c-0.8,0-1.4-0.2-2-0.5c-0.6-0.4-1-0.8-1.4-1.4C59.2,72.8,59,72,59,71.2s0.2-1.6,0.5-2.2
			s0.8-1.1,1.4-1.5S62.2,67,63,67s1.4,0.2,2,0.5s1,0.8,1.3,1.4s0.4,1.2,0.4,1.8c0,0.1,0,0.2,0,0.4c0,0.1,0,0.2,0,0.4h-6.3
			c0,0.6,0.2,1.1,0.4,1.5s0.6,0.7,0.9,0.9c0.4,0.2,0.8,0.3,1.2,0.3c0.5,0,1-0.1,1.4-0.4s0.7-0.6,0.8-1h1.3c-0.2,0.7-0.6,1.4-1.2,1.8
			C64.7,75,63.9,75.3,62.9,75.3z M62.9,68.1c-0.6,0-1.2,0.2-1.7,0.6s-0.8,1-0.9,1.7h5c0-0.7-0.3-1.3-0.7-1.7
			C64.2,68.3,63.6,68.1,62.9,68.1z"/>
		<path class="st1" d="M68.9,75.1v-6.8h-1.2v-1.1h1.2v-1.4c0-0.8,0.2-1.3,0.6-1.7c0.4-0.4,0.9-0.5,1.7-0.5H72v1.1h-0.6
			c-0.4,0-0.7,0.1-0.9,0.2c-0.2,0.2-0.3,0.5-0.3,0.8V67h4.9v7.9h-1.3v-6.8h-3.6v6.8L68.9,75.1L68.9,75.1z M74.5,65.6
			c-0.3,0-0.5-0.1-0.7-0.3s-0.3-0.4-0.3-0.7s0.1-0.5,0.3-0.6c0.2-0.2,0.4-0.3,0.7-0.3c0.3,0,0.5,0.1,0.7,0.3
			c0.2,0.2,0.3,0.4,0.3,0.6c0,0.3-0.1,0.5-0.3,0.7C75,65.5,74.8,65.6,74.5,65.6z"/>
		<path class="st1" d="M80.7,75.1c-0.7,0-1.3-0.2-1.7-0.5c-0.4-0.4-0.6-1-0.6-1.9v-4.4H77v-1.1h1.4l0.2-1.9h1.2v1.9h2.3v1.1h-2.3
			v4.4c0,0.5,0.1,0.8,0.3,1s0.6,0.3,1.1,0.3H82v1.1H80.7z"/>
		<path class="st1" d="M86.8,75.3c-0.9,0-1.7-0.2-2.4-0.7c-0.6-0.5-1-1.1-1.1-2h1.4c0.1,0.4,0.3,0.8,0.7,1.1
			c0.3,0.3,0.8,0.5,1.5,0.5c0.6,0,1-0.1,1.2-0.4c0.3-0.2,0.4-0.5,0.4-0.9c0-0.5-0.2-0.8-0.5-1s-0.8-0.3-1.5-0.4
			c-0.4-0.1-0.8-0.2-1.3-0.4s-0.8-0.4-1.1-0.7s-0.4-0.7-0.4-1.2c0-0.7,0.3-1.3,0.8-1.7s1.2-0.7,2.1-0.7c0.8,0,1.5,0.2,2.1,0.6
			c0.5,0.4,0.8,1,0.9,1.8h-1.3c-0.1-0.4-0.2-0.7-0.5-1c-0.3-0.2-0.7-0.3-1.2-0.3s-0.9,0.1-1.1,0.3c-0.3,0.2-0.4,0.5-0.4,0.8
			s0.2,0.6,0.5,0.8s0.8,0.3,1.4,0.5c0.5,0.1,1,0.2,1.4,0.4c0.4,0.1,0.8,0.4,1.1,0.7c0.3,0.3,0.4,0.7,0.4,1.3c0,0.7-0.3,1.3-0.8,1.8
			C88.5,75,87.7,75.3,86.8,75.3z"/>
		<path class="st1" d="M99.1,75.1c-0.7,0-1.3-0.2-1.7-0.5c-0.4-0.4-0.6-1-0.6-1.9v-4.4h-1.4v-1.1h1.4l0.2-1.9h1.2v1.9h2.3v1.1h-2.3
			v4.4c0,0.5,0.1,0.8,0.3,1s0.6,0.3,1.1,0.3h0.8v1.1H99.1z"/>
		<path class="st1" d="M105.6,75.3c-0.8,0-1.4-0.2-2-0.5s-1.1-0.8-1.4-1.5c-0.4-0.6-0.5-1.4-0.5-2.2s0.2-1.6,0.5-2.2
			c0.4-0.6,0.8-1.1,1.4-1.4s1.3-0.5,2-0.5s1.4,0.2,2,0.5s1.1,0.8,1.4,1.4s0.5,1.4,0.5,2.2s-0.2,1.6-0.5,2.2s-0.8,1.1-1.4,1.5
			S106.3,75.3,105.6,75.3z M105.6,74.1c0.5,0,0.9-0.1,1.3-0.3s0.7-0.6,1-1s0.4-1,0.4-1.7s-0.1-1.2-0.4-1.7c-0.2-0.4-0.6-0.8-0.9-1
			c-0.4-0.2-0.8-0.3-1.3-0.3s-0.9,0.1-1.3,0.3s-0.7,0.6-1,1c-0.2,0.5-0.4,1-0.4,1.7s0.1,1.2,0.4,1.7s0.6,0.8,0.9,1
			C104.7,74,105.1,74.1,105.6,74.1z"/>
		<path class="st1" d="M115,75.3c-0.8,0-1.4-0.2-2-0.5s-1.1-0.8-1.4-1.5c-0.3-0.6-0.5-1.4-0.5-2.2s0.2-1.6,0.5-2.2s0.8-1.1,1.4-1.4
			c0.6-0.3,1.3-0.5,2-0.5s1.4,0.2,2,0.5s1.1,0.8,1.4,1.4c0.3,0.6,0.5,1.4,0.5,2.2s-0.2,1.6-0.5,2.2s-0.8,1.1-1.4,1.5
			C116.5,75.1,115.8,75.3,115,75.3z M115,74.1c0.5,0,0.9-0.1,1.3-0.3s0.7-0.6,1-1s0.4-1,0.4-1.7s-0.1-1.2-0.4-1.7s-0.6-0.8-0.9-1
			c-0.4-0.2-0.8-0.3-1.3-0.3s-0.9,0.1-1.3,0.3s-0.7,0.6-1,1c-0.2,0.5-0.4,1-0.4,1.7s0.1,1.2,0.4,1.7s0.6,0.8,0.9,1
			C114.2,74,114.6,74.1,115,74.1z"/>
		<path class="st1" d="M119.8,77l0.9-3.5h1.4l-1.4,3.5H119.8z"/>
		<path class="st1" d="M128,75.1V63.6h1.3v11.5H128z"/>
		<path class="st1" d="M132.4,65.4c-0.3,0-0.5-0.1-0.7-0.3s-0.3-0.4-0.3-0.7s0.1-0.5,0.3-0.6c0.2-0.2,0.4-0.3,0.7-0.3
			s0.5,0.1,0.7,0.3s0.3,0.4,0.3,0.6c0,0.3-0.1,0.5-0.3,0.7C132.8,65.3,132.6,65.4,132.4,65.4z M131.7,75.1v-7.9h1.3v7.9H131.7z"/>
		<path class="st1" d="M135.4,75.1V63.6h1.3v6.9l3.2-3.3h1.6l-3.5,3.6l4,4.4h-1.7l-3.6-4.1v4.1L135.4,75.1L135.4,75.1z"/>
		<path class="st1" d="M146.4,75.3c-0.8,0-1.4-0.2-2-0.5s-1.1-0.8-1.4-1.4c-0.3-0.6-0.5-1.4-0.5-2.2s0.2-1.6,0.5-2.2
			s0.8-1.1,1.4-1.5s1.3-0.5,2.1-0.5s1.4,0.2,2,0.5s1,0.8,1.3,1.4s0.4,1.2,0.4,1.8c0,0.1,0,0.2,0,0.4s0,0.2,0,0.4h-6.3
			c0,0.6,0.2,1.1,0.4,1.5s0.6,0.7,0.9,0.9c0.4,0.2,0.8,0.3,1.2,0.3c0.6,0,1-0.1,1.4-0.4s0.6-0.6,0.8-1h1.3c-0.2,0.7-0.6,1.4-1.2,1.8
			C148.1,75,147.4,75.3,146.4,75.3z M146.4,68.1c-0.6,0-1.2,0.2-1.7,0.6s-0.8,1-0.9,1.7h5c0-0.7-0.3-1.3-0.7-1.7
			C147.6,68.3,147.1,68.1,146.4,68.1z"/>
		<path class="st1" d="M156.2,75.1v-7.9h1.2l0.1,1.5c0.2-0.5,0.6-0.9,1.1-1.2s1.1-0.5,1.9-0.5v1.4h-0.4c-0.5,0-0.9,0.1-1.3,0.2
			c-0.4,0.2-0.7,0.5-0.9,0.8c-0.2,0.4-0.4,0.9-0.4,1.6v4L156.2,75.1L156.2,75.1L156.2,75.1z"/>
		<path class="st1" d="M165.3,75.3c-0.8,0-1.4-0.2-2-0.5c-0.6-0.4-1.1-0.8-1.4-1.4c-0.3-0.6-0.5-1.4-0.5-2.2s0.2-1.6,0.5-2.2
			s0.8-1.1,1.4-1.5c0.6-0.4,1.3-0.5,2.1-0.5s1.4,0.2,2,0.5c0.6,0.4,1,0.8,1.3,1.4s0.4,1.2,0.4,1.8c0,0.1,0,0.2,0,0.4
			c0,0.1,0,0.2,0,0.4h-6.3c0,0.6,0.2,1.1,0.4,1.5s0.6,0.7,0.9,0.9c0.4,0.2,0.8,0.3,1.2,0.3c0.6,0,1-0.1,1.4-0.4s0.7-0.6,0.8-1h1.3
			c-0.2,0.7-0.6,1.4-1.2,1.8C167,75,166.2,75.3,165.3,75.3z M165.3,68.1c-0.6,0-1.2,0.2-1.7,0.6s-0.8,1-0.9,1.7h5
			c0-0.7-0.3-1.3-0.7-1.7C166.5,68.3,165.9,68.1,165.3,68.1z"/>
		<path class="st1" d="M174.4,75.3c-0.8,0-1.5-0.2-2.1-0.5c-0.6-0.4-1.1-0.9-1.4-1.5c-0.3-0.6-0.5-1.3-0.5-2.1s0.2-1.5,0.5-2.1
			s0.8-1.1,1.4-1.5c0.6-0.4,1.3-0.5,2.1-0.5c0.6,0,1.2,0.1,1.7,0.4s0.9,0.6,1.2,1.1v-4.9h1.3v11.5h-1.2l-0.1-1.3
			c-0.3,0.4-0.6,0.7-1.1,1C175.7,75.1,175.1,75.3,174.4,75.3z M174.5,74.1c0.5,0,1-0.1,1.4-0.4c0.4-0.2,0.7-0.6,1-1
			c0.2-0.5,0.3-1,0.3-1.6s-0.1-1.1-0.3-1.6c-0.2-0.4-0.6-0.8-1-1s-0.9-0.4-1.4-0.4s-1,0.1-1.4,0.4s-0.7,0.6-1,1
			c-0.2,0.5-0.3,1-0.3,1.6s0.1,1.1,0.3,1.6c0.2,0.4,0.6,0.8,1,1S174,74.1,174.5,74.1z"/>
		<path class="st1" d="M183.7,75.3c-0.9,0-1.7-0.3-2.2-0.9s-0.8-1.4-0.8-2.6v-4.6h1.3v4.5c0,1.6,0.7,2.5,2,2.5
			c0.7,0,1.3-0.2,1.7-0.7c0.5-0.5,0.7-1.2,0.7-2.1v-4.1h1.3v7.9h-1.2l-0.1-1.4c-0.2,0.5-0.6,0.9-1.1,1.2
			C184.9,75.1,184.4,75.3,183.7,75.3z"/>
		<path class="st1" d="M193.6,75.3c-0.8,0-1.4-0.2-2-0.5c-0.6-0.4-1.1-0.8-1.4-1.5c-0.3-0.6-0.5-1.4-0.5-2.2s0.2-1.6,0.5-2.2
			c0.4-0.6,0.8-1.1,1.4-1.5c0.6-0.4,1.3-0.5,2-0.5c0.9,0,1.7,0.2,2.4,0.7c0.6,0.5,1.1,1.1,1.2,2h-1.4c-0.1-0.5-0.4-0.9-0.8-1.1
			c-0.4-0.3-0.9-0.4-1.5-0.4c-0.4,0-0.9,0.1-1.3,0.3c-0.4,0.2-0.7,0.6-1,1c-0.2,0.4-0.4,1-0.4,1.7s0.1,1.2,0.4,1.7s0.6,0.8,1,1
			s0.8,0.3,1.3,0.3c0.6,0,1-0.1,1.5-0.4s0.7-0.7,0.8-1.2h1.4c-0.2,0.8-0.6,1.5-1.2,2C195.4,75,194.6,75.3,193.6,75.3z"/>
		<path class="st1" d="M199.9,65.4c-0.3,0-0.5-0.1-0.7-0.3s-0.3-0.4-0.3-0.7s0.1-0.5,0.3-0.6c0.2-0.2,0.4-0.3,0.7-0.3
			s0.5,0.1,0.7,0.3s0.3,0.4,0.3,0.6c0,0.3-0.1,0.5-0.3,0.7S200.2,65.4,199.9,65.4z M199.3,75.1v-7.9h1.3v7.9H199.3z"/>
		<path class="st1" d="M202.9,75.1v-7.9h1.2l0.1,1.4c0.3-0.5,0.6-0.9,1.1-1.2s1-0.4,1.6-0.4c0.9,0,1.7,0.3,2.2,0.9
			c0.6,0.6,0.8,1.4,0.8,2.6v4.6h-1.3v-4.5c0-1.6-0.7-2.5-2.1-2.5c-0.7,0-1.2,0.2-1.7,0.7c-0.4,0.5-0.7,1.2-0.7,2.1V75L202.9,75.1
			L202.9,75.1z"/>
		<path class="st1" d="M215.2,72.6c-0.4,0-0.9-0.1-1.2-0.2l-0.8,0.8c0.1,0.1,0.3,0.2,0.4,0.2c0.2,0.1,0.4,0.1,0.8,0.2
			c0.3,0.1,0.8,0.1,1.4,0.1c1.1,0.1,1.8,0.3,2.3,0.7s0.7,1,0.7,1.6c0,0.5-0.1,0.9-0.4,1.3c-0.2,0.4-0.6,0.8-1.1,1
			c-0.5,0.3-1.2,0.4-2,0.4c-0.7,0-1.4-0.1-1.9-0.3c-0.6-0.2-1-0.5-1.3-0.9s-0.5-0.9-0.5-1.4c0-0.3,0.1-0.6,0.2-1s0.5-0.7,0.9-1
			c-0.2-0.1-0.4-0.2-0.6-0.3c-0.2-0.1-0.3-0.2-0.5-0.4V73l1.4-1.3c-0.6-0.5-0.9-1.2-0.9-2.1c0-0.5,0.1-1,0.4-1.4
			c0.2-0.4,0.6-0.8,1.1-1s1-0.4,1.7-0.4c0.5,0,0.9,0.1,1.2,0.2h2.9v1l-1.5,0.1c0.3,0.4,0.5,1,0.5,1.5s-0.1,1-0.4,1.4
			c-0.2,0.4-0.6,0.8-1.1,1C216.5,72.4,215.9,72.6,215.2,72.6z M212.9,76.1c0,0.5,0.2,0.9,0.7,1.2s1,0.4,1.7,0.4s1.2-0.1,1.6-0.4
			c0.4-0.3,0.6-0.7,0.6-1.1c0-0.3-0.1-0.6-0.4-0.9s-0.8-0.4-1.5-0.4c-0.6,0-1.1-0.1-1.5-0.2c-0.4,0.2-0.7,0.5-0.9,0.8
			C213,75.6,212.9,75.9,212.9,76.1z M215.2,71.4c0.6,0,1-0.1,1.4-0.4c0.3-0.3,0.5-0.7,0.5-1.3c0-0.5-0.2-1-0.5-1.3s-0.8-0.4-1.4-0.4
			c-0.6,0-1,0.2-1.4,0.4c-0.3,0.3-0.5,0.7-0.5,1.3s0.2,1,0.5,1.3C214.2,71.3,214.6,71.4,215.2,71.4z"/>
		<path class="st1" d="M228.3,75.1c-0.7,0-1.3-0.2-1.7-0.5c-0.4-0.4-0.6-1-0.6-1.9v-4.4h-1.4v-1.1h1.4l0.2-1.9h1.2v1.9h2.3v1.1h-2.3
			v4.4c0,0.5,0.1,0.8,0.3,1s0.6,0.3,1.1,0.3h0.8v1.1H228.3z"/>
		<path class="st1" d="M231.4,75.1V63.6h1.3v4.9c0.3-0.5,0.6-0.9,1.1-1.1s1-0.4,1.6-0.4c0.9,0,1.6,0.3,2.2,0.9
			c0.5,0.6,0.8,1.4,0.8,2.6v4.6h-1.3v-4.5c0-1.6-0.7-2.5-2-2.5c-0.7,0-1.3,0.2-1.7,0.7c-0.5,0.5-0.7,1.2-0.7,2.1V75L231.4,75.1
			L231.4,75.1z"/>
		<path class="st1" d="M244.1,75.3c-0.8,0-1.4-0.2-2-0.5c-0.6-0.4-1-0.8-1.4-1.4c-0.3-0.6-0.5-1.4-0.5-2.2s0.2-1.6,0.5-2.2
			s0.8-1.1,1.4-1.5s1.3-0.5,2.1-0.5s1.4,0.2,2,0.5s1,0.8,1.3,1.4s0.4,1.2,0.4,1.8c0,0.1,0,0.2,0,0.4c0,0.1,0,0.2,0,0.4h-6.3
			c0,0.6,0.2,1.1,0.4,1.5s0.6,0.7,0.9,0.9c0.4,0.2,0.8,0.3,1.2,0.3c0.5,0,1-0.1,1.4-0.4s0.6-0.6,0.8-1h1.3c-0.2,0.7-0.6,1.4-1.2,1.8
			C245.8,75,245,75.3,244.1,75.3z M244.1,68.1c-0.6,0-1.2,0.2-1.7,0.6s-0.8,1-0.9,1.7h5c0-0.7-0.3-1.3-0.7-1.7
			C245.3,68.3,244.7,68.1,244.1,68.1z"/>
		<path class="st1" d="M253.9,75.1v-7.9h1.2l0.1,1.5c0.2-0.5,0.6-0.9,1.1-1.2c0.5-0.3,1.1-0.5,1.9-0.5v1.4h-0.4
			c-0.5,0-0.9,0.1-1.3,0.2c-0.4,0.2-0.7,0.5-0.9,0.8c-0.2,0.4-0.3,0.9-0.3,1.6v4L253.9,75.1L253.9,75.1L253.9,75.1z"/>
		<path class="st1" d="M260.5,65.4c-0.3,0-0.5-0.1-0.7-0.3s-0.3-0.4-0.3-0.7s0.1-0.5,0.3-0.6c0.2-0.2,0.4-0.3,0.7-0.3
			s0.5,0.1,0.7,0.3s0.3,0.4,0.3,0.6c0,0.3-0.1,0.5-0.3,0.7C261,65.3,260.7,65.4,260.5,65.4z M259.8,75.1v-7.9h1.3v7.9H259.8z"/>
		<path class="st1" d="M266.5,75.3c-0.9,0-1.7-0.2-2.4-0.7c-0.6-0.5-1-1.1-1.1-2h1.4c0.1,0.4,0.3,0.8,0.7,1.1
			c0.4,0.3,0.8,0.5,1.5,0.5c0.6,0,1-0.1,1.2-0.4c0.3-0.2,0.4-0.5,0.4-0.9c0-0.5-0.2-0.8-0.5-1c-0.4-0.2-0.8-0.3-1.5-0.4
			c-0.4-0.1-0.9-0.2-1.3-0.4s-0.8-0.4-1.1-0.7c-0.3-0.3-0.4-0.7-0.4-1.2c0-0.7,0.3-1.3,0.8-1.7s1.2-0.7,2.1-0.7
			c0.8,0,1.5,0.2,2.1,0.6c0.5,0.4,0.9,1,0.9,1.8H268c0-0.4-0.2-0.7-0.5-1c-0.3-0.2-0.7-0.3-1.2-0.3s-0.9,0.1-1.1,0.3
			c-0.3,0.2-0.4,0.5-0.4,0.8s0.2,0.6,0.5,0.8s0.8,0.3,1.4,0.5c0.5,0.1,1,0.2,1.4,0.4c0.4,0.1,0.8,0.4,1.1,0.7
			c0.3,0.3,0.4,0.7,0.4,1.3c0,0.7-0.3,1.3-0.8,1.8C268.2,75,267.5,75.3,266.5,75.3z"/>
		<path class="st1" d="M271.5,75.1V63.6h1.3v6.9l3.2-3.3h1.6l-3.5,3.6l4,4.4h-1.7l-3.6-4.1v4.1L271.5,75.1L271.5,75.1z"/>
		<path class="st1" d="M287.4,75.3c-0.8,0-1.4-0.2-2-0.5s-1.1-0.8-1.4-1.5c-0.4-0.6-0.5-1.4-0.5-2.2s0.2-1.6,0.5-2.2
			s0.8-1.1,1.4-1.4s1.3-0.5,2-0.5s1.4,0.2,2,0.5s1.1,0.8,1.4,1.4c0.4,0.6,0.5,1.4,0.5,2.2s-0.2,1.6-0.5,2.2s-0.8,1.1-1.4,1.5
			C288.8,75.1,288.1,75.3,287.4,75.3z M287.4,74.1c0.5,0,0.9-0.1,1.3-0.3s0.7-0.6,1-1s0.4-1,0.4-1.7s-0.1-1.2-0.4-1.7
			c-0.2-0.4-0.6-0.8-0.9-1c-0.4-0.2-0.8-0.3-1.3-0.3s-0.9,0.1-1.3,0.3s-0.7,0.6-1,1c-0.2,0.5-0.4,1-0.4,1.7s0.1,1.2,0.4,1.7
			s0.6,0.8,0.9,1C286.5,74,287,74.1,287.4,74.1z"/>
		<path class="st1" d="M293.7,75.1v-6.8h-1.2v-1.1h1.2v-1.4c0-0.8,0.2-1.3,0.6-1.7c0.4-0.4,0.9-0.5,1.7-0.5h0.8v1.1h-0.6
			c-0.4,0-0.7,0.1-0.9,0.2c-0.2,0.2-0.3,0.5-0.3,0.8V67h1.9v1.1H295v6.8L293.7,75.1L293.7,75.1z"/>
		<path class="st2" d="M167.2,105.5c0.1,0,0.3-0.1,0.6-0.1c1.1,0,1.7,0.1,1.7,0.2s0.1,0.3,0.3,0.6c0.2,0.5,0.3,1,0.3,1.4
			c0,1.3,0.3,3.4,0.9,6.4c0.2,1.2,0.4,2.4,0.7,3.5s0.5,1.7,0.6,1.7s0.1-0.1,0.1-0.4c0-0.9,0.7-1.6,2-2c0.6-0.2,1-0.2,1.3-0.2
			c0.5,0,0.9,0.2,1.2,0.6s0.6,1.1,0.8,2c0.2,0.7,0.4,1,0.4,1c0.1-0.1,0.2-0.8,0.5-2.2c0.3-1.4,0.4-2.5,0.5-3.3
			c0.1-0.5,0.2-1.1,0.3-1.9s0.2-1.7,0.4-2.6c0.2-1.7,0.4-2.8,0.5-3.1c0.2-0.4,0.6-0.7,1.1-1c0.6-0.3,1.2-0.4,1.7-0.4
			s0.9,0.2,1.2,0.6s0.5,0.8,0.5,1.3v0.1c0,0.1,0,0.1,0,0.2c-0.9,4.4-1.5,8.8-2,12.9c-0.3,2.9-0.6,5-0.8,6.3s-0.4,2.4-0.6,3.3
			c-0.2,0.9-0.5,1.5-0.7,1.7s-0.5,0.3-1,0.4c-0.2,0-0.4,0.1-0.8,0.1c-1.1,0-1.8-0.2-2-0.6c-0.1-0.2-0.4-0.7-0.7-1.6
			s-0.6-1.6-0.7-2.2c-0.1-0.4-0.2-0.6-0.5-0.6c-0.1,0-0.2,0.1-0.2,0.4c0,0.6-0.2,1.3-0.5,2.1c-0.3,0.9-0.7,1.4-1.1,1.8
			c-0.4,0.4-0.8,0.6-1.1,0.6c-0.2,0-0.4,0-0.6-0.1c-1.1-0.2-1.8-0.6-2.1-1c-0.3-0.5-0.6-1.5-0.8-3.1c-1.2-8.6-2-14.5-2.6-17.9
			c-0.3-1.3-0.4-2.3-0.4-3c0-0.5,0.1-0.9,0.4-1.2C166.5,105.7,166.8,105.5,167.2,105.5z"/>
		<path class="st2" d="M193.1,107.6c0.4-0.1,0.9-0.2,1.6-0.2c1.8,0,3,0.2,3.4,0.6c0.3,0.3,0.5,0.7,0.5,1.1s-0.2,0.8-0.5,1.1
			c-0.3,0.3-0.8,0.4-1.3,0.4s-0.8,0.1-1,0.4c-0.2,0.2-0.2,0.8-0.2,1.7c0,0.3,0,1.1,0.1,2.5c0.1,1.6,0.1,2.7,0.2,3.2
			c0.1,0.5,0.2,0.7,0.4,0.8c0,0,0.2,0,0.7,0c0.4,0,0.7,0,1,0c0.8,0,1.4,0.2,1.7,0.6c0.2,0.2,0.4,0.5,0.4,0.7c0,0.5-0.7,1-2.1,1.5
			c-0.8,0.3-1.3,0.5-1.5,0.7c-0.2,0.1-0.3,0.5-0.3,1.1c-0.1,0.5-0.1,1-0.1,1.4c0,1.7,0.2,2.9,0.4,3.7c0.1,0.3,0.3,0.5,0.5,0.6
			s0.5,0.1,1,0.1c0.7,0,1.3,0.2,1.8,0.5s0.8,0.7,0.8,1.1c0,0.3-0.2,0.7-0.8,1.2c-0.8,0.8-2.1,1.1-4,1.1s-3.2-0.4-3.8-1.2
			c-0.3-0.4-0.5-3.3-0.6-8.5c-0.1-6.5-0.1-10.4-0.2-11.5l-0.1-3.7l0.7-0.4C192.2,107.9,192.7,107.7,193.1,107.6z"/>
		<path class="st2" d="M207.1,104.6c0.4-0.4,0.9-0.6,1.5-0.6s1.1,0.2,1.5,0.6l0.6,0.6l0.3,11.2c0.2,6.2,0.2,9.8,0.2,10.7
			c0,0.5,0,0.9,0,1.2c0,0.3,0,0.6-0.1,0.8c0,0.2-0.1,0.4-0.1,0.5c-0.1,0.1-0.1,0.2-0.1,0.2s-0.1,0.1-0.2,0.1
			c-0.2,0.1-0.2,0.1-0.3,0.2c-0.4,0.2-0.7,0.3-0.9,0.3c-0.1,0-0.4-0.1-1-0.2c-0.8-0.3-1.2-0.6-1.3-0.8c-0.1-0.2-0.2-4.2-0.3-12
			s-0.2-11.8-0.2-11.9C206.6,105.3,206.7,105,207.1,104.6z"/>
		<path class="st2" d="M219.6,108.7c0-0.2,0.2-0.5,0.5-0.7s0.8-0.4,1.2-0.6s0.7-0.4,0.9-0.5c0.1-0.2,0.3-0.3,0.6-0.3
			s0.8,0.2,1.5,0.7c0.8,0.5,1.2,0.9,1.3,1.4c0,0.1,0,0.2,0,0.3c0,0.3-0.5,0.7-1.4,1c-1,0.4-1.6,0.9-1.9,1.4c-0.5,1-0.8,3.4-0.8,7.2
			c0,1.3,0,2.3,0.1,2.9c0.4,4.4,0.7,6.8,1,7.3h0.1c0.3,0,0.4-1.2,0.4-3.7c0.1-1.4,0.2-2.3,0.3-2.7c0.2-0.6,0.1-1.1-0.2-1.4
			c-0.4-0.5-0.6-0.9-0.6-1.3c0-0.3,0.1-0.6,0.4-1c0.4-0.4,1.1-0.6,2.3-0.6c0.8,0,1.3,0,1.5,0.1c0.3,0.1,0.5,0.3,0.8,0.5
			c0.3,0.4,0.5,0.9,0.5,1.4s-0.1,1.2-0.2,1.9c-0.2,1.2-0.4,2.8-0.5,4.9c-0.2,2.4-0.4,3.9-0.8,4.6c-0.4,0.8-0.8,1.4-1.1,1.7
			c-0.3,0.3-0.8,0.5-1.6,0.8c-0.5,0.2-1,0.2-1.4,0.2c-0.6,0-1.2-0.3-1.9-0.8c-0.8-0.6-1.5-2.2-2-4.7c-0.1-0.5-0.2-0.9-0.4-1.1
			c-0.1-0.1-0.1-0.6-0.2-1.4c0-0.4-0.1-2.6-0.2-6.6l-0.2-5.4l0.7-2.2c0.5-1.5,0.8-2.4,1.1-2.7C219.5,109.1,219.6,108.9,219.6,108.7z
			"/>
		<path class="st2" d="M234.3,107c0.1-0.3,0.4-0.4,0.9-0.4c0.6,0,1.2,0.2,1.8,0.5c0.4,0.3,0.6,0.5,0.7,0.7s0.1,0.6,0.2,1.3
			c0,4.7,0.1,7.5,0.1,8.3c0.1,0.8,0.2,1.2,0.4,1.2h0.1c0.3,0,0.6-0.1,1-0.3c0.2-0.2,0.4-0.5,0.4-1s0.1-1.7,0.1-3.7
			c0-2.9,0.1-4.5,0.3-4.9c0.3-0.6,0.9-0.9,1.8-0.9c0.3,0,0.7,0.1,1,0.2l0.7,0.4l-0.1,5.2c-0.1,2.1-0.1,5.2-0.1,9.1
			c0,4.4,0.1,7.2,0.2,8.6l0.2,2.2l-0.8,0.4c-0.3,0.1-0.5,0.2-0.8,0.2c-0.2,0-0.6-0.1-1-0.3c-0.7-0.3-1.1-0.6-1.2-0.9
			s-0.2-2.1-0.2-5.5c-0.1-3.4-0.2-5.2-0.4-5.3c-0.1-0.1-0.5-0.1-1-0.1l-0.9,0.2l0.1,4.1c0.1,2.8,0.3,4.5,0.5,5
			c0.1,0.4,0.2,0.8,0.2,1.1c0,0.8-0.4,1.2-1,1.3c-0.3,0.1-0.6,0.1-0.8,0.1c-0.9,0-1.7-0.3-2.2-0.8c-0.2-0.2-0.4-0.9-0.4-2.2
			c0-1.2-0.1-4.9-0.1-11C234.1,111.7,234.2,107.3,234.3,107z"/>
		<path class="st2" d="M251.1,104.7c0.5-0.4,1.2-0.6,2.3-0.6h1.1c1.8,0.1,2.9,0.1,3.2,0.2c0.2,0.1,0.7,0.1,1.4,0.2
			c0.7,0.1,1.3,0.2,1.6,0.5c0.4,0.2,0.5,0.7,0.5,1.3c0,0.6-0.2,1.1-0.4,1.3c-0.2,0.3-0.7,0.5-1.2,0.6c-0.7,0.1-1.1,0.2-1.2,0.4
			c-0.2,0.2-0.2,3.3-0.2,9.5c0,4.2,0.1,7.3,0.2,9.1c0.1,1.4,0.1,2.1,0.1,2.2c0,0.7-0.1,1.3-0.4,1.8c-0.4,0.7-0.9,1-1.7,1
			c-0.5,0-1-0.1-1.5-0.5l-1-0.5l0.2-11.3c0.1-2.9,0.1-5.8,0.1-8.8c0-1.8-0.1-2.7-0.4-2.9c-0.4-0.2-0.6-0.3-0.8-0.2
			c-0.1,0-0.3,0.1-0.5,0.1c-0.6,0-1.1-0.2-1.5-0.5s-0.6-0.8-0.6-1.2C250.3,105.6,250.6,105.2,251.1,104.7z"/>
		<path class="st2" d="M168,148.4c0-0.2,0.2-0.5,0.5-0.7c0.4-0.2,0.8-0.4,1.2-0.6s0.7-0.4,0.9-0.5c0.1-0.2,0.3-0.3,0.5-0.3
			c0.3,0,0.8,0.2,1.5,0.7c0.8,0.5,1.2,0.9,1.3,1.4c0,0.1,0.1,0.2,0.1,0.3c0,0.3-0.5,0.7-1.4,1c-1,0.4-1.6,0.9-1.9,1.4
			c-0.5,1-0.8,3.4-0.8,7.2c0,1.3,0,2.3,0.1,2.9c0.4,4.4,0.7,6.8,1,7.3l0.1,0.1c0.3,0,0.4-1.2,0.4-3.7c0.1-1.4,0.2-2.3,0.3-2.7
			c0.2-0.6,0.1-1.1-0.2-1.4c-0.4-0.5-0.6-0.9-0.6-1.3c0-0.3,0.1-0.6,0.4-0.9c0.4-0.4,1.1-0.6,2.3-0.6c0.8,0,1.3,0,1.5,0.1
			c0.3,0.1,0.5,0.3,0.8,0.5c0.3,0.4,0.4,0.9,0.4,1.4s-0.1,1.2-0.2,1.9c-0.2,1.2-0.4,2.8-0.5,4.9c-0.2,2.4-0.4,3.9-0.8,4.6
			c-0.4,0.8-0.8,1.4-1.1,1.7c-0.3,0.3-0.9,0.5-1.6,0.8c-0.5,0.2-1,0.2-1.4,0.2c-0.6,0-1.2-0.3-1.9-0.8c-0.8-0.6-1.5-2.2-2-4.7
			c-0.1-0.5-0.2-0.9-0.4-1.1c-0.1-0.1-0.1-0.6-0.2-1.4c0-0.4-0.1-2.6-0.2-6.6l-0.2-5.4l0.7-2.2c0.5-1.5,0.8-2.4,1.1-2.7
			C167.9,148.8,168,148.6,168,148.4z"/>
		<path class="st2" d="M186.5,149c0.9-0.9,2.2-1.3,3.9-1.3c0.8,0,1.4,0.1,1.9,0.4c0.7,0.3,1.2,1.3,1.5,2.8c0.2,1.3,0.5,3.4,0.9,6.4
			c0.3,3,0.5,5.4,0.6,7c0,1.5,0.1,3.3,0.3,5.2c0.2,1.9,0.3,3,0.4,3.2c0,0,0.1,0.1,0.1,0.2c0,0.3-0.1,0.7-0.4,1.1
			c-0.3,0.4-0.5,0.7-0.8,0.8c-0.1,0-0.2,0.1-0.5,0.1c-0.5,0-1-0.1-1.6-0.4c-0.6-0.2-1-0.5-1.1-0.8s-0.3-1.2-0.5-2.7
			c-0.2-1.6-0.3-2.8-0.3-3.8c0-0.9-0.1-1.4-0.3-1.5s-0.9-0.1-2.2-0.1c-1.1,0-1.7,0.1-1.7,0.1c0,0.2,0,0.4,0,0.6c0,0.7,0,1.6,0.1,2.7
			c0.1,1.3,0.1,2.4,0.1,3.2v0.5c0,0.2-0.3,0.4-0.7,0.6s-0.9,0.3-1.3,0.3c-0.2,0-0.4,0-0.4,0c-1.1-0.3-1.8-0.8-1.9-1.4
			c0,0,0-0.1,0-0.2s0-0.2,0-0.3c0-1.4,0.2-4.4,0.5-9s0.6-7.2,0.8-7.9c0.2-0.9,0.6-1.9,1.2-3.1C185.5,150.2,186,149.4,186.5,149z
			 M189.9,154.1c-0.2-1-0.4-1.4-0.7-1.4c-0.2,0-0.5,0.3-0.8,1c-0.6,1.3-1,3.1-1.2,5.5c-0.1,1-0.1,1.5-0.1,1.6c0,0.5,0.1,0.8,0.2,0.9
			c0.2,0.1,0.6,0.2,1.3,0.2c1,0,1.5-0.1,1.6-0.3c0.1-0.1,0.1-0.5,0.1-1.3C190.4,158,190.2,155.9,189.9,154.1z"/>
		<path class="st2" d="M202.5,144.3c0.4-0.4,0.9-0.6,1.5-0.6s1.1,0.2,1.5,0.6l0.6,0.6l0.3,11.2c0.2,6.2,0.2,9.8,0.2,10.7
			c0,0.5,0,0.9,0,1.2c0,0.3,0,0.6-0.1,0.8c0,0.2-0.1,0.4-0.1,0.5c-0.1,0.1-0.1,0.2-0.1,0.2s-0.1,0.1-0.2,0.2
			c-0.2,0.1-0.2,0.1-0.3,0.1c-0.4,0.2-0.7,0.4-0.9,0.4c-0.1,0-0.4-0.1-1-0.2c-0.8-0.3-1.2-0.6-1.3-0.9c-0.1-0.2-0.2-4.2-0.3-12
			s-0.2-11.8-0.2-11.9C202,145,202.1,144.7,202.5,144.3z"/>
		<path class="st2" d="M214,146.1c0.5-0.2,1-0.4,1.5-0.4c1,0,1.7,0.6,2,1.9c0.3,1,0.6,2,1.2,3.1c0.5,1.1,0.9,1.9,1.1,2.6
			c0.3,1.1,0.6,1.8,0.9,2c0.1,0.1,0.2,0.2,0.2,0.2c0.1,0,0.3-0.7,0.4-2.1c0.1-1.3,0.1-2.2,0.1-2.7v-0.6c0-0.3-0.1-0.6-0.1-1
			c0-0.8,0.2-1.5,0.6-1.9c0.4-0.5,1-0.8,1.8-0.8c0.6,0,1.1,0.2,1.4,0.5c0.3,0.3,0.5,0.6,0.5,1.1c0,0.6,0,1.2-0.1,1.8
			c-0.1,0.6-0.1,4.6-0.2,12.1c0,4.7-0.1,7.5-0.1,8.4c0,1-0.2,1.5-0.4,1.8c-0.3,0.4-0.9,0.5-1.6,0.5c-1.4,0-2.3-0.7-2.5-2.1
			c-0.1-0.5-0.4-1.5-0.9-3c-0.5-1.3-0.8-2.5-1-3.5c-0.3-1.4-0.8-3.2-1.4-5.5c-0.1-0.2-0.1-0.3-0.1-0.3c-0.2,0-0.2,1.4-0.2,4.1v2.4
			v2.6c0,2.7-0.1,4.2-0.2,4.6c-0.3,1-1,1.4-2.1,1.4c-0.6,0-1.1-0.2-1.5-0.6c-0.3-0.3-0.4-0.6-0.4-1c0-0.1,0-0.4,0.1-0.9
			c0.2-1.1,0.2-5.1,0.2-12c0-7.7,0.1-11.7,0.2-12.2C213.5,146.3,213.6,146.1,214,146.1C213.9,146.2,213.9,146.2,214,146.1z"/>
		<path class="st1" d="M156.6,283.5c-0.7,0-1.2-0.1-1.7-0.3c-0.4-0.2-0.8-0.5-1-0.9s-0.3-0.8-0.3-1.2c0-0.8,0.3-1.4,0.9-1.9
			s1.5-0.7,2.5-0.7h2.1v-0.1c0-0.7-0.2-1.2-0.5-1.6s-0.9-0.5-1.5-0.5c-0.5,0-1,0.1-1.3,0.4c-0.4,0.3-0.6,0.6-0.7,1.1h-1.4
			c0.1-0.6,0.2-1.1,0.6-1.5c0.3-0.4,0.8-0.7,1.3-0.9s1-0.3,1.6-0.3c1.1,0,1.9,0.3,2.5,0.9s0.8,1.4,0.8,2.4v4.9h-1.2l-0.1-1.4
			c-0.2,0.5-0.5,0.8-1,1.1C157.9,283.3,157.3,283.5,156.6,283.5z M156.8,282.3c0.5,0,1-0.1,1.3-0.4c0.4-0.3,0.6-0.6,0.8-1
			s0.3-0.9,0.3-1.3l0,0h-2c-0.8,0-1.3,0.1-1.7,0.4c-0.3,0.3-0.5,0.6-0.5,1s0.1,0.8,0.5,1C155.8,282.2,156.2,282.3,156.8,282.3z"/>
		<path class="st1" d="M162.6,283.3v-8h1.2l0.1,1.4c0.3-0.5,0.6-0.9,1.1-1.2s1-0.4,1.6-0.4c0.9,0,1.7,0.3,2.2,0.9
			c0.6,0.6,0.8,1.5,0.8,2.6v4.6h-1.3v-4.5c0-1.6-0.7-2.5-2.1-2.5c-0.7,0-1.2,0.2-1.7,0.7s-0.7,1.2-0.7,2.1v4.1L162.6,283.3
			L162.6,283.3z"/>
		<path class="st1" d="M175.3,283.5c-0.8,0-1.5-0.2-2.1-0.5s-1.1-0.9-1.4-1.5s-0.5-1.3-0.5-2.1s0.2-1.5,0.5-2.1s0.8-1.1,1.4-1.5
			c0.6-0.4,1.3-0.5,2.1-0.5c0.7,0,1.2,0.1,1.7,0.4s0.9,0.6,1.2,1.1v-4.9h1.3v11.4h-1.2l-0.1-1.3c-0.3,0.4-0.6,0.7-1.1,1
			C176.6,283.3,176.1,283.5,175.3,283.5z M175.5,282.3c0.5,0,1-0.1,1.4-0.4s0.7-0.6,1-1c0.2-0.5,0.3-1,0.3-1.6s-0.1-1.1-0.3-1.6
			s-0.6-0.8-1-1s-0.9-0.4-1.4-0.4s-1,0.1-1.4,0.4c-0.4,0.2-0.7,0.6-1,1s-0.3,1-0.3,1.6s0.1,1.1,0.3,1.6s0.6,0.8,1,1
			C174.5,282.2,174.9,282.3,175.5,282.3z"/>
		<path class="st3" d="M154.5,291.5c0.1-0.3,0.4-0.4,0.9-0.4c0.6,0,1.2,0.2,1.8,0.5c0.4,0.3,0.6,0.5,0.7,0.7
			c0.1,0.2,0.1,0.6,0.2,1.3c0,4.7,0.1,7.5,0.1,8.3c0.1,0.8,0.2,1.2,0.4,1.2h0.1c0.3,0,0.6-0.1,1-0.3c0.2-0.2,0.4-0.5,0.4-1
			c0.1-0.5,0.1-1.7,0.1-3.7c0-2.9,0.1-4.5,0.3-4.9c0.3-0.6,0.9-0.8,1.8-0.8c0.3,0,0.7,0.1,1,0.2l0.7,0.4l-0.1,5.2
			c-0.1,2.1-0.1,5.2-0.1,9.1c0,4.4,0.1,7.2,0.2,8.6l0.2,2.2l-0.8,0.4c-0.3,0.1-0.5,0.2-0.8,0.2c-0.2,0-0.6-0.1-1-0.3
			c-0.7-0.3-1.1-0.6-1.2-0.9c-0.1-0.3-0.2-2.1-0.2-5.5c-0.1-3.4-0.2-5.2-0.4-5.3c-0.1-0.1-0.5-0.2-1,0l-0.9,0.2l0.1,4.1
			c0.1,2.8,0.3,4.5,0.5,5c0.1,0.4,0.2,0.8,0.2,1.1c0,0.8-0.3,1.2-1,1.3c-0.3,0.1-0.6,0.1-0.8,0.1c-0.9,0-1.7-0.3-2.2-0.8
			c-0.2-0.2-0.4-0.9-0.4-2.2s-0.1-4.9-0.1-11C154.3,296.2,154.4,291.8,154.5,291.5z"/>
		<path class="st3" d="M172.4,292.1c0.4-0.1,0.9-0.2,1.6-0.2c1.8,0,3,0.2,3.4,0.6c0.3,0.3,0.5,0.7,0.5,1.1s-0.2,0.8-0.5,1.1
			s-0.8,0.5-1.3,0.5s-0.8,0.1-1,0.4s-0.2,0.8-0.2,1.7c0,0.3,0,1.1,0.1,2.5c0.1,1.6,0.1,2.7,0.2,3.2s0.2,0.7,0.4,0.8c0,0,0.2,0,0.6,0
			c0.4,0,0.7,0,1,0c0.8,0,1.4,0.2,1.7,0.6c0.2,0.2,0.4,0.5,0.4,0.7c0,0.5-0.7,1-2.1,1.5c-0.8,0.3-1.3,0.5-1.5,0.7
			c-0.2,0.1-0.3,0.5-0.4,1.1c-0.1,0.5-0.1,1-0.1,1.4c0,1.7,0.1,2.9,0.4,3.7c0.1,0.3,0.3,0.5,0.4,0.6s0.5,0.1,1,0.1
			c0.7,0,1.3,0.2,1.8,0.5s0.8,0.7,0.8,1.1c0,0.3-0.2,0.7-0.8,1.2c-0.8,0.8-2.1,1.1-4,1.1s-3.2-0.4-3.8-1.2c-0.3-0.4-0.5-3.3-0.6-8.5
			c-0.1-6.5-0.1-10.4-0.2-11.5l-0.1-3.7l0.7-0.4C171.4,292.4,171.9,292.2,172.4,292.1z"/>
		<path class="st3" d="M189.8,293.8c0.9-0.9,2.2-1.3,3.9-1.3c0.8,0,1.4,0.1,1.9,0.4c0.7,0.3,1.2,1.3,1.5,2.8
			c0.2,1.3,0.5,3.4,0.8,6.4s0.5,5.4,0.6,7c0,1.5,0.1,3.3,0.3,5.2s0.3,3,0.4,3.2c0,0,0.1,0.1,0.1,0.2c0,0.3-0.1,0.7-0.4,1.1
			c-0.3,0.4-0.5,0.7-0.8,0.8c-0.1,0-0.2,0-0.4,0c-0.5,0-1-0.1-1.6-0.4c-0.6-0.2-1-0.5-1.1-0.8s-0.3-1.2-0.5-2.7
			c-0.2-1.6-0.3-2.8-0.3-3.8c0-0.9-0.1-1.4-0.3-1.5s-0.9-0.2-2.2-0.2c-1.1,0-1.7,0.1-1.7,0.2c0,0.2-0.1,0.4-0.1,0.6
			c0,0.7,0.1,1.6,0.2,2.7c0.1,1.3,0.1,2.4,0.1,3.2v0.4c0,0.2-0.3,0.4-0.7,0.6s-0.9,0.3-1.3,0.3c-0.2,0-0.3,0-0.4,0
			c-1.1-0.3-1.8-0.8-1.9-1.4c0,0,0-0.1,0-0.2s0-0.2,0-0.3c0-1.4,0.2-4.4,0.5-9s0.6-7.2,0.8-7.9c0.2-0.9,0.6-1.9,1.2-3.1
			C188.8,295.1,189.4,294.3,189.8,293.8z M193.2,299c-0.2-1-0.4-1.4-0.7-1.4c-0.2,0-0.5,0.4-0.8,1c-0.6,1.3-1,3.1-1.2,5.5
			c-0.1,1-0.1,1.5-0.1,1.6c0,0.5,0.1,0.8,0.2,0.8c0.2,0.1,0.6,0.2,1.3,0.2c1,0,1.5-0.1,1.6-0.3c0.1-0.1,0.1-0.5,0.1-1.3
			C193.8,302.9,193.6,300.8,193.2,299z"/>
		<path class="st3" d="M206.9,289.4c0.6-0.2,1.4-0.3,2.3-0.3c1,0,1.7,0.1,2.2,0.3c0.9,0.4,1.5,1,2,2c0.2,0.4,0.4,1.3,0.6,2.6
			c0.2,1.3,0.3,2.4,0.3,3.4c0,0.5,0,0.8-0.1,1c-0.1,0.8-0.3,1.8-0.7,2.8s-0.6,1.5-0.8,1.5c-0.3,0-0.4,0.2-0.4,0.7
			c0,0.3,0.1,0.7,0.4,1.1c0.5,0.8,1.3,2.2,2.2,4.2c1,2.1,1.5,3.3,1.6,3.9c0,0.2,0.1,0.4,0.1,0.7c0,0.4-0.1,0.8-0.3,1.1
			c-0.3,0.4-0.6,0.6-1,0.6c-0.3,0-0.6,0-0.9-0.1c-0.8-0.1-1.4-0.2-1.6-0.3c-0.2-0.1-0.3-0.4-0.3-0.8c0-0.7-0.3-1.7-1-3
			c-0.7-1.4-1.2-2-1.5-2h-0.1c-0.1,0.1-0.2,0.4-0.2,1.1c0,1,0.1,2.1,0.3,3.3c0.1,0.5,0.1,0.9,0.1,1.1c0,1.1-0.2,1.8-0.8,2.1
			c-0.2,0.1-0.5,0.2-0.9,0.2c-1.1,0-1.7-0.2-2-0.8c-0.2-0.3-0.3-2.5-0.4-6.7c0-1.4-0.1-2.8-0.1-4.4s-0.1-2.7-0.1-3.4s0-1.6-0.1-2.8
			c-0.1-1.1-0.2-2.4-0.3-3.8c-0.1-1.6-0.2-2.5-0.2-2.8c0-0.8,0.1-1.3,0.3-1.7C205.9,289.8,206.3,289.5,206.9,289.4z M210.1,293.1
			c-0.1-0.3-0.3-0.4-0.6-0.4c-0.2,0-0.4,0.1-0.5,0.4c-0.1,0.2-0.1,0.4,0,0.6c0,0,0.1,1.1,0.3,3.2s0.3,3.2,0.3,3.3
			c0.1,0.1,0.2-0.1,0.5-0.4c0.2-0.3,0.3-0.9,0.3-1.7c0-0.6,0-1.2-0.1-1.6C210.3,294.5,210.2,293.4,210.1,293.1z"/>
		<path class="st3" d="M223.8,289.3c0.5-0.4,1.2-0.6,2.3-0.6h1.1c1.8,0.1,2.9,0.2,3.2,0.2c0.2,0.1,0.7,0.1,1.4,0.2
			c0.7,0,1.3,0.2,1.6,0.5s0.5,0.7,0.5,1.3s-0.2,1.1-0.4,1.3c-0.2,0.3-0.6,0.5-1.2,0.5c-0.7,0.1-1.1,0.2-1.2,0.4
			c-0.2,0.2-0.2,3.3-0.2,9.5c0,4.2,0.1,7.3,0.1,9.1c0.1,1.4,0.1,2.1,0.1,2.2c0,0.7-0.2,1.3-0.4,1.8c-0.4,0.7-0.9,1-1.7,1
			c-0.5,0-1-0.2-1.5-0.5l-0.9-0.5l0.1-11.3c0.1-2.9,0.1-5.8,0.1-8.8c0-1.8-0.1-2.7-0.4-2.9c-0.4-0.2-0.7-0.3-0.8-0.2
			c-0.1,0-0.3,0.1-0.6,0.1c-0.6,0-1.1-0.2-1.5-0.5s-0.6-0.8-0.6-1.2C223,290.2,223.3,289.7,223.8,289.3z"/>
		<path class="st3" d="M155.4,329.6c0.3-0.2,1.1-0.2,2.4-0.2c1.6,0,2.6,0.1,2.9,0.3c0.5,0.3,1.1,0.8,1.7,1.4
			c0.6,0.7,1.1,1.2,1.3,1.7c0.4,0.8,0.6,2.5,0.8,5.4c0.1,1.7,0.1,2.6,0.1,2.8c0,1-0.1,2-0.4,3c-0.3,1.1-0.7,1.9-1.2,2.4
			s-1.1,1-2,1.2l-1.4,0.5l-0.1,4.1c0,2.4-0.1,3.9-0.3,4.4s-0.7,0.8-1.5,0.8c-0.7,0-1.3-0.2-1.8-0.6l-0.8-0.6v-3.6v-0.8
			c0-2.9-0.1-6.4-0.2-10.7s-0.3-6.9-0.5-7.9c-0.1-0.8-0.2-1.4-0.2-1.8C154.4,330.6,154.7,330,155.4,329.6z M159.8,334.3
			c-0.4-0.8-0.6-1.1-0.8-1.1c-0.1,0-0.2,0-0.2,0.1c0,1.1-0.1,2.4-0.1,3.8c0,4.7,0.2,7.1,0.6,7.1c0.1,0,0.4-0.3,0.7-1
			c0.3-0.6,0.4-1.3,0.4-2.1c0-0.2,0-1-0.1-2.3C160.3,336.4,160.1,334.9,159.8,334.3z"/>
		<path class="st3" d="M172.3,329.1c0.6-0.2,1.4-0.3,2.3-0.3c1,0,1.7,0.1,2.2,0.3c0.9,0.4,1.5,1,2,2c0.2,0.4,0.4,1.3,0.6,2.6
			c0.2,1.3,0.3,2.4,0.3,3.4c0,0.5,0,0.8-0.1,1c-0.1,0.8-0.3,1.8-0.7,2.8s-0.6,1.5-0.8,1.5c-0.3,0-0.4,0.2-0.4,0.6
			c0,0.3,0.1,0.7,0.4,1.1c0.5,0.8,1.3,2.2,2.2,4.2c1,2.1,1.5,3.4,1.6,3.9c0,0.2,0.1,0.4,0.1,0.7c0,0.4-0.1,0.8-0.4,1.1
			c-0.3,0.4-0.6,0.6-0.9,0.6c-0.3,0-0.6,0-0.9,0c-0.8-0.1-1.4-0.2-1.6-0.3s-0.3-0.4-0.3-0.8c0-0.7-0.3-1.7-1-3c-0.7-1.4-1.2-2-1.5-2
			h-0.1c-0.1,0.1-0.1,0.4-0.1,1.1c0,1,0.1,2.1,0.3,3.3c0.1,0.5,0.1,0.9,0.1,1.1c0,1.1-0.2,1.8-0.8,2.1c-0.2,0.1-0.5,0.2-0.8,0.2
			c-1.1,0-1.7-0.2-2-0.8c-0.2-0.3-0.3-2.5-0.4-6.7c0-1.4-0.1-2.8-0.1-4.4s-0.1-2.7-0.1-3.4s0-1.6-0.1-2.8c-0.1-1.1-0.2-2.4-0.3-3.8
			c-0.1-1.6-0.2-2.5-0.2-2.8c0-0.8,0.1-1.3,0.3-1.7C171.3,329.5,171.7,329.3,172.3,329.1z M175.4,332.8c-0.1-0.3-0.3-0.4-0.6-0.4
			c-0.2,0-0.4,0.1-0.5,0.3s-0.1,0.4,0,0.6c0,0,0.1,1.1,0.3,3.2c0.1,2.1,0.3,3.2,0.3,3.3c0.1,0.1,0.2-0.1,0.5-0.4
			c0.2-0.3,0.3-0.9,0.3-1.7c0-0.6,0-1.2-0.1-1.6C175.6,334.2,175.5,333.1,175.4,332.8z"/>
		<path class="st3" d="M189.4,331.2l0.9-1.1h6.2l1,1c0.6,0.6,1.1,1.4,1.3,2.4c0.3,1,0.5,2.5,0.6,4.5c0.1,0.8,0.1,1.9,0.1,3.3
			c0,3.4-0.3,6.5-0.9,9.2c-0.6,2.8-1.5,4.7-2.5,5.7c-0.3,0.3-0.8,0.6-1.4,0.8c-0.6,0.2-1.2,0.4-1.6,0.4c-0.2,0-0.4,0-0.5-0.1
			c-0.3-0.2-0.6-0.2-1-0.2c-0.3,0-0.7-0.3-1.1-0.8c-0.4-0.6-0.8-1.2-1-2c-0.5-1.3-0.8-2.7-0.9-4.2c-0.1-1.5-0.2-4-0.3-7.4v-2.3
			c0-3.1,0.1-5.2,0.2-6.3C188.5,332.8,188.9,331.9,189.4,331.2z M194.1,333.6c-0.3-0.6-0.6-1-0.8-1s-0.5,0.5-0.9,1.5
			c-0.3,0.8-0.4,2.3-0.4,4.6c0,1.8,0.1,3.7,0.2,5.7c0.1,1.9,0.3,3.7,0.6,5.4s0.6,2.5,0.8,2.5s0.3-0.4,0.4-1.1
			c0.2-0.6,0.4-1.1,0.6-1.5c0.1-0.2,0.2-1.7,0.4-4.4c0.1-1.4,0.2-2.7,0.2-3.9C195.4,337.7,194.9,335.1,194.1,333.6z"/>
		<path class="st3" d="M206.9,330.8c0.3-0.1,0.8-0.2,1.3-0.2c1.1,0,2.2,0.3,3.5,0.8c1.2,0.5,2.1,1.1,2.5,1.8
			c0.5,0.8,0.8,1.7,0.8,2.6c0,1.1-0.4,2.6-1,4.4l-0.6,1.3l0.8,0.8c0.6,0.6,1.1,1.3,1.5,2.1s0.6,1.6,0.6,2.4c0,0.7,0,1.4-0.1,2
			c-0.1,1.4-0.1,2.4-0.2,2.9c-0.1,0.5-0.4,1.1-0.8,1.9c-0.8,1.6-1.5,2.6-2.1,3.1s-1.5,0.8-2.7,0.8c-1.3,0-2.1,0-2.4,0l0,0
			c-0.5,0-1-0.3-1.4-0.8s-0.7-1.2-0.9-2c0-0.2-0.1-0.5-0.1-1c0-1,0.1-1.9,0.2-2.9c0.2-1.6,0.3-5.8,0.3-12.6c0-3.5-0.1-5.4-0.2-5.6
			c0,0-0.1-0.1-0.1-0.2c0-0.3,0.1-0.6,0.3-0.9C206.4,331.1,206.7,330.9,206.9,330.8z M211.9,345.3c-0.2-0.3-0.4-0.4-0.9-0.4
			c-0.4,0-0.6,0.2-0.8,0.5c-0.2,0.4-0.3,2.1-0.3,5.3c0,1.6,0.1,2.4,0.1,2.5h0.1c0.2,0,0.4-0.2,0.7-0.8s0.6-1.1,0.9-1.7
			c0.3-0.9,0.5-2,0.5-3.4C212.2,346.4,212.1,345.7,211.9,345.3z M210.7,335.6c-0.1-0.3-0.2-0.5-0.4-0.5s-0.4,0.7-0.4,2
			c0,1.2,0.1,1.7,0.2,1.7l0,0c0.2-0.2,0.3-0.5,0.5-1s0.2-0.9,0.2-1.2c0-0.1,0-0.3-0.1-0.6C210.7,335.9,210.7,335.7,210.7,335.6z"/>
		<path class="st3" d="M222.8,330.3c0.3-0.3,0.6-0.5,1-0.5c0.3,0,0.6,0,0.8,0c0.8,0.1,1.2,0.3,1.4,0.5c0.4,0.5,0.6,3.5,0.6,9v3v2.6
			c0,4.4,0.1,6.7,0.2,7.1c0.1,0.6,0.7,0.8,1.6,0.8c0.5,0,0.9,0,1.2,0s0.6,0,1,0c0.6,0,1.1,0.1,1.3,0.3s0.4,0.5,0.4,1
			c0,0.4-0.1,0.6-0.2,0.8c-0.1,0.2-0.5,0.4-1,0.8c-0.9,0.5-1.9,0.8-2.9,0.8c-1.4,0.1-2.1,0.1-2.2,0.2c-0.1,0-0.2,0-0.4,0
			c-0.4,0-0.8-0.1-1.3-0.3s-0.9-0.5-1.1-0.8c-0.5-0.6-0.8-2.3-0.8-5.1c0-0.7,0.1-2,0.1-3.9c0.1-1.7,0.1-3.6,0.1-5.6
			c0-4.8-0.1-7.8-0.2-9c-0.1-0.5-0.1-0.8-0.1-0.9C222.3,331,222.5,330.7,222.8,330.3z"/>
		<path class="st3" d="M240.6,331.8c0.4-0.1,0.9-0.2,1.6-0.2c1.8,0,3,0.2,3.4,0.6c0.3,0.3,0.5,0.7,0.5,1.1s-0.2,0.8-0.5,1.1
			s-0.8,0.4-1.3,0.4s-0.8,0.1-1,0.4c-0.2,0.2-0.2,0.8-0.2,1.7c0,0.3,0,1.1,0.1,2.5c0.1,1.6,0.1,2.7,0.2,3.2s0.2,0.7,0.4,0.8
			c0,0,0.2,0,0.6,0s0.7,0,1,0c0.8,0,1.4,0.2,1.7,0.6c0.2,0.2,0.4,0.5,0.4,0.7c0,0.5-0.7,1-2.1,1.5c-0.8,0.3-1.3,0.5-1.5,0.7
			s-0.3,0.5-0.4,1.1c-0.1,0.5-0.1,1-0.1,1.4c0,1.7,0.1,2.9,0.4,3.7c0.1,0.3,0.3,0.5,0.5,0.6s0.5,0.1,1,0.1c0.7,0,1.3,0.2,1.8,0.5
			s0.8,0.7,0.8,1.1c0,0.3-0.2,0.7-0.8,1.2c-0.8,0.8-2.1,1.1-4,1.1s-3.2-0.4-3.8-1.2c-0.3-0.4-0.5-3.3-0.6-8.5
			c-0.1-6.5-0.1-10.4-0.2-11.5l-0.1-3.7l0.7-0.4C239.7,332.1,240.2,331.9,240.6,331.8z"/>
		<path class="st3" d="M266.6,331.1c0.4-0.2,0.8-0.2,1.2-0.2c0.9,0,1.5,0.3,1.8,0.9c0.3,0.4,0.5,1.8,0.8,4.2c0.3,2.5,0.4,5.2,0.5,8
			c0,0.9,0.1,2.3,0.2,4s0.1,3.2,0.2,4.5s0.1,2.3,0.1,3c0,0.4-0.2,0.8-0.8,1.1c-0.5,0.3-1,0.5-1.6,0.5c-0.5,0-0.9-0.1-1.1-0.3
			l-0.7-0.5l-0.1-6c-0.2-6.9-0.5-10.3-0.9-10.3c-0.2,0-0.6,0.9-1.1,2.6c-0.3,1-0.6,1.6-0.9,2s-0.7,0.6-1.2,0.6
			c-0.4,0-0.8-0.1-1.3-0.3c-0.6-0.2-1-0.8-1.4-1.5c-0.4-0.9-0.6-1.3-0.6-1.4c0-0.1-0.1-0.3-0.3-0.7c-0.2-0.4-0.4-0.7-0.6-1
			s-0.3-0.4-0.4-0.4v0.6c0,1.4,0.1,3.5,0.2,6.4l0.2,6.9l-0.7,1c-0.7,1.1-1.3,1.7-1.8,1.7c-0.3,0-0.6-0.2-0.9-0.8
			c-0.3-0.4-0.4-1-0.5-1.8s-0.1-3.3-0.2-7.5c-0.2-7.7-0.4-12.1-0.6-13.1c0-0.1,0-0.3,0-0.5c0-0.4,0.2-0.7,0.5-1.1
			c0.4-0.4,0.9-0.6,1.4-0.6c0.5,0,1.2,0.1,1.9,0.5c0.7,0.3,1.2,0.7,1.5,1.2c0.4,0.5,1.2,2,2.5,4.4c0.3,0.6,0.6,1,0.8,1
			c0.2,0,0.3-0.2,0.5-0.7c0.2-0.6,0.5-1.2,0.9-2c0.5-1,0.7-1.5,0.7-1.6c0-0.3,0.2-0.8,0.6-1.5C266,331.6,266.4,331.2,266.6,331.1z"
			/>
		<path class="st3" d="M281.3,330c0.4-0.2,0.9-0.3,1.4-0.3c0.4,0,0.7,0,0.9,0c1,0.1,1.6,0.2,2,0.4s0.7,0.5,1,1s0.5,1.1,0.5,1.6
			c0,0.6-0.2,1.1-0.7,1.5c-0.4,0.4-0.8,0.6-1.2,0.6c-0.5,0-0.9-0.3-1.2-0.8c-0.3-0.4-0.6-0.7-1-0.7c-0.3,0-0.6,0.2-0.9,0.6
			s-0.5,0.9-0.5,1.4v0.2c0,1.8,1.4,5.2,4.2,10.1c0.5,0.8,0.9,2.3,1.3,4.4c0,0.1,0,0.4,0,0.7c0,1.8-0.4,3.2-1.1,4.2
			c-0.3,0.4-0.9,0.8-1.6,1.1c-0.8,0.3-1.4,0.5-2,0.5c-0.1,0-0.1,0-0.2,0s-0.1,0-0.2,0c-0.8-0.1-1.7-0.7-2.8-1.7
			c-1.1-1-1.6-1.8-1.6-2.4c0-0.3,0.2-0.6,0.6-0.9c0.4-0.4,0.7-0.6,1-0.6c0.1,0,0.2,0,0.4,0c0.4,0,1,0.5,1.7,1.6
			c0.3,0.4,0.6,0.7,1,0.7c0.3,0,0.6-0.2,0.8-0.6c0.1-0.1,0.1-0.4,0.1-0.8c0-1.9-0.9-4.7-2.6-8.4c-1.6-3.5-2.4-6-2.4-7.7
			c0-0.7,0.1-1.4,0.4-2c0.5-1.3,1-2.1,1.2-2.6C280.1,330.7,280.6,330.3,281.3,330z"/>
		<path class="st3" d="M293.7,351.5c0.4-0.4,0.7-0.5,1-0.5c0.1,0,0.3,0,0.8,0.1c1.3,0.3,2,0.8,2,1.5c0,0.6-0.4,1.1-1.2,1.6
			c-0.7,0.4-1.2,0.6-1.6,0.6c-0.7,0-1.1-0.6-1.3-1.7c0-0.2,0-0.4,0-0.7C293.2,352.2,293.3,351.8,293.7,351.5z"/>
		<path class="st4" d="M41.2,216.1c0.2,0,1-0.1,2.5-0.1c1.7,0,3,0.4,3.9,1.1s1.6,2,2.1,3.9c0.5,1.8,0.8,3.8,0.8,6.2
			c0,0.5,0,1-0.1,1.6c-0.1,0.5-0.2,1.2-0.4,2.2c-0.1,1-0.3,1.9-0.4,2.7s-0.3,1.3-0.5,1.7c-0.2,0.3-0.2,0.6-0.2,0.9
			c0,0.2-0.2,0.7-0.5,1.4s-0.6,1.2-0.9,1.5c-0.4,0.5-1,0.9-1.7,1.3s-1.5,0.6-2.2,0.7c-0.6,0.1-1,0.1-1,0.1c-0.4,0-0.8-0.2-1.1-0.5
			l-0.7-0.7v-8.4v-2.5c0-4.2,0-6.4-0.1-6.8c-0.2-1.4-0.3-2.5-0.3-3.5C40.3,217.1,40.6,216.2,41.2,216.1z M45.9,222.1
			c-0.5-1.8-0.9-2.6-1.2-2.6l-0.1,0.1l-0.1,0.2c0,0.1,0,0.2,0,0.3s0,0.3,0,0.4c0,0.4,0,1.4,0.1,2.8c0.1,1.7,0.2,4,0.2,6.9
			c0,2.8,0.2,4.1,0.3,4.1s0.2-0.2,0.3-0.7c0.6-2.1,1-4.3,1-6.8C46.5,225.1,46.3,223.5,45.9,222.1z"/>
		<path class="st4" d="M57.1,213.2c0.4-0.4,0.9-0.6,1.5-0.6s1.1,0.2,1.5,0.6l0.7,0.6l0.3,11.2c0.2,6.2,0.2,9.8,0.2,10.7
			c0,0.5,0,0.9,0,1.2s0,0.6,0,0.8s-0.1,0.4-0.2,0.5s-0.1,0.2-0.1,0.2s-0.1,0.1-0.2,0.2c-0.1,0.1-0.2,0.1-0.3,0.1
			c-0.4,0.2-0.7,0.4-0.9,0.4c-0.1,0-0.4-0.1-1-0.2c-0.8-0.3-1.2-0.6-1.3-0.9c-0.1-0.2-0.2-4.2-0.3-12s-0.2-11.8-0.2-11.9
			C56.6,213.9,56.7,213.6,57.1,213.2z"/>
		<path class="st4" d="M71.3,217.9c0.9-0.9,2.2-1.3,3.9-1.3c0.8,0,1.4,0.1,1.9,0.4c0.7,0.3,1.2,1.3,1.5,2.8c0.2,1.3,0.5,3.4,0.8,6.4
			s0.5,5.4,0.6,7c0,1.5,0.1,3.3,0.3,5.2s0.3,3,0.4,3.2c0,0,0,0.1,0,0.2c0,0.3-0.1,0.7-0.4,1.1s-0.5,0.7-0.8,0.8c-0.1,0-0.2,0-0.4,0
			c-0.5,0-1-0.1-1.6-0.3s-1-0.5-1.1-0.8s-0.3-1.2-0.5-2.7s-0.3-2.8-0.3-3.8c0-0.9-0.1-1.4-0.3-1.5c-0.2-0.1-0.9-0.2-2.2-0.2
			c-1.1,0-1.7,0-1.7,0.2s-0.1,0.4-0.1,0.6c0,0.7,0.1,1.6,0.2,2.7c0.1,1.3,0.2,2.4,0.2,3.2v0.5c0,0.2-0.3,0.4-0.7,0.6
			c-0.4,0.2-0.9,0.3-1.3,0.3c-0.2,0-0.4,0-0.5,0c-1.1-0.3-1.8-0.8-1.9-1.4c0,0,0-0.1,0-0.2s0-0.2,0-0.3c0-1.4,0.2-4.4,0.5-9
			s0.6-7.2,0.8-7.9c0.2-0.9,0.6-1.9,1.2-3.1C70.3,219.1,70.8,218.3,71.3,217.9z M74.7,223c-0.2-1-0.4-1.4-0.7-1.4
			c-0.2,0-0.5,0.3-0.8,1c-0.6,1.3-1,3.2-1.2,5.5c-0.1,1-0.1,1.5-0.1,1.6c0,0.5,0.1,0.8,0.2,0.9c0.2,0.1,0.6,0.2,1.3,0.2
			c1,0,1.5-0.1,1.6-0.3c0.1-0.1,0.1-0.5,0.1-1.3C75.2,226.9,75,224.8,74.7,223z"/>
		<path class="st4" d="M88,215.1c0.3-0.1,0.8-0.2,1.3-0.2c1.1,0,2.2,0.3,3.5,0.8c1.2,0.5,2.1,1.1,2.5,1.8c0.5,0.8,0.8,1.7,0.8,2.6
			c0,1.1-0.3,2.6-1,4.4l-0.6,1.3l0.9,0.8c0.6,0.6,1.1,1.3,1.5,2.1s0.5,1.6,0.5,2.4c0,0.7,0,1.4,0,2c-0.1,1.4-0.2,2.4-0.2,2.9
			c-0.1,0.5-0.3,1.1-0.8,1.9c-0.8,1.6-1.5,2.6-2.1,3.1s-1.5,0.8-2.7,0.8c-1.3,0-2.1,0-2.4,0h-0.1c-0.5,0-1-0.3-1.4-0.8
			s-0.7-1.2-0.8-2c0-0.2,0-0.5,0-1c0-1,0-1.9,0.1-2.9c0.2-1.6,0.3-5.8,0.3-12.6c0-3.5-0.1-5.4-0.2-5.6c0,0,0-0.1,0-0.2
			c0-0.3,0.1-0.6,0.3-0.9C87.6,215.5,87.8,215.2,88,215.1z M93,229.7c-0.2-0.3-0.4-0.4-0.8-0.4s-0.7,0.2-0.8,0.5
			c-0.2,0.4-0.3,2.1-0.3,5.3c0,1.6,0.1,2.4,0.2,2.5h0.1c0.2,0,0.4-0.2,0.7-0.8c0.3-0.5,0.6-1.1,0.9-1.7c0.3-0.9,0.5-2,0.5-3.4
			C93.4,230.7,93.2,230,93,229.7z M91.9,219.9c-0.1-0.3-0.2-0.5-0.5-0.5c-0.2,0-0.3,0.7-0.3,2c0,1.2,0.1,1.7,0.2,1.7l0,0
			c0.2-0.2,0.3-0.5,0.5-1s0.2-0.9,0.2-1.2c0-0.1,0-0.3,0-0.6C91.9,220.2,91.9,220,91.9,219.9z"/>
		<path class="st4" d="M105.6,216.1c0.4-0.1,0.9-0.2,1.6-0.2c1.8,0,3,0.2,3.4,0.6c0.3,0.3,0.5,0.7,0.5,1.1s-0.2,0.8-0.5,1.1
			s-0.8,0.4-1.3,0.4s-0.8,0.1-1,0.4c-0.2,0.2-0.2,0.8-0.2,1.7c0,0.3,0,1.1,0.1,2.5c0.1,1.6,0.1,2.7,0.2,3.2s0.2,0.7,0.4,0.8
			c0,0,0.2,0,0.6,0s0.7,0,1,0c0.8,0,1.4,0.2,1.7,0.6c0.2,0.2,0.4,0.5,0.4,0.7c0,0.5-0.7,1-2.1,1.5c-0.8,0.3-1.3,0.5-1.5,0.7
			s-0.3,0.5-0.3,1.1c-0.1,0.5-0.1,1-0.1,1.4c0,1.7,0.1,2.9,0.4,3.7c0.1,0.3,0.3,0.5,0.4,0.6c0.2,0.1,0.5,0.1,1,0.1
			c0.7,0,1.3,0.2,1.8,0.5s0.8,0.7,0.8,1.1c0,0.3-0.2,0.7-0.8,1.2c-0.8,0.8-2.1,1.1-4,1.1s-3.2-0.4-3.8-1.2c-0.3-0.4-0.5-3.3-0.6-8.5
			c-0.1-6.5-0.1-10.4-0.2-11.5l-0.2-3.7l0.7-0.4C104.7,216.5,105.2,216.2,105.6,216.1z"/>
		<path class="st4" d="M120.2,213.3c0.5-0.4,1.2-0.6,2.3-0.6h1.1c1.8,0.1,2.9,0.1,3.2,0.2c0.2,0.1,0.7,0.1,1.4,0.2
			c0.7,0,1.3,0.2,1.6,0.4c0.3,0.2,0.5,0.7,0.5,1.3s-0.2,1.1-0.4,1.3c-0.2,0.3-0.6,0.5-1.2,0.5c-0.7,0.1-1.1,0.2-1.2,0.4
			c-0.2,0.2-0.2,3.3-0.2,9.5c0,4.2,0.1,7.3,0.2,9.1c0.1,1.4,0.1,2.1,0.1,2.2c0,0.7-0.1,1.3-0.4,1.8c-0.4,0.7-0.9,1-1.7,1
			c-0.5,0-1-0.1-1.5-0.5l-0.9-0.5l0.1-11.3c0.1-2.9,0.1-5.8,0.1-8.8c0-1.8-0.1-2.7-0.4-2.9c-0.4-0.2-0.6-0.3-0.8-0.2
			c-0.1,0-0.3,0-0.5,0c-0.6,0-1.1-0.2-1.5-0.5c-0.4-0.4-0.6-0.8-0.6-1.2C119.4,214.2,119.6,213.7,120.2,213.3z"/>
		<path class="st4" d="M138.7,216.1c0.4-0.1,0.9-0.2,1.6-0.2c1.8,0,3,0.2,3.4,0.6c0.3,0.3,0.5,0.7,0.5,1.1s-0.2,0.8-0.5,1.1
			s-0.8,0.4-1.3,0.4s-0.8,0.1-1,0.4s-0.2,0.8-0.2,1.7c0,0.3,0,1.1,0.1,2.5c0.1,1.6,0.1,2.7,0.2,3.2c0.1,0.5,0.2,0.7,0.4,0.8
			c0,0,0.2,0,0.6,0c0.4,0,0.7,0,1,0c0.8,0,1.4,0.2,1.7,0.6c0.2,0.2,0.4,0.5,0.4,0.7c0,0.5-0.7,1-2.1,1.5c-0.8,0.3-1.3,0.5-1.5,0.7
			s-0.3,0.5-0.4,1.1c-0.1,0.5-0.1,1-0.1,1.4c0,1.7,0.1,2.9,0.4,3.7c0.1,0.3,0.3,0.5,0.4,0.6c0.2,0.1,0.5,0.1,1,0.1
			c0.7,0,1.3,0.2,1.8,0.5s0.8,0.7,0.8,1.1c0,0.3-0.2,0.7-0.8,1.2c-0.8,0.8-2.1,1.1-4,1.1s-3.2-0.4-3.8-1.2c-0.3-0.4-0.5-3.3-0.6-8.5
			c-0.1-6.5-0.1-10.4-0.2-11.5l-0.2-3.7l0.7-0.4C137.8,216.5,138.3,216.2,138.7,216.1z"/>
		<path class="st4" d="M156.1,214.3c0.4-0.2,0.9-0.3,1.4-0.3c0.4,0,0.7,0,0.9,0c1,0.1,1.6,0.2,2,0.4c0.4,0.2,0.7,0.5,1,1
			s0.5,1.1,0.5,1.6c0,0.6-0.2,1.1-0.7,1.5c-0.4,0.4-0.8,0.6-1.2,0.6c-0.5,0-0.9-0.3-1.2-0.8c-0.3-0.4-0.6-0.7-0.9-0.7
			c-0.3,0-0.6,0.2-0.9,0.6c-0.3,0.4-0.5,0.9-0.5,1.4v0.2c0,1.8,1.4,5.2,4.2,10.1c0.5,0.8,0.9,2.3,1.3,4.4c0,0.1,0,0.4,0,0.7
			c0,1.8-0.4,3.2-1.1,4.2c-0.3,0.4-0.9,0.8-1.6,1.1c-0.8,0.3-1.4,0.5-2,0.5c-0.1,0-0.1,0-0.2,0c-0.1,0-0.1,0-0.2,0
			c-0.8-0.1-1.7-0.7-2.8-1.7s-1.6-1.8-1.6-2.4c0-0.3,0.2-0.6,0.6-0.9c0.4-0.4,0.7-0.6,1-0.6c0.1,0,0.2,0,0.3,0
			c0.4,0,0.9,0.5,1.7,1.6c0.3,0.4,0.6,0.7,1,0.7c0.3,0,0.6-0.2,0.8-0.6c0.1-0.1,0.1-0.4,0.1-0.8c0-1.9-0.9-4.7-2.6-8.4
			c-1.6-3.5-2.4-6-2.4-7.7c0-0.7,0.1-1.4,0.4-2c0.5-1.3,0.9-2.1,1.2-2.6C154.9,215.1,155.4,214.7,156.1,214.3z"/>
		<path class="st3" d="M89.3,293.5c-9.7-9.7-25.5-9.9-35.4-0.3c-10.2,9.8-10,26.4,0.1,36.5l29.2,29.1c3.4,3.4,8.9,3.4,12.3,0
			l29.6-29.5c9.9-9.9,9.9-25.8,0-35.7C115.2,283.6,99.2,283.6,89.3,293.5z"/>
		<path class="st0" d="M122.1,302.9l-24.3,10.8c-1,0.4-2.1,0-2.5-1l-2.2-4.9c-0.4-1,0-2.1,1-2.5l24.3-10.8c1-0.4,2.1,0,2.5,1
			l2.2,4.9C123.6,301.3,123.1,302.5,122.1,302.9z"/>
		<path class="st3" d="M111.6,298.7l-9.8,4.4l2.9,6.5l9.8-4.4L111.6,298.7z"/>
		<path class="st0" d="M101.4,291.7l20.9,16.4c0.8,0.6,1,1.9,0.3,2.7l-3.3,4.2c-0.6,0.8-1.9,1-2.7,0.3L95.7,299
			c-0.8-0.7-1-1.9-0.3-2.7l3.3-4.2C99.3,291.2,100.5,291.1,101.4,291.7z"/>
		<path class="st3" d="M102.6,303l8.5,6.6l4.3-5.6l-8.5-6.6L102.6,303z"/>
		<path class="st5" d="M53.7,306c0,0,1.7-10,14.3-13.5"/>
		<path class="st6" d="M124.2,115.4H52V129h72.2V115.4z"/>
		<path class="st7" d="M106.9,115.8l-0.4,24.8c0,2.8-0.8,5.6-2.3,8c-1.8,2.9-2.7,6.3-2.7,9.7V180H76.1v-25.5c0-2.8-1.1-5.5-3.1-7.5
			c-3.1-3.1-7.6-7.8-9.2-10c-1.1-1.6-1.3-3.6-0.5-5.4l3.4-7.1c0.5-1,0.7-2,0.7-3.1l0.1-19.6c0-1.5,1.2-2.8,2.8-2.8h4.4
			c1.5,0,2.8,1.2,2.8,2.8v1.7c0,0.8,0.6,1.3,1.3,1.3c1.6,0,4.2-0.1,5-0.1h1c1.3,0,2.5,0.5,3.4,1.4c1.1,1.1,2.6,1.8,4.2,2
			c3,0.4,8-0.4,12.3,3C106.1,112.3,106.9,114,106.9,115.8z"/>
		<path class="st2" d="M52.3,98.8h-7c-3.2,0-5.8,1.9-5.8,4.2v3.6c-3.2,0.2-7.3,2-7.3,4.2V134c0,2.2,4.2,4,7.3,4.2v3.6
			c0,2.3,2.6,4.2,5.8,4.2h7c0.8,0,1.4-0.5,1.4-1V99.8C53.8,99.3,53.1,98.8,52.3,98.8z"/>
		<path class="st2" d="M121,99.1h7c3.2,0,5.8,1.9,5.8,4.2v3.6c3.2,0.2,7.4,2,7.4,4.2v23.2c0,2.2-4.2,4-7.4,4.2v3.6
			c0,2.3-2.6,4.2-5.8,4.2h-7c-0.8,0-1.4-0.5-1.4-1v-45.2C119.6,99.5,120.2,99.1,121,99.1z"/>
		<path class="st8" d="M78.6,99.9c0,0,0.1,11.6,0,14.7"/>
		<path class="st8" d="M86.6,97.9c0,0,0.1,11.6,0,14.7"/>
		<path class="st8" d="M94.8,96.9c0,0,0.1,11.6,0,14.7"/>
		<path class="st8" d="M38.4,104.9v18.9"/>
		<path class="st8" d="M134.9,104.9v7.7"/>
		<path class="st9" d="M251.9,230.5c0.6,0.9,1.5,1.5,2.5,1.8c10.8,3.4,19.4-12.8,18.1-24.3c-1.5-12.9-11.4-21.2-19.5-18.3
			c-1.3,0.5-2.5,1.3-3.2,2.5c-3,5.2,4.5,11.2,5.9,18.4C257.5,219.1,248.5,225.6,251.9,230.5z"/>
		<path class="st10" d="M267.5,218.1c1.1-3.8,1.4-8,0.5-11.8c-0.7-3.3-1.9-6.2-3.5-8.7"/>
		<path class="st11" d="M239.5,225.8c-1-0.4-2.1-0.3-3.1,0.1c-10.8,3.6-8.1,21.8-0.3,30.3c8.8,9.6,21.7,10.4,26.5,3.3
			c0.8-1.1,1.2-2.5,1.1-3.9c-0.6-6-10.2-6.4-15.6-11.3C241.6,238.3,245.1,227.7,239.5,225.8z"/>
		<path class="st10" d="M234.2,245c1.3,3.7,3.6,7.2,6.5,9.9c2.5,2.2,5.2,3.9,8,5"/>
		<path class="st9" d="M192.8,220.8c-3-0.6-6.4,0.2-9.3,2.2c-1.1,0.8-1.5,1.9-0.9,2.8l8.2,12.2c0.6,0.9,1.8,1,2.9,0.2
			c2.9-2,5-4.8,5.5-7.8L192.8,220.8z"/>
		<path class="st9" d="M224.4,195.1c-2.9,2-5,4.8-5.5,7.8l6.5,9.6c3,0.6,6.4-0.2,9.3-2.2c1.1-0.8,1.5-1.9,0.9-2.8l-8.2-12.2
			C226.7,194.4,225.5,194.4,224.4,195.1z"/>
		<path class="st12" d="M221.5,205.1c-2.7-4-8.2-5.3-12.3-2.6c0,0-0.1,0-0.1,0.1l-13.1,9.1c0,0-0.1,0-0.1,0.1
			c-4,2.8-4.9,8.3-2.2,12.3l2.8,4.2c2.7,4,8.2,5.3,12.3,2.6c0,0,0.1,0,0.1-0.1l13.1-9.1c0,0,0.1,0,0.1-0.1c4-2.8,4.9-8.3,2.2-12.4
			L221.5,205.1z"/>
		<path class="st13" d="M199.6,228.7c2.2,1.8,6.6,1.6,8.6-0.1"/>
		<path class="st13" d="M217.8,204.6c-1.7-1.6-6-1.3-8.1,0.4"/>
	</g>
</g>
</svg>
