<?xml version="1.0" encoding="utf-8"?>
<!-- Generator: Adobe Illustrator 25.1.0, SVG Export Plug-In . SVG Version: 6.00 Build 0)  -->
<svg version="1.1" id="Layer_1" xmlns="http://www.w3.org/2000/svg" xmlns:xlink="http://www.w3.org/1999/xlink" x="0px" y="0px"
	 viewBox="0 0 330.9 165.7" style="enable-background:new 0 0 330.9 165.7;" xml:space="preserve">
<style type="text/css">
	.st0{fill:#FFFFFF;}
	.st1{fill:#808080;}
	.st2{fill:#E14504;}
	.st3{fill:#EEF1F2;}
	.st4{fill:#E14504;stroke:#FFFFFF;stroke-width:2.0778;stroke-miterlimit:10;}
</style>
<g>
	<g>
		<path class="st0" d="M330.9,116.4c0-114.1-7.6-115.5-139-116.4C163.6-0.2,93.3,0.3,58.6,0.7c-34.1,0.5-47,8.6-52.2,19.5
			c-8.1,16.9-5.9,44-5.9,75.1c0,48.9-6.6,60.6,28.4,66.8c35.6,6.3,166.4,2.4,209.3,1.6C282.6,162.9,330.9,166.2,330.9,116.4z"/>
		<path class="st1" d="M30.9,34.1l-2.3-7.9h1.3l1.7,6.2l1.9-6.2H35l1.9,6.2l1.7-6.2H40l-2.3,7.9h-1.4l-2-6.5l-2,6.5H30.9z"/>
		<path class="st1" d="M41.4,34.1V22.6h1.3v4.9c0.3-0.5,0.7-0.9,1.1-1.1c0.5-0.3,1-0.4,1.6-0.4c0.9,0,1.7,0.3,2.2,0.9
			c0.6,0.6,0.8,1.5,0.8,2.6v4.6h-1.3v-4.5c0-1.6-0.7-2.5-2-2.5c-0.7,0-1.3,0.2-1.7,0.7c-0.5,0.5-0.7,1.2-0.7,2.1V34L41.4,34.1
			L41.4,34.1z"/>
		<path class="st1" d="M51.3,24.4c-0.3,0-0.5-0.1-0.7-0.3s-0.3-0.4-0.3-0.7s0.1-0.5,0.3-0.6c0.2-0.2,0.4-0.3,0.7-0.3
			s0.5,0.1,0.7,0.3s0.3,0.4,0.3,0.6c0,0.3-0.1,0.5-0.3,0.7S51.6,24.4,51.3,24.4z M50.6,34.1v-7.9h1.3v7.9H50.6z"/>
		<path class="st1" d="M54.3,34.1V22.6h1.3v11.5H54.3z"/>
		<path class="st1" d="M61.5,34.3c-0.8,0-1.4-0.2-2-0.5c-0.6-0.4-1-0.8-1.4-1.5c-0.3-0.6-0.5-1.3-0.5-2.2c0-0.8,0.2-1.6,0.5-2.2
			s0.8-1.1,1.4-1.5c0.6-0.4,1.3-0.5,2.1-0.5c0.8,0,1.4,0.2,2,0.5s1,0.8,1.3,1.4s0.4,1.2,0.4,1.8c0,0.1,0,0.2,0,0.4
			c0,0.1,0,0.2,0,0.4H59c0,0.6,0.2,1.1,0.4,1.5s0.6,0.7,0.9,0.9c0.4,0.2,0.8,0.3,1.2,0.3c0.5,0,1-0.1,1.4-0.4s0.7-0.6,0.8-1H65
			c-0.2,0.7-0.6,1.3-1.2,1.8C63.2,34,62.4,34.3,61.5,34.3z M61.5,27.1c-0.6,0-1.2,0.2-1.7,0.6s-0.8,1-0.9,1.7h5
			c0-0.7-0.3-1.3-0.7-1.7C62.7,27.3,62.1,27.1,61.5,27.1z"/>
		<path class="st1" d="M74.4,34.1c-0.7,0-1.3-0.2-1.7-0.5c-0.4-0.3-0.6-1-0.6-1.9v-4.4h-1.4v-1.1h1.4l0.2-1.9h1.2v1.9h2.3v1.1h-2.3
			v4.4c0,0.5,0.1,0.8,0.3,1c0.2,0.2,0.6,0.3,1.1,0.3h0.8v1.1L74.4,34.1L74.4,34.1z"/>
		<path class="st1" d="M77.4,34.1V22.6h1.3v4.9c0.3-0.5,0.7-0.9,1.1-1.1c0.5-0.3,1-0.4,1.6-0.4c0.9,0,1.7,0.3,2.2,0.9
			s0.8,1.5,0.8,2.6v4.6h-1.3v-4.5c0-1.6-0.7-2.5-2-2.5c-0.7,0-1.3,0.2-1.7,0.7c-0.5,0.5-0.7,1.2-0.7,2.1V34L77.4,34.1L77.4,34.1z"/>
		<path class="st1" d="M90.1,34.3c-0.8,0-1.4-0.2-2-0.5c-0.6-0.4-1.1-0.8-1.4-1.5c-0.3-0.6-0.5-1.3-0.5-2.2c0-0.8,0.2-1.6,0.5-2.2
			s0.8-1.1,1.4-1.5s1.3-0.5,2.1-0.5c0.8,0,1.4,0.2,2,0.5c0.6,0.4,1,0.8,1.3,1.4s0.4,1.2,0.4,1.8c0,0.1,0,0.2,0,0.4
			c0,0.1,0,0.2,0,0.4h-6.3c0,0.6,0.2,1.1,0.4,1.5c0.2,0.4,0.6,0.7,0.9,0.9c0.4,0.2,0.8,0.3,1.2,0.3c0.6,0,1-0.1,1.4-0.4
			s0.6-0.6,0.8-1h1.3c-0.2,0.7-0.6,1.3-1.2,1.8C91.9,34,91.1,34.3,90.1,34.3z M90.1,27.1c-0.6,0-1.2,0.2-1.7,0.6s-0.8,1-0.9,1.7h5
			c0-0.7-0.3-1.3-0.7-1.7C91.4,27.3,90.8,27.1,90.1,27.1z"/>
		<path class="st2" d="M31.2,44.8c0.3-0.1,1-0.2,2.1-0.2c1.3,0,2.2,0.1,2.5,0.3c0.5,0.2,0.9,0.6,1.5,1.2c0.5,0.5,0.9,1,1.1,1.4
			c0.3,0.6,0.6,2.2,0.6,4.5c0.1,1.4,0.1,2.2,0.1,2.4c0,0.9-0.1,1.7-0.4,2.5c-0.3,0.9-0.6,1.6-1,2c-0.4,0.5-1,0.8-1.7,1l-1.2,0.4v3.4
			c0,2-0.1,3.3-0.2,3.7c-0.2,0.4-0.6,0.7-1.2,0.7c-0.6,0-1.1-0.2-1.5-0.5l-0.6-0.5v-3v-0.7c0-2.4-0.1-5.4-0.2-9
			c-0.1-3.6-0.3-5.8-0.4-6.7c-0.1-0.6-0.1-1.1-0.1-1.5C30.3,45.7,30.6,45.1,31.2,44.8z M35,48.8c-0.3-0.6-0.5-1-0.7-1
			c-0.1,0-0.1,0-0.2,0.1c0,0.9,0,2,0,3.2c0,4,0.2,6,0.5,6c0.1,0,0.3-0.3,0.6-0.8c0.2-0.5,0.3-1.1,0.3-1.8c0-0.2,0-0.8-0.1-1.9
			C35.3,50.6,35.2,49.3,35,48.8z"/>
		<path class="st2" d="M45.5,44.4c0.5-0.2,1.2-0.2,1.9-0.2c0.8,0,1.5,0.1,1.8,0.2c0.7,0.3,1.3,0.9,1.7,1.7c0.2,0.4,0.3,1.1,0.5,2.2
			s0.2,2,0.2,2.9c0,0.4,0,0.7,0,0.8c-0.1,0.7-0.3,1.5-0.6,2.3c-0.3,0.9-0.5,1.3-0.7,1.3S50,55.8,50,56.1s0.1,0.6,0.3,0.9
			c0.4,0.6,1.1,1.8,1.9,3.6c0.8,1.7,1.3,2.8,1.3,3.3c0,0.1,0,0.3,0,0.6c0,0.4-0.1,0.7-0.3,1S52.7,66,52.4,66s-0.5,0-0.8,0
			c-0.7-0.1-1.1-0.2-1.3-0.3C50.1,65.6,50,65.4,50,65c0-0.6-0.3-1.4-0.9-2.6c-0.6-1.1-1-1.7-1.3-1.7l0,0c-0.1,0.1-0.1,0.4-0.1,0.9
			c0,0.8,0.1,1.8,0.2,2.8c0.1,0.5,0.1,0.8,0.1,0.9c0,1-0.2,1.5-0.6,1.8c-0.2,0.1-0.4,0.1-0.7,0.1c-0.9,0-1.5-0.2-1.7-0.6
			c-0.1-0.2-0.2-2.1-0.3-5.7c0-1.1-0.1-2.4-0.1-3.7s0-2.3,0-2.9s0-1.4-0.1-2.4s-0.2-2-0.3-3.2c-0.1-1.3-0.2-2.1-0.2-2.4
			c0-0.7,0.1-1.1,0.3-1.4C44.6,44.7,45,44.5,45.5,44.4z M48.1,47.5c-0.1-0.2-0.2-0.3-0.5-0.3c-0.2,0-0.3,0.1-0.4,0.3
			c-0.1,0.2-0.1,0.4,0,0.5c0,0,0.1,0.9,0.2,2.7c0.1,1.8,0.2,2.7,0.3,2.8s0.2-0.1,0.4-0.3s0.2-0.7,0.2-1.4c0-0.5,0-1,0-1.4
			C48.3,48.7,48.2,47.8,48.1,47.5z"/>
		<path class="st2" d="M60.6,46.7c0.3-0.1,0.8-0.1,1.3-0.1c1.5,0,2.5,0.2,2.9,0.5c0.3,0.2,0.4,0.6,0.4,0.9c0,0.4-0.1,0.7-0.4,0.9
			s-0.6,0.4-1.1,0.4c-0.4,0-0.7,0.1-0.8,0.3c-0.1,0.2-0.2,0.7-0.2,1.5c0,0.2,0,0.9,0.1,2.1c0.1,1.4,0.1,2.3,0.2,2.7s0.2,0.6,0.3,0.7
			c0,0,0.2,0,0.6,0s0.6,0,0.8,0c0.7,0,1.2,0.2,1.5,0.5c0.2,0.2,0.3,0.4,0.3,0.6c0,0.4-0.6,0.9-1.8,1.3c-0.7,0.2-1.1,0.4-1.3,0.6
			c-0.1,0.1-0.2,0.4-0.3,0.9C63,60.9,63,61.3,63,61.7c0,1.4,0.1,2.5,0.4,3.1c0.1,0.3,0.2,0.5,0.4,0.5s0.4,0.1,0.9,0.1
			c0.6,0,1.1,0.1,1.5,0.4s0.6,0.6,0.6,1c0,0.2-0.2,0.6-0.6,1c-0.7,0.6-1.8,1-3.4,1s-2.7-0.3-3.2-1c-0.3-0.4-0.5-2.8-0.5-7.2
			c-0.1-5.5-0.1-8.8-0.2-9.7l-0.1-3.1l0.6-0.3C59.8,47,60.2,46.8,60.6,46.7z"/>
		<path class="st2" d="M74.1,46.5c0.7-0.1,1.4-0.1,2.1-0.1c0.6,0,1.1,0,1.3,0c1.3,0.1,2.1,0.2,2.3,0.5c0.2,0.3,0.4,0.6,0.4,0.9
			c0,0.7-0.6,1.2-1.9,1.5c-0.3,0.1-1.1,0.2-2.1,0.5L75.3,50v2.8c0,1.4,0,2.2,0.1,2.4c0,0.2,0.2,0.4,0.5,0.6s0.7,0.2,1.3,0.2
			c0.5,0,0.8,0.1,1,0.5c0.2,0.3,0.3,0.6,0.3,0.9c0,0.7-0.6,1.1-1.7,1.4c-0.7,0.2-1.1,0.3-1.2,0.4s-0.1,0.3-0.1,0.7
			c0,0.3,0.2,2.6,0.5,6.7l0.1,1.1c0,0.3-0.2,0.6-0.5,0.8c-0.2,0.1-0.6,0.2-0.9,0.2c-0.6,0-1.1-0.2-1.7-0.8c-0.5-0.5-0.7-1-0.7-1.5
			v-0.3c0-0.3,0-0.8,0-1.5s0-1.3,0-1.7c0-5.4-0.1-9.4-0.3-12c-0.1-1.1-0.1-1.9-0.1-2.4c0-0.8,0.1-1.2,0.4-1.4
			C72.6,46.7,73.2,46.6,74.1,46.5z"/>
		<path class="st2" d="M86.9,44.4c0.5-0.2,1.2-0.2,1.9-0.2c0.8,0,1.5,0.1,1.8,0.2c0.7,0.3,1.3,0.9,1.7,1.7c0.2,0.4,0.3,1.1,0.5,2.2
			s0.2,2,0.2,2.9c0,0.4,0,0.7,0,0.8c-0.1,0.7-0.3,1.5-0.6,2.3c-0.3,0.9-0.5,1.3-0.7,1.3s-0.3,0.2-0.3,0.5s0.1,0.6,0.3,0.9
			c0.5,0.6,1.1,1.8,1.9,3.6c0.8,1.7,1.3,2.8,1.3,3.3c0,0.1,0,0.3,0,0.6c0,0.4-0.1,0.7-0.3,1c-0.2,0.3-0.5,0.5-0.8,0.5s-0.5,0-0.8,0
			c-0.7-0.1-1.1-0.2-1.3-0.3c-0.2-0.1-0.3-0.3-0.3-0.7c0-0.6-0.3-1.4-0.9-2.6c-0.6-1.1-1-1.7-1.3-1.7l0,0c-0.1,0.1-0.1,0.4-0.1,0.9
			c0,0.8,0.1,1.8,0.2,2.8c0.1,0.5,0.1,0.8,0.1,0.9c0,1-0.2,1.5-0.6,1.8c-0.2,0.1-0.4,0.1-0.7,0.1c-0.9,0-1.5-0.2-1.7-0.6
			c-0.1-0.2-0.2-2.1-0.3-5.7c0-1.1-0.1-2.4-0.1-3.7s0-2.3,0-2.9s0-1.4-0.1-2.4s-0.2-2-0.3-3.2c-0.1-1.3-0.2-2.1-0.2-2.4
			c0-0.7,0.1-1.1,0.3-1.4C86,44.7,86.4,44.5,86.9,44.4z M89.5,47.5c-0.1-0.2-0.2-0.3-0.5-0.3c-0.2,0-0.3,0.1-0.4,0.3s-0.1,0.4,0,0.5
			c0,0,0.1,0.9,0.2,2.7s0.2,2.7,0.3,2.8c0.1,0.1,0.2-0.1,0.4-0.3c0.2-0.2,0.2-0.7,0.2-1.4c0-0.5,0-1,0-1.4
			C89.7,48.7,89.6,47.8,89.5,47.5z"/>
		<path class="st2" d="M101.4,46.1l0.8-1h5.2l0.8,0.8c0.5,0.5,0.9,1.2,1.1,2s0.4,2.1,0.5,3.8c0.1,0.6,0.1,1.6,0.1,2.8
			c0,2.9-0.3,5.4-0.8,7.8c-0.5,2.3-1.2,3.9-2.1,4.8c-0.3,0.3-0.7,0.5-1.2,0.7s-1,0.3-1.4,0.3c-0.2,0-0.3,0-0.4-0.1
			c-0.2-0.1-0.5-0.2-0.9-0.2c-0.3,0-0.6-0.2-1-0.7s-0.7-1-0.9-1.7c-0.4-1.1-0.7-2.3-0.8-3.6c-0.1-1.3-0.2-3.4-0.2-6.3v-2
			c0-2.6,0.1-4.4,0.2-5.3C100.6,47.5,100.9,46.7,101.4,46.1z M105.3,48.2c-0.2-0.5-0.5-0.8-0.6-0.8c-0.2,0-0.4,0.4-0.7,1.3
			c-0.2,0.7-0.3,2-0.3,3.9c0,1.5,0.1,3.1,0.2,4.8c0.1,1.6,0.3,3.1,0.5,4.5s0.5,2.1,0.7,2.1c0.1,0,0.3-0.3,0.4-0.9
			c0.1-0.5,0.3-0.9,0.5-1.3c0.1-0.2,0.2-1.4,0.4-3.7c0.1-1.2,0.1-2.3,0.1-3.3C106.4,51.7,106,49.5,105.3,48.2z"/>
		<path class="st2" d="M116.1,45.7c0.4-0.2,0.8-0.3,1.3-0.3c0.8,0,1.4,0.5,1.7,1.6c0.2,0.8,0.6,1.7,1,2.6s0.7,1.6,0.9,2.2
			c0.3,0.9,0.5,1.5,0.8,1.7c0.1,0.1,0.2,0.2,0.2,0.2c0.1,0,0.2-0.6,0.3-1.8c0.1-1.1,0.1-1.9,0.1-2.3v-0.5c0-0.2,0-0.5,0-0.8
			c0-0.7,0.2-1.2,0.6-1.6c0.3-0.4,0.8-0.6,1.5-0.6c0.5,0,0.9,0.1,1.2,0.4c0.2,0.2,0.4,0.6,0.4,1c0,0.5,0,1-0.1,1.5
			s-0.1,3.9-0.2,10.2c0,4-0.1,6.3-0.1,7.1s-0.1,1.3-0.3,1.5c-0.3,0.3-0.7,0.5-1.3,0.5c-1.2,0-1.9-0.6-2.1-1.8
			c-0.1-0.4-0.4-1.3-0.8-2.5c-0.4-1.1-0.7-2.1-0.8-3c-0.2-1.1-0.6-2.7-1.2-4.6c-0.1-0.2-0.1-0.2-0.1-0.2c-0.1,0-0.2,1.2-0.2,3.5v2
			v2.2c0,2.3-0.1,3.6-0.2,3.9c-0.3,0.8-0.9,1.2-1.8,1.2c-0.5,0-1-0.2-1.3-0.5c-0.2-0.3-0.4-0.5-0.4-0.8c0-0.1,0-0.3,0.1-0.8
			c0.1-0.9,0.2-4.3,0.2-10.1c0-6.5,0.1-9.9,0.2-10.3c0.1-0.2,0.2-0.4,0.5-0.5C116,45.8,116.1,45.8,116.1,45.7z"/>
		<path class="st2" d="M132,44.3c0.4-0.3,1-0.5,1.9-0.5h1c1.5,0.1,2.4,0.1,2.7,0.2c0.2,0.1,0.6,0.1,1.2,0.1c0.6,0,1.1,0.2,1.4,0.4
			c0.3,0.2,0.4,0.6,0.4,1.1s-0.1,0.9-0.3,1.1s-0.6,0.4-1.1,0.5c-0.6,0.1-0.9,0.2-1,0.3s-0.2,2.8-0.2,8c0,3.6,0,6.1,0.1,7.6
			c0.1,1.2,0.1,1.8,0.1,1.9c0,0.6-0.1,1.1-0.4,1.5c-0.3,0.6-0.8,0.8-1.4,0.8c-0.4,0-0.9-0.1-1.3-0.4l-0.8-0.5l0.1-9.6
			c0.1-2.5,0.1-4.9,0.1-7.4c0-1.5-0.1-2.3-0.3-2.4c-0.3-0.2-0.6-0.2-0.6-0.2c-0.1,0-0.3,0-0.5,0c-0.5,0-0.9-0.2-1.3-0.4
			c-0.3-0.3-0.5-0.6-0.5-1C131.3,45.1,131.5,44.7,132,44.3z"/>
		<path class="st2" d="M149.2,48.2c0.7-0.7,1.8-1.1,3.3-1.1c0.6,0,1.2,0.1,1.6,0.3c0.6,0.3,1,1.1,1.3,2.4c0.2,1.1,0.4,2.9,0.7,5.4
			s0.4,4.5,0.5,5.9c0,1.3,0.1,2.8,0.3,4.4c0.1,1.6,0.3,2.5,0.4,2.7c0,0,0,0.1,0,0.2c0,0.2-0.1,0.6-0.3,0.9c-0.2,0.4-0.4,0.6-0.6,0.6
			c-0.1,0-0.2,0-0.4,0c-0.4,0-0.9-0.1-1.4-0.3c-0.5-0.2-0.8-0.4-0.9-0.6s-0.2-1-0.4-2.3c-0.1-1.3-0.2-2.4-0.2-3.2s-0.1-1.2-0.2-1.3
			c-0.1-0.1-0.8-0.1-1.9-0.1c-0.9,0-1.4,0-1.5,0.1c0,0.1,0,0.3,0,0.5c0,0.6,0,1.3,0.1,2.3c0.1,1.1,0.1,2,0.1,2.7v0.4
			c0,0.2-0.2,0.4-0.6,0.5c-0.4,0.1-0.7,0.2-1.1,0.2c-0.2,0-0.3,0-0.4,0c-1-0.3-1.5-0.7-1.6-1.2c0,0,0-0.1,0-0.2s0-0.2,0-0.3
			c0-1.2,0.1-3.7,0.4-7.6c0.3-3.9,0.5-6.1,0.6-6.7c0.2-0.8,0.5-1.6,1-2.6C148.3,49.2,148.8,48.5,149.2,48.2z M152,52.5
			c-0.2-0.8-0.4-1.2-0.6-1.2c-0.2,0-0.4,0.3-0.7,0.9c-0.5,1.1-0.9,2.7-1,4.6c-0.1,0.8-0.1,1.3-0.1,1.4c0,0.4,0.1,0.6,0.2,0.7
			c0.1,0.1,0.5,0.2,1.1,0.2c0.8,0,1.3-0.1,1.4-0.2c0.1-0.1,0.1-0.4,0.1-1.1C152.5,55.8,152.3,54,152,52.5z"/>
		<path class="st2" d="M162.7,45.4c0.2-0.2,0.5-0.4,0.8-0.4c0.2,0,0.5,0,0.6,0c0.6,0.1,1.1,0.3,1.2,0.5c0.3,0.4,0.5,3,0.5,7.6v2.5
			v2.2c0,3.7,0,5.7,0.1,6c0.1,0.5,0.6,0.7,1.4,0.7c0.4,0,0.7,0,1,0c0.2,0,0.5,0,0.8,0c0.5,0,0.9,0.1,1.1,0.2
			c0.2,0.2,0.3,0.5,0.3,0.9c0,0.3-0.1,0.5-0.2,0.7c-0.1,0.1-0.4,0.4-0.8,0.6c-0.8,0.4-1.6,0.6-2.4,0.7c-1.2,0.1-1.8,0.1-1.8,0.1
			s-0.2,0-0.3,0c-0.3,0-0.7-0.1-1.1-0.3c-0.4-0.2-0.7-0.4-1-0.7c-0.4-0.5-0.6-2-0.6-4.3c0-0.6,0-1.7,0.1-3.3c0.1-1.5,0.1-3,0.1-4.8
			c0-4.1-0.1-6.6-0.2-7.6c-0.1-0.4-0.1-0.6-0.1-0.7C162.2,46,162.4,45.7,162.7,45.4z"/>
		<path class="st2" d="M33.2,82c0.5-0.5,0.9-0.9,1.1-1c0.2-0.1,0.5-0.2,1-0.2c1.3,0,1.9,0.4,1.9,1.3c0,0.8-0.6,1.4-1.7,2
			c-0.7,0.4-1.3,1.8-1.7,4.2c-0.2,1.1-0.3,2.2-0.3,3.4c0,1.2,0.1,2.4,0.2,3.6c0.1,1.6,0.4,2.7,0.7,3.3c0.3,0.6,0.8,1,1.4,1.1
			c1.1,0.2,1.8,0.5,1.9,1c0,0.1,0,0.1,0,0.2c0,0.3-0.2,0.6-0.5,0.9s-0.7,0.5-1.1,0.6c-0.1,0-0.2,0-0.5,0c-1,0-2-0.2-2.8-0.7
			c-0.3-0.2-0.7-0.7-1.1-1.5c-0.4-0.8-0.8-1.6-1-2.4c-0.3-1.1-0.5-3.2-0.5-6c0-1.1,0.1-2.2,0.2-3.2c0.2-1.7,0.5-3,0.9-3.9
			C31.8,83.7,32.4,82.8,33.2,82z"/>
		<path class="st2" d="M44.2,80.7l0.8-1h5.2l0.8,0.8c0.5,0.5,0.9,1.2,1.1,2s0.4,2.1,0.5,3.8c0.1,0.6,0.1,1.6,0.1,2.8
			c0,2.9-0.3,5.4-0.8,7.8c-0.5,2.3-1.2,3.9-2.1,4.8c-0.3,0.3-0.7,0.5-1.2,0.7s-1,0.3-1.4,0.3c-0.2,0-0.3,0-0.4-0.1
			c-0.2-0.1-0.5-0.2-0.9-0.2c-0.3,0-0.6-0.2-1-0.7s-0.7-1-0.9-1.7c-0.4-1.1-0.7-2.3-0.8-3.6C43.1,95.1,43,93,43,90.1v-2
			c0-2.6,0.1-4.4,0.2-5.3C43.4,82.1,43.7,81.3,44.2,80.7z M48.1,82.8c-0.2-0.5-0.5-0.8-0.6-0.8c-0.2,0-0.4,0.4-0.7,1.3
			c-0.2,0.7-0.3,2-0.3,3.9c0,1.5,0.1,3.1,0.2,4.8c0.1,1.6,0.3,3.1,0.5,4.5s0.5,2.1,0.7,2.1c0.1,0,0.3-0.3,0.4-0.9
			c0.1-0.5,0.3-0.9,0.5-1.3c0.1-0.2,0.2-1.4,0.4-3.7c0.1-1.2,0.1-2.3,0.1-3.3C49.2,86.3,48.8,84.1,48.1,82.8z"/>
		<path class="st2" d="M59.2,79c0.5-0.2,1.2-0.2,1.9-0.2c0.8,0,1.5,0.1,1.8,0.2c0.7,0.3,1.3,0.9,1.7,1.7c0.2,0.4,0.3,1.1,0.5,2.2
			c0.1,1.1,0.2,2,0.2,2.9c0,0.4,0,0.7,0,0.8c-0.1,0.7-0.3,1.5-0.6,2.3c-0.3,0.9-0.5,1.3-0.7,1.3s-0.3,0.2-0.3,0.5s0.1,0.6,0.3,0.9
			c0.4,0.6,1.1,1.8,1.9,3.6c0.8,1.7,1.3,2.8,1.3,3.3c0,0.1,0,0.3,0,0.6c0,0.4-0.1,0.7-0.3,1c-0.2,0.3-0.5,0.5-0.8,0.5s-0.5,0-0.8,0
			c-0.7-0.1-1.1-0.2-1.3-0.3c-0.2-0.1-0.3-0.3-0.3-0.7c0-0.6-0.3-1.4-0.9-2.6s-1-1.7-1.3-1.7l0,0c-0.1,0.1-0.1,0.4-0.1,0.9
			c0,0.8,0.1,1.8,0.2,2.8c0.1,0.4,0.1,0.8,0.1,0.9c0,1-0.2,1.5-0.6,1.8c-0.2,0.1-0.4,0.1-0.7,0.1c-0.9,0-1.5-0.2-1.7-0.6
			c-0.1-0.2-0.2-2.1-0.3-5.7c0-1.1-0.1-2.4-0.1-3.7c0-1.3,0-2.3,0-2.9s0-1.4-0.1-2.4s-0.2-2-0.3-3.2c-0.1-1.3-0.2-2.1-0.2-2.4
			c0-0.7,0.1-1.1,0.3-1.4C58.4,79.3,58.7,79.1,59.2,79z M61.9,82.1c-0.1-0.2-0.2-0.3-0.5-0.3c-0.2,0-0.3,0.1-0.4,0.3
			c-0.1,0.2-0.1,0.4,0,0.5c0,0,0.1,0.9,0.2,2.7c0.1,1.8,0.2,2.7,0.3,2.8c0.1,0.1,0.2-0.1,0.4-0.3c0.2-0.2,0.2-0.7,0.2-1.4
			c0-0.5,0-1,0-1.4C62.1,83.3,62,82.4,61.9,82.1z"/>
		<path class="st2" d="M73.5,78.9c0.4-0.3,1-0.5,1.9-0.5h1c1.5,0.1,2.4,0.1,2.7,0.2c0.2,0.1,0.6,0.1,1.2,0.2c0.6,0,1.1,0.2,1.4,0.4
			c0.3,0.2,0.4,0.6,0.4,1.1s-0.1,0.9-0.3,1.1c-0.2,0.2-0.6,0.4-1.1,0.5c-0.6,0.1-0.9,0.2-1,0.3c-0.1,0.1-0.2,2.8-0.2,8
			c0,3.6,0,6.1,0.1,7.6c0.1,1.2,0.1,1.8,0.1,1.9c0,0.6-0.1,1.1-0.4,1.5c-0.3,0.6-0.8,0.8-1.4,0.8c-0.4,0-0.8-0.1-1.3-0.4l-0.8-0.5
			l0.1-9.6C76,89,76,86.6,76,84.1c0-1.5-0.1-2.3-0.3-2.4c-0.3-0.2-0.5-0.2-0.6-0.2s-0.3,0-0.5,0c-0.5,0-0.9-0.2-1.3-0.4
			c-0.3-0.3-0.5-0.6-0.5-1C72.8,79.7,73,79.3,73.5,78.9z"/>
		<path class="st2" d="M89.1,81.3c0.3-0.1,0.8-0.1,1.3-0.1c1.5,0,2.5,0.2,2.9,0.5c0.3,0.2,0.4,0.6,0.4,0.9c0,0.4-0.1,0.7-0.4,0.9
			s-0.6,0.4-1.1,0.4c-0.4,0-0.7,0.1-0.8,0.3c-0.1,0.2-0.2,0.7-0.2,1.4c0,0.2,0,0.9,0.1,2.1c0.1,1.4,0.1,2.3,0.2,2.7
			c0.1,0.4,0.2,0.6,0.3,0.7c0,0,0.2,0,0.5,0s0.6,0,0.8,0c0.7,0,1.2,0.2,1.5,0.5c0.2,0.2,0.3,0.4,0.3,0.6c0,0.4-0.6,0.8-1.8,1.3
			c-0.7,0.2-1.1,0.4-1.3,0.6s-0.2,0.4-0.3,0.9c-0.1,0.4-0.1,0.8-0.1,1.2c0,1.4,0.1,2.5,0.4,3.1c0.1,0.3,0.2,0.5,0.4,0.5
			c0.1,0.1,0.4,0.1,0.9,0.1c0.6,0,1.1,0.1,1.5,0.4s0.6,0.6,0.6,1c0,0.2-0.2,0.6-0.6,1c-0.7,0.6-1.8,1-3.4,1s-2.7-0.4-3.2-1.1
			c-0.3-0.4-0.4-2.8-0.5-7.2c-0.1-5.5-0.1-8.8-0.2-9.7l-0.1-3.1l0.6-0.3C88.3,81.6,88.7,81.4,89.1,81.3z"/>
		<path class="st2" d="M101.9,78.6c0.1,0,0.2-0.1,0.3-0.1c0.1,0,0.2-0.1,0.2-0.1c0.1,0,0.1,0,0.2-0.1h0.1c0.1,0,0.3,0.1,0.7,0.3
			c0.4,0.2,0.7,0.6,0.8,0.9c0.2,1.1,0.5,2.2,0.9,3.2c0.3,1,0.6,1.5,0.7,1.5c0,0,0,0,0-0.1s0.2-1,0.6-2.5c0.2-1,0.4-1.7,0.6-2
			c0.1-0.3,0.3-0.5,0.6-0.7c0.4-0.2,0.8-0.2,1.3-0.2c0.6,0,1.2,0.1,1.5,0.5c0.3,0.3,0.5,0.6,0.5,1s-0.1,1-0.4,1.8
			c-0.2,0.6-0.5,1.7-0.9,3.1c-0.4,1.5-0.8,2.7-1.1,3.7c-0.4,1.4-0.6,2.3-0.6,2.7c0,0.3,0,0.6,0.1,1c0.2,1,0.4,1.7,0.7,2.2
			c0.3,0.6,0.4,1,0.4,1.4c0,0.2,0.2,1,0.7,2.5c0.4,1.2,0.6,2,0.6,2.5c0,0.4-0.2,0.8-0.6,1.1c-0.3,0.3-0.6,0.4-1,0.4
			c-0.2,0-0.4,0-0.6,0c-0.6-0.1-1.1-0.3-1.4-0.6c-0.3-0.3-0.6-0.9-0.8-1.6c-0.2-0.6-0.3-1-0.5-1c-0.1,0-0.2,0.4-0.3,1.1
			c-0.2,1.9-0.9,2.9-2.1,2.9c-0.3,0-0.8-0.2-1.5-0.5s-1-0.6-1-0.8c0-0.5,0.7-2.9,2.2-7.2c0.2-0.5,0.4-1.3,0.6-2.6
			c0.1-0.7,0.2-1.1,0.2-1.3c0-0.4-0.1-1-0.4-1.9c-0.2-0.7-0.6-1.8-1-3.2c-0.4-1.4-0.7-2.5-0.9-3.2c-0.3-1-0.6-1.9-0.7-2.5
			c0-0.1,0-0.3,0-0.5C100.6,79.3,101,78.9,101.9,78.6z"/>
		<path class="st1" d="M32.2,126.2c-0.6-0.5-1.1-1.2-1.6-2s-0.9-1.6-1.2-2.6c-0.3-0.9-0.4-2-0.4-3.1s0.2-2.1,0.4-3.1
			c0.3-1,0.7-1.8,1.2-2.6c0.5-0.8,1-1.4,1.6-2h1.4v0.1c-1,1-1.8,2.1-2.4,3.4c-0.6,1.3-0.9,2.7-0.9,4.2s0.3,2.9,0.9,4.1
			c0.6,1.3,1.4,2.4,2.4,3.4v0.1L32.2,126.2L32.2,126.2z"/>
		<path class="st1" d="M38.1,123.9c-0.7,0-1.3-0.2-1.7-0.5s-0.6-1-0.6-1.9v-4.4h-1.4V116h1.4l0.2-1.9h1.2v1.9h2.3v1.1h-2.3v4.4
			c0,0.5,0.1,0.8,0.3,1s0.6,0.3,1.1,0.3h0.7v1.1H38.1z"/>
		<path class="st1" d="M41.2,123.9v-11.5h1.3v4.9c0.3-0.5,0.7-0.9,1.1-1.1c0.5-0.3,1-0.4,1.6-0.4c0.9,0,1.7,0.3,2.2,0.9
			s0.8,1.5,0.8,2.6v4.6h-1.3v-4.5c0-1.6-0.7-2.5-2-2.5c-0.7,0-1.3,0.2-1.7,0.7c-0.5,0.5-0.7,1.2-0.7,2.1v4.1L41.2,123.9L41.2,123.9z
			"/>
		<path class="st1" d="M53.9,124.1c-0.8,0-1.4-0.2-2-0.5c-0.6-0.4-1.1-0.8-1.4-1.5c-0.3-0.6-0.5-1.3-0.5-2.2c0-0.8,0.2-1.6,0.5-2.2
			s0.8-1.1,1.4-1.5s1.3-0.5,2.1-0.5s1.4,0.2,2,0.5c0.6,0.4,1,0.8,1.3,1.4s0.4,1.2,0.4,1.8c0,0.1,0,0.2,0,0.4s0,0.2,0,0.4h-6.4
			c0,0.6,0.2,1.1,0.4,1.5s0.6,0.7,0.9,0.9c0.4,0.2,0.8,0.3,1.2,0.3c0.6,0,1-0.1,1.4-0.4c0.4-0.2,0.6-0.6,0.8-1h1.3
			c-0.2,0.7-0.6,1.3-1.2,1.8C55.6,123.8,54.8,124.1,53.9,124.1z M53.9,116.9c-0.6,0-1.2,0.2-1.7,0.6s-0.8,1-0.9,1.7h5
			c0-0.7-0.3-1.3-0.7-1.7C55.1,117.1,54.6,116.9,53.9,116.9z"/>
		<path class="st1" d="M63.7,123.9V116h1.2l0.1,1.5c0.2-0.5,0.6-0.9,1.1-1.2s1.1-0.5,1.9-0.5v1.4h-0.4c-0.5,0-0.9,0.1-1.3,0.2
			c-0.4,0.2-0.7,0.5-0.9,0.8c-0.2,0.4-0.3,0.9-0.3,1.6v4h-1.4L63.7,123.9L63.7,123.9z"/>
		<path class="st1" d="M72.1,124.1c-0.7,0-1.2-0.1-1.6-0.3c-0.4-0.2-0.8-0.5-1-0.9s-0.3-0.8-0.3-1.2c0-0.8,0.3-1.4,0.9-1.9
			s1.5-0.7,2.5-0.7h2.1V119c0-0.7-0.2-1.2-0.5-1.6c-0.4-0.4-0.8-0.5-1.5-0.5c-0.5,0-1,0.1-1.3,0.4c-0.4,0.3-0.6,0.6-0.7,1.1h-1.4
			c0.1-0.6,0.2-1.1,0.6-1.5c0.3-0.4,0.8-0.7,1.3-0.9c0.5-0.2,1-0.3,1.6-0.3c1.1,0,1.9,0.3,2.5,0.9s0.8,1.4,0.8,2.4v4.9h-1.2
			l-0.1-1.4c-0.2,0.4-0.5,0.8-1,1.1C73.4,123.9,72.8,124.1,72.1,124.1z M72.3,122.9c0.5,0,1-0.1,1.3-0.4c0.4-0.3,0.7-0.6,0.8-1
			s0.3-0.9,0.3-1.3l0,0h-2c-0.8,0-1.4,0.1-1.7,0.4c-0.3,0.3-0.5,0.6-0.5,1s0.2,0.8,0.5,1C71.3,122.8,71.8,122.9,72.3,122.9z"/>
		<path class="st1" d="M81,123.9c-0.7,0-1.3-0.2-1.7-0.5c-0.4-0.3-0.6-1-0.6-1.9v-4.4h-1.4V116h1.4l0.2-1.9h1.2v1.9h2.3v1.1h-2.3
			v4.4c0,0.5,0.1,0.8,0.3,1c0.2,0.2,0.6,0.3,1.1,0.3h0.8v1.1H81z"/>
		<path class="st1" d="M84.9,114.2c-0.3,0-0.5-0.1-0.7-0.3c-0.2-0.2-0.3-0.4-0.3-0.7c0-0.3,0.1-0.5,0.3-0.6c0.2-0.2,0.4-0.3,0.7-0.3
			s0.5,0.1,0.7,0.3c0.2,0.2,0.3,0.4,0.3,0.6c0,0.3-0.1,0.5-0.3,0.7C85.4,114.1,85.2,114.2,84.9,114.2z M84.2,123.9V116h1.3v7.9H84.2
			z"/>
		<path class="st1" d="M91.5,124.1c-0.8,0-1.4-0.2-2-0.5s-1.1-0.8-1.4-1.5c-0.3-0.6-0.5-1.4-0.5-2.2c0-0.8,0.2-1.6,0.5-2.2
			s0.8-1.1,1.4-1.5c0.6-0.3,1.3-0.5,2-0.5s1.4,0.2,2,0.5s1.1,0.8,1.4,1.5c0.3,0.6,0.5,1.4,0.5,2.2c0,0.8-0.2,1.6-0.5,2.2
			s-0.8,1.1-1.4,1.5C93,123.9,92.3,124.1,91.5,124.1z M91.5,122.9c0.5,0,0.9-0.1,1.3-0.3c0.4-0.2,0.7-0.6,1-1c0.2-0.4,0.4-1,0.4-1.7
			s-0.1-1.2-0.4-1.7c-0.2-0.4-0.6-0.8-1-1s-0.8-0.3-1.3-0.3s-0.9,0.1-1.3,0.3c-0.4,0.2-0.7,0.6-1,1c-0.2,0.4-0.4,1-0.4,1.7
			s0.1,1.2,0.4,1.7s0.6,0.8,1,1C90.7,122.8,91.1,122.9,91.5,122.9z"/>
		<path class="st1" d="M97.4,123.9V116h1.2l0.1,1.4c0.3-0.5,0.6-0.9,1.1-1.2c0.5-0.3,1-0.4,1.6-0.4c0.9,0,1.7,0.3,2.2,0.9
			s0.8,1.5,0.8,2.6v4.6h-1.3v-4.5c0-1.6-0.7-2.5-2.1-2.5c-0.7,0-1.2,0.2-1.7,0.7s-0.7,1.2-0.7,2.1v4.1L97.4,123.9L97.4,123.9z"/>
		<path class="st1" d="M109.2,124.1c-0.7,0-1.2-0.1-1.7-0.3c-0.4-0.2-0.8-0.5-1-0.9s-0.3-0.8-0.3-1.2c0-0.8,0.3-1.4,0.9-1.9
			s1.5-0.7,2.5-0.7h2.1V119c0-0.7-0.2-1.2-0.5-1.6c-0.4-0.4-0.9-0.5-1.5-0.5c-0.5,0-1,0.1-1.4,0.4s-0.6,0.6-0.7,1.1h-1.4
			c0.1-0.6,0.2-1.1,0.6-1.5c0.3-0.4,0.8-0.7,1.3-0.9c0.5-0.2,1-0.3,1.6-0.3c1.1,0,1.9,0.3,2.5,0.9s0.8,1.4,0.8,2.4v4.9h-1.2
			l-0.1-1.4c-0.2,0.4-0.6,0.8-1,1.1C110.5,123.9,109.9,124.1,109.2,124.1z M109.4,122.9c0.5,0,0.9-0.1,1.3-0.4s0.6-0.6,0.8-1
			s0.3-0.9,0.3-1.3l0,0h-2c-0.8,0-1.3,0.1-1.7,0.4c-0.3,0.3-0.5,0.6-0.5,1s0.1,0.8,0.5,1C108.4,122.8,108.8,122.9,109.4,122.9z"/>
		<path class="st1" d="M115.2,123.9v-11.5h1.3v11.5H115.2z"/>
		<path class="st1" d="M123,127.4v-11.5h1.2l0.1,1.3c0.3-0.4,0.6-0.7,1.1-1s1.1-0.5,1.8-0.5c0.8,0,1.5,0.2,2.1,0.5
			c0.6,0.4,1,0.9,1.4,1.5c0.3,0.6,0.5,1.3,0.5,2.1c0,0.8-0.2,1.5-0.5,2.1s-0.8,1.1-1.4,1.5c-0.6,0.4-1.3,0.5-2.1,0.5
			c-0.7,0-1.2-0.1-1.7-0.4s-0.9-0.6-1.2-1.1v4.9H123L123,127.4L123,127.4z M127.1,122.9c0.5,0,1-0.1,1.4-0.4s0.7-0.6,1-1
			c0.2-0.5,0.3-1,0.3-1.6s-0.1-1.1-0.3-1.6s-0.6-0.8-1-1s-0.9-0.4-1.4-0.4s-1,0.1-1.4,0.4c-0.4,0.2-0.7,0.6-1,1s-0.3,1-0.3,1.6
			s0.1,1.1,0.3,1.6c0.2,0.4,0.6,0.8,1,1C126.1,122.8,126.5,122.9,127.1,122.9z"/>
		<path class="st1" d="M135.7,124.1c-0.7,0-1.2-0.1-1.7-0.3c-0.4-0.2-0.8-0.5-1-0.9s-0.3-0.8-0.3-1.2c0-0.8,0.3-1.4,0.9-1.9
			s1.5-0.7,2.5-0.7h2.1V119c0-0.7-0.2-1.2-0.5-1.6c-0.4-0.4-0.9-0.5-1.5-0.5c-0.5,0-1,0.1-1.4,0.4s-0.6,0.6-0.7,1.1h-1.4
			c0.1-0.6,0.2-1.1,0.6-1.5c0.3-0.4,0.8-0.7,1.3-0.9c0.5-0.2,1-0.3,1.6-0.3c1.1,0,1.9,0.3,2.5,0.9s0.8,1.4,0.8,2.4v4.9h-1.2
			l-0.1-1.4c-0.2,0.4-0.6,0.8-1,1.1C137,123.9,136.4,124.1,135.7,124.1z M135.9,122.9c0.5,0,0.9-0.1,1.3-0.4c0.4-0.3,0.6-0.6,0.8-1
			s0.3-0.9,0.3-1.3l0,0h-2c-0.8,0-1.4,0.1-1.7,0.4s-0.5,0.6-0.5,1s0.2,0.8,0.5,1C134.9,122.8,135.3,122.9,135.9,122.9z"/>
		<path class="st1" d="M141.7,123.9V116h1.2l0.1,1.5c0.2-0.5,0.6-0.9,1.1-1.2s1.1-0.5,1.9-0.5v1.4h-0.4c-0.5,0-0.9,0.1-1.3,0.2
			c-0.4,0.2-0.7,0.5-0.9,0.8c-0.2,0.4-0.3,0.9-0.3,1.6v4h-1.4L141.7,123.9L141.7,123.9z"/>
		<path class="st1" d="M150.6,123.9c-0.7,0-1.3-0.2-1.7-0.5s-0.6-1-0.6-1.9v-4.4h-1.4V116h1.4l0.2-1.9h1.2v1.9h2.3v1.1h-2.3v4.4
			c0,0.5,0.1,0.8,0.3,1s0.6,0.3,1.1,0.3h0.8v1.1H150.6z"/>
		<path class="st1" d="M153.2,126.2v-0.1c1-1,1.8-2.1,2.4-3.4c0.6-1.3,0.9-2.7,0.9-4.1s-0.3-2.9-0.9-4.1c-0.6-1.3-1.4-2.4-2.3-3.4
			V111h1.4c0.6,0.5,1.1,1.2,1.6,2s0.9,1.6,1.2,2.6c0.3,0.9,0.4,2,0.4,3.1s-0.2,2.1-0.4,3.1c-0.3,1-0.7,1.8-1.2,2.6
			c-0.5,0.8-1,1.4-1.6,2L153.2,126.2L153.2,126.2z"/>
		<path class="st1" d="M30.1,134.2c-0.3,0-0.5-0.1-0.7-0.3c-0.2-0.2-0.3-0.4-0.3-0.7c0-0.3,0.1-0.5,0.3-0.6c0.2-0.2,0.4-0.3,0.7-0.3
			s0.5,0.1,0.7,0.3c0.2,0.2,0.3,0.4,0.3,0.6c0,0.3-0.1,0.5-0.3,0.7S30.4,134.2,30.1,134.2z M29.4,143.9V136h1.3v7.9H29.4z"/>
		<path class="st1" d="M36.2,144.1c-1,0-1.7-0.2-2.4-0.7c-0.6-0.5-1-1.1-1.1-1.9h1.4c0.1,0.4,0.3,0.8,0.7,1.1
			c0.4,0.3,0.8,0.5,1.5,0.5c0.6,0,1-0.1,1.2-0.4s0.4-0.5,0.4-0.9c0-0.5-0.2-0.8-0.5-1s-0.8-0.3-1.5-0.4c-0.4-0.1-0.8-0.2-1.3-0.4
			s-0.8-0.4-1.1-0.7c-0.3-0.3-0.4-0.7-0.4-1.2c0-0.7,0.3-1.3,0.8-1.7s1.2-0.7,2.1-0.7c0.8,0,1.5,0.2,2.1,0.6c0.5,0.4,0.8,1,0.9,1.8
			h-1.3c-0.1-0.4-0.2-0.7-0.5-1c-0.3-0.2-0.7-0.3-1.2-0.3s-0.9,0.1-1.1,0.3c-0.3,0.2-0.4,0.5-0.4,0.8s0.2,0.6,0.5,0.8
			c0.3,0.2,0.8,0.3,1.4,0.5c0.5,0.1,1,0.2,1.4,0.4c0.4,0.2,0.8,0.4,1.1,0.7c0.3,0.3,0.4,0.7,0.4,1.3c0,0.7-0.3,1.3-0.8,1.8
			C37.8,143.8,37.1,144.1,36.2,144.1z"/>
		<path class="st1" d="M45.4,143.9v-11.5h1.3v11.5H45.4z"/>
		<path class="st1" d="M52.5,144.1c-0.8,0-1.4-0.2-2-0.5c-0.6-0.4-1.1-0.8-1.4-1.5c-0.3-0.6-0.5-1.3-0.5-2.2c0-0.8,0.2-1.6,0.5-2.2
			s0.8-1.1,1.4-1.5s1.3-0.5,2.1-0.5s1.4,0.2,2,0.5s1,0.8,1.3,1.4s0.4,1.2,0.4,1.8c0,0.1,0,0.2,0,0.4c0,0.1,0,0.2,0,0.4H50
			c0,0.6,0.2,1.1,0.4,1.5s0.6,0.7,0.9,0.9c0.4,0.2,0.8,0.3,1.2,0.3c0.6,0,1-0.1,1.4-0.4s0.7-0.6,0.8-1H56c-0.2,0.7-0.6,1.3-1.2,1.8
			C54.2,143.8,53.4,144.1,52.5,144.1z M52.5,136.9c-0.6,0-1.2,0.2-1.7,0.6s-0.8,1-0.9,1.7h5c0-0.7-0.3-1.3-0.7-1.7
			C53.7,137.1,53.1,136.9,52.5,136.9z"/>
		<path class="st1" d="M61.1,144.1c-0.9,0-1.7-0.2-2.4-0.7c-0.6-0.5-1-1.1-1.1-1.9H59c0.1,0.4,0.3,0.8,0.7,1.1
			c0.4,0.3,0.8,0.5,1.4,0.5s1-0.1,1.2-0.4c0.3-0.2,0.4-0.5,0.4-0.9c0-0.5-0.2-0.8-0.5-1s-0.8-0.3-1.5-0.4c-0.4-0.1-0.9-0.2-1.3-0.4
			c-0.4-0.2-0.8-0.4-1.1-0.7c-0.3-0.3-0.4-0.7-0.4-1.2c0-0.7,0.3-1.3,0.8-1.7c0.5-0.4,1.2-0.7,2.1-0.7c0.8,0,1.5,0.2,2.1,0.6
			c0.5,0.4,0.8,1,0.9,1.8h-1.3c-0.1-0.4-0.2-0.7-0.5-1c-0.3-0.2-0.7-0.3-1.2-0.3s-0.8,0.1-1.1,0.3c-0.3,0.2-0.4,0.5-0.4,0.8
			s0.2,0.6,0.5,0.8c0.3,0.2,0.8,0.3,1.4,0.5c0.5,0.1,1,0.2,1.4,0.4c0.4,0.2,0.8,0.4,1.1,0.7c0.3,0.3,0.4,0.7,0.4,1.3
			c0,0.7-0.3,1.3-0.8,1.8C62.7,143.8,62,144.1,61.1,144.1z"/>
		<path class="st1" d="M69.1,144.1c-0.9,0-1.7-0.2-2.4-0.7c-0.6-0.5-1-1.1-1.1-1.9H67c0.1,0.4,0.3,0.8,0.7,1.1
			c0.4,0.3,0.8,0.5,1.4,0.5s1-0.1,1.2-0.4c0.3-0.2,0.4-0.5,0.4-0.9c0-0.5-0.2-0.8-0.5-1s-0.8-0.3-1.5-0.4c-0.4-0.1-0.9-0.2-1.3-0.4
			c-0.4-0.2-0.8-0.4-1.1-0.7c-0.3-0.3-0.4-0.7-0.4-1.2c0-0.7,0.3-1.3,0.8-1.7c0.5-0.4,1.2-0.7,2.1-0.7c0.8,0,1.5,0.2,2.1,0.6
			c0.5,0.4,0.8,1,0.9,1.8h-1.3c-0.1-0.4-0.2-0.7-0.5-1c-0.3-0.2-0.7-0.3-1.2-0.3s-0.8,0.1-1.1,0.3c-0.3,0.2-0.4,0.5-0.4,0.8
			s0.2,0.6,0.5,0.8c0.3,0.2,0.8,0.3,1.4,0.5c0.5,0.1,1,0.2,1.4,0.4c0.4,0.2,0.8,0.4,1.1,0.7c0.3,0.3,0.4,0.7,0.4,1.3
			c0,0.7-0.3,1.3-0.8,1.8C70.7,143.8,70,144.1,69.1,144.1z"/>
		<path class="st1" d="M80.9,144.1c-0.7,0-1.2-0.1-1.6-0.3c-0.4-0.2-0.8-0.5-1-0.9s-0.3-0.8-0.3-1.2c0-0.8,0.3-1.4,0.9-1.9
			s1.5-0.7,2.5-0.7h2.1V139c0-0.7-0.2-1.2-0.5-1.6c-0.4-0.4-0.8-0.5-1.5-0.5c-0.5,0-1,0.1-1.3,0.4c-0.4,0.3-0.6,0.6-0.7,1.1h-1.4
			c0-0.6,0.2-1.1,0.6-1.5c0.3-0.4,0.8-0.7,1.3-0.9c0.5-0.2,1-0.3,1.6-0.3c1.1,0,1.9,0.3,2.5,0.9s0.8,1.4,0.8,2.4v4.9h-1.2l-0.1-1.4
			c-0.2,0.4-0.6,0.8-1,1.1S81.6,144.1,80.9,144.1z M81.1,142.9c0.5,0,0.9-0.1,1.3-0.4s0.6-0.6,0.8-1s0.3-0.9,0.3-1.3l0,0h-2
			c-0.8,0-1.3,0.1-1.7,0.4c-0.3,0.3-0.5,0.6-0.5,1s0.2,0.8,0.5,1C80.1,142.8,80.5,142.9,81.1,142.9z"/>
		<path class="st1" d="M90.6,144.1c-0.8,0-1.4-0.2-2-0.5s-1.1-0.8-1.4-1.5c-0.4-0.6-0.5-1.4-0.5-2.2c0-0.8,0.2-1.6,0.5-2.2
			s0.8-1.1,1.4-1.5s1.3-0.5,2-0.5c0.9,0,1.7,0.2,2.4,0.7s1.1,1.1,1.2,2h-1.4c-0.1-0.5-0.4-0.9-0.8-1.1c-0.4-0.3-0.9-0.4-1.5-0.4
			c-0.4,0-0.9,0.1-1.3,0.3c-0.4,0.2-0.7,0.6-1,1c-0.2,0.5-0.4,1-0.4,1.7s0.1,1.2,0.4,1.7s0.6,0.8,1,1s0.8,0.3,1.3,0.3
			c0.6,0,1-0.1,1.5-0.4c0.4-0.3,0.7-0.7,0.8-1.2h1.4c-0.2,0.8-0.6,1.4-1.2,1.9S91.5,144.1,90.6,144.1z"/>
		<path class="st1" d="M98.9,143.9c-0.7,0-1.3-0.2-1.7-0.5c-0.4-0.3-0.6-1-0.6-1.9v-4.4h-1.4V136h1.4l0.2-1.9H98v1.9h2.3v1.1H98v4.4
			c0,0.5,0.1,0.8,0.3,1c0.2,0.2,0.6,0.3,1.1,0.3h0.8v1.1H98.9z"/>
		<path class="st1" d="M102.8,134.2c-0.3,0-0.5-0.1-0.7-0.3c-0.2-0.2-0.3-0.4-0.3-0.7c0-0.3,0.1-0.5,0.3-0.6
			c0.2-0.2,0.4-0.3,0.7-0.3c0.3,0,0.5,0.1,0.7,0.3c0.2,0.2,0.3,0.4,0.3,0.6c0,0.3-0.1,0.5-0.3,0.7
			C103.3,134.1,103.1,134.2,102.8,134.2z M102.1,143.9V136h1.3v7.9H102.1z"/>
		<path class="st1" d="M108.1,143.9l-3-7.9h1.4l2.4,6.6l2.4-6.6h1.4l-3,7.9H108.1z"/>
		<path class="st1" d="M117.3,144.1c-0.8,0-1.4-0.2-2-0.5c-0.6-0.4-1-0.8-1.4-1.5c-0.3-0.6-0.5-1.3-0.5-2.2c0-0.8,0.2-1.6,0.5-2.2
			s0.8-1.1,1.4-1.5s1.3-0.5,2.1-0.5s1.4,0.2,2,0.5s1,0.8,1.3,1.4s0.4,1.2,0.4,1.8c0,0.1,0,0.2,0,0.4c0,0.1,0,0.2,0,0.4h-6.3
			c0,0.6,0.2,1.1,0.4,1.5s0.6,0.7,0.9,0.9c0.4,0.2,0.8,0.3,1.2,0.3c0.6,0,1-0.1,1.4-0.4s0.7-0.6,0.8-1h1.3c-0.2,0.7-0.6,1.3-1.2,1.8
			C119,143.8,118.3,144.1,117.3,144.1z M117.3,136.9c-0.6,0-1.2,0.2-1.7,0.6s-0.8,1-0.9,1.7h5c0-0.7-0.3-1.3-0.7-1.7
			C118.6,137.1,118,136.9,117.3,136.9z"/>
		<path class="st1" d="M123.3,144c-0.3,0-0.5-0.1-0.7-0.3c-0.2-0.2-0.3-0.4-0.3-0.6s0.1-0.5,0.3-0.6s0.4-0.3,0.7-0.3
			c0.3,0,0.5,0.1,0.6,0.3c0.2,0.2,0.3,0.4,0.3,0.6s-0.1,0.5-0.3,0.6C123.8,143.9,123.6,144,123.3,144z"/>
		<path class="st3" d="M181.6,78.5c0,10.3,8.3,18.6,18.6,18.6c0.4,0,11,0,14.2,0c0.9,9.4,8.9,16.8,18.5,16.8c2.3,0,4.5-0.4,6.5-1.2
			l17,15.8c2.8,2.6,7.4,0.6,7.4-3.2h6.1c6.4,0,11.5-5.1,11.6-11.5h-12.4c-1.2,0-2.1-1.1-1.9-2.3c0.2-0.9,1-1.5,1.9-1.5h19.8
			c8.4-0.5,15-7.4,15-15.9c0-8.2-6.2-14.9-14.1-15.8c-1-0.1-1.7-0.9-1.7-1.9c0-1.1,1-2,2.1-1.9c3.2,0.4,6.2,1.5,8.8,3.2
			c1-2.2,1.6-4.6,1.6-7.1c0-8.1-5.8-14.9-13.5-16.4c-1.7-7.7-8.6-13.4-16.8-13.4c-1.5,0-2.9,0.2-4.2,0.5c-4.1,1.2-7.7,4.1-9.8,8.1
			c-0.3,0.6-1,1-1.7,1c-0.3,0-0.6-0.1-0.9-0.2c-0.9-0.5-1.3-1.6-0.8-2.6c1.8-3.5,4.6-6.2,7.8-8.1c-3.1-2.5-7-4.1-11.3-4.1
			c-5.2,0-9.8,2.2-13,5.7c-2.6-1.8-5.8-2.8-9.2-2.8h-0.1c-9.1,0-16.5,7.4-16.5,16.5c0,1.1-0.9,1.9-1.9,1.9c-1.1,0-1.9-0.9-1.9-1.9
			c0-3.7,1-7.2,2.8-10.3l0,0c-9-0.5-16.5,6-17.6,14.6C183.6,65.5,181.6,71.5,181.6,78.5z M253.6,95.1c2-3.8,6.1-5.2,8.9-5.7
			c-0.7-1.8-1.1-3.8-1.1-5.9c0-1.1,0.9-1.9,1.9-1.9s1.9,0.9,1.9,1.9c0,6.7,5.5,12.1,12.2,12.1c1.1,0,1.9,0.9,1.9,1.9
			c0,1.1-0.9,1.9-1.9,1.9c-5.3,0-10-2.6-12.9-6.5c-1.7,0.2-5.9,1-7.4,3.9c-0.3,0.6-1,1-1.7,1c-0.3,0-0.6-0.1-0.9-0.2
			C253.5,97.2,253.1,96,253.6,95.1z M230.7,71.3c-3.3-2.2-5.4-5.8-5.8-9.8c-0.1-1.1,0.8-2.1,2-2.1c1,0,1.8,0.9,1.9,1.8
			c0.3,3,2,5.7,4.6,7.2c1.9-1.6,4.3-2.6,6.9-3c0.4-0.1,0.8-0.1,1.3-0.1c-1.7-2.8-2.5-6-2.2-9.4c0.1-1.1,1-1.8,2.1-1.7
			c1,0.1,1.8,1,1.7,2.1c-0.4,4.2,1.5,8.2,5.1,10.5c0,0,4.3,2.5,8.4,1.5c2.9-0.7,5.4-2.3,7-4.8c0.5-0.8,1.6-1.2,2.5-0.8
			c1,0.5,1.4,1.8,0.8,2.8c-2.2,3.4-5.5,5.7-9.4,6.6c-1.1,0.2-2.2,0.4-3.2,0.4c-3.6,0-6.6-1.5-7.5-2c-0.2-0.1-0.4-0.2-0.6-0.3
			c-1.7-0.8-3.5-1-5.4-0.8c-2.6,0.3-4.9,1.7-6.5,3.8c-1.3,1.6-2,3.6-2,5.6c0,1-0.7,1.8-1.7,1.9c-1.2,0.1-2.2-0.8-2.2-2
			C228.5,76,229.3,73.5,230.7,71.3z"/>
		<path class="st4" d="M208.9,56.9c-1.1,0-1.9-0.9-1.9-1.9c0-3.7,1-7.2,2.8-10.3l0,0c-9-0.6-16.5,6-17.6,14.5
			c-8.6,6.2-10.6,12.2-10.6,19.2c0,10.3,8.3,18.6,18.6,18.6c0.3,0,9.9,0,14.3,0C234.4,96.1,221,56.9,208.9,56.9z"/>
		<path class="st0" d="M199.6,69.4c1.1,0,1.9,0.9,1.9,1.9c0,6.7,5.4,12.1,12.2,12.1c1.1,0,1.9,0.9,1.9,1.9c0,1.1-0.9,1.9-1.9,1.9
			c-8.8,0-16-7.2-16-16C197.7,70.3,198.5,69.4,199.6,69.4z"/>
	</g>
</g>
</svg>
