<?xml version="1.0" encoding="utf-8"?>
<!-- Generator: Adobe Illustrator 25.1.0, SVG Export Plug-In . SVG Version: 6.00 Build 0)  -->
<svg version="1.1" id="Layer_1" xmlns="http://www.w3.org/2000/svg" xmlns:xlink="http://www.w3.org/1999/xlink" x="0px" y="0px"
	 viewBox="0 0 330.8 174" style="enable-background:new 0 0 330.8 174;" xml:space="preserve">
<style type="text/css">
	.st0{fill:#FFFFFF;}
	.st1{fill:#FF9F1A;}
	.st2{fill:#808080;}
	.st3{fill:#EEF1F2;}
	.st4{fill:#FF9F1A;stroke:#FFFFFF;stroke-width:1.7346;stroke-miterlimit:10;}
</style>
<g>
	<g>
		<path class="st0" d="M330.8,122.2c0-119.9-7.6-121.3-139-122.2c-28.3-0.2-71.2,0.3-105.9,0.8c-34.1,0.5-68.7,4-73.8,15.4
			C4,34,0.5,67.5,0.5,100.2c0,51.4-6.6,63.6,28.4,70.1c35.6,6.6,166.4,2.5,209.3,1.7C282.5,171,330.8,174.5,330.8,122.2z"/>
		<path class="st1" d="M35.7,54.5c0.7-0.7,1.8-1.1,3.3-1.1c0.6,0,1.2,0.1,1.6,0.3c0.6,0.3,1,1.1,1.3,2.3c0.2,1.1,0.4,2.9,0.7,5.4
			s0.4,4.5,0.5,5.9c0,1.3,0.1,2.8,0.3,4.4s0.3,2.5,0.4,2.7c0,0,0,0.1,0,0.2c0,0.2-0.1,0.6-0.3,0.9c-0.2,0.4-0.4,0.6-0.6,0.6
			c-0.1,0-0.2,0-0.4,0c-0.4,0-0.9-0.1-1.4-0.3s-0.8-0.4-0.9-0.6c-0.1-0.2-0.2-1-0.4-2.3s-0.2-2.4-0.2-3.2s-0.1-1.2-0.2-1.3
			s-0.8-0.1-1.9-0.1c-1,0-1.4,0-1.5,0.1c0,0.1,0,0.3,0,0.5c0,0.6,0,1.3,0.1,2.3c0.1,1.1,0.1,2,0.1,2.7v0.4c0,0.2-0.2,0.4-0.6,0.5
			c-0.4,0.1-0.7,0.2-1.1,0.2c-0.2,0-0.3,0-0.4,0c-0.9-0.3-1.5-0.7-1.6-1.2c0,0,0-0.1,0-0.2s0-0.2,0-0.3c0-1.2,0.1-3.7,0.4-7.6
			c0.3-3.9,0.5-6.1,0.6-6.7c0.2-0.8,0.5-1.6,1-2.6C34.9,55.5,35.3,54.8,35.7,54.5z M38.5,58.8c-0.2-0.8-0.4-1.2-0.6-1.2
			c-0.2,0-0.4,0.3-0.7,0.9c-0.5,1.1-0.9,2.7-1,4.6c-0.1,0.8-0.1,1.3-0.1,1.4c0,0.4,0.1,0.6,0.2,0.7c0.1,0.1,0.5,0.2,1.1,0.2
			c0.8,0,1.3-0.1,1.4-0.2c0.1-0.1,0.1-0.4,0.1-1.1C39,62.1,38.8,60.3,38.5,58.8z"/>
		<path class="st1" d="M59.3,52.4c0.4-0.1,0.7-0.2,1-0.2c0.7,0,1.2,0.2,1.6,0.8c0.2,0.3,0.4,1.5,0.7,3.6c0.2,2.1,0.4,4.4,0.5,6.8
			c0,0.8,0.1,1.9,0.2,3.4s0.1,2.7,0.2,3.8s0.1,1.9,0.1,2.5c0,0.4-0.2,0.7-0.6,0.9s-0.9,0.4-1.3,0.4s-0.7-0.1-0.9-0.2l-0.5-0.4
			l-0.1-5.1C60,62.9,59.8,60,59.4,60c-0.2,0-0.5,0.7-1,2.2c-0.2,0.8-0.5,1.4-0.8,1.7c-0.3,0.3-0.6,0.5-1,0.5c-0.3,0-0.7-0.1-1.1-0.2
			c-0.5-0.2-0.9-0.6-1.2-1.3s-0.5-1.1-0.5-1.2c0-0.1-0.1-0.3-0.2-0.6s-0.3-0.6-0.5-0.8S52.8,60,52.8,60v0.5c0,1.2,0,3,0.1,5.4
			l0.2,5.8l-0.5,0.9C52,73.5,51.5,74,51,74c-0.3,0-0.5-0.2-0.8-0.6c-0.2-0.3-0.4-0.8-0.4-1.5c-0.1-0.7-0.1-2.8-0.2-6.3
			c-0.2-6.5-0.3-10.2-0.5-11.1c0-0.1,0-0.3,0-0.5c0-0.3,0.2-0.6,0.5-0.9c0.3-0.3,0.7-0.5,1.2-0.5s1,0.1,1.6,0.4c0.6,0.2,1,0.6,1.3,1
			s1,1.7,2.1,3.7c0.3,0.5,0.5,0.8,0.7,0.8c0.1,0,0.3-0.2,0.4-0.6c0.1-0.5,0.4-1,0.7-1.7c0.4-0.8,0.6-1.3,0.6-1.4
			c0-0.2,0.2-0.7,0.6-1.3C58.9,52.8,59.1,52.5,59.3,52.4z"/>
		<path class="st1" d="M70.5,51.1c0.4-0.2,0.8-0.2,1.1-0.2c0.4,0,0.8,0.2,1.1,0.5c0.3,0.4,0.5,1.1,0.6,2.1c0.1,2,0.5,3.7,1.1,5.3
			c0.2,0.5,0.3,0.9,0.3,1.2c0,0.1,0,0.2,0.1,0.2c0,0.1,0.1,0.1,0.2,0c0.2-0.1,0.3-0.5,0.3-1.3s0-1.2,0.1-1.3s0.1-0.9,0.2-2.6
			c0.1-1.7,0.1-2.8,0.1-3.2c0-0.2,0.3-0.4,0.9-0.7c0.6-0.2,1.1-0.4,1.5-0.4c0.6,0,1.1,0.2,1.3,0.6c0.2,0.3,0.4,0.7,0.4,1.1
			c0,0.3-0.1,1.8-0.4,4.4c-0.1,0.5-0.2,2-0.3,4.5c-0.1,1.9-0.5,4.1-1.2,6.7c-0.3,1.3-0.7,2.4-1,3.1s-0.8,1.4-1.5,2.1
			c-0.3,0.4-0.6,0.6-0.8,0.6c-0.2,0-0.3,0.1-0.5,0.5c-0.1,0.3-0.5,0.5-1,0.7s-1.1,0.3-1.7,0.3c-0.4,0-1-0.2-1.6-0.5
			s-0.9-0.6-0.9-0.8c0-0.3,0.2-0.7,0.5-1c0.3-0.4,0.7-0.7,1.2-0.9c0.8-0.4,1.5-0.9,2-1.6s1-1.7,1.4-3c0.5-1.5,0.7-2.4,0.7-2.8
			c0-0.3-0.2-0.6-0.7-0.7c-1.2-0.5-2-1.1-2.4-1.8c-0.2-0.4-0.6-2.2-1.3-5.4c-0.4-1.6-0.6-2.8-0.6-3.7C69.5,52.1,69.9,51.5,70.5,51.1
			z"/>
		<path class="st1" d="M86.7,54c0-0.2,0.2-0.4,0.4-0.6c0.3-0.2,0.6-0.4,1-0.5c0.4-0.2,0.6-0.3,0.7-0.4c0.1-0.2,0.3-0.2,0.5-0.2
			s0.6,0.2,1.3,0.6c0.6,0.4,1,0.8,1.1,1.2c0,0.1,0,0.2,0,0.2c0,0.3-0.4,0.6-1.2,0.9c-0.8,0.4-1.4,0.8-1.6,1.2
			c-0.4,0.8-0.6,2.9-0.6,6.1c0,1.1,0,1.9,0.1,2.4c0.3,3.7,0.6,5.7,0.8,6.1l0,0c0.2,0,0.4-1,0.4-3.1c0.1-1.1,0.1-1.9,0.2-2.3
			c0.1-0.5,0.1-0.9-0.2-1.2c-0.3-0.4-0.5-0.8-0.5-1.1c0-0.2,0.1-0.5,0.3-0.8c0.3-0.3,0.9-0.5,1.9-0.5c0.6,0,1.1,0,1.3,0.1
			c0.2,0.1,0.4,0.2,0.6,0.4c0.2,0.3,0.4,0.7,0.4,1.2c0,0.5-0.1,1-0.2,1.6c-0.2,1-0.3,2.4-0.4,4.1c-0.1,2-0.4,3.3-0.7,3.9
			c-0.4,0.7-0.7,1.2-0.9,1.4c-0.3,0.2-0.7,0.5-1.4,0.6c-0.4,0.1-0.8,0.2-1.2,0.2c-0.5,0-1-0.2-1.6-0.7c-0.7-0.5-1.3-1.9-1.7-4
			c-0.1-0.4-0.2-0.8-0.3-1c-0.1-0.1-0.1-0.5-0.2-1.2c0-0.4-0.1-2.2-0.2-5.6l-0.2-4.6l0.6-1.9c0.4-1.2,0.7-2,0.9-2.3
			C86.6,54.3,86.7,54.1,86.7,54z"/>
		<path class="st1" d="M99.7,53c0.1,0,0.8,0,2.1,0c1.5,0,2.6,0.3,3.3,0.9c0.7,0.6,1.3,1.7,1.8,3.3c0.4,1.5,0.7,3.2,0.7,5.2
			c0,0.4,0,0.9-0.1,1.4c-0.1,0.4-0.2,1.1-0.3,1.9s-0.2,1.6-0.3,2.2c-0.1,0.7-0.2,1.1-0.4,1.4c-0.1,0.2-0.2,0.5-0.2,0.8
			c0,0.2-0.1,0.6-0.4,1.2s-0.5,1-0.7,1.3c-0.3,0.4-0.8,0.8-1.5,1.1c-0.6,0.3-1.3,0.5-1.9,0.6c-0.5,0.1-0.8,0.1-0.9,0.1
			c-0.3,0-0.7-0.1-1-0.5l-0.6-0.6v-7.1v-2.1c0-3.5,0-5.4-0.1-5.8C99,57.2,99,56.2,99,55.4C98.9,53.8,99.2,53.1,99.7,53z M103.6,58.1
			c-0.4-1.5-0.8-2.2-1-2.2l-0.1,0.1v0.1c0,0.1,0,0.1,0,0.3c0,0.1,0,0.2,0,0.4c0,0.4,0,1.2,0.1,2.4c0.1,1.4,0.2,3.4,0.2,5.8
			c0,2.3,0.1,3.5,0.3,3.5c0.1,0,0.2-0.2,0.3-0.6c0.5-1.8,0.8-3.7,0.8-5.7C104.1,60.5,104,59.2,103.6,58.1z"/>
		<path class="st1" d="M116,54.5c0.7-0.7,1.8-1.1,3.3-1.1c0.6,0,1.2,0.1,1.6,0.3c0.6,0.3,1,1.1,1.3,2.3c0.2,1.1,0.4,2.9,0.7,5.4
			s0.4,4.5,0.5,5.9c0,1.3,0.1,2.8,0.3,4.4c0.1,1.6,0.3,2.5,0.4,2.7c0,0,0,0.1,0,0.2c0,0.2-0.1,0.6-0.3,0.9c-0.2,0.4-0.4,0.6-0.6,0.6
			c-0.1,0-0.2,0-0.4,0c-0.4,0-0.9-0.1-1.4-0.3s-0.8-0.4-0.9-0.6s-0.2-1-0.4-2.3c-0.1-1.3-0.2-2.4-0.2-3.2s-0.1-1.2-0.2-1.3
			c-0.1-0.1-0.8-0.1-1.9-0.1c-0.9,0-1.4,0-1.5,0.1c0,0.1,0,0.3,0,0.5c0,0.6,0,1.3,0.1,2.3c0.1,1.1,0.1,2,0.1,2.7v0.4
			c0,0.2-0.2,0.4-0.6,0.5s-0.7,0.2-1.1,0.2c-0.2,0-0.3,0-0.4,0c-1-0.3-1.5-0.7-1.6-1.2c0,0,0-0.1,0-0.2s0-0.2,0-0.3
			c0-1.2,0.1-3.7,0.4-7.6s0.5-6.1,0.6-6.7c0.2-0.8,0.5-1.6,1-2.6C115.2,55.5,115.6,54.8,116,54.5z M118.9,58.8
			c-0.2-0.8-0.4-1.2-0.6-1.2s-0.4,0.3-0.7,0.9c-0.5,1.1-0.9,2.7-1,4.6c-0.1,0.8-0.1,1.3-0.1,1.4c0,0.4,0.1,0.6,0.2,0.7
			s0.5,0.2,1.1,0.2c0.8,0,1.3-0.1,1.4-0.2s0.1-0.4,0.1-1.1C119.3,62.1,119.2,60.3,118.9,58.8z"/>
		<path class="st1" d="M129.6,51.7c0.2-0.2,0.5-0.4,0.8-0.4c0.2,0,0.5,0,0.6,0c0.6,0.1,1,0.3,1.2,0.5c0.3,0.4,0.5,2.9,0.5,7.6v2.5
			v2.2c0,3.7,0,5.7,0.1,6c0.1,0.5,0.6,0.7,1.4,0.7c0.4,0,0.7,0,1,0c0.2,0,0.5,0,0.8,0c0.5,0,0.9,0.1,1.1,0.2
			c0.2,0.2,0.3,0.5,0.3,0.9c0,0.3-0.1,0.5-0.2,0.7s-0.4,0.4-0.8,0.6c-0.8,0.4-1.6,0.6-2.4,0.7c-1.2,0.1-1.8,0.1-1.9,0.1
			s-0.1,0-0.3,0c-0.3,0-0.7-0.1-1.1-0.3c-0.4-0.2-0.7-0.4-1-0.7c-0.4-0.5-0.6-1.9-0.6-4.3c0-0.6,0-1.7,0.1-3.3
			c0.1-1.5,0.1-3,0.1-4.8c0-4.1-0.1-6.6-0.2-7.6c-0.1-0.4-0.1-0.6-0.1-0.7C129.1,52.3,129.3,52,129.6,51.7z"/>
		<path class="st1" d="M146.1,54.5c0.7-0.7,1.8-1.1,3.3-1.1c0.6,0,1.2,0.1,1.6,0.3c0.6,0.3,1,1.1,1.3,2.3c0.2,1.1,0.4,2.9,0.7,5.4
			c0.3,2.6,0.5,4.5,0.5,5.9c0,1.3,0.1,2.8,0.3,4.4s0.3,2.5,0.4,2.7c0,0,0,0.1,0,0.2c0,0.2-0.1,0.6-0.3,0.9c-0.2,0.4-0.4,0.6-0.6,0.6
			c-0.1,0-0.2,0-0.4,0c-0.4,0-0.9-0.1-1.4-0.3s-0.8-0.4-0.9-0.6s-0.2-1-0.4-2.3c-0.1-1.3-0.2-2.4-0.2-3.2s-0.1-1.2-0.2-1.3
			c-0.1-0.1-0.8-0.1-1.9-0.1c-0.9,0-1.4,0-1.5,0.1c0,0.1,0,0.3,0,0.5c0,0.6,0,1.3,0.1,2.3c0.1,1.1,0.1,2,0.1,2.7v0.4
			c0,0.2-0.2,0.4-0.6,0.5c-0.4,0.1-0.7,0.2-1.1,0.2c-0.2,0-0.3,0-0.4,0c-0.9-0.3-1.5-0.7-1.6-1.2c0,0,0-0.1,0-0.2s0-0.2,0-0.3
			c0-1.2,0.1-3.7,0.4-7.6c0.3-3.9,0.5-6.1,0.6-6.7c0.2-0.8,0.5-1.6,1-2.6C145.3,55.5,145.8,54.8,146.1,54.5z M149,58.8
			c-0.2-0.8-0.4-1.2-0.6-1.2c-0.2,0-0.4,0.3-0.7,0.9c-0.5,1.1-0.9,2.7-1,4.6c-0.1,0.8-0.1,1.3-0.1,1.4c0,0.4,0.1,0.6,0.2,0.7
			c0.1,0.1,0.5,0.2,1.1,0.2c0.8,0,1.3-0.1,1.4-0.2c0.1-0.1,0.1-0.4,0.1-1.1C149.5,62.1,149.3,60.3,149,58.8z"/>
		<path class="st2" d="M31.6,36.3l-3.1-11.2h1.4l2.4,9.6l2.8-9.6h1.5l2.7,9.6l2.4-9.6h1.5l-3.1,11.2h-1.5l-2.7-9.2l-2.7,9.2H31.6z"
			/>
		<path class="st2" d="M44.7,36.3V24.8H46v4.9c0.3-0.5,0.7-0.9,1.1-1.1c0.5-0.3,1-0.4,1.6-0.4c0.9,0,1.6,0.3,2.2,0.9
			c0.5,0.6,0.8,1.4,0.8,2.6v4.6h-1.3v-4.5c0-1.6-0.7-2.5-2-2.5c-0.7,0-1.3,0.2-1.7,0.7c-0.5,0.5-0.7,1.2-0.7,2.1v4.1L44.7,36.3
			L44.7,36.3z"/>
		<path class="st2" d="M57.4,36.5c-0.8,0-1.4-0.2-2-0.5c-0.6-0.4-1-0.8-1.4-1.5c-0.3-0.6-0.5-1.3-0.5-2.2c0-0.8,0.2-1.6,0.5-2.2
			s0.8-1.1,1.4-1.5s1.3-0.5,2.1-0.5s1.4,0.2,2,0.5c0.6,0.3,1,0.8,1.3,1.4s0.4,1.2,0.4,1.8c0,0.1,0,0.2,0,0.4c0,0.1,0,0.2,0,0.4h-6.3
			c0,0.6,0.2,1.1,0.4,1.5s0.6,0.7,0.9,0.9c0.4,0.2,0.8,0.3,1.2,0.3c0.5,0,1-0.1,1.4-0.4c0.4-0.3,0.7-0.6,0.8-1h1.3
			c-0.2,0.7-0.6,1.3-1.2,1.8C59.1,36.3,58.3,36.5,57.4,36.5z M57.4,29.3c-0.6,0-1.2,0.2-1.7,0.6s-0.8,1-0.9,1.7h5
			c0-0.7-0.3-1.3-0.7-1.7C58.6,29.5,58.1,29.3,57.4,29.3z"/>
		<path class="st2" d="M62.9,36.3v-7.9h1.2l0.1,1.4c0.3-0.5,0.6-0.9,1.1-1.2s1-0.4,1.6-0.4c0.9,0,1.7,0.3,2.2,0.9
			c0.6,0.6,0.8,1.4,0.8,2.6v4.6h-1.3v-4.5c0-1.6-0.7-2.5-2.1-2.5c-0.7,0-1.2,0.2-1.7,0.7c-0.4,0.5-0.7,1.2-0.7,2.1v4.1L62.9,36.3
			L62.9,36.3z"/>
		<path class="st2" d="M79.4,36.5c-1,0-1.7-0.2-2.4-0.7c-0.6-0.5-1-1.1-1.1-1.9h1.4c0.1,0.4,0.3,0.8,0.7,1.1
			c0.3,0.3,0.8,0.5,1.4,0.5s1-0.1,1.2-0.4c0.3-0.2,0.4-0.5,0.4-0.9c0-0.5-0.2-0.8-0.5-1s-0.8-0.3-1.5-0.4c-0.4-0.1-0.8-0.2-1.3-0.4
			c-0.4-0.2-0.8-0.4-1.1-0.7c-0.3-0.3-0.4-0.7-0.4-1.2c0-0.7,0.3-1.3,0.8-1.7s1.2-0.7,2.1-0.7c0.8,0,1.5,0.2,2.1,0.6
			c0.5,0.4,0.9,1,0.9,1.8h-1.3c0-0.4-0.2-0.7-0.5-1c-0.3-0.2-0.7-0.3-1.2-0.3s-0.8,0.1-1.1,0.3s-0.4,0.5-0.4,0.8s0.2,0.6,0.5,0.8
			s0.8,0.3,1.4,0.5c0.5,0.1,1,0.2,1.4,0.4c0.4,0.2,0.8,0.4,1.1,0.7c0.3,0.3,0.4,0.7,0.4,1.3c0,0.7-0.3,1.3-0.8,1.8
			C81,36.3,80.3,36.5,79.4,36.5z"/>
		<path class="st2" d="M84.3,36.3V24.8h1.3v11.5H84.3z"/>
		<path class="st2" d="M91.4,36.5c-0.8,0-1.4-0.2-2-0.5c-0.6-0.4-1-0.8-1.4-1.5c-0.3-0.6-0.5-1.3-0.5-2.2c0-0.8,0.2-1.6,0.5-2.2
			s0.8-1.1,1.4-1.5s1.3-0.5,2.1-0.5c0.8,0,1.4,0.2,2,0.5s1,0.8,1.3,1.4s0.4,1.2,0.4,1.8c0,0.1,0,0.2,0,0.4c0,0.1,0,0.2,0,0.4h-6.3
			c0,0.6,0.2,1.1,0.4,1.5c0.2,0.4,0.6,0.7,0.9,0.9c0.4,0.2,0.8,0.3,1.2,0.3c0.5,0,1-0.1,1.4-0.4c0.4-0.3,0.6-0.6,0.8-1h1.3
			c-0.2,0.7-0.6,1.3-1.2,1.8C93.1,36.3,92.4,36.5,91.4,36.5z M91.4,29.3c-0.6,0-1.2,0.2-1.7,0.6s-0.8,1-0.9,1.7h5
			c0-0.7-0.3-1.3-0.7-1.7C92.7,29.5,92.1,29.3,91.4,29.3z"/>
		<path class="st2" d="M100.5,36.5c-0.8,0-1.4-0.2-2-0.5c-0.6-0.4-1.1-0.8-1.4-1.5c-0.3-0.6-0.5-1.3-0.5-2.2c0-0.8,0.2-1.6,0.5-2.2
			s0.8-1.1,1.4-1.5s1.3-0.5,2.1-0.5c0.8,0,1.4,0.2,2,0.5s1,0.8,1.3,1.4s0.4,1.2,0.4,1.8c0,0.1,0,0.2,0,0.4c0,0.1,0,0.2,0,0.4H98
			c0,0.6,0.2,1.1,0.4,1.5c0.2,0.4,0.6,0.7,0.9,0.9c0.4,0.2,0.8,0.3,1.2,0.3c0.6,0,1-0.1,1.4-0.4c0.4-0.3,0.6-0.6,0.8-1h1.3
			c-0.2,0.7-0.6,1.3-1.2,1.8C102.3,36.3,101.5,36.5,100.5,36.5z M100.5,29.3c-0.6,0-1.2,0.2-1.7,0.6s-0.8,1-0.9,1.7h5
			c0-0.7-0.3-1.3-0.7-1.7C101.8,29.5,101.2,29.3,100.5,29.3z"/>
		<path class="st2" d="M106.1,39.8V28.3h1.2l0.1,1.3c0.3-0.4,0.6-0.7,1.1-1s1.1-0.5,1.8-0.5c0.8,0,1.5,0.2,2.1,0.5
			c0.6,0.4,1,0.9,1.4,1.5c0.3,0.6,0.5,1.3,0.5,2.1s-0.2,1.5-0.5,2.1s-0.8,1.1-1.4,1.5s-1.3,0.5-2.1,0.5c-0.6,0-1.2-0.1-1.7-0.4
			c-0.5-0.3-0.9-0.6-1.2-1.1v4.8h-1.3V39.8z M110.2,35.3c0.5,0,1-0.1,1.4-0.4c0.4-0.2,0.7-0.6,1-1.1c0.2-0.4,0.4-1,0.4-1.6
			c0-0.6-0.1-1.1-0.4-1.6c-0.2-0.5-0.6-0.8-1-1.1c-0.4-0.2-0.9-0.4-1.4-0.4s-1,0.1-1.4,0.4s-0.7,0.6-1,1.1c-0.2,0.4-0.4,1-0.4,1.6
			c0,0.6,0.1,1.1,0.4,1.6c0.2,0.4,0.5,0.8,1,1.1C109.2,35.2,109.6,35.3,110.2,35.3z"/>
		<path class="st2" d="M124,36.5c-0.8,0-1.5-0.2-2.1-0.5s-1.1-0.9-1.4-1.5s-0.5-1.3-0.5-2.1s0.2-1.5,0.5-2.1s0.8-1.1,1.4-1.5
			s1.3-0.5,2.1-0.5c0.6,0,1.2,0.1,1.7,0.4s0.9,0.6,1.2,1.1v-4.9h1.3v11.5H127l-0.1-1.3c-0.3,0.4-0.6,0.7-1.1,1
			C125.3,36.4,124.7,36.5,124,36.5z M124.1,35.3c0.5,0,1-0.1,1.4-0.4s0.7-0.6,1-1.1c0.2-0.4,0.3-1,0.3-1.6c0-0.6-0.1-1.1-0.3-1.6
			s-0.5-0.8-1-1.1s-0.9-0.4-1.4-0.4s-1,0.1-1.4,0.4c-0.4,0.2-0.7,0.6-1,1.1c-0.2,0.4-0.3,1-0.3,1.6c0,0.6,0.1,1.1,0.3,1.6
			s0.6,0.8,1,1.1S123.6,35.3,124.1,35.3z"/>
		<path class="st2" d="M134,36.5c-0.8,0-1.4-0.2-2-0.5c-0.6-0.4-1-0.8-1.4-1.5c-0.3-0.6-0.5-1.3-0.5-2.2c0-0.8,0.2-1.6,0.5-2.2
			s0.8-1.1,1.4-1.5c0.6-0.4,1.3-0.5,2.1-0.5s1.4,0.2,2,0.5s1,0.8,1.3,1.4s0.4,1.2,0.4,1.8c0,0.1,0,0.2,0,0.4c0,0.1,0,0.2,0,0.4h-6.3
			c0,0.6,0.2,1.1,0.4,1.5s0.6,0.7,0.9,0.9c0.4,0.2,0.8,0.3,1.2,0.3c0.6,0,1-0.1,1.4-0.4c0.4-0.3,0.7-0.6,0.8-1h1.3
			c-0.2,0.7-0.6,1.3-1.2,1.8C135.7,36.3,134.9,36.5,134,36.5z M134,29.3c-0.6,0-1.2,0.2-1.7,0.6s-0.8,1-0.9,1.7h5
			c0-0.7-0.3-1.3-0.7-1.7C135.2,29.5,134.6,29.3,134,29.3z"/>
		<path class="st2" d="M139.5,39.8V28.3h1.2l0.1,1.3c0.3-0.4,0.6-0.7,1.1-1s1.1-0.5,1.8-0.5c0.8,0,1.5,0.2,2.1,0.5
			c0.6,0.4,1,0.9,1.4,1.5s0.5,1.3,0.5,2.1s-0.2,1.5-0.5,2.1s-0.8,1.1-1.4,1.5c-0.6,0.4-1.3,0.5-2.1,0.5c-0.6,0-1.2-0.1-1.7-0.4
			c-0.5-0.3-0.9-0.6-1.2-1.1v4.8h-1.3L139.5,39.8L139.5,39.8z M143.6,35.3c0.5,0,1-0.1,1.4-0.4c0.4-0.2,0.7-0.6,1-1.1s0.4-1,0.4-1.6
			c0-0.6-0.1-1.1-0.4-1.6c-0.2-0.5-0.6-0.8-1-1.1c-0.4-0.2-0.9-0.4-1.4-0.4s-1,0.1-1.4,0.4s-0.7,0.6-1,1.1c-0.2,0.4-0.3,1-0.3,1.6
			c0,0.6,0.1,1.1,0.3,1.6c0.2,0.4,0.6,0.8,1,1.1S143.1,35.3,143.6,35.3z"/>
		<path class="st2" d="M149.6,36.3v-7.9h1.2l0.1,1.5c0.2-0.5,0.6-0.9,1.1-1.2s1.1-0.5,1.9-0.5v1.4h-0.4c-0.5,0-0.9,0.1-1.3,0.2
			c-0.4,0.2-0.7,0.4-0.9,0.8s-0.3,0.9-0.3,1.6v4L149.6,36.3L149.6,36.3z"/>
		<path class="st2" d="M156.2,26.6c-0.3,0-0.5-0.1-0.7-0.3s-0.3-0.4-0.3-0.7s0.1-0.5,0.3-0.6c0.2-0.2,0.4-0.3,0.7-0.3
			s0.5,0.1,0.7,0.3s0.3,0.4,0.3,0.6c0,0.3-0.1,0.5-0.3,0.7C156.7,26.5,156.4,26.6,156.2,26.6z M155.5,36.3v-7.9h1.3v7.9H155.5z"/>
		<path class="st2" d="M161.5,36.3l-3-7.9h1.4l2.4,6.6l2.4-6.6h1.4l-3,7.9H161.5z"/>
		<path class="st2" d="M170.7,36.5c-0.8,0-1.4-0.2-2-0.5c-0.6-0.4-1.1-0.8-1.4-1.5c-0.3-0.6-0.5-1.3-0.5-2.2c0-0.8,0.2-1.6,0.5-2.2
			s0.8-1.1,1.4-1.5c0.6-0.4,1.3-0.5,2.1-0.5s1.4,0.2,2,0.5s1,0.8,1.3,1.4s0.4,1.2,0.4,1.8c0,0.1,0,0.2,0,0.4c0,0.1,0,0.2,0,0.4h-6.3
			c0,0.6,0.2,1.1,0.4,1.5s0.6,0.7,0.9,0.9c0.4,0.2,0.8,0.3,1.2,0.3c0.6,0,1-0.1,1.4-0.4c0.4-0.3,0.6-0.6,0.8-1h1.3
			c-0.2,0.7-0.6,1.3-1.2,1.8C172.4,36.3,171.6,36.5,170.7,36.5z M170.7,29.3c-0.6,0-1.2,0.2-1.7,0.6s-0.8,1-0.9,1.7h5
			c0-0.7-0.3-1.3-0.7-1.7C171.9,29.5,171.4,29.3,170.7,29.3z"/>
		<path class="st2" d="M179.8,36.5c-0.8,0-1.5-0.2-2.1-0.5s-1.1-0.9-1.4-1.5c-0.3-0.6-0.5-1.3-0.5-2.1s0.2-1.5,0.5-2.1
			s0.8-1.1,1.4-1.5c0.6-0.4,1.3-0.5,2.1-0.5c0.7,0,1.2,0.1,1.7,0.4s0.9,0.6,1.2,1.1v-4.9h1.3v11.5h-1.2l-0.1-1.3
			c-0.3,0.4-0.6,0.7-1.1,1C181.2,36.4,180.6,36.5,179.8,36.5z M180,35.3c0.5,0,1-0.1,1.4-0.4s0.7-0.6,1-1.1c0.2-0.4,0.3-1,0.3-1.6
			c0-0.6-0.1-1.1-0.3-1.6s-0.6-0.8-1-1.1s-0.9-0.4-1.4-0.4s-1,0.1-1.4,0.4c-0.4,0.2-0.7,0.6-1,1.1c-0.2,0.4-0.3,1-0.3,1.6
			c0,0.6,0.1,1.1,0.3,1.6s0.6,0.8,1,1.1S179.4,35.3,180,35.3z"/>
		<path class="st2" d="M185.2,38.2l0.9-3.5h1.4l-1.4,3.5H185.2z"/>
		<path class="st2" d="M194.2,39.8l2-4.3h-0.5l-3.1-7.2h1.5l2.6,6.2l2.8-6.2h1.4l-5.2,11.5H194.2z"/>
		<path class="st2" d="M205.1,36.5c-0.8,0-1.4-0.2-2-0.5s-1.1-0.8-1.4-1.4c-0.4-0.6-0.5-1.4-0.5-2.2s0.2-1.6,0.5-2.2
			c0.4-0.6,0.8-1.1,1.4-1.4c0.6-0.3,1.3-0.5,2-0.5c0.8,0,1.4,0.2,2,0.5s1.1,0.8,1.4,1.4c0.4,0.6,0.5,1.4,0.5,2.2
			c0,0.8-0.2,1.6-0.5,2.2c-0.4,0.6-0.8,1.1-1.4,1.4C206.6,36.3,205.9,36.5,205.1,36.5z M205.1,35.4c0.5,0,0.9-0.1,1.3-0.3
			c0.4-0.2,0.7-0.6,1-1c0.2-0.4,0.4-1,0.4-1.7s-0.1-1.2-0.4-1.7c-0.2-0.4-0.6-0.8-0.9-1c-0.4-0.2-0.8-0.3-1.3-0.3s-0.9,0.1-1.3,0.3
			c-0.4,0.2-0.7,0.6-1,1s-0.4,1-0.4,1.7s0.1,1.2,0.4,1.7c0.2,0.5,0.6,0.8,0.9,1C204.3,35.3,204.7,35.4,205.1,35.4z"/>
		<path class="st2" d="M213.9,36.5c-0.9,0-1.7-0.3-2.2-0.9c-0.6-0.6-0.8-1.4-0.8-2.6v-4.6h1.3v4.5c0,1.6,0.7,2.5,2,2.5
			c0.7,0,1.3-0.2,1.7-0.7s0.7-1.2,0.7-2.1v-4.1h1.3v7.9h-1.2l-0.1-1.4c-0.2,0.5-0.6,0.9-1.1,1.2C215,36.4,214.5,36.5,213.9,36.5z"/>
		<path class="st2" d="M220.1,36.3v-7.9h1.2l0.1,1.5c0.2-0.5,0.6-0.9,1.1-1.2s1.1-0.5,1.9-0.5v1.4H224c-0.5,0-0.9,0.1-1.3,0.2
			c-0.4,0.2-0.7,0.4-0.9,0.8s-0.4,0.9-0.4,1.6v4L220.1,36.3L220.1,36.3z"/>
		<path class="st2" d="M32.1,106.5c-0.6-0.6-1.1-1.2-1.6-2s-0.9-1.6-1.2-2.6s-0.4-2-0.4-3.1s0.2-2.1,0.4-3.1
			c0.3-0.9,0.7-1.8,1.2-2.6s1-1.4,1.6-2h1.4v0.1c-1,1-1.8,2.1-2.4,3.4c-0.6,1.3-0.9,2.7-0.9,4.2s0.3,2.9,0.9,4.1
			c0.6,1.3,1.4,2.4,2.4,3.4v0.1L32.1,106.5L32.1,106.5z"/>
		<path class="st2" d="M38,104.2c-0.7,0-1.3-0.2-1.7-0.5s-0.6-1-0.6-1.9v-4.4h-1.4v-1.1h1.4l0.2-1.9h1.2v1.9h2.3v1.1h-2.3v4.4
			c0,0.5,0.1,0.8,0.3,1s0.6,0.3,1.1,0.3h0.7v1.1H38L38,104.2z"/>
		<path class="st2" d="M41.1,104.2V92.7h1.3v4.9c0.3-0.5,0.7-0.9,1.1-1.1c0.5-0.3,1-0.4,1.6-0.4c0.9,0,1.7,0.3,2.2,0.9
			s0.8,1.5,0.8,2.6v4.6h-1.3v-4.5c0-1.6-0.7-2.5-2-2.5c-0.7,0-1.3,0.2-1.7,0.7c-0.5,0.5-0.7,1.2-0.7,2.1v4.1L41.1,104.2L41.1,104.2z
			"/>
		<path class="st2" d="M53.8,104.4c-0.8,0-1.4-0.2-2-0.5s-1.1-0.8-1.4-1.4c-0.3-0.6-0.5-1.4-0.5-2.2s0.2-1.6,0.5-2.2
			s0.8-1.1,1.4-1.5c0.6-0.3,1.3-0.5,2.1-0.5s1.4,0.2,2,0.5c0.6,0.4,1,0.8,1.3,1.4s0.4,1.2,0.4,1.8c0,0.1,0,0.2,0,0.4
			c0,0.1,0,0.2,0,0.4h-6.4c0,0.6,0.2,1.1,0.4,1.5s0.6,0.7,0.9,0.9c0.4,0.2,0.8,0.3,1.2,0.3c0.6,0,1-0.1,1.4-0.4s0.6-0.6,0.8-1h1.3
			c-0.2,0.7-0.6,1.4-1.2,1.8C55.5,104.2,54.7,104.4,53.8,104.4z M53.8,97.2c-0.6,0-1.2,0.2-1.7,0.6s-0.8,1-0.9,1.7h5
			c0-0.7-0.3-1.3-0.7-1.7C55,97.4,54.5,97.2,53.8,97.2z"/>
		<path class="st2" d="M67.1,104.4c-0.8,0-1.4-0.2-2-0.5s-1.1-0.8-1.4-1.4s-0.5-1.4-0.5-2.2s0.2-1.6,0.5-2.2s0.8-1.1,1.4-1.5
			c0.6-0.3,1.3-0.5,2.1-0.5c0.8,0,1.4,0.2,2,0.5c0.6,0.4,1,0.8,1.3,1.4s0.4,1.2,0.4,1.8c0,0.1,0,0.2,0,0.4c0,0.1,0,0.2,0,0.4h-6.3
			c0,0.6,0.2,1.1,0.4,1.5c0.2,0.4,0.6,0.7,0.9,0.9c0.4,0.2,0.8,0.3,1.2,0.3c0.6,0,1-0.1,1.4-0.4s0.7-0.6,0.8-1h1.3
			c-0.2,0.7-0.6,1.4-1.2,1.8C68.8,104.2,68.1,104.4,67.1,104.4z M67.1,97.2c-0.6,0-1.2,0.2-1.7,0.6s-0.8,1-0.9,1.7h5
			c0-0.7-0.3-1.3-0.7-1.7C68.4,97.4,67.8,97.2,67.1,97.2z"/>
		<path class="st2" d="M72.7,104.2v-7.9h1.2l0.1,1.2c0.3-0.4,0.6-0.8,1-1s0.9-0.4,1.4-0.4c0.6,0,1.2,0.1,1.6,0.4s0.8,0.7,1,1.2
			c0.3-0.5,0.7-0.9,1.1-1.1c0.5-0.3,1-0.4,1.6-0.4c0.9,0,1.7,0.3,2.3,0.9c0.6,0.6,0.8,1.4,0.8,2.6v4.6h-1.3v-4.5
			c0-0.8-0.2-1.4-0.5-1.9s-0.8-0.6-1.4-0.6S80.4,97.5,80,98s-0.6,1.2-0.6,2.1v4.1h-1.3v-4.5c0-0.8-0.2-1.4-0.5-1.9
			c-0.3-0.4-0.8-0.6-1.4-0.6s-1.2,0.2-1.6,0.7S74,99.1,74,100v4.1L72.7,104.2L72.7,104.2z"/>
		<path class="st2" d="M90.6,104.4c-0.8,0-1.4-0.2-2-0.5s-1.1-0.8-1.4-1.5c-0.3-0.6-0.5-1.4-0.5-2.2s0.2-1.6,0.5-2.2
			s0.8-1.1,1.4-1.4s1.3-0.5,2-0.5c0.8,0,1.4,0.2,2,0.5s1.1,0.8,1.4,1.4s0.5,1.4,0.5,2.2s-0.2,1.6-0.5,2.2s-0.8,1.1-1.4,1.5
			C92,104.2,91.4,104.4,90.6,104.4z M90.6,103.3c0.5,0,0.9-0.1,1.3-0.3s0.7-0.6,1-1s0.4-1,0.4-1.7s-0.1-1.2-0.4-1.7
			c-0.2-0.4-0.6-0.8-1-1s-0.8-0.3-1.3-0.3s-0.9,0.1-1.3,0.3s-0.7,0.6-1,1c-0.2,0.5-0.4,1-0.4,1.7s0.1,1.2,0.4,1.7
			c0.2,0.4,0.6,0.8,1,1C89.7,103.1,90.1,103.3,90.6,103.3z"/>
		<path class="st2" d="M99.3,104.2c-0.7,0-1.3-0.2-1.7-0.5c-0.4-0.4-0.6-1-0.6-1.9v-4.4h-1.4v-1.1H97l0.2-1.9h1.2v1.9h2.3v1.1h-2.3
			v4.4c0,0.5,0.1,0.8,0.3,1c0.2,0.2,0.6,0.3,1.1,0.3h0.8v1.1H99.3L99.3,104.2z"/>
		<path class="st2" d="M103.1,94.5c-0.3,0-0.5-0.1-0.7-0.3s-0.3-0.4-0.3-0.7s0.1-0.5,0.3-0.6c0.2-0.2,0.4-0.3,0.7-0.3
			s0.5,0.1,0.7,0.3c0.2,0.2,0.3,0.4,0.3,0.6c0,0.3-0.1,0.5-0.3,0.7C103.6,94.4,103.4,94.5,103.1,94.5z M102.5,104.2v-7.9h1.3v7.9
			H102.5z"/>
		<path class="st2" d="M109.8,104.4c-0.8,0-1.4-0.2-2-0.5s-1.1-0.8-1.4-1.5c-0.4-0.6-0.5-1.4-0.5-2.2s0.2-1.6,0.5-2.2
			s0.8-1.1,1.4-1.4s1.3-0.5,2-0.5c0.8,0,1.4,0.2,2,0.5s1.1,0.8,1.4,1.4s0.5,1.4,0.5,2.2s-0.2,1.6-0.5,2.2c-0.4,0.6-0.8,1.1-1.4,1.5
			C111.2,104.2,110.5,104.4,109.8,104.4z M109.8,103.3c0.5,0,0.9-0.1,1.3-0.3c0.4-0.2,0.7-0.6,1-1s0.4-1,0.4-1.7s-0.1-1.2-0.4-1.7
			c-0.2-0.4-0.6-0.8-1-1s-0.8-0.3-1.3-0.3s-0.9,0.1-1.3,0.3c-0.4,0.2-0.7,0.6-1,1c-0.2,0.5-0.4,1-0.4,1.7s0.1,1.2,0.4,1.7
			c0.2,0.4,0.6,0.8,1,1C108.9,103.1,109.3,103.3,109.8,103.3z"/>
		<path class="st2" d="M115.6,104.2v-7.9h1.2l0.1,1.4c0.3-0.5,0.6-0.9,1.1-1.2s1-0.4,1.6-0.4c0.9,0,1.7,0.3,2.2,0.9
			c0.6,0.6,0.8,1.5,0.8,2.6v4.6h-1.3v-4.5c0-1.6-0.7-2.5-2.1-2.5c-0.7,0-1.2,0.2-1.7,0.7s-0.7,1.2-0.7,2.1v4.1L115.6,104.2
			L115.6,104.2z"/>
		<path class="st2" d="M127.4,104.4c-0.7,0-1.2-0.1-1.6-0.3c-0.4-0.2-0.8-0.5-1-0.9s-0.3-0.8-0.3-1.2c0-0.8,0.3-1.4,0.9-1.9
			c0.6-0.4,1.5-0.7,2.5-0.7h2.1v-0.1c0-0.7-0.2-1.2-0.5-1.6s-0.9-0.5-1.5-0.5c-0.5,0-1,0.1-1.3,0.4c-0.4,0.3-0.6,0.6-0.7,1.1h-1.4
			c0.1-0.6,0.2-1.1,0.6-1.5c0.3-0.4,0.8-0.7,1.3-0.9s1-0.3,1.6-0.3c1.1,0,1.9,0.3,2.5,0.9s0.8,1.4,0.8,2.4v4.9h-1.2l-0.1-1.4
			c-0.2,0.4-0.5,0.8-1,1.1C128.7,104.2,128.1,104.4,127.4,104.4z M127.6,103.3c0.5,0,1-0.1,1.3-0.4c0.4-0.3,0.6-0.6,0.8-1
			s0.3-0.9,0.3-1.3l0,0h-2c-0.8,0-1.4,0.1-1.7,0.4s-0.5,0.6-0.5,1s0.1,0.8,0.5,1C126.6,103.1,127.1,103.3,127.6,103.3z"/>
		<path class="st2" d="M133.4,104.2V92.7h1.3v11.5H133.4z"/>
		<path class="st2" d="M32.8,124.4c-0.8,0-1.4-0.2-2-0.5s-1.1-0.8-1.4-1.5c-0.3-0.6-0.5-1.4-0.5-2.2s0.2-1.6,0.5-2.2
			s0.8-1.1,1.4-1.5c0.6-0.3,1.3-0.5,2-0.5c0.9,0,1.7,0.2,2.4,0.7c0.6,0.5,1,1.2,1.2,2H35c-0.1-0.5-0.4-0.9-0.8-1.1
			c-0.4-0.3-0.9-0.4-1.5-0.4c-0.5,0-0.9,0.1-1.3,0.3c-0.4,0.2-0.7,0.6-1,1s-0.4,1-0.4,1.7s0.1,1.2,0.4,1.7c0.2,0.5,0.6,0.8,1,1
			s0.8,0.3,1.3,0.3s1-0.1,1.5-0.4c0.4-0.3,0.7-0.7,0.8-1.2h1.4c-0.2,0.8-0.6,1.4-1.2,1.9C34.6,124.1,33.8,124.4,32.8,124.4z"/>
		<path class="st2" d="M41.9,124.4c-0.8,0-1.4-0.2-2-0.5s-1.1-0.8-1.4-1.4c-0.3-0.6-0.5-1.4-0.5-2.2s0.2-1.6,0.5-2.2
			s0.8-1.1,1.4-1.5c0.6-0.3,1.3-0.5,2.1-0.5s1.4,0.2,2,0.5c0.6,0.4,1,0.8,1.3,1.4s0.4,1.2,0.4,1.8c0,0.1,0,0.2,0,0.4
			c0,0.1,0,0.2,0,0.4h-6.3c0,0.6,0.2,1.1,0.4,1.5s0.6,0.7,0.9,0.9c0.4,0.2,0.8,0.3,1.2,0.3c0.6,0,1-0.1,1.4-0.4s0.7-0.6,0.8-1h1.3
			c-0.2,0.7-0.6,1.4-1.2,1.8C43.6,124.2,42.8,124.4,41.9,124.4z M41.9,117.2c-0.6,0-1.2,0.2-1.7,0.6s-0.8,1-0.9,1.7h5
			c0-0.7-0.3-1.3-0.7-1.7C43.1,117.4,42.6,117.2,41.9,117.2z"/>
		<path class="st2" d="M47.4,124.2v-7.9h1.2l0.1,1.4c0.3-0.5,0.6-0.9,1.1-1.2s1-0.4,1.6-0.4c0.9,0,1.7,0.3,2.2,0.9
			c0.6,0.6,0.8,1.5,0.8,2.6v4.6h-1.2v-4.5c0-1.6-0.7-2.5-2.1-2.5c-0.7,0-1.2,0.2-1.7,0.7c-0.4,0.5-0.7,1.2-0.7,2.1v4.1L47.4,124.2
			L47.4,124.2z"/>
		<path class="st2" d="M59.7,124.2c-0.7,0-1.3-0.2-1.7-0.5c-0.4-0.4-0.6-1-0.6-1.9v-4.4H56v-1.1h1.4l0.2-1.9h1.2v1.9h2.3v1.1h-2.3
			v4.4c0,0.5,0.1,0.8,0.3,1c0.2,0.2,0.6,0.3,1.1,0.3H61v1.1H59.7L59.7,124.2z"/>
		<path class="st2" d="M62.8,124.2v-7.9H64l0.1,1.5c0.2-0.5,0.6-0.9,1.1-1.2s1.1-0.5,1.9-0.5v1.4h-0.4c-0.5,0-0.9,0.1-1.3,0.2
			c-0.4,0.2-0.7,0.4-0.9,0.8c-0.2,0.4-0.3,0.9-0.3,1.6v4L62.8,124.2L62.8,124.2z"/>
		<path class="st2" d="M71.8,124.4c-0.8,0-1.4-0.2-2-0.5s-1.1-0.8-1.4-1.4s-0.5-1.4-0.5-2.2s0.2-1.6,0.5-2.2s0.8-1.1,1.4-1.5
			c0.6-0.3,1.3-0.5,2.1-0.5c0.8,0,1.4,0.2,2,0.5c0.6,0.4,1,0.8,1.3,1.4s0.5,1.2,0.5,1.8c0,0.1,0,0.2,0,0.4c0,0.1,0,0.2,0,0.4h-6.3
			c0,0.6,0.2,1.1,0.4,1.5c0.2,0.4,0.6,0.7,0.9,0.9c0.4,0.2,0.8,0.3,1.2,0.3c0.6,0,1-0.1,1.4-0.4s0.7-0.6,0.8-1h1.3
			c-0.2,0.7-0.6,1.4-1.2,1.8C73.5,124.2,72.8,124.4,71.8,124.4z M71.8,117.2c-0.6,0-1.2,0.2-1.7,0.6s-0.8,1-0.9,1.7h5
			c0-0.7-0.3-1.3-0.7-1.7C73.1,117.4,72.5,117.2,71.8,117.2z"/>
		<path class="st2" d="M85.2,124.4c-0.8,0-1.4-0.2-2-0.5s-1.1-0.8-1.4-1.5c-0.3-0.6-0.5-1.4-0.5-2.2s0.2-1.6,0.5-2.2
			s0.8-1.1,1.4-1.4s1.3-0.5,2-0.5c0.8,0,1.4,0.2,2,0.5s1.1,0.8,1.4,1.4s0.5,1.4,0.5,2.2s-0.2,1.6-0.5,2.2c-0.4,0.6-0.8,1.1-1.4,1.5
			C86.6,124.2,86,124.4,85.2,124.4z M85.2,123.3c0.5,0,0.9-0.1,1.3-0.3s0.7-0.6,1-1s0.4-1,0.4-1.7s-0.1-1.2-0.4-1.7
			c-0.2-0.4-0.6-0.8-0.9-1c-0.4-0.2-0.8-0.3-1.3-0.3s-0.9,0.1-1.3,0.3s-0.7,0.6-1,1c-0.2,0.5-0.4,1-0.4,1.7s0.1,1.2,0.4,1.7
			c0.2,0.4,0.6,0.8,0.9,1C84.4,123.1,84.8,123.3,85.2,123.3z"/>
		<path class="st2" d="M91.5,124.2v-6.8h-1.2v-1.1h1.2v-1.4c0-0.8,0.2-1.3,0.6-1.7c0.4-0.3,0.9-0.5,1.7-0.5h0.8v1.1H94
			c-0.4,0-0.7,0.1-0.9,0.2c-0.2,0.2-0.3,0.5-0.3,0.8v1.3h1.9v1.1h-1.9v6.8L91.5,124.2L91.5,124.2z"/>
		<path class="st2" d="M103.8,124.2c-0.7,0-1.3-0.2-1.7-0.5c-0.4-0.4-0.6-1-0.6-1.9v-4.4h-1.4v-1.1h1.4l0.2-1.9h1.2v1.9h2.3v1.1
			h-2.3v4.4c0,0.5,0.1,0.8,0.3,1c0.2,0.2,0.6,0.3,1.1,0.3h0.8v1.1H103.8L103.8,124.2z"/>
		<path class="st2" d="M106.8,124.2v-11.5h1.3v4.9c0.3-0.5,0.7-0.9,1.1-1.1c0.5-0.3,1-0.4,1.6-0.4c0.9,0,1.6,0.3,2.2,0.9
			s0.8,1.5,0.8,2.6v4.6h-1.3v-4.5c0-1.6-0.7-2.5-2-2.5c-0.7,0-1.3,0.2-1.7,0.7c-0.5,0.5-0.7,1.2-0.7,2.1v4.1L106.8,124.2
			L106.8,124.2z"/>
		<path class="st2" d="M119.6,124.4c-0.8,0-1.4-0.2-2-0.5s-1.1-0.8-1.4-1.4s-0.5-1.4-0.5-2.2s0.2-1.6,0.5-2.2s0.8-1.1,1.4-1.5
			c0.6-0.3,1.3-0.5,2.1-0.5s1.4,0.2,2,0.5c0.6,0.4,1,0.8,1.3,1.4s0.5,1.2,0.5,1.8c0,0.1,0,0.2,0,0.4c0,0.1,0,0.2,0,0.4h-6.3
			c0,0.6,0.2,1.1,0.4,1.5s0.6,0.7,0.9,0.9c0.4,0.2,0.8,0.3,1.2,0.3c0.6,0,1-0.1,1.4-0.4s0.6-0.6,0.8-1h1.3c-0.2,0.7-0.6,1.4-1.2,1.8
			C121.3,124.2,120.5,124.4,119.6,124.4z M119.6,117.2c-0.6,0-1.2,0.2-1.7,0.6s-0.8,1-0.9,1.7h5c0-0.7-0.3-1.3-0.7-1.7
			C120.8,117.4,120.2,117.2,119.6,117.2z"/>
		<path class="st2" d="M133.6,124.4c-0.7,0-1.2-0.1-1.7-0.4s-0.9-0.6-1.2-1.1l-0.1,1.3h-1.2v-11.5h1.3v4.9c0.3-0.4,0.6-0.7,1.1-1
			s1.1-0.5,1.8-0.5c0.8,0,1.5,0.2,2.1,0.5c0.6,0.4,1,0.9,1.4,1.5c0.3,0.6,0.5,1.3,0.5,2.1s-0.2,1.5-0.5,2.1s-0.8,1.1-1.4,1.5
			C135.1,124.2,134.4,124.4,133.6,124.4z M133.4,123.2c0.5,0,1-0.1,1.4-0.4s0.7-0.6,1-1.1c0.2-0.4,0.3-1,0.3-1.6s-0.1-1.1-0.3-1.6
			c-0.2-0.4-0.6-0.8-1-1s-0.9-0.4-1.4-0.4s-1,0.1-1.4,0.4c-0.4,0.2-0.7,0.6-1,1c-0.2,0.5-0.4,1-0.4,1.6s0.1,1.1,0.4,1.6
			c0.2,0.5,0.6,0.8,1,1.1C132.4,123.1,132.9,123.2,133.4,123.2z"/>
		<path class="st2" d="M139.4,124.2v-7.9h1.2l0.1,1.5c0.2-0.5,0.6-0.9,1.1-1.2s1.1-0.5,1.9-0.5v1.4h-0.4c-0.5,0-0.9,0.1-1.3,0.2
			c-0.4,0.2-0.7,0.4-0.9,0.8s-0.4,0.9-0.4,1.6v4L139.4,124.2L139.4,124.2z"/>
		<path class="st2" d="M147.8,124.4c-0.7,0-1.2-0.1-1.7-0.3c-0.4-0.2-0.8-0.5-1-0.9s-0.3-0.8-0.3-1.2c0-0.8,0.3-1.4,0.9-1.9
			s1.5-0.7,2.5-0.7h2.1v-0.1c0-0.7-0.2-1.2-0.5-1.6s-0.9-0.5-1.5-0.5c-0.5,0-1,0.1-1.4,0.4s-0.6,0.6-0.7,1.1h-1.4
			c0.1-0.6,0.2-1.1,0.6-1.5c0.3-0.4,0.8-0.7,1.3-0.9s1-0.3,1.6-0.3c1.1,0,1.9,0.3,2.5,0.9s0.8,1.4,0.8,2.4v4.9h-1.2l-0.1-1.4
			c-0.2,0.4-0.6,0.8-1,1.1C149.1,124.2,148.6,124.4,147.8,124.4z M148,123.3c0.5,0,0.9-0.1,1.3-0.4c0.4-0.3,0.6-0.6,0.8-1
			s0.3-0.9,0.3-1.3l0,0h-2c-0.8,0-1.3,0.1-1.7,0.4c-0.3,0.3-0.5,0.6-0.5,1s0.1,0.8,0.5,1C147.1,123.1,147.5,123.3,148,123.3z"/>
		<path class="st2" d="M154.7,114.5c-0.3,0-0.5-0.1-0.7-0.3s-0.3-0.4-0.3-0.7s0.1-0.5,0.3-0.6c0.2-0.2,0.4-0.3,0.7-0.3
			s0.5,0.1,0.7,0.3s0.3,0.4,0.3,0.6c0,0.3-0.1,0.5-0.3,0.7C155.1,114.4,154.9,114.5,154.7,114.5z M154,124.2v-7.9h1.3v7.9H154z"/>
		<path class="st2" d="M157.7,124.2v-7.9h1.2l0.1,1.4c0.3-0.5,0.6-0.9,1.1-1.2s1-0.4,1.6-0.4c0.9,0,1.7,0.3,2.2,0.9
			c0.6,0.6,0.8,1.5,0.8,2.6v4.6h-1.3v-4.5c0-1.6-0.7-2.5-2.1-2.5c-0.7,0-1.2,0.2-1.7,0.7c-0.4,0.5-0.7,1.2-0.7,2.1v4.1L157.7,124.2
			L157.7,124.2z"/>
		<path class="st2" d="M166.3,126.5L166.3,126.5c1-1.1,1.8-2.2,2.4-3.5c0.6-1.3,0.9-2.7,0.9-4.2s-0.3-2.9-0.9-4.1
			c-0.6-1.3-1.4-2.4-2.4-3.4v-0.1h1.4c0.6,0.6,1.1,1.2,1.6,2s0.9,1.6,1.2,2.6c0.3,0.9,0.4,2,0.4,3.1s-0.1,2.1-0.4,3.1
			c-0.3,0.9-0.7,1.8-1.2,2.6s-1,1.4-1.6,2L166.3,126.5L166.3,126.5z"/>
		<path class="st2" d="M30.2,137.3c-0.3,0-0.5-0.1-0.7-0.3s-0.3-0.4-0.3-0.7s0.1-0.5,0.3-0.6c0.2-0.2,0.4-0.3,0.7-0.3
			s0.5,0.1,0.7,0.3s0.3,0.4,0.3,0.6c0,0.3-0.1,0.5-0.3,0.7S30.5,137.3,30.2,137.3z M29.5,147v-7.9h1.3v7.9H29.5z"/>
		<path class="st2" d="M36.3,147.2c-1,0-1.7-0.2-2.4-0.7c-0.6-0.5-1-1.1-1.1-2h1.4c0.1,0.4,0.3,0.8,0.7,1.1s0.8,0.5,1.5,0.5
			c0.6,0,1-0.1,1.2-0.4c0.3-0.2,0.4-0.5,0.4-0.9c0-0.5-0.2-0.8-0.5-1s-0.8-0.3-1.5-0.4c-0.4-0.1-0.8-0.2-1.3-0.4s-0.8-0.4-1.1-0.7
			s-0.4-0.7-0.4-1.2c0-0.7,0.3-1.3,0.8-1.7s1.2-0.7,2.1-0.7c0.8,0,1.5,0.2,2.1,0.6c0.5,0.4,0.9,1,0.9,1.8h-1.3c0-0.4-0.2-0.7-0.5-1
			c-0.3-0.2-0.7-0.3-1.2-0.3s-0.9,0.1-1.1,0.3c-0.3,0.2-0.4,0.5-0.4,0.8s0.2,0.6,0.5,0.8s0.8,0.3,1.4,0.5c0.5,0.1,1,0.2,1.4,0.4
			c0.4,0.1,0.8,0.4,1.1,0.7s0.4,0.7,0.4,1.3c0,0.7-0.3,1.3-0.8,1.8C37.9,147,37.2,147.2,36.3,147.2z"/>
		<path class="st2" d="M48.4,147.2c-0.9,0-1.7-0.3-2.2-0.9c-0.6-0.6-0.8-1.4-0.8-2.6v-4.6h1.3v4.5c0,1.6,0.7,2.5,2,2.5
			c0.7,0,1.3-0.2,1.7-0.7c0.5-0.5,0.7-1.2,0.7-2.1v-4.1h1.3v7.9h-1.2l-0.1-1.4c-0.2,0.5-0.6,0.9-1.1,1.2
			C49.5,147.1,49,147.2,48.4,147.2z"/>
		<path class="st2" d="M54.6,150.5V139h1.2l0.1,1.3c0.3-0.4,0.6-0.7,1.1-1s1.1-0.5,1.8-0.5c0.8,0,1.5,0.2,2.1,0.5
			c0.6,0.4,1,0.9,1.4,1.5c0.3,0.6,0.5,1.3,0.5,2.1s-0.2,1.5-0.5,2.1s-0.8,1.1-1.4,1.5s-1.3,0.5-2.1,0.5c-0.7,0-1.2-0.1-1.7-0.4
			s-0.9-0.6-1.2-1.1v4.9L54.6,150.5C54.6,150.4,54.6,150.5,54.6,150.5z M58.7,146c0.5,0,1-0.1,1.4-0.4c0.4-0.2,0.7-0.6,1-1
			c0.2-0.5,0.3-1,0.3-1.6s-0.1-1.1-0.3-1.6c-0.2-0.4-0.6-0.8-1-1s-0.9-0.4-1.4-0.4s-1,0.1-1.4,0.4c-0.4,0.2-0.7,0.6-1,1
			c-0.2,0.5-0.3,1-0.3,1.6s0.1,1.1,0.3,1.6s0.6,0.8,1,1C57.7,145.9,58.2,146,58.7,146z"/>
		<path class="st2" d="M72,147c-0.7,0-1.3-0.2-1.7-0.5c-0.4-0.4-0.6-1-0.6-1.9v-4.4h-1.4v-1.1h1.4l0.2-1.9h1.2v1.9h2.3v1.1h-2.3v4.4
			c0,0.5,0.1,0.8,0.3,1c0.2,0.2,0.6,0.3,1.1,0.3h0.8v1.1L72,147L72,147z"/>
		<path class="st2" d="M78.5,147.2c-0.8,0-1.4-0.2-2-0.5s-1.1-0.8-1.4-1.5c-0.3-0.6-0.5-1.4-0.5-2.2s0.2-1.6,0.5-2.2
			s0.8-1.1,1.4-1.4s1.3-0.5,2-0.5s1.4,0.2,2,0.5s1.1,0.8,1.4,1.4s0.5,1.4,0.5,2.2s-0.2,1.6-0.5,2.2c-0.4,0.6-0.8,1.1-1.4,1.5
			C79.9,147,79.2,147.2,78.5,147.2z M78.5,146.1c0.5,0,0.9-0.1,1.3-0.3s0.7-0.6,1-1s0.4-1,0.4-1.7s-0.1-1.2-0.4-1.7s-0.6-0.8-0.9-1
			c-0.4-0.2-0.8-0.3-1.3-0.3s-0.9,0.1-1.3,0.3s-0.7,0.6-1,1c-0.2,0.5-0.4,1-0.4,1.7s0.1,1.2,0.4,1.7s0.6,0.8,0.9,1
			C77.6,145.9,78,146.1,78.5,146.1z"/>
		<path class="st2" d="M92.7,147.2c-0.8,0-1.5-0.1-2-0.5c-0.6-0.3-1-0.7-1.3-1.2s-0.6-1.1-0.7-1.7c-0.2-0.6-0.2-1.3-0.2-1.9
			c0-1.2,0.2-2.3,0.5-3.3c0.3-0.9,0.8-1.7,1.5-2.2c0.6-0.5,1.4-0.8,2.3-0.8c0.7,0,1.3,0.1,1.8,0.4s0.9,0.6,1.2,1.1
			c0.3,0.5,0.5,1,0.6,1.5h-1.2c-0.1-0.6-0.4-1.1-0.8-1.4c-0.4-0.3-0.9-0.5-1.5-0.5c-0.8,0-1.6,0.4-2.1,1.2s-0.9,2-0.9,3.7
			c0.3-0.5,0.7-0.9,1.2-1.3c0.6-0.4,1.2-0.6,2-0.6c0.6,0,1.2,0.1,1.8,0.5c0.6,0.3,1,0.7,1.4,1.3c0.4,0.5,0.5,1.2,0.5,1.9
			c0,0.6-0.1,1.2-0.5,1.8c-0.3,0.6-0.8,1-1.3,1.4C94.2,147,93.5,147.2,92.7,147.2z M92.6,146c0.5,0,0.9-0.1,1.3-0.3s0.7-0.5,0.9-0.9
			c0.2-0.4,0.3-0.8,0.3-1.3c0-0.8-0.2-1.4-0.7-1.8s-1.1-0.7-1.9-0.7c-0.5,0-1,0.1-1.3,0.3c-0.4,0.2-0.7,0.5-0.9,0.9
			c-0.2,0.4-0.3,0.8-0.3,1.2c0,0.5,0.1,0.9,0.3,1.3c0.2,0.4,0.5,0.7,0.9,0.9C91.6,145.9,92.1,146,92.6,146z"/>
		<path class="st2" d="M103.1,147.2c-1,0-1.8-0.2-2.6-0.7s-1.3-1.2-1.7-2c-0.4-0.9-0.6-1.9-0.6-3s0.2-2.2,0.6-3
			c0.4-0.9,0.9-1.6,1.7-2c0.7-0.5,1.6-0.7,2.6-0.7s1.8,0.2,2.6,0.7c0.7,0.5,1.3,1.2,1.6,2c0.4,0.9,0.6,1.9,0.6,3s-0.2,2.2-0.6,3
			c-0.4,0.9-0.9,1.5-1.6,2S104.1,147.2,103.1,147.2z M103.1,146c0.7,0,1.2-0.2,1.7-0.6s0.9-0.9,1.2-1.6s0.4-1.5,0.4-2.5
			s-0.1-1.8-0.4-2.5s-0.7-1.2-1.2-1.6s-1.1-0.5-1.7-0.5c-0.7,0-1.2,0.2-1.8,0.5c-0.6,0.3-0.9,0.9-1.2,1.6c-0.3,0.7-0.4,1.5-0.4,2.5
			s0.2,1.8,0.4,2.5c0.3,0.7,0.7,1.2,1.2,1.6C101.9,145.9,102.4,146,103.1,146z"/>
		<path class="st2" d="M111.8,141c-0.5,0-0.9-0.1-1.3-0.3s-0.7-0.5-0.9-0.9s-0.3-0.9-0.3-1.4s0.1-1,0.3-1.4s0.5-0.7,0.9-0.9
			s0.8-0.3,1.3-0.3s0.9,0.1,1.3,0.3s0.7,0.5,0.9,0.9s0.3,0.9,0.3,1.4c0,0.6-0.1,1-0.3,1.4s-0.5,0.7-0.9,0.9
			C112.8,140.9,112.3,141,111.8,141z M111.8,140c0.4,0,0.7-0.1,1-0.4s0.4-0.7,0.4-1.2s-0.1-1-0.4-1.3s-0.6-0.4-1-0.4s-0.7,0.1-1,0.4
			s-0.4,0.7-0.4,1.3c0,0.5,0.1,1,0.4,1.2C111.1,139.9,111.5,140,111.8,140z M110.8,147l6.5-11.2h1.3l-6.5,11.2H110.8z M117.8,147.2
			c-0.5,0-0.9-0.1-1.3-0.3s-0.7-0.5-0.9-0.9s-0.3-0.9-0.3-1.4c0-0.6,0.1-1,0.3-1.4s0.5-0.7,0.9-0.9s0.8-0.3,1.3-0.3s0.9,0.1,1.3,0.3
			s0.7,0.5,0.9,0.9s0.3,0.9,0.3,1.4s-0.1,1-0.3,1.4s-0.5,0.7-0.9,0.9S118.3,147.2,117.8,147.2z M117.8,146.2c0.4,0,0.7-0.1,1-0.4
			s0.4-0.7,0.4-1.2c0-0.6-0.1-1-0.4-1.2s-0.6-0.4-1-0.4s-0.7,0.1-1,0.4s-0.4,0.7-0.4,1.2s0.1,0.9,0.4,1.2
			C117.1,146,117.4,146.2,117.8,146.2z"/>
		<path class="st2" d="M126.3,147v-7.9h1.2l0.1,1.1c0.3-0.4,0.6-0.8,1-1s0.9-0.4,1.4-0.4c0.6,0,1.2,0.1,1.6,0.4
			c0.4,0.3,0.8,0.6,1.1,1.2c0.3-0.5,0.7-0.9,1.1-1.1c0.5-0.3,1-0.4,1.6-0.4c0.9,0,1.7,0.3,2.3,0.9s0.9,1.5,0.9,2.6v4.6h-1.3v-4.5
			c0-0.8-0.2-1.4-0.5-1.9s-0.8-0.6-1.4-0.6c-0.6,0-1.2,0.2-1.6,0.7c-0.4,0.5-0.6,1.2-0.6,2.1v4.1h-1.3v-4.5c0-0.8-0.2-1.4-0.5-1.9
			c-0.3-0.4-0.8-0.6-1.4-0.6c-0.6,0-1.2,0.2-1.6,0.7c-0.4,0.5-0.6,1.2-0.6,2.1v4.1L126.3,147L126.3,147z"/>
		<path class="st2" d="M144.3,147.2c-0.8,0-1.4-0.2-2-0.5s-1.1-0.8-1.4-1.5c-0.3-0.6-0.5-1.4-0.5-2.2s0.2-1.6,0.5-2.2
			s0.8-1.1,1.4-1.4c0.6-0.3,1.3-0.5,2-0.5c0.8,0,1.4,0.2,2,0.5s1.1,0.8,1.4,1.4c0.3,0.6,0.5,1.4,0.5,2.2s-0.2,1.6-0.5,2.2
			s-0.8,1.1-1.4,1.5S145,147.2,144.3,147.2z M144.3,146.1c0.5,0,0.9-0.1,1.3-0.3c0.4-0.2,0.7-0.6,1-1s0.4-1,0.4-1.7
			s-0.1-1.2-0.4-1.7c-0.2-0.4-0.6-0.8-0.9-1c-0.4-0.2-0.8-0.3-1.3-0.3s-0.9,0.1-1.3,0.3c-0.4,0.2-0.7,0.6-1,1
			c-0.2,0.5-0.4,1-0.4,1.7s0.1,1.2,0.4,1.7c0.2,0.5,0.6,0.8,0.9,1C143.4,145.9,143.8,146.1,144.3,146.1z"/>
		<path class="st2" d="M150.1,147v-7.9h1.2l0.1,1.5c0.2-0.5,0.6-0.9,1.1-1.2s1.1-0.5,1.9-0.5v1.4H154c-0.5,0-0.9,0.1-1.3,0.2
			c-0.4,0.2-0.7,0.5-0.9,0.8c-0.2,0.4-0.4,0.9-0.4,1.6v4L150.1,147L150.1,147L150.1,147z"/>
		<path class="st2" d="M159.2,147.2c-0.8,0-1.4-0.2-2-0.5s-1.1-0.8-1.4-1.4c-0.3-0.6-0.5-1.4-0.5-2.2s0.2-1.6,0.5-2.2
			s0.8-1.1,1.4-1.5c0.6-0.3,1.3-0.5,2.1-0.5s1.4,0.2,2,0.5c0.6,0.4,1,0.8,1.3,1.4s0.4,1.2,0.4,1.8c0,0.1,0,0.2,0,0.4
			c0,0.1,0,0.2,0,0.4h-6.3c0,0.6,0.2,1.1,0.4,1.5s0.6,0.7,0.9,0.9c0.4,0.2,0.8,0.3,1.2,0.3c0.6,0,1-0.1,1.4-0.4s0.7-0.6,0.8-1h1.3
			c-0.2,0.7-0.6,1.4-1.2,1.8C160.9,147,160.1,147.2,159.2,147.2z M159.2,140c-0.6,0-1.2,0.2-1.7,0.6s-0.8,1-0.9,1.7h5
			c0-0.7-0.3-1.3-0.7-1.7C160.4,140.2,159.9,140,159.2,140z"/>
		<path class="st2" d="M171.6,147.2c-0.7,0-1.2-0.1-1.6-0.3c-0.4-0.2-0.8-0.5-1-0.9s-0.3-0.8-0.3-1.2c0-0.8,0.3-1.4,0.9-1.9
			c0.6-0.4,1.5-0.7,2.5-0.7h2.1v-0.1c0-0.7-0.2-1.2-0.5-1.6c-0.4-0.4-0.8-0.5-1.5-0.5c-0.5,0-1,0.1-1.4,0.4s-0.6,0.6-0.7,1.1h-1.4
			c0.1-0.6,0.2-1.1,0.6-1.5c0.3-0.4,0.8-0.7,1.3-0.9s1-0.3,1.6-0.3c1.1,0,1.9,0.3,2.5,0.9s0.8,1.4,0.8,2.4v4.9h-1.2l-0.1-1.4
			c-0.2,0.5-0.6,0.8-1,1.1C172.9,147.1,172.4,147.2,171.6,147.2z M171.8,146.1c0.5,0,0.9-0.1,1.3-0.4c0.4-0.3,0.6-0.6,0.8-1
			s0.3-0.9,0.3-1.3l0,0h-2c-0.8,0-1.3,0.1-1.7,0.4c-0.3,0.3-0.5,0.6-0.5,1s0.2,0.8,0.5,1C170.8,145.9,171.3,146.1,171.8,146.1z"/>
		<path class="st2" d="M181.3,147.2c-0.8,0-1.4-0.2-2-0.5s-1.1-0.8-1.4-1.5c-0.4-0.6-0.5-1.4-0.5-2.2s0.2-1.6,0.5-2.2
			s0.8-1.1,1.4-1.5c0.6-0.3,1.3-0.5,2-0.5c0.9,0,1.7,0.2,2.4,0.7c0.6,0.5,1.1,1.2,1.2,2h-1.4c-0.1-0.5-0.4-0.9-0.8-1.1
			c-0.4-0.3-0.9-0.4-1.5-0.4c-0.5,0-0.9,0.1-1.3,0.3c-0.4,0.2-0.7,0.6-1,1c-0.2,0.4-0.4,1-0.4,1.7s0.1,1.2,0.4,1.7
			c0.2,0.4,0.6,0.8,1,1s0.8,0.3,1.3,0.3s1-0.1,1.5-0.4s0.7-0.7,0.8-1.2h1.4c-0.2,0.8-0.6,1.5-1.2,2C183,147,182.2,147.2,181.3,147.2
			z"/>
		<path class="st2" d="M189.7,147c-0.7,0-1.3-0.2-1.7-0.5c-0.4-0.4-0.6-1-0.6-1.9v-4.4H186v-1.1h1.4l0.2-1.9h1.2v1.9h2.3v1.1h-2.3
			v4.4c0,0.5,0.1,0.8,0.3,1s0.6,0.3,1.1,0.3h0.8v1.1L189.7,147L189.7,147z"/>
		<path class="st2" d="M193.6,137.3c-0.3,0-0.5-0.1-0.7-0.3s-0.3-0.4-0.3-0.7s0.1-0.5,0.3-0.6c0.2-0.2,0.4-0.3,0.7-0.3
			s0.5,0.1,0.7,0.3s0.3,0.4,0.3,0.6c0,0.3-0.1,0.5-0.3,0.7C194,137.2,193.8,137.3,193.6,137.3z M192.9,147v-7.9h1.3v7.9H192.9z"/>
		<path class="st2" d="M198.8,147l-3-7.9h1.4l2.4,6.6l2.4-6.6h1.4l-3,7.9H198.8z"/>
		<path class="st2" d="M208.1,147.2c-0.8,0-1.4-0.2-2-0.5s-1.1-0.8-1.4-1.4c-0.3-0.6-0.5-1.4-0.5-2.2s0.2-1.6,0.5-2.2
			s0.8-1.1,1.4-1.5c0.6-0.3,1.3-0.5,2.1-0.5s1.4,0.2,2,0.5c0.6,0.4,1,0.8,1.3,1.4s0.5,1.2,0.5,1.8c0,0.1,0,0.2,0,0.4
			c0,0.1,0,0.2,0,0.4h-6.3c0,0.6,0.2,1.1,0.4,1.5s0.6,0.7,0.9,0.9c0.4,0.2,0.8,0.3,1.2,0.3c0.6,0,1-0.1,1.4-0.4s0.6-0.6,0.8-1h1.3
			c-0.2,0.7-0.6,1.4-1.2,1.8C209.8,147,209,147.2,208.1,147.2z M208.1,140c-0.6,0-1.2,0.2-1.7,0.6s-0.8,1-0.9,1.7h5
			c0-0.7-0.3-1.3-0.7-1.7C209.3,140.2,208.7,140,208.1,140z"/>
		<path class="st2" d="M212.5,148.9l0.9-3.5h1.4l-1.4,3.5H212.5z"/>
		<path class="st3" d="M176.4,86.9c0,10.9,8.9,19.8,19.8,19.8c0.4,0,11.7,0,15.1,0c1,10,9.5,17.8,19.7,17.8c2.4,0,4.7-0.4,6.9-1.2
			l18.1,16.8c3,2.8,7.8,0.7,7.8-3.4h6.5c6.8,0,12.3-5.5,12.3-12.2h-13.2c-1.3,0-2.2-1.2-2-2.5c0.2-1,1.1-1.6,2.1-1.6h21.1
			c8.9-0.5,16-7.8,16-16.9c0-8.7-6.6-15.9-15-16.8c-1-0.1-1.8-1-1.8-2c0-1.2,1.1-2.2,2.2-2c3.5,0.4,6.6,1.6,9.4,3.5
			c1.1-2.3,1.7-4.9,1.7-7.6c0-8.6-6.2-15.8-14.3-17.4c-1.8-8.2-9.1-14.3-17.9-14.3c-1.6,0-3.1,0.2-4.5,0.6
			c-4.4,1.3-8.2,4.4-10.4,8.6c-0.4,0.7-1.1,1.1-1.8,1.1c-0.3,0-0.6-0.1-1-0.2c-1-0.5-1.4-1.8-0.8-2.8c2-3.7,4.8-6.6,8.3-8.6
			c-3.3-2.7-7.4-4.3-12-4.3c-5.5,0-10.4,2.4-13.9,6.1c-2.8-1.9-6.2-3-9.8-3h-0.1c-9.7,0-17.6,7.9-17.6,17.6c0,1.1-0.9,2-2,2
			s-2-0.9-2-2c0-4,1.1-7.7,3-10.9l0,0c-9.5-0.6-17.6,6.4-18.7,15.5C178.4,73.1,176.4,79.5,176.4,86.9z M253,104.6
			c2.1-4,6.5-5.5,9.4-6.1c-0.8-1.9-1.2-4.1-1.2-6.3c0-1.1,0.9-2,2-2s2,0.9,2,2c0,7.1,5.8,12.9,12.9,12.9c1.1,0,2,0.9,2,2s-0.9,2-2,2
			c-5.6,0-10.6-2.7-13.7-6.9c-1.8,0.2-6.3,1.1-7.9,4.2c-0.4,0.7-1.1,1.1-1.8,1.1c-0.3,0-0.6-0.1-0.9-0.2
			C252.8,106.8,252.5,105.6,253,104.6z M228.6,79.3c-3.5-2.4-5.8-6.2-6.1-10.5c-0.1-1.2,0.9-2.2,2.1-2.2c1.1,0,1.9,0.9,2,2
			c0.3,3.2,2.1,6,4.8,7.6c2.1-1.7,4.6-2.8,7.3-3.2c0.4-0.1,0.9-0.1,1.4-0.1c-1.8-2.9-2.7-6.4-2.4-10c0.1-1.1,1.1-1.9,2.2-1.8
			c1.1,0.1,1.9,1.1,1.8,2.2c-0.4,4.5,1.6,8.8,5.4,11.2c0,0,4.6,2.6,9,1.6c3.1-0.7,5.7-2.5,7.4-5.1c0.6-0.9,1.7-1.3,2.7-0.8
			c1.1,0.6,1.5,1.9,0.8,2.9c-2.3,3.6-5.9,6.1-10,7c-1.1,0.2-2.3,0.4-3.5,0.4c-3.9,0-7-1.6-7.9-2.2c-0.2-0.1-0.4-0.2-0.7-0.3
			c-1.8-0.8-3.8-1.1-5.7-0.9c-2.8,0.4-5.2,1.8-6.9,4c-1.3,1.8-2.1,3.8-2.2,6c0,1-0.8,1.9-1.8,2c-1.2,0.2-2.3-0.8-2.3-2.1
			C226.2,84.3,227.1,81.6,228.6,79.3z M197.8,81.6c0-1.1,0.9-2,2-2s2,0.9,2,2c0,7.1,5.8,12.9,12.9,12.9c1.1,0,2,0.9,2,2s-0.9,2-2,2
			C205.5,98.6,197.8,90.9,197.8,81.6z"/>
		<path class="st4" d="M230.1,116.2c3.2,0,5.7-2.2,5.7-5s-2.6-5-5.7-5s-5.7,2.2-5.7,5C224.3,114,226.9,116.2,230.1,116.2z"/>
	</g>
</g>
</svg>
