<?xml version="1.0" encoding="utf-8"?>
<!-- Generator: Adobe Illustrator 25.1.0, SVG Export Plug-In . SVG Version: 6.00 Build 0)  -->
<svg version="1.1" id="Layer_1" xmlns="http://www.w3.org/2000/svg" xmlns:xlink="http://www.w3.org/1999/xlink" x="0px" y="0px"
	 viewBox="0 0 336 326.5" style="enable-background:new 0 0 336 326.5;" xml:space="preserve">
<style type="text/css">
	.st0{fill:#FFFFFF;}
	.st1{fill:#808080;}
	.st2{fill:#00CDDC;}
	.st3{fill:#32DCD2;}
	.st4{fill:none;stroke:#28C86E;stroke-width:2.8421;stroke-linecap:round;stroke-miterlimit:10;}
	.st5{fill:#FFCF8D;}
	.st6{fill:#FF9F1A;}
	.st7{fill:#00A878;}
	.st8{fill:#646464;}
</style>
<g>
	<g>
		<path class="st0" d="M333.4,274c0-116.4,14.5-250.1-25.2-264.9C285,0.5,5-12.9,3.6,29C3,47-12.6,295.1,26.5,315.7
			c36.5,19.2,169.7,7.3,213.1,6.5C284.5,321.4,333.4,324.8,333.4,274z"/>
		<path class="st1" d="M37,53.6V43.5h-3.3v-1.1h8v1.1h-3.3v10.1H37z"/>
		<path class="st1" d="M43.2,53.6V42h1.3v4.9c0.3-0.5,0.6-0.9,1.1-1.1c0.5-0.3,1-0.4,1.6-0.4c0.9,0,1.7,0.3,2.2,0.9
			c0.5,0.6,0.8,1.5,0.8,2.6v4.6H49V49c0-1.6-0.7-2.5-2-2.5c-0.7,0-1.3,0.2-1.7,0.7c-0.5,0.5-0.7,1.2-0.7,2.1v4.1L43.2,53.6
			L43.2,53.6z"/>
		<path class="st1" d="M55.9,53.8c-0.8,0-1.4-0.2-2-0.5s-1-0.8-1.4-1.4c-0.3-0.6-0.5-1.4-0.5-2.2s0.2-1.6,0.5-2.2
			c0.3-0.6,0.8-1.1,1.4-1.5c0.6-0.3,1.3-0.5,2.1-0.5s1.4,0.2,2,0.5c0.6,0.4,1,0.8,1.3,1.4c0.3,0.6,0.4,1.2,0.4,1.8
			c0,0.1,0,0.2,0,0.4c0,0.1,0,0.2,0,0.4h-6.3c0,0.6,0.2,1.1,0.4,1.5s0.6,0.7,0.9,0.9c0.4,0.2,0.8,0.3,1.2,0.3c0.5,0,1-0.1,1.4-0.4
			c0.4-0.3,0.7-0.6,0.8-1h1.3c-0.2,0.7-0.6,1.4-1.2,1.8C57.7,53.5,56.9,53.8,55.9,53.8z M55.9,46.6c-0.6,0-1.2,0.2-1.7,0.6
			c-0.5,0.4-0.8,1-0.9,1.7h5c0-0.7-0.3-1.3-0.7-1.7C57.2,46.8,56.6,46.6,55.9,46.6z"/>
		<path class="st1" d="M68.8,53.8c-0.9,0-1.7-0.2-2.4-0.7c-0.6-0.5-1-1.1-1.1-1.9h1.4c0.1,0.4,0.3,0.8,0.7,1.1
			c0.4,0.3,0.8,0.5,1.4,0.5s1-0.1,1.2-0.4c0.3-0.2,0.4-0.5,0.4-0.9c0-0.5-0.2-0.8-0.5-1s-0.8-0.3-1.5-0.4c-0.4-0.1-0.9-0.2-1.3-0.4
			S66.3,49.3,66,49s-0.4-0.7-0.4-1.2c0-0.7,0.3-1.3,0.8-1.7s1.2-0.7,2.1-0.7c0.8,0,1.5,0.2,2.1,0.6c0.5,0.4,0.8,1,0.9,1.8h-1.3
			c-0.1-0.4-0.2-0.7-0.5-0.9s-0.7-0.3-1.2-0.3s-0.8,0.1-1.1,0.3c-0.3,0.2-0.4,0.5-0.4,0.8s0.2,0.6,0.5,0.8s0.8,0.3,1.4,0.5
			c0.5,0.1,1,0.2,1.4,0.4c0.4,0.1,0.8,0.4,1.1,0.7c0.3,0.3,0.4,0.7,0.4,1.3c0,0.7-0.3,1.3-0.8,1.8C70.4,53.5,69.7,53.8,68.8,53.8z"
			/>
		<path class="st1" d="M73.7,53.6V42H75v11.5L73.7,53.6L73.7,53.6z"/>
		<path class="st1" d="M80.8,53.8c-0.8,0-1.4-0.2-2-0.5s-1-0.8-1.4-1.4c-0.3-0.6-0.5-1.4-0.5-2.2s0.2-1.6,0.5-2.2
			c0.3-0.6,0.8-1.1,1.4-1.5c0.6-0.3,1.3-0.5,2.1-0.5c0.8,0,1.4,0.2,2,0.5c0.6,0.4,1,0.8,1.3,1.4c0.3,0.6,0.4,1.2,0.4,1.8
			c0,0.1,0,0.2,0,0.4c0,0.1,0,0.2,0,0.4h-6.3c0,0.6,0.2,1.1,0.4,1.5c0.2,0.4,0.6,0.7,0.9,0.9c0.4,0.2,0.8,0.3,1.2,0.3
			c0.5,0,1-0.1,1.4-0.4c0.4-0.3,0.6-0.6,0.8-1h1.3c-0.2,0.7-0.6,1.4-1.2,1.8C82.6,53.5,81.8,53.8,80.8,53.8z M80.8,46.6
			c-0.6,0-1.2,0.2-1.7,0.6c-0.5,0.4-0.8,1-0.9,1.7h5c0-0.7-0.3-1.3-0.7-1.7C82.1,46.8,81.5,46.6,80.8,46.6z"/>
		<path class="st1" d="M89.9,53.8c-0.8,0-1.4-0.2-2-0.5s-1-0.8-1.4-1.4c-0.3-0.6-0.5-1.4-0.5-2.2s0.2-1.6,0.5-2.2
			c0.3-0.6,0.8-1.1,1.4-1.5c0.6-0.3,1.3-0.5,2.1-0.5c0.8,0,1.4,0.2,2,0.5c0.6,0.4,1,0.8,1.3,1.4c0.3,0.6,0.4,1.2,0.4,1.8
			c0,0.1,0,0.2,0,0.4c0,0.1,0,0.2,0,0.4h-6.3c0,0.6,0.2,1.1,0.4,1.5c0.2,0.4,0.6,0.7,0.9,0.9c0.4,0.2,0.8,0.3,1.2,0.3
			c0.5,0,1-0.1,1.4-0.4c0.4-0.2,0.7-0.6,0.8-1h1.3c-0.2,0.7-0.6,1.4-1.2,1.8C91.7,53.5,90.9,53.8,89.9,53.8z M89.9,46.6
			c-0.6,0-1.2,0.2-1.7,0.6c-0.5,0.4-0.8,1-0.9,1.7h5c0-0.7-0.3-1.3-0.7-1.7C91.2,46.8,90.6,46.6,89.9,46.6z"/>
		<path class="st1" d="M95.5,57.1V45.7h1.2l0.1,1.3c0.3-0.4,0.6-0.7,1.1-1s1.1-0.5,1.8-0.5c0.8,0,1.5,0.2,2.1,0.5
			c0.6,0.4,1,0.9,1.4,1.5s0.5,1.3,0.5,2.1s-0.2,1.5-0.5,2.1s-0.8,1.1-1.4,1.5s-1.3,0.5-2.1,0.5c-0.7,0-1.2-0.1-1.7-0.4
			c-0.5-0.3-0.9-0.6-1.2-1.1V57L95.5,57.1L95.5,57.1z M99.6,52.6c0.5,0,1-0.1,1.4-0.4c0.4-0.2,0.7-0.6,1-1.1c0.2-0.4,0.3-1,0.3-1.6
			s-0.1-1.1-0.3-1.6c-0.2-0.4-0.6-0.8-1-1.1c-0.4-0.2-0.9-0.4-1.4-0.4s-1,0.1-1.4,0.4c-0.4,0.2-0.7,0.6-1,1.1
			c-0.2,0.4-0.3,1-0.3,1.6s0.1,1.1,0.3,1.6c0.2,0.4,0.6,0.8,1,1.1C98.6,52.5,99,52.6,99.6,52.6z"/>
		<path class="st1" d="M109.8,53.6V42h1.3v4.9c0.3-0.5,0.6-0.9,1.1-1.1c0.5-0.3,1-0.4,1.6-0.4c0.9,0,1.7,0.3,2.2,0.9
			c0.6,0.6,0.8,1.5,0.8,2.6v4.6h-1.3V49c0-1.6-0.7-2.5-2-2.5c-0.7,0-1.3,0.2-1.7,0.7c-0.5,0.5-0.7,1.2-0.7,2.1v4.1L109.8,53.6
			L109.8,53.6z"/>
		<path class="st1" d="M119.5,57.1l2-4.3H121l-3.2-7.2h1.5l2.6,6.2l2.8-6.2h1.4l-5.2,11.5H119.5z"/>
		<path class="st1" d="M130.2,51.1c-0.5,0-0.9-0.1-1.2-0.2l-0.8,0.8c0.1,0.1,0.3,0.2,0.4,0.2c0.2,0.1,0.4,0.1,0.8,0.2
			s0.8,0.1,1.4,0.1c1.1,0.1,1.8,0.3,2.3,0.7s0.7,1,0.7,1.6c0,0.5-0.1,0.9-0.4,1.3c-0.2,0.4-0.6,0.8-1.1,1c-0.5,0.3-1.2,0.4-2,0.4
			c-0.7,0-1.3-0.1-1.9-0.3c-0.6-0.2-1-0.5-1.3-0.9s-0.5-0.9-0.5-1.4c0-0.3,0.1-0.6,0.2-1c0.2-0.4,0.5-0.7,0.9-1
			c-0.2-0.1-0.4-0.2-0.6-0.3s-0.3-0.2-0.5-0.4v-0.4l1.4-1.3c-0.6-0.5-0.9-1.2-0.9-2.1c0-0.5,0.1-1,0.4-1.4c0.2-0.4,0.6-0.8,1.1-1
			s1-0.4,1.7-0.4c0.5,0,0.9,0.1,1.2,0.2h2.9v1l-1.5,0.1c0.3,0.4,0.5,1,0.5,1.6c0,0.5-0.1,1-0.4,1.4c-0.2,0.4-0.6,0.8-1.1,1
			C131.4,50.9,130.9,51.1,130.2,51.1z M127.9,54.6c0,0.5,0.2,0.9,0.7,1.2s1,0.4,1.7,0.4s1.2-0.1,1.6-0.4c0.4-0.3,0.6-0.7,0.6-1.2
			c0-0.3-0.1-0.6-0.4-0.9s-0.8-0.4-1.5-0.4c-0.6,0-1.1-0.1-1.5-0.2c-0.4,0.2-0.7,0.5-0.9,0.8S127.9,54.4,127.9,54.6z M130.2,50
			c0.6,0,1-0.2,1.3-0.4c0.3-0.3,0.5-0.7,0.5-1.3c0-0.5-0.2-1-0.5-1.3s-0.8-0.4-1.3-0.4c-0.6,0-1,0.1-1.4,0.4
			c-0.3,0.3-0.5,0.7-0.5,1.3s0.2,1,0.5,1.3C129.2,49.8,129.6,50,130.2,50z"/>
		<path class="st1" d="M136.7,43.9c-0.3,0-0.5-0.1-0.7-0.3s-0.3-0.4-0.3-0.7s0.1-0.5,0.3-0.6c0.2-0.2,0.4-0.3,0.7-0.3
			s0.5,0.1,0.7,0.3s0.3,0.4,0.3,0.6c0,0.3-0.1,0.5-0.3,0.7C137.2,43.8,137,43.9,136.7,43.9z M136.1,53.6v-7.9h1.3v7.9H136.1z"/>
		<path class="st1" d="M143.3,53.8c-0.8,0-1.4-0.2-2-0.5s-1.1-0.8-1.4-1.4c-0.3-0.6-0.5-1.4-0.5-2.2s0.2-1.6,0.5-2.2
			c0.3-0.6,0.8-1.1,1.4-1.5c0.6-0.3,1.3-0.5,2.1-0.5s1.4,0.2,2,0.5c0.6,0.4,1,0.8,1.3,1.4c0.3,0.6,0.5,1.2,0.5,1.8
			c0,0.1,0,0.2,0,0.4c0,0.1,0,0.2,0,0.4h-6.3c0,0.6,0.2,1.1,0.4,1.5s0.6,0.7,0.9,0.9c0.4,0.2,0.8,0.3,1.2,0.3c0.6,0,1-0.1,1.4-0.4
			s0.6-0.6,0.8-1h1.3c-0.2,0.7-0.6,1.4-1.2,1.8C145,53.5,144.2,53.8,143.3,53.8z M143.3,46.6c-0.6,0-1.2,0.2-1.7,0.6
			c-0.5,0.4-0.8,1-0.9,1.7h5c0-0.7-0.3-1.3-0.7-1.7C144.5,46.8,144,46.6,143.3,46.6z"/>
		<path class="st1" d="M148.8,53.6v-7.9h1.2l0.1,1.4c0.3-0.5,0.6-0.9,1.1-1.2s1-0.4,1.6-0.4c0.9,0,1.7,0.3,2.2,0.9
			c0.6,0.6,0.8,1.5,0.8,2.6v4.6h-1.3v-4.5c0-1.6-0.7-2.5-2-2.5c-0.7,0-1.2,0.2-1.7,0.7c-0.4,0.5-0.7,1.2-0.7,2.1v4.1L148.8,53.6
			L148.8,53.6z"/>
		<path class="st1" d="M161.6,53.8c-0.8,0-1.4-0.2-2-0.5s-1-0.8-1.4-1.4c-0.3-0.6-0.5-1.4-0.5-2.2s0.2-1.6,0.5-2.2
			c0.3-0.6,0.8-1.1,1.4-1.5c0.6-0.3,1.3-0.5,2.1-0.5s1.4,0.2,2,0.5c0.6,0.4,1,0.8,1.3,1.4c0.3,0.6,0.4,1.2,0.4,1.8
			c0,0.1,0,0.2,0,0.4c0,0.1,0,0.2,0,0.4H159c0,0.6,0.2,1.1,0.4,1.5s0.6,0.7,0.9,0.9c0.4,0.2,0.8,0.3,1.2,0.3c0.6,0,1-0.1,1.4-0.4
			c0.4-0.3,0.7-0.6,0.8-1h1.3c-0.2,0.7-0.6,1.4-1.2,1.8C163.3,53.5,162.5,53.8,161.6,53.8z M161.6,46.6c-0.6,0-1.2,0.2-1.7,0.6
			c-0.5,0.4-0.8,1-0.9,1.7h5c0-0.7-0.3-1.3-0.7-1.7C162.8,46.8,162.2,46.6,161.6,46.6z"/>
		<path class="st1" d="M174.4,53.8c-0.9,0-1.7-0.2-2.4-0.7s-1-1.1-1.1-1.9h1.4c0.1,0.4,0.3,0.8,0.7,1.1s0.8,0.5,1.4,0.5
			c0.6,0,1-0.1,1.2-0.4c0.3-0.2,0.4-0.5,0.4-0.9c0-0.5-0.2-0.8-0.5-1c-0.4-0.2-0.8-0.3-1.5-0.4c-0.4-0.1-0.8-0.2-1.3-0.4
			c-0.4-0.2-0.8-0.4-1.1-0.7s-0.4-0.7-0.4-1.2c0-0.7,0.3-1.3,0.8-1.7s1.2-0.7,2.1-0.7c0.8,0,1.5,0.2,2.1,0.6c0.5,0.4,0.9,1,0.9,1.8
			h-1.3c-0.1-0.4-0.2-0.7-0.5-0.9s-0.7-0.3-1.2-0.3s-0.9,0.1-1.1,0.3c-0.3,0.2-0.4,0.5-0.4,0.8s0.2,0.6,0.5,0.8s0.8,0.3,1.4,0.5
			c0.5,0.1,1,0.2,1.4,0.4s0.8,0.4,1.1,0.7s0.4,0.7,0.4,1.3c0,0.7-0.3,1.3-0.8,1.8C176.1,53.5,175.3,53.8,174.4,53.8z"/>
		<path class="st1" d="M182.1,53.6c-0.7,0-1.3-0.2-1.7-0.5c-0.4-0.4-0.6-1-0.6-1.9v-4.4h-1.4v-1.1h1.4l0.2-1.9h1.2v1.9h2.3v1.1h-2.3
			v4.4c0,0.5,0.1,0.8,0.3,1s0.6,0.3,1.1,0.3h0.8v1.1L182.1,53.6L182.1,53.6z"/>
		<path class="st1" d="M185.2,53.6v-7.9h1.2l0.1,1.5c0.2-0.5,0.6-0.9,1.1-1.2s1.1-0.5,1.9-0.5v1.4h-0.4c-0.5,0-0.9,0.1-1.3,0.2
			c-0.4,0.2-0.7,0.4-0.9,0.8c-0.2,0.4-0.3,0.9-0.3,1.6v4L185.2,53.6L185.2,53.6z"/>
		<path class="st1" d="M193.6,53.8c-0.7,0-1.2-0.1-1.6-0.3c-0.4-0.2-0.8-0.5-1-0.9s-0.3-0.8-0.3-1.2c0-0.8,0.3-1.4,0.9-1.9
			c0.6-0.4,1.5-0.7,2.5-0.7h2.1v-0.1c0-0.7-0.2-1.2-0.5-1.6s-0.8-0.5-1.5-0.5c-0.5,0-1,0.1-1.4,0.4c-0.4,0.3-0.6,0.6-0.7,1.1h-1.4
			c0.1-0.6,0.2-1.1,0.6-1.5c0.3-0.4,0.8-0.7,1.3-0.9s1-0.3,1.6-0.3c1.1,0,1.9,0.3,2.5,0.9c0.6,0.6,0.8,1.4,0.8,2.4v4.9h-1.2
			l-0.1-1.4c-0.2,0.4-0.6,0.8-1,1.1C194.9,53.6,194.4,53.8,193.6,53.8z M193.8,52.6c0.5,0,0.9-0.1,1.3-0.4c0.4-0.3,0.7-0.6,0.8-1
			c0.2-0.4,0.3-0.9,0.3-1.3l0,0h-2c-0.8,0-1.4,0.1-1.7,0.4c-0.3,0.3-0.5,0.6-0.5,1s0.2,0.8,0.5,1C192.8,52.5,193.3,52.6,193.8,52.6z
			"/>
		<path class="st1" d="M202.6,53.6c-0.7,0-1.3-0.2-1.7-0.5c-0.4-0.4-0.6-1-0.6-1.9v-4.4h-1.4v-1.1h1.4l0.2-1.9h1.2v1.9h2.3v1.1h-2.3
			v4.4c0,0.5,0.1,0.8,0.3,1s0.6,0.3,1.1,0.3h0.8v1.1L202.6,53.6L202.6,53.6z"/>
		<path class="st1" d="M208.9,53.8c-0.8,0-1.4-0.2-2-0.5s-1-0.8-1.4-1.4c-0.3-0.6-0.5-1.4-0.5-2.2s0.2-1.6,0.5-2.2
			c0.3-0.6,0.8-1.1,1.4-1.5c0.6-0.3,1.3-0.5,2.1-0.5s1.4,0.2,2,0.5c0.6,0.4,1,0.8,1.3,1.4c0.3,0.6,0.4,1.2,0.4,1.8
			c0,0.1,0,0.2,0,0.4c0,0.1,0,0.2,0,0.4h-6.3c0,0.6,0.2,1.1,0.4,1.5s0.6,0.7,0.9,0.9c0.4,0.2,0.8,0.3,1.2,0.3c0.6,0,1-0.1,1.4-0.4
			c0.4-0.3,0.7-0.6,0.8-1h1.3c-0.2,0.7-0.6,1.4-1.2,1.8C210.7,53.5,209.9,53.8,208.9,53.8z M208.9,46.6c-0.6,0-1.2,0.2-1.7,0.6
			c-0.5,0.4-0.8,1-0.9,1.7h5c0-0.7-0.3-1.3-0.7-1.7C210.2,46.8,209.6,46.6,208.9,46.6z"/>
		<path class="st1" d="M217.6,51.1c-0.5,0-0.9-0.1-1.2-0.2l-0.8,0.8c0.1,0.1,0.3,0.2,0.4,0.2c0.2,0.1,0.4,0.1,0.8,0.2
			s0.8,0.1,1.4,0.1c1.1,0.1,1.8,0.3,2.3,0.7s0.7,1,0.7,1.6c0,0.5-0.1,0.9-0.4,1.3c-0.2,0.4-0.6,0.8-1.1,1c-0.5,0.3-1.2,0.4-2,0.4
			c-0.7,0-1.3-0.1-1.9-0.3c-0.6-0.2-1-0.5-1.3-0.9s-0.5-0.9-0.5-1.4c0-0.3,0.1-0.6,0.2-1c0.2-0.4,0.5-0.7,0.9-1
			c-0.2-0.1-0.4-0.2-0.6-0.3c-0.2-0.1-0.3-0.2-0.5-0.4v-0.4l1.4-1.3c-0.6-0.5-0.9-1.2-0.9-2.1c0-0.5,0.1-1,0.4-1.4
			c0.2-0.4,0.6-0.8,1.1-1s1-0.4,1.7-0.4c0.5,0,0.9,0.1,1.2,0.2h2.9v1l-1.5,0.1c0.3,0.4,0.5,1,0.5,1.6c0,0.5-0.1,1-0.4,1.4
			c-0.2,0.4-0.6,0.8-1.1,1C218.8,50.9,218.2,51.1,217.6,51.1z M215.2,54.6c0,0.5,0.2,0.9,0.7,1.2s1,0.4,1.7,0.4s1.2-0.1,1.6-0.4
			c0.4-0.3,0.6-0.7,0.6-1.2c0-0.3-0.1-0.6-0.4-0.9s-0.8-0.4-1.5-0.4c-0.6,0-1.1-0.1-1.5-0.2c-0.4,0.2-0.7,0.5-0.9,0.8
			C215.3,54.1,215.2,54.4,215.2,54.6z M217.6,50c0.6,0,1-0.2,1.3-0.4c0.3-0.3,0.5-0.7,0.5-1.3c0-0.5-0.2-1-0.5-1.3s-0.8-0.4-1.3-0.4
			c-0.6,0-1,0.1-1.4,0.4c-0.3,0.3-0.5,0.7-0.5,1.3s0.2,1,0.5,1.3C216.5,49.8,217,50,217.6,50z"/>
		<path class="st1" d="M224.1,43.9c-0.3,0-0.5-0.1-0.7-0.3s-0.3-0.4-0.3-0.7s0.1-0.5,0.3-0.6s0.4-0.3,0.7-0.3s0.5,0.1,0.7,0.3
			s0.3,0.4,0.3,0.6c0,0.3-0.1,0.5-0.3,0.7C224.6,43.8,224.3,43.9,224.1,43.9z M223.4,53.6v-7.9h1.3v7.9H223.4z"/>
		<path class="st1" d="M230.7,53.8c-0.8,0-1.4-0.2-2-0.5s-1.1-0.8-1.4-1.4c-0.3-0.6-0.5-1.4-0.5-2.2s0.2-1.6,0.5-2.2
			c0.3-0.6,0.8-1.1,1.4-1.5c0.6-0.3,1.3-0.5,2.1-0.5s1.4,0.2,2,0.5c0.6,0.4,1,0.8,1.3,1.4c0.3,0.6,0.4,1.2,0.4,1.8
			c0,0.1,0,0.2,0,0.4c0,0.1,0,0.2,0,0.4h-6.3c0,0.6,0.2,1.1,0.4,1.5s0.6,0.7,0.9,0.9c0.4,0.2,0.8,0.3,1.2,0.3c0.6,0,1-0.1,1.4-0.4
			c0.4-0.3,0.6-0.6,0.8-1h1.3c-0.2,0.7-0.6,1.4-1.2,1.8C232.4,53.5,231.6,53.8,230.7,53.8z M230.7,46.6c-0.6,0-1.2,0.2-1.7,0.6
			c-0.5,0.4-0.8,1-0.9,1.7h5c0-0.7-0.3-1.3-0.7-1.7C231.9,46.8,231.3,46.6,230.7,46.6z"/>
		<path class="st1" d="M239.2,53.8c-0.9,0-1.7-0.2-2.4-0.7c-0.6-0.5-1-1.1-1.1-1.9h1.4c0.1,0.4,0.3,0.8,0.7,1.1s0.8,0.5,1.5,0.5
			c0.6,0,1-0.1,1.2-0.4c0.3-0.2,0.4-0.5,0.4-0.9c0-0.5-0.2-0.8-0.5-1c-0.4-0.2-0.8-0.3-1.5-0.4c-0.4-0.1-0.8-0.2-1.3-0.4
			c-0.4-0.2-0.8-0.4-1.1-0.7s-0.4-0.7-0.4-1.2c0-0.7,0.3-1.3,0.8-1.7s1.2-0.7,2.1-0.7c0.8,0,1.5,0.2,2.1,0.6c0.5,0.4,0.9,1,0.9,1.8
			h-1.3c0-0.4-0.2-0.7-0.5-0.9s-0.7-0.3-1.2-0.3s-0.9,0.1-1.1,0.3c-0.3,0.2-0.4,0.5-0.4,0.8s0.2,0.6,0.5,0.8s0.8,0.3,1.4,0.5
			c0.5,0.1,1,0.2,1.4,0.4s0.8,0.4,1.1,0.7s0.4,0.7,0.4,1.3c0,0.7-0.3,1.3-0.8,1.8C240.9,53.5,240.2,53.8,239.2,53.8z"/>
		<path class="st1" d="M249.3,57.1l2-4.3h-0.5l-3.1-7.2h1.5l2.6,6.2l2.8-6.2h1.4l-5.2,11.5H249.3z"/>
		<path class="st1" d="M260.2,53.8c-0.8,0-1.4-0.2-2-0.5s-1.1-0.8-1.4-1.5c-0.4-0.6-0.5-1.4-0.5-2.2s0.2-1.6,0.5-2.2
			c0.4-0.6,0.8-1.1,1.4-1.4c0.6-0.3,1.3-0.5,2-0.5s1.4,0.2,2,0.5s1.1,0.8,1.4,1.4c0.4,0.6,0.5,1.4,0.5,2.2s-0.2,1.6-0.5,2.2
			c-0.4,0.6-0.8,1.1-1.4,1.5C261.6,53.6,260.9,53.8,260.2,53.8z M260.2,52.6c0.5,0,0.9-0.1,1.3-0.3s0.7-0.6,1-1s0.4-1,0.4-1.7
			s-0.1-1.2-0.4-1.7c-0.2-0.4-0.6-0.8-1-1s-0.8-0.3-1.3-0.3s-0.9,0.1-1.3,0.3s-0.7,0.6-1,1c-0.2,0.5-0.4,1-0.4,1.7s0.1,1.2,0.4,1.7
			c0.2,0.4,0.6,0.8,1,1C259.3,52.5,259.8,52.6,260.2,52.6z"/>
		<path class="st1" d="M269,53.8c-0.9,0-1.7-0.3-2.2-0.9c-0.5-0.6-0.8-1.4-0.8-2.6v-4.6h1.3v4.5c0,1.7,0.7,2.5,2,2.5
			c0.7,0,1.3-0.2,1.7-0.7c0.5-0.5,0.7-1.2,0.7-2.1v-4.1h1.4v7.9h-1.2l-0.1-1.4c-0.2,0.5-0.6,0.9-1.1,1.2
			C270.1,53.6,269.6,53.8,269,53.8z"/>
		<path class="st1" d="M274.9,44.6l-0.2-3.2h1.3l-0.2,3.2H274.9z"/>
		<path class="st1" d="M277.7,53.6V42h1.3v11.5L277.7,53.6L277.7,53.6z"/>
		<path class="st1" d="M281.3,53.6V42h1.3v11.5L281.3,53.6L281.3,53.6z"/>
		<path class="st1" d="M34.3,75.6V64h1.3v11.5L34.3,75.6L34.3,75.6z"/>
		<path class="st1" d="M41.4,75.8c-0.8,0-1.4-0.2-2-0.5s-1-0.8-1.4-1.4c-0.3-0.6-0.5-1.4-0.5-2.2s0.2-1.6,0.5-2.2s0.8-1.1,1.4-1.5
			c0.6-0.3,1.3-0.5,2.1-0.5s1.4,0.2,2,0.5c0.6,0.4,1,0.8,1.3,1.4s0.5,1.2,0.5,1.8c0,0.1,0,0.2,0,0.4c0,0.1,0,0.2,0,0.4H39
			c0,0.6,0.2,1.1,0.4,1.5s0.6,0.7,0.9,0.9c0.4,0.2,0.8,0.3,1.2,0.3c0.5,0,1-0.1,1.4-0.4s0.7-0.6,0.8-1H45c-0.2,0.7-0.6,1.4-1.2,1.8
			C43.1,75.5,42.3,75.8,41.4,75.8z M41.4,68.6c-0.6,0-1.2,0.2-1.7,0.6s-0.8,1-0.9,1.7h5c0-0.7-0.3-1.3-0.7-1.7
			C42.6,68.8,42.1,68.6,41.4,68.6z"/>
		<path class="st1" d="M49.6,75.8c-0.7,0-1.2-0.1-1.6-0.3s-0.8-0.5-1-0.9s-0.3-0.8-0.3-1.2c0-0.8,0.3-1.4,0.9-1.9
			c0.6-0.4,1.5-0.7,2.5-0.7h2.1v-0.1c0-0.7-0.2-1.2-0.5-1.6s-0.8-0.5-1.5-0.5c-0.5,0-1,0.1-1.3,0.4c-0.4,0.3-0.6,0.6-0.7,1.1h-1.4
			c0-0.6,0.3-1.1,0.6-1.5s0.8-0.7,1.3-0.9s1-0.3,1.6-0.3c1.1,0,1.9,0.3,2.5,0.9s0.8,1.4,0.8,2.4v4.9h-1.2l-0.1-1.4
			c-0.2,0.4-0.6,0.8-1,1.1S50.3,75.8,49.6,75.8z M49.8,74.6c0.5,0,0.9-0.1,1.3-0.4c0.4-0.3,0.6-0.6,0.8-1s0.3-0.9,0.3-1.3l0,0h-2
			c-0.8,0-1.3,0.1-1.7,0.4c-0.3,0.3-0.5,0.6-0.5,1s0.2,0.8,0.5,1C48.8,74.5,49.2,74.6,49.8,74.6z"/>
		<path class="st1" d="M55.6,75.6v-7.9h1.2l0.1,1.5c0.2-0.5,0.6-0.9,1.1-1.2s1.1-0.5,1.9-0.5v1.4h-0.4c-0.5,0-0.9,0.1-1.3,0.2
			c-0.4,0.2-0.7,0.4-0.9,0.8s-0.4,0.9-0.4,1.6v4L55.6,75.6L55.6,75.6z"/>
		<path class="st1" d="M61.4,75.6v-7.9h1.2l0.1,1.4c0.3-0.5,0.6-0.9,1.1-1.2c0.5-0.3,1-0.4,1.6-0.4c0.9,0,1.7,0.3,2.2,0.9
			c0.6,0.6,0.8,1.5,0.8,2.6v4.6h-1.3v-4.5c0-1.6-0.7-2.5-2.1-2.5c-0.7,0-1.2,0.2-1.7,0.7s-0.7,1.2-0.7,2.1v4.1L61.4,75.6L61.4,75.6z
			"/>
		<path class="st1" d="M75.6,65.9c-0.3,0-0.5-0.1-0.7-0.3s-0.3-0.4-0.3-0.7s0.1-0.5,0.3-0.6c0.2-0.2,0.4-0.3,0.7-0.3
			c0.3,0,0.5,0.1,0.7,0.3s0.3,0.4,0.3,0.6c0,0.3-0.1,0.5-0.3,0.7C76.1,65.8,75.9,65.9,75.6,65.9z M74.9,75.6v-7.9h1.3v7.9H74.9z"/>
		<path class="st1" d="M78.6,75.6v-7.9h1.2l0.1,1.4c0.3-0.5,0.6-0.9,1.1-1.2s1-0.4,1.6-0.4c0.9,0,1.7,0.3,2.2,0.9
			c0.6,0.6,0.8,1.5,0.8,2.6v4.6h-1.3v-4.5c0-1.6-0.7-2.5-2-2.5c-0.7,0-1.2,0.2-1.7,0.7c-0.4,0.5-0.7,1.2-0.7,2.1v4.1L78.6,75.6
			L78.6,75.6z"/>
		<path class="st1" d="M95.1,75.6c-0.7,0-1.3-0.2-1.7-0.5c-0.4-0.4-0.6-1-0.6-1.9v-4.4h-1.4v-1.1h1.4l0.2-1.9h1.2v1.9h2.3v1.1h-2.3
			v4.4c0,0.5,0.1,0.8,0.3,1c0.2,0.2,0.6,0.3,1.1,0.3h0.8v1.1H95.1L95.1,75.6z"/>
		<path class="st1" d="M98.2,75.6V64h1.3v4.9c0.3-0.5,0.7-0.9,1.1-1.1c0.5-0.3,1-0.4,1.6-0.4c0.9,0,1.7,0.3,2.2,0.9s0.8,1.5,0.8,2.6
			v4.6H104V71c0-1.6-0.7-2.5-2-2.5c-0.7,0-1.3,0.2-1.7,0.7c-0.5,0.5-0.7,1.2-0.7,2.1v4.1L98.2,75.6L98.2,75.6z"/>
		<path class="st1" d="M110.9,75.8c-0.8,0-1.4-0.2-2-0.5s-1-0.8-1.4-1.4c-0.3-0.6-0.5-1.4-0.5-2.2s0.2-1.6,0.5-2.2s0.8-1.1,1.4-1.5
			c0.6-0.3,1.3-0.5,2.1-0.5c0.8,0,1.4,0.2,2,0.5c0.6,0.4,1,0.8,1.3,1.4s0.4,1.2,0.4,1.8c0,0.1,0,0.2,0,0.4c0,0.1,0,0.2,0,0.4h-6.3
			c0,0.6,0.2,1.1,0.4,1.5c0.2,0.4,0.6,0.7,0.9,0.9c0.4,0.2,0.8,0.3,1.2,0.3c0.5,0,1-0.1,1.4-0.4s0.7-0.6,0.8-1h1.3
			c-0.2,0.7-0.6,1.4-1.2,1.8C112.6,75.5,111.8,75.8,110.9,75.8z M110.9,68.6c-0.6,0-1.2,0.2-1.7,0.6s-0.8,1-0.9,1.7h5
			c0-0.7-0.3-1.3-0.7-1.7C112.1,68.8,111.6,68.6,110.9,68.6z"/>
		<path class="st1" d="M120.7,75.6v-7.9h1.2l0.1,1.4c0.3-0.5,0.6-0.9,1.1-1.2s1-0.4,1.6-0.4c0.9,0,1.7,0.3,2.2,0.9
			c0.6,0.6,0.8,1.5,0.8,2.6v4.6h-1.3v-4.5c0-1.6-0.7-2.5-2.1-2.5c-0.7,0-1.2,0.2-1.7,0.7s-0.7,1.2-0.7,2.1v4.1L120.7,75.6
			L120.7,75.6z"/>
		<path class="st1" d="M133.4,75.8c-0.8,0-1.4-0.2-2-0.5s-1.1-0.8-1.4-1.4c-0.3-0.6-0.5-1.4-0.5-2.2s0.2-1.6,0.5-2.2
			s0.8-1.1,1.4-1.5c0.6-0.3,1.3-0.5,2.1-0.5s1.4,0.2,2,0.5c0.6,0.4,1,0.8,1.3,1.4s0.4,1.2,0.4,1.8c0,0.1,0,0.2,0,0.4
			c0,0.1,0,0.2,0,0.4h-6.3c0,0.6,0.2,1.1,0.4,1.5s0.6,0.7,0.9,0.9s0.8,0.3,1.2,0.3c0.6,0,1-0.1,1.4-0.4c0.4-0.2,0.7-0.6,0.8-1h1.3
			c-0.2,0.7-0.6,1.4-1.2,1.8C135.1,75.5,134.3,75.8,133.4,75.8z M133.4,68.6c-0.6,0-1.2,0.2-1.7,0.6s-0.8,1-0.9,1.7h5
			c0-0.7-0.3-1.3-0.7-1.7C134.6,68.8,134.1,68.6,133.4,68.6z"/>
		<path class="st1" d="M137.8,75.6l2.8-4l-2.8-4h1.5l2.2,3.3l2.2-3.3h1.4l-2.8,4l2.8,4h-1.4l-2.2-3.3l-2.2,3.3H137.8z"/>
		<path class="st1" d="M149.7,75.6c-0.7,0-1.3-0.2-1.7-0.5c-0.4-0.4-0.6-1-0.6-1.9v-4.4H146v-1.1h1.4l0.2-1.9h1.2v1.9h2.3v1.1h-2.3
			v4.4c0,0.5,0.1,0.8,0.3,1s0.6,0.3,1.1,0.3h0.8v1.1H149.7L149.7,75.6z"/>
		<path class="st1" d="M160.1,75.6c-0.7,0-1.3-0.2-1.7-0.5c-0.4-0.4-0.6-1-0.6-1.9v-4.4h-1.4v-1.1h1.4l0.2-1.9h1.2v1.9h2.3v1.1h-2.3
			v4.4c0,0.5,0.1,0.8,0.3,1s0.6,0.3,1.1,0.3h0.8v1.1H160.1L160.1,75.6z"/>
		<path class="st1" d="M164.8,75.6l-2.3-7.9h1.3l1.7,6.2l1.9-6.2h1.5l1.9,6.2l1.7-6.2h1.4l-2.3,7.9H170l-1.9-6.5l-1.9,6.5H164.8z"/>
		<path class="st1" d="M178.5,75.8c-0.8,0-1.4-0.2-2-0.5s-1.1-0.8-1.4-1.5c-0.3-0.6-0.5-1.4-0.5-2.2s0.2-1.6,0.5-2.2
			s0.8-1.1,1.4-1.4s1.3-0.5,2-0.5s1.4,0.2,2,0.5s1.1,0.8,1.4,1.4c0.3,0.6,0.5,1.4,0.5,2.2s-0.2,1.6-0.5,2.2s-0.8,1.1-1.4,1.5
			C179.9,75.6,179.3,75.8,178.5,75.8z M178.5,74.6c0.5,0,0.9-0.1,1.3-0.3c0.4-0.2,0.7-0.6,1-1s0.4-1,0.4-1.7s-0.1-1.2-0.4-1.7
			c-0.2-0.4-0.6-0.8-0.9-1s-0.8-0.3-1.3-0.3s-0.9,0.1-1.3,0.3c-0.4,0.2-0.7,0.6-1,1c-0.2,0.5-0.4,1-0.4,1.7s0.1,1.2,0.4,1.7
			c0.2,0.4,0.6,0.8,0.9,1C177.7,74.5,178.1,74.6,178.5,74.6z"/>
		<path class="st1" d="M190.2,75.6l-2.3-7.9h1.3l1.7,6.2l1.9-6.2h1.5l1.9,6.2l1.7-6.2h1.4l-2.3,7.9h-1.4l-1.9-6.5l-1.9,6.5H190.2z"
			/>
		<path class="st1" d="M204,75.8c-0.8,0-1.4-0.2-2-0.5s-1.1-0.8-1.4-1.4c-0.3-0.6-0.5-1.4-0.5-2.2s0.2-1.6,0.5-2.2s0.8-1.1,1.4-1.5
			c0.6-0.3,1.3-0.5,2.1-0.5s1.4,0.2,2,0.5c0.6,0.4,1,0.8,1.3,1.4s0.4,1.2,0.4,1.8c0,0.1,0,0.2,0,0.4c0,0.1,0,0.2,0,0.4h-6.3
			c0,0.6,0.2,1.1,0.4,1.5s0.6,0.7,0.9,0.9c0.4,0.2,0.8,0.3,1.2,0.3c0.5,0,1-0.1,1.4-0.4s0.6-0.6,0.8-1h1.3c-0.2,0.7-0.6,1.4-1.2,1.8
			C205.7,75.5,204.9,75.8,204,75.8z M204,68.6c-0.6,0-1.2,0.2-1.7,0.6s-0.8,1-0.9,1.7h5c0-0.7-0.3-1.3-0.7-1.7
			C205.2,68.8,204.6,68.6,204,68.6z"/>
		<path class="st1" d="M213.1,75.8c-0.8,0-1.4-0.2-2-0.5s-1-0.8-1.4-1.4c-0.3-0.6-0.5-1.4-0.5-2.2s0.2-1.6,0.5-2.2s0.8-1.1,1.4-1.5
			c0.6-0.3,1.3-0.5,2.1-0.5s1.4,0.2,2,0.5c0.6,0.4,1,0.8,1.3,1.4s0.4,1.2,0.4,1.8c0,0.1,0,0.2,0,0.4c0,0.1,0,0.2,0,0.4h-6.3
			c0,0.6,0.2,1.1,0.4,1.5s0.6,0.7,0.9,0.9c0.4,0.2,0.8,0.3,1.2,0.3c0.6,0,1-0.1,1.4-0.4c0.4-0.2,0.7-0.6,0.8-1h1.3
			c-0.2,0.7-0.6,1.4-1.2,1.8C214.8,75.5,214,75.8,213.1,75.8z M213.1,68.6c-0.6,0-1.2,0.2-1.7,0.6s-0.8,1-0.9,1.7h5
			c0-0.7-0.3-1.3-0.7-1.7C214.3,68.8,213.7,68.6,213.1,68.6z"/>
		<path class="st1" d="M218.6,75.6V64h1.3v6.9l3.2-3.3h1.6l-3.5,3.6l4,4.3h-1.7l-3.6-4.1v4.1L218.6,75.6L218.6,75.6z"/>
		<path class="st1" d="M229.2,75.8c-1,0-1.7-0.2-2.4-0.7c-0.6-0.5-1-1.1-1.1-1.9h1.4c0.1,0.4,0.3,0.8,0.7,1.1s0.8,0.5,1.4,0.5
			c0.6,0,1-0.1,1.2-0.4c0.3-0.2,0.4-0.5,0.4-0.9c0-0.5-0.2-0.8-0.5-1s-0.8-0.3-1.5-0.4c-0.4-0.1-0.8-0.2-1.3-0.4
			c-0.4-0.2-0.8-0.4-1.1-0.7s-0.4-0.7-0.4-1.2c0-0.7,0.3-1.3,0.8-1.7s1.2-0.7,2.1-0.7c0.8,0,1.5,0.2,2.1,0.6c0.5,0.4,0.8,1,0.9,1.8
			h-1.3c-0.1-0.4-0.2-0.7-0.5-0.9s-0.7-0.3-1.2-0.3s-0.8,0.1-1.1,0.3s-0.4,0.5-0.4,0.8s0.2,0.6,0.5,0.8s0.8,0.3,1.4,0.5
			c0.5,0.1,1,0.2,1.4,0.4s0.8,0.4,1.1,0.7s0.4,0.7,0.4,1.3c0,0.7-0.3,1.3-0.8,1.8C230.9,75.5,230.2,75.8,229.2,75.8z"/>
		<path class="st1" d="M241.1,75.8c-0.7,0-1.2-0.1-1.6-0.3s-0.8-0.5-1-0.9s-0.3-0.8-0.3-1.2c0-0.8,0.3-1.4,0.9-1.9
			c0.6-0.4,1.5-0.7,2.5-0.7h2.1v-0.1c0-0.7-0.2-1.2-0.5-1.6c-0.4-0.4-0.9-0.5-1.5-0.5c-0.5,0-1,0.1-1.4,0.4s-0.6,0.6-0.7,1.1h-1.4
			c0.1-0.6,0.2-1.1,0.6-1.5c0.3-0.4,0.7-0.7,1.3-0.9c0.5-0.2,1-0.3,1.6-0.3c1.1,0,1.9,0.3,2.5,0.9s0.8,1.4,0.8,2.4v4.9h-1.2
			l-0.1-1.4c-0.2,0.4-0.5,0.8-1,1.1C242.4,75.6,241.8,75.8,241.1,75.8z M241.3,74.6c0.5,0,1-0.1,1.3-0.4s0.6-0.6,0.8-1
			s0.3-0.9,0.3-1.3l0,0h-2c-0.8,0-1.4,0.1-1.7,0.4s-0.5,0.6-0.5,1s0.1,0.8,0.5,1C240.3,74.5,240.7,74.6,241.3,74.6z"/>
		<path class="st1" d="M247.1,75.6v-7.9h1.2l0.1,1.5c0.2-0.5,0.6-0.9,1.1-1.2s1.1-0.5,1.9-0.5v1.4H251c-0.5,0-0.9,0.1-1.3,0.2
			c-0.4,0.2-0.7,0.4-0.9,0.8s-0.4,0.9-0.4,1.6v4L247.1,75.6L247.1,75.6z"/>
		<path class="st1" d="M256.2,75.8c-0.8,0-1.4-0.2-2-0.5s-1.1-0.8-1.4-1.4c-0.3-0.6-0.5-1.4-0.5-2.2s0.2-1.6,0.5-2.2
			s0.8-1.1,1.4-1.5c0.6-0.3,1.3-0.5,2.1-0.5c0.8,0,1.4,0.2,2,0.5c0.6,0.4,1,0.8,1.3,1.4s0.4,1.2,0.4,1.8c0,0.1,0,0.2,0,0.4
			c0,0.1,0,0.2,0,0.4h-6.3c0,0.6,0.2,1.1,0.4,1.5s0.6,0.7,0.9,0.9c0.4,0.2,0.8,0.3,1.2,0.3c0.5,0,1-0.1,1.4-0.4
			c0.4-0.2,0.7-0.6,0.8-1h1.3c-0.2,0.7-0.6,1.4-1.2,1.8C257.9,75.5,257.1,75.8,256.2,75.8z M256.2,68.6c-0.6,0-1.2,0.2-1.7,0.6
			s-0.8,1-0.9,1.7h5c0-0.7-0.3-1.3-0.7-1.7C257.4,68.8,256.8,68.6,256.2,68.6z"/>
		<path class="st1" d="M37.3,97.8c-0.9,0-1.7-0.2-2.4-0.7s-1-1.1-1.1-1.9h1.4c0.1,0.4,0.3,0.8,0.7,1.1s0.8,0.5,1.5,0.5
			c0.6,0,1-0.1,1.2-0.4c0.3-0.2,0.4-0.5,0.4-0.9c0-0.5-0.2-0.8-0.5-1s-0.8-0.3-1.5-0.4c-0.4-0.1-0.9-0.2-1.3-0.4
			c-0.4-0.2-0.8-0.4-1.1-0.7s-0.4-0.7-0.4-1.2c0-0.7,0.3-1.3,0.8-1.7s1.2-0.7,2.1-0.7c0.8,0,1.5,0.2,2.1,0.6c0.5,0.4,0.9,1,0.9,1.8
			h-1.3c0-0.4-0.2-0.7-0.5-0.9s-0.7-0.3-1.2-0.3s-0.8,0.1-1.1,0.3s-0.4,0.5-0.4,0.8s0.2,0.6,0.5,0.8s0.8,0.3,1.4,0.5
			c0.5,0.1,1,0.2,1.4,0.4c0.4,0.1,0.8,0.4,1.1,0.7s0.4,0.7,0.4,1.3c0,0.7-0.3,1.3-0.8,1.8C39,97.5,38.2,97.8,37.3,97.8z"/>
		<path class="st1" d="M43.1,87.9c-0.3,0-0.5-0.1-0.7-0.3s-0.3-0.4-0.3-0.7s0.1-0.5,0.3-0.6c0.2-0.2,0.4-0.3,0.7-0.3
			s0.5,0.1,0.7,0.3s0.3,0.4,0.3,0.6c0,0.3-0.1,0.5-0.3,0.7S43.3,87.9,43.1,87.9z M42.4,97.6v-7.9h1.3v7.9H42.4z"/>
		<path class="st1" d="M46.1,97.6v-7.9h1.2l0.1,1.2c0.3-0.4,0.6-0.8,1-1s0.9-0.4,1.4-0.4c0.6,0,1.2,0.1,1.6,0.4
			c0.5,0.2,0.8,0.7,1.1,1.2c0.3-0.5,0.7-0.9,1.1-1.1c0.5-0.3,1-0.4,1.6-0.4c0.9,0,1.7,0.3,2.3,0.9s0.8,1.4,0.8,2.6v4.6H57v-4.5
			c0-0.8-0.2-1.4-0.5-1.9c-0.3-0.4-0.8-0.6-1.4-0.6s-1.2,0.2-1.6,0.7s-0.6,1.2-0.6,2.1v4.1h-1.3V93c0-0.8-0.2-1.4-0.5-1.9
			c-0.3-0.4-0.8-0.6-1.4-0.6s-1.2,0.2-1.6,0.7s-0.6,1.2-0.6,2.1v4.1L46.1,97.6L46.1,97.6z"/>
		<path class="st1" d="M60.4,101.1V89.7h1.2l0.1,1.3c0.3-0.4,0.6-0.7,1.1-1s1.1-0.5,1.8-0.5c0.8,0,1.5,0.2,2.1,0.5
			c0.6,0.4,1,0.9,1.4,1.5s0.5,1.3,0.5,2.1s-0.2,1.5-0.5,2.1s-0.8,1.1-1.4,1.5s-1.3,0.5-2.1,0.5c-0.7,0-1.2-0.1-1.7-0.4
			s-0.9-0.6-1.2-1.1v4.8L60.4,101.1L60.4,101.1z M64.5,96.6c0.5,0,1-0.1,1.4-0.4c0.4-0.2,0.7-0.6,1-1.1c0.2-0.4,0.3-1,0.3-1.6
			s-0.1-1.1-0.3-1.6c-0.2-0.4-0.6-0.8-1-1.1c-0.4-0.2-0.9-0.4-1.4-0.4c-0.5,0-1,0.1-1.4,0.4c-0.4,0.2-0.7,0.6-1,1.1
			c-0.2,0.4-0.4,1-0.4,1.6s0.1,1.1,0.4,1.6c0.2,0.4,0.5,0.8,1,1.1C63.5,96.5,64,96.6,64.5,96.6z"/>
		<path class="st1" d="M70.5,97.6V86h1.3v11.5L70.5,97.6L70.5,97.6z"/>
		<path class="st1" d="M77.6,97.8c-0.8,0-1.4-0.2-2-0.5s-1.1-0.8-1.4-1.4s-0.5-1.4-0.5-2.2s0.2-1.6,0.5-2.2s0.8-1.1,1.4-1.5
			c0.6-0.3,1.3-0.5,2.1-0.5c0.8,0,1.4,0.2,2,0.5c0.6,0.4,1,0.8,1.3,1.4s0.5,1.2,0.5,1.8c0,0.1,0,0.2,0,0.4c0,0.1,0,0.2,0,0.4H75
			c0,0.6,0.2,1.1,0.4,1.5c0.2,0.4,0.6,0.7,0.9,0.9c0.4,0.2,0.8,0.3,1.2,0.3c0.6,0,1-0.1,1.4-0.4s0.7-0.6,0.8-1H81
			c-0.2,0.7-0.6,1.4-1.2,1.8C79.3,97.5,78.5,97.8,77.6,97.8z M77.6,90.6c-0.6,0-1.2,0.2-1.7,0.6s-0.8,1-0.9,1.7h5
			c0-0.7-0.3-1.3-0.7-1.7C78.8,90.8,78.3,90.6,77.6,90.6z"/>
		<path class="st1" d="M82,99.5l0.9-3.5h1.4l-1.4,3.5H82z"/>
		<path class="st1" d="M94.4,97.8c-0.7,0-1.2-0.1-1.7-0.4s-0.9-0.6-1.2-1.1l-0.1,1.3h-1.2V86h1.3v4.9c0.3-0.4,0.6-0.7,1.1-1
			s1.1-0.5,1.8-0.5c0.8,0,1.5,0.2,2.1,0.5c0.6,0.4,1,0.9,1.4,1.5s0.5,1.3,0.5,2.1s-0.2,1.5-0.5,2.1s-0.8,1.1-1.4,1.5
			C95.9,97.6,95.2,97.8,94.4,97.8z M94.3,96.6c0.5,0,1-0.1,1.4-0.4c0.4-0.2,0.7-0.6,1-1.1c0.2-0.4,0.3-1,0.3-1.6s-0.1-1.1-0.3-1.6
			c-0.2-0.4-0.6-0.8-1-1.1c-0.4-0.2-0.9-0.4-1.4-0.4s-1,0.1-1.4,0.4c-0.4,0.2-0.7,0.6-1,1.1c-0.2,0.4-0.3,1-0.3,1.6s0.1,1.1,0.3,1.6
			c0.2,0.4,0.6,0.8,1,1.1C93.3,96.5,93.8,96.6,94.3,96.6z"/>
		<path class="st1" d="M103.1,97.8c-0.9,0-1.7-0.3-2.2-0.9c-0.6-0.6-0.8-1.4-0.8-2.6v-4.6h1.3v4.5c0,1.7,0.7,2.5,2,2.5
			c0.7,0,1.3-0.2,1.7-0.7c0.4-0.5,0.7-1.2,0.7-2.1v-4.1h1.3v7.9H106l-0.1-1.4c-0.2,0.5-0.6,0.9-1.1,1.2
			C104.3,97.6,103.8,97.8,103.1,97.8z"/>
		<path class="st1" d="M112.5,97.6c-0.7,0-1.3-0.2-1.7-0.5c-0.4-0.4-0.6-1-0.6-1.9v-4.4h-1.4v-1.1h1.4l0.2-1.9h1.2v1.9h2.3v1.1h-2.3
			v4.4c0,0.5,0.1,0.8,0.3,1s0.6,0.3,1.1,0.3h0.8v1.1H112.5L112.5,97.6z"/>
		<path class="st1" d="M121.4,97.6l-2.3-7.9h1.3l1.7,6.2l1.9-6.2h1.5l1.9,6.2l1.7-6.2h1.4l-2.3,7.9h-1.4l-1.9-6.5l-1.9,6.5H121.4z"
			/>
		<path class="st1" d="M131.9,97.6V86h1.3v4.9c0.3-0.5,0.7-0.9,1.1-1.1c0.5-0.3,1-0.4,1.6-0.4c0.9,0,1.6,0.3,2.2,0.9
			c0.6,0.6,0.8,1.5,0.8,2.6v4.6h-1.3V93c0-1.6-0.7-2.5-2-2.5c-0.7,0-1.3,0.2-1.7,0.7c-0.5,0.5-0.7,1.2-0.7,2.1v4.1L131.9,97.6
			L131.9,97.6z"/>
		<path class="st1" d="M143.7,97.8c-0.7,0-1.2-0.1-1.6-0.3c-0.4-0.2-0.8-0.5-1-0.9s-0.3-0.8-0.3-1.2c0-0.8,0.3-1.4,0.9-1.9
			c0.6-0.4,1.5-0.7,2.5-0.7h2.1v-0.1c0-0.7-0.2-1.2-0.5-1.6s-0.8-0.5-1.5-0.5c-0.5,0-1,0.1-1.4,0.4s-0.6,0.6-0.7,1.1h-1.4
			c0.1-0.6,0.2-1.1,0.6-1.5c0.3-0.4,0.8-0.7,1.3-0.9s1-0.3,1.6-0.3c1.1,0,1.9,0.3,2.5,0.9s0.8,1.4,0.8,2.4v4.9h-1.2l-0.1-1.4
			c-0.2,0.4-0.6,0.8-1,1.1C145,97.6,144.4,97.8,143.7,97.8z M143.9,96.6c0.5,0,0.9-0.1,1.3-0.4c0.4-0.3,0.6-0.6,0.8-1
			s0.3-0.9,0.3-1.3l0,0h-2c-0.8,0-1.3,0.1-1.7,0.4c-0.3,0.3-0.5,0.6-0.5,1s0.2,0.8,0.5,1C142.9,96.5,143.3,96.6,143.9,96.6z"/>
		<path class="st1" d="M152.6,97.6c-0.7,0-1.3-0.2-1.7-0.5c-0.4-0.4-0.6-1-0.6-1.9v-4.4h-1.4v-1.1h1.4l0.2-1.9h1.2v1.9h2.3v1.1h-2.3
			v4.4c0,0.5,0.1,0.8,0.3,1s0.6,0.3,1.1,0.3h0.8v1.1H152.6L152.6,97.6z"/>
		<path class="st1" d="M160.8,101.1l2-4.3h-0.5l-3.1-7.2h1.5l2.6,6.2l2.8-6.2h1.4l-5.2,11.5H160.8z"/>
		<path class="st1" d="M171.7,97.8c-0.8,0-1.4-0.2-2-0.5s-1.1-0.8-1.4-1.5c-0.3-0.6-0.5-1.4-0.5-2.2s0.2-1.6,0.5-2.2
			s0.8-1.1,1.4-1.4c0.6-0.3,1.3-0.5,2-0.5s1.4,0.2,2,0.5s1.1,0.8,1.4,1.4c0.3,0.6,0.5,1.4,0.5,2.2s-0.2,1.6-0.5,2.2
			s-0.8,1.1-1.4,1.5C173.1,97.6,172.4,97.8,171.7,97.8z M171.7,96.6c0.5,0,0.9-0.1,1.3-0.3c0.4-0.2,0.7-0.6,1-1s0.4-1,0.4-1.7
			s-0.1-1.2-0.4-1.7c-0.2-0.4-0.6-0.8-0.9-1s-0.8-0.3-1.3-0.3s-0.9,0.1-1.3,0.3c-0.4,0.2-0.7,0.6-1,1c-0.2,0.5-0.4,1-0.4,1.7
			s0.1,1.2,0.4,1.7c0.2,0.4,0.6,0.8,0.9,1C170.8,96.5,171.2,96.6,171.7,96.6z"/>
		<path class="st1" d="M180.4,97.8c-0.9,0-1.7-0.3-2.2-0.9s-0.8-1.4-0.8-2.6v-4.6h1.3v4.5c0,1.7,0.7,2.5,2,2.5
			c0.7,0,1.3-0.2,1.7-0.7s0.7-1.2,0.7-2.1v-4.1h1.3v7.9h-1.2l-0.1-1.4c-0.2,0.5-0.6,0.9-1.1,1.2C181.6,97.6,181,97.8,180.4,97.8z"/>
		<path class="st1" d="M190.9,101.1V89.7h1.2l0.1,1.3c0.3-0.4,0.6-0.7,1.1-1s1.1-0.5,1.8-0.5c0.8,0,1.5,0.2,2.1,0.5
			c0.6,0.4,1,0.9,1.4,1.5s0.5,1.3,0.5,2.1s-0.2,1.5-0.5,2.1s-0.8,1.1-1.4,1.5c-0.6,0.4-1.3,0.5-2.1,0.5c-0.6,0-1.2-0.1-1.7-0.4
			s-0.9-0.6-1.2-1.1v4.8L190.9,101.1L190.9,101.1z M195,96.6c0.5,0,1-0.1,1.4-0.4s0.7-0.6,1-1.1c0.2-0.4,0.3-1,0.3-1.6
			s-0.1-1.1-0.3-1.6c-0.2-0.4-0.6-0.8-1-1.1c-0.4-0.2-0.9-0.4-1.4-0.4s-1,0.1-1.4,0.4c-0.4,0.2-0.7,0.6-1,1.1s-0.4,1-0.4,1.6
			s0.1,1.1,0.4,1.6s0.6,0.8,1,1.1C194,96.5,194.5,96.6,195,96.6z"/>
		<path class="st1" d="M203.9,97.8c-0.9,0-1.7-0.3-2.2-0.9s-0.8-1.4-0.8-2.6v-4.6h1.3v4.5c0,1.7,0.7,2.5,2,2.5
			c0.7,0,1.3-0.2,1.7-0.7s0.7-1.2,0.7-2.1v-4.1h1.3v7.9h-1.2l-0.1-1.4c-0.2,0.5-0.6,0.9-1.1,1.2C205,97.6,204.5,97.8,203.9,97.8z"/>
		<path class="st1" d="M213.2,97.6c-0.7,0-1.3-0.2-1.7-0.5c-0.4-0.4-0.6-1-0.6-1.9v-4.4h-1.4v-1.1h1.4l0.2-1.9h1.2v1.9h2.3v1.1h-2.3
			v4.4c0,0.5,0.1,0.8,0.3,1s0.6,0.3,1.1,0.3h0.8v1.1H213.2L213.2,97.6z"/>
		<path class="st1" d="M221.4,87.9c-0.3,0-0.5-0.1-0.7-0.3s-0.3-0.4-0.3-0.7s0.1-0.5,0.3-0.6s0.4-0.3,0.7-0.3s0.5,0.1,0.7,0.3
			s0.3,0.4,0.3,0.6c0,0.3-0.1,0.5-0.3,0.7C221.8,87.8,221.6,87.9,221.4,87.9z M220.7,97.6v-7.9h1.3v7.9H220.7z"/>
		<path class="st1" d="M224.4,97.6v-7.9h1.2l0.1,1.4c0.3-0.5,0.6-0.9,1.1-1.2s1-0.4,1.6-0.4c0.9,0,1.7,0.3,2.2,0.9
			c0.6,0.6,0.8,1.5,0.8,2.6v4.6h-1.3v-4.5c0-1.6-0.7-2.5-2-2.5c-0.7,0-1.2,0.2-1.7,0.7c-0.4,0.5-0.7,1.2-0.7,2.1v4.1L224.4,97.6
			L224.4,97.6z"/>
		<path class="st1" d="M238.6,87.9c-0.3,0-0.5-0.1-0.7-0.3s-0.3-0.4-0.3-0.7s0.1-0.5,0.3-0.6s0.4-0.3,0.7-0.3s0.5,0.1,0.7,0.3
			s0.3,0.4,0.3,0.6c0,0.3-0.1,0.5-0.3,0.7C239.1,87.8,238.8,87.9,238.6,87.9z M237.9,97.6v-7.9h1.3v7.9H237.9z"/>
		<path class="st1" d="M244.6,97.8c-1,0-1.7-0.2-2.4-0.7s-1-1.1-1.1-1.9h1.4c0.1,0.4,0.3,0.8,0.7,1.1c0.4,0.3,0.8,0.5,1.4,0.5
			s1-0.1,1.2-0.4c0.3-0.2,0.4-0.5,0.4-0.9c0-0.5-0.2-0.8-0.5-1s-0.8-0.3-1.5-0.4c-0.4-0.1-0.9-0.2-1.3-0.4s-0.8-0.4-1.1-0.7
			c-0.3-0.3-0.4-0.7-0.4-1.2c0-0.7,0.3-1.3,0.8-1.7s1.2-0.7,2.1-0.7c0.8,0,1.5,0.2,2.1,0.6c0.5,0.4,0.9,1,0.9,1.8H246
			c-0.1-0.4-0.2-0.7-0.5-0.9s-0.7-0.3-1.2-0.3s-0.9,0.1-1.1,0.3c-0.3,0.2-0.4,0.5-0.4,0.8s0.2,0.6,0.5,0.8s0.8,0.3,1.4,0.5
			c0.5,0.1,1,0.2,1.4,0.4c0.4,0.1,0.8,0.4,1.1,0.7c0.3,0.3,0.4,0.7,0.4,1.3c0,0.7-0.3,1.3-0.8,1.8C246.3,97.5,245.6,97.8,244.6,97.8
			z"/>
		<path class="st1" d="M255.4,97.6l-2.3-7.9h1.3l1.7,6.2l1.9-6.2h1.5l1.9,6.2l1.7-6.2h1.4l-2.3,7.9h-1.4l-2-6.5l-2,6.5H255.4z"/>
		<path class="st1" d="M265.9,97.6V86h1.3v4.9c0.3-0.5,0.6-0.9,1.1-1.1c0.5-0.3,1-0.4,1.6-0.4c0.9,0,1.6,0.3,2.2,0.9
			s0.8,1.5,0.8,2.6v4.6h-1.3V93c0-1.6-0.7-2.5-2-2.5c-0.7,0-1.3,0.2-1.7,0.7c-0.5,0.5-0.7,1.2-0.7,2.1v4.1L265.9,97.6L265.9,97.6z"
			/>
		<path class="st1" d="M277.7,97.8c-0.7,0-1.2-0.1-1.6-0.3s-0.8-0.5-1-0.9s-0.3-0.8-0.3-1.2c0-0.8,0.3-1.4,0.9-1.9s1.5-0.7,2.5-0.7
			h2.1v-0.1c0-0.7-0.2-1.2-0.5-1.6c-0.4-0.4-0.9-0.5-1.5-0.5c-0.5,0-1,0.1-1.3,0.4c-0.4,0.3-0.6,0.6-0.7,1.1h-1.4
			c0-0.6,0.2-1.1,0.6-1.5c0.3-0.4,0.8-0.7,1.3-0.9s1-0.3,1.6-0.3c1.1,0,1.9,0.3,2.5,0.9s0.8,1.4,0.8,2.4v4.9h-1.2l-0.1-1.4
			c-0.2,0.4-0.6,0.8-1,1.1S278.4,97.8,277.7,97.8z M277.9,96.6c0.5,0,0.9-0.1,1.3-0.4s0.6-0.6,0.8-1c0.2-0.4,0.3-0.9,0.3-1.3l0,0h-2
			c-0.8,0-1.4,0.1-1.7,0.4c-0.3,0.3-0.5,0.6-0.5,1s0.1,0.8,0.5,1C276.9,96.5,277.3,96.6,277.9,96.6z"/>
		<path class="st1" d="M286.6,97.6c-0.7,0-1.3-0.2-1.7-0.5c-0.4-0.4-0.6-1-0.6-1.9v-4.4h-1.4v-1.1h1.4l0.2-1.9h1.2v1.9h2.3v1.1h-2.3
			v4.4c0,0.5,0.1,0.8,0.3,1c0.2,0.2,0.6,0.3,1.1,0.3h0.8v1.1H286.6L286.6,97.6z"/>
		<path class="st1" d="M35.1,123.1l2-4.3h-0.5l-3.1-7.2H35l2.6,6.2l2.8-6.2h1.4l-5.2,11.5H35.1z"/>
		<path class="st1" d="M46,119.8c-0.8,0-1.4-0.2-2-0.5s-1.1-0.8-1.4-1.5c-0.4-0.6-0.5-1.4-0.5-2.2s0.2-1.6,0.5-2.2
			c0.4-0.6,0.8-1.1,1.4-1.4s1.3-0.5,2-0.5c0.8,0,1.4,0.2,2,0.5s1.1,0.8,1.4,1.4c0.3,0.6,0.5,1.4,0.5,2.2s-0.2,1.6-0.5,2.2
			s-0.8,1.1-1.4,1.5C47.4,119.6,46.8,119.8,46,119.8z M46,118.6c0.5,0,0.9-0.1,1.3-0.3s0.7-0.6,1-1s0.4-1,0.4-1.7s-0.1-1.2-0.4-1.7
			c-0.2-0.4-0.6-0.8-1-1s-0.8-0.3-1.3-0.3s-0.9,0.1-1.3,0.3c-0.4,0.2-0.7,0.6-1,1c-0.2,0.5-0.4,1-0.4,1.7s0.1,1.2,0.4,1.7
			s0.6,0.8,1,1C45.2,118.5,45.6,118.6,46,118.6z"/>
		<path class="st1" d="M54.8,119.8c-0.9,0-1.7-0.3-2.2-0.9s-0.8-1.4-0.8-2.6v-4.6H53v4.5c0,1.7,0.7,2.5,2,2.5c0.7,0,1.3-0.2,1.7-0.7
			s0.7-1.2,0.7-2.1v-4.1h1.3v7.9h-1.2l-0.1-1.4c-0.2,0.5-0.6,0.9-1.1,1.2C55.9,119.6,55.4,119.8,54.8,119.8z"/>
		<path class="st1" d="M60.5,111.9l0.9-3.6h1.5l-1.5,3.6H60.5z"/>
		<path class="st1" d="M64.4,119.6V108h1.3v11.5L64.4,119.6L64.4,119.6z"/>
		<path class="st1" d="M68,119.6V108h1.3v11.5L68,119.6L68,119.6z"/>
		<path class="st1" d="M78.9,117.1c-0.4,0-0.9-0.1-1.2-0.2l-0.8,0.8c0.1,0.1,0.3,0.2,0.4,0.2s0.4,0.1,0.8,0.2
			c0.3,0.1,0.8,0.1,1.4,0.1c1.1,0.1,1.8,0.3,2.3,0.7s0.7,1,0.7,1.6c0,0.5-0.1,0.9-0.4,1.3c-0.2,0.4-0.6,0.8-1.2,1
			c-0.5,0.3-1.2,0.4-2,0.4c-0.7,0-1.3-0.1-1.9-0.3s-1-0.5-1.3-0.9s-0.5-0.9-0.5-1.4c0-0.3,0.1-0.6,0.2-1c0.2-0.4,0.5-0.7,0.9-1
			c-0.2-0.1-0.4-0.2-0.6-0.3s-0.3-0.2-0.5-0.4v-0.4l1.4-1.3c-0.6-0.5-0.9-1.2-0.9-2.1c0-0.5,0.1-1,0.4-1.4c0.2-0.4,0.6-0.8,1.1-1
			s1-0.4,1.7-0.4c0.5,0,0.9,0.1,1.2,0.2H83v1l-1.5,0.1c0.3,0.4,0.5,1,0.5,1.6c0,0.5-0.1,1-0.4,1.4c-0.2,0.4-0.6,0.8-1.1,1
			C80.2,116.9,79.6,117.1,78.9,117.1z M76.6,120.6c0,0.5,0.2,0.9,0.7,1.2s1,0.4,1.7,0.4s1.2-0.1,1.6-0.4s0.6-0.7,0.6-1.2
			c0-0.3-0.1-0.6-0.4-0.9c-0.3-0.2-0.8-0.4-1.5-0.4c-0.6,0-1.1-0.1-1.5-0.2c-0.4,0.2-0.7,0.5-0.9,0.8
			C76.7,120.1,76.6,120.4,76.6,120.6z M78.9,116c0.6,0,1-0.2,1.3-0.4c0.3-0.3,0.5-0.7,0.5-1.3c0-0.5-0.2-1-0.5-1.3s-0.8-0.4-1.3-0.4
			c-0.6,0-1,0.1-1.4,0.4c-0.3,0.3-0.5,0.7-0.5,1.3s0.2,1,0.5,1.3C77.9,115.8,78.3,116,78.9,116z"/>
		<path class="st1" d="M87.9,119.8c-0.8,0-1.4-0.2-2-0.5s-1-0.8-1.4-1.4c-0.3-0.6-0.5-1.4-0.5-2.2s0.2-1.6,0.5-2.2s0.8-1.1,1.4-1.5
			c0.6-0.3,1.3-0.5,2.1-0.5c0.8,0,1.4,0.2,2,0.5c0.6,0.4,1,0.8,1.3,1.4s0.4,1.2,0.4,1.8c0,0.1,0,0.2,0,0.4c0,0.1,0,0.2,0,0.4h-6.3
			c0,0.6,0.2,1.1,0.4,1.5c0.2,0.4,0.6,0.7,0.9,0.9c0.4,0.2,0.8,0.3,1.2,0.3c0.6,0,1-0.1,1.4-0.4s0.7-0.6,0.8-1h1.3
			c-0.2,0.7-0.6,1.4-1.2,1.8C89.6,119.5,88.8,119.8,87.9,119.8z M87.9,112.6c-0.6,0-1.2,0.2-1.7,0.6s-0.8,1-0.9,1.7h5
			c0-0.7-0.3-1.3-0.7-1.7C89.1,112.8,88.5,112.6,87.9,112.6z"/>
		<path class="st1" d="M96.3,119.6c-0.7,0-1.3-0.2-1.7-0.5c-0.4-0.4-0.6-1-0.6-1.9v-4.4h-1.4v-1.1H94l0.2-1.9h1.2v1.9h2.3v1.1h-2.3
			v4.4c0,0.5,0.1,0.8,0.3,1c0.2,0.2,0.6,0.3,1.1,0.3h0.8v1.1H96.3L96.3,119.6z"/>
		<path class="st1" d="M107.2,119.8c-0.8,0-1.4-0.2-2-0.5s-1.1-0.8-1.4-1.5c-0.4-0.6-0.5-1.4-0.5-2.2s0.2-1.6,0.5-2.2
			s0.8-1.1,1.4-1.4s1.3-0.5,2-0.5c0.8,0,1.4,0.2,2,0.5s1.1,0.8,1.4,1.4c0.4,0.6,0.5,1.4,0.5,2.2s-0.2,1.6-0.5,2.2
			c-0.4,0.6-0.8,1.1-1.4,1.5C108.6,119.6,107.9,119.8,107.2,119.8z M107.2,118.6c0.5,0,0.9-0.1,1.3-0.3s0.7-0.6,1-1s0.4-1,0.4-1.7
			s-0.1-1.2-0.4-1.7c-0.2-0.4-0.6-0.8-0.9-1c-0.4-0.2-0.8-0.3-1.3-0.3s-0.9,0.1-1.3,0.3s-0.7,0.6-1,1c-0.2,0.5-0.4,1-0.4,1.7
			s0.1,1.2,0.4,1.7s0.6,0.8,0.9,1C106.3,118.5,106.7,118.6,107.2,118.6z"/>
		<path class="st1" d="M115.9,119.8c-0.9,0-1.7-0.3-2.2-0.9s-0.8-1.4-0.8-2.6v-4.6h1.3v4.5c0,1.7,0.7,2.5,2,2.5
			c0.7,0,1.3-0.2,1.7-0.7s0.7-1.2,0.7-2.1v-4.1h1.3v7.9h-1.2l-0.1-1.4c-0.2,0.5-0.6,0.9-1.1,1.2
			C117.1,119.6,116.5,119.8,115.9,119.8z"/>
		<path class="st1" d="M125.3,119.6c-0.7,0-1.3-0.2-1.7-0.5c-0.4-0.4-0.6-1-0.6-1.9v-4.4h-1.4v-1.1h1.4l0.2-1.9h1.2v1.9h2.3v1.1
			h-2.3v4.4c0,0.5,0.1,0.8,0.3,1s0.6,0.3,1.1,0.3h0.8v1.1H125.3L125.3,119.6z"/>
		<path class="st1" d="M129.3,119.6c-0.3,0-0.5-0.1-0.7-0.3s-0.3-0.4-0.3-0.7s0.1-0.5,0.3-0.6c0.2-0.2,0.4-0.3,0.7-0.3
			s0.5,0.1,0.6,0.3c0.2,0.2,0.3,0.4,0.3,0.6c0,0.3-0.1,0.5-0.3,0.7C129.7,119.6,129.5,119.6,129.3,119.6z M128.7,116.5l-0.2-8.1h1.5
			l-0.2,8.1H128.7z"/>
		<path class="st1" d="M184.9,152.9c-0.8,0-1.5-0.1-2.1-0.5c-0.6-0.3-1.1-0.7-1.4-1.2c-0.3-0.5-0.5-1.1-0.5-1.9h1.4
			c0,0.4,0.1,0.8,0.3,1.2s0.5,0.7,0.9,0.9s0.9,0.3,1.4,0.3c0.8,0,1.3-0.2,1.8-0.5c0.4-0.4,0.6-0.8,0.6-1.4c0-0.4-0.1-0.8-0.3-1.1
			s-0.4-0.5-0.8-0.7c-0.3-0.2-0.7-0.3-1.1-0.5s-0.9-0.3-1.3-0.4c-0.9-0.3-1.5-0.7-1.9-1.1s-0.6-1-0.6-1.7c0-0.6,0.1-1.1,0.4-1.6
			c0.3-0.5,0.7-0.8,1.2-1.1s1.1-0.4,1.9-0.4c0.7,0,1.3,0.1,1.9,0.4c0.5,0.3,0.9,0.6,1.2,1.1s0.4,1,0.5,1.6H187
			c0-0.3-0.1-0.6-0.2-0.9c-0.2-0.3-0.4-0.6-0.7-0.7s-0.7-0.3-1.2-0.3c-0.6,0-1.1,0.1-1.5,0.5s-0.6,0.8-0.6,1.3s0.1,0.9,0.4,1.1
			c0.3,0.3,0.6,0.5,1.1,0.6c0.5,0.2,1.1,0.4,1.7,0.6c0.5,0.2,1,0.4,1.4,0.7s0.8,0.6,1,1s0.4,0.9,0.4,1.5c0,0.5-0.1,1-0.4,1.5
			s-0.7,0.9-1.3,1.2C186.5,152.7,185.8,152.9,184.9,152.9z"/>
		<path class="st1" d="M194.1,152.9c-0.8,0-1.4-0.2-2-0.5s-1.1-0.8-1.4-1.4c-0.4-0.6-0.5-1.4-0.5-2.2s0.2-1.6,0.5-2.2
			c0.4-0.6,0.8-1.1,1.4-1.4c0.6-0.3,1.3-0.5,2-0.5s1.4,0.2,2,0.5s1.1,0.8,1.4,1.4c0.4,0.6,0.5,1.4,0.5,2.2s-0.2,1.6-0.5,2.2
			c-0.4,0.6-0.8,1.1-1.4,1.4C195.6,152.7,194.9,152.9,194.1,152.9z M194.1,151.7c0.5,0,0.9-0.1,1.3-0.3c0.4-0.2,0.7-0.6,1-1
			c0.2-0.5,0.4-1,0.4-1.7s-0.1-1.2-0.4-1.7c-0.2-0.5-0.6-0.8-1-1s-0.8-0.3-1.3-0.3s-0.9,0.1-1.3,0.3c-0.4,0.2-0.7,0.6-1,1
			s-0.4,1-0.4,1.7s0.1,1.2,0.4,1.7c0.2,0.4,0.6,0.8,1,1C193.3,151.6,193.7,151.7,194.1,151.7z"/>
		<path class="st1" d="M207.4,152.7c-0.7,0-1.3-0.2-1.7-0.5c-0.4-0.4-0.6-1-0.6-1.9v-4.4h-1.4v-1.1h1.4l0.2-1.9h1.2v1.9h2.3v1.1
			h-2.3v4.4c0,0.5,0.1,0.8,0.3,1s0.6,0.3,1.1,0.3h0.8v1.1L207.4,152.7L207.4,152.7z"/>
		<path class="st1" d="M210.4,152.7v-7.9h1.2l0.1,1.5c0.2-0.5,0.6-0.9,1.1-1.2s1.1-0.5,1.9-0.5v1.4h-0.4c-0.5,0-0.9,0.1-1.3,0.2
			c-0.4,0.2-0.7,0.5-0.9,0.8c-0.2,0.4-0.3,0.9-0.3,1.6v4L210.4,152.7L210.4,152.7L210.4,152.7z"/>
		<path class="st1" d="M217.1,156.2l2-4.3h-0.5l-3.2-7.2h1.5l2.6,6.2l2.8-6.2h1.4l-5.2,11.5H217.1z"/>
		<path class="st1" d="M232,152.9c-0.7,0-1.2-0.1-1.6-0.3c-0.4-0.2-0.8-0.5-1-0.9s-0.3-0.8-0.3-1.2c0-0.8,0.3-1.4,0.9-1.9
			c0.6-0.4,1.5-0.7,2.5-0.7h2.1v-0.1c0-0.7-0.2-1.2-0.5-1.6c-0.4-0.4-0.9-0.5-1.5-0.5c-0.5,0-1,0.1-1.3,0.4
			c-0.4,0.3-0.6,0.6-0.7,1.1h-1.4c0-0.6,0.2-1.1,0.6-1.5c0.3-0.4,0.8-0.7,1.3-0.9s1-0.3,1.6-0.3c1.1,0,1.9,0.3,2.5,0.9
			s0.8,1.4,0.8,2.4v4.9h-1.2l-0.1-1.4c-0.2,0.5-0.6,0.8-1,1.1C233.3,152.7,232.7,152.9,232,152.9z M232.2,151.8
			c0.5,0,0.9-0.1,1.3-0.4c0.4-0.3,0.6-0.6,0.8-1s0.3-0.9,0.3-1.3l0,0h-2c-0.8,0-1.4,0.1-1.7,0.4s-0.5,0.6-0.5,1s0.1,0.8,0.5,1
			C231.2,151.6,231.7,151.8,232.2,151.8z"/>
		<path class="st1" d="M238,156.2v-11.5h1.2l0.1,1.3c0.3-0.4,0.6-0.7,1.1-1s1.1-0.5,1.8-0.5c0.8,0,1.5,0.2,2.1,0.5
			c0.6,0.4,1,0.9,1.4,1.5s0.5,1.3,0.5,2.1s-0.2,1.5-0.5,2.1s-0.8,1.1-1.4,1.5s-1.3,0.5-2.1,0.5c-0.6,0-1.2-0.1-1.7-0.4
			s-0.9-0.6-1.2-1.1v4.9L238,156.2L238,156.2z M242.1,151.7c0.5,0,1-0.1,1.4-0.4s0.7-0.6,1-1c0.2-0.5,0.4-1,0.4-1.6
			s-0.1-1.1-0.4-1.6c-0.2-0.5-0.6-0.8-1-1.1c-0.4-0.2-0.9-0.4-1.4-0.4s-1,0.1-1.4,0.4s-0.7,0.6-1,1.1c-0.2,0.4-0.4,1-0.4,1.6
			s0.1,1.1,0.4,1.6s0.5,0.8,1,1C241.1,151.6,241.6,151.7,242.1,151.7z"/>
		<path class="st1" d="M248.1,156.2v-11.5h1.2l0.1,1.3c0.3-0.4,0.6-0.7,1.1-1s1.1-0.5,1.8-0.5c0.8,0,1.5,0.2,2.1,0.5
			c0.6,0.4,1,0.9,1.4,1.5c0.3,0.6,0.5,1.3,0.5,2.1s-0.2,1.5-0.5,2.1s-0.8,1.1-1.4,1.5s-1.3,0.5-2.1,0.5c-0.6,0-1.2-0.1-1.7-0.4
			s-0.9-0.6-1.2-1.1v4.9L248.1,156.2L248.1,156.2L248.1,156.2z M252.2,151.7c0.5,0,1-0.1,1.4-0.4s0.7-0.6,1-1s0.4-1,0.4-1.6
			s-0.1-1.1-0.4-1.6c-0.2-0.5-0.6-0.8-1-1.1c-0.4-0.2-0.9-0.4-1.4-0.4s-1,0.1-1.4,0.4s-0.7,0.6-1,1.1c-0.2,0.4-0.4,1-0.4,1.6
			s0.1,1.1,0.4,1.6c0.2,0.5,0.5,0.8,1,1C251.2,151.6,251.6,151.7,252.2,151.7z"/>
		<path class="st1" d="M258.1,152.7v-7.9h1.2l0.1,1.5c0.2-0.5,0.6-0.9,1.1-1.2s1.1-0.5,1.9-0.5v1.4H262c-0.5,0-0.9,0.1-1.3,0.2
			c-0.4,0.2-0.7,0.5-0.9,0.8c-0.2,0.4-0.4,0.9-0.4,1.6v4L258.1,152.7L258.1,152.7L258.1,152.7z"/>
		<path class="st1" d="M267.2,152.9c-0.8,0-1.4-0.2-2-0.5s-1.1-0.8-1.4-1.4s-0.5-1.4-0.5-2.2s0.2-1.6,0.5-2.2
			c0.4-0.6,0.8-1.1,1.4-1.4s1.3-0.5,2-0.5s1.4,0.2,2,0.5s1.1,0.8,1.4,1.4s0.5,1.4,0.5,2.2s-0.2,1.6-0.5,2.2
			c-0.4,0.6-0.8,1.1-1.4,1.4C268.7,152.7,268,152.9,267.2,152.9z M267.2,151.7c0.5,0,0.9-0.1,1.3-0.3s0.7-0.6,1-1
			c0.2-0.5,0.4-1,0.4-1.7s-0.1-1.2-0.4-1.7c-0.2-0.5-0.6-0.8-0.9-1c-0.4-0.2-0.8-0.3-1.3-0.3s-0.9,0.1-1.3,0.3s-0.7,0.6-1,1
			s-0.4,1-0.4,1.7s0.1,1.2,0.4,1.7c0.2,0.4,0.6,0.8,0.9,1C266.4,151.6,266.8,151.7,267.2,151.7z"/>
		<path class="st1" d="M275.7,152.9c-0.7,0-1.2-0.1-1.7-0.3c-0.4-0.2-0.8-0.5-1-0.9s-0.3-0.8-0.3-1.2c0-0.8,0.3-1.4,0.9-1.9
			s1.5-0.7,2.5-0.7h2.1v-0.1c0-0.7-0.2-1.2-0.5-1.6c-0.4-0.4-0.9-0.5-1.5-0.5c-0.5,0-1,0.1-1.4,0.4s-0.6,0.6-0.7,1.1h-1.4
			c0-0.6,0.2-1.1,0.6-1.5c0.3-0.4,0.8-0.7,1.3-0.9s1-0.3,1.6-0.3c1.1,0,1.9,0.3,2.5,0.9s0.8,1.4,0.8,2.4v4.9h-1.2l-0.1-1.4
			c-0.2,0.5-0.5,0.8-1,1.1C277,152.7,276.5,152.9,275.7,152.9z M275.9,151.8c0.5,0,1-0.1,1.3-0.4c0.4-0.3,0.6-0.6,0.8-1
			s0.3-0.9,0.3-1.3l0,0h-2c-0.8,0-1.3,0.1-1.7,0.4c-0.3,0.3-0.5,0.6-0.5,1s0.1,0.8,0.5,1C275,151.6,275.4,151.8,275.9,151.8z"/>
		<path class="st1" d="M285.4,152.9c-0.8,0-1.4-0.2-2-0.5s-1.1-0.8-1.4-1.5c-0.4-0.6-0.5-1.4-0.5-2.2s0.2-1.6,0.5-2.2
			s0.8-1.1,1.4-1.5c0.6-0.3,1.3-0.5,2-0.5c0.9,0,1.7,0.2,2.4,0.7c0.6,0.5,1,1.2,1.2,2h-1.4c-0.1-0.5-0.4-0.9-0.8-1.1
			c-0.4-0.3-0.9-0.4-1.5-0.4c-0.5,0-0.9,0.1-1.3,0.3s-0.7,0.6-1,1c-0.2,0.4-0.4,1-0.4,1.7s0.1,1.2,0.4,1.7c0.2,0.4,0.6,0.8,1,1
			s0.8,0.3,1.3,0.3s1-0.1,1.5-0.4c0.4-0.3,0.7-0.7,0.8-1.2h1.4c-0.2,0.8-0.6,1.5-1.2,2S286.3,152.9,285.4,152.9z"/>
		<path class="st1" d="M290.9,152.7v-11.5h1.3v4.9c0.3-0.5,0.6-0.9,1.1-1.1c0.5-0.3,1-0.4,1.6-0.4c0.9,0,1.6,0.3,2.2,0.9
			c0.5,0.6,0.8,1.4,0.8,2.6v4.6h-1.3v-4.5c0-1.6-0.7-2.5-2-2.5c-0.7,0-1.3,0.2-1.7,0.7c-0.5,0.5-0.7,1.2-0.7,2.1v4.1L290.9,152.7
			L290.9,152.7z"/>
		<path class="st1" d="M300.8,143c-0.3,0-0.5-0.1-0.7-0.3s-0.3-0.4-0.3-0.7s0.1-0.5,0.3-0.6c0.2-0.2,0.4-0.3,0.7-0.3
			c0.3,0,0.5,0.1,0.7,0.3s0.3,0.4,0.3,0.6c0,0.3-0.1,0.5-0.3,0.7C301.3,142.9,301.1,143,300.8,143z M300.2,152.7v-7.9h1.3v7.9H300.2
			z"/>
		<path class="st1" d="M303.8,152.7v-7.9h1.2l0.1,1.4c0.3-0.5,0.6-0.9,1.1-1.2s1-0.4,1.6-0.4c0.9,0,1.7,0.3,2.2,0.9
			c0.6,0.6,0.8,1.4,0.8,2.6v4.6h-1.3v-4.5c0-1.6-0.7-2.5-2-2.5c-0.7,0-1.2,0.2-1.7,0.7c-0.4,0.5-0.7,1.2-0.7,2.1v4.1L303.8,152.7
			L303.8,152.7z"/>
		<path class="st1" d="M316.1,150.2c-0.5,0-0.9-0.1-1.2-0.2l-0.8,0.8c0.1,0.1,0.3,0.2,0.4,0.2c0.2,0.1,0.4,0.1,0.8,0.2
			c0.3,0,0.8,0.1,1.4,0.1c1.1,0.1,1.8,0.3,2.3,0.7s0.7,1,0.7,1.6c0,0.5-0.1,0.9-0.4,1.3c-0.2,0.4-0.6,0.8-1.1,1
			c-0.5,0.3-1.2,0.4-2,0.4c-0.7,0-1.4-0.1-1.9-0.3s-1-0.5-1.3-0.8s-0.5-0.9-0.5-1.4c0-0.3,0.1-0.6,0.2-1c0.2-0.3,0.5-0.7,0.9-1
			c-0.2-0.1-0.4-0.2-0.6-0.3s-0.3-0.2-0.5-0.4v-0.4l1.4-1.3c-0.6-0.5-0.9-1.2-0.9-2.1c0-0.5,0.1-1,0.4-1.4c0.2-0.4,0.6-0.8,1.1-1
			s1-0.4,1.7-0.4c0.5,0,0.9,0.1,1.2,0.2h2.9v1l-1.5,0.1c0.3,0.5,0.5,1,0.5,1.5s-0.1,1-0.4,1.4c-0.2,0.4-0.6,0.8-1.1,1
			C317.4,150.1,316.8,150.2,316.1,150.2z M313.8,153.7c0,0.5,0.2,0.9,0.7,1.2s1,0.4,1.7,0.4s1.2-0.1,1.6-0.4s0.6-0.7,0.6-1.1
			c0-0.3-0.1-0.6-0.4-0.9s-0.8-0.4-1.5-0.4c-0.6,0-1.1-0.1-1.5-0.2c-0.4,0.2-0.7,0.5-0.9,0.8C313.9,153.2,313.8,153.5,313.8,153.7z
			 M316.1,149.1c0.6,0,1-0.1,1.4-0.4c0.3-0.3,0.5-0.7,0.5-1.3c0-0.5-0.2-1-0.5-1.3s-0.8-0.4-1.4-0.4s-1,0.1-1.4,0.4
			s-0.5,0.7-0.5,1.3c0,0.5,0.2,1,0.5,1.3C315.1,148.9,315.5,149.1,316.1,149.1z"/>
		<path class="st1" d="M184.4,174.7c-0.7,0-1.3-0.2-1.7-0.5s-0.6-1-0.6-1.9v-4.4h-1.4v-1.1h1.4l0.2-1.9h1.2v1.9h2.3v1.1h-2.3v4.4
			c0,0.5,0.1,0.8,0.3,1s0.6,0.3,1.1,0.3h0.8v1.1L184.4,174.7L184.4,174.7z"/>
		<path class="st1" d="M187.5,174.7v-11.5h1.3v4.9c0.3-0.5,0.6-0.9,1.1-1.1c0.5-0.3,1-0.4,1.6-0.4c0.9,0,1.7,0.3,2.2,0.9
			c0.6,0.6,0.8,1.4,0.8,2.6v4.6h-1.3v-4.5c0-1.6-0.7-2.5-2-2.5c-0.7,0-1.3,0.2-1.7,0.7c-0.5,0.5-0.7,1.2-0.7,2.1v4.1L187.5,174.7
			L187.5,174.7z"/>
		<path class="st1" d="M200.2,174.9c-0.8,0-1.4-0.2-2-0.5s-1.1-0.8-1.4-1.4c-0.3-0.6-0.5-1.4-0.5-2.2s0.2-1.6,0.5-2.2
			s0.8-1.1,1.4-1.5c0.6-0.3,1.3-0.5,2.1-0.5s1.4,0.2,2,0.5c0.6,0.4,1,0.8,1.3,1.4s0.4,1.2,0.4,1.8c0,0.1,0,0.2,0,0.4
			c0,0.1,0,0.2,0,0.4h-6.3c0,0.6,0.2,1.1,0.4,1.5s0.6,0.7,0.9,0.9c0.4,0.2,0.8,0.3,1.2,0.3c0.6,0,1-0.1,1.4-0.4s0.6-0.6,0.8-1h1.3
			c-0.2,0.7-0.6,1.4-1.2,1.8S201.1,174.9,200.2,174.9z M200.2,167.7c-0.6,0-1.2,0.2-1.7,0.6s-0.8,1-0.9,1.7h5c0-0.7-0.3-1.3-0.7-1.7
			C201.4,167.9,200.9,167.7,200.2,167.7z"/>
		<path class="st1" d="M210,174.7v-7.9h1.2l0.1,1.4c0.3-0.5,0.6-0.9,1.1-1.2s1-0.4,1.6-0.4c0.9,0,1.7,0.3,2.2,0.9
			c0.6,0.6,0.8,1.4,0.8,2.6v4.6h-1.3v-4.5c0-1.6-0.7-2.5-2.1-2.5c-0.7,0-1.2,0.2-1.7,0.7s-0.7,1.2-0.7,2.1v4.1L210,174.7L210,174.7z
			"/>
		<path class="st1" d="M222.7,174.9c-0.8,0-1.4-0.2-2-0.5s-1.1-0.8-1.4-1.4c-0.3-0.6-0.5-1.4-0.5-2.2s0.2-1.6,0.5-2.2
			s0.8-1.1,1.4-1.5c0.6-0.3,1.3-0.5,2.1-0.5s1.4,0.2,2,0.5c0.6,0.4,1,0.8,1.3,1.4s0.4,1.2,0.4,1.8c0,0.1,0,0.2,0,0.4
			c0,0.1,0,0.2,0,0.4h-6.3c0,0.6,0.2,1.1,0.4,1.5s0.6,0.7,0.9,0.9c0.4,0.2,0.8,0.3,1.2,0.3c0.6,0,1-0.1,1.4-0.4s0.6-0.6,0.8-1h1.3
			c-0.2,0.7-0.6,1.4-1.2,1.8S223.6,174.9,222.7,174.9z M222.7,167.7c-0.6,0-1.2,0.2-1.7,0.6s-0.8,1-0.9,1.7h5c0-0.7-0.3-1.3-0.7-1.7
			C223.9,167.9,223.4,167.7,222.7,167.7z"/>
		<path class="st1" d="M227,174.7l2.8-4l-2.8-4h1.5l2.2,3.3l2.2-3.3h1.4l-2.8,4l2.8,4H233l-2.2-3.3l-2.2,3.3H227z"/>
		<path class="st1" d="M238.9,174.7c-0.7,0-1.3-0.2-1.7-0.5c-0.4-0.4-0.6-1-0.6-1.9v-4.4h-1.4v-1.1h1.4l0.2-1.9h1.2v1.9h2.3v1.1H238
			v4.4c0,0.5,0.1,0.8,0.3,1s0.6,0.3,1.1,0.3h0.8v1.1L238.9,174.7L238.9,174.7z"/>
		<path class="st1" d="M246.1,174.7v-0.9c0.8-0.6,1.5-1.2,2.1-1.8c0.7-0.6,1.3-1.2,1.8-1.8s0.9-1.2,1.2-1.8s0.5-1.1,0.5-1.7
			c0-0.4-0.1-0.8-0.2-1.1s-0.4-0.6-0.6-0.8c-0.3-0.2-0.7-0.3-1.2-0.3s-0.9,0.1-1.2,0.3s-0.6,0.5-0.7,0.9c-0.2,0.4-0.2,0.8-0.2,1.2
			h-1.3c0-0.7,0.1-1.4,0.5-1.9s0.7-0.9,1.3-1.2s1.1-0.4,1.8-0.4c1,0,1.8,0.3,2.4,0.8c0.6,0.6,0.9,1.4,0.9,2.5c0,0.7-0.2,1.3-0.5,2
			c-0.3,0.6-0.8,1.3-1.3,1.9s-1.1,1.2-1.6,1.7s-1.1,1-1.6,1.4h5.4v1.1L246.1,174.7L246.1,174.7L246.1,174.7z"/>
		<path class="st1" d="M261.2,174.7l-2.3-7.9h1.3l1.7,6.2l1.9-6.2h1.5l1.9,6.2l1.7-6.2h1.4l-2.3,7.9h-1.4l-2-6.5l-2,6.5H261.2z"/>
		<path class="st1" d="M275,174.9c-0.8,0-1.4-0.2-2-0.5s-1-0.8-1.4-1.4c-0.3-0.6-0.5-1.4-0.5-2.2s0.2-1.6,0.5-2.2s0.8-1.1,1.4-1.5
			c0.6-0.3,1.3-0.5,2.1-0.5c0.8,0,1.4,0.2,2,0.5c0.6,0.4,1,0.8,1.3,1.4s0.5,1.2,0.5,1.8c0,0.1,0,0.2,0,0.4s0,0.2,0,0.4h-6.3
			c0,0.6,0.2,1.1,0.4,1.5s0.6,0.7,0.9,0.9c0.4,0.2,0.8,0.3,1.2,0.3c0.6,0,1-0.1,1.4-0.4s0.6-0.6,0.8-1h1.3c-0.2,0.7-0.6,1.4-1.2,1.8
			C276.7,174.6,275.9,174.9,275,174.9z M275,167.7c-0.6,0-1.2,0.2-1.7,0.6s-0.8,1-0.9,1.7h5c0-0.7-0.3-1.3-0.7-1.7
			C276.2,167.9,275.6,167.7,275,167.7z"/>
		<path class="st1" d="M284.1,174.9c-0.8,0-1.4-0.2-2-0.5s-1-0.8-1.4-1.4c-0.3-0.6-0.5-1.4-0.5-2.2s0.2-1.6,0.5-2.2s0.8-1.1,1.4-1.5
			c0.6-0.3,1.3-0.5,2.1-0.5c0.8,0,1.4,0.2,2,0.5c0.6,0.4,1,0.8,1.3,1.4s0.4,1.2,0.4,1.8c0,0.1,0,0.2,0,0.4c0,0.1,0,0.2,0,0.4h-6.3
			c0,0.6,0.2,1.1,0.4,1.5s0.6,0.7,0.9,0.9c0.4,0.2,0.8,0.3,1.2,0.3c0.5,0,1-0.1,1.4-0.4s0.6-0.6,0.8-1h1.3c-0.2,0.7-0.6,1.4-1.2,1.8
			C285.8,174.6,285,174.9,284.1,174.9z M284.1,167.7c-0.6,0-1.2,0.2-1.7,0.6s-0.8,1-0.9,1.7h5c0-0.7-0.3-1.3-0.7-1.7
			C285.3,167.9,284.7,167.7,284.1,167.7z"/>
		<path class="st1" d="M289.6,174.7v-11.5h1.3v6.9l3.2-3.3h1.6l-3.5,3.6l4,4.4h-1.7l-3.6-4.1v4.1L289.6,174.7L289.6,174.7z"/>
		<path class="st1" d="M300.2,174.9c-0.9,0-1.7-0.2-2.4-0.7s-1-1.1-1.1-2h1.4c0.1,0.4,0.3,0.8,0.7,1.1c0.4,0.3,0.8,0.5,1.5,0.5
			c0.6,0,1-0.1,1.2-0.4c0.3-0.2,0.4-0.5,0.4-0.9c0-0.5-0.2-0.8-0.5-1c-0.4-0.2-0.8-0.3-1.5-0.4c-0.4-0.1-0.9-0.2-1.3-0.4
			s-0.8-0.4-1.1-0.7c-0.3-0.3-0.4-0.7-0.4-1.2c0-0.7,0.3-1.3,0.8-1.7s1.2-0.7,2.1-0.7c0.8,0,1.5,0.2,2.1,0.6c0.5,0.4,0.9,1,0.9,1.8
			h-1.3c0-0.4-0.2-0.7-0.5-1c-0.3-0.2-0.7-0.3-1.2-0.3s-0.9,0.1-1.1,0.3c-0.3,0.2-0.4,0.5-0.4,0.8s0.2,0.6,0.5,0.8s0.8,0.3,1.4,0.5
			c0.5,0.1,1,0.2,1.4,0.4s0.8,0.4,1.1,0.7c0.3,0.3,0.4,0.7,0.4,1.3c0,0.7-0.3,1.3-0.8,1.8C301.9,174.6,301.2,174.9,300.2,174.9z"/>
		<path class="st1" d="M183.9,196.9c-0.7,0-1.2-0.1-1.7-0.3c-0.4-0.2-0.8-0.5-1-0.9s-0.3-0.8-0.3-1.2c0-0.8,0.3-1.4,0.9-1.9
			s1.5-0.7,2.5-0.7h2.1v-0.1c0-0.7-0.2-1.2-0.5-1.6c-0.4-0.4-0.9-0.5-1.5-0.5c-0.5,0-1,0.1-1.3,0.4c-0.4,0.3-0.6,0.6-0.7,1.1H181
			c0.1-0.6,0.2-1.1,0.6-1.5c0.3-0.4,0.8-0.7,1.3-0.9s1-0.3,1.6-0.3c1.1,0,1.9,0.3,2.5,0.9s0.8,1.4,0.8,2.4v4.9h-1.2l-0.1-1.4
			c-0.2,0.5-0.5,0.8-1,1.1C185.2,196.7,184.6,196.9,183.9,196.9z M184.1,195.8c0.5,0,1-0.1,1.3-0.4c0.4-0.3,0.6-0.6,0.8-1
			s0.3-0.9,0.3-1.3l0,0h-2c-0.8,0-1.3,0.1-1.7,0.4c-0.3,0.3-0.5,0.6-0.5,1s0.1,0.8,0.5,1C183.1,195.6,183.6,195.8,184.1,195.8z"/>
		<path class="st1" d="M193,196.9c-1,0-1.7-0.2-2.4-0.7c-0.6-0.5-1-1.1-1.1-2h1.4c0.1,0.4,0.3,0.8,0.7,1.1s0.8,0.5,1.4,0.5
			c0.6,0,1-0.1,1.2-0.4c0.3-0.2,0.4-0.5,0.4-0.9c0-0.5-0.2-0.8-0.5-1s-0.8-0.3-1.5-0.4c-0.4-0.1-0.8-0.2-1.3-0.4
			c-0.4-0.2-0.8-0.4-1.1-0.7s-0.4-0.7-0.4-1.2c0-0.7,0.3-1.3,0.8-1.7s1.2-0.7,2.1-0.7c0.8,0,1.5,0.2,2.1,0.6c0.5,0.4,0.8,1,0.9,1.8
			h-1.3c0-0.4-0.2-0.7-0.5-1c-0.3-0.2-0.7-0.3-1.2-0.3s-0.8,0.1-1.1,0.3s-0.4,0.5-0.4,0.8s0.2,0.6,0.5,0.8s0.8,0.3,1.4,0.5
			c0.5,0.1,1,0.2,1.4,0.4s0.8,0.4,1.1,0.7s0.4,0.7,0.4,1.3c0,0.7-0.3,1.3-0.8,1.8C194.6,196.6,193.9,196.9,193,196.9z"/>
		<path class="st1" d="M204.8,196.9c-0.7,0-1.2-0.1-1.7-0.3c-0.4-0.2-0.8-0.5-1-0.9s-0.3-0.8-0.3-1.2c0-0.8,0.3-1.4,0.9-1.9
			s1.5-0.7,2.5-0.7h2.1v-0.1c0-0.7-0.2-1.2-0.5-1.6c-0.4-0.4-0.9-0.5-1.5-0.5c-0.5,0-1,0.1-1.3,0.4c-0.4,0.3-0.6,0.6-0.7,1.1H202
			c0.1-0.6,0.2-1.1,0.6-1.5c0.3-0.4,0.8-0.7,1.3-0.9s1-0.3,1.6-0.3c1.1,0,1.9,0.3,2.5,0.9s0.8,1.4,0.8,2.4v4.9h-1.2l-0.1-1.4
			c-0.2,0.5-0.5,0.8-1,1.1C206.1,196.7,205.5,196.9,204.8,196.9z M205,195.8c0.5,0,1-0.1,1.3-0.4c0.4-0.3,0.6-0.6,0.8-1
			s0.3-0.9,0.3-1.3l0,0h-2c-0.8,0-1.3,0.1-1.7,0.4c-0.3,0.3-0.5,0.6-0.5,1s0.1,0.8,0.5,1C204,195.6,204.5,195.8,205,195.8z"/>
		<path class="st1" d="M215.1,196.7v-7.9h1.2l0.1,1.1c0.3-0.4,0.6-0.8,1-1s0.9-0.4,1.4-0.4c0.6,0,1.2,0.1,1.6,0.4
			c0.4,0.3,0.8,0.6,1,1.2c0.3-0.5,0.7-0.9,1.1-1.1c0.5-0.3,1-0.4,1.6-0.4c0.9,0,1.7,0.3,2.3,0.9s0.9,1.4,0.9,2.6v4.6H226v-4.5
			c0-0.8-0.2-1.4-0.5-1.9c-0.3-0.4-0.8-0.6-1.4-0.6c-0.6,0-1.2,0.2-1.6,0.7s-0.6,1.2-0.6,2.1v4.1h-1.3v-4.5c0-0.8-0.2-1.4-0.5-1.9
			c-0.3-0.4-0.8-0.6-1.4-0.6c-0.6,0-1.1,0.2-1.6,0.7c-0.4,0.5-0.6,1.2-0.6,2.1v4.1L215.1,196.7L215.1,196.7z"/>
		<path class="st1" d="M230.2,187c-0.3,0-0.5-0.1-0.7-0.3s-0.3-0.4-0.3-0.7s0.1-0.5,0.3-0.6c0.2-0.2,0.4-0.3,0.7-0.3
			s0.5,0.1,0.7,0.3s0.3,0.4,0.3,0.6c0,0.3-0.1,0.5-0.3,0.7S230.4,187,230.2,187z M229.5,196.7v-7.9h1.3v7.9H229.5z"/>
		<path class="st1" d="M233.2,196.7v-7.9h1.2l0.1,1.4c0.3-0.5,0.6-0.9,1.1-1.2s1-0.4,1.6-0.4c0.9,0,1.7,0.3,2.3,0.9
			c0.6,0.6,0.8,1.4,0.8,2.6v4.6H239v-4.5c0-1.6-0.7-2.5-2.1-2.5c-0.7,0-1.2,0.2-1.7,0.7c-0.4,0.5-0.7,1.2-0.7,2.1v4.1L233.2,196.7
			L233.2,196.7z"/>
		<path class="st1" d="M243.2,187c-0.3,0-0.5-0.1-0.7-0.3s-0.3-0.4-0.3-0.7s0.1-0.5,0.3-0.6c0.2-0.2,0.4-0.3,0.7-0.3
			s0.5,0.1,0.7,0.3s0.3,0.4,0.3,0.6c0,0.3-0.1,0.5-0.3,0.7C243.6,186.9,243.4,187,243.2,187z M242.5,196.7v-7.9h1.3v7.9H242.5z"/>
		<path class="st1" d="M184.3,263.5v-6.8h-1.2v-1.1h1.2v-1.4c0-0.8,0.2-1.3,0.6-1.7c0.4-0.3,0.9-0.5,1.7-0.5h0.8v1.1h-0.6
			c-0.4,0-0.7,0.1-0.9,0.2c-0.2,0.2-0.3,0.5-0.3,0.8v1.3h1.9v1.1h-1.9v6.8L184.3,263.5L184.3,263.5z"/>
		<path class="st1" d="M192.5,263.7c-0.8,0-1.4-0.2-2-0.5s-1.1-0.8-1.4-1.5c-0.3-0.6-0.5-1.4-0.5-2.2s0.2-1.6,0.5-2.2
			s0.8-1.1,1.4-1.5c0.6-0.3,1.3-0.5,2-0.5c0.8,0,1.4,0.2,2,0.5c0.6,0.3,1.1,0.8,1.4,1.5c0.3,0.6,0.5,1.4,0.5,2.2s-0.2,1.6-0.5,2.2
			s-0.8,1.1-1.4,1.5C193.9,263.5,193.2,263.7,192.5,263.7z M192.5,262.5c0.5,0,0.9-0.1,1.3-0.3c0.4-0.2,0.7-0.6,1-1
			c0.2-0.4,0.4-1,0.4-1.7s-0.1-1.2-0.4-1.7c-0.2-0.4-0.6-0.8-0.9-1c-0.4-0.2-0.8-0.3-1.3-0.3s-0.9,0.1-1.3,0.3c-0.4,0.2-0.7,0.6-1,1
			c-0.2,0.5-0.4,1-0.4,1.7s0.1,1.2,0.4,1.7s0.6,0.8,0.9,1C191.6,262.4,192,262.5,192.5,262.5z"/>
		<path class="st1" d="M198.3,263.5v-7.9h1.2l0.1,1.5c0.2-0.5,0.6-0.9,1.1-1.2c0.5-0.3,1.1-0.5,1.9-0.5v1.4h-0.4
			c-0.5,0-0.9,0.1-1.3,0.2c-0.4,0.2-0.7,0.5-0.9,0.8c-0.2,0.4-0.3,0.9-0.3,1.6v4L198.3,263.5L198.3,263.5L198.3,263.5z"/>
		<path class="st1" d="M209.2,267l2-4.3h-0.5l-3.1-7.2h1.5l2.6,6.2l2.8-6.2h1.4l-5.2,11.5H209.2z"/>
		<path class="st1" d="M220.1,263.7c-0.8,0-1.4-0.2-2-0.5s-1.1-0.8-1.4-1.5c-0.3-0.6-0.5-1.4-0.5-2.2s0.2-1.6,0.5-2.2
			s0.8-1.1,1.4-1.5c0.6-0.4,1.3-0.5,2-0.5s1.4,0.2,2,0.5c0.6,0.3,1.1,0.8,1.4,1.5c0.3,0.6,0.5,1.4,0.5,2.2s-0.2,1.6-0.5,2.2
			s-0.8,1.1-1.4,1.5C221.6,263.5,220.9,263.7,220.1,263.7z M220.1,262.5c0.5,0,0.9-0.1,1.3-0.3c0.4-0.2,0.7-0.6,1-1
			c0.2-0.4,0.4-1,0.4-1.7s-0.1-1.2-0.4-1.7c-0.2-0.4-0.6-0.8-0.9-1c-0.4-0.2-0.8-0.3-1.3-0.3s-0.9,0.1-1.3,0.3c-0.4,0.2-0.7,0.6-1,1
			c-0.2,0.5-0.4,1-0.4,1.7s0.1,1.2,0.4,1.7c0.2,0.5,0.6,0.8,0.9,1S219.7,262.5,220.1,262.5z"/>
		<path class="st1" d="M228.9,263.7c-0.9,0-1.7-0.3-2.2-0.9s-0.8-1.5-0.8-2.6v-4.6h1.3v4.5c0,1.7,0.7,2.5,2,2.5
			c0.7,0,1.3-0.2,1.7-0.7s0.7-1.2,0.7-2.1v-4.1h1.3v7.9h-1.2l-0.1-1.4c-0.2,0.5-0.6,0.9-1.1,1.2
			C230.1,263.5,229.5,263.7,228.9,263.7z"/>
		<path class="st1" d="M235.1,263.5v-7.9h1.2l0.1,1.5c0.2-0.5,0.6-0.9,1.1-1.2c0.5-0.3,1.1-0.5,1.9-0.5v1.4H239
			c-0.5,0-0.9,0.1-1.3,0.2c-0.4,0.2-0.7,0.5-0.9,0.8c-0.2,0.4-0.4,0.9-0.4,1.6v4L235.1,263.5L235.1,263.5z"/>
		<path class="st1" d="M248.2,263.7c-0.9,0-1.7-0.2-2.4-0.7c-0.6-0.5-1-1.1-1.1-1.9h1.4c0.1,0.4,0.3,0.8,0.7,1.1
			c0.4,0.3,0.8,0.5,1.5,0.5c0.6,0,1-0.1,1.2-0.4c0.3-0.2,0.4-0.5,0.4-0.9c0-0.5-0.2-0.8-0.5-1c-0.4-0.2-0.8-0.3-1.5-0.4
			c-0.4-0.1-0.9-0.2-1.3-0.4s-0.8-0.4-1.1-0.7c-0.3-0.3-0.4-0.7-0.4-1.2c0-0.7,0.3-1.3,0.8-1.7c0.5-0.4,1.2-0.7,2.1-0.7
			c0.8,0,1.5,0.2,2.1,0.6c0.6,0.4,0.9,1,0.9,1.8h-1.3c0-0.4-0.2-0.7-0.5-0.9c-0.3-0.2-0.7-0.3-1.2-0.3s-0.9,0.1-1.1,0.3
			c-0.3,0.2-0.4,0.5-0.4,0.8s0.2,0.6,0.5,0.8c0.3,0.2,0.8,0.3,1.4,0.5c0.5,0.1,1,0.2,1.4,0.4s0.8,0.4,1.1,0.7s0.4,0.7,0.4,1.3
			c0,0.7-0.3,1.3-0.8,1.8C249.9,263.5,249.2,263.7,248.2,263.7z"/>
		<path class="st1" d="M253.2,263.5V252h1.3v11.5H253.2z"/>
		<path class="st1" d="M260.3,263.7c-0.8,0-1.4-0.2-2-0.5c-0.6-0.4-1-0.8-1.4-1.5c-0.3-0.6-0.5-1.4-0.5-2.2c0-0.8,0.2-1.6,0.5-2.2
			s0.8-1.1,1.4-1.5c0.6-0.4,1.3-0.5,2.1-0.5c0.8,0,1.4,0.2,2,0.5c0.6,0.3,1,0.8,1.3,1.4s0.4,1.2,0.4,1.8c0,0.1,0,0.2,0,0.4
			c0,0.1,0,0.2,0,0.4h-6.3c0,0.6,0.2,1.1,0.4,1.5c0.2,0.4,0.6,0.7,0.9,0.9c0.4,0.2,0.8,0.3,1.2,0.3c0.5,0,1-0.1,1.4-0.4
			s0.6-0.6,0.8-1h1.3c-0.2,0.7-0.6,1.4-1.2,1.8C262,263.4,261.3,263.7,260.3,263.7z M260.3,256.5c-0.6,0-1.2,0.2-1.7,0.6
			s-0.8,1-0.9,1.7h5c0-0.7-0.3-1.3-0.7-1.7C261.6,256.7,261,256.5,260.3,256.5z"/>
		<path class="st1" d="M269.4,263.7c-0.8,0-1.4-0.2-2-0.5s-1-0.8-1.4-1.5c-0.3-0.6-0.5-1.4-0.5-2.2c0-0.8,0.2-1.6,0.5-2.2
			s0.8-1.1,1.4-1.5c0.6-0.4,1.3-0.5,2.1-0.5c0.8,0,1.4,0.2,2,0.5c0.6,0.3,1,0.8,1.3,1.4s0.5,1.2,0.5,1.8c0,0.1,0,0.2,0,0.4
			c0,0.1,0,0.2,0,0.4H267c0,0.6,0.2,1.1,0.4,1.5c0.2,0.4,0.6,0.7,0.9,0.9c0.4,0.2,0.8,0.3,1.2,0.3c0.5,0,1-0.1,1.4-0.4
			s0.6-0.6,0.8-1h1.3c-0.2,0.7-0.6,1.4-1.2,1.8C271.1,263.4,270.4,263.7,269.4,263.7z M269.4,256.5c-0.6,0-1.2,0.2-1.7,0.6
			s-0.8,1-0.9,1.7h5c0-0.7-0.3-1.3-0.7-1.7C270.7,256.7,270.1,256.5,269.4,256.5z"/>
		<path class="st1" d="M275,267v-11.5h1.2l0.1,1.3c0.3-0.4,0.6-0.7,1.1-1c0.5-0.3,1.1-0.5,1.8-0.5c0.8,0,1.5,0.2,2.1,0.5
			c0.6,0.4,1,0.9,1.4,1.5c0.3,0.6,0.5,1.3,0.5,2.1s-0.2,1.5-0.5,2.1s-0.8,1.1-1.4,1.5s-1.3,0.5-2.1,0.5c-0.6,0-1.2-0.1-1.7-0.4
			s-0.9-0.6-1.2-1.1v4.9H275V267z M279,262.5c0.5,0,1-0.1,1.4-0.4s0.7-0.6,1-1.1c0.2-0.4,0.3-1,0.3-1.6s-0.1-1.1-0.3-1.6
			c-0.2-0.5-0.6-0.8-1-1s-0.9-0.4-1.4-0.4s-1,0.1-1.4,0.4c-0.4,0.2-0.7,0.6-1,1c-0.2,0.5-0.4,1-0.4,1.6s0.1,1.1,0.4,1.6
			c0.2,0.5,0.6,0.8,1,1.1C278,262.4,278.5,262.5,279,262.5z"/>
		<path class="st1" d="M291.9,263.7c-0.7,0-1.2-0.1-1.7-0.3c-0.4-0.2-0.8-0.5-1-0.9s-0.3-0.8-0.3-1.2c0-0.8,0.3-1.4,0.9-1.9
			s1.5-0.7,2.5-0.7h2.1v-0.1c0-0.7-0.2-1.2-0.5-1.6c-0.4-0.4-0.9-0.5-1.5-0.5c-0.5,0-1,0.1-1.4,0.4s-0.6,0.6-0.7,1.1h-1.4
			c0-0.6,0.2-1.1,0.6-1.5c0.3-0.4,0.8-0.7,1.3-0.9s1-0.3,1.6-0.3c1.1,0,1.9,0.3,2.5,0.9c0.6,0.6,0.8,1.4,0.8,2.4v4.9h-1.2l-0.1-1.4
			c-0.2,0.4-0.6,0.8-1,1.1C293.2,263.5,292.6,263.7,291.9,263.7z M292.1,262.5c0.5,0,1-0.1,1.3-0.4c0.4-0.3,0.6-0.6,0.8-1
			s0.3-0.9,0.3-1.3l0,0h-2c-0.8,0-1.4,0.1-1.7,0.4c-0.3,0.3-0.5,0.6-0.5,1s0.1,0.8,0.5,1C291.1,262.4,291.5,262.5,292.1,262.5z"/>
		<path class="st1" d="M297.9,263.5v-7.9h1.2l0.1,1.4c0.3-0.5,0.6-0.9,1.1-1.2c0.5-0.3,1-0.4,1.6-0.4c0.9,0,1.7,0.3,2.2,0.9
			c0.5,0.6,0.8,1.5,0.8,2.6v4.6h-1.3V259c0-1.6-0.7-2.5-2-2.5c-0.7,0-1.2,0.2-1.7,0.7c-0.4,0.5-0.7,1.2-0.7,2.1v4.1L297.9,263.5
			L297.9,263.5z"/>
		<path class="st1" d="M310.6,263.7c-0.8,0-1.5-0.2-2.1-0.5c-0.6-0.4-1-0.9-1.4-1.5c-0.3-0.6-0.5-1.3-0.5-2.1c0-0.8,0.2-1.5,0.5-2.1
			s0.8-1.1,1.4-1.5c0.6-0.4,1.3-0.5,2.1-0.5c0.6,0,1.2,0.1,1.7,0.4c0.5,0.3,0.9,0.6,1.2,1.1v-5h1.3v11.5h-1.2l-0.1-1.3
			c-0.3,0.4-0.6,0.7-1.1,1C312,263.5,311.4,263.7,310.6,263.7z M310.8,262.5c0.5,0,1-0.1,1.4-0.4c0.4-0.2,0.7-0.6,1-1.1
			c0.2-0.4,0.3-1,0.3-1.6s-0.1-1.1-0.3-1.6c-0.2-0.5-0.5-0.8-1-1s-0.9-0.4-1.4-0.4s-1,0.1-1.4,0.4s-0.7,0.6-1,1s-0.3,1-0.3,1.6
			s0.1,1.1,0.3,1.6c0.2,0.5,0.5,0.8,1,1.1C309.8,262.4,310.3,262.5,310.8,262.5z"/>
		<path class="st1" d="M185.5,285.5l-2.3-7.9h1.3l1.7,6.2l1.9-6.2h1.5l1.9,6.2l1.7-6.2h1.4l-2.3,7.9h-1.4L189,279l-1.9,6.5H185.5z"
			/>
		<path class="st1" d="M199.2,285.7c-0.8,0-1.4-0.2-2-0.5s-1.1-0.8-1.4-1.5c-0.3-0.6-0.5-1.4-0.5-2.2c0-0.8,0.2-1.6,0.5-2.2
			s0.8-1.1,1.4-1.5s1.3-0.5,2.1-0.5s1.4,0.2,2,0.5c0.6,0.4,1,0.8,1.3,1.4s0.4,1.2,0.4,1.8c0,0.1,0,0.2,0,0.4c0,0.1,0,0.2,0,0.4h-6.3
			c0,0.6,0.2,1.1,0.4,1.5s0.6,0.7,0.9,0.9c0.4,0.2,0.8,0.3,1.2,0.3c0.6,0,1-0.1,1.4-0.4s0.6-0.6,0.8-1h1.3c-0.2,0.7-0.6,1.4-1.2,1.8
			C200.9,285.4,200.1,285.7,199.2,285.7z M199.2,278.5c-0.6,0-1.2,0.2-1.7,0.6s-0.8,1-0.9,1.7h5c0-0.7-0.3-1.3-0.7-1.7
			C200.4,278.7,199.9,278.5,199.2,278.5z"/>
		<path class="st1" d="M204.7,285.5V274h1.3v11.5H204.7z"/>
		<path class="st1" d="M208.3,285.5V274h1.3v11.5H208.3z"/>
		<path class="st1" d="M216.1,285.7c-0.6,0-1.2-0.1-1.7-0.4s-0.9-0.6-1.2-1.1l-0.1,1.3h-1.2V274h1.3v4.9c0.3-0.4,0.6-0.7,1.1-1
			s1.1-0.5,1.8-0.5c0.8,0,1.5,0.2,2.1,0.5c0.6,0.4,1,0.9,1.4,1.5s0.5,1.3,0.5,2.1c0,0.8-0.2,1.5-0.5,2.1s-0.8,1.1-1.4,1.5
			C217.5,285.5,216.9,285.7,216.1,285.7z M215.9,284.5c0.5,0,1-0.1,1.4-0.4s0.7-0.6,1-1.1c0.2-0.4,0.4-1,0.4-1.6s-0.1-1.1-0.4-1.6
			c-0.2-0.5-0.6-0.8-1-1s-0.9-0.4-1.4-0.4s-1,0.1-1.4,0.4c-0.4,0.2-0.7,0.6-1,1s-0.4,1-0.4,1.6s0.1,1.1,0.4,1.6
			c0.2,0.5,0.6,0.8,1,1.1C214.9,284.4,215.4,284.5,215.9,284.5z"/>
		<path class="st1" d="M225.4,285.7c-0.8,0-1.4-0.2-2-0.5s-1.1-0.8-1.4-1.5c-0.3-0.6-0.5-1.4-0.5-2.2c0-0.8,0.2-1.6,0.5-2.2
			s0.8-1.1,1.4-1.5s1.3-0.5,2.1-0.5s1.4,0.2,2,0.5s1,0.8,1.3,1.4s0.5,1.2,0.5,1.8c0,0.1,0,0.2,0,0.4c0,0.1,0,0.2,0,0.4H223
			c0,0.6,0.2,1.1,0.4,1.5s0.6,0.7,0.9,0.9c0.4,0.2,0.8,0.3,1.2,0.3c0.6,0,1-0.1,1.4-0.4s0.6-0.6,0.8-1h1.3c-0.2,0.7-0.6,1.4-1.2,1.8
			C227.1,285.4,226.4,285.7,225.4,285.7z M225.4,278.5c-0.6,0-1.2,0.2-1.7,0.6s-0.8,1-0.9,1.7h5c0-0.7-0.3-1.3-0.7-1.7
			C226.7,278.7,226.1,278.5,225.4,278.5z"/>
		<path class="st1" d="M231.8,275.8c-0.3,0-0.5-0.1-0.7-0.3c-0.2-0.2-0.3-0.4-0.3-0.7s0.1-0.5,0.3-0.6c0.2-0.2,0.4-0.3,0.7-0.3
			s0.5,0.1,0.7,0.3c0.2,0.2,0.3,0.4,0.3,0.6c0,0.3-0.1,0.5-0.3,0.7S232.1,275.8,231.8,275.8z M231.1,285.5v-7.9h1.3v7.9H231.1z"/>
		<path class="st1" d="M234.8,285.5v-7.9h1.2l0.1,1.4c0.3-0.5,0.6-0.9,1.1-1.2c0.5-0.3,1-0.4,1.6-0.4c0.9,0,1.7,0.3,2.2,0.9
			c0.6,0.6,0.8,1.5,0.8,2.6v4.6h-1.3V281c0-1.6-0.7-2.5-2-2.5c-0.7,0-1.2,0.2-1.7,0.7c-0.4,0.5-0.7,1.2-0.7,2.1v4.1L234.8,285.5
			L234.8,285.5z"/>
		<path class="st1" d="M247.1,283c-0.4,0-0.9-0.1-1.2-0.2l-0.8,0.8c0.1,0.1,0.3,0.2,0.4,0.2s0.4,0.1,0.8,0.2c0.3,0,0.8,0.1,1.4,0.1
			c1.1,0.1,1.8,0.3,2.3,0.7c0.5,0.4,0.7,1,0.7,1.6c0,0.5-0.1,0.9-0.4,1.3c-0.2,0.4-0.6,0.8-1.1,1c-0.5,0.3-1.2,0.4-2,0.4
			c-0.7,0-1.3-0.1-1.9-0.3c-0.5-0.2-1-0.5-1.3-0.9s-0.5-0.9-0.5-1.4c0-0.3,0.1-0.6,0.2-1s0.5-0.7,0.9-1c-0.2-0.1-0.4-0.2-0.6-0.3
			c-0.2-0.1-0.3-0.2-0.5-0.4v-0.4l1.4-1.3c-0.6-0.5-0.9-1.2-0.9-2.1c0-0.5,0.1-1,0.4-1.4c0.2-0.4,0.6-0.8,1.1-1s1-0.4,1.7-0.4
			c0.5,0,0.9,0.1,1.2,0.2h2.9v1l-1.5,0.1c0.3,0.5,0.5,1,0.5,1.6c0,0.5-0.1,1-0.4,1.4c-0.2,0.4-0.6,0.8-1.1,1
			C248.3,282.9,247.8,283,247.1,283z M244.8,286.5c0,0.5,0.2,0.9,0.7,1.2c0.4,0.3,1,0.4,1.7,0.4s1.2-0.1,1.6-0.4s0.6-0.7,0.6-1.1
			c0-0.3-0.1-0.6-0.4-0.9s-0.8-0.4-1.5-0.4c-0.6,0-1.1-0.1-1.5-0.2c-0.4,0.2-0.7,0.5-0.9,0.8C244.8,286.1,244.8,286.3,244.8,286.5z
			 M247.1,281.9c0.6,0,1-0.2,1.4-0.4c0.3-0.3,0.5-0.7,0.5-1.3c0-0.5-0.2-1-0.5-1.3s-0.8-0.4-1.4-0.4s-1,0.1-1.4,0.4
			c-0.3,0.3-0.5,0.7-0.5,1.3c0,0.6,0.2,1,0.5,1.3C246,281.7,246.5,281.9,247.1,281.9z"/>
		<path class="st1" d="M253.2,285.6c-0.3,0-0.5-0.1-0.7-0.3c-0.2-0.2-0.3-0.4-0.3-0.6s0.1-0.5,0.3-0.6c0.2-0.2,0.4-0.3,0.7-0.3
			s0.5,0.1,0.6,0.3c0.2,0.2,0.3,0.4,0.3,0.6s-0.1,0.5-0.3,0.6C253.7,285.5,253.5,285.6,253.2,285.6z"/>
		<path class="st2" d="M184.3,211.5c0.3-0.1,0.8-0.2,1.4-0.2c1.1,0,2.3,0.3,3.5,0.8s2.1,1.1,2.5,1.8c0.5,0.8,0.8,1.7,0.8,2.6
			c0,1.1-0.3,2.6-1,4.4l-0.6,1.3l0.8,0.9c0.6,0.6,1.1,1.3,1.5,2.1s0.6,1.6,0.6,2.4c0,0.7,0,1.4-0.1,2c-0.1,1.4-0.1,2.4-0.2,2.9
			c-0.1,0.5-0.3,1.1-0.8,1.9c-0.8,1.6-1.5,2.6-2.1,3.1s-1.5,0.8-2.7,0.8c-1.3,0-2.1,0-2.4,0.1l0,0c-0.5,0-1-0.3-1.5-0.8
			c-0.4-0.5-0.7-1.2-0.8-2c0-0.2-0.1-0.5-0.1-1c0-1,0.1-1.9,0.1-2.9c0.2-1.6,0.3-5.9,0.3-12.7c0-3.5-0.1-5.4-0.1-5.6
			c0,0-0.1-0.1-0.1-0.2c0-0.3,0.1-0.6,0.3-0.9C183.8,211.9,184.1,211.6,184.3,211.5z M189.3,226.1c-0.2-0.3-0.4-0.4-0.9-0.4
			c-0.4,0-0.6,0.2-0.8,0.5c-0.2,0.4-0.3,2.1-0.3,5.3c0,1.6,0.1,2.5,0.1,2.6h0.1c0.2,0,0.4-0.2,0.7-0.8c0.3-0.5,0.6-1.1,0.9-1.8
			c0.3-0.9,0.5-2,0.5-3.4C189.6,227.2,189.5,226.5,189.3,226.1z M188.1,216.3c-0.1-0.3-0.2-0.4-0.5-0.4c-0.2,0-0.3,0.7-0.3,2
			c0,1.2,0.1,1.8,0.1,1.8h0.1c0.2-0.2,0.3-0.5,0.5-1s0.2-0.9,0.2-1.2c0-0.1,0-0.3-0.1-0.6C188.1,216.6,188.1,216.4,188.1,216.3z"/>
		<path class="st2" d="M200.2,211.9l0.9-1.1h6.2l1,1c0.6,0.6,1.1,1.4,1.4,2.4c0.3,1,0.5,2.5,0.6,4.5c0.1,0.8,0.1,1.9,0.1,3.4
			c0,3.4-0.3,6.5-1,9.3c-0.6,2.8-1.5,4.7-2.5,5.7c-0.3,0.3-0.8,0.6-1.4,0.9c-0.6,0.2-1.2,0.4-1.6,0.4c-0.2,0-0.4,0-0.5-0.1
			c-0.3-0.2-0.6-0.2-1.1-0.2c-0.3,0-0.7-0.3-1.1-0.8c-0.4-0.6-0.8-1.2-1.1-2c-0.5-1.3-0.8-2.7-0.9-4.3c-0.1-1.6-0.2-4-0.3-7.5v-2.4
			c0-3.1,0.1-5.2,0.2-6.3C199.3,213.5,199.6,212.6,200.2,211.9z M204.9,214.3c-0.3-0.6-0.6-1-0.8-1s-0.5,0.5-0.9,1.6
			c-0.3,0.8-0.4,2.3-0.4,4.6c0,1.8,0.1,3.7,0.2,5.7c0.1,1.9,0.3,3.7,0.6,5.4s0.6,2.5,0.8,2.5s0.3-0.4,0.4-1.1
			c0.2-0.6,0.4-1.1,0.6-1.5c0.1-0.2,0.2-1.7,0.4-4.4c0.1-1.4,0.2-2.7,0.2-3.9C206.1,218.5,205.7,215.9,204.9,214.3z"/>
		<path class="st2" d="M216.9,211.9l0.9-1.1h6.2l1,1c0.6,0.6,1.1,1.4,1.4,2.4s0.5,2.5,0.6,4.5c0.1,0.8,0.1,1.9,0.1,3.4
			c0,3.4-0.3,6.5-0.9,9.3c-0.6,2.8-1.5,4.7-2.5,5.7c-0.3,0.3-0.8,0.6-1.5,0.9c-0.6,0.2-1.2,0.4-1.6,0.4c-0.2,0-0.4,0-0.5-0.1
			c-0.3-0.2-0.6-0.2-1.1-0.2c-0.3,0-0.7-0.3-1.1-0.8c-0.4-0.6-0.8-1.2-1.1-2c-0.5-1.3-0.8-2.7-0.9-4.3c-0.1-1.6-0.2-4-0.3-7.5v-2.4
			c0-3.1,0.1-5.2,0.2-6.3C216,213.5,216.3,212.6,216.9,211.9z M221.6,214.3c-0.3-0.6-0.6-1-0.8-1s-0.5,0.5-0.9,1.6
			c-0.3,0.8-0.4,2.3-0.4,4.6c0,1.8,0.1,3.7,0.2,5.7c0.1,1.9,0.4,3.7,0.6,5.4c0.3,1.7,0.6,2.5,0.8,2.5s0.3-0.4,0.4-1.1
			c0.2-0.6,0.4-1.1,0.6-1.5c0.1-0.2,0.2-1.7,0.4-4.4c0.1-1.4,0.2-2.7,0.2-3.9C222.8,218.5,222.4,215.9,221.6,214.3z"/>
		<path class="st2" d="M233.3,209.7c0.5-0.4,1.2-0.6,2.3-0.6h1.1c1.8,0.1,2.9,0.2,3.3,0.2c0.2,0.1,0.7,0.1,1.4,0.2
			c0.7,0,1.3,0.2,1.6,0.4s0.5,0.7,0.5,1.3s-0.2,1.1-0.4,1.4c-0.2,0.3-0.6,0.5-1.2,0.6c-0.7,0.1-1.1,0.2-1.2,0.3
			c-0.2,0.2-0.2,3.4-0.2,9.6c0,4.3,0,7.3,0.1,9.1c0.1,1.4,0.1,2.1,0.1,2.2c0,0.7-0.2,1.3-0.5,1.8c-0.4,0.7-0.9,1-1.7,1
			c-0.5,0-1-0.1-1.6-0.5l-0.9-0.5l0.1-11.4c0.1-2.9,0.1-5.9,0.1-8.8c0-1.8-0.1-2.7-0.4-2.9c-0.4-0.2-0.6-0.3-0.8-0.2
			c-0.1,0-0.3,0.1-0.5,0.1c-0.6,0-1.1-0.2-1.5-0.5s-0.6-0.8-0.6-1.2C232.5,210.6,232.8,210.1,233.3,209.7z"/>
		<path class="st2" d="M252.2,213.4c0.6-0.6,1.1-1,1.3-1.1s0.7-0.2,1.2-0.2c1.5,0,2.2,0.5,2.2,1.5c0,0.9-0.7,1.7-2,2.4
			c-0.8,0.5-1.5,2.1-2,5c-0.2,1.3-0.4,2.6-0.4,4s0.1,2.9,0.2,4.4c0.2,1.9,0.4,3.2,0.8,4s0.9,1.2,1.7,1.3c1.3,0.2,2.1,0.6,2.2,1.2
			c0,0.1,0.1,0.1,0.1,0.2c0,0.3-0.2,0.7-0.6,1s-0.8,0.6-1.3,0.7c-0.1,0-0.3,0.1-0.5,0.1c-1.2,0-2.4-0.3-3.4-0.9
			c-0.4-0.2-0.8-0.8-1.3-1.8s-0.9-1.9-1.2-2.8c-0.4-1.4-0.5-3.8-0.5-7.2c0-1.3,0.1-2.6,0.2-3.9c0.3-2,0.6-3.6,1.1-4.7
			C250.6,215.4,251.3,214.4,252.2,213.4z"/>
		<path class="st2" d="M266.9,214.3c0.9-0.9,2.2-1.3,3.9-1.3c0.8,0,1.4,0.1,1.9,0.4c0.7,0.3,1.2,1.3,1.5,2.8
			c0.2,1.3,0.5,3.4,0.9,6.5c0.3,3,0.5,5.4,0.6,7c0,1.5,0.1,3.3,0.3,5.2c0.2,1.9,0.3,3,0.4,3.2c0,0,0,0.1,0,0.2
			c0,0.3-0.1,0.7-0.4,1.1s-0.5,0.7-0.8,0.8c-0.1,0-0.2,0-0.5,0c-0.5,0-1-0.1-1.6-0.4c-0.6-0.2-1-0.5-1.1-0.8s-0.3-1.2-0.5-2.8
			s-0.3-2.8-0.3-3.8c0-0.9-0.1-1.4-0.3-1.6c-0.2-0.1-0.9-0.1-2.2-0.1c-1.1,0-1.7,0-1.8,0.1c0,0.2,0,0.4,0,0.6c0,0.7,0,1.6,0.1,2.7
			c0.1,1.3,0.1,2.4,0.1,3.2v0.5c0,0.2-0.3,0.4-0.7,0.6s-0.9,0.3-1.3,0.3c-0.2,0-0.4,0-0.5,0c-1.1-0.3-1.8-0.8-1.9-1.4
			c0,0,0-0.1,0-0.2s0-0.2,0-0.3c0-1.4,0.2-4.4,0.5-9s0.6-7.2,0.8-8c0.2-0.9,0.6-1.9,1.2-3.1C265.9,215.5,266.4,214.7,266.9,214.3z
			 M270.3,219.4c-0.2-1-0.4-1.4-0.7-1.4c-0.2,0-0.5,0.3-0.8,1c-0.6,1.3-1,3.2-1.2,5.5c-0.1,1-0.1,1.5-0.1,1.6c0,0.5,0.1,0.8,0.2,0.9
			c0.2,0.1,0.6,0.2,1.3,0.2c1,0,1.6-0.1,1.7-0.3c0.1-0.1,0.1-0.5,0.1-1.3C270.8,223.3,270.6,221.3,270.3,219.4z"/>
		<path class="st2" d="M294,211.8c0.4-0.2,0.8-0.2,1.2-0.2c0.9,0,1.5,0.3,1.8,0.9c0.3,0.4,0.5,1.8,0.8,4.3s0.4,5.2,0.5,8.1
			c0,0.9,0.1,2.3,0.2,4s0.1,3.2,0.2,4.5s0.1,2.3,0.1,3c0,0.4-0.2,0.8-0.8,1.1s-1,0.5-1.6,0.5c-0.5,0-0.9-0.1-1.1-0.3l-0.7-0.5
			l-0.1-6c-0.2-6.9-0.5-10.4-0.9-10.4c-0.2,0-0.6,0.9-1.1,2.6c-0.3,1-0.6,1.7-0.9,2.1s-0.7,0.6-1.2,0.6c-0.4,0-0.8-0.1-1.3-0.3
			c-0.6-0.2-1-0.8-1.4-1.5c-0.4-0.9-0.6-1.3-0.6-1.4s-0.1-0.3-0.3-0.7s-0.4-0.7-0.6-0.9c-0.2-0.3-0.3-0.4-0.4-0.4v0.6
			c0,1.4,0,3.6,0.1,6.4l0.2,6.9l-0.6,1.1c-0.7,1.1-1.4,1.7-1.9,1.7c-0.3,0-0.6-0.2-0.9-0.8c-0.3-0.4-0.4-1-0.5-1.8s-0.2-3.3-0.2-7.5
			c-0.2-7.7-0.4-12.1-0.6-13.2c0-0.1,0-0.3,0-0.5c0-0.4,0.2-0.7,0.5-1.1c0.4-0.4,0.9-0.6,1.5-0.6c0.5,0,1.2,0.2,1.9,0.5
			c0.7,0.3,1.2,0.7,1.5,1.2c0.4,0.5,1.2,2,2.5,4.4c0.3,0.6,0.6,0.9,0.8,0.9c0.2,0,0.3-0.2,0.5-0.7c0.2-0.6,0.4-1.2,0.9-2
			c0.5-1,0.7-1.6,0.7-1.7c0-0.3,0.2-0.8,0.6-1.5C293.5,212.3,293.8,211.9,294,211.8z"/>
		<path class="st2" d="M305,210.3c0.3-0.2,1.1-0.2,2.4-0.2c1.6,0,2.6,0.1,3,0.4c0.5,0.3,1.1,0.8,1.8,1.4c0.6,0.7,1.1,1.2,1.3,1.7
			c0.4,0.8,0.6,2.6,0.8,5.4c0.1,1.7,0.1,2.6,0.1,2.8c0,1-0.1,2-0.5,3c-0.3,1.1-0.7,1.9-1.2,2.4s-1.2,1-2,1.2l-1.4,0.5v4.1
			c0,2.4-0.1,3.9-0.3,4.5c-0.2,0.5-0.7,0.8-1.5,0.8c-0.7,0-1.3-0.2-1.8-0.6l-0.8-0.6v-3.6v-0.9c0-2.9-0.1-6.4-0.2-10.7
			c-0.2-4.3-0.3-6.9-0.5-8c-0.1-0.8-0.1-1.4-0.1-1.8C303.9,211.3,304.3,210.7,305,210.3z M309.4,215.1c-0.4-0.8-0.6-1.1-0.8-1.1
			c-0.1,0-0.2,0-0.2,0.1c0,1.1,0,2.4,0,3.8c0,4.7,0.2,7.1,0.6,7.1c0.1,0,0.4-0.3,0.7-0.9c0.3-0.6,0.4-1.3,0.4-2.2c0-0.2,0-1-0.1-2.3
			C309.9,217.1,309.7,215.6,309.4,215.1z"/>
		<path class="st3" d="M164.7,248.1c6.9,48.6-55.3,53.1-99.2,39.2c-33.8-10.7-42.3-9.1-44.2-36.5c-2.6-38.4,15.4-51.2,32.1-57.3
			c46.2-16.8,84.4-5.5,92.1,4.7C161.8,219.5,160.8,220.9,164.7,248.1z"/>
		<path class="st4" d="M114.7,172.6c0-0.9,0.8-15.3,17.5-21.9"/>
		<path d="M73.9,239.3c2.9,0,5.2-2.3,5.2-5.2s-2.3-5.2-5.2-5.2s-5.2,2.3-5.2,5.2C68.7,237,71,239.3,73.9,239.3z"/>
		<path d="M116.5,239.3c2.9,0,5.2-2.3,5.2-5.2s-2.3-5.2-5.2-5.2s-5.2,2.3-5.2,5.2S113.6,239.3,116.5,239.3z"/>
		<path d="M98.8,245.5c0,1.4-0.8,0-2.8,0s-4.4,1.4-4.4,0s1.6-2,3.6-2S98.8,244.1,98.8,245.5z"/>
		<path class="st5" d="M133.8,149.5c0,0-2.6-11.8-7.5-10.8C121.3,139.8,130.6,150.6,133.8,149.5z"/>
		<path class="st5" d="M133.4,148.7c0,0-11.4-6.8-12-1.8C120.8,151.9,133.4,152.3,133.4,148.7z"/>
		<path class="st5" d="M134.9,150.5c0,0,7.6-10.2,2.2-10.9C131.7,138.8,131.1,150.3,134.9,150.5z"/>
		<path class="st5" d="M133.9,150c0,0,10.9,6.6,11.1,1.1C145.2,145.7,133.7,146.1,133.9,150z"/>
		<path class="st5" d="M134.6,150.5c0,0,11.8,2.6,10.8,7.5C144.3,163,133.5,153.7,134.6,150.5z"/>
		<path class="st5" d="M135,149.7c0,0,8.7,10,3.9,11.5C134.2,162.7,131.6,150.4,135,149.7z"/>
		<path class="st5" d="M135,148.9c0,0,0.1,12.7-4.7,10.1C125.5,156.3,131.8,146.7,135,148.9z"/>
		<path class="st6" d="M138.1,154.2c0.9-1,0-3.3-2-5.2s-4.4-2.7-5.3-1.7c-0.9,1,0,3.3,2,5.2S137.2,155.1,138.1,154.2z"/>
		<path class="st7" d="M165.4,196.2c-4.2-5.3-34.9-5.8-35.1-9.4c0.2-14.6,2.2-27.7-13.2-35.3c-4-2.2-10.4-7.5-15.6-11.8
			c-4.4-3.7-10.9-3.8-15.3,0c-5.1,4.3-11.7,9.6-15.6,11.8c-15.4,7.6-13.4,20.7-13.2,35.3c-0.2,3.6-30.9,4.1-35.1,9.4
			C11.6,208.7,176.1,208.7,165.4,196.2z"/>
		<path class="st0" d="M103.1,150.9c-0.1-0.6-0.2-0.9-0.2-1.1c-0.2-1,0.2-1.7,1.2-2c0.9-0.2,1.5,0.3,1.9,1.1
			c0.5,1.2,0.8,2.5,1.4,3.6c2.8,5.8,7,8,13.4,6.9c1.1-0.2,1.9,0,2.2,1.1c0.3,1-0.4,1.8-1.6,2.1c-7.4,1.7-14.2-2-17.3-9.4
			C103.7,152.4,103.3,151.5,103.1,150.9z"/>
		<path class="st0" d="M83.7,150.9c0.1-0.6,0.2-0.9,0.2-1.1c0.2-1-0.2-1.7-1.2-2c-0.9-0.2-1.5,0.3-1.9,1.1c-0.5,1.2-0.8,2.5-1.4,3.6
			c-2.8,5.8-7,8-13.4,6.9c-1.1-0.2-1.9,0-2.2,1.1c-0.3,1,0.4,1.8,1.6,2.1c7.4,1.7,14.2-2,17.3-9.4C83.2,152.4,83.5,151.5,83.7,150.9
			z"/>
		<path class="st0" d="M130.6,186.9c0-3.1,0-6.3,0-9.4c-1.6,3.9-71.1,4.2-73.4,0.1c0,3.1,0,6.2,0,9.3
			C57.2,191.6,130.6,191.7,130.6,186.9z"/>
		<path class="st2" d="M50.5,223.6c-7.7,8-23.8,19.6-28.7,27.5c-2.7-10.8-4.5-30.6,4.3-44.9c4.7-7.6,12.3-13.5,24.3-15.8
			c14-2.6,13.8,6.5,11.1,14.9C59.3,212.3,55.4,218.5,50.5,223.6z"/>
		<path class="st8" d="M119,249.8c8.1,0,14.6-6.5,14.6-14.6s-6.5-14.6-14.6-14.6s-14.6,6.5-14.6,14.6S110.9,249.8,119,249.8z"/>
		<path class="st0" d="M125.4,234.1c-0.2,0.5,0.2,1.1,0.7,1.1h1c0.6,0,1,0.6,0.7,1.2l-6.6,13.2c1.7-0.3,3.2-0.8,4.7-1.5l6.4-13.1
			c0.3-0.5-0.1-1.2-0.7-1.2h-1.4c-0.6,0-1-0.6-0.7-1.2l2.3-4.5c-0.6-1.1-1.4-2.1-2.2-3L125.4,234.1z"/>
		<path class="st8" d="M71.8,249.8c8.1,0,14.6-6.5,14.6-14.6s-6.5-14.6-14.6-14.6s-14.6,6.5-14.6,14.6S63.7,249.8,71.8,249.8z"/>
		<path class="st0" d="M75.9,229.8h-1.4c-0.6,0-1-0.6-0.7-1.2l3.5-6.9c-1-0.4-2.1-0.7-3.3-0.9l-4.2,9.3c-0.2,0.5,0.2,1.1,0.7,1.1h1
			c0.6,0,1,0.6,0.7,1.2l-7.7,15.4c1,0.6,2.1,1.1,3.3,1.4l8.9-18.2C76.9,230.4,76.5,229.8,75.9,229.8z"/>
		<path class="st8" d="M109.1,235.8c-9.8-3.4-15.5-3.5-25.3-0.2c-2.8-1.1-4.2-1.7-7.1-2.8c12.8-4.5,26.8-4.6,39.7-0.3
			C113.5,233.8,112,234.5,109.1,235.8z"/>
		<path class="st8" d="M135.3,235.6h-2.1c-0.5,0-0.5-0.8-0.5-1.3l-0.4-1.8c0-0.5,0.4-0.9,0.9-0.9h2.1c0.5,0,0.9,0.4,0.9,0.9v2.2
			C136.2,235.2,135.8,235.6,135.3,235.6z"/>
		<path class="st8" d="M55.6,235.6h2.1c0.5,0,0.5-0.8,0.5-1.3l0.4-1.8c0-0.5-0.4-0.9-0.9-0.9h-2.1c-0.5,0-0.9,0.4-0.9,0.9v2.2
			C54.7,235.2,55.1,235.6,55.6,235.6z"/>
	</g>
</g>
</svg>
