<?xml version="1.0" encoding="utf-8"?>
<!-- Generator: Adobe Illustrator 25.1.0, SVG Export Plug-In . SVG Version: 6.00 Build 0)  -->
<svg version="1.1" id="Layer_1" xmlns="http://www.w3.org/2000/svg" xmlns:xlink="http://www.w3.org/1999/xlink" x="0px" y="0px"
	 viewBox="0 0 341.9 245.1" style="enable-background:new 0 0 341.9 245.1;" xml:space="preserve">
<style type="text/css">
	.st0{fill:#FFFFFF;}
	.st1{fill:#808080;}
	.st2{fill:#32DCD2;}
	.st3{fill:#F8D1C0;}
</style>
<g>
	<g>
		<path class="st0" d="M330.5,178c17.2-44.1,37.4-222.7-122.7-167.5c-53.1,18.3-181.5-39-195.9,52.1
			C-2.5,153.3-9.6,208.2,25.2,232.2c46.4,31.9,140.6-5.6,183.7-4.6C303.1,229.7,313.4,222.1,330.5,178z"/>
		<path class="st1" d="M27.7,166.3c-0.7,0-1.3-0.2-1.7-0.5c-0.4-0.4-0.6-1-0.6-1.9v-4.4H24v-1.1h1.4l0.2-1.9h1.2v1.9H29v1.1h-2.3
			v4.4c0,0.5,0.1,0.8,0.3,1s0.6,0.3,1.1,0.3h0.8v1.1H27.7L27.7,166.3z"/>
		<path class="st1" d="M33.4,166.5c-0.7,0-1.2-0.1-1.7-0.3c-0.4-0.2-0.8-0.5-1-0.9s-0.3-0.8-0.3-1.2c0-0.8,0.3-1.4,0.9-1.9
			c0.6-0.4,1.5-0.7,2.5-0.7H36v-0.1c0-0.7-0.2-1.2-0.5-1.6s-0.9-0.5-1.5-0.5c-0.5,0-1,0.1-1.4,0.4s-0.6,0.6-0.7,1.1h-1.4
			c0-0.6,0.2-1.1,0.6-1.5c0.3-0.4,0.8-0.7,1.3-0.9s1-0.3,1.6-0.3c1.1,0,1.9,0.3,2.5,0.9s0.8,1.4,0.8,2.4v4.9h-1.2l-0.1-1.4
			c-0.2,0.5-0.5,0.8-1,1.1C34.7,166.3,34.1,166.5,33.4,166.5z M33.6,165.4c0.5,0,1-0.1,1.3-0.4c0.4-0.3,0.7-0.6,0.8-1
			c0.2-0.4,0.3-0.9,0.3-1.3l0,0h-2c-0.8,0-1.4,0.1-1.7,0.4s-0.5,0.6-0.5,1s0.1,0.8,0.5,1C32.6,165.2,33,165.4,33.6,165.4z"/>
		<path class="st1" d="M39.4,166.3v-11.5h1.3v6.9l3.2-3.3h1.7l-3.5,3.6l4,4.3h-1.7l-3.6-4.1v4.1H39.4z"/>
		<path class="st1" d="M50.5,166.5c-0.8,0-1.4-0.2-2-0.5c-0.6-0.4-1.1-0.8-1.4-1.5c-0.3-0.6-0.5-1.4-0.5-2.2s0.2-1.6,0.5-2.2
			s0.8-1.1,1.4-1.5c0.6-0.3,1.3-0.5,2.1-0.5s1.4,0.2,2,0.5s1,0.8,1.3,1.4s0.4,1.2,0.4,1.8c0,0.1,0,0.2,0,0.3s0,0.2,0,0.4H48
			c0,0.6,0.2,1.1,0.4,1.5s0.6,0.7,0.9,0.9c0.4,0.2,0.8,0.3,1.2,0.3c0.6,0,1-0.1,1.4-0.4s0.7-0.6,0.8-1H54c-0.2,0.7-0.6,1.4-1.2,1.8
			C52.2,166.3,51.4,166.5,50.5,166.5z M50.5,159.3c-0.6,0-1.2,0.2-1.7,0.6s-0.8,1-0.9,1.7h5c0-0.7-0.3-1.3-0.7-1.7
			C51.7,159.5,51.1,159.3,50.5,159.3z"/>
		<path class="st1" d="M59,166.5c-1,0-1.7-0.2-2.4-0.7c-0.6-0.5-1-1.1-1.1-2h1.4c0.1,0.4,0.3,0.8,0.7,1.1c0.4,0.3,0.8,0.5,1.4,0.5
			s1-0.1,1.2-0.4c0.3-0.2,0.4-0.5,0.4-0.9c0-0.5-0.2-0.8-0.5-1c-0.4-0.2-0.8-0.3-1.5-0.4c-0.4-0.1-0.8-0.2-1.3-0.4s-0.8-0.4-1.1-0.7
			c-0.3-0.3-0.4-0.7-0.4-1.2c0-0.7,0.3-1.3,0.8-1.7s1.2-0.7,2.1-0.7c0.8,0,1.5,0.2,2.1,0.6s0.8,1,0.9,1.8h-1.3
			c-0.1-0.4-0.2-0.7-0.5-1c-0.3-0.2-0.7-0.3-1.2-0.3s-0.8,0.1-1.1,0.3c-0.3,0.2-0.4,0.5-0.4,0.8s0.2,0.6,0.5,0.8s0.8,0.3,1.4,0.5
			c0.5,0.1,1,0.2,1.4,0.4c0.4,0.1,0.8,0.4,1.1,0.7c0.3,0.3,0.4,0.7,0.4,1.3c0,0.7-0.3,1.3-0.8,1.8C60.7,166.3,60,166.5,59,166.5z"/>
		<path class="st1" d="M68.2,169.8v-11.5h1.2l0.1,1.3c0.3-0.4,0.6-0.7,1.1-1s1.1-0.5,1.8-0.5c0.8,0,1.5,0.2,2.1,0.5
			c0.6,0.4,1,0.9,1.4,1.5c0.3,0.6,0.5,1.3,0.5,2.1s-0.2,1.5-0.5,2.1s-0.8,1.1-1.4,1.5s-1.3,0.5-2.1,0.5c-0.7,0-1.2-0.1-1.7-0.4
			s-0.9-0.6-1.2-1.1v4.8h-1.3V169.8z M72.3,165.3c0.5,0,1-0.1,1.4-0.4c0.4-0.2,0.7-0.6,1-1c0.2-0.5,0.3-1,0.3-1.6s-0.1-1.1-0.3-1.6
			c-0.2-0.5-0.6-0.8-1-1s-0.9-0.4-1.4-0.4s-1,0.1-1.4,0.4c-0.4,0.2-0.7,0.6-1,1s-0.3,1-0.3,1.6s0.1,1.1,0.3,1.6s0.6,0.8,1,1
			C71.3,165.2,71.8,165.3,72.3,165.3z"/>
		<path class="st1" d="M78.3,166.3v-11.5h1.3v11.5H78.3z"/>
		<path class="st1" d="M84.5,166.5c-0.7,0-1.2-0.1-1.7-0.3c-0.4-0.2-0.8-0.5-1-0.9s-0.3-0.8-0.3-1.2c0-0.8,0.3-1.4,0.9-1.9
			c0.6-0.4,1.5-0.7,2.5-0.7H87v-0.1c0-0.7-0.2-1.2-0.5-1.6s-0.8-0.5-1.5-0.5c-0.5,0-1,0.1-1.4,0.4s-0.6,0.6-0.7,1.1h-1.4
			c0-0.6,0.2-1.1,0.6-1.5c0.3-0.4,0.8-0.7,1.3-0.9s1-0.3,1.6-0.3c1.1,0,1.9,0.3,2.5,0.9s0.8,1.4,0.8,2.4v4.9h-1.2l-0.1-1.4
			c-0.2,0.5-0.6,0.8-1,1.1C85.8,166.3,85.2,166.5,84.5,166.5z M84.7,165.4c0.5,0,0.9-0.1,1.3-0.4s0.7-0.6,0.8-1
			c0.2-0.4,0.3-0.9,0.3-1.3l0,0h-2c-0.8,0-1.3,0.1-1.7,0.4c-0.3,0.3-0.5,0.6-0.5,1s0.2,0.8,0.5,1C83.7,165.2,84.1,165.4,84.7,165.4z
			"/>
		<path class="st1" d="M94.1,166.5c-0.8,0-1.4-0.2-2-0.5c-0.6-0.4-1.1-0.8-1.4-1.5c-0.3-0.6-0.5-1.4-0.5-2.2s0.2-1.6,0.5-2.2
			s0.8-1.1,1.4-1.5s1.3-0.5,2-0.5c0.9,0,1.7,0.2,2.4,0.7c0.7,0.5,1.1,1.2,1.2,2h-1.4c-0.1-0.5-0.4-0.9-0.8-1.1
			c-0.4-0.3-0.9-0.4-1.5-0.4c-0.5,0-0.9,0.1-1.3,0.3s-0.7,0.6-1,1s-0.4,1-0.4,1.7s0.1,1.2,0.4,1.7c0.2,0.5,0.6,0.8,1,1
			s0.8,0.3,1.3,0.3s1-0.1,1.5-0.4s0.7-0.7,0.8-1.2h1.4c-0.2,0.8-0.6,1.5-1.2,2C95.9,166.2,95.1,166.5,94.1,166.5z"/>
		<path class="st1" d="M103.2,166.5c-0.8,0-1.4-0.2-2-0.5c-0.6-0.4-1.1-0.8-1.4-1.5c-0.3-0.6-0.5-1.4-0.5-2.2s0.2-1.6,0.5-2.2
			s0.8-1.1,1.4-1.5c0.6-0.3,1.3-0.5,2.1-0.5c0.8,0,1.4,0.2,2,0.5s1,0.8,1.3,1.4s0.4,1.2,0.4,1.8c0,0.1,0,0.2,0,0.3s0,0.2,0,0.4h-6.3
			c0,0.6,0.2,1.1,0.4,1.5c0.2,0.4,0.6,0.7,0.9,0.9c0.4,0.2,0.8,0.3,1.2,0.3c0.6,0,1-0.1,1.4-0.4s0.7-0.6,0.8-1h1.3
			c-0.2,0.7-0.6,1.4-1.2,1.8C104.9,166.3,104.1,166.5,103.2,166.5z M103.2,159.3c-0.6,0-1.2,0.2-1.7,0.6s-0.8,1-0.9,1.7h5
			c0-0.7-0.3-1.3-0.7-1.7C104.4,159.5,103.8,159.3,103.2,159.3z"/>
		<path class="st1" d="M116.6,166.5c-0.8,0-1.5-0.2-2.1-0.5c-0.6-0.4-1.1-0.9-1.4-1.5s-0.5-1.3-0.5-2.1s0.2-1.5,0.5-2.1
			s0.8-1.1,1.4-1.5s1.3-0.5,2.1-0.5c0.6,0,1.2,0.1,1.7,0.4s0.9,0.6,1.2,1.1v-4.9h1.3v11.5h-1.2l-0.1-1.3c-0.3,0.4-0.6,0.7-1.1,1
			S117.3,166.5,116.6,166.5z M116.7,165.3c0.5,0,1-0.1,1.4-0.4c0.4-0.2,0.7-0.6,1-1s0.3-1,0.3-1.6s-0.1-1.1-0.3-1.6s-0.6-0.8-1-1
			s-0.9-0.4-1.4-0.4s-1,0.1-1.4,0.4s-0.7,0.6-1,1c-0.2,0.5-0.3,1-0.3,1.6s0.1,1.1,0.3,1.6s0.6,0.8,1,1
			C115.7,165.2,116.2,165.3,116.7,165.3z"/>
		<path class="st1" d="M125.9,166.5c-0.9,0-1.7-0.3-2.2-0.9s-0.8-1.5-0.8-2.6v-4.6h1.3v4.5c0,1.7,0.7,2.5,2,2.5
			c0.7,0,1.3-0.2,1.7-0.7c0.4-0.5,0.7-1.2,0.7-2.1v-4.1h1.3v7.9h-1.2l-0.1-1.4c-0.2,0.5-0.6,0.9-1.1,1.2
			C127.1,166.4,126.5,166.5,125.9,166.5z"/>
		<path class="st1" d="M132.1,166.3v-7.9h1.2l0.1,1.5c0.2-0.5,0.6-0.9,1.1-1.2s1.1-0.5,1.9-0.5v1.4H136c-0.5,0-0.9,0.1-1.3,0.2
			c-0.4,0.2-0.7,0.5-0.9,0.8c-0.2,0.4-0.4,0.9-0.4,1.6v4h-1.3V166.3z"/>
		<path class="st1" d="M138.8,156.6c-0.3,0-0.5-0.1-0.7-0.3s-0.3-0.4-0.3-0.7s0.1-0.5,0.3-0.6c0.2-0.2,0.4-0.3,0.7-0.3
			s0.5,0.1,0.7,0.3s0.3,0.4,0.3,0.6c0,0.3-0.1,0.5-0.3,0.7C139.2,156.5,139,156.6,138.8,156.6z M138.1,166.3v-7.9h1.3v7.9H138.1z"/>
		<path class="st1" d="M141.8,166.3v-7.9h1.2l0.1,1.4c0.3-0.5,0.6-0.9,1.1-1.2s1-0.4,1.6-0.4c0.9,0,1.7,0.3,2.2,0.9
			c0.6,0.6,0.8,1.4,0.8,2.6v4.6h-1.3v-4.5c0-1.6-0.7-2.5-2.1-2.5c-0.7,0-1.2,0.2-1.7,0.7c-0.4,0.5-0.7,1.2-0.7,2.1v4.1L141.8,166.3
			L141.8,166.3z"/>
		<path class="st1" d="M154.1,163.8c-0.5,0-0.9-0.1-1.2-0.2l-0.8,0.8c0.1,0.1,0.3,0.2,0.4,0.2c0.2,0.1,0.4,0.1,0.8,0.2
			s0.8,0.1,1.4,0.2c1.1,0.1,1.8,0.3,2.3,0.7s0.7,1,0.7,1.6c0,0.5-0.1,0.9-0.4,1.3c-0.2,0.4-0.6,0.8-1.1,1c-0.5,0.3-1.2,0.4-2,0.4
			c-0.7,0-1.3-0.1-1.9-0.3c-0.6-0.2-1-0.5-1.3-0.9s-0.5-0.9-0.5-1.4c0-0.3,0.1-0.6,0.2-1c0.2-0.4,0.5-0.7,0.9-1
			c-0.2-0.1-0.4-0.2-0.6-0.3c-0.2-0.1-0.3-0.2-0.5-0.4v-0.4l1.4-1.3c-0.6-0.5-0.9-1.2-0.9-2.1c0-0.5,0.1-1,0.4-1.4
			c0.2-0.4,0.6-0.8,1.1-1s1-0.4,1.7-0.4c0.5,0,0.9,0.1,1.2,0.2h2.9v1l-1.5,0.1c0.3,0.5,0.5,1,0.5,1.6c0,0.5-0.1,1-0.4,1.4
			c-0.2,0.4-0.6,0.8-1.1,1C155.3,163.7,154.8,163.8,154.1,163.8z M151.7,167.3c0,0.5,0.2,0.9,0.7,1.2s1,0.4,1.7,0.4s1.2-0.1,1.6-0.4
			c0.4-0.3,0.6-0.7,0.6-1.2c0-0.3-0.1-0.6-0.4-0.9s-0.8-0.4-1.5-0.4c-0.6,0-1.1-0.1-1.5-0.2c-0.4,0.2-0.7,0.5-0.9,0.8
			C151.8,166.9,151.7,167.1,151.7,167.3z M154.1,162.7c0.6,0,1-0.2,1.3-0.4c0.3-0.3,0.5-0.7,0.5-1.3c0-0.5-0.2-1-0.5-1.3
			s-0.8-0.4-1.3-0.4c-0.6,0-1,0.2-1.4,0.4c-0.3,0.3-0.5,0.7-0.5,1.3s0.2,1,0.5,1.3C153,162.6,153.5,162.7,154.1,162.7z"/>
		<path class="st1" d="M167.1,166.5c-0.9,0-1.7-0.2-2.4-0.7c-0.6-0.5-1-1.1-1.1-2h1.4c0.1,0.4,0.3,0.8,0.7,1.1s0.8,0.5,1.5,0.5
			c0.6,0,1-0.1,1.2-0.4c0.3-0.2,0.4-0.5,0.4-0.9c0-0.5-0.2-0.8-0.5-1s-0.8-0.3-1.5-0.4c-0.4-0.1-0.9-0.2-1.3-0.4
			c-0.4-0.2-0.8-0.4-1.1-0.7s-0.4-0.7-0.4-1.2c0-0.7,0.3-1.3,0.8-1.7s1.2-0.7,2.1-0.7c0.8,0,1.5,0.2,2.1,0.6c0.5,0.4,0.8,1,0.9,1.8
			h-1.3c-0.1-0.4-0.2-0.7-0.5-1c-0.3-0.2-0.7-0.3-1.2-0.3s-0.9,0.1-1.1,0.3c-0.3,0.2-0.4,0.5-0.4,0.8s0.2,0.6,0.5,0.8
			s0.8,0.3,1.4,0.5c0.5,0.1,1,0.2,1.4,0.4c0.4,0.1,0.8,0.4,1.1,0.7s0.4,0.7,0.4,1.3c0,0.7-0.3,1.3-0.8,1.8
			C168.7,166.3,168,166.5,167.1,166.5z"/>
		<path class="st1" d="M172,166.3v-11.5h1.3v11.5H172z"/>
		<path class="st1" d="M179.1,166.5c-0.8,0-1.4-0.2-2-0.5c-0.6-0.4-1.1-0.8-1.4-1.5c-0.3-0.6-0.5-1.4-0.5-2.2s0.2-1.6,0.5-2.2
			s0.8-1.1,1.4-1.5s1.3-0.5,2.1-0.5s1.4,0.2,2,0.5s1,0.8,1.3,1.4s0.4,1.2,0.4,1.8c0,0.1,0,0.2,0,0.3s0,0.2,0,0.4h-6.3
			c0,0.6,0.2,1.1,0.4,1.5s0.6,0.7,0.9,0.9c0.4,0.2,0.8,0.3,1.2,0.3c0.5,0,1-0.1,1.4-0.4s0.6-0.6,0.8-1h1.3c-0.2,0.7-0.6,1.4-1.2,1.8
			C180.8,166.3,180.1,166.5,179.1,166.5z M179.1,159.3c-0.6,0-1.2,0.2-1.7,0.6s-0.8,1-0.9,1.7h5c0-0.7-0.3-1.3-0.7-1.7
			C180.4,159.5,179.8,159.3,179.1,159.3z"/>
		<path class="st1" d="M188.2,166.5c-0.8,0-1.4-0.2-2-0.5c-0.6-0.4-1.1-0.8-1.4-1.5c-0.3-0.6-0.5-1.4-0.5-2.2s0.2-1.6,0.5-2.2
			s0.8-1.1,1.4-1.5c0.6-0.3,1.3-0.5,2.1-0.5s1.4,0.2,2,0.5s1,0.8,1.3,1.4s0.4,1.2,0.4,1.8c0,0.1,0,0.2,0,0.3s0,0.2,0,0.4h-6.3
			c0,0.6,0.2,1.1,0.4,1.5s0.6,0.7,0.9,0.9c0.4,0.2,0.8,0.3,1.2,0.3c0.6,0,1-0.1,1.4-0.4c0.4-0.2,0.7-0.6,0.8-1h1.3
			c-0.2,0.7-0.6,1.4-1.2,1.8C189.9,166.3,189.2,166.5,188.2,166.5z M188.2,159.3c-0.6,0-1.2,0.2-1.7,0.6s-0.8,1-0.9,1.7h5
			c0-0.7-0.3-1.3-0.7-1.7C189.5,159.5,188.9,159.3,188.2,159.3z"/>
		<path class="st1" d="M193.8,169.8v-11.5h1.2l0.1,1.3c0.3-0.4,0.6-0.7,1.1-1s1.1-0.5,1.8-0.5c0.8,0,1.5,0.2,2.1,0.5
			c0.6,0.4,1,0.9,1.4,1.5s0.5,1.3,0.5,2.1s-0.2,1.5-0.5,2.1s-0.8,1.1-1.4,1.5c-0.6,0.4-1.3,0.5-2.1,0.5c-0.7,0-1.2-0.1-1.7-0.4
			s-0.9-0.6-1.2-1.1v4.8h-1.3L193.8,169.8L193.8,169.8z M197.9,165.3c0.5,0,1-0.1,1.4-0.4c0.4-0.2,0.7-0.6,1-1
			c0.2-0.5,0.4-1,0.4-1.6s-0.1-1.1-0.4-1.6c-0.2-0.5-0.6-0.8-1-1s-0.9-0.4-1.4-0.4s-1,0.1-1.4,0.4s-0.7,0.6-1,1
			c-0.2,0.5-0.4,1-0.4,1.6s0.1,1.1,0.4,1.6c0.2,0.5,0.5,0.8,1,1C196.9,165.2,197.3,165.3,197.9,165.3z"/>
		<path class="st1" d="M202.7,168.2l0.9-3.5h1.4l-1.4,3.5H202.7z"/>
		<path class="st1" d="M213.9,166.5c-0.9,0-1.7-0.2-2.4-0.7c-0.6-0.5-1-1.1-1.1-2h1.4c0.1,0.4,0.3,0.8,0.7,1.1s0.8,0.5,1.5,0.5
			c0.6,0,1-0.1,1.2-0.4c0.3-0.2,0.4-0.5,0.4-0.9c0-0.5-0.2-0.8-0.5-1s-0.8-0.3-1.5-0.4c-0.4-0.1-0.9-0.2-1.3-0.4
			c-0.4-0.2-0.8-0.4-1.1-0.7s-0.4-0.7-0.4-1.2c0-0.7,0.3-1.3,0.8-1.7s1.2-0.7,2.1-0.7c0.8,0,1.5,0.2,2.1,0.6c0.5,0.4,0.8,1,0.9,1.8
			h-1.3c-0.1-0.4-0.2-0.7-0.5-1c-0.3-0.2-0.7-0.3-1.2-0.3s-0.9,0.1-1.1,0.3c-0.3,0.2-0.4,0.5-0.4,0.8s0.2,0.6,0.5,0.8
			s0.8,0.3,1.4,0.5c0.5,0.1,1,0.2,1.4,0.4c0.4,0.1,0.8,0.4,1.1,0.7s0.4,0.7,0.4,1.3c0,0.7-0.3,1.3-0.8,1.8
			C215.6,166.3,214.9,166.5,213.9,166.5z"/>
		<path class="st1" d="M222.5,166.5c-0.8,0-1.4-0.2-2-0.5s-1.1-0.8-1.4-1.4c-0.4-0.6-0.5-1.4-0.5-2.2s0.2-1.6,0.5-2.2
			c0.4-0.6,0.8-1.1,1.4-1.5c0.6-0.3,1.3-0.5,2-0.5s1.4,0.2,2,0.5s1.1,0.8,1.4,1.5c0.4,0.6,0.5,1.4,0.5,2.2s-0.2,1.6-0.5,2.2
			c-0.4,0.6-0.8,1.1-1.4,1.4C223.9,166.3,223.3,166.5,222.5,166.5z M222.5,165.4c0.5,0,0.9-0.1,1.3-0.3c0.4-0.2,0.7-0.6,1-1
			s0.4-1,0.4-1.7s-0.1-1.2-0.4-1.7c-0.2-0.4-0.6-0.8-0.9-1c-0.4-0.2-0.8-0.3-1.3-0.3s-0.9,0.1-1.3,0.3c-0.4,0.2-0.7,0.6-1,1
			c-0.2,0.5-0.4,1-0.4,1.7s0.1,1.2,0.4,1.7c0.2,0.5,0.6,0.8,0.9,1C221.6,165.2,222.1,165.4,222.5,165.4z"/>
		<path class="st1" d="M232.6,169.8v-11.5h1.2l0.1,1.3c0.3-0.4,0.6-0.7,1.1-1s1.1-0.5,1.8-0.5c0.8,0,1.5,0.2,2.1,0.5
			c0.6,0.4,1,0.9,1.4,1.5c0.3,0.6,0.5,1.3,0.5,2.1s-0.2,1.5-0.5,2.1s-0.8,1.1-1.4,1.5s-1.3,0.5-2.1,0.5c-0.6,0-1.2-0.1-1.7-0.4
			s-0.9-0.6-1.2-1.1v4.8h-1.3L232.6,169.8L232.6,169.8z M236.7,165.3c0.5,0,1-0.1,1.4-0.4c0.4-0.2,0.7-0.6,1-1
			c0.2-0.5,0.4-1,0.4-1.6s-0.1-1.1-0.4-1.6c-0.2-0.5-0.5-0.8-1-1c-0.4-0.2-0.9-0.4-1.4-0.4s-1,0.1-1.4,0.4s-0.7,0.6-1,1
			c-0.2,0.5-0.3,1-0.3,1.6s0.1,1.1,0.3,1.6s0.6,0.8,1,1C235.7,165.2,236.2,165.3,236.7,165.3z"/>
		<path class="st1" d="M242.7,166.3v-7.9h1.2l0.1,1.5c0.2-0.5,0.6-0.9,1.1-1.2s1.1-0.5,1.9-0.5v1.4h-0.4c-0.5,0-0.9,0.1-1.3,0.2
			c-0.4,0.2-0.7,0.5-0.9,0.8c-0.2,0.4-0.3,0.9-0.3,1.6v4h-1.4L242.7,166.3L242.7,166.3z"/>
		<path class="st1" d="M249.3,156.6c-0.3,0-0.5-0.1-0.7-0.3s-0.3-0.4-0.3-0.7s0.1-0.5,0.3-0.6c0.2-0.2,0.4-0.3,0.7-0.3
			s0.5,0.1,0.7,0.3s0.3,0.4,0.3,0.6c0,0.3-0.1,0.5-0.3,0.7C249.8,156.5,249.5,156.6,249.3,156.6z M248.6,166.3v-7.9h1.3v7.9H248.6z"
			/>
		<path class="st1" d="M255.9,166.5c-0.8,0-1.4-0.2-2-0.5s-1.1-0.8-1.4-1.4c-0.4-0.6-0.5-1.4-0.5-2.2s0.2-1.6,0.5-2.2
			s0.8-1.1,1.4-1.5c0.6-0.3,1.3-0.5,2-0.5c0.8,0,1.4,0.2,2,0.5s1.1,0.8,1.4,1.5c0.4,0.6,0.5,1.4,0.5,2.2s-0.2,1.6-0.5,2.2
			s-0.8,1.1-1.4,1.4C257.3,166.3,256.7,166.5,255.9,166.5z M255.9,165.4c0.5,0,0.9-0.1,1.3-0.3s0.7-0.6,1-1s0.4-1,0.4-1.7
			s-0.1-1.2-0.4-1.7c-0.2-0.4-0.6-0.8-1-1s-0.8-0.3-1.3-0.3s-0.9,0.1-1.3,0.3s-0.7,0.6-1,1c-0.2,0.5-0.4,1-0.4,1.7s0.1,1.2,0.4,1.7
			c0.2,0.5,0.6,0.8,1,1C255,165.2,255.5,165.4,255.9,165.4z"/>
		<path class="st1" d="M261.8,166.3v-7.9h1.2l0.1,1.5c0.2-0.5,0.6-0.9,1.1-1.2s1.1-0.5,1.9-0.5v1.4h-0.4c-0.5,0-0.9,0.1-1.3,0.2
			c-0.4,0.2-0.7,0.5-0.9,0.8c-0.2,0.4-0.4,0.9-0.4,1.6v4h-1.3L261.8,166.3L261.8,166.3z"/>
		<path class="st1" d="M268.4,156.6c-0.3,0-0.5-0.1-0.7-0.3s-0.3-0.4-0.3-0.7s0.1-0.5,0.3-0.6c0.2-0.2,0.4-0.3,0.7-0.3
			c0.3,0,0.5,0.1,0.7,0.3s0.3,0.4,0.3,0.6c0,0.3-0.1,0.5-0.3,0.7C268.9,156.5,268.6,156.6,268.4,156.6z M267.7,166.3v-7.9h1.3v7.9
			H267.7z"/>
		<path class="st1" d="M274.5,166.3c-0.7,0-1.3-0.2-1.7-0.5c-0.4-0.4-0.6-1-0.6-1.9v-4.4h-1.4v-1.1h1.4l0.2-1.9h1.2v1.9h2.3v1.1
			h-2.3v4.4c0,0.5,0.1,0.8,0.3,1c0.2,0.2,0.6,0.3,1.1,0.3h0.8v1.1H274.5L274.5,166.3z"/>
		<path class="st1" d="M278.4,156.6c-0.3,0-0.5-0.1-0.7-0.3s-0.3-0.4-0.3-0.7s0.1-0.5,0.3-0.6c0.2-0.2,0.4-0.3,0.7-0.3
			s0.5,0.1,0.7,0.3s0.3,0.4,0.3,0.6c0,0.3-0.1,0.5-0.3,0.7C278.9,156.5,278.7,156.6,278.4,156.6z M277.7,166.3v-7.9h1.3v7.9H277.7z"
			/>
		<path class="st1" d="M284.5,166.5c-0.9,0-1.7-0.2-2.4-0.7c-0.6-0.5-1-1.1-1.1-2h1.4c0.1,0.4,0.3,0.8,0.7,1.1
			c0.4,0.3,0.8,0.5,1.5,0.5c0.6,0,1-0.1,1.2-0.4c0.3-0.2,0.4-0.5,0.4-0.9c0-0.5-0.2-0.8-0.5-1s-0.8-0.3-1.5-0.4
			c-0.4-0.1-0.9-0.2-1.3-0.4s-0.8-0.4-1.1-0.7c-0.3-0.3-0.4-0.7-0.4-1.2c0-0.7,0.3-1.3,0.8-1.7s1.2-0.7,2.1-0.7
			c0.8,0,1.5,0.2,2.1,0.6c0.5,0.4,0.9,1,0.9,1.8H286c0-0.4-0.2-0.7-0.5-1c-0.3-0.2-0.7-0.3-1.2-0.3s-0.9,0.1-1.1,0.3
			s-0.4,0.5-0.4,0.8s0.2,0.6,0.5,0.8s0.8,0.3,1.4,0.5c0.5,0.1,1,0.2,1.4,0.4c0.4,0.1,0.8,0.4,1.1,0.7c0.3,0.3,0.4,0.7,0.4,1.3
			c0,0.7-0.3,1.3-0.8,1.8C286.1,166.3,285.4,166.5,284.5,166.5z"/>
		<path class="st1" d="M290.2,156.6c-0.3,0-0.5-0.1-0.7-0.3s-0.3-0.4-0.3-0.7s0.1-0.5,0.3-0.6c0.2-0.2,0.4-0.3,0.7-0.3
			c0.3,0,0.5,0.1,0.7,0.3s0.3,0.4,0.3,0.6c0,0.3-0.1,0.5-0.3,0.7C290.7,156.5,290.5,156.6,290.2,156.6z M289.6,166.3v-7.9h1.3v7.9
			H289.6z"/>
		<path class="st1" d="M293.2,166.3v-7.9h1.2l0.1,1.4c0.3-0.5,0.6-0.9,1.1-1.2s1-0.4,1.6-0.4c0.9,0,1.7,0.3,2.2,0.9
			c0.6,0.6,0.8,1.4,0.8,2.6v4.6H299v-4.5c0-1.6-0.7-2.5-2-2.5c-0.7,0-1.2,0.2-1.7,0.7c-0.4,0.5-0.7,1.2-0.7,2.1v4.1L293.2,166.3
			L293.2,166.3z"/>
		<path class="st1" d="M305.5,163.8c-0.5,0-0.9-0.1-1.2-0.2l-0.8,0.8c0.1,0.1,0.3,0.2,0.4,0.2s0.4,0.1,0.8,0.2
			c0.3,0,0.8,0.1,1.4,0.2c1.1,0.1,1.8,0.3,2.3,0.7s0.7,1,0.7,1.6c0,0.5-0.1,0.9-0.4,1.3c-0.2,0.4-0.6,0.8-1.1,1
			c-0.5,0.3-1.2,0.4-2,0.4c-0.7,0-1.3-0.1-1.9-0.3c-0.5-0.2-1-0.5-1.3-0.9s-0.5-0.9-0.5-1.4c0-0.3,0.1-0.6,0.2-1
			c0.2-0.4,0.5-0.7,0.9-1c-0.2-0.1-0.4-0.2-0.6-0.3s-0.3-0.2-0.5-0.4v-0.4l1.4-1.3c-0.6-0.5-0.9-1.2-0.9-2.1c0-0.5,0.1-1,0.4-1.4
			c0.2-0.4,0.6-0.8,1.1-1s1-0.4,1.7-0.4c0.5,0,0.9,0.1,1.2,0.2h2.9v1l-1.5,0.1c0.3,0.5,0.5,1,0.5,1.6c0,0.5-0.1,1-0.4,1.4
			c-0.2,0.4-0.6,0.8-1.1,1C306.8,163.7,306.2,163.8,305.5,163.8z M303.2,167.3c0,0.5,0.2,0.9,0.7,1.2s1,0.4,1.7,0.4s1.2-0.1,1.6-0.4
			s0.6-0.7,0.6-1.2c0-0.3-0.1-0.6-0.4-0.9s-0.8-0.4-1.5-0.4c-0.6,0-1.1-0.1-1.5-0.2c-0.4,0.2-0.7,0.5-0.9,0.8
			C303.3,166.9,303.2,167.1,303.2,167.3z M305.5,162.7c0.6,0,1-0.2,1.4-0.4c0.3-0.3,0.5-0.7,0.5-1.3c0-0.5-0.2-1-0.5-1.3
			s-0.8-0.4-1.4-0.4s-1,0.2-1.4,0.4c-0.3,0.3-0.5,0.7-0.5,1.3s0.2,1,0.5,1.3C304.5,162.6,305,162.7,305.5,162.7z"/>
		<path class="st1" d="M25.4,191.8l2-4.3h-0.5l-3.2-7.2h1.5l2.6,6.2l2.8-6.2H32l-5.2,11.5H25.4z"/>
		<path class="st1" d="M36.3,188.5c-0.8,0-1.4-0.2-2-0.5s-1.1-0.8-1.4-1.4c-0.4-0.6-0.5-1.4-0.5-2.2s0.2-1.6,0.5-2.2
			s0.8-1.1,1.4-1.5c0.6-0.3,1.3-0.5,2-0.5s1.4,0.2,2,0.5s1.1,0.8,1.4,1.5c0.4,0.6,0.5,1.4,0.5,2.2s-0.2,1.6-0.5,2.2
			c-0.4,0.6-0.8,1.1-1.4,1.4C37.7,188.3,37.1,188.5,36.3,188.5z M36.3,187.4c0.5,0,0.9-0.1,1.3-0.3c0.4-0.2,0.7-0.6,1-1
			s0.4-1,0.4-1.7s-0.1-1.2-0.4-1.7c-0.2-0.4-0.6-0.8-1-1s-0.8-0.3-1.3-0.3s-0.9,0.1-1.3,0.3c-0.4,0.2-0.7,0.6-1,1
			c-0.2,0.5-0.4,1-0.4,1.7s0.1,1.2,0.4,1.7c0.2,0.5,0.6,0.8,1,1C35.4,187.2,35.9,187.4,36.3,187.4z"/>
		<path class="st1" d="M45.1,188.5c-0.9,0-1.7-0.3-2.2-0.9c-0.6-0.6-0.8-1.4-0.8-2.6v-4.6h1.3v4.5c0,1.7,0.7,2.5,2,2.5
			c0.7,0,1.3-0.2,1.7-0.7c0.5-0.5,0.7-1.2,0.7-2.1v-4.1h1.3v7.9h-1.2l-0.1-1.4c-0.2,0.5-0.6,0.9-1.1,1.2
			C46.2,188.4,45.7,188.5,45.1,188.5z"/>
		<path class="st1" d="M51.3,188.3v-7.9h1.2l0.1,1.5c0.2-0.5,0.6-0.9,1.1-1.2s1.1-0.5,1.9-0.5v1.4h-0.4c-0.5,0-0.9,0.1-1.3,0.2
			c-0.4,0.2-0.7,0.5-0.9,0.8c-0.2,0.4-0.3,0.9-0.3,1.6v4h-1.4C51.3,188.2,51.3,188.3,51.3,188.3z"/>
		<path class="st1" d="M64.4,188.5c-0.9,0-1.7-0.2-2.4-0.7c-0.6-0.5-1-1.1-1.1-2h1.4c0.1,0.4,0.3,0.8,0.7,1.1s0.8,0.5,1.5,0.5
			c0.6,0,1-0.1,1.2-0.4c0.3-0.2,0.4-0.5,0.4-0.9c0-0.5-0.2-0.8-0.5-1s-0.8-0.3-1.5-0.4c-0.4-0.1-0.8-0.2-1.3-0.4s-0.8-0.4-1.1-0.7
			c-0.3-0.3-0.4-0.7-0.4-1.2c0-0.7,0.3-1.3,0.8-1.7s1.2-0.7,2.1-0.7c0.8,0,1.5,0.2,2.1,0.6s0.9,1,0.9,1.8h-1.3c0-0.4-0.2-0.7-0.5-1
			c-0.3-0.2-0.7-0.3-1.2-0.3s-0.8,0.1-1.1,0.3s-0.4,0.5-0.4,0.8s0.2,0.6,0.5,0.8s0.8,0.3,1.4,0.5c0.5,0.1,1,0.2,1.4,0.4
			c0.4,0.1,0.8,0.4,1.1,0.7c0.3,0.3,0.4,0.7,0.4,1.3c0,0.7-0.3,1.3-0.8,1.8C66.1,188.3,65.3,188.5,64.4,188.5z"/>
		<path class="st1" d="M69.4,188.3v-11.5h1.3v11.5H69.4z"/>
		<path class="st1" d="M76.5,188.5c-0.8,0-1.4-0.2-2-0.5c-0.6-0.4-1.1-0.8-1.4-1.5c-0.3-0.6-0.5-1.4-0.5-2.2s0.2-1.6,0.5-2.2
			s0.8-1.1,1.4-1.5c0.6-0.3,1.3-0.5,2.1-0.5c0.8,0,1.4,0.2,2,0.5s1,0.8,1.3,1.4s0.5,1.2,0.5,1.8c0,0.1,0,0.2,0,0.3s0,0.2,0,0.4h-6.3
			c0,0.6,0.2,1.1,0.4,1.5c0.2,0.4,0.6,0.7,0.9,0.9c0.4,0.2,0.8,0.3,1.2,0.3c0.6,0,1-0.1,1.4-0.4c0.4-0.2,0.7-0.6,0.8-1H80
			c-0.2,0.7-0.6,1.4-1.2,1.8C78.2,188.3,77.4,188.5,76.5,188.5z M76.5,181.3c-0.6,0-1.2,0.2-1.7,0.6s-0.8,1-0.9,1.7h5
			c0-0.7-0.3-1.3-0.7-1.7C77.7,181.5,77.2,181.3,76.5,181.3z"/>
		<path class="st1" d="M85.6,188.5c-0.8,0-1.4-0.2-2-0.5c-0.6-0.4-1.1-0.8-1.4-1.5c-0.3-0.6-0.5-1.4-0.5-2.2s0.2-1.6,0.5-2.2
			s0.8-1.1,1.4-1.5c0.6-0.3,1.3-0.5,2.1-0.5c0.8,0,1.4,0.2,2,0.5s1,0.8,1.3,1.4s0.4,1.2,0.4,1.8c0,0.1,0,0.2,0,0.3s0,0.2,0,0.4H83
			c0,0.6,0.2,1.1,0.4,1.5c0.2,0.4,0.6,0.7,0.9,0.9c0.4,0.2,0.8,0.3,1.2,0.3c0.6,0,1-0.1,1.4-0.4c0.4-0.3,0.6-0.6,0.8-1H89
			c-0.2,0.7-0.6,1.4-1.2,1.8C87.3,188.3,86.5,188.5,85.6,188.5z M85.6,181.3c-0.6,0-1.2,0.2-1.7,0.6s-0.8,1-0.9,1.7h5
			c0-0.7-0.3-1.3-0.7-1.7C86.8,181.5,86.3,181.3,85.6,181.3z"/>
		<path class="st1" d="M91.1,191.8v-11.5h1.2l0.1,1.3c0.3-0.4,0.6-0.7,1.1-1s1.1-0.5,1.8-0.5c0.8,0,1.5,0.2,2.1,0.5
			c0.6,0.4,1,0.9,1.4,1.5s0.5,1.3,0.5,2.1s-0.2,1.5-0.5,2.1c-0.3,0.6-0.8,1.1-1.4,1.5s-1.3,0.5-2.1,0.5c-0.6,0-1.2-0.1-1.7-0.4
			c-0.5-0.3-0.9-0.6-1.2-1.1v4.8h-1.3V191.8z M95.2,187.3c0.5,0,1-0.1,1.4-0.4c0.4-0.2,0.7-0.6,1-1c0.2-0.5,0.3-1,0.3-1.6
			s-0.1-1.1-0.3-1.6c-0.2-0.5-0.6-0.8-1-1s-0.9-0.4-1.4-0.4s-1,0.1-1.4,0.4c-0.4,0.2-0.7,0.6-1,1c-0.2,0.5-0.3,1-0.3,1.6
			s0.1,1.1,0.3,1.6c0.2,0.5,0.6,0.8,1,1C94.2,187.2,94.7,187.3,95.2,187.3z"/>
		<path class="st1" d="M109.1,188.5c-0.8,0-1.4-0.2-2-0.5c-0.6-0.4-1.1-0.8-1.4-1.5c-0.3-0.6-0.5-1.4-0.5-2.2s0.2-1.6,0.5-2.2
			s0.8-1.1,1.4-1.5s1.3-0.5,2-0.5c0.9,0,1.7,0.2,2.4,0.7c0.7,0.5,1.1,1.2,1.2,2h-1.4c-0.1-0.5-0.4-0.9-0.8-1.1
			c-0.4-0.3-0.9-0.4-1.5-0.4c-0.5,0-0.9,0.1-1.3,0.3s-0.7,0.6-1,1s-0.4,1-0.4,1.7s0.1,1.2,0.4,1.7c0.2,0.5,0.6,0.8,1,1
			s0.8,0.3,1.3,0.3s1-0.1,1.5-0.4c0.4-0.3,0.7-0.7,0.8-1.2h1.4c-0.2,0.8-0.6,1.5-1.2,2C110.8,188.2,110,188.5,109.1,188.5z"/>
		<path class="st1" d="M117.2,188.5c-0.7,0-1.2-0.1-1.6-0.3s-0.8-0.5-1-0.9s-0.3-0.8-0.3-1.2c0-0.8,0.3-1.4,0.9-1.9
			c0.6-0.4,1.5-0.7,2.5-0.7h2.1v-0.1c0-0.7-0.2-1.2-0.5-1.6s-0.8-0.5-1.5-0.5c-0.5,0-1,0.1-1.4,0.4s-0.6,0.6-0.7,1.1h-1.4
			c0.1-0.6,0.2-1.1,0.6-1.5c0.3-0.4,0.8-0.7,1.3-0.9s1-0.3,1.6-0.3c1.1,0,1.9,0.3,2.5,0.9s0.8,1.4,0.8,2.4v4.9H120l-0.1-1.4
			c-0.2,0.5-0.6,0.8-1,1.1S117.9,188.5,117.2,188.5z M117.4,187.4c0.5,0,0.9-0.1,1.3-0.4c0.4-0.3,0.6-0.6,0.8-1s0.3-0.9,0.3-1.3l0,0
			h-2c-0.8,0-1.3,0.1-1.7,0.4c-0.3,0.3-0.5,0.6-0.5,1s0.2,0.8,0.5,1C116.4,187.2,116.8,187.4,117.4,187.4z"/>
		<path class="st1" d="M123.2,188.3v-7.9h1.2l0.1,1.4c0.3-0.5,0.6-0.9,1.1-1.2s1-0.4,1.6-0.4c0.9,0,1.7,0.3,2.2,0.9
			c0.6,0.6,0.8,1.4,0.8,2.6v4.6H129v-4.5c0-1.6-0.7-2.5-2.1-2.5c-0.7,0-1.2,0.2-1.7,0.7c-0.4,0.5-0.7,1.2-0.7,2.1v4.1L123.2,188.3
			L123.2,188.3z"/>
		<path class="st1" d="M136.6,188.3v-11.5h1.3v4.9c0.3-0.5,0.7-0.9,1.1-1.1c0.5-0.3,1-0.4,1.6-0.4c0.9,0,1.7,0.3,2.2,0.9
			s0.8,1.4,0.8,2.6v4.6h-1.3v-4.5c0-1.6-0.7-2.5-2-2.5c-0.7,0-1.3,0.2-1.7,0.7c-0.5,0.5-0.7,1.2-0.7,2.1v4.1L136.6,188.3
			L136.6,188.3z"/>
		<path class="st1" d="M149.3,188.5c-0.8,0-1.4-0.2-2-0.5c-0.6-0.4-1-0.8-1.4-1.5c-0.3-0.6-0.5-1.4-0.5-2.2s0.2-1.6,0.5-2.2
			s0.8-1.1,1.4-1.5c0.6-0.3,1.3-0.5,2.1-0.5s1.4,0.2,2,0.5s1,0.8,1.3,1.4s0.4,1.2,0.4,1.8c0,0.1,0,0.2,0,0.3s0,0.2,0,0.4h-6.3
			c0,0.6,0.2,1.1,0.4,1.5c0.2,0.4,0.6,0.7,0.9,0.9c0.4,0.2,0.8,0.3,1.2,0.3c0.6,0,1-0.1,1.4-0.4c0.4-0.3,0.7-0.6,0.8-1h1.3
			c-0.2,0.7-0.6,1.4-1.2,1.8C151,188.3,150.2,188.5,149.3,188.5z M149.3,181.3c-0.6,0-1.2,0.2-1.7,0.6s-0.8,1-0.9,1.7h5
			c0-0.7-0.3-1.3-0.7-1.7C150.5,181.5,150,181.3,149.3,181.3z"/>
		<path class="st1" d="M154.8,188.3v-11.5h1.3v11.5H154.8z"/>
		<path class="st1" d="M158.4,191.8v-11.5h1.2l0.1,1.3c0.3-0.4,0.6-0.7,1.1-1s1.1-0.5,1.8-0.5c0.8,0,1.5,0.2,2.1,0.5
			c0.6,0.4,1,0.9,1.4,1.5s0.5,1.3,0.5,2.1s-0.2,1.5-0.5,2.1c-0.3,0.6-0.8,1.1-1.4,1.5c-0.6,0.4-1.3,0.5-2.1,0.5
			c-0.6,0-1.2-0.1-1.7-0.4c-0.5-0.3-0.9-0.6-1.2-1.1v4.8h-1.3L158.4,191.8L158.4,191.8z M162.5,187.3c0.5,0,1-0.1,1.4-0.4
			c0.4-0.2,0.7-0.6,1-1s0.4-1,0.4-1.6s-0.1-1.1-0.4-1.6s-0.6-0.8-1-1s-0.9-0.4-1.4-0.4s-1,0.1-1.4,0.4s-0.7,0.6-1,1
			c-0.2,0.5-0.3,1-0.3,1.6s0.1,1.1,0.3,1.6s0.6,0.8,1,1C161.5,187.2,162,187.3,162.5,187.3z"/>
		<path class="st1" d="M173.6,191.8l2-4.3h-0.5l-3.1-7.2h1.5l2.6,6.2l2.8-6.2h1.4l-5.2,11.5H173.6z"/>
		<path class="st1" d="M184.4,188.5c-0.8,0-1.4-0.2-2-0.5s-1.1-0.8-1.4-1.4c-0.4-0.6-0.5-1.4-0.5-2.2s0.2-1.6,0.5-2.2
			c0.4-0.6,0.8-1.1,1.4-1.5c0.6-0.3,1.3-0.5,2-0.5s1.4,0.2,2,0.5s1.1,0.8,1.4,1.5c0.4,0.6,0.5,1.4,0.5,2.2s-0.2,1.6-0.5,2.2
			c-0.4,0.6-0.8,1.1-1.4,1.4C185.9,188.3,185.2,188.5,184.4,188.5z M184.4,187.4c0.5,0,0.9-0.1,1.3-0.3c0.4-0.2,0.7-0.6,1-1
			s0.4-1,0.4-1.7s-0.1-1.2-0.4-1.7c-0.2-0.4-0.6-0.8-0.9-1c-0.4-0.2-0.8-0.3-1.3-0.3s-0.9,0.1-1.3,0.3c-0.4,0.2-0.7,0.6-1,1
			c-0.2,0.5-0.4,1-0.4,1.7s0.1,1.2,0.4,1.7c0.2,0.5,0.6,0.8,0.9,1C183.6,187.2,184,187.4,184.4,187.4z"/>
		<path class="st1" d="M193.2,188.5c-0.9,0-1.7-0.3-2.2-0.9s-0.8-1.5-0.8-2.6v-4.6h1.3v4.5c0,1.7,0.7,2.5,2,2.5
			c0.7,0,1.3-0.2,1.7-0.7s0.7-1.2,0.7-2.1v-4.1h1.3v7.9H196l-0.1-1.4c-0.2,0.5-0.6,0.9-1.1,1.2C194.4,188.4,193.8,188.5,193.2,188.5
			z"/>
		<path class="st1" d="M203.7,188.3v-11.5h1.3v11.5H203.7z"/>
		<path class="st1" d="M210.8,188.5c-0.8,0-1.4-0.2-2-0.5c-0.6-0.4-1-0.8-1.4-1.5c-0.3-0.6-0.5-1.4-0.5-2.2s0.2-1.6,0.5-2.2
			s0.8-1.1,1.4-1.5c0.6-0.3,1.3-0.5,2.1-0.5s1.4,0.2,2,0.5s1,0.8,1.3,1.4s0.4,1.2,0.4,1.8c0,0.1,0,0.2,0,0.3s0,0.2,0,0.4h-6.3
			c0,0.6,0.2,1.1,0.4,1.5c0.2,0.4,0.6,0.7,0.9,0.9c0.4,0.2,0.8,0.3,1.2,0.3c0.6,0,1-0.1,1.4-0.4c0.4-0.3,0.7-0.6,0.8-1h1.3
			c-0.2,0.7-0.6,1.4-1.2,1.8C212.5,188.3,211.8,188.5,210.8,188.5z M210.8,181.3c-0.6,0-1.2,0.2-1.7,0.6s-0.8,1-0.9,1.7h5
			c0-0.7-0.3-1.3-0.7-1.7C212.1,181.5,211.5,181.3,210.8,181.3z"/>
		<path class="st1" d="M219,188.5c-0.7,0-1.2-0.1-1.6-0.3c-0.4-0.2-0.8-0.5-1-0.9s-0.3-0.8-0.3-1.2c0-0.8,0.3-1.4,0.9-1.9
			c0.6-0.4,1.5-0.7,2.5-0.7h2.1v-0.1c0-0.7-0.2-1.2-0.5-1.6s-0.8-0.5-1.5-0.5c-0.5,0-1,0.1-1.4,0.4s-0.6,0.6-0.7,1.1h-1.4
			c0.1-0.6,0.2-1.1,0.6-1.5c0.3-0.4,0.8-0.7,1.3-0.9s1-0.3,1.6-0.3c1.1,0,1.9,0.3,2.5,0.9s0.8,1.4,0.8,2.4v4.9h-1.2l-0.1-1.4
			c-0.2,0.5-0.6,0.8-1,1.1C220.3,188.3,219.7,188.5,219,188.5z M219.2,187.4c0.5,0,0.9-0.1,1.3-0.4c0.4-0.3,0.7-0.6,0.8-1
			c0.2-0.4,0.3-0.9,0.3-1.3l0,0h-2c-0.8,0-1.4,0.1-1.7,0.4s-0.5,0.6-0.5,1s0.2,0.8,0.5,1C218.2,187.2,218.6,187.4,219.2,187.4z"/>
		<path class="st1" d="M225,188.3v-7.9h1.2l0.1,1.5c0.2-0.5,0.6-0.9,1.1-1.2s1.1-0.5,1.9-0.5v1.4h-0.4c-0.5,0-0.9,0.1-1.3,0.2
			c-0.4,0.2-0.7,0.5-0.9,0.8c-0.2,0.4-0.3,0.9-0.3,1.6v4H225V188.3z"/>
		<path class="st1" d="M230.8,188.3v-7.9h1.2l0.1,1.4c0.3-0.5,0.6-0.9,1.1-1.2s1-0.4,1.6-0.4c0.9,0,1.7,0.3,2.2,0.9
			c0.6,0.6,0.8,1.4,0.8,2.6v4.6h-1.3v-4.5c0-1.6-0.7-2.5-2.1-2.5c-0.7,0-1.2,0.2-1.7,0.7c-0.4,0.5-0.7,1.2-0.7,2.1v4.1L230.8,188.3
			L230.8,188.3z"/>
		<path class="st1" d="M244.2,188.3v-7.9h1.2l0.1,1.2c0.3-0.4,0.6-0.8,1-1s0.9-0.4,1.4-0.4c0.6,0,1.2,0.1,1.6,0.4
			c0.4,0.3,0.8,0.7,1,1.2c0.3-0.5,0.7-0.9,1.1-1.1c0.5-0.3,1-0.4,1.6-0.4c1,0,1.7,0.3,2.3,0.9c0.6,0.6,0.8,1.5,0.8,2.6v4.6H255v-4.5
			c0-0.8-0.2-1.4-0.5-1.9c-0.3-0.4-0.8-0.6-1.4-0.6s-1.2,0.2-1.6,0.7s-0.6,1.2-0.6,2.1v4.1h-1.3v-4.5c0-0.8-0.2-1.4-0.5-1.9
			c-0.3-0.4-0.8-0.6-1.4-0.6s-1.2,0.2-1.6,0.7s-0.6,1.2-0.6,2.1v4.1L244.2,188.3L244.2,188.3z"/>
		<path class="st1" d="M262.1,188.5c-0.8,0-1.4-0.2-2-0.5s-1.1-0.8-1.4-1.4c-0.4-0.6-0.5-1.4-0.5-2.2s0.2-1.6,0.5-2.2
			s0.8-1.1,1.4-1.5c0.6-0.3,1.3-0.5,2-0.5s1.4,0.2,2,0.5s1.1,0.8,1.4,1.5c0.4,0.6,0.5,1.4,0.5,2.2s-0.2,1.6-0.5,2.2
			c-0.4,0.6-0.8,1.1-1.4,1.4C263.6,188.3,262.9,188.5,262.1,188.5z M262.1,187.4c0.5,0,0.9-0.1,1.3-0.3s0.7-0.6,1-1s0.4-1,0.4-1.7
			s-0.1-1.2-0.4-1.7c-0.2-0.4-0.6-0.8-1-1s-0.8-0.3-1.3-0.3s-0.9,0.1-1.3,0.3s-0.7,0.6-1,1c-0.2,0.5-0.4,1-0.4,1.7s0.1,1.2,0.4,1.7
			c0.2,0.5,0.6,0.8,1,1C261.3,187.2,261.7,187.4,262.1,187.4z"/>
		<path class="st1" d="M268,188.3v-7.9h1.2l0.1,1.5c0.2-0.5,0.6-0.9,1.1-1.2s1.1-0.5,1.9-0.5v1.4h-0.4c-0.5,0-0.9,0.1-1.3,0.2
			c-0.4,0.2-0.7,0.5-0.9,0.8c-0.2,0.4-0.4,0.9-0.4,1.6v4H268V188.3z"/>
		<path class="st1" d="M277.1,188.5c-0.8,0-1.4-0.2-2-0.5c-0.6-0.4-1.1-0.8-1.4-1.5c-0.3-0.6-0.5-1.4-0.5-2.2s0.2-1.6,0.5-2.2
			s0.8-1.1,1.4-1.5s1.3-0.5,2.1-0.5c0.8,0,1.4,0.2,2,0.5s1,0.8,1.3,1.4s0.4,1.2,0.4,1.8c0,0.1,0,0.2,0,0.3s0,0.2,0,0.4h-6.3
			c0,0.6,0.2,1.1,0.4,1.5c0.2,0.4,0.6,0.7,0.9,0.9c0.4,0.2,0.8,0.3,1.2,0.3c0.5,0,1-0.1,1.4-0.4c0.4-0.3,0.6-0.6,0.8-1h1.3
			c-0.2,0.7-0.6,1.4-1.2,1.8C278.8,188.3,278,188.5,277.1,188.5z M277.1,181.3c-0.6,0-1.2,0.2-1.7,0.6s-0.8,1-0.9,1.7h5
			c0-0.7-0.3-1.3-0.7-1.7C278.3,181.5,277.7,181.3,277.1,181.3z"/>
		<path class="st1" d="M28.1,210.5c-0.8,0-1.4-0.2-2-0.5c-0.6-0.4-1-0.8-1.4-1.5c-0.3-0.6-0.5-1.4-0.5-2.2s0.2-1.6,0.5-2.2
			c0.3-0.6,0.8-1.1,1.4-1.5s1.3-0.5,2.1-0.5s1.4,0.2,2,0.5s1,0.8,1.3,1.4c0.3,0.6,0.5,1.2,0.5,1.8c0,0.1,0,0.2,0,0.3s0,0.2,0,0.4
			h-6.3c0,0.6,0.2,1.1,0.4,1.5s0.6,0.7,0.9,0.9c0.4,0.2,0.8,0.3,1.2,0.3c0.5,0,1-0.1,1.4-0.4c0.4-0.3,0.7-0.6,0.8-1h1.3
			c-0.2,0.7-0.6,1.4-1.2,1.8C29.8,210.3,29.1,210.5,28.1,210.5z M28.1,203.3c-0.6,0-1.2,0.2-1.7,0.6c-0.5,0.4-0.8,1-0.9,1.7h5
			c0-0.7-0.3-1.3-0.7-1.7C29.4,203.5,28.8,203.3,28.1,203.3z"/>
		<path class="st1" d="M34.1,210.3v-6.8h-1.2v-1.1h1.2V201c0-0.8,0.2-1.3,0.6-1.7c0.4-0.3,0.9-0.5,1.7-0.5h0.8v1.1h-0.6
			c-0.4,0-0.7,0.1-0.9,0.2c-0.2,0.2-0.3,0.5-0.3,0.8v1.3h2v1.1h-2v6.8L34.1,210.3L34.1,210.3z"/>
		<path class="st1" d="M39.4,210.3v-6.8h-1.2v-1.1h1.2V201c0-0.8,0.2-1.3,0.6-1.7c0.4-0.3,0.9-0.5,1.7-0.5h0.8v1.1h-0.6
			c-0.4,0-0.7,0.1-0.9,0.2c-0.2,0.2-0.3,0.5-0.3,0.8v1.3h4.9v7.9h-1.3v-6.8h-3.6v6.8L39.4,210.3L39.4,210.3z M45,200.9
			c-0.3,0-0.5-0.1-0.7-0.3s-0.3-0.4-0.3-0.7s0.1-0.5,0.3-0.6c0.2-0.2,0.4-0.3,0.7-0.3s0.5,0.1,0.7,0.3s0.3,0.4,0.3,0.6
			c0,0.3-0.1,0.5-0.3,0.7S45.3,200.9,45,200.9z"/>
		<path class="st1" d="M51.7,210.5c-0.8,0-1.4-0.2-2-0.5c-0.6-0.4-1.1-0.8-1.4-1.5c-0.3-0.6-0.5-1.4-0.5-2.2s0.2-1.6,0.5-2.2
			s0.8-1.1,1.4-1.5s1.3-0.5,2-0.5c0.9,0,1.7,0.2,2.4,0.7s1.1,1.2,1.2,2h-1.4c-0.1-0.5-0.4-0.9-0.8-1.1c-0.4-0.3-0.9-0.4-1.5-0.4
			c-0.5,0-0.9,0.1-1.3,0.3s-0.7,0.6-1,1s-0.4,1-0.4,1.7s0.1,1.2,0.4,1.7c0.2,0.5,0.6,0.8,1,1s0.8,0.3,1.3,0.3s1-0.1,1.5-0.4
			c0.4-0.3,0.7-0.7,0.8-1.2h1.4c-0.2,0.8-0.6,1.5-1.2,2C53.4,210.2,52.6,210.5,51.7,210.5z"/>
		<path class="st1" d="M58,200.6c-0.3,0-0.5-0.1-0.7-0.3s-0.3-0.4-0.3-0.7s0.1-0.5,0.3-0.6c0.2-0.2,0.4-0.3,0.7-0.3s0.5,0.1,0.7,0.3
			s0.3,0.4,0.3,0.6c0,0.3-0.1,0.5-0.3,0.7S58.2,200.6,58,200.6z M57.3,210.3v-7.9h1.3v7.9H57.3z"/>
		<path class="st1" d="M64.6,210.5c-0.8,0-1.4-0.2-2-0.5c-0.6-0.4-1-0.8-1.4-1.5c-0.3-0.6-0.5-1.4-0.5-2.2s0.2-1.6,0.5-2.2
			s0.8-1.1,1.4-1.5c0.6-0.3,1.3-0.5,2.1-0.5c0.8,0,1.4,0.2,2,0.5s1,0.8,1.3,1.4s0.4,1.2,0.4,1.8c0,0.1,0,0.2,0,0.3s0,0.2,0,0.4H62
			c0,0.6,0.2,1.1,0.4,1.5s0.6,0.7,0.9,0.9c0.4,0.2,0.8,0.3,1.2,0.3c0.6,0,1-0.1,1.4-0.4c0.4-0.3,0.7-0.6,0.8-1H68
			c-0.2,0.7-0.6,1.4-1.2,1.8C66.3,210.3,65.5,210.5,64.6,210.5z M64.6,203.3c-0.6,0-1.2,0.2-1.7,0.6c-0.5,0.4-0.8,1-0.9,1.7h5
			c0-0.7-0.3-1.3-0.7-1.7C65.8,203.5,65.2,203.3,64.6,203.3z"/>
		<path class="st1" d="M70.1,210.3v-7.9h1.2l0.1,1.4c0.3-0.5,0.6-0.9,1.1-1.2s1-0.4,1.6-0.4c0.9,0,1.7,0.3,2.2,0.9
			c0.6,0.6,0.8,1.4,0.8,2.6v4.6h-1.3v-4.5c0-1.6-0.7-2.5-2.1-2.5c-0.7,0-1.2,0.2-1.7,0.7c-0.4,0.5-0.7,1.2-0.7,2.1v4.1L70.1,210.3
			L70.1,210.3z"/>
		<path class="st1" d="M82.4,210.3c-0.7,0-1.3-0.2-1.7-0.5c-0.4-0.4-0.6-1-0.6-1.9v-4.4h-1.4v-1.1h1.4l0.2-1.9h1.2v1.9h2.3v1.1h-2.4
			v4.4c0,0.5,0.1,0.8,0.3,1c0.2,0.2,0.6,0.3,1.1,0.3h0.8v1.1L82.4,210.3L82.4,210.3z"/>
		<path class="st1" d="M85.4,210.3v-11.5h1.3v11.5H85.4z"/>
		<path class="st1" d="M89.9,213.8l2-4.3h-0.5l-3.1-7.2h1.5l2.6,6.2l2.8-6.2h1.4l-5.2,11.5H89.9z"/>
		<path class="st1" d="M97.2,210.4c-0.3,0-0.5-0.1-0.7-0.3s-0.3-0.4-0.3-0.6c0-0.3,0.1-0.5,0.3-0.7c0.2-0.2,0.4-0.3,0.7-0.3
			c0.3,0,0.5,0.1,0.6,0.3c0.2,0.2,0.3,0.4,0.3,0.7s-0.1,0.5-0.3,0.6C97.7,210.3,97.5,210.4,97.2,210.4z"/>
		<path class="st2" d="M36.5,119.7c0.4-0.1,0.7-0.2,1-0.2c0.8,0,1.3,0.3,1.6,0.8s0.5,1.7,0.7,3.6c0.2,2,0.4,6.4,0.7,13.4
			c0.1,2.3,0.2,3.5,0.2,3.6c0.1,0.3-0.1,0.6-0.5,0.9c-0.6,0.3-1.1,0.5-1.6,0.5c-0.4,0-0.7-0.1-0.9-0.3c-0.3-0.2-0.5-0.5-0.5-0.9
			c-0.1-0.4-0.1-1.6-0.2-3.6c-0.2-6.1-0.4-9.4-0.6-9.8c0-0.1-0.1-0.2-0.1-0.2s-0.1-0.1-0.1,0c0,0-0.1,0.1-0.2,0.2
			c-0.1,0.1-0.1,0.2-0.2,0.3c-0.3,0.4-0.4,0.7-0.4,0.9s-0.2,0.7-0.5,1.5c-0.4,1.1-0.9,1.6-1.6,1.6c-0.2,0-0.5,0-0.8-0.1
			c-0.5-0.1-0.9-0.3-1.1-0.6c-0.3-0.3-0.5-0.8-0.7-1.5c-0.2-0.5-0.4-1-0.7-1.5s-0.5-0.8-0.6-0.8s-0.1,0.3-0.1,1c0,0.4,0,1.2,0.1,2.5
			c0.1,1.2,0.1,2.4,0.1,3.6s0.1,2.2,0.1,2.8s0,1,0,1.3c0,0.2,0,0.4,0,0.5s0,0.3,0,0.3c0,0.1,0,0.2-0.1,0.2c0,0.1-0.1,0.1-0.1,0.1
			s-0.1,0.1-0.1,0.2c-0.1,0.1-0.1,0.1-0.2,0.2c-0.4,0.5-0.6,0.9-0.6,1s-0.1,0.2-0.4,0.3s-0.5,0.2-0.8,0.2c-0.1,0-0.3,0-0.4-0.1
			c-0.2-0.1-0.4-0.4-0.5-0.8s-0.2-1-0.3-1.6s-0.1-1.3-0.2-1.8c0-0.5,0-1.2-0.1-2c0-0.8,0-1.3,0-1.5c0-0.5-0.1-2.1-0.1-5
			s-0.1-4.8-0.3-5.8l-0.2-2.3l0.6-0.5c0.3-0.3,0.7-0.5,1.2-0.5s1.1,0.2,1.7,0.5c0.7,0.3,1.1,0.6,1.3,1c0.7,1.1,1.4,2.3,2.1,3.8
			c0.1,0.3,0.3,0.6,0.4,0.7c0.1,0.1,0.2,0.2,0.4,0.1c0.3-0.1,0.4-0.2,0.4-0.4c0-0.1,0.2-0.8,0.7-2s0.9-2.1,1.2-2.8
			C36,120,36.3,119.7,36.5,119.7z"/>
		<path class="st2" d="M47.8,120.9c0.3-0.1,0.8-0.1,1.4-0.1c1.6,0,2.6,0.2,3,0.5c0.3,0.3,0.4,0.6,0.4,0.9s-0.1,0.7-0.4,0.9
			c-0.3,0.3-0.7,0.4-1.1,0.4s-0.7,0.1-0.9,0.3c-0.1,0.2-0.2,0.7-0.2,1.5c0,0.2,0,0.9,0.1,2.1c0.1,1.4,0.1,2.3,0.2,2.7
			s0.2,0.6,0.3,0.7c0,0,0.2,0,0.6,0c0.3,0,0.6,0,0.9,0c0.7,0,1.2,0.2,1.5,0.5c0.2,0.2,0.3,0.4,0.3,0.6c0,0.4-0.6,0.9-1.8,1.3
			c-0.7,0.3-1.2,0.5-1.3,0.6s-0.2,0.4-0.3,0.9s-0.1,0.9-0.1,1.2c0,1.4,0.1,2.5,0.4,3.2c0.1,0.3,0.2,0.5,0.4,0.5
			c0.1,0.1,0.4,0.1,0.9,0.1c0.6,0,1.1,0.1,1.5,0.4s0.6,0.6,0.6,1c0,0.3-0.2,0.6-0.6,1c-0.7,0.7-1.8,1-3.4,1c-1.7,0-2.8-0.4-3.3-1.1
			c-0.3-0.4-0.5-2.8-0.5-7.3c-0.1-5.6-0.1-9-0.2-10l-0.1-3.2l0.6-0.3C47,121.2,47.5,121,47.8,120.9z"/>
		<path class="st2" d="M70.2,120.3c0.4-0.1,0.7-0.2,1-0.2c0.7,0,1.3,0.3,1.6,0.8c0.2,0.3,0.5,1.5,0.7,3.7c0.2,2.1,0.4,4.4,0.5,6.9
			c0,0.8,0.1,2,0.2,3.4s0.1,2.8,0.2,3.9c0,1.1,0.1,2,0.1,2.6c0,0.4-0.2,0.7-0.6,0.9c-0.4,0.3-0.9,0.4-1.4,0.4
			c-0.4,0-0.7-0.1-0.9-0.3L71,142l-0.1-5.2c-0.2-6-0.5-8.9-0.8-8.9c-0.2,0-0.5,0.7-1,2.2c-0.3,0.8-0.5,1.4-0.8,1.8
			c-0.3,0.3-0.6,0.5-1,0.5c-0.3,0-0.7-0.1-1.1-0.3c-0.5-0.2-0.9-0.6-1.2-1.3c-0.3-0.7-0.5-1.1-0.5-1.2s-0.1-0.3-0.2-0.6
			c-0.2-0.3-0.3-0.6-0.5-0.8s-0.3-0.4-0.3-0.3v0.5c0,1.2,0,3.1,0.1,5.5l0.2,6l-0.6,0.9c-0.6,1-1.2,1.5-1.6,1.5
			c-0.3,0-0.6-0.2-0.8-0.6c-0.2-0.3-0.4-0.9-0.4-1.6c-0.1-0.7-0.1-2.9-0.2-6.4c-0.2-6.6-0.3-10.4-0.5-11.3c0-0.1,0-0.3,0-0.5
			c0-0.3,0.2-0.6,0.5-0.9s0.8-0.5,1.2-0.5c0.5,0,1,0.1,1.6,0.4s1,0.6,1.3,1.1c0.3,0.5,1,1.7,2.2,3.8c0.3,0.5,0.5,0.8,0.7,0.8
			c0.1,0,0.3-0.2,0.4-0.6c0.1-0.5,0.4-1.1,0.7-1.7c0.4-0.9,0.6-1.3,0.6-1.4c0-0.3,0.2-0.7,0.6-1.3C69.8,120.7,70,120.4,70.2,120.3z"
			/>
		<path class="st2" d="M80.8,120.4l0.8-1h5.3l0.9,0.9c0.5,0.5,0.9,1.2,1.2,2.1c0.2,0.8,0.4,2.1,0.6,3.9c0.1,0.7,0.1,1.6,0.1,2.9
			c0,2.9-0.3,5.6-0.8,8s-1.3,4-2.2,4.9c-0.3,0.3-0.7,0.5-1.2,0.7s-1,0.3-1.4,0.3c-0.2,0-0.3,0-0.4-0.1c-0.2-0.1-0.5-0.2-0.9-0.2
			c-0.3,0-0.6-0.2-1-0.7s-0.7-1-0.9-1.7c-0.4-1.1-0.7-2.3-0.8-3.7c-0.1-1.3-0.2-3.5-0.2-6.4v-2c0-2.7,0.1-4.5,0.2-5.4
			C80,121.7,80.3,121,80.8,120.4z M84.8,122.4c-0.3-0.5-0.5-0.8-0.6-0.8c-0.2,0-0.4,0.4-0.7,1.3c-0.2,0.7-0.3,2-0.3,4
			c0,1.5,0.1,3.2,0.2,4.9c0.1,1.6,0.3,3.2,0.6,4.6c0.3,1.5,0.5,2.2,0.7,2.2c0.1,0,0.3-0.3,0.4-0.9c0.1-0.5,0.3-0.9,0.5-1.3
			c0.1-0.2,0.2-1.4,0.4-3.8c0.1-1.2,0.1-2.3,0.1-3.3C85.9,126,85.5,123.8,84.8,122.4z"/>
		<path class="st2" d="M96.1,118.6c0.5-0.2,1.2-0.3,2-0.3c0.9,0,1.5,0.1,1.9,0.3c0.7,0.3,1.3,0.9,1.7,1.7c0.2,0.4,0.3,1.1,0.5,2.2
			s0.2,2.1,0.2,2.9c0,0.4,0,0.7,0,0.9c-0.1,0.7-0.3,1.5-0.6,2.4c-0.3,0.9-0.5,1.3-0.7,1.3s-0.3,0.2-0.3,0.6c0,0.3,0.1,0.6,0.3,0.9
			c0.5,0.7,1.1,1.9,1.9,3.6c0.8,1.8,1.3,2.9,1.4,3.4c0,0.1,0,0.3,0,0.6c0,0.4-0.1,0.7-0.3,1c-0.2,0.3-0.5,0.5-0.8,0.5s-0.5,0-0.8,0
			c-0.7-0.1-1.2-0.2-1.3-0.3c-0.2-0.1-0.3-0.3-0.3-0.7c0-0.6-0.3-1.4-0.9-2.6s-1-1.8-1.3-1.8l0,0c-0.1,0.1-0.1,0.4-0.1,0.9
			c0,0.9,0.1,1.8,0.3,2.8c0.1,0.5,0.1,0.8,0.1,0.9c0,1-0.2,1.6-0.6,1.8c-0.2,0.1-0.4,0.1-0.7,0.1c-0.9,0-1.5-0.2-1.7-0.6
			c-0.1-0.2-0.3-2.2-0.3-5.8c0-1.2-0.1-2.4-0.1-3.8s0-2.3,0-2.9s0-1.4-0.1-2.4s-0.2-2.1-0.3-3.3c-0.1-1.4-0.2-2.2-0.2-2.4
			c0-0.7,0.1-1.2,0.3-1.4C95.3,118.9,95.6,118.7,96.1,118.6z M98.8,121.7c-0.1-0.2-0.2-0.3-0.5-0.3c-0.2,0-0.3,0.1-0.4,0.3
			s-0.1,0.4,0,0.5c0,0,0.1,0.9,0.2,2.8s0.2,2.8,0.3,2.8c0.1,0.1,0.2-0.1,0.4-0.3c0.2-0.3,0.3-0.7,0.3-1.5c0-0.5,0-1,0-1.4
			C99,123,99,122.1,98.8,121.7z"/>
		<path class="st2" d="M111.9,119c0.4-0.2,0.8-0.3,1.2-0.3s0.8,0.2,1.2,0.5c0.3,0.4,0.5,1.1,0.6,2.2c0.1,2,0.5,3.8,1.1,5.4
			c0.2,0.5,0.3,0.9,0.3,1.2c0,0.1,0,0.2,0.1,0.3c0,0.1,0.1,0.1,0.2,0c0.2-0.1,0.3-0.5,0.3-1.3s0-1.2,0.1-1.3s0.1-1,0.2-2.7
			s0.1-2.8,0.1-3.2c0-0.2,0.3-0.4,0.9-0.7s1.1-0.4,1.5-0.4c0.6,0,1.1,0.2,1.4,0.6c0.3,0.3,0.4,0.7,0.4,1.1c0,0.3-0.1,1.8-0.4,4.5
			c-0.1,0.5-0.2,2.1-0.3,4.6c-0.1,1.9-0.5,4.2-1.2,6.9c-0.3,1.4-0.7,2.4-1.1,3.2c-0.4,0.7-0.9,1.5-1.5,2.2c-0.3,0.4-0.6,0.6-0.9,0.6
			c-0.2,0-0.3,0.2-0.5,0.5c-0.1,0.3-0.5,0.5-1,0.8c-0.5,0.2-1.1,0.3-1.7,0.3c-0.5,0-1-0.2-1.6-0.5s-0.9-0.6-0.9-0.8
			c0-0.3,0.2-0.7,0.5-1c0.3-0.4,0.7-0.7,1.2-0.9c0.8-0.4,1.5-1,2-1.7s1-1.8,1.4-3.1c0.5-1.5,0.7-2.4,0.7-2.8c0-0.3-0.2-0.6-0.7-0.7
			c-1.3-0.5-2.1-1.2-2.4-1.8c-0.2-0.4-0.6-2.2-1.3-5.5c-0.4-1.6-0.6-2.9-0.6-3.8C110.9,120.1,111.2,119.4,111.9,119z"/>
		<path class="st2" d="M141,121.7c0.5-0.5,0.9-0.9,1.1-1c0.2-0.1,0.6-0.2,1.1-0.2c1.3,0,1.9,0.4,1.9,1.3c0,0.8-0.6,1.5-1.7,2.1
			c-0.7,0.4-1.3,1.8-1.7,4.3c-0.2,1.1-0.3,2.2-0.3,3.4s0.1,2.5,0.2,3.7c0.1,1.6,0.4,2.7,0.7,3.4s0.8,1,1.5,1.2
			c1.1,0.2,1.8,0.5,1.9,1c0,0.1,0,0.1,0,0.2c0,0.3-0.2,0.6-0.5,0.9s-0.7,0.5-1.1,0.6c-0.1,0-0.2,0-0.5,0c-1.1,0-2-0.2-2.9-0.7
			c-0.3-0.2-0.7-0.7-1.1-1.6c-0.4-0.8-0.8-1.6-1-2.4c-0.3-1.2-0.5-3.2-0.5-6.2c0-1.1,0.1-2.2,0.2-3.3c0.2-1.8,0.5-3.1,0.9-4
			C139.6,123.4,140.2,122.5,141,121.7z"/>
		<path class="st2" d="M152.2,120.4l0.8-1h5.3l0.9,0.9c0.5,0.5,0.9,1.2,1.2,2.1c0.2,0.8,0.4,2.1,0.6,3.9c0.1,0.7,0.1,1.6,0.1,2.9
			c0,2.9-0.3,5.6-0.8,8s-1.3,4-2.2,4.9c-0.3,0.3-0.7,0.5-1.2,0.7s-1,0.3-1.4,0.3c-0.2,0-0.3,0-0.4-0.1c-0.2-0.1-0.5-0.2-0.9-0.2
			c-0.3,0-0.6-0.2-1-0.7s-0.7-1-0.9-1.7c-0.4-1.1-0.7-2.3-0.8-3.7c-0.1-1.3-0.2-3.5-0.2-6.4v-2c0-2.7,0.1-4.5,0.2-5.4
			C151.4,121.7,151.7,121,152.2,120.4z M156.2,122.4c-0.3-0.5-0.5-0.8-0.6-0.8c-0.2,0-0.4,0.4-0.7,1.3c-0.2,0.7-0.3,2-0.3,4
			c0,1.5,0.1,3.2,0.2,4.9c0.1,1.6,0.3,3.2,0.6,4.6c0.3,1.5,0.5,2.2,0.7,2.2c0.1,0,0.3-0.3,0.4-0.9c0.1-0.5,0.3-0.9,0.5-1.3
			c0.1-0.2,0.2-1.4,0.4-3.8c0.1-1.2,0.1-2.3,0.1-3.3C157.3,126,157,123.8,156.2,122.4z"/>
		<path class="st2" d="M167.3,120c0.4-0.2,0.9-0.3,1.3-0.3c0.9,0,1.4,0.5,1.7,1.6c0.2,0.8,0.6,1.7,1,2.6s0.8,1.7,0.9,2.2
			c0.3,0.9,0.5,1.5,0.8,1.8c0.1,0.1,0.2,0.2,0.2,0.2c0.1,0,0.2-0.6,0.3-1.8c0.1-1.1,0.1-1.9,0.1-2.3v-0.5c0-0.2,0-0.5,0-0.9
			c0-0.7,0.2-1.3,0.6-1.7c0.3-0.4,0.9-0.6,1.6-0.6c0.5,0,1,0.1,1.2,0.4c0.3,0.2,0.4,0.6,0.4,1c0,0.5,0,1.1-0.1,1.5
			c-0.1,0.5-0.1,4-0.2,10.4c0,4-0.1,6.5-0.1,7.3s-0.1,1.3-0.3,1.5c-0.3,0.3-0.7,0.5-1.4,0.5c-1.2,0-2-0.6-2.2-1.8
			c-0.1-0.5-0.4-1.3-0.8-2.6c-0.4-1.1-0.7-2.2-0.9-3c-0.2-1.2-0.6-2.8-1.2-4.7c-0.1-0.2-0.1-0.3-0.1-0.3c-0.1,0-0.2,1.2-0.2,3.6v2.1
			v2.2c0,2.3-0.1,3.6-0.2,4c-0.3,0.8-0.9,1.2-1.8,1.2c-0.5,0-1-0.2-1.3-0.6c-0.3-0.3-0.4-0.6-0.4-0.8c0-0.1,0-0.3,0.1-0.8
			c0.1-0.9,0.2-4.4,0.2-10.3c0-6.6,0.1-10.1,0.2-10.5c0.1-0.3,0.2-0.4,0.5-0.5C167.2,120,167.3,120,167.3,120z"/>
		<path class="st2" d="M186,119.4c0.3-0.2,0.7-0.3,1.2-0.3c0.3,0,0.6,0,0.8,0c0.8,0.1,1.4,0.2,1.7,0.3s0.6,0.4,0.8,0.9
			c0.3,0.5,0.4,0.9,0.4,1.4s-0.2,1-0.6,1.3c-0.3,0.3-0.7,0.5-1,0.5c-0.4,0-0.8-0.2-1.1-0.7c-0.3-0.4-0.5-0.6-0.8-0.6
			s-0.5,0.2-0.8,0.5c-0.2,0.4-0.4,0.8-0.4,1.2v0.2c0,1.6,1.2,4.5,3.6,8.7c0.4,0.7,0.8,2,1.2,3.8c0,0.1,0,0.3,0,0.6
			c0,1.6-0.3,2.8-1,3.7c-0.3,0.4-0.8,0.7-1.4,1c-0.6,0.3-1.2,0.4-1.7,0.4c-0.1,0-0.1,0-0.2,0c-0.1,0-0.1,0-0.2,0
			c-0.7-0.1-1.4-0.6-2.4-1.5c-0.9-0.9-1.4-1.6-1.4-2.1c0-0.2,0.2-0.5,0.5-0.8s0.6-0.5,0.9-0.5c0.1,0,0.2,0,0.3,0
			c0.3,0,0.8,0.5,1.5,1.4c0.3,0.4,0.5,0.6,0.9,0.6c0.3,0,0.5-0.2,0.6-0.5c0.1-0.1,0.1-0.3,0.1-0.6c0-1.7-0.7-4.1-2.2-7.2
			c-1.4-3-2.1-5.2-2.1-6.6c0-0.6,0.1-1.2,0.3-1.8c0.5-1.1,0.8-1.9,1.1-2.2C184.9,120,185.3,119.7,186,119.4z"/>
		<path class="st2" d="M197.3,120.4l0.8-1h5.3l0.9,0.9c0.5,0.5,0.9,1.2,1.2,2.1c0.2,0.8,0.4,2.1,0.6,3.9c0.1,0.7,0.1,1.6,0.1,2.9
			c0,2.9-0.3,5.6-0.8,8s-1.3,4-2.1,4.9c-0.3,0.3-0.7,0.5-1.2,0.7s-1,0.3-1.4,0.3c-0.2,0-0.3,0-0.4-0.1c-0.2-0.1-0.5-0.2-0.9-0.2
			c-0.3,0-0.6-0.2-1-0.7s-0.7-1-0.9-1.7c-0.4-1.1-0.7-2.3-0.8-3.7c-0.1-1.3-0.2-3.5-0.2-6.4v-2c0-2.7,0.1-4.5,0.2-5.4
			C196.6,121.7,196.9,121,197.3,120.4z M201.4,122.4c-0.3-0.5-0.5-0.8-0.6-0.8c-0.2,0-0.4,0.4-0.7,1.3c-0.2,0.7-0.3,2-0.3,4
			c0,1.5,0.1,3.2,0.2,4.9c0.1,1.6,0.3,3.2,0.6,4.6c0.3,1.5,0.5,2.2,0.7,2.2c0.1,0,0.3-0.3,0.4-0.9c0.1-0.5,0.3-0.9,0.5-1.3
			c0.1-0.2,0.2-1.4,0.4-3.8c0.1-1.2,0.1-2.3,0.1-3.3C202.4,126,202.1,123.8,201.4,122.4z"/>
		<path class="st2" d="M211.8,119.7c0.3-0.3,0.5-0.4,0.9-0.4c0.3,0,0.5,0,0.6,0c0.7,0.1,1.1,0.3,1.2,0.5c0.3,0.4,0.5,3,0.5,7.8v2.6
			v2.3c0,3.8,0,5.8,0.1,6.1c0.1,0.5,0.6,0.7,1.4,0.7c0.4,0,0.7,0,1,0c0.2,0,0.5,0,0.9,0c0.5,0,0.9,0.1,1.1,0.3
			c0.2,0.2,0.3,0.5,0.3,0.9c0,0.3-0.1,0.5-0.2,0.7c-0.1,0.2-0.4,0.4-0.9,0.7c-0.8,0.4-1.6,0.7-2.5,0.7c-1.2,0.1-1.8,0.1-1.9,0.1
			c-0.1,0-0.2,0-0.3,0c-0.3,0-0.7-0.1-1.2-0.3c-0.4-0.2-0.8-0.4-1-0.7c-0.4-0.5-0.6-2-0.6-4.4c0-0.6,0-1.7,0.1-3.3
			c0.1-1.5,0.1-3.1,0.1-4.9c0-4.2-0.1-6.8-0.2-7.8c-0.1-0.4-0.1-0.6-0.1-0.7C211.3,120.2,211.5,119.9,211.8,119.7z"/>
		<path class="st2" d="M225.7,118.4c0.3-0.4,0.8-0.6,1.3-0.6s0.9,0.2,1.3,0.6l0.6,0.6l0.3,9.7c0.1,5.3,0.2,8.4,0.2,9.2
			c0,0.4,0,0.8,0,1c0,0.3,0,0.5,0,0.7s-0.1,0.3-0.1,0.4c-0.1,0.1-0.1,0.2-0.1,0.2s-0.1,0.1-0.2,0.1s-0.2,0.1-0.2,0.1
			c-0.3,0.2-0.6,0.3-0.8,0.3c-0.1,0-0.4-0.1-0.9-0.2c-0.7-0.3-1.1-0.5-1.2-0.7c-0.1-0.1-0.2-3.6-0.3-10.3
			c-0.1-6.8-0.1-10.2-0.2-10.3C225.3,119,225.4,118.7,225.7,118.4z"/>
		<path class="st2" d="M235.3,120.9c0.1,0,0.9,0,2.1,0c1.5,0,2.6,0.3,3.4,1c0.8,0.6,1.4,1.7,1.8,3.3c0.5,1.5,0.7,3.3,0.7,5.3
			c0,0.4,0,0.9-0.1,1.4c-0.1,0.4-0.2,1.1-0.3,1.9c-0.1,0.9-0.2,1.6-0.3,2.3c-0.1,0.7-0.3,1.2-0.4,1.4s-0.2,0.5-0.2,0.8
			c0,0.2-0.1,0.6-0.4,1.2c-0.3,0.6-0.5,1.1-0.7,1.3c-0.3,0.4-0.8,0.8-1.5,1.1c-0.7,0.3-1.3,0.5-1.9,0.6c-0.5,0.1-0.8,0.1-0.9,0.1
			c-0.3,0-0.7-0.2-1-0.5l-0.6-0.6v-7.3V132c0-3.6,0-5.5-0.1-5.9c-0.2-1.2-0.3-2.2-0.3-3C234.5,121.8,234.8,121,235.3,120.9z
			 M239.3,126.1c-0.4-1.5-0.8-2.3-1.1-2.3l-0.1,0.1v0.1c0,0.1,0,0.2,0,0.3s0,0.2,0,0.4c0,0.4,0,1.2,0.1,2.5c0.1,1.5,0.2,3.4,0.2,6
			c0,2.4,0.1,3.6,0.3,3.6c0.1,0,0.2-0.2,0.3-0.6c0.5-1.8,0.8-3.8,0.8-5.8C239.9,128.7,239.7,127.3,239.3,126.1z"/>
		<path class="st2" d="M252,122.4c0.7-0.7,1.9-1.1,3.4-1.1c0.7,0,1.2,0.1,1.6,0.3c0.6,0.3,1,1.1,1.3,2.4c0.2,1.1,0.4,2.9,0.7,5.6
			s0.5,4.6,0.5,6c0,1.3,0.1,2.8,0.3,4.5c0.2,1.7,0.3,2.6,0.4,2.7c0,0,0,0.1,0,0.2c0,0.3-0.1,0.6-0.3,0.9c-0.2,0.4-0.4,0.6-0.6,0.6
			c-0.1,0-0.2,0-0.4,0c-0.4,0-0.9-0.1-1.4-0.3s-0.8-0.4-0.9-0.6s-0.2-1-0.4-2.4c-0.2-1.3-0.2-2.4-0.2-3.3c0-0.8-0.1-1.2-0.3-1.3
			c-0.1-0.1-0.8-0.1-1.9-0.1c-1,0-1.5,0-1.5,0.1s0,0.3,0,0.5c0,0.6,0,1.4,0.1,2.3c0.1,1.1,0.1,2,0.1,2.8v0.4c0,0.2-0.2,0.4-0.6,0.5
			c-0.4,0.2-0.8,0.2-1.1,0.2c-0.2,0-0.3,0-0.4,0c-1-0.3-1.5-0.7-1.6-1.2c0,0,0-0.1,0-0.2s0-0.2,0-0.3c0-1.2,0.1-3.8,0.4-7.7
			c0.3-4,0.5-6.2,0.6-6.8c0.2-0.8,0.5-1.7,1-2.7C251.1,123.5,251.6,122.8,252,122.4z M254.9,126.9c-0.2-0.8-0.4-1.2-0.6-1.2
			s-0.4,0.3-0.7,0.9c-0.5,1.2-0.9,2.7-1,4.7c-0.1,0.9-0.1,1.3-0.1,1.4c0,0.4,0.1,0.6,0.2,0.7c0.1,0.1,0.5,0.2,1.2,0.2
			c0.9,0,1.3-0.1,1.4-0.3c0.1-0.1,0.1-0.5,0.1-1.1C255.4,130.2,255.2,128.4,254.9,126.9z"/>
		<path class="st2" d="M266.4,118.5c0.4-0.3,1.1-0.5,2-0.5h1c1.5,0.1,2.5,0.1,2.8,0.2c0.2,0.1,0.6,0.1,1.2,0.2s1.1,0.2,1.4,0.4
			s0.5,0.6,0.5,1.1s-0.1,0.9-0.3,1.2c-0.2,0.2-0.6,0.4-1.1,0.5c-0.6,0.1-0.9,0.2-1,0.3s-0.2,2.9-0.2,8.2c0,3.7,0,6.3,0.1,7.8
			c0.1,1.2,0.1,1.9,0.1,1.9c0,0.6-0.1,1.1-0.4,1.6c-0.3,0.6-0.8,0.9-1.5,0.9c-0.4,0-0.9-0.1-1.3-0.4l-0.8-0.5l0.1-9.8
			c0.1-2.5,0.1-5,0.1-7.6c0-1.5-0.1-2.3-0.3-2.5c-0.3-0.2-0.6-0.2-0.6-0.2c-0.1,0-0.3,0-0.5,0c-0.5,0-0.9-0.2-1.3-0.5
			c-0.3-0.3-0.5-0.7-0.5-1C265.7,119.3,265.9,118.9,266.4,118.5z"/>
		<path class="st2" d="M280.9,118.4c0.3-0.4,0.8-0.6,1.3-0.6s0.9,0.2,1.3,0.6l0.6,0.6l0.3,9.7c0.1,5.3,0.2,8.4,0.2,9.2
			c0,0.4,0,0.8,0,1s0,0.5,0,0.7s-0.1,0.3-0.1,0.4c-0.1,0.1-0.1,0.2-0.1,0.2s-0.1,0.1-0.2,0.1s-0.2,0.1-0.2,0.1
			c-0.3,0.2-0.6,0.3-0.8,0.3c-0.1,0-0.4-0.1-0.9-0.2c-0.7-0.3-1.1-0.5-1.2-0.7c-0.1-0.1-0.2-3.6-0.3-10.3
			c-0.1-6.8-0.1-10.2-0.2-10.3C280.4,119,280.6,118.7,280.9,118.4z"/>
		<path class="st2" d="M290.9,120.4l0.8-1h5.3l0.9,0.9c0.5,0.5,0.9,1.2,1.2,2.1c0.2,0.8,0.4,2.1,0.6,3.9c0.1,0.7,0.1,1.6,0.1,2.9
			c0,2.9-0.3,5.6-0.8,8s-1.3,4-2.1,4.9c-0.3,0.3-0.7,0.5-1.2,0.7s-1,0.3-1.4,0.3c-0.2,0-0.3,0-0.4-0.1c-0.2-0.1-0.5-0.2-0.9-0.2
			c-0.3,0-0.6-0.2-1-0.7s-0.7-1-0.9-1.7c-0.4-1.1-0.7-2.3-0.8-3.7c-0.1-1.3-0.2-3.5-0.2-6.4v-2c0-2.7,0.1-4.5,0.2-5.4
			C290.1,121.7,290.4,121,290.9,120.4z M294.9,122.4c-0.3-0.5-0.5-0.8-0.6-0.8c-0.2,0-0.4,0.4-0.7,1.3c-0.2,0.7-0.3,2-0.3,4
			c0,1.5,0.1,3.2,0.2,4.9c0.1,1.6,0.3,3.2,0.6,4.6c0.3,1.5,0.5,2.2,0.7,2.2c0.1,0,0.3-0.3,0.4-0.9c0.1-0.5,0.3-0.9,0.5-1.3
			c0.1-0.2,0.2-1.4,0.4-3.8c0.1-1.2,0.1-2.3,0.1-3.3C296,126,295.7,123.8,294.9,122.4z"/>
		<path class="st2" d="M306,120c0.4-0.2,0.9-0.3,1.3-0.3c0.9,0,1.4,0.5,1.7,1.6c0.2,0.8,0.6,1.7,1,2.6s0.8,1.7,0.9,2.2
			c0.3,0.9,0.5,1.5,0.8,1.8c0.1,0.1,0.2,0.2,0.2,0.2c0.1,0,0.2-0.6,0.3-1.8c0.1-1.1,0.1-1.9,0.1-2.3v-0.5c0-0.2,0-0.5,0-0.9
			c0-0.7,0.2-1.3,0.6-1.7c0.3-0.4,0.9-0.6,1.6-0.6c0.5,0,1,0.1,1.2,0.4c0.3,0.2,0.4,0.6,0.4,1c0,0.5,0,1.1-0.1,1.5
			c-0.1,0.5-0.1,4-0.2,10.4c0,4-0.1,6.5-0.1,7.3s-0.1,1.3-0.3,1.5c-0.3,0.3-0.7,0.5-1.4,0.5c-1.2,0-2-0.6-2.2-1.8
			c-0.1-0.5-0.4-1.3-0.8-2.6c-0.4-1.1-0.7-2.2-0.9-3c-0.2-1.2-0.6-2.8-1.2-4.7c-0.1-0.2-0.1-0.3-0.1-0.3c-0.1,0-0.2,1.2-0.2,3.6v2.1
			v2.2c0,2.3-0.1,3.6-0.2,4c-0.3,0.8-0.9,1.2-1.8,1.2c-0.5,0-1-0.2-1.3-0.6c-0.3-0.3-0.4-0.6-0.4-0.8c0-0.1,0-0.3,0.1-0.8
			c0.1-0.9,0.2-4.4,0.2-10.3c0-6.6,0.1-10.1,0.2-10.5c0.1-0.3,0.2-0.4,0.5-0.5C305.9,120,306,120,306,120z"/>
		<path class="st2" d="M147.7,60.4c0.4,0,0.7,0.2,0.7,0.6c0,0.3-0.2,0.6-0.6,0.6c-1.6,0.2-3,1.1-3.9,2.4h12c0-0.2,0.1-0.5,0.1-0.7
			c0-0.4,0.3-0.6,0.6-0.6s0.6,0.3,0.6,0.6c0,0.2,0,0.5-0.1,0.7h14.6c2.2-0.1,3.9-1.8,3.9-4c0-0.4,0.3-0.6,0.6-0.6s0.6,0.3,0.6,0.6
			c0,1.6-0.7,3-1.8,4h8.1c0.3-0.7,0.5-1.5,0.5-2.4c0-2.3-0.6-4.3-3.5-6.4c-0.3-2.8-2.8-5-5.8-4.8c0.6,1,0.9,2.2,0.9,3.4
			c0,0.4-0.3,0.6-0.6,0.6s-0.6-0.3-0.6-0.6c0-3-2.5-5.5-5.5-5.5l0,0c-1.1,0-2.2,0.4-3,0.9c-1.1-1.2-2.6-1.9-4.3-1.9
			c-1.4,0-2.7,0.5-3.7,1.4c1.1,0.6,2,1.5,2.6,2.7c0.2,0.3,0,0.7-0.3,0.9c-0.1,0-0.2,0.1-0.3,0.1c-0.2,0-0.4-0.1-0.6-0.3
			c-0.7-1.3-1.9-2.3-3.2-2.7c-0.5-0.1-0.9-0.2-1.4-0.2c-2.7,0-5,1.9-5.6,4.4c-2.5,0.5-4.4,2.7-4.4,5.4c0,0.8,0.2,1.6,0.5,2.4
			C145.6,61,146.6,60.6,147.7,60.4z M155.7,56.6c0.3-0.1,0.6,0,0.8,0.2c0.5,0.8,1.4,1.4,2.3,1.6c1.4,0.3,2.8-0.5,2.8-0.5
			c1.2-0.8,1.8-2.1,1.7-3.5c0-0.4,0.2-0.7,0.6-0.7c0.3,0,0.7,0.2,0.7,0.6c0.1,1.1-0.2,2.2-0.7,3.1c0.1,0,0.3,0,0.4,0
			c0.9,0.1,1.6,0.4,2.3,1c0.9-0.5,1.4-1.4,1.5-2.4c0-0.3,0.3-0.6,0.6-0.6c0.4,0,0.7,0.3,0.7,0.7c-0.1,1.3-0.8,2.5-1.9,3.2
			c0.5,0.7,0.8,1.5,0.8,2.4c0,0.4-0.3,0.7-0.7,0.6c-0.3,0-0.5-0.3-0.6-0.6c0-0.7-0.2-1.3-0.7-1.9c-0.5-0.7-1.3-1.1-2.2-1.2
			c-0.6-0.1-1.2,0-1.8,0.3c-0.1,0-0.1,0.1-0.2,0.1c-0.3,0.2-1.3,0.7-2.5,0.7c-0.4,0-0.7,0-1.1-0.1c-1.3-0.3-2.4-1.1-3.1-2.2
			C155.2,57.2,155.4,56.7,155.7,56.6z"/>
		<path class="st2" d="M189.3,55.6c-0.1,0-0.1,0-0.2,0l-3.9,1.1c-0.3,0.1-0.5,0.4-0.4,0.7c0.1,0.3,0.4,0.5,0.7,0.4l0,0l3.9-1.1
			c0.3-0.1,0.5-0.4,0.4-0.7C189.8,55.7,189.6,55.6,189.3,55.6z"/>
		<path class="st2" d="M190.9,47.7c-0.1,0-0.2,0-0.3,0.1l-7.1,4.1c-0.3,0.2-0.4,0.5-0.2,0.8s0.5,0.4,0.8,0.2l0,0l7.1-4.1
			c0.3-0.2,0.4-0.5,0.2-0.8C191.3,47.8,191.1,47.7,190.9,47.7z"/>
		<path class="st2" d="M183.6,44.5c-0.2,0-0.3,0.1-0.4,0.2l-2.9,2.9c-0.2,0.2-0.2,0.6,0,0.8s0.6,0.2,0.8,0l2.9-2.9
			c0.2-0.2,0.2-0.6,0-0.8C183.9,44.5,183.7,44.5,183.6,44.5z"/>
		<path class="st2" d="M179.2,37c-0.2,0-0.4,0.1-0.5,0.3l-4.1,7.1c-0.2,0.3-0.1,0.6,0.2,0.8c0.3,0.2,0.6,0.1,0.8-0.2l4.1-7.1
			c0.2-0.3,0.1-0.6-0.2-0.8C179.4,37,179.3,37,179.2,37z"/>
		<path class="st2" d="M171.3,37.7c-0.3,0-0.5,0.2-0.5,0.4l-1.1,4c-0.1,0.3,0.1,0.6,0.4,0.7c0.3,0.1,0.6-0.1,0.7-0.4l1.1-4
			c0.1-0.3-0.1-0.6-0.4-0.7C171.4,37.7,171.3,37.7,171.3,37.7z"/>
		<path class="st2" d="M136.9,55.6c-0.3,0-0.5,0.2-0.6,0.4c-0.1,0.3,0.1,0.6,0.4,0.7l3.9,1.1l0,0c0.3,0.1,0.6-0.1,0.7-0.4
			c0.1-0.3-0.1-0.6-0.4-0.7L136.9,55.6L136.9,55.6z"/>
		<path class="st2" d="M135.2,47.7c-0.2,0-0.4,0.1-0.5,0.3c-0.2,0.3-0.1,0.6,0.2,0.8l7.1,4.1l0,0c0.3,0.2,0.6,0.1,0.8-0.2
			s0.1-0.6-0.2-0.8l-7.1-4.1C135.4,47.7,135.3,47.7,135.2,47.7z"/>
		<path class="st2" d="M142.6,44.5c-0.2,0-0.3,0.1-0.4,0.2c-0.2,0.2-0.2,0.6,0,0.8l2.9,2.9c0.2,0.2,0.6,0.2,0.8,0s0.2-0.6,0-0.8
			l-2.9-2.9C142.9,44.5,142.7,44.5,142.6,44.5z"/>
		<path class="st2" d="M146.9,37c-0.1,0-0.2,0-0.3,0.1c-0.3,0.2-0.4,0.5-0.2,0.8l4.1,7.1c0.2,0.3,0.5,0.4,0.8,0.2
			c0.3-0.2,0.4-0.5,0.2-0.8l-4.1-7.1C147.3,37.1,147.1,37,146.9,37z"/>
		<path class="st2" d="M154.9,37.7c-0.1,0-0.1,0-0.2,0c-0.3,0.1-0.5,0.4-0.4,0.7l1.1,3.9c0.1,0.3,0.4,0.5,0.7,0.4s0.5-0.4,0.4-0.7
			l-1.1-3.9C155.4,37.9,155.1,37.7,154.9,37.7z"/>
		<path class="st2" d="M163,31.7c-0.3,0-0.6,0.3-0.6,0.6v8.2c0,0.3,0.3,0.6,0.6,0.6s0.6-0.3,0.6-0.6v-8.2
			C163.6,32,163.4,31.7,163,31.7L163,31.7z"/>
		<path class="st3" d="M187.8,70.9c0.5-2.6,0.6-4.9,0.5-7.1h-50.6c-0.5,6.9,1.8,15.4,8.2,25.5h0.3c-0.1,1.6-0.4,9.3-0.6,14.1
			c-0.1,1.7,1.3,3.2,3.1,3.2h17.1c1.2,0,2.2-0.9,2.3-2c0.3-1.8,0.8-3.7,2.6-3.8c2.9-0.2,11.8,2.5,13.4-0.4
			c0.9-1.7,3.8-11.4,3.5-13.4c-0.4-3.1,1.8-1.7,3.1-3.5c1.1-1.5-0.6-3.4-1.3-4.6C188,76.5,187.3,73.6,187.8,70.9z"/>
	</g>
</g>
</svg>
