<?xml version="1.0" encoding="utf-8"?>
<!-- Generator: Adobe Illustrator 25.1.0, SVG Export Plug-In . SVG Version: 6.00 Build 0)  -->
<svg version="1.1" id="Layer_1" xmlns="http://www.w3.org/2000/svg" xmlns:xlink="http://www.w3.org/1999/xlink" x="0px" y="0px"
	 viewBox="0 0 332.9 168" style="enable-background:new 0 0 332.9 168;" xml:space="preserve">
<style type="text/css">
	.st0{fill:#FFFFFF;}
	.st1{fill:#28C86E;}
	.st2{fill:#80E6ED;}
	.st3{fill:none;stroke:#28C86E;stroke-width:1.6329;stroke-linecap:round;stroke-miterlimit:10;}
	.st4{fill:#FFCF8D;}
	.st5{fill:#FF9F1A;}
	.st6{opacity:0.5;enable-background:new    ;}
	.st7{fill:#3CDC82;}
	.st8{fill:#32DCD2;}
	.st9{fill:none;stroke:#28C86E;stroke-width:0.7931;stroke-linecap:round;stroke-miterlimit:10;}
	.st10{opacity:0.3;enable-background:new    ;}
	.st11{fill:#00A878;}
	.st12{fill:#00CDDC;}
	.st13{fill:#808080;}
</style>
<g>
	<g>
		<path class="st0" d="M332.9,121.3c0-108.4-5-111.4-67.7-119.7c-26.3-3.5-128.8-0.4-164,0C66.7,2,15.2,5.5,9.1,22.2
			C3.1,38.6,0,54.6,0,84.1c0,46.4,10.1,74.5,45.6,80.4c36,6,150.1,2.5,193.6,1.8C284,165.5,332.9,168.6,332.9,121.3z"/>
		<path class="st1" d="M200.1,110c0,0-23.8,3.5-37.8-13.3C162.3,96.7,182.2,91.3,200.1,110z"/>
		<path class="st1" d="M187.9,97.9c0,0-8.1,4.7-29.3,1.1C158.6,99,166.5,86.8,187.9,97.9z"/>
		<path class="st2" d="M128.2,138.5h73.2c0-0.5,0.1-1,0.1-1.5c2.2-42.4-37.8-45.3-53.8-37.9c-8.4,3.9-21.1,14.9-19.7,37
			C128,136.9,128.1,137.7,128.2,138.5z"/>
		<path d="M154.4,119.4c0,1.4-1.2,2.1-2.6,2.1s-2.6-0.7-2.6-2.1s1.2-2.6,2.6-2.6S154.4,118,154.4,119.4z"/>
		<path d="M175.9,119.4c0,1.4-1.2,2.1-2.6,2.1s-2.6-0.7-2.6-2.1s1.2-2.6,2.6-2.6S175.9,118,175.9,119.4z"/>
		<path class="st1" d="M157,89.3c0,0-0.5,4.4,3.5,6.9C160.4,96.2,161,94.4,157,89.3z"/>
		<path class="st3" d="M163,99.4c-1.9-2-4.3-8.1-13.1-6.2"/>
		<path class="st4" d="M148,92.4c0,0-3.7,5.1-1.1,5C149.5,97.3,149.9,92.2,148,92.4z"/>
		<path class="st4" d="M148.9,91.6c0,0-1.9,6.1,0.7,5C152.2,95.4,150.6,90.6,148.9,91.6z"/>
		<path class="st4" d="M149.1,91.3c0,0-5.8,1.6-4.2,3.6C146.5,97,150.4,92.6,149.1,91.3z"/>
		<path class="st4" d="M149.9,94.2c0,0,0.2-7.4-2.3-5.2C145.1,91.2,148.3,95.9,149.9,94.2z"/>
		<path class="st4" d="M148.5,92.1c0,0,0.6-4.9,2.6-3.5C153.2,90,149.9,93.2,148.5,92.1z"/>
		<path class="st4" d="M148.7,90.7c0,0,6,0.3,4.1,2.5C150.8,95.4,147.2,92.1,148.7,90.7z"/>
		<path class="st5" d="M150.1,92.9c0.7-1.3,0.7-2.7-0.1-3.1s-2,0.3-2.7,1.6s-0.7,2.7,0.1,3.1C148.2,94.9,149.4,94.2,150.1,92.9z"/>
		<path d="M164.8,129.7c0,1.2-1.2,0-2.4,0s-2.9,1.2-2.9,0s1.7-3.1,2.9-3.1C163.5,126.6,164.8,127.2,164.8,129.7z"/>
		<path class="st0" d="M162.9,128.4h-0.6c-0.3,0-0.6-0.3-0.6-0.6l0.1-1c0.3-0.2,1.3-0.2,1.8,0.1v0.9
			C163.5,128.1,163.3,128.4,162.9,128.4z"/>
		<path class="st6" d="M195,110.3c3.1,0,5.1-0.3,5.1-0.3c-5.2-5.4-10.5-8.8-15.5-10.9c2.2-0.6,3.3-1.2,3.3-1.2
			c-13.8-7.2-22-4.6-26.1-1.9c-0.4,0-0.9,0.1-1.3,0.1c0.1-0.4,0-2.3-3.5-6.8c0,0-0.3,2.8,1.6,5.2c-1.4-1-3.2-1.7-5.6-1.7
			c0.5-0.9-0.5-1.5-1.7-1.8c0.6-0.8,0.8-1.8-0.1-2.5c-0.8-0.6-1.4-0.1-1.8,0.7c-0.3-0.7-0.9-1.1-1.7-0.3c-1,0.9-1.1,2.1-0.8,3.1
			c-1.4,0.7-2.8,1.7-1.9,2.8c0.4,0.5,0.9,0.6,1.4,0.5c-0.4,1.1-0.5,2,0.6,2c0.7,0,1.2-0.4,1.6-1c0.2,0.2,0.6,0.3,1.1,0.1
			c1.1-0.5,1.4-1.5,1.4-2.6c0.2,0,0.3,0,0.5,0l5.4,2.5c-3.5,0.5-6.6,1.5-9.2,2.6c-8.4,3.9-21.1,14.9-19.7,37
			c0.1,0.8,0.1,1.5,0.2,2.4h73.2c0-0.5,0.1-1,0.1-1.5C202.1,125.3,199.5,116.6,195,110.3z"/>
		<path class="st1" d="M250.5,92.8c0,0-16.5,13.4-29.2,4.4C221.2,97.3,229.9,85.9,250.5,92.8z"/>
		<path class="st7" d="M237,86.4c0,0-2.6,11.7-17.9,13.2C219.1,99.5,219,94.4,237,86.4z"/>
		<path class="st8" d="M180.1,138.5h73.2c0-0.5,0.1-1,0.1-1.5c2.2-42.4-37.8-45.3-53.8-37.9c-8.4,3.9-21.1,14.9-19.7,37
			C179.9,136.9,180,137.7,180.1,138.5z"/>
		<path d="M209,120.2c0,1.4-1.1,1.6-2.4,1.6c-1.3,0-2.4-0.3-2.4-1.6s1.1-2.4,2.4-2.4C207.9,117.7,209,118.8,209,120.2z"/>
		<path d="M229.1,120.2c0,1.4-1.1,1.6-2.4,1.6c-1.4,0-2.4-0.3-2.4-1.6s1.1-2.4,2.4-2.4C228,117.7,229.1,118.8,229.1,120.2z"/>
		<path d="M221.4,125.6c0,0.7-2.2,1.7-4.9,1.7s-4.9-1-4.9-1.7s2.2-0.1,4.9-0.1S221.4,124.9,221.4,125.6z"/>
		<path class="st0" d="M216.6,126.5h-0.4c-0.4,0-0.7-0.3-0.7-0.6v-0.4h1.7v0.4C217.2,126.2,217,126.5,216.6,126.5z"/>
		<path class="st1" d="M212.2,90.2c0,0,2.7,0.7,3.1,3.9C215.3,94.1,214.2,94.1,212.2,90.2z"/>
		<path class="st1" d="M218.7,91.6c0,0,0.2,4.5-4.2,4.5C214.5,96.2,214.7,94.1,218.7,91.6z"/>
		<path class="st9" d="M214.7,99.3c-0.2-0.3-1.2-5.9,2.8-10.5"/>
		<path class="st4" d="M217.6,86.8c0,0-3.4-2.7-4.6-1.2C211.9,87,216.9,87.8,217.6,86.8z"/>
		<path class="st4" d="M217.5,86.7c0,0-4.8-0.1-4.1,1.6C214.2,90,218.2,87.8,217.5,86.7z"/>
		<path class="st4" d="M218.3,87c0,0-4.4,1.2-3,2.6S219.4,87.9,218.3,87z"/>
		<path class="st4" d="M218.7,86.7c0,0-1.4-4.3-2.8-2.9C214.6,85.3,217.8,87.9,218.7,86.7z"/>
		<path class="st4" d="M218.4,87.3c0,0,4.5-0.5,3.4-2.1C220.6,83.6,217.5,86.2,218.4,87.3z"/>
		<path class="st4" d="M218.6,87.6c0,0,1.7-3.3,0.2-3.4C217.3,84,217.6,87.6,218.6,87.6z"/>
		<path class="st4" d="M218.6,87.3c0,0,3.9-1.8,4.7-0.2C224.1,88.7,219,88.4,218.6,87.3z"/>
		<path class="st4" d="M218.6,86.9c0,0,4.7,1,3.6,2.4C221.2,90.8,217.8,87.9,218.6,86.9z"/>
		<path class="st4" d="M218.4,86.7c0,0,2.8,3.6,0.8,3.9C217.3,90.9,217,86.8,218.4,86.7z"/>
		<path class="st5" d="M220.8,87.3c0.1-0.6-1-1.2-2.5-1.3c-1.4-0.2-2.6,0.2-2.7,0.8c-0.1,0.6,1,1.2,2.5,1.3
			C219.5,88.3,220.7,87.9,220.8,87.3z"/>
		<path class="st10" d="M234.7,100.1c8.6-1.4,15.8-7.2,15.8-7.2c-6.2-2.1-11.4-2.5-15.5-2.1c1.6-2.4,2-4.4,2-4.4
			c-9.3,4.2-13.8,7.6-15.9,9.9c-1.7-0.2-3.4-0.3-5.1-0.3c2.9-0.9,2.7-4.3,2.7-4.3c-1.1,0.7-1.8,1.3-2.4,1.8l1-4
			c0.1-0.1,0.2-0.2,0.4-0.3c0.2,0.8,0.8,1.5,1.6,1.4s0.8-0.8,0.5-1.5c0.9,0.6,1.9,0.9,2.4,0.2c0.3-0.4,0.1-0.8-0.3-1.2
			c1-0.1,1.8-0.4,1.5-1.1c-0.3-0.6-1.1-0.8-2-0.6c0.5-0.3,0.8-0.7,0.4-1.2c-0.5-0.8-1.5-0.6-2.3-0.1c0-0.5-0.1-0.9-0.6-0.9
			s-0.8,0.3-1,0.8c-0.5-1-1.3-1.9-2-1.1c-0.5,0.6-0.3,1.3,0.1,1.9c-1.1-0.6-2.4-1-3-0.2c-0.5,0.7,0.4,1.2,1.5,1.5
			c-0.8,0.2-1.3,0.6-1,1.2c0.2,0.6,0.9,0.7,1.6,0.6c-0.1,0.2,0,0.5,0.2,0.8c0.4,0.4,0.9,0.4,1.4,0.2c-0.7,1.1-1.2,2.2-1.6,3.2
			c-0.8-2.3-2.9-2.9-2.9-2.9c1.2,2.4,2.2,3.3,2.7,3.7c-0.2,0.7-0.3,1.4-0.3,2V96c-5.8,0.2-11.1,1.4-15,3.2
			c-8.4,3.9-21.1,14.9-19.7,37c0,0.8,0.1,1.5,0.2,2.4h73.2c0-0.5,0.1-1,0.1-1.5C254.4,116.7,245.8,105.4,234.7,100.1z"/>
		<path class="st11" d="M301.3,92.8c0,0-16.5,13.4-29.2,4.4C272,97.3,280.7,85.9,301.3,92.8z"/>
		<path class="st7" d="M287.8,86.4c0,0-2.6,11.7-17.9,13.2C269.9,99.5,269.8,94.4,287.8,86.4z"/>
		<path class="st12" d="M230.9,138.5h73.2c0-0.5,0.1-1,0.1-1.5c2.2-42.4-37.8-45.3-53.8-37.9c-8.4,3.9-21.1,14.9-19.7,37
			C230.7,136.9,230.8,137.7,230.9,138.5z"/>
		<path d="M259.8,120.2c0,1.4-1.1-1.2-2.4-1.2s-2.4,2.6-2.4,1.2c0-1.3,1.1-2.4,2.4-2.4C258.7,117.7,259.8,118.8,259.8,120.2z"/>
		<path d="M279.9,120.2c0,1.4-1.1-1.2-2.4-1.2s-2.4,2.6-2.4,1.2c0-1.3,1.1-2.4,2.4-2.4C278.8,117.7,279.9,118.8,279.9,120.2z"/>
		<path d="M272.1,125.6c0,0.7,0.5,4.4-4.9,4.4s-4.9-3.8-4.9-4.4c0-0.7,2.2-0.1,4.9-0.1C270,125.5,272.1,124.9,272.1,125.6z"/>
		<path class="st0" d="M267.4,126.5H267c-0.4,0-0.7-0.3-0.7-0.6v-0.4h1.7v0.4C268,126.2,267.8,126.5,267.4,126.5z"/>
		<path class="st1" d="M263,90.2c0,0,2.7,0.7,3.1,3.9C266.1,94.1,265,94.1,263,90.2z"/>
		<path class="st1" d="M269.5,91.6c0,0,0.2,4.5-4.2,4.5C265.3,96.2,265.5,94.1,269.5,91.6z"/>
		<path class="st9" d="M265.5,99.3c-0.2-0.3-1.2-5.9,2.8-10.5"/>
		<path class="st4" d="M268.4,86.8c0,0-3.4-2.7-4.6-1.2C262.7,87,267.8,87.8,268.4,86.8z"/>
		<path class="st4" d="M268.3,86.7c0,0-4.8-0.1-4.1,1.6S269,87.8,268.3,86.7z"/>
		<path class="st4" d="M269.1,87c0,0-4.4,1.2-3,2.6S270.2,87.9,269.1,87z"/>
		<path class="st4" d="M269.5,86.7c0,0-1.4-4.3-2.8-2.9C265.4,85.3,268.6,87.9,269.5,86.7z"/>
		<path class="st4" d="M269.2,87.3c0,0,4.5-0.5,3.4-2.1C271.4,83.6,268.3,86.2,269.2,87.3z"/>
		<path class="st4" d="M269.4,87.6c0,0,1.7-3.3,0.2-3.4C268.1,84,268.4,87.6,269.4,87.6z"/>
		<path class="st4" d="M269.4,87.3c0,0,3.9-1.8,4.7-0.2C274.9,88.7,269.8,88.4,269.4,87.3z"/>
		<path class="st4" d="M269.4,86.9c0,0,4.7,1,3.6,2.4C272,90.8,268.5,87.9,269.4,86.9z"/>
		<path class="st4" d="M269.2,86.7c0,0,2.8,3.6,0.8,3.9C268.1,90.9,267.8,86.8,269.2,86.7z"/>
		<path class="st5" d="M271.6,87.3c0.1-0.6-1-1.2-2.5-1.3s-2.6,0.2-2.7,0.8s1,1.2,2.5,1.3C270.3,88.3,271.5,87.9,271.6,87.3z"/>
		<path class="st13" d="M32,48.5c-1,0-2-0.2-2.8-0.7s-1.4-1.2-1.8-2c-0.4-0.9-0.7-1.9-0.7-3s0.2-2.2,0.7-3c0.4-0.9,1.1-1.6,1.9-2.1
			c0.8-0.5,1.8-0.7,2.9-0.7c1.3,0,2.3,0.3,3.1,0.9c0.8,0.6,1.4,1.4,1.6,2.5h-1.5c-0.2-0.7-0.5-1.2-1.1-1.6c-0.6-0.4-1.3-0.6-2.1-0.6
			s-1.5,0.2-2.1,0.6c-0.6,0.4-1.1,0.9-1.4,1.6c-0.3,0.7-0.5,1.5-0.5,2.5c0,0.9,0.2,1.8,0.5,2.4c0.3,0.7,0.8,1.2,1.4,1.6
			c0.6,0.4,1.3,0.6,2,0.6c1.2,0,2.1-0.4,2.7-1.1c0.6-0.7,0.9-1.7,1-2.9h-3.2v-1.1h4.6v6H36l-0.1-1.8c-0.4,0.7-0.9,1.2-1.5,1.5
			C33.7,48.4,32.9,48.5,32,48.5z"/>
		<path class="st13" d="M42.8,48.5c-0.8,0-1.4-0.2-2-0.5s-1-0.8-1.4-1.4c-0.3-0.6-0.5-1.4-0.5-2.2s0.2-1.6,0.5-2.2
			c0.3-0.6,0.8-1.1,1.4-1.5c0.6-0.4,1.3-0.5,2.1-0.5s1.4,0.2,2,0.5s1,0.8,1.3,1.4c0.3,0.6,0.4,1.2,0.4,1.8c0,0.1,0,0.2,0,0.3
			s0,0.2,0,0.4h-6.3c0,0.6,0.2,1.1,0.4,1.5s0.6,0.7,0.9,0.9c0.4,0.2,0.8,0.3,1.2,0.3c0.6,0,1-0.1,1.4-0.4c0.4-0.3,0.7-0.6,0.8-1h1.3
			c-0.2,0.7-0.6,1.4-1.2,1.8C44.5,48.3,43.7,48.5,42.8,48.5z M42.8,41.3c-0.6,0-1.2,0.2-1.7,0.6c-0.5,0.4-0.8,1-0.9,1.7h5
			c0-0.7-0.3-1.3-0.7-1.7C44,41.5,43.4,41.3,42.8,41.3z"/>
		<path class="st13" d="M51.2,48.3c-0.7,0-1.3-0.2-1.7-0.5c-0.4-0.4-0.6-1-0.6-1.9v-4.4h-1.4v-1.1h1.4l0.2-1.9h1.2v1.9h2.3v1.1h-2.3
			v4.4c0,0.5,0.1,0.8,0.3,1s0.6,0.3,1.1,0.3h0.8v1.1L51.2,48.3L51.2,48.3z"/>
		<path class="st13" d="M57.3,48.3c-0.7,0-1.3-0.2-1.7-0.5c-0.4-0.4-0.6-1-0.6-1.9v-4.4h-1.4v-1.1H55l0.2-1.9h1.2v1.9h2.3v1.1h-2.3
			v4.4c0,0.5,0.1,0.8,0.3,1s0.6,0.3,1.1,0.3h0.8v1.1L57.3,48.3L57.3,48.3z"/>
		<path class="st13" d="M61.2,38.6c-0.3,0-0.5-0.1-0.7-0.3s-0.3-0.4-0.3-0.7s0.1-0.5,0.3-0.6c0.2-0.2,0.4-0.3,0.7-0.3
			s0.5,0.1,0.7,0.3s0.3,0.4,0.3,0.6c0,0.3-0.1,0.5-0.3,0.7S61.5,38.6,61.2,38.6z M60.5,48.3v-7.9h1.3v7.9H60.5L60.5,48.3z"/>
		<path class="st13" d="M64.2,48.3v-7.9h1.2l0.1,1.4c0.3-0.5,0.6-0.9,1.1-1.2s1-0.4,1.6-0.4c0.9,0,1.7,0.3,2.2,0.9
			c0.6,0.6,0.8,1.4,0.8,2.6v4.6H70v-4.5c0-1.6-0.7-2.5-2.1-2.5c-0.7,0-1.2,0.2-1.7,0.7c-0.4,0.5-0.7,1.2-0.7,2.1v4.1L64.2,48.3
			L64.2,48.3z"/>
		<path class="st13" d="M76.5,45.8c-0.5,0-0.9-0.1-1.2-0.2l-0.8,0.8c0.1,0.1,0.3,0.2,0.4,0.2s0.4,0.1,0.8,0.2
			c0.3,0.1,0.8,0.1,1.4,0.2c1.1,0.1,1.8,0.3,2.3,0.7s0.7,1,0.7,1.6c0,0.5-0.1,0.9-0.4,1.3c-0.2,0.4-0.6,0.8-1.2,1
			c-0.5,0.3-1.2,0.4-2,0.4c-0.7,0-1.3-0.1-1.9-0.3c-0.5-0.2-1-0.5-1.3-0.8c-0.3-0.4-0.5-0.9-0.5-1.4c0-0.3,0.1-0.6,0.2-1
			c0.2-0.3,0.5-0.7,0.9-1c-0.2-0.1-0.4-0.2-0.6-0.3S73,47,72.8,46.8v-0.4l1.4-1.3c-0.6-0.5-0.9-1.2-0.9-2.1c0-0.5,0.1-1,0.4-1.4
			c0.2-0.4,0.6-0.8,1.1-1s1-0.4,1.7-0.4c0.5,0,0.9,0.1,1.2,0.2h2.9v1l-1.5,0.1c0.3,0.4,0.5,1,0.5,1.5s-0.1,1-0.4,1.4
			c-0.2,0.4-0.6,0.8-1.1,1C77.8,45.7,77.2,45.8,76.5,45.8z M74.2,49.4c0,0.5,0.2,0.9,0.7,1.2s1,0.4,1.7,0.4s1.2-0.1,1.6-0.4
			c0.4-0.3,0.6-0.7,0.6-1.1c0-0.3-0.1-0.6-0.4-0.9s-0.8-0.4-1.5-0.4c-0.6,0-1.1-0.1-1.5-0.2c-0.4,0.2-0.7,0.5-0.9,0.8
			C74.2,48.9,74.2,49.1,74.2,49.4z M76.5,44.7c0.6,0,1-0.1,1.3-0.4c0.3-0.3,0.5-0.7,0.5-1.3c0-0.5-0.2-1-0.5-1.3s-0.8-0.4-1.3-0.4
			c-0.6,0-1,0.1-1.4,0.4c-0.3,0.3-0.5,0.7-0.5,1.3s0.2,1,0.5,1.3C75.5,44.6,75.9,44.7,76.5,44.7z"/>
		<path class="st13" d="M90,48.5c-0.8,0-1.4-0.2-2-0.5c-0.6-0.4-1-0.8-1.4-1.4c-0.3-0.6-0.5-1.4-0.5-2.2s0.2-1.6,0.5-2.2
			c0.3-0.6,0.8-1.1,1.4-1.5s1.3-0.5,2.1-0.5c0.8,0,1.4,0.2,2,0.5s1,0.8,1.3,1.4c0.3,0.6,0.4,1.2,0.4,1.8c0,0.1,0,0.2,0,0.3
			s0,0.2,0,0.4h-6.3c0,0.6,0.2,1.1,0.4,1.5c0.2,0.4,0.6,0.7,0.9,0.9c0.4,0.2,0.8,0.3,1.2,0.3c0.5,0,1-0.1,1.4-0.4
			c0.4-0.3,0.7-0.6,0.8-1h1.3c-0.2,0.7-0.6,1.4-1.2,1.8C91.7,48.3,90.9,48.5,90,48.5z M90,41.3c-0.6,0-1.2,0.2-1.7,0.6
			c-0.5,0.4-0.8,1-0.9,1.7h5c0-0.7-0.3-1.3-0.7-1.7C91.2,41.5,90.7,41.3,90,41.3z"/>
		<path class="st13" d="M95.6,48.3v-7.9h1.2l0.1,1.4c0.3-0.5,0.6-0.9,1.1-1.2s1-0.4,1.6-0.4c0.9,0,1.7,0.3,2.2,0.9
			c0.6,0.6,0.8,1.4,0.8,2.6v4.6h-1.3v-4.5c0-1.6-0.7-2.5-2.1-2.5c-0.7,0-1.2,0.2-1.7,0.7s-0.7,1.2-0.7,2.1v4.1L95.6,48.3L95.6,48.3z
			"/>
		<path class="st13" d="M108.3,48.5c-0.8,0-1.4-0.2-2-0.5s-1.1-0.8-1.4-1.4c-0.4-0.6-0.5-1.4-0.5-2.2s0.2-1.6,0.5-2.2
			c0.3-0.6,0.8-1.1,1.4-1.4c0.6-0.3,1.3-0.5,2-0.5s1.4,0.2,2,0.5s1.1,0.8,1.4,1.4c0.3,0.6,0.5,1.4,0.5,2.2s-0.2,1.6-0.5,2.2
			c-0.3,0.6-0.8,1.1-1.4,1.4C109.7,48.4,109.1,48.5,108.3,48.5z M108.3,47.4c0.5,0,0.9-0.1,1.3-0.3s0.7-0.6,1-1s0.4-1,0.4-1.7
			s-0.1-1.2-0.4-1.7c-0.2-0.4-0.6-0.8-0.9-1c-0.4-0.2-0.8-0.3-1.3-0.3s-0.9,0.1-1.3,0.3s-0.7,0.6-1,1s-0.4,1-0.4,1.7
			s0.1,1.2,0.4,1.7s0.6,0.8,0.9,1S107.9,47.4,108.3,47.4z"/>
		<path class="st13" d="M117.1,48.5c-0.9,0-1.7-0.3-2.2-0.9c-0.6-0.6-0.8-1.4-0.8-2.6v-4.6h1.3v4.5c0,1.7,0.7,2.5,2,2.5
			c0.7,0,1.3-0.2,1.7-0.7s0.7-1.2,0.7-2.1v-4.1h1.3v7.9h-1.2l-0.1-1.4c-0.2,0.5-0.6,0.9-1.1,1.2C118.2,48.4,117.7,48.5,117.1,48.5z"
			/>
		<path class="st13" d="M126.5,45.8c-0.5,0-0.9-0.1-1.2-0.2l-0.8,0.8c0.1,0.1,0.3,0.2,0.4,0.2c0.2,0.1,0.4,0.1,0.8,0.2
			c0.3,0.1,0.8,0.1,1.4,0.2c1.1,0.1,1.8,0.3,2.3,0.7s0.7,1,0.7,1.6c0,0.5-0.1,0.9-0.4,1.3c-0.2,0.4-0.6,0.8-1.1,1
			c-0.5,0.3-1.2,0.4-2,0.4c-0.7,0-1.3-0.1-1.9-0.3c-0.6-0.2-1-0.5-1.3-0.8c-0.3-0.4-0.5-0.9-0.5-1.4c0-0.3,0.1-0.6,0.2-1
			c0.2-0.3,0.5-0.7,0.9-1c-0.2-0.1-0.4-0.2-0.6-0.3s-0.3-0.2-0.5-0.4v-0.4l1.4-1.3c-0.6-0.5-0.9-1.2-0.9-2.1c0-0.5,0.1-1,0.4-1.4
			c0.2-0.4,0.6-0.8,1.1-1s1-0.4,1.7-0.4c0.5,0,0.9,0.1,1.2,0.2h2.9v1l-1.5,0.1c0.3,0.4,0.5,1,0.5,1.5s-0.1,1-0.4,1.4
			c-0.2,0.4-0.6,0.8-1.1,1C127.7,45.7,127.1,45.8,126.5,45.8z M124.1,49.4c0,0.5,0.2,0.9,0.7,1.2s1,0.4,1.7,0.4s1.2-0.1,1.6-0.4
			c0.4-0.3,0.6-0.7,0.6-1.1c0-0.3-0.1-0.6-0.4-0.9s-0.8-0.4-1.5-0.4c-0.6,0-1.1-0.1-1.5-0.2c-0.4,0.2-0.7,0.5-0.9,0.8
			C124.2,48.9,124.1,49.1,124.1,49.4z M126.5,44.7c0.6,0,1-0.1,1.3-0.4c0.3-0.3,0.5-0.7,0.5-1.3c0-0.5-0.2-1-0.5-1.3
			s-0.8-0.4-1.3-0.4c-0.6,0-1,0.1-1.4,0.4c-0.3,0.3-0.5,0.7-0.5,1.3s0.2,1,0.5,1.3C125.4,44.6,125.9,44.7,126.5,44.7z"/>
		<path class="st13" d="M132.1,48.3V36.8h1.3v4.9c0.3-0.5,0.6-0.9,1.1-1.1c0.5-0.3,1-0.4,1.6-0.4c0.9,0,1.7,0.3,2.2,0.9
			c0.6,0.6,0.8,1.4,0.8,2.6v4.6h-1.3v-4.5c0-1.7-0.7-2.5-2-2.5c-0.7,0-1.3,0.2-1.7,0.7c-0.5,0.5-0.7,1.2-0.7,2.1v4.1L132.1,48.3
			L132.1,48.3z"/>
		<path class="st13" d="M148.6,48.5c-0.9,0-1.7-0.2-2.4-0.7s-1-1.1-1.1-1.9h1.4c0.1,0.4,0.3,0.8,0.7,1.1c0.3,0.3,0.8,0.5,1.4,0.5
			c0.6,0,1-0.1,1.2-0.4s0.4-0.5,0.4-0.9c0-0.5-0.2-0.8-0.5-1c-0.4-0.2-0.8-0.3-1.5-0.4c-0.4-0.1-0.9-0.2-1.3-0.4s-0.8-0.4-1.1-0.7
			s-0.4-0.7-0.4-1.2c0-0.7,0.3-1.3,0.8-1.7s1.2-0.7,2.1-0.7c0.8,0,1.5,0.2,2.1,0.6c0.5,0.4,0.9,1,0.9,1.8H150
			c-0.1-0.4-0.2-0.7-0.5-0.9s-0.7-0.3-1.2-0.3s-0.9,0.1-1.1,0.3c-0.3,0.2-0.4,0.5-0.4,0.8s0.2,0.6,0.5,0.8s0.8,0.3,1.4,0.5
			c0.5,0.1,1,0.2,1.4,0.4c0.4,0.1,0.8,0.4,1.1,0.7s0.4,0.7,0.4,1.3c0,0.7-0.3,1.3-0.8,1.8C150.3,48.3,149.5,48.5,148.6,48.5z"/>
		<path class="st13" d="M153.6,48.3V36.8h1.3v11.5H153.6z"/>
		<path class="st13" d="M160.7,48.5c-0.8,0-1.4-0.2-2-0.5c-0.6-0.4-1-0.8-1.4-1.4c-0.3-0.6-0.5-1.4-0.5-2.2s0.2-1.6,0.5-2.2
			c0.3-0.6,0.8-1.1,1.4-1.5c0.6-0.4,1.3-0.5,2.1-0.5s1.4,0.2,2,0.5s1,0.8,1.3,1.4c0.3,0.6,0.4,1.2,0.4,1.8c0,0.1,0,0.2,0,0.3
			s0,0.2,0,0.4h-6.3c0,0.6,0.2,1.1,0.4,1.5s0.6,0.7,0.9,0.9c0.4,0.2,0.8,0.3,1.2,0.3c0.6,0,1-0.1,1.4-0.4c0.4-0.3,0.7-0.6,0.8-1h1.3
			c-0.2,0.7-0.6,1.4-1.2,1.8C162.4,48.3,161.6,48.5,160.7,48.5z M160.7,41.3c-0.6,0-1.2,0.2-1.7,0.6c-0.5,0.4-0.8,1-0.9,1.7h5
			c0-0.7-0.3-1.3-0.7-1.7C161.9,41.5,161.3,41.3,160.7,41.3z"/>
		<path class="st13" d="M169.8,48.5c-0.8,0-1.4-0.2-2-0.5s-1.1-0.8-1.4-1.4c-0.3-0.6-0.5-1.4-0.5-2.2s0.2-1.6,0.5-2.2
			c0.3-0.6,0.8-1.1,1.4-1.5s1.3-0.5,2.1-0.5s1.4,0.2,2,0.5s1,0.8,1.3,1.4c0.3,0.6,0.4,1.2,0.4,1.8c0,0.1,0,0.2,0,0.3s0,0.2,0,0.4
			h-6.3c0,0.6,0.2,1.1,0.4,1.5s0.6,0.7,0.9,0.9c0.4,0.2,0.8,0.3,1.2,0.3c0.6,0,1-0.1,1.4-0.4c0.4-0.3,0.6-0.6,0.8-1h1.3
			c-0.2,0.7-0.6,1.4-1.2,1.8C171.5,48.3,170.7,48.5,169.8,48.5z M169.8,41.3c-0.6,0-1.2,0.2-1.7,0.6c-0.5,0.4-0.8,1-0.9,1.7h5
			c0-0.7-0.3-1.3-0.7-1.7C171,41.5,170.4,41.3,169.8,41.3z"/>
		<path class="st13" d="M175.3,51.9V40.4h1.2l0.1,1.3c0.3-0.4,0.6-0.7,1.1-1s1.1-0.5,1.8-0.5c0.8,0,1.5,0.2,2.1,0.5
			c0.6,0.4,1,0.9,1.4,1.5c0.3,0.6,0.5,1.3,0.5,2.1s-0.2,1.5-0.5,2.1s-0.8,1.1-1.4,1.5c-0.6,0.4-1.3,0.5-2.1,0.5
			c-0.6,0-1.2-0.1-1.7-0.4c-0.5-0.3-0.9-0.6-1.2-1.1v4.9L175.3,51.9L175.3,51.9z M179.4,47.4c0.5,0,1-0.1,1.4-0.4s0.7-0.6,1-1.1
			c0.2-0.4,0.3-1,0.3-1.6s-0.1-1.1-0.3-1.6c-0.2-0.4-0.6-0.8-1-1s-0.9-0.4-1.4-0.4s-1,0.1-1.4,0.4c-0.4,0.2-0.7,0.6-1,1
			c-0.2,0.5-0.4,1-0.4,1.6s0.1,1.1,0.4,1.6c0.2,0.5,0.6,0.8,1,1.1C178.4,47.2,178.9,47.4,179.4,47.4z"/>
		<path class="st13" d="M193.2,48.5c-0.8,0-1.4-0.2-2-0.5c-0.6-0.4-1.1-0.8-1.4-1.5c-0.4-0.6-0.5-1.3-0.5-2.2s0.2-1.6,0.5-2.2
			c0.4-0.6,0.8-1.1,1.4-1.5c0.6-0.4,1.3-0.5,2-0.5c0.9,0,1.7,0.2,2.4,0.7s1.1,1.1,1.2,2h-1.4c-0.1-0.5-0.4-0.9-0.8-1.1
			c-0.4-0.3-0.9-0.4-1.5-0.4c-0.4,0-0.9,0.1-1.3,0.3c-0.4,0.2-0.7,0.6-1,1c-0.2,0.4-0.4,1-0.4,1.7s0.1,1.2,0.4,1.7s0.6,0.8,1,1
			s0.8,0.3,1.3,0.3c0.6,0,1-0.1,1.5-0.4c0.4-0.3,0.7-0.7,0.8-1.2h1.4c-0.2,0.8-0.6,1.4-1.2,1.9C195,48.3,194.2,48.5,193.2,48.5z"/>
		<path class="st13" d="M201.4,48.5c-0.7,0-1.2-0.1-1.7-0.3c-0.4-0.2-0.8-0.5-1-0.9s-0.3-0.8-0.3-1.2c0-0.8,0.3-1.4,0.9-1.9
			s1.5-0.7,2.5-0.7h2.1v-0.1c0-0.7-0.2-1.2-0.5-1.6s-0.9-0.5-1.5-0.5c-0.5,0-1,0.1-1.4,0.4c-0.4,0.3-0.6,0.6-0.7,1.1h-1.4
			c0.1-0.6,0.2-1.1,0.6-1.5c0.3-0.4,0.8-0.7,1.3-0.9s1-0.3,1.6-0.3c1.1,0,1.9,0.3,2.5,0.9s0.8,1.4,0.8,2.4v4.9H204l-0.1-1.4
			c-0.2,0.4-0.6,0.8-1,1.1C202.7,48.4,202.1,48.5,201.4,48.5z M201.6,47.4c0.5,0,0.9-0.1,1.3-0.4c0.4-0.3,0.6-0.6,0.8-1
			s0.3-0.9,0.3-1.3l0,0h-2c-0.8,0-1.3,0.1-1.7,0.4c-0.3,0.3-0.5,0.6-0.5,1s0.1,0.8,0.5,1C200.6,47.3,201,47.4,201.6,47.4z"/>
		<path class="st13" d="M207.4,48.3v-7.9h1.2l0.1,1.4c0.3-0.5,0.6-0.9,1.1-1.2s1-0.4,1.6-0.4c0.9,0,1.7,0.3,2.2,0.9
			c0.6,0.6,0.8,1.4,0.8,2.6v4.6h-1.3v-4.5c0-1.6-0.7-2.5-2-2.5c-0.7,0-1.2,0.2-1.7,0.7c-0.4,0.5-0.7,1.2-0.7,2.1v4.1L207.4,48.3
			L207.4,48.3z"/>
		<path class="st13" d="M220.8,51.9V40.4h1.2l0.1,1.3c0.3-0.4,0.6-0.7,1.1-1s1.1-0.5,1.8-0.5c0.8,0,1.5,0.2,2.1,0.5
			c0.6,0.4,1,0.9,1.4,1.5c0.3,0.6,0.5,1.3,0.5,2.1s-0.2,1.5-0.5,2.1s-0.8,1.1-1.4,1.5c-0.6,0.4-1.3,0.5-2.1,0.5
			c-0.6,0-1.2-0.1-1.7-0.4c-0.5-0.3-0.9-0.6-1.2-1.1v4.9L220.8,51.9L220.8,51.9z M224.9,47.4c0.5,0,1-0.1,1.4-0.4
			c0.4-0.2,0.7-0.6,1-1.1c0.2-0.4,0.4-1,0.4-1.6s-0.1-1.1-0.4-1.6c-0.2-0.4-0.6-0.8-1-1s-0.9-0.4-1.4-0.4s-1,0.1-1.4,0.4
			s-0.7,0.6-1,1c-0.2,0.5-0.4,1-0.4,1.6s0.1,1.1,0.4,1.6c0.2,0.5,0.5,0.8,1,1.1C223.9,47.2,224.3,47.4,224.9,47.4z"/>
		<path class="st13" d="M230.8,48.3V36.8h1.3v11.5H230.8z"/>
		<path class="st13" d="M237,48.5c-0.7,0-1.2-0.1-1.6-0.3s-0.8-0.5-1-0.9s-0.3-0.8-0.3-1.2c0-0.8,0.3-1.4,0.9-1.9
			c0.6-0.4,1.5-0.7,2.5-0.7h2.1v-0.1c0-0.7-0.2-1.2-0.5-1.6c-0.4-0.4-0.8-0.5-1.5-0.5c-0.5,0-1,0.1-1.4,0.4
			c-0.4,0.3-0.6,0.6-0.7,1.1h-1.4c0.1-0.6,0.2-1.1,0.6-1.5c0.3-0.4,0.8-0.7,1.3-0.9s1-0.3,1.6-0.3c1.1,0,1.9,0.3,2.5,0.9
			s0.8,1.4,0.8,2.4v4.9h-1.2l-0.1-1.4c-0.2,0.4-0.5,0.8-1,1.1C238.3,48.4,237.7,48.5,237,48.5z M237.2,47.4c0.5,0,1-0.1,1.3-0.4
			c0.4-0.3,0.6-0.6,0.8-1s0.3-0.9,0.3-1.3l0,0h-2c-0.8,0-1.4,0.1-1.7,0.4c-0.3,0.3-0.5,0.6-0.5,1s0.1,0.8,0.5,1
			C236.2,47.3,236.6,47.4,237.2,47.4z"/>
		<path class="st13" d="M243.6,51.9l2-4.3h-0.5l-3.1-7.2h1.5l2.6,6.2l2.8-6.2h1.4l-5.2,11.5H243.6z"/>
		<path class="st13" d="M258.5,48.5c-0.7,0-1.2-0.1-1.6-0.3s-0.8-0.5-1-0.9s-0.3-0.8-0.3-1.2c0-0.8,0.3-1.4,0.9-1.9s1.5-0.7,2.5-0.7
			h2.1v-0.1c0-0.7-0.2-1.2-0.5-1.6c-0.4-0.4-0.9-0.5-1.5-0.5c-0.5,0-1,0.1-1.4,0.4c-0.4,0.3-0.6,0.6-0.7,1.1h-1.4
			c0-0.6,0.2-1.1,0.6-1.5c0.3-0.4,0.8-0.7,1.3-0.9s1-0.3,1.6-0.3c1.1,0,1.9,0.3,2.5,0.9s0.8,1.4,0.8,2.4v4.9h-1.2l-0.1-1.4
			c-0.2,0.4-0.6,0.8-1,1.1C259.9,48.4,259.3,48.5,258.5,48.5z M258.8,47.4c0.5,0,0.9-0.1,1.3-0.4c0.4-0.3,0.7-0.6,0.8-1
			c0.2-0.4,0.3-0.9,0.3-1.3l0,0h-2c-0.8,0-1.4,0.1-1.7,0.4c-0.3,0.3-0.5,0.6-0.5,1s0.2,0.8,0.5,1C257.8,47.3,258.2,47.4,258.8,47.4z
			"/>
		<path class="st13" d="M273,48.5c-0.6,0-1.2-0.1-1.7-0.4c-0.5-0.3-0.9-0.6-1.2-1.1l-0.1,1.3h-1.2V36.8h1.3v4.9
			c0.3-0.4,0.6-0.7,1.1-1s1.1-0.5,1.8-0.5c0.8,0,1.5,0.2,2.1,0.5c0.6,0.4,1,0.9,1.4,1.5c0.3,0.6,0.5,1.3,0.5,2.1s-0.2,1.5-0.5,2.1
			s-0.8,1.1-1.4,1.5C274.5,48.4,273.8,48.5,273,48.5z M272.9,47.4c0.5,0,1-0.1,1.4-0.4s0.7-0.6,1-1.1c0.2-0.4,0.4-1,0.4-1.6
			s-0.1-1.1-0.4-1.6c-0.2-0.4-0.5-0.8-1-1s-0.9-0.4-1.4-0.4s-1,0.1-1.4,0.4s-0.7,0.6-1,1c-0.2,0.5-0.4,1-0.4,1.6s0.1,1.1,0.4,1.6
			c0.2,0.5,0.5,0.8,1,1.1S272.4,47.4,272.9,47.4z"/>
		<path class="st13" d="M279.7,38.6c-0.3,0-0.5-0.1-0.7-0.3s-0.3-0.4-0.3-0.7s0.1-0.5,0.3-0.6c0.2-0.2,0.4-0.3,0.7-0.3
			c0.3,0,0.5,0.1,0.7,0.3s0.3,0.4,0.3,0.6c0,0.3-0.1,0.5-0.3,0.7C280.1,38.6,279.9,38.6,279.7,38.6z M279,48.3v-7.9h1.3v7.9H279
			L279,48.3z"/>
		<path class="st13" d="M285.8,45.8c-0.5,0-0.9-0.1-1.2-0.2l-0.8,0.8c0.1,0.1,0.3,0.2,0.4,0.2c0.2,0.1,0.4,0.1,0.8,0.2
			c0.3,0.1,0.8,0.1,1.4,0.2c1.1,0.1,1.8,0.3,2.3,0.7s0.7,1,0.7,1.6c0,0.5-0.1,0.9-0.4,1.3c-0.2,0.4-0.6,0.8-1.2,1
			c-0.5,0.3-1.2,0.4-2,0.4c-0.7,0-1.4-0.1-1.9-0.3s-1-0.5-1.3-0.8c-0.3-0.4-0.5-0.9-0.5-1.4c0-0.3,0.1-0.6,0.2-1
			c0.2-0.3,0.5-0.7,0.9-1c-0.2-0.1-0.4-0.2-0.6-0.3s-0.3-0.2-0.5-0.4v-0.4l1.4-1.3c-0.6-0.5-0.9-1.2-0.9-2.1c0-0.5,0.1-1,0.4-1.4
			c0.2-0.4,0.6-0.8,1.1-1s1-0.4,1.7-0.4c0.5,0,0.9,0.1,1.2,0.2h2.9v1l-1.5,0.1c0.3,0.4,0.5,1,0.5,1.5s-0.1,1-0.4,1.4
			c-0.2,0.4-0.6,0.8-1.1,1C287.1,45.7,286.5,45.8,285.8,45.8z M283.5,49.4c0,0.5,0.2,0.9,0.7,1.2s1,0.4,1.7,0.4s1.2-0.1,1.6-0.4
			c0.4-0.3,0.6-0.7,0.6-1.1c0-0.3-0.1-0.6-0.4-0.9s-0.8-0.4-1.5-0.4c-0.6,0-1.1-0.1-1.5-0.2c-0.4,0.2-0.7,0.5-0.9,0.8
			C283.5,48.9,283.5,49.1,283.5,49.4z M285.8,44.7c0.6,0,1-0.1,1.4-0.4c0.3-0.3,0.5-0.7,0.5-1.3c0-0.5-0.2-1-0.5-1.3
			s-0.8-0.4-1.4-0.4s-1,0.1-1.4,0.4c-0.3,0.3-0.5,0.7-0.5,1.3s0.2,1,0.5,1.3C284.8,44.6,285.2,44.7,285.8,44.7z"/>
		<path class="st13" d="M27.1,70.3v-7.9h1.2l0.1,1.5c0.2-0.5,0.6-0.9,1.1-1.2s1.1-0.5,1.9-0.5v1.4H31c-0.5,0-0.9,0.1-1.3,0.2
			c-0.4,0.2-0.7,0.5-0.9,0.8c-0.2,0.4-0.3,0.9-0.3,1.6v4L27.1,70.3L27.1,70.3z"/>
		<path class="st13" d="M36.2,70.5c-0.8,0-1.4-0.2-2-0.5s-1.1-0.8-1.4-1.4c-0.3-0.6-0.5-1.4-0.5-2.2s0.2-1.6,0.5-2.2
			c0.4-0.6,0.8-1.1,1.4-1.4c0.6-0.3,1.3-0.5,2-0.5s1.4,0.2,2,0.5s1.1,0.8,1.4,1.4c0.3,0.6,0.5,1.4,0.5,2.2s-0.2,1.6-0.5,2.2
			s-0.8,1.1-1.4,1.4C37.6,70.4,36.9,70.5,36.2,70.5z M36.2,69.4c0.5,0,0.9-0.1,1.3-0.3c0.4-0.2,0.7-0.6,1-1s0.4-1,0.4-1.7
			s-0.1-1.2-0.4-1.7c-0.2-0.4-0.6-0.8-0.9-1c-0.4-0.2-0.8-0.3-1.3-0.3s-0.9,0.1-1.3,0.3c-0.4,0.2-0.7,0.6-1,1s-0.4,1-0.4,1.7
			s0.1,1.2,0.4,1.7s0.6,0.8,0.9,1C35.3,69.3,35.7,69.4,36.2,69.4z"/>
		<path class="st13" d="M42,70.3V58.8h1.3v11.5H42z"/>
		<path class="st13" d="M49.2,70.5c-0.8,0-1.4-0.2-2-0.5c-0.6-0.4-1.1-0.8-1.4-1.4c-0.3-0.6-0.5-1.4-0.5-2.2s0.2-1.6,0.5-2.2
			c0.3-0.6,0.8-1.1,1.4-1.5s1.3-0.5,2.1-0.5s1.4,0.2,2,0.5c0.6,0.4,1,0.8,1.3,1.4c0.3,0.6,0.4,1.2,0.4,1.8c0,0.1,0,0.2,0,0.3
			s0,0.2,0,0.4h-6.3c0,0.6,0.2,1.1,0.4,1.5s0.6,0.7,0.9,0.9c0.4,0.2,0.8,0.3,1.2,0.3c0.5,0,1-0.1,1.4-0.4s0.6-0.6,0.8-1h1.3
			c-0.2,0.7-0.6,1.4-1.2,1.8C50.9,70.3,50.1,70.5,49.2,70.5z M49.2,63.3c-0.6,0-1.2,0.2-1.7,0.6c-0.5,0.4-0.8,1-0.9,1.7h5
			c0-0.7-0.3-1.3-0.7-1.7C50.4,63.5,49.8,63.3,49.2,63.3z"/>
		<path class="st13" d="M59.8,60.6c-0.3,0-0.5-0.1-0.7-0.3s-0.3-0.4-0.3-0.7s0.1-0.5,0.3-0.6c0.2-0.2,0.4-0.3,0.7-0.3
			s0.5,0.1,0.7,0.3s0.3,0.4,0.3,0.6c0,0.3-0.1,0.5-0.3,0.7C60.2,60.6,60,60.6,59.8,60.6z M59.1,70.3v-7.9h1.3v7.9H59.1L59.1,70.3z"
			/>
		<path class="st13" d="M62.8,70.3v-7.9H64l0.1,1.4c0.3-0.5,0.6-0.9,1.1-1.2s1-0.4,1.6-0.4c0.9,0,1.7,0.3,2.2,0.9
			c0.6,0.6,0.8,1.4,0.8,2.6v4.6h-1.3v-4.5c0-1.6-0.7-2.5-2.1-2.5c-0.7,0-1.2,0.2-1.7,0.7S64,65.2,64,66.1v4.1L62.8,70.3L62.8,70.3z"
			/>
		<path class="st13" d="M76.2,70.3v-7.9h1.2l0.1,1.5c0.2-0.5,0.6-0.9,1.1-1.2s1.1-0.5,1.9-0.5v1.4h-0.4c-0.5,0-0.9,0.1-1.3,0.2
			c-0.4,0.2-0.7,0.5-0.9,0.8c-0.2,0.4-0.3,0.9-0.3,1.6v4L76.2,70.3L76.2,70.3z"/>
		<path class="st13" d="M85.2,70.5c-0.8,0-1.4-0.2-2-0.5c-0.6-0.4-1-0.8-1.4-1.4c-0.3-0.6-0.5-1.4-0.5-2.2s0.2-1.6,0.5-2.2
			c0.3-0.6,0.8-1.1,1.4-1.5s1.3-0.5,2.1-0.5c0.8,0,1.4,0.2,2,0.5c0.6,0.4,1,0.8,1.3,1.4c0.3,0.6,0.4,1.2,0.4,1.8c0,0.1,0,0.2,0,0.3
			s0,0.2,0,0.4h-6.3c0,0.6,0.2,1.1,0.4,1.5c0.2,0.4,0.6,0.7,0.9,0.9c0.4,0.2,0.8,0.3,1.2,0.3c0.5,0,1-0.1,1.4-0.4s0.6-0.6,0.8-1h1.3
			c-0.2,0.7-0.6,1.4-1.2,1.8C86.9,70.3,86.2,70.5,85.2,70.5z M85.2,63.3c-0.6,0-1.2,0.2-1.7,0.6c-0.5,0.4-0.8,1-0.9,1.7h5
			c0-0.7-0.3-1.3-0.7-1.7C86.5,63.5,85.9,63.3,85.2,63.3z"/>
		<path class="st13" d="M94.4,70.5c-0.8,0-1.5-0.2-2.1-0.5c-0.6-0.4-1.1-0.9-1.4-1.5s-0.5-1.3-0.5-2.1s0.2-1.5,0.5-2.1
			c0.3-0.6,0.8-1.1,1.4-1.5s1.3-0.5,2.1-0.5c0.7,0,1.2,0.1,1.7,0.4c0.5,0.3,0.9,0.6,1.2,1.1v-4.9h1.3v11.5h-1.2l-0.1-1.3
			c-0.3,0.4-0.6,0.7-1.1,1C95.7,70.4,95.1,70.5,94.4,70.5z M94.5,69.4c0.5,0,1-0.1,1.4-0.4c0.4-0.2,0.7-0.6,1-1.1
			c0.2-0.4,0.3-1,0.3-1.6s-0.1-1.1-0.3-1.6c-0.2-0.4-0.6-0.8-1-1s-0.9-0.4-1.4-0.4s-1,0.1-1.4,0.4c-0.4,0.2-0.7,0.6-1,1
			c-0.2,0.5-0.3,1-0.3,1.6s0.1,1.1,0.3,1.6c0.2,0.5,0.5,0.8,1,1.1C93.5,69.2,94,69.4,94.5,69.4z"/>
		<path class="st13" d="M103.7,70.5c-0.9,0-1.7-0.3-2.2-0.9c-0.6-0.6-0.8-1.4-0.8-2.6v-4.6h1.3v4.5c0,1.7,0.7,2.5,2,2.5
			c0.7,0,1.3-0.2,1.7-0.7s0.7-1.2,0.7-2.1v-4.1h1.3v7.9h-1.2l-0.1-1.4c-0.2,0.5-0.6,0.9-1.1,1.2S104.3,70.5,103.7,70.5z"/>
		<path class="st13" d="M113.6,70.5c-0.8,0-1.4-0.2-2-0.5c-0.6-0.4-1.1-0.8-1.4-1.5c-0.3-0.6-0.5-1.3-0.5-2.2s0.2-1.6,0.5-2.2
			c0.4-0.6,0.8-1.1,1.4-1.5s1.3-0.5,2-0.5c0.9,0,1.7,0.2,2.4,0.7c0.6,0.5,1,1.1,1.2,2h-1.4c-0.1-0.5-0.4-0.9-0.8-1.1
			c-0.4-0.3-0.9-0.4-1.5-0.4c-0.4,0-0.9,0.1-1.3,0.3s-0.7,0.6-1,1c-0.2,0.4-0.4,1-0.4,1.7s0.1,1.2,0.4,1.7s0.6,0.8,1,1
			s0.8,0.3,1.3,0.3c0.6,0,1-0.1,1.5-0.4c0.4-0.3,0.7-0.7,0.8-1.2h1.4c-0.2,0.8-0.6,1.4-1.2,1.9C115.3,70.3,114.6,70.5,113.6,70.5z"
			/>
		<path class="st13" d="M119.9,60.6c-0.3,0-0.5-0.1-0.7-0.3s-0.3-0.4-0.3-0.7s0.1-0.5,0.3-0.6c0.2-0.2,0.4-0.3,0.7-0.3
			s0.5,0.1,0.7,0.3s0.3,0.4,0.3,0.6c0,0.3-0.1,0.5-0.3,0.7C120.4,60.6,120.1,60.6,119.9,60.6z M119.2,70.3v-7.9h1.3v7.9H119.2
			L119.2,70.3z"/>
		<path class="st13" d="M122.9,70.3v-7.9h1.2l0.1,1.4c0.3-0.5,0.6-0.9,1.1-1.2s1-0.4,1.6-0.4c0.9,0,1.7,0.3,2.2,0.9
			c0.6,0.6,0.8,1.4,0.8,2.6v4.6h-1.3v-4.5c0-1.6-0.7-2.5-2.1-2.5c-0.7,0-1.2,0.2-1.7,0.7c-0.4,0.5-0.7,1.2-0.7,2.1v4.1L122.9,70.3
			L122.9,70.3z"/>
		<path class="st13" d="M135.2,67.8c-0.4,0-0.9-0.1-1.2-0.2l-0.8,0.8c0.1,0.1,0.3,0.2,0.4,0.2c0.2,0.1,0.4,0.1,0.8,0.2
			c0.3,0.1,0.8,0.1,1.4,0.2c1.1,0.1,1.8,0.3,2.3,0.7s0.7,1,0.7,1.6c0,0.5-0.1,0.9-0.4,1.3c-0.2,0.4-0.6,0.8-1.2,1
			c-0.5,0.3-1.2,0.4-2,0.4c-0.7,0-1.4-0.1-1.9-0.3c-0.6-0.2-1-0.5-1.3-0.8c-0.3-0.4-0.5-0.9-0.5-1.4c0-0.3,0.1-0.6,0.2-1
			c0.2-0.3,0.5-0.7,0.9-1c-0.2-0.1-0.4-0.2-0.6-0.3s-0.3-0.2-0.5-0.4v-0.4l1.4-1.3c-0.6-0.5-0.9-1.2-0.9-2.1c0-0.5,0.1-1,0.4-1.4
			c0.2-0.4,0.6-0.8,1.1-1s1-0.4,1.7-0.4c0.5,0,0.9,0.1,1.2,0.2h2.9v1l-1.5,0.1c0.3,0.4,0.5,1,0.5,1.5s-0.1,1-0.4,1.4
			c-0.2,0.4-0.6,0.8-1.1,1C136.4,67.7,135.9,67.8,135.2,67.8z M132.9,71.4c0,0.5,0.2,0.9,0.7,1.2c0.4,0.3,1,0.4,1.7,0.4
			s1.2-0.1,1.6-0.4c0.4-0.3,0.6-0.7,0.6-1.1c0-0.3-0.1-0.6-0.4-0.9s-0.8-0.4-1.5-0.4c-0.6,0-1.1-0.1-1.5-0.2
			c-0.4,0.2-0.7,0.5-0.9,0.8C132.9,70.9,132.9,71.1,132.9,71.4z M135.2,66.7c0.6,0,1-0.1,1.3-0.4s0.5-0.7,0.5-1.3
			c0-0.5-0.2-1-0.5-1.3c-0.3-0.3-0.8-0.4-1.3-0.4c-0.6,0-1,0.1-1.4,0.4c-0.3,0.3-0.5,0.7-0.5,1.3s0.2,1,0.5,1.3
			C134.2,66.6,134.6,66.7,135.2,66.7z"/>
		<path class="st13" d="M148.2,70.5c-0.9,0-1.7-0.2-2.4-0.7c-0.6-0.5-1-1.1-1.1-1.9h1.4c0.1,0.4,0.3,0.8,0.7,1.1
			c0.3,0.3,0.8,0.5,1.4,0.5c0.6,0,1-0.1,1.2-0.4s0.4-0.5,0.4-0.9c0-0.5-0.2-0.8-0.5-1c-0.4-0.2-0.8-0.3-1.5-0.4
			c-0.4-0.1-0.9-0.2-1.3-0.4c-0.4-0.2-0.8-0.4-1.1-0.7S145,65,145,64.5c0-0.7,0.3-1.3,0.8-1.7s1.2-0.7,2.1-0.7
			c0.8,0,1.5,0.2,2.1,0.6c0.5,0.4,0.9,1,0.9,1.8h-1.3c-0.1-0.4-0.2-0.7-0.5-0.9s-0.7-0.3-1.2-0.3s-0.9,0.1-1.1,0.3
			c-0.3,0.2-0.4,0.5-0.4,0.8s0.2,0.6,0.5,0.8s0.8,0.3,1.4,0.5c0.5,0.1,1,0.2,1.4,0.4c0.4,0.1,0.8,0.4,1.1,0.7s0.4,0.7,0.4,1.3
			c0,0.7-0.3,1.3-0.8,1.8C149.9,70.3,149.1,70.5,148.2,70.5z"/>
		<path class="st13" d="M155.9,70.3c-0.7,0-1.3-0.2-1.7-0.5c-0.4-0.4-0.6-1-0.6-1.9v-4.4h-1.4v-1.1h1.4l0.2-1.9h1.2v1.9h2.3v1.1H155
			v4.4c0,0.5,0.1,0.8,0.3,1s0.6,0.3,1.1,0.3h0.8v1.1H155.9L155.9,70.3z"/>
		<path class="st13" d="M159,70.3v-7.9h1.2l0.1,1.5c0.2-0.5,0.6-0.9,1.1-1.2s1.1-0.5,1.9-0.5v1.4h-0.4c-0.5,0-0.9,0.1-1.3,0.2
			c-0.4,0.2-0.7,0.5-0.9,0.8s-0.3,0.9-0.3,1.6v4L159,70.3L159,70.3z"/>
		<path class="st13" d="M168,70.5c-0.8,0-1.4-0.2-2-0.5c-0.6-0.4-1.1-0.8-1.4-1.4c-0.3-0.6-0.5-1.4-0.5-2.2s0.2-1.6,0.5-2.2
			c0.3-0.6,0.8-1.1,1.4-1.5c0.6-0.4,1.3-0.5,2.1-0.5s1.4,0.2,2,0.5c0.6,0.4,1,0.8,1.3,1.4c0.3,0.6,0.4,1.2,0.4,1.8
			c0,0.1,0,0.2,0,0.3s0,0.2,0,0.4h-6.3c0,0.6,0.2,1.1,0.4,1.5s0.6,0.7,0.9,0.9c0.4,0.2,0.8,0.3,1.2,0.3c0.6,0,1-0.1,1.4-0.4
			s0.7-0.6,0.8-1h1.3c-0.2,0.7-0.6,1.4-1.2,1.8C169.8,70.3,169,70.5,168,70.5z M168,63.3c-0.6,0-1.2,0.2-1.7,0.6
			c-0.5,0.4-0.8,1-0.9,1.7h5c0-0.7-0.3-1.3-0.7-1.7C169.3,63.5,168.7,63.3,168,63.3z"/>
		<path class="st13" d="M176.6,70.5c-0.9,0-1.7-0.2-2.4-0.7s-1-1.1-1.1-1.9h1.4c0.1,0.4,0.3,0.8,0.7,1.1c0.3,0.3,0.8,0.5,1.4,0.5
			c0.6,0,1-0.1,1.2-0.4s0.4-0.5,0.4-0.9c0-0.5-0.2-0.8-0.5-1c-0.4-0.2-0.8-0.3-1.5-0.4c-0.4-0.1-0.8-0.2-1.3-0.4
			c-0.4-0.2-0.8-0.4-1.1-0.7s-0.4-0.7-0.4-1.2c0-0.7,0.3-1.3,0.8-1.7s1.2-0.7,2.1-0.7c0.8,0,1.5,0.2,2.1,0.6c0.5,0.4,0.9,1,0.9,1.8
			H178c-0.1-0.4-0.2-0.7-0.5-0.9s-0.7-0.3-1.2-0.3s-0.9,0.1-1.1,0.3c-0.3,0.2-0.4,0.5-0.4,0.8s0.2,0.6,0.5,0.8s0.8,0.3,1.4,0.5
			c0.5,0.1,1,0.2,1.4,0.4c0.4,0.1,0.8,0.4,1.1,0.7s0.4,0.7,0.4,1.3c0,0.7-0.3,1.3-0.8,1.8C178.3,70.3,177.6,70.5,176.6,70.5z"/>
		<path class="st13" d="M184.6,70.5c-0.9,0-1.7-0.2-2.4-0.7s-1-1.1-1.1-1.9h1.4c0.1,0.4,0.3,0.8,0.7,1.1c0.3,0.3,0.8,0.5,1.4,0.5
			c0.6,0,1-0.1,1.2-0.4s0.4-0.5,0.4-0.9c0-0.5-0.2-0.8-0.5-1c-0.4-0.2-0.8-0.3-1.5-0.4c-0.4-0.1-0.8-0.2-1.3-0.4
			c-0.4-0.2-0.8-0.4-1.1-0.7s-0.4-0.7-0.4-1.2c0-0.7,0.3-1.3,0.8-1.7s1.2-0.7,2.1-0.7c0.8,0,1.5,0.2,2.1,0.6c0.5,0.4,0.9,1,0.9,1.8
			H186c-0.1-0.4-0.2-0.7-0.5-0.9s-0.7-0.3-1.2-0.3s-0.9,0.1-1.1,0.3c-0.3,0.2-0.4,0.5-0.4,0.8s0.2,0.6,0.5,0.8s0.8,0.3,1.4,0.5
			c0.5,0.1,1,0.2,1.4,0.4c0.4,0.1,0.8,0.4,1.1,0.7s0.4,0.7,0.4,1.3c0,0.7-0.3,1.3-0.8,1.8C186.3,70.3,185.6,70.5,184.6,70.5z"/>
		<path class="st13" d="M196.5,70.5c-0.7,0-1.2-0.1-1.7-0.3c-0.4-0.2-0.8-0.5-1-0.9s-0.3-0.8-0.3-1.2c0-0.8,0.3-1.4,0.9-1.9
			s1.5-0.7,2.5-0.7h2.1v-0.1c0-0.7-0.2-1.2-0.5-1.6c-0.4-0.4-0.9-0.5-1.5-0.5c-0.5,0-1,0.1-1.4,0.4c-0.4,0.3-0.6,0.6-0.7,1.1h-1.4
			c0.1-0.6,0.2-1.1,0.6-1.5c0.3-0.4,0.8-0.7,1.3-0.9s1-0.3,1.6-0.3c1.1,0,1.9,0.3,2.5,0.9s0.8,1.4,0.8,2.4v4.9h-1.2l-0.1-1.4
			c-0.2,0.4-0.6,0.8-1,1.1C197.8,70.4,197.2,70.5,196.5,70.5z M196.7,69.4c0.5,0,0.9-0.1,1.3-0.4c0.4-0.3,0.6-0.6,0.8-1
			s0.3-0.9,0.3-1.3l0,0h-2c-0.8,0-1.3,0.1-1.7,0.4c-0.3,0.3-0.5,0.6-0.5,1s0.2,0.8,0.5,1C195.7,69.3,196.1,69.4,196.7,69.4z"/>
		<path class="st13" d="M202.5,70.3v-7.9h1.2l0.1,1.4c0.3-0.5,0.6-0.9,1.1-1.2s1-0.4,1.6-0.4c0.9,0,1.7,0.3,2.2,0.9
			c0.6,0.6,0.8,1.4,0.8,2.6v4.6h-1.3v-4.5c0-1.6-0.7-2.5-2.1-2.5c-0.7,0-1.2,0.2-1.7,0.7c-0.4,0.5-0.7,1.2-0.7,2.1v4.1L202.5,70.3
			L202.5,70.3z"/>
		<path class="st13" d="M215.2,70.5c-0.8,0-1.5-0.2-2.1-0.5s-1.1-0.9-1.4-1.5c-0.3-0.6-0.5-1.3-0.5-2.1s0.2-1.5,0.5-2.1
			c0.3-0.6,0.8-1.1,1.4-1.5s1.3-0.5,2.1-0.5c0.6,0,1.2,0.1,1.7,0.4c0.5,0.3,0.9,0.6,1.2,1.1v-4.9h1.3v11.5h-1.2l-0.1-1.3
			c-0.3,0.4-0.6,0.7-1.1,1C216.6,70.4,215.9,70.5,215.2,70.5z M215.4,69.4c0.5,0,1-0.1,1.4-0.4c0.4-0.2,0.7-0.6,1-1.1
			c0.2-0.4,0.3-1,0.3-1.6s-0.1-1.1-0.3-1.6c-0.2-0.4-0.6-0.8-1-1s-0.9-0.4-1.4-0.4s-1,0.1-1.4,0.4c-0.4,0.3-0.7,0.6-1,1
			c-0.2,0.5-0.3,1-0.3,1.6s0.1,1.1,0.3,1.6s0.6,0.8,1,1.1S214.9,69.4,215.4,69.4z"/>
		<path class="st13" d="M228.6,70.5c-0.7,0-1.2-0.1-1.7-0.3c-0.4-0.2-0.8-0.5-1-0.9s-0.3-0.8-0.3-1.2c0-0.8,0.3-1.4,0.9-1.9
			s1.5-0.7,2.5-0.7h2.1v-0.1c0-0.7-0.2-1.2-0.5-1.6c-0.3-0.4-0.9-0.5-1.5-0.5c-0.5,0-1,0.1-1.3,0.4c-0.4,0.3-0.6,0.6-0.7,1.1h-1.4
			c0.1-0.6,0.2-1.1,0.6-1.5c0.3-0.4,0.8-0.7,1.3-0.9s1-0.3,1.6-0.3c1.1,0,1.9,0.3,2.5,0.9s0.8,1.4,0.8,2.4v4.9h-1.2l-0.1-1.4
			c-0.2,0.4-0.5,0.8-1,1.1C229.9,70.4,229.3,70.5,228.6,70.5z M228.8,69.4c0.5,0,1-0.1,1.3-0.4c0.4-0.3,0.6-0.6,0.8-1
			s0.3-0.9,0.3-1.3l0,0h-2c-0.8,0-1.3,0.1-1.7,0.4c-0.3,0.3-0.5,0.6-0.5,1s0.1,0.8,0.5,1C227.8,69.3,228.2,69.4,228.8,69.4z"/>
		<path class="st13" d="M234.6,70.3v-7.9h1.2l0.1,1.4c0.3-0.5,0.6-0.9,1.1-1.2s1-0.4,1.6-0.4c0.9,0,1.7,0.3,2.2,0.9
			c0.6,0.6,0.8,1.4,0.8,2.6v4.6h-1.3v-4.5c0-1.6-0.7-2.5-2.1-2.5c-0.7,0-1.2,0.2-1.7,0.7s-0.7,1.2-0.7,2.1v4.1L234.6,70.3
			L234.6,70.3z"/>
		<path class="st13" d="M242.9,70.3l2.8-4l-2.8-4h1.5l2.2,3.3l2.2-3.3h1.4l-2.8,4l2.8,4h-1.4l-2.2-3.3l-2.2,3.3H242.9z"/>
		<path class="st13" d="M252.5,60.6c-0.3,0-0.5-0.1-0.7-0.3s-0.3-0.4-0.3-0.7s0.1-0.5,0.3-0.6c0.2-0.2,0.4-0.3,0.7-0.3
			s0.5,0.1,0.7,0.3s0.3,0.4,0.3,0.6c0,0.3-0.1,0.5-0.3,0.7S252.8,60.6,252.5,60.6z M251.8,70.3v-7.9h1.3v7.9H251.8L251.8,70.3z"/>
		<path class="st13" d="M259.1,70.5c-0.8,0-1.4-0.2-2-0.5s-1-0.8-1.4-1.4c-0.3-0.6-0.5-1.4-0.5-2.2s0.2-1.6,0.5-2.2
			c0.3-0.6,0.8-1.1,1.4-1.5s1.3-0.5,2.1-0.5c0.8,0,1.4,0.2,2,0.5c0.6,0.4,1,0.8,1.3,1.4c0.3,0.6,0.5,1.2,0.5,1.8c0,0.1,0,0.2,0,0.3
			s0,0.2,0,0.4h-6.3c0,0.6,0.2,1.1,0.4,1.5c0.2,0.4,0.6,0.7,0.9,0.9c0.4,0.2,0.8,0.3,1.2,0.3c0.6,0,1-0.1,1.4-0.4s0.6-0.6,0.8-1h1.3
			c-0.2,0.7-0.6,1.4-1.2,1.8C260.8,70.3,260,70.5,259.1,70.5z M259.1,63.3c-0.6,0-1.2,0.2-1.7,0.6c-0.5,0.4-0.8,1-0.9,1.7h5
			c0-0.7-0.3-1.3-0.7-1.7C260.3,63.5,259.8,63.3,259.1,63.3z"/>
		<path class="st13" d="M267.5,70.3c-0.7,0-1.3-0.2-1.7-0.5c-0.4-0.4-0.6-1-0.6-1.9v-4.4h-1.4v-1.1h1.4l0.2-1.9h1.2v1.9h2.3v1.1
			h-2.3v4.4c0,0.5,0.1,0.8,0.3,1c0.2,0.2,0.6,0.3,1.1,0.3h0.8v1.1H267.5L267.5,70.3z"/>
		<path class="st13" d="M271.4,73.9l2-4.3h-0.5l-3.1-7.2h1.5l2.6,6.2l2.8-6.2h1.4l-5.2,11.5C272.9,73.9,271.4,73.9,271.4,73.9z"/>
		<path class="st13" d="M277.4,72.2l0.9-3.5h1.4l-1.4,3.5H277.4z"/>
		<path class="st13" d="M29.7,92.5c-0.7,0-1.2-0.1-1.6-0.3c-0.4-0.2-0.8-0.5-1-0.9s-0.3-0.8-0.3-1.2c0-0.8,0.3-1.4,0.9-1.9
			c0.6-0.4,1.5-0.7,2.5-0.7h2.1v-0.1c0-0.7-0.2-1.2-0.5-1.6s-0.8-0.5-1.5-0.5c-0.5,0-1,0.1-1.4,0.4s-0.6,0.6-0.7,1.1h-1.4
			c0.1-0.6,0.2-1.1,0.6-1.5c0.3-0.4,0.8-0.7,1.3-0.9s1-0.3,1.6-0.3c1.1,0,1.9,0.3,2.5,0.9s0.8,1.4,0.8,2.4v4.9h-1.2l-0.1-1.4
			c-0.2,0.4-0.5,0.8-1,1.1C31,92.4,30.4,92.5,29.7,92.5z M29.9,91.4c0.5,0,1-0.1,1.3-0.4c0.4-0.3,0.6-0.6,0.8-1s0.3-0.9,0.3-1.3l0,0
			h-2c-0.8,0-1.3,0.1-1.7,0.4c-0.3,0.3-0.5,0.6-0.5,1s0.2,0.8,0.5,1C28.9,91.3,29.4,91.4,29.9,91.4z"/>
		<path class="st13" d="M35.7,92.3v-7.9h1.2l0.1,1.4c0.3-0.5,0.6-0.9,1.1-1.2s1-0.4,1.6-0.4c0.9,0,1.7,0.3,2.2,0.9
			c0.6,0.6,0.8,1.4,0.8,2.6v4.6h-1.3v-4.5c0-1.6-0.7-2.5-2-2.5c-0.7,0-1.2,0.2-1.7,0.7S37,87.2,37,88.1v4.1L35.7,92.3L35.7,92.3z"/>
		<path class="st13" d="M48.5,92.5c-0.8,0-1.5-0.2-2.1-0.5c-0.6-0.4-1.1-0.9-1.4-1.5s-0.5-1.3-0.5-2.1s0.2-1.5,0.5-2.1
			s0.8-1.1,1.4-1.5s1.3-0.5,2.1-0.5c0.7,0,1.2,0.1,1.7,0.4s0.9,0.6,1.2,1.1v-4.9h1.3v11.5h-1.2l-0.1-1.3c-0.3,0.4-0.6,0.7-1.1,1
			S49.2,92.5,48.5,92.5z M48.6,91.4c0.5,0,1-0.1,1.4-0.4c0.4-0.2,0.7-0.6,1-1.1c0.2-0.4,0.3-1,0.3-1.6s-0.1-1.1-0.3-1.6
			c-0.2-0.4-0.6-0.8-1-1s-0.9-0.4-1.4-0.4s-1,0.1-1.4,0.4c-0.4,0.2-0.7,0.6-1,1c-0.2,0.5-0.3,1-0.3,1.6s0.1,1.1,0.3,1.6
			s0.5,0.8,1,1.1C47.6,91.2,48.1,91.4,48.6,91.4z"/>
		<path class="st13" d="M60,82.6c-0.3,0-0.5-0.1-0.7-0.3S59,81.9,59,81.6s0.1-0.5,0.3-0.6c0.2-0.2,0.4-0.3,0.7-0.3
			c0.3,0,0.5,0.1,0.7,0.3s0.3,0.4,0.3,0.6c0,0.3-0.1,0.5-0.3,0.7C60.4,82.6,60.2,82.6,60,82.6z M59.3,92.3v-7.9h1.3v7.9H59.3
			L59.3,92.3z"/>
		<path class="st13" d="M63,92.3v-7.9h1.2l0.1,1.2c0.3-0.4,0.6-0.8,1-1s0.9-0.3,1.4-0.3c0.6,0,1.2,0.1,1.6,0.4s0.8,0.7,1.1,1.2
			c0.3-0.5,0.7-0.9,1.1-1.1c0.5-0.3,1-0.4,1.6-0.4c0.9,0,1.7,0.3,2.3,0.9c0.6,0.6,0.8,1.4,0.8,2.6v4.6h-1.3V88
			c0-0.8-0.2-1.4-0.5-1.9c-0.3-0.4-0.8-0.6-1.4-0.6s-1.2,0.2-1.6,0.7s-0.6,1.2-0.6,2.1v4.1h-1.3v-4.5c0-0.8-0.2-1.4-0.5-1.9
			c-0.3-0.4-0.8-0.6-1.4-0.6s-1.2,0.2-1.6,0.7s-0.6,1.2-0.6,2.1v4.1L63,92.3L63,92.3z"/>
		<path class="st13" d="M77.3,95.9V84.4h1.2l0.1,1.3c0.3-0.4,0.6-0.7,1.1-1s1.1-0.5,1.8-0.5c0.8,0,1.5,0.2,2.1,0.5
			c0.6,0.4,1,0.9,1.4,1.5c0.3,0.6,0.5,1.3,0.5,2.1s-0.2,1.5-0.5,2.1s-0.8,1.1-1.4,1.5s-1.3,0.5-2.1,0.5c-0.6,0-1.2-0.1-1.7-0.4
			s-0.9-0.6-1.2-1.1v4.9L77.3,95.9L77.3,95.9z M81.4,91.4c0.5,0,1-0.1,1.4-0.4c0.4-0.2,0.7-0.6,1-1.1c0.2-0.4,0.4-1,0.4-1.6
			s-0.1-1.1-0.4-1.6c-0.2-0.4-0.5-0.8-1-1c-0.4-0.2-0.9-0.4-1.4-0.4s-1,0.1-1.4,0.4c-0.4,0.2-0.7,0.6-1,1c-0.2,0.5-0.3,1-0.3,1.6
			s0.1,1.1,0.3,1.6c0.2,0.5,0.6,0.8,1,1.1C80.4,91.2,80.9,91.4,81.4,91.4z"/>
		<path class="st13" d="M87.4,92.3v-7.9h1.2l0.1,1.5c0.2-0.5,0.6-0.9,1.1-1.2s1.1-0.5,1.9-0.5v1.4h-0.4c-0.5,0-0.9,0.1-1.3,0.2
			c-0.4,0.2-0.7,0.5-0.9,0.8c-0.2,0.4-0.3,0.9-0.3,1.6v4L87.4,92.3L87.4,92.3z"/>
		<path class="st13" d="M96.5,92.5c-0.8,0-1.4-0.2-2-0.5s-1.1-0.8-1.4-1.4s-0.5-1.4-0.5-2.2s0.2-1.6,0.5-2.2s0.8-1.1,1.4-1.4
			s1.3-0.5,2-0.5s1.4,0.2,2,0.5s1.1,0.8,1.4,1.4s0.5,1.4,0.5,2.2s-0.2,1.6-0.5,2.2s-0.8,1.1-1.4,1.4C97.9,92.4,97.2,92.5,96.5,92.5z
			 M96.5,91.4c0.5,0,0.9-0.1,1.3-0.3s0.7-0.6,1-1s0.4-1,0.4-1.7s-0.1-1.2-0.4-1.7c-0.2-0.4-0.6-0.8-1-1s-0.8-0.3-1.3-0.3
			s-0.9,0.1-1.3,0.3s-0.7,0.6-1,1s-0.4,1-0.4,1.7s0.1,1.2,0.4,1.7s0.6,0.8,1,1C95.6,91.3,96,91.4,96.5,91.4z"/>
		<path class="st13" d="M104.2,92.3l-3-7.9h1.4L105,91l2.4-6.6h1.4l-3,7.9H104.2z"/>
		<path class="st13" d="M111.1,82.6c-0.3,0-0.5-0.1-0.7-0.3s-0.3-0.4-0.3-0.7s0.1-0.5,0.3-0.6c0.2-0.2,0.4-0.3,0.7-0.3
			s0.5,0.1,0.7,0.3s0.3,0.4,0.3,0.6c0,0.3-0.1,0.5-0.3,0.7C111.6,82.6,111.3,82.6,111.1,82.6z M110.4,92.3v-7.9h1.3v7.9H110.4
			L110.4,92.3z"/>
		<path class="st13" d="M114.1,92.3v-7.9h1.2l0.1,1.4c0.3-0.5,0.6-0.9,1.1-1.2s1-0.4,1.6-0.4c0.9,0,1.7,0.3,2.2,0.9
			c0.6,0.6,0.8,1.4,0.8,2.6v4.6h-1.3v-4.5c0-1.6-0.7-2.5-2-2.5c-0.7,0-1.2,0.2-1.7,0.7c-0.4,0.5-0.7,1.2-0.7,2.1v4.1L114.1,92.3
			L114.1,92.3z"/>
		<path class="st13" d="M126.4,89.8c-0.5,0-0.9-0.1-1.2-0.2l-0.8,0.8c0.1,0.1,0.3,0.2,0.4,0.2c0.2,0.1,0.4,0.1,0.8,0.2
			c0.3,0.1,0.8,0.1,1.4,0.2c1.1,0.1,1.8,0.3,2.3,0.7s0.7,1,0.7,1.6c0,0.5-0.1,0.9-0.4,1.3c-0.2,0.4-0.6,0.8-1.1,1
			c-0.5,0.3-1.2,0.4-2,0.4c-0.7,0-1.3-0.1-1.9-0.3c-0.6-0.2-1-0.5-1.3-0.8c-0.3-0.4-0.5-0.9-0.5-1.4c0-0.3,0.1-0.6,0.2-1
			c0.2-0.3,0.5-0.7,0.9-1c-0.2-0.1-0.4-0.2-0.6-0.3s-0.3-0.2-0.5-0.4v-0.4l1.4-1.3c-0.6-0.5-0.9-1.2-0.9-2.1c0-0.5,0.1-1,0.4-1.4
			c0.2-0.4,0.6-0.8,1.1-1s1-0.4,1.7-0.4c0.5,0,0.9,0.1,1.2,0.2h2.9v1l-1.5,0.1c0.3,0.4,0.5,1,0.5,1.5s-0.1,1-0.4,1.4
			c-0.2,0.4-0.6,0.8-1.1,1C127.6,89.7,127.1,89.8,126.4,89.8z M124,93.4c0,0.5,0.2,0.9,0.7,1.2c0.4,0.3,1,0.4,1.7,0.4
			s1.2-0.1,1.6-0.4c0.4-0.3,0.6-0.7,0.6-1.1c0-0.3-0.1-0.6-0.4-0.9s-0.8-0.4-1.5-0.4c-0.6,0-1.1-0.1-1.5-0.2
			c-0.4,0.2-0.7,0.5-0.9,0.8C124.1,92.9,124,93.1,124,93.4z M126.4,88.7c0.6,0,1-0.1,1.3-0.4s0.5-0.7,0.5-1.3c0-0.5-0.2-1-0.5-1.3
			s-0.8-0.4-1.3-0.4c-0.6,0-1,0.1-1.4,0.4c-0.3,0.3-0.5,0.7-0.5,1.3s0.2,1,0.5,1.3C125.4,88.6,125.8,88.7,126.4,88.7z"/>
		<path class="st12" d="M40.3,107.7c0.4-0.2,0.8-0.2,1.2-0.2c0.9,0,1.5,0.3,1.8,0.9c0.3,0.4,0.5,1.8,0.8,4.2c0.3,2.5,0.4,5.1,0.5,8
			c0,0.9,0.1,2.3,0.2,4s0.2,3.2,0.2,4.5s0.1,2.3,0.1,3c0,0.4-0.2,0.8-0.8,1.1c-0.5,0.3-1,0.4-1.6,0.4c-0.5,0-0.9-0.1-1.1-0.3
			l-0.7-0.5l-0.1-6c-0.2-6.9-0.5-10.4-0.9-10.4c-0.2,0-0.6,0.9-1.1,2.6c-0.3,1-0.6,1.6-0.9,2c-0.3,0.4-0.7,0.6-1.2,0.6
			c-0.4,0-0.8-0.1-1.3-0.3c-0.6-0.2-1-0.8-1.4-1.5c-0.4-0.9-0.6-1.3-0.6-1.4s-0.1-0.3-0.3-0.7s-0.4-0.7-0.6-0.9
			c-0.2-0.3-0.3-0.4-0.4-0.4v0.6c0,1.4,0,3.6,0.2,6.4l0.2,6.9l-0.7,1c-0.7,1.1-1.3,1.7-1.8,1.7c-0.3,0-0.6-0.2-0.9-0.8
			c-0.3-0.4-0.4-1-0.5-1.8s-0.2-3.3-0.2-7.5c-0.2-7.7-0.4-12.1-0.6-13.1c0-0.1,0-0.3,0-0.6c0-0.4,0.2-0.7,0.5-1.1
			c0.4-0.4,0.9-0.6,1.4-0.6s1.2,0.1,1.9,0.4s1.2,0.7,1.5,1.2c0.4,0.5,1.2,2,2.5,4.4c0.3,0.6,0.6,1,0.8,1s0.3-0.2,0.5-0.7
			c0.2-0.6,0.5-1.2,0.9-2c0.5-1,0.7-1.5,0.7-1.6c0-0.3,0.2-0.8,0.6-1.5S40.1,107.8,40.3,107.7z"/>
		<path class="st12" d="M52.5,107.8l0.9-1.1h6.2l1,1c0.6,0.6,1.1,1.4,1.3,2.4c0.3,1,0.5,2.5,0.7,4.5c0.1,0.8,0.1,1.9,0.1,3.3
			c0,3.4-0.3,6.5-0.9,9.2c-0.6,2.8-1.5,4.7-2.5,5.7c-0.3,0.3-0.8,0.6-1.4,0.8s-1.2,0.4-1.6,0.4c-0.2,0-0.4,0-0.5-0.1
			c-0.3-0.2-0.6-0.2-1-0.2c-0.3,0-0.7-0.3-1.1-0.8c-0.4-0.6-0.8-1.2-1-2c-0.5-1.3-0.8-2.7-0.9-4.2c-0.2-1.5-0.2-4-0.3-7.4V117
			c0-3.1,0.1-5.2,0.2-6.3C51.6,109.4,52,108.5,52.5,107.8z M57.2,110.1c-0.3-0.6-0.6-0.9-0.8-0.9s-0.5,0.5-0.9,1.5
			c-0.3,0.8-0.4,2.3-0.4,4.6c0,1.8,0.1,3.7,0.2,5.7c0.1,1.9,0.3,3.7,0.7,5.3c0.3,1.7,0.6,2.5,0.8,2.5s0.3-0.4,0.5-1.1
			c0.2-0.6,0.3-1.1,0.5-1.5c0.1-0.2,0.2-1.7,0.5-4.4c0.1-1.4,0.2-2.7,0.2-3.9C58.4,114.3,58,111.7,57.2,110.1z"/>
		<path class="st12" d="M70.1,107.8l0.9-1.1h6.2l1,1c0.6,0.6,1.1,1.4,1.3,2.4c0.3,1,0.5,2.5,0.7,4.5c0.1,0.8,0.1,1.9,0.1,3.3
			c0,3.4-0.3,6.5-0.9,9.2c-0.6,2.8-1.5,4.7-2.5,5.7c-0.3,0.3-0.8,0.6-1.4,0.8s-1.2,0.4-1.6,0.4c-0.2,0-0.4,0-0.5-0.1
			c-0.3-0.2-0.6-0.2-1-0.2c-0.3,0-0.7-0.3-1.1-0.8c-0.4-0.6-0.8-1.2-1-2c-0.5-1.3-0.8-2.7-0.9-4.2c-0.2-1.5-0.2-4-0.3-7.4V117
			c0-3.1,0.1-5.2,0.2-6.3C69.2,109.4,69.6,108.5,70.1,107.8z M74.8,110.1c-0.3-0.6-0.5-0.9-0.8-0.9c-0.2,0-0.5,0.5-0.8,1.5
			c-0.3,0.8-0.4,2.3-0.4,4.6c0,1.8,0.1,3.7,0.2,5.7c0.1,1.9,0.3,3.7,0.7,5.3c0.3,1.7,0.6,2.5,0.8,2.5c0.2,0,0.3-0.4,0.5-1.1
			c0.2-0.6,0.3-1.1,0.5-1.5c0.1-0.2,0.2-1.7,0.5-4.4c0.1-1.4,0.1-2.7,0.1-3.9C76.1,114.3,75.6,111.7,74.8,110.1z"/>
		<path class="st12" d="M87.2,108.4c0.2,0,1-0.1,2.5-0.1c1.7,0,3,0.4,3.9,1.1s1.6,2,2.1,3.9c0.5,1.8,0.8,3.9,0.8,6.2
			c0,0.5,0,1-0.1,1.6c-0.1,0.5-0.2,1.2-0.3,2.2c-0.1,1-0.3,1.9-0.4,2.7s-0.3,1.3-0.5,1.7c-0.2,0.3-0.2,0.6-0.2,0.9
			c0,0.2-0.2,0.7-0.5,1.4s-0.6,1.2-0.8,1.5c-0.4,0.5-1,0.9-1.7,1.3c-0.8,0.4-1.5,0.6-2.2,0.7c-0.6,0.1-0.9,0.1-1,0.1
			c-0.4,0-0.8-0.2-1.1-0.6l-0.7-0.7l0.1-8.4v-2.5c0-4.1-0.1-6.4-0.2-6.8c-0.2-1.4-0.3-2.5-0.3-3.5C86.3,109.4,86.7,108.5,87.2,108.4
			z M91.9,114.4c-0.5-1.8-0.9-2.6-1.2-2.6l-0.1,0.1l-0.1,0.1c0,0.1,0,0.2,0,0.3s0,0.3,0,0.4c0,0.4,0,1.4,0.1,2.8
			c0.1,1.7,0.2,4,0.2,6.9c0,2.8,0.2,4.1,0.4,4.1c0.1,0,0.2-0.2,0.3-0.7c0.6-2.1,0.9-4.3,0.9-6.8C92.5,117.4,92.3,115.8,91.9,114.4z"
			/>
		<path class="st12" d="M103.2,128.1c0.4-0.4,0.7-0.5,1-0.5c0.1,0,0.3,0,0.8,0.1c1.3,0.3,2,0.8,2,1.5c0,0.6-0.4,1.1-1.2,1.6
			c-0.7,0.4-1.2,0.6-1.6,0.6c-0.7,0-1.1-0.6-1.3-1.7c0-0.2-0.1-0.4-0.1-0.7C102.7,128.8,102.8,128.4,103.2,128.1z"/>
	</g>
</g>
</svg>
