<?xml version="1.0" encoding="utf-8"?>
<!-- Generator: Adobe Illustrator 25.1.0, SVG Export Plug-In . SVG Version: 6.00 Build 0)  -->
<svg version="1.1" id="Layer_1" xmlns="http://www.w3.org/2000/svg" xmlns:xlink="http://www.w3.org/1999/xlink" x="0px" y="0px"
	 viewBox="0 0 336 205.5" style="enable-background:new 0 0 336 205.5;" xml:space="preserve">
<style type="text/css">
	.st0{fill:#FFFFFF;}
	.st1{fill:#808080;}
	.st2{fill:#32DCD2;}
	.st3{fill:#FF9F1A;}
	.st4{fill:none;stroke:#FFFFFF;stroke-linecap:round;stroke-miterlimit:10;}
</style>
<g>
	<g>
		<path class="st0" d="M333.4,172.4c0-73.3,14.5-157.4-25.2-166.7C285,0.3,5-8.2,3.6,18.2C3,29.6-12.6,185.7,26.5,198.6
			c36.5,12.1,169.7,4.6,213.1,4.1C284.5,202.3,333.4,204.4,333.4,172.4z"/>
		<path class="st1" d="M34.4,48.1V36.9h3.7c0.9,0,1.6,0.1,2.2,0.4c0.6,0.3,1,0.7,1.3,1.2s0.4,1,0.4,1.7c0,0.6-0.1,1.2-0.4,1.6
			s-0.7,0.9-1.2,1.2c-0.6,0.3-1.3,0.4-2.2,0.4h-2.3v4.7L34.4,48.1L34.4,48.1z M35.7,42.3H38c0.9,0,1.5-0.2,1.9-0.6s0.6-0.9,0.6-1.6
			s-0.2-1.2-0.6-1.6c-0.4-0.4-1-0.6-1.9-0.6h-2.3V42.3z"/>
		<path class="st1" d="M43.6,48.1v-7.9h1.2l0.1,1.5c0.2-0.5,0.6-0.9,1.1-1.2s1.1-0.5,1.9-0.5v1.4h-0.4c-0.5,0-0.9,0.1-1.3,0.2
			c-0.4,0.2-0.7,0.4-0.9,0.8S45,43.3,45,44v4L43.6,48.1L43.6,48.1L43.6,48.1z"/>
		<path class="st1" d="M52,48.3c-0.7,0-1.2-0.1-1.6-0.3c-0.4-0.2-0.8-0.5-1-0.9s-0.3-0.8-0.3-1.2c0-0.8,0.3-1.4,0.9-1.9
			s1.5-0.7,2.5-0.7h2.1v-0.1c0-0.7-0.2-1.2-0.5-1.6c-0.4-0.4-0.8-0.5-1.5-0.5c-0.5,0-1,0.1-1.3,0.4s-0.6,0.6-0.7,1.1h-1.4
			c0.1-0.6,0.2-1.1,0.6-1.5c0.3-0.4,0.8-0.7,1.3-0.9s1-0.3,1.6-0.3c1.1,0,1.9,0.3,2.5,0.9s0.8,1.4,0.8,2.4v4.9h-1.2l-0.1-1.4
			c-0.2,0.5-0.5,0.8-1,1.1C53.3,48.1,52.7,48.3,52,48.3z M52.2,47.2c0.5,0,1-0.1,1.3-0.4c0.4-0.3,0.7-0.6,0.8-1s0.3-0.9,0.3-1.3l0,0
			h-2c-0.8,0-1.4,0.1-1.7,0.4s-0.5,0.6-0.5,1s0.2,0.8,0.5,1C51.2,47,51.7,47.2,52.2,47.2z"/>
		<path class="st1" d="M61.7,48.3c-0.8,0-1.4-0.2-2-0.5s-1.1-0.8-1.4-1.5c-0.3-0.6-0.5-1.4-0.5-2.2s0.2-1.6,0.5-2.2s0.8-1.1,1.4-1.5
			s1.3-0.5,2-0.5c0.9,0,1.7,0.2,2.4,0.7s1.1,1.1,1.2,2h-1.4c-0.1-0.5-0.4-0.9-0.8-1.1c-0.4-0.3-0.9-0.4-1.5-0.4
			c-0.4,0-0.9,0.1-1.3,0.3c-0.4,0.2-0.7,0.6-1,1c-0.2,0.4-0.4,1-0.4,1.7s0.1,1.2,0.4,1.7s0.6,0.8,1,1s0.8,0.3,1.3,0.3
			c0.6,0,1-0.1,1.5-0.4c0.4-0.3,0.7-0.7,0.8-1.2h1.4c-0.2,0.8-0.6,1.5-1.2,2C63.5,48,62.6,48.3,61.7,48.3z"/>
		<path class="st1" d="M70.1,48.1c-0.7,0-1.3-0.2-1.7-0.5c-0.4-0.4-0.6-1-0.6-1.9v-4.4h-1.4v-1.1h1.4l0.2-1.9h1.2v1.9h2.2v1.1h-2.3
			v4.4c0,0.5,0.1,0.8,0.3,1S70,47,70.5,47h0.8v1.1H70.1z"/>
		<path class="st1" d="M73.9,38.4c-0.3,0-0.5-0.1-0.7-0.3s-0.3-0.4-0.3-0.7s0.1-0.5,0.3-0.6c0.2-0.2,0.4-0.3,0.7-0.3
			c0.3,0,0.5,0.1,0.7,0.3s0.3,0.4,0.3,0.6c0,0.3-0.1,0.5-0.3,0.7C74.4,38.3,74.2,38.4,73.9,38.4z M73.3,48.1v-7.9h1.3v7.9H73.3z"/>
		<path class="st1" d="M80,48.3c-0.9,0-1.7-0.2-2.4-0.7c-0.6-0.5-1-1.1-1.1-2h1.4c0.1,0.4,0.3,0.8,0.7,1.1c0.3,0.3,0.8,0.5,1.5,0.5
			c0.6,0,1-0.1,1.2-0.4c0.3-0.2,0.4-0.5,0.4-0.9c0-0.5-0.2-0.8-0.5-1s-0.8-0.3-1.5-0.4c-0.4-0.1-0.8-0.2-1.3-0.4s-0.8-0.4-1.1-0.7
			s-0.4-0.7-0.4-1.2c0-0.7,0.3-1.3,0.8-1.7s1.2-0.7,2.1-0.7c0.8,0,1.5,0.2,2.1,0.6c0.5,0.4,0.8,1,0.9,1.8h-1.4
			c-0.1-0.4-0.2-0.7-0.5-1c-0.3-0.2-0.7-0.3-1.2-0.3s-0.9,0.1-1.1,0.3c-0.3,0.2-0.4,0.5-0.4,0.8s0.2,0.6,0.5,0.8s0.8,0.3,1.4,0.5
			c0.5,0.1,1,0.2,1.4,0.4c0.4,0.1,0.8,0.4,1.1,0.7c0.3,0.3,0.4,0.7,0.4,1.3c0,0.7-0.3,1.3-0.8,1.8C81.6,48,80.9,48.3,80,48.3z"/>
		<path class="st1" d="M85.7,38.4c-0.3,0-0.5-0.1-0.7-0.3s-0.3-0.4-0.3-0.7s0.1-0.5,0.3-0.6c0.2-0.2,0.4-0.3,0.7-0.3
			c0.3,0,0.5,0.1,0.7,0.3s0.3,0.4,0.3,0.6c0,0.3-0.1,0.5-0.3,0.7C86.2,38.3,86,38.4,85.7,38.4z M85.1,48.1v-7.9h1.3v7.9H85.1z"/>
		<path class="st1" d="M88.7,48.1v-7.9h1.2l0.1,1.4c0.3-0.5,0.6-0.9,1.1-1.2s1-0.4,1.6-0.4c0.9,0,1.7,0.3,2.2,0.9
			c0.6,0.6,0.8,1.5,0.8,2.6v4.6h-1.3v-4.5c0-1.6-0.7-2.5-2-2.5c-0.7,0-1.2,0.2-1.7,0.7C90.3,42.3,90,43,90,43.9V48L88.7,48.1
			L88.7,48.1z"/>
		<path class="st1" d="M101,45.6c-0.4,0-0.9-0.1-1.2-0.2L99,46.2c0.1,0.1,0.3,0.2,0.4,0.2c0.2,0.1,0.4,0.1,0.8,0.2
			c0.3,0.1,0.8,0.1,1.4,0.2c1.1,0.1,1.8,0.3,2.3,0.7s0.7,1,0.7,1.6c0,0.5-0.1,0.9-0.4,1.3c-0.2,0.4-0.6,0.8-1.2,1
			c-0.5,0.3-1.2,0.4-2,0.4c-0.7,0-1.4-0.1-1.9-0.3c-0.6-0.2-1-0.5-1.3-0.9s-0.5-0.9-0.5-1.4c0-0.3,0.1-0.6,0.2-1
			c0.2-0.4,0.5-0.7,0.9-1c-0.2-0.1-0.4-0.2-0.6-0.3s-0.3-0.2-0.5-0.4v-0.4l1.4-1.3c-0.6-0.5-0.9-1.2-0.9-2.1c0-0.5,0.1-1,0.4-1.4
			c0.2-0.4,0.6-0.8,1.1-1s1-0.4,1.7-0.4c0.5,0,0.9,0.1,1.2,0.2h2.9v1l-1.5,0.1c0.3,0.4,0.5,1,0.5,1.5s-0.1,1-0.4,1.4
			c-0.2,0.4-0.6,0.8-1.1,1C102.3,45.5,101.7,45.6,101,45.6z M98.7,49.1c0,0.5,0.2,0.9,0.7,1.2c0.4,0.3,1,0.4,1.7,0.4
			s1.2-0.1,1.6-0.4s0.6-0.7,0.6-1.1c0-0.3-0.1-0.6-0.4-0.9s-0.8-0.4-1.5-0.4c-0.6,0-1.1-0.1-1.5-0.2c-0.4,0.2-0.7,0.5-0.9,0.8
			C98.8,48.7,98.7,48.9,98.7,49.1z M101,44.5c0.6,0,1-0.1,1.3-0.4s0.5-0.7,0.5-1.3c0-0.5-0.2-1-0.5-1.3s-0.8-0.4-1.3-0.4
			c-0.6,0-1,0.1-1.4,0.4c-0.3,0.3-0.5,0.7-0.5,1.3c0,0.5,0.2,1,0.5,1.3C100,44.3,100.5,44.5,101,44.5z"/>
		<path class="st1" d="M114,48.3c-0.9,0-1.7-0.2-2.4-0.7c-0.6-0.5-1-1.1-1.1-2h1.4c0.1,0.4,0.3,0.8,0.7,1.1c0.4,0.3,0.8,0.5,1.5,0.5
			c0.6,0,1-0.1,1.2-0.4c0.3-0.2,0.4-0.5,0.4-0.9c0-0.5-0.2-0.8-0.5-1s-0.8-0.3-1.5-0.4c-0.4-0.1-0.9-0.2-1.3-0.4s-0.8-0.4-1.1-0.7
			c-0.3-0.3-0.4-0.7-0.4-1.2c0-0.7,0.3-1.3,0.8-1.7s1.2-0.7,2.1-0.7c0.8,0,1.5,0.2,2.1,0.6c0.5,0.4,0.9,1,0.9,1.8h-1.3
			c-0.1-0.4-0.2-0.7-0.5-1c-0.3-0.2-0.7-0.3-1.2-0.3s-0.9,0.1-1.1,0.3c-0.3,0.2-0.4,0.5-0.4,0.8s0.2,0.6,0.5,0.8s0.8,0.3,1.4,0.5
			c0.5,0.1,1,0.2,1.4,0.4c0.4,0.1,0.8,0.4,1.1,0.7c0.3,0.3,0.4,0.7,0.4,1.3c0,0.7-0.3,1.3-0.8,1.8C115.7,48,115,48.3,114,48.3z"/>
		<path class="st1" d="M119,48.1V36.6h1.3v11.5H119z"/>
		<path class="st1" d="M126.1,48.3c-0.8,0-1.4-0.2-2-0.5s-1.1-0.8-1.4-1.4s-0.5-1.4-0.5-2.2s0.2-1.6,0.5-2.2s0.8-1.1,1.4-1.5
			s1.3-0.5,2.1-0.5s1.4,0.2,2,0.5c0.6,0.3,1,0.8,1.3,1.4s0.5,1.2,0.5,1.8c0,0.1,0,0.2,0,0.4c0,0.1,0,0.2,0,0.4h-6.3
			c0,0.6,0.2,1.1,0.4,1.5s0.6,0.7,0.9,0.9c0.4,0.2,0.8,0.3,1.2,0.3c0.6,0,1-0.1,1.4-0.4s0.6-0.6,0.8-1h1.3c-0.2,0.7-0.6,1.4-1.2,1.8
			C127.8,48,127,48.3,126.1,48.3z M126.1,41.1c-0.6,0-1.2,0.2-1.7,0.6s-0.8,1-0.9,1.7h5c0-0.7-0.3-1.3-0.7-1.7
			C127.3,41.3,126.8,41.1,126.1,41.1z"/>
		<path class="st1" d="M135.2,48.3c-0.8,0-1.4-0.2-2-0.5s-1.1-0.8-1.4-1.4c-0.3-0.6-0.5-1.4-0.5-2.2s0.2-1.6,0.5-2.2
			s0.8-1.1,1.4-1.5s1.3-0.5,2.1-0.5s1.4,0.2,2,0.5s1,0.8,1.3,1.4s0.5,1.2,0.5,1.8c0,0.1,0,0.2,0,0.4c0,0.1,0,0.2,0,0.4h-6.3
			c0,0.6,0.2,1.1,0.4,1.5s0.6,0.7,0.9,0.9c0.4,0.2,0.8,0.3,1.2,0.3c0.6,0,1-0.1,1.4-0.4s0.6-0.6,0.8-1h1.3c-0.2,0.7-0.6,1.4-1.2,1.8
			C136.9,48,136.1,48.3,135.2,48.3z M135.2,41.1c-0.6,0-1.2,0.2-1.7,0.6s-0.8,1-0.9,1.7h5c0-0.7-0.3-1.3-0.7-1.7
			C136.4,41.3,135.9,41.1,135.2,41.1z"/>
		<path class="st1" d="M140.7,51.6V40.1h1.2l0.1,1.3c0.3-0.4,0.6-0.7,1.1-1s1.1-0.5,1.8-0.5c0.8,0,1.5,0.2,2.1,0.5
			c0.6,0.4,1,0.9,1.4,1.5s0.5,1.3,0.5,2.1s-0.2,1.5-0.5,2.1s-0.8,1.1-1.4,1.5c-0.6,0.4-1.3,0.5-2.1,0.5c-0.7,0-1.2-0.1-1.7-0.4
			s-0.9-0.6-1.2-1.1v4.9h-1.3L140.7,51.6L140.7,51.6z M144.8,47.1c0.5,0,1-0.1,1.4-0.4s0.7-0.6,1-1c0.2-0.5,0.3-1,0.3-1.6
			s-0.1-1.1-0.3-1.6c-0.2-0.4-0.6-0.8-1-1s-0.9-0.4-1.4-0.4s-1,0.1-1.4,0.4c-0.4,0.2-0.7,0.6-1,1c-0.2,0.5-0.3,1-0.3,1.6
			s0.1,1.1,0.3,1.6c0.2,0.4,0.6,0.8,1,1C143.8,47,144.3,47.1,144.8,47.1z"/>
		<path class="st1" d="M34.3,70.1V58.6h1.3v4.9c0.3-0.5,0.7-0.9,1.1-1.1c0.5-0.3,1-0.4,1.6-0.4c0.9,0,1.6,0.3,2.2,0.9
			c0.5,0.6,0.8,1.5,0.8,2.6v4.6H40v-4.5c0-1.6-0.7-2.5-2-2.5c-0.7,0-1.3,0.2-1.7,0.7c-0.5,0.5-0.7,1.2-0.7,2.1V70L34.3,70.1
			L34.3,70.1z"/>
		<path class="st1" d="M44.1,73.6l2-4.3h-0.5l-3.1-7.2H44l2.6,6.2l2.8-6.2h1.4l-5.2,11.5C45.6,73.6,44.1,73.6,44.1,73.6z"/>
		<path class="st1" d="M54.7,67.6c-0.4,0-0.9-0.1-1.2-0.2l-0.8,0.8c0.1,0.1,0.3,0.2,0.4,0.2c0.2,0.1,0.4,0.1,0.8,0.2
			c0.3,0.1,0.8,0.1,1.4,0.2c1.1,0.1,1.8,0.3,2.3,0.7c0.5,0.4,0.7,1,0.7,1.6c0,0.5-0.1,0.9-0.4,1.3c-0.2,0.4-0.6,0.8-1.1,1
			c-0.5,0.3-1.2,0.4-2,0.4c-0.7,0-1.3-0.1-1.9-0.3c-0.6-0.2-1-0.5-1.3-0.9s-0.5-0.9-0.5-1.4c0-0.3,0.1-0.6,0.2-1
			c0.2-0.4,0.5-0.7,0.9-1c-0.2-0.1-0.4-0.2-0.6-0.3c-0.2-0.1-0.3-0.2-0.5-0.4v-0.4l1.4-1.3c-0.6-0.5-0.9-1.2-0.9-2.1
			c0-0.5,0.1-1,0.4-1.4c0.2-0.4,0.6-0.8,1.1-1s1-0.4,1.7-0.4c0.5,0,0.9,0.1,1.2,0.2h2.9v1l-1.5,0.1c0.3,0.4,0.5,1,0.5,1.5
			s-0.1,1-0.4,1.4c-0.2,0.4-0.6,0.8-1.1,1C56,67.5,55.4,67.6,54.7,67.6z M52.4,71.1c0,0.5,0.2,0.9,0.7,1.2c0.5,0.3,1,0.4,1.7,0.4
			s1.2-0.1,1.6-0.4s0.6-0.7,0.6-1.1c0-0.3-0.1-0.6-0.4-0.9s-0.8-0.4-1.5-0.4c-0.6,0-1.1-0.1-1.5-0.2c-0.4,0.2-0.7,0.5-0.9,0.8
			C52.5,70.7,52.4,70.9,52.4,71.1z M54.7,66.5c0.6,0,1-0.1,1.3-0.4s0.5-0.7,0.5-1.3c0-0.5-0.2-1-0.5-1.3s-0.8-0.4-1.3-0.4
			c-0.6,0-1,0.1-1.4,0.4c-0.3,0.3-0.5,0.7-0.5,1.3c0,0.5,0.2,1,0.5,1.3C53.7,66.3,54.2,66.5,54.7,66.5z"/>
		<path class="st1" d="M61.3,60.4c-0.3,0-0.5-0.1-0.7-0.3s-0.3-0.4-0.3-0.7s0.1-0.5,0.3-0.6c0.2-0.2,0.4-0.3,0.7-0.3
			s0.5,0.1,0.7,0.3s0.3,0.4,0.3,0.6c0,0.3-0.1,0.5-0.3,0.7C61.7,60.3,61.5,60.4,61.3,60.4z M60.6,70.1v-7.9h1.3v7.9H60.6z"/>
		<path class="st1" d="M67.8,70.3c-0.8,0-1.4-0.2-2-0.5c-0.6-0.4-1.1-0.8-1.4-1.4s-0.5-1.4-0.5-2.2c0-0.8,0.2-1.6,0.5-2.2
			s0.8-1.1,1.4-1.5s1.3-0.5,2.1-0.5c0.8,0,1.4,0.2,2,0.5c0.6,0.4,1,0.8,1.3,1.4c0.3,0.6,0.5,1.2,0.5,1.8c0,0.1,0,0.2,0,0.4
			s0,0.2,0,0.4h-6.3c0,0.6,0.2,1.1,0.4,1.5s0.6,0.7,0.9,0.9c0.4,0.2,0.8,0.3,1.2,0.3c0.6,0,1-0.1,1.4-0.4s0.7-0.6,0.8-1h1.3
			c-0.2,0.7-0.6,1.4-1.2,1.8C69.5,70,68.8,70.3,67.8,70.3z M67.8,63.1c-0.6,0-1.2,0.2-1.7,0.6c-0.5,0.4-0.8,1-0.9,1.7h5
			c0-0.7-0.3-1.3-0.7-1.7C69.1,63.3,68.5,63.1,67.8,63.1z"/>
		<path class="st1" d="M73.4,70.1v-7.9h1.2l0.1,1.4c0.3-0.5,0.6-0.9,1.1-1.2s1-0.4,1.6-0.4c0.9,0,1.7,0.3,2.2,0.9
			c0.6,0.6,0.8,1.5,0.8,2.6v4.6h-1.3v-4.5c0-1.6-0.7-2.5-2-2.5c-0.7,0-1.2,0.2-1.7,0.7c-0.4,0.5-0.7,1.2-0.7,2.1V70L73.4,70.1
			L73.4,70.1z"/>
		<path class="st1" d="M86.1,70.3c-0.8,0-1.4-0.2-2-0.5c-0.6-0.4-1.1-0.8-1.4-1.4s-0.5-1.4-0.5-2.2c0-0.8,0.2-1.6,0.5-2.2
			s0.8-1.1,1.4-1.5s1.3-0.5,2.1-0.5c0.8,0,1.4,0.2,2,0.5s1,0.8,1.3,1.4c0.3,0.6,0.4,1.2,0.4,1.8c0,0.1,0,0.2,0,0.4
			c0,0.1,0,0.2,0,0.4h-6.3c0,0.6,0.2,1.1,0.4,1.5s0.6,0.7,0.9,0.9c0.4,0.2,0.8,0.3,1.2,0.3c0.6,0,1-0.1,1.4-0.4s0.7-0.6,0.8-1h1.3
			c-0.2,0.7-0.6,1.4-1.2,1.8C87.8,70,87,70.3,86.1,70.3z M86.1,63.1c-0.6,0-1.2,0.2-1.7,0.6c-0.5,0.4-0.8,1-0.9,1.7h5
			c0-0.7-0.3-1.3-0.7-1.7C87.3,63.3,86.7,63.1,86.1,63.1z"/>
		<path class="st1" d="M99.5,70.3c-0.8,0-1.4-0.2-2-0.5c-0.6-0.4-1.1-0.8-1.4-1.5c-0.3-0.6-0.5-1.4-0.5-2.2c0-0.8,0.2-1.6,0.5-2.2
			c0.3-0.6,0.8-1.1,1.4-1.5s1.3-0.5,2-0.5c0.9,0,1.7,0.2,2.4,0.7c0.6,0.5,1,1.1,1.2,2h-1.4c-0.1-0.5-0.4-0.9-0.8-1.1
			c-0.4-0.3-0.9-0.4-1.5-0.4c-0.5,0-0.9,0.1-1.3,0.3s-0.7,0.6-1,1c-0.2,0.4-0.4,1-0.4,1.7s0.1,1.2,0.4,1.7s0.6,0.8,1,1
			s0.8,0.3,1.3,0.3s1-0.1,1.5-0.4s0.7-0.7,0.8-1.2h1.4c-0.2,0.8-0.6,1.5-1.2,2C101.2,70,100.4,70.3,99.5,70.3z"/>
		<path class="st1" d="M107.6,70.3c-0.7,0-1.2-0.1-1.7-0.3c-0.4-0.2-0.8-0.5-1-0.9s-0.3-0.8-0.3-1.2c0-0.8,0.3-1.4,0.9-1.9
			c0.6-0.4,1.5-0.7,2.5-0.7h2.1v-0.1c0-0.7-0.2-1.2-0.5-1.6c-0.4-0.4-0.9-0.5-1.5-0.5c-0.5,0-1,0.1-1.3,0.4
			c-0.4,0.3-0.6,0.6-0.7,1.1h-1.4c0.1-0.6,0.2-1.1,0.6-1.5c0.3-0.4,0.8-0.7,1.3-0.9s1-0.3,1.6-0.3c1.1,0,1.9,0.3,2.5,0.9
			s0.8,1.4,0.8,2.4v4.9h-1.1l-0.1-1.4c-0.2,0.5-0.6,0.8-1,1.1S108.3,70.3,107.6,70.3z M107.8,69.2c0.5,0,0.9-0.1,1.3-0.4
			s0.6-0.6,0.8-1s0.3-0.9,0.3-1.3l0,0h-2c-0.8,0-1.3,0.1-1.7,0.4c-0.3,0.3-0.5,0.6-0.5,1s0.2,0.8,0.5,1
			C106.8,69,107.3,69.2,107.8,69.2z"/>
		<path class="st1" d="M113.6,70.1v-7.9h1.2l0.1,1.4c0.3-0.5,0.6-0.9,1.1-1.2s1-0.4,1.6-0.4c0.9,0,1.7,0.3,2.2,0.9
			c0.6,0.6,0.8,1.5,0.8,2.6v4.6h-1.2v-4.5c0-1.6-0.7-2.5-2.1-2.5c-0.7,0-1.2,0.2-1.7,0.7c-0.4,0.5-0.7,1.2-0.7,2.1V70L113.6,70.1
			L113.6,70.1z"/>
		<path class="st1" d="M127,70.1V58.6h1.3v4.9c0.3-0.5,0.6-0.9,1.1-1.1c0.5-0.3,1-0.4,1.6-0.4c0.9,0,1.7,0.3,2.2,0.9
			c0.6,0.6,0.8,1.5,0.8,2.6v4.6h-1.3v-4.5c0-1.6-0.7-2.5-2-2.5c-0.7,0-1.3,0.2-1.7,0.7c-0.5,0.5-0.7,1.2-0.7,2.1V70L127,70.1
			L127,70.1z"/>
		<path class="st1" d="M139.7,70.3c-0.8,0-1.4-0.2-2-0.5c-0.6-0.4-1.1-0.8-1.4-1.4c-0.3-0.6-0.5-1.4-0.5-2.2c0-0.8,0.2-1.6,0.5-2.2
			s0.8-1.1,1.4-1.5c0.6-0.4,1.3-0.5,2.1-0.5s1.4,0.2,2,0.5s1,0.8,1.3,1.4c0.3,0.6,0.4,1.2,0.4,1.8c0,0.1,0,0.2,0,0.4
			c0,0.1,0,0.2,0,0.4h-6.3c0,0.6,0.2,1.1,0.4,1.5s0.6,0.7,0.9,0.9c0.4,0.2,0.8,0.3,1.2,0.3c0.6,0,1-0.1,1.4-0.4s0.7-0.6,0.8-1h1.3
			c-0.2,0.7-0.6,1.4-1.2,1.8C141.5,70,140.7,70.3,139.7,70.3z M139.7,63.1c-0.6,0-1.2,0.2-1.7,0.6c-0.5,0.4-0.8,1-0.9,1.7h5
			c0-0.7-0.3-1.3-0.7-1.7C141,63.3,140.4,63.1,139.7,63.1z"/>
		<path class="st1" d="M145.3,70.1V58.6h1.3v11.5H145.3z"/>
		<path class="st1" d="M148.8,73.6V62.1h1.2l0.1,1.3c0.3-0.4,0.6-0.7,1.1-1s1.1-0.5,1.8-0.5c0.8,0,1.5,0.2,2.1,0.5
			c0.6,0.4,1,0.9,1.4,1.5c0.4,0.6,0.5,1.3,0.5,2.1s-0.2,1.5-0.5,2.1s-0.8,1.1-1.4,1.5c-0.6,0.4-1.3,0.5-2.1,0.5
			c-0.6,0-1.2-0.1-1.7-0.4s-0.9-0.6-1.2-1.1v4.9L148.8,73.6L148.8,73.6L148.8,73.6z M152.9,69.1c0.5,0,1-0.1,1.4-0.4
			c0.4-0.2,0.7-0.6,1-1c0.2-0.5,0.4-1,0.4-1.6s-0.1-1.1-0.4-1.6c-0.2-0.4-0.6-0.8-1-1s-0.9-0.4-1.4-0.4s-1,0.1-1.4,0.4s-0.7,0.6-1,1
			c-0.2,0.5-0.3,1-0.3,1.6s0.1,1.1,0.3,1.6c0.2,0.4,0.6,0.8,1,1C151.9,69,152.4,69.1,152.9,69.1z"/>
		<path class="st1" d="M35.2,137.2l2-4.3h-0.5l-3.2-7.2H35l2.6,6.2l2.8-6.2h1.4l-5.2,11.5H35.2z"/>
		<path class="st1" d="M46.1,133.8c-0.8,0-1.4-0.2-2-0.5s-1.1-0.8-1.4-1.4c-0.3-0.6-0.5-1.4-0.5-2.2s0.2-1.6,0.5-2.2
			s0.8-1.1,1.4-1.5c0.6-0.3,1.3-0.5,2-0.5s1.4,0.2,2,0.5s1.1,0.8,1.4,1.5c0.3,0.6,0.5,1.4,0.5,2.2s-0.2,1.6-0.5,2.2
			s-0.8,1.1-1.4,1.4C47.5,133.7,46.8,133.8,46.1,133.8z M46.1,132.7c0.5,0,0.9-0.1,1.3-0.3c0.4-0.2,0.7-0.6,1-1s0.4-1,0.4-1.7
			s-0.1-1.2-0.4-1.7s-0.6-0.8-0.9-1c-0.4-0.2-0.8-0.3-1.3-0.3s-0.9,0.1-1.3,0.3c-0.4,0.2-0.7,0.6-1,1c-0.2,0.5-0.4,1-0.4,1.7
			s0.1,1.2,0.4,1.7s0.6,0.8,1,1C45.2,132.6,45.6,132.7,46.1,132.7z"/>
		<path class="st1" d="M54.8,133.8c-0.9,0-1.7-0.3-2.2-0.9c-0.6-0.6-0.8-1.5-0.8-2.6v-4.6h1.3v4.5c0,1.6,0.7,2.5,2,2.5
			c0.7,0,1.3-0.2,1.7-0.7c0.5-0.5,0.7-1.2,0.7-2.1v-4.1h1.3v7.9h-1.2l-0.1-1.4c-0.2,0.5-0.6,0.9-1.1,1.2
			C55.9,133.7,55.4,133.8,54.8,133.8z"/>
		<path class="st1" d="M61.1,133.6v-7.9h1.2l0.1,1.5c0.2-0.5,0.6-0.9,1.1-1.2c0.5-0.3,1.1-0.5,1.9-0.5v1.4H65
			c-0.5,0-0.9,0.1-1.3,0.2c-0.4,0.2-0.7,0.5-0.9,0.8c-0.2,0.4-0.3,0.9-0.3,1.6v4L61.1,133.6L61.1,133.6L61.1,133.6z"/>
		<path class="st1" d="M74.1,133.8c-0.9,0-1.7-0.2-2.4-0.7c-0.6-0.5-1-1.1-1.1-2H72c0.1,0.4,0.3,0.8,0.7,1.1
			c0.4,0.3,0.8,0.5,1.5,0.5c0.6,0,1-0.1,1.2-0.4c0.3-0.2,0.4-0.5,0.4-0.9c0-0.5-0.2-0.8-0.5-1s-0.8-0.3-1.5-0.4
			c-0.4-0.1-0.8-0.2-1.3-0.4c-0.4-0.2-0.8-0.4-1.1-0.7c-0.3-0.3-0.4-0.7-0.4-1.2c0-0.7,0.3-1.3,0.8-1.7c0.5-0.4,1.2-0.7,2.1-0.7
			c0.8,0,1.5,0.2,2.1,0.6c0.5,0.4,0.9,1,0.9,1.8h-1.3c-0.1-0.4-0.2-0.7-0.5-0.9c-0.3-0.2-0.7-0.3-1.2-0.3s-0.8,0.1-1.1,0.3
			c-0.3,0.2-0.4,0.5-0.4,0.8s0.2,0.6,0.5,0.8s0.8,0.3,1.4,0.5c0.5,0.1,1,0.2,1.4,0.4c0.4,0.1,0.8,0.4,1.1,0.7
			c0.3,0.3,0.4,0.7,0.4,1.3c0,0.7-0.3,1.3-0.8,1.8C75.8,133.6,75.1,133.8,74.1,133.8z"/>
		<path class="st1" d="M79.1,133.6v-11.5h1.3v11.5H79.1z"/>
		<path class="st1" d="M86.2,133.8c-0.8,0-1.4-0.2-2-0.5c-0.6-0.4-1.1-0.8-1.4-1.5c-0.3-0.6-0.5-1.4-0.5-2.2s0.2-1.6,0.5-2.2
			s0.8-1.1,1.4-1.5s1.3-0.5,2.1-0.5c0.8,0,1.4,0.2,2,0.5s1,0.8,1.3,1.4s0.4,1.2,0.4,1.8c0,0.1,0,0.2,0,0.3s0,0.2,0,0.4h-6.3
			c0,0.6,0.2,1.1,0.4,1.5s0.6,0.7,0.9,0.9c0.4,0.2,0.8,0.3,1.2,0.3c0.6,0,1-0.1,1.4-0.4s0.7-0.6,0.8-1h1.3c-0.2,0.7-0.6,1.4-1.2,1.8
			C87.9,133.6,87.2,133.8,86.2,133.8z M86.2,126.6c-0.6,0-1.2,0.2-1.7,0.6s-0.8,1-0.9,1.7h5c0-0.7-0.3-1.3-0.7-1.7
			C87.5,126.8,86.9,126.6,86.2,126.6z"/>
		<path class="st1" d="M95.3,133.8c-0.8,0-1.4-0.2-2-0.5c-0.6-0.4-1.1-0.8-1.4-1.5c-0.3-0.6-0.5-1.4-0.5-2.2s0.2-1.6,0.5-2.2
			s0.8-1.1,1.4-1.5s1.3-0.5,2.1-0.5c0.8,0,1.4,0.2,2,0.5s1,0.8,1.3,1.4s0.4,1.2,0.4,1.8c0,0.1,0,0.2,0,0.3s0,0.2,0,0.4h-6.3
			c0,0.6,0.2,1.1,0.4,1.5s0.6,0.7,0.9,0.9c0.4,0.2,0.8,0.3,1.2,0.3c0.6,0,1-0.1,1.4-0.4s0.7-0.6,0.8-1h1.3c-0.2,0.7-0.6,1.4-1.2,1.8
			C97,133.6,96.3,133.8,95.3,133.8z M95.3,126.6c-0.6,0-1.2,0.2-1.7,0.6s-0.8,1-0.9,1.7h5c0-0.7-0.3-1.3-0.7-1.7
			C96.6,126.8,96,126.6,95.3,126.6z"/>
		<path class="st1" d="M100.9,137.2v-11.5h1.2l0.1,1.3c0.3-0.4,0.6-0.7,1.1-1s1.1-0.5,1.8-0.5c0.8,0,1.5,0.2,2.1,0.5
			c0.6,0.4,1,0.9,1.4,1.5c0.4,0.6,0.5,1.3,0.5,2.1s-0.2,1.5-0.5,2.1s-0.8,1.1-1.4,1.5s-1.3,0.5-2.1,0.5c-0.7,0-1.2-0.1-1.7-0.4
			s-0.9-0.6-1.2-1.1v4.8h-1.3V137.2z M105,132.7c0.5,0,1-0.1,1.4-0.4c0.4-0.2,0.7-0.6,1-1.1c0.2-0.4,0.3-1,0.3-1.6s-0.1-1.1-0.3-1.6
			c-0.2-0.5-0.6-0.8-1-1.1c-0.4-0.2-0.9-0.4-1.4-0.4s-1,0.1-1.4,0.4c-0.4,0.2-0.7,0.6-1,1.1c-0.2,0.4-0.4,1-0.4,1.6s0.1,1.1,0.4,1.6
			c0.2,0.5,0.5,0.8,1,1.1C104,132.5,104.4,132.7,105,132.7z"/>
		<path class="st1" d="M117.8,133.8c-0.7,0-1.2-0.1-1.6-0.3s-0.8-0.5-1-0.9s-0.3-0.8-0.3-1.2c0-0.8,0.3-1.4,0.9-1.9
			c0.6-0.4,1.5-0.7,2.5-0.7h2.1v-0.1c0-0.7-0.2-1.2-0.5-1.6c-0.4-0.4-0.9-0.5-1.5-0.5c-0.5,0-1,0.1-1.3,0.4
			c-0.4,0.3-0.6,0.6-0.7,1.1H115c0-0.6,0.2-1.1,0.6-1.5c0.3-0.4,0.8-0.7,1.3-0.9c0.5-0.2,1-0.3,1.6-0.3c1.1,0,1.9,0.3,2.5,0.9
			s0.8,1.4,0.8,2.4v4.9h-1.2l-0.1-1.4c-0.2,0.4-0.6,0.8-1,1.1C119.1,133.7,118.5,133.8,117.8,133.8z M118,132.7
			c0.5,0,0.9-0.1,1.3-0.4s0.7-0.6,0.8-1c0.2-0.4,0.3-0.9,0.3-1.3l0,0h-2c-0.8,0-1.4,0.1-1.7,0.4s-0.5,0.6-0.5,1s0.1,0.8,0.5,1
			C117,132.6,117.4,132.7,118,132.7z"/>
		<path class="st1" d="M123.8,133.6v-7.9h1.2l0.1,1.4c0.3-0.5,0.6-0.9,1.1-1.2c0.5-0.3,1-0.4,1.6-0.4c0.9,0,1.7,0.3,2.2,0.9
			c0.6,0.6,0.8,1.4,0.8,2.6v4.6h-1.3v-4.5c0-1.6-0.7-2.5-2-2.5c-0.7,0-1.2,0.2-1.7,0.7c-0.4,0.5-0.7,1.2-0.7,2.1v4.1L123.8,133.6
			L123.8,133.6z"/>
		<path class="st1" d="M136.6,133.8c-0.8,0-1.5-0.2-2.1-0.5c-0.6-0.4-1.1-0.9-1.4-1.5c-0.3-0.6-0.5-1.3-0.5-2.1s0.2-1.5,0.5-2.1
			s0.8-1.1,1.4-1.5c0.6-0.4,1.3-0.5,2.1-0.5c0.7,0,1.2,0.1,1.7,0.4s0.9,0.6,1.2,1.1v-4.9h1.3v11.5h-1.2l-0.1-1.3
			c-0.3,0.4-0.6,0.7-1.1,1S137.3,133.8,136.6,133.8z M136.7,132.7c0.5,0,1-0.1,1.4-0.4s0.7-0.6,1-1.1c0.2-0.4,0.3-1,0.3-1.6
			s-0.1-1.1-0.3-1.6s-0.5-0.8-1-1.1s-0.9-0.4-1.4-0.4s-1,0.1-1.4,0.4c-0.4,0.2-0.7,0.6-1,1.1c-0.2,0.4-0.3,1-0.3,1.6
			s0.1,1.1,0.3,1.6s0.6,0.8,1,1.1C135.7,132.5,136.2,132.7,136.7,132.7z"/>
		<path class="st1" d="M34.3,155.6v-7.9h1.2l0.1,1.5c0.2-0.5,0.6-0.9,1.1-1.2s1.1-0.5,1.9-0.5v1.4h-0.4c-0.5,0-0.9,0.1-1.3,0.2
			c-0.4,0.2-0.7,0.5-0.9,0.8c-0.2,0.4-0.3,0.9-0.3,1.6v4L34.3,155.6C34.3,155.5,34.3,155.6,34.3,155.6z"/>
		<path class="st1" d="M43.4,155.8c-0.8,0-1.4-0.2-2-0.5c-0.6-0.4-1.1-0.8-1.4-1.5c-0.3-0.6-0.5-1.3-0.5-2.2c0-0.8,0.2-1.6,0.5-2.2
			s0.8-1.1,1.4-1.5c0.6-0.3,1.3-0.5,2.1-0.5s1.4,0.2,2,0.5c0.6,0.4,1,0.8,1.3,1.4s0.5,1.2,0.5,1.8c0,0.1,0,0.2,0,0.4s0,0.2,0,0.4H41
			c0,0.6,0.2,1.1,0.4,1.5s0.6,0.7,0.9,0.9c0.4,0.2,0.8,0.3,1.2,0.3c0.6,0,1-0.1,1.4-0.4s0.7-0.6,0.8-1H47c-0.2,0.7-0.6,1.3-1.2,1.8
			C45.1,155.6,44.3,155.8,43.4,155.8z M43.4,148.6c-0.6,0-1.2,0.2-1.7,0.6s-0.8,1-0.9,1.7h5c0-0.7-0.3-1.3-0.7-1.7
			C44.6,148.8,44,148.6,43.4,148.6z"/>
		<path class="st1" d="M52.5,155.8c-0.8,0-1.5-0.2-2.1-0.5c-0.6-0.4-1.1-0.9-1.4-1.5s-0.5-1.3-0.5-2.1s0.2-1.5,0.5-2.1
			s0.8-1.1,1.4-1.5s1.3-0.5,2.1-0.5c0.7,0,1.2,0.1,1.7,0.4s0.9,0.6,1.2,1.1v-4.9h1.3v11.5h-1.2l-0.1-1.3c-0.3,0.4-0.6,0.7-1.1,1
			S53.2,155.8,52.5,155.8z M52.6,154.7c0.5,0,1-0.1,1.4-0.4c0.4-0.2,0.7-0.6,1-1c0.2-0.5,0.3-1,0.3-1.6s-0.1-1.1-0.3-1.6
			c-0.2-0.4-0.6-0.8-1-1s-0.9-0.4-1.4-0.4s-1,0.1-1.4,0.4c-0.4,0.2-0.7,0.6-1,1c-0.2,0.5-0.3,1-0.3,1.6s0.1,1.1,0.3,1.6s0.6,0.8,1,1
			C51.7,154.5,52.1,154.7,52.6,154.7z"/>
		<path class="st1" d="M61.8,155.8c-0.9,0-1.7-0.3-2.2-0.9c-0.6-0.6-0.8-1.5-0.8-2.6v-4.6h1.3v4.5c0,1.6,0.7,2.5,2,2.5
			c0.7,0,1.3-0.2,1.7-0.7c0.5-0.5,0.7-1.2,0.7-2.1v-4.1h1.3v7.9h-1.2l-0.1-1.4c-0.2,0.5-0.6,0.9-1.1,1.2
			C63,155.7,62.5,155.8,61.8,155.8z"/>
		<path class="st1" d="M71.7,155.8c-0.8,0-1.4-0.2-2-0.5c-0.6-0.4-1.1-0.8-1.4-1.5c-0.3-0.6-0.5-1.3-0.5-2.2s0.2-1.6,0.5-2.2
			c0.4-0.6,0.8-1.1,1.4-1.5c0.6-0.3,1.3-0.5,2-0.5c0.9,0,1.7,0.2,2.4,0.7s1.1,1.1,1.2,2h-1.4c-0.1-0.5-0.4-0.9-0.8-1.1
			c-0.4-0.3-0.9-0.4-1.5-0.4c-0.4,0-0.9,0.1-1.3,0.3s-0.7,0.6-1,1c-0.2,0.5-0.4,1-0.4,1.7s0.1,1.2,0.4,1.7s0.6,0.8,1,1
			s0.8,0.3,1.3,0.3c0.6,0,1-0.1,1.5-0.4c0.4-0.3,0.7-0.7,0.8-1.2h1.4c-0.2,0.8-0.6,1.5-1.2,2S72.7,155.8,71.7,155.8z"/>
		<path class="st1" d="M80.8,155.8c-0.8,0-1.4-0.2-2-0.5c-0.6-0.4-1.1-0.8-1.4-1.5c-0.3-0.6-0.5-1.3-0.5-2.2c0-0.8,0.2-1.6,0.5-2.2
			s0.8-1.1,1.4-1.5c0.6-0.3,1.3-0.5,2.1-0.5c0.8,0,1.4,0.2,2,0.5c0.6,0.4,1,0.8,1.3,1.4s0.5,1.2,0.5,1.8c0,0.1,0,0.2,0,0.4
			s0,0.2,0,0.4h-6.3c0,0.6,0.2,1.1,0.4,1.5c0.2,0.4,0.6,0.7,0.9,0.9c0.4,0.2,0.8,0.3,1.2,0.3c0.6,0,1-0.1,1.4-0.4s0.7-0.6,0.8-1h1.3
			c-0.2,0.7-0.6,1.3-1.2,1.8C82.5,155.6,81.7,155.8,80.8,155.8z M80.8,148.6c-0.6,0-1.2,0.2-1.7,0.6s-0.8,1-0.9,1.7h5
			c0-0.7-0.3-1.3-0.7-1.7C82,148.8,81.5,148.6,80.8,148.6z"/>
		<path class="st1" d="M91.4,159.2l2-4.3h-0.5l-3.2-7.2h1.5l2.6,6.2l2.8-6.2H98l-5.2,11.5H91.4z"/>
		<path class="st1" d="M102.3,155.8c-0.8,0-1.4-0.2-2-0.5s-1.1-0.8-1.4-1.5c-0.4-0.6-0.5-1.4-0.5-2.2s0.2-1.6,0.5-2.2
			s0.8-1.1,1.4-1.5c0.6-0.3,1.3-0.5,2-0.5s1.4,0.2,2,0.5s1.1,0.8,1.4,1.5c0.4,0.6,0.5,1.4,0.5,2.2s-0.2,1.6-0.5,2.2
			c-0.4,0.6-0.8,1.1-1.4,1.5S103.1,155.8,102.3,155.8z M102.3,154.7c0.5,0,0.9-0.1,1.3-0.3s0.7-0.6,1-1c0.2-0.5,0.4-1,0.4-1.7
			s-0.1-1.2-0.4-1.7c-0.2-0.4-0.6-0.8-0.9-1c-0.4-0.2-0.8-0.3-1.3-0.3s-0.9,0.1-1.3,0.3s-0.7,0.6-1,1c-0.2,0.4-0.4,1-0.4,1.7
			s0.1,1.2,0.4,1.7c0.2,0.4,0.6,0.8,0.9,1C101.5,154.6,101.9,154.7,102.3,154.7z"/>
		<path class="st1" d="M111.1,155.8c-0.9,0-1.7-0.3-2.2-0.9s-0.8-1.5-0.8-2.6v-4.6h1.3v4.5c0,1.6,0.7,2.5,2,2.5
			c0.7,0,1.3-0.2,1.7-0.7s0.7-1.2,0.7-2.1v-4.1h1.3v7.9h-1.2l-0.1-1.4c-0.2,0.5-0.6,0.9-1.1,1.2
			C112.2,155.7,111.7,155.8,111.1,155.8z"/>
		<path class="st1" d="M117.3,155.6v-7.9h1.2l0.1,1.5c0.2-0.5,0.6-0.9,1.1-1.2s1.1-0.5,1.9-0.5v1.4h-0.4c-0.5,0-0.9,0.1-1.3,0.2
			c-0.4,0.2-0.7,0.5-0.9,0.8c-0.2,0.4-0.3,0.9-0.3,1.6v4L117.3,155.6L117.3,155.6L117.3,155.6z"/>
		<path class="st1" d="M130.4,155.8c-0.9,0-1.7-0.2-2.4-0.7s-1-1.1-1.1-2h1.4c0.1,0.4,0.3,0.8,0.7,1.1c0.3,0.3,0.8,0.5,1.4,0.5
			c0.6,0,1-0.1,1.2-0.4c0.3-0.2,0.4-0.5,0.4-0.9c0-0.5-0.2-0.8-0.5-1c-0.4-0.2-0.8-0.3-1.5-0.4c-0.4-0.1-0.8-0.2-1.3-0.4
			c-0.4-0.2-0.8-0.4-1.1-0.7c-0.3-0.3-0.4-0.7-0.4-1.2c0-0.7,0.3-1.3,0.8-1.7s1.2-0.7,2.1-0.7c0.8,0,1.5,0.2,2.1,0.6
			c0.5,0.4,0.9,1,0.9,1.8h-1.3c-0.1-0.4-0.2-0.7-0.5-1c-0.3-0.2-0.7-0.3-1.2-0.3s-0.9,0.1-1.1,0.3c-0.3,0.2-0.4,0.5-0.4,0.8
			s0.2,0.6,0.5,0.8s0.8,0.3,1.4,0.5c0.5,0.1,1,0.2,1.4,0.4s0.8,0.4,1.1,0.7s0.4,0.7,0.4,1.3c0,0.7-0.3,1.3-0.8,1.8
			C132.1,155.6,131.3,155.8,130.4,155.8z"/>
		<path class="st1" d="M138.2,155.6c-0.7,0-1.3-0.2-1.7-0.5s-0.6-1-0.6-1.9v-4.4h-1.4v-1.1h1.4l0.2-1.9h1.2v1.9h2.3v1.1h-2.3v4.4
			c0,0.5,0.1,0.8,0.3,1s0.6,0.3,1.1,0.3h0.8v1.2h-1.3V155.6z"/>
		<path class="st1" d="M141.2,155.6v-7.9h1.2l0.1,1.5c0.2-0.5,0.6-0.9,1.1-1.2s1.1-0.5,1.9-0.5v1.4h-0.4c-0.5,0-0.9,0.1-1.3,0.2
			c-0.4,0.2-0.7,0.5-0.9,0.8c-0.2,0.4-0.3,0.9-0.3,1.6v4L141.2,155.6L141.2,155.6L141.2,155.6z"/>
		<path class="st1" d="M150.3,155.8c-0.8,0-1.4-0.2-2-0.5c-0.6-0.4-1.1-0.8-1.4-1.5c-0.3-0.6-0.5-1.3-0.5-2.2c0-0.8,0.2-1.6,0.5-2.2
			s0.8-1.1,1.4-1.5c0.6-0.3,1.3-0.5,2.1-0.5s1.4,0.2,2,0.5c0.6,0.4,1,0.8,1.3,1.4s0.4,1.2,0.4,1.8c0,0.1,0,0.2,0,0.4s0,0.2,0,0.4
			h-6.3c0,0.6,0.2,1.1,0.4,1.5s0.6,0.7,0.9,0.9c0.4,0.2,0.8,0.3,1.2,0.3c0.5,0,1-0.1,1.4-0.4s0.6-0.6,0.8-1h1.3
			c-0.2,0.7-0.6,1.3-1.2,1.8C152,155.6,151.2,155.8,150.3,155.8z M150.3,148.6c-0.6,0-1.2,0.2-1.7,0.6s-0.8,1-0.9,1.7h5
			c0-0.7-0.3-1.3-0.7-1.7C151.5,148.8,151,148.6,150.3,148.6z"/>
		<path class="st1" d="M158.9,155.8c-1,0-1.7-0.2-2.4-0.7c-0.6-0.5-1-1.1-1.1-2h1.4c0.1,0.4,0.3,0.8,0.7,1.1s0.8,0.5,1.4,0.5
			c0.6,0,1-0.1,1.2-0.4c0.3-0.2,0.4-0.5,0.4-0.9c0-0.5-0.2-0.8-0.5-1c-0.4-0.2-0.8-0.3-1.5-0.4c-0.4-0.1-0.8-0.2-1.3-0.4
			c-0.4-0.2-0.8-0.4-1.1-0.7s-0.4-0.7-0.4-1.2c0-0.7,0.3-1.3,0.8-1.7s1.2-0.7,2.1-0.7c0.8,0,1.5,0.2,2.1,0.6c0.5,0.4,0.8,1,0.9,1.8
			h-1.3c0-0.4-0.2-0.7-0.5-1c-0.3-0.2-0.7-0.3-1.2-0.3s-0.8,0.1-1.1,0.3s-0.4,0.5-0.4,0.8s0.2,0.6,0.5,0.8s0.8,0.3,1.4,0.5
			c0.5,0.1,1,0.2,1.4,0.4s0.8,0.4,1.1,0.7s0.4,0.7,0.4,1.3c0,0.7-0.3,1.3-0.8,1.8C160.5,155.6,159.8,155.8,158.9,155.8z"/>
		<path class="st1" d="M166.9,155.8c-1,0-1.7-0.2-2.4-0.7c-0.6-0.5-1-1.1-1.1-2h1.4c0.1,0.4,0.3,0.8,0.7,1.1s0.8,0.5,1.4,0.5
			c0.6,0,1-0.1,1.2-0.4c0.3-0.2,0.4-0.5,0.4-0.9c0-0.5-0.2-0.8-0.5-1c-0.4-0.2-0.8-0.3-1.5-0.4c-0.4-0.1-0.8-0.2-1.3-0.4
			c-0.4-0.2-0.8-0.4-1.1-0.7s-0.4-0.7-0.4-1.2c0-0.7,0.3-1.3,0.8-1.7s1.2-0.7,2.1-0.7c0.8,0,1.5,0.2,2.1,0.6c0.5,0.4,0.8,1,0.9,1.8
			h-1.3c0-0.4-0.2-0.7-0.5-1c-0.3-0.2-0.7-0.3-1.2-0.3s-0.8,0.1-1.1,0.3s-0.4,0.5-0.4,0.8s0.2,0.6,0.5,0.8s0.8,0.3,1.4,0.5
			c0.5,0.1,1,0.2,1.4,0.4s0.8,0.4,1.1,0.7s0.4,0.7,0.4,1.3c0,0.7-0.3,1.3-0.8,1.8C168.5,155.6,167.8,155.8,166.9,155.8z"/>
		<path class="st1" d="M172.3,155.7c-0.3,0-0.5-0.1-0.7-0.3s-0.3-0.4-0.3-0.6s0.1-0.5,0.3-0.7s0.4-0.3,0.7-0.3s0.5,0.1,0.6,0.3
			c0.2,0.2,0.3,0.4,0.3,0.7s-0.1,0.5-0.3,0.6C172.8,155.6,172.5,155.7,172.3,155.7z"/>
		<path class="st2" d="M36.5,86.5l0.8-1h5.1l0.8,0.8c0.5,0.5,0.9,1.2,1.1,2c0.2,0.8,0.4,2.1,0.6,3.8c0.1,0.6,0.1,1.6,0.1,2.8
			c0,2.9-0.3,5.5-0.8,7.8s-1.2,3.9-2.1,4.8c-0.3,0.3-0.7,0.5-1.2,0.7s-1,0.3-1.4,0.3c-0.2,0-0.3,0-0.4-0.1c-0.2-0.1-0.5-0.2-0.9-0.2
			c-0.3,0-0.6-0.2-1-0.7s-0.7-1-0.9-1.7c-0.4-1.1-0.7-2.3-0.8-3.6c-0.1-1.3-0.2-3.4-0.2-6.3v-2c0-2.6,0.1-4.4,0.2-5.3
			C35.7,87.8,36,87.1,36.5,86.5z M40.4,88.5c-0.2-0.5-0.5-0.8-0.6-0.8c-0.2,0-0.4,0.4-0.7,1.3c-0.2,0.7-0.3,2-0.3,3.9
			c0,1.5,0.1,3.1,0.2,4.8c0.1,1.6,0.3,3.1,0.5,4.5s0.5,2.1,0.7,2.1c0.1,0,0.3-0.3,0.4-0.9c0.1-0.5,0.3-0.9,0.5-1.3
			c0.1-0.2,0.2-1.4,0.4-3.7c0.1-1.2,0.1-2.3,0.1-3.3C41.5,92,41.1,89.8,40.4,88.5z"/>
		<path class="st2" d="M50.2,85.2c0.3-0.1,1-0.2,2.1-0.2c1.3,0,2.2,0.1,2.5,0.3c0.4,0.2,0.9,0.6,1.5,1.2c0.5,0.5,0.9,1,1.1,1.4
			c0.3,0.6,0.6,2.2,0.6,4.5c0.1,1.4,0.1,2.2,0.1,2.4c0,0.9-0.1,1.7-0.4,2.5c-0.3,0.9-0.6,1.6-1,2c-0.4,0.5-1,0.8-1.7,1l-1.2,0.4v3.4
			c0,2-0.1,3.3-0.2,3.7c-0.2,0.5-0.6,0.7-1.2,0.7s-1.1-0.2-1.5-0.5l-0.6-0.5v-3v-0.7c0-2.4-0.1-5.4-0.2-9s-0.3-5.8-0.4-6.7
			c-0.1-0.6-0.1-1.2-0.1-1.5C49.4,86,49.7,85.5,50.2,85.2z M54,89.2c-0.3-0.6-0.5-1-0.7-1c-0.1,0-0.1,0-0.2,0.1c0,1,0,2,0,3.2
			c0,4,0.2,6,0.5,6c0.1,0,0.3-0.3,0.6-0.8c0.2-0.5,0.3-1.1,0.3-1.8c0-0.2,0-0.8-0.1-1.9C54.4,90.9,54.2,89.7,54,89.2z"/>
		<path class="st2" d="M63.2,84.7c0.4-0.3,1-0.5,1.9-0.5h1c1.5,0.1,2.4,0.1,2.7,0.2c0.2,0.1,0.6,0.1,1.2,0.1s1.1,0.2,1.4,0.4
			s0.4,0.6,0.4,1.1s-0.1,0.9-0.3,1.1c-0.2,0.2-0.6,0.4-1.1,0.5c-0.6,0.1-0.9,0.2-1,0.3c-0.1,0.1-0.2,2.8-0.2,8c0,3.6,0,6.1,0.1,7.6
			c0.1,1.2,0.1,1.8,0.1,1.9c0,0.6-0.1,1.1-0.4,1.5c-0.3,0.6-0.8,0.8-1.4,0.8c-0.4,0-0.8-0.1-1.3-0.4l-0.8-0.5l0.1-9.6
			c0.1-2.5,0.1-4.9,0.1-7.4c0-1.5-0.1-2.3-0.3-2.4c-0.3-0.2-0.6-0.2-0.6-0.2c-0.1,0-0.3,0-0.5,0c-0.5,0-0.9-0.1-1.3-0.4
			c-0.3-0.3-0.5-0.6-0.5-1C62.5,85.4,62.8,85,63.2,84.7z"/>
		<path class="st2" d="M76.6,84.6c0.3-0.4,0.8-0.6,1.3-0.6s0.9,0.2,1.3,0.6l0.5,0.5l0.2,9.5c0.1,5.2,0.2,8.2,0.2,9c0,0.4,0,0.8,0,1
			c0,0.3,0,0.5,0,0.7s-0.1,0.3-0.1,0.4s-0.1,0.2-0.1,0.2s-0.1,0.1-0.2,0.1c-0.1,0.1-0.2,0.1-0.2,0.1c-0.3,0.2-0.6,0.3-0.8,0.3
			c-0.1,0-0.4-0.1-0.8-0.2c-0.7-0.3-1.1-0.5-1.1-0.7c-0.1-0.1-0.2-3.5-0.2-10.1c-0.1-6.6-0.1-9.9-0.2-10
			C76.2,85.2,76.3,84.9,76.6,84.6z"/>
		<path class="st2" d="M94.9,86.4c0.4-0.1,0.7-0.2,1-0.2c0.7,0,1.2,0.2,1.6,0.8c0.2,0.3,0.4,1.5,0.7,3.6c0.2,2.1,0.4,4.4,0.5,6.8
			c0,0.8,0.1,1.9,0.2,3.4s0.1,2.7,0.2,3.8c0,1.1,0.1,1.9,0.1,2.5c0,0.4-0.2,0.7-0.6,0.9s-0.9,0.4-1.3,0.4s-0.7-0.1-0.9-0.2l-0.5-0.4
			l-0.1-5.1C95.6,96.9,95.4,94,95,94c-0.2,0-0.5,0.7-1,2.2c-0.2,0.8-0.5,1.4-0.8,1.7c-0.3,0.3-0.6,0.5-1,0.5c-0.3,0-0.7-0.1-1.1-0.2
			c-0.5-0.2-0.9-0.6-1.2-1.3c-0.3-0.7-0.5-1.1-0.5-1.2s-0.1-0.3-0.2-0.6c-0.1-0.3-0.3-0.6-0.5-0.8S88.4,94,88.4,94v0.5
			c0,1.2,0,3,0.1,5.4l0.2,5.8l-0.5,0.9c-0.6,0.9-1.1,1.4-1.6,1.4c-0.3,0-0.5-0.2-0.8-0.6c-0.2-0.3-0.4-0.9-0.4-1.5
			c-0.1-0.7-0.1-2.8-0.2-6.3c-0.2-6.5-0.3-10.2-0.5-11c0-0.1,0-0.3,0-0.5c0-0.3,0.2-0.6,0.5-0.9s0.7-0.5,1.2-0.5s1,0.1,1.6,0.4
			c0.6,0.2,1,0.6,1.3,1s1,1.7,2.1,3.7c0.3,0.5,0.5,0.8,0.7,0.8c0.1,0,0.3-0.2,0.4-0.6c0.1-0.5,0.4-1,0.7-1.7
			c0.4-0.8,0.6-1.3,0.6-1.4c0-0.2,0.2-0.7,0.6-1.3C94.4,86.8,94.7,86.5,94.9,86.4z"/>
		<path class="st2" d="M103.6,84.6c0.3-0.4,0.8-0.6,1.3-0.6s0.9,0.2,1.3,0.6l0.6,0.5l0.2,9.5c0.1,5.2,0.2,8.2,0.2,9c0,0.4,0,0.8,0,1
			c0,0.3,0,0.5,0,0.7s-0.1,0.3-0.1,0.4c-0.1,0.1-0.1,0.2-0.1,0.2s-0.1,0.1-0.2,0.1c-0.1,0.1-0.2,0.1-0.2,0.1
			c-0.3,0.2-0.6,0.3-0.8,0.3c-0.1,0-0.4-0.1-0.8-0.2c-0.7-0.3-1.1-0.5-1.1-0.7c-0.1-0.1-0.2-3.5-0.2-10.1c-0.1-6.6-0.1-9.9-0.2-10
			C103.2,85.2,103.3,84.9,103.6,84.6z"/>
		<path class="st2" d="M114.7,85.5c0.3-0.2,0.7-0.2,1.2-0.2c0.3,0,0.6,0,0.8,0c0.8,0.1,1.4,0.2,1.7,0.3c0.3,0.1,0.6,0.4,0.8,0.8
			c0.3,0.4,0.4,0.9,0.4,1.3c0,0.5-0.2,0.9-0.6,1.3c-0.3,0.3-0.7,0.5-1,0.5c-0.4,0-0.7-0.2-1-0.7c-0.2-0.4-0.5-0.5-0.8-0.5
			c-0.2,0-0.5,0.2-0.7,0.5c-0.2,0.4-0.4,0.7-0.4,1.2v0.2c0,1.5,1.2,4.4,3.5,8.5c0.4,0.7,0.8,1.9,1.1,3.7c0,0.1,0,0.3,0,0.6
			c0,1.5-0.3,2.7-1,3.6c-0.3,0.4-0.7,0.7-1.4,1s-1.2,0.4-1.7,0.4c-0.1,0-0.1,0-0.2,0s-0.1,0-0.2,0c-0.6-0.1-1.4-0.6-2.3-1.4
			c-0.9-0.9-1.4-1.5-1.4-2c0-0.2,0.2-0.5,0.5-0.8s0.6-0.5,0.9-0.5c0.1,0,0.1,0,0.3,0c0.3,0,0.8,0.5,1.5,1.3c0.2,0.4,0.5,0.6,0.8,0.6
			s0.5-0.2,0.6-0.5c0.1-0.1,0.1-0.3,0.1-0.6c0-1.6-0.7-4-2.2-7.1c-1.3-2.9-2-5.1-2-6.5c0-0.6,0.1-1.2,0.3-1.7
			c0.4-1.1,0.8-1.8,1.1-2.2C113.6,86.1,114.1,85.8,114.7,85.5z"/>
		<path class="st2" d="M125.6,87c0.3-0.1,0.8-0.1,1.3-0.1c1.5,0,2.5,0.2,2.9,0.5c0.3,0.2,0.4,0.6,0.4,0.9c0,0.4-0.1,0.7-0.4,0.9
			c-0.3,0.2-0.6,0.4-1.1,0.4c-0.4,0-0.7,0.1-0.8,0.3c-0.1,0.2-0.2,0.7-0.2,1.5c0,0.2,0,0.9,0.1,2.1c0.1,1.4,0.1,2.3,0.2,2.7
			c0.1,0.4,0.2,0.6,0.3,0.6c0,0,0.2,0,0.6,0c0.3,0,0.6,0,0.8,0c0.7,0,1.2,0.2,1.5,0.5c0.2,0.2,0.3,0.4,0.3,0.6
			c0,0.4-0.6,0.9-1.8,1.3c-0.7,0.2-1.1,0.4-1.3,0.6c-0.1,0.1-0.2,0.4-0.3,0.9c-0.1,0.4-0.1,0.8-0.1,1.2c0,1.4,0.1,2.4,0.4,3.1
			c0.1,0.3,0.2,0.5,0.4,0.5s0.4,0.1,0.9,0.1c0.6,0,1.1,0.1,1.5,0.4s0.6,0.6,0.6,1c0,0.2-0.2,0.6-0.6,1c-0.7,0.6-1.8,1-3.4,1
			s-2.7-0.4-3.2-1c-0.3-0.4-0.5-2.8-0.5-7.2c-0.1-5.5-0.1-8.8-0.2-9.7l-0.1-3.1l0.6-0.3C124.8,87.3,125.3,87.1,125.6,87z"/>
		<path class="st3" d="M279.8,77c-0.3-1.5-0.7-3-1.2-4.5c-0.2-0.5,0-1.1,0.5-1.4l2.9-1.7c1-0.6,1.4-1.9,0.8-2.9l-5.5-9.5
			c-0.6-1-1.9-1.4-2.9-0.8l-2.9,1.6c-0.5,0.3-1.1,0.2-1.5-0.2c-1-1.2-2.1-2.3-3.3-3.3c-0.4-0.4-0.5-1-0.2-1.5l1.6-2.9
			c0.6-1,0.2-2.3-0.8-2.9l-9.5-5.5c-1-0.6-2.3-0.2-2.9,0.8l-1.7,2.9c-0.3,0.5-0.9,0.7-1.4,0.5c-1.5-0.5-3-0.9-4.5-1.2
			c-0.6-0.1-1-0.6-1-1.1v-3.3c0-1.2-1-2.1-2.1-2.1h-5.5h-5.3c-1.2,0-2.1,1-2.1,2.1v3.3c0,0.6-0.4,1-0.9,1.1
			c-1.5,0.3-3.1,0.7-4.5,1.2c-0.5,0.2-1.1,0-1.4-0.5l-1.7-2.9c-0.6-1-1.9-1.4-2.9-0.8l-6.5,3.8l-3,1.7c-1,0.6-1.4,1.9-0.8,2.9
			l1.7,2.9c0.3,0.5,0.2,1.1-0.2,1.5c-1.2,1-2.3,2.1-3.3,3.3c-0.4,0.4-1,0.5-1.5,0.2l-2.9-1.6c-1-0.6-2.3-0.2-2.9,0.8l-5.5,9.5
			c-0.6,1-0.2,2.3,0.8,2.9l2.9,1.7c0.5,0.3,0.7,0.9,0.5,1.4c-0.1,0.2-0.1,0.4-0.2,0.6c-0.3,1-0.6,2.1-0.8,3.2
			c-0.1,0.2-0.1,0.5-0.2,0.7c-0.1,0.6-0.6,1-1.1,1h-3.3c-1.2,0-2.1,1-2.1,2.1v5.5v5.5c0,1.2,1,2.1,2.1,2.1h3.3c0.6,0,1,0.4,1.1,0.9
			c0.3,1.5,0.7,3.1,1.2,4.5c0.2,0.5,0,1.1-0.5,1.4l-2.9,1.7c-1,0.6-1.4,1.9-0.8,2.9l5.5,9.5c0.6,1,1.9,1.4,2.9,0.8l2.9-1.6
			c0.5-0.3,1.1-0.2,1.5,0.2c1,1.2,2.1,2.3,3.3,3.3c0.4,0.4,0.5,1,0.2,1.5l-1.7,2.9c-0.6,1-0.2,2.3,0.8,2.9l9.5,5.5
			c1,0.6,2.3,0.2,2.9-0.8l1.7-2.9c0.3-0.5,0.9-0.7,1.4-0.5c1.5,0.5,3,0.9,4.5,1.2c0.6,0.1,1,0.6,1,1.1v3.3c0,1.2,1,2.1,2.1,2.1h5.5
			h5.5c1.2,0,2.1-1,2.1-2.1v-3.3c0-0.6,0.4-1,0.9-1.1c1.5-0.3,3.1-0.7,4.5-1.2c0.5-0.2,1.1,0,1.4,0.5l1.7,2.9c0.6,1,1.9,1.4,2.9,0.8
			l9.5-5.5c1-0.6,1.4-1.9,0.8-2.9l-1.6-2.9c-0.3-0.5-0.2-1.1,0.2-1.5c1.2-1,2.3-2.1,3.3-3.3c0.4-0.4,1-0.5,1.5-0.2l2.9,1.6
			c1,0.6,2.3,0.2,2.9-0.8l5.5-9.5c0.6-1,0.2-2.3-0.8-2.9l-2.9-1.7c-0.5-0.3-0.7-0.9-0.5-1.4c0.5-1.5,0.9-3,1.2-4.5
			c0.1-0.5,0.6-0.9,1.1-0.9h3.3c1.2,0,2.1-1,2.1-2.1v-5.5v-5.5c0-1.2-1-2.1-2.1-2.1h-3.3C280.4,77.9,279.9,77.5,279.8,77z"/>
		<path class="st0" d="M238.9,120.5c19.3,0,35-15.7,35-35s-15.7-35-35-35s-35,15.7-35,35S219.6,120.5,238.9,120.5z"/>
		<path class="st2" d="M302.9,102.1c-0.7,1.1-0.8,1.7-2,1s-1.7-2.2-1-3.4c10.1-18.5,4.1-42.6-14.4-52.6c-1.2-0.6,3.1-8.7,4.3-8
			c20.9,11.4,24.5,42.3,13.1,63.2C302.9,102.4,302.9,102,302.9,102.1z"/>
		<path class="st2" d="M295.7,99.3l0.8,8.5c0.1,1.2,1.5,1.8,2.5,1.1l8.6-6.2c1-0.8,0.5-2.4-0.8-2.4l-5.3,0.2l-3.6-2.5
			C296.9,97.5,295.6,98.2,295.7,99.3z"/>
		<path class="st2" d="M176.7,72.4c0.6-1.2,0.7-1.7,1.9-1.2c1.2,0.6,1.8,2.1,1.2,3.3c-8.8,19.2-1.2,42.7,17.9,51.6
			c1.2,0.6-2.5,8.9-3.8,8.3c-21.7-10-27.3-40.5-17.3-62.2C176.7,72.1,176.7,72.4,176.7,72.4z"/>
		<path class="st2" d="M184.1,74.7l-1.3-8.4c-0.2-1.2-1.6-1.7-2.5-0.9l-8.1,6.8c-1,0.8-0.3,2.5,1,2.3l5.3-0.6l3.7,2.2
			C183.1,76.6,184.3,75.8,184.1,74.7z"/>
		<path class="st2" d="M235.6,71.2c1.5-0.5,2.9-1,4.3-1.4c0.7-0.2,1.4-0.4,2.2-0.4c0.4,0,1,0.3,1.1,0.7c0.1,0.3-0.1,0.9-0.4,1.3
			c-0.2,0.3-0.7,0.6-1.1,0.8c-2.4,1-4.7,2-7.1,3c-1.6,0.6-2.7-0.1-2.6-1.8c0.1-3.4,0.3-6.9,0.5-10.3c0-0.3,0.1-0.6,0.1-1
			c0-1.2-0.3-1.4-1.4-0.9c-0.4,0.2-0.8,0.4-1.2,0.5c-1.1,0.3-2.2-0.1-2.6-1.1c-0.4-1,0.1-2.1,1.1-2.6c1.8-0.8,3.7-1.6,5.5-2.4
			c0.9-0.4,1.9-0.1,2.3,0.8c0.4,0.9,0.6,1.9,0.5,2.9c-0.1,1.7-0.6,3.4-0.7,5C235.9,66.5,235.8,68.7,235.6,71.2z"/>
		<path class="st2" d="M250.1,60.6c1.6-0.5,3.1-1,4.6-1.5c0.8-0.2,1.6-0.4,2.3-0.4c0.4,0,1.1,0.4,1.2,0.7c0.1,0.4-0.1,1-0.4,1.4
			s-0.7,0.6-1.2,0.8c-2.5,1.1-5.1,2.1-7.6,3.1c-1.7,0.7-2.9-0.1-2.8-2c0.2-3.7,0.4-7.4,0.6-11c0-0.4,0.1-0.7,0.1-1
			c0-1.2-0.3-1.5-1.5-1c-0.4,0.2-0.8,0.4-1.2,0.5c-1.2,0.4-2.4-0.2-2.8-1.2s0.1-2.3,1.2-2.8c2-0.9,4-1.7,6-2.5
			c1-0.4,2.1-0.1,2.4,0.9c0.4,1,0.6,2.1,0.6,3.1c-0.1,1.8-0.6,3.6-0.8,5.4C250.5,55.6,250.3,58,250.1,60.6z"/>
		<path class="st2" d="M263.4,48.6c2.1-0.5,4-1,5.9-1.5c1-0.2,2-0.4,2.9-0.4c0.5,0,1.3,0.5,1.4,1s-0.2,1.2-0.6,1.7
			c-0.4,0.4-1,0.7-1.5,0.9c-3.2,1.1-6.5,2.3-9.8,3.3c-2.2,0.7-3.6-0.3-3.3-2.7c0.5-4.6,1.1-9.2,1.6-13.8c0-0.4,0.1-0.9,0.2-1.3
			c0.1-1.6-0.3-1.9-1.8-1.3c-0.5,0.2-1.1,0.4-1.6,0.6c-1.5,0.4-3-0.4-3.4-1.7s0.3-2.9,1.8-3.4c2.5-0.9,5.1-1.8,7.7-2.6
			c1.2-0.4,2.6,0.1,3,1.2c0.4,1.2,0.6,2.6,0.5,3.9c-0.3,2.3-1,4.5-1.5,6.7C264.2,42.3,263.9,45.3,263.4,48.6z"/>
		<path class="st3" d="M258.2,92.4h-28.5v-0.9c0-4.3,3.5-7.9,7.9-7.9h14c3.7,0,6.7,3,6.7,6.7v2.1L258.2,92.4L258.2,92.4z"/>
		<path class="st3" d="M227.3,91.5c2.4,0,4.4-2,4.4-4.4s-2-4.4-4.4-4.4s-4.4,2-4.4,4.4C223,89.5,224.9,91.5,227.3,91.5z"/>
		<path class="st2" d="M217.7,88.6V95h38.5v8c0,0.7,0.6,1.3,1.3,1.3h3.7c0.7,0,1.3-0.6,1.3-1.3V90.6c0-1.1-0.9-2-2-2H217.7z"/>
		<path class="st2" d="M221.7,104.3h-2.8c-1,0-1.8-0.8-1.8-1.8V79.4c0-1,0.8-1.8,1.8-1.8h2.8c1,0,1.8,0.8,1.8,1.8v23.1
			C223.5,103.5,222.7,104.3,221.7,104.3z"/>
		<path class="st4" d="M264.8,58.1c6,2.6,8.8,10.9,9.2,14.2"/>
	</g>
</g>
</svg>
