<?xml version="1.0" encoding="utf-8"?>
<!-- Generator: Adobe Illustrator 25.1.0, SVG Export Plug-In . SVG Version: 6.00 Build 0)  -->
<svg version="1.1" id="Layer_1" xmlns="http://www.w3.org/2000/svg" xmlns:xlink="http://www.w3.org/1999/xlink" x="0px" y="0px"
	 viewBox="0 0 351.1 521.5" style="enable-background:new 0 0 351.1 521.5;" xml:space="preserve">
<style type="text/css">
	.st0{fill:#FFFFFF;}
	.st1{fill:#808080;}
	.st2{fill:#28C86E;}
	.st3{fill:#F4F1EF;}
	.st4{fill:#E97443;}
	.st5{fill:#00CDDC;}
	.st6{fill:#32DCD2;}
	.st7{fill:none;stroke:#28C86E;stroke-width:2;stroke-linecap:round;stroke-miterlimit:10;}
	.st8{fill:#FFCF8D;}
	.st9{fill:#FF9F1A;}
	.st10{opacity:0.27;fill:url(#SVGID_1_);enable-background:new    ;}
	.st11{fill:#00A878;}
</style>
<path class="st0" d="M333.6,26.9C320.7-1.5,107.9-8.8,46,11.7C-23.6,34.8,5.6,100,8.4,259.4c1.8,101-8.9,227,7.3,245.8
	c16.2,18.7,266.6,23.2,320.6,3.2C363.4,498.3,347.5,57.5,333.6,26.9z"/>
<path class="st1" d="M40.8,58.8V47.6h1.3v10.1h5.2v1.1L40.8,58.8L40.8,58.8z"/>
<path class="st1" d="M51.8,59c-0.7,0-1.2-0.1-1.7-0.3c-0.4-0.2-0.8-0.5-1-0.9s-0.3-0.8-0.3-1.2c0-0.8,0.3-1.4,0.9-1.9
	c0.6-0.4,1.5-0.7,2.5-0.7h2.1v-0.1c0-0.7-0.2-1.2-0.5-1.6s-0.8-0.5-1.5-0.5c-0.5,0-1,0.1-1.4,0.4c-0.4,0.3-0.6,0.6-0.7,1.1H49
	c0-0.6,0.2-1.1,0.6-1.5c0.3-0.4,0.8-0.7,1.3-0.9s1-0.3,1.6-0.3c1.1,0,1.9,0.3,2.5,0.9c0.6,0.6,0.8,1.4,0.8,2.4v4.9h-1.2l-0.1-1.4
	c-0.2,0.4-0.6,0.8-1,1.1C53.1,58.8,52.5,59,51.8,59z M52,57.8c0.5,0,0.9-0.1,1.3-0.4s0.7-0.6,0.8-1c0.2-0.4,0.3-0.9,0.3-1.3l0,0h-2
	c-0.8,0-1.3,0.1-1.7,0.4c-0.3,0.3-0.5,0.6-0.5,1s0.1,0.8,0.5,1C51,57.7,51.4,57.8,52,57.8z"/>
<path class="st1" d="M61.4,59c-0.8,0-1.4-0.2-2-0.5c-0.6-0.4-1.1-0.8-1.4-1.5c-0.3-0.6-0.5-1.4-0.5-2.2s0.2-1.6,0.5-2.2
	c0.4-0.6,0.8-1.1,1.4-1.5c0.6-0.3,1.3-0.5,2-0.5c0.9,0,1.7,0.2,2.4,0.7c0.7,0.5,1,1.2,1.2,2h-1.4c-0.1-0.5-0.4-0.9-0.8-1.1
	c-0.4-0.3-0.9-0.4-1.5-0.4c-0.4,0-0.9,0.1-1.3,0.3s-0.7,0.6-1,1s-0.4,1-0.4,1.7s0.1,1.2,0.4,1.7c0.2,0.4,0.6,0.8,1,1
	s0.8,0.3,1.3,0.3c0.6,0,1-0.1,1.5-0.4s0.7-0.7,0.8-1.2H65c-0.2,0.8-0.6,1.4-1.2,1.9C63.2,58.7,62.4,59,61.4,59z"/>
<path class="st1" d="M66.9,58.8V47.3h1.3v6.9l3.2-3.3H73l-3.5,3.6l4,4.3h-1.7l-3.6-4.1v4.1H66.9z"/>
<path class="st1" d="M82.8,59c-0.8,0-1.4-0.2-2-0.5s-1.1-0.8-1.4-1.4c-0.4-0.6-0.5-1.4-0.5-2.2s0.2-1.6,0.5-2.2
	c0.4-0.6,0.8-1.1,1.4-1.4s1.3-0.5,2-0.5c0.8,0,1.4,0.2,2,0.5s1.1,0.8,1.4,1.4c0.4,0.6,0.5,1.4,0.5,2.2s-0.2,1.6-0.5,2.2
	c-0.4,0.6-0.8,1.1-1.4,1.4S83.6,59,82.8,59z M82.8,57.8c0.5,0,0.9-0.1,1.3-0.3s0.7-0.6,1-1s0.4-1,0.4-1.7s-0.1-1.2-0.4-1.7
	c-0.2-0.4-0.6-0.8-0.9-1c-0.4-0.2-0.8-0.3-1.3-0.3s-0.9,0.1-1.3,0.3s-0.7,0.6-1,1s-0.4,1-0.4,1.7s0.1,1.2,0.4,1.7
	c0.2,0.4,0.6,0.8,0.9,1C82,57.7,82.4,57.8,82.8,57.8z"/>
<path class="st1" d="M89.1,58.8V52h-1.2v-1.1h1.2v-1.4c0-0.8,0.2-1.3,0.6-1.7c0.4-0.3,0.9-0.5,1.7-0.5h0.8v1.2h-0.6
	c-0.4,0-0.7,0.1-0.9,0.2s-0.3,0.4-0.3,0.8v1.3h1.9v1.1h-1.9v6.8L89.1,58.8L89.1,58.8z"/>
<path class="st1" d="M101.3,59c-1,0-1.7-0.2-2.4-0.7c-0.6-0.5-1-1.1-1.1-1.9h1.4c0.1,0.4,0.3,0.8,0.7,1.1c0.4,0.3,0.8,0.5,1.4,0.5
	s1-0.1,1.2-0.4c0.3-0.2,0.4-0.5,0.4-0.9c0-0.5-0.2-0.8-0.5-1c-0.4-0.2-0.8-0.3-1.5-0.4c-0.4-0.1-0.8-0.2-1.3-0.4
	c-0.4-0.2-0.8-0.4-1.1-0.7c-0.3-0.3-0.4-0.7-0.4-1.2c0-0.7,0.3-1.3,0.8-1.7s1.2-0.7,2.1-0.7c0.8,0,1.5,0.2,2.1,0.6s0.8,1,0.9,1.8
	h-1.3c-0.1-0.4-0.2-0.7-0.5-1c-0.3-0.2-0.7-0.3-1.2-0.3s-0.8,0.1-1.1,0.3c-0.3,0.2-0.4,0.5-0.4,0.8s0.2,0.6,0.5,0.8s0.8,0.3,1.4,0.5
	c0.5,0.1,1,0.2,1.4,0.4s0.8,0.4,1.1,0.7c0.3,0.3,0.4,0.7,0.4,1.3c0,0.7-0.3,1.3-0.8,1.8C103,58.8,102.2,59,101.3,59z"/>
<path class="st1" d="M106.3,58.8V47.3h1.3v11.5H106.3z"/>
<path class="st1" d="M113.4,59c-0.8,0-1.4-0.2-2-0.5c-0.6-0.4-1-0.8-1.4-1.5c-0.3-0.6-0.5-1.3-0.5-2.2c0-0.8,0.2-1.6,0.5-2.2
	s0.8-1.1,1.4-1.5c0.6-0.3,1.3-0.5,2.1-0.5c0.8,0,1.4,0.2,2,0.5c0.6,0.4,1,0.8,1.3,1.4c0.3,0.6,0.4,1.2,0.4,1.8c0,0.1,0,0.2,0,0.4
	c0,0.1,0,0.2,0,0.4h-6.3c0,0.6,0.2,1.1,0.4,1.5c0.2,0.4,0.6,0.7,0.9,0.9c0.4,0.2,0.8,0.3,1.2,0.3c0.5,0,1-0.1,1.4-0.4
	c0.4-0.3,0.6-0.6,0.8-1h1.3c-0.2,0.7-0.6,1.3-1.2,1.8C115.1,58.7,114.3,59,113.4,59z M113.4,51.8c-0.6,0-1.2,0.2-1.7,0.6
	c-0.5,0.4-0.8,1-0.9,1.7h5c0-0.7-0.3-1.3-0.7-1.7C114.6,52,114.1,51.8,113.4,51.8z"/>
<path class="st1" d="M122.5,59c-0.8,0-1.4-0.2-2-0.5c-0.6-0.4-1.1-0.8-1.4-1.5c-0.3-0.6-0.5-1.3-0.5-2.2c0-0.8,0.2-1.6,0.5-2.2
	c0.3-0.6,0.8-1.1,1.4-1.5c0.6-0.3,1.3-0.5,2.1-0.5s1.4,0.2,2,0.5c0.6,0.4,1,0.8,1.3,1.4c0.3,0.6,0.5,1.2,0.5,1.8c0,0.1,0,0.2,0,0.4
	c0,0.1,0,0.2,0,0.4h-6.3c0,0.6,0.2,1.1,0.4,1.5s0.6,0.7,0.9,0.9c0.4,0.2,0.8,0.3,1.2,0.3c0.6,0,1-0.1,1.4-0.4c0.4-0.3,0.6-0.6,0.8-1
	h1.3c-0.2,0.7-0.6,1.3-1.2,1.8C124.2,58.7,123.4,59,122.5,59z M122.5,51.8c-0.6,0-1.2,0.2-1.7,0.6c-0.5,0.4-0.8,1-0.9,1.7h5
	c0-0.7-0.3-1.3-0.7-1.7C123.7,52,123.2,51.8,122.5,51.8z"/>
<path class="st1" d="M128,62.3V50.8h1.2l0.1,1.3c0.3-0.4,0.6-0.7,1.1-1s1.1-0.5,1.8-0.5c0.8,0,1.5,0.2,2.1,0.5
	c0.6,0.4,1,0.9,1.4,1.5c0.3,0.6,0.5,1.3,0.5,2.1s-0.2,1.5-0.5,2.1s-0.8,1.1-1.4,1.5c-0.6,0.4-1.3,0.5-2.1,0.5
	c-0.6,0-1.2-0.1-1.7-0.4c-0.5-0.3-0.9-0.6-1.2-1.1v4.8H128V62.3z M132.1,57.8c0.5,0,1-0.1,1.4-0.4c0.4-0.2,0.7-0.6,1-1
	c0.2-0.5,0.4-1,0.4-1.6s-0.1-1.1-0.4-1.6c-0.2-0.5-0.6-0.8-1-1.1c-0.4-0.2-0.9-0.4-1.4-0.4s-1,0.1-1.4,0.4s-0.7,0.6-1,1.1
	c-0.2,0.4-0.4,1-0.4,1.6s0.1,1.1,0.4,1.6c0.2,0.4,0.5,0.8,1,1C131.1,57.7,131.6,57.8,132.1,57.8z"/>
<path class="st1" d="M146,59c-0.8,0-1.4-0.2-2-0.5c-0.6-0.4-1.1-0.8-1.4-1.5c-0.4-0.6-0.5-1.4-0.5-2.2s0.2-1.6,0.5-2.2
	c0.3-0.6,0.8-1.1,1.4-1.5c0.6-0.3,1.3-0.5,2-0.5c0.9,0,1.7,0.2,2.4,0.7c0.6,0.5,1.1,1.2,1.2,2h-1.4c-0.1-0.5-0.4-0.9-0.8-1.1
	c-0.4-0.3-0.9-0.4-1.5-0.4c-0.4,0-0.9,0.1-1.3,0.3c-0.4,0.2-0.7,0.6-1,1s-0.4,1-0.4,1.7s0.1,1.2,0.4,1.7c0.2,0.4,0.6,0.8,1,1
	s0.8,0.3,1.3,0.3c0.6,0,1-0.1,1.5-0.4s0.7-0.7,0.8-1.2h1.4c-0.2,0.8-0.6,1.4-1.2,1.9C147.7,58.7,146.9,59,146,59z"/>
<path class="st1" d="M154.1,59c-0.7,0-1.2-0.1-1.6-0.3c-0.4-0.2-0.8-0.5-1-0.9s-0.3-0.8-0.3-1.2c0-0.8,0.3-1.4,0.9-1.9
	c0.6-0.4,1.5-0.7,2.5-0.7h2.1v-0.1c0-0.7-0.2-1.2-0.5-1.6s-0.9-0.5-1.5-0.5c-0.5,0-1,0.1-1.4,0.4c-0.4,0.3-0.6,0.6-0.7,1.1h-1.4
	c0-0.6,0.2-1.1,0.6-1.5c0.3-0.4,0.8-0.7,1.3-0.9s1-0.3,1.6-0.3c1.1,0,1.9,0.3,2.5,0.9c0.6,0.6,0.8,1.4,0.8,2.4v4.9h-1.2l-0.1-1.4
	c-0.2,0.4-0.6,0.8-1,1.1C155.4,58.8,154.8,59,154.1,59z M154.3,57.8c0.5,0,0.9-0.1,1.3-0.4c0.4-0.3,0.7-0.6,0.8-1
	c0.2-0.4,0.3-0.9,0.3-1.3l0,0h-2c-0.8,0-1.4,0.1-1.7,0.4c-0.3,0.3-0.5,0.6-0.5,1s0.1,0.8,0.5,1C153.3,57.7,153.7,57.8,154.3,57.8z"
	/>
<path class="st1" d="M160.1,58.8v-7.9h1.2l0.1,1.4c0.3-0.5,0.6-0.9,1.1-1.2s1-0.4,1.6-0.4c0.9,0,1.7,0.3,2.2,0.9
	c0.6,0.6,0.8,1.4,0.8,2.6v4.6h-1.3v-4.5c0-1.6-0.7-2.5-2.1-2.5c-0.7,0-1.2,0.2-1.7,0.7s-0.7,1.2-0.7,2.1v4.1L160.1,58.8L160.1,58.8z
	"/>
<path class="st1" d="M173.5,58.8V47.3h1.3v11.5H173.5z"/>
<path class="st1" d="M180.6,59c-0.8,0-1.4-0.2-2-0.5c-0.6-0.4-1.1-0.8-1.4-1.5c-0.3-0.6-0.5-1.3-0.5-2.2c0-0.8,0.2-1.6,0.5-2.2
	c0.3-0.6,0.8-1.1,1.4-1.5c0.6-0.3,1.3-0.5,2.1-0.5s1.4,0.2,2,0.5c0.6,0.4,1,0.8,1.3,1.4c0.3,0.6,0.5,1.2,0.5,1.8c0,0.1,0,0.2,0,0.4
	c0,0.1,0,0.2,0,0.4H178c0,0.6,0.2,1.1,0.4,1.5s0.6,0.7,0.9,0.9c0.4,0.2,0.8,0.3,1.2,0.3c0.6,0,1-0.1,1.4-0.4c0.4-0.3,0.6-0.6,0.8-1
	h1.3c-0.2,0.7-0.6,1.3-1.2,1.8C182.3,58.7,181.5,59,180.6,59z M180.6,51.8c-0.6,0-1.2,0.2-1.7,0.6c-0.5,0.4-0.8,1-0.9,1.7h5
	c0-0.7-0.3-1.3-0.7-1.7C181.8,52,181.3,51.8,180.6,51.8z"/>
<path class="st1" d="M188.8,59c-0.7,0-1.2-0.1-1.6-0.3c-0.4-0.2-0.8-0.5-1-0.9s-0.3-0.8-0.3-1.2c0-0.8,0.3-1.4,0.9-1.9
	c0.6-0.4,1.5-0.7,2.5-0.7h2.1v-0.1c0-0.7-0.2-1.2-0.5-1.6s-0.8-0.5-1.5-0.5c-0.5,0-1,0.1-1.4,0.4c-0.4,0.3-0.6,0.6-0.7,1.1H186
	c0.1-0.6,0.2-1.1,0.6-1.5c0.3-0.4,0.8-0.7,1.3-0.9s1-0.3,1.6-0.3c1.1,0,1.9,0.3,2.5,0.9c0.6,0.6,0.8,1.4,0.8,2.4v4.9h-1.2l-0.1-1.4
	c-0.2,0.4-0.6,0.8-1,1.1C190.1,58.8,189.5,59,188.8,59z M189,57.8c0.5,0,0.9-0.1,1.3-0.4c0.4-0.3,0.7-0.6,0.8-1
	c0.2-0.4,0.3-0.9,0.3-1.3l0,0h-2c-0.8,0-1.4,0.1-1.7,0.4c-0.3,0.3-0.5,0.6-0.5,1s0.2,0.8,0.5,1C188,57.7,188.4,57.8,189,57.8z"/>
<path class="st1" d="M198.4,59c-0.8,0-1.5-0.2-2.1-0.5s-1.1-0.9-1.4-1.5c-0.3-0.6-0.5-1.3-0.5-2.1s0.2-1.5,0.5-2.1s0.8-1.1,1.4-1.5
	c0.6-0.4,1.3-0.5,2.1-0.5c0.7,0,1.2,0.1,1.7,0.4s0.9,0.6,1.2,1.1v-4.9h1.3v11.5h-1.2l-0.1-1.3c-0.3,0.4-0.6,0.7-1.1,1
	C199.7,58.8,199.1,59,198.4,59z M198.5,57.8c0.5,0,1-0.1,1.4-0.4s0.7-0.6,1-1c0.2-0.5,0.3-1,0.3-1.6s-0.1-1.1-0.3-1.6
	s-0.5-0.8-1-1.1s-0.9-0.4-1.4-0.4s-1,0.1-1.4,0.4c-0.4,0.2-0.7,0.6-1,1.1c-0.2,0.4-0.3,1-0.3,1.6s0.1,1.1,0.3,1.6
	c0.2,0.4,0.6,0.8,1,1C197.5,57.7,198,57.8,198.5,57.8z"/>
<path class="st1" d="M212.2,58.8c-0.7,0-1.3-0.2-1.7-0.5s-0.6-1-0.6-1.9V52h-1.4v-1.1h1.4l0.2-1.9h1.2v1.9h2.3V52h-2.3v4.4
	c0,0.5,0.1,0.8,0.3,1s0.6,0.3,1.1,0.3h0.8v1.1H212.2z"/>
<path class="st1" d="M218.7,59c-0.8,0-1.4-0.2-2-0.5s-1.1-0.8-1.4-1.4c-0.4-0.6-0.5-1.4-0.5-2.2s0.2-1.6,0.5-2.2
	c0.3-0.6,0.8-1.1,1.4-1.4c0.6-0.3,1.3-0.5,2-0.5c0.8,0,1.4,0.2,2,0.5s1.1,0.8,1.4,1.4c0.4,0.6,0.5,1.4,0.5,2.2s-0.2,1.6-0.5,2.2
	c-0.4,0.6-0.8,1.1-1.4,1.4S219.4,59,218.7,59z M218.7,57.8c0.5,0,0.9-0.1,1.3-0.3c0.4-0.2,0.7-0.6,1-1s0.4-1,0.4-1.7
	s-0.1-1.2-0.4-1.7c-0.2-0.4-0.6-0.8-0.9-1c-0.4-0.2-0.8-0.3-1.3-0.3s-0.9,0.1-1.3,0.3c-0.4,0.2-0.7,0.6-1,1s-0.4,1-0.4,1.7
	s0.1,1.2,0.4,1.7c0.2,0.4,0.6,0.8,0.9,1C217.8,57.7,218.2,57.8,218.7,57.8z"/>
<path class="st1" d="M229.6,49.1c-0.3,0-0.5-0.1-0.7-0.3s-0.3-0.4-0.3-0.7s0.1-0.5,0.3-0.6c0.2-0.2,0.4-0.3,0.7-0.3s0.5,0.1,0.7,0.3
	s0.3,0.4,0.3,0.6c0,0.3-0.1,0.5-0.3,0.7C230,49,229.8,49.1,229.6,49.1z M228.9,58.8v-7.9h1.3v7.9H228.9z"/>
<path class="st1" d="M232.6,58.8v-7.9h1.2l0.1,1.1c0.3-0.4,0.6-0.8,1-1s0.9-0.3,1.4-0.3c0.6,0,1.2,0.1,1.6,0.4
	c0.4,0.3,0.8,0.7,1.1,1.2c0.3-0.5,0.7-0.9,1.1-1.1c0.5-0.3,1-0.4,1.6-0.4c0.9,0,1.7,0.3,2.3,0.9c0.6,0.6,0.8,1.5,0.8,2.6v4.6h-1.3
	v-4.5c0-0.8-0.2-1.4-0.5-1.9s-0.8-0.6-1.4-0.6c-0.6,0-1.2,0.2-1.6,0.7c-0.4,0.5-0.6,1.2-0.6,2.1v4.1h-1.3v-4.5
	c0-0.8-0.2-1.4-0.5-1.9s-0.8-0.6-1.4-0.6c-0.6,0-1.2,0.2-1.6,0.7c-0.4,0.5-0.6,1.2-0.6,2.1v4.1L232.6,58.8L232.6,58.8z"/>
<path class="st1" d="M246.9,62.3V50.8h1.2l0.1,1.3c0.3-0.4,0.6-0.7,1.1-1s1.1-0.5,1.8-0.5c0.8,0,1.5,0.2,2.1,0.5
	c0.6,0.4,1,0.9,1.4,1.5c0.3,0.6,0.5,1.3,0.5,2.1s-0.2,1.5-0.5,2.1s-0.8,1.1-1.4,1.5s-1.3,0.5-2.1,0.5c-0.7,0-1.2-0.1-1.7-0.4
	c-0.5-0.3-0.9-0.6-1.2-1.1v4.8h-1.3V62.3z M251,57.8c0.5,0,1-0.1,1.4-0.4c0.4-0.2,0.7-0.6,1-1c0.2-0.5,0.4-1,0.4-1.6
	s-0.1-1.1-0.4-1.6c-0.2-0.5-0.6-0.8-1-1.1c-0.4-0.2-0.9-0.4-1.4-0.4s-1,0.1-1.4,0.4s-0.7,0.6-1,1.1c-0.2,0.4-0.3,1-0.3,1.6
	s0.1,1.1,0.3,1.6c0.2,0.4,0.6,0.8,1,1C250,57.7,250.5,57.8,251,57.8z"/>
<path class="st1" d="M259.6,59c-0.7,0-1.2-0.1-1.6-0.3s-0.8-0.5-1-0.9s-0.3-0.8-0.3-1.2c0-0.8,0.3-1.4,0.9-1.9
	c0.6-0.4,1.5-0.7,2.5-0.7h2.1v-0.1c0-0.7-0.2-1.2-0.5-1.6c-0.4-0.4-0.9-0.5-1.5-0.5c-0.5,0-1,0.1-1.4,0.4c-0.4,0.3-0.6,0.6-0.7,1.1
	h-1.4c0-0.6,0.2-1.1,0.6-1.5c0.3-0.4,0.8-0.7,1.3-0.9s1-0.3,1.6-0.3c1.1,0,1.9,0.3,2.5,0.9c0.6,0.6,0.8,1.4,0.8,2.4v4.9h-1.2
	l-0.1-1.4c-0.2,0.4-0.6,0.8-1,1.1C260.9,58.8,260.3,59,259.6,59z M259.8,57.8c0.5,0,1-0.1,1.3-0.4s0.6-0.6,0.8-1
	c0.2-0.4,0.3-0.9,0.3-1.3l0,0h-2c-0.8,0-1.4,0.1-1.7,0.4c-0.3,0.3-0.5,0.6-0.5,1s0.1,0.8,0.5,1C258.8,57.7,259.2,57.8,259.8,57.8z"
	/>
<path class="st1" d="M266.4,49.1c-0.3,0-0.5-0.1-0.7-0.3s-0.3-0.4-0.3-0.7s0.1-0.5,0.3-0.6c0.2-0.2,0.4-0.3,0.7-0.3s0.5,0.1,0.7,0.3
	s0.3,0.4,0.3,0.6c0,0.3-0.1,0.5-0.3,0.7C266.9,49,266.7,49.1,266.4,49.1z M265.8,58.8v-7.9h1.3v7.9H265.8z"/>
<path class="st1" d="M269.4,58.8v-7.9h1.2l0.1,1.5c0.2-0.5,0.6-0.9,1.1-1.2s1.1-0.5,1.9-0.5v1.4h-0.4c-0.5,0-0.9,0.1-1.3,0.2
	c-0.4,0.2-0.7,0.4-0.9,0.8c-0.2,0.4-0.4,0.9-0.4,1.6v4L269.4,58.8L269.4,58.8z"/>
<path class="st1" d="M278.5,59c-0.8,0-1.4-0.2-2-0.5c-0.6-0.4-1-0.8-1.4-1.5c-0.3-0.6-0.5-1.3-0.5-2.2c0-0.8,0.2-1.6,0.5-2.2
	c0.3-0.6,0.8-1.1,1.4-1.5c0.6-0.3,1.3-0.5,2.1-0.5c0.8,0,1.4,0.2,2,0.5c0.6,0.4,1,0.8,1.3,1.4c0.3,0.6,0.5,1.2,0.5,1.8
	c0,0.1,0,0.2,0,0.4s0,0.2,0,0.4h-6.3c0,0.6,0.2,1.1,0.4,1.5c0.2,0.4,0.6,0.7,0.9,0.9c0.4,0.2,0.8,0.3,1.2,0.3c0.6,0,1-0.1,1.4-0.4
	c0.4-0.3,0.6-0.6,0.8-1h1.3c-0.2,0.7-0.6,1.3-1.2,1.8C280.2,58.7,279.4,59,278.5,59z M278.5,51.8c-0.6,0-1.2,0.2-1.7,0.6
	c-0.5,0.4-0.8,1-0.9,1.7h5c0-0.7-0.3-1.3-0.7-1.7C279.7,52,279.2,51.8,278.5,51.8z"/>
<path class="st1" d="M287.6,59c-0.8,0-1.5-0.2-2.1-0.5c-0.6-0.4-1-0.9-1.4-1.5c-0.3-0.6-0.5-1.3-0.5-2.1s0.2-1.5,0.5-2.1
	s0.8-1.1,1.4-1.5s1.3-0.5,2.1-0.5c0.6,0,1.2,0.1,1.7,0.4s0.9,0.6,1.2,1.1v-4.9h1.3v11.5h-1.2l-0.1-1.3c-0.3,0.4-0.6,0.7-1.1,1
	C289,58.8,288.4,59,287.6,59z M287.8,57.8c0.5,0,1-0.1,1.4-0.4s0.7-0.6,1-1c0.2-0.5,0.3-1,0.3-1.6s-0.1-1.1-0.3-1.6
	c-0.2-0.5-0.5-0.8-1-1.1s-0.9-0.4-1.4-0.4s-1,0.1-1.4,0.4s-0.7,0.6-1,1.1c-0.2,0.4-0.3,1-0.3,1.6s0.1,1.1,0.3,1.6
	c0.2,0.4,0.5,0.8,1,1C286.8,57.7,287.3,57.8,287.8,57.8z"/>
<path class="st1" d="M40.7,485.6v-7.9H42l0.1,1.2c0.3-0.4,0.6-0.8,1-1s0.9-0.4,1.4-0.4c0.6,0,1.2,0.1,1.6,0.4c0.5,0.3,0.8,0.7,1,1.2
	c0.3-0.5,0.7-0.9,1.1-1.1c0.5-0.3,1-0.4,1.6-0.4c0.9,0,1.7,0.3,2.3,0.9c0.6,0.6,0.8,1.5,0.8,2.6v4.6h-1.3v-4.5
	c0-0.8-0.2-1.4-0.5-1.9c-0.3-0.4-0.8-0.6-1.4-0.6c-0.6,0-1.2,0.2-1.6,0.7c-0.4,0.5-0.6,1.2-0.6,2.1v4.1h-1.3v-4.5
	c0-0.8-0.2-1.4-0.5-1.9c-0.3-0.4-0.8-0.6-1.4-0.6c-0.6,0-1.2,0.2-1.6,0.7c-0.4,0.5-0.6,1.2-0.6,2.1v4.1L40.7,485.6L40.7,485.6z"/>
<path class="st1" d="M57.7,485.8c-0.7,0-1.2-0.1-1.7-0.3c-0.4-0.2-0.8-0.5-1-0.9s-0.3-0.8-0.3-1.2c0-0.8,0.3-1.4,0.9-1.9
	c0.6-0.4,1.5-0.7,2.5-0.7h2.1v-0.1c0-0.7-0.2-1.2-0.5-1.6s-0.8-0.5-1.5-0.5c-0.5,0-1,0.1-1.3,0.4c-0.4,0.3-0.6,0.6-0.7,1.1h-1.4
	c0.1-0.6,0.2-1.1,0.6-1.5c0.3-0.4,0.8-0.7,1.3-0.9s1-0.3,1.6-0.3c1.1,0,1.9,0.3,2.5,0.9c0.6,0.6,0.8,1.4,0.8,2.4v4.9h-1.2l-0.1-1.4
	c-0.2,0.5-0.5,0.8-1,1.1C59,485.7,58.4,485.8,57.7,485.8z M57.9,484.7c0.5,0,1-0.1,1.3-0.4c0.4-0.3,0.7-0.6,0.8-1s0.3-0.9,0.3-1.3
	l0,0h-2c-0.8,0-1.4,0.1-1.7,0.4c-0.3,0.3-0.5,0.6-0.5,1s0.2,0.8,0.5,1C56.9,484.5,57.4,484.7,57.9,484.7z"/>
<path class="st1" d="M63.7,485.6v-11.5H65v6.9l3.2-3.3H70l-3.5,3.6l4,4.3h-1.7l-3.6-4.1v4.1H63.7z"/>
<path class="st1" d="M72.6,475.9c-0.3,0-0.5-0.1-0.7-0.3s-0.3-0.4-0.3-0.7s0.1-0.5,0.3-0.6c0.2-0.2,0.4-0.3,0.7-0.3s0.5,0.1,0.7,0.3
	s0.3,0.4,0.3,0.6c0,0.3-0.1,0.5-0.3,0.7C73.1,475.8,72.9,475.9,72.6,475.9z M71.9,485.6v-7.9h1.3v7.9H71.9z"/>
<path class="st1" d="M75.6,485.6v-7.9h1.2l0.1,1.4c0.3-0.5,0.6-0.9,1.1-1.2s1-0.4,1.6-0.4c0.9,0,1.7,0.3,2.2,0.9
	c0.6,0.6,0.8,1.4,0.8,2.6v4.6h-1.3v-4.5c0-1.6-0.7-2.5-2.1-2.5c-0.7,0-1.2,0.2-1.7,0.7c-0.4,0.5-0.7,1.2-0.7,2.1v4.1L75.6,485.6
	L75.6,485.6z"/>
<path class="st1" d="M87.9,483.1c-0.5,0-0.9-0.1-1.2-0.2l-0.8,0.8c0.1,0.1,0.3,0.2,0.4,0.2s0.4,0.1,0.8,0.2s0.8,0.1,1.4,0.1
	c1.1,0.1,1.8,0.3,2.3,0.7s0.7,1,0.7,1.6c0,0.5-0.1,0.9-0.4,1.3c-0.2,0.4-0.6,0.8-1.2,1c-0.5,0.3-1.2,0.4-2,0.4
	c-0.7,0-1.3-0.1-1.9-0.3s-1-0.5-1.3-0.8s-0.5-0.9-0.5-1.4c0-0.3,0.1-0.6,0.2-1c0.2-0.3,0.5-0.7,0.9-1c-0.2-0.1-0.4-0.2-0.6-0.3
	s-0.3-0.2-0.5-0.4v-0.4l1.4-1.3c-0.6-0.5-0.9-1.2-0.9-2.1c0-0.5,0.1-1,0.4-1.4c0.2-0.4,0.6-0.8,1.1-1s1-0.4,1.7-0.4
	c0.5,0,0.9,0.1,1.3,0.2h2.9v1l-1.5,0.1c0.3,0.5,0.5,1,0.5,1.5s-0.1,1-0.4,1.4c-0.2,0.4-0.6,0.8-1.1,1
	C89.1,483,88.6,483.1,87.9,483.1z M85.6,486.6c0,0.5,0.2,0.9,0.7,1.2s1,0.4,1.7,0.4s1.2-0.1,1.6-0.4c0.4-0.3,0.6-0.7,0.6-1.1
	c0-0.3-0.1-0.6-0.4-0.9s-0.8-0.4-1.5-0.4c-0.6,0-1.1-0.1-1.5-0.2c-0.4,0.2-0.7,0.5-0.9,0.8C85.6,486.2,85.6,486.4,85.6,486.6z
	 M87.9,482c0.6,0,1-0.2,1.4-0.4c0.3-0.3,0.5-0.7,0.5-1.3c0-0.5-0.2-1-0.5-1.3s-0.8-0.4-1.4-0.4s-1,0.2-1.4,0.4
	c-0.3,0.3-0.5,0.7-0.5,1.3s0.2,1,0.5,1.3C86.9,481.9,87.3,482,87.9,482z"/>
<path class="st1" d="M98.6,475.9c-0.3,0-0.5-0.1-0.7-0.3s-0.3-0.4-0.3-0.7s0.1-0.5,0.3-0.6c0.2-0.2,0.4-0.3,0.7-0.3
	c0.3,0,0.5,0.1,0.7,0.3s0.3,0.4,0.3,0.6c0,0.3-0.1,0.5-0.3,0.7C99.1,475.8,98.9,475.9,98.6,475.9z M98,485.6v-7.9h1.3v7.9H98z"/>
<path class="st1" d="M104.8,485.6c-0.7,0-1.3-0.2-1.7-0.5c-0.4-0.4-0.6-1-0.6-1.9v-4.4h-1.4v-1.1h1.4l0.2-1.9h1.2v1.9h2.3v1.1h-2.3
	v4.4c0,0.5,0.1,0.8,0.3,1c0.2,0.2,0.6,0.3,1.1,0.3h0.8v1.1L104.8,485.6L104.8,485.6z"/>
<path class="st1" d="M112.1,485.6v-11.5h1.3v4.9c0.3-0.5,0.7-0.9,1.1-1.1c0.5-0.3,1-0.4,1.6-0.4c0.9,0,1.7,0.3,2.2,0.9
	c0.6,0.6,0.8,1.4,0.8,2.6v4.6h-1.3v-4.5c0-1.6-0.7-2.5-2-2.5c-0.7,0-1.3,0.2-1.7,0.7c-0.5,0.5-0.7,1.2-0.7,2.1v4.1L112.1,485.6
	L112.1,485.6z"/>
<path class="st1" d="M123.9,485.8c-0.7,0-1.2-0.1-1.6-0.3c-0.4-0.2-0.8-0.5-1-0.9s-0.3-0.8-0.3-1.2c0-0.8,0.3-1.4,0.9-1.9
	c0.6-0.4,1.5-0.7,2.5-0.7h2.1v-0.1c0-0.7-0.2-1.2-0.5-1.6s-0.8-0.5-1.5-0.5c-0.5,0-1,0.1-1.4,0.4s-0.6,0.6-0.7,1.1H121
	c0.1-0.6,0.2-1.1,0.6-1.5c0.3-0.4,0.8-0.7,1.3-0.9s1-0.3,1.6-0.3c1.1,0,1.9,0.3,2.5,0.9c0.6,0.6,0.8,1.4,0.8,2.4v4.9h-1.2l-0.1-1.4
	c-0.2,0.5-0.6,0.8-1,1.1C125.2,485.7,124.6,485.8,123.9,485.8z M124.1,484.7c0.5,0,1-0.1,1.3-0.4c0.4-0.3,0.6-0.6,0.8-1
	s0.3-0.9,0.3-1.3l0,0h-2c-0.8,0-1.4,0.1-1.7,0.4c-0.3,0.3-0.5,0.6-0.5,1s0.1,0.8,0.5,1C123.1,484.5,123.5,484.7,124.1,484.7z"/>
<path class="st1" d="M129.9,485.6v-7.9h1.2l0.1,1.5c0.2-0.5,0.6-0.9,1.1-1.2s1.1-0.5,1.9-0.5v1.4h-0.4c-0.5,0-0.9,0.1-1.3,0.2
	c-0.4,0.2-0.7,0.5-0.9,0.8c-0.2,0.4-0.4,0.9-0.4,1.6v4h-1.3V485.6z"/>
<path class="st1" d="M139,485.8c-0.8,0-1.5-0.2-2.1-0.5c-0.6-0.4-1.1-0.9-1.4-1.5c-0.3-0.6-0.5-1.3-0.5-2.1s0.2-1.5,0.5-2.1
	s0.8-1.1,1.4-1.5c0.6-0.4,1.3-0.5,2.1-0.5c0.7,0,1.2,0.1,1.7,0.4c0.5,0.3,0.9,0.6,1.2,1.1v-4.9h1.3v11.5H142l-0.1-1.3
	c-0.3,0.4-0.6,0.7-1.1,1C140.3,485.7,139.7,485.8,139,485.8z M139.1,484.6c0.5,0,1-0.1,1.4-0.4s0.7-0.6,1-1c0.2-0.5,0.3-1,0.3-1.6
	s-0.1-1.1-0.3-1.6s-0.5-0.8-1-1s-0.9-0.4-1.4-0.4s-1,0.1-1.4,0.4s-0.7,0.6-1,1c-0.2,0.5-0.3,1-0.3,1.6s0.1,1.1,0.3,1.6
	c0.2,0.4,0.5,0.8,1,1S138.6,484.6,139.1,484.6z"/>
<path class="st1" d="M152.8,485.6c-0.7,0-1.3-0.2-1.7-0.5c-0.4-0.4-0.6-1-0.6-1.9v-4.4h-1.4v-1.1h1.4l0.2-1.9h1.2v1.9h2.3v1.1h-2.3
	v4.4c0,0.5,0.1,0.8,0.3,1s0.6,0.3,1.1,0.3h0.8v1.1L152.8,485.6L152.8,485.6z"/>
<path class="st1" d="M159.3,485.8c-0.8,0-1.4-0.2-2-0.5s-1.1-0.8-1.4-1.5c-0.3-0.6-0.5-1.4-0.5-2.2s0.2-1.6,0.5-2.2
	c0.3-0.6,0.8-1.1,1.4-1.5c0.6-0.3,1.3-0.5,2-0.5c0.8,0,1.4,0.2,2,0.5s1.1,0.8,1.4,1.5c0.3,0.6,0.5,1.4,0.5,2.2s-0.2,1.6-0.5,2.2
	c-0.4,0.6-0.8,1.1-1.4,1.5C160.7,485.6,160,485.8,159.3,485.8z M159.3,484.7c0.5,0,0.9-0.1,1.3-0.3c0.4-0.2,0.7-0.6,1-1
	s0.4-1,0.4-1.7s-0.1-1.2-0.4-1.7c-0.2-0.4-0.6-0.8-0.9-1c-0.4-0.2-0.8-0.3-1.3-0.3s-0.9,0.1-1.3,0.3c-0.4,0.2-0.7,0.6-1,1
	c-0.2,0.5-0.4,1-0.4,1.7s0.1,1.2,0.4,1.7c0.2,0.5,0.6,0.8,0.9,1C158.4,484.5,158.8,484.7,159.3,484.7z"/>
<path class="st1" d="M173.6,485.8c-0.6,0-1.2-0.1-1.7-0.4c-0.5-0.3-0.9-0.6-1.2-1.1l-0.1,1.3h-1.2v-11.5h1.3v4.9
	c0.3-0.4,0.6-0.7,1.1-1s1.1-0.5,1.8-0.5c0.8,0,1.5,0.2,2.1,0.5c0.6,0.4,1,0.9,1.4,1.5c0.3,0.6,0.5,1.3,0.5,2.1s-0.2,1.5-0.5,2.1
	s-0.8,1.1-1.4,1.5C175.1,485.6,174.4,485.8,173.6,485.8z M173.5,484.6c0.5,0,1-0.1,1.4-0.4s0.7-0.6,1-1c0.2-0.5,0.4-1,0.4-1.6
	s-0.1-1.1-0.4-1.6c-0.2-0.5-0.5-0.8-1-1s-0.9-0.4-1.4-0.4s-1,0.1-1.4,0.4c-0.4,0.2-0.7,0.6-1,1s-0.4,1-0.4,1.6s0.1,1.1,0.4,1.6
	c0.2,0.4,0.6,0.8,1,1C172.5,484.5,172.9,484.6,173.5,484.6z"/>
<path class="st1" d="M183,485.8c-0.8,0-1.4-0.2-2-0.5s-1.1-0.8-1.4-1.4c-0.3-0.6-0.5-1.4-0.5-2.2s0.2-1.6,0.5-2.2
	c0.3-0.6,0.8-1.1,1.4-1.5c0.6-0.4,1.3-0.5,2.1-0.5s1.4,0.2,2,0.5s1,0.8,1.3,1.4c0.3,0.6,0.5,1.2,0.5,1.8c0,0.1,0,0.2,0,0.3
	s0,0.2,0,0.4h-6.3c0,0.6,0.2,1.1,0.4,1.5s0.6,0.7,0.9,0.9c0.4,0.2,0.8,0.3,1.2,0.3c0.6,0,1-0.1,1.4-0.4c0.4-0.3,0.6-0.6,0.8-1h1.3
	c-0.2,0.7-0.6,1.4-1.2,1.8C184.7,485.6,183.9,485.8,183,485.8z M183,478.6c-0.6,0-1.2,0.2-1.7,0.6c-0.5,0.4-0.8,1-0.9,1.7h5
	c0-0.7-0.3-1.3-0.7-1.7C184.2,478.8,183.7,478.6,183,478.6z"/>
<path class="st1" d="M192.8,489.1v-11.5h1.2l0.1,1.3c0.3-0.4,0.6-0.7,1.1-1s1.1-0.5,1.8-0.5c0.8,0,1.5,0.2,2.1,0.5
	c0.6,0.4,1,0.9,1.4,1.5s0.5,1.3,0.5,2.1s-0.2,1.5-0.5,2.1s-0.8,1.1-1.4,1.5c-0.6,0.4-1.3,0.5-2.1,0.5c-0.6,0-1.2-0.1-1.7-0.4
	c-0.5-0.3-0.9-0.6-1.2-1.1v4.8h-1.3V489.1z M196.9,484.6c0.5,0,1-0.1,1.4-0.4s0.7-0.6,1-1c0.2-0.5,0.3-1,0.3-1.6s-0.1-1.1-0.3-1.6
	s-0.6-0.8-1-1s-0.9-0.4-1.4-0.4s-1,0.1-1.4,0.4c-0.4,0.2-0.7,0.6-1,1s-0.4,1-0.4,1.6s0.1,1.1,0.4,1.6c0.2,0.4,0.6,0.8,1,1
	C195.9,484.5,196.3,484.6,196.9,484.6z"/>
<path class="st1" d="M202.8,485.6v-7.9h1.2l0.1,1.5c0.2-0.5,0.6-0.9,1.1-1.2s1.1-0.5,1.9-0.5v1.4h-0.4c-0.5,0-0.9,0.1-1.3,0.2
	c-0.4,0.2-0.7,0.5-0.9,0.8c-0.2,0.4-0.4,0.9-0.4,1.6v4h-1.3V485.6z"/>
<path class="st1" d="M211.9,485.8c-0.8,0-1.4-0.2-2-0.5s-1.1-0.8-1.4-1.5c-0.4-0.6-0.5-1.4-0.5-2.2s0.2-1.6,0.5-2.2
	c0.4-0.6,0.8-1.1,1.4-1.5c0.6-0.3,1.3-0.5,2-0.5c0.8,0,1.4,0.2,2,0.5s1.1,0.8,1.4,1.5c0.4,0.6,0.5,1.4,0.5,2.2s-0.2,1.6-0.5,2.2
	s-0.8,1.1-1.4,1.5C213.3,485.6,212.7,485.8,211.9,485.8z M211.9,484.7c0.5,0,0.9-0.1,1.3-0.3c0.4-0.2,0.7-0.6,1-1s0.4-1,0.4-1.7
	s-0.1-1.2-0.4-1.7c-0.2-0.4-0.6-0.8-0.9-1c-0.4-0.2-0.8-0.3-1.3-0.3s-0.9,0.1-1.3,0.3c-0.4,0.2-0.7,0.6-1,1c-0.2,0.5-0.4,1-0.4,1.7
	s0.1,1.2,0.4,1.7c0.2,0.5,0.6,0.8,0.9,1S211.5,484.7,211.9,484.7z"/>
<path class="st1" d="M221.4,485.8c-0.8,0-1.5-0.2-2.1-0.5c-0.6-0.4-1.1-0.9-1.4-1.5c-0.3-0.6-0.5-1.3-0.5-2.1s0.2-1.5,0.5-2.1
	s0.8-1.1,1.4-1.5c0.6-0.4,1.3-0.5,2.1-0.5c0.6,0,1.2,0.1,1.7,0.4c0.5,0.3,0.9,0.6,1.2,1.1v-4.9h1.3v11.5h-1.2l-0.1-1.3
	c-0.3,0.4-0.6,0.7-1.1,1C222.7,485.7,222.1,485.8,221.4,485.8z M221.5,484.6c0.5,0,1-0.1,1.4-0.4c0.4-0.2,0.7-0.6,1-1
	c0.2-0.5,0.3-1,0.3-1.6s-0.1-1.1-0.3-1.6s-0.6-0.8-1-1s-0.9-0.4-1.4-0.4s-1,0.1-1.4,0.4s-0.7,0.6-1,1c-0.2,0.5-0.3,1-0.3,1.6
	s0.1,1.1,0.3,1.6c0.2,0.4,0.6,0.8,1,1S221,484.6,221.5,484.6z"/>
<path class="st1" d="M230.7,485.8c-0.9,0-1.7-0.3-2.2-0.9s-0.8-1.5-0.8-2.6v-4.6h1.3v4.5c0,1.7,0.7,2.5,2,2.5c0.7,0,1.3-0.2,1.7-0.7
	s0.7-1.2,0.7-2.1v-4.1h1.3v7.9h-1.2l-0.1-1.4c-0.2,0.5-0.6,0.9-1.1,1.2C231.9,485.7,231.3,485.8,230.7,485.8z"/>
<path class="st1" d="M240.6,485.8c-0.8,0-1.4-0.2-2-0.5s-1.1-0.8-1.4-1.5c-0.4-0.6-0.5-1.4-0.5-2.2s0.2-1.6,0.5-2.2
	c0.3-0.6,0.8-1.1,1.4-1.5c0.6-0.4,1.3-0.5,2-0.5c0.9,0,1.7,0.2,2.4,0.7s1,1.2,1.2,2h-1.4c-0.1-0.5-0.4-0.9-0.8-1.1s-0.9-0.4-1.5-0.4
	c-0.5,0-0.9,0.1-1.3,0.3c-0.4,0.2-0.7,0.6-1,1s-0.4,1-0.4,1.7s0.1,1.2,0.4,1.7c0.2,0.5,0.6,0.8,1,1s0.8,0.3,1.3,0.3s1-0.1,1.5-0.4
	c0.4-0.3,0.7-0.7,0.8-1.2h1.4c-0.2,0.8-0.6,1.5-1.2,2S241.6,485.8,240.6,485.8z"/>
<path class="st1" d="M249,485.6c-0.7,0-1.3-0.2-1.7-0.5c-0.4-0.4-0.6-1-0.6-1.9v-4.4h-1.4v-1.1h1.4l0.2-1.9h1.2v1.9h2.3v1.1H248v4.4
	c0,0.5,0.1,0.8,0.3,1c0.2,0.2,0.6,0.3,1.1,0.3h0.8v1.1L249,485.6L249,485.6z"/>
<path class="st1" d="M252.9,475.9c-0.3,0-0.5-0.1-0.7-0.3s-0.3-0.4-0.3-0.7s0.1-0.5,0.3-0.6c0.2-0.2,0.4-0.3,0.7-0.3
	s0.5,0.1,0.7,0.3s0.3,0.4,0.3,0.6c0,0.3-0.1,0.5-0.3,0.7C253.4,475.8,253.1,475.9,252.9,475.9z M252.2,485.6v-7.9h1.3v7.9H252.2z"/>
<path class="st1" d="M258.2,485.6l-3-7.9h1.4l2.4,6.6l2.4-6.6h1.4l-3,7.9H258.2z"/>
<path class="st1" d="M267.4,485.8c-0.8,0-1.4-0.2-2-0.5s-1-0.8-1.4-1.4c-0.3-0.6-0.5-1.4-0.5-2.2s0.2-1.6,0.5-2.2
	c0.3-0.6,0.8-1.1,1.4-1.5s1.3-0.5,2.1-0.5c0.8,0,1.4,0.2,2,0.5s1,0.8,1.3,1.4c0.3,0.6,0.4,1.2,0.4,1.8c0,0.1,0,0.2,0,0.3
	s0,0.2,0,0.4h-6.3c0,0.6,0.2,1.1,0.4,1.5c0.2,0.4,0.6,0.7,0.9,0.9c0.4,0.2,0.8,0.3,1.2,0.3c0.5,0,1-0.1,1.4-0.4
	c0.4-0.3,0.7-0.6,0.8-1h1.3c-0.2,0.7-0.6,1.4-1.2,1.8C269.1,485.6,268.3,485.8,267.4,485.8z M267.4,478.6c-0.6,0-1.2,0.2-1.7,0.6
	c-0.5,0.4-0.8,1-0.9,1.7h5c0-0.7-0.3-1.3-0.7-1.7C268.6,478.8,268.1,478.6,267.4,478.6z"/>
<path class="st1" d="M279.8,485.8c-0.7,0-1.2-0.1-1.6-0.3s-0.8-0.5-1-0.9s-0.3-0.8-0.3-1.2c0-0.8,0.3-1.4,0.9-1.9s1.5-0.7,2.5-0.7
	h2.1v-0.1c0-0.7-0.2-1.2-0.5-1.6c-0.4-0.4-0.9-0.5-1.5-0.5c-0.5,0-1,0.1-1.4,0.4s-0.6,0.6-0.7,1.1H277c0-0.6,0.2-1.1,0.6-1.5
	c0.3-0.4,0.8-0.7,1.3-0.9s1-0.3,1.6-0.3c1.1,0,1.9,0.3,2.5,0.9c0.6,0.6,0.8,1.4,0.8,2.4v4.9h-1.2l-0.1-1.4c-0.2,0.5-0.6,0.8-1,1.1
	C281.1,485.7,280.5,485.8,279.8,485.8z M280,484.7c0.5,0,0.9-0.1,1.3-0.4c0.4-0.3,0.7-0.6,0.8-1c0.2-0.4,0.3-0.9,0.3-1.3l0,0h-2
	c-0.8,0-1.4,0.1-1.7,0.4c-0.3,0.3-0.5,0.6-0.5,1s0.2,0.8,0.5,1C279,484.5,279.5,484.7,280,484.7z"/>
<path class="st1" d="M288.7,485.6c-0.7,0-1.3-0.2-1.7-0.5c-0.4-0.4-0.6-1-0.6-1.9v-4.4H285v-1.1h1.4l0.2-1.9h1.2v1.9h2.3v1.1h-2.3
	v4.4c0,0.5,0.1,0.8,0.3,1c0.2,0.2,0.6,0.3,1.1,0.3h0.8v1.1L288.7,485.6L288.7,485.6z"/>
<path class="st1" d="M298.9,485.8c-0.9,0-1.7-0.3-2.2-0.9c-0.5-0.6-0.8-1.5-0.8-2.6v-4.6h1.3v4.5c0,1.7,0.7,2.5,2,2.5
	c0.7,0,1.3-0.2,1.7-0.7c0.5-0.5,0.7-1.2,0.7-2.1v-4.1h1.3v7.9h-1.2l-0.1-1.4c-0.2,0.5-0.6,0.9-1.1,1.2
	C300.1,485.7,299.5,485.8,298.9,485.8z"/>
<path class="st1" d="M305.2,485.6v-7.9h1.2l0.1,1.4c0.3-0.5,0.6-0.9,1.1-1.2s1-0.4,1.6-0.4c0.9,0,1.7,0.3,2.2,0.9
	c0.6,0.6,0.8,1.4,0.8,2.6v4.6H311v-4.5c0-1.6-0.7-2.5-2-2.5c-0.7,0-1.2,0.2-1.7,0.7c-0.4,0.5-0.7,1.2-0.7,2.1v4.1L305.2,485.6
	L305.2,485.6z"/>
<path class="st1" d="M315.2,475.9c-0.3,0-0.5-0.1-0.7-0.3s-0.3-0.4-0.3-0.7s0.1-0.5,0.3-0.6c0.2-0.2,0.4-0.3,0.7-0.3
	c0.3,0,0.5,0.1,0.7,0.3s0.3,0.4,0.3,0.6c0,0.3-0.1,0.5-0.3,0.7C315.6,475.8,315.4,475.9,315.2,475.9z M314.5,485.6v-7.9h1.3v7.9
	H314.5z"/>
<path class="st1" d="M318.6,485.7c-0.3,0-0.5-0.1-0.7-0.3s-0.3-0.4-0.3-0.6c0-0.3,0.1-0.5,0.3-0.7c0.2-0.2,0.4-0.3,0.7-0.3
	s0.5,0.1,0.6,0.3c0.2,0.2,0.3,0.4,0.3,0.7s-0.1,0.5-0.3,0.6C319.1,485.6,318.9,485.7,318.6,485.7z"/>
<path class="st2" d="M46.5,130.3l2,13.7l-9.4-9.3"/>
<path class="st2" d="M46.7,136H28.2c-2,0-3.6-1.6-3.6-3.6v-12.7c0-2,1.6-3.6,3.6-3.6h18.5c2,0,3.6,1.6,3.6,3.6v12.7
	C50.4,134.4,48.7,136,46.7,136z"/>
<path class="st0" d="M39.9,124h-0.5v0.6h0.5V124z"/>
<path class="st0" d="M40.4,124.6h-0.5v0.6h0.5V124.6z"/>
<path class="st0" d="M42.7,125.2h-2.2v0.6h2.2V125.2z"/>
<path class="st0" d="M43.2,121.6h-0.5v3.6h0.5V121.6z"/>
<path class="st0" d="M43.8,124h-0.6v0.6h0.6V124z"/>
<path class="st0" d="M44.9,123.4h-1.1v0.6h1.1V123.4z"/>
<path class="st0" d="M45.4,124h-0.5v2.4h0.5V124z"/>
<path class="st0" d="M46,126.5h-0.5v3H46V126.5z"/>
<path class="st0" d="M45.4,129.5h-0.5v0.6h0.5V129.5z"/>
<path class="st0" d="M44.9,130.1h-0.5v0.6h0.5V130.1z"/>
<path class="st0" d="M44.3,130.7H32.8v0.6h11.5V130.7z"/>
<path class="st0" d="M42.1,131.3h-0.5v0.6h0.5V131.3z"/>
<path class="st0" d="M43.8,131.3h-0.5v0.6h0.5V131.3z"/>
<path class="st0" d="M43.2,131.9h-1.1v0.6h1.1V131.9z"/>
<path class="st0" d="M41,131.9h-1.7v0.6H41V131.9z"/>
<path class="st0" d="M41,131.3h-0.5v0.6H41V131.3z"/>
<path class="st0" d="M39.4,131.3h-0.5v0.6h0.5V131.3z"/>
<path class="st0" d="M42.1,120.4h-9.3v0.6h9.3V120.4z"/>
<path class="st0" d="M42.7,121h-0.5v0.6h0.5V121z"/>
<path class="st0" d="M39.4,123.4h-1.1v0.6h1.1V123.4z"/>
<path class="st0" d="M38.3,124h-0.5v2.4h0.5V124z"/>
<path class="st0" d="M37.7,126.5h-0.6v3h0.6V126.5z"/>
<path class="st0" d="M38.3,129.5h-0.5v0.6h0.5V129.5z"/>
<path class="st0" d="M38.8,130.1h-0.5v0.6h0.5V130.1z"/>
<path class="st0" d="M40.5,128.9H40v1.2h0.5V128.9z"/>
<path class="st0" d="M43.8,129.5h-3.3v0.6h3.3V129.5z"/>
<path class="st0" d="M43.8,128.9h-0.5v0.6h0.5V128.9z"/>
<path class="st0" d="M42.1,128.9h-0.5v0.6h0.5V128.9z"/>
<path class="st0" d="M42.7,127.7h-0.5v0.6h0.5V127.7z"/>
<path class="st0" d="M43.8,127.7h-0.5v0.6h0.5V127.7z"/>
<path class="st0" d="M44.3,127.1h-0.5v0.6h0.5V127.1z"/>
<path class="st0" d="M44.3,127.7h-0.5v0.6h0.5V127.7z"/>
<path class="st0" d="M40.5,127.1H40v0.6h0.5V127.1z"/>
<path class="st0" d="M40.5,127.7H40v0.6h0.5V127.7z"/>
<path class="st0" d="M39.9,127.7h-0.5v0.6h0.5V127.7z"/>
<path class="st0" d="M32.3,121.6h-0.5v8.5h0.5V121.6z"/>
<path class="st0" d="M32.8,121h-0.6v0.6h0.6V121z"/>
<path class="st0" d="M32.8,130.1h-1.7v0.6h1.7V130.1z"/>
<path class="st0" d="M31.2,130.7h-0.5v1.8h0.5V130.7z"/>
<path class="st0" d="M32.8,131.9h-1.7v0.6h1.7V131.9z"/>
<path class="st0" d="M33.3,131.3h-1.1v0.6h1.1V131.3z"/>
<path class="st0" d="M34.5,131.3H34v1.2h0.5V131.3z"/>
<path class="st0" d="M35.5,131.9h-1.1v0.6h1.1V131.9z"/>
<path class="st0" d="M36.1,131.3h-0.5v0.6h0.5V131.3z"/>
<path class="st0" d="M30.6,124.6h-2.2v0.6h2.2V124.6z"/>
<path class="st0" d="M29,125.2h-0.6v1.2H29V125.2z"/>
<path class="st0" d="M29.5,125.9H29v1.2h0.6L29.5,125.9L29.5,125.9z"/>
<path class="st0" d="M30.1,126.5h-0.5v1.2h0.5V126.5z"/>
<path class="st0" d="M30.6,127.1h-0.5v1.2h0.5V127.1z"/>
<path class="st0" d="M31.7,127.7h-1.1v0.6h1.1V127.7z"/>
<path class="st0" d="M31.7,128.3h-0.5v0.6h0.5V128.3z"/>
<path class="st0" d="M31.7,125.9h-0.5v1.2h0.5V125.9z"/>
<path class="st0" d="M31.2,125.2h-1.1v0.6h1.1V125.2z"/>
<path class="st0" d="M31.2,125.9h-0.5v0.6h0.5V125.9z"/>
<path class="st0" d="M37.2,126.5h-0.6v0.6h0.6V126.5z"/>
<path class="st0" d="M41.6,122.8v-0.6H41v-0.6h-7.1v0.6h-0.6v0.7h-0.5v6.1h0.5v0.6h0.6V129h0.5v0.6h-0.5v0.6h3.8v-0.6h-0.6v-3h0.6
	V124h0.5v-0.6h1.1v0.6h0.5v0.6h0.5v0.6H42v-2.4L41.6,122.8L41.6,122.8z M33.9,127.7h-0.6v-0.6h0.6V127.7z M34.5,123.4H34v-0.6h0.5
	V123.4z M35,125.9h0.5v0.6H35V125.9z M36.1,128.9h-0.5v-0.6h0.5V128.9z M36.6,125.2h-0.5v-0.6h0.5V125.2z M37.7,122.8h-0.6v-0.6h0.6
	V122.8z M39.4,122.8h-0.5v-0.6h0.5V122.8z M41,124h-0.5v-0.6H41V124z"/>
<path class="st3" d="M98,226.5c32.1,0,58.1-4.5,58.1-10.1s-26-10.1-58.1-10.1s-58.1,4.5-58.1,10.1C40,222,66,226.5,98,226.5z"/>
<path class="st3" d="M257.4,226.5c32.1,0,58-4.5,58-10.1s-26-10.1-58-10.1c-32.1,0-58.1,4.5-58.1,10.1
	C199.4,222,225.3,226.5,257.4,226.5z"/>
<path class="st3" d="M175.9,415.6c32.1,0,58.1-4.5,58.1-10.1s-26-10.1-58.1-10.1s-58,4.5-58,10.1S143.9,415.6,175.9,415.6z"/>
<path class="st4" d="M44.7,239.9c0.7-0.7,1.8-1.1,3.3-1.1c0.6,0,1.2,0.1,1.6,0.3c0.6,0.3,1,1.1,1.3,2.4c0.2,1.1,0.4,2.9,0.7,5.4
	s0.4,4.5,0.5,5.9c0,1.3,0.1,2.8,0.3,4.4c0.2,1.6,0.3,2.5,0.4,2.7c0,0,0,0.1,0,0.2c0,0.2-0.1,0.6-0.3,0.9c-0.2,0.4-0.4,0.6-0.6,0.6
	c-0.1,0-0.2,0-0.4,0c-0.4,0-0.9-0.1-1.4-0.3c-0.5-0.2-0.8-0.4-0.9-0.6c-0.1-0.2-0.2-1-0.4-2.3s-0.2-2.4-0.2-3.2
	c0-0.8-0.1-1.2-0.2-1.3c-0.1-0.1-0.8-0.1-1.9-0.1c-1,0-1.4,0-1.5,0.1c0,0.1,0,0.3,0,0.5c0,0.6,0,1.3,0.1,2.3c0.1,1.1,0.1,2,0.1,2.7
	v0.4c0,0.2-0.2,0.4-0.6,0.5c-0.4,0.1-0.7,0.2-1.1,0.2c-0.2,0-0.3,0-0.4,0c-1-0.3-1.5-0.7-1.6-1.2c0,0,0-0.1,0-0.2s0-0.2,0-0.3
	c0-1.2,0.1-3.7,0.4-7.6c0.3-3.9,0.5-6.1,0.6-6.7c0.2-0.8,0.5-1.6,1-2.6C43.9,240.9,44.3,240.2,44.7,239.9z M47.6,244.2
	c-0.2-0.8-0.4-1.2-0.6-1.2c-0.2,0-0.4,0.3-0.7,0.9c-0.5,1.1-0.9,2.7-1,4.6c-0.1,0.8-0.1,1.3-0.1,1.4c0,0.4,0.1,0.6,0.2,0.7
	c0.1,0.1,0.5,0.2,1.1,0.2c0.8,0,1.3-0.1,1.4-0.2c0.1-0.1,0.1-0.5,0.1-1.1C48,247.5,47.9,245.7,47.6,244.2z"/>
<path class="st4" d="M57.9,236c0.4-0.3,1-0.5,1.9-0.5h1c1.5,0.1,2.4,0.1,2.7,0.2c0.2,0.1,0.6,0.1,1.2,0.1s1.1,0.2,1.4,0.4
	c0.3,0.2,0.4,0.6,0.4,1.1s-0.1,0.9-0.3,1.1s-0.6,0.4-1.1,0.5c-0.6,0.1-0.9,0.2-1,0.3c-0.1,0.1-0.2,2.8-0.2,8c0,3.6,0,6.1,0.1,7.6
	c0.1,1.2,0.1,1.8,0.1,1.9c0,0.6-0.1,1.1-0.4,1.5c-0.3,0.6-0.8,0.8-1.4,0.8c-0.4,0-0.8-0.1-1.3-0.4l-0.8-0.5l0.1-9.6
	c0.1-2.5,0.1-4.9,0.1-7.4c0-1.5-0.1-2.3-0.3-2.4c-0.3-0.2-0.6-0.2-0.6-0.2c-0.1,0-0.3,0-0.5,0c-0.5,0-0.9-0.1-1.3-0.4
	c-0.3-0.3-0.5-0.6-0.5-1C57.2,236.8,57.5,236.4,57.9,236z"/>
<path class="st4" d="M71.8,236c0.4-0.3,1-0.5,1.9-0.5h1c1.5,0.1,2.4,0.1,2.7,0.2c0.2,0.1,0.6,0.1,1.2,0.1s1.1,0.2,1.4,0.4
	c0.3,0.2,0.4,0.6,0.4,1.1s-0.1,0.9-0.3,1.1c-0.2,0.2-0.6,0.4-1.1,0.5c-0.6,0.1-0.9,0.2-1,0.3c-0.1,0.1-0.2,2.8-0.2,8
	c0,3.6,0,6.1,0.1,7.6c0.1,1.2,0.1,1.8,0.1,1.9c0,0.6-0.1,1.1-0.4,1.5c-0.3,0.6-0.8,0.8-1.4,0.8c-0.4,0-0.8-0.1-1.3-0.4l-0.8-0.5
	l0.1-9.6c0.1-2.5,0.1-4.9,0.1-7.4c0-1.5-0.1-2.3-0.3-2.4c-0.3-0.2-0.6-0.2-0.6-0.2c-0.1,0-0.3,0-0.5,0c-0.5,0-0.9-0.1-1.3-0.4
	c-0.3-0.3-0.5-0.6-0.5-1C71.1,236.8,71.4,236.4,71.8,236z"/>
<path class="st4" d="M86.6,238.4c0.3-0.1,0.8-0.1,1.3-0.1c1.5,0,2.5,0.2,2.9,0.5c0.3,0.2,0.4,0.6,0.4,0.9c0,0.4-0.1,0.7-0.4,0.9
	s-0.6,0.4-1.1,0.4c-0.4,0-0.7,0.1-0.8,0.3c-0.1,0.2-0.2,0.7-0.2,1.5c0,0.2,0,0.9,0.1,2.1c0.1,1.4,0.1,2.3,0.2,2.7s0.2,0.6,0.3,0.7
	c0,0,0.2,0,0.5,0s0.6,0,0.8,0c0.7,0,1.2,0.2,1.5,0.5c0.2,0.2,0.3,0.4,0.3,0.6c0,0.4-0.6,0.9-1.8,1.3c-0.7,0.2-1.1,0.4-1.3,0.6
	c-0.1,0.1-0.2,0.4-0.3,0.9c-0.1,0.4-0.1,0.8-0.1,1.2c0,1.4,0.1,2.5,0.4,3.1c0.1,0.3,0.2,0.5,0.4,0.5c0.1,0.1,0.4,0.1,0.9,0.1
	c0.6,0,1.1,0.1,1.5,0.4s0.6,0.6,0.6,1c0,0.2-0.2,0.6-0.6,1c-0.7,0.6-1.8,1-3.4,1s-2.7-0.3-3.2-1c-0.3-0.4-0.4-2.8-0.5-7.2
	c-0.1-5.5-0.1-8.8-0.2-9.7l-0.1-3.1l0.6-0.3C85.8,238.6,86.2,238.5,86.6,238.4z"/>
<path class="st4" d="M98.2,237.4c0.4-0.2,0.8-0.3,1.3-0.3c0.8,0,1.4,0.5,1.7,1.6c0.2,0.8,0.5,1.7,1,2.6c0.4,0.9,0.7,1.6,0.9,2.2
	c0.3,0.9,0.5,1.5,0.8,1.7c0.1,0.1,0.1,0.2,0.2,0.2s0.2-0.6,0.3-1.8c0.1-1.1,0.1-1.9,0.1-2.3v-0.5c0-0.2,0-0.5,0-0.8
	c0-0.7,0.2-1.2,0.6-1.6c0.3-0.4,0.8-0.6,1.5-0.6c0.5,0,0.9,0.1,1.2,0.4c0.2,0.2,0.4,0.6,0.4,1c0,0.5,0,1-0.1,1.5s-0.1,3.9-0.2,10.2
	c0,4-0.1,6.3-0.1,7.1c0,0.8-0.1,1.3-0.3,1.5c-0.3,0.3-0.7,0.5-1.3,0.5c-1.2,0-1.9-0.6-2.1-1.8c-0.1-0.4-0.4-1.3-0.8-2.5
	c-0.4-1.1-0.7-2.1-0.8-3c-0.2-1.1-0.6-2.7-1.2-4.6c-0.1-0.2-0.1-0.2-0.1-0.2c-0.1,0-0.2,1.2-0.2,3.5v2v2.2c0,2.3-0.1,3.6-0.2,3.9
	c-0.3,0.8-0.9,1.2-1.8,1.2c-0.5,0-1-0.2-1.3-0.5c-0.2-0.3-0.4-0.5-0.4-0.8c0-0.1,0-0.3,0.1-0.8c0.1-0.9,0.2-4.3,0.2-10.1
	c0-6.5,0.1-9.9,0.2-10.3c0.1-0.2,0.2-0.4,0.5-0.5C98.1,237.5,98.2,237.5,98.2,237.4z"/>
<path class="st4" d="M113.2,236c0.4-0.3,1-0.5,1.9-0.5h1c1.5,0.1,2.4,0.1,2.7,0.2c0.2,0.1,0.6,0.1,1.2,0.1c0.6,0,1.1,0.2,1.4,0.4
	c0.3,0.2,0.4,0.6,0.4,1.1s-0.1,0.9-0.3,1.1s-0.6,0.4-1.1,0.5c-0.6,0.1-0.9,0.2-1,0.3c-0.1,0.1-0.2,2.8-0.2,8c0,3.6,0,6.1,0.1,7.6
	c0.1,1.2,0.1,1.8,0.1,1.9c0,0.6-0.1,1.1-0.4,1.5c-0.3,0.6-0.8,0.8-1.4,0.8c-0.4,0-0.9-0.1-1.3-0.4l-0.8-0.5l0.1-9.6
	c0.1-2.5,0.1-4.9,0.1-7.4c0-1.5-0.1-2.3-0.3-2.4c-0.3-0.2-0.5-0.2-0.6-0.2s-0.3,0-0.5,0c-0.5,0-0.9-0.1-1.3-0.4
	c-0.3-0.3-0.5-0.6-0.5-1C112.5,236.8,112.8,236.4,113.2,236z"/>
<path class="st4" d="M126.6,235.9c0.3-0.4,0.8-0.6,1.3-0.6s0.9,0.2,1.3,0.6l0.6,0.5l0.2,9.5c0.1,5.2,0.2,8.2,0.2,9c0,0.4,0,0.8,0,1
	c0,0.3,0,0.5,0,0.6c0,0.2-0.1,0.3-0.1,0.4c-0.1,0.1-0.1,0.2-0.1,0.2s-0.1,0.1-0.2,0.1c-0.1,0.1-0.2,0.1-0.2,0.1
	c-0.3,0.2-0.6,0.3-0.8,0.3c-0.1,0-0.4-0.1-0.8-0.2c-0.7-0.3-1.1-0.5-1.1-0.7c-0.1-0.1-0.2-3.5-0.2-10.1c-0.1-6.6-0.1-10-0.2-10
	C126.2,236.5,126.3,236.2,126.6,235.9z"/>
<path class="st4" d="M135.6,237.8l0.8-1h5.2l0.8,0.8c0.5,0.5,0.9,1.2,1.1,2c0.2,0.8,0.4,2.1,0.5,3.8c0.1,0.6,0.1,1.6,0.1,2.8
	c0,2.9-0.3,5.4-0.8,7.8c-0.5,2.3-1.2,3.9-2.1,4.8c-0.3,0.3-0.7,0.5-1.2,0.7s-1,0.3-1.4,0.3c-0.2,0-0.3,0-0.4-0.1
	c-0.2-0.1-0.5-0.2-0.9-0.2c-0.3,0-0.6-0.2-1-0.7s-0.7-1-0.9-1.7c-0.4-1.1-0.7-2.3-0.8-3.6c-0.1-1.3-0.2-3.4-0.2-6.3v-2
	c0-2.6,0.1-4.4,0.2-5.3S135.1,238.4,135.6,237.8z M139.5,239.9c-0.2-0.5-0.5-0.8-0.6-0.8c-0.2,0-0.4,0.4-0.7,1.3
	c-0.2,0.7-0.3,2-0.3,3.9c0,1.5,0.1,3.1,0.2,4.8c0.1,1.6,0.3,3.1,0.5,4.5s0.5,2.1,0.7,2.1c0.1,0,0.3-0.3,0.4-0.9
	c0.1-0.5,0.3-0.9,0.5-1.3c0.1-0.2,0.2-1.4,0.4-3.7c0.1-1.2,0.1-2.3,0.1-3.3C140.6,243.4,140.2,241.2,139.5,239.9z"/>
<path class="st4" d="M149.5,237.4c0.4-0.2,0.8-0.3,1.3-0.3c0.8,0,1.4,0.5,1.7,1.6c0.2,0.8,0.6,1.7,1,2.6s0.7,1.6,0.9,2.2
	c0.3,0.9,0.5,1.5,0.8,1.7c0.1,0.1,0.1,0.2,0.2,0.2c0.1,0,0.2-0.6,0.3-1.8c0.1-1.1,0.1-1.9,0.1-2.3v-0.5c0-0.2,0-0.5,0-0.8
	c0-0.7,0.2-1.2,0.6-1.6c0.3-0.4,0.8-0.6,1.6-0.6c0.5,0,0.9,0.1,1.2,0.4c0.2,0.2,0.4,0.6,0.4,1c0,0.5,0,1-0.1,1.5s-0.1,3.9-0.2,10.2
	c0,4-0.1,6.3-0.1,7.1c0,0.8-0.1,1.3-0.3,1.5c-0.3,0.3-0.7,0.5-1.3,0.5c-1.2,0-1.9-0.6-2.1-1.8c-0.1-0.4-0.4-1.3-0.8-2.5
	c-0.4-1.1-0.7-2.1-0.8-3c-0.2-1.1-0.6-2.7-1.2-4.6c-0.1-0.2-0.1-0.2-0.1-0.2c-0.1,0-0.2,1.2-0.2,3.5v2v2.2c0,2.3-0.1,3.6-0.2,3.9
	c-0.3,0.8-0.9,1.2-1.8,1.2c-0.5,0-1-0.2-1.3-0.5c-0.2-0.3-0.4-0.5-0.4-0.8c0-0.1,0-0.3,0.1-0.8c0.1-0.9,0.2-4.3,0.2-10.1
	c0-6.5,0.1-9.9,0.2-10.3c0.1-0.2,0.2-0.4,0.5-0.5C149.4,237.5,149.5,237.5,149.5,237.4z"/>
<path class="st2" d="M92.5,429.1c0.5-0.5,0.9-0.8,1.1-1c0.2-0.1,0.6-0.2,1-0.2c1.3,0,1.9,0.4,1.9,1.3c0,0.8-0.6,1.4-1.7,2
	c-0.7,0.4-1.3,1.8-1.7,4.2c-0.2,1.1-0.3,2.2-0.3,3.4s0.1,2.4,0.2,3.6c0.1,1.6,0.4,2.7,0.7,3.3c0.3,0.6,0.8,1,1.4,1.1
	c1.1,0.2,1.8,0.5,1.9,1c0,0.1,0,0.1,0,0.2c0,0.3-0.2,0.6-0.5,0.9c-0.3,0.3-0.7,0.5-1.1,0.6c-0.1,0-0.2,0-0.5,0c-1,0-2-0.2-2.8-0.7
	c-0.3-0.2-0.7-0.7-1.1-1.5s-0.8-1.6-1-2.4c-0.3-1.2-0.5-3.2-0.5-6.1c0-1.1,0.1-2.2,0.2-3.2c0.2-1.7,0.5-3,0.9-3.9
	C91.1,430.8,91.7,430,92.5,429.1z"/>
<path class="st2" d="M102.6,427.9l0.8-1h5.2l0.8,0.8c0.5,0.5,0.9,1.2,1.1,2s0.4,2.1,0.6,3.8c0.1,0.6,0.1,1.6,0.1,2.8
	c0,2.9-0.3,5.4-0.8,7.8c-0.5,2.3-1.2,3.9-2.1,4.8c-0.3,0.3-0.7,0.5-1.2,0.7s-1,0.3-1.4,0.3c-0.2,0-0.3,0-0.4-0.1
	c-0.2-0.1-0.5-0.2-0.9-0.2c-0.3,0-0.6-0.2-1-0.7s-0.7-1-0.9-1.7c-0.4-1.1-0.7-2.3-0.8-3.6s-0.2-3.4-0.2-6.3v-2
	c0-2.6,0.1-4.4,0.2-5.3C101.8,429.2,102.1,428.5,102.6,427.9z M106.5,429.9c-0.2-0.5-0.5-0.8-0.6-0.8c-0.2,0-0.4,0.4-0.7,1.3
	c-0.2,0.7-0.3,2-0.3,3.9c0,1.5,0.1,3.1,0.2,4.8c0.1,1.6,0.3,3.1,0.6,4.5c0.2,1.4,0.5,2.1,0.7,2.1c0.1,0,0.3-0.3,0.4-0.9
	c0.1-0.5,0.3-0.9,0.5-1.3c0.1-0.2,0.2-1.4,0.4-3.7c0.1-1.2,0.1-2.3,0.1-3.3C107.6,433.4,107.2,431.2,106.5,429.9z"/>
<path class="st2" d="M116.5,427.4c0.4-0.2,0.8-0.3,1.3-0.3c0.8,0,1.4,0.5,1.7,1.6c0.2,0.8,0.5,1.7,1,2.6c0.4,0.9,0.7,1.6,0.9,2.2
	c0.3,0.9,0.5,1.5,0.8,1.7c0.1,0.1,0.1,0.2,0.2,0.2c0.1,0,0.2-0.6,0.3-1.8c0.1-1.1,0.1-1.9,0.1-2.3v-0.5c0-0.2,0-0.5,0-0.8
	c0-0.7,0.2-1.2,0.6-1.6c0.3-0.4,0.9-0.6,1.6-0.6c0.5,0,0.9,0.1,1.2,0.4c0.2,0.2,0.4,0.5,0.4,1s0,1-0.1,1.5s-0.1,3.9-0.2,10.2
	c0,4-0.1,6.3-0.1,7.1s-0.1,1.3-0.3,1.5c-0.3,0.3-0.7,0.5-1.3,0.5c-1.2,0-1.9-0.6-2.1-1.8c-0.1-0.5-0.4-1.3-0.8-2.5
	c-0.4-1.1-0.7-2.1-0.8-3c-0.2-1.1-0.6-2.7-1.2-4.6c-0.1-0.2-0.1-0.2-0.1-0.2c-0.1,0-0.2,1.2-0.2,3.5v2v2.2c0,2.3-0.1,3.6-0.2,3.9
	c-0.3,0.8-0.9,1.2-1.8,1.2c-0.5,0-1-0.2-1.3-0.5c-0.2-0.3-0.4-0.6-0.4-0.8c0-0.1,0-0.3,0.1-0.8c0.1-0.9,0.2-4.3,0.2-10.1
	c0-6.5,0.1-9.9,0.2-10.3c0.1-0.2,0.2-0.4,0.5-0.5C116.4,427.5,116.5,427.5,116.5,427.4z"/>
<path class="st2" d="M136.1,429.1c0.5-0.5,0.9-0.8,1.1-1c0.2-0.1,0.6-0.2,1-0.2c1.3,0,1.9,0.4,1.9,1.3c0,0.8-0.6,1.4-1.7,2
	c-0.7,0.4-1.3,1.8-1.7,4.2c-0.2,1.1-0.3,2.2-0.3,3.4s0.1,2.4,0.2,3.6c0.1,1.6,0.4,2.7,0.7,3.3s0.8,1,1.4,1.1c1.1,0.2,1.8,0.5,1.9,1
	c0,0.1,0,0.1,0,0.2c0,0.3-0.2,0.6-0.5,0.9c-0.3,0.3-0.7,0.5-1.1,0.6c-0.1,0-0.2,0-0.5,0c-1,0-2-0.2-2.8-0.7
	c-0.3-0.2-0.7-0.7-1.1-1.5c-0.4-0.8-0.8-1.6-1-2.4c-0.3-1.2-0.5-3.2-0.5-6.1c0-1.1,0.1-2.2,0.2-3.2c0.2-1.7,0.5-3,0.9-3.9
	C134.7,430.8,135.3,430,136.1,429.1z"/>
<path class="st2" d="M146.8,428.4c0.3-0.1,0.8-0.1,1.3-0.1c1.5,0,2.5,0.2,2.9,0.5c0.3,0.2,0.4,0.6,0.4,0.9s-0.1,0.7-0.4,0.9
	s-0.6,0.4-1.1,0.4c-0.4,0-0.7,0.1-0.8,0.3s-0.2,0.7-0.2,1.5c0,0.2,0,0.9,0.1,2.1c0.1,1.4,0.1,2.3,0.2,2.7c0.1,0.4,0.2,0.6,0.3,0.6
	c0,0,0.2,0,0.6,0s0.6,0,0.8,0c0.7,0,1.2,0.2,1.5,0.5c0.2,0.2,0.3,0.4,0.3,0.6c0,0.4-0.6,0.9-1.8,1.3c-0.7,0.2-1.1,0.4-1.3,0.6
	s-0.2,0.4-0.3,0.9s-0.1,0.8-0.1,1.2c0,1.4,0.1,2.5,0.4,3.2c0.1,0.3,0.2,0.5,0.4,0.5c0.1,0.1,0.4,0.1,0.9,0.1c0.6,0,1.1,0.1,1.5,0.4
	c0.4,0.3,0.6,0.6,0.6,0.9c0,0.2-0.2,0.6-0.6,1c-0.7,0.6-1.8,1-3.4,1c-1.6,0-2.7-0.4-3.2-1.1c-0.3-0.4-0.4-2.8-0.5-7.2
	c-0.1-5.5-0.1-8.8-0.2-9.7l-0.1-3.1l0.6-0.3C146,428.7,146.5,428.5,146.8,428.4z"/>
<path class="st2" d="M158.5,427.4c0.4-0.2,0.8-0.3,1.3-0.3c0.8,0,1.4,0.5,1.7,1.6c0.2,0.8,0.5,1.7,1,2.6c0.4,0.9,0.7,1.6,0.9,2.2
	c0.3,0.9,0.5,1.5,0.8,1.7c0.1,0.1,0.1,0.2,0.2,0.2c0.1,0,0.2-0.6,0.3-1.8c0.1-1.1,0.1-1.9,0.1-2.3v-0.5c0-0.2,0-0.5,0-0.8
	c0-0.7,0.2-1.2,0.6-1.6c0.3-0.4,0.9-0.6,1.6-0.6c0.5,0,0.9,0.1,1.2,0.4c0.2,0.2,0.4,0.5,0.4,1s0,1-0.1,1.5s-0.1,3.9-0.2,10.2
	c0,4-0.1,6.3-0.1,7.1s-0.1,1.3-0.3,1.5c-0.3,0.3-0.7,0.5-1.3,0.5c-1.2,0-1.9-0.6-2.1-1.8c-0.1-0.5-0.4-1.3-0.8-2.5
	c-0.4-1.1-0.7-2.1-0.8-3c-0.2-1.1-0.6-2.7-1.2-4.6c-0.1-0.2-0.1-0.2-0.1-0.2c-0.1,0-0.2,1.2-0.2,3.5v2v2.2c0,2.3-0.1,3.6-0.2,3.9
	c-0.3,0.8-0.9,1.2-1.8,1.2c-0.5,0-1-0.2-1.3-0.5c-0.2-0.3-0.4-0.6-0.4-0.8c0-0.1,0-0.3,0.1-0.8c0.1-0.9,0.2-4.3,0.2-10.1
	c0-6.5,0.1-9.9,0.2-10.3c0.1-0.2,0.2-0.4,0.5-0.5C158.3,427.5,158.4,427.5,158.5,427.4z"/>
<path class="st2" d="M173.4,426c0.4-0.3,1-0.5,1.9-0.5h1c1.5,0.1,2.4,0.1,2.7,0.2c0.2,0.1,0.6,0.1,1.2,0.2c0.6,0,1.1,0.2,1.4,0.4
	c0.3,0.2,0.4,0.6,0.4,1.1s-0.1,0.9-0.3,1.1c-0.2,0.2-0.6,0.4-1.1,0.5c-0.6,0.1-0.9,0.2-1,0.3s-0.2,2.8-0.2,8c0,3.6,0,6.1,0.1,7.6
	c0.1,1.2,0.1,1.8,0.1,1.9c0,0.6-0.1,1.1-0.4,1.5c-0.3,0.6-0.8,0.8-1.4,0.8c-0.4,0-0.9-0.1-1.3-0.4l-0.8-0.5l0.1-9.6
	c0.1-2.5,0.1-4.9,0.1-7.4c0-1.5-0.1-2.3-0.3-2.4c-0.3-0.2-0.6-0.2-0.6-0.2c-0.1,0-0.3,0-0.5,0c-0.5,0-0.9-0.1-1.3-0.4
	c-0.3-0.3-0.5-0.6-0.5-1C172.8,426.8,173,426.4,173.4,426z"/>
<path class="st2" d="M187.8,426.1c0.5-0.2,1.1-0.2,1.9-0.2c0.8,0,1.5,0.1,1.9,0.2c0.7,0.3,1.3,0.9,1.7,1.7c0.2,0.4,0.3,1.1,0.5,2.2
	c0.1,1.1,0.2,2,0.2,2.9c0,0.4,0,0.7,0,0.8c-0.1,0.7-0.3,1.5-0.6,2.3c-0.3,0.9-0.5,1.3-0.6,1.3c-0.2,0-0.3,0.2-0.3,0.5
	s0.1,0.6,0.3,0.9c0.4,0.6,1.1,1.8,1.9,3.6c0.8,1.7,1.3,2.8,1.3,3.3c0,0.1,0,0.3,0,0.6c0,0.4-0.1,0.7-0.3,1s-0.5,0.5-0.8,0.5
	s-0.5,0-0.8,0c-0.7-0.1-1.1-0.2-1.3-0.3s-0.3-0.3-0.3-0.7c0-0.6-0.3-1.4-0.9-2.6c-0.6-1.2-1-1.7-1.3-1.7l0,0
	c-0.1,0.1-0.1,0.4-0.1,0.9c0,0.8,0.1,1.8,0.2,2.8c0.1,0.4,0.1,0.8,0.1,0.9c0,1-0.2,1.5-0.6,1.8c-0.2,0.1-0.4,0.1-0.7,0.1
	c-0.9,0-1.5-0.2-1.7-0.6c-0.1-0.2-0.2-2.1-0.3-5.7c0-1.1-0.1-2.4-0.1-3.7s0-2.3,0-2.9c0-0.6,0-1.4-0.1-2.4s-0.2-2-0.3-3.2
	c-0.1-1.3-0.2-2.1-0.2-2.4c0-0.7,0.1-1.1,0.3-1.4C186.9,426.4,187.3,426.2,187.8,426.1z M190.4,429.2c-0.1-0.2-0.2-0.3-0.5-0.3
	c-0.2,0-0.3,0.1-0.4,0.3c-0.1,0.2-0.1,0.4,0,0.5c0,0,0.1,0.9,0.2,2.7c0.1,1.8,0.2,2.7,0.3,2.8s0.2-0.1,0.4-0.3s0.2-0.7,0.2-1.4
	c0-0.5,0-1,0-1.4C190.6,430.4,190.5,429.5,190.4,429.2z"/>
<path class="st2" d="M203.6,429.9c0.7-0.7,1.8-1.1,3.3-1.1c0.6,0,1.2,0.1,1.6,0.3c0.6,0.3,1,1.1,1.3,2.3c0.2,1.1,0.4,2.9,0.7,5.4
	s0.4,4.5,0.5,5.9c0,1.3,0.1,2.8,0.3,4.4c0.1,1.6,0.3,2.5,0.4,2.7c0,0,0,0.1,0,0.2c0,0.2-0.1,0.6-0.3,0.9c-0.2,0.4-0.4,0.6-0.6,0.6
	c-0.1,0-0.2,0-0.4,0c-0.4,0-0.9-0.1-1.4-0.3s-0.8-0.4-0.9-0.6c-0.1-0.2-0.2-1-0.4-2.3s-0.2-2.4-0.2-3.2s-0.1-1.2-0.2-1.3
	c-0.1-0.1-0.8-0.1-1.9-0.1c-0.9,0-1.4,0-1.5,0.1c0,0.1,0,0.3,0,0.5c0,0.6,0,1.3,0.1,2.3c0.1,1.1,0.1,2,0.1,2.7v0.4
	c0,0.2-0.2,0.4-0.6,0.5c-0.4,0.2-0.7,0.2-1.1,0.2c-0.2,0-0.3,0-0.4,0c-0.9-0.3-1.5-0.7-1.6-1.2c0,0,0-0.1,0-0.2s0-0.2,0-0.3
	c0-1.2,0.1-3.7,0.4-7.6c0.3-3.9,0.5-6.1,0.6-6.7c0.2-0.8,0.5-1.6,1-2.6C202.8,430.9,203.2,430.2,203.6,429.9z M206.5,434.2
	c-0.2-0.8-0.4-1.2-0.6-1.2c-0.2,0-0.4,0.3-0.7,0.9c-0.5,1.1-0.9,2.7-1,4.6c-0.1,0.8-0.1,1.3-0.1,1.4c0,0.4,0.1,0.6,0.2,0.7
	c0.1,0.1,0.5,0.2,1.1,0.2c0.8,0,1.3-0.1,1.4-0.2c0.1-0.1,0.1-0.5,0.1-1.1C206.9,437.5,206.8,435.7,206.5,434.2z"/>
<path class="st2" d="M216.8,426c0.4-0.3,1-0.5,1.9-0.5h1c1.5,0.1,2.4,0.1,2.7,0.2c0.2,0.1,0.6,0.1,1.2,0.2c0.6,0,1.1,0.2,1.4,0.4
	c0.3,0.2,0.4,0.6,0.4,1.1s-0.1,0.9-0.3,1.1c-0.2,0.2-0.5,0.4-1,0.5c-0.6,0.1-0.9,0.2-1,0.3s-0.2,2.8-0.2,8c0,3.6,0,6.1,0.1,7.6
	c0.1,1.2,0.1,1.8,0.1,1.9c0,0.6-0.1,1.1-0.4,1.5c-0.3,0.6-0.8,0.8-1.4,0.8c-0.4,0-0.9-0.1-1.3-0.4l-0.8-0.5l0.1-9.6
	c0.1-2.5,0.1-4.9,0.1-7.4c0-1.5-0.1-2.3-0.3-2.4c-0.3-0.2-0.6-0.2-0.6-0.2c-0.1,0-0.3,0-0.5,0c-0.5,0-0.9-0.1-1.3-0.4
	c-0.3-0.3-0.5-0.6-0.5-1C216.1,426.8,216.3,426.4,216.8,426z"/>
<path class="st2" d="M230.2,425.9c0.3-0.4,0.8-0.5,1.3-0.5s0.9,0.2,1.3,0.5l0.6,0.5l0.2,9.5c0.1,5.2,0.2,8.2,0.2,9c0,0.4,0,0.8,0,1
	c0,0.3,0,0.5,0,0.6c0,0.2-0.1,0.3-0.1,0.4c-0.1,0.1-0.1,0.2-0.1,0.2s-0.1,0.1-0.2,0.1c-0.1,0.1-0.2,0.1-0.2,0.1
	c-0.3,0.2-0.6,0.3-0.8,0.3c-0.1,0-0.4-0.1-0.8-0.2c-0.7-0.3-1-0.5-1.1-0.7c-0.1-0.1-0.2-3.5-0.2-10.1c-0.1-6.6-0.1-10-0.2-10
	C229.7,426.5,229.9,426.3,230.2,425.9z"/>
<path class="st2" d="M239.1,427.9l0.8-1h5.2l0.8,0.8c0.5,0.5,0.9,1.2,1.1,2s0.4,2.1,0.5,3.8c0.1,0.6,0.1,1.6,0.1,2.8
	c0,2.9-0.3,5.4-0.8,7.8c-0.5,2.3-1.2,3.9-2.1,4.8c-0.3,0.3-0.7,0.5-1.2,0.7c-0.5,0.2-1,0.3-1.4,0.3c-0.2,0-0.3,0-0.4-0.1
	c-0.2-0.1-0.5-0.2-0.9-0.2c-0.3,0-0.6-0.2-1-0.7s-0.7-1-0.9-1.7c-0.4-1.1-0.6-2.3-0.8-3.6s-0.2-3.4-0.2-6.3v-2
	c0-2.6,0.1-4.4,0.2-5.3C238.4,429.2,238.7,428.5,239.1,427.9z M243.1,429.9c-0.2-0.5-0.5-0.8-0.6-0.8c-0.2,0-0.4,0.4-0.7,1.3
	c-0.2,0.7-0.3,2-0.3,3.9c0,1.5,0.1,3.1,0.2,4.8c0.1,1.6,0.3,3.1,0.6,4.5c0.2,1.4,0.5,2.1,0.7,2.1c0.1,0,0.3-0.3,0.4-0.9
	c0.1-0.5,0.3-0.9,0.5-1.3c0.1-0.2,0.2-1.4,0.4-3.7c0.1-1.2,0.1-2.3,0.1-3.3C244.1,433.4,243.8,431.2,243.1,429.9z"/>
<path class="st2" d="M253.1,427.4c0.4-0.2,0.8-0.3,1.3-0.3c0.8,0,1.4,0.5,1.7,1.6c0.2,0.8,0.5,1.7,1,2.6c0.4,0.9,0.7,1.6,0.9,2.2
	c0.3,0.9,0.5,1.5,0.8,1.7c0.1,0.1,0.1,0.2,0.2,0.2s0.2-0.6,0.3-1.8c0.1-1.1,0.1-1.9,0.1-2.3v-0.5c0-0.2,0-0.5,0-0.8
	c0-0.7,0.2-1.2,0.6-1.6c0.3-0.4,0.9-0.6,1.5-0.6c0.5,0,0.9,0.1,1.2,0.4c0.2,0.2,0.4,0.5,0.4,1s0,1-0.1,1.5s-0.1,3.9-0.2,10.2
	c0,4-0.1,6.3-0.1,7.1s-0.1,1.3-0.3,1.5c-0.3,0.3-0.7,0.5-1.3,0.5c-1.2,0-1.9-0.6-2.1-1.8c-0.1-0.5-0.4-1.3-0.8-2.5
	c-0.4-1.1-0.7-2.1-0.8-3c-0.2-1.1-0.6-2.7-1.2-4.6c-0.1-0.2-0.1-0.2-0.1-0.2c-0.1,0-0.2,1.2-0.2,3.5v2v2.2c0,2.3-0.1,3.6-0.2,3.9
	c-0.3,0.8-0.9,1.2-1.8,1.2c-0.5,0-1-0.2-1.3-0.5c-0.2-0.3-0.4-0.6-0.4-0.8c0-0.1,0-0.3,0.1-0.8c0.1-0.9,0.2-4.3,0.2-10.1
	c0-6.5,0.1-9.9,0.2-10.3c0.1-0.2,0.2-0.4,0.5-0.5C253,427.5,253,427.5,253.1,427.4z"/>
<path class="st5" d="M223.4,238.1c0.4-0.1,0.7-0.2,1-0.2c0.7,0,1.2,0.2,1.5,0.8c0.2,0.3,0.5,1.5,0.7,3.6s0.4,4.4,0.5,6.8
	c0,0.8,0.1,1.9,0.2,3.4c0.1,1.5,0.1,2.7,0.2,3.8c0,1.1,0.1,1.9,0.1,2.5c0,0.4-0.2,0.7-0.6,0.9s-0.9,0.4-1.3,0.4
	c-0.4,0-0.7-0.1-0.9-0.2l-0.6-0.4l-0.1-5.1c-0.2-5.8-0.4-8.7-0.8-8.7c-0.2,0-0.5,0.7-1,2.2c-0.2,0.8-0.5,1.4-0.8,1.7
	c-0.3,0.3-0.6,0.5-1,0.5c-0.3,0-0.7-0.1-1.1-0.2c-0.5-0.2-0.9-0.6-1.2-1.3c-0.3-0.7-0.5-1.1-0.5-1.2s-0.1-0.3-0.2-0.6
	c-0.1-0.3-0.3-0.6-0.5-0.8c-0.2-0.2-0.3-0.3-0.3-0.3v0.5c0,1.2,0,3,0.1,5.4l0.2,5.8l-0.6,0.9c-0.6,1-1.1,1.4-1.6,1.4
	c-0.3,0-0.6-0.2-0.8-0.6c-0.2-0.3-0.4-0.9-0.4-1.6c-0.1-0.7-0.1-2.8-0.2-6.3c-0.2-6.5-0.3-10.2-0.5-11c0-0.1,0-0.3,0-0.5
	c0-0.3,0.1-0.6,0.5-0.9c0.3-0.3,0.7-0.5,1.2-0.5c0.4,0,1,0.1,1.6,0.4c0.6,0.2,1,0.6,1.3,1s1,1.7,2.1,3.7c0.3,0.5,0.5,0.8,0.7,0.8
	c0.1,0,0.3-0.2,0.4-0.6c0.1-0.5,0.4-1,0.7-1.7c0.4-0.8,0.6-1.3,0.6-1.4c0-0.2,0.2-0.7,0.6-1.3S223.2,238.2,223.4,238.1z"/>
<path class="st5" d="M233.5,238.7c0.3-0.1,0.8-0.1,1.3-0.1c1.5,0,2.5,0.2,2.9,0.5c0.3,0.2,0.4,0.6,0.4,0.9c0,0.4-0.1,0.7-0.4,0.9
	s-0.6,0.4-1.1,0.4c-0.4,0-0.7,0.1-0.8,0.3c-0.1,0.2-0.2,0.7-0.2,1.4c0,0.2,0,0.9,0.1,2.1c0.1,1.4,0.1,2.3,0.2,2.7
	c0.1,0.4,0.2,0.6,0.3,0.7c0,0,0.2,0,0.5,0s0.6,0,0.8,0c0.7,0,1.2,0.2,1.5,0.5c0.2,0.2,0.3,0.4,0.3,0.6c0,0.4-0.6,0.8-1.8,1.3
	c-0.7,0.2-1.1,0.4-1.3,0.6c-0.1,0.1-0.2,0.4-0.3,0.9c-0.1,0.4-0.1,0.8-0.1,1.2c0,1.4,0.1,2.5,0.4,3.1c0.1,0.3,0.2,0.5,0.4,0.5
	c0.1,0.1,0.4,0.1,0.9,0.1c0.6,0,1.1,0.1,1.5,0.4s0.6,0.6,0.6,0.9c0,0.2-0.2,0.6-0.6,1c-0.7,0.6-1.8,1-3.4,1c-1.6,0-2.7-0.4-3.2-1
	c-0.3-0.4-0.4-2.8-0.5-7.2c-0.1-5.5-0.1-8.8-0.2-9.7l-0.1-3.1l0.6-0.3C232.7,239,233.1,238.8,233.5,238.7z"/>
<path class="st5" d="M254.6,238.1c0.4-0.1,0.7-0.2,1-0.2c0.7,0,1.2,0.2,1.6,0.8c0.2,0.3,0.4,1.5,0.7,3.6c0.2,2.1,0.4,4.4,0.5,6.8
	c0,0.8,0.1,1.9,0.1,3.4s0.1,2.7,0.2,3.8c0,1.1,0.1,1.9,0.1,2.5c0,0.4-0.2,0.7-0.6,0.9c-0.4,0.2-0.9,0.4-1.3,0.4s-0.7-0.1-0.9-0.2
	l-0.5-0.4l-0.1-5.1c-0.2-5.8-0.5-8.7-0.8-8.7c-0.2,0-0.5,0.7-1,2.2c-0.2,0.8-0.5,1.4-0.8,1.7c-0.3,0.3-0.6,0.5-1,0.5
	c-0.3,0-0.7-0.1-1.1-0.2c-0.5-0.2-0.9-0.6-1.2-1.3c-0.3-0.7-0.5-1.1-0.5-1.2s-0.1-0.3-0.2-0.6c-0.1-0.3-0.3-0.6-0.5-0.8
	c-0.2-0.2-0.3-0.3-0.3-0.3v0.5c0,1.2,0,3,0.1,5.4l0.2,5.8l-0.5,0.9c-0.6,1-1.1,1.4-1.5,1.4c-0.3,0-0.6-0.2-0.8-0.6
	c-0.2-0.3-0.4-0.9-0.4-1.6c-0.1-0.7-0.1-2.8-0.2-6.3c-0.2-6.5-0.3-10.2-0.5-11c0-0.1,0-0.3,0-0.5c0-0.3,0.2-0.6,0.5-0.9
	s0.7-0.5,1.2-0.5c0.4,0,1,0.1,1.6,0.4c0.6,0.2,1,0.6,1.3,1s1,1.7,2.1,3.7c0.3,0.5,0.5,0.8,0.7,0.8c0.1,0,0.3-0.2,0.4-0.6
	c0.1-0.5,0.4-1,0.7-1.7c0.4-0.8,0.6-1.3,0.6-1.4c0-0.2,0.2-0.7,0.6-1.3C254.1,238.5,254.4,238.2,254.6,238.1z"/>
<path class="st5" d="M264,238.2l0.8-1h5.2l0.8,0.8c0.5,0.5,0.9,1.2,1.1,2s0.4,2.1,0.6,3.8c0.1,0.6,0.1,1.6,0.1,2.8
	c0,2.9-0.3,5.4-0.8,7.8c-0.5,2.3-1.2,3.9-2.1,4.8c-0.3,0.3-0.7,0.5-1.2,0.7s-1,0.3-1.4,0.3c-0.2,0-0.3,0-0.4-0.1
	c-0.2-0.1-0.5-0.2-0.9-0.2c-0.3,0-0.6-0.2-1-0.7s-0.7-1-0.9-1.7c-0.4-1.1-0.6-2.3-0.8-3.6c-0.1-1.3-0.2-3.4-0.2-6.3v-2
	c0-2.6,0.1-4.4,0.2-5.3C263.2,239.5,263.5,238.8,264,238.2z M267.9,240.2c-0.2-0.5-0.5-0.8-0.6-0.8c-0.2,0-0.4,0.4-0.7,1.3
	c-0.2,0.7-0.3,2-0.3,3.9c0,1.5,0.1,3.1,0.2,4.8c0.1,1.6,0.3,3.1,0.5,4.5s0.5,2.1,0.7,2.1c0.1,0,0.3-0.3,0.4-0.9
	c0.1-0.5,0.3-0.9,0.5-1.3c0.1-0.2,0.2-1.4,0.4-3.7c0.1-1.2,0.1-2.3,0.1-3.3C269,243.7,268.6,241.5,267.9,240.2z"/>
<path class="st5" d="M278.2,236.4c0.5-0.2,1.1-0.2,1.9-0.2s1.5,0.1,1.9,0.2c0.7,0.3,1.3,0.9,1.7,1.7c0.2,0.4,0.3,1.1,0.5,2.2
	c0.1,1.1,0.2,2,0.2,2.9c0,0.4,0,0.7,0,0.8c-0.1,0.7-0.3,1.5-0.6,2.3c-0.3,0.9-0.5,1.3-0.6,1.3c-0.2,0-0.3,0.2-0.3,0.5
	s0.1,0.6,0.3,0.9c0.4,0.6,1.1,1.8,1.9,3.6c0.8,1.7,1.3,2.8,1.3,3.3c0,0.1,0,0.3,0,0.6c0,0.4-0.1,0.7-0.3,1c-0.2,0.3-0.5,0.5-0.8,0.5
	s-0.5,0-0.8,0c-0.7-0.1-1.1-0.2-1.3-0.3c-0.2-0.1-0.3-0.3-0.3-0.7c0-0.6-0.3-1.4-0.9-2.6s-1-1.7-1.3-1.7l0,0
	c-0.1,0.1-0.1,0.4-0.1,0.9c0,0.8,0.1,1.8,0.2,2.8c0.1,0.4,0.1,0.8,0.1,0.9c0,1-0.2,1.5-0.6,1.8c-0.2,0.1-0.4,0.1-0.7,0.1
	c-0.9,0-1.5-0.2-1.7-0.6c-0.1-0.2-0.2-2.1-0.3-5.7c0-1.1-0.1-2.4-0.1-3.7c0-1.3,0-2.3,0-2.9s0-1.4-0.1-2.4s-0.2-2-0.3-3.2
	c-0.1-1.3-0.2-2.1-0.2-2.4c0-0.7,0.1-1.1,0.3-1.4C277.3,236.8,277.7,236.6,278.2,236.4z M280.8,239.5c-0.1-0.2-0.2-0.3-0.5-0.3
	c-0.2,0-0.3,0.1-0.4,0.3c-0.1,0.2-0.1,0.4,0,0.5c0,0,0.1,0.9,0.2,2.7s0.2,2.7,0.3,2.8c0.1,0.1,0.2-0.1,0.4-0.3
	c0.2-0.2,0.2-0.7,0.2-1.4c0-0.5,0-1,0-1.4C281,240.8,281,239.8,280.8,239.5z"/>
<path class="st5" d="M292.8,236.9c0.4-0.2,0.8-0.2,1.1-0.2c0.4,0,0.8,0.2,1.1,0.5c0.3,0.4,0.5,1.1,0.6,2.1c0.1,2,0.5,3.7,1.1,5.3
	c0.2,0.5,0.3,0.9,0.3,1.2c0,0.1,0,0.2,0.1,0.2c0,0.1,0.1,0.1,0.1,0c0.2-0.1,0.2-0.5,0.2-1.3s0-1.2,0.1-1.3c0.1-0.1,0.1-0.9,0.2-2.6
	s0.1-2.8,0.1-3.2c0-0.2,0.3-0.4,0.9-0.7c0.6-0.2,1.1-0.4,1.5-0.4c0.6,0,1.1,0.2,1.3,0.6c0.2,0.3,0.4,0.7,0.4,1s-0.1,1.8-0.4,4.4
	c-0.1,0.5-0.2,2-0.3,4.5c-0.1,1.9-0.5,4.1-1.2,6.7c-0.3,1.3-0.7,2.4-1,3.1c-0.4,0.7-0.9,1.4-1.5,2.1c-0.3,0.4-0.6,0.6-0.8,0.6
	c-0.2,0-0.3,0.2-0.5,0.5c-0.1,0.3-0.5,0.5-1,0.7s-1.1,0.3-1.7,0.3c-0.5,0-1-0.2-1.6-0.5s-0.9-0.6-0.9-0.8c0-0.3,0.2-0.6,0.5-1
	s0.7-0.7,1.2-0.9c0.8-0.4,1.5-0.9,2-1.6s1-1.7,1.4-3c0.5-1.5,0.7-2.4,0.7-2.8c0-0.3-0.2-0.5-0.7-0.7c-1.2-0.5-2-1.1-2.4-1.8
	c-0.2-0.4-0.6-2.2-1.3-5.4c-0.4-1.6-0.5-2.8-0.5-3.7C291.8,237.9,292.1,237.2,292.8,236.9z"/>
<path class="st5" d="M67.5,196.7c-7.2-0.1-19.6-4.8-18.7-8.9c0.9-4.1,19.7-2.4,19.7-2.4"/>
<path class="st2" d="M147.3,143.8c0,0-32.7,1.7-44.2-22.2C103,121.5,142.7,111.6,147.3,143.8z"/>
<path class="st2" d="M135.6,118.3c0,0-13.6,15.4-37.6,4.9C97.9,123.1,118.1,106.2,135.6,118.3z"/>
<path class="st6" d="M76.3,121.7c-10.2,4.7-25.7,18.2-23.9,44.9c0.5,7.2,4.7,20.1,10.5,26.6c11.4,12.8,2.5,15.7,3.7,23.1
	s13.7,1.1,45.6-1.5c19.2-1.6,20.6,7.6,23-1.4c2.2-8.6-3.7-10.5-0.9-18.5c3.4-9.9,6.6-11.7,7.4-27.1
	C144.5,116.3,95.8,112.7,76.3,121.7z"/>
<path class="st2" d="M94.8,99.8c0,0-6.4,7.5,1.1,13.6C95.8,113.4,98.2,109.5,94.8,99.8z"/>
<path class="st7" d="M90.8,121.8c0.2-1.3,5.5-15.6,18.4-16.4"/>
<path class="st8" d="M109.6,103.5c0,0-5.8-6.8-6.5-3C102.5,104.3,109.3,106.2,109.6,103.5z"/>
<path class="st8" d="M110.5,105c0,0-7.8-4.5-7-0.3C104.3,108.8,111.3,107.9,110.5,105z"/>
<path class="st8" d="M110.8,105.4c0,0-0.4-8.9-3.7-7.2C103.8,99.9,108.6,106.9,110.8,105.4z"/>
<path class="st8" d="M106.6,105.8c0,0,10,2.3,7.8-1.9C112.2,99.6,104.8,102.9,106.6,105.8z"/>
<path class="st8" d="M109.9,104.4c0,0,6.5,2.3,4,4.8C111.3,111.8,108,106,109.9,104.4z"/>
<path class="st8" d="M111.8,104.9c0,0-2.3,8.8-4.7,5.3S110.2,102.4,111.8,104.9z"/>
<path class="st9" d="M112.5,107.2c0.9-0.9,0.4-2.9-1.1-4.3c-1.5-1.5-3.4-1.9-4.4-1c-0.9,0.9-0.4,2.9,1.1,4.3
	C109.6,107.7,111.6,108.1,112.5,107.2z"/>
<path d="M80.2,151.4c1.8,0,3.2-1.4,3.2-3.2c0-1.8-1.4-3.2-3.2-3.2c-1.8,0-3.2,1.4-3.2,3.2S78.5,151.4,80.2,151.4z"/>
<path d="M106,145c1.8,0,3.2-1.4,3.2-3.2c0-1.8-1.4-3.2-3.2-3.2c-1.8,0-3.2,1.4-3.2,3.2S104.3,145,106,145z"/>
<path d="M96.1,155.1c-0.3,0.8-1,1.3-1.9,1.4l0,0c-0.8,0.1-1.4-0.2-1.9-0.7c-0.7,0.5-1.1,1.1-1.1,1.9c0.1,1.3,1.8,2.2,3.8,2.1
	c2-0.2,3.5-1.3,3.4-2.7C98.3,156.1,97.4,155.4,96.1,155.1z"/>
<path class="st0" d="M94.3,157c0.1,0,0.2-0.1,0.3-0.1c0.4-0.1,0.7-0.3,0.9-0.7c0.2-0.4,0.5-0.9,0.6-1.1c-0.5-0.1-1-0.1-1.5-0.1
	c-0.9,0.1-1.7,0.4-2.3,0.8c0.2,0.2,0.5,0.5,0.7,0.8C93.3,156.9,93.8,157,94.3,157z"/>
<linearGradient id="SVGID_1_" gradientUnits="userSpaceOnUse" x1="46.668" y1="401.6089" x2="176.1234" y2="387.0181" gradientTransform="matrix(1 0 0 1 0 -266)">
	<stop  offset="0" style="stop-color:#FFFFFF"/>
	<stop  offset="0.5553" style="stop-color:#FDFDFD;stop-opacity:0.4447"/>
	<stop  offset="0.7554" style="stop-color:#F7F6F6;stop-opacity:0.2446"/>
	<stop  offset="0.8974" style="stop-color:#EBEBEB;stop-opacity:0.1026"/>
	<stop  offset="1" style="stop-color:#DDDCDC;stop-opacity:0"/>
</linearGradient>
<path class="st10" d="M68.7,181.5l110.6-31.9L110.8,80l-62.6,69.6L68.7,181.5z"/>
<path class="st1" d="M72.2,182.4l-18.5,6.7c-1.3,0.5-2.6-0.2-3.1-1.4l-12.7-35.2c-0.4-1.3,0.2-2.6,1.5-3.1l18.5-6.7
	c1.3-0.4,2.6,0.2,3.1,1.5l12.7,35.2C74.1,180.6,73.4,182,72.2,182.4z"/>
<path class="st0" d="M47.4,152.7l-5.9,2.1c-0.2,0.1-0.4,0-0.4-0.2L40,152c-0.1-0.2,0-0.4,0.2-0.4l6-2.1c0.2-0.1,0.4,0,0.4,0.2
	l0.9,2.6C47.6,152.4,47.5,152.6,47.4,152.7z"/>
<path class="st1" d="M42.3,153.5c0.4,0,0.7-0.3,0.7-0.7c0-0.4-0.3-0.7-0.7-0.7s-0.7,0.3-0.7,0.7S41.9,153.5,42.3,153.5z"/>
<path class="st1" d="M45.3,152.5c0.4,0,0.7-0.3,0.7-0.7c0-0.4-0.3-0.7-0.7-0.7s-0.7,0.3-0.7,0.7C44.6,152.1,44.9,152.5,45.3,152.5z"
	/>
<path class="st0" d="M62.5,148.7l-23,8.3l0.1,0.4l23.1-8.3L62.5,148.7z"/>
<path class="st1" d="M64.6,154.6l-0.7,0.2c-0.2,0.1-0.4,0-0.4-0.2l-1.2-3.4c-0.1-0.2,0-0.4,0.2-0.4l0.7-0.2c0.2-0.1,0.4,0,0.4,0.2
	l1.2,3.4C64.9,154.3,64.8,154.5,64.6,154.6z"/>
<path class="st1" d="M66.1,158.8l-0.7,0.2c-0.2,0.1-0.4,0-0.4-0.2l-1.2-3.4c-0.1-0.2,0-0.4,0.2-0.4l0.7-0.2c0.2-0.1,0.4,0,0.4,0.2
	l1.2,3.4C66.4,158.5,66.3,158.7,66.1,158.8z"/>
<path class="st5" d="M206.9,364.5c0.3-2.4,2.4-25,1.3-33.9c9.4,6.6,29.3,25.1,13.5,45.4C210.4,390.5,207.2,364.1,206.9,364.5z"/>
<path class="st5" d="M136.2,365.4c-0.1-2.4,0.4-25.1,2.4-33.8c-10,5.5-31.9,21.6-18.4,43.6C129.8,390.9,136,365,136.2,365.4z"/>
<path class="st11" d="M223.4,313.9c0,0-28.3,16.6-46.7-2.6C176.7,311.3,204.8,292.6,223.4,313.9z"/>
<path class="st2" d="M205.1,295.4c0,0-4.9,20-31,21.8C174.1,317.2,184.1,292.8,205.1,295.4z"/>
<path class="st6" d="M151.3,313.4c-10.2,4.7-25.7,18.2-23.9,45c0.5,7.2,2.5,18.1,8.4,24.6c11.4,12.8,4.7,17.7,5.9,25.1
	c1.2,7.4,13.7,1.1,45.6-1.5c19.2-1.6,20.6,7.6,23-1.4c2.2-8.6-3.7-10.5-0.9-18.5c3.4-9.9,6.6-11.7,7.4-27.1
	C219.5,308,170.8,304.4,151.3,313.4z"/>
<path class="st2" d="M163.6,296.5c0,0-1.7,5.9,3.7,10.3C167.3,306.9,168.5,304.6,163.6,296.5z"/>
<path class="st7" d="M170.4,312c-2.4-3.2-4.7-12.2-18-11.6"/>
<path class="st8" d="M153,299.9c0,0,5.8-6.8,6.5-3C160.2,300.7,153.3,302.6,153,299.9z"/>
<path class="st8" d="M152.1,301.4c0,0,7.8-4.5,7-0.3C158.2,305.2,151.3,304.3,152.1,301.4z"/>
<path class="st8" d="M151.8,301.9c0,0,0.4-8.9,3.7-7.2C158.8,296.4,154,303.3,151.8,301.9z"/>
<path class="st8" d="M156,302.2c0,0-10,2.3-7.8-1.9C150.4,296,157.8,299.3,156,302.2z"/>
<path class="st8" d="M152.7,300.8c0,0-6.5,2.3-4,4.8C151.3,308.2,154.6,302.4,152.7,300.8z"/>
<path class="st8" d="M150.8,301.4c0,0,2.3,8.8,4.7,5.3C157.9,303.2,152.4,298.8,150.8,301.4z"/>
<path class="st9" d="M154.4,302.6c1.5-1.5,2-3.4,1.1-4.3s-2.9-0.5-4.4,1s-2,3.4-1.1,4.3C151,304.6,152.9,304.1,154.4,302.6z"/>
<path d="M164.3,333.3c2.4,1.1-7.4,3.3-7.8,2.8c-0.3-0.5,4.8-1.7,4.5-2.2s-4.7-1.4-4.6-1.9C156.4,331.4,161.9,332.2,164.3,333.3z"/>
<path d="M174.3,333.3c-2.4,1.1,7.4,3.3,7.8,2.8c0.3-0.5-4.8-1.7-4.5-2.2s4.7-1.4,4.6-1.9C182.2,331.4,176.7,332.2,174.3,333.3z"/>
<path d="M173.2,339.8c0,0.7-2.1,0.6-4.6,0.6s-4.6,0.1-4.6-0.6s2.1-1.3,4.6-1.3S173.2,339.1,173.2,339.8z"/>
<path class="st5" d="M218.2,167.2c0.2-2.2,2.7-22.8,5.3-30.5c-9.6,4.1-31,16.8-20.8,38C210.1,189.9,218,166.9,218.2,167.2z"/>
<path class="st11" d="M298.9,130.7c0,0-29.2,4.3-46.2-16.3C252.6,114.4,276.9,107.8,298.9,130.7z"/>
<path class="st2" d="M283.9,115.9c0,0-9.9,5.8-35.9,1.3C248,117.2,257.7,102.2,283.9,115.9z"/>
<path class="st6" d="M234.6,117.4c-10.2,4.8-25.9,18.3-24.1,45.3c0.5,7.2,1.5,20.1,6,27.7c4.4,7.6,7.2,14.9,8.4,22.4
	s13.8,1.1,46-1.6c19.3-1.6,20.8,7.6,23.1-1.5c2.3-8.7-3.7-10.6-0.9-18.7c3.4-10,6.7-11.8,7.5-27.3
	C303.3,111.9,254.2,108.3,234.6,117.4z"/>
<path d="M242.9,142.3c0,1.8-1.4,1.5-3.2,1.5s-3.2,0.3-3.2-1.5s1.4-3.2,3.2-3.2C241.5,139.1,242.9,140.5,242.9,142.3z"/>
<path d="M269.2,142.3c0,1.8-1.4,1.5-3.2,1.5c-1.8,0-3.2,0.3-3.2-1.5s1.4-3.2,3.2-3.2C267.8,139.1,269.2,140.5,269.2,142.3z"/>
<path d="M248,153c-0.4-0.6,3.4-1.4,5.8-0.6c2.5,0.8,3.7,3.2,3.1,3.5c-1,0.4-1.8-2-4.3-2.8C250.2,152.2,248.6,153.9,248,153z"/>
<path class="st0" d="M253.3,153.9h-0.8c-0.4,0-0.7-0.3-0.7-0.7l0.1-1.2c0.8,0,1.4,0.2,2.1,0.4v0.8
	C254,153.6,253.7,153.9,253.3,153.9z"/>
<path class="st5" d="M283,129.8c4.9,5.4,11.9,16.5,16.7,20c-6.7,1.4-18.8,1.9-27.5-4.4c-4.6-3.4-8.2-8.6-9.5-16.7
	c-1.5-9.4,4.1-8.9,9.2-6.8C276.2,123.6,279.9,126.4,283,129.8z"/>
<path class="st2" d="M246,105.3c0,0-0.6,5.3,4.3,8.4C250.3,113.8,251,111.6,246,105.3z"/>
<path class="st7" d="M253.5,117.7c-2.3-2.4-5.3-9.9-16-7.6"/>
<path class="st8" d="M235.1,109.2c0,0-4.5,6.2-1.3,6.1C236.9,115.2,237.3,108.9,235.1,109.2z"/>
<path class="st8" d="M236.1,108.1c0,0-2.3,7.5,0.9,6.1C240.2,112.8,238.3,106.9,236.1,108.1z"/>
<path class="st8" d="M236.4,107.8c0,0-7.1,1.9-5.2,4.4C233.2,114.8,237.9,109.4,236.4,107.8z"/>
<path class="st8" d="M237.4,111.3c0,0,0.2-9-2.8-6.3C231.6,107.6,235.4,113.4,237.4,111.3z"/>
<path class="st8" d="M235.7,108.8c0,0,0.8-6,3.2-4.3S237.4,110.1,235.7,108.8z"/>
<path class="st8" d="M235.9,107.1c0,0,7.4,0.4,5,3.1C238.5,112.8,234.1,108.8,235.9,107.1z"/>
<path class="st9" d="M237.6,109.8c0.9-1.6,0.8-3.3-0.1-3.8c-0.9-0.5-2.4,0.3-3.3,1.9c-0.9,1.6-0.8,3.3,0.1,3.8
	C235.2,112.2,236.7,111.4,237.6,109.8z"/>
</svg>
