<?xml version="1.0" encoding="utf-8"?>
<!-- Generator: Adobe Illustrator 25.1.0, SVG Export Plug-In . SVG Version: 6.00 Build 0)  -->
<svg version="1.1" id="Layer_1" xmlns="http://www.w3.org/2000/svg" xmlns:xlink="http://www.w3.org/1999/xlink" x="0px" y="0px"
	 viewBox="0 0 327.6 318.4" style="enable-background:new 0 0 327.6 318.4;" xml:space="preserve">
<style type="text/css">
	.st0{fill:#FFFFFF;}
	.st1{fill:#808080;}
	.st2{fill:#D64204;}
	.st3{fill:#FFCF8D;}
	.st4{fill:#FF9F1A;}
</style>
<g>
	<g>
		<path class="st0" d="M327.6,233.5c0-106.1-43.7-151.2-44.5-181.6C281.8-0.7,250.3-0.3,130.6,0.7C94.5,1,11.6-6.8,5.3,23.3
			C-1,53,0.1,112.6,0.1,166c0,84,1.7,135.9,38.8,146.6c37.7,10.8,145.1,3.4,190.5,2.1C276.4,313.4,327.6,319.1,327.6,233.5z"/>
		<path class="st1" d="M27.7,41V29.8H29l6,9v-9h1.3V41H35l-6-9v9H27.7z"/>
		<path class="st1" d="M42.3,41.2c-0.8,0-1.4-0.2-2-0.5s-1.1-0.8-1.4-1.4c-0.4-0.6-0.5-1.4-0.5-2.2s0.2-1.6,0.5-2.2
			c0.4-0.6,0.8-1.1,1.4-1.5c0.6-0.3,1.3-0.5,2-0.5s1.4,0.2,2,0.5s1.1,0.8,1.4,1.5c0.3,0.6,0.5,1.4,0.5,2.2s-0.2,1.6-0.5,2.2
			s-0.8,1.1-1.4,1.4S43,41.2,42.3,41.2z M42.3,40c0.5,0,0.9-0.1,1.3-0.3s0.7-0.6,1-1c0.2-0.5,0.4-1,0.4-1.7s-0.1-1.2-0.4-1.7
			c-0.2-0.4-0.6-0.8-1-1S42.8,34,42.3,34s-0.9,0.1-1.3,0.3s-0.7,0.6-1,1s-0.4,1-0.4,1.7s0.1,1.2,0.4,1.7c0.2,0.4,0.6,0.8,1,1
			C41.4,39.9,41.8,40,42.3,40z"/>
		<path class="st1" d="M50.9,41c-0.7,0-1.3-0.2-1.7-0.5c-0.4-0.4-0.6-1-0.6-1.9v-4.4h-1.4v-1.1h1.4l0.2-1.9H50v1.9h2.3v1.1H50v4.4
			c0,0.5,0.1,0.8,0.3,1s0.6,0.3,1.1,0.3h0.8v1.2L50.9,41L50.9,41z"/>
		<path class="st1" d="M61.3,41.2c-1,0-1.7-0.2-2.4-0.7c-0.6-0.5-1-1.1-1.1-2h1.4c0.1,0.4,0.3,0.8,0.7,1.1c0.4,0.3,0.8,0.5,1.4,0.5
			s1-0.1,1.2-0.4c0.3-0.2,0.4-0.5,0.4-0.9c0-0.5-0.2-0.8-0.5-1s-0.8-0.3-1.5-0.4c-0.4-0.1-0.8-0.2-1.3-0.4c-0.4-0.2-0.8-0.4-1.1-0.7
			c-0.3-0.3-0.4-0.7-0.4-1.2c0-0.7,0.3-1.3,0.8-1.7s1.2-0.7,2.1-0.7c0.8,0,1.5,0.2,2.1,0.6c0.5,0.4,0.8,1,0.9,1.8h-1.3
			c0-0.4-0.2-0.7-0.5-0.9s-0.7-0.3-1.2-0.3s-0.8,0.1-1.1,0.3s-0.4,0.5-0.4,0.8s0.2,0.6,0.5,0.8s0.8,0.3,1.4,0.5
			c0.5,0.1,1,0.2,1.4,0.4c0.4,0.1,0.8,0.4,1.1,0.7c0.3,0.3,0.4,0.7,0.4,1.3c0,0.7-0.3,1.3-0.8,1.8C63,40.9,62.2,41.2,61.3,41.2z"/>
		<path class="st1" d="M66.2,41V29.5h1.4V41H66.2z"/>
		<path class="st1" d="M73.3,41.2c-0.8,0-1.4-0.2-2-0.5c-0.6-0.4-1.1-0.8-1.4-1.4c-0.3-0.6-0.5-1.4-0.5-2.2s0.2-1.6,0.5-2.2
			c0.3-0.6,0.8-1.1,1.4-1.5s1.3-0.5,2.1-0.5c0.8,0,1.4,0.2,2,0.5s1,0.8,1.3,1.4c0.3,0.6,0.5,1.2,0.5,1.8c0,0.1,0,0.2,0,0.3
			s0,0.2,0,0.4h-6.3c0,0.6,0.2,1.1,0.4,1.5s0.6,0.7,0.9,0.9c0.4,0.2,0.8,0.3,1.2,0.3c0.6,0,1-0.1,1.4-0.4c0.4-0.3,0.7-0.6,0.8-1h1.3
			c-0.2,0.7-0.6,1.4-1.2,1.8C75.1,40.9,74.3,41.2,73.3,41.2z M73.3,34c-0.6,0-1.2,0.2-1.7,0.6c-0.5,0.4-0.8,1-0.9,1.7h5
			c0-0.7-0.3-1.3-0.7-1.7C74.6,34.2,74,34,73.3,34z"/>
		<path class="st1" d="M82.4,41.2c-0.8,0-1.4-0.2-2-0.5c-0.6-0.4-1.1-0.8-1.4-1.4c-0.3-0.6-0.5-1.4-0.5-2.2s0.2-1.6,0.5-2.2
			c0.3-0.6,0.8-1.1,1.4-1.5s1.3-0.5,2.1-0.5c0.8,0,1.4,0.2,2,0.5s1,0.8,1.3,1.4c0.3,0.6,0.5,1.2,0.5,1.8c0,0.1,0,0.2,0,0.3
			s0,0.2,0,0.4H80c0,0.6,0.2,1.1,0.4,1.5s0.6,0.7,0.9,0.9c0.4,0.2,0.8,0.3,1.2,0.3c0.6,0,1-0.1,1.4-0.4c0.4-0.3,0.7-0.6,0.8-1H86
			c-0.2,0.7-0.6,1.4-1.2,1.8C84.2,40.9,83.4,41.2,82.4,41.2z M82.4,34c-0.6,0-1.2,0.2-1.7,0.6c-0.5,0.4-0.8,1-0.9,1.7h5
			c0-0.7-0.3-1.3-0.7-1.7C83.7,34.2,83.1,34,82.4,34z"/>
		<path class="st1" d="M88,44.5V33h1.2l0.1,1.3c0.3-0.4,0.6-0.7,1.1-1s1.1-0.5,1.8-0.5c0.8,0,1.5,0.2,2.1,0.5c0.6,0.4,1,0.9,1.4,1.5
			s0.5,1.3,0.5,2.1S96,38.4,95.7,39s-0.8,1.1-1.4,1.5S93,41,92.2,41c-0.6,0-1.2-0.1-1.7-0.4s-0.9-0.6-1.2-1.1v4.8H88
			C88,44.3,88,44.5,88,44.5z M92.1,40c0.5,0,1-0.1,1.4-0.4c0.4-0.2,0.7-0.6,1-1.1c0.2-0.4,0.3-1,0.3-1.6s-0.1-1.1-0.3-1.6
			c-0.2-0.4-0.6-0.8-1-1.1c-0.4-0.2-0.9-0.4-1.4-0.4s-1,0.1-1.4,0.4c-0.4,0.2-0.7,0.6-1,1.1c-0.2,0.4-0.3,1-0.3,1.6s0.1,1.1,0.3,1.6
			c0.2,0.4,0.6,0.8,1,1.1S91.5,40,92.1,40z"/>
		<path class="st1" d="M98.8,31.3c-0.3,0-0.5-0.1-0.7-0.3s-0.3-0.4-0.3-0.7s0.1-0.5,0.3-0.6c0.2-0.2,0.4-0.3,0.7-0.3
			s0.5,0.1,0.7,0.3s0.3,0.4,0.3,0.6c0,0.3-0.1,0.5-0.3,0.7C99.3,31.2,99.1,31.3,98.8,31.3z M98.2,41v-7.9h1.3V41H98.2z"/>
		<path class="st1" d="M101.8,41v-7.9h1.2l0.1,1.4c0.3-0.5,0.6-0.9,1.1-1.2s1-0.4,1.6-0.4c0.9,0,1.7,0.3,2.2,0.9
			c0.6,0.6,0.8,1.4,0.8,2.6V41h-1.2v-4.5c0-1.7-0.7-2.5-2.1-2.5c-0.7,0-1.2,0.2-1.7,0.7c-0.4,0.5-0.7,1.2-0.7,2.1v4.1L101.8,41
			L101.8,41z"/>
		<path class="st1" d="M114.1,38.5c-0.4,0-0.9-0.1-1.2-0.2l-0.8,0.8c0.1,0.1,0.3,0.2,0.4,0.2c0.2,0.1,0.4,0.1,0.8,0.2
			c0.3,0.1,0.8,0.1,1.4,0.1c1.1,0.1,1.8,0.3,2.3,0.7s0.7,1,0.7,1.6c0,0.5-0.1,0.9-0.4,1.3c-0.2,0.4-0.6,0.8-1.1,1
			c-0.5,0.3-1.2,0.4-2,0.4c-0.7,0-1.3-0.1-1.9-0.3s-1-0.5-1.3-0.9s-0.5-0.9-0.5-1.4c0-0.3,0.1-0.6,0.2-1c0.2-0.4,0.5-0.7,0.9-1
			c-0.2-0.1-0.4-0.2-0.6-0.3s-0.3-0.2-0.5-0.4v-0.2l1.4-1.3c-0.6-0.5-0.9-1.2-0.9-2.1c0-0.5,0.1-1,0.4-1.4c0.2-0.4,0.6-0.8,1.1-1
			s1-0.4,1.7-0.4c0.5,0,0.9,0.1,1.2,0.2h2.9v1l-1.5,0.1c0.3,0.4,0.5,1,0.5,1.6c0,0.5-0.1,1-0.4,1.4c-0.2,0.4-0.6,0.8-1.1,1
			C115.4,38.4,114.8,38.5,114.1,38.5z M111.8,42c0,0.5,0.2,0.9,0.7,1.2c0.4,0.3,1,0.4,1.7,0.4s1.2-0.1,1.6-0.4
			c0.4-0.3,0.6-0.7,0.6-1.2c0-0.3-0.1-0.6-0.4-0.9s-0.8-0.4-1.5-0.4c-0.6,0-1.1-0.1-1.5-0.2c-0.4,0.2-0.7,0.5-0.9,0.8
			C111.9,41.5,111.8,41.8,111.8,42z M114.1,37.4c0.6,0,1-0.1,1.4-0.4c0.3-0.3,0.5-0.7,0.5-1.3c0-0.5-0.2-1-0.5-1.3s-0.8-0.4-1.4-0.4
			s-1,0.2-1.4,0.4c-0.3,0.3-0.5,0.7-0.5,1.3c0,0.5,0.2,1,0.5,1.3C113.1,37.2,113.6,37.4,114.1,37.4z"/>
		<path class="st1" d="M124.5,41v-6.8h-1.2v-1.1h1.2v-1.4c0-0.8,0.2-1.3,0.6-1.7c0.4-0.4,0.9-0.5,1.7-0.5h0.8v1.1H127
			c-0.4,0-0.7,0.1-0.9,0.2s-0.3,0.4-0.3,0.8v1.3h2V34h-2v6.8L124.5,41L124.5,41z"/>
		<path class="st1" d="M132.7,41.2c-0.8,0-1.4-0.2-2-0.5s-1.1-0.8-1.4-1.4c-0.4-0.6-0.5-1.4-0.5-2.2s0.2-1.6,0.5-2.2
			c0.4-0.6,0.8-1.1,1.4-1.5c0.6-0.3,1.3-0.5,2-0.5s1.4,0.2,2,0.5s1.1,0.8,1.4,1.5c0.4,0.6,0.5,1.4,0.5,2.2s-0.2,1.6-0.5,2.2
			c-0.4,0.6-0.8,1.1-1.4,1.4C134.1,41,133.5,41.2,132.7,41.2z M132.7,40c0.5,0,0.9-0.1,1.3-0.3s0.7-0.6,1-1c0.2-0.5,0.4-1,0.4-1.7
			s-0.1-1.2-0.4-1.7c-0.2-0.4-0.6-0.8-1-1s-0.8-0.3-1.3-0.3s-0.9,0.1-1.3,0.3c-0.4,0.2-0.7,0.6-1,1s-0.4,1-0.4,1.7s0.1,1.2,0.4,1.7
			c0.2,0.4,0.6,0.8,1,1S132.2,40,132.7,40z"/>
		<path class="st1" d="M138.6,41v-7.9h1.2l0.1,1.5c0.2-0.5,0.6-0.9,1.1-1.2s1.1-0.5,1.9-0.5v1.4h-0.4c-0.5,0-0.9,0.1-1.3,0.2
			c-0.4,0.2-0.7,0.4-0.9,0.8c-0.2,0.4-0.4,0.9-0.4,1.6v4L138.6,41L138.6,41z"/>
		<path class="st1" d="M148.5,41v-0.9c0.8-0.6,1.5-1.2,2.1-1.8c0.7-0.6,1.3-1.2,1.8-1.8s0.9-1.2,1.2-1.8s0.5-1.1,0.5-1.7
			c0-0.4-0.1-0.8-0.2-1.1c-0.1-0.3-0.4-0.6-0.7-0.8s-0.7-0.3-1.2-0.3s-0.9,0.1-1.2,0.3s-0.6,0.5-0.7,0.9c-0.2,0.4-0.2,0.8-0.2,1.2
			h-1.3c0-0.7,0.1-1.4,0.5-1.9s0.7-0.9,1.3-1.2c0.5-0.3,1.1-0.4,1.8-0.4c1,0,1.8,0.3,2.4,0.8c0.6,0.6,0.9,1.4,0.9,2.5
			c0,0.7-0.2,1.3-0.5,2s-0.8,1.3-1.3,1.9c-0.5,0.6-1.1,1.2-1.6,1.7c-0.6,0.5-1.1,1-1.6,1.4h5.4v1.1L148.5,41L148.5,41z"/>
		<path class="st1" d="M162.6,41v-2.4h-5.7v-1l5.4-7.8h1.6v7.6h1.7v1.2h-1.7V41H162.6z M158.5,37.4h4.3v-6.1L158.5,37.4z"/>
		<path class="st1" d="M171.4,41V29.5h1.3v4.9c0.3-0.5,0.7-0.9,1.1-1.1c0.5-0.3,1-0.4,1.6-0.4c0.9,0,1.6,0.3,2.2,0.9
			c0.5,0.6,0.8,1.4,0.8,2.6V41h-1.3v-4.5c0-1.7-0.7-2.5-2-2.5c-0.7,0-1.3,0.2-1.7,0.7c-0.5,0.5-0.7,1.2-0.7,2.1v4.1L171.4,41
			L171.4,41z"/>
		<path class="st1" d="M184.2,41.2c-0.8,0-1.4-0.2-2-0.5s-1.1-0.8-1.4-1.4c-0.4-0.6-0.5-1.4-0.5-2.2s0.2-1.6,0.5-2.2
			c0.4-0.6,0.8-1.1,1.4-1.5c0.6-0.3,1.3-0.5,2-0.5c0.8,0,1.4,0.2,2,0.5s1.1,0.8,1.4,1.5c0.4,0.6,0.5,1.4,0.5,2.2s-0.2,1.6-0.5,2.2
			c-0.4,0.6-0.8,1.1-1.4,1.4C185.6,41,184.9,41.2,184.2,41.2z M184.2,40c0.5,0,0.9-0.1,1.3-0.3c0.4-0.2,0.7-0.6,1-1
			c0.2-0.5,0.4-1,0.4-1.7s-0.1-1.2-0.4-1.7c-0.2-0.4-0.6-0.8-1-1s-0.8-0.3-1.3-0.3s-0.9,0.1-1.3,0.3c-0.4,0.2-0.7,0.6-1,1
			s-0.4,1-0.4,1.7s0.1,1.2,0.4,1.7c0.2,0.4,0.6,0.8,1,1S183.7,40,184.2,40z"/>
		<path class="st1" d="M192.9,41.2c-0.9,0-1.7-0.3-2.2-0.9c-0.6-0.6-0.8-1.5-0.8-2.6v-4.6h1.3v4.5c0,1.6,0.7,2.5,2,2.5
			c0.7,0,1.3-0.2,1.7-0.7s0.7-1.2,0.7-2.1v-4.1h1.3v7.9h-1.2l-0.1-1.4c-0.2,0.5-0.6,0.9-1.1,1.2C194.1,41,193.5,41.2,192.9,41.2z"/>
		<path class="st1" d="M199.2,41v-7.9h1.2l0.1,1.5c0.2-0.5,0.6-0.9,1.1-1.2s1.1-0.5,1.9-0.5v1.4h-0.4c-0.5,0-0.9,0.1-1.3,0.2
			c-0.4,0.2-0.7,0.4-0.9,0.8c-0.2,0.4-0.4,0.9-0.4,1.6v4L199.2,41L199.2,41z"/>
		<path class="st1" d="M208,41.2c-0.9,0-1.7-0.2-2.4-0.7c-0.6-0.5-1-1.1-1.1-2h1.4c0.1,0.4,0.3,0.8,0.7,1.1s0.8,0.5,1.4,0.5
			c0.6,0,1-0.1,1.2-0.4s0.4-0.5,0.4-0.9c0-0.5-0.2-0.8-0.5-1c-0.4-0.2-0.8-0.3-1.5-0.4c-0.4-0.1-0.8-0.2-1.3-0.4
			c-0.4-0.2-0.8-0.4-1.1-0.7s-0.4-0.7-0.4-1.2c0-0.7,0.3-1.3,0.8-1.7s1.2-0.7,2.1-0.7c0.8,0,1.5,0.2,2.1,0.6c0.5,0.4,0.9,1,0.9,1.8
			h-1.3c0-0.4-0.2-0.7-0.5-0.9s-0.7-0.3-1.2-0.3s-0.8,0.1-1.1,0.3s-0.4,0.5-0.4,0.8s0.2,0.6,0.5,0.8s0.8,0.3,1.4,0.5
			c0.5,0.1,1,0.2,1.4,0.4c0.4,0.1,0.8,0.4,1.1,0.7s0.4,0.7,0.4,1.3c0,0.7-0.3,1.3-0.8,1.8C209.7,40.9,209,41.2,208,41.2z"/>
		<path class="st1" d="M218,31.3c-0.3,0-0.5-0.1-0.7-0.3s-0.3-0.4-0.3-0.7s0.1-0.5,0.3-0.6c0.2-0.2,0.4-0.3,0.7-0.3s0.5,0.1,0.7,0.3
			s0.3,0.4,0.3,0.6c0,0.3-0.1,0.5-0.3,0.7S218.3,31.3,218,31.3z M217.4,41v-7.9h1.3V41H217.4z"/>
		<path class="st1" d="M224.1,41.2c-1,0-1.7-0.2-2.4-0.7c-0.6-0.5-1-1.1-1.1-2h1.4c0.1,0.4,0.3,0.8,0.7,1.1s0.8,0.5,1.4,0.5
			c0.6,0,1-0.1,1.2-0.4c0.3-0.2,0.4-0.5,0.4-0.9c0-0.5-0.2-0.8-0.5-1c-0.4-0.2-0.8-0.3-1.5-0.4c-0.4-0.1-0.8-0.2-1.3-0.4
			c-0.4-0.2-0.8-0.4-1.1-0.7s-0.4-0.7-0.4-1.2c0-0.7,0.3-1.3,0.8-1.7s1.2-0.7,2.1-0.7c0.8,0,1.5,0.2,2.1,0.6c0.5,0.4,0.8,1,0.9,1.8
			h-1.2c-0.1-0.4-0.2-0.7-0.5-0.9s-0.7-0.3-1.2-0.3s-0.8,0.1-1.1,0.3s-0.4,0.5-0.4,0.8s0.2,0.6,0.5,0.8s0.8,0.3,1.4,0.5
			c0.5,0.1,1,0.2,1.4,0.4c0.4,0.1,0.8,0.4,1.1,0.7s0.4,0.7,0.4,1.3c0,0.7-0.3,1.3-0.8,1.8C225.8,40.9,225,41.2,224.1,41.2z"/>
		<path class="st1" d="M31.2,63.2c-0.8,0-1.4-0.2-2-0.5c-0.6-0.4-1-0.8-1.4-1.4c-0.3-0.6-0.5-1.4-0.5-2.2s0.2-1.6,0.5-2.2
			c0.3-0.6,0.8-1.1,1.4-1.5c0.6-0.4,1.3-0.5,2.1-0.5s1.4,0.2,2,0.5s1,0.8,1.3,1.4c0.3,0.6,0.5,1.2,0.5,1.8c0,0.1,0,0.2,0,0.3
			s0,0.2,0,0.4h-6.5c0,0.6,0.2,1.1,0.4,1.5s0.6,0.7,0.9,0.9c0.4,0.2,0.8,0.3,1.2,0.3c0.5,0,1-0.1,1.4-0.4s0.6-0.6,0.8-1h1.3
			c-0.2,0.7-0.6,1.4-1.2,1.8C32.9,62.9,32.1,63.2,31.2,63.2z M31.2,56c-0.6,0-1.2,0.2-1.7,0.6c-0.5,0.4-0.8,1-0.9,1.7h5
			c0-0.7-0.3-1.3-0.7-1.7C32.4,56.2,31.9,56,31.2,56z"/>
		<path class="st1" d="M43.2,66.5v-4.8c-0.3,0.4-0.6,0.7-1.1,1s-1.1,0.5-1.8,0.5c-0.8,0-1.5-0.2-2.1-0.5s-1.1-0.9-1.4-1.5
			c-0.3-0.6-0.5-1.3-0.5-2.1s0.2-1.5,0.5-2.1s0.8-1.1,1.4-1.5s1.3-0.5,2.1-0.5c0.6,0,1.2,0.1,1.7,0.4c0.5,0.3,0.9,0.6,1.2,1.1
			l0.1-1.3h1.3v11.5h-1.4V66.5z M40.5,62c0.5,0,1-0.1,1.4-0.4c0.4-0.2,0.7-0.6,1-1.1c0.2-0.4,0.3-1,0.3-1.6s-0.1-1.1-0.3-1.6
			c-0.2-0.4-0.5-0.8-1-1.1c-0.4-0.2-0.9-0.4-1.4-0.4s-1,0.1-1.4,0.4s-0.7,0.6-1,1.1s-0.3,1-0.3,1.6s0.1,1.1,0.3,1.6s0.5,0.8,1,1.1
			C39.5,61.9,39.9,62,40.5,62z"/>
		<path class="st1" d="M49.7,63.2c-0.9,0-1.7-0.3-2.2-0.9c-0.5-0.6-0.8-1.5-0.8-2.6v-4.6H48v4.5c0,1.6,0.7,2.5,2,2.5
			c0.7,0,1.3-0.2,1.7-0.7s0.7-1.2,0.7-2.1v-4.1h1.3v7.9h-1.2l-0.1-1.4c-0.2,0.5-0.6,0.9-1.1,1.2C50.8,63,50.3,63.2,49.7,63.2z"/>
		<path class="st1" d="M56.7,53.3c-0.3,0-0.5-0.1-0.7-0.3s-0.3-0.4-0.3-0.7s0.1-0.5,0.3-0.6c0.2-0.2,0.4-0.3,0.7-0.3
			s0.5,0.1,0.7,0.3s0.3,0.4,0.3,0.6c0,0.3-0.1,0.5-0.3,0.7S57,53.3,56.7,53.3z M56.1,63v-7.9h1.3V63H56.1z"/>
		<path class="st1" d="M62,63l-3-7.9h1.4l2.4,6.6l2.4-6.6h1.4l-3,7.9H62z"/>
		<path class="st1" d="M70.3,63.2c-0.7,0-1.2-0.1-1.7-0.3c-0.4-0.2-0.8-0.5-1-0.9s-0.3-0.8-0.3-1.2c0-0.8,0.3-1.4,0.9-1.9
			c0.6-0.4,1.5-0.7,2.5-0.7h2.1v-0.1c0-0.7-0.2-1.2-0.5-1.6S71.5,56,70.8,56c-0.5,0-1,0.1-1.4,0.4c-0.4,0.3-0.6,0.6-0.7,1.1h-1.4
			c0.1-0.6,0.2-1.1,0.6-1.5c0.3-0.4,0.8-0.7,1.3-0.9s1-0.3,1.6-0.3c1.1,0,1.9,0.3,2.5,0.9c0.6,0.6,0.8,1.4,0.8,2.4V63h-1.2l-0.1-1.4
			c-0.2,0.4-0.6,0.8-1,1.1C71.6,63,71,63.2,70.3,63.2z M70.5,62c0.5,0,0.9-0.1,1.3-0.4c0.4-0.3,0.7-0.6,0.8-1
			c0.2-0.4,0.3-0.9,0.3-1.3l0,0h-2c-0.8,0-1.3,0.1-1.7,0.4c-0.3,0.3-0.5,0.6-0.5,1s0.1,0.8,0.5,1C69.5,61.9,70,62,70.5,62z"/>
		<path class="st1" d="M76.3,63V51.5h1.3V63H76.3z"/>
		<path class="st1" d="M83.4,63.2c-0.8,0-1.4-0.2-2-0.5c-0.6-0.4-1.1-0.8-1.4-1.4c-0.3-0.6-0.5-1.4-0.5-2.2s0.2-1.6,0.5-2.2
			c0.3-0.6,0.8-1.1,1.4-1.5s1.3-0.5,2.1-0.5c0.8,0,1.4,0.2,2,0.5s1,0.8,1.3,1.4c0.3,0.6,0.5,1.2,0.5,1.8c0,0.1,0,0.2,0,0.3
			s0,0.2,0,0.4H81c0,0.6,0.2,1.1,0.4,1.5s0.6,0.7,0.9,0.9c0.4,0.2,0.8,0.3,1.2,0.3c0.6,0,1-0.1,1.4-0.4c0.4-0.3,0.7-0.6,0.8-1H87
			c-0.2,0.7-0.6,1.4-1.2,1.8C85.2,62.9,84.4,63.2,83.4,63.2z M83.4,56c-0.6,0-1.2,0.2-1.7,0.6c-0.5,0.4-0.8,1-0.9,1.7h5
			c0-0.7-0.3-1.3-0.7-1.7C84.7,56.2,84.1,56,83.4,56z"/>
		<path class="st1" d="M89,63v-7.9h1.2l0.1,1.4c0.3-0.5,0.6-0.9,1.1-1.2s1-0.4,1.6-0.4c0.9,0,1.7,0.3,2.2,0.9
			c0.6,0.6,0.8,1.4,0.8,2.6V63h-1.3v-4.5c0-1.7-0.7-2.5-2-2.5c-0.7,0-1.2,0.2-1.7,0.7c-0.4,0.5-0.7,1.2-0.7,2.1v4.1L89,63L89,63z"/>
		<path class="st1" d="M101.3,63c-0.7,0-1.3-0.2-1.7-0.5c-0.4-0.4-0.6-1-0.6-1.9v-4.4h-1.4v-1.1H99l0.2-1.9h1.2v1.9h2.3v1.1h-2.3
			v4.4c0,0.5,0.1,0.8,0.3,1c0.2,0.2,0.6,0.3,1.1,0.3h0.8v1.2L101.3,63L101.3,63z"/>
		<path class="st1" d="M111.7,63c-0.7,0-1.3-0.2-1.7-0.5c-0.4-0.4-0.6-1-0.6-1.9v-4.4H108v-1.1h1.4l0.2-1.9h1.2v1.9h2.3v1.1h-2.3
			v4.4c0,0.5,0.1,0.8,0.3,1s0.6,0.3,1.1,0.3h0.8v1.2L111.7,63L111.7,63z"/>
		<path class="st1" d="M118.2,63.2c-0.8,0-1.4-0.2-2-0.5s-1.1-0.8-1.4-1.4c-0.3-0.6-0.5-1.4-0.5-2.2s0.2-1.6,0.5-2.2
			c0.3-0.6,0.8-1.1,1.4-1.5c0.6-0.3,1.3-0.5,2-0.5c0.8,0,1.4,0.2,2,0.5s1.1,0.8,1.4,1.5c0.3,0.6,0.5,1.4,0.5,2.2s-0.2,1.6-0.5,2.2
			c-0.3,0.6-0.8,1.1-1.4,1.4C119.6,63,118.9,63.2,118.2,63.2z M118.2,62c0.5,0,0.9-0.1,1.3-0.3s0.7-0.6,1-1c0.2-0.5,0.4-1,0.4-1.7
			s-0.1-1.2-0.4-1.7c-0.2-0.4-0.6-0.8-0.9-1c-0.4-0.2-0.8-0.3-1.3-0.3s-0.9,0.1-1.3,0.3s-0.7,0.6-1,1s-0.4,1-0.4,1.7
			s0.1,1.2,0.4,1.7c0.2,0.4,0.6,0.8,0.9,1C117.3,61.9,117.7,62,118.2,62z"/>
		<path class="st1" d="M128.2,63V51.5h1.4v4.9c0.3-0.5,0.6-0.9,1.1-1.1c0.5-0.3,1-0.4,1.6-0.4c0.9,0,1.6,0.3,2.2,0.9
			c0.6,0.6,0.8,1.4,0.8,2.6V63H134v-4.5c0-1.7-0.7-2.5-2-2.5c-0.7,0-1.3,0.2-1.7,0.7c-0.5,0.5-0.7,1.2-0.7,2.1v4.1L128.2,63
			L128.2,63z"/>
		<path class="st1" d="M140,63.2c-0.7,0-1.2-0.1-1.6-0.3c-0.4-0.2-0.8-0.5-1-0.9s-0.3-0.8-0.3-1.2c0-0.8,0.3-1.4,0.9-1.9
			c0.6-0.4,1.5-0.7,2.5-0.7h2.1v-0.1c0-0.7-0.2-1.2-0.5-1.6s-0.8-0.5-1.5-0.5c-0.5,0-1,0.1-1.4,0.4c-0.4,0.3-0.6,0.6-0.7,1.1h-1.4
			c0.1-0.6,0.2-1.1,0.6-1.5c0.3-0.4,0.8-0.7,1.3-0.9s1-0.3,1.6-0.3c1.1,0,1.9,0.3,2.5,0.9c0.6,0.6,0.8,1.4,0.8,2.4V63h-1.2l-0.1-1.4
			c-0.2,0.4-0.6,0.8-1,1.1C141.4,63,140.8,63.2,140,63.2z M140.2,62c0.5,0,1-0.1,1.3-0.4c0.4-0.3,0.6-0.6,0.8-1s0.3-0.9,0.3-1.3l0,0
			h-2c-0.8,0-1.4,0.1-1.7,0.4c-0.3,0.3-0.5,0.6-0.5,1s0.1,0.8,0.5,1C139.3,61.9,139.7,62,140.2,62z"/>
		<path class="st1" d="M148,63l-3-7.9h1.4l2.4,6.6l2.4-6.6h1.4l-3,7.9H148z"/>
		<path class="st1" d="M154.9,53.3c-0.3,0-0.5-0.1-0.7-0.3s-0.3-0.4-0.3-0.7s0.1-0.5,0.3-0.6c0.2-0.2,0.4-0.3,0.7-0.3
			s0.5,0.1,0.7,0.3s0.3,0.4,0.3,0.6c0,0.3-0.1,0.5-0.3,0.7S155.2,53.3,154.9,53.3z M154.2,63v-7.9h1.3V63H154.2z"/>
		<path class="st1" d="M157.9,63v-7.9h1.2l0.1,1.4c0.3-0.5,0.6-0.9,1.1-1.2s1-0.4,1.6-0.4c0.9,0,1.7,0.3,2.2,0.9
			c0.6,0.6,0.8,1.4,0.8,2.6V63h-1.3v-4.5c0-1.7-0.7-2.5-2.1-2.5c-0.7,0-1.2,0.2-1.7,0.7s-0.7,1.2-0.7,2.1v4.1L157.9,63L157.9,63z"/>
		<path class="st1" d="M170.2,60.5c-0.4,0-0.9-0.1-1.2-0.2l-0.8,0.8c0.1,0.1,0.3,0.2,0.4,0.2c0.2,0.1,0.4,0.1,0.8,0.2
			s0.8,0.1,1.4,0.1c1.1,0.1,1.8,0.3,2.3,0.7s0.7,1,0.7,1.6c0,0.5-0.1,0.9-0.4,1.3c-0.2,0.4-0.6,0.8-1.2,1c-0.5,0.3-1.2,0.4-2,0.4
			c-0.7,0-1.4-0.1-1.9-0.3s-1-0.5-1.3-0.9s-0.5-0.9-0.5-1.4c0-0.3,0.1-0.6,0.2-1c0.2-0.4,0.5-0.7,0.9-1c-0.2-0.1-0.4-0.2-0.6-0.3
			s-0.3-0.2-0.5-0.4v-0.2l1.4-1.3c-0.6-0.5-0.9-1.2-0.9-2.1c0-0.5,0.1-1,0.4-1.4c0.2-0.4,0.6-0.8,1.1-1s1-0.4,1.7-0.4
			c0.5,0,0.9,0.1,1.2,0.2h2.9v1l-1.5,0.1c0.3,0.4,0.5,1,0.5,1.6c0,0.5-0.1,1-0.4,1.4c-0.2,0.4-0.6,0.8-1.1,1
			C171.4,60.4,170.9,60.5,170.2,60.5z M167.9,64c0,0.5,0.2,0.9,0.7,1.2c0.4,0.3,1,0.4,1.7,0.4s1.2-0.1,1.6-0.4
			c0.4-0.3,0.6-0.7,0.6-1.2c0-0.3-0.1-0.6-0.4-0.9s-0.8-0.4-1.5-0.4c-0.6,0-1.1-0.1-1.5-0.2c-0.4,0.2-0.7,0.5-0.9,0.8
			C167.9,63.5,167.9,63.8,167.9,64z M170.2,59.4c0.6,0,1-0.1,1.4-0.4c0.3-0.3,0.5-0.7,0.5-1.3c0-0.5-0.2-1-0.5-1.3s-0.8-0.4-1.4-0.4
			c-0.6,0-1,0.2-1.4,0.4c-0.3,0.3-0.5,0.7-0.5,1.3c0,0.5,0.2,1,0.5,1.3C169.2,59.2,169.6,59.4,170.2,59.4z"/>
		<path class="st1" d="M182.8,63.2c-0.7,0-1.2-0.1-1.6-0.3c-0.4-0.2-0.8-0.5-1-0.9s-0.3-0.8-0.3-1.2c0-0.8,0.3-1.4,0.9-1.9
			c0.6-0.4,1.5-0.7,2.5-0.7h2.1v-0.1c0-0.7-0.2-1.2-0.5-1.6s-0.8-0.5-1.5-0.5c-0.5,0-1,0.1-1.4,0.4c-0.4,0.3-0.6,0.6-0.7,1.1h-1.4
			c0.1-0.6,0.2-1.1,0.6-1.5c0.3-0.4,0.8-0.7,1.3-0.9s1-0.3,1.6-0.3c1.1,0,1.9,0.3,2.5,0.9c0.6,0.6,0.8,1.4,0.8,2.4V63h-1.1l-0.1-1.4
			c-0.2,0.4-0.6,0.8-1,1.1S183.5,63.2,182.8,63.2z M183,62c0.5,0,0.9-0.1,1.3-0.4c0.4-0.3,0.6-0.6,0.8-1s0.3-0.9,0.3-1.3l0,0h-2
			c-0.8,0-1.3,0.1-1.7,0.4c-0.3,0.3-0.5,0.6-0.5,1s0.2,0.8,0.5,1C182,61.9,182.4,62,183,62z"/>
		<path class="st1" d="M33.7,220.9l-2.3-7.9h1.3l1.7,6.2l1.9-6.2h1.5l1.9,6.2l1.7-6.2h1.4l-2.3,7.9h-1.4l-2-6.5l-2,6.5H33.7z"/>
		<path class="st1" d="M44.2,220.9v-11.5h1.3v4.9c0.3-0.5,0.6-0.9,1.1-1.1c0.5-0.3,1-0.4,1.6-0.4c0.9,0,1.7,0.3,2.2,0.9
			c0.6,0.6,0.8,1.5,0.8,2.6v4.6h-1.3v-4.5c0-1.6-0.7-2.5-2-2.5c-0.7,0-1.3,0.2-1.7,0.7c-0.5,0.5-0.7,1.2-0.7,2.1v4.1L44.2,220.9
			L44.2,220.9z"/>
		<path class="st1" d="M54.1,211.2c-0.3,0-0.5-0.1-0.7-0.3s-0.3-0.4-0.3-0.7s0.1-0.5,0.3-0.6c0.2-0.2,0.4-0.3,0.7-0.3
			s0.5,0.1,0.7,0.3s0.3,0.4,0.3,0.6c0,0.3-0.1,0.5-0.3,0.7C54.6,211.1,54.4,211.2,54.1,211.2z M53.5,220.9V213h1.3v7.9H53.5z"/>
		<path class="st1" d="M60.8,221.1c-0.8,0-1.4-0.2-2-0.5c-0.6-0.4-1.1-0.8-1.4-1.5c-0.3-0.6-0.5-1.4-0.5-2.2s0.2-1.6,0.5-2.2
			c0.4-0.6,0.8-1.1,1.4-1.5s1.3-0.5,2-0.5c0.9,0,1.7,0.2,2.4,0.7s1,1.1,1.2,2H63c-0.1-0.5-0.4-0.9-0.8-1.1c-0.4-0.3-0.9-0.4-1.5-0.4
			c-0.4,0-0.9,0.1-1.3,0.3s-0.7,0.6-1,1c-0.2,0.5-0.4,1-0.4,1.7s0.1,1.2,0.4,1.7c0.2,0.5,0.6,0.8,1,1s0.8,0.3,1.3,0.3
			c0.6,0,1-0.1,1.5-0.4c0.4-0.3,0.7-0.7,0.8-1.2h1.4c-0.2,0.8-0.6,1.4-1.2,1.9S61.7,221.1,60.8,221.1z"/>
		<path class="st1" d="M66.3,220.9v-11.5h1.3v4.9c0.3-0.5,0.7-0.9,1.1-1.1c0.5-0.3,1-0.4,1.6-0.4c0.9,0,1.7,0.3,2.2,0.9
			c0.6,0.6,0.8,1.5,0.8,2.6v4.6H72v-4.5c0-1.6-0.7-2.5-2-2.5c-0.7,0-1.3,0.2-1.7,0.7c-0.5,0.5-0.7,1.2-0.7,2.1v4.1L66.3,220.9
			L66.3,220.9z"/>
		<path class="st1" d="M80.5,211.2c-0.3,0-0.5-0.1-0.7-0.3s-0.3-0.4-0.3-0.7s0.1-0.5,0.3-0.6c0.2-0.2,0.4-0.3,0.7-0.3
			c0.3,0,0.5,0.1,0.7,0.3s0.3,0.4,0.3,0.6c0,0.3-0.1,0.5-0.3,0.7C80.9,211.1,80.7,211.2,80.5,211.2z M79.8,220.9V213h1.3v7.9H79.8z"
			/>
		<path class="st1" d="M86.5,221.1c-0.9,0-1.7-0.2-2.4-0.7c-0.6-0.5-1-1.1-1.1-1.9h1.4c0.1,0.4,0.3,0.8,0.7,1.1
			c0.4,0.3,0.8,0.5,1.5,0.5c0.6,0,1-0.1,1.2-0.4c0.3-0.2,0.4-0.5,0.4-0.9c0-0.5-0.2-0.8-0.5-1s-0.8-0.3-1.5-0.4
			c-0.4-0.1-0.8-0.2-1.3-0.4s-0.8-0.4-1.1-0.7c-0.3-0.3-0.4-0.7-0.4-1.2c0-0.7,0.3-1.3,0.8-1.7s1.2-0.7,2.1-0.7
			c0.8,0,1.5,0.2,2.1,0.6s0.8,1,0.9,1.8H88c-0.1-0.4-0.2-0.7-0.5-0.9s-0.7-0.3-1.2-0.3s-0.9,0.1-1.1,0.3c-0.3,0.2-0.4,0.5-0.4,0.8
			s0.2,0.6,0.5,0.8s0.8,0.3,1.4,0.5c0.5,0.1,1,0.2,1.4,0.4s0.8,0.4,1.1,0.7c0.3,0.3,0.4,0.7,0.4,1.3c0,0.7-0.3,1.3-0.8,1.8
			C88.2,220.8,87.5,221.1,86.5,221.1z"/>
		<path class="st1" d="M98.9,220.9c-0.7,0-1.3-0.2-1.7-0.5c-0.4-0.3-0.6-1-0.6-1.9v-4.4h-1.4V213h1.4l0.2-1.9H98v1.9h2.3v1.1H98v4.4
			c0,0.5,0.1,0.8,0.3,1c0.2,0.2,0.6,0.3,1.1,0.3h0.8v1.1L98.9,220.9L98.9,220.9z"/>
		<path class="st1" d="M103.5,220.9l-2.3-7.9h1.3l1.7,6.2l1.9-6.2h1.5l1.9,6.2l1.7-6.2h1.4l-2.3,7.9h-1.4l-1.9-6.5l-2,6.5H103.5z"/>
		<path class="st1" d="M114.8,211.2c-0.3,0-0.5-0.1-0.7-0.3s-0.3-0.4-0.3-0.7s0.1-0.5,0.3-0.6c0.2-0.2,0.4-0.3,0.7-0.3
			s0.5,0.1,0.7,0.3s0.3,0.4,0.3,0.6c0,0.3-0.1,0.5-0.3,0.7C115.3,211.1,115,211.2,114.8,211.2z M114.1,220.9V213h1.3v7.9H114.1z"/>
		<path class="st1" d="M121.5,221.1c-0.8,0-1.4-0.2-2-0.5c-0.6-0.4-1.1-0.8-1.4-1.5c-0.3-0.6-0.5-1.4-0.5-2.2s0.2-1.6,0.5-2.2
			s0.8-1.1,1.4-1.5s1.3-0.5,2-0.5c0.9,0,1.7,0.2,2.4,0.7s1.1,1.1,1.2,2h-1.4c-0.1-0.5-0.4-0.9-0.8-1.1c-0.4-0.3-0.9-0.4-1.5-0.4
			c-0.4,0-0.9,0.1-1.3,0.3s-0.7,0.6-1,1c-0.2,0.5-0.4,1-0.4,1.7s0.1,1.2,0.4,1.7s0.6,0.8,1,1s0.8,0.3,1.3,0.3c0.6,0,1-0.1,1.5-0.4
			c0.4-0.3,0.7-0.7,0.8-1.2h1.4c-0.2,0.8-0.6,1.4-1.2,1.9C123.2,220.8,122.4,221.1,121.5,221.1z"/>
		<path class="st1" d="M130.5,221.1c-0.8,0-1.4-0.2-2-0.5c-0.6-0.4-1-0.8-1.4-1.5c-0.3-0.6-0.5-1.3-0.5-2.2c0-0.8,0.2-1.6,0.5-2.2
			s0.8-1.1,1.4-1.5c0.6-0.4,1.3-0.5,2.1-0.5s1.4,0.2,2,0.5s1,0.8,1.3,1.4s0.4,1.2,0.4,1.8c0,0.1,0,0.2,0,0.4c0,0.1,0,0.2,0,0.4H128
			c0,0.6,0.2,1.1,0.4,1.5s0.6,0.7,0.9,0.9c0.4,0.2,0.8,0.3,1.2,0.3c0.6,0,1-0.1,1.4-0.4s0.6-0.6,0.8-1h1.3c-0.2,0.7-0.6,1.3-1.2,1.8
			C132.2,220.8,131.4,221.1,130.5,221.1z M130.5,213.9c-0.6,0-1.2,0.2-1.7,0.6s-0.8,1-0.9,1.7h5c0-0.7-0.3-1.3-0.7-1.7
			C131.7,214.1,131.2,213.9,130.5,213.9z"/>
		<path class="st1" d="M143.4,220.9c-0.7,0-1.3-0.2-1.7-0.5s-0.6-1-0.6-1.9v-4.4h-1.4V213h1.4l0.2-1.9h1.2v1.9h2.3v1.1h-2.3v4.4
			c0,0.5,0.1,0.8,0.3,1s0.6,0.3,1.1,0.3h0.8v1.1L143.4,220.9L143.4,220.9z"/>
		<path class="st1" d="M146.5,220.9v-11.5h1.3v4.9c0.3-0.5,0.7-0.9,1.1-1.1c0.5-0.3,1-0.4,1.6-0.4c0.9,0,1.6,0.3,2.2,0.9
			c0.6,0.6,0.8,1.5,0.8,2.6v4.6h-1.3v-4.5c0-1.6-0.7-2.5-2-2.5c-0.7,0-1.3,0.2-1.7,0.7c-0.5,0.5-0.7,1.2-0.7,2.1v4.1L146.5,220.9
			L146.5,220.9z"/>
		<path class="st1" d="M159.2,221.1c-0.8,0-1.4-0.2-2-0.5s-1.1-0.8-1.4-1.5c-0.3-0.6-0.5-1.3-0.5-2.2c0-0.8,0.2-1.6,0.5-2.2
			s0.8-1.1,1.4-1.5s1.3-0.5,2.1-0.5s1.4,0.2,2,0.5s1,0.8,1.3,1.4s0.5,1.2,0.5,1.8c0,0.1,0,0.2,0,0.4c0,0.1,0,0.2,0,0.4h-6.5
			c0,0.6,0.2,1.1,0.4,1.5s0.6,0.7,0.9,0.9c0.4,0.2,0.8,0.3,1.2,0.3c0.5,0,1-0.1,1.4-0.4c0.4-0.2,0.6-0.6,0.8-1h1.3
			c-0.2,0.7-0.6,1.3-1.2,1.8C160.9,220.8,160.1,221.1,159.2,221.1z M159.2,213.9c-0.6,0-1.2,0.2-1.7,0.6s-0.8,1-0.9,1.7h5
			c0-0.7-0.3-1.3-0.7-1.7C160.4,214.1,159.8,213.9,159.2,213.9z"/>
		<path class="st1" d="M169,220.9v-11.5h1.3v11.5H169z"/>
		<path class="st1" d="M176.1,221.1c-0.8,0-1.4-0.2-2-0.5s-1.1-0.8-1.4-1.5c-0.3-0.6-0.5-1.3-0.5-2.2c0-0.8,0.2-1.6,0.5-2.2
			s0.8-1.1,1.4-1.5s1.3-0.5,2.1-0.5s1.4,0.2,2,0.5s1,0.8,1.3,1.4s0.5,1.2,0.5,1.8c0,0.1,0,0.2,0,0.4c0,0.1,0,0.2,0,0.4h-6.3
			c0,0.6,0.2,1.1,0.4,1.5s0.6,0.7,0.9,0.9c0.4,0.2,0.8,0.3,1.2,0.3c0.6,0,1-0.1,1.4-0.4s0.6-0.6,0.8-1h1.3c-0.2,0.7-0.6,1.3-1.2,1.8
			C177.8,220.8,177,221.1,176.1,221.1z M176.1,213.9c-0.6,0-1.2,0.2-1.7,0.6s-0.8,1-0.9,1.7h5c0-0.7-0.3-1.3-0.7-1.7
			C177.3,214.1,176.7,213.9,176.1,213.9z"/>
		<path class="st1" d="M184.7,218.4c-0.5,0-0.9-0.1-1.2-0.2l-0.8,0.8c0.1,0.1,0.3,0.2,0.4,0.2c0.2,0.1,0.4,0.1,0.8,0.2
			c0.3,0,0.8,0.1,1.4,0.1c1.1,0.1,1.8,0.3,2.3,0.7s0.7,1,0.7,1.6c0,0.5-0.1,0.9-0.4,1.3c-0.2,0.4-0.6,0.8-1.1,1
			c-0.5,0.3-1.2,0.4-2,0.4c-0.7,0-1.3-0.1-1.9-0.3s-1-0.5-1.3-0.9s-0.5-0.9-0.5-1.4c0-0.3,0.1-0.6,0.2-1c0.2-0.4,0.5-0.7,0.9-1
			c-0.2-0.1-0.4-0.2-0.6-0.3c-0.2-0.1-0.3-0.2-0.5-0.4v-0.4l1.4-1.3c-0.6-0.5-0.9-1.2-0.9-2.1c0-0.5,0.1-1,0.4-1.4
			c0.2-0.4,0.6-0.8,1.1-1s1-0.4,1.7-0.4c0.5,0,0.9,0.1,1.2,0.2h2.9v1l-1.5,0.1c0.3,0.5,0.5,1,0.5,1.6c0,0.5-0.1,1-0.4,1.4
			c-0.2,0.4-0.6,0.8-1.1,1C185.9,218.2,185.4,218.4,184.7,218.4z M182.4,221.9c0,0.5,0.2,0.9,0.7,1.2s1,0.4,1.7,0.4s1.2-0.1,1.6-0.4
			c0.4-0.3,0.6-0.7,0.6-1.2c0-0.3-0.1-0.6-0.4-0.9s-0.8-0.4-1.5-0.4c-0.6,0-1.1-0.1-1.5-0.2c-0.4,0.2-0.7,0.5-0.9,0.8
			C182.4,221.4,182.4,221.7,182.4,221.9z M184.7,217.3c0.6,0,1-0.2,1.3-0.4c0.3-0.3,0.5-0.7,0.5-1.3c0-0.5-0.2-1-0.5-1.3
			s-0.8-0.4-1.3-0.4c-0.6,0-1,0.1-1.4,0.4c-0.3,0.3-0.5,0.7-0.5,1.3s0.2,1,0.5,1.3C183.7,217.1,184.1,217.3,184.7,217.3z"/>
		<path class="st1" d="M193,221.1c-0.7,0-1.2-0.1-1.6-0.3c-0.4-0.2-0.8-0.5-1-0.9s-0.3-0.8-0.3-1.2c0-0.8,0.3-1.4,0.9-1.9
			c0.6-0.4,1.5-0.7,2.5-0.7h2.1V216c0-0.7-0.2-1.2-0.5-1.6c-0.4-0.4-0.8-0.5-1.5-0.5c-0.5,0-1,0.1-1.4,0.4s-0.6,0.6-0.7,1.1h-1.4
			c0.1-0.6,0.2-1.1,0.6-1.5c0.3-0.4,0.8-0.7,1.3-0.9s1-0.3,1.6-0.3c1.1,0,1.9,0.3,2.5,0.9s0.8,1.4,0.8,2.4v4.9h-1.2l-0.1-1.4
			c-0.2,0.4-0.6,0.8-1,1.1C194.3,220.9,193.8,221.1,193,221.1z M193.2,219.9c0.5,0,0.9-0.1,1.3-0.4c0.4-0.3,0.6-0.6,0.8-1
			s0.3-0.9,0.3-1.3l0,0h-2c-0.8,0-1.3,0.1-1.7,0.4c-0.3,0.3-0.5,0.6-0.5,1s0.2,0.8,0.5,1C192.3,219.8,192.7,219.9,193.2,219.9z"/>
		<path class="st1" d="M199,220.9v-11.5h1.3v11.5H199z"/>
		<path class="st1" d="M210.4,221.1c-0.8,0-1.5-0.2-2.1-0.5c-0.6-0.4-1.1-0.9-1.4-1.5s-0.5-1.3-0.5-2.1s0.2-1.5,0.5-2.1
			s0.8-1.1,1.4-1.5c0.6-0.4,1.3-0.5,2.1-0.5c0.6,0,1.2,0.1,1.7,0.4s0.9,0.6,1.2,1.1v-4.9h1.3V221h-1.2l-0.1-1.3
			c-0.3,0.4-0.6,0.7-1.1,1C211.8,220.9,211.2,221.1,210.4,221.1z M210.6,219.9c0.5,0,1-0.1,1.4-0.4s0.7-0.6,1-1.1
			c0.2-0.4,0.3-1,0.3-1.6s-0.1-1.1-0.3-1.6s-0.5-0.8-1-1.1s-0.9-0.4-1.4-0.4s-1,0.1-1.4,0.4s-0.7,0.6-1,1.1c-0.2,0.4-0.3,1-0.3,1.6
			s0.1,1.1,0.3,1.6s0.5,0.8,1,1.1S210.1,219.9,210.6,219.9z"/>
		<path class="st1" d="M216.9,220.9V213h1.2l0.1,1.5c0.2-0.5,0.6-0.9,1.1-1.2s1.1-0.5,1.9-0.5v1.4h-0.4c-0.5,0-0.9,0.1-1.3,0.2
			c-0.4,0.2-0.7,0.5-0.9,0.8c-0.2,0.4-0.4,0.9-0.4,1.6v4L216.9,220.9L216.9,220.9L216.9,220.9z"/>
		<path class="st1" d="M223.5,211.2c-0.3,0-0.5-0.1-0.7-0.3s-0.3-0.4-0.3-0.7s0.1-0.5,0.3-0.6c0.2-0.2,0.4-0.3,0.7-0.3
			s0.5,0.1,0.7,0.3s0.3,0.4,0.3,0.6c0,0.3-0.1,0.5-0.3,0.7C224,211.1,223.8,211.2,223.5,211.2z M222.8,220.9V213h1.3v7.9H222.8z"/>
		<path class="st1" d="M228.8,220.9l-3-7.9h1.4l2.4,6.6l2.4-6.6h1.4l-3,7.9H228.8z"/>
		<path class="st1" d="M235.7,211.2c-0.3,0-0.5-0.1-0.7-0.3s-0.3-0.4-0.3-0.7s0.1-0.5,0.3-0.6c0.2-0.2,0.4-0.3,0.7-0.3
			s0.5,0.1,0.7,0.3s0.3,0.4,0.3,0.6c0,0.3-0.1,0.5-0.3,0.7C236.1,211.1,235.9,211.2,235.7,211.2z M235,220.9V213h1.3v7.9H235z"/>
		<path class="st1" d="M238.7,220.9V213h1.2l0.1,1.4c0.3-0.5,0.6-0.9,1.1-1.2s1-0.4,1.6-0.4c0.9,0,1.7,0.3,2.2,0.9
			c0.6,0.6,0.8,1.5,0.8,2.6v4.6h-1.3v-4.5c0-1.6-0.7-2.5-2-2.5c-0.7,0-1.2,0.2-1.7,0.7c-0.4,0.5-0.7,1.2-0.7,2.1v4.1L238.7,220.9
			L238.7,220.9z"/>
		<path class="st1" d="M251,218.4c-0.4,0-0.9-0.1-1.2-0.2L249,219c0.1,0.1,0.3,0.2,0.4,0.2s0.4,0.1,0.8,0.2c0.3,0,0.8,0.1,1.4,0.1
			c1.1,0.1,1.8,0.3,2.3,0.7s0.7,1,0.7,1.6c0,0.5-0.1,0.9-0.4,1.3c-0.2,0.4-0.6,0.8-1.1,1c-0.5,0.3-1.2,0.4-2,0.4
			c-0.7,0-1.4-0.1-1.9-0.3s-1-0.5-1.3-0.9s-0.5-0.9-0.5-1.4c0-0.3,0.1-0.6,0.2-1c0.2-0.4,0.5-0.7,0.9-1c-0.2-0.1-0.4-0.2-0.6-0.3
			c-0.2-0.1-0.3-0.2-0.5-0.4v-0.4l1.4-1.3c-0.6-0.5-0.9-1.2-0.9-2.1c0-0.5,0.1-1,0.4-1.4c0.2-0.4,0.6-0.8,1.1-1s1-0.4,1.7-0.4
			c0.5,0,0.9,0.1,1.2,0.2h2.9v1l-1.5,0.1c0.3,0.5,0.5,1,0.5,1.6c0,0.5-0.1,1-0.4,1.4c-0.2,0.4-0.6,0.8-1.1,1
			C252.2,218.2,251.6,218.4,251,218.4z M248.6,221.9c0,0.5,0.2,0.9,0.7,1.2c0.4,0.3,1,0.4,1.7,0.4s1.2-0.1,1.6-0.4s0.6-0.7,0.6-1.2
			c0-0.3-0.1-0.6-0.4-0.9s-0.8-0.4-1.5-0.4c-0.6,0-1.1-0.1-1.5-0.2c-0.4,0.2-0.7,0.5-0.9,0.8C248.7,221.4,248.6,221.7,248.6,221.9z
			 M251,217.3c0.6,0,1-0.2,1.4-0.4c0.3-0.3,0.5-0.7,0.5-1.3c0-0.5-0.2-1-0.5-1.3s-0.8-0.4-1.4-0.4s-1,0.1-1.4,0.4
			c-0.3,0.3-0.5,0.7-0.5,1.3s0.2,1,0.5,1.3C249.9,217.1,250.4,217.3,251,217.3z"/>
		<path class="st1" d="M32.1,242.9v-11.5h1.3v11.5H32.1z"/>
		<path class="st1" d="M36.5,233.2c-0.3,0-0.5-0.1-0.7-0.3s-0.3-0.4-0.3-0.7s0.1-0.5,0.3-0.6c0.2-0.2,0.4-0.3,0.7-0.3
			s0.5,0.1,0.7,0.3s0.3,0.4,0.3,0.6c0,0.3-0.1,0.5-0.3,0.7C37,233.1,36.7,233.2,36.5,233.2z M35.8,242.9V235h1.3v7.9H35.8z"/>
		<path class="st1" d="M39.5,242.9V235h1.2l0.1,1.2c0.3-0.4,0.6-0.8,1-1s0.9-0.3,1.4-0.3c0.6,0,1.2,0.1,1.6,0.4
			c0.5,0.3,0.8,0.7,1.1,1.2c0.3-0.5,0.7-0.9,1.1-1.1c0.5-0.3,1-0.4,1.6-0.4c0.9,0,1.7,0.3,2.3,0.9c0.6,0.6,0.8,1.5,0.8,2.6v4.6h-1.3
			v-4.5c0-0.8-0.2-1.4-0.5-1.9c-0.3-0.4-0.8-0.6-1.4-0.6s-1.2,0.2-1.6,0.7s-0.6,1.2-0.6,2.1v4.1H45v-4.5c0-0.8-0.2-1.4-0.5-1.9
			c-0.3-0.4-0.8-0.6-1.4-0.6s-1.2,0.2-1.6,0.7s-0.6,1.2-0.6,2.1v4.1L39.5,242.9L39.5,242.9z"/>
		<path class="st1" d="M54.6,233.2c-0.3,0-0.5-0.1-0.7-0.3s-0.3-0.4-0.3-0.7s0.1-0.5,0.3-0.6c0.2-0.2,0.4-0.3,0.7-0.3
			s0.5,0.1,0.7,0.3s0.3,0.4,0.3,0.6c0,0.3-0.1,0.5-0.3,0.7C55.1,233.1,54.9,233.2,54.6,233.2z M54,242.9V235h1.3v7.9H54z"/>
		<path class="st1" d="M60.8,242.9c-0.7,0-1.3-0.2-1.7-0.5c-0.4-0.3-0.6-1-0.6-1.9v-4.4h-1.4V235h1.4l0.2-1.9h1.2v1.9h2.3v1.1h-2.3
			v4.4c0,0.5,0.1,0.8,0.3,1c0.2,0.2,0.6,0.3,1.1,0.3h0.8v1.1L60.8,242.9L60.8,242.9z"/>
		<path class="st1" d="M64.3,243c-0.3,0-0.5-0.1-0.7-0.3s-0.3-0.4-0.3-0.6s0.1-0.5,0.3-0.6c0.2-0.2,0.4-0.3,0.7-0.3
			c0.3,0,0.5,0.1,0.7,0.3s0.3,0.4,0.3,0.6s-0.1,0.5-0.3,0.6C64.8,242.9,64.5,243,64.3,243z"/>
		<path class="st1" d="M71.3,242.9v-11.2h1.3v11.2H71.3z"/>
		<path class="st1" d="M75.3,242.9v-6.8h-1.2V235h1.2v-1.4c0-0.8,0.2-1.3,0.6-1.7c0.4-0.3,0.9-0.5,1.7-0.5h0.8v1.2h-0.6
			c-0.4,0-0.7,0.1-0.9,0.2c-0.2,0.2-0.3,0.4-0.3,0.8v1.3h1.9v1.1h-1.9v6.8L75.3,242.9L75.3,242.9z"/>
		<path class="st1" d="M85.3,246.4l2-4.3h-0.5l-3.2-7.2h1.5l2.6,6.2l2.8-6.2h1.4l-5.2,11.5H85.3z"/>
		<path class="st1" d="M96.2,243.1c-0.8,0-1.4-0.2-2-0.5s-1.1-0.8-1.4-1.5s-0.5-1.4-0.5-2.2s0.2-1.6,0.5-2.2s0.8-1.1,1.4-1.5
			c0.6-0.3,1.3-0.5,2-0.5c0.8,0,1.4,0.2,2,0.5s1.1,0.8,1.4,1.5c0.3,0.6,0.5,1.4,0.5,2.2s-0.2,1.6-0.5,2.2s-0.8,1.1-1.4,1.5
			C97.6,242.9,97,243.1,96.2,243.1z M96.2,241.9c0.5,0,0.9-0.1,1.3-0.3s0.7-0.6,1-1c0.2-0.4,0.4-1,0.4-1.7s-0.1-1.2-0.4-1.7
			c-0.2-0.4-0.6-0.8-1-1s-0.8-0.3-1.3-0.3s-0.9,0.1-1.3,0.3s-0.7,0.6-1,1c-0.2,0.4-0.4,1-0.4,1.7s0.1,1.2,0.4,1.7s0.6,0.8,1,1
			C95.4,241.8,95.8,241.9,96.2,241.9z"/>
		<path class="st1" d="M105,243.1c-0.9,0-1.7-0.3-2.2-0.9s-0.8-1.5-0.8-2.6V235h1.3v4.5c0,1.7,0.7,2.5,2,2.5c0.7,0,1.3-0.2,1.7-0.7
			s0.7-1.2,0.7-2.1v-4.1h1.3v7.9h-1.2l-0.1-1.4c-0.2,0.5-0.6,0.9-1.1,1.2C106.1,242.9,105.6,243.1,105,243.1z"/>
		<path class="st1" d="M118.5,243.1c-0.9,0-1.7-0.2-2.4-0.7c-0.6-0.5-1-1.1-1.1-1.9h1.4c0.1,0.4,0.3,0.8,0.7,1.1
			c0.4,0.3,0.8,0.5,1.4,0.5s1-0.1,1.2-0.4c0.3-0.2,0.4-0.5,0.4-0.9c0-0.5-0.2-0.8-0.5-1s-0.8-0.3-1.5-0.4c-0.4-0.1-0.9-0.2-1.3-0.4
			s-0.8-0.4-1.1-0.7c-0.3-0.3-0.4-0.7-0.4-1.2c0-0.7,0.3-1.3,0.8-1.7s1.2-0.7,2.1-0.7c0.8,0,1.5,0.2,2.1,0.6c0.5,0.4,0.8,1,0.9,1.8
			h-1.3c-0.1-0.4-0.2-0.7-0.5-0.9s-0.7-0.3-1.2-0.3s-0.8,0.1-1.1,0.3c-0.3,0.2-0.4,0.5-0.4,0.8s0.2,0.6,0.5,0.8s0.8,0.3,1.4,0.5
			c0.5,0.1,1,0.2,1.4,0.4s0.8,0.4,1.1,0.7c0.3,0.3,0.4,0.7,0.4,1.3c0,0.7-0.3,1.3-0.8,1.8C120.2,242.8,119.4,243.1,118.5,243.1z"/>
		<path class="st1" d="M126.2,242.9c-0.7,0-1.3-0.2-1.7-0.5s-0.6-1-0.6-1.9v-4.4h-1.4V235h1.4l0.2-1.9h1.2v1.9h2.3v1.1h-2.3v4.4
			c0,0.5,0.1,0.8,0.3,1s0.6,0.3,1.1,0.3h0.8v1.1L126.2,242.9L126.2,242.9z"/>
		<path class="st1" d="M132,243.1c-0.7,0-1.2-0.1-1.7-0.3c-0.4-0.2-0.8-0.5-1-0.9s-0.3-0.8-0.3-1.2c0-0.8,0.3-1.4,0.9-1.9
			s1.5-0.7,2.5-0.7h2.1V238c0-0.7-0.2-1.2-0.5-1.6c-0.4-0.4-0.9-0.5-1.5-0.5c-0.5,0-1,0.1-1.4,0.4s-0.6,0.6-0.7,1.1H129
			c0.1-0.6,0.2-1.1,0.6-1.5c0.3-0.4,0.8-0.7,1.3-0.9s1-0.3,1.6-0.3c1.1,0,1.9,0.3,2.5,0.9s0.8,1.4,0.8,2.4v4.9h-1.2l-0.1-1.4
			c-0.2,0.4-0.6,0.8-1,1.1C133.2,242.9,132.7,243.1,132,243.1z M132.2,241.9c0.5,0,0.9-0.1,1.3-0.4c0.4-0.3,0.7-0.6,0.8-1
			c0.2-0.4,0.3-0.9,0.3-1.3l0,0h-2c-0.8,0-1.4,0.1-1.7,0.4s-0.5,0.6-0.5,1s0.2,0.8,0.5,1C131.2,241.8,131.6,241.9,132.2,241.9z"/>
		<path class="st1" d="M138.6,246.4l2-4.3h-0.5l-3.1-7.2h1.5l2.6,6.2l2.8-6.2h1.4l-5.2,11.5H138.6z"/>
		<path class="st1" d="M153.7,243.1c-0.9,0-1.7-0.3-2.2-0.9s-0.8-1.5-0.8-2.6V235h1.3v4.5c0,1.7,0.7,2.5,2,2.5
			c0.7,0,1.3-0.2,1.7-0.7s0.7-1.2,0.7-2.1v-4.1h1.3v7.9h-1.1l-0.1-1.4c-0.2,0.5-0.6,0.9-1.1,1.2
			C154.9,242.9,154.4,243.1,153.7,243.1z"/>
		<path class="st1" d="M160,246.4v-11.5h1.2l0.1,1.3c0.3-0.4,0.6-0.7,1.1-1s1.1-0.5,1.8-0.5c0.8,0,1.5,0.2,2.1,0.5
			c0.6,0.4,1,0.9,1.4,1.5c0.3,0.6,0.5,1.3,0.5,2.1s-0.2,1.5-0.5,2.1s-0.8,1.1-1.4,1.5c-0.6,0.4-1.3,0.5-2.1,0.5
			c-0.7,0-1.2-0.1-1.7-0.4s-0.9-0.6-1.2-1.1v4.9L160,246.4L160,246.4L160,246.4z M164.1,241.9c0.5,0,1-0.1,1.4-0.4s0.7-0.6,1-1.1
			c0.2-0.4,0.3-1,0.3-1.6s-0.1-1.1-0.3-1.6s-0.6-0.8-1-1.1s-0.9-0.4-1.4-0.4s-1,0.1-1.4,0.4c-0.4,0.2-0.7,0.6-1,1.1
			c-0.2,0.4-0.4,1-0.4,1.6s0.1,1.1,0.4,1.6c0.2,0.5,0.6,0.8,1,1.1S163.6,241.9,164.1,241.9z"/>
		<path class="st1" d="M176.9,243.1c-0.7,0-1.2-0.1-1.6-0.3c-0.4-0.2-0.8-0.5-1-0.9s-0.3-0.8-0.3-1.2c0-0.8,0.3-1.4,0.9-1.9
			c0.6-0.4,1.5-0.7,2.5-0.7h2.1V238c0-0.7-0.2-1.2-0.5-1.6c-0.4-0.4-0.8-0.5-1.5-0.5c-0.5,0-1,0.1-1.4,0.4s-0.6,0.6-0.7,1.1H174
			c0.1-0.6,0.2-1.1,0.6-1.5c0.3-0.4,0.8-0.7,1.3-0.9s1-0.3,1.6-0.3c1.1,0,1.9,0.3,2.5,0.9s0.8,1.4,0.8,2.4v4.9h-1.2l-0.1-1.4
			c-0.2,0.4-0.6,0.8-1,1.1C178.2,242.9,177.7,243.1,176.9,243.1z M177.2,241.9c0.5,0,0.9-0.1,1.3-0.4c0.4-0.3,0.7-0.6,0.8-1
			c0.2-0.4,0.3-0.9,0.3-1.3l0,0h-2c-0.8,0-1.4,0.1-1.7,0.4s-0.5,0.6-0.5,1s0.2,0.8,0.5,1C176.2,241.8,176.6,241.9,177.2,241.9z"/>
		<path class="st1" d="M183,242.9v-11.5h1.3v11.5H183z"/>
		<path class="st1" d="M186.5,242.9v-11.5h1.3v11.5H186.5z"/>
		<path class="st1" d="M194.3,242.9V235h1.2l0.1,1.4c0.3-0.5,0.6-0.9,1.1-1.2s1-0.4,1.6-0.4c0.9,0,1.7,0.3,2.2,0.9s0.8,1.5,0.8,2.6
			v4.6H200v-4.5c0-1.6-0.7-2.5-2.1-2.5c-0.7,0-1.2,0.2-1.7,0.7c-0.4,0.5-0.7,1.2-0.7,2.1v4.1L194.3,242.9L194.3,242.9z"/>
		<path class="st1" d="M204.3,233.2c-0.3,0-0.5-0.1-0.7-0.3s-0.3-0.4-0.3-0.7s0.1-0.5,0.3-0.6c0.2-0.2,0.4-0.3,0.7-0.3
			s0.5,0.1,0.7,0.3s0.3,0.4,0.3,0.6c0,0.3-0.1,0.5-0.3,0.7C204.7,233.1,204.5,233.2,204.3,233.2z M203.6,242.9V235h1.3v7.9H203.6z"
			/>
		<path class="st1" d="M210.4,240.4c-0.4,0-0.9-0.1-1.2-0.2l-0.8,0.8c0.1,0.1,0.3,0.2,0.4,0.2c0.2,0.1,0.4,0.1,0.8,0.2
			c0.3,0,0.8,0.1,1.4,0.1c1.1,0.1,1.8,0.3,2.3,0.7s0.7,1,0.7,1.6c0,0.5-0.1,0.9-0.4,1.3c-0.2,0.4-0.6,0.8-1.1,1
			c-0.5,0.3-1.2,0.4-2,0.4c-0.7,0-1.4-0.1-1.9-0.3s-1-0.5-1.3-0.9s-0.5-0.9-0.5-1.4c0-0.3,0.1-0.6,0.2-1c0.2-0.4,0.5-0.7,0.9-1
			c-0.2-0.1-0.4-0.2-0.6-0.3c-0.2-0.1-0.3-0.2-0.5-0.4v-0.4l1.4-1.3c-0.6-0.5-0.9-1.2-0.9-2.1c0-0.5,0.1-1,0.4-1.4
			c0.2-0.4,0.6-0.8,1.1-1s1-0.4,1.7-0.4c0.5,0,0.9,0.1,1.2,0.2h2.9v1l-1.5,0.1c0.3,0.5,0.5,1,0.5,1.6c0,0.5-0.1,1-0.4,1.4
			c-0.2,0.4-0.6,0.8-1.1,1C211.7,240.2,211.1,240.4,210.4,240.4z M208.1,243.9c0,0.5,0.2,0.9,0.7,1.2c0.4,0.3,1,0.4,1.7,0.4
			s1.2-0.1,1.6-0.4c0.4-0.3,0.6-0.7,0.6-1.2c0-0.3-0.1-0.6-0.4-0.9s-0.8-0.4-1.5-0.4c-0.6,0-1.1-0.1-1.5-0.2
			c-0.4,0.2-0.7,0.5-0.9,0.8C208.1,243.4,208.1,243.7,208.1,243.9z M210.4,239.3c0.6,0,1-0.2,1.4-0.4c0.3-0.3,0.5-0.7,0.5-1.3
			c0-0.5-0.2-1-0.5-1.3s-0.8-0.4-1.4-0.4c-0.6,0-1,0.1-1.4,0.4c-0.3,0.3-0.5,0.7-0.5,1.3s0.2,1,0.5,1.3
			C209.4,239.1,209.8,239.3,210.4,239.3z"/>
		<path class="st1" d="M216.1,242.9v-11.5h1.3v4.9c0.3-0.5,0.6-0.9,1.1-1.1c0.5-0.3,1-0.4,1.6-0.4c0.9,0,1.7,0.3,2.2,0.9
			c0.6,0.6,0.8,1.5,0.8,2.6v4.6h-1.3v-4.5c0-1.6-0.7-2.5-2-2.5c-0.7,0-1.3,0.2-1.7,0.7c-0.5,0.5-0.7,1.2-0.7,2.1v4.1L216.1,242.9
			L216.1,242.9z"/>
		<path class="st1" d="M228.4,242.9c-0.7,0-1.3-0.2-1.7-0.5s-0.6-1-0.6-1.9v-4.4h-1.4V235h1.4l0.2-1.9h1.2v1.9h2.3v1.1h-2.3v4.4
			c0,0.5,0.1,0.8,0.3,1s0.6,0.3,1.1,0.3h0.8v1.1L228.4,242.9L228.4,242.9z"/>
		<path class="st1" d="M238.8,242.9c-0.7,0-1.3-0.2-1.7-0.5s-0.6-1-0.6-1.9v-4.4h-1.4V235h1.4l0.2-1.9h1.2v1.9h2.3v1.1h-2.3v4.4
			c0,0.5,0.1,0.8,0.3,1s0.6,0.3,1.1,0.3h0.8v1.1L238.8,242.9L238.8,242.9z"/>
		<path class="st1" d="M245.3,243.1c-0.8,0-1.4-0.2-2-0.5s-1.1-0.8-1.4-1.5c-0.4-0.6-0.5-1.4-0.5-2.2s0.2-1.6,0.5-2.2
			c0.4-0.6,0.8-1.1,1.4-1.5c0.6-0.3,1.3-0.5,2-0.5s1.4,0.2,2,0.5s1.1,0.8,1.4,1.5c0.4,0.6,0.5,1.4,0.5,2.2s-0.2,1.6-0.5,2.2
			s-0.8,1.1-1.4,1.5C246.7,242.9,246,243.1,245.3,243.1z M245.3,241.9c0.5,0,0.9-0.1,1.3-0.3c0.4-0.2,0.7-0.6,1-1
			c0.2-0.4,0.4-1,0.4-1.7s-0.1-1.2-0.4-1.7c-0.2-0.5-0.6-0.8-1-1s-0.8-0.3-1.3-0.3s-0.9,0.1-1.3,0.3c-0.4,0.2-0.7,0.6-1,1
			c-0.2,0.4-0.4,1-0.4,1.7s0.1,1.2,0.4,1.7c0.2,0.5,0.6,0.8,1,1C244.4,241.8,244.8,241.9,245.3,241.9z"/>
		<path class="st1" d="M35.2,265.1c-0.9,0-1.7-0.2-2.4-0.7c-0.6-0.5-1-1.1-1.1-1.9h1.4c0.1,0.4,0.3,0.8,0.7,1.1
			c0.4,0.3,0.8,0.5,1.5,0.5c0.6,0,1-0.1,1.2-0.4s0.4-0.5,0.4-0.9c0-0.5-0.2-0.8-0.5-1s-0.8-0.3-1.5-0.4c-0.4-0.1-0.9-0.2-1.3-0.4
			c-0.4-0.2-0.8-0.4-1.1-0.7c-0.3-0.3-0.4-0.7-0.4-1.2c0-0.7,0.3-1.3,0.8-1.7s1.2-0.7,2.1-0.7c0.8,0,1.5,0.2,2.1,0.6s0.9,1,0.9,1.8
			h-1.4c0-0.4-0.2-0.7-0.5-0.9c-0.3-0.2-0.7-0.3-1.2-0.3s-0.8,0.1-1.1,0.3c-0.3,0.2-0.4,0.5-0.4,0.8s0.2,0.6,0.5,0.8
			c0.3,0.2,0.8,0.3,1.4,0.5c0.5,0.1,1,0.2,1.4,0.4c0.4,0.2,0.8,0.4,1.1,0.7c0.3,0.3,0.4,0.7,0.4,1.3c0,0.7-0.3,1.3-0.8,1.8
			C36.8,264.8,36.1,265.1,35.2,265.1z"/>
		<path class="st1" d="M42.9,264.9c-0.7,0-1.3-0.2-1.7-0.5s-0.6-1-0.6-1.9v-4.4h-1.4V257h1.4l0.2-1.9H42v1.9h2.3v1.1H42v4.4
			c0,0.5,0.1,0.8,0.3,1s0.6,0.3,1.1,0.3h0.8v1.1H42.9z"/>
		<path class="st1" d="M48.8,265.1c-0.9,0-1.7-0.3-2.2-0.9s-0.8-1.5-0.8-2.6V257h1.3v4.5c0,1.7,0.7,2.5,2,2.5c0.7,0,1.3-0.2,1.7-0.7
			s0.7-1.2,0.7-2.1v-4.1h1.3v7.9h-1.2l-0.1-1.4c-0.2,0.5-0.6,0.9-1.1,1.2C50,264.9,49.4,265.1,48.8,265.1z"/>
		<path class="st1" d="M58.7,265.1c-0.8,0-1.5-0.2-2.1-0.5c-0.6-0.4-1-0.9-1.4-1.5s-0.5-1.3-0.5-2.1c0-0.8,0.2-1.5,0.5-2.1
			s0.8-1.1,1.4-1.5s1.3-0.5,2.1-0.5c0.6,0,1.2,0.1,1.7,0.4s0.9,0.6,1.2,1.1v-4.9h1.3V265h-1.2l-0.1-1.3c-0.3,0.4-0.6,0.7-1.1,1
			C60,264.9,59.4,265.1,58.7,265.1z M58.8,263.9c0.5,0,1-0.1,1.4-0.4c0.4-0.2,0.7-0.6,1-1.1c0.2-0.4,0.3-1,0.3-1.6s-0.1-1.1-0.3-1.6
			c-0.2-0.5-0.6-0.8-1-1.1c-0.4-0.2-0.9-0.4-1.4-0.4s-1,0.1-1.4,0.4c-0.4,0.2-0.7,0.6-1,1.1c-0.2,0.4-0.3,1-0.3,1.6s0.1,1.1,0.3,1.6
			s0.6,0.8,1,1.1S58.3,263.9,58.8,263.9z"/>
		<path class="st1" d="M66,268.4l2-4.3h-0.5l-3.2-7.2h1.5l2.6,6.2l2.8-6.2h1.4l-5.2,11.5H66z"/>
		<path class="st1" d="M78.7,264.9v-6.8h-1.2V257h1.2v-1.4c0-0.8,0.2-1.3,0.6-1.7c0.4-0.3,0.9-0.5,1.7-0.5h0.8v1.2h-0.6
			c-0.4,0-0.7,0.1-0.9,0.2c-0.2,0.2-0.3,0.4-0.3,0.8v1.3h1.9v1.1H80v6.8L78.7,264.9L78.7,264.9z"/>
		<path class="st1" d="M86.9,265.1c-0.8,0-1.4-0.2-2-0.5s-1.1-0.8-1.4-1.5c-0.4-0.6-0.5-1.4-0.5-2.2c0-0.8,0.2-1.6,0.5-2.2
			c0.4-0.6,0.8-1.1,1.4-1.5c0.6-0.3,1.3-0.5,2-0.5s1.4,0.2,2,0.5s1.1,0.8,1.4,1.5c0.4,0.6,0.5,1.4,0.5,2.2c0,0.8-0.2,1.6-0.5,2.2
			s-0.8,1.1-1.4,1.5C88.3,264.9,87.7,265.1,86.9,265.1z M86.9,263.9c0.5,0,0.9-0.1,1.3-0.3c0.4-0.2,0.7-0.6,1-1
			c0.2-0.4,0.4-1,0.4-1.7s-0.1-1.2-0.4-1.7c-0.2-0.5-0.6-0.8-0.9-1c-0.4-0.2-0.8-0.3-1.3-0.3s-0.9,0.1-1.3,0.3c-0.4,0.2-0.7,0.6-1,1
			c-0.2,0.4-0.4,1-0.4,1.7s0.1,1.2,0.4,1.7c0.2,0.5,0.6,0.8,0.9,1C86,263.8,86.5,263.9,86.9,263.9z"/>
		<path class="st1" d="M92.8,264.9V257H94l0.1,1.5c0.2-0.5,0.6-0.9,1.1-1.2s1.1-0.5,1.9-0.5v1.4h-0.4c-0.5,0-0.9,0.1-1.3,0.2
			c-0.4,0.2-0.7,0.5-0.9,0.8c-0.2,0.4-0.3,0.9-0.3,1.6v4h-1.4L92.8,264.9L92.8,264.9z"/>
		<path class="st1" d="M105.5,265.1c-0.7,0-1.2-0.1-1.7-0.3c-0.4-0.2-0.8-0.5-1-0.9s-0.3-0.8-0.3-1.2c0-0.8,0.3-1.4,0.9-1.9
			c0.6-0.4,1.5-0.7,2.5-0.7h2.1V260c0-0.7-0.2-1.2-0.5-1.6c-0.4-0.4-0.9-0.5-1.5-0.5c-0.5,0-1,0.1-1.4,0.4s-0.6,0.6-0.7,1.1h-1.4
			c0.1-0.6,0.2-1.1,0.6-1.5c0.3-0.4,0.8-0.7,1.3-0.9c0.5-0.2,1-0.3,1.6-0.3c1.1,0,1.9,0.3,2.5,0.9s0.8,1.4,0.8,2.4v4.9h-1.2
			l-0.1-1.4c-0.2,0.4-0.6,0.8-1,1.1C106.8,264.9,106.2,265.1,105.5,265.1z M105.7,263.9c0.5,0,0.9-0.1,1.3-0.4s0.6-0.6,0.8-1
			s0.3-0.9,0.3-1.3l0,0h-2c-0.8,0-1.3,0.1-1.7,0.4c-0.3,0.3-0.5,0.6-0.5,1s0.2,0.8,0.5,1C104.7,263.8,105.1,263.9,105.7,263.9z"/>
		<path class="st1" d="M111.5,264.9V257h1.2l0.1,1.4c0.3-0.5,0.6-0.9,1.1-1.2c0.5-0.3,1-0.4,1.6-0.4c0.9,0,1.7,0.3,2.2,0.9
			c0.6,0.6,0.8,1.5,0.8,2.6v4.6h-1.3v-4.5c0-1.6-0.7-2.5-2-2.5c-0.7,0-1.2,0.2-1.7,0.7c-0.4,0.5-0.7,1.2-0.7,2.1v4.1L111.5,264.9
			L111.5,264.9z"/>
		<path class="st1" d="M128.4,265.1c-0.8,0-1.4-0.2-2-0.5s-1.1-0.8-1.4-1.5c-0.3-0.6-0.5-1.3-0.5-2.2c0-0.8,0.2-1.6,0.5-2.2
			s0.8-1.1,1.4-1.5s1.3-0.5,2.1-0.5c0.8,0,1.4,0.2,2,0.5s1,0.8,1.3,1.4s0.5,1.2,0.5,1.8c0,0.1,0,0.2,0,0.4c0,0.1,0,0.2,0,0.4H126
			c0,0.6,0.2,1.1,0.4,1.5s0.6,0.7,0.9,0.9c0.4,0.2,0.8,0.3,1.2,0.3c0.6,0,1-0.1,1.4-0.4s0.6-0.6,0.8-1h1.3c-0.2,0.7-0.6,1.3-1.2,1.8
			C130.1,264.8,129.4,265.1,128.4,265.1z M128.4,257.9c-0.6,0-1.2,0.2-1.7,0.6s-0.8,1-0.9,1.7h5c0-0.7-0.3-1.3-0.7-1.7
			C129.7,258.1,129.1,257.9,128.4,257.9z"/>
		<path class="st1" d="M132.8,264.9l2.8-4l-2.8-4h1.5l2.2,3.3l2.2-3.3h1.4l-2.8,4l2.8,4h-1.4l-2.2-3.3l-2.2,3.3H132.8z"/>
		<path class="st1" d="M144.2,265.1c-0.7,0-1.2-0.1-1.7-0.3c-0.4-0.2-0.8-0.5-1-0.9s-0.3-0.8-0.3-1.2c0-0.8,0.3-1.4,0.9-1.9
			s1.5-0.7,2.5-0.7h2.1V260c0-0.7-0.2-1.2-0.5-1.6c-0.4-0.4-0.9-0.5-1.5-0.5c-0.5,0-1,0.1-1.3,0.4c-0.4,0.3-0.6,0.6-0.7,1.1h-1.4
			c0.1-0.6,0.2-1.1,0.6-1.5c0.3-0.4,0.8-0.7,1.3-0.9c0.5-0.2,1-0.3,1.6-0.3c1.1,0,1.9,0.3,2.5,0.9s0.8,1.4,0.8,2.4v4.9h-1.2
			l-0.1-1.4c-0.2,0.4-0.5,0.8-1,1.1C145.5,264.9,144.9,265.1,144.2,265.1z M144.4,263.9c0.5,0,1-0.1,1.3-0.4c0.4-0.3,0.6-0.6,0.8-1
			s0.3-0.9,0.3-1.3l0,0h-2c-0.8,0-1.3,0.1-1.7,0.4c-0.3,0.3-0.5,0.6-0.5,1s0.1,0.8,0.5,1C143.4,263.8,143.8,263.9,144.4,263.9z"/>
		<path class="st1" d="M150.2,264.9V257h1.2l0.1,1.2c0.3-0.4,0.6-0.8,1-1s0.9-0.3,1.4-0.3c0.6,0,1.2,0.1,1.6,0.4
			c0.4,0.3,0.8,0.7,1.1,1.2c0.3-0.5,0.7-0.9,1.1-1.1c0.5-0.3,1-0.4,1.6-0.4c0.9,0,1.7,0.3,2.3,0.9s0.9,1.5,0.9,2.6v4.6h-1.3v-4.5
			c0-0.8-0.2-1.4-0.5-1.9c-0.3-0.4-0.8-0.6-1.4-0.6c-0.6,0-1.2,0.2-1.6,0.7c-0.4,0.5-0.6,1.2-0.6,2.1v4.1h-1.3v-4.5
			c0-0.8-0.2-1.4-0.5-1.9c-0.3-0.4-0.8-0.6-1.4-0.6c-0.6,0-1.2,0.2-1.6,0.7c-0.4,0.5-0.6,1.2-0.6,2.1v4.1L150.2,264.9L150.2,264.9z"
			/>
		<path class="st1" d="M163.4,266.8l0.9-3.5h1.4l-1.4,3.5H163.4z"/>
		<path class="st1" d="M172.4,268.4l2-4.3h-0.5l-3.2-7.2h1.5l2.6,6.2l2.8-6.2h1.4l-5.2,11.5H172.4z"/>
		<path class="st1" d="M183.3,265.1c-0.8,0-1.4-0.2-2-0.5s-1.1-0.8-1.4-1.5c-0.4-0.6-0.5-1.4-0.5-2.2c0-0.8,0.2-1.6,0.5-2.2
			c0.4-0.6,0.8-1.1,1.4-1.5c0.6-0.3,1.3-0.5,2-0.5s1.4,0.2,2,0.5s1.1,0.8,1.4,1.5c0.4,0.6,0.5,1.4,0.5,2.2c0,0.8-0.2,1.6-0.5,2.2
			c-0.4,0.6-0.8,1.1-1.4,1.5C184.8,264.9,184.1,265.1,183.3,265.1z M183.3,263.9c0.5,0,0.9-0.1,1.3-0.3c0.4-0.2,0.7-0.6,1-1
			c0.2-0.4,0.4-1,0.4-1.7s-0.1-1.2-0.4-1.7c-0.2-0.5-0.6-0.8-1-1s-0.8-0.3-1.3-0.3s-0.9,0.1-1.3,0.3c-0.4,0.2-0.7,0.6-1,1
			c-0.2,0.4-0.4,1-0.4,1.7s0.1,1.2,0.4,1.7c0.2,0.5,0.6,0.8,1,1C182.5,263.8,182.9,263.9,183.3,263.9z"/>
		<path class="st1" d="M192.1,265.1c-0.9,0-1.7-0.3-2.2-0.9s-0.8-1.5-0.8-2.6V257h1.3v4.5c0,1.7,0.7,2.5,2,2.5
			c0.7,0,1.3-0.2,1.7-0.7c0.5-0.5,0.7-1.2,0.7-2.1v-4.1h1.3v7.9h-1.2l-0.1-1.4c-0.2,0.5-0.6,0.9-1.1,1.2
			C193.2,264.9,192.7,265.1,192.1,265.1z"/>
		<path class="st1" d="M197.8,257.2l0.9-3.6h1.5l-1.5,3.6H197.8z"/>
		<path class="st1" d="M201.7,264.9v-11.5h1.3v11.5H201.7z"/>
		<path class="st1" d="M205.3,264.9v-11.5h1.3v11.5H205.3z"/>
		<path class="st1" d="M216.7,265.1c-0.8,0-1.4-0.2-2-0.5s-1.1-0.8-1.4-1.5c-0.3-0.6-0.5-1.3-0.5-2.2c0-0.8,0.2-1.6,0.5-2.2
			s0.8-1.1,1.4-1.5s1.3-0.5,2.1-0.5s1.4,0.2,2,0.5c0.6,0.4,1,0.8,1.3,1.4s0.4,1.2,0.4,1.8c0,0.1,0,0.2,0,0.4c0,0.1,0,0.2,0,0.4h-6.3
			c0,0.6,0.2,1.1,0.4,1.5s0.6,0.7,0.9,0.9c0.4,0.2,0.8,0.3,1.2,0.3c0.5,0,1-0.1,1.4-0.4s0.6-0.6,0.8-1h1.3c-0.2,0.7-0.6,1.3-1.2,1.8
			C218.4,264.8,217.6,265.1,216.7,265.1z M216.7,257.9c-0.6,0-1.2,0.2-1.7,0.6s-0.8,1-0.9,1.7h5c0-0.7-0.3-1.3-0.7-1.7
			C217.9,258.1,217.3,257.9,216.7,257.9z"/>
		<path class="st1" d="M222.6,264.9v-6.8h-1.2V257h1.2v-1.4c0-0.8,0.2-1.3,0.6-1.7c0.4-0.3,0.9-0.5,1.7-0.5h0.8v1.2h-0.6
			c-0.4,0-0.7,0.1-0.9,0.2c-0.2,0.2-0.3,0.4-0.3,0.8v1.3h1.9v1.1h-1.9v6.8L222.6,264.9L222.6,264.9z"/>
		<path class="st1" d="M228,264.9v-6.8h-1.2V257h1.2v-1.4c0-0.8,0.2-1.3,0.6-1.7c0.4-0.3,0.9-0.5,1.7-0.5h0.8v1.2h-0.6
			c-0.4,0-0.7,0.1-0.9,0.2c-0.2,0.2-0.3,0.4-0.3,0.8v1.3h1.9v1.1h-1.9v6.8L228,264.9L228,264.9z"/>
		<path class="st1" d="M236.1,265.1c-0.8,0-1.4-0.2-2-0.5s-1-0.8-1.4-1.5c-0.3-0.6-0.5-1.3-0.5-2.2c0-0.8,0.2-1.6,0.5-2.2
			s0.8-1.1,1.4-1.5s1.3-0.5,2.1-0.5s1.4,0.2,2,0.5s1,0.8,1.3,1.4s0.5,1.2,0.5,1.8c0,0.1,0,0.2,0,0.4c0,0.1,0,0.2,0,0.4h-6.3
			c0,0.6,0.2,1.1,0.4,1.5s0.6,0.7,0.9,0.9c0.4,0.2,0.8,0.3,1.2,0.3c0.5,0,1-0.1,1.4-0.4s0.6-0.6,0.8-1h1.3c-0.2,0.7-0.6,1.3-1.2,1.8
			C237.8,264.8,237,265.1,236.1,265.1z M236.1,257.9c-0.6,0-1.2,0.2-1.7,0.6s-0.8,1-0.9,1.7h5c0-0.7-0.3-1.3-0.7-1.7
			C237.3,258.1,236.8,257.9,236.1,257.9z"/>
		<path class="st1" d="M245.3,265.1c-0.8,0-1.4-0.2-2-0.5s-1.1-0.8-1.4-1.5c-0.3-0.6-0.5-1.4-0.5-2.2c0-0.8,0.2-1.6,0.5-2.2
			s0.8-1.1,1.4-1.5s1.3-0.5,2-0.5c0.9,0,1.7,0.2,2.4,0.7s1,1.1,1.2,2h-1.4c-0.1-0.5-0.4-0.9-0.8-1.1c-0.4-0.3-0.9-0.4-1.5-0.4
			c-0.5,0-0.9,0.1-1.3,0.3c-0.4,0.2-0.7,0.6-1,1c-0.2,0.5-0.4,1-0.4,1.7s0.1,1.2,0.4,1.7s0.6,0.8,1,1s0.8,0.3,1.3,0.3s1-0.1,1.5-0.4
			c0.4-0.3,0.7-0.7,0.8-1.2h1.4c-0.2,0.8-0.6,1.4-1.2,1.9S246.2,265.1,245.3,265.1z"/>
		<path class="st1" d="M253.7,264.9c-0.7,0-1.3-0.2-1.7-0.5c-0.4-0.3-0.6-1-0.6-1.9v-4.4H250V257h1.4l0.2-1.9h1.2v1.9h2.3v1.1h-2.3
			v4.4c0,0.5,0.1,0.8,0.3,1c0.2,0.2,0.6,0.3,1.1,0.3h0.8v1.1H253.7z"/>
		<path class="st1" d="M257.5,255.2c-0.3,0-0.5-0.1-0.7-0.3s-0.3-0.4-0.3-0.7s0.1-0.5,0.3-0.6c0.2-0.2,0.4-0.3,0.7-0.3
			s0.5,0.1,0.7,0.3s0.3,0.4,0.3,0.6c0,0.3-0.1,0.5-0.3,0.7C258,255.1,257.8,255.2,257.5,255.2z M256.9,264.9V257h1.3v7.9H256.9z"/>
		<path class="st1" d="M262.8,264.9l-3-7.9h1.4l2.4,6.6l2.4-6.6h1.4l-3,7.9H262.8z"/>
		<path class="st1" d="M272.1,265.1c-0.8,0-1.4-0.2-2-0.5s-1-0.8-1.4-1.5c-0.3-0.6-0.5-1.3-0.5-2.2c0-0.8,0.2-1.6,0.5-2.2
			s0.8-1.1,1.4-1.5s1.3-0.5,2.1-0.5c0.8,0,1.4,0.2,2,0.5s1,0.8,1.3,1.4s0.5,1.2,0.5,1.8c0,0.1,0,0.2,0,0.4c0,0.1,0,0.2,0,0.4h-6.3
			c0,0.6,0.2,1.1,0.4,1.5c0.2,0.4,0.6,0.7,0.9,0.9c0.4,0.2,0.8,0.3,1.2,0.3c0.6,0,1-0.1,1.4-0.4s0.6-0.6,0.8-1h1.3
			c-0.2,0.7-0.6,1.3-1.2,1.8C273.8,264.8,273,265.1,272.1,265.1z M272.1,257.9c-0.6,0-1.2,0.2-1.7,0.6s-0.8,1-0.9,1.7h5
			c0-0.7-0.3-1.3-0.7-1.7C273.3,258.1,272.7,257.9,272.1,257.9z"/>
		<path class="st1" d="M277.6,264.9v-11.5h1.3v11.5H277.6z"/>
		<path class="st1" d="M282,268.4l2-4.3h-0.5l-3.2-7.2h1.5l2.6,6.2l2.8-6.2h1.4l-5.2,11.5H282z"/>
		<path class="st1" d="M36.4,287.1c-0.7,0-1.2-0.1-1.7-0.4s-0.9-0.6-1.2-1.1l-0.1,1.3h-1.2v-11.5h1.3v4.9c0.3-0.4,0.6-0.7,1.1-1
			s1.1-0.5,1.8-0.5c0.8,0,1.5,0.2,2.1,0.5c0.6,0.4,1,0.9,1.4,1.5c0.3,0.6,0.5,1.3,0.5,2.1c0,0.8-0.2,1.5-0.5,2.1s-0.8,1.1-1.4,1.5
			C37.8,286.9,37.1,287.1,36.4,287.1z M36.2,285.9c0.5,0,1-0.1,1.4-0.4s0.7-0.6,1-1.1c0.2-0.4,0.3-1,0.3-1.6s-0.1-1.1-0.3-1.6
			s-0.6-0.8-1-1.1s-0.9-0.4-1.4-0.4s-1,0.1-1.4,0.4s-0.7,0.6-1,1.1c-0.2,0.4-0.3,1-0.3,1.6s0.1,1.1,0.3,1.6s0.5,0.8,1,1.1
			S35.7,285.9,36.2,285.9z"/>
		<path class="st1" d="M45.7,287.1c-0.8,0-1.4-0.2-2-0.5c-0.6-0.4-1-0.8-1.4-1.5c-0.3-0.6-0.5-1.3-0.5-2.2c0-0.8,0.2-1.6,0.5-2.2
			s0.8-1.1,1.4-1.5s1.3-0.5,2.1-0.5s1.4,0.2,2,0.5s1,0.8,1.3,1.4s0.4,1.2,0.4,1.8c0,0.1,0,0.2,0,0.4c0,0.1,0,0.2,0,0.4h-6.3
			c0,0.6,0.2,1.1,0.4,1.5s0.6,0.7,0.9,0.9c0.4,0.2,0.8,0.3,1.2,0.3c0.5,0,1-0.1,1.4-0.4s0.7-0.6,0.8-1h1.3c-0.2,0.7-0.6,1.3-1.2,1.8
			C47.4,286.8,46.7,287.1,45.7,287.1z M45.7,279.9c-0.6,0-1.2,0.2-1.7,0.6s-0.8,1-0.9,1.7h5c0-0.7-0.3-1.3-0.7-1.7
			C47,280.1,46.4,279.9,45.7,279.9z"/>
		<path class="st1" d="M58.5,287.1c-1,0-1.7-0.2-2.4-0.7c-0.6-0.5-1-1.1-1.1-1.9h1.4c0.1,0.4,0.3,0.8,0.7,1.1
			c0.4,0.3,0.8,0.5,1.4,0.5s1-0.1,1.2-0.4c0.3-0.2,0.4-0.5,0.4-0.9c0-0.5-0.2-0.8-0.5-1c-0.4-0.2-0.8-0.3-1.5-0.4
			c-0.4-0.1-0.8-0.2-1.3-0.4s-0.8-0.4-1.1-0.7c-0.3-0.3-0.4-0.7-0.4-1.2c0-0.7,0.3-1.3,0.8-1.7c0.5-0.4,1.2-0.7,2.1-0.7
			c0.8,0,1.5,0.2,2.1,0.6s0.8,1,0.9,1.8h-1.3c-0.1-0.4-0.2-0.7-0.5-0.9c-0.3-0.2-0.7-0.3-1.2-0.3s-0.9,0.1-1.1,0.3
			c-0.3,0.2-0.4,0.5-0.4,0.8s0.2,0.6,0.5,0.8c0.3,0.2,0.8,0.3,1.4,0.5c0.5,0.1,1,0.2,1.4,0.4c0.4,0.2,0.8,0.4,1.1,0.7
			c0.3,0.3,0.4,0.7,0.4,1.3c0,0.7-0.3,1.3-0.8,1.8C60.2,286.8,59.5,287.1,58.5,287.1z"/>
		<path class="st1" d="M64.3,277.2c-0.3,0-0.5-0.1-0.7-0.3c-0.2-0.2-0.3-0.4-0.3-0.7s0.1-0.5,0.3-0.6c0.2-0.2,0.4-0.3,0.7-0.3
			c0.3,0,0.5,0.1,0.7,0.3c0.2,0.2,0.3,0.4,0.3,0.6c0,0.3-0.1,0.5-0.3,0.7C64.8,277.1,64.6,277.2,64.3,277.2z M63.6,286.9V279h1.3
			v7.9H63.6z"/>
		<path class="st1" d="M70.5,286.9c-0.7,0-1.3-0.2-1.7-0.5c-0.4-0.3-0.6-1-0.6-1.9v-4.4h-1.4V279h1.4l0.2-1.9h1.2v1.9h2.3v1.1h-2.3
			v4.4c0,0.5,0.1,0.8,0.3,1c0.2,0.2,0.6,0.3,1.1,0.3h0.8v1.1H70.5z"/>
		<path class="st1" d="M76.7,286.9c-0.7,0-1.3-0.2-1.7-0.5c-0.4-0.3-0.6-1-0.6-1.9v-4.4H73V279h1.4l0.2-1.9h1.2v1.9h2.3v1.1h-2.3
			v4.4c0,0.5,0.1,0.8,0.3,1c0.2,0.2,0.6,0.3,1.1,0.3H78v1.1H76.7z"/>
		<path class="st1" d="M80.5,277.2c-0.3,0-0.5-0.1-0.7-0.3c-0.2-0.2-0.3-0.4-0.3-0.7s0.1-0.5,0.3-0.6c0.2-0.2,0.4-0.3,0.7-0.3
			c0.3,0,0.5,0.1,0.7,0.3c0.2,0.2,0.3,0.4,0.3,0.6c0,0.3-0.1,0.5-0.3,0.7C81,277.1,80.8,277.2,80.5,277.2z M79.8,286.9V279h1.3v7.9
			H79.8z"/>
		<path class="st1" d="M83.5,286.9V279h1.2l0.1,1.4c0.3-0.5,0.6-0.9,1.1-1.2c0.5-0.3,1-0.4,1.6-0.4c0.9,0,1.7,0.3,2.2,0.9
			s0.8,1.5,0.8,2.6v4.6h-1.3v-4.5c0-1.6-0.7-2.5-2-2.5c-0.7,0-1.2,0.2-1.7,0.7c-0.4,0.5-0.7,1.2-0.7,2.1v4.1L83.5,286.9L83.5,286.9z
			"/>
		<path class="st1" d="M95.8,284.4c-0.5,0-0.9-0.1-1.2-0.2l-0.8,0.8c0.1,0.1,0.3,0.2,0.4,0.2s0.4,0.1,0.8,0.2c0.3,0,0.8,0.1,1.4,0.1
			c1.1,0.1,1.8,0.3,2.3,0.7c0.5,0.4,0.7,1,0.7,1.6c0,0.5-0.1,0.9-0.4,1.3c-0.2,0.4-0.6,0.8-1.1,1c-0.5,0.3-1.2,0.4-2,0.4
			c-0.7,0-1.3-0.1-1.9-0.3c-0.5-0.2-1-0.5-1.3-0.9s-0.5-0.9-0.5-1.4c0-0.3,0.1-0.6,0.2-1c0.2-0.4,0.5-0.7,0.9-1
			c-0.2-0.1-0.4-0.2-0.6-0.3c-0.2-0.1-0.3-0.2-0.5-0.4v-0.4l1.4-1.3c-0.6-0.5-0.9-1.2-0.9-2.1c0-0.5,0.1-1,0.4-1.4
			c0.2-0.4,0.6-0.8,1.1-1s1-0.4,1.7-0.4c0.5,0,0.9,0.1,1.2,0.2h2.9v1l-1.5,0.1c0.3,0.5,0.5,1,0.5,1.6c0,0.5-0.1,1-0.4,1.4
			c-0.2,0.4-0.6,0.8-1.1,1C97.1,284.2,96.5,284.4,95.8,284.4z M93.5,287.9c0,0.5,0.2,0.9,0.7,1.2c0.4,0.3,1,0.4,1.7,0.4
			s1.2-0.1,1.6-0.4s0.6-0.7,0.6-1.2c0-0.3-0.1-0.6-0.4-0.9s-0.8-0.4-1.5-0.4c-0.6,0-1.1-0.1-1.5-0.2c-0.4,0.2-0.7,0.5-0.9,0.8
			C93.5,287.4,93.5,287.7,93.5,287.9z M95.8,283.3c0.6,0,1-0.2,1.3-0.4c0.3-0.3,0.5-0.7,0.5-1.3c0-0.5-0.2-1-0.5-1.3
			s-0.8-0.4-1.3-0.4c-0.6,0-1,0.1-1.4,0.4c-0.3,0.3-0.5,0.7-0.5,1.3c0,0.6,0.2,1,0.5,1.3C94.8,283.1,95.2,283.3,95.8,283.3z"/>
		<path class="st1" d="M108.9,286.9c-0.7,0-1.3-0.2-1.7-0.5s-0.6-1-0.6-1.9v-4.4h-1.4V279h1.4l0.2-1.9h1.2v1.9h2.3v1.1H108v4.4
			c0,0.5,0.1,0.8,0.3,1s0.6,0.3,1.1,0.3h0.8v1.1H108.9z"/>
		<path class="st1" d="M112,286.9v-11.5h1.3v4.9c0.3-0.5,0.6-0.9,1.1-1.1c0.5-0.3,1-0.4,1.6-0.4c0.9,0,1.7,0.3,2.2,0.9
			c0.6,0.6,0.8,1.5,0.8,2.6v4.6h-1.3v-4.5c0-1.6-0.7-2.5-2-2.5c-0.7,0-1.3,0.2-1.7,0.7c-0.5,0.5-0.7,1.2-0.7,2.1v4.1L112,286.9
			L112,286.9z"/>
		<path class="st1" d="M124.7,287.1c-0.8,0-1.4-0.2-2-0.5s-1.1-0.8-1.4-1.5c-0.3-0.6-0.5-1.3-0.5-2.2c0-0.8,0.2-1.6,0.5-2.2
			c0.3-0.6,0.8-1.1,1.4-1.5s1.3-0.5,2.1-0.5s1.4,0.2,2,0.5c0.6,0.4,1,0.8,1.3,1.4c0.3,0.6,0.4,1.2,0.4,1.8c0,0.1,0,0.2,0,0.4
			c0,0.1,0,0.2,0,0.4h-6.3c0,0.6,0.2,1.1,0.4,1.5s0.6,0.7,0.9,0.9c0.4,0.2,0.8,0.3,1.2,0.3c0.5,0,1-0.1,1.4-0.4s0.6-0.6,0.8-1h1.3
			c-0.2,0.7-0.6,1.3-1.2,1.8C126.4,286.8,125.6,287.1,124.7,287.1z M124.7,279.9c-0.6,0-1.2,0.2-1.7,0.6s-0.8,1-0.9,1.7h5
			c0-0.7-0.3-1.3-0.7-1.7C125.9,280.1,125.3,279.9,124.7,279.9z"/>
		<path class="st1" d="M138,287.1c-0.8,0-1.4-0.2-2-0.5s-1.1-0.8-1.4-1.5c-0.3-0.6-0.5-1.3-0.5-2.2c0-0.8,0.2-1.6,0.5-2.2
			s0.8-1.1,1.4-1.5s1.3-0.5,2.1-0.5s1.4,0.2,2,0.5s1,0.8,1.3,1.4s0.4,1.2,0.4,1.8c0,0.1,0,0.2,0,0.4c0,0.1,0,0.2,0,0.4h-6.3
			c0,0.6,0.2,1.1,0.4,1.5s0.6,0.7,0.9,0.9c0.4,0.2,0.8,0.3,1.2,0.3c0.6,0,1-0.1,1.4-0.4s0.6-0.6,0.8-1h1.3c-0.2,0.7-0.6,1.3-1.2,1.8
			C139.7,286.8,139,287.1,138,287.1z M138,279.9c-0.6,0-1.2,0.2-1.7,0.6s-0.8,1-0.9,1.7h5c0-0.7-0.3-1.3-0.7-1.7
			C139.2,280.1,138.7,279.9,138,279.9z"/>
		<path class="st1" d="M142.4,286.9l2.8-4l-2.8-4h1.5l2.2,3.3l2.2-3.3h1.4l-2.8,4l2.8,4h-1.4l-2.2-3.3l-2.2,3.3H142.4z"/>
		<path class="st1" d="M153.7,287.1c-0.7,0-1.2-0.1-1.6-0.3c-0.4-0.2-0.8-0.5-1-0.9s-0.3-0.8-0.3-1.2c0-0.8,0.3-1.4,0.9-1.9
			c0.6-0.4,1.5-0.7,2.5-0.7h2.1V282c0-0.7-0.2-1.2-0.5-1.6c-0.4-0.4-0.9-0.5-1.5-0.5c-0.5,0-1,0.1-1.3,0.4c-0.4,0.3-0.6,0.6-0.7,1.1
			h-1.4c0-0.6,0.2-1.1,0.6-1.5c0.3-0.4,0.8-0.7,1.3-0.9c0.5-0.2,1-0.3,1.6-0.3c1.1,0,1.9,0.3,2.5,0.9s0.8,1.4,0.8,2.4v4.9h-1.2
			l-0.1-1.4c-0.2,0.4-0.6,0.8-1,1.1C155,286.9,154.5,287.1,153.7,287.1z M154,285.9c0.5,0,0.9-0.1,1.3-0.4c0.4-0.3,0.7-0.6,0.8-1
			c0.2-0.4,0.3-0.9,0.3-1.3l0,0h-2c-0.8,0-1.4,0.1-1.7,0.4s-0.5,0.6-0.5,1s0.1,0.8,0.5,1C153,285.8,153.4,285.9,154,285.9z"/>
		<path class="st1" d="M159.7,286.9V279h1.2l0.1,1.2c0.3-0.4,0.6-0.8,1-1s0.9-0.3,1.4-0.3c0.6,0,1.2,0.1,1.6,0.4
			c0.4,0.3,0.8,0.7,1.1,1.2c0.3-0.5,0.7-0.9,1.1-1.1c0.5-0.3,1-0.4,1.6-0.4c0.9,0,1.7,0.3,2.3,0.9s0.9,1.5,0.9,2.6v4.6h-1.3v-4.5
			c0-0.8-0.2-1.4-0.5-1.9c-0.3-0.4-0.8-0.6-1.4-0.6c-0.6,0-1.2,0.2-1.6,0.7c-0.4,0.5-0.6,1.2-0.6,2.1v4.1h-1.3v-4.5
			c0-0.8-0.2-1.4-0.5-1.9c-0.3-0.4-0.8-0.6-1.4-0.6c-0.6,0-1.2,0.2-1.6,0.7c-0.4,0.5-0.6,1.2-0.6,2.1v4.1L159.7,286.9L159.7,286.9z"
			/>
		<path class="st1" d="M181.9,287.1c-0.8,0-1.5-0.2-2.1-0.5c-0.6-0.4-1.1-0.9-1.4-1.5s-0.5-1.3-0.5-2.1c0-0.8,0.2-1.5,0.5-2.1
			s0.8-1.1,1.4-1.5c0.6-0.4,1.3-0.5,2.1-0.5c0.6,0,1.2,0.1,1.7,0.4s0.9,0.6,1.2,1.1v-4.9h1.3V287h-1.2l-0.1-1.3
			c-0.3,0.4-0.6,0.7-1.1,1C183.2,286.9,182.6,287.1,181.9,287.1z M182.1,285.9c0.5,0,1-0.1,1.4-0.4c0.4-0.2,0.7-0.6,1-1.1
			c0.2-0.4,0.3-1,0.3-1.6s-0.1-1.1-0.3-1.6s-0.6-0.8-1-1.1c-0.4-0.2-0.9-0.4-1.4-0.4s-1,0.1-1.4,0.4s-0.7,0.6-1,1.1
			c-0.2,0.4-0.3,1-0.3,1.6s0.1,1.1,0.3,1.6s0.5,0.8,1,1.1S181.5,285.9,182.1,285.9z"/>
		<path class="st1" d="M188.4,286.9V279h1.2l0.1,1.5c0.2-0.5,0.6-0.9,1.1-1.2s1.1-0.5,1.9-0.5v1.4h-0.4c-0.5,0-0.9,0.1-1.3,0.2
			c-0.4,0.2-0.7,0.5-0.9,0.8c-0.2,0.4-0.4,0.9-0.4,1.6v4h-1.3L188.4,286.9L188.4,286.9z"/>
		<path class="st1" d="M197.1,287.1c-0.9,0-1.7-0.3-2.2-0.9s-0.8-1.5-0.8-2.6V279h1.3v4.5c0,1.7,0.7,2.5,2,2.5
			c0.7,0,1.3-0.2,1.7-0.7s0.7-1.2,0.7-2.1v-4.1h1.3v7.9h-1.2l-0.1-1.4c-0.2,0.5-0.6,0.9-1.1,1.2
			C198.2,286.9,197.7,287.1,197.1,287.1z"/>
		<path class="st1" d="M203.3,286.9V279h1.2l0.1,1.4c0.3-0.5,0.6-0.9,1.1-1.2c0.5-0.3,1-0.4,1.6-0.4c0.9,0,1.7,0.3,2.2,0.9
			s0.8,1.5,0.8,2.6v4.6H209v-4.5c0-1.6-0.7-2.5-2.1-2.5c-0.7,0-1.2,0.2-1.7,0.7c-0.4,0.5-0.7,1.2-0.7,2.1v4.1L203.3,286.9
			L203.3,286.9z"/>
		<path class="st1" d="M212.5,286.9v-11.5h1.3v6.9l3.2-3.3h1.6l-3.5,3.6l4,4.3h-1.7l-3.6-4.1v4.1H212.5z"/>
		<path class="st1" d="M221.4,287c-0.3,0-0.5-0.1-0.7-0.3c-0.2-0.2-0.3-0.4-0.3-0.6s0.1-0.5,0.3-0.6c0.2-0.2,0.4-0.3,0.7-0.3
			s0.5,0.1,0.6,0.3c0.2,0.2,0.3,0.4,0.3,0.6s-0.1,0.5-0.3,0.6C221.9,286.9,221.7,287,221.4,287z M220.8,283.8l-0.2-8.1h1.5l-0.2,8.1
			H220.8z"/>
		<path class="st2" d="M225.9,121.2c0,10.1,0.1,33,0.1,50.8c0,13.2-10.7,24-23.9,23.9c-17.1,0-39.3-0.1-52.1-0.1c0,0,0-53.9,0-74.9
			s17-32.8,38-32.8S225.9,100.2,225.9,121.2z"/>
		<path class="st3" d="M160,194.1c12-7.9,15.4-20.8,11.7-34.6c-3.2-12.3-13.8-48.7-17.1-55.8c-3.1,4.8-4.8,10.6-4.8,17.3
			c0,16.1,0,51.8,0,67.4C149.8,193.6,155.6,196.9,160,194.1L160,194.1z"/>
		<path class="st4" d="M225.9,121c0,2.1-17-5-37.9-5s-37.9,6.4-37.9,5c0-21,17-37.9,37.9-37.9S225.9,100,225.9,121z"/>
		<path class="st0" d="M225.9,119.6c0.2-11.3-8.5-20.6-19.8-21c-6.1-0.2-11.7,2.2-15.6,6.2c-1.4,1.5-3.7,1.5-5.2,0
			c-3.8-3.8-9-6.2-14.8-6.2c-11.5,0-21,9.8-20.6,21.2c0.3,10.6,8.7,19.1,19.2,19.8l0,0h38.3v-0.1C217.7,138.6,225.7,130,225.9,119.6
			z"/>
		<path class="st4" d="M171.8,123.3c2.4,0,4.3-1.9,4.3-4.3s-1.9-4.3-4.3-4.3s-4.3,1.9-4.3,4.3S169.4,123.3,171.8,123.3z"/>
		<path class="st2" d="M175.8,117.7c-0.6-1.7-2.2-2.9-4.1-2.9s-3.5,1.2-4.1,2.9H175.8z"/>
		<path class="st4" d="M204,123.3c2.4,0,4.3-1.9,4.3-4.3s-1.9-4.3-4.3-4.3s-4.3,1.9-4.3,4.3S201.7,123.3,204,123.3z"/>
		<path class="st2" d="M208.1,117.7c-0.6-1.7-2.2-2.9-4.1-2.9c-1.9,0-3.5,1.2-4.1,2.9H208.1z"/>
		<path class="st2" d="M187.2,131.7l-3.2-4.6c-0.2-0.3-0.2-0.8,0.1-1l3.2-3.2c0.3-0.3,0.8-0.3,1.2,0l3.2,3.2c0.3,0.3,0.3,0.7,0.1,1
			l-3.2,4.6C188.3,132.1,187.6,132.1,187.2,131.7z"/>
		<path class="st2" d="M232.4,196.2h-82.6v-3.4h82.6c0.9,0,1.6,0.7,1.6,1.6v0.2C234,195.5,233.3,196.2,232.4,196.2z"/>
		<path class="st2" d="M150.4,87.5c-0.2-0.1-0.5-0.1-0.7-0.2c0-2.1-0.5-4.3-1.7-6.1c-0.9-1.4-2.3-2.2-4-2.3c0,0,0,0,0-0.1
			c-0.4-2.2-1.6-3.2-2.6-3.6c-1.8-0.8-4.1-0.4-5.5,0.3c-0.2,0.1-0.4,0.5-0.2,0.7c0.1,0.2,0.5,0.4,0.7,0.2c1.1-0.6,3-1,4.5-0.3
			c1,0.5,1.7,1.4,2,2.7c-2.9,0.3-6.1,2.3-7.6,4.3c-1.6,2.1-3.1,5.2-2.2,7.2c0.3,0.6,0.9,1.4,2.4,1.6s3-1.1,4.1-2.2
			c2.3-2.5,4.4-6.8,4.4-9.9c1.3,0.1,2.3,0.7,3,1.8c1,1.6,1.4,3.6,1.5,5.5c-2.1,0.1-4.1,1.2-5.3,2.6c-1.6,2-1.9,5.2-0.7,6.8
			c0.4,0.5,1,0.8,1.6,0.8c0.4,0,0.9-0.1,1.3-0.4c1.5-0.7,2.8-2.8,3.5-5.4c0.3-1,0.5-2.1,0.5-3.3c0.1,0,0.3,0.1,0.4,0.1
			c1.9,0.6,3.1,2.7,3.4,6c0,0.3,0.3,0.5,0.6,0.5s0.5-0.3,0.5-0.6C154.1,89.6,152,88,150.4,87.5z M138.9,89.2c-1.2,1.3-2.3,2-3.2,1.9
			c-0.8-0.1-1.3-0.4-1.6-1c-0.6-1.3,0.3-3.8,2.1-6.2c1.4-1.8,4.2-3.6,6.8-3.9C143,82.8,141,86.9,138.9,89.2z M148.1,91.4
			c-0.6,2.3-1.8,4.2-2.9,4.8c-1.1,0.6-1.5,0-1.7-0.2c-0.9-1.1-0.8-3.8,0.7-5.5c0.9-1.1,2.7-2.1,4.5-2.2
			C148.5,89.4,148.4,90.5,148.1,91.4z"/>
		<path class="st2" d="M29.4,78.1c0.3-0.1,0.7-0.2,1.3-0.2c1,0,2.1,0.2,3.3,0.7c1.1,0.5,1.9,1.1,2.4,1.7c0.5,0.8,0.8,1.6,0.8,2.5
			c0,1.1-0.3,2.5-1,4.2l-0.5,1.3l0.8,0.8c0.6,0.6,1,1.2,1.4,2c0.3,0.8,0.5,1.6,0.5,2.3s0,1.3,0,1.9c-0.1,1.4-0.1,2.3-0.2,2.7
			c-0.1,0.5-0.3,1.1-0.7,1.8c-0.8,1.5-1.4,2.5-2,3s-1.5,0.7-2.6,0.7c-1.3,0-2,0-2.3,0.1h-0.1c-0.5,0-1-0.3-1.4-0.8s-0.7-1.2-0.8-1.9
			c0-0.2,0-0.5,0-1c0-0.9,0-1.8,0.1-2.8c0.2-1.6,0.3-5.6,0.3-12.1c0-3.4,0-5.1-0.1-5.3c0,0,0-0.1,0-0.2c0-0.2,0.1-0.5,0.3-0.9
			C28.9,78.4,29.2,78.2,29.4,78.1z M34.1,91.9c-0.2-0.2-0.4-0.4-0.8-0.4c-0.3,0-0.6,0.2-0.8,0.5c-0.2,0.4-0.3,2-0.3,5.1
			c0,1.5,0,2.3,0.1,2.4l0.1,0.1c0.2,0,0.4-0.2,0.7-0.7s0.6-1,0.8-1.7c0.3-0.8,0.5-1.9,0.5-3.3C34.5,92.9,34.3,92.2,34.1,91.9z
			 M33,82.6c-0.1-0.3-0.2-0.4-0.4-0.4s-0.3,0.6-0.3,1.9c0,1.1,0,1.7,0.1,1.7h0.1c0.2-0.2,0.3-0.5,0.4-0.9c0.1-0.5,0.2-0.9,0.2-1.1
			c0-0.1,0-0.3-0.1-0.6C33,82.9,33,82.7,33,82.6z"/>
		<path class="st2" d="M44.6,77.6c0.3-0.3,0.6-0.4,0.9-0.4s0.5,0,0.7,0c0.7,0.1,1.2,0.3,1.4,0.5c0.4,0.5,0.6,3.3,0.6,8.6v2.9v2.5
			c0,4.2,0.1,6.4,0.1,6.7c0.1,0.5,0.6,0.8,1.6,0.8c0.4,0,0.8,0,1.1,0c0.2,0,0.6-0.1,0.9-0.1c0.6,0,1,0.1,1.3,0.3
			c0.2,0.2,0.4,0.5,0.4,1c0,0.3-0.1,0.6-0.2,0.8s-0.4,0.4-0.9,0.7c-0.9,0.5-1.8,0.7-2.8,0.8c-1.3,0.1-2,0.1-2.1,0.1
			s-0.2,0.1-0.3,0.1c-0.4,0-0.8-0.1-1.3-0.3s-0.8-0.5-1.1-0.8c-0.5-0.6-0.7-2.2-0.7-4.9c0-0.7,0-1.9,0.1-3.7
			c0.1-1.6,0.1-3.4,0.1-5.4c0-4.6-0.1-7.5-0.2-8.6c-0.1-0.4-0.1-0.7-0.1-0.8C44.1,78.2,44.2,77.9,44.6,77.6z"/>
		<path class="st2" d="M60.8,78.4l0.8-1.1h6l1,0.9c0.6,0.6,1,1.4,1.3,2.3s0.5,2.3,0.6,4.3c0.1,0.7,0.1,1.8,0.1,3.2
			c0,3.2-0.3,6.2-0.9,8.8s-1.4,4.4-2.4,5.4c-0.3,0.3-0.8,0.6-1.4,0.8s-1.1,0.3-1.6,0.3c-0.2,0-0.3,0-0.5-0.1c-0.2-0.2-0.6-0.2-1-0.2
			c-0.3,0-0.7-0.3-1.1-0.8s-0.7-1.1-1-1.9c-0.4-1.2-0.7-2.6-0.9-4.1s-0.2-3.8-0.3-7.1v-2.2c0-3,0.1-5,0.2-6
			C60,79.9,60.3,79.1,60.8,78.4z M65.3,80.7c-0.3-0.6-0.5-0.9-0.7-0.9s-0.5,0.5-0.8,1.5c-0.2,0.8-0.4,2.2-0.4,4.4
			c0,1.7,0.1,3.5,0.2,5.4c0.1,1.8,0.3,3.5,0.6,5.1c0.3,1.6,0.5,2.4,0.8,2.4c0.2,0,0.3-0.3,0.4-1c0.2-0.6,0.3-1,0.5-1.4
			c0.1-0.2,0.2-1.6,0.4-4.2c0.1-1.3,0.1-2.6,0.1-3.7C66.5,84.7,66.1,82.2,65.3,80.7z"/>
		<path class="st2" d="M77.6,78.4l0.8-1.1h5.9l0.9,0.9c0.6,0.6,1,1.4,1.3,2.3s0.5,2.3,0.6,4.3c0.1,0.7,0.1,1.8,0.1,3.2
			c0,3.2-0.3,6.2-0.9,8.8s-1.4,4.4-2.4,5.4c-0.3,0.3-0.8,0.6-1.4,0.8s-1.1,0.3-1.6,0.3c-0.2,0-0.3,0-0.5-0.1c-0.2-0.2-0.6-0.2-1-0.2
			c-0.3,0-0.7-0.3-1.1-0.8s-0.7-1.1-1-1.9c-0.4-1.2-0.7-2.6-0.9-4.1s-0.2-3.8-0.3-7.1v-2.2c0-3,0.1-5,0.2-6
			C76.8,79.9,77.1,79.1,77.6,78.4z M82.1,80.7c-0.3-0.6-0.5-0.9-0.7-0.9s-0.5,0.5-0.8,1.5c-0.2,0.8-0.4,2.2-0.4,4.4
			c0,1.7,0.1,3.5,0.2,5.4c0.1,1.8,0.3,3.5,0.6,5.1c0.3,1.6,0.5,2.4,0.8,2.4c0.2,0,0.3-0.3,0.4-1c0.2-0.6,0.3-1,0.5-1.4
			c0.1-0.2,0.2-1.6,0.4-4.2c0.1-1.3,0.1-2.6,0.1-3.7C83.3,84.7,82.9,82.2,82.1,80.7z"/>
		<path class="st2" d="M93.9,79c0.2,0,1-0.1,2.4-0.1c1.6,0,2.9,0.4,3.7,1.1c0.8,0.7,1.5,1.9,2,3.7c0.5,1.7,0.8,3.7,0.8,5.9
			c0,0.5,0,1-0.1,1.6c-0.1,0.5-0.2,1.2-0.3,2.1c-0.1,0.9-0.2,1.8-0.4,2.5c-0.1,0.7-0.3,1.3-0.5,1.6c-0.2,0.2-0.2,0.5-0.2,0.8
			c0,0.2-0.2,0.7-0.5,1.4s-0.6,1.2-0.8,1.4c-0.4,0.4-0.9,0.9-1.7,1.2c-0.7,0.4-1.4,0.6-2.1,0.6c-0.6,0.1-0.9,0.1-1,0.1
			c-0.4,0-0.7-0.2-1.1-0.5l-0.7-0.7l0.1-8v-2.4c0-4-0.1-6.1-0.1-6.5c-0.2-1.3-0.3-2.4-0.3-3.3C93.1,80,93.4,79.1,93.9,79z
			 M98.4,84.8c-0.5-1.7-0.9-2.5-1.2-2.5l-0.1,0.1v0.1c0,0.1,0,0.2,0,0.3s0,0.3,0,0.4c0,0.4,0,1.3,0.1,2.7c0.1,1.6,0.2,3.8,0.2,6.6
			c0,2.6,0.1,3.9,0.3,3.9c0.1,0,0.2-0.2,0.3-0.7c0.6-2,0.9-4.1,0.9-6.4C99,87.5,98.8,86,98.4,84.8z"/>
		<path class="st2" d="M32,115.2c0.8-0.8,2.1-1.2,3.7-1.2c0.7,0,1.3,0.1,1.8,0.4c0.7,0.3,1.1,1.2,1.4,2.7c0.2,1.2,0.5,3.2,0.8,6.2
			c0.3,2.9,0.5,5.1,0.6,6.7c0,1.5,0.1,3.1,0.3,5c0.2,1.8,0.3,2.9,0.4,3c0,0,0.1,0.1,0.1,0.2c0,0.3-0.1,0.6-0.4,1
			c-0.2,0.4-0.5,0.6-0.7,0.7c-0.1,0-0.2,0-0.4,0c-0.5,0-1-0.1-1.6-0.3s-0.9-0.5-1-0.7s-0.3-1.1-0.5-2.6s-0.3-2.7-0.3-3.6
			c0-0.9-0.1-1.3-0.3-1.5c-0.2-0.1-0.9-0.1-2.1-0.1c-1.1,0-1.6,0.1-1.7,0.1c0,0.2,0,0.3,0,0.6c0,0.7,0,1.5,0.1,2.6
			c0.1,1.2,0.1,2.2,0.1,3v0.4c0,0.2-0.3,0.4-0.7,0.6s-0.8,0.3-1.2,0.3c-0.2,0-0.3,0-0.4-0.1c-1.1-0.3-1.7-0.8-1.8-1.3
			c0,0,0-0.1,0-0.2s0-0.2,0-0.3c0-1.3,0.2-4.2,0.5-8.5c0.3-4.4,0.6-6.9,0.7-7.6c0.2-0.8,0.6-1.8,1.1-3C31,116.4,31.5,115.6,32,115.2
			z M35.2,120.1c-0.2-0.9-0.4-1.4-0.7-1.4c-0.2,0-0.5,0.3-0.8,1c-0.6,1.3-1,3-1.1,5.2c-0.1,0.9-0.1,1.5-0.1,1.6
			c0,0.4,0.1,0.7,0.2,0.8c0.2,0.1,0.6,0.2,1.3,0.2c1,0,1.5-0.1,1.6-0.3c0.1-0.1,0.1-0.5,0.1-1.2C35.7,123.8,35.6,121.9,35.2,120.1z"
			/>
		<path class="st2" d="M47.3,111.4c0.3-0.3,0.6-0.5,0.9-0.5c0.2,0,0.5,0.1,1,0.1c0.8,0.1,1.2,0.6,1.3,1.4s0.2,3.4,0.3,7.7
			c0,8.1,0.1,12.3,0.3,12.6c0.1,0.2,0.7,0.3,1.7,0.3h0.7H54c0.9,0,1.5,0.1,1.8,0.3s0.4,0.5,0.4,1c0,1.4-1.7,2.3-5,2.5
			c-0.1,0-0.2,0-0.3,0s-0.2,0-0.3,0c-1.4,0-2.5-0.5-3.2-1.4c-0.3-0.4-0.4-1.7-0.4-4v-2.8c0-1.4,0-3.4,0-6c0-5.2-0.1-8.5-0.2-9.6
			c0-0.2-0.1-0.4-0.1-0.7C46.8,112.1,46.9,111.7,47.3,111.4z"/>
		<path class="st2" d="M65.6,114.4c0.6-0.6,1-1,1.3-1.1c0.2-0.1,0.6-0.2,1.2-0.2c1.4,0,2.1,0.5,2.1,1.4c0,0.8-0.6,1.6-1.9,2.3
			c-0.8,0.4-1.4,2-1.9,4.8c-0.2,1.2-0.3,2.5-0.3,3.8s0.1,2.7,0.2,4.1c0.2,1.8,0.4,3,0.8,3.8c0.3,0.7,0.9,1.2,1.6,1.3
			c1.3,0.2,2,0.6,2.1,1.1c0,0.1,0,0.1,0,0.2c0,0.3-0.2,0.6-0.5,1c-0.4,0.3-0.8,0.6-1.3,0.6c-0.1,0-0.3,0.1-0.5,0.1
			c-1.2,0-2.2-0.3-3.2-0.8c-0.4-0.2-0.8-0.8-1.3-1.7c-0.5-0.9-0.9-1.8-1.1-2.7c-0.3-1.3-0.5-3.6-0.5-6.8c0-1.2,0.1-2.4,0.2-3.6
			c0.2-1.9,0.6-3.4,1-4.4C64,116.3,64.7,115.3,65.6,114.4z"/>
		<path class="st2" d="M78,112.9l0.8-1.1h5.9l1,0.9c0.6,0.6,1,1.4,1.3,2.3s0.5,2.3,0.6,4.3c0.1,0.7,0.1,1.8,0.1,3.2
			c0,3.2-0.3,6.2-0.9,8.8s-1.4,4.4-2.4,5.4c-0.3,0.3-0.8,0.6-1.4,0.8s-1.1,0.3-1.6,0.3c-0.2,0-0.3,0-0.5-0.1c-0.2-0.2-0.6-0.2-1-0.2
			c-0.3,0-0.7-0.3-1.1-0.8s-0.7-1.1-1-1.9c-0.4-1.2-0.7-2.6-0.9-4.1s-0.2-3.8-0.3-7.1v-2.2c0-3,0.1-5,0.2-6
			C77.1,114.5,77.4,113.6,78,112.9z M82.4,115.2c-0.3-0.6-0.5-0.9-0.7-0.9s-0.5,0.5-0.8,1.5c-0.2,0.8-0.4,2.2-0.4,4.4
			c0,1.7,0.1,3.5,0.2,5.4c0.1,1.8,0.3,3.5,0.6,5.1c0.3,1.6,0.5,2.4,0.8,2.4c0.2,0,0.3-0.4,0.4-1c0.2-0.6,0.3-1,0.5-1.4
			c0.1-0.2,0.2-1.6,0.4-4.2c0.1-1.3,0.1-2.6,0.1-3.7C83.6,119.2,83.2,116.7,82.4,115.2z"/>
		<path class="st2" d="M93.6,113c0.1-0.2,0.4-0.4,0.8-0.4c0.5,0,1.1,0.2,1.7,0.5c0.4,0.2,0.6,0.5,0.7,0.6c0.1,0.2,0.1,0.6,0.2,1.2
			c0,4.5,0.1,7.1,0.1,7.9c0.1,0.8,0.2,1.2,0.4,1.2h0.1c0.3,0,0.6-0.1,0.9-0.3c0.2-0.2,0.4-0.5,0.4-0.9c0.1-0.5,0.1-1.6,0.1-3.5
			c0-2.8,0.1-4.3,0.3-4.6c0.3-0.5,0.9-0.8,1.8-0.8c0.3,0,0.6,0.1,1,0.2l0.7,0.4l-0.1,5c-0.1,2-0.1,4.9-0.1,8.7
			c0,4.2,0.1,6.9,0.2,8.2l0.2,2.1l-0.8,0.3c-0.2,0.1-0.5,0.2-0.8,0.2c-0.2,0-0.5-0.1-1-0.3c-0.7-0.3-1-0.6-1.1-0.9
			c-0.1-0.2-0.2-2-0.2-5.3c-0.1-3.2-0.2-4.9-0.3-5.1c-0.1-0.1-0.4-0.1-0.9-0.1l-0.8,0.2l0.1,3.9c0.1,2.7,0.3,4.3,0.5,4.8
			c0.1,0.4,0.2,0.7,0.2,1.1c0,0.7-0.3,1.2-1,1.3c-0.3,0.1-0.5,0.1-0.7,0.1c-0.9,0-1.6-0.2-2.1-0.8c-0.2-0.2-0.3-0.9-0.4-2.1
			c0-1.2-0.1-4.6-0.1-10.5C93.4,117.5,93.5,113.3,93.6,113z"/>
		<path class="st2" d="M109.9,112.9l0.9-1.1h5.9l0.9,0.9c0.6,0.6,1,1.4,1.3,2.3s0.5,2.3,0.6,4.3c0.1,0.7,0.1,1.8,0.1,3.2
			c0,3.2-0.3,6.2-0.9,8.8s-1.4,4.4-2.4,5.4c-0.3,0.3-0.8,0.6-1.4,0.8s-1.1,0.3-1.6,0.3c-0.2,0-0.3,0-0.5-0.1c-0.2-0.2-0.6-0.2-1-0.2
			c-0.3,0-0.7-0.3-1.1-0.8s-0.7-1.1-1-1.9c-0.4-1.2-0.7-2.6-0.9-4.1s-0.2-3.8-0.3-7.1v-2.2c0-3,0.1-5,0.2-6
			C109.1,114.5,109.4,113.6,109.9,112.9z M114.4,115.2c-0.3-0.6-0.5-0.9-0.7-0.9s-0.5,0.5-0.8,1.5c-0.2,0.8-0.4,2.2-0.4,4.4
			c0,1.7,0.1,3.5,0.2,5.4c0.1,1.8,0.3,3.5,0.6,5.1s0.5,2.4,0.8,2.4c0.2,0,0.3-0.4,0.4-1c0.2-0.6,0.3-1,0.5-1.4
			c0.1-0.2,0.2-1.6,0.4-4.2c0.1-1.3,0.1-2.6,0.1-3.7C115.6,119.2,115.2,116.7,114.4,115.2z"/>
		<path class="st2" d="M125.9,112.1c0.3-0.3,0.6-0.4,1-0.4c0.3,0,0.5,0,0.7,0.1c0.7,0.1,1.2,0.3,1.4,0.5c0.4,0.5,0.6,3.3,0.6,8.6
			v2.8v2.5c0,4.2,0.1,6.4,0.1,6.7c0.1,0.5,0.7,0.8,1.6,0.8c0.4,0,0.8,0,1.1-0.1c0.2,0,0.6-0.1,0.9-0.1c0.6,0,1,0.1,1.3,0.3
			c0.2,0.2,0.4,0.5,0.4,1c0,0.4-0.1,0.6-0.2,0.8c-0.1,0.2-0.4,0.4-1,0.7c-0.8,0.5-1.8,0.7-2.8,0.8c-1.3,0.1-2,0.1-2.1,0.1
			s-0.2,0-0.3,0c-0.4,0-0.8-0.1-1.3-0.3s-0.8-0.5-1.1-0.8c-0.5-0.6-0.7-2.2-0.7-4.9c0-0.7,0.1-1.9,0.1-3.7c0.1-1.6,0.1-3.4,0.1-5.4
			c0-4.6-0.1-7.5-0.2-8.6c-0.1-0.4-0.1-0.7-0.1-0.8C125.4,112.7,125.6,112.5,125.9,112.1z"/>
		<path class="st1" d="M30.3,162.6v-11.5h1.3v11.5H30.3z"/>
		<path class="st1" d="M37.4,162.8c-0.8,0-1.4-0.2-2-0.5s-1-0.8-1.4-1.5c-0.3-0.6-0.5-1.4-0.5-2.2s0.2-1.6,0.5-2.2s0.8-1.1,1.4-1.5
			s1.3-0.5,2.1-0.5s1.4,0.2,2,0.5s1,0.8,1.3,1.4c0.3,0.6,0.4,1.2,0.4,1.8c0,0.1,0,0.2,0,0.4c0,0.1,0,0.2,0,0.4h-6.3
			c0,0.6,0.2,1.1,0.4,1.5s0.6,0.7,0.9,0.9c0.4,0.2,0.8,0.3,1.2,0.3c0.5,0,1-0.1,1.4-0.4s0.6-0.6,0.8-1h1.3c-0.2,0.7-0.6,1.4-1.2,1.8
			C39.1,162.5,38.4,162.8,37.4,162.8z M37.4,155.6c-0.6,0-1.2,0.2-1.7,0.6s-0.8,1-0.9,1.7h5c0-0.7-0.3-1.3-0.7-1.7
			C38.7,155.8,38.1,155.6,37.4,155.6z"/>
		<path class="st1" d="M44.9,162.6l-3-7.9h1.4l2.4,6.6l2.4-6.6h1.4l-3,7.9H44.9z"/>
		<path class="st1" d="M54.2,162.8c-0.8,0-1.4-0.2-2-0.5c-0.6-0.4-1-0.8-1.4-1.5c-0.3-0.6-0.5-1.4-0.5-2.2s0.2-1.6,0.5-2.2
			s0.8-1.1,1.4-1.5s1.3-0.5,2.1-0.5s1.4,0.2,2,0.5s1,0.8,1.3,1.4s0.4,1.2,0.4,1.8c0,0.1,0,0.2,0,0.4c0,0.1,0,0.2,0,0.4h-6.4
			c0,0.6,0.2,1.1,0.4,1.5s0.6,0.7,0.9,0.9c0.4,0.2,0.8,0.3,1.2,0.3c0.5,0,1-0.1,1.4-0.4s0.7-0.6,0.8-1h1.3c-0.2,0.7-0.6,1.4-1.2,1.8
			C55.9,162.5,55.1,162.8,54.2,162.8z M54.2,155.6c-0.6,0-1.2,0.2-1.7,0.6s-0.8,1-0.9,1.7h5c0-0.7-0.3-1.3-0.7-1.7
			C55.4,155.8,54.8,155.6,54.2,155.6z"/>
		<path class="st1" d="M59.7,162.6v-11.5H61v11.5H59.7z"/>
		<path class="st1" d="M71.1,162.8c-0.8,0-1.4-0.2-2-0.5s-1.1-0.8-1.4-1.5c-0.4-0.6-0.5-1.4-0.5-2.2s0.2-1.6,0.5-2.2
			c0.4-0.6,0.8-1.1,1.4-1.5s1.3-0.5,2-0.5s1.4,0.2,2,0.5s1.1,0.8,1.4,1.5c0.4,0.6,0.5,1.4,0.5,2.2s-0.2,1.6-0.5,2.2
			c-0.4,0.6-0.8,1.1-1.4,1.5C72.5,162.6,71.8,162.8,71.1,162.8z M71.1,161.6c0.5,0,0.9-0.1,1.3-0.3s0.7-0.6,1-1
			c0.2-0.4,0.4-1,0.4-1.7s-0.1-1.2-0.4-1.7c-0.2-0.4-0.6-0.8-0.9-1c-0.4-0.2-0.8-0.3-1.3-0.3s-0.9,0.1-1.3,0.3s-0.7,0.6-1,1
			c-0.2,0.5-0.4,1-0.4,1.7s0.1,1.2,0.4,1.7c0.2,0.5,0.6,0.8,0.9,1S70.7,161.6,71.1,161.6z"/>
		<path class="st1" d="M77.4,162.6v-6.8h-1.2v-1.1h1.2v-1.4c0-0.8,0.2-1.3,0.6-1.7c0.4-0.3,0.9-0.5,1.7-0.5h0.8v1.1h-0.6
			c-0.4,0-0.7,0.1-0.9,0.2c-0.2,0.2-0.3,0.5-0.3,0.8v1.3h2v1.1h-2v6.8L77.4,162.6L77.4,162.6z"/>
		<path class="st2" d="M34,172.4l0.8-0.8h5.6l0.9,0.9c0.6,0.6,1.1,1.3,1.3,1.9c0.2,0.9,0.4,2.6,0.4,5.3c0,1.9-0.1,3.4-0.2,4.6
			c0,0.4-0.1,0.9-0.1,1.5c-0.1,0.5-0.1,1-0.1,1.4c-0.1,0.4-0.1,0.7-0.1,0.8c-0.2,1.4-0.6,3.2-1.4,5.5c-0.2,0.6-0.6,1.2-1.2,2
			c-0.6,0.8-1,1.2-1.4,1.3c-0.5,0.2-1.1,0.2-1.8,0.2c-0.5,0-1-0.1-1.5-0.1c-0.9-0.2-1.6-1.2-2.1-3s-0.8-4.4-0.8-7.8v-2
			c0-4.2,0.2-6.8,0.4-7.8c0.1-0.4,0.1-0.8,0.2-1.3c0.1-0.5,0.2-0.9,0.2-1c0-0.2,0.1-0.4,0.3-0.7C33.5,173,33.7,172.7,34,172.4z
			 M38.8,176.9c-0.4-1.8-0.8-2.7-1.3-2.7c-0.1,0-0.2,0-0.3,0.1c-0.4,0.4-0.6,1.1-0.8,2.1c-0.1,1-0.2,2.6-0.2,4.9v1.5
			c0,6.4,0.3,9.5,0.8,9.5c0.2,0,0.5-0.5,0.8-1.5c0.8-2.3,1.2-5.6,1.2-10C39.1,179.2,39,177.9,38.8,176.9z"/>
		<path class="st2" d="M49.3,192.8c0.3-0.4,0.7-0.5,1-0.5c0.1,0,0.3,0,0.7,0.1c1.3,0.2,1.9,0.7,1.9,1.5c0,0.6-0.4,1.1-1.2,1.6
			c-0.7,0.4-1.2,0.6-1.6,0.6c-0.7,0-1.1-0.5-1.3-1.6c0-0.2-0.1-0.4-0.1-0.7C48.8,193.4,48.9,193.1,49.3,192.8z"/>
		<path class="st2" d="M59.5,172.6c0.5-0.4,1-0.6,1.6-0.6c0.4,0,0.7,0.1,0.9,0.4c0.2,0.2,0.3,0.7,0.4,1.6c0.1,0.8,0.1,2.8,0.1,5.9
			c0,1.9,0,3.4,0,4.5c0,1,0,1.8,0,2.2s0.1,1.1,0.1,2.2c0.1,1,0.1,2.1,0.2,3.2l0.1,3.6l-0.9,0.7c-0.5,0.4-0.9,0.5-1.2,0.5
			c-0.4,0-0.8-0.2-1.3-0.6l-0.6-0.5l-0.1-7.9c-0.1-3.5-0.1-6.8-0.1-9.9v-1.3l0.1-3.3L59.5,172.6z"/>
	</g>
</g>
</svg>
