<?xml version="1.0" encoding="utf-8"?>
<!-- Generator: Adobe Illustrator 25.1.0, SVG Export Plug-In . SVG Version: 6.00 Build 0)  -->
<svg version="1.1" id="Layer_1" xmlns="http://www.w3.org/2000/svg" xmlns:xlink="http://www.w3.org/1999/xlink" x="0px" y="0px"
	 viewBox="0 0 336.4 230.6" style="enable-background:new 0 0 336.4 230.6;" xml:space="preserve">
<style type="text/css">
	.st0{fill:#FFFFFF;}
	.st1{fill:#808080;}
	.st2{fill:#00CDDC;}
	.st3{fill:#40D9E5;}
	.st4{fill:#DCE3E5;}
	.st5{fill:none;stroke:#FFFFFF;stroke-width:1.596;stroke-linecap:round;stroke-miterlimit:10;}
</style>
<g>
	<path class="st0" d="M334,195.8c0-77,14.1-176.2-25.7-186C285.1,4.1,48.7-15.6,20,25c-23.7,33.5-32,184.8,7.1,198.4
		c36.5,12.7,169.7,4.8,213.1,4.3C285.1,227.2,334,229.4,334,195.8z"/>
	<path class="st1" d="M188,118v-8h1.2l0.1,1.5c0.2-0.5,0.6-0.9,1.1-1.2s1.1-0.5,1.9-0.5v1.4h-0.4c-0.5,0-0.9,0.1-1.3,0.2
		c-0.4,0.2-0.7,0.4-0.9,0.8s-0.3,0.9-0.3,1.6v4H188V118z"/>
	<path class="st1" d="M197,118.2c-0.8,0-1.4-0.2-2-0.5c-0.6-0.4-1.1-0.8-1.4-1.4c-0.3-0.6-0.5-1.4-0.5-2.2s0.2-1.6,0.5-2.2
		s0.8-1.1,1.4-1.5c0.6-0.4,1.3-0.5,2.1-0.5s1.4,0.2,2,0.5c0.6,0.4,1,0.8,1.3,1.4s0.4,1.2,0.4,1.8c0,0.1,0,0.2,0,0.3s0,0.2,0,0.4
		h-6.3c0,0.6,0.2,1.1,0.4,1.5s0.6,0.7,0.9,0.9c0.4,0.2,0.8,0.3,1.2,0.3c0.6,0,1-0.1,1.4-0.4s0.7-0.6,0.8-1h1.3
		c-0.2,0.7-0.6,1.4-1.2,1.8C198.8,117.9,198,118.2,197,118.2z M197,111c-0.6,0-1.2,0.2-1.7,0.6s-0.8,1-0.9,1.7h5
		c0-0.7-0.3-1.3-0.7-1.7C198.3,111.2,197.7,111,197,111z"/>
	<path class="st1" d="M203,118v-6.8h-1.2V110h1.2v-1.4c0-0.8,0.2-1.3,0.6-1.7s0.9-0.5,1.7-0.5h0.8v1.1h-0.6c-0.4,0-0.7,0.1-0.9,0.2
		s-0.3,0.4-0.3,0.8v1.3h1.9v1.1h-1.9v6.8L203,118L203,118z"/>
	<path class="st1" d="M211.1,118.2c-0.8,0-1.4-0.2-2-0.5c-0.6-0.4-1.1-0.8-1.4-1.4c-0.3-0.6-0.5-1.4-0.5-2.2s0.2-1.6,0.5-2.2
		s0.8-1.1,1.4-1.5c0.6-0.4,1.3-0.5,2.1-0.5s1.4,0.2,2,0.5c0.6,0.4,1,0.8,1.3,1.4s0.4,1.2,0.4,1.8c0,0.1,0,0.2,0,0.3s0,0.2,0,0.4
		h-6.3c0,0.6,0.2,1.1,0.4,1.5s0.6,0.7,0.9,0.9c0.4,0.2,0.8,0.3,1.2,0.3c0.6,0,1-0.1,1.4-0.4s0.7-0.6,0.8-1h1.3
		c-0.2,0.7-0.6,1.4-1.2,1.8C212.9,117.9,212.1,118.2,211.1,118.2z M211.1,111c-0.6,0-1.2,0.2-1.7,0.6s-0.8,1-0.9,1.7h5
		c0-0.7-0.3-1.3-0.7-1.7C212.4,111.2,211.8,111,211.1,111z"/>
	<path class="st1" d="M216.7,118v-8h1.2l0.1,1.5c0.2-0.5,0.6-0.9,1.1-1.2s1.1-0.5,1.9-0.5v1.4h-0.4c-0.5,0-0.9,0.1-1.3,0.2
		c-0.4,0.2-0.7,0.4-0.9,0.8s-0.4,0.9-0.4,1.6v4h-1.3L216.7,118L216.7,118z"/>
	<path class="st1" d="M225.5,118.2c-0.9,0-1.7-0.2-2.4-0.7s-1-1.1-1.1-1.9h1.4c0.1,0.4,0.3,0.8,0.7,1.1s0.8,0.5,1.4,0.5
		c0.6,0,1-0.1,1.2-0.4s0.4-0.5,0.4-0.9c0-0.5-0.2-0.8-0.5-1c-0.4-0.2-0.8-0.3-1.5-0.4c-0.4-0.1-0.8-0.2-1.3-0.4
		c-0.4-0.2-0.8-0.4-1.1-0.7s-0.4-0.7-0.4-1.2c0-0.7,0.3-1.3,0.8-1.7s1.2-0.7,2.1-0.7c0.8,0,1.5,0.2,2.1,0.6c0.5,0.4,0.9,1,0.9,1.8
		H227c0-0.4-0.2-0.7-0.5-0.9s-0.7-0.3-1.2-0.3s-0.8,0.1-1.1,0.3s-0.4,0.5-0.4,0.8s0.2,0.6,0.5,0.8s0.8,0.3,1.4,0.5
		c0.5,0.1,1,0.2,1.4,0.4c0.4,0.1,0.8,0.4,1.1,0.7s0.4,0.7,0.4,1.3c0,0.7-0.3,1.3-0.8,1.8C227.2,117.9,226.5,118.2,225.5,118.2z"/>
	<path class="st1" d="M237.9,118c-0.7,0-1.3-0.2-1.7-0.5c-0.4-0.4-0.6-1-0.6-1.9v-4.4h-1.4V110h1.4l0.2-1.9h1.2v1.9h2.3v1.1H237v4.4
		c0,0.5,0.1,0.8,0.3,1s0.6,0.3,1.1,0.3h0.8v1.1L237.9,118L237.9,118z"/>
	<path class="st1" d="M244.3,118.2c-0.8,0-1.4-0.2-2-0.5s-1.1-0.8-1.4-1.4c-0.4-0.6-0.5-1.4-0.5-2.2s0.2-1.6,0.5-2.2
		s0.8-1.1,1.4-1.4c0.6-0.3,1.3-0.5,2-0.5s1.4,0.2,2,0.5s1.1,0.8,1.4,1.4c0.4,0.6,0.5,1.4,0.5,2.2s-0.2,1.6-0.5,2.2s-0.8,1.1-1.4,1.4
		C245.7,118,245.1,118.2,244.3,118.2z M244.3,117c0.5,0,0.9-0.1,1.3-0.3s0.7-0.6,1-1s0.4-1,0.4-1.7s-0.1-1.2-0.4-1.7
		c-0.2-0.4-0.6-0.8-1-1s-0.8-0.3-1.3-0.3s-0.9,0.1-1.3,0.3s-0.7,0.6-1,1s-0.4,1-0.4,1.7s0.1,1.2,0.4,1.7s0.6,0.8,1,1
		C243.5,116.9,243.9,117,244.3,117z"/>
	<path class="st1" d="M192.2,140.2c-0.7,0-1.2-0.1-1.7-0.4s-0.9-0.6-1.2-1.1l-0.1,1.3H188v-11.5h1.3v4.9c0.3-0.4,0.6-0.7,1.1-1
		s1.1-0.5,1.8-0.5c0.8,0,1.5,0.2,2.1,0.5c0.6,0.4,1,0.9,1.4,1.5c0.3,0.6,0.5,1.3,0.5,2.1s-0.2,1.5-0.5,2.1s-0.8,1.1-1.4,1.5
		C193.7,140,193,140.2,192.2,140.2z M192.1,139c0.5,0,1-0.1,1.4-0.4c0.4-0.2,0.7-0.6,1-1c0.2-0.5,0.3-1,0.3-1.6s-0.1-1.1-0.3-1.6
		c-0.2-0.4-0.6-0.8-1-1s-0.9-0.4-1.4-0.4s-1,0.1-1.4,0.4s-0.7,0.6-1,1c-0.2,0.5-0.3,1-0.3,1.6s0.1,1.1,0.3,1.6c0.2,0.4,0.6,0.8,1,1
		C191.1,138.9,191.5,139,192.1,139z"/>
	<path class="st1" d="M201.6,140.2c-0.8,0-1.4-0.2-2-0.5c-0.6-0.4-1.1-0.8-1.4-1.5c-0.3-0.6-0.5-1.4-0.5-2.2s0.2-1.6,0.5-2.2
		c0.3-0.6,0.8-1.1,1.4-1.5c0.6-0.4,1.3-0.5,2.1-0.5s1.4,0.2,2,0.5s1,0.8,1.3,1.4c0.3,0.6,0.4,1.2,0.4,1.8c0,0.1,0,0.2,0,0.3
		s0,0.2,0,0.4H199c0,0.6,0.2,1.1,0.4,1.5s0.6,0.7,0.9,0.9c0.4,0.2,0.8,0.3,1.2,0.3c0.6,0,1-0.1,1.4-0.4s0.7-0.6,0.8-1h1.3
		c-0.2,0.7-0.6,1.4-1.2,1.8C203.3,139.9,202.5,140.2,201.6,140.2z M201.6,133c-0.6,0-1.2,0.2-1.7,0.6c-0.5,0.4-0.8,1-0.9,1.7h5
		c0-0.7-0.3-1.3-0.7-1.7C202.8,133.2,202.3,133,201.6,133z"/>
	<path class="st1" d="M207.1,140v-11.5h1.3v4.9c0.3-0.5,0.6-0.9,1.1-1.1c0.5-0.3,1-0.4,1.6-0.4c0.9,0,1.7,0.3,2.2,0.9
		c0.6,0.6,0.8,1.4,0.8,2.6v4.6h-1.3v-4.5c0-1.6-0.7-2.5-2-2.5c-0.7,0-1.3,0.2-1.7,0.7c-0.5,0.5-0.7,1.2-0.7,2.1v4.1L207.1,140
		L207.1,140z"/>
	<path class="st1" d="M218.9,140.2c-0.7,0-1.2-0.1-1.7-0.3c-0.4-0.2-0.8-0.5-1-0.9s-0.3-0.8-0.3-1.2c0-0.8,0.3-1.4,0.9-1.9
		s1.5-0.7,2.5-0.7h2.1v-0.1c0-0.7-0.2-1.2-0.5-1.6s-0.9-0.5-1.5-0.5c-0.5,0-1,0.1-1.3,0.4c-0.4,0.3-0.6,0.6-0.7,1.1H216
		c0.1-0.6,0.2-1.1,0.6-1.5c0.3-0.4,0.8-0.7,1.3-0.9s1-0.3,1.6-0.3c1.1,0,1.9,0.3,2.5,0.9s0.8,1.4,0.8,2.4v4.9h-1.2l-0.1-1.4
		c-0.2,0.5-0.5,0.8-1,1.1C220.2,140,219.6,140.2,218.9,140.2z M219.1,139c0.5,0,1-0.1,1.3-0.4c0.4-0.3,0.6-0.6,0.8-1
		s0.3-0.9,0.3-1.3l0,0h-2c-0.8,0-1.3,0.1-1.7,0.4c-0.3,0.3-0.5,0.6-0.5,1s0.1,0.8,0.5,1C218.1,138.9,218.6,139,219.1,139z"/>
	<path class="st1" d="M226.9,140l-3-7.9h1.4l2.4,6.6l2.4-6.6h1.4l-3,7.9H226.9z"/>
	<path class="st1" d="M233.8,130.3c-0.3,0-0.5-0.1-0.7-0.3s-0.3-0.4-0.3-0.7s0.1-0.5,0.3-0.6c0.2-0.2,0.4-0.3,0.7-0.3
		s0.5,0.1,0.7,0.3s0.3,0.4,0.3,0.6c0,0.3-0.1,0.5-0.3,0.7C234.2,130.2,234,130.3,233.8,130.3z M233.1,140v-8h1.3v7.9h-1.3V140z"/>
	<path class="st1" d="M240.4,140.2c-0.8,0-1.4-0.2-2-0.5s-1.1-0.8-1.4-1.4c-0.4-0.6-0.5-1.4-0.5-2.2s0.2-1.6,0.5-2.2
		c0.4-0.6,0.8-1.1,1.4-1.4c0.6-0.3,1.3-0.5,2-0.5s1.4,0.2,2,0.5s1.1,0.8,1.4,1.4c0.4,0.6,0.5,1.4,0.5,2.2s-0.2,1.6-0.5,2.2
		c-0.4,0.6-0.8,1.1-1.4,1.4S241.1,140.2,240.4,140.2z M240.4,139c0.5,0,0.9-0.1,1.3-0.3c0.4-0.2,0.7-0.6,1-1c0.2-0.5,0.4-1,0.4-1.7
		s-0.1-1.2-0.4-1.7c-0.2-0.4-0.6-0.8-0.9-1c-0.4-0.2-0.8-0.3-1.3-0.3s-0.9,0.1-1.3,0.3s-0.7,0.6-1,1s-0.4,1-0.4,1.7s0.1,1.2,0.4,1.7
		s0.6,0.8,0.9,1C239.5,138.9,240,139,240.4,139z"/>
	<path class="st1" d="M249.1,140.2c-0.9,0-1.7-0.3-2.2-0.9c-0.6-0.6-0.8-1.4-0.8-2.6V132h1.3v4.5c0,1.6,0.7,2.5,2,2.5
		c0.7,0,1.3-0.2,1.7-0.7s0.7-1.2,0.7-2.1V132h1.3v7.9H252l-0.1-1.4c-0.2,0.5-0.6,0.9-1.1,1.2C250.3,140,249.8,140.2,249.1,140.2z"/>
	<path class="st1" d="M255.4,140v-8h1.2l0.1,1.5c0.2-0.5,0.6-0.9,1.1-1.2s1.1-0.5,1.9-0.5v1.4h-0.4c-0.5,0-0.9,0.1-1.3,0.2
		c-0.4,0.2-0.7,0.4-0.9,0.8c-0.2,0.4-0.3,0.9-0.3,1.6v4h-1.4L255.4,140L255.4,140z"/>
	<path class="st1" d="M263.9,140.2c-0.7,0-1.2-0.1-1.6-0.3s-0.8-0.5-1-0.9s-0.3-0.8-0.3-1.2c0-0.8,0.3-1.4,0.9-1.9s1.5-0.7,2.5-0.7
		h2.1v-0.1c0-0.7-0.2-1.2-0.5-1.6c-0.4-0.4-0.9-0.5-1.5-0.5c-0.5,0-1,0.1-1.4,0.4c-0.4,0.3-0.6,0.6-0.7,1.1H261
		c0-0.6,0.2-1.1,0.6-1.5c0.3-0.4,0.8-0.7,1.3-0.9s1-0.3,1.6-0.3c1.1,0,1.9,0.3,2.5,0.9s0.8,1.4,0.8,2.4v4.9h-1.2l-0.1-1.4
		c-0.2,0.5-0.6,0.8-1,1.1C265.2,140,264.6,140.2,263.9,140.2z M264.1,139c0.5,0,1-0.1,1.3-0.4c0.4-0.3,0.6-0.6,0.8-1
		s0.3-0.9,0.3-1.3l0,0h-2c-0.8,0-1.4,0.1-1.7,0.4c-0.3,0.3-0.5,0.6-0.5,1s0.1,0.8,0.5,1C263.1,138.9,263.5,139,264.1,139z"/>
	<path class="st1" d="M269.9,140v-11.5h1.3V140H269.9z"/>
	<path class="st1" d="M280.3,140.2c-0.7,0-1.2-0.1-1.6-0.3s-0.8-0.5-1-0.9s-0.3-0.8-0.3-1.2c0-0.8,0.3-1.4,0.9-1.9s1.5-0.7,2.5-0.7
		h2.1v-0.1c0-0.7-0.2-1.2-0.5-1.6c-0.4-0.4-0.9-0.5-1.5-0.5c-0.5,0-1,0.1-1.4,0.4c-0.4,0.3-0.6,0.6-0.7,1.1h-1.4
		c0-0.6,0.2-1.1,0.6-1.5c0.3-0.4,0.8-0.7,1.3-0.9s1-0.3,1.6-0.3c1.1,0,1.9,0.3,2.5,0.9s0.8,1.4,0.8,2.4v4.9H283l-0.1-1.4
		c-0.2,0.5-0.6,0.8-1,1.1C281.6,140,281,140.2,280.3,140.2z M280.5,139c0.5,0,0.9-0.1,1.3-0.4s0.7-0.6,0.8-1
		c0.2-0.4,0.3-0.9,0.3-1.3l0,0h-2c-0.8,0-1.4,0.1-1.7,0.4c-0.3,0.3-0.5,0.6-0.5,1s0.2,0.8,0.5,1C279.5,138.9,280,139,280.5,139z"/>
	<path class="st1" d="M286.3,140v-8h1.2l0.1,1.4c0.3-0.5,0.6-0.9,1.1-1.2s1-0.4,1.6-0.4c0.9,0,1.7,0.3,2.2,0.9
		c0.6,0.6,0.8,1.4,0.8,2.6v4.6H292v-4.5c0-1.6-0.7-2.5-2.1-2.5c-0.7,0-1.2,0.2-1.7,0.7s-0.7,1.2-0.7,2.1v4.1L286.3,140L286.3,140z"
		/>
	<path class="st1" d="M299.1,140.2c-0.8,0-1.5-0.2-2.1-0.5c-0.6-0.4-1-0.9-1.4-1.5c-0.3-0.6-0.5-1.3-0.5-2.1s0.2-1.5,0.5-2.1
		s0.8-1.1,1.4-1.5s1.3-0.5,2.1-0.5c0.6,0,1.2,0.1,1.7,0.4c0.5,0.3,0.9,0.6,1.2,1.1v-4.9h1.3V140h-1.2l-0.1-1.3
		c-0.3,0.4-0.6,0.7-1.1,1S299.8,140.2,299.1,140.2z M299.2,139c0.5,0,1-0.1,1.4-0.4c0.4-0.2,0.7-0.6,1-1c0.2-0.5,0.3-1,0.3-1.6
		s-0.1-1.1-0.3-1.6c-0.2-0.4-0.6-0.8-1-1s-0.9-0.4-1.4-0.4s-1,0.1-1.4,0.4s-0.7,0.6-1,1c-0.2,0.5-0.3,1-0.3,1.6s0.1,1.1,0.3,1.6
		c0.2,0.4,0.6,0.8,1,1S298.7,139,299.2,139z"/>
	<path class="st1" d="M191.5,162.2c-0.8,0-1.4-0.2-2-0.5c-0.6-0.4-1.1-0.8-1.4-1.5c-0.3-0.6-0.5-1.4-0.5-2.2s0.2-1.6,0.5-2.2
		s0.8-1.1,1.4-1.5c0.6-0.3,1.3-0.5,2.1-0.5s1.4,0.2,2,0.5c0.6,0.4,1,0.8,1.3,1.4s0.4,1.2,0.4,1.8c0,0.1,0,0.2,0,0.4
		c0,0.1,0,0.2,0,0.4H189c0,0.6,0.2,1.1,0.4,1.5s0.6,0.7,0.9,0.9c0.4,0.2,0.8,0.3,1.2,0.3c0.6,0,1-0.1,1.4-0.4s0.7-0.6,0.8-1h1.3
		c-0.2,0.7-0.6,1.4-1.2,1.8C193.2,161.9,192.5,162.2,191.5,162.2z M191.5,155c-0.6,0-1.2,0.2-1.7,0.6s-0.8,1-0.9,1.7h5
		c0-0.7-0.3-1.3-0.7-1.7C192.8,155.2,192.2,155,191.5,155z"/>
	<path class="st1" d="M197.1,162v-8h1.2l0.1,1.4c0.3-0.5,0.6-0.9,1.1-1.2s1-0.4,1.6-0.4c0.9,0,1.7,0.3,2.2,0.9
		c0.6,0.6,0.8,1.4,0.8,2.6v4.6h-1.3v-4.5c0-1.6-0.7-2.5-2.1-2.5c-0.7,0-1.2,0.2-1.7,0.7s-0.7,1.2-0.7,2.1v4.1L197.1,162L197.1,162z"
		/>
	<path class="st1" d="M208.4,162l-3-7.9h1.4l2.4,6.6l2.4-6.6h1.4l-3,7.9H208.4z"/>
	<path class="st1" d="M215.2,152.3c-0.3,0-0.5-0.1-0.7-0.3s-0.3-0.4-0.3-0.7s0.1-0.5,0.3-0.6c0.2-0.2,0.4-0.3,0.7-0.3
		s0.5,0.1,0.7,0.3s0.3,0.4,0.3,0.6c0,0.3-0.1,0.5-0.3,0.7S215.5,152.3,215.2,152.3z M214.6,162v-8h1.3v7.9h-1.3V162z"/>
	<path class="st1" d="M218.2,162v-8h1.2l0.1,1.5c0.2-0.5,0.6-0.9,1.1-1.2s1.1-0.5,1.9-0.5v1.4h-0.4c-0.5,0-0.9,0.1-1.3,0.2
		c-0.4,0.2-0.7,0.5-0.9,0.8c-0.2,0.4-0.3,0.9-0.3,1.6v4h-1.4L218.2,162L218.2,162z"/>
	<path class="st1" d="M227.4,162.2c-0.8,0-1.4-0.2-2-0.5s-1.1-0.8-1.4-1.4c-0.4-0.6-0.5-1.4-0.5-2.2s0.2-1.6,0.5-2.2
		c0.4-0.6,0.8-1.1,1.4-1.4c0.6-0.3,1.3-0.5,2-0.5s1.4,0.2,2,0.5s1.1,0.8,1.4,1.4c0.4,0.6,0.5,1.4,0.5,2.2s-0.2,1.6-0.5,2.2
		c-0.4,0.6-0.8,1.1-1.4,1.4S228.1,162.2,227.4,162.2z M227.4,161c0.5,0,0.9-0.1,1.3-0.3c0.4-0.2,0.7-0.6,1-1c0.2-0.5,0.4-1,0.4-1.7
		s-0.1-1.2-0.4-1.7c-0.2-0.4-0.6-0.8-1-1s-0.8-0.3-1.3-0.3s-0.9,0.1-1.3,0.3c-0.4,0.2-0.7,0.6-1,1c-0.2,0.5-0.4,1-0.4,1.7
		s0.1,1.2,0.4,1.7s0.6,0.8,1,1C226.5,160.9,226.9,161,227.4,161z"/>
	<path class="st1" d="M233.2,162v-8h1.2l0.1,1.4c0.3-0.5,0.6-0.9,1.1-1.2s1-0.4,1.6-0.4c0.9,0,1.7,0.3,2.2,0.9
		c0.6,0.6,0.8,1.4,0.8,2.6v4.6H239v-4.5c0-1.6-0.7-2.5-2.1-2.5c-0.7,0-1.2,0.2-1.7,0.7c-0.4,0.5-0.7,1.2-0.7,2.1v4.1L233.2,162
		L233.2,162z"/>
	<path class="st1" d="M242.4,162v-8h1.2l0.1,1.1c0.3-0.4,0.6-0.8,1-1s0.9-0.4,1.4-0.4c0.6,0,1.2,0.1,1.6,0.4c0.5,0.3,0.8,0.6,1,1.2
		c0.3-0.5,0.7-0.9,1.1-1.1c0.5-0.3,1-0.4,1.6-0.4c1,0,1.7,0.3,2.3,0.9c0.6,0.6,0.9,1.5,0.9,2.6v4.6h-1.3v-4.5c0-0.8-0.2-1.4-0.5-1.9
		c-0.3-0.4-0.8-0.6-1.4-0.6s-1.2,0.2-1.6,0.7s-0.6,1.2-0.6,2.1v4.1h-1.3v-4.5c0-0.8-0.2-1.4-0.5-1.9c-0.3-0.4-0.8-0.6-1.4-0.6
		s-1.1,0.2-1.6,0.7c-0.4,0.5-0.6,1.2-0.6,2.1v4.1L242.4,162L242.4,162z"/>
	<path class="st1" d="M260.2,162.2c-0.8,0-1.4-0.2-2-0.5c-0.6-0.4-1-0.8-1.4-1.5c-0.3-0.6-0.5-1.4-0.5-2.2s0.2-1.6,0.5-2.2
		s0.8-1.1,1.4-1.5c0.6-0.3,1.3-0.5,2.1-0.5c0.8,0,1.4,0.2,2,0.5c0.6,0.4,1,0.8,1.3,1.4s0.5,1.2,0.5,1.8c0,0.1,0,0.2,0,0.4
		s0,0.2,0,0.4h-6.3c0,0.6,0.2,1.1,0.4,1.5s0.6,0.7,0.9,0.9c0.4,0.2,0.8,0.3,1.2,0.3c0.6,0,1-0.1,1.4-0.4s0.6-0.6,0.8-1h1.3
		c-0.2,0.7-0.6,1.4-1.2,1.8C262,161.9,261.2,162.2,260.2,162.2z M260.2,155c-0.6,0-1.2,0.2-1.7,0.6s-0.8,1-0.9,1.7h5
		c0-0.7-0.3-1.3-0.7-1.7C261.5,155.2,260.9,155,260.2,155z"/>
	<path class="st1" d="M265.8,162v-8h1.2l0.1,1.4c0.3-0.5,0.6-0.9,1.1-1.2s1-0.4,1.6-0.4c0.9,0,1.7,0.3,2.2,0.9
		c0.6,0.6,0.8,1.4,0.8,2.6v4.6h-1.3v-4.5c0-1.6-0.7-2.5-2-2.5c-0.7,0-1.2,0.2-1.7,0.7s-0.7,1.2-0.7,2.1v4.1L265.8,162L265.8,162z"/>
	<path class="st1" d="M278.1,162c-0.7,0-1.3-0.2-1.7-0.5s-0.6-1-0.6-1.9v-4.4h-1.4V154h1.4l0.2-1.9h1.2v1.9h2.3v1.1h-2.3v4.4
		c0,0.5,0.1,0.8,0.3,1c0.2,0.2,0.6,0.3,1.1,0.3h0.8v1.1L278.1,162L278.1,162z"/>
	<path class="st1" d="M283.8,162.2c-0.7,0-1.2-0.1-1.7-0.3c-0.4-0.2-0.8-0.5-1-0.9s-0.3-0.8-0.3-1.2c0-0.8,0.3-1.4,0.9-1.9
		c0.6-0.4,1.5-0.7,2.5-0.7h2.1v-0.1c0-0.7-0.2-1.2-0.5-1.6c-0.4-0.4-0.9-0.5-1.5-0.5c-0.5,0-1,0.1-1.4,0.4s-0.6,0.6-0.7,1.1H281
		c0-0.6,0.2-1.1,0.6-1.5c0.3-0.4,0.8-0.7,1.3-0.9s1-0.3,1.6-0.3c1.1,0,1.9,0.3,2.5,0.9s0.8,1.4,0.8,2.4v4.9h-1.2l-0.1-1.4
		c-0.2,0.5-0.5,0.8-1,1.1C285.1,162,284.5,162.2,283.8,162.2z M284,161c0.5,0,1-0.1,1.3-0.4c0.4-0.3,0.6-0.6,0.8-1s0.3-0.9,0.3-1.3
		l0,0h-2c-0.8,0-1.4,0.1-1.7,0.4c-0.3,0.3-0.5,0.6-0.5,1s0.1,0.8,0.5,1C283,160.9,283.4,161,284,161z"/>
	<path class="st1" d="M289.8,162v-11.5h1.3V162H289.8z"/>
	<path class="st1" d="M188.4,184v-6.8h-1.2V176h1.2v-1.4c0-0.8,0.2-1.3,0.6-1.7s0.9-0.5,1.7-0.5h0.8v1.1h-0.6
		c-0.4,0-0.7,0.1-0.9,0.2c-0.2,0.2-0.3,0.5-0.3,0.8v1.3h1.9v1.1h-1.9v6.8L188.4,184L188.4,184z"/>
	<path class="st1" d="M195.6,184.2c-0.7,0-1.2-0.1-1.6-0.3c-0.4-0.2-0.8-0.5-1-0.9s-0.3-0.8-0.3-1.2c0-0.8,0.3-1.4,0.9-1.9
		c0.6-0.4,1.5-0.7,2.5-0.7h2.1v-0.1c0-0.7-0.2-1.2-0.5-1.6c-0.4-0.4-0.8-0.5-1.5-0.5c-0.5,0-1,0.1-1.4,0.4s-0.6,0.6-0.7,1.1h-1.4
		c0.1-0.6,0.2-1.1,0.6-1.5c0.3-0.4,0.8-0.7,1.3-0.9s1-0.3,1.6-0.3c1.1,0,1.9,0.3,2.5,0.9s0.8,1.4,0.8,2.4v4.9h-1.2l-0.1-1.4
		c-0.2,0.5-0.6,0.8-1,1.1C196.9,184,196.3,184.2,195.6,184.2z M195.8,183c0.5,0,0.9-0.1,1.3-0.4c0.4-0.3,0.7-0.6,0.8-1
		c0.2-0.4,0.3-0.9,0.3-1.3l0,0h-2c-0.8,0-1.4,0.1-1.7,0.4s-0.5,0.6-0.5,1s0.2,0.8,0.5,1C194.8,182.9,195.3,183,195.8,183z"/>
	<path class="st1" d="M205.3,184.2c-0.8,0-1.4-0.2-2-0.5c-0.6-0.4-1.1-0.8-1.4-1.5c-0.4-0.6-0.5-1.4-0.5-2.2s0.2-1.6,0.5-2.2
		s0.8-1.1,1.4-1.5c0.6-0.3,1.3-0.5,2-0.5c0.9,0,1.7,0.2,2.4,0.7c0.6,0.5,1.1,1.2,1.2,2h-1.4c-0.1-0.5-0.4-0.9-0.8-1.1
		s-0.9-0.4-1.5-0.4c-0.4,0-0.9,0.1-1.3,0.3c-0.4,0.2-0.7,0.6-1,1c-0.2,0.4-0.4,1-0.4,1.7s0.1,1.2,0.4,1.7c0.2,0.4,0.6,0.8,1,1
		s0.8,0.3,1.3,0.3c0.6,0,1-0.1,1.5-0.4c0.4-0.3,0.7-0.7,0.8-1.2h1.4c-0.2,0.8-0.6,1.5-1.2,2C207,183.9,206.2,184.2,205.3,184.2z"/>
	<path class="st1" d="M213.7,184c-0.7,0-1.3-0.2-1.7-0.5c-0.4-0.4-0.6-1-0.6-1.9v-4.4H210V176h1.4l0.2-1.9h1.2v1.9h2.3v1.1h-2.3v4.4
		c0,0.5,0.1,0.8,0.3,1s0.6,0.3,1.1,0.3h0.8v1.1L213.7,184L213.7,184z"/>
	<path class="st1" d="M220.1,184.2c-0.8,0-1.4-0.2-2-0.5s-1.1-0.8-1.4-1.4c-0.3-0.6-0.5-1.4-0.5-2.2s0.2-1.6,0.5-2.2
		c0.4-0.6,0.8-1.1,1.4-1.4s1.3-0.5,2-0.5s1.4,0.2,2,0.5s1.1,0.8,1.4,1.4c0.3,0.6,0.5,1.4,0.5,2.2s-0.2,1.6-0.5,2.2s-0.8,1.1-1.4,1.4
		C221.5,184,220.9,184.2,220.1,184.2z M220.1,183c0.5,0,0.9-0.1,1.3-0.3c0.4-0.2,0.7-0.6,1-1c0.2-0.5,0.4-1,0.4-1.7
		s-0.1-1.2-0.4-1.7s-0.6-0.8-0.9-1c-0.4-0.2-0.8-0.3-1.3-0.3s-0.9,0.1-1.3,0.3c-0.4,0.2-0.7,0.6-1,1c-0.2,0.5-0.4,1-0.4,1.7
		s0.1,1.2,0.4,1.7s0.6,0.8,0.9,1C219.2,182.9,219.7,183,220.1,183z"/>
	<path class="st1" d="M226,184v-8h1.2l0.1,1.5c0.2-0.5,0.6-0.9,1.1-1.2s1.1-0.5,1.9-0.5v1.4h-0.4c-0.5,0-0.9,0.1-1.3,0.2
		c-0.4,0.2-0.7,0.5-0.9,0.8c-0.2,0.4-0.3,0.9-0.3,1.6v4H226V184z"/>
	<path class="st1" d="M234.8,184.2c-1,0-1.7-0.2-2.4-0.7c-0.6-0.5-1-1.1-1.1-2h1.4c0.1,0.4,0.3,0.8,0.7,1.1s0.8,0.5,1.4,0.5
		c0.6,0,1-0.1,1.2-0.4c0.3-0.2,0.4-0.5,0.4-0.9c0-0.5-0.2-0.8-0.5-1s-0.8-0.3-1.5-0.4c-0.4-0.1-0.8-0.2-1.3-0.4
		c-0.4-0.2-0.8-0.4-1.1-0.7s-0.4-0.7-0.4-1.2c0-0.7,0.3-1.3,0.8-1.7s1.2-0.7,2.1-0.7c0.8,0,1.5,0.2,2.1,0.6c0.5,0.4,0.9,1,0.9,1.8
		h-1.3c0-0.4-0.2-0.7-0.5-1c-0.3-0.2-0.7-0.3-1.2-0.3s-0.8,0.1-1.1,0.3s-0.4,0.5-0.4,0.8s0.2,0.6,0.5,0.8s0.8,0.3,1.4,0.5
		c0.5,0.1,1,0.2,1.4,0.4s0.8,0.4,1.1,0.7s0.4,0.7,0.4,1.3c0,0.7-0.3,1.3-0.8,1.8C236.5,183.9,235.8,184.2,234.8,184.2z"/>
	<path class="st1" d="M247.1,184c-0.7,0-1.3-0.2-1.7-0.5s-0.6-1-0.6-1.9v-4.4h-1.4V176h1.4l0.2-1.9h1.2v1.9h2.3v1.1h-2.3v4.4
		c0,0.5,0.1,0.8,0.3,1s0.6,0.3,1.1,0.3h0.8v1.1L247.1,184L247.1,184z"/>
	<path class="st1" d="M250.2,184v-11.5h1.3v4.9c0.3-0.5,0.7-0.9,1.1-1.1s1-0.4,1.6-0.4c0.9,0,1.6,0.3,2.2,0.9
		c0.5,0.6,0.8,1.4,0.8,2.6v4.6H256v-4.5c0-1.6-0.7-2.5-2-2.5c-0.7,0-1.3,0.2-1.7,0.7c-0.5,0.5-0.7,1.2-0.7,2.1v4.1L250.2,184
		L250.2,184z"/>
	<path class="st1" d="M262,184.2c-0.7,0-1.2-0.1-1.6-0.3s-0.8-0.5-1-0.9s-0.3-0.8-0.3-1.2c0-0.8,0.3-1.4,0.9-1.9
		c0.6-0.4,1.5-0.7,2.5-0.7h2.1v-0.1c0-0.7-0.2-1.2-0.5-1.6c-0.4-0.4-0.8-0.5-1.5-0.5c-0.5,0-1,0.1-1.4,0.4s-0.6,0.6-0.7,1.1h-1.4
		c0.1-0.6,0.2-1.1,0.6-1.5c0.3-0.4,0.8-0.7,1.3-0.9s1-0.3,1.6-0.3c1.1,0,1.9,0.3,2.5,0.9s0.8,1.4,0.8,2.4v4.9h-1.2l-0.1-1.4
		c-0.2,0.5-0.5,0.8-1,1.1C263.3,184,262.7,184.2,262,184.2z M262.2,183c0.5,0,1-0.1,1.3-0.4c0.4-0.3,0.6-0.6,0.8-1s0.3-0.9,0.3-1.3
		l0,0h-2c-0.8,0-1.4,0.1-1.7,0.4c-0.3,0.3-0.5,0.6-0.5,1s0.1,0.8,0.5,1C261.2,182.9,261.6,183,262.2,183z"/>
	<path class="st1" d="M270.9,184c-0.7,0-1.3-0.2-1.7-0.5s-0.6-1-0.6-1.9v-4.4h-1.4V176h1.4l0.2-1.9h1.2v1.9h2.3v1.1H270v4.4
		c0,0.5,0.1,0.8,0.3,1s0.6,0.3,1.1,0.3h0.8v1.1L270.9,184L270.9,184z"/>
	<path class="st1" d="M188,209.5V198h1.2l0.1,1.3c0.3-0.4,0.6-0.7,1.1-1s1.1-0.5,1.8-0.5c0.8,0,1.5,0.2,2.1,0.5
		c0.6,0.4,1,0.9,1.4,1.5s0.5,1.3,0.5,2.1s-0.2,1.5-0.5,2.1s-0.8,1.1-1.4,1.5c-0.6,0.4-1.3,0.5-2.1,0.5c-0.6,0-1.2-0.1-1.7-0.4
		s-0.9-0.6-1.2-1.1v4.8H188V209.5z M192.1,205c0.5,0,1-0.1,1.4-0.4c0.4-0.2,0.7-0.6,1-1c0.2-0.5,0.3-1,0.3-1.6s-0.1-1.1-0.3-1.6
		c-0.2-0.4-0.6-0.8-1-1s-0.9-0.4-1.4-0.4s-1,0.1-1.4,0.4s-0.7,0.6-1,1c-0.2,0.5-0.3,1-0.3,1.6s0.1,1.1,0.3,1.6c0.2,0.4,0.6,0.8,1,1
		C191.1,204.9,191.5,205,192.1,205z"/>
	<path class="st1" d="M198,206v-8h1.2l0.1,1.5c0.2-0.5,0.6-0.9,1.1-1.2s1.1-0.5,1.9-0.5v1.4H202c-0.5,0-0.9,0.1-1.3,0.2
		c-0.4,0.2-0.7,0.5-0.9,0.8c-0.2,0.4-0.4,0.9-0.4,1.6v4H198V206z"/>
	<path class="st1" d="M207.1,206.2c-0.8,0-1.4-0.2-2-0.5s-1.1-0.8-1.4-1.4c-0.3-0.6-0.5-1.4-0.5-2.2s0.2-1.6,0.5-2.2
		s0.8-1.1,1.4-1.4s1.3-0.5,2-0.5s1.4,0.2,2,0.5s1.1,0.8,1.4,1.4c0.3,0.6,0.5,1.4,0.5,2.2s-0.2,1.6-0.5,2.2s-0.8,1.1-1.4,1.4
		C208.6,206,207.9,206.2,207.1,206.2z M207.1,205c0.5,0,0.9-0.1,1.3-0.3c0.4-0.2,0.7-0.6,1-1c0.2-0.5,0.4-1,0.4-1.7
		s-0.1-1.2-0.4-1.7s-0.6-0.8-0.9-1c-0.4-0.2-0.8-0.3-1.3-0.3s-0.9,0.1-1.3,0.3c-0.4,0.2-0.7,0.6-1,1c-0.2,0.5-0.4,1-0.4,1.7
		s0.1,1.2,0.4,1.7s0.6,0.8,0.9,1C206.3,204.9,206.7,205,207.1,205z"/>
	<path class="st1" d="M213,206v-8h1.2l0.1,1.1c0.3-0.4,0.6-0.8,1-1s0.9-0.4,1.4-0.4c0.6,0,1.2,0.1,1.6,0.4c0.4,0.3,0.8,0.6,1.1,1.2
		c0.3-0.5,0.7-0.9,1.1-1.1c0.5-0.3,1-0.4,1.6-0.4c0.9,0,1.7,0.3,2.3,0.9s0.9,1.5,0.9,2.6v4.6H224v-4.5c0-0.8-0.2-1.4-0.5-1.9
		c-0.3-0.4-0.8-0.6-1.4-0.6c-0.6,0-1.2,0.2-1.6,0.7c-0.4,0.5-0.6,1.2-0.6,2.1v4.1h-1.3v-4.5c0-0.8-0.2-1.4-0.5-1.9
		c-0.3-0.4-0.8-0.6-1.4-0.6c-0.6,0-1.2,0.2-1.6,0.7c-0.4,0.5-0.6,1.2-0.6,2.1v4.1L213,206L213,206z"/>
	<path class="st1" d="M230.9,206.2c-0.8,0-1.4-0.2-2-0.5s-1.1-0.8-1.4-1.4c-0.4-0.6-0.5-1.4-0.5-2.2s0.2-1.6,0.5-2.2
		c0.4-0.6,0.8-1.1,1.4-1.4c0.6-0.3,1.3-0.5,2-0.5s1.4,0.2,2,0.5s1.1,0.8,1.4,1.4c0.4,0.6,0.5,1.4,0.5,2.2s-0.2,1.6-0.5,2.2
		c-0.4,0.6-0.8,1.1-1.4,1.4C232.4,206,231.7,206.2,230.9,206.2z M230.9,205c0.5,0,0.9-0.1,1.3-0.3c0.4-0.2,0.7-0.6,1-1
		c0.2-0.5,0.4-1,0.4-1.7s-0.1-1.2-0.4-1.7c-0.2-0.4-0.6-0.8-0.9-1c-0.4-0.2-0.8-0.3-1.3-0.3s-0.9,0.1-1.3,0.3c-0.4,0.2-0.7,0.6-1,1
		c-0.2,0.5-0.4,1-0.4,1.7s0.1,1.2,0.4,1.7s0.6,0.8,0.9,1C230.1,204.9,230.5,205,230.9,205z"/>
	<path class="st1" d="M239.6,206c-0.7,0-1.3-0.2-1.7-0.5c-0.4-0.4-0.6-1-0.6-1.9v-4.4h-1.4V198h1.4l0.2-1.9h1.2v1.9h2.3v1.1h-2.3
		v4.4c0,0.5,0.1,0.8,0.3,1s0.6,0.3,1.1,0.3h0.8v1.1L239.6,206L239.6,206z"/>
	<path class="st1" d="M246,206.2c-0.8,0-1.4-0.2-2-0.5c-0.6-0.4-1.1-0.8-1.4-1.5c-0.3-0.6-0.5-1.4-0.5-2.2s0.2-1.6,0.5-2.2
		s0.8-1.1,1.4-1.5c0.6-0.3,1.3-0.5,2.1-0.5s1.4,0.2,2,0.5c0.6,0.4,1,0.8,1.3,1.4s0.4,1.2,0.4,1.8c0,0.1,0,0.2,0,0.4
		c0,0.1,0,0.2,0,0.4h-6.3c0,0.6,0.2,1.1,0.4,1.5s0.6,0.7,0.9,0.9c0.4,0.2,0.8,0.3,1.2,0.3c0.5,0,1-0.1,1.4-0.4s0.6-0.6,0.8-1h1.3
		c-0.2,0.7-0.6,1.4-1.2,1.8C247.7,205.9,246.9,206.2,246,206.2z M246,199c-0.6,0-1.2,0.2-1.7,0.6s-0.8,1-0.9,1.7h5
		c0-0.7-0.3-1.3-0.7-1.7C247.2,199.2,246.7,199,246,199z"/>
	<path class="st1" d="M258.8,206.2c-1,0-1.7-0.2-2.4-0.7c-0.6-0.5-1-1.1-1.1-2h1.4c0.1,0.4,0.3,0.8,0.7,1.1c0.4,0.3,0.8,0.5,1.4,0.5
		s1-0.1,1.2-0.4c0.3-0.2,0.4-0.5,0.4-0.9c0-0.5-0.2-0.8-0.5-1s-0.8-0.3-1.5-0.4c-0.4-0.1-0.9-0.2-1.3-0.4s-0.8-0.4-1.1-0.7
		c-0.3-0.3-0.4-0.7-0.4-1.2c0-0.7,0.3-1.3,0.8-1.7c0.5-0.4,1.2-0.7,2.1-0.7c0.8,0,1.5,0.2,2.1,0.6c0.5,0.4,0.9,1,0.9,1.8h-1.3
		c-0.1-0.4-0.2-0.7-0.5-1c-0.3-0.2-0.7-0.3-1.2-0.3s-0.9,0.1-1.1,0.3c-0.3,0.2-0.4,0.5-0.4,0.8s0.2,0.6,0.5,0.8s0.8,0.3,1.4,0.5
		c0.5,0.1,1,0.2,1.4,0.4c0.4,0.1,0.8,0.4,1.1,0.7c0.3,0.3,0.4,0.7,0.4,1.3c0,0.7-0.3,1.3-0.8,1.8
		C260.5,205.9,259.8,206.2,258.8,206.2z"/>
	<path class="st1" d="M263.8,206v-11.5h1.3V206H263.8z"/>
	<path class="st1" d="M270.9,206.2c-0.8,0-1.4-0.2-2-0.5c-0.6-0.4-1.1-0.8-1.4-1.5c-0.3-0.6-0.5-1.4-0.5-2.2s0.2-1.6,0.5-2.2
		s0.8-1.1,1.4-1.5c0.6-0.3,1.3-0.5,2.1-0.5c0.8,0,1.4,0.2,2,0.5c0.6,0.4,1,0.8,1.3,1.4s0.5,1.2,0.5,1.8c0,0.1,0,0.2,0,0.4
		s0,0.2,0,0.4h-6.3c0,0.6,0.2,1.1,0.4,1.5s0.6,0.7,0.9,0.9c0.4,0.2,0.8,0.3,1.2,0.3c0.6,0,1-0.1,1.4-0.4s0.6-0.6,0.8-1h1.3
		c-0.2,0.7-0.6,1.4-1.2,1.8C272.6,205.9,271.8,206.2,270.9,206.2z M270.9,199c-0.6,0-1.2,0.2-1.7,0.6s-0.8,1-0.9,1.7h5
		c0-0.7-0.3-1.3-0.7-1.7C272.1,199.2,271.6,199,270.9,199z"/>
	<path class="st1" d="M280,206.2c-0.8,0-1.4-0.2-2-0.5c-0.6-0.4-1.1-0.8-1.4-1.5c-0.3-0.6-0.5-1.4-0.5-2.2s0.2-1.6,0.5-2.2
		s0.8-1.1,1.4-1.5c0.6-0.3,1.3-0.5,2.1-0.5c0.8,0,1.4,0.2,2,0.5c0.6,0.4,1,0.8,1.3,1.4s0.4,1.2,0.4,1.8c0,0.1,0,0.2,0,0.4
		c0,0.1,0,0.2,0,0.4h-6.3c0,0.6,0.2,1.1,0.4,1.5s0.6,0.7,0.9,0.9c0.4,0.2,0.8,0.3,1.2,0.3c0.5,0,1-0.1,1.4-0.4s0.6-0.6,0.8-1h1.3
		c-0.2,0.7-0.6,1.4-1.2,1.8C281.7,205.9,280.9,206.2,280,206.2z M280,199c-0.6,0-1.2,0.2-1.7,0.6s-0.8,1-0.9,1.7h5
		c0-0.7-0.3-1.3-0.7-1.7C281.2,199.2,280.7,199,280,199z"/>
	<path class="st1" d="M285.5,209.5V198h1.2l0.1,1.3c0.3-0.4,0.6-0.7,1.1-1s1.1-0.5,1.8-0.5c0.8,0,1.5,0.2,2.1,0.5
		c0.6,0.4,1,0.9,1.4,1.5c0.3,0.6,0.5,1.3,0.5,2.1s-0.2,1.5-0.5,2.1s-0.8,1.1-1.4,1.5s-1.3,0.5-2.1,0.5c-0.6,0-1.2-0.1-1.7-0.4
		s-0.9-0.6-1.2-1.1v4.8h-1.3V209.5z M289.6,205c0.5,0,1-0.1,1.4-0.4s0.7-0.6,1-1c0.2-0.5,0.4-1,0.4-1.6s-0.1-1.1-0.4-1.6
		c-0.2-0.4-0.5-0.8-1-1s-0.9-0.4-1.4-0.4s-1,0.1-1.4,0.4s-0.7,0.6-1,1c-0.2,0.5-0.4,1-0.4,1.6s0.1,1.1,0.4,1.6c0.2,0.4,0.5,0.8,1,1
		S289.1,205,289.6,205z"/>
	<path class="st1" d="M296,206c-0.3,0-0.5-0.1-0.7-0.3s-0.3-0.4-0.3-0.6c0-0.3,0.1-0.5,0.3-0.7c0.2-0.2,0.4-0.3,0.7-0.3
		c0.3,0,0.5,0.1,0.7,0.3s0.3,0.4,0.3,0.7s-0.1,0.5-0.3,0.6C296.5,206,296.3,206,296,206z"/>
	<path class="st2" d="M189.7,32.9c0.2-0.3,0.5-0.5,0.9-0.5c0,0,0.1,0,0.2,0c0.1,0,0.2,0,0.3,0c0.5,0.1,0.9,0.1,1,0.2
		s0.2,0.2,0.3,0.5c0,0.1,0,0.2,0,0.3c0,0.6-0.2,1.6-0.5,2.9c-0.3,1.3-0.6,2.2-0.9,2.6c-0.2,0.3-0.5,0.5-0.7,0.5s-0.3,0-0.4,0
		c-0.8-0.2-1.3-0.8-1.3-1.8c0-0.5,0.1-1.4,0.4-2.5C189.3,33.9,189.5,33.2,189.7,32.9z"/>
	<path class="st2" d="M199.9,31.7c0.2-0.1,0.8-0.2,1.6-0.2c1,0,1.6,0.1,2,0.3c0.3,0.2,0.6,0.4,0.9,0.8c0.3,0.4,0.5,0.7,0.5,1.1
		c0,0.1,0,0.2,0,0.4c0,0.3-0.2,0.6-0.6,1.1c-0.5,0.5-0.9,0.8-1.2,0.8c-0.4,0-0.7-0.2-1-0.6s-0.6-0.6-0.9-0.6c-0.2,0-0.5,0.2-0.8,0.6
		c-0.3,0.4-0.4,0.8-0.4,1.2c0,0.5,0.2,1.2,0.5,2.3s0.6,1.8,0.9,2.2c0.3,0.4,0.8,1.2,1.3,2.2c0.6,1.2,0.9,1.8,1,1.8
		c0.1,0.1,0.2,0.3,0.2,0.6c0,0.4,0.1,0.9,0.3,1.4s0.4,1.1,0.5,1.8c0,0.1,0,0.3,0,0.7c0,1.5-0.3,2.7-0.9,3.4c-0.2,0.4-0.7,0.7-1.3,1
		s-1.2,0.5-1.7,0.5c-0.6,0-1.4-0.3-2.3-1c-0.9-0.7-1.4-1.4-1.7-2.1c-0.2-0.4-0.2-0.8,0-1.1c0.4-0.5,0.8-0.8,1.4-0.8
		c0.1,0,0.3,0,0.4,0.1c0.2,0.1,0.4,0.5,0.8,1c0.4,0.6,0.8,0.8,1.1,0.8c0.2,0,0.4-0.1,0.6-0.4c0.1-0.2,0.1-0.4,0.1-0.8
		c0-1-0.2-1.9-0.6-2.9c-0.2-0.6-0.4-1-0.4-1.3c0-0.1-0.3-0.9-1-2.3c-0.5-1.1-1-2.1-1.4-3.1c-0.7-2-1-3.4-1-4.2c0-1.1,0.3-2.1,1-2.9
		C198.7,32.6,199.3,32,199.9,31.7z"/>
	<path class="st2" d="M209.6,32c0.2-0.2,0.5-0.4,0.8-0.4c0.2,0,0.5,0,0.6,0c0.6,0.1,1.1,0.3,1.2,0.5c0.3,0.4,0.5,2.9,0.5,7.6v2.5
		v2.2c0,3.7,0,5.7,0.1,6c0.1,0.5,0.6,0.7,1.4,0.7c0.4,0,0.7,0,1,0c0.2,0,0.5,0,0.8,0c0.5,0,0.9,0.1,1.1,0.2c0.2,0.2,0.3,0.5,0.3,0.9
		c0,0.3-0.1,0.5-0.2,0.7s-0.4,0.4-0.8,0.6c-0.8,0.4-1.6,0.6-2.4,0.7c-1.2,0.1-1.8,0.1-1.9,0.1c-0.1,0-0.1,0-0.3,0
		c-0.3,0-0.7-0.1-1.1-0.3c-0.4-0.2-0.7-0.4-1-0.7c-0.4-0.5-0.6-1.9-0.6-4.3c0-0.6,0-1.7,0.1-3.3c0.1-1.5,0.1-3,0.1-4.8
		c0-4.1-0.1-6.6-0.2-7.6c-0.1-0.4-0.1-0.6-0.1-0.7C209.2,32.5,209.3,32.3,209.6,32z"/>
	<path class="st2" d="M223.8,33.3c0.3-0.1,0.8-0.1,1.3-0.1c1.5,0,2.5,0.2,2.9,0.5c0.3,0.2,0.4,0.6,0.4,0.9s-0.1,0.7-0.4,0.9
		s-0.6,0.4-1.1,0.4c-0.4,0-0.7,0.1-0.8,0.3s-0.2,0.7-0.2,1.5c0,0.2,0,0.9,0.1,2.1c0.1,1.4,0.1,2.3,0.2,2.7c0.1,0.4,0.2,0.6,0.3,0.7
		c0,0,0.2,0,0.5,0s0.6,0,0.8,0c0.7,0,1.2,0.2,1.5,0.5c0.2,0.2,0.3,0.4,0.3,0.6c0,0.4-0.6,0.9-1.8,1.3c-0.7,0.2-1.1,0.4-1.3,0.6
		c-0.1,0.1-0.2,0.4-0.3,0.9c-0.1,0.4-0.1,0.8-0.1,1.2c0,1.4,0.1,2.4,0.4,3.1c0.1,0.3,0.2,0.5,0.4,0.5c0.1,0.1,0.4,0.1,0.9,0.1
		c0.6,0,1.1,0.1,1.5,0.4c0.4,0.3,0.6,0.6,0.6,0.9c0,0.2-0.2,0.6-0.6,1c-0.7,0.6-1.8,1-3.4,1c-1.6,0-2.7-0.4-3.2-1.1
		c-0.3-0.4-0.4-2.8-0.5-7.2c-0.1-5.5-0.1-8.8-0.2-9.7l-0.1-3.1l0.6-0.3C223,33.5,223.4,33.4,223.8,33.3z"/>
	<path class="st2" d="M236.2,33.3c0.3-0.1,0.8-0.1,1.3-0.1c1.5,0,2.5,0.2,2.9,0.5c0.3,0.2,0.4,0.6,0.4,0.9s-0.1,0.7-0.4,0.9
		s-0.6,0.4-1.1,0.4c-0.4,0-0.7,0.1-0.8,0.3s-0.2,0.7-0.2,1.5c0,0.2,0,0.9,0.1,2.1c0.1,1.4,0.1,2.3,0.2,2.7s0.2,0.6,0.3,0.7
		c0,0,0.2,0,0.6,0c0.3,0,0.6,0,0.8,0c0.7,0,1.2,0.2,1.5,0.5c0.2,0.2,0.3,0.4,0.3,0.6c0,0.4-0.6,0.9-1.8,1.3
		c-0.7,0.2-1.1,0.4-1.3,0.6c-0.1,0.1-0.2,0.4-0.3,0.9c-0.1,0.4-0.1,0.8-0.1,1.2c0,1.4,0.1,2.4,0.4,3.1c0.1,0.3,0.2,0.5,0.4,0.5
		c0.1,0.1,0.4,0.1,0.9,0.1c0.6,0,1.1,0.1,1.5,0.4c0.4,0.3,0.6,0.6,0.6,0.9c0,0.2-0.2,0.6-0.6,1c-0.7,0.6-1.8,1-3.4,1
		s-2.7-0.4-3.2-1.1c-0.3-0.4-0.4-2.8-0.5-7.2c-0.1-5.5-0.1-8.8-0.2-9.7l-0.1-3.1l0.6-0.3C235.4,33.5,235.8,33.4,236.2,33.3z"/>
	<path class="st2" d="M247.6,31.4c0.3-0.1,1-0.2,2.1-0.2c1.3,0,2.2,0.1,2.5,0.3c0.4,0.2,0.9,0.6,1.5,1.2s0.9,1,1.1,1.4
		c0.3,0.6,0.5,2.2,0.6,4.5c0.1,1.4,0.1,2.2,0.1,2.4c0,0.9-0.1,1.7-0.4,2.5c-0.3,0.9-0.6,1.6-1,2c-0.4,0.5-1,0.8-1.7,1l-1.2,0.4v3.4
		c0,2-0.1,3.3-0.2,3.7s-0.6,0.7-1.2,0.7s-1.1-0.2-1.5-0.5l-0.6-0.5v-3V50c0-2.4-0.1-5.4-0.2-9s-0.3-5.8-0.4-6.7
		c-0.1-0.6-0.1-1.1-0.1-1.5C246.7,32.2,247,31.7,247.6,31.4z M251.4,35.4c-0.3-0.6-0.5-1-0.7-1c-0.1,0-0.1,0-0.2,0.1
		c0,0.9,0,2,0,3.2c0,4,0.2,6,0.5,6c0.1,0,0.3-0.3,0.6-0.8c0.2-0.5,0.3-1.1,0.3-1.8c0-0.2,0-0.8-0.1-1.9
		C251.7,37.1,251.6,35.9,251.4,35.4z"/>
	<path class="st2" d="M199.3,67.3c0.1-0.2,0.3-0.3,0.7-0.3c0.5,0,1,0.1,1.5,0.5c0.3,0.2,0.5,0.4,0.6,0.6c0.1,0.1,0.1,0.5,0.1,1.1
		c0,4,0.1,6.3,0.1,7s0.2,1,0.4,1.1h0.1c0.2,0,0.5-0.1,0.8-0.2c0.2-0.1,0.3-0.4,0.4-0.8c0-0.4,0.1-1.5,0.1-3.1c0-2.5,0.1-3.8,0.2-4.1
		c0.2-0.5,0.8-0.7,1.5-0.7c0.3,0,0.6,0.1,0.8,0.2l0.6,0.3l-0.1,4.4c-0.1,1.8-0.1,4.4-0.1,7.7c0,3.7,0.1,6.1,0.2,7.2l0.2,1.8
		l-0.7,0.3c-0.2,0.1-0.4,0.2-0.7,0.2c-0.2,0-0.5-0.1-0.9-0.2c-0.6-0.2-0.9-0.5-1-0.8c-0.1-0.2-0.2-1.8-0.2-4.7
		c-0.1-2.9-0.2-4.4-0.3-4.5s-0.4-0.1-0.8,0l-0.8,0.2l0.1,3.4c0.1,2.3,0.2,3.8,0.4,4.2c0.1,0.3,0.2,0.7,0.2,1c0,0.6-0.3,1-0.9,1.1
		c-0.3,0.1-0.5,0.1-0.6,0.1c-0.8,0-1.4-0.2-1.9-0.7c-0.2-0.2-0.3-0.8-0.3-1.8s-0.1-4.1-0.1-9.3C199.1,71.2,199.2,67.6,199.3,67.3z"
		/>
	<path class="st2" d="M213.8,65.9c0.4-0.2,0.8-0.2,1.1-0.2c0.4,0,0.8,0.2,1.1,0.5c0.3,0.4,0.5,1.1,0.5,2.1c0.1,2,0.5,3.7,1.1,5.3
		c0.2,0.5,0.3,0.9,0.3,1.2c0,0.1,0,0.2,0.1,0.2c0,0.1,0.1,0.1,0.2,0c0.2-0.1,0.2-0.5,0.2-1.3s0-1.2,0.1-1.3s0.1-0.9,0.2-2.6
		c0.1-1.7,0.1-2.8,0.1-3.2c0-0.2,0.3-0.4,0.9-0.7c0.6-0.2,1.1-0.4,1.5-0.4c0.6,0,1.1,0.2,1.3,0.6c0.2,0.3,0.4,0.7,0.4,1.1
		c0,0.3-0.1,1.8-0.4,4.4c-0.1,0.5-0.2,2-0.3,4.5c-0.1,1.9-0.5,4.1-1.2,6.7c-0.3,1.3-0.7,2.4-1,3.1s-0.8,1.4-1.5,2.1
		c-0.3,0.4-0.6,0.6-0.8,0.6s-0.3,0.2-0.5,0.5c-0.1,0.3-0.5,0.5-1,0.7s-1.1,0.3-1.7,0.3c-0.5,0-1-0.2-1.6-0.5S212,89,212,88.8
		c0-0.3,0.2-0.6,0.5-1s0.7-0.7,1.2-0.9c0.8-0.4,1.5-0.9,2-1.6s1-1.7,1.4-3c0.5-1.5,0.7-2.4,0.7-2.8c0-0.3-0.2-0.6-0.7-0.7
		c-1.2-0.5-2-1.1-2.4-1.8c-0.2-0.4-0.6-2.2-1.3-5.4c-0.4-1.6-0.6-2.8-0.6-3.7C212.8,66.9,213.1,66.2,213.8,65.9z"/>
	<path class="st2" d="M229.1,68.8c0-0.2,0.1-0.4,0.4-0.6c0.3-0.2,0.6-0.4,1-0.5c0.4-0.2,0.6-0.3,0.7-0.4c0.1-0.2,0.3-0.2,0.5-0.2
		s0.6,0.2,1.3,0.6c0.6,0.4,1,0.8,1.1,1.2c0,0.1,0,0.2,0,0.2c0,0.3-0.4,0.6-1.2,0.9c-0.8,0.4-1.4,0.8-1.6,1.2
		c-0.4,0.8-0.6,2.9-0.6,6.1c0,1.1,0,1.9,0.1,2.4c0.3,3.7,0.6,5.7,0.8,6.1l0,0c0.2,0,0.4-1,0.4-3.1c0.1-1.1,0.1-1.9,0.2-2.3
		c0.1-0.5,0.1-0.9-0.2-1.2c-0.3-0.4-0.5-0.8-0.5-1.1c0-0.2,0.1-0.5,0.3-0.8c0.3-0.3,0.9-0.5,1.9-0.5c0.6,0,1.1,0,1.3,0.1
		s0.4,0.2,0.6,0.4c0.2,0.3,0.4,0.7,0.4,1.2c0,0.4-0.1,1-0.2,1.6c-0.2,1-0.3,2.4-0.4,4.1c-0.1,2-0.4,3.3-0.7,3.9
		c-0.4,0.7-0.7,1.2-0.9,1.4c-0.3,0.2-0.7,0.5-1.4,0.6c-0.4,0.1-0.8,0.2-1.2,0.2c-0.5,0-1-0.2-1.6-0.7c-0.7-0.5-1.3-1.9-1.7-4
		c-0.1-0.4-0.2-0.8-0.3-1c-0.1-0.1-0.1-0.5-0.2-1.2c0-0.4-0.1-2.2-0.2-5.6l-0.2-4.6l0.6-1.9c0.4-1.2,0.7-2,0.9-2.3
		C229,69.1,229.1,68.9,229.1,68.8z"/>
	<path class="st2" d="M240.9,65.3c0.3-0.4,0.8-0.6,1.3-0.6s0.9,0.2,1.3,0.6l0.5,0.6l0.2,9.5c0.1,5.2,0.2,8.2,0.2,9c0,0.4,0,0.8,0,1
		c0,0.3,0,0.5,0,0.7s-0.1,0.3-0.1,0.4c-0.1,0.1-0.1,0.2-0.1,0.2s-0.1,0.1-0.2,0.1s-0.2,0.1-0.2,0.1c-0.3,0.2-0.6,0.3-0.8,0.3
		c-0.1,0-0.4-0.1-0.8-0.2c-0.7-0.3-1.1-0.5-1.1-0.7c-0.1-0.1-0.2-3.5-0.2-10.1c-0.1-6.6-0.1-9.9-0.2-10
		C240.5,65.9,240.6,65.6,240.9,65.3z"/>
	<path class="st2" d="M250.5,67.8c0.3-0.1,0.8-0.1,1.3-0.1c1.5,0,2.5,0.2,2.9,0.5c0.3,0.2,0.4,0.6,0.4,0.9c0,0.4-0.1,0.7-0.4,0.9
		s-0.6,0.4-1.1,0.4c-0.4,0-0.7,0.1-0.8,0.3c-0.1,0.2-0.2,0.7-0.2,1.4c0,0.2,0,0.9,0.1,2.1c0.1,1.4,0.1,2.3,0.2,2.7s0.2,0.6,0.3,0.6
		c0,0,0.2,0,0.5,0s0.6,0,0.8,0c0.7,0,1.2,0.2,1.5,0.5c0.2,0.2,0.3,0.4,0.3,0.6c0,0.4-0.6,0.8-1.8,1.3c-0.7,0.2-1.1,0.4-1.3,0.6
		c-0.1,0.1-0.2,0.4-0.3,0.9c-0.1,0.4-0.1,0.8-0.1,1.2c0,1.4,0.1,2.4,0.4,3.1c0.1,0.3,0.2,0.5,0.4,0.5c0.1,0.1,0.4,0.1,0.9,0.1
		c0.6,0,1.1,0.1,1.5,0.4s0.6,0.6,0.6,0.9c0,0.2-0.2,0.6-0.6,1c-0.7,0.6-1.8,1-3.4,1s-2.7-0.4-3.2-1.1c-0.3-0.4-0.5-2.8-0.5-7.2
		c-0.1-5.5-0.1-8.8-0.2-9.7l-0.1-3.1l0.6-0.3C249.8,68.1,250.2,67.9,250.5,67.8z"/>
	<path class="st2" d="M262.1,66.8c0.4-0.2,0.8-0.3,1.3-0.3c0.8,0,1.4,0.5,1.7,1.6c0.2,0.8,0.6,1.7,1,2.6s0.7,1.6,0.9,2.2
		c0.3,0.9,0.5,1.5,0.8,1.7c0.1,0.1,0.2,0.2,0.2,0.2c0.1,0,0.2-0.6,0.3-1.8c0.1-1.1,0.1-1.9,0.1-2.3v-0.5c0-0.2,0-0.5,0-0.8
		c0-0.7,0.2-1.2,0.6-1.6c0.3-0.4,0.9-0.6,1.5-0.6c0.5,0,0.9,0.1,1.2,0.4c0.2,0.2,0.4,0.6,0.4,1c0,0.5,0,1-0.1,1.5s-0.1,3.9-0.2,10.2
		c0,3.9-0.1,6.3-0.1,7.1s-0.1,1.3-0.3,1.5c-0.3,0.3-0.7,0.5-1.3,0.5c-1.2,0-1.9-0.6-2.1-1.8c-0.1-0.4-0.4-1.3-0.8-2.5
		c-0.4-1.1-0.7-2.1-0.8-3c-0.2-1.1-0.6-2.7-1.2-4.6c-0.1-0.2-0.1-0.2-0.1-0.2c-0.1,0-0.2,1.2-0.2,3.5v2V85c0,2.3-0.1,3.6-0.2,3.9
		c-0.3,0.8-0.9,1.2-1.8,1.2c-0.5,0-1-0.2-1.3-0.6c-0.2-0.3-0.4-0.6-0.4-0.8c0-0.1,0-0.3,0.1-0.8c0.1-0.9,0.2-4.3,0.2-10.1
		c0-6.5,0.1-9.9,0.2-10.3c0.1-0.2,0.2-0.4,0.5-0.5C262,66.9,262.1,66.8,262.1,66.8z"/>
	<path class="st2" d="M278,67.8c0.3-0.1,0.8-0.1,1.3-0.1c1.5,0,2.5,0.2,2.9,0.5c0.3,0.2,0.4,0.6,0.4,0.9c0,0.4-0.1,0.7-0.4,0.9
		s-0.6,0.4-1.1,0.4c-0.4,0-0.7,0.1-0.8,0.3c-0.1,0.2-0.2,0.7-0.2,1.4c0,0.2,0,0.9,0.1,2.1c0.1,1.4,0.1,2.3,0.2,2.7s0.2,0.6,0.3,0.6
		c0,0,0.2,0,0.6,0s0.6,0,0.8,0c0.7,0,1.2,0.2,1.5,0.5c0.2,0.2,0.3,0.4,0.3,0.6c0,0.4-0.6,0.8-1.8,1.3c-0.7,0.2-1.1,0.4-1.3,0.6
		c-0.1,0.1-0.2,0.4-0.3,0.9c-0.1,0.4-0.1,0.8-0.1,1.2c0,1.4,0.1,2.4,0.4,3.1c0.1,0.3,0.2,0.5,0.4,0.5c0.1,0.1,0.4,0.1,0.9,0.1
		c0.6,0,1.1,0.1,1.5,0.4s0.6,0.6,0.6,0.9c0,0.2-0.2,0.6-0.6,1c-0.7,0.6-1.8,1-3.4,1s-2.7-0.4-3.2-1.1c-0.3-0.4-0.4-2.8-0.5-7.2
		c-0.1-5.5-0.1-8.8-0.2-9.7l-0.1-3.1l0.6-0.3C277.3,68.1,277.7,67.9,278,67.8z"/>
	<path class="st2" d="M289.6,67.4c0.2-0.3,0.5-0.5,0.9-0.5c0,0,0.1,0,0.2,0s0.2,0,0.3,0c0.5,0.1,0.9,0.1,1,0.2s0.2,0.2,0.3,0.5
		c0,0.1,0,0.2,0,0.3c0,0.6-0.2,1.6-0.5,2.9s-0.6,2.2-0.9,2.6c-0.2,0.3-0.5,0.5-0.7,0.5s-0.3,0-0.4,0c-0.8-0.2-1.3-0.8-1.3-1.8
		c0-0.5,0.1-1.4,0.4-2.5C289.2,68.4,289.5,67.7,289.6,67.4z"/>
	<path class="st3" d="M95.5,75.1c-1,0-1.9-0.8-1.9-1.9v-8.6c0-1,0.8-1.9,1.9-1.9s1.9,0.8,1.9,1.9v8.6C97.4,74.2,96.6,75.1,95.5,75.1
		z"/>
	<path class="st3" d="M101.7,68.9c0,1-0.8,1.9-1.9,1.9h-8.6c-1,0-1.9-0.8-1.9-1.9s0.8-1.9,1.9-1.9h8.6
		C100.8,67.1,101.7,67.9,101.7,68.9z"/>
	<path class="st3" d="M97.2,50.4h-1.4c-1,0-1.8-0.8-1.8-1.8V35.7c0-1,0.8-1.8,1.8-1.8h1.4c1,0,1.8,0.8,1.8,1.8v12.9
		C99,49.6,98.2,50.4,97.2,50.4z"/>
	<path class="st3" d="M104.8,41.4v1.4c0,1-0.8,1.8-1.8,1.8H90.1c-1,0-1.8-0.8-1.8-1.8v-1.4c0-1,0.8-1.8,1.8-1.8H103
		C104,39.6,104.8,40.4,104.8,41.4z"/>
	<path class="st3" d="M120.4,63.8c-0.8,0-1.4-0.6-1.4-1.4v-6.5c0-0.8,0.6-1.4,1.4-1.4s1.4,0.6,1.4,1.4v6.5
		C121.8,63.1,121.2,63.8,120.4,63.8z"/>
	<path class="st3" d="M125.1,59.1c0,0.8-0.6,1.4-1.4,1.4h-6.5c-0.8,0-1.4-0.6-1.4-1.4s0.6-1.4,1.4-1.4h6.5
		C124.5,57.7,125.1,58.3,125.1,59.1z"/>
	<path class="st2" d="M124.9,80.8l-1.5-2.2c-1.5-2.2-4.4-2.7-6.6-1.2c-0.8,0.6-1.5,1.4-1.8,2.3l-0.6,1.5c-0.4,1.2-1.2,2.4-2.3,3.2
		c-16.8,13.4-31,29.8-42,48.3c-0.2,0.4-0.7,0.6-1.2,0.6l-2,1.1c-2.3,1.2-3.3,4.1-2.1,6.4c0.5,0.9,1.2,1.7,2.2,2.1l1.9,1
		c1,0.5,1.9,1.2,2.6,2.1c6.9,9.1,15.6,16.6,25.5,22.3c1,0.6,1.9,1.4,2.5,2.4l0.6,1c1.4,2.2,4.4,2.9,6.6,1.5c1-0.6,1.7-1.5,2-2.6
		c0.3-1,0.8-1.8,1.5-2.6c0.3-0.4,0.7-0.7,1.1-1c16.8-12.6,30.9-28.4,41.6-46.5c0.7-1.2,1.7-2.1,2.9-2.8l1.4-0.8
		c2.3-1.2,3.3-4.1,2.1-6.4c-0.5-0.9-1.2-1.6-2.1-2.1l-2.3-1.2c-0.9-0.5-1.7-1.1-2.3-1.9c-7.2-8.8-15.8-16.3-25.4-22.3
		C126.2,82.3,125.5,81.6,124.9,80.8z"/>
	<path class="st4" d="M69.4,147.3c-0.4-0.6-1-1.1-1.7-1.4l-1.9-1c-3.6-1.8-5.1-6.1-3.3-9.7c0.7-1.4,1.8-2.6,3.2-3.3l2.7-1.4
		c8.9-14.9,20-28.5,32.8-40.3c-4.9-2.5-10-4.7-15.2-6.5c-1-0.3-1.8-0.8-2.6-1.5l-2-1.8c-1.9-1.8-4.9-1.7-6.7,0.3
		c-0.7,0.8-1.1,1.7-1.2,2.7L73.3,85c-0.2,1.3-0.7,2.6-1.5,3.6c-13.2,16.9-23.3,36.1-29.7,56.6c-0.2,0.5-0.6,0.8-1,0.8l-1.7,1.5
		c-2,1.7-2.2,4.7-0.5,6.7c0.7,0.8,1.6,1.3,2.6,1.6l2.1,0.5c1.1,0.3,2.1,0.8,3,1.5c8.8,7.2,19,12.6,29.9,15.9c1.1,0.3,2.1,0.9,3,1.7
		l0.9,0.8c0.9,0.9,2.2,1.4,3.4,1.4c1.3-0.1,2.6-0.7,3.4-1.7c0.7-0.8,1.1-1.8,1.2-2.8c0.1-1.5,0.7-2.9,1.6-4.1l1.4-1.7
		C82.8,162,75.5,155.2,69.4,147.3z"/>
	<path class="st5" d="M109.2,93.6c1.7-2.4,5.7-4.9,8.4-6.5"/>
	<path class="st5" d="M112.2,158.3c-1.4,2.6-5.1,5.5-7.6,7.4"/>
</g>
</svg>
