<?xml version="1.0" encoding="utf-8"?>
<!-- Generator: Adobe Illustrator 25.1.0, SVG Export Plug-In . SVG Version: 6.00 Build 0)  -->
<svg version="1.1" id="Layer_1" xmlns="http://www.w3.org/2000/svg" xmlns:xlink="http://www.w3.org/1999/xlink" x="0px" y="0px"
	 viewBox="0 0 338.6 167.8" style="enable-background:new 0 0 338.6 167.8;" xml:space="preserve">
<style type="text/css">
	.st0{fill:#FFFFFF;}
	.st1{fill:#32DCD2;}
	.st2{fill:#00CDDC;}
	.st3{fill:#808080;}
	.st4{fill-rule:evenodd;clip-rule:evenodd;fill:#808080;}
	.st5{fill-rule:evenodd;clip-rule:evenodd;fill:#DCE3E5;}
	.st6{fill-rule:evenodd;clip-rule:evenodd;fill:#00CDDC;}
	.st7{fill-rule:evenodd;clip-rule:evenodd;fill:#32DCD2;}
</style>
<g>
	<g>
		<path class="st0" d="M332.9,113.7C350.3,81.5,332.2-6,214.6,0.3S17.3-16.7,2.7,49.8c-14.5,66.3,23.9,126.9,236.9,116.9
			C298.4,163.9,315.6,145.9,332.9,113.7z"/>
		<path class="st1" d="M59.8,132.4c0.9,0,1.7-0.8,1.7-1.7s-0.8-1.7-1.7-1.7c-0.9,0-1.7,0.8-1.7,1.7
			C58.1,131.6,58.9,132.4,59.8,132.4z"/>
		<path class="st2" d="M287.8,145.4c0.9,0,1.7-0.8,1.7-1.7s-0.8-1.7-1.7-1.7c-0.9,0-1.7,0.8-1.7,1.7
			C286.1,144.6,286.9,145.4,287.8,145.4z"/>
		<path class="st2" d="M317.1,77.2c0.3,0,0.5-0.2,0.5-0.5s-0.2-0.5-0.5-0.5s-0.5,0.2-0.5,0.5S316.8,77.2,317.1,77.2z"/>
		<path class="st1" d="M299.1,71.4c0.9,0,1.7-0.8,1.7-1.7S300,68,299.1,68c-0.9,0-1.7,0.8-1.7,1.7S298.2,71.4,299.1,71.4z"/>
		<path class="st2" d="M252.1,25.2c0.3,0,0.5-0.2,0.5-0.5s-0.2-0.5-0.5-0.5s-0.5,0.2-0.5,0.5S251.8,25.2,252.1,25.2z"/>
		<path class="st3" d="M156.6,91.9c-0.8,0-1.4-0.2-2-0.5s-1.1-0.8-1.4-1.5c-0.4-0.6-0.5-1.4-0.5-2.2s0.2-1.6,0.5-2.2
			c0.4-0.6,0.8-1.1,1.4-1.5c0.6-0.3,1.3-0.5,2-0.5c0.8,0,1.4,0.2,2,0.5s1.1,0.8,1.4,1.5c0.4,0.6,0.5,1.4,0.5,2.2s-0.2,1.6-0.5,2.2
			s-0.8,1.1-1.4,1.5C158,91.7,157.3,91.9,156.6,91.9z M156.6,90.8c0.5,0,0.9-0.1,1.3-0.3c0.4-0.2,0.7-0.6,1-1s0.4-1,0.4-1.7
			s-0.1-1.2-0.4-1.7c-0.2-0.4-0.6-0.8-0.9-1c-0.4-0.2-0.8-0.3-1.3-0.3s-0.9,0.1-1.3,0.3c-0.4,0.2-0.7,0.6-1,1s-0.4,1-0.4,1.7
			s0.1,1.2,0.4,1.7c0.2,0.5,0.6,0.8,0.9,1C155.7,90.6,156.1,90.8,156.6,90.8z"/>
		<path class="st3" d="M162.9,91.7v-6.8h-1.2v-1.1h1.2v-1.4c0-0.8,0.2-1.3,0.6-1.7c0.4-0.3,0.9-0.5,1.7-0.5h0.8v1.1h-0.6
			c-0.4,0-0.7,0.1-0.9,0.2s-0.3,0.5-0.3,0.8v1.3h1.9v1.1h-1.9v6.8L162.9,91.7L162.9,91.7z"/>
		<path class="st3" d="M174.9,91.9c-0.9,0-1.7-0.3-2.2-0.9s-0.8-1.5-0.8-2.6v-4.6h1.3v4.5c0,1.7,0.7,2.5,2,2.5
			c0.7,0,1.3-0.2,1.7-0.7s0.7-1.2,0.7-2.1v-4.1h1.3v7.9h-1.2l-0.1-1.4c-0.2,0.5-0.6,0.9-1.1,1.2C176.1,91.8,175.5,91.9,174.9,91.9z"
			/>
		<path class="st3" d="M181.2,91.7v-7.9h1.2l0.1,1.4c0.3-0.5,0.6-0.9,1.1-1.2s1-0.4,1.6-0.4c0.9,0,1.7,0.3,2.2,0.9
			c0.6,0.6,0.8,1.5,0.8,2.6v4.6h-1.3v-4.5c0-1.7-0.7-2.5-2-2.5c-0.7,0-1.2,0.2-1.7,0.7c-0.4,0.5-0.7,1.2-0.7,2.1v4.1L181.2,91.7
			L181.2,91.7z"/>
		<path class="st3" d="M191.1,82c-0.3,0-0.5-0.1-0.7-0.3s-0.3-0.4-0.3-0.7s0.1-0.5,0.3-0.6c0.2-0.2,0.4-0.3,0.7-0.3s0.5,0.1,0.7,0.3
			s0.3,0.4,0.3,0.6c0,0.3-0.1,0.5-0.3,0.7C191.6,81.9,191.4,82,191.1,82z M190.5,91.7v-7.9h1.3v7.9H190.5z"/>
		<path class="st3" d="M201.4,91.9c-0.9,0-1.7-0.2-2.4-0.7c-0.6-0.5-1-1.1-1.1-2h1.4c0.1,0.4,0.3,0.8,0.7,1.1s0.8,0.5,1.4,0.5
			c0.6,0,1-0.1,1.2-0.4c0.3-0.2,0.4-0.5,0.4-0.9c0-0.5-0.2-0.8-0.5-1s-0.8-0.3-1.5-0.4c-0.4-0.1-0.9-0.2-1.3-0.4
			c-0.4-0.2-0.8-0.4-1.1-0.7s-0.4-0.7-0.4-1.2c0-0.7,0.3-1.3,0.8-1.7s1.2-0.7,2.1-0.7c0.8,0,1.5,0.2,2.1,0.6c0.5,0.4,0.8,1,0.9,1.8
			h-1.2c-0.1-0.4-0.2-0.7-0.5-1c-0.3-0.2-0.7-0.3-1.2-0.3s-0.8,0.1-1.1,0.3s-0.4,0.5-0.4,0.8s0.2,0.6,0.5,0.8s0.8,0.3,1.4,0.5
			c0.5,0.1,1,0.2,1.4,0.4c0.4,0.1,0.8,0.4,1.1,0.7s0.4,0.7,0.4,1.3c0,0.7-0.3,1.3-0.8,1.8C203.1,91.7,202.4,91.9,201.4,91.9z"/>
		<path class="st3" d="M209.2,91.7c-0.7,0-1.3-0.2-1.7-0.5c-0.4-0.4-0.6-1-0.6-1.9v-4.4h-1.4v-1.1h1.4l0.2-1.9h1.2v1.9h2.3v1.1h-2.3
			v4.4c0,0.5,0.1,0.8,0.3,1s0.6,0.3,1.1,0.3h0.8v1.2L209.2,91.7L209.2,91.7z"/>
		<path class="st3" d="M215.1,91.9c-0.9,0-1.7-0.3-2.2-0.9s-0.8-1.5-0.8-2.6v-4.6h1.3v4.5c0,1.7,0.7,2.5,2,2.5
			c0.7,0,1.3-0.2,1.7-0.7s0.7-1.2,0.7-2.1v-4.1h1.3v7.9h-1.2l-0.1-1.4c-0.2,0.5-0.6,0.9-1.1,1.2C216.3,91.8,215.7,91.9,215.1,91.9z"
			/>
		<path class="st3" d="M225,91.9c-0.8,0-1.5-0.2-2.1-0.5c-0.6-0.4-1.1-0.9-1.4-1.5c-0.3-0.6-0.5-1.3-0.5-2.1s0.2-1.5,0.5-2.1
			s0.8-1.1,1.4-1.5c0.6-0.4,1.3-0.5,2.1-0.5c0.7,0,1.2,0.1,1.7,0.4s0.9,0.6,1.2,1.1v-4.9h1.3v11.5H228l-0.1-1.3
			c-0.3,0.4-0.6,0.7-1.1,1S225.7,91.9,225,91.9z M225.1,90.7c0.5,0,1-0.1,1.4-0.4c0.4-0.2,0.7-0.6,1-1c0.2-0.5,0.3-1,0.3-1.6
			s-0.1-1.1-0.3-1.6s-0.6-0.8-1-1s-0.9-0.4-1.4-0.4s-1,0.1-1.4,0.4s-0.7,0.6-1,1c-0.2,0.5-0.3,1-0.3,1.6s0.1,1.1,0.3,1.6
			c0.2,0.4,0.5,0.8,1,1S224.6,90.7,225.1,90.7z"/>
		<path class="st3" d="M235,91.9c-0.8,0-1.4-0.2-2-0.5s-1-0.8-1.4-1.4c-0.3-0.6-0.5-1.4-0.5-2.2s0.2-1.6,0.5-2.2s0.8-1.1,1.4-1.5
			s1.3-0.5,2.1-0.5s1.4,0.2,2,0.5s1,0.8,1.3,1.4s0.5,1.2,0.5,1.8c0,0.1,0,0.2,0,0.3s0,0.2,0,0.4h-6.3c0,0.6,0.2,1.1,0.4,1.5
			s0.6,0.7,0.9,0.9c0.4,0.2,0.8,0.3,1.2,0.3c0.6,0,1-0.1,1.4-0.4s0.6-0.6,0.8-1h1.3c-0.2,0.7-0.6,1.4-1.2,1.8
			C236.7,91.7,235.9,91.9,235,91.9z M235,84.7c-0.6,0-1.2,0.2-1.7,0.6s-0.8,1-0.9,1.7h5c0-0.7-0.3-1.3-0.7-1.7
			C236.2,84.9,235.7,84.7,235,84.7z"/>
		<path class="st3" d="M240.5,91.7v-7.9h1.2l0.1,1.4c0.3-0.5,0.6-0.9,1.1-1.2s1-0.4,1.6-0.4c0.9,0,1.7,0.3,2.2,0.9
			c0.6,0.6,0.8,1.5,0.8,2.6v4.6h-1.3v-4.5c0-1.7-0.7-2.5-2-2.5c-0.7,0-1.2,0.2-1.7,0.7c-0.4,0.5-0.7,1.2-0.7,2.1v4.1L240.5,91.7
			L240.5,91.7z"/>
		<path class="st3" d="M252.8,91.7c-0.7,0-1.3-0.2-1.7-0.5c-0.4-0.4-0.6-1-0.6-1.9v-4.4h-1.4v-1.1h1.4l0.2-1.9h1.2v1.9h2.3v1.1h-2.3
			v4.4c0,0.5,0.1,0.8,0.3,1c0.2,0.2,0.6,0.3,1.1,0.3h0.8v1.2L252.8,91.7L252.8,91.7z"/>
		<path class="st3" d="M258.9,91.9c-1,0-1.7-0.2-2.4-0.7c-0.6-0.5-1-1.1-1.1-2h1.4c0.1,0.4,0.3,0.8,0.7,1.1c0.4,0.3,0.8,0.5,1.4,0.5
			s1-0.1,1.2-0.4c0.3-0.2,0.4-0.5,0.4-0.9c0-0.5-0.2-0.8-0.5-1s-0.8-0.3-1.5-0.4c-0.4-0.1-0.9-0.2-1.3-0.4s-0.8-0.4-1.1-0.7
			c-0.3-0.3-0.4-0.7-0.4-1.2c0-0.7,0.3-1.3,0.8-1.7s1.2-0.7,2.1-0.7c0.8,0,1.5,0.2,2.1,0.6c0.5,0.4,0.9,1,0.9,1.8h-1.3
			c0-0.4-0.2-0.7-0.5-1c-0.3-0.2-0.7-0.3-1.2-0.3s-0.8,0.1-1.1,0.3s-0.4,0.5-0.4,0.8s0.2,0.6,0.5,0.8s0.8,0.3,1.4,0.5
			c0.5,0.1,1,0.2,1.4,0.4c0.4,0.1,0.8,0.4,1.1,0.7c0.3,0.3,0.4,0.7,0.4,1.3c0,0.7-0.3,1.3-0.8,1.8C260.6,91.7,259.8,91.9,258.9,91.9
			z"/>
		<path class="st3" d="M153,111.7v-7.9h1.2l0.1,1.5c0.2-0.5,0.6-0.9,1.1-1.2s1.1-0.5,1.9-0.5v1.4h-0.4c-0.5,0-0.9,0.1-1.3,0.2
			c-0.4,0.2-0.7,0.4-0.9,0.8s-0.4,0.9-0.4,1.6v4H153V111.7z"/>
		<path class="st3" d="M162,111.9c-0.8,0-1.4-0.2-2-0.5s-1-0.8-1.4-1.4c-0.3-0.6-0.5-1.4-0.5-2.2s0.2-1.6,0.5-2.2s0.8-1.1,1.4-1.5
			c0.6-0.4,1.3-0.5,2.1-0.5s1.4,0.2,2,0.5s1,0.8,1.3,1.4s0.4,1.2,0.4,1.8c0,0.1,0,0.2,0,0.3s0,0.2,0,0.4h-6.3c0,0.6,0.2,1.1,0.4,1.5
			s0.6,0.7,0.9,0.9c0.4,0.2,0.8,0.3,1.2,0.3c0.6,0,1-0.1,1.4-0.4s0.6-0.6,0.8-1h1.3c-0.2,0.7-0.6,1.4-1.2,1.8
			C163.8,111.7,163,111.9,162,111.9z M162,104.7c-0.6,0-1.2,0.2-1.7,0.6s-0.8,1-0.9,1.7h5c0-0.7-0.3-1.3-0.7-1.7
			C163.3,104.9,162.7,104.7,162,104.7z"/>
		<path class="st3" d="M167.6,115.2v-11.5h1.2l0.1,1.3c0.3-0.4,0.6-0.7,1.1-1s1.1-0.5,1.8-0.5c0.8,0,1.5,0.2,2.1,0.5
			c0.6,0.4,1,0.9,1.4,1.5s0.5,1.3,0.5,2.1s-0.2,1.5-0.5,2.1s-0.8,1.1-1.4,1.5c-0.6,0.4-1.3,0.5-2.1,0.5c-0.6,0-1.2-0.1-1.7-0.4
			s-0.9-0.6-1.2-1.1v4.9h-1.3L167.6,115.2L167.6,115.2z M171.7,110.7c0.5,0,1-0.1,1.4-0.4c0.4-0.2,0.7-0.6,1-1
			c0.2-0.5,0.4-1,0.4-1.6s-0.1-1.1-0.4-1.6s-0.6-0.8-1-1s-0.9-0.4-1.4-0.4s-1,0.1-1.4,0.4s-0.7,0.6-1,1c-0.2,0.5-0.3,1-0.3,1.6
			s0.1,1.1,0.3,1.6c0.2,0.4,0.6,0.8,1,1S171.1,110.7,171.7,110.7z"/>
		<path class="st3" d="M181.2,111.9c-0.8,0-1.4-0.2-2-0.5s-1.1-0.8-1.4-1.5c-0.3-0.6-0.5-1.4-0.5-2.2s0.2-1.6,0.5-2.2
			s0.8-1.1,1.4-1.5c0.6-0.3,1.3-0.5,2-0.5c0.8,0,1.4,0.2,2,0.5s1.1,0.8,1.4,1.5c0.3,0.6,0.5,1.4,0.5,2.2s-0.2,1.6-0.5,2.2
			s-0.8,1.1-1.4,1.5C182.7,111.7,182,111.9,181.2,111.9z M181.2,110.8c0.5,0,0.9-0.1,1.3-0.3c0.4-0.2,0.7-0.6,1-1s0.4-1,0.4-1.7
			s-0.1-1.2-0.4-1.7c-0.2-0.4-0.6-0.8-0.9-1c-0.4-0.2-0.8-0.3-1.3-0.3s-0.9,0.1-1.3,0.3c-0.4,0.2-0.7,0.6-1,1s-0.4,1-0.4,1.7
			s0.1,1.2,0.4,1.7c0.2,0.5,0.6,0.8,0.9,1C180.4,110.6,180.8,110.8,181.2,110.8z"/>
		<path class="st3" d="M187.1,111.7v-7.9h1.2l0.1,1.5c0.2-0.5,0.6-0.9,1.1-1.2s1.1-0.5,1.9-0.5v1.4H191c-0.5,0-0.9,0.1-1.3,0.2
			c-0.4,0.2-0.7,0.4-0.9,0.8s-0.3,0.9-0.3,1.6v4h-1.4L187.1,111.7L187.1,111.7z"/>
		<path class="st3" d="M196,111.7c-0.7,0-1.3-0.2-1.7-0.5c-0.4-0.4-0.6-1-0.6-1.9v-4.4h-1.4v-1.1h1.4l0.2-1.9h1.2v1.9h2.3v1.1h-2.3
			v4.4c0,0.5,0.1,0.8,0.3,1s0.6,0.3,1.1,0.3h0.8v1.2L196,111.7L196,111.7z"/>
		<path class="st3" d="M203.3,115.2v-11.5h1.2l0.1,1.3c0.3-0.4,0.6-0.7,1.1-1s1.1-0.5,1.8-0.5c0.8,0,1.5,0.2,2.1,0.5
			c0.6,0.4,1,0.9,1.4,1.5s0.5,1.3,0.5,2.1s-0.2,1.5-0.5,2.1s-0.8,1.1-1.4,1.5c-0.6,0.4-1.3,0.5-2.1,0.5c-0.7,0-1.2-0.1-1.7-0.4
			s-0.9-0.6-1.2-1.1v4.9h-1.3L203.3,115.2L203.3,115.2z M207.4,110.7c0.5,0,1-0.1,1.4-0.4s0.7-0.6,1-1c0.2-0.5,0.4-1,0.4-1.6
			s-0.1-1.1-0.4-1.6c-0.2-0.5-0.5-0.8-1-1s-0.9-0.4-1.4-0.4s-1,0.1-1.4,0.4c-0.4,0.2-0.7,0.6-1,1c-0.2,0.5-0.4,1-0.4,1.6
			s0.1,1.1,0.4,1.6c0.2,0.4,0.6,0.8,1,1C206.4,110.6,206.9,110.7,207.4,110.7z"/>
		<path class="st3" d="M217,111.9c-0.8,0-1.4-0.2-2-0.5s-1.1-0.8-1.4-1.5c-0.4-0.6-0.5-1.4-0.5-2.2s0.2-1.6,0.5-2.2
			c0.4-0.6,0.8-1.1,1.4-1.5c0.6-0.3,1.3-0.5,2-0.5c0.8,0,1.4,0.2,2,0.5s1.1,0.8,1.4,1.5c0.4,0.6,0.5,1.4,0.5,2.2s-0.2,1.6-0.5,2.2
			c-0.4,0.6-0.8,1.1-1.4,1.5C218.4,111.7,217.8,111.9,217,111.9z M217,110.8c0.5,0,0.9-0.1,1.3-0.3c0.4-0.2,0.7-0.6,1-1
			s0.4-1,0.4-1.7s-0.1-1.2-0.4-1.7c-0.2-0.4-0.6-0.8-1-1s-0.8-0.3-1.3-0.3s-0.9,0.1-1.3,0.3c-0.4,0.2-0.7,0.6-1,1s-0.4,1-0.4,1.7
			s0.1,1.2,0.4,1.7c0.2,0.5,0.6,0.8,1,1C216.1,110.6,216.5,110.8,217,110.8z"/>
		<path class="st3" d="M226.5,111.9c-0.8,0-1.4-0.2-2-0.5s-1.1-0.8-1.4-1.5c-0.4-0.6-0.5-1.4-0.5-2.2s0.2-1.6,0.5-2.2
			s0.8-1.1,1.4-1.5c0.6-0.3,1.3-0.5,2-0.5c0.8,0,1.4,0.2,2,0.5s1.1,0.8,1.4,1.5c0.4,0.6,0.5,1.4,0.5,2.2s-0.2,1.6-0.5,2.2
			c-0.4,0.6-0.8,1.1-1.4,1.5C227.9,111.7,227.2,111.9,226.5,111.9z M226.5,110.8c0.5,0,0.9-0.1,1.3-0.3c0.4-0.2,0.7-0.6,1-1
			s0.4-1,0.4-1.7s-0.1-1.2-0.4-1.7c-0.2-0.4-0.6-0.8-1-1s-0.8-0.3-1.3-0.3s-0.9,0.1-1.3,0.3c-0.4,0.2-0.7,0.6-1,1s-0.4,1-0.4,1.7
			s0.1,1.2,0.4,1.7c0.2,0.5,0.6,0.8,1,1C225.6,110.6,226,110.8,226.5,110.8z"/>
		<path class="st3" d="M232.3,111.7v-7.9h1.2l0.1,1.5c0.2-0.5,0.6-0.9,1.1-1.2s1.1-0.5,1.9-0.5v1.4h-0.4c-0.5,0-0.9,0.1-1.3,0.2
			c-0.4,0.2-0.7,0.4-0.9,0.8s-0.4,0.9-0.4,1.6v4h-1.3L232.3,111.7L232.3,111.7z"/>
		<path class="st3" d="M156,131.9c-0.9,0-1.7-0.2-2.4-0.7c-0.6-0.5-1-1.1-1.1-2h1.4c0.1,0.4,0.3,0.8,0.7,1.1s0.8,0.5,1.5,0.5
			c0.6,0,1-0.1,1.2-0.4c0.3-0.2,0.4-0.5,0.4-0.9c0-0.5-0.2-0.8-0.5-1s-0.8-0.3-1.5-0.4c-0.4-0.1-0.9-0.2-1.3-0.4
			c-0.4-0.2-0.8-0.4-1.1-0.7s-0.4-0.7-0.4-1.2c0-0.7,0.3-1.3,0.8-1.7s1.2-0.7,2.1-0.7c0.8,0,1.5,0.2,2.1,0.6c0.5,0.4,0.9,1,0.9,1.8
			h-1.3c-0.1-0.4-0.2-0.7-0.5-1c-0.3-0.2-0.7-0.3-1.2-0.3s-0.9,0.1-1.1,0.3c-0.3,0.2-0.4,0.5-0.4,0.8s0.2,0.6,0.5,0.8
			s0.8,0.3,1.4,0.5c0.5,0.1,1,0.2,1.4,0.4c0.4,0.1,0.8,0.4,1.1,0.7c0.3,0.3,0.4,0.7,0.4,1.3c0,0.7-0.3,1.3-0.8,1.8
			C157.7,131.7,157,131.9,156,131.9z"/>
		<path class="st3" d="M161,131.7v-11.5h1.3v11.5H161z"/>
		<path class="st3" d="M168.1,131.9c-0.8,0-1.4-0.2-2-0.5s-1.1-0.8-1.4-1.4c-0.3-0.6-0.5-1.4-0.5-2.2c0-0.8,0.2-1.6,0.5-2.2
			c0.3-0.6,0.8-1.1,1.4-1.5c0.6-0.4,1.3-0.5,2.1-0.5s1.4,0.2,2,0.5s1,0.8,1.3,1.4c0.3,0.6,0.5,1.2,0.5,1.8c0,0.1,0,0.2,0,0.3
			s0,0.2,0,0.4h-6.3c0,0.6,0.2,1.1,0.4,1.5s0.6,0.7,0.9,0.9c0.4,0.2,0.8,0.3,1.2,0.3c0.6,0,1-0.1,1.4-0.4c0.4-0.3,0.6-0.6,0.8-1h1.3
			c-0.2,0.7-0.6,1.4-1.2,1.8C169.8,131.7,169,131.9,168.1,131.9z M168.1,124.7c-0.6,0-1.2,0.2-1.7,0.6c-0.5,0.4-0.8,1-0.9,1.7h5
			c0-0.7-0.3-1.3-0.7-1.7C169.3,124.9,168.8,124.7,168.1,124.7z"/>
		<path class="st3" d="M177.2,131.9c-0.8,0-1.4-0.2-2-0.5s-1.1-0.8-1.4-1.4c-0.3-0.6-0.5-1.4-0.5-2.2c0-0.8,0.2-1.6,0.5-2.2
			c0.3-0.6,0.8-1.1,1.4-1.5c0.6-0.4,1.3-0.5,2.1-0.5s1.4,0.2,2,0.5s1,0.8,1.3,1.4s0.4,1.2,0.4,1.8c0,0.1,0,0.2,0,0.3s0,0.2,0,0.4
			h-6.3c0,0.6,0.2,1.1,0.4,1.5s0.6,0.7,0.9,0.9c0.4,0.2,0.8,0.3,1.2,0.3c0.6,0,1-0.1,1.4-0.4c0.4-0.3,0.7-0.6,0.8-1h1.3
			c-0.2,0.7-0.6,1.4-1.2,1.8C178.9,131.7,178.1,131.9,177.2,131.9z M177.2,124.7c-0.6,0-1.2,0.2-1.7,0.6c-0.5,0.4-0.8,1-0.9,1.7h5
			c0-0.7-0.3-1.3-0.7-1.7C178.4,124.9,177.9,124.7,177.2,124.7z"/>
		<path class="st3" d="M182.7,135.2v-11.5h1.2l0.1,1.3c0.3-0.4,0.6-0.7,1.1-1s1.1-0.5,1.8-0.5c0.8,0,1.5,0.2,2.1,0.5
			c0.6,0.4,1,0.9,1.4,1.5s0.5,1.3,0.5,2.1c0,0.8-0.2,1.5-0.5,2.1s-0.8,1.1-1.4,1.5c-0.6,0.4-1.3,0.5-2.1,0.5c-0.7,0-1.2-0.1-1.7-0.4
			c-0.5-0.3-0.9-0.6-1.2-1.1v4.9h-1.3L182.7,135.2L182.7,135.2z M186.8,130.7c0.5,0,1-0.1,1.4-0.4s0.7-0.6,1-1
			c0.2-0.5,0.4-1,0.4-1.6c0-0.6-0.1-1.1-0.4-1.6c-0.2-0.5-0.5-0.8-1-1s-0.9-0.4-1.4-0.4s-1,0.1-1.4,0.4c-0.4,0.2-0.7,0.6-1,1
			s-0.4,1-0.4,1.6c0,0.6,0.1,1.1,0.4,1.6c0.2,0.4,0.6,0.8,1,1C185.8,130.6,186.3,130.7,186.8,130.7z"/>
		<path class="st3" d="M203.5,135.2v-4.8c-0.3,0.4-0.6,0.7-1.1,1s-1.1,0.5-1.8,0.5c-0.8,0-1.5-0.2-2.1-0.5c-0.6-0.4-1-0.9-1.4-1.5
			c-0.3-0.6-0.5-1.3-0.5-2.1c0-0.8,0.2-1.5,0.5-2.1s0.8-1.1,1.4-1.5c0.6-0.4,1.3-0.5,2.1-0.5c0.6,0,1.2,0.1,1.7,0.4
			c0.5,0.3,0.9,0.6,1.2,1.1l0.1-1.3h1.2v11.5h-1.3L203.5,135.2L203.5,135.2z M200.8,130.7c0.5,0,1-0.1,1.4-0.4s0.7-0.6,1-1
			c0.2-0.5,0.3-1,0.3-1.6c0-0.6-0.1-1.1-0.3-1.6s-0.6-0.8-1-1s-0.9-0.4-1.4-0.4s-1,0.1-1.4,0.4c-0.4,0.2-0.7,0.6-1,1s-0.3,1-0.3,1.6
			c0,0.6,0.1,1.1,0.3,1.6c0.2,0.4,0.6,0.8,1,1C199.8,130.6,200.2,130.7,200.8,130.7z"/>
		<path class="st3" d="M210,131.9c-0.9,0-1.7-0.3-2.2-0.9c-0.6-0.6-0.8-1.5-0.8-2.6v-4.6h1.3v4.5c0,1.7,0.7,2.5,2,2.5
			c0.7,0,1.3-0.2,1.7-0.7s0.7-1.2,0.7-2.1v-4.1h1.3v7.9h-1.2l-0.1-1.4c-0.2,0.5-0.6,0.9-1.1,1.2C211.1,131.8,210.6,131.9,210,131.9z
			"/>
		<path class="st3" d="M218.9,131.9c-0.7,0-1.2-0.1-1.7-0.3c-0.4-0.2-0.8-0.5-1-0.9s-0.3-0.8-0.3-1.2c0-0.8,0.3-1.4,0.9-1.9
			c0.6-0.5,1.5-0.7,2.5-0.7h2.1v-0.1c0-0.7-0.2-1.2-0.5-1.6c-0.4-0.4-0.9-0.5-1.5-0.5c-0.5,0-1,0.1-1.4,0.4
			c-0.4,0.3-0.6,0.6-0.7,1.1h-1.4c0.1-0.6,0.2-1.1,0.6-1.5c0.3-0.4,0.8-0.7,1.3-0.9s1-0.3,1.6-0.3c1.1,0,1.9,0.3,2.5,0.9
			c0.6,0.6,0.8,1.4,0.8,2.4v4.9h-1.2l-0.1-1.4c-0.2,0.5-0.6,0.8-1,1.1C220.2,131.8,219.6,131.9,218.9,131.9z M219.1,130.8
			c0.5,0,0.9-0.1,1.3-0.4c0.4-0.3,0.7-0.6,0.8-1c0.2-0.4,0.3-0.9,0.3-1.3l0,0h-2c-0.8,0-1.4,0.1-1.7,0.4c-0.3,0.3-0.5,0.6-0.5,1
			s0.2,0.8,0.5,1C218.1,130.6,218.5,130.8,219.1,130.8z"/>
		<path class="st3" d="M224.9,131.7v-11.5h1.3v11.5H224.9z"/>
		<path class="st3" d="M229.2,122c-0.3,0-0.5-0.1-0.7-0.3s-0.3-0.4-0.3-0.7s0.1-0.5,0.3-0.6c0.2-0.2,0.4-0.3,0.7-0.3
			s0.5,0.1,0.7,0.3s0.3,0.4,0.3,0.6c0,0.3-0.1,0.5-0.3,0.7C229.7,121.9,229.5,122,229.2,122z M228.6,131.7v-7.9h1.3v7.9H228.6z"/>
		<path class="st3" d="M235.4,131.7c-0.7,0-1.3-0.2-1.7-0.5c-0.4-0.4-0.6-1-0.6-1.9v-4.4h-1.4v-1.1h1.4l0.2-1.9h1.2v1.9h2.3v1.1
			h-2.3v4.4c0,0.5,0.1,0.8,0.3,1s0.6,0.3,1.1,0.3h0.8v1.2L235.4,131.7L235.4,131.7z"/>
		<path class="st3" d="M239.3,135.2l2-4.3h-0.5l-3.1-7.2h1.5l2.6,6.2l2.8-6.2h1.4l-5.2,11.5H239.3z"/>
		<path class="st3" d="M246.7,131.8c-0.3,0-0.5-0.1-0.7-0.3s-0.3-0.4-0.3-0.7s0.1-0.5,0.3-0.6c0.2-0.2,0.4-0.3,0.7-0.3
			c0.3,0,0.5,0.1,0.6,0.3c0.2,0.2,0.3,0.4,0.3,0.6c0,0.3-0.1,0.5-0.3,0.7C247.1,131.7,246.9,131.8,246.7,131.8z"/>
		<path class="st0" d="M167,39.3c-0.2,0.2-0.7,0.7-1.5,1.4c-0.6,0.6-1.1,1.1-1.4,1.5c0.7,0,1.6,0,2.6,0.1c0.9,0.1,1.5,0.2,1.8,0.2
			c0.4,0,0.6,0,0.7,0h0.1c1-0.3,1.6-0.4,2-0.2c0.2,0.1,0.1,0.3-0.2,0.6c-0.2,0.2-0.5,0.3-0.7,0.4c-1.5,0.5-3.1,0.7-4.9,0.5
			c-1.3-0.1-1.9-0.2-2-0.2c-0.7,0-1.2,0-1.6,0.1c-0.2,0-0.5,0-0.8,0c-0.5,0-0.6-0.1-0.5-0.3c0.2-0.3,0.4-0.5,0.6-0.8
			c0.4-0.5,0.9-1,1.7-1.7c0.9-0.8,1.4-1.4,1.7-1.7c1.2-1.2,2.1-2.4,2.9-3.4c0.9-1.3,1.7-2.6,2.2-3.9c0.8-1.8,1.2-3.2,1.2-4.2
			c0.1-1.4-0.2-2.3-0.9-2.8c0,0,0,0-0.1,0c-0.3,0.2-0.5,0.5-0.7,0.8c-1.3,1.7-2.2,4.1-2.7,7.1c0,0.1-0.2,0.3-0.7,0.5
			c-0.4,0.2-0.8,0.3-1.2,0.4c-0.9,0.2-1.4,0.1-1.3-0.3c0.3-1.5,0.7-2.9,1.1-4.1c0.6-1.4,1.2-2.5,2-3.4c1.1-1.2,2.5-2,4.2-2.3
			c1.6-0.2,2.6,0.1,3.2,1.2c0.5,0.9,0.6,2,0.3,3.2c-0.6,2.8-1.9,5.5-3.9,8.1C169.1,37,168.1,38.1,167,39.3z M169.2,42.5
			C169.3,42.5,169.3,42.5,169.2,42.5C169.3,42.5,169.3,42.5,169.2,42.5z"/>
		<path class="st0" d="M195.1,48.1c-0.8,1.7-1.7,2.9-2.6,3.8l0,0c0.6,0.3,0.9,1,1.2,2c0.2,0.9,0.1,1.8-0.3,2.7
			c-0.4,0.9-0.9,1.6-1.6,2.3c-1,0.9-2.2,1.5-3.6,1.7c-1.3,0.2-2.2,0.1-2.9-0.3c-0.7-0.5-1.1-1.1-1.2-2c-0.1-0.8,0.1-1.6,0.6-2.3
			c0.3-0.4,0.9-0.7,1.9-0.9c0.2,0,0.5-0.1,0.8,0c0.5,0,0.6,0.1,0.5,0.3c-0.8,1.2-0.8,2.3-0.2,3.2c0.2,0.3,0.5,0.5,0.8,0.7
			c0,0,0.1-0.1,0.2-0.2c1-1,1.6-2,1.6-3.3c0-0.6-0.1-1.2-0.3-1.9c-0.1-0.3-0.2-0.5-0.3-0.7c-0.3,0.1-0.6,0.1-0.9,0.1
			c-0.2,0-0.4,0-0.5-0.1s-0.1-0.2,0.1-0.4c0.2-0.2,0.5-0.3,0.7-0.5c1.3-1.1,2.4-2.8,3.3-5.1c1-2.7,1.1-4.6,0.3-6
			c-0.2-0.4-0.5-0.7-0.8-0.9c-0.3,0.3-0.5,0.5-0.7,0.8c-1.4,1.9-1.9,3.6-1.7,4.9c0.1,0.4-0.4,0.7-1.5,1s-1.7,0.2-1.8-0.1
			c-0.2-1,0.1-2.1,0.7-3.6c1.1-2.3,2.7-3.8,4.8-4.3c1.5-0.4,2.6-0.3,3.4,0.2c0.8,0.6,1.2,1.3,1.4,2.3
			C196.7,43.6,196.3,45.7,195.1,48.1z"/>
		<path class="st0" d="M172.8,61v-2c0-1.8,0.2-1.4,0.3-3.3l0.3-1.8c0.2-0.6,0.4-0.9,0.5-1.5c2.7-8.8,5.4-20,8.2-29
			c0.6-2.1,1.3-3.7,1.8-4.7c0.3,0.2,0.7,2.3,0.7,3.6c0,2-0.2,1.4-0.4,3.5c-0.1,0.2-0.4,0.9-0.7,2c-2.2,6.9-7.8,29.5-9.3,34.1
			C173.7,63.9,172.8,63,172.8,61z"/>
		<path class="st4" d="M68.4,61l-4.3,1.8c-0.5,0.2-0.7,0.8-0.5,1.3l0,0c0.3,0.6,1,0.8,1.6,0.4l4.6-3.2L68.4,61z"/>
		<path class="st4" d="M67.7,59.1h-4.6c-0.5,0-1,0.4-0.9,1l0,0c0,0.7,0.6,1.1,1.3,1L69,60L67.7,59.1z"/>
		<path class="st4" d="M80.5,58.8h4.6c0.5,0,1-0.4,1-1l0,0c0-0.7-0.6-1.2-1.2-1l-5.5,1.1L80.5,58.8z"/>
		<path class="st4" d="M78.7,61.7l3.8,2.7c0.4,0.3,1,0.2,1.3-0.2l0,0c0.4-0.6,0.2-1.3-0.5-1.5l-5.1-2.2L78.7,61.7z"/>
		<path class="st4" d="M100.1,70.8L96,68.7c-0.5-0.2-1.1-0.1-1.3,0.4l0,0c-0.3,0.6,0,1.3,0.7,1.5l5.4,1.5L100.1,70.8z"/>
		<path class="st4" d="M101.1,69.1l-2.9-3.6c-0.3-0.4-1-0.5-1.4-0.1l0,0c-0.5,0.4-0.5,1.2,0,1.6l4.3,3.5V69.1z"/>
		<path class="st4" d="M109.5,78.7l2.9,3.6c0.3,0.4,0.9,0.5,1.4,0.1l0,0c0.5-0.5,0.5-1.2,0-1.6l-4.3-3.5V78.7z"/>
		<path class="st4" d="M106.2,79.1l0.3,4.6c0,0.5,0.5,0.9,1,0.9h0.1c0.7-0.1,1.1-0.7,0.9-1.3l-1.5-5.4L106.2,79.1z"/>
		<path class="st4" d="M40.2,81.9l-2.5,3.3c-0.3,0.4-0.2,0.9,0.2,1.2l0,0c0.5,0.4,1.1,0.2,1.4-0.4l2.1-4.5L40.2,81.9z"/>
		<path class="st4" d="M38.8,80.8l-3.6,2.1c-0.4,0.2-0.5,0.8-0.3,1.2l0,0c0.3,0.5,1,0.6,1.4,0.2l3.7-3.4L38.8,80.8z"/>
		<path class="st4" d="M48.6,74.7l3.6-2.1c0.4-0.2,0.6-0.8,0.3-1.2l0,0c-0.3-0.5-1-0.6-1.4-0.2l-3.8,3.3L48.6,74.7z"/>
		<path class="st4" d="M48.5,77.7l4.2,0.4c0.5,0,0.9-0.3,0.9-0.8l0,0c0-0.6-0.4-1.1-1.1-1l-5,0.6L48.5,77.7z"/>
		<path class="st5" d="M40.9,83c-1.2,0.2-2-0.1-2.4-1.3c-1.9,2-5.1-0.9-3.1-2.7c-0.9-0.9-0.9-1.8,0.1-2.7C35,75,35.2,74,36.8,73.8
			c-0.2-1.9,0.5-2.6,2.3-2.1c0.3-1.7,1.2-2.2,2.6-1.4c0.6-1.2,1.3-1.5,2.2-0.7l1.2-0.6c-0.2-0.2-0.4-0.5-0.5-0.8
			c-0.1,0-0.1,0.1-0.2,0.1c-0.7,0.2-1.4,0.1-1.6-0.3s0.3-1,1-1.3c0.4-0.2,0.8-0.2,1.1-0.1c0.6-0.7,2-1.1,3.4-0.9
			c1.9,0.3,3.2,1.6,3,2.8c-0.1,1-1.4,1.7-2.9,1.7c1.2,1,1,1.7,0.3,2.5c1,0.3,1.2,0.9,0.6,1.7c1.2,0.1,1.1,1.6-0.1,2.4
			c0.3,0.5-1.1,2.6-1.7,2.6c0.2,1-0.4,1.8-1.6,1.2c0,1.2-0.5,1.8-1.8,1.1l-1.7,0.7L40.9,83z"/>
		<path class="st5" d="M68.4,62.5c-1.2-0.5-1.8-1.2-1.5-2.5c-3,0.9-4.4-3.7-1.5-4.3c-0.4-1.4,0.1-2.2,1.6-2.5c0.3-1.5,1-2.4,2.6-1.7
			c0.9-1.9,2-2.2,3.3-0.7c1.2-1.4,2.3-1.4,3.3,0.1c1.2-0.9,2-0.7,2.5,0.5l1.4,0.1c-0.1-0.4-0.2-0.7-0.1-1c-0.1,0-0.2,0-0.3,0
			c-0.8-0.2-1.4-0.7-1.3-1.2s0.8-0.8,1.7-0.7c0.5,0,0.9,0.3,1.1,0.5c1-0.4,2.5,0,3.8,1.1c1.6,1.4,2.2,3.3,1.3,4.3
			c-0.7,0.9-2.2,0.8-3.7,0c0.6,1.6,0,2.2-1.1,2.5c0.8,0.9,0.6,1.5-0.3,2c1.1,0.8,0.1,2.1-1.4,2.3c0,0.6-2.6,1.9-3.1,1.6
			c-0.3,1.1-1.4,1.5-2.2,0.3c-0.7,1.1-1.4,1.5-2.3,0l-2-0.2L68.4,62.5z"/>
		<path class="st5" d="M99,71.7c-0.5-1.3-0.2-2.2,1-2.8c-2.5-1.7,0.1-5.7,2.4-3.9c0.8-1.2,1.8-1.3,2.9-0.4c1.3-0.7,2.4-0.8,3,0.9
			c2-0.5,3,0.1,2.7,2.1c1.9,0.1,2.6,0.9,2,2.6c1.4,0.4,1.8,1.2,1.2,2.2l0.9,1.2c0.2-0.3,0.5-0.6,0.7-0.7c-0.1-0.1-0.1-0.1-0.2-0.2
			c-0.4-0.7-0.4-1.5,0.1-1.8s1.2,0.1,1.6,0.8c0.2,0.4,0.3,0.8,0.3,1.2c0.9,0.6,1.6,2,1.5,3.6c0,2.1-1.2,3.8-2.5,3.8
			c-1.1,0-2.1-1.2-2.3-2.8c-0.9,1.4-1.7,1.4-2.7,0.7c-0.2,1.2-0.8,1.4-1.7,1c0.1,1.4-1.6,1.4-2.7,0.3c-0.5,0.4-3.1-0.8-3.2-1.4
			c-1,0.4-2-0.2-1.6-1.5c-1.3,0.2-2.1-0.2-1.5-1.8l-1.1-1.7L99,71.7z"/>
		<path class="st6" d="M86.5,73.7H64.2c-0.7,0-1.3,0.6-1.3,1.3v2.3c0,0.7,0.6,1.3,1.3,1.3H71c0.7,0,1.3,0.6,1.3,1.3v16.3
			c0,0.7,0.6,1.3,1.3,1.3h3.3c0.7,0,1.3-0.6,1.3-1.3V79.9c0-0.7,0.6-1.3,1.3-1.3h6.8c0.7,0,1.3-0.6,1.3-1.3V75
			C87.9,74.3,87.3,73.7,86.5,73.7z"/>
		<path class="st6" d="M120.6,99.7h-88c-1.1,0-2-0.9-2-2s0.9-2,2-2h88c1.1,0,2,0.9,2,2S121.7,99.7,120.6,99.7z"/>
		<path class="st7" d="M306.3,97.3l0.2,6c0,0.1,0.1,0.2,0.2,0.3l5,3.2c0.2,0.2,0.2,0.5-0.1,0.6l-5.6,2c-0.1,0-0.2,0.1-0.2,0.2
			l-1.5,5.8c-0.1,0.3-0.5,0.4-0.6,0.1l-3.6-4.7c-0.1-0.1-0.2-0.1-0.3-0.1l-6,0.3c-0.3,0-0.5-0.3-0.3-0.6l3.4-4.9
			c0.1-0.1,0.1-0.2,0-0.3l-2.1-5.6c-0.1-0.3,0.1-0.5,0.4-0.5l5.7,1.7c0.1,0,0.2,0,0.3-0.1l4.6-3.8C306,96.8,306.3,97,306.3,97.3z"/>
		<path class="st7" d="M42.3,32.4l2.8,2.2c0,0,0.1,0.1,0.2,0l3.4-1c0.2,0,0.3,0.1,0.3,0.3l-1.3,3.4c0,0.1,0,0.1,0,0.2l2,2.9
			c0.1,0.1,0,0.3-0.2,0.3l-3.6-0.2c-0.1,0-0.1,0-0.2,0.1l-2.2,2.9c-0.1,0.1-0.3,0.1-0.4-0.1l-0.9-3.5c0-0.1-0.1-0.1-0.1-0.2
			l-3.4-1.2c-0.2-0.1-0.2-0.3,0-0.4l3-2c0.1,0,0.1-0.1,0.1-0.2l0.1-3.6C41.9,32.4,42.1,32.3,42.3,32.4z"/>
		<path class="st6" d="M119.6,19.1l1.2,3.4c0,0.1,0.1,0.1,0.2,0.1l3.5,0.9c0.2,0.1,0.2,0.3,0.1,0.4l-2.8,2.2c-0.1,0-0.1,0.1-0.1,0.2
			l0.2,3.6c0,0.2-0.2,0.3-0.3,0.2l-3-2c-0.1,0-0.1,0-0.2,0l-3.3,1.3c-0.2,0.1-0.3-0.1-0.3-0.3l1-3.4c0-0.1,0-0.1,0-0.2l-2.3-2.8
			c-0.1-0.1,0-0.3,0.2-0.4l3.6-0.1c0.1,0,0.1,0,0.2-0.1l1.9-3C119.3,19,119.5,19,119.6,19.1z"/>
		<path class="st7" d="M113.8,113.8l2.9,2.1c0.1,0,0.1,0,0.2,0l3.4-1.2c0.2-0.1,0.3,0.1,0.3,0.3l-1.1,3.4c0,0.1,0,0.1,0,0.2l2.2,2.8
			c0.1,0.1,0,0.3-0.2,0.3h-3.6c-0.1,0-0.1,0-0.2,0.1l-2,3c-0.1,0.2-0.3,0.1-0.4,0l-1.1-3.4c0-0.1-0.1-0.1-0.1-0.1l-3.4-1
			c-0.2,0-0.2-0.3-0.1-0.4l2.9-2.1c0.1,0,0.1-0.1,0.1-0.2l-0.1-3.6C113.4,113.8,113.6,113.7,113.8,113.8z"/>
		<path class="st2" d="M216.5,21.6c0.5-0.6,2.1-0.8,4.7-0.8c2,0,3.2,0.1,3.7,0.2s1.1,0.5,1.7,1.1c0.8,0.8,1.3,1.8,1.3,2.9
			c0,0.8-0.4,2.6-1.1,5.5c-0.7,2.5-1.1,4.6-1.3,6.3c-0.1,0.4-0.1,0.8-0.1,1.3c0,0.6,0.2,0.9,0.8,1.1c2.3,0.7,4.2,3.4,5.6,8.1
			c0.2,0.7,0.3,1.8,0.3,3.3c0,2.6-0.3,5.2-0.9,7.6c-0.3,1.3-0.7,2.2-1,2.7s-0.8,1.1-1.6,1.7c-1.1,1-1.9,1.5-2.3,1.5
			c-0.3,0-0.7,0.2-1.1,0.6s-0.9,0.6-1.5,0.6c-0.1,0-0.2,0-0.5,0c-0.2,0-0.4,0-0.5,0c-4.5-0.7-6.8-1.6-6.8-2.9c0-0.2,0.1-0.5,0.2-0.8
			c0.3-0.6,0.8-1.1,1.7-1.5c0.9-0.5,1.7-0.7,2.5-0.7c2.9-0.1,4.4-2.2,4.4-6.5v-1.1c-0.1-1.9-0.4-3.5-1-4.7c-0.5-1.2-1.2-1.9-2-1.9
			c-0.7-0.1-1.5-0.4-2.5-0.8c-0.9-0.4-1.6-0.8-1.9-1.2c-0.2-0.2-0.2-0.4-0.2-0.8c0-0.3,0.3-1.6,0.9-3.9c1.2-4.4,1.8-8,1.9-10.8
			c0-0.8-0.4-1.3-1.2-1.5c-2.1-0.6-3.1-1.5-3.1-2.9C215.7,22.8,216,22.2,216.5,21.6z"/>
		<path class="st2" d="M159.5,22.9c1-0.5,2.1-0.8,3.2-0.8c2.9,0,4.9,1.2,6.1,3.6c0.4,1,0.7,2.9,0.7,5.7c0,4.4-0.4,8-1.3,10.6
			c-0.6,1.5-1.1,2.9-1.5,4.1c-0.5,1.2-0.9,2.3-1.3,3.4c-0.1,0.2-0.3,1-0.8,2.4s-0.9,2.4-1.1,2.9c-0.6,1.7-0.9,2.8-0.9,3.3
			c0,0.6,0.5,1,1.4,1.1h2.3h0.3c0.8,0,1.7,0.2,2.5,0.8c0.8,0.5,1.3,1,1.5,1.6c0.1,0.5,0.2,0.8,0.2,1c0,1.7-1.9,2.5-5.7,2.5
			c-1.2,0-2.2,0-2.9-0.1c-3-0.2-5-0.4-6.1-0.8c-1.1-0.3-1.8-0.9-2-1.8c-0.1-0.2-0.1-0.4-0.1-0.8c0-1.2,0.9-4,2.8-8.6
			c3.9-9.4,5.8-16.4,5.8-21.1c0-1.5-0.1-2.4-0.2-2.8c-0.1-0.3-0.4-0.6-1-0.7c-3.4-0.7-5.1-1.5-5.1-2.3c0-0.2,0.2-0.6,0.6-1.3
			C157.4,24.3,158.3,23.5,159.5,22.9z"/>
		<path class="st2" d="M180.6,24.9l0.6-0.8h4.2l0.7,0.7c0.4,0.4,0.7,1,0.9,1.6c0.2,0.7,0.3,1.7,0.4,3c0,0.5,0.1,1.3,0.1,2.3
			c0,2.3-0.2,4.4-0.6,6.3c-0.4,1.9-1,3.2-1.7,3.8c-0.2,0.2-0.5,0.4-1,0.6c-0.4,0.2-0.8,0.2-1.1,0.2c-0.1,0-0.2,0-0.3-0.1
			c-0.2-0.1-0.4-0.2-0.7-0.2c-0.2,0-0.5-0.2-0.8-0.6s-0.5-0.8-0.7-1.3c-0.3-0.9-0.5-1.8-0.6-2.9c-0.1-1-0.2-2.7-0.2-5.1v-1.6
			c0-2.1,0.1-3.5,0.1-4.3C180,26,180.2,25.4,180.6,24.9z M183.8,26.6c-0.2-0.4-0.4-0.6-0.5-0.6c-0.2,0-0.4,0.3-0.6,1
			c-0.2,0.5-0.3,1.6-0.3,3.1c0,1.2,0,2.5,0.1,3.9c0.1,1.3,0.2,2.5,0.4,3.6s0.4,1.7,0.5,1.7s0.2-0.2,0.3-0.7c0.1-0.4,0.2-0.7,0.4-1
			c0.1-0.1,0.2-1.1,0.3-3c0.1-0.9,0.1-1.8,0.1-2.6C184.6,29.4,184.3,27.6,183.8,26.6z"/>
		<path class="st2" d="M191.3,23.3c0.3-0.2,0.6-0.3,1.1-0.3s0.9,0.1,1.2,0.4l0.4,0.4v4.1c0,4.8,0.2,8.1,0.5,9.9
			c0.1,0.4,0.1,0.5,0.2,0.5c0.2,0,0.4-0.7,0.5-2.1c0.3-2.9,0.4-5.7,0.4-8.6v-0.7v-0.4c0-1.5,0.2-2.4,0.5-2.6
			c0.1-0.1,0.3-0.1,0.7-0.1c0.6,0,1.1,0.1,1.3,0.3c0.4,0.3,0.5,1.2,0.5,2.7c0,1.2-0.1,3.5-0.3,6.9c-0.2,2.8-0.5,4.8-0.9,6
			s-1.2,1.9-2.1,2.2c-0.4,0.1-0.7,0.2-0.8,0.2s-0.5-0.1-1.1-0.4c-1.2-0.6-1.9-1.5-2.1-2.8c-0.1-1.1-0.3-4.8-0.4-10.9
			c0-0.9,0-1.9,0-2.9c0-0.7,0-1.1,0.1-1.3C191.1,23.6,191.2,23.4,191.3,23.3z"/>
		<path class="st2" d="M202.8,23.5c0.3-0.3,0.8-0.4,1.6-0.4h0.8c1.2,0,1.9,0.1,2.2,0.2c0.1,0,0.4,0.1,0.9,0.1s0.9,0.1,1.1,0.3
			c0.2,0.2,0.4,0.5,0.4,0.9s-0.1,0.7-0.3,0.9s-0.4,0.3-0.8,0.4c-0.5,0.1-0.7,0.2-0.8,0.2c-0.1,0.1-0.2,2.3-0.2,6.5
			c0,2.9,0,4.9,0.1,6.2c0,0.9,0.1,1.4,0.1,1.5c0,0.5-0.1,0.9-0.3,1.2c-0.2,0.4-0.6,0.7-1.2,0.7c-0.3,0-0.7-0.1-1-0.3l-0.6-0.4
			l0.1-7.7c0-2,0.1-4,0.1-6c0-1.2-0.1-1.8-0.3-2c-0.3-0.1-0.4-0.2-0.5-0.2s-0.2,0-0.4,0c-0.4,0-0.7-0.1-1-0.4
			c-0.3-0.2-0.4-0.5-0.4-0.8C202.3,24.1,202.5,23.8,202.8,23.5z"/>
		<path class="st2" d="M180.8,48.5l0.5-0.6h4.2l0.7,0.7c0.4,0.5,0.7,1,0.9,1.5c0.2,0.6,0.3,1.6,0.4,3.1c0,0.5,0.1,1.3,0.1,2.3
			c0,2.3-0.2,4.4-0.6,6.3c-0.4,1.9-1,3.1-1.7,3.8c-0.2,0.2-0.6,0.4-1,0.6s-0.8,0.2-1.1,0.2c-0.1,0-0.2,0-0.4-0.1s-0.4-0.1-0.7-0.1
			c-0.4,0-0.8-0.4-1.2-1.2s-0.7-1.7-0.8-2.7c-0.3-1.7-0.4-4.1-0.4-7.3s0.1-5,0.4-5.6C180.2,49.3,180.4,49,180.8,48.5z M183.9,50.3
			c-0.2-0.4-0.4-0.6-0.5-0.6s-0.3,0.4-0.6,1.1c-0.2,0.5-0.2,1.5-0.2,3.1c0,2.7,0.2,5,0.5,7.1c0.2,1.3,0.4,2,0.6,2
			c0.1,0,0.2-0.2,0.3-0.6c0-0.1,0.2-0.6,0.4-1.4c0.2-0.5,0.3-2,0.3-4.5v-1c0-1.5-0.1-2.6-0.2-3.3C184.4,51.5,184.2,50.9,183.9,50.3z
			"/>
		<path class="st2" d="M193.2,48.5c0.9,0,1.5-0.1,1.7-0.1c1.4,0,2.3,0.2,2.5,0.5c0.2,0.2,0.3,0.5,0.3,0.7c0,0.3-0.1,0.5-0.3,0.7
			s-0.9,0.4-2,0.6l-1.6,0.3l-0.1,2.2v0.7c0,1.1,0,1.7,0.1,1.8s0.4,0.2,1.1,0.3c0.6,0.1,1,0.3,1.2,0.6c0.1,0.2,0.2,0.4,0.2,0.6
			c0,0.5-0.3,0.8-0.9,1c-0.8,0.2-1.3,0.4-1.4,0.5c-0.1,0.1-0.1,0.3-0.1,0.5c0,0.1,0,0.4,0.1,1c0.1,1.6,0.2,2.6,0.3,3
			c0.1,0.8,0.1,1.5,0.1,1.9c0,0.5-0.2,0.8-0.4,0.9c-0.3,0.1-0.5,0.2-0.7,0.2c-0.5,0-1-0.2-1.4-0.6c-0.3-0.3-0.5-0.7-0.5-1.2v-0.2
			v-0.9c0-6.7-0.1-11-0.2-12.8c-0.1-0.5-0.1-0.9-0.1-1c0-0.5,0.1-0.7,0.4-0.9C191.7,48.6,192.3,48.5,193.2,48.5z"/>
	</g>
</g>
</svg>
