<?xml version="1.0" encoding="utf-8"?>
<!-- Generator: Adobe Illustrator 25.1.0, SVG Export Plug-In . SVG Version: 6.00 Build 0)  -->
<svg version="1.1" id="Layer_1" xmlns="http://www.w3.org/2000/svg" xmlns:xlink="http://www.w3.org/1999/xlink" x="0px" y="0px"
	 viewBox="0 0 326.2 188" style="enable-background:new 0 0 326.2 188;" xml:space="preserve">
<style type="text/css">
	.st0{fill:#FFFFFF;}
	.st1{fill:#808080;}
	.st2{fill:#00CDDC;}
	.st3{fill-rule:evenodd;clip-rule:evenodd;fill:#00CDDC;}
	.st4{fill-rule:evenodd;clip-rule:evenodd;fill:#FFFFFF;}
	.st5{fill-rule:evenodd;clip-rule:evenodd;fill:#32DCD2;}
</style>
<g>
	<g>
		<path class="st0" d="M10.4,58.2c-3.3,17.9-25.3,73.5,6.7,104.6s312.5,48.1,309-39.6S307.3,1,219.3,0.5C131.2,0,145.1,0.7,102.4,0
			C9.3-1.4,13.7,40.6,10.4,58.2z"/>
		<path class="st1" d="M103.4,42.3l4.1-11.2h1.4l4.1,11.2h-1.4l-1-2.9h-4.8l-1,2.9H103.4z M106.3,38.3h4l-2-5.5L106.3,38.3z"/>
		<path class="st1" d="M117.9,42.5c-0.8,0-1.5-0.2-2.1-0.5c-0.6-0.4-1-0.9-1.4-1.5s-0.5-1.3-0.5-2.1s0.2-1.5,0.5-2.1
			s0.8-1.1,1.4-1.5s1.3-0.5,2.1-0.5c0.6,0,1.2,0.1,1.7,0.4s0.9,0.6,1.2,1.1v-4.9h1.3v11.5h-1.2l-0.1-1.3c-0.3,0.4-0.6,0.7-1.1,1
			C119.2,42.4,118.6,42.5,117.9,42.5z M118,41.3c0.5,0,1-0.1,1.4-0.4s0.7-0.6,1-1.1c0.2-0.4,0.3-1,0.3-1.6s-0.1-1.1-0.3-1.6
			c-0.2-0.4-0.6-0.8-1-1.1s-0.9-0.4-1.4-0.4s-1,0.1-1.4,0.4c-0.4,0.2-0.7,0.6-1,1.1s-0.3,1-0.3,1.6s0.1,1.1,0.3,1.6s0.6,0.8,1,1.1
			C117,41.2,117.5,41.3,118,41.3z"/>
		<path class="st1" d="M127.2,42.5c-0.9,0-1.7-0.3-2.2-0.9c-0.6-0.6-0.8-1.4-0.8-2.6v-4.6h1.3v4.5c0,1.7,0.7,2.5,2,2.5
			c0.7,0,1.3-0.2,1.7-0.7s0.7-1.2,0.7-2.1v-4.1h1.3v7.9H130l-0.1-1.4c-0.2,0.5-0.6,0.9-1.1,1.2C128.4,42.4,127.8,42.5,127.2,42.5z"
			/>
		<path class="st1" d="M133.5,42.3V30.8h1.3v11.5H133.5z"/>
		<path class="st1" d="M140.1,42.3c-0.7,0-1.3-0.2-1.7-0.5c-0.4-0.4-0.6-1-0.6-1.9v-4.4h-1.4v-1.1h1.4l0.2-1.9h1.2v1.9h2.3v1.1h-2.3
			v4.4c0,0.5,0.1,0.8,0.3,1s0.6,0.3,1.1,0.3h0.8v1.1L140.1,42.3L140.1,42.3z"/>
		<path class="st1" d="M146.2,42.5c-1,0-1.7-0.2-2.4-0.7c-0.6-0.5-1-1.1-1.1-1.9h1.4c0.1,0.4,0.3,0.8,0.7,1.1s0.8,0.5,1.4,0.5
			c0.6,0,1-0.1,1.2-0.4c0.3-0.2,0.4-0.5,0.4-0.9c0-0.5-0.2-0.8-0.5-1s-0.8-0.3-1.5-0.4c-0.4-0.1-0.8-0.2-1.3-0.4
			c-0.4-0.2-0.8-0.4-1.1-0.7S143,37,143,36.5c0-0.7,0.3-1.3,0.8-1.7s1.2-0.7,2.1-0.7c0.8,0,1.5,0.2,2.1,0.6c0.5,0.4,0.8,1,0.9,1.8
			h-1.3c-0.1-0.4-0.2-0.7-0.5-0.9s-0.7-0.3-1.2-0.3s-0.8,0.1-1.1,0.3s-0.4,0.5-0.4,0.8s0.2,0.6,0.5,0.8s0.8,0.3,1.4,0.5
			c0.5,0.1,1,0.2,1.4,0.4s0.8,0.4,1.1,0.7s0.4,0.7,0.4,1.3c0,0.7-0.3,1.3-0.8,1.8C147.9,42.3,147.2,42.5,146.2,42.5z"/>
		<path class="st1" d="M155.4,42.3v-7.9h1.2l0.1,1.4c0.3-0.5,0.6-0.9,1.1-1.2s1-0.4,1.6-0.4c0.9,0,1.7,0.3,2.2,0.9
			c0.6,0.6,0.8,1.5,0.8,2.6v4.6h-1.3v-4.5c0-1.6-0.7-2.5-2.1-2.5c-0.7,0-1.2,0.2-1.7,0.7c-0.4,0.5-0.7,1.2-0.7,2.1v4.1L155.4,42.3
			L155.4,42.3z"/>
		<path class="st1" d="M168.2,42.5c-0.8,0-1.4-0.2-2-0.5s-1.1-0.8-1.4-1.4c-0.3-0.6-0.5-1.4-0.5-2.2s0.2-1.6,0.5-2.2
			c0.3-0.6,0.8-1.1,1.4-1.5c0.6-0.3,1.3-0.5,2.1-0.5s1.4,0.2,2,0.5c0.6,0.4,1,0.8,1.3,1.4c0.3,0.6,0.4,1.2,0.4,1.8
			c0,0.1,0,0.2,0,0.4c0,0.1,0,0.2,0,0.4h-6.3c0,0.6,0.2,1.1,0.4,1.5s0.6,0.7,0.9,0.9c0.4,0.2,0.8,0.3,1.2,0.3c0.6,0,1-0.1,1.4-0.4
			c0.4-0.3,0.6-0.6,0.8-1h1.3c-0.2,0.7-0.6,1.4-1.2,1.8C169.9,42.3,169.1,42.5,168.2,42.5z M168.2,35.3c-0.6,0-1.2,0.2-1.7,0.6
			c-0.5,0.4-0.8,1-0.9,1.7h5c0-0.7-0.3-1.3-0.7-1.7C169.4,35.5,168.8,35.3,168.2,35.3z"/>
		<path class="st1" d="M177.3,42.5c-0.8,0-1.4-0.2-2-0.5s-1.1-0.8-1.4-1.4c-0.3-0.6-0.5-1.4-0.5-2.2s0.2-1.6,0.5-2.2
			c0.3-0.6,0.8-1.1,1.4-1.5c0.6-0.3,1.3-0.5,2.1-0.5s1.4,0.2,2,0.5c0.6,0.4,1,0.8,1.3,1.4c0.3,0.6,0.4,1.2,0.4,1.8
			c0,0.1,0,0.2,0,0.4c0,0.1,0,0.2,0,0.4h-6.3c0,0.6,0.2,1.1,0.4,1.5s0.6,0.7,0.9,0.9c0.4,0.2,0.8,0.3,1.2,0.3c0.6,0,1-0.1,1.4-0.4
			c0.4-0.3,0.7-0.6,0.8-1h1.3c-0.2,0.7-0.6,1.4-1.2,1.8C179,42.3,178.2,42.5,177.3,42.5z M177.3,35.3c-0.6,0-1.2,0.2-1.7,0.6
			c-0.5,0.4-0.8,1-0.9,1.7h5c0-0.7-0.3-1.3-0.7-1.7C178.5,35.5,177.9,35.3,177.3,35.3z"/>
		<path class="st1" d="M186.4,42.5c-0.8,0-1.5-0.2-2.1-0.5s-1.1-0.9-1.4-1.5s-0.5-1.3-0.5-2.1s0.2-1.5,0.5-2.1s0.8-1.1,1.4-1.5
			s1.3-0.5,2.1-0.5c0.7,0,1.2,0.1,1.7,0.4s0.9,0.6,1.2,1.1v-4.9h1.3v11.5h-1.2l-0.1-1.3c-0.3,0.4-0.6,0.7-1.1,1
			C187.7,42.4,187.1,42.5,186.4,42.5z M186.5,41.3c0.5,0,1-0.1,1.4-0.4c0.4-0.2,0.7-0.6,1-1.1s0.3-1,0.3-1.6s-0.1-1.1-0.3-1.6
			s-0.6-0.8-1-1.1c-0.4-0.2-0.9-0.4-1.4-0.4s-1,0.1-1.4,0.4s-0.7,0.6-1,1.1c-0.2,0.4-0.3,1-0.3,1.6s0.1,1.1,0.3,1.6
			c0.2,0.4,0.6,0.8,1,1.1S186,41.3,186.5,41.3z"/>
		<path class="st1" d="M199.7,42.5c-0.7,0-1.2-0.1-1.6-0.3c-0.4-0.2-0.8-0.5-1-0.9s-0.3-0.8-0.3-1.2c0-0.8,0.3-1.4,0.9-1.9
			c0.6-0.4,1.5-0.7,2.5-0.7h2.1v-0.1c0-0.7-0.2-1.2-0.5-1.6s-0.8-0.5-1.5-0.5c-0.5,0-1,0.1-1.4,0.4c-0.4,0.3-0.6,0.6-0.7,1.1h-1.4
			c0.1-0.6,0.2-1.1,0.6-1.5c0.3-0.4,0.8-0.7,1.3-0.9s1-0.3,1.6-0.3c1.1,0,1.9,0.3,2.5,0.9c0.6,0.6,0.8,1.4,0.8,2.4v4.9h-1.1
			l-0.1-1.4c-0.2,0.4-0.6,0.8-1,1.1S200.4,42.5,199.7,42.5z M199.9,41.4c0.5,0,1-0.1,1.3-0.4s0.6-0.6,0.8-1s0.3-0.9,0.3-1.3l0,0h-2
			c-0.8,0-1.4,0.1-1.7,0.4c-0.3,0.3-0.5,0.6-0.5,1s0.1,0.8,0.5,1C198.9,41.2,199.4,41.4,199.9,41.4z"/>
		<path class="st1" d="M210,42.5c-0.6,0-1.2-0.1-1.7-0.4c-0.5-0.3-0.9-0.6-1.2-1.1l-0.1,1.3h-1.2V30.8h1.3v4.9
			c0.3-0.4,0.6-0.7,1.1-1s1.1-0.5,1.8-0.5c0.8,0,1.5,0.2,2.1,0.5c0.6,0.4,1,0.9,1.4,1.5s0.5,1.3,0.5,2.1s-0.2,1.5-0.5,2.1
			s-0.8,1.1-1.4,1.5C211.5,42.3,210.8,42.5,210,42.5z M209.8,41.3c0.5,0,1-0.1,1.4-0.4s0.7-0.6,1-1.1c0.2-0.4,0.3-1,0.3-1.6
			s-0.1-1.1-0.3-1.6c-0.2-0.4-0.6-0.8-1-1.1s-0.9-0.4-1.4-0.4s-1,0.1-1.4,0.4c-0.4,0.2-0.7,0.6-1,1.1s-0.4,1-0.4,1.6
			s0.1,1.1,0.4,1.6s0.6,0.8,1,1.1C208.8,41.2,209.3,41.3,209.8,41.3z"/>
		<path class="st1" d="M219.4,42.5c-0.8,0-1.4-0.2-2-0.5s-1.1-0.8-1.4-1.5c-0.4-0.6-0.5-1.4-0.5-2.2s0.2-1.6,0.5-2.2
			c0.4-0.6,0.8-1.1,1.4-1.4c0.6-0.3,1.3-0.5,2-0.5c0.8,0,1.4,0.2,2,0.5s1.1,0.8,1.4,1.4c0.4,0.6,0.5,1.4,0.5,2.2s-0.2,1.6-0.5,2.2
			c-0.4,0.6-0.8,1.1-1.4,1.5C220.8,42.3,220.1,42.5,219.4,42.5z M219.4,41.4c0.5,0,0.9-0.1,1.3-0.3c0.4-0.2,0.7-0.6,1-1
			s0.4-1,0.4-1.7s-0.1-1.2-0.4-1.7c-0.2-0.4-0.6-0.8-0.9-1c-0.4-0.2-0.8-0.3-1.3-0.3s-0.9,0.1-1.3,0.3c-0.4,0.2-0.7,0.6-1,1
			c-0.2,0.5-0.4,1-0.4,1.7s0.1,1.2,0.4,1.7c0.2,0.4,0.6,0.8,0.9,1C218.5,41.2,219,41.4,219.4,41.4z"/>
		<path class="st1" d="M228.2,42.5c-0.9,0-1.7-0.3-2.2-0.9c-0.6-0.6-0.8-1.4-0.8-2.6v-4.6h1.3v4.5c0,1.7,0.7,2.5,2,2.5
			c0.7,0,1.3-0.2,1.7-0.7c0.5-0.5,0.7-1.2,0.7-2.1v-4.1h1.3v7.9H231l-0.1-1.4c-0.2,0.5-0.6,0.9-1.1,1.2
			C229.3,42.4,228.8,42.5,228.2,42.5z"/>
		<path class="st1" d="M237.5,42.3c-0.7,0-1.3-0.2-1.7-0.5c-0.4-0.4-0.6-1-0.6-1.9v-4.4h-1.4v-1.1h1.4l0.2-1.9h1.2v1.9h2.3v1.1h-2.3
			v4.4c0,0.5,0.1,0.8,0.3,1c0.2,0.2,0.6,0.3,1.1,0.3h0.8v1.1L237.5,42.3L237.5,42.3z"/>
		<path class="st2" d="M123.5,71c-0.1-0.5-0.5-2.2-0.1-2.2c1.4,0.1,3.4,0.1,6,0c2.9-0.1,4.9-0.1,6-0.1c0.3,0.1,0.6,1.4,0.8,2.1
			c0.2,1.1,0.2,1.7,0,1.7c-2.1-0.1-11.5,0.1-11.5,0.1S123.9,72.2,123.5,71z"/>
		<path class="st2" d="M147.9,55.5c1.2-0.8,2.6-1.1,4.3-1.1s3,0.3,4,0.9c1,0.6,1.5,1,1.7,1.2c0.3,0.4,0.4,1.7,0.4,3.7
			s-0.1,3.5-0.4,4.5c-0.2,0.6-0.7,2.4-1.4,5.5c-0.8,3.1-1.4,5-1.7,5.6c-0.1,0.2-0.3,0.9-0.5,2.1c-0.1,0.6-0.5,2.1-1.3,4.7
			s-1.2,4.2-1.3,5c-0.2,1.4-0.5,2.4-0.9,3s-1,1-1.9,1.3c-0.7,0.2-1.1,0.3-1.2,0.3c-0.3,0-0.8-0.3-1.7-0.9c-0.9-0.7-1.3-1.3-1.3-1.8
			c0-0.6,0.2-1.8,0.8-3.7c0.5-1.9,0.9-3.3,1.3-4.2c0.2-0.5,0.6-1.8,1.1-3.8c0.5-2.2,0.8-3.5,0.8-4c0-0.3-0.2-0.6-0.5-0.7
			c-2.9-1.1-4.5-3.7-4.8-7.6c0-0.2,0-0.4,0-0.8c0-0.3,0-0.5,0-0.6c0-1,0.4-2.4,1.3-4.3c0.6-1.2,1.1-2.1,1.4-2.6
			C146.6,56.6,147.2,56,147.9,55.5z M152,60.4c-0.1-0.3-0.4-0.4-0.6-0.4c-0.3,0-0.7,0.2-1.1,0.6c-0.4,0.4-0.7,0.9-0.9,1.4
			c-0.4,1.2-0.6,2.1-0.6,2.8c0,0.6,0.2,0.9,0.6,0.9c0.3,0,0.6-0.1,1.1-0.4c0.8-0.5,1.3-1,1.4-1.4c0.2-1.4,0.4-2.4,0.4-2.8
			C152.1,60.7,152,60.5,152,60.4z"/>
		<path class="st2" d="M105.1,56c0.3-0.1,0.8-0.2,1.6-0.2c1.2,0,3,0.2,5.2,0.4c0.9,0.1,1.8,0.5,2.5,1.1c0.8,0.6,1.3,1.4,1.4,2.2
			c0.1,0.1,0.1,0.4,0.1,0.8c0,1-0.1,2.2-0.4,3.8c-0.7,4.4-1.4,9.6-2.1,15.5s-1.1,9.3-1.1,10.1c0,1.3-0.2,2.2-0.6,2.6
			c-0.4,0.4-1.1,0.6-2.2,0.6h-0.4c-1.5-0.1-2.4-0.3-2.7-0.7c-0.3-0.5-0.5-1.1-0.5-2c0-0.7,0.1-1.4,0.4-2.1c0.1-0.3,0.4-1.9,0.8-4.7
			c0.1-1.2,0.2-2.1,0.2-2.8c0-0.8-0.1-1.3-0.4-1.6c-0.3-0.3-0.8-0.5-1.6-0.6c-0.8-0.2-1.4-0.5-1.7-1s0-1.1,0.8-1.8s1.6-1.1,2.2-1.1
			c0.8,0,1.3-0.2,1.5-0.6s0.5-2.2,0.9-5.3c0.4-3.2,0.6-5.4,0.6-6.6c0-0.1,0-0.2,0-0.4c0-0.1,0-0.2,0-0.3c-0.1-0.4-0.3-0.6-0.5-0.8
			c-0.2-0.1-0.7-0.2-1.4-0.2c-1.2,0-2.2-0.2-3.1-0.6c-0.8-0.4-1.2-0.9-1.2-1.4C103.4,57.5,104,56.6,105.1,56z"/>
		<path class="st1" d="M105.4,116.1c-0.8,0-1.4-0.2-2-0.5s-1.1-0.8-1.4-1.5c-0.4-0.6-0.5-1.4-0.5-2.2s0.2-1.6,0.5-2.2
			c0.4-0.6,0.8-1.1,1.4-1.4s1.3-0.5,2-0.5c0.8,0,1.4,0.2,2,0.5s1.1,0.8,1.4,1.4c0.4,0.6,0.5,1.4,0.5,2.2s-0.2,1.6-0.5,2.2
			c-0.4,0.6-0.8,1.1-1.4,1.5C106.9,116,106.2,116.1,105.4,116.1z M105.4,115c0.5,0,0.9-0.1,1.3-0.3c0.4-0.2,0.7-0.6,1-1
			s0.4-1,0.4-1.7s-0.1-1.2-0.4-1.7c-0.2-0.4-0.6-0.8-0.9-1c-0.4-0.2-0.8-0.3-1.3-0.3s-0.9,0.1-1.3,0.3c-0.4,0.2-0.7,0.6-1,1
			c-0.2,0.4-0.4,1-0.4,1.7s0.1,1.2,0.4,1.7c0.2,0.4,0.6,0.8,0.9,1C104.6,114.9,105,115,105.4,115z"/>
		<path class="st1" d="M111.7,115.9v-6.8h-1.2V108h1.2v-1.4c0-0.8,0.2-1.3,0.6-1.7c0.4-0.3,0.9-0.5,1.7-0.5h0.8v1.2h-0.6
			c-0.4,0-0.7,0.1-0.9,0.2c-0.2,0.2-0.3,0.4-0.3,0.8v1.3h1.9v1.1H113v6.8L111.7,115.9L111.7,115.9z"/>
		<path class="st1" d="M123.9,116.1c-0.9,0-1.7-0.2-2.4-0.7c-0.6-0.5-1-1.1-1.1-1.9h1.4c0.1,0.4,0.3,0.8,0.7,1.1s0.8,0.5,1.4,0.5
			c0.6,0,1-0.1,1.2-0.4c0.3-0.2,0.4-0.5,0.4-0.9c0-0.5-0.2-0.8-0.5-1s-0.8-0.3-1.5-0.4c-0.4-0.1-0.9-0.2-1.3-0.4
			c-0.4-0.2-0.8-0.4-1.1-0.7s-0.4-0.7-0.4-1.2c0-0.7,0.3-1.3,0.8-1.7s1.2-0.7,2.1-0.7c0.8,0,1.5,0.2,2.1,0.6c0.5,0.4,0.8,1,0.9,1.8
			h-1.3c-0.1-0.4-0.2-0.7-0.5-0.9s-0.7-0.3-1.2-0.3s-0.8,0.1-1.1,0.3s-0.4,0.5-0.4,0.8s0.2,0.6,0.5,0.8s0.8,0.3,1.4,0.5
			c0.5,0.1,1,0.2,1.4,0.4s0.8,0.4,1.1,0.7s0.4,0.7,0.4,1.3c0,0.7-0.3,1.3-0.8,1.8C125.6,115.9,124.8,116.1,123.9,116.1z"/>
		<path class="st1" d="M128.9,115.9v-11.5h1.3v11.5H128.9z"/>
		<path class="st1" d="M136,116.1c-0.8,0-1.4-0.2-2-0.5s-1.1-0.8-1.4-1.4c-0.3-0.6-0.5-1.3-0.5-2.2c0-0.8,0.2-1.6,0.5-2.2
			s0.8-1.1,1.4-1.5c0.6-0.3,1.3-0.5,2.1-0.5s1.4,0.2,2,0.5c0.6,0.4,1,0.8,1.3,1.4s0.4,1.2,0.4,1.8c0,0.1,0,0.2,0,0.4
			c0,0.1,0,0.2,0,0.4h-6.3c0,0.6,0.2,1.1,0.4,1.5s0.6,0.7,0.9,0.9c0.4,0.2,0.8,0.3,1.2,0.3c0.5,0,1-0.1,1.4-0.4s0.6-0.6,0.8-1h1.3
			c-0.2,0.7-0.6,1.3-1.2,1.8C137.7,115.9,136.9,116.1,136,116.1z M136,108.9c-0.6,0-1.2,0.2-1.7,0.6s-0.8,1-0.9,1.7h5
			c0-0.7-0.3-1.3-0.7-1.7C137.2,109.2,136.7,108.9,136,108.9z"/>
		<path class="st1" d="M145.1,116.1c-0.8,0-1.4-0.2-2-0.5s-1.1-0.8-1.4-1.4c-0.3-0.6-0.5-1.3-0.5-2.2c0-0.8,0.2-1.6,0.5-2.2
			s0.8-1.1,1.4-1.5c0.6-0.3,1.3-0.5,2.1-0.5s1.4,0.2,2,0.5c0.6,0.4,1,0.8,1.3,1.4s0.4,1.2,0.4,1.8c0,0.1,0,0.2,0,0.4
			c0,0.1,0,0.2,0,0.4h-6.4c0,0.6,0.2,1.1,0.4,1.5s0.6,0.7,0.9,0.9c0.4,0.2,0.8,0.3,1.2,0.3c0.6,0,1-0.1,1.4-0.4s0.7-0.6,0.8-1h1.3
			c-0.2,0.7-0.6,1.3-1.2,1.8C146.8,115.9,146,116.1,145.1,116.1z M145.1,108.9c-0.6,0-1.2,0.2-1.7,0.6s-0.8,1-0.9,1.7h5
			c0-0.7-0.3-1.3-0.7-1.7C146.3,109.2,145.8,108.9,145.1,108.9z"/>
		<path class="st1" d="M150.6,119.5V108h1.2l0.1,1.3c0.3-0.4,0.6-0.7,1.1-1s1.1-0.5,1.8-0.5c0.8,0,1.5,0.2,2.1,0.5
			c0.6,0.4,1,0.9,1.4,1.5c0.3,0.6,0.5,1.3,0.5,2.1s-0.2,1.5-0.5,2.1s-0.8,1.1-1.4,1.5c-0.6,0.4-1.3,0.5-2.1,0.5
			c-0.7,0-1.2-0.1-1.7-0.4s-0.9-0.6-1.2-1.1v4.9L150.6,119.5L150.6,119.5z M154.7,115c0.5,0,1-0.1,1.4-0.4c0.4-0.2,0.7-0.6,1-1.1
			c0.2-0.4,0.4-1,0.4-1.6s-0.1-1.1-0.4-1.6c-0.2-0.4-0.6-0.8-1-1s-0.9-0.4-1.4-0.4s-1,0.1-1.4,0.4s-0.7,0.6-1,1
			c-0.2,0.5-0.4,1-0.4,1.6s0.1,1.1,0.4,1.6c0.2,0.5,0.5,0.8,1,1.1S154.2,115,154.7,115z"/>
		<path class="st1" d="M164.9,119.5V108h1.2l0.1,1.3c0.3-0.4,0.6-0.7,1.1-1s1.1-0.5,1.8-0.5c0.8,0,1.5,0.2,2.1,0.5
			c0.6,0.4,1,0.9,1.4,1.5c0.3,0.6,0.5,1.3,0.5,2.1s-0.2,1.5-0.5,2.1s-0.8,1.1-1.4,1.5c-0.6,0.4-1.3,0.5-2.1,0.5
			c-0.7,0-1.2-0.1-1.7-0.4s-0.9-0.6-1.2-1.1v4.9L164.9,119.5L164.9,119.5z M169,115c0.5,0,1-0.1,1.4-0.4s0.7-0.6,1-1.1
			c0.2-0.4,0.3-1,0.3-1.6s-0.1-1.1-0.3-1.6c-0.2-0.4-0.6-0.8-1-1s-0.9-0.4-1.4-0.4s-1,0.1-1.4,0.4c-0.4,0.2-0.7,0.6-1,1
			c-0.2,0.5-0.4,1-0.4,1.6s0.1,1.1,0.4,1.6c0.2,0.5,0.6,0.8,1,1.1C168,114.8,168.5,115,169,115z"/>
		<path class="st1" d="M178.5,116.1c-0.8,0-1.4-0.2-2-0.5s-1-0.8-1.4-1.4c-0.3-0.6-0.5-1.3-0.5-2.2c0-0.8,0.2-1.6,0.5-2.2
			s0.8-1.1,1.4-1.5c0.6-0.3,1.3-0.5,2.1-0.5s1.4,0.2,2,0.5c0.6,0.4,1,0.8,1.3,1.4s0.4,1.2,0.4,1.8c0,0.1,0,0.2,0,0.4
			c0,0.1,0,0.2,0,0.4H176c0,0.6,0.2,1.1,0.4,1.5s0.6,0.7,0.9,0.9c0.4,0.2,0.8,0.3,1.2,0.3c0.6,0,1-0.1,1.4-0.4s0.7-0.6,0.8-1h1.3
			c-0.2,0.7-0.6,1.3-1.2,1.8C180.2,115.9,179.5,116.1,178.5,116.1z M178.5,108.9c-0.6,0-1.2,0.2-1.7,0.6s-0.8,1-0.9,1.7h5
			c0-0.7-0.3-1.3-0.7-1.7C179.8,109.2,179.2,108.9,178.5,108.9z"/>
		<path class="st1" d="M184.1,115.9V108h1.2l0.1,1.5c0.2-0.5,0.6-0.9,1.1-1.2s1.1-0.5,1.9-0.5v1.4H188c-0.5,0-0.9,0.1-1.3,0.2
			c-0.4,0.2-0.7,0.4-0.9,0.8s-0.3,0.9-0.3,1.6v4L184.1,115.9L184.1,115.9z"/>
		<path class="st1" d="M194.1,115.9V108h1.2l0.1,1.4c0.3-0.5,0.6-0.9,1.1-1.2s1-0.4,1.6-0.4c0.9,0,1.7,0.3,2.2,0.9
			c0.6,0.6,0.8,1.5,0.8,2.6v4.6h-1.3v-4.5c0-1.6-0.7-2.5-2.1-2.5c-0.7,0-1.2,0.2-1.7,0.7c-0.4,0.5-0.7,1.2-0.7,2.1v4.1L194.1,115.9
			L194.1,115.9z"/>
		<path class="st1" d="M204.1,106.2c-0.3,0-0.5-0.1-0.7-0.3s-0.3-0.4-0.3-0.7s0.1-0.5,0.3-0.6c0.2-0.2,0.4-0.3,0.7-0.3
			s0.5,0.1,0.7,0.3s0.3,0.4,0.3,0.6c0,0.3-0.1,0.5-0.3,0.7C204.6,106.2,204.3,106.2,204.1,106.2z M203.4,115.9V108h1.3v7.9H203.4z"
			/>
		<path class="st1" d="M210.2,113.4c-0.4,0-0.9-0.1-1.2-0.2l-0.8,0.8c0.1,0.1,0.3,0.2,0.4,0.2c0.2,0.1,0.4,0.1,0.8,0.2
			c0.3,0.1,0.8,0.1,1.4,0.2c1.1,0.1,1.8,0.3,2.3,0.7s0.7,1,0.7,1.6c0,0.5-0.1,0.9-0.4,1.3c-0.2,0.4-0.6,0.8-1.2,1
			c-0.5,0.3-1.2,0.4-2,0.4c-0.7,0-1.4-0.1-1.9-0.3s-1-0.5-1.3-0.8c-0.3-0.4-0.5-0.9-0.5-1.4c0-0.3,0.1-0.6,0.2-1
			c0.2-0.3,0.5-0.7,0.9-1c-0.2-0.1-0.4-0.2-0.6-0.3s-0.3-0.2-0.5-0.4V114l1.4-1.3c-0.6-0.5-0.9-1.2-0.9-2.1c0-0.5,0.1-1,0.4-1.4
			c0.2-0.4,0.6-0.8,1.1-1s1-0.4,1.7-0.4c0.5,0,0.9,0.1,1.2,0.2h2.9v1l-1.5,0.1c0.3,0.4,0.5,1,0.5,1.5s-0.1,1-0.4,1.4
			c-0.2,0.4-0.6,0.8-1.1,1C211.5,113.3,210.9,113.4,210.2,113.4z M207.9,117c0,0.5,0.2,0.9,0.7,1.2c0.4,0.3,1,0.4,1.7,0.4
			s1.2-0.1,1.6-0.4c0.4-0.3,0.6-0.7,0.6-1.1c0-0.3-0.1-0.6-0.4-0.9s-0.8-0.4-1.5-0.4c-0.6,0-1.1-0.1-1.5-0.2
			c-0.4,0.2-0.7,0.5-0.9,0.8C208,116.5,207.9,116.8,207.9,117z M210.2,112.4c0.6,0,1-0.2,1.4-0.4c0.3-0.3,0.5-0.7,0.5-1.3
			c0-0.5-0.2-1-0.5-1.3s-0.8-0.4-1.4-0.4c-0.6,0-1,0.1-1.4,0.4c-0.3,0.3-0.5,0.7-0.5,1.3s0.2,1,0.5,1.3
			C209.2,112.2,209.6,112.4,210.2,112.4z"/>
		<path class="st1" d="M215.9,115.9v-11.5h1.3v4.9c0.3-0.5,0.7-0.9,1.1-1.1c0.5-0.3,1-0.4,1.6-0.4c0.9,0,1.6,0.3,2.2,0.9
			c0.5,0.6,0.8,1.5,0.8,2.6v4.6h-1.3v-4.5c0-1.6-0.7-2.5-2-2.5c-0.7,0-1.3,0.2-1.7,0.7c-0.5,0.5-0.7,1.2-0.7,2.1v4.1L215.9,115.9
			L215.9,115.9z"/>
		<path class="st1" d="M228.2,115.9c-0.7,0-1.3-0.2-1.7-0.5s-0.6-1-0.6-1.9v-4.4h-1.4V108h1.4l0.2-1.9h1.2v1.9h2.3v1.1h-2.3v4.4
			c0,0.5,0.1,0.8,0.3,1s0.6,0.3,1.1,0.3h0.8v1.1H228.2L228.2,115.9z"/>
		<path class="st1" d="M231.7,116c-0.3,0-0.5-0.1-0.7-0.3s-0.3-0.4-0.3-0.7s0.1-0.5,0.3-0.6c0.2-0.2,0.4-0.3,0.7-0.3
			s0.5,0.1,0.6,0.3s0.3,0.4,0.3,0.6c0,0.3-0.1,0.5-0.3,0.7C232.2,115.9,232,116,231.7,116z"/>
		<path class="st2" d="M168,67.8c0.1-0.2,0.3-0.3,0.7-0.3c0.5,0,1,0.1,1.5,0.5c0.3,0.2,0.5,0.4,0.6,0.6c0.1,0.1,0.1,0.5,0.1,1.1
			c0,4,0.1,6.3,0.1,7s0.2,1,0.4,1.1h0.1c0.2,0,0.5-0.1,0.8-0.2c0.2-0.1,0.3-0.4,0.4-0.8c0-0.4,0.1-1.5,0.1-3.1
			c0-2.5,0.1-3.8,0.2-4.1c0.2-0.5,0.8-0.7,1.5-0.7c0.3,0,0.6,0.1,0.8,0.2l0.6,0.3l-0.1,4.4c-0.1,1.8-0.1,4.4-0.1,7.7
			c0,3.7,0.1,6.1,0.2,7.2l0.2,1.8l-0.7,0.3c-0.2,0.1-0.4,0.2-0.7,0.2c-0.2,0-0.5-0.1-0.9-0.2c-0.6-0.2-0.9-0.5-1-0.8
			c-0.1-0.2-0.2-1.8-0.2-4.7c-0.1-2.9-0.2-4.4-0.3-4.5s-0.4-0.1-0.8,0l-0.8,0.2l0.1,3.4c0.1,2.3,0.2,3.8,0.4,4.2
			c0.1,0.3,0.2,0.7,0.2,1c0,0.6-0.3,1-0.9,1.1c-0.3,0.1-0.5,0.1-0.6,0.1c-0.8,0-1.4-0.2-1.9-0.7c-0.2-0.2-0.3-0.8-0.3-1.8
			s-0.1-4.1-0.1-9.3C167.9,71.7,167.9,68,168,67.8z"/>
		<path class="st2" d="M181.6,67.7l0.8-1h5.2l0.8,0.8c0.5,0.5,0.9,1.2,1.1,2c0.2,0.8,0.4,2.1,0.5,3.8c0.1,0.6,0.1,1.6,0.1,2.8
			c0,2.9-0.3,5.4-0.8,7.8c-0.5,2.3-1.2,3.9-2.1,4.8c-0.3,0.3-0.7,0.5-1.2,0.7s-1,0.3-1.4,0.3c-0.2,0-0.3,0-0.4-0.1
			c-0.2-0.1-0.5-0.2-0.9-0.2c-0.3,0-0.6-0.2-1-0.7s-0.7-1-0.9-1.7c-0.4-1.1-0.6-2.3-0.8-3.6c-0.1-1.3-0.2-3.4-0.2-6.3v-2
			c0-2.6,0.1-4.4,0.2-5.3C180.9,69.1,181.2,68.3,181.6,67.7z M185.6,69.7c-0.2-0.5-0.5-0.8-0.6-0.8c-0.2,0-0.4,0.4-0.7,1.3
			c-0.2,0.7-0.3,2-0.3,3.9c0,1.5,0.1,3.1,0.2,4.8c0.1,1.6,0.3,3.1,0.5,4.5s0.5,2.1,0.7,2.1c0.1,0,0.3-0.3,0.4-0.9
			c0.1-0.5,0.3-0.9,0.5-1.3c0.1-0.2,0.2-1.4,0.4-3.7c0.1-1.2,0.1-2.3,0.1-3.3C186.6,73.2,186.3,71,185.6,69.7z"/>
		<path class="st2" d="M194.9,65.6c0.3-0.2,0.8-0.4,1.3-0.4c0.6,0,1.1,0.1,1.5,0.5l0.6,0.5v5.1c0.1,6,0.2,10.1,0.6,12.3
			c0.1,0.4,0.2,0.7,0.2,0.7c0.3,0,0.5-0.9,0.6-2.6c0.4-3.6,0.6-7.1,0.6-10.6v-0.9v-0.6c0-1.9,0.2-3,0.7-3.3c0.1-0.1,0.4-0.2,0.8-0.2
			c0.8,0,1.3,0.1,1.6,0.4c0.4,0.4,0.7,1.6,0.7,3.4c0,1.5-0.1,4.4-0.4,8.6c-0.2,3.5-0.6,6-1.1,7.4c-0.6,1.5-1.4,2.4-2.7,2.8
			c-0.5,0.2-0.8,0.2-1,0.2s-0.6-0.1-1.4-0.5c-1.5-0.7-2.4-1.9-2.6-3.5c-0.2-1.4-0.3-5.9-0.5-13.5c0-1.1,0-2.3,0-3.6
			c0-0.9,0-1.4,0.1-1.7C194.7,66,194.8,65.8,194.9,65.6z"/>
		<path class="st2" d="M209.7,65.9c0.5-0.2,1.1-0.2,1.9-0.2c0.8,0,1.5,0.1,1.9,0.2c0.7,0.3,1.3,0.9,1.7,1.7c0.2,0.4,0.3,1.1,0.5,2.2
			c0.1,1.1,0.2,2,0.2,2.9c0,0.4,0,0.7,0,0.8c-0.1,0.7-0.3,1.5-0.6,2.4s-0.5,1.3-0.6,1.3c-0.2,0-0.3,0.2-0.3,0.6
			c0,0.3,0.1,0.6,0.3,0.9c0.4,0.6,1.1,1.8,1.9,3.6c0.8,1.7,1.3,2.8,1.3,3.3c0,0.1,0,0.3,0,0.6c0,0.4-0.1,0.7-0.3,1s-0.5,0.5-0.8,0.5
			s-0.5,0-0.8,0c-0.7-0.1-1.1-0.2-1.3-0.3s-0.3-0.3-0.3-0.7c0-0.6-0.3-1.4-0.9-2.6c-0.6-1.1-1-1.7-1.3-1.7l0,0
			c-0.1,0.1-0.1,0.4-0.1,0.9c0,0.8,0.1,1.8,0.2,2.8c0.1,0.4,0.1,0.8,0.1,0.9c0,1-0.2,1.5-0.6,1.8c-0.2,0.1-0.4,0.1-0.7,0.1
			c-0.9,0-1.5-0.2-1.7-0.6c-0.1-0.2-0.2-2.1-0.3-5.7c0-1.2-0.1-2.4-0.1-3.7s0-2.3,0-2.9s0-1.4-0.1-2.4s-0.2-2-0.3-3.2
			c-0.1-1.3-0.2-2.1-0.2-2.4c0-0.7,0.1-1.1,0.3-1.4C208.8,66.3,209.2,66.1,209.7,65.9z M212.3,69.1c-0.1-0.2-0.2-0.3-0.5-0.3
			c-0.2,0-0.3,0.1-0.4,0.3c-0.1,0.2-0.1,0.4,0,0.5c0,0,0.1,0.9,0.2,2.7c0.1,1.8,0.2,2.7,0.3,2.8s0.2-0.1,0.4-0.3s0.2-0.7,0.2-1.4
			c0-0.5,0-1,0-1.4C212.5,70.3,212.4,69.4,212.3,69.1z"/>
		<path class="st2" d="M225.5,66.7c0.3-0.2,0.7-0.2,1.2-0.2c0.3,0,0.6,0,0.8,0c0.8,0.1,1.4,0.2,1.7,0.3c0.3,0.1,0.6,0.4,0.8,0.8
			c0.3,0.4,0.4,0.9,0.4,1.3c0,0.5-0.2,0.9-0.6,1.3c-0.3,0.3-0.7,0.5-1,0.5c-0.4,0-0.7-0.2-1-0.7c-0.2-0.4-0.5-0.6-0.8-0.6
			c-0.2,0-0.5,0.2-0.7,0.5s-0.4,0.7-0.4,1.2v0.2c0,1.5,1.2,4.4,3.5,8.5c0.4,0.7,0.8,1.9,1.1,3.7c0,0.1,0,0.3,0,0.6
			c0,1.5-0.3,2.7-1,3.6c-0.3,0.4-0.7,0.7-1.4,1s-1.2,0.4-1.7,0.4c-0.1,0-0.1,0-0.2,0c-0.1,0-0.1,0-0.2,0c-0.6-0.1-1.4-0.6-2.3-1.4
			c-0.9-0.9-1.4-1.5-1.4-2c0-0.2,0.1-0.5,0.5-0.8c0.3-0.3,0.6-0.5,0.9-0.5c0.1,0,0.2,0,0.3,0c0.3,0,0.8,0.4,1.5,1.3
			c0.2,0.4,0.5,0.6,0.8,0.6s0.5-0.2,0.6-0.5c0.1-0.1,0.1-0.3,0.1-0.6c0-1.6-0.7-4-2.2-7.1c-1.3-2.9-2-5.1-2-6.5
			c0-0.6,0.1-1.2,0.3-1.7c0.5-1.1,0.8-1.8,1.1-2.2C224.4,67.3,224.9,67,225.5,66.7z"/>
		<path class="st0" d="M143,158.6c0.9,0,1.7-0.8,1.7-1.7c0-1-0.8-1.7-1.7-1.7s-1.7,0.8-1.7,1.7C141.3,157.9,142.1,158.6,143,158.6z"
			/>
		<path class="st0" d="M212.4,131.4c0.9,0,1.7-0.8,1.7-1.7s-0.8-1.7-1.7-1.7s-1.7,0.8-1.7,1.7S211.5,131.4,212.4,131.4z"/>
		<path class="st0" d="M276.4,69.4c0.9,0,1.7-0.8,1.7-1.7s-0.8-1.7-1.7-1.7c-0.9,0-1.7,0.8-1.7,1.7S275.5,69.4,276.4,69.4z"/>
		<path class="st2" d="M176.7,149.8c0.3,0,0.5-0.2,0.5-0.5s-0.2-0.5-0.5-0.5s-0.5,0.2-0.5,0.5C176.2,149.5,176.4,149.8,176.7,149.8z
			"/>
		<path class="st2" d="M233.7,148.4c0.9,0,1.7-0.8,1.7-1.7s-0.8-1.7-1.7-1.7s-1.7,0.8-1.7,1.7S232.8,148.4,233.7,148.4z"/>
		<path class="st2" d="M235.3,60.4c0.5,0,0.9-0.4,0.9-0.9s-0.4-0.9-0.9-0.9s-0.9,0.4-0.9,0.9S234.8,60.4,235.3,60.4z"/>
		<path class="st3" d="M161.3,127.5l0.6,4.9c0,0.2,0.1,0.3,0.3,0.4l4.4,2.3c0.4,0.2,0.4,0.7,0,0.9l-4.5,2.1
			c-0.1,0.1-0.3,0.2-0.3,0.4l-0.9,4.9c-0.1,0.4-0.6,0.6-0.9,0.2l-3.3-3.6c-0.1-0.1-0.3-0.2-0.4-0.2l-4.9,0.7
			c-0.4,0.1-0.7-0.4-0.5-0.7l2.4-4.3c0.1-0.1,0.1-0.3,0-0.5l-2.2-4.4c-0.2-0.4,0.1-0.8,0.6-0.7l4.8,1c0.2,0,0.3,0,0.4-0.1l3.6-3.4
			C160.8,126.9,161.3,127.1,161.3,127.5z"/>
		<path class="st4" d="M248.8,127.9l1.5,1.1c0.2,0.1,0.4,0.2,0.6,0.1l1.8-0.6c0.6-0.2,1.1,0.3,0.9,0.9l-0.6,1.8
			c-0.1,0.2,0,0.5,0.1,0.7l1.1,1.5c0.3,0.5,0,1.1-0.6,1.1h-1.9c-0.2,0-0.4,0.1-0.6,0.3l-1.1,1.5c-0.3,0.5-1.1,0.4-1.2-0.2l-0.5-1.8
			c-0.1-0.2-0.2-0.4-0.5-0.5l-1.8-0.6c-0.6-0.2-0.7-0.9-0.2-1.2l1.5-1.1c0.2-0.1,0.3-0.4,0.3-0.6v-1.9
			C247.6,127.8,248.3,127.5,248.8,127.9z"/>
		<path class="st3" d="M281.6,90.9l0.3,2.4c0,0.2,0.1,0.3,0.3,0.4l2.1,1.1c0.4,0.2,0.4,0.7,0,0.9l-2.1,1.1c-0.1,0.1-0.2,0.2-0.3,0.4
			l-0.4,2.4c-0.1,0.4-0.6,0.6-0.9,0.3l-1.7-1.7c-0.1-0.1-0.3-0.2-0.4-0.1l-2.3,0.4c-0.4,0.1-0.7-0.4-0.5-0.7l1.1-2.1
			c0.1-0.2,0.1-0.3,0-0.5l-1.1-2.1c-0.2-0.4,0.1-0.8,0.5-0.7l2.3,0.4c0.2,0,0.3,0,0.4-0.1l1.7-1.7C281,90.3,281.5,90.5,281.6,90.9z"
			/>
		<path class="st5" d="M281,40.4l1.4,1.9c0.1,0.1,0.3,0.2,0.4,0.2l2.4-0.1c0.4,0,0.7,0.4,0.4,0.8l-1.4,2c-0.1,0.1-0.1,0.3-0.1,0.5
			l0.8,2.2c0.1,0.4-0.2,0.8-0.6,0.7l-2.3-0.7c-0.2-0.1-0.3,0-0.5,0.1l-1.9,1.5c-0.3,0.3-0.8,0-0.8-0.4l-0.1-2.4
			c0-0.2-0.1-0.3-0.2-0.4l-2-1.3c-0.3-0.2-0.3-0.8,0.1-0.9l2.2-0.8c0.2-0.1,0.3-0.2,0.3-0.3l0.6-2.3C280.2,40.1,280.8,40,281,40.4z"
			/>
		<path class="st5" d="M204.1,141.7l5.2,6.6c0.1,0.1,0.3,0.2,0.4,0.2l8.4-0.5c0.4,0,0.7,0.4,0.4,0.8l-4.7,7c-0.1,0.1-0.1,0.3,0,0.5
			l3.1,7.8c0.1,0.4-0.2,0.8-0.6,0.7l-8.1-2.3c-0.2,0-0.3,0-0.5,0.1l-6.5,5.4c-0.3,0.3-0.8,0.1-0.8-0.4l-0.3-8.4
			c0-0.2-0.1-0.3-0.2-0.4l-7.1-4.5c-0.3-0.2-0.3-0.8,0.1-0.9l7.9-2.9c0.2-0.1,0.3-0.2,0.3-0.4l2.1-8.2
			C203.3,141.5,203.9,141.4,204.1,141.7z"/>
		<path class="st2" d="M81.7,37.2c3,0.3,5.9,0.8,8.8,1.5c-2.2,1.8-4.2,3.8-6,6c-3.5,3.9-6.3,8.4-8.5,13.1
			c-13.1,28.3-0.8,61.9,27.5,75c4.8,2.2,9.8,3.7,15,4.5c2.8,0.5,5.6,0.7,8.5,0.7c-1.7,2.4-3.6,4.6-5.7,6.7
			c-18.8,19.3-47.7,24.6-72.1,13.4c-31.9-14.7-45.8-52.4-31.1-84.3C29.3,49.3,54.9,34.7,81.7,37.2z"/>
	</g>
</g>
</svg>
