<?xml version="1.0" encoding="utf-8"?>
<!-- Generator: Adobe Illustrator 25.1.0, SVG Export Plug-In . SVG Version: 6.00 Build 0)  -->
<svg version="1.1" id="Layer_1" xmlns="http://www.w3.org/2000/svg" xmlns:xlink="http://www.w3.org/1999/xlink" x="0px" y="0px"
	 viewBox="0 0 331 433.7" style="enable-background:new 0 0 331 433.7;" xml:space="preserve">
<style type="text/css">
	.st0{fill:#FFFFFF;}
	.st1{fill:#00CDDC;}
	.st2{clip-path:url(#SVGID_2_);}
	.st3{fill-rule:evenodd;clip-rule:evenodd;fill:#808080;}
	.st4{fill-rule:evenodd;clip-rule:evenodd;fill:#DCE3E5;}
	.st5{fill-rule:evenodd;clip-rule:evenodd;fill:#00CDDC;}
	.st6{fill:#404040;}
</style>
<g>
	<g>
		<path class="st0" d="M331,317.6c0-269.4-7.6-272.7-139.1-274.7c-28.3-0.4-71.3,0.6-106,1.7c-34.1,1.1-68.7,8.9-73.9,34.5
			C4,119.1,0.5,194.5,0.5,267.8c0,115.4-6.6,143,28.4,157.6c35.6,14.8,166.4,5.6,209.4,3.8C282.6,427.3,331,435.2,331,317.6z"/>
		<path class="st1" d="M151.1,0.4c2.4-0.3,4.8-0.4,7.2-0.4c-1.4,1.8-2.7,3.6-3.7,5.6c-2.1,3.6-3.5,7.5-4.5,11.5
			c-5.5,24,9.9,47.6,34.3,52.8c4.1,0.9,8.3,1.2,12.5,0.9c2.3-0.1,4.5-0.4,6.8-0.9c-0.9,2.1-2.1,4.2-3.3,6.1
			C188.9,94,167.1,103.2,146,98.7c-27.5-5.7-44.8-32.3-38.7-59.3C112.1,18.7,129.6,3.1,151.1,0.4z"/>
		<g>
			<defs>
				<rect id="SVGID_1_" x="65" y="74.3" width="201" height="113.4"/>
			</defs>
			<clipPath id="SVGID_2_">
				<use xlink:href="#SVGID_1_"  style="overflow:visible;"/>
			</clipPath>
			<g class="st2">
				<path class="st3" d="M147.5,102.4l-9.3,4c-1.1,0.5-1.6,1.7-1.1,2.8l0,0.1c0.6,1.4,2.1,1.8,3.4,0.9l10.1-7L147.5,102.4z"/>
				<path class="st3" d="M146.1,98.2h-10.1c-1.2,0-2.1,1-2.1,2.1v0.1c0,1.5,1.3,2.5,2.8,2.2l12-2.5L146.1,98.2z"/>
				<path class="st3" d="M174,97.6l10.1,0.1c1.2,0,2.1-0.9,2.1-2.1v-0.1c0-1.5-1.3-2.5-2.7-2.2l-12,2.4L174,97.6z"/>
				<path class="st3" d="M170.1,103.8l8.3,5.9c1,0.7,2.3,0.4,2.9-0.6l0.1-0.1c0.9-1.3,0.4-2.8-1-3.4l-11.2-5L170.1,103.8z"/>
				<path class="st3" d="M216.8,123.9l-9-4.7c-1-0.6-2.3-0.1-2.8,0.9l0,0.1c-0.7,1.4,0,2.8,1.4,3.2l11.7,3.4L216.8,123.9z"/>
				<path class="st3" d="M219.1,120.1l-6.4-7.9c-0.7-0.9-2.1-1-3-0.3l-0.1,0.1c-1.1,1-1.1,2.6,0.1,3.6l9.5,7.8L219.1,120.1z"/>
				<path class="st3" d="M237.3,141.5l6.4,7.9c0.7,0.9,2.1,1,3,0.3l0.1-0.1c1.2-1,1.1-2.6,0-3.6l-9.4-7.8L237.3,141.5z"/>
				<path class="st3" d="M230.1,142.4l0.7,10.2c0.1,1.2,1.1,2.1,2.3,1.9h0.1c1.5-0.2,2.4-1.5,2-2.9l-3.3-11.9L230.1,142.4z"/>
				<path class="st3" d="M85.9,148.5l-5.5,7.4c-0.6,0.9-0.4,2.1,0.4,2.7l0.1,0.1c1.1,0.8,2.5,0.4,3.1-0.8l4.7-10L85.9,148.5z"/>
				<path class="st3" d="M82.9,145.9l-7.9,4.7c-0.9,0.5-1.2,1.7-0.7,2.6l0,0.1c0.7,1.2,2.1,1.4,3.1,0.5l8.2-7.4L82.9,145.9z"/>
				<path class="st3" d="M104.3,132.6l7.9-4.6c0.9-0.5,1.2-1.7,0.7-2.6l0-0.1c-0.7-1.2-2.1-1.4-3.1-0.5l-8.3,7.3L104.3,132.6z"/>
				<path class="st3" d="M104.1,139.2l9.1,0.8c1,0.1,2-0.7,2-1.8v-0.1c0.1-1.4-0.9-2.4-2.3-2.2l-10.9,1.3L104.1,139.2z"/>
				<path class="st4" d="M87.4,150.9c-2.6,0.5-4.4-0.3-5.1-2.8c-4.2,4.5-11.1-1.9-6.9-5.9c-2-2-2-3.9,0.2-5.9c-1-2.9-0.7-5,2.8-5.6
					c-0.3-4.1,1.2-5.8,5-4.6c0.7-3.7,2.6-4.8,5.7-3c1.2-2.7,2.8-3.2,4.7-1.6l2.5-1.3c-0.5-0.5-1-1.1-1.2-1.7
					c-0.2,0.1-0.3,0.2-0.5,0.2c-1.5,0.6-3.1,0.2-3.5-0.8c-0.4-1,0.6-2.3,2.1-2.8c0.8-0.4,1.7-0.4,2.4-0.2c1.4-1.6,4.3-2.5,7.4-1.9
					c4.1,0.8,7,3.5,6.6,6.1c-0.3,2.2-3,3.7-6.2,3.7c2.5,2.1,2.1,3.8,0.6,5.5c2.2,0.7,2.6,2,1.4,3.7c2.7,0.2,2.3,3.5-0.2,5.3
					c0.6,1.1-2.5,5.8-3.8,5.8c0.5,2.2-0.9,3.9-3.4,2.7c-0.1,2.5-1,4-4,2.4l-3.6,1.6L87.4,150.9z"/>
				<path class="st4" d="M147.6,105.6c-2.7-1-4-2.8-3.4-5.6c-6.5,1.9-9.5-8.1-3.3-9.6c-0.8-3,0.2-4.9,3.4-5.6
					c0.6-3.3,2.1-5.2,5.7-3.8c2-4.1,4.4-4.9,7.3-1.6c2.7-3.2,5.1-3.2,7.1,0.3c2.7-1.9,4.5-1.5,5.4,1.1l3.1,0.2
					c-0.3-0.8-0.3-1.6-0.2-2.3c-0.2,0-0.3,0-0.6,0c-1.8-0.4-3.1-1.5-2.9-2.7s1.8-1.9,3.6-1.5c1,0.1,1.9,0.6,2.4,1.2
					c2.2-0.8,5.5,0.1,8.2,2.4c3.5,3,4.8,7.3,2.9,9.6c-1.5,2-4.9,1.8-8,0c1.2,3.4-0.1,4.9-2.5,5.6c1.7,1.9,1.4,3.3-0.7,4.3
					c2.5,1.7,0.3,4.6-3.1,5c0,1.4-5.6,4.1-6.9,3.4c-0.7,2.4-3,3.2-4.8,0.7c-1.5,2.4-3.2,3.2-5.1,0.1l-4.4-0.5L147.6,105.6z"/>
				<path class="st4" d="M214.5,126c-1-2.8-0.4-4.9,2.1-6.2c-5.6-3.8,0.1-12.6,5.2-8.7c1.8-2.6,3.9-3,6.4-0.9
					c2.9-1.6,5.3-1.7,6.6,2.1c4.4-1.1,6.6,0.3,5.9,4.7c4.2,0.1,5.7,2,4.3,5.7c3.1,0.9,4,2.6,2.6,4.9l1.9,2.6c0.5-0.7,1-1.3,1.6-1.6
					c-0.1-0.2-0.2-0.3-0.4-0.5c-0.9-1.6-0.8-3.4,0.2-4c1-0.6,2.6,0.2,3.5,1.8c0.5,0.9,0.7,1.8,0.6,2.6c2,1.3,3.4,4.3,3.4,7.9
					c-0.1,4.7-2.5,8.4-5.5,8.3c-2.5,0-4.5-2.7-5.1-6.3c-1.9,3.1-3.8,3-5.8,1.6c-0.3,2.6-1.7,3.2-3.8,2.2c0.3,3-3.4,3.2-5.8,0.7
					c-1.1,0.9-6.7-1.7-7-3.2c-2.3,0.9-4.4-0.4-3.6-3.3c-2.8,0.3-4.5-0.4-3.3-4l-2.4-3.7L214.5,126z"/>
				<path class="st5" d="M187.2,130.3h-48.8c-1.6,0-2.9,1.3-2.9,2.9v5.2c0,1.6,1.3,2.9,2.9,2.9h14.9c1.6,0,2.9,1.3,2.9,2.9v36.1
					c0,1.6,1.3,2.9,2.9,2.9h7.3c1.6,0,2.9-1.3,2.9-2.9v-36.1c0-1.6,1.3-2.9,2.9-2.9h14.9c1.6,0,2.9-1.3,2.9-2.9v-5.2
					C190.1,131.7,188.8,130.3,187.2,130.3z"/>
				<path class="st5" d="M242.3,187.7H88.7c-1.9,0-3.5-2-3.5-4.5c0-2.5,1.6-4.5,3.5-4.5h153.6c1.9,0,3.5,2,3.5,4.5
					C245.8,185.7,244.2,187.7,242.3,187.7z"/>
			</g>
		</g>
		<path class="st6" d="M17.5,239.7v-14h1.7v12.7h6.5v1.3H17.5z M31.9,240c-0.9,0-1.8-0.2-2.5-0.6c-0.7-0.4-1.3-1-1.7-1.8
			c-0.4-0.8-0.6-1.7-0.6-2.7c0-1,0.2-1.9,0.6-2.7c0.4-0.8,1-1.4,1.7-1.8c0.7-0.4,1.6-0.7,2.6-0.7c1,0,1.8,0.2,2.5,0.7
			c0.7,0.4,1.2,1,1.6,1.7c0.4,0.7,0.6,1.5,0.6,2.3c0,0.1,0,0.3,0,0.4c0,0.1,0,0.3,0,0.5h-7.9c0,0.8,0.2,1.4,0.5,1.9
			c0.3,0.5,0.7,0.9,1.2,1.1c0.5,0.3,1,0.4,1.5,0.4c0.7,0,1.3-0.2,1.7-0.5c0.5-0.3,0.8-0.8,1-1.3h1.7c-0.3,0.9-0.8,1.7-1.5,2.3
			C34.1,239.7,33.1,240,31.9,240z M31.9,231c-0.8,0-1.5,0.2-2.1,0.7c-0.6,0.5-1,1.2-1.1,2.1H35c0-0.9-0.3-1.6-0.9-2.1
			C33.5,231.2,32.8,231,31.9,231z M42.1,240c-0.8,0-1.5-0.1-2.1-0.4c-0.5-0.3-1-0.7-1.2-1.1c-0.3-0.5-0.4-1-0.4-1.5
			c0-1,0.4-1.8,1.2-2.3c0.8-0.5,1.8-0.8,3.2-0.8h2.7v-0.1c0-0.9-0.2-1.5-0.7-2c-0.5-0.5-1.1-0.7-1.8-0.7c-0.7,0-1.2,0.2-1.7,0.5
			c-0.5,0.3-0.8,0.8-0.9,1.4h-1.7c0.1-0.7,0.3-1.3,0.7-1.8c0.4-0.5,1-0.9,1.6-1.1c0.6-0.3,1.3-0.4,2-0.4c1.4,0,2.4,0.4,3.1,1.1
			c0.7,0.7,1.1,1.7,1.1,2.9v6.1h-1.5l-0.1-1.8c-0.3,0.6-0.7,1-1.2,1.4C43.8,239.8,43.1,240,42.1,240z M42.4,238.5
			c0.6,0,1.2-0.2,1.6-0.5c0.5-0.3,0.8-0.8,1.1-1.3c0.2-0.5,0.4-1.1,0.4-1.7v0h-2.5c-1,0-1.7,0.2-2.1,0.5c-0.4,0.3-0.6,0.8-0.6,1.3
			c0,0.5,0.2,0.9,0.6,1.3C41.2,238.4,41.7,238.5,42.4,238.5z M49.7,239.7v-9.9h1.5l0.1,1.9c0.3-0.7,0.8-1.2,1.4-1.6
			c0.6-0.4,1.4-0.6,2.3-0.6v1.8h-0.5c-0.6,0-1.1,0.1-1.6,0.3c-0.5,0.2-0.9,0.5-1.2,1c-0.3,0.5-0.4,1.2-0.4,2v5H49.7z M56.9,239.7
			v-9.9h1.5l0.1,1.8c0.3-0.6,0.8-1.1,1.4-1.5c0.6-0.4,1.3-0.5,2-0.5c1.2,0,2.1,0.4,2.8,1.1c0.7,0.7,1.1,1.8,1.1,3.3v5.8h-1.7v-5.6
			c0-2.1-0.9-3.1-2.6-3.1c-0.9,0-1.6,0.3-2.1,0.9c-0.6,0.6-0.8,1.5-0.8,2.6v5.1H56.9z M73.7,239.7v-14.4h1.7v6.2
			c0.3-0.6,0.8-1.1,1.4-1.4c0.6-0.3,1.3-0.5,2-0.5c1.1,0,2.1,0.4,2.8,1.1c0.7,0.7,1,1.8,1,3.3v5.8h-1.7v-5.6c0-2.1-0.8-3.1-2.5-3.1
			c-0.9,0-1.6,0.3-2.2,0.9c-0.6,0.6-0.9,1.5-0.9,2.6v5.1H73.7z M89.6,240c-0.9,0-1.8-0.2-2.5-0.6c-0.7-0.4-1.3-1-1.8-1.8
			c-0.4-0.8-0.6-1.7-0.6-2.8c0-1.1,0.2-2,0.7-2.7c0.4-0.8,1-1.4,1.8-1.8c0.8-0.4,1.6-0.6,2.5-0.6c0.9,0,1.8,0.2,2.5,0.6
			c0.7,0.4,1.3,1,1.8,1.8c0.4,0.8,0.7,1.7,0.7,2.7c0,1.1-0.2,2-0.7,2.8c-0.4,0.8-1,1.4-1.8,1.8C91.4,239.7,90.6,240,89.6,240z
			 M89.6,238.5c0.6,0,1.1-0.1,1.6-0.4c0.5-0.3,0.9-0.7,1.2-1.3c0.3-0.6,0.5-1.3,0.5-2.1c0-0.8-0.2-1.5-0.5-2.1
			c-0.3-0.6-0.7-1-1.2-1.3c-0.5-0.3-1-0.4-1.6-0.4c-0.6,0-1.1,0.1-1.6,0.4c-0.5,0.3-0.9,0.7-1.2,1.3c-0.3,0.6-0.5,1.3-0.5,2.1
			c0,0.8,0.2,1.5,0.5,2.1c0.3,0.6,0.7,1,1.2,1.3C88.5,238.4,89.1,238.5,89.6,238.5z M98.6,239.7l-2.9-9.9h1.7l2.1,7.8l2.3-7.8h1.9
			l2.3,7.8l2.1-7.8h1.7l-2.9,9.9h-1.7l-2.4-8.2l-2.4,8.2H98.6z M120.7,240c-1.2,0-2.2-0.3-3-0.9c-0.8-0.6-1.2-1.4-1.4-2.4h1.7
			c0.1,0.5,0.4,1,0.8,1.4c0.5,0.4,1.1,0.6,1.8,0.6c0.7,0,1.2-0.1,1.6-0.4c0.3-0.3,0.5-0.7,0.5-1.1c0-0.6-0.2-1-0.7-1.2
			c-0.4-0.2-1-0.4-1.8-0.5c-0.5-0.1-1.1-0.3-1.6-0.5c-0.5-0.2-1-0.5-1.3-0.8c-0.4-0.4-0.5-0.9-0.5-1.5c0-0.9,0.3-1.6,1-2.1
			c0.7-0.6,1.5-0.8,2.6-0.8c1.1,0,1.9,0.3,2.6,0.8c0.7,0.5,1.1,1.3,1.2,2.2h-1.7c-0.1-0.5-0.3-0.9-0.7-1.2c-0.4-0.3-0.8-0.4-1.5-0.4
			c-0.6,0-1.1,0.1-1.4,0.4c-0.3,0.3-0.5,0.6-0.5,1c0,0.4,0.2,0.7,0.6,0.9c0.4,0.2,1,0.4,1.7,0.6c0.6,0.1,1.2,0.3,1.7,0.5
			c0.6,0.2,1,0.5,1.4,0.9c0.4,0.4,0.5,0.9,0.5,1.6c0,0.9-0.3,1.6-1,2.2C122.8,239.7,121.9,240,120.7,240z M126.9,239.7v-14.4h1.7
			v14.4H126.9z M135.8,240c-0.9,0-1.8-0.2-2.5-0.6c-0.7-0.4-1.3-1-1.7-1.8c-0.4-0.8-0.6-1.7-0.6-2.7c0-1,0.2-1.9,0.6-2.7
			c0.4-0.8,1-1.4,1.7-1.8c0.7-0.4,1.6-0.7,2.6-0.7c1,0,1.8,0.2,2.5,0.7c0.7,0.4,1.2,1,1.6,1.7c0.4,0.7,0.6,1.5,0.6,2.3
			c0,0.1,0,0.3,0,0.4c0,0.1,0,0.3,0,0.5h-7.9c0,0.8,0.2,1.4,0.5,1.9c0.3,0.5,0.7,0.9,1.2,1.1c0.5,0.3,1,0.4,1.5,0.4
			c0.7,0,1.3-0.2,1.7-0.5c0.5-0.3,0.8-0.8,1-1.3h1.7c-0.3,0.9-0.8,1.7-1.5,2.3C138,239.7,137,240,135.8,240z M135.8,231
			c-0.8,0-1.5,0.2-2.1,0.7c-0.6,0.5-1,1.2-1.1,2.1h6.2c0-0.9-0.3-1.6-0.9-2.1C137.4,231.2,136.7,231,135.8,231z M147.2,240
			c-0.9,0-1.8-0.2-2.5-0.6c-0.7-0.4-1.3-1-1.7-1.8c-0.4-0.8-0.6-1.7-0.6-2.7c0-1,0.2-1.9,0.6-2.7c0.4-0.8,1-1.4,1.7-1.8
			c0.7-0.4,1.6-0.7,2.6-0.7c1,0,1.8,0.2,2.5,0.7c0.7,0.4,1.2,1,1.6,1.7c0.4,0.7,0.6,1.5,0.6,2.3c0,0.1,0,0.3,0,0.4
			c0,0.1,0,0.3,0,0.5H144c0,0.8,0.2,1.4,0.5,1.9c0.3,0.5,0.7,0.9,1.2,1.1c0.5,0.3,1,0.4,1.5,0.4c0.7,0,1.3-0.2,1.7-0.5
			c0.5-0.3,0.8-0.8,1-1.3h1.7c-0.3,0.9-0.8,1.7-1.5,2.3C149.4,239.7,148.4,240,147.2,240z M147.2,231c-0.8,0-1.5,0.2-2.1,0.7
			c-0.6,0.5-1,1.2-1.1,2.1h6.2c0-0.9-0.3-1.6-0.9-2.1C148.8,231.2,148.1,231,147.2,231z M154.2,244.1v-14.3h1.5l0.2,1.6
			c0.3-0.5,0.8-0.9,1.4-1.3c0.6-0.4,1.4-0.6,2.3-0.6c1,0,1.8,0.2,2.6,0.7c0.7,0.5,1.3,1.1,1.7,1.9c0.4,0.8,0.6,1.7,0.6,2.7
			s-0.2,1.9-0.6,2.7c-0.4,0.8-1,1.4-1.7,1.8c-0.7,0.4-1.6,0.7-2.6,0.7c-0.8,0-1.5-0.2-2.2-0.5c-0.6-0.3-1.1-0.8-1.4-1.4v6.1H154.2z
			 M159.3,238.5c0.7,0,1.3-0.2,1.8-0.5c0.5-0.3,0.9-0.8,1.2-1.3c0.3-0.6,0.4-1.2,0.4-2c0-0.7-0.1-1.4-0.4-2c-0.3-0.6-0.7-1-1.2-1.3
			c-0.5-0.3-1.1-0.5-1.8-0.5c-0.7,0-1.3,0.2-1.8,0.5c-0.5,0.3-0.9,0.7-1.2,1.3c-0.3,0.6-0.4,1.2-0.4,2c0,0.7,0.1,1.4,0.4,2
			c0.3,0.6,0.7,1,1.2,1.3C158,238.3,158.6,238.5,159.3,238.5z M175.3,240c-0.8,0-1.5-0.1-2.1-0.4c-0.5-0.3-1-0.7-1.2-1.1
			c-0.3-0.5-0.4-1-0.4-1.5c0-1,0.4-1.8,1.2-2.3c0.8-0.5,1.8-0.8,3.2-0.8h2.7v-0.1c0-0.9-0.2-1.5-0.7-2c-0.5-0.5-1.1-0.7-1.8-0.7
			c-0.7,0-1.2,0.2-1.7,0.5c-0.5,0.3-0.8,0.8-0.9,1.4h-1.7c0.1-0.7,0.3-1.3,0.7-1.8c0.4-0.5,1-0.9,1.6-1.1c0.6-0.3,1.3-0.4,2-0.4
			c1.4,0,2.4,0.4,3.1,1.1c0.7,0.7,1.1,1.7,1.1,2.9v6.1h-1.5l-0.1-1.8c-0.3,0.6-0.7,1-1.2,1.4C176.9,239.8,176.2,240,175.3,240z
			 M175.6,238.5c0.6,0,1.2-0.2,1.6-0.5c0.5-0.3,0.8-0.8,1.1-1.3c0.2-0.5,0.4-1.1,0.4-1.7v0h-2.5c-1,0-1.7,0.2-2.1,0.5
			c-0.4,0.3-0.6,0.8-0.6,1.3c0,0.5,0.2,0.9,0.6,1.3C174.3,238.4,174.9,238.5,175.6,238.5z M183.4,239.7v-8.5h-1.5v-1.4h1.5v-1.7
			c0-1,0.2-1.7,0.7-2.1c0.5-0.4,1.2-0.7,2.1-0.7h1v1.4h-0.7c-0.5,0-0.9,0.1-1.1,0.3c-0.2,0.2-0.3,0.5-0.3,1v1.7h2.4v1.4H185v8.5
			H183.4z M190,239.7v-8.5h-1.5v-1.4h1.5v-1.7c0-1,0.2-1.7,0.7-2.1c0.5-0.4,1.2-0.7,2.1-0.7h1v1.4h-0.7c-0.5,0-0.9,0.1-1.1,0.3
			c-0.2,0.2-0.3,0.5-0.3,1v1.7h2.4v1.4h-2.4v8.5H190z M200.2,240c-0.9,0-1.8-0.2-2.5-0.6c-0.7-0.4-1.3-1-1.7-1.8
			c-0.4-0.8-0.6-1.7-0.6-2.7c0-1,0.2-1.9,0.6-2.7c0.4-0.8,1-1.4,1.7-1.8c0.7-0.4,1.6-0.7,2.6-0.7c1,0,1.8,0.2,2.5,0.7
			c0.7,0.4,1.2,1,1.6,1.7c0.4,0.7,0.6,1.5,0.6,2.3c0,0.1,0,0.3,0,0.4c0,0.1,0,0.3,0,0.5H197c0,0.8,0.2,1.4,0.5,1.9
			c0.3,0.5,0.7,0.9,1.2,1.1c0.5,0.3,1,0.4,1.5,0.4c0.7,0,1.3-0.2,1.7-0.5c0.5-0.3,0.8-0.8,1-1.3h1.7c-0.3,0.9-0.8,1.7-1.5,2.3
			C202.4,239.7,201.4,240,200.2,240z M200.2,231c-0.8,0-1.5,0.2-2.1,0.7c-0.6,0.5-1,1.2-1.1,2.1h6.2c0-0.9-0.3-1.6-0.9-2.1
			C201.8,231.2,201.1,231,200.2,231z M211.7,240c-0.9,0-1.8-0.2-2.6-0.6c-0.7-0.4-1.3-1-1.8-1.8c-0.4-0.8-0.6-1.7-0.6-2.7
			s0.2-1.9,0.6-2.7c0.4-0.8,1-1.4,1.8-1.8c0.8-0.4,1.6-0.7,2.6-0.7c1.2,0,2.2,0.3,3,0.9c0.8,0.6,1.3,1.4,1.5,2.5h-1.7
			c-0.1-0.6-0.5-1.1-1-1.4c-0.5-0.3-1.1-0.5-1.8-0.5c-0.6,0-1.1,0.1-1.6,0.4c-0.5,0.3-0.9,0.7-1.2,1.3c-0.3,0.6-0.5,1.3-0.5,2.1
			c0,0.8,0.2,1.5,0.5,2.1c0.3,0.6,0.7,1,1.2,1.3c0.5,0.3,1,0.4,1.6,0.4c0.7,0,1.3-0.2,1.8-0.5c0.5-0.3,0.8-0.8,1-1.5h1.7
			c-0.2,1-0.7,1.8-1.5,2.4C213.9,239.6,212.9,240,211.7,240z M222.2,239.7c-0.9,0-1.6-0.2-2.1-0.7s-0.8-1.2-0.8-2.4v-5.5h-1.7v-1.4
			h1.7l0.2-2.4h1.5v2.4h2.9v1.4H221v5.5c0,0.6,0.1,1.1,0.4,1.3c0.3,0.2,0.7,0.3,1.3,0.3h1v1.4H222.2z M229.8,240
			c-1.2,0-2.2-0.3-3-0.9c-0.8-0.6-1.2-1.4-1.4-2.4h1.7c0.1,0.5,0.4,1,0.8,1.4c0.5,0.4,1.1,0.6,1.8,0.6c0.7,0,1.2-0.1,1.6-0.4
			c0.3-0.3,0.5-0.7,0.5-1.1c0-0.6-0.2-1-0.7-1.2c-0.4-0.2-1-0.4-1.8-0.5c-0.5-0.1-1.1-0.3-1.6-0.5c-0.5-0.2-1-0.5-1.3-0.8
			c-0.4-0.4-0.5-0.9-0.5-1.5c0-0.9,0.3-1.6,1-2.1c0.7-0.6,1.5-0.8,2.6-0.8c1.1,0,1.9,0.3,2.6,0.8c0.7,0.5,1.1,1.3,1.2,2.2h-1.7
			c-0.1-0.5-0.3-0.9-0.7-1.2c-0.4-0.3-0.8-0.4-1.5-0.4c-0.6,0-1.1,0.1-1.4,0.4c-0.3,0.3-0.5,0.6-0.5,1c0,0.4,0.2,0.7,0.6,0.9
			c0.4,0.2,1,0.4,1.7,0.6c0.6,0.1,1.2,0.3,1.7,0.5c0.6,0.2,1,0.5,1.4,0.9c0.4,0.4,0.5,0.9,0.5,1.6c0,0.9-0.3,1.6-1,2.2
			C231.9,239.7,231,240,229.8,240z M245.2,239.7c-0.9,0-1.6-0.2-2.1-0.7s-0.8-1.2-0.8-2.4v-5.5h-1.7v-1.4h1.7l0.2-2.4h1.5v2.4h2.9
			v1.4H244v5.5c0,0.6,0.1,1.1,0.4,1.3c0.3,0.2,0.7,0.3,1.3,0.3h1v1.4H245.2z M249,239.7v-14.4h1.7v6.2c0.3-0.6,0.8-1.1,1.4-1.4
			c0.6-0.3,1.3-0.5,2-0.5c1.1,0,2.1,0.4,2.8,1.1c0.7,0.7,1,1.8,1,3.3v5.8h-1.7v-5.6c0-2.1-0.8-3.1-2.5-3.1c-0.9,0-1.6,0.3-2.2,0.9
			c-0.6,0.6-0.9,1.5-0.9,2.6v5.1H249z M264.9,240c-0.9,0-1.8-0.2-2.5-0.6c-0.7-0.4-1.3-1-1.7-1.8c-0.4-0.8-0.6-1.7-0.6-2.7
			c0-1,0.2-1.9,0.6-2.7c0.4-0.8,1-1.4,1.7-1.8c0.7-0.4,1.6-0.7,2.6-0.7c1,0,1.8,0.2,2.5,0.7c0.7,0.4,1.2,1,1.6,1.7
			c0.4,0.7,0.6,1.5,0.6,2.3c0,0.1,0,0.3,0,0.4c0,0.1,0,0.3,0,0.5h-7.9c0,0.8,0.2,1.4,0.5,1.9c0.3,0.5,0.7,0.9,1.2,1.1
			c0.5,0.3,1,0.4,1.5,0.4c0.7,0,1.3-0.2,1.7-0.5c0.5-0.3,0.8-0.8,1-1.3h1.7c-0.3,0.9-0.8,1.7-1.5,2.3
			C267.1,239.7,266.1,240,264.9,240z M264.9,231c-0.8,0-1.5,0.2-2.1,0.7c-0.6,0.5-1,1.2-1.1,2.1h6.2c0-0.9-0.3-1.6-0.9-2.1
			C266.5,231.2,265.8,231,264.9,231z M22.7,264c-0.8,0-1.5-0.2-2.2-0.5c-0.6-0.3-1.1-0.8-1.4-1.4l-0.2,1.7h-1.5v-14.4h1.7v6.1
			c0.3-0.5,0.8-0.9,1.4-1.3c0.6-0.4,1.4-0.6,2.3-0.6c1,0,1.8,0.2,2.6,0.7c0.7,0.5,1.3,1.1,1.7,1.9c0.4,0.8,0.6,1.7,0.6,2.7
			s-0.2,1.9-0.6,2.7c-0.4,0.8-1,1.4-1.7,1.8C24.5,263.7,23.7,264,22.7,264z M22.5,262.5c0.7,0,1.3-0.2,1.8-0.5
			c0.5-0.3,0.9-0.8,1.2-1.3s0.4-1.2,0.4-2c0-0.7-0.1-1.4-0.4-2s-0.7-1-1.2-1.3c-0.5-0.3-1.1-0.5-1.8-0.5s-1.3,0.2-1.8,0.5
			c-0.5,0.3-0.9,0.7-1.2,1.3s-0.4,1.2-0.4,2c0,0.7,0.1,1.4,0.4,2s0.7,1,1.2,1.3C21.2,262.3,21.8,262.5,22.5,262.5z M29.9,263.7v-9.9
			h1.5l0.1,1.9c0.3-0.7,0.8-1.2,1.4-1.6c0.6-0.4,1.4-0.6,2.3-0.6v1.8h-0.5c-0.6,0-1.1,0.1-1.6,0.3c-0.5,0.2-0.9,0.5-1.2,1
			c-0.3,0.5-0.4,1.2-0.4,2v5H29.9z M40.5,264c-0.8,0-1.5-0.1-2.1-0.4c-0.5-0.3-1-0.7-1.2-1.1c-0.3-0.5-0.4-1-0.4-1.5
			c0-1,0.4-1.8,1.2-2.3c0.8-0.5,1.8-0.8,3.2-0.8h2.7v-0.1c0-0.9-0.2-1.5-0.7-2c-0.5-0.5-1.1-0.7-1.8-0.7c-0.7,0-1.2,0.2-1.7,0.5
			c-0.5,0.3-0.8,0.8-0.9,1.4H37c0.1-0.7,0.3-1.3,0.7-1.8c0.4-0.5,1-0.9,1.6-1.1c0.6-0.3,1.3-0.4,2-0.4c1.4,0,2.4,0.4,3.1,1.1
			c0.7,0.7,1.1,1.7,1.1,2.9v6.1H44l-0.1-1.8c-0.3,0.6-0.7,1-1.2,1.4C42.1,263.8,41.4,264,40.5,264z M40.8,262.5
			c0.6,0,1.2-0.2,1.6-0.5c0.5-0.3,0.8-0.8,1.1-1.3c0.2-0.5,0.4-1.1,0.4-1.7v0h-2.5c-1,0-1.7,0.2-2.1,0.5c-0.4,0.3-0.6,0.8-0.6,1.3
			c0,0.5,0.2,0.9,0.6,1.3C39.5,262.4,40.1,262.5,40.8,262.5z M49,251.6c-0.3,0-0.6-0.1-0.8-0.3c-0.2-0.2-0.3-0.5-0.3-0.8
			c0-0.3,0.1-0.6,0.3-0.8c0.2-0.2,0.5-0.3,0.8-0.3c0.3,0,0.6,0.1,0.8,0.3c0.2,0.2,0.3,0.5,0.3,0.8c0,0.3-0.1,0.6-0.3,0.8
			C49.6,251.5,49.4,251.6,49,251.6z M48.2,263.7v-9.9h1.7v9.9H48.2z M52.8,263.7v-9.9h1.5l0.1,1.8c0.3-0.6,0.8-1.1,1.4-1.5
			c0.6-0.4,1.3-0.5,2-0.5c1.2,0,2.1,0.4,2.8,1.1c0.7,0.7,1.1,1.8,1.1,3.3v5.8H60v-5.6c0-2.1-0.9-3.1-2.6-3.1c-0.9,0-1.6,0.3-2.1,0.9
			c-0.6,0.6-0.8,1.5-0.8,2.6v5.1H52.8z M72.8,264c-0.8,0-1.5-0.1-2.1-0.4c-0.5-0.3-1-0.7-1.2-1.1c-0.3-0.5-0.4-1-0.4-1.5
			c0-1,0.4-1.8,1.2-2.3c0.8-0.5,1.8-0.8,3.2-0.8h2.7v-0.1c0-0.9-0.2-1.5-0.7-2c-0.5-0.5-1.1-0.7-1.8-0.7c-0.7,0-1.2,0.2-1.7,0.5
			c-0.5,0.3-0.8,0.8-0.9,1.4h-1.7c0.1-0.7,0.3-1.3,0.7-1.8c0.4-0.5,1-0.9,1.6-1.1c0.6-0.3,1.3-0.4,2-0.4c1.4,0,2.4,0.4,3.1,1.1
			c0.7,0.7,1.1,1.7,1.1,2.9v6.1h-1.5l-0.1-1.8c-0.3,0.6-0.7,1-1.2,1.4C74.5,263.8,73.8,264,72.8,264z M73.1,262.5
			c0.6,0,1.2-0.2,1.6-0.5c0.5-0.3,0.8-0.8,1.1-1.3c0.2-0.5,0.4-1.1,0.4-1.7v0h-2.5c-1,0-1.7,0.2-2.1,0.5c-0.4,0.3-0.6,0.8-0.6,1.3
			c0,0.5,0.2,0.9,0.6,1.3C71.9,262.4,72.4,262.5,73.1,262.5z M80.4,263.7v-9.9h1.5l0.1,1.8c0.3-0.6,0.8-1.1,1.4-1.5
			c0.6-0.4,1.3-0.5,2-0.5c1.2,0,2.1,0.4,2.8,1.1c0.7,0.7,1.1,1.8,1.1,3.3v5.8h-1.7v-5.6c0-2.1-0.9-3.1-2.6-3.1
			c-0.9,0-1.6,0.3-2.1,0.9c-0.6,0.6-0.8,1.5-0.8,2.6v5.1H80.4z M96.3,264c-1,0-1.9-0.2-2.6-0.7c-0.7-0.5-1.3-1.1-1.7-1.9
			c-0.4-0.8-0.6-1.7-0.6-2.7s0.2-1.9,0.6-2.7c0.4-0.8,1-1.4,1.7-1.8c0.7-0.5,1.6-0.7,2.6-0.7c0.8,0,1.5,0.2,2.2,0.5
			c0.6,0.3,1.1,0.8,1.5,1.4v-6.1h1.7v14.4h-1.5l-0.2-1.6c-0.3,0.5-0.8,0.9-1.4,1.3C98,263.8,97.2,264,96.3,264z M96.5,262.5
			c0.7,0,1.3-0.2,1.8-0.5c0.5-0.3,0.9-0.8,1.2-1.3c0.3-0.6,0.4-1.2,0.4-2c0-0.7-0.1-1.4-0.4-2c-0.3-0.6-0.7-1-1.2-1.3
			c-0.5-0.3-1.1-0.5-1.8-0.5c-0.7,0-1.2,0.2-1.8,0.5c-0.5,0.3-0.9,0.7-1.2,1.3c-0.3,0.6-0.4,1.2-0.4,2c0,0.7,0.1,1.4,0.4,2
			c0.3,0.6,0.7,1,1.2,1.3C95.3,262.3,95.8,262.5,96.5,262.5z M115,264c-0.8,0-1.5-0.2-2.2-0.5c-0.6-0.3-1.1-0.8-1.4-1.4l-0.2,1.7
			h-1.5v-14.4h1.7v6.1c0.3-0.5,0.8-0.9,1.4-1.3c0.6-0.4,1.4-0.6,2.3-0.6c1,0,1.8,0.2,2.6,0.7c0.7,0.5,1.3,1.1,1.7,1.9
			c0.4,0.8,0.6,1.7,0.6,2.7s-0.2,1.9-0.6,2.7c-0.4,0.8-1,1.4-1.7,1.8C116.8,263.7,116,264,115,264z M114.8,262.5
			c0.7,0,1.3-0.2,1.8-0.5c0.5-0.3,0.9-0.8,1.2-1.3s0.4-1.2,0.4-2c0-0.7-0.1-1.4-0.4-2s-0.7-1-1.2-1.3c-0.5-0.3-1.1-0.5-1.8-0.5
			c-0.7,0-1.3,0.2-1.8,0.5c-0.5,0.3-0.9,0.7-1.2,1.3s-0.4,1.2-0.4,2c0,0.7,0.1,1.4,0.4,2s0.7,1,1.2,1.3
			C113.5,262.3,114.1,262.5,114.8,262.5z M126.7,264c-0.9,0-1.8-0.2-2.5-0.6c-0.7-0.4-1.3-1-1.8-1.8c-0.4-0.8-0.6-1.7-0.6-2.8
			c0-1.1,0.2-2,0.7-2.7c0.4-0.8,1-1.4,1.8-1.8c0.8-0.4,1.6-0.6,2.5-0.6c0.9,0,1.8,0.2,2.5,0.6c0.7,0.4,1.3,1,1.8,1.8
			c0.4,0.8,0.7,1.7,0.7,2.7c0,1.1-0.2,2-0.7,2.8c-0.4,0.8-1,1.4-1.8,1.8C128.5,263.7,127.7,264,126.7,264z M126.7,262.5
			c0.6,0,1.1-0.1,1.6-0.4c0.5-0.3,0.9-0.7,1.2-1.3c0.3-0.6,0.5-1.3,0.5-2.1c0-0.8-0.2-1.5-0.5-2.1c-0.3-0.6-0.7-1-1.2-1.3
			c-0.5-0.3-1-0.4-1.6-0.4c-0.6,0-1.1,0.1-1.6,0.4c-0.5,0.3-0.9,0.7-1.2,1.3c-0.3,0.6-0.5,1.3-0.5,2.1c0,0.8,0.2,1.5,0.5,2.1
			c0.3,0.6,0.7,1,1.2,1.3C125.7,262.4,126.2,262.5,126.7,262.5z M138.6,264c-1,0-1.9-0.2-2.6-0.7c-0.7-0.5-1.3-1.1-1.7-1.9
			c-0.4-0.8-0.6-1.7-0.6-2.7s0.2-1.9,0.6-2.7c0.4-0.8,1-1.4,1.7-1.8c0.7-0.5,1.6-0.7,2.6-0.7c0.8,0,1.5,0.2,2.2,0.5
			c0.6,0.3,1.1,0.8,1.5,1.4v-6.1h1.7v14.4h-1.5l-0.2-1.6c-0.3,0.5-0.8,0.9-1.4,1.3C140.2,263.8,139.5,264,138.6,264z M138.7,262.5
			c0.7,0,1.3-0.2,1.8-0.5c0.5-0.3,0.9-0.8,1.2-1.3c0.3-0.6,0.4-1.2,0.4-2c0-0.7-0.1-1.4-0.4-2c-0.3-0.6-0.7-1-1.2-1.3
			c-0.5-0.3-1.1-0.5-1.8-0.5c-0.7,0-1.2,0.2-1.8,0.5c-0.5,0.3-0.9,0.7-1.2,1.3c-0.3,0.6-0.4,1.2-0.4,2c0,0.7,0.1,1.4,0.4,2
			c0.3,0.6,0.7,1,1.2,1.3C137.5,262.3,138.1,262.5,138.7,262.5z M147.7,268.1l2.5-5.4h-0.6l-3.9-9h1.8l3.3,7.7l3.5-7.7h1.7
			l-6.5,14.3H147.7z M155.2,266.1l1.2-4.4h1.7l-1.7,4.4H155.2z M168.7,264c-0.8,0-1.5-0.1-2.1-0.4c-0.5-0.3-1-0.7-1.2-1.1
			c-0.3-0.5-0.4-1-0.4-1.5c0-1,0.4-1.8,1.2-2.3c0.8-0.5,1.8-0.8,3.2-0.8h2.7v-0.1c0-0.9-0.2-1.5-0.7-2c-0.5-0.5-1.1-0.7-1.8-0.7
			c-0.7,0-1.2,0.2-1.7,0.5c-0.5,0.3-0.8,0.8-0.9,1.4h-1.7c0.1-0.7,0.3-1.3,0.7-1.8c0.4-0.5,1-0.9,1.6-1.1c0.6-0.3,1.3-0.4,2-0.4
			c1.4,0,2.4,0.4,3.1,1.1c0.7,0.7,1.1,1.7,1.1,2.9v6.1h-1.5l-0.1-1.8c-0.3,0.6-0.7,1-1.2,1.4C170.3,263.8,169.6,264,168.7,264z
			 M168.9,262.5c0.6,0,1.2-0.2,1.6-0.5c0.5-0.3,0.8-0.8,1.1-1.3c0.2-0.5,0.4-1.1,0.4-1.7v0h-2.5c-1,0-1.7,0.2-2.1,0.5
			c-0.4,0.3-0.6,0.8-0.6,1.3c0,0.5,0.2,0.9,0.6,1.3C167.7,262.4,168.2,262.5,168.9,262.5z M176.2,263.7v-9.9h1.5l0.1,1.8
			c0.3-0.6,0.8-1.1,1.4-1.5c0.6-0.4,1.3-0.5,2-0.5c1.2,0,2.1,0.4,2.8,1.1c0.7,0.7,1.1,1.8,1.1,3.3v5.8h-1.7v-5.6
			c0-2.1-0.9-3.1-2.6-3.1c-0.9,0-1.6,0.3-2.1,0.9c-0.6,0.6-0.8,1.5-0.8,2.6v5.1H176.2z M192.1,264c-1,0-1.9-0.2-2.6-0.7
			c-0.7-0.5-1.3-1.1-1.7-1.9c-0.4-0.8-0.6-1.7-0.6-2.7s0.2-1.9,0.6-2.7c0.4-0.8,1-1.4,1.7-1.8c0.7-0.5,1.6-0.7,2.6-0.7
			c0.8,0,1.5,0.2,2.2,0.5c0.6,0.3,1.1,0.8,1.5,1.4v-6.1h1.7v14.4h-1.5l-0.2-1.6c-0.3,0.5-0.8,0.9-1.4,1.3
			C193.8,263.8,193,264,192.1,264z M192.3,262.5c0.7,0,1.3-0.2,1.8-0.5c0.5-0.3,0.9-0.8,1.2-1.3c0.3-0.6,0.4-1.2,0.4-2
			c0-0.7-0.1-1.4-0.4-2c-0.3-0.6-0.7-1-1.2-1.3c-0.5-0.3-1.1-0.5-1.8-0.5c-0.7,0-1.2,0.2-1.8,0.5c-0.5,0.3-0.9,0.7-1.2,1.3
			c-0.3,0.6-0.4,1.2-0.4,2c0,0.7,0.1,1.4,0.4,2c0.3,0.6,0.7,1,1.2,1.3C191.1,262.3,191.7,262.5,192.3,262.5z M208.8,264
			c-0.8,0-1.5-0.1-2.1-0.4c-0.5-0.3-1-0.7-1.2-1.1c-0.3-0.5-0.4-1-0.4-1.5c0-1,0.4-1.8,1.2-2.3c0.8-0.5,1.8-0.8,3.2-0.8h2.7v-0.1
			c0-0.9-0.2-1.5-0.7-2c-0.5-0.5-1.1-0.7-1.8-0.7c-0.7,0-1.2,0.2-1.7,0.5c-0.5,0.3-0.8,0.8-0.9,1.4h-1.7c0.1-0.7,0.3-1.3,0.7-1.8
			c0.4-0.5,1-0.9,1.6-1.1c0.6-0.3,1.3-0.4,2-0.4c1.4,0,2.4,0.4,3.1,1.1c0.7,0.7,1.1,1.7,1.1,2.9v6.1h-1.5l-0.1-1.8
			c-0.3,0.6-0.7,1-1.2,1.4C210.4,263.8,209.7,264,208.8,264z M209,262.5c0.6,0,1.2-0.2,1.6-0.5c0.5-0.3,0.8-0.8,1.1-1.3
			c0.2-0.5,0.4-1.1,0.4-1.7v0h-2.5c-1,0-1.7,0.2-2.1,0.5c-0.4,0.3-0.6,0.8-0.6,1.3c0,0.5,0.2,0.9,0.6,1.3
			C207.8,262.4,208.4,262.5,209,262.5z M221.6,264c-0.8,0-1.5-0.2-2.2-0.5c-0.6-0.3-1.1-0.8-1.4-1.4l-0.2,1.7h-1.5v-14.4h1.7v6.1
			c0.3-0.5,0.8-0.9,1.4-1.3c0.6-0.4,1.4-0.6,2.3-0.6c1,0,1.8,0.2,2.6,0.7c0.7,0.5,1.3,1.1,1.7,1.9c0.4,0.8,0.6,1.7,0.6,2.7
			s-0.2,1.9-0.6,2.7c-0.4,0.8-1,1.4-1.7,1.8C223.5,263.7,222.6,264,221.6,264z M221.4,262.5c0.7,0,1.3-0.2,1.8-0.5
			c0.5-0.3,0.9-0.8,1.2-1.3c0.3-0.6,0.4-1.2,0.4-2c0-0.7-0.1-1.4-0.4-2c-0.3-0.6-0.7-1-1.2-1.3c-0.5-0.3-1.1-0.5-1.8-0.5
			c-0.7,0-1.3,0.2-1.8,0.5c-0.5,0.3-0.9,0.7-1.2,1.3c-0.3,0.6-0.4,1.2-0.4,2c0,0.7,0.1,1.4,0.4,2c0.3,0.6,0.7,1,1.2,1.3
			C220.2,262.3,220.8,262.5,221.4,262.5z M233.4,264c-0.9,0-1.8-0.2-2.5-0.6c-0.7-0.4-1.3-1-1.8-1.8c-0.4-0.8-0.6-1.7-0.6-2.8
			c0-1.1,0.2-2,0.7-2.7c0.4-0.8,1-1.4,1.8-1.8c0.8-0.4,1.6-0.6,2.5-0.6c0.9,0,1.8,0.2,2.5,0.6c0.7,0.4,1.3,1,1.8,1.8
			c0.4,0.8,0.7,1.7,0.7,2.7c0,1.1-0.2,2-0.7,2.8c-0.4,0.8-1,1.4-1.8,1.8C235.2,263.7,234.3,264,233.4,264z M233.4,262.5
			c0.6,0,1.1-0.1,1.6-0.4c0.5-0.3,0.9-0.7,1.2-1.3c0.3-0.6,0.5-1.3,0.5-2.1c0-0.8-0.2-1.5-0.5-2.1c-0.3-0.6-0.7-1-1.2-1.3
			c-0.5-0.3-1-0.4-1.6-0.4c-0.6,0-1.1,0.1-1.6,0.4c-0.5,0.3-0.9,0.7-1.2,1.3c-0.3,0.6-0.5,1.3-0.5,2.1c0,0.8,0.2,1.5,0.5,2.1
			c0.3,0.6,0.7,1,1.2,1.3C232.3,262.4,232.8,262.5,233.4,262.5z M244.3,264c-1.2,0-2.1-0.4-2.8-1.1c-0.7-0.7-1-1.8-1-3.3v-5.8h1.7
			v5.6c0,2.1,0.8,3.1,2.5,3.1c0.9,0,1.6-0.3,2.1-0.9c0.6-0.6,0.9-1.5,0.9-2.7v-5.1h1.7v9.9h-1.5l-0.1-1.8c-0.3,0.6-0.8,1.1-1.4,1.5
			C245.8,263.8,245.1,264,244.3,264z M256.1,263.7c-0.9,0-1.6-0.2-2.1-0.7c-0.5-0.4-0.8-1.2-0.8-2.4v-5.5h-1.7v-1.4h1.7l0.2-2.4h1.5
			v2.4h2.9v1.4h-2.9v5.5c0,0.6,0.1,1.1,0.4,1.3c0.3,0.2,0.7,0.3,1.3,0.3h1v1.4H256.1z M21.3,287.7c-0.9,0-1.6-0.2-2.1-0.7
			s-0.8-1.2-0.8-2.4v-5.5h-1.7v-1.4h1.7l0.2-2.4h1.5v2.4H23v1.4h-2.9v5.5c0,0.6,0.1,1.1,0.4,1.3c0.3,0.2,0.7,0.3,1.3,0.3h1v1.4H21.3
			z M25.1,287.7v-14.4h1.7v6.2c0.3-0.6,0.8-1.1,1.4-1.4c0.6-0.3,1.3-0.5,2-0.5c1.1,0,2.1,0.4,2.8,1.1c0.7,0.7,1,1.8,1,3.3v5.8h-1.7
			v-5.6c0-2.1-0.8-3.1-2.5-3.1c-0.9,0-1.6,0.3-2.2,0.9c-0.6,0.6-0.9,1.5-0.9,2.6v5.1H25.1z M41,288c-0.9,0-1.8-0.2-2.5-0.6
			c-0.7-0.4-1.3-1-1.7-1.8c-0.4-0.8-0.6-1.7-0.6-2.7c0-1,0.2-1.9,0.6-2.7c0.4-0.8,1-1.4,1.7-1.8c0.7-0.4,1.6-0.7,2.6-0.7
			c1,0,1.8,0.2,2.5,0.7c0.7,0.4,1.2,1,1.6,1.7c0.4,0.7,0.6,1.5,0.6,2.3c0,0.1,0,0.3,0,0.4c0,0.1,0,0.3,0,0.5h-7.9
			c0,0.8,0.2,1.4,0.5,1.9c0.3,0.5,0.7,0.9,1.2,1.1c0.5,0.3,1,0.4,1.5,0.4c0.7,0,1.3-0.2,1.7-0.5c0.5-0.3,0.8-0.8,1-1.3h1.7
			c-0.3,0.9-0.8,1.7-1.5,2.3C43.2,287.7,42.2,288,41,288z M41,279c-0.8,0-1.5,0.2-2.1,0.7c-0.6,0.5-1,1.2-1.1,2.1h6.2
			c0-0.9-0.3-1.6-0.9-2.1C42.6,279.2,41.9,279,41,279z M53.2,287.7v-14.4h1.7v14.4H53.2z M58.7,275.6c-0.3,0-0.6-0.1-0.8-0.3
			c-0.2-0.2-0.3-0.5-0.3-0.8c0-0.3,0.1-0.6,0.3-0.8c0.2-0.2,0.5-0.3,0.8-0.3c0.3,0,0.6,0.1,0.8,0.3c0.2,0.2,0.3,0.5,0.3,0.8
			c0,0.3-0.1,0.6-0.3,0.8C59.3,275.5,59,275.6,58.7,275.6z M57.9,287.7v-9.9h1.7v9.9H57.9z M62.5,287.7v-9.9H64l0.1,1.8
			c0.3-0.6,0.8-1.1,1.4-1.5c0.6-0.4,1.3-0.5,2-0.5c1.2,0,2.1,0.4,2.8,1.1c0.7,0.7,1.1,1.8,1.1,3.3v5.8h-1.7v-5.6
			c0-2.1-0.9-3.1-2.6-3.1c-0.9,0-1.6,0.3-2.1,0.9c-0.6,0.6-0.8,1.5-0.8,2.6v5.1H62.5z M73.9,287.7v-14.4h1.7v8.7l4.1-4.2h2.1
			l-4.4,4.5l5,5.4h-2.1l-4.5-5.1v5.1H73.9z M87.2,288c-1.2,0-2.2-0.3-3-0.9c-0.8-0.6-1.2-1.4-1.4-2.4h1.7c0.1,0.5,0.4,1,0.8,1.4
			c0.5,0.4,1.1,0.6,1.8,0.6c0.7,0,1.2-0.1,1.6-0.4c0.3-0.3,0.5-0.7,0.5-1.1c0-0.6-0.2-1-0.7-1.2c-0.4-0.2-1-0.4-1.8-0.5
			c-0.5-0.1-1.1-0.3-1.6-0.5c-0.5-0.2-1-0.5-1.3-0.8c-0.4-0.4-0.5-0.9-0.5-1.5c0-0.9,0.3-1.6,1-2.1c0.7-0.6,1.5-0.8,2.6-0.8
			c1.1,0,1.9,0.3,2.6,0.8c0.7,0.5,1.1,1.3,1.2,2.2H89c-0.1-0.5-0.3-0.9-0.7-1.2c-0.4-0.3-0.8-0.4-1.5-0.4c-0.6,0-1.1,0.1-1.4,0.4
			c-0.3,0.3-0.5,0.6-0.5,1c0,0.4,0.2,0.7,0.6,0.9c0.4,0.2,1,0.4,1.7,0.6c0.6,0.1,1.2,0.3,1.7,0.5c0.6,0.2,1,0.5,1.4,0.9
			c0.4,0.4,0.5,0.9,0.5,1.6c0,0.9-0.3,1.6-1,2.2C89.3,287.7,88.4,288,87.2,288z M104,288c-0.8,0-1.5-0.2-2.2-0.5
			c-0.6-0.3-1.1-0.8-1.4-1.4l-0.2,1.7h-1.5v-14.4h1.7v6.1c0.3-0.5,0.8-0.9,1.4-1.3c0.6-0.4,1.4-0.6,2.3-0.6c1,0,1.8,0.2,2.6,0.7
			c0.7,0.5,1.3,1.1,1.7,1.9c0.4,0.8,0.6,1.7,0.6,2.7s-0.2,1.9-0.6,2.7c-0.4,0.8-1,1.4-1.7,1.8C105.8,287.7,105,288,104,288z
			 M103.8,286.5c0.7,0,1.3-0.2,1.8-0.5c0.5-0.3,0.9-0.8,1.2-1.3c0.3-0.6,0.4-1.2,0.4-2c0-0.7-0.1-1.4-0.4-2c-0.3-0.6-0.7-1-1.2-1.3
			c-0.5-0.3-1.1-0.5-1.8-0.5c-0.7,0-1.3,0.2-1.8,0.5c-0.5,0.3-0.9,0.7-1.2,1.3c-0.3,0.6-0.4,1.2-0.4,2c0,0.7,0.1,1.4,0.4,2
			c0.3,0.6,0.7,1,1.2,1.3C102.6,286.3,103.1,286.5,103.8,286.5z M115.7,288c-0.9,0-1.8-0.2-2.5-0.6c-0.7-0.4-1.3-1-1.7-1.8
			c-0.4-0.8-0.6-1.7-0.6-2.7c0-1,0.2-1.9,0.6-2.7c0.4-0.8,1-1.4,1.7-1.8c0.7-0.4,1.6-0.7,2.6-0.7c1,0,1.8,0.2,2.5,0.7
			c0.7,0.4,1.2,1,1.6,1.7c0.4,0.7,0.6,1.5,0.6,2.3c0,0.1,0,0.3,0,0.4c0,0.1,0,0.3,0,0.5h-7.9c0,0.8,0.2,1.4,0.5,1.9
			c0.3,0.5,0.7,0.9,1.2,1.1c0.5,0.3,1,0.4,1.5,0.4c0.7,0,1.3-0.2,1.7-0.5c0.5-0.3,0.8-0.8,1-1.3h1.7c-0.3,0.9-0.8,1.7-1.5,2.3
			C117.8,287.7,116.9,288,115.7,288z M115.7,279c-0.8,0-1.5,0.2-2.1,0.7c-0.6,0.5-1,1.2-1.1,2.1h6.2c0-0.9-0.3-1.6-0.9-2.1
			C117.3,279.2,116.5,279,115.7,279z M126.2,287.7c-0.9,0-1.6-0.2-2.1-0.7s-0.8-1.2-0.8-2.4v-5.5h-1.7v-1.4h1.7l0.2-2.4h1.5v2.4h2.9
			v1.4H125v5.5c0,0.6,0.1,1.1,0.4,1.3c0.3,0.2,0.7,0.3,1.3,0.3h1v1.4H126.2z M132,287.7l-2.9-9.9h1.7l2.1,7.8l2.3-7.8h1.9l2.3,7.8
			l2.1-7.8h1.7l-2.9,9.9h-1.7l-2.4-8.2l-2.4,8.2H132z M149.2,288c-0.9,0-1.8-0.2-2.5-0.6c-0.7-0.4-1.3-1-1.7-1.8
			c-0.4-0.8-0.6-1.7-0.6-2.7c0-1,0.2-1.9,0.6-2.7c0.4-0.8,1-1.4,1.7-1.8c0.7-0.4,1.6-0.7,2.6-0.7c1,0,1.8,0.2,2.5,0.7
			c0.7,0.4,1.2,1,1.6,1.7c0.4,0.7,0.6,1.5,0.6,2.3c0,0.1,0,0.3,0,0.4c0,0.1,0,0.3,0,0.5H146c0,0.8,0.2,1.4,0.5,1.9
			c0.3,0.5,0.7,0.9,1.2,1.1c0.5,0.3,1,0.4,1.5,0.4c0.7,0,1.3-0.2,1.7-0.5c0.5-0.3,0.8-0.8,1-1.3h1.7c-0.3,0.9-0.8,1.7-1.5,2.3
			C151.3,287.7,150.4,288,149.2,288z M149.2,279c-0.8,0-1.5,0.2-2.1,0.7c-0.6,0.5-1,1.2-1.1,2.1h6.2c0-0.9-0.3-1.6-0.9-2.1
			C150.7,279.2,150,279,149.2,279z M160.6,288c-0.9,0-1.8-0.2-2.5-0.6c-0.7-0.4-1.3-1-1.7-1.8c-0.4-0.8-0.6-1.7-0.6-2.7
			c0-1,0.2-1.9,0.6-2.7c0.4-0.8,1-1.4,1.7-1.8c0.7-0.4,1.6-0.7,2.6-0.7c1,0,1.8,0.2,2.5,0.7c0.7,0.4,1.2,1,1.6,1.7
			c0.4,0.7,0.6,1.5,0.6,2.3c0,0.1,0,0.3,0,0.4c0,0.1,0,0.3,0,0.5h-7.9c0,0.8,0.2,1.4,0.5,1.9c0.3,0.5,0.7,0.9,1.2,1.1
			c0.5,0.3,1,0.4,1.5,0.4c0.7,0,1.3-0.2,1.7-0.5c0.5-0.3,0.8-0.8,1-1.3h1.7c-0.3,0.9-0.8,1.7-1.5,2.3
			C162.7,287.7,161.8,288,160.6,288z M160.6,279c-0.8,0-1.5,0.2-2.1,0.7c-0.6,0.5-1,1.2-1.1,2.1h6.2c0-0.9-0.3-1.6-0.9-2.1
			C162.1,279.2,161.4,279,160.6,279z M167.5,287.7v-9.9h1.5l0.1,1.8c0.3-0.6,0.8-1.1,1.4-1.5c0.6-0.4,1.3-0.5,2-0.5
			c1.2,0,2.1,0.4,2.8,1.1c0.7,0.7,1.1,1.8,1.1,3.3v5.8h-1.7v-5.6c0-2.1-0.9-3.1-2.6-3.1c-0.9,0-1.6,0.3-2.1,0.9
			c-0.6,0.6-0.8,1.5-0.8,2.6v5.1H167.5z M188.1,288c-1.2,0-2.2-0.3-3-0.9c-0.8-0.6-1.2-1.4-1.4-2.4h1.7c0.1,0.5,0.4,1,0.8,1.4
			c0.5,0.4,1.1,0.6,1.8,0.6c0.7,0,1.2-0.1,1.6-0.4c0.3-0.3,0.5-0.7,0.5-1.1c0-0.6-0.2-1-0.7-1.2c-0.4-0.2-1-0.4-1.8-0.5
			c-0.5-0.1-1.1-0.3-1.6-0.5c-0.5-0.2-1-0.5-1.3-0.8c-0.4-0.4-0.5-0.9-0.5-1.5c0-0.9,0.3-1.6,1-2.1c0.7-0.6,1.5-0.8,2.6-0.8
			c1.1,0,1.9,0.3,2.6,0.8c0.7,0.5,1.1,1.3,1.2,2.2h-1.7c-0.1-0.5-0.3-0.9-0.7-1.2c-0.4-0.3-0.8-0.4-1.5-0.4c-0.6,0-1.1,0.1-1.4,0.4
			c-0.3,0.3-0.5,0.6-0.5,1c0,0.4,0.2,0.7,0.6,0.9c0.4,0.2,1,0.4,1.7,0.6c0.6,0.1,1.2,0.3,1.7,0.5c0.6,0.2,1,0.5,1.4,0.9
			c0.4,0.4,0.5,0.9,0.5,1.6c0,0.9-0.3,1.6-1,2.2C190.2,287.7,189.2,288,188.1,288z M194.3,287.7v-14.4h1.7v14.4H194.3z M203.1,288
			c-0.9,0-1.8-0.2-2.5-0.6c-0.7-0.4-1.3-1-1.7-1.8c-0.4-0.8-0.6-1.7-0.6-2.7c0-1,0.2-1.9,0.6-2.7c0.4-0.8,1-1.4,1.7-1.8
			c0.7-0.4,1.6-0.7,2.6-0.7c1,0,1.8,0.2,2.5,0.7c0.7,0.4,1.2,1,1.6,1.7c0.4,0.7,0.6,1.5,0.6,2.3c0,0.1,0,0.3,0,0.4
			c0,0.1,0,0.3,0,0.5h-7.9c0,0.8,0.2,1.4,0.5,1.9c0.3,0.5,0.7,0.9,1.2,1.1c0.5,0.3,1,0.4,1.5,0.4c0.7,0,1.3-0.2,1.7-0.5
			c0.5-0.3,0.8-0.8,1-1.3h1.7c-0.3,0.9-0.8,1.7-1.5,2.3C205.3,287.7,204.3,288,203.1,288z M203.1,279c-0.8,0-1.5,0.2-2.1,0.7
			c-0.6,0.5-1,1.2-1.1,2.1h6.2c0-0.9-0.3-1.6-0.9-2.1C204.7,279.2,204,279,203.1,279z M214.5,288c-0.9,0-1.8-0.2-2.5-0.6
			c-0.7-0.4-1.3-1-1.7-1.8c-0.4-0.8-0.6-1.7-0.6-2.7c0-1,0.2-1.9,0.6-2.7c0.4-0.8,1-1.4,1.7-1.8c0.7-0.4,1.6-0.7,2.6-0.7
			c1,0,1.8,0.2,2.5,0.7c0.7,0.4,1.2,1,1.6,1.7c0.4,0.7,0.6,1.5,0.6,2.3c0,0.1,0,0.3,0,0.4c0,0.1,0,0.3,0,0.5h-7.9
			c0,0.8,0.2,1.4,0.5,1.9c0.3,0.5,0.7,0.9,1.2,1.1c0.5,0.3,1,0.4,1.5,0.4c0.7,0,1.3-0.2,1.7-0.5c0.5-0.3,0.8-0.8,1-1.3h1.7
			c-0.3,0.9-0.8,1.7-1.5,2.3C216.7,287.7,215.7,288,214.5,288z M214.5,279c-0.8,0-1.5,0.2-2.1,0.7c-0.6,0.5-1,1.2-1.1,2.1h6.2
			c0-0.9-0.3-1.6-0.9-2.1C216.1,279.2,215.4,279,214.5,279z M221.5,292.1v-14.3h1.5l0.2,1.6c0.3-0.5,0.8-0.9,1.4-1.3
			c0.6-0.4,1.4-0.6,2.3-0.6c1,0,1.8,0.2,2.6,0.7c0.7,0.5,1.3,1.1,1.7,1.9c0.4,0.8,0.6,1.7,0.6,2.7s-0.2,1.9-0.6,2.7
			c-0.4,0.8-1,1.4-1.7,1.8c-0.7,0.4-1.6,0.7-2.6,0.7c-0.8,0-1.5-0.2-2.2-0.5c-0.6-0.3-1.1-0.8-1.4-1.4v6.1H221.5z M226.6,286.5
			c0.7,0,1.3-0.2,1.8-0.5c0.5-0.3,0.9-0.8,1.2-1.3c0.3-0.6,0.4-1.2,0.4-2c0-0.7-0.1-1.4-0.4-2c-0.3-0.6-0.7-1-1.2-1.3
			c-0.5-0.3-1.1-0.5-1.8-0.5c-0.7,0-1.3,0.2-1.8,0.5c-0.5,0.3-0.9,0.7-1.2,1.3s-0.4,1.2-0.4,2c0,0.7,0.1,1.4,0.4,2s0.7,1,1.2,1.3
			C225.3,286.3,225.9,286.5,226.6,286.5z M232.7,290.1l1.2-4.4h1.7l-1.7,4.4H232.7z M19.4,311.7l-2.9-9.9h1.7l2.1,7.8l2.3-7.8h1.9
			l2.3,7.8l2.1-7.8h1.7l-2.9,9.9H26l-2.4-8.2l-2.4,8.2H19.4z M36.5,312c-0.9,0-1.8-0.2-2.5-0.6c-0.7-0.4-1.3-1-1.7-1.8
			c-0.4-0.8-0.6-1.7-0.6-2.7c0-1,0.2-1.9,0.6-2.7c0.4-0.8,1-1.4,1.7-1.8c0.7-0.4,1.6-0.7,2.6-0.7c1,0,1.8,0.2,2.5,0.7
			c0.7,0.4,1.2,1,1.6,1.7c0.4,0.7,0.6,1.5,0.6,2.3c0,0.1,0,0.3,0,0.4c0,0.1,0,0.3,0,0.5h-7.9c0,0.8,0.2,1.4,0.5,1.9
			c0.3,0.5,0.7,0.9,1.2,1.1c0.5,0.3,1,0.4,1.5,0.4c0.7,0,1.3-0.2,1.7-0.5c0.5-0.3,0.8-0.8,1-1.3H41c-0.3,0.9-0.8,1.7-1.5,2.3
			C38.7,311.7,37.7,312,36.5,312z M36.5,303c-0.8,0-1.5,0.2-2.1,0.7c-0.6,0.5-1,1.2-1.1,2.1h6.2c0-0.9-0.3-1.6-0.9-2.1
			C38.1,303.2,37.4,303,36.5,303z M43.5,311.7v-14.4h1.7v14.4H43.5z M47.9,311.7v-14.4h1.7v14.4H47.9z M57.6,312
			c-0.8,0-1.5-0.2-2.2-0.5c-0.6-0.3-1.1-0.8-1.4-1.4l-0.2,1.7h-1.5v-14.4H54v6.1c0.3-0.5,0.8-0.9,1.4-1.3c0.6-0.4,1.4-0.6,2.3-0.6
			c1,0,1.8,0.2,2.6,0.7c0.7,0.5,1.3,1.1,1.7,1.9c0.4,0.8,0.6,1.7,0.6,2.7s-0.2,1.9-0.6,2.7c-0.4,0.8-1,1.4-1.7,1.8
			C59.5,311.7,58.6,312,57.6,312z M57.5,310.5c0.7,0,1.3-0.2,1.8-0.5c0.5-0.3,0.9-0.8,1.2-1.3c0.3-0.6,0.4-1.2,0.4-2
			c0-0.7-0.1-1.4-0.4-2c-0.3-0.6-0.7-1-1.2-1.3c-0.5-0.3-1.1-0.5-1.8-0.5c-0.7,0-1.3,0.2-1.8,0.5c-0.5,0.3-0.9,0.7-1.2,1.3
			c-0.3,0.6-0.4,1.2-0.4,2c0,0.7,0.1,1.4,0.4,2c0.3,0.6,0.7,1,1.2,1.3C56.2,310.3,56.8,310.5,57.5,310.5z M69.4,312
			c-0.9,0-1.8-0.2-2.5-0.6c-0.7-0.4-1.3-1-1.7-1.8c-0.4-0.8-0.6-1.7-0.6-2.7c0-1,0.2-1.9,0.6-2.7c0.4-0.8,1-1.4,1.7-1.8
			c0.7-0.4,1.6-0.7,2.6-0.7c1,0,1.8,0.2,2.5,0.7c0.7,0.4,1.2,1,1.6,1.7c0.4,0.7,0.6,1.5,0.6,2.3c0,0.1,0,0.3,0,0.4
			c0,0.1,0,0.3,0,0.5h-7.9c0,0.8,0.2,1.4,0.5,1.9c0.3,0.5,0.7,0.9,1.2,1.1c0.5,0.3,1,0.4,1.5,0.4c0.7,0,1.3-0.2,1.7-0.5
			c0.5-0.3,0.8-0.8,1-1.3h1.7c-0.3,0.9-0.8,1.7-1.5,2.3C71.5,311.7,70.5,312,69.4,312z M69.4,303c-0.8,0-1.5,0.2-2.1,0.7
			c-0.6,0.5-1,1.2-1.1,2.1h6.2c0-0.9-0.3-1.6-0.9-2.1C70.9,303.2,70.2,303,69.4,303z M77.3,299.6c-0.3,0-0.6-0.1-0.8-0.3
			c-0.2-0.2-0.3-0.5-0.3-0.8c0-0.3,0.1-0.6,0.3-0.8c0.2-0.2,0.5-0.3,0.8-0.3c0.3,0,0.6,0.1,0.8,0.3c0.2,0.2,0.3,0.5,0.3,0.8
			c0,0.3-0.1,0.6-0.3,0.8C77.9,299.5,77.6,299.6,77.3,299.6z M76.5,311.7v-9.9h1.7v9.9H76.5z M81.1,311.7v-9.9h1.5l0.1,1.8
			c0.3-0.6,0.8-1.1,1.4-1.5c0.6-0.4,1.3-0.5,2-0.5c1.2,0,2.1,0.4,2.8,1.1c0.7,0.7,1.1,1.8,1.1,3.3v5.8h-1.7v-5.6
			c0-2.1-0.9-3.1-2.6-3.1c-0.9,0-1.6,0.3-2.1,0.9c-0.6,0.6-0.8,1.5-0.8,2.6v5.1H81.1z M96.4,308.6c-0.6,0-1.1-0.1-1.5-0.2l-1,0.9
			c0.1,0.1,0.3,0.2,0.5,0.3c0.2,0.1,0.5,0.1,1,0.2c0.4,0.1,1,0.1,1.7,0.2c1.3,0.1,2.3,0.4,2.9,0.9c0.6,0.5,0.9,1.2,0.9,2
			c0,0.6-0.2,1.1-0.5,1.6c-0.3,0.5-0.8,0.9-1.4,1.3c-0.6,0.3-1.5,0.5-2.5,0.5c-0.9,0-1.7-0.1-2.4-0.4c-0.7-0.2-1.2-0.6-1.6-1.1
			c-0.4-0.5-0.6-1.1-0.6-1.8c0-0.4,0.1-0.8,0.3-1.2c0.2-0.4,0.6-0.8,1.1-1.2c-0.3-0.1-0.5-0.2-0.8-0.4c-0.2-0.1-0.4-0.3-0.6-0.5
			v-0.5l1.7-1.7c-0.8-0.7-1.2-1.5-1.2-2.6c0-0.7,0.2-1.2,0.5-1.8c0.3-0.5,0.8-1,1.3-1.3c0.6-0.3,1.3-0.5,2.1-0.5
			c0.6,0,1.1,0.1,1.6,0.2h3.7v1.3l-1.9,0.1c0.4,0.6,0.6,1.2,0.6,1.9c0,0.7-0.2,1.2-0.5,1.8c-0.3,0.5-0.8,1-1.3,1.3
			C98,308.4,97.3,308.6,96.4,308.6z M96.4,307.2c0.7,0,1.3-0.2,1.7-0.5c0.4-0.4,0.6-0.9,0.6-1.6c0-0.7-0.2-1.2-0.6-1.6
			c-0.4-0.4-1-0.6-1.7-0.6c-0.7,0-1.3,0.2-1.7,0.6c-0.4,0.4-0.6,0.9-0.6,1.6c0,0.7,0.2,1.2,0.6,1.6C95.1,307,95.7,307.2,96.4,307.2z
			 M93.5,313c0,0.7,0.3,1.2,0.8,1.5c0.6,0.3,1.3,0.5,2.1,0.5c0.8,0,1.5-0.2,2-0.5c0.5-0.4,0.8-0.8,0.8-1.4c0-0.4-0.2-0.8-0.5-1.1
			c-0.3-0.3-1-0.5-1.9-0.5c-0.7-0.1-1.4-0.1-1.9-0.2c-0.5,0.3-0.9,0.6-1.1,0.9C93.6,312.4,93.5,312.7,93.5,313z M112.1,312
			c-0.8,0-1.5-0.1-2.1-0.4c-0.5-0.3-1-0.7-1.2-1.1c-0.3-0.5-0.4-1-0.4-1.5c0-1,0.4-1.8,1.2-2.3c0.8-0.5,1.8-0.8,3.2-0.8h2.7v-0.1
			c0-0.9-0.2-1.5-0.7-2c-0.5-0.5-1.1-0.7-1.8-0.7c-0.7,0-1.2,0.2-1.7,0.5c-0.5,0.3-0.8,0.8-0.9,1.4h-1.7c0.1-0.7,0.3-1.3,0.7-1.8
			c0.4-0.5,1-0.9,1.6-1.1c0.6-0.3,1.3-0.4,2-0.4c1.4,0,2.4,0.4,3.1,1.1c0.7,0.7,1.1,1.7,1.1,2.9v6.1h-1.5l-0.1-1.8
			c-0.3,0.6-0.7,1-1.2,1.4C113.8,311.8,113.1,312,112.1,312z M112.4,310.5c0.6,0,1.2-0.2,1.6-0.5c0.5-0.3,0.8-0.8,1.1-1.3
			c0.2-0.5,0.4-1.1,0.4-1.7v0h-2.5c-1,0-1.7,0.2-2.1,0.5c-0.4,0.3-0.6,0.8-0.6,1.3c0,0.5,0.2,0.9,0.6,1.3
			C111.2,310.4,111.7,310.5,112.4,310.5z M119.7,311.7v-9.9h1.5l0.1,1.8c0.3-0.6,0.8-1.1,1.4-1.5c0.6-0.4,1.3-0.5,2-0.5
			c1.2,0,2.1,0.4,2.8,1.1c0.7,0.7,1.1,1.8,1.1,3.3v5.8h-1.7v-5.6c0-2.1-0.9-3.1-2.6-3.1c-0.9,0-1.6,0.3-2.1,0.9
			c-0.6,0.6-0.8,1.5-0.8,2.6v5.1H119.7z M135.6,312c-1,0-1.9-0.2-2.6-0.7c-0.7-0.5-1.3-1.1-1.7-1.9c-0.4-0.8-0.6-1.7-0.6-2.7
			s0.2-1.9,0.6-2.7c0.4-0.8,1-1.4,1.7-1.8c0.7-0.5,1.6-0.7,2.6-0.7c0.8,0,1.5,0.2,2.2,0.5c0.6,0.3,1.1,0.8,1.5,1.4v-6.1h1.7v14.4
			h-1.5l-0.2-1.6c-0.3,0.5-0.8,0.9-1.4,1.3C137.3,311.8,136.5,312,135.6,312z M135.8,310.5c0.7,0,1.3-0.2,1.8-0.5
			c0.5-0.3,0.9-0.8,1.2-1.3c0.3-0.6,0.4-1.2,0.4-2c0-0.7-0.1-1.4-0.4-2c-0.3-0.6-0.7-1-1.2-1.3c-0.5-0.3-1.1-0.5-1.8-0.5
			c-0.7,0-1.2,0.2-1.8,0.5c-0.5,0.3-0.9,0.7-1.2,1.3c-0.3,0.6-0.4,1.2-0.4,2c0,0.7,0.1,1.4,0.4,2c0.3,0.6,0.7,1,1.2,1.3
			C134.5,310.3,135.1,310.5,135.8,310.5z M152.8,312c-1.2,0-2.2-0.3-3-0.9c-0.8-0.6-1.2-1.4-1.4-2.4h1.7c0.1,0.5,0.4,1,0.8,1.4
			c0.5,0.4,1.1,0.6,1.8,0.6c0.7,0,1.2-0.1,1.6-0.4c0.3-0.3,0.5-0.7,0.5-1.1c0-0.6-0.2-1-0.7-1.2c-0.4-0.2-1-0.4-1.8-0.5
			c-0.5-0.1-1.1-0.3-1.6-0.5c-0.5-0.2-1-0.5-1.3-0.8c-0.4-0.4-0.5-0.9-0.5-1.5c0-0.9,0.3-1.6,1-2.1c0.7-0.6,1.5-0.8,2.6-0.8
			c1.1,0,1.9,0.3,2.6,0.8c0.7,0.5,1.1,1.3,1.2,2.2h-1.7c-0.1-0.5-0.3-0.9-0.7-1.2c-0.4-0.3-0.8-0.4-1.5-0.4c-0.6,0-1.1,0.1-1.4,0.4
			c-0.3,0.3-0.5,0.6-0.5,1c0,0.4,0.2,0.7,0.6,0.9c0.4,0.2,1,0.4,1.7,0.6c0.6,0.1,1.2,0.3,1.7,0.5c0.6,0.2,1,0.5,1.4,0.9
			c0.4,0.4,0.5,0.9,0.5,1.6c0,0.9-0.3,1.6-1,2.2C154.9,311.7,153.9,312,152.8,312z M162.4,311.7c-0.9,0-1.6-0.2-2.1-0.7
			s-0.8-1.2-0.8-2.4v-5.5h-1.7v-1.4h1.7l0.2-2.4h1.5v2.4h2.9v1.4h-2.9v5.5c0,0.6,0.1,1.1,0.4,1.3c0.3,0.2,0.7,0.3,1.3,0.3h1v1.4
			H162.4z M169.9,312c-1.2,0-2.1-0.4-2.8-1.1c-0.7-0.7-1-1.8-1-3.3v-5.8h1.7v5.6c0,2.1,0.8,3.1,2.5,3.1c0.9,0,1.6-0.3,2.1-0.9
			c0.6-0.6,0.9-1.5,0.9-2.7v-5.1h1.7v9.9h-1.5l-0.1-1.8c-0.3,0.6-0.8,1.1-1.4,1.5C171.3,311.8,170.6,312,169.9,312z M182.2,312
			c-1,0-1.9-0.2-2.6-0.7c-0.7-0.5-1.3-1.1-1.7-1.9c-0.4-0.8-0.6-1.7-0.6-2.7s0.2-1.9,0.6-2.7c0.4-0.8,1-1.4,1.7-1.8
			c0.7-0.5,1.6-0.7,2.6-0.7c0.8,0,1.5,0.2,2.2,0.5c0.6,0.3,1.1,0.8,1.5,1.4v-6.1h1.7v14.4H186l-0.2-1.6c-0.3,0.5-0.8,0.9-1.4,1.3
			C183.9,311.8,183.1,312,182.2,312z M182.4,310.5c0.7,0,1.3-0.2,1.8-0.5c0.5-0.3,0.9-0.8,1.2-1.3c0.3-0.6,0.4-1.2,0.4-2
			c0-0.7-0.1-1.4-0.4-2c-0.3-0.6-0.7-1-1.2-1.3c-0.5-0.3-1.1-0.5-1.8-0.5c-0.7,0-1.2,0.2-1.8,0.5c-0.5,0.3-0.9,0.7-1.2,1.3
			c-0.3,0.6-0.4,1.2-0.4,2c0,0.7,0.1,1.4,0.4,2c0.3,0.6,0.7,1,1.2,1.3C181.1,310.3,181.7,310.5,182.4,310.5z M191.3,316.1l2.5-5.4
			h-0.6l-3.9-9h1.8l3.3,7.7l3.5-7.7h1.7l-6.5,14.3H191.3z M210.5,312c-1.2,0-2.2-0.3-3-0.9c-0.8-0.6-1.2-1.4-1.4-2.4h1.7
			c0.1,0.5,0.4,1,0.8,1.4c0.5,0.4,1.1,0.6,1.8,0.6c0.7,0,1.2-0.1,1.6-0.4c0.3-0.3,0.5-0.7,0.5-1.1c0-0.6-0.2-1-0.7-1.2
			c-0.4-0.2-1-0.4-1.8-0.5c-0.5-0.1-1.1-0.3-1.6-0.5c-0.5-0.2-1-0.5-1.3-0.8c-0.4-0.4-0.5-0.9-0.5-1.5c0-0.9,0.3-1.6,1-2.1
			c0.7-0.6,1.5-0.8,2.6-0.8c1.1,0,1.9,0.3,2.6,0.8c0.7,0.5,1.1,1.3,1.2,2.2h-1.7c-0.1-0.5-0.3-0.9-0.7-1.2c-0.4-0.3-0.8-0.4-1.5-0.4
			c-0.6,0-1.1,0.1-1.4,0.4c-0.3,0.3-0.5,0.6-0.5,1c0,0.4,0.2,0.7,0.6,0.9c0.4,0.2,1,0.4,1.7,0.6c0.6,0.1,1.2,0.3,1.7,0.5
			c0.6,0.2,1,0.5,1.4,0.9c0.4,0.4,0.5,0.9,0.5,1.6c0,0.9-0.3,1.6-1,2.2C212.6,311.7,211.6,312,210.5,312z M220.3,312
			c-1.2,0-2.1-0.4-2.8-1.1c-0.7-0.7-1-1.8-1-3.3v-5.8h1.7v5.6c0,2.1,0.8,3.1,2.5,3.1c0.9,0,1.6-0.3,2.1-0.9c0.6-0.6,0.9-1.5,0.9-2.7
			v-5.1h1.7v9.9h-1.5l-0.1-1.8c-0.3,0.6-0.8,1.1-1.4,1.5C221.7,311.8,221,312,220.3,312z M232.7,312c-0.9,0-1.8-0.2-2.6-0.6
			c-0.7-0.4-1.3-1-1.8-1.8c-0.4-0.8-0.6-1.7-0.6-2.7s0.2-1.9,0.6-2.7c0.4-0.8,1-1.4,1.8-1.8c0.8-0.4,1.6-0.7,2.6-0.7
			c1.2,0,2.2,0.3,3,0.9c0.8,0.6,1.3,1.4,1.5,2.5h-1.7c-0.1-0.6-0.5-1.1-1-1.4c-0.5-0.3-1.1-0.5-1.8-0.5c-0.6,0-1.1,0.1-1.6,0.4
			c-0.5,0.3-0.9,0.7-1.2,1.3c-0.3,0.6-0.5,1.3-0.5,2.1c0,0.8,0.2,1.5,0.5,2.1c0.3,0.6,0.7,1,1.2,1.3c0.5,0.3,1,0.4,1.6,0.4
			c0.7,0,1.3-0.2,1.8-0.5c0.5-0.3,0.8-0.8,1-1.5h1.7c-0.2,1-0.7,1.8-1.5,2.4C234.8,311.6,233.8,312,232.7,312z M244.1,312
			c-0.9,0-1.8-0.2-2.6-0.6c-0.7-0.4-1.3-1-1.8-1.8c-0.4-0.8-0.6-1.7-0.6-2.7s0.2-1.9,0.6-2.7c0.4-0.8,1-1.4,1.8-1.8
			c0.8-0.4,1.6-0.7,2.6-0.7c1.2,0,2.2,0.3,3,0.9c0.8,0.6,1.3,1.4,1.5,2.5h-1.7c-0.1-0.6-0.5-1.1-1-1.4c-0.5-0.3-1.1-0.5-1.8-0.5
			c-0.6,0-1.1,0.1-1.6,0.4c-0.5,0.3-0.9,0.7-1.2,1.3c-0.3,0.6-0.5,1.3-0.5,2.1c0,0.8,0.2,1.5,0.5,2.1c0.3,0.6,0.7,1,1.2,1.3
			c0.5,0.3,1,0.4,1.6,0.4c0.7,0,1.3-0.2,1.8-0.5c0.5-0.3,0.8-0.8,1-1.5h1.7c-0.2,1-0.7,1.8-1.5,2.4C246.2,311.6,245.2,312,244.1,312
			z M255.4,312c-0.9,0-1.8-0.2-2.5-0.6c-0.7-0.4-1.3-1-1.7-1.8c-0.4-0.8-0.6-1.7-0.6-2.7c0-1,0.2-1.9,0.6-2.7c0.4-0.8,1-1.4,1.7-1.8
			c0.7-0.4,1.6-0.7,2.6-0.7c1,0,1.8,0.2,2.5,0.7c0.7,0.4,1.2,1,1.6,1.7c0.4,0.7,0.6,1.5,0.6,2.3c0,0.1,0,0.3,0,0.4
			c0,0.1,0,0.3,0,0.5h-7.9c0,0.8,0.2,1.4,0.5,1.9c0.3,0.5,0.7,0.9,1.2,1.1c0.5,0.3,1,0.4,1.5,0.4c0.7,0,1.3-0.2,1.7-0.5
			c0.5-0.3,0.8-0.8,1-1.3h1.7c-0.3,0.9-0.8,1.7-1.5,2.3C257.5,311.7,256.5,312,255.4,312z M255.4,303c-0.8,0-1.5,0.2-2.1,0.7
			c-0.6,0.5-1,1.2-1.1,2.1h6.2c0-0.9-0.3-1.6-0.9-2.1C256.9,303.2,256.2,303,255.4,303z M266.1,312c-1.2,0-2.2-0.3-3-0.9
			c-0.8-0.6-1.2-1.4-1.4-2.4h1.7c0.1,0.5,0.4,1,0.8,1.4c0.5,0.4,1.1,0.6,1.8,0.6c0.7,0,1.2-0.1,1.6-0.4c0.3-0.3,0.5-0.7,0.5-1.1
			c0-0.6-0.2-1-0.7-1.2c-0.4-0.2-1-0.4-1.8-0.5c-0.5-0.1-1.1-0.3-1.6-0.5c-0.5-0.2-1-0.5-1.3-0.8c-0.4-0.4-0.5-0.9-0.5-1.5
			c0-0.9,0.3-1.6,1-2.1c0.7-0.6,1.5-0.8,2.6-0.8c1.1,0,1.9,0.3,2.6,0.8c0.7,0.5,1.1,1.3,1.2,2.2h-1.7c-0.1-0.5-0.3-0.9-0.7-1.2
			c-0.4-0.3-0.8-0.4-1.5-0.4c-0.6,0-1.1,0.1-1.4,0.4c-0.3,0.3-0.5,0.6-0.5,1c0,0.4,0.2,0.7,0.6,0.9c0.4,0.2,1,0.4,1.7,0.6
			c0.6,0.1,1.2,0.3,1.7,0.5c0.6,0.2,1,0.5,1.4,0.9c0.4,0.4,0.5,0.9,0.5,1.6c0,0.9-0.3,1.6-1,2.2C268.2,311.7,267.3,312,266.1,312z
			 M276.1,312c-1.2,0-2.2-0.3-3-0.9c-0.8-0.6-1.2-1.4-1.4-2.4h1.7c0.1,0.5,0.4,1,0.8,1.4c0.5,0.4,1.1,0.6,1.8,0.6
			c0.7,0,1.2-0.1,1.6-0.4c0.3-0.3,0.5-0.7,0.5-1.1c0-0.6-0.2-1-0.7-1.2c-0.4-0.2-1-0.4-1.8-0.5c-0.5-0.1-1.1-0.3-1.6-0.5
			c-0.5-0.2-1-0.5-1.3-0.8c-0.4-0.4-0.5-0.9-0.5-1.5c0-0.9,0.3-1.6,1-2.1c0.7-0.6,1.5-0.8,2.6-0.8c1.1,0,1.9,0.3,2.6,0.8
			c0.7,0.5,1.1,1.3,1.2,2.2h-1.7c-0.1-0.5-0.3-0.9-0.7-1.2c-0.4-0.3-0.8-0.4-1.5-0.4c-0.6,0-1.1,0.1-1.4,0.4c-0.3,0.3-0.5,0.6-0.5,1
			c0,0.4,0.2,0.7,0.6,0.9c0.4,0.2,1,0.4,1.7,0.6c0.6,0.1,1.2,0.3,1.7,0.5c0.6,0.2,1,0.5,1.4,0.9c0.4,0.4,0.5,0.9,0.5,1.6
			c0,0.9-0.3,1.6-1,2.2C278.2,311.7,277.3,312,276.1,312z M282.9,311.8c-0.3,0-0.6-0.1-0.8-0.3c-0.2-0.2-0.3-0.5-0.3-0.8
			c0-0.3,0.1-0.6,0.3-0.8c0.2-0.2,0.5-0.3,0.8-0.3c0.3,0,0.6,0.1,0.8,0.3c0.2,0.2,0.3,0.5,0.3,0.8c0,0.3-0.1,0.6-0.3,0.8
			C283.5,311.7,283.2,311.8,282.9,311.8z"/>
		<path class="st6" d="M17.2,359.7v-11.2h1.3v11.2H17.2z M24,359.7c-0.7,0-1.3-0.2-1.7-0.5c-0.4-0.4-0.6-1-0.6-1.9v-4.4h-1.4v-1.1
			h1.4l0.2-1.9H23v1.9h2.3v1.1H23v4.4c0,0.5,0.1,0.8,0.3,1c0.2,0.2,0.6,0.3,1.1,0.3h0.8v1.2H24z M31.2,359.7v-7.9h1.2l0.1,1.2
			c0.3-0.4,0.6-0.8,1-1c0.4-0.2,0.9-0.4,1.4-0.4c0.6,0,1.2,0.1,1.6,0.4c0.5,0.3,0.8,0.6,1.1,1.2c0.3-0.5,0.7-0.9,1.1-1.1
			c0.5-0.3,1-0.4,1.6-0.4c0.9,0,1.7,0.3,2.3,0.9c0.6,0.6,0.8,1.4,0.8,2.6v4.6h-1.3v-4.5c0-0.8-0.2-1.4-0.5-1.9
			c-0.3-0.4-0.8-0.6-1.4-0.6c-0.6,0-1.2,0.2-1.6,0.8c-0.4,0.5-0.6,1.2-0.6,2.1v4.1h-1.3v-4.5c0-0.8-0.2-1.4-0.5-1.9
			c-0.3-0.4-0.8-0.6-1.4-0.6c-0.6,0-1.2,0.2-1.6,0.8c-0.4,0.5-0.6,1.2-0.6,2.1v4.1H31.2z M48.2,359.9c-0.7,0-1.2-0.1-1.6-0.3
			c-0.4-0.2-0.8-0.5-1-0.9c-0.2-0.4-0.3-0.8-0.3-1.2c0-0.8,0.3-1.4,0.9-1.9c0.6-0.4,1.5-0.7,2.5-0.7h2.1v-0.1c0-0.7-0.2-1.2-0.5-1.6
			c-0.4-0.4-0.8-0.5-1.5-0.5c-0.5,0-1,0.1-1.4,0.4c-0.4,0.3-0.6,0.6-0.7,1.1h-1.4c0.1-0.6,0.2-1.1,0.6-1.5c0.3-0.4,0.8-0.7,1.3-0.9
			c0.5-0.2,1-0.3,1.6-0.3c1.1,0,1.9,0.3,2.5,0.9c0.6,0.6,0.8,1.4,0.8,2.4v4.9H51l-0.1-1.4c-0.2,0.4-0.6,0.8-1,1.2
			C49.5,359.8,48.9,359.9,48.2,359.9z M48.4,358.8c0.5,0,0.9-0.1,1.3-0.4c0.4-0.3,0.7-0.6,0.8-1c0.2-0.4,0.3-0.9,0.3-1.3v0h-2
			c-0.8,0-1.3,0.1-1.7,0.4c-0.3,0.3-0.5,0.6-0.5,1c0,0.4,0.1,0.8,0.4,1C47.4,358.7,47.9,358.8,48.4,358.8z M54.8,363.2l2-4.3h-0.5
			l-3.2-7.2h1.5l2.6,6.2l2.8-6.2h1.4l-5.2,11.5H54.8z M70.8,359.9c-0.8,0-1.4-0.2-2-0.5c-0.6-0.4-1.1-0.8-1.4-1.5
			c-0.3-0.6-0.5-1.4-0.5-2.2s0.2-1.6,0.5-2.2c0.4-0.6,0.8-1.1,1.4-1.5c0.6-0.4,1.3-0.5,2-0.5c0.9,0,1.7,0.2,2.4,0.7
			c0.7,0.5,1.1,1.1,1.2,2H73c-0.1-0.5-0.4-0.9-0.8-1.1c-0.4-0.3-0.9-0.4-1.5-0.4c-0.4,0-0.9,0.1-1.3,0.3s-0.7,0.6-1,1
			s-0.4,1-0.4,1.7c0,0.7,0.1,1.2,0.4,1.7s0.6,0.8,1,1c0.4,0.2,0.8,0.3,1.3,0.3c0.6,0,1-0.1,1.5-0.4c0.4-0.3,0.7-0.7,0.8-1.2h1.4
			c-0.2,0.8-0.6,1.5-1.2,2C72.5,359.7,71.7,359.9,70.8,359.9z M76.2,359.7v-11.5h1.3v4.9c0.3-0.5,0.6-0.9,1.1-1.1
			c0.5-0.3,1-0.4,1.6-0.4c0.9,0,1.7,0.3,2.2,0.9c0.6,0.6,0.8,1.4,0.8,2.6v4.6H82v-4.5c0-1.7-0.7-2.5-2-2.5c-0.7,0-1.3,0.2-1.7,0.8
			c-0.5,0.5-0.7,1.2-0.7,2.1v4.1H76.2z M88,359.9c-0.7,0-1.2-0.1-1.6-0.3c-0.4-0.2-0.8-0.5-1-0.9c-0.2-0.4-0.3-0.8-0.3-1.2
			c0-0.8,0.3-1.4,0.9-1.9c0.6-0.4,1.5-0.7,2.5-0.7h2.1v-0.1c0-0.7-0.2-1.2-0.5-1.6c-0.4-0.4-0.8-0.5-1.5-0.5c-0.5,0-1,0.1-1.4,0.4
			c-0.4,0.3-0.6,0.6-0.7,1.1h-1.4c0.1-0.6,0.2-1.1,0.6-1.5c0.3-0.4,0.8-0.7,1.3-0.9c0.5-0.2,1-0.3,1.6-0.3c1.1,0,1.9,0.3,2.5,0.9
			c0.6,0.6,0.8,1.4,0.8,2.4v4.9h-1.2l-0.1-1.4c-0.2,0.4-0.6,0.8-1,1.2C89.3,359.8,88.8,359.9,88,359.9z M88.2,358.8
			c0.5,0,0.9-0.1,1.3-0.4c0.4-0.3,0.7-0.6,0.8-1c0.2-0.4,0.3-0.9,0.3-1.3v0h-2c-0.8,0-1.3,0.1-1.7,0.4c-0.3,0.3-0.5,0.6-0.5,1
			c0,0.4,0.2,0.8,0.4,1C87.2,358.7,87.7,358.8,88.2,358.8z M94,359.7v-7.9h1.2l0.1,1.4c0.3-0.5,0.6-0.9,1.1-1.2
			c0.5-0.3,1-0.4,1.6-0.4c0.9,0,1.7,0.3,2.2,0.9c0.6,0.6,0.8,1.4,0.8,2.6v4.6h-1.3v-4.5c0-1.7-0.7-2.5-2-2.5c-0.7,0-1.3,0.2-1.7,0.8
			c-0.4,0.5-0.7,1.2-0.7,2.1v4.1H94z M106.3,357.2c-0.4,0-0.9-0.1-1.2-0.2l-0.8,0.8c0.1,0.1,0.3,0.2,0.4,0.2
			c0.2,0.1,0.4,0.1,0.8,0.2c0.3,0,0.8,0.1,1.4,0.1c1.1,0.1,1.8,0.3,2.3,0.7c0.5,0.4,0.7,1,0.7,1.6c0,0.5-0.1,0.9-0.4,1.3
			c-0.2,0.4-0.6,0.8-1.2,1c-0.5,0.3-1.2,0.4-2,0.4c-0.7,0-1.4-0.1-1.9-0.3c-0.6-0.2-1-0.5-1.3-0.8c-0.3-0.4-0.5-0.8-0.5-1.4
			c0-0.3,0.1-0.6,0.2-1c0.2-0.3,0.5-0.7,0.9-1c-0.2-0.1-0.4-0.2-0.6-0.3c-0.2-0.1-0.3-0.2-0.4-0.4v-0.4l1.4-1.3
			c-0.6-0.5-0.9-1.2-0.9-2.1c0-0.5,0.1-1,0.4-1.4c0.2-0.4,0.6-0.8,1.1-1c0.5-0.3,1-0.4,1.7-0.4c0.5,0,0.9,0.1,1.2,0.2h2.9v1
			l-1.5,0.1c0.3,0.4,0.5,1,0.5,1.6c0,0.5-0.1,1-0.4,1.4c-0.2,0.4-0.6,0.8-1.1,1C107.6,357.1,107,357.2,106.3,357.2z M106.3,356.1
			c0.6,0,1-0.1,1.3-0.4c0.3-0.3,0.5-0.7,0.5-1.3c0-0.5-0.2-1-0.5-1.2c-0.3-0.3-0.8-0.4-1.3-0.4c-0.6,0-1,0.1-1.4,0.4
			c-0.3,0.3-0.5,0.7-0.5,1.2c0,0.6,0.2,1,0.5,1.3C105.3,356,105.8,356.1,106.3,356.1z M104,360.7c0,0.5,0.2,0.9,0.7,1.2
			c0.4,0.3,1,0.4,1.7,0.4c0.7,0,1.2-0.1,1.6-0.4c0.4-0.3,0.6-0.7,0.6-1.2c0-0.3-0.1-0.6-0.4-0.9c-0.3-0.2-0.8-0.4-1.5-0.4
			c-0.6,0-1.1-0.1-1.5-0.2c-0.4,0.2-0.7,0.5-0.9,0.8C104.1,360.3,104,360.5,104,360.7z M115.3,359.9c-0.8,0-1.4-0.2-2-0.5
			c-0.6-0.4-1.1-0.8-1.4-1.5c-0.3-0.6-0.5-1.4-0.5-2.2c0-0.8,0.2-1.6,0.5-2.2c0.3-0.6,0.8-1.1,1.4-1.5c0.6-0.4,1.3-0.5,2.1-0.5
			c0.8,0,1.4,0.2,2,0.5c0.6,0.3,1,0.8,1.3,1.4c0.3,0.6,0.4,1.2,0.4,1.8c0,0.1,0,0.2,0,0.4c0,0.1,0,0.2,0,0.4h-6.3
			c0,0.6,0.2,1.1,0.4,1.5c0.3,0.4,0.6,0.7,0.9,0.9c0.4,0.2,0.8,0.3,1.2,0.3c0.6,0,1-0.1,1.4-0.4c0.4-0.3,0.6-0.6,0.8-1h1.3
			c-0.2,0.7-0.6,1.3-1.2,1.8C117,359.7,116.2,359.9,115.3,359.9z M115.3,352.7c-0.6,0-1.2,0.2-1.7,0.6c-0.5,0.4-0.8,0.9-0.8,1.7h5
			c0-0.7-0.3-1.3-0.7-1.7C116.5,352.9,116,352.7,115.3,352.7z M125.1,359.7v-11.5h1.3v4.9c0.3-0.5,0.6-0.9,1.1-1.1
			c0.5-0.3,1-0.4,1.6-0.4c0.9,0,1.7,0.3,2.2,0.9c0.6,0.6,0.8,1.4,0.8,2.6v4.6h-1.3v-4.5c0-1.7-0.7-2.5-2-2.5c-0.7,0-1.3,0.2-1.7,0.8
			c-0.5,0.5-0.7,1.2-0.7,2.1v4.1H125.1z M137.8,359.9c-0.7,0-1.4-0.2-2-0.5c-0.6-0.3-1.1-0.8-1.4-1.4c-0.3-0.6-0.5-1.4-0.5-2.2
			c0-0.8,0.2-1.6,0.5-2.2c0.4-0.6,0.8-1.1,1.4-1.5c0.6-0.3,1.3-0.5,2-0.5c0.7,0,1.4,0.2,2,0.5c0.6,0.3,1.1,0.8,1.4,1.5
			c0.4,0.6,0.5,1.3,0.5,2.2c0,0.8-0.2,1.6-0.5,2.2c-0.4,0.6-0.8,1.1-1.4,1.4C139.2,359.7,138.6,359.9,137.8,359.9z M137.8,358.8
			c0.5,0,0.9-0.1,1.3-0.3c0.4-0.2,0.7-0.6,1-1c0.2-0.4,0.4-1,0.4-1.7c0-0.7-0.1-1.2-0.4-1.7c-0.2-0.4-0.5-0.8-0.9-1
			c-0.4-0.2-0.8-0.3-1.3-0.3c-0.5,0-0.9,0.1-1.3,0.3c-0.4,0.2-0.7,0.6-1,1c-0.2,0.4-0.4,1-0.4,1.7c0,0.7,0.1,1.2,0.4,1.7
			c0.2,0.4,0.6,0.8,0.9,1C137,358.7,137.4,358.8,137.8,358.8z M145,359.7l-2.3-7.9h1.3l1.7,6.2l1.9-6.2h1.5l1.9,6.2l1.7-6.2h1.4
			l-2.3,7.9h-1.4l-2-6.5l-2,6.5H145z M160.5,363.2l2-4.3H162l-3.2-7.2h1.5l2.6,6.2l2.8-6.2h1.4l-5.2,11.5H160.5z M171.4,359.9
			c-0.7,0-1.4-0.2-2-0.5c-0.6-0.3-1.1-0.8-1.4-1.4c-0.3-0.6-0.5-1.4-0.5-2.2c0-0.8,0.2-1.6,0.5-2.2c0.4-0.6,0.8-1.1,1.4-1.5
			c0.6-0.3,1.3-0.5,2-0.5c0.7,0,1.4,0.2,2,0.5c0.6,0.3,1.1,0.8,1.4,1.5c0.4,0.6,0.5,1.3,0.5,2.2c0,0.8-0.2,1.6-0.5,2.2
			c-0.4,0.6-0.8,1.1-1.4,1.4C172.9,359.7,172.2,359.9,171.4,359.9z M171.4,358.8c0.5,0,0.9-0.1,1.3-0.3c0.4-0.2,0.7-0.6,1-1
			c0.2-0.4,0.4-1,0.4-1.7c0-0.7-0.1-1.2-0.4-1.7c-0.2-0.4-0.6-0.8-0.9-1c-0.4-0.2-0.8-0.3-1.3-0.3c-0.5,0-0.9,0.1-1.3,0.3
			c-0.4,0.2-0.7,0.6-1,1c-0.2,0.4-0.4,1-0.4,1.7c0,0.7,0.1,1.2,0.4,1.7c0.2,0.4,0.6,0.8,0.9,1C170.6,358.7,171,358.8,171.4,358.8z
			 M180.2,359.9c-0.9,0-1.7-0.3-2.2-0.8c-0.6-0.6-0.8-1.5-0.8-2.6v-4.6h1.3v4.5c0,1.7,0.7,2.5,2,2.5c0.7,0,1.3-0.2,1.7-0.7
			c0.5-0.5,0.7-1.2,0.7-2.1v-4.1h1.3v7.9H183l-0.1-1.4c-0.2,0.5-0.6,0.9-1.1,1.2C181.3,359.8,180.8,359.9,180.2,359.9z M193.7,359.9
			c-0.9,0-1.7-0.2-2.4-0.7c-0.6-0.5-1-1.1-1.1-2h1.4c0.1,0.4,0.3,0.8,0.7,1.1c0.4,0.3,0.8,0.4,1.5,0.4c0.6,0,1-0.1,1.2-0.4
			c0.3-0.2,0.4-0.5,0.4-0.9c0-0.5-0.2-0.8-0.5-1c-0.3-0.2-0.8-0.3-1.5-0.4c-0.4-0.1-0.9-0.2-1.3-0.4c-0.4-0.2-0.8-0.4-1.1-0.7
			c-0.3-0.3-0.4-0.7-0.4-1.2c0-0.7,0.3-1.3,0.8-1.7c0.5-0.4,1.2-0.7,2.1-0.7c0.8,0,1.5,0.2,2.1,0.6c0.5,0.4,0.9,1,0.9,1.8h-1.3
			c-0.1-0.4-0.2-0.7-0.5-0.9c-0.3-0.2-0.7-0.4-1.2-0.4c-0.5,0-0.9,0.1-1.1,0.3c-0.3,0.2-0.4,0.5-0.4,0.8c0,0.3,0.2,0.6,0.5,0.8
			c0.3,0.2,0.8,0.3,1.4,0.5c0.5,0.1,1,0.2,1.4,0.4c0.4,0.1,0.8,0.4,1.1,0.7c0.3,0.3,0.4,0.7,0.4,1.3c0,0.7-0.3,1.3-0.8,1.8
			C195.4,359.7,194.7,359.9,193.7,359.9z M201.5,359.7c-0.7,0-1.3-0.2-1.7-0.5c-0.4-0.4-0.6-1-0.6-1.9v-4.4h-1.4v-1.1h1.4l0.2-1.9
			h1.2v1.9h2.3v1.1h-2.3v4.4c0,0.5,0.1,0.8,0.3,1c0.2,0.2,0.6,0.3,1.1,0.3h0.8v1.2H201.5z M207.4,359.9c-0.9,0-1.7-0.3-2.2-0.8
			c-0.6-0.6-0.8-1.5-0.8-2.6v-4.6h1.3v4.5c0,1.7,0.7,2.5,2,2.5c0.7,0,1.3-0.2,1.7-0.7c0.5-0.5,0.7-1.2,0.7-2.1v-4.1h1.3v7.9h-1.2
			l-0.1-1.4c-0.2,0.5-0.6,0.9-1.1,1.2C208.6,359.8,208,359.9,207.4,359.9z M217.3,359.9c-0.8,0-1.5-0.2-2.1-0.5
			c-0.6-0.4-1-0.9-1.4-1.5c-0.3-0.6-0.5-1.3-0.5-2.1c0-0.8,0.2-1.5,0.5-2.1c0.3-0.6,0.8-1.1,1.4-1.5c0.6-0.4,1.3-0.5,2.1-0.5
			c0.6,0,1.2,0.1,1.7,0.4c0.5,0.3,0.9,0.6,1.2,1.1v-4.9h1.3v11.5h-1.2l-0.1-1.3c-0.3,0.4-0.6,0.7-1.1,1
			C218.6,359.8,218,359.9,217.3,359.9z M217.4,358.7c0.5,0,1-0.1,1.4-0.4c0.4-0.3,0.7-0.6,1-1.1c0.2-0.4,0.4-1,0.4-1.6
			c0-0.6-0.1-1.1-0.4-1.6c-0.2-0.4-0.5-0.8-1-1c-0.4-0.3-0.9-0.4-1.4-0.4c-0.5,0-1,0.1-1.4,0.4c-0.4,0.2-0.7,0.6-1,1
			c-0.2,0.4-0.3,1-0.3,1.6c0,0.6,0.1,1.1,0.3,1.6c0.2,0.4,0.6,0.8,1,1.1C216.4,358.6,216.9,358.7,217.4,358.7z M224.6,363.2l2-4.3
			h-0.5l-3.2-7.2h1.5l2.6,6.2l2.8-6.2h1.4l-5.2,11.5H224.6z M237.3,359.7v-6.8h-1.2v-1.1h1.2v-1.4c0-0.8,0.2-1.3,0.6-1.7
			c0.4-0.4,0.9-0.5,1.7-0.5h0.8v1.2h-0.6c-0.4,0-0.7,0.1-0.9,0.3c-0.2,0.2-0.3,0.4-0.3,0.8v1.3h2v1.1h-2v6.8H237.3z M245.5,359.9
			c-0.7,0-1.4-0.2-2-0.5c-0.6-0.3-1.1-0.8-1.4-1.4c-0.3-0.6-0.5-1.4-0.5-2.2c0-0.8,0.2-1.6,0.5-2.2c0.4-0.6,0.8-1.1,1.4-1.5
			c0.6-0.3,1.3-0.5,2-0.5c0.7,0,1.4,0.2,2,0.5c0.6,0.3,1.1,0.8,1.4,1.5c0.4,0.6,0.5,1.3,0.5,2.2c0,0.8-0.2,1.6-0.5,2.2
			c-0.4,0.6-0.8,1.1-1.4,1.4C246.9,359.7,246.2,359.9,245.5,359.9z M245.5,358.8c0.5,0,0.9-0.1,1.3-0.3s0.7-0.6,1-1s0.4-1,0.4-1.7
			c0-0.7-0.1-1.2-0.4-1.7c-0.2-0.4-0.5-0.8-0.9-1c-0.4-0.2-0.8-0.3-1.3-0.3c-0.5,0-0.9,0.1-1.3,0.3c-0.4,0.2-0.7,0.6-1,1
			s-0.4,1-0.4,1.7c0,0.7,0.1,1.2,0.4,1.7s0.6,0.8,0.9,1C244.6,358.7,245,358.8,245.5,358.8z M251.3,359.7v-7.9h1.2l0.1,1.5
			c0.2-0.5,0.6-0.9,1.1-1.2c0.5-0.3,1.1-0.5,1.9-0.5v1.4h-0.4c-0.5,0-0.9,0.1-1.3,0.3c-0.4,0.2-0.7,0.4-0.9,0.8
			c-0.2,0.4-0.4,0.9-0.4,1.6v4H251.3z M262.2,363.2l2-4.3h-0.5l-3.2-7.2h1.5l2.6,6.2l2.8-6.2h1.4l-5.2,11.5H262.2z M273.1,359.9
			c-0.7,0-1.4-0.2-2-0.5c-0.6-0.3-1.1-0.8-1.4-1.4c-0.3-0.6-0.5-1.4-0.5-2.2c0-0.8,0.2-1.6,0.5-2.2c0.4-0.6,0.8-1.1,1.4-1.5
			c0.6-0.3,1.3-0.5,2-0.5c0.7,0,1.4,0.2,2,0.5c0.6,0.3,1.1,0.8,1.4,1.5c0.4,0.6,0.5,1.3,0.5,2.2c0,0.8-0.2,1.6-0.5,2.2
			c-0.4,0.6-0.8,1.1-1.4,1.4C274.5,359.7,273.9,359.9,273.1,359.9z M273.1,358.8c0.5,0,0.9-0.1,1.3-0.3c0.4-0.2,0.7-0.6,1-1
			c0.2-0.4,0.4-1,0.4-1.7c0-0.7-0.1-1.2-0.4-1.7c-0.2-0.4-0.5-0.8-0.9-1c-0.4-0.2-0.8-0.3-1.3-0.3c-0.5,0-0.9,0.1-1.3,0.3
			c-0.4,0.2-0.7,0.6-1,1c-0.2,0.4-0.4,1-0.4,1.7c0,0.7,0.1,1.2,0.4,1.7c0.2,0.4,0.6,0.8,0.9,1C272.3,358.7,272.7,358.8,273.1,358.8z
			 M281.9,359.9c-0.9,0-1.7-0.3-2.2-0.8c-0.6-0.6-0.8-1.5-0.8-2.6v-4.6h1.3v4.5c0,1.7,0.7,2.5,2,2.5c0.7,0,1.3-0.2,1.7-0.7
			c0.5-0.5,0.7-1.2,0.7-2.1v-4.1h1.3v7.9h-1.2l-0.1-1.4c-0.2,0.5-0.6,0.9-1.1,1.2C283,359.8,282.5,359.9,281.9,359.9z M288.1,359.7
			v-7.9h1.2l0.1,1.5c0.2-0.5,0.6-0.9,1.1-1.2c0.5-0.3,1.1-0.5,1.9-0.5v1.4h-0.4c-0.5,0-0.9,0.1-1.3,0.3c-0.4,0.2-0.7,0.4-0.9,0.8
			c-0.2,0.4-0.4,0.9-0.4,1.6v4H288.1z M17.1,383.7v-7.9h1.2l0.1,1.4c0.3-0.5,0.6-0.9,1.1-1.2c0.5-0.3,1-0.4,1.6-0.4
			c0.9,0,1.7,0.3,2.2,0.9c0.6,0.6,0.8,1.4,0.8,2.6v4.6h-1.3v-4.5c0-1.7-0.7-2.5-2-2.5c-0.7,0-1.3,0.2-1.7,0.8
			c-0.4,0.5-0.7,1.2-0.7,2.1v4.1H17.1z M29.8,383.9c-0.8,0-1.4-0.2-2-0.5c-0.6-0.4-1.1-0.8-1.4-1.5c-0.3-0.6-0.5-1.4-0.5-2.2
			c0-0.8,0.2-1.6,0.5-2.2c0.3-0.6,0.8-1.1,1.4-1.5c0.6-0.4,1.3-0.5,2.1-0.5c0.8,0,1.4,0.2,2,0.5c0.6,0.3,1,0.8,1.3,1.4
			c0.3,0.6,0.4,1.2,0.4,1.8c0,0.1,0,0.2,0,0.4c0,0.1,0,0.2,0,0.4h-6.3c0,0.6,0.2,1.1,0.4,1.5c0.3,0.4,0.6,0.7,0.9,0.9
			c0.4,0.2,0.8,0.3,1.2,0.3c0.6,0,1-0.1,1.4-0.4c0.4-0.3,0.6-0.6,0.8-1h1.3c-0.2,0.7-0.6,1.3-1.2,1.8
			C31.5,383.7,30.8,383.9,29.8,383.9z M29.8,376.7c-0.6,0-1.2,0.2-1.7,0.6c-0.5,0.4-0.8,0.9-0.8,1.7h5c0-0.7-0.3-1.3-0.7-1.7
			C31.1,376.9,30.5,376.7,29.8,376.7z M34.2,383.7l2.8-4l-2.8-4h1.5l2.2,3.3l2.2-3.3h1.4l-2.8,4l2.8,4h-1.4l-2.2-3.3l-2.2,3.3H34.2z
			 M46.1,383.7c-0.7,0-1.3-0.2-1.7-0.5c-0.4-0.4-0.6-1-0.6-1.9v-4.4h-1.4v-1.1h1.4l0.2-1.9h1.2v1.9h2.3v1.1h-2.3v4.4
			c0,0.5,0.1,0.8,0.3,1c0.2,0.2,0.6,0.3,1.1,0.3h0.8v1.2H46.1z M57,383.9c-0.8,0-1.4-0.2-2-0.5c-0.6-0.4-1.1-0.8-1.4-1.5
			c-0.3-0.6-0.5-1.4-0.5-2.2c0-0.8,0.2-1.6,0.5-2.2c0.3-0.6,0.8-1.1,1.4-1.5c0.6-0.4,1.3-0.5,2.1-0.5c0.8,0,1.4,0.2,2,0.5
			c0.6,0.3,1,0.8,1.3,1.4c0.3,0.6,0.4,1.2,0.4,1.8c0,0.1,0,0.2,0,0.4c0,0.1,0,0.2,0,0.4h-6.3c0,0.6,0.2,1.1,0.4,1.5
			c0.3,0.4,0.6,0.7,0.9,0.9c0.4,0.2,0.8,0.3,1.2,0.3c0.6,0,1-0.1,1.4-0.4c0.4-0.3,0.6-0.6,0.8-1h1.3c-0.2,0.7-0.6,1.3-1.2,1.8
			C58.7,383.7,57.9,383.9,57,383.9z M57,376.7c-0.6,0-1.2,0.2-1.7,0.6c-0.5,0.4-0.8,0.9-0.8,1.7h5c0-0.7-0.3-1.3-0.7-1.7
			C58.2,376.9,57.6,376.7,57,376.7z M61.3,383.7l2.8-4l-2.8-4h1.5l2.2,3.3l2.2-3.3h1.4l-2.8,4l2.8,4h-1.4l-2.2-3.3l-2.2,3.3H61.3z
			 M72.7,383.9c-0.7,0-1.2-0.1-1.6-0.3s-0.8-0.5-1-0.9c-0.2-0.4-0.3-0.8-0.3-1.2c0-0.8,0.3-1.4,0.9-1.9c0.6-0.4,1.5-0.7,2.5-0.7h2.1
			v-0.1c0-0.7-0.2-1.2-0.5-1.6c-0.4-0.4-0.8-0.5-1.5-0.5c-0.5,0-1,0.1-1.4,0.4c-0.4,0.3-0.6,0.6-0.7,1.1h-1.4
			c0.1-0.6,0.2-1.1,0.6-1.5c0.3-0.4,0.8-0.7,1.3-0.9c0.5-0.2,1-0.3,1.6-0.3c1.1,0,1.9,0.3,2.5,0.9c0.6,0.6,0.8,1.4,0.8,2.4v4.9h-1.2
			l-0.1-1.4c-0.2,0.4-0.6,0.8-1,1.2C74,383.8,73.4,383.9,72.7,383.9z M72.9,382.8c0.5,0,0.9-0.1,1.3-0.4c0.4-0.3,0.7-0.6,0.8-1
			c0.2-0.4,0.3-0.9,0.3-1.3v0h-2c-0.8,0-1.3,0.1-1.7,0.4c-0.3,0.3-0.5,0.6-0.5,1c0,0.4,0.1,0.8,0.4,1
			C71.9,382.7,72.3,382.8,72.9,382.8z M78.7,383.7v-7.9h1.2l0.1,1.2c0.3-0.4,0.6-0.8,1-1c0.4-0.2,0.9-0.4,1.4-0.4
			c0.6,0,1.2,0.1,1.6,0.4c0.5,0.3,0.8,0.6,1.1,1.2c0.3-0.5,0.7-0.9,1.1-1.1c0.5-0.3,1-0.4,1.6-0.4c0.9,0,1.7,0.3,2.3,0.9
			c0.6,0.6,0.8,1.4,0.8,2.6v4.6h-1.3v-4.5c0-0.8-0.2-1.4-0.5-1.9c-0.3-0.4-0.8-0.6-1.4-0.6c-0.6,0-1.2,0.2-1.6,0.8
			c-0.4,0.5-0.6,1.2-0.6,2.1v4.1h-1.3v-4.5c0-0.8-0.2-1.4-0.5-1.9c-0.3-0.4-0.8-0.6-1.4-0.6c-0.6,0-1.2,0.2-1.6,0.8
			c-0.4,0.5-0.6,1.2-0.6,2.1v4.1H78.7z M93.3,380.6l-0.2-8.1h1.5l-0.2,8.1H93.3z M93.9,383.8c-0.3,0-0.5-0.1-0.7-0.3
			c-0.2-0.2-0.3-0.4-0.3-0.7c0-0.3,0.1-0.5,0.3-0.6c0.2-0.2,0.4-0.3,0.7-0.3c0.3,0,0.5,0.1,0.6,0.3c0.2,0.2,0.3,0.4,0.3,0.6
			c0,0.3-0.1,0.5-0.3,0.7C94.4,383.7,94.2,383.8,93.9,383.8z"/>
	</g>
</g>
</svg>
