<?xml version="1.0" encoding="utf-8"?>
<!-- Generator: Adobe Illustrator 25.1.0, SVG Export Plug-In . SVG Version: 6.00 Build 0)  -->
<svg version="1.1" id="Layer_1" xmlns="http://www.w3.org/2000/svg" xmlns:xlink="http://www.w3.org/1999/xlink" x="0px" y="0px"
	 viewBox="0 0 340.9 243.7" style="enable-background:new 0 0 340.9 243.7;" xml:space="preserve">
<style type="text/css">
	.st0{fill:#FFFFFF;}
	.st1{fill:#00CDDC;}
	.st2{fill:#808080;}
	.st3{fill:#F4F1EF;}
	.st4{fill:#00A878;}
	.st5{fill:#28C86E;}
	.st6{fill:#32DCD2;}
	.st7{fill:none;stroke:#28C86E;stroke-width:2.695;stroke-linecap:round;stroke-miterlimit:10;}
	.st8{fill:#FFCF8D;}
	.st9{fill:#FF9F1A;}
</style>
<g>
	<g>
		<path class="st0" d="M309.1,229.6c40.4-20.9,41.3-164.6,8.5-216.3c-14.5-22.9-70.9-9.9-144.1-7.2C55.6,10.6,2.4-16.3,2.7,87.2
			C3,193-33.8,281.9,156.1,226.9C232.9,204.7,282.8,243.2,309.1,229.6z"/>
		<path class="st1" d="M190.6,169.3c0.3-0.2,0.7-0.2,1.2-0.2c0.3,0,0.6,0,0.8,0c0.8,0.1,1.4,0.2,1.7,0.3s0.6,0.4,0.8,0.8
			c0.3,0.4,0.4,0.9,0.4,1.3c0,0.5-0.2,0.9-0.6,1.3c-0.3,0.3-0.7,0.5-1,0.5c-0.4,0-0.7-0.2-1.1-0.7c-0.2-0.4-0.5-0.5-0.8-0.5
			c-0.2,0-0.5,0.2-0.7,0.5c-0.2,0.4-0.4,0.7-0.4,1.2v0.2c0,1.5,1.2,4.4,3.5,8.5c0.4,0.7,0.8,1.9,1.1,3.7c0,0.1,0,0.3,0,0.6
			c0,1.5-0.3,2.7-1,3.6c-0.3,0.4-0.7,0.7-1.4,1c-0.6,0.3-1.2,0.4-1.7,0.4c-0.1,0-0.1,0-0.2,0c-0.1,0-0.1,0-0.2,0
			c-0.6-0.1-1.4-0.6-2.3-1.4c-0.9-0.9-1.4-1.5-1.4-2c0-0.2,0.2-0.5,0.5-0.8s0.6-0.5,0.9-0.5c0.1,0,0.1,0,0.3,0
			c0.3,0,0.8,0.5,1.5,1.3c0.2,0.4,0.5,0.5,0.8,0.5s0.5-0.2,0.6-0.5c0.1-0.1,0.1-0.3,0.1-0.6c0-1.6-0.7-4-2.2-7.1
			c-1.3-2.9-2-5.1-2-6.5c0-0.6,0.1-1.2,0.3-1.7c0.4-1.1,0.8-1.8,1.1-2.2C189.6,170,190,169.6,190.6,169.3z"/>
		<path class="st1" d="M201.6,170.9c0.3-0.1,0.8-0.1,1.3-0.1c1.5,0,2.5,0.2,2.9,0.5c0.3,0.2,0.4,0.6,0.4,0.9c0,0.4-0.1,0.7-0.4,0.9
			s-0.6,0.4-1.1,0.4c-0.4,0-0.7,0.1-0.8,0.3s-0.2,0.7-0.2,1.5c0,0.2,0,0.9,0.1,2.1c0.1,1.4,0.1,2.3,0.2,2.7c0.1,0.4,0.2,0.6,0.3,0.6
			c0,0,0.2,0,0.6,0c0.3,0,0.6,0,0.8,0c0.7,0,1.2,0.2,1.5,0.5c0.2,0.2,0.3,0.4,0.3,0.6c0,0.4-0.6,0.9-1.8,1.3
			c-0.7,0.2-1.1,0.4-1.3,0.6s-0.2,0.4-0.3,0.9s-0.1,0.8-0.1,1.2c0,1.4,0.1,2.4,0.4,3.1c0.1,0.3,0.2,0.5,0.4,0.5
			c0.1,0.1,0.4,0.1,0.9,0.1c0.6,0,1.1,0.1,1.5,0.4s0.6,0.6,0.6,1c0,0.2-0.2,0.6-0.6,1c-0.7,0.6-1.8,1-3.4,1c-1.6,0-2.7-0.3-3.2-1
			c-0.3-0.4-0.4-2.8-0.5-7.2c-0.1-5.5-0.1-8.8-0.2-9.7l-0.1-3.1l0.6-0.3C200.8,171.1,201.2,171,201.6,170.9z"/>
		<path class="st1" d="M213,168.5c0.4-0.3,1-0.5,1.9-0.5h1c1.5,0.1,2.4,0.1,2.7,0.2c0.2,0.1,0.6,0.1,1.2,0.1c0.6,0,1.1,0.2,1.4,0.4
			c0.3,0.2,0.4,0.6,0.4,1.1s-0.1,0.9-0.3,1.1s-0.6,0.4-1.1,0.5c-0.6,0.1-0.9,0.2-1,0.3s-0.2,2.8-0.2,8c0,3.6,0,6.1,0.1,7.6
			c0.1,1.2,0.1,1.8,0.1,1.9c0,0.6-0.1,1.1-0.4,1.5c-0.3,0.6-0.8,0.8-1.4,0.8c-0.4,0-0.9-0.1-1.3-0.4l-0.8-0.5l0.1-9.6
			c0.1-2.5,0.1-4.9,0.1-7.4c0-1.5-0.1-2.3-0.3-2.4c-0.3-0.2-0.6-0.2-0.6-0.2c-0.1,0-0.3,0-0.5,0c-0.5,0-0.9-0.1-1.3-0.4
			c-0.3-0.3-0.5-0.6-0.5-1C212.4,169.2,212.6,168.9,213,168.5z"/>
		<path class="st1" d="M227.1,170c0.2-0.1,0.6-0.2,1.1-0.2c0.9,0,1.9,0.2,2.9,0.6s1.7,0.9,2.1,1.5c0.4,0.7,0.7,1.4,0.7,2.2
			c0,1-0.3,2.2-0.9,3.7l-0.5,1.1l0.7,0.7c0.5,0.5,0.9,1.1,1.3,1.8c0.3,0.7,0.5,1.4,0.5,2s0,1.2,0,1.7c-0.1,1.2-0.1,2-0.2,2.4
			c-0.1,0.4-0.3,0.9-0.6,1.6c-0.7,1.3-1.3,2.2-1.8,2.7c-0.5,0.4-1.3,0.6-2.3,0.6c-1.1,0-1.8,0-2,0l0,0c-0.4,0-0.9-0.2-1.2-0.7
			c-0.4-0.5-0.6-1-0.7-1.7c0-0.1,0-0.4,0-0.9c0-0.8,0-1.6,0.1-2.4c0.2-1.4,0.2-4.9,0.2-10.7c0-3,0-4.5-0.1-4.7c0,0,0-0.1,0-0.2
			c0-0.2,0.1-0.5,0.3-0.8C226.7,170.3,226.9,170.1,227.1,170z M231.3,182.3c-0.1-0.2-0.4-0.3-0.7-0.3s-0.6,0.1-0.7,0.4
			c-0.2,0.3-0.2,1.8-0.2,4.5c0,1.3,0,2.1,0.1,2.1h0.1c0.1,0,0.3-0.2,0.6-0.6s0.5-0.9,0.7-1.5c0.3-0.7,0.4-1.7,0.4-2.9
			C231.6,183.2,231.5,182.6,231.3,182.3z M230.3,174.1c-0.1-0.2-0.2-0.4-0.4-0.4s-0.3,0.6-0.3,1.7c0,1,0,1.5,0.1,1.5l0,0
			c0.1-0.1,0.3-0.4,0.4-0.8s0.2-0.8,0.2-1c0-0.1,0-0.3,0-0.5C230.3,174.3,230.3,174.1,230.3,174.1z"/>
		<path class="st1" d="M242.6,172.4c0.7-0.7,1.8-1.1,3.3-1.1c0.6,0,1.2,0.1,1.6,0.3c0.6,0.3,1,1.1,1.3,2.4c0.2,1.1,0.4,2.9,0.7,5.4
			c0.3,2.6,0.4,4.5,0.5,5.9c0,1.3,0.1,2.8,0.3,4.4c0.1,1.6,0.3,2.5,0.4,2.7c0,0,0,0.1,0,0.2c0,0.2-0.1,0.6-0.3,0.9
			c-0.2,0.4-0.4,0.6-0.6,0.6c-0.1,0-0.2,0-0.4,0c-0.4,0-0.9-0.1-1.4-0.3s-0.8-0.4-0.9-0.6s-0.2-1-0.4-2.3s-0.2-2.4-0.2-3.2
			s-0.1-1.2-0.2-1.3c-0.1-0.1-0.8-0.1-1.9-0.1c-1,0-1.4,0-1.5,0.1c0,0.1,0,0.3,0,0.5c0,0.6,0,1.3,0.1,2.3c0.1,1.1,0.1,2,0.1,2.7v0.4
			c0,0.2-0.2,0.4-0.6,0.5s-0.7,0.2-1.1,0.2c-0.2,0-0.3,0-0.4,0c-1-0.3-1.5-0.7-1.6-1.2c0,0,0-0.1,0-0.2s0-0.2,0-0.3
			c0-1.2,0.1-3.7,0.4-7.6s0.5-6.1,0.6-6.7c0.2-0.8,0.5-1.6,1-2.6C241.8,173.4,242.2,172.7,242.6,172.4z M245.5,176.7
			c-0.2-0.8-0.4-1.2-0.6-1.2s-0.4,0.3-0.7,0.9c-0.5,1.1-0.9,2.7-1,4.6c-0.1,0.8-0.1,1.3-0.1,1.4c0,0.4,0.1,0.6,0.2,0.7
			s0.5,0.2,1.1,0.2c0.8,0,1.3-0.1,1.4-0.2s0.1-0.5,0.1-1.1C245.9,180,245.8,178.2,245.5,176.7z"/>
		<path class="st1" d="M257.8,171.6c0.5-0.5,0.9-0.9,1.1-1s0.5-0.2,1-0.2c1.3,0,1.9,0.4,1.9,1.3c0,0.8-0.6,1.4-1.7,2
			c-0.7,0.4-1.3,1.8-1.7,4.2c-0.2,1.1-0.3,2.2-0.3,3.4s0.1,2.4,0.2,3.6c0.1,1.6,0.4,2.7,0.7,3.3c0.3,0.6,0.8,1,1.4,1.1
			c1.1,0.2,1.8,0.5,1.9,1c0,0.1,0,0.1,0,0.2c0,0.3-0.2,0.6-0.5,0.9s-0.7,0.5-1.1,0.6c-0.1,0-0.2,0-0.5,0c-1,0-2-0.2-2.8-0.7
			c-0.3-0.2-0.7-0.7-1.1-1.5s-0.8-1.6-1-2.4c-0.3-1.1-0.5-3.2-0.5-6c0-1.1,0.1-2.2,0.2-3.2c0.2-1.7,0.5-3,0.9-3.9
			C256.4,173.3,257,172.4,257.8,171.6z"/>
		<path class="st1" d="M273.9,169.9c0.4-0.3,0.7-0.5,1-0.5c0.2,0,0.6,0.1,1,0.3c0.5,0.3,0.8,0.6,0.8,0.8c0,0.4-0.6,1.6-1.7,3.6
			c-0.3,0.5-0.6,1-0.9,1.5s-0.5,0.9-0.7,1.2s-0.3,0.6-0.5,0.9s-0.3,0.5-0.4,0.7c-0.1,0.1-0.1,0.3-0.2,0.4s-0.1,0.2-0.1,0.3
			s0,0.2,0,0.2c0,0.3,0.2,0.9,0.7,1.6c0.6,0.9,0.8,1.4,0.8,1.5s0.1,0.4,0.5,0.8c0.3,0.3,0.6,1,1,1.9c0.2,0.6,0.6,1.2,1,1.9
			c1.3,1.9,1.9,3.2,1.9,4s-0.6,1.2-1.7,1.2h-0.1c-0.7,0-1.2-0.1-1.4-0.3s-0.5-0.7-0.8-1.5c-0.2-0.6-0.5-1.2-0.9-1.9
			s-0.7-1.2-0.8-1.7c-0.2-0.7-0.6-1.4-1.1-2.3c-0.5-0.8-0.8-1.3-1-1.3c-0.1,0-0.2,0.3-0.2,0.9c0,1,0.1,2.7,0.4,5
			c0.1,0.7,0.1,1.3,0.1,1.6c0,0.5-0.1,0.8-0.3,1c-0.2,0.1-0.6,0.2-1.2,0.3c-0.4,0.1-0.6,0.1-0.7,0.1c-0.3,0-0.6-0.2-0.9-0.5
			c-0.3-0.4-0.5-0.9-0.5-1.5c0-0.1,0-0.3,0-0.5c0-0.3,0-0.5,0-0.7c0.1-1.1,0.1-2.5,0.1-4.2c0-2.4,0-4.8-0.1-7.3l-0.1-6.9l0.5-0.2
			c0.2-0.1,0.3-0.1,0.4-0.1c0.2,0,0.6,0.1,1,0.4l0.9,0.4l0.1,2.8c0.1,1.8,0.1,2.7,0.2,2.7s0.6-0.6,1.4-1.9s1.3-2.3,1.5-3
			C273.1,170.8,273.4,170.3,273.9,169.9z"/>
		<path class="st1" d="M285.7,169.3c0.3-0.2,0.7-0.2,1.2-0.2c0.3,0,0.6,0,0.8,0c0.8,0.1,1.4,0.2,1.7,0.3c0.3,0.1,0.6,0.4,0.8,0.8
			c0.3,0.4,0.4,0.9,0.4,1.3c0,0.5-0.2,0.9-0.6,1.3c-0.3,0.3-0.7,0.5-1,0.5c-0.4,0-0.7-0.2-1-0.7c-0.2-0.4-0.5-0.5-0.8-0.5
			c-0.2,0-0.5,0.2-0.7,0.5c-0.2,0.4-0.4,0.7-0.4,1.2v0.2c0,1.5,1.2,4.4,3.5,8.5c0.4,0.7,0.8,1.9,1.1,3.7c0,0.1,0,0.3,0,0.6
			c0,1.5-0.3,2.7-1,3.6c-0.3,0.4-0.7,0.7-1.4,1s-1.2,0.4-1.7,0.4c-0.1,0-0.1,0-0.2,0s-0.1,0-0.2,0c-0.6-0.1-1.4-0.6-2.3-1.4
			c-0.9-0.9-1.4-1.5-1.4-2c0-0.2,0.2-0.5,0.5-0.8s0.6-0.5,0.9-0.5c0.1,0,0.1,0,0.3,0c0.3,0,0.8,0.5,1.5,1.3c0.2,0.4,0.5,0.5,0.8,0.5
			s0.5-0.2,0.6-0.5c0.1-0.1,0.1-0.3,0.1-0.6c0-1.6-0.7-4-2.2-7.1c-1.3-2.9-2-5.1-2-6.5c0-0.6,0.1-1.2,0.3-1.7
			c0.5-1.1,0.8-1.8,1.1-2.2C284.6,170,285.1,169.6,285.7,169.3z"/>
		<path class="st1" d="M295.3,187.5c0.3-0.3,0.6-0.5,0.9-0.5c0.1,0,0.3,0,0.6,0.1c1.1,0.2,1.7,0.7,1.7,1.3c0,0.5-0.4,1-1,1.4
			s-1.1,0.5-1.4,0.5c-0.6,0-1-0.5-1.1-1.4c0-0.2,0-0.4,0-0.6C294.9,188.1,295,187.8,295.3,187.5z"/>
		<path class="st2" d="M187.5,95.9V84.7h1.3v11.2C188.8,95.9,187.5,95.9,187.5,95.9z"/>
		<path class="st2" d="M191.6,95.9v-6.8h-1.2V88h1.2v-1.4c0-0.8,0.2-1.3,0.6-1.7c0.4-0.3,0.9-0.5,1.7-0.5h0.8v1.1H194
			c-0.4,0-0.7,0.1-0.9,0.2c-0.2,0.2-0.3,0.5-0.3,0.8v1.3h1.9v1.1h-1.9v6.8h-1.2V95.9z"/>
		<path class="st2" d="M201.6,99.4l2-4.3h-0.5l-3.2-7.2h1.5l2.6,6.2l2.8-6.2h1.4L203,99.4H201.6z"/>
		<path class="st2" d="M212.5,96.1c-0.8,0-1.4-0.2-2-0.5s-1.1-0.8-1.4-1.5c-0.4-0.6-0.5-1.4-0.5-2.2s0.2-1.6,0.5-2.2
			c0.4-0.6,0.8-1.1,1.4-1.4s1.3-0.5,2-0.5s1.4,0.2,2,0.5s1.1,0.8,1.4,1.4c0.4,0.6,0.5,1.4,0.5,2.2s-0.2,1.6-0.5,2.2
			s-0.8,1.1-1.4,1.5C213.9,95.9,213.2,96.1,212.5,96.1z M212.5,94.9c0.5,0,0.9-0.1,1.3-0.3c0.4-0.2,0.7-0.6,1-1
			c0.2-0.5,0.4-1,0.4-1.7s-0.1-1.2-0.4-1.7c-0.2-0.4-0.6-0.8-0.9-1c-0.4-0.2-0.8-0.3-1.3-0.3s-0.9,0.1-1.3,0.3c-0.4,0.2-0.7,0.6-1,1
			s-0.4,1-0.4,1.7s0.1,1.2,0.4,1.7c0.2,0.4,0.6,0.8,0.9,1C211.6,94.8,212,94.9,212.5,94.9z"/>
		<path class="st2" d="M221.2,96.1c-0.9,0-1.7-0.3-2.2-0.9s-0.8-1.4-0.8-2.6V88h1.3v4.5c0,1.7,0.7,2.5,2,2.5c0.7,0,1.3-0.2,1.7-0.7
			s0.7-1.2,0.7-2.1V88h1.3v7.9H224l-0.1-1.4c-0.2,0.5-0.6,0.9-1.1,1.2C222.4,96,221.8,96.1,221.2,96.1z"/>
		<path class="st2" d="M226.9,88.3l0.9-3.6h1.5l-1.5,3.6H226.9z"/>
		<path class="st2" d="M230.9,95.9V88h1.2l0.1,1.5c0.2-0.5,0.6-0.9,1.1-1.2s1.1-0.5,1.9-0.5v1.4h-0.4c-0.5,0-0.9,0.1-1.3,0.2
			c-0.4,0.2-0.7,0.4-0.9,0.8s-0.4,0.9-0.4,1.6v4L230.9,95.9L230.9,95.9z"/>
		<path class="st2" d="M240,96.1c-0.8,0-1.4-0.2-2-0.5s-1.1-0.8-1.4-1.4s-0.5-1.4-0.5-2.2s0.2-1.6,0.5-2.2s0.8-1.1,1.4-1.5
			c0.6-0.3,1.3-0.5,2.1-0.5s1.4,0.2,2,0.5c0.6,0.4,1,0.8,1.3,1.4s0.5,1.2,0.5,1.8c0,0.1,0,0.2,0,0.4c0,0.1,0,0.2,0,0.4h-6.3
			c0,0.6,0.2,1.1,0.4,1.5s0.6,0.7,0.9,0.9c0.4,0.2,0.8,0.3,1.2,0.3c0.6,0,1-0.1,1.4-0.4s0.6-0.6,0.8-1h1.3c-0.2,0.7-0.6,1.4-1.2,1.8
			C241.7,95.9,240.9,96.1,240,96.1z M240,88.9c-0.6,0-1.2,0.2-1.7,0.6s-0.8,1-0.9,1.7h5c0-0.7-0.3-1.3-0.7-1.7
			C241.2,89.1,240.6,88.9,240,88.9z"/>
		<path class="st2" d="M252.9,95.9c-0.7,0-1.3-0.2-1.7-0.5c-0.4-0.4-0.6-1-0.6-1.9v-4.4h-1.4V88h1.4l0.2-1.9h1.2V88h2.3v1.1H252v4.4
			c0,0.5,0.1,0.8,0.3,1s0.6,0.3,1.1,0.3h0.8V96L252.9,95.9L252.9,95.9L252.9,95.9z"/>
		<path class="st2" d="M256.7,86.2c-0.3,0-0.5-0.1-0.7-0.3s-0.3-0.4-0.3-0.7s0.1-0.5,0.3-0.6c0.2-0.2,0.4-0.3,0.7-0.3
			c0.3,0,0.5,0.1,0.7,0.3s0.3,0.4,0.3,0.6c0,0.3-0.1,0.5-0.3,0.7C257.2,86.1,257,86.2,256.7,86.2z M256.1,95.9V88h1.3v7.9H256.1z"/>
		<path class="st2" d="M259.8,95.9V88h1.2l0.1,1.5c0.2-0.5,0.6-0.9,1.1-1.2s1.1-0.5,1.9-0.5v1.4h-0.4c-0.5,0-0.9,0.1-1.3,0.2
			c-0.4,0.2-0.7,0.4-0.9,0.8c-0.2,0.4-0.4,0.9-0.4,1.6v4L259.8,95.9L259.8,95.9z"/>
		<path class="st2" d="M268.8,96.1c-0.8,0-1.4-0.2-2-0.5s-1-0.8-1.4-1.4c-0.3-0.6-0.5-1.4-0.5-2.2s0.2-1.6,0.5-2.2s0.8-1.1,1.4-1.5
			c0.6-0.3,1.3-0.5,2.1-0.5c0.8,0,1.4,0.2,2,0.5c0.6,0.4,1,0.8,1.3,1.4s0.4,1.2,0.4,1.8c0,0.1,0,0.2,0,0.4c0,0.1,0,0.2,0,0.4h-6.3
			c0,0.6,0.2,1.1,0.4,1.5c0.2,0.4,0.6,0.7,0.9,0.9c0.4,0.2,0.8,0.3,1.2,0.3c0.5,0,1-0.1,1.4-0.4s0.6-0.6,0.8-1h1.3
			c-0.2,0.7-0.6,1.4-1.2,1.8C270.5,95.9,269.8,96.1,268.8,96.1z M268.8,88.9c-0.6,0-1.2,0.2-1.7,0.6s-0.8,1-0.9,1.7h5
			c0-0.7-0.3-1.3-0.7-1.7C270.1,89.1,269.5,88.9,268.8,88.9z"/>
		<path class="st2" d="M278,96.1c-0.8,0-1.5-0.2-2.1-0.5c-0.6-0.4-1.1-0.9-1.4-1.5S274,92.8,274,92s0.2-1.5,0.5-2.1s0.8-1.1,1.4-1.5
			s1.3-0.5,2.1-0.5c0.6,0,1.2,0.1,1.7,0.4s0.9,0.6,1.2,1.1v-4.9h1.3V96H281l-0.1-1.3c-0.3,0.4-0.6,0.7-1.1,1
			C279.3,95.9,278.7,96.1,278,96.1z M278.1,94.9c0.5,0,1-0.1,1.4-0.4c0.4-0.2,0.7-0.6,1-1.1c0.2-0.4,0.3-1,0.3-1.6s-0.1-1.1-0.3-1.6
			c-0.2-0.4-0.6-0.8-1-1s-0.9-0.4-1.4-0.4s-1,0.1-1.4,0.4c-0.4,0.2-0.7,0.6-1,1c-0.2,0.5-0.3,1-0.3,1.6s0.1,1.1,0.3,1.6
			c0.2,0.5,0.6,0.8,1,1.1S277.6,94.9,278.1,94.9z"/>
		<path class="st2" d="M190.1,116.1c-0.7,0-1.2-0.1-1.7-0.3c-0.4-0.2-0.8-0.5-1-0.9s-0.3-0.8-0.3-1.2c0-0.8,0.3-1.4,0.9-1.9
			c0.6-0.4,1.5-0.7,2.5-0.7h2.1V111c0-0.7-0.2-1.2-0.5-1.6c-0.4-0.4-0.8-0.5-1.5-0.5c-0.5,0-1,0.1-1.4,0.4s-0.6,0.6-0.7,1.1h-1.4
			c0.1-0.6,0.2-1.1,0.6-1.5c0.3-0.4,0.8-0.7,1.3-0.9s1-0.3,1.6-0.3c1.1,0,1.9,0.3,2.5,0.9s0.8,1.4,0.8,2.4v4.9h-1.2l-0.1-1.4
			c-0.2,0.4-0.6,0.8-1,1.1C191.4,115.9,190.8,116.1,190.1,116.1z M190.3,115c0.5,0,0.9-0.1,1.3-0.4c0.4-0.3,0.6-0.6,0.8-1
			s0.3-0.9,0.3-1.3l0,0h-2c-0.8,0-1.3,0.1-1.7,0.4c-0.3,0.3-0.5,0.6-0.5,1s0.2,0.8,0.5,1S189.7,115,190.3,115z"/>
		<path class="st2" d="M196.1,115.9V108h1.2l0.1,1.4c0.3-0.5,0.6-0.9,1.1-1.2s1-0.4,1.6-0.4c0.9,0,1.7,0.3,2.2,0.9
			c0.6,0.6,0.8,1.4,0.8,2.6v4.6h-1.3v-4.5c0-1.7-0.7-2.5-2.1-2.5c-0.7,0-1.2,0.2-1.7,0.7s-0.7,1.2-0.7,2.1v4.1L196.1,115.9
			L196.1,115.9z"/>
		<path class="st2" d="M208.8,116.1c-0.8,0-1.5-0.2-2.1-0.5c-0.6-0.4-1.1-0.9-1.4-1.5s-0.5-1.3-0.5-2.1s0.2-1.5,0.5-2.1
			s0.8-1.1,1.4-1.5s1.3-0.5,2.1-0.5c0.6,0,1.2,0.1,1.7,0.4s0.9,0.6,1.2,1.1v-4.9h1.3V116h-1.2l-0.1-1.3c-0.3,0.4-0.6,0.7-1.1,1
			C210.2,115.9,209.6,116.1,208.8,116.1z M209,114.9c0.5,0,1-0.1,1.4-0.4c0.4-0.2,0.7-0.6,1-1.1c0.2-0.4,0.3-1,0.3-1.6
			s-0.1-1.1-0.3-1.6c-0.2-0.4-0.6-0.8-1-1s-0.9-0.4-1.4-0.4s-1,0.1-1.4,0.4s-0.7,0.6-1,1c-0.2,0.5-0.3,1-0.3,1.6s0.1,1.1,0.3,1.6
			s0.6,0.8,1,1.1S208.5,114.9,209,114.9z"/>
		<path class="st2" d="M221.1,115.9l-2.3-7.9h1.3l1.7,6.2l1.9-6.2h1.5l1.9,6.2l1.7-6.2h1.4l-2.3,7.9h-1.4l-1.9-6.5l-1.9,6.5H221.1z"
			/>
		<path class="st2" d="M234.9,116.1c-0.8,0-1.4-0.2-2-0.5s-1.1-0.8-1.4-1.5c-0.4-0.6-0.5-1.4-0.5-2.2s0.2-1.6,0.5-2.2
			s0.8-1.1,1.4-1.4c0.6-0.3,1.3-0.5,2-0.5s1.4,0.2,2,0.5s1.1,0.8,1.4,1.4c0.4,0.6,0.5,1.4,0.5,2.2s-0.2,1.6-0.5,2.2
			c-0.4,0.6-0.8,1.1-1.4,1.5C236.3,115.9,235.6,116.1,234.9,116.1z M234.9,114.9c0.5,0,0.9-0.1,1.3-0.3c0.4-0.2,0.7-0.6,1-1
			c0.2-0.5,0.4-1,0.4-1.7s-0.1-1.2-0.4-1.7c-0.2-0.4-0.6-0.8-0.9-1c-0.4-0.2-0.8-0.3-1.3-0.3s-0.9,0.1-1.3,0.3c-0.4,0.2-0.7,0.6-1,1
			s-0.4,1-0.4,1.7s0.1,1.2,0.4,1.7c0.2,0.4,0.6,0.8,0.9,1C234,114.8,234.4,114.9,234.9,114.9z"/>
		<path class="st2" d="M240.8,115.9V108h1.2l0.1,1.5c0.2-0.5,0.6-0.9,1.1-1.2s1.1-0.5,1.9-0.5v1.4h-0.4c-0.5,0-0.9,0.1-1.3,0.2
			c-0.4,0.2-0.7,0.4-0.9,0.8s-0.4,0.9-0.4,1.6v4L240.8,115.9L240.8,115.9z"/>
		<path class="st2" d="M246.6,115.9V108h1.2l0.1,1.4c0.3-0.5,0.6-0.9,1.1-1.2s1-0.4,1.6-0.4c0.9,0,1.7,0.3,2.2,0.9
			c0.6,0.6,0.8,1.4,0.8,2.6v4.6h-1.3v-4.5c0-1.7-0.7-2.5-2-2.5c-0.7,0-1.2,0.2-1.7,0.7c-0.4,0.5-0.7,1.2-0.7,2.1v4.1L246.6,115.9
			L246.6,115.9z"/>
		<path class="st2" d="M263.6,116.1c-0.8,0-1.4-0.2-2-0.5s-1.1-0.8-1.4-1.5c-0.4-0.6-0.5-1.4-0.5-2.2s0.2-1.6,0.5-2.2
			s0.8-1.1,1.4-1.4s1.3-0.5,2-0.5s1.4,0.2,2,0.5s1.1,0.8,1.4,1.4c0.4,0.6,0.5,1.4,0.5,2.2s-0.2,1.6-0.5,2.2s-0.8,1.1-1.4,1.5
			C265,115.9,264.3,116.1,263.6,116.1z M263.6,114.9c0.5,0,0.9-0.1,1.3-0.3s0.7-0.6,1-1c0.2-0.5,0.4-1,0.4-1.7s-0.1-1.2-0.4-1.7
			c-0.2-0.4-0.6-0.8-1-1s-0.8-0.3-1.3-0.3s-0.9,0.1-1.3,0.3s-0.7,0.6-1,1s-0.4,1-0.4,1.7s0.1,1.2,0.4,1.7c0.2,0.4,0.6,0.8,1,1
			C262.7,114.8,263.1,114.9,263.6,114.9z"/>
		<path class="st2" d="M272.3,116.1c-0.9,0-1.7-0.3-2.2-0.9s-0.8-1.4-0.8-2.6V108h1.3v4.5c0,1.7,0.7,2.5,2,2.5
			c0.7,0,1.3-0.2,1.7-0.7c0.5-0.5,0.7-1.2,0.7-2.1V108h1.3v7.9h-1.2l-0.1-1.4c-0.2,0.5-0.6,0.9-1.1,1.2
			C273.5,116,272.9,116.1,272.3,116.1z"/>
		<path class="st2" d="M281.7,115.9c-0.7,0-1.3-0.2-1.7-0.5c-0.4-0.4-0.6-1-0.6-1.9v-4.4H278V108h1.4l0.2-1.9h1.2v1.9h2.3v1.1h-2.3
			v4.4c0,0.5,0.1,0.8,0.3,1s0.6,0.3,1.1,0.3h0.8v1.2L281.7,115.9L281.7,115.9z"/>
		<path class="st2" d="M284.5,117.8l0.9-3.5h1.4l-1.4,3.5H284.5z"/>
		<path class="st2" d="M188.2,126.2c-0.3,0-0.5-0.1-0.7-0.3s-0.3-0.4-0.3-0.7s0.1-0.5,0.3-0.6c0.2-0.2,0.4-0.3,0.7-0.3
			s0.5,0.1,0.7,0.3s0.3,0.4,0.3,0.6c0,0.3-0.1,0.5-0.3,0.7C188.7,126.1,188.5,126.2,188.2,126.2z M187.6,135.9V128h1.3v7.9H187.6z"
			/>
		<path class="st2" d="M194.4,135.9c-0.7,0-1.3-0.2-1.7-0.5c-0.4-0.4-0.6-1-0.6-1.9v-4.4h-1.4V128h1.4l0.2-1.9h1.2v1.9h2.3v1.1h-2.3
			v4.4c0,0.5,0.1,0.8,0.3,1s0.6,0.3,1.1,0.3h0.8v1.2h-1.3V135.9z"/>
		<path class="st2" d="M196.9,128.3l0.9-3.6h1.5l-1.5,3.6H196.9z"/>
		<path class="st2" d="M203.2,136.1c-0.9,0-1.7-0.2-2.4-0.7s-1-1.1-1.1-1.9h1.4c0.1,0.4,0.3,0.8,0.7,1.1c0.3,0.3,0.8,0.5,1.4,0.5
			c0.6,0,1-0.1,1.2-0.4c0.3-0.2,0.4-0.5,0.4-0.9c0-0.5-0.2-0.8-0.5-1c-0.4-0.2-0.8-0.3-1.5-0.4c-0.4-0.1-0.9-0.2-1.3-0.4
			c-0.4-0.2-0.8-0.4-1.1-0.7s-0.4-0.7-0.4-1.2c0-0.7,0.3-1.3,0.8-1.7s1.2-0.7,2.1-0.7c0.8,0,1.5,0.2,2.1,0.6c0.5,0.4,0.9,1,0.9,1.8
			h-1.3c-0.1-0.4-0.2-0.7-0.5-0.9s-0.7-0.3-1.2-0.3s-0.9,0.1-1.1,0.3c-0.3,0.2-0.4,0.5-0.4,0.8s0.2,0.6,0.5,0.8s0.8,0.3,1.4,0.5
			c0.5,0.1,1,0.2,1.4,0.4c0.4,0.1,0.8,0.4,1.1,0.7s0.4,0.7,0.4,1.3c0,0.7-0.3,1.3-0.8,1.8C204.9,135.9,204.1,136.1,203.2,136.1z"/>
		<path class="st2" d="M215,136.1c-0.7,0-1.2-0.1-1.6-0.3c-0.4-0.2-0.8-0.5-1-0.9s-0.3-0.8-0.3-1.2c0-0.8,0.3-1.4,0.9-1.9
			c0.6-0.4,1.5-0.7,2.5-0.7h2.1V131c0-0.7-0.2-1.2-0.5-1.6s-0.8-0.5-1.5-0.5c-0.5,0-1,0.1-1.4,0.4c-0.4,0.3-0.6,0.6-0.7,1.1h-1.4
			c0.1-0.6,0.2-1.1,0.6-1.5c0.3-0.4,0.8-0.7,1.3-0.9c0.5-0.2,1-0.3,1.6-0.3c1.1,0,1.9,0.3,2.5,0.9s0.8,1.4,0.8,2.4v4.9h-1.2
			l-0.1-1.4c-0.2,0.4-0.6,0.8-1,1.1C216.4,135.9,215.8,136.1,215,136.1z M215.2,135c0.5,0,0.9-0.1,1.3-0.4c0.4-0.3,0.6-0.6,0.8-1
			s0.3-0.9,0.3-1.3l0,0h-2c-0.8,0-1.3,0.1-1.7,0.4c-0.3,0.3-0.5,0.6-0.5,1s0.2,0.8,0.5,1S214.7,135,215.2,135z"/>
		<path class="st2" d="M221.1,135.9v-11.5h1.3v11.5H221.1z"/>
		<path class="st2" d="M227.6,136.1c-0.9,0-1.7-0.2-2.4-0.7s-1-1.1-1.1-1.9h1.4c0.1,0.4,0.3,0.8,0.7,1.1s0.8,0.5,1.4,0.5
			c0.6,0,1-0.1,1.2-0.4c0.3-0.2,0.4-0.5,0.4-0.9c0-0.5-0.2-0.8-0.5-1c-0.4-0.2-0.8-0.3-1.5-0.4c-0.4-0.1-0.8-0.2-1.3-0.4
			c-0.4-0.2-0.8-0.4-1.1-0.7s-0.4-0.7-0.4-1.2c0-0.7,0.3-1.3,0.8-1.7s1.2-0.7,2.1-0.7c0.8,0,1.5,0.2,2.1,0.6c0.5,0.4,0.9,1,0.9,1.8
			H229c0-0.4-0.2-0.7-0.5-0.9s-0.7-0.3-1.2-0.3s-0.8,0.1-1.1,0.3s-0.4,0.5-0.4,0.8s0.2,0.6,0.5,0.8s0.8,0.3,1.4,0.5
			c0.5,0.1,1,0.2,1.4,0.4s0.8,0.4,1.1,0.7s0.4,0.7,0.4,1.3c0,0.7-0.3,1.3-0.8,1.8C229.3,135.9,228.6,136.1,227.6,136.1z"/>
		<path class="st2" d="M236.2,136.1c-0.8,0-1.4-0.2-2-0.5s-1.1-0.8-1.4-1.5c-0.3-0.6-0.5-1.4-0.5-2.2s0.2-1.6,0.5-2.2
			c0.3-0.6,0.8-1.1,1.4-1.4c0.6-0.3,1.3-0.5,2-0.5s1.4,0.2,2,0.5s1.1,0.8,1.4,1.4c0.4,0.6,0.5,1.4,0.5,2.2s-0.2,1.6-0.5,2.2
			c-0.4,0.6-0.8,1.1-1.4,1.5C237.6,135.9,237,136.1,236.2,136.1z M236.2,134.9c0.5,0,0.9-0.1,1.3-0.3c0.4-0.2,0.7-0.6,1-1
			c0.2-0.5,0.4-1,0.4-1.7s-0.1-1.2-0.4-1.7c-0.2-0.4-0.6-0.8-0.9-1c-0.4-0.2-0.8-0.3-1.3-0.3s-0.9,0.1-1.3,0.3c-0.4,0.2-0.7,0.6-1,1
			s-0.4,1-0.4,1.7s0.1,1.2,0.4,1.7c0.2,0.4,0.6,0.8,0.9,1C235.4,134.8,235.8,134.9,236.2,134.9z"/>
		<path class="st2" d="M246.3,135.9v-11.5h1.3v4.9c0.3-0.5,0.6-0.9,1.1-1.1c0.5-0.3,1-0.4,1.6-0.4c0.9,0,1.6,0.3,2.2,0.9
			c0.6,0.6,0.8,1.4,0.8,2.6v4.6H252v-4.5c0-1.7-0.7-2.5-2-2.5c-0.7,0-1.3,0.2-1.7,0.7c-0.5,0.5-0.7,1.2-0.7,2.1v4.1L246.3,135.9
			L246.3,135.9z"/>
		<path class="st2" d="M258.1,136.1c-0.7,0-1.2-0.1-1.6-0.3s-0.8-0.5-1-0.9s-0.3-0.8-0.3-1.2c0-0.8,0.3-1.4,0.9-1.9s1.5-0.7,2.5-0.7
			h2.1V131c0-0.7-0.2-1.2-0.5-1.6c-0.4-0.4-0.9-0.5-1.5-0.5c-0.5,0-1,0.1-1.4,0.4c-0.4,0.3-0.6,0.6-0.7,1.1h-1.4
			c0-0.6,0.2-1.1,0.6-1.5c0.3-0.4,0.8-0.7,1.3-0.9c0.5-0.2,1-0.3,1.6-0.3c1.1,0,1.9,0.3,2.5,0.9s0.8,1.4,0.8,2.4v4.9h-1.2l-0.1-1.4
			c-0.2,0.4-0.6,0.8-1,1.1C259.4,135.9,258.8,136.1,258.1,136.1z M258.3,135c0.5,0,0.9-0.1,1.3-0.4c0.4-0.3,0.6-0.6,0.8-1
			c0.2-0.4,0.3-0.9,0.3-1.3l0,0h-2c-0.8,0-1.3,0.1-1.7,0.4c-0.3,0.3-0.5,0.6-0.5,1s0.2,0.8,0.5,1S257.8,135,258.3,135z"/>
		<path class="st2" d="M264.1,135.9V128h1.2l0.1,1.5c0.2-0.5,0.6-0.9,1.1-1.2s1.1-0.5,1.9-0.5v1.4H268c-0.5,0-0.9,0.1-1.3,0.2
			c-0.4,0.2-0.7,0.4-0.9,0.8c-0.2,0.4-0.3,0.9-0.3,1.6v4L264.1,135.9L264.1,135.9z"/>
		<path class="st2" d="M273.2,136.1c-0.8,0-1.5-0.2-2.1-0.5c-0.6-0.4-1.1-0.9-1.4-1.5s-0.5-1.3-0.5-2.1s0.2-1.5,0.5-2.1
			s0.8-1.1,1.4-1.5s1.3-0.5,2.1-0.5c0.6,0,1.2,0.1,1.7,0.4c0.5,0.3,0.9,0.6,1.2,1.1v-4.9h1.3V136h-1.2l-0.1-1.3
			c-0.3,0.4-0.6,0.7-1.1,1C274.6,135.9,274,136.1,273.2,136.1z M273.4,134.9c0.5,0,1-0.1,1.4-0.4c0.4-0.2,0.7-0.6,1-1.1
			c0.2-0.4,0.3-1,0.3-1.6s-0.1-1.1-0.3-1.6c-0.2-0.4-0.6-0.8-1-1s-0.9-0.4-1.4-0.4s-1,0.1-1.4,0.4s-0.7,0.6-1,1
			c-0.2,0.5-0.3,1-0.3,1.6s0.1,1.1,0.3,1.6c0.2,0.5,0.6,0.8,1,1.1S272.9,134.9,273.4,134.9z"/>
		<path class="st2" d="M283.2,136.1c-0.8,0-1.4-0.2-2-0.5s-1.1-0.8-1.4-1.4c-0.3-0.6-0.5-1.4-0.5-2.2s0.2-1.6,0.5-2.2
			c0.3-0.6,0.8-1.1,1.4-1.5c0.6-0.3,1.3-0.5,2.1-0.5c0.8,0,1.4,0.2,2,0.5c0.6,0.4,1,0.8,1.3,1.4c0.3,0.6,0.4,1.2,0.4,1.8
			c0,0.1,0,0.2,0,0.4c0,0.1,0,0.2,0,0.4h-6.3c0,0.6,0.2,1.1,0.4,1.5c0.2,0.4,0.6,0.7,0.9,0.9c0.4,0.2,0.8,0.3,1.2,0.3
			c0.5,0,1-0.1,1.4-0.4c0.4-0.3,0.6-0.6,0.8-1h1.3c-0.2,0.7-0.6,1.4-1.2,1.8C285,135.9,284.2,136.1,283.2,136.1z M283.2,128.9
			c-0.6,0-1.2,0.2-1.7,0.6c-0.5,0.4-0.8,1-0.9,1.7h5c0-0.7-0.3-1.3-0.7-1.7C284.5,129.1,283.9,128.9,283.2,128.9z"/>
		<path class="st2" d="M288.8,135.9V128h1.2l0.1,1.5c0.2-0.5,0.6-0.9,1.1-1.2s1.1-0.5,1.9-0.5v1.4h-0.4c-0.5,0-0.9,0.1-1.3,0.2
			c-0.4,0.2-0.7,0.4-0.9,0.8c-0.2,0.4-0.4,0.9-0.4,1.6v4L288.8,135.9L288.8,135.9z"/>
		<path class="st2" d="M190.6,155.9c-0.7,0-1.3-0.2-1.7-0.5c-0.4-0.4-0.6-1-0.6-1.9v-4.4h-1.4V148h1.4l0.2-1.9h1.2v1.9h2.3v1.1h-2.3
			v4.4c0,0.5,0.1,0.8,0.3,1s0.6,0.3,1.1,0.3h0.8v1.1L190.6,155.9L190.6,155.9z"/>
		<path class="st2" d="M197,156.1c-0.8,0-1.4-0.2-2-0.5s-1.1-0.8-1.4-1.5c-0.4-0.6-0.5-1.4-0.5-2.2s0.2-1.6,0.5-2.2s0.8-1.1,1.4-1.5
			c0.6-0.3,1.3-0.5,2-0.5s1.4,0.2,2,0.5s1.1,0.8,1.4,1.5c0.4,0.6,0.5,1.4,0.5,2.2s-0.2,1.6-0.5,2.2c-0.4,0.6-0.8,1.1-1.4,1.5
			S197.8,156.1,197,156.1z M197,155c0.5,0,0.9-0.1,1.3-0.3c0.4-0.2,0.7-0.6,1-1c0.2-0.5,0.4-1,0.4-1.7s-0.1-1.2-0.4-1.7
			c-0.2-0.5-0.6-0.8-0.9-1c-0.4-0.2-0.8-0.3-1.3-0.3s-0.9,0.1-1.3,0.3c-0.4,0.2-0.7,0.6-1,1s-0.4,1-0.4,1.7s0.1,1.2,0.4,1.7
			s0.6,0.8,0.9,1C196.1,154.8,196.6,155,197,155z"/>
		<path class="st2" d="M207.1,155.9V148h1.2l0.1,1.5c0.2-0.5,0.6-0.9,1.1-1.2s1.1-0.5,1.9-0.5v1.4H211c-0.5,0-0.9,0.1-1.3,0.2
			c-0.4,0.2-0.7,0.5-0.9,0.8c-0.2,0.4-0.3,0.9-0.3,1.6v4L207.1,155.9L207.1,155.9z"/>
		<path class="st2" d="M216.2,156.1c-0.8,0-1.4-0.2-2-0.5s-1.1-0.8-1.4-1.4c-0.3-0.6-0.5-1.4-0.5-2.2s0.2-1.6,0.5-2.2
			s0.8-1.1,1.4-1.5s1.3-0.5,2.1-0.5s1.4,0.2,2,0.5c0.6,0.4,1,0.8,1.3,1.4s0.4,1.2,0.4,1.8c0,0.1,0,0.2,0,0.4c0,0.1,0,0.2,0,0.4h-6.3
			c0,0.6,0.2,1.1,0.4,1.5s0.6,0.7,0.9,0.9c0.4,0.2,0.8,0.3,1.2,0.3c0.6,0,1-0.1,1.4-0.4s0.6-0.6,0.8-1h1.3c-0.2,0.7-0.6,1.4-1.2,1.8
			C217.9,155.9,217.1,156.1,216.2,156.1z M216.2,148.9c-0.6,0-1.2,0.2-1.7,0.6s-0.8,1-0.9,1.7h5c0-0.7-0.3-1.3-0.7-1.7
			C217.4,149.1,216.9,148.9,216.2,148.9z"/>
		<path class="st2" d="M224.8,156.1c-0.9,0-1.7-0.2-2.4-0.7c-0.6-0.5-1-1.1-1.1-2h1.4c0.1,0.4,0.3,0.8,0.7,1.1
			c0.3,0.3,0.8,0.5,1.4,0.5c0.6,0,1-0.1,1.2-0.4s0.4-0.5,0.4-0.9c0-0.5-0.2-0.8-0.5-1c-0.4-0.2-0.8-0.3-1.5-0.4
			c-0.4-0.1-0.8-0.2-1.3-0.4c-0.4-0.2-0.8-0.4-1.1-0.7s-0.4-0.7-0.4-1.2c0-0.7,0.3-1.3,0.8-1.7s1.2-0.7,2.1-0.7
			c0.8,0,1.5,0.2,2.1,0.6c0.5,0.4,0.9,1,0.9,1.8h-1.3c-0.1-0.4-0.2-0.7-0.5-1c-0.3-0.2-0.7-0.3-1.2-0.3s-0.9,0.1-1.1,0.3
			c-0.3,0.2-0.4,0.5-0.4,0.8s0.2,0.6,0.5,0.8s0.8,0.3,1.4,0.5c0.5,0.1,1,0.2,1.4,0.4c0.4,0.1,0.8,0.4,1.1,0.7s0.4,0.7,0.4,1.3
			c0,0.7-0.3,1.3-0.8,1.8C226.4,155.9,225.7,156.1,224.8,156.1z"/>
		<path class="st2" d="M229.7,159.4V148h1.2l0.1,1.3c0.3-0.4,0.6-0.7,1.1-1s1.1-0.5,1.8-0.5c0.8,0,1.5,0.2,2.1,0.5
			c0.6,0.4,1,0.9,1.4,1.5s0.5,1.3,0.5,2.1s-0.2,1.5-0.5,2.1s-0.8,1.1-1.4,1.5c-0.6,0.4-1.3,0.5-2.1,0.5c-0.6,0-1.2-0.1-1.7-0.4
			s-0.9-0.6-1.2-1.1v4.9L229.7,159.4L229.7,159.4z M233.8,154.9c0.5,0,1-0.1,1.4-0.4c0.4-0.2,0.7-0.6,1-1c0.2-0.5,0.4-1,0.4-1.6
			s-0.1-1.1-0.4-1.6c-0.2-0.4-0.5-0.8-1-1s-0.9-0.4-1.4-0.4s-1,0.1-1.4,0.4c-0.4,0.2-0.7,0.6-1,1c-0.2,0.5-0.4,1-0.4,1.6
			s0.1,1.1,0.4,1.6c0.2,0.4,0.6,0.8,1,1C232.8,154.8,233.3,154.9,233.8,154.9z"/>
		<path class="st2" d="M243.4,156.1c-0.8,0-1.4-0.2-2-0.5s-1.1-0.8-1.4-1.5c-0.4-0.6-0.5-1.4-0.5-2.2s0.2-1.6,0.5-2.2
			s0.8-1.1,1.4-1.5c0.6-0.3,1.3-0.5,2-0.5s1.4,0.2,2,0.5s1.1,0.8,1.4,1.5c0.4,0.6,0.5,1.4,0.5,2.2s-0.2,1.6-0.5,2.2
			s-0.8,1.1-1.4,1.5S244.1,156.1,243.4,156.1z M243.4,155c0.5,0,0.9-0.1,1.3-0.3c0.4-0.2,0.7-0.6,1-1c0.2-0.5,0.4-1,0.4-1.7
			s-0.1-1.2-0.4-1.7c-0.2-0.5-0.6-0.8-1-1s-0.8-0.3-1.3-0.3s-0.9,0.1-1.3,0.3c-0.4,0.2-0.7,0.6-1,1s-0.4,1-0.4,1.7s0.1,1.2,0.4,1.7
			s0.6,0.8,1,1C242.5,154.8,242.9,155,243.4,155z"/>
		<path class="st2" d="M249.2,155.9V148h1.2l0.1,1.4c0.3-0.5,0.6-0.9,1.1-1.2s1-0.4,1.6-0.4c0.9,0,1.7,0.3,2.2,0.9
			c0.6,0.6,0.8,1.4,0.8,2.6v4.6H255v-4.5c0-1.6-0.7-2.5-2-2.5c-0.7,0-1.2,0.2-1.7,0.7c-0.4,0.5-0.7,1.2-0.7,2.1v4.1L249.2,155.9
			L249.2,155.9z"/>
		<path class="st2" d="M262,156.1c-0.8,0-1.5-0.2-2.1-0.5c-0.6-0.4-1.1-0.9-1.4-1.5s-0.5-1.3-0.5-2.1s0.2-1.5,0.5-2.1
			s0.8-1.1,1.4-1.5s1.3-0.5,2.1-0.5c0.6,0,1.2,0.1,1.7,0.4s0.9,0.6,1.2,1.1v-4.9h1.3V156H265l-0.1-1.3c-0.3,0.4-0.6,0.7-1.1,1
			S262.7,156.1,262,156.1z M262.1,154.9c0.5,0,1-0.1,1.4-0.4c0.4-0.2,0.7-0.6,1-1c0.2-0.5,0.3-1,0.3-1.6s-0.1-1.1-0.3-1.6
			c-0.2-0.4-0.6-0.8-1-1s-0.9-0.4-1.4-0.4s-1,0.1-1.4,0.4s-0.7,0.6-1,1c-0.2,0.5-0.3,1-0.3,1.6s0.1,1.1,0.3,1.6c0.2,0.4,0.6,0.8,1,1
			S261.6,154.9,262.1,154.9z"/>
		<path class="st2" d="M275.8,155.9c-0.7,0-1.3-0.2-1.7-0.5c-0.4-0.4-0.6-1-0.6-1.9v-4.4h-1.4V148h1.4l0.2-1.9h1.2v1.9h2.3v1.1h-2.3
			v4.4c0,0.5,0.1,0.8,0.3,1c0.2,0.2,0.6,0.3,1.1,0.3h0.8v1.1L275.8,155.9L275.8,155.9z"/>
		<path class="st2" d="M282.3,156.1c-0.8,0-1.4-0.2-2-0.5s-1.1-0.8-1.4-1.5c-0.4-0.6-0.5-1.4-0.5-2.2s0.2-1.6,0.5-2.2
			c0.4-0.6,0.8-1.1,1.4-1.5c0.6-0.3,1.3-0.5,2-0.5s1.4,0.2,2,0.5s1.1,0.8,1.4,1.5c0.4,0.6,0.5,1.4,0.5,2.2s-0.2,1.6-0.5,2.2
			s-0.8,1.1-1.4,1.5S283,156.1,282.3,156.1z M282.3,155c0.5,0,0.9-0.1,1.3-0.3s0.7-0.6,1-1c0.2-0.5,0.4-1,0.4-1.7s-0.1-1.2-0.4-1.7
			c-0.2-0.5-0.6-0.8-1-1s-0.8-0.3-1.3-0.3s-0.9,0.1-1.3,0.3s-0.7,0.6-1,1s-0.4,1-0.4,1.7s0.1,1.2,0.4,1.7s0.6,0.8,1,1
			C281.4,154.8,281.8,155,282.3,155z"/>
		<path class="st3" d="M101.9,188.6c34.8,0,62.9-4.5,62.9-10.1s-28.2-10.1-62.9-10.1S39,172.9,39,178.5
			C38.9,184.1,67.1,188.6,101.9,188.6z"/>
		<path class="st1" d="M53.8,127.7c-0.6-2.9-5.2-30.6-4.7-41.5c-10.9,8.9-33.8,33.4-12.5,57C51.8,160.1,53.4,127.3,53.8,127.7z"/>
		<path class="st4" d="M149,64.3c0,0-38.1,11.1-64.7-13.2C84.2,51.1,115.5,37.8,149,64.3z"/>
		<path class="st5" d="M126.3,47.4c0,0-12.1,9.5-47.7,8.3C78.7,55.7,88.8,33.9,126.3,47.4z"/>
		<path class="st6" d="M60.8,61.3c-12.5,8.6-30.2,27.9-21.7,63.4c2.3,9.5,16.6,23.8,24.2,32.9s-5.4,10.9-3.8,20.9s18.5,1.5,62-2.1
			c26-2.1,28,10.3,31.2-1.9c3.1-11.7,0.7-19.3,2.5-30.6c2.2-14.1,6.2-17.1,3.8-37.9C150.9,36.2,84.8,44.8,60.8,61.3z"/>
		<path d="M77,87.4c0.1,0.8-1.9,0.4-4.2,0.8c-2.4,0.4-3.8,1.1-4.3,0.6s1.7-1.9,4-2.3C74.9,86.2,76.9,86.7,77,87.4z"/>
		<path d="M112,81.8c-0.2,0.8-1.9,0.4-4.2,0.8c-2.3,0.4-3.8,1.1-4.3,0.6s1.7-1.9,4-2.3C109.9,80.5,112.2,81,112,81.8z"/>
		<path d="M89.4,102.7c-0.6-1.3,1.5-2,4.9-1.5s1.6,3.9-0.9,3.7C91,104.6,90,104,89.4,102.7z"/>
		<path class="st0" d="M93.9,103.4l-1.1,0.2c-0.5,0.1-1-0.3-1.1-0.8l-0.2-1.7c1-0.2,2,0.1,2.9,0.2l0.2,1.1
			C94.8,102.8,94.5,103.3,93.9,103.4z"/>
		<path class="st1" d="M137.4,115.9c4.2-8.8,14.4-23.3,16.2-31.2c5.2,7.6,12.1,22.4,8.8,36.5c-1.8,7.5-6.5,14.7-15.8,20.5
			c-10.9,6.7-13.2-0.4-13.3-7.9C133.3,127.6,134.8,121.5,137.4,115.9z"/>
		<path class="st5" d="M73.3,40.4c0,0,0.4,7.2,7.6,10.2C80.9,50.7,81.3,47.7,73.3,40.4z"/>
		<path class="st7" d="M80.8,54.7c3.5-4-4.1-11.4-17.8-5.9"/>
		<path class="st8" d="M59.7,48c0,0-4.6,9.2-0.4,8.4C63.4,55.6,62.6,47.2,59.7,48z"/>
		<path class="st8" d="M60.8,46.4c0,0-1.4,10.5,2.5,7.9C67.2,51.6,63.4,44.3,60.8,46.4z"/>
		<path class="st8" d="M61.2,45.9c0,0-9,4.1-5.9,7.1C58.4,55.9,63.5,47.7,61.2,45.9z"/>
		<path class="st8" d="M63.3,50.3c0,0-1.7-12-5.2-7.8C54.6,46.8,61,53.5,63.3,50.3z"/>
		<path class="st8" d="M60.4,47.3c0,0-0.4-8.2,3.3-6.4C67.4,42.7,62.9,48.8,60.4,47.3z"/>
		<path class="st8" d="M60.3,45c0,0,9.9-1.1,7.3,3S58.2,47.8,60.3,45z"/>
		<path class="st9" d="M63.1,48.3c0.8-2.3,0.4-4.5-1-5s-3.1,1-4,3.3c-0.8,2.3-0.4,4.5,1,5C60.6,52,62.3,50.5,63.1,48.3z"/>
		<path class="st1" d="M162.2,65.3c1.4,0.1,2.6,0.1,3.9,0.1c0.6,0,1.3,0.1,1.9,0.3c0.3,0.1,0.7,0.6,0.7,0.9s-0.4,0.7-0.7,0.9
			s-0.7,0.3-1.1,0.3c-2.2,0.1-4.4,0.2-6.6,0.3c-1.5,0.1-2.1-0.8-1.6-2.2c1.1-2.8,2.3-5.5,3.5-8.2c0.1-0.3,0.2-0.5,0.3-0.8
			c0.4-0.9,0.1-1.2-0.9-1.2c-0.4,0-0.7,0.1-1.1,0.1c-1-0.1-1.8-0.8-1.8-1.7s0.7-1.7,1.7-1.8c1.7-0.1,3.5-0.2,5.2-0.3
			c0.8,0,1.6,0.5,1.6,1.3s-0.1,1.8-0.4,2.5c-0.6,1.3-1.4,2.6-2.1,3.9C163.9,61.6,163.1,63.4,162.2,65.3z"/>
		<path class="st1" d="M177.2,61c1.5,0.1,2.8,0.1,4.2,0.2c0.7,0,1.4,0.1,2,0.3c0.3,0.1,0.8,0.6,0.8,0.9c0,0.3-0.4,0.8-0.7,1
			s-0.8,0.3-1.2,0.3c-2.4,0.1-4.8,0.2-7.1,0.2c-1.6,0-2.3-0.9-1.7-2.4c1.2-2.9,2.6-5.9,3.8-8.8c0.1-0.3,0.2-0.6,0.4-0.8
			c0.4-1,0.2-1.3-0.9-1.2c-0.4,0-0.8,0.1-1.2,0c-1.1-0.1-1.9-0.9-1.9-1.8c0-1,0.8-1.8,1.8-1.9c1.9-0.1,3.7-0.2,5.6-0.2
			c0.9,0,1.7,0.6,1.7,1.4c0,0.9-0.1,1.9-0.5,2.7c-0.6,1.4-1.6,2.8-2.3,4.2C179,57.1,178.1,59,177.2,61z"/>
		<path class="st1" d="M191.6,55.2c1.8,0.2,3.5,0.3,5.2,0.6c0.9,0.1,1.7,0.2,2.5,0.6c0.4,0.2,0.9,0.8,0.9,1.2s-0.6,0.9-1,1.2
			c-0.4,0.2-1,0.3-1.5,0.3c-3,0-6-0.1-9-0.2c-2-0.1-2.8-1.3-1.9-3.2c1.8-3.6,3.6-7.1,5.4-10.7c0.2-0.3,0.4-0.7,0.5-1
			c0.6-1.2,0.3-1.6-1.1-1.6c-0.5,0-1,0-1.5,0c-1.3-0.2-2.3-1.2-2.2-2.4s1.1-2.2,2.5-2.2c2.3,0,4.7,0.1,7,0.1c1.1,0,2.1,0.8,2,1.9
			c-0.1,1.1-0.3,2.3-0.8,3.3c-0.9,1.8-2.2,3.3-3.2,5C194.1,50.4,192.9,52.7,191.6,55.2z"/>
	</g>
</g>
</svg>
