<?xml version="1.0" encoding="utf-8"?>
<!-- Generator: Adobe Illustrator 25.1.0, SVG Export Plug-In . SVG Version: 6.00 Build 0)  -->
<svg version="1.1" id="Layer_1" xmlns="http://www.w3.org/2000/svg" xmlns:xlink="http://www.w3.org/1999/xlink" x="0px" y="0px"
	 viewBox="0 0 327.8 173.4" style="enable-background:new 0 0 327.8 173.4;" xml:space="preserve">
<style type="text/css">
	.st0{fill:#FFFFFF;}
	.st1{fill:#32DCD2;}
	.st2{fill:#808080;}
	.st3{fill:none;stroke:#00A878;stroke-width:2;stroke-linecap:round;stroke-miterlimit:10;}
</style>
<path class="st0" d="M327.8,121.8C327.8,2.3,320.3,0.9,190.1,0c-28-0.2-70.6,0.3-104.9,0.8c-33.8,0.5-73.7,9-78.8,20.4
	c-8,17.7-5.9,46.1-5.9,78.6c0,51.2-6.5,63.4,28.2,69.9c35.2,6.6,164.8,2.5,207.3,1.7C279.9,170.5,327.8,173.9,327.8,121.8z"/>
<path class="st1" d="M22.5,100.1c0.3-0.2,1.2-0.2,2.5-0.2c1.6,0,2.6,0.1,3,0.3c0.5,0.3,1.1,0.8,1.8,1.4c0.6,0.7,1.1,1.2,1.3,1.7
	c0.4,0.8,0.7,2.6,0.8,5.4c0.1,1.7,0.1,2.6,0.1,2.9c0,1-0.1,2-0.4,3c-0.3,1.1-0.7,1.9-1.2,2.4s-1.2,1-2,1.2l-1.4,0.5v4.1
	c0,2.4-0.1,3.9-0.3,4.5c-0.2,0.5-0.7,0.8-1.5,0.8c-0.7,0-1.3-0.2-1.8-0.6l-0.8-0.6v-3.6v-0.9c0-2.9-0.1-6.4-0.2-10.7
	c-0.2-4.3-0.3-6.9-0.5-7.9c-0.1-0.8-0.2-1.4-0.2-1.8C21.5,101,21.8,100.4,22.5,100.1z M27,104.8c-0.4-0.8-0.6-1.2-0.8-1.2
	c-0.1,0-0.2,0-0.2,0.1c0,1.1,0,2.4,0,3.8c0,4.7,0.2,7.1,0.6,7.1c0.1,0,0.4-0.3,0.7-1c0.3-0.6,0.4-1.3,0.4-2.1c0-0.2,0-1-0.1-2.3
	C27.4,106.8,27.2,105.4,27,104.8z"/>
<path class="st1" d="M38.5,99.5c0.6-0.2,1.4-0.3,2.3-0.3c1,0,1.7,0.1,2.2,0.3c0.9,0.4,1.5,1,2,2c0.2,0.4,0.4,1.3,0.6,2.6
	s0.3,2.4,0.3,3.4c0,0.5,0,0.8-0.1,1c-0.1,0.8-0.3,1.8-0.7,2.8c-0.3,1-0.6,1.5-0.8,1.5c-0.3,0-0.4,0.2-0.4,0.7c0,0.3,0.1,0.7,0.3,1.1
	c0.5,0.8,1.3,2.2,2.2,4.2s1.5,3.4,1.6,3.9c0,0.2,0.1,0.4,0.1,0.7c0,0.4-0.1,0.8-0.3,1.2c-0.3,0.4-0.6,0.6-1,0.6c-0.3,0-0.6,0-0.9,0
	c-0.8-0.1-1.4-0.2-1.6-0.3s-0.3-0.4-0.3-0.8c0-0.7-0.3-1.7-1-3.1s-1.2-2-1.5-2h-0.1c-0.1,0.1-0.2,0.4-0.2,1.1c0,1,0.1,2.1,0.3,3.3
	c0.1,0.5,0.1,0.9,0.1,1.1c0,1.1-0.2,1.8-0.8,2.1c-0.2,0.1-0.5,0.1-0.8,0.1c-1.1,0-1.7-0.2-2-0.8c-0.2-0.3-0.3-2.5-0.4-6.8
	c0-1.4-0.1-2.8-0.1-4.4s-0.1-2.7-0.1-3.4s0-1.6-0.1-2.8c-0.1-1.1-0.2-2.4-0.3-3.8c-0.1-1.6-0.2-2.5-0.2-2.8c0-0.8,0.1-1.4,0.3-1.7
	C37.5,99.9,37.9,99.7,38.5,99.5z M41.6,103.2c-0.1-0.3-0.3-0.4-0.5-0.4s-0.4,0.1-0.5,0.3s-0.1,0.4,0,0.6c0,0,0.1,1.1,0.3,3.2
	s0.3,3.2,0.3,3.3c0.1,0.1,0.2-0.1,0.5-0.4c0.2-0.3,0.3-0.9,0.3-1.7c0-0.6,0-1.2-0.1-1.6C41.8,104.7,41.7,103.6,41.6,103.2z"/>
<path class="st1" d="M57.3,104c0.9-0.9,2.2-1.3,3.9-1.3c0.8,0,1.4,0.1,1.9,0.4c0.7,0.3,1.2,1.3,1.5,2.8c0.2,1.3,0.5,3.4,0.9,6.5
	c0.3,3,0.5,5.4,0.6,7c0,1.5,0.1,3.3,0.3,5.2c0.2,1.9,0.3,3,0.4,3.2c0,0,0,0.1,0,0.2c0,0.3-0.1,0.7-0.4,1.1s-0.5,0.7-0.8,0.8
	c-0.1,0-0.2,0-0.5,0c-0.5,0-1-0.1-1.7-0.3c-0.6-0.2-1-0.5-1.1-0.8s-0.3-1.2-0.5-2.8s-0.3-2.9-0.3-3.9c0-0.9-0.1-1.4-0.3-1.5
	c-0.2-0.1-0.9-0.1-2.2-0.1c-1.1,0-1.7,0-1.8,0.1c0,0.2-0.1,0.4-0.1,0.6c0,0.7,0.1,1.6,0.2,2.7c0.1,1.3,0.2,2.4,0.2,3.2v0.5
	c0,0.2-0.3,0.4-0.7,0.6s-0.9,0.3-1.3,0.3c-0.2,0-0.4,0-0.5-0.1c-1.1-0.3-1.8-0.8-1.9-1.4c0,0,0-0.1,0-0.2s0-0.2,0-0.3
	c0-1.4,0.2-4.4,0.5-9s0.6-7.2,0.8-7.9c0.2-0.9,0.6-1.9,1.2-3.1C56.3,105.2,56.8,104.4,57.3,104z M60.7,109.1c-0.2-1-0.4-1.5-0.7-1.5
	c-0.2,0-0.5,0.4-0.8,1.1c-0.6,1.3-1,3.2-1.2,5.5c-0.1,1-0.1,1.5-0.1,1.6c0,0.5,0.1,0.8,0.2,0.9c0.2,0.1,0.6,0.2,1.3,0.2
	c1,0,1.6-0.1,1.7-0.3c0.1-0.1,0.1-0.5,0.1-1.3C61.3,113.1,61.1,111,60.7,109.1z"/>
<path class="st1" d="M75.4,103.1c0.6-0.6,1.1-1,1.3-1.2s0.7-0.2,1.2-0.2c1.5,0,2.2,0.5,2.2,1.5c0,0.9-0.7,1.7-2,2.4
	c-0.8,0.5-1.5,2.1-2,5c-0.2,1.3-0.4,2.6-0.4,4s0.1,2.9,0.2,4.4c0.2,1.9,0.4,3.2,0.8,3.9c0.4,0.8,0.9,1.2,1.7,1.4
	c1.3,0.2,2.1,0.6,2.2,1.1c0,0.1,0.1,0.2,0.1,0.2c0,0.3-0.2,0.7-0.6,1s-0.8,0.6-1.3,0.7c-0.1,0-0.3,0-0.5,0c-1.2,0-2.4-0.3-3.4-0.8
	c-0.4-0.2-0.8-0.8-1.3-1.8s-0.9-1.9-1.2-2.9c-0.4-1.4-0.5-3.8-0.5-7.2c0-1.3,0.1-2.6,0.2-3.9c0.3-2,0.6-3.6,1.1-4.7
	C73.7,105.1,74.4,104.1,75.4,103.1z"/>
<path class="st1" d="M87.2,99.4c0.5-0.4,1.2-0.6,2.3-0.6h1.1c1.8,0.1,2.9,0.1,3.2,0.2c0.2,0.1,0.7,0.1,1.4,0.2
	c0.7,0,1.3,0.2,1.6,0.5c0.3,0.2,0.5,0.7,0.5,1.3s-0.2,1.1-0.4,1.4c-0.2,0.3-0.7,0.4-1.2,0.5c-0.7,0.1-1.1,0.2-1.2,0.3
	c-0.2,0.2-0.2,3.4-0.2,9.5c0,4.3,0,7.3,0.2,9.1c0.1,1.4,0.1,2.1,0.1,2.2c0,0.7-0.2,1.3-0.5,1.8c-0.4,0.7-0.9,1-1.7,1
	c-0.5,0-1-0.2-1.6-0.5l-0.9-0.5l0.2-11.4c0.1-2.9,0.1-5.9,0.1-8.8c0-1.8-0.1-2.7-0.4-2.9c-0.4-0.2-0.7-0.3-0.8-0.2
	c-0.1,0-0.3,0-0.5,0c-0.6,0-1.1-0.2-1.5-0.5s-0.6-0.8-0.6-1.2C86.4,100.3,86.6,99.8,87.2,99.4z"/>
<path class="st1" d="M103.1,99.3c0.4-0.4,0.9-0.7,1.6-0.7c0.6,0,1.1,0.2,1.5,0.7l0.6,0.6l0.3,11.3c0.2,6.2,0.2,9.8,0.2,10.8
	c0,0.5,0,0.9,0,1.2s0,0.6,0,0.8s-0.1,0.4-0.2,0.5s-0.1,0.2-0.1,0.2s-0.1,0.1-0.2,0.1c-0.2,0.1-0.2,0.1-0.3,0.2
	c-0.4,0.2-0.7,0.3-0.9,0.3c-0.1,0-0.4-0.1-1-0.2c-0.8-0.3-1.2-0.6-1.4-0.8c-0.1-0.2-0.2-4.2-0.3-12c-0.1-7.9-0.1-11.9-0.2-12
	C102.6,100,102.7,99.7,103.1,99.3z"/>
<path class="st1" d="M116.3,100.4c0.4-0.2,0.9-0.3,1.4-0.3c0.4,0,0.7,0,0.9,0c1,0.1,1.6,0.2,2,0.4s0.7,0.5,1,1s0.5,1.1,0.5,1.6
	c0,0.6-0.2,1.1-0.7,1.5c-0.4,0.4-0.8,0.6-1.2,0.6c-0.5,0-0.9-0.3-1.2-0.9c-0.3-0.4-0.6-0.6-0.9-0.6c-0.3,0-0.6,0.2-0.9,0.6
	c-0.3,0.4-0.5,0.9-0.5,1.4v0.2c0,1.8,1.4,5.2,4.2,10.1c0.5,0.8,0.9,2.3,1.4,4.4c0,0.1,0,0.4,0,0.7c0,1.8-0.4,3.2-1.1,4.2
	c-0.3,0.4-0.9,0.8-1.6,1.1c-0.8,0.3-1.4,0.5-2,0.5c-0.1,0-0.1,0-0.2,0c-0.1,0-0.1,0-0.2,0c-0.8-0.1-1.7-0.7-2.8-1.7
	s-1.6-1.8-1.6-2.4c0-0.3,0.2-0.6,0.6-0.9s0.7-0.6,1.1-0.6c0.1,0,0.2,0,0.4,0c0.4,0,0.9,0.5,1.8,1.6c0.3,0.4,0.6,0.6,1,0.6
	c0.3,0,0.6-0.2,0.8-0.6c0.1-0.1,0.1-0.4,0.1-0.8c0-1.9-0.9-4.7-2.6-8.4c-1.6-3.5-2.4-6-2.4-7.7c0-0.7,0.1-1.4,0.4-2
	c0.5-1.3,0.9-2.2,1.2-2.6C115.1,101.2,115.6,100.8,116.3,100.4z"/>
<path class="st1" d="M129.3,102.3c0.4-0.1,0.9-0.2,1.6-0.2c1.8,0,3,0.2,3.4,0.6c0.3,0.3,0.5,0.7,0.5,1.1s-0.2,0.8-0.5,1.1
	s-0.8,0.5-1.3,0.5s-0.8,0.1-1,0.4c-0.2,0.2-0.2,0.8-0.2,1.7c0,0.3,0,1.1,0.1,2.5c0.1,1.6,0.1,2.7,0.2,3.2c0.1,0.5,0.2,0.7,0.4,0.8
	c0,0,0.2,0,0.6,0c0.4,0,0.7,0,1,0c0.8,0,1.4,0.2,1.8,0.6c0.2,0.2,0.4,0.5,0.4,0.7c0,0.5-0.7,1-2.2,1.6c-0.8,0.3-1.3,0.5-1.5,0.7
	c-0.2,0.1-0.3,0.5-0.3,1.1c-0.1,0.5-0.1,1-0.1,1.4c0,1.7,0.1,2.9,0.4,3.8c0.1,0.3,0.3,0.5,0.4,0.6c0.2,0.1,0.5,0.1,1.1,0.1
	c0.7,0,1.3,0.2,1.8,0.5s0.8,0.7,0.8,1.1c0,0.3-0.2,0.7-0.8,1.2c-0.8,0.8-2.1,1.1-4,1.1s-3.2-0.4-3.8-1.2c-0.3-0.4-0.5-3.3-0.6-8.5
	c-0.1-6.6-0.1-10.4-0.2-11.6l-0.1-3.7l0.7-0.4C128.4,102.6,128.9,102.4,129.3,102.3z"/>
<path class="st2" d="M21.4,44.7l4.1-11.2h1.4L31,44.7h-1.4l-1-2.9h-4.8l-1,2.9H21.4z M24.3,40.7h4l-2-5.5L24.3,40.7z"/>
<path class="st2" d="M35.7,44.9c-1,0-1.7-0.2-2.4-0.7c-0.6-0.5-1-1.1-1.1-1.9h1.4c0.1,0.4,0.3,0.8,0.7,1.1s0.8,0.5,1.4,0.5
	s1-0.1,1.2-0.4c0.3-0.2,0.4-0.5,0.4-0.9c0-0.5-0.2-0.8-0.5-1s-0.8-0.3-1.5-0.4c-0.4-0.1-0.9-0.2-1.3-0.4c-0.4-0.2-0.8-0.4-1.1-0.7
	c-0.3-0.3-0.4-0.7-0.4-1.2c0-0.7,0.3-1.3,0.8-1.7s1.2-0.7,2.1-0.7c0.8,0,1.5,0.2,2.1,0.6c0.5,0.4,0.8,1,0.9,1.8h-1.3
	c-0.1-0.4-0.2-0.7-0.5-0.9c-0.3-0.2-0.7-0.3-1.2-0.3s-0.8,0.1-1.1,0.3s-0.4,0.5-0.4,0.8s0.2,0.6,0.5,0.8c0.3,0.2,0.8,0.3,1.4,0.5
	c0.5,0.1,1,0.2,1.4,0.4s0.8,0.4,1.1,0.7c0.3,0.3,0.4,0.7,0.4,1.3c0,0.7-0.3,1.3-0.8,1.8C37.4,44.7,36.7,44.9,35.7,44.9z"/>
<path class="st2" d="M45.8,48.2l2-4.3h-0.5l-3.2-7.2h1.5l2.6,6.2l2.8-6.2h1.4l-5.2,11.5H45.8z"/>
<path class="st2" d="M56.7,44.9c-0.8,0-1.4-0.2-2-0.5s-1.1-0.8-1.4-1.4c-0.4-0.6-0.5-1.4-0.5-2.2s0.2-1.6,0.5-2.2s0.8-1.1,1.4-1.5
	s1.3-0.5,2-0.5c0.8,0,1.4,0.2,2,0.5s1.1,0.8,1.4,1.5c0.4,0.6,0.5,1.4,0.5,2.2s-0.2,1.6-0.5,2.2s-0.8,1.1-1.4,1.4
	C58.1,44.7,57.4,44.9,56.7,44.9z M56.7,43.8c0.5,0,0.9-0.1,1.3-0.3c0.4-0.2,0.7-0.6,1-1s0.4-1,0.4-1.7s-0.1-1.2-0.4-1.7
	s-0.6-0.8-0.9-1c-0.4-0.2-0.8-0.3-1.3-0.3s-0.9,0.1-1.3,0.3c-0.4,0.2-0.7,0.6-1,1c-0.2,0.5-0.4,1-0.4,1.7s0.1,1.2,0.4,1.7
	s0.6,0.8,0.9,1C55.8,43.6,56.2,43.8,56.7,43.8z"/>
<path class="st2" d="M65.4,44.9c-0.9,0-1.7-0.3-2.2-0.9c-0.6-0.6-0.8-1.5-0.8-2.6v-4.6h1.3v4.5c0,1.6,0.7,2.5,2,2.5
	c0.7,0,1.3-0.2,1.7-0.7c0.4-0.5,0.7-1.2,0.7-2.1v-4.1h1.3v7.9h-1.2l-0.1-1.4c-0.2,0.5-0.6,0.9-1.1,1.2
	C66.6,44.8,66.1,44.9,65.4,44.9z"/>
<path class="st2" d="M75.9,44.7v-7.9h1.2l0.1,1.5c0.2-0.5,0.6-0.9,1.1-1.2s1.1-0.5,1.9-0.5V38h-0.4c-0.5,0-0.9,0.1-1.3,0.2
	c-0.4,0.2-0.7,0.5-0.9,0.8c-0.2,0.4-0.3,0.9-0.3,1.6v4h-1.4C75.9,44.6,75.9,44.7,75.9,44.7z"/>
<path class="st2" d="M85,44.9c-0.8,0-1.4-0.2-2-0.5c-0.6-0.4-1.1-0.8-1.4-1.5c-0.3-0.6-0.5-1.4-0.5-2.2c0-0.8,0.2-1.6,0.5-2.2
	s0.8-1.1,1.4-1.5s1.3-0.5,2.1-0.5c0.8,0,1.4,0.2,2,0.5s1,0.8,1.3,1.4s0.5,1.2,0.5,1.8c0,0.1,0,0.2,0,0.3c0,0.1,0,0.2,0,0.4h-6.3
	c0,0.6,0.2,1.1,0.4,1.5s0.6,0.7,0.9,0.9c0.4,0.2,0.8,0.3,1.2,0.3c0.6,0,1-0.1,1.4-0.4s0.7-0.6,0.8-1h1.3c-0.2,0.7-0.6,1.4-1.2,1.8
	C86.7,44.7,85.9,44.9,85,44.9z M85,37.7c-0.6,0-1.2,0.2-1.7,0.6s-0.8,1-0.9,1.7h5c0-0.7-0.3-1.3-0.7-1.7
	C86.2,37.9,85.7,37.7,85,37.7z"/>
<path class="st2" d="M93.2,44.9c-0.7,0-1.2-0.1-1.6-0.3c-0.4-0.2-0.8-0.5-1-0.9s-0.3-0.8-0.3-1.2c0-0.8,0.3-1.4,0.9-1.9
	s1.5-0.7,2.5-0.7h2.1v-0.1c0-0.7-0.2-1.2-0.5-1.6c-0.4-0.4-0.8-0.5-1.5-0.5c-0.5,0-1,0.1-1.3,0.4c-0.4,0.3-0.6,0.6-0.7,1.1h-1.4
	c0.1-0.6,0.2-1.1,0.6-1.5c0.3-0.4,0.8-0.7,1.3-0.9c0.5-0.2,1-0.3,1.6-0.3c1.1,0,1.9,0.3,2.5,0.9s0.8,1.4,0.8,2.4v4.9H96l-0.1-1.4
	c-0.2,0.4-0.5,0.8-1,1.1C94.5,44.7,93.9,44.9,93.2,44.9z M93.4,43.8c0.5,0,1-0.1,1.3-0.4c0.4-0.3,0.6-0.6,0.8-1
	c0.2-0.4,0.3-0.9,0.3-1.3l0,0h-2c-0.8,0-1.3,0.1-1.7,0.4c-0.3,0.3-0.5,0.6-0.5,1s0.2,0.8,0.5,1C92.4,43.6,92.8,43.8,93.4,43.8z"/>
<path class="st2" d="M102.8,44.9c-0.8,0-1.5-0.2-2.1-0.5c-0.6-0.4-1-0.9-1.4-1.5s-0.5-1.3-0.5-2.1c0-0.8,0.2-1.5,0.5-2.1
	s0.8-1.1,1.4-1.5s1.3-0.5,2.1-0.5c0.6,0,1.2,0.1,1.7,0.4s0.9,0.6,1.2,1.1v-4.9h1.3v11.5h-1.2l-0.1-1.3c-0.3,0.4-0.6,0.7-1.1,1
	C104.1,44.8,103.5,44.9,102.8,44.9z M102.9,43.7c0.5,0,1-0.1,1.4-0.4c0.4-0.2,0.7-0.6,1-1.1c0.2-0.4,0.3-1,0.3-1.6s-0.1-1.1-0.3-1.6
	s-0.6-0.8-1-1.1s-0.9-0.4-1.4-0.4s-1,0.1-1.4,0.4c-0.4,0.2-0.7,0.6-1,1.1c-0.2,0.4-0.3,1-0.3,1.6s0.1,1.1,0.3,1.6s0.6,0.8,1,1.1
	C101.9,43.6,102.4,43.7,102.9,43.7z"/>
<path class="st2" d="M117,44.9c-0.8,0-1.4-0.2-2-0.5c-0.6-0.4-1.1-0.8-1.4-1.5c-0.3-0.6-0.5-1.4-0.5-2.2c0-0.8,0.2-1.6,0.5-2.2
	s0.8-1.1,1.4-1.5s1.3-0.5,2.1-0.5s1.4,0.2,2,0.5s1,0.8,1.3,1.4s0.4,1.2,0.4,1.8c0,0.1,0,0.2,0,0.3c0,0.1,0,0.2,0,0.4h-6.3
	c0,0.6,0.2,1.1,0.4,1.5s0.6,0.7,0.9,0.9c0.4,0.2,0.8,0.3,1.2,0.3c0.6,0,1-0.1,1.4-0.4s0.6-0.6,0.8-1h1.3c-0.2,0.7-0.6,1.4-1.2,1.8
	C118.8,44.7,118,44.9,117,44.9z M117,37.7c-0.6,0-1.2,0.2-1.7,0.6s-0.8,1-0.9,1.7h5c0-0.7-0.3-1.3-0.7-1.7
	C118.3,37.9,117.7,37.7,117,37.7z"/>
<path class="st2" d="M125.2,44.9c-0.7,0-1.2-0.1-1.6-0.3c-0.4-0.2-0.8-0.5-1-0.9s-0.3-0.8-0.3-1.2c0-0.8,0.3-1.4,0.9-1.9
	c0.6-0.4,1.5-0.7,2.5-0.7h2.1v-0.1c0-0.7-0.2-1.2-0.5-1.6c-0.4-0.4-0.8-0.5-1.5-0.5c-0.5,0-1,0.1-1.4,0.4s-0.6,0.6-0.7,1.1h-1.4
	c0.1-0.6,0.2-1.1,0.6-1.5c0.3-0.4,0.8-0.7,1.3-0.9c0.5-0.2,1-0.3,1.6-0.3c1.1,0,1.9,0.3,2.5,0.9c0.6,0.6,0.8,1.4,0.8,2.4v4.9h-1.2
	l-0.1-1.4c-0.2,0.4-0.6,0.8-1,1.1C126.5,44.7,125.9,44.9,125.2,44.9z M125.4,43.8c0.5,0,0.9-0.1,1.3-0.4c0.4-0.3,0.6-0.6,0.8-1
	s0.3-0.9,0.3-1.3l0,0h-2c-0.8,0-1.3,0.1-1.7,0.4c-0.3,0.3-0.5,0.6-0.5,1s0.2,0.8,0.5,1C124.4,43.6,124.9,43.8,125.4,43.8z"/>
<path class="st2" d="M134.9,44.9c-0.8,0-1.4-0.2-2-0.5c-0.6-0.4-1.1-0.8-1.4-1.5c-0.3-0.6-0.5-1.3-0.5-2.2c0-0.8,0.2-1.6,0.5-2.2
	s0.8-1.1,1.4-1.5c0.6-0.4,1.3-0.5,2-0.5c0.9,0,1.7,0.2,2.4,0.7c0.6,0.5,1.1,1.1,1.2,2h-1.4c-0.1-0.5-0.4-0.9-0.8-1.1
	s-0.9-0.4-1.5-0.4c-0.5,0-0.9,0.1-1.3,0.3c-0.4,0.2-0.7,0.6-1,1s-0.4,1-0.4,1.7s0.1,1.2,0.4,1.7c0.2,0.4,0.6,0.8,1,1
	s0.8,0.3,1.3,0.3s1-0.1,1.5-0.4c0.4-0.3,0.7-0.7,0.8-1.2h1.4c-0.2,0.8-0.6,1.5-1.2,2C136.6,44.7,135.8,44.9,134.9,44.9z"/>
<path class="st2" d="M140.4,44.7V33.2h1.3v4.9c0.3-0.5,0.7-0.9,1.1-1.1c0.5-0.3,1-0.4,1.6-0.4c0.9,0,1.6,0.3,2.2,0.9
	c0.5,0.6,0.8,1.4,0.8,2.6v4.6h-1.3v-4.5c0-1.6-0.7-2.5-2-2.5c-0.7,0-1.3,0.2-1.7,0.7c-0.5,0.5-0.7,1.2-0.7,2.1v4.1L140.4,44.7
	L140.4,44.7z"/>
<path class="st2" d="M22.1,66.7v-7.9h1.2l0.1,1.2c0.3-0.4,0.6-0.8,1-1s0.9-0.4,1.4-0.4c0.6,0,1.2,0.1,1.6,0.4c0.5,0.3,0.8,0.7,1,1.2
	c0.3-0.5,0.7-0.9,1.1-1.1c0.5-0.3,1-0.4,1.6-0.4c1,0,1.7,0.3,2.3,0.9s0.8,1.4,0.8,2.6v4.6h-1.3v-4.5c0-0.8-0.2-1.4-0.5-1.9
	c-0.3-0.4-0.8-0.6-1.4-0.6c-0.6,0-1.2,0.2-1.6,0.7c-0.4,0.5-0.6,1.2-0.6,2.1v4.1h-1.3v-4.5c0-0.8-0.2-1.4-0.5-1.9
	c-0.3-0.4-0.8-0.6-1.4-0.6c-0.6,0-1.2,0.2-1.6,0.7c-0.4,0.5-0.6,1.2-0.6,2.1v4.1L22.1,66.7L22.1,66.7z"/>
<path class="st2" d="M40,66.9c-0.8,0-1.4-0.2-2-0.5s-1.1-0.8-1.4-1.5c-0.3-0.6-0.5-1.4-0.5-2.2s0.2-1.6,0.5-2.2
	c0.4-0.6,0.8-1.1,1.4-1.5c0.6-0.3,1.3-0.5,2-0.5c0.8,0,1.4,0.2,2,0.5s1.1,0.8,1.4,1.5c0.3,0.6,0.5,1.4,0.5,2.2s-0.2,1.6-0.5,2.2
	S42.6,66,42,66.4C41.4,66.7,40.7,66.9,40,66.9z M40,65.8c0.5,0,0.9-0.1,1.3-0.3s0.7-0.6,1-1s0.4-1,0.4-1.7s-0.1-1.2-0.4-1.7
	c-0.2-0.4-0.6-0.8-0.9-1c-0.4-0.2-0.8-0.3-1.3-0.3s-0.9,0.1-1.3,0.3s-0.7,0.6-1,1s-0.4,1-0.4,1.7s0.1,1.2,0.4,1.7s0.6,0.8,0.9,1
	C39.1,65.6,39.6,65.8,40,65.8z"/>
<path class="st2" d="M49.5,66.9c-0.8,0-1.5-0.2-2.1-0.5c-0.6-0.4-1.1-0.9-1.4-1.5s-0.5-1.3-0.5-2.1s0.2-1.5,0.5-2.1s0.8-1.1,1.4-1.5
	s1.3-0.5,2.1-0.5c0.7,0,1.2,0.1,1.7,0.4s0.9,0.6,1.2,1.1v-4.9h1.3v11.5h-1.2l-0.1-1.3c-0.3,0.4-0.6,0.7-1.1,1S50.2,66.9,49.5,66.9z
	 M49.6,65.7c0.5,0,1-0.1,1.4-0.4c0.4-0.2,0.7-0.6,1-1c0.2-0.5,0.3-1,0.3-1.6s-0.1-1.1-0.3-1.6c-0.2-0.5-0.6-0.8-1-1
	s-0.9-0.4-1.4-0.4s-1,0.1-1.4,0.4c-0.4,0.2-0.7,0.6-1,1c-0.2,0.5-0.3,1-0.3,1.6s0.1,1.1,0.3,1.6c0.2,0.4,0.5,0.8,1,1
	C48.6,65.6,49.1,65.7,49.6,65.7z"/>
<path class="st2" d="M58.8,66.9c-0.9,0-1.7-0.3-2.2-0.9c-0.6-0.6-0.8-1.5-0.8-2.6v-4.6h1.3v4.5c0,1.7,0.7,2.5,2,2.5
	c0.7,0,1.3-0.2,1.7-0.7c0.4-0.5,0.7-1.2,0.7-2.1v-4.1h1.3v7.9h-1.2l-0.1-1.4c-0.2,0.5-0.6,0.9-1.1,1.2
	C59.9,66.8,59.4,66.9,58.8,66.9z"/>
<path class="st2" d="M65,66.7V55.2h1.3v11.5H65z"/>
<path class="st2" d="M72.2,66.9c-0.8,0-1.4-0.2-2-0.5s-1-0.8-1.4-1.4c-0.3-0.6-0.5-1.4-0.5-2.2s0.2-1.6,0.5-2.2s0.8-1.1,1.4-1.5
	s1.3-0.5,2.1-0.5c0.8,0,1.4,0.2,2,0.5s1,0.8,1.3,1.4s0.4,1.2,0.4,1.8c0,0.1,0,0.2,0,0.3s0,0.2,0,0.4h-6.3c0,0.6,0.2,1.1,0.4,1.5
	c0.2,0.4,0.6,0.7,0.9,0.9c0.4,0.2,0.8,0.3,1.2,0.3c0.5,0,1-0.1,1.4-0.4s0.7-0.6,0.8-1h1.3c-0.2,0.7-0.6,1.4-1.2,1.8
	C73.9,66.7,73.1,66.9,72.2,66.9z M72.2,59.7c-0.6,0-1.2,0.2-1.7,0.6s-0.8,1-0.9,1.7h5c0-0.7-0.3-1.3-0.7-1.7
	C73.4,59.9,72.9,59.7,72.2,59.7z"/>
<path class="st2" d="M76.6,68.6l0.9-3.5h1.4l-1.4,3.5H76.6z"/>
<path class="st2" d="M88.5,66.9c-0.8,0-1.4-0.2-2-0.5s-1.1-0.8-1.4-1.5c-0.4-0.6-0.5-1.4-0.5-2.2s0.2-1.6,0.5-2.2s0.8-1.1,1.4-1.5
	s1.3-0.5,2-0.5c0.9,0,1.7,0.2,2.4,0.7s1.1,1.2,1.2,2h-1.4c-0.1-0.5-0.4-0.9-0.8-1.1c-0.4-0.3-0.9-0.4-1.5-0.4
	c-0.4,0-0.9,0.1-1.3,0.3s-0.7,0.6-1,1s-0.4,1-0.4,1.7s0.1,1.2,0.4,1.7s0.6,0.8,1,1s0.8,0.3,1.3,0.3c0.6,0,1-0.1,1.5-0.4
	c0.4-0.3,0.7-0.7,0.8-1.2h1.4c-0.2,0.8-0.6,1.5-1.2,2S89.4,66.9,88.5,66.9z"/>
<path class="st2" d="M93.9,66.7V55.2h1.3v4.9c0.3-0.5,0.7-0.9,1.1-1.1c0.5-0.3,1-0.4,1.6-0.4c0.9,0,1.7,0.3,2.2,0.9
	c0.6,0.6,0.8,1.5,0.8,2.6v4.6h-1.3v-4.5c0-1.7-0.7-2.5-2-2.5c-0.7,0-1.3,0.2-1.7,0.7c-0.5,0.5-0.7,1.2-0.7,2.1v4.1L93.9,66.7
	L93.9,66.7z"/>
<path class="st2" d="M106.7,66.9c-0.8,0-1.4-0.2-2-0.5s-1.1-0.8-1.4-1.5c-0.4-0.6-0.5-1.4-0.5-2.2s0.2-1.6,0.5-2.2
	c0.4-0.6,0.8-1.1,1.4-1.5c0.6-0.3,1.3-0.5,2-0.5s1.4,0.2,2,0.5s1.1,0.8,1.4,1.5c0.4,0.6,0.5,1.4,0.5,2.2s-0.2,1.6-0.5,2.2
	c-0.4,0.6-0.8,1.1-1.4,1.5C108.1,66.7,107.4,66.9,106.7,66.9z M106.7,65.8c0.5,0,0.9-0.1,1.3-0.3s0.7-0.6,1-1s0.4-1,0.4-1.7
	s-0.1-1.2-0.4-1.7c-0.2-0.5-0.6-0.8-1-1s-0.8-0.3-1.3-0.3s-0.9,0.1-1.3,0.3c-0.4,0.2-0.7,0.6-1,1s-0.4,1-0.4,1.7s0.1,1.2,0.4,1.7
	c0.2,0.5,0.6,0.8,1,1S106.2,65.8,106.7,65.8z"/>
<path class="st2" d="M116.2,66.9c-0.8,0-1.4-0.2-2-0.5s-1.1-0.8-1.4-1.5c-0.3-0.6-0.5-1.4-0.5-2.2s0.2-1.6,0.5-2.2
	c0.4-0.6,0.8-1.1,1.4-1.5s1.3-0.5,2-0.5c0.8,0,1.4,0.2,2,0.5s1.1,0.8,1.4,1.5c0.3,0.6,0.5,1.4,0.5,2.2s-0.2,1.6-0.5,2.2
	s-0.8,1.1-1.4,1.5C117.6,66.7,116.9,66.9,116.2,66.9z M116.2,65.8c0.5,0,0.9-0.1,1.3-0.3s0.7-0.6,1-1s0.4-1,0.4-1.7
	s-0.1-1.2-0.4-1.7s-0.6-0.8-0.9-1c-0.4-0.2-0.8-0.3-1.3-0.3s-0.9,0.1-1.3,0.3c-0.4,0.2-0.7,0.6-1,1s-0.4,1-0.4,1.7s0.1,1.2,0.4,1.7
	s0.6,0.8,0.9,1C115.3,65.6,115.7,65.8,116.2,65.8z"/>
<path class="st2" d="M125,66.9c-0.9,0-1.7-0.2-2.4-0.7c-0.6-0.5-1-1.1-1.1-2h1.4c0.1,0.4,0.3,0.8,0.7,1.1c0.3,0.3,0.8,0.5,1.4,0.5
	c0.6,0,1-0.1,1.2-0.4c0.3-0.2,0.4-0.5,0.4-0.9c0-0.5-0.2-0.8-0.5-1s-0.8-0.3-1.5-0.4c-0.4-0.1-0.9-0.2-1.3-0.4
	c-0.4-0.2-0.8-0.4-1.1-0.7s-0.4-0.7-0.4-1.2c0-0.7,0.3-1.3,0.8-1.7s1.2-0.7,2.1-0.7c0.8,0,1.5,0.2,2.1,0.6s0.9,1,0.9,1.8h-1.3
	c-0.1-0.4-0.2-0.7-0.5-1c-0.3-0.2-0.7-0.3-1.2-0.3s-0.9,0.1-1.1,0.3c-0.3,0.2-0.4,0.5-0.4,0.8s0.2,0.6,0.5,0.8s0.8,0.3,1.4,0.5
	c0.5,0.1,1,0.2,1.4,0.4c0.4,0.1,0.8,0.4,1.1,0.7s0.4,0.7,0.4,1.3c0,0.7-0.3,1.3-0.8,1.8C126.7,66.7,126,66.9,125,66.9z"/>
<path class="st2" d="M133.6,66.9c-0.8,0-1.4-0.2-2-0.5s-1-0.8-1.4-1.4c-0.3-0.6-0.5-1.4-0.5-2.2s0.2-1.6,0.5-2.2s0.8-1.1,1.4-1.5
	c0.6-0.4,1.3-0.5,2.1-0.5s1.4,0.2,2,0.5s1,0.8,1.3,1.4s0.4,1.2,0.4,1.8c0,0.1,0,0.2,0,0.3s0,0.2,0,0.4h-6.3c0,0.6,0.2,1.1,0.4,1.5
	s0.6,0.7,0.9,0.9c0.4,0.2,0.8,0.3,1.2,0.3c0.6,0,1-0.1,1.4-0.4s0.7-0.6,0.8-1h1.3c-0.2,0.7-0.6,1.4-1.2,1.8
	C135.3,66.7,134.5,66.9,133.6,66.9z M133.6,59.7c-0.6,0-1.2,0.2-1.7,0.6s-0.8,1-0.9,1.7h5c0-0.7-0.3-1.3-0.7-1.7
	C134.8,59.9,134.2,59.7,133.6,59.7z"/>
<path class="st2" d="M25.7,88.9c-0.8,0-1.4-0.2-2-0.5s-1.1-0.8-1.4-1.5c-0.3-0.6-0.5-1.4-0.5-2.2s0.2-1.6,0.5-2.2s0.8-1.1,1.4-1.5
	c0.6-0.3,1.3-0.5,2-0.5c0.8,0,1.4,0.2,2,0.5s1.1,0.8,1.4,1.5c0.3,0.6,0.5,1.4,0.5,2.2s-0.2,1.6-0.5,2.2c-0.4,0.6-0.8,1.1-1.4,1.5
	C27.1,88.7,26.4,88.9,25.7,88.9z M25.7,87.8c0.5,0,0.9-0.1,1.3-0.3s0.7-0.6,1-1s0.4-1,0.4-1.7s-0.1-1.2-0.4-1.7
	c-0.2-0.4-0.6-0.8-1-1s-0.8-0.3-1.3-0.3s-0.9,0.1-1.3,0.3c-0.4,0.2-0.7,0.6-1,1s-0.4,1-0.4,1.7s0.1,1.2,0.4,1.7s0.6,0.8,1,1
	C24.8,87.6,25.2,87.8,25.7,87.8z"/>
<path class="st2" d="M31.5,88.7v-7.9h1.3l0.1,1.4c0.3-0.5,0.6-0.9,1.1-1.2s1-0.4,1.6-0.4c0.9,0,1.7,0.3,2.2,0.9
	c0.6,0.6,0.8,1.5,0.8,2.6v4.6h-1.3v-4.5c0-1.7-0.7-2.5-2.1-2.5c-0.7,0-1.2,0.2-1.7,0.7c-0.4,0.5-0.7,1.2-0.7,2.1v4.1L31.5,88.7
	L31.5,88.7z"/>
<path class="st2" d="M44.3,88.9c-0.8,0-1.4-0.2-2-0.5s-1.1-0.8-1.4-1.4c-0.3-0.6-0.5-1.4-0.5-2.2s0.2-1.6,0.5-2.2s0.8-1.1,1.4-1.5
	s1.3-0.5,2.1-0.5s1.4,0.2,2,0.5s1,0.8,1.3,1.4s0.4,1.2,0.4,1.8c0,0.1,0,0.2,0,0.3s0,0.2,0,0.4h-6.3c0,0.6,0.2,1.1,0.4,1.5
	s0.6,0.7,0.9,0.9c0.4,0.2,0.8,0.3,1.2,0.3c0.5,0,1-0.1,1.4-0.4c0.4-0.2,0.7-0.6,0.8-1h1.3c-0.2,0.7-0.6,1.4-1.2,1.8
	C46,88.7,45.2,88.9,44.3,88.9z M44.3,81.7c-0.6,0-1.2,0.2-1.7,0.6s-0.8,1-0.9,1.7h5c0-0.7-0.3-1.3-0.7-1.7
	C45.5,81.9,44.9,81.7,44.3,81.7z"/>
<path class="st2" d="M57.1,88.9c-0.9,0-1.7-0.2-2.4-0.7c-0.6-0.5-1-1.1-1.1-2H55c0.1,0.4,0.3,0.8,0.7,1.1c0.4,0.3,0.8,0.5,1.5,0.5
	c0.6,0,1-0.1,1.2-0.4c0.3-0.2,0.4-0.5,0.4-0.9c0-0.5-0.2-0.8-0.5-1s-0.8-0.3-1.5-0.4c-0.4-0.1-0.8-0.2-1.3-0.4
	c-0.4-0.2-0.8-0.4-1.1-0.7c-0.3-0.3-0.4-0.7-0.4-1.2c0-0.7,0.3-1.3,0.8-1.7s1.2-0.7,2.1-0.7c0.8,0,1.5,0.2,2.1,0.6s0.9,1,0.9,1.8
	h-1.3c0-0.4-0.2-0.7-0.5-1c-0.3-0.2-0.7-0.3-1.2-0.3s-0.8,0.1-1.1,0.3s-0.4,0.5-0.4,0.8s0.2,0.6,0.5,0.8s0.8,0.3,1.4,0.5
	c0.5,0.1,1,0.2,1.4,0.4c0.4,0.1,0.8,0.4,1.1,0.7c0.3,0.3,0.4,0.7,0.4,1.3c0,0.7-0.3,1.3-0.8,1.8C58.7,88.7,58,88.9,57.1,88.9z"/>
<path class="st2" d="M64.8,88.7c-0.7,0-1.3-0.2-1.7-0.5c-0.4-0.4-0.6-1-0.6-1.9v-4.4h-1.4v-1.1h1.4l0.2-1.9h1.1v1.9h2.3v1.1h-2.3
	v4.4c0,0.5,0.1,0.8,0.3,1c0.2,0.2,0.6,0.3,1.1,0.3H66v1.2L64.8,88.7L64.8,88.7z"/>
<path class="st2" d="M67.9,88.7v-7.9h1.2l0.1,1.5c0.2-0.5,0.6-0.9,1.1-1.2s1.1-0.5,1.9-0.5V82h-0.4c-0.5,0-0.9,0.1-1.3,0.2
	c-0.4,0.2-0.7,0.4-0.9,0.8c-0.2,0.4-0.4,0.9-0.4,1.6v4h-1.3C67.9,88.6,67.9,88.7,67.9,88.7z"/>
<path class="st2" d="M76.3,88.9c-0.7,0-1.2-0.1-1.6-0.3s-0.8-0.5-1-0.9s-0.3-0.8-0.3-1.2c0-0.8,0.3-1.4,0.9-1.9s1.5-0.7,2.5-0.7h2.1
	v-0.1c0-0.7-0.2-1.2-0.5-1.6s-0.8-0.5-1.5-0.5c-0.5,0-1,0.1-1.3,0.4s-0.6,0.6-0.7,1.1h-1.4c0-0.6,0.2-1.1,0.6-1.5
	c0.3-0.4,0.8-0.7,1.3-0.9s1-0.3,1.6-0.3c1.1,0,1.9,0.3,2.5,0.9s0.8,1.4,0.8,2.4v4.9h-1.2L79,87.3c-0.2,0.5-0.6,0.8-1,1.1
	C77.6,88.8,77,88.9,76.3,88.9z M76.5,87.8c0.5,0,0.9-0.1,1.3-0.4s0.6-0.6,0.8-1s0.3-0.9,0.3-1.3l0,0h-2c-0.8,0-1.3,0.1-1.7,0.4
	c-0.3,0.3-0.5,0.6-0.5,1s0.2,0.8,0.5,1C75.5,87.6,76,87.8,76.5,87.8z"/>
<path class="st2" d="M85.2,88.7c-0.7,0-1.3-0.2-1.7-0.5c-0.4-0.4-0.6-1-0.6-1.9v-4.4h-1.4v-1.1h1.4l0.2-1.9h1.2v1.9h2.3v1.1h-2.3
	v4.4c0,0.5,0.1,0.8,0.3,1c0.2,0.2,0.6,0.3,1.1,0.3h0.8v1.2L85.2,88.7L85.2,88.7z"/>
<path class="st2" d="M91.6,88.9c-0.8,0-1.4-0.2-2-0.5s-1.1-0.8-1.4-1.4s-0.5-1.4-0.5-2.2s0.2-1.6,0.5-2.2s0.8-1.1,1.4-1.5
	s1.3-0.5,2.1-0.5c0.8,0,1.4,0.2,2,0.5s1,0.8,1.3,1.4s0.5,1.2,0.5,1.8c0,0.1,0,0.2,0,0.3s0,0.2,0,0.4h-6.3c0,0.6,0.2,1.1,0.4,1.5
	c0.2,0.4,0.6,0.7,0.9,0.9s0.8,0.3,1.2,0.3c0.6,0,1-0.1,1.4-0.4c0.4-0.2,0.7-0.6,0.8-1h1.3C95,87,94.6,87.7,94,88.1
	C93.4,88.7,92.6,88.9,91.6,88.9z M91.6,81.7c-0.6,0-1.2,0.2-1.7,0.6s-0.8,1-0.9,1.7h5c0-0.7-0.3-1.3-0.7-1.7
	C92.9,81.9,92.3,81.7,91.6,81.7z"/>
<path class="st2" d="M100.3,86.2c-0.4,0-0.9-0.1-1.2-0.2l-0.8,0.8c0.1,0.1,0.3,0.2,0.4,0.2s0.4,0.1,0.8,0.2s0.8,0.1,1.4,0.1
	c1.1,0.1,1.8,0.3,2.3,0.7s0.7,1,0.7,1.6c0,0.5-0.1,0.9-0.4,1.3c-0.2,0.4-0.6,0.8-1.2,1c-0.5,0.3-1.2,0.4-2,0.4
	c-0.7,0-1.4-0.1-1.9-0.3c-0.5-0.2-1-0.5-1.3-0.8s-0.5-0.9-0.5-1.4c0-0.3,0.1-0.6,0.2-1c0.2-0.3,0.5-0.7,0.9-1
	c-0.2-0.1-0.4-0.2-0.6-0.3s-0.3-0.2-0.5-0.4v-0.4l1.4-1.3c-0.6-0.5-0.9-1.2-0.9-2.1c0-0.5,0.1-1,0.4-1.4c0.2-0.4,0.6-0.8,1.1-1
	s1-0.4,1.7-0.4c0.5,0,0.9,0.1,1.2,0.2h2.9v1l-1.5,0.1c0.3,0.5,0.5,1,0.5,1.5s-0.1,1-0.4,1.4c-0.2,0.4-0.6,0.8-1.1,1
	C101.5,86.1,100.9,86.2,100.3,86.2z M97.9,89.7c0,0.5,0.2,0.9,0.7,1.2c0.4,0.3,1,0.4,1.7,0.4s1.2-0.1,1.6-0.4s0.6-0.7,0.6-1.1
	c0-0.3-0.1-0.6-0.4-0.9s-0.8-0.4-1.5-0.4c-0.6,0-1.1-0.1-1.5-0.2c-0.4,0.2-0.7,0.5-0.9,0.8C98,89.3,97.9,89.5,97.9,89.7z
	 M100.3,85.1c0.6,0,1-0.2,1.4-0.4c0.3-0.3,0.5-0.7,0.5-1.3c0-0.5-0.2-1-0.5-1.3s-0.8-0.4-1.4-0.4s-1,0.2-1.4,0.4
	c-0.3,0.3-0.5,0.7-0.5,1.3s0.2,1,0.5,1.3S99.7,85.1,100.3,85.1z"/>
<path class="st2" d="M106.8,92.2l2-4.3h-0.5l-3.1-7.2h1.5l2.6,6.2l2.8-6.2h1.4l-5.2,11.5H106.8z"/>
<path class="st2" d="M122.2,88.7c-0.7,0-1.3-0.2-1.7-0.5c-0.4-0.4-0.6-1-0.6-1.9v-4.4h-1.4v-1.1h1.4l0.2-1.9h1.2v1.9h2.3v1.1h-2.3
	v4.4c0,0.5,0.1,0.8,0.3,1s0.6,0.3,1.1,0.3h0.8v1.2L122.2,88.7L122.2,88.7z"/>
<path class="st2" d="M128.7,88.9c-0.8,0-1.4-0.2-2-0.5s-1.1-0.8-1.4-1.5c-0.3-0.6-0.5-1.4-0.5-2.2s0.2-1.6,0.5-2.2s0.8-1.1,1.4-1.5
	s1.3-0.5,2-0.5c0.7,0,1.4,0.2,2,0.5s1.1,0.8,1.4,1.5c0.3,0.6,0.5,1.4,0.5,2.2s-0.2,1.6-0.5,2.2s-0.8,1.1-1.4,1.5
	C130.1,88.7,129.4,88.9,128.7,88.9z M128.7,87.8c0.5,0,0.9-0.1,1.3-0.3c0.4-0.2,0.7-0.6,1-1s0.4-1,0.4-1.7s-0.1-1.2-0.4-1.7
	c-0.2-0.5-0.6-0.8-0.9-1c-0.4-0.2-0.8-0.3-1.3-0.3s-0.9,0.1-1.3,0.3c-0.4,0.2-0.7,0.6-1,1s-0.4,1-0.4,1.7s0.1,1.2,0.4,1.7
	c0.2,0.5,0.6,0.8,0.9,1C127.8,87.6,128.2,87.8,128.7,87.8z"/>
<path class="st2" d="M25.7,148.6c-0.8,0-1.5-0.2-2.1-0.5s-1-0.9-1.4-1.5c-0.3-0.6-0.5-1.3-0.5-2.1s0.2-1.5,0.5-2.1s0.8-1.1,1.4-1.5
	s1.3-0.5,2.1-0.5c0.6,0,1.2,0.1,1.7,0.4s0.9,0.6,1.2,1.1V137h1.3v11.5h-1.2l-0.1-1.3c-0.3,0.4-0.6,0.7-1.1,1
	C27,148.4,26.4,148.6,25.7,148.6z M25.8,147.4c0.5,0,1-0.1,1.4-0.4s0.7-0.6,1-1s0.3-1,0.3-1.6s-0.1-1.1-0.3-1.6s-0.5-0.8-1-1
	s-0.9-0.4-1.4-0.4s-1,0.1-1.4,0.4s-0.7,0.6-1,1c-0.2,0.5-0.3,1-0.3,1.6s0.1,1.1,0.3,1.6s0.5,0.8,1,1S25.3,147.4,25.8,147.4z"/>
<path class="st2" d="M34.8,148.6c-0.7,0-1.2-0.1-1.7-0.3c-0.4-0.2-0.8-0.5-1-0.9c-0.2-0.4-0.3-0.8-0.3-1.2c0-0.8,0.3-1.4,0.9-1.9
	s1.5-0.7,2.5-0.7h2.1v-0.1c0-0.7-0.2-1.2-0.5-1.6s-0.8-0.5-1.5-0.5c-0.5,0-1,0.1-1.3,0.4c-0.4,0.3-0.6,0.6-0.7,1.1h-1.4
	c0-0.6,0.2-1.1,0.6-1.5c0.3-0.4,0.8-0.7,1.3-0.9s1-0.3,1.6-0.3c1.1,0,1.9,0.3,2.5,0.9s0.8,1.4,0.8,2.4v4.9h-1.2l-0.1-1.4
	c-0.2,0.5-0.6,0.8-1,1.1C36,148.4,35.5,148.6,34.8,148.6z M35,147.4c0.5,0,0.9-0.1,1.3-0.4c0.4-0.3,0.6-0.6,0.8-1s0.3-0.9,0.3-1.3
	l0,0h-2c-0.8,0-1.4,0.1-1.7,0.4s-0.5,0.6-0.5,1s0.2,0.8,0.5,1C34,147.3,34.4,147.4,35,147.4z"/>
<path class="st2" d="M41.6,138.7c-0.3,0-0.5-0.1-0.7-0.3s-0.3-0.4-0.3-0.7s0.1-0.5,0.3-0.6c0.2-0.2,0.4-0.3,0.7-0.3s0.5,0.1,0.7,0.3
	s0.3,0.4,0.3,0.6c0,0.3-0.1,0.5-0.3,0.7C42.1,138.6,41.8,138.7,41.6,138.7z M40.9,148.4v-7.9h1.3v7.9H40.9z"/>
<path class="st2" d="M44.6,148.4v-11.5h1.3v11.5H44.6z"/>
<path class="st2" d="M49,151.9l2-4.3h-0.5l-3.2-7.2h1.5l2.6,6.2l2.8-6.2h1.4l-5.2,11.5H49z"/>
<path class="st2" d="M56.4,148.5c-0.3,0-0.5-0.1-0.7-0.3s-0.3-0.4-0.3-0.6s0.1-0.5,0.3-0.7c0.2-0.2,0.4-0.3,0.7-0.3s0.5,0.1,0.7,0.3
	s0.3,0.4,0.3,0.7s-0.1,0.5-0.3,0.6C56.8,148.4,56.6,148.5,56.4,148.5z"/>
<path class="st1" d="M287.2,121.7H171.8c-2.5,0-4.6-2.1-4.6-4.6v-75c0-1.1,0.9-1.9,1.9-1.9h120.7c1.1,0,1.9,0.9,1.9,1.9v75
	C291.8,119.6,289.7,121.7,287.2,121.7z"/>
<path class="st1" d="M289.7,40.2h-23.4c-0.7,0-1.2-0.5-1.2-1.2v-2.6c0-1.2-1-2.2-2.2-2.2H251c-1.2,0-2.2,1-2.2,2.2V39
	c0,0.7-0.5,1.2-1.2,1.2h-36.1c-0.7,0-1.2-0.5-1.2-1.2v-2.6c0-1.2-1-2.2-2.2-2.2h-11.9c-1.2,0-2.2,1-2.2,2.2V39
	c0,0.7-0.5,1.2-1.2,1.2h-23.4c-1.2,0-2.1,1-2.1,2.1v3.2h124.5v-3.2C291.8,41.2,290.8,40.2,289.7,40.2z"/>
<path class="st0" d="M185.4,66.4h-10.7c-1.2,0-2.1-1-2.1-2.1V53.6c0-1.2,0.9-2.1,2.1-2.1h10.7c1.2,0,2.1,0.9,2.1,2.1v10.7
	C187.5,65.4,186.6,66.4,185.4,66.4z"/>
<path class="st0" d="M201.9,66.4h-10.7c-1.2,0-2.1-1-2.1-2.1V53.6c0-1.2,0.9-2.1,2.1-2.1h10.7c1.2,0,2.1,0.9,2.1,2.1v10.7
	C204,65.4,203,66.4,201.9,66.4z"/>
<path class="st0" d="M218.2,66.4h-10.7c-1.2,0-2.1-1-2.1-2.1V53.6c0-1.2,0.9-2.1,2.1-2.1h10.7c1.2,0,2.1,0.9,2.1,2.1v10.7
	C220.4,65.4,219.4,66.4,218.2,66.4z"/>
<path class="st0" d="M234.7,66.4H224c-1.2,0-2.1-1-2.1-2.1V53.6c0-1.2,0.9-2.1,2.1-2.1h10.7c1.2,0,2.1,0.9,2.1,2.1v10.7
	C236.8,65.4,235.9,66.4,234.7,66.4z"/>
<path class="st0" d="M185.4,82.6h-10.7c-1.2,0-2.1-0.9-2.1-2.1V69.8c0-1.2,0.9-2.1,2.1-2.1h10.7c1.2,0,2.1,1,2.1,2.1v10.7
	C187.5,81.7,186.6,82.6,185.4,82.6z"/>
<path class="st0" d="M201.9,82.6h-10.7c-1.2,0-2.1-0.9-2.1-2.1V69.8c0-1.2,0.9-2.1,2.1-2.1h10.7c1.2,0,2.1,1,2.1,2.1v10.7
	C204,81.7,203,82.6,201.9,82.6z"/>
<path class="st0" d="M218.2,82.6h-10.7c-1.2,0-2.1-0.9-2.1-2.1V69.8c0-1.2,0.9-2.1,2.1-2.1h10.7c1.2,0,2.1,1,2.1,2.1v10.7
	C220.4,81.7,219.4,82.6,218.2,82.6z"/>
<path class="st0" d="M234.7,82.6H224c-1.2,0-2.1-0.9-2.1-2.1V69.8c0-1.2,0.9-2.1,2.1-2.1h10.7c1.2,0,2.1,1,2.1,2.1v10.7
	C236.8,81.7,235.9,82.6,234.7,82.6z"/>
<path class="st0" d="M251.4,66.4h-10.7c-1.2,0-2.1-1-2.1-2.1V53.6c0-1.2,0.9-2.1,2.1-2.1h10.7c1.2,0,2.1,0.9,2.1,2.1v10.7
	C253.5,65.4,252.6,66.4,251.4,66.4z"/>
<path class="st0" d="M267.8,66.4h-10.7c-1.2,0-2.1-1-2.1-2.1V53.6c0-1.2,0.9-2.1,2.1-2.1h10.7c1.2,0,2.1,0.9,2.1,2.1v10.7
	C270,65.4,269,66.4,267.8,66.4z"/>
<path class="st0" d="M251.4,82.6h-10.7c-1.2,0-2.1-0.9-2.1-2.1V69.8c0-1.2,0.9-2.1,2.1-2.1h10.7c1.2,0,2.1,1,2.1,2.1v10.7
	C253.5,81.7,252.6,82.6,251.4,82.6z"/>
<path class="st0" d="M267.8,82.6h-10.7c-1.2,0-2.1-0.9-2.1-2.1V69.8c0-1.2,0.9-2.1,2.1-2.1h10.7c1.2,0,2.1,1,2.1,2.1v10.7
	C270,81.7,269,82.6,267.8,82.6z"/>
<path class="st0" d="M284.3,66.4h-10.7c-1.2,0-2.1-1-2.1-2.1V53.6c0-1.2,0.9-2.1,2.1-2.1h10.7c1.2,0,2.1,0.9,2.1,2.1v10.7
	C286.5,65.4,285.5,66.4,284.3,66.4z"/>
<path class="st0" d="M284.3,82.6h-10.7c-1.2,0-2.1-0.9-2.1-2.1V69.8c0-1.2,0.9-2.1,2.1-2.1h10.7c1.2,0,2.1,1,2.1,2.1v10.7
	C286.5,81.7,285.5,82.6,284.3,82.6z"/>
<path class="st0" d="M185.4,98.8h-10.7c-1.2,0-2.1-1-2.1-2.1V86c0-1.2,0.9-2.1,2.1-2.1h10.7c1.2,0,2.1,1,2.1,2.1v10.6
	C187.5,97.8,186.6,98.8,185.4,98.8z"/>
<path class="st0" d="M201.9,98.8h-10.7c-1.2,0-2.1-1-2.1-2.1V86c0-1.2,0.9-2.1,2.1-2.1h10.7c1.2,0,2.1,1,2.1,2.1v10.6
	C204,97.8,203,98.8,201.9,98.8z"/>
<path class="st0" d="M218.2,98.8h-10.7c-1.2,0-2.1-1-2.1-2.1V86c0-1.2,0.9-2.1,2.1-2.1h10.7c1.2,0,2.1,1,2.1,2.1v10.6
	C220.4,97.8,219.4,98.8,218.2,98.8z"/>
<path class="st0" d="M234.7,98.8H224c-1.2,0-2.1-1-2.1-2.1V86c0-1.2,0.9-2.1,2.1-2.1h10.7c1.2,0,2.1,1,2.1,2.1v10.6
	C236.8,97.8,235.9,98.8,234.7,98.8z"/>
<path class="st0" d="M185.4,115.1h-10.7c-1.2,0-2.1-1-2.1-2.1v-10.7c0-1.2,0.9-2.1,2.1-2.1h10.7c1.2,0,2.1,1,2.1,2.1V113
	C187.5,114.1,186.6,115.1,185.4,115.1z"/>
<path class="st0" d="M201.9,115.1h-10.7c-1.2,0-2.1-1-2.1-2.1v-10.7c0-1.2,0.9-2.1,2.1-2.1h10.7c1.2,0,2.1,1,2.1,2.1V113
	C204,114.1,203,115.1,201.9,115.1z"/>
<path class="st0" d="M218.2,115.1h-10.7c-1.2,0-2.1-1-2.1-2.1v-10.7c0-1.2,0.9-2.1,2.1-2.1h10.7c1.2,0,2.1,1,2.1,2.1V113
	C220.4,114.1,219.4,115.1,218.2,115.1z"/>
<path class="st0" d="M234.7,115.1H224c-1.2,0-2.1-1-2.1-2.1v-10.7c0-1.2,0.9-2.1,2.1-2.1h10.7c1.2,0,2.1,1,2.1,2.1V113
	C236.8,114.1,235.9,115.1,234.7,115.1z"/>
<path class="st0" d="M251.4,98.8h-10.7c-1.2,0-2.1-1-2.1-2.1V86c0-1.2,0.9-2.1,2.1-2.1h10.7c1.2,0,2.1,1,2.1,2.1v10.6
	C253.5,97.8,252.6,98.8,251.4,98.8z"/>
<path class="st0" d="M267.8,98.8h-10.7c-1.2,0-2.1-1-2.1-2.1V86c0-1.2,0.9-2.1,2.1-2.1h10.7c1.2,0,2.1,1,2.1,2.1v10.6
	C270,97.8,269,98.8,267.8,98.8z"/>
<path class="st0" d="M251.4,115.1h-10.7c-1.2,0-2.1-1-2.1-2.1v-10.7c0-1.2,0.9-2.1,2.1-2.1h10.7c1.2,0,2.1,1,2.1,2.1V113
	C253.5,114.1,252.6,115.1,251.4,115.1z"/>
<path class="st0" d="M267.8,115.1h-10.7c-1.2,0-2.1-1-2.1-2.1v-10.7c0-1.2,0.9-2.1,2.1-2.1h10.7c1.2,0,2.1,1,2.1,2.1V113
	C270,114.1,269,115.1,267.8,115.1z"/>
<path class="st0" d="M284.3,98.8h-10.7c-1.2,0-2.1-1-2.1-2.1V86c0-1.2,0.9-2.1,2.1-2.1h10.7c1.2,0,2.1,1,2.1,2.1v10.6
	C286.5,97.8,285.5,98.8,284.3,98.8z"/>
<path class="st0" d="M284.3,115.1h-10.7c-1.2,0-2.1-1-2.1-2.1v-10.7c0-1.2,0.9-2.1,2.1-2.1h10.7c1.2,0,2.1,1,2.1,2.1V113
	C286.5,114.1,285.5,115.1,284.3,115.1z"/>
<path class="st3" d="M175,63.9l9.8-9.9"/>
<path class="st3" d="M191.5,63.9l9.8-9.9"/>
<path class="st3" d="M207.9,63.9l9.8-9.9"/>
<path class="st3" d="M224.4,63.9l9.8-9.9"/>
<path class="st3" d="M241,63.9l9.8-9.9"/>
<path class="st3" d="M257.3,63.9l9.8-9.9"/>
<path class="st3" d="M273.7,63.9l9.8-9.9"/>
<path class="st3" d="M175,80.4l9.8-9.9"/>
<path class="st3" d="M191.5,80.4l9.8-9.9"/>
<path class="st3" d="M207.9,80.4l9.8-9.9"/>
<path class="st3" d="M224.4,80.4l9.8-9.9"/>
<path class="st3" d="M241,80.4l9.8-9.9"/>
<path class="st3" d="M257.3,80.4l9.8-9.9"/>
<path class="st3" d="M273.7,80.4l9.8-9.9"/>
<path class="st3" d="M175,96.2l9.8-9.9"/>
<path class="st3" d="M191.5,96.2l9.8-9.9"/>
<path class="st3" d="M207.9,96.2l9.8-9.9"/>
<path class="st3" d="M224.4,96.2l9.8-9.9"/>
</svg>
