<?xml version="1.0" encoding="utf-8"?>
<!-- Generator: Adobe Illustrator 25.1.0, SVG Export Plug-In . SVG Version: 6.00 Build 0)  -->
<svg version="1.1" id="Layer_1" xmlns="http://www.w3.org/2000/svg" xmlns:xlink="http://www.w3.org/1999/xlink" x="0px" y="0px"
	 viewBox="0 0 354.7 180.5" style="enable-background:new 0 0 354.7 180.5;" xml:space="preserve">
<style type="text/css">
	.st0{fill:#FFFFFF;}
	.st1{fill:#00CDDC;}
	.st2{fill:#808080;}
	.st3{fill-rule:evenodd;clip-rule:evenodd;fill:#FFFFFF;}
	.st4{fill:#32DCD2;}
	.st5{fill:#EEF1F2;}
	.st6{fill:#F4F1EF;}
	.st7{fill-rule:evenodd;clip-rule:evenodd;fill:#32DCD2;}
	.st8{fill-rule:evenodd;clip-rule:evenodd;fill:#00CDDC;}
</style>
<g>
	<g>
		<path class="st0" d="M341.8,121.2C359,89,385-32.2,224.8,8.1C171.7,21.4,26.4-27.6,11.9,38.7C-2.4,104.9-19,130.8,61.7,169
			c52.7,24.9,127.7,1.4,170.8,2.1C326.6,172.6,324.6,153.4,341.8,121.2z"/>
		<path class="st0" d="M216.9,33.7c0.9,0,1.7-0.8,1.7-1.7s-0.8-1.7-1.7-1.7s-1.7,0.8-1.7,1.7S216,33.7,216.9,33.7z"/>
		<path class="st0" d="M332.9,106.7c0.9,0,1.7-0.8,1.7-1.7s-0.8-1.7-1.7-1.7c-0.9,0-1.7,0.8-1.7,1.7S332,106.7,332.9,106.7z"/>
		<path class="st1" d="M307.2,146.5c0.8,0,1.5-0.7,1.5-1.5s-0.7-1.5-1.5-1.5s-1.5,0.7-1.5,1.5S306.4,146.5,307.2,146.5z"/>
		<path class="st2" d="M43.7,33.6V22.4h3.6c0.9,0,1.6,0.1,2.1,0.4s1,0.7,1.2,1.2c0.3,0.5,0.4,1.1,0.4,1.7c0,0.7-0.2,1.3-0.6,1.9
			c-0.4,0.6-1,1-1.8,1.2l2.4,4.8h-1.6L47.1,29H47h-2.2v4.6L43.7,33.6L43.7,33.6z M45.1,27.9h2.2c0.9,0,1.5-0.2,1.9-0.6
			s0.6-0.9,0.6-1.6s-0.2-1.2-0.6-1.6c-0.4-0.4-1-0.6-1.9-0.6h-2.2V27.9L45.1,27.9z"/>
		<path class="st2" d="M56.2,33.8c-0.8,0-1.4-0.2-2-0.5c-0.6-0.4-1.1-0.8-1.4-1.4c-0.3-0.6-0.5-1.4-0.5-2.2s0.2-1.6,0.5-2.2
			s0.8-1.1,1.4-1.5c0.6-0.4,1.3-0.5,2.1-0.5s1.4,0.2,2,0.5c0.6,0.4,1,0.8,1.3,1.4s0.5,1.2,0.5,1.8c0,0.1,0,0.2,0,0.4s0,0.2,0,0.4
			h-6.3c0,0.6,0.2,1.1,0.4,1.5s0.6,0.7,0.9,0.9c0.4,0.2,0.8,0.3,1.2,0.3c0.6,0,1-0.1,1.4-0.4s0.7-0.6,0.8-1h1.3
			c-0.2,0.7-0.6,1.4-1.2,1.8C57.9,33.6,57.2,33.8,56.2,33.8z M56.2,26.6c-0.6,0-1.2,0.2-1.7,0.6s-0.8,1-0.9,1.7h5
			c0-0.7-0.3-1.3-0.7-1.7C57.5,26.8,56.9,26.6,56.2,26.6z"/>
		<path class="st2" d="M64.8,33.8c-0.9,0-1.7-0.2-2.4-0.7c-0.6-0.5-1-1.1-1.1-2h1.4c0.1,0.4,0.3,0.8,0.7,1.1s0.8,0.5,1.5,0.5
			c0.6,0,1-0.1,1.2-0.4c0.3-0.2,0.4-0.5,0.4-0.9c0-0.5-0.2-0.8-0.5-1s-0.8-0.3-1.5-0.4c-0.4-0.1-0.8-0.2-1.3-0.4s-0.8-0.4-1.1-0.7
			s-0.4-0.7-0.4-1.2c0-0.7,0.3-1.3,0.8-1.7s1.2-0.7,2.1-0.7c0.8,0,1.5,0.2,2.1,0.6c0.5,0.4,0.8,1,0.9,1.8h-1.3c0-0.4-0.2-0.7-0.5-1
			s-0.7-0.3-1.2-0.3s-0.8,0.1-1.1,0.3s-0.4,0.5-0.4,0.8s0.2,0.6,0.5,0.8s0.8,0.3,1.4,0.5c0.5,0.1,1,0.2,1.4,0.4
			c0.4,0.1,0.8,0.4,1.1,0.7c0.3,0.3,0.4,0.7,0.4,1.3c0,0.7-0.3,1.3-0.8,1.8C66.5,33.6,65.7,33.8,64.8,33.8z"/>
		<path class="st2" d="M73.3,33.8c-0.8,0-1.4-0.2-2-0.5s-1.1-0.8-1.4-1.4s-0.5-1.4-0.5-2.2s0.2-1.6,0.5-2.2s0.8-1.1,1.4-1.5
			s1.3-0.5,2.1-0.5c0.8,0,1.4,0.2,2,0.5c0.6,0.4,1,0.8,1.3,1.4s0.5,1.2,0.5,1.8c0,0.1,0,0.2,0,0.4s0,0.2,0,0.4h-6.3
			c0,0.6,0.2,1.1,0.4,1.5s0.6,0.7,0.9,0.9c0.4,0.2,0.8,0.3,1.2,0.3c0.6,0,1-0.1,1.4-0.4s0.6-0.6,0.8-1h1.3c-0.2,0.7-0.6,1.4-1.2,1.8
			C75,33.6,74.3,33.8,73.3,33.8z M73.3,26.6c-0.6,0-1.2,0.2-1.7,0.6s-0.8,1-0.9,1.7h5c0-0.7-0.3-1.3-0.7-1.7
			C74.6,26.8,74,26.6,73.3,26.6z"/>
		<path class="st2" d="M81.5,33.8c-0.7,0-1.2-0.1-1.6-0.3s-0.8-0.5-1-0.9s-0.3-0.8-0.3-1.2c0-0.8,0.3-1.4,0.9-1.9s1.5-0.7,2.5-0.7
			h2.1v-0.1c0-0.7-0.2-1.2-0.5-1.6s-0.8-0.5-1.5-0.5c-0.5,0-1,0.1-1.3,0.4c-0.4,0.3-0.6,0.6-0.7,1.1h-1.4c0-0.6,0.2-1.1,0.6-1.5
			c0.3-0.4,0.8-0.7,1.3-0.9s1-0.3,1.6-0.3c1.1,0,1.9,0.3,2.5,0.9s0.8,1.4,0.8,2.4v4.9h-1.2l-0.1-1.4c-0.2,0.5-0.6,0.8-1,1.1
			C82.8,33.7,82.2,33.8,81.5,33.8z M81.7,32.7c0.5,0,0.9-0.1,1.3-0.4s0.6-0.6,0.8-1s0.3-0.9,0.3-1.3l0,0h-2c-0.8,0-1.3,0.1-1.7,0.4
			c-0.3,0.3-0.5,0.6-0.5,1s0.2,0.8,0.5,1C80.7,32.6,81.1,32.7,81.7,32.7z"/>
		<path class="st2" d="M87.5,33.6v-7.9h1.2l0.1,1.5c0.2-0.5,0.6-0.9,1.1-1.2s1.1-0.5,1.9-0.5v1.4h-0.4c-0.5,0-0.9,0.1-1.3,0.2
			c-0.4,0.2-0.7,0.4-0.9,0.8c-0.2,0.4-0.4,0.9-0.4,1.6v4L87.5,33.6L87.5,33.6L87.5,33.6z"/>
		<path class="st2" d="M96.7,33.8c-0.8,0-1.4-0.2-2-0.5c-0.6-0.4-1.1-0.8-1.4-1.5c-0.3-0.6-0.5-1.4-0.5-2.2s0.2-1.6,0.5-2.2
			c0.4-0.6,0.8-1.1,1.4-1.5s1.3-0.5,2-0.5c0.9,0,1.7,0.2,2.4,0.7s1,1.1,1.2,2h-1.4c-0.1-0.5-0.4-0.9-0.8-1.1
			c-0.4-0.3-0.9-0.4-1.5-0.4c-0.4,0-0.9,0.1-1.3,0.3s-0.7,0.6-1,1c-0.2,0.5-0.4,1-0.4,1.7s0.1,1.2,0.4,1.7c0.2,0.5,0.6,0.8,1,1
			s0.8,0.3,1.3,0.3c0.6,0,1-0.1,1.5-0.4c0.4-0.3,0.7-0.7,0.8-1.2h1.4c-0.2,0.8-0.6,1.5-1.2,2S97.6,33.8,96.7,33.8z"/>
		<path class="st2" d="M102.1,33.6V22.1h1.3V27c0.3-0.5,0.7-0.9,1.1-1.1c0.5-0.3,1-0.4,1.6-0.4c0.9,0,1.7,0.3,2.2,0.9
			c0.6,0.6,0.8,1.5,0.8,2.6v4.6h-1.3v-4.5c0-1.7-0.7-2.5-2-2.5c-0.7,0-1.3,0.2-1.7,0.7c-0.5,0.5-0.7,1.2-0.7,2.1v4.1L102.1,33.6
			L102.1,33.6z"/>
		<path class="st2" d="M46.7,53.8c-1,0-1.7-0.2-2.4-0.7c-0.6-0.5-1-1.1-1.1-2h1.4c0.1,0.4,0.3,0.8,0.7,1.1s0.8,0.5,1.5,0.5
			c0.6,0,1-0.1,1.2-0.4c0.3-0.2,0.4-0.5,0.4-0.9c0-0.5-0.2-0.8-0.5-1s-0.8-0.3-1.5-0.4c-0.4-0.1-0.8-0.2-1.3-0.4s-0.8-0.4-1.1-0.7
			s-0.4-0.7-0.4-1.2c0-0.7,0.3-1.3,0.8-1.7s1.2-0.7,2.1-0.7c0.8,0,1.5,0.2,2.1,0.6c0.5,0.4,0.8,1,0.9,1.8h-1.3c0-0.4-0.2-0.7-0.5-1
			c-0.3-0.2-0.7-0.3-1.2-0.3s-0.9,0.1-1.1,0.3c-0.3,0.2-0.4,0.5-0.4,0.8s0.2,0.6,0.5,0.8s0.8,0.3,1.4,0.5c0.5,0.1,1,0.2,1.4,0.4
			c0.4,0.1,0.8,0.4,1.1,0.7s0.4,0.7,0.4,1.3c0,0.7-0.3,1.3-0.8,1.8C48.4,53.6,47.6,53.8,46.7,53.8z"/>
		<path class="st2" d="M54.5,53.8c-0.9,0-1.7-0.3-2.2-0.9s-0.8-1.5-0.8-2.6v-4.6h1.3v4.5c0,1.6,0.7,2.5,2,2.5c0.7,0,1.3-0.2,1.7-0.7
			s0.7-1.2,0.7-2.1v-4.1h1.3v7.9h-1.2l-0.1-1.4c-0.2,0.5-0.6,0.9-1.1,1.2C55.7,53.7,55.1,53.8,54.5,53.8z"/>
		<path class="st2" d="M63.9,51.1c-0.4,0-0.9-0.1-1.2-0.2l-0.8,0.8c0.1,0.1,0.3,0.2,0.4,0.2s0.4,0.1,0.8,0.2
			c0.3,0.1,0.8,0.1,1.4,0.1c1.1,0.1,1.8,0.3,2.3,0.7s0.7,1,0.7,1.6c0,0.5-0.1,0.9-0.4,1.3c-0.2,0.4-0.6,0.8-1.2,1
			c-0.5,0.3-1.2,0.4-2,0.4c-0.7,0-1.3-0.1-1.9-0.3s-1-0.5-1.3-0.9s-0.5-0.9-0.5-1.4c0-0.3,0.1-0.6,0.2-1c0.2-0.4,0.5-0.7,0.9-1
			c-0.2-0.1-0.4-0.2-0.6-0.3c-0.2-0.1-0.3-0.2-0.5-0.4v-0.4l1.4-1.3c-0.6-0.5-0.9-1.2-0.9-2.1c0-0.5,0.1-1,0.4-1.4
			c0.2-0.4,0.6-0.8,1.1-1s1-0.4,1.7-0.4c0.5,0,0.9,0.1,1.2,0.2H68v1l-1.5,0.1c0.3,0.4,0.5,1,0.5,1.5s-0.1,1-0.4,1.4
			c-0.2,0.4-0.6,0.8-1.1,1C65.2,51,64.6,51.1,63.9,51.1z M61.6,54.6c0,0.5,0.2,0.9,0.7,1.2s1,0.4,1.7,0.4s1.2-0.1,1.6-0.4
			s0.6-0.7,0.6-1.1c0-0.3-0.1-0.6-0.4-0.9c-0.3-0.2-0.8-0.4-1.5-0.4c-0.6,0-1.1-0.1-1.5-0.2c-0.4,0.2-0.7,0.5-0.9,0.8
			C61.7,54.2,61.6,54.4,61.6,54.6z M63.9,50c0.6,0,1-0.1,1.4-0.4c0.3-0.3,0.5-0.7,0.5-1.3c0-0.5-0.2-1-0.5-1.3s-0.8-0.4-1.4-0.4
			c-0.6,0-1,0.1-1.4,0.4c-0.3,0.3-0.5,0.7-0.5,1.3c0,0.5,0.2,1,0.5,1.3C62.9,49.9,63.3,50,63.9,50z"/>
		<path class="st2" d="M72.8,51.1c-0.4,0-0.9-0.1-1.2-0.2l-0.8,0.8c0.1,0.1,0.3,0.2,0.4,0.2c0.2,0.1,0.4,0.1,0.8,0.2
			c0.3,0.1,0.8,0.1,1.4,0.1c1.1,0.1,1.8,0.3,2.3,0.7s0.7,1,0.7,1.6c0,0.5-0.1,0.9-0.4,1.3c-0.2,0.4-0.6,0.8-1.2,1
			c-0.5,0.3-1.2,0.4-2,0.4c-0.7,0-1.3-0.1-1.9-0.3s-1-0.5-1.3-0.9s-0.5-0.9-0.5-1.4c0-0.3,0.1-0.6,0.2-1c0.2-0.4,0.5-0.7,0.9-1
			c-0.2-0.1-0.4-0.2-0.6-0.3s-0.3-0.2-0.5-0.4v-0.4l1.4-1.3c-0.6-0.5-0.9-1.2-0.9-2.1c0-0.5,0.1-1,0.4-1.4c0.2-0.4,0.6-0.8,1.1-1
			s1-0.4,1.7-0.4c0.5,0,0.9,0.1,1.2,0.2h2.9v1l-1.5,0.1c0.3,0.4,0.5,1,0.5,1.5s-0.1,1-0.4,1.4c-0.2,0.4-0.6,0.8-1.1,1
			C74,51,73.4,51.1,72.8,51.1z M70.4,54.6c0,0.5,0.2,0.9,0.7,1.2s1,0.4,1.7,0.4s1.2-0.1,1.6-0.4s0.6-0.7,0.6-1.1
			c0-0.3-0.1-0.6-0.4-0.9s-0.8-0.4-1.5-0.4c-0.6,0-1.1-0.1-1.5-0.2c-0.4,0.2-0.7,0.5-0.9,0.8C70.5,54.2,70.4,54.4,70.4,54.6z
			 M72.8,50c0.6,0,1-0.1,1.3-0.4s0.5-0.7,0.5-1.3c0-0.5-0.2-1-0.5-1.3s-0.8-0.4-1.3-0.4c-0.6,0-1,0.1-1.4,0.4
			c-0.3,0.3-0.5,0.7-0.5,1.3c0,0.5,0.2,1,0.5,1.3C71.7,49.9,72.2,50,72.8,50z"/>
		<path class="st2" d="M81.7,53.8c-0.8,0-1.4-0.2-2-0.5c-0.6-0.4-1.1-0.8-1.4-1.4s-0.5-1.4-0.5-2.2s0.2-1.6,0.5-2.2s0.8-1.1,1.4-1.5
			s1.3-0.5,2.1-0.5c0.8,0,1.4,0.2,2,0.5c0.6,0.4,1,0.8,1.3,1.4s0.5,1.2,0.5,1.8c0,0.1,0,0.2,0,0.4s0,0.2,0,0.4h-6.3
			c0,0.6,0.2,1.1,0.4,1.5s0.6,0.7,0.9,0.9c0.4,0.2,0.8,0.3,1.2,0.3c0.6,0,1-0.1,1.4-0.4s0.7-0.6,0.8-1h1.3c-0.2,0.7-0.6,1.4-1.2,1.8
			C83.4,53.6,82.6,53.8,81.7,53.8z M81.7,46.6c-0.6,0-1.2,0.2-1.7,0.6s-0.8,1-0.9,1.7h5c0-0.7-0.3-1.3-0.7-1.7
			C82.9,46.8,82.4,46.6,81.7,46.6z"/>
		<path class="st2" d="M90.3,53.8c-0.9,0-1.7-0.2-2.4-0.7c-0.6-0.5-1-1.1-1.1-2h1.4c0.1,0.4,0.3,0.8,0.7,1.1
			c0.4,0.3,0.8,0.5,1.5,0.5c0.6,0,1-0.1,1.2-0.4c0.3-0.2,0.4-0.5,0.4-0.9c0-0.5-0.2-0.8-0.5-1S90.7,50.1,90,50
			c-0.4-0.1-0.8-0.2-1.3-0.4s-0.8-0.4-1.1-0.7s-0.4-0.7-0.4-1.2c0-0.7,0.3-1.3,0.8-1.7s1.2-0.7,2.1-0.7c0.8,0,1.5,0.2,2.1,0.6
			c0.5,0.4,0.9,1,0.9,1.8h-1.3c0-0.4-0.2-0.7-0.5-1s-0.7-0.3-1.2-0.3s-0.8,0.1-1.1,0.3c-0.3,0.2-0.4,0.5-0.4,0.8s0.2,0.6,0.5,0.8
			s0.8,0.3,1.4,0.5c0.5,0.1,1,0.2,1.4,0.4c0.4,0.1,0.8,0.4,1.1,0.7c0.3,0.3,0.4,0.7,0.4,1.3c0,0.7-0.3,1.3-0.8,1.8
			C91.9,53.6,91.2,53.8,90.3,53.8z"/>
		<path class="st2" d="M98,53.6c-0.7,0-1.3-0.2-1.7-0.5c-0.4-0.4-0.6-1-0.6-1.9v-4.4h-1.4v-1.1h1.4l0.2-1.9h1.2v1.9h2.3v1.1H97v4.4
			c0,0.5,0.1,0.8,0.3,1c0.2,0.2,0.6,0.3,1.1,0.3h0.8v1.2H98V53.6z"/>
		<path class="st2" d="M104.1,53.8c-0.9,0-1.7-0.2-2.4-0.7c-0.6-0.5-1-1.1-1.1-2h1.4c0.1,0.4,0.3,0.8,0.7,1.1
			c0.4,0.3,0.8,0.5,1.4,0.5s1-0.1,1.2-0.4c0.3-0.2,0.4-0.5,0.4-0.9c0-0.5-0.2-0.8-0.5-1s-0.8-0.3-1.5-0.4c-0.4-0.1-0.9-0.2-1.3-0.4
			s-0.8-0.4-1.1-0.7c-0.3-0.3-0.4-0.7-0.4-1.2c0-0.7,0.3-1.3,0.8-1.7s1.2-0.7,2.1-0.7c0.8,0,1.5,0.2,2.1,0.6c0.5,0.4,0.8,1,0.9,1.8
			h-1.3c-0.1-0.4-0.2-0.7-0.5-1s-0.7-0.3-1.2-0.3s-0.8,0.1-1.1,0.3c-0.3,0.2-0.4,0.5-0.4,0.8s0.2,0.6,0.5,0.8s0.8,0.3,1.4,0.5
			c0.5,0.1,1,0.2,1.4,0.4c0.4,0.1,0.8,0.4,1.1,0.7c0.3,0.3,0.4,0.7,0.4,1.3c0,0.7-0.3,1.3-0.8,1.8C105.8,53.6,105.1,53.8,104.1,53.8
			z"/>
		<path class="st2" d="M113.3,53.6v-7.9h1.2l0.1,1.1c0.3-0.4,0.6-0.8,1-1s0.9-0.4,1.4-0.4c0.6,0,1.2,0.1,1.6,0.4
			c0.4,0.3,0.8,0.6,1,1.2c0.3-0.5,0.7-0.9,1.1-1.1c0.5-0.3,1-0.4,1.6-0.4c0.9,0,1.7,0.3,2.3,0.9s0.9,1.4,0.9,2.6v4.6h-1.3v-4.5
			c0-0.8-0.2-1.4-0.5-1.9c-0.3-0.4-0.8-0.6-1.4-0.6s-1.2,0.2-1.6,0.7s-0.6,1.2-0.6,2.1v4.1h-1.3V49c0-0.8-0.2-1.4-0.5-1.9
			c-0.3-0.4-0.8-0.6-1.4-0.6s-1.2,0.2-1.6,0.7s-0.6,1.2-0.6,2.1v4.1L113.3,53.6L113.3,53.6z"/>
		<path class="st2" d="M131.2,53.8c-0.8,0-1.4-0.2-2-0.5s-1.1-0.8-1.4-1.5c-0.3-0.6-0.5-1.4-0.5-2.2s0.2-1.6,0.5-2.2
			c0.3-0.6,0.8-1.1,1.4-1.5c0.6-0.3,1.3-0.5,2-0.5c0.8,0,1.4,0.2,2,0.5s1.1,0.8,1.4,1.5c0.3,0.6,0.5,1.4,0.5,2.2s-0.2,1.6-0.5,2.2
			s-0.8,1.1-1.4,1.5C132.7,53.6,132,53.8,131.2,53.8z M131.2,52.7c0.5,0,0.9-0.1,1.3-0.3c0.4-0.2,0.7-0.6,1-1c0.2-0.5,0.4-1,0.4-1.7
			s-0.1-1.2-0.4-1.7s-0.6-0.8-0.9-1c-0.4-0.2-0.8-0.3-1.3-0.3s-0.9,0.1-1.3,0.3c-0.4,0.2-0.7,0.6-1,1c-0.2,0.4-0.4,1-0.4,1.7
			s0.1,1.2,0.4,1.7c0.2,0.4,0.6,0.8,0.9,1C130.4,52.5,130.8,52.7,131.2,52.7z"/>
		<path class="st2" d="M140.1,53.8c-0.9,0-1.7-0.2-2.4-0.7c-0.6-0.5-1-1.1-1.1-2h1.4c0.1,0.4,0.3,0.8,0.7,1.1s0.8,0.5,1.4,0.5
			c0.6,0,1-0.1,1.2-0.4c0.3-0.2,0.4-0.5,0.4-0.9c0-0.5-0.2-0.8-0.5-1s-0.8-0.3-1.5-0.4c-0.4-0.1-0.9-0.2-1.3-0.4
			c-0.4-0.2-0.8-0.4-1.1-0.7s-0.4-0.7-0.4-1.2c0-0.7,0.3-1.3,0.8-1.7s1.2-0.7,2.1-0.7c0.8,0,1.5,0.2,2.1,0.6c0.5,0.4,0.9,1,0.9,1.8
			h-1.3c-0.1-0.4-0.2-0.7-0.5-1c-0.3-0.2-0.7-0.3-1.2-0.3s-0.9,0.1-1.1,0.3c-0.3,0.2-0.4,0.5-0.4,0.8s0.2,0.6,0.5,0.8
			s0.8,0.3,1.4,0.5c0.5,0.1,1,0.2,1.4,0.4c0.4,0.1,0.8,0.4,1.1,0.7s0.4,0.7,0.4,1.3c0,0.7-0.3,1.3-0.8,1.8
			C141.8,53.6,141.1,53.8,140.1,53.8z"/>
		<path class="st2" d="M147.9,53.6c-0.7,0-1.3-0.2-1.7-0.5c-0.4-0.4-0.6-1-0.6-1.9v-4.4h-1.4v-1.1h1.4l0.2-1.9h1.2v1.9h2.3v1.1H147
			v4.4c0,0.5,0.1,0.8,0.3,1s0.6,0.3,1.1,0.3h0.8v1.2h-1.3L147.9,53.6L147.9,53.6z"/>
		<path class="st2" d="M46.5,73.8c-0.9,0-1.7-0.3-2.2-0.9s-0.8-1.5-0.8-2.6v-4.6h1.3v4.5c0,1.6,0.7,2.5,2,2.5c0.7,0,1.3-0.2,1.7-0.7
			c0.5-0.5,0.7-1.2,0.7-2.1v-4.1h1.3v7.9h-1.2l-0.1-1.4c-0.2,0.5-0.6,0.9-1.1,1.2C47.7,73.7,47.1,73.8,46.5,73.8z"/>
		<path class="st2" d="M52.8,73.6v-7.9H54l0.1,1.4c0.3-0.5,0.6-0.9,1.1-1.2c0.5-0.3,1-0.4,1.6-0.4c0.9,0,1.7,0.3,2.2,0.9
			c0.6,0.6,0.8,1.5,0.8,2.6v4.6h-1.3v-4.5c0-1.7-0.7-2.5-2-2.5c-0.7,0-1.2,0.2-1.7,0.7c-0.4,0.5-0.7,1.2-0.7,2.1v4.1L52.8,73.6
			L52.8,73.6z"/>
		<path class="st2" d="M62.8,63.9c-0.3,0-0.5-0.1-0.7-0.3c-0.2-0.2-0.3-0.4-0.3-0.7c0-0.3,0.1-0.5,0.3-0.6c0.2-0.2,0.4-0.3,0.7-0.3
			s0.5,0.1,0.7,0.3c0.2,0.2,0.3,0.4,0.3,0.6c0,0.3-0.1,0.5-0.3,0.7C63.2,63.8,63,63.9,62.8,63.9z M62.1,73.6v-7.9h1.3v7.9H62.1z"/>
		<path class="st2" d="M73,73.8c-0.9,0-1.7-0.2-2.4-0.7c-0.6-0.5-1-1.1-1.1-2H71c0.1,0.4,0.3,0.8,0.7,1.1c0.4,0.3,0.8,0.5,1.4,0.5
			s1-0.1,1.2-0.4c0.3-0.2,0.4-0.5,0.4-0.9c0-0.5-0.2-0.8-0.5-1s-0.8-0.3-1.5-0.4c-0.4-0.1-0.9-0.2-1.3-0.4c-0.4-0.2-0.8-0.4-1.1-0.7
			c-0.3-0.3-0.4-0.7-0.4-1.2c0-0.7,0.3-1.3,0.8-1.7c0.5-0.4,1.2-0.7,2.1-0.7c0.8,0,1.5,0.2,2.1,0.6c0.5,0.4,0.8,1,0.9,1.8h-1.3
			c0-0.4-0.2-0.7-0.5-1s-0.7-0.3-1.2-0.3s-0.8,0.1-1.1,0.3c-0.3,0.2-0.4,0.5-0.4,0.8s0.2,0.6,0.5,0.8c0.3,0.2,0.8,0.3,1.4,0.5
			c0.5,0.1,1,0.2,1.4,0.4c0.4,0.1,0.8,0.4,1.1,0.7c0.3,0.3,0.4,0.7,0.4,1.3c0,0.7-0.3,1.3-0.8,1.8C74.7,73.6,74,73.8,73,73.8z"/>
		<path class="st2" d="M80.8,73.6c-0.7,0-1.3-0.2-1.7-0.5c-0.4-0.4-0.6-1-0.6-1.9v-4.4h-1.4v-1.1h1.4l0.2-1.9h1.2v1.9h2.3v1.1h-2.3
			v4.4c0,0.5,0.1,0.8,0.3,1c0.2,0.2,0.6,0.3,1.1,0.3H82v1.2h-1.2V73.6z"/>
		<path class="st2" d="M86.7,73.8c-0.9,0-1.7-0.3-2.2-0.9s-0.8-1.5-0.8-2.6v-4.6H85v4.5c0,1.6,0.7,2.5,2,2.5c0.7,0,1.3-0.2,1.7-0.7
			c0.4-0.5,0.7-1.2,0.7-2.1v-4.1h1.3v7.9h-1.2l-0.1-1.4c-0.2,0.5-0.6,0.9-1.1,1.2C87.9,73.7,87.3,73.8,86.7,73.8z"/>
		<path class="st2" d="M96.6,73.8c-0.8,0-1.5-0.2-2.1-0.5c-0.6-0.4-1-0.9-1.4-1.5c-0.3-0.6-0.5-1.3-0.5-2.1s0.2-1.5,0.5-2.1
			s0.8-1.1,1.4-1.5s1.3-0.5,2.1-0.5c0.7,0,1.2,0.1,1.7,0.4s0.9,0.6,1.2,1.1v-4.9h1.3v11.5h-1.2l-0.1-1.3c-0.3,0.4-0.6,0.7-1.1,1
			S97.3,73.8,96.6,73.8z M96.7,72.6c0.5,0,1-0.1,1.4-0.4c0.4-0.2,0.7-0.6,1-1c0.2-0.5,0.3-1,0.3-1.6s-0.1-1.1-0.3-1.6
			c-0.2-0.4-0.6-0.8-1-1s-0.9-0.4-1.4-0.4s-1,0.1-1.4,0.4c-0.4,0.2-0.7,0.6-1,1c-0.2,0.5-0.3,1-0.3,1.6s0.1,1.1,0.3,1.6
			c0.2,0.4,0.6,0.8,1,1C95.8,72.5,96.2,72.6,96.7,72.6z"/>
		<path class="st2" d="M106.6,73.8c-0.8,0-1.4-0.2-2-0.5c-0.6-0.4-1-0.8-1.4-1.4c-0.3-0.6-0.5-1.4-0.5-2.2c0-0.8,0.2-1.6,0.5-2.2
			s0.8-1.1,1.4-1.5s1.3-0.5,2.1-0.5c0.8,0,1.4,0.2,2,0.5s1,0.8,1.3,1.4s0.4,1.2,0.4,1.8c0,0.1,0,0.2,0,0.4c0,0.1,0,0.2,0,0.4H104
			c0,0.6,0.2,1.1,0.4,1.5s0.6,0.7,0.9,0.9c0.4,0.2,0.8,0.3,1.2,0.3c0.6,0,1-0.1,1.4-0.4s0.7-0.6,0.8-1h1.3c-0.2,0.7-0.6,1.4-1.2,1.8
			C108.3,73.6,107.6,73.8,106.6,73.8z M106.6,66.6c-0.6,0-1.2,0.2-1.7,0.6s-0.8,1-0.9,1.7h5c0-0.7-0.3-1.3-0.7-1.7
			C107.8,66.8,107.3,66.6,106.6,66.6z"/>
		<path class="st2" d="M112.1,73.6v-7.9h1.2l0.1,1.4c0.3-0.5,0.6-0.9,1.1-1.2c0.5-0.3,1-0.4,1.6-0.4c0.9,0,1.7,0.3,2.2,0.9
			c0.6,0.6,0.8,1.5,0.8,2.6v4.6h-1.3v-4.5c0-1.7-0.7-2.5-2-2.5c-0.7,0-1.2,0.2-1.7,0.7c-0.4,0.5-0.7,1.2-0.7,2.1v4.1L112.1,73.6
			L112.1,73.6z"/>
		<path class="st2" d="M124.4,73.6c-0.7,0-1.3-0.2-1.7-0.5c-0.4-0.4-0.6-1-0.6-1.9v-4.4h-1.4v-1.1h1.4l0.2-1.9h1.2v1.9h2.3v1.1h-2.3
			v4.4c0,0.5,0.1,0.8,0.3,1s0.6,0.3,1.1,0.3h0.8v1.2h-1.3V73.6z"/>
		<path class="st2" d="M130.5,73.8c-0.9,0-1.7-0.2-2.4-0.7c-0.6-0.5-1-1.1-1.1-2h1.4c0.1,0.4,0.3,0.8,0.7,1.1
			c0.4,0.3,0.8,0.5,1.4,0.5c0.6,0,1-0.1,1.2-0.4c0.3-0.2,0.4-0.5,0.4-0.9c0-0.5-0.2-0.8-0.5-1s-0.8-0.3-1.5-0.4
			c-0.4-0.1-0.9-0.2-1.3-0.4c-0.4-0.2-0.8-0.4-1.1-0.7c-0.3-0.3-0.4-0.7-0.4-1.2c0-0.7,0.3-1.3,0.8-1.7s1.2-0.7,2.1-0.7
			c0.8,0,1.5,0.2,2.1,0.6c0.5,0.4,0.9,1,0.9,1.8H132c-0.1-0.4-0.2-0.7-0.5-1c-0.3-0.2-0.7-0.3-1.2-0.3s-0.9,0.1-1.1,0.3
			c-0.3,0.2-0.4,0.5-0.4,0.8s0.2,0.6,0.5,0.8c0.3,0.2,0.8,0.3,1.4,0.5c0.5,0.1,1,0.2,1.4,0.4c0.4,0.1,0.8,0.4,1.1,0.7
			c0.3,0.3,0.4,0.7,0.4,1.3c0,0.7-0.3,1.3-0.8,1.8C132.2,73.6,131.5,73.8,130.5,73.8z"/>
		<path class="st2" d="M143.3,73.8c-0.8,0-1.4-0.2-2-0.5s-1.1-0.8-1.4-1.5c-0.3-0.6-0.5-1.4-0.5-2.2s0.2-1.6,0.5-2.2
			s0.8-1.1,1.4-1.5c0.6-0.3,1.3-0.5,2-0.5c0.8,0,1.4,0.2,2,0.5s1.1,0.8,1.4,1.5c0.3,0.6,0.5,1.4,0.5,2.2s-0.2,1.6-0.5,2.2
			s-0.8,1.1-1.4,1.5S144.1,73.8,143.3,73.8z M143.3,72.7c0.5,0,0.9-0.1,1.3-0.3c0.4-0.2,0.7-0.6,1-1c0.2-0.5,0.4-1,0.4-1.7
			s-0.1-1.2-0.4-1.7c-0.2-0.4-0.6-0.8-0.9-1c-0.4-0.2-0.8-0.3-1.3-0.3s-0.9,0.1-1.3,0.3c-0.4,0.2-0.7,0.6-1,1
			c-0.2,0.4-0.4,1-0.4,1.7s0.1,1.2,0.4,1.7c0.2,0.4,0.6,0.8,0.9,1C142.5,72.5,142.9,72.7,143.3,72.7z"/>
		<path class="st2" d="M149.2,73.6v-7.9h1.2l0.1,1.4c0.3-0.5,0.6-0.9,1.1-1.2c0.5-0.3,1-0.4,1.6-0.4c0.9,0,1.7,0.3,2.2,0.9
			c0.6,0.6,0.8,1.5,0.8,2.6v4.6H155v-4.5c0-1.7-0.7-2.5-2.1-2.5c-0.7,0-1.2,0.2-1.7,0.7c-0.4,0.5-0.7,1.2-0.7,2.1v4.1L149.2,73.6
			L149.2,73.6z"/>
		<path class="st2" d="M158.4,73.6V62.1h1.3v11.5H158.4z"/>
		<path class="st2" d="M162.8,77.2l2-4.3h-0.5l-3.1-7.2h1.5l2.6,6.2l2.8-6.2h1.4l-5.2,11.5H162.8z"/>
		<path class="st2" d="M178.2,71.1c-0.4,0-0.9-0.1-1.2-0.2l-0.8,0.8c0.1,0.1,0.3,0.2,0.4,0.2c0.2,0.1,0.4,0.1,0.8,0.2
			c0.3,0.1,0.8,0.1,1.4,0.1c1.1,0.1,1.8,0.3,2.3,0.7c0.5,0.4,0.7,1,0.7,1.6c0,0.5-0.1,0.9-0.4,1.3c-0.2,0.4-0.6,0.8-1.2,1
			c-0.5,0.3-1.2,0.4-2,0.4c-0.7,0-1.4-0.1-1.9-0.3c-0.5-0.2-1-0.5-1.3-0.9s-0.5-0.9-0.5-1.4c0-0.3,0.1-0.6,0.2-1
			c0.2-0.4,0.5-0.7,0.9-1c-0.2-0.1-0.4-0.2-0.6-0.3c-0.2-0.1-0.3-0.2-0.5-0.4v-0.4l1.4-1.3c-0.6-0.5-0.9-1.2-0.9-2.1
			c0-0.5,0.1-1,0.4-1.4c0.2-0.4,0.6-0.8,1.1-1s1-0.4,1.7-0.4c0.5,0,0.9,0.1,1.2,0.2h2.9v1l-1.5,0.1c0.3,0.4,0.5,1,0.5,1.5
			s-0.1,1-0.4,1.4c-0.2,0.4-0.6,0.8-1.1,1C179.4,71,178.9,71.1,178.2,71.1z M175.8,74.6c0,0.5,0.2,0.9,0.7,1.2
			c0.5,0.3,1,0.4,1.7,0.4s1.2-0.1,1.6-0.4s0.6-0.7,0.6-1.1c0-0.3-0.1-0.6-0.4-0.9c-0.3-0.2-0.8-0.4-1.5-0.4c-0.6,0-1.1-0.1-1.5-0.2
			c-0.4,0.2-0.7,0.5-0.9,0.8C175.9,74.2,175.8,74.4,175.8,74.6z M178.2,70c0.6,0,1-0.1,1.4-0.4c0.3-0.3,0.5-0.7,0.5-1.3
			c0-0.5-0.2-1-0.5-1.3s-0.8-0.4-1.4-0.4c-0.6,0-1,0.1-1.4,0.4s-0.5,0.7-0.5,1.3c0,0.5,0.2,1,0.5,1.3S177.6,70,178.2,70z"/>
		<path class="st2" d="M187.1,73.8c-0.8,0-1.4-0.2-2-0.5c-0.6-0.4-1.1-0.8-1.4-1.4c-0.3-0.6-0.5-1.4-0.5-2.2c0-0.8,0.2-1.6,0.5-2.2
			s0.8-1.1,1.4-1.5c0.6-0.4,1.3-0.5,2.1-0.5s1.4,0.2,2,0.5c0.6,0.4,1,0.8,1.3,1.4s0.4,1.2,0.4,1.8c0,0.1,0,0.2,0,0.4
			c0,0.1,0,0.2,0,0.4h-6.3c0,0.6,0.2,1.1,0.4,1.5s0.6,0.7,0.9,0.9c0.4,0.2,0.8,0.3,1.2,0.3c0.6,0,1-0.1,1.4-0.4s0.7-0.6,0.8-1h1.3
			c-0.2,0.7-0.6,1.4-1.2,1.8C188.8,73.6,188.1,73.8,187.1,73.8z M187.1,66.6c-0.6,0-1.2,0.2-1.7,0.6s-0.8,1-0.9,1.7h5
			c0-0.7-0.3-1.3-0.7-1.7C188.4,66.8,187.8,66.6,187.1,66.6z"/>
		<path class="st2" d="M195.5,73.6c-0.7,0-1.3-0.2-1.7-0.5c-0.4-0.4-0.6-1-0.6-1.9v-4.4h-1.4v-1.1h1.4l0.2-1.9h1.2v1.9h2.3v1.1h-2.3
			v4.4c0,0.5,0.1,0.8,0.3,1s0.6,0.3,1.1,0.3h0.8v1.2h-1.3V73.6z"/>
		<path class="st3" d="M24,71.2l0.4,3.1c0,0.4,0.3,0.7,0.6,0.9l2.8,1.5c0.9,0.5,0.8,1.7-0.1,2.2l-2.9,1.3c-0.4,0.2-0.6,0.5-0.7,0.9
			l-0.5,3.1c-0.2,1-1.4,1.3-2.1,0.6l-2.1-2.3c-0.3-0.3-0.7-0.4-1-0.4l-3.1,0.4c-1,0.1-1.7-0.9-1.2-1.8l1.5-2.8
			c0.2-0.3,0.2-0.8,0-1.1L14.2,74c-0.4-0.9,0.3-1.9,1.3-1.7l3.1,0.6c0.4,0.1,0.8,0,1.1-0.3l2.3-2.2C22.7,69.8,23.9,70.2,24,71.2z"/>
		<path class="st3" d="M201.4,93.2l0.3,1.1c0,0.1,0.1,0.2,0.3,0.3l1.1,0.4c0.3,0.1,0.4,0.6,0.1,0.8l-1,0.6c-0.1,0.1-0.2,0.2-0.2,0.3
			l-0.1,1.1c0,0.4-0.4,0.5-0.7,0.3l-0.9-0.7c-0.1-0.1-0.3-0.1-0.4-0.1l-1.1,0.3c-0.3,0.1-0.6-0.2-0.5-0.6l0.4-1c0.1-0.1,0-0.3,0-0.4
			l-0.6-0.9c-0.2-0.3,0-0.7,0.4-0.7l1.1,0.1c0.1,0,0.3-0.1,0.4-0.2l0.7-0.9C200.8,92.8,201.3,92.9,201.4,93.2z"/>
		<path class="st1" d="M67.4,113.3c-0.1-0.5-0.5-2.2-0.1-2.2c1.4,0.1,3.4,0.1,6,0c2.8-0.1,4.8-0.1,6-0.1c0.3,0.1,0.7,1.4,0.8,2.1
			c0.2,1.1,0.2,1.7,0,1.7c-2.1-0.1-11.5,0.1-11.5,0.1S67.8,114.4,67.4,113.3z"/>
		<path class="st1" d="M89.9,89.1c0.3-0.2,0.9-0.2,1.8-0.2c1.4,0,3.4,0.2,6.1,0.5c1.1,0.1,2,0.6,2.9,1.3c0.9,0.8,1.5,1.6,1.7,2.6
			c0.1,0.1,0.1,0.4,0.1,0.9c0,1.1-0.1,2.6-0.4,4.5c-0.8,5.1-1.6,11.1-2.5,17.9c-0.9,6.9-1.3,10.8-1.2,11.7c0,1.5-0.2,2.5-0.7,3
			s-1.3,0.8-2.6,0.8h-0.4c-1.7-0.1-2.8-0.3-3.1-0.8c-0.4-0.6-0.6-1.3-0.6-2.3c0-0.8,0.1-1.6,0.4-2.4c0.1-0.3,0.4-2.1,0.9-5.5
			c0.2-1.4,0.2-2.5,0.2-3.3c0-0.9-0.2-1.5-0.5-1.8s-0.9-0.6-1.8-0.7c-0.9-0.2-1.6-0.6-2-1.2c-0.3-0.6,0-1.3,0.9-2.1
			c0.9-0.8,1.8-1.3,2.6-1.3c0.9,0,1.5-0.2,1.7-0.8c0.2-0.5,0.6-2.5,1-6.2c0.5-3.7,0.7-6.2,0.7-7.7c0-0.1,0-0.2,0-0.4
			c0-0.2,0-0.3,0-0.3c-0.1-0.5-0.3-0.7-0.6-0.9c-0.3-0.1-0.8-0.2-1.7-0.2c-1.4,0-2.6-0.2-3.5-0.7s-1.4-1-1.4-1.6
			C87.9,90.8,88.6,89.9,89.9,89.1z"/>
		<path class="st1" d="M53.4,88.9c0.5-0.2,0.9-0.3,1.3-0.3c0.3,0,0.8,0.1,1.3,0.4c1,0.5,1.5,1.3,1.5,2.7c0,0.2-0.1,0.6-0.2,1.3
			c-1.6,7.9-2.4,12-2.4,12.3s0.7,0.8,2,1.3c2.6,1,4.4,3,5.2,5.9c0.3,1.2,0.5,2.3,0.5,3.4c0,0.8-0.1,2.1-0.2,3.9
			c-0.3,2.5-0.6,4.3-1,5.5c-0.4,1.1-1.2,2.6-2.5,4.5c-0.9,1.5-2,2.4-3.1,2.8c-1,0.3-1.7,0.4-2.1,0.4c-0.6,0-1.4-0.3-2.6-0.8
			c-2.4-1.2-3.8-2.6-4.3-4.4c-0.2-0.7-0.4-1.2-0.6-1.5c-0.4-0.5-0.6-1.9-0.6-4.3c0-1.6,0.1-2.8,0.3-3.7c0.3-1,0.6-3,1-6.1
			c0.4-3,0.7-5,0.9-5.9s0.7-3.8,1.7-8.7c0.6-3.3,1-5.4,1.5-6.4C51.5,90.1,52.2,89.4,53.4,88.9z M54.8,116.8
			c-0.1-2.3-0.3-3.4-0.7-3.4c-0.3,0-0.6,0.8-0.9,2.5c-0.3,1.8-0.5,3.1-0.5,3.9c0,0.5,0.1,1.3,0.3,2.5c0.2,0.8,0.4,1.3,0.6,1.3
			c0.3,0,0.5-0.6,0.8-1.7c0.2-1.2,0.4-2.5,0.4-4.1L54.8,116.8L54.8,116.8z"/>
		<path class="st1" d="M113.1,110.8c0.1-0.2,0.3-0.3,0.7-0.3c0.5,0,1,0.1,1.5,0.5c0.3,0.2,0.5,0.4,0.6,0.6c0.1,0.1,0.1,0.5,0.2,1.1
			c0,4,0.1,6.3,0.1,7s0.2,1,0.4,1h0.1c0.2,0,0.5-0.1,0.8-0.2c0.2-0.1,0.3-0.4,0.4-0.8c0-0.4,0.1-1.5,0.1-3.1c0-2.5,0.1-3.8,0.2-4.1
			c0.2-0.5,0.8-0.7,1.6-0.7c0.3,0,0.6,0.1,0.8,0.2l0.6,0.3l-0.1,4.4c-0.1,1.8-0.1,4.4-0.1,7.7c0,3.7,0.1,6.1,0.2,7.2l0.2,1.9
			l-0.7,0.3c-0.2,0.1-0.4,0.2-0.7,0.2c-0.2,0-0.5-0.1-0.9-0.2c-0.6-0.2-0.9-0.5-1-0.8c-0.1-0.2-0.2-1.8-0.2-4.7
			c-0.1-2.9-0.2-4.4-0.3-4.5c-0.1-0.1-0.4-0.1-0.8,0L116,124l0.1,3.4c0.1,2.4,0.2,3.8,0.4,4.2c0.1,0.3,0.2,0.7,0.2,1
			c0,0.6-0.3,1-0.9,1.1c-0.3,0.1-0.5,0.1-0.6,0.1c-0.8,0-1.4-0.2-1.8-0.7c-0.2-0.2-0.3-0.8-0.3-1.8s-0.1-4.1-0.1-9.3
			C112.9,114.8,113,111.1,113.1,110.8z"/>
		<path class="st1" d="M126.7,110.8l0.8-1h5.2l0.8,0.8c0.5,0.5,0.9,1.2,1.1,2c0.2,0.8,0.4,2.1,0.6,3.8c0.1,0.6,0.1,1.6,0.1,2.8
			c0,2.9-0.3,5.5-0.8,7.8s-1.2,3.9-2.1,4.8c-0.3,0.3-0.7,0.5-1.2,0.7s-1,0.3-1.4,0.3c-0.2,0-0.3,0-0.4-0.1c-0.2-0.1-0.5-0.2-0.9-0.2
			c-0.3,0-0.6-0.2-1-0.7s-0.7-1-0.9-1.7c-0.4-1.1-0.6-2.3-0.8-3.6s-0.2-3.4-0.2-6.3v-2c0-2.6,0.1-4.4,0.2-5.3
			C125.9,112.1,126.2,111.4,126.7,110.8z M130.7,112.8c-0.2-0.5-0.5-0.8-0.6-0.8c-0.2,0-0.4,0.4-0.7,1.3c-0.2,0.7-0.3,2-0.3,3.9
			c0,1.5,0.1,3.1,0.2,4.8c0.1,1.6,0.3,3.1,0.6,4.5c0.2,1.4,0.5,2.1,0.7,2.1c0.1,0,0.3-0.3,0.4-0.9c0.1-0.5,0.3-0.9,0.5-1.3
			c0.1-0.2,0.2-1.4,0.4-3.7c0.1-1.2,0.1-2.3,0.1-3.3C131.7,116.3,131.4,114.1,130.7,112.8z"/>
		<path class="st1" d="M140,108.7c0.3-0.2,0.8-0.4,1.3-0.4c0.6,0,1.1,0.1,1.5,0.5l0.6,0.5v5.1c0.1,6,0.2,10.1,0.6,12.3
			c0.1,0.5,0.2,0.7,0.2,0.7c0.3,0,0.5-0.9,0.6-2.6c0.4-3.6,0.6-7.1,0.6-10.6v-0.9v-0.5c0-1.9,0.2-3,0.7-3.3c0.1-0.1,0.4-0.2,0.8-0.2
			c0.8,0,1.3,0.1,1.6,0.4c0.4,0.4,0.7,1.5,0.7,3.4c0,1.5-0.1,4.4-0.4,8.6c-0.2,3.5-0.6,6-1.1,7.4c-0.6,1.5-1.4,2.4-2.7,2.8
			c-0.5,0.2-0.8,0.2-1,0.2s-0.6-0.1-1.4-0.5c-1.5-0.7-2.4-1.9-2.6-3.5c-0.2-1.4-0.3-5.9-0.5-13.5c0-1.1,0-2.3,0-3.6
			c0-0.9,0-1.4,0.1-1.7C139.8,109.1,139.9,108.9,140,108.7z"/>
		<path class="st1" d="M154.8,109c0.5-0.2,1.1-0.2,1.9-0.2c0.8,0,1.5,0.1,1.8,0.2c0.7,0.3,1.3,0.9,1.7,1.7c0.2,0.4,0.3,1.1,0.5,2.2
			c0.1,1.1,0.2,2,0.2,2.9c0,0.4,0,0.7,0,0.8c-0.1,0.7-0.3,1.5-0.6,2.4s-0.5,1.3-0.6,1.3c-0.2,0-0.3,0.2-0.3,0.6
			c0,0.3,0.1,0.6,0.3,0.9c0.4,0.6,1.1,1.8,1.9,3.6s1.3,2.8,1.3,3.3c0,0.1,0,0.3,0,0.6c0,0.4-0.1,0.7-0.3,1s-0.5,0.5-0.8,0.5
			s-0.5,0-0.8,0c-0.7-0.1-1.1-0.2-1.3-0.3c-0.2-0.1-0.3-0.3-0.3-0.7c0-0.6-0.3-1.4-0.9-2.6c-0.6-1.1-1-1.7-1.3-1.7l0,0
			c-0.1,0.1-0.1,0.4-0.1,0.9c0,0.8,0.1,1.8,0.2,2.8c0.1,0.5,0.1,0.8,0.1,0.9c0,0.9-0.2,1.5-0.6,1.8c-0.2,0.1-0.4,0.1-0.7,0.1
			c-0.9,0-1.5-0.2-1.7-0.6c-0.1-0.2-0.2-2.1-0.3-5.7c0-1.1-0.1-2.4-0.1-3.7c0-1.3,0-2.3,0-2.9s0-1.4-0.1-2.3c-0.1-1-0.2-2-0.3-3.2
			c-0.1-1.3-0.2-2.1-0.2-2.3c0-0.7,0.1-1.1,0.3-1.4C153.9,109.4,154.3,109.2,154.8,109z M157.4,112.1c-0.1-0.2-0.2-0.3-0.5-0.3
			c-0.2,0-0.3,0.1-0.4,0.3c-0.1,0.2-0.1,0.4,0,0.5c0,0,0.1,0.9,0.2,2.7c0.1,1.8,0.2,2.7,0.3,2.8c0.1,0.1,0.2-0.1,0.4-0.3
			c0.2-0.2,0.2-0.7,0.2-1.4c0-0.5,0-1,0-1.4C157.6,113.4,157.5,112.4,157.4,112.1z"/>
		<path class="st1" d="M170.6,109.8c0.3-0.2,0.7-0.2,1.2-0.2c0.3,0,0.6,0,0.8,0c0.8,0.1,1.4,0.2,1.7,0.3c0.3,0.1,0.6,0.4,0.8,0.8
			c0.3,0.4,0.4,0.9,0.4,1.3c0,0.5-0.2,0.9-0.6,1.3c-0.3,0.3-0.7,0.5-1,0.5c-0.4,0-0.7-0.2-1.1-0.7c-0.2-0.4-0.5-0.5-0.8-0.5
			c-0.2,0-0.5,0.2-0.7,0.5s-0.4,0.7-0.4,1.2v0.2c0,1.5,1.2,4.4,3.5,8.5c0.4,0.7,0.8,1.9,1.1,3.7c0,0.1,0,0.3,0,0.6
			c0,1.5-0.3,2.7-1,3.6c-0.3,0.4-0.7,0.7-1.4,1s-1.2,0.4-1.7,0.4c-0.1,0-0.1,0-0.2,0c-0.1,0-0.1,0-0.2,0c-0.6-0.1-1.4-0.6-2.3-1.4
			c-0.9-0.9-1.4-1.5-1.4-2c0-0.2,0.2-0.5,0.5-0.8s0.6-0.5,0.9-0.5c0.1,0,0.1,0,0.3,0c0.3,0,0.8,0.5,1.5,1.3c0.2,0.4,0.5,0.6,0.8,0.6
			s0.5-0.2,0.6-0.5c0.1-0.1,0.1-0.3,0.1-0.6c0-1.6-0.7-4-2.2-7.1c-1.3-2.9-2-5.1-2-6.5c0-0.6,0.1-1.2,0.3-1.7
			c0.4-1.1,0.8-1.8,1.1-2.2C169.5,110.4,170,110.1,170.6,109.8z"/>
		<path class="st1" d="M180.1,128c0.3-0.3,0.6-0.5,0.9-0.5c0.1,0,0.3,0,0.6,0.1c1.1,0.2,1.7,0.7,1.7,1.3c0,0.5-0.3,1-1.1,1.4
			c-0.6,0.4-1,0.6-1.4,0.6c-0.6,0-1-0.5-1.1-1.4c0-0.2,0-0.4,0-0.6C179.7,128.5,179.9,128.2,180.1,128z"/>
		<path class="st4" d="M183.5,50.9c0.9,0,1.7-0.8,1.7-1.7s-0.8-1.7-1.7-1.7s-1.7,0.8-1.7,1.7C181.8,50.2,182.6,50.9,183.5,50.9z"/>
		<path class="st4" d="M310.2,15.5c0.8,0,1.5-0.7,1.5-1.5s-0.7-1.5-1.5-1.5s-1.5,0.7-1.5,1.5S309.4,15.5,310.2,15.5z"/>
		<path class="st5" d="M236.1,133.4c13.4,0,24.3-10.9,24.3-24.3s-10.9-24.3-24.3-24.3s-24.3,10.9-24.3,24.3S222.7,133.4,236.1,133.4
			z"/>
		<path class="st5" d="M262.1,122.3c18.8,0,34-15.2,34-34s-15.2-34-34-34s-34,15.2-34,34S243.3,122.3,262.1,122.3z"/>
		<path class="st5" d="M280.6,92c19.4,0,35.1-15.7,35.1-35.1S300,21.8,280.6,21.8s-35.1,15.7-35.1,35.1S261.2,92,280.6,92z"/>
		<path class="st5" d="M286,108.4c18.8,0,34-15.2,34-34s-15.2-34-34-34s-34,15.2-34,34C252,93.2,267.2,108.4,286,108.4z"/>
		<path class="st5" d="M310.6,77.1c10,0,18.1-8.1,18.1-18.1s-8.1-18.1-18.1-18.1S292.5,49,292.5,59S300.6,77.1,310.6,77.1z"/>
		<path class="st6" d="M259.9,109.6c18.8,0,34-15.2,34-34s-15.2-34-34-34s-34,15.2-34,34C226,94.4,241.2,109.6,259.9,109.6z"/>
		<path class="st4" d="M245.7,109.8c2.1-0.7,4.1-1.4,6.1-2c1-0.3,2.1-0.6,3.1-0.6c0.6,0,1.4,0.5,1.6,1s-0.1,1.3-0.5,1.8
			c-0.4,0.5-1,0.8-1.6,1.1c-3.4,1.5-6.7,2.9-10.1,4.2c-2.3,0.9-3.8-0.1-3.7-2.6c0.2-4.9,0.5-9.8,0.7-14.7c0-0.5,0.1-0.9,0.1-1.4
			c0-1.7-0.5-2-2-1.3c-0.5,0.2-1.1,0.5-1.6,0.7c-1.6,0.5-3.2-0.2-3.7-1.6s0.1-3,1.6-3.7c2.6-1.2,5.2-2.3,7.9-3.4
			c1.2-0.5,2.7-0.1,3.2,1.1c0.5,1.3,0.9,2.8,0.8,4.1c-0.1,2.4-0.8,4.8-1,7.2C246.1,103.2,246,106.4,245.7,109.8z"/>
		<path class="st4" d="M266.4,94.8c2.3-0.7,4.4-1.5,6.6-2.1c1.1-0.3,2.2-0.6,3.3-0.6c0.6,0,1.5,0.5,1.7,1.1c0.2,0.5-0.2,1.4-0.6,2
			c-0.4,0.5-1.1,0.9-1.7,1.2c-3.6,1.5-7.2,3-10.9,4.5c-2.5,1-4.1-0.1-3.9-2.8c0.2-5.3,0.6-10.5,0.9-15.8c0-0.5,0.1-1,0.1-1.5
			c0-1.8-0.5-2.1-2.2-1.4c-0.6,0.2-1.2,0.6-1.8,0.7c-1.7,0.5-3.4-0.3-4-1.7c-0.5-1.5,0.2-3.3,1.8-4c2.8-1.2,5.7-2.4,8.5-3.5
			c1.4-0.5,3-0.1,3.5,1.2c0.5,1.4,0.9,3,0.8,4.4c-0.2,2.6-0.9,5.1-1.2,7.8C266.9,87.6,266.7,91,266.4,94.8z"/>
		<path class="st4" d="M285.3,77.6c3-0.8,5.6-1.5,8.4-2.1c1.4-0.3,2.8-0.6,4.2-0.5c0.8,0.1,1.9,0.8,2,1.4c0.2,0.7-0.3,1.8-0.8,2.4
			s-1.4,1.1-2.2,1.3c-4.6,1.6-9.3,3.2-14,4.8c-3.1,1-5.1-0.5-4.7-3.8c0.7-6.6,1.5-13.1,2.3-19.7c0.1-0.6,0.2-1.2,0.2-1.8
			c0.2-2.2-0.4-2.7-2.6-1.9c-0.8,0.3-1.5,0.6-2.3,0.8c-2.2,0.5-4.3-0.6-4.8-2.4c-0.6-1.9,0.5-4.1,2.5-4.8c3.6-1.3,7.3-2.6,10.9-3.8
			c1.7-0.6,3.7,0.1,4.2,1.8c0.6,1.8,0.9,3.8,0.7,5.6c-0.4,3.2-1.5,6.4-2.1,9.6C286.5,68.7,286,73,285.3,77.6z"/>
		<path class="st7" d="M199.9,139.1l0.2,6c0,0.1,0.1,0.2,0.2,0.3l5,3.2c0.2,0.2,0.2,0.5-0.1,0.6l-5.6,2c-0.1,0-0.2,0.1-0.2,0.2
			l-1.6,5.8c-0.1,0.3-0.4,0.4-0.6,0.1l-3.6-4.7c-0.1-0.1-0.2-0.1-0.3-0.1l-6,0.3c-0.3,0-0.5-0.3-0.3-0.6l3.4-4.9
			c0.1-0.1,0.1-0.2,0-0.3l-2.1-5.6c-0.1-0.3,0.1-0.5,0.4-0.5l5.7,1.7c0.1,0,0.2,0,0.3-0.1l4.6-3.8
			C199.6,138.7,199.9,138.8,199.9,139.1z"/>
		<path class="st8" d="M16.9,107.8l3.4,2.9c0.1,0.1,0.2,0.1,0.2,0.1l4.3-1.1c0.2-0.1,0.4,0.2,0.3,0.4l-1.7,4.1c0,0.1,0,0.2,0,0.2
			l2.4,3.8c0.1,0.2,0,0.4-0.2,0.4l-4.4-0.4c-0.1,0-0.2,0-0.2,0.1l-2.8,3.5c-0.1,0.2-0.4,0.1-0.5-0.1l-1-4.3c0-0.1-0.1-0.1-0.2-0.2
			l-4.1-1.6c-0.2-0.1-0.2-0.4,0-0.5l3.8-2.3c0.1,0,0.1-0.1,0.1-0.2l0.2-4.5C16.4,107.7,16.7,107.6,16.9,107.8z"/>
		<path class="st7" d="M152.3,18.9l0.1,2.4c0,0.1,0,0.1,0.1,0.1l2,1.3c0.1,0.1,0.1,0.2,0,0.3l-2.3,0.8c-0.1,0-0.1,0.1-0.1,0.1
			l-0.6,2.4c0,0.1-0.2,0.2-0.3,0.1l-1.5-1.9l-0.1-0.1l-2.4,0.1c-0.1,0-0.2-0.1-0.1-0.2l1.4-2v-0.1l-0.9-2.3c0-0.1,0.1-0.2,0.2-0.2
			l2.3,0.7c0.1,0,0.1,0,0.1,0l1.9-1.5C152.2,18.8,152.3,18.8,152.3,18.9z"/>
	</g>
</g>
</svg>
