<?xml version="1.0" encoding="utf-8"?>
<!-- Generator: Adobe Illustrator 25.1.0, SVG Export Plug-In . SVG Version: 6.00 Build 0)  -->
<svg version="1.1" id="Layer_1" xmlns="http://www.w3.org/2000/svg" xmlns:xlink="http://www.w3.org/1999/xlink" x="0px" y="0px"
	 viewBox="0 0 328.9 188.2" style="enable-background:new 0 0 328.9 188.2;" xml:space="preserve">
<style type="text/css">
	.st0{fill:#FFFFFF;}
	.st1{fill:#808080;}
	.st2{fill:#F4F1EF;}
	.st3{fill:#80E6ED;}
	.st4{fill:#00CDDC;}
	.st5{fill:#FF9F1A;}
	.st6{fill:#FFB753;}
</style>
<g>
	<g>
		<path class="st0" d="M328.9,136C328.9,14.5,324,11.1,262,1.8c-26-3.9-127.3-0.5-162,0c-34.1,0.5-85,4.4-91,23
			C3.1,43.2,0,61.1,0,94.2c0,52,10,83.5,45,90.1c35.6,6.7,148.3,2.8,191.3,2C280.6,185.5,328.9,189,328.9,136z"/>
		<path class="st1" d="M34.1,125.6v-11.2h1.6l4,7.8l4-7.8h1.6v11.2H44v-8.8l-3.7,7.2h-1l-3.7-7.2v8.8H34.1z"/>
		<path class="st1" d="M51.2,125.8c-0.8,0-1.4-0.2-2-0.5s-1.1-0.8-1.4-1.5c-0.3-0.6-0.5-1.4-0.5-2.2s0.2-1.6,0.5-2.2
			s0.8-1.1,1.4-1.5c0.6-0.3,1.3-0.5,2-0.5s1.4,0.2,2,0.5s1.1,0.8,1.4,1.5c0.3,0.6,0.5,1.4,0.5,2.2s-0.2,1.6-0.5,2.2
			s-0.8,1.1-1.4,1.5C52.6,125.6,51.9,125.8,51.2,125.8z M51.2,124.6c0.5,0,0.9-0.1,1.3-0.3s0.7-0.6,1-1s0.4-1,0.4-1.7
			s-0.1-1.2-0.4-1.7c-0.2-0.4-0.6-0.8-1-1s-0.8-0.3-1.3-0.3s-0.9,0.1-1.3,0.3s-0.7,0.6-1,1s-0.4,1-0.4,1.7s0.1,1.2,0.4,1.7
			s0.6,0.8,1,1C50.3,124.5,50.7,124.6,51.2,124.6z"/>
		<path class="st1" d="M57,125.6v-7.9h1.2l0.1,1.5c0.2-0.5,0.6-0.9,1.1-1.2s1.1-0.5,1.9-0.5v1.4H61c-0.5,0-0.9,0.1-1.3,0.2
			c-0.4,0.2-0.7,0.4-0.9,0.8s-0.3,0.9-0.3,1.6v4H57V125.6z"/>
		<path class="st1" d="M66.1,125.8c-0.8,0-1.4-0.2-2-0.5s-1.1-0.8-1.4-1.4c-0.3-0.6-0.5-1.4-0.5-2.2s0.2-1.6,0.5-2.2
			s0.8-1.1,1.4-1.5c0.6-0.4,1.3-0.5,2.1-0.5c0.8,0,1.4,0.2,2,0.5s1,0.8,1.3,1.4s0.4,1.2,0.4,1.8c0,0.1,0,0.2,0,0.3s0,0.2,0,0.4h-6.3
			c0,0.6,0.2,1.1,0.4,1.5s0.6,0.7,0.9,0.9c0.4,0.2,0.8,0.3,1.2,0.3c0.6,0,1-0.1,1.4-0.4c0.4-0.2,0.6-0.6,0.8-1h1.3
			c-0.2,0.7-0.6,1.4-1.2,1.8C67.8,125.5,67,125.8,66.1,125.8z M66.1,118.6c-0.6,0-1.2,0.2-1.7,0.6s-0.8,1-0.9,1.7h5
			c0-0.7-0.3-1.3-0.7-1.7C67.3,118.8,66.8,118.6,66.1,118.6z"/>
		<path class="st1" d="M79.4,125.8c-0.8,0-1.4-0.2-2-0.5s-1.1-0.8-1.4-1.4s-0.5-1.4-0.5-2.2s0.2-1.6,0.5-2.2s0.8-1.1,1.4-1.5
			s1.3-0.5,2.1-0.5c0.8,0,1.4,0.2,2,0.5s1,0.8,1.3,1.4s0.4,1.2,0.4,1.8c0,0.1,0,0.2,0,0.3s0,0.2,0,0.4h-6.3c0,0.6,0.2,1.1,0.4,1.5
			c0.2,0.4,0.6,0.7,0.9,0.9c0.4,0.2,0.8,0.3,1.2,0.3c0.6,0,1-0.1,1.4-0.4s0.7-0.6,0.8-1h1.3c-0.2,0.7-0.6,1.4-1.2,1.8
			C81.1,125.5,80.4,125.8,79.4,125.8z M79.4,118.6c-0.6,0-1.2,0.2-1.7,0.6s-0.8,1-0.9,1.7h5c0-0.7-0.3-1.3-0.7-1.7
			C80.7,118.8,80.1,118.6,79.4,118.6z"/>
		<path class="st1" d="M85,125.6v-7.9h1.2l0.1,1.2c0.3-0.4,0.6-0.8,1-1s0.9-0.4,1.4-0.4c0.6,0,1.2,0.1,1.6,0.4
			c0.4,0.2,0.8,0.7,1,1.2c0.3-0.5,0.7-0.9,1.1-1.1c0.5-0.3,1-0.4,1.6-0.4c0.9,0,1.7,0.3,2.3,0.9c0.6,0.6,0.8,1.4,0.8,2.6v4.6h-1.3
			v-4.5c0-0.8-0.2-1.4-0.5-1.9s-0.8-0.6-1.4-0.6s-1.2,0.2-1.6,0.7s-0.6,1.2-0.6,2.1v4.1h-1.3v-4.5c0-0.8-0.2-1.4-0.5-1.9
			c-0.3-0.4-0.8-0.6-1.4-0.6s-1.2,0.2-1.6,0.7s-0.6,1.2-0.6,2.1v4.1L85,125.6L85,125.6z"/>
		<path class="st1" d="M102.9,125.8c-0.8,0-1.4-0.2-2-0.5s-1.1-0.8-1.4-1.5c-0.3-0.6-0.5-1.4-0.5-2.2s0.2-1.6,0.5-2.2
			s0.8-1.1,1.4-1.5c0.6-0.3,1.3-0.5,2-0.5s1.4,0.2,2,0.5s1.1,0.8,1.4,1.5c0.3,0.6,0.5,1.4,0.5,2.2s-0.2,1.6-0.5,2.2
			s-0.8,1.1-1.4,1.5C104.3,125.6,103.7,125.8,102.9,125.8z M102.9,124.6c0.5,0,0.9-0.1,1.3-0.3s0.7-0.6,1-1s0.4-1,0.4-1.7
			s-0.1-1.2-0.4-1.7c-0.2-0.4-0.6-0.8-1-1s-0.8-0.3-1.3-0.3s-0.9,0.1-1.3,0.3s-0.7,0.6-1,1s-0.4,1-0.4,1.7s0.1,1.2,0.4,1.7
			s0.6,0.8,1,1C102.1,124.5,102.5,124.6,102.9,124.6z"/>
		<path class="st1" d="M111.6,125.6c-0.7,0-1.3-0.2-1.7-0.5c-0.4-0.4-0.6-1-0.6-1.9v-4.4h-1.4v-1.1h1.4l0.2-1.9h1.2v1.9h2.3v1.1
			h-2.3v4.4c0,0.5,0.1,0.8,0.3,1s0.6,0.3,1.1,0.3h0.8v1.1H111.6L111.6,125.6z"/>
		<path class="st1" d="M115.4,115.9c-0.3,0-0.5-0.1-0.7-0.3s-0.3-0.4-0.3-0.7s0.1-0.5,0.3-0.6c0.2-0.2,0.4-0.3,0.7-0.3
			s0.5,0.1,0.7,0.3s0.3,0.4,0.3,0.6c0,0.3-0.1,0.5-0.3,0.7S115.7,115.9,115.4,115.9z M114.8,125.6v-7.9h1.3v7.9H114.8z"/>
		<path class="st1" d="M122.1,125.8c-0.8,0-1.4-0.2-2-0.5s-1.1-0.8-1.4-1.5c-0.4-0.6-0.5-1.4-0.5-2.2s0.2-1.6,0.5-2.2
			s0.8-1.1,1.4-1.5c0.6-0.3,1.3-0.5,2-0.5s1.4,0.2,2,0.5s1.1,0.8,1.4,1.5c0.4,0.6,0.5,1.4,0.5,2.2s-0.2,1.6-0.5,2.2
			c-0.4,0.6-0.8,1.1-1.4,1.5C123.5,125.6,122.8,125.8,122.1,125.8z M122.1,124.6c0.5,0,0.9-0.1,1.3-0.3c0.4-0.2,0.7-0.6,1-1
			s0.4-1,0.4-1.7s-0.1-1.2-0.4-1.7c-0.2-0.4-0.6-0.8-1-1s-0.8-0.3-1.3-0.3s-0.9,0.1-1.3,0.3c-0.4,0.2-0.7,0.6-1,1s-0.4,1-0.4,1.7
			s0.1,1.2,0.4,1.7s0.6,0.8,1,1C121.2,124.5,121.6,124.6,122.1,124.6z"/>
		<path class="st1" d="M127.9,125.6v-7.9h1.2l0.1,1.4c0.3-0.5,0.6-0.9,1.1-1.2s1-0.4,1.6-0.4c0.9,0,1.7,0.3,2.2,0.9
			c0.6,0.6,0.8,1.5,0.8,2.6v4.6h-1.3v-4.5c0-1.6-0.7-2.5-2.1-2.5c-0.7,0-1.2,0.2-1.7,0.7s-0.7,1.2-0.7,2.1v4.1L127.9,125.6
			L127.9,125.6z"/>
		<path class="st1" d="M139.7,125.8c-0.7,0-1.2-0.1-1.6-0.3c-0.4-0.2-0.8-0.5-1-0.9s-0.3-0.8-0.3-1.2c0-0.8,0.3-1.4,0.9-1.9
			c0.6-0.4,1.5-0.7,2.5-0.7h2.1v-0.1c0-0.7-0.2-1.2-0.5-1.6s-0.9-0.5-1.5-0.5c-0.5,0-1,0.1-1.3,0.4c-0.4,0.3-0.6,0.6-0.7,1.1h-1.4
			c0.1-0.6,0.2-1.1,0.6-1.5c0.3-0.4,0.8-0.7,1.3-0.9s1-0.3,1.6-0.3c1.1,0,1.9,0.3,2.5,0.9s0.8,1.4,0.8,2.4v4.9h-1.2l-0.1-1.4
			c-0.2,0.5-0.5,0.8-1,1.1C141,125.6,140.4,125.8,139.7,125.8z M139.9,124.6c0.5,0,1-0.1,1.3-0.4c0.4-0.3,0.6-0.6,0.8-1
			s0.3-0.9,0.3-1.3l0,0h-2c-0.8,0-1.4,0.1-1.7,0.4s-0.5,0.6-0.5,1s0.1,0.8,0.5,1C138.9,124.5,139.4,124.6,139.9,124.6z"/>
		<path class="st1" d="M145.7,125.6v-11.5h1.3v11.5H145.7z"/>
		<path class="st1" d="M156.2,125.8c-0.7,0-1.2-0.1-1.6-0.3c-0.4-0.2-0.8-0.5-1-0.9s-0.3-0.8-0.3-1.2c0-0.8,0.3-1.4,0.9-1.9
			c0.6-0.4,1.5-0.7,2.5-0.7h2.1v-0.1c0-0.7-0.2-1.2-0.5-1.6s-0.9-0.5-1.5-0.5c-0.5,0-1,0.1-1.4,0.4s-0.6,0.6-0.7,1.1h-1.4
			c0-0.6,0.2-1.1,0.6-1.5c0.3-0.4,0.8-0.7,1.3-0.9s1-0.3,1.6-0.3c1.1,0,1.9,0.3,2.5,0.9s0.8,1.4,0.8,2.4v4.9H159l-0.1-1.4
			c-0.2,0.5-0.6,0.8-1,1.1S156.9,125.8,156.2,125.8z M156.4,124.6c0.5,0,0.9-0.1,1.3-0.4c0.4-0.3,0.7-0.6,0.8-1
			c0.2-0.4,0.3-0.9,0.3-1.3l0,0h-2c-0.8,0-1.4,0.1-1.7,0.4s-0.5,0.6-0.5,1s0.1,0.8,0.5,1C155.4,124.5,155.8,124.6,156.4,124.6z"/>
		<path class="st1" d="M162.2,125.6v-7.9h1.2l0.1,1.4c0.3-0.5,0.6-0.9,1.1-1.2s1-0.4,1.6-0.4c0.9,0,1.7,0.3,2.2,0.9
			c0.6,0.6,0.8,1.5,0.8,2.6v4.6H168v-4.5c0-1.6-0.7-2.5-2.1-2.5c-0.7,0-1.2,0.2-1.7,0.7s-0.7,1.2-0.7,2.1v4.1L162.2,125.6
			L162.2,125.6z"/>
		<path class="st1" d="M174.9,125.8c-0.8,0-1.5-0.2-2.1-0.5c-0.6-0.4-1-0.9-1.4-1.5c-0.3-0.6-0.5-1.3-0.5-2.1s0.2-1.5,0.5-2.1
			s0.8-1.1,1.4-1.5c0.6-0.4,1.3-0.5,2.1-0.5c0.6,0,1.2,0.1,1.7,0.4s0.9,0.6,1.2,1.1v-4.9h1.3v11.5H178l-0.1-1.3
			c-0.3,0.4-0.6,0.7-1.1,1C176.3,125.6,175.7,125.8,174.9,125.8z M175.1,124.6c0.5,0,1-0.1,1.4-0.4s0.7-0.6,1-1
			c0.2-0.5,0.3-1,0.3-1.6s-0.1-1.1-0.3-1.6s-0.6-0.8-1-1s-0.9-0.4-1.4-0.4s-1,0.1-1.4,0.4c-0.4,0.2-0.7,0.6-1,1s-0.3,1-0.3,1.6
			s0.1,1.1,0.3,1.6c0.2,0.4,0.6,0.8,1,1C174.1,124.5,174.6,124.6,175.1,124.6z"/>
		<path class="st1" d="M185.6,125.6v-11.5h1.3v11.5H185.6z"/>
		<path class="st1" d="M192.7,125.8c-0.8,0-1.4-0.2-2-0.5s-1.1-0.8-1.4-1.4c-0.3-0.6-0.5-1.4-0.5-2.2s0.2-1.6,0.5-2.2
			s0.8-1.1,1.4-1.5c0.6-0.4,1.3-0.5,2.1-0.5s1.4,0.2,2,0.5s1,0.8,1.3,1.4s0.4,1.2,0.4,1.8c0,0.1,0,0.2,0,0.3s0,0.2,0,0.4h-6.3
			c0,0.6,0.2,1.1,0.4,1.5s0.6,0.7,0.9,0.9c0.4,0.2,0.8,0.3,1.2,0.3c0.5,0,1-0.1,1.4-0.4c0.4-0.2,0.6-0.6,0.8-1h1.3
			c-0.2,0.7-0.6,1.4-1.2,1.8C194.4,125.5,193.7,125.8,192.7,125.8z M192.7,118.6c-0.6,0-1.2,0.2-1.7,0.6s-0.8,1-0.9,1.7h5
			c0-0.7-0.3-1.3-0.7-1.7C194,118.8,193.4,118.6,192.7,118.6z"/>
		<path class="st1" d="M201.3,125.8c-1,0-1.7-0.2-2.4-0.7c-0.6-0.5-1-1.1-1.1-2h1.4c0.1,0.4,0.3,0.8,0.7,1.1s0.8,0.5,1.4,0.5
			c0.6,0,1-0.1,1.2-0.4c0.3-0.2,0.4-0.5,0.4-0.9c0-0.5-0.2-0.8-0.5-1s-0.8-0.3-1.5-0.4c-0.4-0.1-0.8-0.2-1.3-0.4
			c-0.4-0.2-0.8-0.4-1.1-0.7s-0.4-0.7-0.4-1.2c0-0.7,0.3-1.3,0.8-1.7s1.2-0.7,2.1-0.7c0.8,0,1.5,0.2,2.1,0.6c0.5,0.4,0.9,1,0.9,1.8
			h-1.3c0-0.4-0.2-0.7-0.5-1c-0.3-0.2-0.7-0.3-1.2-0.3s-0.8,0.1-1.1,0.3s-0.4,0.5-0.4,0.8s0.2,0.6,0.5,0.8s0.8,0.3,1.4,0.5
			c0.5,0.1,1,0.2,1.4,0.4c0.4,0.1,0.8,0.4,1.1,0.7s0.4,0.7,0.4,1.3c0,0.7-0.3,1.3-0.8,1.8C203,125.6,202.3,125.8,201.3,125.8z"/>
		<path class="st1" d="M209.3,125.8c-1,0-1.7-0.2-2.4-0.7c-0.6-0.5-1-1.1-1.1-2h1.4c0.1,0.4,0.3,0.8,0.7,1.1s0.8,0.5,1.4,0.5
			c0.6,0,1-0.1,1.2-0.4c0.3-0.2,0.4-0.5,0.4-0.9c0-0.5-0.2-0.8-0.5-1s-0.8-0.3-1.5-0.4c-0.4-0.1-0.8-0.2-1.3-0.4
			c-0.4-0.2-0.8-0.4-1.1-0.7s-0.4-0.7-0.4-1.2c0-0.7,0.3-1.3,0.8-1.7s1.2-0.7,2.1-0.7c0.8,0,1.5,0.2,2.1,0.6c0.5,0.4,0.9,1,0.9,1.8
			h-1.3c0-0.4-0.2-0.7-0.5-1c-0.3-0.2-0.7-0.3-1.2-0.3s-0.8,0.1-1.1,0.3s-0.4,0.5-0.4,0.8s0.2,0.6,0.5,0.8s0.8,0.3,1.4,0.5
			c0.5,0.1,1,0.2,1.4,0.4c0.4,0.1,0.8,0.4,1.1,0.7s0.4,0.7,0.4,1.3c0,0.7-0.3,1.3-0.8,1.8C211,125.6,210.3,125.8,209.3,125.8z"/>
		<path class="st1" d="M218.5,125.6v-7.9h1.2l0.1,1.5c0.2-0.5,0.6-0.9,1.1-1.2s1.1-0.5,1.9-0.5v1.4h-0.4c-0.5,0-0.9,0.1-1.3,0.2
			c-0.4,0.2-0.7,0.4-0.9,0.8s-0.4,0.9-0.4,1.6v4h-1.3L218.5,125.6L218.5,125.6z"/>
		<path class="st1" d="M227,125.8c-0.7,0-1.2-0.1-1.6-0.3c-0.4-0.2-0.8-0.5-1-0.9s-0.3-0.8-0.3-1.2c0-0.8,0.3-1.4,0.9-1.9
			c0.6-0.4,1.5-0.7,2.5-0.7h2.1v-0.1c0-0.7-0.2-1.2-0.5-1.6s-0.9-0.5-1.5-0.5c-0.5,0-1,0.1-1.3,0.4c-0.4,0.3-0.6,0.6-0.7,1.1h-1.4
			c0.1-0.6,0.2-1.1,0.6-1.5c0.3-0.4,0.8-0.7,1.3-0.9s1-0.3,1.6-0.3c1.1,0,1.9,0.3,2.5,0.9s0.8,1.4,0.8,2.4v4.9h-1.2l-0.1-1.4
			c-0.2,0.5-0.5,0.8-1,1.1C228.3,125.6,227.7,125.8,227,125.8z M227.2,124.6c0.5,0,1-0.1,1.3-0.4c0.4-0.3,0.6-0.6,0.8-1
			s0.3-0.9,0.3-1.3l0,0h-2c-0.8,0-1.4,0.1-1.7,0.4s-0.5,0.6-0.5,1s0.1,0.8,0.5,1C226.2,124.5,226.6,124.6,227.2,124.6z"/>
		<path class="st1" d="M235.9,125.6c-0.7,0-1.3-0.2-1.7-0.5c-0.4-0.4-0.6-1-0.6-1.9v-4.4h-1.4v-1.1h1.4l0.2-1.9h1.2v1.9h2.3v1.1H235
			v4.4c0,0.5,0.1,0.8,0.3,1s0.6,0.3,1.1,0.3h0.8v1.1H235.9L235.9,125.6z"/>
		<path class="st1" d="M239.8,115.9c-0.3,0-0.5-0.1-0.7-0.3s-0.3-0.4-0.3-0.7s0.1-0.5,0.3-0.6c0.2-0.2,0.4-0.3,0.7-0.3
			s0.5,0.1,0.7,0.3s0.3,0.4,0.3,0.6c0,0.3-0.1,0.5-0.3,0.7C240.2,115.8,240,115.9,239.8,115.9z M239.1,125.6v-7.9h1.3v7.9H239.1z"/>
		<path class="st1" d="M246.4,125.8c-0.8,0-1.4-0.2-2-0.5s-1.1-0.8-1.4-1.5c-0.4-0.6-0.5-1.4-0.5-2.2s0.2-1.6,0.5-2.2
			s0.8-1.1,1.4-1.5c0.6-0.3,1.3-0.5,2-0.5s1.4,0.2,2,0.5s1.1,0.8,1.4,1.5c0.4,0.6,0.5,1.4,0.5,2.2s-0.2,1.6-0.5,2.2
			c-0.4,0.6-0.8,1.1-1.4,1.5C247.8,125.6,247.1,125.8,246.4,125.8z M246.4,124.6c0.5,0,0.9-0.1,1.3-0.3s0.7-0.6,1-1s0.4-1,0.4-1.7
			s-0.1-1.2-0.4-1.7c-0.2-0.4-0.6-0.8-1-1s-0.8-0.3-1.3-0.3s-0.9,0.1-1.3,0.3s-0.7,0.6-1,1s-0.4,1-0.4,1.7s0.1,1.2,0.4,1.7
			s0.6,0.8,1,1C245.5,124.5,245.9,124.6,246.4,124.6z"/>
		<path class="st1" d="M252.2,125.6v-7.9h1.2l0.1,1.4c0.3-0.5,0.6-0.9,1.1-1.2s1-0.4,1.6-0.4c0.9,0,1.7,0.3,2.2,0.9
			c0.6,0.6,0.8,1.5,0.8,2.6v4.6H258v-4.5c0-1.6-0.7-2.5-2-2.5c-0.7,0-1.2,0.2-1.7,0.7s-0.7,1.2-0.7,2.1v4.1L252.2,125.6L252.2,125.6
			z"/>
		<path class="st1" d="M264,125.8c-0.7,0-1.2-0.1-1.6-0.3s-0.8-0.5-1-0.9s-0.3-0.8-0.3-1.2c0-0.8,0.3-1.4,0.9-1.9
			c0.6-0.4,1.5-0.7,2.5-0.7h2.1v-0.1c0-0.7-0.2-1.2-0.5-1.6c-0.4-0.4-0.9-0.5-1.5-0.5c-0.5,0-1,0.1-1.4,0.4s-0.6,0.6-0.7,1.1h-1.4
			c0-0.6,0.2-1.1,0.6-1.5c0.3-0.4,0.8-0.7,1.3-0.9s1-0.3,1.6-0.3c1.1,0,1.9,0.3,2.5,0.9s0.8,1.4,0.8,2.4v4.9h-1.2l-0.1-1.4
			c-0.2,0.5-0.5,0.8-1,1.1C265.3,125.6,264.8,125.8,264,125.8z M264.2,124.6c0.5,0,1-0.1,1.3-0.4c0.4-0.3,0.6-0.6,0.8-1
			s0.3-0.9,0.3-1.3l0,0h-2c-0.8,0-1.4,0.1-1.7,0.4c-0.3,0.3-0.5,0.6-0.5,1s0.1,0.8,0.5,1C263.3,124.5,263.7,124.6,264.2,124.6z"/>
		<path class="st1" d="M270.1,125.6v-11.5h1.3v11.5H270.1z"/>
		<path class="st1" d="M34,145.6v-7.9h1.2l0.1,1.2c0.3-0.4,0.6-0.8,1-1s0.9-0.4,1.4-0.4c0.6,0,1.2,0.1,1.6,0.4s0.8,0.7,1,1.2
			c0.3-0.5,0.7-0.9,1.1-1.1c0.5-0.3,1-0.4,1.6-0.4c1,0,1.7,0.3,2.3,0.9s0.8,1.4,0.8,2.6v4.6h-1.3v-4.5c0-0.8-0.2-1.4-0.5-1.9
			c-0.3-0.4-0.8-0.6-1.4-0.6c-0.6,0-1.2,0.2-1.6,0.7c-0.4,0.5-0.6,1.2-0.6,2.1v4.1h-1.3v-4.5c0-0.8-0.2-1.4-0.5-1.9
			c-0.3-0.4-0.8-0.6-1.4-0.6c-0.6,0-1.1,0.2-1.6,0.7c-0.4,0.5-0.6,1.2-0.6,2.1v4.1L34,145.6L34,145.6z"/>
		<path class="st1" d="M51.9,145.8c-0.8,0-1.4-0.2-2-0.5s-1.1-0.8-1.4-1.4c-0.3-0.6-0.5-1.4-0.5-2.2s0.2-1.6,0.5-2.2
			c0.3-0.6,0.8-1.1,1.4-1.5s1.3-0.5,2.1-0.5s1.4,0.2,2,0.5s1,0.8,1.3,1.4c0.3,0.6,0.5,1.2,0.5,1.8c0,0.1,0,0.2,0,0.3s0,0.2,0,0.4
			h-6.3c0,0.6,0.2,1.1,0.4,1.5s0.6,0.7,0.9,0.9c0.4,0.2,0.8,0.3,1.2,0.3c0.6,0,1-0.1,1.4-0.4c0.4-0.3,0.7-0.6,0.8-1h1.3
			c-0.2,0.7-0.6,1.4-1.2,1.8C53.6,145.5,52.8,145.8,51.9,145.8z M51.9,138.6c-0.6,0-1.2,0.2-1.7,0.6c-0.5,0.4-0.8,1-0.9,1.7h5
			c0-0.7-0.3-1.3-0.7-1.7C53.1,138.8,52.6,138.6,51.9,138.6z"/>
		<path class="st1" d="M60.1,145.8c-0.7,0-1.2-0.1-1.6-0.3s-0.8-0.5-1-0.9s-0.3-0.8-0.3-1.2c0-0.8,0.3-1.4,0.9-1.9s1.5-0.7,2.5-0.7
			h2.1v-0.1c0-0.7-0.2-1.2-0.5-1.6c-0.3-0.4-0.8-0.5-1.5-0.5c-0.5,0-1,0.1-1.3,0.4c-0.3,0.3-0.6,0.6-0.7,1.1h-1.4
			c0.1-0.6,0.2-1.1,0.6-1.5c0.3-0.4,0.8-0.7,1.3-0.9s1-0.3,1.6-0.3c1.1,0,1.9,0.3,2.5,0.9s0.8,1.4,0.8,2.4v4.9h-1.2l-0.1-1.4
			c-0.2,0.5-0.5,0.8-1,1.1C61.4,145.6,60.8,145.8,60.1,145.8z M60.3,144.6c0.5,0,1-0.1,1.3-0.4c0.4-0.3,0.7-0.6,0.8-1
			s0.3-0.9,0.3-1.3l0,0h-2c-0.8,0-1.4,0.1-1.7,0.4c-0.3,0.3-0.5,0.6-0.5,1s0.2,0.8,0.5,1C59.3,144.5,59.7,144.6,60.3,144.6z"/>
		<path class="st1" d="M66.1,145.6v-7.9h1.2l0.1,1.4c0.3-0.5,0.6-0.9,1.1-1.2s1-0.4,1.6-0.4c0.9,0,1.7,0.3,2.2,0.9
			c0.6,0.6,0.8,1.5,0.8,2.6v4.6h-1.3v-4.5c0-1.6-0.7-2.5-2-2.5c-0.7,0-1.2,0.2-1.7,0.7c-0.4,0.5-0.7,1.2-0.7,2.1v4.1L66.1,145.6
			L66.1,145.6z"/>
		<path class="st1" d="M78.3,145.8c-0.9,0-1.7-0.2-2.4-0.7c-0.6-0.5-1-1.1-1.1-2h1.4c0.1,0.4,0.3,0.8,0.7,1.1
			c0.4,0.3,0.8,0.5,1.5,0.5c0.6,0,1-0.1,1.2-0.4c0.3-0.2,0.4-0.5,0.4-0.9c0-0.5-0.2-0.8-0.5-1s-0.8-0.3-1.5-0.4
			c-0.4-0.1-0.8-0.2-1.3-0.4c-0.4-0.2-0.8-0.4-1.1-0.7c-0.3-0.3-0.4-0.7-0.4-1.2c0-0.7,0.3-1.3,0.8-1.7s1.2-0.7,2.1-0.7
			c0.8,0,1.5,0.2,2.1,0.6s0.9,1,0.9,1.8h-1.3c0-0.4-0.2-0.7-0.5-1c-0.3-0.2-0.7-0.3-1.2-0.3s-0.8,0.1-1.1,0.3s-0.4,0.5-0.4,0.8
			s0.2,0.6,0.5,0.8s0.8,0.3,1.4,0.5c0.5,0.1,1,0.2,1.4,0.4c0.4,0.1,0.8,0.4,1.1,0.7c0.3,0.3,0.4,0.7,0.4,1.3c0,0.7-0.3,1.3-0.8,1.8
			C79.9,145.5,79.2,145.8,78.3,145.8z"/>
		<path class="st1" d="M88.3,149.1l2-4.3h-0.5l-3.1-7.2h1.5l2.6,6.2l2.8-6.2H95l-5.2,11.5H88.3z"/>
		<path class="st1" d="M99.2,145.8c-0.8,0-1.4-0.2-2-0.5s-1.1-0.8-1.4-1.5c-0.3-0.6-0.5-1.4-0.5-2.2s0.2-1.6,0.5-2.2
			c0.3-0.6,0.8-1.1,1.4-1.5c0.6-0.3,1.3-0.5,2-0.5s1.4,0.2,2,0.5s1.1,0.8,1.4,1.5c0.3,0.6,0.5,1.4,0.5,2.2s-0.2,1.6-0.5,2.2
			c-0.3,0.6-0.8,1.1-1.4,1.5C100.7,145.6,100,145.8,99.2,145.8z M99.2,144.6c0.5,0,0.9-0.1,1.3-0.3s0.7-0.6,1-1s0.4-1,0.4-1.7
			s-0.1-1.2-0.4-1.7c-0.2-0.4-0.6-0.8-1-1s-0.8-0.3-1.3-0.3s-0.9,0.1-1.3,0.3c-0.4,0.2-0.7,0.6-1,1s-0.4,1-0.4,1.7s0.1,1.2,0.4,1.7
			s0.6,0.8,1,1C98.4,144.5,98.8,144.6,99.2,144.6z"/>
		<path class="st1" d="M108,145.8c-0.9,0-1.7-0.3-2.2-0.9c-0.5-0.6-0.8-1.5-0.8-2.6v-4.6h1.3v4.5c0,1.7,0.7,2.5,2,2.5
			c0.7,0,1.3-0.2,1.7-0.7s0.7-1.2,0.7-2.1v-4.1h1.3v7.9h-1.2l-0.1-1.4c-0.2,0.5-0.6,0.9-1.1,1.2C109.1,145.6,108.6,145.8,108,145.8z
			"/>
		<path class="st1" d="M113.9,136.7l-0.2-3.2h1.3l-0.2,3.2H113.9z"/>
		<path class="st1" d="M116.8,145.6v-7.9h1.2l0.1,1.5c0.2-0.5,0.6-0.9,1.1-1.2s1.1-0.5,1.9-0.5v1.4h-0.4c-0.5,0-0.9,0.1-1.3,0.2
			c-0.4,0.2-0.7,0.4-0.9,0.8s-0.3,0.9-0.3,1.6v4h-1.4L116.8,145.6L116.8,145.6z"/>
		<path class="st1" d="M125.8,145.8c-0.8,0-1.4-0.2-2-0.5s-1.1-0.8-1.4-1.4c-0.3-0.6-0.5-1.4-0.5-2.2s0.2-1.6,0.5-2.2
			c0.3-0.6,0.8-1.1,1.4-1.5s1.3-0.5,2.1-0.5s1.4,0.2,2,0.5s1,0.8,1.3,1.4c0.3,0.6,0.4,1.2,0.4,1.8c0,0.1,0,0.2,0,0.3s0,0.2,0,0.4
			h-6.3c0,0.6,0.2,1.1,0.4,1.5s0.6,0.7,0.9,0.9c0.4,0.2,0.8,0.3,1.2,0.3c0.5,0,1-0.1,1.4-0.4c0.4-0.3,0.6-0.6,0.8-1h1.3
			c-0.2,0.7-0.6,1.4-1.2,1.8C127.5,145.5,126.8,145.8,125.8,145.8z M125.8,138.6c-0.6,0-1.2,0.2-1.7,0.6c-0.5,0.4-0.8,1-0.9,1.7h5
			c0-0.7-0.3-1.3-0.7-1.7C127.1,138.8,126.5,138.6,125.8,138.6z"/>
		<path class="st1" d="M135.6,145.6v-7.9h1.2l0.1,1.2c0.3-0.4,0.6-0.8,1-1s0.9-0.4,1.4-0.4c0.6,0,1.2,0.1,1.6,0.4
			c0.4,0.2,0.8,0.7,1,1.2c0.3-0.5,0.7-0.9,1.1-1.1c0.5-0.3,1-0.4,1.6-0.4c1,0,1.7,0.3,2.3,0.9s0.9,1.4,0.9,2.6v4.6h-1.3v-4.5
			c0-0.8-0.2-1.4-0.5-1.9s-0.8-0.6-1.4-0.6c-0.6,0-1.2,0.2-1.6,0.7c-0.4,0.5-0.6,1.2-0.6,2.1v4.1h-1.3v-4.5c0-0.8-0.2-1.4-0.5-1.9
			c-0.3-0.4-0.8-0.6-1.4-0.6c-0.6,0-1.1,0.2-1.6,0.7c-0.4,0.5-0.6,1.2-0.6,2.1v4.1L135.6,145.6L135.6,145.6z"/>
		<path class="st1" d="M153.5,145.8c-0.8,0-1.4-0.2-2-0.5s-1.1-0.8-1.4-1.5c-0.3-0.6-0.5-1.4-0.5-2.2s0.2-1.6,0.5-2.2
			c0.3-0.6,0.8-1.1,1.4-1.5s1.3-0.5,2-0.5s1.4,0.2,2,0.5s1.1,0.8,1.4,1.5c0.3,0.6,0.5,1.4,0.5,2.2s-0.2,1.6-0.5,2.2
			c-0.3,0.6-0.8,1.1-1.4,1.5C154.9,145.6,154.3,145.8,153.5,145.8z M153.5,144.6c0.5,0,0.9-0.1,1.3-0.3c0.4-0.2,0.7-0.6,1-1
			s0.4-1,0.4-1.7s-0.1-1.2-0.4-1.7s-0.6-0.8-0.9-1c-0.4-0.2-0.8-0.3-1.3-0.3s-0.9,0.1-1.3,0.3c-0.4,0.2-0.7,0.6-1,1s-0.4,1-0.4,1.7
			s0.1,1.2,0.4,1.7s0.6,0.8,0.9,1S153.1,144.6,153.5,144.6z"/>
		<path class="st1" d="M159.4,145.6v-7.9h1.2l0.1,1.5c0.2-0.5,0.6-0.9,1.1-1.2s1.1-0.5,1.9-0.5v1.4h-0.4c-0.5,0-0.9,0.1-1.3,0.2
			c-0.4,0.2-0.7,0.4-0.9,0.8c-0.2,0.4-0.3,0.9-0.3,1.6v4h-1.4L159.4,145.6L159.4,145.6z"/>
		<path class="st1" d="M168.5,145.8c-0.8,0-1.4-0.2-2-0.5s-1.1-0.8-1.4-1.4c-0.3-0.6-0.5-1.4-0.5-2.2s0.2-1.6,0.5-2.2
			c0.3-0.6,0.8-1.1,1.4-1.5c0.6-0.4,1.3-0.5,2.1-0.5s1.4,0.2,2,0.5s1,0.8,1.3,1.4c0.3,0.6,0.4,1.2,0.4,1.8c0,0.1,0,0.2,0,0.3
			s0,0.2,0,0.4H166c0,0.6,0.2,1.1,0.4,1.5s0.6,0.7,0.9,0.9c0.4,0.2,0.8,0.3,1.2,0.3c0.5,0,1-0.1,1.4-0.4c0.4-0.2,0.6-0.6,0.8-1h1.3
			c-0.2,0.7-0.6,1.4-1.2,1.8C170.2,145.5,169.4,145.8,168.5,145.8z M168.5,138.6c-0.6,0-1.2,0.2-1.7,0.6c-0.5,0.4-0.8,1-0.9,1.7h5
			c0-0.7-0.3-1.3-0.7-1.7C169.7,138.8,169.1,138.6,168.5,138.6z"/>
		<path class="st1" d="M178.2,145.6v-11.5h1.3v11.5H178.2z"/>
		<path class="st1" d="M182.6,135.9c-0.3,0-0.5-0.1-0.7-0.3s-0.3-0.4-0.3-0.7s0.1-0.5,0.3-0.6c0.2-0.2,0.4-0.3,0.7-0.3
			s0.5,0.1,0.7,0.3s0.3,0.4,0.3,0.6c0,0.3-0.1,0.5-0.3,0.7S182.9,135.9,182.6,135.9z M181.9,145.6v-7.9h1.3v7.9H181.9z"/>
		<path class="st1" d="M185.6,145.6v-11.5h1.3v6.9l3.2-3.3h1.7l-3.5,3.6l4,4.3h-1.7l-3.6-4.1v4.1H185.6z"/>
		<path class="st1" d="M196.7,145.8c-0.8,0-1.4-0.2-2-0.5s-1.1-0.8-1.4-1.4c-0.3-0.6-0.5-1.4-0.5-2.2s0.2-1.6,0.5-2.2
			c0.3-0.6,0.8-1.1,1.4-1.5c0.6-0.4,1.3-0.5,2.1-0.5s1.4,0.2,2,0.5s1,0.8,1.3,1.4c0.3,0.6,0.4,1.2,0.4,1.8c0,0.1,0,0.2,0,0.3
			s0,0.2,0,0.4h-6.3c0,0.6,0.2,1.1,0.4,1.5s0.6,0.7,0.9,0.9c0.4,0.2,0.8,0.3,1.2,0.3c0.6,0,1-0.1,1.4-0.4c0.4-0.2,0.6-0.6,0.8-1h1.3
			c-0.2,0.7-0.6,1.4-1.2,1.8C198.4,145.5,197.6,145.8,196.7,145.8z M196.7,138.6c-0.6,0-1.2,0.2-1.7,0.6c-0.5,0.4-0.8,1-0.9,1.7h5
			c0-0.7-0.3-1.3-0.7-1.7C197.9,138.8,197.3,138.6,196.7,138.6z"/>
		<path class="st1" d="M202.2,145.6v-11.5h1.3v11.5H202.2z"/>
		<path class="st1" d="M206.6,149.1l2-4.3h-0.5l-3.2-7.2h1.5l2.6,6.2l2.8-6.2h1.4l-5.2,11.5H206.6z"/>
		<path class="st1" d="M222,145.6c-0.7,0-1.3-0.2-1.7-0.5c-0.4-0.4-0.6-1-0.6-1.9v-4.4h-1.4v-1.1h1.4l0.2-1.9h1.2v1.9h2.3v1.1H221
			v4.4c0,0.5,0.1,0.8,0.3,1s0.6,0.3,1.1,0.3h0.8v1.1L222,145.6L222,145.6z"/>
		<path class="st1" d="M228.5,145.8c-0.8,0-1.4-0.2-2-0.5s-1.1-0.8-1.4-1.5c-0.4-0.6-0.5-1.4-0.5-2.2s0.2-1.6,0.5-2.2
			c0.4-0.6,0.8-1.1,1.4-1.5s1.3-0.5,2-0.5s1.4,0.2,2,0.5s1.1,0.8,1.4,1.5c0.4,0.6,0.5,1.4,0.5,2.2s-0.2,1.6-0.5,2.2
			c-0.3,0.6-0.8,1.1-1.4,1.5C229.9,145.6,229.2,145.8,228.5,145.8z M228.5,144.6c0.5,0,0.9-0.1,1.3-0.3c0.4-0.2,0.7-0.6,1-1
			s0.4-1,0.4-1.7s-0.1-1.2-0.4-1.7s-0.6-0.8-0.9-1c-0.4-0.2-0.8-0.3-1.3-0.3s-0.9,0.1-1.3,0.3c-0.4,0.2-0.7,0.6-1,1s-0.4,1-0.4,1.7
			s0.1,1.2,0.4,1.7s0.6,0.8,0.9,1S228,144.6,228.5,144.6z"/>
		<path class="st1" d="M37.6,165.8c-0.8,0-1.4-0.2-2-0.5s-1.1-0.8-1.4-1.5c-0.3-0.6-0.5-1.4-0.5-2.2s0.2-1.6,0.5-2.2
			s0.8-1.1,1.4-1.5c0.6-0.3,1.3-0.5,2-0.5s1.4,0.2,2,0.5s1.1,0.8,1.4,1.5c0.3,0.6,0.5,1.4,0.5,2.2s-0.2,1.6-0.5,2.2
			c-0.4,0.6-0.8,1.1-1.4,1.5C39,165.6,38.4,165.8,37.6,165.8z M37.6,164.6c0.5,0,0.9-0.1,1.3-0.3c0.4-0.2,0.7-0.6,1-1s0.4-1,0.4-1.7
			s-0.1-1.2-0.4-1.7c-0.2-0.4-0.6-0.8-1-1s-0.8-0.3-1.3-0.3s-0.9,0.1-1.3,0.3c-0.4,0.2-0.7,0.6-1,1s-0.4,1-0.4,1.7s0.1,1.2,0.4,1.7
			s0.6,0.8,1,1S37.2,164.6,37.6,164.6z"/>
		<path class="st1" d="M45.3,165.6l-3-7.9h1.4l2.4,6.6l2.4-6.6h1.4l-3,7.9H45.3z"/>
		<path class="st1" d="M54.6,165.8c-0.8,0-1.4-0.2-2-0.5s-1.1-0.8-1.4-1.4c-0.3-0.6-0.5-1.4-0.5-2.2s0.2-1.6,0.5-2.2
			c0.3-0.6,0.8-1.1,1.4-1.5s1.3-0.5,2.1-0.5s1.4,0.2,2,0.5s1,0.8,1.3,1.4s0.4,1.2,0.4,1.8c0,0.1,0,0.2,0,0.3s0,0.2,0,0.4H52
			c0,0.6,0.2,1.1,0.4,1.5s0.6,0.7,0.9,0.9c0.4,0.2,0.8,0.3,1.2,0.3c0.6,0,1-0.1,1.4-0.4s0.7-0.6,0.8-1H58c-0.2,0.7-0.6,1.4-1.2,1.8
			C56.3,165.5,55.5,165.8,54.6,165.8z M54.6,158.6c-0.6,0-1.2,0.2-1.7,0.6c-0.5,0.4-0.8,1-0.9,1.7h5c0-0.7-0.3-1.3-0.7-1.7
			C55.8,158.8,55.2,158.6,54.6,158.6z"/>
		<path class="st1" d="M60.1,165.6v-7.9h1.2l0.1,1.5c0.2-0.5,0.6-0.9,1.1-1.2s1.1-0.5,1.9-0.5v1.4H64c-0.5,0-0.9,0.1-1.3,0.2
			c-0.4,0.2-0.7,0.4-0.9,0.8c-0.2,0.4-0.3,0.9-0.3,1.6v4h-1.4V165.6z"/>
		<path class="st1" d="M65.9,165.6v-7.9h1.2l0.1,1.5c0.2-0.5,0.6-0.9,1.1-1.2s1.1-0.5,1.9-0.5v1.4h-0.4c-0.5,0-0.9,0.1-1.3,0.2
			c-0.4,0.2-0.7,0.4-0.9,0.8c-0.2,0.4-0.3,0.9-0.3,1.6v4h-1.4L65.9,165.6L65.9,165.6z"/>
		<path class="st1" d="M75,165.8c-0.8,0-1.4-0.2-2-0.5s-1.1-0.8-1.4-1.4c-0.3-0.6-0.5-1.4-0.5-2.2s0.2-1.6,0.5-2.2
			c0.3-0.6,0.8-1.1,1.4-1.5s1.3-0.5,2.1-0.5c0.8,0,1.4,0.2,2,0.5s1,0.8,1.3,1.4c0.3,0.6,0.5,1.2,0.5,1.8c0,0.1,0,0.2,0,0.3
			s0,0.2,0,0.4h-6.3c0,0.6,0.2,1.1,0.4,1.5c0.2,0.4,0.6,0.7,0.9,0.9c0.4,0.2,0.8,0.3,1.2,0.3c0.6,0,1-0.1,1.4-0.4
			c0.4-0.2,0.7-0.6,0.8-1h1.3c-0.2,0.7-0.6,1.4-1.2,1.8C76.7,165.5,75.9,165.8,75,165.8z M75,158.6c-0.6,0-1.2,0.2-1.7,0.6
			c-0.5,0.4-0.8,1-0.9,1.7h5c0-0.7-0.3-1.3-0.7-1.7C76.2,158.8,75.7,158.6,75,158.6z"/>
		<path class="st1" d="M83.2,165.8c-0.7,0-1.2-0.1-1.7-0.3c-0.4-0.2-0.8-0.5-1-0.9s-0.3-0.8-0.3-1.2c0-0.8,0.3-1.4,0.9-1.9
			s1.5-0.7,2.5-0.7h2.1v-0.1c0-0.7-0.2-1.2-0.5-1.6c-0.4-0.4-0.8-0.5-1.5-0.5c-0.5,0-1,0.1-1.3,0.4s-0.6,0.6-0.7,1.1h-1.4
			c0-0.6,0.2-1.1,0.6-1.5c0.3-0.4,0.8-0.7,1.3-0.9s1-0.3,1.6-0.3c1.1,0,1.9,0.3,2.5,0.9c0.6,0.6,0.8,1.4,0.8,2.4v4.9h-1.2l-0.1-1.4
			c-0.2,0.5-0.6,0.8-1,1.1C84.5,165.6,83.9,165.8,83.2,165.8z M83.4,164.6c0.5,0,0.9-0.1,1.3-0.4c0.4-0.3,0.6-0.6,0.8-1
			s0.3-0.9,0.3-1.3l0,0h-2c-0.8,0-1.3,0.1-1.7,0.4c-0.3,0.3-0.5,0.6-0.5,1s0.2,0.8,0.5,1C82.4,164.5,82.8,164.6,83.4,164.6z"/>
		<path class="st1" d="M92.8,165.8c-0.8,0-1.4-0.2-2-0.5s-1.1-0.8-1.4-1.5c-0.4-0.6-0.5-1.4-0.5-2.2s0.2-1.6,0.5-2.2
			c0.3-0.6,0.8-1.1,1.4-1.5s1.3-0.5,2-0.5c0.9,0,1.7,0.2,2.4,0.7c0.7,0.5,1.1,1.2,1.2,2H95c-0.1-0.5-0.4-0.9-0.8-1.1
			c-0.4-0.3-0.9-0.4-1.5-0.4c-0.4,0-0.9,0.1-1.3,0.3s-0.7,0.6-1,1s-0.4,1-0.4,1.7s0.1,1.2,0.4,1.7s0.6,0.8,1,1s0.8,0.3,1.3,0.3
			c0.6,0,1-0.1,1.5-0.4c0.4-0.3,0.7-0.7,0.8-1.2h1.4c-0.2,0.8-0.6,1.5-1.2,2S93.8,165.8,92.8,165.8z"/>
		<path class="st1" d="M101.2,165.6c-0.7,0-1.3-0.2-1.7-0.5c-0.4-0.4-0.6-1-0.6-1.9v-4.4h-1.4v-1.1h1.4l0.2-1.9h1.2v1.9h2.3v1.1
			h-2.3v4.4c0,0.5,0.1,0.8,0.3,1c0.2,0.2,0.6,0.3,1.1,0.3h0.8v1.1L101.2,165.6L101.2,165.6z"/>
		<path class="st1" d="M111.1,165.8c-0.7,0-1.2-0.1-1.6-0.3s-0.8-0.5-1-0.9s-0.3-0.8-0.3-1.2c0-0.8,0.3-1.4,0.9-1.9
			c0.6-0.4,1.5-0.7,2.5-0.7h2.1v-0.1c0-0.7-0.2-1.2-0.5-1.6s-0.8-0.5-1.5-0.5c-0.5,0-1,0.1-1.4,0.4c-0.4,0.3-0.6,0.6-0.7,1.1h-1.4
			c0.1-0.6,0.2-1.1,0.6-1.5c0.3-0.4,0.8-0.7,1.3-0.9s1-0.3,1.6-0.3c1.1,0,1.9,0.3,2.5,0.9c0.6,0.6,0.8,1.4,0.8,2.4v4.9h-1.2
			l-0.1-1.4c-0.2,0.5-0.6,0.8-1,1.1C112.4,165.6,111.9,165.8,111.1,165.8z M111.4,164.6c0.5,0,0.9-0.1,1.3-0.4
			c0.4-0.3,0.7-0.6,0.8-1c0.2-0.4,0.3-0.9,0.3-1.3l0,0h-2c-0.8,0-1.4,0.1-1.7,0.4c-0.3,0.3-0.5,0.6-0.5,1s0.1,0.8,0.5,1
			C110.4,164.5,110.8,164.6,111.4,164.6z"/>
		<path class="st1" d="M117.2,165.6v-7.9h1.2l0.1,1.4c0.3-0.5,0.6-0.9,1.1-1.2s1-0.4,1.6-0.4c0.9,0,1.7,0.3,2.2,0.9
			c0.6,0.6,0.8,1.5,0.8,2.6v4.6h-1.3v-4.5c0-1.6-0.7-2.5-2.1-2.5c-0.7,0-1.2,0.2-1.7,0.7c-0.4,0.5-0.7,1.2-0.7,2.1v4.1L117.2,165.6
			L117.2,165.6z"/>
		<path class="st1" d="M129.9,165.8c-0.8,0-1.5-0.2-2.1-0.5c-0.6-0.4-1.1-0.9-1.4-1.5s-0.5-1.3-0.5-2.1s0.2-1.5,0.5-2.1
			s0.8-1.1,1.4-1.5s1.3-0.5,2.1-0.5c0.7,0,1.2,0.1,1.7,0.4c0.5,0.3,0.9,0.6,1.2,1.1v-4.9h1.3v11.5h-1.2l-0.1-1.3
			c-0.3,0.4-0.6,0.7-1.1,1S130.6,165.8,129.9,165.8z M130.1,164.6c0.5,0,1-0.1,1.4-0.4c0.4-0.2,0.7-0.6,1-1c0.2-0.5,0.3-1,0.3-1.6
			s-0.1-1.1-0.3-1.6s-0.6-0.8-1-1s-0.9-0.4-1.4-0.4s-1,0.1-1.4,0.4s-0.7,0.6-1,1s-0.3,1-0.3,1.6s0.1,1.1,0.3,1.6
			c0.2,0.4,0.6,0.8,1,1C129.1,164.5,129.5,164.6,130.1,164.6z"/>
		<path class="st1" d="M140.6,165.6v-7.9h1.2l0.1,1.2c0.3-0.4,0.6-0.8,1-1s0.9-0.4,1.4-0.4c0.6,0,1.2,0.1,1.6,0.4s0.8,0.7,1.1,1.2
			c0.3-0.5,0.7-0.9,1.1-1.1c0.5-0.3,1-0.4,1.6-0.4c0.9,0,1.7,0.3,2.3,0.9c0.6,0.6,0.9,1.4,0.9,2.6v4.6h-1.3v-4.5
			c0-0.8-0.2-1.4-0.5-1.9s-0.8-0.6-1.4-0.6c-0.6,0-1.2,0.2-1.6,0.7c-0.4,0.5-0.6,1.2-0.6,2.1v4.1h-1.3v-4.5c0-0.8-0.2-1.4-0.5-1.9
			s-0.8-0.6-1.4-0.6c-0.6,0-1.2,0.2-1.6,0.7c-0.4,0.5-0.6,1.2-0.6,2.1v4.1L140.6,165.6L140.6,165.6z"/>
		<path class="st1" d="M157.6,165.8c-0.7,0-1.2-0.1-1.6-0.3c-0.4-0.2-0.8-0.5-1-0.9s-0.3-0.8-0.3-1.2c0-0.8,0.3-1.4,0.9-1.9
			c0.6-0.4,1.5-0.7,2.5-0.7h2.1v-0.1c0-0.7-0.2-1.2-0.5-1.6s-0.8-0.5-1.5-0.5c-0.5,0-1,0.1-1.4,0.4s-0.6,0.6-0.7,1.1h-1.4
			c0.1-0.6,0.2-1.1,0.6-1.5c0.3-0.4,0.8-0.7,1.3-0.9s1-0.3,1.6-0.3c1.1,0,1.9,0.3,2.5,0.9c0.6,0.6,0.8,1.4,0.8,2.4v4.9h-1.2
			l-0.1-1.4c-0.2,0.5-0.6,0.8-1,1.1C158.9,165.6,158.3,165.8,157.6,165.8z M157.8,164.6c0.5,0,0.9-0.1,1.3-0.4
			c0.4-0.3,0.7-0.6,0.8-1c0.2-0.4,0.3-0.9,0.3-1.3l0,0h-2c-0.8,0-1.4,0.1-1.7,0.4c-0.3,0.3-0.5,0.6-0.5,1s0.1,0.8,0.5,1
			C156.8,164.5,157.2,164.6,157.8,164.6z"/>
		<path class="st1" d="M163.6,165.6v-11.5h1.3v6.9l3.2-3.3h1.7l-3.5,3.6l4,4.3h-1.7l-3.6-4.1v4.1H163.6z"/>
		<path class="st1" d="M174.6,165.8c-0.8,0-1.4-0.2-2-0.5s-1.1-0.8-1.4-1.4c-0.3-0.6-0.5-1.4-0.5-2.2s0.2-1.6,0.5-2.2
			c0.3-0.6,0.8-1.1,1.4-1.5c0.6-0.4,1.3-0.5,2.1-0.5s1.4,0.2,2,0.5s1,0.8,1.3,1.4s0.4,1.2,0.4,1.8c0,0.1,0,0.2,0,0.3s0,0.2,0,0.4
			h-6.3c0,0.6,0.2,1.1,0.4,1.5s0.6,0.7,0.9,0.9c0.4,0.2,0.8,0.3,1.2,0.3c0.5,0,1-0.1,1.4-0.4c0.4-0.2,0.6-0.6,0.8-1h1.3
			c-0.2,0.7-0.6,1.4-1.2,1.8C176.3,165.5,175.6,165.8,174.6,165.8z M174.6,158.6c-0.6,0-1.2,0.2-1.7,0.6c-0.5,0.4-0.8,1-0.9,1.7h5
			c0-0.7-0.3-1.3-0.7-1.7C175.9,158.8,175.3,158.6,174.6,158.6z"/>
		<path class="st1" d="M184.4,165.6v-7.9h1.2l0.1,1.5c0.2-0.5,0.6-0.9,1.1-1.2s1.1-0.5,1.9-0.5v1.4h-0.4c-0.5,0-0.9,0.1-1.3,0.2
			c-0.4,0.2-0.7,0.4-0.9,0.8s-0.4,0.9-0.4,1.6v4h-1.3L184.4,165.6L184.4,165.6z"/>
		<path class="st1" d="M192.9,165.8c-0.7,0-1.2-0.1-1.6-0.3c-0.4-0.2-0.8-0.5-1-0.9s-0.3-0.8-0.3-1.2c0-0.8,0.3-1.4,0.9-1.9
			c0.6-0.4,1.5-0.7,2.5-0.7h2.1v-0.1c0-0.7-0.2-1.2-0.5-1.6s-0.9-0.5-1.5-0.5c-0.5,0-1,0.1-1.3,0.4c-0.4,0.3-0.6,0.6-0.7,1.1h-1.4
			c0-0.6,0.2-1.1,0.6-1.5c0.3-0.4,0.8-0.7,1.3-0.9s1-0.3,1.6-0.3c1.1,0,1.9,0.3,2.5,0.9c0.6,0.6,0.8,1.4,0.8,2.4v4.9h-1.2l-0.1-1.4
			c-0.2,0.5-0.6,0.8-1,1.1C194.2,165.6,193.6,165.8,192.9,165.8z M193.1,164.6c0.5,0,0.9-0.1,1.3-0.4c0.4-0.3,0.6-0.6,0.8-1
			s0.3-0.9,0.3-1.3l0,0h-2c-0.8,0-1.3,0.1-1.7,0.4c-0.3,0.3-0.5,0.6-0.5,1s0.1,0.8,0.5,1C192.1,164.5,192.5,164.6,193.1,164.6z"/>
		<path class="st1" d="M201.9,165.8c-0.9,0-1.7-0.2-2.4-0.7c-0.6-0.5-1-1.1-1.1-2h1.4c0.1,0.4,0.3,0.8,0.7,1.1s0.8,0.5,1.4,0.5
			c0.6,0,1-0.1,1.2-0.4c0.3-0.2,0.4-0.5,0.4-0.9c0-0.5-0.2-0.8-0.5-1s-0.8-0.3-1.5-0.4c-0.4-0.1-0.9-0.2-1.3-0.4
			c-0.4-0.2-0.8-0.4-1.1-0.7s-0.4-0.7-0.4-1.2c0-0.7,0.3-1.3,0.8-1.7s1.2-0.7,2.1-0.7c0.8,0,1.5,0.2,2.1,0.6c0.5,0.4,0.8,1,0.9,1.8
			h-1.3c-0.1-0.4-0.2-0.7-0.5-1c-0.3-0.2-0.7-0.3-1.2-0.3s-0.8,0.1-1.1,0.3s-0.4,0.5-0.4,0.8s0.2,0.6,0.5,0.8s0.8,0.3,1.4,0.5
			c0.5,0.1,1,0.2,1.4,0.4c0.4,0.1,0.8,0.4,1.1,0.7s0.4,0.7,0.4,1.3c0,0.7-0.3,1.3-0.8,1.8C203.6,165.6,202.9,165.8,201.9,165.8z"/>
		<path class="st1" d="M206.9,165.6v-11.5h1.3v4.9c0.3-0.5,0.6-0.9,1.1-1.1c0.5-0.3,1-0.4,1.6-0.4c0.9,0,1.7,0.3,2.2,0.9
			c0.6,0.6,0.8,1.5,0.8,2.6v4.6h-1.3v-4.5c0-1.6-0.7-2.5-2-2.5c-0.7,0-1.3,0.2-1.7,0.7c-0.5,0.5-0.7,1.2-0.7,2.1v4.1L206.9,165.6
			L206.9,165.6z"/>
		<path class="st1" d="M223.9,165.8c-0.8,0-1.5-0.2-2.1-0.5c-0.6-0.4-1-0.9-1.4-1.5c-0.3-0.6-0.5-1.3-0.5-2.1s0.2-1.5,0.5-2.1
			s0.8-1.1,1.4-1.5c0.6-0.4,1.3-0.5,2.1-0.5c0.6,0,1.2,0.1,1.7,0.4c0.5,0.3,0.9,0.6,1.2,1.1v-4.9h1.3v11.5h-1.2l-0.1-1.3
			c-0.3,0.4-0.6,0.7-1.1,1S224.6,165.8,223.9,165.8z M224,164.6c0.5,0,1-0.1,1.4-0.4c0.4-0.2,0.7-0.6,1-1c0.2-0.5,0.3-1,0.3-1.6
			s-0.1-1.1-0.3-1.6s-0.6-0.8-1-1s-0.9-0.4-1.4-0.4s-1,0.1-1.4,0.4s-0.7,0.6-1,1c-0.2,0.5-0.3,1-0.3,1.6s0.1,1.1,0.3,1.6
			c0.2,0.4,0.6,0.8,1,1C223,164.5,223.5,164.6,224,164.6z"/>
		<path class="st1" d="M233.9,165.8c-0.8,0-1.4-0.2-2-0.5s-1.1-0.8-1.4-1.4c-0.3-0.6-0.5-1.4-0.5-2.2s0.2-1.6,0.5-2.2
			c0.3-0.6,0.8-1.1,1.4-1.5c0.6-0.4,1.3-0.5,2.1-0.5s1.4,0.2,2,0.5s1,0.8,1.3,1.4c0.3,0.6,0.4,1.2,0.4,1.8c0,0.1,0,0.2,0,0.3
			s0,0.2,0,0.4h-6.3c0,0.6,0.2,1.1,0.4,1.5s0.6,0.7,0.9,0.9c0.4,0.2,0.8,0.3,1.2,0.3c0.5,0,1-0.1,1.4-0.4c0.4-0.2,0.6-0.6,0.8-1h1.3
			c-0.2,0.7-0.6,1.4-1.2,1.8C235.6,165.5,234.8,165.8,233.9,165.8z M233.9,158.6c-0.6,0-1.2,0.2-1.7,0.6c-0.5,0.4-0.8,1-0.9,1.7h5
			c0-0.7-0.3-1.3-0.7-1.7C235.1,158.8,234.6,158.6,233.9,158.6z"/>
		<path class="st1" d="M243.1,165.8c-0.8,0-1.4-0.2-2-0.5s-1.1-0.8-1.4-1.5c-0.4-0.6-0.5-1.4-0.5-2.2s0.2-1.6,0.5-2.2
			c0.4-0.6,0.8-1.1,1.4-1.5s1.3-0.5,2-0.5c0.9,0,1.7,0.2,2.4,0.7c0.6,0.5,1,1.2,1.2,2h-1.4c-0.1-0.5-0.4-0.9-0.8-1.1
			s-0.9-0.4-1.5-0.4c-0.5,0-0.9,0.1-1.3,0.3s-0.7,0.6-1,1s-0.4,1-0.4,1.7s0.1,1.2,0.4,1.7s0.6,0.8,1,1s0.8,0.3,1.3,0.3
			s1-0.1,1.5-0.4c0.4-0.3,0.7-0.7,0.8-1.2h1.4c-0.2,0.8-0.6,1.5-1.2,2C244.8,165.5,244,165.8,243.1,165.8z"/>
		<path class="st1" d="M249.4,155.9c-0.3,0-0.5-0.1-0.7-0.3s-0.3-0.4-0.3-0.7s0.1-0.5,0.3-0.6c0.2-0.2,0.4-0.3,0.7-0.3
			s0.5,0.1,0.7,0.3s0.3,0.4,0.3,0.6c0,0.3-0.1,0.5-0.3,0.7C249.8,155.8,249.6,155.9,249.4,155.9z M248.7,165.6v-7.9h1.3v7.9H248.7z"
			/>
		<path class="st1" d="M255.4,165.8c-0.9,0-1.7-0.2-2.4-0.7c-0.6-0.5-1-1.1-1.1-2h1.4c0.1,0.4,0.3,0.8,0.7,1.1s0.8,0.5,1.5,0.5
			c0.6,0,1-0.1,1.2-0.4c0.3-0.2,0.4-0.5,0.4-0.9c0-0.5-0.2-0.8-0.5-1s-0.8-0.3-1.5-0.4c-0.4-0.1-0.9-0.2-1.3-0.4s-0.8-0.4-1.1-0.7
			s-0.4-0.7-0.4-1.2c0-0.7,0.3-1.3,0.8-1.7s1.2-0.7,2.1-0.7c0.8,0,1.5,0.2,2.1,0.6c0.5,0.4,0.8,1,0.9,1.8h-1.3c0-0.4-0.2-0.7-0.5-1
			c-0.3-0.2-0.7-0.3-1.2-0.3s-0.9,0.1-1.1,0.3s-0.4,0.5-0.4,0.8s0.2,0.6,0.5,0.8s0.8,0.3,1.4,0.5c0.5,0.1,1,0.2,1.4,0.4
			c0.4,0.1,0.8,0.4,1.1,0.7c0.3,0.3,0.4,0.7,0.4,1.3c0,0.7-0.3,1.3-0.8,1.8C257.1,165.6,256.3,165.8,255.4,165.8z"/>
		<path class="st1" d="M261.2,155.9c-0.3,0-0.5-0.1-0.7-0.3s-0.3-0.4-0.3-0.7s0.1-0.5,0.3-0.6c0.2-0.2,0.4-0.3,0.7-0.3
			c0.3,0,0.5,0.1,0.7,0.3s0.3,0.4,0.3,0.6c0,0.3-0.1,0.5-0.3,0.7C261.6,155.8,261.4,155.9,261.2,155.9z M260.5,165.6v-7.9h1.3v7.9
			H260.5z"/>
		<path class="st1" d="M267.8,165.8c-0.8,0-1.4-0.2-2-0.5s-1.1-0.8-1.4-1.5c-0.3-0.6-0.5-1.4-0.5-2.2s0.2-1.6,0.5-2.2
			s0.8-1.1,1.4-1.5c0.6-0.3,1.3-0.5,2-0.5c0.8,0,1.4,0.2,2,0.5s1.1,0.8,1.4,1.5c0.3,0.6,0.5,1.4,0.5,2.2s-0.2,1.6-0.5,2.2
			c-0.4,0.6-0.8,1.1-1.4,1.5C269.2,165.6,268.5,165.8,267.8,165.8z M267.8,164.6c0.5,0,0.9-0.1,1.3-0.3s0.7-0.6,1-1s0.4-1,0.4-1.7
			s-0.1-1.2-0.4-1.7c-0.2-0.4-0.6-0.8-0.9-1c-0.4-0.2-0.8-0.3-1.3-0.3s-0.9,0.1-1.3,0.3s-0.7,0.6-1,1s-0.4,1-0.4,1.7
			s0.1,1.2,0.4,1.7c0.2,0.5,0.6,0.8,0.9,1C266.9,164.5,267.4,164.6,267.8,164.6z"/>
		<path class="st1" d="M273.7,165.6v-7.9h1.2l0.1,1.4c0.3-0.5,0.6-0.9,1.1-1.2s1-0.4,1.6-0.4c0.9,0,1.7,0.3,2.2,0.9
			c0.6,0.6,0.8,1.5,0.8,2.6v4.6h-1.3v-4.5c0-1.6-0.7-2.5-2-2.5c-0.7,0-1.2,0.2-1.7,0.7s-0.7,1.2-0.7,2.1v4.1L273.7,165.6
			L273.7,165.6z"/>
		<path class="st1" d="M285.9,165.8c-1,0-1.7-0.2-2.4-0.7c-0.6-0.5-1-1.1-1.1-2h1.4c0.1,0.4,0.3,0.8,0.7,1.1
			c0.4,0.3,0.8,0.5,1.4,0.5s1-0.1,1.2-0.4c0.3-0.2,0.4-0.5,0.4-0.9c0-0.5-0.2-0.8-0.5-1s-0.8-0.3-1.5-0.4c-0.4-0.1-0.9-0.2-1.3-0.4
			s-0.8-0.4-1.1-0.7c-0.3-0.3-0.4-0.7-0.4-1.2c0-0.7,0.3-1.3,0.8-1.7s1.2-0.7,2.1-0.7c0.8,0,1.5,0.2,2.1,0.6c0.5,0.4,0.9,1,0.9,1.8
			h-1.3c-0.1-0.4-0.2-0.7-0.5-1c-0.3-0.2-0.7-0.3-1.2-0.3s-0.9,0.1-1.1,0.3c-0.3,0.2-0.4,0.5-0.4,0.8s0.2,0.6,0.5,0.8
			s0.8,0.3,1.4,0.5c0.5,0.1,1,0.2,1.4,0.4c0.4,0.1,0.8,0.4,1.1,0.7c0.3,0.3,0.4,0.7,0.4,1.3c0,0.7-0.3,1.3-0.8,1.8
			C287.5,165.6,286.8,165.8,285.9,165.8z"/>
		<path class="st1" d="M291.3,165.7c-0.3,0-0.5-0.1-0.7-0.3s-0.3-0.4-0.3-0.7s0.1-0.5,0.3-0.6c0.2-0.2,0.4-0.3,0.7-0.3
			c0.3,0,0.5,0.1,0.7,0.3s0.3,0.4,0.3,0.6c0,0.3-0.1,0.5-0.3,0.7C291.7,165.6,291.5,165.7,291.3,165.7z"/>
		<path class="st2" d="M173.7,104.1c60.2,0,109-3.7,109-8.3s-48.8-8.3-109-8.3s-109,3.7-109,8.3C64.7,100.4,113.5,104.1,173.7,104.1
			z"/>
		<path class="st3" d="M143.6,99.2H140c-1,0-1.7-0.8-1.7-1.2V25c0-1.5,0.8-2.3,1.7-2.3h3.6c1,0,1.7,0.8,1.7,2.3v73
			C145.3,98.5,144.5,99.2,143.6,99.2z"/>
		<path class="st4" d="M237,52c0.7-0.2,1.2-0.4,1.9-0.6c0.3-0.1,0.6-0.2,0.9-0.2c0.2,0,0.4,0.2,0.5,0.3s0,0.4-0.1,0.6
			c-0.1,0.1-0.3,0.3-0.5,0.3c-1,0.4-2,0.9-3.1,1.3c-0.7,0.3-1.2,0-1.1-0.8c0.1-1.5,0.1-3,0.2-4.5c0-0.1,0-0.3,0-0.4
			c0-0.5-0.1-0.6-0.6-0.4c-0.2,0.1-0.3,0.2-0.5,0.2c-0.5,0.2-1-0.1-1.1-0.5c-0.2-0.4,0-0.9,0.5-1.1c0.8-0.4,1.6-0.7,2.4-1
			c0.4-0.2,0.8,0,1,0.3c0.2,0.4,0.3,0.8,0.2,1.3c0,0.7-0.2,1.5-0.3,2.2C237.1,50,237,51,237,52z"/>
		<path class="st4" d="M243.3,47.4c0.7-0.2,1.4-0.4,2-0.6c0.3-0.1,0.7-0.2,1-0.2c0.2,0,0.5,0.2,0.5,0.3c0.1,0.2,0,0.4-0.2,0.6
			c-0.1,0.2-0.3,0.3-0.5,0.4c-1.1,0.5-2.2,0.9-3.3,1.4c-0.8,0.3-1.2,0-1.2-0.9c0.1-1.6,0.2-3.2,0.3-4.8c0-0.2,0-0.3,0-0.5
			c0-0.5-0.1-0.6-0.7-0.4c-0.2,0.1-0.4,0.2-0.5,0.2c-0.5,0.1-1.1-0.1-1.2-0.5s0.1-1,0.5-1.2c0.9-0.4,1.7-0.7,2.6-1.1
			c0.4-0.2,0.9,0,1.1,0.4s0.3,0.9,0.2,1.4c-0.1,0.8-0.3,1.6-0.4,2.4C243.5,45.2,243.4,46.3,243.3,47.4z"/>
		<path class="st4" d="M249.1,42.2c0.9-0.2,1.7-0.5,2.5-0.6c0.4-0.1,0.9-0.2,1.3-0.2c0.2,0,0.6,0.2,0.6,0.4c0.1,0.2-0.1,0.5-0.3,0.7
			s-0.4,0.3-0.7,0.4c-1.4,0.5-2.8,1-4.3,1.5c-1,0.3-1.5-0.2-1.4-1.2c0.2-2,0.5-4,0.7-6c0-0.2,0-0.4,0.1-0.6c0.1-0.7-0.1-0.8-0.8-0.6
			c-0.2,0.1-0.5,0.2-0.7,0.2c-0.7,0.1-1.3-0.2-1.5-0.8s0.1-1.2,0.8-1.5c1.1-0.4,2.2-0.8,3.3-1.2c0.5-0.2,1.1,0,1.3,0.5
			s0.3,1.2,0.2,1.7c-0.1,1-0.5,2-0.6,2.9C249.4,39.5,249.3,40.8,249.1,42.2z"/>
		<path class="st5" d="M187.6,80.3h43.6v-5.5c0-4.3-3.5-7.9-7.9-7.9h-29c-3.7,0-6.7,3-6.7,6.7L187.6,80.3L187.6,80.3z"/>
		<path class="st5" d="M234.7,79c3.7,0,6.7-3,6.7-6.7s-3-6.7-6.7-6.7s-6.7,3-6.7,6.7S231,79,234.7,79z"/>
		<path class="st4" d="M249.4,74.5v9.8h-58.7v12.2c0,1.1-0.9,2-2,2H183c-1.1,0-2-0.9-2-2V77.6c0-1.7,1.4-3.1,3.1-3.1H249.4z"/>
		<path class="st4" d="M242.3,98.5h6.1c1,0,1.8-0.8,1.8-1.8V59.5c0-1-0.8-1.8-1.8-1.8h-6.1c-1,0-1.8,0.8-1.8,1.8v37.2
			C240.5,97.7,241.3,98.5,242.3,98.5z"/>
		<path class="st6" d="M103.3,99.2h3.6c1,0,1.7-0.8,1.7-1.2V25c0-1.5-0.8-2.3-1.7-2.3h-3.6c-1,0-1.7,0.8-1.7,2.3v73
			C101.5,98.5,102.3,99.2,103.3,99.2z"/>
		<path class="st4" d="M180.6,57h-44.7c-0.7,0-1.3-0.8-1.3-1.8V33.4c0-1,0.6-1.8,1.3-1.8h44.8c0.9,0,1.7,0.5,2.3,1.4l6.3,9.7
			c0.3,0.4,0.3,2,0,2.4L183,55.5C182.3,56.5,181.5,57,180.6,57z"/>
		<path class="st0" d="M145.3,36.7c0.1-0.1,0.5-0.1,0.9-0.1c0.6,0,1,0.1,1.2,0.2s0.4,0.3,0.6,0.5c0.2,0.2,0.3,0.4,0.3,0.7
			c0,0.1,0,0.1,0,0.2c0,0.2-0.1,0.4-0.3,0.7c-0.3,0.3-0.5,0.5-0.7,0.5s-0.4-0.1-0.6-0.4c-0.2-0.2-0.3-0.4-0.5-0.4
			c-0.1,0-0.3,0.1-0.5,0.3s-0.2,0.5-0.2,0.7c0,0.3,0.1,0.7,0.3,1.4c0.2,0.6,0.4,1.1,0.5,1.3c0.2,0.3,0.4,0.7,0.8,1.3
			c0.3,0.7,0.5,1,0.6,1.1s0.1,0.2,0.1,0.4s0.1,0.5,0.2,0.8s0.2,0.7,0.3,1c0,0.1,0,0.2,0,0.4c0,0.9-0.2,1.6-0.5,2
			c-0.2,0.2-0.4,0.4-0.8,0.6c-0.4,0.2-0.7,0.3-1,0.3c-0.4,0-0.8-0.2-1.3-0.6s-0.9-0.8-1-1.2c-0.1-0.3-0.1-0.5,0-0.7
			c0.2-0.3,0.5-0.5,0.9-0.5c0.1,0,0.2,0,0.2,0c0.1,0.1,0.3,0.3,0.5,0.6s0.5,0.5,0.7,0.5c0.1,0,0.3-0.1,0.3-0.2
			c0.1-0.1,0.1-0.3,0.1-0.5c0-0.6-0.1-1.1-0.4-1.7c-0.1-0.4-0.2-0.6-0.2-0.8c0-0.1-0.2-0.5-0.6-1.4c-0.3-0.7-0.6-1.3-0.8-1.8
			c-0.4-1.2-0.6-2-0.6-2.5c0-0.6,0.2-1.2,0.6-1.7C144.6,37.3,145,36.9,145.3,36.7z"/>
		<path class="st0" d="M151.1,36.8c0.2-0.2,0.3-0.2,0.5-0.2c0.1,0,0.3,0,0.6,0.1c0.4,0.1,0.6,0.3,0.7,0.7c0.1,0.4,0.1,1.8,0.1,4
			c0,4.3,0.1,6.5,0.2,6.6c0,0.1,0.3,0.2,0.9,0.2h0.4h0.3c0.5,0,0.8,0,1,0.1s0.2,0.3,0.2,0.5c0,0.8-0.9,1.2-2.6,1.3
			c-0.1,0-0.1,0-0.2,0c-0.1,0-0.1,0-0.2,0c-0.8,0-1.3-0.2-1.7-0.8c-0.2-0.2-0.2-0.9-0.2-2.1v-1.3c0-0.8,0-1.8,0-3.1
			c0-2.8,0-4.4-0.1-5c0-0.1,0-0.2,0-0.4C150.8,37.2,150.9,37,151.1,36.8z"/>
		<path class="st0" d="M159.3,37.2c0.2-0.1,0.6-0.1,1-0.1c0.9,0,1.4,0.1,1.6,0.2c0.2,0.1,0.3,0.3,0.3,0.6c0,0.2-0.1,0.5-0.2,0.6
			c-0.2,0.1-0.4,0.2-0.7,0.2c-0.2,0-0.4,0.1-0.5,0.2s-0.1,0.4-0.1,0.8c0,0.1,0,0.5,0,1.3c0,0.9,0.1,1.5,0.2,1.7
			c0.1,0.2,0.2,0.4,0.5,0.4c0.1,0,0.2,0,0.5,0h0.1h0.1c0.2,0,0.4,0.1,0.6,0.3l0.4,0.3l-0.3,0.3c-0.2,0.2-0.5,0.4-1,0.6
			c-0.4,0.1-0.6,0.2-0.7,0.3c-0.1,0.1-0.1,0.2-0.1,0.5c0,0.1,0,0.1,0,0.2s0,0.2,0,0.3c0,1.1,0.1,1.9,0.2,2.2
			c0.1,0.1,0.1,0.2,0.2,0.2c0.1,0,0.3,0,0.5,0c0.4,0,0.7,0.1,0.9,0.2c0.3,0.2,0.4,0.3,0.4,0.6c0,0.2-0.2,0.4-0.5,0.7
			c-0.3,0.2-0.6,0.4-1,0.4c-0.3,0.1-0.6,0.1-0.9,0.1c-0.4,0-0.7-0.1-1.1-0.2c-0.3-0.1-0.4-0.1-0.6-0.2s-0.2-0.3-0.3-0.6
			s-0.1-0.7-0.1-1.2s0-1.3,0-2.4c0-0.1,0-0.2,0-0.3c0-2.8-0.1-4.7-0.1-5.7c0-0.3,0-0.6,0-1c0-0.5,0.1-0.8,0.2-1
			C158.7,37.4,158.9,37.3,159.3,37.2z"/>
		<path class="st0" d="M166.6,37.2c0.2-0.1,0.6-0.1,1-0.1c0.9,0,1.4,0.1,1.6,0.2c0.2,0.1,0.3,0.3,0.3,0.6c0,0.2-0.1,0.5-0.2,0.6
			c-0.2,0.1-0.4,0.2-0.7,0.2c-0.2,0-0.4,0.1-0.5,0.2s-0.1,0.4-0.1,0.8c0,0.1,0,0.5,0.1,1.3c0,0.9,0.1,1.5,0.2,1.7
			c0.1,0.2,0.2,0.4,0.5,0.4c0.1,0,0.2,0,0.4,0h0.1h0.1c0.2,0,0.4,0.1,0.6,0.3l0.4,0.3l-0.4,0.2c-0.2,0.2-0.5,0.4-1,0.6
			c-0.4,0.1-0.6,0.2-0.7,0.3c-0.1,0.1-0.1,0.2-0.1,0.5c0,0.1,0,0.1,0,0.2s0,0.2,0,0.3c0,1.1,0.1,1.9,0.2,2.2c0,0.1,0.1,0.2,0.2,0.2
			s0.3,0,0.5,0c0.4,0,0.7,0.1,0.9,0.2c0.3,0.2,0.4,0.3,0.4,0.6c0,0.2-0.1,0.4-0.4,0.7c-0.3,0.2-0.6,0.4-1,0.4
			c-0.3,0.1-0.6,0.1-0.9,0.1c-0.3,0-0.7-0.1-1.1-0.2c-0.3-0.1-0.4-0.1-0.6-0.2c-0.1-0.1-0.2-0.3-0.3-0.6S166,48.5,166,48
			s0-1.3,0-2.4c0-0.1,0-0.2,0-0.3c0-2.8-0.1-4.7-0.1-5.7c0-0.3,0-0.6,0-1c0-0.5,0.1-0.8,0.2-1C165.9,37.4,166.2,37.3,166.6,37.2z"/>
		<path class="st0" d="M173.5,36.2c0.2-0.1,0.6-0.2,1.1-0.2c0.9,0,1.5,0.1,1.7,0.3c0.7,0.5,1.2,1,1.5,1.5c0.2,0.3,0.3,1.2,0.3,2.7
			V41c0,1.4-0.1,2.4-0.4,3s-0.7,1-1.4,1.2l-0.7,0.2v2.1c0,1.2-0.1,2-0.1,2.2c-0.1,0.3-0.3,0.4-0.7,0.4s-0.7-0.1-0.9-0.3l-0.4-0.3
			v-4.2c-0.1-3.1-0.2-5.5-0.4-7.1c-0.1-0.5-0.1-0.8-0.1-1C173,36.7,173.1,36.4,173.5,36.2z M175.7,38.6c-0.1-0.4-0.3-0.6-0.4-0.6
			c0,0,0,0-0.1,0c0,0-0.1,0.3-0.1,0.9c0,2.2,0.1,3.5,0.2,4c0,0.2,0.1,0.4,0.2,0.4c0.1,0,0.2-0.1,0.3-0.3s0.1-0.6,0.1-1.4
			C176,40,175.9,39,175.7,38.6z"/>
		<path class="st5" d="M39.8,57h70.8c0.8,0,1.4-0.8,1.4-1.8V33.4c0-1-0.6-1.8-1.4-1.8H39.8c-0.9,0-1.8,0.5-2.5,1.4l-6.8,9.7
			c-0.3,0.4-0.3,2,0,2.4l6.8,10.4C37.9,56.4,38.8,57,39.8,57z"/>
		<path class="st0" d="M40.5,38.2l0.4-0.5h2.9l0.5,0.5c0.3,0.3,0.5,0.7,0.6,1.1c0.1,0.5,0.2,1.2,0.3,2.1c0,0.4,0.1,0.9,0.1,1.6
			c0,1.6-0.2,3-0.5,4.3s-0.7,2.2-1.2,2.7c-0.2,0.2-0.4,0.3-0.7,0.4s-0.6,0.2-0.8,0.2c-0.1,0-0.2,0-0.2,0c-0.1-0.1-0.3-0.1-0.5-0.1
			s-0.3-0.1-0.5-0.4s-0.4-0.6-0.5-0.9c-0.2-0.6-0.4-1.3-0.4-2c-0.1-0.7-0.1-1.9-0.1-3.5v-1.1c0-1.5,0-2.5,0.1-3
			C40.1,39,40.3,38.6,40.5,38.2z M42.7,39.4c-0.1-0.3-0.3-0.4-0.4-0.4c-0.1,0-0.2,0.2-0.4,0.7c-0.1,0.4-0.2,1.1-0.2,2.2
			c0,0.8,0,1.7,0.1,2.7c0.1,0.9,0.2,1.7,0.3,2.5s0.3,1.2,0.4,1.2c0.1,0,0.2-0.2,0.2-0.5c0.1-0.3,0.2-0.5,0.3-0.7
			c0-0.1,0.1-0.8,0.2-2.1c0-0.7,0.1-1.3,0.1-1.8C43.3,41.4,43.1,40.1,42.7,39.4z"/>
		<path class="st0" d="M52.5,37.3c0.2-0.1,0.4-0.1,0.7-0.1c0.4,0,0.7,0.1,0.8,0.2c0.2,0.2,0.2,0.3,0.2,0.5s-0.1,0.5-0.3,1.1
			c-0.1,0.4-0.2,0.8-0.3,1c-0.1,0.3-0.1,0.6-0.2,1.1c-0.1,0.4-0.2,0.8-0.3,1.3c-0.3,1.3-0.6,2.7-0.8,4.2s-0.4,2.5-0.4,2.9
			c0,0.2-0.1,0.4-0.3,0.6s-0.4,0.4-0.6,0.4c0,0-0.1,0-0.3,0c-0.5,0-0.9-0.1-1.2-0.5c-0.2-0.2-0.3-0.9-0.4-2.3
			c-0.3-2.7-0.5-4.5-0.7-5.4c-0.1-0.3-0.1-0.9-0.2-1.7S48,39.2,48,38.9L47.8,38l0.3-0.3c0.2-0.2,0.4-0.3,0.6-0.3
			c0.4,0,0.7,0.3,1,0.9s0.4,1.1,0.4,1.6c0,0.3,0,0.6,0.1,0.9c0,0,0.1,0.2,0.1,0.6c0.1,0.3,0.1,0.7,0.2,0.9s0.1,0.4,0.2,0.4
			s0.4-1.1,0.8-3.3c0.2-0.8,0.3-1.4,0.4-1.7C52.1,37.6,52.3,37.4,52.5,37.3z"/>
		<path class="st0" d="M57.7,38.3c0.2-0.1,0.4-0.1,0.8-0.1c0.9,0,1.4,0.1,1.6,0.3c0.2,0.1,0.2,0.3,0.2,0.5s-0.1,0.4-0.2,0.5
			c-0.2,0.1-0.4,0.2-0.6,0.2s-0.4,0.1-0.5,0.2s-0.1,0.4-0.1,0.8c0,0.1,0,0.5,0.1,1.2c0,0.8,0.1,1.3,0.1,1.5s0.1,0.3,0.2,0.4
			c0,0,0.1,0,0.3,0s0.3,0,0.5,0c0.4,0,0.6,0.1,0.8,0.3c0.1,0.1,0.2,0.2,0.2,0.3c0,0.2-0.3,0.5-1,0.7c-0.4,0.1-0.6,0.2-0.7,0.3
			s-0.1,0.2-0.2,0.5c0,0.2,0,0.5,0,0.7c0,0.8,0.1,1.4,0.2,1.8c0.1,0.2,0.1,0.2,0.2,0.3c0.1,0,0.2,0.1,0.5,0.1s0.6,0.1,0.8,0.2
			c0.2,0.2,0.3,0.3,0.3,0.5c0,0.1-0.1,0.3-0.3,0.6c-0.4,0.4-1,0.5-1.9,0.5s-1.5-0.2-1.8-0.6c-0.2-0.2-0.2-1.5-0.3-4
			c0-3.1-0.1-4.9-0.1-5.4l-0.1-1.7l0.3-0.2C57.3,38.4,57.5,38.4,57.7,38.3z"/>
		<path class="st0" d="M64.3,37.8c0.3-0.1,0.6-0.1,1.1-0.1s0.8,0.1,1,0.1c0.4,0.2,0.7,0.5,0.9,0.9c0.1,0.2,0.2,0.6,0.3,1.2
			c0.1,0.6,0.1,1.1,0.1,1.6c0,0.2,0,0.4,0,0.5c-0.1,0.4-0.2,0.8-0.3,1.3C67.2,43.8,67.1,44,67,44s-0.2,0.1-0.2,0.3s0.1,0.3,0.2,0.5
			c0.2,0.4,0.6,1,1.1,2c0.4,1,0.7,1.6,0.8,1.8c0,0.1,0,0.2,0,0.3c0,0.2-0.1,0.4-0.2,0.5c-0.1,0.2-0.3,0.3-0.5,0.3s-0.3,0-0.4,0
			c-0.4,0-0.6-0.1-0.7-0.2s-0.2-0.2-0.2-0.4c0-0.3-0.2-0.8-0.5-1.4s-0.6-1-0.7-1l0,0c0,0-0.1,0.2-0.1,0.5c0,0.5,0.1,1,0.1,1.5
			c0,0.2,0.1,0.4,0.1,0.5c0,0.5-0.1,0.9-0.3,1c-0.1,0-0.2,0.1-0.4,0.1c-0.5,0-0.8-0.1-0.9-0.4c-0.1-0.1-0.1-1.2-0.2-3.2
			c0-0.6,0-1.3-0.1-2.1s0-1.3,0-1.6s0-0.8-0.1-1.3s-0.1-1.1-0.2-1.8c-0.1-0.8-0.1-1.2-0.1-1.3c0-0.4,0.1-0.6,0.2-0.8
			C63.9,38,64.1,37.9,64.3,37.8z M65.8,39.6c0-0.1-0.1-0.2-0.3-0.2c-0.1,0-0.2,0.1-0.2,0.2s-0.1,0.2,0,0.3c0,0,0.1,0.5,0.1,1.5
			s0.1,1.5,0.2,1.5c0,0,0.1,0,0.2-0.2c0.1-0.1,0.1-0.4,0.1-0.8c0-0.3,0-0.6,0-0.8C65.9,40.3,65.9,39.7,65.8,39.6z"/>
		<path class="st0" d="M72.1,37.8c0.3-0.1,0.6-0.1,1.1-0.1s0.8,0.1,1,0.1c0.4,0.2,0.7,0.5,0.9,0.9c0.1,0.2,0.2,0.6,0.3,1.2
			c0.1,0.6,0.1,1.1,0.1,1.6c0,0.2,0,0.4,0,0.5c-0.1,0.4-0.2,0.8-0.3,1.3C75,43.8,74.9,44,74.8,44s-0.2,0.1-0.2,0.3s0.1,0.3,0.2,0.5
			c0.2,0.4,0.6,1,1.1,2c0.4,1,0.7,1.6,0.8,1.8c0,0.1,0,0.2,0,0.3c0,0.2-0.1,0.4-0.2,0.5c-0.1,0.2-0.3,0.3-0.5,0.3s-0.3,0-0.4,0
			c-0.4,0-0.6-0.1-0.7-0.2s-0.2-0.2-0.2-0.4c0-0.3-0.2-0.8-0.5-1.4s-0.6-1-0.7-1l0,0c0,0-0.1,0.2-0.1,0.5c0,0.5,0.1,1,0.1,1.5
			c0,0.2,0.1,0.4,0.1,0.5c0,0.5-0.1,0.9-0.3,1c-0.1,0-0.2,0.1-0.4,0.1c-0.5,0-0.8-0.1-0.9-0.4c-0.1-0.1-0.1-1.2-0.2-3.2
			c0-0.6,0-1.3,0-2.1c0-0.7,0-1.3,0-1.6s0-0.8-0.1-1.3s-0.1-1.1-0.2-1.8c-0.1-0.8-0.1-1.2-0.1-1.3c0-0.4,0-0.6,0.2-0.8
			C71.6,38,71.8,37.9,72.1,37.8z M73.5,39.6c0-0.1-0.1-0.2-0.3-0.2c-0.1,0-0.2,0.1-0.2,0.2s-0.1,0.2,0,0.3c0,0,0.1,0.5,0.1,1.5
			s0.1,1.5,0.2,1.5c0,0,0.1,0,0.2-0.2c0.1-0.1,0.1-0.4,0.1-0.8c0-0.3,0-0.6,0-0.8C73.6,40.3,73.6,39.7,73.5,39.6z"/>
		<path class="st0" d="M80,38.3c0.2-0.1,0.4-0.1,0.8-0.1c0.9,0,1.4,0.1,1.6,0.3c0.2,0.1,0.2,0.3,0.2,0.5s-0.1,0.4-0.2,0.5
			c-0.2,0.1-0.4,0.2-0.6,0.2s-0.4,0.1-0.5,0.2s-0.1,0.4-0.1,0.8c0,0.1,0,0.5,0.1,1.2c0,0.8,0.1,1.3,0.1,1.5s0.1,0.3,0.2,0.4
			c0,0,0.1,0,0.3,0c0.2,0,0.3,0,0.5,0c0.4,0,0.7,0.1,0.8,0.3c0.1,0.1,0.2,0.2,0.2,0.3c0,0.2-0.3,0.5-1,0.7c-0.4,0.1-0.6,0.2-0.7,0.3
			s-0.1,0.2-0.2,0.5c0,0.2-0.1,0.5-0.1,0.7c0,0.8,0.1,1.4,0.2,1.8c0.1,0.2,0.1,0.2,0.2,0.3c0.1,0,0.2,0.1,0.5,0.1s0.6,0.1,0.8,0.2
			c0.2,0.2,0.4,0.3,0.4,0.5c0,0.1-0.1,0.3-0.4,0.6c-0.4,0.4-1,0.5-1.9,0.5s-1.5-0.2-1.8-0.6c-0.2-0.2-0.2-1.5-0.3-4
			c0-3.1-0.1-4.9-0.1-5.4l-0.1-1.7l0.3-0.2C79.6,38.4,79.8,38.4,80,38.3z"/>
		<path class="st0" d="M87.8,38.4c0.4-0.4,1-0.6,1.8-0.6c0.4,0,0.7,0.1,0.9,0.2c0.3,0.2,0.6,0.6,0.7,1.3c0.1,0.6,0.2,1.6,0.4,3
			c0.2,1.4,0.2,2.5,0.3,3.3c0,0.7,0.1,1.5,0.2,2.5c0.1,0.9,0.1,1.4,0.2,1.5c0,0,0,0,0,0.1s-0.1,0.3-0.2,0.5s-0.2,0.3-0.3,0.4
			c0,0-0.1,0-0.2,0c-0.2,0-0.5,0-0.8-0.2s-0.4-0.2-0.5-0.4c-0.1-0.1-0.1-0.6-0.2-1.3S90,47.4,90,46.9c0-0.4,0-0.7-0.1-0.7
			s-0.4-0.1-1.1-0.1c-0.5,0-0.8,0-0.8,0.1s0,0.2,0,0.3c0,0.3,0,0.8,0.1,1.3c0,0.6,0.1,1.1,0.1,1.5v0.2c0,0.1-0.1,0.2-0.3,0.3
			c-0.2,0.1-0.4,0.1-0.6,0.1c-0.1,0-0.2,0-0.2,0c-0.5-0.2-0.8-0.4-0.9-0.7c0,0,0,0,0-0.1V49c0-0.7,0.1-2.1,0.2-4.2
			c0.2-2.2,0.3-3.4,0.3-3.7c0.1-0.4,0.3-0.9,0.6-1.5C87.3,39,87.6,38.6,87.8,38.4z M89.4,40.8c-0.1-0.5-0.2-0.7-0.3-0.7
			c-0.1,0-0.2,0.2-0.4,0.5c-0.3,0.6-0.5,1.5-0.6,2.6c0,0.5-0.1,0.7-0.1,0.8c0,0.2,0,0.4,0.1,0.4c0.1,0.1,0.3,0.1,0.6,0.1
			c0.5,0,0.7-0.1,0.8-0.1c0,0,0.1-0.2,0.1-0.6C89.7,42.7,89.6,41.7,89.4,40.8z"/>
		<path class="st0" d="M96.3,39.1c0.3-0.3,0.5-0.5,0.6-0.5c0.1-0.1,0.3-0.1,0.6-0.1c0.7,0,1.1,0.2,1.1,0.7c0,0.4-0.3,0.8-0.9,1.1
			c-0.4,0.2-0.7,1-0.9,2.3c-0.1,0.6-0.2,1.2-0.2,1.9s0,1.3,0.1,2c0.1,0.9,0.2,1.5,0.4,1.9c0.2,0.4,0.4,0.6,0.8,0.6
			c0.6,0.1,1,0.3,1.1,0.5v0.1c0,0.2-0.1,0.3-0.3,0.5c-0.2,0.2-0.4,0.3-0.6,0.3c0,0-0.1,0-0.3,0c-0.6,0-1.1-0.1-1.6-0.4
			c-0.2-0.1-0.4-0.4-0.6-0.8s-0.4-0.9-0.6-1.3c-0.2-0.6-0.3-1.8-0.3-3.4c0-0.6,0-1.2,0.1-1.8c0.1-0.9,0.3-1.7,0.5-2.2
			C95.5,40.1,95.8,39.6,96.3,39.1z"/>
		<path class="st0" d="M101.8,37.7c0.2-0.2,0.6-0.3,1.1-0.3h0.5c0.8,0,1.3,0.1,1.5,0.1c0.1,0,0.3,0.1,0.7,0.1c0.3,0,0.6,0.1,0.8,0.2
			c0.2,0.1,0.2,0.3,0.2,0.6s-0.1,0.5-0.2,0.6s-0.3,0.2-0.6,0.3c-0.3,0.1-0.5,0.1-0.6,0.2s-0.1,1.6-0.1,4.5c0,2,0,3.4,0.1,4.3
			c0,0.7,0,1,0,1.1c0,0.3-0.1,0.6-0.2,0.8c-0.2,0.3-0.4,0.5-0.8,0.5c-0.2,0-0.5-0.1-0.7-0.2l-0.5-0.3l0.1-5.4c0-1.4,0-2.8,0-4.1
			c0-0.8-0.1-1.3-0.2-1.4c-0.2-0.1-0.3-0.1-0.3-0.1c-0.1,0-0.2,0-0.3,0c-0.3,0-0.5-0.1-0.7-0.2c-0.2-0.2-0.3-0.4-0.3-0.6
			C101.4,38.1,101.6,37.9,101.8,37.7z"/>
	</g>
</g>
</svg>
