<svg width="216" height="168" viewBox="0 0 216 168" fill="none" xmlns="http://www.w3.org/2000/svg">
<path d="M107.474 167.446C156.208 167.446 195.715 161.492 195.715 154.148C195.715 146.804 156.208 140.85 107.474 140.85C58.7404 140.85 19.2339 146.804 19.2339 154.148C19.2339 161.492 58.7404 167.446 107.474 167.446Z" fill="#F4F1EF"/>
<path d="M120.111 47.5701C121.581 49.2998 121.711 52.0242 120.111 53.754C118.879 55.0729 116.825 55.7 113.581 54.1648C103.246 49.6458 74.4017 29.8614 92.586 16.953C100.521 11.3096 105.905 21.7098 109.841 30.9858C113.062 38.5968 117.711 44.7592 120.111 47.5701Z" fill="#00CDDC"/>
<path d="M215.232 46.1036C215.232 46.1036 183.101 50.6226 174.02 29.8436C174.02 29.822 194.323 22.0164 215.232 46.1036Z" fill="#28C86E"/>
<path d="M209.801 27.6152C209.801 27.6152 193.887 44.74 168.33 32.0045C168.33 32.0045 173.346 23.3123 209.801 27.6152Z" fill="#3CDC82"/>
<path d="M157.802 94.4283C140.202 87.2497 122.147 80.9143 105.39 71.8114C102.817 70.4059 100.309 68.914 97.8008 67.4005C99.4873 64.3517 100.439 58.7299 103.12 50.6C120.05 -0.860973 160.116 11.3556 175.684 27.702C183.619 36.0266 199.879 65.2598 169.241 99.3365C165.457 97.6283 161.651 95.9851 157.802 94.4283Z" fill="#32DCD2"/>
<path d="M123.682 51.5926C124.266 50.5979 126.212 51.7007 127.466 51.6575L126.947 53.0845C126.752 53.5818 126.968 54.1224 127.444 54.2953L128.871 54.8575C129.325 55.0305 129.866 54.7927 130.06 54.2953L130.579 52.8899C131.487 53.8413 134.169 54.8576 133.866 55.8306C133.433 57.2144 130.406 60.0037 126.795 58.5982C123.185 57.1495 122.86 52.998 123.682 51.5926Z" fill="black"/>
<path d="M128.868 54.8329L127.441 54.2708C126.987 54.0978 126.749 53.5356 126.943 53.06L127.462 51.6329C127.96 51.6113 128.5 51.6977 129.062 51.8923C129.668 52.1086 130.165 52.4545 130.576 52.8869L130.057 54.2924C129.862 54.7681 129.343 55.0275 128.868 54.8329Z" fill="white"/>
<path d="M167.64 3.8291C167.64 3.8291 169.716 8.71578 165.715 13.2781C165.694 13.2997 164.44 11.4834 167.64 3.8291Z" fill="#28C86E"/>
<path d="M173.132 15.9157C173.132 15.9157 166.818 21.8186 161.672 15.4184C161.651 15.4184 164.872 13.1913 173.132 15.9157Z" fill="#28C86E"/>
<path d="M157.436 19.7896C157.609 19.2058 164.55 10.5785 175.836 10.6001" stroke="#28C86E" stroke-width="0.6925" stroke-miterlimit="10" stroke-linecap="round"/>
<path d="M178.817 8.17654C178.817 8.17654 178.644 -0.191258 175.271 0.00334232C171.92 0.17632 176.569 8.56574 178.817 8.17654Z" fill="#FFCF8D"/>
<path d="M178.817 8.06784C178.817 8.06784 173.412 0.997329 171.833 4.11093C170.255 7.22453 177.931 10.3598 178.817 8.06784Z" fill="#FFCF8D"/>
<path d="M179.335 9.49359C179.335 9.49359 172.438 4.65017 172.048 8.43406C171.659 12.218 179.292 12.1531 179.335 9.49359Z" fill="#FFCF8D"/>
<path d="M180.114 9.71187C180.114 9.71187 184.676 2.16574 181.044 2.036C177.411 1.92789 177.541 9.88485 180.114 9.71187Z" fill="#FFCF8D"/>
<path d="M179.011 9.90847C179.011 9.90847 184.979 15.9411 185.973 12.2654C186.968 8.58957 179.487 7.27056 179.011 9.90847Z" fill="#FFCF8D"/>
<path d="M178.884 10.7494C178.884 10.7494 185.63 9.14938 184.051 6.77093C182.473 4.37086 177.608 9.21424 178.884 10.7494Z" fill="#FFCF8D"/>
<path d="M179.358 10.3382C179.358 10.3382 186.58 13.7761 185.109 16.9762C183.639 20.1763 178.125 12.3707 179.358 10.3382Z" fill="#FFCF8D"/>
<path d="M179.768 9.8599C179.768 9.8599 183.811 17.8602 180.481 18.2061C177.151 18.5521 177.411 9.81666 179.768 9.8599Z" fill="#FFCF8D"/>
<path d="M179.897 9.32208C179.897 9.32208 177.929 17.9493 175.248 15.4628C172.567 12.9762 178.167 7.37608 179.897 9.32208Z" fill="#FFCF8D"/>
<path d="M181.697 13.6244C182.655 13.0385 182.294 10.7057 180.892 8.41377C179.49 6.12187 177.577 4.73884 176.619 5.32468C175.662 5.91052 176.022 8.24339 177.425 10.5353C178.827 12.8272 180.74 14.2102 181.697 13.6244Z" fill="#FF9F1A"/>
<path d="M146.538 51.2118C147.111 49.5524 146.294 47.7651 144.713 47.2197C143.133 46.6744 141.388 47.5775 140.815 49.2369C140.243 50.8963 141.059 52.6836 142.64 53.229C144.22 53.7743 145.966 52.8712 146.538 51.2118Z" fill="black"/>
<path d="M124.396 42.7127C124.969 41.0533 124.152 39.266 122.571 38.7207C120.991 38.1753 119.246 39.0784 118.673 40.7378C118.1 42.3972 118.917 44.1845 120.498 44.7299C122.078 45.2752 123.823 44.3721 124.396 42.7127Z" fill="black"/>
<path d="M168.414 46.276C168.414 46.276 161.322 58.125 167.506 59.4872C170.274 60.0926 176.761 54.5789 168.414 46.276Z" fill="white"/>
<path d="M33.0804 56.8908C44.5402 57.3449 63.3515 72.329 73.6653 72.9561C80.4979 73.3669 98.0985 51.5933 98.0985 51.5933C104.996 48.5878 106.877 66.4694 123.375 78.7725C150.359 95.9189 181.841 75.5724 181.322 95.8108C181.106 104.395 171.398 118.752 159.203 148.915C152.132 147.488 145.04 146.234 137.991 144.764C115.699 140.115 -17.1913 80.632 6.65802 91.3999C2.13898 89.3457 7.6094 53.6258 33.0804 56.8908Z" fill="#FF9F1A"/>
<path d="M163.571 151.055C160.544 155.142 156.587 160.223 154.792 161.347C105.861 147.92 53.0598 129.13 4.95032 107.443C1.25292 106.103 -0.779569 102.167 0.279921 98.3834C1.75023 93.086 4.43139 82.8587 5.53413 84.8263C8.62611 90.3832 131.938 133.368 161.279 143.531C164.393 144.59 165.56 148.396 163.571 151.055Z" fill="#E97443"/>
<path d="M172.546 102.491C171.963 105.302 171.357 108.113 170.73 110.924C169.173 112.957 166.6 114.449 162.687 115.162C152.978 116.914 151.594 105.54 151.184 95.7237C150.859 87.6586 148.632 80.2854 147.357 76.8259C146.578 74.7069 147.465 72.2636 149.627 71.3987C151.292 70.7284 153.497 71.0095 156.049 73.6906C161.26 78.8367 171.249 92.2209 172.546 102.491Z" fill="#00CDDC"/>
</svg>
