<svg width="293" height="161" viewBox="0 0 293 161" fill="none" xmlns="http://www.w3.org/2000/svg">
<path d="M150 161C228.977 161 293 153.613 293 144.5C293 135.387 228.977 128 150 128C71.0233 128 7 135.387 7 144.5C7 153.613 71.0233 161 150 161Z" fill="#F4F1EF"/>
<path d="M172.427 1.91871L172.184 2.60999C171.642 4.12334 172.427 5.78615 173.94 6.34664L200.284 15.8004L201.629 12.2692C202.171 10.8306 201.442 9.22387 199.985 8.70074L176.145 0.181173C174.632 -0.379325 172.969 0.405371 172.427 1.91871Z" fill="#6E6E6E"/>
<path d="M126.13 115.7C126.13 115.7 126.13 115.681 126.149 115.681C125.028 115.084 123.944 114.411 122.935 113.626C122.823 113.832 117.798 124.108 117.162 125.303C117.013 125.602 116.733 125.677 116.415 125.677C115.985 125.677 115.537 125.677 115.107 125.677C114.304 125.677 113.5 125.677 112.716 125.677C112.342 125.677 112.043 125.77 111.782 126.032C111.651 126.163 111.52 126.294 111.389 126.424C110.679 127.153 110.698 128.237 111.408 128.965C111.52 129.077 111.632 129.208 111.744 129.32C112.024 129.563 112.342 129.713 112.734 129.713C115.892 129.713 119.049 129.713 122.207 129.713C123.216 129.713 124.075 128.76 124.131 127.751C124.187 126.779 123.533 126.331 122.917 125.827C122.786 125.733 122.58 125.733 122.394 125.714C122.207 125.696 122.039 125.714 121.852 125.714C121.459 125.677 121.329 125.453 121.516 125.135C121.87 124.5 125.57 116.746 126.13 115.7Z" fill="#E14504"/>
<path d="M122.935 125.788C122.805 125.695 122.599 125.695 122.412 125.676C122.225 125.657 122.057 125.676 121.87 125.676C121.684 125.657 121.553 125.601 121.497 125.508H116.975C116.826 125.639 116.62 125.676 116.415 125.676C115.985 125.676 115.537 125.676 115.107 125.676C114.304 125.676 113.5 125.676 112.716 125.676C112.342 125.676 112.043 125.769 111.782 126.031C111.651 126.162 111.52 126.293 111.389 126.423C110.679 127.152 110.698 128.236 111.408 128.964C111.52 129.076 111.632 129.207 111.744 129.319C112.024 129.562 112.342 129.712 112.734 129.712C115.892 129.712 119.049 129.712 122.207 129.712C123.216 129.712 124.075 128.759 124.131 127.75C124.206 126.741 123.552 126.293 122.935 125.788Z" fill="#6E6E6E"/>
<path d="M4.52087 109.63L49.5475 98.6998L20.3643 62.6972L20.8127 62.0246L50.1641 98.2327L95.4523 87.5459L95.6017 88.1064L50.5751 99.0361L79.7583 135.02L79.3099 135.394L49.9586 99.1856L4.65167 110.19L4.52087 109.63Z" fill="#6E6E6E"/>
<path d="M189.167 128.367L225.375 99.0157L214.371 53.7275L214.931 53.578L225.88 98.6046L261.864 69.4214L262.219 69.8698L226.029 99.2212L237.015 144.528L236.454 144.659L225.525 99.6322L189.541 128.815L189.167 128.367Z" fill="#6E6E6E"/>
<path d="M0 98.8661C0 126.517 22.4199 148.937 50.0711 148.937C77.7223 148.937 100.142 126.517 100.142 98.8661C100.142 71.2149 77.7223 48.795 50.0711 48.795C22.4012 48.795 0 71.2149 0 98.8661ZM6.31495 98.8661C6.31495 74.7087 25.895 55.1286 50.0524 55.1286C74.2099 55.1286 93.7899 74.7087 93.7899 98.8661C93.7899 123.024 74.2099 142.604 50.0524 142.604C25.895 142.604 6.31495 123.024 6.31495 98.8661Z" fill="#FFCF8D"/>
<path d="M175.623 99.1245C175.623 126.776 198.043 149.196 225.694 149.196C253.345 149.196 275.765 126.776 275.765 99.1245C275.765 71.4732 253.345 49.0533 225.694 49.0533C198.043 49.0533 175.623 71.4546 175.623 99.1245ZM181.957 99.1245C181.957 74.967 201.537 55.387 225.694 55.387C249.852 55.387 269.432 74.967 269.432 99.1245C269.432 123.282 249.852 142.862 225.694 142.862C201.537 142.862 181.957 123.282 181.957 99.1245Z" fill="#FFCF8D"/>
<path d="M206.823 63.2941C203.441 58.2123 201.648 57.5771 201.648 51.4676V32.6536C201.834 30.5611 201.76 19.9116 201.685 13.7088C201.666 11.2052 199.63 9.91608 197.126 9.91608C196.379 9.91608 195.557 9.91608 194.641 9.91608C194.641 9.91608 194.361 21.2755 194.212 28.1136C194.156 30.6919 192.157 32.8217 189.578 33.0273C176.575 34.0548 123.963 38.0904 105.578 39.5103C101.954 39.7906 98.6842 37.3057 98.0116 33.7185L97.3764 30.3742C97.3764 30.1874 97.5259 30.0566 97.7127 30.0566C100.44 30.2621 119.329 30.3742 119.591 25.9089C119.778 22.6954 84.1113 23.5735 84.1113 23.5735C83.1771 23.4801 82.6913 24.6572 83.42 25.255L88.67 29.5335C89.1371 29.9258 89.7349 30.1127 90.3515 30.0753L92.1824 30.2248C92.3319 30.2248 92.4627 30.3182 92.5 30.4677L93.9013 37.3244C94.4805 40.1269 93.7145 43.0602 91.8274 45.2087C82.4858 55.8956 55.283 87.0405 47.3239 96.3448C46.1843 97.6713 46.9876 102.006 48.7252 102.211C61.4298 103.687 114.733 111.815 122.094 108.078C139.993 98.9978 178.723 64.9009 189.317 55.4472C190.755 54.158 192.997 54.4383 194.081 56.0263C196.304 59.2772 199.723 64.2843 201.367 66.4703L225.151 101.034L227.86 98.101L206.823 63.2941ZM109.614 103.762C93.21 102.996 68.4173 100.829 53.9565 99.5023C52.5926 99.3715 51.9387 97.746 52.8542 96.7185C63.952 84.182 86.0543 60.6972 93.1913 53.1118C94.2563 51.9908 96.1246 52.3644 96.6664 53.803C99.7492 61.9489 108.101 84.2941 112.715 99.7638C113.332 101.819 111.744 103.855 109.614 103.762ZM191.297 45.8813C191.297 45.8813 125.85 107.648 119.684 102.791C116.34 100.175 105.485 61.4258 102.346 49.3377C101.879 47.5068 103.15 45.6945 105.018 45.5264L189.261 37.7728C193.502 38.1278 193.763 43.0415 191.297 45.8813Z" fill="#D64204"/>
<path d="M119.554 25.9109C119.741 22.6974 84.0744 23.5755 84.0744 23.5755C83.1402 23.4821 82.6545 24.6591 83.3831 25.257L88.6331 29.5354C89.1002 29.9278 89.698 30.1146 90.3146 30.0773L92.1456 30.2267C92.2577 30.2267 92.3698 30.2828 92.4258 30.3762C93.3786 30.3949 97.3582 30.3762 97.3582 30.3762C97.3582 30.1893 97.5076 30.0586 97.6945 30.0586C100.422 30.2828 119.311 30.3949 119.554 25.9109Z" fill="#6E6E6E"/>
<path d="M143.953 97.467C144.084 97.5791 144.252 97.6725 144.402 97.7846C144.701 98.0275 144.682 98.289 144.346 98.4572C143.729 98.7561 132.986 104.342 131.828 104.922C132.276 105.93 132.575 108.752 132.631 108.901C133.995 108.172 146.905 101.39 148.045 100.83C148.344 100.681 149.558 99.9892 149.801 100.157L143.953 97.467Z" fill="#E14504"/>
<path d="M142.664 95.9721C142.384 95.9347 142.123 95.9907 141.88 96.1215C141.45 96.3457 140.833 96.8502 140.74 97.8217C140.628 98.8306 141.45 99.8769 142.459 99.9703C145.598 100.307 148.736 100.624 151.875 100.96C152.268 100.998 153.146 100.475 153.276 100.363C154.061 99.7274 154.192 98.6438 153.557 97.8404C153.445 97.6909 152.697 96.9996 152.324 96.9623C151.632 96.9249 144.29 96.1402 142.664 95.9721Z" fill="#6E6E6E"/>
<path d="M225.694 106.265C229.635 106.265 232.831 103.07 232.831 99.1283C232.831 95.1866 229.635 91.9913 225.694 91.9913C221.752 91.9913 218.557 95.1866 218.557 99.1283C218.557 103.07 221.752 106.265 225.694 106.265Z" fill="#6E6E6E"/>
<path d="M50.0525 106.974C54.5307 106.974 58.161 103.344 58.161 98.8657C58.161 94.3875 54.5307 90.7571 50.0525 90.7571C45.5743 90.7571 41.944 94.3875 41.944 98.8657C41.944 103.344 45.5743 106.974 50.0525 106.974Z" fill="#6E6E6E"/>
<path d="M122.057 117.588C128.269 117.588 133.304 112.552 133.304 106.34C133.304 100.129 128.269 95.0931 122.057 95.0931C115.845 95.0931 110.81 100.129 110.81 106.34C110.81 112.552 115.845 117.588 122.057 117.588Z" fill="#6E6E6E"/>
<path d="M117.273 119.174C130.426 121.528 135.303 115.437 136.536 109.365C137.787 103.274 133.845 94.6615 125.569 93.7086L51.4148 87.2256C45.7911 86.7398 40.7093 90.5325 39.5883 96.0627C38.3178 102.303 42.5589 108.338 48.8552 109.253L117.273 119.174Z" stroke="#D64204" stroke-width="0.3577" stroke-miterlimit="10"/>
<path d="M170.839 12.1376V12.8663C170.839 14.473 172.147 15.7809 173.754 15.7809H201.742L201.816 11.9882C201.854 10.4561 200.602 9.18567 199.07 9.18567L173.754 9.22304C172.129 9.24172 170.839 10.5309 170.839 12.1376Z" fill="#6E6E6E"/>
</svg>
