<svg width="216" height="216" viewBox="0 0 216 216" fill="none" xmlns="http://www.w3.org/2000/svg">
<path d="M108.475 192.595C157.209 192.595 196.715 186.642 196.715 179.298C196.715 171.954 157.209 166 108.475 166C59.7409 166 20.2344 171.954 20.2344 179.298C20.2344 186.642 59.7409 192.595 108.475 192.595Z" fill="#F4F1EF"/>
<path d="M76.7751 171.439C76.5025 175.926 89.0643 180.274 104.863 181.169C120.662 182.065 133.682 179.121 133.955 174.634L134.327 168.67C134.384 167.775 133.723 167.032 132.829 166.981L78.8468 163.965C77.9525 163.913 77.2049 164.58 77.1476 165.475L76.7751 171.439Z" fill="#BFBFBF"/>
<path d="M111.794 70.8315C62.7582 68.0833 22.3443 76.4865 21.7856 85.4464C21.7574 85.7718 21.5958 89.4721 21.6895 89.8106C22.8363 99.361 19.7205 167.282 105.449 172.074C191.178 176.867 196.556 109.088 198.892 99.729C199.015 99.4169 199.325 95.7296 199.34 95.3908C199.926 86.4308 160.831 73.5797 111.794 70.8315Z" fill="#DCDCDC"/>
<path d="M170.388 108.783C197.955 104.367 163.002 92.7761 148.972 89.7878C147.523 89.4809 146.072 89.7975 144.701 90.412C142.801 91.2858 142.142 89.5397 141.677 86.9257C140.826 82.1311 136.228 79.3007 131.899 80.8196C125.739 82.9816 118.593 84.3745 115.408 80.2925C113.546 77.9136 110.473 77.0431 107.691 77.9876C98.845 80.9718 89.0083 80.3274 80.6331 76.2765C77.1423 74.6078 73.1261 76.0036 70.9325 79.4669C66.9948 85.7277 62.0338 86.0155 53.7347 83.5093C51.5821 82.8525 49.2362 83.2534 47.3479 84.6014C7.30089 112.79 142.579 116.792 169.588 108.935C169.859 108.88 170.13 108.825 170.388 108.783Z" fill="#BFBFBF"/>
<path d="M68.1106 75.5314C65.6314 79.6603 63.6223 84.4296 63.763 88.9354L60.7081 74.2359C59.2074 74.1221 57.7109 74.089 56.204 74.17C54.9395 74.2385 53.6838 74.3998 52.4374 74.5849L51.7977 89.9184C51.1576 85.1546 48.0721 80.4953 44.7138 76.6844C45.0272 76.713 41.4305 76.9653 39.9974 77.9378C49.7257 95.4404 52.0789 119.096 52.0789 119.096C52.6835 126.58 60.6856 125.017 60.6856 125.017C60.6856 125.017 68.8329 125.266 68.2283 117.782C68.2283 117.782 66.8113 95.6424 72.8189 77.1385C71.2677 76.5087 69.7013 75.9809 68.1106 75.5314Z" fill="#65E5DD"/>
<path d="M49.4492 80.9607C89.2152 97.5711 97.972 59.5021 75.8718 60.4228C77.3464 47.4004 62.4561 51.4778 53.5922 50.2043C50.3931 49.7517 47.0806 50.7309 44.9189 53.1422C44.0608 54.1096 43.4083 55.2164 43.0594 56.3969C33.4023 51.7244 22.1173 65.4093 32.7546 71.4294C19.1511 78.9737 29.0907 96.4899 49.4492 80.9607ZM48.0644 65.9654C48.2467 66.0452 48.4363 66.1085 48.6259 66.1717C48.4119 66.1867 48.2027 66.2136 47.9815 66.2451C48.0131 66.1503 48.0328 66.0602 48.0644 65.9654Z" fill="#00A878"/>
<path d="M187.164 63.2641C187.35 63.1268 187.276 62.7415 187.037 62.687C184.456 62.0796 169.215 60.6558 167.734 66.8148C166.066 73.7015 184.387 65.2363 187.164 63.2641Z" fill="#00A878"/>
<path d="M168.723 74.6966L165.918 74.5726L166.555 59.6829C166.572 59.3035 166.893 59.0149 167.266 59.0212L168.691 59.0846C169.07 59.102 169.359 59.4229 169.353 59.7958L168.723 74.6966Z" fill="#00A878"/>
<path d="M161.255 72.5084C160.39 72.3425 159.49 72.2418 158.608 72.2489C145.121 72.3533 145.409 82.7797 144.973 92.7966C144.442 105.158 155.152 117.515 164.452 112.795C164.964 112.53 165.47 112.282 165.988 112.027C166.47 112.325 166.963 112.616 167.452 112.925C176.317 118.429 188.043 107.035 188.567 94.6623C189.004 84.4676 188.68 74.0034 175.992 72.9078C175.353 72.8487 174.7 72.8707 174.052 72.9497C169.784 73.4639 165.465 73.3276 161.255 72.5084Z" fill="#D64204"/>
<path d="M103.035 33.0488C103.159 32.7819 102.844 32.4164 102.557 32.4976C99.4015 33.3804 82.0686 40.951 84.1351 48.4858C86.4505 56.9286 101.206 36.8424 103.035 33.0488Z" fill="#00A878"/>
<path d="M89.927 56.4271L86.8296 57.9746L78.6387 41.5017C78.4167 41.069 78.6024 40.5455 79.0351 40.3234L80.5693 39.5638C81.002 39.3417 81.5255 39.5274 81.7475 39.9601L89.927 56.4271Z" fill="#00A878"/>
<path d="M123.342 73.9769C120.975 72.7606 119.042 70.8473 117.902 68.4373C117.824 68.2816 117.758 68.1318 117.68 67.976C110.87 54.2832 98.9502 50.6952 88.9314 55.6809C88.6604 55.8139 88.4179 55.9474 88.1696 56.0923C87.9103 56.2026 87.6511 56.3129 87.38 56.446C77.3613 61.4316 73.0277 73.0938 79.8491 86.7925C79.9268 86.9482 80.0044 87.1039 80.0879 87.2483C81.3207 89.6197 81.6786 92.3149 81.2251 94.9343C80.2549 100.544 80.9961 106.496 83.7245 111.981C90.5346 125.674 111.821 131.493 119.057 120.821C119.315 120.436 119.567 120.062 119.813 119.7C120.248 119.724 120.7 119.743 121.163 119.767C134.039 120.435 142.237 99.9526 135.427 86.2598C132.688 80.7687 128.388 76.5862 123.342 73.9769Z" fill="#3CDC82"/>
<path d="M135.051 70.3222C133.793 69.6792 133.298 68.1296 133.945 66.8835L143.293 48.6829C143.936 47.4245 145.486 46.9298 146.732 47.5761C147.978 48.2224 148.485 49.7687 147.839 51.0147L138.49 69.2154C137.847 70.4738 136.31 70.9651 135.051 70.3222Z" fill="#FFCF8D"/>
<path d="M133.741 69.8274C133.631 69.7641 133.521 69.7008 133.408 69.6251C132.262 68.8065 131.993 67.2096 132.824 66.0598C133.072 65.7018 138.783 57.4561 132.066 51.4677C131.008 50.5328 130.918 48.9143 131.866 47.8525C132.801 46.794 134.419 46.7047 135.481 47.6521C143.626 54.9136 140.028 64.8182 137.002 69.0464C136.234 70.0865 134.846 70.3923 133.741 69.8274Z" fill="#FFCF8D"/>
<path d="M136.394 71.0266C135.289 70.4617 134.727 69.1553 135.14 67.9318C136.802 63.0097 142.763 54.3129 153.401 56.6943C154.781 57.0001 155.652 58.3696 155.346 59.7495C155.04 61.1295 153.671 61.9998 152.291 61.694C143.428 59.711 140.121 69.167 139.991 69.5726C139.542 70.9115 138.092 71.6311 136.753 71.1819C136.619 71.1252 136.5 71.0775 136.394 71.0266Z" fill="#FFCF8D"/>
<path fill-rule="evenodd" clip-rule="evenodd" d="M105.658 121.523C103.461 129.688 106.009 130.992 111.358 124.459L143.002 85.7543C148.347 79.2093 146.592 70.7788 139.066 66.9144L136.255 65.4689C128.729 61.6045 120.856 65.0918 118.659 73.2567L105.658 121.523Z" fill="#FF9F1A"/>
<path d="M198.089 94.1106C116.207 132.492 47.12 103.706 22.8114 84.5151L28.5687 120.338L72.7079 138.25L116.847 144.647L187.854 122.897L198.089 94.1106Z" fill="#DCDCDC"/>
</svg>
