<svg width="36" height="36" viewBox="0 0 36 36" fill="none" xmlns="http://www.w3.org/2000/svg">
<circle cx="18" cy="18" r="18" fill="#F0A282"/>
<path d="M26.9981 22.1753C27.1129 28.7364 22.0607 27.4777 16.3744 27.5894C11.1994 27.6901 8.22876 23.5992 9.17439 19.469C10.323 14.4529 11.5754 12.8229 13.6508 11.6428C18.2231 9.04036 21.7303 11.1 23.3965 13.0353C25.7315 15.7447 26.9336 18.5029 26.9981 22.1753Z" fill="white"/>
<path d="M15.6034 17.3543C15.6034 17.7461 15.2855 17.9695 14.8938 17.9695C14.502 17.9695 14.1841 17.7461 14.1841 17.3543C14.1841 16.9625 14.502 16.6447 14.8938 16.6447C15.2855 16.6447 15.6034 16.9625 15.6034 17.3543Z" fill="#F0A282"/>
<path d="M21.4502 17.3543C21.4502 17.7461 21.1324 17.9695 20.7406 17.9695C20.3488 17.9695 20.031 17.7461 20.031 17.3543C20.031 16.9625 20.3488 16.6447 20.7406 16.6447C21.1324 16.6447 21.4502 16.9625 21.4502 17.3543Z" fill="#F0A282"/>
<path d="M18.3993 19.1983C18.3993 19.4264 18.1381 19.4736 17.8171 19.4736C17.4961 19.4736 17.2349 19.4264 17.2349 19.1983C17.2349 18.9701 17.4961 19.1794 17.8171 19.1794C18.1396 19.1794 18.3993 18.9701 18.3993 19.1983Z" fill="#F0A282"/>
<path d="M16.7677 11.1974C16.7551 11.1974 16.741 11.1959 16.7284 11.1927C16.6403 11.1707 16.5852 11.081 16.6072 10.9929C16.9471 9.60356 16.6544 8.92698 16.3445 8.21108C16.1808 7.83346 16.0125 7.44482 15.9527 6.95549C15.9417 6.86423 16.0062 6.78241 16.0959 6.7714C16.1871 6.76038 16.2689 6.82489 16.2799 6.91458C16.335 7.35671 16.4861 7.70758 16.6481 8.07891C16.966 8.8137 17.2948 9.57366 16.9282 11.0716C16.9093 11.1471 16.8417 11.1974 16.7677 11.1974Z" fill="white"/>
<path d="M17.8769 8.62015C17.8769 8.62015 17.9068 9.55161 16.7535 9.44934C16.7551 9.45091 16.8196 9.0371 17.8769 8.62015Z" fill="white"/>
<path d="M16.3351 6.87051C16.3351 6.87051 17.8062 7.65565 18.1791 6.92716C18.552 6.19866 16.5286 6.35286 16.3351 6.87051Z" fill="white"/>
<path d="M15.9778 6.79503C15.9778 6.79503 17.6047 7.16635 17.7731 6.36706C17.9414 5.56618 16.0297 6.2459 15.9778 6.79503Z" fill="white"/>
<path d="M16.1037 6.91155C16.1037 6.91155 16.4845 8.57465 17.1311 7.97046C17.7778 7.36627 16.5175 6.44424 16.1037 6.91155Z" fill="white"/>
<path d="M16.2579 6.83597C16.2579 6.83597 14.3194 7.52513 14.985 8.10886C15.6505 8.6926 16.7629 7.20415 16.2579 6.83597Z" fill="white"/>
<path d="M16.1321 6.86904C16.1321 6.86904 14.6027 8.08844 14.0898 7.4512C13.5784 6.8124 15.8378 6.40173 16.1321 6.86904Z" fill="white"/>
<path d="M16.1623 7.21219C16.6114 7.15483 16.9534 6.93573 16.9262 6.72284C16.899 6.50994 16.5129 6.38385 16.0638 6.44121C15.6148 6.49857 15.2728 6.71766 15.3 6.93056C15.3272 7.14346 15.7132 7.26955 16.1623 7.21219Z" fill="white"/>
</svg>
