<svg width="36" height="36" viewBox="0 0 36 36" fill="none" xmlns="http://www.w3.org/2000/svg">
<circle cx="18" cy="18" r="18" fill="#9DEDC0"/>
<path d="M26.9981 22.1753C27.1129 28.7365 22.0607 27.4778 16.3744 27.5895C11.1994 27.6902 8.22876 23.5993 9.17439 19.469C10.323 14.453 11.5754 12.8229 13.6508 11.6429C18.2231 9.04042 21.7303 11.1 23.3965 13.0353C25.7315 15.7448 26.9336 18.503 26.9981 22.1753Z" fill="white"/>
<path d="M15.6033 17.3541C15.6033 17.7459 15.2855 17.9694 14.8937 17.9694C14.5019 17.9694 14.1841 17.7459 14.1841 17.3541C14.1841 16.9624 14.5019 16.6445 14.8937 16.6445C15.2855 16.6445 15.6033 16.9624 15.6033 17.3541Z" fill="#9DEDC0"/>
<path d="M21.4502 17.3541C21.4502 17.7459 21.1324 17.9694 20.7406 17.9694C20.3488 17.9694 20.031 17.7459 20.031 17.3541C20.031 16.9624 20.3488 16.6445 20.7406 16.6445C21.1324 16.6445 21.4502 16.9624 21.4502 17.3541Z" fill="#9DEDC0"/>
<path d="M18.3993 19.1983C18.3993 19.4265 18.1381 19.4737 17.8171 19.4737C17.4962 19.4737 17.235 19.4265 17.235 19.1983C17.235 18.9702 17.4962 19.1795 17.8171 19.1795C18.1397 19.1795 18.3993 18.9702 18.3993 19.1983Z" fill="#9DEDC0"/>
<path d="M16.7677 11.1973C16.7551 11.1973 16.7409 11.1957 16.7283 11.1926C16.6402 11.1705 16.5852 11.0808 16.6072 10.9927C16.947 9.6034 16.6544 8.92683 16.3444 8.21093C16.1808 7.8333 16.0124 7.44467 15.9526 6.95533C15.9416 6.86408 16.0061 6.78226 16.0958 6.77124C16.1871 6.76023 16.2689 6.82474 16.2799 6.91443C16.335 7.35656 16.486 7.70743 16.6481 8.07876C16.9659 8.81354 17.2948 9.57351 16.9282 11.0714C16.9093 11.1469 16.8416 11.1973 16.7677 11.1973Z" fill="white"/>
<path d="M17.877 8.62012C17.877 8.62012 17.9069 9.55158 16.7535 9.44931C16.7551 9.45088 16.8196 9.03707 17.877 8.62012Z" fill="white"/>
<path d="M16.3351 6.87036C16.3351 6.87036 17.8062 7.6555 18.1791 6.927C18.552 6.19851 16.5286 6.35271 16.3351 6.87036Z" fill="white"/>
<path d="M15.9778 6.79503C15.9778 6.79503 17.6047 7.16635 17.773 6.36706C17.9414 5.56618 16.0297 6.2459 15.9778 6.79503Z" fill="white"/>
<path d="M16.1036 6.9113C16.1036 6.9113 16.4844 8.57441 17.1311 7.97021C17.7778 7.36602 16.5174 6.444 16.1036 6.9113Z" fill="white"/>
<path d="M16.2578 6.83594C16.2578 6.83594 14.3194 7.5251 14.985 8.10883C15.6505 8.69257 16.7629 7.20412 16.2578 6.83594Z" fill="white"/>
<path d="M16.1321 6.86904C16.1321 6.86904 14.6027 8.08844 14.0898 7.4512C13.5784 6.8124 15.8379 6.40173 16.1321 6.86904Z" fill="white"/>
<path d="M16.1623 7.21203C16.6114 7.15467 16.9534 6.93558 16.9262 6.72268C16.899 6.50978 16.5129 6.3837 16.0638 6.44106C15.6148 6.49842 15.2728 6.71751 15.3 6.93041C15.3272 7.14331 15.7132 7.2694 16.1623 7.21203Z" fill="white"/>
</svg>
