<svg width="36" height="36" viewBox="0 0 36 36" fill="none" xmlns="http://www.w3.org/2000/svg">
<circle cx="18" cy="18" r="18" transform="rotate(-90 18 18)" fill="#F0A282"/>
<path d="M13.957 20.7669C13.957 20.7669 15.4499 19.3665 14.6093 19.0987C13.7694 18.8316 13.3502 20.6341 13.957 20.7669Z" fill="white"/>
<path d="M14.0582 20.6882C14.0582 20.6882 14.9668 18.9668 15.6878 19.3442C16.4096 19.721 14.5129 20.9962 14.0582 20.6882Z" fill="white"/>
<path d="M13.953 20.5849C13.953 20.5849 15.8759 19.6616 15.9022 20.4683C15.93 21.275 13.909 21.1515 13.953 20.5849Z" fill="white"/>
<path d="M25.9902 19.3101C25.6135 19.4568 23.9978 21.3519 23.0908 19.5062C23.8565 18.0132 24.8662 12.7693 28.259 13.7327C30.0499 14.2407 25.9092 19.2978 25.9902 19.3101Z" fill="white"/>
<path d="M10.2531 22.6846C10.3604 22.2947 11.5384 18.6272 12.2872 17.321C10.3936 17.7201 6.06443 19.2833 7.18144 23.4936C7.98196 26.5088 10.2322 22.605 10.2531 22.6846Z" fill="white"/>
<path d="M22.8128 8.10466C22.8128 8.10466 18.9075 13.655 14.2333 12.0162C14.2333 12.0162 15.8984 7.78816 22.8128 8.10466Z" fill="white"/>
<path d="M18.6513 6.16601C18.6513 6.16601 19.099 9.97252 14.6595 12.0074C14.6595 12.0074 14.0952 10.472 18.6513 6.16601Z" fill="white"/>
<path d="M22.9711 10.3C22.9711 10.3 19.0658 15.8504 14.3916 14.2115C14.3916 14.2115 16.0567 9.98272 22.9711 10.3Z" fill="white"/>
<path d="M25.3131 23.4256C26.5143 20.6535 25.2436 15.4351 23.5739 13.4666C21.8563 11.441 18.9653 9.16755 14.1838 11.9999C12.5125 12.9895 9.37533 14.0502 9.6818 18.773C9.75127 19.8468 9.67949 22.2337 10.1558 23.4263C10.4862 24.2547 11.4843 24.6375 11.0127 26.1537C10.5966 27.4891 10.9617 32.6342 15.2715 30.6542C18.4705 29.1844 21.9991 31.7442 23.066 31.044C25.4142 29.5039 24.112 26.1969 25.3131 23.4256Z" fill="white"/>
<path d="M14.7189 17.9579C15.0455 17.9579 15.3103 17.6932 15.3103 17.3666C15.3103 17.0401 15.0455 16.7753 14.7189 16.7753C14.3923 16.7753 14.1276 17.0401 14.1276 17.3666C14.1276 17.6932 14.3923 17.9579 14.7189 17.9579Z" fill="#F0A282"/>
<path d="M19.5891 17.9579C19.9157 17.9579 20.1804 17.6932 20.1804 17.3666C20.1804 17.0401 19.9157 16.7753 19.5891 16.7753C19.2625 16.7753 18.9978 17.0401 18.9978 17.3666C18.9978 17.6932 19.2625 17.9579 19.5891 17.9579Z" fill="#F0A282"/>
<path d="M18.7037 18.5453C18.7037 18.7398 19.1298 20.1363 17.1204 20.1363C15.111 20.1363 15.5371 18.7406 15.5371 18.5453C15.5371 18.35 18.7037 18.35 18.7037 18.5453Z" fill="#F0A282"/>
<path d="M17.3258 18.8712H16.9298C16.902 18.8712 16.8797 18.8488 16.8797 18.821V18.3972H17.3753V18.821C17.376 18.8488 17.3536 18.8712 17.3258 18.8712Z" fill="white"/>
<path d="M17.7162 18.7654H17.3202C17.2924 18.7654 17.27 18.743 17.27 18.7152V18.3972H17.7656V18.7152C17.7656 18.743 17.7432 18.7654 17.7162 18.7654Z" fill="white"/>
<path d="M12.1766 8.79632C12.1766 8.79632 13.2257 8.44894 14.0556 9.38146C14.0548 9.38146 13.6542 9.61305 12.1766 8.79632Z" fill="white"/>
<path d="M14.735 7.79266C14.735 7.79266 15.774 9.23931 14.3328 10.2112C14.3328 10.2104 13.9622 9.49096 14.735 7.79266Z" fill="white"/>
<path d="M15.0438 11.3706C15.0083 11.3806 14.9689 11.3798 14.9326 11.3644C14.7528 11.288 13.713 10.1887 13.4435 7.16727C13.4358 7.08081 13.4991 7.00516 13.5856 6.99744C13.672 6.98972 13.7477 7.05302 13.7554 7.13948C14.0264 10.1787 15.0562 11.0749 15.0662 11.0819C15.1457 11.1158 15.1774 11.2046 15.1434 11.2841C15.1256 11.3273 15.0878 11.3574 15.0438 11.3706Z" fill="white"/>
<path d="M13.1866 6.47426C13.1866 6.47426 11.4767 6.35769 11.425 7.07252C11.3732 7.78735 13.2066 6.9575 13.1866 6.47426Z" fill="white"/>
<path d="M13.1647 6.47038C13.1647 6.47038 11.5822 7.48242 12.1743 7.87611C12.7664 8.27058 13.6094 6.69965 13.1647 6.47038Z" fill="white"/>
<path d="M13.4682 6.39009C13.4682 6.39009 12.2995 7.76263 13.0615 7.91393C13.8234 8.06524 14.0125 6.44722 13.4682 6.39009Z" fill="white"/>
<path d="M13.5353 6.2271C13.5353 6.2271 12.1142 5.11857 11.9953 5.88589C11.8764 6.65322 13.5021 6.77364 13.5353 6.2271Z" fill="white"/>
<path d="M13.5471 6.46494C13.5471 6.46494 14.9343 5.31473 14.2109 5.03373C13.4876 4.75274 13.0206 6.31518 13.5471 6.46494Z" fill="white"/>
<path d="M13.7113 6.50811C13.7113 6.50811 13.5631 5.04835 13.0359 5.33783C12.5086 5.62731 13.3655 6.74819 13.7113 6.50811Z" fill="white"/>
<path d="M13.6404 6.40096C13.6404 6.40096 14.5321 4.93733 15.1458 5.3071C15.7595 5.67764 14.0233 6.69585 13.6404 6.40096Z" fill="white"/>
<path d="M13.5538 6.30439C13.5538 6.30439 15.2938 5.59651 15.2737 6.30671C15.2536 7.01768 13.4843 6.79999 13.5538 6.30439Z" fill="white"/>
<path d="M13.4468 6.26739C13.4468 6.26739 15.1536 6.84559 14.5777 7.36666C14.0026 7.88773 13.0091 6.59547 13.4468 6.26739Z" fill="white"/>
<path d="M13.5534 6.85763C14.055 6.59784 14.3748 6.21966 14.2678 6.01295C14.1607 5.80624 13.6673 5.84927 13.1657 6.10907C12.664 6.36887 12.3442 6.74705 12.4512 6.95376C12.5583 7.16047 13.0517 7.11743 13.5534 6.85763Z" fill="white"/>
<path d="M7.34518 16.1445C7.34518 16.1445 10.3852 8.99778 16.2073 10.781C16.2073 10.781 16.0984 15.9369 7.34518 16.1445Z" fill="white"/>
</svg>
