<svg width="36" height="36" viewBox="0 0 36 36" fill="none" xmlns="http://www.w3.org/2000/svg">
<circle cx="18" cy="18" r="18" transform="rotate(-90 18 18)" fill="#9DEDC0"/>
<path d="M13.957 20.7669C13.957 20.7669 15.4499 19.3666 14.6093 19.0987C13.7694 18.8316 13.3502 20.6342 13.957 20.7669Z" fill="white"/>
<path d="M14.0582 20.6881C14.0582 20.6881 14.9668 18.9667 15.6878 19.3441C16.4096 19.7209 14.5129 20.9961 14.0582 20.6881Z" fill="white"/>
<path d="M13.953 20.5849C13.953 20.5849 15.8759 19.6616 15.9022 20.4683C15.93 21.275 13.909 21.1515 13.953 20.5849Z" fill="white"/>
<path d="M25.9902 19.3099C25.6135 19.4566 23.9977 21.3517 23.0907 19.506C23.8565 18.013 24.8662 12.7691 28.2589 13.7325C30.0499 14.2405 25.9091 19.2976 25.9902 19.3099Z" fill="white"/>
<path d="M10.2531 22.6843C10.3604 22.2945 11.5384 18.6269 12.2872 17.3208C10.3936 17.7199 6.06443 19.2831 7.18144 23.4934C7.98196 26.5086 10.2322 22.6048 10.2531 22.6843Z" fill="white"/>
<path d="M22.8128 8.10481C22.8128 8.10481 18.9075 13.6552 14.2333 12.0163C14.2333 12.0163 15.8984 7.78831 22.8128 8.10481Z" fill="white"/>
<path d="M18.6512 6.16602C18.6512 6.16602 19.099 9.97253 14.6594 12.0074C14.6594 12.0074 14.0951 10.472 18.6512 6.16602Z" fill="white"/>
<path d="M22.9711 10.3002C22.9711 10.3002 19.0658 15.8506 14.3916 14.2117C14.3916 14.2117 16.0567 9.98293 22.9711 10.3002Z" fill="white"/>
<path d="M25.3131 23.4254C26.5143 20.6533 25.2436 15.4349 23.5739 13.4664C21.8563 11.4408 18.9653 9.1674 14.1838 11.9997C12.5125 12.9893 9.37533 14.05 9.6818 18.7728C9.75127 19.8466 9.67949 22.2335 10.1558 23.4262C10.4862 24.2545 11.4843 24.6374 11.0127 26.1535C10.5966 27.489 10.9617 32.6341 15.2715 30.654C18.4705 29.1842 21.9991 31.744 23.066 31.0438C25.4142 29.5038 24.112 26.1967 25.3131 23.4254Z" fill="white"/>
<path d="M14.7189 17.958C15.0455 17.958 15.3102 17.6933 15.3102 17.3667C15.3102 17.0401 15.0455 16.7754 14.7189 16.7754C14.3923 16.7754 14.1276 17.0401 14.1276 17.3667C14.1276 17.6933 14.3923 17.958 14.7189 17.958Z" fill="#9DEDC0"/>
<path d="M19.5891 17.958C19.9157 17.958 20.1804 17.6933 20.1804 17.3667C20.1804 17.0401 19.9157 16.7754 19.5891 16.7754C19.2625 16.7754 18.9978 17.0401 18.9978 17.3667C18.9978 17.6933 19.2625 17.958 19.5891 17.958Z" fill="#9DEDC0"/>
<path d="M18.7036 18.5454C18.7036 18.7399 19.1297 20.1364 17.1203 20.1364C15.1109 20.1364 15.5371 18.7407 15.5371 18.5454C15.5371 18.3501 18.7036 18.3501 18.7036 18.5454Z" fill="#9DEDC0"/>
<path d="M17.3258 18.871H16.9298C16.902 18.871 16.8796 18.8486 16.8796 18.8208V18.397H17.3752V18.8208C17.376 18.8486 17.3536 18.871 17.3258 18.871Z" fill="white"/>
<path d="M17.7162 18.7652H17.3202C17.2924 18.7652 17.27 18.7428 17.27 18.715V18.397H17.7656V18.715C17.7656 18.7428 17.7432 18.7652 17.7162 18.7652Z" fill="white"/>
<path d="M12.1766 8.79623C12.1766 8.79623 13.2257 8.44885 14.0556 9.38137C14.0548 9.38137 13.6542 9.61296 12.1766 8.79623Z" fill="white"/>
<path d="M14.7349 7.79248C14.7349 7.79248 15.7739 9.23913 14.3327 10.211C14.3327 10.2102 13.9622 9.49078 14.7349 7.79248Z" fill="white"/>
<path d="M15.0438 11.3703C15.0083 11.3804 14.9689 11.3796 14.9326 11.3642C14.7527 11.2877 13.7129 10.1885 13.4435 7.16705C13.4358 7.08059 13.4991 7.00494 13.5855 6.99722C13.672 6.9895 13.7477 7.0528 13.7554 7.13926C14.0263 10.1784 15.0561 11.0747 15.0662 11.0816C15.1457 11.1156 15.1773 11.2044 15.1434 11.2839C15.1256 11.3271 15.0878 11.3572 15.0438 11.3703Z" fill="white"/>
<path d="M13.1865 6.47434C13.1865 6.47434 11.4766 6.35777 11.4249 7.0726C11.3732 7.78743 13.2066 6.95758 13.1865 6.47434Z" fill="white"/>
<path d="M13.1647 6.47021C13.1647 6.47021 11.5821 7.48225 12.1742 7.87595C12.7663 8.27041 13.6093 6.69949 13.1647 6.47021Z" fill="white"/>
<path d="M13.4682 6.39014C13.4682 6.39014 12.2995 7.76267 13.0614 7.91398C13.8233 8.06528 14.0124 6.44726 13.4682 6.39014Z" fill="white"/>
<path d="M13.5353 6.22701C13.5353 6.22701 12.1141 5.11848 11.9952 5.88581C11.8763 6.65313 13.5021 6.77355 13.5353 6.22701Z" fill="white"/>
<path d="M13.547 6.46494C13.547 6.46494 14.9342 5.31473 14.2109 5.03373C13.4876 4.75274 13.0206 6.31518 13.547 6.46494Z" fill="white"/>
<path d="M13.7114 6.50808C13.7114 6.50808 13.5632 5.04831 13.0359 5.3378C12.5087 5.62728 13.3655 6.74816 13.7114 6.50808Z" fill="white"/>
<path d="M13.6404 6.40081C13.6404 6.40081 14.532 4.93718 15.1457 5.30695C15.7594 5.67749 14.0233 6.6957 13.6404 6.40081Z" fill="white"/>
<path d="M13.5538 6.30416C13.5538 6.30416 15.2937 5.59628 15.2737 6.30648C15.2536 7.01745 13.4843 6.79976 13.5538 6.30416Z" fill="white"/>
<path d="M13.4467 6.26758C13.4467 6.26758 15.1535 6.84577 14.5777 7.36684C14.0025 7.88791 13.009 6.59566 13.4467 6.26758Z" fill="white"/>
<path d="M13.5533 6.85775C14.0549 6.59795 14.3748 6.21977 14.2677 6.01306C14.1607 5.80635 13.6672 5.84939 13.1656 6.10919C12.664 6.36898 12.3441 6.74716 12.4512 6.95387C12.5582 7.16058 13.0517 7.11754 13.5533 6.85775Z" fill="white"/>
<path d="M7.34521 16.1444C7.34521 16.1444 10.3852 8.99762 16.2073 10.7808C16.2073 10.7808 16.0984 15.9367 7.34521 16.1444Z" fill="white"/>
</svg>
