<svg width="36" height="36" viewBox="0 0 36 36" fill="none" xmlns="http://www.w3.org/2000/svg">
<circle cx="18" cy="18" r="18" fill="#F0A282"/>
<path d="M24.1974 18.112C24.2377 13.8799 21.495 10.4227 18.0714 10.3901C14.6479 10.3575 11.8399 13.7619 11.7997 17.994C11.7594 22.2262 14.5021 25.6834 17.9256 25.716C21.3491 25.7485 24.1571 22.3441 24.1974 18.112Z" fill="white"/>
<mask id="mask0" mask-type="alpha" maskUnits="userSpaceOnUse" x="10" y="10" width="17" height="14">
<path d="M25.9576 18.0426C26.4927 14.6611 23.5378 11.3836 19.3577 10.7222C15.1775 10.0607 11.3551 12.2657 10.82 15.6472C10.2849 19.0287 13.2398 22.3061 17.42 22.9676C21.6001 23.6291 25.4226 21.424 25.9576 18.0426Z" fill="white"/>
</mask>
<g mask="url(#mask0)">
<path d="M17.1145 14.245C17.0895 14.2515 17.0616 14.2514 17.0342 14.244C16.9532 14.2213 16.9058 14.1367 16.9296 14.0554L17.2125 13.0658L16.7085 11.8172C16.6878 11.7656 16.6967 11.7064 16.7328 11.6631C16.7688 11.6198 16.8255 11.6003 16.8803 11.6103L18.2801 11.8912L19.7964 10.8487C19.8666 10.8015 19.9606 10.8183 20.009 10.8882C20.0574 10.9581 20.0395 11.0524 19.9696 11.1008L18.3998 12.1801C18.3659 12.2035 18.3232 12.2121 18.2836 12.2042L17.0984 11.9659L17.5167 13.0003C17.5298 13.0321 17.5315 13.0668 17.5218 13.0996L17.2254 14.1399C17.2076 14.193 17.1644 14.232 17.1145 14.245Z" fill="white"/>
<path d="M16.837 11.8783C16.829 11.8804 16.8197 11.8816 16.8114 11.8825L15.3715 12.0035C15.2873 12.0108 15.2142 11.9485 15.207 11.8644C15.1997 11.7802 15.262 11.7071 15.3461 11.6998L16.7861 11.5789C16.8702 11.5716 16.9433 11.6339 16.9506 11.718C16.9581 11.7936 16.9085 11.8598 16.837 11.8783Z" fill="white"/>
</g>
</svg>
