<svg width="36" height="36" viewBox="0 0 36 36" fill="none" xmlns="http://www.w3.org/2000/svg">
<path d="M24.1973 18.1123C24.2376 13.8801 21.4949 10.4229 18.0714 10.3903C14.6478 10.3578 11.8399 13.7622 11.7996 17.9943C11.7593 22.2264 14.502 25.6836 17.9255 25.7162C21.3491 25.7488 24.1571 22.3444 24.1973 18.1123Z" fill="white"/>
<mask id="mask0" mask-type="alpha" maskUnits="userSpaceOnUse" x="10" y="10" width="17" height="14">
<path d="M25.9577 18.0427C26.4928 14.6612 23.5379 11.3837 19.3577 10.7223C15.1776 10.0608 11.3551 12.2658 10.82 15.6473C10.285 19.0288 13.2399 22.3062 17.42 22.9677C21.6002 23.6292 25.4226 21.4241 25.9577 18.0427Z" fill="white"/>
</mask>
<g mask="url(#mask0)">
<path d="M17.1145 14.2445C17.0895 14.251 17.0616 14.251 17.0342 14.2435C16.9532 14.2209 16.9058 14.1362 16.9296 14.0549L17.2125 13.0654L16.7085 11.8168C16.6878 11.7652 16.6967 11.7059 16.7328 11.6626C16.7688 11.6194 16.8255 11.5998 16.8803 11.6099L18.2801 11.8907L19.7964 10.8483C19.8666 10.801 19.9606 10.8179 20.009 10.8877C20.0574 10.9576 20.0395 11.0519 19.9696 11.1003L18.3998 12.1797C18.3659 12.203 18.3232 12.2116 18.2836 12.2037L17.0984 11.9654L17.5167 12.9999C17.5298 13.0316 17.5315 13.0663 17.5218 13.0991L17.2254 14.1394C17.2076 14.1925 17.1644 14.2316 17.1145 14.2445Z" fill="white"/>
<path d="M16.837 11.8781C16.829 11.8802 16.8197 11.8814 16.8114 11.8823L15.3715 12.0033C15.2873 12.0106 15.2142 11.9483 15.207 11.8641C15.1997 11.78 15.262 11.7069 15.3461 11.6996L16.7861 11.5786C16.8702 11.5714 16.9433 11.6336 16.9506 11.7178C16.9581 11.7934 16.9085 11.8596 16.837 11.8781Z" fill="white"/>
</g>
</svg>
