<svg width="36" height="36" viewBox="0 0 36 36" fill="none" xmlns="http://www.w3.org/2000/svg">
<path d="M26.3154 20.892C26.0453 20.6333 23.3209 18.2074 21.9914 17.3535C24.2136 17.5639 29.5497 18.4812 29.9827 21.3412C30.2936 23.3899 26.3059 20.838 26.3154 20.892Z" fill="white"/>
<path d="M9.67126 20.8911C10.0361 20.6589 13.6229 18.5154 15.212 17.835C13.15 17.618 7.99491 17.5554 6.21621 20.6456C4.94354 22.8602 9.70633 20.8333 9.67126 20.8911Z" fill="white"/>
<path d="M12.2042 6C12.2042 6 18.5297 6.62828 19.2423 12.0952C19.2432 12.0961 15.0917 13.455 12.2042 6Z" fill="white"/>
<path d="M28.059 22.901C28.7081 27.4865 25.0294 27.6666 18.2492 28.0276C11.937 28.3631 8.40897 25.362 8.14647 21.525C7.77879 16.1434 11.4585 13.6009 13.6844 12.4581C20.0544 9.18877 24.1472 11.8279 25.2351 13.2598C27.5056 16.2458 27.5198 19.0887 28.059 22.901Z" fill="white"/>
<path d="M22.1449 9.57726C22.1449 9.57726 21.2077 11.0698 19.7787 10.1127C19.7777 10.1127 20.2989 9.50429 22.1449 9.57726Z" fill="white"/>
<path d="M19.5389 11.3105C19.538 11.3105 19.537 11.3105 19.5361 11.3105C19.4262 11.3086 19.338 11.2186 19.3399 11.1087C19.3399 11.0859 19.4015 8.84859 21.9184 7.85642C22.0208 7.81567 22.1364 7.86589 22.1771 7.96919C22.2179 8.07153 22.1677 8.18714 22.0644 8.22789C19.7938 9.1234 19.7389 11.0954 19.7389 11.1153C19.737 11.2233 19.6479 11.3105 19.5389 11.3105Z" fill="white"/>
<path d="M15.5181 19.9093C15.919 19.9093 16.244 19.5843 16.244 19.1834C16.244 18.7825 15.919 18.4576 15.5181 18.4576C15.1172 18.4576 14.7923 18.7825 14.7923 19.1834C14.7923 19.5843 15.1172 19.9093 15.5181 19.9093Z" fill="#F0A282"/>
<path d="M21.4977 19.9093C21.8986 19.9093 22.2236 19.5843 22.2236 19.1834C22.2236 18.7825 21.8986 18.4576 21.4977 18.4576C21.0968 18.4576 20.7718 18.7825 20.7718 19.1834C20.7718 19.5843 21.0968 19.9093 21.4977 19.9093Z" fill="#F0A282"/>
<path d="M19.013 20.783C19.013 20.9811 18.7865 21.0218 18.5079 21.0218C18.2293 21.0218 18.0028 20.9811 18.0028 20.783C18.0028 20.585 18.2293 20.7669 18.5079 20.7669C18.7875 20.7669 19.013 20.585 19.013 20.783Z" fill="#F0A282"/>
<path d="M22.2179 7.87722C22.2179 7.87722 21.8569 6.21982 21.1632 6.36859C20.4696 6.51737 21.764 8.02979 22.2179 7.87722Z" fill="white"/>
<path d="M22.1619 7.76925C22.1619 7.76925 20.5671 6.81404 20.4789 7.51244C20.3917 8.2099 22.1553 8.26486 22.1619 7.76925Z" fill="white"/>
<path d="M22.3723 8.01083C22.3723 8.01083 23.4431 6.58465 22.6822 6.48041C21.9203 6.37712 21.8312 7.98809 22.3723 8.01083Z" fill="white"/>
<path d="M22.2378 7.94833C22.2378 7.94833 23.7625 8.87417 23.791 8.10659C23.8184 7.33806 22.2075 7.40724 22.2378 7.94833Z" fill="white"/>
<path d="M22.3278 8.01463C22.3278 8.01463 23.9852 8.37473 23.8374 9.06934C23.6886 9.76301 22.1753 8.46855 22.3278 8.01463Z" fill="white"/>
<path d="M22.3894 7.9019C22.3894 7.9019 23.6137 9.3006 22.9428 9.51098C22.2719 9.72324 21.9033 7.99761 22.3894 7.9019Z" fill="white"/>
<path d="M22.3894 7.79105C22.3894 7.79105 22.4007 9.57449 21.727 9.20491C21.0532 8.83344 21.9411 7.48686 22.3894 7.79105Z" fill="white"/>
<path d="M22.817 8.53956C22.9454 8.40456 22.8186 8.07555 22.5338 7.8047C22.249 7.53385 21.9141 7.42374 21.7857 7.55874C21.6573 7.69375 21.7841 8.02274 22.0689 8.29359C22.3537 8.56444 22.6886 8.67457 22.817 8.53956Z" fill="white"/>
</svg>
