<svg width="36" height="36" viewBox="0 0 36 36" fill="none" xmlns="http://www.w3.org/2000/svg">
<circle cx="18" cy="18" r="18" fill="#9DEDC0"/>
<path d="M26.3154 20.892C26.0453 20.6333 23.3209 18.2073 21.9913 17.3535C24.2135 17.5639 29.5496 18.4812 29.9827 21.3411C30.2935 23.3899 26.3059 20.8379 26.3154 20.892Z" fill="white"/>
<path d="M9.67126 20.8911C10.0361 20.6589 13.6229 18.5154 15.212 17.835C13.15 17.618 7.99491 17.5554 6.21621 20.6456C4.94354 22.8603 9.70633 20.8333 9.67126 20.8911Z" fill="white"/>
<path d="M12.2042 6C12.2042 6 18.5297 6.62828 19.2423 12.0952C19.2432 12.0961 15.0917 13.455 12.2042 6Z" fill="white"/>
<path d="M28.059 22.901C28.7081 27.4866 25.0294 27.6666 18.2491 28.0277C11.937 28.3631 8.40894 25.362 8.14644 21.525C7.77876 16.1435 11.4584 13.601 13.6844 12.4581C20.0544 9.1888 24.1472 11.8279 25.2351 13.2598C27.5056 16.2458 27.5198 19.0887 28.059 22.901Z" fill="white"/>
<path d="M22.1449 9.57736C22.1449 9.57736 21.2077 11.0699 19.7787 10.1128C19.7777 10.1128 20.2989 9.5044 22.1449 9.57736Z" fill="white"/>
<path d="M19.539 11.3105C19.538 11.3105 19.5371 11.3105 19.5362 11.3105C19.4262 11.3086 19.3381 11.2186 19.34 11.1087C19.34 11.086 19.4016 8.8486 21.9185 7.85643C22.0208 7.81568 22.1364 7.86591 22.1772 7.9692C22.2179 8.07154 22.1677 8.18716 22.0644 8.2279C19.7939 9.12341 19.7389 11.0954 19.7389 11.1153C19.737 11.2234 19.648 11.3105 19.539 11.3105Z" fill="white"/>
<path d="M15.5181 19.9093C15.919 19.9093 16.244 19.5843 16.244 19.1834C16.244 18.7825 15.919 18.4575 15.5181 18.4575C15.1172 18.4575 14.7922 18.7825 14.7922 19.1834C14.7922 19.5843 15.1172 19.9093 15.5181 19.9093Z" fill="#9DEDC0"/>
<path d="M21.4977 19.9093C21.8986 19.9093 22.2236 19.5843 22.2236 19.1834C22.2236 18.7825 21.8986 18.4575 21.4977 18.4575C21.0969 18.4575 20.7719 18.7825 20.7719 19.1834C20.7719 19.5843 21.0969 19.9093 21.4977 19.9093Z" fill="#9DEDC0"/>
<path d="M19.013 20.7828C19.013 20.9809 18.7865 21.0216 18.5079 21.0216C18.2293 21.0216 18.0028 20.9809 18.0028 20.7828C18.0028 20.5848 18.2293 20.7667 18.5079 20.7667C18.7875 20.7667 19.013 20.5848 19.013 20.7828Z" fill="#9DEDC0"/>
<path d="M22.2179 7.87745C22.2179 7.87745 21.8569 6.22005 21.1632 6.36882C20.4696 6.5176 21.764 8.03002 22.2179 7.87745Z" fill="white"/>
<path d="M22.1619 7.76907C22.1619 7.76907 20.5671 6.81386 20.479 7.51226C20.3918 8.20972 22.1553 8.26468 22.1619 7.76907Z" fill="white"/>
<path d="M22.3723 8.01077C22.3723 8.01077 23.4431 6.58459 22.6821 6.48035C21.9202 6.37706 21.8312 7.98803 22.3723 8.01077Z" fill="white"/>
<path d="M22.2378 7.9482C22.2378 7.9482 23.7626 8.87403 23.791 8.10645C23.8185 7.33792 22.2075 7.4071 22.2378 7.9482Z" fill="white"/>
<path d="M22.3278 8.01465C22.3278 8.01465 23.9852 8.37475 23.8374 9.06936C23.6886 9.76302 22.1752 8.46856 22.3278 8.01465Z" fill="white"/>
<path d="M22.3893 7.90186C22.3893 7.90186 23.6137 9.30056 22.9428 9.51093C22.2718 9.7232 21.9032 7.99757 22.3893 7.90186Z" fill="white"/>
<path d="M22.3893 7.79094C22.3893 7.79094 22.4007 9.57438 21.7269 9.2048C21.0532 8.83333 21.9411 7.48675 22.3893 7.79094Z" fill="white"/>
<path d="M22.817 8.53961C22.9454 8.40461 22.8186 8.07559 22.5338 7.80475C22.249 7.5339 21.9141 7.42378 21.7857 7.55879C21.6573 7.69379 21.7841 8.02279 22.0689 8.29363C22.3537 8.56448 22.6886 8.67462 22.817 8.53961Z" fill="white"/>
</svg>
