<svg width="36" height="36" viewBox="0 0 36 36" fill="none" xmlns="http://www.w3.org/2000/svg">
<circle cx="18" cy="18" r="18" fill="#9DEDC0"/>
<circle cx="18" cy="18" r="18" fill="#9DEDC0"/>
<circle cx="18" cy="18" r="18" fill="#9DEDC0"/>
<path d="M23.1582 5C23.1582 5 25.2755 5.74452 25.4528 8.19791C25.4528 8.19791 24.5204 8.06641 23.1582 5Z" fill="#F9F8F7"/>
<path d="M24.9788 7.89048C24.9788 7.89048 28.1641 7.30603 28.6867 10.3372C28.6867 10.3372 27.2136 10.3937 24.9788 7.89048Z" fill="#F9F8F7"/>
<path d="M19.6794 11.5491C19.7638 11.3963 20.7308 7.36027 25.2265 7.96199" stroke="#F9F8F7" stroke-width="0.3" stroke-miterlimit="10" stroke-linecap="round"/>
<path d="M12.1839 19.6346C12.2755 19.9673 13.2817 23.1008 13.922 24.2173C12.3041 23.8766 8.60543 22.5403 9.55982 18.9439C10.2432 16.3669 12.166 19.7023 12.1839 19.6346Z" fill="#F9F8F7"/>
<path d="M25.1708 19.2343C25.0792 19.567 24.073 22.7005 23.4327 23.817C25.0506 23.4762 28.7493 22.14 27.7949 18.5436C27.1115 15.9673 25.1881 19.3027 25.1708 19.2343Z" fill="#F9F8F7"/>
<path d="M23.8059 9.47106C23.8059 9.47106 20.4692 14.2125 16.4763 12.8131C16.4763 12.8131 17.8983 9.20008 23.8059 9.47106Z" fill="#F9F8F7"/>
<path d="M20.268 6.69971C20.268 6.69971 22.0911 11.9346 16.2791 12.8053C16.2791 12.8053 16.3754 10.3785 20.268 6.69971Z" fill="#F9F8F7"/>
<path d="M25.8954 12.9253C25.8954 12.9253 20.709 15.5168 17.8578 12.3907C17.8578 12.3907 20.8232 9.88479 25.8954 12.9253Z" fill="#F9F8F7"/>
<path d="M24.5678 22.7309C26.5775 19.5529 25.3681 15.5939 23.9415 13.9116C22.4737 12.1808 19.2658 11.2218 15.8089 12.3183C14.2276 12.8204 11.9787 14.4031 12.073 18.4451C12.1521 21.8396 13.942 23.0949 12.5884 25.0183C11.4042 26.7006 12.0843 31.5708 15.7664 29.8792C18.5001 28.6233 22.7341 30.4989 23.6459 29.9005C26.2846 28.1697 22.9267 25.3271 24.5678 22.7309Z" fill="#F9F8F7"/>
<path d="M16.376 17.7488C16.6548 17.7488 16.8807 17.5228 16.8807 17.244C16.8807 16.9652 16.6548 16.7393 16.376 16.7393C16.0972 16.7393 15.8712 16.9652 15.8712 17.244C15.8712 17.5228 16.0972 17.7488 16.376 17.7488Z" fill="#9DEDC0"/>
<path d="M20.5376 17.7488C20.8164 17.7488 21.0424 17.5228 21.0424 17.244C21.0424 16.9652 20.8164 16.7393 20.5376 16.7393C20.2588 16.7393 20.0328 16.9652 20.0328 17.244C20.0328 17.5228 20.2588 17.7488 20.5376 17.7488Z" fill="#9DEDC0"/>
<path d="M19.7813 18.2505C19.7813 18.4172 20.1452 19.6094 18.4284 19.6094C16.7115 19.6094 17.0755 18.4166 17.0755 18.2505C17.0761 18.0838 19.7813 18.0838 19.7813 18.2505Z" fill="#9DEDC0"/>
<path d="M18.6036 18.5287H18.2662C18.2423 18.5287 18.223 18.5094 18.223 18.4855V18.1235H18.6467V18.4855C18.6467 18.5094 18.6275 18.5287 18.6036 18.5287Z" fill="#F9F8F7"/>
<path d="M18.937 18.4383H18.5996C18.5757 18.4383 18.5564 18.4191 18.5564 18.3952V18.1235H18.9801V18.3952C18.9801 18.4191 18.9609 18.4383 18.937 18.4383Z" fill="#F9F8F7"/>
<path d="M14.2048 9.9213C14.2048 9.9213 15.1008 9.62442 15.8101 10.4214C15.8094 10.4214 15.4667 10.6193 14.2048 9.9213Z" fill="#F9F8F7"/>
<path d="M16.3906 9.06396C16.3906 9.06396 17.2786 10.3 16.0466 11.1302C16.0466 11.1302 15.7305 10.5158 16.3906 9.06396Z" fill="#F9F8F7"/>
<path d="M16.6543 12.1212C16.6237 12.1298 16.5899 12.1292 16.5593 12.1159C16.4052 12.0508 15.5172 11.1117 15.2874 8.5301C15.2808 8.45638 15.3346 8.39196 15.409 8.38531C15.4827 8.37867 15.5471 8.43313 15.5538 8.50685C15.7849 11.103 16.6649 11.8688 16.6735 11.8748C16.7413 11.9033 16.7685 11.9797 16.7399 12.0475C16.724 12.0847 16.6914 12.1106 16.6543 12.1212Z" fill="#F9F8F7"/>
<path d="M15.0669 7.93816C15.0669 7.93816 13.6058 7.83854 13.5619 8.4489C13.5181 9.05992 15.0842 8.3506 15.0669 7.93816Z" fill="#F9F8F7"/>
<path d="M15.0489 7.93506C15.0489 7.93506 13.6973 8.79979 14.2028 9.13652C14.7082 9.47324 15.4288 8.13098 15.0489 7.93506Z" fill="#F9F8F7"/>
<path d="M15.308 7.8667C15.308 7.8667 14.3097 9.03893 14.9606 9.16844C15.6115 9.29795 15.7729 7.91452 15.308 7.8667Z" fill="#F9F8F7"/>
<path d="M15.3652 7.72702C15.3652 7.72702 14.1511 6.77993 14.0495 7.43612C13.9479 8.0923 15.3373 8.19325 15.3652 7.72702Z" fill="#F9F8F7"/>
<path d="M15.3758 7.92968C15.3758 7.92968 16.5613 6.94673 15.9429 6.70697C15.324 6.46721 14.9261 7.80217 15.3758 7.92968Z" fill="#F9F8F7"/>
<path d="M15.5159 7.96669C15.5159 7.96669 15.389 6.71941 14.9387 6.96648C14.4884 7.21354 15.2203 8.17192 15.5159 7.96669Z" fill="#F9F8F7"/>
<path d="M15.4554 7.87534C15.4554 7.87534 16.2166 6.62473 16.7412 6.94087C17.2659 7.25701 15.7822 8.12772 15.4554 7.87534Z" fill="#F9F8F7"/>
<path d="M15.381 7.79273C15.381 7.79273 16.8674 7.18769 16.8501 7.79473C16.8328 8.40176 15.3219 8.2158 15.381 7.79273Z" fill="#F9F8F7"/>
<path d="M15.29 7.76172C15.29 7.76172 16.7485 8.25585 16.2564 8.70083C15.7642 9.14582 14.9154 8.04199 15.29 7.76172Z" fill="#F9F8F7"/>
<path d="M15.3812 8.26471C15.8095 8.04288 16.0825 7.71968 15.9909 7.54281C15.8993 7.36594 15.4778 7.40239 15.0495 7.62422C14.6211 7.84605 14.3482 8.16926 14.4398 8.34612C14.5314 8.52299 14.9529 8.48654 15.3812 8.26471Z" fill="#F9F8F7"/>
<path d="M8.34973 14.3648C8.34973 14.3648 12.8607 9.91366 17.6904 11.847C17.6904 11.847 15.2669 16.3281 8.34973 14.3648Z" fill="#F9F8F7"/>
<path d="M27.4316 16.7399C27.4316 16.7399 27.8208 15.9993 27.2091 15.9595C27.2098 15.9595 27.1102 16.4702 27.4316 16.7399Z" fill="#F9F8F7"/>
<path d="M28.2173 15.2305C28.2173 15.2305 27.0816 16.5488 25.9738 16.2845" stroke="#F9F8F7" stroke-width="0.2" stroke-miterlimit="10" stroke-linecap="round"/>
<path d="M28.352 15.1699C28.352 15.1699 27.8785 15.9184 27.5644 15.7211C27.2509 15.5239 28.1568 15.0138 28.352 15.1699Z" fill="#F9F8F7"/>
<path d="M28.3793 15.23C28.3793 15.23 28.9272 16.031 28.5665 16.0987C28.2052 16.1664 28.1216 15.2492 28.3793 15.23Z" fill="#F9F8F7"/>
<path d="M28.3727 15.2998C28.3727 15.2998 29.2102 15.4937 28.9498 15.7342C28.6895 15.9746 28.1728 15.4532 28.3727 15.2998Z" fill="#F9F8F7"/>
<path d="M28.3879 15.2347C28.3879 15.2347 28.3129 16.1632 27.9795 15.94C27.6461 15.7169 28.1681 15.0567 28.3879 15.2347Z" fill="#F9F8F7"/>
<path d="M28.3906 15.6119C28.3906 15.6119 27.7364 14.9491 28.1229 14.8422C28.5094 14.7346 28.6688 15.5614 28.3906 15.6119Z" fill="#F9F8F7"/>
<path d="M28.3116 15.1173C28.3116 15.1173 29.0674 15.0549 28.9698 15.3504C28.8728 15.646 28.2226 15.3159 28.3116 15.1173Z" fill="#F9F8F7"/>
<path d="M28.3747 15.0919C28.3747 15.0919 27.4236 14.8987 27.5013 15.258C27.5797 15.6166 28.4571 15.337 28.3747 15.0919Z" fill="#F9F8F7"/>
<path d="M28.6196 15.3373C28.6406 15.2188 28.5027 15.0953 28.3116 15.0615C28.1206 15.0276 27.9487 15.0962 27.9277 15.2147C27.9067 15.3332 28.0445 15.4566 28.2356 15.4905C28.4267 15.5244 28.5986 15.4558 28.6196 15.3373Z" fill="#F9F8F7"/>
<path d="M9.54855 17.2299C9.54855 17.2299 9.16401 16.4987 9.76839 16.4595C9.76839 16.4595 9.86668 16.9636 9.54855 17.2299Z" fill="#F9F8F7"/>
<path d="M8.77344 15.7393C8.77344 15.7393 9.89522 17.041 10.9891 16.78" stroke="#F9F8F7" stroke-width="0.2" stroke-miterlimit="10" stroke-linecap="round"/>
<path d="M8.63989 15.6792C8.63989 15.6792 9.10812 16.4184 9.41762 16.2238C9.72778 16.0293 8.8325 15.5252 8.63989 15.6792Z" fill="#F9F8F7"/>
<path d="M8.61276 15.7393C8.61276 15.7393 8.07149 16.5303 8.42814 16.5973C8.78479 16.6638 8.8678 15.7579 8.61276 15.7393Z" fill="#F9F8F7"/>
<path d="M8.61939 15.8081C8.61939 15.8081 7.79251 15.9994 8.04954 16.2372C8.30656 16.4749 8.8173 15.9602 8.61939 15.8081Z" fill="#F9F8F7"/>
<path d="M8.60474 15.7441C8.60474 15.7441 8.67845 16.6613 9.00787 16.4408C9.33729 16.2203 8.82125 15.5681 8.60474 15.7441Z" fill="#F9F8F7"/>
<path d="M8.60199 16.1161C8.60199 16.1161 9.24822 15.4619 8.86633 15.3556C8.48444 15.25 8.32703 16.0669 8.60199 16.1161Z" fill="#F9F8F7"/>
<path d="M8.67978 15.6279C8.67978 15.6279 7.93327 15.5668 8.02957 15.8584C8.12587 16.1499 8.76745 15.8238 8.67978 15.6279Z" fill="#F9F8F7"/>
<path d="M8.61728 15.6029C8.61728 15.6029 9.55706 15.4123 9.47935 15.767C9.40297 16.1216 8.53625 15.8453 8.61728 15.6029Z" fill="#F9F8F7"/>
<path d="M8.76357 16.0194C8.95248 15.9859 9.0888 15.8639 9.06806 15.7469C9.04732 15.6299 8.87738 15.5622 8.68847 15.5956C8.49957 15.6291 8.36325 15.7511 8.38399 15.8681C8.40472 15.9852 8.57467 16.0529 8.76357 16.0194Z" fill="#F9F8F7"/>
</svg>
