<svg width="36" height="36" viewBox="0 0 36 36" fill="none" xmlns="http://www.w3.org/2000/svg">
<path d="M22.1582 5.00002C22.1582 5.00002 24.2755 5.74454 24.4528 8.19793C24.4528 8.19793 23.5204 8.06643 22.1582 5.00002Z" fill="white"/>
<path d="M23.9786 7.89048C23.9786 7.89048 27.1639 7.30603 27.6866 10.3372C27.6866 10.3372 26.2135 10.3937 23.9786 7.89048Z" fill="white"/>
<path d="M18.6794 11.5493C18.7637 11.3965 19.7307 7.36046 24.2264 7.96219" stroke="white" stroke-width="0.3" stroke-miterlimit="10" stroke-linecap="round"/>
<path d="M11.1839 19.6346C11.2755 19.9673 12.2817 23.1008 12.922 24.2172C11.3041 23.8765 7.60543 22.5403 8.55982 18.9439C9.24324 16.3669 11.166 19.7023 11.1839 19.6346Z" fill="white"/>
<path d="M24.1707 19.2341C24.0791 19.5669 23.0729 22.7004 22.4326 23.8168C24.0505 23.4761 27.7492 22.1398 26.7948 18.5434C26.1114 15.9672 24.188 19.3025 24.1707 19.2341Z" fill="white"/>
<path d="M22.8059 9.47098C22.8059 9.47098 19.4692 14.2124 15.4763 12.813C15.4763 12.813 16.8983 9.20001 22.8059 9.47098Z" fill="white"/>
<path d="M19.268 6.69952C19.268 6.69952 21.0911 11.9344 15.2791 12.8051C15.2791 12.8051 15.3754 10.3783 19.268 6.69952Z" fill="white"/>
<path d="M24.8954 12.9253C24.8954 12.9253 19.709 15.5169 16.8578 12.3907C16.8578 12.3907 19.8232 9.88482 24.8954 12.9253Z" fill="white"/>
<path d="M23.5677 22.7309C25.5775 19.5529 24.3681 15.5939 22.9414 13.9116C21.4737 12.1808 18.2658 11.2218 14.8088 12.3183C13.2275 12.8204 10.9787 14.4031 11.073 18.4451C11.152 21.8396 12.9419 23.0949 11.5884 25.0183C10.4042 26.7006 11.0843 31.5708 14.7663 29.8792C17.5 28.6233 21.734 30.4989 22.6459 29.9005C25.2846 28.1697 21.9266 25.3271 23.5677 22.7309Z" fill="white"/>
<path d="M15.376 17.7484C15.6548 17.7484 15.8807 17.5224 15.8807 17.2437C15.8807 16.9649 15.6548 16.7389 15.376 16.7389C15.0972 16.7389 14.8712 16.9649 14.8712 17.2437C14.8712 17.5224 15.0972 17.7484 15.376 17.7484Z" fill="#F0A282"/>
<path d="M19.5376 17.7484C19.8163 17.7484 20.0423 17.5224 20.0423 17.2437C20.0423 16.9649 19.8163 16.7389 19.5376 16.7389C19.2588 16.7389 19.0328 16.9649 19.0328 17.2437C19.0328 17.5224 19.2588 17.7484 19.5376 17.7484Z" fill="#F0A282"/>
<path d="M18.7812 18.2505C18.7812 18.4172 19.1451 19.6094 17.4283 19.6094C15.7114 19.6094 16.0754 18.4165 16.0754 18.2505C16.076 18.0838 18.7812 18.0838 18.7812 18.2505Z" fill="#F0A282"/>
<path d="M17.6036 18.5287H17.2662C17.2422 18.5287 17.223 18.5095 17.223 18.4855V18.1236H17.6467V18.4855C17.6467 18.5095 17.6275 18.5287 17.6036 18.5287Z" fill="white"/>
<path d="M17.937 18.4384H17.5996C17.5757 18.4384 17.5564 18.4191 17.5564 18.3952V18.1236H17.9801V18.3952C17.9801 18.4191 17.9609 18.4384 17.937 18.4384Z" fill="white"/>
<path d="M13.2048 9.92121C13.2048 9.92121 14.1007 9.62433 14.81 10.4213C14.8094 10.4213 14.4667 10.6192 13.2048 9.92121Z" fill="white"/>
<path d="M15.3906 9.06378C15.3906 9.06378 16.2785 10.2998 15.0465 11.13C15.0465 11.13 14.7304 10.5156 15.3906 9.06378Z" fill="white"/>
<path d="M15.6542 12.1209C15.6237 12.1295 15.5898 12.1289 15.5593 12.1156C15.4052 12.0505 14.5172 11.1114 14.2874 8.52979C14.2807 8.45607 14.3345 8.39165 14.4089 8.38501C14.4827 8.37837 14.5471 8.43283 14.5537 8.50655C14.7849 11.1027 15.6649 11.8685 15.6735 11.8745C15.7412 11.903 15.7685 11.9794 15.7399 12.0472C15.724 12.0844 15.6914 12.1103 15.6542 12.1209Z" fill="white"/>
<path d="M14.0668 7.93811C14.0668 7.93811 12.6057 7.83849 12.5618 8.44884C12.518 9.05987 14.0841 8.35055 14.0668 7.93811Z" fill="white"/>
<path d="M14.0488 7.93478C14.0488 7.93478 12.6973 8.79951 13.2027 9.13623C13.7081 9.47296 14.4287 8.1307 14.0488 7.93478Z" fill="white"/>
<path d="M14.3078 7.86637C14.3078 7.86637 13.3096 9.03861 13.9605 9.16812C14.6113 9.29763 14.7727 7.91419 14.3078 7.86637Z" fill="white"/>
<path d="M14.365 7.72688C14.365 7.72688 13.151 6.77979 13.0494 7.43598C12.9478 8.09217 14.3371 8.19312 14.365 7.72688Z" fill="white"/>
<path d="M14.3757 7.92945C14.3757 7.92945 15.5612 6.9465 14.9429 6.70674C14.3239 6.46698 13.9261 7.80194 14.3757 7.92945Z" fill="white"/>
<path d="M14.5158 7.96669C14.5158 7.96669 14.389 6.7194 13.9387 6.96647C13.4884 7.21353 14.2203 8.17191 14.5158 7.96669Z" fill="white"/>
<path d="M14.4553 7.87497C14.4553 7.87497 15.2164 6.62437 15.7411 6.9405C16.2658 7.25664 14.7821 8.12735 14.4553 7.87497Z" fill="white"/>
<path d="M14.3809 7.79267C14.3809 7.79267 15.8673 7.18762 15.8501 7.79466C15.8328 8.4017 14.3218 8.21573 14.3809 7.79267Z" fill="white"/>
<path d="M14.29 7.7614C14.29 7.7614 15.7485 8.25553 15.2563 8.70051C14.7642 9.1455 13.9154 8.04167 14.29 7.7614Z" fill="white"/>
<path d="M14.3811 8.26454C14.8094 8.04271 15.0824 7.71951 14.9908 7.54264C14.8992 7.36577 14.4777 7.40222 14.0494 7.62405C13.6211 7.84588 13.3481 8.16909 13.4397 8.34596C13.5313 8.52282 13.9528 8.48638 14.3811 8.26454Z" fill="white"/>
<path d="M7.3497 14.3645C7.3497 14.3645 11.8607 9.91335 16.6904 11.8467C16.6904 11.8467 14.2669 16.3278 7.3497 14.3645Z" fill="white"/>
<path d="M26.4316 16.7396C26.4316 16.7396 26.8208 15.9991 26.2091 15.9593C26.2098 15.9593 26.1102 16.47 26.4316 16.7396Z" fill="white"/>
<path d="M27.2173 15.2306C27.2173 15.2306 26.0816 16.5489 24.9738 16.2846" stroke="white" stroke-width="0.2" stroke-miterlimit="10" stroke-linecap="round"/>
<path d="M27.352 15.1695C27.352 15.1695 26.8785 15.918 26.5644 15.7208C26.2509 15.5235 27.1568 15.0135 27.352 15.1695Z" fill="white"/>
<path d="M27.3793 15.23C27.3793 15.23 27.9272 16.031 27.5665 16.0987C27.2052 16.1665 27.1216 15.2493 27.3793 15.23Z" fill="white"/>
<path d="M27.3726 15.2996C27.3726 15.2996 28.2101 15.4936 27.9498 15.734C27.6894 15.9744 27.1727 15.4531 27.3726 15.2996Z" fill="white"/>
<path d="M27.388 15.2346C27.388 15.2346 27.3129 16.1631 26.9795 15.94C26.6461 15.7168 27.1681 15.0566 27.388 15.2346Z" fill="white"/>
<path d="M27.3906 15.6118C27.3906 15.6118 26.7364 14.949 27.123 14.8421C27.5095 14.7345 27.6689 15.5613 27.3906 15.6118Z" fill="white"/>
<path d="M27.3116 15.1171C27.3116 15.1171 28.0674 15.0546 27.9698 15.3502C27.8728 15.6457 27.2226 15.3157 27.3116 15.1171Z" fill="white"/>
<path d="M27.3747 15.0918C27.3747 15.0918 26.4237 14.8986 26.5014 15.2579C26.5797 15.6165 27.4571 15.3369 27.3747 15.0918Z" fill="white"/>
<path d="M27.6196 15.3373C27.6405 15.2188 27.5027 15.0953 27.3116 15.0614C27.1205 15.0276 26.9486 15.0962 26.9276 15.2147C26.9066 15.3331 27.0445 15.4566 27.2356 15.4905C27.4267 15.5243 27.5986 15.4558 27.6196 15.3373Z" fill="white"/>
<path d="M8.54855 17.2297C8.54855 17.2297 8.16401 16.4985 8.76839 16.4593C8.76839 16.4593 8.86668 16.9634 8.54855 17.2297Z" fill="white"/>
<path d="M7.7735 15.7393C7.7735 15.7393 8.89528 17.0411 9.98915 16.7801" stroke="white" stroke-width="0.2" stroke-miterlimit="10" stroke-linecap="round"/>
<path d="M7.63992 15.679C7.63992 15.679 8.10815 16.4182 8.41765 16.2236C8.72781 16.029 7.83253 15.5249 7.63992 15.679Z" fill="white"/>
<path d="M7.61279 15.7393C7.61279 15.7393 7.07152 16.5304 7.42817 16.5974C7.78482 16.6638 7.86783 15.7579 7.61279 15.7393Z" fill="white"/>
<path d="M7.61939 15.8077C7.61939 15.8077 6.79251 15.999 7.04954 16.2368C7.30656 16.4746 7.8173 15.9598 7.61939 15.8077Z" fill="white"/>
<path d="M7.60471 15.744C7.60471 15.744 7.67842 16.6612 8.00784 16.4407C8.33726 16.2202 7.82122 15.568 7.60471 15.744Z" fill="white"/>
<path d="M7.60206 16.1159C7.60206 16.1159 8.24828 15.4617 7.86639 15.3555C7.4845 15.2499 7.3271 16.0668 7.60206 16.1159Z" fill="white"/>
<path d="M7.67984 15.6278C7.67984 15.6278 6.93333 15.5667 7.02963 15.8583C7.12594 16.1499 7.76751 15.8238 7.67984 15.6278Z" fill="white"/>
<path d="M7.61734 15.6026C7.61734 15.6026 8.55712 15.4119 8.47941 15.7666C8.40303 16.1213 7.53631 15.845 7.61734 15.6026Z" fill="white"/>
<path d="M7.7636 16.0194C7.95251 15.9859 8.08883 15.8639 8.06809 15.7469C8.04735 15.6299 7.87741 15.5621 7.6885 15.5956C7.4996 15.6291 7.36328 15.7511 7.38402 15.8681C7.40475 15.9852 7.5747 16.0529 7.7636 16.0194Z" fill="white"/>
</svg>
