<svg width="36" height="36" viewBox="0 0 36 36" fill="none" xmlns="http://www.w3.org/2000/svg">
<path d="M25.2731 20.8397C25.1656 20.449 23.9854 16.7761 23.2352 15.4667C25.1319 15.8663 29.4683 17.4324 28.3499 21.6492C27.5484 24.6707 25.2939 20.7603 25.2731 20.8397Z" fill="white"/>
<path d="M11.2578 20.9271C11.3653 20.5364 12.5455 16.8635 13.2957 15.5541C11.3991 15.9537 7.06264 17.5198 8.18184 21.7366C8.98334 24.7581 11.2378 20.8477 11.2578 20.9271Z" fill="white"/>
<path d="M27.3319 12.1355C27.3319 12.1355 21.1157 14.8858 17.9483 11.0685C17.9483 11.0677 21.5586 8.29574 27.3319 12.1355Z" fill="white"/>
<path d="M23.703 9.02272C23.703 9.02272 21.9187 12.4221 17.0985 11.5917C17.0985 11.5917 17.5013 10.0039 23.703 9.02272Z" fill="white"/>
<path d="M14.6139 11.6196C12.7165 12.5013 9.81458 15.0117 10.1467 20.0189C10.2358 21.3619 10.4308 23.7375 11.2523 25.1488C12.0739 26.56 11.067 27.9167 11.286 29.3055C11.5042 30.6862 15.3544 29.5044 21.3275 29.0166C24.9074 28.7246 25.1802 30.4287 25.6182 28.7487C26.0394 27.1352 24.9363 26.7838 25.4441 25.2868C26.0739 23.4294 26.6797 23.1029 26.8321 20.2283C27.344 10.6007 18.2435 9.93319 14.6139 11.6196Z" fill="white"/>
<path d="M15.5557 17.5094C15.8827 17.5094 16.1478 17.2443 16.1478 16.9173C16.1478 16.5903 15.8827 16.3252 15.5557 16.3252C15.2287 16.3252 14.9636 16.5903 14.9636 16.9173C14.9636 17.2443 15.2287 17.5094 15.5557 17.5094Z" fill="#F0A282"/>
<path d="M20.4345 17.5094C20.7615 17.5094 21.0266 17.2443 21.0266 16.9173C21.0266 16.5903 20.7615 16.3252 20.4345 16.3252C20.1075 16.3252 19.8424 16.5903 19.8424 16.9173C19.8424 17.2443 20.1075 17.5094 20.4345 17.5094Z" fill="#F0A282"/>
<path d="M19.1476 18.2226C19.1476 18.3839 18.6165 18.9214 17.961 18.9214C17.3056 18.9214 16.7744 18.3839 16.7744 18.2226C16.7744 18.0614 17.3056 18.1978 17.961 18.1978C18.6165 18.1978 19.1476 18.0614 19.1476 18.2226Z" fill="#F0A282"/>
<path d="M18.1022 18.4433H17.7949C17.766 18.4433 17.7427 18.42 17.7427 18.3911V18.1905H18.1535V18.3911C18.1543 18.42 18.131 18.4433 18.1022 18.4433Z" fill="white"/>
<path d="M15.4956 8.26601C15.4956 8.26601 16.6429 8.22349 17.2005 9.39565C17.2005 9.39565 16.7335 9.51037 15.4956 8.26601Z" fill="white"/>
<path d="M18.3405 8.0069C18.3405 8.0069 18.9575 9.7519 17.2373 10.3039C17.2365 10.3039 17.0761 9.47832 18.3405 8.0069Z" fill="white"/>
<path d="M17.6105 11.6678C17.572 11.6678 17.5327 11.655 17.5014 11.6293C17.3441 11.5009 16.6252 10.1025 17.2334 7.00887C17.251 6.92061 17.3361 6.86365 17.4243 6.8805C17.5126 6.89815 17.5696 6.98319 17.5527 7.07145C16.9414 10.1828 17.7084 11.3766 17.7172 11.3862C17.787 11.4432 17.7926 11.541 17.7356 11.6108C17.7035 11.6486 17.657 11.6678 17.6105 11.6678Z" fill="white"/>
<path d="M17.1773 6.24268C17.1773 6.24268 15.5045 5.62973 15.2453 6.32853C14.9862 7.02653 17.0569 6.73048 17.1773 6.24268Z" fill="white"/>
<path d="M17.1572 6.23222C17.1572 6.23222 15.2847 6.7834 15.7604 7.34822C16.237 7.91304 17.5343 6.59005 17.1572 6.23222Z" fill="white"/>
<path d="M17.4829 6.24029C17.4829 6.24029 15.9184 7.27044 16.6349 7.6427C17.3513 8.01497 18.0092 6.4545 17.4829 6.24029Z" fill="white"/>
<path d="M17.5968 6.0966C17.5968 6.0966 16.5001 4.57785 16.1591 5.30955C15.8181 6.04124 17.4051 6.63254 17.5968 6.0966Z" fill="white"/>
<path d="M17.5399 6.33733C17.5399 6.33733 19.2584 5.592 18.6174 5.1018C17.9763 4.61159 17.0577 6.03487 17.5399 6.33733Z" fill="white"/>
<path d="M17.6915 6.42868C17.6915 6.42868 17.9674 4.92838 17.3569 5.06477C16.7463 5.20036 17.2767 6.56748 17.6915 6.42868Z" fill="white"/>
<path d="M17.6514 6.30032C17.6514 6.30032 18.9656 5.09767 19.471 5.64564C19.9765 6.19361 17.9483 6.70628 17.6514 6.30032Z" fill="white"/>
<path d="M17.5928 6.17939C17.5928 6.17939 19.5344 5.97721 19.3081 6.68082C19.0827 7.38444 17.3802 6.65354 17.5928 6.17939Z" fill="white"/>
<path d="M17.4974 6.11192C17.4974 6.11192 19.033 7.18379 18.3077 7.5368C17.5825 7.88981 16.9647 6.3117 17.4974 6.11192Z" fill="white"/>
<path d="M17.4326 6.7563C18.0086 6.64264 18.4376 6.35808 18.3907 6.12072C18.3439 5.88336 17.839 5.78309 17.263 5.89675C16.6869 6.01041 16.258 6.29497 16.3048 6.53233C16.3516 6.76969 16.8566 6.86996 17.4326 6.7563Z" fill="white"/>
</svg>
