<svg width="36" height="36" viewBox="0 0 36 36" fill="none" xmlns="http://www.w3.org/2000/svg">
<circle cx="18" cy="18" r="18" fill="#9DEDC0"/>
<path d="M25.2731 20.8398C25.1656 20.4491 23.9854 16.7761 23.2352 15.4668C25.1319 15.8663 29.4683 17.4324 28.3499 21.6493C27.5484 24.6708 25.2939 20.7604 25.2731 20.8398Z" fill="white"/>
<path d="M11.2578 20.9272C11.3653 20.5365 12.5455 16.8635 13.2957 15.5542C11.3991 15.9537 7.06264 17.5198 8.18184 21.7367C8.98334 24.7582 11.2378 20.8478 11.2578 20.9272Z" fill="white"/>
<path d="M27.3319 12.1354C27.3319 12.1354 21.1157 14.8857 17.9482 11.0684C17.9482 11.0676 21.5586 8.29564 27.3319 12.1354Z" fill="white"/>
<path d="M23.703 9.02295C23.703 9.02295 21.9187 12.4223 17.0985 11.5919C17.0985 11.5919 17.5013 10.0042 23.703 9.02295Z" fill="white"/>
<path d="M14.614 11.6194C12.7165 12.5012 9.81464 15.0115 10.1468 20.0187C10.2359 21.3617 10.4308 23.7373 11.2524 25.1486C12.0739 26.5598 11.067 27.9165 11.2861 29.3053C11.5043 30.686 15.3545 29.5042 21.3276 29.0165C24.9075 28.7244 25.1802 30.4285 25.6183 28.7485C26.0395 27.1351 24.9363 26.7837 25.4442 25.2866C26.074 23.4293 26.6797 23.1027 26.8322 20.2281C27.344 10.6005 18.2436 9.933 14.614 11.6194Z" fill="white"/>
<path d="M15.5557 17.5094C15.8827 17.5094 16.1478 17.2443 16.1478 16.9173C16.1478 16.5903 15.8827 16.3252 15.5557 16.3252C15.2287 16.3252 14.9636 16.5903 14.9636 16.9173C14.9636 17.2443 15.2287 17.5094 15.5557 17.5094Z" fill="#9DEDC0"/>
<path d="M20.4345 17.5094C20.7615 17.5094 21.0266 17.2443 21.0266 16.9173C21.0266 16.5903 20.7615 16.3252 20.4345 16.3252C20.1075 16.3252 19.8424 16.5903 19.8424 16.9173C19.8424 17.2443 20.1075 17.5094 20.4345 17.5094Z" fill="#9DEDC0"/>
<path d="M19.1476 18.2228C19.1476 18.384 18.6165 18.9216 17.961 18.9216C17.3055 18.9216 16.7744 18.384 16.7744 18.2228C16.7744 18.0615 17.3055 18.1979 17.961 18.1979C18.6165 18.1979 19.1476 18.0615 19.1476 18.2228Z" fill="#9DEDC0"/>
<path d="M18.1022 18.4432H17.7949C17.7661 18.4432 17.7428 18.4199 17.7428 18.391V18.1904H18.1536V18.391C18.1544 18.4199 18.1311 18.4432 18.1022 18.4432Z" fill="white"/>
<path d="M15.4956 8.26582C15.4956 8.26582 16.6429 8.2233 17.2005 9.39545C17.2005 9.39545 16.7336 9.51018 15.4956 8.26582Z" fill="white"/>
<path d="M18.3405 8.00684C18.3405 8.00684 18.9574 9.75183 17.2373 10.3038C17.2365 10.3038 17.0761 9.47825 18.3405 8.00684Z" fill="white"/>
<path d="M17.6105 11.6677C17.572 11.6677 17.5327 11.6549 17.5014 11.6292C17.3441 11.5008 16.6252 10.1024 17.2334 7.00876C17.251 6.92051 17.3361 6.86354 17.4243 6.88039C17.5126 6.89804 17.5696 6.98309 17.5527 7.07134C16.9414 10.1826 17.7084 11.3765 17.7172 11.3861C17.787 11.4431 17.7926 11.5409 17.7356 11.6107C17.7035 11.6484 17.657 11.6677 17.6105 11.6677Z" fill="white"/>
<path d="M17.1772 6.24281C17.1772 6.24281 15.5045 5.62985 15.2453 6.32865C14.9862 7.02665 17.0569 6.7306 17.1772 6.24281Z" fill="white"/>
<path d="M17.1572 6.23242C17.1572 6.23242 15.2846 6.7836 15.7604 7.34842C16.237 7.91324 17.5343 6.59025 17.1572 6.23242Z" fill="white"/>
<path d="M17.483 6.24023C17.483 6.24023 15.9185 7.27038 16.6349 7.64265C17.3514 8.01492 18.0093 6.45445 17.483 6.24023Z" fill="white"/>
<path d="M17.5968 6.09668C17.5968 6.09668 16.5 4.57793 16.159 5.30963C15.8181 6.04132 17.405 6.63261 17.5968 6.09668Z" fill="white"/>
<path d="M17.5399 6.33733C17.5399 6.33733 19.2584 5.592 18.6174 5.1018C17.9763 4.61159 17.0577 6.03487 17.5399 6.33733Z" fill="white"/>
<path d="M17.6914 6.42882C17.6914 6.42882 17.9674 4.92853 17.3569 5.06492C16.7463 5.20051 17.2766 6.56762 17.6914 6.42882Z" fill="white"/>
<path d="M17.6514 6.30019C17.6514 6.30019 18.9655 5.09755 19.471 5.64552C19.9764 6.19349 17.9482 6.70616 17.6514 6.30019Z" fill="white"/>
<path d="M17.5928 6.17927C17.5928 6.17927 19.5344 5.97709 19.3081 6.68071C19.0827 7.38432 17.3802 6.65343 17.5928 6.17927Z" fill="white"/>
<path d="M17.4974 6.11182C17.4974 6.11182 19.033 7.18369 18.3078 7.5367C17.5825 7.88971 16.9647 6.31159 17.4974 6.11182Z" fill="white"/>
<path d="M17.4325 6.75628C18.0085 6.64262 18.4375 6.35806 18.3907 6.1207C18.3438 5.88335 17.8389 5.78307 17.2629 5.89673C16.6869 6.0104 16.2579 6.29496 16.3048 6.53231C16.3516 6.76967 16.8565 6.86995 17.4325 6.75628Z" fill="white"/>
</svg>
