<svg width="20" height="18" viewBox="0 0 20 18" fill="none" xmlns="http://www.w3.org/2000/svg">
<path d="M10.5272 13.8028L12.5155 11.9981C12.8743 11.6724 13.4388 11.6271 13.855 11.8906L16.4794 13.552C16.9835 13.8711 17.0473 14.5263 16.6127 14.9208V14.9208C15.9114 15.5573 14.9043 15.8337 13.9646 15.546C12.2178 15.0113 9.28088 13.8553 6.82632 11.6273C4.37176 9.39936 3.09822 6.7335 2.50911 5.14799C2.19218 4.29499 2.4967 3.38085 3.19798 2.74431V2.74431C3.63258 2.34982 4.35438 2.40775 4.70598 2.86534L6.53634 5.24747C6.82663 5.62527 6.77672 6.13762 6.4179 6.46331L4.42962 8.26806" stroke="black" stroke-width="2" stroke-linecap="round"/>
</svg>