<svg width="5" height="24" viewBox="0 0 5 24" fill="none" xmlns="http://www.w3.org/2000/svg">
<path fill-rule="evenodd" clip-rule="evenodd" d="M-1.09951e-07 3.498C-4.91992e-08 4.881 1.119 6 2.5 6C3.857 6 4.963 4.917 4.999 3.565L4.999 3.431C4.963 2.081 3.857 0.998001 2.5 0.998001C1.119 0.998001 -1.70571e-07 2.118 -1.09951e-07 3.498ZM-1.09951e-07 12.499C-4.9243e-08 13.881 1.119 14.999 2.5 14.999C3.857 14.999 4.963 13.917 4.999 12.566L4.999 12.432C4.963 11.081 3.857 9.99902 2.5 9.99902C1.119 9.99902 -1.70659e-07 11.117 -1.09951e-07 12.499ZM-1.0982e-07 21.5C-4.91552e-08 22.881 1.119 24 2.5 24C3.857 24 4.963 22.917 4.999 21.567L4.999 21.433C4.963 20.081 3.857 18.997 2.5 18.997C1.119 18.997 -1.70528e-07 20.118 -1.0982e-07 21.5Z" fill="#BFBFBF"/>
</svg>
