<svg xmlns="http://www.w3.org/2000/svg" width="35" height="36" viewBox="0 0 35 36" fill="none"><path d="M13.1 1.7L8.9 9.1 16.2 13.3M3.7 18.4C3.2 21.6 3.8 24.9 5.4 27.7 7 30.5 9.5 32.6 12.5 33.8 15.5 35 18.8 35.1 21.9 34.1 25 33.2 27.6 31.2 29.4 28.5 31.2 25.9 32 22.7 31.8 19.4 31.5 16.2 30.1 13.2 27.9 10.9 25.7 8.6 22.7 7.1 19.5 6.6 16.3 6.2 13.1 6.9 10.4 8.6" style="stroke-linejoin:round;stroke-width:2;stroke:#F0A282"/><path d="M11.5 20.1V19C12.1 19 12.7 18.9 13.1 18.7 13.6 18.4 13.9 18.1 13.9 17.6H15.1V26H13.6V20.1H11.5ZM18.1 22.2L19 17.6H23.4V18.8H20L19.6 21 19.6 21C20 20.6 20.5 20.4 21.2 20.4 22 20.4 22.6 20.6 23.1 21.2 23.6 21.7 23.8 22.3 23.8 23.2 23.8 23.9 23.6 24.6 23.1 25.2 22.6 25.8 21.8 26.2 20.9 26.2 20.1 26.2 19.4 26 18.8 25.5 18.3 25.1 18 24.4 18 23.6H19.3C19.4 24.1 19.5 24.4 19.8 24.7 20.1 24.9 20.4 25 20.9 25 21.9 25 22.4 24.4 22.4 23.2 22.4 22.7 22.3 22.3 22 22 21.8 21.6 21.4 21.4 20.8 21.4 20.1 21.4 19.7 21.7 19.5 22.2H18.1Z" fill="#F0A282"/></svg>