<svg xmlns="http://www.w3.org/2000/svg" width="35" height="36" viewBox="0 0 35 36" fill="none"><path d="M22.9 1.7L27.1 9.1 19.8 13.3M32.2 18.4C32.8 21.6 32.2 24.9 30.6 27.7 29 30.5 26.5 32.6 23.5 33.8 20.5 35 17.2 35.1 14.1 34.1 11 33.2 8.4 31.2 6.6 28.5 4.8 25.9 3.9 22.7 4.2 19.4 4.5 16.2 5.9 13.2 8.1 10.9 10.3 8.6 13.3 7.1 16.4 6.6 19.6 6.2 22.9 6.9 25.6 8.6" style="stroke-linejoin:round;stroke-width:2;stroke:#F0A282"/><path d="M11.5 20.1V19C12.1 19 12.7 18.9 13.1 18.7 13.6 18.4 13.9 18.1 13.9 17.6H15.1V26H13.6V20.1H11.5ZM18.1 22.2L19 17.6H23.4V18.8H20L19.6 21 19.6 21C20 20.6 20.5 20.4 21.2 20.4 22 20.4 22.6 20.6 23.1 21.2 23.6 21.7 23.8 22.3 23.8 23.2 23.8 23.9 23.6 24.6 23.1 25.2 22.6 25.8 21.8 26.2 20.9 26.2 20.1 26.2 19.4 26 18.8 25.5 18.3 25.1 18 24.4 18 23.6H19.3C19.4 24.1 19.5 24.4 19.8 24.7 20.1 24.9 20.4 25 20.9 25 21.9 25 22.4 24.4 22.4 23.2 22.4 22.7 22.3 22.3 22 22 21.8 21.6 21.4 21.4 20.8 21.4 20.1 21.4 19.7 21.7 19.5 22.2H18.1Z" fill="#F0A282"/></svg>